<svg width="32" height="32" version="1.1" xmlns="http://www.w3.org/2000/svg" xmlns:osb="http://www.openswatchbook.org/uri/2009/osb">
  <title>Mixxx 1.12+ iconset</title>
  <g id="a" transform="translate(0,16)" fill="#0f0f0f">
    <g fill="#0f0f0f">
      <rect x="24" y="-4" width="2" height="10"/>
      <rect x="20" y="-4" width="2" height="10"/>
      <rect x="14" y="-4" width="2" height="10"/>
      <rect x="10" y="-4" width="2" height="10"/>
      <rect x="6" y="-4" width="2" height="10"/>
    </g>
    <path d="m3-14c-0.554 0-1 0.446-1 1v26c0 0.554 0.446 1 1 1h26c0.554 0 1-0.446 1-1v-26c0-0.554-0.446-1-1-1zm1.2812 2h7.4375c0.14773 0 0.28125 0.223 0.28125 0.5v1c0 0.277-0.13352 0.5-0.28125 0.5h-7.4375c-0.14773 0-0.28125-0.223-0.28125-0.5v-1c0-0.277 0.13352-0.5 0.28125-0.5zm17.781 0h1.875c0.03693 0 0.0625 0.223 0.0625 0.5v3c0 0.277-0.02557 0.5-0.0625 0.5h-1.875c-0.036933 0-0.0625-0.223-0.0625-0.5v-3c0-0.277 0.02557-0.5 0.0625-0.5zm4 0h1.875c0.03693 0 0.0625 0.223 0.0625 0.5v3c0 0.277-0.02557 0.5-0.0625 0.5h-1.875c-0.036933 0-0.0625-0.223-0.0625-0.5v-3c0-0.277 0.02557-0.5 0.0625-0.5zm-21.188 8h22.312c0.48129 0 0.87629 0.23294 0.875 0.53125l-0.0625 14.469c-0.0013 0.2983-0.51871 1-1 1h-22c-0.48129 0-1-0.70169-1-1v-14.469c0-0.29831 0.39371-0.53125 0.875-0.53125z" color="#000000"/>
  </g>
</svg>
