<svg width="32" height="32" version="1.1" xmlns="http://www.w3.org/2000/svg" xmlns:osb="http://www.openswatchbook.org/uri/2009/osb">
  <title>Mixxx 1.12+ iconset</title>
  <path d="m4.9659 5.9339c-1.8377-0.0056-3.3125 1.5692-3.3125 3.5312v12.938c0 1.9621 1.4748 3.5257 3.3125 3.5312l21.722 0.06614c1.8377 0.0056 3.3125-1.5692 3.3125-3.5312v-12.938c0-1.9621-1.4748-3.5257-3.3125-3.5312zm0.03393 4.0661h2.9062v9h4.5625l1.0312 3h-8.5zm6 0h2.9688l3.0312 9 3.0312-9h2.9688l-4.0312 12h-3.9375zm13.719 0c1.77 0 2.4668 0.8556 2.9062 1.625 0.56654 0.9918 0.54371 2.3801-0.1875 3.3438-1.0262 1.3524-1.7104 1.5042-2.4375 2.2188h2.9062v1.8125h-6.0938c0.37921-1.064 0.65219-1.641 1.125-2.2188 1.2027-1.4696 3.5505-2.425 3.4062-3.75-0.0405-0.37207-0.13138-1.2188-1.6562-1.2188h-0.5625z" color="#000000" fill="#0f0f0f" fill-rule="evenodd"/>
</svg>
