<svg width="32" height="32" version="1.1" xmlns="http://www.w3.org/2000/svg" xmlns:osb="http://www.openswatchbook.org/uri/2009/osb">
  <title>Mixxx 1.12+ iconset</title>
  <g id="a" fill="#0f0f0f">
    <path transform="matrix(2.7985 2.7985 -2.7985 2.7985 21.686 -32.299)" d="m10.513 8.2563a3.2563 3.2563 0 0 1-1.6281 2.82 3.2563 3.2563 0 0 1-3.2563 0 3.2563 3.2563 0 0 1-1.6281-2.82"/>
    <g shape-rendering="auto">
      <path d="m27 29-7-0.01-6.5 0.01-5.5-6-5.5 6s22.88 6.7e-5 24.5 0z" color="#000000" color-rendering="auto" dominant-baseline="auto" image-rendering="auto" solid-color="#000000" stop-color="#000000" style="font-feature-settings:normal;font-variant-alternates:normal;font-variant-caps:normal;font-variant-east-asian:normal;font-variant-ligatures:normal;font-variant-numeric:normal;font-variant-position:normal;font-variation-settings:normal;inline-size:0;isolation:auto;mix-blend-mode:normal;shape-margin:0;shape-padding:0;text-decoration-color:#000000;text-decoration-line:none;text-decoration-style:solid;text-indent:0;text-orientation:mixed;text-transform:none;white-space:normal"/>
      <path d="m7.9883 22a1.0001 1.0001 0 0 0-0.72461 0.32422l-5.5 6a1.0001 1.0001 0 0 0 0.73633 1.6758s5.7714-9e-6 11.002 0c6.4164 1.1e-5 12.602 3.7e-5 13.496 0h0.001953a1.0001 1.0001 0 0 0 0.001953-2h-0.001953l-6.998-0.009766a1.0001 1.0001 0 0 0-0.003906 0l-6.0586 0.009766-5.2031-5.6758a1.0001 1.0001 0 0 0-0.74805-0.32422zm0.011719 2.4785 3.2266 3.5215c-2.8181-6e-6 -5.4348 3e-6 -6.4531 0l3.2266-3.5215z" color="#000000" color-rendering="auto" dominant-baseline="auto" image-rendering="auto" solid-color="#000000" stop-color="#000000" style="font-feature-settings:normal;font-variant-alternates:normal;font-variant-caps:normal;font-variant-east-asian:normal;font-variant-ligatures:normal;font-variant-numeric:normal;font-variant-position:normal;font-variation-settings:normal;inline-size:0;isolation:auto;mix-blend-mode:normal;shape-margin:0;shape-padding:0;text-decoration-color:#000000;text-decoration-line:none;text-decoration-style:solid;text-indent:0;text-orientation:mixed;text-transform:none;white-space:normal"/>
      <path d="m21 9 6-6" color="#000000" color-rendering="auto" dominant-baseline="auto" image-rendering="auto" solid-color="#000000" stop-color="#000000" style="font-feature-settings:normal;font-variant-alternates:normal;font-variant-caps:normal;font-variant-east-asian:normal;font-variant-ligatures:normal;font-variant-numeric:normal;font-variant-position:normal;font-variation-settings:normal;inline-size:0;isolation:auto;mix-blend-mode:normal;shape-margin:0;shape-padding:0;text-decoration-color:#000000;text-decoration-line:none;text-decoration-style:solid;text-indent:0;text-orientation:mixed;text-transform:none;white-space:normal"/>
      <path d="m27.029 2a1 1 0 0 0-0.73633 0.29297l-6 6a1 1 0 0 0 0 1.4141 1 1 0 0 0 1.4141 0l6-6a1 1 0 0 0 0-1.4141 1 1 0 0 0-0.67773-0.29297z" color="#000000" color-rendering="auto" dominant-baseline="auto" image-rendering="auto" solid-color="#000000" stop-color="#000000" style="font-feature-settings:normal;font-variant-alternates:normal;font-variant-caps:normal;font-variant-east-asian:normal;font-variant-ligatures:normal;font-variant-numeric:normal;font-variant-position:normal;font-variation-settings:normal;inline-size:0;isolation:auto;mix-blend-mode:normal;shape-margin:0;shape-padding:0;text-decoration-color:#000000;text-decoration-line:none;text-decoration-style:solid;text-indent:0;text-orientation:mixed;text-transform:none;white-space:normal"/>
    </g>
  </g>
</svg>
