<svg width="32" height="32" version="1.1" xmlns="http://www.w3.org/2000/svg" xmlns:osb="http://www.openswatchbook.org/uri/2009/osb" xmlns:xlink="http://www.w3.org/1999/xlink">
  <title>Mixxx 1.12+ iconset</title>
  <path d="m5.8081 1.006c-0.06049 0.16328-0.10889 2.6614-0.12099 5.5514l-0.0363 5.2575-0.06049-5.3882c-0.0363-3.3145-0.08469-4.6371-0.12099-3.4288l-0.04839 1.9593-0.07259-1.5511c-0.04839-0.91435-0.09679 1.2736-0.12099 5.3065l-0.06049 6.8577-0.0242-6.4984c-0.0242-4.1309-0.08469-6.4821-0.15728-6.4821-0.07259 0-0.13309 2.3512-0.14518 6.4821l-0.0363 6.4984-0.06049-6.2045c-0.07259-6.5637-0.10889-6.776-0.24198-1.3879l-0.07259 3.3472-0.0484-3.6737-0.04839-3.6737-0.07259 4.1636-0.072593 4.1636-0.036296-3.5921c-0.060494-6.2372-0.21778-5.8127-0.26617 0.73475-0.036296 5.5024-0.048395 5.7963-0.10889 2.8574-0.048395-2.2369-0.072593-2.7104-0.096791-1.5185-0.012099 0.96334-0.072593 1.7961-0.14519 1.845-0.060494 0.04897-0.12099 0.57147-0.12099 1.1429 0 0.99599-0.15728 1.5511-0.27827 0.94701-0.036297-0.19593-0.060494-0.13062-0.072593 0.14695 0 0.24492-0.10889 0.50616-0.21778 0.5878-1.3724 0.2096-1.3441 0.2939-1.3441 0.2939s0.42855 0.14449 1.3562 0.47351l0.09679 0.32655 0.096791-0.32655c0.072593-0.22859 0.10889-0.06532 0.10889 0.57147 0.012099 1.045 0.21778 0.93068 0.29037-0.16328 0.024197-0.40819 0.060494 0.40819 0.084691 1.7961l0.048395 2.5308 0.072593-1.6328c0.048395-1.1756 0.084691-0.31023 0.12099 3.1023 0.048396 4.0819 0.060494 4.4248 0.12099 2.4492 0.072592-2.5145 0.10889-2.4328 0.24198 0.48983 0.060494 1.5185 0.084691 0.65311 0.12099-3.7554l0.04839-5.7147 0.07259 5.4698c0.0484 3.0043 0.10889 5.5024 0.13309 5.5514 0.0242 0.04897 0.07259-2.4165 0.10889-5.4698l0.06049-5.5514 0.0363 5.829c0.0121 3.6901 0.07259 5.8453 0.14519 5.8453 0.07259 0 0.13309-1.3389 0.15728-3.4778l0.0242-3.4615 0.06049 4.0003c0.0484 3.6737 0.06049 3.8207 0.12099 1.8777l0.07259-2.1226 0.0484 2.939c0.03629 2.09 0.07259 0.86537 0.12099-4.2452l0.06049-7.1842 0.0363 7.5434c0.0121 4.9146 0.07259 7.5597 0.14518 7.5597 0.07259 0 0.13309-2.1063 0.14519-5.927l0.0363-5.9106 0.06049 5.3882c0.06049 4.9636 0.07259 5.1432 0.10889 2.2042l0.04839-3.1839 0.09679 3.4778c0.04839 1.9267 0.12099 3.5268 0.15728 3.5758 0.03629 0.06532 0.08469-3.1676 0.09679-7.1515l0.0363-7.2495 0.06049 7.1026c0.0363 3.9023 0.08469 6.1556 0.10889 4.98l0.0484-2.1226 0.14518 2.1226c0.14519 2.0736 0.14519 1.992 0.19358-4.1636l0.04839-6.2862 0.06049 6.0413c0.0363 3.3145 0.07259 5.9106 0.09679 5.7474 0.0121-0.16328 0.08469-0.24492 0.14518-0.19593 0.08469 0.06532 0.13309-1.0776 0.14519-3.2982l0.0242-3.3962 0.07259 3.1839c0.06049 2.7757 0.07259 2.3185 0.12099-3.4288l0.06049-6.6127 0.06049 6.6127c0.0484 4.9963 0.07259 5.9759 0.12099 4.0003l0.07259-2.6124 0.0242 2.6451c0.0121 1.6491 0.07259 2.6614 0.14518 2.6614 0.07259 0 0.13309-0.60413 0.14519-1.4368l0.0242-1.4205 0.12098 2.6124 0.14518-3.4288 0.0484 1.9593c0.0363 1.3879 0.07259 0.60413 0.12099-2.6941l0.06049-4.6534 0.0363 5.2902c0.0121 3.4125 0.06049 5.2575 0.14519 5.1432 0.06049-0.08163 0.13309-1.0286 0.15728-2.1063l0.0363-1.9593 0.0242 2.0736c0.02419 2.3675 0.25407 3.0696 0.29037 0.91435l0.0242-1.3552 0.0726 1.4695c0.07259 1.3062 0.08469 1.1593 0.12099-1.3879l0.04839-2.8574 0.0726 2.1226c0.04839 1.4368 0.08469-0.09799 0.12099-4.735l0.06049-6.8576 0.12098 12.083 0.12098-7.5108 0.06049 4.8983c0.0484 4.4411 0.06049 4.6534 0.12099 2.3675 0.04839-1.845 0.07259-2.1389 0.09679-1.1103 0.0121 0.83272 0.07259 1.4368 0.14518 1.4368 0.0726 0 0.13309 0.13062 0.14518 0.27758 0.0242 0.16328 0.06049-2.5798 0.09679-6.0739l0.06049-6.3678 0.06049 6.2862c0.04839 5.7147 0.06049 5.9923 0.12099 3.0206l0.0726-3.2655 0.02419 3.5431c0.0121 2.2369 0.0726 3.5594 0.14518 3.5594 0.0726 0 0.13309-1.1266 0.14519-2.988l0.0242-2.9716 0.07259 3.0206c0.06049 2.5471 0.0726 1.992 0.12099-3.5921l0.06049-6.6127 0.0242 6.4168c0.0242 4.1799 0.08469 6.3841 0.15728 6.3188 0.0726-0.06532 0.13309-1.5348 0.14519-3.6411l0.0363-3.5431 0.0605 4.5718 0.06049 4.5718 0.12098-14.695 0.06049 7.4291 0.06049 7.4291 0.06049-5.6331c0.02419-3.2166 0.07259-4.9963 0.10889-4.1636 0.07259 1.3879 0.08469 1.4368 0.19358 0.81639 0.09679-0.53882 0.13309-0.22859 0.18148 1.9593 0.06049 2.2042 0.07259 1.8124 0.10889-2.6124l0.04839-5.2249 0.09679 4.6534c0.14518 7.1026 0.18148 7.2495 0.22988 1.0613l0.0363-5.7147 0.08469 4.5391c0.0484 2.4818 0.12099 4.5718 0.16938 4.6371 0.0363 0.04897 0.08469-1.992 0.09679-4.5391l0.0121-4.6371 0.08469 4.5391c0.08469 4.5065 0.22988 6.2045 0.26617 3.1186 0.0121-1.2736 0.0363-1.4532 0.09679-0.8817 0.04839 0.42452 0.09679-0.81639 0.12099-3.0206l0.0363-3.7554 0.09679 2.4492c0.13309 3.3798 0.19358 3.6248 0.22988 1.0613 0.02419-2.2042 0.02419-2.2042 0.16938-1.2246l0.14519 0.97966 0.08469-0.89802c0.04839-0.48983 0.10889-1.1919 0.12099-1.5511 0.02419-0.35921 0.04839-0.11429 0.06049 0.53882 0.0363 1.5511 0.25408 1.4042 0.29037-0.1796 0.0121-0.78373 0.0363-0.94701 0.0605-0.48983 0.04839 0.75108 0.27827 0.97966 0.27827 0.2939 0-0.22859 0.06049-0.4082 0.12099-0.4082 0.07259 0 0.12099-0.13062 0.12099-0.2939 0-0.27757 0.13308-0.31022 1.3551-0.34288 0.9921-0.03266 0.36757 0.01634 0.44016 0.17961 0.06049 0.1143 0.10889 1.6818 0.12099 3.4778 0 1.7961 0.06049 3.4452 0.10889 3.6737 0.06049 0.24491 0.10889-0.62046 0.12099-2.2042 0.0121-1.4368 0.06049-2.939 0.10889-3.3472 0.09679-0.65311 0.10889-0.57147 0.13309 0.73475l0.0363 1.4695 0.10889-1.3879c0.13309-1.5838 0.22988-2.0899 0.30247-1.5185 0.0363 0.21226 0.13309 0.37554 0.22988 0.37554 0.13309 0 0.16938 0.2939 0.18148 1.2572 0.0121 0.70209 0.06049 1.4858 0.10889 1.7634l0.09679 0.48983 0.0121-0.57147c0.0242-0.84904 0.14518-1.3062 0.32666-1.3062 0.12099 0 0.16938 0.24491 0.18148 0.84904 0.0121 0.4735 0.04839 0.70209 0.0726 0.48983 0.09679-0.70209 0.27827-0.16328 0.30247 0.91435l0.02419 1.094 0.0726-1.3062 0.07259-1.3062 0.0363 1.3062c0.0363 0.99599 0.06049 1.1919 0.13309 0.81639l0.09679-0.48983 0.0121 0.44085c0 0.26124 0.0726 0.45718 0.13308 0.45718 0.0726 0 0.13309-0.57147 0.14519-1.3552l0.02419-1.3389 0.1452 2.6124 0.06049-1.0613c0.04839-0.8817 0.0726-0.71842 0.09679 0.89803l0.0484 1.9593 0.14518-1.6328c0.08469-0.89802 0.15728-1.5185 0.16938-1.3879 0.0121 0.21226 0.0242 0.21226 0.13309 0 0.0726-0.16328 0.12099 0.03266 0.15728 0.65311 0.0363 0.80006 0.04839 0.7674 0.06049-0.32655 0.0363-1.894 0.26617-2.0246 0.26617-0.16328 0 0.84904 0.04839 1.7307 0.09679 1.9593 0.07259 0.35921 0.09679 0.31023 0.15728-0.32655 0.06049-0.55515 0.08469-0.35921 0.09679 0.81638 0.0363 1.8614 0.08469 1.7634 0.19358-0.37554 0.04839-0.86537 0.13309-1.5838 0.19358-1.5838 0.06049 0 0.10889 0.13062 0.12099 0.27757 0 0.19593 0.06049 0.14695 0.15728-0.16328 0.20568-0.63678 0.31457-0.37554 0.31457 0.73475 0 0.52249 0.04839 0.94701 0.10889 0.94701 0.12099 0 0.21778-0.68576 0.36296-2.6124l0.09679-1.2246 0.0121 0.97966c0.02419 0.99599 0.20568 1.094 0.30247 0.16328 0.0242-0.27758 0.0726 0.21226 0.08469 1.0613l0.04839 1.5511 0.0726-1.3062c0.04839-0.73475 0.08469-1.0123 0.09679-0.63678 0.0726 2.0083 0.36296 2.988 0.41136 1.3225 0.0121-0.81639 0.02419-0.80006 0.09679 0.2939l0.0726 1.1429 0.04839-1.7144c0.0363-1.2246 0.06049-1.4858 0.09679-0.89802l0.06049 0.81638 0.15728-0.97966c0.12099-0.84904 0.14518-0.89803 0.16938-0.4082l0.02419 0.57147 0.09679-0.48983 0.09679-0.48983 0.0242 0.57147c0.0121 0.31023 0.0726 0.75108 0.12099 0.97967 0.08469 0.34288 0.09679 0.2939 0.10889-0.32656 0.0242-0.93068 0.24198-1.4858 0.26617-0.65311l0.0121 0.57147 0.09679-0.48983 0.09679-0.48983 0.0121 0.57147c0.0121 0.39186 0.0484 0.50616 0.12099 0.34288 0.08469-0.1796 0.12099-0.16328 0.16938 0.08163 0.0242 0.16328 0.0726-0.31023 0.09679-1.0776l0.0363-1.3879 0.0726 1.4695 0.0726 1.4695 0.04839-1.1429c0.0363-1.045 0.0484-1.0776 0.12099-0.48983 0.0726 0.53882 0.08469 0.44085 0.10889-0.62045 0.0121-0.99599 0.04839-1.2572 0.19358-1.2572 0.09679 0 0.18148 0.08163 0.18148 0.17961 0 0.13062 0.04839 0.13062 0.16938 0 0.13309-0.16328 0.18148-0.13062 0.22988 0.09799 0.0363 0.16328 0.06049 0.01631 0.0726-0.32656 0.0121-0.70209 0.21778-0.81639 0.29037-0.16328 0.0363 0.40819 0.04839 0.39186 0.07259-0.1143 0.02419-0.60413 0.36296-1.6164 0.37506-1.1103 0 0.34288 0.36296 0.21226 0.36296-0.1143 0-0.11429 0.0605-0.24492 0.13309-0.27757 0.16938-0.08163 0.16938-2.1389 0-2.2206-0.07259-0.03266-0.14519-0.2939-0.14519-0.57147l-0.0121-0.52249-0.08469 0.47351c-0.0726 0.45718-0.08469 0.4735-0.27827 0.19593-0.12099-0.14695-0.24198-0.53881-0.27827-0.8817-0.13308-1.0613-0.15728-1.1103-0.16938-0.4082-0.0121 0.7674-0.25407 0.99599-0.25407 0.24492 0-0.34288-0.0242-0.39187-0.12099-0.19594-0.08469 0.17961-0.12099-0.03266-0.14518-0.73475l-0.0121-0.97966-0.08469 0.97966c-0.08469 0.96334-0.08469 0.96334-0.09679 0.21226-0.02419-0.94701-0.22988-1.1756-0.30247-0.34288l-0.04839 0.62045-0.0121-0.70209c-0.0121-0.42452-0.0726-0.66944-0.14518-0.60413-0.06049 0.04897-0.12099 0-0.12099-0.11429 0-0.14695-0.0363-0.14695-0.12099 0.03266-0.08469 0.1796-0.12099 0.04897-0.13309-0.48983-0.0121-0.40819-0.04839-0.57147-0.0726-0.37554-0.0242 0.21226-0.10889 0.37554-0.16938 0.37554-0.06049 0-0.12099 0.24492-0.13309 0.52249-0.0121 0.31023-0.0484 0.09799-0.09679-0.44085-0.06049-0.89802-0.08469-0.94701-0.20568-0.57147-0.13309 0.37554-0.14518 0.32656-0.15728-0.48983l-0.02418-0.89804-0.15729 0.65311c-0.09679 0.35921-0.16938 0.86537-0.18148 1.1429-0.0121 0.39186-0.04839 0.31023-0.18148-0.4082-0.09679-0.48983-0.18148-1.1266-0.19358-1.3879-0.0121-0.27757-0.06049-0.01633-0.10889 0.57147l-0.08469 1.0613-0.0363-1.3879-0.04839-1.3879-0.1452 2.4492-0.02419-1.1429c-0.0363-1.845-0.19358-2.1716-0.26618-0.57147-0.04839 0.99599-0.10889 1.3715-0.20568 1.3389-0.08469-0.01632-0.15728 0.11429-0.15728 0.31023 0 0.24492-0.06049 0.31023-0.18148 0.24492-0.14519-0.06532-0.18148 0.06532-0.19358 0.60413-0.0121 0.37554-0.0363 0.50616-0.06049 0.27757-0.02423-0.22859-0.10891-1.0123-0.19361-1.7634-0.20568-1.992-0.43555-1.6981-0.48395 0.62045l-0.02419 1.2246-0.04839-0.97967c-0.0363-0.71842-0.0726-0.89802-0.14519-0.65311-0.07259 0.22859-0.10889 0-0.13309-0.73475-0.0121-0.91435-0.03629-0.97966-0.10889-0.48983l-0.08469 0.57147-0.02419-0.52249c0-0.27757-0.06049-0.57147-0.13309-0.62045-0.0726-0.06531-0.12099 0.27757-0.12099 0.93068 0 0.57147-0.04839 1.3225-0.09679 1.6818-0.08469 0.63678-0.08469 0.62046-0.15728-0.40819-0.0605-1.0123-0.0726-0.99599-0.10889 0.57147l-0.0363 1.6328-0.13309-1.0613c-0.16939-1.3879-0.35088-1.7634-0.44767-0.97967-0.04839 0.31023-0.08469-0.48983-0.09679-1.7961-0.02419-1.3062-0.04839-2.3022-0.0726-2.2042-0.0242 0.08164-0.08469 1.1103-0.14518 2.2859l-0.09679 2.1226-0.07259-1.4695-0.06049-1.4695-0.09678 3.7554-0.0726-1.3062c-0.0363-0.71842-0.08469-1.1266-0.09679-0.89803-0.0121 0.22859-0.07259 0.5878-0.10889 0.81639-0.08469 0.37554-0.09679 0.34288-0.16938-0.24492-0.04839-0.4735-0.08469-0.24492-0.09679 0.78373 0 0.91435-0.06049 1.4042-0.13309 1.3389-0.06049-0.04897-0.12099-0.4082-0.13308-0.78373-0.0121-0.57147-0.0242-0.62046-0.10889-0.27757-0.0726 0.37554-0.09679 0.34288-0.14519-0.24492-0.04839-0.55514-0.06049-0.50616-0.08469 0.32655-0.0363 1.1266-0.22988 1.9757-0.25407 1.1429-0.0121-0.27757-0.04839-0.39186-0.08469-0.27757-0.0242 0.09799-0.09679 0.16328-0.15728 0.1143-0.04839-0.04897-0.13309 0.37554-0.18148 0.93068-0.0605 0.62045-0.16938 1.1266-0.31457 1.3389-0.13309 0.17961-0.24198 0.2939-0.25408 0.24492 0-0.03266-0.0726-1.2409-0.15728-2.6778l-0.14518-2.6124-0.0363 2.7757c-0.0363 2.5471-0.04839 2.6614-0.13309 1.3879-0.04839-0.7674-0.09679-2.3512-0.12099-3.5105l-0.0363-2.1226-0.0726 1.4695c-0.0484 1.045-0.08469 1.3062-0.13309 0.89803-0.0363-0.31023-0.08469 0.80006-0.08469 2.4818l-0.02419 3.0696h-0.27078c-0.84691 0-1.2704-0.06532-1.2704-0.17961 0-0.09797-0.08469-0.14695-0.18148-0.08163-0.13309 0.06532-0.18148-0.04897-0.19358-0.44085l-0.0121-0.52248-0.08469 0.48983c-0.08469 0.4735-0.08469 0.4735-0.18148 0.1143-0.12099-0.48983-0.29037-0.45718-0.35086 0.08163-0.0363 0.32655-0.04839 0.26124-0.0726-0.22859-0.02419-0.96334-0.22988-1.0286-0.29037-0.09799-0.02419 0.44085-0.04839-0.26124-0.06049-1.5348-0.0363-3.1839-0.25408-3.2655-0.29037-0.09799l-0.02419 2.4165-0.0726-2.6941c-0.12099-3.788-0.15728-4.0982-0.24198-1.9593l-0.0726 1.8777-0.0242-2.1063c-0.0121-1.1593-0.04839-2.0736-0.08469-2.0246-0.0363 0.04898-0.10889 1.4042-0.16938 3.0043l-0.09679 2.9227-0.0121-3.0859c-0.0121-1.6981-0.06049-3.0533-0.09679-2.988-0.0363 0.04898-0.10889 1.2572-0.15728 2.6778l-0.09679 2.5798-0.0726-5.3882-0.14519 1.7144-0.14518 1.7144-0.0363-1.5511-0.04839-1.5511-0.07259 1.5511-0.0726 1.5511-0.0242-1.5511c-0.04839-3.1186-0.20567-2.2696-0.26617 1.4695l-0.0726 3.837-0.04839-5.3882c-0.02418-2.9716-0.07258-4.8004-0.10887-4.0819l-0.06049 1.3062-0.0726-1.4695c-0.0726-1.3225-0.08469-1.1919-0.12099 1.3062l-0.0484 2.7757-0.07259-2.4492c-0.0605-2.2042-0.0726-2.2859-0.10889-0.89803-0.0484 2.2696-0.22988 2.5961-0.27827 0.48983-0.0121-0.94701-0.06049 0.45718-0.09679 3.1023l-0.06049 4.8167-0.04839-4.735c-0.0363-2.6124-0.08469-4.2289-0.12099-3.5921l-0.07259 1.1429-0.12099-0.81639c-0.10889-0.70209-0.13309-0.34288-0.18148 2.3675l-0.0726 3.1839-0.0484-3.837-0.04839-3.837-0.0726 3.5105-0.07259 3.5105-0.0242-3.8044c-0.0121-2.3838-0.07259-3.788-0.14518-3.788-0.06049 0-0.13309 0.01633-0.14518 0.03266 0 0.03266-0.04839 1.1919-0.09679 2.5798l-0.0726 2.5308-0.0484-3.4288c-0.04839-3.1023-0.06049-2.8247-0.12099 2.6941l-0.06049 6.1229-0.12098-12.083-0.12098 11.756-0.06049-5.878c-0.04842-5.2249-0.06051-5.5514-0.121-2.939l-0.0726 2.939-0.0363-2.6941c-0.0121-1.4858-0.07259-2.841-0.13308-3.0206-0.0726-0.22859-0.10889-0.26124-0.13309-0.08164-0.0121 0.13062-0.06049-0.01633-0.10889-0.32656-0.06049-0.34288-0.10889 0.57147-0.13309 2.3675-0.0363 2.841-0.0363 2.89-0.10889 1.1429-0.08469-2.0083-0.10888-1.6491-0.22987 2.6124l-0.08469 2.939-0.0484-2.1226-0.0484-2.1226-0.07259 1.3879c-0.07259 1.2736-0.07259 1.2083-0.09679-0.93068-0.02418-2.4165-0.21776-3.3472-0.30245-1.4042l-0.0363 1.1103-0.04839-1.2246c-0.0363-0.66944-0.08469 0.80006-0.12099 3.2655l-0.06049 4.4901-0.12098-9.6334-0.12098 9.1435-0.0363-4.7024c-0.0121-2.89-0.07259-4.6861-0.14518-4.6861-0.06049 0-0.13309 0.84904-0.15728 1.992l-0.0363 2.0083-0.0242-2.2859c-0.0363-2.6124-0.25407-3.6737-0.27827-1.3062-0.0121 1.7961-0.08469 1.6164-0.21778-0.50616-0.07259-1.2246-0.10889-0.01633-0.14518 4.9146l-0.04839 6.5311-0.06049-6.9393c-0.0363-3.8207-0.07259-6.2372-0.09679-5.3882-0.04839 2.7594-0.19358 3.1186-0.26617 0.65311-0.0484-1.4205-0.08469 0.24492-0.12099 4.735l-0.06049 6.9393-0.06049-7.4291c-0.0363-4.0819-0.09679-7.2985-0.14518-7.1352z" fill="#0f0f0f"/>
</svg>
