<svg width="20" height="20" version="1.1" xmlns="http://www.w3.org/2000/svg" xmlns:xlink="http://www.w3.org/1999/xlink">
	<defs>
		<linearGradient id="c" x1="256.73999" x2="484.70999" y1="472.03" y2="472.03" gradientTransform="matrix(-.02689375 -.08131675 .08068125 -.02710559 -17.729844 51.688341)" gradientUnits="userSpaceOnUse">
			<stop stop-color="#f3870f" offset="0"/>
			<stop stop-color="#f3e00c" offset="1"/>
		</linearGradient>
		<linearGradient id="a" x1="256.73999" x2="484.70999" y1="472.03" y2="472.03" gradientTransform="matrix(-.02689375 -.08131675 .08068125 -.02710559 -17.729844 51.688341)" gradientUnits="userSpaceOnUse">
			<stop stop-color="#3f6405" offset="0"/>
			<stop stop-color="#659f08" offset="1"/>
		</linearGradient>
		<linearGradient id="an" x1="256.73999" x2="484.70999" y1="472.03" y2="472.03" gradientTransform="matrix(.0213346 .06450796 -.06400382 .02150266 32.18486 -21.74836)" gradientUnits="userSpaceOnUse">
			<stop stop-color="#060606" offset="0"/>
			<stop stop-color="#343434" offset="1"/>
		</linearGradient>
		<linearGradient id="n" x1=".48967797" x2="19.539619" y1="10.011954" y2="10.011954" gradientTransform="rotate(-90 -23.029299 .0949595)" gradientUnits="userSpaceOnUse" xlink:href="#j"/>
		<linearGradient id="j" x1="256.73999" x2="484.70999" y1="472.03" y2="472.03" gradientTransform="matrix(-.02689375 -.08131675 .08068125 -.02710559 -17.729844 51.688341)" gradientUnits="userSpaceOnUse">
			<stop stop-color="#659f08" offset="0"/>
			<stop stop-color="#3f6405" offset="1"/>
		</linearGradient>
		<linearGradient id="m" x1=".48967797" x2="19.539619" y1="10.011954" y2="10.011954" gradientTransform="rotate(-90,-14.0625,31.949219)" gradientUnits="userSpaceOnUse" xlink:href="#a"/>
		<linearGradient id="k" x1="256.73999" x2="484.70999" y1="472.03" y2="472.03" gradientTransform="matrix(-.02689375 -.08131675 .08068125 -.02710559 -17.729844 51.688341)" gradientUnits="userSpaceOnUse">
			<stop stop-color="#060606" offset="0"/>
			<stop stop-color="#343434" offset="1"/>
		</linearGradient>
		<linearGradient id="am" x1="3.5003572" x2="3.5003572" y1="21.247955" y2="-.1809755" gradientTransform="matrix(.91881554 0 0 .91881554 -45.201528 -1.2788903)" gradientUnits="userSpaceOnUse" xlink:href="#k"/>
		<linearGradient id="l" x1=".48967797" x2="19.539619" y1="10.011954" y2="10.011954" gradientTransform="rotate(-90,-23.0625,15.949219)" gradientUnits="userSpaceOnUse" xlink:href="#a"/>
		<linearGradient id="al" x1="3.5003572" x2="3.5003572" y1="21.247955" y2="-.1809755" gradientTransform="matrix(.91881554 0 0 .91881554 -38.201528 -26.27889)" gradientUnits="userSpaceOnUse" xlink:href="#k"/>
		<linearGradient id="ag" x1="2" x2="2" y1="2" y2="18" gradientTransform="translate(-44.126953,-47.5)" gradientUnits="userSpaceOnUse" xlink:href="#j"/>
		<linearGradient id="ao" x1="33.990009" x2="53.793419" y1="9.8968611" y2="9.8968611" gradientUnits="userSpaceOnUse" xlink:href="#a"/>
		<linearGradient id="af" x1="33.990009" x2="53.793419" y1="9.8968611" y2="9.8968611" gradientTransform="translate(0,-2)" gradientUnits="userSpaceOnUse" xlink:href="#a"/>
		<linearGradient id="ae" x1="33.990009" x2="53.793419" y1="9.8968611" y2="9.8968611" gradientTransform="translate(2)" gradientUnits="userSpaceOnUse" xlink:href="#a"/>
		<linearGradient id="ad" x1="33.990009" x2="53.793419" y1="9.8968611" y2="9.8968611" gradientTransform="translate(-2)" gradientUnits="userSpaceOnUse" xlink:href="#a"/>
		<linearGradient id="ac" x1="33.990009" x2="53.793419" y1="9.8968611" y2="9.8968611" gradientTransform="translate(0,2)" gradientUnits="userSpaceOnUse" xlink:href="#a"/>
		<linearGradient id="ab" x1="33.990009" x2="53.793419" y1="9.8968611" y2="9.8968611" gradientTransform="matrix(1.3910089,0,0,1.3910094,-17.204553,-3.9148319)" gradientUnits="userSpaceOnUse" xlink:href="#a"/>
		<linearGradient id="d" x1="33.990009" x2="53.793419" y1="9.8968611" y2="9.8968611" gradientTransform="matrix(0 -.94208876 .94206997 0 -21.323536 51.452305)" gradientUnits="userSpaceOnUse" xlink:href="#a"/>
		<linearGradient id="g" x1="33.990009" x2="53.793419" y1="9.8968611" y2="9.8968611" gradientTransform="matrix(0 -.94208876 .94206997 0 -21.432117 51.34989)" gradientUnits="userSpaceOnUse" xlink:href="#a"/>
		<linearGradient id="aa" x1="33.990009" x2="53.793419" y1="9.8968611" y2="9.8968611" gradientTransform="matrix(.94208876 0 0 .94206997 -51.45229 -21.432116)" gradientUnits="userSpaceOnUse" xlink:href="#a"/>
		<linearGradient id="e" x1="33.990009" x2="53.793419" y1="9.8968611" y2="9.8968611" gradientTransform="matrix(0 -.94208876 .94206997 0 -21.432118 51.34989)" gradientUnits="userSpaceOnUse" xlink:href="#a"/>
		<linearGradient id="z" x1="33.990009" x2="53.793419" y1="9.8968611" y2="9.8968611" gradientTransform="matrix(.62669224 0 0 .6266781 -37.574716 -18.274375)" gradientUnits="userSpaceOnUse" xlink:href="#a"/>
		<linearGradient id="h" x1="33.990009" x2="53.793419" y1="9.8968611" y2="9.8968611" gradientTransform="rotate(-90,7.9841315,-20.403278)" gradientUnits="userSpaceOnUse" xlink:href="#a"/>
		<linearGradient id="f" x1="33.990009" x2="53.793419" y1="9.8968611" y2="9.8968611" gradientTransform="rotate(-90,7.8721475,-20.400004)" gradientUnits="userSpaceOnUse" xlink:href="#a"/>
		<linearGradient id="y" x1="33.990009" x2="53.793419" y1="9.8968611" y2="9.8968611" gradientTransform="translate(12.419162,28.272153)" gradientUnits="userSpaceOnUse" xlink:href="#a"/>
		<linearGradient id="b">
			<stop offset="0"/>
			<stop stop-color="#5a5a5a" offset=".42617449"/>
			<stop stop-color="#979797" offset="1"/>
		</linearGradient>
		<linearGradient id="x" x1="27.888315" x2="53.793419" y1="9.8968611" y2="9.8968611" gradientTransform="matrix(0,-1.2063935,1.206393,0,44.866137,37.360256)" gradientUnits="userSpaceOnUse" xlink:href="#b"/>
		<linearGradient id="r" x1="27.888315" x2="53.793419" y1="9.8968611" y2="9.8968611" gradientTransform="matrix(0 -.59583873 .59583873 0 -27.665572 65.027775)" gradientUnits="userSpaceOnUse" xlink:href="#b"/>
		<linearGradient id="s" x1="27.888315" x2="53.793419" y1="9.8968611" y2="9.8968611" gradientTransform="matrix(0 -.55765945 .55765945 0 -20.893618 63.347884)" gradientUnits="userSpaceOnUse" xlink:href="#b"/>
		<linearGradient id="t" x1="27.888315" x2="53.793419" y1="9.8968611" y2="9.8968611" gradientTransform="matrix(0 -.56922915 .56922915 0 -24.326743 60.596556)" gradientUnits="userSpaceOnUse" xlink:href="#b"/>
		<linearGradient id="u" x1="27.888315" x2="53.793419" y1="9.8968611" y2="9.8968611" gradientTransform="matrix(0 -.61780704 .61780704 0 -24.813111 68.837196)" gradientUnits="userSpaceOnUse" xlink:href="#b"/>
		<linearGradient id="v" x1="27.888315" x2="53.793419" y1="9.8968611" y2="9.8968611" gradientTransform="matrix(1.2465681,0,0,1.2465684,-93.660141,-31.108343)" gradientUnits="userSpaceOnUse" xlink:href="#b"/>
		<linearGradient id="o" x1="4.4978113" x2="15.295909" y1="-43.891712" y2="-43.891712" gradientTransform="translate(33.994852,53.788572)" gradientUnits="userSpaceOnUse" xlink:href="#c"/>
		<linearGradient id="w" x1="27.888315" x2="53.793419" y1="9.8968611" y2="9.8968611" gradientTransform="matrix(0,-1.2063935,1.206393,0,-64.294506,84.863288)" gradientUnits="userSpaceOnUse" xlink:href="#b"/>
		<linearGradient id="q" x1="4.4978113" x2="15.295909" y1="-43.891712" y2="-43.891712" gradientTransform="matrix(.96777188 0 0 .9677713 -41.460488 -9.8460232)" gradientUnits="userSpaceOnUse" xlink:href="#c"/>
		<linearGradient id="i">
			<stop offset="0"/>
			<stop stop-color="#5a5a5a" offset=".80397099"/>
			<stop stop-color="#979797" offset="1"/>
		</linearGradient>
		<linearGradient id="p" x1="6.965601" x2="15.295909" y1="-43.891712" y2="-43.891712" gradientTransform="matrix(.5792604 0 0 .57926005 -15.231469 35.424619)" gradientUnits="userSpaceOnUse" xlink:href="#c"/>
		<linearGradient id="ah" x1="10.152543" x2="10.152543" y1="25" y2="-1" gradientTransform="translate(0 -.359368)" gradientUnits="userSpaceOnUse" xlink:href="#i"/>
		<linearGradient id="ak" x1="6.965601" x2="15.295909" y1="-43.891712" y2="-43.891712" gradientTransform="matrix(.81044191 0 0 .81044142 -16.782004 -26.906882)" gradientUnits="userSpaceOnUse" xlink:href="#c"/>
		<linearGradient id="aj" x1="-25.224104" x2="-40.264385" y1="-31.891275" y2="-47.270847" gradientTransform="matrix(1.3064967,0,0,1.3064967,12.413786,106.02004)" gradientUnits="userSpaceOnUse">
			<stop offset="0"/>
			<stop stop-color="#5a5a5a" offset=".35063794"/>
			<stop stop-color="#979797" offset="1"/>
		</linearGradient>
		<linearGradient id="ai" x1="-25.224104" x2="-40.264385" y1="-31.891275" y2="-47.270847" gradientTransform="matrix(1.2829802,0,0,1.2829802,4.9345583,102.17732)" gradientUnits="userSpaceOnUse" xlink:href="#i"/>
	</defs>
	<g display="none" opacity=".32000002" stroke-width=".99999994">
		<path d="m10.670988 1.5205657c-1.096489-.0771516-2.2250641.0649478-3.3290212.4506657-4.4527889 1.4380996-6.88734039 6.2705092-5.4096338 10.7386746 1.4779986 4.469045 6.3081419 6.864812 10.727176 5.320817 4.452787-1.438101 6.885696-6.27051 5.407989-10.7386751-1.108768-3.3525952-4.103852-5.539803-7.39651-5.7714822z" color="#000000" color-rendering="auto" dominant-baseline="auto" fill="#248301" image-rendering="auto" shape-rendering="auto" solid-color="#000000" style="font-feature-settings:normal;font-variant-alternates:normal;font-variant-caps:normal;font-variant-ligatures:normal;font-variant-numeric:normal;font-variant-position:normal;isolation:auto;mix-blend-mode:normal;shape-padding:0;text-decoration-color:#000000;text-decoration-line:none;text-decoration-style:solid;text-indent:0;text-orientation:mixed;text-transform:none;white-space:normal"/>
		<path d="m12.243069 16.88878a7.2926948 7.3501393 0 1 1-4.6118564-13.9448841 7.2926948 7.3501393 0 1 1 4.6118564 13.9448841z" fill="url(#an)"/>
	</g>
	<path d="m-34.142578-45.513672a1.0001 1.0001 0 0 0-.857422.513672c-3.464766.402931-6.225773 3.165573-6.626953 6.630859a1.0001 1.0001 0 0 0 0 1.738281c.40118 3.465286 3.162187 6.227929 6.626953 6.63086a1.0001 1.0001 0 0 0 1.746094 0c3.458247-.402173 6.215707-3.155201 6.625-6.611329a1.0001 1.0001 0 0 0 0-1.77539c-.408496-3.45703-3.166111-6.211034-6.625-6.613281a1.0001 1.0001 0 0 0-.888672-.513672zm-.984375 2.552734v2.94336a1.0001 1.0001 0 1 0 2 0v-2.94336c2.272859.409803 4.051135 2.188079 4.460938 4.460938h-2.921876a1.0001 1.0001 0 1 0 0 2h2.921876c-.409803 2.272858-2.188079 4.051135-4.460938 4.460938v-2.943361a1.0001 1.0001 0 0 0-1.015625-1.015625 1.0001 1.0001 0 0 0-.984375 1.015625v2.943361c-2.272859-.409803-4.051135-2.18808-4.460937-4.460939h2.953124a1.0001 1.0001 0 1 0 0-1.999999h-2.953124c.409802-2.272859 2.188078-4.051135 4.460937-4.460938z" color="#000000" color-rendering="auto" dominant-baseline="auto" fill="none" image-rendering="auto" shape-rendering="auto" solid-color="#000000" stroke="#020200" stroke-linecap="round" stroke-linejoin="round" stroke-width="2" style="font-feature-settings:normal;font-variant-alternates:normal;font-variant-caps:normal;font-variant-ligatures:normal;font-variant-numeric:normal;font-variant-position:normal;isolation:auto;mix-blend-mode:normal;paint-order:fill markers stroke;shape-padding:0;text-decoration-color:#000000;text-decoration-line:none;text-decoration-style:solid;text-indent:0;text-orientation:mixed;text-transform:none;white-space:normal"/>
	<path d="m10-38v8h-7.999999 7.999999v7.999999-7.999999h8-8z" fill="none" stroke="#000" stroke-linecap="round" stroke-linejoin="round" stroke-width="3"/>
	<circle cx="39.999996" cy="-24.517012" r="6.5538206" fill="none" stroke="#070606" stroke-linecap="round" stroke-linejoin="round" stroke-width="2" style="paint-order:fill markers stroke"/>
	<path d="m31.008541-24.51701h4.48299" fill="none" stroke="#000" stroke-linecap="round" stroke-linejoin="round" stroke-width="2"/>
	<path d="m44.539791-24.51701h4.48299" fill="none" stroke="#000" stroke-linecap="round" stroke-linejoin="round" stroke-width="2"/>
	<path d="m40-20v4.48299" fill="none" stroke="#000" stroke-linecap="round" stroke-linejoin="round" stroke-width="2"/>
	<path d="m40.000036-33.51701v4.48299" fill="none" stroke="#000" stroke-linecap="round" stroke-linejoin="round" stroke-width="2"/>
	<path d="m-22.630118-32.920668a1.0000999 1.0000999 0 0 0 1.013672.986328h1.390625c.444254 3.161365 2.951923 5.669029 6.113282 6.113282v1.382812a1.0000999 1.0000999 0 1 0 2 0v-1.382812c3.161612-.444253 5.670726-2.951917 6.115234-6.113282h1.388672a1.0000999 1.0000999 0 1 0 0-1.999999h-1.388672c-.444508-3.161618-2.953622-5.670728-6.115234-6.115234v-1.410157a1.0000999 1.0000999 0 1 0-2 0v1.410157c-3.161359.444506-5.669028 2.953616-6.113282 6.115234h-1.390625a1.0000999 1.0000999 0 0 0-1.013672 1.013671zm4.423829.986328h.826171a1.0000999 1.0000999 0 1 0 0-1.999999h-.826171c.400054-2.07307 2.021247-3.694671 4.09375-4.095703v.806641a1.0000999 1.0000999 0 1 0 2 0v-.806641c2.073628.400472 3.695227 2.022065 4.095703 4.095703h-.828125a1.0000999 1.0000999 0 0 0-1.013672 1.015624 1.0000999 1.0000999 0 0 0 1.013672.984375h.828125c-.400476 2.073326-2.022075 3.69359-4.095703 4.09375v-.833984a1.0000999 1.0000999 0 1 0-2 0v.833984c-2.072503-.40072-3.693696-2.020992-4.09375-4.09375z" color="#000000" color-rendering="auto" dominant-baseline="auto" fill="url(#n)" image-rendering="auto" shape-rendering="auto" solid-color="#000000" style="font-feature-settings:normal;font-variant-alternates:normal;font-variant-caps:normal;font-variant-ligatures:normal;font-variant-numeric:normal;font-variant-position:normal;isolation:auto;mix-blend-mode:normal;paint-order:fill markers stroke;shape-padding:0;text-decoration-color:#000000;text-decoration-line:none;text-decoration-style:solid;text-indent:0;text-orientation:mixed;text-transform:none;white-space:normal"/>
	<path d="m-22.630118-32.920672a1.0000999 1.0000999 0 0 0 1.013672.986328h1.390625c.444254 3.161365 2.951923 5.669029 6.113282 6.113282v1.382812a1.0000999 1.0000999 0 1 0 2 0v-1.382812c3.161612-.444253 5.670726-2.951917 6.115234-6.113282h1.388672a1.0000999 1.0000999 0 1 0 0-1.999999h-1.388672c-.444508-3.161618-2.953622-5.670728-6.115234-6.115234v-1.410157a1.0000999 1.0000999 0 1 0-2 0v1.410157c-3.161359.444506-5.669028 2.953616-6.113282 6.115234h-1.390625a1.0000999 1.0000999 0 0 0-1.013672 1.013671zm4.423829.986328h.826171a1.0000999 1.0000999 0 1 0 0-1.999999h-.826171c.400054-2.07307 2.021247-3.694671 4.09375-4.095703v.806641a1.0000999 1.0000999 0 1 0 2 0v-.806641c2.073628.400472 3.695227 2.022065 4.095703 4.095703h-.828125a1.0000999 1.0000999 0 0 0-1.013672 1.015624 1.0000999 1.0000999 0 0 0 1.013672.984375h.828125c-.400476 2.073326-2.022075 3.69359-4.095703 4.09375v-.833984a1.0000999 1.0000999 0 1 0-2 0v.833984c-2.072503-.40072-3.693696-2.020992-4.09375-4.09375z" color="#000000" color-rendering="auto" dominant-baseline="auto" fill="none" image-rendering="auto" shape-rendering="auto" solid-color="#000000" stroke="#000" stroke-linecap="round" stroke-linejoin="round" stroke-width=".80000001" style="font-feature-settings:normal;font-variant-alternates:normal;font-variant-caps:normal;font-variant-ligatures:normal;font-variant-numeric:normal;font-variant-position:normal;isolation:auto;mix-blend-mode:normal;paint-order:fill markers stroke;shape-padding:0;text-decoration-color:#000000;text-decoration-line:none;text-decoration-style:solid;text-indent:0;text-orientation:mixed;text-transform:none;white-space:normal"/>
	<path d="m-36.020551-1.300425c-.0018.0005873-.0036.00118-.0054.00179-.04554.00121-.0912.00498-.136387.010767-.7018.082208-1.235688.6892104-1.225685 1.396169-7e-5.010989-.00018.021314 0 .032302v.9206097c-2.767767.5643833-4.920142 2.7180176-5.484185 5.4859748h-.934966c-.774481-.010584-1.41752.6324547-1.406936 1.4069361.000587.0018.0012.0036.0018.0054.0012.04219.0075.08374.01256.125619-.007.05988-.01485.119118-.01436.179456-4e-6.0012-4e-6.0024 0 .0036.0012.0736.01643.146474.02871.218936-.01285.0795-.02921.159786-.02871.240471-4e-6.0012-4e-6.0024 0 .0036.01037.769451.637883 1.4106484 1.406937 1.3997584h.929583c.558473 2.862781 2.710565 5.100592 5.489563 5.685171v.974447c-.0059.435147.163877.823077.43249 1.073148s.614666.367885.954706.367885.686094-.117814.954707-.367885c.268614-.250071.438425-.638001.43249-1.073148v-.389419l-.0018.01615c.0011-.03262.0011-.06608 0-.0987l.0018.01615v-.518623c.454729-.09564.892654-.235552 1.30955-.415222 2.131013-.918403 3.712537-2.875685 4.180013-5.269949h.929584c.908877.01329 1.578979-.876139 1.365661-1.760465v.218936c.03453-.143463.02608-.291201.01615-.437873.131812-.8383468-.530229-1.6166724-1.381791-1.6043741h-.933173c-.564368-2.7680387-2.71794-4.9216083-5.485974-5.4859748v-.9277883l-.0018.014357c.0013-.044957.001-.089709-.0018-.1345922-.03364-.634793-.499097-1.1694277-1.123396-1.2884952h-.0018c-.09145-.017617-.184998-.026587-.278141-.025124zm-1.367456 5.9005186v.021534c-.0059.4351468.163876.8230767.43249 1.0731478.268613.2500711.614666.3678851.954706.3678851s.686094-.117814.954707-.3678851c.268614-.2500711.438425-.638001.43249-1.0731478v-.021534c1.006017.3691727 1.801928 1.0777303 2.304216 2.0440057-.649286.1207481-1.180732.6282052-1.170054 1.3118237.000602.0018.0012.0036.0018.0054.0012.04219.0075.08374.01256.125619-.007.05988-.01485.119118-.01436.179457-1.1e-5.0018-1.1e-5.0036 0 .0054.0013.07261.01659.143852.02871.215347-.01297.08029-.02936.160792-.02871.242266-5e-6.0012-5e-6.0024 0 .0036.01002.65524.505786 1.133249 1.116217 1.277728-.505082.883797-1.276444 1.53498-2.250379 1.878906v-.0341c.0061-.428055-.168013-.810891-.437874-1.053407-.269861-.242518-.613035-.353529-.949323-.353529-.336289 0-.679462.111011-.949323.353529-.269861.242516-.443922.625352-.437873 1.053407v.03231c-.979498-.346706-1.755746-1.00253-2.259353-1.895105.730723-.176279 1.27003-.850734 1.083915-1.622284v.218936c.03452-.143462.02608-.291201.01615-.437872.117284-.7460287-.432973-1.3610388-1.148519-1.4966644.501057-.9716125 1.298904-1.6839417 2.307806-2.054773z" color="#000000" color-rendering="auto" dominant-baseline="auto" fill="url(#am)" image-rendering="auto" shape-rendering="auto" solid-color="#000000" style="font-feature-settings:normal;font-variant-alternates:normal;font-variant-caps:normal;font-variant-ligatures:normal;font-variant-numeric:normal;font-variant-position:normal;isolation:auto;mix-blend-mode:normal;paint-order:fill markers stroke;shape-padding:0;text-decoration-color:#000000;text-decoration-line:none;text-decoration-style:solid;text-indent:0;text-orientation:mixed;text-transform:none;white-space:normal"/>
	<path d="m-45.517579 7.90039a1.0000999 1.0000999 0 0 0 1.013672.986328h1.390625c.444254 3.161365 2.951923 5.669029 6.113282 6.113282v1.382812a1.0000999 1.0000999 0 1 0 2 0v-1.382812c3.161612-.444253 5.670726-2.951917 6.115234-6.113282h1.388672a1.0000999 1.0000999 0 1 0 0-1.9999994h-1.388672c-.444508-3.161618-2.953622-5.670728-6.115234-6.115234v-1.410157a1.0000999 1.0000999 0 1 0-2 0v1.410157c-3.161359.444506-5.669028 2.953616-6.113282 6.115234h-1.390625a1.0000999 1.0000999 0 0 0-1.013672 1.0136714zm4.423829.986328h.826171a1.0000999 1.0000999 0 1 0 0-1.9999994h-.826171c.400054-2.07307 2.021247-3.694671 4.09375-4.095703v.806641a1.0000999 1.0000999 0 1 0 2 0v-.806641c2.073628.400472 3.695227 2.022065 4.095703 4.095703h-.828125a1.0000999 1.0000999 0 0 0-1.013672 1.0156244 1.0000999 1.0000999 0 0 0 1.013672.984375h.828125c-.400476 2.073326-2.022075 3.69359-4.095703 4.09375v-.833984a1.0000999 1.0000999 0 1 0-2 0v.833984c-2.072503-.40072-3.693696-2.020992-4.09375-4.09375z" color="#000000" color-rendering="auto" dominant-baseline="auto" fill="url(#m)" image-rendering="auto" shape-rendering="auto" solid-color="#000000" style="font-feature-settings:normal;font-variant-alternates:normal;font-variant-caps:normal;font-variant-ligatures:normal;font-variant-numeric:normal;font-variant-position:normal;isolation:auto;mix-blend-mode:normal;paint-order:fill markers stroke;shape-padding:0;text-decoration-color:#000000;text-decoration-line:none;text-decoration-style:solid;text-indent:0;text-orientation:mixed;text-transform:none;white-space:normal"/>
	<path d="m-29.020551-26.300425c-.0018.000588-.0036.0012-.0054.0018-.04554.0012-.0912.005-.136387.01077-.7018.08221-1.235688.68921-1.225685 1.396169-6.9e-5.01099-.00018.02131 0 .0323v.920609c-2.767767.564384-4.920142 2.718018-5.484185 5.485975h-.934946c-.774481-.01058-1.41752.632455-1.406936 1.406936.000587.0018.0012.0036.0018.0054.0012.04219.0075.08374.01256.125619-.007.05988-.01485.119118-.01436.179456-4e-6.0012-4e-6.0024 0 .0036.0012.0736.01643.146474.02871.218936-.01285.0795-.02921.159786-.02871.240471-4e-6.0012-4e-6.0024 0 .0036.01037.769451.637883 1.410648 1.406937 1.399758h.929583c.558473 2.862781 2.710565 5.100592 5.489563 5.685171v.974447c-.0059.435147.163877.823077.43249 1.073148s.614666.367885.954706.367885.686094-.117814.954707-.367885c.268614-.250071.438425-.638001.43249-1.073148v-.389419l-.0018.01615c.0011-.03262.0011-.06608 0-.0987l.0018.01615v-.518628c.454729-.09564.892654-.235552 1.30955-.415222 2.131013-.918403 3.712537-2.875685 4.180013-5.269949h.929584c.908877.01329 1.578979-.876139 1.365661-1.760465v.218936c.03453-.143463.02608-.291201.01615-.437873.131792-.838347-.530249-1.616672-1.381811-1.604374h-.933173c-.564368-2.768039-2.71794-4.921608-5.485974-5.485975v-.927788l-.0018.01436c.0013-.04496.001-.08971-.0018-.134592-.03364-.634793-.499097-1.169428-1.123396-1.288495h-.0018c-.09145-.01762-.184998-.02659-.278141-.02513zm-1.367456 5.900519v.02153c-.0059.435147.163876.823077.43249 1.073148.268613.250071.614666.367885.954706.367885s.686094-.117814.954707-.367885c.268614-.250071.438425-.638001.43249-1.073148v-.02153c1.006017.369173 1.801928 1.07773 2.304216 2.044006-.649286.120748-1.180732.628205-1.170054 1.311823.000602.0018.0012.0036.0018.0054.0012.04219.0075.08374.01256.125619-.007.05988-.01485.119118-.01436.179457-1.1e-5.0018-1.1e-5.0036 0 .0054.0013.07261.01659.143852.02871.215347-.01297.08029-.02936.160792-.02871.242266-5e-6.0012-5e-6.0024 0 .0036.01002.65524.505786 1.133249 1.116217 1.277728-.505082.883797-1.276444 1.53498-2.250379 1.878906v-.0341c.0061-.428055-.168013-.810891-.437874-1.053407-.269861-.242518-.613035-.353529-.949323-.353529-.336289 0-.679462.111011-.949323.353529-.269861.242516-.443922.625352-.437873 1.053407v.03231c-.979498-.346706-1.755746-1.00253-2.259353-1.895105.730723-.176279 3.39135-.850734 3.205236-1.622284v.218936c.03452-.143462.02608-.291201.01615-.437872.117284-.746028-2.554294-1.361039-3.26984-1.496664.501057-.971613 1.298904-1.683942 2.307807-2.054773z" color="#000000" color-rendering="auto" dominant-baseline="auto" fill="url(#al)" image-rendering="auto" shape-rendering="auto" solid-color="#000000" style="font-feature-settings:normal;font-variant-alternates:normal;font-variant-caps:normal;font-variant-ligatures:normal;font-variant-numeric:normal;font-variant-position:normal;isolation:auto;mix-blend-mode:normal;paint-order:fill markers stroke;shape-padding:0;text-decoration-color:#000000;text-decoration-line:none;text-decoration-style:solid;text-indent:0;text-orientation:mixed;text-transform:none;white-space:normal"/>
	<path d="m-38.517578-17.09961c.0076.552283.461388.993875 1.013671.986328h1.390625c.444254 3.161365 2.951923 5.669029 6.113282 6.113282v1.382812c-.0191 1.352294 2.019096 1.352294 2 0v-1.382812c3.161612-.444253 5.670726-2.951917 6.115234-6.113282h1.388672c1.352341.01914 1.352341-2.019144 0-1.999999h-1.388672c-.444508-3.161618-2.953622-5.670728-6.115234-6.115234v-1.410157c.0191-1.352294-2.019096-1.352294-2 0v1.410157c-3.161359.444506-5.669028 2.953616-6.113282 6.115234h-1.390625c-.562991-.0077-1.021365.45068-1.013671 1.013671zm4.423828.986328c.375985-.907709 2.947492 0 2.947492 0 1.352341.01914 1.352341-2.019144 0-1.999999h-2.947492c.400054-2.07307 2.021247-3.694671 4.09375-4.095703v.806641c-.0191 1.352294 2.019096 1.352294 2 0v-.806641c2.073628.400472 3.695227 2.022065 4.095703 4.095703h-.828125c-.56377-.0077-1.022477.45187-1.013672 1.015624.0086.551516.46214.991928 1.013672.984375h.828125c-.400476 2.073326-2.022075 3.69359-4.095703 4.09375v-.833984c.0191-1.352294-2.019096-1.352294-2 0v.833984c-2.072503-.40072-4.832258-2.310836-4.09375-4.09375z" color="#000000" color-rendering="auto" dominant-baseline="auto" fill="url(#l)" image-rendering="auto" shape-rendering="auto" solid-color="#000000" style="font-feature-settings:normal;font-variant-alternates:normal;font-variant-caps:normal;font-variant-ligatures:normal;font-variant-numeric:normal;font-variant-position:normal;isolation:auto;mix-blend-mode:normal;paint-order:fill markers stroke;shape-padding:0;text-decoration-color:#000000;text-decoration-line:none;text-decoration-style:solid;text-indent:0;text-orientation:mixed;text-transform:none;white-space:normal"/>
	<path d="m-34.142578-45.513672a1.0001 1.0001 0 0 0-.857422.513672c-3.464766.402931-6.225773 3.165573-6.626953 6.630859a1.0001 1.0001 0 0 0 0 1.738282c.40118 3.465285 3.162187 6.227928 6.626953 6.630859a1.0001 1.0001 0 0 0 1.746094 0c3.458247-.402173 6.215707-3.155201 6.625-6.611329a1.0001 1.0001 0 0 0 0-1.77539c-.408496-3.457031-3.166111-6.211034-6.625-6.613281a1.0001 1.0001 0 0 0-.888672-.513672zm-.984375 2.552734v2.943359a1.0001 1.0001 0 1 0 2 0v-2.943359c2.272859.409803 4.051135 2.188079 4.460938 4.460937h-2.921876a1.0001 1.0001 0 1 0 0 2h2.921876c-.409803 2.272859-2.188079 4.051136-4.460938 4.460939v-2.943361a1.0001 1.0001 0 0 0-1.015625-1.015625 1.0001 1.0001 0 0 0-.984375 1.015625v2.943361c-2.272859-.409803-4.051135-2.18808-4.460937-4.460939h2.953124a1.0001 1.0001 0 1 0 0-2h-2.953124c.409802-2.272858 2.188078-4.051134 4.460937-4.460937z" color="#000000" color-rendering="auto" dominant-baseline="auto" fill="url(#ag)" image-rendering="auto" shape-rendering="auto" solid-color="#000000" style="font-feature-settings:normal;font-variant-alternates:normal;font-variant-caps:normal;font-variant-ligatures:normal;font-variant-numeric:normal;font-variant-position:normal;isolation:auto;mix-blend-mode:normal;paint-order:fill markers stroke;shape-padding:0;text-decoration-color:#000000;text-decoration-line:none;text-decoration-style:solid;text-indent:0;text-orientation:mixed;text-transform:none;white-space:normal"/>
	<circle cx="68.446182" cy="-15" r="6.5538206" fill="none" stroke="#070606" stroke-linecap="round" stroke-linejoin="round" stroke-width="2" style="paint-order:fill markers stroke"/>
	<path d="m61.454723-15h4.48299" fill="none" stroke="#000" stroke-linecap="round" stroke-linejoin="round" stroke-width="2"/>
	<path d="m70.985972-15h4.48299" fill="none" stroke="#000" stroke-linecap="round" stroke-linejoin="round" stroke-width="2"/>
	<path d="M 68.446182,-12.48299 V -8" fill="none" stroke="#000" stroke-linecap="round" stroke-linejoin="round" stroke-width="2"/>
	<path d="m68.446218-22v4.48299" fill="none" stroke="#000" stroke-linecap="round" stroke-linejoin="round" stroke-width="2"/>
	<g transform="rotate(-90,-6.2365918,-2.4506439)" fill="none" stroke-linecap="round" stroke-linejoin="round" stroke-width="2.5">
		<ellipse cx="44.000408" cy="10.012118" rx="6.8913059" ry="6.8912754" stroke="url(#ab)" style="paint-order:fill markers stroke"/>
		<path d="m37.257812 10.012119h3.204309" stroke="url(#ae)"/>
		<path d="m47.440445 10.012119h3.085171" stroke="url(#ad)"/>
		<path d="m44.000407 13.136171v3.379592" stroke="url(#af)"/>
		<path d="m44.000441 3.2779594v3.2730534" stroke="url(#ac)"/>
	</g>
	<rect transform="rotate(45)" x="-44.878887" y="43.478981" width="13.792038" height="13.792038" rx="1" ry="1" fill="url(#ai)" stroke="#000" stroke-linecap="round" stroke-linejoin="round" stroke-width=".403" style="paint-order:fill markers stroke"/>
	<rect transform="matrix(.70710678 -.70710678 -.70710678 -.70710678 0 0)" x="-38.312714" y="46.245792" width="14.04484" height="14.04484" rx=".5" ry=".5" fill="url(#aj)" stroke="#000" stroke-linecap="round" stroke-linejoin="round" stroke-width=".403" style="paint-order:fill markers stroke"/>
	<ellipse transform="rotate(-90)" cx="-8.7611713" cy="-62.478542" rx="4.3756156" ry="4.3756127" fill="url(#ak)" stroke="#000" stroke-linecap="round" stroke-linejoin="round" stroke-width=".40000001" style="paint-order:fill markers stroke"/>
	<circle cx="-12" cy="10.000002" r="3" fill="#ecfdd0" style="paint-order:fill markers stroke"/>
	<g transform="matrix(0 -.94208876 .94206997 0 -21.323535 51.34989)" fill="none" stroke="#101901" stroke-linecap="round" stroke-linejoin="round" stroke-width="4.13977861">
		<ellipse cx="43.891712" cy="9.8968601" rx="4.9541779" ry="4.9541545" style="paint-order:fill markers stroke"/>
		<path d="m35.257812 9.89686h3.204309"/>
		<path d="m49.440445 9.89686h3.085171"/>
		<path d="m43.891697 15.13617v3.379592"/>
		<path d="m43.891731 1.2779581v3.2730534"/>
		<ellipse cx="43.891712" cy="9.8968601" rx="4.9541779" ry="4.9541545" style="paint-order:fill markers stroke"/>
		<path d="m35.257812 9.89686h3.204309"/>
		<path d="m49.440445 9.89686h3.085171"/>
		<path d="m43.891697 15.13617v3.379592"/>
		<path d="m43.891731 1.2779581v3.2730534"/>
	</g>
	<ellipse transform="rotate(-90)" cx="-10.000002" cy="-12" rx="4.6672754" ry="4.66716" fill="none" stroke="url(#aa)" stroke-linecap="round" stroke-linejoin="round" stroke-width="2.5" style="paint-order:fill markers stroke"/>
	<path d="m-12 18.133902v-3.018744" fill="none" stroke="url(#g)" stroke-linecap="round" stroke-linejoin="round" stroke-width="2.5"/>
	<path d="m-12 4.772603v-2.906505" fill="none" stroke="url(#g)" stroke-linecap="round" stroke-linejoin="round" stroke-width="2.5"/>
	<path d="m-7.064203 10.000016h3.183812" fill="none" stroke="url(#d)" stroke-linecap="round" stroke-linejoin="round" stroke-width="2.5"/>
	<path d="m-20.119609 9.999984h3.083446" fill="none" stroke="url(#d)" stroke-linecap="round" stroke-linejoin="round" stroke-width="2.5"/>
	<ellipse transform="rotate(-90)" cx="-10.000002" cy="-12" rx="3.1047449" ry="3.10466" fill="none" stroke="url(#z)" stroke-linecap="round" stroke-linejoin="round" stroke-width="2.5" style="paint-order:fill markers stroke"/>
	<path d="m-12 18.133902v-3.018744" fill="none" stroke="url(#e)" stroke-linecap="round" stroke-linejoin="round" stroke-width="2.5"/>
	<path d="m-12 4.772603v-2.906505" fill="none" stroke="url(#e)" stroke-linecap="round" stroke-linejoin="round" stroke-width="2.5"/>
	<path d="m-7.064203 10.000016h3.183812" fill="none" stroke="url(#d)" stroke-linecap="round" stroke-linejoin="round" stroke-width="2.5"/>
	<path d="m-20.119609 9.999984h3.083446" fill="none" stroke="url(#d)" stroke-linecap="round" stroke-linejoin="round" stroke-width="2.5"/>
	<ellipse transform="rotate(-90)" cx="56.419571" cy="38.284271" rx="4.9541779" ry="4.9541545" fill="none" stroke="url(#y)" stroke-linecap="round" stroke-linejoin="round" stroke-width="2.5" style="paint-order:fill markers stroke"/>
	<path d="m38.284271-47.785668v-3.204309" fill="none" stroke="url(#f)" stroke-linecap="round" stroke-linejoin="round" stroke-width="2.5"/>
	<path d="m38.284271-61.968301v-3.085171" fill="none" stroke="url(#f)" stroke-linecap="round" stroke-linejoin="round" stroke-width="2.5"/>
	<path d="m43.523581-56.419553h3.379592" fill="none" stroke="url(#h)" stroke-linecap="round" stroke-linejoin="round" stroke-width="2.5"/>
	<path d="m29.665369-56.419587h3.273054" fill="none" stroke="url(#h)" stroke-linecap="round" stroke-linejoin="round" stroke-width="2.5"/>
	<path d="m56.945221-25.042993c-.973623 0-1.947129.650581-1.935543 1.952555v.504678c-2.377478.673804-4.254986 2.550543-4.929585 4.927698h-.661562c-1.091139-.01494-1.978962.874677-1.962005 1.965786.01648 1.067634.894345 1.919916 1.962005 1.905301h.661562c.674046 2.378165 2.551425 4.255544 4.929585 4.929588v.62943c-.02317 2.60395 3.894258 2.60395 3.871085 0v-.62943c2.377331-.674472 4.253816-2.552009 4.927695-4.929588h.451753c2.603976.0232 2.603976-3.894289 0-3.871087h-.451753c-.674433-2.376569-2.551048-4.253464-4.927695-4.927698v-.504678c.01159-1.301974-.96192-1.952555-1.935542-1.952555zm0 4.508078c2.672462 0 4.812394 2.141803 4.812394 4.814286 0 2.672484-2.139932 4.814288-4.812394 4.814288s-4.814284-2.141804-4.814284-4.814288c0-2.672483 2.141822-4.814286 4.814284-4.814286z" color="#000000" color-rendering="auto" dominant-baseline="auto" fill="url(#x)" image-rendering="auto" shape-rendering="auto" solid-color="#000000" style="font-feature-settings:normal;font-variant-alternates:normal;font-variant-caps:normal;font-variant-ligatures:normal;font-variant-numeric:normal;font-variant-position:normal;isolation:auto;mix-blend-mode:normal;paint-order:fill markers stroke;shape-padding:0;text-decoration-color:#000000;text-decoration-line:none;text-decoration-style:solid;text-indent:0;text-orientation:mixed;text-transform:none;white-space:normal"/>
	<g transform="rotate(-90,27.085814,55.721005)" stroke-width="2.5">
		<path d="m35.593591 10.007636h3.07969" fill="none" stroke="#000" stroke-linecap="round" stroke-linejoin="round" stroke-width="3.45999312"/>
		<path d="m43.996212 1.6131552v3.1457618" fill="none" stroke="#000" stroke-linecap="round" stroke-linejoin="round" stroke-width="3.45999312"/>
		<path d="m49.22465 10.007636h2.965186" fill="none" stroke="#000" stroke-linecap="round" stroke-linejoin="round" stroke-width="3.45999312"/>
		<path d="m43.996179 14.93241v3.248157" fill="none" stroke="#000" stroke-linecap="round" stroke-linejoin="round" stroke-width="3.45999312"/>
		<circle cx="43.891712" cy="9.8968601" r="5.3990488" fill="url(#o)" style="paint-order:fill markers stroke"/>
		<ellipse cx="43.996181" cy="10.007636" rx="6.1315255" ry="6.1314979" fill="none" stroke="#000" stroke-linecap="round" stroke-linejoin="round" stroke-width="3.45999312" style="paint-order:fill markers stroke"/>
	</g>
	<ellipse transform="rotate(-90)" cx="-38.810642" cy="-18.627554" rx="6.1757193" ry="6.1756921" fill="none" stroke="url(#v)" stroke-linecap="round" stroke-linejoin="round" stroke-width="2.40277314" style="paint-order:fill markers stroke"/>
	<path d="m-18.627554 47.054673v-1.979646" fill="none" stroke="url(#u)" stroke-linecap="round" stroke-linejoin="round" stroke-width="2.40277314"/>
	<path d="m-18.627554 32.453614v-1.75617" fill="none" stroke="url(#t)" stroke-linecap="round" stroke-linejoin="round" stroke-width="2.40277314"/>
	<path d="m-12.452788 38.810642h1.88466" fill="none" stroke="url(#s)" stroke-linecap="round" stroke-linejoin="round" stroke-width="2.4027729"/>
	<path d="m-26.904114 38.810609h1.950212" fill="none" stroke="url(#r)" stroke-linecap="round" stroke-linejoin="round" stroke-width="2.40277314"/>
	<ellipse transform="rotate(-90)" cx="-31.882584" cy="-52.323158" rx="5.2250476" ry="5.2250443" fill="url(#q)" style="paint-order:fill markers stroke"/>
	<path d="m-52.215422 22.460039c-.973622 0-1.947129.650581-1.935542 1.952555v.504678c-2.377478.673804-4.254986 2.550543-4.929586 4.927698h-.661562c-1.091139-.01494-1.978962.874677-1.962005 1.965786.01648 1.067634.894345 1.919916 1.962005 1.905301h.661562c.674046 2.378165 2.551425 4.255544 4.929586 4.929588v.62943c-.02317 2.60395 3.894257 2.60395 3.871084 0v-.62943c2.377331-.674472 4.253816-2.552009 4.927695-4.929588h.451753c2.603976.0232 2.603976-3.894289 0-3.871087h-.451753c-.674433-2.376569-2.551048-4.253464-4.927695-4.927698v-.504678c.01159-1.301974-.96192-1.952555-1.935542-1.952555zm0 4.508078c2.672462 0 4.812394 2.141803 4.812394 4.814286 0 2.672484-2.139932 4.814288-4.812394 4.814288s-4.814284-2.141804-4.814284-4.814288c0-2.672483 2.141822-4.814286 4.814284-4.814286z" color="#000000" color-rendering="auto" dominant-baseline="auto" fill="none" image-rendering="auto" shape-rendering="auto" solid-color="#000000" stroke="#000" stroke-linecap="round" stroke-linejoin="round" stroke-width=".903" style="font-feature-settings:normal;font-variant-alternates:normal;font-variant-caps:normal;font-variant-ligatures:normal;font-variant-numeric:normal;font-variant-position:normal;isolation:auto;mix-blend-mode:normal;paint-order:fill markers stroke;shape-padding:0;text-decoration-color:#000000;text-decoration-line:none;text-decoration-style:solid;text-indent:0;text-orientation:mixed;text-transform:none;white-space:normal"/>
	<path d="m-52.215422 22.460039c-.973622 0-1.947129.650581-1.935542 1.952555v.504678c-2.377478.673804-4.254986 2.550543-4.929586 4.927698h-.661562c-1.091139-.01494-1.978962.874677-1.962005 1.965786.01648 1.067634.894345 1.919916 1.962005 1.905301h.661562c.674046 2.378165 2.551425 4.255544 4.929586 4.929588v.62943c-.02317 2.60395 3.894257 2.60395 3.871084 0v-.62943c2.377331-.674472 4.253816-2.552009 4.927695-4.929588h.451753c2.603976.0232 2.603976-3.894289 0-3.871087h-.451753c-.674433-2.376569-2.551048-4.253464-4.927695-4.927698v-.504678c.01159-1.301974-.96192-1.952555-1.935542-1.952555zm0 4.508078c2.672462 0 4.812394 2.141803 4.812394 4.814286 0 2.672484-2.139932 4.814288-4.812394 4.814288s-4.814284-2.141804-4.814284-4.814288c0-2.672483 2.141822-4.814286 4.814284-4.814286z" color="#000000" color-rendering="auto" dominant-baseline="auto" fill="url(#w)" image-rendering="auto" shape-rendering="auto" solid-color="#000000" style="font-feature-settings:normal;font-variant-alternates:normal;font-variant-caps:normal;font-variant-ligatures:normal;font-variant-numeric:normal;font-variant-position:normal;isolation:auto;mix-blend-mode:normal;paint-order:fill markers stroke;shape-padding:0;text-decoration-color:#000000;text-decoration-line:none;text-decoration-style:solid;text-indent:0;text-orientation:mixed;text-transform:none;white-space:normal"/>
	<path d="m2.4162076 4c-.7190868.000346-1.168452.778638-.8092295 1.401571l7.5837925 13.133576c.3598428.622625 1.2586164.622625 1.6184594 0l7.583792-13.133576c.359223-.622933-.09014-1.401225-.80923-1.401571z" color="#000000" color-rendering="auto" dominant-baseline="auto" fill="url(#ah)" image-rendering="auto" shape-rendering="auto" solid-color="#000000" style="font-feature-settings:normal;font-variant-alternates:normal;font-variant-caps:normal;font-variant-ligatures:normal;font-variant-numeric:normal;font-variant-position:normal;isolation:auto;mix-blend-mode:normal;paint-order:fill markers stroke;shape-padding:0;text-decoration-color:#000000;text-decoration-line:none;text-decoration-style:solid;text-indent:0;text-orientation:mixed;text-transform:none;white-space:normal"/>
	<ellipse transform="rotate(-90)" cx="-9.4986095" cy="9.9999027" rx="3.1274555" ry="3.1274533" fill="url(#p)" stroke="#000" stroke-linecap="round" stroke-linejoin="round" stroke-width=".40000001" style="paint-order:fill markers stroke"/>
</svg>
