<!-- Created with Inkscape (http://www.inkscape.org/) -->
<svg id="svg5498" width="107" height="25" version="1.1" viewBox="0 0 107 25" xmlns="http://www.w3.org/2000/svg"><defs id="defs5500"><linearGradient id="SVGID_50_" x1="74.096" x2="74.096" y1="283.01" y2="240.3" gradientUnits="userSpaceOnUse"><stop id="stop4854" stop-color="#1F1F20" offset="0"/><stop id="stop4856" stop-color="#A5A8AA" offset="1"/></linearGradient><linearGradient id="SVGID_51_" x1="97.754" x2="97.754" y1="283.01" y2="240.3" gradientUnits="userSpaceOnUse"><stop id="stop4861" stop-color="#1F1F20" offset="0"/><stop id="stop4863" stop-color="#A5A8AA" offset="1"/></linearGradient><linearGradient id="SVGID_52_" x1="121.41" x2="121.41" y1="283.01" y2="240.3" gradientUnits="userSpaceOnUse"><stop id="stop4868" stop-color="#1F1F20" offset="0"/><stop id="stop4870" stop-color="#A5A8AA" offset="1"/></linearGradient><linearGradient id="SVGID_53_" x1="49.035" x2="49.035" y1="283.01" y2="240.3" gradientUnits="userSpaceOnUse"><stop id="stop4875" stop-color="#1F1F20" offset="0"/><stop id="stop4877" stop-color="#A5A8AA" offset="1"/></linearGradient><linearGradient id="SVGID_54_" x1="20.309" x2="20.309" y1="283.01" y2="240.3" gradientUnits="userSpaceOnUse"><stop id="stop4882" stop-color="#1F1F20" offset="0"/><stop id="stop4884" stop-color="#A5A8AA" offset="1"/></linearGradient><linearGradient id="SVGID_49_" x1="109.71" x2="85.934" y1="244.09" y2="278.45" gradientUnits="userSpaceOnUse"><stop id="stop4833" stop-color="#130E1E" offset="0"/><stop id="stop4835" stop-color="#1C1426" offset=".0231"/><stop id="stop4837" stop-color="#442349" offset=".1446"/><stop id="stop4839" stop-color="#652966" offset=".2552"/><stop id="stop4841" stop-color="#7C287A" offset=".3511"/><stop id="stop4843" stop-color="#8B2688" offset=".4286"/><stop id="stop4845" stop-color="#91278F" offset=".478"/><stop id="stop4847" stop-color="#ED1C24" offset="1"/></linearGradient><linearGradient id="SVGID_48_" x1="86.049" x2="62.275" y1="244.09" y2="278.46" gradientUnits="userSpaceOnUse"><stop id="stop4808" stop-color="#381F1F" offset="0"/><stop id="stop4810" stop-color="#3A1F20" offset=".0017"/><stop id="stop4812" stop-color="#5B2926" offset=".0376"/><stop id="stop4814" stop-color="#7C2F28" offset=".0757"/><stop id="stop4816" stop-color="#9B3029" offset=".1173"/><stop id="stop4818" stop-color="#B62E28" offset=".1626"/><stop id="stop4820" stop-color="#CC2927" offset=".2129"/><stop id="stop4822" stop-color="#DC2325" offset=".271"/><stop id="stop4824" stop-color="#E81F25" offset=".3438"/><stop id="stop4826" stop-color="#ED1C24" offset=".478"/><stop id="stop4828" stop-color="#F7931E" offset="1"/></linearGradient><linearGradient id="SVGID_47_" x1="133.36" x2="109.59" y1="244.09" y2="278.45" gradientUnits="userSpaceOnUse"><stop id="stop4801" stop-color="#39B54A" offset=".478"/><stop id="stop4803" stop-color="#1B75BC" offset="1"/></linearGradient></defs><g id="layer1" transform="translate(-309.42 -348.79)"><polygon id="polygon4805" transform="matrix(.76849 0 0 .72579 309.42 171.59)" points="104.38 278.59 128 244.15 138.44 244.15 114.82 278.59" fill="url(#SVGID_47_)"/><polygon id="polygon4830" transform="matrix(.76849 0 0 .72579 309.42 171.59)" points="57.062 278.59 80.68 244.15 91.126 244.15 67.51 278.59" fill="url(#SVGID_48_)"/><polygon id="polygon4849" transform="matrix(.76849 0 0 .72579 309.42 171.59)" points="80.722 278.59 104.34 244.15 114.78 244.15 91.167 278.59" fill="url(#SVGID_49_)"/><g id="g4851" transform="matrix(.76849 0 0 .72579 309.42 171.59)"><polygon id="polygon4858" points="91.126 278.59 67.51 244.15 57.065 244.15 80.68 278.59" fill="url(#SVGID_50_)"/><polygon id="polygon4865" points="114.79 278.59 91.167 244.15 80.722 244.15 104.34 278.59" fill="url(#SVGID_51_)"/><polygon id="polygon4872" points="138.44 278.59 114.82 244.15 104.38 244.15 128 278.59" fill="url(#SVGID_52_)"/><rect id="rect4879" x="44.568" y="244.15" width="8.934" height="34.445" fill="url(#SVGID_53_)"/><polygon id="polygon4886" points="31.74 258.24 31.74 278.59 40.618 278.59 40.618 244.15 30.988 244.15 20.307 261.32 9.631 244.15 0 244.15 0 278.59 8.76 278.59 8.76 258.42 20.076 275.6 20.307 275.6" fill="url(#SVGID_54_)"/></g></g></svg>
