<svg xmlns:rdf="http://www.w3.org/1999/02/22-rdf-syntax-ns#" xmlns="http://www.w3.org/2000/svg" version="1.1" xmlns:cc="http://creativecommons.org/ns#" xmlns:dc="http://purl.org/dc/elements/1.1/" viewBox="0 0 15 5">
 <path fill-opacity=".49804" fill="#b3b3b3" d="m11 2.5c0 0.83 0.67 1.5 1.5 1.5s1.5-0.67 1.5-1.5-0.67-1.5-1.5-1.5-1.5 0.67-1.5 1.5zm-2 0c0-0.83-0.67-1.5-1.5-1.5s-1.5 0.67-1.5 1.5 0.67 1.5 1.5 1.5 1.5-0.67 1.5-1.5zm-5 0c0-0.83-0.67-1.5-1.5-1.5s-1.5 0.67-1.5 1.5 0.67 1.5 1.5 1.5 1.5-0.67 1.5-1.5z"/>
</svg>
