<svg id="svg4744" width="100" height="100" version="1.1" viewBox="0 0 100 100" xmlns="http://www.w3.org/2000/svg"><g id="g5674"><path id="circle10199-6" transform="rotate(-90)" d="m-19.382 45.151a31 31 0 0 1 0 9.6989" color="#000000" fill="none" stroke-opacity="0"/><path id="path5294-4-2" transform="rotate(-90)" d="m-23.837 23.837a37 37 0 0 1 10.837 26.163 37 37 0 0 1-10.837 26.163" color="#000000" fill="none" opacity=".75" stroke="#333" stroke-width="10"/><path id="circle12929-5" d="m50 8c-0.01177 0-0.02339 0.00194-0.03516 0.00195-1.6682 0.0014031-3.325 0.10808-4.9648 0.30469v4.6934 6.1992c1.6436-0.25995 3.3146-0.39844 5-0.39844s3.3564 0.13849 5 0.39844v-6.1992-4.6895c-1.6389-0.19653-3.2937-0.309-4.9609-0.31055-0.01305-1.21e-5 -0.02601 0-0.03906 0z" color="#000000" color-rendering="auto" fill="#d2d2d2" image-rendering="auto" shape-rendering="auto" solid-color="#000000" style="block-progression:tb;isolation:auto;mix-blend-mode:normal;text-decoration-color:#000000;text-decoration-line:none;text-decoration-style:solid;text-indent:0;text-transform:none;white-space:normal"/><path id="circle11130-2-0-5" transform="rotate(-90)" d="m-21.009 21.009a41 41 0 0 1 12.009 28.991 41 41 0 0 1-12.009 28.991" color="#000000" fill="none" stroke="#222" stroke-width="2"/></g></svg>
