<?xml version="1.0" encoding="UTF-8" standalone="no"?>
<svg id="svg6" version="1.1" height="48" width="40" xmlns="http://www.w3.org/2000/svg" xmlns:svg="http://www.w3.org/2000/svg" xmlns:rdf="http://www.w3.org/1999/02/22-rdf-syntax-ns#" xmlns:cc="http://creativecommons.org/ns#" xmlns:dc="http://purl.org/dc/elements/1.1/">
 <g transform="scale(2)">
  <metadata
     id="metadata12">
    <rdf:RDF>
      <cc:Work
         rdf:about="">
        <dc:format>image/svg+xml</dc:format>
        <dc:type
           rdf:resource="http://purl.org/dc/dcmitype/StillImage" />
      </cc:Work>
    </rdf:RDF>
  </metadata>
  <defs
     id="defs10" />
  <text
     xml:space="preserve"
     style="font-style:normal;font-weight:normal;font-size:40px;line-height:1.25;font-family:sans-serif;letter-spacing:0px;word-spacing:0px;fill:#000000;fill-opacity:1;stroke:none;"
     x="5.8255696"
     y="17.235025"
     id="text836-5"><tspan
       id="tspan834-8"
       x="5.8255696"
       y="17.235025"
       style="font-style:normal;font-variant:normal;font-weight:bold;font-stretch:normal;font-size:14.66666698px;font-family:'Open Sans';-inkscape-font-specification:'Open Sans Bold';fill:#000000;fill-opacity:1;">2</tspan></text>
  <g
     id="g932">
    <path
       id="path17"
       style="fill:none;stroke:#000000;stroke-width:1.5;stroke-miterlimit:3.9;stroke-dasharray:none;stroke-opacity:1"
       d="M 4.5608663,5.029992 C 6.1297022,3.8094548 8.0606744,3.1467812 10.048376,3.1467812 c 4.935583,10e-8 8.936664,4.0010807 8.936664,8.9366638 v 0 c 0,1.383787 -0.320631,2.729437 -0.915876,3.940928" />
    <path
       id="path853"
       style="fill:none;stroke:#000000;stroke-width:1.5;stroke-miterlimit:4;stroke-dasharray:none;stroke-opacity:1"
       d="m 15.646565,19.04938 c -1.587077,1.275457 -3.562113,1.970729 -5.598189,1.970729 -4.9355833,0 -8.9366639,-4.001081 -8.9366639,-8.936664 10e-8,-1.507842 0.380631,-2.9695133 1.0814855,-4.2614821" />
    <path
       style="fill:none;stroke:#000000;stroke-width:2;stroke-miterlimit:3.9;stroke-dasharray:none;stroke-opacity:1"
       id="path1696"
       d="M 5.6021461,5.6513966 5.0727499,5.9469329 4.5433538,6.2424691 4.55211,5.6362305 4.5608662,5.0299919 5.0815061,5.3406943 Z"
       transform="matrix(-1.0893759,0.55467804,-0.55467804,-1.0893759,14.328231,7.6701776)" />
    <path
       style="fill:none;stroke:#000000;stroke-width:2;stroke-miterlimit:3.9;stroke-dasharray:none;stroke-opacity:1"
       id="path1696-7"
       d="M 5.6021461,5.6513966 5.0727499,5.9469329 4.5433538,6.2424691 4.55211,5.6362305 4.5608662,5.0299919 5.0815061,5.3406943 Z"
       transform="matrix(-1.0774745,-0.5774569,0.5774569,-1.0774745,16.472708,28.603882)" />
  </g>
 </g>
</svg>
