<svg width="38" height="24" version="1.1" xmlns="http://www.w3.org/2000/svg">
	<g transform="translate(-6)" fill="#d2d2d1" stroke="#000" stroke-linecap="round" stroke-linejoin="round" stroke-width="1.60000002">
		<path d="m20 9h-7v6h7v-1h-5v-4h5v-1"/>
		<path d="m22 9v6h7v-6h-2v5h-3v-5h-2"/>
		<path d="m31 9v6h7v-1h-5v-2h4v-1h-4v-1h5v-1h-7"/>
	</g>
	<g transform="translate(-6)" fill="#d2d2d1">
		<path d="m20 9h-7v6h7v-1h-5v-4h5v-1"/>
		<path d="m22 9v6h7v-6h-2v5h-3v-5h-2"/>
		<path d="m31 9v6h7v-1h-5v-2h4v-1h-4v-1h5v-1h-7"/>
	</g>
</svg>
