<?xml version="1.0" encoding="UTF-8" standalone="no"?>
<svg
   width="115"
   height="40"
   version="1.1"
   id="svg44"
   sodipodi:docname="slider_crossfader_bg.svg"
   inkscape:version="1.1.1 (c3084ef, 2021-09-22)"
   xmlns:inkscape="http://www.inkscape.org/namespaces/inkscape"
   xmlns:sodipodi="http://sodipodi.sourceforge.net/DTD/sodipodi-0.dtd"
   xmlns="http://www.w3.org/2000/svg"
   xmlns:svg="http://www.w3.org/2000/svg">
  <defs
     id="defs48" />
  <sodipodi:namedview
     id="namedview46"
     pagecolor="#ffffff"
     bordercolor="#666666"
     borderopacity="1.0"
     inkscape:pageshadow="2"
     inkscape:pageopacity="0.0"
     inkscape:pagecheckerboard="0"
     showgrid="false"
     inkscape:zoom="9.8"
     inkscape:cx="57.5"
     inkscape:cy="20"
     inkscape:window-width="1296"
     inkscape:window-height="776"
     inkscape:window-x="80"
     inkscape:window-y="25"
     inkscape:window-maximized="0"
     inkscape:current-layer="svg44" />
  <g
     id="g950"
     transform="translate(-5e-4,1)">
    <path
       d="m 57.9998,23 -2e-4,9 h -0.999596 l 2e-4,-9 z"
       color="#000000"
       fill="#050505"
       stroke-width="0.999798"
       id="path2" />
    <path
       d="m 57.9998,5 -2e-4,9 h -0.999596 l 2e-4,-9 z"
       color="#000000"
       fill="#050505"
       stroke-width="0.999798"
       id="path4" />
    <path
       d="m 7.9998,23 -2e-4,9 H 7.000004 l 2e-4,-9 z"
       color="#000000"
       fill="#050505"
       stroke-width="0.999798"
       id="path6" />
    <path
       d="m 7.9998,5 -2e-4,9 H 7.000004 l 2e-4,-9 z"
       color="#000000"
       fill="#050505"
       stroke-width="0.999798"
       id="path8" />
    <path
       d="m 108,23 -2e-4,9 h -0.9996 l 2e-4,-9 z"
       color="#000000"
       fill="#050505"
       stroke-width="0.999798"
       id="path10" />
    <path
       d="m 108,5 -2e-4,9 h -0.9996 l 2e-4,-9 z"
       color="#000000"
       fill="#050505"
       stroke-width="0.999798"
       id="path12" />
    <path
       d="m 44.9998,23 2e-6,7 h -0.999596 l -2e-6,-7 z"
       color="#000000"
       fill="#050505"
       stroke-width="0.999798"
       id="path14" />
    <path
       d="m 45,7 -4.02e-4,7 h -0.999596 l 4.02e-4,-7 z"
       color="#000000"
       fill="#050505"
       stroke-width="0.999798"
       id="path16" />
    <path
       d="m 70.9998,23 2e-6,7 h -0.999596 l -2e-6,-7 z"
       color="#000000"
       fill="#050505"
       stroke-width="0.999798"
       id="path18" />
    <path
       d="m 71,7 -4.02e-4,7 h -0.999596 l 4.02e-4,-7 z"
       color="#000000"
       fill="#050505"
       stroke-width="0.999798"
       id="path20" />
    <path
       d="m 57.9999,6 -2e-4,9 h -0.999596 l 2e-4,-9 z"
       color="#000000"
       fill="#636363"
       stroke-width="0.999798"
       id="path22" />
    <path
       d="m 57.9996,33 2e-4,-9 h -0.999596 l -2e-4,9 z"
       color="#000000"
       fill="#636363"
       stroke-width="0.999798"
       id="path24" />
    <path
       d="m 7.9998,6 -2e-4,9 H 7.000004 l 2e-4,-9 z"
       color="#000000"
       fill="#4b4b4b"
       stroke-width="0.999798"
       id="path26" />
    <path
       d="m 7.9996,33 2e-4,-9 H 7.000204 l -2e-4,9 z"
       color="#000000"
       fill="#4b4b4b"
       stroke-width="0.999798"
       id="path28" />
    <path
       d="m 108,6 -2e-4,9 h -0.9996 l 2e-4,-9 z"
       color="#000000"
       fill="#4b4b4b"
       stroke-width="0.999798"
       id="path30" />
    <path
       d="m 108,33 2e-4,-9 h -0.9996 l -2e-4,9 z"
       color="#000000"
       fill="#4b4b4b"
       stroke-width="0.999798"
       id="path32" />
    <path
       d="m 45,8 -4.02e-4,7 h -0.999596 l 4.02e-4,-7 z"
       color="#000000"
       fill="#4b4b4b"
       stroke-width="0.999798"
       id="path34" />
    <path
       d="m 44.9998,31 -2e-6,-7 h -0.999596 l 2e-6,7 z"
       color="#000000"
       fill="#4b4b4b"
       stroke-width="0.999798"
       id="path36" />
    <path
       d="m 71,8 -4.02e-4,7 h -0.999596 l 4.02e-4,-7 z"
       color="#000000"
       fill="#4b4b4b"
       stroke-width="0.999798"
       id="path38" />
    <path
       d="m 70.9998,31 -2e-6,-7 h -0.999596 l 2e-6,7 z"
       color="#000000"
       fill="#4b4b4b"
       stroke-width="0.999798"
       id="path40" />
    <path
       d="m 108.674,18.3263 v 1.34746 H 6.327 V 18.3263 Z"
       color="#000000"
       stroke="#000000"
       stroke-linejoin="round"
       stroke-width="1.65254"
       id="path42" />
  </g>
</svg>
