<?xml version="1.0" encoding="UTF-8" standalone="no"?>
<svg
   xmlns:dc="http://purl.org/dc/elements/1.1/"
   xmlns:cc="http://creativecommons.org/ns#"
   xmlns:rdf="http://www.w3.org/1999/02/22-rdf-syntax-ns#"
   xmlns:svg="http://www.w3.org/2000/svg"
   xmlns="http://www.w3.org/2000/svg"
   xmlns:sodipodi="http://sodipodi.sourceforge.net/DTD/sodipodi-0.dtd"
   xmlns:inkscape="http://www.inkscape.org/namespaces/inkscape"
   version="1.1"
   viewBox="0 0 48 98"
   id="svg2"
   inkscape:version="0.91 r13725"
   sodipodi:docname="ic_autodj_end_48px.svg"
   width="48"
   height="98">
  <metadata
     id="metadata12">
    <rdf:RDF>
      <cc:Work
         rdf:about="">
        <dc:format>image/svg+xml</dc:format>
        <dc:type
           rdf:resource="http://purl.org/dc/dcmitype/StillImage" />
        <dc:title></dc:title>
      </cc:Work>
    </rdf:RDF>
  </metadata>
  <defs
     id="defs10" />
  <sodipodi:namedview
     pagecolor="#ffffff"
     bordercolor="#666666"
     borderopacity="1"
     objecttolerance="10"
     gridtolerance="10"
     guidetolerance="10"
     inkscape:pageopacity="0"
     inkscape:pageshadow="2"
     inkscape:window-width="1365"
     inkscape:window-height="764"
     id="namedview8"
     showgrid="false"
     inkscape:zoom="5"
     inkscape:cx="7.1731679"
     inkscape:cy="62.327464"
     inkscape:window-x="219"
     inkscape:window-y="172"
     inkscape:window-maximized="0"
     inkscape:current-layer="svg2" />
  <path
     d="m 32,26 -12,0 0,12 -4,0 0,-28 4,0 12,0 z"
     id="path4"
     style="fill:#d2d2d2;fill-opacity:1"
     inkscape:connector-curvature="0" />
  <path
     d="m 0,50 48,0 0,48 -48,0 z"
     id="path6"
     inkscape:connector-curvature="0"
     style="fill:none" />
  <path
     inkscape:connector-curvature="0"
     id="path6-3"
     d="m 35,70.039698 2,0 c 0.554,0 1,0.445011 1,0.997783 l 0,7.982268 c 0,0.552772 -0.446,0.997783 -1,0.997783 l -2,0 c -0.554,0 -1,-0.445011 -1,-0.997783 l 0,-7.982268 c 0,-0.552772 0.446,-0.997783 1,-0.997783 z m -24,0 2,0 c 0.554,0 1,0.445011 1,0.997783 l 0,7.982268 c 0,0.552772 -0.446,0.997783 -1,0.997783 l -2,0 c -0.554,0 -1,-0.445011 -1,-0.997783 l 0,-7.982268 c 0,-0.552772 0.446,-0.997783 1,-0.997783 z m 5,0 0,1.153737 0,0.84183 0,10.819964 c 0,0.644867 0.446,1.153637 1,1.153637 l 1,0 0,2.993351 C 18,87.554989 18.446,88 19,88 l 2,0 c 0.554,0 1,-0.445011 1,-0.997783 l 0,-2.993351 4,0 0,2.993351 C 26,87.554989 26.446,88 27,88 l 2,0 c 0.554,0 1,-0.445011 1,-0.997783 l 0,-2.993351 1,0 c 0.554,0 1,-0.50877 1,-1.153637 l 0,-10.819964 0,-0.84183 0,-1.153737 -1,0 -14,0 -1,0 z M 24,60 c -4.4183,0 -8,3.588728 -8,8.013499 0,0.01098 -4.1e-5,0.02095 0,0.03093 l 16,0 c 4.1e-5,-0.01098 0,-0.02095 0,-0.03093 C 32,63.588728 28.4183,60 24,60 Z m -3.5,3.055712 c 0.82843,0 1.5,0.670111 1.5,1.496675 0,0.826564 -0.67157,1.496675 -1.5,1.496675 -0.82843,0 -1.5,-0.670111 -1.5,-1.496675 0,-0.826564 0.67157,-1.496675 1.5,-1.496675 z m 7,0 c 0.82843,0 1.5,0.670111 1.5,1.496675 0,0.826564 -0.67157,1.496675 -1.5,1.496675 -0.82843,0 -1.5,-0.670111 -1.5,-1.496675 0,-0.826564 0.67157,-1.496675 1.5,-1.496675 z"
     style="color:#000000;fill:#d2d2d2;fill-opacity:1" />
</svg>
