<svg id="svg2" width="32" height="32" version="1.1" viewBox="0 0 32 32" xmlns="http://www.w3.org/2000/svg"><path id="path6" d="m27 12h2c0.554 0 1 0.446 1 1v8c0 0.554-0.446 1-1 1h-2c-0.554 0-1-0.446-1-1v-8c0-0.554 0.446-1 1-1zm-24 0h2c0.554 0 1 0.446 1 1v8c0 0.554-0.446 1-1 1h-2c-0.554 0-1-0.446-1-1v-8c0-0.554 0.446-1 1-1zm5 0v1.1563 0.8437 10.844c0 0.6463 0.446 1.1562 1 1.1562h1v3c0 0.554 0.446 1 1 1h2c0.554 0 1-0.446 1-1v-3h4v3c0 0.554 0.446 1 1 1h2c0.554 0 1-0.446 1-1v-3h1c0.554 0 1-0.5099 1-1.1562v-10.844-0.8437-1.1563h-1-14-1zm8-10.062c-4.4183 0-8 3.5967-8 8.0313 0 0.011-4.09e-5 0.021 0 0.031h16c4.1e-5 -0.011 0-0.021 0-0.031 0-4.4346-3.5817-8.0313-8-8.0313zm-3.5 3.0625c0.82843 0 1.5 0.6716 1.5 1.5s-0.67157 1.5-1.5 1.5-1.5-0.6716-1.5-1.5 0.67157-1.5 1.5-1.5zm7 0c0.82843 0 1.5 0.6716 1.5 1.5s-0.67157 1.5-1.5 1.5-1.5-0.6716-1.5-1.5 0.67157-1.5 1.5-1.5z" color="#000000" fill="#f60"/></svg>
