<svg id="svg2" width="32" height="32" version="1.1" viewBox="0 0 32 32" xmlns="http://www.w3.org/2000/svg"><path id="path6" d="m25.939 5.2812a0.7657 0.7657 0 0 0-0.52637 0.23175l-4.5938 4.5938a0.7657 0.7657 0 1 0 1.0827 1.0827l4.5938-4.5937a0.7657 0.7657 0 0 0-0.55627-1.3144zm-14.509 15.32c-0.22215-0.0076-0.43607 0.0843-0.58618 0.24822l-3.9822 4.344-0.8-0.0077c-0.18627 0-0.3665 0.06584-0.50693 0.18842-0.01441 0.01225-0.028382 0.0245-0.041872 0.03751l-0.00751 0.0092c-0.151 0.15144-0.23178 0.35908-0.22281 0.57276 0.019186 0.40877 0.35641 0.73018 0.76562 0.72979h1.1439 8.4043 0.02392 8.8016 0.0015c1.0066-0.01301 1.008-1.516 0.0016-1.5312h-0.0016l-3.8266-0.0077h-3e-3l-4.6386 0.0077-3.9822-4.3455c-0.13987-0.15274-0.33571-0.24232-0.54277-0.24821zm15.29-1.3592a9.8666 9.8666 0 0 1-9.5305 2.5537 9.8666 9.8666 0 0 1-6.9769-6.9769 9.8666 9.8666 0 0 1 2.5537-9.5305" color="#000000" fill="#ff13ed" style="block-progression:tb;text-indent:0;text-transform:none"/></svg>
