<svg width="48" height="48" version="1.1" viewBox="0 0 48 48" xmlns="http://www.w3.org/2000/svg">
  <path d="m23.943434 10.844437c-3.227921 0.02215-5.435624 1.464847-6.531199 3.167696-1.095573 1.70285-1.217353 3.451894-1.209641 4.394743 0.01047 1.279801 0.0018 4.954621 0 5.800192h-1.48377c-0.92827 0-1.857976 0.924503-1.857976 1.849272v9.668437c0 0.924772 0.929728 1.849273 1.857976 1.849273h18.562352c0.92827 0 1.857976-0.924501 1.857976-1.849273v-9.668437c0-0.924769-0.929729-1.849272-1.857976-1.849272h-1.483769c3.86e-4 -0.66879 0.0021-3.510737 0-4.834218-0.0023-1.363696-0.134249-3.37058-1.244453-5.221478-1.110214-1.851104-3.388255-3.329077-6.60952-3.306935zm0.02611 3.341745c2.327362-0.01604 3.13012 0.707254 3.715953 1.683928 0.585828 0.976669 0.768387 2.419958 0.770167 3.50709 0.0021 1.31222 3.84e-4 4.16365 0 4.829868h-8.911323c2e-3 -0.846564 0.01092-4.477868 0-5.826298-0.0043-0.527918 0.125159-1.698026 0.678791-2.558525 0.553625-0.860496 1.389816-1.619894 3.746412-1.636063zm-6.653032 14.476547h13.366981c0.617106 0 1.113915 0.496806 1.113915 1.113915s-0.496809 1.113915-1.113915 1.113915h-13.366984c-0.617109 0-1.113915-0.496806-1.113915-1.113915s0.496806-1.113915 1.113915-1.113915zm0 4.45566h13.366981c0.617106 0 1.113915 0.496806 1.113915 1.113915s-0.496809 1.113915-1.113915 1.113915h-13.366984c-0.617109 0-1.113915-0.496806-1.113915-1.113915s0.496806-1.113915 1.113915-1.113915z" color="#000000" fill="#d2d2d2" stroke-width=".999996" style="-inkscape-stroke:none"/>
</svg>
