<svg xmlns:rdf="http://www.w3.org/1999/02/22-rdf-syntax-ns#" xmlns="http://www.w3.org/2000/svg" height="32" width="32" version="1.1" xmlns:cc="http://creativecommons.org/ns#" xmlns:dc="http://purl.org/dc/elements/1.1/" viewBox="0 0 31.999999 31.999998">
 <g transform="translate(0 -1020.4)">
  <path style="color-rendering:auto;text-decoration-color:#000000;color:#000000;isolation:auto;mix-blend-mode:normal;shape-rendering:auto;solid-color:#000000;block-progression:tb;text-decoration-line:none;text-decoration-style:solid;image-rendering:auto;white-space:normal;text-indent:0;text-transform:none" d="m28.981 1022.4a1.0001 1.0001 0 0 0 -0.6875 0.3027l-6 6a1.0001 1.0001 0 1 0 1.4141 1.4141l6-6a1.0001 1.0001 0 0 0 -0.72656 -1.7168zm-18.951 20.01c-0.29016-0.01-0.56956 0.1101-0.76562 0.3242l-5.2012 5.6738-1.0449-0.01c-0.24329 0-0.47869 0.086-0.66211 0.2461-0.01882 0.016-0.03707 0.032-0.05469 0.049l-0.0098 0.012c-0.19722 0.1978-0.30273 0.469-0.29102 0.7481 0.02506 0.5339 0.46551 0.9537 1 0.9532h1.4941 10.977 0.03125 11.496 0.002c1.3147-0.017 1.3166-1.9801 0.002-2h-0.002l-4.998-0.01h-0.0039l-6.0586 0.01-5.2012-5.6758c-0.18274-0.1995-0.43853-0.3165-0.70898-0.3242zm19.971-1.7753a12.887 12.887 0 0 1 -12.448 3.3355 12.887 12.887 0 0 1 -9.1127 -9.1127 12.887 12.887 0 0 1 3.3355 -12.448" fill="#848484"/>
 </g>
</svg>
