<?xml version="1.0" encoding="UTF-8" standalone="no"?>
<svg
   xmlns:dc="http://purl.org/dc/elements/1.1/"
   xmlns:cc="http://creativecommons.org/ns#"
   xmlns:rdf="http://www.w3.org/1999/02/22-rdf-syntax-ns#"
   xmlns:svg="http://www.w3.org/2000/svg"
   xmlns="http://www.w3.org/2000/svg"
   xmlns:sodipodi="http://sodipodi.sourceforge.net/DTD/sodipodi-0.dtd"
   xmlns:inkscape="http://www.inkscape.org/namespaces/inkscape"
   height="32"
   width="32"
   version="1.1"
   viewBox="0 0 31.999999 31.999998"
   id="svg2"
   inkscape:version="0.48.4 r9939"
   sodipodi:docname="ic_broadcast_2_32px.svg">
  <metadata
     id="metadata12">
    <rdf:RDF>
      <cc:Work
         rdf:about="">
        <dc:format>image/svg+xml</dc:format>
        <dc:type
           rdf:resource="http://purl.org/dc/dcmitype/StillImage" />
      </cc:Work>
    </rdf:RDF>
  </metadata>
  <defs
     id="defs10" />
  <sodipodi:namedview
     pagecolor="#ffffff"
     bordercolor="#666666"
     borderopacity="1"
     objecttolerance="10"
     gridtolerance="10"
     guidetolerance="10"
     inkscape:pageopacity="0"
     inkscape:pageshadow="2"
     inkscape:window-width="1366"
     inkscape:window-height="746"
     id="namedview8"
     showgrid="false"
     inkscape:zoom="7.375"
     inkscape:cx="-6.1016952"
     inkscape:cy="16.542373"
     inkscape:window-x="0"
     inkscape:window-y="0"
     inkscape:window-maximized="1"
     inkscape:current-layer="svg2" />
  <path
     inkscape:connector-curvature="0"
     id="path6"
     d="m 27.358376,3.7499991 a 0.87508752,0.87508752 0 0 0 -0.601563,0.2648625 l -5.25,5.2500001 a 0.87508752,0.87508752 0 1 0 1.237338,1.2373373 l 5.25,-5.2499999 a 0.87508752,0.87508752 0 0 0 -0.63574,-1.5022 z M 10.77625,21.25875 c -0.25389,-0.0087 -0.498365,0.09634 -0.669917,0.283675 L 5.5552822,26.507 4.6409947,26.49825 c -0.2128787,0 -0.4188538,0.07525 -0.5793463,0.215337 -0.016468,0.014 -0.032436,0.028 -0.047854,0.04287 l -0.00858,0.0105 c -0.1725675,0.173075 -0.2648888,0.410375 -0.2546425,0.654588 0.021927,0.467162 0.4073212,0.834487 0.875,0.83405 l 1.3073375,0 9.6048756,0 0.02734,0 10.059,0 0.0017,0 c 1.150363,-0.01487 1.152025,-1.732588 0.0018,-1.75 l -0.0018,0 -4.37325,-0.0088 -0.0034,0 -5.301275,0.0088 -4.55105,-4.966325 C 11.236999,21.364712 11.013183,21.262337 10.776539,21.2556 z M 28.250876,19.705362 A 11.276125,11.276125 0 0 1 17.358875,22.623925 11.276125,11.276125 0 0 1 9.3852627,14.650312 11.276125,11.276125 0 0 1 12.303825,3.7583116"
     style="text-indent:0;text-decoration:none;text-transform:none;block-progression:tb;color:#000000;fill:#0094dc;fill-opacity:1" />
</svg>
