<svg width="48" height="48" version="1.1" viewBox="0 0 48 48" xmlns="http://www.w3.org/2000/svg">
  <path d="m23.948031 10.875611c-3.219145 0.02222-5.425157 1.465201-6.517831 3.163379l2.803272 1.800957c0.552114-0.858165 1.386061-1.615461 3.736155-1.631635 2.3211-0.016 3.126053 0.709661 3.710161 1.683692 0.584263 0.974031 0.761983 2.413303 0.763738 3.497535 0.0021 1.308765 3.73e-4 4.152295 0 4.816832h-13.699532c-0.925752 0-1.852925 0.921997-1.852925 1.84426v9.642107c0 0.922263 0.927196 1.84426 1.852925 1.84426h18.511921c0.925752 0 1.852925-0.921997 1.852925-1.84426v-9.642107c0-0.922263-0.927196-1.84426-1.852925-1.84426h-1.479754c3.75e-4 -0.662892 0.0021-3.504423 0-4.825497-0.0022-1.360044-0.133863-3.36134-1.241067-5.207422-1.107227-1.845882-3.374671-3.320015-6.587151-3.298019zm-6.613368 17.774288h13.330716c0.615435 0 1.110893 0.495458 1.110893 1.110893 0 0.615434-0.495458 1.110892-1.110893 1.110892h-13.330716c-0.615434 0-1.110893-0.495458-1.110893-1.110892 0-0.615435 0.495459-1.110893 1.110893-1.110893zm0 4.443571h13.330716c0.615435 0 1.110893 0.495458 1.110893 1.110893s-0.495458 1.110894-1.110893 1.110894h-13.330716c-0.615434 0-1.110893-0.495459-1.110893-1.110894s0.495459-1.110893 1.110893-1.110893z" color="#000000" color-rendering="auto" dominant-baseline="auto" fill="#d2d2d2" image-rendering="auto" shape-rendering="auto" solid-color="#000000" stroke-width=".999997" style="font-feature-settings:normal;font-variant-alternates:normal;font-variant-caps:normal;font-variant-ligatures:normal;font-variant-numeric:normal;font-variant-position:normal;isolation:auto;mix-blend-mode:normal;shape-padding:0;text-decoration-color:#000000;text-decoration-line:none;text-decoration-style:solid;text-indent:0;text-orientation:mixed;text-transform:none;white-space:normal"/>
</svg>
