<svg id="svg2" version="1.1" viewBox="0 0 48 48" xmlns="http://www.w3.org/2000/svg"><path id="path4" d="m0 0h48v48h-48z" fill="none"/><path id="path6" d="m24 7c-6.813 0-11.16 3.69-13.666 7.299-0.102 0.147-0.185 0.292-0.281 0.439-0.1889 0.277-0.3575 0.54-0.5061 0.791-0.0631 0.106-0.1214 0.208-0.1817 0.313-0.0498 0.089-0.0921 0.166-0.1367 0.25-1.6311 2.919-2.2051 5.429-2.2051 5.429a1.0001 1.0001 0 0 0-0.0234 0.219v9.629a1.0001 1.0001 0 0 0 0.4121 0.811l4.9629 3.601c0.063 2.007 0.303 4.047 0.687 6.219h4.938v-16.996l-4.035-0.029c-0.962 2.949-1.446 5.652-1.572 8.347l-3.393-2.463v-8.974c0.0189-0.082 0.4028-1.689 1.41-3.752l1.018 0.328s0.561-1.767 2.424-3.649c1.862-1.881 4.92-3.796 10.195-3.796s8.304 1.913 10.142 3.791c1.838 1.877 2.379 3.64 2.379 3.64l1.02-0.318c1.009 2.065 1.393 3.674 1.412 3.756v8.974l-3.014 2.19c-0.035-2.705-0.378-5.407-1.048-8.049h-4.938v17h4.938c0.537-2.119 0.868-4.277 0.998-6.443l4.652-3.377a1.0001 1.0001 0 0 0 0.412-0.811v-9.629a1.0001 1.0001 0 0 0-0.023-0.219s-0.554-2.41-2.11-5.253c-0.278-0.558-0.653-1.216-1.201-1.969-2.506-3.609-6.853-7.299-13.666-7.299z" fill="#d2d2d2"/></svg>
