<svg version="1.1" viewBox="0 0 48 48" xmlns="http://www.w3.org/2000/svg">
  <path d="m42 20h-9v21h-3v-33h12z" fill="#d2d2d2" stroke-width=".999997"/>
  <path d="m18.028983 16.937684c2.913813.01999 4.906685 1.322303 5.89565 2.859448.988963 1.537146 1.098892 3.115991 1.091931 3.967092-.0095 1.155263-.0016 4.472487 0 5.235776h1.339384c.83794 0 1.677177.83454 1.677177 1.669319v8.727604c0 .834782-.839256 1.66932-1.677177 1.66932h-16.756052c-.837941 0-1.677177-.834538-1.677177-1.66932v-8.727604c0-.834779.839257-1.669319 1.677177-1.669319h1.339383c-.000348-.60371-.0019-3.169108 0-4.363801.0021-1.230995.121185-3.04259 1.123356-4.713377 1.002179-1.670973 3.058544-3.005125 5.966348-2.985138zm-.02357 3.016561c-2.100887-.01448-2.825528.638431-3.354354 1.520065-.528821.881629-.693615 2.184472-.695222 3.165815-.0019 1.184529-.000347 3.758486 0 4.359875h8.044163c-.0018-.764185-.0099-4.042128 0-5.259342.0039-.476546-.112979-1.532791-.612738-2.309555-.499751-.776762-1.254573-1.462263-3.381849-1.476858zm6.005627 13.067836h-12.066243c-.557055 0-1.00552.448462-1.00552 1.00552 0 .557059.448465 1.00552 1.00552 1.00552h12.066246c.557059 0 1.005521-.448461 1.005521-1.00552 0-.557058-.448462-1.00552-1.005521-1.00552zm0 4.022081h-12.066243c-.557055 0-1.00552.448462-1.00552 1.00552s.448465 1.00552 1.00552 1.00552h12.066246c.557059 0 1.005521-.448462 1.005521-1.00552s-.448462-1.00552-1.005521-1.00552z" color="#000000" fill="#d2d2d2" style="-inkscape-stroke:none"/>
</svg>
