<svg id="svg2" width="10" height="12" version="1.1" xmlns="http://www.w3.org/2000/svg" xmlns:osb="http://www.openswatchbook.org/uri/2009/osb" xmlns:xlink="http://www.w3.org/1999/xlink"><g id="ic_library_crates" transform="translate(0,-20)"><path id="path8889-9" transform="translate(0,20)" d="m4.9766 0c-1.4489 0.01-2.4418 0.65947-2.9336 1.4238-0.49176 0.76435-0.54642 1.5495-0.54297 1.9727 0.001109 0.13594-3.192e-4 0.363 0 0.60352h1.5c-3.314e-4 -0.24806 0.0011845-0.46983 0-0.61523-0.00193-0.237 0.056186-0.76414 0.30469-1.1504 0.2485-0.38625 0.62385-0.7271 1.6816-0.73438 1.0447-0.007181 1.407 0.31941 1.6699 0.75781 0.26297 0.4384 0.34296 1.0862 0.34375 1.5742 9.639e-4 0.58906 1.684e-4 1.8689 0 2.168h-6.166c-0.41667 0-0.83398 0.41498-0.83398 0.83008v4.3398c0 0.4151 0.41732 0.83008 0.83398 0.83008h8.332c0.41667 0 0.83398-0.41498 0.83398-0.83008v-4.3398c0-0.4151-0.41732-0.83008-0.83398-0.83008h-0.66602c1.69e-4 -0.29836 9.685e-4 -1.5773 0-2.1719-9.966e-4 -0.61214-0.060246-1.5129-0.55859-2.3438-0.49835-0.83081-1.5189-1.4943-2.9648-1.4844zm-2.9766 8h6c0.277 0 0.5 0.223 0.5 0.5s-0.223 0.5-0.5 0.5h-6c-0.277 0-0.5-0.223-0.5-0.5s0.223-0.5 0.5-0.5zm0 2h6c0.277 0 0.5 0.223 0.5 0.5s-0.223 0.5-0.5 0.5h-6c-0.277 0-0.5-0.223-0.5-0.5s0.223-0.5 0.5-0.5z" color="#000000" color-rendering="auto" dominant-baseline="auto" fill="#979797" fill-opacity=".50196" image-rendering="auto" shape-rendering="auto" solid-color="#000000" style="font-feature-settings:normal;font-variant-alternates:normal;font-variant-caps:normal;font-variant-ligatures:normal;font-variant-numeric:normal;font-variant-position:normal;isolation:auto;mix-blend-mode:normal;shape-padding:0;text-decoration-color:#000000;text-decoration-line:none;text-decoration-style:solid;text-indent:0;text-orientation:mixed;text-transform:none;white-space:normal"/></g></svg>
