<svg id="svg2" width="10" height="12" version="1.1" xmlns="http://www.w3.org/2000/svg" xmlns:osb="http://www.openswatchbook.org/uri/2009/osb"><g id="ic_library_crates" transform="translate(0,-20)"><g id="ic_library_unchecked" transform="matrix(.4151 0 0 .4151 -1.6604 19.547)" fill="#979797"><path id="path4298" d="m15.988 1.0918c-3.4639 0.022465-5.8292 1.4823-7.0117 3.2559-1.1825 1.7736-1.2915 3.6104-1.2832 4.5664 0.012852 1.4883 0.00391 1.8134 0.00391 1.8134h3.6055s0.01696-0.33297 0.0039-1.8446c-0.0047-0.54446 0.11666-1.6897 0.67773-2.5312s1.4525-1.6298 4.0273-1.6465c2.5441-0.0165 3.3651 0.72725 3.9414 1.6777s0.73828 2.3849 0.74023 3.5176c0.0026 1.4915 0 6.127 0 6.127l3.6133 2e-3s0.0026-4.6262 0-6.1348c-0.002358-1.3677-0.09101-3.4506-1.2637-5.3848-1.1727-1.9342-3.5988-3.4404-7.0547-3.418z" color="#000000" color-rendering="auto" dominant-baseline="auto" fill-opacity=".50196" image-rendering="auto" shape-rendering="auto" solid-color="#000000" style="font-feature-settings:normal;font-variant-alternates:normal;font-variant-caps:normal;font-variant-ligatures:normal;font-variant-numeric:normal;font-variant-position:normal;isolation:auto;mix-blend-mode:normal;shape-padding:0;text-decoration-color:#000000;text-decoration-line:none;text-decoration-style:solid;text-indent:0;text-orientation:mixed;text-transform:none;white-space:normal"/><path id="path4300" d="m6.0076 16c-1.0038 0-2.0076 1-2.0076 2v10c0 1 1.0038 2 2.0076 2h20.076c1.0038 0 2.0076-1 2.0076-2v-10c0-1-1.0038-2-2.0076-2zm3.0427 4.5683h14.022c0.5241 0 1.001 0.4764 1.001 1s-0.47686 1-1.001 1h-14.022c-0.54363 0-1.0351-0.52024-1.0351-1s0.48548-1 1.0351-1zm0 4.8181h14.022c0.5241 0 1.001 0.4764 1.001 1s-0.47686 1-1.001 1h-14.022c-0.55339 0-1.0351-0.52024-1.0351-1 0-0.47976 0.44905-1 1.0351-1z" color="#000000" fill-opacity=".50196" style="text-decoration-line:none;text-indent:0;text-transform:none"/></g></g></svg>
