<svg id="svg2" width="10" height="12" version="1.1" xmlns="http://www.w3.org/2000/svg" xmlns:osb="http://www.openswatchbook.org/uri/2009/osb" xmlns:xlink="http://www.w3.org/1999/xlink"><defs id="defs28"><linearGradient id="linearGradient4942"><stop id="stop4944" stop-color="#f60" offset="0"/><stop id="stop4946" stop-color="#de5800" offset="1"/></linearGradient><linearGradient id="linearGradient4257" x1="4" x2="28.091" y1="16.449" y2="16.449" gradientTransform="translate(62.636 -72.272)" gradientUnits="userSpaceOnUse" xlink:href="#linearGradient4942"/><linearGradient id="linearGradient4259" x1="16.045" x2="16.045" y1="8.3184" y2="32.409" gradientTransform="translate(62.636 -72.272)" gradientUnits="userSpaceOnUse" xlink:href="#linearGradient4942"/><linearGradient id="linearGradient4261" x1="18.454" x2="18.454" y1="8.3184" y2="32.409" gradientTransform="translate(62.636 -72.272)" gradientUnits="userSpaceOnUse" xlink:href="#linearGradient4942"/></defs><g id="ic_library_crates" transform="translate(0,-20)"><g id="ic_library_checked" transform="matrix(.4151 0 0 .4151 -1.6604 19.547)"><path id="path8889-9" d="m9.5 16.148s0.012953-5.2998 0-6.8898c-0.012957-1.5904 0.46121-6.3183 6.5-6.3598 6-0.041246 6.4957 4.7695 6.5 7.4198 0.0026 1.59 0 5.8298 0 5.8298" fill="none" stroke="url(#linearGradient4259)" stroke-width="3.6136"/><path id="rect8885-1" d="m6.0076 16c-1.0038 0-2.0076 1-2.0076 2v10c0 1 1.0038 2 2.0076 2h20.076c1.0038 0 2.0076-1 2.0076-2v-10c0-1-1.0038-2-2.0076-2zm3.2826 4.5683h14.022c0.5241 0 1.001 0.4764 1.001 1s-0.47686 1-1.001 1h-14.022c-0.54363 0-1.0351-0.52024-1.0351-1s0.48548-1 1.0351-1zm-0.23991 4.8181h14.022c0.5241 0 1.001 0.4764 1.001 1s-0.47686 1-1.001 1h-14.022c-0.55339 0-1.0351-0.52024-1.0351-1 0-0.47976 0.44905-1 1.0351-1z" color="#000000" fill="url(#linearGradient4261)" style="text-decoration-line:none;text-indent:0;text-transform:none"/></g></g></svg>
