<?xml version="1.0" encoding="UTF-8" standalone="no"?>
<svg
   xmlns:dc="http://purl.org/dc/elements/1.1/"
   xmlns:cc="http://creativecommons.org/ns#"
   xmlns:rdf="http://www.w3.org/1999/02/22-rdf-syntax-ns#"
   xmlns:svg="http://www.w3.org/2000/svg"
   xmlns="http://www.w3.org/2000/svg"
   xmlns:sodipodi="http://sodipodi.sourceforge.net/DTD/sodipodi-0.dtd"
   xmlns:inkscape="http://www.inkscape.org/namespaces/inkscape"
   height="32"
   width="32"
   version="1.1"
   viewBox="0 0 31.999999 31.999998"
   id="svg2"
   inkscape:version="0.48.4 r9939"
   sodipodi:docname="ic_recording_3_32px.svg">
  <metadata
     id="metadata12">
    <rdf:RDF>
      <cc:Work
         rdf:about="">
        <dc:format>image/svg+xml</dc:format>
        <dc:type
           rdf:resource="http://purl.org/dc/dcmitype/StillImage" />
      </cc:Work>
    </rdf:RDF>
  </metadata>
  <defs
     id="defs10" />
  <sodipodi:namedview
     pagecolor="#ffffff"
     bordercolor="#666666"
     borderopacity="1"
     objecttolerance="10"
     gridtolerance="10"
     guidetolerance="10"
     inkscape:pageopacity="0"
     inkscape:pageshadow="2"
     inkscape:window-width="1366"
     inkscape:window-height="746"
     id="namedview8"
     showgrid="false"
     inkscape:zoom="7.375"
     inkscape:cx="-6.1016952"
     inkscape:cy="16.542373"
     inkscape:window-x="0"
     inkscape:window-y="0"
     inkscape:window-maximized="1"
     inkscape:current-layer="svg2" />
  <path
     style="fill:#ff13ed;fill-opacity:1"
     inkscape:connector-curvature="0"
     id="path6"
     d="m 4.515625,6.3749992 c -0.9089501,0 -1.6406251,0.7805 -1.6406251,1.75 l 0,15.7500008 c 0,0.9695 0.7317188,1.75 1.6406251,1.75 l 22.968751,0 c 0.90895,0 1.640625,-0.7805 1.640625,-1.75 l 0,-15.7500008 c 0,-0.9695 -0.731719,-1.75 -1.640625,-1.75 l -3.609375,0 0,3.5000001 -15.7500009,0 0,-3.5000001 -3.6093751,0 z m 5.3593752,0 0,1.75 12.2500008,0 0,-1.75 -12.2500008,0 z M 9.0000001,15.124999 c 1.4497879,0 2.6249999,1.175213 2.6249999,2.625 0,1.449788 -1.175212,2.625001 -2.6249999,2.625001 C 7.5502126,20.375 6.375,19.199787 6.375,17.749999 c 0,-1.449787 1.1752126,-2.625 2.6250001,-2.625 z m 14.0000009,0 c 1.449787,0 2.625,1.175213 2.625,2.625 0,1.449788 -1.175213,2.625001 -2.625,2.625001 -1.449788,0 -2.625,-1.175213 -2.625,-2.625001 0,-1.449787 1.175212,-2.625 2.625,-2.625 z m -9.187501,1.75 4.375,0 c 0.242375,0 0.4375,0.195125 0.4375,0.4375 l 0,0.875 c 0,0.242375 -0.195125,0.4375 -0.4375,0.4375 l -4.375,0 c -0.242375,0 -0.4375,-0.195125 -0.4375,-0.4375 l 0,-0.875 c 0,-0.242375 0.195125,-0.4375 0.4375,-0.4375 z" />
</svg>
