<svg id="svg2" width="32" height="32" version="1.1" viewBox="0 0 32 32" xmlns="http://www.w3.org/2000/svg"><path id="path6" d="m5.9512 7.5781c-0.79533 0-1.4355 0.68294-1.4355 1.5312v13.781c0 0.84831 0.64025 1.5312 1.4355 1.5312h20.098c0.79533 0 1.4355-0.68294 1.4355-1.5312v-13.781c0-0.84831-0.64026-1.5312-1.4355-1.5312h-3.1582v3.0625h-13.781v-3.0625h-3.1582zm4.6895 0v1.5312h10.719v-1.5312h-10.719zm-0.76562 7.6563c1.2686 0 2.2969 1.0283 2.2969 2.2969s-1.0283 2.2969-2.2969 2.2969c-1.2686 0-2.2969-1.0283-2.2969-2.2969s1.0283-2.2969 2.2969-2.2969zm12.25 0c1.2686 0 2.2969 1.0283 2.2969 2.2969s-1.0283 2.2969-2.2969 2.2969-2.2969-1.0283-2.2969-2.2969 1.0283-2.2969 2.2969-2.2969zm-8.0391 1.5312h3.8281c0.21208 0 0.38281 0.17073 0.38281 0.38281v0.76562c0 0.21208-0.17073 0.38281-0.38281 0.38281h-3.8281c-0.21208 0-0.38281-0.17074-0.38281-0.38281v-0.76562c0-0.21208 0.17074-0.38281 0.38281-0.38281z" fill="#ffd615"/></svg>
