<svg xmlns:rdf="http://www.w3.org/1999/02/22-rdf-syntax-ns#" xmlns="http://www.w3.org/2000/svg" version="1.1" xmlns:cc="http://creativecommons.org/ns#" xmlns:dc="http://purl.org/dc/elements/1.1/" viewBox="0 0 18 18">
 <path fill="#848484" d="m9 5.5c-1.932 0-3.5 1.568-3.5 3.5s1.568 3.5 3.5 3.5 3.5-1.568 3.5-3.5-1.568-3.5-3.5-3.5zm0-3.5c-3.8675 0-7 3.1325-7 7s3.1325 7 7 7 7-3.1325 7-7-3.132-7-7-7zm0 12.6c-3.094 0-5.6-2.506-5.6-5.6s2.506-5.6 5.6-5.6 5.6 2.506 5.6 5.6-2.506 5.6-5.6 5.6z"/>
 <path fill="none" d="m0-30h48v48h-48z"/>
</svg>
