<svg xmlns:rdf="http://www.w3.org/1999/02/22-rdf-syntax-ns#" xmlns="http://www.w3.org/2000/svg" height="32" width="32" version="1.1" xmlns:cc="http://creativecommons.org/ns#" xmlns:dc="http://purl.org/dc/elements/1.1/" viewBox="0 0 31.999999 31.999998">
 <g transform="translate(0 -1020.4)">
  <path d="m2.875 1025.4c-1.0388 0-1.875 0.892-1.875 2v18c0 1.108 0.83625 2 1.875 2h26.25c1.0388 0 1.875-0.892 1.875-2v-18c0-1.108-0.83625-2-1.875-2h-4.125v4h-18v-4h-4.125zm6.125 0v2h14v-2h-14zm-1 10c1.6569 0 3 1.3431 3 3s-1.3431 3-3 3-3-1.3431-3-3 1.3431-3 3-3zm16 0c1.6569 0 3 1.3431 3 3s-1.3431 3-3 3-3-1.3431-3-3 1.3431-3 3-3zm-10.5 2h5c0.277 0 0.5 0.223 0.5 0.5v1c0 0.277-0.223 0.5-0.5 0.5h-5c-0.277 0-0.5-0.223-0.5-0.5v-1c0-0.277 0.223-0.5 0.5-0.5z" fill="#848484"/>
 </g>
</svg>
