<svg version="1.1" viewBox="0 0 48 48" xmlns="http://www.w3.org/2000/svg"><path d="m38.86 25.95c0.08-0.64 0.14-1.29 0.14-1.95s-0.06-1.31-0.14-1.95l4.23-3.31c0.38-0.3 0.49-0.84 0.24-1.28l-4-6.93c-0.25-0.43-0.77-0.61-1.22-0.43l-4.98 2.01c-1.03-0.79-2.16-1.46-3.38-1.97l-0.75-5.3c-0.09-0.47-0.5-0.84-1-0.84h-8c-0.5 0-0.91 0.37-0.99 0.84l-0.75 5.3c-1.22 0.51-2.35 1.17-3.38 1.97l-4.98-2.01c-0.45-0.17-0.97 0-1.22 0.43l-4 6.93c-0.25 0.43-0.14 0.97 0.24 1.28l4.22 3.31c-0.08 0.64-0.14 1.29-0.14 1.95s0.06 1.31 0.14 1.95l-4.22 3.31c-0.38 0.3-0.49 0.84-0.24 1.28l4 6.93c0.25 0.43 0.77 0.61 1.22 0.43l4.98-2.01c1.03 0.79 2.16 1.46 3.38 1.97l0.75 5.3c0.08 0.47 0.49 0.84 0.99 0.84h8c0.5 0 0.91-0.37 0.99-0.84l0.75-5.3c1.22-0.51 2.35-1.17 3.38-1.97l4.98 2.01c0.45 0.17 0.97 0 1.22-0.43l4-6.93c0.25-0.43 0.14-0.97-0.24-1.28l-4.22-3.31zm-14.86 5.05c-3.87 0-7-3.13-7-7s3.13-7 7-7 7 3.13 7 7-3.13 7-7 7z" fill="#d2d2d2"/></svg>
