<svg id="svg2" width="48" height="48" version="1.1" viewBox="0 0 48 48" xmlns="http://www.w3.org/2000/svg"><path id="path4" d="m0 0h48v48h-48z" fill="none"/><path id="path6" d="m24 7c-4.356 0-8.712 1.6576-12.027 4.973-6.6304 6.63-6.6304 17.424 0 24.054 6.63 6.63 17.424 6.63 24.054 0 0.368-0.368 0.708-0.752 1.035-1.144 0.273-0.327 0.522-0.666 0.766-1.008 0.058-0.082 0.121-0.161 0.178-0.244 0.26-0.378 0.497-0.765 0.723-1.158 0.018-0.032 0.038-0.064 0.056-0.096 0.24-0.424 0.458-0.856 0.658-1.295 2.869-6.278 1.743-13.951-3.416-19.109-3.315-3.3154-7.671-4.973-12.027-4.973zm7.555 5.205c0.831 0.535 1.623 1.16 2.351 1.889 0.73 0.73 1.355 1.524 1.891 2.357l-4.434 4.432c-0.811-1.902-2.338-3.432-4.24-4.244l4.432-4.434zm-7.555 6.795c2.779 0 5 2.221 5 5 0 1.02-0.304 1.961-0.82 2.748-0.029 0.043-0.058 0.085-0.088 0.127-0.13 0.185-0.275 0.357-0.428 0.521-0.043 0.046-0.08 0.094-0.125 0.139-0.04 0.041-0.084 0.075-0.125 0.113-0.183 0.171-0.373 0.335-0.58 0.477-0.014 0.01-0.029 0.021-0.043 0.031-0.795 0.533-1.754 0.844-2.791 0.844-1.026 0-1.973-0.306-2.764-0.828-0.051-0.035-0.1-0.076-0.15-0.113-0.148-0.106-0.285-0.223-0.42-0.344-0.066-0.06-0.133-0.116-0.197-0.18-0.066-0.066-0.124-0.136-0.186-0.205-0.116-0.129-0.228-0.261-0.33-0.402-0.042-0.057-0.088-0.112-0.127-0.17-0.52-0.789-0.826-1.734-0.826-2.758s0.306-1.969 0.826-2.758c0.039-0.058 0.085-0.113 0.127-0.17 0.102-0.141 0.214-0.273 0.33-0.402 0.062-0.069 0.12-0.139 0.186-0.205 0.076-0.076 0.157-0.141 0.236-0.211 0.119-0.104 0.237-0.208 0.365-0.301 0.074-0.054 0.148-0.107 0.223-0.156 0.779-0.5 1.704-0.797 2.707-0.797z" fill="#d2d2d2"/></svg>
