<svg width="48" height="48" version="1.1" viewBox="0 0 48 48" xmlns="http://www.w3.org/2000/svg">
  <g fill="#d2d2d2" stroke-width="2">
    <path d="m8.7268032 19.806711 10.5763528-11.8486612 5.14719 14.0892302z"/>
    <path d="m25.84375 12.128906c-1.676032-0.03446-3.38045 0.237296-5.035156 0.84375a2 2 0 0 0-1.191406 2.566406 2 2 0 0 0 2.566406 1.187501c4.737332-1.736247 9.98296 0.347021 12.257812 4.878905 2.274854 4.531888 0.817222 10.017082-3.39453 12.804688-4.211754 2.787606-9.79026 1.971746-13.04297-1.910156a2 2 0 0 0-2.816406-0.246094 2 2 0 0 0-0.25 2.816406c4.533639 5.410612 12.435802 6.56794 18.316406 2.675782 5.880606-3.892158 7.929914-11.62202 4.761718-17.933594-2.376146-4.733679-7.143776-7.580211-12.171874-7.683594z" color="#000000" stroke-linecap="round" stroke-linejoin="round" style="-inkscape-stroke:none;paint-order:fill markers stroke"/>
  </g>
</svg>
