<?xml version="1.0" encoding="UTF-8" standalone="no"?>
<svg
   xmlns:dc="http://purl.org/dc/elements/1.1/"
   xmlns:cc="http://creativecommons.org/ns#"
   xmlns:rdf="http://www.w3.org/1999/02/22-rdf-syntax-ns#"
   xmlns:svg="http://www.w3.org/2000/svg"
   xmlns="http://www.w3.org/2000/svg"
   xmlns:sodipodi="http://sodipodi.sourceforge.net/DTD/sodipodi-0.dtd"
   xmlns:inkscape="http://www.inkscape.org/namespaces/inkscape"
   height="32"
   width="32"
   version="1.1"
   viewBox="0 0 31.999999 31.999998"
   id="svg2"
   inkscape:version="0.91 r13725"
   sodipodi:docname="ic_vinylcontrol_32px.svg">
  <metadata
     id="metadata12">
    <rdf:RDF>
      <cc:Work
         rdf:about="">
        <dc:format>image/svg+xml</dc:format>
        <dc:type
           rdf:resource="http://purl.org/dc/dcmitype/StillImage" />
      </cc:Work>
    </rdf:RDF>
  </metadata>
  <defs
     id="defs10" />
  <sodipodi:namedview
     pagecolor="#ffffff"
     bordercolor="#666666"
     borderopacity="1"
     objecttolerance="10"
     gridtolerance="10"
     guidetolerance="10"
     inkscape:pageopacity="0"
     inkscape:pageshadow="2"
     inkscape:window-width="1366"
     inkscape:window-height="702"
     id="namedview8"
     showgrid="false"
     inkscape:zoom="7.375"
     inkscape:cx="16.813559"
     inkscape:cy="16.542373"
     inkscape:window-x="0"
     inkscape:window-y="27"
     inkscape:window-maximized="1"
     inkscape:current-layer="svg2" />
  <path
     inkscape:connector-curvature="0"
     id="path6"
     d="M 16,2 C 8.32,2 2,8.32 2,16 2,23.6801 8.32,30 16,30 23.68,30 30,23.6801 30,16 30,8.32 23.68,2 16,2 Z m 0,8.7773 c 2.9365,0 5.2227,2.2862 5.2227,5.2227 0,2.9366 -2.2861,5.2227 -5.2227,5.2227 -2.9365,0 -5.2227,-2.2861 -5.2227,-5.2227 0,-2.9365 2.2861,-5.2227 5.2227,-5.2227 z m 0,2.5528 c -1.4665,0 -2.6699,1.2035 -2.6699,2.6699 0,1.4665 1.2034,2.6699 2.6699,2.6699 1.4665,0 2.6699,-1.2034 2.6699,-2.6699 0,-1.4664 -1.2035,-2.6699 -2.6699,-2.6699 z"
     style="color:#000000;text-indent:0;text-decoration:none;text-decoration-line:none;text-decoration-style:solid;text-decoration-color:#000000;text-transform:none;block-progression:tb;white-space:normal;isolation:auto;mix-blend-mode:normal;solid-color:#000000;fill:#d2d2d2;color-rendering:auto;image-rendering:auto;shape-rendering:auto;fill-opacity:1" />
</svg>
