<svg xmlns:rdf="http://www.w3.org/1999/02/22-rdf-syntax-ns#" xmlns="http://www.w3.org/2000/svg" height="32" width="32" version="1.1" xmlns:cc="http://creativecommons.org/ns#" xmlns:dc="http://purl.org/dc/elements/1.1/" viewBox="0 0 31.999999 31.999998">
 <g transform="translate(0 -1020.4)">
  <path style="color-rendering:auto;text-decoration-color:#000000;color:#000000;isolation:auto;mix-blend-mode:normal;shape-rendering:auto;solid-color:#000000;block-progression:tb;text-decoration-line:none;text-decoration-style:solid;image-rendering:auto;white-space:normal;text-indent:0;text-transform:none" d="m16 1022.4c-7.68 0-14 6.32-14 14 0 7.6801 6.32 14 14 14s14-6.3199 14-14c0-7.68-6.32-14-14-14zm0 8.7773c2.9365 0 5.2227 2.2862 5.2227 5.2227 0 2.9366-2.2861 5.2227-5.2227 5.2227-2.9365 0-5.2227-2.2861-5.2227-5.2227 0-2.9365 2.2861-5.2227 5.2227-5.2227zm0 2.5528c-1.4665 0-2.6699 1.2035-2.6699 2.6699 0 1.4665 1.2034 2.6699 2.6699 2.6699s2.6699-1.2034 2.6699-2.6699c0-1.4664-1.2035-2.6699-2.6699-2.6699z" fill="#848484"/>
 </g>
</svg>
