<svg id="svg2" width="32" height="32" version="1.1" viewBox="0 0 32 32" xmlns="http://www.w3.org/2000/svg"><path id="path6" d="m16 2c-7.68 0-14 6.32-14 14 0 7.6801 6.32 14 14 14s14-6.3199 14-14c0-7.68-6.32-14-14-14zm0 8.7773c2.9365 0 5.2227 2.2862 5.2227 5.2227 0 2.9366-2.2861 5.2227-5.2227 5.2227-2.9365 0-5.2227-2.2861-5.2227-5.2227 0-2.9365 2.2861-5.2227 5.2227-5.2227zm0 2.5528c-1.4665 0-2.6699 1.2035-2.6699 2.6699 0 1.4665 1.2034 2.6699 2.6699 2.6699s2.6699-1.2034 2.6699-2.6699c0-1.4664-1.2035-2.6699-2.6699-2.6699z" color="#000000" color-rendering="auto" fill="#f00" image-rendering="auto" shape-rendering="auto" solid-color="#000000" style="block-progression:tb;isolation:auto;mix-blend-mode:normal;text-decoration-color:#000000;text-decoration-line:none;text-decoration-style:solid;text-indent:0;text-transform:none;white-space:normal"/></svg>
