<svg id="svg2" width="32" height="32" version="1.1" viewBox="0 0 32 32" xmlns="http://www.w3.org/2000/svg"><path id="path6" d="m16 3.75c-6.72 0-12.25 5.53-12.25 12.25 0 6.7201 5.53 12.25 12.25 12.25 6.72 0 12.25-5.5299 12.25-12.25 0-6.72-5.53-12.25-12.25-12.25zm0 7.6801c2.5694 0 4.5699 2.0004 4.5699 4.5699 0 2.5695-2.0003 4.5699-4.5699 4.5699-2.5694 0-4.5699-2.0003-4.5699-4.5699 0-2.5694 2.0003-4.5699 4.5699-4.5699zm0 2.2337c-1.2832 0-2.3362 1.0531-2.3362 2.3362 0 1.2832 1.053 2.3362 2.3362 2.3362 1.2832 0 2.3362-1.053 2.3362-2.3362 0-1.2831-1.0531-2.3362-2.3362-2.3362z" color="#000000" fill="#d2d2d2" style="block-progression:tb;text-indent:0;text-transform:none"/></svg>
