<!-- Created with Inkscape (http://www.inkscape.org/) -->
<svg id="svg2" width="48" height="24" version="1.1" xmlns="http://www.w3.org/2000/svg"><g id="layer1" transform="translate(0,-4)" display="none" opacity=".32867"><rect id="rect3186" x="21.5" y="2.25" width="5" height="23.5" rx="2" ry="2" fill="#0872e8" stroke="#000" stroke-width=".5"/></g><path id="path4111" d="m3 4h2v16h-2z" fill="#828282"/><path id="path4109" d="m7 7.8559h2v12.144h-2z" fill="#828282"/><path id="path4107" d="m11 11h2v9h-2z" fill="#828282"/><path id="path4105" d="m15 12.763h2v7.2373h-2z" fill="#828282"/><path id="path15" d="m19 13.428h2v6.572h-2z" fill="#828282"/><path id="path17" d="m23 4h2v17h-2z" fill="#828282"/><path id="path4111-6" d="m45 4h-2v16h2z" fill="#828282"/><path id="path4109-7" d="m41 7.8559h-2v12.144h2z" fill="#828282"/><path id="path4107-5" d="m37 11h-2v9h2z" fill="#828282"/><path id="path4105-3" d="m33 12.763h-2v7.2373h2z" fill="#828282"/><path id="path15-5" d="m29 13.428h-2v6.572h2z" fill="#828282"/></svg>
