<?xml version="1.0" encoding="UTF-8" standalone="no"?>
<!-- Created with Inkscape (http://www.inkscape.org/) -->

<svg
   xmlns:dc="http://purl.org/dc/elements/1.1/"
   xmlns:cc="http://creativecommons.org/ns#"
   xmlns:rdf="http://www.w3.org/1999/02/22-rdf-syntax-ns#"
   xmlns:svg="http://www.w3.org/2000/svg"
   xmlns="http://www.w3.org/2000/svg"
   version="1.1"
   width="48"
   height="24"
   id="svg2">
  <metadata
     id="metadata23">
    <rdf:RDF>
      <cc:Work
         rdf:about="">
        <dc:format>image/svg+xml</dc:format>
        <dc:type
           rdf:resource="http://purl.org/dc/dcmitype/StillImage" />
        <dc:title></dc:title>
      </cc:Work>
    </rdf:RDF>
  </metadata>
  <defs
     id="defs4">
    <linearGradient
       id="a">
      <stop
         id="stop7"
         style="stop-color:#002464;stop-opacity:1"
         offset="0" />
      <stop
         id="stop9"
         style="stop-color:#0872e9;stop-opacity:1"
         offset="0.18000001" />
      <stop
         id="stop11"
         style="stop-color:#0872e9;stop-opacity:1"
         offset="0.81819808" />
      <stop
         id="stop13"
         style="stop-color:#002f64;stop-opacity:1"
         offset="1" />
    </linearGradient>
  </defs>
  <g
     transform="translate(0,-4)"
     id="layer1"
     style="opacity:0.32867132;display:none">
    <rect
       width="5"
       height="23.5"
       rx="2"
       ry="1.9999999"
       x="21.5"
       y="2.25"
       id="rect3186"
       style="fill:#0872e8;stroke:#000000;stroke-width:0.5" />
  </g>
  <path
     d="m 3,4.0000205 2,0 0,15.9999805 -2,0 z"
     id="path4111"
     style="fill:#828282;fill-opacity:1" />
  <path
     d="m 7,7.8559376 2,0 0,12.1440634 -2,0 z"
     id="path4109"
     style="fill:#828282;fill-opacity:1" />
  <path
     d="m 11,11.000021 2,0 0,8.99998 -2,0 z"
     id="path4107"
     style="fill:#828282;fill-opacity:1" />
  <path
     d="m 15,12.762743 2,0 0,7.237256 -2,0 z"
     id="path4105"
     style="fill:#828282;fill-opacity:1" />
  <path
     d="m 19,13.427979 2,0 L 21,20 19,20 z"
     id="path15"
     style="fill:#828282;fill-opacity:1" />
  <path
     d="m 23,4.0000205 2,0 0,16.9999805 -2,0 z"
     id="path17"
     style="fill:#828282;fill-opacity:1" />
  <path
     d="m 45,4.0000205 -2,0 0,15.9999805 2,0 z"
     id="path4111-6"
     style="fill:#828282;fill-opacity:1" />
  <path
     d="m 41,7.8559376 -2,0 0,12.1440634 2,0 z"
     id="path4109-7"
     style="fill:#828282;fill-opacity:1" />
  <path
     d="m 37,11.000021 -2,0 0,8.99998 2,0 z"
     id="path4107-5"
     style="fill:#828282;fill-opacity:1" />
  <path
     d="m 33,12.762743 -2,0 0,7.237256 2,0 z"
     id="path4105-3"
     style="fill:#828282;fill-opacity:1" />
  <path
     d="m 29,13.427979 -2,0 L 27,20 l 2,0 z"
     id="path15-5"
     style="fill:#828282;fill-opacity:1" />
</svg>
