<!-- Created with Inkscape (http://www.inkscape.org/) -->
<svg id="svg3221" width="60" height="24" version="1.1" xmlns="http://www.w3.org/2000/svg"><path id="rect3270" d="m18.618 11h21.382v2h-21.382z" color="#000000" fill="#ccc"/><g id="g3252" transform="translate(-12.771 -.333)" fill="#828282"><path id="path3254" d="m61.771 4.333-5 5v6l5 5h1v-16zm-9 5h3v6h-3zm12.448-3.7607-0.38184 1.022c2.3565 0.84629 4.043 3.0899 4.043 5.7388 0 2.6365-1.67 4.8721-4.0093 5.7275l0.3706 1.022c2.7501-1.0099 4.7168-3.6506 4.7168-6.7495 0-3.1078-1.9768-5.7574-4.7393-6.7607z"/><path id="path3256" d="m64.478 7.605-0.37061 1.0107c1.5224 0.5493 2.6167 2.0054 2.6167 3.7173 0 1.6992-1.0782 3.1476-2.583 3.7061l0.35938 1.0107c1.9262-0.70475 3.3018-2.5465 3.3018-4.7168 0-2.1792-1.3856-4.0298-3.3242-4.728z"/></g><g id="g4040" transform="translate(.30633 -.0031237)" fill="#888"><path id="path3258" d="m4.8961 13.604 2.5663-0.47851c0.40621-0.0757 0.7942 0.19031 0.86993 0.5965l0.88862 4.766c0.07574 0.4062-0.19031 0.79412-0.59651 0.86991l-2.5663 0.47842c-0.40621 0.075705-0.7942-0.19031-0.86993-0.5965l-0.88862-4.7659c-0.07574-0.4062 0.19031-0.7942 0.59651-0.86991z"/><path id="path3260" d="m11.943 4.157c-4.1679 0-7.5635 3.3955-7.5635 7.5634 0 0.4765 0.043482 0.935 0.12819 1.3868 0.3607 1.9641 0.73409 3.9258 1.1188 5.8853l1.6432-0.31465c-0.35478-2.0052-0.8343-4.137-1.1188-5.9785-0.054995-0.32066-0.093232-0.63984-0.093232-0.97894 0-3.2608 2.6245-5.8853 5.8853-5.8853 3.2608 0 5.8853 2.6245 5.8853 5.8853 0 0.3391-0.03823 0.65828-0.09323 0.97894-0.28449 1.8415-0.764 3.9733-1.1188 5.9785l1.6432 0.31465c0.3847-1.9595 0.75808-3.9212 1.1188-5.8853 0.08471-0.45179 0.1282-0.91028 0.1282-1.3868 0-4.1679-3.3956-7.5634-7.5635-7.5634z" color="#000000" style="block-progression:tb;text-indent:0;text-transform:none"/><path id="path3262" d="m18.99 13.604-2.5663-0.47851c-0.4062-0.0757-0.7942 0.19031-0.86994 0.5965l-0.88862 4.766c-0.07574 0.4062 0.1903 0.7942 0.59651 0.86991l2.5663 0.47851c0.40621 0.0757 0.7942-0.19031 0.86993-0.59659l0.88862-4.766c0.07574-0.40611-0.19031-0.79412-0.59651-0.86982z"/></g></svg>
