<?xml version="1.0" encoding="UTF-8" standalone="no"?>
<!-- Created with Inkscape (http://www.inkscape.org/) -->

<svg
   xmlns:dc="http://purl.org/dc/elements/1.1/"
   xmlns:cc="http://creativecommons.org/ns#"
   xmlns:rdf="http://www.w3.org/1999/02/22-rdf-syntax-ns#"
   xmlns:svg="http://www.w3.org/2000/svg"
   xmlns="http://www.w3.org/2000/svg"
   version="1.1"
   width="60"
   height="24"
   id="svg3221">
  <metadata
     id="metadata3268">
    <rdf:RDF>
      <cc:Work
         rdf:about="">
        <dc:format>image/svg+xml</dc:format>
        <dc:type
           rdf:resource="http://purl.org/dc/dcmitype/StillImage" />
        <dc:title></dc:title>
      </cc:Work>
    </rdf:RDF>
  </metadata>
  <defs
     id="defs3223">
    <linearGradient
       id="a">
      <stop
         id="stop3226"
         style="stop-color:#002464;stop-opacity:1"
         offset="0" />
      <stop
         id="stop3228"
         style="stop-color:#0872e9;stop-opacity:1"
         offset="0.18000001" />
      <stop
         id="stop3230"
         style="stop-color:#0872e9;stop-opacity:1"
         offset="0.81819808" />
      <stop
         id="stop3232"
         style="stop-color:#002f64;stop-opacity:1"
         offset="1" />
    </linearGradient>
    <linearGradient
       id="b">
      <stop
         id="stop3235"
         style="stop-color:#002464;stop-opacity:1"
         offset="0" />
      <stop
         id="stop3237"
         style="stop-color:#0872e9;stop-opacity:1"
         offset="0.18000001" />
      <stop
         id="stop3239"
         style="stop-color:#0872e9;stop-opacity:1"
         offset="0.81819808" />
      <stop
         id="stop3241"
         style="stop-color:#002f64;stop-opacity:1"
         offset="1" />
    </linearGradient>
    <linearGradient
       id="c">
      <stop
         id="stop3244"
         style="stop-color:#002464;stop-opacity:1"
         offset="0" />
      <stop
         id="stop3246"
         style="stop-color:#0872e9;stop-opacity:1"
         offset="0.18000001" />
      <stop
         id="stop3248"
         style="stop-color:#0872e9;stop-opacity:1"
         offset="0.81819808" />
      <stop
         id="stop3250"
         style="stop-color:#002f64;stop-opacity:1"
         offset="1" />
    </linearGradient>
  </defs>
  <path
     d="M 18.61783,11 40,11 l 0,2 -21.38217,0 z"
     id="rect3270"
     style="color:#000000;fill:#cccccc;fill-opacity:1;fill-rule:nonzero;stroke:none;stroke-width:2;marker:none;visibility:visible;display:inline;overflow:visible;enable-background:accumulate" />
  <g
     transform="translate(-12.770834,-0.333)"
     id="g3252"
     style="fill:#828282">
    <path
       d="m 61.770834,4.333 -5,5 0,6 5,5 1,0 0,-16 z m -9,5 3,0 0,6 -3,0 z M 65.219076,5.5722578 64.83724,6.5942304 c 2.356532,0.8462872 4.042969,3.0898733 4.042969,5.7387696 0,2.636515 -1.670047,4.872144 -4.009277,5.727539 l 0.370605,1.021973 c 2.750087,-1.009861 4.716797,-3.650564 4.716797,-6.749512 0,-3.1078189 -1.976799,-5.7573737 -4.739258,-6.7607422 z"
       id="path3254" />
    <path
       d="M 64.477866,7.6049726 64.10726,8.6157148 c 1.522382,0.5493019 2.616699,2.0054452 2.616699,3.7172852 0,1.699231 -1.078221,3.147575 -2.583008,3.706055 l 0.359375,1.010742 c 1.92618,-0.70475 3.301758,-2.546496 3.301758,-4.716797 0,-2.179206 -1.385615,-4.029802 -3.324218,-4.7280274 z"
       id="path3256" />
  </g>
  <g
     transform="translate(0.30632784,-0.0031237)"
     id="g4040">
    <path
       d="m 4.8960504,13.603981 2.5662813,-0.478506 c 0.4062058,-0.0757 0.7941962,0.190306 0.8699349,0.596501 l 0.8886227,4.766008 c 0.07574,0.406195 -0.1903053,0.794117 -0.5965119,0.869908 l -2.5662805,0.47842 C 5.6518912,19.912017 5.2639007,19.646006 5.188162,19.23981 L 4.2995385,14.47389 c -0.07574,-0.406195 0.1903061,-0.794204 0.5965119,-0.869909 z"
       id="path3258"
       style="fill:#888888" />
    <path
       d="m 11.943096,4.1569826 c -4.167906,0 -7.5634792,3.3954897 -7.5634792,7.5634294 0,0.476505 0.043482,0.934997 0.1281942,1.386789 0.3607046,1.964148 0.7340901,3.925772 1.1187887,5.885307 l 1.6432218,-0.314653 c -0.3547839,-2.00522 -0.8342963,-4.136962 -1.1187896,-5.978502 -0.054995,-0.320658 -0.093232,-0.639836 -0.093232,-0.978941 0,-3.2607876 2.6244966,-5.8853069 5.8852961,-5.8853069 3.2608,0 5.885297,2.6245193 5.885297,5.8853069 0,0.339105 -0.03823,0.658283 -0.09323,0.978941 -0.284492,1.84154 -0.764005,3.973282 -1.118788,5.978502 l 1.643221,0.314653 c 0.384699,-1.959535 0.758084,-3.921159 1.118789,-5.885307 0.08471,-0.451792 0.128195,-0.910284 0.128195,-1.386789 0,-4.1679397 -3.395574,-7.5634294 -7.563481,-7.5634294 z"
       id="path3260"
       style="font-weight:400;text-indent:0;text-align:start;line-height:normal;text-transform:none;block-progression:tb;color:#000000;fill:#888888;marker:none;overflow:visible;font-family:Sans;-inkscape-font-specification:Sans" />
    <path
       d="m 18.990143,13.603981 -2.566282,-0.478506 c -0.406205,-0.0757 -0.794196,0.190306 -0.869935,0.596501 l -0.888622,4.766008 c -0.07574,0.406195 0.190305,0.794204 0.596512,0.869908 l 2.56628,0.478507 c 0.406206,0.0757 0.794196,-0.190306 0.869934,-0.596589 l 0.888625,-4.766007 c 0.07574,-0.406108 -0.190307,-0.794117 -0.596512,-0.869822 z"
       id="path3262"
       style="fill:#888888" />
  </g>
</svg>
