<svg width="54" height="24" version="1.1" xmlns="http://www.w3.org/2000/svg" xmlns:xlink="http://www.w3.org/1999/xlink"><defs><linearGradient id="a" x1="9.9857" x2="48.014" y1="12" y2="12" gradientUnits="userSpaceOnUse"><stop stop-color="#ccc" offset="0"/><stop stop-color="#ccc" stop-opacity=".98824" offset=".8"/><stop stop-color="#fff" stop-opacity=".98039" offset="1"/></linearGradient></defs><path d="m17.618 11h21.382v2h-21.382z" color="#000000" fill="#ccc"/><path d="m48 4-5 5v6l5 5h1v-16zm-9 5h3v6h-3z" fill="#828282"/><path d="m4.4389 14.393 2.2407-.4178c.35467-.0661.69343.16616.75955.52082l.77587 4.1613c.06613.35466-.16616.69336-.52082.75953l-2.2407.41772c-.35467.066095-.69343-.16616-.75955-.52082l-.77587-4.1612c-.06613-.35466.16616-.69343.52082-.75953z" fill="#888"/><path d="m11.249 4.1539c-4.1679 0-7.5635 3.3955-7.5635 7.5634 0 .4765.043482.935.12819 1.3868.3607 1.9641.73409 3.9258 1.1188 5.8853l1.6432-.31465c-.35478-2.0052-.8343-4.137-1.1188-5.9785-.054995-.32066-.093232-.63984-.093232-.97894 0-3.2608 2.6245-5.8853 5.8853-5.8853 3.2608 0 5.8853 2.6245 5.8853 5.8853 0 .3391-.03823.65828-.09323.97894-.28449 1.8415-.764 3.9733-1.1188 5.9785l1.6432.31465c.3847-1.9595.75808-3.9212 1.1188-5.8853.08471-.45179.1282-.91028.1282-1.3868 0-4.1679-3.3956-7.5634-7.5635-7.5634z" color="#000000" fill="#888" style="text-indent:0;text-transform:none"/><path d="m11 12h36" fill="none" stroke="url(#a)" stroke-linecap="round" stroke-width="2"/><path d="m18.2 14.393-2.2407-.4178c-.35467-.0661-.69343.16616-.75955.52082l-.77587 4.1613c-.06613.35466.16616.69336.52082.75953l2.2407.41772c.35467.0661.69343-.16616.75955-.52082l.77587-4.1612c.06613-.35466-.16616-.69343-.52082-.75953z" fill="#888"/></svg>
