<svg width="54" height="24" version="1.1" xmlns="http://www.w3.org/2000/svg" xmlns:xlink="http://www.w3.org/1999/xlink"><defs><linearGradient id="a"><stop stop-color="#88888f" offset="0"/><stop stop-color="#ccc" offset="1"/></linearGradient><linearGradient id="c" x1="11" x2="11" y1="14" y2="19" gradientTransform="translate(36)" gradientUnits="userSpaceOnUse" xlink:href="#a"/><linearGradient id="b" x1="11.49" x2="11.49" y1="14" y2="19" gradientUnits="userSpaceOnUse" xlink:href="#a"/></defs><path d="m47 2-5 5v4l5 5h1v-14zm-9 5h3v4h-3z" fill="#828282"/><path d="m12 19 34-1e-4" fill="none" stroke="#ccc" stroke-linecap="round" stroke-width="2"/><g transform="matrix(.92491 0 0 .92491 .84463 .051507)" fill="#888" stroke-width="1.0812"><path d="m4.4389 12.393 2.2407-.4178c.35467-.0661.69343.16616.75955.52082l.77587 4.1613c.06613.35466-.16616.69336-.52082.75953l-2.2407.41772c-.35467.066095-.69343-.16616-.75955-.52082l-.77587-4.1612c-.06613-.35466.16616-.69343.52082-.75953z"/><path d="m11.249 2.1539c-4.1679 0-7.5635 3.3955-7.5635 7.5634 0 .4765.043482.935.12819 1.3868.3607 1.9641.73409 3.9258 1.1188 5.8853l1.6432-.31465c-.35478-2.0052-.8343-4.137-1.1188-5.9785-.054995-.32066-.093232-.63984-.093232-.97894 0-3.2608 2.6245-5.8853 5.8853-5.8853s5.8853 2.6245 5.8853 5.8853c0 .3391-.03823.65828-.09323.97894-.28449 1.8415-.764 3.9733-1.1188 5.9785l1.6432.31465c.3847-1.9595.75808-3.9212 1.1188-5.8853.08471-.45179.1282-.91028.1282-1.3868 0-4.1679-3.3956-7.5634-7.5635-7.5634z" color="#000000" style="text-indent:0;text-transform:none"/><path d="m18.2 12.393-2.2407-.4178c-.35467-.0661-.69343.16616-.75955.52082l-.77587 4.1613c-.06613.35466.16616.69336.52082.75953l2.2407.41772c.35467.0661.69343-.16616.75955-.52082l.77587-4.1612c.06613-.35466-.16616-.69343-.52082-.75953z"/></g><path d="m11 14h1v5h-1z" fill="url(#b)" style="paint-order:markers stroke fill"/><path d="m46 14h1v5h-1z" fill="url(#c)" style="paint-order:markers stroke fill"/></svg>
