<svg xmlns:rdf="http://www.w3.org/1999/02/22-rdf-syntax-ns#" xmlns="http://www.w3.org/2000/svg" height="30" width="30" version="1.1" xmlns:cc="http://creativecommons.org/ns#" xmlns:dc="http://purl.org/dc/elements/1.1/">
 <metadata>
  <rdf:RDF>
   <cc:Work rdf:about="">
    <dc:format>image/svg+xml</dc:format>
    <dc:type rdf:resource="http://purl.org/dc/dcmitype/StillImage"/>
    <dc:title/>
   </cc:Work>
  </rdf:RDF>
 </metadata>
 <defs></defs>
 <path d="M13.407647,3.6736275c0-0.8601562,0.531797-1.61175,1.59375-1.61175,1.011975,0,1.59375,0.7435969,1.59375,1.61175l-0.00046,5.3532111c-0.0038,0.9861394-0.640153,1.6139084-1.593656,1.6139084s-1.59375-0.616528-1.59375-1.6139084,0.0014,1.7194294,0.000366-5.3532111z" stroke="#0f0f0f" stroke-miterlimit="4" stroke-dasharray="none" stroke-width="1.8" fill="#41b5ff"/>
 <path fill="#41b5ff" d="m13.407647,3.673628c0-0.8601562,0.531797-1.61175,1.59375-1.61175,1.011975,0,1.59375,0.7435969,1.59375,1.61175l-0.00046,5.3532111c-0.0038,0.9861389-0.640153,1.6139089-1.593656,1.6139089s-1.59375-0.616528-1.59375-1.6139089c0,0,0.0014,1.7194289,0.000366-5.3532111z"/>
</svg>
