<svg xmlns="http://www.w3.org/2000/svg" height="30" width="30"><defs><linearGradient id="a" y2="628.41626" gradientUnits="userSpaceOnUse" y1="621.81409" gradientTransform="matrix(1.06872 0 0 .85 -200.40336 -522.80407)" x2="202.48849" x1="202.48863"><stop stop-color="#ffb401" offset="0"/><stop stop-color="#c68c00" offset="1"/></linearGradient></defs><path d="M13.418629 3.7517404c0-.8542242.528129-1.6006345 1.582758-1.6006345 1.004996 0 1.582759.7384686 1.582759 1.6006345l-.000456 5.3162923c-.0037.9793383-.635739 1.6027783-1.582666 1.6027783s-1.582759-.612277-1.582759-1.6027783c0 0 .0014 1.7075713.000364-5.3162923z" stroke="#333" stroke-width="3" fill="none"/><path fill="url(#a)" d="M13.418629 3.7517404c0-.8542241.528129-1.6006345 1.582758-1.6006345 1.004996 0 1.582759.7384687 1.582759 1.6006345l-.000456 5.3162924c-.0037.9793382-.635739 1.6027782-1.582666 1.6027782s-1.582758-.612277-1.582758-1.6027782c0 0 .0014 1.7075712.000363-5.3162924z"/></svg>