<svg xmlns="http://www.w3.org/2000/svg" height="30" width="30"><defs><linearGradient id="a" y2="628.41626" gradientUnits="userSpaceOnUse" x2="202.48849" gradientTransform="matrix(1.06872 0 0 .85 -200.40336 -522.80407)" y1="623.47784" x1="202.49004"><stop stop-color="#e90808" offset="0"/><stop stop-color="#b60000" offset="1"/></linearGradient></defs><path d="M13.418629 3.2229606c0-.919507.528129-1.7229606 1.582758-1.7229606 1.004996 0 1.582759.794905 1.582759 1.7229606l-.000456 5.722582c-.0037 1.0541831-.635739 1.7252684-1.582666 1.7252684s-1.582759-.659069-1.582759-1.7252684c0 0 .0014 1.8380704.000364-5.722582z" stroke="#333" stroke-width="3" fill="none"/><path fill="url(#a)" d="M13.417241 2.0441702c0-.8542241.52813-1.60063448 1.582759-1.60063448 1.004996 0 1.582759.73846858 1.582759 1.60063448 0 2.4358934.000931 7.0238636.000931 7.0238636-.0037.9793372-.635739 1.6027772-1.582666 1.6027772s-1.582758-.612276-1.582758-1.6027772c-.0065-3.646685-.000932-3.609034-.000932-7.0238636z"/></svg>