<svg xmlns:rdf="http://www.w3.org/1999/02/22-rdf-syntax-ns#" xmlns="http://www.w3.org/2000/svg" height="26" width="26" version="1.1" xmlns:cc="http://creativecommons.org/ns#" xmlns:dc="http://purl.org/dc/elements/1.1/">
 <metadata>
  <rdf:RDF>
   <cc:Work rdf:about="">
    <dc:format>image/svg+xml</dc:format>
    <dc:type rdf:resource="http://purl.org/dc/dcmitype/StillImage"/>
    <dc:title/>
   </cc:Work>
  </rdf:RDF>
 </metadata>
 <path d="M11.447456,3.7849118c0-0.8386523,0.518501-1.5714562,1.553906-1.5714562,0.986675,0,1.553906,0.725007,1.553906,1.5714562l-0.000448,5.2193806c-0.0037,0.9614865-0.624149,1.5735606-1.553814,1.5735606-0.929666,0-1.553907-0.6011143-1.553907-1.5735606,0,0,0.0014,1.6764446,0.000357-5.2193806z" stroke="#0f0f0f" stroke-dasharray="none" stroke-miterlimit="4" stroke-width="1.5" fill="#ffb401"/>
 <path fill="#ffb401" d="m11.447456,3.7849122c0-0.8386523,0.518501-1.5714562,1.553906-1.5714562,0.986675,0,1.553906,0.725007,1.553906,1.5714562l-0.000448,5.2193806c-0.0037,0.9614865-0.624149,1.5735602-1.553814,1.5735602-0.929666,0-1.553907-0.6011139-1.553907-1.5735602,0,0,0.0014,1.6764442,0.000357-5.2193806z"/>
</svg>
