<svg id="svg992" width="30" height="26" version="1.1" xmlns="http://www.w3.org/2000/svg"><g id="layer2" display="none"><rect id="rect2817" x="-1612" y="-1042" width="3448" height="2320" rx=".57368" ry=".57368" color="#000000" display="inline" fill="#333" stroke="#ec4522" stroke-linecap="round" stroke-linejoin="round" stroke-width="5"/></g><g id="layer1"><path id="path990" d="m15 2.2891c-5.4312 0-9.7864 3.3413-11.658 7.6523-1.8696 4.3061-1.3414 9.7615 2.3496 13.736 0.5566 0.62725 1.332 0.97244 2.1543 1.0859 0.13092 0.06107 0.27351 0.09305 0.41797 0.09375h13.475c0.0065-6.03e-4 0.01303-0.0013 0.01953-2e-3 0.13838-0.0026 0.27472-0.03383 0.40039-0.0918 0.82101-0.11416 1.5946-0.45955 2.1504-1.0859 3.691-3.9748 4.2192-9.4302 2.3496-13.736-1.8718-4.311-6.227-7.6523-11.658-7.6523z" color="#000000" color-rendering="auto" dominant-baseline="auto" fill="#585858" image-rendering="auto" shape-rendering="auto" solid-color="#000000" style="font-feature-settings:normal;font-variant-alternates:normal;font-variant-caps:normal;font-variant-ligatures:normal;font-variant-numeric:normal;font-variant-position:normal;isolation:auto;mix-blend-mode:normal;shape-padding:0;text-decoration-color:#000000;text-decoration-line:none;text-decoration-style:solid;text-indent:0;text-orientation:mixed;text-transform:none;white-space:normal"/></g><g id="layer5" display="none"><path id="path990-3-6" d="m8.2629 21.307a9.212 9.2264 0 1 1 13.474 0" color="#000000" fill="none" stroke="#1a1a1a" stroke-linecap="round" stroke-linejoin="round" stroke-width="8"/></g><g id="layer3" display="none"><path id="path990-3" d="m8.2629 21.307a9.212 9.2264 0 1 1 13.474 0" color="#000000" fill="none" stroke="#b4b4b4" stroke-linecap="round" stroke-linejoin="round" stroke-width="1.7"/></g><g id="layer4" display="none"><g id="g3459"><path id="path6727" d="m15 0.41924c-0.88485 0-1.7597 0.35845-2.3125 0.9807s-0.78125 1.4345-0.78125 2.1828v5.4097c0.04128 0.76687 0.33167 1.7286 0.875 2.2778 0.5885 0.5948 1.4187 0.88579 2.2188 0.88579 0.80594 0 1.6347-0.32308 2.2188-0.91743 0.58405-0.59435 0.87186-1.4216 0.875-2.2461v-5.4097c0-0.77863-0.2586-1.5758-0.8125-2.1828s-1.4079-0.9807-2.2812-0.9807z" color="#000000" fill="#0f0f0f" style="text-indent:0;text-transform:none"/><path id="path6729" d="m13.51 2.806c0-0.80398 0.49706-1.5065 1.4897-1.5065 0.94588 0 1.4897 0.69503 1.4897 1.5065 0 2.2926 8.76e-4 6.6107 8.76e-4 6.6107-0.0035 0.92173-0.59834 1.5085-1.4896 1.5085s-1.4897-0.57626-1.4897-1.5085c-0.0061-3.4322-8.76e-4 -3.3967-8.76e-4 -6.6107z" fill="#fff"/></g></g></svg>
