<?xml version="1.0" encoding="UTF-8" standalone="no"?>
<!-- Created with Inkscape (http://www.inkscape.org/) -->

<svg
   xmlns:dc="http://purl.org/dc/elements/1.1/"
   xmlns:cc="http://creativecommons.org/ns#"
   xmlns:rdf="http://www.w3.org/1999/02/22-rdf-syntax-ns#"
   xmlns:svg="http://www.w3.org/2000/svg"
   xmlns="http://www.w3.org/2000/svg"
   version="1.1"
   width="26"
   height="26"
   id="svg3077">
  <defs
     id="defs3087" />
  <metadata
     id="metadata3079">
    <rdf:RDF>
      <cc:Work
         rdf:about="">
        <dc:format>image/svg+xml</dc:format>
        <dc:type
           rdf:resource="http://purl.org/dc/dcmitype/StillImage" />
        <dc:title></dc:title>
      </cc:Work>
    </rdf:RDF>
  </metadata>
  <path
     d="m 11.447456,3.7849122 c 0,-0.8386523 0.518501,-1.5714562 1.553906,-1.5714562 0.986675,0 1.553906,0.725007 1.553906,1.5714562 l -4.48e-4,5.2193806 c -0.0037,0.9614865 -0.624149,1.5735602 -1.553814,1.5735602 -0.929666,0 -1.553907,-0.6011139 -1.553907,-1.5735602 0,0 0.0014,1.6764442 3.57e-4,-5.2193806 z"
     id="path3081-3"
     style="fill:none;stroke:#0f0f0f;stroke-width:1.5;stroke-miterlimit:4;stroke-opacity:1;stroke-dasharray:none" />
  <path
     d="m 11.447456,3.7849118 c 0,-0.8386523 0.518501,-1.5714562 1.553906,-1.5714562 0.986675,0 1.553906,0.725007 1.553906,1.5714562 l -4.48e-4,5.2193806 c -0.0037,0.9614865 -0.624149,1.5735606 -1.553814,1.5735606 -0.929666,0 -1.553907,-0.6011143 -1.553907,-1.5735606 0,0 0.0014,1.6764446 3.57e-4,-5.2193806 z"
     id="path3081"
     style="fill:none;stroke-miterlimit:4" />
  <path
     d="m 11.447456,3.7849122 c 0,-0.8386523 0.518501,-1.5714562 1.553906,-1.5714562 0.986675,0 1.553906,0.725007 1.553906,1.5714562 l -4.48e-4,5.2193806 c -0.0037,0.9614865 -0.624149,1.5735602 -1.553814,1.5735602 -0.929666,0 -1.553907,-0.6011139 -1.553907,-1.5735602 0,0 0.0014,1.6764442 3.57e-4,-5.2193806 z"
     id="path3083"
     style="fill:#ffb401;fill-opacity:1" />
</svg>
