<svg id="svg1705" width="30" height="26" version="1.1" xmlns="http://www.w3.org/2000/svg"><path id="path1701" d="m13.408 3.6739c0-0.86016 0.5318-1.6118 1.5938-1.6118 1.012 0 1.5938 0.7436 1.5938 1.6118l-4.6e-4 5.3532c-0.0038 0.98614-0.64015 1.6139-1.5937 1.6139s-1.5938-0.61653-1.5938-1.6139c0 0 0.0014 1.7194 3.66e-4 -5.3532z" fill="#41b5ff" stroke="#0f0f0f" stroke-width="1.8"/><path id="path1703" d="m13.408 3.6739c0-0.86016 0.5318-1.6118 1.5938-1.6118 1.012 0 1.5938 0.7436 1.5938 1.6118l-4.6e-4 5.3532c-0.0038 0.98614-0.64015 1.6139-1.5937 1.6139s-1.5938-0.61653-1.5938-1.6139c0 0 0.0014 1.7194 3.66e-4 -5.3532z" fill="#ffb401"/></svg>
