<svg xmlns="http://www.w3.org/2000/svg" height="26" width="26"><defs><linearGradient id="a" y2="628.41626" gradientUnits="userSpaceOnUse" x2="202.48849" gradientTransform="matrix(1.2023 0 0 .95625 -227.45378 -587.90458)" y1="621.81409" x1="202.48863"><stop stop-color="#ffb401" offset="0"/><stop stop-color="#c68c00" offset="1"/></linearGradient></defs><path d="M11.619961 3.8689872c0-.7994729.46089-1.4980422 1.38125-1.4980422.877045 0 1.38125.6911366 1.38125 1.4980422l-.000398 4.9755466c-.0033.9165674-.5548 1.5000482-1.381169 1.5000482-.82637 0-1.38125-.5730329-1.38125-1.5000482 0 0 .0012 1.5981252.000317-4.9755466z" stroke="#333" stroke-width="4" fill="none"/><path fill="url(#a)" d="M11.447456 3.7849118c0-.8386523.518501-1.5714562 1.553906-1.5714562.986675 0 1.553906.725007 1.553906 1.5714562l-.000448 5.2193806c-.0037.9614865-.624149 1.5735606-1.553814 1.5735606-.929666 0-1.553907-.6011143-1.553907-1.5735606 0 0 .0014 1.6764446.000357-5.2193806z"/></svg>