<svg id="svg6731" width="30" height="26" version="1.1" xmlns="http://www.w3.org/2000/svg"><path id="path6727" d="m15 0.41924c-0.88485 0-1.7597 0.35845-2.3125 0.9807s-0.78125 1.4345-0.78125 2.1828v5.4097c0.04128 0.76687 0.33167 1.7286 0.875 2.2778 0.5885 0.5948 1.4187 0.88579 2.2188 0.88579 0.80594 0 1.6347-0.32308 2.2188-0.91743 0.58405-0.59435 0.87186-1.4216 0.875-2.2461v-5.4097c0-0.77863-0.2586-1.5758-0.8125-2.1828s-1.4079-0.9807-2.2812-0.9807z" color="#000000" fill="#0f0f0f" style="text-indent:0;text-transform:none"/><path id="path6729" d="m13.51 2.806c0-0.80398 0.49706-1.5065 1.4897-1.5065 0.94588 0 1.4897 0.69503 1.4897 1.5065 0 2.2926 8.76e-4 6.6107 8.76e-4 6.6107-0.0035 0.92173-0.59834 1.5085-1.4896 1.5085s-1.4897-0.57626-1.4897-1.5085c-0.0061-3.4322-8.76e-4 -3.3967-8.76e-4 -6.6107z" fill="#fff"/></svg>
