<?xml version="1.0" encoding="UTF-8" standalone="no"?>
<svg
   xmlns:dc="http://purl.org/dc/elements/1.1/"
   xmlns:cc="http://creativecommons.org/ns#"
   xmlns:rdf="http://www.w3.org/1999/02/22-rdf-syntax-ns#"
   xmlns:svg="http://www.w3.org/2000/svg"
   xmlns="http://www.w3.org/2000/svg"
   xmlns:sodipodi="http://sodipodi.sourceforge.net/DTD/sodipodi-0.dtd"
   xmlns:inkscape="http://www.inkscape.org/namespaces/inkscape"
   height="26"
   width="30"
   version="1.1"
   id="svg1705"
   sodipodi:docname="knob_yellow.svg"
   inkscape:version="0.92.3 (unknown)">
  <defs
     id="defs1709" />
  <sodipodi:namedview
     pagecolor="#ffffff"
     bordercolor="#666666"
     borderopacity="1"
     objecttolerance="10"
     gridtolerance="10"
     guidetolerance="10"
     inkscape:pageopacity="0"
     inkscape:pageshadow="2"
     inkscape:window-width="781"
     inkscape:window-height="480"
     id="namedview1707"
     showgrid="false"
     inkscape:zoom="7.8666667"
     inkscape:cx="21.737288"
     inkscape:cy="15"
     inkscape:window-x="0"
     inkscape:window-y="0"
     inkscape:window-maximized="0"
     inkscape:current-layer="svg1705" />
  <metadata
     id="metadata1699">
    <rdf:RDF>
      <cc:Work
         rdf:about="">
        <dc:format>image/svg+xml</dc:format>
        <dc:type
           rdf:resource="http://purl.org/dc/dcmitype/StillImage" />
        <dc:title></dc:title>
      </cc:Work>
    </rdf:RDF>
  </metadata>
  <path
     d="m 13.407647,3.673881 c 0,-0.8601562 0.531797,-1.61175 1.59375,-1.61175 1.011975,0 1.59375,0.7435969 1.59375,1.61175 l -4.6e-4,5.3532111 C 16.590887,10.013231 15.954534,10.641 15.001031,10.641 c -0.953503,0 -1.59375,-0.616528 -1.59375,-1.6139079 0,0 0.0014,1.7194289 3.66e-4,-5.3532111 z"
     stroke-miterlimit="4"
     id="path1701"
     inkscape:connector-curvature="0"
     style="fill:#41b5ff;stroke:#0f0f0f;stroke-width:1.79999995;stroke-miterlimit:4;stroke-dasharray:none" />
  <path
     d="m 13.407647,3.6738815 c 0,-0.8601562 0.531797,-1.61175 1.59375,-1.61175 1.011975,0 1.59375,0.7435969 1.59375,1.61175 l -4.6e-4,5.3532111 c -0.0038,0.9861384 -0.640153,1.6139084 -1.593656,1.6139084 -0.953503,0 -1.59375,-0.616528 -1.59375,-1.6139084 0,0 0.0014,1.7194284 3.66e-4,-5.3532111 z"
     id="path1703"
     inkscape:connector-curvature="0"
     style="fill:#ffb401" />
</svg>
