<svg xmlns="http://www.w3.org/2000/svg" height="30" width="30"><defs><linearGradient id="a" y2="628.41626" gradientUnits="userSpaceOnUse" x2="202.48849" gradientTransform="matrix(1.06872 0 0 .85 -200.40336 -522.80407)" y1="621.81409" x1="202.48863"><stop stop-color="#6ac6fa" offset="0"/><stop stop-color="#0074b6" offset="1"/></linearGradient></defs><path d="M13.407647 3.6736275c0-.8601562.531797-1.61175 1.59375-1.61175 1.011975 0 1.59375.7435969 1.59375 1.61175l-.00046 5.3532111c-.0038.9861394-.640153 1.6139084-1.593656 1.6139084s-1.59375-.616528-1.59375-1.6139084c0 0 .0014 1.7194294.000366-5.3532111z" stroke="#333" stroke-width="3" fill="none"/><path fill="url(#a)" d="M13.407647 3.6736275c0-.8601562.531797-1.61175 1.59375-1.61175 1.011975 0 1.59375.7435969 1.59375 1.61175l-.00046 5.3532111c-.0038.9861394-.640153 1.6139084-1.593656 1.6139084s-1.59375-.616528-1.59375-1.6139084c0 0 .0014 1.7194294.000366-5.3532111z"/></svg>