<?xml version="1.0" encoding="UTF-8" standalone="no"?>
<svg
   xmlns:dc="http://purl.org/dc/elements/1.1/"
   xmlns:cc="http://creativecommons.org/ns#"
   xmlns:rdf="http://www.w3.org/1999/02/22-rdf-syntax-ns#"
   xmlns:svg="http://www.w3.org/2000/svg"
   xmlns="http://www.w3.org/2000/svg"
   xmlns:sodipodi="http://sodipodi.sourceforge.net/DTD/sodipodi-0.dtd"
   xmlns:inkscape="http://www.inkscape.org/namespaces/inkscape"
   height="26"
   width="30"
   version="1.1"
   id="svg992"
   sodipodi:docname="knob_bg_disabled.svg"
   inkscape:version="0.92.3 (unknown)">
  <metadata
     id="metadata998">
    <rdf:RDF>
      <cc:Work
         rdf:about="">
        <dc:format>image/svg+xml</dc:format>
        <dc:type
           rdf:resource="http://purl.org/dc/dcmitype/StillImage" />
        <dc:title></dc:title>
      </cc:Work>
    </rdf:RDF>
  </metadata>
  <defs
     id="defs996" />
  <sodipodi:namedview
     pagecolor="#ffffff"
     bordercolor="#666666"
     borderopacity="1"
     objecttolerance="10"
     gridtolerance="10"
     guidetolerance="10"
     inkscape:pageopacity="0"
     inkscape:pageshadow="2"
     inkscape:window-width="1366"
     inkscape:window-height="740"
     id="namedview994"
     showgrid="false"
     inkscape:snap-intersection-paths="true"
     inkscape:snap-object-midpoints="true"
     inkscape:object-paths="true"
     inkscape:zoom="11.313708"
     inkscape:cx="18.707171"
     inkscape:cy="10.335782"
     inkscape:window-x="0"
     inkscape:window-y="0"
     inkscape:window-maximized="1"
     inkscape:current-layer="layer1"
     showguides="false"
     inkscape:guide-bbox="true">
    <sodipodi:guide
       position="29.5625,11"
       orientation="0,1"
       id="guide3453"
       inkscape:locked="false"
       inkscape:label=""
       inkscape:color="rgb(0,0,255)" />
    <sodipodi:guide
       position="15,28.875"
       orientation="1,0"
       id="guide3455"
       inkscape:locked="false"
       inkscape:label=""
       inkscape:color="rgb(0,0,255)" />
  </sodipodi:namedview>
  <g
     inkscape:groupmode="layer"
     id="layer2"
     inkscape:label="bg_333"
     sodipodi:insensitive="true"
     style="display:none">
    <rect
       style="color:#000000;display:inline;overflow:visible;visibility:visible;opacity:1;fill:#333333;fill-opacity:1;fill-rule:nonzero;stroke:#ec4522;stroke-width:5;stroke-linecap:round;stroke-linejoin:round;stroke-miterlimit:4;stroke-dasharray:none;stroke-dashoffset:0;stroke-opacity:1;marker:none;enable-background:accumulate"
       id="rect2817"
       width="3448"
       height="2320"
       x="-1612"
       y="-1042"
       rx="0.573681"
       ry="0.573681" />
  </g>
  <g
     inkscape:groupmode="layer"
     id="layer1"
     inkscape:label="disabled1"
     style="display:inline">
    <path
       style="color:#000000;font-style:normal;font-variant:normal;font-weight:normal;font-stretch:normal;font-size:medium;line-height:normal;font-family:sans-serif;font-variant-ligatures:normal;font-variant-position:normal;font-variant-caps:normal;font-variant-numeric:normal;font-variant-alternates:normal;font-feature-settings:normal;text-indent:0;text-align:start;text-decoration:none;text-decoration-line:none;text-decoration-style:solid;text-decoration-color:#000000;letter-spacing:normal;word-spacing:normal;text-transform:none;writing-mode:lr-tb;direction:ltr;text-orientation:mixed;dominant-baseline:auto;baseline-shift:baseline;text-anchor:start;white-space:normal;shape-padding:0;clip-rule:nonzero;display:inline;overflow:visible;visibility:visible;opacity:1;isolation:auto;mix-blend-mode:normal;color-interpolation:sRGB;color-interpolation-filters:linearRGB;solid-color:#000000;solid-opacity:1;vector-effect:none;fill:#585858;fill-opacity:1;fill-rule:nonzero;stroke:none;stroke-width:2;stroke-linecap:round;stroke-linejoin:round;stroke-miterlimit:4;stroke-dasharray:none;stroke-dashoffset:0;stroke-opacity:1;color-rendering:auto;image-rendering:auto;shape-rendering:auto;text-rendering:auto;enable-background:accumulate"
       d="m 15,2.2890625 c -5.4312117,0 -9.7864305,3.3412852 -11.6582031,7.6523437 -1.8696357,4.3061358 -1.3414074,9.7614778 2.3496093,13.7363278 0.5566021,0.627253 1.3320242,0.972439 2.1542969,1.085938 0.1309169,0.06107 0.2735101,0.09305 0.4179688,0.09375 H 21.738281 c 0.0065,-6.03e-4 0.01303,-0.0013 0.01953,-0.002 0.138378,-0.0026 0.274717,-0.03383 0.400391,-0.0918 0.821008,-0.114157 1.594582,-0.459551 2.150391,-1.085938 3.691017,-3.97485 4.219245,-9.430192 2.349609,-13.7363278 C 24.786431,5.6303476 20.431212,2.2890625 15,2.2890625 Z"
       id="path990"
       inkscape:connector-curvature="0"
       sodipodi:nodetypes="ssccccccccs" />
  </g>
  <g
     inkscape:groupmode="layer"
     id="layer5"
     inkscape:label="disabled2"
     style="display:none">
    <path
       d="m 8.2628854,21.307119 a 9.2119779,9.2263715 0 1 1 13.4744286,0"
       id="path990-3-6"
       inkscape:connector-curvature="0"
       style="color:#000000;fill:none;stroke:#1a1a1a;stroke-width:8;stroke-linecap:round;stroke-linejoin:round;stroke-miterlimit:4;stroke-dasharray:none" />
  </g>
  <g
     inkscape:groupmode="layer"
     id="layer3"
     inkscape:label="ring"
     style="display:none">
    <path
       d="m 8.2628853,21.307119 a 9.2119779,9.2263715 0 1 1 13.4744287,0"
       id="path990-3"
       inkscape:connector-curvature="0"
       style="color:#000000;fill:none;stroke:#b4b4b4;stroke-width:1.70000005;stroke-linecap:round;stroke-linejoin:round" />
  </g>
  <g
     inkscape:groupmode="layer"
     id="layer4"
     inkscape:label="pointer"
     style="display:none">
    <g
       id="g3459"
       inkscape:transform-center-y="-8.7109375">
      <path
         inkscape:connector-curvature="0"
         id="path6727"
         d="m 15,0.419241 c -0.88485,0 -1.759683,0.358454 -2.3125,0.9806995 -0.552817,0.6222455 -0.78125,1.4345229 -0.78125,2.1828473 v 5.4096649 c 0.04128,0.7668692 0.331673,1.7286023 0.875,2.2777543 C 13.369745,11.865011 14.199952,12.156 15,12.156 c 0.805942,0 1.634701,-0.323082 2.21875,-0.917429 0.584049,-0.594346 0.871861,-1.421587 0.875,-2.2461183 V 3.5827878 c 0,-0.7786286 -0.258595,-1.5757612 -0.8125,-2.1828473 C 16.727345,0.7928544 15.873386,0.419241 15,0.419241 Z"
         style="color:#000000;text-indent:0;text-align:start;text-transform:none;direction:ltr;baseline-shift:baseline;fill:#0f0f0f;enable-background:accumulate" />
      <path
         style="fill:#ffffff"
         inkscape:connector-curvature="0"
         id="path6729"
         d="m 13.510345,2.8060268 c 0,-0.8039756 0.497062,-1.5064795 1.489655,-1.5064795 0.945879,0 1.489655,0.6950292 1.489655,1.5064795 0,2.2926056 8.76e-4,6.6106953 8.76e-4,6.6106953 -0.0035,0.9217299 -0.598341,1.5084969 -1.489567,1.5084969 -0.891226,0 -1.489656,-0.576261 -1.489656,-1.5084969 -0.0061,-3.4321742 -8.76e-4,-3.396738 -8.76e-4,-6.6106953 z" />
    </g>
  </g>
</svg>
