<svg xmlns:rdf="http://www.w3.org/1999/02/22-rdf-syntax-ns#" xmlns="http://www.w3.org/2000/svg" height="30" width="30" version="1.1" xmlns:cc="http://creativecommons.org/ns#" xmlns:dc="http://purl.org/dc/elements/1.1/">
 <metadata>
  <rdf:RDF>
   <cc:Work rdf:about="">
    <dc:format>image/svg+xml</dc:format>
    <dc:type rdf:resource="http://purl.org/dc/dcmitype/StillImage"/>
    <dc:title/>
   </cc:Work>
  </rdf:RDF>
 </metadata>
 <defs></defs>
 <path style="baseline-shift:baseline;block-progression:tb;color:#000000;direction:ltr;text-indent:0;text-align:start;enable-background:accumulate;text-transform:none;" fill="#0f0f0f" d="m15,0.41949153c-0.88485,0-1.759683,0.35845401-2.3125,0.98069947-0.552817,0.6222455-0.78125,1.4345229-0.78125,2.1828473v5.4096649c0.04128,0.7668692,0.331673,1.7286018,0.875,2.2777538,0.588495,0.594804,1.418702,0.885793,2.21875,0.885793,0.805942,0,1.634701-0.323082,2.21875-0.917429,0.584049-0.594346,0.871861-1.4215865,0.875-2.2461178v-5.4096649c0-0.7786286-0.258595-1.5757612-0.8125-2.1828473-0.553905-0.60708606-1.407864-0.98069947-2.28125-0.98069947z"/>
 <path d="M13.510345,2.8062773c0-0.8039756,0.497062-1.5064795,1.489655-1.5064795,0.945879,0,1.489655,0.6950292,1.489655,1.5064795,0,2.2926056,0.000876,6.6106953,0.000876,6.6106953-0.0035,0.9217294-0.598341,1.5084964-1.489567,1.5084964s-1.489656-0.57626-1.489656-1.5084964c-0.0061-3.4321742-0.000876-3.396738-0.000876-6.6106953z" fill="#FFF"/>
</svg>
