<svg id="svg3077" width="26" height="22" version="1.1" xmlns="http://www.w3.org/2000/svg"><path id="path3081-3" d="m11.447 2.7851c0-0.83865 0.5185-1.5715 1.5539-1.5715 0.98668 0 1.5539 0.72501 1.5539 1.5715l-4.48e-4 5.2194c-0.0037 0.96149-0.62415 1.5736-1.5538 1.5736-0.92967 0-1.5539-0.60111-1.5539-1.5736 0 0 0.0014 1.6764 3.57e-4 -5.2194z" fill="none" stroke="#0f0f0f" stroke-width="1.5"/><path id="path3081" d="m11.447 2.7851c0-0.83865 0.5185-1.5715 1.5539-1.5715 0.98668 0 1.5539 0.72501 1.5539 1.5715l-4.48e-4 5.2194c-0.0037 0.96149-0.62415 1.5736-1.5538 1.5736-0.92967 0-1.5539-0.60111-1.5539-1.5736 0 0 0.0014 1.6764 3.57e-4 -5.2194z" fill="none"/><path id="path3083" d="m11.447 2.7851c0-0.83865 0.5185-1.5715 1.5539-1.5715 0.98668 0 1.5539 0.72501 1.5539 1.5715l-4.48e-4 5.2194c-0.0037 0.96149-0.62415 1.5736-1.5538 1.5736-0.92967 0-1.5539-0.60111-1.5539-1.5736 0 0 0.0014 1.6764 3.57e-4 -5.2194z" fill="#ffb401"/></svg>
