<svg xmlns="http://www.w3.org/2000/svg" height="30" width="30"><defs><linearGradient id="a" y2="12.35013" gradientUnits="userSpaceOnUse" x2="17.001101" gradientTransform="scale(.94118)" y1="4.4665027" x1="17.001101"><stop stop-color="#FFF" offset="0"/><stop stop-color="#e6e6e6" offset="1"/></linearGradient></defs><path d="M13.418629 3.5537617c0-.8786665.528129-1.6464342 1.582758-1.6464342 1.004996 0 1.582759.7595989 1.582759 1.6464342l-.000456 5.4684097c-.0037 1.0073616-.635739 1.6486396-1.582666 1.6486396s-1.582759-.629797-1.582759-1.6486396c0 0 .0014 1.7564316.000364-5.4684097z" stroke="#333" stroke-width="3" fill="none"/><path fill="url(#a)" d="M13.510345 2.8062773c0-.8039756.497062-1.5064795 1.489655-1.5064795.945879 0 1.489655.6950292 1.489655 1.5064795 0 2.2926056.000876 6.6106953.000876 6.6106953-.0035.9217294-.598341 1.5084964-1.489567 1.5084964s-1.489656-.57626-1.489656-1.5084964c-.0061-3.4321742-.000876-3.396738-.000876-6.6106953z"/></svg>