<svg width="30" height="26" version="1.1" xmlns="http://www.w3.org/2000/svg"><g display="none"><rect x="-1612" y="-1042" width="3448" height="2320" rx=".57368" ry=".57368" color="#000000" display="inline" fill="#333" stroke="#ec4522" stroke-linecap="round" stroke-linejoin="round" stroke-width="5"/></g><g display="none"><path d="m8.2629 21.307a9.212 9.2264 0 1 1 13.474 0" color="#000000" fill="none" stroke="#1a1a1a" stroke-linecap="round" stroke-linejoin="round" stroke-width="8"/></g><g display="none"><path d="m8.2629 21.307a9.212 9.2264 0 1 1 13.474 0" color="#000000" fill="none" stroke="#b4b4b4" stroke-linecap="round" stroke-linejoin="round" stroke-width="1.7"/></g><g display="none"><path d="m15 .41924c-.88485 0-1.7597.35845-2.3125.9807s-.78125 1.4345-.78125 2.1828v5.4097c.04128.76687.33167 1.7286.875 2.2778.5885.5948 1.4187.88579 2.2188.88579.80594 0 1.6347-.32308 2.2188-.91743.58405-.59435.87186-1.4216.875-2.2461v-5.4097c0-.77863-.2586-1.5758-.8125-2.1828s-1.4079-.9807-2.2812-.9807z" color="#000000" fill="#0f0f0f" style="text-indent:0;text-transform:none"/><path d="m13.51 2.806c0-.80398.49706-1.5065 1.4897-1.5065.94588 0 1.4897.69503 1.4897 1.5065 0 2.2926.000876 6.6107.000876 6.6107-.0035.92173-.59834 1.5085-1.4896 1.5085s-1.4897-.57626-1.4897-1.5085c-.0061-3.4322-.000876-3.3967-.000876-6.6107z" fill="#fff"/></g><path d="m6.041 4.7653c-.17582-.00215-.35097.022216-.51953.072266-.055626.016796-.11038.036351-.16406.058594-.053937.02209-.10674.04686-.1582.074219-.15472.081929-.29627.18661-.41992.31055-.12409.12425-.22878.26647-.31055.42188-.027358.051466-.052129.10427-.074219.1582-.021643.054357-.040547.10977-.056641.16602-.065742.22487-.085667.46065-.058594.69336.020743.17396.067488.34382.13867.50391.046972.10705.10455.20912.17188.30469.034155.047369.070659.092999.10938.13672.038217.044316.078632.086686.12109.12695.00582.00525.011684.010456.017578.015625 0 0 6.0624 3.2983 6.1621 6.6914.0926 3.1512-5.2383 6.7617-5.2383 6.7617-.081298.08431-.15393.17657-.2168.27539-.062936.09799-.11593.20202-.1582.31055-.020983.05439-.039235.1098-.054688.16602-.015836.05596-.028873.11267-.039062.16992-.020142.11539-.028648.23252-.025391.34961.017286.59591.33672 1.142.84766 1.4492.09963.0598.20497.10952.31445.14844.22082.07907.45528.11294.68945.09961.17509-.01061.34759-.04748.51172-.10938.10904-.04091.21373-.09259.3125-.1543.099322-.06153.19223-.13285.27734-.21289.00589-.0052.011754-.01038.017578-.01563 0 0 3.5742-5.2383 6.7617-5.2383 3.1875 1e-6 6.7617 5.2383 6.7617 5.2383.08431.0813.17657.15393.27539.2168.09799.06293.20202.11593.31055.1582.05439.02098.1098.03924.16602.05469.05596.01583.11267.02887.16992.03906.05755.01006.11556.01723.17383.02148.11657.0084.23369.0051.34961-.0098.05778-.0075.11514-.01798.17188-.03125.05677-.01347.11283-.02976.16797-.04883.11068-.03743.21733-.08585.31836-.14453.20241-.11797.37908-.27538.51953-.46289.10463-.14047.18759-.29584.24609-.46094.01972-.05511.03667-.11116.05078-.16797.01393-.0567.02501-.11406.0332-.17188.04143-.29043.0092-.58661-.09375-.86133-.04091-.10904-.0926-.21373-.1543-.3125-.06545-.10617-.14205-.20504-.22852-.29492 0 0-5.3309-3.6105-5.2383-6.7617.09971-3.3931 6.1621-6.6914 6.1621-6.6914.08671-.079144.16523-.16681.23438-.26168.03432-.047202.06626-.096091.0957-.14648.02923-.050074.05596-.10157.08008-.1543.07302-.15915.12173-.32835.14453-.50195.06161-.46925-.06944-.94344-.36328-1.3145-.03621-.045507-.07467-.089181-.11524-.13086-.04095-.041845-.08397-.081608-.12891-.11914-.0444-.038103-.09068-.073955-.13867-.10742-.14468-.098643-.30335-.17501-.4707-.22656-.05585-.01781-.11256-.032803-.16992-.044922-.17158-.03449-.34736-.043048-.52148-.025391-.05833.00555-.11635.014023-.17383.025391-.22941.046114-.44725.13776-.64062.26953-.04799.033467-.09427.069319-.13867.10742-.0059.00452-.01175.00908-.01758.013672 0 0-4.3424 5.3086-7.8379 5.3086s-7.8379-5.3086-7.8379-5.3086c-.043765-.03805-.089394-.073902-.13672-.10742-.19201-.13498-.40921-.22996-.63867-.2793-.056803-.011959-.11417-.021085-.17188-.027344-.057712-.00679-.11573-.010701-.17383-.011719z" color="#000000" color-rendering="auto" dominant-baseline="auto" fill="#b02020" image-rendering="auto" shape-rendering="auto" solid-color="#000000" style="font-feature-settings:normal;font-variant-alternates:normal;font-variant-caps:normal;font-variant-ligatures:normal;font-variant-numeric:normal;font-variant-position:normal;isolation:auto;mix-blend-mode:normal;shape-padding:0;text-decoration-color:#000000;text-decoration-line:none;text-decoration-style:solid;text-indent:0;text-orientation:mixed;text-transform:none;white-space:normal"/></svg>
