<?xml version="1.0" encoding="UTF-8" standalone="no"?>
<svg
   xmlns:dc="http://purl.org/dc/elements/1.1/"
   xmlns:cc="http://creativecommons.org/ns#"
   xmlns:rdf="http://www.w3.org/1999/02/22-rdf-syntax-ns#"
   xmlns:svg="http://www.w3.org/2000/svg"
   xmlns="http://www.w3.org/2000/svg"
   xmlns:sodipodi="http://sodipodi.sourceforge.net/DTD/sodipodi-0.dtd"
   xmlns:inkscape="http://www.inkscape.org/namespaces/inkscape"
   height="26"
   width="30"
   version="1.1"
   id="svg6731"
   sodipodi:docname="knob_white.svg"
   inkscape:version="0.92.3 (unknown)">
  <sodipodi:namedview
     pagecolor="#ffffff"
     bordercolor="#666666"
     borderopacity="1"
     objecttolerance="10"
     gridtolerance="10"
     guidetolerance="10"
     inkscape:pageopacity="0"
     inkscape:pageshadow="2"
     inkscape:window-width="781"
     inkscape:window-height="480"
     id="namedview6733"
     showgrid="false"
     inkscape:zoom="7.8666667"
     inkscape:cx="21.737288"
     inkscape:cy="15"
     inkscape:window-x="0"
     inkscape:window-y="0"
     inkscape:window-maximized="0"
     inkscape:current-layer="svg6731" />
  <metadata
     id="metadata6723">
    <rdf:RDF>
      <cc:Work
         rdf:about="">
        <dc:format>image/svg+xml</dc:format>
        <dc:type
           rdf:resource="http://purl.org/dc/dcmitype/StillImage" />
        <dc:title></dc:title>
      </cc:Work>
    </rdf:RDF>
  </metadata>
  <defs
     id="defs6725" />
  <path
     style="color:#000000;text-indent:0;text-align:start;text-transform:none;direction:ltr;baseline-shift:baseline;fill:#0f0f0f;enable-background:accumulate"
     d="m 15,0.4192415 c -0.88485,0 -1.759683,0.358454 -2.3125,0.9806995 -0.552817,0.6222455 -0.78125,1.4345229 -0.78125,2.1828473 v 5.4096649 c 0.04128,0.7668692 0.331673,1.7286018 0.875,2.2777538 C 13.369745,11.865011 14.199952,12.156 15,12.156 c 0.805942,0 1.634701,-0.323082 2.21875,-0.917429 0.584049,-0.594346 0.871861,-1.4215865 0.875,-2.2461178 V 3.5827883 c 0,-0.7786286 -0.258595,-1.5757612 -0.8125,-2.1828473 C 16.727345,0.7928549 15.873386,0.4192415 15,0.4192415 Z"
     id="path6727"
     inkscape:connector-curvature="0" />
  <path
     d="m 13.510345,2.8060273 c 0,-0.8039756 0.497062,-1.5064795 1.489655,-1.5064795 0.945879,0 1.489655,0.6950292 1.489655,1.5064795 0,2.2926056 8.76e-4,6.6106953 8.76e-4,6.6106953 -0.0035,0.9217294 -0.598341,1.5084964 -1.489567,1.5084964 -0.891226,0 -1.489656,-0.57626 -1.489656,-1.5084964 -0.0061,-3.4321742 -8.76e-4,-3.396738 -8.76e-4,-6.6106953 z"
     id="path6729"
     inkscape:connector-curvature="0"
     style="fill:#ffffff" />
</svg>
