<svg xmlns="http://www.w3.org/2000/svg" width="36" height="103"><defs><linearGradient id="b"><stop offset="0" stop-color="#b4b4b4"/><stop offset="1" stop-color="#6a6a6a"/></linearGradient><linearGradient id="a"><stop offset="0" stop-color="#d1d1d1"/><stop offset="1" stop-color="#878787"/></linearGradient><linearGradient id="c"><stop offset="0" stop-color="#b4b4b4"/><stop offset="1" stop-color="#7a7a7a"/></linearGradient></defs><path d="M6 2v2h8.5C15.880712 4 17 5.11929 17 6.5v17c0 1.380712-1.141559 2.253011-2.5 2.5H9v2h5.5c1.380712 0 2.5 1.119288 2.5 2.5v17c0 1.380712-1.152167 2.200482-2.5 2.5H10v2h4.5c1.380712 0 2.5 1.119288 2.5 2.5v19c0 1.380712-1.172412 2.120689-2.5 2.5H11v2h3.5c1.380712 0 2.5 1.119288 2.5 2.5v16.125c-.06597 1.321849-1.386526 1.632684-2.5 2.375H13v2h10v-2h-1.5c-1.338229 0-2.434027-1.053151-2.5-2.375V80.5c0-1.380712 1.119288-2.5 2.5-2.5H25v-2h-3.5c-1.380712 0-2.5-1.119288-2.5-2.5v-19c0-1.380712 1.119288-2.5 2.5-2.5H26v-2h-4.5c-1.380712 0-2.5-1.119288-2.5-2.5v-17c0-1.380712 1.119288-2.5 2.5-2.5H27v-2h-5.5c-1.380712 0-2.5-1.119288-2.5-2.5v-17c0-1.38071 1.128745-2.3386759 2.5-2.5H30V2H17z"/></svg>