<?xml version="1.0" encoding="UTF-8" standalone="no"?>
<!-- Created with Inkscape (http://www.inkscape.org/) -->

<svg
   xmlns:dc="http://purl.org/dc/elements/1.1/"
   xmlns:cc="http://creativecommons.org/ns#"
   xmlns:rdf="http://www.w3.org/1999/02/22-rdf-syntax-ns#"
   xmlns:svg="http://www.w3.org/2000/svg"
   xmlns="http://www.w3.org/2000/svg"
   version="1.1"
   width="104"
   height="28"
   id="svg3242">
  <metadata
     id="metadata3248">
    <rdf:RDF>
      <cc:Work
         rdf:about="">
        <dc:format>image/svg+xml</dc:format>
        <dc:type
           rdf:resource="http://purl.org/dc/dcmitype/StillImage" />
        <dc:title></dc:title>
      </cc:Work>
    </rdf:RDF>
  </metadata>
  <defs
     id="defs3246" />
  <g
     transform="translate(0,2)"
     id="layer4"
     style="display:inline">
    <path
       d="m 3,1 0,22 2,0 0,-7.5 C 5,14.16177 6.1187295,13 7.5,13 l 41,0 c 1.380713,0 2.5,1.119288 2.5,2.5 l 0,8.5 2,0 0,-8.5 C 53,14.119287 54.119288,13 55.5,13 l 41,0 c 1.38071,0 2.338676,1.128744 2.5,2.5 l 0,7.5 2,0 0,-22 -2,0 0,7.5 C 99,9.880712 97.88071,11 96.5,11 l -41,0 C 54.119287,11 53,9.880712 53,8.5 L 53,0 51,0 51,8.5 C 51,9.880713 49.880712,11 48.5,11 l -41,0 C 6.119288,11 5.1613241,9.871255 5,8.5 L 5,1 z"
       id="path3943"
       style="fill:#828282;fill-opacity:1;fill-rule:nonzero;stroke:none" />
  </g>
</svg>
