<?xml version="1.0" encoding="UTF-8" standalone="no"?>
<!-- Created with Inkscape (http://www.inkscape.org/) -->

<svg
   xmlns:dc="http://purl.org/dc/elements/1.1/"
   xmlns:cc="http://creativecommons.org/ns#"
   xmlns:rdf="http://www.w3.org/1999/02/22-rdf-syntax-ns#"
   xmlns:svg="http://www.w3.org/2000/svg"
   xmlns="http://www.w3.org/2000/svg"
   xmlns:sodipodi="http://sodipodi.sourceforge.net/DTD/sodipodi-0.dtd"
   xmlns:inkscape="http://www.inkscape.org/namespaces/inkscape"
   id="svg3068"
   version="1.1"
   inkscape:version="0.48.4 r9939"
   width="20"
   height="54"
   sodipodi:docname="slider_pitch_sampler_scale.svg.2017_04_18_07_09_39.0.svg"
   inkscape:export-filename="/home/ronso/.mixxx/skins/FlatNite/sampler_pitch_slider.png"
   inkscape:export-xdpi="90"
   inkscape:export-ydpi="90">
  <metadata
     id="metadata3074">
    <rdf:RDF>
      <cc:Work
         rdf:about="">
        <dc:format>image/svg+xml</dc:format>
        <dc:type
           rdf:resource="http://purl.org/dc/dcmitype/StillImage" />
        <dc:title></dc:title>
      </cc:Work>
    </rdf:RDF>
  </metadata>
  <defs
     id="defs3072" />
  <sodipodi:namedview
     pagecolor="#ffffff"
     bordercolor="#666666"
     borderopacity="1"
     objecttolerance="10"
     gridtolerance="10"
     guidetolerance="10"
     inkscape:pageopacity="0"
     inkscape:pageshadow="2"
     inkscape:window-width="1366"
     inkscape:window-height="747"
     id="namedview3070"
     showgrid="false"
     showguides="true"
     inkscape:guide-bbox="true"
     inkscape:object-paths="true"
     inkscape:snap-intersection-paths="true"
     inkscape:object-nodes="true"
     inkscape:snap-smooth-nodes="true"
     inkscape:zoom="11.313708"
     inkscape:cx="24.306237"
     inkscape:cy="27.190333"
     inkscape:window-x="0"
     inkscape:window-y="21"
     inkscape:window-maximized="1"
     inkscape:current-layer="layer4"
     inkscape:snap-bbox="true"
     inkscape:snap-bbox-edge-midpoints="true"
     inkscape:snap-object-midpoints="true">
    <inkscape:grid
       type="xygrid"
       id="grid2992"
       empspacing="5"
       visible="true"
       enabled="true"
       snapvisiblegridlinesonly="true" />
  </sodipodi:namedview>
  <g
     inkscape:groupmode="layer"
     id="layer4"
     inkscape:label="Layer#1"
     transform="translate(0,-53)"
     style="display:inline">
    <path
       inkscape:connector-curvature="0"
       style="fill:#6e6e6e;fill-opacity:1;fill-rule:nonzero;stroke:none;display:inline"
       d="m 10,54.5 c -0.552285,0 -1,0.447715 -1,1 l 0,20.999999 c 0,1.380712 -1.119288,2.5 -2.5,2.5 L 3,79 c -0.552285,0 -1,0.447715 -1,1 0,0.552285 0.447715,1 1,1 l 3.5,-10e-7 c 1.380712,0 2.5,1.119288 2.5,2.5 L 9,104.5 c 0,0.55228 0.447715,1 1,1 0.552285,0 1,-0.44772 1,-1 l 0,-21.000001 c 0,-1.380712 1.119288,-2.5 2.5,-2.5 L 17,81 c 0.552285,0 1,-0.447715 1,-1 0,-0.552285 -0.447715,-1 -1,-1 l -3.5,-10e-7 c -1.380712,0 -2.5,-1.119288 -2.5,-2.5 L 11,55.5 c 0,-0.552285 -0.447715,-1 -1,-1 z m 0,24.499999 c 0.552285,0 1,0.447715 1,1 0,0.552285 -0.447715,1 -1,1 -0.552285,0 -1,-0.447715 -1,-1 0,-0.552285 0.447715,-1 1,-1 z"
       id="rect4849-3"
       sodipodi:nodetypes="ssssssssssssssssssssssssss" />
  </g>
</svg>
