<?xml version="1.0" encoding="UTF-8" standalone="no"?>
<!-- Created with Inkscape (http://www.inkscape.org/) -->

<svg
   xmlns:dc="http://purl.org/dc/elements/1.1/"
   xmlns:cc="http://creativecommons.org/ns#"
   xmlns:rdf="http://www.w3.org/1999/02/22-rdf-syntax-ns#"
   xmlns:svg="http://www.w3.org/2000/svg"
   xmlns="http://www.w3.org/2000/svg"
   xmlns:sodipodi="http://sodipodi.sourceforge.net/DTD/sodipodi-0.dtd"
   xmlns:inkscape="http://www.inkscape.org/namespaces/inkscape"
   id="svg3068"
   version="1.1"
   inkscape:version="0.48.4 r9939"
   width="50"
   height="107"
   sodipodi:docname="pitch_slider.svg"
   inkscape:export-filename="/home/ronso/.mixxx/skins/FlatNite/pitch_slider.png"
   inkscape:export-xdpi="90"
   inkscape:export-ydpi="90">
  <metadata
     id="metadata3074">
    <rdf:RDF>
      <cc:Work
         rdf:about="">
        <dc:format>image/svg+xml</dc:format>
        <dc:type
           rdf:resource="http://purl.org/dc/dcmitype/StillImage" />
        <dc:title />
      </cc:Work>
    </rdf:RDF>
  </metadata>
  <defs
     id="defs3072" />
  <sodipodi:namedview
     pagecolor="#ffffff"
     bordercolor="#666666"
     borderopacity="1"
     objecttolerance="10"
     gridtolerance="10"
     guidetolerance="10"
     inkscape:pageopacity="0"
     inkscape:pageshadow="2"
     inkscape:window-width="1366"
     inkscape:window-height="746"
     id="namedview3070"
     showgrid="false"
     showguides="true"
     inkscape:guide-bbox="true"
     inkscape:object-paths="true"
     inkscape:snap-intersection-paths="true"
     inkscape:object-nodes="true"
     inkscape:snap-smooth-nodes="true"
     inkscape:zoom="4"
     inkscape:cx="42.060366"
     inkscape:cy="68.324744"
     inkscape:window-x="0"
     inkscape:window-y="0"
     inkscape:window-maximized="1"
     inkscape:current-layer="layer4"
     inkscape:snap-bbox="true"
     inkscape:snap-bbox-edge-midpoints="true"
     inkscape:snap-object-midpoints="true"
     inkscape:bbox-paths="true"
     inkscape:bbox-nodes="true" />
  <g
     inkscape:groupmode="layer"
     id="layer4"
     inkscape:label="Layer#1"
     style="display:inline">
    <path
       style="fill:#6e6e6e;fill-opacity:1;fill-rule:nonzero;stroke:none;display:inline"
       d="m 25,2 c -0.552285,0 -1,0.447715 -1,1 l 0,47 c 0,1.380712 -1.119288,2.5 -2.5,2.5 l -5.5,0 c -0.552285,0 -1,0.447715 -1,1 0,0.552285 0.447715,1 1,1 l 5.5,0 c 1.380712,0 2.5,1.119288 2.5,2.5 l 0,47 c 0,0.55228 0.447715,1 1,1 0.552285,0 1,-0.44772 1,-1 l 0,-47 c 0,-1.380712 1.119288,-2.5 2.5,-2.5 l 5.5,0 c 0.552285,0 1,-0.447715 1,-1 0,-0.552285 -0.447715,-1 -1,-1 l -5.5,0 C 27.119288,52.5 26,51.380712 26,50 L 26,3 C 26,2.447715 25.552285,2 25,2 z m 0,50.5 c 0.552285,0 1,0.447715 1,1 0,0.552285 -0.447715,1 -1,1 -0.552285,0 -1,-0.447715 -1,-1 0,-0.552285 0.447715,-1 1,-1 z"
       id="rect4849-3"
       inkscape:connector-curvature="0" />
  </g>
</svg>
