<svg xmlns="http://www.w3.org/2000/svg" width="74" height="28"><defs><linearGradient id="a"><stop offset="0" stop-color="#002464"/><stop offset=".18000001" stop-color="#0872e9"/><stop offset=".81819808" stop-color="#0872e9"/><stop offset="1" stop-color="#002f64"/></linearGradient><linearGradient id="b"><stop offset="0" stop-color="#002464"/><stop offset=".18000001" stop-color="#0872e9"/><stop offset=".81819808" stop-color="#0872e9"/><stop offset="1" stop-color="#002f64"/></linearGradient><linearGradient id="c"><stop offset="0" stop-color="#002464"/><stop offset=".18000001" stop-color="#0872e9"/><stop offset=".81819808" stop-color="#0872e9"/><stop offset="1" stop-color="#002f64"/></linearGradient></defs><g fill="#828282"><path d="M62.0520842717 3.7079999835l-5.7500003542 5.7500000177v5.7499997505l5.7500003542 5.7500003541h.7187497208V3.7079999835h-.7187497208zM52.7083318633 9.45800026h2.8750000046v5.7500015617h-2.8750000046zM65.2190764959 5.5722577974l-.381836517 1.0219726394c2.3565320149.846287166 4.042968797 3.089873252 4.042968797 5.738769569 0 2.6365150431-1.6700466944 4.8721435315-4.009276959 5.727539129l.3706050417 1.0219728118c2.7500873194-1.0098607242 4.7167969297-3.6505640673 4.7167969297-6.7495119408 0-3.1078189447-1.9767991354-5.7573736942-4.7392572924-6.7607422084z"/><path d="M64.4778655498 7.604972636l-.3706059043 1.0107421992c1.5223823801.5493018477 2.6166991053 2.0054455208 2.6166991053 3.7172851706 0 1.6992311072-1.07822075 3.1475747615-2.5830072674 3.7060547305l.3593744292 1.0107421992c1.9261798723-.7047496207 3.3017578507-2.546495917 3.3017578507-4.7167969297 0-2.1792061527-1.385614891-4.029801958-3.3242182135-4.7280273698z"/></g><path d="M4.8960504 13.603981l2.5662813-.478506c.4062058-.0757.7941962.190306.8699349.596501l.8886227 4.766008c.07574.406195-.1903053.794117-.5965119.869908l-2.5662805.47842c-.4062057.075705-.7941962-.190306-.8699349-.596502l-.8886235-4.76592c-.07574-.406195.1903061-.794204.5965119-.869909z" fill="#888"/><path d="M11.943096 4.1569826c-4.167906 0-7.5634792 3.3954897-7.5634792 7.5634292 0 .4765052.043482.9349972.1281942 1.3867892.3607046 1.964148.7340901 3.925772 1.1187887 5.885307l1.6432218-.314653c-.3547839-2.00522-.8342963-4.136962-1.1187896-5.978502-.0549947-.320658-.0932317-.639836-.0932317-.9789412 0-3.2607874 2.6244966-5.8853067 5.8852958-5.8853067 3.2608 0 5.885297 2.6245193 5.885297 5.8853067 0 .3391052-.03823.6582832-.09323.9789412-.284492 1.84154-.764005 3.973282-1.118788 5.978502l1.643221.314653c.384699-1.959535.758084-3.921159 1.118789-5.885307.08471-.451792.128195-.910284.128195-1.3867892 0-4.1679395-3.395574-7.5634292-7.563481-7.5634292z" style="text-indent:0;text-align:start;line-height:normal;text-transform:none;block-progression:tb;marker:none;-inkscape-font-specification:Sans" font-weight="400" color="#000" fill="#888" overflow="visible" font-family="Sans"/><path d="M18.990143 13.603981l-2.566282-.478506c-.406205-.0757-.794196.190306-.869935.596501l-.888622 4.766008c-.07574.406195.190305.794204.596512.869908l2.56628.478507c.406206.0757.794196-.190306.869934-.596589l.888625-4.766007c.07574-.406108-.190307-.794117-.596512-.869822z" fill="#888"/><path d="M11 15v10h50v-8h-2v6H13v-8z" fill="#828282"/></svg>