<?xml version="1.0" encoding="UTF-8" standalone="no"?>
<!-- Created with Inkscape (http://www.inkscape.org/) -->

<svg
   xmlns:dc="http://purl.org/dc/elements/1.1/"
   xmlns:cc="http://creativecommons.org/ns#"
   xmlns:rdf="http://www.w3.org/1999/02/22-rdf-syntax-ns#"
   xmlns:svg="http://www.w3.org/2000/svg"
   xmlns="http://www.w3.org/2000/svg"
   version="1.1"
   width="20"
   height="54"
   id="svg3068">
  <metadata
     id="metadata3074">
    <rdf:RDF>
      <cc:Work
         rdf:about="">
        <dc:format>image/svg+xml</dc:format>
        <dc:type
           rdf:resource="http://purl.org/dc/dcmitype/StillImage" />
        <dc:title></dc:title>
      </cc:Work>
    </rdf:RDF>
  </metadata>
  <defs
     id="defs3072" />
  <g
     transform="translate(0,-53)"
     id="layer4"
     style="display:inline">
    <path
       d="m 10,54.5 c -0.552285,0 -1,0.447715 -1,1 l 0,20.999999 c 0,1.380712 -1.119288,2.5 -2.5,2.5 L 3,79 c -0.552285,0 -1,0.447715 -1,1 0,0.552285 0.447715,1 1,1 l 3.5,-10e-7 c 1.380712,0 2.5,1.119288 2.5,2.5 L 9,104.5 c 0,0.55228 0.447715,1 1,1 0.552285,0 1,-0.44772 1,-1 l 0,-21.000001 c 0,-1.380712 1.119288,-2.5 2.5,-2.5 L 17,81 c 0.552285,0 1,-0.447715 1,-1 0,-0.552285 -0.447715,-1 -1,-1 l -3.5,-10e-7 c -1.380712,0 -2.5,-1.119288 -2.5,-2.5 L 11,55.5 c 0,-0.552285 -0.447715,-1 -1,-1 z"
       id="rect4849-3"
       style="fill:#6e6e6e;fill-opacity:1;fill-rule:nonzero;stroke:none;display:inline" />
  </g>
</svg>
