<?xml version="1.0" encoding="UTF-8" standalone="no"?>
<!-- Created with Inkscape (http://www.inkscape.org/) -->

<svg
   xmlns:dc="http://purl.org/dc/elements/1.1/"
   xmlns:cc="http://creativecommons.org/ns#"
   xmlns:rdf="http://www.w3.org/1999/02/22-rdf-syntax-ns#"
   xmlns:svg="http://www.w3.org/2000/svg"
   xmlns="http://www.w3.org/2000/svg"
   version="1.1"
   width="50"
   height="106"
   id="svg3068">
  <metadata
     id="metadata3074">
    <rdf:RDF>
      <cc:Work
         rdf:about="">
        <dc:format>image/svg+xml</dc:format>
        <dc:type
           rdf:resource="http://purl.org/dc/dcmitype/StillImage" />
        <dc:title></dc:title>
      </cc:Work>
    </rdf:RDF>
  </metadata>
  <defs
     id="defs3072" />
  <g
     transform="translate(0,-1)"
     id="layer4"
     style="display:inline">
    <path
       d="m 25,3.5 c -0.552285,0 -1,0.447715 -1,1 l 0,46 C 24,51.880712 22.880712,53 21.5,53 L 16,53 c -0.552285,0 -1,0.447715 -1,1 0,0.552285 0.447715,1 1,1 l 5.5,0 c 1.380712,0 2.5,1.119288 2.5,2.5 l 0,46 c 0,0.55228 0.447715,1 1,1 0.552285,0 1,-0.44772 1,-1 l 0,-46 C 26,56.119288 27.119288,55 28.5,55 l 5.5,0 c 0.552285,0 1,-0.447715 1,-1 0,-0.552285 -0.447715,-1 -1,-1 l -5.5,0 C 27.119288,53 26,51.880712 26,50.5 l 0,-46 c 0,-0.552285 -0.447715,-1 -1,-1 z"
       id="rect4849-3"
       style="fill:#6e6e6e;fill-opacity:1;fill-rule:nonzero;stroke:none;display:inline" />
  </g>
</svg>
