<svg width="34" height="103" version="1.1" xmlns="http://www.w3.org/2000/svg"><path d="m5 2v2h8.5c1.3807 0 2.5 1.1193 2.5 2.5v17c0 1.3807-1.1416 2.253-2.5 2.5h-5.5v2h5.5c1.3807 0 2.5 1.1193 2.5 2.5v17c0 1.3807-1.1522 2.2005-2.5 2.5h-4.5v2h4.5c1.3807 0 2.5 1.1193 2.5 2.5v19c0 1.3807-1.1724 2.1207-2.5 2.5h-3.5v2h3.5c1.3807 0 2.5 1.1193 2.5 2.5v16.125c-0.06597 1.3218-1.3865 1.6327-2.5 2.375h-1.5v2h10v-2h-1.5c-1.3382 0-2.434-1.0532-2.5-2.375v-16.125c0-1.3807 1.1193-2.5 2.5-2.5h3.5v-2h-3.5c-1.3807 0-2.5-1.1193-2.5-2.5v-19c0-1.3807 1.1193-2.5 2.5-2.5h4.5v-2h-4.5c-1.3807 0-2.5-1.1193-2.5-2.5v-17c0-1.3807 1.1193-2.5 2.5-2.5h5.5v-2h-5.5c-1.3807 0-2.5-1.1193-2.5-2.5v-17c0-1.3807 1.1287-2.3387 2.5-2.5h8.5v-2h-13z"/></svg>
