<?xml version="1.0" encoding="UTF-8" standalone="no"?>
<svg
   xmlns:dc="http://purl.org/dc/elements/1.1/"
   xmlns:cc="http://creativecommons.org/ns#"
   xmlns:rdf="http://www.w3.org/1999/02/22-rdf-syntax-ns#"
   xmlns:svg="http://www.w3.org/2000/svg"
   xmlns="http://www.w3.org/2000/svg"
   id="svg8"
   viewBox="0 0 48 48"
   version="1.1">
  <metadata
     id="metadata14">
    <rdf:RDF>
      <cc:Work
         rdf:about="">
        <dc:format>image/svg+xml</dc:format>
        <dc:type
           rdf:resource="http://purl.org/dc/dcmitype/StillImage" />
        <dc:title></dc:title>
      </cc:Work>
    </rdf:RDF>
  </metadata>
  <defs
     id="defs12" />
  <path
     id="path2-3"
     d="m 4.0001,27.9999 h 4 L 8,31.841 C 7.9999615,33.3201 8.6792,34 10.159,34 h 31.68 C 43.309,34 44,33.3203 44,31.841 V 16.169 C 44,14.6997 43.31,14.000052 41.83,14 L 10.159526,13.9999 C 8.6797254,14.0099 8.0003,14.6899 8,16.169 v 3.8309 H 4 Z"
     style="fill:none;stroke:#000000;stroke-width:2;stroke-linejoin:round;stroke-miterlimit:4;stroke-dasharray:none;stroke-opacity:1" />
  <path
     d="m 8.00005,27.99995 v 3.332 c 0,1.4791 1.1882,2.668 2.668,2.668 h 30.662 c 1.47,0 2.6699,-1.1887 2.6699,-2.668 v -14.664 c 0,-1.4693 -1.1899,-2.668 -2.6699,-2.668 h -29.33 v 0.002 l -1.332,-0.002 c -1.4798,0.01 -2.6677,1.1986 -2.668,2.6777 v 3.3223 z"
     id="path2"
     style="fill:#a89a8c" />
  <path
     d="m 4.00005,27.99995 h 4 v -8 h -4 z"
     id="path4"
     style="fill:#444443" />
</svg>
