<svg version="1.1" viewBox="0 0 48 48" xmlns="http://www.w3.org/2000/svg">
  <rect x="11.1826" y="15.3179" width="19.4486" height="16.6992" fill="#60d1fe"/>
  <path d="m4.0001 27.9999h4l-1e-4 3.8411c-3.85e-5 1.4791 0.6792 2.159 2.159 2.159h31.68c1.47 0 2.161-0.6797 2.161-2.159v-15.672c0-1.4693-0.69-2.16895-2.17-2.169l-31.6705-1e-4c-1.4798 0.01-2.15923 0.69-2.15953 2.1691v3.8309h-4z" fill="none" stroke="#000" stroke-linejoin="round" stroke-width="2"/>
  <g transform="rotate(-90 24 24)">
    <path d="m22 30.668h-8v10.662c0 1.47 1.1887 2.6699 2.668 2.6699h14.664c1.4693 0 2.668-1.1899 2.668-2.6699v-10.662h-7.0235l-4.9765 9.332z" fill="#ffb108"/>
    <path d="m20 4v4h-3.332c-1.4791 0-2.668 1.1882-2.668 2.668v20h8v-1.668h-4l8-15v11h4l-3.0234 5.668h7.0215l.002-20c-.010047-1.4798-1.1987-2.6677-2.6778-2.668h-3.3223v-4z" fill="#444443"/>
  </g>
</svg>
