<svg version="1.1" viewBox="0 0 48 48" xmlns="http://www.w3.org/2000/svg">
  <path d="m4.0001 27.9999h4l-1e-4 3.8411c-3.85e-5 1.4791 0.6792 2.159 2.159 2.159h31.68c1.47 0 2.161-0.6797 2.161-2.159v-15.672c0-1.4693-0.69-2.16895-2.17-2.169l-31.6705-1e-4c-1.4798 0.01-2.15923 0.69-2.15953 2.1691v3.8309h-4z" fill="none" stroke="#000" stroke-linejoin="round" stroke-width="2"/>
  <path d="m8.00005 28v3.332c0 1.4791 1.1882 2.668 2.668 2.668h30.662c1.47 0 2.6699-1.1887 2.6699-2.668v-14.664c0-1.4693-1.1899-2.668-2.6699-2.668h-29.33v2e-3l-1.332-2e-3c-1.4798 0.01-2.6677 1.1986-2.668 2.6777v3.3223z" fill="#a89a8c"/>
  <path d="m4.00005 28h4v-8h-4z" fill="#444443"/>
</svg>
