<svg version="1.1" viewBox="0 0 48 48" xmlns="http://www.w3.org/2000/svg">
  <rect x="11.1826" y="15.3179" width="30.1938" height="16.6992" fill="#60d1fe"/>
  <path d="m4.0001 27.9999h4l-1e-4 3.8411c-3.85e-5 1.4791 0.6792 2.159 2.159 2.159h31.68c1.47 0 2.161-0.6797 2.161-2.159v-15.672c0-1.4693-0.69-2.16895-2.17-2.169l-31.6705-1e-4c-1.4798 0.01-2.15923 0.69-2.15953 2.1691v3.8309h-4z" fill="none" stroke="#000" stroke-linejoin="round" stroke-width="2"/>
  <g transform="rotate(-90,24,24)">
    <path d="m22 35.111h-8v6.2188c0 1.47 1.1887 2.6699 2.668 2.6699h14.664c1.4693 0 2.668-1.1899 2.668-2.6699v-6.2188h-9.3926l-2.6074 4.8887z" fill="#ff5c00"/>
    <path d="m20 4v4h-3.332c-1.4791 0-2.668 1.1882-2.668 2.668v24.443h8v-6.1113h-4l8-15v11h4l-5.3926 10.111h9.3906l.002-24.443c-.01-1.4798-1.1986-2.6677-2.6777-2.668h-3.3223v-4z" fill="#444443"/>
  </g>
</svg>
