<svg width="22" height="22" version="1.1" xmlns="http://www.w3.org/2000/svg">
	<g fill="none" stroke="#000" stroke-linejoin="round" stroke-width="1.6">
		<g transform="matrix(.93992449 0 0 .93992449 1.6003517 1.6003969)" fill="none" stroke="#000" stroke-linejoin="round" stroke-width="1.7022644">
			<path d="m14.70815 11.4378-4.708 4.7081-4.708-4.7081-1.177 1.1771 5.885 5.8851 5.885-5.8851z"/>
			<path d="m14.70815 8.562-4.7081-4.7080996-4.7081 4.7080996-1.1771-1.1771 5.8851-5.8850996 5.8851 5.8850996-1.1771 1.1771z"/>
		</g>
	</g>
	<g transform="matrix(.93992449 0 0 .93992449 1.6003517 1.6003969)" fill="#bbb">
		<path d="m14.70815 11.4378-4.708 4.7081-4.708-4.7081-1.177 1.1771 5.885 5.8851 5.885-5.8851z"/>
		<path d="m14.70815 8.562-4.7081-4.7080996-4.7081 4.7080996-1.1771-1.1771 5.8851-5.8850996 5.8851 5.8850996-1.1771 1.1771z"/>
	</g>
</svg>
