<svg width="66" height="24" version="1.1" xmlns="http://www.w3.org/2000/svg">
	<g transform="translate(-2,2)" fill="none" stroke="#000" stroke-linecap="square" stroke-width="1.60000002">
		<path d="m12 7h-7v4h5v1h-5v1h7v-3h-5v-2h5v-1"/>
		<path d="m20 7v6h6v-1h-4v-5h-2"/>
		<path d="m13 7v6h2v-2h4v-4zm2 1h3v2h-3z"/>
		<path d="m30 7h6v1h-2v5h-2v-5h-2v-1"/>
		<rect x="27" y="7" width="2" height="6" style="paint-order:fill markers stroke"/>
		<path d="m49 7h-7v6h7v-1h-5v-4h5v-1"/>
		<path d="m51 7v6h7v-6h-2v5h-3v-5h-2"/>
		<path d="m60 7v6h5v-1h-3v-2h2v-1h-2v-1h3v-1h-5"/>
	</g>
	<g transform="translate(-2,2)" fill="#d2d2d1">
		<path d="m12 7h-7v4h5v1h-5v1h7v-3h-5v-2h5v-1"/>
		<path d="m20 7v6h6v-1h-4v-5h-2"/>
		<path d="m13 7v6h2v-2h4v-4zm2 1h3v2h-3z"/>
		<path d="m30 7h6v1h-2v5h-2v-5h-2v-1"/>
		<rect x="27" y="7" width="2" height="6" style="paint-order:fill markers stroke"/>
		<path d="m49 7h-7v6h7v-1h-5v-4h5v-1"/>
		<path d="m51 7v6h7v-6h-2v5h-3v-5h-2"/>
		<path d="m60 7v6h5v-1h-3v-2h2v-1h-2v-1h3v-1h-5"/>
	</g>
</svg>
