<svg width="66" height="24" version="1.1" xmlns="http://www.w3.org/2000/svg">
	<g transform="translate(-4,1)" fill="#0e0e0e">
		<path d="m14 8h-7v4h5v1h-5v1h7v-3h-5v-2h5v-1"/>
		<path d="m22 8v6h6v-1h-4v-5h-2"/>
		<path d="m15 8v6h2v-2h4v-4zm2 1h3v2h-3z"/>
		<path d="m32 8h6v1h-2v5h-2v-5h-2v-1"/>
		<rect x="29" y="8" width="2" height="6" style="paint-order:fill markers stroke"/>
		<g transform="translate(31,-1)">
			<path d="m20 9h-7v6h7v-1h-5v-4h5v-1"/>
			<path d="m22 9v6h7v-6h-2v5h-3v-5h-2"/>
			<path d="m31 9v6h5v-1h-3v-2h2v-1h-2v-1h3v-1h-5"/>
		</g>
	</g>
</svg>
