<svg width="30" height="30" version="1.1" xmlns="http://www.w3.org/2000/svg"><defs><linearGradient id="a" x1="13" x2="13" y1="1027.4" y2="1049.4" gradientTransform="matrix(1.087 0 0 1.087 1.9565 -1113.7)" gradientUnits="userSpaceOnUse"><stop stop-color="#242424" offset="0"/><stop stop-color="#101010" offset="1"/></linearGradient></defs><path d="m27.263 3.1936c.16756.31221.23765.67839.23766.9731v21.442c0 1.1431-.93572 2.1667-2.1667 2.1667h-21.167c-.79658 0-1.2985-.424-1.4917-.59546.17003.93933.76416 1.8197 1.8242 1.8197h21.979c1.108 0 2.022-.892 2.022-2l-.000235-22c-9e-6-.81658-.5387-1.4952-1.237-1.8065z" fill="#030303" opacity=".8"/><rect x="2.5" y="2.5" width="25" height="25" rx="2" ry="2" color="#000000" fill="url(#a)"/><path d="m4.1667 2c-1.191 0-2.1667.9757-2.1667 2.1667v21.667c0 1.1911.9757 2.1667 2.1667 2.1667h21.667c1.191 0 2.1667-.9756 2.1667-2.1667v-21.667c0-1.191-.9757-2.1667-2.1667-2.1667zm.325 1.0833h21.017c.60954 0 1.4083.7989 1.4083 1.4084v21.017c0 .6095-.7988 1.4084-1.4083 1.4084h-21.017c-.60954 0-1.4083-.7989-1.4083-1.4084v-21.017c0-.6095.7988-1.4084 1.4083-1.4084z" color="#000000" fill="#444" style="text-indent:0;text-transform:none"/><path d="m19.545 8.4-1.437 1.437c1.7154 1.0492 2.864 2.9336 2.864 5.0916 0 3.2966-2.6701 5.9668-5.9668 5.9668s-5.9668-2.6702-5.9668-5.9668c0-2.158 1.1486-4.0424 2.864-5.0916l-1.437-1.437c-2.0635 1.437-3.416 3.8236-3.416 6.5286 0 4.3955 3.5602 7.9556 7.9557 7.9556s7.9557-3.5601 7.9557-7.9556c0-2.705-1.3525-5.0916-3.416-6.5286z" fill="#d2d2d2"/><path d="m16 5h-1.9889v7h1.9889z" fill="#d2d2d2"/></svg>
