<svg width="23" height="18" version="1.1" xmlns="http://www.w3.org/2000/svg">
	<g transform="translate(-5)" fill="none" stroke="#0a0a0a" stroke-linecap="square" stroke-width="1.60000002">
		<path d="m24 6h3v6h-2v-5h-1v-1"/>
		<path d="m6 6v6h2v-3h4v-1h-4v-1h5v-1h-7"/>
		<path d="m14 11.5 2.25-2.25-2.25-2.25v-1h1.5l2 2 2-2h1.5v.5l-2.5 2.5 2.5 2.5v.5h-2l-1.75-1.75-1.75 1.75h-1.5z"/>
	</g>
	<g transform="translate(-5)" fill="#d2d2d1">
		<path d="m24 6h3v6h-2v-5h-1v-1"/>
		<path d="m6 6v6h2v-3h4v-1h-4v-1h5v-1h-7"/>
		<path d="m14 11.5 2.25-2.25-2.25-2.25v-1h1.5l2 2 2-2h1.5v.5l-2.5 2.5 2.5 2.5v.5h-2l-1.75-1.75-1.75 1.75h-1.5z"/>
	</g>
	<g transform="translate(-5)" fill="#d2d2d1">
		<path d="m24 6h3v6h-2v-5h-1v-1"/>
		<path d="m6 6v6h2v-3h4v-1h-4v-1h5v-1h-7"/>
		<path d="m14 11.5 2.25-2.25-2.25-2.25v-1h1.5l2 2 2-2h1.5v.5l-2.5 2.5 2.5 2.5v.5h-2l-1.75-1.75-1.75 1.75h-1.5z"/>
	</g>
</svg>
