<svg width="76" height="23" version="1.1" xmlns="http://www.w3.org/2000/svg" xmlns:xlink="http://www.w3.org/1999/xlink"><defs><linearGradient id="a" x1=".50003" x2="23.5" y1="-12" y2="-12" gradientTransform="matrix(.91304 0 0 3.2174 -21.957 1.1087)" gradientUnits="userSpaceOnUse"><stop stop-color="#d09300" offset="0"/><stop stop-color="#a06d00" offset="1"/></linearGradient></defs><rect transform="matrix(0,-1,-1,0,0,0)" x="-21.5" y="-74.5" width="21" height="74" rx="1.5" ry="1.5" color="#000000" fill="url(#a)" stroke-width="1.7139"/><path d="m2.0002 0c-1.0994 0-2 .90065-2 2l-1.675e-5 18c-1.023e-6 1.0994.90065 2 2 2h71c1.0994 0 2-.90065 2-2l1.7e-5-18c2e-6-1.0994-.90065-2-2-2zm.3 1h70.4c.56265 0 1.3.73735 1.3 1.3l-1.7e-5 17.4c0 .56265-.73735 1.3-1.3 1.3h-70.4c-.56265 0-1.3-.73735-1.3-1.3l1.68e-5-17.4c5e-7-.56265.73735-1.3 1.3-1.3z" color="#000000" fill="#979797" style="text-decoration-line:none;text-indent:0;text-transform:none"/><g fill="#0e0e0e"><path d="m14 8h-7v4h5v1h-5v1h7v-3h-5v-2h5v-1"/><path d="m22 8v6h6v-1h-4v-5h-2"/><path d="m15 8v6h2v-2h4v-4zm2 1h3v2h-3z"/><path d="m32 8h6v1h-2v5h-2v-5h-2v-1"/><rect x="29" y="8" width="2" height="6" style="paint-order:fill markers stroke"/><g transform="translate(31,-1)"><path d="m20 9h-7v6h7v-1h-5v-4h5v-1"/><path d="m22 9v6h7v-6h-2v5h-3v-5h-2"/><path d="m31 9v6h7v-1h-5v-2h4v-1h-4v-1h5v-1h-7"/></g></g></svg>
