<svg width="26" height="26" version="1.1" xmlns="http://www.w3.org/2000/svg"><defs><linearGradient id="a" x1=".5" x2="23.5" y1="12" y2="12" gradientTransform="translate(-24,-24)" gradientUnits="userSpaceOnUse"><stop stop-opacity=".17647" offset="0"/><stop stop-opacity=".0047619" offset=".12672"/><stop stop-opacity="0" offset=".54348"/><stop stop-opacity=".47451" offset="1"/></linearGradient></defs><rect transform="matrix(0,-1,-1,0,0,0)" x="-23.5" y="-23.5" width="23" height="23" rx="1.5" ry="1.5" color="#000000" fill="url(#a)"/><g><path d="m2 0c-1.0994 0-2 .90065-2 2v20c0 1.0994.90065 2 2 2h20c1.0994 0 2-.90065 2-2v-20c0-1.0994-.90065-2-2-2zm.3 1h19.4c.56265 0 1.3.73735 1.3 1.3v19.4c0 .56265-.73735 1.3-1.3 1.3h-19.4c-.56265 0-1.3-.73735-1.3-1.3v-19.4c0-.56265.73735-1.3 1.3-1.3z" color="#000000" fill="#c8c8c8" style="text-indent:0;text-transform:none"/><rect transform="scale(-1,1)" x="-18" y="7" width="2" height="10" fill="#b4b4b4" style="paint-order:markers fill stroke"/><path d="m5 17 9-10v10z" fill="#b4b4b4"/></g></svg>
