<?xml version="1.0" encoding="UTF-8" standalone="no"?>
<svg
   xmlns:dc="http://purl.org/dc/elements/1.1/"
   xmlns:cc="http://creativecommons.org/ns#"
   xmlns:rdf="http://www.w3.org/1999/02/22-rdf-syntax-ns#"
   xmlns:svg="http://www.w3.org/2000/svg"
   xmlns="http://www.w3.org/2000/svg"
   xmlns:sodipodi="http://sodipodi.sourceforge.net/DTD/sodipodi-0.dtd"
   xmlns:inkscape="http://www.inkscape.org/namespaces/inkscape"
   id="svg2"
   width="26"
   height="26"
   version="1.1"
   sodipodi:docname="btn_play_preview_overdown.svg"
   inkscape:version="0.92.3 (2405546, 2018-03-11)">
  <metadata
     id="metadata14">
    <rdf:RDF>
      <cc:Work
         rdf:about="">
        <dc:format>image/svg+xml</dc:format>
        <dc:type
           rdf:resource="http://purl.org/dc/dcmitype/StillImage" />
      </cc:Work>
    </rdf:RDF>
  </metadata>
  <sodipodi:namedview
     pagecolor="#ffffff"
     bordercolor="#666666"
     borderopacity="1"
     objecttolerance="10"
     gridtolerance="10"
     guidetolerance="10"
     inkscape:pageopacity="0"
     inkscape:pageshadow="2"
     inkscape:window-width="1366"
     inkscape:window-height="740"
     id="namedview12"
     showgrid="false"
     inkscape:zoom="9.0769231"
     inkscape:cx="0.38559322"
     inkscape:cy="13"
     inkscape:window-x="0"
     inkscape:window-y="0"
     inkscape:window-maximized="1"
     inkscape:current-layer="svg2" />
  <defs
     id="defs4">
    <linearGradient
       id="linearGradient5688"
       x1="13"
       x2="13"
       y1="1027.4"
       y2="1049.4"
       gradientTransform="translate(0 -1050.4)"
       gradientUnits="userSpaceOnUse">
      <stop
         id="stop3803-7-1-9"
         stop-color="#aa1112"
         offset="0" />
      <stop
         id="stop4329-4"
         stop-color="#b60607"
         offset=".28" />
      <stop
         id="stop3805-5-28-5"
         stop-color="#760607"
         offset="1" />
    </linearGradient>
  </defs>
  <rect
     id="rect3029"
     transform="scale(1,-1)"
     x=".5"
     y="-23.5"
     width="23"
     height="23"
     rx="2"
     ry="2"
     color="#000000"
     fill="url(#linearGradient5688)" />
  <path
     id="path5055"
     d="m2.6562 3.75e-4c-1.4658 1.4707e-5 -2.6562 1.1904-2.6562 2.6562v18.687c0 1.4658 1.1904 2.6563 2.6562 2.6562l18.687-1.88e-4c1.4658-1.4e-5 2.6562-1.1904 2.6562-2.6562v-18.687c0-1.4658-1.1904-2.6563-2.6562-2.6562zm0.125 1 18.437-1.875e-4c0.76725-7.8e-6 1.7812 1.014 1.7812 1.7812v18.437c0 0.76725-1.014 1.7812-1.7812 1.7812l-18.437 1.88e-4c-0.76725 8e-6 -1.7812-1.014-1.7812-1.7812v-18.437c0-0.76725 1.014-1.7812 1.7812-1.7812z"
     color="#000000"
     fill="#979797"
     style="block-progression:tb;text-indent:0;text-transform:none" />
  <path
     inkscape:connector-curvature="0"
     style="fill:#320202"
     id="path3940-3-2-6-7"
     d="M 11,7 V 18 H 8 v 1 h 4 V 7 Z" />
  <path
     inkscape:connector-curvature="0"
     style="fill:#320202"
     id="path3944-5-7-1-5"
     d="m 17,7 v 11 h -3 v 1 h 4 V 7 Z" />
  <path
     inkscape:connector-curvature="0"
     style="fill:#8d8f90"
     id="path3940-9-7-2"
     d="m 7,6 h 4 V 18 H 7 V 6" />
  <path
     inkscape:connector-curvature="0"
     style="fill:#8d8f90"
     id="path3944-3-9-2"
     d="m 13,6 v 12 h 4 V 6 h -4" />
</svg>
