<?xml version="1.0" encoding="UTF-8"?>
<!-- Created with Inkscape (http://www.inkscape.org/) -->
<svg id="svg14046" width="26" height="26" version="1.1" xmlns="http://www.w3.org/2000/svg" xmlns:cc="http://creativecommons.org/ns#" xmlns:dc="http://purl.org/dc/elements/1.1/" xmlns:rdf="http://www.w3.org/1999/02/22-rdf-syntax-ns#">
 <metadata id="metadata14058">
  <rdf:RDF>
   <cc:Work rdf:about="">
    <dc:format>image/svg+xml</dc:format>
    <dc:type rdf:resource="http://purl.org/dc/dcmitype/StillImage"/>
    <dc:title/>
   </cc:Work>
  </rdf:RDF>
 </metadata>
 <g id="layer1" fill="#8d8f90">
  <path id="path14050" d="m4.0002 8.1879 1.4999 1.1561-2.5e-4 6.6559c-2.1e-5 0.57129 0.92882 1.5001 1.5001 1.5001l7-6.2e-5v-3l7 3.75-7 3.75v-3l-7 6.3e-5c-1.6447 1.4e-5 -3-1.3553-3-3z" color="#000000"/>
  <path id="path14050-3" d="m20 15.812-1.4999-1.1561 2.5e-4 -6.6559c2.5e-5 -0.66867-0.78276-1.5001-1.5001-1.5001l-7 6.2e-5v3l-7-3.75 7-3.75v3l7-6.25e-5c1.6447-1.47e-5 3 1.3553 3 3z" color="#000000"/>
 </g>
 <g id="layer2" display="none" fill="#bfbfbf">
  <path id="path14050-36" d="m4.0002 8.1879 1.4999 1.1561-2.5e-4 6.6559c-2.1e-5 0.57129 0.92882 1.5001 1.5001 1.5001l7-6.2e-5v-3l7 3.75-7 3.75v-3l-7 6.3e-5c-1.6447 1.4e-5 -3-1.3553-3-3z" color="#000000"/>
  <path id="path14050-3-7" d="m20 15.812-1.4999-1.1561 2.5e-4 -6.6559c2.5e-5 -0.66867-0.78276-1.5001-1.5001-1.5001l-7 6.2e-5v3l-7-3.75 7-3.75v3l7-6.25e-5c1.6447-1.47e-5 3 1.3553 3 3z" color="#000000"/>
 </g>
</svg>
