<?xml version="1.0" encoding="UTF-8" standalone="no"?>
<!-- Created with Inkscape (http://www.inkscape.org/) -->

<svg
   xmlns:dc="http://purl.org/dc/elements/1.1/"
   xmlns:cc="http://creativecommons.org/ns#"
   xmlns:rdf="http://www.w3.org/1999/02/22-rdf-syntax-ns#"
   xmlns:svg="http://www.w3.org/2000/svg"
   xmlns="http://www.w3.org/2000/svg"
   xmlns:xlink="http://www.w3.org/1999/xlink"
   xmlns:sodipodi="http://sodipodi.sourceforge.net/DTD/sodipodi-0.dtd"
   xmlns:inkscape="http://www.inkscape.org/namespaces/inkscape"
   version="1.1"
   width="39"
   height="22"
   id="svg4724"
   sodipodi:docname="btn_fxExpand.svg"
   inkscape:version="0.92.3 (unknown)">
  <sodipodi:namedview
     pagecolor="#ffffff"
     bordercolor="#666666"
     borderopacity="1"
     objecttolerance="10"
     gridtolerance="10"
     guidetolerance="10"
     inkscape:pageopacity="0"
     inkscape:pageshadow="2"
     inkscape:window-width="1366"
     inkscape:window-height="740"
     id="namedview2385"
     showgrid="false"
     inkscape:zoom="6.8974359"
     inkscape:cx="2.8996283"
     inkscape:cy="12"
     inkscape:window-x="0"
     inkscape:window-y="0"
     inkscape:window-maximized="1"
     inkscape:current-layer="svg4724" />
  <defs
     id="defs4726">
    <linearGradient
       id="linearGradient5766">
      <stop
         id="stop5768"
         style="stop-color:#c8c8c8;stop-opacity:1"
         offset="0" />
      <stop
         id="stop5770"
         style="stop-color:#646464;stop-opacity:1"
         offset="1" />
    </linearGradient>
    <linearGradient
       x1="13"
       y1="1027.3622"
       x2="13"
       y2="1049.3622"
       id="linearGradient3807-3"
       xlink:href="#linearGradient3801-6"
       gradientUnits="userSpaceOnUse"
       gradientTransform="translate(0,-1026.3622)" />
    <linearGradient
       id="linearGradient3801-6">
      <stop
         id="stop3803-7"
         style="stop-color:#242424;stop-opacity:1"
         offset="0" />
      <stop
         id="stop3805-5"
         style="stop-color:#101010;stop-opacity:1"
         offset="1" />
    </linearGradient>
    <linearGradient
       x1="13"
       y1="1027.3622"
       x2="13"
       y2="1049.3622"
       id="linearGradient5254"
       xlink:href="#linearGradient3801-6"
       gradientUnits="userSpaceOnUse"
       gradientTransform="matrix(1.4782608,0,0,0.82608634,1.7608695,182.58539)" />
    <linearGradient
       x1="20"
       y1="1042.3622"
       x2="20"
       y2="1035.3622"
       id="linearGradient5772"
       xlink:href="#linearGradient5766"
       gradientUnits="userSpaceOnUse" />
    <linearGradient
       x1="20"
       y1="1042.3622"
       x2="20"
       y2="1035.3622"
       id="linearGradient5772-2"
       xlink:href="#linearGradient5766-9"
       gradientUnits="userSpaceOnUse" />
    <linearGradient
       id="linearGradient5766-9">
      <stop
         id="stop5768-1"
         style="stop-color:#c8c8c8;stop-opacity:1"
         offset="0" />
      <stop
         id="stop5770-2"
         style="stop-color:#646464;stop-opacity:1"
         offset="1" />
    </linearGradient>
  </defs>
  <metadata
     id="metadata4729">
    <rdf:RDF>
      <cc:Work
         rdf:about="">
        <dc:format>image/svg+xml</dc:format>
        <dc:type
           rdf:resource="http://purl.org/dc/dcmitype/StillImage" />
        <dc:title></dc:title>
      </cc:Work>
    </rdf:RDF>
  </metadata>
  <g
     transform="translate(0,-1030.3622)"
     id="layer1">
    <rect
       width="35"
       height="20"
       rx="2"
       ry="2"
       x="4"
       y="1032.3622"
       id="rect3029-6"
       style="color:#000000;display:inline;overflow:visible;visibility:visible;opacity:0.62085308;fill:#060606;fill-opacity:1;fill-rule:nonzero;stroke:none;stroke-width:1;marker:none;enable-background:accumulate" />
    <rect
       width="35"
       height="20"
       rx="2"
       ry="2"
       x="3"
       y="1031.3622"
       id="rect3029-6-6"
       style="color:#000000;display:inline;overflow:visible;visibility:visible;opacity:0.72000002;fill:#000000;fill-opacity:1;fill-rule:nonzero;stroke:none;stroke-width:1;marker:none;enable-background:accumulate" />
    <rect
       width="34"
       height="19"
       rx="2"
       ry="1.9999999"
       x="2.5"
       y="1030.8622"
       id="rect3029"
       style="color:#000000;display:inline;overflow:visible;visibility:visible;fill:url(#linearGradient5254);fill-opacity:1;fill-rule:nonzero;stroke:none;stroke-width:1;marker:none;enable-background:accumulate" />
    <g
       transform="translate(42,1026.3622)"
       id="layer14"
       style="display:none">
      <path
         d="m 10,10 h 7 v 4 h -5 v 1 h 5 v 1 h -7 v -3 h 5 v -2 h -5 v -1"
         id="path5770-89-8-1"
         style="display:inline;fill:#060606;fill-opacity:1;stroke:none"
         inkscape:connector-curvature="0" />
      <path
         d="m 9,9 h 7 v 4 h -5 v 1 h 5 v 1 H 9 v -3 h 5 V 10 H 9 V 9"
         id="path5770-8-5-6-8"
         style="display:inline;fill:#bfbfbf;fill-opacity:1;stroke:none"
         inkscape:connector-curvature="0" />
    </g>
    <g
       transform="translate(42,1026.3622)"
       id="layer18"
       style="display:none">
      <path
         d="m 10,10 h 7 v 6 h -7 v -1 h 5 v -1 h -2 v -1 h 2 v -2 h -5 v -1"
         id="path6542-5-0"
         style="display:inline;fill:#060606;fill-opacity:1;stroke:none"
         inkscape:connector-curvature="0" />
      <path
         d="m 9,9 h 7 v 6 H 9 v -1 h 5 v -1 h -2 v -1 h 2 V 10 H 9 V 9"
         id="path6542-3"
         style="display:inline;fill:#bfbfbf;fill-opacity:1;stroke:none"
         inkscape:connector-curvature="0" />
    </g>
    <g
       transform="translate(42,1026.3622)"
       id="layer22"
       style="display:none">
      <path
         d="m 10,11 v 3 h 5 v 2 h 2 v -6 h -2 v 3 h -3 v -2 h -2"
         id="path6751-9"
         style="display:inline;fill:#060606;fill-opacity:1;stroke:none"
         inkscape:connector-curvature="0" />
      <path
         d="m 9,10 v 3 h 5 v 2 h 2 V 9 h -2 v 3 H 11 V 10 H 9"
         id="path6751"
         style="fill:#bfbfbf;fill-opacity:1;stroke:none"
         inkscape:connector-curvature="0" />
    </g>
    <path
       d="m 4.5,1030.8622 c -1.099351,0 -2,0.9006 -2,2 v 1.5 h 34 v -1.5 c 0,-1.0994 -0.900649,-2 -2,-2 z"
       id="rect3029-96-0-7"
       style="color:#000000;font-style:normal;font-variant:normal;font-weight:normal;font-stretch:normal;font-size:medium;line-height:normal;font-family:Sans;-inkscape-font-specification:Sans;text-indent:0;text-align:start;text-decoration:none;text-decoration-line:none;letter-spacing:normal;word-spacing:normal;text-transform:none;writing-mode:lr-tb;direction:ltr;baseline-shift:baseline;text-anchor:start;display:inline;overflow:visible;visibility:visible;fill:#666666;fill-opacity:1;fill-rule:nonzero;stroke:none;stroke-width:1;marker:none;enable-background:accumulate"
       inkscape:connector-curvature="0" />
    <path
       d="m 4,1030.3622 c -1.099351,0 -2,0.9006 -2,2 v 16 c 0,1.0994 0.900649,2 2,2 h 31 c 1.099351,0 2,-0.9006 2,-2 v -16 c 0,-1.0994 -0.900649,-2 -2,-2 z m 0.3,1 h 30.4 c 0.562649,0 1.3,0.7374 1.3,1.3 v 15.4 c 0,0.5626 -0.737351,1.3 -1.3,1.3 H 4.3 c -0.562649,0 -1.3,-0.7374 -1.3,-1.3 v -15.4 c 0,-0.5626 0.737351,-1.3 1.3,-1.3 z"
       id="rect3029-96-0"
       style="color:#000000;font-style:normal;font-variant:normal;font-weight:normal;font-stretch:normal;font-size:medium;line-height:normal;font-family:Sans;-inkscape-font-specification:Sans;text-indent:0;text-align:start;text-decoration:none;text-decoration-line:none;letter-spacing:normal;word-spacing:normal;text-transform:none;writing-mode:lr-tb;direction:ltr;baseline-shift:baseline;text-anchor:start;display:inline;overflow:visible;visibility:visible;fill:url(#linearGradient5772);fill-opacity:1;fill-rule:nonzero;stroke:none;stroke-width:1;marker:none;enable-background:accumulate"
       inkscape:connector-curvature="0" />
  </g>
</svg>
