<?xml version="1.0" encoding="UTF-8" standalone="no"?>
<!-- Created with Inkscape (http://www.inkscape.org/) -->

<svg
   xmlns:dc="http://purl.org/dc/elements/1.1/"
   xmlns:cc="http://creativecommons.org/ns#"
   xmlns:rdf="http://www.w3.org/1999/02/22-rdf-syntax-ns#"
   xmlns:svg="http://www.w3.org/2000/svg"
   xmlns="http://www.w3.org/2000/svg"
   xmlns:xlink="http://www.w3.org/1999/xlink"
   xmlns:sodipodi="http://sodipodi.sourceforge.net/DTD/sodipodi-0.dtd"
   xmlns:inkscape="http://www.inkscape.org/namespaces/inkscape"
   version="1.1"
   width="26"
   height="26"
   id="svg4272"
   inkscape:version="0.48.4 r9939"
   sodipodi:docname="btn_rewind.svg">
  <sodipodi:namedview
     pagecolor="#ffffff"
     bordercolor="#666666"
     borderopacity="1"
     objecttolerance="10"
     gridtolerance="10"
     guidetolerance="10"
     inkscape:pageopacity="0"
     inkscape:pageshadow="2"
     inkscape:window-width="1366"
     inkscape:window-height="740"
     id="namedview4815"
     showgrid="true"
     inkscape:zoom="72.615385"
     inkscape:cx="12.95725"
     inkscape:cy="16.75472"
     inkscape:window-x="0"
     inkscape:window-y="0"
     inkscape:window-maximized="1"
     inkscape:current-layer="svg4272"
     inkscape:object-nodes="true">
    <inkscape:grid
       type="xygrid"
       id="grid9036" />
  </sodipodi:namedview>
  <metadata
     id="metadata4284">
    <rdf:RDF>
      <cc:Work
         rdf:about="">
        <dc:format>image/svg+xml</dc:format>
        <dc:type
           rdf:resource="http://purl.org/dc/dcmitype/StillImage" />
        <dc:title></dc:title>
      </cc:Work>
    </rdf:RDF>
  </metadata>
  <defs
     id="defs4282">
    <linearGradient
       id="linearGradient3801-6">
      <stop
         id="stop3803-7"
         style="stop-color:#242424;stop-opacity:1"
         offset="0" />
      <stop
         id="stop3805-5"
         style="stop-color:#101010;stop-opacity:1"
         offset="1" />
    </linearGradient>
    <linearGradient
       x1="15"
       y1="1049.3622"
       x2="15"
       y2="1027.3622"
       id="linearGradient4370"
       xlink:href="#linearGradient3801-6-9-0"
       gradientUnits="userSpaceOnUse"
       gradientTransform="translate(0,-1026.3622)" />
    <linearGradient
       id="linearGradient3801-6-9-0">
      <stop
         id="stop3803-7-1-9"
         style="stop-color:#aa1112;stop-opacity:1"
         offset="0" />
      <stop
         id="stop4329-4"
         style="stop-color:#b60607;stop-opacity:1"
         offset="0.28" />
      <stop
         id="stop3805-5-28-5"
         style="stop-color:#760607;stop-opacity:1"
         offset="1" />
    </linearGradient>
    <linearGradient
       x1="15"
       y1="1049.3622"
       x2="15"
       y2="1027.3622"
       id="linearGradient11030"
       xlink:href="#linearGradient3801-6-9-0"
       gradientUnits="userSpaceOnUse"
       gradientTransform="translate(0,-1026.3622)" />
    <linearGradient
       x1="11"
       y1="1027.3622"
       x2="11"
       y2="1049.3622"
       id="linearGradient4650"
       xlink:href="#linearGradient3801-6-9-9"
       gradientUnits="userSpaceOnUse"
       gradientTransform="translate(0,-1050.3622)" />
    <linearGradient
       id="linearGradient3801-6-9-9">
      <stop
         id="stop3803-7-1-95"
         style="stop-color:#ce0e0e;stop-opacity:1"
         offset="0" />
      <stop
         id="stop4329-2"
         style="stop-color:#dd0000;stop-opacity:1"
         offset="0.28" />
      <stop
         id="stop3805-5-28-1"
         style="stop-color:#8d0000;stop-opacity:1"
         offset="1" />
    </linearGradient>
    <linearGradient
       gradientTransform="translate(0,-1026.3622)"
       inkscape:collect="always"
       xlink:href="#linearGradient3801-6-7"
       id="linearGradient3807-3"
       x1="13"
       y1="1027.3622"
       x2="13"
       y2="1049.3622"
       gradientUnits="userSpaceOnUse" />
    <linearGradient
       id="linearGradient3801-6-7">
      <stop
         style="stop-color:#242424;stop-opacity:1;"
         offset="0"
         id="stop3803-7-9" />
      <stop
         style="stop-color:#101010;stop-opacity:1;"
         offset="1"
         id="stop3805-5-2" />
    </linearGradient>
  </defs>
  <g
     id="layer3"
     style="display:none">
    <path
       d="m 6,6.000125 c -1.644703,-1.028e-4 -3,1.355297 -3,3 l 0,7.00025 c 0,1.644705 1.355294,3.000023 3,3 l 1.00025,-1.25e-4 0,3 6.99975,-3.75 -6.999875,-3.750062 0,3 -1.00025,1.24e-4 C 5.2530103,17.500405 4.4999724,16.733185 4.5,16.000375 l 0,-7.00025 C 4.5,8.288378 5.2670519,7.500188 6,7.500188 L 8,7.500312 8,6.00025 z"
       id="path4276"
       style="color:#000000;fill:#8d8f90;fill-opacity:1;marker:none;overflow:visible" />
    <path
       d="m 10,3 2,0 0,8 -2,0 z"
       id="path3871"
       style="color:#000000;fill:#8d8f90;fill-opacity:1;marker:none;overflow:visible" />
    <path
       d="m 16,6.000125 c 1.644703,-1.028e-4 3,1.355297 3,3 l 0,7.00025 c 0,1.644705 -1.355294,3.000023 -3,3 l -1.00025,-6.3e-5 5e-4,-1.500124 1.00025,6.2e-5 c 0.78903,4.9e-5 1.499527,-0.788131 1.4995,-1.499875 l 0,-7.00025 c 0,-0.725791 -0.753266,-1.499914 -1.500125,-1.499937 l -1.99975,1.25e-4 1.25e-4,-1.500063 z"
       id="path4278"
       style="color:#000000;fill:#8d8f90;fill-opacity:1;marker:none;overflow:visible" />
  </g>
  <rect
     style="opacity:0.62085308;color:#000000;fill:#060606;fill-opacity:1;fill-rule:nonzero;stroke:none;stroke-width:1;marker:none;visibility:visible;display:inline;overflow:visible;enable-background:accumulate"
     id="rect3029-6"
     width="24"
     height="24"
     x="2"
     y="2"
     rx="2"
     ry="2" />
  <rect
     style="opacity:0.72000002;color:#000000;fill:#000000;fill-opacity:1;fill-rule:nonzero;stroke:none;stroke-width:1;marker:none;visibility:visible;display:inline;overflow:visible;enable-background:accumulate"
     id="rect3029-6-6"
     width="24"
     height="24"
     x="1"
     y="1"
     rx="2"
     ry="2" />
  <rect
     style="color:#000000;fill:url(#linearGradient3807-3);fill-opacity:1;fill-rule:nonzero;stroke:none;stroke-width:1;marker:none;visibility:visible;display:inline;overflow:visible;enable-background:accumulate"
     id="rect3029"
     width="23"
     height="23.000017"
     x="0.5"
     y="0.49998301"
     rx="2"
     ry="2" />
  <path
     d="M 12,7 4.5,12.000278 12,17.000556 12,7"
     id="path3936-0-9-5"
     style="fill:#bfbfbf;fill-opacity:1;stroke:none;display:inline"
     inkscape:connector-curvature="0" />
  <path
     style="font-size:medium;font-style:normal;font-variant:normal;font-weight:normal;font-stretch:normal;text-indent:0;text-align:start;text-decoration:none;line-height:normal;letter-spacing:normal;word-spacing:normal;text-transform:none;direction:ltr;block-progression:tb;writing-mode:lr-tb;text-anchor:start;baseline-shift:baseline;color:#000000;fill:#585858;fill-opacity:1;fill-rule:nonzero;stroke:none;stroke-width:1;marker:none;visibility:visible;display:inline;overflow:visible;enable-background:accumulate;font-family:Sans;-inkscape-font-specification:Sans"
     d="M 2,0 C 0.90064862,0 0,0.90064862 0,2 l 0,20 c 0,1.099351 0.90064862,2 2,2 l 20,0 c 1.099351,0 2,-0.900649 2,-2 L 24,2 C 24,0.90064862 23.099351,0 22,0 z M 2.3,1 21.7,1 C 22.262649,1 23,1.7373514 23,2.3 l 0,19.4 C 23,22.262649 22.262649,23 21.7,23 L 2.3,23 C 1.7373514,23 1,22.262649 1,21.7 L 1,2.3 C 1,1.7373514 1.7373514,1 2.3,1 z"
     id="rect3029-96-0"
     inkscape:connector-curvature="0"
     sodipodi:nodetypes="ssssssssssssssssss" />
  <path
     d="m 13,7.6700615 c -0.274022,0.1508168 -0.628671,0.3644856 -1,0.625 l 0,8.7054945 1,0.670062 z"
     id="path3936-0-9-4-4"
     style="fill:#060606;fill-opacity:1;stroke:none;display:inline"
     inkscape:connector-curvature="0"
     sodipodi:nodetypes="ccccc" />
  <path
     d="M 18,7 10.5,12.000278 18,17.000556 18,7"
     id="path3936-0-9-5-9"
     style="fill:#bfbfbf;fill-opacity:1;stroke:none;display:inline"
     inkscape:connector-curvature="0" />
  <path
     d="m 19,7.6700615 c -0.274022,0.1508168 -0.628671,0.3644856 -1,0.625 l 0,8.7054945 1,0.670062 z"
     id="path3936-0-9-4-4-3"
     style="fill:#060606;fill-opacity:1;stroke:none;display:inline"
     inkscape:connector-curvature="0"
     sodipodi:nodetypes="ccccc" />
</svg>
