<svg width="22" height="22" version="1.1" xmlns="http://www.w3.org/2000/svg">
	<path d="m11 4.5281718c-3.725 0-6.75 3.025-6.75 6.7499982 0 .03983-.0009401.07667 0 .125v.21875c-.75815.64202-1.25 1.585-1.25 2.6562 0 1.933 1.567 3.5 3.5 3.5v-7c-.24162 0-.49091.01588-.71875.0625.21566-2.7030982 2.4594-4.8124982 5.2188-4.8124982 2.753 0 4.9939 2.1183 5.2188 4.8124982-.22784-.04662-.47712-.0625-.71875-.0625v7c1.933 0 3.5-1.567 3.5-3.5 0-1.0873-.50338-2.0455-1.2812-2.6875.0061-.10559.03125-.20307.03125-.3125 0-3.7249982-3.025-6.7499982-6.75-6.7499982z" color="#000000" fill="none" stroke="#000" stroke-linecap="round" stroke-linejoin="round" stroke-width="1.60000002" style="text-indent:0;text-transform:none"/>
	<path d="m11 4.5281718c-3.725 0-6.75 3.025-6.75 6.7499982 0 .03983-.0009401.07667 0 .125v.21875c-.75815.64202-1.25 1.585-1.25 2.6562 0 1.933 1.567 3.5 3.5 3.5v-7c-.24162 0-.49091.01588-.71875.0625.21566-2.7030982 2.4594-4.8124982 5.2188-4.8124982 2.753 0 4.9939 2.1183 5.2188 4.8124982-.22784-.04662-.47712-.0625-.71875-.0625v7c1.933 0 3.5-1.567 3.5-3.5 0-1.0873-.50338-2.0455-1.2812-2.6875.0061-.10559.03125-.20307.03125-.3125 0-3.7249982-3.025-6.7499982-6.75-6.7499982z" color="#000000" fill="#bfbfbf" style="text-indent:0;text-transform:none"/>
</svg>
