<?xml version="1.0" encoding="UTF-8" standalone="no"?>
<svg
   xmlns:dc="http://purl.org/dc/elements/1.1/"
   xmlns:cc="http://creativecommons.org/ns#"
   xmlns:rdf="http://www.w3.org/1999/02/22-rdf-syntax-ns#"
   xmlns:svg="http://www.w3.org/2000/svg"
   xmlns="http://www.w3.org/2000/svg"
   id="svg2"
   width="76"
   height="22"
   version="1.1">
  <metadata
     id="metadata29">
    <rdf:RDF>
      <cc:Work
         rdf:about="">
        <dc:format>image/svg+xml</dc:format>
        <dc:type
           rdf:resource="http://purl.org/dc/dcmitype/StillImage" />
        <dc:title></dc:title>
      </cc:Work>
    </rdf:RDF>
  </metadata>
  <defs
     id="defs4">
    <linearGradient
       id="linearGradient3807-3"
       x1="13"
       x2="13"
       y1="1027.4"
       y2="1049.4"
       gradientTransform="matrix(2.1304,0,0,1,0.43478,-1026.4)"
       gradientUnits="userSpaceOnUse">
      <stop
         id="stop3803-7"
         stop-color="#242424"
         offset="0" />
      <stop
         id="stop3805-5"
         stop-color="#101010"
         offset="1" />
    </linearGradient>
  </defs>
  <g
     id="g888"
     style="fill:#080808;fill-opacity:1">
    <path
       style="fill:#080808;fill-opacity:1"
       id="path5554-5-9"
       d="M 15,8 H 9 v 2 h 1 V 9 h 5 V 8" />
    <path
       style="fill:#080808;fill-opacity:1"
       id="path5558-4-5"
       d="m 14,11 h 1 v 3 H 8 v -1 h 6 v -2" />
    <path
       style="fill:#080808;fill-opacity:1"
       d="m 23,8 v 6 h 6 V 13 H 25 V 8 h -2"
       id="path3466-9-1" />
    <path
       style="fill:#080808;fill-opacity:1"
       d="m 16,8 v 6 h 2 v -2 h 4 V 8 Z m 2,1 h 3 v 2 h -3 z"
       id="path3458-3-8-9" />
    <path
       style="fill:#080808;fill-opacity:1"
       d="m 33,8 h 6 v 1 h -2 v 5 H 35 V 9 H 33 V 8"
       id="path3454-3" />
    <path
       style="fill:#080808;fill-opacity:1;stroke:none;stroke-width:1px;stroke-linecap:butt;stroke-linejoin:miter;stroke-opacity:1"
       d="m 30,13 v 1 h 2 V 8 h -1 v 5 z"
       id="path887" />
    <path
       style="fill:#080808;fill-opacity:1"
       id="path5562-7-0"
       d="m 12,11 v 1 H 8 v -1 h 4" />
    <g
       transform="translate(31,-2)"
       id="g6078-0-7"
       style="fill:#080808;fill-opacity:1">
      <path
         id="path6050-9-6"
         d="m 21,10 h -6 v 4 h 1 v -3 h 5 v -1"
         style="fill:#080808;fill-opacity:1" />
      <path
         id="path6054-6-3"
         d="m 21,15 v 1 h -7 v -1 h 7"
         style="fill:#080808;fill-opacity:1" />
      <path
         id="path6058-3-1"
         d="m 24,10 h 1 v 4 h -1 v -4"
         style="fill:#080808;fill-opacity:1" />
      <path
         id="path6062-8-7"
         d="m 23,15 v 1 h 7 v -6 h -1 v 5 h -6"
         style="fill:#080808;fill-opacity:1" />
      <path
         id="path6066-5-5"
         d="m 39,10 h -6 v 1 h 6 v -1"
         style="fill:#080808;fill-opacity:1" />
      <path
         id="path6070-6-9"
         d="m 38,12 h -5 v 2 h 1 v -1 h 4 v -1"
         style="fill:#080808;fill-opacity:1" />
      <path
         id="path6074-1-6"
         d="m 39,15 v 1 h -7 v -1 h 7"
         style="fill:#080808;fill-opacity:1" />
    </g>
  </g>
  <g
     id="g871"
     style="fill:#8d8f90;fill-opacity:1">
    <path
       style="fill:#8d8f90;fill-opacity:1"
       id="path5532-3-9"
       d="M 14,7 H 7 v 4 h 5 v 1 H 7 v 1 h 7 V 10 H 9 V 8 h 5 V 7" />
    <path
       style="fill:#8d8f90;fill-opacity:1"
       d="m 22,7 v 6 h 6 V 12 H 24 V 7 h -2"
       id="path3466-9" />
    <path
       style="fill:#8d8f90;fill-opacity:1"
       d="m 15,7 v 6 h 2 v -2 h 4 V 7 Z m 2,1 h 3 v 2 h -3 z"
       id="path3458-3-8" />
    <path
       style="fill:#8d8f90;fill-opacity:1"
       d="m 32,7 h 6 v 1 h -2 v 5 H 34 V 8 H 32 V 7"
       id="path3454" />
    <rect
       style="opacity:1;fill:#8d8f90;fill-opacity:1;stroke:none;stroke-width:1;stroke-linecap:round;stroke-linejoin:round;stroke-miterlimit:4;stroke-dasharray:none;stroke-opacity:1;paint-order:fill markers stroke"
       id="rect885"
       width="2"
       height="6"
       x="29"
       y="7" />
    <path
       d="m 51,7 h -7 v 6 h 7 V 12 H 46 V 8 h 5 V 7"
       id="path6038-8-4"
       style="fill:#8d8f90;fill-opacity:1" />
    <path
       d="m 53,7 v 6 h 7 V 7 h -2 v 5 H 55 V 7 h -2"
       id="path6042-8-4"
       style="fill:#8d8f90;fill-opacity:1" />
    <path
       d="m 62,7 v 6 h 7 v -1 h -5 v -2 h 4 V 9 H 64 V 8 h 5 V 7 h -7"
       id="path6046-5-4"
       style="fill:#8d8f90;fill-opacity:1" />
  </g>
</svg>
