<!-- Created with Inkscape (http://www.inkscape.org/) -->
<svg id="svg2" xmlns:rdf="http://www.w3.org/1999/02/22-rdf-syntax-ns#" xmlns="http://www.w3.org/2000/svg" height="26" width="26" version="1.1" xmlns:cc="http://creativecommons.org/ns#" xmlns:xlink="http://www.w3.org/1999/xlink" xmlns:dc="http://purl.org/dc/elements/1.1/">
 <defs id="defs4">
  <linearGradient id="linearGradient3807-3" y2="1049.4" gradientUnits="userSpaceOnUse" x2="13" gradientTransform="translate(0,-1026.3622)" y1="1027.4" x1="13">
   <stop id="stop3803-7" stop-color="#242424" offset="0"/>
   <stop id="stop3805-5" stop-color="#101010" offset="1"/>
  </linearGradient>
  <linearGradient id="linearGradient3878" y2="1027.4" gradientUnits="userSpaceOnUse" x2="15" gradientTransform="translate(0,-1026.3622)" y1="1049.4" x1="15">
   <stop id="stop3803-7-6" stop-color="#222" offset="0"/>
   <stop id="stop3805-5-2" stop-color="#131516" offset="1"/>
  </linearGradient>
  <linearGradient id="linearGradient4370" y2="1027.4" gradientUnits="userSpaceOnUse" x2="15" gradientTransform="translate(0,-1026.3622)" y1="1049.4" x1="15">
   <stop id="stop3803-7-1-9" stop-color="#aa1112" offset="0"/>
   <stop id="stop4329-4" stop-color="#b60607" offset="0.28"/>
   <stop id="stop3805-5-28-5" stop-color="#760607" offset="1"/>
  </linearGradient>
  <linearGradient id="linearGradient7165" y2="1049.4" gradientUnits="userSpaceOnUse" x2="11" gradientTransform="translate(1.31e-6,-1026.3622)" y1="1027.4" x1="11">
   <stop id="stop3803-7-1-95" stop-color="#ce520e" offset="0"/>
   <stop id="stop4329-2" stop-color="#dd4e00" offset="0.28"/>
   <stop id="stop3805-5-28-1" stop-color="#8d3200" offset="1"/>
  </linearGradient>
 </defs>
 <metadata id="metadata7">
  <rdf:RDF>
   <cc:Work rdf:about="">
    <dc:format>image/svg+xml</dc:format>
    <dc:type rdf:resource="http://purl.org/dc/dcmitype/StillImage"/>
    <dc:title/>
   </cc:Work>
  </rdf:RDF>
 </metadata>
 <g id="layer3" display="none">
  <rect id="rect3029-9" style="enable-background:accumulate;color:#000000;" fill-rule="nonzero" rx="2" ry="2" height="23" width="23" y="0.49998" x="0.5" fill="url(#linearGradient3878)"/>
  <g id="layer7" display="none">
   <path id="path3944-9" fill="#8d8f90" d="m10,9,3,0,0,6-2,0,0-5-1,0,0-1"/>
   <path id="path3948-7" fill="#080808" d="m13,10,1,0,0,6-2,0,0-1,1,0,0-5"/>
  </g>
  <g id="layer13" display="none">
   <path id="path5770-89-8" fill="#080808" d="m10,10,7,0,0,4-5,0,0,1,5,0,0,1-7,0,0-3,5,0,0-2-5,0,0-1"/>
   <path id="path5770-8-5-6" fill="#8d8f90" d="m9,9,7,0,0,4-5,0,0,1,5,0,0,1-7,0,0-3,5,0,0-2-5,0,0-1"/>
  </g>
  <g id="layer19" display="none">
   <path id="path6542-5" fill="#080808" d="m10,10,7,0,0,6-7,0,0-1,5,0,0-1-2,0,0-1,2,0,0-2-5,0,0-1"/>
   <path id="path6542" fill="#8d8f90" d="m9,9,7,0,0,6-7,0,0-1,5,0,0-1-2,0,0-1,2,0,0-2-5,0,0-1"/>
  </g>
  <g id="layer23">
   <path id="path6751-9-1-3-1" fill="#080808" d="m10,11,0,3,5,0,0,2,2,0,0-6-2,0,0,3-3,0,0-2-2,0"/>
   <path id="path6751-6-3-5" fill="#8d8f90" d="m9,10,0,3,5,0,0,2,2,0,0-6-2,0,0,3-3,0,0-2-2,0"/>
  </g>
  <path id="rect3029-96-0-9" fill-rule="nonzero" style="baseline-shift:baseline;block-progression:tb;color:#000000;direction:ltr;text-indent:0;text-align:start;enable-background:accumulate;text-transform:none;" fill="#454748" d="M2,0c-1.0994,0-2,0.90065-2,2v20c0,1.0994,0.90065,2,2,2h20c1.0994,0,2-0.90065,2-2v-20c0-1.0994-0.901-2-2-2zm0.3,1,19.4,0c0.563,0,1.3,0.7374,1.3,1.3v19.4c0,0.563-0.737,1.3-1.3,1.3h-19.4c-0.5626,0-1.3-0.737-1.3-1.3v-19.4c0-0.5626,0.7374-1.3,1.3-1.3z"/>
 </g>
 <g id="layer2" display="none">
  <rect id="rect3029-6" opacity="0.62085" style="enable-background:accumulate;color:#000000;" fill-rule="nonzero" rx="2" ry="2" height="24" width="24" y="2" x="2" fill="#060606"/>
  <rect id="rect3029-6-6" opacity="0.72" style="enable-background:accumulate;color:#000000;" fill-rule="nonzero" rx="2" ry="2" height="24" width="24" y="1" x="1" fill="#000"/>
  <rect id="rect3029" style="enable-background:accumulate;color:#000000;" fill-rule="nonzero" rx="2" ry="2" height="23" width="23" y="0.49998" x="0.5" fill="url(#linearGradient3807-3)"/>
  <g id="layer6">
   <path id="path3944" fill="#bfbfbf" d="m10,9,3,0,0,6-2,0,0-5-1,0,0-1"/>
   <path id="path3948" fill="#060606" d="m13,10,1,0,0,6-2,0,0-1,1,0,0-5"/>
  </g>
  <g id="layer14" display="none">
   <path id="path5770-89-8-1" fill="#060606" d="m10,10,7,0,0,4-5,0,0,1,5,0,0,1-7,0,0-3,5,0,0-2-5,0,0-1"/>
   <path id="path5770-8-5-6-8" fill="#bfbfbf" d="m9,9,7,0,0,4-5,0,0,1,5,0,0,1-7,0,0-3,5,0,0-2-5,0,0-1"/>
  </g>
  <g id="layer18" display="none">
   <path id="path6542-5-0" fill="#060606" d="m10,10,7,0,0,6-7,0,0-1,5,0,0-1-2,0,0-1,2,0,0-2-5,0,0-1"/>
   <path id="path6542-3" fill="#bfbfbf" d="m9,9,7,0,0,6-7,0,0-1,5,0,0-1-2,0,0-1,2,0,0-2-5,0,0-1"/>
  </g>
  <g id="layer22" display="none">
   <path id="path6751-9" fill="#060606" d="m10,11,0,3,5,0,0,2,2,0,0-6-2,0,0,3-3,0,0-2-2,0"/>
   <path id="path6751" fill="#bfbfbf" d="m9,10,0,3,5,0,0,2,2,0,0-6-2,0,0,3-3,0,0-2-2,0"/>
  </g>
  <path id="rect3029-96-0" fill-rule="nonzero" style="baseline-shift:baseline;block-progression:tb;color:#000000;direction:ltr;text-indent:0;text-align:start;enable-background:accumulate;text-transform:none;" fill="#585858" d="M2,0c-1.0994,0-2,0.90065-2,2v20c0,1.0994,0.90065,2,2,2h20c1.0994,0,2-0.90065,2-2v-20c0-1.0994-0.901-2-2-2zm0.3,1,19.4,0c0.563,0,1.3,0.7374,1.3,1.3v19.4c0,0.563-0.737,1.3-1.3,1.3h-19.4c-0.5626,0-1.3-0.737-1.3-1.3v-19.4c0-0.5626,0.7374-1.3,1.3-1.3z"/>
 </g>
 <g id="layer5" display="none">
  <rect id="rect3029-96-4" style="enable-background:accumulate;color:#000000;" fill-rule="nonzero" rx="1.5" ry="1.5" height="23" width="23" y="0.49998" x="0.5" fill="url(#linearGradient4370)"/>
  <g id="layer9" display="none">
   <path id="path3944-9-6" fill="#8d8f90" d="m10,9,3,0,0,6-2,0,0-5-1,0,0-1"/>
   <path id="path3948-7-8" fill="#320202" d="m13,10,1,0,0,6-2,0,0-1,1,0,0-5"/>
  </g>
  <g id="layer12" display="none">
   <path id="path5770-89" fill="#320202" d="m10,10,7,0,0,4-5,0,0,1,5,0,0,1-7,0,0-3,5,0,0-2-5,0,0-1"/>
   <path id="path5770-8-5" fill="#8d8f90" d="m9,9,7,0,0,4-5,0,0,1,5,0,0,1-7,0,0-3,5,0,0-2-5,0,0-1"/>
  </g>
  <g id="layer17" display="none">
   <path id="path6542-5-0-4-4" fill="#320202" d="m10,10,7,0,0,6-7,0,0-1,5,0,0-1-2,0,0-1,2,0,0-2-5,0,0-1"/>
   <path id="path6542-3-5-9" fill="#8d8f90" d="m9,9,7,0,0,6-7,0,0-1,5,0,0-1-2,0,0-1,2,0,0-2-5,0,0-1"/>
  </g>
  <g id="layer21">
   <path id="path6751-9-1" fill="#320202" d="m10,11,0,3,5,0,0,2,2,0,0-6-2,0,0,3-3,0,0-2-2,0"/>
   <path id="path6751-6" fill="#8d8f90" d="m9,10,0,3,5,0,0,2,2,0,0-6-2,0,0,3-3,0,0-2-2,0"/>
  </g>
  <path id="rect3029-96-9" fill-rule="nonzero" style="baseline-shift:baseline;block-progression:tb;color:#000000;direction:ltr;text-indent:0;text-align:start;enable-background:accumulate;text-transform:none;" fill="#979797" d="M2,0c-1.0994,0-2,0.90065-2,2v20c0,1.0994,0.90065,2,2,2h20c1.0994,0,2-0.90065,2-2v-20c0-1.0994-0.901-2-2-2zm0.3,1,19.4,0c0.563,0,1.3,0.7374,1.3,1.3v19.4c0,0.563-0.737,1.3-1.3,1.3h-19.4c-0.5626,0-1.3-0.737-1.3-1.3v-19.4c0-0.5626,0.7374-1.3,1.3-1.3z"/>
 </g>
 <rect id="rect3029-6-1" opacity="0.5" style="enable-background:accumulate;color:#000000;" fill-rule="nonzero" rx="2" ry="2" height="24" width="24" y="2" x="2" fill="#000"/>
 <rect id="rect3029-6-6-7" opacity="0.8" style="enable-background:accumulate;color:#000000;" fill-rule="nonzero" rx="2" ry="2" height="24" width="24" y="1" x="1" fill="#000"/>
 <rect id="rect3029-96-3-6-1-2" style="enable-background:accumulate;color:#000000;" fill-rule="nonzero" rx="1.5" ry="1.5" height="23" width="23" y="0.49998" x="0.5" fill="url(#linearGradient7165)"/>
 <path id="rect3029-96" fill-rule="nonzero" style="baseline-shift:baseline;block-progression:tb;color:#000000;direction:ltr;text-indent:0;text-align:start;enable-background:accumulate;text-transform:none;" fill="#979797" d="M2,0c-1.0994,0-2,0.90065-2,2v20c0,1.0994,0.90065,2,2,2h20c1.0994,0,2-0.90065,2-2v-20c0-1.0994-0.901-2-2-2zm0.3,1,19.4,0c0.563,0,1.3,0.7374,1.3,1.3v19.4c0,0.563-0.737,1.3-1.3,1.3h-19.4c-0.5626,0-1.3-0.737-1.3-1.3v-19.4c0-0.5626,0.7374-1.3,1.3-1.3z"/>
 <path id="path3944-4" fill="#bfbfbf" d="m10,9,3,0,0,6-2,0,0-5-1,0,0-1"/>
 <path id="path3948-4" fill="#3d0000" d="m13,10,1,0,0,6-2,0,0-1,1,0,0-5"/>
 <g id="layer11" display="none">
  <path id="path5770" fill="#3d0000" d="m10,10,7,0,0,4-5,0,0,1,5,0,0,1-7,0,0-3,5,0,0-2-5,0,0-1"/>
  <path id="path5770-8" fill="#bfbfbf" d="m9,9,7,0,0,4-5,0,0,1,5,0,0,1-7,0,0-3,5,0,0-2-5,0,0-1"/>
 </g>
 <g id="layer16" display="none">
  <path id="path6542-5-0-4" fill="#3d0000" d="m10,10,7,0,0,6-7,0,0-1,5,0,0-1-2,0,0-1,2,0,0-2-5,0,0-1"/>
  <path id="path6542-3-5" fill="#bfbfbf" d="m9,9,7,0,0,6-7,0,0-1,5,0,0-1-2,0,0-1,2,0,0-2-5,0,0-1"/>
 </g>
 <g id="layer20" display="none">
  <path id="path6751-9-1-3" fill="#3d0000" d="m10,11,0,3,5,0,0,2,2,0,0-6-2,0,0,3-3,0,0-2-2,0"/>
  <path id="path6751-6-3" fill="#bfbfbf" d="m9,10,0,3,5,0,0,2,2,0,0-6-2,0,0,3-3,0,0-2-2,0"/>
 </g>
</svg>
