<?xml version="1.0" encoding="UTF-8" standalone="no"?>
<svg
   xmlns:dc="http://purl.org/dc/elements/1.1/"
   xmlns:cc="http://creativecommons.org/ns#"
   xmlns:rdf="http://www.w3.org/1999/02/22-rdf-syntax-ns#"
   xmlns:svg="http://www.w3.org/2000/svg"
   xmlns="http://www.w3.org/2000/svg"
   version="1.1"
   height="26"
   width="52"
   id="svg2">
  <metadata
     id="metadata16">
    <rdf:RDF>
      <cc:Work
         rdf:about="">
        <dc:format>image/svg+xml</dc:format>
        <dc:type
           rdf:resource="http://purl.org/dc/dcmitype/StillImage" />
        <dc:title></dc:title>
      </cc:Work>
    </rdf:RDF>
  </metadata>
  <defs
     id="defs4">
    <linearGradient
       gradientUnits="userSpaceOnUse"
       gradientTransform="matrix(2.1304,0,0,1,-0.56522,-1050.4)"
       y2="1049.4"
       y1="1027.4"
       x2="11"
       x1="11"
       id="linearGradient4650">
      <stop
         offset="0"
         stop-color="#ce0e0e"
         id="stop3803-7-1-95" />
      <stop
         offset=".28"
         stop-color="#d00"
         id="stop4329-2" />
      <stop
         offset="1"
         stop-color="#8d0000"
         id="stop3805-5-28-1" />
    </linearGradient>
  </defs>
  <path
     id="rect3029-96-3"
     d="m 4,-23.5 h 44 c 0.831,0 1.5,0.669 1.5,1.5 v 18 c 0,0.831 -0.669,1.5 -1.5,1.5 H 4 C 3.169,-2.5 2.5,-3.169 2.5,-4 v -18 c 0,-0.831 0.669,-1.5 1.5,-1.5 z"
     style="color:#000000;fill:url(#linearGradient4650)"
     transform="scale(1,-1)" />
  <path
     id="rect3029-96"
     d="M 4,2 C 2.9006,2 2,2.90065 2,4 v 18 c 0,1.0994 0.90065,2 2,2 h 44 c 1.0994,0 2,-0.90065 2,-2 V 4 C 50,2.9006 49.09935,2 48,2 Z M 4.3,3 H 47.7 C 48.26265,3 49,3.73735 49,4.3 V 21.7 C 49,22.26265 48.26265,23 47.7,23 H 4.3 C 3.73735,23 3,22.26265 3,21.7 V 4.3 C 3,3.73735 3.73735,3 4.3,3 Z"
     style="color:#000000;text-indent:0;text-transform:none;fill:#979797" />
  <g
     transform="translate(0,1.00045)"
     id="layer16">
    <path
       id="path3936-0-9-4-4-3-0"
       d="m 30,6.7188 c -0.27402,0.15082 -0.62867,0.36449 -1,0.625 v 10.656 l 1,0.71875 z"
       style="fill:#3d0000" />
    <path
       id="path3936-0-9-5-6-6"
       d="M 29,6 20.0005,12 29,18 V 6"
       style="fill:#bfbfbf" />
  </g>
</svg>
