<svg width="22" height="22" version="1.1" xmlns="http://www.w3.org/2000/svg"><g transform="matrix(1.0000158 0 0 1 -1.5003132 -.999938)" fill="#060606" stroke-width=".99999213"><path d="m5.0002 9.1879 1.4999 1.1561-.00025 6.6559c-2.15e-5.57129.92882 1.5001 1.5001 1.5001l7-6.2e-5v-3l7 3.75-7 3.75v-3l-7 6.3e-5c-1.6447 1.4e-5-3-1.3553-3-3z" color="#000000"/><path d="m21 16.812-1.4999-1.1561.00025-6.6559c2.5e-5-.66867-.78276-1.5001-1.5001-1.5001l-7 6.24e-5v2.9999996l-7-3.7499996 7-3.75v3l7-6.25e-5c1.6447-1.47e-5 3 1.3553 3 3z" color="#000000"/></g><path d="m2.9999658 7.187962 1.4999237 1.1561-.00025 6.6559c-2.15e-5.57129.9288347 1.5001 1.5001237 1.5001l7.0001108-6.2e-5v-3l7.00011 3.75-7.00011 3.75v-3l-7.0001108 6.3e-5c-1.644726 1.4e-5-3.0000474-1.3553-3.0000474-3z" color="#000000" fill="#bfbfbf"/><path d="m19.000019 14.812062-1.499924-1.1561.00025-6.6559c2.5e-5-.66867-.782772-1.5001-1.500124-1.5001l-7.0001104 6.24e-5v3l-7.0001106-3.75 7.0001106-3.75v3l7.0001104-6.25e-5c1.644726-1.47e-5 3.000048 1.3553 3.000048 3z" color="#000000" fill="#bfbfbf"/></svg>
