<svg id="svg2" width="52" height="26" version="1.1" xmlns="http://www.w3.org/2000/svg"><defs id="defs4"><linearGradient id="linearGradient4650" x1="11" x2="11" y1="1027.4" y2="1049.4" gradientTransform="matrix(2.1304 0 0 1 -.56522 -1050.4)" gradientUnits="userSpaceOnUse"><stop id="stop3803-7-1-95" stop-color="#ce0e0e" offset="0"/><stop id="stop4329-2" stop-color="#d00" offset=".28"/><stop id="stop3805-5-28-1" stop-color="#8d0000" offset="1"/></linearGradient></defs><g id="layer4"><rect id="rect3029-96-3" transform="scale(1,-1)" x=".5" y="-23.5" width="49" height="23" rx="1.5" ry="1.5" color="#000000" fill="url(#linearGradient4650)"/><path id="rect3029-96" d="m2 0c-1.0994 0-2 0.90065-2 2v20c0 1.0994 0.90065 2 2 2h46c1.0994 0 2-0.90065 2-2v-20c0-1.0994-0.90065-2-2-2zm0.3 1h45.4c0.56265 0 1.3 0.73735 1.3 1.3v19.4c0 0.56265-0.73735 1.3-1.3 1.3h-45.4c-0.56265 0-1.3-0.73735-1.3-1.3v-19.4c0-0.56265 0.73735-1.3 1.3-1.3z" color="#000000" fill="#979797" style="block-progression:tb;text-indent:0;text-transform:none"/><g id="layer16"><path id="path3936-0-9-4-4-3-0" d="m30 6.7188c-0.27402 0.15082-0.62867 0.36449-1 0.625v10.656l1 0.71875z" fill="#3d0000"/><path id="path3936-0-9-5-6-6" d="m29 6-8.9995 6 8.9995 6v-12" fill="#bfbfbf"/></g></g></svg>
