<svg id="svg3063" width="18" height="12" version="1.1" xmlns="http://www.w3.org/2000/svg"><defs id="defs3071"><linearGradient id="linearGradient6970" x1="12.551" x2="12.525" y1="21.841" y2="1.1144" gradientTransform="matrix(1.032 0 0 1.0865 1.5 -11.491)" gradientUnits="userSpaceOnUse"><stop id="stop5422-3" stop-color="#101010" offset="0"/><stop id="stop5424-5" stop-color="#242424" offset="1"/></linearGradient></defs><rect id="rect3227" y="-8.8818e-16" width="18" height="12" color="#000000" fill="#101010"/><path id="path3067-6" d="m0.50043 8.3762c-0.0060492 1.7413 1.1801 3.1238 2.6667 3.1238h11.666c1.4866 0 2.6606-1.3825 2.6667-3.1238l0.01648-4.744c6e-3 -1.7413-1.1801-3.1238-2.6667-3.1238h-11.666c-1.4866 0-2.6606 1.3825-2.6667 3.1238z" color="#000000" fill="url(#linearGradient6970)" style="block-progression:tb;text-indent:0;text-transform:none"/><path id="path3067-6-3" d="m3.1732-1.488e-4c-1.7966 0-3.1523 1.6578-3.1563 3.625l-0.016906 8.3751h18l0.01648-8.3751c0.0039-1.9672-1.3597-3.625-3.1563-3.625zm0 1h11.687c1.1766 0 2.1596 1.1096 2.1562 2.625l-0.016481 7.8751h-16l0.016906-7.8751c0.00325-1.5154 0.97969-2.625 2.1563-2.625z" color="#000000" fill="#666" style="block-progression:tb;text-indent:0;text-transform:none"/><path id="path3065-6" d="m9 2-4.0415 7h8.0829z" fill="#bfbfbf"/></svg>
