<svg width="72" height="29" version="1.1" xmlns="http://www.w3.org/2000/svg"><defs><linearGradient id="a" x1="13" x2="13" y1="1027.4" y2="1049" gradientTransform="matrix(2.6957 0 0 1 -.8478 -1023.4)" gradientUnits="userSpaceOnUse"><stop stop-color="#242424" offset="0"/><stop stop-color="#101010" offset="1"/></linearGradient></defs><path d="m70.062 3.1875c.11225.24927.1875.52278.1875.8125l-6.2e-5 21c-3e-6 1.0994-.90065 2-2 2h-66.25c-.28972 0-.56323-.07525-.8125-.1875.31167.69758.9965 1.1875 1.8125 1.1875h66.25c1.108 0 2-.892 2-2l6.3e-5-21c2e-6-.816-.48992-1.5008-1.1875-1.8125z" color="#000000" fill-opacity=".8"/><path d="m71.062 4.1875c.11153.24962.1875.5205.1875.8125l-6.2e-5 21c-3e-6 1.108-.892 2-2 2h-66.25c-.292 0-.56288-.07597-.8125-.1875.31167.69758.9965 1.1875 1.8125 1.1875h66.25c1.108 0 2-.892 2-2l6.3e-5-21c2e-6-.816-.48992-1.5008-1.1875-1.8125z" color="#000000" fill="#010101" fill-opacity=".48627"/><path d="m2.5002 2.5h65.25c1.108 0 2 .892 2 2l-6.2e-5 20c-3e-6 1.108-.892 2-2 2h-65.25c-1.108 0-2-.892-2-2l6.225e-5-20c3.45e-6-1.108.892-2 2-2z" color="#000000" fill="url(#a)"/><path d="m2.0002 2c-1.0994 0-2 .90065-2 2l-6.225e-5 21c-3.2589e-6 1.0994.90065 2 2 2h66.25c1.0994 0 2-.90065 2-2l6.2e-5-21c3e-6-1.0994-.90065-2-2-2zm.3 1h65.65c.56265 0 1.3.73735 1.3 1.3l-6.2e-5 20.4c-1e-6.56265-.73735 1.3-1.3 1.3h-65.65c-.56265 0-1.3-.73735-1.3-1.3l6.23e-5-20.4c1.7e-6-.56265.73735-1.3 1.3-1.3z" color="#000000" fill="#585858" style="text-decoration-line:none;text-indent:0;text-transform:none"/></svg>
