<?xml version="1.0" encoding="UTF-8" standalone="no"?>
<!-- Created with Inkscape (http://www.inkscape.org/) -->

<svg
   xmlns:dc="http://purl.org/dc/elements/1.1/"
   xmlns:cc="http://creativecommons.org/ns#"
   xmlns:rdf="http://www.w3.org/1999/02/22-rdf-syntax-ns#"
   xmlns:svg="http://www.w3.org/2000/svg"
   xmlns="http://www.w3.org/2000/svg"
   xmlns:xlink="http://www.w3.org/1999/xlink"
   version="1.1"
   width="26"
   height="26"
   id="svg25537">
  <defs
     id="defs25539">
    <linearGradient
       x1="15"
       y1="1049.3622"
       x2="15"
       y2="1027.3622"
       id="linearGradient25229"
       xlink:href="#linearGradient3801-6-9-0"
       gradientUnits="userSpaceOnUse"
       gradientTransform="translate(0,-1026.3622)" />
    <linearGradient
       id="linearGradient3801-6-9-0">
      <stop
         id="stop3803-7-1-9"
         style="stop-color:#aa1112;stop-opacity:1"
         offset="0" />
      <stop
         id="stop4329-4"
         style="stop-color:#b60607;stop-opacity:1"
         offset="0.28" />
      <stop
         id="stop3805-5-28-5"
         style="stop-color:#760607;stop-opacity:1"
         offset="1" />
    </linearGradient>
    <linearGradient
       x1="15"
       y1="1049.3622"
       x2="15"
       y2="1027.3622"
       id="linearGradient4370"
       xlink:href="#linearGradient3801-6-9-0-1"
       gradientUnits="userSpaceOnUse"
       gradientTransform="translate(0,-1026.3622)" />
    <linearGradient
       id="linearGradient3801-6-9-0-1">
      <stop
         id="stop3803-7-1-9-5"
         style="stop-color:#aa1112;stop-opacity:1"
         offset="0" />
      <stop
         id="stop4329-4-9"
         style="stop-color:#b60607;stop-opacity:1"
         offset="0.28" />
      <stop
         id="stop3805-5-28-5-7"
         style="stop-color:#760607;stop-opacity:1"
         offset="1" />
    </linearGradient>
    <linearGradient
       x1="13"
       y1="1027.3622"
       x2="13"
       y2="1049.3622"
       id="linearGradient3807-3"
       xlink:href="#linearGradient3801-6"
       gradientUnits="userSpaceOnUse"
       gradientTransform="translate(0,-1026.3622)" />
    <linearGradient
       id="linearGradient3801-6">
      <stop
         id="stop3803-7"
         style="stop-color:#242424;stop-opacity:1"
         offset="0" />
      <stop
         id="stop3805-5"
         style="stop-color:#101010;stop-opacity:1"
         offset="1" />
    </linearGradient>
    <linearGradient
       x1="15"
       y1="1049.3622"
       x2="15"
       y2="1027.3622"
       id="linearGradient4370-6"
       xlink:href="#linearGradient3801-6-9-0-7"
       gradientUnits="userSpaceOnUse"
       gradientTransform="translate(0,-1026.3622)" />
    <linearGradient
       id="linearGradient3801-6-9-0-7">
      <stop
         id="stop3803-7-1-9-3"
         style="stop-color:#aa1112;stop-opacity:1"
         offset="0" />
      <stop
         id="stop4329-4-6"
         style="stop-color:#b60607;stop-opacity:1"
         offset="0.28" />
      <stop
         id="stop3805-5-28-5-5"
         style="stop-color:#760607;stop-opacity:1"
         offset="1" />
    </linearGradient>
    <linearGradient
       x1="15"
       y1="1049.3622"
       x2="15"
       y2="1027.3622"
       id="linearGradient14755"
       xlink:href="#linearGradient3801-6-9-0-6"
       gradientUnits="userSpaceOnUse"
       gradientTransform="translate(0,-1026.3622)" />
    <linearGradient
       id="linearGradient3801-6-9-0-6">
      <stop
         id="stop3803-7-1-9-39"
         style="stop-color:#aa1112;stop-opacity:1"
         offset="0" />
      <stop
         id="stop4329-4-4"
         style="stop-color:#b60607;stop-opacity:1"
         offset="0.28" />
      <stop
         id="stop3805-5-28-5-8"
         style="stop-color:#760607;stop-opacity:1"
         offset="1" />
    </linearGradient>
    <linearGradient
       x1="15"
       y1="1049.3622"
       x2="15"
       y2="1027.3622"
       id="linearGradient14408"
       xlink:href="#linearGradient3801-6-9-0-12"
       gradientUnits="userSpaceOnUse"
       gradientTransform="translate(0,-1026.3622)" />
    <linearGradient
       id="linearGradient3801-6-9-0-12">
      <stop
         id="stop3803-7-1-9-9"
         style="stop-color:#aa1112;stop-opacity:1"
         offset="0" />
      <stop
         id="stop4329-4-3"
         style="stop-color:#b60607;stop-opacity:1"
         offset="0.28" />
      <stop
         id="stop3805-5-28-5-9"
         style="stop-color:#760607;stop-opacity:1"
         offset="1" />
    </linearGradient>
    <linearGradient
       x1="15"
       y1="1049.3622"
       x2="15"
       y2="1027.3622"
       id="linearGradient4370-0"
       xlink:href="#linearGradient3801-6-9-0-8"
       gradientUnits="userSpaceOnUse"
       gradientTransform="translate(0,-1026.3622)" />
    <linearGradient
       id="linearGradient3801-6-9-0-8">
      <stop
         id="stop3803-7-1-9-8"
         style="stop-color:#aa1112;stop-opacity:1"
         offset="0" />
      <stop
         id="stop4329-4-5"
         style="stop-color:#b60607;stop-opacity:1"
         offset="0.28" />
      <stop
         id="stop3805-5-28-5-0"
         style="stop-color:#760607;stop-opacity:1"
         offset="1" />
    </linearGradient>
    <linearGradient
       x1="15"
       y1="1049.3622"
       x2="15"
       y2="1027.3622"
       id="linearGradient4370-9"
       xlink:href="#linearGradient3801-6-9-0-63"
       gradientUnits="userSpaceOnUse"
       gradientTransform="translate(0,-1026.3622)" />
    <linearGradient
       id="linearGradient3801-6-9-0-63">
      <stop
         id="stop3803-7-1-9-85"
         style="stop-color:#aa1112;stop-opacity:1"
         offset="0" />
      <stop
         id="stop4329-4-61"
         style="stop-color:#b60607;stop-opacity:1"
         offset="0.28" />
      <stop
         id="stop3805-5-28-5-1"
         style="stop-color:#760607;stop-opacity:1"
         offset="1" />
    </linearGradient>
    <linearGradient
       x1="11"
       y1="1027.3622"
       x2="11"
       y2="1049.3622"
       id="linearGradient4650"
       xlink:href="#linearGradient3801-6-9-9"
       gradientUnits="userSpaceOnUse"
       gradientTransform="translate(0,-1050.3622)" />
    <linearGradient
       id="linearGradient3801-6-9-9">
      <stop
         id="stop3803-7-1-95"
         style="stop-color:#ce0e0e;stop-opacity:1"
         offset="0" />
      <stop
         id="stop4329-2"
         style="stop-color:#dd0000;stop-opacity:1"
         offset="0.28" />
      <stop
         id="stop3805-5-28-1"
         style="stop-color:#8d0000;stop-opacity:1"
         offset="1" />
    </linearGradient>
    <linearGradient
       x1="15"
       y1="1049.3622"
       x2="15"
       y2="1027.3622"
       id="linearGradient3878"
       xlink:href="#linearGradient3801-6-5"
       gradientUnits="userSpaceOnUse"
       gradientTransform="translate(0,-1026.3622)" />
    <linearGradient
       id="linearGradient3801-6-5">
      <stop
         id="stop3803-7-6"
         style="stop-color:#222222;stop-opacity:1"
         offset="0" />
      <stop
         id="stop3805-5-2"
         style="stop-color:#131516;stop-opacity:1"
         offset="1" />
    </linearGradient>
    <linearGradient
       x1="15"
       y1="1049.3622"
       x2="15"
       y2="1027.3622"
       id="linearGradient35917"
       xlink:href="#linearGradient3801-6-5"
       gradientUnits="userSpaceOnUse"
       gradientTransform="translate(0,-1026.3622)" />
    <linearGradient
       x1="15"
       y1="1049.3622"
       x2="15"
       y2="1027.3622"
       id="linearGradient35942"
       xlink:href="#linearGradient3801-6-5"
       gradientUnits="userSpaceOnUse"
       gradientTransform="translate(0,-1026.3622)" />
  </defs>
  <metadata
     id="metadata25542">
    <rdf:RDF>
      <cc:Work
         rdf:about="">
        <dc:format>image/svg+xml</dc:format>
        <dc:type
           rdf:resource="http://purl.org/dc/dcmitype/StillImage" />
        <dc:title></dc:title>
      </cc:Work>
    </rdf:RDF>
  </metadata>
  <rect
     width="23"
     height="23.000017"
     rx="2"
     ry="2"
     x="0.5"
     y="0.49998301"
     id="rect3029-9"
     style="color:#000000;fill:url(#linearGradient35942);fill-opacity:1;fill-rule:nonzero;stroke:none;stroke-width:1;marker:none;visibility:visible;display:inline;overflow:visible;enable-background:accumulate" />
  <path
     d="m 10,9.000017 3,0 0,6 -2,0 0,-5 -1,0 0,-1"
     id="path3944-9"
     style="fill:#8d8f90;fill-opacity:1;stroke:none;display:none" />
  <path
     d="m 13,10.000017 1,0 0,6 -2,0 0,-1 1,0 0,-5"
     id="path3948-7"
     style="fill:#080808;fill-opacity:1;stroke:none;display:none" />
  <path
     d="m 10,10 7,0 0,4 -5,0 0,1 5,0 0,1 -7,0 0,-3 5,0 0,-2 -5,0 0,-1"
     id="path5770-89-8"
     style="fill:#080808;fill-opacity:1;stroke:none;display:none" />
  <path
     d="m 9,9 7,0 0,4 -5,0 0,1 5,0 0,1 -7,0 0,-3 5,0 0,-2 -5,0 0,-1"
     id="path5770-8-5-6"
     style="fill:#8d8f90;fill-opacity:1;stroke:none;display:none" />
  <path
     d="m 10,10 7,0 0,6 -7,0 0,-1 5,0 0,-1 -2,0 0,-1 2,0 0,-2 -5,0 0,-1"
     id="path6542-5"
     style="fill:#080808;fill-opacity:1;stroke:none;display:none" />
  <path
     d="m 9,9 7,0 0,6 -7,0 0,-1 5,0 0,-1 -2,0 0,-1 2,0 0,-2 -5,0 0,-1"
     id="path6542"
     style="fill:#8d8f90;fill-opacity:1;stroke:none;display:none" />
  <path
     d="m 10,11 0,3 5,0 0,2 2,0 0,-6 -2,0 0,3 -3,0 0,-2 -2,0"
     id="path6751-9-1-3-1"
     style="fill:#080808;fill-opacity:1;stroke:none;display:none" />
  <path
     d="m 9,10 0,3 5,0 0,2 2,0 0,-6 -2,0 0,3 -3,0 0,-2 -2,0"
     id="path6751-6-3-5"
     style="fill:#8d8f90;fill-opacity:1;stroke:none;display:none" />
  <path
     d="m 13,6 c -3.589851,0 -6.5,2.910149 -6.5,6.5 0,0.04264 -8.17e-4,0.08256 0,0.125 C 6.810077,12.409707 7.159368,12.262724 7.53125,12.15625 7.70985,9.279923 10.078679,7 13,7 c 3.037566,0 5.5,2.462434 5.5,5.5 0,0.04206 9.39e-4,0.08317 0,0.125 0.35675,0.247699 0.663009,0.546206 0.90625,0.90625 C 19.460408,13.193513 19.5,12.853002 19.5,12.5 19.5,8.910149 16.589851,6 13,6 z"
     id="path9863-3-8"
     style="color:#000000;fill:#080808;fill-opacity:1;fill-rule:nonzero;stroke:#080808;stroke-width:0.5;stroke-miterlimit:4;stroke-opacity:1;stroke-dasharray:none;marker:none;visibility:visible;display:inline;overflow:visible;enable-background:accumulate" />
  <path
     d="M 8.5,19 C 6.567004,19 5,17.432997 5,15.5 5,13.567004 6.567004,12 8.5,12 z"
     id="path9842-6-8"
     style="color:#000000;fill:#080808;fill-opacity:1;fill-rule:nonzero;stroke:none;stroke-width:1;marker:none;visibility:visible;display:inline;overflow:visible;enable-background:accumulate" />
  <path
     d="M 17.5,19 C 19.432996,19 21,17.432997 21,15.5 21,13.567004 19.432996,12 17.5,12 z"
     id="path9842-2-0-4"
     style="color:#000000;fill:#080808;fill-opacity:1;fill-rule:nonzero;stroke:none;stroke-width:1;marker:none;visibility:visible;display:inline;overflow:visible;enable-background:accumulate" />
  <path
     d="m 12,5 c -3.589851,0 -6.5,2.910149 -6.5,6.5 0,0.04264 -8.17e-4,0.08256 0,0.125 C 5.810077,11.409707 6.159368,11.262724 6.53125,11.15625 6.70985,8.279923 9.078679,6 12,6 c 3.037566,0 5.5,2.462434 5.5,5.5 0,0.04206 9.39e-4,0.08317 0,0.125 0.35675,0.247699 0.663009,0.546206 0.90625,0.90625 C 18.460408,12.193513 18.5,11.853002 18.5,11.5 18.5,7.910149 15.589851,5 12,5 z"
     id="path9863-1"
     style="color:#000000;fill:#8d8f90;fill-opacity:1;fill-rule:nonzero;stroke:#8f8f8f;stroke-width:0.5;stroke-miterlimit:4;stroke-opacity:1;stroke-dasharray:none;marker:none;visibility:visible;display:inline;overflow:visible;enable-background:accumulate" />
  <path
     d="M 7.5,18 C 5.567004,18 4,16.432997 4,14.5 4,12.567004 5.567004,11 7.5,11 z"
     id="path9842-4"
     style="color:#000000;fill:#8d8f90;fill-opacity:1;fill-rule:nonzero;stroke:none;stroke-width:1;marker:none;visibility:visible;display:inline;overflow:visible;enable-background:accumulate" />
  <path
     d="M 16.5,18 C 18.432996,18 20,16.432997 20,14.5 20,12.567004 18.432996,11 16.5,11 z"
     id="path9842-2-9"
     style="color:#000000;fill:#8d8f90;fill-opacity:1;fill-rule:nonzero;stroke:none;stroke-width:1;marker:none;visibility:visible;display:inline;overflow:visible;enable-background:accumulate" />
  <path
     d="M 2,0 C 0.90064862,0 0,0.90064862 0,2 l 0,20 c 0,1.099351 0.90064862,2 2,2 l 20,0 c 1.099351,0 2,-0.900649 2,-2 L 24,2 C 24,0.90064862 23.099351,0 22,0 z M 2.3,1 21.7,1 C 22.262649,1 23,1.7373514 23,2.3 l 0,19.4 C 23,22.262649 22.262649,23 21.7,23 L 2.3,23 C 1.7373514,23 1,22.262649 1,21.7 L 1,2.3 C 1,1.7373514 1.7373514,1 2.3,1 z"
     id="rect3029-96-0-9"
     style="font-size:medium;font-style:normal;font-variant:normal;font-weight:normal;font-stretch:normal;text-indent:0;text-align:start;text-decoration:none;line-height:normal;letter-spacing:normal;word-spacing:normal;text-transform:none;direction:ltr;block-progression:tb;writing-mode:lr-tb;text-anchor:start;baseline-shift:baseline;color:#000000;fill:#454748;fill-opacity:1;fill-rule:nonzero;stroke:none;stroke-width:1;marker:none;visibility:visible;display:inline;overflow:visible;enable-background:accumulate;font-family:Sans;-inkscape-font-specification:Sans" />
</svg>
