<svg id="svg2" width="73" height="17" version="1.1" xmlns="http://www.w3.org/2000/svg"><g id="g4021" transform="matrix(-.60802 0 0 .68989 15.08 1.1011)" fill="#d2d2d2" stroke-width="1.1274"><path id="rect3922" transform="matrix(1.1347 0 0 1 -34.251 6)" d="m37.625-5-0.1875 2.625c-0.66019 0.16435-1.2765 0.43313-1.8438 0.78125l-1.9688-1.75-1.9688 1.9688 1.75 1.9688c-0.34382 0.56314-0.61891 1.1878-0.78125 1.8438l-2.625 0.1875v2.75l2.625 0.1875c0.16385 0.66212 0.431 1.2793 0.78125 1.8438l-1.75 1.9688 1.9688 1.9688 2-1.75c0.55851 0.33599 1.1644 0.58862 1.8125 0.75l0.1875 2.6562h2.75l0.1875-2.625c0.66019-0.16435 1.2765-0.43313 1.8438-0.78125l1.9688 1.75 1.9688-1.9688-1.75-1.9688c0.34382-0.56314 0.61891-1.1878 0.78125-1.8438l2.625-0.1875v-2.75l-2.625-0.1875c-0.16435-0.66019-0.43313-1.2765-0.78125-1.8438l1.75-1.9688-1.9688-1.9688-1.9688 1.75c-0.56314-0.34382-1.1878-0.61891-1.8438-0.78125l-0.1875-2.625zm1.375 6c1.6505 0 3 1.3495 3 3s-1.3495 3-3 3-3-1.3495-3-3 1.3495-3 3-3z" color="#000000" fill="#d2d2d2"/></g></svg>
