<svg width="40" height="17" version="1.1" viewBox="0 0 40 17" xmlns="http://www.w3.org/2000/svg"><defs><linearGradient id="a" x1="13" x2="13" y1="1027.4" y2="1049.4" gradientTransform="matrix(1.5217 0 0 .52174 1.7391 -1655.7)" gradientUnits="userSpaceOnUse"><stop stop-color="#6baa11" offset="0"/><stop stop-color="#6eb606" offset=".28"/><stop stop-color="#487606" offset="1"/></linearGradient></defs><g transform="translate(0 -1105.5)"><rect transform="scale(1,-1)" x="2.5" y="-1120" width="35" height="12" rx="2" ry="2" color="#000000" fill="url(#a)"/><path d="m4 1107.5c-1.0994 0-2 .9006-2 2v9.0001c0 1.0994.90065 2 2 2h32c1.0994 0 2-.9006 2-2v-9.0001c0-1.0994-.90065-2-2-2zm.3 1h31.4c.56265 0 1.3.7374 1.3 1.3v8.4001c0 .5626-.73735 1.3-1.3 1.3h-31.4c-.56265 0-1.3-.7374-1.3-1.3v-8.4001c0-.5626.73735-1.3 1.3-1.3z" color="#000000" fill="#979797" style="text-indent:0;text-transform:none"/></g></svg>
