<svg width="45" height="23" version="1.1" xmlns="http://www.w3.org/2000/svg"><defs><linearGradient id="a" x1="13" x2="13" y1="1027.4" y2="1049.4" gradientTransform="matrix(3 0 0 .91304 -1 -937.1)" gradientUnits="userSpaceOnUse"><stop stop-color="#242424" offset="0"/><stop stop-color="#101010" offset="1"/></linearGradient></defs><path d="m2.5.5h38.961c1.108 0 2 .892 2 2v17c0 1.108-.892 2-2 2h-38.961c-1.108 0-2-.892-2-2v-17c0-1.108.892-2 2-2z" color="#000000" fill="url(#a)"/><g fill="#060606"><path d="m31 9h-7v6h7v-1h-5v-4h5v-1"/><path d="m16 9v6h7v-6h-2v5h-3v-5h-2"/><path d="m8 9v6h7v-4.5l-1.5-1.5zm2 1h2.7l1.3 1.3v2.7h-4z"/><path d="m32 15v-6h2v2h1.5l2-2h1.5v.5l-2 2v1l2 2v.5h-1.5l-2-2h-1.5v2z"/></g><path d="m43.561 1.1878c.11225.24927.1875.52278.1875.8125l.000263 18c1.6e-5 1.0994-.90065 2-2 2l-39.75-.00025c-.28972-2e-6-.56323-.07525-.8125-.1875.31167.69758.9965 1.1875 1.8125 1.1875l39.75.00025c1.108 7e-6 1.7511-.89212 1.7511-2.0001l-.000263-18c-1.2e-5-.816-.24106-1.5007-.93864-1.8124z" color="#000000" fill-opacity=".8"/><g fill="#bfbfbf"><path d="m30 8h-7v6h7v-1h-5v-4h5v-1"/><path d="m15 8v6h7v-6h-2v5h-3v-5h-2"/><path d="m7 8v6h7v-4.5l-1.5-1.5zm2 1h2.7l1.3 1.3v2.7h-4z"/></g><path d="m2.0002 0c-1.0994 0-2 .90065-2 2l-1.675e-5 18c-1.023e-6 1.0994.90065 2 2 2h40c1.0994 0 2-.90065 2-2l1.7e-5-18c1e-6-1.0994-.90065-2-2-2zm.3 1h39.4c.56265 0 1.3.73735 1.3 1.3l-1.7e-5 17.4c-1e-6.56265-.73735 1.3-1.3 1.3h-39.4c-.56265 0-1.3-.73735-1.3-1.3l1.68e-5-17.4c5e-7-.56265.73735-1.3 1.3-1.3z" color="#000000" fill="#444" style="text-decoration-line:none;text-indent:0;text-transform:none"/><path d="m31 14v-6h2v2h1.5l2-2h1.5v.5l-2 2v1l2 2v.5h-1.5l-2-2h-1.5v2z" fill="#bfbfbf"/></svg>
