<svg width="52" height="26" version="1.1" xmlns="http://www.w3.org/2000/svg">
	<defs>
		<linearGradient id="a" x1="1.5097979" x2="23.5" y1="12" y2="12" gradientTransform="matrix(1,0,0,2.1304348,0,-49.434783)" gradientUnits="userSpaceOnUse">
			<stop stop-opacity=".0047619" offset="0"/>
			<stop stop-opacity="0" offset=".52920645"/>
			<stop stop-opacity=".30980393" offset="1"/>
		</linearGradient>
		<linearGradient id="b" x1="21.285715" x2="21.285715" y1="1.7619343" y2="23.95241" gradientTransform="translate(4.6190476,7.1904462)" gradientUnits="userSpaceOnUse">
			<stop stop-color="#777" offset="0"/>
			<stop stop-color="#777" offset=".30102351"/>
			<stop stop-color="#333" offset="1"/>
		</linearGradient>
	</defs>
	<path d="m50.31346 2.17593c.11592.25262.18555.52951.18555.82422v20c0 1.0994-.9006 1.965575-2 1.965572l-45.49901-.00012c-.6598637-2e-6-1.135675-.352003-1.325-.511743.2090942.790888.7641575 1.546139 1.8242 1.546141l45.99979 1e-4c1.108 2e-6 2-.892 2-2v-20c0-.81658-.48717-1.5129-1.1855-1.8242z" fill="#030303"/>
	<rect transform="rotate(90)" x="1.50003" y="-50.5" width="23" height="49" color="#000000" fill="url(#a)"/>
	<g display="none">
		<g display="inline">
			<path d="m10 10h7v4h-5v1h5v1h-7v-3h5v-2h-5v-1" fill="#323232"/>
			<path d="m9 9h7v4h-5v1h5v1h-7v-3h5v-2h-5v-1" fill="#dcdcdc"/>
		</g>
	</g>
	<g display="none">
		<g display="inline">
			<path d="m10 10h7v6h-7v-1h5v-1h-2v-1h2v-2h-5v-1" fill="#323232"/>
			<path d="m9 9h7v6h-7v-1h5v-1h-2v-1h2v-2h-5v-1" fill="#dcdcdc"/>
		</g>
	</g>
	<g display="none">
		<g display="inline">
			<path d="m10 11v3h5v2h2v-6h-2v3h-3v-2h-2" fill="#323232"/>
			<path d="m9 10v3h5v2h2v-6h-2v3h-3v-2h-2" fill="#dcdcdc"/>
		</g>
	</g>
	<g display="none">
		<g display="inline">
			<path d="m17 10h-6v3h4v2h-5v1h7v-4h-5v-1h5v-1" fill="#323232"/>
			<path d="m16 9h-6v3h4v2h-5v1h7v-4h-5v-1h5v-1" fill="#dcdcdc"/>
		</g>
	</g>
	<g display="none">
		<g display="inline">
			<path d="m10 10v6h7v-4h-5v-1h4v-1zm2 3h4v2h-4z" fill="#323232"/>
			<path d="m9 9v6h7v-4h-5v-1h4v-1zm2 3h4v2h-4z" fill="#dcdcdc"/>
		</g>
	</g>
	<g display="none">
		<g display="inline">
			<path d="m10 10h6v3h1v1h-1v2h-2v-2h-2v-1h2v-2h-4v-1" fill="#323232"/>
			<path d="m9 9h6v3h1v1h-1v2h-2v-2h-2v-1h2v-2h-4v-1" fill="#dcdcdc"/>
		</g>
	</g>
	<g display="none">
		<path d="m11 10v2h-1v4h7v-4h-1v-2zm2 1h2v1h-2zm-1 2h4v2h-4z" fill="#323232"/>
		<path d="m10 9v2h-1v4h7v-4h-1v-2zm2 1h2v1h-2zm-1 2h4v2h-4z" fill="#dcdcdc"/>
	</g>
	<rect x="1.5" y="1.50003" width="49" height="23" rx="2" ry=".30000001" fill="none" stroke="url(#b)" stroke-linecap="round" stroke-linejoin="round" style="paint-order:fill markers stroke"/>
</svg>
