<?xml version="1.0" encoding="UTF-8" standalone="no"?>
<svg
   xmlns:dc="http://purl.org/dc/elements/1.1/"
   xmlns:cc="http://creativecommons.org/ns#"
   xmlns:rdf="http://www.w3.org/1999/02/22-rdf-syntax-ns#"
   xmlns:svg="http://www.w3.org/2000/svg"
   xmlns="http://www.w3.org/2000/svg"
   version="1.1"
   height="26"
   width="28"
   id="svg2">
  <metadata
     id="metadata17">
    <rdf:RDF>
      <cc:Work
         rdf:about="">
        <dc:format>image/svg+xml</dc:format>
        <dc:type
           rdf:resource="http://purl.org/dc/dcmitype/StillImage" />
        <dc:title></dc:title>
      </cc:Work>
    </rdf:RDF>
  </metadata>
  <defs
     id="defs4">
    <linearGradient
       gradientUnits="userSpaceOnUse"
       gradientTransform="translate(2 -1026.4)"
       y2="1027.4"
       y1="1049.4"
       x2="15"
       x1="15"
       id="linearGradient12758">
      <stop
         offset="0"
         stop-color="#aa1112"
         id="stop3803-7-1-9" />
      <stop
         offset=".28"
         stop-color="#b60607"
         id="stop4329-4" />
      <stop
         offset="1"
         stop-color="#760607"
         id="stop3805-5-28-5" />
    </linearGradient>
  </defs>
  <rect
     fill="url(#linearGradient12758)"
     color="#000000"
     ry="1.5"
     rx="1.5"
     height="23"
     width="23"
     y=".49998"
     x="2.5"
     id="rect3029-96-4" />
  <path
     style="block-progression:tb;text-indent:0;text-transform:none"
     fill="#979797"
     color="#000000"
     d="m4 0c-1.0994 0-2 0.90065-2 2v20c0 1.0994 0.90065 2 2 2h20c1.0994 0 2-0.90065 2-2v-20c0-1.0994-0.90065-2-2-2zm0.3 1h19.4c0.56265 0 1.3 0.73735 1.3 1.3v19.4c0 0.56265-0.73735 1.3-1.3 1.3h-19.4c-0.56265 0-1.3-0.73735-1.3-1.3v-19.4c0-0.56265 0.73735-1.3 1.3-1.3z"
     id="rect3029-96-9" />
  <g
     fill="#320202"
     transform="translate(2)"
     id="g4992">
    <path
       d="m6 8.3636 6.955 4.6367-6.955 4.6367v-9.2734"
       id="path3936-0-8-9-7-5" />
    <path
       d="m21 8.3636-6.955 4.6367 6.955 4.6367v-9.2734"
       id="path3936-0-8-9-7-3-3" />
  </g>
  <path
     d="M 7,7.3636 13.955,12.0003 7,16.637 V 7.3636"
     id="path3936-0-8-9-7-36"
     style="fill:#bfbfbf" />
  <path
     d="M 22,7.3636 15.045,12.0003 22,16.637 V 7.3636"
     id="path3936-0-8-9-7-3-7"
     style="fill:#bfbfbf" />
</svg>
