<svg width="52" height="26" version="1.1" xmlns="http://www.w3.org/2000/svg"><defs><linearGradient id="a" x1="15" x2="15" y1="1049.4" y2="1027.4" gradientTransform="matrix(2.1304 0 0 1 -.56522 -1026.4)" gradientUnits="userSpaceOnUse"><stop stop-color="#222" offset="0"/><stop stop-color="#131516" offset="1"/></linearGradient></defs><rect x=".5" y=".49998" width="49" height="23" rx="2" ry="2" color="#000000" fill="url(#a)"/><g fill="#8d8f90"><path d="m17 9h-7v4h5v1h-5v1h7v-3h-5v-2h5v-1"/><path d="m26 9v6h2v-5h3v5h2v-6h-7"/><path d="m34 9v6h7v-1h-5v-4h5v-1h-7"/></g><g fill="#080808"><path d="m18 10h-6v2h1v-1h5v-1"/><path d="m17 13h1v3h-7v-1h6v-2"/><path d="m15 13v1h-4v-1h4"/><path d="m27 15v1h2v-5h2v-1h-3v5h-1"/><path d="m33 10h1v6h-2v-1h1v-5"/><path d="m42 10h-6v4h1v-3h5v-1"/><path d="m42 15v1h-7v-1h7"/></g><path d="m2 0c-1.0994 0-2 .90065-2 2v20c0 1.0994.90065 2 2 2h46c1.0994 0 2-.90065 2-2v-20c0-1.0994-.90065-2-2-2zm.3 1h45.4c.56265 0 1.3.73735 1.3 1.3v19.4c0 .56265-.73735 1.3-1.3 1.3h-45.4c-.56265 0-1.3-.73735-1.3-1.3v-19.4c0-.56265.73735-1.3 1.3-1.3z" color="#000000" fill="#454748" style="text-indent:0;text-transform:none"/><path d="m21 16v-3.5l-2-2v-.5h1.5l1.5 1.5 1.5-1.5h1.5v.5l-2 2v3.5h-2" fill="#080808"/><path d="m20 15v-3.5l-2-2v-.5h1.5l1.5 1.5 1.5-1.5h1.5v.5l-2 2v3.5h-2" fill="#8d8f90"/></svg>
