<svg id="svg2" width="39" height="26" version="1.1" xmlns="http://www.w3.org/2000/svg"><defs id="defs4"><linearGradient id="linearGradient6467" x1="13" x2="13" y1="1027.4" y2="1049.4" gradientTransform="matrix(2.1304 0 0 1 1.4348 -1026.4)" gradientUnits="userSpaceOnUse"><stop id="stop3803-7" stop-color="#242424" offset="0"/><stop id="stop3805-5" stop-color="#101010" offset="1"/></linearGradient></defs><path id="rect3029-6-6" d="m5 1h31c1.108 0 2 0.892 2 2v20c0 1.108-0.892 2-2 2h-31c-1.108 0-2-0.892-2-2v-20c0-1.108 0.892-2 2-2z" color="#000000" opacity=".9"/><path id="rect3029-6" d="m37.812 2.1875c0.11153 0.24962 0.1875 0.5205 0.1875 0.8125v20c0 1.108-0.892 2-2 2h-31c-0.292 0-0.56288-0.075973-0.8125-0.1875 0.31167 0.69758 0.9965 1.1875 1.8125 1.1875h31c1.108 0 2-0.892 2-2v-20c0-0.816-0.48992-1.5008-1.1875-1.8125z" color="#000000" fill="#060606" opacity=".62085"/><path id="rect3029" d="m4.5 0.49998h30c1.108 0 2 0.892 2 2v19c0 1.108-0.892 2-2 2h-30c-1.108 0-2-0.892-2-2v-19c0-1.108 0.892-2 2-2z" color="#000000" fill="url(#linearGradient6467)"/><path id="rect3029-96-0" d="m4 0c-1.0994 0-2 0.90065-2 2v20c0 1.0994 0.90065 2 2 2h31c1.0994 0 2-0.90065 2-2v-20c0-1.0994-0.90065-2-2-2zm0.3 1h30.4c0.56265 0 1.3 0.73735 1.3 1.3v19.4c0 0.56265-0.73735 1.3-1.3 1.3h-30.4c-0.56265 0-1.3-0.73735-1.3-1.3v-19.4c0-0.56265 0.73735-1.3 1.3-1.3z" color="#000000" fill="#585858" style="text-decoration-line:none;text-indent:0;text-transform:none"/><path id="path817-3-9-3" d="m9.0138 7.0018c14.682 3.7456 20.975 9.9882 20.975 9.9882" fill="none" stroke="#b5b5b5" stroke-linecap="round" stroke-opacity=".99216" stroke-width="2"/><path id="path817-3-9" d="m29.986 7.0018c-14.682 3.7456-20.975 9.9882-20.975 9.9882" fill="none" stroke="#da0606" stroke-linecap="round" stroke-width="2"/></svg>
