<svg id="svg25537" width="26" height="26" version="1.1" xmlns="http://www.w3.org/2000/svg"><defs id="defs25539"><linearGradient id="linearGradient7834" x1="13" x2="13" y1="1027.4" y2="1049.4" gradientTransform="translate(0 -1026.4)" gradientUnits="userSpaceOnUse"><stop id="stop3803-7-3" stop-color="#242424" offset="0"/><stop id="stop3805-5-0" stop-color="#101010" offset="1"/></linearGradient></defs><rect id="rect3029-6" x="2" y="2" width="24" height="24" rx="2" ry="2" color="#000000" fill="#060606" opacity=".62085"/><rect id="rect3029-6-6" x="1" y="1" width="24" height="24" rx="2" ry="2" color="#000000" opacity=".72"/><rect id="rect3029" x=".5" y=".49998" width="23" height="23" rx="2" ry="2" color="#000000" fill="url(#linearGradient7834)"/><path id="path3944" d="m10 9h3v6h-2v-5h-1v-1" display="none" fill="#bfbfbf"/><path id="path3948" d="m13 10h1v6h-2v-1h1v-5" display="none" fill="#060606"/><path id="path5770-89-8-1" d="m10 10h7v4h-5v1h5v1h-7v-3h5v-2h-5v-1" display="none" fill="#060606"/><path id="path5770-8-5-6-8" d="m9 9h7v4h-5v1h5v1h-7v-3h5v-2h-5v-1" display="none" fill="#bfbfbf"/><path id="path6542-5-0" d="m10 10h7v6h-7v-1h5v-1h-2v-1h2v-2h-5v-1" display="none" fill="#060606"/><path id="path6542-3" d="m9 9h7v6h-7v-1h5v-1h-2v-1h2v-2h-5v-1" display="none" fill="#bfbfbf"/><path id="path6751-9" d="m10 11v3h5v2h2v-6h-2v3h-3v-2h-2" display="none" fill="#060606"/><path id="path6751" d="m9 10v3h5v2h2v-6h-2v3h-3v-2h-2" display="none" fill="#bfbfbf"/><path id="path9276-9-3" d="m-23-14.5h3v-3h3v3h3v3h-3v3h-3v-3h-3v-3" display="none" fill="#060606"/><path id="path9276-5" d="m-24-15.5h3v-3h3v3h3v3h-3v3h-3v-3h-3v-3" display="none" fill="#bfbfbf"/><path id="path9788-2-2" d="m-11-14.5h9v3h-9v-3" display="none" fill="#060606"/><path id="path9788-6" d="m-12-15.5h9v3h-9v-3" display="none" fill="#bfbfbf"/><path id="path9792-3-2-6" d="m17 12h-4v-4l-5 5.5 5 5.5v-4h4v-3" fill="#060606"/><path id="path9792-3-3" d="m16 11h-4v-4l-5 5.5 5 5.5v-4h4v-3" fill="#bfbfbf"/><path id="path9792-0-0" d="m9 12h4v-4l5 5.5-5 5.5v-4h-4v-3" display="none" fill="#060606"/><path id="path9792-9" d="m8 11h4v-4l5 5.5-5 5.5v-4h-4v-3" display="none" fill="#bfbfbf"/><path id="path9817-3-1" d="m11 7h5v13h-1v-7h-4v-6" display="none" fill="#060606"/><path id="path9817-7" d="m10 6h5v13h-1v-7h-4v-6" display="none" fill="#bfbfbf"/><path id="path9817-6-7-5" d="m16 7h-5v13h1v-7h4v-6" display="none" fill="#060606"/><path id="path9817-6-4" d="m15 6h-5v13h1v-7h4v-6" display="none" fill="#bfbfbf"/><path id="path9863-3-5" d="m13 6.2188c-3.5899 0-6.5 2.9101-6.5 6.5 0 0.04264-8.17e-4 0.08256 0 0.125 0.31008-0.21529 0.65937-0.36228 1.0312-0.46875 0.1786-2.8763 2.5474-5.1562 5.4687-5.1562 3.0376 0 5.5 2.4624 5.5 5.5 0 0.04206 9.4e-4 0.08317 0 0.125 0.35675 0.2477 0.66301 0.54621 0.90625 0.90625 0.05416-0.33774 0.09375-0.67825 0.09375-1.0312 0-3.5899-2.9102-6.5-6.5-6.5z" color="#000000" display="none" fill="#060606" stroke="#060606" stroke-width=".5"/><path id="path9842-6-4" d="m8.5 19.219c-1.933 0-3.5-1.567-3.5-3.5s1.567-3.5 3.5-3.5z" color="#000000" display="none" fill="#060606"/><path id="path9842-2-0-7" d="m17.5 19.219c1.933 0 3.5-1.567 3.5-3.5s-1.567-3.5-3.5-3.5z" color="#000000" display="none" fill="#060606"/><path id="path9863-2" d="m12 5.2188c-3.5899 0-6.5 2.9101-6.5 6.5 0 0.04264-8.17e-4 0.08256 0 0.125 0.31008-0.21529 0.65937-0.36228 1.0312-0.46875 0.1786-2.8763 2.5474-5.1562 5.4688-5.1562 3.0376 0 5.5 2.4624 5.5 5.5 0 0.04206 9.39e-4 0.08317 0 0.125 0.35675 0.2477 0.66301 0.54621 0.90625 0.90625 0.05416-0.33774 0.09375-0.67825 0.09375-1.0312 0-3.5899-2.9101-6.5-6.5-6.5z" color="#000000" display="none" fill="#bfbfbf" stroke="#bfbfbf" stroke-width=".5"/><path id="path9842-5" d="m7.5 18.219c-1.933 0-3.5-1.567-3.5-3.5s1.567-3.5 3.5-3.5z" color="#000000" display="none" fill="#bfbfbf"/><path id="path9842-2-4" d="m16.5 18.219c1.933 0 3.5-1.567 3.5-3.5s-1.567-3.5-3.5-3.5z" color="#000000" display="none" fill="#bfbfbf"/><path id="rect3029-96-0" d="m2 0c-1.0994 0-2 0.90065-2 2v20c0 1.0994 0.90065 2 2 2h20c1.0994 0 2-0.90065 2-2v-20c0-1.0994-0.90065-2-2-2zm0.3 1h19.4c0.56265 0 1.3 0.73735 1.3 1.3v19.4c0 0.56265-0.73735 1.3-1.3 1.3h-19.4c-0.56265 0-1.3-0.73735-1.3-1.3v-19.4c0-0.56265 0.73735-1.3 1.3-1.3z" color="#000000" fill="#585858" style="block-progression:tb;text-indent:0;text-transform:none"/></svg>
