<?xml version="1.0" encoding="UTF-8" standalone="no"?>
<!-- Created with Inkscape (http://www.inkscape.org/) -->

<svg
   xmlns:dc="http://purl.org/dc/elements/1.1/"
   xmlns:cc="http://creativecommons.org/ns#"
   xmlns:rdf="http://www.w3.org/1999/02/22-rdf-syntax-ns#"
   xmlns:svg="http://www.w3.org/2000/svg"
   xmlns="http://www.w3.org/2000/svg"
   xmlns:xlink="http://www.w3.org/1999/xlink"
   version="1.1"
   width="26"
   height="26"
   id="svg25537">
  <defs
     id="defs25539">
    <linearGradient
       x1="15"
       y1="1049.3622"
       x2="15"
       y2="1027.3622"
       id="linearGradient25229"
       xlink:href="#linearGradient3801-6-9-0"
       gradientUnits="userSpaceOnUse"
       gradientTransform="translate(0,-1026.3622)" />
    <linearGradient
       id="linearGradient3801-6-9-0">
      <stop
         id="stop3803-7-1-9"
         style="stop-color:#aa1112;stop-opacity:1"
         offset="0" />
      <stop
         id="stop4329-4"
         style="stop-color:#b60607;stop-opacity:1"
         offset="0.28" />
      <stop
         id="stop3805-5-28-5"
         style="stop-color:#760607;stop-opacity:1"
         offset="1" />
    </linearGradient>
    <linearGradient
       x1="15"
       y1="1049.3622"
       x2="15"
       y2="1027.3622"
       id="linearGradient4370"
       xlink:href="#linearGradient3801-6-9-0-1"
       gradientUnits="userSpaceOnUse"
       gradientTransform="translate(0,-1026.3622)" />
    <linearGradient
       id="linearGradient3801-6-9-0-1">
      <stop
         id="stop3803-7-1-9-5"
         style="stop-color:#aa1112;stop-opacity:1"
         offset="0" />
      <stop
         id="stop4329-4-9"
         style="stop-color:#b60607;stop-opacity:1"
         offset="0.28" />
      <stop
         id="stop3805-5-28-5-7"
         style="stop-color:#760607;stop-opacity:1"
         offset="1" />
    </linearGradient>
    <linearGradient
       x1="13"
       y1="1027.3622"
       x2="13"
       y2="1049.3622"
       id="linearGradient3807-3"
       xlink:href="#linearGradient3801-6"
       gradientUnits="userSpaceOnUse"
       gradientTransform="translate(0,-1026.3622)" />
    <linearGradient
       id="linearGradient3801-6">
      <stop
         id="stop3803-7"
         style="stop-color:#242424;stop-opacity:1"
         offset="0" />
      <stop
         id="stop3805-5"
         style="stop-color:#101010;stop-opacity:1"
         offset="1" />
    </linearGradient>
    <linearGradient
       x1="15"
       y1="1049.3622"
       x2="15"
       y2="1027.3622"
       id="linearGradient4370-6"
       xlink:href="#linearGradient3801-6-9-0-7"
       gradientUnits="userSpaceOnUse"
       gradientTransform="translate(0,-1026.3622)" />
    <linearGradient
       id="linearGradient3801-6-9-0-7">
      <stop
         id="stop3803-7-1-9-3"
         style="stop-color:#aa1112;stop-opacity:1"
         offset="0" />
      <stop
         id="stop4329-4-6"
         style="stop-color:#b60607;stop-opacity:1"
         offset="0.28" />
      <stop
         id="stop3805-5-28-5-5"
         style="stop-color:#760607;stop-opacity:1"
         offset="1" />
    </linearGradient>
    <linearGradient
       x1="15"
       y1="1049.3622"
       x2="15"
       y2="1027.3622"
       id="linearGradient14755"
       xlink:href="#linearGradient3801-6-9-0-6"
       gradientUnits="userSpaceOnUse"
       gradientTransform="translate(0,-1026.3622)" />
    <linearGradient
       id="linearGradient3801-6-9-0-6">
      <stop
         id="stop3803-7-1-9-39"
         style="stop-color:#aa1112;stop-opacity:1"
         offset="0" />
      <stop
         id="stop4329-4-4"
         style="stop-color:#b60607;stop-opacity:1"
         offset="0.28" />
      <stop
         id="stop3805-5-28-5-8"
         style="stop-color:#760607;stop-opacity:1"
         offset="1" />
    </linearGradient>
    <linearGradient
       x1="15"
       y1="1049.3622"
       x2="15"
       y2="1027.3622"
       id="linearGradient14408"
       xlink:href="#linearGradient3801-6-9-0-12"
       gradientUnits="userSpaceOnUse"
       gradientTransform="translate(0,-1026.3622)" />
    <linearGradient
       id="linearGradient3801-6-9-0-12">
      <stop
         id="stop3803-7-1-9-9"
         style="stop-color:#aa1112;stop-opacity:1"
         offset="0" />
      <stop
         id="stop4329-4-3"
         style="stop-color:#b60607;stop-opacity:1"
         offset="0.28" />
      <stop
         id="stop3805-5-28-5-9"
         style="stop-color:#760607;stop-opacity:1"
         offset="1" />
    </linearGradient>
    <linearGradient
       x1="15"
       y1="1049.3622"
       x2="15"
       y2="1027.3622"
       id="linearGradient4370-0"
       xlink:href="#linearGradient3801-6-9-0-8"
       gradientUnits="userSpaceOnUse"
       gradientTransform="translate(0,-1026.3622)" />
    <linearGradient
       id="linearGradient3801-6-9-0-8">
      <stop
         id="stop3803-7-1-9-8"
         style="stop-color:#aa1112;stop-opacity:1"
         offset="0" />
      <stop
         id="stop4329-4-5"
         style="stop-color:#b60607;stop-opacity:1"
         offset="0.28" />
      <stop
         id="stop3805-5-28-5-0"
         style="stop-color:#760607;stop-opacity:1"
         offset="1" />
    </linearGradient>
    <linearGradient
       x1="15"
       y1="1049.3622"
       x2="15"
       y2="1027.3622"
       id="linearGradient4370-9"
       xlink:href="#linearGradient3801-6-9-0-63"
       gradientUnits="userSpaceOnUse"
       gradientTransform="translate(0,-1026.3622)" />
    <linearGradient
       id="linearGradient3801-6-9-0-63">
      <stop
         id="stop3803-7-1-9-85"
         style="stop-color:#aa1112;stop-opacity:1"
         offset="0" />
      <stop
         id="stop4329-4-61"
         style="stop-color:#b60607;stop-opacity:1"
         offset="0.28" />
      <stop
         id="stop3805-5-28-5-1"
         style="stop-color:#760607;stop-opacity:1"
         offset="1" />
    </linearGradient>
    <linearGradient
       x1="15"
       y1="1049.3622"
       x2="15"
       y2="1027.3622"
       id="linearGradient7564"
       xlink:href="#linearGradient3801-6-9-0-63"
       gradientUnits="userSpaceOnUse"
       gradientTransform="translate(0,-1026.3622)" />
    <linearGradient
       x1="15"
       y1="1049.3622"
       x2="15"
       y2="1027.3622"
       id="linearGradient7607"
       xlink:href="#linearGradient3801-6-9-0-63"
       gradientUnits="userSpaceOnUse"
       gradientTransform="translate(0,-1026.3622)" />
  </defs>
  <metadata
     id="metadata25542">
    <rdf:RDF>
      <cc:Work
         rdf:about="">
        <dc:format>image/svg+xml</dc:format>
        <dc:type
           rdf:resource="http://purl.org/dc/dcmitype/StillImage" />
        <dc:title></dc:title>
      </cc:Work>
    </rdf:RDF>
  </metadata>
  <rect
     width="23"
     height="23.000017"
     rx="1.5"
     ry="1.5"
     x="0.5"
     y="0.49998301"
     id="rect3029-96-4"
     style="color:#000000;fill:url(#linearGradient7607);fill-opacity:1;fill-rule:nonzero;stroke:none;stroke-width:1;marker:none;visibility:visible;display:inline;overflow:visible;enable-background:accumulate" />
  <path
     d="m 10,9 3,0 0,6 -2,0 0,-5 -1,0 0,-1"
     id="path3944-9-6"
     style="fill:#8d8f90;fill-opacity:1;stroke:none;display:none" />
  <path
     d="m 13,10 1,0 0,6 -2,0 0,-1 1,0 0,-5"
     id="path3948-7-8"
     style="fill:#320202;fill-opacity:1;stroke:none;display:none" />
  <path
     d="m 10,10 7,0 0,4 -5,0 0,1 5,0 0,1 -7,0 0,-3 5,0 0,-2 -5,0 0,-1"
     id="path5770-89"
     style="fill:#320202;fill-opacity:1;stroke:none;display:none" />
  <path
     d="m 9,9 7,0 0,4 -5,0 0,1 5,0 0,1 -7,0 0,-3 5,0 0,-2 -5,0 0,-1"
     id="path5770-8-5"
     style="fill:#8d8f90;fill-opacity:1;stroke:none;display:none" />
  <path
     d="m 10,10 7,0 0,6 -7,0 0,-1 5,0 0,-1 -2,0 0,-1 2,0 0,-2 -5,0 0,-1"
     id="path6542-5-0-4-4"
     style="fill:#320202;fill-opacity:1;stroke:none;display:none" />
  <path
     d="m 9,9 7,0 0,6 -7,0 0,-1 5,0 0,-1 -2,0 0,-1 2,0 0,-2 -5,0 0,-1"
     id="path6542-3-5-9"
     style="fill:#8d8f90;fill-opacity:1;stroke:none;display:none" />
  <path
     d="m 10,11 0,3 5,0 0,2 2,0 0,-6 -2,0 0,3 -3,0 0,-2 -2,0"
     id="path6751-9-1"
     style="fill:#320202;fill-opacity:1;stroke:none;display:none" />
  <path
     d="m 9,10 0,3 5,0 0,2 2,0 0,-6 -2,0 0,3 -3,0 0,-2 -2,0"
     id="path6751-6"
     style="fill:#8d8f90;fill-opacity:1;stroke:none;display:none" />
  <path
     d="m -23,-14.5 3,0 0,-3 3,0 0,3 3,0 0,3 -3,0 0,3 -3,0 0,-3 -3,0 0,-3"
     id="path9276-9"
     style="fill:#320202;fill-opacity:1;stroke:none;display:none" />
  <path
     d="m -24,-15.5 3,0 0,-3 3,0 0,3 3,0 0,3 -3,0 0,3 -3,0 0,-3 -3,0 0,-3"
     id="path9276"
     style="fill:#8d8f90;fill-opacity:1;stroke:none;display:none" />
  <path
     d="m -11,-14.5 9,0 0,3 -9,0 0,-3"
     id="path9788-2"
     style="fill:#320202;fill-opacity:1;stroke:none;display:none" />
  <path
     d="m -12,-15.5 9,0 0,3 -9,0 0,-3"
     id="path9788"
     style="fill:#8d8f90;fill-opacity:1;stroke:none;display:none" />
  <path
     d="m 17,12 -4,0 0,-4 -5,5.5 5,5.5 0,-4 4,0 0,-3"
     id="path9792-3-2"
     style="fill:#320202;fill-opacity:1;stroke:none;display:inline" />
  <path
     d="m 16,11 -4,0 0,-4 -5,5.5 5,5.5 0,-4 4,0 0,-3"
     id="path9792-3"
     style="fill:#8d8f90;fill-opacity:1;stroke:none;display:inline" />
  <path
     d="m 9,12 4,0 0,-4 5,5.5 -5,5.5 0,-4 -4,0 0,-3"
     id="path9792-0"
     style="fill:#320202;fill-opacity:1;stroke:none;display:none" />
  <path
     d="m 8,11 4,0 0,-4 5,5.5 -5,5.5 0,-4 -4,0 0,-3"
     id="path9792"
     style="fill:#8d8f90;fill-opacity:1;stroke:none;display:none" />
  <path
     d="m 11,7 5,0 0,13 -1,0 0,-7 -4,0 0,-6"
     id="path9817-3"
     style="fill:#320202;fill-opacity:1;stroke:none;display:none" />
  <path
     d="m 10,6 5,0 0,13 -1,0 0,-7 -4,0 0,-6"
     id="path9817"
     style="fill:#8d8f90;fill-opacity:1;stroke:none;display:none" />
  <path
     d="m 16,7 -5,0 0,13 1,0 0,-7 4,0 0,-6"
     id="path9817-6-7"
     style="fill:#320202;fill-opacity:1;stroke:none;display:none" />
  <path
     d="m 15,6 -5,0 0,13 1,0 0,-7 4,0 0,-6"
     id="path9817-6"
     style="fill:#8d8f90;fill-opacity:1;stroke:none;display:none" />
  <path
     d="m 13,6.25 c -3.589851,0 -6.5,2.910149 -6.5,6.5 0,0.04264 -8.17e-4,0.08256 0,0.125 C 6.810077,12.659707 7.159368,12.512724 7.53125,12.40625 7.70985,9.529923 10.078679,7.25 13,7.25 c 3.037566,0 5.5,2.462434 5.5,5.5 0,0.04206 9.39e-4,0.08317 0,0.125 0.35675,0.247699 0.663009,0.546206 0.90625,0.90625 C 19.460408,13.443513 19.5,13.103002 19.5,12.75 19.5,9.160149 16.589851,6.25 13,6.25 z"
     id="path9863-3"
     style="color:#000000;fill:#320202;fill-opacity:1;fill-rule:nonzero;stroke:#320202;stroke-width:0.5;stroke-miterlimit:4;stroke-opacity:1;stroke-dasharray:none;marker:none;visibility:visible;display:none;overflow:visible;enable-background:accumulate" />
  <path
     d="M 8.5,19.25 C 6.567004,19.25 5,17.682997 5,15.75 5,13.817004 6.567004,12.25 8.5,12.25 z"
     id="path9842-6"
     style="color:#000000;fill:#320202;fill-opacity:1;fill-rule:nonzero;stroke:none;stroke-width:1;marker:none;visibility:visible;display:none;overflow:visible;enable-background:accumulate" />
  <path
     d="m 17.5,19.25 c 1.932996,0 3.5,-1.567003 3.5,-3.5 0,-1.932996 -1.567004,-3.5 -3.5,-3.5 z"
     id="path9842-2-0"
     style="color:#000000;fill:#320202;fill-opacity:1;fill-rule:nonzero;stroke:none;stroke-width:1;marker:none;visibility:visible;display:none;overflow:visible;enable-background:accumulate" />
  <path
     d="m 12,5.25 c -3.589851,0 -6.5,2.910149 -6.5,6.5 0,0.04264 -8.17e-4,0.08256 0,0.125 C 5.810077,11.659707 6.159368,11.512724 6.53125,11.40625 6.70985,8.529923 9.078679,6.25 12,6.25 c 3.037566,0 5.5,2.462434 5.5,5.5 0,0.04206 9.39e-4,0.08317 0,0.125 0.35675,0.247699 0.663009,0.546206 0.90625,0.90625 C 18.460408,12.443513 18.5,12.103002 18.5,11.75 18.5,8.160149 15.589851,5.25 12,5.25 z"
     id="path9863"
     style="color:#000000;fill:#8d8f90;fill-opacity:1;fill-rule:nonzero;stroke:#8f8f8f;stroke-width:0.5;stroke-miterlimit:4;stroke-opacity:1;stroke-dasharray:none;marker:none;visibility:visible;display:none;overflow:visible;enable-background:accumulate" />
  <path
     d="M 7.5,18.25 C 5.567004,18.25 4,16.682997 4,14.75 4,12.817004 5.567004,11.25 7.5,11.25 z"
     id="path9842"
     style="color:#000000;fill:#8d8f90;fill-opacity:1;fill-rule:nonzero;stroke:none;stroke-width:1;marker:none;visibility:visible;display:none;overflow:visible;enable-background:accumulate" />
  <path
     d="m 16.5,18.25 c 1.932996,0 3.5,-1.567003 3.5,-3.5 0,-1.932996 -1.567004,-3.5 -3.5,-3.5 z"
     id="path9842-2"
     style="color:#000000;fill:#8d8f90;fill-opacity:1;fill-rule:nonzero;stroke:none;stroke-width:1;marker:none;visibility:visible;display:none;overflow:visible;enable-background:accumulate" />
  <path
     d="M 2,0 C 0.90064862,0 0,0.90064862 0,2 l 0,20 c 0,1.099351 0.90064862,2 2,2 l 20,0 c 1.099351,0 2,-0.900649 2,-2 L 24,2 C 24,0.90064862 23.099351,0 22,0 z M 2.3,1 21.7,1 C 22.262649,1 23,1.7373514 23,2.3 l 0,19.4 C 23,22.262649 22.262649,23 21.7,23 L 2.3,23 C 1.7373514,23 1,22.262649 1,21.7 L 1,2.3 C 1,1.7373514 1.7373514,1 2.3,1 z"
     id="rect3029-96-9"
     style="font-size:medium;font-style:normal;font-variant:normal;font-weight:normal;font-stretch:normal;text-indent:0;text-align:start;text-decoration:none;line-height:normal;letter-spacing:normal;word-spacing:normal;text-transform:none;direction:ltr;block-progression:tb;writing-mode:lr-tb;text-anchor:start;baseline-shift:baseline;color:#000000;fill:#979797;fill-opacity:1;fill-rule:nonzero;stroke:none;stroke-width:1;marker:none;visibility:visible;display:inline;overflow:visible;enable-background:accumulate;font-family:Sans;-inkscape-font-specification:Sans" />
</svg>
