<svg id="svg4724" width="39" height="22" version="1.1" xmlns="http://www.w3.org/2000/svg"><defs id="defs4726"><linearGradient id="linearGradient5254" x1="13" x2="13" y1="1027.4" y2="1049.4" gradientTransform="matrix(1.4783 0 0 .82609 1.7609 182.59)" gradientUnits="userSpaceOnUse"><stop id="stop3803-7" stop-color="#242424" offset="0"/><stop id="stop3805-5" stop-color="#101010" offset="1"/></linearGradient><linearGradient id="linearGradient5772" x1="20" x2="20" y1="1042.4" y2="1035.4" gradientUnits="userSpaceOnUse"><stop id="stop5768" stop-color="#c8c8c8" offset="0"/><stop id="stop5770" stop-color="#646464" offset="1"/></linearGradient></defs><g id="layer1" transform="translate(0 -1030.4)"><rect id="rect3029-6" x="4" y="1032.4" width="35" height="20" rx="2" ry="2" color="#000000" fill="#060606" opacity=".62085"/><rect id="rect3029-6-6" x="3" y="1031.4" width="35" height="20" rx="2" ry="2" color="#000000" opacity=".72"/><rect id="rect3029" x="2.5" y="1030.9" width="34" height="19" rx="2" ry="2" color="#000000" fill="url(#linearGradient5254)"/><path id="rect3029-96-0-7" d="m4.5 1030.9c-1.0994 0-2 0.9006-2 2v1.5h34v-1.5c0-1.0994-0.90065-2-2-2z" color="#000000" fill="#666" style="text-decoration-line:none;text-indent:0;text-transform:none"/><path id="rect3029-96-0" d="m4 1030.4c-1.0994 0-2 0.9006-2 2v16c0 1.0994 0.90065 2 2 2h31c1.0994 0 2-0.9006 2-2v-16c0-1.0994-0.90065-2-2-2zm0.3 1h30.4c0.56265 0 1.3 0.7374 1.3 1.3v15.4c0 0.5626-0.73735 1.3-1.3 1.3h-30.4c-0.56265 0-1.3-0.7374-1.3-1.3v-15.4c0-0.5626 0.73735-1.3 1.3-1.3z" color="#000000" fill="url(#linearGradient5772)" style="text-decoration-line:none;text-indent:0;text-transform:none"/></g></svg>
