<svg width="20" height="38" version="1.1" xmlns="http://www.w3.org/2000/svg"><defs><linearGradient id="d" x1="20" x2="20" y1="1063.7" y2="1050.1" gradientTransform="matrix(1,0,0,-1,0,1066.3)" gradientUnits="userSpaceOnUse"><stop stop-color="#c8c8c8" offset="0"/><stop stop-color="#646464" offset="1"/></linearGradient><linearGradient id="c" x1="13" x2="13" y1="1027.4" y2="1049.4" gradientTransform="matrix(1.4783 0 0 .82609 1.7609 -831.81)" gradientUnits="userSpaceOnUse"><stop stop-color="#242424" offset="0"/><stop stop-color="#101010" offset="1"/></linearGradient></defs><path d="m2.5.50002h15c1.108 0 2 .892 2 2v33c0 1.108-.892 2-2 2h-15c-1.108 0-2-.892-2-2v-33c0-1.108.892-2 2-2z" color="#000000" fill="url(#c)"/><path d="m2.5.5c-1.0994 0-2 3.0994-2 2v1.5h19v-1.5c0-1.0994-.90065-2-2-2z" color="#000000" fill="#c8c8c8" style="text-decoration-line:none;text-indent:0;text-transform:none"/><path d="m2 38c-1.0994 0-2-.9006-2-2v-34c0-1.0994.90065-2 2-2h16c1.0994 0 2 .9006 2 2v34c0 1.0994-.90065 2-2 2zm.3-1h15.4c.56265 0 1.3-.7374 1.3-1.3v-33.4c0-.5626-.73735-1.3-1.3-1.3h-15.4c-.56265 0-1.3.7374-1.3 1.3v33.4c0 .5626.73735 1.3 1.3 1.3z" color="#000000" fill="url(#d)" style="text-decoration-line:none;text-indent:0;text-transform:none"/><path d="M 14.708,30 10,25.2919 5.292,30 4.115,28.8229 10,22.9378 l 5.885,5.8851 z" fill="#888"/><path d="m14.708 12-4.7081 4.7081-4.7081-4.7081-1.1771 1.1771 5.8851 5.8851 5.8851-5.8851-1.1771-1.1771z" fill="#888"/></svg>
