<svg id="svg25537" width="26" height="26" version="1.1" xmlns="http://www.w3.org/2000/svg"><defs id="defs25539"><linearGradient id="linearGradient35942" x1="15" x2="15" y1="1049.4" y2="1027.4" gradientTransform="translate(0 -1026.4)" gradientUnits="userSpaceOnUse"><stop id="stop3803-7-6" stop-color="#222" offset="0"/><stop id="stop3805-5-2" stop-color="#131516" offset="1"/></linearGradient></defs><rect id="rect3029-9" x=".5" y=".49998" width="23" height="23" rx="2" ry="2" color="#000000" fill="url(#linearGradient35942)"/><path id="path3944-9" d="m10 9h3v6h-2v-5h-1v-1" display="none" fill="#8d8f90"/><path id="path3948-7" d="m13 10h1v6h-2v-1h1v-5" display="none" fill="#080808"/><path id="path5770-89-8" d="m10 10h7v4h-5v1h5v1h-7v-3h5v-2h-5v-1" display="none" fill="#080808"/><path id="path5770-8-5-6" d="m9 9h7v4h-5v1h5v1h-7v-3h5v-2h-5v-1" display="none" fill="#8d8f90"/><path id="path6542-5" d="m10 10h7v6h-7v-1h5v-1h-2v-1h2v-2h-5v-1" display="none" fill="#080808"/><path id="path6542" d="m9 9h7v6h-7v-1h5v-1h-2v-1h2v-2h-5v-1" display="none" fill="#8d8f90"/><path id="path6751-9-1-3-1" d="m10 11v3h5v2h2v-6h-2v3h-3v-2h-2" display="none" fill="#080808"/><path id="path6751-6-3-5" d="m9 10v3h5v2h2v-6h-2v3h-3v-2h-2" display="none" fill="#8d8f90"/><path id="rect3029-96-0-9" d="m2 0c-1.0994 0-2 0.90065-2 2v20c0 1.0994 0.90065 2 2 2h20c1.0994 0 2-0.90065 2-2v-20c0-1.0994-0.90065-2-2-2zm0.3 1h19.4c0.56265 0 1.3 0.73735 1.3 1.3v19.4c0 0.56265-0.73735 1.3-1.3 1.3h-19.4c-0.56265 0-1.3-0.73735-1.3-1.3v-19.4c0-0.56265 0.73735-1.3 1.3-1.3z" color="#000000" fill="#454748" style="block-progression:tb;text-indent:0;text-transform:none"/><g id="g6490" transform="translate(-5.678 .96822)"><path id="path9863-1-2-3" d="m18.678 4.7818c-3.725 0-6.75 3.025-6.75 6.75 0 0.03983-9.4e-4 0.07667 0 0.125v0.21875c-0.75815 0.64202-1.25 1.585-1.25 2.6562 0 1.933 1.567 3.5 3.5 3.5v-7c-0.24162 0-0.49091 0.01588-0.71875 0.0625 0.21566-2.7031 2.4594-4.8125 5.2188-4.8125 2.753 0 4.9939 2.1183 5.2188 4.8125-0.22784-0.04662-0.47712-0.0625-0.71875-0.0625v7c1.933 0 3.5-1.567 3.5-3.5 0-1.0873-0.50338-2.0455-1.2812-2.6875 0.0061-0.10559 0.03125-0.20307 0.03125-0.3125 0-3.725-3.025-6.75-6.75-6.75z" color="#000000" fill="#080808" style="block-progression:tb;text-indent:0;text-transform:none"/><path id="path9863-1-2" d="m17.678 3.7818c-3.725 0-6.75 3.025-6.75 6.75 0 0.03983-9.4e-4 0.07667 0 0.125v0.21875c-0.75815 0.64202-1.25 1.585-1.25 2.6562 0 1.933 1.567 3.5 3.5 3.5v-7c-0.24162 0-0.49091 0.01588-0.71875 0.0625 0.21566-2.7031 2.4594-4.8125 5.2188-4.8125 2.753 0 4.9939 2.1183 5.2188 4.8125-0.22784-0.04662-0.47712-0.0625-0.71875-0.0625v7c1.933 0 3.5-1.567 3.5-3.5 0-1.0873-0.50338-2.0455-1.2812-2.6875 0.0061-0.10559 0.03125-0.20307 0.03125-0.3125 0-3.725-3.025-6.75-6.75-6.75z" color="#000000" fill="#8d8f90" style="block-progression:tb;text-indent:0;text-transform:none"/></g></svg>
