<?xml version="1.0" encoding="UTF-8" standalone="no"?>
<!-- Created with Inkscape (http://www.inkscape.org/) -->

<svg
   xmlns:dc="http://purl.org/dc/elements/1.1/"
   xmlns:cc="http://creativecommons.org/ns#"
   xmlns:rdf="http://www.w3.org/1999/02/22-rdf-syntax-ns#"
   xmlns:svg="http://www.w3.org/2000/svg"
   xmlns="http://www.w3.org/2000/svg"
   xmlns:xlink="http://www.w3.org/1999/xlink"
   xmlns:inkscape="http://www.inkscape.org/namespaces/inkscape"
   version="1.1"
   width="26"
   height="26"
   id="svg8760">
  <defs
     id="defs8762">
    <linearGradient
       x1="13"
       y1="1027.3622"
       x2="13"
       y2="1049.3622"
       id="linearGradient3807-3"
       xlink:href="#linearGradient3801-6"
       gradientUnits="userSpaceOnUse" />
    <linearGradient
       id="linearGradient3801-6">
      <stop
         id="stop3803-7"
         style="stop-color:#242424;stop-opacity:1"
         offset="0" />
      <stop
         id="stop3805-5"
         style="stop-color:#101010;stop-opacity:1"
         offset="1" />
    </linearGradient>
    <linearGradient
       x1="13"
       y1="1027.3622"
       x2="13"
       y2="1049.3622"
       id="linearGradient3807-3-3"
       xlink:href="#linearGradient3801-6-5"
       gradientUnits="userSpaceOnUse" />
    <linearGradient
       id="linearGradient3801-6-5">
      <stop
         id="stop3803-7-6"
         style="stop-color:#242424;stop-opacity:1"
         offset="0" />
      <stop
         id="stop3805-5-2"
         style="stop-color:#101010;stop-opacity:1"
         offset="1" />
    </linearGradient>
    <inkscape:path-effect
       effect="spiro"
       id="path-effect9278-7-1-6-2-3" />
    <inkscape:path-effect
       effect="spiro"
       id="path-effect9278-73-9-7-6" />
  </defs>
  <metadata
     id="metadata8765">
    <rdf:RDF>
      <cc:Work
         rdf:about="">
        <dc:format>image/svg+xml</dc:format>
        <dc:type
           rdf:resource="http://purl.org/dc/dcmitype/StillImage" />
        <dc:title></dc:title>
      </cc:Work>
    </rdf:RDF>
  </metadata>
  <g
     transform="translate(0,-1026.3622)"
     id="layer1">
    <rect
       width="24"
       height="24"
       rx="2"
       ry="2"
       x="2"
       y="1028.3622"
       id="rect3029-6"
       style="opacity:0.62085308;color:#000000;fill:#060606;fill-opacity:1;fill-rule:nonzero;stroke:none;stroke-width:1;marker:none;visibility:visible;display:inline;overflow:visible;enable-background:accumulate" />
    <rect
       width="24"
       height="24"
       rx="2"
       ry="2"
       x="1"
       y="1027.3622"
       id="rect3029-6-6"
       style="opacity:0.72000002;color:#000000;fill:#000000;fill-opacity:1;fill-rule:nonzero;stroke:none;stroke-width:1;marker:none;visibility:visible;display:inline;overflow:visible;enable-background:accumulate" />
    <rect
       width="23"
       height="23.000017"
       rx="2"
       ry="2"
       x="0.5"
       y="1026.8622"
       id="rect3029"
       style="color:#000000;fill:url(#linearGradient3807-3-3);fill-opacity:1;fill-rule:nonzero;stroke:none;stroke-width:1;marker:none;visibility:visible;display:inline;overflow:visible;enable-background:accumulate" />
    <path
       d="m 2,1026.3622 c -1.09935138,0 -2,0.9006 -2,2 l 0,20 c 0,1.0994 0.90064862,2 2,2 l 20,0 c 1.099351,0 2,-0.9006 2,-2 l 0,-20 c 0,-1.0994 -0.900649,-2 -2,-2 z m 0.3,1 19.4,0 c 0.562649,0 1.3,0.7374 1.3,1.3 l 0,19.4 c 0,0.5626 -0.737351,1.3 -1.3,1.3 l -19.4,0 c -0.5626486,0 -1.3,-0.7374 -1.3,-1.3 l 0,-19.4 c 0,-0.5626 0.7373514,-1.3 1.3,-1.3 z"
       id="rect3029-96-0"
       style="font-size:medium;font-style:normal;font-variant:normal;font-weight:normal;font-stretch:normal;text-indent:0;text-align:start;text-decoration:none;line-height:normal;letter-spacing:normal;word-spacing:normal;text-transform:none;direction:ltr;block-progression:tb;writing-mode:lr-tb;text-anchor:start;baseline-shift:baseline;color:#000000;fill:#585858;fill-opacity:1;fill-rule:nonzero;stroke:none;stroke-width:1;marker:none;visibility:visible;display:inline;overflow:visible;enable-background:accumulate;font-family:Sans;-inkscape-font-specification:Sans" />
    <path
       d="m 9,1038.3622 3,0 0,-3 3,0 0,3 3,0 0,3 -3,0 0,3 -3,0 0,-3 -3,0 0,-3"
       id="path9276-9-3-7"
       style="fill:#060606;fill-opacity:1;stroke:none;display:inline" />
    <path
       d="m 8,1037.3622 3,0 0,-3 3,0 0,3 3,0 0,3 -3,0 0,3 -3,0 0,-3 -3,0 0,-3"
       id="path9276-5-5"
       style="fill:#bfbfbf;fill-opacity:1;stroke:none;display:inline" />
  </g>
</svg>
