<svg id="svg4867" width="30" height="30" version="1.1" xmlns="http://www.w3.org/2000/svg"><defs id="defs4869"><linearGradient id="linearGradient3807-3" x1="13" x2="13" y1="1027.4" y2="1049.4" gradientTransform="matrix(1.087 0 0 1.087 1.9565 -91.292)" gradientUnits="userSpaceOnUse"><stop id="stop3803-7-6" stop-color="#222" offset="0"/><stop id="stop3805-5-2" stop-color="#131516" offset="1"/></linearGradient></defs><g id="layer1" transform="translate(0 -1022.4)"><rect id="rect3029" x="2.5" y="1024.9" width="25" height="25" rx="2" ry="2" color="#000000" fill="url(#linearGradient3807-3)"/><path id="rect3029-96-0" d="m4.1667 1024.4c-1.191 0-2.1667 0.9757-2.1667 2.1667v21.667c0 1.1911 0.9757 2.1667 2.1667 2.1667h21.667c1.191 0 2.1667-0.9756 2.1667-2.1667v-21.667c0-1.191-0.9757-2.1667-2.1667-2.1667zm0.325 1.0833h21.017c0.60954 0 1.4083 0.7989 1.4083 1.4084v21.017c0 0.6095-0.7988 1.4084-1.4083 1.4084h-21.017c-0.60954 0-1.4083-0.7989-1.4083-1.4084v-21.017c0-0.6095 0.7988-1.4084 1.4083-1.4084z" color="#000000" fill="#454748" style="block-progression:tb;text-indent:0;text-transform:none"/><path id="path6" d="m19.545 1030.8-1.437 1.437c1.7154 1.0492 2.864 2.9336 2.864 5.0916 0 3.2966-2.6701 5.9668-5.9668 5.9668s-5.9668-2.6702-5.9668-5.9668c0-2.158 1.1486-4.0424 2.864-5.0916l-1.437-1.437c-2.0635 1.437-3.416 3.8236-3.416 6.5286 0 4.3955 3.5602 7.9556 7.9557 7.9556s7.9557-3.5601 7.9557-7.9556c0-2.705-1.3525-5.0916-3.416-6.5286z" fill="#989898"/><path id="path2985-3" d="m16 1027.4h-1.9889v7h1.9889z" fill="#989898"/></g></svg>
