<?xml version="1.0" encoding="UTF-8" standalone="no"?>
<!-- Created with Inkscape (http://www.inkscape.org/) -->

<svg
   xmlns:dc="http://purl.org/dc/elements/1.1/"
   xmlns:cc="http://creativecommons.org/ns#"
   xmlns:rdf="http://www.w3.org/1999/02/22-rdf-syntax-ns#"
   xmlns:svg="http://www.w3.org/2000/svg"
   xmlns="http://www.w3.org/2000/svg"
   xmlns:xlink="http://www.w3.org/1999/xlink"
   version="1.1"
   width="26"
   height="26"
   id="svg2">
  <defs
     id="defs4">
    <linearGradient
       x1="13"
       y1="1027.3622"
       x2="13"
       y2="1049.3622"
       id="linearGradient3807-3"
       xlink:href="#linearGradient3801-6"
       gradientUnits="userSpaceOnUse"
       gradientTransform="matrix(1.3478261,0,0,1.3478251,-0.17391304,-365.1684)" />
    <linearGradient
       id="linearGradient3801-6">
      <stop
         id="stop3803-7"
         style="stop-color:#242424;stop-opacity:1"
         offset="0" />
      <stop
         id="stop3805-5"
         style="stop-color:#101010;stop-opacity:1"
         offset="1" />
    </linearGradient>
    <linearGradient
       x1="13"
       y1="1027.3622"
       x2="13"
       y2="1049.3622"
       id="linearGradient5688"
       xlink:href="#linearGradient3801-6"
       gradientUnits="userSpaceOnUse"
       gradientTransform="translate(0,-1026.3614)" />
  </defs>
  <metadata
     id="metadata7">
    <rdf:RDF>
      <cc:Work
         rdf:about="">
        <dc:format>image/svg+xml</dc:format>
        <dc:type
           rdf:resource="http://purl.org/dc/dcmitype/StillImage" />
        <dc:title></dc:title>
      </cc:Work>
    </rdf:RDF>
  </metadata>
  <rect
     width="24"
     height="24"
     rx="2"
     ry="2"
     x="2"
     y="1.9999828"
     id="rect3029-6"
     style="opacity:0.62085308;color:#000000;fill:#060606;fill-opacity:1;fill-rule:nonzero;stroke:none;stroke-width:1;marker:none;visibility:visible;display:inline;overflow:visible;enable-background:accumulate" />
  <rect
     width="24"
     height="24"
     rx="2"
     ry="2"
     x="1"
     y="0.99998283"
     id="rect3029-6-6"
     style="opacity:0.72000002;color:#000000;fill:#000000;fill-opacity:1;fill-rule:nonzero;stroke:none;stroke-width:1;marker:none;visibility:visible;display:inline;overflow:visible;enable-background:accumulate" />
  <rect
     width="23"
     height="23"
     rx="2"
     ry="2"
     x="0.5"
     y="0.49998283"
     id="rect3029"
     style="color:#000000;fill:url(#linearGradient5688);fill-opacity:1;fill-rule:nonzero;stroke:none;stroke-width:1;marker:none;visibility:visible;display:inline;overflow:visible;enable-background:accumulate" />
  <path
     d="M 2.65625,3.75e-4 C 1.1904481,3.8970734e-4 0,1.1908231 0,2.656625 L 0,21.34375 C 0,22.809552 1.1904481,24.000015 2.65625,24 l 18.687125,-1.88e-4 c 1.465802,-1.4e-5 2.65625,-1.190448 2.65625,-2.65625 l 0,-18.6871245 c 0,-1.4658019 -1.190448,-2.65626470734 -2.65625,-2.65625 z m 0.125,1 18.437125,-1.875e-4 c 0.767249,-7.8e-6 1.78125,1.0140019 1.78125,1.78125 l 0,18.4371245 c 0,0.767249 -1.014001,1.781243 -1.78125,1.78125 L 2.78125,23 C 2.0140019,23.000008 1,21.985999 1,21.21875 L 1,2.781625 C 1,2.0143769 2.0140019,1.0003828 2.78125,1.000375 z"
     id="path5055"
     style="font-size:medium;font-style:normal;font-variant:normal;font-weight:normal;font-stretch:normal;text-indent:0;text-align:start;text-decoration:none;line-height:normal;letter-spacing:normal;word-spacing:normal;text-transform:none;direction:ltr;block-progression:tb;writing-mode:lr-tb;text-anchor:start;baseline-shift:baseline;color:#000000;fill:#585858;fill-opacity:1;fill-rule:nonzero;stroke:none;stroke-width:1;marker:none;visibility:visible;display:inline;overflow:visible;enable-background:accumulate;font-family:Sans;-inkscape-font-specification:Sans" />
  <path
     d="M 17.75,12.15625 10,17.34375 10,19 19,13 17.75,12.15625 z"
     id="path3936-0-8-9-3-3"
     style="fill:#060606;fill-opacity:1;stroke:none;display:inline" />
  <path
     d="M 9,6 17.9995,12 9,18 9,6"
     id="path3936-0-8-9-7-6"
     style="fill:#bfbfbf;fill-opacity:1;stroke:none;display:inline" />
</svg>
