<svg width="38" height="38" version="1.1" xmlns="http://www.w3.org/2000/svg" xmlns:xlink="http://www.w3.org/1999/xlink"><defs><linearGradient id="a" x1=".99975" x2="37" y1="19" y2="19" gradientTransform="matrix(0 .9494 -.94623 0 36.011 .050715)" gradientUnits="userSpaceOnUse"><stop stop-color="#242424" offset="0"/><stop stop-color="#101010" offset="1"/></linearGradient></defs><rect x=".27966" y=".72034" width="36.721" height="36.285" rx="2" ry="2" color="#000000" opacity=".9"/><path d="m35.064 33.28c0 1.0519-.84404 1.8988-1.8925 1.8988l-30.28-.000237c-1.0484-9e-6-1.8925-.84686-1.8925-1.8988v-30.381c0-1.0519.84404-1.8988 1.8925-1.8988l32.172.00023739z" color="#000000" fill="url(#a)" opacity=".9"/><path d="m36.812 2.1875c.11153.24962.1875.5205.1875.8125l-.00025 32c-9e-6 1.108-.892 2-2 2h-32c-.292 0-.56288-.075973-.8125-.1875.31167.69758.9965 1.1875 1.8125 1.1875h32c1.108 0 2-.892 2-2l.00025-32c6e-6-.816-.48992-1.5008-1.1875-1.8125z" color="#000000" fill="#060606" opacity=".62085"/><g transform="translate(-10,-7)"><path d="m33 20v11h-3v1h4v-12z" fill="#060606"/><path d="m39 20v11h-3v1h4v-12z" fill="#060606"/><path d="m29 19h4v12h-4v-12" fill="#bfbfbf"/><path d="m35 19v12h4v-12h-4" fill="#bfbfbf"/></g><path d="m2.0002 0c-1.0994 0-2 .90065-2 2l-.00025 32c-8.5891e-6 1.0994.90065 2 2 2h32c1.0994 0 2-.90065 2-2l.00025-32c9e-6-1.0994-.90065-2-2-2zm.3 1h31.4c.56265 0 1.3.73735 1.3 1.3l-.00025 31.4c-4e-6.56265-.73735 1.3-1.3 1.3h-31.4c-.56265 0-1.3-.73735-1.3-1.3l.00025-31.4c4.5e-6-.56265.73735-1.3 1.3-1.3z" color="#000000" fill="#585858" style="text-indent:0;text-transform:none"/><g transform="translate(-6,-7)"><path d="m21.75 25.156-7.75 5.1875v1.6562l9-6-1.25-.84375z" fill="#060606"/><path d="m13 19 8.9995 6-8.9995 6v-12" fill="#bfbfbf"/></g></svg>
