<svg id="svg2" width="24" height="24" version="1.1" xmlns="http://www.w3.org/2000/svg"><g id="g4021-6-3" transform="matrix(-.5112 .44559 -.50559 -.58003 28.909 20.828)" fill="#d2d2d2" stroke-width="1.0108"><path id="rect3922-2-6" transform="matrix(-1.4588 0 0 1.2857 27.506 3.1429)" d="m12 3c-1.2837 0-2.334 1.0503-2.334 2.334v11.797c-1.6125 0.8501-2.7305 2.5239-2.7305 4.4648 0 1.9422 1.1183 3.6174 2.7324 4.4668v-3.1956c0-1.2837 1.0503-2.334 2.334-2.334s2.332 1.0503 2.332 2.334v3.1956c1.6141-0.84939 2.7324-2.5246 2.7324-4.4668 0-1.9425-1.1184-3.6174-2.7324-4.4668v-11.795c0-1.2837-1.0503-2.334-2.334-2.334z" color="#000000" fill="#d2d2d2"/></g><path id="path4753-7-3" d="m9 13.363v7.6375h2v-5.3425z" fill="#888"/><path id="path4753-7-3-6" d="m14 3v5.9864l2 2.2949v-8.2813z" fill="#888"/><path id="path4753-7-3-6-7" d="m19 3v11.725l2 2.293v-14.018z" fill="#888"/><path id="path4753-7-3-5" d="m4 11.713v9.2874h2v-7.9846c-0.73826-0.26909-1.4212-0.69782-2-1.3027z" fill="#888"/></svg>
