<svg id="svg2" width="52" height="26" version="1.1" xmlns="http://www.w3.org/2000/svg"><defs id="defs4"><linearGradient id="linearGradient5331" x1="11" x2="11" y1="1027.4" y2="1049.4" gradientTransform="matrix(2.1304 0 0 1 -.56522 -1050.4)" gradientUnits="userSpaceOnUse"><stop id="stop3803-7-1-95" stop-color="#ce0e0e" offset="0"/><stop id="stop4329-2" stop-color="#d00" offset=".28"/><stop id="stop3805-5-28-1" stop-color="#8d0000" offset="1"/></linearGradient></defs><rect id="rect3029-96-3" transform="scale(1,-1)" x=".5" y="-23.5" width="49" height="23" rx="1.5" ry="1.5" color="#000000" fill="url(#linearGradient5331)"/><path id="rect3029-96" d="m2 0c-1.0994 0-2 0.90065-2 2v20c0 1.0994 0.90065 2 2 2h46c1.0994 0 2-0.90065 2-2v-20c0-1.0994-0.90065-2-2-2zm0.3 1h45.4c0.56265 0 1.3 0.73735 1.3 1.3v19.4c0 0.56265-0.73735 1.3-1.3 1.3h-45.4c-0.56265 0-1.3-0.73735-1.3-1.3v-19.4c0-0.56265 0.73735-1.3 1.3-1.3z" color="#000000" fill="#979797" style="block-progression:tb;text-indent:0;text-transform:none"/><path id="path3940-3-2-6" d="m33 7v11h-3v1h4v-12h-1z" fill="#3d0000"/><path id="path3944-5-7-1" d="m39 7v11h-3v1h4v-12h-1z" fill="#3d0000"/><path id="path3940-9-7" d="m29 6h4v12h-4v-12" fill="#bfbfbf"/><path id="path3944-3-9" d="m35 6v12h4v-12h-4" fill="#bfbfbf"/><path id="path3936-0-8-9-3" d="m21.75 12.156-7.75 5.1875v1.6562l9-6-1.25-0.84375z" fill="#3d0000"/><path id="path3936-0-8-9-6" d="m13 6 8.9995 6-8.9995 6v-12" fill="#bfbfbf"/></svg>
