<?xml version="1.0" encoding="UTF-8" standalone="no"?>
<svg
   xmlns:dc="http://purl.org/dc/elements/1.1/"
   xmlns:cc="http://creativecommons.org/ns#"
   xmlns:rdf="http://www.w3.org/1999/02/22-rdf-syntax-ns#"
   xmlns:svg="http://www.w3.org/2000/svg"
   xmlns="http://www.w3.org/2000/svg"
   xmlns:sodipodi="http://sodipodi.sourceforge.net/DTD/sodipodi-0.dtd"
   xmlns:inkscape="http://www.inkscape.org/namespaces/inkscape"
   id="svg2"
   width="52"
   height="26"
   version="1.1"
   sodipodi:docname="btn_reverse_down.svg"
   inkscape:version="0.92.4 (unknown)">
  <metadata
     id="metadata15">
    <rdf:RDF>
      <cc:Work
         rdf:about="">
        <dc:format>image/svg+xml</dc:format>
        <dc:type
           rdf:resource="http://purl.org/dc/dcmitype/StillImage" />
        <dc:title></dc:title>
      </cc:Work>
    </rdf:RDF>
  </metadata>
  <sodipodi:namedview
     pagecolor="#ffffff"
     bordercolor="#666666"
     borderopacity="1"
     objecttolerance="10"
     gridtolerance="10"
     guidetolerance="10"
     inkscape:pageopacity="0"
     inkscape:pageshadow="2"
     inkscape:window-width="1366"
     inkscape:window-height="740"
     id="namedview13"
     showgrid="false"
     inkscape:zoom="5.25"
     inkscape:cx="26"
     inkscape:cy="13"
     inkscape:window-x="0"
     inkscape:window-y="0"
     inkscape:window-maximized="1"
     inkscape:current-layer="svg2" />
  <defs
     id="defs4">
    <linearGradient
       id="linearGradient3878"
       x1="15"
       x2="15"
       y1="1049.4"
       y2="1027.4"
       gradientTransform="matrix(2.1304,0,0,1,-0.56522,-1026.4)"
       gradientUnits="userSpaceOnUse">
      <stop
         id="stop3803-7-6"
         stop-color="#222"
         offset="0" />
      <stop
         id="stop3805-5-2"
         stop-color="#131516"
         offset="1" />
    </linearGradient>
  </defs>
  <path
     style="color:#000000;fill:url(#linearGradient3878)"
     d="m 4.5,2.49999 h 43 c 1.108,0 2,0.892 2,2 v 16.99999 c 0,1.108 -0.892,2 -2,2 h -43 c -1.108,0 -2,-0.892 -2,-2 V 4.49999 c 0,-1.108 0.892,-2 2,-2 z"
     id="rect3029-9"
     inkscape:connector-curvature="0"
     sodipodi:nodetypes="sssssssss" />
  <g
     id="layer19"
     transform="translate(0,1.00045)">
    <path
       style="fill:#080808"
       inkscape:connector-curvature="0"
       d="m 30,6.7188 c -0.27402,0.15082 -0.62867,0.36449 -1,0.625 v 10.656 l 1,0.71875 z"
       id="path3936-0-9-4" />
    <path
       style="fill:#8d8f90"
       inkscape:connector-curvature="0"
       d="M 29,6 20.0005,12 29,18 V 6"
       id="path3936-0-9" />
  </g>
  <path
     inkscape:connector-curvature="0"
     style="color:#000000;text-indent:0;text-transform:none;fill:#454748"
     d="m 4,2.00001 c -1.0994,0 -2,0.90065 -2,2 V 22 c 0,1.0994 0.90065,2 2,2 h 44 c 1.0994,0 2,-0.90065 2,-2 V 4.00001 c 0,-1.0994 -0.90065,-2 -2,-2 z m 0.3,1 h 43.4 c 0.56265,0 1.3,0.73735 1.3,1.3 V 21.7 C 49,22.26265 48.26265,23 47.7,23 H 4.3 C 3.73735,23 3,22.26265 3,21.7 V 4.30001 c 0,-0.56265 0.73735,-1.3 1.3,-1.3 z"
     id="rect3029-96-0-9"
     sodipodi:nodetypes="ssssssssssssssssss" />
</svg>
