<?xml version="1.0" encoding="UTF-8" standalone="no"?>
<svg
   xmlns:dc="http://purl.org/dc/elements/1.1/"
   xmlns:cc="http://creativecommons.org/ns#"
   xmlns:rdf="http://www.w3.org/1999/02/22-rdf-syntax-ns#"
   xmlns:svg="http://www.w3.org/2000/svg"
   xmlns="http://www.w3.org/2000/svg"
   id="svg2"
   width="76"
   height="22"
   version="1.1">
  <metadata
     id="metadata29">
    <rdf:RDF>
      <cc:Work
         rdf:about="">
        <dc:format>image/svg+xml</dc:format>
        <dc:type
           rdf:resource="http://purl.org/dc/dcmitype/StillImage" />
        <dc:title></dc:title>
      </cc:Work>
    </rdf:RDF>
  </metadata>
  <defs
     id="defs4">
    <linearGradient
       id="linearGradient3807-3"
       x1="13"
       x2="13"
       y1="1027.4"
       y2="1049.4"
       gradientTransform="matrix(2.1304,0,0,1,0.43478,-1026.4)"
       gradientUnits="userSpaceOnUse">
      <stop
         id="stop3803-7"
         stop-color="#242424"
         offset="0" />
      <stop
         id="stop3805-5"
         stop-color="#101010"
         offset="1" />
    </linearGradient>
  </defs>
  <path
     d="M 14,7 H 7 v 4 h 5 v 1 H 7 v 1 h 7 V 10 H 9 V 8 h 5 V 7"
     id="path5532-3-9"
     style="fill:#bfbfbf" />
  <path
     d="M 15,8 H 9 v 2 h 1 V 9 h 5 V 8"
     id="path5554-5-9"
     style="fill:#060606" />
  <path
     d="m 14,11 h 1 v 3 H 8 v -1 h 6 v -2"
     id="path5558-4-5"
     style="fill:#060606" />
  <path
     d="m 12,11 v 1 H 8 v -1 h 4"
     id="path5562-7-0"
     style="fill:#060606" />
  <path
     id="path3466-9-1"
     d="m 23,8 v 6 h 6 V 13 H 25 V 8 h -2"
     style="fill:#060606" />
  <path
     id="path3458-3-8-9"
     d="m 16,8 v 6 h 2 v -2 h 4 V 8 Z m 2,1 h 3 v 2 h -3 z"
     style="fill:#060606" />
  <path
     id="path3466-9"
     d="m 22,7 v 6 h 6 V 12 H 24 V 7 h -2"
     style="fill:#bfbfbf" />
  <path
     id="path3458-3-8"
     d="m 15,7 v 6 h 2 v -2 h 4 V 7 Z m 2,1 h 3 v 2 h -3 z"
     style="fill:#bfbfbf" />
  <path
     id="path3454-3"
     d="m 33,8 h 6 v 1 h -2 v 5 H 35 V 9 H 33 V 8"
     style="fill:#060606" />
  <path
     id="path3454"
     d="m 32,7 h 6 v 1 h -2 v 5 H 34 V 8 H 32 V 7"
     style="fill:#bfbfbf" />
  <rect
     y="7"
     x="29"
     height="6"
     width="2"
     id="rect885"
     style="opacity:1;fill:#bfbfbf;fill-opacity:1;stroke:none;stroke-width:1;stroke-linecap:round;stroke-linejoin:round;stroke-miterlimit:4;stroke-dasharray:none;stroke-opacity:1;paint-order:fill markers stroke" />
  <path
     id="path887"
     d="m 30,13 v 1 h 2 V 8 h -1 v 5 z"
     style="fill:#060606;fill-opacity:1;stroke:none;stroke-width:1px;stroke-linecap:butt;stroke-linejoin:miter;stroke-opacity:1" />
  <g
     style="fill:#bfbfbf"
     id="g6087-0-4"
     transform="translate(31,-2)">
    <path
       d="m 20,9 h -7 v 6 h 7 v -1 h -5 v -4 h 5 V 9"
       id="path6038-8-4" />
    <path
       d="m 22,9 v 6 h 7 V 9 h -2 v 5 H 24 V 9 h -2"
       id="path6042-8-4" />
    <path
       d="m 31,9 v 6 h 7 v -1 h -5 v -2 h 4 v -1 h -4 v -1 h 5 V 9 h -7"
       id="path6046-5-4" />
  </g>
  <g
     style="fill:#060606"
     id="g6078-0-7"
     transform="translate(31,-2)">
    <path
       d="m 21,10 h -6 v 4 h 1 v -3 h 5 v -1"
       id="path6050-9-6" />
    <path
       d="m 21,15 v 1 h -7 v -1 h 7"
       id="path6054-6-3" />
    <path
       d="m 24,10 h 1 v 4 h -1 v -4"
       id="path6058-3-1" />
    <path
       d="m 23,15 v 1 h 7 v -6 h -1 v 5 h -6"
       id="path6062-8-7" />
    <path
       d="m 39,10 h -6 v 1 h 6 v -1"
       id="path6066-5-5" />
    <path
       d="m 38,12 h -5 v 2 h 1 v -1 h 4 v -1"
       id="path6070-6-9" />
    <path
       d="m 39,15 v 1 h -7 v -1 h 7"
       id="path6074-1-6" />
  </g>
</svg>
