<?xml version="1.0" encoding="UTF-8" standalone="no"?>
<svg
   xmlns:dc="http://purl.org/dc/elements/1.1/"
   xmlns:cc="http://creativecommons.org/ns#"
   xmlns:rdf="http://www.w3.org/1999/02/22-rdf-syntax-ns#"
   xmlns:svg="http://www.w3.org/2000/svg"
   xmlns="http://www.w3.org/2000/svg"
   version="1.1"
   height="26"
   width="52"
   id="svg2">
  <metadata
     id="metadata21">
    <rdf:RDF>
      <cc:Work
         rdf:about="">
        <dc:format>image/svg+xml</dc:format>
        <dc:type
           rdf:resource="http://purl.org/dc/dcmitype/StillImage" />
        <dc:title></dc:title>
      </cc:Work>
    </rdf:RDF>
  </metadata>
  <defs
     id="defs4">
    <linearGradient
       gradientUnits="userSpaceOnUse"
       gradientTransform="matrix(2.1304,0,0,1,-0.56522,-1027.4)"
       y2="1049.4"
       y1="1027.4"
       x2="13"
       x1="13"
       id="linearGradient5414">
      <stop
         offset="0"
         stop-color="#242424"
         id="stop3803-7" />
      <stop
         offset="1"
         stop-color="#101010"
         id="stop3805-5" />
    </linearGradient>
  </defs>
  <path
     id="rect3029-6-6"
     d="M 4.9999999,2 H 49 c 1.108,0 2,0.892 2,2 v 19 c 0,1.108 -0.892,2 -2,2 H 4.9999999 C 3.8919999,25 3,24.108 3,23 V 4 C 3,2.892 3.8919999,2 4.9999999,2 Z"
     style="color:#000000;opacity:0.9;stroke-width:0.95916629" />
  <path
     style="color:#000000;opacity:0.62085003;fill:#060606"
     d="M 50.812,3.1875 C 50.92353,3.43712 50.9995,3.708 50.9995,4 l 0,19 c 0,1.108 -0.892,2 -2,2 H 4.99975 C 4.70775,25 4.43687,24.924027 4.18725,24.8125 4.49892,25.51008 5.18375,26 5.99975,26 H 49.9995 c 1.108,0 2,-0.892 2,-2 l 0,-19 c 0,-0.816 -0.48992,-1.5008 -1.1875,-1.8125 z"
     id="rect3029-6" />
  <path
     id="rect3029"
     d="M 4.50025,1.49998 H 47.5 c 1.108,0 2,0.892 2,2 l 0,18 c 0,1.108 -0.892,2 -2,2 H 4.50025 c -1.108,0 -2,-0.892 -2,-2 l 0,-18 c 0,-1.108 0.892,-2 2,-2 z"
     style="color:#000000;fill:url(#linearGradient5414)" />
  <path
     fill="#060606"
     display="none"
     d="m21.624 11.75-7.6245 5.5938v1.6562l8.9995-6.5z"
     id="path3936-5" />
  <path
     fill="#060606"
     display="none"
     d="m33 7v11h-3v1h4v-12h-1z"
     id="path3940-3" />
  <path
     fill="#060606"
     display="none"
     d="m39 7v11h-3v1h4v-12h-1z"
     id="path3944-5" />
  <path
     fill="#bfbfbf"
     display="none"
     d="M 13,6 21.9995,11.5 13,18 13,6"
     id="path3936" />
  <path
     fill="#bfbfbf"
     display="none"
     d="m29 6h4v12h-4v-12"
     id="path3940" />
  <path
     fill="#bfbfbf"
     display="none"
     d="m35 6v12h4v-12h-4"
     id="path3944" />
  <path
     style="fill:#060606"
     d="m 30,6.71925 c -0.27402,0.15082 -0.62867,0.36449 -1,0.625 v 10.656 l 1,0.71875 z"
     id="path3936-0-9-4-4" />
  <path
     style="fill:#bfbfbf"
     d="m 29,6.00045 -8.9995,6 8.9995,6 v -12"
     id="path3936-0-9-5" />
  <path
     style="color:#000000;text-indent:0;text-transform:none;fill:#444444"
     d="m 4.00025,1 c -1.0994,0 -2,0.90065 -2,2 l 0,19 c 0,1.0994 0.90065,2 2,2 H 48 c 1.0994,0 2,-0.90065 2,-2 L 50,3 C 50,1.9006 49.09935,1 48,1 Z m 0.3,1 H 47.7 C 48.26265,2 49,2.73735 49,3.3 l 0,18.4 C 49,22.26265 48.26265,23 47.7,23 H 4.30025 c -0.56265,0 -1.3,-0.73735 -1.3,-1.3 l 0,-18.4 c 0,-0.56265 0.73735,-1.3 1.3,-1.3 z"
     id="rect3029-96-0" />
</svg>
