<svg id="svg2" width="34" height="34" version="1.1" xmlns="http://www.w3.org/2000/svg"><defs id="defs4"><linearGradient id="linearGradient4836" x1="15" x2="15" y1="1049.4" y2="1027.4" gradientTransform="matrix(1.3478 0 0 1.3478 -.17391 -1383.5)" gradientUnits="userSpaceOnUse"><stop id="stop3803-7-1-9" stop-color="#aa1112" offset="0"/><stop id="stop4329-4" stop-color="#b60607" offset=".28"/><stop id="stop3805-5-28-5" stop-color="#760607" offset="1"/></linearGradient></defs><rect id="rect3029-96-4" x=".5" y=".5" width="31" height="31" rx="1.5" ry="1.5" color="#000000" fill="url(#linearGradient4836)"/><path id="path3936-0-8-9-3" d="m23.95 17-11.95 7.9777v1.6562l13.2-8.7902z" fill="#320202"/><path id="path3936-0-8-9-7" d="m11 8.3661 12.95 8.634-12.95 8.6339v-17.268" fill="#8d8f90"/><path id="path5055" d="m2.6562 0c-1.4658 0-2.6562 1.1904-2.6562 2.6562v26.688c0 1.4658 1.1904 2.6562 2.6562 2.6562h26.688c1.4658 0 2.6562-1.1904 2.6562-2.6562v-26.688c0-1.4658-1.1904-2.6562-2.6562-2.6562h-26.688zm0.125 1h26.438c0.76725 0 1.7812 1.014 1.7812 1.7812v26.438c0 0.76725-1.014 1.7812-1.7812 1.7812h-26.438c-0.76725 0-1.7812-1.014-1.7812-1.7812v-26.438c0-0.76725 1.014-1.7812 1.7812-1.7812z" color="#000000" fill="#979797" style="block-progression:tb;text-indent:0;text-transform:none"/></svg>
