<?xml version="1.0" encoding="UTF-8" standalone="no"?>
<svg
   xmlns:dc="http://purl.org/dc/elements/1.1/"
   xmlns:cc="http://creativecommons.org/ns#"
   xmlns:rdf="http://www.w3.org/1999/02/22-rdf-syntax-ns#"
   xmlns:svg="http://www.w3.org/2000/svg"
   xmlns="http://www.w3.org/2000/svg"
   xmlns:sodipodi="http://sodipodi.sourceforge.net/DTD/sodipodi-0.dtd"
   xmlns:inkscape="http://www.inkscape.org/namespaces/inkscape"
   id="svg4724"
   width="20"
   height="50"
   version="1.1"
   sodipodi:docname="btn_samplerExpand.svg"
   viewBox="0 0 20 50"
   inkscape:version="0.92.3 (2405546, 2018-03-11)">
  <metadata
     id="metadata36">
    <rdf:RDF>
      <cc:Work
         rdf:about="">
        <dc:format>image/svg+xml</dc:format>
        <dc:type
           rdf:resource="http://purl.org/dc/dcmitype/StillImage" />
        <dc:title></dc:title>
      </cc:Work>
    </rdf:RDF>
  </metadata>
  <sodipodi:namedview
     pagecolor="#ffffff"
     bordercolor="#666666"
     borderopacity="1"
     objecttolerance="10"
     gridtolerance="10"
     guidetolerance="10"
     inkscape:pageopacity="0"
     inkscape:pageshadow="2"
     inkscape:window-width="959"
     inkscape:window-height="1024"
     id="namedview34"
     showgrid="false"
     viewbox-width="38.6"
     viewbox-x="0"
     scale-x="1"
     fit-margin-top="10"
     fit-margin-left="0"
     fit-margin-right="0"
     fit-margin-bottom="0"
     inkscape:zoom="8.5641025"
     inkscape:cx="-3.3488604"
     inkscape:cy="28.917391"
     inkscape:window-x="960"
     inkscape:window-y="0"
     inkscape:window-maximized="0"
     inkscape:current-layer="svg4724"
     units="mm" />
  <defs
     id="defs4726">
    <linearGradient
       id="linearGradient5254"
       x1="13"
       x2="13"
       y1="1027.4"
       y2="1049.4"
       gradientTransform="matrix(1.4783,0,0,0.82609,1.7609,182.59)"
       gradientUnits="userSpaceOnUse">
      <stop
         id="stop3803-7"
         stop-color="#242424"
         offset="0" />
      <stop
         id="stop3805-5"
         stop-color="#101010"
         offset="1" />
    </linearGradient>
    <linearGradient
       id="linearGradient5772"
       x1="20"
       x2="20"
       y1="1042.4"
       y2="1035.4"
       gradientUnits="userSpaceOnUse">
      <stop
         id="stop5768"
         stop-color="#c8c8c8"
         offset="0" />
      <stop
         id="stop5770"
         stop-color="#646464"
         offset="1" />
    </linearGradient>
  </defs>
  <g
     id="layer1"
     transform="matrix(0.54054054,0,0,1.9545433,-1.0810811,-2007.014)">
    <rect
       id="rect3029-6"
       x="4"
       y="1032.4"
       width="35"
       height="20"
       rx="2"
       ry="2"
       style="color:#000000;opacity:0.62085003;fill:#060606" />
    <rect
       id="rect3029-6-6"
       x="3"
       y="1031.4"
       width="35"
       height="20"
       rx="2"
       ry="2"
       style="color:#000000;opacity:0.72000002" />
    <rect
       id="rect3029"
       x="2.5"
       y="1030.9"
       width="34"
       height="19"
       rx="2"
       ry="2"
       style="color:#000000;fill:url(#linearGradient5254)" />
    <path
       id="rect3029-96-0-7"
       d="m 4.5,1030.9 c -1.0994,0 -2,0.9006 -2,2 v 1.5 h 34 v -1.5 c 0,-1.0994 -0.90065,-2 -2,-2 z"
       style="color:#000000;text-indent:0;text-decoration:none;text-decoration-line:none;text-transform:none;fill:#666666"
       inkscape:connector-curvature="0" />
    <path
       id="rect3029-96-0"
       d="m 4,1030.4 c -1.0994,0 -2,0.9006 -2,2 v 16 c 0,1.0994 0.90065,2 2,2 h 31 c 1.0994,0 2,-0.9006 2,-2 v -16 c 0,-1.0994 -0.90065,-2 -2,-2 z m 0.3,1 h 30.4 c 0.56265,0 1.3,0.7374 1.3,1.3 v 15.4 c 0,0.5626 -0.73735,1.3 -1.3,1.3 H 4.3 c -0.56265,0 -1.3,-0.7374 -1.3,-1.3 v -15.4 c 0,-0.5626 0.73735,-1.3 1.3,-1.3 z"
       style="color:#000000;text-indent:0;text-decoration:none;text-decoration-line:none;text-transform:none;fill:url(#linearGradient5772)"
       inkscape:connector-curvature="0" />
  </g>
  <text
     xml:space="preserve"
     style="font-style:normal;font-weight:normal;font-size:33.14639664px;line-height:1.25;font-family:sans-serif;letter-spacing:0px;word-spacing:0px;fill:#eeeeee;fill-opacity:0.93333333;stroke:none;stroke-width:0.82865995"
     x="2.5643125"
     y="41.35804"
     id="text97"><tspan
       sodipodi:role="line"
       id="tspan95"
       x="2.5643125"
       y="41.35804"
       style="font-size:16.57319832px;fill:#eeeeee;fill-opacity:0.93333333;stroke-width:0.82865995">+</tspan></text>
</svg>
