<svg id="svg2" width="26" height="26" version="1.1" xmlns="http://www.w3.org/2000/svg"><defs id="defs4"><linearGradient id="linearGradient5075" x1="11" x2="11" y1="1027.4" y2="1049.4" gradientTransform="translate(0 -1026.4)" gradientUnits="userSpaceOnUse"><stop id="stop3803-7-1-95" stop-color="#ce0e0e" offset="0"/><stop id="stop4329-2" stop-color="#d00" offset=".28"/><stop id="stop3805-5-28-1" stop-color="#8d0000" offset="1"/></linearGradient></defs><rect id="rect3029-6-1" x="2" y="2" width="24" height="24" rx="2" ry="2" color="#000000" opacity=".5"/><rect id="rect3029-6-6-7" x="1" y="1" width="24" height="24" rx="2" ry="2" color="#000000" opacity=".8"/><rect id="rect3029-96-3" x=".5" y=".49998" width="23" height="23" rx="1.5" ry="1.5" color="#000000" fill="url(#linearGradient5075)"/><path id="rect3029-96" d="m2 0c-1.0994 0-2 0.90065-2 2v20c0 1.0994 0.90065 2 2 2h20c1.0994 0 2-0.90065 2-2v-20c0-1.0994-0.90065-2-2-2zm0.3 1h19.4c0.56265 0 1.3 0.73735 1.3 1.3v19.4c0 0.56265-0.73735 1.3-1.3 1.3h-19.4c-0.56265 0-1.3-0.73735-1.3-1.3v-19.4c0-0.56265 0.73735-1.3 1.3-1.3z" color="#000000" fill="#979797" style="block-progression:tb;text-indent:0;text-transform:none"/><path id="path4077-1-6" d="m11 10v2h-1v4h7v-4h-1v-2zm2 1h2v1h-2zm-1 2h4v2h-4z" fill="#3d0000"/><path id="path4077-3" d="m10 9v2h-1v4h7v-4h-1v-2zm2 1h2v1h-2zm-1 2h4v2h-4z" fill="#bfbfbf"/></svg>
