<?xml version="1.0" encoding="UTF-8" standalone="no"?>
<!-- Created with Inkscape (http://www.inkscape.org/) -->

<svg
   xmlns:dc="http://purl.org/dc/elements/1.1/"
   xmlns:cc="http://creativecommons.org/ns#"
   xmlns:rdf="http://www.w3.org/1999/02/22-rdf-syntax-ns#"
   xmlns:svg="http://www.w3.org/2000/svg"
   xmlns="http://www.w3.org/2000/svg"
   version="1.1"
   width="16"
   height="20"
   id="svg3075">
  <metadata
     id="metadata3087">
    <rdf:RDF>
      <cc:Work
         rdf:about="">
        <dc:format>image/svg+xml</dc:format>
        <dc:type
           rdf:resource="http://purl.org/dc/dcmitype/StillImage" />
        <dc:title></dc:title>
      </cc:Work>
    </rdf:RDF>
  </metadata>
  <defs
     id="defs3085" />
  <path
     d="M 6.9996967,5.0819 2.428178,13 h 9.143038 z"
     id="path3079"
     style="fill:#d2d2d2" />
  <path
     d="M 12.5,0 C 14.430351,0 16,1.5696 16,3.5 v 13 C 16,18.4304 14.430351,20 12.5,20 H 2.5 C 1.519402,20 0.635958,19.6204 0,18.9688 V 16.5 C 0,17.8936 1.106351,19 2.5,19 h 10 C 13.893649,19 15,17.8936 15,16.5 V 3.5 C 15,2.1064 13.893649,1 12.5,1 H 2.5 C 1.106351,1 0,2.1064 0,3.5 V 1.0625 C 0.635958,0.4109 1.519402,0 2.5,0 h 10 z"
     id="path3081"
     style="font-weight:400;text-indent:0;text-align:start;line-height:normal;text-transform:none;block-progression:tb;color:#000000;fill:#d2d2d2;marker:none;overflow:visible;font-family:Sans;-inkscape-font-specification:Sans" />
</svg>
