<svg id="svg2" width="26" height="26" version="1.1" xmlns="http://www.w3.org/2000/svg"><defs id="defs4"><linearGradient id="linearGradient5287" x1="11" x2="11" y1="1027.4" y2="1049.4" gradientTransform="translate(0 -1026.4)" gradientUnits="userSpaceOnUse"><stop id="stop3803-7-1-95-0" stop-color="#ce0e0e" offset="0"/><stop id="stop4329-2-6" stop-color="#d00" offset=".28"/><stop id="stop3805-5-28-1-2" stop-color="#8d0000" offset="1"/></linearGradient></defs><rect id="rect3029-6-1" x="2" y="2" width="24" height="24" rx="2" ry="2" color="#000000" opacity=".5"/><rect id="rect3029-6-6-7" x="1" y="1" width="24" height="24" rx="2" ry="2" color="#000000" opacity=".8"/><rect id="rect3029-96-3" x=".5" y=".49998" width="23" height="23" rx="1.5" ry="1.5" color="#000000" fill="url(#linearGradient5287)"/><path id="rect3029-96" d="m2 0c-1.0994 0-2 0.90065-2 2v20c0 1.0994 0.90065 2 2 2h20c1.0994 0 2-0.90065 2-2v-20c0-1.0994-0.90065-2-2-2zm0.3 1h19.4c0.56265 0 1.3 0.73735 1.3 1.3v19.4c0 0.56265-0.73735 1.3-1.3 1.3h-19.4c-0.56265 0-1.3-0.73735-1.3-1.3v-19.4c0-0.56265 0.73735-1.3 1.3-1.3z" color="#000000" fill="#979797" style="block-progression:tb;text-indent:0;text-transform:none"/><path id="path5770" d="m10 10h7v4h-5v1h5v1h-7v-3h5v-2h-5v-1" fill="#3c0000"/><path id="path5770-8" d="m9 9h7v4h-5v1h5v1h-7v-3h5v-2h-5v-1" fill="#bfbfbf"/></svg>
