<svg id="svg2" width="26" height="26" version="1.1" xmlns="http://www.w3.org/2000/svg"><defs id="defs4"><linearGradient id="linearGradient3807-3" x1="13" x2="13" y1="1027.4" y2="1049.4" gradientTransform="translate(0 -1026.4)" gradientUnits="userSpaceOnUse"><stop id="stop3803-7" stop-color="#242424" offset="0"/><stop id="stop3805-5" stop-color="#101010" offset="1"/></linearGradient></defs><rect id="rect3029-6-0" x="2" y="2" width="24" height="24" rx="2" ry="2" color="#000000" fill="#060606" opacity=".62085"/><rect id="rect3029-6-6-5" x="1" y="1" width="24" height="24" rx="2" ry="2" color="#000000" opacity=".72"/><rect id="rect3029-1" x=".5" y=".49998" width="23" height="23" rx="2" ry="2" color="#000000" fill="url(#linearGradient3807-3)"/><path id="rect3029-96-0-1" d="m2 0c-1.0994 0-2 0.90065-2 2v20c0 1.0994 0.90065 2 2 2h20c1.0994 0 2-0.90065 2-2v-20c0-1.0994-0.90065-2-2-2zm0.3 1h19.4c0.56265 0 1.3 0.73735 1.3 1.3v19.4c0 0.56265-0.73735 1.3-1.3 1.3h-19.4c-0.56265 0-1.3-0.73735-1.3-1.3v-19.4c0-0.56265 0.73735-1.3 1.3-1.3z" color="#000000" fill="#585858" style="block-progression:tb;text-indent:0;text-transform:none"/><path id="path4031-8-1" d="m10 10h6v3h1v1h-1v2h-2v-2h-2v-1h2v-2h-4v-1" fill="#060606"/><path id="path4031-9" d="m9 9h6v3h1v1h-1v2h-2v-2h-2v-1h2v-2h-4v-1" fill="#bfbfbf"/></svg>
