<svg width="52" height="26" version="1.1" xmlns="http://www.w3.org/2000/svg">
	<defs>
		<linearGradient id="a" x1="1.5097979" x2="24.381355" y1="12" y2="12" gradientTransform="matrix(1.0434783 0 0 2.1739131 -.5652488 -49.913047)" gradientUnits="userSpaceOnUse">
			<stop stop-opacity=".0047619" offset="0"/>
			<stop stop-opacity="0" offset=".54365706"/>
			<stop stop-opacity=".47058824" offset="1"/>
		</linearGradient>
	</defs>
	<path d="m50.31346 2.17593c.11592.25262.18555.52951.18555.82422v20c0 1.0994-.9006 1.965575-2 1.965572l-45.49901-.00012c-.6598637-2e-6-1.135675-.352003-1.325-.511743.2090942.790888.7641575 1.546139 1.8242 1.546141l45.99979 1e-4c1.108 2e-6 2-.892 2-2v-20c0-.81658-.48717-1.5129-1.1855-1.8242z" fill="#030303"/>
	<rect x="1.5" y="1.5000299" width="49" height="23" rx=".80000001" ry=".80000001" fill="none" stroke="#aaa" stroke-linecap="round" stroke-linejoin="round" style="paint-order:fill markers stroke"/>
	<rect transform="rotate(90)" x="1" y="-51" width="24" height="50" rx="1.2" ry="1.4" color="#000000" fill="url(#a)"/>
</svg>
