<?xml version="1.0" encoding="UTF-8" standalone="no"?>
<!-- Created with Inkscape (http://www.inkscape.org/) -->

<svg
   xmlns:dc="http://purl.org/dc/elements/1.1/"
   xmlns:cc="http://creativecommons.org/ns#"
   xmlns:rdf="http://www.w3.org/1999/02/22-rdf-syntax-ns#"
   xmlns:svg="http://www.w3.org/2000/svg"
   xmlns="http://www.w3.org/2000/svg"
   version="1.1"
   width="16"
   height="20"
   id="svg3037">
  <metadata
     id="metadata3047">
    <rdf:RDF>
      <cc:Work
         rdf:about="">
        <dc:format>image/svg+xml</dc:format>
        <dc:type
           rdf:resource="http://purl.org/dc/dcmitype/StillImage" />
        <dc:title></dc:title>
      </cc:Work>
    </rdf:RDF>
  </metadata>
  <defs
     id="defs3045" />
  <path
     d="M 9.0003033,14.918 13.571822,6.9999 H 4.4287835 z"
     id="path3039"
     style="fill:#888888;fill-opacity:1" />
  <path
     d="M 3.5,0 C 1.5696486,0 0,1.5696 0,3.5 v 13 C 0,18.4304 1.5696486,20 3.5,20 h 10 c 0.980598,0 1.864042,-0.379628 2.5,-1.03125 V 16.5 C 16,17.8936 14.893649,19 13.5,19 H 3.5 C 2.1063514,19 1,17.8936 1,16.5 V 3.5 C 1,2.1064 2.1063514,1 3.5,1 h 10 C 14.893649,1 16,2.1064 16,3.5 V 1.0625 C 15.364042,0.41087819 14.480598,0 13.5,0 h -10 z"
     id="path3041"
     style="font-weight:400;text-indent:0;text-align:start;line-height:normal;text-transform:none;block-progression:tb;color:#000000;fill:#666666;fill-opacity:1;marker:none;overflow:visible;font-family:Sans;-inkscape-font-specification:Sans" />
</svg>
