<?xml version="1.0" encoding="UTF-8" standalone="no"?>
<svg
   xmlns:dc="http://purl.org/dc/elements/1.1/"
   xmlns:cc="http://creativecommons.org/ns#"
   xmlns:rdf="http://www.w3.org/1999/02/22-rdf-syntax-ns#"
   xmlns:svg="http://www.w3.org/2000/svg"
   xmlns="http://www.w3.org/2000/svg"
   xmlns:xlink="http://www.w3.org/1999/xlink"
   id="svg17"
   version="1.1"
   height="23"
   width="71">
  <metadata
     id="metadata21">
    <rdf:RDF>
      <cc:Work
         rdf:about="">
        <dc:format>image/svg+xml</dc:format>
        <dc:type
           rdf:resource="http://purl.org/dc/dcmitype/StillImage" />
        <dc:title></dc:title>
      </cc:Work>
    </rdf:RDF>
  </metadata>
  <defs
     id="defs7">
    <linearGradient
       gradientUnits="userSpaceOnUse"
       gradientTransform="matrix(2.6957,0,0,1,-0.8478,-1025.4)"
       y2="1049"
       y1="1027.4"
       x2="13"
       x1="13"
       id="a">
      <stop
         id="stop2"
         offset="0"
         stop-color="#242424" />
      <stop
         id="stop4"
         offset="1"
         stop-color="#101010" />
    </linearGradient>
    <linearGradient
       gradientUnits="userSpaceOnUse"
       y2="-12"
       x2="23.500031"
       y1="-12"
       x1="0.50003052"
       id="linearGradient1266"
       xlink:href="#linearGradient1264"
       gradientTransform="matrix(0.91304348,0,0,3,0.04348141,1.0000001)" />
    <linearGradient
       id="linearGradient1264">
      <stop
         style="stop-color:#9d4f00;stop-opacity:1"
         offset="0"
         id="stop1262" />
      <stop
         style="stop-color:#ff8203;stop-opacity:1;"
         offset="1"
         id="stop1260" />
    </linearGradient>
  </defs>
  <rect
     style="color:#000000;fill:url(#linearGradient1266);fill-opacity:1;stroke-width:1.6550318"
     id="rect17-5"
     ry="1.5"
     rx="1.5"
     height="69"
     width="21"
     y="-69.5"
     x="0.50003099"
     transform="rotate(90)" />
  <g
     transform="translate(0,-2)"
     style="fill:#0f0f0f;fill-opacity:1"
     id="g857">
    <path
       id="path6042-8-4-0"
       d="m 21,10 v 6 h 2 v -3 h 3 v 3 h 2 v -6 z m 2,1 h 3 v 1 h -3 z"
       style="fill:#0f0f0f;fill-opacity:1" />
    <path
       d="m 29,10 v 6 h 7 v -6 h -2 v 5 h -3 v -5 h -2"
       id="path6042-8-4-9"
       style="fill:#0f0f0f;fill-opacity:1" />
    <path
       style="fill:#0f0f0f;fill-opacity:1"
       d="m 37,10 h 6 v 1 h -2 v 5 h -2 v -5 h -2 v -1"
       id="path3454-36" />
    <path
       d="m 44,10 v 6 h 7 v -6 m -2,5 h -3 v -4 h 3 z"
       id="path6038-8-4-3-7-1-0"
       style="fill:#0f0f0f;fill-opacity:1" />
  </g>
  <path
     d="M 2.0001983,0 C 0.9007992,0 1.9999996e-4,0.90065 1.9999996e-4,2 L 1.3775e-4,20 c -3.80208e-6,1.0994 0.9006492,2 1.99999835,2 H 68.000002 C 69.099401,22 70,21.09935 70,20 l 6.2e-5,-18 c 4e-6,-1.0994 -0.900649,-2 -1.999998,-2 z M 2.3001981,1 H 67.700064 c 0.562649,0 1.299999,0.73735 1.299999,1.3 l -6.2e-5,17.4 C 69,20.26265 68.262651,21 67.700002,21 H 2.3001361 C 1.7374866,21 1.0001371,20.26265 1.0001371,19.7 L 1.0001995,2.3 C 1.0002015,1.73735 1.7375489,1 2.3001981,1 Z"
     style="color:#000000;text-indent:0;text-decoration:none;text-decoration-line:none;text-transform:none;fill:#d2d2d2;fill-opacity:1"
     id="path15-3" />
</svg>
