<?xml version="1.0" encoding="UTF-8" standalone="no"?>
<svg
   xmlns:dc="http://purl.org/dc/elements/1.1/"
   xmlns:cc="http://creativecommons.org/ns#"
   xmlns:rdf="http://www.w3.org/1999/02/22-rdf-syntax-ns#"
   xmlns:svg="http://www.w3.org/2000/svg"
   xmlns="http://www.w3.org/2000/svg"
   version="1.1"
   height="26"
   width="26"
   id="svg4272">
  <metadata
     id="metadata21">
    <rdf:RDF>
      <cc:Work
         rdf:about="">
        <dc:format>image/svg+xml</dc:format>
        <dc:type
           rdf:resource="http://purl.org/dc/dcmitype/StillImage" />
        <dc:title></dc:title>
      </cc:Work>
    </rdf:RDF>
  </metadata>
  <defs
     id="defs4282">
    <linearGradient
       gradientUnits="userSpaceOnUse"
       gradientTransform="translate(0 -1026.4)"
       y2="1049.4"
       y1="1027.4"
       x2="13"
       x1="13"
       id="linearGradient3807-3">
      <stop
         offset="0"
         stop-color="#242424"
         id="stop3803-7" />
      <stop
         offset="1"
         stop-color="#101010"
         id="stop3805-5" />
    </linearGradient>
  </defs>
  <rect
     style="color:#000000;opacity:0.72000002"
     ry="2"
     rx="2"
     height="24"
     width="24"
     y="1"
     x="0.5"
     id="rect3029-6-6" />
  <rect
     fill="url(#linearGradient3807-3)"
     color="#000000"
     ry="2"
     rx="2"
     height="23"
     width="23"
     y=".49998"
     x=".5"
     id="rect3029" />
  <g
     fill="#060606"
     transform="translate(2,-2.5e-4)"
     id="layer4-9-1">
    <path
       color="#000000"
       d="m6 6.0001c-1.6447-1.028e-4 -3 1.3553-3 3v7.0002c0 1.6447 1.3553 3 3 3l1.0002-1.25e-4v3l6.9998-3.75-6.9999-3.7501v3l-1.0002 1.24e-4c-0.74686 9.3e-5 -1.4999-0.76713-1.4999-1.4999v-7.0002c0-0.71175 0.76705-1.4999 1.5-1.4999l2 1.24e-4v-1.5001z"
       id="path4276-5-2" />
    <path
       color="#000000"
       d="m10 3h2v8h-2z"
       id="path3871-3-7" />
    <path
       color="#000000"
       d="m16 6.0001c1.6447-1.028e-4 3 1.3553 3 3v7.0002c0 1.6447-1.3553 3-3 3l-1.0002-6.3e-5 5e-4 -1.5001 1.0002 6.2e-5c0.78903 4.9e-5 1.4995-0.78813 1.4995-1.4999v-7.0002c0-0.72579-0.75327-1.4999-1.5001-1.4999l-1.9998 1.25e-4 1.25e-4 -1.5001z"
       id="path4278-5-0" />
  </g>
  <g
     fill="#bfbfbf"
     transform="translate(1,-1)"
     id="layer4-9">
    <path
       color="#000000"
       d="m6 6.0001c-1.6447-1.028e-4 -3 1.3553-3 3v7.0002c0 1.6447 1.3553 3 3 3l1.0002-1.25e-4v3l6.9998-3.75-6.9999-3.7501v3l-1.0002 1.24e-4c-0.74686 9.3e-5 -1.4999-0.76713-1.4999-1.4999v-7.0002c0-0.71175 0.76705-1.4999 1.5-1.4999l2 1.24e-4v-1.5001z"
       id="path4276-5" />
    <path
       color="#000000"
       d="m10 3h2v8h-2z"
       id="path3871-3" />
    <path
       color="#000000"
       d="m16 6.0001c1.6447-1.028e-4 3 1.3553 3 3v7.0002c0 1.6447-1.3553 3-3 3l-1.0002-6.3e-5 5e-4 -1.5001 1.0002 6.2e-5c0.78903 4.9e-5 1.4995-0.78813 1.4995-1.4999v-7.0002c0-0.72579-0.75327-1.4999-1.5001-1.4999l-1.9998 1.25e-4 1.25e-4 -1.5001z"
       id="path4278-5" />
  </g>
  <path
     style="block-progression:tb;text-indent:0;text-transform:none"
     fill="#444444"
     color="#000000"
     d="m2 0c-1.0994 0-2 0.90065-2 2v20c0 1.0994 0.90065 2 2 2h20c1.0994 0 2-0.90065 2-2v-20c0-1.0994-0.90065-2-2-2zm0.3 1h19.4c0.56265 0 1.3 0.73735 1.3 1.3v19.4c0 0.56265-0.73735 1.3-1.3 1.3h-19.4c-0.56265 0-1.3-0.73735-1.3-1.3v-19.4c0-0.56265 0.73735-1.3 1.3-1.3z"
     id="rect3029-96-0" />
</svg>
