<?xml version="1.0" encoding="UTF-8" standalone="no"?>
<svg
   xmlns:dc="http://purl.org/dc/elements/1.1/"
   xmlns:cc="http://creativecommons.org/ns#"
   xmlns:rdf="http://www.w3.org/1999/02/22-rdf-syntax-ns#"
   xmlns:svg="http://www.w3.org/2000/svg"
   xmlns="http://www.w3.org/2000/svg"
   xmlns:xlink="http://www.w3.org/1999/xlink"
   width="25"
   height="25"
   version="1.1"
   id="svg75">
  <metadata
     id="metadata79">
    <rdf:RDF>
      <cc:Work
         rdf:about="">
        <dc:format>image/svg+xml</dc:format>
        <dc:type
           rdf:resource="http://purl.org/dc/dcmitype/StillImage" />
        <dc:title></dc:title>
      </cc:Work>
    </rdf:RDF>
  </metadata>
  <defs
     id="defs11">
    <linearGradient
       id="linearGradient948">
      <stop
         id="stop944"
         offset="0"
         style="stop-color:#ca0b00;stop-opacity:1;" />
      <stop
         id="stop946"
         offset="1"
         style="stop-color:#8e0800;stop-opacity:1" />
    </linearGradient>
    <linearGradient
       gradientUnits="userSpaceOnUse"
       gradientTransform="translate(-24.00003,-24)"
       y2="12"
       y1="12"
       x2="23.5"
       x1="0.5"
       id="a-3">
      <stop
         id="stop877"
         offset="0"
         stop-opacity=".17647" />
      <stop
         id="stop879"
         offset=".12672"
         stop-opacity=".0047619" />
      <stop
         id="stop881"
         offset=".54348"
         stop-opacity="0" />
      <stop
         id="stop883"
         offset="1"
         stop-opacity=".47451" />
    </linearGradient>
    <linearGradient
       id="a"
       x1="0.5"
       x2="23.5"
       y1="12"
       y2="12"
       gradientTransform="translate(-24.00003,-24)"
       gradientUnits="userSpaceOnUse"
       xlink:href="#a-3">
      <stop
         stop-opacity=".17647"
         offset="0"
         id="stop2" />
      <stop
         stop-opacity=".0047619"
         offset=".12672"
         id="stop4" />
      <stop
         stop-opacity="0"
         offset=".54348"
         id="stop6" />
      <stop
         stop-opacity=".47451"
         offset="1"
         id="stop8" />
    </linearGradient>
    <linearGradient
       xlink:href="#a-3"
       id="a-3-6"
       x1="0.5"
       x2="23.5"
       y1="12"
       y2="12"
       gradientTransform="translate(3.1035156e-5,-24)"
       gradientUnits="userSpaceOnUse">
      <stop
         stop-opacity=".17647"
         offset="0"
         id="stop2-6"
         style="stop-color:#840600;stop-opacity:1" />
      <stop
         stop-opacity=".47451"
         offset="1"
         id="stop8-3"
         style="stop-color:#ad0800;stop-opacity:1" />
    </linearGradient>
    <linearGradient
       gradientTransform="translate(-24.000061)"
       gradientUnits="userSpaceOnUse"
       y2="-12"
       x2="23.500031"
       y1="-12"
       x1="0.50003052"
       id="linearGradient950"
       xlink:href="#linearGradient948" />
  </defs>
  <rect
     transform="matrix(0,-1,-1,0,0,0)"
     x="-23.500031"
     y="-23.5"
     width="23"
     height="23"
     rx="1.5"
     ry="1.5"
     id="rect17-5"
     style="color:#000000;fill:url(#linearGradient950);fill-opacity:1" />
  <g
     display="none"
     id="g27"
     style="display:none"
     transform="translate(0,-1)">
    <g
       display="inline"
       id="g25"
       style="display:inline">
      <path
         d="m 10,10 h 7 v 4 h -5 v 1 h 5 v 1 h -7 v -3 h 5 v -2 h -5 v -1"
         id="path21"
         style="fill:#323232" />
      <path
         d="m 9,9 h 7 v 4 h -5 v 1 h 5 v 1 H 9 v -3 h 5 V 10 H 9 V 9"
         id="path23"
         style="fill:#dcdcdc" />
    </g>
  </g>
  <g
     display="none"
     id="g35"
     style="display:none"
     transform="translate(0,-1)">
    <g
       display="inline"
       id="g33"
       style="display:inline">
      <path
         d="m 10,10 h 7 v 6 h -7 v -1 h 5 v -1 h -2 v -1 h 2 v -2 h -5 v -1"
         id="path29"
         style="fill:#323232" />
      <path
         d="m 9,9 h 7 v 6 H 9 v -1 h 5 v -1 h -2 v -1 h 2 V 10 H 9 V 9"
         id="path31"
         style="fill:#dcdcdc" />
    </g>
  </g>
  <g
     display="none"
     id="g43"
     style="display:none"
     transform="translate(0,-1)">
    <g
       display="inline"
       id="g41"
       style="display:inline">
      <path
         d="m 10,11 v 3 h 5 v 2 h 2 v -6 h -2 v 3 h -3 v -2 h -2"
         id="path37"
         style="fill:#323232" />
      <path
         d="m 9,10 v 3 h 5 v 2 h 2 V 9 h -2 v 3 H 11 V 10 H 9"
         id="path39"
         style="fill:#dcdcdc" />
    </g>
  </g>
  <g
     display="none"
     id="g51"
     style="display:none"
     transform="translate(0,-1)">
    <g
       display="inline"
       id="g49"
       style="display:inline">
      <path
         d="m 17,10 h -6 v 3 h 4 v 2 h -5 v 1 h 7 v -4 h -5 v -1 h 5 v -1"
         id="path45"
         style="fill:#323232" />
      <path
         d="m 16,9 h -6 v 3 h 4 v 2 H 9 v 1 h 7 v -4 h -5 v -1 h 5 V 9"
         id="path47"
         style="fill:#dcdcdc" />
    </g>
  </g>
  <g
     display="none"
     id="g59"
     style="display:none"
     transform="translate(0,-1)">
    <g
       display="inline"
       id="g57"
       style="display:inline">
      <path
         d="m 10,10 v 6 h 7 v -4 h -5 v -1 h 4 v -1 z m 2,3 h 4 v 2 h -4 z"
         id="path53"
         style="fill:#323232" />
      <path
         d="m 9,9 v 6 h 7 v -4 h -5 v -1 h 4 V 9 Z m 2,3 h 4 v 2 h -4 z"
         id="path55"
         style="fill:#dcdcdc" />
    </g>
  </g>
  <g
     display="none"
     id="g67"
     style="display:none"
     transform="translate(0,-1)">
    <g
       display="inline"
       id="g65"
       style="display:inline">
      <path
         d="m 10,10 h 6 v 3 h 1 v 1 h -1 v 2 h -2 v -2 h -2 v -1 h 2 v -2 h -4 v -1"
         id="path61"
         style="fill:#323232" />
      <path
         d="m 9,9 h 6 v 3 h 1 v 1 h -1 v 2 h -2 v -2 h -2 v -1 h 2 V 10 H 9 V 9"
         id="path63"
         style="fill:#dcdcdc" />
    </g>
  </g>
  <g
     display="none"
     id="g73"
     style="display:none"
     transform="translate(0,-1)">
    <path
       d="m 11,10 v 2 h -1 v 4 h 7 v -4 h -1 v -2 z m 2,1 h 2 v 1 h -2 z m -1,2 h 4 v 2 h -4 z"
       id="path69"
       style="fill:#323232" />
    <path
       d="m 10,9 v 2 H 9 v 4 h 7 V 11 H 15 V 9 Z m 2,1 h 2 v 1 h -2 z m -1,2 h 4 v 2 h -4 z"
       id="path71"
       style="fill:#dcdcdc" />
  </g>
  <path
     id="path19"
     style="color:#000000;text-indent:0;text-transform:none;fill:#d2d2d2;fill-opacity:1"
     d="m 2,3e-5 c -1.0994,0 -2,0.90065 -2,2 v 20 c 0,1.0994 0.90065,2 2,2 h 20 c 1.0994,0 2,-0.90065 2,-2 v -20 c 0,-1.0994 -0.90065,-2 -2,-2 z m 0.3,1 h 19.4 c 0.56265,0 1.3,0.73735 1.3,1.3 v 19.4 c 0,0.56265 -0.73735,1.3 -1.3,1.3 H 2.3 c -0.56265,0 -1.3,-0.73735 -1.3,-1.3 v -19.4 c 0,-0.56265 0.73735,-1.3 1.3,-1.3 z" />
</svg>
