<svg id="svg2" width="34" height="34" version="1.1" xmlns="http://www.w3.org/2000/svg"><defs id="defs4"><linearGradient id="linearGradient3830" x1="15" x2="15" y1="1049.4" y2="1027.4" gradientTransform="matrix(1.3478 0 0 1.3478 -.17391 -1383.5)" gradientUnits="userSpaceOnUse"><stop id="stop3803-7-6" stop-color="#222" offset="0"/><stop id="stop3805-5-2" stop-color="#131516" offset="1"/></linearGradient></defs><rect id="rect3029-9" x=".5" y=".5" width="31" height="31" rx="2" ry="2" color="#000000" fill="url(#linearGradient3830)"/><g id="g3770" transform="translate(0 -1018.4)"><path id="path3936-0-8-9-3" d="m23.95 1035.4-11.95 7.9777v1.6562l13.2-8.7902z" fill="#080808"/><path id="path3936-0-8-9-7" d="m11 1026.7 12.95 8.634-12.95 8.6339v-17.268" fill="#8d8f90"/></g><path id="path5055" d="m2.6562 0c-1.4658 0-2.6562 1.1904-2.6562 2.6562v26.688c0 1.4658 1.1904 2.6562 2.6562 2.6562h26.688c1.4658 0 2.6562-1.1904 2.6562-2.6562v-26.688c0-1.4658-1.1904-2.6562-2.6562-2.6562h-26.688zm0.125 1h26.438c0.76725 0 1.7812 1.014 1.7812 1.7812v26.438c0 0.76725-1.014 1.7812-1.7812 1.7812h-26.438c-0.76725 0-1.7812-1.014-1.7812-1.7812v-26.438c0-0.76725 1.014-1.7812 1.7812-1.7812z" color="#000000" fill="#454748" style="block-progression:tb;text-indent:0;text-transform:none"/></svg>
