<?xml version="1.0" encoding="UTF-8" standalone="no"?>
<svg
   xmlns:dc="http://purl.org/dc/elements/1.1/"
   xmlns:cc="http://creativecommons.org/ns#"
   xmlns:rdf="http://www.w3.org/1999/02/22-rdf-syntax-ns#"
   xmlns:svg="http://www.w3.org/2000/svg"
   xmlns="http://www.w3.org/2000/svg"
   version="1.1"
   height="26"
   width="52"
   id="svg2">
  <metadata
     id="metadata15">
    <rdf:RDF>
      <cc:Work
         rdf:about="">
        <dc:format>image/svg+xml</dc:format>
        <dc:type
           rdf:resource="http://purl.org/dc/dcmitype/StillImage" />
        <dc:title></dc:title>
      </cc:Work>
    </rdf:RDF>
  </metadata>
  <defs
     id="defs4">
    <linearGradient
       gradientUnits="userSpaceOnUse"
       gradientTransform="matrix(2.1304 0 0 1 -.56522 -1026.4)"
       y2="1027.4"
       y1="1049.4"
       x2="15"
       x1="15"
       id="linearGradient8406">
      <stop
         offset="0"
         stop-color="#aa1112"
         id="stop3803-7-1-9" />
      <stop
         offset=".28"
         stop-color="#b60607"
         id="stop4329-4" />
      <stop
         offset="1"
         stop-color="#760607"
         id="stop3805-5-28-5" />
    </linearGradient>
  </defs>
  <path
     id="rect3029-96-4"
     d="m 4,2.49998 h 44 c 0.831,0 1.5,0.669 1.5,1.5 v 18 c 0,0.831 -0.669,1.5 -1.5,1.5 H 4 c -0.831,0 -1.5,-0.669 -1.5,-1.5 v -18 c 0,-0.831 0.669,-1.5 1.5,-1.5 z"
     style="color:#000000;fill:url(#linearGradient8406)" />
  <g
     transform="translate(0,1.00045)"
     id="layer17">
    <path
       style="fill:#320202"
       d="m 30,6.7188 c -0.27402,0.15082 -0.62867,0.36449 -1,0.625 v 10.656 l 1,0.71875 z"
       id="path3936-0-9-4-4-3" />
    <path
       style="fill:#8d8f90"
       d="m 29,6 -8.9995,6 9,6 V 6"
       id="path3936-0-9-5-6" />
  </g>
  <path
     style="color:#000000;text-indent:0;text-transform:none;fill:#979797"
     d="M 4,2 C 2.9006,2 2,2.90065 2,4 v 18 c 0,1.0994 0.90065,2 2,2 h 44 c 1.0994,0 2,-0.90065 2,-2 V 4 C 50,2.9006 49.09935,2 48,2 Z M 4.3,3 H 47.7 C 48.26265,3 49,3.73735 49,4.3 V 21.7 C 49,22.26265 48.26265,23 47.7,23 H 4.3 C 3.73735,23 3,22.26265 3,21.7 V 4.3 C 3,3.73735 3.73735,3 4.3,3 Z"
     id="rect3029-96-9" />
</svg>
