<svg id="svg4272" width="26" height="26" version="1.1" xmlns="http://www.w3.org/2000/svg"><defs id="defs4282"><linearGradient id="linearGradient11030" x1="15" x2="15" y1="1049.4" y2="1027.4" gradientTransform="translate(0 -1026.4)" gradientUnits="userSpaceOnUse"><stop id="stop3803-7-1-9" stop-color="#aa1112" offset="0"/><stop id="stop4329-4" stop-color="#b60607" offset=".28"/><stop id="stop3805-5-28-5" stop-color="#760607" offset="1"/></linearGradient></defs><rect id="rect3029-96-4" x=".5" y=".49998" width="23" height="23" rx="1.5" ry="1.5" color="#000000" fill="url(#linearGradient11030)"/><g id="layer4-9-1-7" transform="translate(2,-2.5e-4)" fill="#320202"><path id="path4276-5-2-9" d="m6 6.0001c-1.6447-1.028e-4 -3 1.3553-3 3v7.0002c0 1.6447 1.3553 3 3 3l1.0002-1.25e-4v3l6.9998-3.75-6.9999-3.7501v3l-1.0002 1.24e-4c-0.74686 9.3e-5 -1.4999-0.76713-1.4999-1.4999v-7.0002c0-0.71175 0.76705-1.4999 1.5-1.4999l2 1.24e-4v-1.5001z" color="#000000"/><path id="path3871-3-7-2" d="m10 3h2v8h-2z" color="#000000"/><path id="path4278-5-0-0" d="m16 6.0001c1.6447-1.028e-4 3 1.3553 3 3v7.0002c0 1.6447-1.3553 3-3 3l-1.0002-6.3e-5 5e-4 -1.5001 1.0002 6.2e-5c0.78903 4.9e-5 1.4995-0.78813 1.4995-1.4999v-7.0002c0-0.72579-0.75327-1.4999-1.5001-1.4999l-1.9998 1.25e-4 1.25e-4 -1.5001z" color="#000000"/></g><g id="layer4-9-2" transform="translate(1,-1)" fill="#8d8f90"><path id="path4276-5-3" d="m6 6.0001c-1.6447-1.028e-4 -3 1.3553-3 3v7.0002c0 1.6447 1.3553 3 3 3l1.0002-1.25e-4v3l6.9998-3.75-6.9999-3.7501v3l-1.0002 1.24e-4c-0.74686 9.3e-5 -1.4999-0.76713-1.4999-1.4999v-7.0002c0-0.71175 0.76705-1.4999 1.5-1.4999l2 1.24e-4v-1.5001z" color="#000000"/><path id="path3871-3-75" d="m10 3h2v8h-2z" color="#000000"/><path id="path4278-5-9" d="m16 6.0001c1.6447-1.028e-4 3 1.3553 3 3v7.0002c0 1.6447-1.3553 3-3 3l-1.0002-6.3e-5 5e-4 -1.5001 1.0002 6.2e-5c0.78903 4.9e-5 1.4995-0.78813 1.4995-1.4999v-7.0002c0-0.72579-0.75327-1.4999-1.5001-1.4999l-1.9998 1.25e-4 1.25e-4 -1.5001z" color="#000000"/></g><path id="rect3029-96-9" d="m2 0c-1.0994 0-2 0.90065-2 2v20c0 1.0994 0.90065 2 2 2h20c1.0994 0 2-0.90065 2-2v-20c0-1.0994-0.90065-2-2-2zm0.3 1h19.4c0.56265 0 1.3 0.73735 1.3 1.3v19.4c0 0.56265-0.73735 1.3-1.3 1.3h-19.4c-0.56265 0-1.3-0.73735-1.3-1.3v-19.4c0-0.56265 0.73735-1.3 1.3-1.3z" color="#000000" fill="#979797" style="block-progression:tb;text-indent:0;text-transform:none"/></svg>
