<?xml version="1.0" encoding="UTF-8" standalone="no"?>
<!-- Created with Inkscape (http://www.inkscape.org/) -->

<svg
   xmlns:dc="http://purl.org/dc/elements/1.1/"
   xmlns:cc="http://creativecommons.org/ns#"
   xmlns:rdf="http://www.w3.org/1999/02/22-rdf-syntax-ns#"
   xmlns:svg="http://www.w3.org/2000/svg"
   xmlns="http://www.w3.org/2000/svg"
   xmlns:xlink="http://www.w3.org/1999/xlink"
   version="1.1"
   width="30"
   height="30"
   id="svg4867">
  <defs
     id="defs4869">
    <linearGradient
       x1="13"
       y1="1027.3622"
       x2="13"
       y2="1049.3622"
       id="linearGradient3807-3"
       xlink:href="#linearGradient3801-6"
       gradientUnits="userSpaceOnUse"
       gradientTransform="matrix(1.0869565,0,0,1.0869557,1.9565218,-91.291514)" />
    <linearGradient
       id="linearGradient3801-6">
      <stop
         id="stop3803-7"
         style="stop-color:#242424;stop-opacity:1"
         offset="0" />
      <stop
         id="stop3805-5"
         style="stop-color:#101010;stop-opacity:1"
         offset="1" />
    </linearGradient>
  </defs>
  <metadata
     id="metadata4872">
    <rdf:RDF>
      <cc:Work
         rdf:about="">
        <dc:format>image/svg+xml</dc:format>
        <dc:type
           rdf:resource="http://purl.org/dc/dcmitype/StillImage" />
        <dc:title></dc:title>
      </cc:Work>
    </rdf:RDF>
  </metadata>
  <g
     transform="translate(0,-1022.3622)"
     id="layer1">
    <rect
       width="26"
       height="26"
       rx="2"
       ry="2"
       x="4"
       y="1026.3622"
       id="rect3029-6"
       style="opacity:0.62085308;color:#000000;fill:#060606;fill-opacity:1;fill-rule:nonzero;stroke:none;stroke-width:1;marker:none;visibility:visible;display:inline;overflow:visible;enable-background:accumulate" />
    <rect
       width="26"
       height="26"
       rx="2"
       ry="2"
       x="3"
       y="1025.3622"
       id="rect3029-6-6"
       style="opacity:0.72000002;color:#000000;fill:#000000;fill-opacity:1;fill-rule:nonzero;stroke:none;stroke-width:1;marker:none;visibility:visible;display:inline;overflow:visible;enable-background:accumulate" />
    <rect
       width="25"
       height="25"
       rx="2"
       ry="2"
       x="2.5"
       y="1024.8622"
       id="rect3029"
       style="color:#000000;fill:url(#linearGradient3807-3);fill-opacity:1;fill-rule:nonzero;stroke:none;stroke-width:1;marker:none;visibility:visible;display:inline;overflow:visible;enable-background:accumulate" />
    <path
       d="M 4.1666667,1024.3622 C 2.9757027,1024.3622 2,1025.3379 2,1026.5289 l 0,21.6666 c 0,1.1911 0.9757027,2.1667 2.1666667,2.1667 l 21.6666663,0 c 1.190964,0 2.166667,-0.9756 2.166667,-2.1667 l 0,-21.6666 c 0,-1.191 -0.975703,-2.1667 -2.166667,-2.1667 z m 0.325,1.0833 21.0166663,0 c 0.609537,0 1.408334,0.7989 1.408334,1.4084 l 0,21.0166 c 0,0.6095 -0.798797,1.4084 -1.408334,1.4084 l -21.0166663,0 c -0.609536,0 -1.4083334,-0.7989 -1.4083334,-1.4084 l 0,-21.0166 c 0,-0.6095 0.7987974,-1.4084 1.4083334,-1.4084 z"
       id="rect3029-96-0"
       style="font-size:medium;font-style:normal;font-variant:normal;font-weight:normal;font-stretch:normal;text-indent:0;text-align:start;text-decoration:none;line-height:normal;letter-spacing:normal;word-spacing:normal;text-transform:none;direction:ltr;block-progression:tb;writing-mode:lr-tb;text-anchor:start;baseline-shift:baseline;color:#000000;fill:#585858;fill-opacity:1;fill-rule:nonzero;stroke:none;stroke-width:1;marker:none;visibility:visible;display:inline;overflow:visible;enable-background:accumulate;font-family:Sans;-inkscape-font-specification:Sans" />
    <path
       d="m 19.545246,1030.7804 -1.436993,1.437 c 1.715442,1.0492 2.864042,2.9336 2.864042,5.0916 0,3.2966 -2.670123,5.9668 -5.966754,5.9668 -3.296631,0 -5.9667539,-2.6702 -5.9667539,-5.9668 0,-2.158 1.1485999,-4.0424 2.8640419,-5.0916 l -1.436993,-1.437 c -2.0635027,1.437 -3.4159668,3.8236 -3.4159668,6.5286 0,4.3955 3.5601638,7.9556 7.9556718,7.9556 4.395508,0 7.955672,-3.5601 7.955672,-7.9556 0,-2.705 -1.352465,-5.0916 -3.415967,-6.5286 z"
       id="path6"
       style="fill:#d2d2d2;fill-opacity:1" />
    <path
       d="m 16,1027.3622 -1.988918,0 0,7 1.988918,0 z"
       id="path2985-3"
       style="fill:#d2d2d2;fill-opacity:1" />
  </g>
</svg>
