<?xml version="1.0" encoding="UTF-8" standalone="no"?>
<svg
   xmlns:dc="http://purl.org/dc/elements/1.1/"
   xmlns:cc="http://creativecommons.org/ns#"
   xmlns:rdf="http://www.w3.org/1999/02/22-rdf-syntax-ns#"
   xmlns:svg="http://www.w3.org/2000/svg"
   xmlns="http://www.w3.org/2000/svg"
   version="1.1"
   height="26"
   width="52"
   id="svg2">
  <metadata
     id="metadata26">
    <rdf:RDF>
      <cc:Work
         rdf:about="">
        <dc:format>image/svg+xml</dc:format>
        <dc:type
           rdf:resource="http://purl.org/dc/dcmitype/StillImage" />
        <dc:title></dc:title>
      </cc:Work>
    </rdf:RDF>
  </metadata>
  <defs
     id="defs4">
    <linearGradient
       gradientUnits="userSpaceOnUse"
       gradientTransform="matrix(2.1304,0,0,1,-0.56522,-1026.4)"
       y2="1049.4"
       y1="1027.4"
       x2="13"
       x1="13"
       id="linearGradient3807-3">
      <stop
         offset="0"
         stop-color="#242424"
         id="stop3803-7" />
      <stop
         offset="1"
         stop-color="#101010"
         id="stop3805-5" />
    </linearGradient>
  </defs>
  <path
     id="rect3029-6-6"
     d="M 4.00025,1 H 49 c 1.108,0 2,0.892 2,2 v 20 c 0,1.108 -0.892,2 -2,2 H 4.00025 c -1.108,0 -2,-0.892 -2,-2 V 3 c 0,-1.108 0.892,-2 2,-2 z"
     style="color:#000000;opacity:0.9" />
  <path
     id="rect3029-6"
     d="M 50.812,2.1875 C 50.92353,2.43712 50.9995,2.708 50.9995,3 v 20 c 0,1.108 -0.892,2 -2,2 H 3.99975 C 3.70775,25 3.43687,24.924027 3.18725,24.8125 3.49892,25.51008 4.18375,26 4.99975,26 H 49.9995 c 1.108,0 2,-0.892 2,-2 V 4 c 0,-0.816 -0.48992,-1.5008 -1.1875,-1.8125 z"
     style="color:#000000;opacity:0.62085003;fill:#060606" />
  <path
     id="rect3029"
     d="M 3.50025,0.49998 H 47.5 c 1.108,0 2,0.892 2,2 v 19 c 0,1.108 -0.892,2 -2,2 H 3.50025 c -1.108,0 -2,-0.892 -2,-2 v -19 c 0,-1.108 0.892,-2 2,-2 z"
     style="color:#000000;fill:url(#linearGradient3807-3)" />
  <path
     id="rect3029-96-0"
     d="m 3.00025,0 c -1.0994,0 -2,0.90065 -2,2 v 20 c 0,1.0994 0.90065,2 2,2 H 48 c 1.0994,0 2,-0.90065 2,-2 V 2 C 50,0.9006 49.09935,0 48,0 Z m 0.3,1 H 47.7 C 48.26265,1 49,1.73735 49,2.3 V 21.7 C 49,22.26265 48.26265,23 47.7,23 H 3.30025 c -0.56265,0 -1.3,-0.73735 -1.3,-1.3 V 2.3 c 0,-0.56265 0.73735,-1.3 1.3,-1.3 z"
     style="color:#000000;text-indent:0;text-transform:none;fill:#444444" />
  <g
     id="g6087-0-4"
     style="fill:#bfbfbf">
    <path
       id="path6038-8-4"
       d="m 20,9 h -7 v 6 h 7 v -1 h -5 v -4 h 5 V 9" />
    <path
       id="path6042-8-4"
       d="m 22,9 v 6 h 7 V 9 h -2 v 5 H 24 V 9 h -2" />
    <path
       id="path6046-5-4"
       d="m 31,9 v 6 h 7 v -1 h -5 v -2 h 4 v -1 h -4 v -1 h 5 V 9 h -7" />
  </g>
  <g
     id="g6078-0-7"
     style="fill:#060606">
    <path
       id="path6050-9-6"
       d="m 21,10 h -6 v 4 h 1 v -3 h 5 v -1" />
    <path
       id="path6054-6-3"
       d="m 21,15 v 1 h -7 v -1 h 7" />
    <path
       id="path6058-3-1"
       d="m 24,10 h 1 v 4 h -1 v -4" />
    <path
       id="path6062-8-7"
       d="m 23,15 v 1 h 7 v -6 h -1 v 5 h -6" />
    <path
       id="path6066-5-5"
       d="m 39,10 h -6 v 1 h 6 v -1" />
    <path
       id="path6070-6-9"
       d="m 38,12 h -5 v 2 h 1 v -1 h 4 v -1" />
    <path
       id="path6074-1-6"
       d="m 39,15 v 1 h -7 v -1 h 7" />
  </g>
</svg>
