<?xml version="1.0" encoding="UTF-8" standalone="no"?>
<svg
   xmlns:dc="http://purl.org/dc/elements/1.1/"
   xmlns:cc="http://creativecommons.org/ns#"
   xmlns:rdf="http://www.w3.org/1999/02/22-rdf-syntax-ns#"
   xmlns:svg="http://www.w3.org/2000/svg"
   xmlns="http://www.w3.org/2000/svg"
   version="1.1"
   height="20"
   width="20"
   id="svg25537">
  <metadata
     id="metadata36">
    <rdf:RDF>
      <cc:Work
         rdf:about="">
        <dc:format>image/svg+xml</dc:format>
        <dc:type
           rdf:resource="http://purl.org/dc/dcmitype/StillImage" />
        <dc:title></dc:title>
      </cc:Work>
    </rdf:RDF>
  </metadata>
  <defs
     id="defs25539">
    <linearGradient
       gradientUnits="userSpaceOnUse"
       gradientTransform="matrix(0.91666667,0,0,0.91666667,-0.45833331,-941.32498)"
       y2="1049.4"
       y1="1027.4"
       x2="13"
       x1="13"
       id="linearGradient6227">
      <stop
         offset="0"
         stop-color="#242424"
         id="stop3803-7-8" />
      <stop
         offset="1"
         stop-color="#101010"
         id="stop3805-5-4" />
    </linearGradient>
  </defs>
  <rect
     style="color:#000000;fill:url(#linearGradient6227);stroke-width:0.91666663"
     height="20"
     width="20"
     y="0"
     x="0"
     id="rect3029" />
  <path
     style="display:none;fill:#bfbfbf"
     display="none"
     d="m 10,3 h 3 V 9 H 11 V 4 H 10 V 3"
     id="path3944" />
  <path
     style="display:none;fill:#060606"
     display="none"
     d="m 13,4 h 1 v 6 H 12 V 9 h 1 V 4"
     id="path3948" />
  <path
     style="display:none;fill:#060606"
     display="none"
     d="m 10,4 h 7 v 4 h -5 v 1 h 5 v 1 H 10 V 7 h 5 V 5 H 10 V 4"
     id="path5770-89-8-1" />
  <path
     style="display:none;fill:#bfbfbf"
     display="none"
     d="m 9,3 h 7 v 4 h -5 v 1 h 5 V 9 H 9 V 6 h 5 V 4 H 9 V 3"
     id="path5770-8-5-6-8" />
  <path
     style="display:none;fill:#060606"
     display="none"
     d="m 10,4 h 7 v 6 H 10 V 9 h 5 V 8 H 13 V 7 h 2 V 5 H 10 V 4"
     id="path6542-5-0" />
  <path
     style="display:none;fill:#bfbfbf"
     display="none"
     d="m 9,3 h 7 V 9 H 9 V 8 h 5 V 7 H 12 V 6 h 2 V 4 H 9 V 3"
     id="path6542-3" />
  <path
     style="display:none;fill:#060606"
     display="none"
     d="m 10,5 v 3 h 5 v 2 h 2 V 4 H 15 V 7 H 12 V 5 h -2"
     id="path6751-9" />
  <path
     style="display:none;fill:#bfbfbf"
     display="none"
     d="m 9,4 v 3 h 5 v 2 h 2 V 3 H 14 V 6 H 11 V 4 H 9"
     id="path6751" />
  <path
     style="display:none;fill:#060606"
     display="none"
     d="m -23,-20.5 h 3 v -3 h 3 v 3 h 3 v 3 h -3 v 3 h -3 v -3 h -3 v -3"
     id="path9276-9-3" />
  <path
     style="display:none;fill:#bfbfbf"
     display="none"
     d="m -24,-21.5 h 3 v -3 h 3 v 3 h 3 v 3 h -3 v 3 h -3 v -3 h -3 v -3"
     id="path9276-5" />
  <path
     style="display:none;fill:#060606"
     display="none"
     d="m -11,-20.5 h 9 v 3 h -9 v -3"
     id="path9788-2-2" />
  <path
     style="display:none;fill:#bfbfbf"
     display="none"
     d="m -12,-21.5 h 9 v 3 h -9 v -3"
     id="path9788-6" />
  <path
     style="display:none;fill:#060606"
     display="none"
     d="M 13,-20.5 H 9 v -4 l -5,5.5 5,5.5 v -4 h 4 v -3"
     id="path9792-3-2-6" />
  <path
     style="display:none;fill:#bfbfbf"
     display="none"
     d="M 12,-21.5 H 8 v -4 l -5,5.5 5,5.5 v -4 h 4 v -3"
     id="path9792-3-3" />
  <path
     style="display:none;fill:#060606"
     display="none"
     d="m 17,-20.5 h 4 v -4 l 5,5.5 -5,5.5 v -4 h -4 v -3"
     id="path9792-0-0" />
  <path
     style="display:none;fill:#bfbfbf"
     display="none"
     d="m 16,-21.5 h 4 v -4 l 5,5.5 -5,5.5 v -4 h -4 v -3"
     id="path9792-9" />
  <path
     style="display:none;fill:#060606"
     display="none"
     d="m 41,-24 h 5 v 13 h -1 v -7 h -4 v -6"
     id="path9817-3-1" />
  <path
     style="display:none;fill:#bfbfbf"
     display="none"
     d="m 40,-25 h 5 v 13 h -1 v -7 h -4 v -6"
     id="path9817-7" />
  <path
     style="display:none;fill:#060606"
     display="none"
     d="m 56,-24 h -5 v 13 h 1 v -7 h 4 v -6"
     id="path9817-6-7-5" />
  <path
     style="display:none;fill:#bfbfbf"
     display="none"
     d="m 55,-25 h -5 v 13 h 1 v -7 h 4 v -6"
     id="path9817-6-4" />
  <g
     transform="matrix(0.91666667,0,0,0.91666667,-4.033525,-5.3148417)"
     id="g7113">
    <path
       style="color:#000000;text-indent:0;text-transform:none;fill:#060606"
       d="m 16.309,10.676 c -3.725,0 -6.75,3.025 -6.75,6.75 0,0.03983 -9.401e-4,0.07667 0,0.125 v 0.21875 c -0.75815,0.64202 -1.25,1.585 -1.25,2.6562 0,1.933 1.567,3.5 3.5,3.5 v -7 c -0.24162,0 -0.49091,0.01588 -0.71875,0.0625 0.21566,-2.7031 2.4594,-4.8125 5.2188,-4.8125 2.753,0 4.9939,2.1183 5.2188,4.8125 -0.22784,-0.04662 -0.47712,-0.0625 -0.71875,-0.0625 v 7 c 1.933,0 3.5,-1.567 3.5,-3.5 0,-1.0873 -0.50338,-2.0455 -1.2812,-2.6875 0.0061,-0.10559 0.03125,-0.20307 0.03125,-0.3125 0,-3.725 -3.025,-6.75 -6.75,-6.75 z"
       id="path9863-1-2-3" />
    <path
       style="color:#000000;text-indent:0;text-transform:none;fill:#bfbfbf"
       d="m 15.309,9.6758 c -3.725,0 -6.75,3.025 -6.75,6.75 0,0.03983 -9.401e-4,0.07667 0,0.125 v 0.21875 c -0.75815,0.64202 -1.25,1.585 -1.25,2.6562 0,1.933 1.567,3.5 3.5,3.5 v -7 c -0.24162,0 -0.49091,0.01588 -0.71875,0.0625 0.21566,-2.7031 2.4594,-4.8125 5.2188,-4.8125 2.753,0 4.9939,2.1183 5.2188,4.8125 -0.22784,-0.04662 -0.47712,-0.0625 -0.71875,-0.0625 v 7 c 1.933,0 3.5,-1.567 3.5,-3.5 0,-1.0873 -0.50338,-2.0455 -1.2812,-2.6875 0.0061,-0.10559 0.03125,-0.20307 0.03125,-0.3125 0,-3.725 -3.025,-6.75 -6.75,-6.75 z"
       id="path9863-1-2" />
  </g>
</svg>
