<?xml version="1.0" encoding="UTF-8" standalone="no"?>
<svg
   xmlns:dc="http://purl.org/dc/elements/1.1/"
   xmlns:cc="http://creativecommons.org/ns#"
   xmlns:rdf="http://www.w3.org/1999/02/22-rdf-syntax-ns#"
   xmlns:svg="http://www.w3.org/2000/svg"
   xmlns="http://www.w3.org/2000/svg"
   version="1.1"
   height="34"
   width="34"
   id="svg2">
  <metadata
     id="metadata16">
    <rdf:RDF>
      <cc:Work
         rdf:about="">
        <dc:format>image/svg+xml</dc:format>
        <dc:type
           rdf:resource="http://purl.org/dc/dcmitype/StillImage" />
        <dc:title></dc:title>
      </cc:Work>
    </rdf:RDF>
  </metadata>
  <defs
     id="defs4">
    <linearGradient
       gradientUnits="userSpaceOnUse"
       gradientTransform="matrix(1.3478 0 0 1.3478 -.17391 -1383.5)"
       y2="1049.4"
       y1="1027.4"
       x2="13"
       x1="13"
       id="linearGradient5688">
      <stop
         offset="0"
         stop-color="#242424"
         id="stop3803-7" />
      <stop
         offset="1"
         stop-color="#101010"
         id="stop3805-5" />
    </linearGradient>
  </defs>
  <rect
     style="color:#000000;opacity:0.72000002"
     ry="2"
     rx="2"
     height="32"
     width="32"
     y="0.99997997"
     x="0.5"
     id="rect3029-6-6" />
  <rect
     fill="url(#linearGradient5688)"
     color="#000000"
     ry="2"
     rx="2"
     height="31"
     width="31"
     y=".49998"
     x=".5"
     id="rect3029" />
  <g
     transform="translate(0 -1018.4)"
     id="g3770">
    <path
       fill="#060606"
       d="m23.95 1035.4-11.95 7.9777v1.6562l13.2-8.7902z"
       id="path3936-0-8-9-3" />
    <path
       fill="#bfbfbf"
       d="m11 1026.7 12.95 8.634-12.95 8.6339v-17.268"
       id="path3936-0-8-9-7" />
  </g>
  <path
     style="block-progression:tb;text-indent:0;text-transform:none"
     fill="#444444"
     color="#000000"
     d="m2.6562 0c-1.4658 0-2.6562 1.1904-2.6562 2.6562v26.688c0 1.4658 1.1904 2.6562 2.6562 2.6562h26.688c1.4658 0 2.6562-1.1904 2.6562-2.6562v-26.688c0-1.4658-1.1904-2.6562-2.6562-2.6562h-26.688zm0.125 1h26.438c0.76725 0 1.7812 1.014 1.7812 1.7812v26.438c0 0.76725-1.014 1.7812-1.7812 1.7812h-26.438c-0.76725 0-1.7812-1.014-1.7812-1.7812v-26.438c0-0.76725 1.014-1.7812 1.7812-1.7812z"
     id="path5055" />
</svg>
