<svg id="svg2" width="10" height="12" version="1.1" xmlns="http://www.w3.org/2000/svg" xmlns:osb="http://www.openswatchbook.org/uri/2009/osb" xmlns:xlink="http://www.w3.org/1999/xlink"><g id="ic_library_crates" transform="translate(0,-20)"><g id="g867"><path id="path8889-9" d="m2.25 26.25s0.00538-2.2 0-2.8599c-0.00538-0.66018 0.22449-2.6227 2.7312-2.6399 2.4906-0.01712 2.767 1.9798 2.7688 3.0799 0.00108 0.65999 0 2.42 0 2.42" fill="none" stroke="#ff6600" stroke-width="1.5"/><path id="rect8885-1" transform="translate(0,20)" d="m0.83398 6c-0.41667 0-0.83398 0.41498-0.83398 0.83008v4.3398c0 0.4151 0.41732 0.83008 0.83398 0.83008h8.332c0.41667 0 0.83398-0.41498 0.83398-0.83008v-4.3398c0-0.4151-0.41732-0.83008-0.83398-0.83008h-8.332zm1.166 2h6c0.277 0 0.5 0.223 0.5 0.5s-0.223 0.5-0.5 0.5h-6c-0.277 0-0.5-0.223-0.5-0.5s0.223-0.5 0.5-0.5zm0 2h6c0.277 0 0.5 0.223 0.5 0.5s-0.223 0.5-0.5 0.5h-6c-0.277 0-0.5-0.223-0.5-0.5s0.223-0.5 0.5-0.5z" color="#000000" fill="#ff6600" style="text-decoration-line:none;text-indent:0;text-transform:none"/></g></g></svg>
