<?xml version="1.0" encoding="UTF-8" standalone="no"?>
<svg
   xmlns:dc="http://purl.org/dc/elements/1.1/"
   xmlns:cc="http://creativecommons.org/ns#"
   xmlns:rdf="http://www.w3.org/1999/02/22-rdf-syntax-ns#"
   xmlns:svg="http://www.w3.org/2000/svg"
   xmlns="http://www.w3.org/2000/svg"
   xmlns:xlink="http://www.w3.org/1999/xlink"
   id="svg17"
   version="1.1"
   height="23"
   width="76">
  <metadata
     id="metadata21">
    <rdf:RDF>
      <cc:Work
         rdf:about="">
        <dc:format>image/svg+xml</dc:format>
        <dc:type
           rdf:resource="http://purl.org/dc/dcmitype/StillImage" />
        <dc:title></dc:title>
      </cc:Work>
    </rdf:RDF>
  </metadata>
  <defs
     id="defs7">
    <linearGradient
       gradientUnits="userSpaceOnUse"
       gradientTransform="matrix(2.6957,0,0,1,-0.8478,-1027.4)"
       y2="1049"
       y1="1027.4"
       x2="13"
       x1="13"
       id="a">
      <stop
         id="stop2"
         offset="0"
         stop-color="#242424"
         style="stop-color:#282828;stop-opacity:1" />
      <stop
         id="stop4"
         offset="1"
         stop-color="#101010"
         style="stop-color:#101010;stop-opacity:1" />
    </linearGradient>
    <linearGradient
       xlink:href="#a"
       id="linearGradient886"
       x1="37.300365"
       y1="0"
       x2="37.300365"
       y2="21.663004"
       gradientUnits="userSpaceOnUse" />
    <linearGradient
       gradientUnits="userSpaceOnUse"
       gradientTransform="matrix(3.2173913,0,0,0.91304348,-1.1086957,-937.10435)"
       y2="1049.4"
       y1="1027.4"
       x2="13"
       x1="13"
       id="linearGradient6227">
      <stop
         offset="0"
         stop-color="#242424"
         id="stop3803-7-8" />
      <stop
         offset="1"
         stop-color="#101010"
         id="stop3805-5-4" />
    </linearGradient>
  </defs>
  <rect
     ry="2"
     rx="2"
     height="21"
     width="74"
     y="0.5"
     x="0.5"
     id="rect3029"
     style="color:#000000;fill:url(#linearGradient6227);stroke-width:1.71394813" />
  <path
     style="color:#000000;fill-opacity:0.8"
     id="path9"
     d="m 74.561149,1.18775 c 0.112251,0.24927 0.1875,0.52278 0.1875,0.8125 L 74.748913,20 c 1.6e-5,1.0994 -0.90065,2.000004 -2,2 L 1.999438,21.99975 c -0.28972,-10e-7 -0.56323,-0.07525 -0.8125,-0.1875 0.31167,0.69758 0.9965,1.187497 1.8125,1.1875 L 73.748913,23 c 1.108,4e-6 1.751141,-0.892125 1.751141,-2.000125 L 75.499791,3.000125 C 75.499779,2.184125 75.25873,1.49945 74.561149,1.18775 Z" />
  <path
     d="M 2.0001527,0 C 0.9007537,0 1.5449998e-4,0.90065 1.5449998e-4,2 L 1.3775e-4,20 c -1.02305e-6,1.0994 0.9006492,2 1.99999825,2 h 70.99981 c 1.099399,0 1.999997,-0.90065 1.999998,-2 l 1.7e-5,-18 c 2e-6,-1.0994 -0.900649,-2 -1.999998,-2 z M 2.3001525,1 H 72.699963 c 0.562649,0 1.3,0.73735 1.299999,1.3 l -1.7e-5,17.4 c 0,0.56265 -0.737349,1.3 -1.299999,1.3 H 2.300136 C 1.7374865,21 1.0001371,20.26265 1.0001371,19.7 L 1.0001539,2.3 C 1.0001544,1.73735 1.7375033,1 2.3001525,1 Z"
     style="color:#000000;text-indent:0;text-decoration:none;text-decoration-line:none;text-transform:none;fill:#444444;fill-opacity:1"
     id="path15-3" />
  <g
     transform="translate(0,1)"
     id="g863">
    <path
       style="fill:#bfbfbf"
       id="path5532-3-9"
       d="M 14,7 H 7 v 4 h 5 v 1 H 7 v 1 h 7 V 10 H 9 V 8 h 5 V 7" />
    <path
       style="fill:#060606"
       id="path5554-5-9"
       d="M 15,8 H 9 v 2 h 1 V 9 h 5 V 8" />
    <path
       style="fill:#060606"
       id="path5558-4-5"
       d="m 14,11 h 1 v 3 H 8 v -1 h 6 v -2" />
    <path
       style="fill:#060606"
       id="path5562-7-0"
       d="m 12,11 v 1 H 8 v -1 h 4" />
    <path
       style="fill:#060606"
       d="m 23,8 v 6 h 6 V 13 H 25 V 8 h -2"
       id="path3466-9-1" />
    <path
       style="fill:#060606"
       d="m 16,8 v 6 h 2 v -2 h 4 V 8 Z m 2,1 h 3 v 2 h -3 z"
       id="path3458-3-8-9" />
    <path
       style="fill:#bfbfbf"
       d="m 22,7 v 6 h 6 V 12 H 24 V 7 h -2"
       id="path3466-9" />
    <path
       style="fill:#bfbfbf"
       d="m 15,7 v 6 h 2 v -2 h 4 V 7 Z m 2,1 h 3 v 2 h -3 z"
       id="path3458-3-8" />
    <path
       style="fill:#060606"
       d="m 33,8 h 6 v 1 h -2 v 5 H 35 V 9 H 33 V 8"
       id="path3454-3" />
    <path
       style="fill:#bfbfbf"
       d="m 32,7 h 6 v 1 h -2 v 5 H 34 V 8 H 32 V 7"
       id="path3454" />
    <rect
       style="opacity:1;fill:#bfbfbf;fill-opacity:1;stroke:none;stroke-width:1;stroke-linecap:round;stroke-linejoin:round;stroke-miterlimit:4;stroke-dasharray:none;stroke-opacity:1;paint-order:fill markers stroke"
       id="rect885"
       width="2"
       height="6"
       x="29"
       y="7" />
    <path
       style="fill:#060606;fill-opacity:1;stroke:none;stroke-width:1px;stroke-linecap:butt;stroke-linejoin:miter;stroke-opacity:1"
       d="m 30,13 v 1 h 2 V 8 h -1 v 5 z"
       id="path887" />
    <g
       transform="translate(31,-2)"
       id="g6087-0-4"
       style="fill:#bfbfbf">
      <path
         id="path6038-8-4"
         d="m 20,9 h -7 v 6 h 7 v -1 h -5 v -4 h 5 V 9" />
      <path
         id="path6042-8-4"
         d="m 22,9 v 6 h 7 V 9 h -2 v 5 H 24 V 9 h -2" />
      <path
         id="path6046-5-4"
         d="m 31,9 v 6 h 7 v -1 h -5 v -2 h 4 v -1 h -4 v -1 h 5 V 9 h -7" />
    </g>
    <g
       transform="translate(31,-2)"
       id="g6078-0-7"
       style="fill:#060606">
      <path
         id="path6050-9-6"
         d="m 21,10 h -6 v 4 h 1 v -3 h 5 v -1" />
      <path
         id="path6054-6-3"
         d="m 21,15 v 1 h -7 v -1 h 7" />
      <path
         id="path6058-3-1"
         d="m 24,10 h 1 v 4 h -1 v -4" />
      <path
         id="path6062-8-7"
         d="m 23,15 v 1 h 7 v -6 h -1 v 5 h -6" />
      <path
         id="path6066-5-5"
         d="m 39,10 h -6 v 1 h 6 v -1" />
      <path
         id="path6070-6-9"
         d="m 38,12 h -5 v 2 h 1 v -1 h 4 v -1" />
      <path
         id="path6074-1-6"
         d="m 39,15 v 1 h -7 v -1 h 7" />
    </g>
  </g>
</svg>
