<svg id="svg2" width="52" height="26" version="1.1" xmlns="http://www.w3.org/2000/svg" xmlns:xlink="http://www.w3.org/1999/xlink"><defs id="defs4"><linearGradient id="linearGradient3143" x1="11" x2="11" y1="1027.4" y2="1049.4" gradientTransform="matrix(2.1304 0 0 1 -85.881 -1007)" gradientUnits="userSpaceOnUse" xlink:href="#linearGradient3801-6-9-9-36-0"/><linearGradient id="linearGradient4090" x1="11" x2="11" y1="1027.4" y2="1049.4" gradientTransform="matrix(2.1304 0 0 1 -63.27 -1075.3)" gradientUnits="userSpaceOnUse"><stop id="stop3803-7-1-95-7" stop-color="#ce0e0e" offset="0"/><stop id="stop4329-2-5" stop-color="#d00" offset=".28"/><stop id="stop3805-5-28-1-3" stop-color="#8d0000" offset="1"/></linearGradient><linearGradient id="linearGradient4127" x1="11" x2="11" y1="1027.4" y2="1049.4" gradientTransform="matrix(2.1304 0 0 1 -40.74 -1071.6)" gradientUnits="userSpaceOnUse"><stop id="stop3803-7-1-95-6-9" stop-color="#ce520e" offset="0"/><stop id="stop4329-2-7-1" stop-color="#dd4e00" offset=".28"/><stop id="stop3805-5-28-1-5-2" stop-color="#8d3200" offset="1"/></linearGradient><linearGradient id="linearGradient4164" x1="11" x2="11" y1="1027.4" y2="1049.4" gradientTransform="matrix(2.1304 0 0 1 -82.932 -1079.7)" gradientUnits="userSpaceOnUse"><stop id="stop3803-7-1-95-7-3" stop-color="#6e6e6e" offset="0"/><stop id="stop4329-2-5-6" stop-color="#696969" offset=".28"/><stop id="stop3805-5-28-1-3-0" stop-color="#474747" offset="1"/></linearGradient><linearGradient id="linearGradient4969" x1="11" x2="11" y1="1027.4" y2="1049.4" gradientTransform="matrix(2.1304 0 0 1 -17.423 -1066.4)" gradientUnits="userSpaceOnUse"><stop id="stop3803-7-1-95-6-9-1" stop-color="#ca7d0e" offset="0"/><stop id="stop4329-2-7-1-8" stop-color="#be5e00" offset=".28"/><stop id="stop3805-5-28-1-5-2-7" stop-color="#884300" offset="1"/></linearGradient><linearGradient id="linearGradient3801-6-9-9-36-0"><stop id="stop4329-2-5-3" stop-color="#dd7200" offset="0"/><stop id="stop3805-5-28-1-3-7" stop-color="#8d2800" offset="1"/></linearGradient><linearGradient id="linearGradient5006" x1="11" x2="11" y1="1027.4" y2="1049.4" gradientTransform="matrix(2.1304 0 0 1 -63.316 -1039.4)" gradientUnits="userSpaceOnUse" xlink:href="#linearGradient3801-6-9-9-36-0"/><linearGradient id="linearGradient3308" x1="11" x2="11" y1="1027.4" y2="1049.4" gradientTransform="matrix(2.1304 0 0 1 -.56521 -1026.4)" gradientUnits="userSpaceOnUse"><stop id="stop3803-7-1-95-7-7" stop-color="#ce0e0e" offset="0"/><stop id="stop4329-2-5-5" stop-color="#d00" offset=".28"/><stop id="stop3805-5-28-1-3-3" stop-color="#8d0000" offset="1"/></linearGradient></defs><rect id="rect3029-6-6-3" x="1" y="1" width="50" height="24" rx="2" ry="2" color="#000000" opacity=".9"/><path id="rect3029-6-65" d="m50.812 2.1875c0.11153 0.24962 0.1875 0.5205 0.1875 0.8125v20c0 1.108-0.892 2-2 2h-46c-0.292 0-0.56288-0.075973-0.8125-0.1875 0.31167 0.69758 0.9965 1.1875 1.8125 1.1875h46c1.108 0 2-0.892 2-2v-20c0-0.816-0.48992-1.5008-1.1875-1.8125z" color="#000000" fill="#060606" opacity=".62085"/><rect id="rect3029-96-3" x="-84.816" y="19.866" width="49" height="23" rx="1.5" ry="1.5" color="#000000" fill="url(#linearGradient3143)"/><rect id="rect3029-96-3-5-56" x=".5" y=".49998" width="49" height="23" rx="1.5" ry="1.5" color="#000000" fill="url(#linearGradient3308)"/><path id="rect3029-96" d="m2 0c-1.0994 0-2 0.90065-2 2v20c0 1.0994 0.90065 2 2 2h46c1.0994 0 2-0.90065 2-2v-20c0-1.0994-0.90065-2-2-2zm0.3 1h45.4c0.56265 0 1.3 0.73735 1.3 1.3v19.4c0 0.56265-0.73735 1.3-1.3 1.3h-45.4c-0.56265 0-1.3-0.73735-1.3-1.3v-19.4c0-0.56265 0.73735-1.3 1.3-1.3z" color="#000000" fill="#aaa" style="block-progression:tb;text-indent:0;text-transform:none"/><g id="g6087" fill="#fff"><path id="path6038" d="m20 9h-7v6h7v-1h-5v-4h5v-1"/><path id="path6042" d="m22 9v6h7v-6h-2v5h-3v-5h-2"/><path id="path6046" d="m31 9v6h7v-1h-5v-2h4v-1h-4v-1h5v-1h-7"/></g><g id="g6078" fill="#3d0000"><path id="path6050" d="m21 10h-6v4h1v-3h5v-1"/><path id="path6054" d="m21 15v1h-7v-1h7"/><path id="path6058" d="m24 10h1v4h-1v-4"/><path id="path6062" d="m23 15v1h7v-6h-1v5h-6"/><path id="path6066" d="m39 10h-6v1h6v-1"/><path id="path6070" d="m38 12h-5v2h1v-1h4v-1"/><path id="path6074" d="m39 15v1h-7v-1h7"/></g><rect id="rect3029-96-3-5-6" x="-81.867" y="-52.859" width="49" height="23" rx="1.5" ry="1.5" color="#000000" fill="url(#linearGradient4164)"/><rect id="rect3029-96-3-5" x="-62.205" y="-48.418" width="49" height="23" rx="1.5" ry="1.5" color="#000000" fill="url(#linearGradient4090)"/><rect id="rect3029-96-3-7" x="-39.674" y="-44.717" width="49" height="23" rx="1.5" ry="1.5" color="#000000" fill="url(#linearGradient4127)"/><rect id="rect3029-96-3-7-9" x="-16.358" y="-39.536" width="49" height="23" rx="1.5" ry="1.5" color="#000000" fill="url(#linearGradient4969)"/><rect id="rect3029-96-3-5-5" x="-62.251" y="-12.518" width="49" height="23" rx="1.5" ry="1.5" color="#000000" fill="url(#linearGradient5006)"/></svg>
