<?xml version="1.0" encoding="UTF-8" standalone="no"?>
<!-- Created with Inkscape (http://www.inkscape.org/) -->

<svg
   xmlns:dc="http://purl.org/dc/elements/1.1/"
   xmlns:cc="http://creativecommons.org/ns#"
   xmlns:rdf="http://www.w3.org/1999/02/22-rdf-syntax-ns#"
   xmlns:svg="http://www.w3.org/2000/svg"
   xmlns="http://www.w3.org/2000/svg"
   xmlns:xlink="http://www.w3.org/1999/xlink"
   version="1.1"
   width="26"
   height="26"
   id="svg25537">
  <defs
     id="defs25539">
    <linearGradient
       x1="15"
       y1="1049.3622"
       x2="15"
       y2="1027.3622"
       id="linearGradient25229"
       xlink:href="#linearGradient3801-6-9-0"
       gradientUnits="userSpaceOnUse"
       gradientTransform="translate(0,-1026.3622)" />
    <linearGradient
       id="linearGradient3801-6-9-0">
      <stop
         id="stop3803-7-1-9"
         style="stop-color:#aa1112;stop-opacity:1"
         offset="0" />
      <stop
         id="stop4329-4"
         style="stop-color:#b60607;stop-opacity:1"
         offset="0.28" />
      <stop
         id="stop3805-5-28-5"
         style="stop-color:#760607;stop-opacity:1"
         offset="1" />
    </linearGradient>
    <linearGradient
       x1="15"
       y1="1049.3622"
       x2="15"
       y2="1027.3622"
       id="linearGradient4370"
       xlink:href="#linearGradient3801-6-9-0-1"
       gradientUnits="userSpaceOnUse"
       gradientTransform="translate(0,-1026.3622)" />
    <linearGradient
       id="linearGradient3801-6-9-0-1">
      <stop
         id="stop3803-7-1-9-5"
         style="stop-color:#aa1112;stop-opacity:1"
         offset="0" />
      <stop
         id="stop4329-4-9"
         style="stop-color:#b60607;stop-opacity:1"
         offset="0.28" />
      <stop
         id="stop3805-5-28-5-7"
         style="stop-color:#760607;stop-opacity:1"
         offset="1" />
    </linearGradient>
    <linearGradient
       x1="13"
       y1="1027.3622"
       x2="13"
       y2="1049.3622"
       id="linearGradient3807-3"
       xlink:href="#linearGradient3801-6"
       gradientUnits="userSpaceOnUse"
       gradientTransform="translate(0,-1026.3622)" />
    <linearGradient
       id="linearGradient3801-6">
      <stop
         id="stop3803-7"
         style="stop-color:#242424;stop-opacity:1"
         offset="0" />
      <stop
         id="stop3805-5"
         style="stop-color:#101010;stop-opacity:1"
         offset="1" />
    </linearGradient>
    <linearGradient
       x1="15"
       y1="1049.3622"
       x2="15"
       y2="1027.3622"
       id="linearGradient4370-6"
       xlink:href="#linearGradient3801-6-9-0-7"
       gradientUnits="userSpaceOnUse"
       gradientTransform="translate(0,-1026.3622)" />
    <linearGradient
       id="linearGradient3801-6-9-0-7">
      <stop
         id="stop3803-7-1-9-3"
         style="stop-color:#aa1112;stop-opacity:1"
         offset="0" />
      <stop
         id="stop4329-4-6"
         style="stop-color:#b60607;stop-opacity:1"
         offset="0.28" />
      <stop
         id="stop3805-5-28-5-5"
         style="stop-color:#760607;stop-opacity:1"
         offset="1" />
    </linearGradient>
    <linearGradient
       x1="15"
       y1="1049.3622"
       x2="15"
       y2="1027.3622"
       id="linearGradient14755"
       xlink:href="#linearGradient3801-6-9-0-6"
       gradientUnits="userSpaceOnUse"
       gradientTransform="translate(0,-1026.3622)" />
    <linearGradient
       id="linearGradient3801-6-9-0-6">
      <stop
         id="stop3803-7-1-9-39"
         style="stop-color:#aa1112;stop-opacity:1"
         offset="0" />
      <stop
         id="stop4329-4-4"
         style="stop-color:#b60607;stop-opacity:1"
         offset="0.28" />
      <stop
         id="stop3805-5-28-5-8"
         style="stop-color:#760607;stop-opacity:1"
         offset="1" />
    </linearGradient>
    <linearGradient
       x1="15"
       y1="1049.3622"
       x2="15"
       y2="1027.3622"
       id="linearGradient14408"
       xlink:href="#linearGradient3801-6-9-0-12"
       gradientUnits="userSpaceOnUse"
       gradientTransform="translate(0,-1026.3622)" />
    <linearGradient
       id="linearGradient3801-6-9-0-12">
      <stop
         id="stop3803-7-1-9-9"
         style="stop-color:#aa1112;stop-opacity:1"
         offset="0" />
      <stop
         id="stop4329-4-3"
         style="stop-color:#b60607;stop-opacity:1"
         offset="0.28" />
      <stop
         id="stop3805-5-28-5-9"
         style="stop-color:#760607;stop-opacity:1"
         offset="1" />
    </linearGradient>
    <linearGradient
       x1="15"
       y1="1049.3622"
       x2="15"
       y2="1027.3622"
       id="linearGradient4370-0"
       xlink:href="#linearGradient3801-6-9-0-8"
       gradientUnits="userSpaceOnUse"
       gradientTransform="translate(0,-1026.3622)" />
    <linearGradient
       id="linearGradient3801-6-9-0-8">
      <stop
         id="stop3803-7-1-9-8"
         style="stop-color:#aa1112;stop-opacity:1"
         offset="0" />
      <stop
         id="stop4329-4-5"
         style="stop-color:#b60607;stop-opacity:1"
         offset="0.28" />
      <stop
         id="stop3805-5-28-5-0"
         style="stop-color:#760607;stop-opacity:1"
         offset="1" />
    </linearGradient>
    <linearGradient
       x1="15"
       y1="1049.3622"
       x2="15"
       y2="1027.3622"
       id="linearGradient4370-9"
       xlink:href="#linearGradient3801-6-9-0-63"
       gradientUnits="userSpaceOnUse"
       gradientTransform="translate(0,-1026.3622)" />
    <linearGradient
       id="linearGradient3801-6-9-0-63">
      <stop
         id="stop3803-7-1-9-85"
         style="stop-color:#aa1112;stop-opacity:1"
         offset="0" />
      <stop
         id="stop4329-4-61"
         style="stop-color:#b60607;stop-opacity:1"
         offset="0.28" />
      <stop
         id="stop3805-5-28-5-1"
         style="stop-color:#760607;stop-opacity:1"
         offset="1" />
    </linearGradient>
    <linearGradient
       x1="11"
       y1="1027.3622"
       x2="11"
       y2="1049.3622"
       id="linearGradient4650"
       xlink:href="#linearGradient3801-6-9-9"
       gradientUnits="userSpaceOnUse"
       gradientTransform="translate(0,-1050.3622)" />
    <linearGradient
       id="linearGradient3801-6-9-9">
      <stop
         id="stop3803-7-1-95"
         style="stop-color:#ce0e0e;stop-opacity:1"
         offset="0" />
      <stop
         id="stop4329-2"
         style="stop-color:#dd0000;stop-opacity:1"
         offset="0.28" />
      <stop
         id="stop3805-5-28-1"
         style="stop-color:#8d0000;stop-opacity:1"
         offset="1" />
    </linearGradient>
    <linearGradient
       x1="15"
       y1="1049.3622"
       x2="15"
       y2="1027.3622"
       id="linearGradient3878"
       xlink:href="#linearGradient3801-6-5"
       gradientUnits="userSpaceOnUse"
       gradientTransform="translate(0,-1026.3622)" />
    <linearGradient
       id="linearGradient3801-6-5">
      <stop
         id="stop3803-7-6"
         style="stop-color:#222222;stop-opacity:1"
         offset="0" />
      <stop
         id="stop3805-5-2"
         style="stop-color:#131516;stop-opacity:1"
         offset="1" />
    </linearGradient>
    <linearGradient
       x1="13"
       y1="1027.3622"
       x2="13"
       y2="1049.3622"
       id="linearGradient3807-3-5"
       xlink:href="#linearGradient3801-6-9"
       gradientUnits="userSpaceOnUse"
       gradientTransform="translate(0,-1026.3622)" />
    <linearGradient
       id="linearGradient3801-6-9">
      <stop
         id="stop3803-7-8"
         style="stop-color:#242424;stop-opacity:1"
         offset="0" />
      <stop
         id="stop3805-5-4"
         style="stop-color:#101010;stop-opacity:1"
         offset="1" />
    </linearGradient>
    <linearGradient
       x1="13"
       y1="1027.3622"
       x2="13"
       y2="1049.3622"
       id="linearGradient3807-3-1"
       xlink:href="#linearGradient3801-6-0"
       gradientUnits="userSpaceOnUse"
       gradientTransform="translate(0,-1026.3622)" />
    <linearGradient
       id="linearGradient3801-6-0">
      <stop
         id="stop3803-7-3"
         style="stop-color:#242424;stop-opacity:1"
         offset="0" />
      <stop
         id="stop3805-5-0"
         style="stop-color:#101010;stop-opacity:1"
         offset="1" />
    </linearGradient>
    <linearGradient
       x1="13"
       y1="1027.3622"
       x2="13"
       y2="1049.3622"
       id="linearGradient7792"
       xlink:href="#linearGradient3801-6-0"
       gradientUnits="userSpaceOnUse"
       gradientTransform="translate(0,-1026.3622)" />
    <linearGradient
       x1="13"
       y1="1027.3622"
       x2="13"
       y2="1049.3622"
       id="linearGradient7834"
       xlink:href="#linearGradient3801-6-0"
       gradientUnits="userSpaceOnUse"
       gradientTransform="translate(0,-1026.3622)" />
  </defs>
  <metadata
     id="metadata25542">
    <rdf:RDF>
      <cc:Work
         rdf:about="">
        <dc:format>image/svg+xml</dc:format>
        <dc:type
           rdf:resource="http://purl.org/dc/dcmitype/StillImage" />
        <dc:title></dc:title>
      </cc:Work>
    </rdf:RDF>
  </metadata>
  <rect
     width="24"
     height="24"
     rx="2"
     ry="2"
     x="2"
     y="2"
     id="rect3029-6"
     style="opacity:0.62085308;color:#000000;fill:#060606;fill-opacity:1;fill-rule:nonzero;stroke:none;stroke-width:1;marker:none;visibility:visible;display:inline;overflow:visible;enable-background:accumulate" />
  <rect
     width="24"
     height="24"
     rx="2"
     ry="2"
     x="1"
     y="1"
     id="rect3029-6-6"
     style="opacity:0.72000002;color:#000000;fill:#000000;fill-opacity:1;fill-rule:nonzero;stroke:none;stroke-width:1;marker:none;visibility:visible;display:inline;overflow:visible;enable-background:accumulate" />
  <rect
     width="23"
     height="23.000017"
     rx="2"
     ry="2"
     x="0.5"
     y="0.49998301"
     id="rect3029"
     style="color:#000000;fill:url(#linearGradient7834);fill-opacity:1;fill-rule:nonzero;stroke:none;stroke-width:1;marker:none;visibility:visible;display:inline;overflow:visible;enable-background:accumulate" />
  <path
     d="m 10,9.000017 3,0 0,6 -2,0 0,-5 -1,0 0,-1"
     id="path3944"
     style="fill:#bfbfbf;fill-opacity:1;stroke:none;display:none" />
  <path
     d="m 13,10.000017 1,0 0,6 -2,0 0,-1 1,0 0,-5"
     id="path3948"
     style="fill:#060606;fill-opacity:1;stroke:none;display:none" />
  <path
     d="m 10,10 7,0 0,4 -5,0 0,1 5,0 0,1 -7,0 0,-3 5,0 0,-2 -5,0 0,-1"
     id="path5770-89-8-1"
     style="fill:#060606;fill-opacity:1;stroke:none;display:none" />
  <path
     d="m 9,9 7,0 0,4 -5,0 0,1 5,0 0,1 -7,0 0,-3 5,0 0,-2 -5,0 0,-1"
     id="path5770-8-5-6-8"
     style="fill:#bfbfbf;fill-opacity:1;stroke:none;display:none" />
  <path
     d="m 10,10 7,0 0,6 -7,0 0,-1 5,0 0,-1 -2,0 0,-1 2,0 0,-2 -5,0 0,-1"
     id="path6542-5-0"
     style="fill:#060606;fill-opacity:1;stroke:none;display:none" />
  <path
     d="m 9,9 7,0 0,6 -7,0 0,-1 5,0 0,-1 -2,0 0,-1 2,0 0,-2 -5,0 0,-1"
     id="path6542-3"
     style="fill:#bfbfbf;fill-opacity:1;stroke:none;display:none" />
  <path
     d="m 10,11 0,3 5,0 0,2 2,0 0,-6 -2,0 0,3 -3,0 0,-2 -2,0"
     id="path6751-9"
     style="fill:#060606;fill-opacity:1;stroke:none;display:none" />
  <path
     d="m 9,10 0,3 5,0 0,2 2,0 0,-6 -2,0 0,3 -3,0 0,-2 -2,0"
     id="path6751"
     style="fill:#bfbfbf;fill-opacity:1;stroke:none;display:none" />
  <path
     d="m -23,-14.5 3,0 0,-3 3,0 0,3 3,0 0,3 -3,0 0,3 -3,0 0,-3 -3,0 0,-3"
     id="path9276-9-3"
     style="fill:#060606;fill-opacity:1;stroke:none;display:none" />
  <path
     d="m -24,-15.5 3,0 0,-3 3,0 0,3 3,0 0,3 -3,0 0,3 -3,0 0,-3 -3,0 0,-3"
     id="path9276-5"
     style="fill:#bfbfbf;fill-opacity:1;stroke:none;display:none" />
  <path
     d="m -11,-14.5 9,0 0,3 -9,0 0,-3"
     id="path9788-2-2"
     style="fill:#060606;fill-opacity:1;stroke:none;display:none" />
  <path
     d="m -12,-15.5 9,0 0,3 -9,0 0,-3"
     id="path9788-6"
     style="fill:#bfbfbf;fill-opacity:1;stroke:none;display:none" />
  <path
     d="m 17,12 -4,0 0,-4 -5,5.5 5,5.5 0,-4 4,0 0,-3"
     id="path9792-3-2-6"
     style="fill:#060606;fill-opacity:1;stroke:none;display:inline" />
  <path
     d="m 16,11 -4,0 0,-4 -5,5.5 5,5.5 0,-4 4,0 0,-3"
     id="path9792-3-3"
     style="fill:#bfbfbf;fill-opacity:1;stroke:none;display:inline" />
  <path
     d="m 9,12 4,0 0,-4 5,5.5 -5,5.5 0,-4 -4,0 0,-3"
     id="path9792-0-0"
     style="fill:#060606;fill-opacity:1;stroke:none;display:none" />
  <path
     d="m 8,11 4,0 0,-4 5,5.5 -5,5.5 0,-4 -4,0 0,-3"
     id="path9792-9"
     style="fill:#bfbfbf;fill-opacity:1;stroke:none;display:none" />
  <path
     d="m 11,7 5,0 0,13 -1,0 0,-7 -4,0 0,-6"
     id="path9817-3-1"
     style="fill:#060606;fill-opacity:1;stroke:none;display:none" />
  <path
     d="m 10,6 5,0 0,13 -1,0 0,-7 -4,0 0,-6"
     id="path9817-7"
     style="fill:#bfbfbf;fill-opacity:1;stroke:none;display:none" />
  <path
     d="m 16,7 -5,0 0,13 1,0 0,-7 4,0 0,-6"
     id="path9817-6-7-5"
     style="fill:#060606;fill-opacity:1;stroke:none;display:none" />
  <path
     d="m 15,6 -5,0 0,13 1,0 0,-7 4,0 0,-6"
     id="path9817-6-4"
     style="fill:#bfbfbf;fill-opacity:1;stroke:none;display:none" />
  <path
     d="m 13,6.21875 c -3.5898509,0 -6.4999999,2.910149 -6.4999999,6.5 0,0.04264 -8.17e-4,0.08256 0,0.125 0.310077,-0.215293 0.659368,-0.362276 1.03125,-0.46875 C 7.7098501,9.498673 10.078679,7.21875 13,7.21875 c 3.03757,0 5.5,2.462434 5.5,5.5 0,0.04206 9.4e-4,0.08317 0,0.125 0.35675,0.247699 0.66301,0.546206 0.90625,0.90625 C 19.46041,13.412263 19.5,13.071752 19.5,12.71875 c 0,-3.589851 -2.91015,-6.5 -6.5,-6.5 z"
     id="path9863-3-5"
     style="color:#000000;fill:#060606;fill-opacity:1;fill-rule:nonzero;stroke:#060606;stroke-width:0.5;stroke-miterlimit:4;stroke-opacity:1;stroke-dasharray:none;marker:none;visibility:visible;display:none;overflow:visible;enable-background:accumulate" />
  <path
     d="m 8.5000001,19.21875 c -1.932996,0 -3.5,-1.567003 -3.5,-3.5 0,-1.932996 1.567004,-3.5 3.5,-3.5 z"
     id="path9842-6-4"
     style="color:#000000;fill:#060606;fill-opacity:1;fill-rule:nonzero;stroke:none;stroke-width:1;marker:none;visibility:visible;display:none;overflow:visible;enable-background:accumulate" />
  <path
     d="m 17.5,19.21875 c 1.933,0 3.5,-1.567003 3.5,-3.5 0,-1.932996 -1.567,-3.5 -3.5,-3.5 z"
     id="path9842-2-0-7"
     style="color:#000000;fill:#060606;fill-opacity:1;fill-rule:nonzero;stroke:none;stroke-width:1;marker:none;visibility:visible;display:none;overflow:visible;enable-background:accumulate" />
  <path
     d="m 12,5.21875 c -3.589851,0 -6.5,2.910149 -6.5,6.5 0,0.04264 -8.17e-4,0.08256 0,0.125 C 5.810077,11.628457 6.159368,11.481474 6.53125,11.375 6.70985,8.498673 9.078679,6.21875 12,6.21875 c 3.037566,0 5.5,2.462434 5.5,5.5 0,0.04206 9.39e-4,0.08317 0,0.125 0.35675,0.247699 0.663009,0.546206 0.90625,0.90625 C 18.46041,12.412263 18.5,12.071752 18.5,11.71875 c 0,-3.589851 -2.910149,-6.5 -6.5,-6.5 z"
     id="path9863-2"
     style="color:#000000;fill:#bfbfbf;fill-opacity:1;fill-rule:nonzero;stroke:#bfbfbf;stroke-width:0.5;stroke-miterlimit:4;stroke-opacity:1;stroke-dasharray:none;marker:none;visibility:visible;display:none;overflow:visible;enable-background:accumulate" />
  <path
     d="m 7.5,18.21875 c -1.932996,0 -3.5,-1.567003 -3.5,-3.5 0,-1.932996 1.567004,-3.5 3.5,-3.5 z"
     id="path9842-5"
     style="color:#000000;fill:#bfbfbf;fill-opacity:1;fill-rule:nonzero;stroke:none;stroke-width:1;marker:none;visibility:visible;display:none;overflow:visible;enable-background:accumulate" />
  <path
     d="m 16.5,18.21875 c 1.932996,0 3.5,-1.567003 3.5,-3.5 0,-1.932996 -1.567004,-3.5 -3.5,-3.5 z"
     id="path9842-2-4"
     style="color:#000000;fill:#bfbfbf;fill-opacity:1;fill-rule:nonzero;stroke:none;stroke-width:1;marker:none;visibility:visible;display:none;overflow:visible;enable-background:accumulate" />
  <path
     d="M 2,0 C 0.90064862,0 0,0.90064862 0,2 l 0,20 c 0,1.099351 0.90064862,2 2,2 l 20,0 c 1.099351,0 2,-0.900649 2,-2 L 24,2 C 24,0.90064862 23.099351,0 22,0 z M 2.3,1 21.7,1 C 22.262649,1 23,1.7373514 23,2.3 l 0,19.4 C 23,22.262649 22.262649,23 21.7,23 L 2.3,23 C 1.7373514,23 1,22.262649 1,21.7 L 1,2.3 C 1,1.7373514 1.7373514,1 2.3,1 z"
     id="rect3029-96-0"
     style="font-size:medium;font-style:normal;font-variant:normal;font-weight:normal;font-stretch:normal;text-indent:0;text-align:start;text-decoration:none;line-height:normal;letter-spacing:normal;word-spacing:normal;text-transform:none;direction:ltr;block-progression:tb;writing-mode:lr-tb;text-anchor:start;baseline-shift:baseline;color:#000000;fill:#585858;fill-opacity:1;fill-rule:nonzero;stroke:none;stroke-width:1;marker:none;visibility:visible;display:inline;overflow:visible;enable-background:accumulate;font-family:Sans;-inkscape-font-specification:Sans" />
</svg>
