<svg id="svg2" width="24" height="24" version="1.1" xmlns="http://www.w3.org/2000/svg"><g id="layer2" transform="matrix(-.909 0 0 -.909 188.79 594.57)" fill="#333"><ellipse id="path4669" transform="matrix(-.31621 -.94869 .94868 -.31623 0 0)" cx="-669.5" cy="-18.15" rx="10.369" ry="10.368" fill="#333" stroke="#585858" stroke-width="1.3859"/></g><path id="path4669-2" d="m18.594 6.25c0.71915 0.84183 1.3153 1.821 1.6875 2.9375 0.5094 1.5283 0.55134 3.093 0.25 4.5625-0.03993 0.1947-0.07218 0.40283-0.125 0.59375-0.01757 0.07085-0.0431 0.14845-0.0625 0.21875-0.05954 0.19487-0.11476 0.37259-0.1875 0.5625-0.02234 0.06292-0.03868 0.12516-0.0625 0.1875-0.78706 2.0599-2.3788 3.7772-4.5312 4.6875-0.19275 0.08152-0.39222 0.18207-0.59375 0.25-0.08377 0.02824-0.166 0.03707-0.25 0.0625-0.18057 0.05465-0.35 0.11439-0.53125 0.15625-0.0096 0.0025-0.02168-0.0025-0.03125 0-2.8617 0.75158-5.7756-2e-3 -7.9062-1.8125 2.2549 2.8064 6.7011 4.6647 10.306 3.4495 4.6186-1.5568 7.1192-6.5997 5.5625-11.219-0.56509-1.6768-2.229-3.6114-3.525-4.637z" color="#000000" style="block-progression:tb;text-indent:0;text-transform:none"/></svg>
