<svg id="svg2" width="62" height="28" version="1.1" xmlns="http://www.w3.org/2000/svg"><defs id="defs4"><linearGradient id="linearGradient6467" x1="13" x2="13" y1="1027.4" y2="1049.4" gradientTransform="matrix(2.6957 0 0 1 1.1522 -1024.4)" gradientUnits="userSpaceOnUse"><stop id="stop3803-7" stop-color="#b69700" offset="0"/><stop id="stop3805-5" stop-color="#eece33" offset="1"/></linearGradient></defs><path id="rect3029" d="m4.5 2.5h53c1.108 0 2 0.892 2 2v19c0 1.108-0.892 2-2 2h-53c-1.108 0-2-0.892-2-2v-19c0-1.108 0.892-2 2-2z" color="#000000" fill="url(#linearGradient6467)"/><path id="rect3029-96-0" d="m4 2c-1.0994 0-2 0.90065-2 2v20c0 1.0994 0.90065 2 2 2h54c1.0994 0 2-0.90065 2-2v-20c0-1.0994-0.90065-2-2-2zm0.3 1h53.4c0.56265 0 1.3 0.73735 1.3 1.3v19.4c0 0.56265-0.73735 1.3-1.3 1.3h-53.4c-0.56265 0-1.3-0.73735-1.3-1.3v-19.4c0-0.56265 0.73735-1.3 1.3-1.3z" color="#000000" fill="#979797" style="text-decoration-line:none;text-indent:0;text-transform:none"/></svg>
