<svg id="svg14046" width="26" height="26" version="1.1" xmlns="http://www.w3.org/2000/svg"><defs id="defs14056"><linearGradient id="linearGradient3807-3" x1="13" x2="13" y1="1027.4" y2="1049.4" gradientTransform="translate(0 -1026.4)" gradientUnits="userSpaceOnUse"><stop id="stop3803-7" stop-color="#242424" offset="0"/><stop id="stop3805-5" stop-color="#101010" offset="1"/></linearGradient></defs><rect id="rect3029-6" x="2" y="2" width="24" height="24" rx="2" ry="2" color="#000000" fill="#060606" opacity=".62085"/><rect id="rect3029-6-6" x="1" y="1" width="24" height="24" rx="2" ry="2" color="#000000" opacity=".72"/><rect id="rect3029" x=".5" y=".49998" width="23" height="23" rx="2" ry="2" color="#000000" fill="url(#linearGradient3807-3)"/><g id="g3463" fill="#060606"><path id="path14050-36" d="m5.0002 9.1879 1.4999 1.1561-2.5e-4 6.6559c-2.15e-5 0.57129 0.92882 1.5001 1.5001 1.5001l7-6.2e-5v-3l7 3.75-7 3.75v-3l-7 6.3e-5c-1.6447 1.4e-5 -3-1.3553-3-3z" color="#000000"/><path id="path14050-3-7" d="m21 16.812-1.4999-1.1561 2.5e-4 -6.6559c2.5e-5 -0.66867-0.78276-1.5001-1.5001-1.5001l-7 6.24e-5v3l-7-3.75 7-3.75v3l7-6.25e-5c1.6447-1.47e-5 3 1.3553 3 3z" color="#000000"/></g><path id="path14050" d="m4.0002 8.1879 1.4999 1.1561-2.5e-4 6.6559c-2.15e-5 0.57129 0.92882 1.5001 1.5001 1.5001l7-6.2e-5v-3l7 3.75-7 3.75v-3l-7 6.3e-5c-1.6447 1.4e-5 -3-1.3553-3-3z" color="#000000" fill="#bfbfbf"/><path id="path14050-3" d="m20 15.812-1.4999-1.1561 2.5e-4 -6.6559c2.5e-5 -0.66867-0.78276-1.5001-1.5001-1.5001l-7 6.24e-5v3l-7-3.75 7-3.75v3l7-6.25e-5c1.6447-1.47e-5 3 1.3553 3 3z" color="#000000" fill="#bfbfbf"/><path id="rect3029-96-0" d="m2 0c-1.0994 0-2 0.90065-2 2v20c0 1.0994 0.90065 2 2 2h20c1.0994 0 2-0.90065 2-2v-20c0-1.0994-0.90065-2-2-2zm0.3 1h19.4c0.56265 0 1.3 0.73735 1.3 1.3v19.4c0 0.56265-0.73735 1.3-1.3 1.3h-19.4c-0.56265 0-1.3-0.73735-1.3-1.3v-19.4c0-0.56265 0.73735-1.3 1.3-1.3z" color="#000000" fill="#585858" style="block-progression:tb;text-indent:0;text-transform:none"/></svg>
