<?xml version="1.0" encoding="UTF-8" standalone="no"?>
<svg
   xmlns:dc="http://purl.org/dc/elements/1.1/"
   xmlns:cc="http://creativecommons.org/ns#"
   xmlns:rdf="http://www.w3.org/1999/02/22-rdf-syntax-ns#"
   xmlns:svg="http://www.w3.org/2000/svg"
   xmlns="http://www.w3.org/2000/svg"
   version="1.1"
   height="26"
   width="26"
   id="svg14046">
  <metadata
     id="metadata18">
    <rdf:RDF>
      <cc:Work
         rdf:about="">
        <dc:format>image/svg+xml</dc:format>
        <dc:type
           rdf:resource="http://purl.org/dc/dcmitype/StillImage" />
        <dc:title></dc:title>
      </cc:Work>
    </rdf:RDF>
  </metadata>
  <defs
     id="defs14056">
    <linearGradient
       gradientUnits="userSpaceOnUse"
       gradientTransform="translate(0 -1026.4)"
       y2="1049.4"
       y1="1027.4"
       x2="13"
       x1="13"
       id="linearGradient3807-3">
      <stop
         offset="0"
         stop-color="#242424"
         id="stop3803-7" />
      <stop
         offset="1"
         stop-color="#101010"
         id="stop3805-5" />
    </linearGradient>
  </defs>
  <rect
     style="color:#000000;opacity:0.72000002"
     ry="2"
     rx="2"
     height="24"
     width="24"
     y="1"
     x="0.5"
     id="rect3029-6-6" />
  <rect
     fill="url(#linearGradient3807-3)"
     color="#000000"
     ry="2"
     rx="2"
     height="23"
     width="23"
     y=".49998"
     x=".5"
     id="rect3029" />
  <g
     fill="#060606"
     id="g3463">
    <path
       color="#000000"
       d="m5.0002 9.1879 1.4999 1.1561-2.5e-4 6.6559c-2.15e-5 0.57129 0.92882 1.5001 1.5001 1.5001l7-6.2e-5v-3l7 3.75-7 3.75v-3l-7 6.3e-5c-1.6447 1.4e-5 -3-1.3553-3-3z"
       id="path14050-36" />
    <path
       color="#000000"
       d="m21 16.812-1.4999-1.1561 2.5e-4 -6.6559c2.5e-5 -0.66867-0.78276-1.5001-1.5001-1.5001l-7 6.24e-5v3l-7-3.75 7-3.75v3l7-6.25e-5c1.6447-1.47e-5 3 1.3553 3 3z"
       id="path14050-3-7" />
  </g>
  <path
     fill="#bfbfbf"
     color="#000000"
     d="m4.0002 8.1879 1.4999 1.1561-2.5e-4 6.6559c-2.15e-5 0.57129 0.92882 1.5001 1.5001 1.5001l7-6.2e-5v-3l7 3.75-7 3.75v-3l-7 6.3e-5c-1.6447 1.4e-5 -3-1.3553-3-3z"
     id="path14050" />
  <path
     fill="#bfbfbf"
     color="#000000"
     d="m20 15.812-1.4999-1.1561 2.5e-4 -6.6559c2.5e-5 -0.66867-0.78276-1.5001-1.5001-1.5001l-7 6.24e-5v3l-7-3.75 7-3.75v3l7-6.25e-5c1.6447-1.47e-5 3 1.3553 3 3z"
     id="path14050-3" />
  <path
     style="block-progression:tb;text-indent:0;text-transform:none"
     fill="#444444"
     color="#000000"
     d="m2 0c-1.0994 0-2 0.90065-2 2v20c0 1.0994 0.90065 2 2 2h20c1.0994 0 2-0.90065 2-2v-20c0-1.0994-0.90065-2-2-2zm0.3 1h19.4c0.56265 0 1.3 0.73735 1.3 1.3v19.4c0 0.56265-0.73735 1.3-1.3 1.3h-19.4c-0.56265 0-1.3-0.73735-1.3-1.3v-19.4c0-0.56265 0.73735-1.3 1.3-1.3z"
     id="rect3029-96-0" />
</svg>
