<svg width="38" height="38" version="1.1" xmlns="http://www.w3.org/2000/svg"><defs><linearGradient id="a" x1="15" x2="15" y1="1049.4" y2="1027.4" gradientTransform="matrix(2.1304 0 0 1 -.26522 -1025.9)" gradientUnits="userSpaceOnUse"><stop stop-color="#aa1112" offset="0"/><stop stop-color="#b60607" offset=".28"/><stop stop-color="#760607" offset="1"/></linearGradient></defs><path d="m2.3 1h31.319c.831 0 1.5.669 1.5 1.5v31.011c0 .831-.669 1.5-1.5 1.5h-31.319c-.831 0-1.5-.669-1.5-1.5v-31.011c0-.831.669-1.5 1.5-1.5z" color="#000000" fill="url(#a)"/><path d="m23 13v11h-3v1h4v-12z" fill="#320202"/><path d="m29 13v11h-3v1h4v-12z" fill="#320202"/><path d="m19 12h4v12h-4v-12" fill="#8d8f90"/><path d="m25 12v12h4v-12h-4" fill="#8d8f90"/><path d="m15.75 18.156-7.75 5.1875v1.6562l9-6-1.25-.84375z" fill="#320202"/><path d="m7 12 8.9995 6-8.9995 6v-12" fill="#8d8f90"/><path d="m2 0c-1.0994 0-2 .90065-2 2v32c0 1.0994.90065 2 2 2h32c1.0994 0 2-.90065 2-2v-32c0-1.0994-.90065-2-2-2zm.3 1h31.4c.56265 0 1.3.73735 1.3 1.3v31.4c0 .56265-.73735 1.3-1.3 1.3h-31.4c-.56265 0-1.3-.73735-1.3-1.3v-31.4c0-.56265.73735-1.3 1.3-1.3z" color="#000000" fill="#979797" style="text-indent:0;text-transform:none"/></svg>
