<?xml version="1.0" encoding="UTF-8" standalone="no"?>
<!-- Created with Inkscape (http://www.inkscape.org/) -->

<svg
   xmlns:dc="http://purl.org/dc/elements/1.1/"
   xmlns:cc="http://creativecommons.org/ns#"
   xmlns:rdf="http://www.w3.org/1999/02/22-rdf-syntax-ns#"
   xmlns:svg="http://www.w3.org/2000/svg"
   xmlns="http://www.w3.org/2000/svg"
   version="1.1"
   width="48"
   height="48"
   viewBox="0 0 48 48"
   id="svg2">
  <metadata
     id="metadata12">
    <rdf:RDF>
      <cc:Work
         rdf:about="">
        <dc:format>image/svg+xml</dc:format>
        <dc:type
           rdf:resource="http://purl.org/dc/dcmitype/StillImage" />
        <dc:title></dc:title>
      </cc:Work>
    </rdf:RDF>
  </metadata>
  <defs
     id="defs10" />
  <path
     d="m 26,4.995532 -4,0 0,14.077982 4,0 z"
     id="path2985"
     style="fill:#8d8f90;fill-opacity:1" />
  <path
     d="m 33.13,11.87 -2.89,2.89 C 33.69,16.87 36,20.66 36,25 36,31.63 30.63,37 24,37 17.37,37 12,31.63 12,25 12,20.66 14.31,16.87 17.76,14.76 L 14.87,11.87 C 10.72,14.76 8,19.56 8,25 c 0,8.84 7.16,16 16,16 8.84,0 16,-7.16 16,-16 0,-5.44 -2.72,-10.24 -6.87,-13.13 z"
     id="path6"
     style="fill:#8d8f90;fill-opacity:1" />
</svg>
