<?xml version="1.0" encoding="UTF-8" standalone="no"?>
<svg
   xmlns:dc="http://purl.org/dc/elements/1.1/"
   xmlns:cc="http://creativecommons.org/ns#"
   xmlns:rdf="http://www.w3.org/1999/02/22-rdf-syntax-ns#"
   xmlns:svg="http://www.w3.org/2000/svg"
   xmlns="http://www.w3.org/2000/svg"
   id="svg4867"
   width="30"
   height="30"
   version="1.1">
  <metadata
     id="metadata16">
    <rdf:RDF>
      <cc:Work
         rdf:about="">
        <dc:format>image/svg+xml</dc:format>
        <dc:type
           rdf:resource="http://purl.org/dc/dcmitype/StillImage" />
        <dc:title></dc:title>
      </cc:Work>
    </rdf:RDF>
  </metadata>
  <defs
     id="defs4869">
    <linearGradient
       id="linearGradient3807-3"
       x1="13"
       x2="13"
       y1="1027.4"
       y2="1049.4"
       gradientTransform="matrix(1.087,0,0,1.087,1.9565,-1113.692)"
       gradientUnits="userSpaceOnUse">
      <stop
         id="stop3803-7"
         stop-color="#242424"
         offset="0" />
      <stop
         id="stop3805-5"
         stop-color="#101010"
         offset="1" />
    </linearGradient>
  </defs>
  <rect
     style="color:#000000;fill:url(#linearGradient3807-3)"
     ry="2"
     rx="2"
     height="25"
     width="25"
     y="2.5000243"
     x="2.5"
     id="rect3029" />
  <path
     style="color:#000000;text-indent:0;text-transform:none;fill:#444444"
     d="M 4.1667,2 C 2.9757,2 2,2.9757 2,4.1667 v 21.667 c 0,1.1911 0.9757,2.1667 2.1667,2.1667 h 21.667 c 1.191,0 2.1667,-0.9756 2.1667,-2.1667 V 4.1667 C 28.0004,2.9757 27.0247,2 25.8337,2 Z m 0.325,1.0833 h 21.017 c 0.60954,0 1.4083,0.7989 1.4083,1.4084 v 21.017 c 0,0.6095 -0.7988,1.4084 -1.4083,1.4084 H 4.4917 c -0.60954,0 -1.4083,-0.7989 -1.4083,-1.4084 V 4.4917 c 0,-0.6095 0.7988,-1.4084 1.4083,-1.4084 z"
     id="rect3029-96-0" />
  <path
     style="fill:#d2d2d2"
     d="m 19.545,8.4 -1.437,1.437 c 1.7154,1.0492 2.864,2.9336 2.864,5.0916 0,3.2966 -2.6701,5.9668 -5.9668,5.9668 -3.2967,0 -5.9668,-2.6702 -5.9668,-5.9668 0,-2.158 1.1486,-4.0424 2.864,-5.0916 L 10.4654,8.4 c -2.0635,1.437 -3.416,3.8236 -3.416,6.5286 0,4.3955 3.5602,7.9556 7.9557,7.9556 4.3955,0 7.9557,-3.5601 7.9557,-7.9556 0,-2.705 -1.3525,-5.0916 -3.416,-6.5286 z"
     id="path6" />
  <path
     style="fill:#d2d2d2"
     d="m 16,5 h -1.9889 v 7 H 16 Z"
     id="path2985-3" />
  <path
     d="m 27.81447,5.1758 c 0.11592,0.25262 0.185544,0.52951 0.18555,0.82422 l 3.8e-4,19.83368 c 2.2e-5,1.143055 -0.935715,2.1667 -2.1667,2.1667 H 4.1667 c -0.7965825,0 -1.2984687,-0.423998 -1.4917,-0.595457 0.1700317,0.939326 0.7641575,1.595027 1.8242,1.595027 h 22.478814 c 1.108,0 2.021986,-0.892 2.021986,-2 v -20 c 0,-0.81658 -0.48717,-1.5129 -1.1855,-1.8242 z"
     id="path15"
     style="opacity:0.8;fill:#030303" />
</svg>
