<?xml version="1.0" encoding="UTF-8" standalone="no"?>
<svg
   xmlns:dc="http://purl.org/dc/elements/1.1/"
   xmlns:cc="http://creativecommons.org/ns#"
   xmlns:rdf="http://www.w3.org/1999/02/22-rdf-syntax-ns#"
   xmlns:svg="http://www.w3.org/2000/svg"
   xmlns="http://www.w3.org/2000/svg"
   id="svg79"
   version="1.1"
   height="26"
   width="26">
  <metadata
     id="metadata83">
    <rdf:RDF>
      <cc:Work
         rdf:about="">
        <dc:format>image/svg+xml</dc:format>
        <dc:type
           rdf:resource="http://purl.org/dc/dcmitype/StillImage" />
        <dc:title></dc:title>
      </cc:Work>
    </rdf:RDF>
  </metadata>
  <defs
     id="defs11">
    <linearGradient
       gradientUnits="userSpaceOnUse"
       gradientTransform="translate(0,-24)"
       y2="12"
       y1="12"
       x2="23.5"
       x1=".5"
       id="a">
      <stop
         id="stop2"
         offset="0"
         stop-opacity=".17647" />
      <stop
         id="stop4"
         offset=".12672"
         stop-opacity=".0047619" />
      <stop
         id="stop6"
         offset=".54348"
         stop-opacity="0" />
      <stop
         id="stop8"
         offset="1"
         stop-opacity=".47451" />
    </linearGradient>
  </defs>
  <path
     d="m 23.31367,1.1758 c 0.11592,0.25262 0.18555,0.52951 0.18555,0.82422 v 20 c 0,1.0994 -0.9006,1.965573 -2,1.965572 L 2,23.965572 c -0.6598637,-1e-6 -1.13567505,-0.352003 -1.325,-0.511743 0.20909416,0.790888 0.7641575,1.546141 1.8242,1.546141 h 20 c 1.108,0 2,-0.892 2,-2 v -20 c 0,-0.81658 -0.48717,-1.5129 -1.1855,-1.8242 z"
     id="path15"
     style="opacity:0.8;fill:#030303" />
  <rect
     id="rect17"
     fill="url(#a)"
     color="#000000"
     ry="1.5"
     rx="1.5"
     height="23"
     width="23"
     y="-23.5"
     x=".5"
     transform="rotate(90)" />
  <path
     id="path19"
     style="text-indent:0;text-transform:none"
     fill="#444444"
     color="#000000"
     d="m2 0c-1.0994 0-2 .90065-2 2v20c0 1.0994.90065 2 2 2h20c1.0994 0 2-.90065 2-2v-20c0-1.0994-.90065-2-2-2zm.3 1h19.4c.56265 0 1.3.73735 1.3 1.3v19.4c0 .56265-.73735 1.3-1.3 1.3h-19.4c-.56265 0-1.3-.73735-1.3-1.3v-19.4c0-.56265.73735-1.3 1.3-1.3z" />
  <g
     id="g27"
     display="none">
    <g
       id="g25"
       display="inline">
      <path
         id="path21"
         fill="#323232"
         d="m10 10h7v4h-5v1h5v1h-7v-3h5v-2h-5v-1" />
      <path
         id="path23"
         fill="#dcdcdc"
         d="m9 9h7v4h-5v1h5v1h-7v-3h5v-2h-5v-1" />
    </g>
  </g>
  <g
     id="g35"
     display="none">
    <g
       id="g33"
       display="inline">
      <path
         id="path29"
         fill="#323232"
         d="m10 10h7v6h-7v-1h5v-1h-2v-1h2v-2h-5v-1" />
      <path
         id="path31"
         fill="#dcdcdc"
         d="m9 9h7v6h-7v-1h5v-1h-2v-1h2v-2h-5v-1" />
    </g>
  </g>
  <g
     id="g43"
     display="none">
    <g
       id="g41"
       display="inline">
      <path
         id="path37"
         fill="#323232"
         d="m10 11v3h5v2h2v-6h-2v3h-3v-2h-2" />
      <path
         id="path39"
         fill="#dcdcdc"
         d="m9 10v3h5v2h2v-6h-2v3h-3v-2h-2" />
    </g>
  </g>
  <g
     id="g51"
     display="none">
    <g
       id="g49"
       display="inline">
      <path
         id="path45"
         fill="#323232"
         d="m17 10h-6v3h4v2h-5v1h7v-4h-5v-1h5v-1" />
      <path
         id="path47"
         fill="#dcdcdc"
         d="m16 9h-6v3h4v2h-5v1h7v-4h-5v-1h5v-1" />
    </g>
  </g>
  <g
     id="g59"
     display="none">
    <g
       id="g57"
       display="inline">
      <path
         id="path53"
         fill="#323232"
         d="m10 10v6h7v-4h-5v-1h4v-1zm2 3h4v2h-4z" />
      <path
         id="path55"
         fill="#dcdcdc"
         d="m9 9v6h7v-4h-5v-1h4v-1zm2 3h4v2h-4z" />
    </g>
  </g>
  <g
     id="g67"
     display="none">
    <g
       id="g65"
       display="inline">
      <path
         id="path61"
         fill="#323232"
         d="m10 10h6v3h1v1h-1v2h-2v-2h-2v-1h2v-2h-4v-1" />
      <path
         id="path63"
         fill="#dcdcdc"
         d="m9 9h6v3h1v1h-1v2h-2v-2h-2v-1h2v-2h-4v-1" />
    </g>
  </g>
  <g
     id="g73"
     display="none">
    <path
       id="path69"
       fill="#323232"
       d="m11 10v2h-1v4h7v-4h-1v-2zm2 1h2v1h-2zm-1 2h4v2h-4z" />
    <path
       id="path71"
       fill="#dcdcdc"
       d="m10 9v2h-1v4h7v-4h-1v-2zm2 1h2v1h-2zm-1 2h4v2h-4z" />
  </g>
  <rect
     id="rect75"
     style="paint-order:markers fill stroke"
     fill="#bfbfbf"
     height="10"
     width="2"
     y="7"
     x="6" />
  <path
     id="path77"
     fill="#bfbfbf"
     d="m9 17 9-10v10z" />
</svg>
