<?xml version="1.0" encoding="UTF-8" standalone="no"?>
<svg
   xmlns:dc="http://purl.org/dc/elements/1.1/"
   xmlns:cc="http://creativecommons.org/ns#"
   xmlns:rdf="http://www.w3.org/1999/02/22-rdf-syntax-ns#"
   xmlns:svg="http://www.w3.org/2000/svg"
   xmlns="http://www.w3.org/2000/svg"
   xmlns:sodipodi="http://sodipodi.sourceforge.net/DTD/sodipodi-0.dtd"
   xmlns:inkscape="http://www.inkscape.org/namespaces/inkscape"
   width="26"
   height="26"
   version="1.1"
   id="svg83"
   sodipodi:docname="btn_hotcue_over.svg"
   inkscape:version="0.92.4 (unknown)">
  <metadata
     id="metadata87">
    <rdf:RDF>
      <cc:Work
         rdf:about="">
        <dc:format>image/svg+xml</dc:format>
        <dc:type
           rdf:resource="http://purl.org/dc/dcmitype/StillImage" />
        <dc:title></dc:title>
      </cc:Work>
    </rdf:RDF>
  </metadata>
  <sodipodi:namedview
     pagecolor="#ffffff"
     bordercolor="#666666"
     borderopacity="1"
     objecttolerance="10"
     gridtolerance="10"
     guidetolerance="10"
     inkscape:pageopacity="0"
     inkscape:pageshadow="2"
     inkscape:window-width="1366"
     inkscape:window-height="740"
     id="namedview85"
     showgrid="false"
     inkscape:zoom="9.0769231"
     inkscape:cx="-9.6851465"
     inkscape:cy="17.222154"
     inkscape:window-x="0"
     inkscape:window-y="0"
     inkscape:window-maximized="1"
     inkscape:current-layer="layer3" />
  <defs
     id="defs9">
    <linearGradient
       id="a"
       x1=".5"
       x2="23.5"
       y1="12"
       y2="12"
       gradientTransform="translate(0,-24)"
       gradientUnits="userSpaceOnUse">
      <stop
         stop-opacity=".17647"
         offset="0"
         id="stop2" />
      <stop
         stop-opacity=".11765"
         offset=".28"
         id="stop4" />
      <stop
         stop-opacity=".47451"
         offset="1"
         id="stop6" />
    </linearGradient>
  </defs>
  <g
     inkscape:groupmode="layer"
     id="layer1"
     inkscape:label="frame"
     style="display:inline">
    <g
       id="g19">
      <path
         style="opacity:0.5;fill:#010101"
         inkscape:connector-curvature="0"
         d="m 24.82,2.1797 c 0.11293,0.25091 0.17969,0.52638 0.17969,0.82031 v 20 c 0,1.108 -0.892,2 -2,2 h -20 c -0.29393,0 -0.5694,-0.06676 -0.82031,-0.17969 0.31276,0.69491 1.0062,1.1797 1.8203,1.1797 h 20 c 1.108,0 2,-0.892 2,-2 v -20 c 0,-0.81407 -0.48477,-1.5075 -1.1797,-1.8203 z"
         id="path11" />
      <path
         style="opacity:0.8;fill:#030303"
         inkscape:connector-curvature="0"
         d="m 23.814,1.1758 c 0.11592,0.25262 0.18555,0.52951 0.18555,0.82422 v 20 c 0,1.0994 -0.9006,2 -2,2 h -20 c -0.2947,0 -0.5716,-0.06963 -0.82422,-0.18555 0.31134,0.69838 1.0076,1.1855 1.8242,1.1855 h 20 c 1.108,0 2,-0.892 2,-2 v -20 c 0,-0.81658 -0.48717,-1.5129 -1.1855,-1.8242 z"
         id="path13" />
      <rect
         style="color:#000000;fill:url(#a)"
         transform="rotate(90)"
         x="0.5"
         y="-23.5"
         width="23"
         height="23"
         rx="1.5"
         ry="1.5"
         id="rect15" />
      <path
         inkscape:connector-curvature="0"
         d="M 2,0 C 0.9006,0 0,0.90065 0,2 v 20 c 0,1.0994 0.90065,2 2,2 h 20 c 1.0994,0 2,-0.90065 2,-2 V 2 C 24,0.9006 23.09935,0 22,0 Z M 2.3,1 H 21.7 C 22.26265,1 23,1.73735 23,2.3 V 21.7 C 23,22.26265 22.26265,23 21.7,23 H 2.3 C 1.73735,23 1,22.26265 1,21.7 V 2.3 C 1,1.73735 1.73735,1 2.3,1 Z"
         style="color:#000000;text-indent:0;text-transform:none;fill:#979797"
         id="path17" />
    </g>
  </g>
  <g
     inkscape:groupmode="layer"
     id="layer3"
     inkscape:label="1"
     style="display:inline">
    <g
       id="g27">
      <g
         style="display:inline"
         display="inline"
         id="g25">
        <path
           style="fill:#dcdcdc"
           inkscape:connector-curvature="0"
           d="m 10,9 h 3 v 6 H 11 V 10 H 10 V 9"
           id="path21" />
        <path
           style="fill:#323232"
           inkscape:connector-curvature="0"
           d="m 13,10 h 1 v 6 h -2 v -1 h 1 v -5"
           id="path23" />
      </g>
    </g>
  </g>
  <g
     inkscape:groupmode="layer"
     id="layer4"
     inkscape:label="2"
     style="display:none">
    <g
       id="g35">
      <g
         style="display:inline"
         display="inline"
         id="g33">
        <path
           style="fill:#323232"
           inkscape:connector-curvature="0"
           d="m 10,10 h 7 v 4 h -5 v 1 h 5 v 1 h -7 v -3 h 5 v -2 h -5 v -1"
           id="path29" />
        <path
           style="fill:#dcdcdc"
           inkscape:connector-curvature="0"
           d="m 9,9 h 7 v 4 h -5 v 1 h 5 v 1 H 9 v -3 h 5 V 10 H 9 V 9"
           id="path31" />
      </g>
    </g>
  </g>
  <g
     inkscape:groupmode="layer"
     id="layer5"
     inkscape:label="3"
     style="display:none">
    <g
       id="g43">
      <g
         style="display:inline"
         display="inline"
         id="g41">
        <path
           style="fill:#323232"
           inkscape:connector-curvature="0"
           d="m 10,10 h 7 v 6 h -7 v -1 h 5 v -1 h -2 v -1 h 2 v -2 h -5 v -1"
           id="path37" />
        <path
           style="fill:#dcdcdc"
           inkscape:connector-curvature="0"
           d="m 9,9 h 7 v 6 H 9 v -1 h 5 v -1 h -2 v -1 h 2 V 10 H 9 V 9"
           id="path39" />
      </g>
    </g>
  </g>
  <g
     inkscape:groupmode="layer"
     id="layer6"
     inkscape:label="4"
     style="display:none">
    <g
       id="g51">
      <g
         style="display:inline"
         display="inline"
         id="g49">
        <path
           style="fill:#323232"
           inkscape:connector-curvature="0"
           d="m 10,11 v 3 h 5 v 2 h 2 v -6 h -2 v 3 h -3 v -2 h -2"
           id="path45" />
        <path
           style="fill:#dcdcdc"
           inkscape:connector-curvature="0"
           d="m 9,10 v 3 h 5 v 2 h 2 V 9 h -2 v 3 H 11 V 10 H 9"
           id="path47" />
      </g>
    </g>
  </g>
  <g
     inkscape:groupmode="layer"
     id="layer7"
     inkscape:label="5"
     style="display:none">
    <g
       id="g59">
      <g
         style="display:inline"
         display="inline"
         id="g57">
        <path
           style="fill:#323232"
           inkscape:connector-curvature="0"
           d="m 17,10 h -6 v 3 h 4 v 2 h -5 v 1 h 7 v -4 h -5 v -1 h 5 v -1"
           id="path53" />
        <path
           style="fill:#dcdcdc"
           inkscape:connector-curvature="0"
           d="m 16,9 h -6 v 3 h 4 v 2 H 9 v 1 h 7 v -4 h -5 v -1 h 5 V 9"
           id="path55" />
      </g>
    </g>
  </g>
  <g
     inkscape:groupmode="layer"
     id="layer8"
     inkscape:label="6"
     style="display:none">
    <g
       id="g67">
      <g
         style="display:inline"
         display="inline"
         id="g65">
        <path
           style="fill:#323232"
           inkscape:connector-curvature="0"
           d="m 10,10 v 6 h 7 v -4 h -5 v -1 h 4 v -1 z m 2,3 h 4 v 2 h -4 z"
           id="path61" />
        <path
           style="fill:#dcdcdc"
           inkscape:connector-curvature="0"
           d="m 9,9 v 6 h 7 v -4 h -5 v -1 h 4 V 9 Z m 2,3 h 4 v 2 h -4 z"
           id="path63" />
      </g>
    </g>
  </g>
  <g
     inkscape:groupmode="layer"
     id="layer9"
     inkscape:label="7"
     style="display:none">
    <g
       id="g75">
      <g
         style="display:inline"
         display="inline"
         id="g73">
        <path
           style="fill:#323232"
           inkscape:connector-curvature="0"
           d="m 10,10 h 6 v 3 h 1 v 1 h -1 v 2 h -2 v -2 h -2 v -1 h 2 v -2 h -4 v -1"
           id="path69" />
        <path
           style="fill:#dcdcdc"
           inkscape:connector-curvature="0"
           d="m 9,9 h 6 v 3 h 1 v 1 h -1 v 2 h -2 v -2 h -2 v -1 h 2 V 10 H 9 V 9"
           id="path71" />
      </g>
    </g>
  </g>
  <g
     inkscape:groupmode="layer"
     id="layer2"
     inkscape:label="8"
     style="display:none">
    <g
       id="g81">
      <path
         style="fill:#323232"
         inkscape:connector-curvature="0"
         d="m 11,10 v 2 h -1 v 4 h 7 v -4 h -1 v -2 z m 2,1 h 2 v 1 h -2 z m -1,2 h 4 v 2 h -4 z"
         id="path77" />
      <path
         style="fill:#dcdcdc"
         inkscape:connector-curvature="0"
         d="m 10,9 v 2 H 9 v 4 h 7 V 11 H 15 V 9 Z m 2,1 h 2 v 1 h -2 z m -1,2 h 4 v 2 h -4 z"
         id="path79" />
    </g>
  </g>
</svg>
