<svg id="svg3063" width="18" height="12" version="1.1" xmlns="http://www.w3.org/2000/svg"><defs id="defs3071"><linearGradient id="linearGradient4263" x1="12.551" x2="12.525" y1="21.841" y2="1.1144" gradientTransform="matrix(1.032 0 0 1.0145 .5 -9.9667)" gradientUnits="userSpaceOnUse"><stop id="stop5422-3-0" stop-color="#101010" offset="0"/><stop id="stop5424-5-9" stop-color="#242424" offset="1"/></linearGradient></defs><rect id="rect3227" y="-8.8818e-16" width="18" height="12" color="#000000" fill="#101010"/><path id="path3067-6" d="m0.5 8.5833c0 1.6259 1.1801 2.9166 2.6667 2.9167l11.667 1.67e-4c1.4866 2.1e-5 2.6667-1.2908 2.6667-2.9167v-8.5833l-17-1.666e-4z" color="#000000" fill="url(#linearGradient4263)" style="block-progression:tb;text-indent:0;text-transform:none"/><path id="path3067-6-3" d="m3.1732 12c-1.7966 0-3.1523-1.6578-3.1563-3.625l-0.016906-8.3751h18l0.01648 8.3751c0.0039 1.9672-1.3597 3.625-3.1563 3.625zm0-1h11.687c1.1766 0 2.1596-1.1096 2.1562-2.625l-0.016481-7.8751h-16l0.016906 7.8751c0.00325 1.5154 0.97969 2.625 2.1563 2.625z" color="#000000" fill="#666" style="block-progression:tb;text-indent:0;text-transform:none"/><path id="path3065-6" d="m9 10-4.0415-7h8.0829z" fill="#bfbfbf"/></svg>
