<svg id="svg2" width="62" height="28" version="1.1" xmlns="http://www.w3.org/2000/svg"><defs id="defs4"><linearGradient id="linearGradient6467" x1="13" x2="13" y1="1027.4" y2="1049.4" gradientTransform="matrix(2.6957 0 0 1 1.1522 -1024.4)" gradientUnits="userSpaceOnUse"><stop id="stop3803-7" stop-color="#242424" offset="0"/><stop id="stop3805-5" stop-color="#101010" offset="1"/></linearGradient></defs><path id="rect3029-6-6" d="m59.812 3.1875c0.11225 0.24927 0.1875 0.52278 0.1875 0.8125v20c0 1.0994-0.90065 2-2 2h-54c-0.28972 0-0.56323-0.075246-0.8125-0.1875 0.31167 0.69758 0.9965 1.1875 1.8125 1.1875h54c1.108 0 2-0.892 2-2v-20c0-0.816-0.48992-1.5008-1.1875-1.8125z" color="#000000" opacity=".9"/><path id="rect3029-6" d="m60.812 4.1875c0.11153 0.24962 0.1875 0.5205 0.1875 0.8125v20c0 1.108-0.892 2-2 2h-54c-0.292 0-0.56288-0.075973-0.8125-0.1875 0.31167 0.69758 0.9965 1.1875 1.8125 1.1875h54c1.108 0 2-0.892 2-2v-20c0-0.816-0.48992-1.5008-1.1875-1.8125z" color="#000000" fill="#060606" opacity=".62085"/><path id="rect3029" d="m4.5 2.5h53c1.108 0 2 0.892 2 2v19c0 1.108-0.892 2-2 2h-53c-1.108 0-2-0.892-2-2v-19c0-1.108 0.892-2 2-2z" color="#000000" fill="url(#linearGradient6467)"/><path id="rect3029-96-0" d="m4 2c-1.0994 0-2 0.90065-2 2v20c0 1.0994 0.90065 2 2 2h54c1.0994 0 2-0.90065 2-2v-20c0-1.0994-0.90065-2-2-2zm0.3 1h53.4c0.56265 0 1.3 0.73735 1.3 1.3v19.4c0 0.56265-0.73735 1.3-1.3 1.3h-53.4c-0.56265 0-1.3-0.73735-1.3-1.3v-19.4c0-0.56265 0.73735-1.3 1.3-1.3z" color="#000000" fill="#585858" style="text-decoration-line:none;text-indent:0;text-transform:none"/></svg>
