<?xml version="1.0" encoding="UTF-8" standalone="no"?>
<svg
   xmlns:dc="http://purl.org/dc/elements/1.1/"
   xmlns:cc="http://creativecommons.org/ns#"
   xmlns:rdf="http://www.w3.org/1999/02/22-rdf-syntax-ns#"
   xmlns:svg="http://www.w3.org/2000/svg"
   xmlns="http://www.w3.org/2000/svg"
   version="1.1"
   height="26"
   width="52"
   id="svg2">
  <metadata
     id="metadata29">
    <rdf:RDF>
      <cc:Work
         rdf:about="">
        <dc:format>image/svg+xml</dc:format>
        <dc:type
           rdf:resource="http://purl.org/dc/dcmitype/StillImage" />
        <dc:title></dc:title>
      </cc:Work>
    </rdf:RDF>
  </metadata>
  <defs
     id="defs4">
    <linearGradient
       gradientUnits="userSpaceOnUse"
       gradientTransform="matrix(2.1304,0,0,1,-0.56522,-1026.4)"
       y2="1049.4"
       y1="1027.4"
       x2="13"
       x1="13"
       id="linearGradient3807-3">
      <stop
         offset="0"
         stop-color="#242424"
         id="stop3803-7" />
      <stop
         offset="1"
         stop-color="#101010"
         id="stop3805-5" />
    </linearGradient>
  </defs>
  <rect
     id="rect3029-6-6"
     x="0.5"
     y="1"
     width="50"
     height="24"
     rx="2"
     ry="2"
     style="color:#000000;opacity:0.9" />
  <rect
     id="rect3029"
     x="0.5"
     y="0.49998"
     width="49"
     height="23"
     rx="2"
     ry="2"
     style="color:#000000;fill:url(#linearGradient3807-3)" />
  <g
     id="layer22">
    <g
       id="g5548-9-8"
       style="fill:#bfbfbf">
      <path
         id="path5532-3-9"
         d="m 17,9 h -7 v 4 h 5 v 1 h -5 v 1 h 7 v -3 h -5 v -2 h 5 V 9" />
      <path
         id="path5536-7-2"
         d="m 18,9 v 1 h 1 v 1 h 1 v 4 h 2 v -4 h 1 v -1 h 1 V 9 h -2 v 1 H 20 V 9 h -2" />
      <path
         id="path5540-4-6"
         d="m 26,9 v 6 h 2 v -5 h 3 v 5 h 2 V 9 h -7" />
      <path
         id="path5544-5-6"
         d="m 34,9 v 6 h 7 v -1 h -5 v -4 h 5 V 9 h -7" />
    </g>
    <g
       id="g5586-2-4"
       style="fill:#060606">
      <path
         id="path5554-5-9"
         d="m 18,10 h -6 v 2 h 1 v -1 h 5 v -1" />
      <path
         id="path5558-4-5"
         d="m 17,13 h 1 v 3 h -7 v -1 h 6 v -2" />
      <path
         id="path5562-7-0"
         d="m 15,13 v 1 h -4 v -1 h 4" />
      <path
         id="path5566-4-4"
         d="m 23,10 v 1 h -1 v 4 h -1 v 1 h 2 v -4 h 1 v -1 h 1 v -1 h -2" />
      <path
         id="path5570-4-8"
         d="m 27,15 v 1 h 2 v -5 h 2 v -1 h -3 v 5 h -1" />
      <path
         id="path5574-3-7"
         d="m 33,10 h 1 v 6 h -2 v -1 h 1 v -5" />
      <path
         id="path5578-0-1"
         d="m 42,10 h -6 v 4 h 1 v -3 h 5 v -1" />
      <path
         id="path5582-7-7"
         d="m 42,15 v 1 h -7 v -1 h 7" />
    </g>
  </g>
  <path
     id="rect3029-96-0"
     d="M 2,0 C 0.9006,0 0,0.90065 0,2 v 20 c 0,1.0994 0.90065,2 2,2 h 46 c 1.0994,0 2,-0.90065 2,-2 V 2 C 50,0.9006 49.09935,0 48,0 Z M 2.3,1 H 47.7 C 48.26265,1 49,1.73735 49,2.3 V 21.7 C 49,22.26265 48.26265,23 47.7,23 H 2.3 C 1.73735,23 1,22.26265 1,21.7 V 2.3 C 1,1.73735 1.73735,1 2.3,1 Z"
     style="color:#000000;text-indent:0;text-transform:none;fill:#444444" />
</svg>
