<svg width="71" height="23" version="1.1" xmlns="http://www.w3.org/2000/svg"><defs><linearGradient id="a" x1="13" x2="13" y1="1027.4" y2="1049.4" gradientTransform="matrix(3 0 0 .91304 -1 -937.1)" gradientUnits="userSpaceOnUse"><stop stop-color="#242424" offset="0"/><stop stop-color="#101010" offset="1"/></linearGradient></defs><rect x=".5" y=".5" width="69" height="21" rx="2" ry="2" color="#000000" fill="url(#a)"/><path d="m69.561 1.1878c.11225.24927.1875.52278.1875.8125l.000263 18c1.6e-5 1.0994-.90065 2-2 2l-65.75-.00025c-.28972-1e-6-.56323-.07525-.8125-.1875.31167.69758.9965 1.1875 1.8125 1.1875l65.75.00025c1.108 4e-6 1.7511-.89212 1.7511-2.0001l-.000263-18c-1.2e-5-.816-.24106-1.5007-.93864-1.8124z" color="#000000" fill-opacity=".8"/><g fill="#bfbfbf"><path d="m30 8h-7v6h7v-1h-5v-4h5v-1"/><path d="m15 8v6h7v-6h-2v5h-3v-5h-2"/><path d="m7 8v6h7v-5h-1v-1zm2 1h3v1h1v3h-4z"/><path d="m31 8v6h2v-3h1v1h1v1h1v1h2v-1h-1v-1h-1v-1h-1v-2h2v-1h-2v1h-1v1h-1v-2z"/><path d="m41 8v6h7v-6m-1 5h-4v-4h4z"/><path d="m49 8v6h2v-3h4v-1h-4v-1h5v-1h-7"/><path d="m57 8v6h2v-3h4v-1h-4v-1h5v-1h-7"/></g><path d="m2.0002 0c-1.0994 0-2 .90065-2 2l-1.675e-5 18c-1.023e-6 1.0994.90065 2 2 2h66c1.0994 0 2-.90065 2-2l1.7e-5-18c1e-6-1.0994-.90065-2-2-2zm.3 1h65.4c.56265 0 1.3.73735 1.3 1.3l-1.7e-5 17.4c-1e-6.56265-.73735 1.3-1.3 1.3h-65.4c-.56265 0-1.3-.73735-1.3-1.3l1.68e-5-17.4c5e-7-.56265.73735-1.3 1.3-1.3z" color="#000000" fill="#444" style="text-decoration-line:none;text-indent:0;text-transform:none"/></svg>
