<?xml version="1.0" encoding="UTF-8" standalone="no"?>
<svg
   xmlns:dc="http://purl.org/dc/elements/1.1/"
   xmlns:cc="http://creativecommons.org/ns#"
   xmlns:rdf="http://www.w3.org/1999/02/22-rdf-syntax-ns#"
   xmlns:svg="http://www.w3.org/2000/svg"
   xmlns="http://www.w3.org/2000/svg"
   xmlns:sodipodi="http://sodipodi.sourceforge.net/DTD/sodipodi-0.dtd"
   xmlns:inkscape="http://www.inkscape.org/namespaces/inkscape"
   id="svg14046"
   width="26"
   height="26"
   version="1.1"
   sodipodi:docname="btn_autodj_repeat_playlist_off.svg"
   inkscape:version="0.92.4 (unknown)">
  <metadata
     id="metadata10">
    <rdf:RDF>
      <cc:Work
         rdf:about="">
        <dc:format>image/svg+xml</dc:format>
        <dc:type
           rdf:resource="http://purl.org/dc/dcmitype/StillImage" />
        <dc:title></dc:title>
      </cc:Work>
    </rdf:RDF>
  </metadata>
  <defs
     id="defs8" />
  <sodipodi:namedview
     pagecolor="#ffffff"
     bordercolor="#666666"
     borderopacity="1"
     objecttolerance="10"
     gridtolerance="10"
     guidetolerance="10"
     inkscape:pageopacity="0"
     inkscape:pageshadow="2"
     inkscape:window-width="3840"
     inkscape:window-height="1990"
     id="namedview6"
     showgrid="false"
     inkscape:zoom="9.0769231"
     inkscape:cx="-20.491525"
     inkscape:cy="13"
     inkscape:window-x="0"
     inkscape:window-y="0"
     inkscape:window-maximized="1"
     inkscape:current-layer="svg14046" />
  <g
     id="layer1"
     transform="translate(0.9999,1.00005)"
     style="fill:#8d8f90">
    <path
       id="path14050"
       d="M 4.0002,8.1879 5.5001,9.344 5.49985,15.9999 C 5.499829,16.57119 6.42867,17.5 6.99995,17.5 l 7,-6.2e-5 v -3 l 7,3.75 -7,3.75 v -3 l -7,6.3e-5 c -1.6447,1.4e-5 -3,-1.3553 -3,-3 z"
       inkscape:connector-curvature="0"
       style="color:#000000" />
    <path
       id="path14050-3"
       d="M 20,15.812 18.5001,14.6559 18.50035,8 c 2.5e-5,-0.66867 -0.78276,-1.5001 -1.5001,-1.5001 l -7,6.2e-5 v 3 l -7,-3.75 7,-3.75 v 3 l 7,-6.25e-5 c 1.6447,-1.47e-5 3,1.3553 3,3 z"
       inkscape:connector-curvature="0"
       style="color:#000000" />
  </g>
</svg>
