<?xml version="1.0" encoding="UTF-8" standalone="no"?>
<!-- Created with Inkscape (http://www.inkscape.org/) -->

<svg
   xmlns:dc="http://purl.org/dc/elements/1.1/"
   xmlns:cc="http://creativecommons.org/ns#"
   xmlns:rdf="http://www.w3.org/1999/02/22-rdf-syntax-ns#"
   xmlns:svg="http://www.w3.org/2000/svg"
   xmlns="http://www.w3.org/2000/svg"
   version="1.1"
   width="25"
   height="18"
   viewBox="0 0 25 18"
   id="svg2">
  <metadata
     id="metadata10">
    <rdf:RDF>
      <cc:Work
         rdf:about="">
        <dc:format>image/svg+xml</dc:format>
        <dc:type
           rdf:resource="http://purl.org/dc/dcmitype/StillImage" />
        <dc:title></dc:title>
      </cc:Work>
    </rdf:RDF>
  </metadata>
  <defs
     id="defs8" />
  <path
     d="m 9.156,4.0005001 c -2.7614231,1.841e-4 -5,2.238576 -5,5 0,0.483249 0.090832,0.9329704 0.21875,1.3749999 L 7.0309999,8.8442501 C 7.111009,7.8130002 7.9792224,7.000569 9.031,7.0005001 l 7.62525,-5e-4 0,-3 z"
     id="path4448"
     style="fill:#55f864;fill-opacity:1" />
  <path
     d="M 6.0286389,4.8263825 0.80094004,1.8081688 6.0286392,-1.2100444 z"
     transform="matrix(1.2510352,0,0,1.2510352,2.4579958,10.513808)"
     id="path4794"
     style="color:#000000;fill:#55f864;fill-opacity:1;fill-rule:nonzero;stroke:none;stroke-width:2.25;marker:none;visibility:visible;display:inline;overflow:visible;enable-background:accumulate" />
  <path
     d="m 16,14.0005 c 2.761423,1.84e-4 5,-2.238576 5,-4.9999998 C 21,8.5172511 20.90917,8.0675297 20.78125,7.6255001 L 18.125,9.1567502 C 18.04499,10.188 17.176777,11.000569 16.125,11.0005 L 8.5,11 l 0,3 z"
     id="path4448-5"
     style="fill:#55f864;fill-opacity:1" />
  <path
     d="M 6.0286389,4.8263825 0.80094004,1.8081688 6.0286392,-1.2100444 z"
     transform="matrix(-1.2510352,0,0,-1.2510352,22.54204,7.4861919)"
     id="path4794-6"
     style="color:#000000;fill:#55f864;fill-opacity:1;fill-rule:nonzero;stroke:none;stroke-width:2.25;marker:none;visibility:visible;display:inline;overflow:visible;enable-background:accumulate" />
</svg>
