<svg width="22" height="22" version="1.1" xmlns="http://www.w3.org/2000/svg"><g transform="translate(.5 -1.000175)" fill="#060606"><path d="m6 6.0001c-1.6447-.0001028-3 1.3553-3 3v7.0002c0 1.6447 1.3553 3 3 3l1.0002-.000125v3l6.9998-3.75-6.9999-3.7501v3l-1.0002.000124c-.74686 9.3e-5-1.4999-.76713-1.4999-1.4999v-7.0002c0-.71175.76705-1.4999 1.5-1.4999l2 .000124v-1.5001z" color="#000000"/><path d="m10 3h2v8h-2z" color="#000000"/><path d="m16 6.0001c1.6447-.0001028 3 1.3553 3 3v7.0002c0 1.6447-1.3553 3-3 3l-1.0002-6.3e-5 5e-4-1.5001 1.0002 6.2e-5c.78903 4.9e-5 1.4995-.78813 1.4995-1.4999v-7.0002c0-.72579-.75327-1.4999-1.5001-1.4999l-1.9998.000125.000125-1.5001z" color="#000000"/></g><g transform="translate(0,-1.999925)" fill="#bfbfbf"><path d="m6 6.0001c-1.6447-.0001028-3 1.3553-3 3v7.0002c0 1.6447 1.3553 3 3 3l1.0002-.000125v3l6.9998-3.75-6.9999-3.7501v3l-1.0002.000124c-.74686 9.3e-5-1.4999-.76713-1.4999-1.4999v-7.0002c0-.71175.76705-1.4999 1.5-1.4999l2 .000124v-1.5001z" color="#000000"/><path d="m10 3h2v8h-2z" color="#000000"/><path d="m16 6.0001c1.6447-.0001028 3 1.3553 3 3v7.0002c0 1.6447-1.3553 3-3 3l-1.0002-6.3e-5 5e-4-1.5001 1.0002 6.2e-5c.78903 4.9e-5 1.4995-.78813 1.4995-1.4999v-7.0002c0-.72579-.75327-1.4999-1.5001-1.4999l-1.9998.000125.000125-1.5001z" color="#000000"/></g></svg>
