<?xml version="1.0" encoding="UTF-8" standalone="no"?>
<svg
   xmlns:dc="http://purl.org/dc/elements/1.1/"
   xmlns:cc="http://creativecommons.org/ns#"
   xmlns:rdf="http://www.w3.org/1999/02/22-rdf-syntax-ns#"
   xmlns:svg="http://www.w3.org/2000/svg"
   xmlns="http://www.w3.org/2000/svg"
   xmlns:sodipodi="http://sodipodi.sourceforge.net/DTD/sodipodi-0.dtd"
   xmlns:inkscape="http://www.inkscape.org/namespaces/inkscape"
   id="svg24"
   width="20"
   height="40"
   version="1.1"
   sodipodi:docname="btn_samplerExpand.svg"
   inkscape:version="0.92.3 (2405546, 2018-03-11)">
  <metadata
     id="metadata32">
    <rdf:RDF>
      <cc:Work
         rdf:about="">
        <dc:format>image/svg+xml</dc:format>
        <dc:type
           rdf:resource="http://purl.org/dc/dcmitype/StillImage" />
      </cc:Work>
    </rdf:RDF>
  </metadata>
  <sodipodi:namedview
     pagecolor="#ffffff"
     bordercolor="#666666"
     borderopacity="1"
     objecttolerance="10"
     gridtolerance="10"
     guidetolerance="10"
     inkscape:pageopacity="0"
     inkscape:pageshadow="2"
     inkscape:window-width="959"
     inkscape:window-height="1024"
     id="namedview30"
     showgrid="false"
     inkscape:zoom="11.8"
     inkscape:cx="9.3964464"
     inkscape:cy="17.441803"
     inkscape:window-x="961"
     inkscape:window-y="0"
     inkscape:window-maximized="0"
     inkscape:current-layer="svg24" />
  <defs
     id="defs12">
    <linearGradient
       id="b"
       x1="13"
       x2="13"
       y1="1027.4"
       y2="1049.4"
       gradientTransform="matrix(1.4783 0 0 .82609 -.2391 -827.81)"
       gradientUnits="userSpaceOnUse">
      <stop
         id="stop2"
         stop-color="#242424"
         offset="0" />
      <stop
         id="stop4"
         stop-color="#101010"
         offset="1" />
    </linearGradient>
    <linearGradient
       id="a"
       x1="20"
       x2="20"
       y1="1042.4"
       y2="1035.4"
       gradientTransform="translate(-2,-1010.4)"
       gradientUnits="userSpaceOnUse">
      <stop
         id="stop7"
         stop-color="#c8c8c8"
         offset="0" />
      <stop
         id="stop9"
         stop-color="#646464"
         offset="1" />
    </linearGradient>
  </defs>
  <path
     id="path14"
     d="m2.5.50002 15-2.5e-5c1.108-1.85e-6 2 .892 2 2v35c0 1.108-.892 2-2 2l-15 2.5e-5c-1.108 2e-6-2-.892-2-2v-35c0-1.108.892-2 2-2z"
     color="#000000"
     fill="url(#b)" />
  <path
     id="path16"
     d="m2.5.5c-1.0994 0-2 .9006-2 2v1.5h19v-1.5c0-1.0994-.90065-2-2-2z"
     color="#000000"
     fill="#666"
     style="text-decoration-line:none;text-indent:0;text-transform:none" />
  <path
     id="path18"
     d="m2 0c-1.0994 0-2 .9006-2 2v36c0 1.0994.90065 2 2 2h16c1.0994 0 2-.9006 2-2v-36c0-1.0994-.90065-2-2-2zm.3 1h15.4c.56265 0 1.3.7374 1.3 1.3v35.4c0 .5626-.73735 1.3-1.3 1.3h-15.4c-.56265 0-1.3-.7374-1.3-1.3v-35.4c0-.5626.73735-1.3 1.3-1.3z"
     color="#000000"
     fill="url(#a)"
     style="text-decoration-line:none;text-indent:0;text-transform:none" />
  <text
     xml:space="preserve"
     style="font-style:normal;font-weight:normal;font-size:48.38502884px;line-height:1.25;font-family:sans-serif;letter-spacing:0px;word-spacing:0px;fill:#818181;fill-opacity:1;stroke:none;stroke-width:1.20962572"
     x="-44.619175"
     y="13.264388"
     id="text1512"
     transform="matrix(0,-0.82670201,1.2096257,0,0,0)"><tspan
       sodipodi:role="line"
       id="tspan1510"
       x="-44.619175"
       y="13.264388"
       style="font-size:16.12834167px;fill:#818181;fill-opacity:1;stroke-width:1.20962572">&lt;--&gt;</tspan></text>
</svg>
