<svg width="38" height="38" version="1.1" xmlns="http://www.w3.org/2000/svg" xmlns:xlink="http://www.w3.org/1999/xlink"><defs><linearGradient id="a" x1="1" x2="35" y1="18.5" y2="18.5" gradientTransform="matrix(1.0059 0 0 .98861 -.10588 -.18862)" gradientUnits="userSpaceOnUse"><stop stop-color="#222" offset="0"/><stop stop-color="#131516" offset="1"/></linearGradient></defs><path d="m33.792.8c1.1145 0 1.3076.18981 1.3076 1.2852v31.339c0 1.0954-.89725 1.9772-2.0118 1.9772h-30.176c-1.1145 0-2.0118-.88184-2.0118-1.9772v-32.624z" color="#000000" fill="url(#a)"/><path d="m19 12h4v12h-4v-12" fill="#8d8f90"/><path d="m25 12v12h4v-12h-4" fill="#8d8f90"/><path d="m23 13v11h-3v1h4v-12z" fill="#060606"/><path d="m29 13v11h-3v1h4v-12z" fill="#060606"/><path d="m2 0c-1.0994 0-2 .90065-2 2v32c0 1.0994.90065 2 2 2h32c1.0994 0 2-.90065 2-2v-32c0-1.0994-.90065-2-2-2zm.3 1h31.4c.56265 0 1.3.73735 1.3 1.3v31.4c0 .56265-.73735 1.3-1.3 1.3h-31.4c-.56265 0-1.3-.73735-1.3-1.3v-31.4c0-.56265.73735-1.3 1.3-1.3z" color="#000000" fill="#454748" style="text-indent:0;text-transform:none"/><path d="m15.75 18.156-7.75 5.1875v1.6562l9-6-1.25-.84375z" fill="#080808"/><path d="m7 12 8.9995 6-8.9995 6v-12" fill="#8d8f90"/></svg>
