<?xml version="1.0" encoding="UTF-8"?>
<!-- Created with Inkscape (http://www.inkscape.org/) -->
<svg id="svg4724" width="39" height="22" version="1.1" xmlns="http://www.w3.org/2000/svg" xmlns:cc="http://creativecommons.org/ns#" xmlns:dc="http://purl.org/dc/elements/1.1/" xmlns:rdf="http://www.w3.org/1999/02/22-rdf-syntax-ns#" xmlns:xlink="http://www.w3.org/1999/xlink">
 <defs id="defs4726">
  <linearGradient id="linearGradient5254" x1="13" x2="13" y1="1027.4" y2="1049.4" gradientTransform="matrix(1.4783 0 0 .82609 1.7609 182.59)" gradientUnits="userSpaceOnUse">
   <stop id="stop3803-7" stop-color="#242424" offset="0"/>
   <stop id="stop3805-5" stop-color="#101010" offset="1"/>
  </linearGradient>
  <linearGradient id="linearGradient5772" x1="20" x2="20" y1="1042.4" y2="1035.4" gradientTransform="matrix(1 0 0 -1 0 2080.7)" gradientUnits="userSpaceOnUse">
   <stop id="stop5768" stop-color="#c8c8c8" offset="0"/>
   <stop id="stop5770" stop-color="#646464" offset="1"/>
  </linearGradient>
 </defs>
 <metadata id="metadata4729">
  <rdf:RDF>
   <cc:Work rdf:about="">
    <dc:format>image/svg+xml</dc:format>
    <dc:type rdf:resource="http://purl.org/dc/dcmitype/StillImage"/>
    <dc:title/>
   </cc:Work>
  </rdf:RDF>
 </metadata>
 <g id="layer1" transform="translate(0 -1030.4)">
  <rect id="rect3029-6" x="4" y="1032.4" width="35" height="20" rx="2" ry="2" color="#000000" fill="#060606" opacity=".62085"/>
  <rect id="rect3029-6-6" x="3" y="1031.4" width="35" height="20" rx="2" ry="2" color="#000000" opacity=".72"/>
  <rect id="rect3029" x="2.5" y="1030.9" width="34" height="19" rx="2" ry="2" color="#000000" fill="url(#linearGradient5254)"/>
  <g id="layer14" transform="translate(42 1026.4)" display="none">
   <path id="path5770-89-8-1" d="m10 10h7v4h-5v1h5v1h-7v-3h5v-2h-5v-1" display="inline" fill="#060606"/>
   <path id="path5770-8-5-6-8" d="m9 9h7v4h-5v1h5v1h-7v-3h5v-2h-5v-1" display="inline" fill="#bfbfbf"/>
  </g>
  <g id="layer18" transform="translate(42 1026.4)" display="none">
   <path id="path6542-5-0" d="m10 10h7v6h-7v-1h5v-1h-2v-1h2v-2h-5v-1" display="inline" fill="#060606"/>
   <path id="path6542-3" d="m9 9h7v6h-7v-1h5v-1h-2v-1h2v-2h-5v-1" display="inline" fill="#bfbfbf"/>
  </g>
  <g id="layer22" transform="translate(42 1026.4)" display="none">
   <path id="path6751-9" d="m10 11v3h5v2h2v-6h-2v3h-3v-2h-2" display="inline" fill="#060606"/>
   <path id="path6751" d="m9 10v3h5v2h2v-6h-2v3h-3v-2h-2" fill="#bfbfbf"/>
  </g>
  <path id="rect3029-96-0-7" d="m4.5 1030.9c-1.0994 0-2 0.9006-2 2v1.5h34v-1.5c0-1.0994-0.90065-2-2-2z" color="#000000" fill="#c8c8c8" style="text-decoration-line:none;text-indent:0;text-transform:none"/>
  <path id="rect3029-96-0" d="m4 1050.4c-1.0994 0-2-0.9006-2-2v-16c0-1.0994 0.90065-2 2-2h31c1.0994 0 2 0.9006 2 2v16c0 1.0994-0.90065 2-2 2zm0.3-1h30.4c0.56265 0 1.3-0.7374 1.3-1.3v-15.4c0-0.5626-0.73735-1.3-1.3-1.3h-30.4c-0.56265 0-1.3 0.7374-1.3 1.3v15.4c0 0.5626 0.73735 1.3 1.3 1.3z" color="#000000" fill="url(#linearGradient5772)" style="text-decoration-line:none;text-indent:0;text-transform:none"/>
 </g>
</svg>
