<svg width="52" height="26" version="1.1" xmlns="http://www.w3.org/2000/svg" xmlns:xlink="http://www.w3.org/1999/xlink"><defs><linearGradient id="a" x1="11" x2="11" y1="1027.4" y2="1049.4" gradientTransform="matrix(2.1304 0 0 1 -.56521 -1026.4)" gradientUnits="userSpaceOnUse"><stop stop-color="#ce0e0e" offset="0"/><stop stop-color="#d00" offset=".28"/><stop stop-color="#8d0000" offset="1"/></linearGradient></defs><rect x="1" y="1" width="50" height="24" rx="2" ry="2" color="#000000" opacity=".9"/><path d="m50.812 2.1875c.11153.24962.1875.5205.1875.8125v20c0 1.108-.892 2-2 2h-46c-.292 0-.56288-.075973-.8125-.1875.31167.69758.9965 1.1875 1.8125 1.1875h46c1.108 0 2-.892 2-2v-20c0-.816-.48992-1.5008-1.1875-1.8125z" color="#000000" fill="#060606" opacity=".62085"/><rect x=".5" y=".49998" width="49" height="23" rx="1.5" ry="1.5" color="#000000" fill="url(#a)"/><path d="m2 0c-1.0994 0-2 .90065-2 2v20c0 1.0994.90065 2 2 2h46c1.0994 0 2-.90065 2-2v-20c0-1.0994-.90065-2-2-2zm.3 1h45.4c.56265 0 1.3.73735 1.3 1.3v19.4c0 .56265-.73735 1.3-1.3 1.3h-45.4c-.56265 0-1.3-.73735-1.3-1.3v-19.4c0-.56265.73735-1.3 1.3-1.3z" color="#000000" fill="#aaa" style="block-progression:tb;text-indent:0;text-transform:none"/><g fill="#fff"><path d="m20 9h-7v6h7v-1h-5v-4h5v-1"/><path d="m22 9v6h7v-6h-2v5h-3v-5h-2"/><path d="m31 9v6h7v-1h-5v-2h4v-1h-4v-1h5v-1h-7"/></g><g fill="#3d0000"><path d="m21 10h-6v4h1v-3h5v-1"/><path d="m21 15v1h-7v-1h7"/><path d="m24 10h1v4h-1v-4"/><path d="m23 15v1h7v-6h-1v5h-6"/><path d="m39 10h-6v1h6v-1"/><path d="m38 12h-5v2h1v-1h4v-1"/><path d="m39 15v1h-7v-1h7"/></g></svg>
