<?xml version="1.0" encoding="UTF-8" standalone="no"?>
<svg
   xmlns:dc="http://purl.org/dc/elements/1.1/"
   xmlns:cc="http://creativecommons.org/ns#"
   xmlns:rdf="http://www.w3.org/1999/02/22-rdf-syntax-ns#"
   xmlns:svg="http://www.w3.org/2000/svg"
   xmlns="http://www.w3.org/2000/svg"
   version="1.1"
   height="20"
   width="20"
   id="svg25537">
  <metadata
     id="metadata14">
    <rdf:RDF>
      <cc:Work
         rdf:about="">
        <dc:format>image/svg+xml</dc:format>
        <dc:type
           rdf:resource="http://purl.org/dc/dcmitype/StillImage" />
        <dc:title></dc:title>
      </cc:Work>
    </rdf:RDF>
  </metadata>
  <defs
     id="defs25539">
    <linearGradient
       gradientUnits="userSpaceOnUse"
       gradientTransform="matrix(0.86956522,0,0,0.86956522,-0.43478261,-912.95652)"
       y2="1049.4"
       y1="1027.4"
       x2="11"
       x1="11"
       id="linearGradient4165">
      <stop
         offset="0"
         stop-color="#ce0e0e"
         id="stop3803-7-1-95-8" />
      <stop
         offset=".28"
         stop-color="#d00"
         id="stop4329-2-5" />
      <stop
         offset="1"
         stop-color="#8d0000"
         id="stop3805-5-28-1-9" />
    </linearGradient>
  </defs>
  <rect
     style="color:#000000;fill:url(#linearGradient4165);stroke-width:0.86956519"
     height="20"
     width="20"
     y="-20"
     x="0"
     transform="scale(1,-1)"
     id="rect3029-96-3" />
  <path
     style="color:#000000;text-indent:0;text-transform:none;fill:#320202;stroke-width:0.9130435"
     d="M 10.913043,4.5217391 C 7.5119565,4.5217391 4.75,7.2836957 4.75,10.684783 c 0,0.03637 -8.584e-4,0.07 0,0.11413 v 0.199728 c -0.6922239,0.586192 -1.1413043,1.447174 -1.1413043,2.425226 0,1.764913 1.4307391,3.195653 3.1956521,3.195653 v -6.391305 c -0.2206095,0 -0.4482221,0.0145 -0.65625,0.05706 0.1969161,-2.4680474 2.2455392,-4.3940213 4.7649912,-4.3940213 2.513609,0 4.559648,1.9341 4.764991,4.3940213 -0.208027,-0.04257 -0.435631,-0.05706 -0.65625,-0.05706 v 6.391305 c 1.764913,0 3.195653,-1.43074 3.195653,-3.195653 0,-0.992752 -0.459608,-1.86763 -1.169792,-2.453804 0.0056,-0.09641 0.02853,-0.185412 0.02853,-0.285326 0,-3.401087 -2.761957,-6.1630435 -6.163044,-6.1630435 z"
     id="path9863-1-2-3" />
  <path
     style="color:#000000;text-indent:0;text-transform:none;fill:#eeeeee;stroke-width:0.9130435"
     d="m 10,3.6086957 c -3.401087,0 -6.1630435,2.7619565 -6.1630435,6.1630434 0,0.036367 -8.583e-4,0.070003 0,0.1141305 v 0.1997284 c -0.6922239,0.586192 -1.1413043,1.447174 -1.1413043,2.425226 0,1.764913 1.4307391,3.195652 3.1956521,3.195652 V 9.3151717 c -0.2206095,0 -0.4482221,0.014499 -0.65625,0.057065 0.1969161,-2.4680479 2.2455392,-4.3940218 4.7649917,-4.3940218 2.513608,0 4.559647,1.9341 4.764991,4.3940218 -0.208028,-0.042566 -0.435631,-0.057065 -0.65625,-0.057065 v 6.3913043 c 1.764913,0 3.195652,-1.430739 3.195652,-3.195652 0,-0.992752 -0.459608,-1.867631 -1.169791,-2.453804 0.0056,-0.096409 0.02853,-0.1854122 0.02853,-0.2853265 0,-3.401087 -2.761956,-6.1630435 -6.163043,-6.1630435 z"
     id="path9863-1-2" />
</svg>
