<svg width="72" height="29" version="1.1" xmlns="http://www.w3.org/2000/svg"><defs><linearGradient id="a" x1="13" x2="13" y1="1027.4" y2="1049.4" gradientTransform="matrix(2.6957 0 0 1 -.8478 -1024.4)" gradientUnits="userSpaceOnUse"><stop stop-color="#b69700" offset="0"/><stop stop-color="#eece33" offset="1"/></linearGradient></defs><path d="m2.5 2.5h65c1.108 0 2 .892 2 2v20c0 1.108-.892 2-2 2h-65c-1.108 0-2-.892-2-2v-20c0-1.108.892-2 2-2z" color="#000000" fill="url(#a)"/><path d="m2 2c-1.0994 0-2 .90065-2 2v21c0 1.0994.90065 2 2 2h66c1.0994 0 2-.90065 2-2v-21c0-1.0994-.90065-2-2-2zm.3 1h65.4c.56265 0 1.3.73735 1.3 1.3v20.4c0 .56265-.73735 1.3-1.3 1.3h-65.4c-.56265 0-1.3-.73735-1.3-1.3v-20.4c0-.56265.73735-1.3 1.3-1.3z" color="#000000" fill="#979797" style="text-decoration-line:none;text-indent:0;text-transform:none"/></svg>
