<svg id="svg2" width="52" height="26" version="1.1" xmlns="http://www.w3.org/2000/svg"><defs id="defs4"><linearGradient id="linearGradient3878" x1="15" x2="15" y1="1049.4" y2="1027.4" gradientTransform="matrix(2.1304 0 0 1 -.56522 -1026.4)" gradientUnits="userSpaceOnUse"><stop id="stop3803-7-6" stop-color="#222" offset="0"/><stop id="stop3805-5-2" stop-color="#131516" offset="1"/></linearGradient></defs><g id="layer3"><rect id="rect3029-9" x=".5" y=".49998" width="49" height="23" rx="2" ry="2" color="#000000" fill="url(#linearGradient3878)"/><g id="layer19"><path id="path3936-0-9-4" d="m30 6.7188c-0.27402 0.15082-0.62867 0.36449-1 0.625v10.656l1 0.71875z" fill="#080808"/><path id="path3936-0-9" d="m29 6-8.9995 6 8.9995 6v-12" fill="#8d8f90"/></g><path id="rect3029-96-0-9" d="m2 0c-1.0994 0-2 0.90065-2 2v20c0 1.0994 0.90065 2 2 2h46c1.0994 0 2-0.90065 2-2v-20c0-1.0994-0.90065-2-2-2zm0.3 1h45.4c0.56265 0 1.3 0.73735 1.3 1.3v19.4c0 0.56265-0.73735 1.3-1.3 1.3h-45.4c-0.56265 0-1.3-0.73735-1.3-1.3v-19.4c0-0.56265 0.73735-1.3 1.3-1.3z" color="#000000" fill="#454748" style="block-progression:tb;text-indent:0;text-transform:none"/></g></svg>
