<?xml version="1.0" encoding="UTF-8" standalone="no"?>
<!-- Created with Inkscape (http://www.inkscape.org/) -->

<svg
   xmlns:dc="http://purl.org/dc/elements/1.1/"
   xmlns:cc="http://creativecommons.org/ns#"
   xmlns:rdf="http://www.w3.org/1999/02/22-rdf-syntax-ns#"
   xmlns:svg="http://www.w3.org/2000/svg"
   xmlns="http://www.w3.org/2000/svg"
   version="1.1"
   width="30"
   height="22"
   id="svg14060">
  <metadata
     id="metadata14072">
    <rdf:RDF>
      <cc:Work
         rdf:about="">
        <dc:format>image/svg+xml</dc:format>
        <dc:type
           rdf:resource="http://purl.org/dc/dcmitype/StillImage" />
        <dc:title></dc:title>
      </cc:Work>
    </rdf:RDF>
  </metadata>
  <defs
     id="defs14070" />
  <g
     id="g14062"
     style="color:#000000;fill:#d2d2d2;fill-opacity:1">
    <path
       d="M 5.094,7.187875 6.50025,8.000375 7.094,8.344125 7.09375,15 c -2.15e-5,0.571293 0.428698,1 1,1 h 9.9375 V 13 L 21.5,15 24.96875,17 21.5,19 18.03125,21 v -3 h -9.9375 c -1.644706,0 -3,-1.355295 -3,-3 z"
       id="path14064"
       style="fill:#d2d2d2;fill-opacity:1;marker:none;overflow:visible" />
    <path
       d="m 11.96875,1 v 3 h 9.9375 c 1.644703,0 3,1.3552971 3,3 v 7.812125 L 23.5,13.999625 22.90625,13.655875 V 7 c 0,-0.5712971 -0.428703,-1 -1,-1 h -9.9375 V 9 L 8.5,7 5.03125,5 8.5,3 z"
       id="path14066"
       style="font-weight:400;text-indent:0;text-align:start;line-height:normal;text-transform:none;block-progression:tb;fill:#d2d2d2;fill-opacity:1;marker:none;overflow:visible;font-family:Sans;-inkscape-font-specification:Sans" />
  </g>
</svg>
