<svg id="svg25537" width="26" height="26" version="1.1" xmlns="http://www.w3.org/2000/svg"><defs id="defs25539"><linearGradient id="linearGradient5815" x1="15" x2="15" y1="1049.4" y2="1027.4" gradientTransform="translate(0 -1026.4)" gradientUnits="userSpaceOnUse"><stop id="stop3803-7-1-9-5" stop-color="#aa1112" offset="0"/><stop id="stop4329-4-9" stop-color="#b60607" offset=".28"/><stop id="stop3805-5-28-5-7" stop-color="#760607" offset="1"/></linearGradient></defs><rect id="rect3029-96-4" x=".5" y=".49998" width="23" height="23" rx="1.5" ry="1.5" color="#000000" fill="url(#linearGradient5815)"/><path id="path3944-9-6" d="m10 9h3v6h-2v-5h-1v-1" display="none" fill="#8d8f90"/><path id="path3948-7-8" d="m13 10h1v6h-2v-1h1v-5" display="none" fill="#320202"/><path id="path5770-89" d="m10 10h7v4h-5v1h5v1h-7v-3h5v-2h-5v-1" display="none" fill="#320202"/><path id="path5770-8-5" d="m9 9h7v4h-5v1h5v1h-7v-3h5v-2h-5v-1" display="none" fill="#8d8f90"/><path id="path6542-5-0-4-4" d="m10 10h7v6h-7v-1h5v-1h-2v-1h2v-2h-5v-1" display="none" fill="#320202"/><path id="path6542-3-5-9" d="m9 9h7v6h-7v-1h5v-1h-2v-1h2v-2h-5v-1" display="none" fill="#8d8f90"/><path id="path6751-9-1" d="m10 11v3h5v2h2v-6h-2v3h-3v-2h-2" display="none" fill="#320202"/><path id="path6751-6" d="m9 10v3h5v2h2v-6h-2v3h-3v-2h-2" display="none" fill="#8d8f90"/><path id="path9276-9" d="m-23-14.5h3v-3h3v3h3v3h-3v3h-3v-3h-3v-3" display="none" fill="#320202"/><path id="path9276" d="m-24-15.5h3v-3h3v3h3v3h-3v3h-3v-3h-3v-3" display="none" fill="#8d8f90"/><path id="path9788-2" d="m-11-14.5h9v3h-9v-3" display="none" fill="#320202"/><path id="path9788" d="m-12-15.5h9v3h-9v-3" display="none" fill="#8d8f90"/><path id="path9792-3-2" d="m13-14.5h-4v-4l-5 5.5 5 5.5v-4h4v-3" display="none" fill="#320202"/><path id="path9792-3" d="m12-15.5h-4v-4l-5 5.5 5 5.5v-4h4v-3" display="none" fill="#8d8f90"/><path id="path9792-0" d="m17-14.5h4v-4l5 5.5-5 5.5v-4h-4v-3" display="none" fill="#320202"/><path id="path9792" d="m16-15.5h4v-4l5 5.5-5 5.5v-4h-4v-3" display="none" fill="#8d8f90"/><path id="path9817-3" d="m41-18h5v13h-1v-7h-4v-6" display="none" fill="#320202"/><path id="path9817" d="m40-19h5v13h-1v-7h-4v-6" display="none" fill="#8d8f90"/><path id="path9817-6-7" d="m56-18h-5v13h1v-7h4v-6" display="none" fill="#320202"/><path id="path9817-6" d="m55-19h-5v13h1v-7h4v-6" display="none" fill="#8d8f90"/><path id="rect3029-96-9" d="m2 0c-1.0994 0-2 0.90065-2 2v20c0 1.0994 0.90065 2 2 2h20c1.0994 0 2-0.90065 2-2v-20c0-1.0994-0.90065-2-2-2zm0.3 1h19.4c0.56265 0 1.3 0.73735 1.3 1.3v19.4c0 0.56265-0.73735 1.3-1.3 1.3h-19.4c-0.56265 0-1.3-0.73735-1.3-1.3v-19.4c0-0.56265 0.73735-1.3 1.3-1.3z" color="#000000" fill="#979797" style="block-progression:tb;text-indent:0;text-transform:none"/><g id="g5888" transform="translate(-8.1292 -4.5381)"><path id="path9863-1-2-3" d="m21.129 10.538c-3.725 0-6.75 3.025-6.75 6.75 0 0.03983-9.4e-4 0.07667 0 0.125v0.21875c-0.75815 0.64202-1.25 1.585-1.25 2.6562 0 1.933 1.567 3.5 3.5 3.5v-7c-0.24162 0-0.49091 0.01588-0.71875 0.0625 0.21566-2.7031 2.4594-4.8125 5.2188-4.8125 2.753 0 4.9939 2.1182 5.2188 4.8125-0.22784-0.04662-0.47712-0.0625-0.71875-0.0625v7c1.933 0 3.5-1.567 3.5-3.5 0-1.0873-0.50338-2.0455-1.2812-2.6875 0.0061-0.10559 0.03125-0.20307 0.03125-0.3125 0-3.725-3.025-6.75-6.75-6.75z" color="#000000" fill="#320202" style="block-progression:tb;text-indent:0;text-transform:none"/><path id="path9863-1-2" d="m20.129 9.5381c-3.725 0-6.75 3.025-6.75 6.75 0 0.03983-9.4e-4 0.07667 0 0.125v0.21875c-0.75815 0.64202-1.25 1.585-1.25 2.6562 0 1.933 1.567 3.5 3.5 3.5v-7c-0.24162 0-0.49091 0.01588-0.71875 0.0625 0.21566-2.7031 2.4594-4.8125 5.2188-4.8125 2.753 0 4.9939 2.1182 5.2188 4.8125-0.22784-0.04662-0.47712-0.0625-0.71875-0.0625v7c1.933 0 3.5-1.567 3.5-3.5 0-1.0873-0.50338-2.0455-1.2812-2.6875 0.0061-0.10559 0.03125-0.20307 0.03125-0.3125 0-3.725-3.025-6.75-6.75-6.75z" color="#000000" fill="#8d8f90" style="block-progression:tb;text-indent:0;text-transform:none"/></g></svg>
