<?xml version="1.0" encoding="UTF-8" standalone="no"?>
<svg
   xmlns:dc="http://purl.org/dc/elements/1.1/"
   xmlns:cc="http://creativecommons.org/ns#"
   xmlns:rdf="http://www.w3.org/1999/02/22-rdf-syntax-ns#"
   xmlns:svg="http://www.w3.org/2000/svg"
   xmlns="http://www.w3.org/2000/svg"
   version="1.1"
   height="26"
   width="26"
   id="svg2">
  <metadata
     id="metadata15">
    <rdf:RDF>
      <cc:Work
         rdf:about="">
        <dc:format>image/svg+xml</dc:format>
        <dc:type
           rdf:resource="http://purl.org/dc/dcmitype/StillImage" />
        <dc:title></dc:title>
      </cc:Work>
    </rdf:RDF>
  </metadata>
  <defs
     id="defs4">
    <linearGradient
       gradientUnits="userSpaceOnUse"
       gradientTransform="translate(0 -1026.4)"
       y2="1049.4"
       y1="1027.4"
       x2="13"
       x1="13"
       id="linearGradient5688">
      <stop
         offset="0"
         stop-color="#242424"
         id="stop3803-7" />
      <stop
         offset="1"
         stop-color="#101010"
         id="stop3805-5" />
    </linearGradient>
  </defs>
  <rect
     style="color:#000000;opacity:0.72000002"
     ry="2"
     rx="2"
     height="24"
     width="24"
     y="0.99997997"
     x="0.5"
     id="rect3029-6-6" />
  <rect
     fill="url(#linearGradient5688)"
     color="#000000"
     ry="2"
     rx="2"
     height="23"
     width="23"
     y=".49998"
     x=".5"
     id="rect3029" />
  <path
     style="block-progression:tb;text-indent:0;text-transform:none"
     fill="#444444"
     color="#000000"
     d="m2.6562 3.75e-4c-1.4658 1.4707e-5 -2.6562 1.1904-2.6562 2.6562v18.687c0 1.4658 1.1904 2.6563 2.6562 2.6562l18.687-1.88e-4c1.4658-1.4e-5 2.6562-1.1904 2.6562-2.6562v-18.687c0-1.4658-1.1904-2.6563-2.6562-2.6562zm0.125 1 18.437-1.875e-4c0.76725-7.8e-6 1.7812 1.014 1.7812 1.7812v18.437c0 0.76725-1.014 1.7812-1.7812 1.7812l-18.437 1.88e-4c-0.76725 8e-6 -1.7812-1.014-1.7812-1.7812v-18.437c0-0.76725 1.014-1.7812 1.7812-1.7812z"
     id="path5055" />
  <path
     fill="#060606"
     d="m17.75 12.156-7.75 5.1875v1.6562l9-6-1.25-0.84375z"
     id="path3936-0-8-9-3-3" />
  <path
     fill="#bfbfbf"
     d="M 9,6 17.9995,12 9,18 9,6"
     id="path3936-0-8-9-7-6" />
</svg>
