<svg id="svg2" width="26" height="26" version="1.1" xmlns="http://www.w3.org/2000/svg"><defs id="defs4"><linearGradient id="linearGradient5688" x1="13" x2="13" y1="1027.4" y2="1049.4" gradientTransform="translate(0 -1026.4)" gradientUnits="userSpaceOnUse"><stop id="stop3803-7" stop-color="#242424" offset="0"/><stop id="stop3805-5" stop-color="#101010" offset="1"/></linearGradient></defs><rect id="rect3029-6" x="2" y="2" width="24" height="24" rx="2" ry="2" color="#000000" fill="#060606" opacity=".62085"/><rect id="rect3029-6-6" x="1" y=".99998" width="24" height="24" rx="2" ry="2" color="#000000" opacity=".72"/><rect id="rect3029" x=".5" y=".49998" width="23" height="23" rx="2" ry="2" color="#000000" fill="url(#linearGradient5688)"/><path id="path5055" d="m2.6562 3.75e-4c-1.4658 1.4707e-5 -2.6562 1.1904-2.6562 2.6562v18.687c0 1.4658 1.1904 2.6563 2.6562 2.6562l18.687-1.88e-4c1.4658-1.4e-5 2.6562-1.1904 2.6562-2.6562v-18.687c0-1.4658-1.1904-2.6563-2.6562-2.6562zm0.125 1 18.437-1.875e-4c0.76725-7.8e-6 1.7812 1.014 1.7812 1.7812v18.437c0 0.76725-1.014 1.7812-1.7812 1.7812l-18.437 1.88e-4c-0.76725 8e-6 -1.7812-1.014-1.7812-1.7812v-18.437c0-0.76725 1.014-1.7812 1.7812-1.7812z" color="#000000" fill="#585858" style="block-progression:tb;text-indent:0;text-transform:none"/><path id="path3936-0-8-9-3-3" d="m17.75 12.156-7.75 5.1875v1.6562l9-6-1.25-0.84375z" fill="#060606"/><path id="path3936-0-8-9-7-6" d="M 9,6 17.9995,12 9,18 9,6" fill="#bfbfbf"/></svg>
