<svg width="38" height="38" version="1.1" xmlns="http://www.w3.org/2000/svg"><defs><linearGradient id="a" x1="11" x2="11" y1="1014.9" y2="1049.4" gradientTransform="matrix(2.1304 0 0 -1 -.06522 1049.9)" gradientUnits="userSpaceOnUse"><stop stop-color="#ce0e0e" offset="0"/><stop stop-color="#d00" offset=".28"/><stop stop-color="#8d0000" offset="1"/></linearGradient></defs><path d="m2.5 35 31.933 9.4e-5c.831 2e-6 1.5-.669 1.5-1.5v-31.016c0-.831-.669-1.5-1.5-1.5l-33.433.015531v32.5c0 .831.669 1.5 1.5 1.5z" color="#000000" fill="url(#a)"/><path d="m19 12h4v12h-4v-12" fill="#bfbfbf"/><path d="m25 12v12h4v-12h-4" fill="#bfbfbf"/><g fill="#3d0000"><path d="m23 13v11h-3v1h4v-12z"/><path d="m29 13v11h-3v1h4v-12z"/><path d="m15.75 18.156-7.75 5.1875v1.6562l9-6-1.25-.84375z"/></g><path d="m2-.0001875c-1.0994-3.2209e-6-2 .90065-2 2v32c0 1.0994.90065 2 2 2l32 9.4e-5c1.0994 3e-6 2-.90065 2-2v-32c0-1.0994-.90065-2-2-2zm.3 1 31.4 9.375e-5c.56265 1.68e-6 1.3.73735 1.3 1.3v31.4c0 .56265-.73735 1.3-1.3 1.3l-31.4-9.4e-5c-.56265-2e-6-1.3-.73735-1.3-1.3v-31.4c0-.56265.73735-1.3 1.3-1.3z" color="#000000" fill="#979797" style="text-indent:0;text-transform:none"/><path d="m7 12 8.9995 6-8.9995 6v-12" fill="#bfbfbf"/></svg>
