<?xml version="1.0" encoding="UTF-8" standalone="no"?>
<svg
   xmlns:dc="http://purl.org/dc/elements/1.1/"
   xmlns:cc="http://creativecommons.org/ns#"
   xmlns:rdf="http://www.w3.org/1999/02/22-rdf-syntax-ns#"
   xmlns:svg="http://www.w3.org/2000/svg"
   xmlns="http://www.w3.org/2000/svg"
   version="1.1"
   height="26"
   width="52"
   id="svg2">
  <metadata
     id="metadata19">
    <rdf:RDF>
      <cc:Work
         rdf:about="">
        <dc:format>image/svg+xml</dc:format>
        <dc:type
           rdf:resource="http://purl.org/dc/dcmitype/StillImage" />
        <dc:title></dc:title>
      </cc:Work>
    </rdf:RDF>
  </metadata>
  <defs
     id="defs4">
    <linearGradient
       gradientUnits="userSpaceOnUse"
       gradientTransform="matrix(2.1304 0 0 1 -.56522 -1026.4)"
       y2="1049.4"
       y1="1027.4"
       x2="13"
       x1="13"
       id="linearGradient6467">
      <stop
         offset="0"
         stop-color="#242424"
         id="stop3803-7" />
      <stop
         offset="1"
         stop-color="#101010"
         id="stop3805-5" />
    </linearGradient>
  </defs>
  <rect
     fill="url(#linearGradient6467)"
     color="#000000"
     ry="2"
     rx="2"
     height="23"
     width="49"
     y=".49998"
     x=".5"
     id="rect3029" />
  <path
     fill="#060606"
     d="m33 7v11h-3v1h4v-12h-1z"
     id="path3940-3" />
  <path
     fill="#060606"
     d="m39 7v11h-3v1h4v-12h-1z"
     id="path3944-5" />
  <path
     fill="#bfbfbf"
     d="m29 6h4v12h-4v-12"
     id="path3940" />
  <path
     fill="#bfbfbf"
     d="m35 6v12h4v-12h-4"
     id="path3944" />
  <path
     fill="#060606"
     d="m21.75 12.156-7.75 5.1875v1.6562l9-6-1.25-0.84375z"
     id="path3936-0-8-9-3" />
  <path
     fill="#bfbfbf"
     d="m13 6 8.9995 6-8.9995 6v-12"
     id="path3936-0-8-9-7" />
  <path
     style="opacity:0.8;fill:#030303"
     id="path15"
     d="m 49.31367,1.1758 c 0.11592,0.25262 0.18555,0.52951 0.18555,0.82422 v 20 c 0,1.0994 -0.9006,1.965572 -2,1.965572 L 2,23.965572 c -0.6598637,0 -1.13567505,-0.352003 -1.325,-0.511743 0.20909416,0.790888 0.7641575,1.546141 1.8242,1.546141 h 46 c 1.108,0 2,-0.892 2,-2 v -20 c 0,-0.81658 -0.48717,-1.5129 -1.1855,-1.8242 z" />
  <path
     id="path19"
     style="color:#000000;text-indent:0;text-transform:none;fill:#444444"
     d="M 2,0 C 0.9006,0 0,0.90065 0,2 v 20 c 0,1.0994 0.90065,2 2,2 h 46 c 1.0994,0 2,-0.90065 2,-2 V 2 C 50,0.9006 49.09935,0 48,0 Z M 2.3,1 H 47.7 C 48.26265,1 49,1.73735 49,2.3 V 21.7 C 49,22.26265 48.26265,23 47.7,23 H 2.3 C 1.73735,23 1,22.26265 1,21.7 V 2.3 C 1,1.73735 1.73735,1 2.3,1 Z" />
</svg>
