<svg id="svg7007" width="40" height="17" version="1.1" xmlns="http://www.w3.org/2000/svg"><defs id="defs7009"><linearGradient id="linearGradient3470" x1="13" x2="13" y1="1027.4" y2="1049.4" gradientTransform="matrix(1.5217 0 0 .52174 1.7391 -550.25)" gradientUnits="userSpaceOnUse"><stop id="stop3803-7-1-95" stop-color="#ce0e0e" offset="0"/><stop id="stop4329-2" stop-color="#d00" offset=".28"/><stop id="stop3805-5-28-1" stop-color="#8d0000" offset="1"/></linearGradient></defs><rect id="rect3029" transform="scale(1,-1)" x="2.5" y="-14.5" width="35" height="12" rx="2" ry="2" color="#000000" fill="url(#linearGradient3470)"/><path id="rect3029-96-0" d="m4 2c-1.0994 0-2 0.9006-2 2v9.0001c0 1.0994 0.90065 2 2 2h32c1.0994 0 2-0.9006 2-2v-9.0001c0-1.0994-0.90065-2-2-2zm0.3 1h31.4c0.56265 0 1.3 0.7374 1.3 1.3v8.4001c0 0.5626-0.73735 1.3-1.3 1.3h-31.4c-0.56265 0-1.3-0.7374-1.3-1.3v-8.4001c0-0.5626 0.73735-1.3 1.3-1.3z" color="#000000" fill="#979797" style="block-progression:tb;text-indent:0;text-transform:none"/></svg>
