<?xml version="1.0" encoding="UTF-8" standalone="no"?>
<svg
   xmlns:dc="http://purl.org/dc/elements/1.1/"
   xmlns:cc="http://creativecommons.org/ns#"
   xmlns:rdf="http://www.w3.org/1999/02/22-rdf-syntax-ns#"
   xmlns:svg="http://www.w3.org/2000/svg"
   xmlns="http://www.w3.org/2000/svg"
   version="1.1"
   height="17"
   width="40"
   id="svg7007">
  <metadata
     id="metadata15">
    <rdf:RDF>
      <cc:Work
         rdf:about="">
        <dc:format>image/svg+xml</dc:format>
        <dc:type
           rdf:resource="http://purl.org/dc/dcmitype/StillImage" />
        <dc:title></dc:title>
      </cc:Work>
    </rdf:RDF>
  </metadata>
  <defs
     id="defs7009">
    <linearGradient
       gradientUnits="userSpaceOnUse"
       gradientTransform="matrix(1.5217,0,0,0.52174,1.7391,-533.29)"
       y2="1049.4"
       y1="1027.4"
       x2="13"
       x1="13"
       id="linearGradient7062">
      <stop
         offset="0"
         stop-color="#242424"
         id="stop3803-7" />
      <stop
         offset="1"
         stop-color="#101010"
         id="stop3805-5" />
    </linearGradient>
  </defs>
  <rect
     style="color:#000000;opacity:0.62085003;fill:#060606"
     ry="2"
     rx="2"
     height="13"
     width="36"
     y="4.0000243"
     x="3"
     id="rect3029-6" />
  <rect
     style="color:#000000;opacity:0.72000002"
     ry="2"
     rx="2"
     height="13"
     width="36"
     y="3.0000243"
     x="2.5"
     id="rect3029-6-6" />
  <rect
     style="color:#000000;fill:url(#linearGradient7062)"
     ry="2"
     rx="2"
     height="12"
     width="35"
     y="2.5000243"
     x="2.5"
     id="rect3029" />
  <path
     style="color:#000000;text-indent:0;text-transform:none;fill:#444444"
     d="M 4,2 C 2.9006,2 2,2.9006 2,4 v 9.0001 c 0,1.0994 0.90065,2 2,2 h 32 c 1.0994,0 2,-0.9006 2,-2 V 4 C 38,2.9006 37.09935,2 36,2 Z M 4.3,3 H 35.7 C 36.26265,3 37,3.7374 37,4.3 v 8.4001 c 0,0.5626 -0.73735,1.3 -1.3,1.3 H 4.3 c -0.56265,0 -1.3,-0.7374 -1.3,-1.3 V 4.3 C 3,3.7374 3.73735,3 4.3,3 Z"
     id="rect3029-96-0" />
</svg>
