<?xml version="1.0" encoding="UTF-8" standalone="no"?>
<svg
   xmlns:dc="http://purl.org/dc/elements/1.1/"
   xmlns:cc="http://creativecommons.org/ns#"
   xmlns:rdf="http://www.w3.org/1999/02/22-rdf-syntax-ns#"
   xmlns:svg="http://www.w3.org/2000/svg"
   xmlns="http://www.w3.org/2000/svg"
   version="1.1"
   height="26"
   width="28"
   id="svg2">
  <metadata
     id="metadata18">
    <rdf:RDF>
      <cc:Work
         rdf:about="">
        <dc:format>image/svg+xml</dc:format>
        <dc:type
           rdf:resource="http://purl.org/dc/dcmitype/StillImage" />
        <dc:title></dc:title>
      </cc:Work>
    </rdf:RDF>
  </metadata>
  <defs
     id="defs4">
    <linearGradient
       gradientUnits="userSpaceOnUse"
       gradientTransform="translate(2 -1026.4)"
       y2="1049.4"
       y1="1027.4"
       x2="13"
       x1="13"
       id="linearGradient4163">
      <stop
         offset="0"
         stop-color="#242424"
         id="stop3803-7" />
      <stop
         offset="1"
         stop-color="#101010"
         id="stop3805-5" />
    </linearGradient>
  </defs>
  <path
     d="m 25.31367,1.17583 c 0.11592,0.25262 0.18555,0.52951 0.18555,0.82422 v 20 c 0,1.0994 -0.9006,1.965573 -2,1.965572 L 4,23.965602 C 3.3401363,23.965601 2.864325,23.613599 2.675,23.453859 2.8840942,24.244747 3.4391575,25 4.4992,25 h 20 c 1.108,0 2,-0.892 2,-2 V 3 c 0,-0.81658 -0.48717,-1.5129 -1.1855,-1.8242 z"
     id="path15"
     style="opacity:0.8;fill:#030303" />
  <rect
     fill="url(#linearGradient4163)"
     color="#000000"
     ry="2"
     rx="2"
     height="23"
     width="23"
     y=".49998"
     x="2.5"
     id="rect3029" />
  <path
     style="block-progression:tb;text-indent:0;text-transform:none"
     fill="#444444"
     color="#000000"
     d="m4 0c-1.0994 0-2 0.90065-2 2v20c0 1.0994 0.90065 2 2 2h20c1.0994 0 2-0.90065 2-2v-20c0-1.0994-0.90065-2-2-2zm0.3 1h19.4c0.56265 0 1.3 0.73735 1.3 1.3v19.4c0 0.56265-0.73735 1.3-1.3 1.3h-19.4c-0.56265 0-1.3-0.73735-1.3-1.3v-19.4c0-0.56265 0.73735-1.3 1.3-1.3z"
     id="rect3029-96-0" />
  <g
     fill="#060606"
     transform="translate(2)"
     id="g4992">
    <path
       d="m6 8.3636 6.955 4.6367-6.955 4.6367v-9.2734"
       id="path3936-0-8-9-7-5" />
    <path
       d="m21 8.3636-6.955 4.6367 6.955 4.6367v-9.2734"
       id="path3936-0-8-9-7-3-3" />
  </g>
  <path
     fill="#bfbfbf"
     d="m7 7.3636 6.955 4.6367-6.955 4.6367v-9.2734"
     id="path3936-0-8-9-7" />
  <path
     fill="#bfbfbf"
     d="m22 7.3636-6.955 4.6367 6.955 4.6367v-9.2734"
     id="path3936-0-8-9-7-3" />
</svg>
