<?xml version="1.0" encoding="UTF-8" standalone="no"?>
<!-- Created with Inkscape (http://www.inkscape.org/) -->

<svg
   xmlns:dc="http://purl.org/dc/elements/1.1/"
   xmlns:cc="http://creativecommons.org/ns#"
   xmlns:rdf="http://www.w3.org/1999/02/22-rdf-syntax-ns#"
   xmlns:svg="http://www.w3.org/2000/svg"
   xmlns="http://www.w3.org/2000/svg"
   xmlns:sodipodi="http://sodipodi.sourceforge.net/DTD/sodipodi-0.dtd"
   xmlns:inkscape="http://www.inkscape.org/namespaces/inkscape"
   version="1.1"
   width="26"
   height="26"
   id="svg14046"
   inkscape:version="0.48.4 r9939"
   sodipodi:docname="btn_loop_down.svg">
  <sodipodi:namedview
     pagecolor="#ffffff"
     bordercolor="#666666"
     borderopacity="1"
     objecttolerance="10"
     gridtolerance="10"
     guidetolerance="10"
     inkscape:pageopacity="0"
     inkscape:pageshadow="2"
     inkscape:window-width="1366"
     inkscape:window-height="746"
     id="namedview8"
     showgrid="false"
     inkscape:zoom="8"
     inkscape:cx="6.4723235"
     inkscape:cy="18.650493"
     inkscape:window-x="0"
     inkscape:window-y="0"
     inkscape:window-maximized="1"
     inkscape:current-layer="layer1">
    <inkscape:grid
       type="xygrid"
       id="grid2985" />
  </sodipodi:namedview>
  <metadata
     id="metadata14058">
    <rdf:RDF>
      <cc:Work
         rdf:about="">
        <dc:format>image/svg+xml</dc:format>
        <dc:type
           rdf:resource="http://purl.org/dc/dcmitype/StillImage" />
        <dc:title></dc:title>
      </cc:Work>
    </rdf:RDF>
  </metadata>
  <defs
     id="defs14056" />
  <g
     inkscape:groupmode="layer"
     id="layer1"
     inkscape:label="normal"
     style="display:inline">
    <path
       d="m 4.00025,8.187937 1.499875,1.156125 -2.5e-4,6.655876 C 5.499854,16.571231 6.428698,17.500037 7,17.500031 l 7,-6.2e-5 0,-3 7,3.750031 -7,3.75 0,-3 -7,6.3e-5 c -1.644706,1.4e-5 -3,-1.355295 -3,-3 z"
       id="path14050"
       style="color:#000000;fill:#8d8f90;fill-opacity:1;marker:none;overflow:visible"
       inkscape:connector-curvature="0"
       sodipodi:nodetypes="ccsscccccscc" />
    <path
       d="m 19.99975,15.812063 -1.499875,-1.156125 2.5e-4,-6.655876 C 18.50015,7.331392 17.717368,6.499962 17,6.499969 l -7,6.2e-5 0,3 L 3,5.75 10,2 l 0,3 7,-6.25e-5 c 1.644706,-1.47e-5 3,1.3552955 3,3.0000005 z"
       id="path14050-3"
       style="color:#000000;fill:#8d8f90;fill-opacity:1;marker:none;overflow:visible"
       inkscape:connector-curvature="0"
       sodipodi:nodetypes="ccsscccccscc" />
  </g>
  <g
     inkscape:groupmode="layer"
     id="layer2"
     inkscape:label="0"
     style="display:none">
    <path
       d="m 4.00025,8.187937 1.499875,1.156125 -2.5e-4,6.655876 C 5.499854,16.571231 6.428698,17.500037 7,17.500031 l 7,-6.2e-5 0,-3 7,3.750031 -7,3.75 0,-3 -7,6.3e-5 c -1.644706,1.4e-5 -3,-1.355295 -3,-3 z"
       id="path14050-36"
       style="color:#000000;fill:#bfbfbf;fill-opacity:1;marker:none;overflow:visible"
       inkscape:connector-curvature="0"
       sodipodi:nodetypes="ccsscccccscc" />
    <path
       d="m 19.99975,15.812063 -1.499875,-1.156125 2.5e-4,-6.655876 C 18.50015,7.331392 17.717368,6.499962 17,6.499969 l -7,6.2e-5 0,3 L 3,5.75 10,2 l 0,3 7,-6.25e-5 c 1.644706,-1.47e-5 3,1.3552955 3,3.0000005 z"
       id="path14050-3-7"
       style="color:#000000;fill:#bfbfbf;fill-opacity:1;marker:none;overflow:visible"
       inkscape:connector-curvature="0"
       sodipodi:nodetypes="ccsscccccscc" />
  </g>
</svg>
