<?xml version="1.0" encoding="UTF-8" standalone="no"?>
<!-- Created with Inkscape (http://www.inkscape.org/) -->

<svg
   xmlns:dc="http://purl.org/dc/elements/1.1/"
   xmlns:cc="http://creativecommons.org/ns#"
   xmlns:rdf="http://www.w3.org/1999/02/22-rdf-syntax-ns#"
   xmlns:svg="http://www.w3.org/2000/svg"
   xmlns="http://www.w3.org/2000/svg"
   xmlns:inkscape="http://www.inkscape.org/namespaces/inkscape"
   version="1.1"
   width="34"
   height="15"
   id="svg2">
  <defs
     id="defs4">
    <inkscape:path-effect
       effect="spiro"
       id="path-effect3157" />
    <inkscape:path-effect
       effect="spiro"
       id="path-effect3153" />
    <inkscape:path-effect
       effect="spiro"
       id="path-effect3149" />
    <inkscape:path-effect
       effect="spiro"
       id="path-effect3145" />
  </defs>
  <metadata
     id="metadata7">
    <rdf:RDF>
      <cc:Work
         rdf:about="">
        <dc:format>image/svg+xml</dc:format>
        <dc:type
           rdf:resource="http://purl.org/dc/dcmitype/StillImage" />
        <dc:title></dc:title>
      </cc:Work>
    </rdf:RDF>
  </metadata>
  <g
     transform="translate(0,-1037.3622)"
     id="layer1">
    <path
       d="m 1,3 0,9 9,0 0,-2 -7,0 0,-7 -2,0"
       transform="translate(0,1037.3622)"
       id="path3143"
       style="fill:#6a6a6a;fill-opacity:1;stroke:none" />
    <path
       d="m 12,3 0,9 2,0 0,-5 1,0 0,1 1,0 0,1 2,0 0,-1 1,0 0,-1 1,0 0,5 2,0 0,-9 -2,0 0,1 -1,0 0,1 -1,0 0,1 -2,0 0,-1 -1,0 0,-1 -1,0 0,-1 -2,0"
       transform="translate(0,1037.3622)"
       id="path3147"
       style="fill:#6a6a6a;fill-opacity:1;stroke:none" />
    <path
       d="m 24,3 0,9 2,0 0,-3 4,0 0,1 1,0 0,1 1,0 0,1 2,0 0,-2 -1,0 0,-1 -1,0 0,-1 1,0 0,-4 -1,0 0,-1 z m 2,2 5,0 0,2 -5,0 z"
       transform="translate(0,1037.3622)"
       id="path3151"
       style="fill:#f856e7;fill-opacity:1;stroke:none" />
  </g>
</svg>
