<?xml version="1.0" encoding="UTF-8" standalone="no"?>
<!-- Created with Inkscape (http://www.inkscape.org/) -->

<svg
   xmlns:dc="http://purl.org/dc/elements/1.1/"
   xmlns:cc="http://creativecommons.org/ns#"
   xmlns:rdf="http://www.w3.org/1999/02/22-rdf-syntax-ns#"
   xmlns:svg="http://www.w3.org/2000/svg"
   xmlns="http://www.w3.org/2000/svg"
   xmlns:xlink="http://www.w3.org/1999/xlink"
   version="1.1"
   width="26"
   height="26"
   id="svg25537">
  <defs
     id="defs25539">
    <linearGradient
       x1="15"
       y1="1049.3622"
       x2="15"
       y2="1027.3622"
       id="linearGradient25229"
       xlink:href="#linearGradient3801-6-9-0"
       gradientUnits="userSpaceOnUse"
       gradientTransform="translate(0,-1026.3622)" />
    <linearGradient
       id="linearGradient3801-6-9-0">
      <stop
         id="stop3803-7-1-9"
         style="stop-color:#aa1112;stop-opacity:1"
         offset="0" />
      <stop
         id="stop4329-4"
         style="stop-color:#b60607;stop-opacity:1"
         offset="0.28" />
      <stop
         id="stop3805-5-28-5"
         style="stop-color:#760607;stop-opacity:1"
         offset="1" />
    </linearGradient>
    <linearGradient
       x1="15"
       y1="1049.3622"
       x2="15"
       y2="1027.3622"
       id="linearGradient4370"
       xlink:href="#linearGradient3801-6-9-0-1"
       gradientUnits="userSpaceOnUse"
       gradientTransform="translate(0,-1026.3622)" />
    <linearGradient
       id="linearGradient3801-6-9-0-1">
      <stop
         id="stop3803-7-1-9-5"
         style="stop-color:#aa1112;stop-opacity:1"
         offset="0" />
      <stop
         id="stop4329-4-9"
         style="stop-color:#b60607;stop-opacity:1"
         offset="0.28" />
      <stop
         id="stop3805-5-28-5-7"
         style="stop-color:#760607;stop-opacity:1"
         offset="1" />
    </linearGradient>
    <linearGradient
       x1="15"
       y1="1049.3622"
       x2="15"
       y2="1027.3622"
       id="linearGradient5772"
       xlink:href="#linearGradient3801-6-9-0-1"
       gradientUnits="userSpaceOnUse"
       gradientTransform="translate(0,-1026.3622)" />
    <linearGradient
       x1="15"
       y1="1049.3622"
       x2="15"
       y2="1027.3622"
       id="linearGradient5815"
       xlink:href="#linearGradient3801-6-9-0-1"
       gradientUnits="userSpaceOnUse"
       gradientTransform="translate(0,-1026.3622)" />
  </defs>
  <metadata
     id="metadata25542">
    <rdf:RDF>
      <cc:Work
         rdf:about="">
        <dc:format>image/svg+xml</dc:format>
        <dc:type
           rdf:resource="http://purl.org/dc/dcmitype/StillImage" />
        <dc:title></dc:title>
      </cc:Work>
    </rdf:RDF>
  </metadata>
  <rect
     width="23"
     height="23.000017"
     rx="1.5"
     ry="1.5"
     x="0.5"
     y="0.49998301"
     id="rect3029-96-4"
     style="color:#000000;fill:url(#linearGradient5815);fill-opacity:1;fill-rule:nonzero;stroke:none;stroke-width:1;marker:none;visibility:visible;display:inline;overflow:visible;enable-background:accumulate" />
  <path
     d="m 10,9 3,0 0,6 -2,0 0,-5 -1,0 0,-1"
     id="path3944-9-6"
     style="fill:#8d8f90;fill-opacity:1;stroke:none;display:none" />
  <path
     d="m 13,10 1,0 0,6 -2,0 0,-1 1,0 0,-5"
     id="path3948-7-8"
     style="fill:#320202;fill-opacity:1;stroke:none;display:none" />
  <path
     d="m 10,10 7,0 0,4 -5,0 0,1 5,0 0,1 -7,0 0,-3 5,0 0,-2 -5,0 0,-1"
     id="path5770-89"
     style="fill:#320202;fill-opacity:1;stroke:none;display:none" />
  <path
     d="m 9,9 7,0 0,4 -5,0 0,1 5,0 0,1 -7,0 0,-3 5,0 0,-2 -5,0 0,-1"
     id="path5770-8-5"
     style="fill:#8d8f90;fill-opacity:1;stroke:none;display:none" />
  <path
     d="m 10,10 7,0 0,6 -7,0 0,-1 5,0 0,-1 -2,0 0,-1 2,0 0,-2 -5,0 0,-1"
     id="path6542-5-0-4-4"
     style="fill:#320202;fill-opacity:1;stroke:none;display:none" />
  <path
     d="m 9,9 7,0 0,6 -7,0 0,-1 5,0 0,-1 -2,0 0,-1 2,0 0,-2 -5,0 0,-1"
     id="path6542-3-5-9"
     style="fill:#8d8f90;fill-opacity:1;stroke:none;display:none" />
  <path
     d="m 10,11 0,3 5,0 0,2 2,0 0,-6 -2,0 0,3 -3,0 0,-2 -2,0"
     id="path6751-9-1"
     style="fill:#320202;fill-opacity:1;stroke:none;display:none" />
  <path
     d="m 9,10 0,3 5,0 0,2 2,0 0,-6 -2,0 0,3 -3,0 0,-2 -2,0"
     id="path6751-6"
     style="fill:#8d8f90;fill-opacity:1;stroke:none;display:none" />
  <path
     d="m -23,-14.5 3,0 0,-3 3,0 0,3 3,0 0,3 -3,0 0,3 -3,0 0,-3 -3,0 0,-3"
     id="path9276-9"
     style="fill:#320202;fill-opacity:1;stroke:none;display:none" />
  <path
     d="m -24,-15.5 3,0 0,-3 3,0 0,3 3,0 0,3 -3,0 0,3 -3,0 0,-3 -3,0 0,-3"
     id="path9276"
     style="fill:#8d8f90;fill-opacity:1;stroke:none;display:none" />
  <path
     d="m -11,-14.5 9,0 0,3 -9,0 0,-3"
     id="path9788-2"
     style="fill:#320202;fill-opacity:1;stroke:none;display:none" />
  <path
     d="m -12,-15.5 9,0 0,3 -9,0 0,-3"
     id="path9788"
     style="fill:#8d8f90;fill-opacity:1;stroke:none;display:none" />
  <path
     d="m 13,-14.5 -4,0 0,-4 -5,5.5 5,5.5 0,-4 4,0 0,-3"
     id="path9792-3-2"
     style="fill:#320202;fill-opacity:1;stroke:none;display:none" />
  <path
     d="m 12,-15.5 -4,0 0,-4 -5,5.5 5,5.5 0,-4 4,0 0,-3"
     id="path9792-3"
     style="fill:#8d8f90;fill-opacity:1;stroke:none;display:none" />
  <path
     d="m 17,-14.5 4,0 0,-4 5,5.5 -5,5.5 0,-4 -4,0 0,-3"
     id="path9792-0"
     style="fill:#320202;fill-opacity:1;stroke:none;display:none" />
  <path
     d="m 16,-15.5 4,0 0,-4 5,5.5 -5,5.5 0,-4 -4,0 0,-3"
     id="path9792"
     style="fill:#8d8f90;fill-opacity:1;stroke:none;display:none" />
  <path
     d="m 41,-18 5,0 0,13 -1,0 0,-7 -4,0 0,-6"
     id="path9817-3"
     style="fill:#320202;fill-opacity:1;stroke:none;display:none" />
  <path
     d="m 40,-19 5,0 0,13 -1,0 0,-7 -4,0 0,-6"
     id="path9817"
     style="fill:#8d8f90;fill-opacity:1;stroke:none;display:none" />
  <path
     d="m 56,-18 -5,0 0,13 1,0 0,-7 4,0 0,-6"
     id="path9817-6-7"
     style="fill:#320202;fill-opacity:1;stroke:none;display:none" />
  <path
     d="m 55,-19 -5,0 0,13 1,0 0,-7 4,0 0,-6"
     id="path9817-6"
     style="fill:#8d8f90;fill-opacity:1;stroke:none;display:none" />
  <path
     d="M 2,0 C 0.90064862,0 0,0.90064862 0,2 l 0,20 c 0,1.099351 0.90064862,2 2,2 l 20,0 c 1.099351,0 2,-0.900649 2,-2 L 24,2 C 24,0.90064862 23.099351,0 22,0 z M 2.3,1 21.7,1 C 22.262649,1 23,1.7373514 23,2.3 l 0,19.4 C 23,22.262649 22.262649,23 21.7,23 L 2.3,23 C 1.7373514,23 1,22.262649 1,21.7 L 1,2.3 C 1,1.7373514 1.7373514,1 2.3,1 z"
     id="rect3029-96-9"
     style="font-size:medium;font-style:normal;font-variant:normal;font-weight:normal;font-stretch:normal;text-indent:0;text-align:start;text-decoration:none;line-height:normal;letter-spacing:normal;word-spacing:normal;text-transform:none;direction:ltr;block-progression:tb;writing-mode:lr-tb;text-anchor:start;baseline-shift:baseline;color:#000000;fill:#979797;fill-opacity:1;fill-rule:nonzero;stroke:none;stroke-width:1;marker:none;visibility:visible;display:inline;overflow:visible;enable-background:accumulate;font-family:Sans;-inkscape-font-specification:Sans" />
  <g
     transform="translate(-8.129237,-4.538136)"
     id="g5888">
    <path
       d="m 21.129237,10.538136 c -3.724958,0 -6.75,3.024991 -6.75,6.75 0,0.03983 -9.4e-4,0.07667 0,0.125 l 0,0.21875 c -0.758149,0.642015 -1.25,1.584975 -1.25,2.65625 0,1.933 1.567004,3.5 3.5,3.5 l 0,-7 c -0.241624,0 -0.490908,0.01588 -0.71875,0.0625 0.215665,-2.703107 2.459432,-4.8125 5.21875,-4.8125 2.752956,0 4.993881,2.11825 5.21875,4.8125 -0.227842,-0.04662 -0.477125,-0.0625 -0.71875,-0.0625 l 0,7 c 1.932996,0 3.5,-1.567 3.5,-3.5 0,-1.087312 -0.503385,-2.045549 -1.28125,-2.6875 0.0061,-0.105593 0.03125,-0.203066 0.03125,-0.3125 0,-3.725009 -3.025041,-6.75 -6.75,-6.75 z"
       id="path9863-1-2-3"
       style="font-size:medium;font-style:normal;font-variant:normal;font-weight:normal;font-stretch:normal;text-indent:0;text-align:start;text-decoration:none;line-height:normal;letter-spacing:normal;word-spacing:normal;text-transform:none;direction:ltr;block-progression:tb;writing-mode:lr-tb;text-anchor:start;baseline-shift:baseline;color:#000000;fill:#320202;fill-opacity:1;fill-rule:nonzero;stroke:none;stroke-width:0.5;marker:none;visibility:visible;display:inline;overflow:visible;enable-background:accumulate;font-family:Sans;-inkscape-font-specification:Sans" />
    <path
       d="m 20.129237,9.5381356 c -3.724958,0 -6.75,3.0249914 -6.75,6.7500004 0,0.03983 -9.4e-4,0.07667 0,0.125 l 0,0.21875 c -0.758149,0.642015 -1.25,1.584975 -1.25,2.65625 0,1.933 1.567004,3.5 3.5,3.5 l 0,-7 c -0.241624,0 -0.490908,0.01588 -0.71875,0.0625 0.215665,-2.703107 2.459432,-4.8125 5.21875,-4.8125 2.752956,0 4.993881,2.11825 5.21875,4.8125 -0.227842,-0.04662 -0.477125,-0.0625 -0.71875,-0.0625 l 0,7 c 1.932996,0 3.5,-1.567 3.5,-3.5 0,-1.087312 -0.503385,-2.045549 -1.28125,-2.6875 0.0061,-0.105593 0.03125,-0.203066 0.03125,-0.3125 0,-3.725009 -3.025041,-6.7500004 -6.75,-6.7500004 z"
       id="path9863-1-2"
       style="font-size:medium;font-style:normal;font-variant:normal;font-weight:normal;font-stretch:normal;text-indent:0;text-align:start;text-decoration:none;line-height:normal;letter-spacing:normal;word-spacing:normal;text-transform:none;direction:ltr;block-progression:tb;writing-mode:lr-tb;text-anchor:start;baseline-shift:baseline;color:#000000;fill:#8d8f90;fill-opacity:1;fill-rule:nonzero;stroke:none;stroke-width:0.5;marker:none;visibility:visible;display:inline;overflow:visible;enable-background:accumulate;font-family:Sans;-inkscape-font-specification:Sans" />
  </g>
</svg>
