<svg id="svg25537" width="26" height="26" version="1.1" xmlns="http://www.w3.org/2000/svg"><defs id="defs25539"><linearGradient id="linearGradient4165" x1="11" x2="11" y1="1027.4" y2="1049.4" gradientTransform="translate(0 -1050.4)" gradientUnits="userSpaceOnUse"><stop id="stop3803-7-1-95-8" stop-color="#ce0e0e" offset="0"/><stop id="stop4329-2-5" stop-color="#d00" offset=".28"/><stop id="stop3805-5-28-1-9" stop-color="#8d0000" offset="1"/></linearGradient></defs><rect id="rect3029-96-3" transform="scale(1,-1)" x=".5" y="-23.5" width="23" height="23" rx="1.5" ry="1.5" color="#000000" fill="url(#linearGradient4165)"/><path id="rect3029-96" d="m2 0c-1.0994 0-2 0.9006-2 2v20c0 1.0994 0.90065 2 2 2h20c1.0994 0 2-0.9006 2-2v-20c0-1.0994-0.90065-2-2-2zm0.3 1h19.4c0.56265 0 1.3 0.7374 1.3 1.3v19.4c0 0.5626-0.73735 1.3-1.3 1.3h-19.4c-0.56265 0-1.3-0.7374-1.3-1.3v-19.4c0-0.5626 0.73735-1.3 1.3-1.3z" color="#000000" fill="#979797" style="block-progression:tb;text-indent:0;text-transform:none"/><path id="path9863-1-2-3" d="m13 6c-3.725 0-6.75 3.025-6.75 6.75 0 0.03983-9.401e-4 0.07667 0 0.125v0.21875c-0.75815 0.64202-1.25 1.585-1.25 2.6562 0 1.933 1.567 3.5 3.5 3.5v-7c-0.24162 0-0.49091 0.01588-0.71875 0.0625 0.21567-2.7031 2.4594-4.8125 5.2188-4.8125 2.753 0 4.9939 2.1183 5.2188 4.8125-0.22784-0.046623-0.47712-0.0625-0.71875-0.0625v7c1.933 0 3.5-1.567 3.5-3.5 0-1.0873-0.50338-2.0455-1.2812-2.6875 0.006115-0.10559 0.03125-0.20307 0.03125-0.3125 0-3.725-3.025-6.75-6.75-6.75z" color="#000000" fill="#320202" style="block-progression:tb;text-indent:0;text-transform:none"/><path id="path9863-1-2" d="m12 5c-3.725 0-6.75 3.025-6.75 6.75 0 0.03983-9.401e-4 0.07667 0 0.125v0.21875c-0.75815 0.64202-1.25 1.585-1.25 2.6562 0 1.933 1.567 3.5 3.5 3.5v-7c-0.24162 0-0.49091 0.01588-0.71875 0.0625 0.21567-2.7031 2.4594-4.8125 5.2188-4.8125 2.753 0 4.9939 2.1183 5.2188 4.8125-0.22784-0.046623-0.47712-0.0625-0.71875-0.0625v7c1.933 0 3.5-1.567 3.5-3.5 0-1.0873-0.50338-2.0455-1.2812-2.6875 0.006115-0.10559 0.03125-0.20307 0.03125-0.3125 0-3.725-3.025-6.75-6.75-6.75z" color="#000000" fill="#eee" style="block-progression:tb;text-indent:0;text-transform:none"/></svg>
