<svg id="svg8760" width="26" height="26" version="1.1" xmlns="http://www.w3.org/2000/svg"><defs id="defs8762"><linearGradient id="linearGradient3807-3-3" x1="13" x2="13" y1="1027.4" y2="1049.4" gradientUnits="userSpaceOnUse"><stop id="stop3803-7-6" stop-color="#242424" offset="0"/><stop id="stop3805-5-2" stop-color="#101010" offset="1"/></linearGradient></defs><g id="layer1" transform="translate(0 -1026.4)"><rect id="rect3029-6" x="2" y="1028.4" width="24" height="24" rx="2" ry="2" color="#000000" fill="#060606" opacity=".62085"/><rect id="rect3029-6-6" x="1" y="1027.4" width="24" height="24" rx="2" ry="2" color="#000000" opacity=".72"/><rect id="rect3029" x=".5" y="1026.9" width="23" height="23" rx="2" ry="2" color="#000000" fill="url(#linearGradient3807-3-3)"/><path id="rect3029-96-0" d="m2 1026.4c-1.0994 0-2 0.9006-2 2v20c0 1.0994 0.90065 2 2 2h20c1.0994 0 2-0.9006 2-2v-20c0-1.0994-0.90065-2-2-2zm0.3 1h19.4c0.56265 0 1.3 0.7374 1.3 1.3v19.4c0 0.5626-0.73735 1.3-1.3 1.3h-19.4c-0.56265 0-1.3-0.7374-1.3-1.3v-19.4c0-0.5626 0.73735-1.3 1.3-1.3z" color="#000000" fill="#585858" style="block-progression:tb;text-indent:0;text-transform:none"/><path id="path9276-9-3-7" d="m9 1038.4h3v-3h3v3h3v3h-3v3h-3v-3h-3v-3" fill="#060606"/><path id="path9276-5-5" d="m8 1037.4h3v-3h3v3h3v3h-3v3h-3v-3h-3v-3" fill="#bfbfbf"/></g></svg>
