<svg width="76" height="24" version="1.1" xmlns="http://www.w3.org/2000/svg">
	<defs>
		<linearGradient id="d" x1=".5" x2="23.5" y1="12" y2="12" gradientTransform="matrix(.91304348 0 0 1.4897959 .13043744 -35.020409)" gradientUnits="userSpaceOnUse">
			<stop stop-opacity=".17647" offset="0"/>
			<stop stop-opacity=".0047619" offset=".12672"/>
			<stop stop-opacity="0" offset=".54348"/>
			<stop stop-opacity=".47451" offset="1"/>
		</linearGradient>
		<linearGradient id="c" x1="1.00003" x2="25.000031" y1="-26" y2="-26" gradientTransform="matrix(.91304348 0 0 1.4897959 .86956787 31.878478)" gradientUnits="userSpaceOnUse">
			<stop stop-color="#393939" offset="0"/>
			<stop stop-color="#393939" offset=".30102351"/>
			<stop stop-color="#141414" offset="1"/>
		</linearGradient>
	</defs>
	<path d="m74.31446 2.17593c.11592.25262.18555.52951.18555.82422v18c0 1.0994-.9006 1.965574-2 1.965572l-69.50001-.00012c-.6598637-1e-6-1.135675-.352003-1.325-.511743.2090942.790888.7641575 1.546139 1.8242 1.546141l70.00079 1e-4c1.108 2e-6 2-.892 2-2v-18c0-.81658-.48717-1.5129-1.1855-1.8242z" fill="#030303"/>
	<rect transform="rotate(90)" x="1.50003" y="-74.5" width="21" height="73" rx="1.5" ry="1.5000001" color="#000000" fill="url(#d)" stroke-width=".99999988"/>
	<rect transform="rotate(90)" x="1.50003" y="-74.5" width="21" height="73" rx=".30000001" ry=".30000001" fill="none" stroke="url(#c)" stroke-linecap="round" stroke-linejoin="round" style="paint-order:fill markers stroke"/>
</svg>
