<svg id="svg24" width="20" height="40" version="1.1" xmlns="http://www.w3.org/2000/svg"><defs id="defs12"><linearGradient id="b" x1="13" x2="13" y1="1027.4" y2="1049.4" gradientTransform="matrix(1.4783 0 0 .82609 -.2391 -827.81)" gradientUnits="userSpaceOnUse"><stop id="stop2" stop-color="#242424" offset="0"/><stop id="stop4" stop-color="#101010" offset="1"/></linearGradient><linearGradient id="a" x1="20" x2="20" y1="1042.4" y2="1035.4" gradientTransform="translate(-2,-1010.4)" gradientUnits="userSpaceOnUse"><stop id="stop7" stop-color="#c8c8c8" offset="0"/><stop id="stop9" stop-color="#646464" offset="1"/></linearGradient></defs><path id="path14" d="m2.5.50002 15-2.5e-5c1.108-1.85e-6 2 .892 2 2v35c0 1.108-.892 2-2 2l-15 2.5e-5c-1.108 2e-6-2-.892-2-2v-35c0-1.108.892-2 2-2z" color="#000000" fill="url(#b)"/><path id="path16" d="m2.5.5c-1.0994 0-2 .9006-2 2v1.5h19v-1.5c0-1.0994-.90065-2-2-2z" color="#000000" fill="#666" style="text-decoration-line:none;text-indent:0;text-transform:none"/><path id="path18" d="m2 0c-1.0994 0-2 .9006-2 2v36c0 1.0994.90065 2 2 2h16c1.0994 0 2-.9006 2-2v-36c0-1.0994-.90065-2-2-2zm.3 1h15.4c.56265 0 1.3.7374 1.3 1.3v35.4c0 .5626-.73735 1.3-1.3 1.3h-15.4c-.56265 0-1.3-.7374-1.3-1.3v-35.4c0-.5626.73735-1.3 1.3-1.3z" color="#000000" fill="url(#a)" style="text-decoration-line:none;text-indent:0;text-transform:none"/><path id="path2" d="m14.708 26.938-4.708 4.7081-4.708-4.7081-1.177 1.1771 5.885 5.8851 5.885-5.8851-1.177-1.1771z" fill="#888"/><path id="path2-3" d="m14.708 15.062-4.7081-4.7081-4.7081 4.7081-1.1771-1.1771 5.8851-5.8851 5.8851 5.8851-1.1771 1.1771z" fill="#888"/></svg>
