<svg width="26" height="26" version="1.1" xmlns="http://www.w3.org/2000/svg"><defs><linearGradient id="a" x1=".5" x2="23.5" y1="12" y2="12" gradientTransform="translate(-24,-24)" gradientUnits="userSpaceOnUse"><stop stop-opacity=".17647" offset="0"/><stop stop-opacity=".0047619" offset=".12672"/><stop stop-opacity="0" offset=".54348"/><stop stop-opacity=".47451" offset="1"/></linearGradient></defs><path d="m24.82 2.1797c.11293.25091.17969.52638.17969.82031v20c0 1.108-.892 2-2 2h-20c-.29393 0-.5694-.06676-.82031-.17969.31276.69491 1.0062 1.1797 1.8203 1.1797h20c1.108 0 2-.892 2-2v-20c0-.81407-.48477-1.5075-1.1797-1.8203z" fill="#010101" opacity=".5"/><path d="m23.814 1.1758c.11592.25262.18555.52951.18555.82422v20c0 1.0994-.9006 2-2 2h-20c-.2947 0-.5716-.06963-.82422-.18555.31134.69838 1.0076 1.1855 1.8242 1.1855h20c1.108 0 2-.892 2-2v-20c0-.81658-.48717-1.5129-1.1855-1.8242z" fill="#030303" opacity=".8"/><rect transform="matrix(0,-1,-1,0,0,0)" x="-23.5" y="-23.5" width="23" height="23" rx="1.5" ry="1.5" color="#000000" fill="url(#a)"/><path d="m2 0c-1.0994 0-2 .90065-2 2v20c0 1.0994.90065 2 2 2h20c1.0994 0 2-.90065 2-2v-20c0-1.0994-.90065-2-2-2zm.3 1h19.4c.56265 0 1.3.73735 1.3 1.3v19.4c0 .56265-.73735 1.3-1.3 1.3h-19.4c-.56265 0-1.3-.73735-1.3-1.3v-19.4c0-.56265.73735-1.3 1.3-1.3z" color="#000000" fill="#979797" style="text-indent:0;text-transform:none"/><path d="m9 10v3h5v2h2v-6h-2v3h-3v-2z" fill="#dcdcdc" stroke="#000" stroke-width="1.6"/><path d="m9 10v3h5v2h2v-6h-2v3h-3v-2h-2" fill="#fff"/></svg>
