<svg width="32" height="20" version="1.1" xmlns="http://www.w3.org/2000/svg"><defs><linearGradient id="a" x1="7.3007" x2="25" y1="9.0005" y2="6" gradientUnits="userSpaceOnUse"><stop stop-color="#8d8f90" offset="0"/><stop stop-color="#d2d2d2" offset="1"/></linearGradient></defs><path d="m24 6.3647c-6.7888-5.1944-15.297-2.3339-18.699 2.6358" fill="none" stroke="url(#a)" stroke-linecap="round" stroke-width="1.5"/><rect x="1" y="11" width="8" height="6" rx="1" ry="1" fill="#d2d2d2" style="paint-order:fill markers stroke"/><path d="m13 11c-.554 0-1 .446-1 1v4c0 .554.446 1 1 1h6c.554 0 1-.446 1-1v-4c0-.554-.446-1-1-1zm1 1h4c.554 0 1 .446 1 1v2c0 .554-.446 1-1 1h-4c-.554 0-1-.446-1-1v-2c0-.554.446-1 1-1z" fill="#666" style="paint-order:fill markers stroke"/><rect x="23" y="11" width="8" height="6" rx="1" ry="1" fill="#666" style="paint-order:fill markers stroke"/><path d="m25.869 4.4426-4.0755 3.5977 5.6355 2.2766z" fill="#d2d2d2"/></svg>
