<svg width="71" height="23" version="1.1" xmlns="http://www.w3.org/2000/svg" xmlns:xlink="http://www.w3.org/1999/xlink"><defs><linearGradient id="a" x1=".50003" x2="23.5" y1="-12" y2="-12" gradientTransform="matrix(.91304 0 0 3 -21.957 1)" gradientUnits="userSpaceOnUse"><stop stop-color="#d09300" offset="0"/><stop stop-color="#a06d00" offset="1"/></linearGradient></defs><g><rect transform="matrix(0,-1,-1,0,0,0)" x="-21.5" y="-69.5" width="21" height="69" rx="1.5" ry="1.5" color="#000000" fill="url(#a)" stroke-width="1.655"/><g transform="translate(0,-2)" fill="#0e0e0e"><path d="m21 10v6h2v-3h3v3h2v-6zm2 1h3v1h-3z"/><path d="m29 10v6h7v-6h-2v5h-3v-5h-2"/><path d="m37 10h6v1h-2v5h-2v-5h-2v-1"/><path d="m44 10v6h7v-6m-2 5h-3v-4h3z"/></g><path d="m2.0002 0c-1.0994 0-2 .90065-2 2l-6.225e-5 18c-3.8021e-6 1.0994.90065 2 2 2h66c1.0994 0 2-.90065 2-2l6.2e-5-18c4e-6-1.0994-.90065-2-2-2zm.3 1h65.4c.56265 0 1.3.73735 1.3 1.3l-6.2e-5 17.4c-1e-6.56265-.73735 1.3-1.3 1.3h-65.4c-.56265 0-1.3-.73735-1.3-1.3l6.24e-5-17.4c2e-6-.56265.73735-1.3 1.3-1.3z" color="#000000" fill="#979797" style="text-decoration-line:none;text-indent:0;text-transform:none"/></g></svg>
