<?xml version="1.0" encoding="UTF-8" standalone="no"?>
<svg
   xmlns:dc="http://purl.org/dc/elements/1.1/"
   xmlns:cc="http://creativecommons.org/ns#"
   xmlns:rdf="http://www.w3.org/1999/02/22-rdf-syntax-ns#"
   xmlns:svg="http://www.w3.org/2000/svg"
   xmlns="http://www.w3.org/2000/svg"
   id="svg17"
   version="1.1"
   height="23"
   width="71">
  <metadata
     id="metadata21">
    <rdf:RDF>
      <cc:Work
         rdf:about="">
        <dc:format>image/svg+xml</dc:format>
        <dc:type
           rdf:resource="http://purl.org/dc/dcmitype/StillImage" />
        <dc:title></dc:title>
      </cc:Work>
    </rdf:RDF>
  </metadata>
  <defs
     id="defs7">
    <linearGradient
       gradientUnits="userSpaceOnUse"
       gradientTransform="matrix(2.6957,0,0,1,-0.8478,-1025.4)"
       y2="1049"
       y1="1027.4"
       x2="13"
       x1="13"
       id="a">
      <stop
         id="stop2"
         offset="0"
         stop-color="#242424" />
      <stop
         id="stop4"
         offset="1"
         stop-color="#101010" />
    </linearGradient>
  </defs>
  <path
     style="fill:#0f0f0f;fill-opacity:1"
     d="m 22,8 v 6 h 2 v -3 h 3 v 3 h 2 V 8 Z m 2,1 h 3 v 1 h -3 z"
     id="path6042-8-4-0" />
  <path
     style="fill:#0f0f0f;fill-opacity:1"
     d="m 11,8 v 6 h 2 V 9 h 3 v 5 h 2 V 9 h 2 v 5 h 1 V 8 h -5 z"
     id="path6042-8-4-9" />
  <path
     style="fill:#0f0f0f;fill-opacity:1"
     d="m 31,8 v 6 h 2 V 9 h 2 v 5 h 2 V 8 Z"
     id="path6042-8-4-9-6" />
  <path
     style="fill:#0f0f0f;fill-opacity:1"
     id="path6042-8-4-1"
     d="m 38,8 v 6 h 7 V 8 h -2 v 5 H 40 V 8 h -2" />
  <path
     style="fill:#0f0f0f;fill-opacity:1"
     d="m 46,8 v 6 h 2 v -3 h 3 v 3 h 2 V 8 Z m 2,1 h 3 v 1 h -3 z"
     id="path6042-8-4-0-8" />
  <path
     id="path3466-9-7"
     d="m 54,8 v 6 h 6 V 13 H 56 V 8 h -2"
     style="fill:#0f0f0f;fill-opacity:1" />
  <path
     d="M 2.0001982,0 C 0.9007992,0 1.9999995e-4,0.90065 1.9999995e-4,2 L 1.3775e-4,20 c -3.80209e-6,1.0994 0.9006492,2 1.99999825,2 H 68.000002 C 69.099401,22 70,21.09935 70,20 l 6.2e-5,-18 c 4e-6,-1.0994 -0.900649,-2 -1.999998,-2 z M 2.300198,1 h 65.399866 c 0.562649,0 1.299999,0.73735 1.299999,1.3 l -6.2e-5,17.4 C 69,20.26265 68.262651,21 67.700002,21 H 2.300136 C 1.7374865,21 1.0001371,20.26265 1.0001371,19.7 L 1.0001994,2.3 C 1.0002014,1.73735 1.7375488,1 2.300198,1 Z"
     style="color:#000000;text-indent:0;text-decoration:none;text-decoration-line:none;text-transform:none;fill:#0f0f0f;fill-opacity:1"
     id="path15-3" />
</svg>
