<svg id="svg2" width="25" height="18" version="1.1" viewBox="0 0 25 18" xmlns="http://www.w3.org/2000/svg"><path id="path4448" d="m9.156 4.0005c-2.7614 1.841e-4 -5 2.2386-5 5 0 0.48325 0.090832 0.93297 0.21875 1.375l2.6562-1.5312c0.080009-1.0312 0.94822-1.8437 2-1.8438l7.6252-5e-4v-3z" fill="#f0bb2b"/><path id="path4794" transform="matrix(1.251 0 0 1.251 2.458 10.514)" d="m6.0286 4.8264-5.2277-3.0182 5.2277-3.0182z" color="#000000" fill="#f0bb2b"/><path id="path4448-5" d="m16 14c2.7614 1.84e-4 5-2.2386 5-5 0-0.48325-0.09083-0.93297-0.21875-1.375l-2.6562 1.5313c-0.08001 1.0312-0.94822 1.8438-2 1.8437l-7.625-5e-4v3z" fill="#f0bb2b"/><path id="path4794-6" transform="matrix(-1.251 0 0 -1.251 22.542 7.4862)" d="m6.0286 4.8264-5.2277-3.0182 5.2277-3.0182z" color="#000000" fill="#f0bb2b"/></svg>
