<svg width="26" height="26" version="1.1" xmlns="http://www.w3.org/2000/svg">
	<defs>
		<linearGradient id="a" x1="1.5097979" x2="24.381355" y1="12" y2="12" gradientTransform="translate(0,-24.000001)" gradientUnits="userSpaceOnUse">
			<stop stop-opacity=".0047619" offset="0"/>
			<stop stop-opacity="0" offset=".54365706"/>
			<stop stop-opacity=".47058824" offset="1"/>
		</linearGradient>
		<linearGradient id="b" x1="12.881356" x2="12.881356" y1="1.7627414" y2="24.016979" gradientTransform="translate(4.6190476,7.1904462)" gradientUnits="userSpaceOnUse">
			<stop stop-color="#777" offset="0"/>
			<stop stop-color="#777" offset=".30102351"/>
			<stop stop-color="#333" offset="1"/>
		</linearGradient>
	</defs>
	<rect transform="rotate(90)" x="1.50003" y="-24.5" width="23" height="23" color="#000000" fill="url(#a)"/>
	<path d="m24.31367 2.17583c.11592.25262.18555.52951.18555.82422v20c0 1.0994-.9006 1.965573-2 1.965572l-19.49922-2e-5c-.6598637-1e-6-1.135675-.352003-1.325-.511743.2090942.790888.7641575 1.546141 1.8242 1.546141h20c1.108 0 2-.892 2-2v-20c0-.81658-.48717-1.5129-1.1855-1.8242z" fill="#030303"/>
	<rect x="1.5" y="1.50003" width="23" height="23" rx=".30000001" ry=".30000001" fill="none" stroke="url(#b)" stroke-linecap="round" stroke-linejoin="round" style="paint-order:fill markers stroke"/>
</svg>
