<?xml version="1.0" encoding="UTF-8" standalone="no"?>
<svg
   xmlns:dc="http://purl.org/dc/elements/1.1/"
   xmlns:cc="http://creativecommons.org/ns#"
   xmlns:rdf="http://www.w3.org/1999/02/22-rdf-syntax-ns#"
   xmlns:svg="http://www.w3.org/2000/svg"
   xmlns="http://www.w3.org/2000/svg"
   version="1.1"
   height="26"
   width="26"
   id="svg25537">
  <metadata
     id="metadata15">
    <rdf:RDF>
      <cc:Work
         rdf:about="">
        <dc:format>image/svg+xml</dc:format>
        <dc:type
           rdf:resource="http://purl.org/dc/dcmitype/StillImage" />
        <dc:title></dc:title>
      </cc:Work>
    </rdf:RDF>
  </metadata>
  <defs
     id="defs25539">
    <linearGradient
       gradientUnits="userSpaceOnUse"
       gradientTransform="translate(0 -1026.4)"
       y2="1049.4"
       y1="1027.4"
       x2="13"
       x1="13"
       id="linearGradient7081">
      <stop
         offset="0"
         stop-color="#242424"
         id="stop21798" />
      <stop
         offset="1"
         stop-color="#101010"
         id="stop21800" />
    </linearGradient>
  </defs>
  <rect
     style="color:#000000;opacity:0.72000002"
     ry="2"
     rx="2"
     height="24"
     width="24"
     y="0.99997997"
     x="0.5"
     id="rect21870" />
  <rect
     fill="url(#linearGradient7081)"
     color="#000000"
     ry="2"
     rx="2"
     height="23"
     width="23"
     y=".49998"
     x=".5"
     id="rect21872" />
  <path
     fill="#060606"
     d="m11 7h5v13h-1v-7h-4v-6"
     id="path21924" />
  <path
     fill="#bfbfbf"
     d="m10 6h5v13h-1v-7h-4v-6"
     id="path21926" />
  <path
     style="block-progression:tb;text-indent:0;text-transform:none"
     fill="#444444"
     color="#000000"
     d="m2 0c-1.0994 0-2 0.9007-2 2v20c0 1.0994 0.90065 2 2 2h20c1.0994 0 2-0.9006 2-2v-20c0-1.0994-0.901-2-2-2zm0.3 1h19.4c0.563 0 1.3 0.7374 1.3 1.3v19.4c0 0.563-0.737 1.3-1.3 1.3h-19.4c-0.5626 0-1.3-0.737-1.3-1.3v-19.4c0-0.5626 0.7374-1.3 1.3-1.3z"
     id="path21950" />
</svg>
