<?xml version="1.0" encoding="UTF-8"?>
<!-- Created with Inkscape (http://www.inkscape.org/) -->
<svg id="svg2" width="26" height="26" version="1.1" xmlns="http://www.w3.org/2000/svg" xmlns:cc="http://creativecommons.org/ns#" xmlns:dc="http://purl.org/dc/elements/1.1/" xmlns:rdf="http://www.w3.org/1999/02/22-rdf-syntax-ns#">
 <defs id="defs4">
  <linearGradient id="linearGradient3878" x1="15" x2="15" y1="1049.4" y2="1027.4" gradientTransform="translate(0 -1026.4)" gradientUnits="userSpaceOnUse">
   <stop id="stop3803-7-6" stop-color="#222" offset="0"/>
   <stop id="stop3805-5-2" stop-color="#131516" offset="1"/>
  </linearGradient>
 </defs>
 <metadata id="metadata7">
  <rdf:RDF>
   <cc:Work rdf:about="">
    <dc:format>image/svg+xml</dc:format>
    <dc:type rdf:resource="http://purl.org/dc/dcmitype/StillImage"/>
    <dc:title/>
   </cc:Work>
  </rdf:RDF>
 </metadata>
 <g id="layer3">
  <rect id="rect3029-9" x=".5" y=".49998" width="23" height="23" rx="2" ry="2" color="#000000" fill="url(#linearGradient3878)"/>
  <g id="layer7" display="none">
   <path id="path3944-9" d="m10 9h3v6h-2v-5h-1v-1" display="inline" fill="#8d8f90"/>
   <path id="path3948-7" d="m13 10h1v6h-2v-1h1v-5" display="inline" fill="#080808"/>
  </g>
  <g id="layer13" display="none">
   <path id="path5770-89-8" d="m10 10h7v4h-5v1h5v1h-7v-3h5v-2h-5v-1" display="inline" fill="#080808"/>
   <path id="path5770-8-5-6" d="m9 9h7v4h-5v1h5v1h-7v-3h5v-2h-5v-1" display="inline" fill="#8d8f90"/>
  </g>
  <g id="layer19" display="none">
   <path id="path6542-5" d="m10 10h7v6h-7v-1h5v-1h-2v-1h2v-2h-5v-1" display="inline" fill="#080808"/>
   <path id="path6542" d="m9 9h7v6h-7v-1h5v-1h-2v-1h2v-2h-5v-1" fill="#8d8f90"/>
  </g>
  <g id="layer23">
   <path id="path6751-9-1-3-1" d="m10 11v3h5v2h2v-6h-2v3h-3v-2h-2" fill="#080808"/>
   <path id="path6751-6-3-5" d="m9 10v3h5v2h2v-6h-2v3h-3v-2h-2" fill="#8d8f90"/>
  </g>
  <path id="rect3029-96-0-9" d="m2 0c-1.0994 0-2 0.90065-2 2v20c0 1.0994 0.90065 2 2 2h20c1.0994 0 2-0.90065 2-2v-20c0-1.0994-0.90065-2-2-2zm0.3 1h19.4c0.56265 0 1.3 0.73735 1.3 1.3v19.4c0 0.56265-0.73735 1.3-1.3 1.3h-19.4c-0.56265 0-1.3-0.73735-1.3-1.3v-19.4c0-0.56265 0.73735-1.3 1.3-1.3z" color="#000000" fill="#454748" style="block-progression:tb;text-indent:0;text-transform:none"/>
 </g>
</svg>
