<svg width="34" height="34" version="1.1" xmlns="http://www.w3.org/2000/svg" xmlns:xlink="http://www.w3.org/1999/xlink">
	<defs>
		<linearGradient id="a" x1="2" x2="24" y1="12" y2="12" gradientTransform="matrix(1.3478261 0 0 1.3478261 -.5217492 -31.826087)" gradientUnits="userSpaceOnUse">
			<stop stop-opacity=".0047619" offset="0"/>
			<stop stop-opacity="0" offset=".5"/>
			<stop stop-opacity=".47451" offset="1"/>
		</linearGradient>
	</defs>
	<rect transform="rotate(90)" x="1.5000298" y="-32.5" width="31" height="31" rx="1.5" ry="1.5" color="#000000" fill="url(#a)"/>
	<g transform="translate(0,8)" display="none">
		<g display="inline">
			<path d="m10 10h7v4h-5v1h5v1h-7v-3h5v-2h-5v-1" fill="#323232"/>
			<path d="m9 9h7v4h-5v1h5v1h-7v-3h5v-2h-5v-1" fill="#dcdcdc"/>
		</g>
	</g>
	<g transform="translate(0,8)" display="none">
		<g display="inline">
			<path d="m10 10h7v6h-7v-1h5v-1h-2v-1h2v-2h-5v-1" fill="#323232"/>
			<path d="m9 9h7v6h-7v-1h5v-1h-2v-1h2v-2h-5v-1" fill="#dcdcdc"/>
		</g>
	</g>
	<g transform="translate(0,8)" display="none">
		<g display="inline">
			<path d="m10 11v3h5v2h2v-6h-2v3h-3v-2h-2" fill="#323232"/>
			<path d="m9 10v3h5v2h2v-6h-2v3h-3v-2h-2" fill="#dcdcdc"/>
		</g>
	</g>
	<g transform="translate(0,8)" display="none">
		<g display="inline">
			<path d="m17 10h-6v3h4v2h-5v1h7v-4h-5v-1h5v-1" fill="#323232"/>
			<path d="m16 9h-6v3h4v2h-5v1h7v-4h-5v-1h5v-1" fill="#dcdcdc"/>
		</g>
	</g>
	<g transform="translate(0,8)" display="none">
		<g display="inline">
			<path d="m10 10v6h7v-4h-5v-1h4v-1zm2 3h4v2h-4z" fill="#323232"/>
			<path d="m9 9v6h7v-4h-5v-1h4v-1zm2 3h4v2h-4z" fill="#dcdcdc"/>
		</g>
	</g>
	<g transform="translate(0,8)" display="none">
		<g display="inline">
			<path d="m10 10h6v3h1v1h-1v2h-2v-2h-2v-1h2v-2h-4v-1" fill="#323232"/>
			<path d="m9 9h6v3h1v1h-1v2h-2v-2h-2v-1h2v-2h-4v-1" fill="#dcdcdc"/>
		</g>
	</g>
	<g transform="translate(0,8)" display="none">
		<path d="m11 10v2h-1v4h7v-4h-1v-2zm2 1h2v1h-2zm-1 2h4v2h-4z" fill="#323232"/>
		<path d="m10 9v2h-1v4h7v-4h-1v-2zm2 1h2v1h-2zm-1 2h4v2h-4z" fill="#dcdcdc"/>
	</g>
	<rect x="1.5" y="1.5000311" width="31" height="31" rx=".30000001" ry=".30000001" fill="none" stroke="#080808" stroke-linecap="round" stroke-linejoin="round" style="paint-order:fill markers stroke"/>
</svg>
