<?xml version="1.0" encoding="UTF-8" standalone="no"?>
<!-- Created with Inkscape (http://www.inkscape.org/) -->

<svg
   xmlns:dc="http://purl.org/dc/elements/1.1/"
   xmlns:cc="http://creativecommons.org/ns#"
   xmlns:rdf="http://www.w3.org/1999/02/22-rdf-syntax-ns#"
   xmlns:svg="http://www.w3.org/2000/svg"
   xmlns="http://www.w3.org/2000/svg"
   version="1.1"
   width="25"
   height="18"
   viewBox="0 0 25 18"
   id="svg2">
  <metadata
     id="metadata10">
    <rdf:RDF>
      <cc:Work
         rdf:about="">
        <dc:format>image/svg+xml</dc:format>
        <dc:type
           rdf:resource="http://purl.org/dc/dcmitype/StillImage" />
        <dc:title></dc:title>
      </cc:Work>
    </rdf:RDF>
  </metadata>
  <defs
     id="defs8" />
  <path
     d="M 4,4 4,14 6,14 6,4 z"
     id="path3805"
     style="fill:#585858;fill-opacity:1" />
  <path
     d="M 9,4.0000003 9,14 l 2,0 0,-9.9999997 z"
     id="path3805-6"
     style="fill:#585858;fill-opacity:1" />
  <path
     d="M 14,4.0000002 14,14 l 2,0 0,-9.9999998 z"
     id="path3805-7"
     style="fill:#585858;fill-opacity:1" />
  <path
     d="M 19,4.0000002 19,14 l 2,0 0,-9.9999998 z"
     id="path3805-6-5"
     style="fill:#585858;fill-opacity:1" />
  <path
     d="m 4,-13 0,12 2,0 0,-12 z"
     id="path3805-3"
     style="fill:#55f864;fill-opacity:1" />
  <path
     d="m 9,-13 0,12 2,0 0,-12 z"
     id="path3805-6-56"
     style="fill:#55f864;fill-opacity:1" />
  <path
     d="m 14,-13 0,12 2,0 0,-12 z"
     id="path3805-7-2"
     style="fill:#55f864;fill-opacity:1" />
  <path
     d="m 19,-13 0,12 2,0 0,-12 z"
     id="path3805-6-5-9"
     style="fill:#55f864;fill-opacity:1" />
</svg>
