<svg id="svg4724" width="20" height="40" version="1.1" xmlns="http://www.w3.org/2000/svg"><defs id="defs4726"><linearGradient id="linearGradient5772-6" x1="20" x2="20" y1="1042.4" y2="1035.4" gradientTransform="matrix(1,0,0,-1,0,1068.3)" gradientUnits="userSpaceOnUse"><stop id="stop5768-7" stop-color="#c8c8c8" offset="0"/><stop id="stop5770-5" stop-color="#646464" offset="1"/></linearGradient><linearGradient id="linearGradient5254-3" x1="13" x2="13" y1="1027.4" y2="1049.4" gradientTransform="matrix(1.4783 0 0 .82609 1.7609 -829.81)" gradientUnits="userSpaceOnUse"><stop id="stop3803-7-5" stop-color="#242424" offset="0"/><stop id="stop3805-5-6" stop-color="#101010" offset="1"/></linearGradient></defs><path id="rect3029" d="m2.5 0.50002h15c1.108 0 2 0.892 2 2v35c0 1.108-0.892 2-2 2h-15c-1.108 0-2-0.892-2-2v-35c0-1.108 0.892-2 2-2z" color="#000000" fill="url(#linearGradient5254-3)"/><path id="rect3029-96-0-7" d="m2.5 0.5c-1.0994 0-2 0.9006-2 2v1.5h19v-1.5c0-1.0994-0.90065-2-2-2z" color="#000000" fill="#c8c8c8" style="text-decoration-line:none;text-indent:0;text-transform:none"/><path id="rect3029-96-0" d="m2 40c-1.0994 0-2-0.9006-2-2v-36c0-1.0994 0.90065-2 2-2h16c1.0994 0 2 0.9006 2 2v36c0 1.0994-0.90065 2-2 2zm0.3-1h15.4c0.56265 0 1.3-0.7374 1.3-1.3v-35.4c0-0.5626-0.73735-1.3-1.3-1.3h-15.4c-0.56265 0-1.3 0.7374-1.3 1.3v35.4c0 0.5626 0.73735 1.3 1.3 1.3z" color="#000000" fill="url(#linearGradient5772-6)" style="text-decoration-line:none;text-indent:0;text-transform:none"/><path id="path2" d="m14.708 30-4.708-4.7081-4.708 4.7081-1.177-1.1771 5.885-5.8851 5.885 5.8851-1.177 1.1771z" fill="#888"/><path id="path2-3" d="m14.708 12-4.7081 4.7081-4.7081-4.7081-1.1771 1.1771 5.8851 5.8851 5.8851-5.8851-1.1771-1.1771z" fill="#888"/></svg>
