<svg width="26" height="26" version="1.1" xmlns="http://www.w3.org/2000/svg"><defs><linearGradient id="a" x1="15" x2="15" y1="1049.4" y2="1027.4" gradientTransform="translate(0 -1026.4)" gradientUnits="userSpaceOnUse"><stop stop-color="#222" offset="0"/><stop stop-color="#131516" offset="1"/></linearGradient></defs><rect x=".5" y=".49998" width="23" height="23" rx="2" ry="2" color="#000000" fill="url(#a)"/><path d="m2 0c-1.0994 0-2 .90065-2 2v20c0 1.0994.90065 2 2 2h20c1.0994 0 2-.90065 2-2v-20c0-1.0994-.90065-2-2-2zm.3 1h19.4c.56265 0 1.3.73735 1.3 1.3v19.4c0 .56265-.73735 1.3-1.3 1.3h-19.4c-.56265 0-1.3-.73735-1.3-1.3v-19.4c0-.56265.73735-1.3 1.3-1.3z" color="#000000" fill="#454748" style="block-progression:tb;text-indent:0;text-transform:none"/></svg>
