<svg id="svg2" width="34" height="15" version="1.1" xmlns="http://www.w3.org/2000/svg"><g id="layer1" transform="translate(0 -1037.4)"><path id="path3143" transform="translate(0 1037.4)" d="m1 3v9h9v-2h-7v-7h-2" fill="#6a6a6a"/><path id="path3147" transform="translate(0 1037.4)" d="m12 3v9h2v-5h1v1h1v1h2v-1h1v-1h1v5h2v-9h-2v1h-1v1h-1v1h-2v-1h-1v-1h-1v-1h-2" fill="#c8c8c8"/><path id="path3151-6" d="m24 1040.4v9h2v-3h4v1h1v1h1v1h2v-2h-1v-1h-1v-1h1v-4h-1v-1zm2 2h5v2h-5z" fill="#6a6a6a"/></g></svg>
