<?xml version="1.0" encoding="UTF-8" standalone="no"?>
<!-- Created with Inkscape (http://www.inkscape.org/) -->

<svg
   xmlns:dc="http://purl.org/dc/elements/1.1/"
   xmlns:cc="http://creativecommons.org/ns#"
   xmlns:rdf="http://www.w3.org/1999/02/22-rdf-syntax-ns#"
   xmlns:svg="http://www.w3.org/2000/svg"
   xmlns="http://www.w3.org/2000/svg"
   version="1.1"
   width="26"
   height="26"
   id="svg4272">
  <metadata
     id="metadata4284">
    <rdf:RDF>
      <cc:Work
         rdf:about="">
        <dc:format>image/svg+xml</dc:format>
        <dc:type
           rdf:resource="http://purl.org/dc/dcmitype/StillImage" />
        <dc:title></dc:title>
      </cc:Work>
    </rdf:RDF>
  </metadata>
  <defs
     id="defs4282" />
  <g
     id="layer3"
     style="display:inline">
    <path
       d="m 6,6.000125 c -1.644703,-1.028e-4 -3,1.355297 -3,3 l 0,7.00025 c 0,1.644705 1.355294,3.000023 3,3 l 1.00025,-1.25e-4 0,3 6.99975,-3.75 -6.999875,-3.750062 0,3 -1.00025,1.24e-4 C 5.2530103,17.500405 4.4999724,16.733185 4.5,16.000375 l 0,-7.00025 C 4.5,8.288378 5.2670519,7.500188 6,7.500188 L 8,7.500312 8,6.00025 z"
       id="path4276"
       style="color:#000000;fill:#8d8f90;fill-opacity:1;marker:none;overflow:visible" />
    <path
       d="m 10,3 2,0 0,8 -2,0 z"
       id="path3871"
       style="color:#000000;fill:#8d8f90;fill-opacity:1;marker:none;overflow:visible" />
    <path
       d="m 16,6.000125 c 1.644703,-1.028e-4 3,1.355297 3,3 l 0,7.00025 c 0,1.644705 -1.355294,3.000023 -3,3 l -1.00025,-6.3e-5 5e-4,-1.500124 1.00025,6.2e-5 c 0.78903,4.9e-5 1.499527,-0.788131 1.4995,-1.499875 l 0,-7.00025 c 0,-0.725791 -0.753266,-1.499914 -1.500125,-1.499937 l -1.99975,1.25e-4 1.25e-4,-1.500063 z"
       id="path4278"
       style="color:#000000;fill:#8d8f90;fill-opacity:1;marker:none;overflow:visible" />
  </g>
  <g
     id="layer4"
     style="display:none">
    <path
       d="m 6,6.000125 c -1.644703,-1.028e-4 -3,1.355297 -3,3 l 0,7.00025 c 0,1.644705 1.355294,3.000023 3,3 l 1.00025,-1.25e-4 0,3 6.99975,-3.75 -6.999875,-3.750062 0,3 -1.00025,1.24e-4 C 5.2530103,17.500405 4.4999724,16.733185 4.5,16.000375 l 0,-7.00025 C 4.5,8.288378 5.2670519,7.500188 6,7.500188 L 8,7.500312 8,6.00025 z"
       id="path4276-5"
       style="color:#000000;fill:#bfbfbf;fill-opacity:1;marker:none;overflow:visible" />
    <path
       d="m 10,3 2,0 0,8 -2,0 z"
       id="path3871-3"
       style="color:#000000;fill:#bfbfbf;fill-opacity:1;marker:none;overflow:visible" />
    <path
       d="m 16,6.000125 c 1.644703,-1.028e-4 3,1.355297 3,3 l 0,7.00025 c 0,1.644705 -1.355294,3.000023 -3,3 l -1.00025,-6.3e-5 5e-4,-1.500124 1.00025,6.2e-5 c 0.78903,4.9e-5 1.499527,-0.788131 1.4995,-1.499875 l 0,-7.00025 c 0,-0.725791 -0.753266,-1.499914 -1.500125,-1.499937 l -1.99975,1.25e-4 1.25e-4,-1.500063 z"
       id="path4278-5"
       style="color:#000000;fill:#bfbfbf;fill-opacity:1;marker:none;overflow:visible" />
  </g>
</svg>
