<svg id="svg2" width="52" height="26" version="1.1" xmlns="http://www.w3.org/2000/svg"><defs id="defs4"><linearGradient id="linearGradient4650" x1="11" x2="11" y1="1027.4" y2="1049.4" gradientTransform="matrix(2.1304 0 0 1 -.56522 -1050.4)" gradientUnits="userSpaceOnUse"><stop id="stop3803-7-1-95" stop-color="#ce0e0e" offset="0"/><stop id="stop4329-2" stop-color="#d00" offset=".28"/><stop id="stop3805-5-28-1" stop-color="#8d0000" offset="1"/></linearGradient></defs><g id="layer4"><rect id="rect3029-96-3" transform="scale(1,-1)" x=".5" y="-23.5" width="49" height="23" rx="1.5" ry="1.5" color="#000000" fill="url(#linearGradient4650)"/><path id="rect3029-96" d="m2 0c-1.0994 0-2 0.90065-2 2v20c0 1.0994 0.90065 2 2 2h46c1.0994 0 2-0.90065 2-2v-20c0-1.0994-0.90065-2-2-2zm0.3 1h45.4c0.56265 0 1.3 0.73735 1.3 1.3v19.4c0 0.56265-0.73735 1.3-1.3 1.3h-45.4c-0.56265 0-1.3-0.73735-1.3-1.3v-19.4c0-0.56265 0.73735-1.3 1.3-1.3z" color="#000000" fill="#979797" style="block-progression:tb;text-indent:0;text-transform:none"/><g id="layer20"><g id="g5548" fill="#bfbfbf"><path id="path5532" d="m17 9h-7v4h5v1h-5v1h7v-3h-5v-2h5v-1"/><path id="path5536" d="m18 9v1h1v1h1v4h2v-4h1v-1h1v-1h-2v1h-2v-1h-2"/><path id="path5540" d="m26 9v6h2v-5h3v5h2v-6h-7"/><path id="path5544" d="m34 9v6h7v-1h-5v-4h5v-1h-7"/></g><g id="g5586" fill="#3d0000"><path id="path5554" d="m18 10h-6v2h1v-1h5v-1"/><path id="path5558" d="m17 13h1v3h-7v-1h6v-2"/><path id="path5562" d="m15 13v1h-4v-1h4"/><path id="path5566" d="m23 10v1h-1v4h-1v1h2v-4h1v-1h1v-1h-2"/><path id="path5570" d="m27 15v1h2v-5h2v-1h-3v5h-1"/><path id="path5574" d="m33 10h1v6h-2v-1h1v-5"/><path id="path5578" d="m42 10h-6v4h1v-3h5v-1"/><path id="path5582" d="m42 15v1h-7v-1h7"/></g></g></g></svg>
