<?xml version="1.0" encoding="UTF-8" standalone="no"?>
<svg
   xmlns:dc="http://purl.org/dc/elements/1.1/"
   xmlns:cc="http://creativecommons.org/ns#"
   xmlns:rdf="http://www.w3.org/1999/02/22-rdf-syntax-ns#"
   xmlns:svg="http://www.w3.org/2000/svg"
   xmlns="http://www.w3.org/2000/svg"
   version="1.1"
   height="26"
   width="52"
   id="svg2">
  <metadata
     id="metadata24">
    <rdf:RDF>
      <cc:Work
         rdf:about="">
        <dc:format>image/svg+xml</dc:format>
        <dc:type
           rdf:resource="http://purl.org/dc/dcmitype/StillImage" />
        <dc:title></dc:title>
      </cc:Work>
    </rdf:RDF>
  </metadata>
  <defs
     id="defs4">
    <linearGradient
       gradientUnits="userSpaceOnUse"
       gradientTransform="matrix(2.1304,0,0,1,-0.56522,-1026.4)"
       y2="1027.4"
       y1="1049.4"
       x2="15"
       x1="15"
       id="linearGradient3878">
      <stop
         offset="0"
         stop-color="#222"
         id="stop3803-7-6" />
      <stop
         offset="1"
         stop-color="#131516"
         id="stop3805-5-2" />
    </linearGradient>
  </defs>
  <path
     style="color:#000000;fill:url(#linearGradient3878)"
     d="m 4.5,0.49998 h 43 c 1.108,0 2,0.892 2,2 v 19 c 0,1.108 -0.892,2 -2,2 h -43 c -1.108,0 -2,-0.892 -2,-2 v -19 c 0,-1.108 0.892,-2 2,-2 z"
     id="rect3029-9" />
  <path
     id="rect3029-96-0-9"
     d="M 4,0 C 2.9006,0 2,0.90065 2,2 v 20 c 0,1.0994 0.90065,2 2,2 h 44 c 1.0994,0 2,-0.90065 2,-2 V 2 C 50,0.9006 49.09935,0 48,0 Z M 4.3,1 H 47.7 C 48.26265,1 49,1.73735 49,2.3 V 21.7 C 49,22.26265 48.26265,23 47.7,23 H 4.3 C 3.73735,23 3,22.26265 3,21.7 V 2.3 C 3,1.73735 3.73735,1 4.3,1 Z"
     style="color:#000000;text-indent:0;text-transform:none;fill:#454748" />
  <g
     id="g6087-0-4-6"
     style="fill:#8d8f90">
    <path
       id="path6038-8-4-4"
       d="m 20,9 h -7 v 6 h 7 v -1 h -5 v -4 h 5 V 9" />
    <path
       id="path6042-8-4-3"
       d="m 22,9 v 6 h 7 V 9 h -2 v 5 H 24 V 9 h -2" />
    <path
       id="path6046-5-4-3"
       d="m 31,9 v 6 h 7 v -1 h -5 v -2 h 4 v -1 h -4 v -1 h 5 V 9 h -7" />
  </g>
  <g
     id="g6078-0-7-3"
     style="fill:#080808">
    <path
       id="path6050-9-6-8"
       d="m 21,10 h -6 v 4 h 1 v -3 h 5 v -1" />
    <path
       id="path6054-6-3-6"
       d="m 21,15 v 1 h -7 v -1 h 7" />
    <path
       id="path6058-3-1-0"
       d="m 24,10 h 1 v 4 h -1 v -4" />
    <path
       id="path6062-8-7-4"
       d="m 23,15 v 1 h 7 v -6 h -1 v 5 h -6" />
    <path
       id="path6066-5-5-8"
       d="m 39,10 h -6 v 1 h 6 v -1" />
    <path
       id="path6070-6-9-8"
       d="m 38,12 h -5 v 2 h 1 v -1 h 4 v -1" />
    <path
       id="path6074-1-6-8"
       d="m 39,15 v 1 h -7 v -1 h 7" />
  </g>
</svg>
