<?xml version="1.0" encoding="UTF-8" standalone="no"?>
<!-- Created with Inkscape (http://www.inkscape.org/) -->

<svg
   xmlns:dc="http://purl.org/dc/elements/1.1/"
   xmlns:cc="http://creativecommons.org/ns#"
   xmlns:rdf="http://www.w3.org/1999/02/22-rdf-syntax-ns#"
   xmlns:svg="http://www.w3.org/2000/svg"
   xmlns="http://www.w3.org/2000/svg"
   version="1.1"
   width="20"
   height="20"
   viewBox="0 0 20 20"
   id="svg3505">
  <metadata
     id="metadata3513">
    <rdf:RDF>
      <cc:Work
         rdf:about="">
        <dc:format>image/svg+xml</dc:format>
        <dc:type
           rdf:resource="http://purl.org/dc/dcmitype/StillImage" />
        <dc:title></dc:title>
      </cc:Work>
    </rdf:RDF>
  </metadata>
  <defs
     id="defs3511" />
  <path
     d="M 5.5286634,4.7729214 C 5.3280198,4.766417 5.1316506,4.8340629 4.9828665,4.9828429 4.6852983,5.280411 4.7074447,5.778023 5.0248508,6.0954295 L 8.9293986,9.9999773 5.0248508,13.904525 c -0.3174062,0.317405 -0.3395526,0.815017 -0.041984,1.112586 0.2975681,0.297569 0.7951801,0.275422 1.1125861,-0.04198 L 10,11.070581 l 3.904549,3.904547 c 0.317405,0.317407 0.815017,0.339554 1.112585,0.04198 0.297569,-0.297569 0.275422,-0.795181 -0.04198,-1.112586 L 11.070604,9.9999773 14.975152,6.0954295 C 15.292558,5.778023 15.314705,5.280411 15.017134,4.9828429 14.719566,4.6852749 14.221954,4.7074207 13.904549,5.024825 L 10,8.9293751 6.0954526,5.0248273 C 5.9367496,4.866124 5.7293072,4.7793939 5.5286634,4.7729214 z"
     id="path3507"
     style="fill:#eeeeee;fill-opacity:1" />
</svg>
