<svg width="42" height="24" version="1.1" xmlns="http://www.w3.org/2000/svg"><defs><linearGradient id="a" x1="13" x2="13" y1="1027.4" y2="1049.4" gradientTransform="matrix(2.1304 0 0 1 -.56522 -1028.4)" gradientUnits="userSpaceOnUse"><stop stop-color="#242424" offset="0"/><stop stop-color="#101010" offset="1"/></linearGradient></defs><path d="m2.5 1h36c1.108 0 2 .892 2 2v18c0 1.108-.892 2-2 2h-36c-1.108 0-2-.892-2-2v-18c0-1.108.892-2 2-2z" color="#000000" opacity=".9"/><path d="m2.5.49998h35.015c1.108 0 2 .892 2 2v17c0 1.108-.892 2-2 2h-35.015c-1.108 0-2-.892-2-2v-17c0-1.108.892-2 2-2z" color="#000000" fill="url(#a)"/><path d="m2 0c-1.0994 0-2 .90065-2 2v18c0 1.0994.90065 2 2 2h36c1.0994 0 2-.90065 2-2v-18c0-1.0994-.90065-2-2-2zm.3 1h35.4c.56265 0 1.3.73735 1.3 1.3v17.4c0 .56265-.73735 1.3-1.3 1.3h-35.4c-.56265 0-1.3-.73735-1.3-1.3v-17.4c0-.56265.73735-1.3 1.3-1.3z" color="#000000" fill="#444" style="text-indent:0;text-transform:none"/><g fill="#060606"><path d="m6 9h6v1h-2v5h-2v-5h-2v-1"/><path d="m14 9v6h2v-2h3v2h2v-6zm2 1h3v2h-3z"/><path d="m22 9v6h7v-1h-5v-5h-2"/></g><g fill="#bfbfbf"><path d="m5 8h6v1h-2v5h-2v-5h-2v-1"/><path d="m13 8v6h2v-2h3v2h2v-6zm2 1h3v2h-3z"/><path d="m21 8v6h7v-1h-5v-5h-2"/></g><path d="m30 15v-6h2v2h1.5l2-2h1.5v.5l-2 2v1l2 2v.5h-1.5l-2-2h-1.5v2z" fill="#060606"/><path d="m29 14v-6h2v2h1.5l2-2h1.5v.5l-2 2v1l2 2v.5h-1.5l-2-2h-1.5v2z" fill="#bfbfbf"/></svg>
