<svg width="25" height="25" version="1.1" xmlns="http://www.w3.org/2000/svg">
	<defs>
		<linearGradient id="a" x1="2" x2="22" y1="2" y2="22" gradientTransform="matrix(1.0476191 0 0 1.0476191 -.07142871 -.0714286)" gradientUnits="userSpaceOnUse">
			<stop offset="0"/>
			<stop offset=".5"/>
			<stop stop-color="#333" stop-opacity=".97474748" offset=".5"/>
			<stop stop-color="#333" offset="1"/>
		</linearGradient>
		<linearGradient id="b" x1="3.0040741e-5" x2="24.000031" y1="-12" y2="-12" gradientUnits="userSpaceOnUse">
			<stop stop-color="#f60" offset="0"/>
			<stop stop-color="#bf4c00" offset="1"/>
		</linearGradient>
	</defs>
	<path d="m23.31367 1.17583c.11592.25262.18555.52951.18555.82422v20c0 1.0994-.9006 1.965573-2 1.965572l-19.49922-2e-5c-.6598637-1e-6-1.135675-.352003-1.325-.511743.2090942.790888.7641575 1.546141 1.8242 1.546141h20c1.108 0 2-.892 2-2v-20c0-.81658-.48717-1.5129-1.1855-1.8242z" fill="#030303"/>
	<g fill="none">
		<rect x=".5" y=".5" width="24" height="24" stroke="#111" stroke-linecap="square" style="paint-order:fill markers stroke"/>
		<rect x="1.4999999" y="1.5" width="22" height="22.000002" stroke="url(#a)" stroke-linecap="square" style="paint-order:fill markers stroke"/>
		<rect transform="rotate(90)" x=".50002998" y="-23.5" width="23" height="23" rx=".30000001" ry=".30000001" stroke="url(#b)" stroke-linecap="round" stroke-linejoin="round" style="paint-order:fill markers stroke"/>
	</g>
</svg>
