<?xml version="1.0" encoding="utf-8"?>
<!-- Generator: Adobe Illustrator 23.0.6, SVG Export Plug-In . SVG Version: 6.00 Build 0)  -->
<svg version="1.1"
	 id="svg6" inkscape:version="0.92.2 5c3e80d, 2017-08-06" xmlns:cc="http://creativecommons.org/ns#" xmlns:dc="http://purl.org/dc/elements/1.1/" xmlns:inkscape="http://www.inkscape.org/namespaces/inkscape" xmlns:rdf="http://www.w3.org/1999/02/22-rdf-syntax-ns#" xmlns:sodipodi="http://sodipodi.sourceforge.net/DTD/sodipodi-0.dtd" xmlns:svg="http://www.w3.org/2000/svg"
	 xmlns="http://www.w3.org/2000/svg" xmlns:xlink="http://www.w3.org/1999/xlink" x="0px" y="0px" viewBox="0 0 50 45"
	 style="enable-background:new 0 0 50 45;" xml:space="preserve">
<style type="text/css">
	.st0{fill:#888888;}
</style>
<g>
	<g>
		<path class="st0" d="M25.1,24.9c-0.5,0-1.1-0.2-1.5-0.6S23,23.4,23,22.8s0.2-1.1,0.6-1.5s0.9-0.6,1.5-0.6s1.1,0.2,1.5,0.6
			s0.6,0.9,0.6,1.5s-0.2,1.1-0.6,1.5C26.2,24.7,25.7,24.9,25.1,24.9z"/>
	</g>
	<g>
		<path class="st0" d="M18.7,30.7c-0.4,0-0.7-0.1-1-0.4c-2-2-3.1-4.6-3.1-7.4s1.1-5.5,3.1-7.4c0.5-0.5,1.4-0.5,1.9,0s0.5,1.4,0,1.9
			c-1.5,1.5-2.3,3.4-2.3,5.5s0.8,4,2.3,5.5c0.5,0.5,0.5,1.4,0,1.9C19.4,30.6,19,30.7,18.7,30.7z"/>
	</g>
	<g>
		<path class="st0" d="M31.6,30.7c-0.4,0-0.7-0.1-1-0.4c-0.5-0.5-0.5-1.4,0-1.9c1.5-1.5,2.3-3.4,2.3-5.5s-0.8-4-2.3-5.5
			c-0.5-0.5-0.5-1.4,0-1.9s1.4-0.5,1.9,0c2,2,3.1,4.6,3.1,7.4s-1.1,5.5-3.1,7.4C32.3,30.6,32,30.7,31.6,30.7z"/>
	</g>
	<g>
		<path class="st0" d="M21.7,27.7c-0.4,0-0.7-0.1-1-0.4c-1.2-1.2-1.8-2.8-1.8-4.5s0.7-3.3,1.8-4.5c0.5-0.5,1.4-0.5,1.9,0
			s0.5,1.4,0,1.9c-0.7,0.7-1,1.6-1,2.5s0.4,1.8,1,2.5c0.5,0.5,0.5,1.4,0,1.9C22.4,27.6,22,27.7,21.7,27.7z"/>
	</g>
	<g>
		<path class="st0" d="M28.6,27.7c-0.4,0-0.7-0.1-1-0.4c-0.5-0.5-0.5-1.4,0-1.9c0.7-0.7,1-1.6,1-2.5s-0.4-1.8-1-2.5
			c-0.5-0.5-0.5-1.4,0-1.9s1.4-0.5,1.9,0c1.2,1.2,1.8,2.8,1.8,4.5s-0.7,3.3-1.8,4.5C29.3,27.6,29,27.7,28.6,27.7z"/>
	</g>
</g>
</svg>
