<?xml version="1.0" encoding="utf-8"?>
<!-- Generator: Adobe Illustrator 23.0.6, SVG Export Plug-In . SVG Version: 6.00 Build 0)  -->
<svg version="1.1"
	 id="svg6" inkscape:version="0.92.2 5c3e80d, 2017-08-06" xmlns:cc="http://creativecommons.org/ns#" xmlns:dc="http://purl.org/dc/elements/1.1/" xmlns:inkscape="http://www.inkscape.org/namespaces/inkscape" xmlns:rdf="http://www.w3.org/1999/02/22-rdf-syntax-ns#" xmlns:sodipodi="http://sodipodi.sourceforge.net/DTD/sodipodi-0.dtd" xmlns:svg="http://www.w3.org/2000/svg"
	 xmlns="http://www.w3.org/2000/svg" xmlns:xlink="http://www.w3.org/1999/xlink" x="0px" y="0px" viewBox="0 0 48 45"
	 style="enable-background:new 0 0 48 45;" xml:space="preserve">
<style type="text/css">
	.st0{fill:#82D141;}
</style>
<g>
	<path class="st0" d="M19,21.8c-1,0-1.8,0.8-1.8,1.8c0,1,0.8,1.8,1.8,1.8c1,0,1.8-0.8,1.8-1.8c0,0,0,0,0,0
		C20.8,22.6,20,21.8,19,21.8z"/>
	<path class="st0" d="M29,21.8c-1,0-1.8,0.8-1.8,1.8c0,1,0.8,1.8,1.8,1.8c1,0,1.8-0.8,1.8-1.8c0,0,0,0,0,0
		C30.8,22.6,30,21.8,29,21.8z"/>
	<path class="st0" d="M37.5,20.4h-0.5v-3.2c0-1.7-1.4-3.1-3.1-3.1h-9.2V7.8C24.8,7.3,24.4,7,24,7s-0.8,0.3-0.8,0.8v6.4H14
		c-1.7,0-3.1,1.4-3.1,3.1v3.2h-0.5c-1.3,0-2.3,1-2.3,2.3v4.6c0,1.3,1,2.3,2.3,2.3h0.5v5.2c0,1.7,1.4,3.1,3.1,3.1H34
		c1.7,0,3.1-1.4,3.1-3.1v-5.2h0.5c1.3,0,2.3-1,2.3-2.3v-4.6C39.8,21.5,38.8,20.4,37.5,20.4z M15.6,23.6c0-1.9,1.5-3.4,3.4-3.4
		c1.9,0,3.4,1.5,3.4,3.4c0,1.9-1.5,3.4-3.4,3.4C17.1,27,15.6,25.4,15.6,23.6z M28.7,32.5h-9.5V31h9.5V32.5z M32.4,23.6
		c0,1.9-1.6,3.4-3.4,3.4s-3.4-1.6-3.4-3.4c0-1.9,1.6-3.4,3.4-3.4c0,0,0,0,0,0C30.9,20.2,32.4,21.7,32.4,23.6
		C32.4,23.6,32.4,23.6,32.4,23.6z"/>
</g>
</svg>
