<?xml version="1.0" encoding="utf-8"?>
<!-- Generator: Adobe Illustrator 23.0.6, SVG Export Plug-In . SVG Version: 6.00 Build 0)  -->
<svg version="1.1"
	 id="svg6" inkscape:version="0.92.2 5c3e80d, 2017-08-06" xmlns:cc="http://creativecommons.org/ns#" xmlns:dc="http://purl.org/dc/elements/1.1/" xmlns:inkscape="http://www.inkscape.org/namespaces/inkscape" xmlns:rdf="http://www.w3.org/1999/02/22-rdf-syntax-ns#" xmlns:sodipodi="http://sodipodi.sourceforge.net/DTD/sodipodi-0.dtd" xmlns:svg="http://www.w3.org/2000/svg"
	 xmlns="http://www.w3.org/2000/svg" xmlns:xlink="http://www.w3.org/1999/xlink" x="0px" y="0px" viewBox="0 0 48 45"
	 style="enable-background:new 0 0 48 45;" xml:space="preserve">
<style type="text/css">
	.st0{fill:#82D141;}
	.st1{fill:#262626;}
</style>
<sodipodi:namedview  bordercolor="#666666" borderopacity="1" gridtolerance="10" guidetolerance="10" id="namedview8" inkscape:current-layer="svg6" inkscape:cx="17.242885" inkscape:cy="6.9979487" inkscape:pageopacity="0" inkscape:pageshadow="2" inkscape:snap-global="true" inkscape:window-height="1010" inkscape:window-maximized="0" inkscape:window-width="827" inkscape:window-x="845" inkscape:window-y="6" inkscape:zoom="17.566022" objecttolerance="10" pagecolor="#ffffff" showgrid="true">
	<inkscape:grid  id="grid828" type="xygrid"></inkscape:grid>
</sodipodi:namedview>
<g>
	<path class="st0" d="M31.3,34.2c-1.3,0-2.4-1.1-2.4-2.4v-7.2c0-1.3,1.1-2.4,2.4-2.4h1c0.3,0,0.5,0.1,0.7,0.1
		c-0.1-4.9-4.1-8.8-9-8.8s-8.9,3.9-9,8.8c0.3-0.1,0.4-0.1,0.7-0.1h1c1.3,0,2.4,1.1,2.4,2.4v7.3c0,1.3-1.1,2.4-2.4,2.4h-1
		c-1.3,0-2.4-1.1-2.4-2.4v-1.8c-0.6-0.1-1-0.7-1-1.3v-6.2c0-6.5,5.2-11.7,11.7-11.7s11.7,5.2,11.7,11.7v6.2c0,0.6-0.4,1.2-1,1.3v1.8
		c0,1.3-1.1,2.4-2.4,2.4C32.3,34.2,31.3,34.2,31.3,34.2z"/>
	<path class="st1" d="M24,11.2c6.3,0,11.4,5.1,11.4,11.4v6.2c0,0.6-0.4,1-1,1v2.1c0,1.1-0.9,2.1-2.1,2.1h-1c-1.1,0-2.1-0.9-2.1-2.1
		v-7.2c0-1.1,0.9-2.1,2.1-2.1h1c0.4,0,0.7,0.1,1,0.3v-0.3c0-5.1-4.2-9.3-9.3-9.3s-9.3,4.2-9.3,9.3v0.3c0.3-0.2,0.7-0.3,1-0.3h1
		c1.1,0,2.1,0.9,2.1,2.1v7.3c0,1.1-0.9,2.1-2.1,2.1h-1c-1.1,0-2.1-0.9-2.1-2.1v-2.1c-0.6,0-1-0.5-1-1.1v-6.2
		C12.6,16.3,17.7,11.2,24,11.2 M24,10.5c-6.6,0-12,5.4-12,12v6.2c0,0.7,0.4,1.3,1,1.5v1.6c0,1.5,1.2,2.7,2.7,2.7h1
		c1.5,0,2.7-1.2,2.7-2.7v-7.2c0-1.5-1.2-2.7-2.7-2.7h-1c-0.1,0-0.3,0-0.4,0c0.3-4.5,4.1-8,8.7-8s8.3,3.5,8.7,8.1c-0.1,0-0.3,0-0.4,0
		h-1c-1.5,0-2.7,1.2-2.7,2.7v7.3c0,1.5,1.2,2.7,2.7,2.7h1c1.5,0,2.7-1.2,2.7-2.7v-1.6c0.6-0.3,1-0.8,1-1.5v-6.2
		C36,15.9,30.6,10.5,24,10.5L24,10.5z"/>
</g>
</svg>
