<?xml version="1.0" encoding="utf-8"?>
<!-- Generator: Adobe Illustrator 23.0.6, SVG Export Plug-In . SVG Version: 6.00 Build 0)  -->
<svg version="1.1"
	 id="svg6" inkscape:version="0.92.2 5c3e80d, 2017-08-06" xmlns:cc="http://creativecommons.org/ns#" xmlns:dc="http://purl.org/dc/elements/1.1/" xmlns:inkscape="http://www.inkscape.org/namespaces/inkscape" xmlns:rdf="http://www.w3.org/1999/02/22-rdf-syntax-ns#" xmlns:sodipodi="http://sodipodi.sourceforge.net/DTD/sodipodi-0.dtd" xmlns:svg="http://www.w3.org/2000/svg"
	 xmlns="http://www.w3.org/2000/svg" xmlns:xlink="http://www.w3.org/1999/xlink" x="0px" y="0px" viewBox="0 0 48 45"
	 style="enable-background:new 0 0 48 45;" xml:space="preserve">
<style type="text/css">
	.st0{fill:#494949;}
	.st1{fill:#262626;}
</style>
<g>
	<path class="st0" d="M31.3,34.3c-1.3,0-2.3-1.1-2.3-2.3v-7.3c0-1.3,1.1-2.3,2.3-2.3h1c0.3,0,0.5,0.1,0.7,0.1
		c-0.1-4.9-4.1-8.9-9-8.9s-9,4-9.1,8.9c0.3-0.1,0.5-0.1,0.7-0.1h1c1.3,0,2.3,1.1,2.3,2.3v7.3c0,1.3-1.1,2.3-2.3,2.3h-1
		c-1.3,0-2.3-1.1-2.3-2.3V30c-0.6-0.1-1-0.7-1-1.3v-6.2c-0.1-6.5,5.2-11.7,11.7-11.7s11.7,5.3,11.7,11.7v6.2c0,0.6-0.5,1.1-1,1.3
		v1.8c0,1.3-1.1,2.3-2.3,2.3H31.3z"/>
	<path class="st1" d="M24,11.1c6.3,0,11.5,5.2,11.5,11.5v6.2c0,0.6-0.5,1-1,1v2.1c0,1.1-0.9,2.1-2.1,2.1h-1c-1.1,0-2.1-0.9-2.1-2.1
		v-7.3c0-1.1,0.9-2.1,2.1-2.1h1c0.3,0,0.7,0.1,1,0.3v-0.3c0-5.2-4.2-9.4-9.4-9.4s-9.4,4.2-9.4,9.4v0.3c0.3-0.2,0.7-0.3,1-0.3h1
		c1.1,0,2.1,0.9,2.1,2.1v7.3c0,1.1-0.9,2.1-2.1,2.1h-1c-1.1,0-2.1-0.9-2.1-2.1v-2.1c-0.6,0-1-0.5-1-1v-6.2
		C12.6,16.2,17.7,11.1,24,11.1 M24,10.5c-6.6,0-12,5.4-12,12v6.2c0,0.7,0.5,1.3,1,1.5v1.6c0,1.5,1.2,2.6,2.6,2.6h1
		c1.5,0,2.6-1.2,2.6-2.6v-7.3c0-1.5-1.2-2.6-2.6-2.6h-1c-0.2,0-0.3,0-0.5,0.1c0.3-4.6,4.1-8.2,8.8-8.2c4.7,0,8.5,3.7,8.8,8.2
		c-0.2,0-0.3-0.1-0.5-0.1h-1c-1.5,0-2.6,1.2-2.6,2.6v7.3c0,1.5,1.2,2.6,2.6,2.6h1c1.5,0,2.6-1.2,2.6-2.6v-1.6c0.6-0.2,1-0.8,1-1.5
		v-6.2C36.1,15.9,30.7,10.5,24,10.5L24,10.5z"/>
</g>
</svg>
