<?xml version="1.0" encoding="utf-8"?>
<!-- Generator: Adobe Illustrator 23.0.6, SVG Export Plug-In . SVG Version: 6.00 Build 0)  -->
<svg version="1.1"
	 id="svg6" inkscape:version="0.92.2 5c3e80d, 2017-08-06" xmlns:cc="http://creativecommons.org/ns#" xmlns:dc="http://purl.org/dc/elements/1.1/" xmlns:inkscape="http://www.inkscape.org/namespaces/inkscape" xmlns:rdf="http://www.w3.org/1999/02/22-rdf-syntax-ns#" xmlns:sodipodi="http://sodipodi.sourceforge.net/DTD/sodipodi-0.dtd" xmlns:svg="http://www.w3.org/2000/svg"
	 xmlns="http://www.w3.org/2000/svg" xmlns:xlink="http://www.w3.org/1999/xlink" x="0px" y="0px" viewBox="0 0 45 22"
	 style="enable-background:new 0 0 45 22;" xml:space="preserve">
<style type="text/css">
	.st0{fill:#565656;}
</style>
<sodipodi:namedview  bordercolor="#666666" borderopacity="1" gridtolerance="10" guidetolerance="10" id="namedview8" inkscape:current-layer="svg6" inkscape:cx="8.0246652" inkscape:cy="11.755732" inkscape:pageopacity="0" inkscape:pageshadow="2" inkscape:snap-global="false" inkscape:window-height="1010" inkscape:window-maximized="0" inkscape:window-width="827" inkscape:window-x="845" inkscape:window-y="6" inkscape:zoom="12.421053" objecttolerance="10" pagecolor="#ffffff" showgrid="true">
	<inkscape:grid  id="grid828" type="xygrid"></inkscape:grid>
</sodipodi:namedview>
<path class="st0" d="M22.5,4c-3.9,0-7,3.1-7,7s3.1,7,7,7s7-3.1,7-7S26.4,4,22.5,4z M25.8,14.3c-0.2,0.2-0.4,0.3-0.7,0.3
	s-0.5-0.1-0.7-0.3l-2.6-2.6c-0.2-0.2-0.3-0.4-0.3-0.7V6.9c0-0.5,0.4-1,1-1s1,0.4,1,1v3.7l2.3,2.3c0.2,0.2,0.3,0.4,0.3,0.7
	C26,13.8,25.9,14.1,25.8,14.3z"/>
</svg>
