<?xml version="1.0" encoding="utf-8"?>
<!-- Generator: Adobe Illustrator 23.0.6, SVG Export Plug-In . SVG Version: 6.00 Build 0)  -->
<svg version="1.1"
	 id="svg6" inkscape:version="0.92.2 5c3e80d, 2017-08-06" xmlns:cc="http://creativecommons.org/ns#" xmlns:dc="http://purl.org/dc/elements/1.1/" xmlns:inkscape="http://www.inkscape.org/namespaces/inkscape" xmlns:rdf="http://www.w3.org/1999/02/22-rdf-syntax-ns#" xmlns:sodipodi="http://sodipodi.sourceforge.net/DTD/sodipodi-0.dtd" xmlns:svg="http://www.w3.org/2000/svg"
	 xmlns="http://www.w3.org/2000/svg" xmlns:xlink="http://www.w3.org/1999/xlink" x="0px" y="0px" viewBox="0 0 96 22"
	 style="enable-background:new 0 0 96 22;" xml:space="preserve">
<style type="text/css">
	.st0{fill:#C7C7C7;}
</style>
<sodipodi:namedview  bordercolor="#666666" borderopacity="1" gridtolerance="10" guidetolerance="10" id="namedview8" inkscape:current-layer="g6" inkscape:cx="17.808965" inkscape:cy="11.486352" inkscape:pageopacity="0" inkscape:pageshadow="2" inkscape:snap-global="true" inkscape:window-height="1024" inkscape:window-maximized="0" inkscape:window-width="1680" inkscape:window-x="0" inkscape:window-y="0" inkscape:zoom="17.566022" objecttolerance="10" pagecolor="#ffffff" showgrid="true">
	<inkscape:grid  id="grid828" type="xygrid"></inkscape:grid>
</sodipodi:namedview>
<g id="g8" transform="matrix(0.03154318,-0.03169361,0.03154337,0.03169376,-4.7098606,10.901246)" inkscape:export-xdpi="96" inkscape:export-ydpi="96">
	<g id="g6">
		<path class="st0" d="M122.8,375.1c-33.4-33.4-51.9-77.8-52-125c-0.1-47.2,18.2-91.5,51.5-124.8C191,56.7,303,56.9,372,125.9
			c33.4,33.4,51.9,77.8,52,125c0.1,47.2-18.2,91.5-51.5,124.7C303.8,444.3,191.8,444.1,122.8,375.1z M356.2,141.7
			c-60.3-60.3-158.1-60.5-218.1-0.5c-29.1,29-45,67.7-44.9,109c0.1,41.2,16.2,80,45.4,109.1c60.3,60.3,158.1,60.5,218.1,0.5l0,0
			c29.1-29,45-67.7,44.9-108.9C401.5,209.6,385.4,170.9,356.2,141.7z"/>
		<polygon class="st0" points="236.6,377.1 236.3,245.9 302.7,179.6 318.5,195.4 258.7,255.3 259,377.1 		"/>
	</g>
</g>
</svg>
