<?xml version="1.0" encoding="utf-8"?>
<!-- Generator: Adobe Illustrator 23.0.6, SVG Export Plug-In . SVG Version: 6.00 Build 0)  -->
<svg version="1.1"
	 id="svg6" inkscape:version="0.92.2 5c3e80d, 2017-08-06" xmlns:cc="http://creativecommons.org/ns#" xmlns:dc="http://purl.org/dc/elements/1.1/" xmlns:inkscape="http://www.inkscape.org/namespaces/inkscape" xmlns:rdf="http://www.w3.org/1999/02/22-rdf-syntax-ns#" xmlns:sodipodi="http://sodipodi.sourceforge.net/DTD/sodipodi-0.dtd" xmlns:svg="http://www.w3.org/2000/svg"
	 xmlns="http://www.w3.org/2000/svg" xmlns:xlink="http://www.w3.org/1999/xlink" x="0px" y="0px" viewBox="0 0 122 22"
	 style="enable-background:new 0 0 122 22;" xml:space="preserve">
<style type="text/css">
	.st0{fill:#C7C7C7;}
</style>
<sodipodi:namedview  bordercolor="#666666" borderopacity="1" gridtolerance="10" guidetolerance="10" id="namedview8" inkscape:current-layer="g6" inkscape:cx="-9.4824744" inkscape:cy="13.966871" inkscape:pageopacity="0" inkscape:pageshadow="2" inkscape:snap-global="false" inkscape:window-height="1024" inkscape:window-maximized="0" inkscape:window-width="1680" inkscape:window-x="0" inkscape:window-y="0" inkscape:zoom="12.421053" objecttolerance="10" pagecolor="#ffffff" showgrid="true">
	<inkscape:grid  id="grid828" type="xygrid"></inkscape:grid>
</sodipodi:namedview>
<g id="g8" transform="matrix(0.03154318,-0.03169361,0.03154337,0.03169376,-4.7098606,10.901246)" inkscape:export-xdpi="96" inkscape:export-ydpi="96">
	<g id="g6">
		<path class="st0" d="M170.5,232.3C170.4,232.2,170.4,232.2,170.5,232.3c-16.1-16.2-16.1-42.3,0-58.3c7.8-7.7,18.1-12,29.1-12
			c11,0,21.3,4.3,29,12.1c0,0,0.1,0.1,0.1,0.1c16,16.1,16,42.2-0.1,58.2c-7.8,7.7-18.1,12-29.1,12
			C188.5,244.3,178.2,240,170.5,232.3z M212.9,189.8c-3.5-3.5-8.2-5.5-13.2-5.5c-5,0-9.8,1.9-13.4,5.5c-7.4,7.3-7.4,19.3-0.1,26.6
			c3.3,3.2,8.2,5.5,13.2,5.5c5,0,9.8-1.9,13.4-5.5C220.2,209.2,220.2,197.2,212.9,189.8C212.9,189.9,212.9,189.8,212.9,189.8z"/>
		<path class="st0" d="M172.5,424.8c-16.9-16.9-25.5-28-34.7-52.7l-3.9-10.5l21-7.7l3.9,10.5c7.8,20.8,13.9,29,29.5,44.7
			c60.3,60.3,158.1,60.5,218.1,0.5c29.1-29,45-67.7,44.9-109c-0.1-41.2-16.2-80-45.4-109.1c-15.9-15.9-24-22.7-46-30.9l-10.5-3.9
			l7.7-21l10.5,3.9c25.8,9.6,36.8,18.8,54,36.1c33.4,33.4,51.9,77.8,52,125c0.1,47.2-18.2,91.5-51.5,124.8
			C353.5,494,241.5,493.8,172.5,424.8z"/>
		<path class="st0" d="M75.2,327.6c-33.4-33.4-51.9-77.8-52-125c-0.1-47.2,18.2-91.5,51.5-124.7c68.7-68.6,180.8-68.4,249.7,0.5
			c0,0,0.1,0.1,0.1,0.1c33.4,33.4,51.8,77.7,51.9,124.8c0.1,47.2-18.2,91.5-51.5,124.8C256.2,396.8,144.2,396.6,75.2,327.6z
			 M308.7,94.3C308.7,94.3,308.6,94.2,308.7,94.3C248.4,34,150.6,33.8,90.5,93.7c-29.1,29-45,67.7-44.9,108.9
			c0.1,41.2,16.2,80,45.4,109.2c60.3,60.3,158.1,60.5,218.1,0.5c29.1-29.1,45.1-67.8,45-109C354,162.2,337.9,123.4,308.7,94.3z"/>
	</g>
</g>
</svg>
