<?xml version="1.0" encoding="utf-8"?>
<!-- Generator: Adobe Illustrator 23.0.6, SVG Export Plug-In . SVG Version: 6.00 Build 0)  -->
<svg version="1.1"
	 id="svg6" inkscape:version="0.92.2 5c3e80d, 2017-08-06" xmlns:cc="http://creativecommons.org/ns#" xmlns:dc="http://purl.org/dc/elements/1.1/" xmlns:inkscape="http://www.inkscape.org/namespaces/inkscape" xmlns:rdf="http://www.w3.org/1999/02/22-rdf-syntax-ns#" xmlns:sodipodi="http://sodipodi.sourceforge.net/DTD/sodipodi-0.dtd" xmlns:svg="http://www.w3.org/2000/svg"
	 xmlns="http://www.w3.org/2000/svg" xmlns:xlink="http://www.w3.org/1999/xlink" x="0px" y="0px" viewBox="0 0 45 22"
	 style="enable-background:new 0 0 45 22;" xml:space="preserve">
<style type="text/css">
	.st0{fill:#C7C7C7;}
</style>
<sodipodi:namedview  bordercolor="#666666" borderopacity="1" gridtolerance="10" guidetolerance="10" id="namedview8" inkscape:current-layer="svg6" inkscape:cx="8.0246652" inkscape:cy="11.755732" inkscape:pageopacity="0" inkscape:pageshadow="2" inkscape:snap-global="false" inkscape:window-height="1010" inkscape:window-maximized="0" inkscape:window-width="827" inkscape:window-x="845" inkscape:window-y="6" inkscape:zoom="12.421053" objecttolerance="10" pagecolor="#ffffff" showgrid="true">
	<inkscape:grid  id="grid828" type="xygrid"></inkscape:grid>
</sodipodi:namedview>
<g>
	<path class="st0" d="M19.5,3c-4.4,0-8,3.6-8,8s3.6,8,8,8s8-3.6,8-8S23.9,3,19.5,3z M19.5,14.3c-1.8,0-3.3-1.5-3.3-3.3
		s1.5-3.3,3.3-3.3s3.3,1.5,3.3,3.3S21.3,14.3,19.5,14.3z"/>
	<g>
		<path class="st0" d="M25.5,3L25.5,3c2.4,1.8,4,4.7,4,8s-1.6,6.2-4,8l0,0c4.4,0,8-3.6,8-8S29.9,3,25.5,3z"/>
	</g>
</g>
</svg>
