<?xml version="1.0" encoding="utf-8"?>
<!-- Generator: Adobe Illustrator 23.0.6, SVG Export Plug-In . SVG Version: 6.00 Build 0)  -->
<svg version="1.1"
	 id="svg6" inkscape:version="0.92.2 5c3e80d, 2017-08-06" xmlns:cc="http://creativecommons.org/ns#" xmlns:dc="http://purl.org/dc/elements/1.1/" xmlns:inkscape="http://www.inkscape.org/namespaces/inkscape" xmlns:rdf="http://www.w3.org/1999/02/22-rdf-syntax-ns#" xmlns:sodipodi="http://sodipodi.sourceforge.net/DTD/sodipodi-0.dtd" xmlns:svg="http://www.w3.org/2000/svg"
	 xmlns="http://www.w3.org/2000/svg" xmlns:xlink="http://www.w3.org/1999/xlink" x="0px" y="0px" viewBox="0 0 110 22"
	 style="enable-background:new 0 0 110 22;" xml:space="preserve">
<style type="text/css">
	.st0{fill:#C7C7C7;}
</style>
<sodipodi:namedview  bordercolor="#666666" borderopacity="1" gridtolerance="10" guidetolerance="10" id="namedview8" inkscape:current-layer="svg6" inkscape:cx="23.103695" inkscape:cy="7.4902868" inkscape:pageopacity="0" inkscape:pageshadow="2" inkscape:snap-global="false" inkscape:window-height="1024" inkscape:window-maximized="0" inkscape:window-width="1680" inkscape:window-x="0" inkscape:window-y="0" inkscape:zoom="17.566021" objecttolerance="10" pagecolor="#ffffff" showgrid="true">
	<inkscape:grid  id="grid828" type="xygrid"></inkscape:grid>
</sodipodi:namedview>
<g id="text4754" transform="matrix(0.94303035,0,0,1.0604113,-0.06361039,19.981095)">
	<path class="st0" d="M22.4-1.1h-3.8c-0.1,0-0.2-0.1-0.3-0.2l-3-4.3l-3,4.3c-0.1,0.1-0.2,0.2-0.3,0.2H8.2C8.1-1.1,8-1.2,7.9-1.3
		c-0.1-0.1-0.1-0.2,0-0.3l4.8-7l-2.8-3.9l-5.3,0v2H10c0.2,0,0.4,0.1,0.4,0.3v2.7c0,0.2-0.2,0.3-0.4,0.3H4.6v5.6
		c0,0.2-0.2,0.3-0.4,0.3H0.6c-0.2,0-0.4-0.1-0.4-0.3v-14.1c0-0.2,0.2-0.3,0.4-0.3h11.6c0.1,0,0.3,0.1,0.3,0.2l2.8,4.1l2.8-4.1
		c0.1-0.1,0.2-0.2,0.3-0.2h3.8c0.1,0,0.3,0.1,0.3,0.2c0.1,0.1,0.1,0.2,0,0.3l-4.6,6.7l4.8,7c0.1,0.1,0.1,0.2,0,0.3
		C22.6-1.2,22.5-1.1,22.4-1.1z M18.8-1.8h2.9l-4.6-6.7c-0.1-0.1-0.1-0.2,0-0.3l4.4-6.4h-2.9l-3,4.4c-0.1,0.1-0.2,0.2-0.3,0.2l0,0
		c-0.1,0-0.3-0.1-0.3-0.2l-3-4.4H0.9v13.4h2.9v-5.6c0-0.2,0.2-0.3,0.4-0.3h5.4v-2.1H4.2C4-9.8,3.8-10,3.8-10.1v-2.6
		c0-0.2,0.2-0.3,0.4-0.3l5.9,0c0,0,0,0,0,0c0.1,0,0.2,0.1,0.3,0.2l3,4.2c0.1,0.1,0.1,0.2,0,0.3L8.9-1.8h2.9L15-6.4
		c0.1-0.1,0.2-0.2,0.3-0.2h0c0.1,0,0.2,0.1,0.3,0.2L18.8-1.8z"/>
</g>
</svg>
