<?xml version="1.0" encoding="utf-8"?>
<!-- Generator: Adobe Illustrator 23.0.6, SVG Export Plug-In . SVG Version: 6.00 Build 0)  -->
<svg version="1.1"
	 id="svg6" inkscape:version="0.92.2 5c3e80d, 2017-08-06" xmlns:cc="http://creativecommons.org/ns#" xmlns:dc="http://purl.org/dc/elements/1.1/" xmlns:inkscape="http://www.inkscape.org/namespaces/inkscape" xmlns:rdf="http://www.w3.org/1999/02/22-rdf-syntax-ns#" xmlns:sodipodi="http://sodipodi.sourceforge.net/DTD/sodipodi-0.dtd" xmlns:svg="http://www.w3.org/2000/svg"
	 xmlns="http://www.w3.org/2000/svg" xmlns:xlink="http://www.w3.org/1999/xlink" x="0px" y="0px" viewBox="0 0 45 22"
	 style="enable-background:new 0 0 45 22;" xml:space="preserve">
<style type="text/css">
	.st0{fill:#565656;}
</style>
<sodipodi:namedview  bordercolor="#666666" borderopacity="1" gridtolerance="10" guidetolerance="10" id="namedview8" inkscape:current-layer="svg6" inkscape:cx="8.0246652" inkscape:cy="11.755732" inkscape:pageopacity="0" inkscape:pageshadow="2" inkscape:snap-global="false" inkscape:window-height="1010" inkscape:window-maximized="0" inkscape:window-width="827" inkscape:window-x="845" inkscape:window-y="6" inkscape:zoom="12.421053" objecttolerance="10" pagecolor="#ffffff" showgrid="true">
	<inkscape:grid  id="grid828" type="xygrid"></inkscape:grid>
</sodipodi:namedview>
<path class="st0" d="M24.6,9.1c0-0.1,0-0.2-0.1-0.3l-2.3-1.7V4.2c0-0.1-0.1-0.2-0.2-0.3c-0.1,0-0.2,0-0.3,0l-2.3,1.7l-2.7-0.9
	c-0.1,0-0.2,0-0.3,0.1c-0.1,0.1-0.1,0.2-0.1,0.3l0.9,2.7l-1.7,2.3c-0.1,0.1-0.1,0.2,0,0.3c0,0.1,0.1,0.1,0.3,0.2h2.9l1.7,2.3
	c0.1,0.1,0.1,0.1,0.2,0.1l0,0c0.1,0,0.2-0.1,0.2-0.2l0.8-2.7l2.7-0.8C24.5,9.3,24.6,9.2,24.6,9.1z"/>
<path class="st0" d="M29.2,16.4l-5-5l-1,0.3l-0.3,1l5,5c0.2,0.2,0.4,0.3,0.7,0.3c0.3,0,0.5-0.1,0.7-0.3s0.3-0.4,0.3-0.7
	C29.5,16.8,29.4,16.5,29.2,16.4z"/>
</svg>
