<?xml version="1.0" encoding="utf-8"?>
<!-- Generator: Adobe Illustrator 23.0.6, SVG Export Plug-In . SVG Version: 6.00 Build 0)  -->
<svg version="1.1"
	 id="svg6" inkscape:version="0.92.2 5c3e80d, 2017-08-06" xmlns:cc="http://creativecommons.org/ns#" xmlns:dc="http://purl.org/dc/elements/1.1/" xmlns:inkscape="http://www.inkscape.org/namespaces/inkscape" xmlns:rdf="http://www.w3.org/1999/02/22-rdf-syntax-ns#" xmlns:sodipodi="http://sodipodi.sourceforge.net/DTD/sodipodi-0.dtd" xmlns:svg="http://www.w3.org/2000/svg"
	 xmlns="http://www.w3.org/2000/svg" xmlns:xlink="http://www.w3.org/1999/xlink" x="0px" y="0px" viewBox="0 0 134 22"
	 style="enable-background:new 0 0 134 22;" xml:space="preserve">
<style type="text/css">
	.st0{fill:#C7C7C7;}
</style>
<sodipodi:namedview  bordercolor="#666666" borderopacity="1" gridtolerance="10" guidetolerance="10" id="namedview8" inkscape:current-layer="svg6" inkscape:cx="17.242885" inkscape:cy="6.9979487" inkscape:pageopacity="0" inkscape:pageshadow="2" inkscape:snap-global="true" inkscape:window-height="1024" inkscape:window-maximized="0" inkscape:window-width="1680" inkscape:window-x="0" inkscape:window-y="0" inkscape:zoom="17.566022" objecttolerance="10" pagecolor="#ffffff" showgrid="true">
	<inkscape:grid  id="grid828" type="xygrid"></inkscape:grid>
</sodipodi:namedview>
<g id="g4" transform="matrix(0.03455724,0,0,0.03455724,0,2.9274277)">
	<path id="path2" inkscape:connector-curvature="0" class="st0" d="M467.2,235.7c0-62.4-24.3-121.1-68.4-165.2S296,2.1,233.6,2.1
		S112.5,26.4,68.4,70.5S0,173.3,0,235.7v110.6c0,62.5,50.9,113.4,113.4,113.4c7.5,0,13.5-6,13.5-13.5V246.5c0-7.5-6-13.5-13.5-13.5
		c-34.6,0-65.6,15.5-86.4,40v-37.3c0-113.9,92.7-206.6,206.6-206.6s206.6,92.7,206.6,206.6c0,0.9,0.1,1.8,0.3,2.7
		c-0.2,0.9-0.3,1.8-0.3,2.7v37.3c-20.8-24.5-51.8-40-86.4-40c-7.5,0-13.5,6-13.5,13.5v199.7c0,7.5,6,13.5,13.5,13.5
		c62.5,0,113.4-50.9,113.4-113.4V241.1c0-0.9-0.1-1.8-0.3-2.7C467.1,237.5,467.2,236.6,467.2,235.7z M99.8,261v170.6
		c-41.2-6.5-72.9-42.3-72.9-85.3C27,303.3,58.6,267.5,99.8,261z M367.4,437V266.4c41.2,6.5,72.9,42.3,72.9,85.3
		C440.2,394.8,408.6,430.5,367.4,437z"/>
</g>
</svg>
