<?xml version="1.0" encoding="utf-8"?>
<!-- Generator: Adobe Illustrator 23.0.6, SVG Export Plug-In . SVG Version: 6.00 Build 0)  -->
<svg version="1.1"
	 id="svg6" inkscape:version="0.92.2 5c3e80d, 2017-08-06" xmlns:cc="http://creativecommons.org/ns#" xmlns:dc="http://purl.org/dc/elements/1.1/" xmlns:inkscape="http://www.inkscape.org/namespaces/inkscape" xmlns:rdf="http://www.w3.org/1999/02/22-rdf-syntax-ns#" xmlns:sodipodi="http://sodipodi.sourceforge.net/DTD/sodipodi-0.dtd" xmlns:svg="http://www.w3.org/2000/svg"
	 xmlns="http://www.w3.org/2000/svg" xmlns:xlink="http://www.w3.org/1999/xlink" x="0px" y="0px" viewBox="0 0 148 22"
	 style="enable-background:new 0 0 148 22;" xml:space="preserve">
<style type="text/css">
	.st0{fill:#C7C7C7;}
</style>
<sodipodi:namedview  bordercolor="#666666" borderopacity="1" gridtolerance="10" guidetolerance="10" id="namedview8" inkscape:current-layer="svg6" inkscape:cx="4.6012527" inkscape:cy="4.7302712" inkscape:pageopacity="0" inkscape:pageshadow="2" inkscape:snap-global="false" inkscape:window-height="1024" inkscape:window-maximized="0" inkscape:window-width="1680" inkscape:window-x="0" inkscape:window-y="0" inkscape:zoom="70.264084" objecttolerance="10" pagecolor="#ffffff" showgrid="true">
	<inkscape:grid  id="grid828" type="xygrid"></inkscape:grid>
</sodipodi:namedview>
<g id="g6" transform="matrix(0.04241782,0,0,0.04241782,-2.5111349,2.9999983)">
	<g id="g4">
		
			<path id="path2" inkscape:connector-curvature="0" sodipodi:nodetypes="scccsccccscsssssccssscsccccsccssscccsssccccssccscccsccssccccccccccc" class="st0" d="
			M310.4,362h-27.2v-5.2v-65.2v-9.2c0-22-7.6-42.4-20.4-58.8c-12-14.8-28.4-26.4-46.8-32v-6c18.8-5.6,35.2-17.2,46.8-32
			c12.8-16,20.4-36.8,20.4-58.8V15.6h27.2c4,0,7.6-3.2,7.6-7.6c0-4-3.2-7.6-7.6-7.6h-32.8c-0.4,0-1.2-0.4-1.6-0.4H101.6h-0.4H66.8
			c-4,0-7.6,3.2-7.6,7.6c0,4,3.2,7.6,7.6,7.6H94v79.6c0,22,7.6,42.4,20.4,58.8c12,14.8,28.4,26.4,46.8,32v6
			c-18.4,6-34.8,17.2-46.8,32c-12.8,16-20.4,36.8-20.4,58.8v55.2V362H66.8c-4,0-7.6,3.2-7.6,7.6c0,4,3.2,7.6,7.6,7.6H100h1.6H276
			h34.4c4,0,7.6-3.2,7.6-7.6C318,365.6,314.8,362,310.4,362z M108.5,296.1l0.7-13.7c0-18.8,6.4-36,17.2-49.6c10.8-14,26.4-24,44-28
			c3.6-0.8,6-3.6,6-7.2V180c0-3.6-2.4-6.4-6-7.2c-17.6-4-33.2-14.4-44.4-28.4c-10.8-13.6-17.2-30.8-17.2-49.6V15.2h20h139.6v79.6
			c0,18.8-6.4,36-17.2,49.6c-10.8,14-26.4,24-44,28c-3.6,0.8-6,3.6-6,7.2v17.6c0,3.6,2.4,6.4,6,7.2c17.6,4,33.2,14.4,44.4,28.4
			c20.1,27.5,18,50.5,18,50.5l-1.2,26.6V358v5.2h-41.6L109.2,362v-50.4 M109.2,311.6l159.2-1.7"/>
	</g>
</g>
</svg>
