<?xml version="1.0" encoding="utf-8"?>
<!-- Generator: Adobe Illustrator 23.0.6, SVG Export Plug-In . SVG Version: 6.00 Build 0)  -->
<svg version="1.1"
	 id="svg6" inkscape:version="0.92.2 5c3e80d, 2017-08-06" xmlns:cc="http://creativecommons.org/ns#" xmlns:dc="http://purl.org/dc/elements/1.1/" xmlns:inkscape="http://www.inkscape.org/namespaces/inkscape" xmlns:rdf="http://www.w3.org/1999/02/22-rdf-syntax-ns#" xmlns:sodipodi="http://sodipodi.sourceforge.net/DTD/sodipodi-0.dtd" xmlns:svg="http://www.w3.org/2000/svg"
	 xmlns="http://www.w3.org/2000/svg" xmlns:xlink="http://www.w3.org/1999/xlink" x="0px" y="0px" viewBox="0 0 45 22"
	 style="enable-background:new 0 0 45 22;" xml:space="preserve">
<style type="text/css">
	.st0{fill:#C7C7C7;}
</style>
<sodipodi:namedview  bordercolor="#666666" borderopacity="1" gridtolerance="10" guidetolerance="10" id="namedview8" inkscape:current-layer="svg6" inkscape:cx="8.0246652" inkscape:cy="11.755732" inkscape:pageopacity="0" inkscape:pageshadow="2" inkscape:snap-global="false" inkscape:window-height="1010" inkscape:window-maximized="0" inkscape:window-width="827" inkscape:window-x="845" inkscape:window-y="6" inkscape:zoom="12.421053" objecttolerance="10" pagecolor="#ffffff" showgrid="true">
	<inkscape:grid  id="grid828" type="xygrid"></inkscape:grid>
</sodipodi:namedview>
<path class="st0" d="M27,17.4h-1v-0.2v-2.4v-0.3c0-0.8-0.3-1.6-0.8-2.2c-0.4-0.5-1.1-1-1.7-1.2v-0.2c0.7-0.2,1.3-0.6,1.7-1.2
	C25.7,9.1,26,8.3,26,7.5V4.6h1c0.1,0,0.3-0.1,0.3-0.3C27.3,4.1,27.2,4,27,4h-1.2c0,0,0,0-0.1,0h-6.5l0,0H18c-0.1,0-0.3,0.1-0.3,0.3
	c0,0.1,0.1,0.3,0.3,0.3h1v3c0,0.8,0.3,1.6,0.8,2.2c0.4,0.5,1.1,1,1.7,1.2v0.2c-0.7,0.2-1.3,0.6-1.7,1.2C19.3,13,19,13.8,19,14.6v2
	v0.9h-1c-0.1,0-0.3,0.1-0.3,0.3c0,0.1,0.1,0.3,0.3,0.3h1.2h0.1h6.5H27c0.1,0,0.3-0.1,0.3-0.3C27.3,17.6,27.2,17.4,27,17.4z"/>
</svg>
