<?xml version="1.0" encoding="utf-8"?>
<!-- Generator: Adobe Illustrator 23.0.6, SVG Export Plug-In . SVG Version: 6.00 Build 0)  -->
<svg version="1.1"
	 id="svg6" inkscape:version="0.92.2 5c3e80d, 2017-08-06" xmlns:cc="http://creativecommons.org/ns#" xmlns:dc="http://purl.org/dc/elements/1.1/" xmlns:inkscape="http://www.inkscape.org/namespaces/inkscape" xmlns:rdf="http://www.w3.org/1999/02/22-rdf-syntax-ns#" xmlns:sodipodi="http://sodipodi.sourceforge.net/DTD/sodipodi-0.dtd" xmlns:svg="http://www.w3.org/2000/svg"
	 xmlns="http://www.w3.org/2000/svg" xmlns:xlink="http://www.w3.org/1999/xlink" x="0px" y="0px" viewBox="0 0 90 22"
	 style="enable-background:new 0 0 90 22;" xml:space="preserve">
<style type="text/css">
	.st0{fill:#C7C7C7;}
</style>
<sodipodi:namedview  bordercolor="#666666" borderopacity="1" gridtolerance="10" guidetolerance="10" id="namedview8" inkscape:bbox-nodes="true" inkscape:current-layer="svg6" inkscape:cx="13.081502" inkscape:cy="10.718051" inkscape:object-paths="true" inkscape:pageopacity="0" inkscape:pageshadow="2" inkscape:snap-bbox="true" inkscape:snap-bbox-edge-midpoints="true" inkscape:snap-bbox-midpoints="true" inkscape:snap-center="true" inkscape:snap-global="true" inkscape:snap-intersection-paths="true" inkscape:snap-midpoints="true" inkscape:snap-object-midpoints="true" inkscape:snap-smooth-nodes="true" inkscape:window-height="1024" inkscape:window-maximized="0" inkscape:window-width="1680" inkscape:window-x="0" inkscape:window-y="0" inkscape:zoom="35.132042" objecttolerance="10" pagecolor="#ffffff" showgrid="true">
	<inkscape:grid  id="grid828" type="xygrid"></inkscape:grid>
</sodipodi:namedview>
<g id="g10" transform="matrix(0.33748421,0,0,0.33748421,0.00380806,0.8754105)">
	<path id="path2" inkscape:connector-curvature="0" class="st0" d="M26.9,7.4C25.1,7.4,24.1,9,22.8,10c-3.7,3.1-7.4,6.3-11.1,9.4
		c-3.5,0-7.1,0-10.6,0c-1.4,0.1-0.9,1.7-1,2.6c0,5.8,0,11.6,0,17.4c0.1,1.4,1.7,0.9,2.6,1c3,0,6,0,9,0c4.6,4.2,9.1,8.4,13.7,12.6
		c2.1,1.4,5-0.6,4.7-3c0-13.1,0-26.2,0-39.4C30.1,8.8,28.6,7.3,26.9,7.4L26.9,7.4z M27,9.4c1.4,0.3,0.9,1.9,1,2.9
		c0,12.6,0,25.3,0,37.9c-0.1,1.7-1.9,1.1-2.6,0.1c-4.2-3.8-8.3-7.6-12.5-11.4c0-6,0-12.1,0-18.1c4.5-3.8,8.9-7.6,13.4-11.3l0.3-0.1
		L27,9.4z M2,21.4c3,0,6,0,9,0c0,5.7,0,11.3,0,17c-3,0-6,0-9,0C2,32.7,2,27,2,21.4z"/>
	<path id="path4" inkscape:connector-curvature="0" class="st0" d="M52,29.9c0-8.3-5.3-15.8-13.2-18.4c-0.5-0.2-1.1,0.1-1.3,0.6
		c-0.2,0.5,0.1,1.1,0.6,1.3C45.3,15.7,50,22.4,50,29.9c0,7.5-4.8,14.1-11.8,16.6c-0.5,0.2-0.8,0.7-0.6,1.3c0.1,0.4,0.5,0.7,0.9,0.7
		c0.1,0,0.2,0,0.3-0.1C46.7,45.6,52,38.2,52,29.9z"/>
	<path id="path6" inkscape:connector-curvature="0" class="st0" d="M44.5,6.4c-0.5-0.2-1.1,0-1.3,0.5c-0.2,0.5,0,1.1,0.5,1.3
		C52.4,11.9,58,20.4,58,29.9c0,9.8-5.9,18.4-15,21.9c-0.5,0.2-0.8,0.8-0.6,1.3c0.2,0.4,0.5,0.6,0.9,0.6c0.1,0,0.2,0,0.4-0.1
		C53.6,49.8,60,40.5,60,29.9C60,19.6,53.9,10.4,44.5,6.4z"/>
	<path id="path8" inkscape:connector-curvature="0" class="st0" d="M43,29.9c0-6-4-11.3-9.7-13c-0.5-0.2-1.1,0.2-1.2,0.7
		c-0.2,0.5,0.2,1.1,0.7,1.2c4.9,1.4,8.3,6,8.3,11c0,5.1-3.4,9.6-8.3,11c-0.5,0.2-0.8,0.7-0.7,1.2c0.1,0.4,0.5,0.7,1,0.7
		c0.1,0,0.2,0,0.3,0C39,41.2,43,35.8,43,29.9z"/>
</g>
</svg>
