<?xml version="1.0" encoding="utf-8"?>
<!-- Generator: Adobe Illustrator 23.0.6, SVG Export Plug-In . SVG Version: 6.00 Build 0)  -->
<svg version="1.1"
	 id="svg6" inkscape:version="0.92.2 5c3e80d, 2017-08-06" xmlns:cc="http://creativecommons.org/ns#" xmlns:dc="http://purl.org/dc/elements/1.1/" xmlns:inkscape="http://www.inkscape.org/namespaces/inkscape" xmlns:rdf="http://www.w3.org/1999/02/22-rdf-syntax-ns#" xmlns:sodipodi="http://sodipodi.sourceforge.net/DTD/sodipodi-0.dtd" xmlns:svg="http://www.w3.org/2000/svg"
	 xmlns="http://www.w3.org/2000/svg" xmlns:xlink="http://www.w3.org/1999/xlink" x="0px" y="0px" viewBox="0 0 148 22"
	 style="enable-background:new 0 0 148 22;" xml:space="preserve">
<style type="text/css">
	.st0{fill:#C7C7C7;}
</style>
<sodipodi:namedview  bordercolor="#666666" borderopacity="1" gridtolerance="10" guidetolerance="10" id="namedview8" inkscape:current-layer="svg6" inkscape:cx="3.9465797" inkscape:cy="10.974227" inkscape:pageopacity="0" inkscape:pageshadow="2" inkscape:snap-global="true" inkscape:window-height="1024" inkscape:window-maximized="0" inkscape:window-width="1680" inkscape:window-x="0" inkscape:window-y="0" inkscape:zoom="3.1052631" objecttolerance="10" pagecolor="#ffffff" showgrid="true">
	<inkscape:grid  id="grid828" type="xygrid"></inkscape:grid>
</sodipodi:namedview>
<path id="path904" class="st0" d="M15.5,3.5c-2.3,0-4.2,1.9-4.2,4.2c0,0.3,0,0.5,0.1,0.7L0.8,15.5c-0.2,0.2-0.3,0.5-0.1,0.7l1.5,2.3
	c0.2,0.2,0.5,0.3,0.7,0.1c0,0,0,0,0,0l10.7-7.2c0,0,0,0,0,0c0.6,0.3,1.2,0.5,1.9,0.5c2.3,0,4.2-1.9,4.2-4.2S17.8,3.5,15.5,3.5z
	 M15.5,4.5c1.8,0,3.2,1.4,3.2,3.2s-1.4,3.2-3.2,3.2c-1.1,0-2.1-0.5-2.6-1.4l0,0c-0.3-0.5-0.5-1.1-0.5-1.8
	C12.3,5.9,13.7,4.5,15.5,4.5z M11.6,9.4l1,1.4l-9.9,6.6l-1-1.4L11.6,9.4z"/>
</svg>
