<?xml version="1.0" encoding="utf-8"?>
<!-- Generator: Adobe Illustrator 23.0.6, SVG Export Plug-In . SVG Version: 6.00 Build 0)  -->
<svg version="1.1"
	 id="svg6" inkscape:version="0.92.2 5c3e80d, 2017-08-06" xmlns:cc="http://creativecommons.org/ns#" xmlns:dc="http://purl.org/dc/elements/1.1/" xmlns:inkscape="http://www.inkscape.org/namespaces/inkscape" xmlns:rdf="http://www.w3.org/1999/02/22-rdf-syntax-ns#" xmlns:sodipodi="http://sodipodi.sourceforge.net/DTD/sodipodi-0.dtd" xmlns:svg="http://www.w3.org/2000/svg"
	 xmlns="http://www.w3.org/2000/svg" xmlns:xlink="http://www.w3.org/1999/xlink" x="0px" y="0px" viewBox="0 0 116 22"
	 style="enable-background:new 0 0 116 22;" xml:space="preserve">
<style type="text/css">
	.st0{fill:#C7C7C7;}
</style>
<sodipodi:namedview  bordercolor="#666666" borderopacity="1" gridtolerance="10" guidetolerance="10" id="namedview8" inkscape:current-layer="svg6" inkscape:cx="4.6012527" inkscape:cy="10.992361" inkscape:pageopacity="0" inkscape:pageshadow="2" inkscape:snap-global="false" inkscape:window-height="1024" inkscape:window-maximized="0" inkscape:window-width="1680" inkscape:window-x="0" inkscape:window-y="0" inkscape:zoom="17.566021" objecttolerance="10" pagecolor="#ffffff" showgrid="true">
	<inkscape:grid  id="grid828" type="xygrid"></inkscape:grid>
</sodipodi:namedview>
<path class="st0" d="M6.5,10h-6C0.2,10,0,9.8,0,9.5v-6C0,3.2,0.2,3,0.5,3h6C6.8,3,7,3.2,7,3.5v6C7,9.8,6.8,10,6.5,10z M1,9h5V4H1V9z
	"/>
<path class="st0" d="M6.5,19h-6C0.2,19,0,18.8,0,18.5v-6C0,12.2,0.2,12,0.5,12h6C6.8,12,7,12.2,7,12.5v6C7,18.8,6.8,19,6.5,19z
	 M1,18h5v-5H1V18z"/>
<path class="st0" d="M15.5,10h-6C9.2,10,9,9.8,9,9.5v-6C9,3.2,9.2,3,9.5,3h6C15.8,3,16,3.2,16,3.5v6C16,9.8,15.8,10,15.5,10z M10,9
	h5V4h-5V9z"/>
<path class="st0" d="M15.5,19h-6C9.2,19,9,18.8,9,18.5v-6C9,12.2,9.2,12,9.5,12h6c0.3,0,0.5,0.2,0.5,0.5v6C16,18.8,15.8,19,15.5,19z
	 M10,18h5v-5h-5V18z"/>
</svg>
