<?xml version="1.0" encoding="utf-8"?>
<!-- Generator: Adobe Illustrator 23.0.6, SVG Export Plug-In . SVG Version: 6.00 Build 0)  -->
<svg version="1.1"
	 id="svg6" inkscape:version="0.92.2 5c3e80d, 2017-08-06" xmlns:cc="http://creativecommons.org/ns#" xmlns:dc="http://purl.org/dc/elements/1.1/" xmlns:inkscape="http://www.inkscape.org/namespaces/inkscape" xmlns:rdf="http://www.w3.org/1999/02/22-rdf-syntax-ns#" xmlns:sodipodi="http://sodipodi.sourceforge.net/DTD/sodipodi-0.dtd" xmlns:svg="http://www.w3.org/2000/svg"
	 xmlns="http://www.w3.org/2000/svg" xmlns:xlink="http://www.w3.org/1999/xlink" x="0px" y="0px" viewBox="0 0 45 22"
	 style="enable-background:new 0 0 45 22;" xml:space="preserve">
<style type="text/css">
	.st0{fill:#C7C7C7;}
</style>
<sodipodi:namedview  bordercolor="#666666" borderopacity="1" gridtolerance="10" guidetolerance="10" id="namedview8" inkscape:current-layer="svg6" inkscape:cx="8.0246652" inkscape:cy="11.755732" inkscape:pageopacity="0" inkscape:pageshadow="2" inkscape:snap-global="false" inkscape:window-height="1010" inkscape:window-maximized="0" inkscape:window-width="827" inkscape:window-x="845" inkscape:window-y="6" inkscape:zoom="12.421053" objecttolerance="10" pagecolor="#ffffff" showgrid="true">
	<inkscape:grid  id="grid828" type="xygrid"></inkscape:grid>
</sodipodi:namedview>
<g>
	<g>
		<g>
			<g>
				<g>
					<g>
						<g>
							<g>
								<g>
									<g>
										<g>
											<g>
												<g>
													<g>
														<g>
															<path class="st0" d="M26.7,9.6l-0.2-0.5c0.6-1.5,0.6-1.5,0.5-1.7l-0.8-0.8l-0.1-0.1H26c-0.1,0-0.2,0-1.5,0.6L24.1,7
																c-0.6-1.5-0.7-1.5-0.8-1.5h-1.2c-0.2,0-0.2,0-0.8,1.5l-0.5,0.2c-0.9-0.4-1.3-0.6-1.5-0.6h-0.1l-0.9,0.9
																c-0.1,0.1-0.2,0.2,0.5,1.7l-0.2,0.5c-1.5,0.6-1.5,0.7-1.5,0.8v1.2c0,0.2,0,0.2,1.5,0.8l0.2,0.5
																c-0.6,1.5-0.6,1.5-0.5,1.7l0.8,0.8l0.1,0.1h0.1c0.1,0,0.2,0,1.5-0.6l0.5,0.2c0.6,1.5,0.7,1.5,0.8,1.5h1.2
																c0.2,0,0.2,0,0.8-1.5l0.5-0.2c0.9,0.4,1.3,0.6,1.5,0.6h0.1l0.9-0.9c0.1-0.1,0.2-0.2-0.5-1.6l0.2-0.5
																c1.5-0.6,1.5-0.7,1.5-0.9v-1.2C28.3,10.3,28.3,10.2,26.7,9.6z M22.7,13c-1.1,0-1.9-0.9-2-1.9c0-1.1,0.9-1.9,1.9-2
																c1.1,0,1.9,0.9,2,1.9c0,0,0,0,0,0C24.6,12.1,23.8,13,22.7,13z"/>
														</g>
													</g>
												</g>
											</g>
										</g>
									</g>
								</g>
							</g>
						</g>
					</g>
				</g>
			</g>
		</g>
	</g>
</g>
</svg>
