<?xml version="1.0" encoding="utf-8"?>
<!-- Generator: Adobe Illustrator 23.0.6, SVG Export Plug-In . SVG Version: 6.00 Build 0)  -->
<svg version="1.1"
	 id="svg6" inkscape:version="0.92.2 5c3e80d, 2017-08-06" xmlns:cc="http://creativecommons.org/ns#" xmlns:dc="http://purl.org/dc/elements/1.1/" xmlns:inkscape="http://www.inkscape.org/namespaces/inkscape" xmlns:rdf="http://www.w3.org/1999/02/22-rdf-syntax-ns#" xmlns:sodipodi="http://sodipodi.sourceforge.net/DTD/sodipodi-0.dtd" xmlns:svg="http://www.w3.org/2000/svg"
	 xmlns="http://www.w3.org/2000/svg" xmlns:xlink="http://www.w3.org/1999/xlink" x="0px" y="0px" viewBox="0 0 45 22"
	 style="enable-background:new 0 0 45 22;" xml:space="preserve">
<style type="text/css">
	.st0{fill:#C7C7C7;}
</style>
<sodipodi:namedview  bordercolor="#666666" borderopacity="1" gridtolerance="10" guidetolerance="10" id="namedview8" inkscape:current-layer="svg6" inkscape:cx="8.0246652" inkscape:cy="11.755732" inkscape:pageopacity="0" inkscape:pageshadow="2" inkscape:snap-global="false" inkscape:window-height="1010" inkscape:window-maximized="0" inkscape:window-width="827" inkscape:window-x="845" inkscape:window-y="6" inkscape:zoom="12.421053" objecttolerance="10" pagecolor="#ffffff" showgrid="true">
	<inkscape:grid  id="grid828" type="xygrid"></inkscape:grid>
</sodipodi:namedview>
<g>
	<g>
		<g>
			<g>
				<g>
					<g>
						<g>
							<g>
								<g>
									<g>
										<g>
											<g>
												<g>
													<g>
														<g>
															<path class="st0" d="M27.7,9.2l-0.2-0.6c0.8-1.9,0.8-1.9,0.7-2.1L27,5.4l-0.1-0.1h-0.1c-0.1,0-0.2,0-1.9,0.8L24.4,6
																c-0.8-1.9-0.9-1.9-1-1.9H22c-0.2,0-0.2,0-1,1.9l-0.7,0.2c-1.1-0.4-1.7-0.8-1.9-0.8h-0.1l-1.1,1.1
																c-0.1,0.1-0.2,0.2,0.7,2.1l-0.2,0.7c-1.9,0.8-1.9,0.9-1.9,1v1.4c0,0.2,0,0.2,1.9,1l0.2,0.7c-0.8,1.9-0.8,1.9-0.7,2.1
																l1,1l0.1,0.1h0.1c0.1,0,0.2,0,1.9-0.8L21,16c0.8,1.9,0.9,1.9,1,1.9h1.6c0.2,0,0.2,0,1-1.9l0.7-0.2
																c1.1,0.4,1.7,0.8,1.9,0.8h0.1l1.1-1.1c0.1-0.1,0.2-0.2-0.7-2l0.2-0.7c1.9-0.8,1.9-0.9,1.9-1.1v-1.4
																C29.7,10.1,29.7,10,27.7,9.2z M22.7,13.4c-1.3,0-2.3-1.1-2.6-2.3c0-1.3,1.1-2.3,2.3-2.6c1.3,0,2.3,1.1,2.6,2.3l0,0
																C25,12.3,24,13.4,22.7,13.4z"/>
														</g>
													</g>
												</g>
											</g>
										</g>
									</g>
								</g>
							</g>
						</g>
					</g>
				</g>
			</g>
		</g>
	</g>
</g>
</svg>
