<?xml version="1.0" encoding="utf-8"?>
<!-- Generator: Adobe Illustrator 23.0.6, SVG Export Plug-In . SVG Version: 6.00 Build 0)  -->
<svg version="1.1"
	 id="svg6" inkscape:version="0.92.2 5c3e80d, 2017-08-06" xmlns:cc="http://creativecommons.org/ns#" xmlns:dc="http://purl.org/dc/elements/1.1/" xmlns:inkscape="http://www.inkscape.org/namespaces/inkscape" xmlns:rdf="http://www.w3.org/1999/02/22-rdf-syntax-ns#" xmlns:sodipodi="http://sodipodi.sourceforge.net/DTD/sodipodi-0.dtd" xmlns:svg="http://www.w3.org/2000/svg"
	 xmlns="http://www.w3.org/2000/svg" xmlns:xlink="http://www.w3.org/1999/xlink" x="0px" y="0px" viewBox="0 0 45 22"
	 style="enable-background:new 0 0 45 22;" xml:space="preserve">
<style type="text/css">
	.st0{fill:#565656;}
</style>
<sodipodi:namedview  bordercolor="#666666" borderopacity="1" gridtolerance="10" guidetolerance="10" id="namedview8" inkscape:current-layer="svg6" inkscape:cx="8.0246652" inkscape:cy="11.755732" inkscape:pageopacity="0" inkscape:pageshadow="2" inkscape:snap-global="false" inkscape:window-height="1010" inkscape:window-maximized="0" inkscape:window-width="827" inkscape:window-x="845" inkscape:window-y="6" inkscape:zoom="12.421053" objecttolerance="10" pagecolor="#ffffff" showgrid="true">
	<inkscape:grid  id="grid828" type="xygrid"></inkscape:grid>
</sodipodi:namedview>
<g>
	<path class="st0" d="M26.5,19c-0.6,0-1-0.4-1-1V4c0-0.6,0.4-1,1-1s1,0.4,1,1v14C27.5,18.6,27.1,19,26.5,19z"/>
	<path class="st0" d="M30.5,16.5c-0.6,0-1-0.4-1-1v-9c0-0.6,0.4-1,1-1s1,0.4,1,1v9C31.5,16.1,31.1,16.5,30.5,16.5z"/>
	<path class="st0" d="M22.5,16.5c-0.6,0-1-0.4-1-1v-9c0-0.6,0.4-1,1-1s1,0.4,1,1v9C23.5,16.1,23.1,16.5,22.5,16.5z"/>
	<path class="st0" d="M14.5,16.5c-0.6,0-1-0.4-1-1v-9c0-0.6,0.4-1,1-1s1,0.4,1,1v9C15.5,16.1,15.1,16.5,14.5,16.5z"/>
	<path class="st0" d="M34.5,14.5c-0.6,0-1-0.4-1-1v-5c0-0.6,0.4-1,1-1s1,0.4,1,1v5C35.5,14.1,35.1,14.5,34.5,14.5z"/>
	<path class="st0" d="M18.5,14.5c-0.6,0-1-0.4-1-1v-5c0-0.6,0.4-1,1-1s1,0.4,1,1v5C19.5,14.1,19.1,14.5,18.5,14.5z"/>
	<path class="st0" d="M10.5,14.5c-0.6,0-1-0.4-1-1v-5c0-0.6,0.4-1,1-1s1,0.4,1,1v5C11.5,14.1,11.1,14.5,10.5,14.5z"/>
</g>
</svg>
