<svg width="72" height="24" version="1.1" xmlns="http://www.w3.org/2000/svg" xmlns:xlink="http://www.w3.org/1999/xlink">
	<defs>
		<linearGradient id="g" x1="74.992996" x2="13.486" y1="-.1462" y2="88.766998" gradientTransform="matrix(.19912877 0 0 .20002033 55.013392 3.0873529)" gradientUnits="userSpaceOnUse">
			<stop stop-color="#39b549" offset=".478"/>
			<stop stop-color="#1a76bc" offset="1"/>
		</linearGradient>
		<linearGradient id="f" x1="74.998001" x2="13.488" y1="-.15009999" y2="88.766998" gradientTransform="matrix(.19912877 0 0 .20002033 30.636499 3.0873529)" gradientUnits="userSpaceOnUse">
			<stop stop-color="#381f1f" offset="0"/>
			<stop stop-color="#3a1f20" offset=".0017"/>
			<stop stop-color="#5b2825" offset=".0376"/>
			<stop stop-color="#7c2f28" offset=".0757"/>
			<stop stop-color="#9b2e28" offset=".1173"/>
			<stop stop-color="#b62c28" offset=".1626"/>
			<stop stop-color="#cc2626" offset=".2129"/>
			<stop stop-color="#dc2225" offset=".271"/>
			<stop stop-color="#e81f25" offset=".3438"/>
			<stop stop-color="#ed1b26" offset=".478"/>
			<stop stop-color="#f7921e" offset="1"/>
		</linearGradient>
		<linearGradient id="e" x1="74.991997" x2="13.485" y1="-.1471" y2="88.765999" gradientTransform="matrix(.19912877 0 0 .20002033 42.826283 3.0873529)" gradientUnits="userSpaceOnUse">
			<stop stop-color="#120e1e" offset="0"/>
			<stop stop-color="#1b1426" offset=".0231"/>
			<stop stop-color="#442349" offset=".1446"/>
			<stop stop-color="#652866" offset=".2552"/>
			<stop stop-color="#7c287b" offset=".3511"/>
			<stop stop-color="#8b2589" offset=".4286"/>
			<stop stop-color="#91268f" offset=".478"/>
			<stop stop-color="#ed1b26" offset="1"/>
		</linearGradient>
		<linearGradient id="a" x2="0" y1=".028000001" y2="89.146004" gradientUnits="userSpaceOnUse">
			<stop stop-color="#ffd235" offset="0"/>
			<stop stop-color="#feb30a" offset="1"/>
		</linearGradient>
		<linearGradient id="d" x2="0" y1=".028000001" y2="89.146004" gradientTransform="matrix(.4467 0 0 .4487 65.950788 .01288623)" gradientUnits="userSpaceOnUse" xlink:href="#a"/>
		<linearGradient id="c" x2="0" y1=".028000001" y2="89.146004" gradientTransform="matrix(.4467 0 0 .4487 93.288828 .01288623)" gradientUnits="userSpaceOnUse" xlink:href="#a"/>
		<linearGradient id="b" x2="0" y1=".028000001" y2="89.146004" gradientTransform="matrix(.4467 0 0 .4487 120.63134 .01288623)" gradientUnits="userSpaceOnUse" xlink:href="#a"/>
		<linearGradient id="i" x2="0" y1=".028000001" y2="89.146004" gradientTransform="matrix(.4467 0 0 .4487 51.508977 .01288623)" gradientUnits="userSpaceOnUse" xlink:href="#a"/>
		<linearGradient id="h" x2="0" y1=".028000001" y2="89.146004" gradientTransform="matrix(.4467 0 0 .4487 0 .01288623)" gradientUnits="userSpaceOnUse" xlink:href="#a"/>
	</defs>
	<path d="m53.77413 20.912646 12.168832-17.8253016h5.378751l-12.166603 17.8253016z" fill="url(#g)" stroke-width=".44577742"/>
	<path d="m29.397238 20.912646 12.16794-17.8253016h5.381871l-12.166603 17.8253016z" fill="url(#f)" stroke-width=".44577742"/>
	<path d="m41.587021 20.912646 12.168832-17.8253016h5.379197l-12.167049 17.8253016z" fill="url(#e)" stroke-width=".44577742"/>
	<g transform="matrix(.44577742 0 0 .44577742 1.2255526e-7 3.0815493)" stroke="#0f0f0f" stroke-width="3.39407052">
		<path d="m105.31533 40.000133-27.293368-39.98724677h-12.071174l27.291583 39.98724677z" fill="url(#d)"/>
		<path d="m132.65784 40.000133-27.29828-39.98724677h-12.070732l27.297832 39.98724677z" fill="url(#c)"/>
		<path d="m160.0008 40.000133-27.29829-39.98724677h-12.07117l27.29828 39.98724677z" fill="url(#b)"/>
	</g>
	<g transform="matrix(.44577742 0 0 .44577742 1.2255526e-7 3.0815493)" stroke-width=".44769889">
		<path d="m105.31533 40.000133-27.293368-39.98724677h-12.071174l27.291583 39.98724677z" fill="url(#d)"/>
		<path d="m132.65784 40.000133-27.29828-39.98724677h-12.070732l27.297832 39.98724677z" fill="url(#c)"/>
		<path d="m160.0008 40.000133-27.29829-39.98724677h-12.07117l27.29828 39.98724677z" fill="url(#b)"/>
		<path d="m51.508977.01288623h10.325471v39.98724677h-10.325471z" fill="url(#i)" fill-rule="evenodd"/>
		<path d="m10.124456 40.000133v-23.416756l13.077589 19.939331h.26668l13.213386-20.142143v23.619568h10.260252v-39.98724677h-11.129977l-12.343661 19.93888177-12.337408-19.93888177h-11.131317v39.98724677z" fill="url(#h)"/>
	</g>
</svg>
