/* XPM */
static const char * knob17_xpm[] = {
"32 32 96 2",
"  	c None",
". 	c #E1E1E1",
"+ 	c #CDCDCD",
"@ 	c #B6B6B6",
"# 	c #B3B3B3",
"$ 	c #B2B2B2",
"% 	c #B0B0B0",
"& 	c #B1B1B1",
"* 	c #B4B4B4",
"= 	c #ADADAD",
"- 	c #CACACA",
"; 	c #E0E0E0",
"> 	c #DEDEDE",
", 	c #AEAEAE",
"' 	c #BCBCBC",
") 	c #D2D2D2",
"! 	c #C3C3C3",
"~ 	c #A7A7A7",
"{ 	c #9C9C9C",
"] 	c #DBDBDB",
"^ 	c #B7B7B7",
"/ 	c #ACACAC",
"( 	c #CECECE",
"_ 	c #BABABA",
": 	c #9B9B9B",
"< 	c #DDDDDD",
"[ 	c #A1A1A1",
"} 	c #9D9D9D",
"| 	c #BFBFBF",
"1 	c #B9B9B9",
"2 	c #BBBBBB",
"3 	c #BEBEBE",
"4 	c #A5A5A5",
"5 	c #A2A2A2",
"6 	c #D7D7D7",
"7 	c #D9D9D9",
"8 	c #979797",
"9 	c #BDBDBD",
"0 	c #DFDFDF",
"a 	c #F6F6F6",
"b 	c #E4E4E4",
"c 	c #9E9E9E",
"d 	c #D1D1D1",
"e 	c #9A9A9A",
"f 	c #A4A4A4",
"g 	c #ABABAB",
"h 	c #F0F0F0",
"i 	c #F4F4F4",
"j 	c #989898",
"k 	c #D6D6D6",
"l 	c #D4D4D4",
"m 	c #A0A0A0",
"n 	c #AAAAAA",
"o 	c #EAEAEA",
"p 	c #A3A3A3",
"q 	c #919191",
"r 	c #B5B5B5",
"s 	c #D3D3D3",
"t 	c #C9C9C9",
"u 	c #C8C8C8",
"v 	c #F1F1F1",
"w 	c #F5F5F5",
"x 	c #AFAFAF",
"y 	c #C6C6C6",
"z 	c #CFCFCF",
"A 	c #B8B8B8",
"B 	c #F2F2F2",
"C 	c #C0C0C0",
"D 	c #868686",
"E 	c #7F7F7F",
"F 	c #808080",
"G 	c #C2C2C2",
"H 	c #E8E8E8",
"I 	c #C5C5C5",
"J 	c #CCCCCC",
"K 	c #878787",
"L 	c #EEEEEE",
"M 	c #DADADA",
"N 	c #D0D0D0",
"O 	c #A8A8A8",
"P 	c #D8D8D8",
"Q 	c #EDEDED",
"R 	c #EBEBEB",
"S 	c #969696",
"T 	c #F3F3F3",
"U 	c #A6A6A6",
"V 	c #9F9F9F",
"W 	c #E5E5E5",
"X 	c #CBCBCB",
"Y 	c #C7C7C7",
"Z 	c #C1C1C1",
"` 	c #606060",
" .	c #C4C4C4",
"..	c #7E7E7E",
"+.	c #828282",
"@.	c #8A8A8A",
". . . . . . . . . . . + @ # $ % & * # = - ; . . . . . . . . . . ",
". . . . . . . . > * , ' ) ) ) ) ) ) ! & ~ { = ] . . . . . . . . ",
". . . . . . . ^ / ( ) ) ) ) ) ) ) ) _ * * * # : # . . . . . . . ",
". . . . . < [ } ' ) ) ) | $ 1 2 3 _ 4 5 * * * * , } 6 . . . . . ",
". . . . 7 8 # * 4 - % 9 0 a a a a a a b ' c % * * * : d . . . . ",
". . . < e * * * f g h a a a a a a a a a a i 3 [ * * * j k . . . ",
". . . [ $ * * c l a a a a a a a a a a a a a a ; m * * * : ; . . ",
". . _ n * * m 0 a a a a a a a a a a a a a a a a o { * , [ $ . . ",
". > : * * p k a a a a a a a a a a a a a a a a a a . q 1 ) r s . ",
". & & * $ @ a a a a a a a a a a a a a a a a a a a a t u ) ) , . ",
". c * * } v a a a a a a a a a a a a a a a a a a a a w % ) ) x > ",
"+ 4 * * 1 a a a a a a a a a a a a a a a a a a a a a a y z ) + 2 ",
"x # * f 0 a a a a a a a a a a a a a a a a a a a a a a v $ ) ) # ",
"% 3 A 5 a a a a a a a a a a a a a a a a a a a a a a a a ^ ) ) & ",
"# ) ) _ a a a a a a a a a a a a a a a a a a a a a a a a 3 ) ) % ",
"& ) ) 3 a a a a a a a a a a a B a a a a a a a a a a a a C ) ) , ",
"% ) ) ' a a a a a a a a a a a D h a a a a a a a a a a a ! ) ) x ",
"$ ) ) _ a a a a a a a a a a a E a a a a a a a a a a a a C ) ) $ ",
"# ) ) * a a a a a a a a a a w F a a a a a a a a a a a a x _ G & ",
"r ) ) A H a a a a a a a a a > 8 a a a a a a a a a a a i } * $ p ",
"I ! ) d G a a a a a a a a a x y a a a a a a a a a a a J , * $ A ",
"; , ) ) , w a a a a a a a a K L a a a a a a a a a a a ~ * * : M ",
". & d N ~ 3 a a a a a a a a E a a a a a a a a a a a d O * * 4 . ",
". P } [ # [ . a a a a a a w F a a a a a a a a a a Q m * * 5 + . ",
". . x % * * } R a a a a a 0 S a a a a a a a a a T 5 * * # U . . ",
". . ; : * * * V W a a a a % I a a a a a a a a R c $ * * e ] . . ",
". . . l j * * * m u a a a K L a a a a a a a l & m * * c X . . . ",
". . . . z { * * * g p Y B E a a a a a i ( $ Z ) y O { y . . . . ",
". . . . . l e & * * * & : ` C  .G | 1 & - ) ) ) d 8 - . . . . . ",
". . . . . . 0 / V * * * f ..) ) ) ) ) ) ) ) ) ' , M . . . . . . ",
". . . . . . . . ) ~ : % +.~ ) ) ) ) ) ) N # , - . . . . . . . . ",
". . . . . . . . . . < 2 @.g $ x , % % $ ^ 7 . . . . . . . . . . "};
