/* XPM */
static const char * knob16_xpm[] = {
"32 32 88 1",
" 	c None",
".	c #E1E1E1",
"+	c #CCCCCC",
"@	c #B5B5B5",
"#	c #B3B3B3",
"$	c #B0B0B0",
"%	c #999999",
"&	c #A4A4A4",
"*	c #A7A7A7",
"=	c #AFAFAF",
"-	c #C7C7C7",
";	c #DFDFDF",
">	c #B6B6B6",
",	c #BEBEBE",
"'	c #D2D2D2",
")	c #CFCFCF",
"!	c #A8A8A8",
"~	c #B4B4B4",
"{	c #9B9B9B",
"]	c #ADADAD",
"^	c #DBDBDB",
"/	c #ABABAB",
"(	c #CECECE",
"_	c #B2B2B2",
":	c #DDDDDD",
"<	c #C5C5C5",
"[	c #BBBBBB",
"}	c #BCBCBC",
"|	c #A2A2A2",
"1	c #9F9F9F",
"2	c #D5D5D5",
"3	c #D9D9D9",
"4	c #9C9C9C",
"5	c #D1D1D1",
"6	c #D0D0D0",
"7	c #BFBFBF",
"8	c #F6F6F6",
"9	c #E6E6E6",
"0	c #949494",
"a	c #9A9A9A",
"b	c #A6A6A6",
"c	c #F1F1F1",
"d	c #F5F5F5",
"e	c #A9A9A9",
"f	c #A0A0A0",
"g	c #AAAAAA",
"h	c #E0E0E0",
"i	c #EAEAEA",
"j	c #CDCDCD",
"k	c #D4D4D4",
"l	c #E3E3E3",
"m	c #B1B1B1",
"n	c #C9C9C9",
"o	c #9E9E9E",
"p	c #9D9D9D",
"q	c #DEDEDE",
"r	c #A3A3A3",
"s	c #B7B7B7",
"t	c #C8C8C8",
"u	c #F2F2F2",
"v	c #B9B9B9",
"w	c #A5A5A5",
"x	c #ACACAC",
"y	c #C1C1C1",
"z	c #C2C2C2",
"A	c #C4C4C4",
"B	c #B8B8B8",
"C	c #979797",
"D	c #BABABA",
"E	c #909090",
"F	c #959595",
"G	c #E2E2E2",
"H	c #AEAEAE",
"I	c #DADADA",
"J	c #ECECEC",
"K	c #A1A1A1",
"L	c #CACACA",
"M	c #EBEBEB",
"N	c #F3F3F3",
"O	c #C6C6C6",
"P	c #929292",
"Q	c #D3D3D3",
"R	c #CBCBCB",
"S	c #C3C3C3",
"T	c #989898",
"U	c #707070",
"V	c #6D6D6D",
"W	c #636363",
"...........+@##$%&*=-...........",
"........;>=,''')!~~~!{]^........",
".......,/(''''')!~~~~~#%_.......",
".....:!<'''',#[}]]|1~~~~=%2.....",
"....345''6_7;8888889}1$~~~0)....",
"...:ab,'}}c8888888888d71~=]]2...",
"...1#~ef288888888888888;ag''b;..",
"..[e~~1h8888888888888888i$''j#..",
".;%~~|k888888888888888888l~''~k.",
"._m~#@88888888888888888888nn''$.",
".o~~pc888888888888888888888_''$q",
"+r~~s8888888888888888888888t)'([",
"$~~r;8888888888888888888888u$''#",
"!~~1888888888888888888888888v''m",
"w~~x888888888888888888888888y''_",
"o__$88888888888d888888888888z))]",
"!AAB88888888888Cl88888888888D!!E",
"#''}88888888888FG88888888888s~~o",
"_''@88888888888FG88888888888]~~f",
"~''B98888888888FG8888888888d{~~!",
"-A''z8888888888FG8888888888jH~#@",
".H''md888888888FG8888888888!~~{I",
".#5'jA888888888FG8888888885!~~w.",
".^H''>h88888888FG88888888J4~~K+.",
"..>+'LCM8888888FG8888888Nr&~#b..",
"...bOK~1l888888FG888888JH5AbC^..",
"...2P~~~o<88888FG88888Q='''&R...",
"....6{~~~xr<u88FG88d)@S'''~-....",
".....2T$~~~magsU~y[$L'''5e+.....",
"......;]p~~~~~~Vy''''''D=^......",
"........Q*a$~~~Vy'''6_$+........",
"..........qveKoWr_m_vI.........."};
