/* XPM */
static const char * knob20_xpm[] = {
"32 32 91 1",
" 	c None",
".	c #E1E1E1",
"+	c #CDCDCD",
"@	c #B1B1B1",
"#	c #A6A6A6",
"$	c #A1A1A1",
"%	c #9F9F9F",
"&	c #979797",
"*	c #B0B0B0",
"=	c #B5B5B5",
"-	c #CACACA",
";	c #DDDDDD",
">	c #B2B2B2",
",	c #9E9E9E",
"'	c #A2A2A2",
")	c #B4B4B4",
"!	c #D2D2D2",
"~	c #BFBFBF",
"{	c #AEAEAE",
"]	c #DBDBDB",
"^	c #E0E0E0",
"/	c #BABABA",
"(	c #9B9B9B",
"_	c #AFAFAF",
":	c #D0D0D0",
"<	c #AAAAAA",
"[	c #A4A4A4",
"}	c #9D9D9D",
"|	c #A8A8A8",
"1	c #BCBCBC",
"2	c #C9C9C9",
"3	c #DADADA",
"4	c #D8D8D8",
"5	c #B3B3B3",
"6	c #B8B8B8",
"7	c #DEDEDE",
"8	c #F6F6F6",
"9	c #E2E2E2",
"0	c #C0C0C0",
"a	c #CFCFCF",
"b	c #ACACAC",
"c	c #D4D4D4",
"d	c #ADADAD",
"e	c #A5A5A5",
"f	c #B6B6B6",
"g	c #F1F1F1",
"h	c #F3F3F3",
"i	c #BBBBBB",
"j	c #999999",
"k	c #ABABAB",
"l	c #D1D1D1",
"m	c #A0A0A0",
"n	c #D7D7D7",
"o	c #C7C7C7",
"p	c #E3E3E3",
"q	c #E9E9E9",
"r	c #DCDCDC",
"s	c #BEBEBE",
"t	c #F2F2F2",
"u	c #F5F5F5",
"v	c #9A9A9A",
"w	c #C8C8C8",
"x	c #C1C1C1",
"y	c #BDBDBD",
"z	c #E4E4E4",
"A	c #EEEEEE",
"B	c #9C9C9C",
"C	c #B7B7B7",
"D	c #939393",
"E	c #A3A3A3",
"F	c #888888",
"G	c #777777",
"H	c #F4F4F4",
"I	c #ECECEC",
"J	c #CBCBCB",
"K	c #CECECE",
"L	c #B9B9B9",
"M	c #C4C4C4",
"N	c #C5C5C5",
"O	c #D5D5D5",
"P	c #E5E5E5",
"Q	c #8D8D8D",
"R	c #767676",
"S	c #DFDFDF",
"T	c #626262",
"U	c #EDEDED",
"V	c #878787",
"W	c #C6C6C6",
"X	c #CCCCCC",
"Y	c #C2C2C2",
"Z	c #A7A7A7",
"...........+@#$%&*@=-...........",
"........;>,'))))*!!!~{)]........",
"......^/(@))))))_!!!!!:_/^......",
".....;'<))))[}#{|=>1!!!!2<3.....",
"....4(5))5}6788888890@a!!!bc....",
"...;<d5)efg8888888888h0i!!*j3...",
"..^klldmn888888888888887)*>)}^..",
"..1o!!fp8888888888888888qm)){*..",
".r_!!s3888888888888888888^'))}n.",
".=:!as888888888888888888880_))<.",
".{!!>t88888888888888888888u$))v^",
"wx!!088888888888888888888880>)by",
"=!!iz8888888888888888888888AB))b",
"*!!>888888888888888888888888e))$",
"kalC888888888888888888888888_))(",
"Dmmk888888888889u88888888888{mEF",
"B))58888888888!GH888888888880!!d",
"%))<888888888!Gh888888888888/!!_",
"'))'88888888!Gh8888888888888f!!{",
"d))}I888888!Gh8888888888888h>!!5",
"0k)5088888!Gh88888888888888J+!KL",
"^v))$u888!Gh888888888888888=!!*;",
".<))dM88!Gh888888888888888:N!!*.",
".O}))'P!Gh888888888888888I)!!La.",
"..d*))QRh888888888888888h@!!:*..",
"..S()jT@q88888888888888U[dl!br..",
"...cVTa!f+888888888888:m)5d5:...",
"....2d!!!W)Xh888888H+||)))Bo....",
".....c<:!!!X@C1xYk<Bd)))5va.....",
"......7*6!!!!!!!!m)))))'#r......",
"........a**K!!!!!E))>(eX........",
"..........r65{dddF}Z)3.........."};
