/* XPM */
static const char * knob0_xpm[] = {
"32 32 57 1",
" 	c None",
".	c #E1E1E1",
"+	c #E0E0E0",
"@	c #C1C1C1",
"#	c #B4B4B4",
"$	c #B2B2B2",
"%	c #B3B3B3",
"&	c #AFAFAF",
"*	c #646464",
"=	c #A1A1A1",
"-	c #A4A4A4",
";	c #ACACAC",
">	c #BFBFBF",
",	c #D7D7D7",
"'	c #B1B1B1",
")	c #AEAEAE",
"!	c #CACACA",
"~	c #D2D2D2",
"{	c #CFCFCF",
"]	c #616161",
"^	c #ADADAD",
"/	c #9A9A9A",
"(	c #AAAAAA",
"_	c #9B9B9B",
":	c #D5D5D5",
"<	c #A6A6A6",
"[	c #CDCDCD",
"}	c #D0D0D0",
"|	c #B7B7B7",
"1	c #BEBEBE",
"2	c #B0B0B0",
"3	c #989898",
"4	c #CBCBCB",
"5	c #C4C4C4",
"6	c #EEEEEE",
"7	c #F6F6F6",
"8	c #F3F3F3",
"9	c #858585",
"0	c #C0C0C0",
"a	c #C7C7C7",
"b	c #F5F5F5",
"c	c #C2C2C2",
"d	c #9E9E9E",
"e	c #929292",
"f	c #A5A5A5",
"g	c #9F9F9F",
"h	c #EBEBEB",
"i	c #C3C3C3",
"j	c #B6B6B6",
"k	c #A7A7A7",
"l	c #BCBCBC",
"m	c #A8A8A8",
"n	c #959595",
"o	c #979797",
"p	c #ABABAB",
"q	c #909090",
"r	c #9C9C9C",
"..........+@#$%&*=-;>+..........",
"........,')!~~~{]###^/(,........",
"......+#'~~~~~~{]######_&+......",
".....:<[~~~}%|11]$<_%###23:.....",
"....}^~~~4$5677897760=)###_}....",
"...:=~~~#ab7777897777bcd###e:...",
"..+3f5~2.77777789777777.g#f><+..",
"..&2#f=h7777777897777777h3i~[#..",
".,_##d.777777778977777777.#~~',.",
".(##)c77777777789777777777a4~~'.",
"+/##=b77777777789777777777b$~~)+",
">^#%077777777778977777777775}~!@",
";##_677777777778977777777776%~~#",
"-##<777777777778977777777777|~~$",
"=##$7777777777789777777777771~~%",
"_$$j7777777777789777777777770{{&",
"k55l777777777777677777777777%mmn",
"%~~1777777777777777777777777$##=",
"$~~|777777777777777777777777<##-",
"#~~%677777777777777777777776_##;",
"@!~}577777777777777777777770%#^>",
"+)~~$b77777777777777777777b=##/+",
".'~~4a77777777777777777777c)##(.",
".,'~~#.777777777777777777.d##_,.",
"..#[~~2h7777777777777777hg##2&..",
"..+<~~#o.77777777777777.gm##3+..",
"...:^|p#dcb7777777777ba#~1k_:...",
"....}q###)=0677777765$4~~~r}....",
".....:32###%_<$jl1|%}~~~[<:.....",
"......+&_######$5~~~~~~'#+......",
"........,(/^###$5~~~!)',........",
"..........+>;-=_k%$#@+.........."};
