/* XPM */
static const char * knob13_xpm[] = {
"32 32 96 2",
"  	c None",
". 	c #E1E1E1",
"+ 	c #C9C9C9",
"@ 	c #AFAFAF",
"# 	c #A7A7A7",
"$ 	c #A0A0A0",
"% 	c #9E9E9E",
"& 	c #9C9C9C",
"* 	c #9A9A9A",
"= 	c #B3B3B3",
"- 	c #C2C2C2",
"; 	c #E0E0E0",
"> 	c #DCDCDC",
", 	c #B1B1B1",
"' 	c #A6A6A6",
") 	c #B4B4B4",
"! 	c #A4A4A4",
"~ 	c #D2D2D2",
"{ 	c #C7C7C7",
"] 	c #ABABAB",
"^ 	c #B2B2B2",
"/ 	c #D7D7D7",
"( 	c #BABABA",
"_ 	c #9D9D9D",
": 	c #ACACAC",
"< 	c #D1D1D1",
"[ 	c #ADADAD",
"} 	c #A2A2A2",
"| 	c #B0B0B0",
"1 	c #AAAAAA",
"2 	c #B5B5B5",
"3 	c #CECECE",
"4 	c #D4D4D4",
"5 	c #D8D8D8",
"6 	c #A9A9A9",
"7 	c #E2E2E2",
"8 	c #F6F6F6",
"9 	c #E9E9E9",
"0 	c #C1C1C1",
"a 	c #CBCBCB",
"b 	c #DDDDDD",
"c 	c #B8B8B8",
"d 	c #F1F1F1",
"e 	c #F5F5F5",
"f 	c #B6B6B6",
"g 	c #D3D3D3",
"h 	c #B7B7B7",
"i 	c #DADADA",
"j 	c #E5E5E5",
"k 	c #DEDEDE",
"l 	c #BEBEBE",
"m 	c #C5C5C5",
"n 	c #EFEFEF",
"o 	c #BDBDBD",
"p 	c #E7E7E7",
"q 	c #A1A1A1",
"r 	c #D0D0D0",
"s 	c #999999",
"t 	c #CDCDCD",
"u 	c #BCBCBC",
"v 	c #C3C3C3",
"w 	c #F2F2F2",
"x 	c #A8A8A8",
"y 	c #8E8E8E",
"z 	c #BBBBBB",
"A 	c #989898",
"B 	c #B9B9B9",
"C 	c #969696",
"D 	c #888888",
"E 	c #A5A5A5",
"F 	c #898989",
"G 	c #F0F0F0",
"H 	c #727272",
"I 	c #F4F4F4",
"J 	c #E3E3E3",
"K 	c #C6C6C6",
"L 	c #CCCCCC",
"M 	c #CACACA",
"N 	c #F3F3F3",
"O 	c #717171",
"P 	c #D9D9D9",
"Q 	c #AEAEAE",
"R 	c #DFDFDF",
"S 	c #EEEEEE",
"T 	c #CFCFCF",
"U 	c #C8C8C8",
"V 	c #EBEBEB",
"W 	c #747474",
"X 	c #5B5B5B",
"Y 	c #939393",
"Z 	c #7F7F7F",
"` 	c #A3A3A3",
" .	c #929292",
"..	c #D6D6D6",
"+.	c #9B9B9B",
"@.	c #979797",
". . . . . . . . . . . + @ # $ % & % * = - ; . . . . . . . . . . ",
". . . . . . . . > , & ' ) ) ) ) ) ) ! ~ { ] ^ / . . . . . . . . ",
". . . . . . ; ( _ ^ ) ) ) ) ) ) ) ) : ~ ~ ~ < , ) ; . . . . . . ",
". . . . . > [ [ = ) ) ) } $ : , | 1 _ 2 < ~ ~ ~ 3 1 4 . . . . . ",
". . . . 5 6 < < : = $ ( 7 8 8 8 8 8 8 9 0 ^ a ~ ~ ~ @ 3 . . . . ",
". . . b 6 ~ ~ ~ = c d 8 8 8 8 8 8 8 8 8 8 e { f ~ ~ ~ @ g . . . ",
". . . : < ~ ~ h i 8 8 8 8 8 8 8 8 8 8 8 8 8 8 j @ < ~ ~ : k . . ",
". . l m ~ ~ ) 7 8 8 8 8 8 8 8 8 8 8 8 8 8 8 8 8 n ^ ~ ~ f 1 . . ",
". k ] ~ ~ o 5 8 8 8 8 8 8 8 8 8 8 8 8 8 8 8 8 8 8 p @ [ = q < . ",
". h 3 ~ r o 8 8 8 8 8 8 8 8 8 8 8 8 8 8 8 8 8 8 8 8 a ] ) ) # . ",
". : ~ ~ ^ d 8 8 8 8 8 8 8 8 8 8 8 8 8 8 8 8 8 8 8 8 8 # ) ) s > ",
"t o ~ ~ u 8 8 8 8 8 8 8 8 8 8 8 8 8 8 8 8 8 8 8 8 8 8 + @ ) , h ",
": , v o > 8 8 8 8 8 8 8 8 8 8 8 8 8 8 8 8 8 8 8 8 8 8 w & ) ) x ",
"# ) : y 8 8 8 8 8 8 8 8 8 8 8 8 8 8 8 8 8 8 8 8 8 8 8 8 1 ) ) $ ",
"q ) ) # 8 8 8 8 8 8 8 8 8 8 8 8 8 8 8 8 8 8 8 8 8 8 8 8 2 ) ) s ",
"% ) ) ] 8 8 8 8 8 8 8 8 8 8 8 8 8 8 8 8 8 8 8 8 8 8 8 8 z ) ) A ",
"$ ) ) @ 8 8 8 8 8 8 8 8 8 8 8 5 * 8 8 8 8 8 8 8 8 8 8 8 B ) ) C ",
"q ) ) 1 8 8 8 8 8 8 8 8 8 8 8 8 D 5 8 8 8 8 8 8 8 8 8 8 @ x E F ",
"x ) ) $ 8 8 8 8 8 8 8 8 8 8 8 8 G H I 8 8 8 8 8 8 8 8 8 z ~ ~ [ ",
"| ) ) } J 8 8 8 8 8 8 8 8 8 8 8 8 K s 8 8 8 8 8 8 8 8 I @ ~ ~ , ",
"+ ' ) ) ( 8 8 8 8 8 8 8 8 8 8 8 8 8 D / 8 8 8 8 8 8 8 L M ~ r h ",
". & ) ) $ N 8 8 8 8 8 8 8 8 8 8 8 8 G O I 8 8 8 8 8 8 2 ~ ~ , P ",
". @ = ) ^ u 8 8 8 8 8 8 8 8 8 8 8 8 8 { s 8 8 8 8 8 4 v ~ ~ @ . ",
". > & ) : Q R 8 8 8 8 8 8 8 8 8 8 8 8 8 F / 8 8 8 S , ~ ~ ( L . ",
". . f [ T ~ 2 9 8 8 8 8 8 8 8 8 8 8 8 8 G O I 8 N @ ~ ~ < @ . . ",
". . ; : ~ ~ ~ , 7 8 8 8 8 8 8 8 8 8 8 8 8 U A V ^ r ~ ~ ] > . . ",
". . . P : ~ ~ ~ h K e 8 8 8 8 8 8 8 8 8 8 8 W % ~ ~ ~ ) t . . . ",
". . . . g ] ~ ~ ~ a ^ v S 8 8 8 8 8 8 N + x ' X r ~ ) U . . . . ",
". . . . . 5 1 L ~ ~ ~ r * x , ) B ) 1 & @ ) ) Y Z [ T . . . . . ",
". . . . . . . f ^ ~ ~ ~ # ) ) ) ) ) ) ) ) ) ) `  .> . . . . . . ",
". . . . . . . . ..^ : + $ ) ) ) ) ) ) ) , * ' 3 . . . . . . . . ",
". . . . . . . . . . R z ' q +.@.s +.q 6 h > . . . . . . . . . . "};
