/* XPM */
static const char * knob28_xpm[] = {
"32 32 91 1",
" 	c None",
".	c #E1E1E1",
"+	c #C3C3C3",
"@	c #AEAEAE",
"#	c #A4A4A4",
"$	c #9E9E9E",
"%	c #9C9C9C",
"&	c #979797",
"*	c #A5A5A5",
"=	c #B0B0B0",
"-	c #B5B5B5",
";	c #C5C5C5",
">	c #D8D8D8",
",	c #ACACAC",
"'	c #9B9B9B",
")	c #A9A9A9",
"!	c #B4B4B4",
"~	c #A6A6A6",
"{	c #C6C6C6",
"]	c #D2D2D2",
"^	c #B3B3B3",
"/	c #DADADA",
"(	c #E0E0E0",
"_	c #B2B2B2",
":	c #A2A2A2",
"<	c #CDCDCD",
"[	c #D1D1D1",
"}	c #B8B8B8",
"|	c #9D9D9D",
"1	c #A1A1A1",
"2	c #AAAAAA",
"3	c #B7B7B7",
"4	c #CACACA",
"5	c #D0D0D0",
"6	c #838383",
"7	c #9F9F9F",
"8	c #BDBDBD",
"9	c #E9E9E9",
"0	c #F6F6F6",
"a	c #E8E8E8",
"b	c #C2C2C2",
"c	c #CECECE",
"d	c #D4D4D4",
"e	c #6B6B6B",
"f	c #919191",
"g	c #A3A3A3",
"h	c #BFBFBF",
"i	c #F5F5F5",
"j	c #F4F4F4",
"k	c #BBBBBB",
"l	c #9A9A9A",
"m	c #858585",
"n	c #DFDFDF",
"o	c #CCCCCC",
"p	c #7D7D7D",
"q	c #C7C7C7",
"r	c #A0A0A0",
"s	c #D6D6D6",
"t	c #B9B9B9",
"u	c #E2E2E2",
"v	c #808080",
"w	c #D9D9D9",
"x	c #BEBEBE",
"y	c #C0C0C0",
"z	c #C8C8C8",
"A	c #EDEDED",
"B	c #EAEAEA",
"C	c #ADADAD",
"D	c #AFAFAF",
"E	c #D7D7D7",
"F	c #939393",
"G	c #8D8D8D",
"H	c #ABABAB",
"I	c #F0F0F0",
"J	c #C4C4C4",
"K	c #A8A8A8",
"L	c #CBCBCB",
"M	c #D3D3D3",
"N	c #E7E7E7",
"O	c #E4E4E4",
"P	c #B1B1B1",
"Q	c #EFEFEF",
"R	c #EEEEEE",
"S	c #DEDEDE",
"T	c #E5E5E5",
"U	c #B6B6B6",
"V	c #F1F1F1",
"W	c #CFCFCF",
"X	c #BABABA",
"Y	c #BCBCBC",
"Z	c #898989",
"...........+@#$%&*=-;...........",
"........>,')!!!!~{]]+@^/........",
"......(_%^!!!!!!:<]]]][=}(......",
".....>|@!!!^$12_,3^}[]]]42/.....",
"....56!!!=789000000ab_c]]],d....",
"...>,ef!ghi0000000000jbk]]=l/...",
"..(2][em(00000000000000n!=_!|(..",
"..-o]]^pq0000000000000009r!!@^..",
".s^]]tuivq000000000000000ng!!%w.",
"._]]o;00ivq000000000000000x=!^,.",
"(@]]_i000ivq00000000000000j7!!'(",
"yz]5;00000ivq00000000000000x^!)b",
"!]]!A000000ivq0000000000000B$!!C",
"D]]!00000000ivq0000000000000:!!g",
"@]]t000000000ivq000000000000,!!|",
"@]]x0000000000ivE00000000000^!!'",
"@]]h00000000000ij00000000000D@=F",
"Gg1#000000000000000000000000}]]D",
"1!!*000000000000000000000000!]]D",
"H!!'I0000000000000000000000A-]]!",
"k@!_+0000000000000000000000J5]zy",
"nl!!g000000000000000000000i_]]@(",
".K!!,q00000000000000000000qL]]_.",
".M$!!1N000000000000000000O}]]^s.",
"..,P!!:Q0000000000000000R_]]<!..",
"..S'!!,PN00000000000000T1C[]2n..",
"...d%,5]UL00000000000i{1!^C@s...",
"....o@]]]z^zV000000IJgC!!!'c....",
".....d2W]]]c_UXyDD~'P!!!P's.....",
"......S_U]]]]]]]:!!!!!!$,n......",
"........]PDo]]]]*!!!@lKM........",
"..........SY^D@CZ'r2kn.........."};
