/* XPM */
static const char * knob7_xpm[] = {
"32 32 96 2",
"  	c None",
". 	c #E1E1E1",
"+ 	c #E0E0E0",
"@ 	c #C4C4C4",
"# 	c #B2B2B2",
"$ 	c #A2A2A2",
"% 	c #A1A1A1",
"& 	c #9C9C9C",
"* 	c #9B9B9B",
"= 	c #9F9F9F",
"- 	c #A3A3A3",
"; 	c #ABABAB",
"> 	c #BBBBBB",
", 	c #DEDEDE",
"' 	c #D8D8D8",
") 	c #AEAEAE",
"! 	c #C8C8C8",
"~ 	c #D1D1D1",
"{ 	c #A9A9A9",
"] 	c #B4B4B4",
"^ 	c #9A9A9A",
"/ 	c #A6A6A6",
"( 	c #D2D2D2",
"_ 	c #B7B7B7",
": 	c #B1B1B1",
"< 	c #AFAFAF",
"[ 	c #8F8F8F",
"} 	c #B0B0B0",
"| 	c #D9D9D9",
"1 	c #A8A8A8",
"2 	c #CBCBCB",
"3 	c #B6B6B6",
"4 	c #A7A7A7",
"5 	c #C0C0C0",
"6 	c #D0D0D0",
"7 	c #D4D4D4",
"8 	c #CCCCCC",
"9 	c #C5C5C5",
"0 	c #EBEBEB",
"a 	c #F6F6F6",
"b 	c #F0F0F0",
"c 	c #C3C3C3",
"d 	c #A0A0A0",
"e 	c #B8B8B8",
"f 	c #F5F5F5",
"g 	c #B5B5B5",
"h 	c #DFDFDF",
"i 	c #E6E6E6",
"j 	c #ADADAD",
"k 	c #EFEFEF",
"l 	c #DBDBDB",
"m 	c #999999",
"n 	c #ACACAC",
"o 	c #AAAAAA",
"p 	c #DCDCDC",
"q 	c #E9E9E9",
"r 	c #B3B3B3",
"s 	c #CFCFCF",
"t 	c #C6C6C6",
"u 	c #F3F3F3",
"v 	c #A5A5A5",
"w 	c #BABABA",
"x 	c #CECECE",
"y 	c #BCBCBC",
"z 	c #E4E4E4",
"A 	c #676767",
"B 	c #616161",
"C 	c #7A7A7A",
"D 	c #878787",
"E 	c #7F7F7F",
"F 	c #808080",
"G 	c #959595",
"H 	c #9E9E9E",
"I 	c #868686",
"J 	c #969696",
"K 	c #EEEEEE",
"L 	c #C7C7C7",
"M 	c #B9B9B9",
"N 	c #989898",
"O 	c #A4A4A4",
"P 	c #BDBDBD",
"Q 	c #E3E3E3",
"R 	c #C2C2C2",
"S 	c #DDDDDD",
"T 	c #C1C1C1",
"U 	c #CACACA",
"V 	c #E7E7E7",
"W 	c #C9C9C9",
"X 	c #929292",
"Y 	c #DADADA",
"Z 	c #F4F4F4",
"` 	c #D5D5D5",
" .	c #BFBFBF",
"..	c #9D9D9D",
"+.	c #EAEAEA",
"@.	c #CDCDCD",
". . . . . . . . . . + @ # $ % & * = - ; > , . . . . . . . . . . ",
". . . . . . . . ' # ) ! ~ { ] ] ] ] ] ] ) ^ / ( . . . . . . . . ",
". . . . . . . _ : ~ ( ( ( < ] ] ] ] ] ] ] ] ] [ } , . . . . . . ",
". . . . . | 1 2 ( ( ( ~ 3 { : _ 3 : 4 * # ] ; 5 6 { 6 . . . . . ",
". . . . 7 ; ( ( ( 8 : 9 0 a a a a a a b c d = ( ( ( ) 8 . . . . ",
". . . | 1 ( ( ( e @ f a a a a a a a a a a a 2 g ( ( ( : ~ . . . ",
". . . { ~ ( ( # h a a a a a a a a a a a a a a i j ~ ( ( { , . . ",
". . } } ( ( } i a a a a a a a a a a a a a a a a k < ( ( 6 } . . ",
". l m n o # p a a a a a a a a a a a a a a a a a a q ] ( ( e 6 . ",
". n # ] : r a a a a a a a a a a a a a a a a a a a a s t ( ( } . ",
". & ] ] * u a a a a a a a a a a a a a a a a a a a a a r ( ( } p ",
"! v ] ] w a a a a a a a a a a a a a a a a a a a a a a 2 x ( s y ",
"< ] ] % z a a a a a a a a a a a a a a a a a a a a a a u # ( ( } ",
"4 ] ] % a a a a a a a a a a a a a a a a a a a a a f + : A A B C ",
"$ ] ] ; a a a a a a a a a a a a a a a a f h } D E F G @ ) ] ] H ",
"H ] ] } a a a a a a a a a a a a , ) I E F J t K a a a a > ] ] m ",
"= ] ] # a a a a a a a a a a a f H L k a a a a a a a a a M ] ] N ",
"O ] ] n a a a a a a a a a a a a a a a a a a a a a a a a ] ] ] & ",
"4 o n - a a a a a a a a a a a a a a a a a a a a a a a a o ] ] % ",
": x ( P Q a a a a a a a a a a a a a a a a a a a a a a u * ] ] { ",
"2 R ( ( R a a a a a a a a a a a a a a a a a a a a a a t } ] : _ ",
"+ ) ( ( : u a a a a a a a a a a a a a a a a a a a a a $ ] ] ^ S ",
". r 6 ( x T a a a a a a a a a a a a a a a a a a a a U { ] ] v . ",
". l < ( ( w S a a a a a a a a a a a a a a a a a a V ^ ] ] = s . ",
". . M W ( ( r i a a a a a a a a a a a a a a a a k n M O # { . . ",
". . . { ~ ( ( } p a a a a a a a a a a a a a a V } ~ ( ! X , . . ",
". . . Y o ( ( ( ^ y Z a a a a a a a a a a a 2 g ( ( ( ) ~ . . . ",
". . . . ` 4 (  .; } ..y +.a a a a a a k L : W ( ( ( } @.. . . . ",
". . . . . | { ^ ] ] ] r H O < ] 3 : { g 6 ( ( ( s { ( . . . . . ",
". . . . . . . # * r ] ] ] ] ] ] ] ] j ( ( ( ( g # h . . . . . . ",
". . . . . . . . | o * o ] ] ] ] ] ] { s 2 ) : 7 . . . . . . . . ",
". . . . . . . . . . + R j v = & & % O < T h . . . . . . . . . . "};
