/* XPM */
static const char * knob11_xpm[] = {
"32 32 99 2",
"  	c None",
". 	c #E1E1E1",
"+ 	c #C5C5C5",
"@ 	c #A6A6A6",
"# 	c #B1B1B1",
"$ 	c #AFAFAF",
"% 	c #ADADAD",
"& 	c #B0B0B0",
"* 	c #B2B2B2",
"= 	c #B4B4B4",
"- 	c #C0C0C0",
"; 	c #DFDFDF",
"> 	c #DCDCDC",
", 	c #9A9A9A",
"' 	c #A7A7A7",
") 	c #A4A4A4",
"! 	c #CBCBCB",
"~ 	c #D2D2D2",
"{ 	c #C9C9C9",
"] 	c #AEAEAE",
"^ 	c #D5D5D5",
"/ 	c #B7B7B7",
"( 	c #999999",
"_ 	c #B3B3B3",
": 	c #B8B8B8",
"< 	c #B6B6B6",
"[ 	c #DBDBDB",
"} 	c #A0A0A0",
"| 	c #ABABAB",
"1 	c #9E9E9E",
"2 	c #B9B9B9",
"3 	c #BABABA",
"4 	c #BEBEBE",
"5 	c #BBBBBB",
"6 	c #B5B5B5",
"7 	c #D0D0D0",
"8 	c #ACACAC",
"9 	c #9C9C9C",
"0 	c #D3D3D3",
"a 	c #D8D8D8",
"b 	c #E4E4E4",
"c 	c #F6F6F6",
"d 	c #EDEDED",
"e 	c #9D9D9D",
"f 	c #CCCCCC",
"g 	c #A2A2A2",
"h 	c #F3F3F3",
"i 	c #CACACA",
"j 	c #E0E0E0",
"k 	c #A3A3A3",
"l 	c #9F9F9F",
"m 	c #DADADA",
"n 	c #E5E5E5",
"o 	c #BDBDBD",
"p 	c #A5A5A5",
"q 	c #E3E3E3",
"r 	c #EFEFEF",
"s 	c #A9A9A9",
"t 	c #DDDDDD",
"u 	c #D1D1D1",
"v 	c #E9E9E9",
"w 	c #CFCFCF",
"x 	c #AAAAAA",
"y 	c #F1F1F1",
"z 	c #989898",
"A 	c #BFBFBF",
"B 	c #C7C7C7",
"C 	c #8E8E8E",
"D 	c #C6C6C6",
"E 	c #E8E8E8",
"F 	c #737373",
"G 	c #C2C2C2",
"H 	c #838383",
"I 	c #F5F5F5",
"J 	c #A8A8A8",
"K 	c #929292",
"L 	c #A1A1A1",
"M 	c #F4F4F4",
"N 	c #747474",
"O 	c #DEDEDE",
"P 	c #CECECE",
"Q 	c #828282",
"R 	c #BCBCBC",
"S 	c #545454",
"T 	c #8B8B8B",
"U 	c #E7E7E7",
"V 	c #F2F2F2",
"W 	c #8A8A8A",
"X 	c #5F5F5F",
"Y 	c #EBEBEB",
"Z 	c #D9D9D9",
"` 	c #9B9B9B",
" .	c #CDCDCD",
"..	c #D4D4D4",
"+.	c #ECECEC",
"@.	c #C4C4C4",
"#.	c #C8C8C8",
"$.	c #D7D7D7",
"%.	c #979797",
". . . . . . . . . . . + @ # $ % & $ * = - ; . . . . . . . . . . ",
". . . . . . . . > $ , ' ) ! ~ ~ ~ ~ ~ ~ { ] # ^ . . . . . . . . ",
". . . . . . . / ( _ = = _ : ~ ~ ~ ~ ~ ~ ~ ~ ~ < = ; . . . . . . ",
". . . . . [ } | = = = = 1 , 2 3 4 5 6 6 7 ~ ~ ~ 8 9 0 . . . . . ",
". . . . a , _ = = * 1 : b c c c c c c d + = ! 3 * = e f . . . . ",
". . . [ , = = = g 2 h c c c c c c c c c c c i 1 = = = 9 ~ . . . ",
". . j k _ = = l m c c c c c c c c c c c c c c n k = = = , ; . . ",
". . o p _ = g q c c c c c c c c c c c c c c c c r } = = * s . . ",
". t $ u < l a c c c c c c c c c c c c c c c c c c v l = = l w . ",
". < w ~ u 4 c c c c c c c c c c c c c c c c c c c c f x = = ' . ",
". ] ~ ~ = y c c c c c c c c c c c c c c c c c c c c c p = = z [ ",
"f 4 ~ ~ A c c c c c c c c c c c c c c c c c c c c c c B $ = ) $ ",
"< ~ ~ A ; c c c c c c c c c c c c c c c c c c c c c c h C < D # ",
"_ ~ ~ * c c c c c c c c c c c c c c c c c c c c c c c c 3 ~ ~ $ ",
"& ~ ~ : c c c c c c c c c c c c c c c c c c c c c c c c o ~ ~ % ",
"# ~ ~ 5 c c c c c c c c c c c c c c c c c c c c c c c c A ~ ~ 8 ",
"] ~ ~ 2 c c c c c c c c c c c E F > c c c c c c c c c c G ~ ~ ] ",
"$ ~ ~ 6 c c c c c c c c c c c c d H } I c c c c c c c c A ~ ~ % ",
"p 8 J K c c c c c c c c c c c c c c - F t c c c c c c c 2 ~ ~ & ",
"$ = = L ; c c c c c c c c c c c c c c d H L I c c c c M * ~ ~ * ",
"{ ) = = / c c c c c c c c c c c c c c c c A N O c c c P i ~ 7 : ",
". , = = 1 h c c c c c c c c c c c c c c c c d Q g I c / ~ ~ # m ",
". $ * = # 5 c c c c c c c c c c c c c c c c c c 4 N R + ~ ~ & . ",
". > ( = = g > c c c c c c c c c c c c c c c c c c . S T u R P . ",
". . < 8 = = l U c c c c c c c c c c c c c c c c V ) = W X % . . ",
". . . l = = = L O c c c c c c c c c c c c c c Y } _ = = z > . . ",
". . . Z ` = = = 1 + M c c c c c c c c c c c  .l = = = e w . . . ",
". . . . .., = = = P = + +.c c c c c c y @.p x = = = 1 #.. . . . ",
". . . . . a l ' 7 ~ ~ 7 6 < R - o ] s , & = = = _ , w . . . . . ",
". . . . . . j : _ u ~ ~ ~ ~ ~ ~ ~ _ = = = = = l s O . . . . . . ",
". . . . . . . . $._ % { ~ ~ ~ ~ ~ 4 % = & z ' 7 . . . . . . . . ",
". . . . . . . . . . ; - = * ] $ % | %.J : t . . . . . . . . . . "};
