/* XPM */
static const char * knob30_xpm[] = {
"32 32 93 2",
"  	c None",
". 	c #E1E1E1",
"+ 	c #E0E0E0",
"@ 	c #C3C3C3",
"# 	c #ADADAD",
"$ 	c #A4A4A4",
"% 	c #A0A0A0",
"& 	c #9D9D9D",
"* 	c #9C9C9C",
"= 	c #9E9E9E",
"- 	c #A5A5A5",
"; 	c #ABABAB",
"> 	c #BFBFBF",
", 	c #DADADA",
"' 	c #B3B3B3",
") 	c #686868",
"! 	c #ACACAC",
"~ 	c #B4B4B4",
"{ 	c #999999",
"] 	c #A9A9A9",
"^ 	c #D8D8D8",
"/ 	c #DFDFDF",
"( 	c #B5B5B5",
"_ 	c #D1D1D1",
": 	c #676767",
"< 	c #B1B1B1",
"[ 	c #A1A1A1",
"} 	c #AFAFAF",
"| 	c #D6D6D6",
"1 	c #AAAAAA",
"2 	c #CCCCCC",
"3 	c #D2D2D2",
"4 	c #A8A8A8",
"5 	c #7B7B7B",
"6 	c #AEAEAE",
"7 	c #A2A2A2",
"8 	c #B2B2B2",
"9 	c #D7D7D7",
"0 	c #5E5E5E",
"a 	c #EAEAEA",
"b 	c #F6F6F6",
"c 	c #E8E8E8",
"d 	c #949494",
"e 	c #CBCBCB",
"f 	c #B8B8B8",
"g 	c #C8C8C8",
"h 	c #F5F5F5",
"i 	c #D0D0D0",
"j 	c #C1C1C1",
"k 	c #E2E2E2",
"l 	c #EDEDED",
"m 	c #818181",
"n 	c #CDCDCD",
"o 	c #ECECEC",
"p 	c #828282",
"q 	c #B6B6B6",
"r 	c #D5D5D5",
"s 	c #B7B7B7",
"t 	c #E3E3E3",
"u 	c #D4D4D4",
"v 	c #9A9A9A",
"w 	c #B0B0B0",
"x 	c #CACACA",
"y 	c #797979",
"z 	c #C7C7C7",
"A 	c #959595",
"B 	c #BBBBBB",
"C 	c #9B9B9B",
"D 	c #C6C6C6",
"E 	c #F2F2F2",
"F 	c #BEBEBE",
"G 	c #8A8A8A",
"H 	c #8B8B8B",
"I 	c #A3A3A3",
"J 	c #8D8D8D",
"K 	c #7A7A7A",
"L 	c #F3F3F3",
"M 	c #A7A7A7",
"N 	c #9F9F9F",
"O 	c #EEEEEE",
"P 	c #C2C2C2",
"Q 	c #C0C0C0",
"R 	c #BDBDBD",
"S 	c #969696",
"T 	c #E4E4E4",
"U 	c #CECECE",
"V 	c #DEDEDE",
"W 	c #E5E5E5",
"X 	c #CFCFCF",
"Y 	c #C9C9C9",
"Z 	c #BCBCBC",
"` 	c #8C8C8C",
" .	c #BABABA",
". . . . . . . . . . + @ # $ % & * = - ; > + . . . . . . . . . . ",
". . . . . . . . , ' ) ! ~ ~ ~ ~ ~ ~ ~ ~ ; { ] ^ . . . . . . . . ",
". . . . . . / ( ' _ : < ~ ~ ~ ~ ~ ~ ~ ~ ~ ~ [ } ~ + . . . . . . ",
". . . . . | 1 2 3 3 4 5 % - 6 ~ ~ 6 7 * ' < 8 3 2 ] 9 . . . . . ",
". . . . _ # 3 3 3 2 ' 0 a b b b b b b c > d e 3 3 3 ! 3 . . . . ",
". . . | # 3 3 3 f g h & i b b b b b b b b h j f 3 3 3 ! 9 . . . ",
". . + ] 3 3 3 < k b b l m b b b b b b b b b b . < 3 3 3 1 + . . ",
". . 8 n 3 3 < o b b b b p o b b b b b b b b b b a 8 3 3 e q . . ",
". r 8 3 3 s t b b b b b u v b b b b b b b b b b b . f 3 3 ' , . ",
". w 3 3 x @ b b b b b b b y h b b b b b b b b b b b z 2 3 _ ' . ",
"+ # 3 3 < h b b b b b b b # j b b b b b b b b b b b h ' j < A + ",
"B C w D D b b b b b b b b E 5 b b b b b b b b b b b b F w ~ ; @ ",
"1 ~ ~ G o b b b b b b b b b H k b b b b b b b b b b b a % ~ ~ # ",
"$ ~ ~ I b b b b b b b b b b + J b b b b b b b b b b b b - ~ ~ $ ",
"& ~ ~ w b b b b b b b b b b b K L b b b b b b b b b b b 6 ~ ~ % ",
"C ~ ~ q b b b b b b b b b b b F ( b b b b b b b b b b b ~ ~ ~ * ",
"C ~ ~ q b b b b b b b b b b b b L b b b b b b b b b b b ( ~ ~ * ",
"= ~ ~ w b b b b b b b b b b b b b b b b b b b b b b b b } ~ ~ = ",
"I ~ ~ M b b b b b b b b b b b b b b b b b b b b b b b b I ~ ~ $ ",
"; ~ ~ N O b b b b b b b b b b b b b b b b b b b b b b a C ~ ~ 1 ",
"> 6 ~ < P b b b b b b b b b b b b b b b b b b b b b b Q 8 ~ # R ",
"+ S 6 B 8 b b b b b b b b b b b b b b b b b b b b b h & 4 1 { + ",
". } 3 3 x e b b b b b b b b b b b b b b b b b b b b @ e 3 P 7 . ",
". 9 q 3 3 q T b b b b b b b b b b b b b b b b b b t s 3 3 < | . ",
". . ' U 3 3 < O b b b b b b b b b b b b b b b b o w 3 3 n 8 . . ",
". . V 1 3 3 3 w W b b b b b b b b b b b b b b t < 3 3 3 ] + . . ",
". . . u } 3 3 3 q D b b b b b b b b b b b h x s 3 3 3 # | . . . ",
". . . . X 6 3 3 3 Y < > l b b b b b b l P ' e 3 3 3 6 i . . . . ",
". . . . . u ] U 3 3 x % v $ < s q w M N < Z 3 3 n 1 r . . . . . ",
". . . . . . + < ' 3 < ~ ~ ~ ~ ~ ~ ~ ~ ~ ~ } 3 ( ' / . . . . . . ",
". . . . . . . . u w ` } ~ ~ ~ ~ ~ ~ ~ ~ # A < ^ . . . . . . . . ",
". . . . . . . . . . /  .] I * C C = I ; > + . . . . . . . . . . "};
