/* XPM */
static const char * knob19_xpm[] = {
"32 32 92 2",
"  	c None",
". 	c #E1E1E1",
"+ 	c #CCCCCC",
"@ 	c #B0B0B0",
"# 	c #A4A4A4",
"$ 	c #AEAEAE",
"% 	c #B1B1B1",
"& 	c #B3B3B3",
"* 	c #B5B5B5",
"= 	c #C9C9C9",
"- 	c #DEDEDE",
"; 	c #9C9C9C",
"> 	c #A2A2A2",
", 	c #B4B4B4",
"' 	c #AAAAAA",
") 	c #D2D2D2",
"! 	c #C1C1C1",
"~ 	c #DCDCDC",
"{ 	c #BBBBBB",
"] 	c #999999",
"^ 	c #A6A6A6",
"/ 	c #D0D0D0",
"( 	c #BABABA",
"_ 	c #E0E0E0",
": 	c #DDDDDD",
"< 	c #A9A9A9",
"[ 	c #A3A3A3",
"} 	c #929292",
"| 	c #B8B8B8",
"1 	c #BCBCBC",
"2 	c #B9B9B9",
"3 	c #A0A0A0",
"4 	c #D9D9D9",
"5 	c #D8D8D8",
"6 	c #9A9A9A",
"7 	c #9D9D9D",
"8 	c #F6F6F6",
"9 	c #E3E3E3",
"0 	c #C0C0C0",
"a 	c #B2B2B2",
"b 	c #9B9B9B",
"c 	c #D3D3D3",
"d 	c #B6B6B6",
"e 	c #F1F1F1",
"f 	c #F3F3F3",
"g 	c #C2C2C2",
"h 	c #9E9E9E",
"i 	c #9F9F9F",
"j 	c #D6D6D6",
"k 	c #BEBEBE",
"l 	c #A5A5A5",
"m 	c #E9E9E9",
"n 	c #AFAFAF",
"o 	c #D1D1D1",
"p 	c #CFCFCF",
"q 	c #BFBFBF",
"r 	c #F5F5F5",
"s 	c #A1A1A1",
"t 	c #989898",
"u 	c #DFDFDF",
"v 	c #ADADAD",
"w 	c #E2E2E2",
"x 	c #EEEEEE",
"y 	c #B7B7B7",
"z 	c #CACACA",
"A 	c #BDBDBD",
"B 	c #ACACAC",
"C 	c #F2F2F2",
"D 	c #707070",
"E 	c #F4F4F4",
"F 	c #8F8F8F",
"G 	c #CECECE",
"H 	c #717171",
"I 	c #ABABAB",
"J 	c #8E8E8E",
"K 	c #CDCDCD",
"L 	c #C3C3C3",
"M 	c #C6C6C6",
"N 	c #D7D7D7",
"O 	c #E5E5E5",
"P 	c #EAEAEA",
"Q 	c #939393",
"R 	c #EDEDED",
"S 	c #D4D4D4",
"T 	c #5D5D5D",
"U 	c #959595",
"V 	c #7D7D7D",
"W 	c #C8C8C8",
"X 	c #CBCBCB",
"Y 	c #A8A8A8",
"Z 	c #5A5A5A",
"` 	c #909090",
". . . . . . . . . . . + @ # @ $ % @ & * = . . . . . . . . . . . ",
". . . . . . . . - & ; > , ' ) ) ) ) ) ) ! $ , ~ . . . . . . . . ",
". . . . . . . { ] % , , , ^ ) ) ) ) ) ) ) ) / @ ( _ . . . . . . ",
". . . . . : > < , , , , [ } , | 1 2 & 1 ) ) ) ) < 3 4 . . . . . ",
". . . . 5 6 & , , & 7 * ~ 8 8 8 8 8 8 9 0 & / ( a , b c . . . . ",
". . . ~ 6 , , , # d e 8 8 8 8 8 8 8 8 8 8 f g h , , , 6 5 . . . ",
". . _ [ & , , i j 8 8 8 8 8 8 8 8 8 8 8 8 8 8 : > , , , 7 . . . ",
". . k l & , > . 8 8 8 8 8 8 8 8 8 8 8 8 8 8 8 8 m i , , n @ . . ",
". ~ @ o d i 5 8 8 8 8 8 8 8 8 8 8 8 8 8 8 8 8 8 8 . 3 , , ; j . ",
". d p ) o q 8 8 8 8 8 8 8 8 8 8 8 8 8 8 8 8 8 8 8 8 g $ , , ' . ",
". $ ) ) , e 8 8 8 8 8 8 8 8 8 8 8 8 8 8 8 8 8 8 8 8 r s , , t u ",
"= ! ) ) 0 8 8 8 8 8 8 8 8 8 8 8 8 8 8 8 8 8 8 8 8 8 8 q a , v { ",
"* ) ) 1 w 8 8 8 8 8 8 8 8 8 8 8 8 8 8 8 8 8 8 8 8 8 8 x 6 & ^ 3 ",
"& ) ) & 8 8 8 8 8 8 8 8 8 8 8 8 8 8 8 8 8 8 8 8 8 8 8 8 3 y z @ ",
"@ ) ) 2 8 8 8 8 8 8 8 8 8 8 8 8 8 8 8 8 8 8 8 8 8 8 8 8 { ) ) $ ",
"@ ) ) A 8 8 8 8 8 8 8 8 8 8 8 m r 8 8 8 8 8 8 8 8 8 8 8 A ) ) B ",
"$ ) ) { 8 8 8 8 8 8 8 8 8 8 C D E 8 8 8 8 8 8 8 8 8 8 8 ! ) ) $ ",
"v q & < 8 8 8 8 8 8 8 8 8 8 F / 8 8 8 8 8 8 8 8 8 8 8 8 k ) ) $ ",
"; B , # 8 8 8 8 8 8 8 8 8 G } 8 8 8 8 8 8 8 8 8 8 8 8 8 | ) ) % ",
"B , , 7 m 8 8 8 8 8 8 8 C H f 8 8 8 8 8 8 8 8 8 8 8 8 f a ) ) & ",
"! I , & 1 8 8 8 8 8 8 8 J o 8 8 8 8 8 8 8 8 8 8 8 8 8 + + ) p ( ",
"_ t , , s r 8 8 8 8 8 K } 8 8 8 8 8 8 8 8 8 8 8 8 8 8 y ) ) @ ~ ",
". I , , $ L 8 8 8 8 C H f 8 8 8 8 8 8 8 8 8 8 8 8 8 ) M ) ) @ . ",
". N b , , 3 O 8 8 8 J ) 8 8 8 8 8 8 8 8 8 8 8 8 8 P h | o 1 G . ",
". . n @ , , i x 8 K Q 8 8 8 8 8 8 8 8 8 8 8 8 8 f # , & B n . . ",
". . _ ; , , , > w H f 8 8 8 8 8 8 8 8 8 8 8 8 R s & , , b ~ . . ",
". . . S ; , , , T $ 8 8 8 8 8 8 8 8 8 8 8 8 ) h , , , h G . . . ",
". . . . K b , U V W d + C 8 8 8 8 8 8 E X Y Y , , , h M . . . . ",
". . . . . c ; Z / ) ) + a | q g q 1 { ` v , , , & 6 K . . . . . ",
". . . . . . - n 2 ) ) ) ) ) ) ) ) ) ) ( a , , s ^ ~ . . . . . . ",
". . . . . . . . o @ n p ) ) ) ) ) ) ) K 3 6 l X . . . . . . . . ",
". . . . . . . . . . ~ ( & % v $ B v n % $ 4 . . . . . . . . . . "};
