/* XPM */
static const char * knob5_xpm[] = {
"32 32 96 2",
"  	c None",
". 	c #E1E1E1",
"+ 	c #DFDFDF",
"@ 	c #BFBFBF",
"# 	c #ACACAC",
"$ 	c #A4A4A4",
"% 	c #9D9D9D",
"& 	c #9B9B9B",
"* 	c #999999",
"= 	c #8E8E8E",
"- 	c #AEAEAE",
"; 	c #B2B2B2",
"> 	c #BCBCBC",
", 	c #DEDEDE",
"' 	c #D7D7D7",
") 	c #ABABAB",
"! 	c #9A9A9A",
"~ 	c #B4B4B4",
"{ 	c #A5A5A5",
"] 	c #D2D2D2",
"^ 	c #CBCBCB",
"/ 	c #B1B1B1",
"( 	c #D3D3D3",
"_ 	c #E0E0E0",
": 	c #9E9E9E",
"< 	c #B3B3B3",
"[ 	c #A8A8A8",
"} 	c #B0B0B0",
"| 	c #B6B6B6",
"1 	c #B8B8B8",
"2 	c #CFCFCF",
"3 	c #AAAAAA",
"4 	c #D1D1D1",
"5 	c #A3A3A3",
"6 	c #C0C0C0",
"7 	c #ECECEC",
"8 	c #F6F6F6",
"9 	c #EFEFEF",
"0 	c #C4C4C4",
"a 	c #C8C8C8",
"b 	c #CDCDCD",
"c 	c #D8D8D8",
"d 	c #C2C2C2",
"e 	c #F5F5F5",
"f 	c #CCCCCC",
"g 	c #E8E8E8",
"h 	c #AFAFAF",
"i 	c #B7B7B7",
"j 	c #E9E9E9",
"k 	c #F0F0F0",
"l 	c #8B8B8B",
"m 	c #969696",
"n 	c #DADADA",
"o 	c #E7E7E7",
"p 	c #A7A7A7",
"q 	c #606060",
"r 	c #888888",
"s 	c #A1A1A1",
"t 	c #C3C3C3",
"u 	c #696969",
"v 	c #F4F4F4",
"w 	c #767676",
"x 	c #B9B9B9",
"y 	c #A6A6A6",
"z 	c #DDDDDD",
"A 	c #C5C5C5",
"B 	c #7F7F7F",
"C 	c #EAEAEA",
"D 	c #C6C6C6",
"E 	c #E6E6E6",
"F 	c #E2E2E2",
"G 	c #F1F1F1",
"H 	c #9C9C9C",
"I 	c #A9A9A9",
"J 	c #7E7E7E",
"K 	c #A2A2A2",
"L 	c #9F9F9F",
"M 	c #777777",
"N 	c #7D7D7D",
"O 	c #B5B5B5",
"P 	c #979797",
"Q 	c #A0A0A0",
"R 	c #BBBBBB",
"S 	c #CECECE",
"T 	c #ADADAD",
"U 	c #BDBDBD",
"V 	c #DBDBDB",
"W 	c #EEEEEE",
"X 	c #E4E4E4",
"Y 	c #D9D9D9",
"Z 	c #D4D4D4",
"` 	c #EDEDED",
" .	c #D0D0D0",
"..	c #CACACA",
"+.	c #949494",
"@.	c #D6D6D6",
". . . . . . . . . . + @ # $ % & * = - ; > , . . . . . . . . . . ",
". . . . . . . . ' ) ! # ~ ~ ~ ~ ~ { ] ] ^ # / ( . . . . . . . . ",
". . . . . . _ / : < ~ ~ ~ ~ ~ ~ ~ [ ] ] ] ] ] ~ ; + . . . . . . ",
". . . . . ' ) / < ~ ~ ; % { } | ~ [ 1 / 2 ] ] ] 2 3 ] . . . . . ",
". . . . ] ) ] 4 # } 5 6 7 8 8 8 8 8 8 9 0 < a ] ] ] } b . . . . ",
". . . c # ] ] ] } d e 8 8 8 8 8 8 8 8 8 8 8 f ~ ] ] ] } ( . . . ",
". . . 3 ] ] ] ~ . 8 8 8 8 8 8 8 8 8 8 8 8 8 8 g h 4 ] ] # , . . ",
". . i ^ ] ] / j 8 8 8 8 8 8 8 8 8 8 8 8 8 8 8 8 k < ] ] l m . . ",
". n h ] ] 1 _ 8 8 8 8 8 8 8 8 8 8 8 8 8 8 8 8 8 8 o p q r s ] . ",
". < 4 ] b t 8 8 8 8 8 8 8 8 8 8 8 8 8 8 8 8 8 8 8 p u $ ~ ~ p . ",
"_ ) ] ] / v 8 8 8 8 8 8 8 8 8 8 8 8 8 8 8 8 8 . w x 8 y ~ ~ * z ",
"A 0 ] 4 @ 8 8 8 8 8 8 8 8 8 8 8 8 8 8 8 8 8 [ B C 8 8 D } ~ } x ",
"< ] ] i E 8 8 8 8 8 8 8 8 8 8 8 8 8 8 8 F w 1 8 8 8 8 G H ~ ~ 3 ",
"& p - : 8 8 8 8 8 8 8 8 8 8 8 8 8 8 8 I J C 8 8 8 8 8 8 [ ~ ~ K ",
"L ~ ~ 3 8 8 8 8 8 8 8 8 8 8 8 8 8 F M i 8 8 8 8 8 8 8 8 < ~ ~ & ",
"H ~ ~ h 8 8 8 8 8 8 8 8 8 8 8 8 I N j 8 8 8 8 8 8 8 8 8 x ~ ~ ! ",
": ~ ~ ; 8 8 8 8 8 8 8 8 8 8 8 8 a 8 8 8 8 8 8 8 8 8 8 8 O ~ ~ P ",
"Q ~ ~ # 8 8 8 8 8 8 8 8 8 8 8 8 8 8 8 8 8 8 8 8 8 8 8 8 / ~ ~ ! ",
"p ~ ~ s 8 8 8 8 8 8 8 8 8 8 8 8 8 8 8 8 8 8 8 8 8 8 8 8 I ~ ~ s ",
"- ~ ~ Q E 8 8 8 8 8 8 8 8 8 8 8 8 8 8 8 8 8 8 8 8 8 8 k P { s p ",
"D [ ~ ~ R 8 8 8 8 8 8 8 8 8 8 8 8 8 8 8 8 8 8 8 8 8 8 A S ] a i ",
"_ & ~ ~ s v 8 8 8 8 8 8 8 8 8 8 8 8 8 8 8 8 8 8 8 8 8 < ] ] T , ",
". - < ~ ; U 8 8 8 8 8 8 8 8 8 8 8 8 8 8 8 8 8 8 8 8 ^ a ] ] / . ",
". V % ~ # - , 8 8 8 8 8 8 8 8 8 8 8 8 8 8 8 8 8 8 o O ] ] ~ ( . ",
". . O T 2 ] | o 8 8 8 8 8 8 8 8 8 8 8 8 8 8 8 8 W h ] ] S ; . . ",
". . _ # ] ] ] ; + 8 8 8 8 8 8 8 8 8 8 8 8 8 8 X < ] ] ] 3 _ . . ",
". . . Y ) ] ] ] x d v 8 8 8 8 8 8 8 8 8 8 e A - ] ] ] h Z . . . ",
". . . . Z ) ] ] ] b / @ g 8 8 8 8 8 8 ` 6 5 h #  .] h S . . . . ",
". . . . . Y 3 ..] ] ] 4 O +.# } ~ h { % ; ~ ~ ~ ; ) Z . . . . . ",
". . . . . . . 1 h 4 ] ] A ) ~ ~ ~ ~ ~ ~ ~ ~ ~ L - + . . . . . . ",
". . . . . . . . Y < ) A < ~ ~ ~ ~ ~ ~ ~ T ! 3 @.. . . . . . . . ",
". . . . . . . . . . _ t p $ % ! H : { # @ + . . . . . . . . . . "};
