/* XPM */
static const char * knob21_xpm[] = {
"32 32 91 1",
" 	c None",
".	c #E1E1E1",
"+	c #CCCCCC",
"@	c #B1B1B1",
"#	c #A9A9A9",
"$	c #A1A1A1",
"%	c #A0A0A0",
"&	c #9E9E9E",
"*	c #A7A7A7",
"=	c #ABABAB",
"-	c #CACACA",
";	c #DDDDDD",
">	c #9D9D9D",
",	c #A4A4A4",
"'	c #B4B4B4",
")	c #AFAFAF",
"!	c #C0C0C0",
"~	c #ACACAC",
"{	c #B5B5B5",
"]	c #DCDCDC",
"^	c #E0E0E0",
"/	c #BABABA",
"(	c #9C9C9C",
"_	c #B2B2B2",
":	c #BBBBBB",
"<	c #D2D2D2",
"[	c #D0D0D0",
"}	c #ADADAD",
"|	c #DBDBDB",
"1	c #B3B3B3",
"2	c #9F9F9F",
"3	c #929292",
"4	c #B6B6B6",
"5	c #C9C9C9",
"6	c #AAAAAA",
"7	c #DADADA",
"8	c #D8D8D8",
"9	c #D1D1D1",
"0	c #B8B8B8",
"a	c #DFDFDF",
"b	c #F6F6F6",
"c	c #BDBDBD",
"d	c #CFCFCF",
"e	c #D4D4D4",
"f	c #F1F1F1",
"g	c #F3F3F3",
"h	c #B7B7B7",
"i	c #C7C7C7",
"j	c #E4E4E4",
"k	c #E8E8E8",
"l	c #D7D7D7",
"m	c #BFBFBF",
"n	c #B0B0B0",
"o	c #F4F4F4",
"p	c #A2A2A2",
"q	c #9A9A9A",
"r	c #C5C5C5",
"s	c #C1C1C1",
"t	c #BEBEBE",
"u	c #A6A6A6",
"v	c #ECECEC",
"w	c #A5A5A5",
"x	c #A3A3A3",
"y	c #9B9B9B",
"z	c #D9D9D9",
"A	c #F5F5F5",
"B	c #F2F2F2",
"C	c #909090",
"D	c #919191",
"E	c #989898",
"F	c #AEAEAE",
"G	c #717171",
"H	c #959595",
"I	c #EDEDED",
"J	c #CDCDCD",
"K	c #CECECE",
"L	c #747474",
"M	c #8F8F8F",
"N	c #C6C6C6",
"O	c #D5D5D5",
"P	c #999999",
"Q	c #595959",
"R	c #E6E6E6",
"S	c #757575",
"T	c #EFEFEF",
"U	c #E9E9E9",
"V	c #EBEBEB",
"W	c #DEDEDE",
"X	c #D3D3D3",
"Y	c #898989",
"Z	c #969696",
"...........+@#$%&%*=-...........",
"........;@>,''''''')!~{]........",
"......^/(@''''''''_:<<[}/.......",
".....|}}1''',2#)~*34<<<<567.....",
"....8699~1%0abbbbbbac@d<<9=e....",
"...|#<<<_0fbbbbbbbbbbg!/<<<68...",
"...=9<<h7bbbbbbbbbbbbbb;_<<<=^..",
"..:i<<1jbbbbbbbbbbbbbbbbk'<<1_..",
".]}<<:|bbbbbbbbbbbbbbbbbba_}12l.",
".'[<dmbbbbbbbbbbbbbbbbbbbb!n'1=.",
".=<<_gbbbbbbbbbbbbbbbbbbbbop''qa",
"rs<<tbbbbbbbbbbbbbbbbbbbbbb!_'~m",
"=%u>jbbbbbbbbbbbbbbbbbbbbbbv>''~",
"w''xbbbbbbbbbbbbbbbbbbbbbbbbw''x",
"&''=bbbbbbbbbbbbbbbbbbbbbbbb@''(",
"y'')bbbbbbbbbbbzAbbbbbbbbbbbh''y",
">''1bbbbbbbbbBCDobbbbbbbbbbb{''E",
"&''FbbbbbbbbdG[bbbbbbbbbbbbb)''y",
"w'',bbbbbbgDCgbbbbbbbbbbbbbbx~uH",
"~''>Ibbbb[Gdbbbbbbbbbbbbbbbfn<<_",
"m}'_!bbg3CBbbbbbbbbbbbbbbbbiJ<K/",
"aq'',b9GKbbbbbbbbbbbbbbbbbb'<<}]",
".#''~LMBbbbbbbbbbbbbbbbbbbdN<<n.",
".O2PQPRbbbbbbbbbbbbbbbbbbv1<<h[.",
"..2SK<1TbbbbbbbbbbbbbbbbBF<<[n..",
"..a=<<<)UbbbbbbbbbbbbbbV_[<<=W..",
"...X@<<<1Kbbbbbbbbbbbb9~<<<1d...",
"....+n<<<N'5gbbbbbbo+##~[<15....",
".....<6d<<<+F/n0:4~>}''''}d.....",
"......a@h<<<<<6''''''''x*]......",
"........dn)d<<*'''''_quJ........",
"..........|0@)YZEP%*{7.........."};
