/* XPM */
static const char * knob18_xpm[] = {
"32 32 101 2",
"  	c None",
". 	c #E1E1E1",
"+ 	c #CCCCCC",
"@ 	c #B4B4B4",
"# 	c #B3B3B3",
"$ 	c #B0B0B0",
"% 	c #B1B1B1",
"& 	c #B2B2B2",
"* 	c #B5B5B5",
"= 	c #CACACA",
"- 	c #E0E0E0",
"; 	c #DEDEDE",
"> 	c #959595",
", 	c #BDBDBD",
"' 	c #D2D2D2",
") 	c #C3C3C3",
"! 	c #A9A9A9",
"~ 	c #ADADAD",
"{ 	c #DDDDDD",
"] 	c #B9B9B9",
"^ 	c #989898",
"/ 	c #A4A4A4",
"( 	c #CFCFCF",
"_ 	c #B7B7B7",
": 	c #9C9C9C",
"< 	c #A2A2A2",
"[ 	c #BFBFBF",
"} 	c #B8B8B8",
"| 	c #BBBBBB",
"1 	c #BCBCBC",
"2 	c #BEBEBE",
"3 	c #D1D1D1",
"4 	c #ABABAB",
"5 	c #9E9E9E",
"6 	c #D8D8D8",
"7 	c #D9D9D9",
"8 	c #9A9A9A",
"9 	c #9D9D9D",
"0 	c #DBDBDB",
"a 	c #F5F5F5",
"b 	c #F6F6F6",
"c 	c #E4E4E4",
"d 	c #9F9F9F",
"e 	c #F0F0F0",
"f 	c #F3F3F3",
"g 	c #A3A3A3",
"h 	c #A0A0A0",
"i 	c #D6D6D6",
"j 	c #9B9B9B",
"k 	c #BABABA",
"l 	c #EAEAEA",
"m 	c #AFAFAF",
"n 	c #E2E2E2",
"o 	c #D4D4D4",
"p 	c #C0C0C0",
"q 	c #A7A7A7",
"r 	c #F2F2F2",
"s 	c #DFDFDF",
"t 	c #C1C1C1",
"u 	c #C4C4C4",
"v 	c #CECECE",
"w 	c #EEEEEE",
"x 	c #AEAEAE",
"y 	c #7C7C7C",
"z 	c #E3E3E3",
"A 	c #8A8A8A",
"B 	c #8F8F8F",
"C 	c #B6B6B6",
"D 	c #E7E7E7",
"E 	c #7A7A7A",
"F 	c #C2C2C2",
"G 	c #ACACAC",
"H 	c #A1A1A1",
"I 	c #939393",
"J 	c #797979",
"K 	c #A8A8A8",
"L 	c #DCDCDC",
"M 	c #AAAAAA",
"N 	c #969696",
"O 	c #848484",
"P 	c #E9E9E9",
"Q 	c #ECECEC",
"R 	c #EFEFEF",
"S 	c #7F7F7F",
"T 	c #E6E6E6",
"U 	c #EDEDED",
"V 	c #787878",
"W 	c #888888",
"X 	c #F1F1F1",
"Y 	c #F4F4F4",
"Z 	c #D0D0D0",
"` 	c #999999",
" .	c #C6C6C6",
"..	c #D3D3D3",
"+.	c #5F5F5F",
"@.	c #C7C7C7",
"#.	c #C9C9C9",
"$.	c #717171",
"%.	c #8D8D8D",
"&.	c #C8C8C8",
"*.	c #DADADA",
". . . . . . . . . . . + @ # $ $ % & & * = - . . . . . . . . . . ",
". . . . . . . . ; % > , ' ' ' ' ' ' ' ' ) ! ~ { . . . . . . . . ",
". . . . . . . ] ^ % / ( ' ' ' ' ' ' ' ' ' _ & : @ - . . . . . . ",
". . . . . { < ! @ @ # % [ $ } | 1 } @ 2 3 4 @ @ ~ 5 6 . . . . . ",
". . . . 7 8 & @ @ & 9 # 0 a b b b b b c 2 d % @ @ @ 8 ' . . . . ",
". . . { 8 @ @ @ / & e b b b b b b b b b b f 2 < @ @ @ 8 6 . . . ",
". . . g # @ @ h i b b b b b b b b b b b b b b { h @ @ @ j - . . ",
". . k ! @ @ h . b b b b b b b b b b b b b b b b l d @ @ m ~ . . ",
". ; j @ @ g i b b b b b b b b b b b b b b b b b b n h @ @ : o . ",
". # % @ & } b b b b b b b b b b b b b b b b b b b b p ~ @ # 5 . ",
"- q @ 4 d r b b b b b b b b b b b b b b b b b b b b a 8 / # ! s ",
"+ t ' ( 1 b b b b b b b b b b b b b b b b b b b b b b u v ' + k ",
"* ' ' [ - b b b b b b b b b b b b b b b b b b b b b b w % ' ' % ",
"# ' ' @ b b b b b b b b b b b b b b b b b b b b b b b b @ ' ' % ",
"& ' ' } b b b b b b b b b b b b b b b b b b b b b b b b , ' ' x ",
"$ ' ' , b b b b b b b b b b b w b b b b b b b b b b b b t ' ' x ",
"$ ' ' , b b b b b b b b b b b y f b b b b b b b b b b b t ' ' m ",
"$ ' ' k b b b b b b b b b b z A b b b b b b b b b b b b , ' ' $ ",
"# ' ' # b b b b b b b b b b B s b b b b b b b b b b b b k ' ' $ ",
"& ' ' C D b b b b b b b b f E b b b b b b b b b b b b f @ ' ' # ",
"F } G H , b b b b b b b b & 1 b b b b b b b b b b b b + = ' ( | ",
"- I @ @ d a b b b b b b b J a b b b b b b b b b b b b K 4 C ! L ",
". M # @ x 2 b b b b b b 6 N b b b b b b b b b b b b 3 ! @ @ / . ",
". 6 8 @ @ H z b b b b b O P b b b b b b b b b b b Q h @ @ < ( . ",
". . ~ $ @ @ d w b b b R S b b b b b b b b b b b f g @ @ # q . . ",
". . - j @ @ @ d T b b < + b b b b b b b b b b U < & @ @ j 0 . . ",
". . . o j @ @ @ d = b V b b b b b b b b b b v d @ @ @ 5 + . . . ",
". . . . v : @ @ @ G W W X b b b b b b Y Z ~ ` @ @ @ 5  .. . . . ",
". . . . . ..: % @ @ +.@.* k 2 F F [ } m #.' ! @ # 8 + . . . . . ",
". . . . . . s M h ! $.' ' ' ' ' ' ' ' ' ' ' ] 8 / 0 . . . . . . ",
". . . . . . . . ..%.j v ' ' ' ' ' ' ' ' 3 % x &.. . . . . . . . ",
". . . . . . . . . . { , # $ m x x ~ $ $ * *.. . . . . . . . . . "};
