<?xml version="1.0" encoding="UTF-8" standalone="no"?>
<!-- Created with Inkscape (http://www.inkscape.org/) -->
<svg
   xmlns:dc="http://purl.org/dc/elements/1.1/"
   xmlns:cc="http://creativecommons.org/ns#"
   xmlns:rdf="http://www.w3.org/1999/02/22-rdf-syntax-ns#"
   xmlns:svg="http://www.w3.org/2000/svg"
   xmlns="http://www.w3.org/2000/svg"
   xmlns:xlink="http://www.w3.org/1999/xlink"
   xmlns:sodipodi="http://sodipodi.sourceforge.net/DTD/sodipodi-0.dtd"
   xmlns:inkscape="http://www.inkscape.org/namespaces/inkscape"
   width="48px"
   height="48px"
   id="svg4289"
   sodipodi:version="0.32"
   inkscape:version="0.46"
   sodipodi:docbase="/home/lapo/Icone/cvs/gnome-icon-theme/scalable/categories"
   sodipodi:docname="gnome-run.svg"
   inkscape:output_extension="org.inkscape.output.svg.inkscape">
  <defs
     id="defs4291">
    <linearGradient
       id="linearGradient3155"
       inkscape:collect="always">
      <stop
         id="stop3157"
         offset="0"
         style="stop-color:#ffb584;stop-opacity:1;" />
      <stop
         id="stop3159"
         offset="1"
         style="stop-color:#ffb584;stop-opacity:0;" />
    </linearGradient>
    <linearGradient
       inkscape:collect="always"
       xlink:href="#linearGradient3155"
       id="linearGradient2454"
       gradientUnits="userSpaceOnUse"
       x1="325.71429"
       y1="369.50507"
       x2="325.71429"
       y2="546.64789"
       gradientTransform="matrix(0.1377049,0,0,0.1377049,-20.852457,-45.850258)" />
    <linearGradient
       gradientUnits="userSpaceOnUse"
       y2="43.94545"
       x2="21.460155"
       y1="1.5190431"
       x1="21.465359"
       id="linearGradient3299"
       xlink:href="#linearGradient3293"
       inkscape:collect="always" />
    <linearGradient
       gradientUnits="userSpaceOnUse"
       y2="43.911716"
       x2="20.931746"
       y1="1.59375"
       x1="20.781591"
       id="linearGradient3291"
       xlink:href="#linearGradient3285"
       inkscape:collect="always" />
    <linearGradient
       id="linearGradient3285"
       inkscape:collect="always">
      <stop
         id="stop3287"
         offset="0"
         style="stop-color:#ffb584;stop-opacity:1;" />
      <stop
         id="stop3289"
         offset="1"
         style="stop-color:#ffb584;stop-opacity:0;" />
    </linearGradient>
    <linearGradient
       id="linearGradient3293"
       inkscape:collect="always">
      <stop
         id="stop3295"
         offset="0"
         style="stop-color:#ffb584;stop-opacity:1;" />
      <stop
         id="stop3297"
         offset="1"
         style="stop-color:#ffb584;stop-opacity:0;" />
    </linearGradient>
    <linearGradient
       inkscape:collect="always"
       xlink:href="#linearGradient3293"
       id="linearGradient40287"
       gradientUnits="userSpaceOnUse"
       x1="21.465359"
       y1="1.5190431"
       x2="21.460155"
       y2="43.94545"
       gradientTransform="matrix(0.934552,0,0,0.9320517,12.066032,8.6672693)" />
    <linearGradient
       inkscape:collect="always"
       xlink:href="#linearGradient3285"
       id="linearGradient40290"
       gradientUnits="userSpaceOnUse"
       x1="20.781591"
       y1="1.59375"
       x2="20.931746"
       y2="43.911716"
       gradientTransform="matrix(0.934552,0,0,0.9320517,12.066032,8.6672693)" />
    <linearGradient
       inkscape:collect="always"
       xlink:href="#linearGradient3155"
       id="linearGradient40301"
       gradientUnits="userSpaceOnUse"
       gradientTransform="matrix(0.1377049,0,0,0.1377049,29.147543,-45.850258)"
       x1="325.71429"
       y1="369.50507"
       x2="325.71429"
       y2="546.64789" />
    <linearGradient
       inkscape:collect="always"
       xlink:href="#linearGradient3155"
       id="linearGradient40304"
       gradientUnits="userSpaceOnUse"
       gradientTransform="matrix(0.1377049,0,0,0.1377049,-20.852707,-45.850258)"
       x1="325.71429"
       y1="369.50507"
       x2="325.71429"
       y2="546.64789" />
  </defs>
  <sodipodi:namedview
     id="base"
     pagecolor="#ffffff"
     bordercolor="#666"
     borderopacity="0.31372549"
     inkscape:pageopacity="0.0"
     inkscape:pageshadow="2"
     inkscape:zoom="5.656854"
     inkscape:cx="37.533214"
     inkscape:cy="19.31447"
     inkscape:current-layer="layer1"
     showgrid="true"
     inkscape:grid-bbox="true"
     inkscape:document-units="px"
     inkscape:window-width="1019"
     inkscape:window-height="732"
     inkscape:window-x="283"
     inkscape:window-y="24"
     inkscape:showpageshadow="false" />
  <metadata
     id="metadata4294">
    <rdf:RDF>
      <cc:Work
         rdf:about="">
        <dc:format>image/svg+xml</dc:format>
        <dc:type
           rdf:resource="http://purl.org/dc/dcmitype/StillImage" />
        <dc:title>System Preferences</dc:title>
        <dc:creator>
          <cc:Agent>
            <dc:title>Andreas Nilsson</dc:title>
          </cc:Agent>
        </dc:creator>
        <dc:subject>
          <rdf:Bag>
            <rdf:li>category</rdf:li>
            <rdf:li>system</rdf:li>
            <rdf:li>preferences</rdf:li>
            <rdf:li>settings</rdf:li>
            <rdf:li>control center</rdf:li>
          </rdf:Bag>
        </dc:subject>
        <dc:contributor>
          <cc:Agent>
            <dc:title>Jakub Steiner</dc:title>
          </cc:Agent>
        </dc:contributor>
        <cc:license
           rdf:resource="http://creativecommons.org/licenses/GPL/2.0/" />
      </cc:Work>
      <cc:License
         rdf:about="http://creativecommons.org/licenses/GPL/2.0/">
        <cc:permits
           rdf:resource="http://web.resource.org/cc/Reproduction" />
        <cc:permits
           rdf:resource="http://web.resource.org/cc/Distribution" />
        <cc:requires
           rdf:resource="http://web.resource.org/cc/Notice" />
        <cc:permits
           rdf:resource="http://web.resource.org/cc/DerivativeWorks" />
        <cc:requires
           rdf:resource="http://web.resource.org/cc/ShareAlike" />
        <cc:requires
           rdf:resource="http://web.resource.org/cc/SourceCode" />
      </cc:License>
    </rdf:RDF>
  </metadata>
  <g
     id="layer1"
     inkscape:label="Layer 1"
     inkscape:groupmode="layer">
    <g
       id="g2453"
       inkscape:label="Calque 1"
       transform="matrix(0.1337942,0,0,0.1337942,-18.472238,-41.04701)" />
    <path
       style="fill:#ea5d00;fill-opacity:1;stroke:none;stroke-width:1.00543594;stroke-linecap:square;stroke-linejoin:miter;stroke-miterlimit:4;stroke-dasharray:none;stroke-opacity:1"
       d="M 19.6875,4 L 18.75,6.71875 C 17.83154,6.681487 16.945409,6.797765 16.09375,7.0625 L 14.46875,4.65625 C 13.279352,5.031949 12.702186,5.379307 11.78125,6.21875 L 13.0625,8.8125 C 12.406788,9.415717 11.864372,10.125587 11.4375,10.9375 L 8.5625,10.40625 C 8.361364,10.873998 8.198421,11.337842 8.0625,11.84375 C 7.926577,12.34966 7.841563,12.869621 7.78125,13.375 L 10.5,14.3125 C 10.462635,15.228504 10.609555,16.11937 10.875,16.96875 L 8.46875,18.59375 C 8.845457,19.779964 9.158304,20.362777 10,21.28125 L 12.625,20 C 13.229837,20.653957 13.935909,21.19927 14.75,21.625 L 14.1875,24.46875 C 14.656503,24.669346 15.148986,24.833193 15.65625,24.96875 C 16.163516,25.104307 16.680765,25.221098 17.1875,25.28125 L 18.125,22.53125 C 19.04346,22.568513 19.929591,22.452235 20.78125,22.1875 L 22.40625,24.59375 C 23.262394,24.323318 23.829407,24.086233 24.40625,23.65625 C 24.092446,24.057043 23.803221,24.479648 23.5625,24.9375 L 20.71875,24.375 C 20.517613,24.842746 20.354671,25.337842 20.21875,25.84375 C 20.082828,26.349661 19.997813,26.838371 19.9375,27.34375 L 22.65625,28.3125 C 22.618886,29.228503 22.734555,30.119369 23,30.96875 L 21.6875,31.84375 L 22.3125,31.15625 C 22.052985,30.744919 21.762513,30.32792 21.4375,29.96875 L 20.84375,29.4375 C 20.480936,29.106249 20.073134,28.795623 19.65625,28.53125 L 17.4375,30.5 C 17.170697,30.381374 16.916061,30.29653 16.625,30.21875 C 16.349571,30.145148 16.056304,30.062286 15.78125,30.03125 L 14.84375,27.21875 C 14.387318,27.236251 13.93503,27.28766 13.5,27.375 L 13.46875,27.375 C 13.142161,27.441709 12.842883,27.552946 12.53125,27.65625 C 12.08048,27.805676 11.632085,27.967629 11.21875,28.1875 L 11.84375,31.125 C 11.398675,31.453746 10.990052,31.829376 10.65625,32.28125 L 7.75,31.6875 C 7.510383,32.138971 7.310893,32.598231 7.15625,33.09375 C 6.941427,33.782099 6.778968,34.529719 6.75,35.28125 L 9.625,36.25 C 9.690078,36.802212 9.811138,37.342251 10.03125,37.84375 L 8.0625,40.0625 C 8.322014,40.473832 8.612485,40.859581 8.9375,41.21875 L 9.5,41.78125 C 9.862814,42.112502 10.270616,42.423128 10.6875,42.6875 L 12.90625,40.6875 C 13.173051,40.806126 13.427688,40.922219 13.71875,41 C 13.994176,41.073604 14.287446,41.125214 14.5625,41.15625 L 15.5,44 C 15.956432,43.982501 16.40872,43.89984 16.84375,43.8125 L 16.875,43.8125 C 17.201588,43.745792 17.532117,43.665804 17.84375,43.5625 C 18.29452,43.413071 18.711665,43.219871 19.125,43 L 18.5,40.09375 C 18.945075,39.765003 19.353698,39.358124 19.6875,38.90625 L 22.59375,39.5 C 22.833365,39.048529 23.064107,38.589268 23.21875,38.09375 C 23.433574,37.405399 23.564782,36.657781 23.59375,35.90625 L 20.71875,34.96875 C 20.653671,34.416539 20.532612,33.845249 20.3125,33.34375 L 20.71875,32.90625 C 21.052693,33.86169 21.402955,34.427991 22.15625,35.25 L 24.75,34 C 25.354837,34.653959 26.092159,35.199269 26.90625,35.625 L 26.34375,38.4375 C 26.812752,38.638098 27.305236,38.833192 27.8125,38.96875 C 28.319764,39.104307 28.837015,39.189848 29.34375,39.25 L 30.28125,36.53125 C 31.199712,36.568512 32.085841,36.452236 32.9375,36.1875 L 34.5625,38.5625 C 35.751899,38.186803 36.329064,37.870694 37.25,37.03125 L 36,34.40625 C 36.655714,33.803033 37.198128,33.093163 37.625,32.28125 L 40.46875,32.84375 C 40.669885,32.376002 40.832828,31.880909 40.96875,31.375 C 41.104671,30.869091 41.189687,30.380379 41.25,29.875 L 38.53125,28.90625 C 38.568613,27.990249 38.452945,27.09938 38.1875,26.25 L 40.59375,24.65625 C 40.275378,23.502332 39.872945,22.887223 39.03125,21.96875 L 36.4375,23.21875 C 35.832662,22.564793 35.095341,22.01948 34.28125,21.59375 L 34.84375,18.78125 C 34.374748,18.580653 33.882265,18.385557 33.375,18.25 C 32.867735,18.114443 32.350486,18.028902 31.84375,17.96875 L 30.90625,20.6875 C 29.987793,20.650237 29.101659,20.766516 28.25,21.03125 L 26.625,18.65625 C 25.732951,18.938025 25.200351,19.195594 24.59375,19.65625 C 24.928231,19.247453 25.216121,18.793002 25.46875,18.3125 L 28.3125,18.875 C 28.513633,18.407255 28.676578,17.912159 28.8125,17.40625 C 28.948422,16.900341 29.064687,16.380379 29.125,15.875 L 26.375,14.9375 C 26.412365,14.021498 26.296695,13.130631 26.03125,12.28125 L 28.4375,10.65625 C 28.119126,9.50233 27.716695,8.918473 26.875,8 L 24.28125,9.25 C 23.676414,8.596043 22.939091,8.050731 22.125,7.625 L 22.6875,4.78125 C 22.218496,4.580654 21.726016,4.416808 21.21875,4.28125 C 20.711487,4.145693 20.194236,4.060152 19.6875,4 z M 18.125,12.3125 C 18.425579,12.270701 18.751065,12.291774 19.0625,12.375 C 20.308239,12.707901 21.021294,13.976342 20.6875,15.21875 C 20.353705,16.461156 19.089491,17.207902 17.84375,16.875 C 16.598013,16.542097 15.853705,15.273657 16.1875,14.03125 C 16.437846,13.099446 17.223263,12.437898 18.125,12.3125 z M 24,20.28125 L 25.1875,22.78125 C 25.132858,22.831518 25.084318,22.885355 25.03125,22.9375 L 23.84375,20.4375 C 23.898393,20.387232 23.946871,20.333029 24,20.28125 z M 30.3125,26.28125 C 30.44416,26.266281 30.58319,26.273157 30.71875,26.28125 C 30.873676,26.290499 31.031783,26.302137 31.1875,26.34375 C 32.433237,26.676652 33.177544,27.976343 32.84375,29.21875 C 32.509957,30.461155 31.24574,31.176652 30,30.84375 C 28.754261,30.510848 28.009955,29.242406 28.34375,28 C 28.59931,27.048782 29.390879,26.386031 30.3125,26.28125 z M 14.96875,33.75 C 15.074829,33.738188 15.172802,33.743525 15.28125,33.75 C 15.40519,33.757398 15.531676,33.74796 15.65625,33.78125 C 16.652839,34.047569 17.235787,35.099825 16.96875,36.09375 C 16.701714,37.08768 15.684089,37.67257 14.6875,37.40625 C 13.690913,37.139932 13.107964,36.087676 13.375,35.09375 C 13.57945,34.332776 14.226188,33.832668 14.96875,33.75 z"
       id="path2779" />
    <path
       style="fill:url(#linearGradient40304);fill-opacity:1"
       d="M 19.68725,4 L 18.74975,6.71875 C 17.83129,6.681487 16.945159,6.797765 16.0935,7.0625 L 14.4685,4.65625 C 13.279102,5.031949 12.701936,5.379307 11.781,6.21875 L 13.06225,8.8125 C 12.406538,9.415717 11.864122,10.125587 11.43725,10.9375 L 8.56225,10.40625 C 8.361114,10.873998 8.198171,11.337842 8.06225,11.84375 C 7.926327,12.34966 7.841313,12.869621 7.781,13.375 L 10.49975,14.3125 C 10.462385,15.228504 10.609305,16.11937 10.87475,16.96875 L 8.4685,18.59375 C 8.845207,19.779964 9.158054,20.362777 9.99975,21.28125 L 12.62475,20 C 13.229587,20.653957 13.935659,21.19927 14.74975,21.625 L 14.18725,24.46875 C 14.656253,24.669346 15.148736,24.833193 15.656,24.96875 C 16.163266,25.104307 16.680515,25.221098 17.18725,25.28125 L 18.12475,22.53125 C 19.04321,22.568513 19.929341,22.452235 20.781,22.1875 L 22.406,24.59375 C 23.262144,24.323318 23.829157,24.086233 24.406,23.65625 C 24.092196,24.057043 23.802971,24.479648 23.56225,24.9375 L 20.7185,24.375 C 20.517363,24.842746 20.354421,25.337842 20.2185,25.84375 C 20.082578,26.349661 19.997563,26.838371 19.93725,27.34375 L 22.656,28.3125 C 22.640886,28.683018 22.652502,29.045039 22.68725,29.40625 C 23.126432,29.418477 23.55462,29.4375 23.99975,29.4375 C 25.50097,29.4375 26.949642,29.35348 28.37475,29.21875 C 28.262,28.828463 28.230136,28.421949 28.3435,28 C 28.59906,27.048782 29.390629,26.386031 30.31225,26.28125 C 30.44391,26.266281 30.58294,26.273157 30.7185,26.28125 C 30.873426,26.290499 31.031533,26.302137 31.18725,26.34375 C 32.204602,26.61562 32.871596,27.527574 32.906,28.53125 C 34.86406,28.130543 36.711107,27.63576 38.37475,27 C 38.32335,26.75009 38.26334,26.493477 38.18725,26.25 L 40.5935,24.65625 C 40.275128,23.502332 39.872695,22.887223 39.031,21.96875 L 36.43725,23.21875 C 35.832412,22.564793 35.095091,22.01948 34.281,21.59375 L 34.8435,18.78125 C 34.374498,18.580653 33.882015,18.385557 33.37475,18.25 C 32.867485,18.114443 32.350236,18.028902 31.8435,17.96875 L 30.906,20.6875 C 29.987543,20.650237 29.101409,20.766516 28.24975,21.03125 L 26.62475,18.65625 C 25.732701,18.938025 25.200101,19.195594 24.5935,19.65625 C 24.927981,19.247453 25.215871,18.793002 25.4685,18.3125 L 28.31225,18.875 C 28.513383,18.407255 28.676328,17.912159 28.81225,17.40625 C 28.948172,16.900341 29.064437,16.380379 29.12475,15.875 L 26.37475,14.9375 C 26.412115,14.021498 26.296445,13.130631 26.031,12.28125 L 28.43725,10.65625 C 28.118876,9.50233 27.716445,8.918473 26.87475,8 L 24.281,9.25 C 23.676164,8.596043 22.938841,8.050731 22.12475,7.625 L 22.68725,4.78125 C 22.218246,4.580654 21.725766,4.416808 21.2185,4.28125 C 20.711237,4.145693 20.193986,4.060152 19.68725,4 z M 18.5935,12.28125 C 18.751373,12.291697 18.906532,12.333387 19.06225,12.375 C 20.307989,12.707901 21.021044,13.976342 20.68725,15.21875 C 20.353455,16.461156 19.089241,17.207902 17.8435,16.875 C 16.597763,16.542097 15.853455,15.273657 16.18725,14.03125 C 16.437596,13.099446 17.223013,12.437898 18.12475,12.3125 C 18.275039,12.291601 18.435627,12.270803 18.5935,12.28125 z M 23.99975,20.28125 L 25.18725,22.78125 C 25.132608,22.831518 25.084068,22.885355 25.031,22.9375 L 23.8435,20.4375 C 23.898143,20.387232 23.946621,20.333029 23.99975,20.28125 z M 14.8435,27.21875 C 14.387068,27.236251 13.93478,27.28766 13.49975,27.375 L 13.4685,27.375 C 13.141911,27.441709 12.842633,27.552946 12.531,27.65625 C 12.381933,27.705664 12.240865,27.758704 12.0935,27.8125 C 13.121935,28.113534 14.195475,28.371783 15.31225,28.59375 L 14.8435,27.21875 z M 19.656,28.53125 L 18.93725,29.15625 C 19.511909,29.219494 20.098137,29.270679 20.68725,29.3125 C 20.363967,29.03178 20.015933,28.759506 19.656,28.53125 z"
       id="path40297" />
  </g>
</svg>
