<?xml version="1.0" encoding="UTF-8" standalone="no"?>
<!-- Created with Inkscape (http://www.inkscape.org/) -->

<svg
   xmlns:dc="http://purl.org/dc/elements/1.1/"
   xmlns:cc="http://creativecommons.org/ns#"
   xmlns:rdf="http://www.w3.org/1999/02/22-rdf-syntax-ns#"
   xmlns:svg="http://www.w3.org/2000/svg"
   xmlns="http://www.w3.org/2000/svg"
   xmlns:sodipodi="http://sodipodi.sourceforge.net/DTD/sodipodi-0.dtd"
   xmlns:inkscape="http://www.inkscape.org/namespaces/inkscape"
   width="96"
   height="96"
   id="svg2"
   version="1.1"
   inkscape:version="0.48.4 r9939"
   sodipodi:docname="spinny4_mask.svg"
   enable-background="new">
  <defs
     id="defs4">
    <linearGradient
       id="linearGradient3861">
      <stop
         style="stop-color:#eece33;stop-opacity:1;"
         offset="0"
         id="stop3863" />
      <stop
         style="stop-color:#eece33;stop-opacity:0;"
         offset="1"
         id="stop3865" />
    </linearGradient>
    <linearGradient
       id="linearGradient3851">
      <stop
         style="stop-color:#eece33;stop-opacity:1;"
         offset="0"
         id="stop3853" />
      <stop
         style="stop-color:#eece33;stop-opacity:0;"
         offset="1"
         id="stop3855" />
    </linearGradient>
  </defs>
  <sodipodi:namedview
     id="base"
     pagecolor="#ffffff"
     bordercolor="#666666"
     borderopacity="1.0"
     inkscape:pageopacity="0.0"
     inkscape:pageshadow="2"
     inkscape:zoom="11.2"
     inkscape:cx="36.047182"
     inkscape:cy="59.693646"
     inkscape:document-units="px"
     inkscape:current-layer="g4080"
     showgrid="false"
     inkscape:window-width="1366"
     inkscape:window-height="746"
     inkscape:window-x="0"
     inkscape:window-y="0"
     inkscape:window-maximized="1"
     inkscape:snap-page="true"
     inkscape:snap-bbox="true"
     inkscape:bbox-paths="true" />
  <metadata
     id="metadata7">
    <rdf:RDF>
      <cc:Work
         rdf:about="">
        <dc:format>image/svg+xml</dc:format>
        <dc:type
           rdf:resource="http://purl.org/dc/dcmitype/StillImage" />
        <dc:title />
      </cc:Work>
    </rdf:RDF>
  </metadata>
  <g
     inkscape:groupmode="layer"
     id="layer7"
     inkscape:label="Mask">
    <path
       style="fill:#0f0f0f;fill-opacity:1;fill-rule:nonzero;stroke:none;display:inline"
       d="M 0,0 0,96 96,96 96,0 0,0 z M 48,2 C 73.405099,2 94,22.594902 94,48 94,73.405099 73.405099,94 48,94 22.594902,94 2,73.405099 2,48 2,22.594902 22.594902,2 48,2 z"
       id="rect3842-3"
       inkscape:connector-curvature="0" />
    <path
       sodipodi:type="arc"
       style="fill:none;stroke:#585858;stroke-width:0.94980467;stroke-miterlimit:4;stroke-opacity:1;stroke-dasharray:none;display:inline"
       id="path4919-6"
       sodipodi:cx="47.414036"
       sodipodi:cy="48.144024"
       sodipodi:rx="42.110733"
       sodipodi:ry="45.330597"
       d="m 89.524769,48.144024 a 42.110733,45.330597 0 1 1 -84.2214662,0 42.110733,45.330597 0 1 1 84.2214662,0 z"
       transform="matrix(1.0923581,0,0,1.0147671,-3.7931057,-0.85497323)" />
  </g>
  <g
     style="display:inline"
     inkscape:label="Color4"
     id="g4080"
     inkscape:groupmode="layer">
    <path
       style="fill:#d910f0;fill-opacity:1;fill-rule:nonzero;stroke:none"
       d="M 48 28 C 36.954305 28 28 36.954305 28 48 C 28 59.045695 36.954305 68 48 68 C 59.045695 68 68 59.045695 68 48 C 68 36.954305 59.045695 28 48 28 z M 48 29 C 58.487803 29 67 37.512197 67 48 C 67 58.487803 58.487803 67 48 67 C 37.512197 67 29 58.487803 29 48 C 29 37.512197 37.512197 29 48 29 z "
       id="path4082" />
    <path
       transform="matrix(0.93171713,0,0,0.93171713,2.588237,3.2610364)"
       d="m 53.033009,48.017754 a 4.2931485,4.2931485 0 1 1 -8.586297,0 4.2931485,4.2931485 0 1 1 8.586297,0 z"
       sodipodi:ry="4.2931485"
       sodipodi:rx="4.2931485"
       sodipodi:cy="48.017754"
       sodipodi:cx="48.739861"
       id="path4084"
       style="fill:#000000;fill-opacity:1;fill-rule:nonzero;stroke:none;display:inline"
       sodipodi:type="arc" />
  </g>
</svg>
