<?xml version="1.0" encoding="UTF-8" standalone="no"?>
<!-- Created with Inkscape (http://www.inkscape.org/) -->

<svg
   xmlns:dc="http://purl.org/dc/elements/1.1/"
   xmlns:cc="http://creativecommons.org/ns#"
   xmlns:rdf="http://www.w3.org/1999/02/22-rdf-syntax-ns#"
   xmlns:svg="http://www.w3.org/2000/svg"
   xmlns="http://www.w3.org/2000/svg"
   xmlns:sodipodi="http://sodipodi.sourceforge.net/DTD/sodipodi-0.dtd"
   xmlns:inkscape="http://www.inkscape.org/namespaces/inkscape"
   version="1.1"
   width="96"
   height="96"
   id="svg2"
   style="enable-background:new"
   inkscape:version="0.48.4 r9939"
   sodipodi:docname="spinnyMini_1_mask.svg">
  <sodipodi:namedview
     pagecolor="#ffffff"
     bordercolor="#666666"
     borderopacity="1"
     objecttolerance="10"
     gridtolerance="10"
     guidetolerance="10"
     inkscape:pageopacity="0"
     inkscape:pageshadow="2"
     inkscape:window-width="1366"
     inkscape:window-height="746"
     id="namedview24"
     showgrid="false"
     inkscape:zoom="2.4583334"
     inkscape:cx="27.107282"
     inkscape:cy="52.194235"
     inkscape:window-x="0"
     inkscape:window-y="0"
     inkscape:window-maximized="1"
     inkscape:current-layer="layer1"
     inkscape:snap-bbox="true"
     inkscape:bbox-nodes="true"
     inkscape:snap-bbox-edge-midpoints="true"
     inkscape:snap-bbox-midpoints="true"
     inkscape:object-paths="true"
     inkscape:snap-intersection-paths="true"
     inkscape:object-nodes="true"
     inkscape:snap-smooth-nodes="true"
     showguides="true"
     inkscape:guide-bbox="true" />
  <defs
     id="defs4">
    <linearGradient
       id="linearGradient3861">
      <stop
         id="stop3863"
         style="stop-color:#eece33;stop-opacity:1"
         offset="0" />
      <stop
         id="stop3865"
         style="stop-color:#eece33;stop-opacity:0"
         offset="1" />
    </linearGradient>
    <linearGradient
       id="linearGradient3851">
      <stop
         id="stop3853"
         style="stop-color:#eece33;stop-opacity:1"
         offset="0" />
      <stop
         id="stop3855"
         style="stop-color:#eece33;stop-opacity:0"
         offset="1" />
    </linearGradient>
    <linearGradient
       id="linearGradient3851-7">
      <stop
         id="stop3853-0"
         offset="0"
         style="stop-color:#eece33;stop-opacity:1;" />
      <stop
         id="stop3855-9"
         offset="1"
         style="stop-color:#eece33;stop-opacity:0;" />
    </linearGradient>
    <linearGradient
       id="linearGradient3861-9">
      <stop
         id="stop3863-1"
         offset="0"
         style="stop-color:#eece33;stop-opacity:1;" />
      <stop
         id="stop3865-2"
         offset="1"
         style="stop-color:#eece33;stop-opacity:0;" />
    </linearGradient>
  </defs>
  <metadata
     id="metadata7">
    <rdf:RDF>
      <cc:Work
         rdf:about="">
        <dc:format>image/svg+xml</dc:format>
        <dc:type
           rdf:resource="http://purl.org/dc/dcmitype/StillImage" />
        <dc:title></dc:title>
      </cc:Work>
    </rdf:RDF>
  </metadata>
  <g
     id="layer6"
     style="display:none">
    <rect
       width="96"
       height="96"
       x="-4.2632564e-14"
       y="-2.7171737e-15"
       id="rect3003"
       style="fill:#0f0f0f;fill-opacity:1;fill-rule:nonzero;stroke:none" />
  </g>
  <g
     id="g4080"
     style="display:none">
    <path
       d="m 71.071428,46.267857 a 17.946428,11.875 0 1 1 -35.892856,0 17.946428,11.875 0 1 1 35.892856,0 z"
       transform="matrix(1.1144279,0,0,1.6842105,-11.203982,-29.92481)"
       id="path4082"
       style="fill:#bf880f;fill-opacity:1;fill-rule:nonzero;stroke:none" />
    <path
       d="m 53.033009,48.017754 a 4.2931485,4.2931485 0 1 1 -8.586297,0 4.2931485,4.2931485 0 1 1 8.586297,0 z"
       transform="matrix(0.93171713,0,0,0.93171713,2.588237,3.2610364)"
       id="path4084"
       style="fill:#000000;fill-opacity:1;fill-rule:nonzero;stroke:none;display:inline" />
  </g>
  <g
     id="layer3"
     style="opacity:0.95999995;display:none">
    <path
       d="M 46,3.7264493 C 45.96903,2.8335721 46.545072,1.949526 47.936937,1.9914377 49.328802,2.0333497 49.963562,2.675413 49.984216,3.742233 L 50,28.157989 c 0,0.681626 -1.287693,1.112807 -2.049321,1.104854 C 47.18905,29.254891 46.015784,28.805118 46,28.157989 z"
       id="rect3776"
       style="fill:#ffffff;fill-opacity:1;fill-rule:nonzero;stroke:none" />
  </g>
  <g
     inkscape:groupmode="layer"
     id="layer4"
     inkscape:label="Back"
     sodipodi:insensitive="true"
     style="display:inline">
    <rect
       style="fill:#0f0f0f;fill-opacity:1;fill-rule:nonzero;stroke:none"
       id="rect3863"
       width="96"
       height="96"
       x="0"
       y="0" />
  </g>
  <g
     inkscape:groupmode="layer"
     id="layer1"
     inkscape:label="Mask1"
     style="display:inline">
    <g
       style="enable-background:new"
       id="layer7">
      <path
         inkscape:connector-curvature="0"
         d="M 0,0 0,96 96,96 96,0 0,0 z M 48,2 C 73.405099,2 94,22.594902 94,48 94,73.405099 73.405099,94 48,94 22.594902,94 2,73.405099 2,48 2,22.594902 22.594902,2 48,2 z"
         id="rect3842-3"
         style="fill:#002334;fill-opacity:1;fill-rule:nonzero;stroke:none;display:inline" />
      <path
         inkscape:connector-curvature="0"
         d="m 89.524769,48.144024 a 42.110733,45.330597 0 1 1 -84.2214662,0 42.110733,45.330597 0 1 1 84.2214662,0 z"
         transform="matrix(1.0923581,0,0,1.0147671,-3.7931057,-0.85497323)"
         id="path4919-6"
         style="fill:none;stroke:#585858;stroke-width:0.94980466;stroke-miterlimit:4;stroke-opacity:1;stroke-dasharray:none;display:inline" />
    </g>
  </g>
  <g
     inkscape:groupmode="layer"
     id="layer2"
     inkscape:label="Indicator"
     style="display:inline">
    <path
       style="fill:#ffffff;fill-opacity:1;fill-rule:nonzero;stroke:none;display:inline;enable-background:new"
       d="m 47.71875,2.53125 c -1.998912,0.1408911 -3.723709,1.9961347 -3.71875,4 l 0,33.3125 c 0,2.094395 1.905605,3.999998 4,3.999998 2.094395,0 4,-1.905603 4,-3.999998 l 0,-33.3125 c 10e-4,-2.0533728 -1.82263,-3.9358323 -3.875,-4 -0.1353,-0.00688 -0.27095,-0.00688 -0.40625,0 z"
       id="path3830-7-5"
       inkscape:connector-curvature="0"
       sodipodi:nodetypes="cccscccc" />
  </g>
</svg>
