<svg height="20" viewBox="0 0 20 20" width="20" xmlns="http://www.w3.org/2000/svg"><g transform="translate(0 11)"><path d="m15 6.5a4.5 4.5 0 0 0 4.5 4.5 4.5 4.5 0 0 0  .5-.03125v-1.0078125a3.5 3.5 0 0 1 -.251953.03125 3.5 3.5 0 0 1 -.248047.0078125 3.5 3.5 0 0 1 -.349609-.0175781 3.5 3.5 0 0 1 -.345703-.0527344 3.5 3.5 0 0 1 -.339844-.0859375 3.5 3.5 0 0 1 -.328125-.1191406 3.5 3.5 0 0 1 -.314453-.1523438 3.5 3.5 0 0 1 -.298828-.1835937 3.5 3.5 0 0 1 -.277344-.2109375 3.5 3.5 0 0 1 -.257813-.2402344 3.5 3.5 0 0 1 -.230469-.2617188 3.5 3.5 0 0 1 -.203124-.2851562 3.5 3.5 0 0 1 -.173829-.3027344 3.5 3.5 0 0 1 -.142578-.3203125 3.5 3.5 0 0 1 -.111328-.3320312 3.5 3.5 0 0 1 -.076172-.3398438 3.5 3.5 0 0 1 -.042969-.3476562 3.5 3.5 0 0 1 -.007812-.2480469h-1z" fill="#484848" transform="translate(0 -11)"/><path d="m15.5-11v20" fill="none" stroke="#484848"/></g></svg>