<svg height="12" viewBox="0 0 12 12" width="12" xmlns="http://www.w3.org/2000/svg"><path d="m6 0a6 6 0 0 0 -6 6 6 6 0 0 0  6 6 6 6 0 0 0  6-6 6 6 0 0 0 -6-6zm0 1a5 5 0 0 1  .5.0253906 5 5 0 0 1  .4941406.0742188 5 5 0 0 1  .484375.1230468 5 5 0 0 1  .46875.171875 5 5 0 0 1  .4492188.2167969 5 5 0 0 1  .4257812.2617188 5 5 0 0 1  .3984375.3027343 5 5 0 0 1  .3652344.3398438 5 5 0 0 1  .3300781.3769531 5 5 0 0 1  .2910154.40625 5 5 0 0 1  .248047.4335938 5 5 0 0 1  .205078.4550781 5 5 0 0 1  .158203.4746094 5 5 0 0 1  .109375.4882812 5 5 0 0 1  .060547.4960938 5 5 0 0 1  .011719.3535156 5 5 0 0 1 -.025391.5 5 5 0 0 1 -.074218.4941406 5 5 0 0 1 -.123047.484375 5 5 0 0 1 -.171875.46875 5 5 0 0 1 -.216797.4492188 5 5 0 0 1 -.261719.4257812 5 5 0 0 1 -.3027342.3984375 5 5 0 0 1 -.3398438.3652344 5 5 0 0 1 -.3769531.3300781 5 5 0 0 1 -.40625.2910154 5 5 0 0 1 -.4335938.248047 5 5 0 0 1 -.4550781.205078 5 5 0 0 1 -.4746094.158203 5 5 0 0 1 -.4882812.109375 5 5 0 0 1 -.4960938.060547 5 5 0 0 1 -.3535156.011719 5 5 0 0 1 -.5-.025391 5 5 0 0 1 -.4941406-.074218 5 5 0 0 1 -.484375-.123047 5 5 0 0 1 -.46875-.171875 5 5 0 0 1 -.4492188-.216797 5 5 0 0 1 -.4257812-.261719 5 5 0 0 1 -.3984375-.3027342 5 5 0 0 1 -.3652344-.3398438 5 5 0 0 1 -.3300781-.3769531 5 5 0 0 1 -.2910156-.40625 5 5 0 0 1 -.2480469-.4335938 5 5 0 0 1 -.2050781-.4550781 5 5 0 0 1 -.1582032-.4746094 5 5 0 0 1 -.109375-.4882812 5 5 0 0 1 -.0605468-.4960938 5 5 0 0 1 -.0117188-.3535156 5 5 0 0 1  .0253906-.5 5 5 0 0 1  .0742188-.4941406 5 5 0 0 1  .1230468-.484375 5 5 0 0 1  .171875-.46875 5 5 0 0 1  .2167969-.4492188 5 5 0 0 1  .2617188-.4257812 5 5 0 0 1  .3027343-.3984375 5 5 0 0 1  .3398438-.3652344 5 5 0 0 1  .3769531-.3300781 5 5 0 0 1  .40625-.2910156 5 5 0 0 1  .4335938-.2480469 5 5 0 0 1  .4550781-.2050781 5 5 0 0 1  .4746094-.1582032 5 5 0 0 1  .4882812-.109375 5 5 0 0 1  .4960938-.0605468 5 5 0 0 1  .3535156-.0117188z" fill="#484848"/></svg>