<svg width="20" height="46" version="1.1" xmlns="http://www.w3.org/2000/svg"><path d="m17.562 3.4375c.27725.45484.4375.98869.4375 1.5625v37c0 1.662-1.338 3-3 3h-7c-.57381 0-1.1077-.16025-1.5625-.4375.52578.86256 1.4743 1.4375 2.5625 1.4375h7c1.662 0 3-1.338 3-3v-37c0-1.0882-.57494-2.0367-1.4375-2.5625z" color="#000000" opacity=".15"/><path d="m16.562 2.4375c.27725.45484.4375.98869.4375 1.5625v37c0 1.662-1.338 3-3 3h-7c-.57381 0-1.1077-.16025-1.5625-.4375.52578.86256 1.4743 1.4375 2.5625 1.4375h7c1.662 0 3-1.338 3-3v-37c0-1.0882-.57494-2.0367-1.4375-2.5625z" color="#000000" opacity=".5"/><rect x="4" y="1" width="13" height="43" rx="3" ry="3" color="#000000" opacity=".8"/><path d="m6 0c-1.662 0-3 1.338-3 3v37c0 .831.33275 1.5828.875 2.125l1.125-1.125 9-39 1.125-1.125c-.54225-.54225-1.294-.875-2.125-.875z" color="#000000" fill="#787878"/><path d="m15.125.875-1.125 1.125-9 39-1.125 1.125c.54225.54225 1.294.875 2.125.875h7c1.662 0 3-1.338 3-3v-37c0-.831-.33275-1.5828-.875-2.125z" color="#000000" fill="#4d4d4d"/><rect x="4" y="1" width="11" height="41" rx="2" ry="2" color="#000000" fill="#232323"/><rect x="8" y="1" width="1" height="41" color="#000000" fill="#080808"/><rect x="9" y="1" width="1" height="41" color="#000000" fill="#ea0000"/><rect x="10" y="1" width="1" height="41" color="#000000" fill="#515151"/></svg>
