<?xml version="1.0" encoding="UTF-8"?>
<!-- Created with Inkscape (http://www.inkscape.org/) -->
<svg id="svg2" width="25" height="25" version="1.1" xmlns="http://www.w3.org/2000/svg" xmlns:cc="http://creativecommons.org/ns#" xmlns:dc="http://purl.org/dc/elements/1.1/" xmlns:rdf="http://www.w3.org/1999/02/22-rdf-syntax-ns#" xmlns:xlink="http://www.w3.org/1999/xlink">
 <defs id="defs4">
  <filter id="filter5815" color-interpolation-filters="sRGB">
   <feGaussianBlur id="feGaussianBlur5817" stdDeviation="0.42678198"/>
  </filter>
  <linearGradient id="linearGradient4945" x1="196.12" x2="196.15" y1="616.53" y2="626.48" gradientTransform="matrix(1.2573 0 0 1 -52.11 15)" gradientUnits="userSpaceOnUse">
   <stop id="stop4939" stop-color="#e90808" offset="0"/>
   <stop id="stop4941" stop-color="#b60000" offset="1"/>
  </linearGradient>
  <radialGradient id="radialGradient4947" cx="277.23" cy="316.59" r="21.466" gradientTransform="matrix(1.2346 -.010354 .016272 .88786 19.827 74.038)" gradientUnits="userSpaceOnUse">
   <stop id="stop867" stop-color="#eece33" stop-opacity=".95055" offset="0"/>
   <stop id="stop869" stop-color="#ff734e" stop-opacity=".81868" offset=".61064"/>
   <stop id="stop871" stop-color="#ff2d2d" stop-opacity="0" offset="1"/>
  </radialGradient>
 </defs>
 <metadata id="metadata7">
  <rdf:RDF>
   <cc:Work rdf:about="">
    <dc:format>image/svg+xml</dc:format>
    <dc:type rdf:resource="http://purl.org/dc/dcmitype/StillImage"/>
    <dc:title/>
   </cc:Work>
  </rdf:RDF>
 </metadata>
 <g id="layer3" transform="translate(-182.48 -628.89)">
  <g id="g3269" transform="matrix(1 0 0 1.0435 .5 -27.908)">
   <path id="rect5578" d="m192.98 631.99c0-0.7733 0.4862-1.6026 1.4857-1.6026 0.95241 0 1.4769 0.79947 1.4959 1.5851 0 2.2052 0.0184 8.58 0.0184 8.58-0.0557 0.73809-0.74136 1.3349-1.5333 1.3349-0.79194 0-1.4528-0.74079-1.4528-1.352-7e-3 -3.3013-0.0134-5.454-0.0134-8.5454z" fill="url(#linearGradient4945)"/>
   <ellipse id="path3936" transform="matrix(.051698 0 0 .076424 175.5 604.9)" cx="367.1" cy="353.18" rx="24.154" ry="16.341" fill="url(#radialGradient4947)" filter="url(#filter5815)"/>
  </g>
 </g>
</svg>
