<?xml version="1.0" encoding="UTF-8"?>
<!-- Created with Inkscape (http://www.inkscape.org/) -->
<svg id="svg29307" width="46" height="17" version="1.1" xmlns="http://www.w3.org/2000/svg" xmlns:cc="http://creativecommons.org/ns#" xmlns:dc="http://purl.org/dc/elements/1.1/" xmlns:rdf="http://www.w3.org/1999/02/22-rdf-syntax-ns#">
 <metadata id="metadata29312">
  <rdf:RDF>
   <cc:Work rdf:about="">
    <dc:format>image/svg+xml</dc:format>
    <dc:type rdf:resource="http://purl.org/dc/dcmitype/StillImage"/>
    <dc:title/>
   </cc:Work>
  </rdf:RDF>
 </metadata>
 <path id="rect25892-3-2" d="m5.4375 14.562c0.45484 0.27725 0.98869 0.4375 1.5625 0.4375h36c1.662 0 3-1.338 3-3v-7c0-0.57381-0.16025-1.1077-0.4375-1.5625 0.86256 0.52578 1.4375 1.4743 1.4375 2.5625v7c0 1.662-1.338 3-3 3h-36c-1.0882 0-2.0367-0.57494-2.5625-1.4375z" color="#000000" opacity=".15"/>
 <path id="rect25892-3-2-1-2" d="m4.4375 13.562c0.45484 0.27725 0.98869 0.4375 1.5625 0.4375h36c1.662 0 3-1.338 3-3v-7c0-0.57381-0.16025-1.1077-0.4375-1.5625 0.86256 0.52578 1.4375 1.4743 1.4375 2.5625v7c0 1.662-1.338 3-3 3h-36c-1.0882 0-2.0367-0.57494-2.5625-1.4375z" color="#000000" opacity=".5"/>
 <path id="rect25892-3-0" transform="matrix(0,1,1,0,0,0)" d="m4 3h7c1.662 0 3 1.338 3 3v36c0 1.662-1.338 3-3 3h-7c-1.662 0-3-1.338-3-3v-36c0-1.662 1.338-3 3-3z" color="#000000" opacity=".8"/>
 <path id="rect25892-6" d="M 2,3 C 2,1.338 3.338,0 5,0 l 36,0 c 0.831,0 1.58275,0.33275 2.125,0.875 L 42,2 4,11 2.875,12.125 C 2.33275,11.58275 2,10.831 2,10 z" color="#000000" fill="#787878"/>
 <path id="rect25892-8-4" d="m2.875 12.125 1.125-1.125 38-9 1.125-1.125c0.54225 0.54225 0.875 1.294 0.875 2.125v7c0 1.662-1.338 3-3 3h-36c-0.831 0-1.5828-0.33275-2.125-0.875z" color="#000000" fill="#4d4d4d"/>
 <path id="rect25892-1-3" transform="matrix(0,1,1,0,0,0)" d="m3 3h7c1.108 0 2 0.892 2 2v36c0 1.108-0.892 2-2 2h-7c-1.108 0-2-0.892-2-2v-36c0-1.108 0.892-2 2-2z" color="#000000" fill="#232323"/>
 <path id="rect26439-3" transform="matrix(0,1,1,0,0,0)" d="m5 3h1v40h-1z" color="#000000" fill="#080808"/>
 <path id="rect26439-0-6" transform="matrix(0,1,1,0,0,0)" d="m6 3h1v40h-1z" color="#000000" fill="#ea0000"/>
 <path id="rect26439-0-5-9" transform="matrix(0,1,1,0,0,0)" d="m7 3h1v40h-1z" color="#000000" fill="#515151"/>
</svg>
