<?xml version="1.0" encoding="UTF-8" standalone="no"?>
<!-- Created with Inkscape (http://www.inkscape.org/) -->

<svg
   xmlns:dc="http://purl.org/dc/elements/1.1/"
   xmlns:cc="http://creativecommons.org/ns#"
   xmlns:rdf="http://www.w3.org/1999/02/22-rdf-syntax-ns#"
   xmlns:svg="http://www.w3.org/2000/svg"
   xmlns="http://www.w3.org/2000/svg"
   version="1.1"
   width="46"
   height="17"
   id="svg29307">
  <defs
     id="defs29309" />
  <metadata
     id="metadata29312">
    <rdf:RDF>
      <cc:Work
         rdf:about="">
        <dc:format>image/svg+xml</dc:format>
        <dc:type
           rdf:resource="http://purl.org/dc/dcmitype/StillImage" />
        <dc:title></dc:title>
      </cc:Work>
    </rdf:RDF>
  </metadata>
  <path
     d="M 5.4375,14.5625 C 5.892341,14.839751 6.426186,15 7,15 l 36,0 c 1.662,0 3,-1.338 3,-3 L 46,5 C 46,4.4261863 45.839751,3.8923406 45.5625,3.4375 46.425064,3.9632815 47,4.9118137 47,6 l 0,7 c 0,1.662 -1.338,3 -3,3 L 8,16 C 6.911814,16 5.963282,15.425064 5.4375,14.5625 z"
     id="rect25892-3-2"
     style="opacity:0.15;color:#000000;fill:#000000;fill-opacity:1;fill-rule:nonzero;stroke:none;stroke-width:0.36000001;marker:none;visibility:visible;display:inline;overflow:visible;enable-background:accumulate" />
  <path
     d="M 4.4375,13.5625 C 4.892341,13.839751 5.426186,14 6,14 l 36,0 c 1.662,0 3,-1.338 3,-3 L 45,4 C 45,3.4261863 44.839751,2.8923406 44.5625,2.4375 45.425064,2.9632815 46,3.9118137 46,5 l 0,7 c 0,1.662 -1.338,3 -3,3 L 7,15 C 5.911814,15 4.963282,14.425064 4.4375,13.5625 z"
     id="rect25892-3-2-1-2"
     style="opacity:0.5;color:#000000;fill:#000000;fill-opacity:1;fill-rule:nonzero;stroke:none;stroke-width:0.36000001;marker:none;visibility:visible;display:inline;overflow:visible;enable-background:accumulate" />
  <path
     d="m 4,3 7,0 c 1.662,0 3,1.338 3,3 l 0,36 c 0,1.662 -1.338,3 -3,3 L 4,45 C 2.338,45 1,43.662 1,42 L 1,6 C 1,4.338 2.338,3 4,3 z"
     transform="matrix(0,1,1,0,0,0)"
     id="rect25892-3-0"
     style="opacity:0.8;color:#000000;fill:#000000;fill-opacity:1;fill-rule:nonzero;stroke:none;stroke-width:0.36000001;marker:none;visibility:visible;display:inline;overflow:visible;enable-background:accumulate" />
  <path
     d="M 2,3 C 2,1.338 3.338,0 5,0 l 36,0 c 0.831,0 1.58275,0.33275 2.125,0.875 L 42,2 4,11 2.875,12.125 C 2.33275,11.58275 2,10.831 2,10 z"
     id="rect25892-6"
     style="color:#000000;fill:#787878;fill-opacity:1;fill-rule:nonzero;stroke:none;stroke-width:0.36000001;marker:none;visibility:visible;display:inline;overflow:visible;enable-background:accumulate" />
  <path
     d="M 2.875,12.125 4,11 42,2 43.125,0.875 C 43.66725,1.41725 44,2.169 44,3 l 0,7 c 0,1.662 -1.338,3 -3,3 L 5,13 C 4.169,13 3.41725,12.66725 2.875,12.125 z"
     id="rect25892-8-4"
     style="color:#000000;fill:#4d4d4d;fill-opacity:1;fill-rule:nonzero;stroke:none;stroke-width:0.36000001;marker:none;visibility:visible;display:inline;overflow:visible;enable-background:accumulate" />
  <path
     d="m 3,3 7,0 c 1.108,0 2,0.892 2,2 l 0,36 c 0,1.108 -0.892,2 -2,2 L 3,43 C 1.892,43 1,42.108 1,41 L 1,5 C 1,3.892 1.892,3 3,3 z"
     transform="matrix(0,1,1,0,0,0)"
     id="rect25892-1-3"
     style="color:#000000;fill:#232323;fill-opacity:1;fill-rule:nonzero;stroke:none;stroke-width:0.36000001;marker:none;visibility:visible;display:inline;overflow:visible;enable-background:accumulate" />
  <path
     d="M 5,3 6,3 6,43 5,43 z"
     transform="matrix(0,1,1,0,0,0)"
     id="rect26439-3"
     style="color:#000000;fill:#080808;fill-opacity:1;fill-rule:nonzero;stroke:none;stroke-width:0.36000001;marker:none;visibility:visible;display:inline;overflow:visible;enable-background:accumulate" />
  <path
     d="M 6,3 7,3 7,43 6,43 z"
     transform="matrix(0,1,1,0,0,0)"
     id="rect26439-0-6"
     style="color:#000000;fill:#ea0000;fill-opacity:1;fill-rule:nonzero;stroke:none;stroke-width:0.36000001;marker:none;visibility:visible;display:inline;overflow:visible;enable-background:accumulate" />
  <path
     d="M 7,3 8,3 8,43 7,43 z"
     transform="matrix(0,1,1,0,0,0)"
     id="rect26439-0-5-9"
     style="color:#000000;fill:#515151;fill-opacity:1;fill-rule:nonzero;stroke:none;stroke-width:0.36000001;marker:none;visibility:visible;display:inline;overflow:visible;enable-background:accumulate" />
</svg>
