<?xml version="1.0" encoding="UTF-8" standalone="no"?>
<!-- Created with Inkscape (http://www.inkscape.org/) -->

<svg
   xmlns:dc="http://purl.org/dc/elements/1.1/"
   xmlns:cc="http://creativecommons.org/ns#"
   xmlns:rdf="http://www.w3.org/1999/02/22-rdf-syntax-ns#"
   xmlns:svg="http://www.w3.org/2000/svg"
   xmlns="http://www.w3.org/2000/svg"
   xmlns:inkscape="http://www.inkscape.org/namespaces/inkscape"
   version="1.1"
   width="18"
   height="46"
   id="svg25871">
  <defs
     id="defs25873">
    <inkscape:path-effect
       effect="spiro"
       id="path-effect28347" />
    <inkscape:path-effect
       effect="spiro"
       id="path-effect28347-6" />
  </defs>
  <metadata
     id="metadata25876">
    <rdf:RDF>
      <cc:Work
         rdf:about="">
        <dc:format>image/svg+xml</dc:format>
        <dc:type
           rdf:resource="http://purl.org/dc/dcmitype/StillImage" />
        <dc:title></dc:title>
      </cc:Work>
    </rdf:RDF>
  </metadata>
  <path
     d="M 15.5625,3.4375 C 15.839751,3.8923406 16,4.4261863 16,5 l 0,37 c 0,1.662 -1.338,3 -3,3 L 6,45 C 5.4261863,45 4.8923406,44.839751 4.4375,44.5625 4.9632815,45.425064 5.9118137,46 7,46 l 7,0 c 1.662,0 3,-1.338 3,-3 L 17,6 C 17,4.9118137 16.425064,3.9632815 15.5625,3.4375 z"
     id="rect25892-3-2"
     style="opacity:0.15;color:#000000;fill:#000000;fill-opacity:1;fill-rule:nonzero;stroke:none;stroke-width:0.36000001;marker:none;visibility:visible;display:inline;overflow:visible;enable-background:accumulate" />
  <path
     d="M 14.5625,2.4375 C 14.839751,2.8923406 15,3.4261863 15,4 l 0,37 c 0,1.662 -1.338,3 -3,3 L 5,44 C 4.4261863,44 3.8923406,43.839751 3.4375,43.5625 3.9632815,44.425064 4.9118137,45 6,45 l 7,0 c 1.662,0 3,-1.338 3,-3 L 16,5 C 16,3.9118137 15.425064,2.9632815 14.5625,2.4375 z"
     id="rect25892-3-2-1"
     style="opacity:0.5;color:#000000;fill:#000000;fill-opacity:1;fill-rule:nonzero;stroke:none;stroke-width:0.36000001;marker:none;visibility:visible;display:inline;overflow:visible;enable-background:accumulate" />
  <rect
     width="13"
     height="43"
     rx="3"
     ry="3"
     x="2"
     y="1"
     id="rect25892-3"
     style="opacity:0.8;color:#000000;fill:#000000;fill-opacity:1;fill-rule:nonzero;stroke:none;stroke-width:0.36000001;marker:none;visibility:visible;display:inline;overflow:visible;enable-background:accumulate" />
  <path
     d="M 4,0 C 2.338,0 1,1.338 1,3 l 0,37 c 0,0.831 0.33275,1.58275 0.875,2.125 L 3,41 12,2 13.125,0.875 C 12.58275,0.33275 11.831,0 11,0 L 4,0 z"
     id="rect25892"
     style="color:#000000;fill:#787878;fill-opacity:1;fill-rule:nonzero;stroke:none;stroke-width:0.36000001;marker:none;visibility:visible;display:inline;overflow:visible;enable-background:accumulate" />
  <path
     d="M 13.125,0.875 12,2 3,41 1.875,42.125 C 2.41725,42.66725 3.169,43 4,43 l 7,0 c 1.662,0 3,-1.338 3,-3 L 14,3 C 14,2.169 13.66725,1.41725 13.125,0.875 z"
     id="rect25892-8"
     style="color:#000000;fill:#4d4d4d;fill-opacity:1;fill-rule:nonzero;stroke:none;stroke-width:0.36000001;marker:none;visibility:visible;display:inline;overflow:visible;enable-background:accumulate" />
  <rect
     width="11"
     height="41"
     rx="2"
     ry="2"
     x="2"
     y="1"
     id="rect25892-1"
     style="color:#000000;fill:#232323;fill-opacity:1;fill-rule:nonzero;stroke:none;stroke-width:0.36000001;marker:none;visibility:visible;display:inline;overflow:visible;enable-background:accumulate" />
  <rect
     width="1"
     height="41"
     x="6"
     y="1"
     id="rect26439"
     style="color:#000000;fill:#080808;fill-opacity:1;fill-rule:nonzero;stroke:none;stroke-width:0.36000001;marker:none;visibility:visible;display:inline;overflow:visible;enable-background:accumulate" />
  <rect
     width="1"
     height="41"
     x="7"
     y="1"
     id="rect26439-0"
     style="color:#000000;fill:#ea0000;fill-opacity:1;fill-rule:nonzero;stroke:none;stroke-width:0.36000001;marker:none;visibility:visible;display:inline;overflow:visible;enable-background:accumulate" />
  <rect
     width="1"
     height="41"
     x="8"
     y="1"
     id="rect26439-0-5"
     style="color:#000000;fill:#515151;fill-opacity:1;fill-rule:nonzero;stroke:none;stroke-width:0.36000001;marker:none;visibility:visible;display:inline;overflow:visible;enable-background:accumulate" />
</svg>
