<?xml version="1.0" encoding="UTF-8"?>
<!-- Created with Inkscape (http://www.inkscape.org/) -->
<svg id="svg28485" width="37" height="16" version="1.1" xmlns="http://www.w3.org/2000/svg" xmlns:cc="http://creativecommons.org/ns#" xmlns:dc="http://purl.org/dc/elements/1.1/" xmlns:rdf="http://www.w3.org/1999/02/22-rdf-syntax-ns#">
 <metadata id="metadata28490">
  <rdf:RDF>
   <cc:Work rdf:about="">
    <dc:format>image/svg+xml</dc:format>
    <dc:type rdf:resource="http://purl.org/dc/dcmitype/StillImage"/>
    <dc:title/>
   </cc:Work>
  </rdf:RDF>
 </metadata>
 <path id="rect25892-3-2-1" d="m4.4375 14.562c0.4548 0.2773 0.9887 0.4375 1.5625 0.4375h27c1.662 0 3-1.338 3-3v-7c0-0.5738-0.1602-1.1077-0.4375-1.5625 0.8626 0.5258 1.4375 1.4743 1.4375 2.5625v7c0 1.662-1.338 3-3 3h-27c-1.0882 0-2.0367-0.5749-2.5625-1.4375z" color="#000000" opacity=".4"/>
 <path id="rect25892-3" d="m3 5v7c0 1.662 1.338 3 3 3h27c1.662 0 3-1.338 3-3v-7c0-1.662-1.338-3-3-3h-27c-1.662 0-3 1.338-3 3z" color="#000000" opacity=".8"/>
 <path id="rect25892" d="M 2,4 C 2,2.338 3.338,1 5,1 h 27 c 0.831,0 1.5828,0.3328 2.125,0.875 L 33,3 4,12 2.875,13.125 C 2.3328,12.5828 2,11.831 2,11 Z" color="#000000" fill="#787878"/>
 <path id="rect25892-8" d="M 2.875,13.125 4,12 33,3 34.125,1.875 C 34.6673,2.4173 35,3.169 35,4 v 7 c 0,1.662 -1.338,3 -3,3 H 5 C 4.169,14 3.4173,13.6673 2.875,13.125 Z" color="#000000" fill="#4d4d4d"/>
 <path id="rect25892-1" d="m3 4v7c0 1.108 0.892 2 2 2h27c1.108 0 2-0.892 2-2v-7c0-1.108-0.892-2-2-2h-27c-1.108 0-2 0.892-2 2z" color="#000000" fill="#232323"/>
 <path id="rect26439" d="m3 6v1h31v-1z" color="#000000" fill="#080808"/>
 <path id="rect26439-0" d="m3 7v1h31v-1z" color="#000000" fill="#ea0000"/>
 <path id="rect26439-0-5" d="m3 8v1h31v-1z" color="#000000" fill="#515151"/>
</svg>
