<?xml version="1.0" encoding="UTF-8"?>
<!-- Created with Inkscape (http://www.inkscape.org/) -->
<svg id="svg3014" width="27" height="12" version="1.1" xmlns="http://www.w3.org/2000/svg" xmlns:cc="http://creativecommons.org/ns#" xmlns:dc="http://purl.org/dc/elements/1.1/" xmlns:rdf="http://www.w3.org/1999/02/22-rdf-syntax-ns#">
 <metadata id="metadata3019">
  <rdf:RDF>
   <cc:Work rdf:about="">
    <dc:format>image/svg+xml</dc:format>
    <dc:type rdf:resource="http://purl.org/dc/dcmitype/StillImage"/>
    <dc:title/>
   </cc:Work>
  </rdf:RDF>
 </metadata>
 <g id="layer1" transform="translate(0 -1040.4)">
  <g id="layer11" transform="translate(0 1040.4)">
   <path id="rect25892-3-2" d="m4.4375 10.562c0.4548 0.2773 0.9887 0.4375 1.5625 0.4375h17c1.662 0 3-1.338 3-3v-3c0-0.5738-0.1602-1.1077-0.4375-1.5625 0.8626 0.5258 1.4375 1.4743 1.4375 2.5625v3c0 1.662-1.338 3-3 3h-17c-1.0882 0-2.0367-0.5749-2.5625-1.4375z" color="#000000" opacity=".15"/>
   <path id="rect25892-3-2-1" d="m3.4375 9.5625c0.4548 0.2773 0.9887 0.4375 1.5625 0.4375h17c1.662 0 3-1.338 3-3v-3c0-0.5738-0.1602-1.1077-0.4375-1.5625 0.8626 0.5258 1.4375 1.4743 1.4375 2.5625v3c0 1.662-1.338 3-3 3h-17c-1.0882 0-2.0367-0.5749-2.5625-1.4375z" color="#000000" opacity=".5"/>
   <path id="rect25892-3" d="m2 4v3c0 1.662 1.338 3 3 3h17c1.662 0 3-1.338 3-3v-3c0-1.662-1.338-3-3-3h-17c-1.662 0-3 1.338-3 3z" color="#000000" opacity=".8"/>
   <path id="rect25892" d="m1 3c0-1.662 1.338-3 3-3h17c0.831 0 1.5828 0.3328 2.125 0.875l-1.125 1.125-19 5-1.125 1.125c-0.5422-0.5422-0.875-1.294-0.875-2.125z" color="#000000" fill="#787878"/>
   <path id="rect25892-8" d="m1.875 8.125 1.125-1.125 19-5 1.125-1.125c0.5423 0.5423 0.875 1.294 0.875 2.125v3c0 1.662-1.338 3-3 3h-17c-0.831 0-1.5827-0.3327-2.125-0.875z" color="#000000" fill="#4d4d4d"/>
   <path id="rect25892-1" d="m2 3v3c0 1.108 0.892 2 2 2h17c1.108 0 2-0.892 2-2v-3c0-1.108-0.892-2-2-2h-17c-1.108 0-2 0.892-2 2z" color="#000000" fill="#232323"/>
   <path id="rect26439" d="m2 3v1h21v-1z" color="#000000" fill="#080808"/>
   <path id="rect26439-0" d="m2 4v1h21v-1z" color="#000000" fill="#ea0000"/>
   <path id="rect26439-0-5" d="m2 5v1h21v-1z" color="#000000" fill="#515151"/>
  </g>
 </g>
</svg>
