<?xml version="1.0" encoding="UTF-8"?>
<!-- Created with Inkscape (http://www.inkscape.org/) -->
<svg id="svg2" width="40" height="34" version="1.1" xmlns="http://www.w3.org/2000/svg" xmlns:cc="http://creativecommons.org/ns#" xmlns:dc="http://purl.org/dc/elements/1.1/" xmlns:rdf="http://www.w3.org/1999/02/22-rdf-syntax-ns#" xmlns:xlink="http://www.w3.org/1999/xlink">
 <defs id="defs4">
  <linearGradient id="linearGradient3839" x1="256.74" x2="484.71" y1="472.03" y2="472.03" gradientTransform="translate(33.231 11.944)" gradientUnits="userSpaceOnUse">
   <stop id="stop5443" stop-color="#060606" offset="0"/>
   <stop id="stop5445" stop-color="#343434" offset="1"/>
  </linearGradient>
 </defs>
 <metadata id="metadata7">
  <rdf:RDF>
   <cc:Work rdf:about="">
    <dc:format>image/svg+xml</dc:format>
    <dc:type rdf:resource="http://purl.org/dc/dcmitype/StillImage"/>
    <dc:title/>
   </cc:Work>
  </rdf:RDF>
 </metadata>
 <g id="layer4" transform="translate(-182.48 -619.89)">
  <g id="g3912" transform="matrix(.10676 0 0 .10676 162.71 586.67)" opacity=".94">
   <path id="path4669-2" transform="matrix(-.31622 -.94869 .94869 -.31622 49.242 1001)" d="m478.81 472.03a108.09 108.09 0 1 1-216.17 0 108.09 108.09 0 1 1 216.17 0z" stroke="#000" stroke-width="11.8"/>
  </g>
  <g id="g5840" transform="matrix(.10676 0 0 .10676 163.27 587.3)">
   <g id="g5835" transform="translate(7,7)">
    <path id="path4669-1-shadow" d="m516.41 506.24c4.3642-24.174 2.9091-49.741-5.4062-74.688-15.358-46.074-50.707-79.866-93.188-94.938 0 0-20.697-8.1402-50.198-8.2023-29.501-0.0622-50.927 8.2023-50.927 8.2023-70.746 25.019-111.59 97.58-98.562 169.62" fill-opacity="0" stroke="#000" stroke-linecap="round" stroke-width="11.8"/>
   </g>
  </g>
 </g>
 <g id="g56" transform="matrix(.10676 0 0 .10676 -19.213 -32.584)">
  <g id="g58">
   <path id="path4669-1" d="m516.41 506.24c4.3642-24.174 2.9091-49.741-5.4062-74.688-15.358-46.074-50.707-79.866-93.188-94.938 0 0-20.697-8.1402-50.198-8.2023-29.501-0.0622-50.927 8.2023-50.927 8.2023-70.746 25.019-111.59 97.58-98.562 169.62" fill="none" stroke="#585858" stroke-linecap="round" stroke-width="11.8"/>
  </g>
  <path id="path4669" transform="matrix(-.31622 -.94869 .94869 -.31622 36.694 980.43)" d="m478.81 472.03a108.09 108.09 0 1 1-216.17 0 108.09 108.09 0 1 1 216.17 0z" fill="url(#linearGradient3839)" stroke="#585858" stroke-width="11.8"/>
 </g>
 <path id="rect5530-9" d="m3 30v4h6v-4zm1 1h4v2h-4z" color="#000000" fill="#101010" style="block-progression:tb;text-indent:0;text-transform:none"/>
 <rect id="rect5530" x="2.5" y="29.5" width="5.0001" height="3" fill="none" stroke="#767676" stroke-dashoffset="319.5" stroke-linecap="round"/>
 <path id="rect5530-9-3" d="m33 30v4h6v-4z" color="#000000" fill="#101010" style="block-progression:tb;text-indent:0;text-transform:none"/>
 <rect id="rect5530-5" x="32.5" y="29.5" width="5" height="3" fill="#767676" stroke="#767676" stroke-dashoffset="319.5" stroke-linecap="round"/>
</svg>
