<svg width="46" height="17" version="1.1" xmlns="http://www.w3.org/2000/svg"><path d="m5.4375 13.562c.45484.27725.98869.4375 1.5625.4375h35c1.662 0 3-1.338 3-3v-5c0-.57381-.16025-1.1077-.4375-1.5625.86256.52578 1.4375 1.4743 1.4375 2.5625v5c0 1.662-1.338 3-3 3h-35c-1.0882 0-2.0367-.57494-2.5625-1.4375z" color="#000000" opacity=".15"/><path d="m4.4375 12.562c.45484.27725.98869.4375 1.5625.4375h35c1.662 0 3-1.338 3-3v-5c0-.57381-.16025-1.1077-.4375-1.5625.86256.52578 1.4375 1.4743 1.4375 2.5625v5c0 1.662-1.338 3-3 3h-35c-1.0882 0-2.0367-.57494-2.5625-1.4375z" color="#000000" opacity=".5"/><path transform="matrix(0,1,1,0,0,0)" d="m5.0002 3h5c1.662 0 3 1.338 3 3v35c0 1.662-1.338 3-3 3h-5c-1.662 0-3-1.338-3-3v-35c0-1.662 1.338-3 3-3z" color="#000000" opacity=".8"/><g><path d="m2 4.0002c0-1.662 1.338-3 3-3h35c.831 0 1.5828.33275 2.125.875l-1.125 1.125-37 7-1.125 1.125c-.54225-.54225-.875-1.294-.875-2.125z" color="#000000" fill="#444"/><path d="m2.875 11.125 1.125-1.125 37-7 1.125-1.125c.54225.54225.875 1.294.875 2.125v5c0 1.662-1.338 3-3 3h-35c-.831 0-1.5828-.33275-2.125-.875z" color="#000000" fill="#1a1a1a"/><path transform="matrix(0,1,1,0,0,0)" d="m4.0002 3h5c1.108 0 2 .892 2 2v35c0 1.108-.892 2-2 2h-5c-1.108 0-2-.892-2-2v-35c0-1.108.892-2 2-2z" color="#000000" fill="#333"/><path transform="matrix(0,1,1,0,0,0)" d="m5 3h1v39h-1z" color="#000000" fill="#131313"/></g><path transform="matrix(0,1,1,0,0,0)" d="m6 3h1v39h-1z" color="#000000" fill="#ea0000"/><path transform="matrix(0,1,1,0,0,0)" d="m7 3h1v39h-1z" color="#000000" fill="#515151"/></svg>
