<?xml version="1.0" encoding="UTF-8"?>
<!-- Created with Inkscape (http://www.inkscape.org/) -->
<svg id="svg25871" width="18" height="46" version="1.1" xmlns="http://www.w3.org/2000/svg" xmlns:cc="http://creativecommons.org/ns#" xmlns:dc="http://purl.org/dc/elements/1.1/" xmlns:rdf="http://www.w3.org/1999/02/22-rdf-syntax-ns#">
 <metadata id="metadata25876">
  <rdf:RDF>
   <cc:Work rdf:about="">
    <dc:format>image/svg+xml</dc:format>
    <dc:type rdf:resource="http://purl.org/dc/dcmitype/StillImage"/>
    <dc:title/>
   </cc:Work>
  </rdf:RDF>
 </metadata>
 <path id="rect25892-3-2" d="m15.562 3.4375c0.27725 0.45484 0.4375 0.98869 0.4375 1.5625v37c0 1.662-1.338 3-3 3h-7c-0.57381 0-1.1077-0.16025-1.5625-0.4375 0.52578 0.86256 1.4743 1.4375 2.5625 1.4375h7c1.662 0 3-1.338 3-3v-37c0-1.0882-0.57494-2.0367-1.4375-2.5625z" color="#000000" opacity=".15"/>
 <path id="rect25892-3-2-1" d="m14.562 2.4375c0.27725 0.45484 0.4375 0.98869 0.4375 1.5625v37c0 1.662-1.338 3-3 3h-7c-0.57381 0-1.1077-0.16025-1.5625-0.4375 0.52578 0.86256 1.4743 1.4375 2.5625 1.4375h7c1.662 0 3-1.338 3-3v-37c0-1.0882-0.57494-2.0367-1.4375-2.5625z" color="#000000" opacity=".5"/>
 <rect id="rect25892-3" x="2" y="1" width="13" height="43" rx="3" ry="3" color="#000000" opacity=".8"/>
 <path id="rect25892" d="m4 0c-1.662 0-3 1.338-3 3v37c0 0.831 0.33275 1.5828 0.875 2.125l1.125-1.125 9-39 1.125-1.125c-0.54225-0.54225-1.294-0.875-2.125-0.875h-7z" color="#000000" fill="#787878"/>
 <path id="rect25892-8" d="m13.125 0.875-1.125 1.125-9 39-1.125 1.125c0.54225 0.54225 1.294 0.875 2.125 0.875h7c1.662 0 3-1.338 3-3v-37c0-0.831-0.33275-1.5828-0.875-2.125z" color="#000000" fill="#4d4d4d"/>
 <rect id="rect25892-1" x="2" y="1" width="11" height="41" rx="2" ry="2" color="#000000" fill="#232323"/>
 <rect id="rect26439" x="6" y="1" width="1" height="41" color="#000000" fill="#080808"/>
 <rect id="rect26439-0" x="7" y="1" width="1" height="41" color="#000000" fill="#ea0000"/>
 <rect id="rect26439-0-5" x="8" y="1" width="1" height="41" color="#000000" fill="#515151"/>
</svg>
