<?xml version="1.0" encoding="UTF-8"?>
<!-- Created with Inkscape (http://www.inkscape.org/) -->
<svg id="svg2" width="40" height="34" version="1.1" xmlns="http://www.w3.org/2000/svg" xmlns:cc="http://creativecommons.org/ns#" xmlns:dc="http://purl.org/dc/elements/1.1/" xmlns:rdf="http://www.w3.org/1999/02/22-rdf-syntax-ns#" xmlns:xlink="http://www.w3.org/1999/xlink">
 <defs id="defs4">
  <linearGradient id="linearGradient3166" x1="202.39" x2="202.49" y1="623.48" y2="634.37" gradientTransform="matrix(1.2573 0 0 .86853 -234.59 -533.44)" gradientUnits="userSpaceOnUse">
   <stop id="stop4939-5" stop-color="#e90808" offset="0"/>
   <stop id="stop4941-3" stop-color="#b60000" offset="1"/>
  </linearGradient>
  <filter id="filter5815-2" color-interpolation-filters="sRGB">
   <feGaussianBlur id="feGaussianBlur5817-7" stdDeviation="0.42678198"/>
  </filter>
  <radialGradient id="radialGradient3198" cx="366.94" cy="355.36" r="21.466" gradientTransform="matrix(1 0 0 .98824 -5.7382e-7 4.1807)" gradientUnits="userSpaceOnUse">
   <stop id="stop3941-2" stop-color="#eece33" stop-opacity=".95055" offset="0"/>
   <stop id="stop5813-9" stop-color="#ff734e" stop-opacity=".81868" offset=".61062"/>
   <stop id="stop3943-1" stop-color="#ff2d2d" stop-opacity="0" offset="1"/>
  </radialGradient>
 </defs>
 <metadata id="metadata7">
  <rdf:RDF>
   <cc:Work rdf:about="">
    <dc:format>image/svg+xml</dc:format>
    <dc:type rdf:resource="http://purl.org/dc/dcmitype/StillImage"/>
    <dc:title/>
   </cc:Work>
  </rdf:RDF>
 </metadata>
 <g id="g3170">
  <path id="rect5578" d="m18 5.3358c0-0.9375 0.64828-1.7567 1.9809-1.7567 1.2699 0 1.9692 0.78305 1.9947 1.7355 0 2.6734 0.0244 10.523 0.0244 10.523-0.0742 0.8948-0.9885 1.7383-2.0444 1.7383-1.0559 0-1.937-1.018-1.937-1.759-9e-3 -4.0022-0.0184-6.7336-0.0185-10.481z" fill="url(#linearGradient3166)"/>
  <path id="path3936" transform="matrix(.088928 0 0 .088072 -12.631 -25.838)" d="m388.4 355.36a21.466 21.213 0 1 1-42.931 0 21.466 21.213 0 1 1 42.931 0z" fill="url(#radialGradient3198)" filter="url(#filter5815-2)"/>
 </g>
</svg>
