<svg width="40" height="34" version="1.1" xmlns="http://www.w3.org/2000/svg"><defs><linearGradient id="a" x1="256.74" x2="484.71" y1="472.03" y2="472.03" gradientTransform="matrix(-.03376 -.10128 .10128 -.03376 -15.208 68.318)" gradientUnits="userSpaceOnUse"><stop stop-color="#060606" offset="0"/><stop stop-color="#343434" offset="1"/></linearGradient></defs><g transform="matrix(.10676 0 0 .10676 -19.77 -33.22)" opacity=".94"><path transform="matrix(-.31622 -.94869 .94869 -.31622 49.242 1001)" d="m478.81 472.03a108.09 108.09 0 1 1-216.17 0 108.09 108.09 0 1 1 216.17 0z" stroke="#000" stroke-width="11.8"/></g><g transform="matrix(.10676 0 0 .10792 -20.673 -34.285)" stroke-width=".99459"><g transform="translate(7,7)" stroke-width=".99459"><path d="m516.41 506.24c4.3642-24.174 2.9091-49.741-5.4062-74.688-15.358-46.074-50.707-79.866-93.188-94.938 0 0-20.697-8.1402-50.198-8.2023-29.501-.0622-50.927 8.2023-50.927 8.2023-70.746 25.019-111.59 97.58-98.562 169.62" fill-opacity="0" stroke="#000" stroke-linecap="round" stroke-width="11.736"/></g></g><g transform="matrix(.10676 0 0 .10676 -19.213 -32.584)"><path d="m516.41 506.24c4.3642-24.174 2.9091-49.741-5.4062-74.688-15.358-46.074-50.707-79.866-93.188-94.938 0 0-20.697-8.1402-50.198-8.2023-29.501-.0622-50.927 8.2023-50.927 8.2023-70.746 25.019-111.59 97.58-98.562 169.62" fill="none" stroke="#585858" stroke-linecap="round" stroke-width="11.8"/></g><path d="m16.348 7.6562a11.54 11.54 0 1 1 7.2978 21.894 11.54 11.54 0 1 1-7.2978-21.894z" fill="url(#a)" stroke="#585858" stroke-width="1.2598"/><path d="m1 28v4h6v-4zm1 1h4v2h-4z" color="#000000" fill="#101010" style="text-indent:0;text-transform:none"/><rect x="2.5" y="29.5" width="5.0001" height="3" fill="none" stroke="#767676" stroke-dashoffset="319.5" stroke-linecap="round"/><path d="m31 28v4h6v-4z" color="#000000" fill="#101010" style="text-indent:0;text-transform:none"/><rect x="32.5" y="29.5" width="5" height="3" fill="#767676" stroke="#767676" stroke-dashoffset="319.5" stroke-linecap="round"/></svg>
