<?xml version="1.0" encoding="UTF-8"?>
<!-- Created with Inkscape (http://www.inkscape.org/) -->
<svg id="svg9398" width="26" height="65" version="1.1" xmlns="http://www.w3.org/2000/svg" xmlns:cc="http://creativecommons.org/ns#" xmlns:dc="http://purl.org/dc/elements/1.1/" xmlns:rdf="http://www.w3.org/1999/02/22-rdf-syntax-ns#" xmlns:xlink="http://www.w3.org/1999/xlink">
 <defs id="defs9400">
  <linearGradient id="linearGradient9783-2">
   <stop id="stop9785-4" stop-color="#464646" offset="0"/>
   <stop id="stop9787-9" stop-color="#828282" offset=".5"/>
   <stop id="stop9789-9" stop-color="#464646" offset="1"/>
  </linearGradient>
  <linearGradient id="linearGradient11945" x1="3" x2="3" y1="988.36" y2="1049.4" gradientUnits="userSpaceOnUse" xlink:href="#linearGradient9783-2"/>
 </defs>
 <metadata id="metadata9403">
  <rdf:RDF>
   <cc:Work rdf:about="">
    <dc:format>image/svg+xml</dc:format>
    <dc:type rdf:resource="http://purl.org/dc/dcmitype/StillImage"/>
    <dc:title/>
   </cc:Work>
  </rdf:RDF>
 </metadata>
 <g id="g11546" transform="translate(0 -987.36)" fill="url(#linearGradient11945)">
  <rect id="use3364" x="3" y="988.36" width="20" height="1" color="#000000"/>
  <rect id="use3366" x="10" y="990.36" width="6" height="1" color="#000000"/>
  <rect id="use3368" x="10" y="992.36" width="6" height="1" color="#000000"/>
  <rect id="use3370" x="10" y="994.36" width="6" height="1" color="#000000"/>
  <rect id="use3374" x="10" y="998.36" width="6" height="1" color="#000000"/>
  <rect id="use3376" x="10" y="1000.4" width="6" height="1" color="#000000"/>
  <rect id="use3378" x="10" y="1002.4" width="6" height="1" color="#000000"/>
  <rect id="use3380" x="10" y="1004.4" width="6" height="1" color="#000000"/>
  <rect id="use3382" x="10" y="1006.4" width="6" height="1" color="#000000"/>
  <rect id="use3384" x="10" y="1008.4" width="6" height="1" color="#000000"/>
  <rect id="use3386" x="10" y="1010.4" width="6" height="1" color="#000000"/>
  <rect id="use3388" x="10" y="1012.4" width="6" height="1" color="#000000"/>
  <rect id="use3390" x="10" y="1014.4" width="6" height="1" color="#000000"/>
  <rect id="use3392" x="10" y="1016.4" width="6" height="1" color="#000000"/>
  <rect id="use3394" x="6" y="1018.4" width="14" height="1" color="#000000"/>
  <rect id="use3396" x="10" y="1020.4" width="6" height="1" color="#000000"/>
  <rect id="use3400" x="10" y="1024.4" width="6" height="1" color="#000000"/>
  <rect id="use3402" x="10" y="1026.4" width="6" height="1" color="#000000"/>
  <rect id="use3404" x="10" y="1028.4" width="6" height="1" color="#000000"/>
  <rect id="use3406" x="10" y="1030.4" width="6" height="1" color="#000000"/>
  <rect id="use3408" x="10" y="1032.4" width="6" height="1" color="#000000"/>
  <rect id="use3410" x="10" y="1034.4" width="6" height="1" color="#000000"/>
  <rect id="use3412" x="10" y="1036.4" width="6" height="1" color="#000000"/>
  <rect id="use3414" x="10" y="1038.4" width="6" height="1" color="#000000"/>
  <rect id="use3416" x="10" y="1040.4" width="6" height="1" color="#000000"/>
  <rect id="use3418" x="10" y="1042.4" width="6" height="1" color="#000000"/>
  <rect id="use3420" x="10" y="1044.4" width="6" height="1" color="#000000"/>
  <rect id="rect4750" x="10" y="996.36" width="6" height="1" color="#000000"/>
  <rect id="rect4752" x="10" y="1022.4" width="6" height="1" color="#000000"/>
  <rect id="rect4754" x="10" y="1046.4" width="6" height="1" color="#000000"/>
  <rect id="rect4754-3" x="3" y="1048.4" width="20" height="1" color="#000000"/>
 </g>
 <rect id="rect5098" x="12" y="3" width="2" height="57" color="#000000"/>
</svg>
