<?xml version="1.0" encoding="UTF-8"?>
<!-- Created with Inkscape (http://www.inkscape.org/) -->
<svg id="svg12483" width="156" height="46" version="1.1" xmlns="http://www.w3.org/2000/svg" xmlns:cc="http://creativecommons.org/ns#" xmlns:dc="http://purl.org/dc/elements/1.1/" xmlns:rdf="http://www.w3.org/1999/02/22-rdf-syntax-ns#" xmlns:xlink="http://www.w3.org/1999/xlink">
 <defs id="defs12485">
  <linearGradient id="linearGradient20146" x1="2" x2="76" y1="1028.4" y2="1028.4" gradientUnits="userSpaceOnUse">
   <stop id="stop14483" stop-color="#464646" offset="0"/>
   <stop id="stop14485" stop-color="#828282" offset="1"/>
  </linearGradient>
  <linearGradient id="linearGradient20194" x1="76" x2="151" y1="1028.4" y2="1028.4" gradientUnits="userSpaceOnUse">
   <stop id="stop14476" stop-color="#828282" offset="0"/>
   <stop id="stop14478" stop-color="#464646" offset="1"/>
  </linearGradient>
 </defs>
 <metadata id="metadata12488">
  <rdf:RDF>
   <cc:Work rdf:about="">
    <dc:format>image/svg+xml</dc:format>
    <dc:type rdf:resource="http://purl.org/dc/dcmitype/StillImage"/>
    <dc:title/>
   </cc:Work>
  </rdf:RDF>
 </metadata>
 <g id="layer1" transform="translate(0 -1006.4)">
  <g id="g20101" fill="url(#linearGradient20146)">
   <path id="use3352" d="m75 1023.4v10h-1v-10z" color="#000000"/>
   <path id="use3354" d="m73 1023.4v10h-1v-10z" color="#000000"/>
   <path id="use3356" d="m71 1023.4v10h-1v-10z" color="#000000"/>
   <path id="use3358" d="m69 1023.4v10h-1v-10z" color="#000000"/>
   <path id="use3360" d="m67 1023.4v10h-1v-10z" color="#000000"/>
   <path id="use3362" d="m65 1023.4v10h-1v-10z" color="#000000"/>
   <path id="use3364" d="m63 1023.4v10h-1v-10z" color="#000000"/>
   <path id="use3366" d="m61 1023.4v10h-1v-10z" color="#000000"/>
   <path id="use3368" d="m59 1023.4v10h-1v-10z" color="#000000"/>
   <path id="use3370" d="m57 1023.4v10h-1v-10z" color="#000000"/>
   <path id="use3374" d="m53 1023.4v9.9999h-1v-9.9999z" color="#000000"/>
   <path id="use3376" d="m51 1023.4v10h-1v-10z" color="#000000"/>
   <path id="use3378" d="m49 1023.4v10h-1v-10z" color="#000000"/>
   <path id="use3380" d="m47 1023.4v10h-1v-10z" color="#000000"/>
   <path id="use3382" d="m45 1023.4v10h-1v-10z" color="#000000"/>
   <path id="use3384" d="m43 1023.4v10h-1v-10z" color="#000000"/>
   <path id="use3386" d="m41 1020.4v16h-1v-16z" color="#000000"/>
   <path id="use3388" d="m39 1023.4v10h-1v-10z" color="#000000"/>
   <path id="use3390" d="m37 1023.4v10h-1v-10z" color="#000000"/>
   <path id="use3392" d="m35 1023.4v10h-1v-10z" color="#000000"/>
   <path id="use3394" d="m33 1023.4v10h-1v-10z" color="#000000"/>
   <path id="use3396" d="m31 1023.4v10h-1v-10z" color="#000000"/>
   <path id="use3400" d="m27 1023.4v9.9999h-1v-9.9999z" color="#000000"/>
   <path id="use3402" d="m25 1023.4v10h-1v-10z" color="#000000"/>
   <path id="use3404" d="m23 1023.4v10h-1v-10z" color="#000000"/>
   <path id="use3406" d="m21 1023.4v10h-1v-10z" color="#000000"/>
   <path id="use3408" d="m19 1023.4v10h-1v-10z" color="#000000"/>
   <path id="use3410" d="m17 1023.4v10h-1v-10z" color="#000000"/>
   <path id="use3412" d="m15 1023.4v10h-1v-10z" color="#000000"/>
   <path id="use3414" d="m13 1023.4v10h-1v-10z" color="#000000"/>
   <path id="use3416" d="m11 1023.4v10h-1v-10z" color="#000000"/>
   <path id="use3418" d="m9 1023.4v10h-1v-10z" color="#000000"/>
   <path id="use3420" d="m7 1023.4v10h-1v-10z" color="#000000"/>
   <path id="rect4750" d="m55 1023.4v10h-1v-10z" color="#000000"/>
   <path id="rect4752" d="m29 1023.4v10h-1v-10z" color="#000000"/>
   <path id="rect4754" d="m5 1023.4v10h-1v-10z" color="#000000"/>
   <path id="rect4754-3" d="m3 1017.4v22h-1v-22z" color="#000000"/>
  </g>
  <g id="g20148" fill="url(#linearGradient20194)">
   <path id="use3326" d="m101 1023.4v10h-1v-10z" color="#000000"/>
   <path id="use3328" d="m99 1023.4v10h-1v-10z" color="#000000"/>
   <path id="use3330" d="m97 1023.4v10h-1v-10z" color="#000000"/>
   <path id="use3332" d="m95 1023.4v10h-1v-10z" color="#000000"/>
   <path id="use3334" d="m93 1023.4v10h-1v-10z" color="#000000"/>
   <path id="use3336" d="m91 1023.4v10h-1v-10z" color="#000000"/>
   <path id="use3338" d="m89 1023.4v10h-1v-10z" color="#000000"/>
   <path id="use3340" d="m87 1023.4v10h-1v-10z" color="#000000"/>
   <path id="use3342" d="m85 1023.4v10h-1v-10z" color="#000000"/>
   <path id="use3344" d="m83 1023.4v10h-1v-10z" color="#000000"/>
   <path id="use3346" d="m81 1023.4v10h-1v-10z" color="#000000"/>
   <path id="use3350" d="m77 1022.4v12h-1v-12z" color="#000000"/>
   <path id="rect4746" d="m103 1023.4v10h-1v-10z" color="#000000"/>
   <path id="rect4748" d="m79 1023.4v9.9999h-1v-9.9999z" color="#000000"/>
   <path id="rect4746-0" d="m151 1017.4v22h-1v-22z" color="#000000"/>
   <path id="use3362-0" d="m149 1023.4v10h-1v-10z" color="#000000"/>
   <path id="use3364-6" d="m147 1023.4v10h-1v-10z" color="#000000"/>
   <path id="use3366-3" d="m145 1023.4v10h-1v-10z" color="#000000"/>
   <path id="use3368-9" d="m143 1023.4v10h-1v-10z" color="#000000"/>
   <path id="use3370-0" d="m141 1023.4v10h-1v-10z" color="#000000"/>
   <path id="use3374-8" d="m137 1023.4v9.9999h-1v-9.9999z" color="#000000"/>
   <path id="use3376-3" d="m135 1023.4v10h-1v-10z" color="#000000"/>
   <path id="use3378-8" d="m133 1023.4v10h-1v-10z" color="#000000"/>
   <path id="use3380-7" d="m131 1023.4v10h-1v-10z" color="#000000"/>
   <path id="use3382-3" d="m129 1023.4v10h-1v-10z" color="#000000"/>
   <path id="use3384-1" d="m127 1023.4v10h-1v-10z" color="#000000"/>
   <path id="use3386-0" d="m125 1023.4v10h-1v-10z" color="#000000"/>
   <path id="use3388-0" d="m123 1023.4v10h-1v-10z" color="#000000"/>
   <path id="use3390-5" d="m121 1023.4v10h-1v-10z" color="#000000"/>
   <path id="use3392-0" d="m119 1023.4v10h-1v-10z" color="#000000"/>
   <path id="use3394-3" d="m117 1023.4v10h-1v-10z" color="#000000"/>
   <path id="use3396-1" d="m115 1023.4v10h-1v-10z" color="#000000"/>
   <path id="use3402-8" d="m109 1023.4v10h-1v-10z" color="#000000"/>
   <path id="use3404-0" d="m107 1023.4v10h-1v-10z" color="#000000"/>
   <path id="use3406-1" d="m105 1023.4v10h-1v-10z" color="#000000"/>
   <path id="rect4750-9" d="m139 1023.4v10h-1v-10z" color="#000000"/>
   <path id="rect4752-1" d="m113 1020.4v16h-1v-16z" color="#000000"/>
   <path id="rect4752-1-8" d="m111 1023.4v10h-1v-10z" color="#000000"/>
  </g>
  <path id="rect5098" transform="rotate(90)" d="m1026.4-149h4v145h-4z" color="#000000"/>
 </g>
</svg>
