<svg width="158" height="46" version="1.1" xmlns="http://www.w3.org/2000/svg" xmlns:xlink="http://www.w3.org/1999/xlink"><defs><linearGradient id="d" x1="2" x2="76" y1="1028.4" y2="1028.4" gradientUnits="userSpaceOnUse"><stop stop-color="#464646" offset="0"/><stop stop-color="#828282" offset="1"/></linearGradient><linearGradient id="c" x1="76" x2="151" y1="1028.4" y2="1028.4" gradientUnits="userSpaceOnUse"><stop stop-color="#828282" offset="0"/><stop stop-color="#464646" offset="1"/></linearGradient><linearGradient id="b" x1="2" x2="76" y1="1028.4" y2="1028.4" gradientUnits="userSpaceOnUse" xlink:href="#d"/><linearGradient id="a" x1="76" x2="151" y1="1028.4" y2="1028.4" gradientUnits="userSpaceOnUse" xlink:href="#c"/></defs><g transform="translate(2,-1006.4)"><g fill="url(#b)"><path d="m75 1023.4v10h-1v-10z" color="#000000"/><path d="m73 1023.4v10h-1v-10z" color="#000000"/><path d="m71 1023.4v10h-1v-10z" color="#000000"/><path d="m69 1023.4v10h-1v-10z" color="#000000"/><path d="m67 1023.4v10h-1v-10z" color="#000000"/><path d="m65 1023.4v10h-1v-10z" color="#000000"/><path d="m63 1023.4v10h-1v-10z" color="#000000"/><path d="m61 1023.4v10h-1v-10z" color="#000000"/><path d="m59 1023.4v10h-1v-10z" color="#000000"/><path d="m57 1023.4v10h-1v-10z" color="#000000"/><path d="m53 1023.4v9.9999h-1v-9.9999z" color="#000000"/><path d="m51 1023.4v10h-1v-10z" color="#000000"/><path d="m49 1023.4v10h-1v-10z" color="#000000"/><path d="m47 1023.4v10h-1v-10z" color="#000000"/><path d="m45 1023.4v10h-1v-10z" color="#000000"/><path d="m43 1023.4v10h-1v-10z" color="#000000"/><path d="m41 1020.4v16h-1v-16z" color="#000000"/><path d="m39 1023.4v10h-1v-10z" color="#000000"/><path d="m37 1023.4v10h-1v-10z" color="#000000"/><path d="m35 1023.4v10h-1v-10z" color="#000000"/><path d="m33 1023.4v10h-1v-10z" color="#000000"/><path d="m31 1023.4v10h-1v-10z" color="#000000"/><path d="m27 1023.4v9.9999h-1v-9.9999z" color="#000000"/><path d="m25 1023.4v10h-1v-10z" color="#000000"/><path d="m23 1023.4v10h-1v-10z" color="#000000"/><path d="m21 1023.4v10h-1v-10z" color="#000000"/><path d="m19 1023.4v10h-1v-10z" color="#000000"/><path d="m17 1023.4v10h-1v-10z" color="#000000"/><path d="m15 1023.4v10h-1v-10z" color="#000000"/><path d="m13 1023.4v10h-1v-10z" color="#000000"/><path d="m11 1023.4v10h-1v-10z" color="#000000"/><path d="m9 1023.4v10h-1v-10z" color="#000000"/><path d="m7 1023.4v10h-1v-10z" color="#000000"/><path d="m55 1023.4v10h-1v-10z" color="#000000"/><path d="m29 1023.4v10h-1v-10z" color="#000000"/><path d="m5 1023.4v10h-1v-10z" color="#000000"/><path d="m3 1017.4v22h-1v-22z" color="#000000"/></g><g fill="url(#a)"><path d="m101 1023.4v10h-1v-10z" color="#000000"/><path d="m99 1023.4v10h-1v-10z" color="#000000"/><path d="m97 1023.4v10h-1v-10z" color="#000000"/><path d="m95 1023.4v10h-1v-10z" color="#000000"/><path d="m93 1023.4v10h-1v-10z" color="#000000"/><path d="m91 1023.4v10h-1v-10z" color="#000000"/><path d="m89 1023.4v10h-1v-10z" color="#000000"/><path d="m87 1023.4v10h-1v-10z" color="#000000"/><path d="m85 1023.4v10h-1v-10z" color="#000000"/><path d="m83 1023.4v10h-1v-10z" color="#000000"/><path d="m81 1023.4v10h-1v-10z" color="#000000"/><path d="m77 1022.4v12h-1v-12z" color="#000000"/><path d="m103 1023.4v10h-1v-10z" color="#000000"/><path d="m79 1023.4v9.9999h-1v-9.9999z" color="#000000"/><path d="m151 1017.4v22h-1v-22z" color="#000000"/><path d="m149 1023.4v10h-1v-10z" color="#000000"/><path d="m147 1023.4v10h-1v-10z" color="#000000"/><path d="m145 1023.4v10h-1v-10z" color="#000000"/><path d="m143 1023.4v10h-1v-10z" color="#000000"/><path d="m141 1023.4v10h-1v-10z" color="#000000"/><path d="m137 1023.4v9.9999h-1v-9.9999z" color="#000000"/><path d="m135 1023.4v10h-1v-10z" color="#000000"/><path d="m133 1023.4v10h-1v-10z" color="#000000"/><path d="m131 1023.4v10h-1v-10z" color="#000000"/><path d="m129 1023.4v10h-1v-10z" color="#000000"/><path d="m127 1023.4v10h-1v-10z" color="#000000"/><path d="m125 1023.4v10h-1v-10z" color="#000000"/><path d="m123 1023.4v10h-1v-10z" color="#000000"/><path d="m121 1023.4v10h-1v-10z" color="#000000"/><path d="m119 1023.4v10h-1v-10z" color="#000000"/><path d="m117 1023.4v10h-1v-10z" color="#000000"/><path d="m115 1023.4v10h-1v-10z" color="#000000"/><path d="m109 1023.4v10h-1v-10z" color="#000000"/><path d="m107 1023.4v10h-1v-10z" color="#000000"/><path d="m105 1023.4v10h-1v-10z" color="#000000"/><path d="m139 1023.4v10h-1v-10z" color="#000000"/><path d="m113 1020.4v16h-1v-16z" color="#000000"/><path d="m111 1023.4v10h-1v-10z" color="#000000"/></g><path transform="rotate(90)" d="m1026.4-149h4v145h-4z" color="#000000"/></g></svg>
