<?xml version="1.0" encoding="UTF-8" standalone="no"?>
<svg
   xmlns:dc="http://purl.org/dc/elements/1.1/"
   xmlns:cc="http://creativecommons.org/ns#"
   xmlns:rdf="http://www.w3.org/1999/02/22-rdf-syntax-ns#"
   xmlns:svg="http://www.w3.org/2000/svg"
   xmlns="http://www.w3.org/2000/svg"
   xmlns:xlink="http://www.w3.org/1999/xlink"
   xmlns:sodipodi="http://sodipodi.sourceforge.net/DTD/sodipodi-0.dtd"
   xmlns:inkscape="http://www.inkscape.org/namespaces/inkscape"
   width="158"
   height="46"
   version="1.1"
   id="svg174"
   sodipodi:docname="slider_crossfader.svg"
   inkscape:version="0.92.4 (unknown)">
  <metadata
     id="metadata178">
    <rdf:RDF>
      <cc:Work
         rdf:about="">
        <dc:format>image/svg+xml</dc:format>
        <dc:type
           rdf:resource="http://purl.org/dc/dcmitype/StillImage" />
      </cc:Work>
    </rdf:RDF>
  </metadata>
  <sodipodi:namedview
     pagecolor="#ffffff"
     bordercolor="#666666"
     borderopacity="1"
     objecttolerance="10"
     gridtolerance="10"
     guidetolerance="10"
     inkscape:pageopacity="0"
     inkscape:pageshadow="2"
     inkscape:window-width="1366"
     inkscape:window-height="740"
     id="namedview176"
     showgrid="false"
     inkscape:zoom="39.096739"
     inkscape:cx="79.57723"
     inkscape:cy="20.75417"
     inkscape:window-x="0"
     inkscape:window-y="0"
     inkscape:window-maximized="1"
     inkscape:current-layer="g168" />
  <defs
     id="defs14">
    <linearGradient
       id="d"
       x1="2"
       x2="76"
       y1="1028.4"
       y2="1028.4"
       gradientUnits="userSpaceOnUse">
      <stop
         stop-color="#464646"
         offset="0"
         id="stop2" />
      <stop
         stop-color="#828282"
         offset="1"
         id="stop4" />
    </linearGradient>
    <linearGradient
       id="c"
       x1="76"
       x2="151"
       y1="1028.4"
       y2="1028.4"
       gradientUnits="userSpaceOnUse">
      <stop
         stop-color="#828282"
         offset="0"
         id="stop7" />
      <stop
         stop-color="#464646"
         offset="1"
         id="stop9" />
    </linearGradient>
    <linearGradient
       id="b"
       x1="2"
       x2="76"
       y1="1028.4"
       y2="1028.4"
       gradientUnits="userSpaceOnUse"
       xlink:href="#d" />
    <linearGradient
       id="a"
       x1="76"
       x2="151"
       y1="1028.4"
       y2="1028.4"
       gradientUnits="userSpaceOnUse"
       xlink:href="#c" />
  </defs>
  <g
     transform="translate(2,-1006.4)"
     id="g172">
    <g
       fill="url(#b)"
       id="g90">
      <path
         d="m75 1023.4v10h-1v-10z"
         color="#000000"
         id="path16" />
      <path
         d="m73 1023.4v10h-1v-10z"
         color="#000000"
         id="path18" />
      <path
         d="m71 1023.4v10h-1v-10z"
         color="#000000"
         id="path20" />
      <path
         d="m69 1023.4v10h-1v-10z"
         color="#000000"
         id="path22" />
      <path
         d="m67 1023.4v10h-1v-10z"
         color="#000000"
         id="path24" />
      <path
         d="m65 1023.4v10h-1v-10z"
         color="#000000"
         id="path26" />
      <path
         d="m63 1023.4v10h-1v-10z"
         color="#000000"
         id="path28" />
      <path
         d="m61 1023.4v10h-1v-10z"
         color="#000000"
         id="path30" />
      <path
         d="m59 1023.4v10h-1v-10z"
         color="#000000"
         id="path32" />
      <path
         d="m57 1023.4v10h-1v-10z"
         color="#000000"
         id="path34" />
      <path
         d="m53 1023.4v9.9999h-1v-9.9999z"
         color="#000000"
         id="path36" />
      <path
         d="m51 1023.4v10h-1v-10z"
         color="#000000"
         id="path38" />
      <path
         d="m49 1023.4v10h-1v-10z"
         color="#000000"
         id="path40" />
      <path
         d="m47 1023.4v10h-1v-10z"
         color="#000000"
         id="path42" />
      <path
         d="m45 1023.4v10h-1v-10z"
         color="#000000"
         id="path44" />
      <path
         d="m43 1023.4v10h-1v-10z"
         color="#000000"
         id="path46" />
      <path
         d="m41 1020.4v16h-1v-16z"
         color="#000000"
         id="path48" />
      <path
         d="m39 1023.4v10h-1v-10z"
         color="#000000"
         id="path50" />
      <path
         d="m37 1023.4v10h-1v-10z"
         color="#000000"
         id="path52" />
      <path
         d="m35 1023.4v10h-1v-10z"
         color="#000000"
         id="path54" />
      <path
         d="m33 1023.4v10h-1v-10z"
         color="#000000"
         id="path56" />
      <path
         d="m31 1023.4v10h-1v-10z"
         color="#000000"
         id="path58" />
      <path
         d="m27 1023.4v9.9999h-1v-9.9999z"
         color="#000000"
         id="path60" />
      <path
         d="m25 1023.4v10h-1v-10z"
         color="#000000"
         id="path62" />
      <path
         d="m23 1023.4v10h-1v-10z"
         color="#000000"
         id="path64" />
      <path
         d="m21 1023.4v10h-1v-10z"
         color="#000000"
         id="path66" />
      <path
         d="m19 1023.4v10h-1v-10z"
         color="#000000"
         id="path68" />
      <path
         d="m17 1023.4v10h-1v-10z"
         color="#000000"
         id="path70" />
      <path
         d="m15 1023.4v10h-1v-10z"
         color="#000000"
         id="path72" />
      <path
         d="m13 1023.4v10h-1v-10z"
         color="#000000"
         id="path74" />
      <path
         d="m11 1023.4v10h-1v-10z"
         color="#000000"
         id="path76" />
      <path
         d="m9 1023.4v10h-1v-10z"
         color="#000000"
         id="path78" />
      <path
         d="m7 1023.4v10h-1v-10z"
         color="#000000"
         id="path80" />
      <path
         d="m55 1023.4v10h-1v-10z"
         color="#000000"
         id="path82" />
      <path
         d="m29 1023.4v10h-1v-10z"
         color="#000000"
         id="path84" />
      <path
         d="m5 1023.4v10h-1v-10z"
         color="#000000"
         id="path86" />
      <path
         d="m3 1017.4v22h-1v-22z"
         color="#000000"
         id="path88" />
    </g>
    <g
       fill="url(#a)"
       id="g168">
      <path
         d="m101 1023.4v10h-1v-10z"
         color="#000000"
         id="path92" />
      <path
         d="m99 1023.4v10h-1v-10z"
         color="#000000"
         id="path94" />
      <path
         d="m97 1023.4v10h-1v-10z"
         color="#000000"
         id="path96" />
      <path
         d="m95 1023.4v10h-1v-10z"
         color="#000000"
         id="path98" />
      <path
         d="m93 1023.4v10h-1v-10z"
         color="#000000"
         id="path100" />
      <path
         d="m91 1023.4v10h-1v-10z"
         color="#000000"
         id="path102" />
      <path
         d="m89 1023.4v10h-1v-10z"
         color="#000000"
         id="path104" />
      <path
         d="m87 1023.4v10h-1v-10z"
         color="#000000"
         id="path106" />
      <path
         d="m85 1023.4v10h-1v-10z"
         color="#000000"
         id="path108" />
      <path
         d="m83 1023.4v10h-1v-10z"
         color="#000000"
         id="path110" />
      <path
         d="m81 1023.4v10h-1v-10z"
         color="#000000"
         id="path112" />
      <path
         d="m77 1022.4v12h-1v-12z"
         color="#000000"
         id="path114"
         style="fill:#9a9a9a;fill-opacity:1" />
      <path
         d="m103 1023.4v10h-1v-10z"
         color="#000000"
         id="path116" />
      <path
         d="m79 1023.4v9.9999h-1v-9.9999z"
         color="#000000"
         id="path118" />
      <path
         d="m151 1017.4v22h-1v-22z"
         color="#000000"
         id="path120" />
      <path
         d="m149 1023.4v10h-1v-10z"
         color="#000000"
         id="path122" />
      <path
         d="m147 1023.4v10h-1v-10z"
         color="#000000"
         id="path124" />
      <path
         d="m145 1023.4v10h-1v-10z"
         color="#000000"
         id="path126" />
      <path
         d="m143 1023.4v10h-1v-10z"
         color="#000000"
         id="path128" />
      <path
         d="m141 1023.4v10h-1v-10z"
         color="#000000"
         id="path130" />
      <path
         d="m137 1023.4v9.9999h-1v-9.9999z"
         color="#000000"
         id="path132" />
      <path
         d="m135 1023.4v10h-1v-10z"
         color="#000000"
         id="path134" />
      <path
         d="m133 1023.4v10h-1v-10z"
         color="#000000"
         id="path136" />
      <path
         d="m131 1023.4v10h-1v-10z"
         color="#000000"
         id="path138" />
      <path
         d="m129 1023.4v10h-1v-10z"
         color="#000000"
         id="path140" />
      <path
         d="m127 1023.4v10h-1v-10z"
         color="#000000"
         id="path142" />
      <path
         d="m125 1023.4v10h-1v-10z"
         color="#000000"
         id="path144" />
      <path
         d="m123 1023.4v10h-1v-10z"
         color="#000000"
         id="path146" />
      <path
         d="m121 1023.4v10h-1v-10z"
         color="#000000"
         id="path148" />
      <path
         d="m119 1023.4v10h-1v-10z"
         color="#000000"
         id="path150" />
      <path
         d="m117 1023.4v10h-1v-10z"
         color="#000000"
         id="path152" />
      <path
         d="m115 1023.4v10h-1v-10z"
         color="#000000"
         id="path154" />
      <path
         d="m109 1023.4v10h-1v-10z"
         color="#000000"
         id="path156" />
      <path
         d="m107 1023.4v10h-1v-10z"
         color="#000000"
         id="path158" />
      <path
         d="m105 1023.4v10h-1v-10z"
         color="#000000"
         id="path160" />
      <path
         d="m139 1023.4v10h-1v-10z"
         color="#000000"
         id="path162" />
      <path
         d="m113 1020.4v16h-1v-16z"
         color="#000000"
         id="path164" />
      <path
         d="m111 1023.4v10h-1v-10z"
         color="#000000"
         id="path166" />
    </g>
    <path
       transform="rotate(90)"
       d="m1026.4-149h4v145h-4z"
       color="#000000"
       id="path170" />
  </g>
</svg>
