<?xml version="1.0" encoding="UTF-8"?>
<!-- Created with Inkscape (http://www.inkscape.org/) -->
<svg id="svg7057" width="37" height="105" version="1.1" xmlns="http://www.w3.org/2000/svg" xmlns:cc="http://creativecommons.org/ns#" xmlns:dc="http://purl.org/dc/elements/1.1/" xmlns:rdf="http://www.w3.org/1999/02/22-rdf-syntax-ns#" xmlns:xlink="http://www.w3.org/1999/xlink">
 <defs id="defs7059">
  <linearGradient id="linearGradient7405">
   <stop id="stop7407" stop-color="#444" offset="0"/>
   <stop id="stop7409" stop-color="#848484" offset=".5"/>
   <stop id="stop7411" stop-color="#444" offset="1"/>
  </linearGradient>
  <linearGradient id="linearGradient9339" x1="8" x2="8" y1="1051.4" y2="948.36" gradientUnits="userSpaceOnUse" xlink:href="#linearGradient7405"/>
 </defs>
 <metadata id="metadata7062">
  <rdf:RDF>
   <cc:Work rdf:about="">
    <dc:format>image/svg+xml</dc:format>
    <dc:type rdf:resource="http://purl.org/dc/dcmitype/StillImage"/>
    <dc:title/>
   </cc:Work>
  </rdf:RDF>
 </metadata>
 <g id="g9279" transform="translate(0 -947.36)" fill="url(#linearGradient9339)">
  <rect id="use3326" x="14" y="952.36" width="10" height="1" color="#000000"/>
  <rect id="use3328" x="14" y="954.36" width="10" height="1" color="#000000"/>
  <rect id="use3330" x="14" y="956.36" width="10" height="1" color="#000000"/>
  <rect id="use3332" x="14" y="958.36" width="10" height="1" color="#000000"/>
  <rect id="use3334" x="14" y="960.36" width="10" height="1" color="#000000"/>
  <rect id="use3336" x="14" y="962.36" width="10" height="1" color="#000000"/>
  <rect id="use3338" x="14" y="964.36" width="10" height="1" color="#000000"/>
  <rect id="use3340" x="14" y="966.36" width="10" height="1" color="#000000"/>
  <rect id="use3342" x="14" y="968.36" width="10" height="1" color="#000000"/>
  <rect id="use3344" x="14" y="970.36" width="10" height="1" color="#000000"/>
  <rect id="use3346" x="14" y="972.36" width="10" height="1" color="#000000"/>
  <rect id="use3350" x="14" y="976.36" width="10" height="1" color="#000000"/>
  <rect id="use3352" x="14" y="978.36" width="10" height="1" color="#000000"/>
  <rect id="use3354" x="14" y="980.36" width="10" height="1" color="#000000"/>
  <rect id="use3356" x="14" y="982.36" width="10" height="1" color="#000000"/>
  <rect id="use3358" x="14" y="984.36" width="10" height="1" color="#000000"/>
  <rect id="use3360" x="14" y="986.36" width="10" height="1" color="#000000"/>
  <rect id="use3362" x="14" y="988.36" width="10" height="1" color="#000000"/>
  <rect id="use3364" x="14" y="990.36" width="10" height="1" color="#000000"/>
  <rect id="use3366" x="14" y="992.36" width="10" height="1" color="#000000"/>
  <rect id="use3368" x="14" y="994.36" width="10" height="1" color="#000000"/>
  <rect id="use3370" x="14" y="996.36" width="10" height="1" color="#000000"/>
  <rect id="use3374" x="13" y="1000.4" width="12" height="1" color="#000000"/>
  <rect id="use3376" x="14" y="1002.4" width="10" height="1" color="#000000"/>
  <rect id="use3378" x="14" y="1004.4" width="10" height="1" color="#000000"/>
  <rect id="use3380" x="14" y="1006.4" width="10" height="1" color="#000000"/>
  <rect id="use3382" x="14" y="1008.4" width="10" height="1" color="#000000"/>
  <rect id="use3384" x="14" y="1010.4" width="10" height="1" color="#000000"/>
  <rect id="use3386" x="14" y="1012.4" width="10" height="1" color="#000000"/>
  <rect id="use3388" x="14" y="1014.4" width="10" height="1" color="#000000"/>
  <rect id="use3390" x="14" y="1016.4" width="10" height="1" color="#000000"/>
  <rect id="use3392" x="14" y="1018.4" width="10" height="1" color="#000000"/>
  <rect id="use3394" x="14" y="1020.4" width="10" height="1" color="#000000"/>
  <rect id="use3396" x="14" y="1022.4" width="10" height="1" color="#000000"/>
  <rect id="use3400" x="10" y="1026.4" width="18" height="1" color="#000000"/>
  <rect id="use3402" x="14" y="1028.4" width="10" height="1" color="#000000"/>
  <rect id="use3404" x="14" y="1030.4" width="10" height="1" color="#000000"/>
  <rect id="use3406" x="14" y="1032.4" width="10" height="1" color="#000000"/>
  <rect id="use3408" x="14" y="1034.4" width="10" height="1" color="#000000"/>
  <rect id="use3410" x="14" y="1036.4" width="10" height="1" color="#000000"/>
  <rect id="use3412" x="14" y="1038.4" width="10" height="1" color="#000000"/>
  <rect id="use3414" x="14" y="1040.4" width="10" height="1" color="#000000"/>
  <rect id="use3416" x="14" y="1042.4" width="10" height="1" color="#000000"/>
  <rect id="use3418" x="14" y="1044.4" width="10" height="1" color="#000000"/>
  <rect id="use3420" x="14" y="1046.4" width="10" height="1" color="#000000"/>
  <rect id="rect4746" x="14" y="950.36" width="10" height="1" color="#000000"/>
  <rect id="rect4748" x="10" y="974.36" width="18" height="1" color="#000000"/>
  <rect id="rect4750" x="14" y="998.36" width="10" height="1" color="#000000"/>
  <rect id="rect4752" x="14" y="1024.4" width="10" height="1" color="#000000"/>
  <rect id="rect4754" x="14" y="1048.4" width="10" height="1" color="#000000"/>
  <rect id="rect4754-3" x="8" y="1050.4" width="22" height="1" color="#000000"/>
  <rect id="rect4746-0" x="8" y="948.36" width="22" height="1" color="#000000"/>
 </g>
 <rect id="rect5098" x="17" y="3" width="4" height="99" color="#000000"/>
</svg>
