<svg width="26" height="22" version="1.1" xmlns="http://www.w3.org/2000/svg"><path d="m7.1613 17.933a7.9837 7.9962 0 1 1 11.677 0" color="#000000" fill="none" stroke="#b4b4b4" stroke-linecap="round" stroke-linejoin="round" stroke-width="1.7"/><g transform="matrix(.70835 0 0 .70866 19.138 31.705)" stroke-width="1.1542" aria-label="2"><path d="m-5.304-24.288q0 .576-.24 1.136-.24.544-.624 1.072-.368.512-.848 1.008-.48.48-.96.944-.256.24-.576.576t-.608.672-.496.656q-.208.304-.224.512h4.928v1.632h-7.056q-.016-.128-.016-.304 0-.192 0-.288 0-.768.24-1.408.256-.656.656-1.216t.896-1.056.992-.976q.384-.368.736-.72t.608-.688q.272-.352.432-.704.16-.368.16-.752 0-.832-.48-1.184t-1.168-.352q-.448 0-.832.128t-.688.304q-.288.176-.512.368-.224.176-.336.288l-.96-1.36q.672-.64 1.568-1.024.912-.4 1.952-.4 1.776 0 2.608.848.848.832.848 2.288z" fill="#b4b4b4" stroke="#b4b4b4" stroke-width=".42343"/></g></svg>
