<svg width="30" height="13" version="1.1" xmlns="http://www.w3.org/2000/svg">
	<path d="m3.2937501 11.18361c.5042904.413239 1.0752284.816575 2.2053571.816565l19.3987668-.000175c2.101752-1.9e-5 3.101864-1.652533 3.101752-2.99965l-.00025-3.00035c-4.8e-5-.57381-.198496-1.2921355-.580323-1.7776934.86256.52578 1.080732 1.6891434 1.080823 2.7773434l.00025 3.00035c.000138 1.662-1.338 2.999985-3 3l-19.643876.000175c-1.0882 1e-5-2.2715901-.138071-2.5624999-1.816565z" color="#000000" opacity=".5"/>
	<path d="m2.3555001 6.000525.00025 3.00035c.0001384 1.662 1.3379999 3.000015 2.9999999 3l19.643876-.000175c1.662-1.5e-5 3.000138-1.338 3-3l-.00025-3.00035c-.000138-1.662-1.338-3.0000148-3-3l-19.643876.000175c-1.662 1.48e-5-3.0001384 1.338-2.9999999 3z" color="#000000" opacity=".8"/>
	<path d="m1.9997501 4.999825c0-1.662 1.3379999-3.0000145 2.9999999-3l19.999876.000175c.831 7.3e-6 1.5828.33275 2.125.875l-1.125 1.125-21.9998759 4.99975-1.125 1.125c-.54225-.54225-.875-1.294-.875-2.125z" color="#000000" fill="#444"/>
	<path d="m2.8747501 10.12455 1.125-1.125 21.9998759-4.99975 1.125-1.125c.54225.54225.875 1.294.875 2.125v2.999925c0 1.662-1.338 3.000015-3 3l-19.999876-.000175c-.831-7e-6-1.5827999-.33275-2.1249999-.875z" color="#000000" fill="#1a1a1a"/>
	<path d="m2.9997501 4.999825v2.999925c0 1.108.8919999 1.9999903 1.9999999 2l19.999876.000175c1.108 9.7e-6 2-.892 2-2v-2.999925c0-1.108-.892-1.9999903-2-2l-19.999876-.000175c-1.108-9.7e-6-1.9999999.892-1.9999999 2z" color="#000000" fill="#333"/>
	<path d="m2.9997501 4.999375v1l23.9998759.000175v-1z" color="#000000" fill="#131313"/>
	<path d="m2.9997501 5.999375v1l23.9998759.000175v-1z" color="#000000" fill="#ea0000"/>
	<path d="m2.9997501 6.999375v1l23.9998759.000175v-1z" color="#000000" fill="#515151"/>
</svg>
