<svg width="19" height="46" version="1.1" xmlns="http://www.w3.org/2000/svg"><path d="m5.43775 42.562075c.45484.27725.98869.437484 1.5625.4375l5.5.00015c1.415374.00035 2.4995-.99965 2.830554-2 0 1.662-.668554 3.00005-2.330554 3l-5-.00015c-1.0882-3.3e-5-2.0367-.57494-2.5625-1.4375z" color="#000000" opacity=".15"/><path d="m4.93775 41.562075c.45484.27725.98869.437484 1.5625.4375l5.397748.00015c2.101752 5.8e-5 3.101752-1.652533 3.101752-2.99965v-34c0-.57381-.198496-1.292136-.580323-1.777694.86256.52578 1.080823 1.689144 1.080823 2.777344v34c0 1.662-1.338 3.00005-3 3l-5-.00015c-1.0882-3.3e-5-2.0367-.57494-2.5625-1.4375z" color="#000000" opacity=".5"/><path d="m3.99975 5.000275v34c0 1.662 1.338 2.99995 3 3l5 .00015c1.662 5e-5 3-1.338 3-3v-34c0-1.662-1.338-2.9999501-3-3l-5-.00015c-1.662-4.99e-5-3 1.338-3 3z" color="#000000" opacity=".8"/><path d="m6.99975 2.000425c-1.662 0-3 1.338-3 3v32.99985c0 .831.33275 1.5828.875 2.125l1.125-1.125 7-34.99985 1.125-1.125c-.54225-.54225-1.294-.875-2.125-.875z" color="#000000" fill="#444"/><path d="m14.12475 2.875425-1.125 1.125-7 34.99985-1.125 1.125c.54225.54225 1.294.875 2.125.875h5c1.662 0 3-1.338 3-3v-32.99985c0-.831-.33275-1.5828-.875-2.125z" color="#000000" fill="#1a1a1a"/><path d="m6.99975 3.000425h5c1.108 0 2 .892 2 2v32.99985c0 1.108-.892 2-2 2h-5c-1.108 0-2-.892-2-2v-32.99985c0-1.108.892-2 2-2z" color="#000000" fill="#333"/><path d="m7.99975 3.000425h1v36.99985h-1z" color="#000000" fill="#282828"/><path d="m8.99975 3.000425h1v36.99985h-1z" color="#000000" fill="#ea0000"/><path d="m9.99975 3.000425h1v36.99985h-1z" color="#000000" fill="#414141"/></svg>
