<svg width="102" height="46" version="1.1" xmlns="http://www.w3.org/2000/svg">
	<g fill="#050505">
		<path d="m94.00001 20v4h-87.00001v-4z" color="#000000" stroke-width=".99999994"/>
		<g stroke-width=".99979782">
			<path d="m50.999596 26v10h-.999596v-10z" color="#000000"/>
			<path d="m50.999596 8v10h-.999596v-10z" color="#000000"/>
			<path d="m7.999596 26v10h-.999596v-10z" color="#000000"/>
			<path d="M 7.999596,7 V 17 H 7 V 7 Z" color="#000000"/>
			<path d="m93.9996 26v10h-.9996v-10z" color="#000000"/>
			<path d="m93.9996 7v10h-.9996v-10z" color="#000000"/>
			<path d="m36.999596 26 .000202 8h-.999596l-.000202-8z" color="#000000"/>
			<path d="m36.999798 9-.000202 8h-.999596l.000202-8z" color="#000000"/>
			<path d="m64.999596 26 .000202 8h-.999596l-.000202-8z" color="#000000"/>
			<path d="m64.999798 9-.000202 8h-.999596l.000202-8z" color="#000000"/>
		</g>
	</g>
	<g fill="#4b4b4b">
		<path d="m6 19v6h89v-6zm1 1h87v4h-87z" style="paint-order:fill markers stroke"/>
		<g stroke-width=".99979782">
			<path d="M 7.999596,8 V 18 H 7 V 8 Z" color="#000000"/>
			<path d="m7.999596 37v-10h-.999596v10z" color="#000000"/>
			<path d="m93.9996 8v10h-.9996v-10z" color="#000000"/>
			<path d="m93.9996 37v-10h-.9996v10z" color="#000000"/>
			<path d="m36.999798 10-.000202 8h-.999596l.000202-8z" color="#000000"/>
			<path d="m36.999798 35-.000202-8h-.999596l.000202 8z" color="#000000"/>
			<path d="m64.999798 10-.000202 8h-.999596l.000202-8z" color="#000000"/>
			<path d="m64.999798 35-.000202-8h-.999596l.000202 8z" color="#000000"/>
		</g>
	</g>
	<g transform="translate(-20)" fill="#636363" stroke-width=".99979782">
		<path d="m70.999796 9-2e-4 9h-.999596l2e-4-9z" color="#000000"/>
		<path d="m70.999596 36 2e-4-9h-.999596l-2e-4 9z" color="#000000"/>
	</g>
</svg>
