<svg width="32" height="32" version="1.1" xmlns="http://www.w3.org/2000/svg" xmlns:osb="http://www.openswatchbook.org/uri/2009/osb">
  <title>Mixxx 1.12+ iconset</title>
  <path id="a" d="m3.875 4c-1.0388 0-1.875 0.892-1.875 2v18c0 1.108 0.83625 2 1.875 2h24.25c1.0388 0 1.875-0.892 1.875-2v-18c0-1.108-0.83625-2-1.875-2h-3.125v4h-18v-4zm5.125 0v2h14v-2zm-1 10c1.6569 0 3 1.3431 3 3s-1.3431 3-3 3-3-1.3431-3-3 1.3431-3 3-3zm16 0c1.6569 0 3 1.3431 3 3s-1.3431 3-3 3-3-1.3431-3-3 1.3431-3 3-3zm-10.5 2h5c0.277 0 0.5 0.223 0.5 0.5v1c0 0.277-0.223 0.5-0.5 0.5h-5c-0.277 0-0.5-0.223-0.5-0.5v-1c0-0.277 0.223-0.5 0.5-0.5z" fill="#fff"/>
</svg>
