<svg width="32" height="32" version="1.1" xmlns="http://www.w3.org/2000/svg" xmlns:osb="http://www.openswatchbook.org/uri/2009/osb" xmlns:xlink="http://www.w3.org/1999/xlink">
  <title>Mixxx 1.12+ iconset</title>
  <g id="a" transform="translate(2,16)" fill="#fff" shape-rendering="auto">
    <path transform="matrix(1.9223 0 0 1.9223 .54395 -13.456)" d="m7-0.2832c-3.9952 0-7.2832 3.288-7.2832 7.2832 0 3.9952 3.288 7.2832 7.2832 7.2832 3.9952 0 7.2832-3.288 7.2832-7.2832 0-3.9952-3.288-7.2832-7.2832-7.2832zm0 4.5664c1.5276 0 2.7168 1.1892 2.7168 2.7168s-1.1892 2.7168-2.7168 2.7168-2.7168-1.1892-2.7168-2.7168 1.1892-2.7168 2.7168-2.7168z" color="#000000" color-rendering="auto" dominant-baseline="auto" image-rendering="auto" solid-color="#000000" stop-color="#000000" style="font-feature-settings:normal;font-variant-alternates:normal;font-variant-caps:normal;font-variant-east-asian:normal;font-variant-ligatures:normal;font-variant-numeric:normal;font-variant-position:normal;font-variation-settings:normal;inline-size:0;isolation:auto;mix-blend-mode:normal;shape-margin:0;shape-padding:0;text-decoration-color:#000000;text-decoration-line:none;text-decoration-style:solid;text-indent:0;text-orientation:mixed;text-transform:none;white-space:normal"/>
    <g transform="matrix(1.3393 0 0 1.3393 5.9643 -8.0357)">
      <path d="m7.4933 6c0 0.82474-0.66859 1.4933-1.4933 1.4933s-1.4933-0.66859-1.4933-1.4933 0.66859-1.4933 1.4933-1.4933 1.4933 0.66859 1.4933 1.4933z" color="#000000" color-rendering="auto" dominant-baseline="auto" image-rendering="auto" solid-color="#000000" stop-color="#000000" style="font-feature-settings:normal;font-variant-alternates:normal;font-variant-caps:normal;font-variant-east-asian:normal;font-variant-ligatures:normal;font-variant-numeric:normal;font-variant-position:normal;font-variation-settings:normal;inline-size:0;isolation:auto;mix-blend-mode:normal;shape-margin:0;shape-padding:0;text-decoration-color:#000000;text-decoration-line:none;text-decoration-style:solid;text-indent:0;text-orientation:mixed;text-transform:none;white-space:normal"/>
      <path d="m6 4.0059c-1.095 0-1.9941 0.89918-1.9941 1.9941s0.89918 1.9941 1.9941 1.9941 1.9941-0.89918 1.9941-1.9941-0.89918-1.9941-1.9941-1.9941zm0 1c0.55452 0 0.99414 0.43962 0.99414 0.99414s-0.43962 0.99414-0.99414 0.99414-0.99414-0.43962-0.99414-0.99414 0.43962-0.99414 0.99414-0.99414z" color="#000000" color-rendering="auto" dominant-baseline="auto" image-rendering="auto" solid-color="#000000" stop-color="#000000" style="font-feature-settings:normal;font-variant-alternates:normal;font-variant-caps:normal;font-variant-east-asian:normal;font-variant-ligatures:normal;font-variant-numeric:normal;font-variant-position:normal;font-variation-settings:normal;inline-size:0;isolation:auto;mix-blend-mode:normal;shape-margin:0;shape-padding:0;text-decoration-color:#000000;text-decoration-line:none;text-decoration-style:solid;text-indent:0;text-orientation:mixed;text-transform:none;white-space:normal"/>
    </g>
  </g>
</svg>
