<svg width="32" height="32" version="1.1" xmlns="http://www.w3.org/2000/svg">
  <title>Mixxx 1.12+ iconset</title>
  <g fill="#fff">
    <path d="m2.6775 29.442c1.2915 1.277 3.3855 1.277 4.677-1e-6 0.31233-0.31053 0.55845-0.67988 0.72368-1.0862l2.8625-4.243 4.1331-3.8162 3.9334 3.8891 2.36-2.3334-11.013-10.889-2.36 2.3334 3.9334 3.8891-3.8596 4.0866-4.2806 2.8226c-0.41545 0.16436-0.79284 0.41036-1.1093 0.72312-1.2915 1.277-1.2915 3.3474 0 4.6244zm19.476-8.3676-11.013-10.889 8.6534-8.556 4.2747 4.2266-2.9265 3.8589 4.0051-2.7925 2.7918 2.7604s-4.8762 5.752-4.5854 6.0395 5.7486-4.8893 5.9813-4.6593l1.4725 1.4559z"/>
    <path d="m31.326 21.554c0.62753 1.302 1.0314 2.6733 0 3.6931-1.0314 1.0198-2.7037 1.0198-3.7352 0-1.0314-1.0198-0.61294-2.3844 0-3.6931 1.8408-3.9304 1.8408-3.9304 1.8408-3.9304s1.2629 2.6203 1.8944 3.9304z" style="paint-order:fill markers stroke"/>
  </g>
</svg>
