<svg width="32" height="32" version="1.1" xmlns="http://www.w3.org/2000/svg" xmlns:osb="http://www.openswatchbook.org/uri/2009/osb">
  <title>Mixxx 1.12+ iconset</title>
  <path id="a" d="m3.9688 2c-1.0888 0-1.9688 0.78848-1.9688 1.7812v24.438c0 0.99277 0.87998 1.7807 1.9688 1.7812h5.1562 14.25 4.6562c1.0888 0 1.9688-0.78848 1.9688-1.7812v-24.438c0-0.99277-0.87998-1.7812-1.9688-1.7812zm4.0312 2h16v4h-16zm-4 4h2v4h-2zm12 2c4.4064 0 8 3.5936 8 8s-3.5936 8-8 8c-4.4064 0-8-3.5936-8-8s3.5936-8 8-8zm10-2h2v4h-2zm-10 6c-2.2091 0-4 1.7909-4 4s1.7909 4 4 4 4-1.7909 4-4-1.7909-4-4-4zm10 2h2v10h-2zm-22 6h2v4h-2z" color="#000000" fill="#fff"/>
</svg>
