<svg width="32" height="32" version="1.1" xmlns="http://www.w3.org/2000/svg" xmlns:osb="http://www.openswatchbook.org/uri/2009/osb" xmlns:xlink="http://www.w3.org/1999/xlink">
  <title>Mixxx 1.12+ iconset</title>
  <g fill="#fff" fill-rule="evenodd" shape-rendering="auto">
    <path d="m8.7867 17.522c-0.48718 0.12318-0.92645 0.39851-1.3338 0.81876-0.40732 0.42749-0.60698 0.89846-0.60698 1.4057 0 0.31881 0.1198 0.68109 0.35141 1.0651 0.23161 0.39127 0.58302 0.67385 1.0383 0.85499 0.15175 0.02898 0.22362 0.10144 0.22362 0.20288 0 0.03623-0.0559 0.07245-0.19168 0.10144-0.72678-0.16665-1.3258-0.52169-1.789-1.0506-0.46322-0.53618-0.70282-1.1448-0.7188-1.8404 0.023948-0.7463 0.27154-1.4419 0.74275-2.0795 0.4792-0.64486 1.0942-1.1013 1.8449-1.3694l-0.55108-2.5722c-1.2299 0.92744-2.2283 1.8911-3.003 2.9055-0.7747 1.0071-1.174 2.1012-1.206 3.2823 0.015965 0.52893 0.13577 1.0434 0.3594 1.5361 0.22363 0.49995 0.55906 0.94918 1.0063 1.3622 0.90249 0.81876 2.0765 1.2462 3.5061 1.2897 0.48718-0.02898 1.0063-0.10868 1.5654-0.23911zm0.57504-0.07245 1.2459 5.5719c1.2299-0.44923 1.8449-1.4274 1.8449-2.92-0.07188-0.49995-0.23161-0.94918-0.50316-1.3477-0.26356-0.40576-0.61497-0.72456-1.0622-0.95643-0.44725-0.23186-0.95041-0.34779-1.5254-0.34779zm-1.6373-7.5355c0.26356-0.14491 0.56705-0.39851 0.8945-0.75355 0.32745-0.34779 0.64692-0.76079 0.95041-1.2245 0.31148-0.47097 0.55906-0.94918 0.74276-1.4346 0.18369-0.47821 0.27154-0.93469 0.27154-1.3549 0-0.18114-0.01597-0.36228-0.0559-0.52169-0.03196-0.26084-0.1198-0.46372-0.27155-0.60139-0.15175-0.13042-0.34343-0.20288-0.58302-0.20288-0.4792 0-0.91047 0.26809-1.2938 0.80427-0.29551 0.46372-0.54309 1.0144-0.7188 1.6375-0.18369 0.63037-0.28752 1.2535-0.30349 1.8839 0.03994 0.71732 0.16772 1.3042 0.36738 1.7679zm-0.50316 0.42025c-0.3594-1.1738-0.55906-2.3693-0.59899-3.5866 8e-3 -0.78253 0.09583-1.5143 0.26356-2.1954 0.15973-0.68109 0.39134-1.268 0.69484-1.7752 0.2955-0.5072 0.63893-0.89121 1.0223-1.1521 0.34342-0.23186 0.59101-0.35504 0.72678-0.35504 0.10382 0 0.19168 0.03623 0.27155 0.10144 0.07987 0.06522 0.18369 0.1739 0.31148 0.31881 0.95041 1.2245 1.4296 2.7026 1.4296 4.4271 0 0.81876-0.1198 1.6158-0.3594 2.4128-0.23161 0.78978-0.57503 1.5433-1.0303 2.2462-0.46322 0.71007-1.0063 1.326-1.6373 1.8549l0.64692 2.8548c0.35141-0.03623 0.59101-0.06522 0.72678-0.06522 0.60698 0 1.1501 0.11593 1.6532 0.34779 0.50316 0.23186 0.93443 0.54342 1.2858 0.94193 0.35141 0.39126 0.62296 0.8405 0.81463 1.3477 0.18369 0.50719 0.28752 1.0361 0.28752 1.5868 0 0.85499-0.24759 1.6375-0.74276 2.3403-0.49517 0.70283-1.2379 1.2173-2.2363 1.5506 0.0639 0.35504 0.17571 0.86948 0.34342 1.5288 0.15973 0.6666 0.27953 1.1955 0.3594 1.5868 0.07987 0.39126 0.11181 0.76804 0.11181 1.1376 0 0.57241-0.15175 1.0796-0.45524 1.5288-0.31148 0.44923-0.72678 0.79702-1.2539 1.0434-0.51913 0.24635-1.0942 0.36953-1.7171 0.36953-0.87853 0-1.6452-0.22461-2.3001-0.6666-0.6549-0.44923-1.0063-1.0506-1.0383-1.8187 0.023972-0.34054 0.11181-0.65935 0.27154-0.96367 0.15973-0.30432 0.37537-0.55067 0.6549-0.73906 0.27154-0.19563 0.59899-0.29707 0.97437-0.31881 0.31148 0 0.60698 0.0797 0.88651 0.23186 0.27154 0.1594 0.49517 0.36953 0.66289 0.63762 0.15973 0.26809 0.24758 0.56516 0.24758 0.88397 0 0.42749-0.15973 0.78978-0.4792 1.0868-0.31946 0.29707-0.72678 0.44923-1.214 0.44923h-0.18369c0.31148 0.43474 0.82262 0.65935 1.5334 0.65935 0.3594 0 0.72678-0.07245 1.0942-0.20288 0.37537-0.13767 0.68685-0.31881 0.95041-0.55067 0.26356-0.23186 0.43926-0.47821 0.51114-0.73906 0.13577-0.29707 0.19967-0.71007 0.19967-1.2245 0-0.34779-0.03994-0.69558-0.11181-1.0434-0.07188-0.34054-0.18369-0.79702-0.33544-1.3622-0.15174-0.55792-0.26356-0.99265-0.32745-1.2897-0.47919 0.10868-0.97437 0.16665-1.4935 0.16665-0.87054 0-1.6932-0.1594-2.4679-0.48546-0.7747-0.32606-1.4536-0.77528-2.0446-1.3549-0.58302-0.57965-1.0383-1.2318-1.3657-1.9708-0.31947-0.73181-0.48718-1.4998-0.49517-2.2969 0.031955-0.73906 0.18369-1.4491 0.47121-2.1157 0.28752-0.67384 0.6549-1.3115 1.1101-1.9056 0.45523-0.59414 0.92645-1.1376 1.4136-1.623 0.49517-0.47821 1.1421-1.0941 1.9567-1.8404z" color="#000000" color-rendering="auto" dominant-baseline="auto" image-rendering="auto" solid-color="#000000" stop-color="#000000" style="font-feature-settings:normal;font-variant-alternates:normal;font-variant-caps:normal;font-variant-east-asian:normal;font-variant-ligatures:normal;font-variant-numeric:normal;font-variant-position:normal;font-variation-settings:normal;inline-size:0;isolation:auto;mix-blend-mode:normal;shape-margin:0;shape-padding:0;text-decoration-color:#000000;text-decoration-line:none;text-decoration-style:solid;text-indent:0;text-orientation:mixed;text-transform:none;white-space:normal"/>
    <path d="m9.3301 1c-0.14942 0-0.26516 0.0489-0.4043 0.11719-0.13914 0.068287-0.29634 0.16285-0.47461 0.2832v0.0019532c-0.42319 0.28795-0.79207 0.70373-1.1035 1.2383-0.3185 0.53281-0.55778 1.1457-0.72266 1.8477-0.17322 0.70341-0.2633 1.4549-0.27148 2.2559v0.0058594 0.0058594c0.03873 1.1806 0.24668 2.3384 0.58008 3.4785-0.75562 0.69455-1.3858 1.2925-1.8555 1.7461l-0.0019531 0.001953h-0.0019531c-0.49687 0.49511-0.97591 1.0479-1.4375 1.6504-0.46873 0.61176-0.84677 1.2702-1.1426 1.9629-0.30143 0.69886-0.46092 1.4425-0.49414 2.2109v0.007812 0.007813c0.0083489 0.8331 0.18428 1.6369 0.51758 2.4004v0.001953c0.34115 0.76997 0.81692 1.4513 1.4219 2.0527h0.0019531v0.001953c0.61498 0.60316 1.3245 1.0716 2.1289 1.4102 0.80864 0.34034 1.6688 0.50781 2.5723 0.50781 0.44831 0 0.87177-0.065531 1.291-0.14453 0.067724 0.28988 0.14488 0.61006 0.26953 1.0684 0.1506 0.56101 0.26186 1.0133 0.33203 1.3457 0.068664 0.3323 0.10547 0.66113 0.10547 0.98828 0 0.49212-0.064032 0.87304-0.17383 1.1133l-0.009766 0.019532-0.005859 0.019531c-0.053535 0.19427-0.19262 0.40082-0.42969 0.60938-0.23572 0.20737-0.51459 0.37035-0.86133 0.49805-0.34364 0.122-0.68074 0.1875-1.0039 0.1875-0.39257 0-0.5545-0.19625-0.78906-0.32812 0.29166-0.084275 0.61471-0.10678 0.83594-0.3125 0.36669-0.34099 0.56641-0.79051 0.56641-1.2852 0-0.36834-0.1048-0.7155-0.28711-1.0215v-0.001953l-0.0019531-0.003906c-0.19127-0.30574-0.45084-0.54751-0.75586-0.72656l-0.0039063-0.001953-0.0039062-0.001953c-0.31489-0.17141-0.6562-0.26562-1.0137-0.26562h-0.0078125l-0.0078125 0.001953c-0.41467 0.024013-0.7981 0.13926-1.1172 0.36914-0.31323 0.21281-0.55933 0.49483-0.73633 0.83203-0.17685 0.33692-0.2744 0.69551-0.30078 1.0703l-0.0019531 0.015626v0.013671c0.035114 0.84422 0.44589 1.542 1.1562 2.0293v0.001953h0.0019531c0.70067 0.47287 1.5267 0.71289 2.4512 0.71289 0.65849 0 1.2747-0.132 1.832-0.39648 0.56487-0.26452 1.0216-0.64567 1.3594-1.1328h0.001953v-0.001953c0.33285-0.49269 0.50195-1.0596 0.50195-1.6797-1e-6 -0.38506-0.033351-0.78071-0.11719-1.1914-0.08091-0.39638-0.20118-0.92738-0.36133-1.5957v-0.001953l-0.001953-0.001953c-0.14974-0.58865-0.23989-1.017-0.30469-1.3574 0.9052-0.34872 1.6739-0.81263 2.1582-1.5 0.52507-0.74526 0.79102-1.5891 0.79102-2.4961 0-0.58456-0.10968-1.1447-0.30273-1.6777l-0.001954-0.001953v-0.001953c-0.20251-0.53586-0.49227-1.0159-0.86523-1.4316l-0.001953-0.001953c-0.37735-0.42732-0.84055-0.76048-1.373-1.0059-0.5391-0.24842-1.1243-0.37305-1.7656-0.37305-0.11954 0-0.32458 0.024222-0.51758 0.044921l-0.56445-2.4922c0.59385-0.51961 1.127-1.0997 1.5703-1.7793l0.001954-0.001953c0.46893-0.72396 0.82172-1.501 1.0605-2.3145 0.24673-0.82075 0.37109-1.6452 0.37109-2.4902 0-1.7744-0.4984-3.3189-1.4863-4.5918l-0.003906-0.0078125-0.00586-0.0058593c-0.13147-0.14909-0.23889-0.26398-0.34375-0.34961-0.117-0.09552-0.27486-0.16211-0.44141-0.16211zm0 0.53906c0.041102 0 0.058827 0.0061254 0.10156 0.041016 0.052994 0.043274 0.15127 0.14594 0.26953 0.2793 0.91108 1.1755 1.3711 2.585 1.3711 4.2578 0 0.79246-0.11519 1.5607-0.34766 2.334v0.0019531c-0.22439 0.76516-0.55698 1.4948-0.99805 2.1758-0.44951 0.68906-0.97363 1.2833-1.584 1.7949l-0.12695 0.10547 0.73633 3.248 0.23828-0.023438c0.35357-0.036452 0.60182-0.064453 0.69922-0.064453 0.57265 0 1.0738 0.10892 1.541 0.32422 0.47296 0.21795 0.87017 0.50628 1.1953 0.875h0.001953v0.001953c0.3284 0.36564 0.58126 0.78317 0.76172 1.2598 0.17433 0.48135 0.27148 0.97736 0.27148 1.4941 0 0.80294-0.22809 1.5252-0.69336 2.1855-0.41042 0.58254-1.0762 0.98229-1.8848 1.2988 1.1692-0.52593 1.8398-1.5563 1.8398-3.0273v-0.019531l-0.003906-0.019531c-0.076436-0.53164-0.2495-1.0222-0.54492-1.457-0.2879-0.44237-0.67729-0.79749-1.1621-1.0488-0.488-0.25299-1.0391-0.37695-1.6504-0.37695h-0.33594l0.072266 0.32812 1.3145 5.8711 0.035157-0.013672 0.039062 0.21875c0.065569 0.36431 0.17874 0.88279 0.34766 1.5469 0.15869 0.66241 0.27685 1.1891 0.35547 1.5742 0.075903 0.37183 0.10742 0.72999 0.10742 1.084 0 0.52476-0.13602 0.97118-0.41016 1.377-0.1132 0.16292-0.31219 0.24576-0.45508 0.37891 0.24734-0.23373 0.44497-0.48711 0.5293-0.7793 0.15499-0.35062 0.2207-0.78396 0.2207-1.3105 0-0.36843-0.044073-0.73437-0.11914-1.0977v-0.001953c-0.073493-0.34818-0.18532-0.80676-0.33789-1.375v-0.001953c-0.15124-0.55606-0.26255-0.98867-0.32422-1.2754l-0.058594-0.26562-0.26562 0.060547c-0.29977 0.06799-0.61891 0.078806-0.93359 0.10352 0.31066-0.04284 0.60883-0.06649 0.94336-0.14453l0.25781-0.060547-1.3535-6.2051-0.26953 0.06836c-0.54241 0.13714-1.0272 0.44503-1.4609 0.89258l-0.0019531 0.001953c-0.44518 0.46723-0.68164 1.0138-0.68164 1.5918 0 0.36996 0.14334 0.75946 0.37305 1.1543-0.075744-0.070636-0.19807-0.078836-0.26758-0.1582-0.42454-0.49199-0.63409-1.0291-0.65039-1.6621 0.023709-0.68899 0.24689-1.3237 0.6875-1.9199 0.44966-0.60512 1.0154-1.0242 1.7188-1.2754l0.22266-0.080078-0.68945-3.2168-0.33594 0.25586c-1.2456 0.93927-2.2622 1.9193-3.0547 2.957-0.80422 1.0461-1.2283 2.2008-1.2617 3.4375v0.007813 0.007812c0.017033 0.56432 0.14498 1.1166 0.38281 1.6406 0.19196 0.42869 0.5158 0.79475 0.85547 1.1562-0.070701-0.063304-0.16801-0.089282-0.23633-0.15625-0.5607-0.55745-0.99489-1.1792-1.3086-1.8867v-0.001953c-0.30403-0.69707-0.46203-1.4243-0.4707-2.1816 0.031272-0.7074 0.17447-1.3812 0.44727-2.0137v-0.001953c0.27908-0.65406 0.63498-1.2718 1.0762-1.8477 0.44771-0.58432 0.91054-1.1169 1.3867-1.5918l0.0019531-0.001953c6.216e-4 -6.2e-4 0.0013315-0.001334 0.0019531-0.001954 0.49357-0.47663 1.1383-1.0892 1.9492-1.832l0.125-0.11523-0.050781-0.16211c-0.11197-0.3657-0.10522-0.74741-0.18555-1.1172 0.063848 0.29032 0.081367 0.64343 0.18359 0.88086l0.11719 0.27344 0.25977-0.14258c0.30269-0.16643 0.62142-0.43689 0.96094-0.80469 0.34048-0.36163 0.66967-0.78683 0.98047-1.2617 0.3212-0.48567 0.57826-0.98123 0.76953-1.4863v-0.0019531c0.19346-0.50427 0.28906-0.99199 0.28906-1.4492 0-0.18779-0.017987-0.3788-0.060547-0.56055-0.037938-0.30066-0.14598-0.57166-0.35547-0.76172l-0.001953-0.0039063-0.003906-0.0019531c-0.19942-0.1714-0.46386-0.26758-0.75781-0.26758-0.57975 0-1.0994 0.3366-1.5137 0.91602l-0.0078124 0.011719c-0.31009 0.4866-0.56767 1.062-0.75 1.707-0.17822 0.61159-0.26915 1.2221-0.29492 1.8379-0.055856-0.4284-0.20042-0.84512-0.21484-1.2793 0.008211-0.76172 0.094068-1.47 0.25586-2.127v-0.0019531-0.0019532c0.15436-0.65821 0.37659-1.2168 0.66406-1.6973v-0.0019531l0.0019531-0.0019531c0.27956-0.47984 0.59593-0.83071 0.93945-1.0645 0.16516-0.11151 0.30375-0.19483 0.4082-0.24609s0.18161-0.0625 0.16797-0.0625zm0.34375 2.5508c0.18257 0 0.29741 0.04778 0.40039 0.13477 0.091915 0.083938 0.15889 0.21407 0.18555 0.43164l0.001953 0.017578 0.003906 0.015625c0.032349 0.12914 0.048828 0.29174 0.048828 0.45703 0 0.38267-0.08049 0.80635-0.25391 1.2578v0.0019531c-0.17606 0.46527-0.41538 0.9251-0.7168 1.3809-0.29618 0.45256-0.60745 0.85355-0.92188 1.1875v0.0019531h-0.0019531c-0.20029 0.21716-0.35639 0.31733-0.52539 0.44727-0.11861-0.37225-0.23529-0.75324-0.26562-1.2832 0.016319-0.6013 0.11419-1.1959 0.29102-1.8027v-0.0019531c0.16797-0.5957 0.40564-1.1186 0.68359-1.5566 0.35119-0.48928 0.69296-0.68945 1.0703-0.68945zm-2.0391 9.498 0.41602 1.9414c-0.68978 0.29396-1.3098 0.6972-1.7656 1.3105-0.50008 0.67668-0.76924 1.43-0.79492 2.2305v0.007813 0.007813c0.01731 0.75384 0.28601 1.432 0.78516 2.0098v0.001953c0.49972 0.57061 1.155 0.95668 1.9316 1.1348l0.058594 0.013672 0.058594-0.011719c0.082924-0.017704 0.14966-0.036669 0.2207-0.076172s0.18359-0.13229 0.18359-0.28906c0-0.1144-0.052746-0.24429-0.14062-0.32617-0.087878-0.081881-0.19195-0.12179-0.30078-0.14258l0.048828 0.015625c-0.41003-0.16315-0.70655-0.40482-0.90625-0.74219v-0.001953h-0.0019531c-0.21412-0.35501-0.3125-0.67451-0.3125-0.92578 0-0.43644 0.16375-0.83295 0.5332-1.2207 0.30082-0.30988 0.62377-0.4571 0.95312-0.58789l1.0996 5.0352c-0.43645 0.090351-0.86088 0.16594-1.2461 0.18945-1.3737-0.0441-2.4703-0.44799-3.3184-1.2168-0.42502-0.39248-0.73618-0.81027-0.94336-1.2734l-0.0019532-0.001953c-0.20827-0.45886-0.31617-0.93316-0.33203-1.4238 0.032029-1.1216 0.40578-2.1517 1.1484-3.1172v-0.001953c0.67361-0.88202 1.5921-1.7179 2.627-2.5391zm2.082 4.2109c0.37256 0.040273 0.74338 0.080944 1.0469 0.23828 0.40883 0.21194 0.71992 0.49523 0.95898 0.86328l0.003906 0.003906c0.2427 0.35617 0.38477 0.75826 0.45313 1.2168-0.005329 1.2547-0.50024 1.9939-1.3984 2.4434l-1.0645-4.7656zm-3.0098 8.6973c0.2632 7.18e-4 0.50773 0.063766 0.75 0.19531 5.908e-4 3.21e-4 0.0013625-3.21e-4 0.0019532 0 0.23347 0.13821 0.41804 0.31493 0.56055 0.54102 0.13651 0.22972 0.21094 0.47551 0.21094 0.74414 0 0.36033-0.12229 0.63747-0.39453 0.89063-0.2694 0.25051-0.59825 0.37695-1.0293 0.37695h-0.70898l0.30469 0.42578c0.04743 0.066199 0.17099 0.041869 0.22656 0.099609l-0.0058593 0.013672h0.037109c0.37421 0.37362 0.8413 0.6582 1.4961 0.6582 0.17168 0 0.34194-0.065443 0.51367-0.09375-0.18234 0.025091-0.33519 0.11328-0.5293 0.11328-0.83188 0-1.5396-0.21068-2.1484-0.62109h-0.0019531c-0.59402-0.40834-0.88228-0.91138-0.91406-1.5957 0.023557-0.29808 0.096965-0.57239 0.23633-0.83789 0.14115-0.26892 0.32392-0.4772 0.56641-0.64062l0.0039063-0.001953 0.0019531-0.001953c0.22131-0.15944 0.49173-0.24478 0.82227-0.26562zm3.5391 3.2012c-0.17262 0.13453-0.28914 0.31955-0.50391 0.41992-0.10437 0.049527-0.23834 0.035353-0.34766 0.074218 0.32512-0.12534 0.60192-0.29624 0.85156-0.49414z" color="#000000" color-rendering="auto" dominant-baseline="auto" image-rendering="auto" solid-color="#000000" stop-color="#000000" style="font-feature-settings:normal;font-variant-alternates:normal;font-variant-caps:normal;font-variant-east-asian:normal;font-variant-ligatures:normal;font-variant-numeric:normal;font-variant-position:normal;font-variation-settings:normal;inline-size:0;isolation:auto;mix-blend-mode:normal;shape-margin:0;shape-padding:0;text-decoration-color:#000000;text-decoration-line:none;text-decoration-style:solid;text-indent:0;text-orientation:mixed;text-transform:none;white-space:normal"/>
  </g>
  <path d="m14 7v1h11v3h-11v1h11v3h-9v1h9v3h-7v1h7v3h-9v1h14v-0.75-0.25-3-1-3-1-3-1-3-0.375-0.625h-16zm12 1h2v3h-2v-3zm0 4h2v3h-2v-3zm0 4h2v3h-2v-3zm0 4h2v3h-2v-3z" color="#000000" color-rendering="auto" dominant-baseline="auto" fill="#fff" image-rendering="auto" shape-rendering="auto" solid-color="#000000" style="font-feature-settings:normal;font-variant-alternates:normal;font-variant-caps:normal;font-variant-ligatures:normal;font-variant-numeric:normal;font-variant-position:normal;isolation:auto;mix-blend-mode:normal;shape-padding:0;text-decoration-color:#000000;text-decoration-line:none;text-decoration-style:solid;text-indent:0;text-orientation:mixed;text-transform:none;white-space:normal"/>
</svg>
