<?xml version="1.0" encoding="UTF-8" standalone="no"?>
<svg
   version="1.1"
   width="32"
   height="32"
   viewBox="0 0 32 32"
   xml:space="preserve"
   id="svg2"
   xmlns="http://www.w3.org/2000/svg"
   xmlns:svg="http://www.w3.org/2000/svg"><defs
   id="defs2" />




<path
   style="font-size:12px;font-family:Arial;-inkscape-font-specification:'Arial, Normal';fill:#ffffff;stroke:#ffffff;stroke-width:1.01149;stroke-opacity:1"
   d="M 0.69552007,19.995928 V 11.356579 H 3.8997099 q 0.9787343,0 1.5671401,0.265192 0.5942316,0.259298 0.9263022,0.80736 0.3378964,0.54217 0.3378964,1.137377 0,0.553956 -0.2971158,1.043087 -0.2971158,0.48913 -0.8971732,0.789681 0.7748314,0.229833 1.1884632,0.783788 0.4194575,0.553955 0.4194575,1.308277 0,0.606995 -0.2563351,1.131484 -0.2505094,0.518597 -0.6233606,0.801468 -0.3728512,0.282871 -0.9379538,0.4302 -0.5592767,0.141435 -1.3748887,0.141435 z M 1.8257252,14.986756 h 1.8467785 q 0.7515282,0 1.077773,-0.100184 0.4311091,-0.12965 0.6466637,-0.4302 0.2213805,-0.300551 0.2213805,-0.754323 0,-0.430199 -0.2039031,-0.754322 -0.203903,-0.330015 -0.58258,-0.447878 Q 4.4531609,12.376093 3.5326845,12.376093 H 1.8257252 Z m 0,3.989658 h 2.1264169 q 0.5476252,0 0.7690056,-0.04126 0.3903285,-0.07071 0.6524895,-0.235726 0.262161,-0.165007 0.4311093,-0.477344 0.1689481,-0.31823 0.1689481,-0.730751 0,-0.483237 -0.2446836,-0.836826 Q 5.4843274,16.295033 5.0473924,16.153598 4.6162833,16.00627 3.8006714,16.00627 H 1.8257252 Z M 14.304588,11.356579 h 1.130205 v 4.991493 q 0,1.302384 -0.29129,2.068493 -0.291289,0.766109 -1.054469,1.249347 -0.757354,0.477344 -1.992424,0.477344 -1.200115,0 -1.963294,-0.418413 Q 9.3701359,19.30643 9.0438911,18.516749 8.7176463,17.721174 8.7176463,16.348072 v -4.991493 h 1.1302051 v 4.9856 q 0,1.12559 0.2039036,1.661866 0.209728,0.530384 0.710747,0.819147 0.506844,0.288764 1.23507,0.288764 1.24672,0 1.776868,-0.571635 0.530148,-0.571634 0.530148,-2.198142 z m 2.965332,8.639349 v -8.639349 h 1.130205 v 7.619835 h 4.206228 v 1.019514 z m 6.635586,0 v -8.639349 h 1.130205 v 4.284316 l 4.241182,-4.284316 h 1.532186 l -3.582867,3.500528 3.740163,5.138821 h -1.491404 l -3.041068,-4.372713 -1.398192,1.378996 v 2.993717 z"
   id="text4"
   aria-label="BULK" /></svg>
