<?xml version="1.0" encoding="UTF-8" standalone="no"?>
<svg
   xmlns:dc="http://purl.org/dc/elements/1.1/"
   xmlns:cc="http://creativecommons.org/ns#"
   xmlns:rdf="http://www.w3.org/1999/02/22-rdf-syntax-ns#"
   xmlns:svg="http://www.w3.org/2000/svg"
   xmlns="http://www.w3.org/2000/svg"
   xmlns:sodipodi="http://sodipodi.sourceforge.net/DTD/sodipodi-0.dtd"
   xmlns:inkscape="http://www.inkscape.org/namespaces/inkscape"
   width="64"
   height="64"
   enable-background="new 0 0 64 64"
   viewBox="0 0 64 64"
   version="1.1"
   id="svg4"
   sodipodi:docname="ic_preferences_rhythm.svg"
   inkscape:version="0.92.5 (2060ec1f9f, 2020-04-08)">
  <metadata
     id="metadata10">
    <rdf:RDF>
      <cc:Work
         rdf:about="">
        <dc:format>image/svg+xml</dc:format>
        <dc:type
           rdf:resource="http://purl.org/dc/dcmitype/StillImage" />
        <dc:title></dc:title>
      </cc:Work>
    </rdf:RDF>
  </metadata>
  <defs
     id="defs8" />
  <sodipodi:namedview
     pagecolor="#ffffff"
     bordercolor="#666666"
     borderopacity="1"
     objecttolerance="10"
     gridtolerance="10"
     guidetolerance="10"
     inkscape:pageopacity="0"
     inkscape:pageshadow="2"
     inkscape:window-width="1425"
     inkscape:window-height="714"
     id="namedview6"
     showgrid="false"
     inkscape:zoom="3.6875"
     inkscape:cx="19.738388"
     inkscape:cy="1.9366601"
     inkscape:window-x="72"
     inkscape:window-y="27"
     inkscape:window-maximized="0"
     inkscape:current-layer="svg4" />
  <path
     d="M53.357,23.453c-0.979-0.925-1.93-1.823-2.908-2.748c-0.938-0.886-2.311,0.568-1.373,1.454l0.706,0.667L29.63,42.979   c-1.862,0-3.724,0-5.586,0c-1.29,0-1.29-2,0-2h5.183c0.326-0.923,1.145-1.569,1.817-2.242v-3.758h-1c-1.29,0-1.29-2,0-2h1v-4h-1   c-1.29,0-1.29-2,0-2h1v-4h-1c-1.29,0-1.29-2,0-2h1v-4h-1c-1.29,0-1.29-2,0-2h1v-3c0-1.29,2-1.29,2,0v3h1c1.29,0,1.29,2,0,2h-1v4h1   c1.29,0,1.29,2,0,2h-1v4h1c1.29,0,1.29,2,0,2h-1v4h1c1.29,0,1.29,2,0,2h-1v1.758l7.785-7.786l-4.785-22.93   c-2.777,0-5.556,0-8.333,0l-9.667,47.916h2.466l1.534,4.042h2l1.534-4.042H38.51l1.534,4.042h2l1.534-4.042h2.466l-3.749-17.966   l-5.009,5.008h2.758c1.29,0,1.29,2,0,2c-2.528,0-5.058,0-7.586,0l18.778-18.778c0.335,0.316,0.724,0.832,1.189,0.949   C53.401,25.395,54.088,24.144,53.357,23.453z"
     id="path2"
     style="fill:#ffffff" />
  <path
     style="stroke-width:0.27118644;fill:#ffffff;stroke:#ffffff"
     d="m 21.947503,57.342373 c -0.07179,-0.261017 -0.402775,-1.145763 -0.735515,-1.966102 -0.586213,-1.445253 -0.640269,-1.494112 -1.742383,-1.574915 -0.625571,-0.04586 -1.137402,-0.216369 -1.137402,-0.378899 0,-0.244819 8.383942,-41.985321 9.262394,-46.1139824 L 27.868672,6.020339 h 4.015926 c 3.941764,0 4.018551,0.011268 4.158045,0.6101695 0.07816,0.3355932 1.152273,5.4656635 2.386905,11.4001555 l 2.244787,10.789987 -2.678126,2.688213 c -2.54625,2.555841 -2.692693,2.658824 -2.97396,2.091369 -0.173553,-0.350142 -0.60149,-0.632312 -1.035312,-0.682652 -0.725062,-0.08414 -0.739479,-0.122118 -0.739479,-1.948089 0,-1.812004 0.01939,-1.864597 0.71841,-1.948089 0.395126,-0.0472 0.852128,-0.299369 1.015562,-0.560386 0.409627,-0.654209 -0.09156,-1.399172 -1.015562,-1.509538 -0.699015,-0.08349 -0.71841,-0.136086 -0.71841,-1.948089 0,-1.812004 0.01939,-1.864596 0.71841,-1.948089 0.395126,-0.04719 0.852128,-0.299369 1.015562,-0.560386 0.409627,-0.654208 -0.09156,-1.399172 -1.015562,-1.509538 -0.699763,-0.08358 -0.71841,-0.134614 -0.71841,-1.966102 0,-1.799031 0.02786,-1.880292 0.64476,-1.880292 0.861313,0 1.355176,-0.642894 1.143067,-1.488004 -0.134828,-0.537197 -0.342202,-0.681487 -0.979435,-0.681487 -0.800236,0 -0.808392,-0.01523 -0.808392,-1.509354 0,-1.836725 -0.344249,-2.558443 -1.220339,-2.558443 -0.87609,0 -1.220339,0.721718 -1.220339,2.558443 0,1.488561 -0.01096,1.509354 -0.795285,1.509354 -0.55201,0 -0.846948,0.162776 -0.964176,0.532129 -0.250513,0.789297 0.314584,1.637362 1.091036,1.637362 0.646173,0 0.668425,0.0626 0.668425,1.880292 0,1.831488 -0.01865,1.88252 -0.718411,1.966102 -0.395125,0.04719 -0.852128,0.299369 -1.015562,0.560386 -0.409627,0.654208 0.09156,1.399172 1.015562,1.509538 0.699016,0.08349 0.718411,0.136085 0.718411,1.948089 0,1.812003 -0.0194,1.864596 -0.718411,1.948089 -1.527111,0.182403 -1.527111,1.88752 0,2.069924 0.699016,0.08349 0.718411,0.136085 0.718411,1.948089 0,1.812003 -0.0194,1.864596 -0.718411,1.948089 -1.527111,0.182403 -1.527111,1.88752 0,2.069923 0.694507,0.08296 0.718411,0.14439 0.718411,1.846411 0,1.571134 -0.09243,1.875623 -0.858947,2.829445 l -0.858946,1.068843 -2.327494,0.0037 c -2.945455,0.0047 -3.510353,0.159322 -3.726382,1.020048 -0.286242,1.140467 0.433566,1.416914 3.689363,1.416914 h 2.864779 L 39.74312,33.016206 c 9.92722,-9.929869 10.143155,-10.168624 9.669788,-10.691688 -0.266296,-0.294256 -0.44157,-0.756248 -0.389496,-1.02665 0.18045,-0.937002 1.02685,-0.697608 2.603549,0.736381 1.955425,1.778436 2.140827,2.090457 1.577104,2.654181 -0.36045,0.36045 -0.527428,0.379744 -0.910847,0.105247 -0.258219,-0.184862 -0.634167,-0.414066 -0.835442,-0.509342 -0.239973,-0.113596 -3.577404,3.037212 -9.694914,9.152793 -5.13093,5.129315 -9.328964,9.418216 -9.328964,9.530888 0,0.112676 1.806102,0.204865 4.01356,0.204865 4.244322,0 4.664406,-0.11393 4.664406,-1.265036 0,-0.78304 -0.739056,-1.175642 -2.213097,-1.175642 h -1.164009 l 2.153179,-2.165882 c 1.184249,-1.191235 2.228391,-2.075981 2.320317,-1.966101 0.169807,0.202972 3.518745,16.20148 3.515532,16.794356 -0.0011,0.184174 -0.482606,0.35929 -1.118731,0.40678 -1.111743,0.083 -1.120489,0.09229 -1.865934,1.981695 -0.710344,1.800439 -0.797422,1.902516 -1.689083,1.980005 l -0.940129,0.0817 -0.746874,-2.047799 -0.746875,-2.047802 h -6.553885 -6.553884 l -0.77654,2.033898 c -0.759686,1.989754 -0.796912,2.033898 -1.715177,2.033898 -0.663422,0 -0.97691,-0.139148 -1.069171,-0.474576 z"
     id="path3715"
     inkscape:connector-curvature="0" />
</svg>
