<svg width="40" height="34" version="1.1" xmlns="http://www.w3.org/2000/svg">
  <defs>
    <linearGradient id="d" x1="13.552523" x2="34.560295" y1="19.080992" y2="17.702692" gradientTransform="matrix(-.17295166 -1.0999916 1.099114 -.17308975 2.5430621 44.325905)" gradientUnits="userSpaceOnUse">
      <stop stop-color="#0e0e0e" offset="0"/>
      <stop stop-color="#4d4d4d" offset="1"/>
    </linearGradient>
  </defs>
  <path d="m8.5221226 30.470032c-6.0238679-6.482134-6.2029347-16.846274 0.1149548-23.0401577 6.3178896-6.1938831 16.4079526-6.193883 22.7258416 3e-7 6.317889 6.1938834 6.157924 16.6344274 0.134056 23.1165614l-2.71145-2.546436-17.55832-0.114953z" fill="none" stroke="#050505" stroke-linecap="round" stroke-width="1.29999995" style="paint-order:fill markers stroke"/>
  <path d="m8.5221226 30.470032c-6.0238679-6.482134-6.2029347-16.846274 0.1149548-23.0401578 6.3178896-6.1938831 16.4079526-6.193883 22.7258416 3e-7 6.317889 6.1938835 6.157924 16.6344275 0.134056 23.1165615l-2.71145-2.546436-17.55832-0.114953z" fill="#171717" style="paint-order:fill markers stroke"/>
  <path d="m21.009263 6.2439565c-1.649544-0.1160709-3.348064 0.0959292-5.008824 0.6763057-6.6985643 2.1625905-10.3572531 9.4330628-8.1343974 16.1543428 2.2229964 6.721705 9.4848944 10.324777 16.1314524 8.003298 6.698563-2.16259 10.359332-9.430982 8.136477-16.152262-1.667758-5.0428215-6.17204-8.333188-11.124708-8.6816845z" color="#000000" color-rendering="auto" dominant-baseline="auto" image-rendering="auto" shape-rendering="auto" solid-color="#000000" stroke-width=".98431355" style="font-feature-settings:normal;font-variant-alternates:normal;font-variant-caps:normal;font-variant-ligatures:normal;font-variant-numeric:normal;font-variant-position:normal;isolation:auto;mix-blend-mode:normal;shape-padding:0;text-decoration-color:#000000;text-decoration-line:none;text-decoration-style:solid;text-indent:0;text-orientation:mixed;text-transform:none;white-space:normal"/>
  <path d="m8.4781852 22.244148c0.3383876 6.897977 6.2521428 12.208742 13.1459588 11.807473 6.899992-0.275398 12.265765-6.139495 11.927378-13.037471-3.786694-18.179413-25.319773-12.1745157-25.0733368 1.229998z" color="#000000" color-rendering="auto" dominant-baseline="auto" image-rendering="auto" opacity=".493" shape-rendering="auto" solid-color="#000000" stroke-width=".109116" style="font-feature-settings:normal;font-variant-alternates:normal;font-variant-caps:normal;font-variant-ligatures:normal;font-variant-numeric:normal;font-variant-position:normal;isolation:auto;mix-blend-mode:normal;shape-padding:0;text-decoration-color:#000000;text-decoration-line:none;text-decoration-style:solid;text-indent:0;text-orientation:mixed;text-transform:none;white-space:normal"/>
  <path d="m8.0282663 20.533975c0.340637 6.94383 6.2937027 12.289897 13.2333447 11.88596 6.945857-0.277229 12.347299-6.180306 12.006663-13.124135-0.340638-6.943829-6.293917-12.2898875-13.233559-11.8859502-6.945858 0.2772306-12.3470859 6.1802962-12.0064487 13.1241252z" color="#000000" color-rendering="auto" dominant-baseline="auto" fill="#050505" image-rendering="auto" opacity=".94" shape-rendering="auto" solid-color="#000000" stroke-width=".109842" style="font-feature-settings:normal;font-variant-alternates:normal;font-variant-caps:normal;font-variant-ligatures:normal;font-variant-numeric:normal;font-variant-position:normal;isolation:auto;mix-blend-mode:normal;shape-padding:0;text-decoration-color:#000000;text-decoration-line:none;text-decoration-style:solid;text-indent:0;text-orientation:mixed;text-transform:none;white-space:normal"/>
  <path d="m8.2297758 21.380224c.3211083 1.518471.9509058 2.996445 1.9033672 4.345243 3.68078 5.486321 11.186006 6.910874 16.677268 3.169848 5.491609-3.741264 6.868188-11.224395 3.057458-16.622767-3.680781-5.486321-11.184667-6.9132893-16.675928-3.1722633-4.1199672 2.8068063-5.9262795 7.7208053-4.9621652 12.2799393z" color="#000000" color-rendering="auto" dominant-baseline="auto" fill="#4a4a4a" image-rendering="auto" shape-rendering="auto" solid-color="#000000" style="font-feature-settings:normal;font-variant-alternates:normal;font-variant-caps:normal;font-variant-ligatures:normal;font-variant-numeric:normal;font-variant-position:normal;isolation:auto;mix-blend-mode:normal;shape-padding:0;text-decoration-color:#000000;text-decoration-line:none;text-decoration-style:solid;text-indent:0;text-orientation:mixed;text-transform:none;white-space:normal"/>
  <path d="m8.6548538 22.98599a11.904658 11.988866 88.966938 1 1 22.6207732-7.896104 11.904658 11.988866 88.966938 1 1-22.6207732 7.896104z" fill="url(#d)" opacity=".761619" stroke-width="1.12532"/>
  <path d="m18.077475 8.4052397a10.690954 10.775167 8.0144789 1 1 3.844613 21.1858913 10.690954 10.775167 8.0144789 1 1-3.844613-21.1858913z" fill="#282828" stroke-width="1.011"/>
</svg>
