<svg version="1.1" viewBox="0 0 48 48" xmlns="http://www.w3.org/2000/svg">
	<g transform="rotate(-90,24,24)">
		<path d="m31.33 8h-3.33v-4h-8v4h-3.33c-1.48 0-2.67 1.18-2.67 2.66v30.67c0 1.47 1.19 2.67 2.67 2.67h14.67c1.47 0 2.66-1.19 2.66-2.67v-30.67c-.01-1.48-1.19-2.6556-2.67-2.66z" fill="#5f5f5f"/>
		<path d="m24.483051 29.838305s-.711864-.644068-1.20339-1.135593c-.822034-.822034-1.940678-1.40678-2.711864-1.40678v-2.711864c1.406779 0 2.584745.779661 3.381356 1.576271l1.601695 1.576271c.457627.457627 1.09322.745763 1.79661.745763 1.406779 0 2.542373-1.135593 2.542373-2.542373s-1.135594-2.542373-2.542373-2.542373v-2.542373c2.805085 0 5.084746 2.279661 5.084746 5.084746s-2.279661 5.084746-5.084746 5.084746c-1.118644 0-2.135593-.449153-2.864407-1.186441zm-8.915254-2.288135v-3.220339h3.220339v3.220339z" fill="#b4b4b4" stroke-width=".99999994"/>
	</g>
</svg>
