<svg xmlns="http://www.w3.org/2000/svg" xmlns:xlink="http://www.w3.org/1999/xlink" width="104" height="26"><defs><linearGradient x1="74.992996" y1="-.1462" x2="13.4863" y2="88.766998" id="o" gradientUnits="userSpaceOnUse"><stop offset=".47799999" stop-color="#39b549"/><stop offset="1" stop-color="#1a76bc"/></linearGradient><linearGradient x1="74.997902" y1="-.15009999" x2="13.4883" y2="88.767303" id="p" gradientUnits="userSpaceOnUse"><stop offset="0" stop-color="#381f1f"/><stop offset=".0017" stop-color="#3a1f20"/><stop offset=".0376" stop-color="#5b2825"/><stop offset=".0757" stop-color="#7c2f28"/><stop offset=".1173" stop-color="#9b2e28"/><stop offset=".1626" stop-color="#b62c28"/><stop offset=".2129" stop-color="#cc2626"/><stop offset=".271" stop-color="#dc2225"/><stop offset=".34380001" stop-color="#e81f25"/><stop offset=".47799999" stop-color="#ed1b26"/><stop offset="1" stop-color="#f7921e"/></linearGradient><linearGradient x1="74.991898" y1="-.1471" x2="13.4852" y2="88.765999" id="q" gradientUnits="userSpaceOnUse"><stop offset="0" stop-color="#120e1e"/><stop offset=".0231" stop-color="#1b1426"/><stop offset=".1446" stop-color="#442349"/><stop offset=".2552" stop-color="#652866"/><stop offset=".3511" stop-color="#7c287b"/><stop offset=".42860001" stop-color="#8b2589"/><stop offset=".47799999" stop-color="#91268f"/><stop offset="1" stop-color="#ed1b26"/></linearGradient><clipPath id="z"><path d="M0 0h358.182v89.118H0V0z" transform="translate(0 .028)"/></clipPath><linearGradient x1="44.0611" y1=".24690001" x2="44.0611" y2="93.877998" id="r" gradientUnits="userSpaceOnUse"><stop offset="0" stop-color="#1f1f20"/><stop offset=".00555556" stop-color="#1f1f20"/><stop offset=".63333303" stop-color="#58595b"/><stop offset="1" stop-color="#a5a8aa"/></linearGradient><linearGradient x1="44.066101" y1=".24690001" x2="44.066101" y2="93.877998" id="s" gradientUnits="userSpaceOnUse"><stop offset="0" stop-color="#1f1f20"/><stop offset=".00555556" stop-color="#1f1f20"/><stop offset=".63333303" stop-color="#58595b"/><stop offset="1" stop-color="#a5a8aa"/></linearGradient><linearGradient x1="44.066299" y1=".24690001" x2="44.066299" y2="93.877998" id="t" gradientUnits="userSpaceOnUse"><stop offset="0" stop-color="#1f1f20"/><stop offset=".00555556" stop-color="#1f1f20"/><stop offset=".63333303" stop-color="#58595b"/><stop offset="1" stop-color="#a5a8aa"/></linearGradient><linearGradient x1="11.5568" y1=".24690001" x2="11.5568" y2="93.877998" id="u" gradientUnits="userSpaceOnUse"><stop offset="0" stop-color="#1f1f20"/><stop offset=".00555556" stop-color="#1f1f20"/><stop offset=".63333303" stop-color="#58595b"/><stop offset="1" stop-color="#a5a8aa"/></linearGradient><linearGradient x1="52.543499" y1=".24690001" x2="52.543499" y2="93.877998" id="v" gradientUnits="userSpaceOnUse"><stop offset="0" stop-color="#1f1f20"/><stop offset=".00555556" stop-color="#1f1f20"/><stop offset=".63333303" stop-color="#58595b"/><stop offset="1" stop-color="#a5a8aa"/></linearGradient><linearGradient x1=".34819999" y1="90.636597" x2=".34819999" y2="-2.3324001" id="a" gradientUnits="userSpaceOnUse"><stop offset="0" stop-color="#fff"/><stop offset="1"/></linearGradient><linearGradient x1=".34799999" y1="90.636597" x2=".34799999" y2="-2.3324001" id="b" gradientUnits="userSpaceOnUse"><stop offset="0" stop-color="#fff"/><stop offset="1"/></linearGradient><linearGradient x1=".31259999" y1="88.656097" x2=".31259999" y2="1.1722" id="c" gradientUnits="userSpaceOnUse"><stop offset="0" stop-color="#fff"/><stop offset="1"/></linearGradient><linearGradient x1=".31209999" y1="88.656097" x2=".31209999" y2="1.1722" id="d" gradientUnits="userSpaceOnUse"><stop offset="0" stop-color="#fff"/><stop offset="1"/></linearGradient><linearGradient x1="30.5499" y1="89.1185" x2="30.5499" y2="-3.2409" id="e" gradientUnits="userSpaceOnUse"><stop offset="0" stop-color="#fff"/><stop offset="1"/></linearGradient><linearGradient x1="30.547501" y1="90.025703" x2="30.547501" y2=".1055" id="f" gradientUnits="userSpaceOnUse"><stop offset="0" stop-color="#fff"/><stop offset="1"/></linearGradient><clipPath id="L"><path d="M0 0h88.123v89.118H0V0z" transform="translate(208.823)"/></clipPath><linearGradient x1="30.5495" y1="89.118202" x2="30.5495" y2="-3.2412" id="g" gradientUnits="userSpaceOnUse"><stop offset="0" stop-color="#fff"/><stop offset="1"/></linearGradient><linearGradient x1="30.549101" y1="90.025398" x2="30.549101" y2=".1052" id="h" gradientUnits="userSpaceOnUse"><stop offset="0" stop-color="#fff"/><stop offset="1"/></linearGradient><clipPath id="O"><path d="M0 0h88.123v89.118H0V0z" transform="translate(270.034)"/></clipPath><linearGradient x1="30.5494" y1="89.118202" x2="30.5494" y2="-3.2412" id="i" gradientUnits="userSpaceOnUse"><stop offset="0" stop-color="#fff"/><stop offset="1"/></linearGradient><linearGradient x1="30.549" y1="90.025398" x2="30.549" y2=".1052" id="j" gradientUnits="userSpaceOnUse"><stop offset="0" stop-color="#fff"/><stop offset="1"/></linearGradient><linearGradient x1=".29169801" y1="52.640499" x2=".29169801" y2="-37.8988" id="k" gradientUnits="userSpaceOnUse"><stop offset="0" stop-color="#fff"/><stop offset="1"/></linearGradient><linearGradient x1=".2481" y1="52.9165" x2=".2481" y2="-35.325699" id="l" gradientUnits="userSpaceOnUse"><stop offset="0" stop-color="#fff"/><stop offset="1"/></linearGradient><linearGradient x1="27.6264" y1="89.119904" x2="27.6264" y2=".1302" id="m" gradientUnits="userSpaceOnUse"><stop offset="0" stop-color="#fff"/><stop offset="1"/></linearGradient><linearGradient x1="29.726101" y1="53.389" x2="29.726101" y2="-36.621201" id="n" gradientUnits="userSpaceOnUse"><stop offset="0" stop-color="#fff"/><stop offset="1"/></linearGradient><linearGradient x1="74.992996" y1="-.1462" x2="13.4863" y2="88.766998" id="w" xlink:href="#o" gradientUnits="userSpaceOnUse"/><linearGradient x1="74.997902" y1="-.15009999" x2="13.4883" y2="88.767303" id="x" xlink:href="#p" gradientUnits="userSpaceOnUse"/><linearGradient x1="74.991898" y1="-.1471" x2="13.4852" y2="88.765999" id="y" xlink:href="#q" gradientUnits="userSpaceOnUse"/><linearGradient x1="44.0611" y1=".24690001" x2="44.0611" y2="93.877998" id="A" xlink:href="#r" gradientUnits="userSpaceOnUse"/><linearGradient x1="44.066101" y1=".24690001" x2="44.066101" y2="93.877998" id="B" xlink:href="#s" gradientUnits="userSpaceOnUse"/><linearGradient x1="44.066299" y1=".24690001" x2="44.066299" y2="93.877998" id="C" xlink:href="#t" gradientUnits="userSpaceOnUse"/><linearGradient x1="11.5568" y1=".24690001" x2="11.5568" y2="93.877998" id="D" xlink:href="#u" gradientUnits="userSpaceOnUse"/><linearGradient x1="52.543499" y1=".24690001" x2="52.543499" y2="93.877998" id="E" xlink:href="#v" gradientUnits="userSpaceOnUse"/><linearGradient x1=".34819999" y1="90.636597" x2=".34819999" y2="-2.3324001" id="F" xlink:href="#a" gradientUnits="userSpaceOnUse" gradientTransform="matrix(.29036 0 0 .29166 39.989169 .00816575)"/><linearGradient x1=".34799999" y1="90.636597" x2=".34799999" y2="-2.3324001" id="G" xlink:href="#b" gradientUnits="userSpaceOnUse" gradientTransform="matrix(.29036 0 0 .29166 30.29566 .00816575)"/><linearGradient x1=".31259999" y1="88.656097" x2=".31259999" y2="1.1722" id="H" xlink:href="#c" gradientUnits="userSpaceOnUse" gradientTransform="matrix(.29036 0 0 .29166 33.479985 .00816544)"/><linearGradient x1=".31209999" y1="88.656097" x2=".31209999" y2="1.1722" id="I" xlink:href="#d" gradientUnits="userSpaceOnUse" gradientTransform="matrix(.29036 0 0 .29166 0 .00816523)"/><linearGradient x1="30.5499" y1="89.1185" x2="30.5499" y2="-3.2409" id="J" xlink:href="#e" gradientUnits="userSpaceOnUse" gradientTransform="matrix(.29036 0 0 .29166 50.714599 .00816575)"/><linearGradient x1="30.547501" y1="90.025703" x2="30.547501" y2=".1055" id="K" xlink:href="#f" gradientUnits="userSpaceOnUse" gradientTransform="matrix(.29036 0 0 .29166 42.868331 .00816575)"/><linearGradient x1="30.5495" y1="89.118202" x2="30.5495" y2="-3.2412" id="M" xlink:href="#g" gradientUnits="userSpaceOnUse"/><linearGradient x1="30.549101" y1="90.025398" x2="30.549101" y2=".1052" id="N" xlink:href="#h" gradientUnits="userSpaceOnUse"/><linearGradient x1="30.5494" y1="89.118202" x2="30.5494" y2="-3.2412" id="P" xlink:href="#i" gradientUnits="userSpaceOnUse"/><linearGradient x1="30.549" y1="90.025398" x2="30.549" y2=".1052" id="Q" xlink:href="#j" gradientUnits="userSpaceOnUse"/><linearGradient x1=".29169801" y1="52.640499" x2=".29169801" y2="-37.8988" id="R" xlink:href="#k" gradientUnits="userSpaceOnUse" gradientTransform="matrix(.29036 0 0 .29166 23.843387 10.647207)"/><linearGradient x1=".2481" y1="52.9165" x2=".2481" y2="-35.325699" id="S" xlink:href="#l" gradientUnits="userSpaceOnUse" gradientTransform="matrix(.29036 0 0 .29166 6.435142 10.56671)"/><linearGradient x1="27.6264" y1="89.119904" x2="27.6264" y2=".1302" id="T" xlink:href="#m" gradientUnits="userSpaceOnUse" gradientTransform="matrix(.29036 0 0 .29166 7.2353609 .00816575)"/><linearGradient x1="29.726101" y1="53.389" x2="29.726101" y2="-36.621201" id="U" xlink:href="#n" gradientUnits="userSpaceOnUse" gradientTransform="matrix(.29036 0 0 .29166 6.5809004 10.647208)"/></defs><path d="M0 89.118L61.111 0h27.012l-61.1 89.118H0z" transform="matrix(.26802 0 0 .26922 76.8783105128 .0075381957)" fill="url(#w)"/><path d="M0 89.118L61.107 0h27.027l-61.1 89.118H0z" transform="matrix(.26802 0 0 .26922 44.0678175028 .0075381957)" fill="url(#x)"/><path d="M0 89.118L61.11 0h27.013L27.022 89.118H0z" transform="matrix(.26802 0 0 .26922 60.4746721288 .0075381957)" fill="url(#y)"/><g clip-path="url(#z)" transform="matrix(.26802 0 0 .26922 4.5 0)"><path d="M88.123 89.118L27.023 0H0l61.096 89.118h27.027z" transform="translate(147.641 .028)" fill="url(#A)"/><path d="M88.133 89.118L27.022 0H0l61.11 89.118h27.023z" transform="translate(208.845 .028)" fill="url(#B)"/><path d="M88.134 89.118L27.023 0H0l61.111 89.118h27.023z" transform="translate(270.048 .028)" fill="url(#C)"/><path d="M0 0h23.115v89.118H0V0z" transform="translate(115.307 .028)" fill="url(#D)" fill-rule="evenodd"/><path d="M22.665 89.118V36.93l29.276 44.438h.597l29.58-44.89v52.64h22.969V0H80.171L52.538 44.437 24.919 0H0v89.118h22.665z" transform="translate(0 .028)" fill="url(#E)"/></g><path d="M40.191256 26V.00816575h-.202087L40.191256 26z" fill="url(#F)" transform="matrix(.92308 0 0 .92308 4.5 5.792e-7)"/><path d="M30.498038 26V.00816575h-.202378L30.498038 26z" fill="url(#G)" transform="matrix(.92308 0 0 .92308 4.5 5.792e-7)"/><path d="M33.661457 26L33.479985.00816544V26h.181472z" fill="url(#H)" transform="matrix(.92308 0 0 .92308 4.5 5.792e-7)"/><path d="M.18147199 26L0 .00816523V26h.18147199z" fill="url(#I)" transform="matrix(.92308 0 0 .92308 4.5 5.792e-7)"/><path d="M68.455301 26L50.714599.00816575 68.288057 26h.167244z" fill="url(#J)" transform="matrix(.92308 0 0 .92308 4.5 5.792e-7)"/><path d="M43.106713.00816575h-.238382L60.607872 26 43.106713.00816575z" fill="url(#K)" transform="matrix(.92308 0 0 .92308 4.5 5.792e-7)"/><g transform="matrix(.26802 0 0 .26922 4.5 0)" clip-path="url(#L)"><path d="M61.1 89.118L0 0l60.525 89.118h.575z" transform="translate(235.846)" fill="url(#M)"/><path d="M.822 0H0l61.097 89.118L.822 0z" transform="translate(208.823)" fill="url(#N)"/></g><g transform="matrix(.26802 0 0 .26922 4.5067004952 .0075381944)" clip-path="url(#O)"><path d="M61.1 89.118L0 0l60.525 89.118h.575z" transform="translate(297.057)" fill="url(#P)"/><path d="M.821 0H0l61.097 89.118L.821 0z" transform="translate(270.034)" fill="url(#Q)"/></g><path d="M23.843387 10.647207V26h.169278l-.169278-15.352793z" fill="url(#R)" transform="matrix(.92308 0 0 .92308 4.5 5.792e-7)"/><path d="M6.5794485 26V10.779036l-.1443065-.212326L6.5794485 26z" fill="url(#S)" transform="matrix(.92308 0 0 .92308 4.5 5.792e-7)"/><path d="M15.255551 13.158953L23.278066.00816575 15.254681 12.968501 7.2353609.00816575 15.255551 13.158953z" fill="url(#T)" transform="matrix(.92308 0 0 .92308 4.5 5.792e-7)"/><path d="M6.5809004 10.779036l8.5004386 12.960627h.173342l8.588706-13.092455-8.667102 12.999124-8.5953846-12.867296z" fill="url(#U)" transform="matrix(.92308 0 0 .92308 4.5 5.792e-7)"/></svg>