<!-- Created with Inkscape (http://www.inkscape.org/) -->
<svg id="svg3055" width="28" height="28" version="1.1" xmlns="http://www.w3.org/2000/svg"><g id="g3057" transform="matrix(.5608 0 0 .5608 .54074 .17638)" fill="#b4b4b4"><path id="path3059" d="m7.803 28.329 5.8984-1.0997c0.93362-0.1741 1.8254 0.4374 1.9995 1.371l2.0424 10.954c0.17408 0.9336-0.4374 1.8253-1.371 1.9994l-5.8983 1.0997c-0.93362 0.1741-1.8254-0.4374-1.9995-1.371l-2.0424-10.954c-0.17408-0.9336 0.4374-1.8253 1.371-1.9994z"/><path id="path3061" d="m24 6.6161c-9.5795 0-17.384 7.8042-17.384 17.384 0 1.0953 0.099938 2.1491 0.29464 3.1875 0.82904 4.5144 1.6872 9.0229 2.5714 13.527l3.7768-0.7232c-0.81544-4.6088-1.9176-9.5084-2.5714-13.741-0.1264-0.7369-0.21429-1.4706-0.21429-2.25 0-7.4947 6.0322-13.527 13.527-13.527s13.527 6.0321 13.527 13.527c0 0.7794-0.08788 1.5131-0.21429 2.25-0.65388 4.2327-1.756 9.1323-2.5714 13.741l3.7768 0.7232c0.88419-4.5039 1.7424-9.0124 2.5714-13.527 0.1947-1.0384 0.29464-2.0922 0.29464-3.1875 0-9.5797-7.8044-17.384-17.384-17.384z" color="#000000" style="block-progression:tb;text-indent:0;text-transform:none"/><path id="path3063" d="m40.197 28.329-5.8984-1.0998c-0.93362-0.174-1.8254 0.4374-1.9995 1.371l-2.0424 10.954c-0.17408 0.9336 0.4374 1.8253 1.371 1.9994l5.8983 1.0997c0.93362 0.1739 1.8254-0.4374 1.9995-1.3711l2.0424-10.954c0.17408-0.9334-0.4374-1.8253-1.371-1.9992z"/></g></svg>
