<!-- Created with Inkscape (http://www.inkscape.org/) -->
<svg id="svg3219" width="20" height="30" version="1.1" xmlns="http://www.w3.org/2000/svg"><g id="g6032" fill="#888"><path id="path5834" d="m10.239 8.75 1.5603 19.25-3.5997 1e-6 1.5646-19.25"/><path id="path3245" d="m12 8c0 1.1046-0.89543 2-2 2-1.1046 0-2-0.89543-2-2 0-1.1046 0.89543-2 2-2 1.1046 0 2 0.89543 2 2z"/><path id="path3247" d="m4.9688 1.7812c-0.46983 0.37272-0.88558 0.83607-1.2712 1.2695-0.34677 0.53773-0.75072 1.0428-0.97317 1.6505-0.31642 0.65805-0.53809 1.3539-0.63065 2.08-0.14628 0.83028-0.10783 1.6845 0.013835 2.5158 0.30628 1.9073 1.3517 3.682 2.8299 4.9217 0.26042-0.32292 0.52083-0.64583 0.78125-0.96875-1.0985-0.93442-1.9431-2.1971-2.2728-3.6081-0.1522-0.5121-0.17992-1.0499-0.22748-1.5794 0.012454-0.66319 0.12302-1.3252 0.28153-1.9688 0.39737-1.3023 1.1834-2.4911 2.25-3.3438-0.26042-0.32292-0.52083-0.64583-0.78125-0.96875z"/><path id="path5888" d="m5 1.8125c-0.43163 0.34953-0.83797 0.75587-1.1875 1.1875-2.7581 3.406-2.2185 8.4294 1.1875 11.188l0.75-0.9375c-2.902-2.35-3.35-6.598-1-9.5l0.09375-0.09375c0.27528-0.32661 0.57414-0.63731 0.90625-0.90625l-0.75-0.9375z" color="#000000" style="block-progression:tb;text-indent:0;text-transform:none"/><path id="path5908" d="m6.875 4.1562c-0.26844 0.21737-0.50138 0.45031-0.71875 0.71875-1.7136 2.1161-1.3974 5.2552 0.71875 6.9688l0.78125-0.9375c-1.6121-1.3055-1.868-3.6379-0.5625-5.25 0.16461-0.20327 0.35923-0.39789 0.5625-0.5625l-0.78125-0.9375z" color="#000000" style="block-progression:tb;text-indent:0;text-transform:none"/><path id="path5888-5" d="m15 1.8125c0.43163 0.34953 0.83797 0.75587 1.1875 1.1875 2.7581 3.406 2.2185 8.4294-1.1875 11.188l-0.75-0.9375c2.902-2.35 3.35-6.598 1-9.5l-0.09375-0.09375c-0.27528-0.32661-0.57414-0.63731-0.90625-0.90625l0.75-0.9375z" color="#000000" style="block-progression:tb;text-indent:0;text-transform:none"/><path id="path5908-3" d="m13.125 4.1562c0.26844 0.21737 0.50138 0.45031 0.71875 0.71875 1.7136 2.1161 1.3974 5.2552-0.71875 6.9688l-0.78125-0.9375c1.6121-1.3055 1.868-3.6379 0.5625-5.25-0.1646-0.20327-0.35923-0.39789-0.5625-0.5625l0.78125-0.9375z" color="#000000" style="block-progression:tb;text-indent:0;text-transform:none"/></g></svg>
