<?xml version="1.0" encoding="UTF-8" standalone="no"?>
<svg
   xmlns:dc="http://purl.org/dc/elements/1.1/"
   xmlns:cc="http://creativecommons.org/ns#"
   xmlns:rdf="http://www.w3.org/1999/02/22-rdf-syntax-ns#"
   xmlns:svg="http://www.w3.org/2000/svg"
   xmlns="http://www.w3.org/2000/svg"
   xmlns:sodipodi="http://sodipodi.sourceforge.net/DTD/sodipodi-0.dtd"
   xmlns:inkscape="http://www.inkscape.org/namespaces/inkscape"
   version="1.1"
   viewBox="0 0 18 18"
   id="svg2"
   inkscape:version="0.48.4 r9939"
   sodipodi:docname="btn_fx_focus_off_hover.svg"
   width="100%"
   height="100%">
  <metadata
     id="metadata12">
    <rdf:RDF>
      <cc:Work
         rdf:about="">
        <dc:format>image/svg+xml</dc:format>
        <dc:type
           rdf:resource="http://purl.org/dc/dcmitype/StillImage" />
        <dc:title />
      </cc:Work>
    </rdf:RDF>
  </metadata>
  <defs
     id="defs10" />
  <sodipodi:namedview
     pagecolor="#ffffff"
     bordercolor="#666666"
     borderopacity="1"
     objecttolerance="10"
     gridtolerance="10"
     guidetolerance="10"
     inkscape:pageopacity="0"
     inkscape:pageshadow="2"
     inkscape:window-width="1366"
     inkscape:window-height="746"
     id="namedview8"
     showgrid="false"
     inkscape:zoom="4"
     inkscape:cx="-8.8458701"
     inkscape:cy="25.398874"
     inkscape:window-x="0"
     inkscape:window-y="0"
     inkscape:window-maximized="1"
     inkscape:current-layer="svg2"
     inkscape:snap-page="true"
     inkscape:snap-object-midpoints="true"
     inkscape:snap-bbox="true"
     inkscape:snap-center="true"
     inkscape:object-nodes="true" />
  <path
     style="fill:#d2d2d2;fill-opacity:1"
     d="M 4.53125 3.5625 L 3.5625 4.53125 C 4.6563942 5.625144 5.6875 7.569258 5.6875 9 C 5.6875 10.430742 4.6563942 12.374856 3.5625 13.46875 L 4.53125 14.4375 C 5.625144 13.343606 7.569258 12.3125 9 12.3125 C 10.430742 12.3125 12.374856 13.343606 13.46875 14.4375 L 14.4375 13.46875 C 13.343606 12.374856 12.3125 10.430742 12.3125 9 C 12.3125 7.569258 13.343606 5.625144 14.4375 4.53125 L 13.46875 3.5625 C 12.374856 4.6563942 10.430742 5.6875 9 5.6875 C 7.5692579 5.6875 5.6251442 4.6563942 4.53125 3.5625 z M 6.5 6.5 C 7.3471501 6.8669366 8.2222372 7.0937385 9 7.09375 C 9.7777629 7.0937385 10.65285 6.8669366 11.5 6.5 C 11.133063 7.3471501 10.906262 8.2222371 10.90625 9 C 10.906262 9.7777629 11.133063 10.65285 11.5 11.5 C 10.65285 11.133063 9.7777629 10.906262 9 10.90625 C 8.2222371 10.906262 7.3471501 11.133063 6.5 11.5 C 6.8669366 10.65285 7.0937383 9.7777629 7.09375 9 C 7.0937383 8.2222371 6.8669366 7.3471501 6.5 6.5 z "
     id="path3909-6" />
</svg>
