<?xml version="1.0" encoding="UTF-8" standalone="no"?>
<!-- Created with Inkscape (http://www.inkscape.org/) -->

<svg
   xmlns:dc="http://purl.org/dc/elements/1.1/"
   xmlns:cc="http://creativecommons.org/ns#"
   xmlns:rdf="http://www.w3.org/1999/02/22-rdf-syntax-ns#"
   xmlns:svg="http://www.w3.org/2000/svg"
   xmlns="http://www.w3.org/2000/svg"
   xmlns:sodipodi="http://sodipodi.sourceforge.net/DTD/sodipodi-0.dtd"
   xmlns:inkscape="http://www.inkscape.org/namespaces/inkscape"
   width="48"
   height="48"
   id="svg2"
   version="1.1"
   inkscape:version="0.48.4 r9939"
   sodipodi:docname="btn_pfl_on.svg">
  <defs
     id="defs4" />
  <sodipodi:namedview
     id="base"
     pagecolor="#ffffff"
     bordercolor="#666666"
     borderopacity="1.0"
     inkscape:pageopacity="0.0"
     inkscape:pageshadow="2"
     inkscape:zoom="5.6568543"
     inkscape:cx="25.416647"
     inkscape:cy="30.732979"
     inkscape:document-units="px"
     inkscape:current-layer="g3923"
     showgrid="false"
     inkscape:snap-page="true"
     inkscape:snap-bbox="true"
     inkscape:snap-bbox-midpoints="true"
     inkscape:snap-bbox-edge-midpoints="true"
     inkscape:bbox-nodes="true"
     inkscape:bbox-paths="true"
     inkscape:snap-object-midpoints="true"
     inkscape:object-nodes="true"
     inkscape:snap-smooth-nodes="true"
     inkscape:object-paths="true"
     showguides="true"
     inkscape:guide-bbox="true"
     inkscape:window-width="1366"
     inkscape:window-height="746"
     inkscape:window-x="0"
     inkscape:window-y="0"
     inkscape:window-maximized="1" />
  <metadata
     id="metadata7">
    <rdf:RDF>
      <cc:Work
         rdf:about="">
        <dc:format>image/svg+xml</dc:format>
        <dc:type
           rdf:resource="http://purl.org/dc/dcmitype/StillImage" />
        <dc:title />
      </cc:Work>
    </rdf:RDF>
  </metadata>
  <g
     transform="translate(0,-1004.3622)"
     id="g3923"
     inkscape:groupmode="layer"
     inkscape:label="OFF"
     style="display:inline">
    <path
       style="fill:#d2d2d2;fill-opacity:1;fill-rule:nonzero;stroke:none;display:inline"
       d="m 7.8030445,1032.6914 5.8983505,-1.0997 c 0.933625,-0.1741 1.825384,0.4374 1.999461,1.371 l 2.042415,10.9541 c 0.174077,0.9336 -0.4374,1.8253 -1.371025,1.9994 l -5.898349,1.0997 c -0.9336244,0.1741 -1.825383,-0.4374 -1.9994607,-1.371 l -2.0424167,-10.9541 c -0.1740766,-0.9336 0.4374005,-1.8253 1.3710249,-1.9994 z"
       id="rect6598"
       inkscape:connector-curvature="0" />
    <path
       style="font-size:medium;font-style:normal;font-variant:normal;font-weight:normal;font-stretch:normal;text-indent:0;text-align:start;text-decoration:none;line-height:normal;letter-spacing:normal;word-spacing:normal;text-transform:none;direction:ltr;block-progression:tb;writing-mode:lr-tb;text-anchor:start;baseline-shift:baseline;color:#000000;fill:#d2d2d2;fill-opacity:1;stroke:none;stroke-width:0.5;marker:none;visibility:visible;display:inline;overflow:visible;enable-background:accumulate;font-family:Sans;-inkscape-font-specification:Sans"
       d="m 24,1010.9783 c -9.57953,0 -17.3839286,7.8042 -17.3839286,17.3839 0,1.0953 0.099938,2.1491 0.2946429,3.1875 0.8290445,4.5144 1.6872351,9.0229 2.5714286,13.5268 l 3.7767861,-0.7232 c -0.815437,-4.6088 -1.91755,-9.5084 -2.571429,-13.7411 -0.126402,-0.7369 -0.214286,-1.4706 -0.214286,-2.25 0,-7.4947 6.032153,-13.5268 13.526786,-13.5268 7.494633,0 13.526786,6.0321 13.526786,13.5268 0,0.7794 -0.08788,1.5131 -0.214286,2.25 -0.653879,4.2327 -1.755992,9.1323 -2.571429,13.7411 l 3.776786,0.7232 c 0.884194,-4.5039 1.742384,-9.0124 2.571429,-13.5268 0.194704,-1.0384 0.294643,-2.0922 0.294643,-3.1875 0,-9.5797 -7.804399,-17.3839 -17.383929,-17.3839 z"
       id="path3925"
       inkscape:connector-curvature="0" />
    <path
       style="fill:#d2d2d2;fill-opacity:1;fill-rule:nonzero;stroke:none;display:inline"
       d="m 40.196955,1032.6915 -5.89835,-1.0998 c -0.933625,-0.174 -1.825384,0.4374 -1.999461,1.371 l -2.042415,10.9542 c -0.174077,0.9336 0.4374,1.8253 1.371025,1.9994 l 5.898349,1.0997 c 0.933624,0.1739 1.825383,-0.4374 1.99946,-1.3711 l 2.042417,-10.9542 c 0.174077,-0.9334 -0.437401,-1.8253 -1.371025,-1.9992 z"
       id="rect6598-7"
       inkscape:connector-curvature="0" />
  </g>
</svg>
