<?xml version="1.0" encoding="UTF-8" standalone="no"?>
<!-- Created with Inkscape (http://www.inkscape.org/) -->

<svg
   xmlns:dc="http://purl.org/dc/elements/1.1/"
   xmlns:cc="http://creativecommons.org/ns#"
   xmlns:rdf="http://www.w3.org/1999/02/22-rdf-syntax-ns#"
   xmlns:svg="http://www.w3.org/2000/svg"
   xmlns="http://www.w3.org/2000/svg"
   xmlns:sodipodi="http://sodipodi.sourceforge.net/DTD/sodipodi-0.dtd"
   xmlns:inkscape="http://www.inkscape.org/namespaces/inkscape"
   width="20"
   height="30"
   id="svg2"
   version="1.1"
   inkscape:version="0.48.4 r9939"
   sodipodi:docname="btn_broadcast_connected.svg"
   inkscape:export-xdpi="90"
   inkscape:export-ydpi="90">
  <defs
     id="defs4" />
  <sodipodi:namedview
     id="base"
     pagecolor="#ffffff"
     bordercolor="#666666"
     borderopacity="1.0"
     inkscape:pageopacity="0.0"
     inkscape:pageshadow="2"
     inkscape:zoom="15.999999"
     inkscape:cx="12.452076"
     inkscape:cy="14.717749"
     inkscape:document-units="px"
     inkscape:current-layer="layer1"
     showgrid="false"
     inkscape:snap-bbox="true"
     inkscape:snap-bbox-midpoints="true"
     inkscape:snap-center="true"
     inkscape:snap-page="true"
     inkscape:bbox-nodes="true"
     inkscape:object-paths="true"
     inkscape:object-nodes="true"
     inkscape:snap-smooth-nodes="true"
     inkscape:window-width="1366"
     inkscape:window-height="746"
     inkscape:window-x="0"
     inkscape:window-y="0"
     inkscape:window-maximized="1"
     inkscape:snap-bbox-edge-midpoints="true" />
  <metadata
     id="metadata7">
    <rdf:RDF>
      <cc:Work
         rdf:about="">
        <dc:format>image/svg+xml</dc:format>
        <dc:type
           rdf:resource="http://purl.org/dc/dcmitype/StillImage" />
        <dc:title />
      </cc:Work>
    </rdf:RDF>
  </metadata>
  <g
     inkscape:label="Layer 1"
     inkscape:groupmode="layer"
     id="layer1"
     transform="translate(0,-1022.3622)">
    <path
       sodipodi:type="arc"
       style="fill:#00c800;fill-opacity:1;fill-rule:nonzero;stroke:none"
       id="path2990"
       sodipodi:cx="9.7333946"
       sodipodi:cy="7.3453302"
       sodipodi:rx="1.314405"
       sodipodi:ry="1.2975045"
       d="m 11.0478,7.3453302 c 0,0.716592 -0.58848,1.2975046 -1.3144054,1.2975046 -0.7259258,0 -1.3144049,-0.5809126 -1.3144049,-1.2975046 0,-0.7165919 0.5884791,-1.2975045 1.3144049,-1.2975045 0.7259254,0 1.3144054,0.5809126 1.3144054,1.2975045 z"
       transform="matrix(1.5216011,0,0,1.5414204,-4.810344,1019.04)" />
    <path
       style="fill:#ff8605;fill-opacity:1;fill-rule:nonzero;stroke:none"
       d="m 3.782847,1025.3276 c -2.7805093,3.4338 -2.2510804,8.4713 1.182598,11.2519 l 0.7745451,-0.9565 c -2.905412,-2.3528 -3.3534014,-6.6154 -1.0006588,-9.5207 l -0.9564843,-0.7747 z m 10.477163,-0.2261 c 2.905412,2.3528 3.353401,6.6154 1.000659,9.5207 l 0.956485,0.7747 c 2.780508,-3.4338 2.25108,-8.4713 -1.182599,-11.2519 l -0.774545,0.9565 z"
       id="path3809-3-3"
       inkscape:connector-curvature="0" />
    <path
       style="fill:#e0c100;fill-opacity:1;fill-rule:nonzero;stroke:none"
       d="m 6.1740553,1027.2641 c -1.7110755,2.113 -1.3852107,5.2131 0.7277604,6.9241 l 0.774545,-0.9565 c -1.5848029,-1.2834 -1.8291194,-3.6083 -0.5458143,-5.1931 l -0.9564911,-0.7745 z m 6.1495847,0.2287 c 1.584708,1.2833 1.82912,3.6083 0.545815,5.1931 l 0.95649,0.7745 c 1.711075,-2.113 1.38521,-5.2131 -0.727761,-6.9241 l -0.774544,0.9565 z"
       id="path3809-3-6-5"
       inkscape:connector-curvature="0" />
    <path
       sodipodi:type="star"
       style="fill:#00c800;fill-opacity:1;fill-rule:nonzero;stroke:none"
       id="path3039"
       sodipodi:sides="3"
       sodipodi:cx="-7.6250005"
       sodipodi:cy="5.937499"
       sodipodi:r1="9.5131493"
       sodipodi:r2="4.7565746"
       sodipodi:arg1="1.5707963"
       sodipodi:arg2="2.6179939"
       inkscape:flatsided="true"
       inkscape:rounded="0"
       inkscape:randomized="0"
       d="M -7.6250002,15.450648 -15.86363,1.1809246 l 16.47725833,-4e-7 z"
       transform="matrix(-0.21846204,0,0,-1.5417196,8.3342268,1052.1828)"
       inkscape:transform-center-y="-3.666742" />
    <path
       style="fill:#ff8605;fill-opacity:1;fill-rule:nonzero;stroke:none"
       d="m 16.217154,1025.3276 c 2.780508,3.4338 2.25108,8.4713 -1.182599,11.2519 l -0.774545,-0.9565 c 2.905412,-2.3528 3.353401,-6.6154 1.000659,-9.5207 l 0.956485,-0.7747 z M 5.73999,1025.1015 c -2.9054122,2.3528 -3.3534012,6.6154 -1.0006584,9.5207 l -0.9564851,0.7747 c -2.7805084,-3.4338 -2.2510801,-8.4713 1.1825987,-11.2519 l 0.7745448,0.9565 z"
       id="path3809-3-3-7"
       inkscape:connector-curvature="0" />
    <path
       style="fill:#e0c100;fill-opacity:1;fill-rule:nonzero;stroke:none"
       d="m 13.825945,1027.2641 c 1.711075,2.113 1.38521,5.2131 -0.72776,6.9241 l -0.774545,-0.9565 c 1.584803,-1.2834 1.829119,-3.6083 0.545814,-5.1931 l 0.956491,-0.7745 z m -6.1495848,0.2287 c -1.584708,1.2833 -1.8291196,3.6083 -0.5458146,5.1931 l -0.95649,0.7745 c -1.7110757,-2.113 -1.3852108,-5.2131 0.7277607,-6.9241 l 0.7745439,0.9565 z"
       id="path3809-3-6-5-5"
       inkscape:connector-curvature="0" />
  </g>
</svg>
