<!-- Created with Inkscape (http://www.inkscape.org/) -->
<svg id="svg3315" width="24" height="24" version="1.1" xmlns="http://www.w3.org/2000/svg"><g id="g3317" fill="#888"><path id="path3319" d="m3.9015 14.165 2.9492-0.5499c0.46681-0.087 0.91269 0.2187 0.99973 0.6855l1.0212 5.4771c0.087038 0.4668-0.2187 0.9126-0.68551 0.9997l-2.9492 0.5498c-0.46681 0.087-0.91269-0.2187-0.99973-0.6855l-1.0212-5.477c-0.087038-0.4668 0.2187-0.9127 0.68551-0.9997z"/><path id="path3321" d="m12 3.3081c-4.7898 0-8.692 3.9021-8.692 8.6919 0 0.5476 0.049969 1.0745 0.14732 1.5937 0.41452 2.2572 0.84362 4.5115 1.2857 6.7634l1.8884-0.3616c-0.40772-2.3044-0.95877-4.7542-1.2857-6.8705-0.063201-0.3685-0.10714-0.7353-0.10714-1.125 0-3.7473 3.0161-6.7634 6.7634-6.7634 3.7473 0 6.7634 3.0161 6.7634 6.7634 0 0.3897-0.04394 0.7565-0.10714 1.125-0.32694 2.1163-0.878 4.5661-1.2857 6.8705l1.8884 0.3616c0.4421-2.2519 0.87119-4.5062 1.2857-6.7634 0.09735-0.5192 0.14732-1.0461 0.14732-1.5937 0-4.7898-3.9022-8.6919-8.692-8.6919z" style="block-progression:tb;text-indent:0;text-transform:none"/><path id="path3323" d="m20.098 14.165-2.9492-0.5499c-0.46681-0.087-0.91269 0.2187-0.99973 0.6855l-1.0212 5.4771c-0.08704 0.4668 0.2187 0.9127 0.68551 0.9997l2.9492 0.5499c0.46681 0.087 0.91269-0.2187 0.99973-0.6856l1.0212-5.4771c0.08704-0.4667-0.2187-0.9126-0.68551-0.9996z"/></g></svg>
