<svg width="40" height="20" version="1.1" xmlns="http://www.w3.org/2000/svg"><g fill="#d2d2d2"><path d="m26 3c-.554 0-1 .446-1 1v3h8v-3c0-.554-.446-1-1-1zm1.25 1.5c.41421 0 .75.33579.75.75s-.33579.75-.75.75-.75-.33579-.75-.75.33579-.75.75-.75zm3.5 0c.41421 0 .75.33579.75.75s-.33579.75-.75.75-.75-.33579-.75-.75.33579-.75.75-.75z" color="#000000"/><rect x="26" y="14" width="2" height="3" rx="1" ry="1"/><rect x="30" y="14" width="2" height="3" rx="1" ry="1"/><rect x="22" y="8" width="2" height="5" rx="1" ry="1" color="#000000"/><path d="m25 8v6.4219c0 .32317.223.57812.5.57812h7c.277 0 .5-.25496.5-.57812v-6.4219h-7.5z" color="#000000"/><rect x="34" y="8" width="2" height="5" rx="1" ry="1" color="#000000"/><path d="m6.4414 5.5293a.75008.75008 0 0 0-.45898.18164c-2.011 1.6874-2.7533 4.459-1.8555 6.9258.89787 2.4668 3.2479 4.1133 5.873 4.1133 2.6252 1.6e-5 4.9752-1.6465 5.873-4.1133.89785-2.4668.15554-5.2384-1.8555-6.9258a.75008.75008 0 1 0-.96289 1.1484c1.5319 1.2854 2.0941 3.3865 1.4102 5.2656-.68395 1.8791-2.4651 3.125-4.4648 3.125-1.9997 1.2e-5-3.7789-1.2459-4.4629-3.125-.68393-1.8791-.12173-3.9803 1.4102-5.2656a.75008.75008 0 0 0-.50586-1.3301z" color="#000000" color-rendering="auto" dominant-baseline="auto" image-rendering="auto" shape-rendering="auto" solid-color="#000000" style="font-feature-settings:normal;font-variant-alternates:normal;font-variant-caps:normal;font-variant-ligatures:normal;font-variant-numeric:normal;font-variant-position:normal;isolation:auto;mix-blend-mode:normal;paint-order:fill markers stroke;shape-padding:0;text-decoration-color:#000000;text-decoration-line:none;text-decoration-style:solid;text-indent:0;text-orientation:mixed;text-transform:none;white-space:normal"/><path d="m9.9883 2.7383a.75008.75008 0 0 0-.73828.76172v5a.75008.75008 0 1 0 1.5 0v-5a.75008.75008 0 0 0-.76172-.76172z" color="#000000" color-rendering="auto" dominant-baseline="auto" image-rendering="auto" shape-rendering="auto" solid-color="#000000" style="font-feature-settings:normal;font-variant-alternates:normal;font-variant-caps:normal;font-variant-ligatures:normal;font-variant-numeric:normal;font-variant-position:normal;isolation:auto;mix-blend-mode:normal;shape-padding:0;text-decoration-color:#000000;text-decoration-line:none;text-decoration-style:solid;text-indent:0;text-orientation:mixed;text-transform:none;white-space:normal"/></g></svg>
