<svg xmlns="http://www.w3.org/2000/svg" width="48" height="48" viewBox="0 0 48 48"><g fill-rule="evenodd" color="#000" fill="#d2d2d2"><path d="M6.0000000232 5.9999991605v36.0000042034h35.9999999295V5.9999991605H6.0000000232zm18.0296047387 7.9934210189c5.519898095.019911125 9.9968839345 4.5162875688 9.976974215 10.036184637-.0199118274 5.519897068-4.5169512398 9.9968833803-10.0361838156 9.9769738373-5.5198965143-.019911125-9.9968839345-4.5169504117-9.976973688-10.0361846369.0199102466-5.519895486 4.5162867744-9.9968839077 10.0361832886-9.9769738374z"/><path d="M24.007934025 21.7513896013c1.2425279557.0047617113 2.2454368717 1.0140172397 2.2406760122 2.2565449462-.0031668806 1.2425271792-1.014017237 2.2454363957-2.254957537 2.240675739-1.2425274289-.003169201-2.2470229468-1.0140172397-2.2422626142-2.2549582364.0047634943-1.2425271792 1.014017764-2.2470231055 2.256544139-2.2422624488z"/></g></svg>