<svg xmlns="http://www.w3.org/2000/svg" width="38" height="24"><defs><linearGradient id="a"><stop offset="0" stop-color="#002464"/><stop offset=".18000001" stop-color="#0872e9"/><stop offset=".81819808" stop-color="#0872e9"/><stop offset="1" stop-color="#002f64"/></linearGradient><linearGradient id="b"><stop offset="0" stop-color="#002464"/><stop offset=".18000001" stop-color="#0872e9"/><stop offset=".81819808" stop-color="#0872e9"/><stop offset="1" stop-color="#002f64"/></linearGradient><linearGradient id="c"><stop offset="0" stop-color="#002464"/><stop offset=".18000001" stop-color="#0872e9"/><stop offset=".81819808" stop-color="#0872e9"/><stop offset="1" stop-color="#002f64"/></linearGradient></defs><g fill="#d2d2d2"><path d="M32.666666816 5.4472267854l-5.333333399 5.333333427v5.3333334271l5.333333399 5.3333334271h.6666666916V5.4472267854h-.6666666915zM24.0000000258 10.6502242102h2.6666667662v5.3333346937h-2.6666667662zM4.5441582225 9.6185766426l2.0332562583-.3790842402c.3218355222-.0600150643.6292391622.1507788003.689246298.4726057046l.7040532313 3.7760540833c.0600071358.3218269043-.1507788003.629210206-.4726143225.6892252704l-2.0332557411.3790842401c-.3218353154.0600150643-.6292388175-.1507788002-.6892461947-.4726057045l-.7040538172-3.7760540833c-.060006998-.3218269043.1507789726-.629210206.472614288-.6892252704z"/><path d="M10.1275089169 2.1337226118c-3.3022177425 0-5.9925193728 2.6902329974-5.9925193728 5.9925093072 0 .3775674895.0344502326.740829263.1015681366 1.0987824093.2857849453 1.5561861362.5816170191 3.1103384476.8864127099 4.6629050652l1.3019189584-.2492986474c-.2810942217-1.5887273312-.6610102617-3.2776980898-.8864130201-4.7367777146-.0435727981-.2540212573-.0738678235-.5069394232-.0738678235-.7756111125 0-2.5835433455 2.0793801275-4.6629050307 4.6629004115-4.6629050307S14.790409156 5.5426885735 14.790409156 8.126231919c0 .2686716893-.0302936465.5215898552-.0738678235.7756111125-.225402586 1.4590796248-.605318626 3.1480503834-.8864128477 4.7367777146l1.3019187516.2492986474c.3047958631-1.5525666176.60062773-3.106718929.8864128477-4.6629050652.0671175938-.3579531463.1015681711-.7212149198.1015681711-1.0987824093 0-3.3022763098-2.6903015959-5.9925093072-5.9925193383-5.9925093072z" style="text-indent:0;text-align:start;line-height:normal;text-transform:none;block-progression:tb;marker:none;-inkscape-font-specification:Sans" font-weight="400" color="#000" overflow="visible" font-family="Sans"/><path d="M15.7108592665 9.6186111142l-2.0332559135-.3791187118c-.3218355222-.0599805927-.6292391622.1507788003-.689246298.4726057046l-.7040532313 3.7760885549c-.0600071358.3218269043.1507788003.629210206.4726143224.6892252704l2.0332555688.3790842401c.3218351775.0599461211.6292388175-.1507788002.6892459534-.4726401761l.7040539207-3.776088555c.0600071358-.321757961-.150779145-.629210206-.4726143225-.689156327z"/><path style="text-indent:0;text-align:start;line-height:normal;text-transform:none;block-progression:tb;marker:none;-inkscape-font-specification:Sans" d="M26.53125 1.625a.50005.50005 0 0 0-.25.21875l-13.375 19.75a.50005.50005 0 1 0 .8125.5625l13.375-19.75a.50005.50005 0 0 0-.5625-.78125z" font-weight="400" color="#000" overflow="visible" font-family="Sans"/></g></svg>