<?xml version="1.0" encoding="UTF-8" standalone="no"?>
<!-- Created with Inkscape (http://www.inkscape.org/) -->

<svg
   xmlns:dc="http://purl.org/dc/elements/1.1/"
   xmlns:cc="http://creativecommons.org/ns#"
   xmlns:rdf="http://www.w3.org/1999/02/22-rdf-syntax-ns#"
   xmlns:svg="http://www.w3.org/2000/svg"
   xmlns="http://www.w3.org/2000/svg"
   xmlns:sodipodi="http://sodipodi.sourceforge.net/DTD/sodipodi-0.dtd"
   xmlns:inkscape="http://www.inkscape.org/namespaces/inkscape"
   width="20"
   height="32"
   id="svg2989"
   version="1.1"
   inkscape:version="0.48.4 r9939"
   sodipodi:docname="btn_mic_on.svg">
  <defs
     id="defs2991" />
  <sodipodi:namedview
     id="base"
     pagecolor="#ffffff"
     bordercolor="#666666"
     borderopacity="1.0"
     inkscape:pageopacity="0.0"
     inkscape:pageshadow="2"
     inkscape:zoom="8"
     inkscape:cx="-37.780583"
     inkscape:cy="18.530277"
     inkscape:document-units="px"
     inkscape:current-layer="layer1"
     showgrid="false"
     showguides="true"
     inkscape:guide-bbox="true"
     inkscape:object-nodes="true"
     inkscape:snap-page="true"
     inkscape:snap-smooth-nodes="true"
     inkscape:object-paths="true"
     inkscape:snap-intersection-paths="true"
     inkscape:window-width="1366"
     inkscape:window-height="746"
     inkscape:window-x="0"
     inkscape:window-y="0"
     inkscape:window-maximized="1" />
  <metadata
     id="metadata2994">
    <rdf:RDF>
      <cc:Work
         rdf:about="">
        <dc:format>image/svg+xml</dc:format>
        <dc:type
           rdf:resource="http://purl.org/dc/dcmitype/StillImage" />
        <dc:title />
      </cc:Work>
    </rdf:RDF>
  </metadata>
  <g
     inkscape:label="Layer 1"
     inkscape:groupmode="layer"
     id="layer1"
     transform="translate(0,-1020.3622)">
    <path
       style="font-size:medium;font-style:normal;font-variant:normal;font-weight:normal;font-stretch:normal;text-indent:0;text-align:start;text-decoration:none;line-height:normal;letter-spacing:normal;word-spacing:normal;text-transform:none;direction:ltr;block-progression:tb;writing-mode:lr-tb;text-anchor:start;baseline-shift:baseline;color:#000000;fill:#0f0f0f;fill-opacity:1;stroke:none;stroke-width:2.15524745000000006;marker:none;visibility:visible;display:inline;overflow:visible;enable-background:accumulate;font-family:Sans;-inkscape-font-specification:Sans"
       d="m 14.21875,1026.5938 a 1.0777315,1.0777315 0 0 0 -0.8125,1.7812 c 0,0 1.417964,1.7552 2.15625,4.6562 0.738286,2.9011 0.772365,6.8528 -2.25,11.4063 a 1.0834335,1.0834335 0 1 0 1.8125,1.1875 c 3.352606,-5.0511 3.386707,-9.7635 2.53125,-13.125 -0.855457,-3.3615 -2.59375,-5.5 -2.59375,-5.5 a 1.0777315,1.0777315 0 0 0 -0.84375,-0.4062 z"
       id="path4559"
       inkscape:connector-curvature="0" />
    <path
       style="font-size:medium;font-style:normal;font-variant:normal;font-weight:normal;font-stretch:normal;text-indent:0;text-align:start;text-decoration:none;line-height:normal;letter-spacing:normal;word-spacing:normal;text-transform:none;direction:ltr;block-progression:tb;writing-mode:lr-tb;text-anchor:start;baseline-shift:baseline;color:#000000;fill:#0f0f0f;fill-opacity:1;stroke:none;stroke-width:2.15524745000000006;marker:none;visibility:visible;display:inline;overflow:visible;enable-background:accumulate;font-family:Sans;-inkscape-font-specification:Sans"
       d="m 9.5625,1029.8438 a 1.0777315,1.0777315 0 0 0 -0.59375,1.75 c 0,0 0.8650684,1.0396 1.3125,2.7812 0.447432,1.7416 0.481848,4.0749 -1.375,6.8125 a 1.0791294,1.0791294 0 1 0 1.78125,1.2187 c 2.19782,-3.2403 2.222485,-6.3584 1.65625,-8.5624 -0.566235,-2.2041 -1.71875,-3.5938 -1.71875,-3.5938 a 1.0777315,1.0777315 0 0 0 -1.0625,-0.4062 z"
       id="path4561"
       inkscape:connector-curvature="0" />
    <path
       style="font-size:medium;font-style:normal;font-variant:normal;font-weight:normal;font-stretch:normal;text-indent:0;text-align:start;text-decoration:none;line-height:normal;letter-spacing:normal;word-spacing:normal;text-transform:none;direction:ltr;block-progression:tb;writing-mode:lr-tb;text-anchor:start;baseline-shift:baseline;color:#000000;fill:#0f0f0f;fill-opacity:1;stroke:none;stroke-width:2.15524745000000006;marker:none;visibility:visible;display:inline;overflow:visible;enable-background:accumulate;font-family:Sans;-inkscape-font-specification:Sans"
       d="m 5.5625,1032.8125 a 1.0777315,1.0777315 0 0 0 -0.71875,1.7813 c 0,0 0.3016823,0.372 0.46875,1.0312 0.1670677,0.6592 0.2021476,1.4937 -0.53125,2.5938 a 1.0777315,1.0777315 0 1 0 1.78125,1.1874 c 1.0672756,-1.6008 1.1268506,-3.1955 0.84375,-4.3124 C 7.1231494,1033.9768 6.5,1033.2187 6.5,1033.2188 a 1.0777315,1.0777315 0 0 0 -0.9375,-0.4063 z"
       id="path4563"
       inkscape:connector-curvature="0" />
  </g>
</svg>
