<?xml version="1.0" encoding="UTF-8" standalone="no"?>
<!-- Created with Inkscape (http://www.inkscape.org/) -->

<svg
   xmlns:dc="http://purl.org/dc/elements/1.1/"
   xmlns:cc="http://creativecommons.org/ns#"
   xmlns:rdf="http://www.w3.org/1999/02/22-rdf-syntax-ns#"
   xmlns:svg="http://www.w3.org/2000/svg"
   xmlns="http://www.w3.org/2000/svg"
   xmlns:sodipodi="http://sodipodi.sourceforge.net/DTD/sodipodi-0.dtd"
   xmlns:inkscape="http://www.inkscape.org/namespaces/inkscape"
   width="32"
   height="32"
   id="svg2"
   version="1.1"
   inkscape:version="0.48.4 r9939"
   sodipodi:docname="btn_master.svg">
  <defs
     id="defs4" />
  <sodipodi:namedview
     id="base"
     pagecolor="#ffffff"
     bordercolor="#666666"
     borderopacity="1.0"
     inkscape:pageopacity="0.0"
     inkscape:pageshadow="2"
     inkscape:zoom="5.6568542"
     inkscape:cx="-28.688285"
     inkscape:cy="17.649698"
     inkscape:document-units="px"
     inkscape:current-layer="g3923"
     showgrid="false"
     inkscape:snap-page="true"
     inkscape:snap-bbox="true"
     inkscape:snap-bbox-midpoints="true"
     inkscape:snap-bbox-edge-midpoints="true"
     inkscape:bbox-nodes="true"
     inkscape:bbox-paths="true"
     inkscape:snap-object-midpoints="true"
     inkscape:object-nodes="true"
     inkscape:snap-smooth-nodes="true"
     inkscape:object-paths="true"
     showguides="true"
     inkscape:guide-bbox="true"
     inkscape:window-width="1366"
     inkscape:window-height="746"
     inkscape:window-x="0"
     inkscape:window-y="0"
     inkscape:window-maximized="1"
     inkscape:snap-global="true" />
  <metadata
     id="metadata7">
    <rdf:RDF>
      <cc:Work
         rdf:about="">
        <dc:format>image/svg+xml</dc:format>
        <dc:type
           rdf:resource="http://purl.org/dc/dcmitype/StillImage" />
        <dc:title />
      </cc:Work>
    </rdf:RDF>
  </metadata>
  <g
     inkscape:groupmode="layer"
     id="layer1"
     inkscape:label="headphone"
     style="display:none"
     transform="translate(0,-24)">
    <path
       inkscape:connector-curvature="0"
       style="font-size:medium;font-style:normal;font-variant:normal;font-weight:normal;font-stretch:normal;text-indent:0;text-align:start;text-decoration:none;line-height:normal;letter-spacing:normal;word-spacing:normal;text-transform:none;direction:ltr;block-progression:tb;writing-mode:lr-tb;text-anchor:start;baseline-shift:baseline;color:#000000;fill:#0f0f0f;fill-opacity:1;stroke:none;stroke-width:0.5;marker:none;visibility:visible;display:inline;overflow:visible;enable-background:accumulate;font-family:Sans;-inkscape-font-specification:Sans"
       d="M 28,7.71875 C 16.823882,7.71875 7.71875,16.8237 7.71875,28 c 0,1.2779 0.1165944,2.50725 0.34375,3.71875 l 0.3125,1.6875 c -0.6845218,0.420478 -1.0961337,1.22385 -0.9375,2.0625 l 2.40625,12.625 c 0.205406,1.085923 1.226577,1.799156 2.3125,1.59375 l 4.5,-0.84375 C 17.742173,48.638344 18.455406,47.585923 18.25,46.5 L 15.84375,33.875 c -0.205406,-1.085923 -1.226577,-1.799156 -2.3125,-1.59375 L 12.75,32.4375 12.46875,30.90625 12.40625,30.625 l 0.0625,0 c -0.147469,-0.8597 -0.25,-1.7157 -0.25,-2.625 0,-8.7438 7.037512,-15.78125 15.78125,-15.78125 8.743738,-10e-5 15.78125,7.03745 15.78125,15.78125 0,1.0064 -0.104443,1.95805 -0.28125,2.90625 L 43.21875,32.4375 42.375,32.28125 c -1.085942,-0.205406 -2.13834,0.507827 -2.34375,1.59375 l -2.375,12.625 c -0.20541,1.085923 0.476558,2.138344 1.5625,2.34375 l 4.5,0.84375 c 1.085942,0.205406 2.10709,-0.507827 2.3125,-1.59375 l 2.40625,-12.625 C 48.58978,34.663705 48.258808,33.870614 47.625,33.4375 l 0.25,-1.40625 -0.03125,0 0.0625,-0.3125 C 48.134161,30.50325 48.28125,29.2738 48.28125,28 48.28125,16.8237 39.176117,7.71875 28,7.71875 z"
       id="path3925" />
  </g>
  <g
     transform="translate(0,-1020.3622)"
     id="g3923"
     inkscape:groupmode="layer"
     inkscape:label="OFF"
     style="display:inline">
    <path
       style="fill:#d2d2d2;fill-opacity:1;stroke:none"
       d="m 17.04677,1025.4038 -7.2657371,7.2657 0,7.2658 7.2657371,7.2657 0.908217,0 0,-21.7972 -0.908217,0 z"
       id="path2991"
       inkscape:connector-curvature="0" />
    <rect
       style="fill:#d2d2d2;fill-opacity:1;fill-rule:nonzero;stroke:none;display:inline"
       id="rect3783-5"
       width="3.8254695"
       height="7.2657199"
       x="4.9991956"
       y="1032.6694"
       rx="0.99999988"
       ry="0.99999988" />
    <path
       style="fill:#d2d2d2;fill-opacity:1;fill-rule:nonzero;stroke:none"
       d="m 21.212613,1027.3664 -0.50807,1.3598 c 3.135597,1.126 5.379566,4.1114 5.379566,7.636 0,3.5081 -2.22216,6.4828 -5.334737,7.6211 l 0.493128,1.3598 c 3.65926,-1.3437 6.27616,-4.8574 6.27616,-8.9809 0,-4.1353 -2.630324,-7.6607 -6.306047,-8.9958 z"
       id="path4069"
       inkscape:connector-curvature="0" />
    <path
       style="fill:#d2d2d2;fill-opacity:1;fill-rule:nonzero;stroke:none;display:inline"
       d="m 20.226359,1030.0711 -0.493127,1.3449 c 2.025679,0.7309 3.481775,2.6684 3.481775,4.9462 0,2.261 -1.434677,4.1882 -3.436946,4.9313 l 0.478184,1.3449 c 2.562972,-0.9378 4.393313,-3.3885 4.393313,-6.2762 0,-2.8996 -1.843697,-5.362 -4.423199,-6.2911 z"
       id="path4069-6"
       inkscape:connector-curvature="0" />
    <rect
       style="fill:#d2d2d2;fill-opacity:1;fill-rule:nonzero;stroke:none"
       id="rect4933"
       width="1.9127347"
       height="24.865553"
       x="16.998619"
       y="1023.9294"
       rx="1.9999998"
       ry="1.9999998" />
  </g>
</svg>
