<?xml version="1.0" encoding="UTF-8" standalone="no"?>
<!-- Created with Inkscape (http://www.inkscape.org/) -->

<svg
   xmlns:dc="http://purl.org/dc/elements/1.1/"
   xmlns:cc="http://creativecommons.org/ns#"
   xmlns:rdf="http://www.w3.org/1999/02/22-rdf-syntax-ns#"
   xmlns:svg="http://www.w3.org/2000/svg"
   xmlns="http://www.w3.org/2000/svg"
   xmlns:sodipodi="http://sodipodi.sourceforge.net/DTD/sodipodi-0.dtd"
   xmlns:inkscape="http://www.inkscape.org/namespaces/inkscape"
   width="36"
   height="32"
   id="svg2"
   version="1.1"
   inkscape:version="0.48.4 r9939"
   sodipodi:docname="btn_booth.svg">
  <defs
     id="defs4" />
  <sodipodi:namedview
     id="base"
     pagecolor="#ffffff"
     bordercolor="#666666"
     borderopacity="1.0"
     inkscape:pageopacity="0.0"
     inkscape:pageshadow="2"
     inkscape:zoom="2.8284271"
     inkscape:cx="11.320291"
     inkscape:cy="4.858766"
     inkscape:document-units="px"
     inkscape:current-layer="g3923"
     showgrid="false"
     inkscape:snap-page="true"
     inkscape:snap-bbox="true"
     inkscape:snap-bbox-midpoints="true"
     inkscape:snap-bbox-edge-midpoints="true"
     inkscape:bbox-nodes="true"
     inkscape:bbox-paths="true"
     inkscape:snap-object-midpoints="true"
     inkscape:object-nodes="true"
     inkscape:snap-smooth-nodes="true"
     inkscape:object-paths="true"
     showguides="true"
     inkscape:guide-bbox="true"
     inkscape:window-width="888"
     inkscape:window-height="422"
     inkscape:window-x="157"
     inkscape:window-y="68"
     inkscape:window-maximized="0"
     inkscape:snap-global="false" />
  <metadata
     id="metadata7">
    <rdf:RDF>
      <cc:Work
         rdf:about="">
        <dc:format>image/svg+xml</dc:format>
        <dc:type
           rdf:resource="http://purl.org/dc/dcmitype/StillImage" />
        <dc:title />
      </cc:Work>
    </rdf:RDF>
  </metadata>
  <g
     inkscape:groupmode="layer"
     id="layer1"
     inkscape:label="headphone"
     style="display:none"
     transform="translate(0,-24)">
    <path
       inkscape:connector-curvature="0"
       style="font-size:medium;font-style:normal;font-variant:normal;font-weight:normal;font-stretch:normal;text-indent:0;text-align:start;text-decoration:none;line-height:normal;letter-spacing:normal;word-spacing:normal;text-transform:none;direction:ltr;block-progression:tb;writing-mode:lr-tb;text-anchor:start;baseline-shift:baseline;color:#000000;fill:#0f0f0f;fill-opacity:1;stroke:none;stroke-width:0.5;marker:none;visibility:visible;display:inline;overflow:visible;enable-background:accumulate;font-family:Sans;-inkscape-font-specification:Sans"
       d="M 28,7.71875 C 16.823882,7.71875 7.71875,16.8237 7.71875,28 c 0,1.2779 0.1165944,2.50725 0.34375,3.71875 l 0.3125,1.6875 c -0.6845218,0.420478 -1.0961337,1.22385 -0.9375,2.0625 l 2.40625,12.625 c 0.205406,1.085923 1.226577,1.799156 2.3125,1.59375 l 4.5,-0.84375 C 17.742173,48.638344 18.455406,47.585923 18.25,46.5 L 15.84375,33.875 c -0.205406,-1.085923 -1.226577,-1.799156 -2.3125,-1.59375 L 12.75,32.4375 12.46875,30.90625 12.40625,30.625 l 0.0625,0 c -0.147469,-0.8597 -0.25,-1.7157 -0.25,-2.625 0,-8.7438 7.037512,-15.78125 15.78125,-15.78125 8.743738,-10e-5 15.78125,7.03745 15.78125,15.78125 0,1.0064 -0.104443,1.95805 -0.28125,2.90625 L 43.21875,32.4375 42.375,32.28125 c -1.085942,-0.205406 -2.13834,0.507827 -2.34375,1.59375 l -2.375,12.625 c -0.20541,1.085923 0.476558,2.138344 1.5625,2.34375 l 4.5,0.84375 c 1.085942,0.205406 2.10709,-0.507827 2.3125,-1.59375 l 2.40625,-12.625 C 48.58978,34.663705 48.258808,33.870614 47.625,33.4375 l 0.25,-1.40625 -0.03125,0 0.0625,-0.3125 C 48.134161,30.50325 48.28125,29.2738 48.28125,28 48.28125,16.8237 39.176117,7.71875 28,7.71875 z"
       id="path3925" />
  </g>
  <g
     transform="translate(0,-1020.3622)"
     id="g3923"
     inkscape:groupmode="layer"
     inkscape:label="OFF"
     style="display:inline">
    <g
       style="fill:#d2d2d2;fill-opacity:1;display:inline"
       id="g3140"
       transform="matrix(1.0602767,0,0,1.0602767,-4.0836502,-60.276636)">
      <path
         inkscape:connector-curvature="0"
         id="path2991-3"
         d="m 21.177616,1022.034 -8.173954,8.1739 0,8.174 8.173954,8.174 1.021744,0 0,-24.5219 -1.021744,0 z"
         style="fill:#d2d2d2;fill-opacity:1;stroke:none" />
      <rect
         ry="0.94314992"
         rx="0.94314992"
         y="1030.2079"
         x="7.624095"
         height="8.1739349"
         width="4.3036532"
         id="rect3783-5-6"
         style="fill:#d2d2d2;fill-opacity:1;fill-rule:nonzero;stroke:none;display:inline" />
    </g>
    <g
       transform="matrix(1.1753643,0,0,1.1753643,-12.689204,1017.2919)"
       style="font-size:14px;font-style:normal;font-variant:normal;font-weight:normal;font-stretch:normal;line-height:125%;letter-spacing:0px;word-spacing:0px;fill:#d2d2d2;fill-opacity:1;stroke:none;font-family:Alpha Beta BRK;-inkscape-font-specification:Alpha Beta BRK"
       id="flowRoot3755">
      <path
         d="m 37.658,13.516653 c -9e-6,0.432009 -0.09001,0.858008 -0.27,1.278 -0.180008,0.408007 -0.414008,0.810007 -0.702,1.206 -0.276007,0.384006 -0.594007,0.762006 -0.954,1.134 -0.360006,0.360005 -0.720006,0.714005 -1.08,1.062 -0.192005,0.180004 -0.408005,0.396004 -0.648,0.648 -0.240005,0.252003 -0.468005,0.504003 -0.684,0.756 -0.216004,0.252003 -0.402004,0.498002 -0.558,0.738 -0.156004,0.228002 -0.240004,0.420002 -0.252,0.576 l 5.544,0 0,1.836 -7.938,0 c -0.012,-0.096 -0.018,-0.21 -0.018,-0.342 -10e-7,-0.144 -10e-7,-0.252 0,-0.324 -10e-7,-0.575999 0.09,-1.103998 0.27,-1.584 0.191998,-0.491998 0.437998,-0.947997 0.738,-1.368 0.299998,-0.419996 0.635997,-0.815996 1.008,-1.188 0.371997,-0.371995 0.743996,-0.737995 1.116,-1.098 0.287995,-0.275994 0.563995,-0.545994 0.828,-0.81 0.263995,-0.263993 0.491994,-0.521993 0.684,-0.774 0.203994,-0.263993 0.365994,-0.527992 0.486,-0.792 0.119994,-0.275992 0.179994,-0.557991 0.18,-0.846 -6e-6,-0.623991 -0.180006,-1.06799 -0.54,-1.332 -0.360006,-0.26399 -0.798005,-0.395989 -1.314,-0.396 -0.336004,1.1e-5 -0.648004,0.04801 -0.936,0.144 -0.288003,0.09601 -0.546003,0.21001 -0.774,0.342 -0.216003,0.13201 -0.408002,0.27001 -0.576,0.414 -0.168002,0.13201 -0.294002,0.240009 -0.378,0.324 l -1.08,-1.53 c 0.503999,-0.479989 1.091998,-0.863988 1.764,-1.152 0.683997,-0.299988 1.415996,-0.4499875 2.196,-0.4500003 1.331994,1.28e-5 2.309993,0.3180123 2.934,0.9540003 0.635992,0.624011 0.953991,1.48201 0.954,2.574"
         style="font-size:18px;font-weight:500;fill:#d2d2d2;fill-opacity:1;font-family:Ubuntu;-inkscape-font-specification:Ubuntu Medium"
         id="path3764"
         inkscape:connector-curvature="0" />
    </g>
  </g>
</svg>
