<?xml version="1.0" encoding="UTF-8" standalone="no"?>
<!-- Created with Inkscape (http://www.inkscape.org/) -->

<svg
   xmlns:dc="http://purl.org/dc/elements/1.1/"
   xmlns:cc="http://creativecommons.org/ns#"
   xmlns:rdf="http://www.w3.org/1999/02/22-rdf-syntax-ns#"
   xmlns:svg="http://www.w3.org/2000/svg"
   xmlns="http://www.w3.org/2000/svg"
   version="1.1"
   width="17.5"
   height="28"
   id="svg2">
  <metadata
     id="metadata12">
    <rdf:RDF>
      <cc:Work
         rdf:about="">
        <dc:format>image/svg+xml</dc:format>
        <dc:type
           rdf:resource="http://purl.org/dc/dcmitype/StillImage" />
        <dc:title></dc:title>
      </cc:Work>
    </rdf:RDF>
  </metadata>
  <defs
     id="defs10" />
  <path
     d="m 11.119704,5.34375 a 1.0777315,1.0777315 0 0 0 -0.625,1.75 c 0,0 1.267574,1.5216337 1.90625,4.03125 0.638676,2.509616 0.655179,5.921772 -1.96875,9.875 a 1.0834335,1.0834335 0 1 0 1.8125,1.1875 c 2.954171,-4.450772 2.974599,-8.623716 2.21875,-11.59375 -0.755849,-2.9700337 -2.28125,-4.875 -2.28125,-4.875 a 1.0777315,1.0777315 0 0 0 -1.0625,-0.375 z"
     id="path3762"
     style="font-size:medium;font-style:normal;font-variant:normal;font-weight:normal;font-stretch:normal;text-indent:0;text-align:start;text-decoration:none;line-height:normal;letter-spacing:normal;word-spacing:normal;text-transform:none;direction:ltr;block-progression:tb;writing-mode:lr-tb;text-anchor:start;baseline-shift:baseline;color:#000000;fill:#0f0f0f;fill-opacity:1;stroke:none;stroke-width:2.15524745;marker:none;visibility:visible;display:inline;overflow:visible;enable-background:accumulate;font-family:Sans;-inkscape-font-specification:Sans" />
  <path
     d="m 7.3384531,8.15625 a 1.0777315,1.0777315 0 0 0 -0.71875,1.78125 c 0,0 0.7409227,0.880028 1.125,2.375 0.3840773,1.494972 0.4159343,3.47975 -1.1875,5.84375 a 1.0791435,1.0791435 0 0 0 1.78125,1.21875 C 10.282855,16.5083 10.341336,13.738653 9.8384538,11.78125 9.3355714,9.8238472 8.3072031,8.5625 8.3072031,8.5625 a 1.0777315,1.0777315 0 0 0 -0.96875,-0.40625 z"
     id="path3760"
     style="font-size:medium;font-style:normal;font-variant:normal;font-weight:normal;font-stretch:normal;text-indent:0;text-align:start;text-decoration:none;line-height:normal;letter-spacing:normal;word-spacing:normal;text-transform:none;direction:ltr;block-progression:tb;writing-mode:lr-tb;text-anchor:start;baseline-shift:baseline;color:#000000;fill:#0f0f0f;fill-opacity:1;stroke:none;stroke-width:2.15524745;marker:none;visibility:visible;display:inline;overflow:visible;enable-background:accumulate;font-family:Sans;-inkscape-font-specification:Sans" />
  <path
     d="m 3.8697031,10.75 a 1.0777315,1.0777315 0 0 0 -0.84375,1.78125 c 0,0 0.2360667,0.295587 0.375,0.84375 0.1389333,0.548163 0.1833558,1.256249 -0.4375,2.1875 a 1.0834335,1.0834335 0 1 0 1.8125,1.1875 c 0.9547332,-1.432049 0.973714,-2.900288 0.71875,-3.90625 -0.254964,-1.005962 -0.78125,-1.65625 -0.78125,-1.65625 A 1.0777315,1.0777315 0 0 0 3.8697031,10.75 z"
     id="path6"
     style="font-size:medium;font-style:normal;font-variant:normal;font-weight:normal;font-stretch:normal;text-indent:0;text-align:start;text-decoration:none;line-height:normal;letter-spacing:normal;word-spacing:normal;text-transform:none;direction:ltr;block-progression:tb;writing-mode:lr-tb;text-anchor:start;baseline-shift:baseline;color:#000000;fill:#0f0f0f;fill-opacity:1;stroke:none;stroke-width:2.15524745;marker:none;visibility:visible;display:inline;overflow:visible;enable-background:accumulate;font-family:Sans;-inkscape-font-specification:Sans" />
</svg>
