<svg xmlns="http://www.w3.org/2000/svg" width="36" height="32"><g fill="#d2d2d2"><g transform="matrix(1.06028 0 0 1.06028 -4.0836502 -1080.638836)"><path d="M21.177616 1022.034l-8.173954 8.1739v8.174l8.173954 8.174h1.021744v-24.5219h-1.021744z"/><rect ry=".94314992" rx=".94314992" y="1030.2079" x="7.624095" height="8.1739349" width="4.3036532"/></g><g style="line-height:125%;-inkscape-font-specification:Alpha Beta BRK"><path d="M31.5726648094 12.8166913917c-.0000105783.5077679559-.1057945406 1.0084719723-.317348361 1.5021155754-.211574977.479556862-.4866102231.9520533105-.8251057386 1.4174893458-.3244087744.4513469434-.6981746218.8956346488-1.1212975422 1.3328631162-.4231382002.4231370248-.8462693482.839215987-1.269393444 1.2482368866-.2256758224.2115702754-.4795545112.4654489642-.7616360664.7616360664-.2820933088.2961953297-.5500763692.5923871333-.8039491812.8885754108-.2538833903.2961953297-.47250115.5853337721-.6558532794.8674188534-.1833615323.2679854111-.2820921335.4936553567-.2961918036.6770098368h6.5162196792v2.1579688548h-9.3300418134c-.0141043716-.1128349728-.0211565574-.246826503-.0211565574-.4019745906-.0000011754-.1692524592-.0000011754-.2961918036 0-.3808180332-.0000011754-.6770086614.105782787-1.2975998365.317348361-1.8617770512.2256675949-.5782768849.5148072127-1.1142418303.8674188534-1.6078983624.3526069393-.4936483046.7475281687-.9590925674 1.1847672144-1.3963327884.4372319935-.4372296428.8744663377-.8674129766 1.3117065588-1.2905500014.3384990416-.3243934946.6628995884-.6417418556.9732016404-.952045083.3102902984-.3102879477.5782721834-.613531937.8039491812-.9097319682.239767265-.3102879477.4301762816-.6205829475.5712270498-.9308885256.1410366638-.3243911439.2115585218-.6558427011.211565574-.9943581978-.0000070522-.733416745-.2115726262-1.2552773188-.634696722-1.5655852476-.4231382002-.3102844216-.9379465882-.4654313338-1.5444286902-.4654442628-.3949271063.000012929-.7616407679.05642924-1.1001409848.1692524592-.3385084445.1128467264-.6417524339.2468382566-.9097319682.4019745906-.2538822149.1551598412-.4795509851.3173601146-.6770098368.4866008202-.1974635531.1551598412-.345559455.2820980103-.4442877054.3808180332l-1.269393444-1.798307379c.5923824318-.564161935 1.2834954649-1.0155006508 2.0733426252-1.3540196736.8039456551-.3525951856 1.6643111473-.528899243 2.5811000028-.5289142876 1.5655781954.0000150446 2.7150833054.3737803044 3.4485188562 1.1212978948.7475222919.7334402522 1.121286964 1.7419016462 1.1212975422 3.0253877082" style="-inkscape-font-specification:Ubuntu Medium" font-size="18" font-weight="500" font-family="Ubuntu" letter-spacing="0" word-spacing="0"/></g></g></svg>