<!-- Created with Inkscape (http://www.inkscape.org/) -->
<svg id="svg2" width="17.5" height="28" version="1.1" xmlns="http://www.w3.org/2000/svg"><path id="path3762" d="m11.12 5.3438a1.0777 1.0777 0 0 0-0.625 1.75s1.2676 1.5216 1.9062 4.0312c0.63868 2.5096 0.65518 5.9218-1.9688 9.875a1.0834 1.0834 0 1 0 1.8125 1.1875c2.9542-4.4508 2.9746-8.6237 2.2188-11.594-0.75585-2.97-2.2812-4.875-2.2812-4.875a1.0777 1.0777 0 0 0-1.0625-0.375z" color="#000000" fill="#0f0f0f" style="block-progression:tb;text-indent:0;text-transform:none"/><path id="path3760" d="m7.3385 8.1562a1.0777 1.0777 0 0 0-0.71875 1.7812s0.74092 0.88003 1.125 2.375 0.41593 3.4798-1.1875 5.8438a1.0791 1.0791 0 0 0 1.7812 1.2188c1.9444-2.8667 2.0029-5.6363 1.5-7.5938-0.50288-1.9574-1.5313-3.2188-1.5313-3.2188a1.0777 1.0777 0 0 0-0.96875-0.40625z" color="#000000" fill="#0f0f0f" style="block-progression:tb;text-indent:0;text-transform:none"/><path id="path6" d="m3.8697 10.75a1.0777 1.0777 0 0 0-0.84375 1.7812s0.23607 0.29559 0.375 0.84375 0.18336 1.2562-0.4375 2.1875a1.0834 1.0834 0 1 0 1.8125 1.1875c0.95473-1.432 0.97371-2.9003 0.71875-3.9062s-0.78125-1.6562-0.78125-1.6562a1.0777 1.0777 0 0 0-0.84375-0.4375z" color="#000000" fill="#0f0f0f" style="block-progression:tb;text-indent:0;text-transform:none"/></svg>
