<svg width="20" height="20" xmlns="http://www.w3.org/2000/svg"><path d="m5 9v-6.9994h1.311v6.9994h-1.311m6 0v-1.3556l1.4-2.8h2.8667v-1.5333h-3.5778l-0.65556-1.3111h4.8444l0.7 1.3778v2.7778h-3.4556l-0.76667 1.5333h3.8778l0.65556 1.3111h-5.8889m-3.1444 9h-4.8556l0.65556-1.3111h3.5778v-1.5333h-2.0667l-0.73333-1.3111h2.8v-1.5333h-3.5778l-0.65556-1.3111h4.8556l0.68889 1.3778v4.2444l-0.68889 1.3778m7.4114 0v-2.8444h-4.2669v-1.3333l4.2225-2.8222h1.3556v7h-1.3112m0-5.4667-2.0223 1.3111h2.0223v-1.3111" fill="#888" font-family="Biting My Nails" font-size="13" font-weight="400" letter-spacing="0" word-spacing="0"/></svg>
