<svg xmlns="http://www.w3.org/2000/svg" width="22" height="22"><g fill="#888" color="#000"><path style="marker:none" d="M4 8.7111l1.0780907.6229.4551939.2634-.0001916 5.1027c-.0000165.438.328658.7667.7666423.7667L14 15.4667v-2.2999l2.577534 1.5333 2.659291 1.5333-2.659291 1.5333L14 19.2999V17l-7.7002647.0001c-1.2609013 0-2.299927-1.0391-2.299927-2.3z" overflow="visible"/><path style="text-indent:0;text-align:start;line-height:normal;text-transform:none;block-progression:tb;marker:none;-inkscape-font-specification:Sans" d="M8 2.7001V5h7.70009c1.260899 0 2.299927 1.039 2.299927 2.2999v5.9891l-1.078091-.6229-.455194-.2635V7.2999c0-.438-.328662-.7666-.766642-.7666H8v2.2999L5.3407094 7.2999 2.6814189 5.7666l2.6592905-1.5333z" font-weight="400" overflow="visible" font-family="Sans"/></g></svg>