<?xml version="1.0" encoding="UTF-8" standalone="no"?>
<!-- Created with Inkscape (http://www.inkscape.org/) -->

<svg
   xmlns:dc="http://purl.org/dc/elements/1.1/"
   xmlns:cc="http://creativecommons.org/ns#"
   xmlns:rdf="http://www.w3.org/1999/02/22-rdf-syntax-ns#"
   xmlns:svg="http://www.w3.org/2000/svg"
   xmlns="http://www.w3.org/2000/svg"
   version="1.1"
   width="32"
   height="28"
   id="svg3137">
  <metadata
     id="metadata3155">
    <rdf:RDF>
      <cc:Work
         rdf:about="">
        <dc:format>image/svg+xml</dc:format>
        <dc:type
           rdf:resource="http://purl.org/dc/dcmitype/StillImage" />
        <dc:title></dc:title>
      </cc:Work>
    </rdf:RDF>
  </metadata>
  <defs
     id="defs3153" />
  <g
     transform="matrix(0.89715685,0,0,0.89715685,-2.9374808,-913.61971)"
     id="g4"
     style="fill:#b4b4b4;fill-opacity:1">
    <path
       d="m 21.177616,1022.034 -8.173954,8.1739 v 8.174 l 8.173954,8.174 h 1.021744 v -24.5219 h -1.021744 z"
       id="path6"
       style="fill:#b4b4b4;fill-opacity:1" />
    <rect
       width="4.3036532"
       height="8.1739349"
       rx="1.1146356"
       ry="1.1146356"
       x="7.624095"
       y="1030.2079"
       id="rect8"
       style="fill:#b4b4b4;fill-opacity:1" />
  </g>
  <g
     transform="matrix(1.0740339,0,0,1.0740339,-4.8930737,-3.1291979)"
     id="g3147"
     style="line-height:125%;fill:#b4b4b4;fill-opacity:1;-inkscape-font-specification:Alpha Beta BRK">
    <path
       d="m 31.572665,12.816691 c -1.1e-5,0.507768 -0.105795,1.008472 -0.317349,1.502116 -0.211575,0.479557 -0.48661,0.952053 -0.825105,1.417489 -0.324409,0.451347 -0.698175,0.895635 -1.121298,1.332863 -0.423138,0.423137 -0.846269,0.839216 -1.269393,1.248237 -0.225676,0.211571 -0.479555,0.465449 -0.761636,0.761636 -0.282094,0.296196 -0.550077,0.592388 -0.80395,0.888576 -0.253883,0.296195 -0.472501,0.585334 -0.655853,0.867419 -0.183361,0.267985 -0.282092,0.493655 -0.296192,0.677009 h 6.51622 v 2.157969 h -9.330042 c -0.0141,-0.112835 -0.02116,-0.246826 -0.02116,-0.401974 -1e-6,-0.169253 -1e-6,-0.296192 0,-0.380818 -1e-6,-0.677009 0.105782,-1.2976 0.317348,-1.861777 0.225668,-0.578277 0.514807,-1.114242 0.867419,-1.607899 0.352607,-0.493648 0.747528,-0.959092 1.184767,-1.396332 0.437232,-0.43723 0.874466,-0.867413 1.311707,-1.29055 0.338499,-0.324394 0.662899,-0.641742 0.973201,-0.952046 0.310291,-0.310288 0.578273,-0.613532 0.80395,-0.909732 0.239767,-0.310287 0.430176,-0.620582 0.571227,-0.930888 0.141036,-0.324391 0.211558,-0.655843 0.211565,-0.994358 -7e-6,-0.733417 -0.211572,-1.255278 -0.634697,-1.565586 -0.423138,-0.310284 -0.937946,-0.465431 -1.544428,-0.465444 -0.394927,1.3e-5 -0.761641,0.05643 -1.100141,0.169253 -0.338509,0.112846 -0.641753,0.246838 -0.909732,0.401974 -0.253882,0.15516 -0.479551,0.31736 -0.67701,0.486601 -0.197464,0.15516 -0.34556,0.282098 -0.444288,0.380818 L 22.348406,10.55294 c 0.592382,-0.5641622 1.283495,-1.0155009 2.073342,-1.3540199 0.803946,-0.3525952 1.664312,-0.5288993 2.5811,-0.5289143 1.565579,1.5e-5 2.715084,0.3737803 3.448519,1.1212979 0.747523,0.7334403 1.121287,1.7419013 1.121298,3.0253873"
       id="path3149"
       style="font-size:18px;font-weight:500;letter-spacing:0;word-spacing:0;fill:#b4b4b4;fill-opacity:1;font-family:Ubuntu;-inkscape-font-specification:Ubuntu Medium" />
  </g>
</svg>
