<svg xmlns="http://www.w3.org/2000/svg" viewBox="0 0 18 18"><path d="M4.53125 3.5625l-.96875.96875C4.6563942 5.625144 5.6875 7.569258 5.6875 9s-1.0311058 3.374856-2.125 4.46875l.96875.96875C5.625144 13.343606 7.569258 12.3125 9 12.3125s3.374856 1.031106 4.46875 2.125l.96875-.96875c-1.093894-1.093894-2.125-3.038008-2.125-4.46875s1.031106-3.374856 2.125-4.46875l-.96875-.96875C12.374856 4.6563942 10.430742 5.6875 9 5.6875c-1.4307421 0-3.3748558-1.0311058-4.46875-2.125zM6.5 6.5c.8471501.3669366 1.7222372.5937385 2.5.59375.7777629-.0000115 1.65285-.2268134 2.5-.59375-.366937.8471501-.593738 1.7222371-.59375 2.5.000012.7777629.226813 1.65285.59375 2.5-.84715-.366937-1.7222371-.593738-2.5-.59375-.7777629.000012-1.6528499.226813-2.5.59375.3669366-.84715.5937383-1.7222371.59375-2.5-.0000117-.7777629-.2268134-1.6528499-.59375-2.5z" fill="#d2d2d2"/></svg>