<?xml version="1.0" encoding="UTF-8" standalone="no"?>
<!-- Created with Inkscape (http://www.inkscape.org/) -->

<svg
   xmlns:dc="http://purl.org/dc/elements/1.1/"
   xmlns:cc="http://creativecommons.org/ns#"
   xmlns:rdf="http://www.w3.org/1999/02/22-rdf-syntax-ns#"
   xmlns:svg="http://www.w3.org/2000/svg"
   xmlns="http://www.w3.org/2000/svg"
   xmlns:sodipodi="http://sodipodi.sourceforge.net/DTD/sodipodi-0.dtd"
   xmlns:inkscape="http://www.inkscape.org/namespaces/inkscape"
   version="1.1"
   width="24"
   height="24"
   id="svg2"
   inkscape:version="0.48.4 r9939"
   sodipodi:docname="btn_loop_indicator_on.svg">
  <sodipodi:namedview
     pagecolor="#ffffff"
     bordercolor="#666666"
     borderopacity="1"
     objecttolerance="10"
     gridtolerance="10"
     guidetolerance="10"
     inkscape:pageopacity="0"
     inkscape:pageshadow="2"
     inkscape:window-width="1366"
     inkscape:window-height="746"
     id="namedview4353"
     showgrid="true"
     inkscape:snap-page="true"
     inkscape:zoom="11.313708"
     inkscape:cx="16.831813"
     inkscape:cy="6.0904764"
     inkscape:window-x="0"
     inkscape:window-y="0"
     inkscape:window-maximized="1"
     inkscape:current-layer="svg2"
     inkscape:snap-object-midpoints="false"
     inkscape:snap-center="false"
     inkscape:object-nodes="true" />
  <defs
     id="defs4" />
  <metadata
     id="metadata7">
    <rdf:RDF>
      <cc:Work
         rdf:about="">
        <dc:format>image/svg+xml</dc:format>
        <dc:type
           rdf:resource="http://purl.org/dc/dcmitype/StillImage" />
        <dc:title />
      </cc:Work>
    </rdf:RDF>
  </metadata>
  <g
     id="g8193"
     transform="matrix(0.84952978,0,0,0.84952978,-0.7429467,0.95611286)">
    <path
       sodipodi:nodetypes="cccsscccccccssc"
       inkscape:connector-curvature="0"
       id="path2995-3-7"
       d="m 5.094,9.187875 1.40625,0.8125 L 7.094,10.344125 7.09375,17 c -2.15e-5,0.571293 0.428698,1 1,1 l 9.9375,0 0,-3 3.46875,2 3.46875,2 -3.46875,2 -3.46875,2 0,-3 -9.9375,0 c -1.644706,0 -3,-1.355295 -3,-3 z"
       style="color:#000000;fill:#0f0f0f;fill-opacity:1;fill-rule:nonzero;stroke:none;stroke-width:4;marker:none;visibility:visible;display:inline;overflow:visible;enable-background:accumulate" />
    <path
       sodipodi:nodetypes="ccsscccsscccccc"
       inkscape:connector-curvature="0"
       id="path3832"
       d="m 11.96875,3 0,3 9.9375,0 c 1.644703,0 3,1.355297 3,3 l 0,7.812125 -1.40625,-0.8125 -0.59375,-0.34375 0,-6.655875 c 0,-0.571297 -0.428703,-1 -1,-1 l -9.9375,0 0,3 L 8.5,9 5.03125,7 8.5,5 z"
       style="font-size:medium;font-style:normal;font-variant:normal;font-weight:normal;font-stretch:normal;text-indent:0;text-align:start;text-decoration:none;line-height:normal;letter-spacing:normal;word-spacing:normal;text-transform:none;direction:ltr;block-progression:tb;writing-mode:lr-tb;text-anchor:start;baseline-shift:baseline;color:#000000;fill:#0f0f0f;fill-opacity:1;stroke:none;stroke-width:2;marker:none;visibility:visible;display:inline;overflow:visible;enable-background:accumulate;font-family:Sans;-inkscape-font-specification:Sans" />
  </g>
</svg>
