<!-- Created with Inkscape (http://www.inkscape.org/) -->
<svg id="svg3137" width="32" height="28" version="1.1" xmlns="http://www.w3.org/2000/svg"><g id="g4" transform="matrix(.89716 0 0 .89716 -2.9375 -913.62)" fill="#b4b4b4"><path id="path6" d="m21.178 1022-8.174 8.1739v8.174l8.174 8.174h1.0217v-24.522h-1.0217z"/><rect id="rect8" x="7.6241" y="1030.2" width="4.3037" height="8.1739" rx="1.1146" ry="1.1146"/></g><g id="g3147" transform="matrix(1.074 0 0 1.074 -4.8931 -3.1292)" fill="#b4b4b4"><path id="path3149" d="m31.573 12.817c-1.1e-5 0.50777-0.1058 1.0085-0.31735 1.5021-0.21158 0.47956-0.48661 0.95205-0.8251 1.4175-0.32441 0.45135-0.69818 0.89564-1.1213 1.3329-0.42314 0.42314-0.84627 0.83922-1.2694 1.2482-0.22568 0.21157-0.47956 0.46545-0.76164 0.76164-0.28209 0.2962-0.55008 0.59239-0.80395 0.88858-0.25388 0.2962-0.4725 0.58533-0.65585 0.86742-0.18336 0.26798-0.28209 0.49366-0.29619 0.67701h6.5162v2.158h-9.33c-0.0141-0.11284-0.02116-0.24683-0.02116-0.40197-1e-6 -0.16925-1e-6 -0.29619 0-0.38082-1e-6 -0.67701 0.10578-1.2976 0.31735-1.8618 0.22567-0.57828 0.51481-1.1142 0.86742-1.6079 0.35261-0.49365 0.74753-0.95909 1.1848-1.3963 0.43723-0.43723 0.87447-0.86741 1.3117-1.2906 0.3385-0.32439 0.6629-0.64174 0.9732-0.95205 0.31029-0.31029 0.57827-0.61353 0.80395-0.90973 0.23977-0.31029 0.43018-0.62058 0.57123-0.93089 0.14104-0.32439 0.21156-0.65584 0.21156-0.99436-7e-6 -0.73342-0.21157-1.2553-0.6347-1.5656-0.42314-0.31028-0.93795-0.46543-1.5444-0.46544-0.39493 1.3e-5 -0.76164 0.05643-1.1001 0.16925-0.33851 0.11285-0.64175 0.24684-0.90973 0.40197-0.25388 0.15516-0.47955 0.31736-0.67701 0.4866-0.19746 0.15516-0.34556 0.2821-0.44429 0.38082l-1.2694-1.7983c0.59238-0.56416 1.2835-1.0155 2.0733-1.354 0.80395-0.3526 1.6643-0.5289 2.5811-0.52891 1.5656 1.5e-5 2.7151 0.37378 3.4485 1.1213 0.74752 0.73344 1.1213 1.7419 1.1213 3.0254" fill="#b4b4b4"/></g></svg>
