<?xml version="1.0" encoding="UTF-8" standalone="no"?>
<!-- Created with Inkscape (http://www.inkscape.org/) -->

<svg
   xmlns:dc="http://purl.org/dc/elements/1.1/"
   xmlns:cc="http://creativecommons.org/ns#"
   xmlns:rdf="http://www.w3.org/1999/02/22-rdf-syntax-ns#"
   xmlns:svg="http://www.w3.org/2000/svg"
   xmlns="http://www.w3.org/2000/svg"
   xmlns:sodipodi="http://sodipodi.sourceforge.net/DTD/sodipodi-0.dtd"
   xmlns:inkscape="http://www.inkscape.org/namespaces/inkscape"
   width="10"
   height="20"
   id="svg5600"
   version="1.1"
   inkscape:version="0.48.4 r9939"
   sodipodi:docname="btn_fx_selector_dots_hover.svg">
  <defs
     id="defs5602" />
  <sodipodi:namedview
     id="base"
     pagecolor="#ffffff"
     bordercolor="#666666"
     borderopacity="1.0"
     inkscape:pageopacity="0.0"
     inkscape:pageshadow="2"
     inkscape:zoom="7.9195959"
     inkscape:cx="-17.558224"
     inkscape:cy="26.06681"
     inkscape:document-units="px"
     inkscape:current-layer="layer1"
     showgrid="false"
     inkscape:window-width="1366"
     inkscape:window-height="746"
     inkscape:window-x="0"
     inkscape:window-y="0"
     inkscape:window-maximized="1" />
  <metadata
     id="metadata5605">
    <rdf:RDF>
      <cc:Work
         rdf:about="">
        <dc:format>image/svg+xml</dc:format>
        <dc:type
           rdf:resource="http://purl.org/dc/dcmitype/StillImage" />
        <dc:title />
      </cc:Work>
    </rdf:RDF>
  </metadata>
  <g
     inkscape:label="Layer 1"
     inkscape:groupmode="layer"
     id="layer1"
     transform="translate(0,-1032.3622)">
    <g
       id="g7900"
       transform="translate(0,0.99998265)">
      <path
         transform="matrix(0.36471824,0,0,0.36471824,4.3092105,1033.8968)"
         d="m 6.6922605,3.3324831 c 0,2.6499861 -2.1482383,4.7982244 -4.7982244,4.7982244 -2.64998623,0 -4.7982245,-2.1482383 -4.7982245,-4.7982244 0,-2.64998624 2.14823827,-4.7982245 4.7982245,-4.7982245 2.6499861,0 4.7982244,2.14823826 4.7982244,4.7982245 z"
         sodipodi:ry="4.7982244"
         sodipodi:rx="4.7982244"
         sodipodi:cy="3.3324831"
         sodipodi:cx="1.8940361"
         id="path5608"
         style="fill:#d2d2d2;fill-opacity:1;fill-rule:nonzero;stroke:none"
         sodipodi:type="arc" />
      <path
         transform="matrix(0.36471824,0,0,0.36471824,4.3092105,1040.1468)"
         d="m 6.6922605,3.3324831 c 0,2.6499861 -2.1482383,4.7982244 -4.7982244,4.7982244 -2.64998623,0 -4.7982245,-2.1482383 -4.7982245,-4.7982244 0,-2.64998624 2.14823827,-4.7982245 4.7982245,-4.7982245 2.6499861,0 4.7982244,2.14823826 4.7982244,4.7982245 z"
         sodipodi:ry="4.7982244"
         sodipodi:rx="4.7982244"
         sodipodi:cy="3.3324831"
         sodipodi:cx="1.8940361"
         id="path5608-3"
         style="fill:#d2d2d2;fill-opacity:1;fill-rule:nonzero;stroke:none"
         sodipodi:type="arc" />
      <path
         transform="matrix(0.36471824,0,0,0.36471824,4.3092105,1046.3968)"
         d="m 6.6922605,3.3324831 c 0,2.6499861 -2.1482383,4.7982244 -4.7982244,4.7982244 -2.64998623,0 -4.7982245,-2.1482383 -4.7982245,-4.7982244 0,-2.64998624 2.14823827,-4.7982245 4.7982245,-4.7982245 2.6499861,0 4.7982244,2.14823826 4.7982244,4.7982245 z"
         sodipodi:ry="4.7982244"
         sodipodi:rx="4.7982244"
         sodipodi:cy="3.3324831"
         sodipodi:cx="1.8940361"
         id="path5608-3-6"
         style="fill:#d2d2d2;fill-opacity:1;fill-rule:nonzero;stroke:none"
         sodipodi:type="arc" />
    </g>
  </g>
</svg>
