<svg xmlns="http://www.w3.org/2000/svg" width="24" height="24"><g fill="#0f0f0f"><path d="M3.9015194 14.1646l2.9491731-.5499c.4668122-.087.9126914.2187.9997298.6855l1.0212068 5.4771c.087038.4668-.2186999.9126-.685512.9997l-2.9491724.5498c-.4668119.087-.9126908-.2187-.9997296-.6855l-1.0212076-5.477c-.087038-.4668.2187001-.9127.6855119-.9997z"/><path style="text-indent:0;text-align:start;line-height:normal;text-transform:none;block-progression:tb;marker:none;-inkscape-font-specification:Sans" d="M11.999991 3.3081c-4.7897612 0-8.6919577 3.9021-8.6919577 8.6919 0 .5476.049969 1.0745.1473213 1.5937.414522 2.2572.843617 4.5115 1.2857134 6.7634l1.8883917-.3616c-.4077182-2.3044-.9587743-4.7542-1.2857136-6.8705-.063201-.3685-.1071429-.7353-.1071429-1.125 0-3.7473 3.0160743-6.7634 6.7633878-6.7634 3.747314 0 6.763388 3.0161 6.763388 6.7634 0 .3897-.04394.7565-.107143 1.125-.326939 2.1163-.877995 4.5661-1.285713 6.8705l1.888392.3616c.442096-2.2519.871191-4.5062 1.285713-6.7634.09735-.5192.147322-1.0461.147322-1.5937 0-4.7898-3.902197-8.6919-8.691959-8.6919z" font-weight="400" color="#000" overflow="visible" font-family="Sans"/><path d="M20.098463 14.1646l-2.949173-.5499c-.466812-.087-.912691.2187-.99973.6855l-1.021206 5.4771c-.08704.4668.218699.9127.685512.9997l2.949172.5499c.466812.087.912691-.2187.999729-.6856l1.021208-5.4771c.08704-.4667-.2187-.9126-.685512-.9996z"/></g></svg>