<?xml version="1.0" encoding="UTF-8" standalone="no"?>
<!-- Created with Inkscape (http://www.inkscape.org/) -->

<svg
   xmlns:dc="http://purl.org/dc/elements/1.1/"
   xmlns:cc="http://creativecommons.org/ns#"
   xmlns:rdf="http://www.w3.org/1999/02/22-rdf-syntax-ns#"
   xmlns:svg="http://www.w3.org/2000/svg"
   xmlns="http://www.w3.org/2000/svg"
   xmlns:sodipodi="http://sodipodi.sourceforge.net/DTD/sodipodi-0.dtd"
   xmlns:inkscape="http://www.inkscape.org/namespaces/inkscape"
   version="1.1"
   width="30"
   height="22"
   id="svg2"
   inkscape:version="0.48.4 r9939"
   sodipodi:docname="btn_reloop_off.svg">
  <sodipodi:namedview
     pagecolor="#ffffff"
     bordercolor="#666666"
     borderopacity="1"
     objecttolerance="10"
     gridtolerance="10"
     guidetolerance="10"
     inkscape:pageopacity="0"
     inkscape:pageshadow="2"
     inkscape:window-width="1366"
     inkscape:window-height="747"
     id="namedview4353"
     showgrid="false"
     inkscape:snap-page="true"
     inkscape:zoom="16"
     inkscape:cx="-0.95539"
     inkscape:cy="6.867224"
     inkscape:window-x="0"
     inkscape:window-y="21"
     inkscape:window-maximized="1"
     inkscape:current-layer="layer2"
     inkscape:snap-object-midpoints="false"
     inkscape:snap-center="false"
     inkscape:object-nodes="true"
     inkscape:object-paths="true"
     inkscape:snap-intersection-paths="true"
     showguides="false"
     inkscape:guide-bbox="true">
    <inkscape:grid
       empspacing="5"
       visible="true"
       enabled="true"
       snapvisiblegridlinesonly="true"
       type="xygrid"
       id="grid2985" />
    <sodipodi:guide
       orientation="0,1"
       position="-15,18"
       id="guide3836" />
    <sodipodi:guide
       orientation="1,0"
       position="15,12.64"
       id="guide3838" />
    <sodipodi:guide
       orientation="0,1"
       position="-2.2097087,4"
       id="guide3924" />
  </sodipodi:namedview>
  <defs
     id="defs4" />
  <metadata
     id="metadata7">
    <rdf:RDF>
      <cc:Work
         rdf:about="">
        <dc:format>image/svg+xml</dc:format>
        <dc:type
           rdf:resource="http://purl.org/dc/dcmitype/StillImage" />
        <dc:title></dc:title>
      </cc:Work>
    </rdf:RDF>
  </metadata>
  <g
     inkscape:groupmode="layer"
     id="layer1"
     inkscape:label="Layer"
     style="opacity:0.34090911;display:none"
     sodipodi:insensitive="true">
    <g
       transform="matrix(1.2438616,0,0,1.2438616,3.2292779,-1284.3648)"
       id="layer1-3">
      <g
         id="g3989"
         style="fill:#888888;fill-opacity:1">
        <path
           d="m 18.375,1038.9561 -1.09375,0.7812 -0.53125,0.375 c 0.174912,0.3826 0.25,0.8022 0.25,1.25 0,1.6569 -1.343146,3 -3,3 l -5.4375,0 0,-2.625 -1.5625,1.125 -1,0.6875 -0.75,0.5625 -1.75,1.25 1.75,1.25 0.75,0.5625 1,0.6875 1.5625,1.125 0,-2.625 5.4375,0 c 1.326074,0 2.593574,-0.531 3.53125,-1.4687 1.610902,-1.6109 1.890837,-4.0396 0.84375,-5.9375 z"
           id="path3832-5"
           style="fill:#0f0f0f;fill-opacity:1;fill-rule:nonzero;stroke:none"
           inkscape:connector-curvature="0" />
        <path
           d="m 3.625,1043.7685 1.09375,-0.7813 0.53125,-0.375 c -0.174912,-0.3826 -0.25,-0.8023 -0.25,-1.25 0,-1.6569 1.343146,-3 3,-3 l 5.4375,0 0,2.625 1.5625,-1.125 1,-0.6875 0.75,-0.5625 1.75,-1.25 -1.75,-1.25 -0.75,-0.5625 -1,-0.6875 -1.5625,-1.125 0,2.625 -5.4375,0 c -1.326074,0 -2.593574,0.531 -3.53125,1.4688 -1.610902,1.6109 -1.890837,4.0396 -0.84375,5.9375 z"
           id="path3832-5-7"
           style="fill:#0f0f0f;fill-opacity:1;fill-rule:nonzero;stroke:none"
           inkscape:connector-curvature="0" />
      </g>
    </g>
  </g>
  <g
     inkscape:groupmode="layer"
     id="layer2"
     inkscape:label="Layer#1"
     style="display:inline">
    <path
       style="color:#000000;fill:#888888;fill-opacity:1;fill-rule:nonzero;stroke:none;stroke-width:4;marker:none;visibility:visible;display:inline;overflow:visible;enable-background:accumulate"
       d="m 9.094,4.999875 c -1.644703,5.26e-5 -3,1.3552971 -3,3 l 0,7.00025 c 0,1.644705 1.355294,3.000023 3,3 l 7.93725,0 0,3 3.46875,-2 3.46875,-2 -3.46875,-2 -3.46875,-2 0,3 -7.93725,0 c -0.571302,0 -1.0000215,-0.428707 -1,-1 l 0,-7.00025 c 0,-0.5712971 0.428703,-0.9999817 1,-1 L 13,6.99975 l 0,-2 z M 17,4.99975 l 0,2 3.90625,1.25e-4 c 0.571297,1.83e-5 1.000025,0.4287029 1,1 l -2.5e-4,5.656 c 0.6663,0.386051 1.333233,0.771007 2,1.15625 l 2.5e-4,-6.81225 c 6e-5,-1.6447029 -1.355297,-2.9999474 -3,-3 z"
       id="path2995-3-7"
       inkscape:connector-curvature="0"
       sodipodi:nodetypes="sssscccccccscssccsccssccssc" />
    <path
       style="color:#000000;fill:#888888;fill-opacity:1;fill-rule:nonzero;stroke:none;stroke-width:2;marker:none;visibility:visible;display:inline;overflow:visible;enable-background:accumulate"
       d="m 14,1.99975 2,0 0,8 -2,0 z"
       id="rect3980"
       inkscape:connector-curvature="0"
       sodipodi:nodetypes="ccccc" />
  </g>
</svg>
