<svg xmlns="http://www.w3.org/2000/svg" width="30" height="22"><g color="#000" fill="#d2d2d2"><path style="marker:none" d="M5.094 7.187875l1.40625.8125.59375.34375L7.09375 15c-.0000215.571293.428698 1 1 1h9.9375v-3L21.5 15l3.46875 2L21.5 19l-3.46875 2v-3h-9.9375c-1.644706 0-3-1.355295-3-3z" overflow="visible"/><path style="text-indent:0;text-align:start;line-height:normal;text-transform:none;block-progression:tb;marker:none;-inkscape-font-specification:Sans" d="M11.96875 1v3h9.9375c1.644703 0 3 1.3552971 3 3v7.812125l-1.40625-.8125-.59375-.34375V7c0-.5712971-.428703-1-1-1h-9.9375v3L8.5 7 5.03125 5 8.5 3z" font-weight="400" overflow="visible" font-family="Sans"/></g></svg>