<svg xmlns="http://www.w3.org/2000/svg" width="20" height="24"><path d="M3.7828439 2.9654c-2.7805057 3.4336-2.25108 8.4712 1.1826037 11.2517l.7745449-.9565C2.8345695 10.9078 2.3865901 6.6453 4.7393311 3.74l-.9564872-.7746zm10.4771631-.2261c2.905413 2.3527 3.353392 6.6152 1.000661 9.5206l.956488.7746c2.780506-3.4336 2.25108-8.4712-1.182604-11.2517l-.774545.9565z" fill="#aaa"/><path d="M6.1740775 4.9019c-1.7110787 2.1131-1.3852193 5.2131.7277376 6.924l.7745555-.9564c-1.5848038-1.2834-1.82912-3.6083-.5458163-5.1931l-.9564768-.7745zm6.1495735.2287c1.584695 1.2832 1.829119 3.6083.545816 5.1931l.956476.7745c1.711079-2.1131 1.38522-5.2131-.727737-6.924l-.774555.9564z" fill="#a3a3a3"/><path d="M12.0000006326 8.000041815c0 1.1045695273-.8954318153 2.0000000595-2.0000007025 2.0000000595-1.1045694958 0-1.9999999417-.8954305322-1.9999999417-2.0000000595 0-1.1045693731.8954304459-1.9999999054 1.9999999417-1.9999999054 1.1045688872 0 2.0000007025.8954305323 2.0000007025 1.9999999054z" fill="#888"/><path d="M9.9999998987.0000331457l1.799827873 21.9999122524-3.5996554685 6.166e-7z" fill="#888"/><path d="M16.217156 2.9654c2.780506 3.4336 2.25108 8.4712-1.182604 11.2517l-.774544-.9565c2.905422-2.3528 3.353402-6.6153 1.000661-9.5206l.956487-.7746zM5.7399931 2.7393c-2.905413 2.3527-3.353392 6.6152-1.000661 9.5206l-.956488.7746c-2.780506-3.4336-2.25108-8.4712 1.182604-11.2517l.774545.9565z" fill="#aaa"/><path d="M13.825923 4.9019c1.711078 2.1131 1.385219 5.2131-.727738 6.924l-.774556-.9564c1.584804-1.2834 1.82912-3.6083.545817-5.1931l.956477-.7745zm-6.1495739.2287c-1.584695 1.2832-1.829119 3.6083-.545816 5.1931l-.956476.7745c-1.711079-2.1131-1.38522-5.2131.727737-6.924l.774555.9564z" fill="#a3a3a3"/></svg>