<svg xmlns="http://www.w3.org/2000/svg" width="20" height="30"><g fill="#fa00ee"><path d="M6.9838968 1.9166c-4.0527222 1.7568-5.914073 6.4662-4.1573296 10.5189l1.1289444-.4893C2.469053 8.517 4.0440156 4.532 7.4732641 3.0456l-.4893673-1.129zm9.3899762 4.6466c1.486471 3.4294-.08849 7.4143-3.517742 8.9007l.489368 1.129c4.052721-1.7567 5.914073-6.4662 4.157319-10.5189l-1.128945.4892z"/><path d="M8.2072658 4.739C5.7132717 5.82 4.567873 8.7182 5.648925 11.212l1.1289444-.4893c-.8108082-1.8705.048243-4.044 1.9187423-4.8549L8.2072658 4.739zm5.3442282 3.0476c.810788 1.8705-.04823 4.0441-1.918743 4.8548l.489367 1.1291c2.493984-1.0812 3.639394-3.9793 2.558321-6.4732l-1.128945.4893zM12.1543490326 9.250041815c0 1.1045695273-.8954318153 2.0000000595-2.0000007025 2.0000000595-1.1045694958 0-1.9999999417-.8954305322-1.9999999417-2.0000000595 0-1.1045693731.8954304459-1.9999999054 1.9999999417-1.9999999054 1.1045688872 0 2.0000007025.8954305323 2.0000007025 1.9999999054zM6.7564123 22.2506L12.223734 29l2.618359-2.5069-6.505651-5.7554-1.5800297 1.5129z"/><path d="M11.162161 7.543L3.2429432 18.3383l1.8636114 1.1455L11.162161 7.543zM8.5589493 1.4051c-4.3294197.8758-7.1292349 5.0953-6.2534842 9.4247l1.2060054-.2439c-.7410051-3.6633 1.6280688-7.2338 5.29142-7.9747l-.2439412-1.2061zM16.77765 7.9025c.740975 3.6635-1.628076 7.2339-5.291431 7.9748l.243942 1.2061c4.329398-.8757 7.129235-5.0953 6.253474-9.4247l-1.205985.2438z"/><path d="M9.1687748 4.4202c-2.6642469.5388-4.3871855 3.1356-3.8482473 5.7996L6.526533 9.976c-.4041913-1.9982.8879836-3.9456 2.8862036-4.3499l-.2439618-1.2059zm4.5938122 4.0921c.404172 1.9982-.887992 3.9457-2.886183 4.3498l.24392 1.2062c2.664278-.5391 4.387207-3.1357 3.848269-5.7999l-1.206006.2439z"/></g></svg>