<svg xmlns="http://www.w3.org/2000/svg" width="22" height="32"><g fill="#d2d2d2"><path d="M15.9001341057 3.4896780273c-2.2368676193-1.0235044899-4.873784777-.0421935003-5.8972942233 2.1946849513-.4304569418.9407630393-.5123778098 1.955726523-.2889069805 2.8894683187l6.3833439038 2.9207723738c.8526583035-.441346542 1.5671229017-1.1668823713 1.9975798436-2.1076454107 1.0235094463-2.2368784516.0421450756-4.8737757431-2.1947225436-5.897280233zM9.8286459977 9.3030399123L3.0000040984 27.2519788311l3.352867505 1.534143065 9.1176187536-16.9015912494-5.6418443593-2.5814907344zm1.9653423934 3.1606137835c.4280946389.1958796225.6158399303.6991204551.41970564 1.12777167l-1.187497539 2.5952741966c-.1961342902.4286512148-.699677031.6155852625-1.12777167.41970564-.4280946388-.1958796226-.6158399302-.6991204552-.41970564-1.12777167l1.187497539-2.5952741966c.1961342903-.4286512149.6996770311-.6155852626 1.12777167-.41970564z"/></g></svg>