<svg xmlns="http://www.w3.org/2000/svg" width="20" height="20" viewBox="0 0 20 20"><path d="M5.5286634122 4.7729213872c-.2006436316-.0065044188-.397012833.0611415364-.545796962.2099215574-.2975681438.2975680297-.275421739.7951800292.0419843115 1.1125865362l3.9045478135 3.9045478136-3.9045478135 3.9045478135c-.3174061647.3174053659-.3395525695.8150173654-.0419843115 1.1125853952.2975681438.2975691708.7951801434.2754221955 1.1125861939-.0419820293l3.9045478136-3.9045478135 3.9045481559 3.9045478135c.3174053658.317406507.8150173654.3395534824 1.112585395.0419820293.297569171-.2975680298.2754221956-.7951800293-.0419820291-1.1125853952l-3.9045478136-3.9045478135 3.9045478136-3.9045478136c.317406507-.317406507.3395534823-.8150185065.0419820292-1.1125865362-.2975680297-.2975680298-.7951800293-.2754221955-1.1125853951.0419820292l-3.904548156 3.9045500958L6.0954526442 5.024827256c-.1587030253-.1587032535-.3661454862-.2454334016-.5667892319-.2519058688z" fill="#eee"/></svg>