<?xml version="1.0" encoding="UTF-8" standalone="no"?>
<!-- Created with Inkscape (http://www.inkscape.org/) -->

<svg
   xmlns:dc="http://purl.org/dc/elements/1.1/"
   xmlns:cc="http://creativecommons.org/ns#"
   xmlns:rdf="http://www.w3.org/1999/02/22-rdf-syntax-ns#"
   xmlns:svg="http://www.w3.org/2000/svg"
   xmlns="http://www.w3.org/2000/svg"
   version="1.1"
   width="30"
   height="22"
   id="svg4272">
  <metadata
     id="metadata4284">
    <rdf:RDF>
      <cc:Work
         rdf:about="">
        <dc:format>image/svg+xml</dc:format>
        <dc:type
           rdf:resource="http://purl.org/dc/dcmitype/StillImage" />
        <dc:title></dc:title>
      </cc:Work>
    </rdf:RDF>
  </metadata>
  <defs
     id="defs4282" />
  <g
     id="g4274"
     style="color:#000000;fill:#888888">
    <path
       d="m 10,4.999875 c -1.644703,-1.028e-4 -3,1.3552971 -3,3 v 7.00025 c 0,1.644705 1.355294,3.000023 3,3 L 11.00025,18 v 3 L 14.469,19 17.93775,17 14.469,15 11.00025,13 v 3 L 10,16.000125 c -0.571302,7.1e-5 -1.0000215,-0.428707 -1,-1 v -7.00025 c 0,-0.5712971 0.428703,-0.9999817 1,-1 L 12,7 V 5 z"
       id="path4276"
       style="marker:none;overflow:visible" />
    <path
       d="m 14,1.99975 h 2 v 8 h -2 z m 6,3.000125 c 1.644703,-1.028e-4 3,1.3552971 3,3 v 7.00025 c 0,1.644705 -1.355294,3.000023 -3,3 h -1.031 v -2 H 20 c 0.571302,0 1.000022,-0.428707 1,-1 v -7.00025 c 0,-0.5712971 -0.428703,-0.9999817 -1,-1 L 18.00025,7 V 5 z"
       id="path4278"
       style="marker:none;overflow:visible" />
  </g>
</svg>
