<?xml version="1.0" encoding="UTF-8" standalone="no"?>
<!-- Created with Inkscape (http://www.inkscape.org/) -->

<svg
   xmlns:dc="http://purl.org/dc/elements/1.1/"
   xmlns:cc="http://creativecommons.org/ns#"
   xmlns:rdf="http://www.w3.org/1999/02/22-rdf-syntax-ns#"
   xmlns:svg="http://www.w3.org/2000/svg"
   xmlns="http://www.w3.org/2000/svg"
   xmlns:sodipodi="http://sodipodi.sourceforge.net/DTD/sodipodi-0.dtd"
   xmlns:inkscape="http://www.inkscape.org/namespaces/inkscape"
   width="16"
   height="20"
   id="svg3769"
   version="1.1"
   inkscape:version="0.48.4 r9939"
   sodipodi:docname="btn_beatbox_down_hover.svg">
  <defs
     id="defs3771" />
  <sodipodi:namedview
     id="base"
     pagecolor="#ffffff"
     bordercolor="#666666"
     borderopacity="1.0"
     inkscape:pageopacity="0.0"
     inkscape:pageshadow="2"
     inkscape:zoom="22.627417"
     inkscape:cx="10.263129"
     inkscape:cy="9.8195871"
     inkscape:document-units="px"
     inkscape:current-layer="layer1"
     showgrid="false"
     inkscape:window-width="745"
     inkscape:window-height="742"
     inkscape:window-x="683"
     inkscape:window-y="0"
     inkscape:window-maximized="0"
     showguides="true"
     inkscape:guide-bbox="true"
     inkscape:snap-bbox="true"
     inkscape:snap-bbox-edge-midpoints="true"
     inkscape:snap-page="true"
     inkscape:object-paths="true"
     inkscape:snap-intersection-paths="true"
     inkscape:object-nodes="true" />
  <metadata
     id="metadata3774">
    <rdf:RDF>
      <cc:Work
         rdf:about="">
        <dc:format>image/svg+xml</dc:format>
        <dc:type
           rdf:resource="http://purl.org/dc/dcmitype/StillImage" />
        <dc:title />
      </cc:Work>
    </rdf:RDF>
  </metadata>
  <g
     inkscape:label="Layer 1"
     inkscape:groupmode="layer"
     id="layer1"
     transform="translate(0,-1032.3622)">
    <path
       style="fill:#d2d2d2;fill-opacity:1;fill-rule:nonzero;stroke:none"
       d="m 9.0003033,1047.2802 4.5715187,-7.9181 -9.1430385,0 z"
       id="path3018"
       inkscape:connector-curvature="0"
       inkscape:transform-center-y="0.57041933" />
    <path
       style="font-size:medium;font-style:normal;font-variant:normal;font-weight:normal;font-stretch:normal;text-indent:0;text-align:start;text-decoration:none;line-height:normal;letter-spacing:normal;word-spacing:normal;text-transform:none;direction:ltr;block-progression:tb;writing-mode:lr-tb;text-anchor:start;baseline-shift:baseline;color:#000000;fill:#d2d2d2;fill-opacity:1;stroke:none;stroke-width:0.99999994;marker:none;visibility:visible;display:inline;overflow:visible;enable-background:accumulate;font-family:Sans;-inkscape-font-specification:Sans"
       d="M 3.5 0 C 1.5696486 0 0 1.5696 0 3.5 L 0 16.5 C 0 18.4304 1.5696486 20 3.5 20 L 13.5 20 C 14.482508 20 15.366923 19.588963 16 18.9375 L 16 18.0625 L 15.4375 18.0625 C 14.981594 18.632604 14.296703 19 13.5 19 L 3.5 19 C 2.1063514 19 1 17.8936 1 16.5 L 1 3.5 C 1 2.1064 2.1063514 1 3.5 1 L 13.5 1 C 14.292552 1 14.981414 1.3725 15.4375 1.9375 L 16 1.9375 L 16 1.09375 C 15.369766 0.42585 14.487064 0 13.5 0 L 3.5 0 z "
       transform="translate(0,1032.3622)"
       id="rect3081" />
  </g>
</svg>
