<svg xmlns="http://www.w3.org/2000/svg" height="28" width="17.5"><g fill="#0f0f0f" color="#000"><path d="M12.441406 5.4526a.94301506.94301506 0 0 0-.710937 1.5586s1.240718 1.5358 1.886719 4.0742c.646 2.5384.675819 5.9962-1.96875 9.9805a.94800431.94800431 0 1 0 1.585937 1.039c2.93353-4.4197 2.963369-8.543 2.214844-11.4843s-2.269531-4.8125-2.269531-4.8125a.94301506.94301506 0 0 0-.738282-.3555zM8.3671875 8.2964a.94301506.94301506 0 0 0-.5195313 1.5312s.7569349.9097 1.1484376 2.4336c.391503 1.5239.421617 3.5655-1.2031251 5.9609a.944248854.944248854 0 0 0 1.5585938 1.0664c1.9230925-2.8353 1.9446745-5.5636 1.4492185-7.4921-.495455-1.9286-1.503906-3.1446-1.503906-3.1446a.94301506.94301506 0 0 0-.9296875-.3554zM4.8671875 10.894a.94301506.94301506 0 0 0-.6289063 1.5586s.2639721.3255.4101563.9023.1768791 1.307-.4648438 2.2696a.94301506.94301506 0 1 0 1.5585938 1.039c.9338661-1.4007.9859943-2.7961.7382812-3.7734-.247713-.9773-.7929687-1.6407-.7929687-1.6406a.94301506.94301506 0 0 0-.8203125-.3555z" style="block-progression:tb;text-indent:0;text-align:start;text-transform:none"/></g></svg>