<svg width="24" height="24" xmlns="http://www.w3.org/2000/svg"><g fill="#0f0f0f"><path d="m3.5846 8.7615 1.1947 0.69024 0.50441 0.29203-2.1238e-4 5.6544c-1.8265e-5 0.48533 0.36419 0.84953 0.84953 0.84953h8.4422v-2.5486l2.9468 1.6991 2.9468 1.6991-2.9468 1.6991-2.9468 1.6991v-2.5486h-8.4422c-1.3972 0-2.5486-1.1514-2.5486-2.5486z" overflow="visible"/><path d="m9.4249 3.5047v2.5486h8.4422c1.3972 0 2.5486 1.1514 2.5486 2.5486v6.6366l-1.1947-0.69024-0.50441-0.29203v-5.6544c0-0.48533-0.3642-0.84953-0.84953-0.84953h-8.4422v2.5486l-2.9468-1.6991-2.9468-1.6991 2.9468-1.6991z" font-family="Sans" font-weight="400" overflow="visible" style="block-progression:tb;text-indent:0;text-transform:none"/></g></svg>
