<?xml version="1.0" encoding="UTF-8" standalone="no"?>
<!-- Generator: Adobe Illustrator 9.0, SVG Export Plug-In  -->

<svg
   xmlns:dc="http://purl.org/dc/elements/1.1/"
   xmlns:cc="http://creativecommons.org/ns#"
   xmlns:rdf="http://www.w3.org/1999/02/22-rdf-syntax-ns#"
   xmlns:svg="http://www.w3.org/2000/svg"
   xmlns="http://www.w3.org/2000/svg"
   xmlns:sodipodi="http://sodipodi.sourceforge.net/DTD/sodipodi-0.dtd"
   xmlns:inkscape="http://www.inkscape.org/namespaces/inkscape"
   id="svg2"
   xml:space="preserve"
   height="22"
   width="22"
   version="1.0"
   viewBox="0 0 22 22"
   inkscape:version="0.48.4 r9939"
   sodipodi:docname="btn_samplers_load_hover.svg"><defs
     id="defs13" /><sodipodi:namedview
     pagecolor="#ffffff"
     bordercolor="#666666"
     borderopacity="1"
     objecttolerance="10"
     gridtolerance="10"
     guidetolerance="10"
     inkscape:pageopacity="0"
     inkscape:pageshadow="2"
     inkscape:window-width="1366"
     inkscape:window-height="746"
     id="namedview11"
     showgrid="false"
     showguides="true"
     inkscape:guide-bbox="true"
     inkscape:snap-smooth-nodes="true"
     inkscape:object-nodes="true"
     inkscape:zoom="22.627416"
     inkscape:cx="5.8059894"
     inkscape:cy="12.45485"
     inkscape:window-x="0"
     inkscape:window-y="0"
     inkscape:window-maximized="1"
     inkscape:current-layer="layer2"
     inkscape:snap-global="true"
     inkscape:snap-bbox="true"
     inkscape:object-paths="true"
     inkscape:snap-intersection-paths="true" /><metadata
     id="metadata19"><rdf:RDF><cc:Work
         rdf:about=""><dc:format>image/svg+xml</dc:format><dc:type
           rdf:resource="http://purl.org/dc/dcmitype/StillImage" /><dc:title /></cc:Work></rdf:RDF></metadata><g
     inkscape:groupmode="layer"
     id="layer1"
     inkscape:label="bak"
     style="opacity:0.31468584;display:none"
     transform="translate(0,-16)"><g
       id="Layer_x0020_4"
       style="stroke:#000000;stroke-width:1.51660764"
       transform="matrix(0.66070257,0,0,0.65803279,4.5351031,8.5499156)"><g
         id="g5"
         style="stroke-width:1.51660764"><path
           id="path7"
           style="fill:none;stroke:#ffffff;stroke-width:10.17492104"
           d="m 7.1,10.6 c -1.3,0 -2.3,1 -2.3,2.3 l 0.1,22.3 c 0,1.4 0.9,2.3 2.3,2.3 h 0.1 27.5 c 1.1,0 2.1,-0.6 2.9,-1.6 0.6,-0.9 2.2,-4.5 3.1,-6.8 1.6,-4.1 2.5,-6.7 2.5,-7.9 0,-0.3 0,-1.2 -0.7,-1.7 C 42,19 41.2,18.9 40.4,18.9 h -4 V 17.2 C 36.4,15.9 35.5,15 34.2,15 h -14 v -2.2 c 0,-1.2 -1,-2.2 -2.3,-2.2 H 7.1 z"
           inkscape:connector-curvature="0" /><path
           id="path9"
           d="m 7.1,10.6 c -1.3,0 -2.3,1 -2.3,2.3 l 0.1,22.3 c 0,1.4 0.9,2.3 2.3,2.3 h 0.1 27.5 c 1.1,0 2.1,-0.6 2.9,-1.6 0.6,-0.9 2.2,-4.5 3.1,-6.8 1.6,-4.1 2.5,-6.7 2.5,-7.9 0,-0.3 0,-1.2 -0.7,-1.7 C 42,19 41.2,18.9 40.4,18.9 h -4 V 17.2 C 36.4,15.9 35.5,15 34.2,15 h -14 v -2.2 c 0,-1.2 -1,-2.2 -2.3,-2.2 H 7.1 z"
           inkscape:connector-curvature="0"
           style="stroke-width:1.51660764" /><path
           id="path11"
           style="fill:#ffffff;stroke-width:1.51660764"
           d="M 8.9,35.3 H 34 c 0.6,0 1.2,-0.4 1.5,-0.9 0.7,-1 4.8,-10.6 4.8,-12.5 0,-0.4 0,-0.7 -1.3,-0.7 H 14.9 c -0.4,0 -0.8,0.1 -0.9,0.7 -0.1,1.5 -3.2,11.8 -4.3,13.1 -0.3,0.4 -0.9,0.4 -0.9,0.4 l 0.1,-0.1 z"
           inkscape:connector-curvature="0" /></g></g></g><g
     inkscape:groupmode="layer"
     id="layer2"
     inkscape:label="btn"
     transform="translate(0,-16)"><path
       style="font-size:medium;font-style:normal;font-variant:normal;font-weight:normal;font-stretch:normal;text-indent:0;text-align:start;text-decoration:none;line-height:normal;letter-spacing:normal;word-spacing:normal;text-transform:none;direction:ltr;block-progression:tb;writing-mode:lr-tb;text-anchor:start;baseline-shift:baseline;color:#000000;fill:#d2d2d2;fill-opacity:1;fill-rule:nonzero;stroke:none;stroke-width:2;marker:none;visibility:visible;display:inline;overflow:visible;enable-background:accumulate;font-family:Sans;-inkscape-font-specification:Sans"
       d="M 2.59375 9 C 2.26125 9.06245 1.9940349 9.385623 2 9.71875 L 2 19.28125 C 2.0000376 19.65506 2.3389705 19.999963 2.71875 20 L 3.40625 20 L 16.59375 20 C 16.613856 19.999998 16.636382 20.001863 16.65625 20 A 0.72541726 0.71401504 0 0 0 16.8125 19.96875 C 16.879014 19.946499 16.942099 19.914971 17 19.875 A 0.72541726 0.71401504 0 0 0 17.09375 19.78125 A 0.72541726 0.71401504 0 0 0 17.15625 19.71875 A 0.72541726 0.71401504 0 0 0 17.25 19.59375 A 0.72541726 0.71401504 0 0 0 17.25 19.5625 L 20.65625 11.78125 A 0.72541726 0.71401504 0 0 0 19.96875 10.75 L 17.3125 10.75 L 17.3125 9.71875 C 17.312462 9.34494 16.973529 9.000037 16.59375 9 C 9.6760444 9.0093 9.6702524 9.02778 2.71875 9 C 2.6961 8.9989 2.6789 8.9989 2.65625 9 C 2.6336 8.9989 2.6164 8.9989 2.59375 9 z M 7.40625 12.1875 L 17.3125 12.1875 L 18.875 12.1875 L 17.3125 15.8125 L 16.125 18.5625 L 4.625 18.5625 L 7.40625 12.1875 z "
       id="path3852"
       transform="translate(0,16)" /><path
       style="font-size:medium;font-style:normal;font-variant:normal;font-weight:normal;font-stretch:normal;text-indent:0;text-align:start;text-decoration:none;line-height:normal;letter-spacing:normal;word-spacing:normal;text-transform:none;direction:ltr;block-progression:tb;writing-mode:lr-tb;text-anchor:start;baseline-shift:baseline;color:#000000;fill:#d2d2d2;fill-opacity:1;fill-rule:nonzero;stroke:none;stroke-width:1.99999988000000006;marker:none;visibility:visible;display:inline;overflow:visible;enable-background:accumulate;font-family:Sans;-inkscape-font-specification:Sans"
       d="M 10.871989,16.277227 A 0.68301385,0.68301385 0 0 0 10.381122,16.6187 l -3.0519134,5.356855 a 0.68301385,0.68301385 0 0 0 0.5762354,1.024418 l 6.167852,0 a 0.68301385,0.68301385 0 0 0 0.597578,-1.024418 L 11.576276,16.6187 a 0.68301385,0.68301385 0 0 0 -0.704287,-0.341473 z"
       id="path3001"
       inkscape:connector-curvature="0" /></g></svg>