<svg xmlns="http://www.w3.org/2000/svg" width="20" height="30"><path d="M12.0000006326 8.000041815c0 1.1045695273-.8954318153 2.0000000595-2.0000007025 2.0000000595-1.1045694958 0-1.9999999417-.8954305322-1.9999999417-2.0000000595 0-1.1045693731.8954304459-1.9999999054 1.9999999417-1.9999999054 1.1045688872 0 2.0000007025.8954305323 2.0000007025 1.9999999054z" fill="#00c800"/><path d="M3.782847 2.9654c-2.7805093 3.4338-2.2510804 8.4713 1.182598 11.2519l.7745451-.9565c-2.905412-2.3528-3.3534014-6.6154-1.0006588-9.5207l-.9564843-.7747zm10.477163-.2261c2.905412 2.3528 3.353401 6.6154 1.000659 9.5207l.956485.7747c2.780508-3.4338 2.25108-8.4713-1.182599-11.2519l-.774545.9565z" fill="#ff8605"/><path d="M6.1740553 4.9019c-1.7110755 2.113-1.3852107 5.2131.7277604 6.9241l.774545-.9565c-1.5848029-1.2834-1.8291194-3.6083-.5458143-5.1931l-.9564911-.7745zm6.1495847.2287c1.584708 1.2833 1.82912 3.6083.545815 5.1931l.95649.7745c1.711075-2.113 1.38521-5.2131-.727761-6.9241l-.774544.9565z" fill="#e0c100"/><path d="M9.9999998987 6.0000331457l1.799827873 21.9999122524-3.5996554685 6.166e-7z" fill="#00c800"/><path d="M16.217154 2.9654c2.780508 3.4338 2.25108 8.4713-1.182599 11.2519l-.774545-.9565c2.905412-2.3528 3.353401-6.6154 1.000659-9.5207l.956485-.7747zM5.73999 2.7393C2.8345778 5.0921 2.3865888 9.3547 4.7393316 12.26l-.9564851.7747C1.0023381 9.6009 1.5317664 4.5634 4.9654452 1.7828l.7745448.9565z" fill="#ff8605"/><path d="M13.825945 4.9019c1.711075 2.113 1.38521 5.2131-.72776 6.9241l-.774545-.9565c1.584803-1.2834 1.829119-3.6083.545814-5.1931l.956491-.7745zm-6.1495848.2287c-1.584708 1.2833-1.8291196 3.6083-.5458146 5.1931l-.95649.7745c-1.7110757-2.113-1.3852108-5.2131.7277607-6.9241l.7745439.9565z" fill="#e0c100"/></svg>