<!-- Created with Inkscape (http://www.inkscape.org/) -->
<svg id="svg14046" width="30" height="22" version="1.1" xmlns="http://www.w3.org/2000/svg"><g id="g14048" color="#000000" fill="#888"><path id="path14050" d="m5.094 7.1879 1.4062 0.8125 0.59375 0.34375-2.5e-4 6.6559c-2.15e-5 0.57129 0.4287 1 1 1h9.9375v-3l3.4688 2 3.4688 2-3.4688 2-3.4688 2v-3h-9.9375c-1.6447 0-3-1.3553-3-3z"/><path id="path14052" d="m11.969 1v3h9.9375c1.6447 0 3 1.3553 3 3v7.8121l-1.4062-0.8125-0.59375-0.34375v-6.6559c0-0.5713-0.4287-1-1-1h-9.9375v3l-3.4688-2-3.4688-2 3.4688-2z" style="block-progression:tb;text-indent:0;text-transform:none"/></g></svg>
