<svg xmlns="http://www.w3.org/2000/svg" width="24" height="24"><g color="#000" fill="#0f0f0f"><path d="M3.5845579993 8.7614862874l1.1946512531.6902429463.504408307.2920258618-.0002123825 5.6543640245c-.000018265.4853304166.3641917176.84952978.84952978.84952978h8.4422021887v-2.54858934l2.9468064244 1.69905956 2.9468064244 1.69905956-2.9468064244 1.69905956-2.9468064244 1.69905956v-2.54858934H6.132934957c-1.3972267264 0-2.54858934-1.1513634632-2.54858934-2.54858934z" style="marker:none" overflow="visible"/><path d="M9.4248628544 3.5047022v2.54858934h8.4422021887c1.3972241778 0 2.54858934 1.1513651622 2.54858934 2.54858934v6.6366328326l-1.1946512531-.6902429463-.5044083069-.2920258618V8.60188088c0-.4853338147-.3641959653-.84952978-.84952978-.84952978H9.4248628544v2.54858934L6.47805643 8.60188088 3.5312500056 6.90282132 6.47805643 5.20376176z" style="text-indent:0;text-align:start;line-height:normal;text-transform:none;block-progression:tb;marker:none;-inkscape-font-specification:Sans" font-weight="400" overflow="visible" font-family="Sans"/></g></svg>