<svg xmlns="http://www.w3.org/2000/svg" width="20" height="24"><g fill="#fa00ee"><path d="M9.7911035 1.6789c-4.381951.5562-7.4833899 4.5592-6.9271932 8.9412l1.220633-.1549c-.4706142-3.7078 2.1536891-7.0951 5.8614806-7.5656l-.1549204-1.2207zm7.7205705 7.082c.470571 3.708-2.153703 7.0952-5.861498 7.5657l.154921 1.2207c4.381922-.5561 7.48339-4.5592 6.927183-8.9412l-1.220606.1548z"/><path d="M10.178385 4.7305c-2.6965659.3422-4.6051277 2.8057-4.2628256 5.5021l1.220633-.1548c-.2567032-2.0225 1.1746784-3.87 3.1971486-4.1268l-.154956-1.2205zm4.281648 4.4177c.256684 2.0225-1.174694 3.8701-3.197121 4.1267l.154892 1.2208c2.696612-.3424 4.605157-2.8058 4.262862-5.5023l-1.220633.1548z"/><path d="M12.7100483395 10.1636864248a2.0000001959 2.0000003705-74.4955830453 1 1-3.8411434779-1.1160746884 2.0000001959 2.0000003705-74.4955830453 1 1 3.841143478 1.1160746884zM3.5874861 17.2051l6.3117891 5.9672 2.2638828-2.8311-7.2095775-4.8446-1.3660944 1.7085z"/><path d="M16.249886 4.969l-10.6168 8.1569 1.4699835 1.62L16.249886 4.969zM11.446322 1.6272c-4.4018444-.367-8.2677859 2.9037-8.6347983 7.3055l1.2261623.1023c.3105524-3.7246 3.5817762-6.4922 7.306365-6.1816l.102271-1.2262zm6.079404 8.5325c-.310637 3.7247-3.581811 6.4923-7.306403 6.1817l-.10227 1.2262c4.401795.3671 8.267785-2.9037 8.634788-7.3055l-1.226115-.1024z"/><path d="M11.19066 4.6927c-2.7087739-.226-5.0878427 1.7869-5.3136137 4.4955l1.2261346.1024c.1693959-2.0316 1.9536138-3.5411 3.9852831-3.3718l.102196-1.2261zm3.269599 5.2113c-.169415 2.0316-1.95365 3.5412-3.985236 3.3718l-.102319 1.2263c2.708887.2257 5.087891-1.787 5.313718-4.4958l-1.226163-.1023z"/></g></svg>