<!-- Created with Inkscape (http://www.inkscape.org/) -->
<svg id="svg3295" version="1.1" viewBox="0 0 18 18" xmlns="http://www.w3.org/2000/svg"><path id="path3297" d="m4.5312 3.5625-0.96875 0.96875c1.0939 1.0939 2.125 3.038 2.125 4.4688s-1.0311 3.3749-2.125 4.4688l0.96875 0.96875c1.0939-1.0939 3.038-2.125 4.4688-2.125s3.3749 1.0311 4.4688 2.125l0.96875-0.96875c-1.0939-1.0939-2.125-3.038-2.125-4.4688s1.0311-3.3749 2.125-4.4688l-0.96875-0.96875c-1.0939 1.0939-3.038 2.125-4.4688 2.125-1.4307 0-3.3749-1.0311-4.4688-2.125zm1.9688 2.9375c0.84715 0.36694 1.7222 0.59374 2.5 0.59375 0.77776-1.15e-5 1.6528-0.22681 2.5-0.59375-0.36694 0.84715-0.59374 1.7222-0.59375 2.5 1.2e-5 0.77776 0.22681 1.6528 0.59375 2.5-0.84715-0.36694-1.7222-0.59374-2.5-0.59375-0.77776 1.2e-5 -1.6528 0.22681-2.5 0.59375 0.36694-0.84715 0.59374-1.7222 0.59375-2.5-1.17e-5 -0.77776-0.22681-1.6528-0.59375-2.5z" fill="#b2b2b2"/></svg>
