<?xml version="1.0" encoding="UTF-8" standalone="no"?>
<!-- Generator: Adobe Illustrator 9.0, SVG Export Plug-In  -->

<svg
   xmlns:dc="http://purl.org/dc/elements/1.1/"
   xmlns:cc="http://creativecommons.org/ns#"
   xmlns:rdf="http://www.w3.org/1999/02/22-rdf-syntax-ns#"
   xmlns:svg="http://www.w3.org/2000/svg"
   xmlns="http://www.w3.org/2000/svg"
   xmlns:sodipodi="http://sodipodi.sourceforge.net/DTD/sodipodi-0.dtd"
   xmlns:inkscape="http://www.inkscape.org/namespaces/inkscape"
   id="svg2"
   xml:space="preserve"
   height="22"
   width="22"
   version="1.0"
   viewBox="0 0 22 22"
   inkscape:version="0.48.4 r9939"
   sodipodi:docname="btn_samplers_save.svg"><defs
     id="defs13" /><sodipodi:namedview
     pagecolor="#ffffff"
     bordercolor="#666666"
     borderopacity="1"
     objecttolerance="10"
     gridtolerance="10"
     guidetolerance="10"
     inkscape:pageopacity="0"
     inkscape:pageshadow="2"
     inkscape:window-width="1366"
     inkscape:window-height="746"
     id="namedview11"
     showgrid="false"
     showguides="true"
     inkscape:guide-bbox="true"
     inkscape:snap-smooth-nodes="true"
     inkscape:object-nodes="true"
     inkscape:zoom="11.313708"
     inkscape:cx="1.8314029"
     inkscape:cy="21.962509"
     inkscape:window-x="0"
     inkscape:window-y="0"
     inkscape:window-maximized="1"
     inkscape:current-layer="layer2"
     inkscape:snap-global="true"
     inkscape:snap-bbox="true" /><metadata
     id="metadata19"><rdf:RDF><cc:Work
         rdf:about=""><dc:format>image/svg+xml</dc:format><dc:type
           rdf:resource="http://purl.org/dc/dcmitype/StillImage" /><dc:title /></cc:Work></rdf:RDF></metadata><g
     inkscape:groupmode="layer"
     id="layer1"
     inkscape:label="bak"
     style="opacity:0.31468584;display:none"
     transform="translate(0,-16)"><g
       id="Layer_x0020_4"
       style="stroke:#000000;stroke-width:1.51660764"
       transform="matrix(0.66070257,0,0,0.65803279,4.5351031,8.5499156)"><g
         id="g5"
         style="stroke-width:1.51660764"><path
           id="path7"
           style="fill:none;stroke:#ffffff;stroke-width:10.17492104"
           d="m 7.1,10.6 c -1.3,0 -2.3,1 -2.3,2.3 l 0.1,22.3 c 0,1.4 0.9,2.3 2.3,2.3 h 0.1 27.5 c 1.1,0 2.1,-0.6 2.9,-1.6 0.6,-0.9 2.2,-4.5 3.1,-6.8 1.6,-4.1 2.5,-6.7 2.5,-7.9 0,-0.3 0,-1.2 -0.7,-1.7 C 42,19 41.2,18.9 40.4,18.9 h -4 V 17.2 C 36.4,15.9 35.5,15 34.2,15 h -14 v -2.2 c 0,-1.2 -1,-2.2 -2.3,-2.2 H 7.1 z"
           inkscape:connector-curvature="0" /><path
           id="path9"
           d="m 7.1,10.6 c -1.3,0 -2.3,1 -2.3,2.3 l 0.1,22.3 c 0,1.4 0.9,2.3 2.3,2.3 h 0.1 27.5 c 1.1,0 2.1,-0.6 2.9,-1.6 0.6,-0.9 2.2,-4.5 3.1,-6.8 1.6,-4.1 2.5,-6.7 2.5,-7.9 0,-0.3 0,-1.2 -0.7,-1.7 C 42,19 41.2,18.9 40.4,18.9 h -4 V 17.2 C 36.4,15.9 35.5,15 34.2,15 h -14 v -2.2 c 0,-1.2 -1,-2.2 -2.3,-2.2 H 7.1 z"
           inkscape:connector-curvature="0"
           style="stroke-width:1.51660764" /><path
           id="path11"
           style="fill:#ffffff;stroke-width:1.51660764"
           d="M 8.9,35.3 H 34 c 0.6,0 1.2,-0.4 1.5,-0.9 0.7,-1 4.8,-10.6 4.8,-12.5 0,-0.4 0,-0.7 -1.3,-0.7 H 14.9 c -0.4,0 -0.8,0.1 -0.9,0.7 -0.1,1.5 -3.2,11.8 -4.3,13.1 -0.3,0.4 -0.9,0.4 -0.9,0.4 l 0.1,-0.1 z"
           inkscape:connector-curvature="0" /></g></g></g><g
     inkscape:groupmode="layer"
     id="layer2"
     inkscape:label="btn"
     transform="translate(0,-16)"><path
       style="font-size:medium;font-style:normal;font-variant:normal;font-weight:normal;font-stretch:normal;text-indent:0;text-align:start;text-decoration:none;line-height:normal;letter-spacing:normal;word-spacing:normal;text-transform:none;direction:ltr;block-progression:tb;writing-mode:lr-tb;text-anchor:start;baseline-shift:baseline;color:#000000;fill:#888888;fill-opacity:1;fill-rule:nonzero;stroke:none;stroke-width:1.99999988;marker:none;visibility:visible;display:inline;overflow:visible;enable-background:accumulate;font-family:Sans;-inkscape-font-specification:Sans"
       d="m 11.128011,22.722746 a 0.68301385,0.68301385 0 0 0 0.490867,-0.341473 l 3.051913,-5.356855 A 0.68301385,0.68301385 0 0 0 14.094556,16 l -6.1678521,0 a 0.68301385,0.68301385 0 0 0 -0.597578,1.024418 l 3.0945981,5.356855 a 0.68301385,0.68301385 0 0 0 0.704287,0.341473 z"
       id="path3001-3"
       inkscape:connector-curvature="0" /><g
       id="g3016"
       style="fill:#888888;fill-opacity:1"><path
         sodipodi:nodetypes="cccccccccccccccc"
         inkscape:connector-curvature="0"
         id="path3852"
         d="m 2.5894551,24.746224 c -0.3325,0.06389 -0.5953076,0.389632 -0.5893425,0.730469 l 0,9.792838 C 2.0001502,35.651993 2.3456778,35.999962 2.7254573,36 l 13.8722167,0 c 0.37978,-3.8e-5 0.725307,-0.348007 0.725345,-0.730469 l 0,-3.561032 -1.201352,2.830564 -11.4921798,0 2.7880438,-6.52856 9.905488,0 0,-2.533811 c -3.8e-5,-0.382462 -0.345566,-0.73043 -0.725345,-0.730468 -6.9177056,0.0095 -6.9207143,0.02842 -13.8722167,0 -0.02265,-0.0011 -0.045351,-0.0011 -0.068001,0 -0.02265,-0.0011 -0.045351,-0.0011 -0.068001,0 z"
         style="font-size:medium;font-style:normal;font-variant:normal;font-weight:normal;font-stretch:normal;text-indent:0;text-align:start;text-decoration:none;line-height:normal;letter-spacing:normal;word-spacing:normal;text-transform:none;direction:ltr;block-progression:tb;writing-mode:lr-tb;text-anchor:start;baseline-shift:baseline;color:#000000;fill:#888888;fill-opacity:1;fill-rule:nonzero;stroke:none;stroke-width:2;marker:none;visibility:visible;display:inline;overflow:visible;enable-background:accumulate;font-family:Sans;-inkscape-font-specification:Sans" /><path
         inkscape:connector-curvature="0"
         id="path3804-3"
         d="M 6.8508555,26.549567 A 0.72541726,0.73054131 0 0 0 6.2615128,27.00611 L 2.8841265,34.972778 A 0.72541726,0.73054131 0 0 0 3.5414702,36 l 13.0562038,0 a 0.72541726,0.73054131 0 0 0 0.657344,-0.433716 l 3.400054,-7.989496 a 0.72541726,0.73054131 0 0 0 -0.680011,-1.027221 l -13.0562045,0 a 0.72541726,0.73054131 0 0 0 -0.068001,0 z m 0.5666755,1.460936 11.469513,0 -2.765377,6.52856 -11.4921798,0 2.7880438,-6.52856 z"
         style="font-size:medium;font-style:normal;font-variant:normal;font-weight:normal;font-stretch:normal;text-indent:0;text-align:start;text-decoration:none;line-height:normal;letter-spacing:normal;word-spacing:normal;text-transform:none;direction:ltr;block-progression:tb;writing-mode:lr-tb;text-anchor:start;baseline-shift:baseline;color:#000000;fill:#888888;fill-opacity:1;stroke:none;stroke-width:2;marker:none;visibility:visible;display:inline;overflow:visible;enable-background:accumulate;font-family:Sans;-inkscape-font-specification:Sans" /></g></g></svg>