<svg xmlns="http://www.w3.org/2000/svg" xmlns:xlink="http://www.w3.org/1999/xlink" width="104" height="26"><defs><linearGradient x1="44.0611" y1=".24690001" x2="44.0611" y2="93.877998" id="s" gradientUnits="userSpaceOnUse"><stop offset="0" stop-color="#1f1f20"/><stop offset=".00555556" stop-color="#1f1f20"/><stop offset=".63333303" stop-color="#58595b"/><stop offset="1" stop-color="#a5a8aa"/></linearGradient><linearGradient x1="44.066101" y1=".24690001" x2="44.066101" y2="93.877998" id="t" gradientUnits="userSpaceOnUse"><stop offset="0" stop-color="#1f1f20"/><stop offset=".00555556" stop-color="#1f1f20"/><stop offset=".63333303" stop-color="#58595b"/><stop offset="1" stop-color="#a5a8aa"/></linearGradient><linearGradient x1="44.066299" y1=".24690001" x2="44.066299" y2="93.877998" id="u" gradientUnits="userSpaceOnUse"><stop offset="0" stop-color="#1f1f20"/><stop offset=".00555556" stop-color="#1f1f20"/><stop offset=".63333303" stop-color="#58595b"/><stop offset="1" stop-color="#a5a8aa"/></linearGradient><linearGradient x1="11.5568" y1=".24690001" x2="11.5568" y2="93.877998" id="v" gradientUnits="userSpaceOnUse"><stop offset="0" stop-color="#1f1f20"/><stop offset=".00555556" stop-color="#1f1f20"/><stop offset=".63333303" stop-color="#58595b"/><stop offset="1" stop-color="#a5a8aa"/></linearGradient><linearGradient x1="52.543499" y1=".24690001" x2="52.543499" y2="93.877998" id="w" gradientUnits="userSpaceOnUse"><stop offset="0" stop-color="#1f1f20"/><stop offset=".00555556" stop-color="#1f1f20"/><stop offset=".63333303" stop-color="#58595b"/><stop offset="1" stop-color="#a5a8aa"/></linearGradient><linearGradient x1=".34819999" y1="90.636597" x2=".34819999" y2="-2.3324001" id="a" gradientUnits="userSpaceOnUse"><stop offset="0" stop-color="#a2a2a2"/><stop offset="1"/></linearGradient><linearGradient x1=".34799999" y1="90.636597" x2=".34799999" y2="-2.3324001" id="b" gradientUnits="userSpaceOnUse"><stop offset="0" stop-color="#fff"/><stop offset="1"/></linearGradient><linearGradient x1=".31259999" y1="88.656097" x2=".31259999" y2="1.1722" id="c" gradientUnits="userSpaceOnUse"><stop offset="0" stop-color="#fff"/><stop offset="1"/></linearGradient><linearGradient x1=".31209999" y1="88.656097" x2=".31209999" y2="1.1722" id="d" gradientUnits="userSpaceOnUse"><stop offset="0" stop-color="#fff"/><stop offset="1"/></linearGradient><linearGradient x1="30.5499" y1="89.1185" x2="30.5499" y2="-3.2409" id="e" gradientUnits="userSpaceOnUse"><stop offset="0" stop-color="#fff"/><stop offset="1"/></linearGradient><linearGradient x1="30.547501" y1="90.025703" x2="30.547501" y2=".1055" id="f" gradientUnits="userSpaceOnUse"><stop offset="0" stop-color="#fff"/><stop offset="1"/></linearGradient><linearGradient x1="30.5495" y1="89.118202" x2="30.5495" y2="-3.2412" id="g" gradientUnits="userSpaceOnUse"><stop offset="0" stop-color="#fff"/><stop offset="1"/></linearGradient><linearGradient x1="30.549101" y1="90.025398" x2="30.549101" y2=".1052" id="h" gradientUnits="userSpaceOnUse"><stop offset="0" stop-color="#fff"/><stop offset="1"/></linearGradient><linearGradient x1="30.5494" y1="89.118202" x2="30.5494" y2="-3.2412" id="i" gradientUnits="userSpaceOnUse"><stop offset="0" stop-color="#fff"/><stop offset="1"/></linearGradient><linearGradient x1="30.549" y1="90.025398" x2="30.549" y2=".1052" id="j" gradientUnits="userSpaceOnUse"><stop offset="0" stop-color="#fff"/><stop offset="1"/></linearGradient><linearGradient x1=".29169801" y1="52.640499" x2=".29169801" y2="-37.8988" id="k" gradientUnits="userSpaceOnUse"><stop offset="0" stop-color="#fff"/><stop offset="1"/></linearGradient><linearGradient x1=".2481" y1="52.9165" x2=".2481" y2="-35.325699" id="l" gradientUnits="userSpaceOnUse"><stop offset="0" stop-color="#fff"/><stop offset="1"/></linearGradient><linearGradient x1="27.6264" y1="89.119904" x2="27.6264" y2=".1302" id="m" gradientUnits="userSpaceOnUse"><stop offset="0" stop-color="#fff"/><stop offset="1"/></linearGradient><linearGradient x1="29.726101" y1="53.389" x2="29.726101" y2="-36.621201" id="n" gradientUnits="userSpaceOnUse"><stop offset="0" stop-color="#fff"/><stop offset="1"/></linearGradient><linearGradient x1=".34819999" y1="90.636597" x2=".34819999" y2="-2.3324001" id="o" gradientUnits="userSpaceOnUse"><stop offset="0" stop-color="#fff"/><stop offset="1"/></linearGradient><linearGradient x1=".34819999" y1="90.636597" x2=".34819999" y2="-2.3324001" id="p" gradientUnits="userSpaceOnUse"><stop offset="0" stop-color="#fff"/><stop offset="1"/></linearGradient><linearGradient x1=".34819999" y1="90.636597" x2=".34819999" y2="-2.3324001" id="q" gradientUnits="userSpaceOnUse"><stop offset="0" stop-color="#a2a2a2"/><stop offset="1"/></linearGradient><linearGradient x1=".34819999" y1="90.636597" x2=".34819999" y2="-2.3324001" id="r" gradientUnits="userSpaceOnUse"><stop offset="0" stop-color="#a2a2a2"/><stop offset="1"/></linearGradient><linearGradient x1="44.0611" y1=".24690001" x2="44.0611" y2="93.877998" id="z" gradientUnits="userSpaceOnUse"><stop offset="0" stop-color="#1f1f20"/><stop offset=".00555556" stop-color="#1f1f20"/><stop offset=".63333303" stop-color="#58595b"/><stop offset="1" stop-color="#a5a8aa"/></linearGradient><linearGradient x1="44.0611" y1=".24690001" x2="44.0611" y2="93.877998" id="y" gradientUnits="userSpaceOnUse"><stop offset="0" stop-color="#1f1f20"/><stop offset=".00555556" stop-color="#1f1f20"/><stop offset=".63333303" stop-color="#58595b"/><stop offset="1" stop-color="#a5a8aa"/></linearGradient><linearGradient x1="44.0611" y1=".24690001" x2="44.0611" y2="93.877998" id="x" gradientUnits="userSpaceOnUse"><stop offset="0" stop-color="#1f1f20"/><stop offset=".00555556" stop-color="#1f1f20"/><stop offset=".63333303" stop-color="#58595b"/><stop offset="1" stop-color="#a5a8aa"/></linearGradient><linearGradient x1="52.543499" y1=".24690001" x2="52.543499" y2="93.877998" id="A" xlink:href="#w" gradientUnits="userSpaceOnUse" gradientTransform="matrix(.26801 0 0 .26907 4.5 .0141)"/></defs><path d="M10.574548 23.993434V9.951001l7.846393 11.957109h.160005l7.927866-12.078731v14.164055h6.156026V.0141h-6.677849l-7.406043 11.956839L11.178653.0141H4.5v23.979334h6.074548zM35.403948.0141h6.195153v23.979334h-6.195153V.0141zM44.0733 0l8.192894 12L44.0733 24h7.239538l4.558229-6.699753L60.459088 24h7.269329l4.558228-6.699753L76.844871 24H84.114199l4.58802-6.699753L93.260459 24H100.5l-8.192896-12L100.5 0h-7.239541L88.70223 6.699752 84.114208 0h-7.269324l-4.558227 6.669975L67.728428 0h-7.269325L55.87108 6.699752 51.312852 0h-7.239539zm36.406243 5.270471L85.067563 12l-4.58802 6.729529L75.891521 12l4.588022-6.729529zm-16.385789.029777L68.651982 12l-4.558228 6.699753L59.505732 12l4.588022-6.699752z" fill="url(#A)"/></svg>