<!-- Created with Inkscape (http://www.inkscape.org/) -->
<svg id="svg4272" width="22" height="22" version="1.1" xmlns="http://www.w3.org/2000/svg"><g id="g4274" transform="translate(-4)" color="#000000" fill="#888"><path id="path4276" d="m10 4.9999c-1.6447-1.028e-4 -3 1.3553-3 3v8.0002c0 1.6447 1.3553 3 3 3l8-1.24e-4 -6-4.9999v3l-2 6.2e-5c-0.5713 1.8e-5 -1-0.42871-1-1v-8.0002c0-0.5713 0.4287-0.99998 1-1l2 1.25e-4v-2z"/><path id="path4278" d="m14 1.9998h2v8h-2zm6 3.0001c1.6447-1.028e-4 3 1.3553 3 3v8.0002c0 1.6447-1.3553 3-3 3l-1.031-2h1.031c0.5713 0 1-0.42871 1-1v-8.0002c0-0.5713-0.4287-0.99998-1-1l-1.9998 1.25e-4v-2z"/></g></svg>
