<svg xmlns="http://www.w3.org/2000/svg" xmlns:xlink="http://www.w3.org/1999/xlink" width="52" height="13"><defs><linearGradient id="o" y1="-.1462" x1="74.992996" y2="88.766998" gradientUnits="userSpaceOnUse" x2="13.4863"><stop offset="47.8%" stop-color="#39b549"/><stop offset="100%" stop-color="#1a76bc"/></linearGradient><linearGradient id="p" y1="-.15009999" x1="74.997902" y2="88.767303" gradientUnits="userSpaceOnUse" x2="13.4883"><stop offset="0%" stop-color="#381f1f"/><stop offset=".17%" stop-color="#3a1f20"/><stop offset="3.76%" stop-color="#5b2825"/><stop offset="7.57%" stop-color="#7c2f28"/><stop offset="11.73%" stop-color="#9b2e28"/><stop offset="16.26%" stop-color="#b62c28"/><stop offset="21.29%" stop-color="#cc2626"/><stop offset="27.1%" stop-color="#dc2225"/><stop offset="34.38%" stop-color="#e81f25"/><stop offset="47.8%" stop-color="#ed1b26"/><stop offset="100%" stop-color="#f7921e"/></linearGradient><linearGradient id="q" y1="-.1471" x1="74.991898" y2="88.765999" gradientUnits="userSpaceOnUse" x2="13.4852"><stop offset="0%" stop-color="#120e1e"/><stop offset="2.31%" stop-color="#1b1426"/><stop offset="14.46%" stop-color="#442349"/><stop offset="25.52%" stop-color="#652866"/><stop offset="35.11%" stop-color="#7c287b"/><stop offset="42.86%" stop-color="#8b2589"/><stop offset="47.8%" stop-color="#91268f"/><stop offset="100%" stop-color="#ed1b26"/></linearGradient><linearGradient id="r" y1=".24690001" x1="44.0611" y2="93.877998" gradientUnits="userSpaceOnUse" x2="44.0611"><stop offset="0" stop-color="#58595b"/><stop offset="100%" stop-color="#a5a8aa"/></linearGradient><linearGradient id="s" y1=".24690001" x1="44.066101" y2="93.877998" gradientUnits="userSpaceOnUse" x2="44.066101"><stop offset="0" stop-color="#58595b"/><stop offset="100%" stop-color="#a5a8aa"/></linearGradient><linearGradient id="t" y1=".24690001" x1="44.066299" y2="93.877998" gradientUnits="userSpaceOnUse" x2="44.066299"><stop offset="0" stop-color="#58595b"/><stop offset="100%" stop-color="#a5a8aa"/></linearGradient><linearGradient id="u" y1=".24690001" x1="11.5568" y2="93.877998" gradientUnits="userSpaceOnUse" x2="11.5568"><stop offset="0" stop-color="#58595b"/><stop offset="100%" stop-color="#a5a8aa"/></linearGradient><linearGradient id="v" y1=".24690001" x1="52.543499" y2="93.877998" gradientUnits="userSpaceOnUse" x2="52.543499"><stop offset="0" stop-color="#58595b"/><stop offset="100%" stop-color="#a5a8aa"/></linearGradient><linearGradient id="a" y1="90.636597" x1=".34819999" y2="-2.3324001" gradientUnits="userSpaceOnUse" x2=".34819999"><stop offset="0%" stop-color="#fff"/><stop offset="100%"/></linearGradient><linearGradient id="b" y1="90.636597" x1=".34799999" y2="-2.3324001" gradientUnits="userSpaceOnUse" x2=".34799999"><stop offset="0%" stop-color="#fff"/><stop offset="100%"/></linearGradient><linearGradient id="c" y1="88.656097" x1=".31259999" y2="1.1722" gradientUnits="userSpaceOnUse" x2=".31259999"><stop offset="0%" stop-color="#fff"/><stop offset="100%"/></linearGradient><linearGradient id="d" y1="88.656097" x1=".31209999" y2="1.1722" gradientUnits="userSpaceOnUse" x2=".31209999"><stop offset="0%" stop-color="#fff"/><stop offset="100%"/></linearGradient><linearGradient id="e" y1="89.1185" x1="30.5499" y2="-3.2409" gradientUnits="userSpaceOnUse" x2="30.5499"><stop offset="0%" stop-color="#fff"/><stop offset="100%"/></linearGradient><linearGradient id="f" y1="90.025703" x1="30.547501" y2=".1055" gradientUnits="userSpaceOnUse" x2="30.547501"><stop offset="0%" stop-color="#fff"/><stop offset="100%"/></linearGradient><linearGradient id="g" y1="89.118202" x1="30.5495" y2="-3.2412" gradientUnits="userSpaceOnUse" x2="30.5495"><stop offset="0%" stop-color="#fff"/><stop offset="100%"/></linearGradient><linearGradient id="h" y1="90.025398" x1="30.549101" y2=".1052" gradientUnits="userSpaceOnUse" x2="30.549101"><stop offset="0%" stop-color="#fff"/><stop offset="100%"/></linearGradient><linearGradient id="i" y1="89.118202" x1="30.5494" y2="-3.2412" gradientUnits="userSpaceOnUse" x2="30.5494"><stop offset="0%" stop-color="#fff"/><stop offset="100%"/></linearGradient><linearGradient id="j" y1="90.025398" x1="30.549" y2=".1052" gradientUnits="userSpaceOnUse" x2="30.549"><stop offset="0%" stop-color="#fff"/><stop offset="100%"/></linearGradient><linearGradient id="k" y1="52.640499" x1=".29169801" y2="-37.8988" gradientUnits="userSpaceOnUse" x2=".29169801"><stop offset="0%" stop-color="#fff"/><stop offset="100%"/></linearGradient><linearGradient id="l" y1="52.9165" x1=".2481" y2="-35.325699" gradientUnits="userSpaceOnUse" x2=".2481"><stop offset="0%" stop-color="#fff"/><stop offset="100%"/></linearGradient><linearGradient id="m" y1="89.119904" x1="27.6264" y2=".1302" gradientUnits="userSpaceOnUse" x2="27.6264"><stop offset="0%" stop-color="#fff"/><stop offset="100%"/></linearGradient><linearGradient id="n" y1="53.389" x1="29.726101" y2="-36.621201" gradientUnits="userSpaceOnUse" x2="29.726101"><stop offset="0%" stop-color="#fff"/><stop offset="100%"/></linearGradient><linearGradient xlink:href="#o" id="w" gradientUnits="userSpaceOnUse" x1="74.992996" y1="-.1462" x2="13.4863" y2="88.766998"/><linearGradient xlink:href="#p" id="x" gradientUnits="userSpaceOnUse" x1="74.997902" y1="-.15009999" x2="13.4883" y2="88.767303"/><linearGradient xlink:href="#q" id="y" gradientUnits="userSpaceOnUse" x1="74.991898" y1="-.1471" x2="13.4852" y2="88.765999"/><linearGradient xlink:href="#v" id="D" gradientUnits="userSpaceOnUse" x1="52.543499" y1=".24690001" x2="52.543499" y2="93.877998" gradientTransform="matrix(.14518 0 0 .14583 0 .00408288)"/><linearGradient xlink:href="#u" id="C" gradientUnits="userSpaceOnUse" x1="11.5568" y1=".24690001" x2="11.5568" y2="93.877998" gradientTransform="matrix(.14518 0 0 .14583 16.739992 .00408288)"/><linearGradient xlink:href="#t" id="B" gradientUnits="userSpaceOnUse" x1="44.066299" y1=".24690001" x2="44.066299" y2="93.877998" gradientTransform="matrix(.14518 0 0 .14583 39.204918 .00408288)"/><linearGradient xlink:href="#s" id="A" gradientUnits="userSpaceOnUse" x1="44.066101" y1=".24690001" x2="44.066101" y2="93.877998" gradientTransform="matrix(.14518 0 0 .14583 30.319614 .00408288)"/><linearGradient xlink:href="#r" id="z" gradientUnits="userSpaceOnUse" x1="44.0611" y1=".24690001" x2="44.0611" y2="93.877998" gradientTransform="matrix(.14518 0 0 .14583 21.434165 .00408288)"/></defs><path d="M0 89.118L61.111 0h27.012l-61.1 89.118H0z" transform="matrix(.14518 0 0 .14583 39.2049178243 .0040828756)" fill="url(#w)"/><path d="M0 89.118L61.107 0h27.027l-61.1 89.118H0z" transform="matrix(.14518 0 0 .14583 21.4325676117 .0040828756)" fill="url(#x)"/><path d="M0 89.118L61.11 0h27.013L27.022 89.118H0z" transform="matrix(.14518 0 0 .14583 30.3196137836 .0040828756)" fill="url(#y)"/><path d="M34.22765 13L25.357299.00408288h-3.923134L30.303935 13h3.923715z" fill="url(#z)"/><path d="M43.114551 13L34.242603.00408288h-3.922989L39.191417 13h3.923134z" fill="url(#A)"/><path d="M52 13L43.128052.00408288h-3.923134L48.076866 13H52z" fill="url(#B)"/><path d="M16.739992.00408288h3.35578V13h-3.35578V.00408288z" fill="url(#C)" fill-rule="evenodd"/><path d="M3.2904501 13V5.3895179l4.2502191 6.4803131h.086671l4.2943528-6.5462274V13h3.334584V.00408288h-3.617244L7.6273402 6.4842502 3.6176804.00408288H0V13h3.2904501z" fill="url(#D)"/></svg>