<?xml version="1.0" encoding="UTF-8" standalone="no"?>
<!-- Created with Inkscape (http://www.inkscape.org/) -->

<svg
   xmlns:dc="http://purl.org/dc/elements/1.1/"
   xmlns:cc="http://creativecommons.org/ns#"
   xmlns:rdf="http://www.w3.org/1999/02/22-rdf-syntax-ns#"
   xmlns:svg="http://www.w3.org/2000/svg"
   xmlns="http://www.w3.org/2000/svg"
   version="1.1"
   width="22"
   height="22"
   id="svg4272">
  <metadata
     id="metadata4284">
    <rdf:RDF>
      <cc:Work
         rdf:about="">
        <dc:format>image/svg+xml</dc:format>
        <dc:type
           rdf:resource="http://purl.org/dc/dcmitype/StillImage" />
        <dc:title></dc:title>
      </cc:Work>
    </rdf:RDF>
  </metadata>
  <defs
     id="defs4282" />
  <g
     transform="translate(-4,0)"
     id="g4274"
     style="color:#000000;fill:#888888">
    <path
       d="m 10,4.999875 c -1.644703,-1.028e-4 -3,1.3552971 -3,3 l 0,8.000187 c 0,1.644705 1.355294,3.000023 3,3 L 18,18.999938 12,14 l 0,3 -2,6.2e-5 c -0.571302,1.8e-5 -1.0000215,-0.428706 -1,-1 L 9,7.999875 c 0,-0.5712971 0.428703,-0.9999817 1,-1 L 12,7 12,5 z"
       id="path4276"
       style="marker:none;overflow:visible" />
    <path
       d="m 14,1.99975 2,0 0,8 -2,0 z m 6,3.000125 c 1.644703,-1.028e-4 3,1.3552971 3,3 l 0,8.000187 c 0,1.644705 -1.355294,3.000023 -3,3 l -1.031,-2 1.031,0 c 0.571302,0 1.000022,-0.428706 1,-1 l 0,-8.000187 c 0,-0.5712971 -0.428703,-0.9999817 -1,-1 L 18.00025,7 l 0,-2 z"
       id="path4278"
       style="marker:none;overflow:visible" />
  </g>
</svg>
