<?xml version="1.0" encoding="UTF-8" standalone="no"?>
<!-- Created with Inkscape (http://www.inkscape.org/) -->

<svg
   xmlns:dc="http://purl.org/dc/elements/1.1/"
   xmlns:cc="http://creativecommons.org/ns#"
   xmlns:rdf="http://www.w3.org/1999/02/22-rdf-syntax-ns#"
   xmlns:svg="http://www.w3.org/2000/svg"
   xmlns="http://www.w3.org/2000/svg"
   xmlns:sodipodi="http://sodipodi.sourceforge.net/DTD/sodipodi-0.dtd"
   xmlns:inkscape="http://www.inkscape.org/namespaces/inkscape"
   version="1.1"
   width="16"
   height="20"
   id="svg2"
   sodipodi:docname="btn_deck3_vu_label.svg"
   inkscape:version="0.92.3 (unknown)">
  <sodipodi:namedview
     pagecolor="#ffffff"
     bordercolor="#666666"
     borderopacity="1"
     objecttolerance="10"
     gridtolerance="10"
     guidetolerance="10"
     inkscape:pageopacity="0"
     inkscape:pageshadow="2"
     inkscape:window-width="1366"
     inkscape:window-height="740"
     id="namedview4400"
     showgrid="true"
     inkscape:zoom="16"
     inkscape:cx="15.538442"
     inkscape:cy="9.3548349"
     inkscape:window-x="0"
     inkscape:window-y="0"
     inkscape:window-maximized="1"
     inkscape:current-layer="svg2">
    <inkscape:grid
       type="xygrid"
       id="grid4947" />
  </sodipodi:namedview>
  <defs
     id="defs4132" />
  <metadata
     id="metadata14">
    <rdf:RDF>
      <cc:Work
         rdf:about="">
        <dc:format>image/svg+xml</dc:format>
        <dc:type
           rdf:resource="http://purl.org/dc/dcmitype/StillImage" />
        <dc:title></dc:title>
      </cc:Work>
    </rdf:RDF>
  </metadata>
  <path
     inkscape:connector-curvature="0"
     id="path5599"
     style="font-style:normal;font-variant:normal;font-weight:normal;font-stretch:normal;font-size:18.66666603px;line-height:125%;font-family:'Open Sans';-inkscape-font-specification:'Open Sans';letter-spacing:0px;word-spacing:0px;fill:#b4b4b4;fill-opacity:1;stroke:#b4b4b4;stroke-width:0.99999994px;stroke-linecap:butt;stroke-linejoin:miter;stroke-opacity:1"
     d="m 11.611122,6.9580075 q 0,1.070986 -0.604631,1.7518271 -0.596977,0.6808411 -1.699089,0.9103381 v 0.0612 q 1.347026,0.1682979 1.997577,0.8567893 0.650553,0.688491 0.650553,1.805377 0,1.598829 -1.109766,2.463268 -1.109765,0.856788 -3.153263,0.856788 -0.887813,0 -1.630207,-0.137698 -0.734741,-0.130048 -1.431214,-0.466644 v -1.208684 q 0.727087,0.359545 1.546017,0.550793 0.826584,0.183597 1.561325,0.183597 2.900697,0 2.900697,-2.27202 0,-2.034874 -3.199186,-2.034874 H 6.337824 V 9.1841284 h 1.117418 q 1.308758,0 2.074113,-0.5737425 0.765355,-0.5813924 0.765355,-1.606479 0,-0.8185393 -0.566363,-1.2851833 -0.558708,-0.4666438 -1.523056,-0.4666438 -0.734742,0 -1.385293,0.1988973 Q 6.169446,5.6498746 5.335209,6.1853676 L 4.69231,5.3285788 Q 5.38113,4.7854359 6.276595,4.4794399 7.179715,4.165794 8.174677,4.165794 q 1.630206,0 2.533326,0.7496902 0.903119,0.7420403 0.903119,2.0425233 z" />
</svg>
