<svg width="48" height="48" version="1.1" viewBox="0 0 24 24" xmlns="http://www.w3.org/2000/svg">
  <path d="m11.969531 4.0001433c-1.88358 0.0129247-3.1743784 0.8573171-3.8136716 1.8509766-0.6392931 0.9936594-0.7103427 2.0143133-0.7058594 2.5644531 0.00609 0.7474907 0.00107 2.894303 0 3.38457h-0.8658202c-0.5416705 0-1.0841798 0.539472-1.0841798 1.079101v5.641798c0 0.539628 0.5425222 1.0791 1.0841798 1.0791h10.8316402c0.54167 0 1.08418-0.539472 1.08418-1.0791v-5.641798c0-0.539629-0.542523-1.079101-1.08418-1.079101h-0.86582c2.19e-4 -0.38787 0.0013-2.0505206 0-2.8234372-0.0013-0.795754-0.07834-1.9668265-0.726173-3.046875-0.647839-1.0800484-1.974601-1.9426082-3.854296-1.9296875zm0.01271 1.95c1.358073-0.00933 1.829044 0.4152414 2.170892 0.9851563 0.341849 0.5699147 0.445837 1.4121111 0.446875 2.0464842 0.0012 0.7657792 2.18e-4 2.4296142 0 2.8183592h-5.200008c0.00115-0.494007 0.00641-2.6130343 0-3.3998044-0.0025047-0.3080924 0.0730408-0.9933837 0.3960937-1.4955078 0.3230533-0.5021291 0.8109963-0.9452518 2.1861323-0.9546875zm-3.8822411 7.9498567h7.7999991c0.360101 0 0.650001 0.289902 0.650001 0.65 0 0.3601-0.2899 0.650001-0.650001 0.650001h-7.7999991c-0.3600995 0-0.6499999-0.2899-0.6499999-0.650001 0-0.360098 0.2899004-0.65 0.6499999-0.65zm0 2.6h7.7999991c0.360101 0 0.650001 0.289901 0.650001 0.65 0 0.3601-0.2899 0.65-0.650001 0.65h-7.7999991c-0.3600995 0-0.6499999-0.289901-0.6499999-0.65s0.2899004-0.65 0.6499999-0.65z" color="#000000" fill="#aaa" style="-inkscape-stroke:none"/>
</svg>
