<?xml version="1.0" encoding="UTF-8" standalone="no"?>
<!-- Created with Inkscape (http://www.inkscape.org/) -->

<svg
   xmlns:dc="http://purl.org/dc/elements/1.1/"
   xmlns:cc="http://creativecommons.org/ns#"
   xmlns:rdf="http://www.w3.org/1999/02/22-rdf-syntax-ns#"
   xmlns:svg="http://www.w3.org/2000/svg"
   xmlns="http://www.w3.org/2000/svg"
   xmlns:sodipodi="http://sodipodi.sourceforge.net/DTD/sodipodi-0.dtd"
   xmlns:inkscape="http://www.inkscape.org/namespaces/inkscape"
   width="36"
   height="36"
   id="svg2"
   version="1.1"
   inkscape:version="0.48.4 r9939"
   sodipodi:docname="btn_fx_head_off.svg">
  <defs
     id="defs4" />
  <sodipodi:namedview
     id="base"
     pagecolor="#ffffff"
     bordercolor="#666666"
     borderopacity="1.0"
     inkscape:pageopacity="0.0"
     inkscape:pageshadow="2"
     inkscape:zoom="2.8"
     inkscape:cx="-163.48162"
     inkscape:cy="25.550003"
     inkscape:document-units="px"
     inkscape:current-layer="g3923"
     showgrid="false"
     inkscape:snap-page="true"
     inkscape:snap-bbox="true"
     inkscape:snap-bbox-midpoints="true"
     inkscape:snap-bbox-edge-midpoints="true"
     inkscape:bbox-nodes="true"
     inkscape:bbox-paths="true"
     inkscape:snap-object-midpoints="true"
     inkscape:object-nodes="true"
     inkscape:snap-smooth-nodes="true"
     inkscape:object-paths="true"
     showguides="true"
     inkscape:guide-bbox="true"
     inkscape:window-width="1366"
     inkscape:window-height="747"
     inkscape:window-x="0"
     inkscape:window-y="21"
     inkscape:window-maximized="1" />
  <metadata
     id="metadata7">
    <rdf:RDF>
      <cc:Work
         rdf:about="">
        <dc:format>image/svg+xml</dc:format>
        <dc:type
           rdf:resource="http://purl.org/dc/dcmitype/StillImage" />
        <dc:title />
      </cc:Work>
    </rdf:RDF>
  </metadata>
  <g
     transform="translate(0,-1016.3622)"
     id="g3923"
     inkscape:groupmode="layer"
     inkscape:label="OFF"
     style="display:inline">
    <path
       style="font-size:medium;font-style:normal;font-variant:normal;font-weight:normal;font-stretch:normal;text-indent:0;text-align:start;text-decoration:none;line-height:normal;letter-spacing:normal;word-spacing:normal;text-transform:none;direction:ltr;block-progression:tb;writing-mode:lr-tb;text-anchor:start;baseline-shift:baseline;color:#888888;fill:#888888;fill-opacity:1;stroke:none;stroke-width:0.50000000000000000;marker:none;visibility:visible;display:inline;overflow:visible;enable-background:accumulate;font-family:Sans;-inkscape-font-specification:Sans"
       d="M 18 4.96875 C 10.815353 4.96875 4.96875 10.8152 4.96875 18 C 4.96875 18.8215 5.0414719 19.62735 5.1875 20.40625 L 5.4375 21.71875 C 5.0025079 22.167972 4.7806893 22.836197 4.90625 23.5 L 6.1875 30.21875 C 6.3929061 31.304673 7.4453275 32.017906 8.53125 31.8125 L 10 31.53125 C 11.085923 31.325844 11.799156 30.273423 11.59375 29.1875 L 10.3125 22.46875 C 10.118875 21.445108 9.2036889 20.778566 8.1875 20.875 L 8 19.875 L 7.96875 19.6875 L 8 19.6875 C 7.905199 19.1348 7.84375 18.5846 7.84375 18 C 7.84375 12.379 12.379026 7.84375 18 7.84375 C 23.620974 7.84375 28.15625 12.379 28.15625 18 C 28.15625 18.647 28.082413 19.2655 27.96875 19.875 L 27.78125 20.875 C 26.753141 20.761459 25.789342 21.434728 25.59375 22.46875 L 24.34375 29.1875 C 24.13834 30.273423 24.820308 31.325844 25.90625 31.53125 L 27.40625 31.8125 C 28.492192 32.017906 29.51334 31.304673 29.71875 30.21875 L 31 23.5 C 31.117109 22.880892 30.940195 22.25549 30.5625 21.8125 L 30.78125 20.59375 L 30.75 20.59375 L 30.8125 20.40625 C 30.959014 19.62485 31.03125 18.8189 31.03125 18 C 31.03125 10.8152 25.184647 4.96875 18 4.96875 z "
       transform="translate(0,1016.3622)"
       id="path3925" />
  </g>
</svg>
