<!-- Created with Inkscape (http://www.inkscape.org/) -->
<svg id="svg2" version="1.1" viewBox="0 0 18 18" xmlns="http://www.w3.org/2000/svg"><path id="path2987" d="m9 4.2653c-2.6136 0-4.7347 2.1212-4.7347 4.7347 0 2.6136 2.1212 4.7347 4.7347 4.7347 2.6136 0 4.7347-2.1212 4.7347-4.7347 0-2.6136-2.1212-4.7347-4.7347-4.7347z" fill="#f80"/><path id="path2985" d="m9 2c-3.8675 0-7 3.1325-7 7s3.1325 7 7 7 7-3.1325 7-7-3.132-7-7-7zm0 1.4062c3.094 0 5.5938 2.4998 5.5938 5.5938s-2.4998 5.5938-5.5938 5.5938-5.5938-2.4998-5.5938-5.5938 2.4998-5.5938 5.5938-5.5938z" fill="#d2d2d2"/></svg>
