<?xml version="1.0" encoding="UTF-8" standalone="no"?>
<!-- Created with Inkscape (http://www.inkscape.org/) -->

<svg
   xmlns:dc="http://purl.org/dc/elements/1.1/"
   xmlns:cc="http://creativecommons.org/ns#"
   xmlns:rdf="http://www.w3.org/1999/02/22-rdf-syntax-ns#"
   xmlns:svg="http://www.w3.org/2000/svg"
   xmlns="http://www.w3.org/2000/svg"
   version="1.1"
   width="24"
   height="24"
   id="svg14090">
  <metadata
     id="metadata14104">
    <rdf:RDF>
      <cc:Work
         rdf:about="">
        <dc:format>image/svg+xml</dc:format>
        <dc:type
           rdf:resource="http://purl.org/dc/dcmitype/StillImage" />
        <dc:title></dc:title>
      </cc:Work>
    </rdf:RDF>
  </metadata>
  <defs
     id="defs14102" />
  <g
     id="g14092"
     style="fill:#d2d2d2;fill-opacity:1">
    <path
       d="m 3.9015223,14.1646 2.9491752,-0.5498 c 0.4668125,-0.087 0.912692,0.2187 0.9997305,0.6855 l 1.0212075,5.477 c 0.087039,0.4668 -0.2187,0.9127 -0.6855125,0.9997 L 5.2369485,21.3269 C 4.7701363,21.4139 4.324257,21.1082 4.2372182,20.6414 L 3.2160098,15.1643 c -0.087038,-0.4668 0.2187003,-0.9126 0.6855125,-0.9997 z"
       id="path14094"
       style="fill:#d2d2d2;fill-opacity:1" />
    <path
       d="m 12,3.3081 c -4.789765,0 -8.6919643,3.9021 -8.6919643,8.6919 0,0.5477 0.049969,1.0746 0.1473214,1.5938 0.4145223,2.2572 0.8436176,4.5114 1.2857143,6.7634 L 6.6294645,19.9956 C 6.221746,17.6912 5.6706895,15.2414 5.34375,13.125 5.280549,12.7566 5.236607,12.3897 5.236607,12 5.236607,8.2527 8.2526835,5.2366 12,5.2366 c 3.747317,0 6.763393,3.0161 6.763393,6.7634 0,0.3897 -0.04394,0.7566 -0.107143,1.125 -0.32694,2.1164 -0.877996,4.5662 -1.285715,6.8706 l 1.888393,0.3616 C 19.701025,18.1052 20.13012,15.851 20.544643,13.5938 20.641993,13.0746 20.691964,12.5477 20.691964,12 20.691964,7.2102 16.789765,3.3081 12,3.3081 z"
       id="path14096"
       style="text-indent:0;text-align:start;text-transform:none;block-progression:tb;color:#000000;fill:#d2d2d2;fill-opacity:1" />
    <path
       d="m 20.098478,14.1647 -2.949176,-0.5499 c -0.466812,-0.087 -0.912692,0.2187 -0.99973,0.6855 l -1.021207,5.477 c -0.08704,0.4669 0.2187,0.9127 0.685512,0.9998 l 2.949175,0.5498 c 0.466812,0.087 0.912691,-0.2187 0.99973,-0.6855 l 1.021208,-5.4772 c 0.08704,-0.4667 -0.2187,-0.9126 -0.685512,-0.9995 z"
       id="path14098"
       style="fill:#d2d2d2;fill-opacity:1" />
  </g>
</svg>
