<svg width="30" height="22" version="1.1" xmlns="http://www.w3.org/2000/svg"><path d="m18 9.2946h2.2121v4.5084h-2.2121zm7.447-4.5084-4.4242 4.5084v4.5084l4.4242 4.5084h.55302v-13.525h-.55302z" fill="#888"/><g transform="translate(0 .5625)" fill="#888"><path d="m3.4714 11.047 2.2364-.41695c.35399-.06601.6921.16584.75811.51983l.77439 4.1534c.066002.35398-.16584.69207-.51983.75808l-2.2364.41695c-.35399.06601-.6921-.16584-.75811-.51983l-.77439-4.1534c-.066002-.35398.16584-.69207.51983-.75809z"/><path d="m9.6133 2.8145c-3.6321 0-6.5918 2.9576-6.5918 6.5898 0 .41529.037501.81521.11133 1.209.31433 1.7117.64132 3.4212.97656 5.1289l1.4316-.27344c-.30917-1.7474-.72669-3.6041-.97461-5.209-.047926-.2794-.082031-.55995-.082031-.85547 0-2.8416 2.2873-5.127 5.1289-5.127 1.7952 0 3.3516.92299 4.2656 2.3125l.75977-1.4277c-1.209-1.4326-3.0103-2.3477-5.0254-2.3477z" color="#000000" style="text-indent:0;text-transform:none"/></g><path d="m26.531.625" color="#000000" fill="#888" style="text-indent:0;text-transform:none"/><path d="m19.115 1-10.626 20h1.5156l10.626-20z" color="#000000" fill="#888" style="text-indent:0;text-transform:none"/></svg>
