<?xml version="1.0" encoding="UTF-8" standalone="no"?>
<!-- Created with Inkscape (http://www.inkscape.org/) -->

<svg
   xmlns:dc="http://purl.org/dc/elements/1.1/"
   xmlns:cc="http://creativecommons.org/ns#"
   xmlns:rdf="http://www.w3.org/1999/02/22-rdf-syntax-ns#"
   xmlns:svg="http://www.w3.org/2000/svg"
   xmlns="http://www.w3.org/2000/svg"
   xmlns:sodipodi="http://sodipodi.sourceforge.net/DTD/sodipodi-0.dtd"
   xmlns:inkscape="http://www.inkscape.org/namespaces/inkscape"
   width="56"
   height="56"
   id="svg2"
   version="1.1"
   inkscape:version="0.48.4 r9939"
   sodipodi:docname="btn_pfl_on.svg BAK">
  <defs
     id="defs4" />
  <sodipodi:namedview
     id="base"
     pagecolor="#ffffff"
     bordercolor="#666666"
     borderopacity="1.0"
     inkscape:pageopacity="0.0"
     inkscape:pageshadow="2"
     inkscape:zoom="5.6568543"
     inkscape:cx="23.267458"
     inkscape:cy="33.880886"
     inkscape:document-units="px"
     inkscape:current-layer="g3923"
     showgrid="false"
     inkscape:snap-page="true"
     inkscape:snap-bbox="true"
     inkscape:snap-bbox-midpoints="true"
     inkscape:snap-bbox-edge-midpoints="true"
     inkscape:bbox-nodes="true"
     inkscape:bbox-paths="true"
     inkscape:snap-object-midpoints="true"
     inkscape:object-nodes="true"
     inkscape:snap-smooth-nodes="true"
     inkscape:object-paths="true"
     showguides="true"
     inkscape:guide-bbox="true"
     inkscape:window-width="1366"
     inkscape:window-height="747"
     inkscape:window-x="0"
     inkscape:window-y="21"
     inkscape:window-maximized="1" />
  <metadata
     id="metadata7">
    <rdf:RDF>
      <cc:Work
         rdf:about="">
        <dc:format>image/svg+xml</dc:format>
        <dc:type
           rdf:resource="http://purl.org/dc/dcmitype/StillImage" />
        <dc:title></dc:title>
      </cc:Work>
    </rdf:RDF>
  </metadata>
  <g
     transform="translate(0,-996.3622)"
     id="g3923"
     inkscape:groupmode="layer"
     inkscape:label="OFF"
     style="display:inline">
    <path
       inkscape:connector-curvature="0"
       style="font-size:medium;font-style:normal;font-variant:normal;font-weight:normal;font-stretch:normal;text-indent:0;text-align:start;text-decoration:none;line-height:normal;letter-spacing:normal;word-spacing:normal;text-transform:none;direction:ltr;block-progression:tb;writing-mode:lr-tb;text-anchor:start;baseline-shift:baseline;color:#000000;fill:#cccccc;fill-opacity:1;stroke:none;stroke-width:0.5;marker:none;visibility:visible;display:inline;overflow:visible;enable-background:accumulate;font-family:Sans;-inkscape-font-specification:Sans"
       d="m 28,1004.0809 c -11.176118,0 -20.28125,9.105 -20.28125,20.2813 0,1.2779 0.1165944,2.5072 0.34375,3.7187 l 0.3125,1.6875 c -0.6845218,0.4205 -1.0961337,1.2238 -0.9375,2.0625 l 2.40625,12.625 c 0.205406,1.0859 1.226577,1.7992 2.3125,1.5938 l 4.5,-0.8438 c 1.085923,-0.2054 1.799156,-1.2578 1.59375,-2.3437 l -2.40625,-12.625 c -0.205406,-1.086 -1.226004,-1.7961 -2.3125,-1.5938 l -0.734375,0.1368 c 0,0 -0.0065,0 -0.328125,-1.793 -0.153931,-0.8586 -0.25,-1.7157 -0.25,-2.625 0,-8.7438 7.037512,-15.7813 15.78125,-15.7813 8.743738,-1e-4 15.78125,7.0375 15.78125,15.7813 0,1.0064 -0.104443,1.958 -0.28125,2.9062 l -0.28125,1.5313 -0.84375,-0.1563 c -1.085942,-0.2054 -2.13834,0.5078 -2.34375,1.5938 l -2.375,12.625 c -0.20541,1.0859 0.476558,2.1383 1.5625,2.3437 l 4.5,0.8438 c 1.085942,0.2054 2.10709,-0.5079 2.3125,-1.5938 l 2.40625,-12.625 c 0.15228,-0.805 -0.209942,-1.5982 -0.84375,-2.0312 0.3125,-1.7188 -0.0039,-7e-4 0.3125,-1.7188 0.223993,-1.2162 0.375,-2.4449 0.375,-3.7187 0,-11.1763 -9.105133,-20.2813 -20.28125,-20.2813 z"
       id="path3925-9"
       sodipodi:nodetypes="ssccccccccscsscsccccccccccsss" />
  </g>
</svg>
