<!-- Created with Inkscape (http://www.inkscape.org/) -->
<svg id="svg2" width="16" height="20" version="1.1" xmlns="http://www.w3.org/2000/svg"><path id="path5597" d="m11.5 15.511h-7.3551v-1.0939l2.9466-2.9605q1.347-1.3617 1.7756-1.9431 0.4286-0.58139 0.6429-1.1322t0.2143-1.1857q0-0.89504-0.5434-1.4152-0.5434-0.52784-1.5078-0.52784-0.69647 0-1.3241 0.2295-0.61994 0.2295-1.3853 0.83384l-0.67351-0.86444q1.546-1.2852 3.3676-1.2852 1.5766 0 2.4721 0.81089 0.89547 0.80324 0.89547 2.1649 0 1.0633-0.59698 2.1037-0.59698 1.0404-2.2348 2.6316l-2.4491 2.3944v0.0612h5.7555z" fill="#b4b4b4" stroke="#b4b4b4" stroke-width="1px"/></svg>
