<!-- Created with Inkscape (http://www.inkscape.org/) -->
<svg id="svg5427" width="30" height="20" version="1.1" xmlns="http://www.w3.org/2000/svg"><g id="layer2" display="none" fill="#888"><g id="g5557" transform="matrix(-.31805 .71618 .71618 .31805 5.2334 -5.8479)"><path id="path5559" d="m15.9 3.4897c-2.2369-1.0235-4.8738-0.042194-5.8973 2.1947-0.43046 0.94076-0.51238 1.9557-0.28891 2.8895l6.3833 2.9208c0.85266-0.44135 1.5671-1.1669 1.9976-2.1076 1.0235-2.2369 0.042145-4.8738-2.1947-5.8973zm-6.0715 5.8134-6.8286 17.949 3.3529 1.5341 9.1176-16.902-5.6418-2.5815zm1.9653 3.1606c0.4281 0.19588 0.61584 0.69912 0.41971 1.1278l-1.1875 2.5953c-0.19613 0.42865-0.69968 0.61558-1.1278 0.4197-0.42809-0.19588-0.61584-0.69912-0.41971-1.1278l1.1875-2.5953c0.19613-0.42865 0.69968-0.61558 1.1278-0.4197z" fill="#888"/></g><path id="path5547" d="m8.6829 15.521c0.00286 0.25477 0.21022 0.45758 0.46495 0.45473l4.3544-0.04869 0.02153 1.9257 6.0788-0.06797 2.744-1.4105 3.7651-0.04209-0.03085-2.7592-3.7651 0.0421-2.7749-1.3488-6.0788 0.06797 0.02153 1.9257-4.3544 0.04869c-0.25473 0.0029-0.45751 0.21025-0.45467 0.46502l0.00835 0.7473z"/></g><path id="path8896" d="m6.0423 3.3675c1.3119-0.60029 2.8585-0.024747 3.4588 1.2872 0.25247 0.55176 0.30051 1.147 0.16945 1.6947l-3.7439 1.7131c-0.50009-0.25885-0.91913-0.68438-1.1716-1.2361-0.60029-1.3119-0.024718-2.8585 1.2872-3.4588z" fill="#888"/><path id="path5559-9" d="m9.5252 7.2001 3.4334 9.0245-1.6858 0.77135-4.5842-8.4979z" fill="#888"/><path id="path5547-1" d="m18.062 2.6687c-0.05458 7.14e-4 -0.13418 0.00795-0.1875 0.03125l-0.625 0.28125c-0.21329 0.09321-0.31194 0.31799-0.21875 0.53125l1.5938 3.6562-1.5938 0.6875 2.2188 5.0937 2.1562 1.8125 0.6875 1.5938 0.75-0.34375 0.875 2 0.96875-0.40625-0.875-2.0312 0.59375-0.25-0.6875-1.5625 0.15625-2.8125-2.2188-5.0937-1.625 0.6875-1.5938-3.625c-0.06989-0.15995-0.21126-0.25214-0.375-0.25z" fill="#888"/><g id="layer3" display="none" fill="#888"><g id="g5557-2-2" transform="matrix(-.61746 0 0 .61746 14.94 .52545)" display="inline"><path id="path5559-9-7" d="m15.9 3.4897c-2.2369-1.0235-4.8738-0.042194-5.8973 2.1947-0.43046 0.94076-0.51238 1.9557-0.28891 2.8895l6.3833 2.9208c0.85266-0.44135 1.5671-1.1669 1.9976-2.1076 1.0235-2.2369 0.042145-4.8738-2.1947-5.8973zm-6.0715 5.8134-6.8286 17.949 3.3529 1.5341 9.1176-16.902-5.6418-2.5815zm1.9653 3.1606c0.4281 0.19588 0.61584 0.69912 0.41971 1.1278l-1.1875 2.5953c-0.19613 0.42865-0.69968 0.61558-1.1278 0.4197-0.42809-0.19588-0.61584-0.69912-0.41971-1.1278l1.1875-2.5953c0.19613-0.42865 0.69968-0.61558 1.1278-0.4197z" fill="#888"/></g><path id="path5547-1-0" d="m24.736 2.4612c-0.21483-0.089599-0.4599 0.011188-0.54949 0.22599l-1.5314 3.6718-1.6238-0.67727-2.1379 5.1258 0.19284 2.8121-1.3242 3.1749 2.3267 0.97042 1.3242-3.1749 2.1338-1.8417 2.1379-5.1258-1.6238-0.67727 1.5314-3.6718c0.089591-0.2148-0.011238-0.45986-0.22607-0.54946l-0.63014-0.26282z" display="inline"/></g></svg>
