<svg width="36" height="20" version="1.1" xmlns="http://www.w3.org/2000/svg"><g fill="#d2d2d2"><path d="m26 2.2553 7.1e-5 6.0001 6-3.0001z"/><path d="m26 17.789 7.1e-5-6 5.9999 3.0001z"/><g shape-rendering="auto"><path d="m26 4.4365c-4.7361 0-7.2498 3.3683-9.8477 5.5052-2.5978 2.1369-5.3294 4.1478-11.152 4.1478-1.0142-.01458-1.0142 1.5387 0 1.5242 6.1771 0 9.4455-2.3076 12.098-4.4891 2.6522-2.1815 4.6385-5.1639 8.9023-5.1639 1.0142.014581 1.0142-1.5387 0-1.5242z" color="#000000" color-rendering="auto" dominant-baseline="auto" image-rendering="auto" solid-color="#000000" style="font-feature-settings:normal;font-variant-alternates:normal;font-variant-caps:normal;font-variant-ligatures:normal;font-variant-numeric:normal;font-variant-position:normal;isolation:auto;mix-blend-mode:normal;shape-padding:0;text-decoration-color:#000000;text-decoration-line:none;text-decoration-style:solid;text-indent:0;text-orientation:mixed;text-transform:none;white-space:normal"/><path d="m19.373 11.282c-.37351.30931-.73323.60416-1.1445.94127-.01226.01002-.02677.0196-.03906.02967 2.1349 1.7261 3.9973 3.4298 7.8106 3.4298 1.0142.01453 1.0142-1.5332 0-1.5187-3.2739 0-4.7051-1.3388-6.627-2.8821zm-14.373-6.8567c-1.0143-.014531-1.0143 1.5332 0 1.5187 4.899 0 7.719 1.7951 10.003 3.5382.21187-.1694.42389-.33773.63672-.51216.18392-.15074.38858-.31002.57617-.4647-2.4909-1.9307-5.7902-4.08-11.216-4.08z" color="#000000" color-rendering="auto" dominant-baseline="auto" image-rendering="auto" solid-color="#000000" style="font-feature-settings:normal;font-variant-alternates:normal;font-variant-caps:normal;font-variant-ligatures:normal;font-variant-numeric:normal;font-variant-position:normal;isolation:auto;mix-blend-mode:normal;shape-padding:0;text-decoration-color:#000000;text-decoration-line:none;text-decoration-style:solid;text-indent:0;text-orientation:mixed;text-transform:none;white-space:normal"/></g></g></svg>
