<!-- Created with Inkscape (http://www.inkscape.org/) -->
<svg id="svg3089" width="24" height="49" version="1.1" xmlns="http://www.w3.org/2000/svg"><path id="path3093" d="m12.52 33.264h-1.0391l-2.4063-22.148c-0.10938-0.96611-0.16407-1.6862-0.16406-2.1602-7e-6 -1.1484 0.30077-2.069 0.90234-2.7617 0.61978-0.69267 1.3581-1.039 2.2148-1.0391 0.85676 3.8e-5 1.5768 0.34639 2.1602 1.0391 0.60155 0.69274 0.90233 1.7227 0.90234 3.0898-1.2e-5 0.43753-0.03647 1.0482-0.10938 1.832l-2.4609 22.148m-0.54688 4.5391c0.83853 5e-6 1.5495 0.30079 2.1328 0.90234 0.60155 0.58334 0.90233 1.2852 0.90234 2.1055-1.3e-5 0.83854-0.30079 1.5586-0.90234 2.1602-0.58334 0.58333-1.2943 0.875-2.1328 0.875-0.83855-1e-6 -1.5586-0.29167-2.1602-0.875-0.58334-0.60156-0.87501-1.3216-0.875-2.1602-6e-6 -0.82031 0.29166-1.5221 0.875-2.1055 0.60156-0.60156 1.3216-0.90234 2.1602-0.90234" fill="#aaa"/></svg>
