<!-- Created with Inkscape (http://www.inkscape.org/) -->
<svg id="svg2" width="16" height="20" version="1.1" xmlns="http://www.w3.org/2000/svg"><path id="path5599" d="m11.611 6.958q0 1.071-0.60463 1.7518-0.59698 0.68084-1.6991 0.91034v0.0612q1.347 0.1683 1.9976 0.85679 0.65055 0.68849 0.65055 1.8054 0 1.5988-1.1098 2.4633-1.1098 0.85679-3.1533 0.85679-0.88781 0-1.6302-0.1377-0.73474-0.13005-1.4312-0.46664v-1.2087q0.72709 0.35954 1.546 0.55079 0.82658 0.1836 1.5613 0.1836 2.9007 0 2.9007-2.272 0-2.0349-3.1992-2.0349h-1.1021v-1.0939h1.1174q1.3088 0 2.0741-0.57374 0.76536-0.58139 0.76536-1.6065 0-0.81854-0.56636-1.2852-0.55871-0.46664-1.5231-0.46664-0.73474 0-1.3853 0.1989-0.65055 0.1989-1.4848 0.73439l-0.6429-0.85679q0.68882-0.54314 1.5843-0.84914 0.90312-0.31365 1.8981-0.31365 1.6302 0 2.5333 0.74969 0.90312 0.74204 0.90312 2.0425z" fill="#b4b4b4" stroke="#b4b4b4" stroke-width="1px"/></svg>
