<?xml version="1.0" encoding="UTF-8" standalone="no"?>
<!-- Generator: Adobe Illustrator 9.0, SVG Export Plug-In  -->

<svg
   xmlns:dc="http://purl.org/dc/elements/1.1/"
   xmlns:cc="http://creativecommons.org/ns#"
   xmlns:rdf="http://www.w3.org/1999/02/22-rdf-syntax-ns#"
   xmlns:svg="http://www.w3.org/2000/svg"
   xmlns="http://www.w3.org/2000/svg"
   xmlns:sodipodi="http://sodipodi.sourceforge.net/DTD/sodipodi-0.dtd"
   xmlns:inkscape="http://www.inkscape.org/namespaces/inkscape"
   id="svg2"
   xml:space="preserve"
   height="9"
   width="22"
   version="1.0"
   viewBox="0 0 22 9"
   inkscape:version="0.48.4 r9939"
   sodipodi:docname="btn_samplers_maxi.svg"><defs
     id="defs13" /><sodipodi:namedview
     pagecolor="#ffffff"
     bordercolor="#666666"
     borderopacity="1"
     objecttolerance="10"
     gridtolerance="10"
     guidetolerance="10"
     inkscape:pageopacity="0"
     inkscape:pageshadow="2"
     inkscape:window-width="1366"
     inkscape:window-height="746"
     id="namedview11"
     showgrid="false"
     showguides="true"
     inkscape:guide-bbox="true"
     inkscape:snap-smooth-nodes="true"
     inkscape:object-nodes="true"
     inkscape:zoom="16"
     inkscape:cx="4.956297"
     inkscape:cy="9.3132457"
     inkscape:window-x="0"
     inkscape:window-y="0"
     inkscape:window-maximized="1"
     inkscape:current-layer="layer2"
     inkscape:snap-global="true" /><metadata
     id="metadata19"><rdf:RDF><cc:Work
         rdf:about=""><dc:format>image/svg+xml</dc:format><dc:type
           rdf:resource="http://purl.org/dc/dcmitype/StillImage" /><dc:title></dc:title></cc:Work></rdf:RDF></metadata><g
     inkscape:groupmode="layer"
     id="layer1"
     inkscape:label="bak"
     style="opacity:0.31468584;display:none"
     transform="translate(0,-29)"><g
       id="Layer_x0020_4"
       style="stroke:#000000;stroke-width:1.51660764"
       transform="matrix(0.66070257,0,0,0.65803279,4.5351031,8.5499156)"><g
         id="g5"
         style="stroke-width:1.51660764"><path
           id="path7"
           style="fill:none;stroke:#ffffff;stroke-width:10.17492104"
           d="m 7.1,10.6 c -1.3,0 -2.3,1 -2.3,2.3 l 0.1,22.3 c 0,1.4 0.9,2.3 2.3,2.3 h 0.1 27.5 c 1.1,0 2.1,-0.6 2.9,-1.6 0.6,-0.9 2.2,-4.5 3.1,-6.8 1.6,-4.1 2.5,-6.7 2.5,-7.9 0,-0.3 0,-1.2 -0.7,-1.7 C 42,19 41.2,18.9 40.4,18.9 h -4 V 17.2 C 36.4,15.9 35.5,15 34.2,15 h -14 v -2.2 c 0,-1.2 -1,-2.2 -2.3,-2.2 H 7.1 z"
           inkscape:connector-curvature="0" /><path
           id="path9"
           d="m 7.1,10.6 c -1.3,0 -2.3,1 -2.3,2.3 l 0.1,22.3 c 0,1.4 0.9,2.3 2.3,2.3 h 0.1 27.5 c 1.1,0 2.1,-0.6 2.9,-1.6 0.6,-0.9 2.2,-4.5 3.1,-6.8 1.6,-4.1 2.5,-6.7 2.5,-7.9 0,-0.3 0,-1.2 -0.7,-1.7 C 42,19 41.2,18.9 40.4,18.9 h -4 V 17.2 C 36.4,15.9 35.5,15 34.2,15 h -14 v -2.2 c 0,-1.2 -1,-2.2 -2.3,-2.2 H 7.1 z"
           inkscape:connector-curvature="0"
           style="stroke-width:1.51660764" /><path
           id="path11"
           style="fill:#ffffff;stroke-width:1.51660764"
           d="M 8.9,35.3 H 34 c 0.6,0 1.2,-0.4 1.5,-0.9 0.7,-1 4.8,-10.6 4.8,-12.5 0,-0.4 0,-0.7 -1.3,-0.7 H 14.9 c -0.4,0 -0.8,0.1 -0.9,0.7 -0.1,1.5 -3.2,11.8 -4.3,13.1 -0.3,0.4 -0.9,0.4 -0.9,0.4 l 0.1,-0.1 z"
           inkscape:connector-curvature="0" /></g></g></g><g
     inkscape:groupmode="layer"
     id="layer2"
     inkscape:label="btn"
     transform="translate(0,-29)"><path
       style="fill:#d2d2d2;fill-opacity:1;fill-rule:nonzero;stroke:none"
       d="m 2,6 0,2 0,2 0,1 1,0 17,0 0,-1 0,-2 0,-2 z m 1,2 16,0 0,2 -16,0 z"
       transform="translate(0,25)"
       id="rect2994"
       inkscape:connector-curvature="0"
       sodipodi:nodetypes="ccccccccccccccc" /></g></svg>