<?xml version="1.0" encoding="UTF-8" standalone="no"?>
<!-- Created with Inkscape (http://www.inkscape.org/) -->

<svg
   xmlns:dc="http://purl.org/dc/elements/1.1/"
   xmlns:cc="http://creativecommons.org/ns#"
   xmlns:rdf="http://www.w3.org/1999/02/22-rdf-syntax-ns#"
   xmlns:svg="http://www.w3.org/2000/svg"
   xmlns="http://www.w3.org/2000/svg"
   version="1.1"
   width="24"
   height="49"
   id="svg3089">
  <metadata
     id="metadata3099">
    <rdf:RDF>
      <cc:Work
         rdf:about="">
        <dc:format>image/svg+xml</dc:format>
        <dc:type
           rdf:resource="http://purl.org/dc/dcmitype/StillImage" />
        <dc:title></dc:title>
      </cc:Work>
    </rdf:RDF>
  </metadata>
  <defs
     id="defs3097" />
  <path
     d="M 12.519531,33.263668 H 11.480469 L 9.0742188,11.115231 C 8.9648378,10.149118 8.9101498,9.429066 8.9101568,8.955075 8.9101498,7.806672 9.2109308,6.8861 9.8124998,6.193356 10.432284,5.500685 11.170565,5.154331 12.027344,5.154293 c 0.856761,3.8e-5 1.576812,0.346392 2.160156,1.039063 0.601551,0.692744 0.902332,1.722691 0.902344,3.089844 -1.2e-5,0.437533 -0.03647,1.048209 -0.109375,1.832031 l -2.460938,22.148437 m -0.546875,4.539063 c 0.838532,5e-6 1.549469,0.300786 2.132813,0.902344 0.60155,0.583337 0.902331,1.285159 0.902344,2.105468 -1.3e-5,0.838543 -0.300794,1.558595 -0.902344,2.160157 -0.583344,0.583332 -1.294281,0.874999 -2.132813,0.875 -0.83855,-10e-7 -1.558601,-0.291668 -2.1601562,-0.875 -0.58334,-0.601562 -0.875006,-1.321614 -0.875,-2.160157 -6e-6,-0.820309 0.29166,-1.522131 0.875,-2.105468 0.6015552,-0.601558 1.3216062,-0.902339 2.1601562,-0.902344"
     id="path3093"
     style="font-size:56px;font-weight:400;text-align:center;line-height:125%;letter-spacing:0;word-spacing:0;text-anchor:middle;fill:#aaaaaa;font-family:Times New Roman;-inkscape-font-specification:Times New Roman" />
</svg>
