<svg xmlns="http://www.w3.org/2000/svg" width="16" height="20"><path d="M9.0003033 14.918l4.5715187-7.9181H4.4287835z" fill="#888"/><path style="text-indent:0;text-align:start;line-height:normal;text-transform:none;block-progression:tb;marker:none;-inkscape-font-specification:Sans" d="M3.5 0C1.5696486 0 0 1.5696 0 3.5v13C0 18.4304 1.5696486 20 3.5 20h10c.980598 0 1.864042-.379628 2.5-1.03125V16.5c0 1.3936-1.106351 2.5-2.5 2.5h-10C2.1063514 19 1 17.8936 1 16.5v-13C1 2.1064 2.1063514 1 3.5 1h10C14.893649 1 16 2.1064 16 3.5V1.0625C15.364042.41087819 14.480598 0 13.5 0h-10z" font-weight="400" color="#000" fill="#666" overflow="visible" font-family="Sans"/></svg>