<svg xmlns="http://www.w3.org/2000/svg" width="24" height="49"><g style="line-height:125%;-inkscape-font-specification:Ubuntu"><path d="M12.5195308 33.263668h-1.039062l-2.40625-22.148437c-.109381-.966113-.164069-1.686165-.164062-2.160156-.000007-1.148403.300774-2.068975.902343-2.761719.619784-.692671 1.358065-1.039025 2.214844-1.039063.856761.000038 1.576812.346392 2.160156 1.039063.601551.692744.902332 1.722691.902344 3.089844-.000012.437533-.03647 1.048209-.109375 1.832031l-2.460938 22.148437m-.546875 4.539063c.838532.000005 1.549469.300786 2.132813.902344.60155.583337.902331 1.285159.902344 2.105468-.000013.838543-.300794 1.558595-.902344 2.160157-.583344.583332-1.294281.874999-2.132813.875-.83855-.000001-1.558601-.291668-2.160156-.875-.58334-.601562-.875006-1.321614-.875-2.160157-.000006-.820309.29166-1.522131.875-2.105468.601555-.601558 1.321606-.902339 2.160156-.902344" style="text-align:center;-inkscape-font-specification:Times New Roman" font-size="56" text-anchor="middle" font-family="Times New Roman" font-weight="400" letter-spacing="0" word-spacing="0" fill="#aaa"/></g></svg>