<?xml version="1.0" encoding="UTF-8" standalone="no"?>
<!-- Created with Inkscape (http://www.inkscape.org/) -->

<svg
   xmlns:dc="http://purl.org/dc/elements/1.1/"
   xmlns:cc="http://creativecommons.org/ns#"
   xmlns:rdf="http://www.w3.org/1999/02/22-rdf-syntax-ns#"
   xmlns:svg="http://www.w3.org/2000/svg"
   xmlns="http://www.w3.org/2000/svg"
   version="1.1"
   width="100%"
   height="100%"
   viewBox="0 0 18 18"
   id="svg3305">
  <metadata
     id="metadata3313">
    <rdf:RDF>
      <cc:Work
         rdf:about="">
        <dc:format>image/svg+xml</dc:format>
        <dc:type
           rdf:resource="http://purl.org/dc/dcmitype/StillImage" />
        <dc:title></dc:title>
      </cc:Work>
    </rdf:RDF>
  </metadata>
  <defs
     id="defs3311" />
  <path
     d="M 4.53125,3.5625 3.5625,4.53125 C 4.6563942,5.625144 5.6875,7.569258 5.6875,9 c 0,1.430742 -1.0311058,3.374856 -2.125,4.46875 L 4.53125,14.4375 C 5.625144,13.343606 7.569258,12.3125 9,12.3125 c 1.430742,0 3.374856,1.031106 4.46875,2.125 L 14.4375,13.46875 C 13.343606,12.374856 12.3125,10.430742 12.3125,9 c 0,-1.430742 1.031106,-3.374856 2.125,-4.46875 L 13.46875,3.5625 C 12.374856,4.6563942 10.430742,5.6875 9,5.6875 7.5692579,5.6875 5.6251442,4.6563942 4.53125,3.5625 z M 6.5,6.5 C 7.3471501,6.8669366 8.2222372,7.0937385 9,7.09375 9.7777629,7.0937385 10.65285,6.8669366 11.5,6.5 11.133063,7.3471501 10.906262,8.2222371 10.90625,9 10.906262,9.7777629 11.133063,10.65285 11.5,11.5 10.65285,11.133063 9.7777629,10.906262 9,10.90625 8.2222371,10.906262 7.3471501,11.133063 6.5,11.5 6.8669366,10.65285 7.0937383,9.7777629 7.09375,9 7.0937383,8.2222371 6.8669366,7.3471501 6.5,6.5 z"
     id="path3307"
     style="fill:#d2d2d2;fill-opacity:1" />
</svg>
