<?xml version="1.0" encoding="UTF-8" standalone="no"?>
<!-- Created with Inkscape (http://www.inkscape.org/) -->

<svg
   xmlns:dc="http://purl.org/dc/elements/1.1/"
   xmlns:cc="http://creativecommons.org/ns#"
   xmlns:rdf="http://www.w3.org/1999/02/22-rdf-syntax-ns#"
   xmlns:svg="http://www.w3.org/2000/svg"
   xmlns="http://www.w3.org/2000/svg"
   version="1.1"
   width="24"
   height="24"
   id="svg3331">
  <metadata
     id="metadata3345">
    <rdf:RDF>
      <cc:Work
         rdf:about="">
        <dc:format>image/svg+xml</dc:format>
        <dc:type
           rdf:resource="http://purl.org/dc/dcmitype/StillImage" />
        <dc:title></dc:title>
      </cc:Work>
    </rdf:RDF>
  </metadata>
  <defs
     id="defs3343" />
  <g
     id="g3333"
     style="fill:#0f0f0f">
    <path
       d="m 3.9015194,14.1646 2.9491731,-0.5499 c 0.4668122,-0.087 0.9126914,0.2187 0.9997298,0.6855 l 1.0212068,5.4771 c 0.087038,0.4668 -0.2186999,0.9126 -0.685512,0.9997 L 5.2369447,21.3268 C 4.7701328,21.4138 4.3242539,21.1081 4.2372151,20.6413 l -1.0212076,-5.477 c -0.087038,-0.4668 0.2187001,-0.9127 0.6855119,-0.9997 z"
       id="path3335" />
    <path
       d="m 11.999991,3.3081 c -4.7897612,0 -8.6919577,3.9021 -8.6919577,8.6919 0,0.5476 0.049969,1.0745 0.1473213,1.5937 0.414522,2.2572 0.843617,4.5115 1.2857134,6.7634 L 6.6294597,19.9955 C 6.2217415,17.6911 5.6706854,15.2413 5.3437461,13.125 5.2805451,12.7565 5.2366032,12.3897 5.2366032,12 c 0,-3.7473 3.0160743,-6.7634 6.7633878,-6.7634 3.747314,0 6.763388,3.0161 6.763388,6.7634 0,0.3897 -0.04394,0.7565 -0.107143,1.125 -0.326939,2.1163 -0.877995,4.5661 -1.285713,6.8705 l 1.888392,0.3616 c 0.442096,-2.2519 0.871191,-4.5062 1.285713,-6.7634 0.09735,-0.5192 0.147322,-1.0461 0.147322,-1.5937 0,-4.7898 -3.902197,-8.6919 -8.691959,-8.6919 z"
       id="path3337"
       style="font-weight:400;text-indent:0;text-align:start;line-height:normal;text-transform:none;block-progression:tb;color:#000000;marker:none;overflow:visible;font-family:Sans;-inkscape-font-specification:Sans" />
    <path
       d="M 20.098463,14.1646 17.14929,13.6147 c -0.466812,-0.087 -0.912691,0.2187 -0.99973,0.6855 l -1.021206,5.4771 c -0.08704,0.4668 0.218699,0.9127 0.685512,0.9997 l 2.949172,0.5499 c 0.466812,0.087 0.912691,-0.2187 0.999729,-0.6856 l 1.021208,-5.4771 c 0.08704,-0.4667 -0.2187,-0.9126 -0.685512,-0.9996 z"
       id="path3339" />
  </g>
</svg>
