<svg id="svg2" width="30" height="18" version="1.1" xmlns="http://www.w3.org/2000/svg"><g id="g838" fill="#f60"><rect id="rect3370" x="21" y="4.9999" width="2" height="8.0002" color="#000000" stroke-width=".4151"/><rect id="rect3372" x="25" y="4.9999" width="2" height="8.0002" color="#000000" stroke-width=".4151"/><path id="path14078" d="m9.9395 3.4629c-2.9871 0-5.4219 2.4328-5.4219 5.4199 0 0.3415 0.031085 0.67035 0.091797 0.99414 0.046555 0.25351 0.097343 0.50633 0.14453 0.75977l0.00195 3.3965c2.504e-4 0.29613 0.23902 0.53539 0.53516 0.53516l1.8711-2e-3c0.29615-2.39e-4 0.53345-0.23898 0.53321-0.53511l-0.00195-3.4746c-2.535e-4 -0.29613-0.23903-0.53343-0.53516-0.5332l-1.291 2e-3c-0.024177-0.14248-0.058723-0.30126-0.080078-0.4395-0.039414-0.22981-0.066406-0.46009-0.066406-0.70312 0-2.337 1.8818-4.2168 4.2188-4.2168 2.3369 0 4.2168 1.8798 4.2168 4.2168 0 0.24303-0.02699 0.47332-0.06641 0.70312-0.02136 0.13826-0.05591 0.29697-0.08008 0.43945l-1.2852-0.0039c-0.29613-8.73e-4 -0.53424 0.23707-0.53516 0.5332l-0.01172 3.4727c-9.35e-4 0.29613 0.23707 0.53622 0.5332 0.53711l1.8711 0.0059c0.29613 8.75e-4 0.53426-0.23701 0.53516-0.5332l0.01172-3.4297c0.0453-0.24363 0.09391-0.48673 0.13867-0.73047 0.06071-0.32379 0.0918-0.65264 0.0918-0.99414 0-2.9872-2.4328-5.4199-5.4199-5.4199z"/></g></svg>
