<svg xmlns="http://www.w3.org/2000/svg" width="16" height="20"><path d="M6.9996967 5.0819L2.428178 13h9.143038z" fill="#888"/><path style="text-indent:0;text-align:start;line-height:normal;text-transform:none;block-progression:tb;marker:none;-inkscape-font-specification:Sans" d="M12.5 0C14.430351 0 16 1.5696 16 3.5v13c0 1.9304-1.569649 3.5-3.5 3.5h-10c-.980598 0-1.864042-.3796-2.5-1.0312V16.5C0 17.8936 1.106351 19 2.5 19h10c1.393649 0 2.5-1.1064 2.5-2.5v-13C15 2.1064 13.893649 1 12.5 1h-10C1.106351 1 0 2.1064 0 3.5V1.0625C.635958.4109 1.519402 0 2.5 0h10z" font-weight="400" color="#000" fill="#666" overflow="visible" font-family="Sans"/></svg>