<?xml version="1.0" encoding="UTF-8" standalone="no"?>
<!-- Created with Inkscape (http://www.inkscape.org/) -->

<svg
   xmlns:dc="http://purl.org/dc/elements/1.1/"
   xmlns:cc="http://creativecommons.org/ns#"
   xmlns:rdf="http://www.w3.org/1999/02/22-rdf-syntax-ns#"
   xmlns:svg="http://www.w3.org/2000/svg"
   xmlns="http://www.w3.org/2000/svg"
   version="1.1"
   width="15"
   height="50"
   viewBox="0 0 15 50"
   id="svg2">
  <metadata
     id="metadata10">
    <rdf:RDF>
      <cc:Work
         rdf:about="">
        <dc:format>image/svg+xml</dc:format>
        <dc:type
           rdf:resource="http://purl.org/dc/dcmitype/StillImage" />
        <dc:title></dc:title>
      </cc:Work>
    </rdf:RDF>
  </metadata>
  <defs
     id="defs8" />
  <path
     d="M 5.106,35.817663 9.6314848,40.343146 5.106,44.868629 6.237372,46 10.762855,41.474517 11.894226,40.343146 10.762855,39.211775 6.237372,34.686292 5.106,35.817663 z"
     id="path4"
     style="fill:#151515;fill-opacity:1" />
  <path
     d="m 7.5,15.343146 c -3.3137085,0 -6,-2.686292 -6,-6 0,-3.313708 2.6862915,-6 6,-6 3.313708,0 6,2.686292 6,6 0,3.313708 -2.686292,6 -6,6 z m 0,-5.03125 c 0.5383463,0 0.96875,-0.430404 0.96875,-0.96875 0,-0.538346 -0.4304037,-0.96875 -0.96875,-0.96875 -0.5383463,0 -0.96875,0.430404 -0.96875,0.96875 0,0.538346 0.4304037,0.96875 0.96875,0.96875 z"
     id="path2991"
     style="color:#000000;fill:#151515;fill-opacity:1;fill-rule:nonzero;stroke:none;stroke-width:1;marker:none;visibility:visible;display:inline;overflow:visible;enable-background:accumulate" />
</svg>
