<!-- Created with Inkscape (http://www.inkscape.org/) -->
<svg id="svg3141" width="20" height="30" version="1.1" xmlns="http://www.w3.org/2000/svg"><path id="path5834" d="m10.239 8.75 1.5603 19.25-3.5997 1e-6 1.5646-19.25" fill="#ffc105"/><path id="path3245" d="m12 8c0 1.1046-0.89543 2-2 2-1.1046 0-2-0.89543-2-2 0-1.1046 0.89543-2 2-2 1.1046 0 2 0.89543 2 2z" fill="#ffc105"/><path id="path5908" d="m6.875 4.1562c-0.26844 0.21737-0.50138 0.45031-0.71875 0.71875-1.7136 2.1161-1.3974 5.2552 0.71875 6.9688l0.78125-0.9375c-1.6121-1.3055-1.868-3.6379-0.5625-5.25 0.16461-0.20327 0.35923-0.39789 0.5625-0.5625l-0.78125-0.9375z" color="#000000" fill="#e6d290" style="block-progression:tb;text-indent:0;text-transform:none"/><path id="path5888-5" d="m15 1.8125c0.43163 0.34953 0.83797 0.75587 1.1875 1.1875 2.7581 3.406 2.2185 8.4294-1.1875 11.188l-0.75-0.9375c2.902-2.35 3.35-6.598 1-9.5l-0.09375-0.09375c-0.27528-0.32661-0.57414-0.63731-0.90625-0.90625l0.75-0.9375z" color="#000000" fill="#d2d2d2" style="block-progression:tb;text-indent:0;text-transform:none"/><path id="path5908-3" d="m13.125 4.1562c0.26844 0.21737 0.50138 0.45031 0.71875 0.71875 1.7136 2.1161 1.3974 5.2552-0.71875 6.9688l-0.78125-0.9375c1.6121-1.3055 1.868-3.6379 0.5625-5.25-0.1646-0.20327-0.35923-0.39789-0.5625-0.5625l0.78125-0.9375z" color="#000000" fill="#e6d290" style="block-progression:tb;text-indent:0;text-transform:none"/><path id="path5888" d="m5 1.8125c-0.43163 0.34953-0.83797 0.75587-1.1875 1.1875-2.7581 3.406-2.2185 8.4294 1.1875 11.188l0.75-0.9375c-2.902-2.35-3.35-6.598-1-9.5l0.09375-0.09375c0.27528-0.32661 0.57414-0.63731 0.90625-0.90625l-0.75-0.9375z" color="#000000" fill="#d2d2d2" style="block-progression:tb;text-indent:0;text-transform:none"/></svg>
