<svg xmlns="http://www.w3.org/2000/svg" width="20" height="24"><path d="M12.0000006326 8.000041815c0 1.1045695273-.8954318153 2.0000000595-2.0000007025 2.0000000595-1.1045694958 0-1.9999999417-.8954305322-1.9999999417-2.0000000595 0-1.1045693731.8954304459-1.9999999054 1.9999999417-1.9999999054 1.1045688872 0 2.0000007025.8954305323 2.0000007025 1.9999999054z" fill="#ffc105"/><path d="M3.7828441 2.9655c-2.7805055 3.4336-2.2510803 8.4712 1.1826037 11.2517l.7745452-.9565C2.8345802 10.908 2.3865901 6.6454 4.7393316 3.7401l-.9564875-.7746zm10.4771629-.2261c2.905413 2.3527 3.353403 6.6153 1.000661 9.5206l.956488.7746c2.780506-3.4336 2.25108-8.4712-1.182604-11.2517l-.774545.9565z" fill="#d8d8d8"/><path d="M6.1740568 4.9018c-1.7110785 2.1131-1.3852093 5.2132.7277585 6.9242l.774545-.9565c-1.5848031-1.2834-1.8291201-3.6083-.5458162-5.1931l-.9564873-.7746zm6.1495832.2288c1.584707 1.2833 1.829121 3.6083.545817 5.1931l.956486.7746c1.711079-2.1131 1.38521-5.2132-.727758-6.9242l-.774545.9565z" fill="#e6d290"/><path d="M9.9999998987.0000331457l1.799827873 21.9999122524-3.5996554685 6.166e-7z" fill="#ffc105"/><path d="M16.217155 2.9655c2.780506 3.4336 2.25108 8.4712-1.182604 11.2517l-.774545-.9565c2.905413-2.3527 3.353403-6.6153 1.000662-9.5206l.956487-.7746zM5.7399931 2.7394c-2.905413 2.3527-3.353403 6.6153-1.000661 9.5206l-.956488.7746c-2.780506-3.4336-2.25108-8.4712 1.182604-11.2517l.774545.9565z" fill="#d8d8d8"/><path d="M13.825942 4.9018c1.711079 2.1131 1.38521 5.2132-.727758 6.9242l-.774545-.9565c1.584803-1.2834 1.82912-3.6083.545816-5.1931l.956487-.7746zm-6.1495819.2288c-1.584707 1.2833-1.829121 3.6083-.545817 5.1931l-.956486.7746c-1.711079-2.1131-1.38521-5.2132.727758-6.9242l.774545.9565z" fill="#e6d290"/></svg>