<svg version="1.1" viewBox="0 0 22 22" xmlns="http://www.w3.org/2000/svg">
  <path d="m8.656533 7.066456c-1.501305.0103-2.530135.683323-3.039683 1.475319-.509548.791995-.566178 1.605506-.562604 2.043994.0049.595787.00085 2.306902 0 2.697669h-.690101c-.431738 0-.864145.429985-.864145.860096v4.496789c0 .43011.432417.860096.864145.860096h8.633348c.431737 0 .864144-.429986.864144-.860096v-4.496789c0-.430111-.432417-.860096-.864144-.860096h-.690101c.000174-.309152.001-1.634366 0-2.250418-.001-.634255-.06244-1.567657-.578796-2.428509-.516359-.860851-1.573854-1.548354-3.072063-1.538055zm.01013 1.554245c1.082451-.0074 1.457838.330968 1.730307.785218.272471.45425.355354 1.125522.356181 1.631148.00095.610364.000174 1.936522 0 2.246371h-4.14466c9e-4-.393748.0051-2.082717 0-2.709811-.002-.245565.05822-.791776.315706-1.191993.25749-.400222.646404-.753413 1.742455-.760933zm-3.094337 6.336425h6.216982c.287018 0 .518083.231067.518083.518082 0 .287018-.231065.518083-.518083.518083h-6.216981c-.287017 0-.518081-.231065-.518081-.518083 0-.287015.231064-.518082.51808-.518082zm0 2.072328h6.216982c.287018 0 .518083.231065.518083.518082s-.231065.518082-.518083.518082h-6.216981c-.287017 0-.518081-.231066-.518081-.518082 0-.287017.231064-.518082.51808-.518082z" color="#000000" fill="#aaa" stroke-width="2" style="-inkscape-stroke:none"/>
  <path d="m12 3h6v14h-4.143478v-1.5h2.643478v-11h-4.5z" fill="#888" stroke-width=".5"/>
</svg>
