<!-- Created with Inkscape (http://www.inkscape.org/) -->
<svg id="svg11828" width="32" height="24" version="1.1" xmlns="http://www.w3.org/2000/svg"><path id="path11885" d="m20.883 11.873h2.2121v4.5084h-2.2121zm7.1893-4.3982-4.4242 4.5084v4.5084l4.4242 4.5084h0.55302v-13.525h-0.55302z" fill="#d2d2d2"/><g id="g11891" transform="translate(-.55875 1.0211)" fill="#d2d2d2"><path id="path11861" d="m4.5442 9.6186 2.0333-0.37908c0.32184-0.060015 0.62924 0.15078 0.68925 0.47261l0.70405 3.7761c0.060007 0.32183-0.15078 0.62921-0.47261 0.68922l-2.0333 0.37908c-0.32184 0.060015-0.62924-0.15078-0.68925-0.47261l-0.70405-3.7761c-0.060007-0.32183 0.15078-0.62921 0.47261-0.68923z"/><path id="path11863" d="m10.128 2.1337c-3.3022 0-5.9925 2.6902-5.9925 5.9925 0 0.37757 0.03445 0.74083 0.10157 1.0988 0.28578 1.5562 0.58162 3.1103 0.88641 4.6629l1.3019-0.2493c-0.28109-1.5887-0.66101-3.2777-0.88641-4.7368-0.043573-0.25402-0.073868-0.50694-0.073868-0.77561 0-2.5835 2.0794-4.6629 4.6629-4.6629 2.5835 0 4.6629 2.0794 4.6629 4.6629 0 0.26867-0.03029 0.52159-0.07387 0.77561-0.2254 1.4591-0.60532 3.148-0.88641 4.7368l1.3019 0.2493c0.3048-1.5526 0.60063-3.1067 0.88641-4.6629 0.06712-0.35795 0.10157-0.72121 0.10157-1.0988 0-3.3023-2.6903-5.9925-5.9925-5.9925z" color="#000000" style="block-progression:tb;text-indent:0;text-transform:none"/><path id="path11865" d="m15.711 9.6186-2.0333-0.37912c-0.32184-0.059981-0.62924 0.15078-0.68925 0.47261l-0.70405 3.7761c-0.06001 0.32183 0.15078 0.62921 0.47261 0.68922l2.0333 0.37908c0.32184 0.05995 0.62924-0.15078 0.68925-0.47264l0.70405-3.7761c0.06001-0.32176-0.15078-0.62921-0.47262-0.68916z"/></g><path id="path11867" d="m26.531 1.625" color="#000000" fill="#d2d2d2" style="block-progression:tb;text-indent:0;text-transform:none"/><path id="path11898-3" d="m23.613 1-11.375 22h1.5156l11.375-22z" color="#000000" fill="#d2d2d2" style="block-progression:tb;text-indent:0;text-transform:none"/></svg>
