<?xml version="1.0" encoding="UTF-8" standalone="no"?>
<!-- Created with Inkscape (http://www.inkscape.org/) -->

<svg
   xmlns:dc="http://purl.org/dc/elements/1.1/"
   xmlns:cc="http://creativecommons.org/ns#"
   xmlns:rdf="http://www.w3.org/1999/02/22-rdf-syntax-ns#"
   xmlns:svg="http://www.w3.org/2000/svg"
   xmlns="http://www.w3.org/2000/svg"
   xmlns:sodipodi="http://sodipodi.sourceforge.net/DTD/sodipodi-0.dtd"
   xmlns:inkscape="http://www.inkscape.org/namespaces/inkscape"
   version="1.1"
   width="20"
   height="20"
   viewBox="0 0 20 20"
   id="svg2"
   inkscape:version="0.48.4 r9939"
   sodipodi:docname="btn_skinsettings_close.svg">
  <sodipodi:namedview
     pagecolor="#ffffff"
     bordercolor="#666666"
     borderopacity="1"
     objecttolerance="10"
     gridtolerance="10"
     guidetolerance="10"
     inkscape:pageopacity="0"
     inkscape:pageshadow="2"
     inkscape:window-width="1366"
     inkscape:window-height="746"
     id="namedview7"
     showgrid="false"
     inkscape:object-paths="true"
     inkscape:snap-bbox="true"
     inkscape:snap-bbox-midpoints="true"
     inkscape:zoom="11.313708"
     inkscape:cx="12.9009"
     inkscape:cy="6.4920707"
     inkscape:window-x="0"
     inkscape:window-y="0"
     inkscape:window-maximized="1"
     inkscape:current-layer="layer2"
     inkscape:bbox-nodes="true"
     inkscape:snap-page="true"
     showguides="true"
     inkscape:guide-bbox="true" />
  <metadata
     id="metadata12">
    <rdf:RDF>
      <cc:Work
         rdf:about="">
        <dc:format>image/svg+xml</dc:format>
        <dc:type
           rdf:resource="http://purl.org/dc/dcmitype/StillImage" />
        <dc:title></dc:title>
      </cc:Work>
    </rdf:RDF>
  </metadata>
  <defs
     id="defs10" />
  <g
     inkscape:groupmode="layer"
     id="layer2"
     inkscape:label="ON"
     style="display:inline"
     transform="translate(0,-28)">
    <g
       id="g3002"
       transform="matrix(1.1411261,0,0,1.1411261,-1.4112602,-5.3628088)"
       style="fill:#d2d2d2;fill-opacity:1">
      <path
         style="fill:#d2d2d2;fill-opacity:1;fill-rule:nonzero;stroke:none;display:inline"
         d="m 6.0816448,33.419383 c -0.1758295,-0.0057 -0.3479132,0.05358 -0.4782968,0.18396 -0.2607671,0.260767 -0.2413596,0.696838 0.036792,0.97499 l 3.421662,3.421662 -3.421662,3.421662 c -0.2781517,0.278151 -0.2975592,0.714222 -0.036792,0.974989 0.2607671,0.260768 0.6968381,0.24136 0.9749897,-0.03679 l 3.421662,-3.421662 3.4216623,3.421662 c 0.278151,0.278152 0.714222,0.29756 0.974989,0.03679 0.260768,-0.260767 0.24136,-0.696838 -0.03679,-0.974989 l -3.421662,-3.421662 3.421662,-3.421662 c 0.278152,-0.278152 0.29756,-0.714223 0.03679,-0.97499 -0.260767,-0.260767 -0.696838,-0.24136 -0.974989,0.03679 L 9.9999997,37.061797 6.5783377,33.640135 C 6.4392619,33.501059 6.2574744,33.425055 6.0816448,33.419383 z"
         id="rect2983-3"
         inkscape:connector-curvature="0" />
    </g>
  </g>
</svg>
