<?xml version="1.0" encoding="UTF-8" standalone="no"?>
<!-- Created with Inkscape (http://www.inkscape.org/) -->

<svg
   xmlns:dc="http://purl.org/dc/elements/1.1/"
   xmlns:cc="http://creativecommons.org/ns#"
   xmlns:rdf="http://www.w3.org/1999/02/22-rdf-syntax-ns#"
   xmlns:svg="http://www.w3.org/2000/svg"
   xmlns="http://www.w3.org/2000/svg"
   xmlns:sodipodi="http://sodipodi.sourceforge.net/DTD/sodipodi-0.dtd"
   xmlns:inkscape="http://www.inkscape.org/namespaces/inkscape"
   version="1.1"
   width="48"
   height="48"
   viewBox="0 0 48 48"
   id="svg2"
   inkscape:version="0.48.4 r9939"
   sodipodi:docname="btn_spinny.svg">
  <sodipodi:namedview
     pagecolor="#ffffff"
     bordercolor="#666666"
     borderopacity="1"
     objecttolerance="10"
     gridtolerance="10"
     guidetolerance="10"
     inkscape:pageopacity="0"
     inkscape:pageshadow="2"
     inkscape:window-width="1366"
     inkscape:window-height="746"
     id="namedview7"
     showgrid="false"
     inkscape:object-paths="true"
     inkscape:snap-bbox="true"
     inkscape:snap-bbox-midpoints="true"
     inkscape:zoom="5.656854"
     inkscape:cx="52.304015"
     inkscape:cy="19.158334"
     inkscape:window-x="0"
     inkscape:window-y="0"
     inkscape:window-maximized="1"
     inkscape:current-layer="layer3"
     inkscape:bbox-paths="true"
     inkscape:snap-page="true" />
  <metadata
     id="metadata12">
    <rdf:RDF>
      <cc:Work
         rdf:about="">
        <dc:format>image/svg+xml</dc:format>
        <dc:type
           rdf:resource="http://purl.org/dc/dcmitype/StillImage" />
        <dc:title />
      </cc:Work>
    </rdf:RDF>
  </metadata>
  <defs
     id="defs10" />
  <g
     inkscape:groupmode="layer"
     id="layer3"
     inkscape:label="On"
     style="display:inline">
    <path
       inkscape:connector-curvature="0"
       style="fill:#888888;fill-opacity:1;display:inline"
       d="m 23.25,7.0000008 c -1.232669,0.052704 -2.47287,0.2454144 -3.65625,0.5625 -4.207573,1.1274144 -7.968544,3.8770822 -10.3125,7.9374982 -4.6885044,8.120163 -1.9016945,18.530736 6.21875,23.21875 8.120059,4.688119 18.530632,1.901311 23.218749,-6.218748 0.260215,-0.450706 0.504348,-0.880476 0.718752,-1.343751 0.179064,-0.386515 0.321578,-0.825252 0.468749,-1.218751 0.0348,-0.0942 0.09144,-0.155064 0.124992,-0.249998 0.153312,-0.432415 0.289668,-0.874399 0.40625,-1.3125 0.0091,-0.03557 -0.0091,-0.08942 0,-0.124992 0.122088,-0.471672 0.232944,-0.930444 0.312502,-1.406249 1.146376,-6.806628 -1.931801,-13.915502 -8.25,-17.5624992 -2.537585,-1.4652792 -5.28895,-2.2052688 -8.03125,-2.2812504 -0.411346,-0.01128 -0.807861,-0.01752 -1.218751,0 z m 7.65625,2.625 c 0.149616,0.072048 0.290073,0.142032 0.4375,0.21876 0.341441,0.1776482 0.671712,0.3606362 1.000001,0.5624972 C 32.564599,10.54205 32.785582,10.72781 33,10.87501 L 27.124999,21.03126 C 26.785361,20.675611 26.390014,20.381654 25.937501,20.156258 25.68241,20.029202 25.412395,19.952018 25.125,19.87501 25.083,19.86373 25.04196,19.85365 25.000008,19.843762 L 30.90625,9.6250128 z M 23.875,21.656249 c 0.466388,-0.0287 0.89312,0.08842 1.28125,0.312501 0.517505,0.298781 0.9254,0.809204 1.09375,1.4375 0.123576,0.461217 0.106728,0.894122 -0.03125,1.3125 -0.0079,0.02304 0.0084,0.07111 0,0.09374 -0.03636,0.09941 -0.106944,0.188568 -0.15624,0.281248 -0.01392,0.02599 -0.01632,0.0367 -0.03125,0.0625 -0.0132,0.02328 -0.01728,0.07159 -0.03125,0.09374 -0.06204,0.09948 -0.142344,0.191952 -0.218736,0.281252 -0.005,0.0062 -0.02611,-0.0062 -0.03125,0 -0.294931,0.337329 -0.687377,0.593107 -1.156282,0.718749 -0.463932,0.12432 -0.922835,0.10896 -1.34375,-0.03125 -0.0273,-0.0096 -0.03541,-0.02064 -0.0625,-0.03125 -0.07976,-0.03 -0.174295,-0.05539 -0.25,-0.09374 -0.0371,-0.0192 -0.05705,-0.04133 -0.09375,-0.0625 -0.03784,-0.02184 -0.0886,-0.07006 -0.124999,-0.09374 -0.06808,-0.04428 -0.124289,-0.07361 -0.1875,-0.124992 -0.0259,-0.02064 -0.06909,-0.04099 -0.09375,-0.0625 C 22.106773,25.456236 21.874067,25.056775 21.75,24.59375 21.625932,24.130723 21.641718,23.66977 21.78125,23.25 c 0.01061,-0.03096 0.01918,-0.06288 0.03125,-0.09374 0.02904,-0.07613 0.05693,-0.146376 0.09375,-0.21876 0.01968,-0.03869 0.04065,-0.05592 0.0625,-0.09374 0.02516,-0.04356 0.06651,-0.08376 0.09375,-0.124992 0.04121,-0.06144 0.07838,-0.129936 0.124999,-0.187512 0.02692,-0.03338 0.06577,-0.06252 0.09375,-0.09374 0.291664,-0.32047 0.671469,-0.565975 1.125,-0.687499 0.157073,-0.0421 0.313287,-0.08417 0.46875,-0.09374 z"
       id="path3800-3" />
  </g>
</svg>
