<?xml version="1.0" encoding="UTF-8" standalone="no"?>
<!-- Created with Inkscape (http://www.inkscape.org/) -->

<svg
   xmlns:dc="http://purl.org/dc/elements/1.1/"
   xmlns:cc="http://creativecommons.org/ns#"
   xmlns:rdf="http://www.w3.org/1999/02/22-rdf-syntax-ns#"
   xmlns:svg="http://www.w3.org/2000/svg"
   xmlns="http://www.w3.org/2000/svg"
   xmlns:sodipodi="http://sodipodi.sourceforge.net/DTD/sodipodi-0.dtd"
   xmlns:inkscape="http://www.inkscape.org/namespaces/inkscape"
   version="1.1"
   width="30"
   height="22"
   id="svg2"
   inkscape:version="0.48.4 r9939"
   sodipodi:docname="btn_loop.svg">
  <sodipodi:namedview
     pagecolor="#ffffff"
     bordercolor="#666666"
     borderopacity="1"
     objecttolerance="10"
     gridtolerance="10"
     guidetolerance="10"
     inkscape:pageopacity="0"
     inkscape:pageshadow="2"
     inkscape:window-width="1366"
     inkscape:window-height="747"
     id="namedview4353"
     showgrid="false"
     inkscape:snap-page="true"
     inkscape:zoom="5.6568542"
     inkscape:cx="19.745031"
     inkscape:cy="12.268713"
     inkscape:window-x="0"
     inkscape:window-y="21"
     inkscape:window-maximized="1"
     inkscape:current-layer="layer2"
     inkscape:snap-object-midpoints="false"
     inkscape:snap-center="false"
     inkscape:object-nodes="true"
     inkscape:object-paths="true"
     inkscape:snap-intersection-paths="true"
     showguides="false"
     inkscape:guide-bbox="true">
    <inkscape:grid
       empspacing="5"
       visible="true"
       enabled="true"
       snapvisiblegridlinesonly="true"
       type="xygrid"
       id="grid2985" />
    <sodipodi:guide
       orientation="0,1"
       position="-15,18"
       id="guide3836" />
    <sodipodi:guide
       orientation="1,0"
       position="15,12.64"
       id="guide3838" />
    <sodipodi:guide
       orientation="0,1"
       position="-2.2097087,4"
       id="guide3924" />
  </sodipodi:namedview>
  <defs
     id="defs4" />
  <metadata
     id="metadata7">
    <rdf:RDF>
      <cc:Work
         rdf:about="">
        <dc:format>image/svg+xml</dc:format>
        <dc:type
           rdf:resource="http://purl.org/dc/dcmitype/StillImage" />
        <dc:title></dc:title>
      </cc:Work>
    </rdf:RDF>
  </metadata>
  <g
     inkscape:groupmode="layer"
     id="layer1"
     inkscape:label="Layer"
     style="opacity:0.34090911;display:none"
     sodipodi:insensitive="true">
    <g
       transform="matrix(1.2438616,0,0,1.2438616,3.2292779,-1284.3648)"
       id="layer1-3">
      <g
         id="g3989"
         style="fill:#888888;fill-opacity:1">
        <path
           d="m 18.375,1038.9561 -1.09375,0.7812 -0.53125,0.375 c 0.174912,0.3826 0.25,0.8022 0.25,1.25 0,1.6569 -1.343146,3 -3,3 l -5.4375,0 0,-2.625 -1.5625,1.125 -1,0.6875 -0.75,0.5625 -1.75,1.25 1.75,1.25 0.75,0.5625 1,0.6875 1.5625,1.125 0,-2.625 5.4375,0 c 1.326074,0 2.593574,-0.531 3.53125,-1.4687 1.610902,-1.6109 1.890837,-4.0396 0.84375,-5.9375 z"
           id="path3832-5"
           style="fill:#0f0f0f;fill-opacity:1;fill-rule:nonzero;stroke:none"
           inkscape:connector-curvature="0" />
        <path
           d="m 3.625,1043.7685 1.09375,-0.7813 0.53125,-0.375 c -0.174912,-0.3826 -0.25,-0.8023 -0.25,-1.25 0,-1.6569 1.343146,-3 3,-3 l 5.4375,0 0,2.625 1.5625,-1.125 1,-0.6875 0.75,-0.5625 1.75,-1.25 -1.75,-1.25 -0.75,-0.5625 -1,-0.6875 -1.5625,-1.125 0,2.625 -5.4375,0 c -1.326074,0 -2.593574,0.531 -3.53125,1.4688 -1.610902,1.6109 -1.890837,4.0396 -0.84375,5.9375 z"
           id="path3832-5-7"
           style="fill:#0f0f0f;fill-opacity:1;fill-rule:nonzero;stroke:none"
           inkscape:connector-curvature="0" />
      </g>
    </g>
  </g>
  <g
     inkscape:groupmode="layer"
     id="layer2"
     inkscape:label="Layer#1"
     style="display:inline">
    <path
       style="color:#000000;fill:#d2d2d2;fill-opacity:1;fill-rule:nonzero;stroke:none;stroke-width:4;marker:none;visibility:visible;display:inline;overflow:visible;enable-background:accumulate"
       d="M 5.094,7.187875 6.50025,8.000375 7.094,8.344125 7.09375,15 c -2.15e-5,0.571293 0.428698,1 1,1 l 9.9375,0 0,-3 3.46875,2 3.46875,2 -3.46875,2 -3.46875,2 0,-3 -9.9375,0 c -1.644706,0 -3,-1.355295 -3,-3 z"
       id="path2995-3-7"
       inkscape:connector-curvature="0"
       sodipodi:nodetypes="cccsscccccccssc" />
    <path
       style="font-size:medium;font-style:normal;font-variant:normal;font-weight:normal;font-stretch:normal;text-indent:0;text-align:start;text-decoration:none;line-height:normal;letter-spacing:normal;word-spacing:normal;text-transform:none;direction:ltr;block-progression:tb;writing-mode:lr-tb;text-anchor:start;baseline-shift:baseline;color:#000000;fill:#d2d2d2;fill-opacity:1;stroke:none;stroke-width:2;marker:none;visibility:visible;display:inline;overflow:visible;enable-background:accumulate;font-family:Sans;-inkscape-font-specification:Sans"
       d="m 11.96875,1 0,3 9.9375,0 c 1.644703,0 3,1.3552971 3,3 l 0,7.812125 -1.40625,-0.8125 -0.59375,-0.34375 0,-6.655875 c 0,-0.5712971 -0.428703,-1 -1,-1 l -9.9375,0 0,3 L 8.5,7 5.03125,5 8.5,3 z"
       id="path3832"
       inkscape:connector-curvature="0"
       sodipodi:nodetypes="ccsscccsscccccc" />
  </g>
</svg>
