<?xml version="1.0" encoding="UTF-8" standalone="no"?>
<!-- Created with Inkscape (http://www.inkscape.org/) -->

<svg
   xmlns:dc="http://purl.org/dc/elements/1.1/"
   xmlns:cc="http://creativecommons.org/ns#"
   xmlns:rdf="http://www.w3.org/1999/02/22-rdf-syntax-ns#"
   xmlns:svg="http://www.w3.org/2000/svg"
   xmlns="http://www.w3.org/2000/svg"
   xmlns:sodipodi="http://sodipodi.sourceforge.net/DTD/sodipodi-0.dtd"
   xmlns:inkscape="http://www.inkscape.org/namespaces/inkscape"
   width="28"
   height="32"
   id="svg2"
   version="1.1"
   inkscape:version="0.48.4 r9939"
   sodipodi:docname="btn_aux1_mute.svg">
  <defs
     id="defs4" />
  <sodipodi:namedview
     id="base"
     pagecolor="#ffffff"
     bordercolor="#666666"
     borderopacity="1.0"
     inkscape:pageopacity="0.0"
     inkscape:pageshadow="2"
     inkscape:zoom="7.9999999"
     inkscape:cx="44.551568"
     inkscape:cy="16.609475"
     inkscape:document-units="px"
     inkscape:current-layer="g3923"
     showgrid="false"
     inkscape:snap-page="true"
     inkscape:snap-bbox="true"
     inkscape:snap-bbox-midpoints="true"
     inkscape:snap-bbox-edge-midpoints="true"
     inkscape:bbox-nodes="true"
     inkscape:bbox-paths="true"
     inkscape:snap-object-midpoints="true"
     inkscape:object-nodes="true"
     inkscape:snap-smooth-nodes="true"
     inkscape:object-paths="true"
     showguides="true"
     inkscape:guide-bbox="true"
     inkscape:window-width="1366"
     inkscape:window-height="746"
     inkscape:window-x="0"
     inkscape:window-y="0"
     inkscape:window-maximized="1"
     inkscape:snap-global="true" />
  <metadata
     id="metadata7">
    <rdf:RDF>
      <cc:Work
         rdf:about="">
        <dc:format>image/svg+xml</dc:format>
        <dc:type
           rdf:resource="http://purl.org/dc/dcmitype/StillImage" />
        <dc:title></dc:title>
      </cc:Work>
    </rdf:RDF>
  </metadata>
  <g
     transform="translate(0,-1020.3622)"
     id="g3923"
     inkscape:groupmode="layer"
     inkscape:label="OFF"
     style="display:inline">
    <g
       id="g2989"
       transform="translate(-88.571429,8.1332715)" />
    <g
       transform="translate(30.84525,1007.0622)"
       style="font-size:14px;font-style:normal;font-variant:normal;font-weight:normal;font-stretch:normal;line-height:125%;letter-spacing:0px;word-spacing:0px;fill:#000000;fill-opacity:1;stroke:none;display:inline;font-family:Ubuntu;-inkscape-font-specification:Ubuntu"
       id="flowRoot3890">
      <path
         d="m -11.066584,40.666189 0,-9.688 c -0.522672,0.373346 -1.120005,0.709345 -1.792,1.008 -0.672004,0.280011 -1.241336,0.504011 -1.708,0.672 l -1.12,-2.856 c 0.447998,-0.167986 0.933331,-0.382653 1.456,-0.644 0.522663,-0.261319 1.045329,-0.550652 1.568,-0.868 0.522662,-0.317318 1.017328,-0.653317 1.484,-1.008 0.46666,-0.35465 0.867993,-0.71865 1.2040005,-1.092 l 2.352,0 0,14.476 3.444,0 0,2.856 -10.5280005,0 0,-2.856 3.64,0"
         style="font-size:28px;font-weight:bold;fill:#888888;fill-opacity:1;font-family:Ubuntu Mono;-inkscape-font-specification:Ubuntu Mono Bold"
         id="path2989"
         inkscape:connector-curvature="0" />
      <path
         style="fill:#888888;fill-opacity:1;fill-rule:nonzero;stroke:none"
         d="m -22.684947,15.9032 c -0.390055,0 -0.70407,0.314 -0.70407,0.704 l 0,6.6667 -2.948297,0 0,9.3068 2.112213,4.2247 0,5.7644 4.224425,0 0,-5.7644 2.112213,-4.2247 0,-9.3068 -2.948296,0 0,-6.6667 c 0,-0.39 -0.314017,-0.704 -0.704072,-0.704 l -1.144116,0 z"
         id="rect3835-6"
         inkscape:connector-curvature="0" />
    </g>
    <rect
       style="fill:#fe0000;fill-opacity:1;fill-rule:nonzero;stroke:none;display:inline"
       id="rect3017"
       width="2.2857144"
       height="32"
       x="742.98956"
       y="707.12128"
       transform="matrix(0.70710678,0.70710678,-0.70710678,0.70710678,0,0)"
       rx="1"
       ry="1" />
  </g>
</svg>
