<!-- Created with Inkscape (http://www.inkscape.org/) -->
<svg id="svg2" width="22" height="28" version="1.1" xmlns="http://www.w3.org/2000/svg" xmlns:xlink="http://www.w3.org/1999/xlink"><rect id="rect3893" transform="rotate(-90)" x="-12" y="1.9996" width="1" height="18" rx=".5" ry=".45" fill="#888"/><rect id="rect3895" transform="rotate(-90)" x="-16" y="6.9996" width="11" height="2" rx="1" ry="1" fill="#888"/><g id="g3891" transform="matrix(1.2879 0 0 1.2879 -7.0307 -2.8256)" fill="#888"><path id="path3897" transform="matrix(0 -.94281 .94281 0 2.9968 24)" d="m7.4246 5.8371a1.591 1.591 0 1 1-3.182 0 1.591 1.591 0 1 1 3.182 0z"/><path id="path3897-5" transform="matrix(0 -.94281 .94281 0 8.4968 24)" d="m7.4246 5.8371a1.591 1.591 0 1 1-3.182 0 1.591 1.591 0 1 1 3.182 0z"/><path id="path3897-5-6" transform="matrix(0 -.94281 .94281 0 13.997 24)" d="m7.4246 5.8371a1.591 1.591 0 1 1-3.182 0 1.591 1.591 0 1 1 3.182 0z"/></g></svg>
