<svg xmlns="http://www.w3.org/2000/svg" height="24" width="24"><g fill="#d2d2d2"><path d="M3.9015223 14.1646l2.9491752-.5498c.4668125-.087.912692.2187.9997305.6855l1.0212075 5.477c.087039.4668-.2187.9127-.6855125.9997l-2.9491745.5499c-.4668122.087-.9126915-.2187-.9997303-.6855l-1.0212084-5.4771c-.087038-.4668.2187003-.9126.6855125-.9997z"/><path style="block-progression:tb;text-indent:0;text-align:start;text-transform:none" d="M12 3.3081c-4.789765 0-8.6919643 3.9021-8.6919643 8.6919 0 .5477.049969 1.0746.1473214 1.5938.4145223 2.2572.8436176 4.5114 1.2857143 6.7634l1.8883931-.3616c-.4077185-2.3044-.958775-4.7542-1.2857145-6.8706-.063201-.3684-.107143-.7353-.107143-1.125 0-3.7473 3.0160765-6.7634 6.763393-6.7634 3.747317 0 6.763393 3.0161 6.763393 6.7634 0 .3897-.04394.7566-.107143 1.125-.32694 2.1164-.877996 4.5662-1.285715 6.8706l1.888393.3616c.442097-2.252.871192-4.5062 1.285715-6.7634.09735-.5192.147321-1.0461.147321-1.5938 0-4.7898-3.902199-8.6919-8.691964-8.6919z" color="#000"/><path d="M20.098478 14.1647l-2.949176-.5499c-.466812-.087-.912692.2187-.99973.6855l-1.021207 5.477c-.08704.4669.2187.9127.685512.9998l2.949175.5498c.466812.087.912691-.2187.99973-.6855l1.021208-5.4772c.08704-.4667-.2187-.9126-.685512-.9995z"/></g></svg>