<svg xmlns="http://www.w3.org/2000/svg" width="30" height="22"><g color="#000" fill="#888"><path style="marker:none" d="M10 4.999875c-1.644703-.0001028-3 1.3552971-3 3v7.00025c0 1.644705 1.355294 3.000023 3 3L11.00025 18v3l3.46875-2 3.46875-2-3.46875-2-3.46875-2v3L10 16.000125c-.571302.000071-1.0000215-.428707-1-1v-7.00025c0-.5712971.428703-.9999817 1-1L12 7V5z" overflow="visible"/><path style="marker:none" d="M14 1.99975h2v8h-2zM20 4.999875c1.644703-.0001028 3 1.3552971 3 3v7.00025c0 1.644705-1.355294 3.000023-3 3h-1.031v-2H20c.571302 0 1.000022-.428707 1-1v-7.00025c0-.5712971-.428703-.9999817-1-1L18.00025 7V5z" overflow="visible"/></g></svg>