<!-- Created with Inkscape (http://www.inkscape.org/) -->
<svg id="svg2" width="30" height="20" version="1.1" xmlns="http://www.w3.org/2000/svg"><path id="path3113-6" d="m23.375 2.75-1.1919 0.83303 0.004442 4.9482-1.2241-0.74372-0.86964-4.3813-2.6553 0.81342-1.5009 2.3116-1 0.40885-0.84375-1.1589-1.506-0.57409-1.1547 1.8733-1.4018 0.48208-1.5312-1.875-1.3125-2.5-0.6875 0.25-0.5625 1.75-0.90625-1.125-0.78125 0.6875-0.75-0.25-0.9375 5.25h24.875l-0.86076-5.3195-1.7812-0.4375z" fill="#666" stroke="#bebebe" stroke-width=".5"/><path id="path130" d="m1 9h28v1h-28z" fill="#bebebe"/><path id="path3113-6-6" d="m23.375 16.75-1.1919-0.83303 0.0044-4.9482-1.2241 0.74372-0.86964 4.3813-2.6553-0.81342-1.5009-2.3116-1-0.40885-0.84375 1.1589-1.506 0.57409-1.1547-1.8733-1.4018-0.48208-1.5312 1.875-1.3125 2.5-0.6875-0.25-0.5625-1.75-0.90625 1.125-0.78125-0.6875-0.75 0.25-0.9375-5.25h24.875l-0.86076 5.3195-1.7812 0.4375z" fill="#666" stroke="#bebebe" stroke-width=".5"/></svg>
