<!-- Created with Inkscape (http://www.inkscape.org/) -->
<svg id="svg3181" width="20" height="30" version="1.1" xmlns="http://www.w3.org/2000/svg"><g id="g6599" transform="matrix(.87993 .47511 -.47511 .87993 5.1287 -2.5532)" fill="#fa00ee"><path id="path5888" d="m5 1.8125c-0.43163 0.34953-0.83797 0.75587-1.1875 1.1875-2.7581 3.406-2.2185 8.4294 1.1875 11.188l0.75-0.9375c-2.902-2.35-3.35-6.598-1-9.5l0.09375-0.09375c0.27528-0.32661 0.57414-0.63731 0.90625-0.90625l-0.75-0.9375z" color="#000000" style="block-progression:tb;text-indent:0;text-transform:none"/><path id="path5908" d="m6.875 4.1562c-0.26844 0.21737-0.50138 0.45031-0.71875 0.71875-1.7136 2.1161-1.3974 5.2552 0.71875 6.9688l0.78125-0.9375c-1.6121-1.3055-1.868-3.6379-0.5625-5.25 0.16461-0.20327 0.35923-0.39789 0.5625-0.5625l-0.78125-0.9375z" color="#000000" style="block-progression:tb;text-indent:0;text-transform:none"/><path id="path5888-5" d="m15 1.8125c0.43163 0.34953 0.83797 0.75587 1.1875 1.1875 2.7581 3.406 2.2185 8.4294-1.1875 11.188l-0.75-0.9375c2.902-2.35 3.35-6.598 1-9.5l-0.09375-0.09375c-0.27528-0.32661-0.57414-0.63731-0.90625-0.90625l0.75-0.9375z" color="#000000" style="block-progression:tb;text-indent:0;text-transform:none"/><path id="path5908-3" d="m13.125 4.1562c0.26844 0.21737 0.50138 0.45031 0.71875 0.71875 1.7136 2.1161 1.3974 5.2552-0.71875 6.9688l-0.78125-0.9375c1.6121-1.3055 1.868-3.6379 0.5625-5.25-0.1646-0.20327-0.35923-0.39789-0.5625-0.5625l0.78125-0.9375z" color="#000000" style="block-progression:tb;text-indent:0;text-transform:none"/></g><path id="path6625" d="m12.154 9.25c0 1.1046-0.89543 2-2 2-1.1046 0-2-0.89543-2-2 0-1.1046 0.89543-2 2-2 1.1046 0 2 0.89543 2 2z" fill="#fa00ee"/><path id="path3187" d="m6.7564 22.251 5.4673 6.7494 2.6184-2.5069-6.5057-5.7554-1.58 1.5129z" fill="#fa00ee"/><path id="path6621" d="m11.162 7.543-7.9192 10.795 1.8636 1.1455 6.0556-11.941z" fill="#fa00ee"/></svg>
