<?xml version="1.0" encoding="UTF-8" standalone="no"?>
<!-- Created with Inkscape (http://www.inkscape.org/) -->

<svg
   xmlns:dc="http://purl.org/dc/elements/1.1/"
   xmlns:cc="http://creativecommons.org/ns#"
   xmlns:rdf="http://www.w3.org/1999/02/22-rdf-syntax-ns#"
   xmlns:svg="http://www.w3.org/2000/svg"
   xmlns="http://www.w3.org/2000/svg"
   version="1.1"
   width="48"
   height="48"
   viewBox="0 0 48 48"
   id="svg14032">
  <metadata
     id="metadata14044">
    <rdf:RDF>
      <cc:Work
         rdf:about="">
        <dc:format>image/svg+xml</dc:format>
        <dc:type
           rdf:resource="http://purl.org/dc/dcmitype/StillImage" />
        <dc:title></dc:title>
      </cc:Work>
    </rdf:RDF>
  </metadata>
  <defs
     id="defs14042" />
  <g
     id="g14034"
     style="color:#000000;fill:#d2d2d2;fill-opacity:1;fill-rule:evenodd">
    <path
       d="M 6,5.9999992 V 42.000003 H 42 V 5.9999992 H 6 z M 24.029605,13.99342 c 5.519898,0.01991 9.996884,4.516288 9.976974,10.036185 -0.01991,5.519897 -4.516951,9.996883 -10.036184,9.976974 -5.519896,-0.01991 -9.996884,-4.516951 -9.976974,-10.036185 0.01991,-5.519895 4.516287,-9.996884 10.036184,-9.976974 z"
       id="path14036"
       style="fill:#d2d2d2;fill-opacity:1" />
    <path
       d="m 24.007934,21.75139 c 1.242528,0.0048 2.245437,1.014017 2.240676,2.256545 -0.0032,1.242527 -1.014017,2.245436 -2.254957,2.240675 -1.242528,-0.0032 -2.247023,-1.014017 -2.242263,-2.254958 0.0048,-1.242527 1.014018,-2.247023 2.256544,-2.242262 z"
       id="path14038"
       style="fill:#d2d2d2;fill-opacity:1" />
  </g>
</svg>
