<!-- Created with Inkscape (http://www.inkscape.org/) -->
<svg id="svg2" width="20" height="30" version="1.1" xmlns="http://www.w3.org/2000/svg" xmlns:xlink="http://www.w3.org/1999/xlink"><defs id="defs4"><linearGradient id="linearGradient4189" x1="-7.625" x2="-7.625" y1="12.856" y2="5.9374" gradientUnits="userSpaceOnUse"><stop id="stop4185" stop-color="#00c800" offset="0"/><stop id="stop4187" stop-color="#fa00c0" offset="1"/></linearGradient></defs><g id="layer1" transform="translate(0 -1022.4)"><path id="path2990" transform="matrix(1.5216 0 0 1.5414 -4.8103 1019)" d="m11.048 7.3453a1.3144 1.2975 0 0 1-1.3144 1.2975 1.3144 1.2975 0 0 1-1.3144-1.2975 1.3144 1.2975 0 0 1 1.3144-1.2975 1.3144 1.2975 0 0 1 1.3144 1.2975z" fill="#00c800"/><path id="path3809-3-3" d="m3.7828 1025.3c-2.7805 3.4338-2.2511 8.4713 1.1826 11.252l0.77455-0.9565c-2.9054-2.3528-3.3534-6.6154-1.0007-9.5207l-0.95648-0.7747zm10.477-0.2261c2.9054 2.3528 3.3534 6.6154 1.0007 9.5207l0.95648 0.7747c2.7805-3.4338 2.2511-8.4713-1.1826-11.252l-0.77454 0.9565z" fill="#ff8605"/><path id="path3809-3-6-5" d="m6.1741 1027.3c-1.7111 2.113-1.3852 5.2131 0.72776 6.9241l0.77454-0.9565c-1.5848-1.2834-1.8291-3.6083-0.54581-5.1931l-0.95649-0.7745zm6.1496 0.2287c1.5847 1.2833 1.8291 3.6083 0.54582 5.1931l0.95649 0.7745c1.7111-2.113 1.3852-5.2131-0.72776-6.9241l-0.77454 0.9565z" fill="#e0c100"/><path id="path3039" transform="matrix(-.21846 0 0 -1.5417 8.3342 1052.2)" d="m-7.625 15.451-8.2386-14.27 16.477-4e-7z" fill="url(#linearGradient4189)"/><path id="path3809-3-3-7" d="m16.217 1025.3c2.7805 3.4338 2.2511 8.4713-1.1826 11.252l-0.77454-0.9565c2.9054-2.3528 3.3534-6.6154 1.0007-9.5207l0.95648-0.7747zm-10.477-0.2261c-2.9054 2.3528-3.3534 6.6154-1.0007 9.5207l-0.95649 0.7747c-2.7805-3.4338-2.2511-8.4713 1.1826-11.252l0.77454 0.9565z" fill="#ff8605"/><path id="path3809-3-6-5-5" d="m13.826 1027.3c1.7111 2.113 1.3852 5.2131-0.72776 6.9241l-0.77454-0.9565c1.5848-1.2834 1.8291-3.6083 0.54581-5.1931l0.95649-0.7745zm-6.1496 0.2287c-1.5847 1.2833-1.8291 3.6083-0.54581 5.1931l-0.95649 0.7745c-1.7111-2.113-1.3852-5.2131 0.72776-6.9241l0.77454 0.9565z" fill="#e0c100"/></g></svg>
