<?xml version="1.0" encoding="UTF-8" standalone="no"?>
<!-- Created with Inkscape (http://www.inkscape.org/) -->

<svg
   xmlns:dc="http://purl.org/dc/elements/1.1/"
   xmlns:cc="http://creativecommons.org/ns#"
   xmlns:rdf="http://www.w3.org/1999/02/22-rdf-syntax-ns#"
   xmlns:svg="http://www.w3.org/2000/svg"
   xmlns="http://www.w3.org/2000/svg"
   xmlns:sodipodi="http://sodipodi.sourceforge.net/DTD/sodipodi-0.dtd"
   xmlns:inkscape="http://www.inkscape.org/namespaces/inkscape"
   width="32"
   height="36"
   id="svg2"
   version="1.1"
   inkscape:version="0.48.4 r9939"
   sodipodi:docname="btn_mic2_off.svg">
  <defs
     id="defs4" />
  <sodipodi:namedview
     id="base"
     pagecolor="#ffffff"
     bordercolor="#666666"
     borderopacity="1.0"
     inkscape:pageopacity="0.0"
     inkscape:pageshadow="2"
     inkscape:zoom="5.6568542"
     inkscape:cx="-7.5458428"
     inkscape:cy="14.100021"
     inkscape:document-units="px"
     inkscape:current-layer="g3923"
     showgrid="false"
     inkscape:snap-page="true"
     inkscape:snap-bbox="true"
     inkscape:snap-bbox-midpoints="true"
     inkscape:snap-bbox-edge-midpoints="true"
     inkscape:bbox-nodes="true"
     inkscape:bbox-paths="true"
     inkscape:snap-object-midpoints="true"
     inkscape:object-nodes="true"
     inkscape:snap-smooth-nodes="true"
     inkscape:object-paths="true"
     showguides="true"
     inkscape:guide-bbox="true"
     inkscape:window-width="1366"
     inkscape:window-height="746"
     inkscape:window-x="0"
     inkscape:window-y="0"
     inkscape:window-maximized="1"
     inkscape:snap-global="true" />
  <metadata
     id="metadata7">
    <rdf:RDF>
      <cc:Work
         rdf:about="">
        <dc:format>image/svg+xml</dc:format>
        <dc:type
           rdf:resource="http://purl.org/dc/dcmitype/StillImage" />
        <dc:title></dc:title>
      </cc:Work>
    </rdf:RDF>
  </metadata>
  <g
     transform="translate(0,-1016.3622)"
     id="g3923"
     inkscape:groupmode="layer"
     inkscape:label="OFF"
     style="display:inline">
    <g
       id="g2989"
       transform="translate(-88.571429,8.1332715)" />
    <g
       id="g3785"
       transform="matrix(0.580304,0.26552477,-0.26552477,0.580304,273.32209,435.11622)"
       style="fill:#000000;fill-opacity:1">
      <path
         inkscape:connector-curvature="0"
         id="path2994"
         d="m 18,1000.1524 c -4.336479,0 -7.84375,3.5072 -7.84375,7.8437 0,1.8238 0.613137,3.5109 1.65625,4.8438 l 12.375,0 c 1.043113,-1.3329 1.65625,-3.02 1.65625,-4.8438 0,-4.3365 -3.507271,-7.8437 -7.84375,-7.8437 z"
         style="fill:#000000;fill-opacity:1;fill-rule:nonzero;stroke:none" />
      <path
         inkscape:connector-curvature="0"
         id="path3024"
         d="m 12.53125,1013.9247 2.21875,33.7813 6.5,0 2.21875,-33.7813 -10.9375,0 z M 18,1017.5497 c 0.829921,0 1.5,0.669 1.5,1.5 l 0,5.0313 c 0,0.831 -0.670079,1.5 -1.5,1.5 -0.829921,0 -1.5,-0.669 -1.5,-1.5 l 0,-5.0313 c 0,-0.831 0.670079,-1.5 1.5,-1.5 z"
         style="fill:#000000;fill-opacity:1;fill-rule:nonzero;stroke:none;display:inline" />
    </g>
    <g
       transform="translate(30.84525,1007.0622)"
       style="font-size:14px;font-style:normal;font-variant:normal;font-weight:normal;font-stretch:normal;line-height:125%;letter-spacing:0px;word-spacing:0px;fill:#000000;fill-opacity:1;stroke:none;font-family:Ubuntu;-inkscape-font-specification:Ubuntu"
       id="flowRoot3890">
      <path
         d="m -1.62925,30.532 c -1.22e-5,0.597346 -0.112012,1.176012 -0.336,1.736 -0.2240116,0.541344 -0.522678,1.073343 -0.896,1.596 -0.3733439,0.522676 -0.7933435,1.026675 -1.26,1.512 -0.4666759,0.485341 -0.9426754,0.952007 -1.428,1.4 -0.2426747,0.224006 -0.5226744,0.494673 -0.84,0.812 -0.3173404,0.298672 -0.6160068,0.616005 -0.896,0.952 -0.2800062,0.317338 -0.5226726,0.644004 -0.728,0.98 -0.1866722,0.336003 -0.2800055,0.644003 -0.28,0.924 l 7.448,0 0,2.856 -11.312,0 c -0.056,-0.186666 -0.084,-0.42 -0.084,-0.7 0.01867,-0.279999 0.028,-0.475999 0.028,-0.588 -2e-6,-0.933331 0.167998,-1.791997 0.504,-2.576 0.354664,-0.783995 0.79333,-1.502661 1.316,-2.156 0.5413294,-0.671993 1.1106622,-1.287993 1.708,-1.848 0.6159943,-0.578658 1.1853271,-1.129324 1.708,-1.652 0.541326,-0.522657 0.9799922,-1.026656 1.316,-1.512 0.3546582,-0.485322 0.5319913,-0.979988 0.532,-1.484 -8.7e-6,-0.70932 -0.2146751,-1.250653 -0.644,-1.624 -0.4293409,-0.391985 -0.9706737,-0.587985 -1.624,-0.588 -0.5413392,1.5e-5 -1.1106719,0.130681 -1.708,0.392 -0.5973374,0.261347 -1.185337,0.700014 -1.764,1.316 l -1.708,-2.408 c 0.746665,-0.783984 1.605331,-1.36265 2.576,-1.736 0.9893286,-0.373316 1.9693276,-0.559982 2.94,-0.56 0.7093259,1.8e-5 1.3906586,0.102684 2.044,0.308 0.6533239,0.205351 1.23199,0.51335 1.736,0.924 0.503989,0.410683 0.9053219,0.933349 1.204,1.568 0.2986547,0.616014 0.4479878,1.33468 0.448,2.156"
         style="font-size:28px;font-weight:bold;font-family:Ubuntu Mono;-inkscape-font-specification:Ubuntu Mono Bold;fill:#000000;fill-opacity:1"
         id="path3899" />
    </g>
  </g>
</svg>
