<svg width="40" height="22" version="1.1" xmlns="http://www.w3.org/2000/svg">
	<g transform="translate(2,1)" fill="none" stroke="#000" stroke-linecap="square" stroke-width="1.60000002">
		<path d="m19 7v6h2v-2h3v2h2v-6zm2 1h3v2h-3z"/>
		<path d="m11 7v6h7v-1h-5v-5h-2"/>
		<path d="m4 7v6h2v-2h4v-4zm2 1h3v2h-3z"/>
		<path d="m29 13v-3.5l-2-2v-.5h1.5l1.5 1.5 1.5-1.5h1.5v.5l-2 2v3.5h-2"/>
	</g>
	<g transform="translate(2,1)" fill="#d2d2d1">
		<path d="m19 7v6h2v-2h3v2h2v-6zm2 1h3v2h-3z"/>
		<path d="m11 7v6h7v-1h-5v-5h-2"/>
		<path d="m4 7v6h2v-2h4v-4zm2 1h3v2h-3z"/>
		<path d="m29 13v-3.5l-2-2v-.5h1.5l1.5 1.5 1.5-1.5h1.5v.5l-2 2v3.5h-2"/>
	</g>
</svg>
