<svg width="24" height="24" version="1.1" xmlns="http://www.w3.org/2000/svg">
	<g fill="none" stroke="#000" stroke-linecap="square" stroke-width="1.60000002">
		<path d="m4 8.488 1.4998895.856062-.00025 6.6559c-2.15e-5.57129.9288347 1.5001 1.5001237 1.5001l7.0001108-6.2e-5v-3l7.00011 3.75-7.00011 3.75v-3l-7.0001108 6.3e-5c-1.644726 1.4e-5-3.0000474-1.3553-3.0000474-3z" color="#000000"/>
		<path d="m20 15.612-1.499905-.956038.00025-6.6559c2.5e-5-.66867-.782772-1.5001-1.500124-1.5001l-7.00011 6.24e-5v2.9999996l-7.000111-3.7499996 7.000111-3.75v3l7.00011-6.25e-5c1.644726-1.47e-5 3.000048 1.3553 3.000048 3z" color="#000000"/>
	</g>
	<g fill="#d2d2d1">
		<path d="m4 8.488 1.4998895.856062-.00025 6.6559c-2.15e-5.57129.9288347 1.5001 1.5001237 1.5001l7.0001108-6.2e-5v-3l7.00011 3.75-7.00011 3.75v-3l-7.0001108 6.3e-5c-1.644726 1.4e-5-3.0000474-1.3553-3.0000474-3z" color="#000000"/>
		<path d="m20 15.612-1.499905-.956038.00025-6.6559c2.5e-5-.66867-.782772-1.5001-1.500124-1.5001l-7.00011 6.24e-5v2.9999996l-7.000111-3.7499996 7.000111-3.75v3l7.00011-6.25e-5c1.644726-1.47e-5 3.000048 1.3553 3.000048 3z" color="#000000"/>
	</g>
</svg>
