<svg width="40" height="22" version="1.1" xmlns="http://www.w3.org/2000/svg">
	<g transform="translate(2,1)" fill="none" stroke="#000" stroke-linecap="square" stroke-width="1.60000002">
		<path d="m3 7h6v1h-2v5h-2v-5h-2v-1"/>
		<path d="m11 7v6h2v-2h3v2h2v-6zm2 1h3v2h-3z"/>
		<path d="m19 7v6h7v-1h-5v-5h-2"/>
		<path d="m27 13v-6h2v2h1.5l2-2h1.5v.5l-2 2v1l2 2v.5h-1.5l-2-2h-1.5v2z"/>
	</g>
	<g transform="translate(2,1)" fill="#d2d2d1">
		<path d="m3 7h6v1h-2v5h-2v-5h-2v-1"/>
		<path d="m11 7v6h2v-2h3v2h2v-6zm2 1h3v2h-3z"/>
		<path d="m19 7v6h7v-1h-5v-5h-2"/>
		<path d="m27 13v-6h2v2h1.5l2-2h1.5v.5l-2 2v1l2 2v.5h-1.5l-2-2h-1.5v2z"/>
	</g>
</svg>
