<svg width="40" height="22" version="1.1" xmlns="http://www.w3.org/2000/svg">
	<g transform="translate(-2,3)" fill="none" stroke="#000" stroke-linecap="square" stroke-width="1.60000002">
		<path d="m30 5h-7v6h7v-1h-5v-4h5v-1"/>
		<path d="m15 5v6h7v-6h-2v5h-3v-5h-2"/>
		<path d="m7 5v6h7v-4.5l-1.5-1.5zm2 1h2.7l1.3 1.3v2.7h-4z"/>
		<path d="m31 11v-6h2v2h1.5l2-2h1.5v.5l-2 2v1l2 2v.5h-1.5l-2-2h-1.5v2z"/>
	</g>
	<g transform="translate(-2,3)" fill="#d2d2d1">
		<path d="m30 5h-7v6h7v-1h-5v-4h5v-1"/>
		<path d="m15 5v6h7v-6h-2v5h-3v-5h-2"/>
		<path d="m7 5v6h7v-4.5l-1.5-1.5zm2 1h2.7l1.3 1.3v2.7h-4z"/>
		<path d="m31 11v-6h2v2h1.5l2-2h1.5v.5l-2 2v1l2 2v.5h-1.5l-2-2h-1.5v2z"/>
	</g>
</svg>
