<svg width="20" height="20" version="1.1" xmlns="http://www.w3.org/2000/svg">
	<g transform="matrix(-.5112 .44559 -.50559 -.58003 26.908684 18.828444)" fill="#bfbfbe" stroke-width="1.0108">
		<path transform="matrix(-1.4588,0,0,1.2857,27.506,3.1429)" d="m12 3c-1.2837 0-2.334 1.0503-2.334 2.334v11.797c-1.6125.8501-2.7305 2.5239-2.7305 4.4648 0 1.9422 1.1183 3.6174 2.7324 4.4668v-3.1956c0-1.2837 1.0503-2.334 2.334-2.334s2.332 1.0503 2.332 2.334v3.1956c1.6141-.84939 2.7324-2.5246 2.7324-4.4668 0-1.9425-1.1184-3.6174-2.7324-4.4668v-11.795c0-1.2837-1.0503-2.334-2.334-2.334z" color="#000000" fill="#bfbfbe"/>
	</g>
	<g fill="#7c7c7a">
		<path d="m6.9996834 11.363444v7.6375h2v-5.3425z"/>
		<path d="m11.999684 1.0004446v5.9864l2 2.2948997v-8.2812997z"/>
		<path d="m16.999684 1.0004446v11.7249994l2 2.293v-14.0179994z"/>
		<path d="m1.9996834 9.7134443v9.2873997h2v-7.9846c-.73826-.26909-1.4212-.69782-2-1.3026997z"/>
	</g>
</svg>
