<svg width="50" height="24" version="1.1" xmlns="http://www.w3.org/2000/svg">
	<g transform="translate(1,1)" fill="none" stroke="#000" stroke-linecap="square" stroke-width="1.60000002">
		<path d="m16 8h-7v4h5v1h-5v1h7v-3h-5v-2h5v-1"/>
		<path d="m25 8v6h2v-5h3v5h2v-6h-7"/>
		<path d="m33 8v6h7v-1h-5v-4h5v-1h-7"/>
		<path d="m19 14v-3.5l-2-2v-.5h1.5l1.5 1.5 1.5-1.5h1.5v.5l-2 2v3.5h-2"/>
	</g>
	<g transform="translate(1,1)" fill="#d2d2d1">
		<path d="m16 8h-7v4h5v1h-5v1h7v-3h-5v-2h5v-1"/>
		<path d="m25 8v6h2v-5h3v5h2v-6h-7"/>
		<path d="m33 8v6h7v-1h-5v-4h5v-1h-7"/>
		<path d="m19 14v-3.5l-2-2v-.5h1.5l1.5 1.5 1.5-1.5h1.5v.5l-2 2v3.5h-2"/>
	</g>
</svg>
