<svg width="21" height="18" version="1.1" viewBox="0 0 21 18" xmlns="http://www.w3.org/2000/svg">
	<g fill="#f0bb2b">
		<path d="m7.156 4.0005c-2.7614.0001841-5 2.2386-5 5 0 .48325.090832.93297.21875 1.375l2.6562-1.5312c.080009-1.0312.94822-1.8437 2-1.8438l7.6252-5e-4v-3z"/>
		<path d="m7.9997786 16.551826-6.5398527-3.775768 6.5398527-3.775768z" color="#000000" stroke-width="1.25100005"/>
		<path d="m14 14c2.7614.000184 5-2.2386 5-5 0-.48325-.09083-.93297-.21875-1.375l-2.6562 1.5313c-.08001 1.0312-.94822 1.8438-2 1.8437l-7.625-5e-4v3z"/>
		<path d="m13.000221 1.4483736 6.539853 3.7757682-6.539853 3.7757682z" color="#000000" stroke-width="1.25100005"/>
	</g>
</svg>
