<svg xmlns="http://www.w3.org/2000/svg" viewBox="0 0 1000 1000" width="100%" height="100%">
  <defs>
    <linearGradient id="m" x1="0%" y1="0%" x2="100%" y2="100%">
      <stop offset="0%" stop-color="#fff"/>
      <stop offset="30%" stop-color="#b0b0b0"/>
      <stop offset="50%" stop-color="#f0f0f0"/>
      <stop offset="75%" stop-color="#4a4a4a"/>
      <stop offset="100%" stop-color="#c0c0c0"/>
    </linearGradient>
    <linearGradient id="g" x1="0%" y1="0%" x2="0%" y2="100%">
      <stop offset="0%" stop-color="#ff99ca" stop-opacity=".8"/>
      <stop offset="100%" stop-color="#e63380" stop-opacity="0"/>
    </linearGradient>
    <filter id="d" x="-20%" y="-20%" width="140%" height="140%">
      <feDropShadow dx="3" dy="16" stdDeviation="12" flood-color="#000" flood-opacity=".65"/>
    </filter>
    <filter id="s" x="-30%" y="-30%" width="160%" height="160%">
      <feDropShadow dx="-5" dy="12" stdDeviation="8" flood-color="#000" flood-opacity=".4"/>
    </filter>
  </defs>
  <rect width="1000" height="1000" fill="#000"/>
  <g transform="translate(500,500)">
    <circle r="462" fill="none" stroke="url(#m)" stroke-width="14"/>
    <circle r="448" fill="none" stroke="#18191b" stroke-width="8"/>
    <circle r="441" fill="none" stroke="#fff" stroke-width="2" opacity=".3"/>
    <path d="M0-436c130-3 250,44 325,124s115,197,110,324-48 230-125 308-193 118-315 115-228-40-320-117-118-193-115-315 44-248 120-325 186-109 312-111z" fill="#d5944a"/>
    <path d="M0-422c118-2 232 44 308 124s107 193 104 306-40 214-110 290-184 116-302 114-228-38-300-110-112-182-110-300 40-234 110-306 180-114 300-116z" fill="#b3722d" opacity=".85"/>
    <path d="M-15-415c90 3 155-3 220 35s105 62 145 132 53 125 60 200-17 140-22 205-27 112-73 168-112 77-182 87-152-15-224-9c-72 6-156-8-216-68s-100-130-114-210 4-153 7-223 22-145 72-205 124-95 194-115 36-10 123-7zm35 250c-55-20-130 15-160 60s-50 115-15 180 85 110 150 95 145-10 170-70 10-130-30-185-55-60-110-80z" fill="#e63380" filter="url(#d)" fill-rule="evenodd"/>
    <path d="M-15-415c90 3 155-3 220 35s105 62 145 132 53 125 60 200-17 140-22 205-27 112-73 168-110 77-180 87" fill="none" stroke="url(#g)" stroke-width="12" stroke-linecap="round" opacity=".9"/>
    <path d="M-260-260a368 368 0 0 1 580 80m20 280a355 355 0 0 1-440 240m-240-310a340 340 0 0 1 310-368m-190 118a310 310 0 0 1 440 440m20-320a260 260 0 0 1-420 280" fill="none" stroke="#ba1b5c" stroke-width="3" opacity=".55" stroke-dasharray="4 4"/>
    <circle r="150" fill="#252629"/>
    <circle r="135" fill="#1b1c1e"/>
    <circle r="95" fill="none" stroke="#292a2d" stroke-width="5"/>
    <circle r="44" fill="none" stroke="url(#m)" stroke-width="8"/>
    <circle r="22" fill="url(#m)"/>
    <circle r="11" fill="#666"/>
    <circle r="5" fill="#fff"/>
    <g stroke-linecap="round" opacity=".95">
      <g stroke="#0091ff" stroke-width="21"><line x1="-76" y1="-324" x2="-52" y2="-288"/><line x1="206" y1="-174" x2="244" y2="-158"/><line x1="-284" y1="-136" x2="-256" y2="-104"/><line x1="-294" y1="126" x2="-266" y2="164"/><line x1="326" y1="-24" x2="354" y2="12"/><line x1="114" y1="326" x2="76" y2="354"/></g>
      <g stroke="#fff" stroke-width="21"><line x1="66" y1="-344" x2="114" y2="-306"/><line x1="316" y1="-94" x2="334" y2="-52"/><line x1="-214" y1="-134" x2="-186" y2="-96"/><line x1="-324" y1="-34" x2="-286" y2="-18"/><line x1="-214" y1="236" x2="-186" y2="284"/><line x1="266" y1="166" x2="304" y2="142"/><line x1="22" y1="366" x2="28" y2="414"/></g>
      <g stroke="#ffb300" stroke-width="21"><line x1="146" y1="-334" x2="164" y2="-286"/><line x1="-134" y1="-214" x2="-96" y2="-204"/><line x1="-244" y1="-34" x2="-206" y2="-12"/><line x1="206" y1="256" x2="234" y2="294"/><line x1="326" y1="106" x2="294" y2="122"/><line x1="-94" y1="316" x2="-56" y2="344"/></g>
      <g stroke="#ff6b57" stroke-width="21"><line x1="-14" y1="-354" x2="22" y2="-348"/><line x1="-104" y1="-264" x2="-76" y2="-226"/><line x1="356" y1="36" x2="332" y2="74"/><line x1="66" y1="336" x2="104" y2="362"/></g>
      <g stroke="#7cfc00" stroke-width="21"><line x1="-304" y1="-9" x2="-266" y2="12"/><line x1="306" y1="216" x2="312" y2="258"/></g>
    </g>
    <g transform="translate(288,-292)" filter="url(#s)">
      <circle r="92" fill="none" stroke="#222325" stroke-width="5"/>
      <circle r="86" fill="url(#m)"/>
      <circle r="76" fill="#141517"/>
      <circle r="70" fill="none" stroke="#313234" stroke-width="2"/>
      <rect x="-46" y="-14" width="30" height="30" rx="4" fill="#242527" stroke="#3b3c3e" stroke-width="1"/>
      <circle cx="-31" cy="1" r="5" fill="#000"/>
      <circle cx="34" cy="-20" r="15" fill="url(#m)"/>
      <circle cx="34" cy="-20" r="8" fill="#111"/>
      <path d="M0 0c15 65 52 135 18 245s-52 137-142 227" fill="none" stroke="url(#m)" stroke-width="14" stroke-linecap="round"/>
      <path d="M0 0c15 65 52 135 18 245s-52 137-142 227" fill="none" stroke="#fff" stroke-width="3" stroke-linecap="round" opacity=".45"/>
      <g transform="translate(34,-20)">
        <path d="M0-8l6 16h-12z" fill="#e63380"/>
      </g>
    </g>
  </g>
</svg>
