<?xml version="1.0" encoding="UTF-8"?>
<svg width="15" height="40" version="1.1" xmlns="http://www.w3.org/2000/svg">
 <style/>
 <path d="m3 1h9c1.108 0 2 0.892 2 2v34c0 1.108-0.892 2-2 2h-9c-1.108 0-2-0.892-2-2v-34c0-1.108 0.892-2 2-2z" fill="#333" stroke="#e0e0e0" stroke-width="2"/>
 <path d="m4 35.589v-31.178c0-0.22768 0.21148-0.41097 0.47417-0.41097h6.0517c0.26269 0 0.47417 0.18329 0.47417 0.41097v31.178c0 0.22768-0.21148 0.41097-0.47417 0.41097h-6.0517c-0.26269 0-0.47417-0.18329-0.47417-0.41097z" fill="#378df7"/>
</svg>
