<?xml version="1.0" encoding="UTF-8" standalone="no"?>
<svg
   xmlns:dc="http://purl.org/dc/elements/1.1/"
   xmlns:cc="http://creativecommons.org/ns#"
   xmlns:rdf="http://www.w3.org/1999/02/22-rdf-syntax-ns#"
   xmlns:svg="http://www.w3.org/2000/svg"
   xmlns="http://www.w3.org/2000/svg"
   xmlns:sodipodi="http://sodipodi.sourceforge.net/DTD/sodipodi-0.dtd"
   xmlns:inkscape="http://www.inkscape.org/namespaces/inkscape"
   version="1.1"
   width="200"
   height="100"
   id="svg2"
   inkscape:version="0.91 r13725"
   sodipodi:docname="handle-vertical.svg">
  <metadata
     id="metadata12">
    <rdf:RDF>
      <cc:Work
         rdf:about="">
        <dc:format>image/svg+xml</dc:format>
        <dc:type
           rdf:resource="http://purl.org/dc/dcmitype/StillImage" />
        <dc:title />
      </cc:Work>
    </rdf:RDF>
  </metadata>
  <defs
     id="defs10" />
  <sodipodi:namedview
     pagecolor="#ffffff"
     bordercolor="#666666"
     borderopacity="1"
     objecttolerance="10"
     gridtolerance="10"
     guidetolerance="10"
     inkscape:pageopacity="0"
     inkscape:pageshadow="2"
     inkscape:window-width="1366"
     inkscape:window-height="702"
     id="namedview8"
     showgrid="false"
     inkscape:zoom="2.8284271"
     inkscape:cx="66.479601"
     inkscape:cy="63.686138"
     inkscape:window-x="0"
     inkscape:window-y="27"
     inkscape:window-maximized="1"
     inkscape:current-layer="svg2" />
  <rect
     style="opacity:1;fill:#333333;fill-opacity:1;stroke:none;stroke-width:1;stroke-linecap:round;stroke-miterlimit:4;stroke-dasharray:none;stroke-opacity:1"
     id="rect4137"
     width="181.72644"
     height="80.610176"
     x="9.1367788"
     y="9.6949139"
     rx="1.4065872"
     ry="2.4844322" />
  <path
     style="opacity:1;fill:#d2d2d2;fill-opacity:1;stroke:none;stroke-width:1;stroke-linecap:round;stroke-miterlimit:4;stroke-dasharray:none;stroke-opacity:1"
     d="M 22.273438 22.273438 L 22.273438 77.726562 L 177.72656 77.726562 L 177.72656 22.273438 L 22.273438 22.273438 z M 42.5 35 L 157.5 35 L 157.5 65 L 42.5 65 L 42.5 35 z "
     id="path4205" />
  <rect
     style="opacity:1;fill:#489aff;fill-opacity:1;stroke:none;stroke-width:1;stroke-linecap:round;stroke-miterlimit:4;stroke-dasharray:none;stroke-opacity:1"
     id="rect4151"
     width="100"
     height="15"
     x="50"
     y="42.5" />
  <path
     style="opacity:1;fill:#d2d2d2;fill-opacity:1;stroke:none;stroke-width:1;stroke-linecap:round;stroke-miterlimit:4;stroke-dasharray:none;stroke-opacity:1"
     d="M 20 0 C 8.92 0 0 8.92 0 20 L 0 80 C 0 91.08 8.92 100 20 100 L 180 100 C 191.08 100 200 91.08 200 80 L 200 20 C 200 8.92 191.08 0 180 0 L 20 0 z M 20 12.021484 L 180 12.021484 C 184.6284 12.021484 187.97852 15.371605 187.97852 20 L 187.97852 80 C 187.97852 84.628395 184.6284 87.978516 180 87.978516 L 20 87.978516 C 15.371605 87.978516 12.021484 84.628395 12.021484 80 L 12.021484 20 C 12.021484 15.371605 15.371605 12.021484 20 12.021484 z "
     id="rect4194" />
</svg>
