<?xml version="1.0" encoding="UTF-8" standalone="no"?>
<svg
   xmlns:dc="http://purl.org/dc/elements/1.1/"
   xmlns:cc="http://creativecommons.org/ns#"
   xmlns:rdf="http://www.w3.org/1999/02/22-rdf-syntax-ns#"
   xmlns:svg="http://www.w3.org/2000/svg"
   xmlns="http://www.w3.org/2000/svg"
   xmlns:xlink="http://www.w3.org/1999/xlink"
   version="1.1"
   id="svg2"
   height="34"
   width="40">
  <defs
     id="defs4">
    <linearGradient
       id="linearGradient5441">
      <stop
         id="stop5443"
         offset="0"
         style="stop-color:#060606;stop-opacity:1;" />
      <stop
         id="stop5445"
         offset="1"
         style="stop-color:#343434;stop-opacity:1;" />
    </linearGradient>
    <linearGradient
       y2="472.02954"
       x2="484.71231"
       y1="472.02954"
       x1="256.73965"
       gradientTransform="matrix(0.10675958,0,0,0.1067605,-705.78445,-58.935424)"
       gradientUnits="userSpaceOnUse"
       id="linearGradient3839"
       xlink:href="#linearGradient5441" />
  </defs>
  <metadata
     id="metadata7">
    <rdf:RDF>
      <cc:Work
         rdf:about="">
        <dc:format>image/svg+xml</dc:format>
        <dc:type
           rdf:resource="http://purl.org/dc/dcmitype/StillImage" />
        <dc:title></dc:title>
      </cc:Work>
    </rdf:RDF>
  </metadata>
  <g
     transform="translate(-182.48349,-619.88674)"
     style="display:inline"
     id="layer4">
    <!-- shadow for the top arc -->
    <!-- shadow for the center oval -->
    <g
       transform="matrix(0.10676061,0,0,0.10675946,162.71346,586.67292)"
       style="display:inline;opacity:0.94000006"
       id="g3912">
      <path
         style="fill:#000000;fill-opacity:1;fill-rule:nonzero;stroke:#000000;stroke-width:11.79993724999999927;stroke-miterlimit:4;stroke-opacity:1;stroke-dasharray:none;display:inline"
         id="path4669-2"
         d="M 478.8123,472.02954 A 108.08632,108.08632 0 0 1 370.72598,580.11586 108.08632,108.08632 0 0 1 262.63966,472.02954 108.08632,108.08632 0 0 1 370.72598,363.94322 108.08632,108.08632 0 0 1 478.8123,472.02954 Z"
         transform="matrix(-0.31622183,-0.94868528,0.94868528,-0.31622183,49.241524,1000.9691)" />
    </g>
  </g>
  <g
     transform="translate(-182.48349,-619.88674)"
     style="display:inline"
     id="layer2">
    <ellipse
       ry="11.539349"
       rx="11.539249"
       transform="matrix(-0.31622493,-0.94868424,0.9486863,-0.31621875,0,0)"
       id="path4669"
       style="fill:url(#linearGradient3839);fill-opacity:1;fill-rule:nonzero;stroke:#585858;stroke-width:1.25976169;stroke-miterlimit:4;stroke-dasharray:none;stroke-opacity:1"
       cx="-669.75366"
       cy="-9.8164997" />
    <ellipse
       ry="2.4899862"
       rx="2.5876327"
       cy="620.34515"
       cx="168.95944"
       id="path4202"
       style="color:#000000;display:inline;overflow:visible;visibility:visible;opacity:0;fill:#000000;fill-opacity:1;fill-rule:evenodd;stroke:none;stroke-width:0;stroke-miterlimit:4;stroke-dasharray:none;marker:none;enable-background:accumulate" />
    <path
       style="color:#000000;display:inline;overflow:visible;visibility:visible;opacity:1;fill:none;fill-opacity:1;fill-rule:evenodd;stroke:#000000;stroke-width:1.24999988;stroke-linecap:round;stroke-miterlimit:4;stroke-dasharray:none;stroke-opacity:0.94117647;marker:none;enable-background:accumulate"
       id="path4206"
       transform="matrix(0,1,-1,0,0,0)"
       d="m 649.88556,-192.61146 a 15.375,15.375 0 0 1 -21.74353,0 15.375,15.375 0 0 1 0,-21.74354 15.375,15.375 0 0 1 21.74353,0" />
    <path
       d="m 649.38556,-191.61146 a 15.375,15.375 0 0 1 -21.74353,0 15.375,15.375 0 0 1 0,-21.74354 15.375,15.375 0 0 1 21.74353,0"
       transform="matrix(0,1,-1,0,0,0)"
       id="path4204"
       style="color:#000000;display:inline;overflow:visible;visibility:visible;opacity:1;fill:none;fill-opacity:1;fill-rule:evenodd;stroke:#585858;stroke-width:1.24999988;stroke-linecap:round;stroke-miterlimit:4;stroke-dasharray:none;stroke-opacity:1;marker:none;enable-background:accumulate" />
  </g>
</svg>
