<?xml version="1.0" encoding="UTF-8" standalone="no"?>
<!-- Created with Inkscape (http://www.inkscape.org/) -->

<svg
   xmlns:dc="http://purl.org/dc/elements/1.1/"
   xmlns:cc="http://creativecommons.org/ns#"
   xmlns:rdf="http://www.w3.org/1999/02/22-rdf-syntax-ns#"
   xmlns:svg="http://www.w3.org/2000/svg"
   xmlns="http://www.w3.org/2000/svg"
   xmlns:sodipodi="http://sodipodi.sourceforge.net/DTD/sodipodi-0.dtd"
   xmlns:inkscape="http://www.inkscape.org/namespaces/inkscape"
   version="1.1"
   width="20"
   height="20"
   id="svg2"
   sodipodi:docname="knob_small_green.svg"
   inkscape:version="0.92.3 (2405546, 2018-03-11)">
  <sodipodi:namedview
     pagecolor="#ffffff"
     bordercolor="#666666"
     borderopacity="1"
     objecttolerance="10"
     gridtolerance="10"
     guidetolerance="10"
     inkscape:pageopacity="0"
     inkscape:pageshadow="2"
     inkscape:window-width="1366"
     inkscape:window-height="740"
     id="namedview8"
     showgrid="false"
     inkscape:zoom="11.8"
     inkscape:cx="0.29661017"
     inkscape:cy="10"
     inkscape:window-x="0"
     inkscape:window-y="0"
     inkscape:window-maximized="1"
     inkscape:current-layer="svg2" />
  <metadata
     id="metadata12">
    <rdf:RDF>
      <cc:Work
         rdf:about="">
        <dc:format>image/svg+xml</dc:format>
        <dc:type
           rdf:resource="http://purl.org/dc/dcmitype/StillImage" />
        <dc:title />
      </cc:Work>
    </rdf:RDF>
  </metadata>
  <defs
     id="defs10" />
  <path
     d="M 18.109374,5.9257818 C 16.614352,2.9810298 13.38846,1.0005767 10.085938,1 7.7297434,0.99999987 5.3880579,1.9699577 3.7219766,3.6360388 2.0558954,5.3021199 1.0859375,7.6438054 1.0859375,10 c 0,2.356195 0.9699579,4.69788 2.6360391,6.363961 C 5.3880579,18.030042 7.7297434,19 10.085938,19 c 3.298215,-0.0045 6.517931,-1.983276 8.011717,-4.923828"
     id="path4176-3"
     style="fill:none;stroke:#000000;stroke-linecap:round;stroke-linejoin:round;stroke-opacity:1" />
  <path
     d="m 10.085938,1 a 9,9 0 0 0 -9.0000005,9 9,9 0 0 0 9.0000005,9 9,9 0 0 0 8.011718,-4.923828 c -0.118329,0.0108 -0.232936,0.03711 -0.353515,0.03711 l -7.660157,0 c -2.2277799,0 -4.1132809,-1.885502 -4.1132809,-4.113281 0,-2.2277791 1.885502,-4.1132812 4.1132809,-4.1132812 l 7.660157,0 c 0.124601,0 0.243044,0.027536 0.365234,0.039062 A 9,9 0 0 0 10.085938,1 z"
     id="path4176"
     style="fill:#797979;fill-opacity:1;stroke:none" />
  <rect
     width="2.3398778"
     height="10"
     ry="1.1699389"
     x="8.8300619"
     y="-18.914858"
     transform="matrix(0,1,-1,0,0,0)"
     id="rect4168"
     style="fill:#60a71f;fill-opacity:0.7764706;stroke:none" />
</svg>
