<!-- Created with Inkscape (http://www.inkscape.org/) -->
<svg id="svg2" width="40" height="34" version="1.1" xmlns="http://www.w3.org/2000/svg" xmlns:xlink="http://www.w3.org/1999/xlink"><path id="path4256" d="m16.15 7.7363c-4.4584 1.5778-7.6842 6.1359-7.6895 10.865-1.65e-5 3.0209 1.2436 6.0233 3.3797 8.1594 2.1361 2.1361 5.1384 3.3797 8.1594 3.3797 3.0209 1.6e-5 6.0233-1.2436 8.1594-3.3797 2.1361-2.1361 3.3797-5.1384 3.3797-8.1594-6e-3 -4.7287-3.2317-9.2857-7.6895-10.863v6.8633c0 2.092-1.7577 3.8496-3.8496 3.8496-2.092 0-3.8496-1.7577-3.8496-3.8496z" fill="#797979" stroke="#000" stroke-linecap="round" stroke-width=".6"/><path id="rect4263" d="m20 3.3836c-0.831 0-1.5 0.62106-1.5 1.3925v9.9251c0 0.77145 0.669 1.3925 1.5 1.3925s1.5-0.62106 1.5-1.3925v-9.9251c0-0.77145-0.669-1.3925-1.5-1.3925z" fill="#333" stroke="#333" stroke-width="5"/><path id="rect4263-2" d="m20 3.102c0.831 0 1.5 0.669 1.5 1.5v10c0 0.831-0.669 1.5-1.5 1.5s-1.5-0.669-1.5-1.5v-10c0-0.831 0.669-1.5 1.5-1.5z" fill="#fff" fill-opacity=".94118"/></svg>
