<svg xmlns="http://www.w3.org/2000/svg" version="1.1" width="40" height="180">
  <rect x="4" y="5"
        width="32" height="170"
        rx="3" ry="3"
        style="fill:rgb(153,153,153);fill-opacity:0.3;stroke-width:5px;stroke:rgb(237,237,237);stroke-opacity:0.5" />

  <!-- marker lines every 5px -->

  <!-- end marker -->
  <line y1="10" x1="7" y2="10" x2="33" style="stroke:rgb(72,72,72);stroke-width:2px"/>

  <line y1="15" x1="14" y2="15" x2="26" style="stroke:rgb(120,120,120);stroke-width:1px"/>
  <line y1="20" x1="14" y2="20" x2="26" style="stroke:rgb(120,120,120);stroke-width:1px"/>
  <line y1="25" x1="14" y2="25" x2="26" style="stroke:rgb(120,120,120);stroke-width:1px"/>
  <line y1="30" x1="14" y2="30" x2="26" style="stroke:rgb(120,120,120);stroke-width:1px"/>
  <line y1="35" x1="14" y2="35" x2="26" style="stroke:rgb(120,120,120);stroke-width:1px"/>
  <line y1="40" x1="14" y2="40" x2="26" style="stroke:rgb(120,120,120);stroke-width:1px"/>
  <line y1="45" x1="14" y2="45" x2="26" style="stroke:rgb(120,120,120);stroke-width:1px"/>

  <!-- quarter marker -->
  <line y1="50" x1="10" y2="50" x2="30" style="stroke:rgb(72,72,72);stroke-width:2px"/>

  <line y1="55" x1="14" y2="55" x2="26" style="stroke:rgb(120,120,120);stroke-width:1px"/>
  <line y1="60" x1="14" y2="60" x2="26" style="stroke:rgb(120,120,120);stroke-width:1px"/>
  <line y1="65" x1="14" y2="65" x2="26" style="stroke:rgb(120,120,120);stroke-width:1px"/>
  <line y1="70" x1="14" y2="70" x2="26" style="stroke:rgb(120,120,120);stroke-width:1px"/>
  <line y1="75" x1="14" y2="75" x2="26" style="stroke:rgb(120,120,120);stroke-width:1px"/>
  <line y1="80" x1="14" y2="80" x2="26" style="stroke:rgb(120,120,120);stroke-width:1px"/>
  <line y1="85" x1="14" y2="85" x2="26" style="stroke:rgb(120,120,120);stroke-width:1px"/>

  <!-- middle marker -->
  <line y1="90" x1="12" y2="90" x2="28" style="stroke:rgb(72,72,72);stroke-width:2px"/>

  <line y1="95" x1="14" y2="95" x2="26" style="stroke:rgb(120,120,120);stroke-width:1px"/>
  <line y1="100" x1="14" y2="100" x2="26" style="stroke:rgb(120,120,120);stroke-width:1px"/>
  <line y1="105" x1="14" y2="105" x2="26" style="stroke:rgb(120,120,120);stroke-width:1px"/>
  <line y1="110" x1="14" y2="110" x2="26" style="stroke:rgb(120,120,120);stroke-width:1px"/>
  <line y1="115" x1="14" y2="115" x2="26" style="stroke:rgb(120,120,120);stroke-width:1px"/>
  <line y1="120" x1="14" y2="120" x2="26" style="stroke:rgb(120,120,120);stroke-width:1px"/>
  <line y1="125" x1="14" y2="125" x2="26" style="stroke:rgb(120,120,120);stroke-width:1px"/>

  <!-- quarter marker -->
  <line y1="130" x1="10" y2="130" x2="30" style="stroke:rgb(72,72,72);stroke-width:2px"/>

  <line y1="135" x1="14" y2="135" x2="26" style="stroke:rgb(120,120,120);stroke-width:1px"/>
  <line y1="140" x1="14" y2="140" x2="26" style="stroke:rgb(120,120,120);stroke-width:1px"/>
  <line y1="145" x1="14" y2="145" x2="26" style="stroke:rgb(120,120,120);stroke-width:1px"/>
  <line y1="150" x1="14" y2="150" x2="26" style="stroke:rgb(120,120,120);stroke-width:1px"/>
  <line y1="155" x1="14" y2="155" x2="26" style="stroke:rgb(120,120,120);stroke-width:1px"/>
  <line y1="160" x1="14" y2="160" x2="26" style="stroke:rgb(120,120,120);stroke-width:1px"/>
  <line y1="165" x1="14" y2="165" x2="26" style="stroke:rgb(120,120,120);stroke-width:1px"/>

  <!-- end marker -->
  <line y1="170" x1="7" y2="170" x2="33" style="stroke:rgb(72,72,72);stroke-width:2px"/>
</svg>
