<svg xmlns="http://www.w3.org/2000/svg" version="1.1" width="180" height="40">
  <rect x="5" y="4"
        width="170" height="32"
        rx="3" ry="3"
        style="fill:rgb(153,153,153);fill-opacity:0.3;stroke-width:5px;stroke:rgb(237,237,237);stroke-opacity:0.5" />

  <!-- marker lines every 5px -->

  <!-- end marker -->
  <line x1="10" y1="7" x2="10" y2="33" style="stroke:rgb(72,72,72);stroke-width:2px"/>

  <line x1="15" y1="14" x2="15" y2="26" style="stroke:rgb(120,120,120);stroke-width:1px"/>
  <line x1="20" y1="14" x2="20" y2="26" style="stroke:rgb(120,120,120);stroke-width:1px"/>
  <line x1="25" y1="14" x2="25" y2="26" style="stroke:rgb(120,120,120);stroke-width:1px"/>
  <line x1="30" y1="14" x2="30" y2="26" style="stroke:rgb(120,120,120);stroke-width:1px"/>
  <line x1="35" y1="14" x2="35" y2="26" style="stroke:rgb(120,120,120);stroke-width:1px"/>
  <line x1="40" y1="14" x2="40" y2="26" style="stroke:rgb(120,120,120);stroke-width:1px"/>
  <line x1="45" y1="14" x2="45" y2="26" style="stroke:rgb(120,120,120);stroke-width:1px"/>

  <!-- quarter marker -->
  <line x1="50" y1="10" x2="50" y2="30" style="stroke:rgb(72,72,72);stroke-width:2px"/>

  <line x1="55" y1="14" x2="55" y2="26" style="stroke:rgb(120,120,120);stroke-width:1px"/>
  <line x1="60" y1="14" x2="60" y2="26" style="stroke:rgb(120,120,120);stroke-width:1px"/>
  <line x1="65" y1="14" x2="65" y2="26" style="stroke:rgb(120,120,120);stroke-width:1px"/>
  <line x1="70" y1="14" x2="70" y2="26" style="stroke:rgb(120,120,120);stroke-width:1px"/>
  <line x1="75" y1="14" x2="75" y2="26" style="stroke:rgb(120,120,120);stroke-width:1px"/>
  <line x1="80" y1="14" x2="80" y2="26" style="stroke:rgb(120,120,120);stroke-width:1px"/>
  <line x1="85" y1="14" x2="85" y2="26" style="stroke:rgb(120,120,120);stroke-width:1px"/>

  <!-- middle marker -->
  <line x1="90" y1="12" x2="90" y2="28" style="stroke:rgb(72,72,72);stroke-width:2px"/>

  <line x1="95" y1="14" x2="95" y2="26" style="stroke:rgb(120,120,120);stroke-width:1px"/>
  <line x1="100" y1="14" x2="100" y2="26" style="stroke:rgb(120,120,120);stroke-width:1px"/>
  <line x1="105" y1="14" x2="105" y2="26" style="stroke:rgb(120,120,120);stroke-width:1px"/>
  <line x1="110" y1="14" x2="110" y2="26" style="stroke:rgb(120,120,120);stroke-width:1px"/>
  <line x1="115" y1="14" x2="115" y2="26" style="stroke:rgb(120,120,120);stroke-width:1px"/>
  <line x1="120" y1="14" x2="120" y2="26" style="stroke:rgb(120,120,120);stroke-width:1px"/>
  <line x1="125" y1="14" x2="125" y2="26" style="stroke:rgb(120,120,120);stroke-width:1px"/>

  <!-- quarter marker -->
  <line x1="130" y1="10" x2="130" y2="30" style="stroke:rgb(72,72,72);stroke-width:2px"/>

  <line x1="135" y1="14" x2="135" y2="26" style="stroke:rgb(120,120,120);stroke-width:1px"/>
  <line x1="140" y1="14" x2="140" y2="26" style="stroke:rgb(120,120,120);stroke-width:1px"/>
  <line x1="145" y1="14" x2="145" y2="26" style="stroke:rgb(120,120,120);stroke-width:1px"/>
  <line x1="150" y1="14" x2="150" y2="26" style="stroke:rgb(120,120,120);stroke-width:1px"/>
  <line x1="155" y1="14" x2="155" y2="26" style="stroke:rgb(120,120,120);stroke-width:1px"/>
  <line x1="160" y1="14" x2="160" y2="26" style="stroke:rgb(120,120,120);stroke-width:1px"/>
  <line x1="165" y1="14" x2="165" y2="26" style="stroke:rgb(120,120,120);stroke-width:1px"/>

  <!-- end marker -->
  <line x1="170" y1="7" x2="170" y2="33" style="stroke:rgb(72,72,72);stroke-width:2px"/>
</svg>
