<svg width="30" height="22" version="1.1" xmlns="http://www.w3.org/2000/svg">
  <path d="m12 4c-0.554 0-1 0.446-1 1v3h8v-3c0-0.554-0.446-1-1-1zm1.25 1.5c0.41421 0 0.75 0.33579 0.75 0.75s-0.33579 0.75-0.75 0.75-0.75-0.33579-0.75-0.75 0.33579-0.75 0.75-0.75zm3.5 0c0.41421 0 0.75 0.33579 0.75 0.75s-0.33579 0.75-0.75 0.75-0.75-0.33579-0.75-0.75 0.33579-0.75 0.75-0.75z" color="#000001" fill="#e86317"/>
  <rect x="12" y="15" width="2" height="3" rx="1" ry="1" fill="#e86317"/>
  <rect x="16" y="15" width="2" height="3" rx="1" ry="1" fill="#e86317"/>
  <rect x="8" y="9" width="2" height="5" rx="1" ry="1" color="#000001" fill="#e86317"/>
  <path d="m11 9v6.4219c0 0.32317 0.223 0.57812 0.5 0.57812h7c0.277 0 0.5-0.25496 0.5-0.57812v-6.4219h-7.5z" color="#000001" fill="#e86317"/>
  <rect x="20" y="9" width="2" height="5" rx="1" ry="1" color="#000001" fill="#e86317"/>
</svg>
