<?xml version="1.0" encoding="UTF-8" standalone="no"?>
<svg
   width="92"
   height="40"
   version="1.1"
   id="svg32"
   xmlns="http://www.w3.org/2000/svg"
   xmlns:svg="http://www.w3.org/2000/svg"
   xmlns:rdf="http://www.w3.org/1999/02/22-rdf-syntax-ns#"
   xmlns:cc="http://creativecommons.org/ns#"
   xmlns:dc="http://purl.org/dc/elements/1.1/">
 <g transform="scale(2)">
  <metadata
     id="metadata38">
    <rdf:RDF>
      <cc:Work
         rdf:about="">
        <dc:format>image/svg+xml</dc:format>
        <dc:type
           rdf:resource="http://purl.org/dc/dcmitype/StillImage" />
      </cc:Work>
    </rdf:RDF>
  </metadata>
  <defs
     id="defs36" />
  <g
     id="g10"
     style="display:inline;fill:none"
     transform="translate(-2,-2)">
    <path
       d="M 16,8 H 9 v 4 h 5 v 2 H 9 v 1 h 7 V 11 H 11 V 9 h 5 V 8"
       id="path2" />
    <path
       d="m 26,8 v 7 h 2 V 9 h 3 v 6 h 2 V 8 h -7"
       id="path4" />
    <path
       d="m 34,8 v 7 h 7 V 14 H 36 V 9 h 5 V 8 h -7"
       id="path6" />
    <path
       d="m 20,15 v -3.5 l -3,-3 V 8 h 1.5 L 21,10.5 23.5,8 H 25 v 0.5 l -3,3 V 15 h -2"
       id="path8" />
  </g>
  <text
     xml:space="preserve"
     style="font-style:normal;font-variant:normal;font-weight:normal;font-stretch:normal;font-size:11.2783px;line-height:0%;font-family:'Latina Essential';-inkscape-font-specification:'Latina Essential';writing-mode:lr-tb;opacity:1;fill:#d2d2d1;fill-opacity:1;stroke:#000000;stroke-width:0.846;stroke-linejoin:miter;stroke-miterlimit:4;stroke-dasharray:none;stroke-opacity:1"
     x="0.056735612"
     y="14.086957"
     id="text4532"
     transform="scale(1.0060601,0.99397642)"><tspan
       id="tspan4530"
       x="0.056735612"
       y="14.086957"
       style="stroke-width:0.846">LEADER</tspan></text>
 </g>
</svg>
