<svg width="40" height="17" version="1.1" xmlns="http://www.w3.org/2000/svg">
  <path d="m5.7942 15.1483c0.60561 0.57244 1.4882 0.85239 2.062 0.85238l25.6571-6.81e-4c1.4154 3.51e-4 2.7757-1.0248 2.9852-2.6991 0.01105 2.1371-0.42549 3.6991-2.3306 3.6991l-25.8111-1.9e-5c-1.0882-1e-6 -2.3492-0.629739-2.5625-1.8517z" color="#000000" opacity=".15"/>
  <path d="m5.2942 14.1833c0.69268 0.64195 1.4882 0.81723 2.062 0.817221l25.5551-6.81e-4c2.1018-5.6e-5 3.1018-1.6525 3.1018-2.9996l-0.01306-2.00024h-1v-3l1.01306 2.4e-4c0-0.57381-0.198501-1.2921-0.58032-1.7777 0.86256 0.52578 1.0808 1.6891 1.0808 2.7773v5c0 1.662-1.338 3-3 3l-25.6571-1.9e-5c-1.0882-1e-6 -2.5339-0.85452-2.5625-1.8165z" color="#000000" opacity=".5"/>
  <path d="m7.35547 4.00197c-1.66134-1.8e-6 -2.99894 1.33697-3 2.99805h0.644531v3h-0.644531v2.00195c0 1.662 1.338 3 3 3l25.6582-1.9e-5c1.662 3e-6 3-1.338 3-3l-0.013671-2.00195h-1v-3l1.01367 2e-3c0.0076-1.66198-1.338-3-3-3z" color="#000000" opacity=".8"/>
  <path d="m6 3.00002 28-1.85e-5c1.108-7e-7 2 0.892 2 2v3c0 1.108-0.892001 2-2 2l-28 1.8e-5c-1.108 1e-6 -2-0.892-2-2v-3c0-1.108 0.892-2 2-2z" fill="#2a2a2a"/>
  <path d="m5 4h30.0004c0.554 0 1 0.864574 1 1.93851v1.12267c0 1.07393-0.446 1.93851-1 1.93851h-30.0004c-0.554 0-1-0.864574-1-1.93851v-1.12267c0-1.07393 0.446-1.93851 1-1.93851z" fill="#141414"/>
  <path d="m6 7.00002 28-1.85e-5c1.108-7e-7 2 0.892 2 2v3c0 1.108-0.892001 2-2 2l-28 1.8e-5c-1.108 1e-6 -2-0.891999-2-2v-3c0-1.108 0.892-2 2-2z" fill="#050505"/>
  <path d="m5.0004 8h30c0.554 0 1 0.864574 1 1.93851v1.12299c0 1.07393-0.446 1.93851-1 1.93851h-30c-0.554 0-1-0.864574-1-1.93851v-1.12299c0-1.07393 0.446-1.93851 1-1.93851z" fill="#1a1a1a"/>
  <path d="m5 7.00002 30-1.85e-5v1l-30 1.85e-5z" fill="#561e0e"/>
  <path d="m5 9.00002 30-1.85e-5v1l-30 1.8e-5z" fill="#a74a17"/>
  <path d="m5 8.00002 30-1.85e-5v1l-30 1.85e-5z" fill="#8d3b13"/>
  <path d="m36 7h-1v1h1z" fill="#37110b"/>
  <path d="m36 9h-1v1h1z" fill="#7a3612"/>
  <path d="m36 8h-1v1h1z" fill="#57240d"/>
  <path d="m5 8.9997h-1v1h1z" fill="#b35115"/>
  <path d="m5 7.9997h-1v1h1z" fill="#994311"/>
  <path d="m4.0004 7.00002h0.9996v1h-0.9996z" fill="#61230d"/>
</svg>
