<?xml version="1.0" encoding="UTF-8" standalone="no"?>
<svg
   xmlns:dc="http://purl.org/dc/elements/1.1/"
   xmlns:cc="http://creativecommons.org/ns#"
   xmlns:rdf="http://www.w3.org/1999/02/22-rdf-syntax-ns#"
   xmlns:svg="http://www.w3.org/2000/svg"
   xmlns="http://www.w3.org/2000/svg"
   width="40"
   height="17"
   version="1.1"
   id="svg24">
  <metadata
     id="metadata30">
    <rdf:RDF>
      <cc:Work
         rdf:about="">
        <dc:format>image/svg+xml</dc:format>
        <dc:type
           rdf:resource="http://purl.org/dc/dcmitype/StillImage" />
        <dc:title></dc:title>
      </cc:Work>
    </rdf:RDF>
  </metadata>
  <defs
     id="defs28" />
  <path
     style="color:#000000;opacity:0.15"
     id="path2-3"
     d="m 3.7942007,15.148283 c 0.60561,0.57244 1.4882,0.85239 2.062,0.85238 L 35.513261,16 c 1.4154,3.51e-4 2.7757,-1.024799 2.9852,-2.699099 0.01105,2.137099 -0.42549,3.699102 -2.3306,3.699099 l -29.8110603,-3.7e-5 c -1.0882,-1e-6 -2.3492,-0.62974 -2.5625,-1.8517 z" />
  <path
     style="color:#000000;opacity:0.5"
     id="path4-6"
     d="m 3.2942007,14.183283 c 0.69268,0.64195 1.4882,0.81723 2.062,0.81722 l 29.5550603,-6.62e-4 c 2.1018,-4.8e-5 3.1018,-1.6525 3.1018,-2.9996 L 38,10 H 37 V 7 l 1.013061,2.4e-4 c 0,-0.57381 -0.1985,-1.2921 -0.58032,-1.7777 0.86256,0.52578 1.0808,1.6891 1.0808,2.7773 v 5.000001 c 0,1.662 -1.338,3.000002 -3,2.999999 l -29.6570603,-3.7e-5 c -1.0882,-10e-7 -2.5339,-0.85452 -2.5625,-1.8165 z" />
  <path
     id="path6-7"
     d="m 5.3554688,4.001953 c -1.6613386,-2e-6 -2.9989357,1.336966 -3,2.998047 H 3 v 3 H 2.3554688 v 2.001953 c 0,1.662 1.338,2.999998 3,3 H 35.013672 c 1.662,3e-6 3,-1.338 3,-3 L 38,10 H 37 V 7 l 1.013672,0.002 c 0.0076,-1.661983 -1.338,-2.999998 -3,-3 z"
     style="color:#000000;opacity:0.8" />
  <g
     id="g1720">
    <rect
       style="fill:#2a2a2a;fill-opacity:1;stroke:none;stroke-width:1.60000002;stroke-linejoin:round;stroke-miterlimit:4;stroke-dasharray:none;stroke-opacity:1"
       id="rect1700-1"
       width="36"
       height="7"
       x="2"
       y="3"
       rx="2"
       ry="2" />
    <rect
       style="fill:#050505;fill-opacity:1;stroke:none;stroke-width:1.60000002;stroke-linejoin:round;stroke-miterlimit:4;stroke-dasharray:none;stroke-opacity:1"
       id="rect1700"
       width="36"
       height="7"
       x="2"
       y="7"
       rx="2"
       ry="2" />
    <rect
       style="fill:#1a1a1a;fill-opacity:1;stroke:none;stroke-width:1.60000002;stroke-linejoin:round;stroke-miterlimit:4;stroke-dasharray:none;stroke-opacity:1"
       id="rect1698"
       width="36"
       height="9"
       x="2"
       y="4"
       rx="1"
       ry="2" />
  </g>
  <path
     style="opacity:1;fill:#561e0e;fill-opacity:1;stroke:none;stroke-width:1.60000002;stroke-linejoin:round;stroke-miterlimit:4;stroke-dasharray:none;stroke-opacity:1"
     d="M 3,7.0000003 H 37 V 8 H 3 Z"
     id="rect1022-35" />
  <path
     style="opacity:1;fill:#a74a17;fill-opacity:1;stroke:none;stroke-width:1.60000002;stroke-linejoin:round;stroke-miterlimit:4;stroke-dasharray:none;stroke-opacity:1"
     d="m 3,9 h 34 v 1 H 3 Z"
     id="rect1022-6-6" />
  <path
     style="opacity:1;fill:#8d3b13;fill-opacity:1;stroke:none;stroke-width:1.60000002;stroke-linejoin:round;stroke-miterlimit:4;stroke-dasharray:none;stroke-opacity:1"
     d="M 3,8 H 37 V 9 H 3 Z"
     id="rect1022-7-2" />
  <path
     style="opacity:1;fill:#37110b;fill-opacity:1;stroke:none;stroke-width:1.60000002;stroke-linejoin:round;stroke-miterlimit:4;stroke-dasharray:none;stroke-opacity:1"
     d="m 38,7 h -1 v 1 h 1 z"
     id="rect1022-3-5-9-2" />
  <path
     style="opacity:1;fill:#7a3612;fill-opacity:1;stroke:none;stroke-width:1.60000002;stroke-linejoin:round;stroke-miterlimit:4;stroke-dasharray:none;stroke-opacity:1"
     d="m 38,9 h -1 v 1 h 1 z"
     id="rect1022-6-6-3-7-9" />
  <path
     style="opacity:1;fill:#57240d;fill-opacity:1;stroke:none;stroke-width:1.60000002;stroke-linejoin:round;stroke-miterlimit:4;stroke-dasharray:none;stroke-opacity:1"
     d="m 38,8 h -1 v 1 h 1 z"
     id="rect1022-7-7-5-3-3" />
  <path
     style="opacity:1;fill:#b35115;fill-opacity:1;stroke:none;stroke-width:1.60000002;stroke-linejoin:round;stroke-miterlimit:4;stroke-dasharray:none;stroke-opacity:1"
     d="M 3,8.9996777 H 2 V 9.999678 h 1 z"
     id="rect1022-6-6-2-6-9" />
  <path
     style="opacity:1;fill:#994311;fill-opacity:1;stroke:none;stroke-width:1.60000002;stroke-linejoin:round;stroke-miterlimit:4;stroke-dasharray:none;stroke-opacity:1"
     d="M 3,7.9996777 H 2 v 1 h 1 z"
     id="rect1022-7-7-8-1-1" />
  <rect
     y="7"
     x="2.0004005"
     height="1"
     width="0.99959946"
     id="rect1022-3-27"
     style="opacity:1;fill:#61230d;fill-opacity:1;stroke:none;stroke-width:0.27434278;stroke-linejoin:round;stroke-miterlimit:4;stroke-dasharray:none;stroke-opacity:1" />
</svg>
