<svg width="42" height="19" version="1.1" xmlns="http://www.w3.org/2000/svg">
  <path d="m4.7942 16.1483c0.60561 0.57244 1.4882 0.85239 2.062 0.85238l29.6571-6.63e-4c1.4154 3.51e-4 2.7757-1.0248 2.9852-2.6991 0.01105 2.1371-0.42549 3.6991-2.3306 3.6991l-29.8111-3.7e-5c-1.0882-1e-6 -2.3492-0.62974-2.5625-1.8517z" color="#000000" opacity=".15"/>
  <path d="m4.2942 15.1833c0.69268 0.64195 1.4882 0.81723 2.062 0.81722l29.5551-6.62e-4c2.1018-4.8e-5 3.1018-1.6525 3.1018-2.9996l-0.013061-2.00024h-1v-3l1.01306 2.4e-4c0-0.57381-0.1985-1.2921-0.58032-1.7777 0.86256 0.52578 1.0808 1.6891 1.0808 2.7773v5c0 1.662-1.338 3-3 3l-29.6571-3.7e-5c-1.0882-1e-6 -2.5339-0.85452-2.5625-1.8165z" color="#000000" opacity=".5"/>
  <path d="m6.35547 5.00195c-1.66134-2.1e-6 -2.99894 1.33697-3 2.99805h0.644531v3h-0.644531v2.00195c0 1.662 1.338 3 3 3h29.6582c1.662 3e-6 3-1.338 3-3l-0.013672-2.00195h-1v-3l1.01367 0.00195c0.0076-1.66198-1.338-3-3-3z" color="#000000" opacity=".8"/>
  <rect x="3" y="4" width="36" height="7" rx="2" ry="2" fill="#2a2a2a"/>
  <rect x="3" y="8" width="36" height="7" rx="2" ry="2" fill="#050505"/>
  <path d="m4.0004 9h33.9996c0.554 0 1 0.864574 1 1.93851v1.12299c0 1.07393-0.446 1.93851-1 1.93851h-33.9996c-0.554 0-1-0.864574-1-1.93851v-1.12299c0-1.07393 0.446-1.93851 1-1.93851z" fill="#1a1a1a"/>
  <path d="m4 5h34c0.554 0 1 0.864574 1 1.93851v1.12267c0 1.07393-0.446 1.93851-1 1.93851h-34c-0.554 0-1-0.864574-1-1.93851v-1.12267c0-1.07393 0.446-1.93851 1-1.93851z" fill="#141414"/>
  <path d="m4 8h34v1h-34z" fill="#561e0e"/>
  <path d="m4 10h34v1h-34z" fill="#a74a17"/>
  <path d="m4 9h34v1h-34z" fill="#8d3b13"/>
  <path d="m39 8h-1v1h1z" fill="#37110b"/>
  <path d="m39 10h-1v1h1z" fill="#7a3612"/>
  <path d="m39 9h-1v1h1z" fill="#57240d"/>
  <path d="m4 9.99968h-1v1h1z" fill="#b35115"/>
  <path d="m4 8.99968h-1v1h1z" fill="#994311"/>
  <rect x="3.0004" y="8" width=".999599" height="1" fill="#61230d"/>
</svg>
