<?xml version="1.0" encoding="UTF-8" standalone="no"?>
<svg
   xmlns:dc="http://purl.org/dc/elements/1.1/"
   xmlns:cc="http://creativecommons.org/ns#"
   xmlns:rdf="http://www.w3.org/1999/02/22-rdf-syntax-ns#"
   xmlns:svg="http://www.w3.org/2000/svg"
   xmlns="http://www.w3.org/2000/svg"
   id="svg22"
   version="1.1"
   height="19"
   width="42">
  <metadata
     id="metadata28">
    <rdf:RDF>
      <cc:Work
         rdf:about="">
        <dc:format>image/svg+xml</dc:format>
        <dc:type
           rdf:resource="http://purl.org/dc/dcmitype/StillImage" />
        <dc:title></dc:title>
      </cc:Work>
    </rdf:RDF>
  </metadata>
  <defs
     id="defs26" />
  <path
     style="color:#000000;opacity:0.15"
     id="path2-3-6"
     d="m 4.7942007,16.148283 c 0.60561,0.57244 1.4882,0.85239 2.062,0.85238 L 36.513261,17 c 1.4154,3.51e-4 2.7757,-1.024799 2.9852,-2.699099 0.01105,2.137099 -0.42549,3.699102 -2.3306,3.699099 l -29.8110603,-3.7e-5 c -1.0882,-1e-6 -2.3492,-0.62974 -2.5625,-1.8517 z" />
  <path
     style="color:#000000;opacity:0.5"
     id="path4-6-7"
     d="m 4.2942007,15.183283 c 0.69268,0.64195 1.4882,0.81723 2.062,0.81722 l 29.5550603,-6.62e-4 c 2.1018,-4.8e-5 3.1018,-1.6525 3.1018,-2.9996 L 39,11 H 38 V 8 l 1.013061,2.4e-4 c 0,-0.57381 -0.1985,-1.2921 -0.58032,-1.7777 0.86256,0.52578 1.0808,1.6891 1.0808,2.7773 v 5.000001 c 0,1.662 -1.338,3.000002 -3,2.999999 l -29.6570603,-3.7e-5 c -1.0882,-1e-6 -2.5339,-0.85452 -2.5625,-1.8165 z" />
  <path
     id="path6-7-5"
     d="M 6.3554688,5.0019531 C 4.6941302,5.001951 3.3565331,6.3389194 3.3554688,8 H 4 v 3 H 3.3554688 v 2.001953 c 0,1.662 1.338,2.999998 3,3 H 36.013672 c 1.662,3e-6 3,-1.338 3,-3 L 39,11 H 38 V 8 l 1.013672,0.00195 c 0.0076,-1.6619827 -1.338,-2.9999979 -3,-3 z"
     style="color:#000000;opacity:0.8" />
  <rect
     ry="2"
     rx="2"
     y="4"
     x="3"
     height="7"
     width="36"
     id="rect1700-1"
     style="fill:#2a2a2a;fill-opacity:1;stroke:none;stroke-width:1.60000002;stroke-linejoin:round;stroke-miterlimit:4;stroke-dasharray:none;stroke-opacity:1" />
  <rect
     ry="2"
     rx="2"
     y="8"
     x="3"
     height="7"
     width="36"
     id="rect1700"
     style="fill:#050505;fill-opacity:1;stroke:none;stroke-width:1.60000002;stroke-linejoin:round;stroke-miterlimit:4;stroke-dasharray:none;stroke-opacity:1" />
  <path
     id="rect1698"
     d="M 4.0004005,9 H 38 c 0.554,0 1,0.8645735 1,1.938506 v 1.122988 C 39,13.135426 38.554,14 38,14 H 4.0004005 c -0.554,0 -1,-0.864574 -1,-1.938506 v -1.122988 c 0,-1.0739325 0.446,-1.938506 1,-1.938506 z"
     style="fill:#1a1a1a;fill-opacity:1;stroke:none;stroke-width:1.60000002;stroke-linejoin:round;stroke-miterlimit:4;stroke-dasharray:none;stroke-opacity:1" />
  <path
     id="rect1698-3"
     d="m 4,5 h 34 c 0.554,0 1,0.8645735 1,1.9385056 V 8.061172 c 0,1.0739321 -0.446,1.9385057 -1,1.9385057 H 4 c -0.554,0 -1,-0.8645736 -1,-1.9385057 V 6.9385056 C 3,5.8645735 3.446,5 4,5 Z"
     style="fill:#141414;fill-opacity:1;stroke:none;stroke-width:1.60000002;stroke-linejoin:round;stroke-miterlimit:4;stroke-dasharray:none;stroke-opacity:1" />
  <path
     id="rect1022-35"
     d="M 4,8.0000003 H 38 V 9 H 4 Z"
     style="opacity:1;fill:#561e0e;fill-opacity:1;stroke:none;stroke-width:1.60000002;stroke-linejoin:round;stroke-miterlimit:4;stroke-dasharray:none;stroke-opacity:1" />
  <path
     id="rect1022-6-6"
     d="m 4,10 h 34 v 1 H 4 Z"
     style="opacity:1;fill:#a74a17;fill-opacity:1;stroke:none;stroke-width:1.60000002;stroke-linejoin:round;stroke-miterlimit:4;stroke-dasharray:none;stroke-opacity:1" />
  <path
     id="rect1022-7-2"
     d="m 4,9 h 34 v 1 H 4 Z"
     style="opacity:1;fill:#8d3b13;fill-opacity:1;stroke:none;stroke-width:1.60000002;stroke-linejoin:round;stroke-miterlimit:4;stroke-dasharray:none;stroke-opacity:1" />
  <path
     id="rect1022-3-5-9-2"
     d="m 39,8 h -1 v 1 h 1 z"
     style="opacity:1;fill:#37110b;fill-opacity:1;stroke:none;stroke-width:1.60000002;stroke-linejoin:round;stroke-miterlimit:4;stroke-dasharray:none;stroke-opacity:1" />
  <path
     id="rect1022-6-6-3-7-9"
     d="m 39,10 h -1 v 1 h 1 z"
     style="opacity:1;fill:#7a3612;fill-opacity:1;stroke:none;stroke-width:1.60000002;stroke-linejoin:round;stroke-miterlimit:4;stroke-dasharray:none;stroke-opacity:1" />
  <path
     id="rect1022-7-7-5-3-3"
     d="m 39,9 h -1 v 1 h 1 z"
     style="opacity:1;fill:#57240d;fill-opacity:1;stroke:none;stroke-width:1.60000002;stroke-linejoin:round;stroke-miterlimit:4;stroke-dasharray:none;stroke-opacity:1" />
  <path
     id="rect1022-6-6-2-6-9"
     d="M 4,9.9996777 H 3 v 1.0000003 h 1 z"
     style="opacity:1;fill:#b35115;fill-opacity:1;stroke:none;stroke-width:1.60000002;stroke-linejoin:round;stroke-miterlimit:4;stroke-dasharray:none;stroke-opacity:1" />
  <path
     id="rect1022-7-7-8-1-1"
     d="M 4,8.9996777 H 3 v 1 h 1 z"
     style="opacity:1;fill:#994311;fill-opacity:1;stroke:none;stroke-width:1.60000002;stroke-linejoin:round;stroke-miterlimit:4;stroke-dasharray:none;stroke-opacity:1" />
  <rect
     style="opacity:1;fill:#61230d;fill-opacity:1;stroke:none;stroke-width:0.27434278;stroke-linejoin:round;stroke-miterlimit:4;stroke-dasharray:none;stroke-opacity:1"
     id="rect1022-3-27"
     width="0.99959946"
     height="1"
     x="3.0004005"
     y="8" />
</svg>
