<svg version="1.1" viewBox="0 0 16 13" xmlns="http://www.w3.org/2000/svg">
  <path d="m2.2936215 11.183513c.50429.41324 1.07523.816575 2.20536.816565l7.3988955-8.8e-5c2.101749-2.5e-5 3.101863-1.65253 3.10175-2.9996496l-.000251-3.00035c-4.7e-5-.5738101-.198495-1.29214-.580323-1.77769.86256.52578 1.080729 1.68914 1.08082 2.77734l.00025 3.00035c.000138 1.6619996-1.338 2.9999896-3 2.9999996l-7.6439945 8.8e-5c-1.0882 9e-6-2.27159-.138071-2.5625-1.81656z" color="#000000" opacity=".5"/>
  <path d="m1.3553715 6.0004525.00025 3.00035c.0001385 1.6620005 1.338 3.0000105 3 3.0000005l7.6439955-8.9e-5c1.661999-1.2e-5 3.000139-1.338 3-2.9999996l-.000251-3.00035c-.000139-1.662-1.338-3.00001-2.999999-3l-7.6439955 8.76e-5c-1.662 1.9e-5-3.00014 1.338-3 3.0000005z" color="#000000" opacity=".8"/>
  <path d="m2.9998715 1.9999225 10.0000955 8.74e-5c1.107999 9.7e-6 2 .892 2 2v2c0 1.108-.892 2-2 2l-10.0000955-8.74e-5c-1.108-9.7e-6-2-.892-2-2v-2c0-1.108.892-2 2-2z" fill="#2a2a2a"/>
  <path d="m2.9998715 4.9999225 10.0000955 8.74e-5c1.107999 9.7e-6 2 .892 2 2v2c0 1.1080001-.892 1.9999991-2 1.9999991l-10.0000955-8.6e-5c-1.108-5e-6-2-.892-2-2v-2c0-1.108.892-2 2-2.0000005z" fill="#050505"/>
  <path d="m14.999987 8.0000124c0 1.108-.446001 1.9999996-1 1.9999996l-12.0000955-8.7e-5c-.554-4e-6-1-.892-1-2z" fill="#1a1a1a"/>
  <path d="m1.9998715 2.9999225 12.0000955 8.74e-5c.553999 4e-6 1 .892 1 1.9999999l-14.0000955-8.73e-5c0-1.108.446-2 1-2z" fill="#141414"/>
  <path d="m2 5.00002 12-1.85e-5v1l-12 1.85e-5z" fill="#561e0e"/>
  <path d="m2 7.00002 12-1.85e-5v1.0000005l-12 1.8e-5z" fill="#a74a17"/>
  <path d="m2 6.00002 12-1.85e-5v1l-12 1.85e-5z" fill="#8d3b13"/>
  <path d="m15 5h-1v1h1z" fill="#37110b"/>
  <path d="m15 7h-1v1h1z" fill="#7a3612"/>
  <path d="m15 6h-1v1h1z" fill="#57240d"/>
  <path d="m2 6.9997h-1v1h1z" fill="#b35115"/>
  <path d="m2 5.9997h-1v1h1z" fill="#994311"/>
  <path d="m1.0004 5.00002h.9996v1h-.9996z" fill="#61230d"/>
</svg>
