<?xml version="1.0" encoding="UTF-8" standalone="no"?>
<svg
   xmlns:dc="http://purl.org/dc/elements/1.1/"
   xmlns:cc="http://creativecommons.org/ns#"
   xmlns:rdf="http://www.w3.org/1999/02/22-rdf-syntax-ns#"
   xmlns:svg="http://www.w3.org/2000/svg"
   xmlns="http://www.w3.org/2000/svg"
   width="40"
   height="17"
   version="1.1"
   id="svg24">
  <metadata
     id="metadata30">
    <rdf:RDF>
      <cc:Work
         rdf:about="">
        <dc:format>image/svg+xml</dc:format>
        <dc:type
           rdf:resource="http://purl.org/dc/dcmitype/StillImage" />
        <dc:title></dc:title>
      </cc:Work>
    </rdf:RDF>
  </metadata>
  <defs
     id="defs28" />
  <path
     style="color:#000000;opacity:0.15"
     id="path2-3"
     d="m 6.7938003,15.148301 c 0.60561,0.57244 1.4882,0.85239 2.062,0.85238 L 34.51286,16 c 1.4154,3.51e-4 2.7757,-1.024799 2.9852,-2.699099 C 37.50911,15.438 37.07257,17.000001 35.16746,17 l -25.8110596,-1.9e-5 c -1.0882,-10e-7 -2.3492,-0.629739 -2.5625,-1.851699 z" />
  <path
     style="color:#000000;opacity:0.5"
     id="path4-6"
     d="m 6.2938003,14.183301 c 0.69268,0.64195 1.4882,0.81723 2.062,0.817221 L 33.91086,14.999841 c 2.1018,-5.6e-5 3.1018,-1.6525 3.1018,-2.9996 L 36.999599,10 h -1 V 7 l 1.013061,2.4e-4 c 0,-0.57381 -0.1985,-1.2921 -0.58032,-1.7777 0.86256,0.52578 1.0808,1.6891 1.0808,2.7773 v 5.000001 c 0,1.662 -1.338,3 -3,2.999999 l -25.6570596,-1.9e-5 c -1.0882,-1e-6 -2.5339,-0.85452 -2.5625,-1.8165 z" />
  <path
     id="path6-7"
     d="m 8.3550684,4.0019715 c -1.6613385,-1.8e-6 -2.9989357,1.336966 -3,2.998047 H 5.9995996 V 10.000018 H 5.3550684 v 2.001954 c 0,1.661999 1.338,2.999998 3,3 l 25.6582026,-1.9e-5 c 1.662,3e-6 3,-1.338 3,-3 L 36.999599,10 h -1 V 7 l 1.013672,0.002 c 0.0076,-1.661983 -1.338,-2.9999982 -3,-3 z"
     style="color:#000000;opacity:0.8" />
  <path
     id="rect1700-1"
     d="M 6.9995996,3.0000185 34.999599,3 c 1.108,-7e-7 2,0.892 2,2 v 3 c 0,1.108 -0.892,1.9999993 -2,2 l -27.9999994,1.8e-5 c -1.108,10e-7 -2,-0.8919995 -2,-1.9999995 v -3 c 0,-1.108 0.892,-1.9999993 2,-2 z"
     style="fill:#2a2a2a;fill-opacity:1;stroke:none;stroke-width:1.60000002;stroke-linejoin:round;stroke-miterlimit:4;stroke-dasharray:none;stroke-opacity:1" />
  <path
     id="rect1698-3"
     d="M 5.9995995,4 H 36 c 0.554,0 1,0.8645735 1,1.9385056 V 7.061172 c 0,1.0739321 -0.446,1.9385057 -1,1.9385057 H 5.9995995 c -0.554,0 -1,-0.8645736 -1,-1.9385057 V 5.9385056 c 0,-1.0739321 0.446,-1.9385056 1,-1.9385056 z"
     style="fill:#141414;fill-opacity:1;stroke:none;stroke-width:1.60000002;stroke-linejoin:round;stroke-miterlimit:4;stroke-dasharray:none;stroke-opacity:1" />
  <path
     style="fill:#050505;fill-opacity:1;stroke:none;stroke-width:1.60000002;stroke-linejoin:round;stroke-miterlimit:4;stroke-dasharray:none;stroke-opacity:1"
     d="M 6.9995996,7.0000185 34.999599,7 c 1.108,-7e-7 2,0.892 2,2 v 3 c 0,1.108 -0.892,1.999999 -2,2 l -27.9999994,1.8e-5 c -1.108,10e-7 -2,-0.891999 -2,-2 V 9.0000185 c 0,-1.108 0.892,-1.9999993 2,-2 z"
     id="rect1700" />
  <path
     id="rect1698"
     d="m 6,8 h 30 c 0.554,0 1,0.8645735 1,1.938506 v 1.122988 C 37,12.135426 36.554,13 36,13 H 6 C 5.446,13 5,12.135426 5,11.061494 V 9.938506 C 5,8.8645735 5.446,8 6,8 Z"
     style="fill:#1a1a1a;fill-opacity:1;stroke:none;stroke-width:1.60000002;stroke-linejoin:round;stroke-miterlimit:4;stroke-dasharray:none;stroke-opacity:1" />
  <path
     style="opacity:1;fill:#561e0e;fill-opacity:1;stroke:none;stroke-width:1.60000002;stroke-linejoin:round;stroke-miterlimit:4;stroke-dasharray:none;stroke-opacity:1"
     d="M 5.9995996,7.0000188 35.999599,7.0000003 V 8 l -29.9999994,1.85e-5 z"
     id="rect1022-35" />
  <path
     style="opacity:1;fill:#a74a17;fill-opacity:1;stroke:none;stroke-width:1.60000002;stroke-linejoin:round;stroke-miterlimit:4;stroke-dasharray:none;stroke-opacity:1"
     d="M 5.9995996,9.0000185 35.999599,9 v 1 l -29.9999994,1.8e-5 z"
     id="rect1022-6-6" />
  <path
     style="opacity:1;fill:#8d3b13;fill-opacity:1;stroke:none;stroke-width:1.60000002;stroke-linejoin:round;stroke-miterlimit:4;stroke-dasharray:none;stroke-opacity:1"
     d="M 5.9995996,8.0000185 35.999599,8 v 1 l -29.9999994,1.85e-5 z"
     id="rect1022-7-2" />
  <path
     style="opacity:1;fill:#37110b;fill-opacity:1;stroke:none;stroke-width:1.60000002;stroke-linejoin:round;stroke-miterlimit:4;stroke-dasharray:none;stroke-opacity:1"
     d="m 36.999599,7 h -1 v 1 h 1 z"
     id="rect1022-3-5-9-2" />
  <path
     style="opacity:1;fill:#7a3612;fill-opacity:1;stroke:none;stroke-width:1.60000002;stroke-linejoin:round;stroke-miterlimit:4;stroke-dasharray:none;stroke-opacity:1"
     d="m 36.999599,9 h -1 v 1 h 1 z"
     id="rect1022-6-6-3-7-9" />
  <path
     style="opacity:1;fill:#57240d;fill-opacity:1;stroke:none;stroke-width:1.60000002;stroke-linejoin:round;stroke-miterlimit:4;stroke-dasharray:none;stroke-opacity:1"
     d="m 36.999599,8 h -1 v 1 h 1 z"
     id="rect1022-7-7-5-3-3" />
  <path
     style="opacity:1;fill:#b35115;fill-opacity:1;stroke:none;stroke-width:1.60000002;stroke-linejoin:round;stroke-miterlimit:4;stroke-dasharray:none;stroke-opacity:1"
     d="m 5.9995996,8.9996962 h -1 v 1.0000003 h 1 z"
     id="rect1022-6-6-2-6-9" />
  <path
     style="opacity:1;fill:#994311;fill-opacity:1;stroke:none;stroke-width:1.60000002;stroke-linejoin:round;stroke-miterlimit:4;stroke-dasharray:none;stroke-opacity:1"
     d="m 5.9995996,7.9996962 h -1 v 1 h 1 z"
     id="rect1022-7-7-8-1-1" />
  <path
     style="opacity:1;fill:#61230d;fill-opacity:1;stroke:none;stroke-width:0.27434278;stroke-linejoin:round;stroke-miterlimit:4;stroke-dasharray:none;stroke-opacity:1"
     d="m 5.0000001,7.0000185 h 0.9995995 v 1 H 5.0000001 Z"
     id="rect1022-3-27" />
</svg>
