<svg width="19" height="40" version="1.1" xmlns="http://www.w3.org/2000/svg">
  <path d="m4.00012 31.998v2.00195c0 1.662 1.338 3 3 3l5.01367 2e-3c1.662 3e-6 3-1.338 3-3l-0.01367-2.002z" color="#000000" opacity=".9"/>
  <path d="m5.43785 37.2781c0.431382 0.371 1.12145 0.721737 2.07412 0.721766l4.98805 1.5e-4c1.41531 3.49e-4 2.49938-0.999651 2.83042-2 0 1.662-0.668522 3.00005-2.33044 3l-4.99976-1.5e-4c-1.08815-3.3e-5 -2.20457-0.316516-2.56238-1.72177z" color="#000000" opacity=".15" stroke-width=".999976"/>
  <path d="m4.93788 36.1833c0.566797 0.518445 1.25997 0.816497 2.04479 0.816521l4.91513 1.5e-4c2.10165 6.4e-5 3.10161-1.65253 3.1016-2.99965l-1.25e-4 -27c-3e-6 -0.57381-0.198487-1.29214-0.580296-1.77769 0.862519 0.52578 1.08077 1.68914 1.08077 2.77734l1.25e-4 27c8e-6 1.662-1.33794 3.00005-2.99986 3l-4.99976-1.5e-4c-1.08815-3.3e-5 -2.50013-0.531869-2.56238-1.81652z" color="#000000" opacity=".6" stroke-width=".999976"/>
  <path d="m4.00012 34-1.25e-4 -29c-4.8e-6 -1.108 0.892-2 2-2h3c1.108 0 2 0.892 2 2l1.25e-4 29c5e-6 1.108-0.892 2-2 2h-3c-1.108 0-2-0.892001-2-2z" fill="#171717"/>
  <path d="m8.00012 34-1.25e-4 -29c-4.8e-6 -1.108 0.892-2 2-2h3c1.108 0 2 0.892 2 2l1.25e-4 29c5e-6 1.108-0.892 2-2 2h-3c-1.108 0-2-0.892001-2-2z" fill="#0f0f0f"/>
  <path d="m9.00012 35-1.25e-4 -31c-2.2e-6 -0.554 0.892-1 2-1h1c1.108 0 2 0.446 2 1l1.25e-4 31c2e-6 0.553999-0.892 1-2 1h-1c-1.108 0-2-0.446001-2-1z" fill="#1a1a1a"/>
  <path d="m8 4 1.25e-4 31h1l-1.25e-4 -31z" fill="#6e2612"/>
  <path d="m10 4 1.25e-4 31h1l-1.25e-4 -31z" fill="#984015"/>
  <path d="m9 4 1.25e-4 31h1l-1.25e-4 -31z" fill="#8d3b13"/>
  <path d="m8.00012 36v-1h1v1z" fill="#682b10"/>
  <path d="m10.0001 36v-1h1v1z" fill="#6a2e0e"/>
  <path d="m9.00012 36v-1h1v1z" fill="#712f11"/>
  <path d="m9.99968 4v-1h1v1z" fill="#af4f13"/>
  <path d="m8.99968 4v-1h1v1z" fill="#a64912"/>
  <path d="m8 3.0004v0.9996h1v-0.9996z" fill="#963517"/>
</svg>
