<?xml version="1.0" encoding="UTF-8" standalone="no"?>
<svg
   xmlns:dc="http://purl.org/dc/elements/1.1/"
   xmlns:cc="http://creativecommons.org/ns#"
   xmlns:rdf="http://www.w3.org/1999/02/22-rdf-syntax-ns#"
   xmlns:svg="http://www.w3.org/2000/svg"
   xmlns="http://www.w3.org/2000/svg"
   width="85"
   height="42"
   version="1.1"
   id="svg46">
  <metadata
     id="metadata52">
    <rdf:RDF>
      <cc:Work
         rdf:about="">
        <dc:format>image/svg+xml</dc:format>
        <dc:type
           rdf:resource="http://purl.org/dc/dcmitype/StillImage" />
        <dc:title></dc:title>
      </cc:Work>
    </rdf:RDF>
  </metadata>
  <defs
     id="defs50" />
  <path
     d="m42.999797 24-2e-4 9h-.999596l2e-4-9z"
     color="#000000"
     fill="#050505"
     stroke-width=".99979782"
     id="path2" />
  <path
     d="m42.999797 6-2e-4 9h-.999596l2e-4-9z"
     color="#000000"
     fill="#050505"
     stroke-width=".99979782"
     id="path4" />
  <path
     d="m7.999796 24-2e-4 9h-.999596l2e-4-9z"
     color="#000000"
     fill="#050505"
     stroke-width=".99979782"
     id="path6" />
  <path
     d="m7.999796 6-2e-4 9h-.999596l2e-4-9z"
     color="#000000"
     fill="#050505"
     stroke-width=".99979782"
     id="path8" />
  <path
     d="m77.9998 24-2e-4 9h-.9996l2e-4-9z"
     color="#000000"
     fill="#050505"
     stroke-width=".99979782"
     id="path10" />
  <path
     d="m77.9998 6-2e-4 9h-.9996l2e-4-9z"
     color="#000000"
     fill="#050505"
     stroke-width=".99979782"
     id="path12" />
  <path
     d="m31.999797 24 2e-6 7h-.999596l-2e-6-7z"
     color="#000000"
     fill="#050505"
     stroke-width=".99979782"
     id="path14" />
  <path
     d="m31.999999 8-.000402 7h-.999596l.000402-7z"
     color="#000000"
     fill="#050505"
     stroke-width=".99979782"
     id="path16" />
  <path
     d="m53.999797 24 2e-6 7h-.999596l-2e-6-7z"
     color="#000000"
     fill="#050505"
     stroke-width=".99979782"
     id="path18" />
  <path
     d="m53.999999 8-.000402 7h-.999596l.000402-7z"
     color="#000000"
     fill="#050505"
     stroke-width=".99979782"
     id="path20" />
  <path
     d="m42.999898 7-2e-4 9h-.999596l2e-4-9z"
     color="#000000"
     fill="#636363"
     stroke-width=".99979782"
     id="path22" />
  <path
     d="m42.999597 34 2e-4-9h-.999596l-2e-4 9z"
     color="#000000"
     fill="#636363"
     stroke-width=".99979782"
     id="path24" />
  <path
     d="m7.999796 7-2e-4 9h-.999596l2e-4-9z"
     color="#000000"
     fill="#4b4b4b"
     stroke-width=".99979782"
     id="path26" />
  <path
     d="m7.999596 34 2e-4-9h-.999596l-2e-4 9z"
     color="#000000"
     fill="#4b4b4b"
     stroke-width=".99979782"
     id="path28" />
  <path
     d="m77.9998 7-2e-4 9h-.9996l2e-4-9z"
     color="#000000"
     fill="#4b4b4b"
     stroke-width=".99979782"
     id="path30" />
  <path
     d="m77.9996 34 2e-4-9h-.9996l-2e-4 9z"
     color="#000000"
     fill="#4b4b4b"
     stroke-width=".99979782"
     id="path32" />
  <path
     d="m31.999999 9-.000402 7h-.999596l.000402-7z"
     color="#000000"
     fill="#4b4b4b"
     stroke-width=".99979782"
     id="path34" />
  <path
     d="m31.999799 32-2e-6-7h-.999596l2e-6 7z"
     color="#000000"
     fill="#4b4b4b"
     stroke-width=".99979782"
     id="path36" />
  <path
     d="m53.999999 9-.000402 7h-.999596l.000402-7z"
     color="#000000"
     fill="#4b4b4b"
     stroke-width=".99979782"
     id="path38" />
  <path
     d="m53.999799 32-2e-6-7h-.999596l2e-6 7z"
     color="#000000"
     fill="#4b4b4b"
     stroke-width=".99979782"
     id="path40" />
  <path
     d="M 78.67232,19.327679 V 20.67232 H 6.3276795 v -1.344641 z"
     id="path42"
     style="color:#000000;fill:#000000;fill-opacity:1;stroke:#000000;stroke-width:1.65535903;stroke-linejoin:round;stroke-miterlimit:4;stroke-dasharray:none;stroke-opacity:1" />
</svg>
