<?xml version="1.0" encoding="UTF-8" standalone="no"?>
<svg
   xmlns:dc="http://purl.org/dc/elements/1.1/"
   xmlns:cc="http://creativecommons.org/ns#"
   xmlns:rdf="http://www.w3.org/1999/02/22-rdf-syntax-ns#"
   xmlns:svg="http://www.w3.org/2000/svg"
   xmlns="http://www.w3.org/2000/svg"
   id="svg84"
   version="1.1"
   height="95"
   width="40">
  <metadata
     id="metadata90">
    <rdf:RDF>
      <cc:Work
         rdf:about="">
        <dc:format>image/svg+xml</dc:format>
        <dc:type
           rdf:resource="http://purl.org/dc/dcmitype/StillImage" />
        <dc:title></dc:title>
      </cc:Work>
    </rdf:RDF>
  </metadata>
  <defs
     id="defs88" />
  <path
     style="color:#000000;fill:#050505;stroke-width:1.0531621"
     d="m 8,6.49985 h 8 V 7.6090008 H 8 Z"
     id="path4" />
  <path
     style="color:#000000;fill:#050505;stroke-width:1.0531621"
     d="m 6,46.445298 h 10 v 1.109151 H 6 Z"
     id="path8" />
  <path
     style="color:#000000;fill:#050505;stroke-width:1.0531621"
     d="m 8,56.43169 h 8 v 1.109151 H 8 Z"
     id="path10" />
  <path
     style="color:#000000;fill:#050505;stroke-width:1.0531621"
     d="m 8,66.418082 h 8 v 1.109151 H 8 Z"
     id="path12" />
  <path
     style="color:#000000;fill:#050505;stroke-width:1.0531621"
     d="m 8,76.404474 h 8 v 1.109151 H 8 Z"
     id="path14" />
  <path
     style="color:#000000;fill:#050505;stroke-width:0.99979782"
     d="M 34,46.500404 H 24 V 47.5 h 10 z"
     id="path22" />
  <path
     style="color:#000000;fill:#050505;stroke-width:1.0531621"
     d="m 8,86.390695 h 8 V 87.49985 H 8 Z"
     id="path34" />
  <g
     id="g44"
     style="fill:#636363;stroke-width:0.99979782"
     transform="translate(0,-10)">
    <path
       id="path40"
       d="M 6,57.000404 H 16 V 58 H 6 Z"
       style="color:#000000" />
    <path
       id="path42"
       d="M 34,57.000404 H 24 V 58 h 10 z"
       style="color:#000000" />
  </g>
  <path
     style="color:#000000;fill:#404040;stroke-width:1.0531621"
     d="m 8,6.99985 h 8 V 8.1090008 H 8 Z"
     id="path48" />
  <path
     style="color:#000000;fill:#404040;stroke-width:1.0531621"
     d="m 8,56.93169 h 8 v 1.109151 H 8 Z"
     id="path52" />
  <path
     style="color:#000000;fill:#404040;stroke-width:1.0531621"
     d="m 8,66.917998 h 8 v 1.109151 H 8 Z"
     id="path54" />
  <path
     style="color:#000000;fill:#404040;stroke-width:1.0531621"
     d="m 8,76.904474 h 8 v 1.109151 H 8 Z"
     id="path56" />
  <path
     style="color:#000000;fill:#404040;stroke-width:1.0531621"
     d="m 8,86.890695 h 8 V 87.99985 H 8 Z"
     id="path74" />
  <path
     style="color:#000000;fill:#000000;fill-opacity:1;stroke:#000000;stroke-width:1.55264783;stroke-linejoin:round;stroke-miterlimit:4;stroke-dasharray:none;stroke-opacity:1"
     id="path80"
     d="m 19.276325,6.2763199 h 1.447351 V 88.723672 h -1.447351 z" />
  <path
     style="color:#000000;fill:#050505;stroke-width:1.0531621"
     d="m 8,16.486123 h 8 v 1.109151 H 8 Z"
     id="path10-3" />
  <path
     style="color:#000000;fill:#050505;stroke-width:1.0531621"
     d="m 8,26.472515 h 8 v 1.109151 H 8 Z"
     id="path12-6" />
  <path
     style="color:#000000;fill:#050505;stroke-width:1.0531621"
     d="m 8,36.458907 h 8 v 1.10915 H 8 Z"
     id="path14-7" />
  <path
     style="color:#000000;fill:#404040;stroke-width:1.0531621"
     d="m 8,16.986123 h 8 v 1.109151 H 8 Z"
     id="path52-6" />
  <path
     style="color:#000000;fill:#404040;stroke-width:1.0531621"
     d="m 8,26.972431 h 8 v 1.10915 H 8 Z"
     id="path54-2" />
  <path
     style="color:#000000;fill:#404040;stroke-width:1.0531621"
     d="m 8,36.958907 h 8 v 1.10915 H 8 Z"
     id="path56-9" />
  <path
     style="color:#000000;fill:#050505;stroke-width:1.0531621"
     d="m 24,6.49985 h 8 v 1.1091508 h -8 z"
     id="path4-1" />
  <path
     style="color:#000000;fill:#050505;stroke-width:1.0531621"
     d="m 24,56.43169 h 8 v 1.109151 h -8 z"
     id="path10-8" />
  <path
     style="color:#000000;fill:#050505;stroke-width:1.0531621"
     d="m 24,66.418082 h 8 v 1.109151 h -8 z"
     id="path12-7" />
  <path
     style="color:#000000;fill:#050505;stroke-width:1.0531621"
     d="m 24,76.404474 h 8 v 1.109151 h -8 z"
     id="path14-9" />
  <path
     style="color:#000000;fill:#050505;stroke-width:1.0531621"
     d="m 24,86.390695 h 8 v 1.109155 h -8 z"
     id="path34-2" />
  <path
     style="color:#000000;fill:#404040;stroke-width:1.0531621"
     d="m 24,6.99985 h 8 v 1.1091508 h -8 z"
     id="path48-0" />
  <path
     style="color:#000000;fill:#404040;stroke-width:1.0531621"
     d="m 24,56.93169 h 8 v 1.109151 h -8 z"
     id="path52-2" />
  <path
     style="color:#000000;fill:#404040;stroke-width:1.0531621"
     d="m 24,66.917998 h 8 v 1.109151 h -8 z"
     id="path54-3" />
  <path
     style="color:#000000;fill:#404040;stroke-width:1.0531621"
     d="m 24,76.904474 h 8 v 1.109151 h -8 z"
     id="path56-7" />
  <path
     style="color:#000000;fill:#404040;stroke-width:1.0531621"
     d="m 24,86.890695 h 8 v 1.109155 h -8 z"
     id="path74-5" />
  <path
     style="color:#000000;fill:#050505;stroke-width:1.0531621"
     d="m 24,16.486123 h 8 v 1.109151 h -8 z"
     id="path10-3-9" />
  <path
     style="color:#000000;fill:#050505;stroke-width:1.0531621"
     d="m 24,26.472515 h 8 v 1.109151 h -8 z"
     id="path12-6-2" />
  <path
     style="color:#000000;fill:#050505;stroke-width:1.0531621"
     d="m 24,36.458907 h 8 v 1.10915 h -8 z"
     id="path14-7-2" />
  <path
     style="color:#000000;fill:#404040;stroke-width:1.0531621"
     d="m 24,16.986123 h 8 v 1.109151 h -8 z"
     id="path52-6-8" />
  <path
     style="color:#000000;fill:#404040;stroke-width:1.0531621"
     d="m 24,26.972431 h 8 v 1.10915 h -8 z"
     id="path54-2-9" />
  <path
     style="color:#000000;fill:#404040;stroke-width:1.0531621"
     d="m 24,36.958907 h 8 v 1.10915 h -8 z"
     id="path56-9-7" />
</svg>
