<?xml version="1.0" encoding="UTF-8" standalone="no"?>
<svg
   xmlns:dc="http://purl.org/dc/elements/1.1/"
   xmlns:cc="http://creativecommons.org/ns#"
   xmlns:rdf="http://www.w3.org/1999/02/22-rdf-syntax-ns#"
   xmlns:svg="http://www.w3.org/2000/svg"
   xmlns="http://www.w3.org/2000/svg"
   width="30"
   height="65"
   version="1.1"
   id="svg70">
  <metadata
     id="metadata76">
    <rdf:RDF>
      <cc:Work
         rdf:about="">
        <dc:format>image/svg+xml</dc:format>
        <dc:type
           rdf:resource="http://purl.org/dc/dcmitype/StillImage" />
        <dc:title></dc:title>
      </cc:Work>
    </rdf:RDF>
  </metadata>
  <defs
     id="defs74" />
  <path
     d="m 6,4.500412 h 6 V 5.500008 H 6 Z"
     id="path4"
     style="color:#000000;fill:#050505;stroke-width:0.99979782" />
  <path
     d="m 6,13.500404 h 6 V 14.5 H 6 Z"
     id="path6"
     style="color:#000000;fill:#050505;stroke-width:0.99979782" />
  <path
     d="m 4,31.500404 h 8 V 32.5 H 4 Z"
     id="path8"
     style="color:#000000;fill:#050505;stroke-width:0.99979782" />
  <path
     d="m 6,22.500404 h 6 V 23.5 H 6 Z"
     id="path10"
     style="color:#000000;fill:#050505;stroke-width:0.99979782" />
  <path
     d="m 6,40.500352 h 6 v 0.999596 H 6 Z"
     id="path12"
     style="color:#000000;fill:#050505;stroke-width:0.99979782" />
  <path
     d="m 6,58.500254 h 6 V 59.49985 H 6 Z"
     id="path14"
     style="color:#000000;fill:#050505;stroke-width:0.99979782" />
  <path
     d="m 6,49.500303 h 6 v 0.999596 H 6 Z"
     id="path16"
     style="color:#000000;fill:#050505;stroke-width:0.99979782" />
  <path
     d="m 24,4.500412 h -6 v 0.999596 h 6 z"
     id="path18"
     style="color:#000000;fill:#050505;stroke-width:0.99979782" />
  <path
     d="M 24,13.500404 H 18 V 14.5 h 6 z"
     id="path20"
     style="color:#000000;fill:#050505;stroke-width:0.99979782" />
  <path
     d="M 26,31.500404 H 18 V 32.5 h 8 z"
     id="path22"
     style="color:#000000;fill:#050505;stroke-width:0.99979782" />
  <path
     d="M 24,22.500404 H 18 V 23.5 h 6 z"
     id="path24"
     style="color:#000000;fill:#050505;stroke-width:0.99979782" />
  <path
     d="m 24,40.500352 h -6 v 0.999596 h 6 z"
     id="path26"
     style="color:#000000;fill:#050505;stroke-width:0.99979782" />
  <path
     d="m 24,58.500254 h -6 v 0.999596 h 6 z"
     id="path28"
     style="color:#000000;fill:#050505;stroke-width:0.99979782" />
  <path
     d="m 24,49.500303 h -6 v 0.999596 h 6 z"
     id="path30"
     style="color:#000000;fill:#050505;stroke-width:0.99979782" />
  <g
     transform="translate(2)"
     fill="#636363"
     stroke-width=".99979782"
     id="g42">
    <path
       d="m2 32.000404h8v.999596h-8z"
       color="#000000"
       id="path38" />
    <path
       d="m24 32.000404h-8v.999596h8z"
       color="#000000"
       id="path40" />
  </g>
  <g
     transform="translate(2)"
     fill="#404040"
     stroke-width=".99979782"
     id="g68">
    <path
       d="m4 5.000412h6v.999596h-6z"
       color="#000000"
       id="path44" />
    <path
       d="m4 14.000404h6v.999596h-6z"
       color="#000000"
       id="path46" />
    <path
       d="m4 23.000404h6v.999596h-6z"
       color="#000000"
       id="path48" />
    <path
       d="m4 41.000352h6v.999596h-6z"
       color="#000000"
       id="path50" />
    <path
       d="m4 59.000254h6v.999596h-6z"
       color="#000000"
       id="path52" />
    <path
       d="m4 50.000303h6v.999596h-6z"
       color="#000000"
       id="path54" />
    <path
       d="m22 5.000412h-6v.999596h6z"
       color="#000000"
       id="path56" />
    <path
       d="m22 14.000404h-6v.999596h6z"
       color="#000000"
       id="path58" />
    <path
       d="m22 23.000404h-6v.999596h6z"
       color="#000000"
       id="path60" />
    <path
       d="m22 41.000352h-6v.999596h6z"
       color="#000000"
       id="path62" />
    <path
       d="m22 59.000254h-6v.999596h6z"
       color="#000000"
       id="path64" />
    <path
       d="m22 50.000303h-6v.999596h6z"
       color="#000000"
       id="path66" />
  </g>
  <path
     d="m 14.183453,4.183452 h 1.633095 v 56.633095 h -1.633095 z"
     id="path80"
     style="color:#000000;fill:#000000;fill-opacity:1;stroke:#000000;stroke-width:1.36690497;stroke-linejoin:round;stroke-miterlimit:4;stroke-dasharray:none;stroke-opacity:1" />
</svg>
