<?xml version="1.0" encoding="UTF-8" standalone="no"?>
<svg
   xmlns:dc="http://purl.org/dc/elements/1.1/"
   xmlns:cc="http://creativecommons.org/ns#"
   xmlns:rdf="http://www.w3.org/1999/02/22-rdf-syntax-ns#"
   xmlns:svg="http://www.w3.org/2000/svg"
   xmlns="http://www.w3.org/2000/svg"
   id="svg84"
   version="1.1"
   height="113"
   width="40">
  <metadata
     id="metadata90">
    <rdf:RDF>
      <cc:Work
         rdf:about="">
        <dc:format>image/svg+xml</dc:format>
        <dc:type
           rdf:resource="http://purl.org/dc/dcmitype/StillImage" />
        <dc:title></dc:title>
      </cc:Work>
    </rdf:RDF>
  </metadata>
  <defs
     id="defs88" />
  <g
     id="g38"
     style="fill:#050505;stroke-width:0.999798">
    <path
       id="path2"
       d="m 8,20.500564 h 8 V 21.50016 H 8 Z"
       style="color:#000000" />
    <path
       id="path4"
       d="m 8,32.500511 h 8 v 0.999596 H 8 Z"
       style="color:#000000" />
    <path
       id="path6"
       d="m 8,44.500457 h 8 v 0.999596 H 8 Z"
       style="color:#000000" />
    <path
       id="path8"
       d="m 6,56.500202 10,2.02e-4 V 57.5 L 6,57.499798 Z"
       style="color:#000000" />
    <path
       id="path10"
       d="m 8,68.500361 h 8 v 0.999596 H 8 Z"
       style="color:#000000" />
    <path
       id="path12"
       d="m 8,80.500308 h 8 v 0.999596 H 8 Z"
       style="color:#000000" />
    <path
       id="path14"
       d="m 8,92.500254 h 8 V 93.49985 H 8 Z"
       style="color:#000000" />
    <path
       id="path16"
       d="m 32,20.500564 h -8 v 0.999596 h 8 z"
       style="color:#000000" />
    <path
       id="path18"
       d="m 32,32.500511 h -8 v 0.999596 h 8 z"
       style="color:#000000" />
    <path
       id="path20"
       d="m 32,44.500457 h -8 v 0.999596 h 8 z"
       style="color:#000000" />
    <path
       id="path22"
       d="M 34,56.500404 H 24 V 57.5 h 10 z"
       style="color:#000000" />
    <path
       id="path24"
       d="m 32,68.500361 h -8 v 0.999596 h 8 z"
       style="color:#000000" />
    <path
       id="path26"
       d="m 32,80.500308 h -8 v 0.999596 h 8 z"
       style="color:#000000" />
    <path
       id="path28"
       d="m 32,92.500254 h -8 v 0.999596 h 8 z"
       style="color:#000000" />
    <path
       id="path30"
       d="m 8,6.500564 h 8 V 7.50016 H 8 Z"
       style="color:#000000" />
    <path
       id="path32"
       d="M 32,6.500564 H 24 V 7.50016 h 8 z"
       style="color:#000000" />
    <path
       id="path34"
       d="m 8,104.50025 h 8 v 0.9996 H 8 Z"
       style="color:#000000" />
    <path
       id="path36"
       d="m 32,104.50025 h -8 v 0.9996 h 8 z"
       style="color:#000000" />
  </g>
  <g
     id="g44"
     style="fill:#636363;stroke-width:0.999798">
    <path
       id="path40"
       d="M 6,57.000404 H 16 V 58 H 6 Z"
       style="color:#000000" />
    <path
       id="path42"
       d="M 34,57.000404 H 24 V 58 h 10 z"
       style="color:#000000" />
  </g>
  <g
     id="g78"
     style="fill:#404040;stroke-width:0.999798">
    <path
       id="path46"
       d="m 8,21.000564 h 8 V 22.00016 H 8 Z"
       style="color:#000000" />
    <path
       id="path48"
       d="m 8,33.000511 h 8 v 0.999596 H 8 Z"
       style="color:#000000" />
    <path
       id="path50"
       d="m 8,45.000457 h 8 v 0.999596 H 8 Z"
       style="color:#000000" />
    <path
       id="path52"
       d="m 8,69.000361 h 8 v 0.999596 H 8 Z"
       style="color:#000000" />
    <path
       id="path54"
       d="m 8,81.000308 h 8 v 0.999596 H 8 Z"
       style="color:#000000" />
    <path
       id="path56"
       d="m 8,93.000254 h 8 V 93.99985 H 8 Z"
       style="color:#000000" />
    <path
       id="path58"
       d="m 32,21.000564 h -8 v 0.999596 h 8 z"
       style="color:#000000" />
    <path
       id="path60"
       d="m 32,33.000511 h -8 v 0.999596 h 8 z"
       style="color:#000000" />
    <path
       id="path62"
       d="m 32,45.000457 h -8 v 0.999596 h 8 z"
       style="color:#000000" />
    <path
       id="path64"
       d="m 32,69.000361 h -8 v 0.999596 h 8 z"
       style="color:#000000" />
    <path
       id="path66"
       d="m 32,81.000308 h -8 v 0.999596 h 8 z"
       style="color:#000000" />
    <path
       id="path68"
       d="m 32,93.000254 h -8 v 0.999596 h 8 z"
       style="color:#000000" />
    <path
       id="path70"
       d="m 8,7.000564 h 8 V 8.00016 H 8 Z"
       style="color:#000000" />
    <path
       id="path72"
       d="M 32,7.000564 H 24 V 8.00016 h 8 z"
       style="color:#000000" />
    <path
       id="path74"
       d="m 8,105.00025 h 8 v 0.9996 H 8 Z"
       style="color:#000000" />
    <path
       id="path76"
       d="m 32,105.00025 h -8 v 0.9996 h 8 z"
       style="color:#000000" />
  </g>
  <path
     style="color:#000000;fill:#000000;fill-opacity:1;stroke:#000000;stroke-width:1.65267;stroke-linejoin:round;stroke-miterlimit:4;stroke-dasharray:none;stroke-opacity:1"
     id="path80"
     d="m 19.326337,6.3263365 h 1.347327 V 106.67366 h -1.347327 z" />
</svg>
