<?xml version="1.0" encoding="UTF-8" standalone="no"?>
<svg
   xmlns:dc="http://purl.org/dc/elements/1.1/"
   xmlns:cc="http://creativecommons.org/ns#"
   xmlns:rdf="http://www.w3.org/1999/02/22-rdf-syntax-ns#"
   xmlns:svg="http://www.w3.org/2000/svg"
   xmlns="http://www.w3.org/2000/svg"
   width="40"
   height="95"
   version="1.1"
   id="svg84">
  <metadata
     id="metadata90">
    <rdf:RDF>
      <cc:Work
         rdf:about="">
        <dc:format>image/svg+xml</dc:format>
        <dc:type
           rdf:resource="http://purl.org/dc/dcmitype/StillImage" />
        <dc:title></dc:title>
      </cc:Work>
    </rdf:RDF>
  </metadata>
  <defs
     id="defs88" />
  <path
     id="path4"
     d="m 8,6.49985 h 8 v 1 H 8 Z"
     style="color:#000000;fill:#050505;stroke-width:0.999998" />
  <path
     id="path8"
     d="M 6,46.500114 16,46.5 v 0.999886 L 6,47.5 Z"
     style="color:#000000;fill:#050505;stroke-width:0.953408" />
  <path
     id="path22"
     d="M 34,46.500404 H 24 V 47.5 h 10 z"
     style="color:#000000;fill:#050505;stroke-width:0.999798" />
  <path
     id="path48"
     d="m 8,6.99985 h 8 v 1 H 8 Z"
     style="color:#000000;fill:#404040;stroke-width:0.999998" />
  <path
     d="m 19.276325,6.2763199 h 1.447351 V 88.723672 h -1.447351 z"
     id="path80"
     style="color:#000000;fill:#000000;fill-opacity:1;stroke:#000000;stroke-width:1.55265;stroke-linejoin:round;stroke-miterlimit:4;stroke-dasharray:none;stroke-opacity:1" />
  <path
     id="path4-1"
     d="m 24,6.49985 h 8 v 1 h -8 z"
     style="color:#000000;fill:#050505;stroke-width:0.999998" />
  <path
     id="path48-0"
     d="m 24,6.99985 h 8 v 1 h -8 z"
     style="color:#000000;fill:#404040;stroke-width:0.999998" />
  <path
     id="path40"
     d="m 6,47.000202 10,2.02e-4 V 48 L 6,47.999798 Z"
     style="color:#000000;fill:#636363;stroke-width:0.95327" />
  <path
     id="path42"
     d="M 34,47.000404 H 24 V 48 h 10 z"
     style="color:#000000;fill:#636363;stroke-width:0.999798" />
  <path
     style="color:#000000;fill:#050505;stroke-width:0.999998"
     d="m 8,16.5 h 8 v 1 H 8 Z"
     id="path4-3" />
  <path
     style="color:#000000;fill:#404040;stroke-width:0.999998"
     d="m 8,17 h 8 v 1 H 8 Z"
     id="path48-5" />
  <path
     style="color:#000000;fill:#050505;stroke-width:0.999998"
     d="m 24,16.5 h 8 v 1 h -8 z"
     id="path4-1-6" />
  <path
     style="color:#000000;fill:#404040;stroke-width:0.999998"
     d="m 24,17 h 8 v 1 h -8 z"
     id="path48-0-2" />
  <path
     style="color:#000000;fill:#050505;stroke-width:0.999998"
     d="m 8,26.5 h 8 v 1 H 8 Z"
     id="path4-9" />
  <path
     style="color:#000000;fill:#404040;stroke-width:0.999998"
     d="m 8,27 h 8 v 1 H 8 Z"
     id="path48-1" />
  <path
     style="color:#000000;fill:#050505;stroke-width:0.999998"
     d="m 24,26.5 h 8 v 1 h -8 z"
     id="path4-1-2" />
  <path
     style="color:#000000;fill:#404040;stroke-width:0.999998"
     d="m 24,27 h 8 v 1 h -8 z"
     id="path48-0-7" />
  <path
     style="color:#000000;fill:#050505;stroke-width:0.999998"
     d="m 8,36.5 h 8 v 1 H 8 Z"
     id="path4-0" />
  <path
     style="color:#000000;fill:#404040;stroke-width:0.999998"
     d="m 8,37 h 8 v 1 H 8 Z"
     id="path48-9" />
  <path
     style="color:#000000;fill:#050505;stroke-width:0.999998"
     d="m 24,36.5 h 8 v 1 h -8 z"
     id="path4-1-3" />
  <path
     style="color:#000000;fill:#404040;stroke-width:0.999998"
     d="m 24,37 h 8 v 1 h -8 z"
     id="path48-0-6" />
  <path
     style="color:#000000;fill:#050505;stroke-width:0.999998"
     d="m 8,56.49985 h 8 v 1 H 8 Z"
     id="path4-06" />
  <path
     style="color:#000000;fill:#404040;stroke-width:0.999998"
     d="m 8,56.99985 h 8 v 1 H 8 Z"
     id="path48-2" />
  <path
     style="color:#000000;fill:#050505;stroke-width:0.999998"
     d="m 24,56.49985 h 8 v 1 h -8 z"
     id="path4-1-61" />
  <path
     style="color:#000000;fill:#404040;stroke-width:0.999998"
     d="m 24,56.99985 h 8 v 1 h -8 z"
     id="path48-0-8" />
  <path
     id="path4-3-7"
     d="m 8,66.5 h 8 v 1 H 8 Z"
     style="color:#000000;fill:#050505;stroke-width:0.999998" />
  <path
     id="path48-5-9"
     d="m 8,67 h 8 v 1 H 8 Z"
     style="color:#000000;fill:#404040;stroke-width:0.999998" />
  <path
     id="path4-1-6-2"
     d="m 24,66.5 h 8 v 1 h -8 z"
     style="color:#000000;fill:#050505;stroke-width:0.999998" />
  <path
     id="path48-0-2-0"
     d="m 24,67 h 8 v 1 h -8 z"
     style="color:#000000;fill:#404040;stroke-width:0.999998" />
  <path
     id="path4-9-2"
     d="m 8,76.5 h 8 v 1 H 8 Z"
     style="color:#000000;fill:#050505;stroke-width:0.999998" />
  <path
     id="path48-1-3"
     d="m 8,77 h 8 v 1 H 8 Z"
     style="color:#000000;fill:#404040;stroke-width:0.999998" />
  <path
     id="path4-1-2-7"
     d="m 24,76.5 h 8 v 1 h -8 z"
     style="color:#000000;fill:#050505;stroke-width:0.999998" />
  <path
     id="path48-0-7-5"
     d="m 24,77 h 8 v 1 h -8 z"
     style="color:#000000;fill:#404040;stroke-width:0.999998" />
  <path
     id="path4-0-9"
     d="m 8,86.5 h 8 v 1 H 8 Z"
     style="color:#000000;fill:#050505;stroke-width:0.999998" />
  <path
     id="path48-9-2"
     d="m 8,87 h 8 v 1 H 8 Z"
     style="color:#000000;fill:#404040;stroke-width:0.999998" />
  <path
     id="path4-1-3-2"
     d="m 24,86.5 h 8 v 1 h -8 z"
     style="color:#000000;fill:#050505;stroke-width:0.999998" />
  <path
     id="path48-0-6-8"
     d="m 24,87 h 8 v 1 h -8 z"
     style="color:#000000;fill:#404040;stroke-width:0.999998" />
</svg>
