<svg width="85" height="40" version="1.1" xmlns="http://www.w3.org/2000/svg">
  <path d="m42.9998 24-2e-4 9h-0.999596l2e-4 -9z" color="#000000" fill="#050505" stroke-width=".999798"/>
  <path d="m42.9998 6-2e-4 9h-0.999596l2e-4 -9z" color="#000000" fill="#050505" stroke-width=".999798"/>
  <path d="m7.9998 24-2e-4 9h-0.999596l2e-4 -9z" color="#000000" fill="#050505" stroke-width=".999798"/>
  <path d="m7.9998 6-2e-4 9h-0.999596l2e-4 -9z" color="#000000" fill="#050505" stroke-width=".999798"/>
  <path d="m77.9998 24-2e-4 9h-0.9996l2e-4 -9z" color="#000000" fill="#050505" stroke-width=".999798"/>
  <path d="m77.9998 6-2e-4 9h-0.9996l2e-4 -9z" color="#000000" fill="#050505" stroke-width=".999798"/>
  <path d="m31.9998 24 2e-6 7h-0.999596l-2e-6 -7z" color="#000000" fill="#050505" stroke-width=".999798"/>
  <path d="m32 8-4.02e-4 7h-0.999596l4.02e-4 -7z" color="#000000" fill="#050505" stroke-width=".999798"/>
  <path d="m53.9998 24 2e-6 7h-0.999596l-2e-6 -7z" color="#000000" fill="#050505" stroke-width=".999798"/>
  <path d="m54 8-4.02e-4 7h-0.999596l4.02e-4 -7z" color="#000000" fill="#050505" stroke-width=".999798"/>
  <path d="m42.9999 7-2e-4 9h-0.999596l2e-4 -9z" color="#000000" fill="#636363" stroke-width=".999798"/>
  <path d="m42.9996 34 2e-4 -9h-0.999596l-2e-4 9z" color="#000000" fill="#636363" stroke-width=".999798"/>
  <path d="m7.9998 7-2e-4 9h-0.999596l2e-4 -9z" color="#000000" fill="#4b4b4b" stroke-width=".999798"/>
  <path d="m7.9996 34 2e-4 -9h-0.999596l-2e-4 9z" color="#000000" fill="#4b4b4b" stroke-width=".999798"/>
  <path d="m77.9998 7-2e-4 9h-0.9996l2e-4 -9z" color="#000000" fill="#4b4b4b" stroke-width=".999798"/>
  <path d="m77.9996 34 2e-4 -9h-0.9996l-2e-4 9z" color="#000000" fill="#4b4b4b" stroke-width=".999798"/>
  <path d="m32 9-4.02e-4 7h-0.999596l4.02e-4 -7z" color="#000000" fill="#4b4b4b" stroke-width=".999798"/>
  <path d="m31.9998 32-2e-6 -7h-0.999596l2e-6 7z" color="#000000" fill="#4b4b4b" stroke-width=".999798"/>
  <path d="m54 9-4.02e-4 7h-0.999596l4.02e-4 -7z" color="#000000" fill="#4b4b4b" stroke-width=".999798"/>
  <path d="m53.9998 32-2e-6 -7h-0.999596l2e-6 7z" color="#000000" fill="#4b4b4b" stroke-width=".999798"/>
  <path d="m78.6723 19.3277v1.34464h-72.3446v-1.34464z" color="#000000" stroke="#000" stroke-linejoin="round" stroke-width="1.65536"/>
</svg>
