<?xml version="1.0" encoding="UTF-8" standalone="no"?>
<svg
   xmlns:dc="http://purl.org/dc/elements/1.1/"
   xmlns:cc="http://creativecommons.org/ns#"
   xmlns:rdf="http://www.w3.org/1999/02/22-rdf-syntax-ns#"
   xmlns:svg="http://www.w3.org/2000/svg"
   xmlns="http://www.w3.org/2000/svg"
   id="svg84"
   version="1.1"
   height="79"
   width="40">
  <metadata
     id="metadata90">
    <rdf:RDF>
      <cc:Work
         rdf:about="">
        <dc:format>image/svg+xml</dc:format>
        <dc:type
           rdf:resource="http://purl.org/dc/dcmitype/StillImage" />
        <dc:title></dc:title>
      </cc:Work>
    </rdf:RDF>
  </metadata>
  <defs
     id="defs88" />
  <path
     style="color:#000000;fill:#050505;stroke-width:0.99979782"
     d="m 9,6.5004044 h 8 v 0.999596 H 9 Z"
     id="path4" />
  <path
     style="color:#000000;fill:#050505;stroke-width:0.99979782"
     d="m 6,38.500202 11,2.02e-4 V 39.5 L 6,39.499798 Z"
     id="path8" />
  <path
     style="color:#000000;fill:#050505;stroke-width:0.99979782"
     d="m 9,46.500404 h 8 V 47.5 H 9 Z"
     id="path10" />
  <path
     style="color:#000000;fill:#050505;stroke-width:0.99979782"
     d="m 9,54.500404 h 8 V 55.5 H 9 Z"
     id="path12" />
  <path
     style="color:#000000;fill:#050505;stroke-width:0.99979782"
     d="m 9,62.500404 h 8 V 63.5 H 9 Z"
     id="path14" />
  <path
     style="color:#000000;fill:#050505;stroke-width:0.99979782"
     d="M 35,38.500404 H 25 V 39.5 h 10 z"
     id="path22" />
  <path
     style="color:#000000;fill:#050505;stroke-width:0.99979782"
     d="M 33,46.500404 H 25 V 47.5 h 8 z"
     id="path24" />
  <path
     style="color:#000000;fill:#050505;stroke-width:0.99979782"
     d="M 33,54.500404 H 25 V 55.5 h 8 z"
     id="path26" />
  <path
     style="color:#000000;fill:#050505;stroke-width:0.99979782"
     d="M 33,62.500404 H 25 V 63.5 h 8 z"
     id="path28" />
  <path
     style="color:#000000;fill:#050505;stroke-width:0.99979782"
     d="m 9,70.500254 h 8 v 0.9996 H 9 Z"
     id="path34" />
  <path
     style="color:#000000;fill:#050505;stroke-width:0.99979782"
     d="m 33,70.500254 h -8 v 0.9996 h 8 z"
     id="path36" />
  <g
     id="g44"
     style="fill:#636363;stroke-width:0.99979782"
     transform="translate(1,-18.000072)">
    <path
       id="path40"
       d="m 5,57.000274 11,1.3e-4 V 58 L 5,57.99987 Z"
       style="color:#000000" />
    <path
       id="path42"
       d="M 34,57.000404 H 24 V 58 h 10 z"
       style="color:#000000" />
  </g>
  <path
     style="color:#000000;fill:#404040;stroke-width:0.99979782"
     d="m 9,7.0004044 h 8 v 0.999596 H 9 Z"
     id="path48" />
  <path
     style="color:#000000;fill:#404040;stroke-width:0.99979782"
     d="m 9,47.000312 h 8 v 0.999596 H 9 Z"
     id="path52" />
  <path
     style="color:#000000;fill:#404040;stroke-width:0.99979782"
     d="m 9,55.000294 h 8 V 55.99989 H 9 Z"
     id="path54" />
  <path
     style="color:#000000;fill:#404040;stroke-width:0.99979782"
     d="m 9,63.000276 h 8 v 0.999596 H 9 Z"
     id="path56" />
  <path
     style="color:#000000;fill:#404040;stroke-width:0.99979782"
     d="M 33,47.000404 H 25 V 48 h 8 z"
     id="path64" />
  <path
     style="color:#000000;fill:#404040;stroke-width:0.99979782"
     d="M 33,55.000404 H 25 V 56 h 8 z"
     id="path66" />
  <path
     style="color:#000000;fill:#404040;stroke-width:0.99979782"
     d="M 33,63.000404 H 25 V 64 h 8 z"
     id="path68" />
  <path
     style="color:#000000;fill:#404040;stroke-width:0.99979782"
     d="m 9,71.000254 h 8 v 0.9996 H 9 Z"
     id="path74" />
  <path
     style="color:#000000;fill:#404040;stroke-width:0.99979782"
     d="m 33,71.000254 h -8 v 0.9996 h 8 z"
     id="path76" />
  <path
     style="color:#000000;fill:#000000;fill-opacity:1;stroke:#000000;stroke-width:1.44564319;stroke-linejoin:round;stroke-miterlimit:4;stroke-dasharray:none;stroke-opacity:1"
     id="path80"
     d="m 20.222823,6.222822 h 1.554355 v 66.554356 h -1.554355 z" />
  <path
     style="color:#000000;fill:#050505;stroke-width:0.99979782"
     d="m 9,14.500404 h 8 V 15.5 H 9 Z"
     id="path10-3" />
  <path
     style="color:#000000;fill:#050505;stroke-width:0.99979782"
     d="m 9,22.50048 h 8 v 0.999596 H 9 Z"
     id="path12-6" />
  <path
     style="color:#000000;fill:#050505;stroke-width:0.99979782"
     d="m 9,30.500404 h 8 V 31.5 H 9 Z"
     id="path14-7" />
  <path
     style="color:#000000;fill:#404040;stroke-width:0.99979782"
     d="m 9,15.000385 h 8 v 0.999596 H 9 Z"
     id="path52-6" />
  <path
     style="color:#000000;fill:#404040;stroke-width:0.99979782"
     d="m 9,23.000366 h 8 v 0.999596 H 9 Z"
     id="path54-2" />
  <path
     style="color:#000000;fill:#404040;stroke-width:0.99979782"
     d="m 9,31.000351 h 8 v 0.999596 H 9 Z"
     id="path56-9" />
  <path
     style="color:#000000;fill:#050505;stroke-width:0.99979782"
     d="m 25,6.5004044 h 8 v 0.999596 h -8 z"
     id="path4-0" />
  <path
     style="color:#000000;fill:#404040;stroke-width:0.99979782"
     d="m 25,7.0004044 h 8 v 0.999596 h -8 z"
     id="path48-9" />
  <path
     style="color:#000000;fill:#050505;stroke-width:0.99979782"
     d="m 25,14.500404 h 8 V 15.5 h -8 z"
     id="path10-3-3" />
  <path
     style="color:#000000;fill:#050505;stroke-width:0.99979782"
     d="m 25,22.50048 h 8 v 0.999596 h -8 z"
     id="path12-6-6" />
  <path
     style="color:#000000;fill:#050505;stroke-width:0.99979782"
     d="m 25,30.500404 h 8 V 31.5 h -8 z"
     id="path14-7-0" />
  <path
     style="color:#000000;fill:#404040;stroke-width:0.99979782"
     d="m 25,15.000385 h 8 v 0.999596 h -8 z"
     id="path52-6-6" />
  <path
     style="color:#000000;fill:#404040;stroke-width:0.99979782"
     d="m 25,23.000366 h 8 v 0.999596 h -8 z"
     id="path54-2-2" />
  <path
     style="color:#000000;fill:#404040;stroke-width:0.99979782"
     d="m 25,31.000351 h 8 v 0.999596 h -8 z"
     id="path56-9-6" />
</svg>
