<?xml version="1.0" encoding="UTF-8" standalone="no"?>
<svg
   xmlns:dc="http://purl.org/dc/elements/1.1/"
   xmlns:cc="http://creativecommons.org/ns#"
   xmlns:rdf="http://www.w3.org/1999/02/22-rdf-syntax-ns#"
   xmlns:svg="http://www.w3.org/2000/svg"
   xmlns="http://www.w3.org/2000/svg"
   width="40"
   height="95"
   version="1.1"
   id="svg84">
  <metadata
     id="metadata90">
    <rdf:RDF>
      <cc:Work
         rdf:about="">
        <dc:format>image/svg+xml</dc:format>
        <dc:type
           rdf:resource="http://purl.org/dc/dcmitype/StillImage" />
        <dc:title></dc:title>
      </cc:Work>
    </rdf:RDF>
  </metadata>
  <defs
     id="defs88" />
  <path
     id="path4"
     d="m 9,6.49985 h 8 V 7.6090008 H 9 Z"
     style="color:#000000;fill:#050505;stroke-width:1.0531621" />
  <path
     id="path8"
     d="m 6,46.445425 11,-1.27e-4 v 1.109151 l -11,1.26e-4 z"
     style="color:#000000;fill:#050505;stroke-width:1.0531621" />
  <path
     id="path10"
     d="m 9,56.43169 h 8 v 1.109151 H 9 Z"
     style="color:#000000;fill:#050505;stroke-width:1.0531621" />
  <path
     id="path12"
     d="m 9,66.418082 h 8 v 1.109151 H 9 Z"
     style="color:#000000;fill:#050505;stroke-width:1.0531621" />
  <path
     id="path14"
     d="m 9,76.404474 h 8 v 1.109151 H 9 Z"
     style="color:#000000;fill:#050505;stroke-width:1.0531621" />
  <path
     id="path22"
     d="M 35,46.500404 H 25 V 47.5 h 10 z"
     style="color:#000000;fill:#050505;stroke-width:0.99979782" />
  <path
     id="path34"
     d="m 9,86.390695 h 8 V 87.49985 H 9 Z"
     style="color:#000000;fill:#050505;stroke-width:1.0531621" />
  <g
     transform="translate(1,-10)"
     style="fill:#636363;stroke-width:0.99979782"
     id="g44">
    <path
       style="color:#000000"
       d="m 5,57.000202 11,2.02e-4 V 58 L 5,57.999798 Z"
       id="path40" />
    <path
       style="color:#000000"
       d="M 34,57.000404 H 24 V 58 h 10 z"
       id="path42" />
  </g>
  <path
     id="path48"
     d="m 9,6.99985 h 8 V 8.1090008 H 9 Z"
     style="color:#000000;fill:#404040;stroke-width:1.0531621" />
  <path
     id="path52"
     d="m 9,56.93169 h 8 v 1.109151 H 9 Z"
     style="color:#000000;fill:#404040;stroke-width:1.0531621" />
  <path
     id="path54"
     d="m 9,66.917998 h 8 v 1.109151 H 9 Z"
     style="color:#000000;fill:#404040;stroke-width:1.0531621" />
  <path
     id="path56"
     d="m 9,76.904474 h 8 v 1.109151 H 9 Z"
     style="color:#000000;fill:#404040;stroke-width:1.0531621" />
  <path
     id="path74"
     d="m 9,86.890695 h 8 V 87.99985 H 9 Z"
     style="color:#000000;fill:#404040;stroke-width:1.0531621" />
  <path
     d="m 20.276325,6.2763199 h 1.447351 V 88.723672 h -1.447351 z"
     id="path80"
     style="color:#000000;fill:#000000;fill-opacity:1;stroke:#000000;stroke-width:1.55264783;stroke-linejoin:round;stroke-miterlimit:4;stroke-dasharray:none;stroke-opacity:1" />
  <path
     id="path10-3"
     d="m 9,16.486123 h 8 v 1.109151 H 9 Z"
     style="color:#000000;fill:#050505;stroke-width:1.0531621" />
  <path
     id="path12-6"
     d="m 9,26.472515 h 8 v 1.109151 H 9 Z"
     style="color:#000000;fill:#050505;stroke-width:1.0531621" />
  <path
     id="path14-7"
     d="m 9,36.458907 h 8 v 1.10915 H 9 Z"
     style="color:#000000;fill:#050505;stroke-width:1.0531621" />
  <path
     id="path52-6"
     d="m 9,16.986123 h 8 v 1.109151 H 9 Z"
     style="color:#000000;fill:#404040;stroke-width:1.0531621" />
  <path
     id="path54-2"
     d="m 9,26.972431 h 8 v 1.10915 H 9 Z"
     style="color:#000000;fill:#404040;stroke-width:1.0531621" />
  <path
     id="path56-9"
     d="m 9,36.958907 h 8 v 1.10915 H 9 Z"
     style="color:#000000;fill:#404040;stroke-width:1.0531621" />
  <path
     id="path4-1"
     d="m 25,6.49985 h 8 v 1.1091508 h -8 z"
     style="color:#000000;fill:#050505;stroke-width:1.0531621" />
  <path
     id="path10-8"
     d="m 25,56.43169 h 8 v 1.109151 h -8 z"
     style="color:#000000;fill:#050505;stroke-width:1.0531621" />
  <path
     id="path12-7"
     d="m 25,66.418082 h 8 v 1.109151 h -8 z"
     style="color:#000000;fill:#050505;stroke-width:1.0531621" />
  <path
     id="path14-9"
     d="m 25,76.404474 h 8 v 1.109151 h -8 z"
     style="color:#000000;fill:#050505;stroke-width:1.0531621" />
  <path
     id="path34-2"
     d="m 25,86.390695 h 8 v 1.109155 h -8 z"
     style="color:#000000;fill:#050505;stroke-width:1.0531621" />
  <path
     id="path48-0"
     d="m 25,6.99985 h 8 v 1.1091508 h -8 z"
     style="color:#000000;fill:#404040;stroke-width:1.0531621" />
  <path
     id="path52-2"
     d="m 25,56.93169 h 8 v 1.109151 h -8 z"
     style="color:#000000;fill:#404040;stroke-width:1.0531621" />
  <path
     id="path54-3"
     d="m 25,66.917998 h 8 v 1.109151 h -8 z"
     style="color:#000000;fill:#404040;stroke-width:1.0531621" />
  <path
     id="path56-7"
     d="m 25,76.904474 h 8 v 1.109151 h -8 z"
     style="color:#000000;fill:#404040;stroke-width:1.0531621" />
  <path
     id="path74-5"
     d="m 25,86.890695 h 8 v 1.109155 h -8 z"
     style="color:#000000;fill:#404040;stroke-width:1.0531621" />
  <path
     id="path10-3-9"
     d="m 25,16.486123 h 8 v 1.109151 h -8 z"
     style="color:#000000;fill:#050505;stroke-width:1.0531621" />
  <path
     id="path12-6-2"
     d="m 25,26.472515 h 8 v 1.109151 h -8 z"
     style="color:#000000;fill:#050505;stroke-width:1.0531621" />
  <path
     id="path14-7-2"
     d="m 25,36.458907 h 8 v 1.10915 h -8 z"
     style="color:#000000;fill:#050505;stroke-width:1.0531621" />
  <path
     id="path52-6-8"
     d="m 25,16.986123 h 8 v 1.109151 h -8 z"
     style="color:#000000;fill:#404040;stroke-width:1.0531621" />
  <path
     id="path54-2-9"
     d="m 25,26.972431 h 8 v 1.10915 h -8 z"
     style="color:#000000;fill:#404040;stroke-width:1.0531621" />
  <path
     id="path56-9-7"
     d="m 25,36.958907 h 8 v 1.10915 h -8 z"
     style="color:#000000;fill:#404040;stroke-width:1.0531621" />
</svg>
