<?xml version="1.0" encoding="UTF-8" standalone="no"?>
<svg
   xmlns:dc="http://purl.org/dc/elements/1.1/"
   xmlns:cc="http://creativecommons.org/ns#"
   xmlns:rdf="http://www.w3.org/1999/02/22-rdf-syntax-ns#"
   xmlns:svg="http://www.w3.org/2000/svg"
   xmlns="http://www.w3.org/2000/svg"
   id="svg84"
   version="1.1"
   height="95"
   width="40">
  <metadata
     id="metadata90">
    <rdf:RDF>
      <cc:Work
         rdf:about="">
        <dc:format>image/svg+xml</dc:format>
        <dc:type
           rdf:resource="http://purl.org/dc/dcmitype/StillImage" />
        <dc:title></dc:title>
      </cc:Work>
    </rdf:RDF>
  </metadata>
  <defs
     id="defs88" />
  <path
     style="color:#000000;fill:#050505;stroke-width:0.999998"
     d="m 8,6.49985 h 8 v 1 H 8 Z"
     id="path4" />
  <path
     style="color:#000000;fill:#050505;stroke-width:0.999941"
     d="M 5,46.500114 16,46.5 v 0.999886 L 5,47.5 Z"
     id="path8" />
  <path
     style="color:#000000;fill:#050505;stroke-width:1.0486"
     d="M 35,46.500404 H 24 V 47.5 h 11 z"
     id="path22" />
  <path
     style="color:#000000;fill:#050505;stroke-width:0.999996"
     d="m 8,86.5 h 8 v 1 H 8 Z"
     id="path34" />
  <g
     id="g44"
     style="fill:#636363;stroke-width:0.999798"
     transform="translate(0,-10)">
    <path
       id="path40"
       d="m 5,57.000202 11,2.02e-4 V 58 L 5,57.999798 Z"
       style="color:#000000" />
    <path
       id="path42"
       d="M 35,57.000404 H 24 V 58 h 11 z"
       style="color:#000000;stroke-width:1.0486" />
  </g>
  <path
     style="color:#000000;fill:#404040;stroke-width:0.999998"
     d="m 8,7 h 8 V 8 H 8 Z"
     id="path48" />
  <path
     style="color:#000000;fill:#404040;stroke-width:0.999996"
     d="m 8,87 h 8 v 1 H 8 Z"
     id="path74" />
  <path
     style="color:#000000;fill:#000000;fill-opacity:1;stroke:#000000;stroke-width:1.55265;stroke-linejoin:round;stroke-miterlimit:4;stroke-dasharray:none;stroke-opacity:1"
     id="path80"
     d="m 19.276325,6.2763199 h 1.447351 V 88.723672 h -1.447351 z" />
  <path
     style="color:#000000;fill:#050505;stroke-width:0.999998"
     d="m 24,6.49985 h 5 v 1 h -5 z"
     id="path4-1" />
  <path
     style="color:#000000;fill:#050505;stroke-width:0.999998"
     d="m 24,56.5 h 8 v 1 h -8 z"
     id="path10-8" />
  <path
     style="color:#000000;fill:#050505;stroke-width:0.999998"
     d="m 24,66.5 h 8 v 1 h -8 z"
     id="path12-7" />
  <path
     style="color:#000000;fill:#050505;stroke-width:0.999998"
     d="m 24,76.5 h 8 v 1 h -8 z"
     id="path14-9" />
  <path
     style="color:#000000;fill:#050505;stroke-width:0.999996"
     d="m 24,86.5 h 5 v 1 h -5 z"
     id="path34-2" />
  <path
     style="color:#000000;fill:#404040;stroke-width:0.999998"
     d="m 24,6.99985 h 5 v 1 h -5 z"
     id="path48-0" />
  <path
     style="color:#000000;fill:#404040;stroke-width:0.999998"
     d="m 24,57 h 8 v 1 h -8 z"
     id="path52-2" />
  <path
     style="color:#000000;fill:#404040;stroke-width:0.999998"
     d="m 24,67 h 8 v 1 h -8 z"
     id="path54-3" />
  <path
     style="color:#000000;fill:#404040;stroke-width:0.999998"
     d="m 24,77 h 8 v 1 h -8 z"
     id="path56-7" />
  <path
     style="color:#000000;fill:#404040;stroke-width:0.999996"
     d="m 24,87 h 5 v 1 h -5 z"
     id="path74-5" />
  <path
     style="color:#000000;fill:#050505;stroke-width:0.999998"
     d="m 24,16.5 h 8 v 1 h -8 z"
     id="path10-3-9" />
  <path
     style="color:#000000;fill:#050505;stroke-width:0.999998"
     d="m 24,26.5 h 8 v 1 h -8 z"
     id="path12-6-2" />
  <path
     style="color:#000000;fill:#050505;stroke-width:0.999998"
     d="m 24,36.5 h 8 v 1 h -8 z"
     id="path14-7-2" />
  <path
     style="color:#000000;fill:#404040;stroke-width:0.999998"
     d="m 24,17 h 8 v 1 h -8 z"
     id="path52-6-8" />
  <path
     style="color:#000000;fill:#404040;stroke-width:0.999998"
     d="m 24,27 h 8 v 1 h -8 z"
     id="path54-2-9" />
  <path
     style="color:#000000;fill:#404040;stroke-width:0.999998"
     d="m 24,37 h 8 v 1 h -8 z"
     id="path56-9-7" />
  <path
     id="path10-8-3"
     d="m 8,56.5 h 8 v 1 H 8 Z"
     style="color:#000000;fill:#050505;stroke-width:0.999998" />
  <path
     id="path12-7-6"
     d="m 8,66.5 h 8 v 1 H 8 Z"
     style="color:#000000;fill:#050505;stroke-width:0.999998" />
  <path
     id="path14-9-7"
     d="m 8,76.5 h 8 v 1 H 8 Z"
     style="color:#000000;fill:#050505;stroke-width:0.999998" />
  <path
     id="path52-2-5"
     d="m 8,57 h 8 v 1 H 8 Z"
     style="color:#000000;fill:#404040;stroke-width:0.999998" />
  <path
     id="path54-3-3"
     d="m 8,67 h 8 v 1 H 8 Z"
     style="color:#000000;fill:#404040;stroke-width:0.999998" />
  <path
     id="path56-7-5"
     d="m 8,77 h 8 v 1 H 8 Z"
     style="color:#000000;fill:#404040;stroke-width:0.999998" />
  <path
     id="path10-3-9-6"
     d="m 8,16.5 h 8 v 1 H 8 Z"
     style="color:#000000;fill:#050505;stroke-width:0.999998" />
  <path
     id="path12-6-2-2"
     d="m 8,26.5 h 8 v 1 H 8 Z"
     style="color:#000000;fill:#050505;stroke-width:0.999998" />
  <path
     id="path14-7-2-9"
     d="m 8,36.5 h 8 v 1 H 8 Z"
     style="color:#000000;fill:#050505;stroke-width:0.999998" />
  <path
     id="path52-6-8-1"
     d="m 8,17 h 8 v 1 H 8 Z"
     style="color:#000000;fill:#404040;stroke-width:0.999998" />
  <path
     id="path54-2-9-2"
     d="m 8,27 h 8 v 1 H 8 Z"
     style="color:#000000;fill:#404040;stroke-width:0.999998" />
  <path
     id="path56-9-7-7"
     d="m 8,37 h 8 v 1 H 8 Z"
     style="color:#000000;fill:#404040;stroke-width:0.999998" />
</svg>
