<?xml version="1.0" encoding="UTF-8" standalone="no"?>
<svg
   xmlns:dc="http://purl.org/dc/elements/1.1/"
   xmlns:cc="http://creativecommons.org/ns#"
   xmlns:rdf="http://www.w3.org/1999/02/22-rdf-syntax-ns#"
   xmlns:svg="http://www.w3.org/2000/svg"
   xmlns="http://www.w3.org/2000/svg"
   id="svg46"
   version="1.1"
   height="40"
   width="115">
  <metadata
     id="metadata52">
    <rdf:RDF>
      <cc:Work
         rdf:about="">
        <dc:format>image/svg+xml</dc:format>
        <dc:type
           rdf:resource="http://purl.org/dc/dcmitype/StillImage" />
        <dc:title></dc:title>
      </cc:Work>
    </rdf:RDF>
  </metadata>
  <defs
     id="defs50" />
  <path
     style="color:#000000;fill:#050505;stroke-width:0.99979782"
     id="path2"
     d="m 57.999797,23 -2e-4,9 h -0.999596 l 2e-4,-9 z" />
  <path
     style="color:#000000;fill:#050505;stroke-width:0.99979782"
     id="path4"
     d="m 57.999797,5 -2e-4,9 h -0.999596 l 2e-4,-9 z" />
  <path
     style="color:#000000;fill:#050505;stroke-width:0.99979782"
     id="path6"
     d="m 7.999796,23 -2e-4,9 H 7 l 2e-4,-9 z" />
  <path
     style="color:#000000;fill:#050505;stroke-width:0.99979782"
     id="path8"
     d="m 7.999796,5 -2e-4,9 H 7 l 2e-4,-9 z" />
  <path
     style="color:#000000;fill:#050505;stroke-width:0.99979782"
     id="path10"
     d="m 107.9998,23 -2e-4,9 H 107 l 2e-4,-9 z" />
  <path
     style="color:#000000;fill:#050505;stroke-width:0.99979782"
     id="path12"
     d="m 107.9998,5 -2e-4,9 H 107 l 2e-4,-9 z" />
  <path
     style="color:#000000;fill:#050505;stroke-width:0.99979782"
     id="path14"
     d="m 44.999797,23 2e-6,7 h -0.999596 l -2e-6,-7 z" />
  <path
     style="color:#000000;fill:#050505;stroke-width:0.99979782"
     id="path16"
     d="m 44.999999,7 -4.02e-4,7 h -0.999596 l 4.02e-4,-7 z" />
  <path
     style="color:#000000;fill:#050505;stroke-width:0.99979782"
     id="path18"
     d="m 70.999797,23 2e-6,7 h -0.999596 l -2e-6,-7 z" />
  <path
     style="color:#000000;fill:#050505;stroke-width:0.99979782"
     id="path20"
     d="m 70.999999,7 -4.02e-4,7 h -0.999596 l 4.02e-4,-7 z" />
  <path
     style="color:#000000;fill:#636363;stroke-width:0.99979782"
     id="path22"
     d="m 57.999898,6 -2e-4,9 h -0.999596 l 2e-4,-9 z" />
  <path
     style="color:#000000;fill:#636363;stroke-width:0.99979782"
     id="path24"
     d="m 57.999597,33 2e-4,-9 h -0.999596 l -2e-4,9 z" />
  <path
     style="color:#000000;fill:#4b4b4b;stroke-width:0.99979782"
     id="path26"
     d="m 7.999796,6 -2e-4,9 H 7 l 2e-4,-9 z" />
  <path
     style="color:#000000;fill:#4b4b4b;stroke-width:0.99979782"
     id="path28"
     d="m 7.999596,33 2e-4,-9 H 7.0002 L 7,33 Z" />
  <path
     style="color:#000000;fill:#4b4b4b;stroke-width:0.99979782"
     id="path30"
     d="m 107.9998,6 -2e-4,9 H 107 l 2e-4,-9 z" />
  <path
     style="color:#000000;fill:#4b4b4b;stroke-width:0.99979782"
     id="path32"
     d="m 107.9996,33 2e-4,-9 h -0.9996 L 107,33 Z" />
  <path
     style="color:#000000;fill:#4b4b4b;stroke-width:0.99979782"
     id="path34"
     d="m 44.999999,8 -4.02e-4,7 h -0.999596 l 4.02e-4,-7 z" />
  <path
     style="color:#000000;fill:#4b4b4b;stroke-width:0.99979782"
     id="path36"
     d="m 44.999799,31 -2e-6,-7 h -0.999596 l 2e-6,7 z" />
  <path
     style="color:#000000;fill:#4b4b4b;stroke-width:0.99979782"
     id="path38"
     d="m 70.999999,8 -4.02e-4,7 h -0.999596 l 4.02e-4,-7 z" />
  <path
     style="color:#000000;fill:#4b4b4b;stroke-width:0.99979782"
     id="path40"
     d="m 70.999799,31 -2e-6,-7 h -0.999596 l 2e-6,7 z" />
  <path
     style="color:#000000;fill:#000000;fill-opacity:1;stroke:#000000;stroke-width:1.65253747;stroke-linejoin:round;stroke-miterlimit:4;stroke-dasharray:none;stroke-opacity:1"
     id="path42"
     d="m 108.67374,18.326268 v 1.347463 H 6.3262687 v -1.347463 z" />
</svg>
