<svg width="40" height="119" version="1.1" xmlns="http://www.w3.org/2000/svg">
  <path d="m6 19.5004h10v0.999596h-10z" color="#000000" fill="#050505" stroke-width=".999798"/>
  <path d="m6 32.5h10v0.999596h-10z" color="#000000" fill="#050505" stroke-width=".999798"/>
  <path d="m6 45.5004h10v0.999596h-10z" color="#000000" fill="#050505" stroke-width=".999798"/>
  <path d="m2 58.5002 14 2.02e-4v0.999596l-14-2.02e-4z" color="#000000" fill="#050505" stroke-width=".999798"/>
  <path d="m6 71.5004h10v0.999596h-10z" color="#000000" fill="#050505" stroke-width=".999798"/>
  <path d="m6 84.5004h10v0.999596h-10z" color="#000000" fill="#050505" stroke-width=".999798"/>
  <path d="m6 97.5004h10v0.999596h-10z" color="#000000" fill="#050505" stroke-width=".999798"/>
  <path d="m34 19.5004h-10v0.999596h10z" color="#000000" fill="#050505" stroke-width=".999798"/>
  <path d="m34 32.5h-10v0.999596h10z" color="#000000" fill="#050505" stroke-width=".999798"/>
  <path d="m34 45.5004h-10v0.999596h10z" color="#000000" fill="#050505" stroke-width=".999798"/>
  <path d="m36 58.5004h-12v0.999596h12z" color="#000000" fill="#050505" stroke-width=".999798"/>
  <path d="m34 71.5004h-10v0.999596h10z" color="#000000" fill="#050505" stroke-width=".999798"/>
  <path d="m34 84.5004h-10v0.999596h10z" color="#000000" fill="#050505" stroke-width=".999798"/>
  <path d="m34 97.5004h-10v0.999596h10z" color="#000000" fill="#050505" stroke-width=".999798"/>
  <path d="m6 6.5h10v0.999596h-10z" color="#000000" fill="#050505" stroke-width=".999798"/>
  <path d="m32 6.5h-8v0.999596h8z" color="#000000" fill="#050505" stroke-width=".999798"/>
  <path d="m6 110.5h10v0.9996h-10z" color="#000000" fill="#050505" stroke-width=".999798"/>
  <path d="m32 110.5h-8v0.9996h8z" color="#000000" fill="#050505" stroke-width=".999798"/>
  <path d="m2 59.0004h14v0.999596h-14z" color="#000000" fill="#636363" stroke-width=".999798"/>
  <path d="m36 59.0004h-12v0.999596h12z" color="#000000" fill="#636363" stroke-width=".999798"/>
  <path d="m6 20.0004h10v0.999596h-10z" color="#000000" fill="#404040" stroke-width=".999798"/>
  <path d="m6 33h10v0.999596h-10z" color="#000000" fill="#404040" stroke-width=".999798"/>
  <path d="m6 46.0004h10v0.999596h-10z" color="#000000" fill="#404040" stroke-width=".999798"/>
  <path d="m6 72.0004h10v0.999596h-10z" color="#000000" fill="#404040" stroke-width=".999798"/>
  <path d="m6 85.0004h10v0.999596h-10z" color="#000000" fill="#404040" stroke-width=".999798"/>
  <path d="m6 98.0004h10v0.999596h-10z" color="#000000" fill="#404040" stroke-width=".999798"/>
  <path d="m34 20.0004h-10v0.999596h10z" color="#000000" fill="#404040" stroke-width=".999798"/>
  <path d="m34 33h-10v0.999596h10z" color="#000000" fill="#404040" stroke-width=".999798"/>
  <path d="m34 46.0004h-10v0.999596h10z" color="#000000" fill="#404040" stroke-width=".999798"/>
  <path d="m34 72.0004h-10v0.999596h10z" color="#000000" fill="#404040" stroke-width=".999798"/>
  <path d="m34 85.0004h-10v0.999596h10z" color="#000000" fill="#404040" stroke-width=".999798"/>
  <path d="m34 98.0004h-10v0.999596h10z" color="#000000" fill="#404040" stroke-width=".999798"/>
  <path d="m6 7h10v0.999596h-10z" color="#000000" fill="#404040" stroke-width=".999798"/>
  <path d="m32 7h-8v0.999596h8z" color="#000000" fill="#404040" stroke-width=".999798"/>
  <path d="m6 111h10v0.9996h-10z" color="#000000" fill="#404040" stroke-width=".999798"/>
  <path d="m32 111h-8v0.9996h8z" color="#000000" fill="#404040" stroke-width=".999798"/>
  <path d="m19.3412 6.34116h1.31769v106.318h-1.31769z" color="#000000" stroke="#000" stroke-linejoin="round" stroke-width="1.68231"/>
</svg>
