<?xml version="1.0" encoding="UTF-8" standalone="no"?>
<svg
   xmlns:dc="http://purl.org/dc/elements/1.1/"
   xmlns:cc="http://creativecommons.org/ns#"
   xmlns:rdf="http://www.w3.org/1999/02/22-rdf-syntax-ns#"
   xmlns:svg="http://www.w3.org/2000/svg"
   xmlns="http://www.w3.org/2000/svg"
   width="40"
   height="113"
   version="1.1"
   id="svg84">
  <metadata
     id="metadata90">
    <rdf:RDF>
      <cc:Work
         rdf:about="">
        <dc:format>image/svg+xml</dc:format>
        <dc:type
           rdf:resource="http://purl.org/dc/dcmitype/StillImage" />
        <dc:title></dc:title>
      </cc:Work>
    </rdf:RDF>
  </metadata>
  <defs
     id="defs88" />
  <rect
     y="-55.063557"
     x="-202.53813"
     height="219.77542"
     width="166.62712"
     id="rect852"
     style="opacity:1;fill:#146674;fill-opacity:0.55555558;stroke:none;stroke-width:1.5;stroke-linecap:butt;stroke-linejoin:round;stroke-miterlimit:4;stroke-dasharray:none;stroke-opacity:1" />
  <g
     style="fill:#050505;stroke-width:0.99979782"
     transform="translate(1)"
     id="g38">
    <path
       style="color:#000000"
       d="m 8,20.500564 h 8 V 21.50016 H 8 Z"
       id="path2" />
    <path
       style="color:#000000"
       d="m 8,32.500511 h 8 v 0.999596 H 8 Z"
       id="path4" />
    <path
       style="color:#000000"
       d="m 8,44.500457 h 8 v 0.999596 H 8 Z"
       id="path6" />
    <path
       style="color:#000000"
       d="m 5,56.500202 11,2.02e-4 V 57.5 L 5,57.499798 Z"
       id="path8" />
    <path
       style="color:#000000"
       d="m 8,68.500361 h 8 v 0.999596 H 8 Z"
       id="path10" />
    <path
       style="color:#000000"
       d="m 8,80.500308 h 8 v 0.999596 H 8 Z"
       id="path12" />
    <path
       style="color:#000000"
       d="m 8,92.500254 h 8 V 93.49985 H 8 Z"
       id="path14" />
    <path
       style="color:#000000"
       d="m 32,20.500564 h -8 v 0.999596 h 8 z"
       id="path16" />
    <path
       style="color:#000000"
       d="m 32,32.500511 h -8 v 0.999596 h 8 z"
       id="path18" />
    <path
       style="color:#000000"
       d="m 32,44.500457 h -8 v 0.999596 h 8 z"
       id="path20" />
    <path
       style="color:#000000"
       d="M 34,56.500404 H 24 V 57.5 h 10 z"
       id="path22" />
    <path
       style="color:#000000"
       d="m 32,68.500361 h -8 v 0.999596 h 8 z"
       id="path24" />
    <path
       style="color:#000000"
       d="m 32,80.500308 h -8 v 0.999596 h 8 z"
       id="path26" />
    <path
       style="color:#000000"
       d="m 32,92.500254 h -8 v 0.999596 h 8 z"
       id="path28" />
    <path
       style="color:#000000"
       d="m 8,6.500564 h 8 V 7.50016 H 8 Z"
       id="path30" />
    <path
       style="color:#000000"
       d="M 32,6.500564 H 24 V 7.50016 h 8 z"
       id="path32" />
    <path
       style="color:#000000"
       d="m 8,104.50025 h 8 v 0.9996 H 8 Z"
       id="path34" />
    <path
       style="color:#000000"
       d="m 32,104.50025 h -8 v 0.9996 h 8 z"
       id="path36" />
  </g>
  <g
     style="fill:#636363;stroke-width:0.99979782"
     transform="translate(1)"
     id="g44">
    <path
       style="color:#000000"
       d="M 5,57.000404 H 16 V 58 H 5 Z"
       id="path40" />
    <path
       style="color:#000000"
       d="M 34,57.000404 H 24 V 58 h 10 z"
       id="path42" />
  </g>
  <g
     style="fill:#404040;stroke-width:0.99979782"
     transform="translate(1)"
     id="g78">
    <path
       style="color:#000000"
       d="m 8,21.000564 h 8 V 22.00016 H 8 Z"
       id="path46" />
    <path
       style="color:#000000"
       d="m 8,33.000511 h 8 v 0.999596 H 8 Z"
       id="path48" />
    <path
       style="color:#000000"
       d="m 8,45.000457 h 8 v 0.999596 H 8 Z"
       id="path50" />
    <path
       style="color:#000000"
       d="m 8,69.000361 h 8 v 0.999596 H 8 Z"
       id="path52" />
    <path
       style="color:#000000"
       d="m 8,81.000308 h 8 v 0.999596 H 8 Z"
       id="path54" />
    <path
       style="color:#000000"
       d="m 8,93.000254 h 8 V 93.99985 H 8 Z"
       id="path56" />
    <path
       style="color:#000000"
       d="m 32,21.000564 h -8 v 0.999596 h 8 z"
       id="path58" />
    <path
       style="color:#000000"
       d="m 32,33.000511 h -8 v 0.999596 h 8 z"
       id="path60" />
    <path
       style="color:#000000"
       d="m 32,45.000457 h -8 v 0.999596 h 8 z"
       id="path62" />
    <path
       style="color:#000000"
       d="m 32,69.000361 h -8 v 0.999596 h 8 z"
       id="path64" />
    <path
       style="color:#000000"
       d="m 32,81.000308 h -8 v 0.999596 h 8 z"
       id="path66" />
    <path
       style="color:#000000"
       d="m 32,93.000254 h -8 v 0.999596 h 8 z"
       id="path68" />
    <path
       style="color:#000000"
       d="m 8,7.000564 h 8 V 8.00016 H 8 Z"
       id="path70" />
    <path
       style="color:#000000"
       d="M 32,7.000564 H 24 V 8.00016 h 8 z"
       id="path72" />
    <path
       style="color:#000000"
       d="m 8,105.00025 h 8 v 0.9996 H 8 Z"
       id="path74" />
    <path
       style="color:#000000"
       d="m 32,105.00025 h -8 v 0.9996 h 8 z"
       id="path76" />
  </g>
  <path
     d="m 20.326337,6.3263365 h 1.347327 V 106.67366 h -1.347327 z"
     id="path80"
     style="color:#000000;fill:#000000;fill-opacity:1;stroke:#000000;stroke-width:1.65267289;stroke-linejoin:round;stroke-miterlimit:4;stroke-dasharray:none;stroke-opacity:1" />
</svg>
