<svg width="46" height="107" version="1.1" xmlns="http://www.w3.org/2000/svg">
	<path d="m21 8h4v91h-4z" color="#000000" stroke-width=".99999994"/>
	<g stroke-width=".99979782">
		<path d="m12 57.500602 7 .000202v.999596l-7-.000202z" color="#000000"/>
		<path d="m12 67.500754 7 .000202v.999596l-7-.000202z" color="#000000"/>
		<path d="m12 77.500503 7 .000202v.999596l-7-.000202z" color="#000000"/>
		<path d="m12 87.500252 7 .000202v.999596l-7-.000202z" color="#000000"/>
		<path d="m12 17.499751 7 .000202v.999596l-7-.000202z" color="#000000"/>
		<path d="m12 27.501357 7 .000202v.999596l-7-.000202z" color="#000000"/>
		<path d="m12 37.501105 7 .000202v.999596l-7-.000202z" color="#000000"/>
		<path d="m12 47.500853 7 .000202v.999596l-7-.000202z" color="#000000"/>
		<path d="m11 7.500202 8-5e-7v.999596l-8 5e-7z" color="#000000"/>
		<path d="m11 97.500203 8-1e-6v.999595l-8 1e-6z" color="#000000"/>
		<path d="m27 57.500804 7 .000203v.999596l-7-.000203z" color="#000000"/>
		<path d="m27 67.500956 7 .000203v.999596l-7-.000203z" color="#000000"/>
		<path d="m27 77.500705 7 .000203v.999596l-7-.000203z" color="#000000"/>
		<path d="m27 87.500454 7 .000202v.999596l-7-.000202z" color="#000000"/>
		<path d="m27 17.499953 7 .000202v.999596l-7-.000202z" color="#000000"/>
		<path d="m27 27.501559 7 .000203v.999596l-7-.000203z" color="#000000"/>
		<path d="m27 37.501307 7 .000203v.999596l-7-.000203z" color="#000000"/>
		<path d="m27 47.501055 7 .000203v.999596l-7-.000203z" color="#000000"/>
		<path d="m27 7.5002015 8 .0002025v.999596l-8-.0002025z" color="#000000"/>
		<path d="m27 97.500202 8 .000202v.999596l-8-.000203z" color="#000000"/>
	</g>
	<path d="m20 100h6v-93h-6zm1-.999999v-90.9999996h4v90.9999996z" fill="#505050" style="paint-order:fill markers stroke"/>
	<g fill="#505050" stroke-width=".99979782">
		<path d="m12 58.000602 7 .000202v.999596l-7-.000202z" color="#000000"/>
		<path d="m12 68.000754 7 .000202v.999596l-7-.000202z" color="#000000"/>
		<path d="m12 78.000503 7 .000202v.999596l-7-.000202z" color="#000000"/>
		<path d="m12 88.000252 7 .000202v.999596l-7-.000202z" color="#000000"/>
		<path d="m12 17.999751 7 .000202v.999596l-7-.000202z" color="#000000"/>
		<path d="m12 28.001357 7 .000202v.999596l-7-.000202z" color="#000000"/>
		<path d="m12 38.001105 7 .000202v.999596l-7-.000202z" color="#000000"/>
		<path d="m12 48.000853 7 .000202v.999596l-7-.000202z" color="#000000"/>
		<path d="m27 58.000804 7 .000203v.999596l-7-.000203z" color="#000000"/>
		<path d="m27 68.000956 7 .000203v.999596l-7-.000203z" color="#000000"/>
		<path d="m27 78.000705 7 .000203v.999596l-7-.000203z" color="#000000"/>
		<path d="m27 88.000454 7 .000202v.999596l-7-.000202z" color="#000000"/>
		<path d="m27 17.999953 7 .000202v.999596l-7-.000202z" color="#000000"/>
		<path d="m27 28.001559 7 .000203v.999596l-7-.000203z" color="#000000"/>
		<path d="m27 38.001307 7 .000203v.999596l-7-.000203z" color="#000000"/>
		<path d="m27 48.001055 7 .000203v.999596l-7-.000203z" color="#000000"/>
		<path d="m11 8.000202 8-5e-7v.999596l-8 5e-7z" color="#000000"/>
		<path d="m11 98.000203 8-1e-6v.999595l-8 1e-6z" color="#000000"/>
		<path d="m27 8.0002015 8 .0002025v.999596l-8-.0002025z" color="#000000"/>
		<path d="m27 98.000202 8 .000202v.999596l-8-.000203z" color="#000000"/>
	</g>
</svg>
