<?xml version="1.0" encoding="UTF-8" standalone="no"?>
<svg
   xmlns:dc="http://purl.org/dc/elements/1.1/"
   xmlns:cc="http://creativecommons.org/ns#"
   xmlns:rdf="http://www.w3.org/1999/02/22-rdf-syntax-ns#"
   xmlns:svg="http://www.w3.org/2000/svg"
   xmlns="http://www.w3.org/2000/svg"
   id="svg28485"
   width="38"
   height="16"
   version="1.1">
  <defs
     id="defs14" />
  <metadata
     id="metadata28490">
    <rdf:RDF>
      <cc:Work
         rdf:about="">
        <dc:format>image/svg+xml</dc:format>
        <dc:type
           rdf:resource="http://purl.org/dc/dcmitype/StillImage" />
        <dc:title></dc:title>
      </cc:Work>
    </rdf:RDF>
  </metadata>
  <path
     style="color:#000000;opacity:0.15"
     d="m 3.7942271,14.56235 c 0.45484,0.27725 0.98869,0.4375 1.5625,0.4375 H 33.512977 c 1.415374,3.5e-4 2.4995,-0.99965 2.830554,-2 0,1.662 -0.668554,3 -2.330554,3 H 6.3567271 c -1.0882,0 -2.0367,-0.57494 -2.5625,-1.4375 z"
     id="path2" />
  <path
     style="color:#000000;opacity:0.5"
     d="m 3.2942271,13.56235 c 0.45484,0.27725 0.98869,0.4375 1.5625,0.4375 H 32.910725 c 2.101752,0 3.101752,-1.652533 3.101752,-2.99965 v -5 c 0,-0.57381 -0.198496,-1.2921355 -0.580323,-1.7776934 0.86256,0.52578 1.080823,1.6891434 1.080823,2.7773434 v 5 c 0,1.662 -1.338,3 -3,3 H 5.8567271 c -1.0882,0 -2.0367,-0.57494 -2.5625,-1.4375 z"
     id="path4" />
  <path
     style="color:#000000;opacity:0.8"
     d="m 2.3562271,6.00055 v 5 c 0,1.662 1.338,3 3,3 H 33.012477 c 1.662,0 3,-1.338 3,-3 v -5 c 0,-1.662 -1.338,-3 -3,-3 H 5.3562271 c -1.662,0 -3,1.338 -3,3 z"
     id="path6" />
  <path
     id="path8"
     d="m 2,5.0002 c 0,-1.662 1.338,-3 3,-3 l 28,0 c 0.831,0 1.5828,0.33275 2.125,0.875 L 34,4.0002 l -30,7 -1.125,1.125 C 2.33275,11.58295 2,10.8312 2,10.0002 Z"
     style="color:#000000;fill:#444444" />
  <path
     id="path10"
     d="M 2.875,12.125 4,11 34,4 35.125,2.875 C 35.66725,3.41725 36,4.169 36,5 v 5 c 0,1.662 -1.338,3 -3,3 H 5 C 4.169,13 3.4172,12.66725 2.875,12.125 Z"
     style="color:#000000;fill:#1a1a1a" />
  <path
     id="path12"
     d="m 3,5.0002 v 5 c 0,1.108 0.892,2 2,2 h 28 c 1.108,0 2,-0.892 2,-2 v -5 c 0,-1.108 -0.892,-2 -2,-2 H 5 c -1.108,0 -2,0.892 -2,2 z"
     style="color:#000000;fill:#333333" />
  <path
     id="path14"
     d="M 3,6 V 7 H 35 V 6 Z"
     style="color:#000000;fill:#131313" />
  <path
     style="color:#000000;fill:#ea0000"
     d="M 3,7 V 8 H 35 V 7 Z"
     id="path18" />
  <path
     style="color:#000000;fill:#515151"
     d="M 3,8 V 9 H 35 V 8 Z"
     id="path20" />
</svg>
