<?xml version="1.0" encoding="UTF-8" standalone="no"?>
<svg
   xmlns:dc="http://purl.org/dc/elements/1.1/"
   xmlns:cc="http://creativecommons.org/ns#"
   xmlns:rdf="http://www.w3.org/1999/02/22-rdf-syntax-ns#"
   xmlns:svg="http://www.w3.org/2000/svg"
   xmlns="http://www.w3.org/2000/svg"
   version="1.1"
   height="16"
   width="38"
   id="svg28485">
  <defs
     id="defs14" />
  <metadata
     id="metadata28490">
    <rdf:RDF>
      <cc:Work
         rdf:about="">
        <dc:format>image/svg+xml</dc:format>
        <dc:type
           rdf:resource="http://purl.org/dc/dcmitype/StillImage" />
        <dc:title></dc:title>
      </cc:Work>
    </rdf:RDF>
  </metadata>
  <path
     id="path2"
     d="M 5.4375,14.562 C 5.89234,14.83925 6.42619,14.999497 7,14.9995 l 27,1.5e-4 c 1.662,9e-6 3,-1.338 3,-3 v -5 C 37,6.42584 36.83975,5.89195 36.5625,5.43715 37.42506,5.96293 38,6.91145 38,7.99965 v 5 c 0,1.662 -1.338,3.000009 -3,3 L 8,15.9995 c -1.0882,-6e-6 -2.0367,-0.57494 -2.5625,-1.4375 z"
     style="color:#000000;opacity:0.15" />
  <path
     id="path4"
     d="M 4.4375,13.562 C 4.89234,13.83925 5.42619,13.999497 6,13.9995 l 27,1.5e-4 c 1.662,9e-6 3,-1.338 3,-3 v -5 C 36,5.42584 35.83975,4.89195 35.5625,4.43715 36.42506,4.96293 37,5.91145 37,6.99965 v 5 c 0,1.662 -1.338,3.000009 -3,3 L 7,14.9995 c -1.0882,-6e-6 -2.0367,-0.57494 -2.5625,-1.4375 z"
     style="color:#000000;opacity:0.5" />
  <path
     id="path6"
     d="m 3,6.0002 v 5 c 0,1.662 1.338,2.999991 3,3 l 27,1.5e-4 c 1.662,9e-6 3,-1.338 3,-3 v -5 c 0,-1.662 -1.338,-2.9999908 -3,-3 L 6,3.0002 c -1.662,-9.2e-6 -3,1.338 -3,3 z"
     style="color:#000000;opacity:0.8" />
  <path
     style="color:#000000;fill:#444444"
     d="m 2,5.0002 c 0,-1.662 1.338,-3.0000092 3,-3 l 27,1.5e-4 c 0.831,4.6e-6 1.5828,0.33275 2.125,0.875 L 33,4.00035 4,11.0002 2.875,12.1252 C 2.33275,11.58295 2,10.8312 2,10.0002 Z"
     id="path8" />
  <path
     style="color:#000000;fill:#1a1a1a"
     d="M 2.875,12.125 4,11 33,4.00015 34.125,2.87515 C 34.66725,3.4174 35,4.16915 35,5.00015 v 5 c 0,1.662 -1.338,3.000009 -3,3 L 5,13 c -0.831,-5e-6 -1.5828,-0.33275 -2.125,-0.875 z"
     id="path10" />
  <path
     style="color:#000000;fill:#333333"
     d="m 3,5.0002 v 5 c 0,1.108 0.892,1.999994 2,2 l 27,1.5e-4 c 1.108,6e-6 2,-0.892 2,-2 v -5 c 0,-1.108 -0.892,-1.9999938 -2,-2 L 5,3.0002 c -1.108,-6.2e-6 -2,0.892 -2,2 z"
     id="path12" />
  <path
     style="color:#000000;fill:#131313"
     d="m 3,6 v 1 l 31,1.5e-4 v -1 z"
     id="path14" />
  <path
     id="path18"
     d="m 3,7 v 1 l 31,1.5e-4 v -1 z"
     style="color:#000000;fill:#ea0000" />
  <path
     id="path20"
     d="m 3,8 v 1 l 31,1.5e-4 v -1 z"
     style="color:#000000;fill:#515151" />
</svg>
