<?xml version="1.0" encoding="UTF-8" standalone="no"?>
<svg
   xmlns:dc="http://purl.org/dc/elements/1.1/"
   xmlns:cc="http://creativecommons.org/ns#"
   xmlns:rdf="http://www.w3.org/1999/02/22-rdf-syntax-ns#"
   xmlns:svg="http://www.w3.org/2000/svg"
   xmlns="http://www.w3.org/2000/svg"
   id="svg24"
   version="1.1"
   height="46"
   width="20">
  <metadata
     id="metadata30">
    <rdf:RDF>
      <cc:Work
         rdf:about="">
        <dc:format>image/svg+xml</dc:format>
        <dc:type
           rdf:resource="http://purl.org/dc/dcmitype/StillImage" />
        <dc:title></dc:title>
      </cc:Work>
    </rdf:RDF>
  </metadata>
  <defs
     id="defs28" />
  <path
     style="color:#000000;opacity:0.15"
     d="m 5.438,43.5618 c 0.45484,0.27725 0.98869,0.437484 1.5625,0.4375 l 5.5,1.5e-4 c 1.415374,3.5e-4 2.4995,-0.99965 2.830554,-2 0,1.662 -0.668554,3.00005 -2.330554,3 l -5,-1.5e-4 C 6.9123,44.999267 5.9638,44.42436 5.438,43.5618 Z"
     id="path2" />
  <path
     style="color:#000000;opacity:0.5"
     d="m 4.938,42.5618 c 0.45484,0.27725 0.98869,0.437484 1.5625,0.4375 l 5.397748,1.5e-4 C 14,42.999508 15,41.346917 15,39.9998 V 3.99965 C 15,3.42584 14.801504,2.707514 14.419677,2.221956 15.282237,2.747736 15.5005,3.9111 15.5005,4.9993 v 36.00015 c 0,1.662 -1.338,3.00005 -3,3 l -5,-1.5e-4 C 6.4123,43.999267 5.4638,43.42436 4.938,42.5618 Z"
     id="path4" />
  <path
     style="color:#000000;opacity:0.8"
     d="M 4,3.99985 V 40 c 0,1.662 1.338,2.99995 3,3 l 5,1.5e-4 c 1.662,5e-5 3,-1.338 3,-3 V 4 C 15,2.338 13.662,1.0000499 12,1 L 7,0.99985 c -1.662,-4.986e-5 -3,1.338 -3,3 z"
     id="path6" />
  <g
     transform="matrix(0,1,1,0,-26,-1)"
     id="g16">
    <path
       d="m 2,33 c 0,-1.662 1.338,-3 3,-3 h 35 c 0.831,0 1.5828,0.33275 2.125,0.875 L 41,32 4,39 2.875,40.125 C 2.33275,39.58275 2,38.831 2,38 Z"
       id="path8"
       style="color:#000000;fill:#444444" />
    <path
       d="M 2.875,40.125 4,39 41,32 42.125,30.875 C 42.66725,31.41725 43,32.169 43,33 v 5 c 0,1.662 -1.338,3 -3,3 H 5 C 4.169,41 3.4172,40.66725 2.875,40.125 Z"
       id="path10"
       style="color:#000000;fill:#1a1a1a" />
    <path
       d="m 3,33 v 5 c 0,1.108 0.892,2 2,2 h 35 c 1.108,0 2,-0.892 2,-2 v -5 c 0,-1.108 -0.892,-2 -2,-2 H 5 c -1.108,0 -2,0.892 -2,2 z"
       id="path12"
       style="color:#000000;fill:#333333" />
    <path
       d="m 3,34 v 1 h 39 v -1 z"
       id="path14"
       style="color:#000000;fill:#131313" />
  </g>
  <path
     d="m 9,2 h 1 V 41 H 9 Z"
     id="path18"
     style="color:#000000;fill:#ea0000" />
  <path
     d="m 10,2 h 1 v 39 h -1 z"
     id="path20"
     style="color:#000000;fill:#515151" />
</svg>
