<svg width="27" height="13" version="1.1" xmlns="http://www.w3.org/2000/svg"><path d="m2.294 11.183435c.5042904.413239 1.0752284.816565 2.2053571.816565h17.3988909c2.101752 0 3.101864-1.652533 3.101752-2.99965l-.00025-3.00035c-4.8e-5-.57381-.198496-1.2921355-.580323-1.7776934.86256.52578 1.080732 1.6891434 1.080823 2.7773434l.00025 3.00035c.000138 1.662-1.338 3-3 3h-17.6440001c-1.0882 0-2.2715901-.138071-2.5624999-1.816565z" color="#000000" opacity=".5"/><path d="m1.35575 6.00035.00025 3.00035c.0001385 1.662 1.3379999 3 2.9999999 3h17.6440001c1.662 0 3.000138-1.338 3-3l-.00025-3.00035c-.000138-1.662-1.338-3-3-3h-17.6440001c-1.662 0-3.0001384 1.338-2.9999999 3z" color="#000000" opacity=".8"/><path d="m1 4.99965c0-1.662 1.338-3.000032 3-3l18 .00035c.831 1.6e-5 1.5828.33275 2.125.875l-1.125 1.125-20 4.999575-1.125 1.125c-.54225-.54225-.875-1.294-.875-2.125z" color="#000000" fill="#444"/><path d="m1.875 10.124375 1.125-1.125 20-4.999575 1.125-1.125c.54225.54225.875 1.294.875 2.125v2.999925c0 1.662-1.338 3.000032-3 3l-18-.00035c-.831-1.6e-5-1.5828-.33275-2.125-.875z" color="#000000" fill="#1a1a1a"/><path d="m2 4.99965v2.999925c0 1.108.892 1.999978 2 2l18 .00035c1.108 2.2e-5 2-.892 2-2v-2.999925c0-1.108-.892-1.999978-2-2l-18-.00035c-1.108-2.2e-5-2 .892-2 2z" color="#000000" fill="#333"/><path d="m2 4.9992v1l22 .00035v-1z" color="#000000" fill="#131313"/><path d="m2 5.9992v1l22 .00035v-1z" color="#000000" fill="#ea0000"/><path d="m2 6.9992v1l22 .00035v-1z" color="#000000" fill="#515151"/></svg>
