<svg width="40" height="34" version="1.1" xmlns="http://www.w3.org/2000/svg"><defs><linearGradient id="a" x1="256.73999" x2="484.70999" y1="472.03" y2="472.03" gradientTransform="matrix(-.03288643 -.09943641 .09865929 -.03314547 -14.294293 68.371646)" gradientUnits="userSpaceOnUse"><stop stop-color="#060606" offset="0"/><stop stop-color="#343434" offset="1"/></linearGradient></defs><g display="none"><rect x="-840.6828" y="-713" width="1780.3656" height="1459" fill="#1e1e1e" style="paint-order:fill markers stroke"/></g><path d="m32 28v4h6v-4z" color="#000000" fill="#101010" style="text-indent:0;text-transform:none"/><path d="m2 28v4h6v-4zm1 1h4v2h-4z" color="#000000" fill="#101010" style="text-indent:0;text-transform:none"/><rect x="2.5" y="29.500002" width="5.0001001" height="3" fill="none" stroke="#767676" stroke-dashoffset="319.5" stroke-linecap="round"/><rect x="32.5" y="29.500002" width="5" height="3" fill="#767676" stroke="#767676" stroke-dashoffset="319.5" stroke-linecap="round"/><g transform="rotate(23.946774,19.996454,19.008447)"><g transform="matrix(.10676 0 0 .10676 -19.071124 -31.786292)" opacity=".49300005"><path d="m270.69379 536.40673c20.01433 60.04489 85.31772 92.31846 145.17067 71.75942 60.21816-19.46338 93.09981-84.46428 73.08548-144.50917-78.29686-151.10046-253.52045-44.94758-218.25615 72.74975z" color="#000000" color-rendering="auto" dominant-baseline="auto" image-rendering="auto" opacity="1" shape-rendering="auto" solid-color="#000000" style="font-feature-settings:normal;font-variant-alternates:normal;font-variant-caps:normal;font-variant-ligatures:normal;font-variant-numeric:normal;font-variant-position:normal;isolation:auto;mix-blend-mode:normal;shape-padding:0;text-decoration-color:#000000;text-decoration-line:none;text-decoration-style:solid;text-indent:0;text-orientation:mixed;text-transform:none;white-space:normal"/></g><g transform="matrix(.10746967 0 0 .10746967 -20.137858 -33.659792)" fill="#050505" opacity=".93999999"><path d="m270.69379 536.40673c20.01433 60.04489 85.31772 92.31846 145.17067 71.75942 60.21816-19.46338 93.09981-84.46428 73.08548-144.50917-20.01433-60.04488-85.31957-92.31785-145.17252-71.7588-60.21816 19.46339-93.09796 84.46366-73.08363 144.50855z" color="#000000" color-rendering="auto" dominant-baseline="auto" fill="#050505" image-rendering="auto" opacity="1" shape-rendering="auto" solid-color="#000000" style="font-feature-settings:normal;font-variant-alternates:normal;font-variant-caps:normal;font-variant-ligatures:normal;font-variant-numeric:normal;font-variant-position:normal;isolation:auto;mix-blend-mode:normal;shape-padding:0;text-decoration-color:#000000;text-decoration-line:none;text-decoration-style:solid;text-indent:0;text-orientation:mixed;text-transform:none;white-space:normal"/></g></g><path d="m20.947266 7.0273438c-1.548225-.1089416-3.142419.0900374-4.701172.6347656-6.2871246 2.0297598-9.7210893 8.8536646-7.6347659 15.1621096 2.0864559 6.308845 8.9023139 9.690608 15.1406249 7.511719 6.287125-2.02976 9.723042-8.851712 7.636719-15.160157-1.565321-4.733081-5.792941-7.821346-10.441406-8.1484372z" color="#000000" color-rendering="auto" dominant-baseline="auto" fill="#404040" image-rendering="auto" shape-rendering="auto" solid-color="#000000" style="font-feature-settings:normal;font-variant-alternates:normal;font-variant-caps:normal;font-variant-ligatures:normal;font-variant-numeric:normal;font-variant-position:normal;isolation:auto;mix-blend-mode:normal;shape-padding:0;text-decoration-color:#000000;text-decoration-line:none;text-decoration-style:solid;text-indent:0;text-orientation:mixed;text-transform:none;white-space:normal"/><path d="m16.445167 8.8140636a11.241392 11.329941 0 1 1 7.108965 21.4954704 11.241392 11.329941 0 1 1-7.108965-21.4954704z" fill="url(#a)"/><path d="m5.0962044 24.139993a15.887418 15.8815 0 0 1 5.4419816-18.1707139 15.887418 15.8815 0 0 1 18.974616 0 15.887418 15.8815 0 0 1 5.441981 18.1707139" fill="none" stroke="#0b0b0b" stroke-linecap="round" stroke-linejoin="round" stroke-width="1.10000002" style="paint-order:fill markers stroke"/><path d="m5.1126812 24.877935a15.869884 15.863534 0 0 1 5.4359748-18.1501575 15.869884 15.863534 0 0 1 18.953675 0 15.869884 15.863534 0 0 1 5.435975 18.1501575" fill="none" stroke="#555" stroke-linecap="round" stroke-linejoin="round" stroke-width="1.10000002" style="paint-order:fill markers stroke"/></svg>
