<svg width="25" height="25" version="1.1" xmlns="http://www.w3.org/2000/svg"><defs><filter id="c" color-interpolation-filters="sRGB"><feGaussianBlur stdDeviation="0.42678198"/></filter><linearGradient id="b" x1="196.12" x2="196.15" y1="616.53" y2="626.48" gradientTransform="matrix(1.2573,0,0,1,-52.11,15)" gradientUnits="userSpaceOnUse"><stop stop-color="#e90808" offset="0"/><stop stop-color="#b60000" offset="1"/></linearGradient><radialGradient id="a" cx="277.23" cy="316.59" r="21.466" gradientTransform="matrix(1.2346 -.010354 .016272 .88786 19.827 74.038)" gradientUnits="userSpaceOnUse"><stop stop-color="#eece33" stop-opacity=".95055" offset="0"/><stop stop-color="#ff734e" stop-opacity=".81868" offset=".61064"/><stop stop-color="#ff2d2d" stop-opacity="0" offset="1"/></radialGradient></defs><g transform="translate(-182.48 -629.9)"><g transform="matrix(1 0 0 1.0435 .5 -27.908)"><path d="m192.98 631.99c0-.7733.4862-1.6026 1.4857-1.6026.95241 0 1.4769.79947 1.4959 1.5851 0 2.2052.0184 8.58.0184 8.58-.0557.73809-.74136 1.3349-1.5333 1.3349s-1.4528-.74079-1.4528-1.352c-.007-3.3013-.0134-5.454-.0134-8.5454z" fill="url(#b)"/><ellipse transform="matrix(.051698 0 0 .076424 175.5 604.9)" cx="367.1" cy="353.18" rx="24.154" ry="16.341" fill="url(#a)" filter="url(#c)"/></g></g></svg>
