<?xml version="1.0" encoding="UTF-8" standalone="no"?>
<svg
   xmlns:dc="http://purl.org/dc/elements/1.1/"
   xmlns:cc="http://creativecommons.org/ns#"
   xmlns:rdf="http://www.w3.org/1999/02/22-rdf-syntax-ns#"
   xmlns:svg="http://www.w3.org/2000/svg"
   xmlns="http://www.w3.org/2000/svg"
   width="46"
   height="17"
   version="1.1"
   id="svg22">
  <metadata
     id="metadata28">
    <rdf:RDF>
      <cc:Work
         rdf:about="">
        <dc:format>image/svg+xml</dc:format>
        <dc:type
           rdf:resource="http://purl.org/dc/dcmitype/StillImage" />
        <dc:title></dc:title>
      </cc:Work>
    </rdf:RDF>
  </metadata>
  <defs
     id="defs26" />
  <path
     style="color:#000000;opacity:0.15"
     d="m 5.43775,13.56205 c 0.45484,0.27725 0.98869,0.437499 1.5625,0.4375 l 32.464876,7.5e-5 c 1.415374,3.5e-4 2.4995,-0.99965 2.830554,-2 0,1.662 -0.668554,3.000004 -2.330554,3 L 8.00025,14.99955 c -1.0882,-3e-6 -2.0367,-0.57494 -2.5625,-1.4375 z"
     id="path2" />
  <path
     style="color:#000000;opacity:0.5"
     d="m 4.93775,12.56205 c 0.45484,0.27725 0.98869,0.437499 1.5625,0.4375 l 32.362624,7.5e-5 c 2.101752,5e-6 3.101752,-1.652533 3.101752,-2.99965 v -5 c 0,-0.57381 -0.198496,-1.2921355 -0.580323,-1.7776934 0.86256,0.52578 1.080823,1.6891434 1.080823,2.7773434 v 5 c 0,1.662 -1.338,3.000004 -3,3 L 7.50025,13.99955 c -1.0882,-3e-6 -2.0367,-0.57494 -2.5625,-1.4375 z"
     id="path4" />
  <path
     style="color:#000000;opacity:0.8"
     d="m 3.99975,5.00025 v 5 c 0,1.662 1.338,2.999996 3,3 l 31.964876,7.5e-5 c 1.662,4e-6 3,-1.338 3,-3 v -5 c 0,-1.662 -1.338,-2.9999961 -3,-3 L 6.99975,2.00025 c -1.662,-3.9e-6 -3,1.338 -3,3 z"
     id="path6" />
  <path
     id="path8"
     d="m 2.99975,4.00045 c 0,-1.662 1.338,-2.9999962 3,-3 l 33.000018,-7.5e-5 c 0.831,-1.9e-6 1.5828,0.33275 2.125,0.875 l -1.125,1.125 -35.000018,7.000075 -1.125,1.125 c -0.54225,-0.54225 -0.875,-1.294 -0.875,-2.125 z"
     style="color:#000000;fill:#444444" />
  <path
     id="path10"
     d="m 3.87475,11.12525 1.125,-1.125 35.000018,-7.000075 1.125,-1.125 c 0.54225,0.54225 0.875,1.294 0.875,2.125 v 5 c 0,1.662 -1.338,2.999996 -3,3 L 5.99975,12.00025 c -0.831,2e-6 -1.5828,-0.33275 -2.125,-0.875 z"
     style="color:#000000;fill:#1a1a1a" />
  <path
     id="path12"
     d="m 3.99975,4.00045 v 5 c 0,1.108 0.892,2.000003 2,2 l 33.000018,-7.5e-5 c 1.108,-3e-6 2,-0.892 2,-2 v -5 c 0,-1.108 -0.892,-2.0000025 -2,-2 L 5.99975,2.00045 c -1.108,2.5e-6 -2,0.892 -2,2 z"
     style="color:#000000;fill:#333333" />
  <path
     id="path14"
     d="m 3.99975,5.00025 v 1 l 37.000018,-7.5e-5 v -1 z"
     style="color:#000000;fill:#131313" />
  <path
     style="color:#000000;fill:#515151"
     d="m 7.00025,3.99975 h 1 l -7.5e-5,37.000018 h -1 z"
     id="path20"
     transform="matrix(0,1,1,0,0,0)" />
  <path
     d="m 3.99975,6.00025 v 1 l 37.000018,-7.5e-5 v -1 z"
     id="path20-3"
     style="color:#000000;fill:#ea0000;fill-opacity:1" />
</svg>
