<?xml version="1.0" encoding="UTF-8" standalone="no"?>
<svg
   xmlns:dc="http://purl.org/dc/elements/1.1/"
   xmlns:cc="http://creativecommons.org/ns#"
   xmlns:rdf="http://www.w3.org/1999/02/22-rdf-syntax-ns#"
   xmlns:svg="http://www.w3.org/2000/svg"
   xmlns="http://www.w3.org/2000/svg"
   id="svg28485"
   width="40"
   height="16"
   version="1.1">
  <defs
     id="defs14" />
  <metadata
     id="metadata28490">
    <rdf:RDF>
      <cc:Work
         rdf:about="">
        <dc:format>image/svg+xml</dc:format>
        <dc:type
           rdf:resource="http://purl.org/dc/dcmitype/StillImage" />
        <dc:title></dc:title>
      </cc:Work>
    </rdf:RDF>
  </metadata>
  <path
     style="color:#000000;opacity:0.15"
     d="m 3.7942271,14.562325 c 0.45484,0.27725 0.9886899,0.4375 1.5624999,0.4375 H 35.51349 c 1.415374,3.5e-4 2.4995,-0.99965 2.830554,-2 0,1.662 -0.668554,3 -2.330554,3 H 6.356727 c -1.0882,0 -2.0367,-0.57494 -2.5624999,-1.4375 z"
     id="path2" />
  <path
     style="color:#000000;opacity:0.5"
     d="m 3.2942271,13.562325 c 0.4548399,0.27725 0.9886899,0.4375 1.5625,0.4375 H 34.911238 c 2.101752,0 3.101752,-1.652533 3.101752,-2.99965 v -5 c 0,-0.57381 -0.198496,-1.2921355 -0.580323,-1.7776934 0.86256,0.52578 1.080823,1.6891434 1.080823,2.7773434 v 5 c 0,1.662 -1.338,3 -3,3 H 5.856727 c -1.0882,0 -2.0367,-0.57494 -2.5624999,-1.4375 z"
     id="path4" />
  <path
     style="color:#000000;opacity:0.8"
     d="m 2.3562271,6.000525 v 5 c 0,1.662 1.3379999,3 2.9999999,3 H 35.01299 c 1.662,0 3,-1.338 3,-3 v -5 c 0,-1.662 -1.338,-3 -3,-3 H 5.356227 c -1.662,0 -3,1.338 -2.9999999,3 z"
     id="path6" />
  <path
     id="path8"
     d="m 2,5.000175 c 0,-1.662 1.338,-3 2.9999999,-3 H 35.000513 c 0.831,0 1.5828,0.33275 2.125,0.875 l -1.125,1.125 -32.000513,7 -1.125,1.125 C 2.3327499,11.582925 2,10.831175 2,10.000175 Z"
     style="color:#000000;fill:#444444" />
  <path
     id="path10"
     d="m 2.875,12.124975 1.125,-1.125 32.000513,-7 1.125,-1.125 c 0.54225,0.54225 0.875,1.294 0.875,2.125 v 5 c 0,1.662 -1.338,3 -3,3 H 4.9999999 c -0.831,0 -1.5827999,-0.33275 -2.1249999,-0.875 z"
     style="color:#000000;fill:#1a1a1a" />
  <path
     id="path12"
     d="m 3,5.000175 v 5 c 0,1.108 0.8919999,2 1.9999999,2 H 35.000513 c 1.108,0 2,-0.892 2,-2 v -5 c 0,-1.108 -0.892,-2 -2,-2 H 4.9999999 c -1.108,0 -1.9999999,0.892 -1.9999999,2 z"
     style="color:#000000;fill:#333333" />
  <path
     id="path14"
     d="m 3,5.999975 v 1 h 34.000513 v -1 z"
     style="color:#000000;fill:#131313" />
  <path
     style="color:#000000;fill:#ea0000"
     d="m 3,6.999975 v 1 h 34.000513 v -1 z"
     id="path18" />
  <path
     style="color:#000000;fill:#515151"
     d="m 3,7.999975 v 1 h 34.000513 v -1 z"
     id="path20" />
</svg>
