<svg width="40" height="34" version="1.1" xmlns="http://www.w3.org/2000/svg">
	<defs>
		<linearGradient id="a" x1="256.73999" x2="484.70999" y1="472.03" y2="472.03" gradientTransform="matrix(-.03288643 -.09943641 .09865929 -.03314547 -14.294293 68.371646)" gradientUnits="userSpaceOnUse">
			<stop stop-color="#060606" offset="0"/>
			<stop stop-color="#343434" offset="1"/>
		</linearGradient>
	</defs>
	<path d="m21.025349 6.0407012c-1.675832-.1179207-3.40142.097458-5.088647.6870836-6.8053152 2.1970543-10.5223103 9.5833922-8.2640303 16.4117842 2.2584231 6.828825 9.6360493 10.489317 16.3885293 8.130842 6.805314-2.197054 10.524423-9.581278 8.266143-16.409671-1.694336-5.1231855-6.2704-8.4659885-11.301995-8.8200388z" color="#000000" color-rendering="auto" dominant-baseline="auto" fill="#080808" image-rendering="auto" shape-rendering="auto" solid-color="#000000" stroke-width=".99999994" style="font-feature-settings:normal;font-variant-alternates:normal;font-variant-caps:normal;font-variant-ligatures:normal;font-variant-numeric:normal;font-variant-position:normal;isolation:auto;mix-blend-mode:normal;shape-padding:0;text-decoration-color:#000000;text-decoration-line:none;text-decoration-style:solid;text-indent:0;text-orientation:mixed;text-transform:none;white-space:normal"/>
	<path d="m31.5 28v4h6v-4z" color="#000000" style="text-indent:0;text-transform:none"/>
	<path d="m1.5 28v4h6v-4zm1 1h4v2h-4z" color="#000000" style="text-indent:0;text-transform:none"/>
	<path d="m2 29v4h6v-4zm1 1h4v2h-4z" color="#000000" color-rendering="auto" dominant-baseline="auto" fill="#4d4d4d" image-rendering="auto" shape-rendering="auto" solid-color="#000000" style="font-feature-settings:normal;font-variant-alternates:normal;font-variant-caps:normal;font-variant-ligatures:normal;font-variant-numeric:normal;font-variant-position:normal;isolation:auto;mix-blend-mode:normal;shape-padding:0;text-decoration-color:#000000;text-decoration-line:none;text-decoration-style:solid;text-indent:0;text-orientation:mixed;text-transform:none;white-space:normal"/>
	<path d="m32 29v4h6v-4z" color="#000000" color-rendering="auto" dominant-baseline="auto" fill="#4d4d4d" image-rendering="auto" shape-rendering="auto" solid-color="#000000" style="font-feature-settings:normal;font-variant-alternates:normal;font-variant-caps:normal;font-variant-ligatures:normal;font-variant-numeric:normal;font-variant-position:normal;isolation:auto;mix-blend-mode:normal;shape-padding:0;text-decoration-color:#000000;text-decoration-line:none;text-decoration-style:solid;text-indent:0;text-orientation:mixed;text-transform:none;white-space:normal"/>
	<g transform="rotate(23.946774,19.996454,19.008447)">
		<g transform="matrix(.10676 0 0 .10676 -19.071124 -31.786292)" opacity=".49300005">
			<path d="m270.69379 536.40673c20.01433 60.04489 85.31772 92.31846 145.17067 71.75942 60.21816-19.46338 93.09981-84.46428 73.08548-144.50917-78.29686-151.10046-253.52045-44.94758-218.25615 72.74975z" color="#000000" color-rendering="auto" dominant-baseline="auto" image-rendering="auto" opacity="1" shape-rendering="auto" solid-color="#000000" style="font-feature-settings:normal;font-variant-alternates:normal;font-variant-caps:normal;font-variant-ligatures:normal;font-variant-numeric:normal;font-variant-position:normal;isolation:auto;mix-blend-mode:normal;shape-padding:0;text-decoration-color:#000000;text-decoration-line:none;text-decoration-style:solid;text-indent:0;text-orientation:mixed;text-transform:none;white-space:normal"/>
		</g>
		<g transform="matrix(.10746967 0 0 .10746967 -20.137858 -33.659792)" fill="#050505" opacity=".93999999">
			<path d="m270.69379 536.40673c20.01433 60.04489 85.31772 92.31846 145.17067 71.75942 60.21816-19.46338 93.09981-84.46428 73.08548-144.50917-20.01433-60.04488-85.31957-92.31785-145.17252-71.7588-60.21816 19.46339-93.09796 84.46366-73.08363 144.50855z" color="#000000" color-rendering="auto" dominant-baseline="auto" fill="#050505" image-rendering="auto" opacity="1" shape-rendering="auto" solid-color="#000000" style="font-feature-settings:normal;font-variant-alternates:normal;font-variant-caps:normal;font-variant-ligatures:normal;font-variant-numeric:normal;font-variant-position:normal;isolation:auto;mix-blend-mode:normal;shape-padding:0;text-decoration-color:#000000;text-decoration-line:none;text-decoration-style:solid;text-indent:0;text-orientation:mixed;text-transform:none;white-space:normal"/>
		</g>
	</g>
	<path d="m20.947266 7.0273438c-1.548225-.1089416-3.142419.0900374-4.701172.6347656-6.2871246 2.0297598-9.7210893 8.8536646-7.6347659 15.1621096 2.0864559 6.308845 8.9023139 9.690608 15.1406249 7.511719 6.287125-2.02976 9.723042-8.851712 7.636719-15.160157-1.565321-4.733081-5.792941-7.821346-10.441406-8.1484372z" color="#000000" color-rendering="auto" dominant-baseline="auto" fill="#202020" image-rendering="auto" shape-rendering="auto" solid-color="#000000" style="font-feature-settings:normal;font-variant-alternates:normal;font-variant-caps:normal;font-variant-ligatures:normal;font-variant-numeric:normal;font-variant-position:normal;isolation:auto;mix-blend-mode:normal;shape-padding:0;text-decoration-color:#000000;text-decoration-line:none;text-decoration-style:solid;text-indent:0;text-orientation:mixed;text-transform:none;white-space:normal"/>
	<path d="m17.978369 8.4234603a11.241392 11.329941 8.0144789 1 1 4.042561 22.2766767 11.241392 11.329941 8.0144789 1 1-4.042561-22.2766767z" fill="url(#a)"/>
	<path d="m4.2885454 24.518558a16.746911 16.754821 0 0 1 5.7363876-19.1699185 16.746911 16.754821 0 0 1 20.001123 0 16.746911 16.754821 0 0 1 5.736387 19.1699185" fill="none" stroke="#0b0b0b" stroke-linecap="round" stroke-linejoin="round" stroke-width="1.10000002" style="paint-order:fill markers stroke"/>
	<path d="m4.2040566 25.536932a16.836822 16.84602 0 0 1 5.7671838-19.2742619 16.836822 16.84602 0 0 1 20.1085056 0 16.836822 16.84602 0 0 1 5.767184 19.2742619" fill="none" stroke="#555" stroke-linecap="round" stroke-linejoin="round" stroke-width="1.10000002" style="paint-order:fill markers stroke"/>
</svg>
