<svg width="46" height="17" version="1.1" xmlns="http://www.w3.org/2000/svg"><path d="m4.794 13.148c.60561.57244 1.4882.85239 2.062.85238l32.657-7e-4c1.4154.00035 2.7757-1.0248 2.9852-2.6991.01105 2.1371-.42549 3.6991-2.3306 3.6991h-32.811c-1.0882 0-2.3492-.62974-2.5625-1.8517z" color="#000000" opacity=".15"/><path d="m4.294 12.183c.69268.64195 1.4882.81723 2.062.81722l32.555-7e-4c2.1018-4.5e-5 3.1018-1.6525 3.1018-2.9996v-5c0-.57381-.1985-1.2921-.58032-1.7777.86256.52578 1.0808 1.6891 1.0808 2.7773v5c0 1.662-1.338 3-3 3h-32.657c-1.0882 0-2.5339-.85452-2.5625-1.8165z" color="#000000" opacity=".5"/><path d="m3.356 5.0007v5c0 1.662 1.338 3 3 3h32.657c1.662 0 3-1.338 3-3v-5c0-1.662-1.338-3-3-3h-32.657c-1.662 0-3 1.338-3 3z" color="#000000" opacity=".8"/><path d="m2.9998 4.0004c0-1.662 1.338-3 3-3l33-7.5e-5c.831-1.9e-6 1.5828.33275 2.125.875l-1.125 1.125-35 7.0001-1.125 1.125c-.54225-.54225-.875-1.294-.875-2.125z" color="#000000" fill="#444"/><path d="m3.8748 11.125 1.125-1.125 35-7.0001 1.125-1.125c.54225.54225.875 1.294.875 2.125v5c0 1.662-1.338 3-3 3l-33 7.5e-5c-.831 2e-6-1.5828-.33275-2.125-.875z" color="#000000" fill="#1a1a1a"/><path d="m3.9998 4.0004v5c0 1.108.892 2 2 2l33-7.5e-5c1.108-3e-6 2-.892 2-2v-5c0-1.108-.892-2-2-2l-33 7.5e-5c-1.108 2.5e-6-2 .892-2 2z" color="#000000" fill="#333"/><path d="m3.9998 5.0002v1l37-7.5e-5v-1z" color="#000000" fill="#131313"/><path transform="matrix(0,1,1,0,0,0)" d="m7.0002 3.9998h1l-7.5e-5 37h-1z" color="#000000" fill="#515151"/><path d="m3.9998 6.0002v1l37-7.5e-5v-1z" color="#000000" fill="#ea0000"/></svg>
