<?xml version="1.0" encoding="UTF-8" standalone="no"?>
<svg
   xmlns:dc="http://purl.org/dc/elements/1.1/"
   xmlns:cc="http://creativecommons.org/ns#"
   xmlns:rdf="http://www.w3.org/1999/02/22-rdf-syntax-ns#"
   xmlns:svg="http://www.w3.org/2000/svg"
   xmlns="http://www.w3.org/2000/svg"
   version="1.1"
   height="16"
   width="38"
   id="svg28485">
  <defs
     id="defs14" />
  <metadata
     id="metadata28490">
    <rdf:RDF>
      <cc:Work
         rdf:about="">
        <dc:format>image/svg+xml</dc:format>
        <dc:type
           rdf:resource="http://purl.org/dc/dcmitype/StillImage" />
        <dc:title></dc:title>
      </cc:Work>
    </rdf:RDF>
  </metadata>
  <path
     id="path2"
     d="m 2.7938635,14.562325 c 0.4548401,0.27725 0.98869,0.4375 1.5625,0.4375 H 34.513126 c 1.415374,3.5e-4 2.4995,-0.99965 2.830554,-2 0,1.662 -0.668554,3 -2.330554,3 H 5.3563635 c -1.0882,0 -2.0367,-0.57494 -2.5625,-1.4375 z"
     style="color:#000000;opacity:0.15" />
  <path
     id="path4"
     d="m 2.2938635,13.562325 c 0.45484,0.27725 0.98869,0.4375 1.5625001,0.4375 H 33.910874 c 2.101752,0 3.101752,-1.652533 3.101752,-2.99965 v -5 c 0,-0.57381 -0.198496,-1.2921355 -0.580323,-1.7776934 0.86256,0.52578 1.080823,1.6891434 1.080823,2.7773434 v 5 c 0,1.662 -1.338,3 -3,3 H 4.8563635 c -1.0882,0 -2.0367,-0.57494 -2.5625,-1.4375 z"
     style="color:#000000;opacity:0.5" />
  <path
     id="path6"
     d="m 1.3558635,6.000525 v 5 c 0,1.662 1.338,3 3,3 H 34.012626 c 1.662,0 3,-1.338 3,-3 v -5 c 0,-1.662 -1.338,-3 -3,-3 H 4.3558635 c -1.662,0 -3,1.338 -3,3 z"
     style="color:#000000;opacity:0.8" />
  <path
     style="color:#000000;fill:#444444"
     d="m 0.99963645,5.000175 c 0,-1.662 1.33799995,-3 2.99999995,-3 H 34.000149 c 0.831,0 1.5828,0.33275 2.125,0.875 l -1.125,1.125 -32.0005126,7 -1.125,1.125 c -0.54225,-0.54225 -0.87499995,-1.294 -0.87499995,-2.125 z"
     id="path8" />
  <path
     style="color:#000000;fill:#1a1a1a"
     d="m 1.8746364,12.124975 1.125,-1.125 32.0005126,-7 1.125,-1.125 c 0.54225,0.54225 0.875,1.294 0.875,2.125 v 5 c 0,1.662 -1.338,3 -3,3 H 3.9996364 c -0.831,0 -1.5828,-0.33275 -2.125,-0.875 z"
     id="path10" />
  <path
     style="color:#000000;fill:#333333"
     d="m 1.9996364,5.000175 v 5 c 0,1.108 0.892,2 2,2 H 34.000149 c 1.108,0 2,-0.892 2,-2 v -5 c 0,-1.108 -0.892,-2 -2,-2 H 3.9996364 c -1.108,0 -2,0.892 -2,2 z"
     id="path12" />
  <path
     style="color:#000000;fill:#131313"
     d="m 1.9996364,5.999975 v 1 H 36.000149 v -1 z"
     id="path14" />
  <path
     id="path18"
     d="m 1.9996364,6.999975 v 1 H 36.000149 v -1 z"
     style="color:#000000;fill:#ea0000" />
  <path
     id="path20"
     d="m 1.9996364,7.999975 v 1 H 36.000149 v -1 z"
     style="color:#000000;fill:#515151" />
</svg>
