<?xml version="1.0" encoding="UTF-8" standalone="no"?>
<svg
   xmlns:dc="http://purl.org/dc/elements/1.1/"
   xmlns:cc="http://creativecommons.org/ns#"
   xmlns:rdf="http://www.w3.org/1999/02/22-rdf-syntax-ns#"
   xmlns:svg="http://www.w3.org/2000/svg"
   xmlns="http://www.w3.org/2000/svg"
   version="1.1"
   height="11"
   width="27"
   id="svg3014">
  <defs
     id="defs17" />
  <metadata
     id="metadata3019">
    <rdf:RDF>
      <cc:Work
         rdf:about="">
        <dc:format>image/svg+xml</dc:format>
        <dc:type
           rdf:resource="http://purl.org/dc/dcmitype/StillImage" />
        <dc:title></dc:title>
      </cc:Work>
    </rdf:RDF>
  </metadata>
  <g
     transform="translate(0,-14.000425)"
     id="g859">
    <path
       id="path4"
       d="M 3.4375,23.5618 C 3.89234,23.83905 4.42619,23.999289 5,23.9993 l 18,3.5e-4 c 1.662,3.2e-5 3,-1.338 3,-3 v -2.999925 c 0,-0.57381 -0.16025,-1.1077 -0.4375,-1.5625 0.86256,0.52578 1.4375,1.4743 1.4375,2.5625 v 2.999925 c 0,1.662 -1.338,3.000032 -3,3 L 6,24.9993 C 4.9118,24.999279 3.9633,24.42436 3.4375,23.5618 Z"
       style="color:#000000;opacity:0.5" />
    <path
       id="path6"
       d="M 2,16.999825 V 21 c 0,1.662 1.338,2.999968 3,3 l 18,3.5e-4 c 1.662,3.2e-5 3,-1.338 3,-3 v -2.999925 c 0,-1.662 -1.338,-2.999968 -3,-3 l -18,-3.5e-4 c -1.662,-3.2e-5 -3,0.33775 -3,1.99975 z"
       style="color:#000000;opacity:0.8" />
    <path
       style="color:#000000;fill:#444444"
       d="m 1,17.000075 c 0,-1.662 1.338,-3.000032 3,-3 l 18,3.5e-4 c 0.831,1.6e-5 1.5828,0.33275 2.125,0.875 L 23,16.000425 3,21 1.875,22.125 C 1.33275,21.58275 1,20.831 1,20 Z"
       id="path8" />
    <path
       style="color:#000000;fill:#1a1a1a"
       d="M 1.875,22.1248 3,20.9998 l 20,-4.999575 1.125,-1.125 c 0.54225,0.54225 0.875,1.294 0.875,2.125 v 2.999925 c 0,1.662 -1.338,3.000032 -3,3 L 4,22.9998 c -0.831,-1.6e-5 -1.5828,-0.33275 -2.125,-0.875 z"
       id="path10" />
    <path
       style="color:#000000;fill:#333333"
       d="M 2,17.000075 V 20 c 0,1.108 0.892,1.999978 2,2 l 18,3.5e-4 c 1.108,2.2e-5 2,-0.892 2,-2 v -2.999925 c 0,-1.108 -0.892,-1.999978 -2,-2 l -18,-3.5e-4 c -1.108,-2.2e-5 -2,0.892 -2,2 z"
       id="path12" />
    <path
       style="color:#000000;fill:#131313"
       d="m 2,16.999625 v 1 l 22,3.5e-4 v -1 z"
       id="path14" />
    <path
       id="path18"
       d="m 2,17.999625 v 1 l 22,3.5e-4 v -1 z"
       style="color:#000000;fill:#ea0000" />
    <path
       id="path20"
       d="m 2,18.999625 v 1 l 22,3.5e-4 v -1 z"
       style="color:#000000;fill:#515151" />
  </g>
</svg>
