<?xml version="1.0" encoding="UTF-8" standalone="no"?>
<svg
   xmlns:dc="http://purl.org/dc/elements/1.1/"
   xmlns:cc="http://creativecommons.org/ns#"
   xmlns:rdf="http://www.w3.org/1999/02/22-rdf-syntax-ns#"
   xmlns:svg="http://www.w3.org/2000/svg"
   xmlns="http://www.w3.org/2000/svg"
   id="svg3014"
   width="27"
   height="11"
   version="1.1">
  <defs
     id="defs17" />
  <metadata
     id="metadata3019">
    <rdf:RDF>
      <cc:Work
         rdf:about="">
        <dc:format>image/svg+xml</dc:format>
        <dc:type
           rdf:resource="http://purl.org/dc/dcmitype/StillImage" />
        <dc:title></dc:title>
      </cc:Work>
    </rdf:RDF>
  </metadata>
  <path
     id="path4"
     d="M 2.294,9.1834346 C 2.7982904,9.5966736 3.3692284,10 4.4993571,10 H 21.898248 C 24,10 25.000112,8.347467 25,7.00035 L 24.99975,4 C 24.999702,3.42619 24.801254,2.7078645 24.419427,2.2223066 25.281987,2.7480866 25.500159,3.91145 25.50025,4.99965 L 25.5005,8 c 1.38e-4,1.662 -1.338,3 -3,3 H 4.8564999 C 3.7682999,11 2.5849098,10.861929 2.294,9.1834346 Z"
     style="color:#000000;opacity:0.5" />
  <path
     id="path6"
     d="M 1.35575,4.00035 1.356,7.0007 c 1.385e-4,1.662 1.3379999,3 2.9999999,3 H 22 c 1.662,0 3.000138,-1.338 3,-3 l -2.5e-4,-3.00035 c -1.38e-4,-1.662 -1.338,-3 -3,-3 H 4.3557499 c -1.662,0 -3.0001384,1.338 -2.9999999,3 z"
     style="color:#000000;opacity:0.8" />
  <path
     style="color:#000000;fill:#444444"
     d="m 1,2.99965 c 0,-1.662 1.338,-3.000032 3,-3 L 22,0 c 0.831,1.6e-5 1.5828,0.33275 2.125,0.875 L 23,2 3,6.999575 1.875,8.124575 C 1.33275,7.582325 1,6.830575 1,5.999575 Z"
     id="path8" />
  <path
     style="color:#000000;fill:#1a1a1a"
     d="M 1.875,8.124375 3,6.999375 23,1.9998 24.125,0.8748 C 24.66725,1.41705 25,2.1688 25,2.9998 v 2.999925 c 0,1.662 -1.338,3.000032 -3,3 L 4,8.999375 c -0.831,-1.6e-5 -1.5828,-0.33275 -2.125,-0.875 z"
     id="path10" />
  <path
     style="color:#000000;fill:#333333"
     d="m 2,2.99965 v 2.999925 c 0,1.108 0.892,1.999978 2,2 l 18,3.5e-4 c 1.108,2.2e-5 2,-0.892 2,-2 V 3 C 24,1.892 23.108,1.000022 22,1 L 4,0.99965 c -1.108,-2.2e-5 -2,0.892 -2,2 z"
     id="path12" />
  <path
     style="color:#000000;fill:#131313"
     d="m 2,2.9992 v 1 l 22,3.5e-4 v -1 z"
     id="path14" />
  <path
     id="path18"
     d="m 2,3.9992 v 1 l 22,3.5e-4 v -1 z"
     style="color:#000000;fill:#ea0000" />
  <path
     id="path20"
     d="m 2,4.9992 v 1 l 22,3.5e-4 v -1 z"
     style="color:#000000;fill:#515151" />
</svg>
