<?xml version="1.0" encoding="UTF-8" standalone="no"?>
<svg
   xmlns:dc="http://purl.org/dc/elements/1.1/"
   xmlns:cc="http://creativecommons.org/ns#"
   xmlns:rdf="http://www.w3.org/1999/02/22-rdf-syntax-ns#"
   xmlns:svg="http://www.w3.org/2000/svg"
   xmlns="http://www.w3.org/2000/svg"
   width="20"
   height="46"
   version="1.1"
   id="svg24">
  <metadata
     id="metadata30">
    <rdf:RDF>
      <cc:Work
         rdf:about="">
        <dc:format>image/svg+xml</dc:format>
        <dc:type
           rdf:resource="http://purl.org/dc/dcmitype/StillImage" />
        <dc:title></dc:title>
      </cc:Work>
    </rdf:RDF>
  </metadata>
  <defs
     id="defs28" />
  <path
     id="path2"
     d="m 5.43775,42.562075 c 0.45484,0.27725 0.98869,0.437484 1.5625,0.4375 l 5.5,1.5e-4 c 1.415374,3.5e-4 2.4995,-0.99965 2.830554,-2 0,1.662 -0.668554,3.00005 -2.330554,3 l -5,-1.5e-4 c -1.0882,-3.3e-5 -2.0367,-0.57494 -2.5625,-1.4375 z"
     style="color:#000000;opacity:0.15" />
  <path
     id="path4"
     d="m 4.93775,41.562075 c 0.45484,0.27725 0.98869,0.437484 1.5625,0.4375 l 5.397748,1.5e-4 c 2.101752,5.8e-5 3.101752,-1.652533 3.101752,-2.99965 v -34 c 0,-0.57381 -0.198496,-1.292136 -0.580323,-1.777694 0.86256,0.52578 1.080823,1.689144 1.080823,2.777344 v 34 c 0,1.662 -1.338,3.00005 -3,3 l -5,-1.5e-4 c -1.0882,-3.3e-5 -2.0367,-0.57494 -2.5625,-1.4375 z"
     style="color:#000000;opacity:0.5" />
  <path
     id="path6"
     d="m 3.99975,5.000275 v 34 c 0,1.662 1.338,2.99995 3,3 l 5,1.5e-4 c 1.662,5e-5 3,-1.338 3,-3 v -34 c 0,-1.662 -1.338,-2.9999501 -3,-3 l -5,-1.5e-4 c -1.662,-4.99e-5 -3,1.338 -3,3 z"
     style="color:#000000;opacity:0.8" />
  <path
     d="m 6.99975,2.000425 c -1.662,0 -3,1.338 -3,3 v 32.99985 c 0,0.831 0.33275,1.5828 0.875,2.125 l 1.125,-1.125 7,-34.99985 1.125,-1.125 c -0.54225,-0.54225 -1.294,-0.875 -2.125,-0.875 z"
     id="path8"
     style="color:#000000;fill:#444444" />
  <path
     d="m 14.12475,2.875425 -1.125,1.125 -7,34.99985 -1.125,1.125 c 0.54225,0.54225 1.294,0.875 2.125,0.875 h 5 c 1.662,0 3,-1.338 3,-3 V 5.000425 c 0,-0.831 -0.33275,-1.5828 -0.875,-2.125 z"
     id="path10"
     style="color:#000000;fill:#1a1a1a" />
  <path
     d="m 6.99975,3.000425 h 5 c 1.108,0 2,0.892 2,2 v 32.99985 c 0,1.108 -0.892,2 -2,2 h -5 c -1.108,0 -2,-0.892 -2,-2 V 5.000425 c 0,-1.108 0.892,-2 2,-2 z"
     id="path12"
     style="color:#000000;fill:#333333" />
  <path
     d="m 7.99975,3.000425 h 1 v 36.99985 h -1 z"
     id="path14"
     style="color:#000000;fill:#131313" />
  <path
     style="color:#000000;fill:#ea0000"
     id="path18"
     d="m 8.99975,3.000425 h 1 v 36.99985 h -1 z" />
  <path
     style="color:#000000;fill:#515151"
     id="path20"
     d="m 9.99975,3.000425 h 1 v 36.99985 h -1 z" />
</svg>
