<svg width="40" height="16" version="1.1" xmlns="http://www.w3.org/2000/svg"><path d="m3.7942 14.148c.60561.57244 1.4882.85239 2.062.85238l29.657-7e-4c1.4154.00035 2.7757-1.0248 2.9852-2.6991.01105 2.1371-.42549 3.6991-2.3306 3.6991h-29.811c-1.0882 0-2.3492-.62974-2.5625-1.8517z" color="#000000" opacity=".15"/><path d="m3.2942 13.183c.69268.64195 1.4882.81723 2.062.81722l29.555-7e-4c2.1018-5e-5 3.1018-1.6525 3.1018-2.9996v-5c0-.57381-.1985-1.2921-.58032-1.7777.86256.52578 1.0808 1.6891 1.0808 2.7773v5c0 1.662-1.338 3-3 3h-29.657c-1.0882 0-2.5339-.85452-2.5625-1.8165z" color="#000000" opacity=".5"/><path d="m2.3562 6.0005v5c0 1.662 1.338 3 3 3h29.657c1.662 0 3-1.338 3-3v-5c0-1.662-1.338-3-3-3h-29.657c-1.662 0-3 1.338-3 3z" color="#000000" opacity=".8"/><path d="m2 5.0002c0-1.662 1.338-3 3-3h30.001c.831 0 1.5828.33275 2.125.875l-1.125 1.125-32.001 7-1.125 1.125c-.54225-.54225-.875-1.294-.875-2.125z" color="#000000" fill="#444"/><path d="m2.875 12.125 1.125-1.125 32.001-7 1.125-1.125c.54225.54225.875 1.294.875 2.125v5c0 1.662-1.338 3-3 3h-30.001c-.831 0-1.5828-.33275-2.125-.875z" color="#000000" fill="#1a1a1a"/><path d="m3 5.0002v5c0 1.108.892 2 2 2h30.001c1.108 0 2-.892 2-2v-5c0-1.108-.892-2-2-2h-30.001c-1.108 0-2 .892-2 2z" color="#000000" fill="#333"/><path d="m3 6v1h34.001v-1z" color="#000000" fill="#131313"/><path d="m3 7v1h34.001v-1z" color="#000000" fill="#ea0000"/><path d="m3 8v1h34.001v-1z" color="#000000" fill="#515151"/></svg>
