<svg width="26" height="65" version="1.1" xmlns="http://www.w3.org/2000/svg" xmlns:xlink="http://www.w3.org/1999/xlink"><path d="m12 4.999999h2v55.000001h-2z" color="#000000" fill="#050505" stroke-width=".99999994"/><g stroke-width=".99979782"><g transform="translate(-8,-47.999389)"><path d="m8 22.499953h8v.999596h-8z" color="#000000" fill="#050505"/><path d="m8 22.999953h8v.999596h-8z" color="#000000" fill="#404040"/></g><g transform="translate(-8,-28.001147)"><path d="m12 32.501559h6v.999596h-6z" color="#000000" fill="#050505"/><path d="m12 33.001559h6v.999596h-6z" color="#000000" fill="#404040"/></g><g transform="translate(-8,-29.000903)"><path d="m12 42.501307h6v.999596h-6z" color="#000000" fill="#050505"/><path d="m12 43.001307h6v.999596h-6z" color="#000000" fill="#404040"/></g></g><path d="m11 61h4v-57.000001h-4zm1-1v-55h2v55z" fill="#505050" style="paint-order:fill markers stroke"/><g stroke-width=".99979782"><path d="m2 31.500404h8v.999596h-8z" color="#000000" fill="#050505"/><path d="m2 32.000404h8v.999596h-8z" color="#000000" fill="#555"/><g transform="translate(-8,4.51e-4)"><path d="m12 22.499953h6v.999596h-6z" color="#000000" fill="#050505"/><path d="m12 22.999953h6v.999596h-6z" color="#000000" fill="#404040"/></g><g transform="translate(-8,-2.0009545)"><path d="m12 42.501307h6v.999596h-6z" color="#000000" fill="#050505"/><path d="m12 43.001307h6v.999596h-6z" color="#000000" fill="#404040"/></g><g transform="matrix(-1,0,0,1,32,-47.999389)"><path d="m8 22.499953h8v.999596h-8z" color="#000000" fill="#050505"/><path d="m8 22.999953h8v.999596h-8z" color="#000000" fill="#404040"/></g><g transform="translate(-8,-61.999389)"><path d="m8 22.499953h8v.999596h-8z" color="#000000" fill="#050505"/><path d="m8 22.999953h8v.999596h-8z" color="#000000" fill="#404040"/></g><g transform="matrix(-1,0,0,1,32,-61.999389)"><path d="m8 22.499953h8v.999596h-8z" color="#000000" fill="#050505"/><path d="m8 22.999953h8v.999596h-8z" color="#000000" fill="#404040"/></g><g transform="translate(-8,15.998947)"><path d="m12 42.501307h6v.999596h-6z" color="#000000" fill="#050505"/><path d="m12 43.001307h6v.999596h-6z" color="#000000" fill="#404040"/></g><g transform="translate(-8,6.9989959)"><path d="m12 42.501307h6v.999596h-6z" color="#000000" fill="#050505"/><path d="m12 43.001307h6v.999596h-6z" color="#000000" fill="#404040"/></g><g transform="matrix(-1,0,0,1,34,-28.001147)"><path d="m12 32.501559h6v.999596h-6z" color="#000000" fill="#050505"/><path d="m12 33.001559h6v.999596h-6z" color="#000000" fill="#404040"/></g><g transform="matrix(-1,0,0,1,34,-29.000903)"><path d="m12 42.501307h6v.999596h-6z" color="#000000" fill="#050505"/><path d="m12 43.001307h6v.999596h-6z" color="#000000" fill="#404040"/></g><path d="m24 31.500404h-8v.999596h8z" color="#000000" fill="#050505"/><path d="m24 32.000404h-8v.999596h8z" color="#000000" fill="#555"/><g transform="matrix(-1,0,0,1,34,4.51e-4)"><path d="m12 22.499953h6v.999596h-6z" color="#000000" fill="#050505"/><path d="m12 22.999953h6v.999596h-6z" color="#000000" fill="#404040"/></g><g transform="matrix(-1,0,0,1,34,-2.0009545)"><path d="m12 42.501307h6v.999596h-6z" color="#000000" fill="#050505"/><path d="m12 43.001307h6v.999596h-6z" color="#000000" fill="#404040"/></g><g transform="matrix(-1,0,0,1,34,15.998947)"><path d="m12 42.501307h6v.999596h-6z" color="#000000" fill="#050505"/><path d="m12 43.001307h6v.999596h-6z" color="#000000" fill="#404040"/></g><g transform="matrix(-1,0,0,1,34,6.9989959)"><path d="m12 42.501307h6v.999596h-6z" color="#000000" fill="#050505"/><path d="m12 43.001307h6v.999596h-6z" color="#000000" fill="#404040"/></g></g></svg>
