<?xml version="1.0" encoding="UTF-8" standalone="no"?>
<svg
   xmlns:dc="http://purl.org/dc/elements/1.1/"
   xmlns:cc="http://creativecommons.org/ns#"
   xmlns:rdf="http://www.w3.org/1999/02/22-rdf-syntax-ns#"
   xmlns:svg="http://www.w3.org/2000/svg"
   xmlns="http://www.w3.org/2000/svg"
   xmlns:xlink="http://www.w3.org/1999/xlink"
   version="1.1"
   height="106"
   width="46"
   id="svg2">
  <defs
     id="defs4">
    <linearGradient
       id="linearGradient4539-7-1-1-3">
      <stop
         offset="0"
         stop-color="#444"
         id="stop4541-7-0-0-8" />
      <stop
         offset=".5"
         stop-color="#858585"
         id="stop4707-7-2-9" />
      <stop
         offset="1"
         stop-color="#444"
         id="stop4543-9-6-5-5" />
    </linearGradient>
    <linearGradient
       xlink:href="#linearGradient4539-7-1-1-3"
       gradientUnits="userSpaceOnUse"
       y2="948.35999"
       y1="1047.4"
       x2="12"
       x1="12"
       id="linearGradient6215" />
  </defs>
  <metadata
     id="metadata7">
    <rdf:RDF>
      <cc:Work
         rdf:about="">
        <dc:format>image/svg+xml</dc:format>
        <dc:type
           rdf:resource="http://purl.org/dc/dcmitype/StillImage" />
        <dc:title></dc:title>
      </cc:Work>
    </rdf:RDF>
  </metadata>
  <rect
     id="rect4746"
     x="12"
     y="2.0000019"
     width="22"
     height="0.9995957"
     style="color:#000000;fill:#525252;fill-opacity:1;stroke-width:0.99979782" />
  <path
     d="m 16,76.009887 4,-0.01132 v 0.999566 l -4,0.01132 z m -1,-26.028847 5,0.01819 v 0.999566 l -5,-0.01819 z m -1,-23.989686 6,0.0085 v 0.999576 l -6,-0.0085 z m 4,72.009076 2,-8.09e-4 v 0.99957 L 18,99 Z m 0,-1.99914 2,-8.09e-4 v 0.999569 l -2,8.09e-4 z m 0,-1.99914 2,-8.09e-4 v 0.999569 l -2,8.09e-4 z m 0,-1.999141 2,-8.09e-4 v 0.99957 l -2,8.09e-4 z m 0,-1.99914 2,-8.09e-4 v 0.99957 l -2,8.09e-4 z m 0,-1.99914 2,-8.09e-4 v 0.999569 l -2,8.09e-4 z m 0,-1.999141 2,-8.09e-4 v 0.99957 l -2,8.09e-4 z m 0,-1.99914 2,-8.09e-4 v 0.99957 l -2,8.09e-4 z m 0,-1.99914 2,-8.09e-4 v 0.99957 l -2,8.09e-4 z m 0,-1.99914 2,-8.09e-4 v 0.999569 l -2,8.09e-4 z m 0,-1.999141 2,-8.09e-4 v 0.99957 l -2,8.09e-4 z m 0,-3.99828 2,-8.09e-4 v 0.999569 l -2,8.09e-4 z m 0,-1.999141 2,-8.09e-4 v 0.99957 l -2,8.09e-4 z m 0,-1.99914 2,-8.09e-4 v 0.99957 l -2,8.09e-4 z m 0,-1.99914 2,-8.09e-4 v 0.99957 l -2,8.09e-4 z m 0,-1.99914 2,-8.09e-4 v 0.99957 l -2,8.08e-4 z m 0,-1.999141 2,-8.09e-4 v 0.999571 l -2,8.09e-4 z m 0,-1.99914 2,-8.09e-4 v 0.999571 l -2,8.09e-4 z m 0,-1.99914 2,-8.09e-4 v 0.99957 l -2,8.09e-4 z m 0,-1.999141 2,-8.09e-4 v 0.999571 l -2,8.09e-4 z m 0,-1.999144 2,-8.09e-4 v 0.999571 l -2,8.09e-4 z m 0,-1.99914 2,-8.09e-4 v 0.999571 l -2,8.09e-4 z m 0,-2.039159 2,-8.09e-4 v 0.99957 l -2,8.09e-4 z m 0,-3.998281 2,-8.09e-4 v 0.999571 l -2,8.09e-4 z m 0,-1.99914 2,-8.09e-4 v 0.999571 l -2,8.09e-4 z m 0,-1.999144 2,-8.09e-4 v 0.99957 l -2,8.09e-4 z m 0,-1.999141 2,-8.09e-4 v 0.999571 l -2,8.09e-4 z m 0,-1.99914 2,-8.09e-4 v 0.999571 l -2,8.09e-4 z m 0,-1.99914 2,-8.09e-4 v 0.999571 l -2,8.09e-4 z m 0,-1.99914 2,-8.08e-4 v 0.999569 l -2,8.09e-4 z m 0,-1.99914 2,-8.09e-4 v 0.99957 l -2,8.09e-4 z m 0,-1.99914 2,-8.09e-4 v 0.99957 l -2,8.09e-4 z m 0,-1.99914 2,-8.09e-4 v 0.999569 l -2,8.09e-4 z m 0,-1.99914 2,-8.09e-4 v 0.999569 l -2,8.09e-4 z m 0,-3.998281 2,-8.09e-4 v 0.99957 l -2,8.09e-4 z m 0,-1.99914 2,-8.09e-4 v 0.999569 l -2,8.09e-4 z m 0,-1.999141 2,-8.09e-4 v 0.99957 l -2,8.09e-4 z m 0,-1.99914 2,-8.09e-4 v 0.99957 l -2,8.09e-4 z m 0,-1.999141 2,-8.09e-4 v 0.99957 l -2,8.09e-4 z m 0,-1.99914 2,-8.09e-4 v 0.999569 l -2,8.09e-4 z m 0,-1.999141 2,-8.09e-4 v 0.99957 l -2,8.09e-4 z m 0,-1.9991401 2,-8.094e-4 v 0.9995705 l -2,8.09e-4 z m 0,-1.9991408 2,-8.094e-4 v 0.9995702 l -2,8.094e-4 z m 0,-1.9991402 2,-8.093e-4 v 0.9995702 l -2,8.093e-4 z M 18,4.0008094 20,4 v 0.9995702 l -2,8.094e-4 z"
     style="color:#000000;fill:#666666;fill-opacity:1;stroke-width:0.99978507"
     id="rect4752" />
  <rect
     id="rect4754"
     x="17"
     y="100.0004"
     width="12"
     height="0.9995957"
     style="color:#000000;fill:#525252;fill-opacity:1;stroke-width:0.99979782" />
  <rect
     style="color:#000000;fill:#030303;fill-opacity:1"
     height="95"
     width="4"
     y="4"
     x="21"
     id="rect5098" />
  <path
     d="m 20,75.999588 1,-3e-6 v 0.999557 l -1,3e-6 z m 0,-25.999121 1,-3e-6 v 0.999558 l -1,3e-6 z m 0,-23.999197 1,-3e-6 v 0.999567 l -1,3e-6 z m 0,71.997568 1,0.0016 V 99 l -1,-0.0016 z m 0,-1.999123 1,0.0016 v 0.999561 l -1,-0.0016 z m 0,-1.999124 1,0.0016 v 0.999561 l -1,-0.0016 z m 0,-1.999124 1,0.0016 v 0.999562 l -1,-0.0016 z m 0,-1.999123 1,0.0016 v 0.999562 l -1,-0.0016 z m 0,-1.999124 1,0.0016 v 0.999561 l -1,-0.0016 z m 0,-1.999124 1,0.0016 v 0.999562 l -1,-0.0016 z m 0,-1.999123 1,0.0016 v 0.999562 l -1,-0.0016 z m 0,-1.999124 1,0.0016 v 0.999562 l -1,-0.0016 z m 0,-1.999123 1,0.0016 v 0.999561 l -1,-0.0016 z m 0,-1.999124 1,0.0016 v 0.999575 l -1,-0.0016 z m 0,-3.998247 1,0.0016 v 0.999561 l -1,-0.0016 z m 0,-1.999124 1,0.0016 v 0.999562 l -1,-0.0016 z m 0,-1.999124 1,0.0016 v 0.999562 l -1,-0.0016 z m 0,-1.999123 1,0.0016 v 0.999562 l -1,-0.0016 z m 0,-1.999123 1,0.0016 v 0.999561 l -1,-0.0016 z m 0,-1.999125 1,0.0016 v 0.999562 l -1,-0.0016 z m 0,-1.999123 1,0.0016 v 0.999562 l -1,-0.0016 z m 0,-1.999123 1,0.0016 v 0.999561 l -1,-0.0016 z m 0,-1.999125 1,0.0016 v 0.999563 l -1,-0.0016 z m 0,-1.999127 1,0.0016 V 57.0184 l -1,-0.0016 z m 0,-1.999123 1,0.0016 v 0.999562 l -1,-0.0016 z m 0,-2.039142 1,0.0016 v 0.999561 l -1,-0.0016 z m 0,-3.998248 1,0.0016 v 0.999562 l -1,-0.0016 z m 0,-1.999123 1,0.0016 v 0.999562 l -1,-0.0016 z m 0,-1.999128 1,0.0016 v 0.999562 l -1,-0.0016 z m 0,-1.999124 1,0.0016 v 0.999562 l -1,-0.0016 z m 0,-1.999123 1,0.0016 v 0.999562 l -1,-0.0016 z m 0,-1.999123 1,0.0016 v 0.999563 l -1,-0.0016 z m 0,-1.999124 1,0.0016 v 0.999561 l -1,-0.0016 z m 0,-1.999124 1,0.0016 v 0.999562 l -1,-0.0016 z m 0,-1.999123 1,0.0016 v 0.999563 l -1,-0.0016 z m 0,-1.999124 1,0.0016 v 0.999561 l -1,-0.0016 z m 0,-1.999123 1,0.0016 v 0.999561 l -1,-0.0016 z m 0,-3.998248 1,0.0016 V 24.9924 l -1,-0.0016 z m 0,-1.999123 1,0.0016 v 0.999561 l -1,-0.0016 z m 0,-1.999124 1,0.0016 v 0.999562 l -1,-0.0016 z m 0,-1.999124 1,0.0016 v 0.999562 l -1,-0.0016 z m 0,-1.999124 1,0.0016 v 0.999562 l -1,-0.0016 z m 0,-1.999123 1,0.0016 v 0.999561 l -1,-0.0016 z m 0,-1.999125 1,0.0016 v 0.999562 l -1,-0.0016 z m 0,-1.9991234 1,0.00161 v 0.9995624 l -1,-0.0016 z m 0,-1.9991242 1,0.00161 v 0.9995619 l -1,-0.00161 z m 0,-1.9991235 1,0.00161 v 0.9995618 l -1,-0.00161 z M 20,4 21,4.00161 v 0.9995619 l -1,-0.00161 z"
     style="color:#000000;fill:#434343;fill-opacity:1;stroke-width:0.99978089"
     id="rect4752-7" />
  <path
     d="m 30,76.010696 -4,-0.01132 v 0.999566 l 4,0.01132 z m 1,-26.028847 -5,0.01819 v 0.999566 l 5,-0.01819 z m 1,-23.989686 -6,0.0085 v 0.999576 l 6,-0.0085 z M 28,98.001239 26,98.00043 V 99 l 2,8.09e-4 z m 0,-1.99914 -2,-8.09e-4 v 0.999569 l 2,8.09e-4 z m 0,-1.99914 -2,-8.09e-4 v 0.999569 l 2,8.09e-4 z m 0,-1.999141 -2,-8.09e-4 v 0.99957 l 2,8.09e-4 z m 0,-1.99914 -2,-8.09e-4 v 0.99957 l 2,8.09e-4 z m 0,-1.99914 -2,-8.09e-4 v 0.999569 l 2,8.09e-4 z m 0,-1.999141 -2,-8.09e-4 v 0.99957 l 2,8.09e-4 z m 0,-1.99914 -2,-8.09e-4 v 0.99957 l 2,8.09e-4 z m 0,-1.99914 -2,-8.09e-4 v 0.99957 l 2,8.09e-4 z m 0,-1.99914 -2,-8.09e-4 v 0.999569 l 2,8.09e-4 z m 0,-1.999141 -2,-8.09e-4 v 0.99957 l 2,8.09e-4 z m 0,-3.99828 -2,-8.09e-4 v 0.999569 l 2,8.09e-4 z m 0,-1.999141 -2,-8.09e-4 v 0.99957 l 2,8.09e-4 z m 0,-1.99914 -2,-8.09e-4 v 0.99957 l 2,8.09e-4 z m 0,-1.99914 -2,-8.09e-4 v 0.99957 l 2,8.09e-4 z m 0,-1.99914 -2,-8.09e-4 v 0.99957 l 2,8.08e-4 z m 0,-1.999141 -2,-8.09e-4 v 0.999571 l 2,8.09e-4 z m 0,-1.99914 -2,-8.09e-4 v 0.999571 l 2,8.09e-4 z m 0,-1.99914 -2,-8.09e-4 v 0.99957 l 2,8.09e-4 z m 0,-1.999141 -2,-8.09e-4 v 0.999571 l 2,8.09e-4 z m 0,-1.999144 -2,-8.09e-4 v 0.999571 l 2,8.09e-4 z m 0,-1.99914 -2,-8.09e-4 v 0.999571 l 2,8.09e-4 z m 0,-2.039159 -2,-8.09e-4 v 0.99957 l 2,8.09e-4 z m 0,-3.998281 -2,-8.09e-4 v 0.999571 l 2,8.09e-4 z m 0,-1.99914 -2,-8.09e-4 v 0.999571 l 2,8.09e-4 z m 0,-1.999144 -2,-8.09e-4 v 0.99957 l 2,8.09e-4 z m 0,-1.999141 -2,-8.09e-4 v 0.999571 l 2,8.09e-4 z m 0,-1.99914 -2,-8.09e-4 v 0.999571 l 2,8.09e-4 z m 0,-1.99914 -2,-8.09e-4 v 0.999571 l 2,8.09e-4 z m 0,-1.99914 -2,-8.08e-4 v 0.999569 l 2,8.09e-4 z m 0,-1.99914 -2,-8.09e-4 v 0.99957 l 2,8.09e-4 z m 0,-1.99914 -2,-8.09e-4 v 0.99957 l 2,8.09e-4 z m 0,-1.99914 -2,-8.09e-4 v 0.999569 l 2,8.09e-4 z m 0,-1.99914 -2,-8.09e-4 v 0.999569 l 2,8.09e-4 z m 0,-3.998281 -2,-8.09e-4 v 0.99957 l 2,8.09e-4 z m 0,-1.99914 -2,-8.09e-4 v 0.999569 l 2,8.09e-4 z m 0,-1.999141 -2,-8.09e-4 v 0.99957 l 2,8.09e-4 z m 0,-1.99914 -2,-8.09e-4 v 0.99957 l 2,8.09e-4 z m 0,-1.999141 -2,-8.09e-4 v 0.99957 l 2,8.09e-4 z m 0,-1.99914 -2,-8.09e-4 v 0.999569 l 2,8.09e-4 z m 0,-1.999141 -2,-8.09e-4 v 0.99957 l 2,8.09e-4 z m 0,-1.9991401 -2,-8.094e-4 v 0.9995705 l 2,8.09e-4 z m 0,-1.9991408 -2,-8.094e-4 v 0.9995702 l 2,8.094e-4 z m 0,-1.9991402 -2,-8.093e-4 v 0.9995702 l 2,8.093e-4 z M 28,4.0016184 26,4.000809 v 0.9995702 l 2,8.094e-4 z"
     style="color:#000000;fill:#525252;fill-opacity:1;stroke-width:0.99978507"
     id="rect4752-2" />
  <path
     d="m 26,76.000397 -1,-3e-6 v 0.999557 l 1,3e-6 z m 0,-25.999121 -1,-3e-6 v 0.999558 l 1,3e-6 z m 0,-23.999197 -1,-3e-6 v 0.999567 l 1,3e-6 z m 0,71.997568 -1,0.0016 v 0.999562 l 1,-0.0016 z m 0,-1.999123 -1,0.0016 v 0.999561 l 1,-0.0016 z M 26,94.0014 25,94.003 v 0.999561 l 1,-0.0016 z m 0,-1.999124 -1,0.0016 v 0.999562 l 1,-0.0016 z m 0,-1.999123 -1,0.0016 v 0.999562 l 1,-0.0016 z m 0,-1.999124 -1,0.0016 v 0.999561 l 1,-0.0016 z m 0,-1.999124 -1,0.0016 v 0.999562 l 1,-0.0016 z m 0,-1.999123 -1,0.0016 v 0.999562 l 1,-0.0016 z m 0,-1.999124 -1,0.0016 v 0.999562 l 1,-0.0016 z m 0,-1.999123 -1,0.0016 v 0.999561 l 1,-0.0016 z m 0,-1.999124 -1,0.0016 v 0.999575 l 1,-0.0016 z m 0,-3.998247 -1,0.0016 v 0.999561 l 1,-0.0016 z m 0,-1.999124 -1,0.0016 v 0.999562 l 1,-0.0016 z m 0,-1.999124 -1,0.0016 v 0.999562 l 1,-0.0016 z m 0,-1.999123 -1,0.0016 v 0.999562 l 1,-0.0016 z m 0,-1.999123 -1,0.0016 v 0.999561 l 1,-0.0016 z m 0,-1.999125 -1,0.0016 v 0.999562 l 1,-0.0016 z m 0,-1.999123 -1,0.0016 v 0.999562 l 1,-0.0016 z m 0,-1.999123 -1,0.0016 v 0.999561 l 1,-0.0016 z m 0,-1.999125 -1,0.0016 v 0.999563 l 1,-0.0016 z m 0,-1.999127 -1,0.0016 v 0.999562 l 1,-0.0016 z m 0,-1.999123 -1,0.0016 v 0.999562 l 1,-0.0016 z m 0,-2.039142 -1,0.0016 v 0.999561 l 1,-0.0016 z m 0,-3.998248 -1,0.0016 v 0.999562 l 1,-0.0016 z m 0,-1.999123 -1,0.0016 v 0.999562 l 1,-0.0016 z m 0,-1.999128 -1,0.0016 v 0.999562 l 1,-0.0016 z m 0,-1.999124 -1,0.0016 v 0.999562 l 1,-0.0016 z m 0,-1.999123 -1,0.0016 v 0.999562 l 1,-0.0016 z m 0,-1.999123 -1,0.0016 v 0.999563 l 1,-0.0016 z m 0,-1.999124 -1,0.0016 v 0.999561 l 1,-0.0016 z m 0,-1.999124 -1,0.0016 v 0.999562 l 1,-0.0016 z m 0,-1.999123 -1,0.0016 v 0.999563 l 1,-0.0016 z m 0,-1.999124 -1,0.0016 v 0.999561 l 1,-0.0016 z m 0,-1.999123 -1,0.0016 v 0.999561 l 1,-0.0016 z m 0,-3.998248 -1,0.0016 v 0.999562 l 1,-0.0016 z m 0,-1.999123 -1,0.0016 v 0.999561 l 1,-0.0016 z m 0,-1.999124 -1,0.0016 v 0.999562 l 1,-0.0016 z m 0,-1.999124 -1,0.0016 v 0.999562 l 1,-0.0016 z m 0,-1.999124 -1,0.0016 v 0.999562 l 1,-0.0016 z m 0,-1.999123 -1,0.0016 v 0.999561 l 1,-0.0016 z m 0,-1.999125 -1,0.0016 v 0.999562 l 1,-0.0016 z m 0,-1.9991234 -1,0.00161 v 0.9995624 l 1,-0.0016 z m 0,-1.9991242 -1,0.00161 v 0.9995619 l 1,-0.00161 z m 0,-1.9991235 -1,0.00161 v 0.9995618 l 1,-0.00161 z m 0,-1.9991239 -1,0.00161 v 0.9995619 l 1,-0.00161 z"
     style="color:#000000;fill:#6e6e6e;fill-opacity:1;stroke-width:0.99978089"
     id="rect4752-7-0" />
  <path
     d="m 20,74.983375 1,-3e-6 v 0.999557 l -1,3e-6 z m 0,-25.999121 1,-3e-6 v 0.999558 l -1,3e-6 z m 0,-23.999197 1,-3e-6 v 0.999567 l -1,3e-6 z m 0,71.997568 1,0.0016 v 0.999562 l -1,-0.0016 z m 0,-1.999123 1,0.0016 v 0.999561 l -1,-0.0016 z m 0,-1.999124 1,0.0016 v 0.999561 l -1,-0.0016 z m 0,-1.999124 1,0.0016 v 0.999562 l -1,-0.0016 z m 0,-1.999123 1,0.0016 v 0.999562 l -1,-0.0016 z m 0,-1.999124 1,0.0016 v 0.999561 l -1,-0.0016 z m 0,-1.999124 1,0.0016 v 0.999562 l -1,-0.0016 z m 0,-1.999123 1,0.0016 v 0.999562 l -1,-0.0016 z m 0,-1.999124 1,0.0016 v 0.999562 l -1,-0.0016 z m 0,-1.999123 1,0.0016 v 0.999561 l -1,-0.0016 z m 0,-1.999124 1,0.0016 v 0.999575 l -1,-0.0016 z m 0,-3.998247 1,0.0016 v 0.999561 l -1,-0.0016 z m 0,-1.999124 1,0.0016 v 0.999562 l -1,-0.0016 z m 0,-1.999124 1,0.0016 v 0.999562 l -1,-0.0016 z m 0,-1.999123 1,0.0016 v 0.999562 l -1,-0.0016 z m 0,-1.999123 1,0.0016 v 0.999561 l -1,-0.0016 z m 0,-1.999125 1,0.0016 v 0.999562 l -1,-0.0016 z M 20,60.9984 21,61 v 0.999562 l -1,-0.0016 z m 0,-1.999123 1,0.0016 v 0.999561 l -1,-0.0016 z m 0,-1.999125 1,0.0016 v 0.999563 l -1,-0.0016 z m 0,-1.999127 1,0.0016 v 0.999562 l -1,-0.0016 z m 0,-1.999123 1,0.0016 v 0.999562 l -1,-0.0016 z m 0,-2.039142 1,0.0016 v 0.999561 l -1,-0.0016 z m 0,-3.998248 1,0.0016 v 0.999562 l -1,-0.0016 z m 0,-1.999123 1,0.0016 v 0.999562 l -1,-0.0016 z m 0,-1.999128 1,0.0016 v 0.999562 l -1,-0.0016 z m 0,-1.999124 1,0.0016 v 0.999562 l -1,-0.0016 z m 0,-1.999123 1,0.0016 v 0.999562 l -1,-0.0016 z m 0,-1.999123 1,0.0016 v 0.999563 l -1,-0.0016 z m 0,-1.999124 1,0.0016 v 0.999561 l -1,-0.0016 z m 0,-1.999124 1,0.0016 v 0.999562 l -1,-0.0016 z m 0,-1.999123 1,0.0016 v 0.999563 l -1,-0.0016 z m 0,-1.999124 1,0.0016 v 0.999561 l -1,-0.0016 z m 0,-1.999123 1,0.0016 v 0.999561 l -1,-0.0016 z m 0,-3.998248 1,0.0016 v 0.999562 l -1,-0.0016 z m 0,-1.999123 1,0.0016 v 0.999561 l -1,-0.0016 z m 0,-1.999124 1,0.0016 v 0.999562 l -1,-0.0016 z m 0,-1.999124 1,0.0016 v 0.999562 l -1,-0.0016 z m 0,-1.999124 1,0.0016 v 0.999562 l -1,-0.0016 z m 0,-1.999123 1,0.0016 v 0.999561 l -1,-0.0016 z m 0,-1.999125 1,0.0016 v 0.999562 l -1,-0.0016 z m 0,-1.9991234 1,0.00161 V 9.982331 l -1,-0.0016 z m 0,-1.9991242 1,0.00161 v 0.9995619 l -1,-0.00161 z m 0,-1.9991235 1,0.00161 v 0.9995618 l -1,-0.00161 z"
     style="color:#000000;fill:#101010;fill-opacity:1;stroke-width:0.99978089"
     id="rect4752-7-2" />
  <path
     id="rect1769"
     d="m 21,99 h 4 V 4 h -4 z m 1,-1 V 5 h 2 v 93 z"
     style="display:inline;opacity:1;fill:#0f0f0f;fill-opacity:1;stroke:none;stroke-width:2.4370873;stroke-linecap:round;stroke-linejoin:round;stroke-miterlimit:4;stroke-dasharray:none;stroke-opacity:1;paint-order:fill markers stroke" />
</svg>
