<svg width="40" height="113" version="1.1" xmlns="http://www.w3.org/2000/svg"><path d="m18 7h4v99h-4z" color="#000000" fill="#050505" stroke-width=".99999994"/><g transform="translate(0,-1.9993888)" stroke-width=".99979782"><path d="m8 22.499953h8v.999596h-8z" color="#000000" fill="#050505"/><path d="m8 22.999953h8v.999596h-8z" color="#000000" fill="#404040"/></g><g transform="translate(0 -.0010482)" stroke-width=".99979782"><path d="m8 32.501559h8v.999596h-8z" color="#000000" fill="#050505"/><path d="m8 33.001559h8v.999596h-8z" color="#000000" fill="#404040"/></g><g transform="translate(0,1.9991504)" stroke-width=".99979782"><path d="m8 42.501307h8v.999596h-8z" color="#000000" fill="#050505"/><path d="m8 43.001307h8v.999596h-8z" color="#000000" fill="#404040"/></g><path d="m17 107h6v-101h-6zm1-1v-98.999999h4v98.999999z" fill="#505050" style="paint-order:fill markers stroke"/><path d="m6 56.500404h10v.999596h-10z" color="#000000" fill="#050505" stroke-width=".99979782"/><path d="m6 57.000404h10v.999596h-10z" color="#000000" fill="#555" stroke-width=".99979782"/><g transform="translate(0,46.000408)" stroke-width=".99979782"><path d="m8 22.499953h8v.999596h-8z" color="#000000" fill="#050505"/><path d="m8 22.999953h8v.999596h-8z" color="#000000" fill="#404040"/></g><g transform="translate(0,47.998749)" stroke-width=".99979782"><path d="m8 32.501559h8v.999596h-8z" color="#000000" fill="#050505"/><path d="m8 33.001559h8v.999596h-8z" color="#000000" fill="#404040"/></g><g transform="translate(0,49.998947)" stroke-width=".99979782"><path d="m8 42.501307h8v.999596h-8z" color="#000000" fill="#050505"/><path d="m8 43.001307h8v.999596h-8z" color="#000000" fill="#404040"/></g><g transform="matrix(-1,0,0,1,40,-1.999389)" stroke-width=".99979782"><path d="m8 22.499953h8v.999596h-8z" color="#000000" fill="#050505"/><path d="m8 22.999953h8v.999596h-8z" color="#000000" fill="#404040"/></g><g transform="matrix(-1 0 0 1 40 -.0010483)" stroke-width=".99979782"><path d="m8 32.501559h8v.999596h-8z" color="#000000" fill="#050505"/><path d="m8 33.001559h8v.999596h-8z" color="#000000" fill="#404040"/></g><g transform="matrix(-1,0,0,1,40,1.9991503)" stroke-width=".99979782"><path d="m8 42.501307h8v.999596h-8z" color="#000000" fill="#050505"/><path d="m8 43.001307h8v.999596h-8z" color="#000000" fill="#404040"/></g><path d="m34 56.500404h-10v.999596h10z" color="#000000" fill="#050505" stroke-width=".99979782"/><path d="m34 57.000404h-10v.999596h10z" color="#000000" fill="#555" stroke-width=".99979782"/><g transform="matrix(-1,0,0,1,40,46.000408)" stroke-width=".99979782"><path d="m8 22.499953h8v.999596h-8z" color="#000000" fill="#050505"/><path d="m8 22.999953h8v.999596h-8z" color="#000000" fill="#404040"/></g><g transform="matrix(-1,0,0,1,40,47.998749)" stroke-width=".99979782"><path d="m8 32.501559h8v.999596h-8z" color="#000000" fill="#050505"/><path d="m8 33.001559h8v.999596h-8z" color="#000000" fill="#404040"/></g><g transform="matrix(-1,0,0,1,40,49.998947)" stroke-width=".99979782"><path d="m8 42.501307h8v.999596h-8z" color="#000000" fill="#050505"/><path d="m8 43.001307h8v.999596h-8z" color="#000000" fill="#404040"/></g><g transform="translate(0,-15.999389)" stroke-width=".99979782"><path d="m8 22.499953h8v.999596h-8z" color="#000000" fill="#050505"/><path d="m8 22.999953h8v.999596h-8z" color="#000000" fill="#404040"/></g><g transform="matrix(-1,0,0,1,40,-15.999389)" stroke-width=".99979782"><path d="m8 22.499953h8v.999596h-8z" color="#000000" fill="#050505"/><path d="m8 22.999953h8v.999596h-8z" color="#000000" fill="#404040"/></g><g transform="translate(0,61.998947)" stroke-width=".99979782"><path d="m8 42.501307h8v.999596h-8z" color="#000000" fill="#050505"/><path d="m8 43.001307h8v.999596h-8z" color="#000000" fill="#404040"/></g><g transform="matrix(-1,0,0,1,40,61.998947)" stroke-width=".99979782"><path d="m8 42.501307h8v.999596h-8z" color="#000000" fill="#050505"/><path d="m8 43.001307h8v.999596h-8z" color="#000000" fill="#404040"/></g></svg>
