<?xml version="1.0" encoding="UTF-8" standalone="no"?>
<svg
   xmlns:dc="http://purl.org/dc/elements/1.1/"
   xmlns:cc="http://creativecommons.org/ns#"
   xmlns:rdf="http://www.w3.org/1999/02/22-rdf-syntax-ns#"
   xmlns:svg="http://www.w3.org/2000/svg"
   xmlns="http://www.w3.org/2000/svg"
   xmlns:xlink="http://www.w3.org/1999/xlink"
   version="1.1"
   height="65"
   width="26"
   id="svg9398">
  <defs
     id="defs9400">
    <linearGradient
       id="linearGradient9783-2">
      <stop
         offset="0"
         stop-color="#464646"
         id="stop9785-4" />
      <stop
         offset=".5"
         stop-color="#828282"
         id="stop9787-9" />
      <stop
         offset="1"
         stop-color="#464646"
         id="stop9789-9" />
    </linearGradient>
    <linearGradient
       xlink:href="#linearGradient9783-2"
       gradientUnits="userSpaceOnUse"
       y2="1049.4"
       y1="988.36"
       x2="3"
       x1="3"
       id="linearGradient11945" />
  </defs>
  <metadata
     id="metadata9403">
    <rdf:RDF>
      <cc:Work
         rdf:about="">
        <dc:format>image/svg+xml</dc:format>
        <dc:type
           rdf:resource="http://purl.org/dc/dcmitype/StillImage" />
        <dc:title></dc:title>
      </cc:Work>
    </rdf:RDF>
  </metadata>
  <path
     style="color:#000000;fill:#5c5c5c;fill-opacity:1;stroke-width:0.89442718"
     d="M 5,0.99998619 H 21 V 1.9999862 H 5 Z"
     id="use3364" />
  <path
     style="color:#000000;fill:#5c5c5c;fill-opacity:1"
     d="m 10,2.9999862 h 6 v 1 h -6 z"
     id="use3366" />
  <path
     style="color:#000000;fill:#5c5c5c;fill-opacity:1"
     d="m 10,4.99999 h 6 v 1 h -6 z"
     id="use3368" />
  <path
     style="color:#000000;fill:#5c5c5c;fill-opacity:1"
     d="m 10,6.99999 h 6 v 1 h -6 z"
     id="use3370" />
  <path
     style="color:#000000;fill:#5c5c5c;fill-opacity:1"
     d="m 10,10.99999 h 6 v 1 h -6 z"
     id="use3374" />
  <path
     style="color:#000000;fill:#5c5c5c;fill-opacity:1"
     d="m 10,12.999989 h 6 v 1 h -6 z"
     id="use3376" />
  <path
     style="color:#000000;fill:#5c5c5c;fill-opacity:1;stroke-width:1.09544516"
     d="m 7,14.999989 h 12 v 1 H 7 Z"
     id="use3378" />
  <path
     style="color:#000000;fill:#5c5c5c;fill-opacity:1"
     d="m 10,16.999989 h 6 v 1 h -6 z"
     id="use3380" />
  <path
     style="color:#000000;fill:#5c5c5c;fill-opacity:1"
     d="m 10,18.999992 h 6 v 1 h -6 z"
     id="use3382" />
  <path
     style="color:#000000;fill:#5c5c5c;fill-opacity:1"
     d="m 10,20.999992 h 6 v 1 h -6 z"
     id="use3384" />
  <path
     style="color:#000000;fill:#5c5c5c;fill-opacity:1"
     d="m 10,22.999992 h 6 v 1 h -6 z"
     id="use3386" />
  <path
     style="color:#000000;fill:#5c5c5c;fill-opacity:1"
     d="m 10,24.999992 h 6 v 1 h -6 z"
     id="use3388" />
  <path
     style="color:#000000;fill:#5c5c5c;fill-opacity:1"
     d="m 10,26.999992 h 6 v 1 h -6 z"
     id="use3390" />
  <path
     style="color:#000000;fill:#5c5c5c;fill-opacity:1"
     d="m 10,28.999992 h 6 v 1 h -6 z"
     id="use3392" />
  <path
     style="color:#000000;fill:#5c5c5c;fill-opacity:1"
     d="m 9,30.999992 h 8 v 1 H 9 Z"
     id="use3394" />
  <path
     style="color:#000000;fill:#5c5c5c;fill-opacity:1"
     d="m 10,32.999994 h 6 v 1 h -6 z"
     id="use3396" />
  <path
     style="color:#000000;fill:#5c5c5c;fill-opacity:1"
     d="m 10,36.999994 h 6 v 1 h -6 z"
     id="use3400" />
  <path
     style="color:#000000;fill:#5c5c5c;fill-opacity:1"
     d="m 10,38.999996 h 6 v 1 h -6 z"
     id="use3402" />
  <path
     style="color:#000000;fill:#5c5c5c;fill-opacity:1"
     d="m 10,40.999996 h 6 v 1 h -6 z"
     id="use3404" />
  <path
     style="color:#000000;fill:#5c5c5c;fill-opacity:1"
     d="m 10,42.999996 h 6 v 1 h -6 z"
     id="use3406" />
  <path
     style="color:#000000;fill:#5c5c5c;fill-opacity:1"
     d="m 10,44.999996 h 6 v 1 h -6 z"
     id="use3408" />
  <path
     style="color:#000000;fill:#5c5c5c;fill-opacity:1;stroke-width:1.09544516"
     d="m 7,46.999996 h 12 v 1 H 7 Z"
     id="use3410" />
  <path
     style="color:#000000;fill:#5c5c5c;fill-opacity:1"
     d="m 10,48.999998 h 6 v 1 h -6 z"
     id="use3412" />
  <path
     style="color:#000000;fill:#5c5c5c;fill-opacity:1"
     d="m 10,50.999998 h 6 v 1 h -6 z"
     id="use3414" />
  <path
     style="color:#000000;fill:#5c5c5c;fill-opacity:1"
     d="m 10,52.999998 h 6 v 1 h -6 z"
     id="use3416" />
  <path
     style="color:#000000;fill:#5c5c5c;fill-opacity:1"
     d="m 10,54.999999 h 6 v 1 h -6 z"
     id="use3418" />
  <path
     style="color:#000000;fill:#5c5c5c;fill-opacity:1"
     d="m 10,57 h 6 v 1 h -6 z"
     id="use3420" />
  <path
     style="color:#000000;fill:#5c5c5c;fill-opacity:1"
     d="m 10,8.99999 h 6 v 1 h -6 z"
     id="rect4750" />
  <path
     style="color:#000000;fill:#5c5c5c;fill-opacity:1"
     d="m 10,34.999994 h 6 v 1 h -6 z"
     id="rect4752" />
  <path
     style="color:#000000;fill:#5c5c5c;fill-opacity:1"
     d="m 10,59 h 6 v 1 h -6 z"
     id="rect4754" />
  <path
     style="color:#000000;fill:#5c5c5c;fill-opacity:1;stroke-width:0.89442718"
     d="m 5,61.04 h 16 v 1 H 5 Z"
     id="rect4754-3" />
  <path
     id="rect5098"
     d="m 12,3 h 2 v 57 h -2 z"
     style="color:#000000;fill:#000000;fill-opacity:1" />
  <g
     id="g172"
     style="fill:#434343;stroke-width:0.99978"
     transform="translate(-23.131356,-10)">
    <path
       d="m 16,75 h 1 v 0.9995 h -1 z"
       id="path76"
       style="color:#000000" />
    <path
       d="m 16,49 1,-1e-5 v 0.99956 h -1 z"
       id="path78"
       style="color:#000000" />
    <path
       d="m 16,25.001 h 1 v 0.99956 l -1,10e-6 z"
       id="path80"
       style="color:#000000" />
    <path
       d="m 16,96.999 h 1 v 0.9996 h -1 z"
       id="path82"
       style="color:#000000" />
    <path
       d="m 16,95 h 1 v 0.9996 h -1 z"
       id="path84"
       style="color:#000000" />
    <path
       d="m 16,93.001 h 1 v 0.9996 h -1 z"
       id="path86"
       style="color:#000000" />
    <path
       d="m 16,91.002 h 1 v 0.9995 h -1 z"
       id="path88"
       style="color:#000000" />
    <path
       d="m 16,89.002 h 1 v 0.9996 h -1 z"
       id="path90"
       style="color:#000000" />
    <path
       d="m 16,87.003 h 1 v 0.9996 h -1 z"
       id="path92"
       style="color:#000000" />
    <path
       d="m 16,85.004 h 1 v 0.9996 h -1 z"
       id="path94"
       style="color:#000000" />
    <path
       d="m 16,83.005 h 1 v 0.9995 h -1 z"
       id="path96"
       style="color:#000000" />
    <path
       d="m 16,81.006 h 1 v 0.9996 h -1 z"
       id="path98"
       style="color:#000000" />
    <path
       d="m 16,79.007 h 1 v 0.9996 h -1 z"
       id="path100"
       style="color:#000000" />
    <path
       d="m 16,77.008 h 1 v 0.9996 h -1 z"
       id="path102"
       style="color:#000000" />
    <path
       d="m 16,73.009 h 1 v 0.9995 h -1 z"
       id="path104"
       style="color:#000000" />
    <path
       d="m 16,71.01 h 1 v 0.9996 h -1 z"
       id="path106"
       style="color:#000000" />
    <path
       d="m 16,69.011 h 1 v 0.9996 h -1 z"
       id="path108"
       style="color:#000000" />
    <path
       d="m 16,67.012 h 1 v 0.9995 h -1 z"
       id="path110"
       style="color:#000000" />
    <path
       d="m 16,65.013 h 1 v 0.9995 h -1 z"
       id="path112"
       style="color:#000000" />
    <path
       d="m 16,63.014 h 1 v 0.9996 h -1 z"
       id="path114"
       style="color:#000000" />
    <path
       d="m 16,61.015 h 1 v 0.9996 h -1 z"
       id="path116"
       style="color:#000000" />
    <path
       d="m 16,59.016 h 1 v 0.9995 h -1 z"
       id="path118"
       style="color:#000000" />
    <path
       d="m 16,57.016 h 1 v 0.9995 h -1 z"
       id="path120"
       style="color:#000000" />
    <path
       d="m 16,55.017 h 1 v 0.9996 h -1 z"
       id="path122"
       style="color:#000000" />
    <path
       d="m 16,53.018 h 1 v 0.9996 h -1 z"
       id="path124"
       style="color:#000000;fill:#434343;fill-opacity:1" />
    <path
       d="m 16,50.979 1,0.002 v 0.99956 l -1,-0.002 z"
       id="path126"
       style="color:#000000" />
    <path
       d="m 16,46.981 1,0.002 v 0.99957 l -1,-0.002 z"
       id="path128"
       style="color:#000000" />
    <path
       d="m 16,44.982 1,0.002 v 0.99956 l -1,-0.002 z"
       id="path130"
       style="color:#000000" />
    <path
       d="m 16,42.982 1,0.002 v 0.99956 l -1,-0.002 z"
       id="path132"
       style="color:#000000" />
    <path
       d="m 16,40.983 1,0.002 v 0.99956 l -1,-0.002 z"
       id="path134"
       style="color:#000000" />
    <path
       d="m 16,38.984 1,0.002 v 0.99956 l -1,-0.002 z"
       id="path136"
       style="color:#000000" />
    <path
       d="m 16,36.985 1,0.002 v 0.99957 l -1,-0.002 z"
       id="path138"
       style="color:#000000" />
    <path
       d="m 16,34.986 1,0.002 v 0.99956 l -1,-0.002 z"
       id="path140"
       style="color:#000000" />
    <path
       d="m 16,32.987 1,0.002 v 0.99957 l -1,-0.002 z"
       id="path142"
       style="color:#000000" />
    <path
       d="m 16,30.988 1,0.002 v 0.99956 l -1,-0.002 z"
       id="path144"
       style="color:#000000" />
    <path
       d="m 16,28.989 1,0.002 v 0.99956 l -1,-0.002 z"
       id="path146"
       style="color:#000000" />
    <path
       d="m 16,26.989 1,0.002 v 0.99957 l -1,-0.002 z"
       id="path148"
       style="color:#000000" />
    <path
       d="m 16,22.991 1,0.002 v 0.99956 l -1,-0.002 z"
       id="path150"
       style="color:#000000" />
    <path
       d="m 16,20.992 1,0.002 v 0.99956 l -1,-0.002 z"
       id="path152"
       style="color:#000000" />
    <path
       d="m 16,18.993 1,0.002 v 0.99956 l -1,-0.002 z"
       id="path154"
       style="color:#000000" />
    <path
       d="m 16,16.994 1,0.002 v 0.99956 l -1,-0.002 z"
       id="path156"
       style="color:#000000" />
    <path
       d="m 16,14.995 1,0.002 v 0.99956 l -1,-0.002 z"
       id="path158"
       style="color:#000000" />
    <path
       d="m 16,12.996 1,0.002 v 0.99956 l -1,-0.002 z"
       id="path160"
       style="color:#000000" />
    <path
       d="m 16,10.996 1,0.002 v 0.99957 l -1,-0.002 z"
       id="path162"
       style="color:#000000" />
    <path
       d="m 16,8.9974 1,0.002 v 0.99956 l -1,-0.002 z"
       id="path164"
       style="color:#000000" />
    <path
       d="m 16,6.9983 1,0.002 v 0.99956 l -1,-0.002 z"
       id="path166"
       style="color:#000000" />
    <path
       d="m 16,4.9991 1,0.002 v 0.99956 l -1,-0.002 z"
       id="path168"
       style="color:#000000" />
    <path
       d="m 16,3 1,0.002 v 0.99956 l -1,-0.002 z"
       id="path170"
       style="color:#000000" />
  </g>
  <g
     id="g2849">
    <path
       d="m 15,49.000541 h -1 v 0.9993 h 1 z"
       id="path244"
       style="color:#000000;fill:#6e6e6e;stroke-width:0.99965024" />
    <path
       d="m 15,25.000269 -1,-10e-6 v 0.999311 h 1 z"
       id="path246"
       style="color:#000000;fill:#6e6e6e;stroke-width:0.99965024" />
    <path
       d="M 15,59.00066 H 14 V 60 h 1 z"
       id="path284"
       style="color:#000000;fill:#6e6e6e;stroke-width:0.99965024" />
    <path
       d="m 15,57.000636 h -1 v 0.99924 h 1 z"
       id="path286"
       style="color:#000000;fill:#6e6e6e;stroke-width:0.99965024" />
    <path
       d="m 15,55.000612 h -1 v 0.999341 h 1 z"
       id="path288"
       style="color:#000000;fill:#6e6e6e;stroke-width:0.99965024" />
    <path
       d="m 15,53.00059 h -1 v 0.999341 h 1 z"
       id="path290"
       style="color:#000000;fill:#6e6e6e;stroke-width:0.99965024" />
    <path
       d="m 15,51.000565 -1,0.002 v 0.9993 l 1,-0.002 z"
       id="path292"
       style="color:#000000;fill:#6e6e6e;stroke-width:0.99965024" />
    <path
       d="m 15,47.000518 -1,0.002 v 0.999301 l 1,-0.002 z"
       id="path294"
       style="color:#000000;fill:#6e6e6e;stroke-width:0.99965024" />
    <path
       d="m 15,45.000496 -1,0.002 v 0.999301 l 1,-0.002 z"
       id="path296"
       style="color:#000000;fill:#6e6e6e;stroke-width:0.99965024" />
    <path
       d="m 15,43.00047 -1,0.002 v 0.9993 l 1,-0.002 z"
       id="path298"
       style="color:#000000;fill:#6e6e6e;stroke-width:0.99965024" />
    <path
       d="m 15,41.000448 -1,0.002 v 0.9993 l 1,-0.002 z"
       id="path300"
       style="color:#000000;fill:#6e6e6e;stroke-width:0.99965024" />
    <path
       d="m 15,39.000423 -1,0.002 v 0.999311 l 1,-0.002 z"
       id="path302"
       style="color:#000000;fill:#6e6e6e;stroke-width:0.99965024" />
    <path
       d="m 15,37.000401 -1,0.002 v 0.9993 l 1,-0.002 z"
       id="path304"
       style="color:#000000;fill:#6e6e6e;stroke-width:0.99965024" />
    <path
       d="m 15,35.000377 -1,0.002 v 0.999301 l 1,-0.002 z"
       id="path306"
       style="color:#000000;fill:#6e6e6e;stroke-width:0.99965024" />
    <path
       d="m 15,33.000353 -1,0.002 v 0.99931 l 1,-0.002 z"
       id="path308"
       style="color:#000000;fill:#6e6e6e;stroke-width:0.99965024" />
    <path
       d="m 15,31.000329 -1,0.002 v 0.9993 l 1,-0.002 z"
       id="path310"
       style="color:#000000;fill:#6e6e6e;stroke-width:0.99965024" />
    <path
       d="m 15,29.000306 -1,0.002 v 0.999301 l 1,-0.002 z"
       id="path312"
       style="color:#000000;fill:#6e6e6e;stroke-width:0.99965024" />
    <path
       d="m 15,27.000284 -1,0.002 v 0.999301 l 1,-0.002 z"
       id="path314"
       style="color:#000000;fill:#6e6e6e;stroke-width:0.99965024" />
    <path
       d="m 15,23.000236 -1,0.002 v 0.999301 l 1,-0.002 z"
       id="path316"
       style="color:#000000;fill:#6e6e6e;stroke-width:0.99965024" />
    <path
       d="m 15,21.00021 -1,0.002 v 0.9993 l 1,-0.002 z"
       id="path318"
       style="color:#000000;fill:#6e6e6e;stroke-width:0.99965024" />
    <path
       d="m 15,19.000188 -1,0.002 v 0.999299 l 1,-0.002 z"
       id="path320"
       style="color:#000000;fill:#6e6e6e;stroke-width:0.99965024" />
    <path
       d="m 15,17.000165 -1,0.002 v 0.999311 l 1,-0.002 z"
       id="path322"
       style="color:#000000;fill:#6e6e6e;stroke-width:0.99965024" />
    <path
       d="m 15,15.000143 -1,0.002 v 0.999301 l 1,-0.002 z"
       id="path324"
       style="color:#000000;fill:#6e6e6e;stroke-width:0.99965024" />
    <path
       d="m 15,13.000117 -1,0.002 v 0.999301 l 1,-0.002 z"
       id="path326"
       style="color:#000000;fill:#6e6e6e;stroke-width:0.99965024" />
    <path
       d="m 15,11.000095 -1,0.002 v 0.9993 l 1,-0.002 z"
       id="path328"
       style="color:#000000;fill:#6e6e6e;stroke-width:0.99965024" />
    <path
       d="m 15,9.00007 -1,0.002 v 0.999301 l 1,-0.002 z"
       id="path330"
       style="color:#000000;fill:#6e6e6e;stroke-width:0.99965024" />
    <path
       d="m 15,7.0000469 -1,0.002 v 0.9993106 l 1,-0.002 z"
       id="path332"
       style="color:#000000;fill:#6e6e6e;stroke-width:0.99965024" />
    <path
       d="m 15,5.0000231 -1,0.002 v 0.9993005 l 1,-0.002 z"
       id="path334"
       style="color:#000000;fill:#6e6e6e;stroke-width:0.99965024" />
    <path
       d="m 15,3 -1,0.002 v 0.9993 l 1,-0.002 z"
       id="path336"
       style="color:#000000;fill:#6e6e6e;stroke-width:0.99965024" />
  </g>
  <g
     id="g434"
     style="fill:#101010;stroke-width:0.99978"
     transform="translate(-23.131356,-10)">
    <path
       d="m 16,73.983 h 1 v 0.9995 h -1 z"
       id="path340"
       style="color:#000000" />
    <path
       d="m 16,47.984 h 1 v 0.99956 h -1 z"
       id="path342"
       style="color:#000000" />
    <path
       d="m 16,23.985 1,-10e-6 v 0.99957 h -1 z"
       id="path344"
       style="color:#000000" />
    <path
       d="m 16,95.983 h 1 v 0.9996 h -1 z"
       id="path346"
       style="color:#000000" />
    <path
       d="m 16,93.984 h 1 v 0.9996 h -1 z"
       id="path348"
       style="color:#000000" />
    <path
       d="m 16,91.984 h 1 v 0.9995 h -1 z"
       id="path350"
       style="color:#000000" />
    <path
       d="m 16,89.985 h 1 v 0.9995 h -1 z"
       id="path352"
       style="color:#000000" />
    <path
       d="m 16,87.986 h 1 v 0.9996 h -1 z"
       id="path354"
       style="color:#000000" />
    <path
       d="m 16,85.987 h 1 v 0.9996 h -1 z"
       id="path356"
       style="color:#000000" />
    <path
       d="m 16,83.988 h 1 v 0.9995 h -1 z"
       id="path358"
       style="color:#000000" />
    <path
       d="m 16,81.989 h 1 v 0.9995 h -1 z"
       id="path360"
       style="color:#000000" />
    <path
       d="m 16,79.99 h 1 v 0.9996 h -1 z"
       id="path362"
       style="color:#000000" />
    <path
       d="m 16,77.99 h 1 v 0.9996 h -1 z"
       id="path364"
       style="color:#000000" />
    <path
       d="m 16,75.991 h 1 v 0.9996 h -1 z"
       id="path366"
       style="color:#000000" />
    <path
       d="m 16,71.993 h 1 v 0.9996 h -1 z"
       id="path368"
       style="color:#000000" />
    <path
       d="m 16,69.994 h 1 v 0.9996 h -1 z"
       id="path370"
       style="color:#000000" />
    <path
       d="m 16,67.995 h 1 v 0.9996 h -1 z"
       id="path372"
       style="color:#000000" />
    <path
       d="m 16,65.996 h 1 v 0.9995 h -1 z"
       id="path374"
       style="color:#000000" />
    <path
       d="m 16,63.997 h 1 v 0.9996 h -1 z"
       id="path376"
       style="color:#000000" />
    <path
       d="m 16,61.998 h 1 v 0.9996 h -1 z"
       id="path378"
       style="color:#000000" />
    <path
       d="m 16,59.998 h 1 v 0.9996 h -1 z"
       id="path380"
       style="color:#000000" />
    <path
       d="m 16,57.999 h 1 v 0.9995 h -1 z"
       id="path382"
       style="color:#000000" />
    <path
       d="m 16,56 h 1 v 0.9995 h -1 z"
       id="path384"
       style="color:#000000" />
    <path
       d="m 16,54.001 h 1 v 0.9996 h -1 z"
       id="path386"
       style="color:#000000" />
    <path
       d="m 16,52.002 1,0.002 v 0.99959 h -1 z"
       id="path388"
       style="color:#000000" />
    <path
       d="m 16,49.963 1,0.002 v 0.99956 l -1,-0.002 z"
       id="path390"
       style="color:#000000" />
    <path
       d="m 16,45.965 1,0.002 v 0.99956 l -1,-0.002 z"
       id="path392"
       style="color:#000000" />
    <path
       d="m 16,43.965 1,0.002 v 0.99956 l -1,-0.002 z"
       id="path394"
       style="color:#000000" />
    <path
       d="m 16,41.966 1,0.002 v 0.99956 l -1,-0.002 z"
       id="path396"
       style="color:#000000" />
    <path
       d="m 16,39.967 1,0.002 v 0.99956 l -1,-0.002 z"
       id="path398"
       style="color:#000000" />
    <path
       d="m 16,37.968 1,0.002 v 0.99956 l -1,-0.002 z"
       id="path400"
       style="color:#000000" />
    <path
       d="m 16,35.969 1,0.002 v 0.99956 l -1,-0.002 z"
       id="path402"
       style="color:#000000" />
    <path
       d="m 16,33.97 1,0.002 v 0.99956 l -1,-0.002 z"
       id="path404"
       style="color:#000000" />
    <path
       d="m 16,31.971 1,0.002 v 0.99956 l -1,-0.002 z"
       id="path406"
       style="color:#000000" />
    <path
       d="m 16,29.972 1,0.002 v 0.99956 l -1,-0.002 z"
       id="path408"
       style="color:#000000" />
    <path
       d="m 16,27.972 1,0.002 v 0.99957 l -1,-0.002 z"
       id="path410"
       style="color:#000000" />
    <path
       d="m 16,25.973 1,0.002 v 0.99956 l -1,-0.002 z"
       id="path412"
       style="color:#000000" />
    <path
       d="m 16,21.975 1,0.002 v 0.99957 l -1,-0.002 z"
       id="path414"
       style="color:#000000" />
    <path
       d="m 16,19.976 1,0.002 v 0.99956 l -1,-0.002 z"
       id="path416"
       style="color:#000000" />
    <path
       d="m 16,17.977 1,0.002 v 0.99956 l -1,-0.002 z"
       id="path418"
       style="color:#000000" />
    <path
       d="m 16,15.978 1,0.002 v 0.99956 l -1,-0.002 z"
       id="path420"
       style="color:#000000" />
    <path
       d="m 16,13.979 1,0.002 v 0.99956 l -1,-0.002 z"
       id="path422"
       style="color:#000000" />
    <path
       d="m 16,11.979 1,0.002 v 0.99956 l -1,-0.002 z"
       id="path424"
       style="color:#000000" />
    <path
       d="m 16,9.9803 1,0.002 v 0.99956 l -1,-0.002 z"
       id="path426"
       style="color:#000000" />
    <path
       d="m 16,7.9812 1,0.002 v 0.99956 l -1,-0.002 z"
       id="path428"
       style="color:#000000" />
    <path
       d="m 16,5.982 1,0.002 v 0.99956 l -1,-0.002 z"
       id="path430"
       style="color:#000000" />
    <path
       d="m 16,3.9829 1,0.002 v 0.99956 l -1,-0.002 z"
       id="path432"
       style="color:#000000" />
  </g>
  <g
     style="fill:#101010;fill-opacity:1"
     transform="translate(-3,-1.002423)"
     id="g2849-3-9">
    <path
       d="m 15,49.000541 h -1 v 0.9993 h 1 z"
       id="path244-6-2"
       style="color:#000000;fill:#101010;fill-opacity:1;stroke-width:0.99965024" />
    <path
       d="m 15,25.000269 -1,-10e-6 v 0.999311 h 1 z"
       id="path246-7-2"
       style="color:#000000;fill:#101010;fill-opacity:1;stroke-width:0.99965024" />
    <path
       d="M 15,59.00066 H 14 V 60 h 1 z"
       id="path284-5-8"
       style="color:#000000;fill:#101010;fill-opacity:1;stroke-width:0.99965024" />
    <path
       d="m 15,57.000636 h -1 v 0.99924 h 1 z"
       id="path286-3-9"
       style="color:#000000;fill:#101010;fill-opacity:1;stroke-width:0.99965024" />
    <path
       d="m 15,55.000612 h -1 v 0.999341 h 1 z"
       id="path288-5-7"
       style="color:#000000;fill:#101010;fill-opacity:1;stroke-width:0.99965024" />
    <path
       d="m 15,53.00059 h -1 v 0.999341 h 1 z"
       id="path290-6-3"
       style="color:#000000;fill:#101010;fill-opacity:1;stroke-width:0.99965024" />
    <path
       d="m 15,51.000565 -1,0.002 v 0.9993 l 1,-0.002 z"
       id="path292-2-6"
       style="color:#000000;fill:#101010;fill-opacity:1;stroke-width:0.99965024" />
    <path
       d="m 15,47.000518 -1,0.002 v 0.999301 l 1,-0.002 z"
       id="path294-9-1"
       style="color:#000000;fill:#101010;fill-opacity:1;stroke-width:0.99965024" />
    <path
       d="m 15,45.000496 -1,0.002 v 0.999301 l 1,-0.002 z"
       id="path296-1-2"
       style="color:#000000;fill:#101010;fill-opacity:1;stroke-width:0.99965024" />
    <path
       d="m 15,43.00047 -1,0.002 v 0.9993 l 1,-0.002 z"
       id="path298-2-9"
       style="color:#000000;fill:#101010;fill-opacity:1;stroke-width:0.99965024" />
    <path
       d="m 15,41.000448 -1,0.002 v 0.9993 l 1,-0.002 z"
       id="path300-7-3"
       style="color:#000000;fill:#101010;fill-opacity:1;stroke-width:0.99965024" />
    <path
       d="m 15,39.000423 -1,0.002 v 0.999311 l 1,-0.002 z"
       id="path302-0-1"
       style="color:#000000;fill:#101010;fill-opacity:1;stroke-width:0.99965024" />
    <path
       d="m 15,37.000401 -1,0.002 v 0.9993 l 1,-0.002 z"
       id="path304-9-9"
       style="color:#000000;fill:#101010;fill-opacity:1;stroke-width:0.99965024" />
    <path
       d="m 15,35.000377 -1,0.002 v 0.999301 l 1,-0.002 z"
       id="path306-3-4"
       style="color:#000000;fill:#101010;fill-opacity:1;stroke-width:0.99965024" />
    <path
       d="m 15,33.000353 -1,0.002 v 0.99931 l 1,-0.002 z"
       id="path308-6-7"
       style="color:#000000;fill:#101010;fill-opacity:1;stroke-width:0.99965024" />
    <path
       d="m 15,31.000329 -1,0.002 v 0.9993 l 1,-0.002 z"
       id="path310-0-8"
       style="color:#000000;fill:#101010;fill-opacity:1;stroke-width:0.99965024" />
    <path
       d="m 15,29.000306 -1,0.002 v 0.999301 l 1,-0.002 z"
       id="path312-6-4"
       style="color:#000000;fill:#101010;fill-opacity:1;stroke-width:0.99965024" />
    <path
       d="m 15,27.000284 -1,0.002 v 0.999301 l 1,-0.002 z"
       id="path314-2-5"
       style="color:#000000;fill:#101010;fill-opacity:1;stroke-width:0.99965024" />
    <path
       d="m 15,23.000236 -1,0.002 v 0.999301 l 1,-0.002 z"
       id="path316-6-0"
       style="color:#000000;fill:#101010;fill-opacity:1;stroke-width:0.99965024" />
    <path
       d="m 15,21.00021 -1,0.002 v 0.9993 l 1,-0.002 z"
       id="path318-1-3"
       style="color:#000000;fill:#101010;fill-opacity:1;stroke-width:0.99965024" />
    <path
       d="m 15,19.000188 -1,0.002 v 0.999299 l 1,-0.002 z"
       id="path320-8-6"
       style="color:#000000;fill:#101010;fill-opacity:1;stroke-width:0.99965024" />
    <path
       d="m 15,17.000165 -1,0.002 v 0.999311 l 1,-0.002 z"
       id="path322-7-1"
       style="color:#000000;fill:#101010;fill-opacity:1;stroke-width:0.99965024" />
    <path
       d="m 15,15.000143 -1,0.002 v 0.999301 l 1,-0.002 z"
       id="path324-9-0"
       style="color:#000000;fill:#101010;fill-opacity:1;stroke-width:0.99965024" />
    <path
       d="m 15,13.000117 -1,0.002 v 0.999301 l 1,-0.002 z"
       id="path326-2-6"
       style="color:#000000;fill:#101010;fill-opacity:1;stroke-width:0.99965024" />
    <path
       d="m 15,11.000095 -1,0.002 v 0.9993 l 1,-0.002 z"
       id="path328-0-3"
       style="color:#000000;fill:#101010;fill-opacity:1;stroke-width:0.99965024" />
    <path
       d="m 15,9.00007 -1,0.002 v 0.999301 l 1,-0.002 z"
       id="path330-2-2"
       style="color:#000000;fill:#101010;fill-opacity:1;stroke-width:0.99965024" />
    <path
       d="m 15,7.0000469 -1,0.002 v 0.9993106 l 1,-0.002 z"
       id="path332-3-0"
       style="color:#000000;fill:#101010;fill-opacity:1;stroke-width:0.99965024" />
    <path
       d="m 15,5.0000231 -1,0.002 v 0.9993005 l 1,-0.002 z"
       id="path334-7-6"
       style="color:#000000;fill:#101010;fill-opacity:1;stroke-width:0.99965024" />
  </g>
</svg>
