<svg width="40" height="113" version="1.1" xmlns="http://www.w3.org/2000/svg"><rect x="9" y="4.8748" width="22" height=".9996" color="#000000" fill="#525252" stroke-width=".9998"/><g fill="#666" stroke-width=".99979"><path d="m11 82.875 6-.0115v.9995l-6 .0115z" color="#000000"/><path d="m15 100.87 2-8e-4v.9996l-2 8e-4z" color="#000000"/><path d="m15 98.876 2-8e-4v.9995l-2 9e-4z" color="#000000"/><path d="m15 96.877 2-8e-4v.9996l-2 8e-4z" color="#000000"/><path d="m15 94.878 2-8e-4v.9996l-2 8e-4z" color="#000000"/><path d="m15 92.879 2-8e-4v.9995l-2 8e-4z" color="#000000"/><path d="m15 90.88 2-8e-4v.9996l-2 8e-4z" color="#000000"/><path d="m15 88.881 2-8e-4v.9995l-2 9e-4z" color="#000000"/><path d="m15 86.881 2-8e-4v.9996l-2 8e-4z" color="#000000"/><path d="m15 84.882 2-8e-4v.9996l-2 8e-4z" color="#000000"/><path d="m15 80.884 2-8e-4v.9996l-2 8e-4z" color="#000000"/><path d="m15 76.886 2-8e-4v.9996l-2 8e-4z" color="#000000"/><path d="m15 74.887 2-8e-4v.9996l-2 8e-4z" color="#000000"/><path d="m15 72.887 2-8e-4v.9995l-2 8e-4z" color="#000000"/><path d="m15 70.888 2-8e-4v.9996l-2 8e-4z" color="#000000"/><path d="m15 68.889 2-8e-4v.9995l-2 9e-4z" color="#000000"/><path d="m15 66.89 2-8e-4v.9996l-2 8e-4z" color="#000000"/><path d="m15 64.891 2-8e-4v.9996l-2 8e-4z" color="#000000"/><path d="m15 62.892 2-8e-4v.9995l-2 8e-4z" color="#000000"/><path d="m15 60.893 2-8e-4v.9996l-2 8e-4z" color="#000000"/><path d="m15 58.893 2-8e-4v.9995l-2 8e-4z" color="#000000"/><path d="m15 28.874 2-9e-4v.9996l-2 8e-4z" color="#000000"/><path d="m15 26.867 2-.00081v.99957l-2 .00081z" color="#000000"/><path d="m15 24.868 2-.00081v.99957l-2 .00081z" color="#000000"/><path d="m15 22.869 2-.00081v.99957l-2 .00081z" color="#000000"/><path d="m15 20.87 2-.00081v.99957l-2 .00081z" color="#000000"/><path d="m15 18.871 2-.00081v.99957l-2 .00081z" color="#000000"/><path d="m15 16.872 2-.00081v.99957l-2 .00081z" color="#000000"/><path d="m15 14.872 2-.00081v.99957l-2 .00081z" color="#000000"/><path d="m15 12.873 2-.00081v.99957l-2 .00081z" color="#000000"/><path d="m15 10.874 2-.00081v.99957l-2 .00081z" color="#000000"/><path d="m15 8.8748 2-.00081v.99957l-2 .00081z" color="#000000"/><path d="m15 6.8756 2-.00081v.99957l-2 .00081z" color="#000000"/></g><path d="m11 106.88h18v.9996h-18z" color="#000000" fill="#525252" stroke-width=".9998"/><rect x="18" y="6.8748" width="4" height="98.999" color="#000000" fill="#030303"/><g transform="translate(1 3.8748)" fill="#434343" stroke-width=".99978"><path d="m16 75h1v.9995h-1z" color="#000000"/><path d="m16 49 1-1e-5v.99956h-1z" color="#000000"/><path d="m16 25.001h1v.99956l-1 1e-5z" color="#000000"/><path d="m16 96.999h1v.9996h-1z" color="#000000"/><path d="m16 95h1v.9996h-1z" color="#000000"/><path d="m16 93.001h1v.9996h-1z" color="#000000"/><path d="m16 91.002h1v.9995h-1z" color="#000000"/><path d="m16 89.002h1v.9996h-1z" color="#000000"/><path d="m16 87.003h1v.9996h-1z" color="#000000"/><path d="m16 85.004h1v.9996h-1z" color="#000000"/><path d="m16 83.005h1v.9995h-1z" color="#000000"/><path d="m16 81.006h1v.9996h-1z" color="#000000"/><path d="m16 79.007h1v.9996h-1z" color="#000000"/><path d="m16 77.008h1v.9996h-1z" color="#000000"/><path d="m16 73.009h1v.9995h-1z" color="#000000"/><path d="m16 71.01h1v.9996h-1z" color="#000000"/><path d="m16 69.011h1v.9996h-1z" color="#000000"/><path d="m16 67.012h1v.9995h-1z" color="#000000"/><path d="m16 65.013h1v.9995h-1z" color="#000000"/><path d="m16 63.014h1v.9996h-1z" color="#000000"/><path d="m16 61.015h1v.9996h-1z" color="#000000"/><path d="m16 59.016h1v.9995h-1z" color="#000000"/><path d="m16 57.016h1v.9995h-1z" color="#000000"/><path d="m16 55.017h1v.9996h-1z" color="#000000"/><path d="m16 53.018h1v.9996h-1z" color="#000000"/><path d="m16 50.979 1 .002v.99956l-1-.002z" color="#000000"/><path d="m16 46.981 1 .002v.99957l-1-.002z" color="#000000"/><path d="m16 44.982 1 .002v.99956l-1-.002z" color="#000000"/><path d="m16 42.982 1 .002v.99956l-1-.002z" color="#000000"/><path d="m16 40.983 1 .002v.99956l-1-.002z" color="#000000"/><path d="m16 38.984 1 .002v.99956l-1-.002z" color="#000000"/><path d="m16 36.985 1 .002v.99957l-1-.002z" color="#000000"/><path d="m16 34.986 1 .002v.99956l-1-.002z" color="#000000"/><path d="m16 32.987 1 .002v.99957l-1-.002z" color="#000000"/><path d="m16 30.988 1 .002v.99956l-1-.002z" color="#000000"/><path d="m16 28.989 1 .002v.99956l-1-.002z" color="#000000"/><path d="m16 26.989 1 .002v.99957l-1-.002z" color="#000000"/><path d="m16 22.991 1 .002v.99956l-1-.002z" color="#000000"/><path d="m16 20.992 1 .002v.99956l-1-.002z" color="#000000"/><path d="m16 18.993 1 .002v.99956l-1-.002z" color="#000000"/><path d="m16 16.994 1 .002v.99956l-1-.002z" color="#000000"/><path d="m16 14.995 1 .002v.99956l-1-.002z" color="#000000"/><path d="m16 12.996 1 .002v.99956l-1-.002z" color="#000000"/><path d="m16 10.996 1 .002v.99957l-1-.002z" color="#000000"/><path d="m16 8.9974 1 .002v.99956l-1-.002z" color="#000000"/><path d="m16 6.9983 1 .002v.99956l-1-.002z" color="#000000"/><path d="m16 4.9991 1 .002v.99956l-1-.002z" color="#000000"/><path d="m16 3 1 .002v.99956l-1-.002z" color="#000000"/></g><g fill="#525252" stroke-width=".99979"><path d="m29 82.875-6-.0115v.9995l6 .0115z" color="#000000"/><path d="m25 100.88-2-8e-4v.9996l2 8e-4z" color="#000000"/><path d="m25 98.877-2-8e-4v.9996l2 8e-4z" color="#000000"/><path d="m25 96.878-2-9e-4v.9996l2 8e-4z" color="#000000"/><path d="m25 94.879-2-8e-4v.9996l2 8e-4z" color="#000000"/><path d="m25 92.88-2-8e-4v.9995l2 8e-4z" color="#000000"/><path d="m25 90.881-2-8e-4v.9996l2 8e-4z" color="#000000"/><path d="m25 88.881-2-8e-4v.9996l2 8e-4z" color="#000000"/><path d="m25 86.882-2-9e-4v.9996l2 8e-4z" color="#000000"/><path d="m25 84.883-2-8e-4v.9996l2 8e-4z" color="#000000"/><path d="m25 80.885-2-8e-4v.9996l2 8e-4z" color="#000000"/><path d="m25 76.887-2-9e-4v.9996l2 8e-4z" color="#000000"/><path d="m25 74.887-2-8e-4v.9996l2 8e-4z" color="#000000"/><path d="m25 72.888-2-8e-4v.9995l2 8e-4z" color="#000000"/><path d="m25 70.889-2-8e-4v.9996l2 8e-4z" color="#000000"/><path d="m25 68.89-2-8e-4v.9996l2 8e-4z" color="#000000"/><path d="m25 66.891-2-9e-4v.9996l2 8e-4z" color="#000000"/><path d="m25 64.892-2-8e-4v.9996l2 8e-4z" color="#000000"/><path d="m25 62.893-2-8e-4v.9995l2 8e-4z" color="#000000"/><path d="m25 60.893-2-8e-4v.9996l2 8e-4z" color="#000000"/><path d="m25 58.894-2-8e-4v.9995l2 9e-4z" color="#000000"/><path d="m25 28.875-2-8e-4v.9995l2 8e-4z" color="#000000"/><path d="m25 26.868-2-.00081v.99957l2 .00081z" color="#000000"/><path d="m25 24.869-2-.00081v.99957l2 .00081z" color="#000000"/><path d="m25 22.87-2-.00081v.99957l2 .00081z" color="#000000"/><path d="m25 20.871-2-.00081v.99957l2 .00081z" color="#000000"/><path d="m25 18.871-2-.00081v.99957l2 .00081z" color="#000000"/><path d="m25 16.872-2-.00081v.99957l2 .00081z" color="#000000"/><path d="m25 14.873-2-.00081v.99957l2 .00081z" color="#000000"/><path d="m25 12.874-2-.00081v.99957l2 .00081z" color="#000000"/><path d="m25 10.875-2-.00081v.99957l2 .00081z" color="#000000"/><path d="m25 8.8756-2-.00081v.99957l2 .00081z" color="#000000"/><path d="m25 6.8764-2-.00081v.99957l2 .00081z" color="#000000"/></g><g transform="translate(1 3.8748)" fill="#6e6e6e" stroke-width=".99978"><path d="m22 75h-1v.9995l1 1e-4z" color="#000000"/><path d="m22 49.001h-1v.99956h1z" color="#000000"/><path d="m22 25.002-1-1e-5v.99957h1z" color="#000000"/><path d="m22 97h-1v.9996h1z" color="#000000"/><path d="m22 95h-1v.9996h1z" color="#000000"/><path d="m22 93.001h-1v.9996h1z" color="#000000"/><path d="m22 91.002h-1v.9995h1z" color="#000000"/><path d="m22 89.003h-1v.9995h1z" color="#000000"/><path d="m22 87.004h-1v.9996h1z" color="#000000"/><path d="m22 85.005h-1v.9996h1z" color="#000000"/><path d="m22 83.006h-1v.9995h1z" color="#000000"/><path d="m22 81.007h-1v.9995h1z" color="#000000"/><path d="m22 79.008h-1v.9996h1z" color="#000000"/><path d="m22 77.008h-1v.9996h1z" color="#000000"/><path d="m22 73.01h-1v.9995h1z" color="#000000"/><path d="m22 71.011h-1v.9996h1z" color="#000000"/><path d="m22 69.012h-1v.9996h1z" color="#000000"/><path d="m22 67.013h-1v.9996h1z" color="#000000"/><path d="m22 65.014h-1v.9995h1z" color="#000000"/><path d="m22 63.014h-1v.9996h1z" color="#000000"/><path d="m22 61.015h-1v.9996h1z" color="#000000"/><path d="m22 59.016h-1v.9996h1z" color="#000000"/><path d="m22 57.017h-1v.9995h1z" color="#000000"/><path d="m22 55.018h-1v.9996h1z" color="#000000"/><path d="m22 53.019h-1v.9996h1z" color="#000000"/><path d="m22 50.98-1 .002v.99956l1-.002z" color="#000000"/><path d="m22 46.982-1 .002v.99956l1-.002z" color="#000000"/><path d="m22 44.982-1 .002v.99956l1-.002z" color="#000000"/><path d="m22 42.983-1 .002v.99956l1-.002z" color="#000000"/><path d="m22 40.984-1 .002v.99956l1-.002z" color="#000000"/><path d="m22 38.985-1 .002v.99957l1-.002z" color="#000000"/><path d="m22 36.986-1 .002v.99956l1-.002z" color="#000000"/><path d="m22 34.987-1 .002v.99956l1-.002z" color="#000000"/><path d="m22 32.988-1 .002v.99957l1-.002z" color="#000000"/><path d="m22 30.989-1 .002v.99956l1-.002z" color="#000000"/><path d="m22 28.989-1 .002v.99956l1-.002z" color="#000000"/><path d="m22 26.99-1 .002v.99956l1-.002z" color="#000000"/><path d="m22 22.992-1 .002v.99956l1-.002z" color="#000000"/><path d="m22 20.993-1 .002v.99956l1-.002z" color="#000000"/><path d="m22 18.994-1 .002v.99956l1-.002z" color="#000000"/><path d="m22 16.995-1 .002v.99957l1-.002z" color="#000000"/><path d="m22 14.996-1 .002v.99956l1-.002z" color="#000000"/><path d="m22 12.996-1 .002v.99956l1-.002z" color="#000000"/><path d="m22 10.997-1 .002v.99956l1-.002z" color="#000000"/><path d="m22 8.9982-1 .002v.99956l1-.002z" color="#000000"/><path d="m22 6.9991-1 .002v.99957l1-.002z" color="#000000"/><path d="m22 4.9999-1 .002v.99956l1-.002z" color="#000000"/><path d="m22 3.0008-1 .002v.99956l1-.002z" color="#000000"/></g><g transform="translate(1 3.8748)" fill="#101010" stroke-width=".99978"><path d="m16 73.983h1v.9995h-1z" color="#000000"/><path d="m16 47.984h1v.99956h-1z" color="#000000"/><path d="m16 23.985 1-1e-5v.99957h-1z" color="#000000"/><path d="m16 95.983h1v.9996h-1z" color="#000000"/><path d="m16 93.984h1v.9996h-1z" color="#000000"/><path d="m16 91.984h1v.9995h-1z" color="#000000"/><path d="m16 89.985h1v.9995h-1z" color="#000000"/><path d="m16 87.986h1v.9996h-1z" color="#000000"/><path d="m16 85.987h1v.9996h-1z" color="#000000"/><path d="m16 83.988h1v.9995h-1z" color="#000000"/><path d="m16 81.989h1v.9995h-1z" color="#000000"/><path d="m16 79.99h1v.9996h-1z" color="#000000"/><path d="m16 77.99h1v.9996h-1z" color="#000000"/><path d="m16 75.991h1v.9996h-1z" color="#000000"/><path d="m16 71.993h1v.9996h-1z" color="#000000"/><path d="m16 69.994h1v.9996h-1z" color="#000000"/><path d="m16 67.995h1v.9996h-1z" color="#000000"/><path d="m16 65.996h1v.9995h-1z" color="#000000"/><path d="m16 63.997h1v.9996h-1z" color="#000000"/><path d="m16 61.998h1v.9996h-1z" color="#000000"/><path d="m16 59.998h1v.9996h-1z" color="#000000"/><path d="m16 57.999h1v.9995h-1z" color="#000000"/><path d="m16 56h1v.9995h-1z" color="#000000"/><path d="m16 54.001h1v.9996h-1z" color="#000000"/><path d="m16 52.002 1 .002v.99959h-1z" color="#000000"/><path d="m16 49.963 1 .002v.99956l-1-.002z" color="#000000"/><path d="m16 45.965 1 .002v.99956l-1-.002z" color="#000000"/><path d="m16 43.965 1 .002v.99956l-1-.002z" color="#000000"/><path d="m16 41.966 1 .002v.99956l-1-.002z" color="#000000"/><path d="m16 39.967 1 .002v.99956l-1-.002z" color="#000000"/><path d="m16 37.968 1 .002v.99956l-1-.002z" color="#000000"/><path d="m16 35.969 1 .002v.99956l-1-.002z" color="#000000"/><path d="m16 33.97 1 .002v.99956l-1-.002z" color="#000000"/><path d="m16 31.971 1 .002v.99956l-1-.002z" color="#000000"/><path d="m16 29.972 1 .002v.99956l-1-.002z" color="#000000"/><path d="m16 27.972 1 .002v.99957l-1-.002z" color="#000000"/><path d="m16 25.973 1 .002v.99956l-1-.002z" color="#000000"/><path d="m16 21.975 1 .002v.99957l-1-.002z" color="#000000"/><path d="m16 19.976 1 .002v.99956l-1-.002z" color="#000000"/><path d="m16 17.977 1 .002v.99956l-1-.002z" color="#000000"/><path d="m16 15.978 1 .002v.99956l-1-.002z" color="#000000"/><path d="m16 13.979 1 .002v.99956l-1-.002z" color="#000000"/><path d="m16 11.979 1 .002v.99956l-1-.002z" color="#000000"/><path d="m16 9.9803 1 .002v.99956l-1-.002z" color="#000000"/><path d="m16 7.9812 1 .002v.99956l-1-.002z" color="#000000"/><path d="m16 5.982 1 .002v.99956l-1-.002z" color="#000000"/><path d="m16 3.9829 1 .002v.99956l-1-.002z" color="#000000"/></g><path d="m18 105.87h4v-99h-4zm1-1v-97h2v97z" fill="#0f0f0f" style="paint-order:fill markers stroke"/><g transform="translate(1 3.8748)" fill="#666" stroke-width=".99979"><path d="m13 53 3-.001v.9996l-3 .001z" color="#000000"/><path d="m10 26.991 6 .009v.99958l-6-.009z" color="#000000"/><path d="m14 48.982 2-.00081v.99957l-2 .00081z" color="#000000"/><path d="m14 46.983 2-.00081v.99957l-2 .00081z" color="#000000"/><path d="m14 44.984 2-8e-4v.99957l-2 8e-4z" color="#000000"/><path d="m14 42.984 2-.00081v.99958l-2 8e-4z" color="#000000"/><path d="m14 40.985 2-.00081v.99958l-2 8e-4z" color="#000000"/><path d="m14 38.986 2-.00081v.99958l-2 8e-4z" color="#000000"/><path d="m14 36.987 2-8e-4v.99956l-2 .00081z" color="#000000"/><path d="m14 34.988 2-.00081v.99957l-2 .00081z" color="#000000"/><path d="m14 32.989 2-.00081v.99957l-2 .00081z" color="#000000"/><path d="m14 30.99 2-.00081v.99957l-2 .00081z" color="#000000"/><path d="m14 28.99 2-.00081v.99957l-2 .00081z" color="#000000"/></g><g transform="translate(1 3.8748)" fill="#525252" stroke-width=".99979"><path d="m25 53-3-2e-4v.9996l3 2e-4z" color="#000000"/><path d="m28 26.992-6 .009v.99958l6-.009z" color="#000000"/><path d="m24 48.983-2-.00081v.99957l2 .00081z" color="#000000"/><path d="m24 46.984-2-.00081v.99957l2 .00081z" color="#000000"/><path d="m24 44.984-2-.00081v.99957l2 .00081z" color="#000000"/><path d="m24 42.985-2-.00081v.99957l2 .00081z" color="#000000"/><path d="m24 40.986-2-.00081v.99957l2 .00081z" color="#000000"/><path d="m24 38.987-2-.00081v.99957l2 .00081z" color="#000000"/><path d="m24 36.988-2-.00081v.99957l2 .00081z" color="#000000"/><path d="m24 34.989-2-.00081v.99957l2 .00081z" color="#000000"/><path d="m24 32.99-2-.00081v.99957l2 .00081z" color="#000000"/><path d="m24 30.99-2-.00081v.99957l2 .00081z" color="#000000"/><path d="m24 28.991-2-.00081v.99957l2 .00081z" color="#000000"/></g><g transform="translate(1 3.8748)"><path d="m14 51.001 2-.00081v.99838l-2 .00081z" color="#000000" fill="#666" stroke-width=".99919"/><path d="m24 51.002-2-.00081v.99838l2 .00081z" color="#000000" fill="#525252" stroke-width=".99919"/><g stroke-width=".99979"><path d="m14 75.008 2-8e-4v.9995l-2 8e-4z" color="#000000" fill="#666"/><path d="m24 75.009-2-8e-4v.9995l2 8e-4z" color="#000000" fill="#525252"/><path d="m14 101 2-8e-4v.9996l-2 8e-4z" color="#000000" fill="#666"/><path d="m14 99.001 2-8e-4v.9995l-2 9e-4z" color="#000000" fill="#666"/></g><path d="m16 101h1v.9996h-1z" color="#000000" fill="#434343" stroke-width=".99978"/><path d="m16 99h1v.9996h-1z" color="#000000" fill="#434343" stroke-width=".99978"/><path d="m24 101-2-8e-4v.9996l2 8e-4z" color="#000000" fill="#525252" stroke-width=".99979"/><path d="m24 99.002-2-8e-4v.9996l2 8e-4z" color="#000000" fill="#525252" stroke-width=".99979"/><g stroke-width=".99978"><path d="m22 101h-1v.9996h1z" color="#000000" fill="#6e6e6e"/><path d="m22 99h-1v.9996h1z" color="#000000" fill="#6e6e6e"/><path d="m16 99.983h1v.9996h-1z" color="#000000" fill="#101010"/><path d="m16 97.984h1v.9996h-1z" color="#000000" fill="#101010"/></g></g></svg>
