<svg width="104" height="46" version="1.1" xmlns="http://www.w3.org/2000/svg" xmlns:xlink="http://www.w3.org/1999/xlink"><defs><linearGradient id="b" x1="2" x2="49" y1="22" y2="22" gradientUnits="userSpaceOnUse"><stop stop-color="#464646" offset="0"/><stop stop-color="#828282" offset="1"/></linearGradient><linearGradient id="a" x1="50" x2="99" y1="22" y2="22" gradientUnits="userSpaceOnUse"><stop stop-color="#828282" offset="0"/><stop stop-color="#464646" offset="1"/></linearGradient></defs><g fill="url(#b)"><path d="m49 17v10h-1v-10z" color="#000000"/><path d="m47 17v10h-1v-10z" color="#000000"/><path d="m45 17v10h-1v-10z" color="#000000"/><path d="m43 17v10h-1v-10z" color="#000000"/><path d="m41 17v10h-1v-10z" color="#000000"/><path d="m39 17v10h-1v-10z" color="#000000"/><path d="m37 17v10h-1v-10z" color="#000000"/><path d="m35 17v10h-1v-10z" color="#000000"/><path d="m33 17v10h-1v-10z" color="#000000"/><path d="m31 17v10h-1v-10z" color="#000000"/><path d="m27 14v16h-1v-16z" color="#000000"/><path d="m25 17v10h-1v-10z" color="#000000"/><path d="m23 17v10h-1v-10z" color="#000000"/><path d="m21 17v10h-1v-10z" color="#000000"/><path d="m19 17v10h-1v-10z" color="#000000"/><path d="m17 17v10h-1v-10z" color="#000000"/><path d="m15 17v10h-1v-10z" color="#000000"/><path d="m13 17v10h-1v-10z" color="#000000"/><path d="m11 17v10h-1v-10z" color="#000000"/><path d="m9 17v10h-1v-10z" color="#000000"/><path d="m7 17v10h-1v-10z" color="#000000"/><path d="m29 17v10h-1v-10z" color="#000000"/><path d="m5 17v10h-1v-10z" color="#000000"/><path d="m3 11v22h-1v-22z" color="#000000"/></g><g fill="url(#a)"><path d="m51 16v12h-1v-12z" color="#000000"/><path d="m53 17v10h-1v-10z" color="#000000"/><path d="m99 11v22h-1v-22z" color="#000000"/><path d="m97 17v10h-1v-10z" color="#000000"/><path d="m95 17v10h-1v-10z" color="#000000"/><path d="m93 17v10h-1v-10z" color="#000000"/><path d="m91 17v10h-1v-10z" color="#000000"/><path d="m87 17v9.9999h-1v-9.9999z" color="#000000"/><path d="m85 17v10h-1v-10z" color="#000000"/><path d="m83 17v10h-1v-10z" color="#000000"/><path d="m81 17v10h-1v-10z" color="#000000"/><path d="m79 17v10h-1v-10z" color="#000000"/><path d="m77 17v10h-1v-10z" color="#000000"/><path d="m75 14v16h-1v-16z" color="#000000"/><path d="m73 17v10h-1v-10z" color="#000000"/><path d="m71 17v10h-1v-10z" color="#000000"/><path d="m69 17v10h-1v-10z" color="#000000"/><path d="m67 17v10h-1v-10z" color="#000000"/><path d="m65 17v10h-1v-10z" color="#000000"/><path d="m59 17v10h-1v-10z" color="#000000"/><path d="m57 17v10h-1v-10z" color="#000000"/><path d="m55 17v10h-1v-10z" color="#000000"/><path d="m89 17v10h-1v-10z" color="#000000"/><path d="m63 17v10h-1v-10z" color="#000000"/><path d="m61 17v10h-1v-10z" color="#000000"/></g><path d="m97 20v4h-93v-4z" color="#000000"/></svg>
