<?xml version="1.0" encoding="UTF-8" standalone="no"?>
<svg
   xmlns:dc="http://purl.org/dc/elements/1.1/"
   xmlns:cc="http://creativecommons.org/ns#"
   xmlns:rdf="http://www.w3.org/1999/02/22-rdf-syntax-ns#"
   xmlns:svg="http://www.w3.org/2000/svg"
   xmlns="http://www.w3.org/2000/svg"
   xmlns:xlink="http://www.w3.org/1999/xlink"
   id="svg174"
   version="1.1"
   height="46"
   width="158">
  <metadata
     id="metadata178">
    <rdf:RDF>
      <cc:Work
         rdf:about="">
        <dc:format>image/svg+xml</dc:format>
        <dc:type
           rdf:resource="http://purl.org/dc/dcmitype/StillImage" />
        <dc:title></dc:title>
      </cc:Work>
    </rdf:RDF>
  </metadata>
  <defs
     id="defs14">
    <linearGradient
       id="linearGradient1559"
       x1="76"
       x2="151"
       y1="1028.4"
       y2="1028.4"
       gradientUnits="userSpaceOnUse">
      <stop
         style="stop-color:#f1f1f1;stop-opacity:1"
         stop-color="#828282"
         offset="0"
         id="stop1553" />
      <stop
         stop-color="#828282"
         offset="0.68058109"
         id="stop1555"
         style="stop-color:#717171;stop-opacity:1" />
      <stop
         stop-color="#464646"
         offset="1"
         id="stop1557"
         style="stop-color:#717171;stop-opacity:1" />
    </linearGradient>
    <linearGradient
       id="linearGradient1462"
       x1="76"
       x2="151"
       y1="1028.4"
       y2="1028.4"
       gradientUnits="userSpaceOnUse">
      <stop
         style="stop-color:#717171;stop-opacity:1"
         stop-color="#828282"
         offset="0"
         id="stop1450" />
      <stop
         style="stop-color:#717171;stop-opacity:1"
         id="stop1452"
         offset="0.45715839"
         stop-color="#828282" />
      <stop
         stop-color="#828282"
         offset="1"
         id="stop1454"
         style="stop-color:#080808;stop-opacity:1" />
    </linearGradient>
    <linearGradient
       gradientUnits="userSpaceOnUse"
       y2="1028.4"
       y1="1028.4"
       x2="151"
       x1="76"
       id="linearGradient5026">
      <stop
         id="stop5020"
         offset="0"
         stop-color="#828282"
         style="stop-color:#f1f1f1;stop-opacity:1" />
      <stop
         style="stop-color:#717171;stop-opacity:1"
         id="stop5028"
         offset="0.68058109"
         stop-color="#828282" />
      <stop
         style="stop-color:#717171;stop-opacity:1"
         id="stop5024"
         offset="1"
         stop-color="#464646" />
    </linearGradient>
    <linearGradient
       id="linearGradient994"
       x1="76"
       x2="151"
       y1="1028.4"
       y2="1028.4"
       gradientUnits="userSpaceOnUse">
      <stop
         style="stop-color:#464646;stop-opacity:1"
         stop-color="#828282"
         offset="0"
         id="stop990" />
      <stop
         style="stop-color:#828282;stop-opacity:1"
         id="stop996"
         offset="0.5"
         stop-color="#828282" />
      <stop
         stop-color="#464646"
         offset="1"
         id="stop992" />
    </linearGradient>
    <linearGradient
       gradientUnits="userSpaceOnUse"
       y2="1028.4"
       y1="1028.4"
       x2="76"
       x1="2"
       id="d">
      <stop
         id="stop2"
         offset="0"
         stop-color="#464646" />
      <stop
         id="stop4"
         offset="1"
         stop-color="#828282" />
    </linearGradient>
    <linearGradient
       gradientUnits="userSpaceOnUse"
       y2="1028.4"
       y1="1028.4"
       x2="151"
       x1="76"
       id="c">
      <stop
         id="stop7"
         offset="0"
         stop-color="#828282" />
      <stop
         id="stop9"
         offset="1"
         stop-color="#464646" />
    </linearGradient>
    <linearGradient
       xlink:href="#d"
       gradientUnits="userSpaceOnUse"
       y2="1028.4"
       y1="1028.4"
       x2="76"
       x1="2"
       id="b" />
    <linearGradient
       xlink:href="#c"
       gradientUnits="userSpaceOnUse"
       y2="1028.4"
       y1="1028.4"
       x2="151"
       x1="76"
       id="a" />
    <linearGradient
       y2="20.125"
       x2="114"
       y1="14"
       x1="114"
       gradientUnits="userSpaceOnUse"
       id="linearGradient1295"
       xlink:href="#linearGradient1462" />
  </defs>
  <g
     style="display:none"
     id="layer2">
    <rect
       y="-1208.74"
       x="-1902.9451"
       height="2486.3296"
       width="3838.3003"
       id="rect1648"
       style="opacity:1;fill:#1e1e1e;fill-opacity:1;stroke:none;stroke-width:1;stroke-linecap:round;stroke-linejoin:round;stroke-miterlimit:4;stroke-dasharray:none;stroke-opacity:1;paint-order:fill markers stroke" />
  </g>
  <g
     id="layer1">
    <path
       style="color:#000000;stroke:none;stroke-opacity:1"
       d="m 151,20 v 4 H 6 v -4 z"
       id="path170-3" />
    <g
       style="fill:#606060;fill-opacity:1"
       id="g1862">
      <path
         style="color:#000000;fill:#606060;fill-opacity:1;stroke:none;stroke-opacity:1"
         d="M 5,11 V 33 H 4 V 11 Z"
         id="path88" />
      <path
         style="color:#000000;fill:#606060;fill-opacity:1;stroke:none;stroke-opacity:1"
         d="m 153,11 v 22 h -1 V 11 Z"
         id="path120" />
    </g>
    <path
       id="path166-9"
       d="m 6,24 v 1 h 1 v -1 z m 2,0 v 1 h 1 v -1 z m 2,0 v 1 h 1 v -1 z m 2,0 v 1 h 1 v -1 z m 2,0 v 1 h 1 v -1 z m 2,0 v 1 h 1 v -1 z m 2,0 v 1 h 1 v -1 z m 2,0 v 1 h 1 v -1 z m 2,0 v 1 h 1 v -1 z m 2,0 v 1 h 1 v -1 z m 2,0 v 1 h 1 v -1 z m 2,0 v 1 h 1 v -1 z m 2,0 v 1 h 1 v -1 z m 2,0 v 1 h 1 v -1 z m 2,0 v 1 h 1 v -1 z m 2,0 v 1 h 1 v -1 z m 2,0 v 1 h 1 v -1 z m 2,0 v 1 h 1 v -1 z m 2,0 v 1 h 1 v -1 z m 2,0 v 1 h 1 v -1 z m 2,0 v 1 h 1 v -1 z m 2,0 v 1 h 1 v -1 z m 2,0 v 1 h 1 v -1 z m 2,0 v 1 h 1 v -1 z m 2,0 v 1 h 1 v -1 z m 2,0 v 1 h 1 v -1 z m 2,0 v 1 h 1 v -1 z m 2,0 v 1 h 1 v -1 z m 2,0 v 1 h 1 v -1 z m 2,0 v 1 h 1 v -1 z m 2,0 v 1 h 1 v -1 z m 2,0 v 1 h 1 v -1 z m 2,0 v 1 h 1 v -1 z m 2,0 v 1 h 1 v -1 z m 2,0 v 1 h 1 v -1 z m 2,0 v 1 h 1 v -1 z m 2,0 v 1 h 1 v -1 z m 2,0 v 1 h 1 v -1 z m 2,0 v 1 h 1 v -1 z m 2,0 v 1 h 1 v -1 z m 2,0 v 1 h 1 v -1 z m 2,0 v 1 h 1 v -1 z m 2,0 v 1 h 1 v -1 z m 2,0 v 1 h 1 v -1 z m 2,0 v 1 h 1 v -1 z m 2,0 v 1 h 1 v -1 z m 2,0 v 1 h 1 v -1 z m 2,0 v 1 h 1 v -1 z m 2,0 v 1 h 1 v -1 z m 2,0 v 1 h 1 v -1 z m 2,0 v 1 h 1 v -1 z m 2,0 v 1 h 1 v -1 z m 2,0 v 1 h 1 v -1 z m 2,0 v 1 h 1 v -1 z m 2,0 v 1 h 1 v -1 z m 2,0 v 1 h 1 v -1 z m 2,0 v 1 h 1 v -1 z m 2,0 v 1 h 1 v -1 z m 2,0 v 1 h 1 v -1 z m 2,0 v 1 h 1 v -1 z m 2,0 v 1 h 1 v -1 z m 2,0 v 1 h 1 v -1 z m 2,0 v 1 h 1 v -1 z m 2,0 v 1 h 1 v -1 z m 2,0 v 1 h 1 v -1 z m 2,0 v 1 h 1 v -1 z m 2,0 v 1 h 1 v -1 z m 2,0 v 1 h 1 v -1 z m 2,0 v 1 h 1 v -1 z m 2,0 v 1 h 1 v -1 z m 2,0 v 1 h 1 v -1 z m 2,0 v 1 h 1 v -1 z m 2,0 v 1 h 1 v -1 z"
       style="color:#000000;fill:#787878;fill-opacity:1;stroke:none;stroke-opacity:1" />
    <path
       style="color:#000000;stroke:none;stroke-opacity:1;fill:#000000;fill-opacity:1"
       d="m 151,20 v 4 H 6 v -4 z"
       id="path170" />
    <path
       id="path166-9-6"
       d="m 6,25 v 2 h 1 v -2 z m 2,0 v 2 h 1 v -2 z m 2,0 v 2 h 1 v -2 z m 2,0 v 2 h 1 v -2 z m 2,0 v 2 h 1 v -2 z m 2,0 v 2 h 1 v -2 z m 2,0 v 2 h 1 v -2 z m 2,0 v 2 h 1 v -2 z m 2,0 v 2 h 1 v -2 z m 2,0 v 2 h 1 v -2 z m 2,0 v 2 h 1 v -2 z m 2,0 v 2 h 1 v -2 z m 2,0 v 2 h 1 v -2 z m 2,0 v 2 h 1 v -2 z m 2,0 v 2 h 1 v -2 z m 2,0 v 2 h 1 v -2 z m 2,0 v 2 h 1 v -2 z m 2,0 v 2 h 1 v -2 z m 2,0 v 5 h 1 v -5 z m 2,0 v 2 h 1 v -2 z m 2,0 v 2 h 1 v -2 z m 2,0 v 2 h 1 v -2 z m 2,0 v 2 h 1 v -2 z m 2,0 v 2 h 1 v -2 z m 2,0 v 2 h 1 v -2 z m 2,0 v 2 h 1 v -2 z m 2,0 v 2 h 1 v -2 z m 2,0 v 2 h 1 v -2 z m 2,0 v 2 h 1 v -2 z m 2,0 v 2 h 1 v -2 z m 2,0 v 2 h 1 v -2 z m 2,0 v 2 h 1 v -2 z m 2,0 v 2 h 1 v -2 z m 2,0 v 2 h 1 v -2 z m 2,0 v 2 h 1 v -2 z m 2,0 v 2 h 1 v -2 z m 2,0 v 3 h 1 v -3 z m 2,0 v 2 h 1 v -2 z m 2,0 v 2 h 1 v -2 z m 2,0 v 2 h 1 v -2 z m 2,0 v 2 h 1 v -2 z m 2,0 v 2 h 1 v -2 z m 2,0 v 2 h 1 v -2 z m 2,0 v 2 h 1 v -2 z m 2,0 v 2 h 1 v -2 z m 2,0 v 2 h 1 v -2 z m 2,0 v 2 h 1 v -2 z m 2,0 v 2 h 1 v -2 z m 2,0 v 2 h 1 v -2 z m 2,0 v 2 h 1 v -2 z m 2,0 v 2 h 1 v -2 z m 2,0 v 2 h 1 v -2 z m 2,0 v 2 h 1 v -2 z m 2,0 v 2 h 1 v -2 z m 2,0 v 5 h 1 v -5 z m 2,0 v 2 h 1 v -2 z m 2,0 v 2 h 1 v -2 z m 2,0 v 2 h 1 v -2 z m 2,0 v 2 h 1 v -2 z m 2,0 v 2 h 1 v -2 z m 2,0 v 2 h 1 v -2 z m 2,0 v 2 h 1 v -2 z m 2,0 v 2 h 1 v -2 z m 2,0 v 2 h 1 v -2 z m 2,0 v 2 h 1 v -2 z m 2,0 v 2 h 1 v -2 z m 2,0 v 2 h 1 v -2 z m 2,0 v 2 h 1 v -2 z m 2,0 v 2 h 1 v -2 z m 2,0 v 2 h 1 v -2 z m 2,0 v 2 h 1 v -2 z m 2,0 v 2 h 1 v -2 z m 2,0 v 2 h 1 v -2 z"
       style="color:#000000;fill:#525252;fill-opacity:1;stroke:none;stroke-opacity:1" />
    <path
       id="path166-9-1"
       d="m 6,20 v -1 h 1 v 1 z m 2,0 v -1 h 1 v 1 z m 2,0 v -1 h 1 v 1 z m 2,0 v -1 h 1 v 1 z m 2,0 v -1 h 1 v 1 z m 2,0 v -1 h 1 v 1 z m 2,0 v -1 h 1 v 1 z m 2,0 v -1 h 1 v 1 z m 2,0 v -1 h 1 v 1 z m 2,0 v -1 h 1 v 1 z m 2,0 v -1 h 1 v 1 z m 2,0 v -1 h 1 v 1 z m 2,0 v -1 h 1 v 1 z m 2,0 v -1 h 1 v 1 z m 2,0 v -1 h 1 v 1 z m 2,0 v -1 h 1 v 1 z m 2,0 v -1 h 1 v 1 z m 2,0 v -1 h 1 v 1 z m 2,0 v -1 h 1 v 1 z m 2,0 v -1 h 1 v 1 z m 2,0 v -1 h 1 v 1 z m 2,0 v -1 h 1 v 1 z m 2,0 v -1 h 1 v 1 z m 2,0 v -1 h 1 v 1 z m 2,0 v -1 h 1 v 1 z m 2,0 v -1 h 1 v 1 z m 2,0 v -1 h 1 v 1 z m 2,0 v -1 h 1 v 1 z m 2,0 v -1 h 1 v 1 z m 2,0 v -1 h 1 v 1 z m 2,0 v -1 h 1 v 1 z m 2,0 v -1 h 1 v 1 z m 2,0 v -1 h 1 v 1 z m 2,0 v -1 h 1 v 1 z m 2,0 v -1 h 1 v 1 z m 2,0 v -1 h 1 v 1 z m 2,0 v -1 h 1 v 1 z m 2,0 v -1 h 1 v 1 z m 2,0 v -1 h 1 v 1 z m 2,0 v -1 h 1 v 1 z m 2,0 v -1 h 1 v 1 z m 2,0 v -1 h 1 v 1 z m 2,0 v -1 h 1 v 1 z m 2,0 v -1 h 1 v 1 z m 2,0 v -1 h 1 v 1 z m 2,0 v -1 h 1 v 1 z m 2,0 v -1 h 1 v 1 z m 2,0 v -1 h 1 v 1 z m 2,0 v -1 h 1 v 1 z m 2,0 v -1 h 1 v 1 z m 2,0 v -1 h 1 v 1 z m 2,0 v -1 h 1 v 1 z m 2,0 v -1 h 1 v 1 z m 2,0 v -1 h 1 v 1 z m 2,0 v -1 h 1 v 1 z m 2,0 v -1 h 1 v 1 z m 2,0 v -1 h 1 v 1 z m 2,0 v -1 h 1 v 1 z m 2,0 v -1 h 1 v 1 z m 2,0 v -1 h 1 v 1 z m 2,0 v -1 h 1 v 1 z m 2,0 v -1 h 1 v 1 z m 2,0 v -1 h 1 v 1 z m 2,0 v -1 h 1 v 1 z m 2,0 v -1 h 1 v 1 z m 2,0 v -1 h 1 v 1 z m 2,0 v -1 h 1 v 1 z m 2,0 v -1 h 1 v 1 z m 2,0 v -1 h 1 v 1 z m 2,0 v -1 h 1 v 1 z m 2,0 v -1 h 1 v 1 z m 2,0 v -1 h 1 v 1 z m 2,0 v -1 h 1 v 1 z"
       style="color:#000000;fill:#434343;fill-opacity:1;stroke:none;stroke-opacity:1" />
    <path
       id="path166-9-6-8"
       d="m 6,19 v -2 h 1 v 2 z m 2,0 v -2 h 1 v 2 z m 2,0 v -2 h 1 v 2 z m 2,0 v -2 h 1 v 2 z m 2,0 v -2 h 1 v 2 z m 2,0 v -2 h 1 v 2 z m 2,0 v -2 h 1 v 2 z m 2,0 v -2 h 1 v 2 z m 2,0 v -2 h 1 v 2 z m 2,0 v -2 h 1 v 2 z m 2,0 v -2 h 1 v 2 z m 2,0 v -2 h 1 v 2 z m 2,0 v -2 h 1 v 2 z m 2,0 v -2 h 1 v 2 z m 2,0 v -2 h 1 v 2 z m 2,0 v -2 h 1 v 2 z m 2,0 v -2 h 1 v 2 z m 2,0 v -2 h 1 v 2 z m 2,0 v -5 h 1 v 5 z m 2,0 v -2 h 1 v 2 z m 2,0 v -2 h 1 v 2 z m 2,0 v -2 h 1 v 2 z m 2,0 v -2 h 1 v 2 z m 2,0 v -2 h 1 v 2 z m 2,0 v -2 h 1 v 2 z m 2,0 v -2 h 1 v 2 z m 2,0 v -2 h 1 v 2 z m 2,0 v -2 h 1 v 2 z m 2,0 v -2 h 1 v 2 z m 2,0 v -2 h 1 v 2 z m 2,0 v -2 h 1 v 2 z m 2,0 v -2 h 1 v 2 z m 2,0 v -2 h 1 v 2 z m 2,0 v -2 h 1 v 2 z m 2,0 v -2 h 1 v 2 z m 2,0 v -2 h 1 v 2 z m 2,0 v -3 h 1 v 3 z m 2,0 v -2 h 1 v 2 z m 2,0 v -2 h 1 v 2 z m 2,0 v -2 h 1 v 2 z m 2,0 v -2 h 1 v 2 z m 2,0 v -2 h 1 v 2 z m 2,0 v -2 h 1 v 2 z m 2,0 v -2 h 1 v 2 z m 2,0 v -2 h 1 v 2 z m 2,0 v -2 h 1 v 2 z m 2,0 v -2 h 1 v 2 z m 2,0 v -2 h 1 v 2 z m 2,0 v -2 h 1 v 2 z m 2,0 v -2 h 1 v 2 z m 2,0 v -2 h 1 v 2 z m 2,0 v -2 h 1 v 2 z m 2,0 v -2 h 1 v 2 z m 2,0 v -2 h 1 v 2 z m 2,0 v -5 h 1 v 5 z m 2,0 v -2 h 1 v 2 z m 2,0 v -2 h 1 v 2 z m 2,0 v -2 h 1 v 2 z m 2,0 v -2 h 1 v 2 z m 2,0 v -2 h 1 v 2 z m 2,0 v -2 h 1 v 2 z m 2,0 v -2 h 1 v 2 z m 2,0 v -2 h 1 v 2 z m 2,0 v -2 h 1 v 2 z m 2,0 v -2 h 1 v 2 z m 2,0 v -2 h 1 v 2 z m 2,0 v -2 h 1 v 2 z m 2,0 v -2 h 1 v 2 z m 2,0 v -2 h 1 v 2 z m 2,0 v -2 h 1 v 2 z m 2,0 v -2 h 1 v 2 z m 2,0 v -2 h 1 v 2 z m 2,0 v -2 h 1 v 2 z"
       style="color:#000000;fill:#666666;fill-opacity:1;stroke:none;stroke-opacity:1" />
    <path
       id="path166-9-1-7"
       d="m 7,20 v -1 h 1 v 1 z m 2,0 v -1 h 1 v 1 z m 2,0 v -1 h 1 v 1 z m 2,0 v -1 h 1 v 1 z m 2,0 v -1 h 1 v 1 z m 2,0 v -1 h 1 v 1 z m 2,0 v -1 h 1 v 1 z m 2,0 v -1 h 1 v 1 z m 2,0 v -1 h 1 v 1 z m 2,0 v -1 h 1 v 1 z m 2,0 v -1 h 1 v 1 z m 2,0 v -1 h 1 v 1 z m 2,0 v -1 h 1 v 1 z m 2,0 v -1 h 1 v 1 z m 2,0 v -1 h 1 v 1 z m 2,0 v -1 h 1 v 1 z m 2,0 v -1 h 1 v 1 z m 2,0 v -1 h 1 v 1 z m 2,0 v -1 h 1 v 1 z m 2,0 v -1 h 1 v 1 z m 2,0 v -1 h 1 v 1 z m 2,0 v -1 h 1 v 1 z m 2,0 v -1 h 1 v 1 z m 2,0 v -1 h 1 v 1 z m 2,0 v -1 h 1 v 1 z m 2,0 v -1 h 1 v 1 z m 2,0 v -1 h 1 v 1 z m 2,0 v -1 h 1 v 1 z m 2,0 v -1 h 1 v 1 z m 2,0 v -1 h 1 v 1 z m 2,0 v -1 h 1 v 1 z m 2,0 v -1 h 1 v 1 z m 2,0 v -1 h 1 v 1 z m 2,0 v -1 h 1 v 1 z m 2,0 v -1 h 1 v 1 z m 2,0 v -1 h 1 v 1 z m 2,0 v -1 h 1 v 1 z m 2,0 v -1 h 1 v 1 z m 2,0 v -1 h 1 v 1 z m 2,0 v -1 h 1 v 1 z m 2,0 v -1 h 1 v 1 z m 2,0 v -1 h 1 v 1 z m 2,0 v -1 h 1 v 1 z m 2,0 v -1 h 1 v 1 z m 2,0 v -1 h 1 v 1 z m 2,0 v -1 h 1 v 1 z m 2,0 v -1 h 1 v 1 z m 2,0 v -1 h 1 v 1 z m 2,0 v -1 h 1 v 1 z m 2,0 v -1 h 1 v 1 z m 2,0 v -1 h 1 v 1 z m 2,0 v -1 h 1 v 1 z m 2,0 v -1 h 1 v 1 z m 2,0 v -1 h 1 v 1 z m 2,0 v -1 h 1 v 1 z m 2,0 v -1 h 1 v 1 z m 2,0 v -1 h 1 v 1 z m 2,0 v -1 h 1 v 1 z m 2,0 v -1 h 1 v 1 z m 2,0 v -1 h 1 v 1 z m 2,0 v -1 h 1 v 1 z m 2,0 v -1 h 1 v 1 z m 2,0 v -1 h 1 v 1 z m 2,0 v -1 h 1 v 1 z m 2,0 v -1 h 1 v 1 z m 2,0 v -1 h 1 v 1 z m 2,0 v -1 h 1 v 1 z m 2,0 v -1 h 1 v 1 z m 2,0 v -1 h 1 v 1 z m 2,0 v -1 h 1 v 1 z m 2,0 v -1 h 1 v 1 z m 2,0 v -1 h 1 v 1 z"
       style="color:#000000;fill:#101010;fill-opacity:1;stroke:none;stroke-opacity:1" />
  </g>
  <g
     style="display:inline"
     id="layer3">
    <path
       id="rect1769"
       d="m 5,20 v 4 h 147 v -4 z m 1,1 h 145 v 2 H 6 Z"
       style="opacity:1;fill:#0f0f0f;fill-opacity:1;stroke:none;stroke-width:2.4370873;stroke-linecap:round;stroke-linejoin:round;stroke-miterlimit:4;stroke-dasharray:none;stroke-opacity:1;paint-order:fill markers stroke" />
  </g>
</svg>
