<svg width="141" height="46" version="1.1" xmlns="http://www.w3.org/2000/svg"><path d="m70.999596 25.5v10h-.999596v-10z" color="#000000" fill="#050505" stroke-width=".99979782"/><g display="none"><rect x="-1902.9451" y="-1208.74" width="3838.3003" height="2486.3296" fill="#1e1e1e" style="paint-order:fill markers stroke"/></g><g fill="#050505"><path d="m 134.00001,20 v 4 H 7 v -4 z" color="#000000" stroke-width=".99999994"/><g stroke-width=".99979782"><path d="m70.999596 7.5v10h-.999596v-10z" color="#000000"/><path d="m7.999596 25.5v10h-.999596v-10z" color="#000000"/><path d="m7.999596 7.5v10h-.999596v-10z" color="#000000"/><path d="m133.9996 25.5v10h-.9996v-10z" color="#000000"/><path d="m133.9996 7.5v10h-.9996v-10z" color="#000000"/><path d="m54.999596 25.5.000202 8h-.999596l-.000202-8z" color="#000000"/><path d="m54.999798 9.5-.000202 8h-.999596l.000202-8z" color="#000000"/><path d="m86.999596 25.5.000202 8h-.999596l-.000202-8z" color="#000000"/><path d="m86.999798 9.5-.000202 8h-.999596l.000202-8z" color="#000000"/></g></g><g fill="#4b4b4b"><path d="m6 19v6h129v-6zm1 1h127v4h-127z" style="paint-order:fill markers stroke"/><g stroke-width=".99979782"><path d="m70.999596 8v10h-.999596v-10z" color="#000000"/><path d="m70.999596 36v-10h-.999596v10z" color="#000000"/><path d="M 7.999596,8 V 18 H 7 V 8 Z" color="#000000"/><path d="m7.999596 36v-10h-.999596v10z" color="#000000"/><path d="m133.9996 8v10h-.9996v-10z" color="#000000"/><path d="m133.9996 36v-10h-.9996v10z" color="#000000"/><path d="m54.999798 10-.000202 8h-.999596l.000202-8z" color="#000000"/><path d="m54.999798 34-.000202-8h-.999596l.000202 8z" color="#000000"/><path d="m86.999798 10-.000202 8h-.999596l.000202-8z" color="#000000"/><path d="m86.999798 34-.000202-8h-.999596l.000202 8z" color="#000000"/></g></g></svg>
