<?xml version="1.0" encoding="UTF-8" standalone="no"?>
<svg
   xmlns:dc="http://purl.org/dc/elements/1.1/"
   xmlns:cc="http://creativecommons.org/ns#"
   xmlns:rdf="http://www.w3.org/1999/02/22-rdf-syntax-ns#"
   xmlns:svg="http://www.w3.org/2000/svg"
   xmlns="http://www.w3.org/2000/svg"
   id="svg528"
   version="1.1"
   height="105"
   width="40">
  <metadata
     id="metadata534">
    <rdf:RDF>
      <cc:Work
         rdf:about="">
        <dc:format>image/svg+xml</dc:format>
        <dc:type
           rdf:resource="http://purl.org/dc/dcmitype/StillImage" />
        <dc:title></dc:title>
      </cc:Work>
    </rdf:RDF>
  </metadata>
  <defs
     id="defs532" />
  <rect
     style="color:#000000;fill:#525252;stroke-width:0.99980003"
     id="rect2"
     height="0.99959999"
     width="22"
     y="0.99998999"
     x="9" />
  <path
     d="m 11,79.0005 6,-0.0115 v 0.9995 L 11,80 Z"
     id="path4"
     style="color:#000000;fill:#666666;stroke-width:0.99979001" />
  <path
     d="m 15,97 2,-8e-4 v 0.9996 l -2,8e-4 z"
     id="path6"
     style="color:#000000;fill:#666666;stroke-width:0.99979001" />
  <path
     d="m 15,95.001 2,-8e-4 v 0.9995 l -2,9e-4 z"
     id="path8"
     style="color:#000000;fill:#666666;stroke-width:0.99979001" />
  <path
     d="m 15,93.002 2,-8e-4 v 0.9996 l -2,8e-4 z"
     id="path10"
     style="color:#000000;fill:#666666;stroke-width:0.99979001" />
  <path
     d="m 15,91.003 2,-8e-4 v 0.9996 l -2,8e-4 z"
     id="path12"
     style="color:#000000;fill:#666666;stroke-width:0.99979001" />
  <path
     d="m 15,89.004 2,-8e-4 v 0.9995 l -2,8e-4 z"
     id="path14"
     style="color:#000000;fill:#666666;stroke-width:0.99979001" />
  <path
     d="m 15,87.005 2,-8e-4 v 0.9996 l -2,8e-4 z"
     id="path16"
     style="color:#000000;fill:#666666;stroke-width:0.99979001" />
  <path
     d="m 15,85.006 2,-8e-4 v 0.9995 l -2,9e-4 z"
     id="path18"
     style="color:#000000;fill:#666666;stroke-width:0.99979001" />
  <path
     d="m 15,83.006 2,-8e-4 v 0.9996 l -2,8e-4 z"
     id="path20"
     style="color:#000000;fill:#666666;stroke-width:0.99979001" />
  <path
     d="m 15,81.007 2,-8e-4 v 0.9996 l -2,8e-4 z"
     id="path22"
     style="color:#000000;fill:#666666;stroke-width:0.99979001" />
  <path
     d="m 15,77.009 2,-8e-4 v 0.9996 l -2,8e-4 z"
     id="path24"
     style="color:#000000;fill:#666666;stroke-width:0.99979001" />
  <path
     d="m 15,73.011 2,-8e-4 v 0.9996 l -2,8e-4 z"
     id="path26"
     style="color:#000000;fill:#666666;stroke-width:0.99979001" />
  <path
     d="m 15,71.012 2,-8e-4 v 0.9996 l -2,8e-4 z"
     id="path28"
     style="color:#000000;fill:#666666;stroke-width:0.99979001" />
  <path
     d="m 15,69.012 2,-8e-4 v 0.9995 l -2,8e-4 z"
     id="path30"
     style="color:#000000;fill:#666666;stroke-width:0.99979001" />
  <path
     d="m 15,67.013 2,-8e-4 v 0.9996 l -2,8e-4 z"
     id="path32"
     style="color:#000000;fill:#666666;stroke-width:0.99979001" />
  <path
     d="m 15,65.014 2,-8e-4 v 0.9995 l -2,9e-4 z"
     id="path34"
     style="color:#000000;fill:#666666;stroke-width:0.99979001" />
  <path
     d="m 15,63.015 2,-8e-4 v 0.9996 l -2,8e-4 z"
     id="path36"
     style="color:#000000;fill:#666666;stroke-width:0.99979001" />
  <path
     d="m 15,61.016 2,-8e-4 v 0.9996 l -2,8e-4 z"
     id="path38"
     style="color:#000000;fill:#666666;stroke-width:0.99979001" />
  <path
     d="m 15,59.017 2,-8e-4 v 0.9995 l -2,8e-4 z"
     id="path40"
     style="color:#000000;fill:#666666;stroke-width:0.99979001" />
  <path
     d="m 15,57.018 2,-8e-4 v 0.9996 l -2,8e-4 z"
     id="path42"
     style="color:#000000;fill:#666666;stroke-width:0.99979001" />
  <path
     d="m 15,55.018 2,-8e-4 v 0.9995 l -2,8e-4 z"
     id="path44"
     style="color:#000000;fill:#666666;stroke-width:0.99979001" />
  <path
     d="m 15,24.999 2,-9e-4 v 0.9996 l -2,8e-4 z"
     id="path46"
     style="color:#000000;fill:#666666;stroke-width:0.99979001" />
  <path
     d="m 15,22.992 2,-8.1e-4 v 0.99957 l -2,8.1e-4 z"
     id="path48"
     style="color:#000000;fill:#666666;stroke-width:0.99979001" />
  <path
     d="m 15,20.993 2,-8.1e-4 v 0.99957 l -2,8.1e-4 z"
     id="path50"
     style="color:#000000;fill:#666666;stroke-width:0.99979001" />
  <path
     d="m 15,18.994 2,-8.1e-4 v 0.99957 l -2,8.1e-4 z"
     id="path52"
     style="color:#000000;fill:#666666;stroke-width:0.99979001" />
  <path
     d="m 15,16.995 2,-8.1e-4 v 0.99957 l -2,8.1e-4 z"
     id="path54"
     style="color:#000000;fill:#666666;stroke-width:0.99979001" />
  <path
     d="m 15,14.996 2,-8.1e-4 v 0.99957 l -2,8.1e-4 z"
     id="path56"
     style="color:#000000;fill:#666666;stroke-width:0.99979001" />
  <path
     d="m 15,12.997 2,-8.1e-4 v 0.99957 l -2,8.1e-4 z"
     id="path58"
     style="color:#000000;fill:#666666;stroke-width:0.99979001" />
  <path
     d="m 15,10.997 2,-8.1e-4 v 0.99957 l -2,8.1e-4 z"
     id="path60"
     style="color:#000000;fill:#666666;stroke-width:0.99979001" />
  <path
     d="m 15,8.9982 2,-8.1e-4 v 0.99957 l -2,8.1e-4 z"
     id="path62"
     style="color:#000000;fill:#666666;stroke-width:0.99979001" />
  <path
     d="m 15,6.9991 2,-8.1e-4 v 0.99957 l -2,8.1e-4 z"
     id="path64"
     style="color:#000000;fill:#666666;stroke-width:0.99979001" />
  <path
     d="m 15,5 2,-8.1e-4 v 0.99957 l -2,8.1e-4 z"
     id="path66"
     style="color:#000000;fill:#666666;stroke-width:0.99979001" />
  <path
     d="m 15,3.0008 2,-8.1e-4 v 0.99957 l -2,8.1e-4 z"
     id="path68"
     style="color:#000000;fill:#666666;stroke-width:0.99979001" />
  <path
     style="color:#000000;fill:#525252;stroke-width:0.99980003"
     d="M 11,103.0004 H 29 V 104 H 11 Z"
     id="rect72" />
  <rect
     style="color:#000000;fill:#030303"
     id="rect74"
     height="98.999001"
     width="4"
     y="3"
     x="18" />
  <g
     transform="translate(1)"
     style="fill:#434343;stroke-width:0.99978"
     id="g172">
    <path
       style="color:#000000"
       id="path76"
       d="m 16,75 h 1 v 0.9995 h -1 z" />
    <path
       style="color:#000000"
       id="path78"
       d="m 16,49 1,-1e-5 v 0.99956 h -1 z" />
    <path
       style="color:#000000"
       id="path80"
       d="m 16,25.001 h 1 v 0.99956 l -1,10e-6 z" />
    <path
       style="color:#000000"
       id="path82"
       d="m 16,96.999 h 1 v 0.9996 h -1 z" />
    <path
       style="color:#000000"
       id="path84"
       d="m 16,95 h 1 v 0.9996 h -1 z" />
    <path
       style="color:#000000"
       id="path86"
       d="m 16,93.001 h 1 v 0.9996 h -1 z" />
    <path
       style="color:#000000"
       id="path88"
       d="m 16,91.002 h 1 v 0.9995 h -1 z" />
    <path
       style="color:#000000"
       id="path90"
       d="m 16,89.002 h 1 v 0.9996 h -1 z" />
    <path
       style="color:#000000"
       id="path92"
       d="m 16,87.003 h 1 v 0.9996 h -1 z" />
    <path
       style="color:#000000"
       id="path94"
       d="m 16,85.004 h 1 v 0.9996 h -1 z" />
    <path
       style="color:#000000"
       id="path96"
       d="m 16,83.005 h 1 v 0.9995 h -1 z" />
    <path
       style="color:#000000"
       id="path98"
       d="m 16,81.006 h 1 v 0.9996 h -1 z" />
    <path
       style="color:#000000"
       id="path100"
       d="m 16,79.007 h 1 v 0.9996 h -1 z" />
    <path
       style="color:#000000"
       id="path102"
       d="m 16,77.008 h 1 v 0.9996 h -1 z" />
    <path
       style="color:#000000"
       id="path104"
       d="m 16,73.009 h 1 v 0.9995 h -1 z" />
    <path
       style="color:#000000"
       id="path106"
       d="m 16,71.01 h 1 v 0.9996 h -1 z" />
    <path
       style="color:#000000"
       id="path108"
       d="m 16,69.011 h 1 v 0.9996 h -1 z" />
    <path
       style="color:#000000"
       id="path110"
       d="m 16,67.012 h 1 v 0.9995 h -1 z" />
    <path
       style="color:#000000"
       id="path112"
       d="m 16,65.013 h 1 v 0.9995 h -1 z" />
    <path
       style="color:#000000"
       id="path114"
       d="m 16,63.014 h 1 v 0.9996 h -1 z" />
    <path
       style="color:#000000"
       id="path116"
       d="m 16,61.015 h 1 v 0.9996 h -1 z" />
    <path
       style="color:#000000"
       id="path118"
       d="m 16,59.016 h 1 v 0.9995 h -1 z" />
    <path
       style="color:#000000"
       id="path120"
       d="m 16,57.016 h 1 v 0.9995 h -1 z" />
    <path
       style="color:#000000"
       id="path122"
       d="m 16,55.017 h 1 v 0.9996 h -1 z" />
    <path
       style="color:#000000"
       id="path124"
       d="m 16,53.018 h 1 v 0.9996 h -1 z" />
    <path
       style="color:#000000"
       id="path126"
       d="m 16,50.979 1,0.002 v 0.99956 l -1,-0.002 z" />
    <path
       style="color:#000000"
       id="path128"
       d="m 16,46.981 1,0.002 v 0.99957 l -1,-0.002 z" />
    <path
       style="color:#000000"
       id="path130"
       d="m 16,44.982 1,0.002 v 0.99956 l -1,-0.002 z" />
    <path
       style="color:#000000"
       id="path132"
       d="m 16,42.982 1,0.002 v 0.99956 l -1,-0.002 z" />
    <path
       style="color:#000000"
       id="path134"
       d="m 16,40.983 1,0.002 v 0.99956 l -1,-0.002 z" />
    <path
       style="color:#000000"
       id="path136"
       d="m 16,38.984 1,0.002 v 0.99956 l -1,-0.002 z" />
    <path
       style="color:#000000"
       id="path138"
       d="m 16,36.985 1,0.002 v 0.99957 l -1,-0.002 z" />
    <path
       style="color:#000000"
       id="path140"
       d="m 16,34.986 1,0.002 v 0.99956 l -1,-0.002 z" />
    <path
       style="color:#000000"
       id="path142"
       d="m 16,32.987 1,0.002 v 0.99957 l -1,-0.002 z" />
    <path
       style="color:#000000"
       id="path144"
       d="m 16,30.988 1,0.002 v 0.99956 l -1,-0.002 z" />
    <path
       style="color:#000000"
       id="path146"
       d="m 16,28.989 1,0.002 v 0.99956 l -1,-0.002 z" />
    <path
       style="color:#000000"
       id="path148"
       d="m 16,26.989 1,0.002 v 0.99957 l -1,-0.002 z" />
    <path
       style="color:#000000"
       id="path150"
       d="m 16,22.991 1,0.002 v 0.99956 l -1,-0.002 z" />
    <path
       style="color:#000000"
       id="path152"
       d="m 16,20.992 1,0.002 v 0.99956 l -1,-0.002 z" />
    <path
       style="color:#000000"
       id="path154"
       d="m 16,18.993 1,0.002 v 0.99956 l -1,-0.002 z" />
    <path
       style="color:#000000"
       id="path156"
       d="m 16,16.994 1,0.002 v 0.99956 l -1,-0.002 z" />
    <path
       style="color:#000000"
       id="path158"
       d="m 16,14.995 1,0.002 v 0.99956 l -1,-0.002 z" />
    <path
       style="color:#000000"
       id="path160"
       d="m 16,12.996 1,0.002 v 0.99956 l -1,-0.002 z" />
    <path
       style="color:#000000"
       id="path162"
       d="m 16,10.996 1,0.002 v 0.99957 l -1,-0.002 z" />
    <path
       style="color:#000000"
       id="path164"
       d="m 16,8.9974 1,0.002 v 0.99956 l -1,-0.002 z" />
    <path
       style="color:#000000"
       id="path166"
       d="m 16,6.9983 1,0.002 v 0.99956 l -1,-0.002 z" />
    <path
       style="color:#000000"
       id="path168"
       d="m 16,4.9991 1,0.002 v 0.99956 l -1,-0.002 z" />
    <path
       style="color:#000000"
       id="path170"
       d="m 16,3 1,0.002 v 0.99956 l -1,-0.002 z" />
  </g>
  <path
     d="M 29,79.0005 23,78.989 v 0.9995 L 29,80 Z"
     id="path174"
     style="color:#000000;fill:#525252;stroke-width:0.99979001" />
  <path
     d="m 25,97.001 -2,-8e-4 v 0.9996 l 2,8e-4 z"
     id="path176"
     style="color:#000000;fill:#525252;stroke-width:0.99979001" />
  <path
     d="m 25,95.002 -2,-8e-4 v 0.9996 l 2,8e-4 z"
     id="path178"
     style="color:#000000;fill:#525252;stroke-width:0.99979001" />
  <path
     d="m 25,93.003 -2,-9e-4 v 0.9996 l 2,8e-4 z"
     id="path180"
     style="color:#000000;fill:#525252;stroke-width:0.99979001" />
  <path
     d="m 25,91.004 -2,-8e-4 v 0.9996 l 2,8e-4 z"
     id="path182"
     style="color:#000000;fill:#525252;stroke-width:0.99979001" />
  <path
     d="m 25,89.005 -2,-8e-4 v 0.9995 l 2,8e-4 z"
     id="path184"
     style="color:#000000;fill:#525252;stroke-width:0.99979001" />
  <path
     d="m 25,87.006 -2,-8e-4 v 0.9996 l 2,8e-4 z"
     id="path186"
     style="color:#000000;fill:#525252;stroke-width:0.99979001" />
  <path
     d="m 25,85.006 -2,-8e-4 v 0.9996 l 2,8e-4 z"
     id="path188"
     style="color:#000000;fill:#525252;stroke-width:0.99979001" />
  <path
     d="m 25,83.007 -2,-9e-4 v 0.9996 l 2,8e-4 z"
     id="path190"
     style="color:#000000;fill:#525252;stroke-width:0.99979001" />
  <path
     d="m 25,81.008 -2,-8e-4 v 0.9996 l 2,8e-4 z"
     id="path192"
     style="color:#000000;fill:#525252;stroke-width:0.99979001" />
  <path
     d="m 25,77.01 -2,-8e-4 v 0.9996 l 2,8e-4 z"
     id="path194"
     style="color:#000000;fill:#525252;stroke-width:0.99979001" />
  <path
     d="m 25,73.012 -2,-9e-4 v 0.9996 l 2,8e-4 z"
     id="path196"
     style="color:#000000;fill:#525252;stroke-width:0.99979001" />
  <path
     d="m 25,71.012 -2,-8e-4 v 0.9996 l 2,8e-4 z"
     id="path198"
     style="color:#000000;fill:#525252;stroke-width:0.99979001" />
  <path
     d="m 25,69.013 -2,-8e-4 v 0.9995 l 2,8e-4 z"
     id="path200"
     style="color:#000000;fill:#525252;stroke-width:0.99979001" />
  <path
     d="m 25,67.014 -2,-8e-4 v 0.9996 l 2,8e-4 z"
     id="path202"
     style="color:#000000;fill:#525252;stroke-width:0.99979001" />
  <path
     d="m 25,65.015 -2,-8e-4 v 0.9996 l 2,8e-4 z"
     id="path204"
     style="color:#000000;fill:#525252;stroke-width:0.99979001" />
  <path
     d="m 25,63.016 -2,-9e-4 v 0.9996 l 2,8e-4 z"
     id="path206"
     style="color:#000000;fill:#525252;stroke-width:0.99979001" />
  <path
     d="m 25,61.017 -2,-8e-4 v 0.9996 l 2,8e-4 z"
     id="path208"
     style="color:#000000;fill:#525252;stroke-width:0.99979001" />
  <path
     d="m 25,59.018 -2,-8e-4 v 0.9995 l 2,8e-4 z"
     id="path210"
     style="color:#000000;fill:#525252;stroke-width:0.99979001" />
  <path
     d="m 25,57.018 -2,-8e-4 v 0.9996 l 2,8e-4 z"
     id="path212"
     style="color:#000000;fill:#525252;stroke-width:0.99979001" />
  <path
     d="m 25,55.019 -2,-8e-4 v 0.9995 l 2,9e-4 z"
     id="path214"
     style="color:#000000;fill:#525252;stroke-width:0.99979001" />
  <path
     d="m 25,25 -2,-8e-4 v 0.9995 l 2,8e-4 z"
     id="path216"
     style="color:#000000;fill:#525252;stroke-width:0.99979001" />
  <path
     d="m 25,22.993 -2,-8.1e-4 v 0.99957 l 2,8.1e-4 z"
     id="path218"
     style="color:#000000;fill:#525252;stroke-width:0.99979001" />
  <path
     d="m 25,20.994 -2,-8.1e-4 v 0.99957 l 2,8.1e-4 z"
     id="path220"
     style="color:#000000;fill:#525252;stroke-width:0.99979001" />
  <path
     d="m 25,18.995 -2,-8.1e-4 v 0.99957 l 2,8.1e-4 z"
     id="path222"
     style="color:#000000;fill:#525252;stroke-width:0.99979001" />
  <path
     d="m 25,16.996 -2,-8.1e-4 v 0.99957 l 2,8.1e-4 z"
     id="path224"
     style="color:#000000;fill:#525252;stroke-width:0.99979001" />
  <path
     d="m 25,14.996 -2,-8.1e-4 v 0.99957 l 2,8.1e-4 z"
     id="path226"
     style="color:#000000;fill:#525252;stroke-width:0.99979001" />
  <path
     d="m 25,12.997 -2,-8.1e-4 v 0.99957 l 2,8.1e-4 z"
     id="path228"
     style="color:#000000;fill:#525252;stroke-width:0.99979001" />
  <path
     d="m 25,10.998 -2,-8.1e-4 v 0.99957 l 2,8.1e-4 z"
     id="path230"
     style="color:#000000;fill:#525252;stroke-width:0.99979001" />
  <path
     d="m 25,8.999 -2,-8.1e-4 v 0.99957 l 2,8.1e-4 z"
     id="path232"
     style="color:#000000;fill:#525252;stroke-width:0.99979001" />
  <path
     d="m 25,6.9999 -2,-8.1e-4 v 0.99957 l 2,8.1e-4 z"
     id="path234"
     style="color:#000000;fill:#525252;stroke-width:0.99979001" />
  <path
     d="m 25,5.0008 -2,-8.1e-4 v 0.99957 l 2,8.1e-4 z"
     id="path236"
     style="color:#000000;fill:#525252;stroke-width:0.99979001" />
  <path
     d="m 25,3.0016 -2,-8.1e-4 v 0.99957 l 2,8.1e-4 z"
     id="path238"
     style="color:#000000;fill:#525252;stroke-width:0.99979001" />
  <g
     transform="translate(1)"
     style="fill:#6e6e6e;stroke-width:0.99978"
     id="g338">
    <path
       style="color:#000000"
       id="path242"
       d="m 22,75 h -1 v 0.9995 l 1,1e-4 z" />
    <path
       style="color:#000000"
       id="path244"
       d="m 22,49.001 h -1 v 0.99956 h 1 z" />
    <path
       style="color:#000000"
       id="path246"
       d="m 22,25.002 -1,-10e-6 v 0.99957 h 1 z" />
    <path
       style="color:#000000"
       id="path248"
       d="m 22,97 h -1 v 0.9996 h 1 z" />
    <path
       style="color:#000000"
       id="path250"
       d="m 22,95 h -1 v 0.9996 h 1 z" />
    <path
       style="color:#000000"
       id="path252"
       d="m 22,93.001 h -1 v 0.9996 h 1 z" />
    <path
       style="color:#000000"
       id="path254"
       d="m 22,91.002 h -1 v 0.9995 h 1 z" />
    <path
       style="color:#000000"
       id="path256"
       d="m 22,89.003 h -1 v 0.9995 h 1 z" />
    <path
       style="color:#000000"
       id="path258"
       d="m 22,87.004 h -1 v 0.9996 h 1 z" />
    <path
       style="color:#000000"
       id="path260"
       d="m 22,85.005 h -1 v 0.9996 h 1 z" />
    <path
       style="color:#000000"
       id="path262"
       d="m 22,83.006 h -1 v 0.9995 h 1 z" />
    <path
       style="color:#000000"
       id="path264"
       d="m 22,81.007 h -1 v 0.9995 h 1 z" />
    <path
       style="color:#000000"
       id="path266"
       d="m 22,79.008 h -1 v 0.9996 h 1 z" />
    <path
       style="color:#000000"
       id="path268"
       d="m 22,77.008 h -1 v 0.9996 h 1 z" />
    <path
       style="color:#000000"
       id="path270"
       d="m 22,73.01 h -1 v 0.9995 h 1 z" />
    <path
       style="color:#000000"
       id="path272"
       d="m 22,71.011 h -1 v 0.9996 h 1 z" />
    <path
       style="color:#000000"
       id="path274"
       d="m 22,69.012 h -1 v 0.9996 h 1 z" />
    <path
       style="color:#000000"
       id="path276"
       d="m 22,67.013 h -1 v 0.9996 h 1 z" />
    <path
       style="color:#000000"
       id="path278"
       d="m 22,65.014 h -1 v 0.9995 h 1 z" />
    <path
       style="color:#000000"
       id="path280"
       d="m 22,63.014 h -1 v 0.9996 h 1 z" />
    <path
       style="color:#000000"
       id="path282"
       d="m 22,61.015 h -1 v 0.9996 h 1 z" />
    <path
       style="color:#000000"
       id="path284"
       d="m 22,59.016 h -1 v 0.9996 h 1 z" />
    <path
       style="color:#000000"
       id="path286"
       d="m 22,57.017 h -1 v 0.9995 h 1 z" />
    <path
       style="color:#000000"
       id="path288"
       d="m 22,55.018 h -1 v 0.9996 h 1 z" />
    <path
       style="color:#000000"
       id="path290"
       d="m 22,53.019 h -1 v 0.9996 h 1 z" />
    <path
       style="color:#000000"
       id="path292"
       d="m 22,50.98 -1,0.002 v 0.99956 l 1,-0.002 z" />
    <path
       style="color:#000000"
       id="path294"
       d="m 22,46.982 -1,0.002 v 0.99956 l 1,-0.002 z" />
    <path
       style="color:#000000"
       id="path296"
       d="m 22,44.982 -1,0.002 v 0.99956 l 1,-0.002 z" />
    <path
       style="color:#000000"
       id="path298"
       d="m 22,42.983 -1,0.002 v 0.99956 l 1,-0.002 z" />
    <path
       style="color:#000000"
       id="path300"
       d="m 22,40.984 -1,0.002 v 0.99956 l 1,-0.002 z" />
    <path
       style="color:#000000"
       id="path302"
       d="m 22,38.985 -1,0.002 v 0.99957 l 1,-0.002 z" />
    <path
       style="color:#000000"
       id="path304"
       d="m 22,36.986 -1,0.002 v 0.99956 l 1,-0.002 z" />
    <path
       style="color:#000000"
       id="path306"
       d="m 22,34.987 -1,0.002 v 0.99956 l 1,-0.002 z" />
    <path
       style="color:#000000"
       id="path308"
       d="m 22,32.988 -1,0.002 v 0.99957 l 1,-0.002 z" />
    <path
       style="color:#000000"
       id="path310"
       d="m 22,30.989 -1,0.002 v 0.99956 l 1,-0.002 z" />
    <path
       style="color:#000000"
       id="path312"
       d="m 22,28.989 -1,0.002 v 0.99956 l 1,-0.002 z" />
    <path
       style="color:#000000"
       id="path314"
       d="m 22,26.99 -1,0.002 v 0.99956 l 1,-0.002 z" />
    <path
       style="color:#000000"
       id="path316"
       d="m 22,22.992 -1,0.002 v 0.99956 l 1,-0.002 z" />
    <path
       style="color:#000000"
       id="path318"
       d="m 22,20.993 -1,0.002 v 0.99956 l 1,-0.002 z" />
    <path
       style="color:#000000"
       id="path320"
       d="m 22,18.994 -1,0.002 v 0.99956 l 1,-0.002 z" />
    <path
       style="color:#000000"
       id="path322"
       d="m 22,16.995 -1,0.002 v 0.99957 l 1,-0.002 z" />
    <path
       style="color:#000000"
       id="path324"
       d="m 22,14.996 -1,0.002 v 0.99956 l 1,-0.002 z" />
    <path
       style="color:#000000"
       id="path326"
       d="m 22,12.996 -1,0.002 v 0.99956 l 1,-0.002 z" />
    <path
       style="color:#000000"
       id="path328"
       d="m 22,10.997 -1,0.002 v 0.99956 l 1,-0.002 z" />
    <path
       style="color:#000000"
       id="path330"
       d="m 22,8.9982 -1,0.002 v 0.99956 l 1,-0.002 z" />
    <path
       style="color:#000000"
       id="path332"
       d="m 22,6.9991 -1,0.002 v 0.99957 l 1,-0.002 z" />
    <path
       style="color:#000000"
       id="path334"
       d="m 22,4.9999 -1,0.002 v 0.99956 l 1,-0.002 z" />
    <path
       style="color:#000000"
       id="path336"
       d="m 22,3.0008 -1,0.002 v 0.99956 l 1,-0.002 z" />
  </g>
  <g
     transform="translate(1)"
     style="fill:#101010;stroke-width:0.99978"
     id="g434">
    <path
       style="color:#000000"
       id="path340"
       d="m 16,73.983 h 1 v 0.9995 h -1 z" />
    <path
       style="color:#000000"
       id="path342"
       d="m 16,47.984 h 1 v 0.99956 h -1 z" />
    <path
       style="color:#000000"
       id="path344"
       d="m 16,23.985 1,-10e-6 v 0.99957 h -1 z" />
    <path
       style="color:#000000"
       id="path346"
       d="m 16,95.983 h 1 v 0.9996 h -1 z" />
    <path
       style="color:#000000"
       id="path348"
       d="m 16,93.984 h 1 v 0.9996 h -1 z" />
    <path
       style="color:#000000"
       id="path350"
       d="m 16,91.984 h 1 v 0.9995 h -1 z" />
    <path
       style="color:#000000"
       id="path352"
       d="m 16,89.985 h 1 v 0.9995 h -1 z" />
    <path
       style="color:#000000"
       id="path354"
       d="m 16,87.986 h 1 v 0.9996 h -1 z" />
    <path
       style="color:#000000"
       id="path356"
       d="m 16,85.987 h 1 v 0.9996 h -1 z" />
    <path
       style="color:#000000"
       id="path358"
       d="m 16,83.988 h 1 v 0.9995 h -1 z" />
    <path
       style="color:#000000"
       id="path360"
       d="m 16,81.989 h 1 v 0.9995 h -1 z" />
    <path
       style="color:#000000"
       id="path362"
       d="m 16,79.99 h 1 v 0.9996 h -1 z" />
    <path
       style="color:#000000"
       id="path364"
       d="m 16,77.99 h 1 v 0.9996 h -1 z" />
    <path
       style="color:#000000"
       id="path366"
       d="m 16,75.991 h 1 v 0.9996 h -1 z" />
    <path
       style="color:#000000"
       id="path368"
       d="m 16,71.993 h 1 v 0.9996 h -1 z" />
    <path
       style="color:#000000"
       id="path370"
       d="m 16,69.994 h 1 v 0.9996 h -1 z" />
    <path
       style="color:#000000"
       id="path372"
       d="m 16,67.995 h 1 v 0.9996 h -1 z" />
    <path
       style="color:#000000"
       id="path374"
       d="m 16,65.996 h 1 v 0.9995 h -1 z" />
    <path
       style="color:#000000"
       id="path376"
       d="m 16,63.997 h 1 v 0.9996 h -1 z" />
    <path
       style="color:#000000"
       id="path378"
       d="m 16,61.998 h 1 v 0.9996 h -1 z" />
    <path
       style="color:#000000"
       id="path380"
       d="m 16,59.998 h 1 v 0.9996 h -1 z" />
    <path
       style="color:#000000"
       id="path382"
       d="m 16,57.999 h 1 v 0.9995 h -1 z" />
    <path
       style="color:#000000"
       id="path384"
       d="m 16,56 h 1 v 0.9995 h -1 z" />
    <path
       style="color:#000000"
       id="path386"
       d="m 16,54.001 h 1 v 0.9996 h -1 z" />
    <path
       style="color:#000000"
       id="path388"
       d="m 16,52.002 1,0.002 v 0.99959 h -1 z" />
    <path
       style="color:#000000"
       id="path390"
       d="m 16,49.963 1,0.002 v 0.99956 l -1,-0.002 z" />
    <path
       style="color:#000000"
       id="path392"
       d="m 16,45.965 1,0.002 v 0.99956 l -1,-0.002 z" />
    <path
       style="color:#000000"
       id="path394"
       d="m 16,43.965 1,0.002 v 0.99956 l -1,-0.002 z" />
    <path
       style="color:#000000"
       id="path396"
       d="m 16,41.966 1,0.002 v 0.99956 l -1,-0.002 z" />
    <path
       style="color:#000000"
       id="path398"
       d="m 16,39.967 1,0.002 v 0.99956 l -1,-0.002 z" />
    <path
       style="color:#000000"
       id="path400"
       d="m 16,37.968 1,0.002 v 0.99956 l -1,-0.002 z" />
    <path
       style="color:#000000"
       id="path402"
       d="m 16,35.969 1,0.002 v 0.99956 l -1,-0.002 z" />
    <path
       style="color:#000000"
       id="path404"
       d="m 16,33.97 1,0.002 v 0.99956 l -1,-0.002 z" />
    <path
       style="color:#000000"
       id="path406"
       d="m 16,31.971 1,0.002 v 0.99956 l -1,-0.002 z" />
    <path
       style="color:#000000"
       id="path408"
       d="m 16,29.972 1,0.002 v 0.99956 l -1,-0.002 z" />
    <path
       style="color:#000000"
       id="path410"
       d="m 16,27.972 1,0.002 v 0.99957 l -1,-0.002 z" />
    <path
       style="color:#000000"
       id="path412"
       d="m 16,25.973 1,0.002 v 0.99956 l -1,-0.002 z" />
    <path
       style="color:#000000"
       id="path414"
       d="m 16,21.975 1,0.002 v 0.99957 l -1,-0.002 z" />
    <path
       style="color:#000000"
       id="path416"
       d="m 16,19.976 1,0.002 v 0.99956 l -1,-0.002 z" />
    <path
       style="color:#000000"
       id="path418"
       d="m 16,17.977 1,0.002 v 0.99956 l -1,-0.002 z" />
    <path
       style="color:#000000"
       id="path420"
       d="m 16,15.978 1,0.002 v 0.99956 l -1,-0.002 z" />
    <path
       style="color:#000000"
       id="path422"
       d="m 16,13.979 1,0.002 v 0.99956 l -1,-0.002 z" />
    <path
       style="color:#000000"
       id="path424"
       d="m 16,11.979 1,0.002 v 0.99956 l -1,-0.002 z" />
    <path
       style="color:#000000"
       id="path426"
       d="m 16,9.9803 1,0.002 v 0.99956 l -1,-0.002 z" />
    <path
       style="color:#000000"
       id="path428"
       d="m 16,7.9812 1,0.002 v 0.99956 l -1,-0.002 z" />
    <path
       style="color:#000000"
       id="path430"
       d="m 16,5.982 1,0.002 v 0.99956 l -1,-0.002 z" />
    <path
       style="color:#000000"
       id="path432"
       d="m 16,3.9829 1,0.002 v 0.99956 l -1,-0.002 z" />
  </g>
  <path
     id="path436"
     style="fill:#0f0f0f;paint-order:fill markers stroke"
     d="m 18,102 h 4 V 3 h -4 z m 1,-1 V 4 h 2 v 97 z" />
  <g
     transform="translate(1)"
     style="fill:#666666;stroke-width:0.99979001"
     id="g464">
    <path
       style="color:#000000"
       id="path438"
       d="m 13,53 3,-10e-4 v 0.9996 l -3,10e-4 z" />
    <path
       style="color:#000000"
       id="path440"
       d="M 10,26.991 16,27 v 0.99958 l -6,-0.009 z" />
    <path
       style="color:#000000"
       id="path442"
       d="m 14,48.982 2,-8.1e-4 v 0.99957 l -2,8.1e-4 z" />
    <path
       style="color:#000000"
       id="path444"
       d="m 14,46.983 2,-8.1e-4 v 0.99957 l -2,8.1e-4 z" />
    <path
       style="color:#000000"
       id="path446"
       d="m 14,44.984 2,-8e-4 v 0.99957 l -2,8e-4 z" />
    <path
       style="color:#000000"
       id="path448"
       d="m 14,42.984 2,-8.1e-4 v 0.99958 l -2,8e-4 z" />
    <path
       style="color:#000000"
       id="path450"
       d="m 14,40.985 2,-8.1e-4 v 0.99958 l -2,8e-4 z" />
    <path
       style="color:#000000"
       id="path452"
       d="m 14,38.986 2,-8.1e-4 v 0.99958 l -2,8e-4 z" />
    <path
       style="color:#000000"
       id="path454"
       d="m 14,36.987 2,-8e-4 v 0.99956 l -2,8.1e-4 z" />
    <path
       style="color:#000000"
       id="path456"
       d="m 14,34.988 2,-8.1e-4 v 0.99957 l -2,8.1e-4 z" />
    <path
       style="color:#000000"
       id="path458"
       d="m 14,32.989 2,-8.1e-4 v 0.99957 l -2,8.1e-4 z" />
    <path
       style="color:#000000"
       id="path460"
       d="m 14,30.99 2,-8.1e-4 v 0.99957 l -2,8.1e-4 z" />
    <path
       style="color:#000000"
       id="path462"
       d="m 14,28.99 2,-8.1e-4 v 0.99957 l -2,8.1e-4 z" />
  </g>
  <g
     transform="translate(1)"
     style="fill:#525252;stroke-width:0.99979001"
     id="g492">
    <path
       style="color:#000000"
       id="path466"
       d="m 25,53 -3,-2e-4 v 0.9996 l 3,2e-4 z" />
    <path
       style="color:#000000"
       id="path468"
       d="m 28,26.992 -6,0.009 v 0.99958 l 6,-0.009 z" />
    <path
       style="color:#000000"
       id="path470"
       d="m 24,48.983 -2,-8.1e-4 v 0.99957 l 2,8.1e-4 z" />
    <path
       style="color:#000000"
       id="path472"
       d="m 24,46.984 -2,-8.1e-4 v 0.99957 l 2,8.1e-4 z" />
    <path
       style="color:#000000"
       id="path474"
       d="m 24,44.984 -2,-8.1e-4 v 0.99957 l 2,8.1e-4 z" />
    <path
       style="color:#000000"
       id="path476"
       d="m 24,42.985 -2,-8.1e-4 v 0.99957 l 2,8.1e-4 z" />
    <path
       style="color:#000000"
       id="path478"
       d="m 24,40.986 -2,-8.1e-4 v 0.99957 l 2,8.1e-4 z" />
    <path
       style="color:#000000"
       id="path480"
       d="m 24,38.987 -2,-8.1e-4 v 0.99957 l 2,8.1e-4 z" />
    <path
       style="color:#000000"
       id="path482"
       d="m 24,36.988 -2,-8.1e-4 v 0.99957 l 2,8.1e-4 z" />
    <path
       style="color:#000000"
       id="path484"
       d="m 24,34.989 -2,-8.1e-4 v 0.99957 l 2,8.1e-4 z" />
    <path
       style="color:#000000"
       id="path486"
       d="m 24,32.99 -2,-8.1e-4 v 0.99957 l 2,8.1e-4 z" />
    <path
       style="color:#000000"
       id="path488"
       d="m 24,30.99 -2,-8.1e-4 v 0.99957 l 2,8.1e-4 z" />
    <path
       style="color:#000000"
       id="path490"
       d="m 24,28.991 -2,-8.1e-4 v 0.99957 l 2,8.1e-4 z" />
  </g>
  <g
     transform="translate(1)"
     id="g526">
    <path
       style="color:#000000;fill:#666666;stroke-width:0.99918997"
       id="path494"
       d="m 14,51.001 2,-8.1e-4 v 0.99838 l -2,8.1e-4 z" />
    <path
       style="color:#000000;fill:#525252;stroke-width:0.99918997"
       id="path496"
       d="m 24,51.002 -2,-8.1e-4 v 0.99838 l 2,8.1e-4 z" />
    <g
       style="stroke-width:0.99979001"
       id="g506">
      <path
         style="color:#000000;fill:#666666"
         id="path498"
         d="m 14,75.008 2,-8e-4 v 0.9995 l -2,8e-4 z" />
      <path
         style="color:#000000;fill:#525252"
         id="path500"
         d="m 24,75.009 -2,-8e-4 v 0.9995 l 2,8e-4 z" />
      <path
         style="color:#000000;fill:#666666"
         id="path502"
         d="m 14,101 2,-8e-4 v 0.9996 l -2,8e-4 z" />
      <path
         style="color:#000000;fill:#666666"
         id="path504"
         d="m 14,99.001 2,-8e-4 v 0.9995 l -2,9e-4 z" />
    </g>
    <path
       style="color:#000000;fill:#434343;stroke-width:0.99978"
       id="path508"
       d="m 16,101 h 1 v 0.9996 h -1 z" />
    <path
       style="color:#000000;fill:#434343;stroke-width:0.99978"
       id="path510"
       d="m 16,99 h 1 v 0.9996 h -1 z" />
    <path
       style="color:#000000;fill:#525252;stroke-width:0.99979001"
       id="path512"
       d="m 24,101 -2,-8e-4 v 0.9996 l 2,8e-4 z" />
    <path
       style="color:#000000;fill:#525252;stroke-width:0.99979001"
       id="path514"
       d="m 24,99.002 -2,-8e-4 v 0.9996 l 2,8e-4 z" />
    <g
       style="stroke-width:0.99978"
       id="g524">
      <path
         style="color:#000000;fill:#6e6e6e"
         id="path516"
         d="m 22,101 h -1 v 0.9996 h 1 z" />
      <path
         style="color:#000000;fill:#6e6e6e"
         id="path518"
         d="m 22,99 h -1 v 0.9996 h 1 z" />
      <path
         style="color:#000000;fill:#101010"
         id="path520"
         d="m 16,99.983 h 1 v 0.9996 h -1 z" />
      <path
         style="color:#000000;fill:#101010"
         id="path522"
         d="m 16,97.984 h 1 v 0.9996 h -1 z" />
    </g>
  </g>
</svg>
