<?xml version="1.0" encoding="UTF-8" standalone="no"?>
<!-- Created with Inkscape (http://www.inkscape.org/) -->

<svg
   xmlns:dc="http://purl.org/dc/elements/1.1/"
   xmlns:cc="http://creativecommons.org/ns#"
   xmlns:rdf="http://www.w3.org/1999/02/22-rdf-syntax-ns#"
   xmlns:svg="http://www.w3.org/2000/svg"
   xmlns="http://www.w3.org/2000/svg"
   xmlns:sodipodi="http://sodipodi.sourceforge.net/DTD/sodipodi-0.dtd"
   xmlns:inkscape="http://www.inkscape.org/namespaces/inkscape"
   version="1.1"
   width="100%"
   height="100%"
   viewBox="0 0 18 18"
   id="svg2"
   inkscape:version="0.92.3 (unknown)"
   sodipodi:docname="btn_lib_radio_button_on.svg">
  <sodipodi:namedview
     pagecolor="#ffffff"
     bordercolor="#666666"
     borderopacity="1"
     objecttolerance="10"
     gridtolerance="10"
     guidetolerance="10"
     inkscape:pageopacity="0"
     inkscape:pageshadow="2"
     inkscape:window-width="1366"
     inkscape:window-height="740"
     id="namedview7"
     showgrid="false"
     inkscape:zoom="13.111111"
     inkscape:cx="-15.101695"
     inkscape:cy="8.9999999"
     inkscape:window-x="0"
     inkscape:window-y="0"
     inkscape:window-maximized="1"
     inkscape:current-layer="svg2" />
  <metadata
     id="metadata12">
    <rdf:RDF>
      <cc:Work
         rdf:about="">
        <dc:format>image/svg+xml</dc:format>
        <dc:type
           rdf:resource="http://purl.org/dc/dcmitype/StillImage" />
        <dc:title />
      </cc:Work>
    </rdf:RDF>
  </metadata>
  <defs
     id="defs10" />
  <path
     d="M 9,5.1042489 C 6.8495453,5.1042489 5.1042489,6.8495453 5.1042489,9 c 0,2.150454 1.7452964,3.895751 3.8957511,3.895751 2.150454,0 3.895751,-1.745297 3.895751,-3.895751 C 12.895751,6.8495453 11.150454,5.1042489 9,5.1042489 z"
     id="path2987"
     style="fill:#eb5d00;fill-opacity:1" />
  <path
     inkscape:connector-curvature="0"
     d="M 9,3 C 5.6848284,3 2.9999998,5.6848286 2.9999998,9.0000002 2.9999998,12.315172 5.6848284,15 9,15 12.315171,15 15,12.315172 15,9.0000002 15,5.6848286 12.315428,3 9,3 Z m 0,10.800001 c -2.6520001,0 -4.8000001,-2.148001 -4.8000001,-4.8000008 0,-2.6520001 2.148,-4.8000001 4.8000001,-4.8000001 2.652,0 4.8,2.148 4.8,4.8000001 C 13.8,11.652 11.652,13.800001 9,13.800001 Z"
     id="path4-3"
     style="fill:#060606;fill-opacity:1;stroke-width:0.85714293" />
</svg>
