/* XPM */
static const char * a_xpm[] = {
"16 16 3 1",
" 	c None",
".	c #A8B5A4",
"+	c #444743",
"................",
"..++++++++++++..",
".+............+.",
".+..++++++++..+.",
".+.++++++++++.+.",
".+.++......++.+.",
".+.++......++.+.",
".+.++++++++++.+.",
".+.++++++++++.+.",
".+.++......++.+.",
".+.++......++.+.",
".+.++......++.+.",
".+.++......++.+.",
".+............+.",
"..++++++++++++..",
"................"};
