/* XPM */
static const char * bulb_off_xpm[] = {
"16 16 155 2",
"  	c None",
". 	c #A8B5A4",
"+ 	c #949F90",
"@ 	c #545A52",
"# 	c #262826",
"$ 	c #1A1A19",
"% 	c #1B1C1B",
"& 	c #2A2C2A",
"* 	c #8F9A8C",
"= 	c #A3B09F",
"- 	c #525850",
"; 	c #101010",
"> 	c #111111",
", 	c #131313",
"' 	c #151515",
") 	c #181818",
"! 	c #4E534D",
"~ 	c #A1AE9E",
"{ 	c #A3AF9F",
"] 	c #373A35",
"^ 	c #0E0E0E",
"/ 	c #120F0F",
"( 	c #481212",
"_ 	c #761515",
": 	c #901818",
"< 	c #921B1B",
"[ 	c #802020",
"} 	c #542020",
"| 	c #201C1C",
"1 	c #191919",
"2 	c #393C38",
"3 	c #A2AE9E",
"4 	c #4D524B",
"5 	c #0C0C0C",
"6 	c #1A0D0D",
"7 	c #771010",
"8 	c #941414",
"9 	c #961818",
"0 	c #991E1E",
"a 	c #9C2424",
"b 	c #A12C2C",
"c 	c #A32E2E",
"d 	c #8A2727",
"e 	c #2F2020",
"f 	c #1A1A1A",
"g 	c #525750",
"h 	c #919C8D",
"i 	c #0D0D0D",
"j 	c #100D0D",
"k 	c #781010",
"l 	c #921212",
"m 	c #941515",
"n 	c #971A1A",
"o 	c #9C2323",
"p 	c #A43232",
"q 	c #B04747",
"r 	c #B65151",
"s 	c #A93A3A",
"t 	c #8D2828",
"u 	c #221E1E",
"v 	c #8F998B",
"w 	c #535951",
"x 	c #0B0B0B",
"y 	c #430D0D",
"z 	c #900F0F",
"A 	c #941616",
"B 	c #981C1C",
"C 	c #9E2727",
"D 	c #AA3D3D",
"E 	c #D38D8D",
"F 	c #EDC2C2",
"G 	c #B85252",
"H 	c #A42F2F",
"I 	c #572020",
"J 	c #51564F",
"K 	c #272926",
"L 	c #710D0D",
"M 	c #911111",
"N 	c #931515",
"O 	c #961A1A",
"P 	c #C97373",
"Q 	c #D79191",
"R 	c #B04848",
"S 	c #821F1F",
"T 	c #171717",
"U 	c #282927",
"V 	c #121312",
"W 	c #0A0A0A",
"X 	c #820C0C",
"Y 	c #8F0E0E",
"Z 	c #911010",
"` 	c #991C1C",
" .	c #AD4040",
"..	c #931C1C",
"+.	c #141414",
"@.	c #131312",
"#.	c #830D0D",
"$.	c #931212",
"%.	c #951515",
"&.	c #951717",
"*.	c #991D1D",
"=.	c #9C2222",
"-.	c #9D2525",
";.	c #9F2828",
">.	c #9E2525",
",.	c #911818",
"'.	c #262825",
").	c #730D0D",
"!.	c #910F0F",
"~.	c #921010",
"{.	c #961919",
"].	c #7E1414",
"^.	c #232523",
"/.	c #50564E",
"(.	c #440C0C",
"_.	c #8F0D0D",
":.	c #900E0E",
"<.	c #941313",
"[.	c #931313",
"}.	c #511313",
"|.	c #0F0F0F",
"1.	c #4B5049",
"2.	c #909B8D",
"3.	c #0D0A0A",
"4.	c #760C0C",
"5.	c #900D0D",
"6.	c #811212",
"7.	c #160F0F",
"8.	c #0E0F0E",
"9.	c #889285",
"0.	c #4A4F48",
"a.	c #090909",
"b.	c #1B0B0B",
"c.	c #7C0D0D",
"d.	c #7B0F0F",
"e.	c #200F0F",
"f.	c #A1AD9D",
"g.	c #2F322E",
"h.	c #100B0B",
"i.	c #480B0B",
"j.	c #780C0C",
"k.	c #8A0D0D",
"l.	c #8B0D0D",
"m.	c #790D0D",
"n.	c #4C0E0E",
"o.	c #130D0D",
"p.	c #373B36",
"q.	c #A2AF9E",
"r.	c #4C514A",
"s.	c #494E47",
"t.	c #8B9588",
"u.	c #4A5049",
"v.	c #1E1F1D",
"w.	c #1F201E",
"x.	c #899486",
". . . . + @ # $ % & @ * . . . . ",
". . = - ; ; > , ' ) ) ) ! ~ . . ",
". { ] ^ / ( _ : < [ } | 1 2 3 . ",
". 4 5 6 7 8 9 0 a b c d e f g . ",
"h i j k l m n o p q r s t u 1 v ",
"w x y z l A B C D E F G H I ) J ",
"K x L z M N O a s P Q R b S T U ",
"V W X Y Z m ` o c s  .p a ..' +.",
"@.W #.Z $.%.&.*.=.-.;.>.*.,.+., ",
"'.x ).!.~.M m 9 {.B *.` {.].> ^.",
"/.W (._.:.~.<.[.m A &.&.8 }.|.1.",
"2.x 3.4.5.~.!.M l l [.l 6.7.8.9.",
". 0.a.b.c.:.5.:.Z !.Z d.e.i 0.. ",
". f.g.W h.i.j.k.l.m.n.o.i p.{ . ",
". . q.r.W a.W x x x 5 x s.{ . . ",
". . . . t.u.v.5 x w.s.x.. . . . "};
