/* XPM */
static const char * bulb_on_xpm[] = {
"16 16 170 2",
"  	c None",
". 	c #A8B5A4",
"+ 	c #96A193",
"@ 	c #60665E",
"# 	c #3F413E",
"$ 	c #333332",
"% 	c #343534",
"& 	c #424442",
"* 	c #656A63",
"= 	c #949E90",
"- 	c #A4B0A0",
"; 	c #5E635C",
"> 	c #262626",
", 	c #2D2D2D",
"' 	c #353535",
") 	c #363636",
"! 	c #3A3A3A",
"~ 	c #393939",
"{ 	c #626760",
"] 	c #A3AF9F",
"^ 	c #A3B09F",
"/ 	c #454844",
"( 	c #222222",
"_ 	c #2C2727",
": 	c #852E2E",
"< 	c #CE3232",
"[ 	c #F73E3E",
"} 	c #F84646",
"| 	c #D64B4B",
"1 	c #964B4B",
"2 	c #4D4848",
"3 	c #3F3F3F",
"4 	c #545753",
"5 	c #555A53",
"6 	c #1C1C1C",
"7 	c #382222",
"8 	c #D32929",
"9 	c #FF3131",
"0 	c #FF3C3C",
"a 	c #FF4848",
"b 	c #FF5D5D",
"c 	c #FF6B6B",
"d 	c #FF6C6C",
"e 	c #E36161",
"f 	c #655151",
"g 	c #3E3E3E",
"h 	c #939E90",
"i 	c #1D1D1D",
"j 	c #241F1F",
"k 	c #D52323",
"l 	c #FF2828",
"m 	c #FF3030",
"n 	c #FF3E3E",
"o 	c #FF5656",
"p 	c #FF7A7A",
"q 	c #FFB3B3",
"r 	c #FFBFBF",
"s 	c #FF8F8F",
"t 	c #E46161",
"u 	c #514A4A",
"v 	c #3B3C3B",
"w 	c #5C625A",
"x 	c #7D2121",
"y 	c #FF2626",
"z 	c #FF2D2D",
"A 	c #FF3636",
"B 	c #FF4444",
"C 	c #FF5C5C",
"D 	c #FF9494",
"E 	c #FFF6F6",
"F 	c #FFFFFF",
"G 	c #FFC2C2",
"H 	c #FF6F6F",
"I 	c #9A4C4C",
"J 	c #3B3B3B",
"K 	c #626861",
"L 	c #353734",
"M 	c #1E1E1E",
"N 	c #CC2222",
"O 	c #FF3A3A",
"P 	c #FF4A4A",
"Q 	c #FF6363",
"R 	c #FF9090",
"S 	c #FFE3E3",
"T 	c #FFB6B6",
"U 	c #FF6E6E",
"V 	c #DD4D4D",
"W 	c #3D3D3D",
"X 	c #252625",
"Y 	c #202020",
"Z 	c #EB2323",
"` 	c #FF2E2E",
" .	c #FF3434",
"..	c #FF4C4C",
"+.	c #FF6868",
"@.	c #FF8C8C",
"#.	c #FF9898",
"$.	c #FF5F5F",
"%.	c #F74747",
"&.	c #2E2E2E",
"*.	c #232423",
"=.	c #EB2020",
"-.	c #FF2323",
";.	c #FF2727",
">.	c #FF2C2C",
",.	c #FF3535",
"'.	c #FF4141",
").	c #FF4E4E",
"!.	c #FF5B5B",
"~.	c #FF6060",
"{.	c #FF5555",
"].	c #F73F3F",
"^.	c #2E2F2E",
"/.	c #323532",
"(.	c #1A1A1A",
"_.	c #CD1C1C",
":.	c #FF1F1F",
"<.	c #FF2929",
"[.	c #FF4545",
"}.	c #FF4747",
"|.	c #DD3535",
"1.	c #2F2F2F",
"2.	c #393B39",
"3.	c #575C55",
"4.	c #181818",
"5.	c #7B1A1A",
"6.	c #FF1D1D",
"7.	c #FF2121",
"8.	c #FF3737",
"9.	c #912B2B",
"0.	c #2A2A2A",
"a.	c #5B6059",
"b.	c #929D8F",
"c.	c #171717",
"d.	c #1E1818",
"e.	c #D51C1C",
"f.	c #FF2020",
"g.	c #FF2424",
"h.	c #E12929",
"i.	c #312626",
"j.	c #8D9789",
"k.	c #525750",
"l.	c #371A1A",
"m.	c #DC1B1B",
"n.	c #FF2525",
"o.	c #DA2626",
"p.	c #3F2424",
"q.	c #212121",
"r.	c #555A54",
"s.	c #A2AE9E",
"t.	c #393C38",
"u.	c #211919",
"v.	c #861B1B",
"w.	c #D71C1C",
"x.	c #F61C1C",
"y.	c #F72222",
"z.	c #D92020",
"A.	c #8B2222",
"B.	c #2C2222",
"C.	c #1F1F1F",
"D.	c #444843",
"E.	c #535851",
"F.	c #191919",
"G.	c #1B1B1B",
"H.	c #8E988A",
"I.	c #525851",
"J.	c #292B29",
"K.	c #1D1E1D",
"L.	c #2A2C2A",
"M.	c #8C9789",
". . . . + @ # $ % & * = . . . . ",
". . - ; > > , ' ) ! ~ ~ { ] . . ",
". ^ / ( _ : < [ } | 1 2 3 4 ] . ",
". 5 6 7 8 9 0 a b c d e f g * . ",
"h i j k l m n o p q r s t u v = ",
"w i x y z A B C D E F G H I J K ",
"L M N l m O P Q R S E T U V W & ",
"X Y Z l `  .n ..+.@.#.p $.%.) &.",
"*.i =.-.;.>.,.'.).!.~.{.P ].' ^.",
"/.(._.:.-.<.m ,.0 [.}.'.O |.1.2.",
"3.4.5.6.7.y l ` m A 8.,.m 9.0.a.",
"b.c.d.e.:.f.g.;.<.z z z h.i.( j.",
". k.4.l.m.6.7.f.n.y y o.p.q.r.. ",
". s.t.c.u.v.w.x.y.z.A.B.C.D.^ . ",
". . ] E.4.F.F.(.C.G.M M E.^ . . ",
". . . . H.I.J.G.K.L.E.M.. . . . "};
