/* XPM */
static const char * knob24_xpm[] = {
"32 32 211 2",
"  	c None",
". 	c #A8B5A4",
"+ 	c #929D8F",
"@ 	c #737B70",
"# 	c #6E776C",
"$ 	c #6D746A",
"% 	c #6C7269",
"& 	c #6B7269",
"* 	c #70796E",
"= 	c #8F9A8C",
"- 	c #A7B4A3",
"; 	c #7E887C",
"> 	c #71776E",
", 	c #7D847A",
"' 	c #99A195",
") 	c #99A296",
"! 	c #98A195",
"~ 	c #97A094",
"{ 	c #97A093",
"] 	c #969F93",
"^ 	c #949E91",
"/ 	c #788075",
"( 	c #687066",
"_ 	c #778074",
": 	c #A5B2A1",
"< 	c #869183",
"[ 	c #737A71",
"} 	c #959D92",
"| 	c #9AA397",
"1 	c #9AA296",
"2 	c #959F92",
"3 	c #959E91",
"4 	c #949D90",
"5 	c #8D978A",
"6 	c #828C7F",
"7 	c #A4B1A0",
"8 	c #666E64",
"9 	c #878E84",
"0 	c #9BA398",
"a 	c #98A194",
"b 	c #939D8F",
"c 	c #929C8F",
"d 	c #929C8E",
"e 	c #80887C",
"f 	c #697166",
"g 	c #A1AD9D",
"h 	c #5E645C",
"i 	c #969E93",
"j 	c #969F92",
"k 	c #949E90",
"l 	c #939D90",
"m 	c #919B8D",
"n 	c #909B8D",
"o 	c #8E988A",
"p 	c #6A7267",
"q 	c #99A196",
"r 	c #96A093",
"s 	c #909A8C",
"t 	c #8F9A8B",
"u 	c #8F998B",
"v 	c #656C62",
"w 	c #9BA397",
"x 	c #9AA297",
"y 	c #98A094",
"z 	c #959E92",
"A 	c #939C8F",
"B 	c #929B8E",
"C 	c #8E998A",
"D 	c #8B9687",
"E 	c #656D62",
"F 	c #808A7D",
"G 	c #888F85",
"H 	c #919B8E",
"I 	c #8D9889",
"J 	c #8D9788",
"K 	c #7C8679",
"L 	c #7B8478",
"M 	c #A3B09F",
"N 	c #6A7068",
"O 	c #8C9788",
"P 	c #646C61",
"Q 	c #71796E",
"R 	c #959D91",
"S 	c #8B9686",
"T 	c #879283",
"U 	c #747D71",
"V 	c #686F66",
"W 	c #8A9586",
"X 	c #899585",
"Y 	c #666E63",
"Z 	c #909C8D",
"` 	c #82897F",
" .	c #8E9889",
"..	c #899484",
"+.	c #747F71",
"@.	c #889285",
"#.	c #788175",
"$.	c #8C9787",
"%.	c #8A9686",
"&.	c #889484",
"*.	c #879383",
"=.	c #6D756A",
"-.	c #6E766C",
";.	c #9A9D91",
">.	c #AD847B",
",.	c #A07A72",
"'.	c #95988C",
").	c #8A9585",
"!.	c #879382",
"~.	c #656E63",
"{.	c #9C9B8F",
"].	c #E89B97",
"^.	c #FAC0BE",
"/.	c #C45F5D",
"(.	c #803B39",
"_.	c #8C8F83",
":.	c #889483",
"<.	c #869281",
"[.	c #636C60",
"}.	c #697067",
"|.	c #B17E76",
"1.	c #FCC4C3",
"2.	c #FCD2D1",
"3.	c #B85E5B",
"4.	c #722C2B",
"5.	c #6D5C54",
"6.	c #8B9787",
"7.	c #859281",
"8.	c #61695D",
"9.	c #6A7167",
"0.	c #A27169",
"a.	c #C86562",
"b.	c #BE6462",
"c.	c #853736",
"d.	c #56211E",
"e.	c #67564E",
"f.	c #899485",
"g.	c #889383",
"h.	c #879282",
"i.	c #859181",
"j.	c #859180",
"k.	c #60695D",
"l.	c #6A7268",
"m.	c #938E83",
"n.	c #7F3534",
"o.	c #732D2C",
"p.	c #57221F",
"q.	c #441E1A",
"r.	c #828176",
"s.	c #869282",
"t.	c #84907F",
"u.	c #616A5E",
"v.	c #89897E",
"w.	c #654F48",
"x.	c #604B44",
"y.	c #828277",
"z.	c #83907F",
"A.	c #838F7E",
"B.	c #6A7367",
"C.	c #7F897C",
"D.	c #858E82",
"E.	c #849180",
"F.	c #83907E",
"G.	c #788373",
"H.	c #646A61",
"I.	c #828F7D",
"J.	c #616A5D",
"K.	c #A6B3A2",
"L.	c #6C7469",
"M.	c #808D7C",
"N.	c #687165",
"O.	c #9EAA9A",
"P.	c #686F65",
"Q.	c #828F7E",
"R.	c #818E7C",
"S.	c #5F695C",
"T.	c #9BA697",
"U.	c #747C71",
"V.	c #899385",
"W.	c #84917F",
"X.	c #7B8776",
"Y.	c #687166",
"Z.	c #646B61",
"`.	c #828E7D",
" +	c #808E7B",
".+	c #5D655A",
"++	c #9CA898",
"@+	c #666D63",
"#+	c #96A192",
"$+	c #5E685B",
"%+	c #97A293",
"&+	c #596057",
"*+	c #828D7E",
"=+	c #7B8876",
"-+	c #5D665A",
";+	c #6C7569",
">+	c #646D61",
",+	c #818E7D",
"'+	c #616B5D",
")+	c #666F64",
"!+	c #6D766A",
"~+	c #646C60",
"{+	c #7E897A",
"]+	c #96A293",
"^+	c #A5B1A1",
"/+	c #778175",
"(+	c #697266",
"_+	c #5F685C",
":+	c #5F675C",
"<+	c #798276",
"[+	c #A3B0A0",
". . . . . . . . . . . + @ # $ % & & & * = . . . . . . . . . . . ",
". . . . . . . . - ; > , ' ) ' ! ~ { ] ^ / ( _ : . . . . . . . . ",
". . . . . . . < [ } | 1 ) ! ! ~ { ] 2 3 ^ 4 5 ( 6 . . . . . . . ",
". . . . . 7 8 9 0 | 1 ) ! a ~ { ] 2 3 ^ 4 b c d e f 7 . . . . . ",
". . . . g h i 0 | 1 ) ! a ~ { j 2 3 k l b c d m n o p g . . . . ",
". . . 7 h q 0 | ) ) ! a ~ r j 2 3 k l b d d m n s t u p 7 . . . ",
". . . v i w x ) q ! y ~ ] j z 3 4 l A d B m s s t u C D E . . . ",
". . F G w x ) ' ! y ~ ] j z 3 4 l A d H m s s u C o I J K L . . ",
". M N | x ) ' ! ~ { ] j z ^ 4 l A d H m s s u C o I J O D P M . ",
". Q R x ) ' ! ~ { ] j 3 ^ 4 b A d H m s s u C o I O O D S T U . ",
". V x ) ' ! ~ { ] j 3 ^ 4 b c d m m s = u C o I O O D S W X Y . ",
"Z ` ) ! ! ~ { ] 2 3 ^ 4 b c d m m s t u C  .I O O D S W X ..+.@.",
"#.) ! a ~ { ] 2 3 ^ 4 b c d m m s t u C I I O $.D %.W X ..&.*.=.",
"-.! ;.>.,.'.2 3 k l b c d m n s t u C I I O $.D %.).X ..&.*.!.~.",
"& {.].^./.(._.k l b d d m n s t u C I I O $.D %.).X ..:.*.!.<.[.",
"}.|.1.2.3.4.5.l A d B m s s t u C I I O 6.D %.).X &.:.*.!.<.7.8.",
"9.0.a.b.c.d.e.A d H m s s u C o I J O D D W ).f.&.g.*.h.<.i.j.k.",
"l.m.n.o.p.q.r.d H m s s u C o I J O D S W ).f.&.g.*.s.<.i.j.t.u.",
"l.3 v.w.x.y.d H m s s u C o I O O D S W X ..&.g.!.s.<.i.j.t.z.P ",
"=.^ 4 b c d m m s = u C o I O O D S W X ..&.g.!.s.<.j.j.t.z.A.B.",
"C.D.b c d m m s t u C  .I O O D S W X ..&.*.!.s.<.j.E.t.F.A.G.C.",
"- H.c d m m s t u C I I O $.D %.W X ..&.*.!.s.<.j.E.t.F.A.I.J.K.",
". L.s m n s t u C I I O $.D %.).X ..&.*.!.s.<.j.E.t.F.A.I.M.N.. ",
". O.P.n s t u C I I O $.D %.).X ..:.*.!.<.7.j.E.t.F.Q.I.R.S.T.. ",
". . U.V.t u C I I O 6.D %.).X &.:.*.!.<.7.j.W.t.F.Q.I.R.X.Y.. . ",
". . - Z.C o I J O D D W ).f.&.g.*.h.<.i.j.t.t.A.I.`.R. +.+K.. . ",
". . . ++@+I J O D S W ).f.&.g.*.s.<.i.j.t.z.A.I.`.R. +S.++. . . ",
". . . . #+P D D S W X ..&.g.!.s.<.i.j.t.z.A.I.`.R. +$+%+. . . . ",
". . . . . ++&+*+W X ..&.g.!.s.<.j.j.t.z.A.I.`.R.=+-+++. . . . . ",
". . . . . . K.;+>+..&.g.!.s.<.j.E.t.F.A.I.,+R.'+)+: . . . . . . ",
". . . . . . . . T.!+~+{+s.<.j.E.t.F.A.I.X.J.Y ]+. . . . . . . . ",
". . . . . . . . . . ^+/+(+u._+.+-+:+k.Y.<+[+. . . . . . . . . . "};
