/* XPM */
static const char * knob12_xpm[] = {
"32 32 221 2",
"  	c None",
". 	c #A8B5A4",
"+ 	c #8D988A",
"@ 	c #6B7468",
"# 	c #697366",
"$ 	c #677163",
"% 	c #667062",
"& 	c #656F61",
"* 	c #677063",
"= 	c #687265",
"- 	c #838D80",
"; 	c #A7B4A3",
"> 	c #A3B09F",
", 	c #757E72",
"' 	c #5E675B",
") 	c #6A7566",
"! 	c #808E7C",
"~ 	c #818E7C",
"{ 	c #808E7B",
"] 	c #717C6C",
"^ 	c #5C6558",
"/ 	c #6F786C",
"( 	c #9DA999",
"_ 	c #7D867A",
": 	c #5B6358",
"< 	c #7D8A79",
"[ 	c #828F7D",
"} 	c #828E7D",
"| 	c #818E7D",
"1 	c #808D7B",
"2 	c #5F685C",
"3 	c #A6B3A2",
"4 	c #A5B2A1",
"5 	c #61695E",
"6 	c #707B6C",
"7 	c #838F7E",
"8 	c #828F7E",
"9 	c #788474",
"0 	c #586056",
"a 	c #9DAA9A",
"b 	c #A2AE9E",
"c 	c #596156",
"d 	c #7E8A79",
"e 	c #84907F",
"f 	c #83907F",
"g 	c #83907E",
"h 	c #96A292",
"i 	c #5A6258",
"j 	c #859180",
"k 	c #849180",
"l 	c #84917F",
"m 	c #5A6257",
"n 	c #9CA899",
"o 	c #636B60",
"p 	c #808B7B",
"q 	c #869281",
"r 	c #859281",
"s 	c #859181",
"t 	c #7F897C",
"u 	c #727C6E",
"v 	c #879382",
"w 	c #879282",
"x 	c #869282",
"y 	c #7E897A",
"z 	c #6C7469",
"A 	c #A6B2A2",
"B 	c #5C6459",
"C 	c #889383",
"D 	c #879383",
"E 	c #626A5F",
"F 	c #96A293",
"G 	c #7B8478",
"H 	c #808B7C",
"I 	c #899484",
"J 	c #889484",
"K 	c #889483",
"L 	c #697166",
"M 	c #899585",
"N 	c #899485",
"O 	c #656E62",
"P 	c #98A494",
"Q 	c #6F786B",
"R 	c #8A9686",
"S 	c #8A9586",
"T 	c #8A9585",
"U 	c #7F897B",
"V 	c #747D72",
"W 	c #8B9687",
"X 	c #8B9686",
"Y 	c #697167",
"Z 	c #6D766A",
"` 	c #8C9788",
" .	c #8C9787",
"..	c #8B9787",
"+.	c #646C61",
"@.	c #70786D",
"#.	c #8D9889",
"$.	c #8D9789",
"%.	c #8D9788",
"&.	c #737B70",
"*.	c #8E998A",
"=.	c #8E988A",
"-.	c #8E9889",
";.	c #666E63",
">.	c #737C70",
",.	c #8F998B",
"'.	c #676F64",
").	c #71796E",
"!.	c #909A8C",
"~.	c #8F9A8C",
"{.	c #8F9A8B",
"].	c #6A7267",
"^.	c #717A6F",
"/.	c #919B8D",
"(.	c #909B8D",
"_.	c #909B8C",
":.	c #778074",
"<.	c #929C8E",
"[.	c #929B8E",
"}.	c #919B8E",
"|.	c #95A192",
"1.	c #788075",
"2.	c #929C8F",
"3.	c #879184",
"4.	c #7A8477",
"5.	c #6C7369",
"6.	c #939D90",
"7.	c #939D8F",
"8.	c #939C8F",
"9.	c #8A8F83",
"0.	c #676E64",
"a.	c #8E978B",
"b.	c #949E91",
"c.	c #949E90",
"d.	c #949D90",
"e.	c #878A7E",
"f.	c #50322C",
"g.	c #431C18",
"h.	c #4D2C27",
"i.	c #7D796E",
"j.	c #676F65",
"k.	c #A3AF9F",
"l.	c #656B62",
"m.	c #959E92",
"n.	c #959E91",
"o.	c #603C37",
"p.	c #642624",
"q.	c #6C2A28",
"r.	c #672826",
"s.	c #592D29",
"t.	c #71786E",
"u.	c #939E8F",
"v.	c #838B80",
"w.	c #969F93",
"x.	c #969F92",
"y.	c #959F92",
"z.	c #959D90",
"A.	c #7D3231",
"B.	c #A44A48",
"C.	c #C26865",
"D.	c #AB5350",
"E.	c #803231",
"F.	c #8D8D81",
"G.	c #90988C",
"H.	c #636960",
"I.	c #939C90",
"J.	c #97A093",
"K.	c #96A093",
"L.	c #A15954",
"M.	c #E89694",
"N.	c #FEE7E6",
"O.	c #EE9F9D",
"P.	c #A64D4A",
"Q.	c #959C90",
"R.	c #5F655D",
"S.	c #A4B0A0",
"T.	c #A2AF9F",
"U.	c #5F665D",
"V.	c #97A094",
"W.	c #98A194",
"X.	c #98A094",
"Y.	c #9C9488",
"Z.	c #D3817C",
"`.	c #F8B3B1",
" +	c #DD847F",
".+	c #A0897F",
"++	c #686E65",
"@+	c #97A394",
"#+	c #61675F",
"$+	c #959D92",
"%+	c #99A195",
"&+	c #98A195",
"*+	c #9A9E92",
"=+	c #676D64",
"-+	c #8F9B8C",
";+	c #646B61",
">+	c #8A9187",
",+	c #99A296",
"'+	c #99A196",
")+	c #929A8F",
"!+	c #798276",
"~+	c #6C736A",
"{+	c #9AA397",
"]+	c #9AA297",
"^+	c #777D74",
"/+	c #A0AC9C",
"(+	c #757E73",
"_+	c #757B72",
":+	c #8A9287",
"<+	c #9BA398",
"[+	c #8D948A",
"}+	c #696F67",
"|+	c #6B7369",
"1+	c #9BA797",
"2+	c #8E998B",
"3+	c #7A8377",
"4+	c #70776D",
"5+	c #6A7067",
"6+	c #697067",
"7+	c #6E756B",
"8+	c #747C71",
". . . . . . . . . . . + @ # $ % & * = @ - ; . . . . . . . . . . ",
". . . . . . . . > , ' ) ! ~ ~ ~ ~ ~ ~ { ] ^ / ( . . . . . . . . ",
". . . . . . . _ : < [ [ [ } } } } | | ~ ~ ~ 1 2 / 3 . . . . . . ",
". . . . . 4 5 6 7 7 7 7 7 7 7 7 8 8 [ [ [ [ [ [ 9 0 a . . . . . ",
". . . . b c d e e e e e e e f f f f g g g g g g g [ c h . . . . ",
". . . 4 i 7 j j j j j j k k k k k l l e e e e e e e e m n . . . ",
". . . o p q q q q r r r s s s s j j j j j j j j j j j e 0 3 . . ",
". . t u v w w x x x x x x x x q q q q q q q q q q q q q y z . . ",
". A B C C C D D D D D D D D D D v v v v v v v v v w w x x E F . ",
". G H I J J J J J J J J J J J K K K C C C C C C C D D D D w z . ",
". L M M M M M M M M M N N N I I I I I I I I J J J J J J J J O 4 ",
"P Q R R R S S S S S S S S T T T T T T T M M M M M M M M M M U _ ",
"V N W W W W W W W W W W X X X X X X R R R R R S S S S S S S S Y ",
"Z ` ` ` ` ` ` ` ` ` ` `  . . . . ...W W W W W W W W W W W W W +.",
"@.#.#.#.#.#.#.#.#.#.#.$.%.%.` ` ` ` ` ` ` ` ` ` ` ` ` ` ` ` ` o ",
"&.*.*.*.=.=.=.=.=.=.=.-.#.#.#.#.#.#.#.#.#.#.#.#.#.#.#.#.#.$.%.;.",
">.,.,.,.,.,.,.,.,.,.*.*.*.*.*.*.*.*.*.*.*.*.*.=.=.=.=.=.=.=.-.'.",
").!.!.!.!.!.!.!.!.~.{.{.{.{.{.{.{.,.,.,.,.,.,.,.,.,.,.,.,.,.*.].",
"^./././././.(.(.(._.!.!.!.!.!.!.!.!.!.!.!.!.!.!.!.!.!.!.~.{.{.z ",
":.!.<.[.}.}.}.}./././././././././././././././././.(.(.(._.!.!.).",
"|.1.2.2.2.2.2.2.<.<.<.<.<.<.<.<.<.<.<.<.<.<.[.}.}.}.}./././.3.4.",
". 5.6.6.6.6.6.6.7.7.7.7.7.7.7.7.8.8.8.8.8.8.2.[.9.[.2.<.<.<.0.> ",
". , a.b.b.b.b.c.c.c.d.d.d.d.d.d.d.d.d.d.6.6.e.f.g.h.i.7.7.8.j.. ",
". k.l.m.m.m.n.n.n.n.n.n.n.n.n.n.n.b.b.b.b.b.o.p.q.r.s.8.d.t.u.. ",
". . 4.v.w.x.x.x.x.x.x.x.x.x.x.y.y.y.y.y.y.z.A.B.C.D.E.F.G.L . . ",
". . ; H.I.J.J.J.J.J.J.J.J.K.K.w.w.w.w.w.w.w.L.M.N.O.P.Q.R.S.. . ",
". . . T.U.V.W.W.W.X.X.X.V.V.V.V.V.V.V.V.V.V.Y.Z.`. +.+++@+. . . ",
". . . . a #+$+%+%+&+&+&+&+&+&+&+&+&+&+&+&+&+&+W.*+X.=+-+. . . . ",
". . . . . T.;+>+,+,+,+,+,+,+,+,+,+,+,+,+,+'+'+%+)+#+P . . . . . ",
". . . . . . ; !+~+V.{+{+{+{+]+]+]+]+]+]+]+]+%+^+, 4 . . . . . . ",
". . . . . . . . /+(+_+:+<+<+<+<+<+<+<+<+[+}+|+1+. . . . . . . . ",
". . . . . . . . . . . 2+3+4+5+}+}+6+7+8+t 4 . . . . . . . . . . "};
