/* XPM */
static const char * knob13_xpm[] = {
"32 32 218 2",
"  	c None",
". 	c #A8B5A4",
"+ 	c #A7B4A3",
"@ 	c #8E998A",
"# 	c #747E71",
"$ 	c #687165",
"% 	c #616A5E",
"& 	c #5C6559",
"* 	c #626B5E",
"= 	c #667063",
"- 	c #6C7669",
"; 	c #737D70",
"> 	c #A4B1A0",
", 	c #717A6E",
"' 	c #5C655A",
") 	c #6C7668",
"! 	c #818E7C",
"~ 	c #828E7D",
"{ 	c #808E7B",
"] 	c #6F7B6A",
"^ 	c #5E675B",
"/ 	c #697266",
"( 	c #9BA798",
"_ 	c #7F8A7C",
": 	c #5B6358",
"< 	c #7E8A79",
"[ 	c #83907E",
"} 	c #838F7E",
"| 	c #828F7E",
"1 	c #828F7D",
"2 	c #7F8D7A",
"3 	c #5E675A",
"4 	c #6F786C",
"5 	c #656D62",
"6 	c #717B6D",
"7 	c #849180",
"8 	c #84907F",
"9 	c #83907F",
"0 	c #7B8877",
"a 	c #5F675C",
"b 	c #99A596",
"c 	c #A1AD9D",
"d 	c #596057",
"e 	c #818C7C",
"f 	c #869281",
"g 	c #859281",
"h 	c #859180",
"i 	c #596256",
"j 	c #96A192",
"k 	c #A3B0A0",
"l 	c #596157",
"m 	c #849080",
"n 	c #879382",
"o 	c #869282",
"p 	c #859181",
"q 	c #84917F",
"r 	c #697166",
"s 	c #838F7F",
"t 	c #889383",
"u 	c #879383",
"v 	c #5A6258",
"w 	c #A6B3A2",
"x 	c #848F81",
"y 	c #788375",
"z 	c #899484",
"A 	c #889484",
"B 	c #7C8877",
"C 	c #6E776B",
"D 	c #646D62",
"E 	c #8A9586",
"F 	c #8A9585",
"G 	c #899585",
"H 	c #99A595",
"I 	c #778175",
"J 	c #838E80",
"K 	c #8B9687",
"L 	c #8B9686",
"M 	c #8A9686",
"N 	c #666F63",
"O 	c #656D63",
"P 	c #8C9788",
"Q 	c #8C9787",
"R 	c #889483",
"S 	c #5E665A",
"T 	c #A2AE9E",
"U 	c #9AA696",
"V 	c #8D9889",
"W 	c #8D9788",
"X 	c #7F8A7B",
"Y 	c #788275",
"Z 	c #7E887B",
"` 	c #8E988A",
" .	c #8E9889",
"..	c #8B9787",
"+.	c #788175",
"@.	c #8F998B",
"#.	c #6B7468",
"$.	c #71796E",
"%.	c #909A8C",
"&.	c #8F9A8C",
"*.	c #8F9A8B",
"=.	c #626A5F",
"-.	c #6E766B",
";.	c #919B8D",
">.	c #909B8C",
",.	c #5F665C",
"'.	c #919B8E",
").	c #70786D",
"!.	c #929C8F",
"~.	c #929C8E",
"{.	c #62695F",
"].	c #727B70",
"^.	c #939D90",
"/.	c #939D8F",
"(.	c #939C8F",
"_.	c #6A7267",
":.	c #747D72",
"<.	c #949D90",
"[.	c #787F75",
"}.	c #959E91",
"|.	c #949E91",
"1.	c #949E90",
"2.	c #8A9486",
"3.	c #7B8578",
"4.	c #656B62",
"5.	c #969F92",
"6.	c #959F92",
"7.	c #959E92",
"8.	c #6B7268",
"9.	c #A0AD9C",
"0.	c #727B6F",
"a.	c #90998D",
"b.	c #969F93",
"c.	c #6D756A",
"d.	c #676D64",
"e.	c #97A094",
"f.	c #97A093",
"g.	c #818175",
"h.	c #64524B",
"i.	c #6D6058",
"j.	c #8F9689",
"k.	c #6E756B",
"l.	c #95A091",
"m.	c #868E83",
"n.	c #98A194",
"o.	c #98A094",
"p.	c #96A093",
"q.	c #7E766C",
"r.	c #51211E",
"s.	c #53201D",
"t.	c #4B1E1B",
"u.	c #51322C",
"v.	c #90998B",
"w.	c #8D9689",
"x.	c #6B7368",
"y.	c #656C63",
"z.	c #98A195",
"A.	c #7D4945",
"B.	c #8A3837",
"C.	c #913F3D",
"D.	c #813533",
"E.	c #622523",
"F.	c #817E73",
"G.	c #60675E",
"H.	c #A5B1A1",
"I.	c #A1AE9D",
"J.	c #626860",
"K.	c #99A195",
"L.	c #99A296",
"M.	c #9E5A55",
"N.	c #D97D7A",
"O.	c #F1B3B1",
"P.	c #CD7572",
"Q.	c #8D3937",
"R.	c #877C73",
"S.	c #6A7167",
"T.	c #909B8D",
"U.	c #9DA999",
"V.	c #636A61",
"W.	c #9AA297",
"X.	c #9AA296",
"Y.	c #A3877D",
"Z.	c #EE9996",
"`.	c #FFEFEE",
" +	c #EF9996",
".+	c #A45551",
"++	c #959D90",
"@+	c #686F66",
"#+	c #8D988A",
"$+	c #9FAC9B",
"%+	c #697066",
"&+	c #8F978D",
"*+	c #9AA397",
"=+	c #A5948A",
"-+	c #C68C84",
";+	c #B28279",
">+	c #939388",
",+	c #61675E",
"'+	c #94A091",
")+	c #7F897C",
"!+	c #767D73",
"~+	c #9BA398",
"{+	c #72796F",
"]+	c #6B7469",
"^+	c #A2AF9E",
"/+	c #798276",
"(+	c #6C736A",
"_+	c #868D83",
":+	c #8F978C",
"<+	c #71786E",
"[+	c #869082",
"}+	c #697067",
"|+	c #6D736A",
"1+	c #70766D",
"2+	c #6C7269",
"3+	c #6D756B",
"4+	c #818B7E",
"5+	c #A5B2A1",
". . . . . . . . . . + @ # $ % & * = - ; @ + . . . . . . . . . . ",
". . . . . . . . > , ' ) ! ~ ! ! ! ! { { ] ^ / ( . . . . . . . . ",
". . . . . . . _ : < [ [ } | 1 1 1 ~ ! ! ! ! 2 3 4 + . . . . . . ",
". . . . . > 5 6 7 7 8 8 8 9 [ } } | 1 1 1 ~ ! ! 0 a b . . . . . ",
". . . . c d e f g h h h 7 7 8 8 8 9 [ } } | 1 1 1 ! i j . . . . ",
". . . k l m n o o f f f p h h h 7 q 8 8 8 9 [ } } | 1 i b . . . ",
". . . r s t t u u n n o o f f f p h h h 7 q 8 8 8 9 [ } v w . . ",
". . x y z z A A A t t u u n n o o f f f p h h h 7 q 8 8 B C . . ",
". w D E F F G G z z A A A t t u u n n o o f f f p h h h 7 % H . ",
". I J K L M E E F F G G z z A A A t t u u n n o o f f f p h N . ",
". O P P Q K K K L M E E F F G G z z A A R t t u u n n o o f S T ",
"U , V W P P P P Q K K K L M E E F F G G z z A A R t u u u n X Y ",
"Z P `  .V V V W P P P P ..K K K L M E E F G G G z z A A R t u C ",
"+.@.@.@ @ @ ` V V V V W P P P P ..K K K L M E E F G G G z z A #.",
"$.%.&.*.@.@.@.@ @ @ ` V V V V W P P P Q ..K K K L M E E F G G =.",
"-.;.>.%.%.%.&.*.@.@.@.@ @ @ ` V V V V W P P P Q ..K K K L M E ,.",
"-.'.;.;.;.;.>.%.%.%.&.*.@.@.@.@ @ ` ` V V V V W P P P Q K K K a ",
").!.~.~.~.'.;.;.;.;.>.%.%.%.&.*.@.@.@.@ @ ` ` V V V V W P P P {.",
"].^././.(.!.~.~.~.'.;.;.;.;.%.%.%.%.*.*.@.@.@.@ @ ` ` V V V V _.",
":.!.<.<.^.^./.(.(.!.~.~.~.'.;.;.;.;.%.%.%.%.*.*.@.@.@.@ @ ` ` , ",
">.[.}.}.|.1.<.<.^.^./.(.(.!.~.~.~.'.;.;.;.;.%.%.%.%.*.*.@.@.2.3.",
". 4.5.6.7.}.}.}.|.1.<.<.^.^./.(.(.!.~.~.~.'.;.;.;.;.%.%.%.%.8.9.",
". 0.a.b.b.5.5.6.7.}.}.|.|.1.<.<.^././.(.!.!.~.~.~.'.;.;.;.%.c.. ",
". T d.e.e.f.f.b.b.5.5.6.7.}.}.|.|.1.<.<.^.g.h.i.j.!.~.~.~.k.l.. ",
". . 3.m.n.o.e.e.e.f.p.b.b.5.5.6.7.}.}.|.q.r.s.t.u.v./.(.w.x.. . ",
". . . y.7.z.z.z.n.o.e.e.e.f.p.b.b.5.5.6.A.B.C.D.E.F.<.<.G.H.. . ",
". . . I.J.K.L.L.K.z.z.z.n.o.e.e.f.f.p.b.M.N.O.P.Q.R.}.S.T.. . . ",
". . . . U.V.K.W.X.L.L.L.K.z.z.z.n.o.e.e.Y.Z.`. +.+++@+#+. . . . ",
". . . . . $+%+&+*+*+W.W.X.L.L.L.K.z.z.z.n.=+-+;+>+,+'+. . . . . ",
". . . . . . . )+!+X.~+~+*+*+W.W.X.L.L.L.K.z.z.{+]+> . . . . . . ",
". . . . . . . . ^+/+(+_+~+~+~+~+*+*+W.W.:+<+c.l.. . . . . . . . ",
". . . . . . . . . . + [+c.8.}+|+1+2+(+3+4+5+. . . . . . . . . . "};
