/* XPM */
static const char * knob9_xpm[] = {
"32 32 243 2",
"  	c None",
". 	c #A8B5A4",
"+ 	c #A5B1A1",
"@ 	c #969F93",
"# 	c #7B817A",
"$ 	c #676A66",
"% 	c #5A5B59",
"& 	c #575857",
"* 	c #5A5A59",
"= 	c #616261",
"- 	c #6F716E",
"; 	c #828780",
"> 	c #9AA297",
", 	c #A3AE9F",
"' 	c #7D837B",
") 	c #505150",
"! 	c #3D3D3D",
"~ 	c #3C3C3C",
"{ 	c #3E3E3E",
"] 	c #404040",
"^ 	c #434343",
"/ 	c #454545",
"( 	c #474747",
"_ 	c #4A4A4A",
": 	c #4C4C4C",
"< 	c #505050",
"[ 	c #636363",
"} 	c #868B85",
"| 	c #A1AD9E",
"1 	c #A8B4A4",
"2 	c #889086",
"3 	c #4B4C4B",
"4 	c #373737",
"5 	c #3A3A3A",
"6 	c #5D5D5D",
"7 	c #717171",
"8 	c #7B7B7B",
"9 	c #7F7F7F",
"0 	c #777777",
"a 	c #686868",
"b 	c #595959",
"c 	c #525252",
"d 	c #535353",
"e 	c #555555",
"f 	c #8E948C",
"g 	c #A7B3A3",
"h 	c #A3AF9F",
"i 	c #696D68",
"j 	c #383838",
"k 	c #5F5F5F",
"l 	c #919191",
"m 	c #A8A8A8",
"n 	c #B0B0B0",
"o 	c #AFAFAF",
"p 	c #ADADAD",
"q 	c #ACACAC",
"r 	c #AAAAAA",
"s 	c #A9A9A9",
"t 	c #A4A4A4",
"u 	c #979797",
"v 	c #787878",
"w 	c #5C5C5C",
"x 	c #7C7E7B",
"y 	c #A5B0A1",
"z 	c #A1AC9D",
"A 	c #565856",
"B 	c #353535",
"C 	c #989898",
"D 	c #B3B3B3",
"E 	c #B2B2B2",
"F 	c #ABABAB",
"G 	c #A7A7A7",
"H 	c #A5A5A5",
"I 	c #A2A2A2",
"J 	c #999999",
"K 	c #606060",
"L 	c #767775",
"M 	c #A4AEA0",
"N 	c #565756",
"O 	c #696969",
"P 	c #B1B1B1",
"Q 	c #AEAEAE",
"R 	c #A6A6A6",
"S 	c #A3A3A3",
"T 	c #A0A0A0",
"U 	c #9F9F9F",
"V 	c #9D9D9D",
"W 	c #8A8A8A",
"X 	c #676767",
"Y 	c #646464",
"Z 	c #797A79",
"` 	c #A5B0A2",
" .	c #A7B4A3",
"..	c #696C68",
"+.	c #707070",
"@.	c #A1A1A1",
"#.	c #9E9E9E",
"$.	c #9B9B9B",
"%.	c #9A9A9A",
"&.	c #8F8F8F",
"*.	c #6B6B6B",
"=.	c #868885",
"-.	c #9C9C9C",
";.	c #969696",
">.	c #6D6D6D",
",.	c #6E6E6E",
"'.	c #989D96",
").	c #4C4D4C",
"!.	c #949494",
"~.	c #939393",
"{.	c #838383",
"].	c #A6B1A3",
"^.	c #858B83",
"/.	c #393939",
"(.	c #959595",
"_.	c #929292",
":.	c #909090",
"<.	c #747474",
"[.	c #969A94",
"}.	c #A6B3A3",
"|.	c #585A58",
"1.	c #8D8D8D",
"2.	c #888888",
"3.	c #767676",
"4.	c #848484",
"5.	c #9DA79A",
"6.	c #3B3B3B",
"7.	c #8E8E8E",
"8.	c #8B8B8B",
"9.	c #7A7A7A",
"0.	c #A6AEA3",
"a.	c #878D85",
"b.	c #898989",
"c.	c #7D7D7D",
"d.	c #9CA19B",
"e.	c #737771",
"f.	c #4E4E4E",
"g.	c #8C8C8C",
"h.	c #878787",
"i.	c #868686",
"j.	c #969895",
"k.	c #676966",
"l.	c #3F3F3F",
"m.	c #818181",
"n.	c #616260",
"o.	c #414141",
"p.	c #888787",
"q.	c #726665",
"r.	c #634F4D",
"s.	c #736867",
"t.	c #828282",
"u.	c #626462",
"v.	c #5C4442",
"w.	c #461C19",
"x.	c #56211F",
"y.	c #632624",
"z.	c #745958",
"A.	c #858585",
"B.	c #696B68",
"C.	c #464646",
"D.	c #817E7D",
"E.	c #491E1A",
"F.	c #6B2927",
"G.	c #8F3E3D",
"H.	c #A44C4A",
"I.	c #95403F",
"J.	c #8B8989",
"K.	c #989998",
"L.	c #787C76",
"M.	c #484848",
"N.	c #7C7877",
"O.	c #612623",
"P.	c #984241",
"Q.	c #E29592",
"R.	c #F6B7B5",
"S.	c #CB605D",
"T.	c #8E8B8B",
"U.	c #9D9F9D",
"V.	c #8A9188",
"W.	c #4F4F4F",
"X.	c #7A4444",
"Y.	c #B55250",
"Z.	c #FAC8C6",
"`.	c #FFDBD9",
" +	c #BA7270",
".+	c #A4A9A3",
"++	c #A0AA9D",
"@+	c #515151",
"#+	c #808080",
"$+	c #7F7C7C",
"%+	c #956160",
"&+	c #BC716E",
"*+	c #A77675",
"=+	c #878585",
"-+	c #ACB4AA",
";+	c #6A6B6A",
">+	c #666666",
",+	c #7E7E7E",
"'+	c #AAB5A6",
")+	c #8F968E",
"!+	c #565656",
"~+	c #7C7C7C",
"{+	c #797979",
"]+	c #A7ACA5",
"^+	c #A6B2A2",
"/+	c #676867",
"(+	c #575757",
"_+	c #ABB5A8",
":+	c #949B92",
"<+	c #5A5A5A",
"[+	c #757575",
"}+	c #ACB1AB",
"|+	c #80837F",
"1+	c #5E5E5E",
"2+	c #A5A7A5",
"3+	c #AAB6A6",
"4+	c #A6B2A3",
"5+	c #626262",
"6+	c #656565",
"7+	c #9FA09F",
"8+	c #ADB7A9",
"9+	c #7D7E7C",
"0+	c #A0A1A0",
"a+	c #ADB7AA",
"b+	c #A7B2A3",
"c+	c #898C88",
"d+	c #6C6C6C",
"e+	c #A7A9A6",
"f+	c #9BA19A",
"g+	c #7C7D7C",
"h+	c #727272",
"i+	c #AEB3AC",
"j+	c #A8B3A4",
"k+	c #9B9F99",
"l+	c #878887",
"m+	c #A9ADA7",
"n+	c #A8B0A6",
"o+	c #9EA29C",
"p+	c #979996",
"q+	c #949594",
"r+	c #9EA09D",
"s+	c #A3A8A2",
"t+	c #ABB3A9",
". . . . . . . . . . + @ # $ % & * = - ; > + . . . . . . . . . . ",
". . . . . . . . , ' ) ! ~ { ] ^ / ( _ : < [ } | . . . . . . . . ",
". . . . . . 1 2 3 4 5 ~ _ 6 7 8 9 0 a b c d e [ f g . . . . . . ",
". . . . . h i j 4 ~ k l m n o p q r s t u v 6 b w x y . . . . . ",
". . . . z A B 4 d C D E n o p F r m G H t I J 0 K K L M . . . . ",
". . . h N B j O p D P n Q p F r m R H S I T U V W X Y Z ` . . . ",
". .  ...B j +.n E P o Q q F s m R t S @.T #.V $.%.&.*.O =.1 . . ",
". . 2 4 4 X n E n o p q r s G R t S @.U #.-.$.J C ;.W >.,.'.. . ",
". , ).4 _ q E n o p F r m G H t I @.U #.-.%.J u ;.!.~.{.+.8 ].. ",
". ^.4 /.W P n Q p F s m R H S I T U V -.%.J u (.!._.l :.v <.[.. ",
"}.|./.< p o Q q F s m R t S @.T #.V $.%.C u (.~._.:.&.1.2.3.4.1 ",
"5.] 6.9 o p q r s G R t S @.U #.-.$.J C ;.(.~._.:.7.1.8.7.9.8 0.",
"a.6.] -.p F r m G H t I @.U #.-.%.J u ;.!.~.l :.7.1.8.b.b.4.c.d.",
"e.! f.s F s m R H S I T U V -.%.C u (.!._.l &.7.g.8.b.h.i.b.9 j.",
"k.l.w F s m R t S @.T #.V $.%.C u (.~._.:.&.1.g.W b.h.i.4.g.m._.",
"n.o.X s G R t S @.U #.-.$.J C ;.(.~._.:.7.1.8.W p.q.r.s.t.8.{._.",
"u.^ O G H t I @.U #.-.%.J u ;.!.~.l :.7.1.8.b.2.v.w.x.y.z.W A.!.",
"B.C.Y H S I T U V -.%.C u (.!._.l &.7.g.8.b.h.D.E.F.G.H.I.J.2.K.",
"L.M.b T @.T #.V $.%.C u (.~._.:.&.1.g.W b.h.i.N.O.P.Q.R.S.T.W U.",
"V._ W.u U #.-.$.J C ;.(.~._.:.7.1.8.W 2.h.A.4.t.X.Y.Z.`. +:.g..+",
"++@+f.m.V -.%.J u ;.!.~.l :.7.g.8.b.2.i.A.{.t.#+$+%+&+*+=+1.7.-+",
" .;+@+>+$.%.C u (.!._.l &.7.g.8.b.h.i.4.{.m.#+,+c.8 9.v _.7.$.'+",
". )+d !+8.C u (.~._.:.&.1.g.W b.h.i.4.t.m.9 ,+~+8 {+v 4.~.:.]+. ",
". ^+/+(+>+(.(.~.l :.7.1.8.W 2.h.A.4.t.#+9 c.~+9.{+0 0 (.:.%._+. ",
". . :+<+w 9.~.l :.7.g.8.b.2.i.A.{.t.#+9 c.8 9.v 0 [+l l ~.}+. . ",
". . . |+1+K {.:.7.g.8.b.h.i.4.{.m.#+,+c.8 9.v 3.[+7.!._.2+3+. . ",
". . . 4+Z 5+6+m.7.W b.h.i.4.t.m.9 ,+~+8 {+v 3.0 l ~._.7+8+. . . ",
". . . . ].9+X O 9.g.h.A.4.t.#+9 c.~+9.{+0 3.4.(.:._.0+a+. . . . ",
". . . . . b+c+d+>.7 t.1.b.#+9 c.8 9.v c.W ~.l :._.e+a+. . . . . ",
". . . . . . . f+g+h+<.0 #+8.g.1.g.g.l _.8.1.:.$.i+3+. . . . . . ",
". . . . . . . . j+k+l+{+8 c.9 t.4.i.b.8.1.%.m+a+. . . . . . . . ",
". . . . . . . . . . 1 n+o+p+q+_.(.C r+s+t+3+. . . . . . . . . . "};
