/* XPM */
static const char * knob20_xpm[] = {
"32 32 230 2",
"  	c None",
". 	c #A8B5A4",
"+ 	c #98A494",
"@ 	c #798276",
"# 	c #727A6F",
"$ 	c #71796E",
"% 	c #737C70",
"& 	c #70796D",
"* 	c #6D756A",
"= 	c #747D71",
"- 	c #94A091",
"; 	c #A5B1A1",
"> 	c #778175",
", 	c #6D746A",
"' 	c #757D72",
") 	c #8F998C",
"! 	c #919B8D",
"~ 	c #909A8C",
"{ 	c #8F998B",
"] 	c #8E998A",
"^ 	c #8D9889",
"/ 	c #8C9788",
"( 	c #8A9586",
"_ 	c #717B6E",
": 	c #677065",
"< 	c #788175",
"[ 	c #A4B1A0",
"} 	c #7F8A7C",
"| 	c #636960",
"1 	c #8B9488",
"2 	c #939D90",
"3 	c #939C8F",
"4 	c #929C8E",
"5 	c #8B9687",
"6 	c #8A9686",
"7 	c #8A9585",
"8 	c #838E7F",
"9 	c #5E665B",
"0 	c #798376",
"a 	c #A7B4A3",
"b 	c #A5B2A1",
"c 	c #666E64",
"d 	c #7E867C",
"e 	c #959F92",
"f 	c #949E91",
"g 	c #899585",
"h 	c #899484",
"i 	c #889383",
"j 	c #768072",
"k 	c #5E675C",
"l 	c #A2AF9F",
"m 	c #A2AE9E",
"n 	c #5F665D",
"o 	c #90998D",
"p 	c #969F93",
"q 	c #959E92",
"r 	c #929C8F",
"s 	c #879382",
"t 	c #838E7E",
"u 	c #5A6157",
"v 	c #9DAA9A",
"w 	c #61675F",
"x 	c #97A094",
"y 	c #929B8E",
"z 	c #889484",
"A 	c #869281",
"B 	c #84907F",
"C 	c #585F55",
"D 	c #A2AF9E",
"E 	c #687066",
"F 	c #929A8F",
"G 	c #98A194",
"H 	c #919B8E",
"I 	c #8E988A",
"J 	c #859180",
"K 	c #818D7C",
"L 	c #5B6359",
"M 	c #808B7D",
"N 	c #838A80",
"O 	c #99A195",
"P 	c #97A093",
"Q 	c #969F92",
"R 	c #959E91",
"S 	c #879383",
"T 	c #879282",
"U 	c #768171",
"V 	c #747D72",
"W 	c #697067",
"X 	c #9AA296",
"Y 	c #949E90",
"Z 	c #909B8D",
"` 	c #838F7E",
" .	c #5D665A",
"..	c #9EAB9A",
"+.	c #7B8478",
"@.	c #939B90",
"#.	c #99A296",
"$.	c #939D8F",
"%.	c #869282",
"&.	c #808D7B",
"*.	c #6F786C",
"=.	c #767D73",
"-.	c #9AA397",
";.	c #98A094",
">.	c #909B8C",
",.	c #8F9A8C",
"'.	c #828F7D",
").	c #5D6659",
"!.	c #A6B3A2",
"~.	c #98A495",
"{.	c #81887F",
"].	c #98A195",
"^.	c #949D90",
"/.	c #8F9A8B",
"(.	c #859281",
"_.	c #737E6E",
":.	c #828C7F",
"<.	c #7C8579",
"[.	c #8D9789",
"}.	c #899485",
"|.	c #818E7C",
"1.	c #687065",
"2.	c #71786E",
"3.	c #9BA398",
"4.	c #8E9889",
"5.	c #8D9788",
"6.	c #849180",
"7.	c #667063",
"8.	c #6B7168",
"9.	c #8C9787",
"0.	c #8B9686",
"a.	c #859181",
"b.	c #646D60",
"c.	c #6A7168",
"d.	c #96A093",
"e.	c #83907F",
"f.	c #828E7D",
"g.	c #636D5F",
"h.	c #9AA297",
"i.	c #889483",
"j.	c #626C5E",
"k.	c #828F7E",
"l.	c #636D60",
"m.	c #6F776C",
"n.	c #8B9787",
"o.	c #84917F",
"p.	c #656F62",
"q.	c #757E72",
"r.	c #9BA397",
"s.	c #83907E",
"t.	c #818E7D",
"u.	c #687165",
"v.	c #8A9587",
"w.	c #788573",
"x.	c #788275",
"y.	c #686E66",
"z.	c #959D91",
"A.	c #5C6659",
"B.	c #A3B09F",
"C.	c #969E93",
"D.	c #99A196",
"E.	c #9B978B",
"F.	c #A35D58",
"G.	c #803433",
"H.	c #603834",
"I.	c #848579",
"J.	c #6B7468",
"K.	c #A1AD9D",
"L.	c #72786F",
"M.	c #CC827C",
"N.	c #EA9997",
"O.	c #AA4F4D",
"P.	c #682826",
"Q.	c #4C2A26",
"R.	c #90998C",
"S.	c #95A192",
"T.	c #8D958A",
"U.	c #F2A9A6",
"V.	c #FFEDEC",
"W.	c #CA726F",
"X.	c #712C2B",
"Y.	c #441C18",
"Z.	c #84857A",
"`.	c #7D8978",
" +	c #61685F",
".+	c #D5827D",
"++	c #F0A3A0",
"@+	c #B15856",
"#+	c #6B2928",
"$+	c #492521",
"%+	c #575E54",
"&+	c #626960",
"*+	c #9E8E83",
"=+	c #A7504D",
"-+	c #843433",
";+	c #5B2B28",
">+	c #787267",
",+	c #5C6459",
"'+	c #96A192",
")+	c #636A61",
"!+	c #959C90",
"~+	c #8E8D82",
"{+	c #939B8E",
"]+	c #909C8D",
"^+	c #9CA899",
"/+	c #5E655C",
"(+	c #8D9589",
"_+	c #818C7C",
":+	c #97A394",
"<+	c #6D756B",
"[+	c #6C736A",
"}+	c #666F62",
"|+	c #676F64",
"1+	c #A4B0A0",
"2+	c #96A293",
"3+	c #697167",
"4+	c #656C62",
"5+	c #858E82",
"6+	c #818C7D",
"7+	c #666F63",
"8+	c #6A7367",
"9+	c #939E8F",
"0+	c #7D867A",
"a+	c #6C7469",
"b+	c #6A7267",
"c+	c #676F65",
"d+	c #666D63",
"e+	c #636B61",
"f+	c #697166",
"g+	c #7A8377",
". . . . . . . . . . . + @ # $ % % & * = - . . . . . . . . . . . ",
". . . . . . . . ; > , ' ) ! ~ { ] ^ / ( _ : < [ . . . . . . . . ",
". . . . . . . } | 1 2 3 4 ! ~ { ] ^ / 5 6 7 8 9 0 a . . . . . . ",
". . . . . b c d e f 2 3 4 ! ~ { ] ^ / 5 6 g h i j k l . . . . . ",
". . . . m n o p q f 2 r 4 ! ~ { ] ^ / 5 6 g h i s t u v . . . . ",
". . . b w q x p q f 2 r y ! ~ { ] ^ / 5 6 g z i s A B C D . . . ",
". . . E F G x p q f 2 r H ! ~ { I ^ / 5 6 g z i s A J K L a . . ",
". . M N O G P Q R f 2 r H ! ~ { I ^ / 5 ( g z S T A J B U V . . ",
". ; W X O G P Q R Y 2 r H Z ~ { I ^ / 5 ( g z S T A J B `  .... ",
". +.@.#.O G P Q R Y $.r H Z ~ { I ^ / 5 ( g z S %.A J B ` &.*.. ",
". =.-.#.O ;.P Q R Y $.4 H >.,.{ I ^ / 5 ( g z S %.A J B ` '.).!.",
"~.{.-.#.].;.P Q R ^.$.4 ! ~ /.{ I ^ / 5 ( g z S %.(.J B ` '._.:.",
"<.-.-.#.].;.P Q R ^.$.4 ! ~ /.] I [./ 5 ( }.z S %.(.J B ` '.|.1.",
"2.3.-.#.].x P Q R ^.$.4 ! ~ /.] 4.5./ 5 ( }.z S %.(.6.B ` '.|.7.",
"8.3.-.#.].x P Q R ^.$.4 ! ~ /.] ^ 5.9.0.( }.z S %.a.6.B ` '.|.b.",
"c.3.-.#.].x d.Q R ^.$.4 ! ~ /.] ^ 5.9.0.7 h z S %.a.6.e.` f.|.g.",
"c.3.h.#.].x d.Q R ^.$.4 ! ~ /.] ^ / 9.0.7 h i.S %.a.6.e.` f.|.j.",
"c.3.h.#.].x p e R ^.3 4 ! ~ /.] ^ / 9.0.7 h i.s %.a.6.e.k.f.|.l.",
"m.3.h.#.].x p e f ^.3 4 ! ~ { ] ^ / n.0.7 h i.s A J o.e.k.f.|.p.",
"q.r.h.#.].x p e f ^.3 4 ! ~ { ] ^ / 5 0.7 h i s A J o.s.k.t.|.u.",
"v.N h.#.].x p e f ^.3 4 ! ~ { ] ^ / 5 6 7 h i s A J B s.'.t.w.x.",
". y.h.#.].x p z.f 2 3 4 ! ~ { ] ^ / 5 6 7 h i s A J B s.'.|.A.B.",
". m.C.D.].E.F.G.H.I.3 4 ! ~ { ] ^ / 5 6 g h i s A J B s.'.|.J.. ",
". K.L.D.].M.N.O.P.Q.R.4 ! ~ { ] ^ / 5 6 g h i s A J B s.'.b.S.. ",
". . +.T.;.U.V.W.X.Y.Z.y ! ~ { ] ^ / 5 6 g z i s A J B s.`.1.. . ",
". . a  +P .+++@+#+$+R.H ! ~ { I ^ / 5 6 g z i s A J B ` %+[ . . ",
". . . v &+*+=+-+;+>+r H ! ~ { I ^ / 5 ( g z S T A J B ,++ . . . ",
". . . . '+)+!+~+{+2 r H Z ~ { I ^ / 5 ( g z S T A J ,+]+. . . . ",
". . . . . ^+/+(+Y $.r H Z ~ { I ^ / 5 ( g z S %._+C :+. . . . . ",
". . . . . . !.<+[+r 4 ! Z ,.{ I ^ / 5 ( g z S }+|+1+. . . . . . ",
". . . . . . . . 2+3+4+5+>./.{ I ^ / 5 ( 6+7+8+9+. . . . . . . . ",
". . . . . . . . . . b 0+$ a+b+c+d+e+e+f+g+B.. . . . . . . . . . "};
