/* XPM */
static const char * knob31_xpm[] = {
"32 32 250 2",
"  	c None",
". 	c #A8B5A4",
"+ 	c #A9B5A5",
"@ 	c #ABB3A8",
"# 	c #A5AAA4",
"$ 	c #A0A49F",
"% 	c #9FA09F",
"& 	c #9E9E9E",
"* 	c #9F9F9E",
"= 	c #A1A2A0",
"- 	c #A6A9A5",
"; 	c #ABB0A9",
"> 	c #AFB7AC",
", 	c #AAB6A6",
"' 	c #A8B4A5",
") 	c #A2A7A1",
"! 	c #959695",
"~ 	c #8A8A8A",
"{ 	c #8B8B8B",
"] 	c #8C8C8C",
"^ 	c #8E8E8E",
"/ 	c #8F8F8F",
"( 	c #909090",
"_ 	c #919191",
": 	c #929292",
"< 	c #959595",
"[ 	c #A1A1A0",
"} 	c #ACB1AA",
"| 	c #ACB7A9",
"1 	c #A3AAA2",
"2 	c #8D8E8D",
"3 	c #848484",
"4 	c #858585",
"5 	c #878787",
"6 	c #8F8E8E",
"7 	c #8D8D8D",
"8 	c #969696",
"9 	c #939393",
"0 	c #9F9F9F",
"a 	c #AFB5AD",
"b 	c #A8B3A4",
"c 	c #979996",
"d 	c #808080",
"e 	c #898989",
"f 	c #8A5C5C",
"g 	c #C45C59",
"h 	c #E28A88",
"i 	c #A77776",
"j 	c #797979",
"k 	c #777777",
"l 	c #767676",
"m 	c #7B7B7B",
"n 	c #A9ABA8",
"o 	c #A7B2A3",
"p 	c #8A8C8A",
"q 	c #7A7A7A",
"r 	c #7C7C7C",
"s 	c #828282",
"t 	c #736060",
"u 	c #8A3736",
"v 	c #DB8380",
"w 	c #FFEEED",
"x 	c #F7B3B1",
"y 	c #8F7170",
"z 	c #787878",
"A 	c #757575",
"B 	c #868686",
"C 	c #ACB6A8",
"D 	c #868786",
"E 	c #5F4442",
"F 	c #712C2A",
"G 	c #AB5350",
"H 	c #E19491",
"I 	c #DC7F7D",
"J 	c #99615F",
"K 	c #9D9E9D",
"L 	c #ABB6A7",
"M 	c #8D908C",
"N 	c #727272",
"O 	c #64514F",
"P 	c #4D1F1B",
"Q 	c #6E2B29",
"R 	c #893837",
"S 	c #903A38",
"T 	c #826464",
"U 	c #7E7E7E",
"V 	c #7D7D7D",
"W 	c #A1A4A0",
"X 	c #9BA198",
"Y 	c #707070",
"Z 	c #888888",
"` 	c #858383",
" .	c #523431",
"..	c #461C19",
"+.	c #51201D",
"@.	c #65403E",
"#.	c #807F7F",
"$.	c #7F7F7F",
"%.	c #949494",
"&.	c #A8AEA6",
"*.	c #A6B2A3",
"=.	c #797A79",
"-.	c #6B6B6B",
";.	c #7A7373",
">.	c #7C7676",
",.	c #838383",
"'.	c #818181",
").	c #ABB5A8",
"!.	c #959B93",
"~.	c #676767",
"{.	c #6C6C6C",
"].	c #A7B4A3",
"^.	c #787977",
"/.	c #646464",
"(.	c #949594",
"_.	c #A0AA9E",
":.	c #636363",
"<.	c #989898",
"[.	c #979797",
"}.	c #8D938B",
"|.	c #5D5D5D",
"1.	c #9A9A9A",
"2.	c #999999",
"3.	c #A0A59F",
"4.	c #7D817C",
"5.	c #5A5A5A",
"6.	c #747474",
"7.	c #9D9D9D",
"8.	c #9B9B9B",
"9.	c #707170",
"0.	c #575757",
"a.	c #A0A0A0",
"b.	c #9C9C9C",
"c.	c #8F908F",
"d.	c #6A6B6A",
"e.	c #555555",
"f.	c #A2A2A2",
"g.	c #A1A1A1",
"h.	c #898A89",
"i.	c #676867",
"j.	c #525252",
"k.	c #A4A4A4",
"l.	c #A3A3A3",
"m.	c #737373",
"n.	c #6B6D6A",
"o.	c #4F4F4F",
"p.	c #A7A7A7",
"q.	c #A5A5A5",
"r.	c #878786",
"s.	c #747773",
"t.	c #4C4C4C",
"u.	c #666666",
"v.	c #A9A9A9",
"w.	c #A6A6A6",
"x.	c #6D6D6D",
"y.	c #8B8E8A",
"z.	c #848A83",
"A.	c #494949",
"B.	c #535353",
"C.	c #AAAAAA",
"D.	c #A8A8A8",
"E.	c #6A6A6A",
"F.	c #949992",
"G.	c #9AA498",
"H.	c #4A4A4A",
"I.	c #484848",
"J.	c #ACACAC",
"K.	c #ABABAB",
"L.	c #686868",
"M.	c #A3ABA0",
"N.	c #A5B2A2",
"O.	c #5B5C5B",
"P.	c #444444",
"Q.	c #AEAEAE",
"R.	c #ADADAD",
"S.	c #777877",
"T.	c #A8B4A4",
"U.	c #81867F",
"V.	c #414141",
"W.	c #464646",
"X.	c #AFAFAF",
"Y.	c #616161",
"Z.	c #606060",
"`.	c #91968F",
" +	c #A1AC9D",
".+	c #4E4E4E",
"++	c #3F3F3F",
"@+	c #5E5E5E",
"#+	c #B0B0B0",
"$+	c #5C5C5C",
"%+	c #696A69",
"&+	c #A6B1A2",
"*+	c #838A81",
"=+	c #3D3D3D",
"-+	c #3E3E3E",
";+	c #B2B2B2",
">+	c #B1B1B1",
",+	c #585858",
"'+	c #595959",
")+	c #90968E",
"!+	c #A6B2A2",
"~+	c #646764",
"{+	c #3B3B3B",
"]+	c #B3B3B3",
"^+	c #777976",
"/+	c #A7B4A4",
"(+	c #A0AC9D",
"_+	c #525351",
":+	c #393939",
"<+	c #3C3C3C",
"[+	c #505050",
"}+	c #515151",
"|+	c #696A68",
"1+	c #A4AFA1",
"2+	c #9DA89A",
"3+	c #515250",
"4+	c #373737",
"5+	c #4D4D4D",
"6+	c #656665",
"7+	c #A2AC9F",
"8+	c #626461",
"9+	c #363636",
"0+	c #5F5F5F",
"a+	c #6F716E",
"b+	c #A3AEA0",
"c+	c #A7B3A3",
"d+	c #80877E",
"e+	c #353535",
"f+	c #454545",
"g+	c #696969",
"h+	c #424242",
"i+	c #878D85",
"j+	c #A0AB9C",
"k+	c #747973",
"l+	c #474847",
"m+	c #3A3A3A",
"n+	c #404040",
"o+	c #545554",
"p+	c #7C827B",
"q+	c #A0AB9D",
"r+	c #A3AF9F",
"s+	c #90988E",
"t+	c #727670",
"u+	c #5C5E5B",
"v+	c #4D4E4D",
"w+	c #4B4B4B",
"x+	c #626562",
"y+	c #797E78",
"z+	c #969E93",
"A+	c #A4B0A1",
". . . . . . . . . . + @ # $ % & * = - ; > , . . . . . . . . . . ",
". . . . . . . . ' ) ! ~ ~ { ] ^ / ( _ : < [ } | . . . . . . . . ",
". . . . . . . 1 2 3 4 5 ^ 6 7 7 / : 8 8 _ _ 9 0 a + . . . . . . ",
". . . . . b c d d 4 ] e f g h i j k l m { 8 9 _ 9 n | . . . . . ",
". . . . o p q r e ~ s t u v w x y q z k l A B 8 / ( = C . . . . ",
". . . o D l q ~ 5 4 3 E F G H I J r m j z k l j 9 ^ ^ K L . . . ",
". . . M N l 7 ~ e 5 B O P Q R S T U V m q j z k l _ ] 7 W + . . ",
". . X Y Y ~ 7 ] { ~ Z `  ...+.@.#.d $.U r m q j z z %.~ { &.. . ",
". *.=.-.$._ / ^ 7 ] { e 5 ;.>.4 ,.s '.d $.V r m q j r _ Z %.).. ",
". !.~.{.: 9 : ( / ^ 7 ] ~ e Z 5 B 3 ,.s '.d U V r m q Z 5 B # . ",
"].^./.$.8 < %.9 _ ( / ^ 7 { ~ e Z 5 4 3 ,.s '.$.U V r m ^ ,.(.+ ",
"_./.:.: <.[.8 < %.: _ ( / ^ ] { ~ e 5 B 4 3 ,.'.d $.U V 7 d ,.@ ",
"}.|.-.1.1.2.<.[.8 %.9 : _ ( ^ 7 ] { ~ Z 5 B 4 3 s '.d $.B 3 U 3.",
"4.5.6.& 7.8.1.2.<.[.< %.9 : _ / ^ 7 ] { e Z 5 B 4 ,.s '.d ~ r c ",
"9.0.r a.0 & b.8.1.2.<.8 < %.9 : ( / ^ 7 ] ~ e Z 5 B 3 ,.s e j c.",
"d.e.d f.g.a.0 7.b.8.1.2.[.8 < %.9 _ ( / ^ 7 { ~ e Z 5 4 3 Z l h.",
"i.j.s k.l.f.g.a.& 7.b.8.1.<.[.8 < %.: _ ( / ^ ] { ~ e Z B 4 m.5 ",
"n.o.k p.q.k.l.f.g.0 & 7.b.1.2.<.[.8 %.9 : _ ( ^ 7 ] { ~ Z '.Y r.",
"s.t.u.v.p.w.q.k.l.g.a.0 & 7.8.1.2.<.[.< %.9 : _ / ^ 7 ] { V x.y.",
"z.A.B.w.C.D.p.w.q.k.f.g.a.0 & b.8.1.2.<.8 < %.9 : ( / ^ ( Y E.F.",
"G.H.I.< J.K.v.D.p.w.q.l.f.g.a.0 7.b.8.1.2.[.8 < %.9 _ ( ~ u.L.M.",
"N.O.P.E.Q.R.J.C.v.D.p.w.k.l.f.g.a.& 7.b.8.1.<.[.8 < %.9 k :.S.T.",
". U.V.W.8.X.Q.R.K.C.v.D.p.q.k.l.f.g.0 & 7.b.8.2.<.[.8 / Y.Z.`.. ",
".  +.+++@+R.#+X.Q.J.K.C.v.p.w.q.k.l.g.a.0 & 7.8.1.2.[.-.$+%+&+. ",
". . *+=+-+k ;+>+#+Q.R.J.K.C.D.p.w.q.k.f.g.a.0 & b.8.q ,+'+)+. . ",
". . !+~+{+-+,.]+;+>+X.Q.R.J.K.v.D.p.w.q.l.f.g.a.& d e.e.^+/+. . ",
". . . (+_+:+<+j #+]+;+#+X.Q.R.J.C.v.D.p.w.k.l.& 6.[+}+|+1+. . . ",
". . . . 2+3+4+:+5.8.]+]+>+#+X.Q.R.K.C.v.D.w.: Z.t.5+6+7+. . . . ",
". . . . . (+8+4+9+{+0+( R.;+>+#+X.R.J.f.] /.H.I.A.a+b+. . . . . ",
". . . . . . c+d+P.e+9+4+f+,+g+Y m.L.'+A.V.h+P.B.i+c+. . . . . . ",
". . . . . . . . j+k+l+e+e+9+4+:+m+{+<+=+n+o+p+q+. . . . . . . . ",
". . . . . . . . . . r+s+t+u+v+w+t.o+x+y+z+A+. . . . . . . . . . "};
