/* XPM */
static const char * knob11_xpm[] = {
"32 32 254 2",
"  	c None",
". 	c #A8B5A4",
"+ 	c #A6B3A3",
"@ 	c #98A296",
"# 	c #7D837B",
"$ 	c #676B66",
"% 	c #575957",
"& 	c #4F504F",
"* 	c #4E4F4E",
"= 	c #565756",
"- 	c #656864",
"; 	c #797F78",
"> 	c #959D92",
", 	c #A4B1A0",
"' 	c #A2AE9F",
") 	c #7C817A",
"! 	c #373737",
"~ 	c #353535",
"{ 	c #383838",
"] 	c #393939",
"^ 	c #3A3A3A",
"/ 	c #3C3C3C",
"( 	c #3D3D3D",
"_ 	c #3E3E3E",
": 	c #414141",
"< 	c #7F847E",
"[ 	c #A1AC9D",
"} 	c #A7B4A3",
"| 	c #858C83",
"1 	c #4A4A4A",
"2 	c #343434",
"3 	c #363636",
"4 	c #424242",
"5 	c #565656",
"6 	c #6C6C6C",
"7 	c #747474",
"8 	c #777777",
"9 	c #6D6D6D",
"0 	c #5F5F5F",
"a 	c #4C4C4C",
"b 	c #434343",
"c 	c #444444",
"d 	c #454545",
"e 	c #878D85",
"f 	c #A6B3A2",
"g 	c #A2AE9E",
"h 	c #696C68",
"i 	c #575757",
"j 	c #868686",
"k 	c #A8A8A8",
"l 	c #B3B3B3",
"m 	c #B2B2B2",
"n 	c #B1B1B1",
"o 	c #B0B0B0",
"p 	c #AAAAAA",
"q 	c #959595",
"r 	c #6F6F6F",
"s 	c #4E4E4E",
"t 	c #494949",
"u 	c #707270",
"v 	c #A2AD9F",
"w 	c #A2AD9E",
"x 	c #5C5D5B",
"y 	c #4D4D4D",
"z 	c #929292",
"A 	c #AFAFAF",
"B 	c #AEAEAE",
"C 	c #ADADAD",
"D 	c #ACACAC",
"E 	c #9C9C9C",
"F 	c #686868",
"G 	c #656665",
"H 	c #A0AB9D",
"I 	c #A4B0A0",
"J 	c #5D5F5D",
"K 	c #636363",
"L 	c #ABABAB",
"M 	c #A9A9A9",
"N 	c #A7A7A7",
"O 	c #828282",
"P 	c #535353",
"Q 	c #696A69",
"R 	c #A1AC9E",
"S 	c #727571",
"T 	c #3B3B3B",
"U 	c #6B6B6B",
"V 	c #A6A6A6",
"W 	c #A5A5A5",
"X 	c #8D8D8D",
"Y 	c #595959",
"Z 	c #777976",
"` 	c #A7B3A3",
" .	c #8F978D",
"..	c #404040",
"+.	c #616161",
"@.	c #A4A4A4",
"#.	c #A3A3A3",
"$.	c #A2A2A2",
"%.	c #888888",
"&.	c #5B5B5B",
"*.	c #8D938C",
"=.	c #A4B0A1",
"-.	c #585A58",
";.	c #A1A1A1",
">.	c #A0A0A0",
",.	c #9E9E9E",
"'.	c #797979",
").	c #5E5E5E",
"!.	c #6A6B6A",
"~.	c #A4AFA1",
"{.	c #8B9188",
"].	c #858585",
"^.	c #9F9F9F",
"/.	c #9D9D9D",
"(.	c #989898",
"_.	c #626262",
":.	c #8E938C",
"<.	c #626462",
"[.	c #585858",
"}.	c #9B9B9B",
"|.	c #9A9A9A",
"1.	c #838383",
"2.	c #656565",
"3.	c #767675",
"4.	c #9FA89C",
"5.	c #7F7F7F",
"6.	c #999999",
"7.	c #979797",
"8.	c #939393",
"9.	c #6A6A6A",
"0.	c #A0A89D",
"a.	c #8C938A",
"b.	c #474747",
"c.	c #4B4B4B",
"d.	c #969696",
"e.	c #949494",
"f.	c #787878",
"g.	c #919690",
"h.	c #7A7E79",
"i.	c #888A87",
"j.	c #70726F",
"k.	c #646464",
"l.	c #919191",
"m.	c #909090",
"n.	c #8F8F8F",
"o.	c #898989",
"p.	c #717171",
"q.	c #828382",
"r.	c #6D6E6C",
"s.	c #505050",
"t.	c #6E6E6E",
"u.	c #8E8E8E",
"v.	c #8B8B8B",
"w.	c #818181",
"x.	c #6F716F",
"y.	c #525252",
"z.	c #707070",
"A.	c #8C8C8C",
"B.	c #848484",
"C.	c #757774",
"D.	c #555555",
"E.	c #8A8A8A",
"F.	c #7A7A7A",
"G.	c #80847F",
"H.	c #666666",
"I.	c #878787",
"J.	c #7D7D7D",
"K.	c #939592",
"L.	c #90978E",
"M.	c #736866",
"N.	c #59403D",
"O.	c #5F4946",
"P.	c #7A7473",
"Q.	c #808080",
"R.	c #9DA19B",
"S.	c #A3ADA0",
"T.	c #726766",
"U.	c #481D1A",
"V.	c #53201D",
"W.	c #58221F",
"X.	c #552926",
"Y.	c #7E7C7C",
"Z.	c #A7AEA5",
"`.	c #A8B4A4",
" +	c #797A79",
".+	c #757575",
"++	c #623F3D",
"@+	c #742D2C",
"#+	c #8D3C3B",
"$+	c #984442",
"%+	c #853534",
"&+	c #785C5C",
"*+	c #A9B4A5",
"=+	c #989E96",
"-+	c #676767",
";+	c #7B4A4A",
">+	c #A84A48",
",+	c #E69B99",
"'+	c #F1ACA9",
")+	c #C25D5A",
"!+	c #8D6969",
"~+	c #A1A4A0",
"{+	c #A7B3A4",
"]+	c #787978",
"^+	c #696969",
"/+	c #827171",
"(+	c #C25B59",
"_+	c #FDCDCB",
":+	c #FFDCDA",
"<+	c #CB6966",
"[+	c #918B8B",
"}+	c #919291",
"|+	c #AAB4A7",
"1+	c #9DA39B",
"2+	c #7E7E7E",
"3+	c #7C7C7C",
"4+	c #857474",
"5+	c #A97473",
"6+	c #A77473",
"7+	c #908988",
"8+	c #A6ABA5",
"9+	c #8F928E",
"0+	c #727272",
"a+	c #7B7B7B",
"b+	c #9FA19F",
"c+	c #A9B5A5",
"d+	c #A8B3A4",
"e+	c #898A88",
"f+	c #767676",
"g+	c #ABB5A8",
"h+	c #A8B3A5",
"i+	c #8C8C8B",
"j+	c #9C9C9B",
"k+	c #979997",
"l+	c #A4A5A3",
"m+	c #ABB5A7",
"n+	c #A4AAA2",
"o+	c #8D8D8C",
"p+	c #ACB1AB",
"q+	c #AAB6A6",
"r+	c #AAB5A7",
"s+	c #A2A8A1",
"t+	c #949594",
"u+	c #A9ADA8",
"v+	c #ADB7AA",
"w+	c #A9B5A6",
"x+	c #ABB3A8",
"y+	c #A4A9A3",
"z+	c #9EA09D",
"A+	c #9B9C9B",
"B+	c #A6A8A5",
"C+	c #ABAFA9",
"D+	c #B0B7AD",
"E+	c #ABB7A8",
". . . . . . . . . . + @ # $ % & * = - ; > , . . . . . . . . . . ",
". . . . . . . . ' ) & ! ~ ! { ] ^ / ( _ : = < [ . . . . . . . . ",
". . . . . . } | 1 2 3 ! 4 5 6 7 8 9 0 a b c d = e f . . . . . . ",
". . . . . g h ! 3 ] i j k l l m m n o p q r s t a u v . . . . . ",
". . . . w x 3 { y z n l m n n o A A B C C D E F y s G H . . . . ",
". . . I J { ] K p m n o o A B B C D D L p p M N O i P Q R . . . ",
". . } S ^ T U C o A A B C C D L L p M M k N N V W X Y i Z ` . . ",
". .  .../ +.D B B C D D L p p M k k N V V W @.#.#.$.%.&.&.*.. . ",
". =.-._ y #.C D L L p M M k N N V W W @.#.$.$.;.>.>.,.'.).!.~.. ",
". {...: ].L p p M k k N V V W @.@.#.$.;.;.>.^.^.,././.(.F _.:.. ",
"` <.4 [.V M k N N V W W @.#.#.$.;.>.>.^.,.,./.E E }.|.|.1.2.3.` ",
"4.1 d 5.N V V W @.@.#.$.$.;.>.^.^.,././.E }.}.|.6.6.(.7.8.9.9.0.",
"a.b.c.|.W @.#.#.$.;.;.>.^.,.,./.E E }.|.|.6.(.(.7.d.d.q e.f.6 g.",
"h.1 Y >.$.$.;.>.^.^.,././.E }.}.|.6.6.(.7.7.d.q q e.8.z z 1.r i.",
"j.y k.>.>.^.,.,./.E E }.|.|.6.(.(.7.d.d.q e.e.8.z l.l.m.n.o.p.q.",
"r.s.t.,././.E }.}.|.6.6.(.7.7.d.q q e.8.8.z l.m.m.n.u.u.X v.7 w.",
"x.y.z.E }.|.|.6.(.(.7.d.d.q e.e.8.z z l.m.n.n.u.X X A.v.v.v.8 B.",
"C.D.t.6.6.(.7.7.d.q q e.8.8.z l.l.m.n.u.u.X A.A.v.E.E.o.%.o.F.v.",
"G.[.H.7.d.d.q e.e.8.z z l.m.n.n.u.X X A.v.v.E.o.o.%.I.I.j %.J.K.",
"L.&.0 e.e.8.8.z l.l.m.n.u.u.X A.A.v.E.E.o.%.%.M.N.O.P.B.B.o.Q.R.",
"S.+.0 j z l.m.m.n.u.X X A.v.v.E.o.o.%.I.I.j T.U.V.W.X.Y.E.B.1.Z.",
"`. +_..+m.n.u.X A.A.v.E.E.o.%.%.I.j j ].B.B.++@+#+$+%+&+v.B.m.*+",
". =+2.-+X A.v.v.E.o.o.%.I.I.j ].].B.1.1.O w.;+>+,+'+)+!+E.I.~+. ",
". {+]+^+f.X o.%.%.I.j j ].B.B.1.O O w.Q.5.5./+(+_+:+<+[+o.}+|+. ",
". . 1+9 9 1.%.j ].].B.1.1.O w.w.Q.5.2+2+J.3+3+4+5+6+7+v.A.8+. . ",
". . . 9+z.0+o.].1.O O w.Q.Q.5.2+J.J.3+a+a+F.'.'.f.A.n.X b+c+. . ",
". . . d+e+7 f+A.].Q.5.5.2+J.3+3+a+F.F.'.f.f.8 f.l.l.n.}.g+. . . ",
". . . . h+i+f.F.o.A.J.3+a+a+F.'.'.f.8 8 f+.+O q m.l.j+g+. . . . ",
". . . . . *+k+2+2+w.n.v.5.f.f.8 f+f+.+f.I.e.q l.z l+m+. . . . . ",
". . . . . . . n+o+O 1.].X z m.n.u.m.e.7.l.l.z }.p+q+. . . . . . ",
". . . . . . . . r+s+t+%.o.E.v.A.u.n.m.z 8.^.u+v+. . . . . . . . ",
". . . . . . . . . . w+x+y+z+E A+,.$.B+C+D+E+. . . . . . . . . . "};
