/* XPM */
static const char * knob14_xpm[] = {
"32 32 231 2",
"  	c None",
". 	c #A8B5A4",
"+ 	c #949F91",
"@ 	c #6F786C",
"# 	c #666F64",
"$ 	c #646D61",
"% 	c #656E62",
"& 	c #616A5D",
"* 	c #616A5E",
"= 	c #626B5F",
"- 	c #70796D",
"; 	c #8C9789",
"> 	c #A6B3A2",
", 	c #757E72",
"' 	c #5E675B",
") 	c #677063",
"! 	c #828F7D",
"~ 	c #838F7E",
"{ 	c #818E7C",
"] 	c #808E7B",
"^ 	c #6F7B6B",
"/ 	c #626C5F",
"( 	c #727B6F",
"_ 	c #A3AF9F",
": 	c #7F897C",
"< 	c #5B6358",
"[ 	c #7D8878",
"} 	c #859180",
"| 	c #84907F",
"1 	c #83907F",
"2 	c #83907E",
"3 	c #7E8B79",
"4 	c #5F695C",
"5 	c #747E71",
"6 	c #A7B4A3",
"7 	c #A4B1A0",
"8 	c #626A60",
"9 	c #727C6E",
"0 	c #869282",
"a 	c #869281",
"b 	c #859181",
"c 	c #84917F",
"d 	c #778472",
"e 	c #575F54",
"f 	c #9CA898",
"g 	c #61695E",
"h 	c #838F7F",
"i 	c #889383",
"j 	c #879383",
"k 	c #879382",
"l 	c #879282",
"m 	c #859281",
"n 	c #818E7D",
"o 	c #808D7B",
"p 	c #5A6357",
"q 	c #94A091",
"r 	c #A6B2A2",
"s 	c #626A5F",
"t 	c #889484",
"u 	c #899485",
"v 	c #899484",
"w 	c #849180",
"x 	c #828E7D",
"y 	c #606A5D",
"z 	c #9AA696",
"A 	c #697166",
"B 	c #869182",
"C 	c #8A9586",
"D 	c #8A9585",
"E 	c #899585",
"F 	c #596156",
"G 	c #A6B3A3",
"H 	c #838D80",
"I 	c #768073",
"J 	c #8B9687",
"K 	c #8B9686",
"L 	c #889483",
"M 	c #7A8675",
"N 	c #6D7569",
"O 	c #656D63",
"P 	c #8D9788",
"Q 	c #8C9788",
"R 	c #5E675A",
"S 	c #9CA999",
"T 	c #818B7E",
"U 	c #879183",
"V 	c #8D9889",
"W 	c #8A9686",
"X 	c #687065",
"Y 	c #71796E",
"Z 	c #8F998B",
"` 	c #8E998A",
" .	c #8E988A",
"..	c #5E665B",
"+.	c #A3B09F",
"@.	c #98A494",
"#.	c #767E73",
"$.	c #8F9A8B",
"%.	c #8D9789",
"&.	c #8B9787",
"*.	c #788374",
"=.	c #7E877A",
"-.	c #788175",
";.	c #8E988B",
">.	c #909A8C",
",.	c #8C9787",
"'.	c #687166",
").	c #727A6F",
"!.	c #919B8E",
"~.	c #919B8D",
"{.	c #8F9A8C",
"].	c #8E9889",
"^.	c #70786D",
"/.	c #929C8E",
"(.	c #6F766C",
"_.	c #939D8F",
":.	c #939C8F",
"<.	c #929C8F",
"[.	c #636B5F",
"}.	c #6C746A",
"|.	c #949D90",
"1.	c #939D90",
"2.	c #929B8E",
"3.	c #909B8C",
"4.	c #656D62",
"5.	c #6A7167",
"6.	c #959E91",
"7.	c #949E91",
"8.	c #909B8D",
"9.	c #636B60",
"0.	c #6C7369",
"a.	c #969F92",
"b.	c #959E92",
"c.	c #646B61",
"d.	c #70796E",
"e.	c #949D91",
"f.	c #949E90",
"g.	c #919D8E",
"h.	c #787F75",
"i.	c #97A093",
"j.	c #969F93",
"k.	c #838D7F",
"l.	c #798276",
"m.	c #676E65",
"n.	c #98A094",
"o.	c #97A094",
"p.	c #959F92",
"q.	c #676F64",
"r.	c #A3B0A0",
"s.	c #929B8F",
"t.	c #98A195",
"u.	c #96A093",
"v.	c #6D756A",
"w.	c #A4B1A1",
"x.	c #666D64",
"y.	c #99A196",
"z.	c #71796D",
"A.	c #97A394",
"B.	c #7C8578",
"C.	c #889085",
"D.	c #99A296",
"E.	c #98A194",
"F.	c #878A7E",
"G.	c #6F645B",
"H.	c #777066",
"I.	c #8C9689",
"J.	c #6E776C",
"K.	c #98A095",
"L.	c #9AA296",
"M.	c #81786E",
"N.	c #572421",
"O.	c #51201D",
"P.	c #461C19",
"Q.	c #5E4841",
"R.	c #62695F",
"S.	c #A0AD9C",
"T.	c #696F67",
"U.	c #9AA397",
"V.	c #99A195",
"W.	c #874A47",
"X.	c #923D3B",
"Y.	c #8B3B39",
"Z.	c #722C2B",
"`.	c #848479",
" +	c #676E64",
".+	c #96A192",
"++	c #9DA999",
"@+	c #70776E",
"#+	c #9AA297",
"$+	c #9BA397",
"%+	c #AF5B56",
"&+	c #E89896",
"*+	c #EAA2A0",
"=+	c #AF5754",
"-+	c #742D2B",
";+	c #86857A",
">+	c #70786E",
",+	c #8E958B",
"'+	c #9BA398",
")+	c #B08279",
"!+	c #FAC0BE",
"~+	c #FFE6E5",
"{+	c #D67471",
"]+	c #8E4946",
"^+	c #949C8F",
"/+	c #8F988C",
"(+	c #5F665D",
"_+	c #929E8F",
":+	c #7C8579",
"<+	c #6A6F67",
"[+	c #969E93",
"}+	c #B48F86",
"|+	c #CF8781",
"1+	c #B0746C",
"2+	c #97988C",
"3+	c #70766D",
"4+	c #697167",
"5+	c #A0AD9D",
"6+	c #6E766B",
"7+	c #666C64",
"8+	c #868D83",
"9+	c #8C9489",
"0+	c #6B7268",
"a+	c #848F81",
"b+	c #72796F",
"c+	c #6C7269",
"d+	c #6A7067",
"e+	c #6A7068",
"f+	c #71776E",
"g+	c #747C72",
"h+	c #71786E",
". . . . . . . . . . . + @ # $ % & * = - ; . . . . . . . . . . . ",
". . . . . . . . > , ' ) ! ~ ~ ! ! { { ] ^ / ( _ . . . . . . . . ",
". . . . . . . : < [ } } | | 1 2 ~ ! ! { { { 3 4 5 6 . . . . . . ",
". . . . . 7 8 9 0 0 a b } } c | 1 2 ~ ! ! { { { d e f . . . . . ",
". . . . _ g h i j k l 0 a m } } c | 1 2 ~ ! ! n { o p q . . . . ",
". . . r s t u v t i j k l 0 a m } } w | 1 2 ~ ! ! x { y z . . . ",
". . . A B C D E u v t i j k k 0 a m } } w | 1 2 ~ ! ! { F G . . ",
". . H I J J K C D E u v t L j j k 0 a m } } w | | 2 ~ ! M N . . ",
". 6 O P Q Q J J K C D E E v t L j j k 0 a a } } w | | 2 ~ R S . ",
". T U V V P Q Q J J K W C E E v t L i j k 0 a a b } w | | x X . ",
". Y Z `  .V V P Q Q J J K W C E E v t L i j k 0 a a b } w | ..+.",
"@.#.$.Z Z `  .V V %.Q Q &.J K W C D E v t t i j k 0 a a b } *.=.",
"-.;.>.>.$.Z Z `  .V V V Q Q ,.J K W C D E v t t i j k 0 a a b '.",
").!.~.~.>.>.{.Z Z ` ` ].V V Q Q ,.J J W C D E v t t i j k 0 a s ",
"^././.!.~.~.>.>.>.$.Z ` ` ].V V Q Q ,.J J W C D E v t t i j k ..",
"(._.:.<./.!.~.~.>.>.>.$.Z ` `  .V V Q Q ,.J J W C D E v v t i [.",
"}.|.1._.:.<./.2.~.~.3.>.>.$.Z ` `  .V V Q Q ,.J J W C D E u v 4.",
"5.6.7.|.|._.:.<././.~.~.8.>.>.$.Z ` `  .V V Q Q Q J J K C D E 9.",
"0.a.b.6.7.|.|._._.<././.~.~.8.>.>.$.Z ` `  .V V P Q Q J J K C c.",
"d.e.a.a.b.6.7.f.|.1._.<././.~.~.8.>.>.$.Z Z `  .V V P Q Q J J A ",
"g.h.i.j.j.a.b.6.7.f.|.1._.<././.~.~.~.>.>.$.Z Z `  .V V P Q k.l.",
". m.n.o.i.j.j.a.p.6.7.f.|.1._.<././.!.~.~.>.>.$.Z Z `  .V V q.r.",
". ( s.t.n.o.i.u.j.a.p.6.7.f.|.1._.:././.!.~.~.>.>.$.Z Z `  .v.. ",
". w.x.y.t.t.n.o.i.u.j.a.p.6.6.7.|.1._.:././.!.~.~.>.>.{.Z z.A.. ",
". . B.C.D.y.t.t.E.o.i.i.j.a.p.6.6.7.|.F.G.H.~./.!.~.~.>.I.J.. . ",
". . . x.K.L.D.D.t.t.E.o.o.i.j.a.p.6.M.N.O.P.Q.<.<./.!.~.R.7 . . ",
". . . S.T.U.U.L.D.D.V.t.E.o.o.i.j.a.W.X.Y.Z.O.`._.:.<. +.+. . . ",
". . . . ++@+#+$+U.#+D.D.V.t.E.o.o.i.%+&+*+=+-+;+|.1.x.` . . . . ",
". . . . . _ >+,+'+$+U.#+D.D.V.t.E.o.)+!+~+{+]+^+/+(+_+. . . . . ",
". . . . . . . :+<+[+'+$+U.#+D.D.V.t.E.}+|+1+2+3+4+r.. . . . . . ",
". . . . . . . . 5+6+7+8+'+$+U.#+D.D.V.t.9+T.0+A.. . . . . . . . ",
". . . . . . . . . . 6 a+Y b+c+d+e+f+g+h+:+_ . . . . . . . . . . "};
