/* XPM */
static const char * knob30_xpm[] = {
"32 32 218 2",
"  	c None",
". 	c #A8B5A4",
"+ 	c #A7B4A3",
"@ 	c #899486",
"# 	c #717A6F",
"$ 	c #757D73",
"% 	c #737A70",
"& 	c #6B7269",
"* 	c #6A7168",
"= 	c #6D736A",
"- 	c #727A70",
"; 	c #737B70",
"> 	c #8C9688",
", 	c #A2AE9E",
"' 	c #6F776C",
") 	c #666D64",
"! 	c #80877D",
"~ 	c #98A195",
"{ 	c #99A195",
"] 	c #99A296",
"^ 	c #9AA297",
"/ 	c #9AA397",
"( 	c #9BA398",
"_ 	c #7F857C",
": 	c #70786D",
"< 	c #A4B0A0",
"[ 	c #747D71",
"} 	c #676D64",
"| 	c #949A8E",
"1 	c #A97A72",
"2 	c #C6847D",
"3 	c #B18F86",
"4 	c #9BA397",
"5 	c #959D92",
"6 	c #676D65",
"7 	c #7D877A",
"8 	c #9DA999",
"9 	c #60675E",
"0 	c #878F83",
"a 	c #959E91",
"b 	c #8E5450",
"c 	c #CF6A67",
"d 	c #FEDEDC",
"e 	c #FBC4C2",
"f 	c #B3827A",
"g 	c #97A094",
"h 	c #8B9389",
"i 	c #71796E",
"j 	c #A3B09F",
"k 	c #99A596",
"l 	c #5F665D",
"m 	c #929C8F",
"n 	c #949D90",
"o 	c #8C9084",
"p 	c #712C2A",
"q 	c #AE5553",
"r 	c #EEA7A5",
"s 	c #EFA8A6",
"t 	c #B75A56",
"u 	c #97A093",
"v 	c #98A194",
"w 	c #70776D",
"x 	c #9CA999",
"y 	c #A0AC9C",
"z 	c #60675D",
"A 	c #929C8E",
"B 	c #939C8F",
"C 	c #939D8F",
"D 	c #898D81",
"E 	c #51201D",
"F 	c #742D2C",
"G 	c #903E3C",
"H 	c #98413F",
"I 	c #894240",
"J 	c #969F92",
"K 	c #969F93",
"L 	c #6A7068",
"M 	c #626A60",
"N 	c #8F998C",
"O 	c #929B8E",
"P 	c #5F4941",
"Q 	c #471D19",
"R 	c #54211E",
"S 	c #5A2320",
"T 	c #7A6860",
"U 	c #959F92",
"V 	c #9AA296",
"W 	c #788175",
"X 	c #868F82",
"Y 	c #909A8C",
"Z 	c #919B8D",
"` 	c #919B8E",
" .	c #736960",
"..	c #685950",
"+.	c #7F7D72",
"@.	c #949E91",
"#.	c #8A9287",
"$.	c #798276",
"%.	c #697167",
"&.	c #8F998B",
"*.	c #8F9A8C",
"=.	c #939D90",
"-.	c #96A093",
";.	c #99A196",
">.	c #686F66",
",.	c #727B6F",
"'.	c #8B9687",
").	c #8E998A",
"!.	c #98A094",
"~.	c #949C91",
"{.	c #A8B4A4",
"].	c #666E63",
"^.	c #8D9889",
"/.	c #8E988A",
"(.	c #8F9A8B",
"_.	c #949E90",
":.	c #666E64",
"<.	c #879184",
"[.	c #788275",
"}.	c #8C9788",
"|.	c #8D9789",
"1.	c #7E867C",
"2.	c #8A9587",
"3.	c #6C7469",
"4.	c #8D9788",
"5.	c #959E92",
"6.	c #6E776C",
"7.	c #8A9586",
"8.	c #8B9686",
"9.	c #909B8D",
"0.	c #6A7268",
"a.	c #656D62",
"b.	c #899585",
"c.	c #8A9585",
"d.	c #677064",
"e.	c #899484",
"f.	c #899485",
"g.	c #8C9787",
"h.	c #656E62",
"i.	c #889383",
"j.	c #889484",
"k.	c #8A9686",
"l.	c #909B8C",
"m.	c #6D756A",
"n.	c #61695E",
"o.	c #879382",
"p.	c #879383",
"q.	c #6E766B",
"r.	c #646C61",
"s.	c #869282",
"t.	c #879282",
"u.	c #8E9889",
"v.	c #6A7368",
"w.	c #859181",
"x.	c #869281",
"y.	c #747D72",
"z.	c #848F81",
"A.	c #737E6F",
"B.	c #859180",
"C.	c #808A7D",
"D.	c #A6B3A2",
"E.	c #5D655A",
"F.	c #84907F",
"G.	c #849180",
"H.	c #8B9787",
"I.	c #6B7368",
"J.	c #828E7D",
"K.	c #889483",
"L.	c #9FAC9B",
"M.	c #5D6559",
"N.	c #838F7E",
"O.	c #83907E",
"P.	c #697166",
"Q.	c #A2AF9E",
"R.	c #6F786C",
"S.	c #788473",
"T.	c #828F7E",
"U.	c #808A7C",
"V.	c #767F73",
"W.	c #5A6157",
"X.	c #818E7C",
"Y.	c #828F7D",
"Z.	c #859281",
"`.	c #62695F",
" +	c #9BA797",
".+	c #5F685C",
"++	c #83907F",
"@+	c #636B60",
"#+	c #9FAC9C",
"$+	c #95A091",
"%+	c #5B6458",
"&+	c #808D7B",
"*+	c #626A5F",
"=+	c #9AA696",
"-+	c #565F54",
";+	c #798574",
">+	c #818E7D",
",+	c #84917F",
"'+	c #7B8677",
")+	c #5C6359",
"!+	c #717A6E",
"~+	c #606B5D",
"{+	c #7E8C79",
"]+	c #828E7E",
"^+	c #5D665A",
"/+	c #A0AD9C",
"(+	c #616B5E",
"_+	c #74806F",
":+	c #727C6E",
"<+	c #6B7468",
"[+	c #A1AD9D",
"}+	c #869083",
"|+	c #6D776A",
"1+	c #60695D",
"2+	c #5F675B",
"3+	c #636C5F",
"4+	c #616A5D",
"5+	c #859082",
". . . . . . . . . . + @ # $ % & * = - ; > . . . . . . . . . . . ",
". . . . . . . . , ' ) ! ~ { ] ] ^ / ( ^ _ ) : < . . . . . . . . ",
". . . . . . + [ } | 1 2 3 ~ ~ { ] ] ^ / 4 ( 5 6 7 . . . . . . . ",
". . . . . 8 9 0 a b c d e f g ~ ~ { ] ] ^ / 4 ( h i j . . . . . ",
". . . . k l m n o p q r s t u g g v ~ { ] ] ^ / 4 ] w x . . . . ",
". . . y z A B C D E F G H I J K u g g v ~ { ] ] ^ / 4 L y . . . ",
". . + M N O A m B P Q R S T a U J K u g g v ~ { ] ] V ~ ) . . . ",
". . W X Y Z Z ` A Z  ...+.n @.a a U J K u g g v ~ ~ ] ] #.$.. . ",
". , %.&.*.Y Y Z Z ` A A B C =.n @.a a U J K -.u g v ~ ~ ;.>.j . ",
". ,.'.).&.&.*.Y Y Z Z ` A A B C =.n @.a a U J K -.u g !.~ ~.: . ",
"{.].^.^./.).&.&.(.Y Y Z Z ` A A B C =.n _.@.a U J K -.u g !.:.+ ",
"<.[.}.|.^.^./.).&.&.(.Y Y Z Z ` A A m C =.n _.@.a U J K K u 1.2.",
"3.'.'.}.}.4.^.^./.).&.&.(.Y Y Z Z Z A A m C =.n _.@.a 5.J J J 6.",
"].7.8.'.'.}.}.4.^.^./.).&.&.(.Y Y 9.Z Z A A m C =.n _.@.a 5.J 0.",
"a.b.c.7.8.'.'.}.}.4.^.^./.).).&.(.Y Y 9.Z Z A A m C C n n @.a >.",
"d.e.f.b.c.7.8.'.'.g.}.}.^.^./.).).&.(.Y Y 9.Z Z A A m B C n n * ",
"h.i.j.e.f.b.c.7.k.'.'.g.}.}.^.^./.).).&.(.Y Y l.Z Z O A m B C m.",
"n.o.p.i.j.e.e.b.c.7.k.'.'.g.}.}.^.^./.).).&.(.Y Y Y Z Z ` A m q.",
"r.s.t.o.p.i.j.j.e.b.c.7.k.'.'.g.}.}.^.^.u.).).&.&.*.Y Y Z Z ` : ",
"v.w.x.x.s.o.p.i.j.j.e.b.c.7.k.'.'.g.}.}.^.^.u.).).&.&.*.Y Y Z y.",
"z.A.B.w.x.x.s.o.p.i.j.j.e.b.c.7.k.8.'.g.}.}.^.^.^./.).&.&.(.C.2.",
"D.E.F.G.B.w.x.x.s.o.p.i.j.j.e.b.c.7.k.8.'.H.}.}.|.^.^./.).&.' . ",
". I.J.F.F.G.B.w.x.x.s.o.p.i.K.j.e.b.b.7.k.8.'.'.}.}.4.^.^.}.$.. ",
". L.M.N.O.F.F.G.B.w.x.x.s.o.p.i.K.j.e.b.b.7.k.8.'.'.}.}.4.P.Q.. ",
". . R.S.T.N.O.F.F.G.B.B.x.x.s.o.p.p.K.j.e.b.b.c.7.8.'.'.U.V.. . ",
". . D.W.X.Y.Y.N.O.F.F.G.B.B.Z.x.s.o.p.p.K.j.e.f.b.c.7.c.`.. . . ",
". . .  +.+X.J.Y.Y.N.O.++F.G.B.B.Z.x.s.o.o.p.i.j.e.f.b.@+#+. . . ",
". . . . $+%+&+X.J.Y.Y.N.O.++F.G.B.B.Z.x.s.t.o.p.i.p.*+=+. . . . ",
". . . . .  +-+;+X.X.>+Y.Y.N.O.++F.,+B.B.w.x.s.t.'+)+8 . . . . . ",
". . . . . . D.!+~+{+X.X.X.Y.Y.N.O.++F.,+B.B.]+^+# + . . . . . . ",
". . . . . . . . /+R.(+_+X.X.X.Y.Y.N.O.++:+E.<+[+. . . . . . . . ",
". . . . . . . . . . + }+|+1+2+^+3+4+@+I.5+D.. . . . . . . . . . "};
