/* XPM */
static const char * knob30_xpm[] = {
"32 32 250 2",
"  	c None",
". 	c #A8B5A4",
"+ 	c #A9B5A5",
"@ 	c #ACB5A9",
"# 	c #A8ADA6",
"$ 	c #A3A6A2",
"% 	c #A1A2A1",
"& 	c #A2A2A2",
"* 	c #A2A3A2",
"= 	c #A4A5A4",
"- 	c #A6A9A5",
"; 	c #ABB0AA",
"> 	c #AFB8AD",
", 	c #A9B6A6",
"' 	c #A9B5A6",
") 	c #A6ABA4",
"! 	c #9A9B9A",
"~ 	c #909090",
"{ 	c #8F8F8F",
"] 	c #919191",
"^ 	c #929292",
"/ 	c #959595",
"( 	c #A3A3A2",
"_ 	c #ADB2AB",
": 	c #ACB7A8",
"< 	c #A6ACA4",
"[ 	c #949494",
"} 	c #8A8A8A",
"| 	c #8B8B8B",
"1 	c #979797",
"2 	c #9D9D9D",
"3 	c #ADB3AB",
"4 	c #A8B4A5",
"5 	c #9B9D9A",
"6 	c #878787",
"7 	c #868686",
"8 	c #898989",
"9 	c #908B8B",
"0 	c #A17A79",
"a 	c #987473",
"b 	c #7A7878",
"c 	c #787878",
"d 	c #777777",
"e 	c #767676",
"f 	c #757575",
"g 	c #7B7B7B",
"h 	c #8E8E8E",
"i 	c #A3A5A2",
"j 	c #AAB6A7",
"k 	c #A8B3A5",
"l 	c #939493",
"m 	c #828282",
"n 	c #838383",
"o 	c #8D8D8D",
"p 	c #868080",
"q 	c #9F4A48",
"r 	c #EB8E8B",
"s 	c #FFD3D1",
"t 	c #D1817F",
"u 	c #7E7877",
"v 	c #797979",
"w 	c #888888",
"x 	c #8C8C8C",
"y 	c #9B9C9A",
"z 	c #ABB5A7",
"A 	c #909290",
"B 	c #7E7E7E",
"C 	c #818181",
"D 	c #735453",
"E 	c #923C3B",
"F 	c #DE8A87",
"G 	c #FDD8D6",
"H 	c #E99390",
"I 	c #956664",
"J 	c #7C7C7C",
"K 	c #7A7A7A",
"L 	c #939393",
"M 	c #9A9B99",
"N 	c #AAB5A7",
"O 	c #939692",
"P 	c #7D7D7D",
"Q 	c #848484",
"R 	c #624745",
"S 	c #6C2928",
"T 	c #92403F",
"U 	c #AF5654",
"V 	c #A74947",
"W 	c #875A5A",
"X 	c #9FA19E",
"Y 	c #9EA49C",
"Z 	c #716564",
"` 	c #471D1A",
" .	c #592220",
"..	c #682826",
"+.	c #682927",
"@.	c #7A6C6C",
"#.	c #808080",
"$.	c #7F7F7F",
"%.	c #A7ADA5",
"&.	c #A7B3A4",
"*.	c #747474",
"=.	c #6F6160",
"-.	c #4F2F2C",
";.	c #523532",
">.	c #706463",
",.	c #AAB5A6",
"'.	c #989E96",
").	c #717171",
"!.	c #858585",
"~.	c #A2A7A0",
"{.	c #A8B4A4",
"].	c #7F807E",
"^.	c #6D6D6D",
"/.	c #8E8E8D",
"(.	c #A2AB9F",
"_.	c #6B6B6B",
":.	c #A8B0A5",
"<.	c #949A92",
"[.	c #676767",
"}.	c #9CA29B",
"|.	c #858884",
"1.	c #636363",
"2.	c #989898",
"3.	c #969696",
"4.	c #737373",
"5.	c #919390",
"6.	c #797B79",
"7.	c #606060",
"8.	c #9A9A9A",
"9.	c #999999",
"0.	c #707070",
"a.	c #878887",
"b.	c #707170",
"c.	c #5D5D5D",
"d.	c #9C9C9C",
"e.	c #9B9B9B",
"f.	c #6E6F6E",
"g.	c #5A5A5A",
"h.	c #9F9F9F",
"i.	c #9E9E9E",
"j.	c #6A6A6A",
"k.	c #575757",
"l.	c #A1A1A1",
"m.	c #A0A0A0",
"n.	c #7E807E",
"o.	c #797C78",
"p.	c #545454",
"q.	c #6F6F6F",
"r.	c #A4A4A4",
"s.	c #A3A3A3",
"t.	c #646464",
"u.	c #888E87",
"v.	c #515151",
"w.	c #5F5F5F",
"x.	c #A5A5A5",
"y.	c #666666",
"z.	c #616161",
"A.	c #91978F",
"B.	c #9BA398",
"C.	c #525252",
"D.	c #4F4F4F",
"E.	c #A8A8A8",
"F.	c #A7A7A7",
"G.	c #A6A6A6",
"H.	c #9FA89D",
"I.	c #A6B3A2",
"J.	c #616260",
"K.	c #4B4B4B",
"L.	c #AAAAAA",
"M.	c #A9A9A9",
"N.	c #6C6C6B",
"O.	c #A7B4A4",
"P.	c #848A82",
"Q.	c #484848",
"R.	c #4D4D4D",
"S.	c #ABABAB",
"T.	c #585858",
"U.	c #898E88",
"V.	c #A3AF9F",
"W.	c #565656",
"X.	c #464646",
"Y.	c #656565",
"Z.	c #ADADAD",
"`.	c #ACACAC",
" +	c #535353",
".+	c #A5B0A1",
"++	c #878D85",
"@+	c #444444",
"#+	c #AFAFAF",
"$+	c #AEAEAE",
"%+	c #505050",
"&+	c #8F948D",
"*+	c #676966",
"=+	c #404040",
"-+	c #434343",
";+	c #B0B0B0",
">+	c #727471",
",+	c #A7B4A3",
"'+	c #A1AC9D",
")+	c #565856",
"!+	c #3D3D3D",
"~+	c #424242",
"{+	c #B2B2B2",
"]+	c #B1B1B1",
"^+	c #4A4A4A",
"/+	c #494949",
"(+	c #616261",
"_+	c #A3AFA0",
":+	c #9CA799",
"<+	c #545553",
"[+	c #3B3B3B",
"}+	c #3C3C3C",
"|+	c #5E5E5E",
"1+	c #B3B3B3",
"2+	c #5C5C5C",
"3+	c #454545",
"4+	c #5E5F5E",
"5+	c #A0AA9C",
"6+	c #A0AB9D",
"7+	c #5E605E",
"8+	c #393939",
"9+	c #414141",
"0+	c #686A68",
"a+	c #A2AC9E",
"b+	c #A5B2A2",
"c+	c #7F847D",
"d+	c #363636",
"e+	c #373737",
"f+	c #383838",
"g+	c #595959",
"h+	c #6C6C6C",
"i+	c #474747",
"j+	c #848982",
"k+	c #A6B2A2",
"l+	c #A1AD9E",
"m+	c #777C75",
"n+	c #494A49",
"o+	c #353535",
"p+	c #4E4F4E",
"q+	c #7A7F79",
"r+	c #A5B2A1",
"s+	c #90988D",
"t+	c #727771",
"u+	c #595B59",
"v+	c #4C4D4C",
"w+	c #4D4D4C",
"x+	c #5E605D",
"y+	c #767A74",
"z+	c #919A8F",
"A+	c #A4B0A0",
". . . . . . . . . . + @ # $ % & * = - ; > , . . . . . . . . . . ",
". . . . . . . . ' ) ! ~ { { ~ ~ ] ] ^ ^ / ( _ : . . . . . . . . ",
". . . . . . . < [ } } | ^ [ ^ ~ { ^ 1 1 ~ ~ ] 2 3 + . . . . . . ",
". . . . . 4 5 6 7 8 9 0 a b c d e e f g | / ~ h ~ i j . . . . . ",
". . . . k l m n o p q r s t u v v c d e e f w [ x x y z . . . . ",
". . . 4 A B C h n D E F G H I J g K K v c d d g L | } M N . . . ",
". . . O g P x Q n R S T U V W B P P J g K K v c v ] w 6 X . . . ",
". . Y c c } 6 6 7 Z `  ...+.@.C #.$.B B P J g g K K { Q 7 %.. . ",
". &.$.*.Q | } 8 w 6 =.-.;.>.Q n m C C #.$.B B P J g #.o m { ,.. ",
". '.).f { o x | | } 8 w w 6 7 !.!.Q n m m C #.$.B B P x #.$.~.. ",
"{.].^.n ~ { h h o x | | } 8 w w 6 7 !.!.Q n m m C #.$.$.| J /.{.",
"(.^._.~ ^ ^ ] ~ { { h o x | | } 8 w w 6 7 !.!.Q n m m C o v J :.",
"<.[.)./ / [ L ^ ^ ] ~ { { h o x x | } 8 8 w 6 7 7 !.Q n } P e }.",
"|.1.g 2.1 3./ / [ L ^ ^ ] ~ { { h o x x | } 8 8 w 6 7 7 7 C 4.5.",
"6.7.C 8.9.9.2.1 3.3./ [ L L ^ ] ~ ~ { h o o x | } } 8 w 6 C 0.a.",
"b.c.!.d.d.e.8.9.9.2.1 3.3./ [ L L ^ ] ~ ~ { h o o x | } } n ^.#.",
"f.g.m h.i.2 2 d.e.8.8.9.2.1 1 3./ [ [ L ^ ] ~ ~ { h o o x Q j.P ",
"b.k.P l.m.m.h.i.2 2 d.e.8.8.9.2.1 1 3./ [ [ L ^ ] ] ~ { h B [.n.",
"o.p.q.r.s.& l.l.m.h.i.i.2 d.e.8.8.9.2.1 1 3./ [ [ L ^ ] ] f t.|.",
"u.v.w.s.x.r.r.s.& l.l.m.h.i.i.2 d.e.e.8.9.2.2.1 3./ / [ [ y.z.A.",
"B.C.D.^ E.F.G.x.x.r.s.& l.l.m.h.i.i.2 d.e.e.8.9.2.2.1 3.8 c.w.H.",
"I.J.K.^.L.M.E.E.F.G.x.x.r.s.& & l.m.h.h.i.2 d.d.e.8.9.2.0.g.N.O.",
". P.Q.R.d.S.S.L.M.E.E.F.G.x.x.r.s.& & l.m.h.h.i.2 d.d.h T.k.U.. ",
". V.W.X.Y.S.Z.`.`.S.L.M.M.E.F.G.G.x.r.s.s.& l.m.h.h.d.y. +z..+. ",
". . ++@+@+J #+#+$+Z.`.`.S.L.M.M.E.F.G.G.x.r.s.s.& m.*.%+v.&+. . ",
". . I.*+=+-+n ;+;+;+#+$+Z.Z.`.S.L.M.M.E.F.G.G.x.s.g R.R.>+,+. . ",
". . . '+)+!+~+v ;+{+]+;+;+#+$+Z.Z.`.S.L.L.M.E.s.e ^+/+(+_+. . . ",
". . . . :+<+[+}+|+i.1+1+{+]+;+;+#+$+Z.Z.`.L.L 2+3+3+4+5+. . . . ",
". . . . . 6+7+8+8+=+y.3.S.1+1+{+]+]+#+G.x z.~+9+-+0+a+. . . . . ",
". . . . . . b+c+-+d+e+f+@+g+h+c 4.j.k.i+}+!+!+R.j+k+. . . . . . ",
". . . . . . . . l+m+n+d+o+o+d+d+e+f+f+8+}+p+q+l+. . . . . . . . ",
". . . . . . . . . . r+s+t+u+v+X.X.w+x+y+z+A+. . . . . . . . . . "};
