/* XPM */
static const char * knob4_xpm[] = {
"32 32 247 2",
"  	c None",
". 	c #A8B5A4",
"+ 	c #A7B4A3",
"@ 	c #9FA89C",
"# 	c #90958E",
"$ 	c #858784",
"% 	c #7E7F7E",
"& 	c #7C7D7C",
"* 	c #848584",
"= 	c #8C8F8B",
"- 	c #989D97",
"; 	c #A5ADA3",
"> 	c #A8B4A4",
", 	c #A4AFA0",
"' 	c #8C918A",
") 	c #6D6E6D",
"! 	c #626262",
"~ 	c #636363",
"{ 	c #666666",
"] 	c #696969",
"^ 	c #6C6C6C",
"/ 	c #6F6F6F",
"( 	c #727272",
"_ 	c #757575",
": 	c #787878",
"< 	c #7D7D7D",
"[ 	c #8C8C8C",
"} 	c #9FA49E",
"| 	c #A8B4A5",
"1 	c #A7B3A3",
"2 	c #8F968D",
"3 	c #646464",
"4 	c #595959",
"5 	c #5C5C5C",
"6 	c #616161",
"7 	c #848484",
"8 	c #898989",
"9 	c #8A8A8A",
"0 	c #878787",
"a 	c #858585",
"b 	c #818181",
"c 	c #7B7B7B",
"d 	c #7E7E7E",
"e 	c #A4A9A3",
"f 	c #A4B0A0",
"g 	c #757874",
"h 	c #545454",
"i 	c #555555",
"j 	c #5D5D5D",
"k 	c #797979",
"l 	c #949494",
"m 	c #999999",
"n 	c #989898",
"o 	c #969696",
"p 	c #939393",
"q 	c #919191",
"r 	c #8E8E8E",
"s 	c #838383",
"t 	c #9C9E9B",
"u 	c #AAB5A6",
"v 	c #A1AD9E",
"w 	c #686A68",
"x 	c #4E4E4E",
"y 	c #525252",
"z 	c #A0A0A0",
"A 	c #9D9D9D",
"B 	c #9B9B9B",
"C 	c #8D8D8D",
"D 	c #868686",
"E 	c #989998",
"F 	c #AAB5A7",
"G 	c #656765",
"H 	c #4A4A4A",
"I 	c #4F4F4F",
"J 	c #7F7F7F",
"K 	c #A3A3A3",
"L 	c #A2A2A2",
"M 	c #828282",
"N 	c #7E7A79",
"O 	c #8C8B8B",
"P 	c #8B8B8B",
"Q 	c #9B9C9B",
"R 	c #70726E",
"S 	c #474747",
"T 	c #4B4B4B",
"U 	c #A7A7A7",
"V 	c #A5A5A5",
"W 	c #9E9E9E",
"X 	c #8F8F8F",
"Y 	c #766D6D",
"Z 	c #59312E",
"` 	c #7C302F",
" .	c #9E4846",
"..	c #987D7C",
"+.	c #A2A4A2",
"@.	c #A9B5A5",
"#.	c #8B9289",
"$.	c #464646",
"%.	c #AAAAAA",
"&.	c #A8A8A8",
"*.	c #4E2D2A",
"=.	c #642624",
"-.	c #A44D4B",
";.	c #E89391",
">.	c #D87977",
",.	c #8E8D8D",
"'.	c #909090",
").	c #A9B0A8",
"!.	c #A3AF9F",
"~.	c #515251",
"{.	c #424242",
"].	c #5F5F5F",
"^.	c #A9A9A9",
"/.	c #979797",
"(.	c #929292",
"_.	c #817E7D",
":.	c #431B18",
"<.	c #6B2928",
"[.	c #BC625F",
"}.	c #FEE3E2",
"|.	c #FABAB8",
"1.	c #817777",
"2.	c #9A9A9A",
"3.	c #ABB6A7",
"4.	c #81877F",
"5.	c #3F3F3F",
"6.	c #444444",
"7.	c #ADADAD",
"8.	c #ABABAB",
"9.	c #A6A6A6",
"0.	c #A1A1A1",
"a.	c #9C9C9C",
"b.	c #4B2926",
"c.	c #652725",
"d.	c #A64C4A",
"e.	c #EB9E9C",
"f.	c #D98280",
"g.	c #ABB0AA",
"h.	c #555655",
"i.	c #3E3E3E",
"j.	c #AFAFAF",
"k.	c #959595",
"l.	c #888888",
"m.	c #78706F",
"n.	c #582C2A",
"o.	c #803231",
"p.	c #A34C4A",
"q.	c #8B706F",
"r.	c #777777",
"s.	c #A0A1A0",
"t.	c #AAB6A6",
"u.	c #98A195",
"v.	c #3D3D3D",
"w.	c #B0B0B0",
"x.	c #A4A4A4",
"y.	c #9F9F9F",
"z.	c #7D7776",
"A.	c #7C7C7C",
"B.	c #7A7A7A",
"C.	c #AFB7AC",
"D.	c #7F847D",
"E.	c #393939",
"F.	c #454545",
"G.	c #AEAEAE",
"H.	c #AAAFA8",
"I.	c #696D68",
"J.	c #565656",
"K.	c #B3B3B3",
"L.	c #A7A9A6",
"M.	c #5C5E5B",
"N.	c #383838",
"O.	c #676767",
"P.	c #B1B1B1",
"Q.	c #ACACAC",
"R.	c #A5A5A4",
"S.	c #555754",
"T.	c #373737",
"U.	c #545553",
"V.	c #363636",
"W.	c #6E6E6E",
"X.	c #767676",
"Y.	c #5A5C59",
"Z.	c #B4B4B4",
"`.	c #808080",
" +	c #A3A4A3",
".+	c #676B66",
"++	c #353535",
"@+	c #B2B2B2",
"#+	c #A5A7A4",
"$+	c #7D827B",
"%+	c #343434",
"&+	c #A7ACA5",
"*+	c #97A094",
"=+	c #ACB4A9",
"-+	c #4F504F",
";+	c #A9B6A6",
">+	c #7D837B",
",+	c #A5A9A3",
"'+	c #A2AE9F",
")+	c #484948",
"!+	c #ABB5A7",
"~+	c #878E85",
"{+	c #3A3A3A",
"]+	c #686868",
"^+	c #676A67",
"/+	c #999B99",
"(+	c #A3AFA0",
"_+	c #5C5D5B",
":+	c #3C3C3C",
"<+	c #404040",
"[+	c #6B6B6B",
"}+	c #909190",
"|+	c #A0AB9D",
"1+	c #5C5D5C",
"2+	c #414141",
"3+	c #585858",
"4+	c #8C8D8C",
"5+	c #A9B3A6",
"6+	c #6B6E6A",
"7+	c #434343",
"8+	c #494949",
"9+	c #717171",
"0+	c #919291",
"a+	c #A9B4A6",
"b+	c #A6B3A3",
"c+	c #898F87",
"d+	c #4C4C4C",
"e+	c #747474",
"f+	c #6D6D6D",
"g+	c #9EA29C",
"h+	c #A2AD9F",
"i+	c #838982",
"j+	c #5D5E5D",
"k+	c #4D4D4D",
"l+	c #5B5B5B",
"m+	c #5E5E5E",
"n+	c #797A79",
"o+	c #949993",
"p+	c #A8B2A4",
"q+	c #9AA398",
"r+	c #868B84",
"s+	c #767875",
"t+	c #6C6D6B",
"u+	c #6A6A6A",
"v+	c #737372",
"w+	c #80827F",
"x+	c #A0A89E",
". . . . . . . . . . + @ # $ % & % * = - ; > . . . . . . . . . . ",
". . . . . . . . , ' ) ! ~ { ] ^ / ( _ : < [ } | . . . . . . . . ",
". . . . . . 1 2 3 4 5 6 / < 7 8 9 0 a b c d b [ e . . . . . . . ",
". . . . . f g h i j k l m n o p q r [ 9 [ 9 a s 0 t u . . . . . ",
". . . . v w x y / n z A B n o p q r [ 8 0 7 8 C D 8 E F . . . . ",
". . . f G H I J K L z A B n o p q r [ 9 0 a M N O 9 P Q F . . . ",
". . + R S T b U V L z W B m o l q X [ 9 0 Y Z `  ...C C +.@.. . ",
". . #.$.$.c %.&.V K z W B m o l q X [ 9 0 *.=.-.;.>.,.C '.).. . ",
". !.~.{.].^.%.&.V K z W B m /.l (.X C 9 _.:.<.[.}.|.1.l X 2.3.. ",
". 4.5.6.n 7.8.&.9.K 0.W a.m /.l (.X C 9 0 b.c.d.e.f.k D p q g.. ",
"1 h.i.6 j.7.8.&.9.K 0.W a.m /.k.(.X C P l.m.n.o.p.q.k r.l q s.t.",
"u.i.v.C w.7.8.&.9.x.0.y.a.2./.k.(.'.C P l.D M z.d A.B.r.l.q l C.",
"D.E.F.&.w.G.8.^.9.x.0.y.a.2./.k.(.'.C P 8 D 7 b J A.B.r.B.n (.H.",
"I.E.J.K.w.G.8.^.9.x.0.y.a.2.n k.p '.r P 8 D 7 b J A.B.r._ o (.L.",
"M.N.O.K.P.G.Q.^.U x.L y.A 2.n k.p '.r P 8 0 7 b J < B.: _ q q R.",
"S.T./ K.P.G.Q.^.U x.L y.A 2.n o p q r [ 8 0 7 M J < B.: _ X '.K ",
"U.V.W.K.P.G.Q.^.U V L z A B n o p q r [ 8 0 7 M J < c : X.X '.L ",
"Y.V.].Z.P.j.Q.%.U V L z A B n o p q r [ 9 0 a M `.< c : X.q X  +",
".+++x @+P.j.Q.%.U V K z W B m o l q X [ 9 0 a M `.< c : X.l r #+",
"$+%+i.9.@+j.7.%.&.V K z W B m o l q X [ 9 l.a s `.d c k d (.r &+",
"*+N.T.9 @+j.7.%.&.V K z W B m /.l (.X C 9 l.a s `.d c k [ 9 r =+",
"1 -+V.i w.j.7.8.&.9.K 0.W a.m /.l (.X C 9 l.a s `.d A.k q 8 n ;+",
". >+V.E.r w.7.8.&.9.K 0.W a.m /.k.(.'.C P l.D s b d A.0 l.8 ,+. ",
". '+)+N.x &.7.8.&.9.x.0.y.a.2./.k.(.'.C P l.D s b d J r a q !+. ",
". . ~+{+{+]+8.8.^.9.x.0.y.a.2./.k.(.'.C P 8 D 7 b J '.b a &+. . ",
". . 1 ^+{+v.( ^.^.9.x.0.y.A 2.n k.p '.r P 8 D 7 M X J `./+@.. . ",
". . . (+_+:+<+[+K U x.L y.A 2.n k.p '.r P 8 0 0 C A.< }+u . . . ",
". . . . |+1+i.2+3+'.K L y.A 2.n o p q r [ 9 [ b X.k 4+5+. . . . ",
". . . . . , 6+7+6.8+3 D 2.A B n o p q q C `.9+( X.0+a+. . . . . ",
". . . . . . b+c+h $.8+d+i O.e+B.A.c _ f+]+[+W.c g+> . . . . . . ",
". . . . . . . . h+i+j+k+I y i 3+l+m+6 3 ]+n+o+p+. . . . . . . . ",
". . . . . . . . . . 1 q+r+s+t+]+u+v+w+# x+> . . . . . . . . . . "};
