/* XPM */
static const char * knob2_xpm[] = {
"32 32 251 2",
"  	c None",
". 	c #A8B5A4",
"+ 	c #A8B4A4",
"@ 	c #A3ABA0",
"# 	c #989D96",
"$ 	c #90928F",
"% 	c #8E8F8D",
"& 	c #8D8D8D",
"* 	c #8F908F",
"= 	c #939493",
"- 	c #9A9C99",
"; 	c #A2A7A1",
"> 	c #A9B2A7",
", 	c #A9B5A5",
"' 	c #A6B2A3",
") 	c #959B94",
"! 	c #7F807F",
"~ 	c #747474",
"{ 	c #757575",
"] 	c #777777",
"^ 	c #7A7A7A",
"/ 	c #7C7C7C",
"( 	c #7F7F7F",
"_ 	c #828282",
": 	c #848484",
"< 	c #878787",
"[ 	c #8B8B8B",
"} 	c #989898",
"| 	c #A6ABA5",
"1 	c #ABB5A7",
"2 	c #989E96",
"3 	c #767676",
"4 	c #6B6B6B",
"5 	c #6E6E6E",
"6 	c #727272",
"7 	c #7D7D7D",
"8 	c #868686",
"9 	c #888888",
"0 	c #898989",
"a 	c #8C8C8C",
"b 	c #8A8A8A",
"c 	c #999998",
"d 	c #AAB0A8",
"e 	c #A6B1A2",
"f 	c #838682",
"g 	c #666666",
"h 	c #676767",
"i 	c #838383",
"j 	c #909090",
"k 	c #8F8F8F",
"l 	c #858585",
"m 	c #807E7E",
"n 	c #7E6867",
"o 	c #957171",
"p 	c #918A8A",
"q 	c #8E8E8E",
"r 	c #919191",
"s 	c #A3A6A3",
"t 	c #AAB5A7",
"u 	c #A3AEA0",
"v 	c #747573",
"w 	c #606060",
"x 	c #636363",
"y 	c #939393",
"z 	c #817F7F",
"A 	c #603937",
"B 	c #8C3837",
"C 	c #CD6764",
"D 	c #D87875",
"E 	c #8E8080",
"F 	c #A1A2A1",
"G 	c #ADB7A9",
"H 	c #A4AFA1",
"I 	c #717371",
"J 	c #5B5B5B",
"K 	c #626262",
"L 	c #979797",
"M 	c #959595",
"N 	c #929292",
"O 	c #695857",
"P 	c #57221F",
"Q 	c #974241",
"R 	c #F0ABA8",
"S 	c #FFEBEA",
"T 	c #B77A79",
"U 	c #7B7B7B",
"V 	c #A2A3A2",
"W 	c #ACB7A8",
"X 	c #A7B3A3",
"Y 	c #797C79",
"Z 	c #575757",
"` 	c #5C5C5C",
" .	c #9C9C9C",
"..	c #9A9A9A",
"+.	c #969696",
"@.	c #665452",
"#.	c #4E1F1C",
"$.	c #833635",
"%.	c #D4817E",
"&.	c #F8BEBC",
"*.	c #B97371",
"=.	c #797979",
"-.	c #A7A9A6",
";.	c #A9B6A5",
">.	c #90968D",
",.	c #555555",
"'.	c #9F9F9F",
").	c #9D9D9D",
"!.	c #9B9B9B",
"~.	c #999999",
"{.	c #79706F",
"].	c #451D1A",
"^.	c #652725",
"/.	c #933E3C",
"(.	c #B24E4C",
"_.	c #8D6C6B",
":.	c #787878",
"<.	c #949494",
"[.	c #ADB3AC",
"}.	c #A4B0A1",
"|.	c #616160",
"1.	c #515151",
"2.	c #A1A1A1",
"3.	c #746968",
"4.	c #583937",
"5.	c #6A3A38",
"6.	c #7F6464",
"7.	c #9E9E9E",
"8.	c #ACB7A9",
"9.	c #888E86",
"0.	c #4D4D4D",
"a.	c #525252",
"b.	c #A4A4A4",
"c.	c #A2A2A2",
"d.	c #A0A0A0",
"e.	c #818181",
"f.	c #ADB2AB",
"g.	c #A6B3A3",
"h.	c #606260",
"i.	c #4B4B4B",
"j.	c #A7A7A7",
"k.	c #A5A5A5",
"l.	c #A3A3A3",
"m.	c #808080",
"n.	c #7E7E7E",
"o.	c #A2A2A1",
"p.	c #AAB6A6",
"q.	c #9AA497",
"r.	c #494949",
"s.	c #A9A9A9",
"t.	c #A6A6A6",
"u.	c #AFB7AD",
"v.	c #848B82",
"w.	c #444444",
"x.	c #535353",
"y.	c #AAAAAA",
"z.	c #A8A8A8",
"A.	c #A9AFA8",
"B.	c #6F736E",
"C.	c #434343",
"D.	c #ADADAD",
"E.	c #ABABAB",
"F.	c #A2A5A1",
"G.	c #5E605E",
"H.	c #414141",
"I.	c #6F6F6F",
"J.	c #AEAEAE",
"K.	c #ACACAC",
"L.	c #9D9E9D",
"M.	c #565856",
"N.	c #3F3F3F",
"O.	c #737373",
"P.	c #AFAFAF",
"Q.	c #999A99",
"R.	c #545554",
"S.	c #3D3D3D",
"T.	c #B0B0B0",
"U.	c #5B5D5B",
"V.	c #3B3B3B",
"W.	c #696969",
"X.	c #B2B2B2",
"Y.	c #9A9B9A",
"Z.	c #666A66",
"`.	c #3A3A3A",
" +	c #595959",
".+	c #B1B1B1",
"++	c #9D9F9C",
"@+	c #7E847C",
"#+	c #383838",
"$+	c #97A194",
"%+	c #393939",
"&+	c #B3B3B3",
"*+	c #AAB2A7",
"=+	c #A7B4A3",
"-+	c #525351",
";+	c #373737",
">+	c #5E5E5E",
",+	c #8E8F8E",
"'+	c #7E857D",
")+	c #353535",
"!+	c #9FA49E",
"~+	c #A4B0A0",
"{+	c #464746",
"]+	c #363636",
"^+	c #A9B4A6",
"/+	c #838A81",
"(+	c #6C6C6C",
"_+	c #9FA59E",
":+	c #A6B3A2",
"<+	c #60625F",
"[+	c #707070",
"}+	c #8D8F8D",
"|+	c #A1AD9E",
"1+	c #525352",
"2+	c #808180",
"3+	c #A8B2A4",
"4+	c #9DA79A",
"5+	c #515351",
"6+	c #656565",
"7+	c #7C7D7C",
"8+	c #A5AFA2",
"9+	c #A0AC9D",
"0+	c #616360",
"a+	c #3E3E3E",
"b+	c #5D5D5D",
"c+	c #646464",
"d+	c #838582",
"e+	c #A7B2A3",
"f+	c #838982",
"g+	c #4A4A4A",
"h+	c #404040",
"i+	c #686868",
"j+	c #959B93",
"k+	c #A2AD9F",
"l+	c #7C827B",
"m+	c #464646",
"n+	c #484848",
"o+	c #505050",
"p+	c #565656",
"q+	c #888D87",
"r+	c #A5B0A2",
"s+	c #A5B1A1",
"t+	c #969F94",
"u+	c #7D827C",
"v+	c #6A6D69",
"w+	c #5E5F5E",
"x+	c #5B5B5A",
"y+	c #646564",
"z+	c #727572",
"A+	c #868B84",
"B+	c #9AA298",
". . . . . . . . . . + @ # $ % & * = - ; > , . . . . . . . . . . ",
". . . . . . . . ' ) ! ~ { ] ^ / ( _ : < [ } | 1 . . . . . . . . ",
". . . . . . + 2 3 4 5 6 7 8 9 0 [ a a a 9 b & c d . . . . . . . ",
". . . . . e f g h 5 i j k a 0 < l i m n o p q & r s t . . . . . ",
". . . . u v w x / y y r k & [ 9 8 z A B C D E y k r F G . . . . ",
". . . H I J K < } L M N j q a b < O P Q R S T U y r N V W . . . ",
". . X Y Z ` 0  ...} +.y r k & [ 9 @.#.$.%.&.*.=.] k N N -.;.. . ",
". . >.,.,.i '.).!.~.L M N j q a b {.].^./.(._.^ :.3 y r <.[.. . ",
". }.|.1.5 2.2.'. ...} +.<.r k & [ 0 3.4.5.6.7 U =.] ] L r 7.8.. ",
". 9.0.a.} b.c.d.7.!.~.L M N j q a b < l i e.( / ^ :.3 l y N f.. ",
"g.h.i.4 j.k.l.2.'. ...} +.<.r k & [ 0 8 : _ m.n.U =.] { M j o.p.",
"q.i.r.k s.t.b.c.d.7.!.~.L M y j q a b 9 l i e.( 7 ^ :.3 b k y u.",
"v.w.x.j.y.z.k.l.2.'. ...} +.<.r k & [ 0 8 : _ m.n.U =.] / <.k A.",
"B.C.w D.E.s.t.b.c.d.7.!.~.L M y j q a b 9 l i e.( 7 ^ :.3 <.& F.",
"G.H.I.J.K.y.z.k.l.2.'.)...} +.<.N k & [ 0 < : _ m.n.U =.] r a L.",
"M.N.O.P.D.E.s.t.b.c.d.7.!.~.L M y j q a b 9 l i e.( 7 ^ :.j b Q.",
"R.S.~ T.J.K.y.z.k.l.2.'.)...} +.<.N k & [ 0 < : _ m.n./ =.& 9 ~.",
"U.V.W.X.P.D.E.s.j.b.c.d.7. .~.L M y r q a b 9 l i e.( 7 ^ a 8 Y.",
"Z.`. +X..+J.K.y.z.k.l.2.'.)...} +.<.N k & [ 0 < : _ m.n./ q : ++",
"@+#+C.E.X.P.D.E.s.j.b.c.d.7. .~.L M y r q a b 9 8 i e.( : 9 i ; ",
"$+`.%+k &+.+J.K.y.z.t.l.2.'.).!.} +.<.N j & [ 0 < : _ m.& n.i *+",
"=+-+;+>+&+X.T.D.E.s.j.b.c.d.7. .~.L M y r q a b 9 8 i _ [ / ,+, ",
". '+)+V.N &+.+J.K.y.z.t.l.2.'.).!.} +.<.N j & [ 0 < l q ^ U !+. ",
". ~+{+]+1.D.X.T.D.E.s.j.k.c.d.7. ...L M y r q a b 9 0 _ 3 l ^+. ",
". . /+]+]+(+X..+P.K.y.z.t.l.2.'.).!.} +.<.N j & [ b 8 6 { _+. . ",
". . :+<+)+%+:.T.T.D.E.s.j.k.c.d.7. ...L M y r k & b 5 [+}++ . . ",
". . . |+1+)+%+4 s.P.K.y.z.t.b.2.'.).!.~.+.<.N r : 4 (+2+3+. . . ",
". . . . 4+5+]+%+a.N K.E.s.j.k.c.d.7. ...L M k ~ 6+h 7+8+. . . . ",
". . . . . 9+0+%+`.a+b+9 2.j.t.b.2.'.).} b 6 w w c+d+e+. . . . . ",
". . . . . . :+f+g+V.S.h+i.` 5 ~ ~ I.i+` Z  +` W.j++ . . . . . . ",
". . . . . . . . k+l+x.H.h+C.m+n+i.0.o+a.p+h q+r+. . . . . . . . ",
". . . . . . . . . . s+t+u+v+w+x+` y+z+A+B+X . . . . . . . . . . "};
