/* XPM */
static const char * knob11_xpm[] = {
"32 32 227 2",
"  	c None",
". 	c #A8B5A4",
"+ 	c #929D8E",
"@ 	c #747E71",
"# 	c #6C7569",
"$ 	c #667063",
"% 	c #616B5E",
"& 	c #5D6659",
"* 	c #5E685B",
"= 	c #656E62",
"- 	c #717B6E",
"; 	c #848F81",
"> 	c #A5B1A1",
", 	c #A2AF9E",
"' 	c #5F685B",
") 	c #6C7868",
"! 	c #808D7B",
"~ 	c #808E7B",
"{ 	c #818E7C",
"] 	c #748070",
"^ 	c #5B6358",
"/ 	c #697266",
"( 	c #9BA797",
"_ 	c #7A8377",
": 	c #5B6458",
"< 	c #7D8A78",
"[ 	c #818E7D",
"} 	c #828E7D",
"| 	c #828F7D",
"1 	c #828F7E",
"2 	c #60695D",
"3 	c #70796D",
"4 	c #A7B4A3",
"5 	c #A1AE9D",
"6 	c #646C61",
"7 	c #758171",
"8 	c #838F7E",
"9 	c #83907E",
"0 	c #83907F",
"a 	c #84907F",
"b 	c #7B8777",
"c 	c #596157",
"d 	c #9BA798",
"e 	c #A0AD9C",
"f 	c #575F55",
"g 	c #84917F",
"h 	c #849180",
"i 	c #859180",
"j 	c #5A6257",
"k 	c #949F91",
"l 	c #A4B1A0",
"m 	c #585F55",
"n 	c #818D7C",
"o 	c #859181",
"p 	c #859281",
"q 	c #869281",
"r 	c #5C6459",
"s 	c #95A091",
"t 	c #636B61",
"u 	c #7F8B7A",
"v 	c #869282",
"w 	c #879382",
"x 	c #879282",
"y 	c #5D655A",
"z 	c #A6B3A2",
"A 	c #808A7D",
"B 	c #717B6D",
"C 	c #879383",
"D 	c #889383",
"E 	c #838E7E",
"F 	c #727B6F",
"G 	c #889483",
"H 	c #889484",
"I 	c #899484",
"J 	c #676F63",
"K 	c #99A596",
"L 	c #757E71",
"M 	c #7F8A7A",
"N 	c #899485",
"O 	c #899585",
"P 	c #8A9585",
"Q 	c #676F64",
"R 	c #5E665B",
"S 	c #8A9586",
"T 	c #8A9686",
"U 	c #8B9686",
"V 	c #60685D",
"W 	c #A3AF9F",
"X 	c #6B7467",
"Y 	c #8B9687",
"Z 	c #8B9787",
"` 	c #818C7E",
" .	c #7D867A",
"..	c #788175",
"+.	c #8C9787",
"@.	c #8C9788",
"#.	c #8D9788",
"$.	c #6F776C",
"%.	c #717A6E",
"&.	c #8D9789",
"*.	c #8D9889",
"=.	c #6D756A",
"-.	c #6D766A",
";.	c #8E9889",
">.	c #8E988A",
",.	c #8E998A",
"'.	c #697166",
").	c #677065",
"!.	c #8F998B",
"~.	c #8F9A8B",
"{.	c #687065",
"].	c #8F9A8C",
"^.	c #909A8C",
"/.	c #697066",
"(.	c #6F786C",
"_.	c #909B8C",
":.	c #909B8D",
"<.	c #919B8D",
"[.	c #666D63",
"}.	c #778074",
"|.	c #919B8E",
"1.	c #929B8E",
"2.	c #929C8E",
"3.	c #697167",
"4.	c #7D877A",
"5.	c #929C8F",
"6.	c #939C8F",
"7.	c #939D8F",
"8.	c #6B7268",
"9.	c #97A393",
"0.	c #767F73",
"a.	c #766E64",
"b.	c #4D2D28",
"c.	c #50302B",
"d.	c #6D5F57",
"e.	c #949D90",
"f.	c #8E978A",
"g.	c #6A7267",
"h.	c #939D90",
"i.	c #838378",
"j.	c #4B1F1C",
"k.	c #5C2421",
"l.	c #662725",
"m.	c #5F2522",
"n.	c #80776D",
"o.	c #949E91",
"p.	c #686F66",
"q.	c #9FAB9B",
"r.	c #798276",
"s.	c #8C9688",
"t.	c #949E90",
"u.	c #766058",
"v.	c #792F2E",
"w.	c #9C4745",
"x.	c #B45B59",
"y.	c #9B4341",
"z.	c #865954",
"A.	c #959F92",
"B.	c #6A7167",
"C.	c #959E91",
"D.	c #959E92",
"E.	c #8C786F",
"F.	c #A54644",
"G.	c #EFA8A6",
"H.	c #FDD4D2",
"I.	c #DB7A77",
"J.	c #9D7069",
"K.	c #72796F",
"L.	c #7E887B",
"M.	c #858E82",
"N.	c #969F92",
"O.	c #969F93",
"P.	c #AE6962",
"Q.	c #F19F9D",
"R.	c #FDC7C6",
"S.	c #CE7C76",
"T.	c #939488",
"U.	c #6B7469",
"V.	c #646C62",
"W.	c #929B8F",
"X.	c #96A093",
"Y.	c #97A093",
"Z.	c #97A094",
"`.	c #9F978C",
" +	c #A3948A",
".+	c #98A094",
"++	c #61675E",
"@+	c #A0AD9D",
"#+	c #5F655D",
"$+	c #98A194",
"%+	c #98A195",
"&+	c #99A195",
"*+	c #6A7068",
"=+	c #9CA898",
"-+	c #949D91",
";+	c #99A196",
">+	c #99A296",
",+	c #70776E",
"'+	c #94A091",
")+	c #A0AC9C",
"!+	c #626A60",
"~+	c #889085",
"{+	c #9AA296",
"]+	c #9AA297",
"^+	c #929A8F",
"/+	c #656C63",
"(+	c #9AA696",
"_+	c #788275",
":+	c #697067",
"<+	c #9AA397",
"[+	c #9BA397",
"}+	c #71776E",
"|+	c #6E766B",
"1+	c #A6B2A2",
"2+	c #70796E",
"3+	c #696F67",
"4+	c #888F85",
"5+	c #9BA398",
"6+	c #8A9187",
"7+	c #6B7269",
"8+	c #727A6F",
"9+	c #879184",
"0+	c #798176",
"a+	c #787F75",
"b+	c #767D73",
"c+	c #6F756C",
"d+	c #818B7E",
". . . . . . . . . . . + @ # $ % & * = - ; > . . . . . . . . . . ",
". . . . . . . . , # ' ) ! ~ { { { { { { ] ^ / ( . . . . . . . . ",
". . . . . . . _ : < { { { { [ } | | | | | 1 { 2 3 4 . . . . . . ",
". . . . . 5 6 7 } | | | | | 1 8 8 8 8 9 9 9 0 a b c d . . . . . ",
". . . . e f ! 1 1 8 8 8 9 9 9 0 a a a a a g h h i a j k . . . . ",
". . . l m n 9 9 0 a a a a a g h h i i i i i o o p q q r s . . . ",
". . . t u a a g h h i i i i i o o p q q q q q v v v w x y z . . ",
". . A B i i i i o o p q q q q q v v v w w w w C C C D D E F . . ",
". l y p q q q q q v v v w w w w C C C D D D G H H H H I I J K . ",
". L M v v x w w w C C C C D D G H H H H I I I N O O O O P N Q . ",
". R C C C C D D G H H H H I I I N O O O O P P P S S S T T U V W ",
"s X H H H H I I I I O O O O P P P S S S T T U U Y Y Y Y Y Z `  .",
"..x I N O O O P P P S S S T T U U Y Y Y Y Y Z +.@.@.@.@.@.@.#.$.",
"%.P P S S S T T U U Y Y Y Y Y Z +.@.@.@.@.@.@.#.&.*.*.*.*.*.*.=.",
"-.U U Y Y Y Y Y Y +.@.@.@.@.@.@.@.#.*.*.*.*.*.*.;.>.>.,.,.,.,.'.",
").Y +.@.@.@.@.@.@.@.#.*.*.*.*.*.*.;.>.>.,.,.,.,.,.!.!.!.!.!.~.{.",
"'.@.@.#.*.*.*.*.*.*.;.>.>.,.,.,.,.,.!.!.!.!.!.~.~.].^.^.^.^.^./.",
"(.*.*.*.>.>.>.,.,.,.,.!.!.!.!.!.~.~.].^.^.^.^.^.^._.:.<.<.<.<.[.",
"}.,.,.,.!.!.!.!.!.~.~.~.^.^.^.^.^.^._.:.<.<.<.<.<.<.|.1.2.2.2.3.",
"4.>.~.~.~.^.^.^.^.^.^._.:.<.<.<.<.<.<.|.|.2.2.2.2.2.5.5.6.6.7.8.",
"9.0.^.^.^.:.<.<.<.<.<.<.|.|.2.2.2.2.2.5.5.6.6.7.a.b.c.d.7.e.f.}.",
". g.<.<.<.|.|.2.2.2.2.2.5.5.6.6.7.7.7.h.h.h.e.i.j.k.l.m.n.o.p.q.",
". r.s.2.2.5.5.5.6.6.7.7.7.h.h.e.e.e.e.t.o.o.o.u.v.w.x.y.z.A./.. ",
". l B.7.7.7.h.h.e.e.e.e.t.o.o.o.C.C.C.C.D.A.A.E.F.G.H.I.J.K.k . ",
". . L.M.e.t.o.o.o.C.C.C.C.D.A.A.A.N.N.N.O.O.O.N.P.Q.R.S.T.U.. . ",
". . . V.W.C.D.D.A.A.N.N.N.O.O.O.O.X.Y.Y.Y.Z.Z.Z.Z.`. +.+++l . . ",
". . . @+#+C.N.O.O.O.X.Y.Y.Y.Z.Z.Z.Z..+$+$+%+%+%+%+%+&+*+s . . . ",
". . . . =+#+-+Z.Z.Z.Z.Z..+$+%+%+%+%+%+&+&+;+>+>+>+>+,+'+. . . . ",
". . . . . )+!+~+%+%+%+%+&+&+;+>+>+>+>+>+{+{+]+]+^+/+(+. . . . . ",
". . . . . . 4 _+:+O.>+>+>+{+{+]+]+<+<+<+<+[+]+}+|+1+. . . . . . ",
". . . . . . . . )+2+3+4+<+<+[+5+5+5+5+5+6+7+8+K . . . . . . . . ",
". . . . . . . . . . z 9+0.0+a+b+c+:+7+=.d+l . . . . . . . . . . "};
