/* XPM */
static const char * knob1_xpm[] = {
"32 32 208 2",
"  	c None",
". 	c #A8B5A4",
"+ 	c #A7B3A3",
"@ 	c #889385",
"# 	c #6E766B",
"$ 	c #6A7267",
"% 	c #676E64",
"& 	c #676E65",
"* 	c #697167",
"= 	c #6B7369",
"- 	c #6F776C",
"; 	c #869183",
"> 	c #A5B2A2",
", 	c #9EAA9A",
"' 	c #717A6F",
") 	c #697066",
"! 	c #7C8579",
"~ 	c #929B8E",
"{ 	c #939C8F",
"] 	c #939D90",
"^ 	c #949E91",
"/ 	c #959E91",
"( 	c #928B80",
"_ 	c #9D8279",
": 	c #9A9A8E",
"< 	c #838B80",
"[ 	c #696F67",
"} 	c #757E72",
"| 	c #A1AD9D",
"1 	c #798276",
"2 	c #6B7368",
"3 	c #8E988A",
"4 	c #909A8C",
"5 	c #919B8D",
"6 	c #919B8E",
"7 	c #929C8E",
"8 	c #939D8F",
"9 	c #949D90",
"0 	c #776058",
"a 	c #8E3937",
"b 	c #D36E6B",
"c 	c #E9908D",
"d 	c #A99489",
"e 	c #98A195",
"f 	c #98A095",
"g 	c #70766D",
"h 	c #757D72",
"i 	c #A7B4A3",
"j 	c #626A5F",
"k 	c #838D7F",
"l 	c #8F998B",
"m 	c #8F9A8B",
"n 	c #929C8F",
"o 	c #878A7E",
"p 	c #54211E",
"q 	c #903D3B",
"r 	c #EA9F9C",
"s 	c #FFF5F4",
"t 	c #D9918B",
"u 	c #99A195",
"v 	c #99A296",
"w 	c #8D958A",
"x 	c #636961",
"y 	c #9AA697",
"z 	c #5B6258",
"A 	c #8A9586",
"B 	c #8D9788",
"C 	c #8D9889",
"D 	c #8E998A",
"E 	c #909B8D",
"F 	c #818074",
"G 	c #491D1A",
"H 	c #762F2E",
"I 	c #BD6461",
"J 	c #EDA6A4",
"K 	c #CE736E",
"L 	c #97A094",
"M 	c #9AA297",
"N 	c #99A196",
"O 	c #686F66",
"P 	c #9BA798",
"Q 	c #9FAB9B",
"R 	c #5A6158",
"S 	c #8B9687",
"T 	c #8C9788",
"U 	c #919A8C",
"V 	c #4A2824",
"W 	c #7D3130",
"X 	c #993F3D",
"Y 	c #9B6C65",
"Z 	c #98A194",
"` 	c #9AA397",
" .	c #656B62",
"..	c #9DA999",
"+.	c #879383",
"@.	c #8C9787",
"#.	c #8F9A8C",
"$.	c #86887C",
"%.	c #5E4841",
"&.	c #5E3A34",
"*.	c #7D6059",
"=.	c #959C90",
"-.	c #96A093",
";.	c #9AA296",
">.	c #61675F",
",.	c #778074",
"'.	c #818C7C",
").	c #899484",
"!.	c #8A9585",
"~.	c #8A9686",
"{.	c #959F92",
"].	c #969F93",
"^.	c #97A093",
"/.	c #98A094",
"(.	c #9BA398",
"_.	c #8B9288",
":.	c #61695D",
"<.	c #889383",
"[.	c #889484",
"}.	c #899585",
"|.	c #8B9686",
"1.	c #949E90",
"2.	c #969F92",
"3.	c #6B7168",
"4.	c #859080",
"5.	c #889483",
"6.	c #959E92",
"7.	c #9BA397",
"8.	c #727A6F",
"9.	c #5C6459",
"0.	c #869281",
"a.	c #879382",
"b.	c #899485",
"c.	c #727970",
"d.	c #717B6C",
"e.	c #859281",
"f.	c #869282",
"g.	c #8E998B",
"h.	c #6D756A",
"i.	c #84907F",
"j.	c #859180",
"k.	c #7B8378",
"l.	c #666F63",
"m.	c #849180",
"n.	c #859181",
"o.	c #747C71",
"p.	c #616A5E",
"q.	c #83907E",
"r.	c #6E756C",
"s.	c #5D665A",
"t.	c #838F7E",
"u.	c #6C726A",
"v.	c #5E665A",
"w.	c #828F7D",
"x.	c #6C736A",
"y.	c #83907F",
"z.	c #84917F",
"A.	c #6B7268",
"B.	c #6A7367",
"C.	c #818E7C",
"D.	c #8B9787",
"E.	c #6D746A",
"F.	c #6C7569",
"G.	c #828E7D",
"H.	c #828F7E",
"I.	c #6F776D",
"J.	c #858F82",
"K.	c #717D6C",
"L.	c #828A7F",
"M.	c #879183",
"N.	c #A5B2A1",
"O.	c #596256",
"P.	c #656B63",
"Q.	c #A6B2A2",
"R.	c #6E776B",
"S.	c #7F8D7A",
"T.	c #879282",
"U.	c #8E9889",
"V.	c #626C5E",
"W.	c #696F66",
"X.	c #9CA898",
"Y.	c #798376",
"Z.	c #768372",
"`.	c #8B9488",
" +	c #636C60",
".+	c #808D7B",
"++	c #5C6559",
"@+	c #909B8C",
"#+	c #656D63",
"$+	c #99A495",
"%+	c #565E53",
"&+	c #9CA899",
"*+	c #5B6358",
"=+	c #7A8675",
"-+	c #889184",
";+	c #768073",
">+	c #60695D",
",+	c #818D7C",
"'+	c #7F897C",
")+	c #6F7A6B",
"!+	c #7B8477",
"~+	c #899486",
"{+	c #6D766A",
"]+	c #676F64",
"^+	c #60685D",
"/+	c #636B60",
"(+	c #747D71",
"_+	c #8A9587",
". . . . . . . . . . + @ # $ % % & * = - ; > . . . . . . . . . . ",
". . . . . . . . , ' ) ! ~ { ] ^ / ( _ : < [ } | . . . . . . . . ",
". . . . . . . 1 2 3 4 5 6 7 8 9 0 a b c d e f g h i . . . . . . ",
". . . . . , j k 3 l m 4 5 7 n o p q r s t e u v w x , . . . . . ",
". . . . y z A B C D l 4 E 5 7 F G H I J K L e v M N O P . . . . ",
". . . Q R A S T C 3 D m 4 5 6 U V p W X Y L Z u v M `  .... . . ",
". . i j +.A S @.T C D l #.4 5 7 $.%.&.*.=.-.L e N ;.` v >.. . . ",
". . ,.'.).!.~.S T C C D l 4 5 6 7 8 9 ^ {.].^./.e v M (._.} . . ",
". P :.<.[.}.A |.S T C 3 l m 4 5 7 n ] 1./ 2.].L e u v ` (.3., . ",
". 2 4.+.5.).}.A S T B C D l 4 E 5 7 { 9 ^ 6.2.^.L e v M 7.f 8.. ",
"> 9.0.a.+.[.b.!.|.S T C 3 D m 4 5 ~ n 8 9 / {.].L Z u v ` (.c.. ",
"b.d.e.f.a.<.[.}.A S @.T C D l #.4 5 7 { ] ^ / 2.^.L e N ;.` _.g.",
"h.i.j.0.f.+.[.).!.~.S T C C D l 4 5 6 7 8 9 ^ {.].^./.e v M (.k.",
"l.i.m.n.0.a.<.[.}.A |.S T C 3 l m 4 5 7 n ] 1./ 2.].L e u v ` o.",
"p.q.i.j.0.f.+.5.).}.A S T B C D l 4 E 5 7 8 9 ^ 6.2.^.L e v M r.",
"s.t.i.m.j.0.a.+.[.b.!.|.S T C 3 D m 4 5 ~ n 8 9 / {.].L Z u v u.",
"v.w.q.i.j.e.f.a.<.).}.A S @.T C D l 4 4 5 7 { ] ^ / 2.^.L e v x.",
"p.w.t.y.z.j.0.f.+.[.).!.~.S T C C D l 4 5 6 7 8 9 / {.].^./.e A.",
"B.C.w.t.i.m.n.0.a.<.[.}.A |.D.T C 3 l m 4 5 7 n ] 1./ 2.].L e E.",
"F.C.G.H.q.i.j.0.f.+.5.).}.A S T B C D l 4 E 5 7 8 9 ^ 6.2.^.L I.",
"J.K.C.w.t.i.m.j.0.a.+.[.b.!.|.S T C 3 D m 4 5 7 n 8 9 / {.].L.M.",
"N.O.C.G.w.q.i.j.e.f.a.<.).}.A S @.T C D l 4 4 5 7 { ] ^ / 2.P.Q.",
". R.S.C.w.t.y.z.j.0.T.+.[.).!.~.S T C U.D l 4 5 6 7 8 9 / 9 F.. ",
". Q V.C.C.w.q.i.m.n.0.a.<.[.}.A |.D.T C 3 l m 4 5 7 { ] 1.W.X.. ",
". . Y.Z.C.G.H.q.i.j.0.f.+.5.).}.~.S T B C D l 4 E 5 7 8 `.} . . ",
". . .  +.+C.w.t.i.m.j.0.a.+.[.b.!.|.S T C 3 D m 4 5 7 6 % i . . ",
". . . Q ++C.G.w.q.i.j.e.f.a.<.).}.A S @.T C D l 4 @+5 #+Q . . . ",
". . . . $+%+.+w.t.y.z.j.0.T.+.[.).!.~.S T C U.D l l #+&+. . . . ",
". . . . . ..*+=+w.q.i.j.n.0.a.<.[.}.A |.@.T C 3 -+2 , . . . . . ",
". . . . . . i ;+>+,+q.i.j.0.f.+.5.).}.~.S T S h.'+. . . . . . . ",
". . . . . . . . X.2 *+)+m.j.0.a.+.[.}.!.!+j - Q . . . . . . . . ",
". . . . . . . . . . Q.~+{+]+j ^+^+/+{+(+_+i . . . . . . . . . . "};
