/* XPM */
static const char * knob4_xpm[] = {
"32 32 216 2",
"  	c None",
". 	c #A8B5A4",
"+ 	c #A7B4A4",
"@ 	c #889285",
"# 	c #6C7469",
"$ 	c #666E63",
"% 	c #656D63",
"& 	c #687065",
"* 	c #697166",
"= 	c #6D766B",
"- 	c #737B70",
"; 	c #848F81",
"> 	c #A7B4A3",
", 	c #9EAA9A",
"' 	c #70796D",
") 	c #656E62",
"! 	c #768072",
"~ 	c #8A9585",
"{ 	c #8B9687",
"] 	c #8C9788",
"^ 	c #8D9788",
"/ 	c #8E9889",
"( 	c #8E998A",
"_ 	c #8F9A8B",
": 	c #909A8C",
"< 	c #7F887C",
"[ 	c #656C62",
"} 	c #6B7368",
"| 	c #9BA797",
"1 	c #737D70",
"2 	c #5D655A",
"3 	c #859080",
"4 	c #889484",
"5 	c #899585",
"6 	c #8A9586",
"7 	c #8D9789",
"8 	c #8E988A",
"9 	c #8F998B",
"0 	c #919B8D",
"a 	c #929C8E",
"b 	c #6A7167",
"c 	c #6F786C",
"d 	c #A6B3A2",
"e 	c #A1AE9D",
"f 	c #5B6358",
"g 	c #798475",
"h 	c #869282",
"i 	c #879383",
"j 	c #8D9889",
"k 	c #8F9A8C",
"l 	c #909B8C",
"m 	c #939D8F",
"n 	c #949D90",
"o 	c #8B9387",
"p 	c #5E665C",
"q 	c #9DA99A",
"r 	c #585F55",
"s 	c #828E7E",
"t 	c #869281",
"u 	c #909B8D",
"v 	c #91968A",
"w 	c #959E91",
"x 	c #626960",
"y 	c #96A192",
"z 	c #A1AE9E",
"A 	c #596056",
"B 	c #84907F",
"C 	c #859180",
"D 	c #879282",
"E 	c #919B8E",
"F 	c #929C8F",
"G 	c #818074",
"H 	c #5D3631",
"I 	c #7C302F",
"J 	c #A1504D",
"K 	c #9E8D82",
"L 	c #9DA999",
"M 	c #818D7C",
"N 	c #50302B",
"O 	c #662725",
"P 	c #A74F4D",
"Q 	c #E99593",
"R 	c #D77F7B",
"S 	c #979F93",
"T 	c #60675E",
"U 	c #757E72",
"V 	c #758070",
"W 	c #83907E",
"X 	c #879382",
"Y 	c #8A8F83",
"Z 	c #431C18",
"` 	c #6C2A28",
" .	c #C26966",
"..	c #FEE7E5",
"+.	c #F8B4B2",
"@.	c #9A9D92",
"#.	c #8F978C",
"$.	c #798276",
"%.	c #9FAC9C",
"&.	c #5C6559",
"*.	c #828F7D",
"=.	c #889383",
"-.	c #929B8E",
";.	c #4E2E28",
">.	c #652725",
",.	c #A74D4B",
"'.	c #EDA19E",
").	c #D88580",
"!.	c #98A194",
"~.	c #99A195",
"{.	c #737A71",
"].	c #717B6E",
"^.	c #7F8B7A",
"/.	c #8A9686",
"(.	c #848479",
"_.	c #5C332F",
":.	c #7F3131",
"<.	c #A55450",
"[.	c #9E9085",
"}.	c #98A195",
"|.	c #98A095",
"1.	c #6D756A",
"2.	c #818E7C",
"3.	c #899484",
"4.	c #939C8F",
"5.	c #939D90",
"6.	c #92968A",
"7.	c #969F93",
"8.	c #97A094",
"9.	c #99A196",
"0.	c #9AA297",
"a.	c #686E66",
"b.	c #879184",
"c.	c #6E796A",
"d.	c #949E91",
"e.	c #959F92",
"f.	c #99A296",
"g.	c #8A9187",
"h.	c #828D7F",
"i.	c #6B7469",
"j.	c #808E7B",
"k.	c #9BA398",
"l.	c #747D72",
"m.	c #687265",
"n.	c #818E7D",
"o.	c #84917F",
"p.	c #6E766C",
"q.	c #677163",
"r.	c #828F7E",
"s.	c #83907F",
"t.	c #889483",
"u.	c #8B9686",
"v.	c #8B9787",
"w.	c #697067",
"x.	c #646E61",
"y.	c #828E7D",
"z.	c #849180",
"A.	c #8C9787",
"B.	c #696F67",
"C.	c #667062",
"D.	c #859181",
"E.	c #677164",
"F.	c #838F7E",
"G.	c #969F92",
"H.	c #96A093",
"I.	c #6A7067",
"J.	c #899485",
"K.	c #9AA397",
"L.	c #6F766D",
"M.	c #97A093",
"N.	c #899385",
"O.	c #6D7869",
"P.	c #859281",
"Q.	c #98A094",
"R.	c #8D958B",
"S.	c #8C9688",
"T.	c #5D665A",
"U.	c #757C73",
"V.	c #737C70",
"W.	c #949E90",
"X.	c #747C71",
"Y.	c #A1AD9D",
"Z.	c #778174",
"`.	c #747F6F",
" +	c #8E958B",
".+	c #626A60",
"++	c #A7B3A3",
"@+	c #A2AF9F",
"#+	c #959E92",
"$+	c #9FAB9B",
"%+	c #9DAA9A",
"&+	c #596057",
"*+	c #838E7E",
"=+	c #61675E",
"-+	c #98A495",
";+	c #5D665B",
">+	c #788273",
",+	c #899286",
"'+	c #60675D",
")+	c #778073",
"!+	c #5E665B",
"~+	c #696F66",
"{+	c #727A6F",
"]+	c #747D71",
"^+	c #676F64",
"/+	c #778173",
"(+	c #818A7E",
"_+	c #6B7268",
":+	c #6F786D",
"<+	c #8D988A",
"[+	c #6E766B",
"}+	c #71796E",
"|+	c #727A6E",
"1+	c #6F776C",
"2+	c #70786D",
"3+	c #8A9587",
". . . . . . . . . . + @ # $ % & * # = - ; > . . . . . . . . . . ",
". . . . . . . . , ' ) ! ~ { ] ^ / ( _ : < [ } | . . . . . . . . ",
". . . . . . > 1 2 3 4 5 6 { ] 7 8 9 _ : 0 a 0 b c d . . . . . . ",
". . . . . e f g h i 4 5 6 { ] j 8 9 k l 0 a m n o p q . . . . . ",
". . . . | r s t h i 4 5 6 { ] j 8 9 k u 0 a m n v w x y . . . . ",
". . . z A B C t D i 4 5 6 { ] j 8 9 : u E F G H I J K x L . . . ",
". . > f M B C t D i 4 5 6 { ] j 8 9 : u E a N O P Q R S T > . . ",
". . U V W B C t X i 4 5 6 { ] j 8 9 : 0 E Y Z `  ...+.@.#.$.. . ",
". %.&.*.W B C t X =.4 5 6 { ] j 8 9 : 0 E -.;.>.,.'.).!.~.{., . ",
". ].^.*.W B C t X =.4 5 /.{ ] j ( 9 : 0 -.F (._.:.<.[.}.~.|.1.. ",
"+ &.2.*.W B C t X =.3.5 /.{ ] j ( 9 : 0 a 4.5.n 6.7.8.}.9.0.a.d ",
"b.c.2.*.W B C t X =.3.5 /.{ ] j ( 9 : 0 a 4.5.d.e.7.8.}.f.0.g.h.",
"i.j.2.*.W B C t X =.3.~ /.{ ] j ( 9 : 0 a 4.n d.e.7.8.}.f.0.k.l.",
"m.2.n.*.W o.C t X =.3.~ /.{ ] j ( 9 : 0 a 4.n d.e.7.8.}.f.0.k.p.",
"q.2.n.r.s.o.C t X t.3.~ u.v.] j ( 9 : 0 a 4.n d.e.7.8.}.f.0.k.w.",
"x.2.y.r.s.z.C t X t.3.~ u.A.] j ( _ : 0 a 4.n w e.7.8.}.f.0.k.B.",
"C.2.y.r.s.z.D.t i t.3.~ u.A.] j ( _ : 0 a m n w e.7.8.}.f.0.k.B.",
"E.2.y.F.s.z.D.h i 4 3.~ u.A.] j ( _ : 0 a m n w G.H.8.}.f.0.k.I.",
"m.2.y.F.B z.D.h i 4 J.~ u.A.^ j ( _ : 0 a m n w G.H.8.}.f.K.k.L.",
"# 2.y.F.B z.D.h i 4 J.6 u.A.^ j ( _ : 0 a m n w G.M.8.}.f.K.k.$.",
"N.O.*.F.B C P.h i 4 J.6 { ] 7 / ( _ : 0 a m n w G.M.Q.}.f.K.R.S.",
". T.*.F.B C P.h i 4 5 6 { ] j 8 ( _ : 0 a m n w G.M.Q.}.f.K.U.> ",
". V.^.F.B C P.h i 4 5 6 { ] j 8 9 k l 0 a m W.w G.M.Q.}.f.~.X.. ",
". Y.&.F.B C t h i 4 5 6 { ] j 8 9 : u 0 a m W.w G.M.!.~.f.L.L . ",
". . Z.`.B C t h i 4 5 6 { ] j 8 9 : u E F 5.W.w G.M.!.~. +l.. . ",
". . > 2 M C t D i 4 5 6 { ] j 8 9 : u E F 5.d.w G.M.!.8..+++. . ",
". . . @+r B t D =.4 5 6 { ] j 8 9 : 0 E F 5.d.#+G.M.!.x $+. . . ",
". . . . %+&+*+X =.4 5 /.{ ] j 8 9 : 0 E F 5.d.#+7.#+=+-+. . . . ",
". . . . . @+;+>+=.3.5 /.{ ] j ( 9 : 0 -.F 5.d.#+,+'+$+. . . . . ",
". . . . . . > )+!+3 5 /.{ ] j ( 9 : 0 a F 5.-.~+{+++. . . . . . ",
". . . . . . . . e ]+^+/+{ ] j ( 9 : 0 E (+_+:+L . . . . . . . . ",
". . . . . . . . . . . <+' } [+}+|+1+2+]+3+> . . . . . . . . . . "};
