/* XPM */
static const char * knob27_xpm[] = {
"32 32 215 2",
"  	c None",
". 	c #A8B5A4",
"+ 	c #919C8D",
"@ 	c #70786D",
"# 	c #6C736A",
"$ 	c #6A7168",
"% 	c #6F766D",
"& 	c #767D73",
"* 	c #798176",
"= 	c #7A8277",
"- 	c #788175",
"; 	c #909B8C",
"> 	c #A2AF9E",
", 	c #778075",
"' 	c #6A7068",
") 	c #7B8178",
"! 	c #99A296",
"~ 	c #9BA398",
"{ 	c #9BA397",
"] 	c #9AA296",
"^ 	c #80877D",
"/ 	c #696F66",
"( 	c #747D72",
"_ 	c #A2AE9E",
": 	c #798276",
"< 	c #696F67",
"[ 	c #979E93",
"} 	c #9AA397",
"| 	c #9AA297",
"1 	c #949C91",
"2 	c #7B8578",
"3 	c #676E65",
"4 	c #889085",
"5 	c #99A195",
"6 	c #98A195",
"7 	c #868D83",
"8 	c #636B61",
"9 	c #A1AE9D",
"0 	c #9FAB9B",
"a 	c #97A094",
"b 	c #98A194",
"c 	c #98A094",
"d 	c #949C90",
"e 	c #5F655D",
"f 	c #9DA999",
"g 	c #61685F",
"h 	c #98A095",
"i 	c #97A093",
"j 	c #96A093",
"k 	c #969F93",
"l 	c #949D91",
"m 	c #9FAC9B",
"n 	c #A7B4A3",
"o 	c #62695F",
"p 	c #9D9A8F",
"q 	c #9C9B8F",
"r 	c #969F92",
"s 	c #959F92",
"t 	c #959E92",
"u 	c #959E91",
"v 	c #939C8F",
"w 	c #636A61",
"x 	c #768074",
"y 	c #898E83",
"z 	c #C27C76",
"A 	c #F9B7B5",
"B 	c #F09D9B",
"C 	c #B16C65",
"D 	c #969E92",
"E 	c #949E91",
"F 	c #949E90",
"G 	c #879084",
"H 	c #7C8579",
"I 	c #9B7A72",
"J 	c #D87471",
"K 	c #FDD8D6",
"L 	c #F5B9B7",
"M 	c #AE4D4A",
"N 	c #8D736B",
"O 	c #949D90",
"P 	c #939D90",
"Q 	c #939D8F",
"R 	c #6B7268",
"S 	c #6C746A",
"T 	c #88625C",
"U 	c #9D4442",
"V 	c #BC6260",
"W 	c #A64F4D",
"X 	c #803332",
"Y 	c #745650",
"Z 	c #929C8F",
"` 	c #929C8E",
" .	c #8F988B",
"..	c #757E72",
"+.	c #A5B2A1",
"@.	c #646B62",
"#.	c #837C72",
"$.	c #622624",
"%.	c #6A2928",
"&.	c #622623",
"*.	c #4F1F1C",
"=.	c #7B756B",
"-.	c #919B8E",
";.	c #919B8D",
">.	c #697066",
",.	c #838D80",
"'.	c #838C80",
").	c #6B5D54",
"!.	c #4B2823",
"~.	c #46221E",
"{.	c #6B5C53",
"].	c #909B8D",
"^.	c #909A8C",
"/.	c #7D867A",
"(.	c #8F9A8B",
"_.	c #6D766B",
":.	c #929B8D",
"<.	c #8F998B",
"[.	c #7B8478",
"}.	c #6B7368",
"|.	c #8E998A",
"1.	c #676F65",
"2.	c #8E988A",
"3.	c #8D9889",
"4.	c #6E766B",
"5.	c #6A7267",
"6.	c #8D9788",
"7.	c #8C9788",
"8.	c #676F64",
"9.	c #8C9787",
"0.	c #656D62",
"a.	c #8B9687",
"b.	c #8B9686",
"c.	c #6A7367",
"d.	c #6E776B",
"e.	c #8A9686",
"f.	c #8A9586",
"g.	c #8A9585",
"h.	c #6D766A",
"i.	c #717A6F",
"j.	c #899585",
"k.	c #899485",
"l.	c #899484",
"m.	c #747D71",
"n.	c #858F82",
"o.	c #7B8577",
"p.	c #889484",
"q.	c #778173",
"r.	c #869082",
"s.	c #5F675C",
"t.	c #889483",
"u.	c #889383",
"v.	c #879383",
"w.	c #5D655A",
"x.	c #697167",
"y.	c #879382",
"z.	c #879282",
"A.	c #869282",
"B.	c #849080",
"C.	c #9CA898",
"D.	c #869281",
"E.	c #61695E",
"F.	c #9CA999",
"G.	c #828D7E",
"H.	c #859281",
"I.	c #859181",
"J.	c #859180",
"K.	c #7A8676",
"L.	c #727B6F",
"M.	c #5E665B",
"N.	c #849180",
"O.	c #84907F",
"P.	c #838F7E",
"Q.	c #5A6258",
"R.	c #97A393",
"S.	c #5C6459",
"T.	c #83907F",
"U.	c #83907E",
"V.	c #586055",
"W.	c #9CA899",
"X.	c #949F90",
"Y.	c #5B6358",
"Z.	c #828F7E",
"`.	c #828F7D",
" +	c #5A6257",
".+	c #96A192",
"++	c #99A596",
"@+	c #596157",
"#+	c #7C8878",
"$+	c #828E7D",
"%+	c #7D8978",
"&+	c #98A494",
"*+	c #A6B3A2",
"=+	c #616A5E",
"-+	c #818E7C",
";+	c #808D7B",
">+	c #5F695C",
",+	c #99A595",
"'+	c #666F64",
")+	c #5B6357",
"!+	c #7A8675",
"~+	c #808E7B",
"{+	c #788573",
"]+	c #5D675A",
"^+	c #99A495",
"/+	c #7C8679",
"(+	c #6F786C",
"_+	c #636C5F",
":+	c #5C6559",
"<+	c #586255",
"[+	c #5E685A",
"}+	c #626C5F",
"|+	c #687265",
"1+	c #70796D",
"2+	c #A4B1A0",
". . . . . . . . . . . + @ # $ % & * = - ; . . . . . . . . . . . ",
". . . . . . . . > , ' ) ! ~ ~ ~ ~ ~ { ] ^ / ( _ . . . . . . . . ",
". . . . . . . : < [ ~ { } } } | | | ] ] ! ! 1 / 2 . . . . . . . ",
". . . . . > 3 4 | | | ] ] ! ! ! ! ! 5 5 6 6 6 6 7 8 9 . . . . . ",
". . . . 0 $ a ! ! ! ! 5 5 6 6 6 6 6 6 b c a a a a d e f . . . . ",
". . . 0 g h 5 6 6 6 6 6 b c a a a a a i i i j k k k l e m . . . ",
". . n o k p q c a a a a i i i j k k k r r r r s s t u v w . . . ",
". . x y z A B C D k k k r r r r s s t u u u u u E E E F G H . . ",
". 0 / I J K L M N s s t t u u u u E E E F O O O P P P Q Q R > . ",
". S P T U V W X Y u E E E F O O O P P P Q Q Q v v Z Z ` `  .... ",
"+.@.u #.$.%.&.*.=.O P P P Q Q Q v v Z Z ` ` ` ` ` ` -.;.;.;.>.. ",
",.'.O P ).!.~.{.Q v v Z Z ` ` ` ` ` ` -.-.;.;.;.;.;.;.].^.^./.(.",
"_.v v v Z Z :.` ` ` ` ` -.-.;.;.;.;.;.;.].^.^.^.^.^.^.^.(.(.<.[.",
"}.` ` ` ` -.-.;.;.;.;.;.;.].^.^.^.^.^.^.^.(.(.(.<.<.<.<.|.|.|...",
"1.;.;.;.;.;.].^.^.^.^.^.^.^.(.(.(.<.<.<.<.|.|.|.|.|.2.2.2.3.3.4.",
"5.^.^.^.^.^.^.(.(.(.<.<.<.<.|.|.|.|.|.2.2.2.3.3.3.3.3.3.3.6.7.8.",
"5.(.(.<.<.<.<.<.|.|.|.|.2.2.2.3.3.3.3.3.3.3.6.7.7.7.7.7.7.9.9.0.",
"}.|.|.|.|.2.2.2.3.3.3.3.3.3.3.6.7.7.7.7.7.7.9.9.a.a.a.a.a.b.b.c.",
"d.3.3.3.3.3.3.3.6.7.7.7.7.7.7.9.9.a.a.a.a.a.a.b.b.e.e.f.f.f.g.h.",
"i.7.7.7.7.7.7.7.9.9.a.a.a.a.a.a.b.b.e.e.f.f.f.g.g.j.j.j.j.k.l.m.",
"n.o.9.a.a.a.a.a.a.b.b.e.e.f.f.f.g.g.j.j.j.j.k.l.l.l.p.p.p.p.q.r.",
"+.s.b.b.e.e.f.f.f.g.g.g.j.j.j.k.l.l.l.p.p.p.p.t.t.u.u.v.v.v.w.+.",
". x.l.g.g.j.j.j.k.l.l.l.p.p.p.p.t.t.u.u.v.v.v.v.y.y.y.z.A.B.}.. ",
". C.0.l.l.p.p.p.p.p.t.u.u.v.v.v.v.y.y.y.z.A.A.A.D.D.D.D.D.E.F.. ",
". . m.G.u.u.v.v.v.v.y.y.y.z.A.A.A.D.D.D.D.D.H.I.J.J.J.J.K.L.. . ",
". . n M.z.y.z.A.A.A.D.D.D.D.D.H.I.J.J.J.J.J.N.N.N.O.O.P.Q.n . . ",
". . . R.S.D.D.D.H.I.J.J.J.J.J.J.N.N.O.O.O.O.O.T.T.U.P.V.W.. . . ",
". . . . X.Y.N.J.J.N.N.O.O.O.O.O.T.T.U.U.U.P.P.P.Z.`. +.+. . . . ",
". . . . . ++@+#+O.T.T.U.U.U.P.P.P.Z.`.`.`.`.`.$+%+s.&+. . . . . ",
". . . . . . *+d.=+`.Z.`.`.`.`.`.$+$+-+-+-+-+;+>+4.*+. . . . . . ",
". . . . . . . . ,+'+)+!+-+-+-+-+-+-+-+~+{+]+0.^+. . . . . . . . ",
". . . . . . . . . . > /+(+_+:+<+[+}+|+1+,.2+. . . . . . . . . . "};
