/* XPM */
static const char * knob23_xpm[] = {
"32 32 224 2",
"  	c None",
". 	c #A8B5A4",
"+ 	c #A7B4A3",
"@ 	c #97A393",
"# 	c #727B70",
"$ 	c #6D756B",
"% 	c #6B7268",
"& 	c #6A7167",
"* 	c #697067",
"= 	c #697167",
"- 	c #6F776C",
"; 	c #767F74",
"> 	c #96A292",
", 	c #A4B0A0",
"' 	c #767E72",
") 	c #767D73",
"! 	c #969F93",
"~ 	c #98A094",
"{ 	c #97A093",
"] 	c #959F92",
"^ 	c #959E91",
"/ 	c #949D90",
"( 	c #929C8E",
"_ 	c #777F74",
": 	c #798276",
"< 	c #A4B1A0",
"[ 	c #838D80",
"} 	c #6B7168",
"| 	c #939B90",
"1 	c #99A296",
"2 	c #98A195",
"3 	c #98A194",
"4 	c #97A094",
"5 	c #969F92",
"6 	c #949E90",
"7 	c #939D90",
"8 	c #939C8F",
"9 	c #919B8D",
"0 	c #8B9587",
"a 	c #6C7369",
"b 	c #858F82",
"c 	c #A5B2A1",
"d 	c #747C71",
"e 	c #8B9288",
"f 	c #9AA397",
"g 	c #99A195",
"h 	c #96A093",
"i 	c #949E91",
"j 	c #939D8F",
"k 	c #919B8E",
"l 	c #909A8C",
"m 	c #8F9A8B",
"n 	c #838D7F",
"o 	c #6E776B",
"p 	c #A3AF9F",
"q 	c #A3B09F",
"r 	c #6D746B",
"s 	c #98A095",
"t 	c #9AA296",
"u 	c #99A196",
"v 	c #959E92",
"w 	c #929C8F",
"x 	c #8F998B",
"y 	c #8E998A",
"z 	c #8B9687",
"A 	c #5F675D",
"B 	c #9FAB9B",
"C 	c #A2AF9E",
"D 	c #636961",
"E 	c #9AA297",
"F 	c #8D9889",
"G 	c #8D9789",
"H 	c #5E665C",
"I 	c #646B62",
"J 	c #979F94",
"K 	c #9BA398",
"L 	c #909B8D",
"M 	c #8E988A",
"N 	c #8C9788",
"O 	c #899484",
"P 	c #666E63",
"Q 	c #7D877A",
"R 	c #848B81",
"S 	c #8C9787",
"T 	c #8A9586",
"U 	c #7E897A",
"V 	c #666C64",
"W 	c #8A9686",
"X 	c #8A9585",
"Y 	c #616A5E",
"Z 	c #9FAC9B",
"` 	c #747D72",
" .	c #959D92",
"..	c #899585",
"+.	c #889484",
"@.	c #859080",
"#.	c #6C7469",
"$.	c #8B9686",
"%.	c #889383",
"&.	c #879383",
"*.	c #5D655A",
"=.	c #8E998B",
"-.	c #80867D",
";.	c #889483",
">.	c #879282",
",.	c #707B6C",
"'.	c #8B9688",
").	c #6F786D",
"!.	c #879382",
"~.	c #869281",
"{.	c #859180",
"].	c #6D766A",
"^.	c #6E766C",
"/.	c #869282",
"(.	c #859281",
"_.	c #656E63",
":.	c #727A70",
"<.	c #84917F",
"[.	c #61695E",
"}.	c #737B71",
"|.	c #989D91",
"1.	c #97968B",
"2.	c #849180",
"3.	c #84907F",
"4.	c #5D665A",
"5.	c #6D736A",
"6.	c #B48F86",
"7.	c #E07F7C",
"8.	c #B34E4C",
"9.	c #7E4542",
"0.	c #8C9084",
"a.	c #859181",
"b.	c #83907E",
"c.	c #9E978C",
"d.	c #F8B4B1",
"e.	c #FFEAE9",
"f.	c #C96C6A",
"g.	c #782F2E",
"h.	c #644D46",
"i.	c #838F7E",
"j.	c #60695D",
"k.	c #6B7369",
"l.	c #A4887E",
"m.	c #EE9592",
"n.	c #EFA7A4",
"o.	c #A7514E",
"p.	c #662725",
"q.	c #51332D",
"r.	c #83907F",
"s.	c #828F7D",
"t.	c #697266",
"u.	c #98968B",
"v.	c #A74846",
"w.	c #9C4543",
"x.	c #762E2D",
"y.	c #4C1E1B",
"z.	c #604B44",
"A.	c #818E7D",
"B.	c #6B7468",
"C.	c #869083",
"D.	c #838A80",
"E.	c #8B7B72",
"F.	c #6A3834",
"G.	c #4D201C",
"H.	c #5C453E",
"I.	c #8D9487",
"J.	c #8D9788",
"K.	c #828E7D",
"L.	c #768271",
"M.	c #7F897C",
"N.	c #A5B1A1",
"O.	c #666C63",
"P.	c #919A8D",
"Q.	c #909B8C",
"R.	c #818E7C",
"S.	c #5A6357",
"T.	c #A2AF9F",
"U.	c #6A7368",
"V.	c #808E7B",
"W.	c #6A7367",
"X.	c #98A495",
"Y.	c #657062",
"Z.	c #9AA596",
"`.	c #70796E",
" +	c #899386",
".+	c #7A8775",
"++	c #727B6F",
"@+	c #A6B3A2",
"#+	c #5F665D",
"$+	c #909A8D",
"%+	c #5F685C",
"&+	c #9BA797",
"*+	c #656D63",
"=+	c #5F695C",
"-+	c #99A595",
";+	c #95A192",
">+	c #697066",
",+	c #5A6457",
"'+	c #656C62",
")+	c #879183",
"!+	c #899485",
"~+	c #828F7E",
"{+	c #7D8A79",
"]+	c #596156",
"^+	c #94A091",
"/+	c #737C70",
"(+	c #687065",
"_+	c #656F61",
":+	c #A3B0A0",
"<+	c #97A394",
"[+	c #60675D",
"}+	c #7F8A7B",
"|+	c #7A8676",
"1+	c #5C6558",
"2+	c #939E8F",
"3+	c #7E877B",
"4+	c #70796D",
"5+	c #697165",
"6+	c #5C6559",
"7+	c #5C6459",
"8+	c #5F675C",
"9+	c #626A5F",
"0+	c #7B8478",
"a+	c #A0AD9D",
". . . . . . . . . . + @ # $ % & * = - ; > . . . . . . . . . . . ",
". . . . . . . . , ' * ) ! ~ { ! ] ^ / ( _ & : < . . . . . . . . ",
". . . . . . . [ } | 1 2 3 4 ! 5 ^ 6 7 8 ( 9 0 a b . . . . . . . ",
". . . . . c d e f 1 g 2 4 h 5 ^ i / j ( k 9 l m n o p . . . . . ",
". . . . q r s f t u 2 4 { 5 v i / j w ( 9 l m x y z A B . . . . ",
". . . C D u f E 1 2 ~ { ! ] ^ / 7 w ( 9 l l x y F G z H C . . . ",
". . . I J K E 1 2 3 4 ! 5 ^ i 7 8 ( 9 L l x y M F N z O P . . . ",
". . Q R K f 1 g 2 4 h 5 ^ i / j ( k 9 l m y M F N S z T U Q . . ",
". C V K f t u 2 4 { 5 ] i / j w ( 9 l m x y F N N z W X O Y Z . ",
". `  .f E 1 2 ~ { ! ] ^ / 7 w ( 9 l l x y F G N z W X ..+.@.#.. ",
". r K E 1 2 3 4 ! 5 ^ i 7 8 ( 9 L l x y M F N z $.T ..O %.&.*.+ ",
"=.-.f 1 g 2 4 h 5 ^ i / j ( k 9 l m y M F N S z T ..O ;.&.>.,.'.",
").1 t u 2 4 { 5 ] i / j w ( 9 l m x y F N N z W X O +.&.!.~.{.].",
"^.E 1 2 ~ { ! ] ^ / 7 w ( 9 l l x y F F N z $.X ..+.%.!./.(.{._.",
":.1 2 3 4 ! 5 ^ i 7 8 ( 9 L l x y M F N z $.T ..O %.&./.~.{.<.[.",
"}.g 2 |.1.5 ^ i / j ( k 9 l m x M F N S z T ..O +.&.>.~.{.2.3.4.",
"5.2 6.7.8.9.0./ j w ( 9 l m x y F N N z W X O +.&.!.~.a.{.3.b.4.",
"= c.d.e.f.g.h.7 w ( 9 l l x y F F N z $.X ..+.%.!./.(.{.3.b.i.j.",
"k.l.m.n.o.p.q.8 ( 9 9 l x y M F N z $.T ..O %.&./.~.{.<.r.i.s.t.",
"- u.v.w.x.y.z.( k 9 l m x M F N S z T ..O +.&.>.~.{.2.3.i.s.A.B.",
"C.D.E.F.G.H.I.( 9 l m x y F J.N z W X O +.&.!.~.a.{.3.b.s.K.L.M.",
"N.O.^ / P.8 ( 9 Q.l x y F F N z $.X ..+.%.!./.(.{.3.b.i.s.R.S.T.",
". U.7 7 8 ( 9 9 l x y M F N z $.T ..O %.&./.~.{.<.r.i.s.R.V.W.. ",
". X.% j ( k 9 l m x M F N S z T ..O +.&.>.~.{.2.3.i.s.A.R.Y.Z.. ",
". . `. +( 9 l m x y F J.N z W X O +.&.!.~.a.{.3.b.s.K.R..+++. . ",
". . @+#+$+Q.l x y F F N z $.X ..+.%.!./.(.{.3.b.i.s.R.V.%++ . . ",
". . . &+*+l x y M F N z $.T ..O ;.&./.~.{.<.r.i.s.R.R.=+-+. . . ",
". . . . ;+>+y M F N S z T ..O +.&.>.~.{.2.3.i.s.A.R.,+L . . . . ",
". . . . . X.'+)+J.N z W X !++.&.!.~.a.{.3.b.~+K.{+]+^+. . . . . ",
". . . . . . + /+(+z $.X ..+.%.!./.(.{.3.b.i.s._+o :+. . . . . . ",
". . . . . . . . <+(+[+}+O ;.&./.~.{.<.r.|+1+P 2+. . . . . . . . ",
". . . . . . . . . . p 3+4+5+*.6+7+8+9+W.0+a+. . . . . . . . . . "};
