/* XPM */
static const char * knob31_xpm[] = {
"32 32 215 2",
"  	c None",
". 	c #A8B5A4",
"+ 	c #A5B2A2",
"@ 	c #899486",
"# 	c #6F776C",
"$ 	c #6C7369",
"% 	c #6A7168",
"& 	c #6C736A",
"* 	c #727A70",
"= 	c #737A70",
"- 	c #6E766C",
"; 	c #8B9688",
"> 	c #A7B4A3",
", 	c #9BA798",
"' 	c #6D756A",
") 	c #646B62",
"! 	c #80877D",
"~ 	c #98988C",
"{ 	c #A3887E",
"] 	c #A0958A",
"^ 	c #98A195",
"/ 	c #99A195",
"( 	c #99A296",
"_ 	c #9AA297",
": 	c #838980",
"< 	c #6D746B",
"[ 	c #727B6F",
"} 	c #A0AC9C",
"| 	c #747D72",
"1 	c #686F65",
"2 	c #929C8F",
"3 	c #959E91",
"4 	c #8C8177",
"5 	c #A24745",
"6 	c #EA8D8A",
"7 	c #F9B8B6",
"8 	c #BB8D85",
"9 	c #9AA296",
"0 	c #9BA397",
"a 	c #979F94",
"b 	c #696F67",
"c 	c #788175",
"d 	c #9FAB9B",
"e 	c #61685E",
"f 	c #868F82",
"g 	c #939D8F",
"h 	c #939D90",
"i 	c #949D90",
"j 	c #6C403C",
"k 	c #97413F",
"l 	c #EA9E9B",
"m 	c #FFEBEA",
"n 	c #E68885",
"o 	c #9A988D",
"p 	c #98A194",
"q 	c #99A196",
"r 	c #9AA397",
"s 	c #9BA398",
"t 	c #899086",
"u 	c #626860",
"v 	c #9BA797",
"w 	c #636A61",
"x 	c #8F998B",
"y 	c #929C8E",
"z 	c #939C8F",
"A 	c #4F2622",
"B 	c #722C2B",
"C 	c #A34D4B",
"D 	c #C86C6A",
"E 	c #B6514F",
"F 	c #988E84",
"G 	c #97A094",
"H 	c #98A094",
"I 	c #646A62",
"J 	c #9EAA9A",
"K 	c #656D62",
"L 	c #909A8C",
"M 	c #919B8D",
"N 	c #919B8E",
"O 	c #634F48",
"P 	c #4A1E1A",
"Q 	c #642624",
"R 	c #772E2D",
"S 	c #7C3E3B",
"T 	c #969E91",
"U 	c #969F93",
"V 	c #97A093",
"W 	c #6E756C",
"X 	c #A2AF9E",
"Y 	c #666E63",
"Z 	c #8E988A",
"` 	c #8F978A",
" .	c #635048",
"..	c #51322D",
"+.	c #624942",
"@.	c #8A8B80",
"#.	c #969F92",
"$.	c #71786E",
"%.	c #798276",
"&.	c #838D7F",
"*.	c #8E998A",
"=.	c #8F9A8B",
"-.	c #909B8D",
";.	c #949E91",
">.	c #959F92",
",.	c #96A093",
"'.	c #91988E",
").	c #7D867A",
"!.	c #646B61",
"~.	c #8C9788",
"{.	c #8D9889",
"].	c #949E90",
"^.	c #959E92",
"/.	c #6E746C",
"(.	c #9FAC9B",
"_.	c #6C7469",
":.	c #899485",
"<.	c #98A095",
"[.	c #70786E",
"}.	c #A7B3A3",
"|.	c #5E665C",
"1.	c #8A9686",
"2.	c #8B9687",
"3.	c #8C9787",
"4.	c #8D9789",
"5.	c #929B8E",
"6.	c #696F66",
"7.	c #899386",
"8.	c #768072",
"9.	c #8A9585",
"0.	c #81897F",
"a.	c #8A9587",
"b.	c #737C70",
"c.	c #889484",
"d.	c #899585",
"e.	c #8A9586",
"f.	c #8B9686",
"g.	c #70786D",
"h.	c #6B7468",
"i.	c #889383",
"j.	c #899484",
"k.	c #60685D",
"l.	c #879383",
"m.	c #8E9889",
"n.	c #6A7167",
"o.	c #5F675C",
"p.	c #869282",
"q.	c #879382",
"r.	c #889483",
"s.	c #686F66",
"t.	c #5E675B",
"u.	c #869281",
"v.	c #616A5E",
"w.	c #859180",
"x.	c #859281",
"y.	c #656E62",
"z.	c #84907F",
"A.	c #859181",
"B.	c #6D756B",
"C.	c #6D766A",
"D.	c #83907F",
"E.	c #747C71",
"F.	c #879183",
"G.	c #717C6D",
"H.	c #83907E",
"I.	c #849180",
"J.	c #818A7E",
"K.	c #A5B2A1",
"L.	c #5A6357",
"M.	c #838F7E",
"N.	c #697066",
"O.	c #697266",
"P.	c #818E7C",
"Q.	c #828F7D",
"R.	c #8D9788",
"S.	c #9AA696",
"T.	c #606A5D",
"U.	c #828E7D",
"V.	c #747D71",
"W.	c #7B8776",
"X.	c #879184",
"Y.	c #7F897C",
"Z.	c #A6B3A2",
"`.	c #5A6257",
" +	c #808D7B",
".+	c #6B7368",
"++	c #575F54",
"@+	c #808E7B",
"#+	c #96A293",
"$+	c #5D665A",
"%+	c #828F7E",
"&+	c #5F675D",
"*+	c #9AA697",
"=+	c #9DA999",
"-+	c #778473",
";+	c #818C7D",
">+	c #646C61",
",+	c #778074",
"'+	c #636E60",
")+	c #636B60",
"!+	c #6C7569",
"~+	c #596256",
"{+	c #747F6F",
"]+	c #737E6F",
"^+	c #5C645A",
"/+	c #6A7367",
"(+	c #9CA898",
"_+	c #A4B1A0",
":+	c #828C7F",
"<+	c #697366",
"[+	c #616A5D",
"}+	c #61695E",
"|+	c #6C756A",
"1+	c #879284",
"2+	c #A6B2A2",
". . . . . . . . . . + @ # $ % & * = - # ; > . . . . . . . . . . ",
". . . . . . . . , ' ) ! ~ { ] ^ / ( _ _ : < [ } . . . . . . . . ",
". . . . . . > | 1 2 3 4 5 6 7 8 ^ ^ ( 9 _ 0 a b c . . . . . . . ",
". . . . . d e f g h i j k l m n o p ^ q ( _ r s t u d . . . . . ",
". . . . v w x y y z h A B C D E F G H ^ / ( 9 r s q I d . . . . ",
". . . J K L L M N y 2 O P Q R S T U V G ^ ^ ( 9 _ 0 _ W X . . . ",
". . . Y Z x L L M M y `  ...+.@.3 #.U V G p ^ q ( _ r _ $.. . . ",
". . %.&.Z *.x =.L -.M y y z h i ;.3 >.#.,.G H ^ / ( 9 r '.).. . ",
". J !.~.{.Z *.x =.L L M N y 2 g i ].3 ^.#.U V G ^ ^ ( 9 _ /.(.. ",
". _.:.~.~.{.{.*.*.x L L M M y 2 g h i ;.3 #.U V G p ^ q ( <.[.. ",
"}.|.1.2.3.~.4.{.Z *.x =.L -.M 5.y z h i ;.3 >.#.,.G H ^ / ( 6.> ",
"7.8.9.1.2.2.~.~.{.Z *.x =.L L M N y 2 g i ].3 ^.#.U V G ^ ^ 0.a.",
"b.c.d.9.e.f.2.~.~.{.{.*.*.x L L M M y 2 g h i ;.3 #.U V G p ^ g.",
"h.i.c.j.d.e.1.2.3.~.4.{.Z *.x =.L -.M 5.y z g i ;.3 >.#.,.G H $ ",
"k.l.i.c.j.d.9.1.2.2.~.~.{.m.*.x =.L L M N y 2 g i ].3 ^.#.U V n.",
"o.p.q.l.r.c.d.9.e.f.2.~.~.{.{.*.*.x L L M M y 2 g h i ;.3 #.U s.",
"t.u.p.q.l.i.c.j.d.e.1.2.3.~.4.{.Z *.x =.L -.M 5.y z g i ;.3 >.1 ",
"v.w.x.u.p.l.i.c.j.d.9.1.2.2.~.~.{.m.*.x =.L L M N y 2 g i ].3 1 ",
"y.z.w.A.u.p.q.l.r.c.d.9.e.f.2.~.~.{.{.*.*.x L L M M y 2 g h i B.",
"C.D.z.w.w.u.p.q.l.i.c.j.d.e.1.2.3.~.4.{.Z *.x =.L -.M 5.y z g E.",
"F.G.H.z.I.w.x.u.p.l.i.c.j.d.9.1.2.2.~.~.{.m.*.x =.L L M N y J.a.",
"K.L.M.H.z.z.w.A.u.p.q.l.r.c.:.9.e.f.2.~.~.{.{.*.*.x L L M M N.> ",
". O.P.Q.M.D.z.w.w.u.p.q.l.i.c.j.d.e.1.2.3.~.R.{.Z *.x =.L x b.. ",
". S.T.U.Q.M.H.z.I.w.x.u.p.q.i.c.j.d.9.1.2.2.~.~.{.m.*.x =.- d . ",
". . V.W.P.Q.M.H.z.z.w.A.u.p.q.l.r.c.:.9.e.f.2.~.~.{.{.Z X.Y.. . ",
". . Z.`. +P.Q.Q.M.D.z.I.w.u.p.q.l.i.c.j.d.e.1.2.3.~.R.R..+. . . ",
". . . v ++@+P.U.Q.M.H.z.I.w.x.u.p.q.i.c.j.d.9.1.2.2.~.e J . . . ",
". . . . #+$+@+P.P.Q.%+H.z.z.w.A.u.p.q.l.r.c.:.9.e.e.&+*+. . . . ",
". . . . . =+v.-+P.P.Q.Q.M.D.z.I.w.u.p.q.l.i.c.j.;+>+d . . . . . ",
". . . . . . . ,+'+ +P.U.Q.M.H.z.I.w.x.u.p.q.p.)+c > . . . . . . ",
". . . . . . . . =+!+~+{+P.Q.%+H.z.z.w.w.]+^+/+(+. . . . . . . . ",
". . . . . . . . . . _+:+_.<+[+$+$+}+y.|+1+2+. . . . . . . . . . "};
