/* XPM */
static const char * knob3_xpm[] = {
"32 32 251 2",
"  	c None",
". 	c #A8B5A4",
"+ 	c #A7B3A3",
"@ 	c #A2AA9F",
"# 	c #949992",
"$ 	c #8A8D89",
"% 	c #848684",
"& 	c #838483",
"* 	c #868686",
"= 	c #8D8E8D",
"- 	c #959794",
"; 	c #9EA39D",
"> 	c #A8B0A5",
", 	c #A9B4A5",
"' 	c #A5B1A2",
") 	c #919790",
"! 	c #787978",
"~ 	c #6B6B6B",
"{ 	c #6C6C6C",
"] 	c #6F6F6F",
"^ 	c #727272",
"/ 	c #747474",
"( 	c #777777",
"_ 	c #7A7A7A",
": 	c #7D7D7D",
"< 	c #808080",
"[ 	c #838383",
"} 	c #929292",
"| 	c #A2A7A1",
"1 	c #AAB4A6",
"2 	c #A7B4A4",
"3 	c #91988F",
"4 	c #6D6E6D",
"5 	c #626262",
"6 	c #656565",
"7 	c #696969",
"8 	c #767676",
"9 	c #818181",
"0 	c #878787",
"a 	c #8A8A8A",
"b 	c #888888",
"c 	c #848484",
"d 	c #939393",
"e 	c #A8ADA6",
"f 	c #A8B5A5",
"g 	c #A3AF9F",
"h 	c #7C7E7B",
"i 	c #5C5C5C",
"j 	c #5E5E5E",
"k 	c #666666",
"l 	c #919191",
"m 	c #949494",
"n 	c #8F8F8F",
"o 	c #8D8D8D",
"p 	c #8B8B8B",
"q 	c #858585",
"r 	c #8C8C8C",
"s 	c #898989",
"t 	c #A1A3A1",
"u 	c #ABB5A7",
"v 	c #A2AD9F",
"w 	c #6D6F6D",
"x 	c #575757",
"y 	c #5A5A5A",
"z 	c #969696",
"A 	c #9A9A9A",
"B 	c #979797",
"C 	c #959595",
"D 	c #909090",
"E 	c #8E8E8E",
"F 	c #7F7E7D",
"G 	c #786060",
"H 	c #8C6E6E",
"I 	c #908C8C",
"J 	c #9D9E9D",
"K 	c #ABB5A8",
"L 	c #A4AFA0",
"M 	c #6A6B69",
"N 	c #535353",
"O 	c #585858",
"P 	c #9E9E9E",
"Q 	c #9D9D9D",
"R 	c #989898",
"S 	c #7B7675",
"T 	c #562B29",
"U 	c #843533",
"V 	c #C05A57",
"W 	c #C56764",
"X 	c #908B8B",
"Y 	c #9E9F9D",
"Z 	c #AAB5A7",
"` 	c #A7B4A3",
" .	c #767A76",
"..	c #4E4E4E",
"+.	c #555555",
"@.	c #A2A2A2",
"#.	c #A0A0A0",
"$.	c #9B9B9B",
"%.	c #999999",
"&.	c #5F4947",
"*.	c #582220",
"=.	c #994443",
"-.	c #F1ABA8",
";.	c #FED5D3",
">.	c #A37372",
",.	c #A6A8A5",
"'.	c #8D948B",
").	c #4D4D4D",
"!.	c #A5A5A5",
"~.	c #A3A3A3",
"{.	c #9C9C9C",
"].	c #593F3C",
"^.	c #54211E",
"/.	c #903E3C",
"(.	c #E9A29F",
"_.	c #FDD1D0",
":.	c #A87573",
"<.	c #787878",
"[.	c #ADB3AC",
"}.	c #A3AFA0",
"|.	c #5A5B5A",
"1.	c #494949",
"2.	c #A6A6A6",
"3.	c #A1A1A1",
"4.	c #9F9F9F",
"5.	c #706261",
"6.	c #481D1A",
"7.	c #762E2D",
"8.	c #AD4E4C",
"9.	c #C7605D",
"0.	c #867473",
"a.	c #797979",
"b.	c #ACB7A9",
"c.	c #858C83",
"d.	c #454545",
"e.	c #4C4C4C",
"f.	c #A9A9A9",
"g.	c #A7A7A7",
"h.	c #A4A4A4",
"i.	c #6E605F",
"j.	c #603937",
"k.	c #7D4645",
"l.	c #836E6E",
"m.	c #7C7C7C",
"n.	c #AAAFA9",
"o.	c #A6B2A2",
"p.	c #5C5D5B",
"q.	c #444444",
"r.	c #ACACAC",
"s.	c #AAAAAA",
"t.	c #7F7F7F",
"u.	c #757575",
"v.	c #A1A2A1",
"w.	c #AAB6A6",
"x.	c #99A296",
"y.	c #434343",
"z.	c #ADADAD",
"A.	c #A8A8A8",
"B.	c #828282",
"C.	c #7B7B7B",
"D.	c #B0B8AD",
"E.	c #80867E",
"F.	c #3E3E3E",
"G.	c #ABABAB",
"H.	c #7E7E7E",
"I.	c #ACB1AA",
"J.	c #6A6E69",
"K.	c #3D3D3D",
"L.	c #B0B0B0",
"M.	c #AEAEAE",
"N.	c #A7AAA6",
"O.	c #5B5D5B",
"P.	c #3C3C3C",
"Q.	c #686868",
"R.	c #B1B1B1",
"S.	c #AFAFAF",
"T.	c #A3A4A3",
"U.	c #525352",
"V.	c #3A3A3A",
"W.	c #737373",
"X.	c #B2B2B2",
"Y.	c #535453",
"Z.	c #393939",
"`.	c #707070",
" +	c #B3B3B3",
".+	c #5A5C59",
"++	c #383838",
"@+	c #9D9E9C",
"#+	c #373737",
"$+	c #545454",
"%+	c #9FA29E",
"&+	c #7F867D",
"*+	c #353535",
"=+	c #424242",
"-+	c #A4A9A3",
";+	c #99A396",
">+	c #ABB4A8",
",+	c #A6B3A2",
"'+	c #4F504F",
")+	c #363636",
"!+	c #949594",
"~+	c #A9B5A6",
"{+	c #7C817A",
"]+	c #343434",
"^+	c #A3A7A2",
"/+	c #A1AD9E",
"(+	c #484848",
"_+	c #505050",
":+	c #838981",
"<+	c #A3A9A2",
"[+	c #636662",
"}+	c #959795",
"|+	c #A1AC9D",
"1+	c #555655",
"2+	c #6A6A6A",
"3+	c #888988",
"4+	c #A9B3A5",
"5+	c #9FAA9C",
"6+	c #565756",
"7+	c #6D6D6D",
"8+	c #A8B2A5",
"9+	c #A2AD9E",
"0+	c #686C68",
"a+	c #606060",
"b+	c #8A8C8A",
"c+	c #A8B2A4",
"d+	c #A6B3A3",
"e+	c #878D85",
"f+	c #404040",
"g+	c #464646",
"h+	c #646464",
"i+	c #5F5F5F",
"j+	c #989D96",
"k+	c #A8B4A4",
"l+	c #7F857D",
"m+	c #595959",
"n+	c #474747",
"o+	c #4A4A4A",
"p+	c #5B5B5B",
"q+	c #91968F",
"r+	c #A6B1A3",
"s+	c #A5B1A1",
"t+	c #98A095",
"u+	c #81867F",
"v+	c #6F716E",
"w+	c #656665",
"x+	c #636363",
"y+	c #6B6C6B",
"z+	c #777976",
"A+	c #878C86",
"B+	c #9DA59B",
". . . . . . . . . . + @ # $ % & * = - ; > , . . . . . . . . . . ",
". . . . . . . . ' ) ! ~ { ] ^ / ( _ : < [ } | 1 . . . . . . . . ",
". . . . . . 2 3 4 5 6 7 8 9 0 a a b b b [ c 0 d e f . . . . . . ",
". . . . . g h i j k < l m } n o p b * q p r s s o t u . . . . . ",
". . . . v w x y 8 z A B C } D E p s 0 c F G H I p o J K . . . . ",
". . . L M N O [ P Q A R z d l E r a 0 S T U V W X n n Y Z . . . ",
". . `  ...+.b @.#.Q $.%.z m l n o a b &.*.=.-.;.>.E D l ,.. . . ",
". . '.).).: !.~.#.P {.%.B C } D o p s ].^./.(._.:.<.d D d [.. . ",
". }.|.1.5 2.2.~.3.4.{.A R C d D E r s 5.6.7.8.9.0.a.a.C l Q b.. ",
". c.d.e.B f.g.h.@.4.Q $.R z d l n r a b i.j.k.l.m.a.( c d d n.. ",
"o.p.q.7 r.s.g.!.@.#.P $.%.B m } n o p b * [ 9 t.m._ <.u.z l v.w.",
"x.y.y.D z.s.A.2.~.3.P {.A B C } D E p s 0 c B.t.: C.<.8 a l m D.",
"E.F.1.A.z.G.f.2.h.3.4.Q A R z d l E r a 0 q B.< H.C.a.( _ z } I.",
"J.K.y L.M.r.f.g.!.@.#.Q $.%.z m l n o a b * [ 9 H.m._ ( u.z D N.",
"O.P.Q.R.S.r.s.A.!.~.#.P {.%.B C } D o p s * c 9 t.: _ <.8 l n T.",
"U.V.W.X.S.z.G.A.2.h.3.4.{.A R C d D E r s 0 q B.< : C.a.8 n E #.",
"Y.Z.`. +L.M.G.f.g.h.@.4.Q $.R z m l n r a b q [ < H.m.a.( n o Q ",
".+++7  +R.M.r.s.g.!.@.#.P $.%.B m } n o p b * [ 9 t.m._ <.l p @+",
"J.#+$+ +R.S.z.s.A.2.~.3.P {.A B C } D E p s 0 c B.t.: C.<.d a %+",
"&+*+=+A.X.L.z.G.f.2.h.3.4.Q A R z d l E r a 0 q B.< H.C.t.o s -+",
";+++#+*  +L.M.r.f.g.!.@.#.Q $.%.z m l n o a b * [ 9 H.m.a q b >+",
",+'+)+O X.R.S.r.s.A.!.~.#.P {.%.B C } D o p s * c 9 t.: n [ !+~+",
". {+]+Z.m X.S.z.G.A.2.h.3.4.{.A R C d D E r s 0 q B.< r B.B.^+. ",
". /+(+)+_+G.L.M.G.f.g.h.@.4.Q $.R z m l n r a b q [ c a H.r Z . ",
". . :+)+++7 M.M.r.s.g.!.~.#.P $.%.B m } n o p b * c o _ : <+. . ",
". . + [+)+V.^ z.z.s.A.2.~.3.P {.A B C d D E p s 0 p <.a.}+. . . ",
". . . |+1+++P.2+g.G.f.2.h.3.4.Q A R z d l E r r * ^ / 3+4+. . . ",
". . . . 5+6+V.P.$+E A.g.!.@.#.Q $.%.z m l n n m.7+`.q 8+. . . . ",
". . . . . 9+0+K.F.y.a+s P @.#.P {.%.B C p _ 7 7 { b+c+. . . . . ",
". . . . . . d+e+_+f+y.g+_+a+7+( a.8 7+h+i+5 6 W.j+k+. . . . . . ",
". . . . . . . . v l+m+g+n+o+)._+N +.O p+i+^ q+r+. . . . . . . . ",
". . . . . . . . . . s+t+u+v+w+x+6 y+z+A+B++ . . . . . . . . . . "};
