/* XPM */
static const char * knob28_xpm[] = {
"32 32 249 2",
"  	c None",
". 	c #A8B5A4",
"+ 	c #A9B6A5",
"@ 	c #AFB7AC",
"# 	c #AAB0A9",
"$ 	c #A8AAA7",
"% 	c #A6A7A5",
"& 	c #A4A4A4",
"* 	c #A4A4A3",
"= 	c #A4A5A4",
"- 	c #A6A8A5",
"; 	c #A8AEA6",
"> 	c #ACB5A9",
", 	c #A9B5A5",
"' 	c #AAB5A6",
") 	c #ACB1AA",
"! 	c #A2A3A2",
"~ 	c #959595",
"{ 	c #939393",
"] 	c #929292",
"^ 	c #919191",
"/ 	c #909090",
"( 	c #8F8F8F",
"_ 	c #8E8E8E",
": 	c #9A9A99",
"< 	c #A6ACA5",
"[ 	c #AAB5A7",
"} 	c #AAB1A8",
"| 	c #9C9C9C",
"1 	c #979797",
"2 	c #989898",
"3 	c #8A8A8A",
"4 	c #898989",
"5 	c #A4A7A4",
"6 	c #7C7C7C",
"7 	c #757575",
"8 	c #767676",
"9 	c #808080",
"0 	c #8D8D8D",
"a 	c #878787",
"b 	c #858585",
"c 	c #868686",
"d 	c #9C9E9C",
"e 	c #A9B5A6",
"f 	c #9D9F9D",
"g 	c #949494",
"h 	c #777777",
"i 	c #787878",
"j 	c #797979",
"k 	c #7A7A7A",
"l 	c #818181",
"m 	c #939493",
"n 	c #A9B4A6",
"o 	c #9C9D9B",
"p 	c #8B8B8B",
"q 	c #8C8C8C",
"r 	c #7E7A7A",
"s 	c #7B7B7B",
"t 	c #7F7F7F",
"u 	c #7D7D7D",
"v 	c #90918F",
"w 	c #A9B4A5",
"x 	c #9EA19E",
"y 	c #978181",
"z 	c #D17573",
"A 	c #F7B1AF",
"B 	c #D4807E",
"C 	c #897271",
"D 	c #7E7E7E",
"E 	c #959794",
"F 	c #A8B4A4",
"G 	c #A6ACA4",
"H 	c #888888",
"I 	c #9D4B49",
"J 	c #E99391",
"K 	c #FFE8E7",
"L 	c #EEA3A1",
"M 	c #A54D4B",
"N 	c #838383",
"O 	c #A0A79F",
"P 	c #A8B4A5",
"Q 	c #7F7C7C",
"R 	c #7D3130",
"S 	c #A8504E",
"T 	c #C36865",
"U 	c #AB514F",
"V 	c #833332",
"W 	c #7D7675",
"X 	c #828282",
"Y 	c #848484",
"Z 	c #727272",
"` 	c #A8B3A4",
" .	c #A2A7A0",
"..	c #5B312F",
"+.	c #672826",
"@.	c #6F2B2A",
"#.	c #692826",
"$.	c #592A27",
"%.	c #828180",
"&.	c #707070",
"*.	c #6E6E6E",
"=.	c #989E97",
"-.	c #8F8F8E",
";.	c #746B6A",
">.	c #4B2724",
",.	c #441C18",
"'.	c #482421",
").	c #746A69",
"!.	c #6B6B6B",
"~.	c #7D7E7D",
"{.	c #A7B0A4",
"].	c #7D7676",
"^.	c #858484",
"/.	c #686868",
"(.	c #6A6A6A",
"_.	c #A3ACA0",
":.	c #9BA099",
"<.	c #656565",
"[.	c #949992",
"}.	c #8F928E",
"|.	c #737373",
"1.	c #616161",
"2.	c #848783",
"3.	c #868886",
"4.	c #5E5E5E",
"5.	c #767876",
"6.	c #818281",
"7.	c #6F6F6F",
"8.	c #969696",
"9.	c #5B5B5B",
"0.	c #6E6E6D",
"a.	c #7E7F7E",
"b.	c #6C6C6C",
"c.	c #585858",
"d.	c #818280",
"e.	c #696969",
"f.	c #999999",
"g.	c #9A9A9A",
"h.	c #555555",
"i.	c #6E706E",
"j.	c #868985",
"k.	c #666666",
"l.	c #9B9B9B",
"m.	c #9D9D9D",
"n.	c #525252",
"o.	c #787B77",
"p.	c #929790",
"q.	c #636363",
"r.	c #9E9E9E",
"s.	c #9F9F9F",
"t.	c #4F4F4F",
"u.	c #888D86",
"v.	c #9FA89D",
"w.	c #A0A0A0",
"x.	c #A1A1A1",
"y.	c #A2A2A2",
"z.	c #4D4D4D",
"A.	c #4E4E4E",
"B.	c #9BA498",
"C.	c #A7B4A3",
"D.	c #6E6F6E",
"E.	c #5C5C5C",
"F.	c #A3A3A3",
"G.	c #4A4A4A",
"H.	c #A7B3A3",
"I.	c #8B9089",
"J.	c #595959",
"K.	c #A5A5A5",
"L.	c #A6A6A6",
"M.	c #474747",
"N.	c #828881",
"O.	c #A4AFA0",
"P.	c #717171",
"Q.	c #A7A7A7",
"R.	c #A8A8A8",
"S.	c #A9A9A9",
"T.	c #444444",
"U.	c #525352",
"V.	c #A2AD9F",
"W.	c #8D938B",
"X.	c #545454",
"Y.	c #535353",
"Z.	c #AAAAAA",
"`.	c #ABABAB",
" +	c #424242",
".+	c #868C85",
"++	c #A6B3A2",
"@+	c #727371",
"#+	c #505050",
"$+	c #ACACAC",
"%+	c #ADADAD",
"&+	c #414141",
"*+	c #3F3F3F",
"=+	c #666866",
"-+	c #A6B2A2",
";+	c #A3AE9F",
">+	c #646563",
",+	c #4B4B4B",
"'+	c #4C4C4C",
")+	c #AEAEAE",
"!+	c #AFAFAF",
"~+	c #3C3C3C",
"{+	c #575856",
"]+	c #9FAA9C",
"^+	c #5F605F",
"/+	c #484848",
"(+	c #676767",
"_+	c #B0B0B0",
":+	c #B1B1B1",
"<+	c #565656",
"[+	c #3B3B3B",
"}+	c #3A3A3A",
"|+	c #545554",
"1+	c #9EA89B",
"2+	c #A2AD9E",
"3+	c #686A67",
"4+	c #B2B2B2",
"5+	c #B3B3B3",
"6+	c #606060",
"7+	c #383838",
"8+	c #393939",
"9+	c #5F615E",
"0+	c #A1AC9E",
"a+	c #3E3E3E",
"b+	c #646464",
"c+	c #6D6D6D",
"d+	c #454545",
"e+	c #373737",
"f+	c #363636",
"g+	c #7E837C",
"h+	c #A5B2A2",
"i+	c #9FA99B",
"j+	c #767A74",
"k+	c #353535",
"l+	c #454645",
"m+	c #71756F",
"n+	c #9DA89A",
"o+	c #A4B0A0",
"p+	c #8E968C",
"q+	c #727670",
"r+	c #5C5E5B",
"s+	c #4E4F4E",
"t+	c #474847",
"u+	c #464746",
"v+	c #4C4D4C",
"w+	c #595C59",
"x+	c #6F736E",
"y+	c #8C948A",
"z+	c #A3AFA0",
". . . . . . . . . . + @ # $ % & * = - ; > , . . . . . . . . . . ",
". . . . . . . . ' ) ! ~ { ] ^ ^ / ( _ _ _ : < [ . . . . . . . . ",
". . . . . . . } | ] ^ / 1 2 ] ^ / ] ~ / 3 4 4 { ; . . . . . . . ",
". . . . . ' 5 ^ ( ^ ~ 3 6 7 7 7 7 8 8 9 0 ^ a b c d e . . . . . ",
". . . . [ f 0 0 g 4 h h h h i i i i i j j k 4 0 l l m n . . . . ",
". . . , o p q ( r j j j k k k k k s s s s s 6 l / t u v w . . . ",
". . . x 4 3 y z A B C 6 6 6 6 u u u u u D D D D 9 ( s j E F . . ",
". . G H c 0 I J K L M D D t t t t 9 9 9 9 9 l l l N q 8 h O . . ",
". P ( N q Q R S T U V W l l l X X X X X N N N N N Y H t Z t ` . ",
".  .l Y 3 X ..+.@.#.$.%.N Y Y Y Y Y b b b b c c c c c p &.*.=.. ",
". -.D 3 Y Y ;.>.,.'.).c c c c a a a a a H H H H H 4 4 3 D !.~.F ",
"{.D s q a a a c ].^.H H H 4 4 4 4 4 3 3 3 3 3 p p p p p q /.(._.",
":.i 9 p 4 4 3 3 3 3 3 p p p p p q q q q q 0 0 0 0 0 _ _ ^ (.<.[.",
"}.7 Y p q q q q q 0 0 0 0 0 _ _ _ _ ( ( ( ( ( / / / / / ^ |.1.2.",
"3.Z c _ _ _ ( ( ( ( ( / / / / / ^ ^ ^ ^ ^ ] ] ] ] ] { { { j 4.5.",
"6.7.H / ^ ^ ^ ^ ^ ] ] ] ] ] { { { { g g g g g ~ ~ ~ ~ ~ 8.k 9.0.",
"a.b.H { { { { g g g g g ~ ~ ~ ~ 8.8.8.8.8.1 1 1 1 1 2 2 2 i c.!.",
"d.e.N ~ 8.8.8.8.8.1 1 1 1 1 2 2 2 2 2 f.f.f.f.f.g.g.g.g.g.|.h.i.",
"j.k.6 2 2 2 2 f.f.f.f.f.g.g.g.g.g.l.l.l.l.l.| | | | | m.m.k.n.o.",
"p.q.7.f.g.l.l.l.l.l.| | | | | m.m.m.m.r.r.r.r.r.s.s.s.s.g.h.t.u.",
"v.q.1.g m.m.m.r.r.r.r.r.s.s.s.s.s.w.w.w.w.w.x.x.x.x.x.y.c z.A.B.",
"C.D.E.k s.w.w.w.w.w.x.x.x.x.x.y.y.y.y.y.F.F.F.F.& & & F.<.G.4.H.",
". I.J.4.f.y.y.y.F.F.F.F.F.& & & & K.K.K.K.K.L.L.L.L.L.] G.M.N.. ",
". O.q.h.P.F.K.K.K.K.L.L.L.L.L.Q.Q.Q.Q.Q.R.R.R.R.R.S.& 9.T.U.V.. ",
". . W.X.Y.Y Q.Q.R.R.R.R.R.S.S.S.S.S.Z.Z.Z.Z.Z.`.`.Z.&. + +.+. . ",
". . ++@+A.#+H Z.Z.Z.Z.`.`.`.`.`.$+$+$+$+%+%+%+%+$+j &+*+=+-+. . ",
". . . ;+>+,+'+N `.%+%+%+%+)+)+)+)+)+!+!+!+!+!+`.P.*+~+{+V.. . . ",
". . . . ]+^+M./+(+w.!+_+_+_+_+_+:+:+:+:+:+:+2 <+[+}+|+1+. . . . ",
". . . . . 2+3+T. +M.b.2 %+4+5+5+5+5+5+%+8.6+~+7+8+9+0+. . . . . ",
". . . . . . -+N.,+*+a+*+z.b+7 u 6 c+9.d+7+e+f+&+g+h+. . . . . . ",
". . . . . . . . i+j+'+[+}+8+7+7+e+f+k+k+k+l+m+n+. . . . . . . . ",
". . . . . . . . . . o+p+q+r+s+t+u+v+w+x+y+z+. . . . . . . . . . "};
