/* XPM */
static const char * knob29_xpm[] = {
"32 32 255 2",
"  	c None",
". 	c #A8B5A4",
"+ 	c #A9B5A5",
"@ 	c #ACB5AA",
"# 	c #ABB0A9",
"$ 	c #A7AAA6",
"% 	c #A4A5A4",
"& 	c #A2A2A2",
"* 	c #A3A4A3",
"= 	c #A5A6A5",
"- 	c #A8ABA7",
"; 	c #ACB1AA",
"> 	c #B0B8AD",
", 	c #AAB6A6",
"' 	c #AAB5A7",
") 	c #A8AEA7",
"! 	c #9E9F9E",
"~ 	c #939393",
"{ 	c #929292",
"] 	c #919191",
"^ 	c #9FA09F",
"/ 	c #ABB6A7",
"( 	c #A9AFA7",
"_ 	c #999999",
": 	c #8F8F8F",
"< 	c #8E8E8E",
"[ 	c #969696",
"} 	c #959595",
"| 	c #979797",
"1 	c #949494",
"2 	c #979897",
"3 	c #A8AFA6",
"4 	c #A9B5A6",
"5 	c #A1A39F",
"6 	c #8D8D8D",
"7 	c #8B8B8B",
"8 	c #7D7D7D",
"9 	c #767676",
"0 	c #757575",
"a 	c #8C8C8C",
"b 	c #8A8A8A",
"c 	c #A0A3A0",
"d 	c #A9B4A6",
"e 	c #989997",
"f 	c #888888",
"g 	c #898989",
"h 	c #908E8E",
"i 	c #9E7A79",
"j 	c #9C7271",
"k 	c #7D7877",
"l 	c #797979",
"m 	c #787878",
"n 	c #777777",
"o 	c #878787",
"p 	c #989998",
"q 	c #A8B4A5",
"r 	c #959695",
"s 	c #858585",
"t 	c #8D8B8B",
"u 	c #A65452",
"v 	c #F29A98",
"w 	c #FFDCDB",
"x 	c #DC8380",
"y 	c #847574",
"z 	c #7B7B7B",
"A 	c #7A7A7A",
"B 	c #7E7E7E",
"C 	c #848484",
"D 	c #AAB5A6",
"E 	c #9A9D99",
"F 	c #828282",
"G 	c #7A6262",
"H 	c #9B403E",
"I 	c #E18E8C",
"J 	c #F9CCC9",
"K 	c #DD827F",
"L 	c #965958",
"M 	c #7C7C7C",
"N 	c #909090",
"O 	c #818181",
"P 	c #9B9E9A",
"Q 	c #A3A9A1",
"R 	c #7F7F7F",
"S 	c #6E5C5A",
"T 	c #702B2A",
"U 	c #92403E",
"V 	c #A34C4A",
"W 	c #97403E",
"X 	c #7E4847",
"Y 	c #808080",
"Z 	c #A4AAA2",
"` 	c #A8B3A4",
" .	c #898A89",
"..	c #868686",
"+.	c #7A7474",
"@.	c #491F1C",
"#.	c #56211F",
"$.	c #602522",
"%.	c #5B2321",
"&.	c #6F5D5C",
"*.	c #A9B4A5",
"=.	c #9CA19A",
"-.	c #776E6D",
";.	c #533633",
">.	c #4F302D",
",.	c #6B5B5A",
"'.	c #838383",
").	c #9DA39C",
"!.	c #A8B4A4",
"~.	c #858685",
"{.	c #747474",
"].	c #868786",
"^.	c #A5AEA2",
"/.	c #737373",
"(.	c #717171",
"_.	c #A6AEA4",
":.	c #979D95",
"<.	c #707070",
"[.	c #727272",
"}.	c #6E6E6E",
"|.	c #979C95",
"1.	c #8A8E89",
"2.	c #6D6D6D",
"3.	c #6B6B6B",
"4.	c #898C88",
"5.	c #818280",
"6.	c #696969",
"7.	c #676767",
"8.	c #7F807E",
"9.	c #7A7B7A",
"0.	c #666666",
"a.	c #646464",
"b.	c #797A79",
"c.	c #787877",
"d.	c #636363",
"e.	c #989898",
"f.	c #616161",
"g.	c #797B78",
"h.	c #606060",
"i.	c #9B9B9B",
"j.	c #9A9A9A",
"k.	c #5E5E5E",
"l.	c #767775",
"m.	c #7E817D",
"n.	c #5D5D5D",
"o.	c #9E9E9E",
"p.	c #9D9D9D",
"q.	c #9C9C9C",
"r.	c #6C6C6C",
"s.	c #5B5B5B",
"t.	c #7C7F7B",
"u.	c #8B9189",
"v.	c #5A5A5A",
"w.	c #656565",
"x.	c #9F9F9F",
"y.	c #A0A0A0",
"z.	c #585858",
"A.	c #898F87",
"B.	c #9DA59A",
"C.	c #595959",
"D.	c #A1A1A1",
"E.	c #555555",
"F.	c #565656",
"G.	c #9DA69B",
"H.	c #A6B2A2",
"I.	c #686867",
"J.	c #535353",
"K.	c #A5A5A5",
"L.	c #A4A4A4",
"M.	c #A3A3A3",
"N.	c #525252",
"O.	c #676766",
"P.	c #A7B3A3",
"Q.	c #878D85",
"R.	c #505050",
"S.	c #A7A7A7",
"T.	c #A6A6A6",
"U.	c #4E4E4E",
"V.	c #878C86",
"W.	c #A2AE9F",
"X.	c #5E5E5D",
"Y.	c #4D4D4D",
"Z.	c #A8A8A8",
"`.	c #A9A9A9",
" +	c #5F5F5F",
".+	c #4B4B4B",
"++	c #A4AFA0",
"@+	c #8A9088",
"#+	c #4A4A4A",
"$+	c #ACACAC",
"%+	c #ABABAB",
"&+	c #AAAAAA",
"*+	c #484848",
"=+	c #494949",
"-+	c #A6B3A3",
";+	c #6E706D",
">+	c #474747",
",+	c #AEAEAE",
"'+	c #ADADAD",
")+	c #454545",
"!+	c #6D6F6C",
"~+	c #A2AD9E",
"{+	c #5C5D5C",
"]+	c #434343",
"^+	c #B0B0B0",
"/+	c #AFAFAF",
"(+	c #444444",
"_+	c #424242",
":+	c #5B5C5B",
"<+	c #A1AC9E",
"[+	c #9EA99C",
"}+	c #595A59",
"|+	c #404040",
"1+	c #414141",
"2+	c #626262",
"3+	c #B2B2B2",
"4+	c #B1B1B1",
"5+	c #3F3F3F",
"6+	c #585958",
"7+	c #9FA99C",
"8+	c #9FAA9C",
"9+	c #636562",
"0+	c #3E3E3E",
"a+	c #3D3D3D",
"b+	c #6A6A6A",
"c+	c #B4B4B4",
"d+	c #B3B3B3",
"e+	c #3C3C3C",
"f+	c #666865",
"g+	c #A1AC9D",
"h+	c #7D837C",
"i+	c #474847",
"j+	c #3A3A3A",
"k+	c #3B3B3B",
"l+	c #6F6F6F",
"m+	c #393939",
"n+	c #494948",
"o+	c #81867F",
"p+	c #9EA99B",
"q+	c #737872",
"r+	c #494A49",
"s+	c #373737",
"t+	c #363636",
"u+	c #757B74",
"v+	c #A4B0A0",
"w+	c #919A8F",
"x+	c #747973",
"y+	c #5D605C",
"z+	c #4D4E4D",
"A+	c #464646",
"B+	c #4C4C4B",
"C+	c #5A5C59",
"D+	c #70756F",
"E+	c #8E968C",
"F+	c #A3AF9F",
". . . . . . . . . . + @ # $ % & * = - ; > , . . . . . . . . . . ",
". . . . . . . . ' ) ! ~ { ] ] ] ] ] ] ] ~ ^ ) / . . . . . . . . ",
". . . . . . . ( _ : < : [ } { ] ] { | 1 < < < 2 3 . . . . . . . ",
". . . . . 4 5 6 7 < ] 7 8 9 9 9 0 0 0 8 7 1 a b 7 c ' . . . . . ",
". . . . d e f g h i j k l l m m m n n n n m b ] o o p ' . . . . ",
". . . q r s o t u v w x y z z z A A A l l l l B : s C r D . . . ",
". . . E F C a G H I J K L B 8 8 8 M M M M z z z M N F O P . . . ",
". . Q O R < F S T U V W X Y Y R R R R B B B 8 8 8 B : B R Z . . ",
". `  .M f ..C +.@.#.$.%.&.F F F F O O O Y Y Y Y R R C f A f *.. ",
". =.l M 7 o o o -.;.>.,.s s s C C C C '.'.'.F F F F O 6 l n ).. ",
"!.~.9 o b b g g g f f f f o o o o ......s s s s C C C C s {.].!.",
"^.{./.< a a a a 7 7 7 b b b b g g g f f f f o o o ......g (./._.",
":.<.A N : : < < < 6 6 6 6 a a a 7 7 7 7 b b b g g g g f 6 [.}.|.",
"1.2.R { ] ] ] N N N N : : : < < < < 6 6 6 6 a a a 7 7 7 7 M 3.4.",
"5.6.'.1 1 ~ ~ ~ ~ { { { ] ] ] ] N N N N : : : < < < < 6 6 R 7.8.",
"9.0...[ [ [ [ } } } } 1 1 1 ~ ~ ~ ~ { { { ] ] ] ] N N N : R a.b.",
"c.d.o _ _ e.e.e.e.| | | [ [ [ [ } } } 1 1 1 1 ~ ~ ~ { { { B f.9 ",
"g.h.O i.i.i.i.j.j.j._ _ _ _ e.e.e.| | | | [ [ [ [ } } } 1 l k.l.",
"m.n.n o.o.p.p.p.q.q.q.q.i.i.i.j.j.j.j._ _ _ _ e.e.e.| | | r.s.t.",
"u.v.w.x.y.y.x.x.x.x.o.o.o.o.p.p.p.q.q.q.q.i.i.i.j.j.j.j.| k.z.A.",
"B.C.z.1 & & & & D.D.D.D.y.y.y.x.x.x.x.o.o.o.p.p.p.p.q.q.f E.F.G.",
"H.I.J.n K.K.L.L.L.L.M.M.M.& & & & D.D.D.y.y.y.y.x.x.x.o.3.N.O.P.",
". Q.R.F._ S.S.S.T.T.T.K.K.K.K.L.L.L.M.M.M.M.& & & & D.6 R.U.V.. ",
". W.X.Y.7.Z.`.`.`.Z.Z.Z.Z.S.S.S.S.T.T.T.K.K.K.K.L.L.y. +.+v.++. ",
". . @+.+#+R $+%+%+%+%+&+&+&+&+`.`.`.Z.Z.Z.Z.S.S.S.K.0 *+=+A.. . ",
". . -+;+>+.+f ,+,+'+'+'+'+$+$+$+%+%+%+%+&+&+&+`.Z.z >+)+!+P.. . ",
". . . ~+{+]+>+B '+^+^+/+/+/+,+,+,+,+'+'+'+$+$+S.(.(+_+:+<+. . . ",
". . . . [+}+|+1+2+p.3+3+4+4+4+4+^+^+^+^+/+,+1 z.5+5+6+7+. . . . ",
". . . . . 8+9+0+a+]+b+| ^+c+d+d+d+d+3+%+6 f.5+e+a+f+g+. . . . . ",
". . . . . . H.h+i+j+j+k+#+ +l+0 9 l+s.]+m+m+m+n+o+H.. . . . . . ",
". . . . . . . . p+q+r+s+t+t+t+t+t+t+t+t+t+.+u+8+. . . . . . . . ",
". . . . . . . . . . v+w+x+y+z+A+)+B+C+D+E+F+. . . . . . . . . . "};
