/* XPM */
static const char * knob17_xpm[] = {
"32 32 244 2",
"  	c None",
". 	c #A8B5A4",
"+ 	c #A7B4A3",
"@ 	c #9FA99C",
"# 	c #898F87",
"$ 	c #757974",
"% 	c #666765",
"& 	c #5E5F5E",
"* 	c #5D5E5D",
"= 	c #616461",
"- 	c #6D716C",
"; 	c #81877F",
"> 	c #9AA397",
", 	c #A5B2A1",
"' 	c #A6B2A3",
") 	c #90968E",
"! 	c #6B6C6A",
"~ 	c #505050",
"{ 	c #4A4A4A",
"] 	c #484848",
"^ 	c #464646",
"/ 	c #444444",
"( 	c #424242",
"_ 	c #3F3F3F",
": 	c #3D3D3D",
"< 	c #3B3B3B",
"[ 	c #3E3E3E",
"} 	c #535352",
"| 	c #7E847C",
"1 	c #A1AC9D",
"2 	c #969D94",
"3 	c #696A69",
"4 	c #535353",
"5 	c #515151",
"6 	c #4F4F4F",
"7 	c #5A5A5A",
"8 	c #676767",
"9 	c #6C6C6C",
"0 	c #6B6B6B",
"a 	c #606060",
"b 	c #525252",
"c 	c #434343",
"d 	c #393939",
"e 	c #373737",
"f 	c #474747",
"g 	c #828880",
"h 	c #A6B3A2",
"i 	c #A7B3A3",
"j 	c #848883",
"k 	c #5B5B5B",
"l 	c #575757",
"m 	c #565656",
"n 	c #666666",
"o 	c #818181",
"p 	c #979797",
"q 	c #A0A0A0",
"r 	c #A5A5A5",
"s 	c #A7A7A7",
"t 	c #A9A9A9",
"u 	c #AAAAAA",
"v 	c #868686",
"w 	c #3A3A3A",
"x 	c #363636",
"y 	c #626461",
"z 	c #7E807D",
"A 	c #5E5E5E",
"B 	c #5C5C5C",
"C 	c #656565",
"D 	c #898989",
"E 	c #9A9A9A",
"F 	c #9D9D9D",
"G 	c #9F9F9F",
"H 	c #A1A1A1",
"I 	c #A3A3A3",
"J 	c #ABABAB",
"K 	c #ADADAD",
"L 	c #AFAFAF",
"M 	c #919191",
"N 	c #353535",
"O 	c #4F504F",
"P 	c #9EA89A",
"Q 	c #A8B4A4",
"R 	c #828481",
"S 	c #636363",
"T 	c #787878",
"U 	c #949494",
"V 	c #989898",
"W 	c #9C9C9C",
"X 	c #9E9E9E",
"Y 	c #A2A2A2",
"Z 	c #B1B1B1",
"` 	c #AEAEAE",
" .	c #6F6F6F",
"..	c #50514F",
"+.	c #8F928E",
"@.	c #7F7F7F",
"#.	c #939393",
"$.	c #969696",
"%.	c #A4A4A4",
"&.	c #A6A6A6",
"*.	c #A8A8A8",
"=.	c #ACACAC",
"-.	c #B0B0B0",
";.	c #B2B2B2",
">.	c #626561",
",.	c #A0A79E",
"'.	c #6E6E6E",
").	c #696969",
"!.	c #7E7E7E",
"~.	c #909090",
"{.	c #959595",
"].	c #999999",
"^.	c #9B9B9B",
"/.	c #707070",
"(.	c #383838",
"_.	c #828980",
":.	c #828382",
"<.	c #777777",
"[.	c #8F8F8F",
"}.	c #8D8D8D",
"|.	c #595959",
"1.	c #A0A69E",
"2.	c #727272",
"3.	c #8A8A8A",
"4.	c #8C8C8C",
"5.	c #8E8E8E",
"6.	c #929292",
"7.	c #B3B3B3",
"8.	c #787D76",
"9.	c #8D8E8D",
"0.	c #747474",
"a.	c #888888",
"b.	c #4C4D4C",
"c.	c #A4B0A0",
"d.	c #AAB4A7",
"e.	c #858585",
"f.	c #878787",
"g.	c #8B8B8B",
"h.	c #929B90",
"i.	c #A3A9A1",
"j.	c #7B7B7B",
"k.	c #7D7D7D",
"l.	c #838383",
"m.	c #4D4D4D",
"n.	c #3C3C3C",
"o.	c #767B75",
"p.	c #9C9F9B",
"q.	c #828282",
"r.	c #848484",
"s.	c #636562",
"t.	c #999B97",
"u.	c #808080",
"v.	c #767676",
"w.	c #414141",
"x.	c #565756",
"y.	c #989997",
"z.	c #545454",
"A.	c #9A9B99",
"B.	c #454545",
"C.	c #9C9E9C",
"D.	c #7A7A7A",
"E.	c #7C7C7C",
"F.	c #A1A5A0",
"G.	c #797979",
"H.	c #6D6D6D",
"I.	c #6B6D6A",
"J.	c #A7ADA5",
"K.	c #4C4C4C",
"L.	c #7E827D",
"M.	c #ACB6A9",
"N.	c #979F94",
"O.	c #A9B5A5",
"P.	c #9E9F9D",
"Q.	c #ABB1AA",
"R.	c #555555",
"S.	c #828681",
"T.	c #ACB7A8",
"U.	c #9E9F9E",
"V.	c #7E7B7B",
"W.	c #817E7E",
"X.	c #A0AA9D",
"Y.	c #AFB5AD",
"Z.	c #757575",
"`.	c #7F7E7E",
" +	c #7B4C4B",
".+	c #622624",
"++	c #491D1A",
"@+	c #5A413E",
"#+	c #868585",
"$+	c #616161",
"%+	c #898F88",
"&+	c #AAACA9",
"*+	c #8F6665",
"=+	c #B4504E",
"-+	c #9A4342",
";+	c #6D2A29",
">+	c #471D19",
",+	c #6D5E5D",
"'+	c #777977",
")+	c #A6B2A2",
"!+	c #ACB7A9",
"~+	c #A3A4A2",
"{+	c #B16E6C",
"]+	c #F9BFBD",
"^+	c #E69C99",
"/+	c #954240",
"(+	c #5A2320",
"_+	c #5E4745",
":+	c #A3ADA0",
"<+	c #A1A2A1",
"[+	c #9D7474",
"}+	c #FED3D2",
"|+	c #FAC2C0",
"1+	c #AB5250",
"2+	c #672826",
"3+	c #6D5F5E",
"4+	c #757675",
"5+	c #A2AC9F",
"6+	c #A7A9A6",
"7+	c #B67371",
"8+	c #D16662",
"9+	c #9B4140",
"0+	c #735150",
"a+	c #828381",
"b+	c #A4AEA1",
"c+	c #A9B6A6",
"d+	c #ADB2AB",
"e+	c #9A9B9A",
"f+	c #8F8A8A",
"g+	c #8B8888",
"h+	c #949992",
"i+	c #ABB5A7",
"j+	c #A7ACA5",
"k+	c #939792",
"l+	c #A5AFA2",
"m+	c #AAB5A6",
"n+	c #ACB4A9",
"o+	c #A3A7A2",
"p+	c #9D9E9C",
"q+	c #979897",
"r+	c #949694",
"s+	c #9A9E99",
"t+	c #A4ABA1",
"u+	c #A8B3A4",
". . . . . . . . . . + @ # $ % & * = - ; > , . . . . . . . . . . ",
". . . . . . . . ' ) ! ~ { ] ^ / ( _ : < [ } | 1 . . . . . . . . ",
". . . . . . . 2 3 4 5 6 6 7 8 9 0 a b c < d e f g h . . . . . . ",
". . . . . i j k l m n o p q r s t u u q v m w e x y 1 . . . . . ",
". . . . i z A B C D E F G H I r s t J K L L M ~ e N O P . . . . ",
". . . Q R S a T U V E W X q Y I r s t J K L Z `  .d N ..1 . . . ",
". . . +.8 C @.#.U $.V E W X q Y %.&.*.u =.` -.Z ;.T d N >.+ . . ",
". . ,.'.).!.~.M #.{.p ].^.F X q Y %.&.*.u =.` -.;.;./.(.e _.. . ",
". Q :.'.<.[.}.[.M #.{.p ].^.F G H I r s t J =.` -.;.-.|.e f 1 . ",
". 1.2./.3.3.4.5.~.6.U $.V ].^.F G H I r s t J K L Z 7.X [ e 8.. ",
"Q 9.0.@.a.a.3.4.5.~.6.U $.V E W X q Y %.r s t J K L Z 7.C w b.c.",
"d.!.<.4.e.f.D g.}.[.M 6.U $.V E W X q Y %.&.*.u =.` -.;.$.: < h.",
"i.j.k.4.l.e.f.D g.}.[.M #.{.p ].^.F G q Y %.&.*.u =.` -.J m.n.o.",
"p.k.a.q.q.r.v a.3.4.}.[.M #.{.p ].^.F G H I r s t J =.` -.S [ s.",
"t.u.}.!.u.q.r.v a.3.4.5.~.6.U $.V E ^.F G H I r s t J K L v.w.x.",
"y.q.}.k.@.o l.e.v a.3.4.5.~.6.U $.V E W X q Y %.&.s t J K u.c z.",
"A.r.}.j.k.@.o l.e.f.D g.}.[.M #.U $.V E W X q Y %.&.*.u =.r.B.m ",
"C.f.5.D.E.!.u.o l.e.f.D g.}.[.M #.{.p ].^.F G H Y %.&.*.u j.f * ",
"F.D 6.G.D.E.!.u.q.r.v a.3.4.5.[.M #.{.p ].^.F G H I r s t H.{ I.",
"J.g.5.q.G.D.E.!.u.q.r.v a.3.4.5.~.6.U $.V E ^.F G H I r r B K.L.",
"M.[.g.4.<.G.j.k.@.o l.e.f.a.3.4.5.~.6.U $.V E W X q Y %.E z.6 N.",
"O.P.}.{.v.<.G.j.k.@.o l.e.f.D g.}.[.M #.{.$.V E W X q Y k.4 a c.",
". Q.~.[.a.v.T D.E.!.u.q.l.e.f.D g.}.[.M #.{.p ].^.F G ^.a R.S.. ",
". T.U.~.{.D.v.T D.E.!.u.q.V.W.a.3.4.5.~.M #.{.p ].^.F j.|.a X.. ",
". . Y.U ~.#.Z.<.G.j.E.`. +.+++@+#+3.4.5.~.6.U $.V E }.$+B %+. . ",
". . O.&+6.6.M Z.<.G.j.*+=+-+;+>+,+D 3.4.5.~.6.U $.M ).a '+)+. . ",
". . . !+~+6.#.6.T <.G.{+]+^+/+(+_+f.D g.}.[.M #.}.H.C 2.:+. . . ",
". . . . !+<+6.M {.e.T [+}+|+1+2+3+e.f.D g.}.~.e.'.).4+5+. . . . ",
". . . . . !+6+#.~.#.#.v 7+8+9+0+q.r.v a.5.D D./.'.a+b+. . . . . ",
". . . . . . c+d+e+~.5.5.M f+g+3.g.4.D e.j.v.0.G.h+i . . . . . . ",
". . . . . . . . i+j+^.5.4.3.a.v l.o @.k.j.o k+l+. . . . . . . . ",
". . . . . . . . . . m+n+o+p+q+6.~.~.r+s+t+u+. . . . . . . . . . "};
