/* XPM */
static const char * knob10_xpm[] = {
"32 32 243 2",
"  	c None",
". 	c #A8B5A4",
"+ 	c #A7B4A3",
"@ 	c #97A094",
"# 	c #7C817A",
"$ 	c #646663",
"% 	c #575957",
"& 	c #515151",
"* 	c #525251",
"= 	c #595B59",
"- 	c #696C68",
"; 	c #7F847D",
"> 	c #969F94",
", 	c #A5B2A2",
"' 	c #A4B0A0",
") 	c #7F867D",
"! 	c #515251",
"~ 	c #3A3A3A",
"{ 	c #383838",
"] 	c #3B3B3B",
"^ 	c #3D3D3D",
"/ 	c #3F3F3F",
"( 	c #414141",
"_ 	c #434343",
": 	c #444444",
"< 	c #494949",
"[ 	c #5C5D5C",
"} 	c #828780",
"| 	c #A3AE9F",
"1 	c #868D84",
"2 	c #484848",
"3 	c #353535",
"4 	c #373737",
"5 	c #393939",
"6 	c #5B5B5B",
"7 	c #6C6C6C",
"8 	c #777777",
"9 	c #737373",
"0 	c #646464",
"a 	c #565656",
"b 	c #4A4A4A",
"c 	c #4B4B4B",
"d 	c #4C4C4C",
"e 	c #8A9088",
"f 	c #A6B3A2",
"g 	c #A3AF9F",
"h 	c #656864",
"i 	c #363636",
"j 	c #5C5C5C",
"k 	c #8F8F8F",
"l 	c #ABABAB",
"m 	c #B3B3B3",
"n 	c #B2B2B2",
"o 	c #B0B0B0",
"p 	c #AFAFAF",
"q 	c #AEAEAE",
"r 	c #ADADAD",
"s 	c #A9A9A9",
"t 	c #949494",
"u 	c #707070",
"v 	c #545454",
"w 	c #747673",
"x 	c #A2AD9F",
"y 	c #A0AB9D",
"z 	c #4E4E4E",
"A 	c #B1B1B1",
"B 	c #ACACAC",
"C 	c #AAAAAA",
"D 	c #A7A7A7",
"E 	c #9C9C9C",
"F 	c #575757",
"G 	c #6D6E6C",
"H 	c #A1AB9E",
"I 	c #595B58",
"J 	c #676767",
"K 	c #A8A8A8",
"L 	c #A6A6A6",
"M 	c #A5A5A5",
"N 	c #A4A4A4",
"O 	c #A2A2A2",
"P 	c #878787",
"Q 	c #5D5D5D",
"R 	c #70716F",
"S 	c #A4B0A1",
"T 	c #6B6E6A",
"U 	c #6F6F6F",
"V 	c #A3A3A3",
"W 	c #A1A1A1",
"X 	c #A0A0A0",
"Y 	c #8D8D8D",
"Z 	c #606060",
"` 	c #7F817E",
" .	c #8C938A",
"..	c #3C3C3C",
"+.	c #626262",
"@.	c #9F9F9F",
"#.	c #9D9D9D",
"$.	c #8A8A8A",
"%.	c #656565",
"&.	c #959A93",
"*.	c #A5B1A1",
"=.	c #525252",
"-.	c #9E9E9E",
";.	c #9B9B9B",
">.	c #9A9A9A",
",.	c #999999",
"'.	c #7F7F7F",
").	c #A6B1A2",
"!.	c #888E86",
"~.	c #989898",
"{.	c #979797",
"].	c #6B6B6B",
"^.	c #929791",
"/.	c #5D5F5D",
"(.	c #535353",
"_.	c #969696",
":.	c #959595",
"<.	c #939393",
"[.	c #858585",
"}.	c #6E6E6E",
"|.	c #7C7D7C",
"1.	c #A7B4A4",
"2.	c #9DA79A",
"3.	c #464646",
"4.	c #7C7C7C",
"5.	c #929292",
"6.	c #919191",
"7.	c #A1A99E",
"8.	c #404040",
"9.	c #454545",
"0.	c #909090",
"a.	c #8E8E8E",
"b.	c #7E7E7E",
"c.	c #757575",
"d.	c #959A94",
"e.	c #767A75",
"f.	c #8C8C8C",
"g.	c #8E908D",
"h.	c #6A6C69",
"i.	c #8B8B8B",
"j.	c #898989",
"k.	c #7A7A7A",
"l.	c #666865",
"m.	c #696969",
"n.	c #888888",
"o.	c #676866",
"p.	c #6A6A6A",
"q.	c #868686",
"r.	c #6F726F",
"s.	c #4D4D4D",
"t.	c #666666",
"u.	c #7B7473",
"v.	c #675553",
"w.	c #685756",
"x.	c #807E7D",
"y.	c #838383",
"z.	c #818181",
"A.	c #919291",
"B.	c #7D817C",
"C.	c #505050",
"D.	c #776F6E",
"E.	c #451E1B",
"F.	c #4D1E1B",
"G.	c #57211F",
"H.	c #5F3533",
"I.	c #7F7D7D",
"J.	c #848484",
"K.	c #989A98",
"L.	c #90968E",
"M.	c #5B3F3D",
"N.	c #632624",
"O.	c #813533",
"P.	c #954240",
"Q.	c #8C3837",
"R.	c #7E6363",
"S.	c #A0A59F",
"T.	c #A1AA9E",
"U.	c #595959",
"V.	c #6A3F3D",
"W.	c #8F3B3A",
"X.	c #D07B78",
"Y.	c #F0AAA8",
"Z.	c #D06B68",
"`.	c #966D6D",
" +	c #A9B0A7",
".+	c #6F706E",
"++	c #828282",
"@+	c #7F6767",
"#+	c #AD4B48",
"$+	c #F6B8B6",
"%+	c #FFEFEE",
"&+	c #DE7D7A",
"*+	c #938887",
"=+	c #A9B5A6",
"-+	c #90978F",
";+	c #5E5E5E",
">+	c #808080",
",+	c #8C6D6C",
"'+	c #B9716F",
")+	c #BA7C7A",
"!+	c #8E7E7D",
"~+	c #A5A9A4",
"{+	c #A7B3A3",
"]+	c #7D7D7D",
"^+	c #7B7B7B",
"/+	c #797979",
"(+	c #ABB6A8",
"_+	c #9AA198",
":+	c #787878",
"<+	c #A9AEA8",
"[+	c #888B88",
"}+	c #767676",
"|+	c #A1A3A1",
"1+	c #A9B5A5",
"2+	c #A7B3A4",
"3+	c #808280",
"4+	c #9FA09F",
"5+	c #ABB5A7",
"6+	c #A6B1A3",
"7+	c #838583",
"8+	c #727272",
"9+	c #ADB7AA",
"0+	c #A8B3A4",
"a+	c #90928F",
"b+	c #A5A6A4",
"c+	c #ADB7A9",
"d+	c #A8B4A4",
"e+	c #A1A79F",
"f+	c #ADB2AB",
"g+	c #AAB6A6",
"h+	c #A9B4A6",
"i+	c #A0A49E",
"j+	c #8D8E8D",
"k+	c #ABB0AA",
"l+	c #AEB8AB",
"m+	c #A9B2A7",
"n+	c #A1A6A0",
"o+	c #9C9E9C",
"p+	c #9C9C9B",
"q+	c #A1A3A0",
"r+	c #A8ACA7",
"s+	c #AFB6AD",
"t+	c #ABB6A7",
". . . . . . . . . . + @ # $ % & * = - ; > , . . . . . . . . . . ",
". . . . . . . . ' ) ! ~ { ~ ] ^ / ( _ : < [ } | . . . . . . . . ",
". . . . . . + 1 2 3 4 5 : 6 7 8 8 9 0 a b c d [ e f . . . . . . ",
". . . . . g h 4 i ~ j k l m n o p q r s t u v & v w x . . . . . ",
". . . . y % 3 i z k m m n A p q r B l C s D E 9 a F G H . . . . ",
". . . g I 3 { J l m n A p q r B l C s K L M N O P Q 6 R S . . . ",
". . + T i { U A n A o q r B l C s K L M N V O W X Y 0 Z ` + . . ",
". .  ...5 +.p A o p r B l C s K D M N V O W X @.#.E $.0 %.&.. . ",
". *.=.5 c M o p r B l C s K D M N V O W X @.-.E ;.>.,.'.J 9 ).. ",
". !.] ^ P p q B l C s K D L N V O W X @.-.E ;.>.,.~.{.t u ].^.. ",
"+ /.^ (.C B l C s K D L N V O W X @.-.#.;.>.,.~.{._.:.<.[.}.|.1.",
"2.3./ 4.l C s K D L M V O W X @.-.#.;.>.,.~.{._.:.t 5.6.6.9 9 7.",
"e 8.9.;.s K D L M V O W X @.-.#.E >.,.~.{._.:.t 5.6.0.k a.b.c.d.",
"e._ (.N D L M N O W X @.-.#.E >.,.~.{._.:.t <.6.0.k a.Y f.P 8 g.",
"h.9.0 L M N V W X @.-.#.E ;.,.~.{._.:.t <.6.0.k a.Y f.i.$.j.k.f.",
"l.2 m.N V W X @.-.#.E ;.>.~.{._.:.t <.5.0.k a.Y f.i.$.n.P $.4.i.",
"o.b p.O X @.-.#.E ;.>.~.{._.:.t <.5.0.k a.Y f.i.$.n.P q.[.i.'.a.",
"r.s.t.@.-.#.E ;.>.,.{._.:.t <.5.6.k a.Y f.i.$.j.u.v.w.x.y.f.z.A.",
"B.C.Z E E ;.>.,.{._.:.t <.5.6.k a.Y f.i.$.j.n.D.E.F.G.H.I.i.J.K.",
"L.=.a :.>.,.~._.:.t <.5.6.0.a.Y f.i.$.j.n.q.[.M.N.O.P.Q.R.Y P S.",
"T.U.F J.~._.:.t <.5.6.0.k Y f.i.$.j.n.P [.J.y.V.W.X.Y.Z.`.j.$. +",
". .+U.7 :.t <.5.6.0.k Y f.i.$.j.n.P [.J.y.++z.@+#+$+%+&+*+$._.=+",
". -+j ;+f.5.6.0.k a.f.i.$.j.n.P q.J.y.++z.>+'.b.,+'+)+!+k Y ~+. ",
". {+U Z u 6.k a.f.i.$.j.n.P q.J.y.++z.>+'.b.]+^+k./+k.<.Y _.(+. ",
". . _+%.%.>+a.i.$.j.n.P q.[.y.++z.>+'.b.]+^+k./+:+8 6.k 0.<+. . ",
". . . [+J p.n.$.n.P q.[.J.++z.>+'.b.]+4.k./+:+8 }+Y 5.6.|+1+. . ",
". . . 2+3+].}.J.j.[.J.++z.>+'.b.]+4.k./+:+8 }+}+0.<.6.4+5+. . . ",
". . . . 6+7+u 8+>+a.y.>+'.b.]+4.^+/+:+8 }+c.++{.5.5.4+9+. . . . ",
". . . . . 0+a+}+}+/+$.Y J.4.^+/+:+8 }+k.n.t t 6.<.b+c+. . . . . ",
". . . . . . d+e+[.k.4.b.n.a.f.Y k 0.<.:.k 0.5.E f+g+. . . . . . ",
". . . . . . . . h+i+j+++++J.q.n.$.i.Y k 5.@.k+l+. . . . . . . . ",
". . . . . . . . . . 1+m+n+o+,.{.~.p+q+r+s+t+. . . . . . . . . . "};
