/* XPM */
static const char * knob15_xpm[] = {
"32 32 215 2",
"  	c None",
". 	c #A8B5A4",
"+ 	c #A7B4A3",
"@ 	c #98A494",
"# 	c #727A6F",
"$ 	c #687166",
"% 	c #646C61",
"& 	c #60695D",
"* 	c #636C60",
"= 	c #6C7569",
"- 	c #6F786C",
"; 	c #8B9687",
"> 	c #A7B3A3",
", 	c #A4B0A0",
"' 	c #737C71",
") 	c #5F675C",
"! 	c #667063",
"~ 	c #838F7E",
"{ 	c #859180",
"] 	c #84907F",
"^ 	c #83907E",
"/ 	c #828F7E",
"( 	c #828F7D",
"_ 	c #818E7C",
": 	c #6D7869",
"< 	c #596256",
"[ 	c #A0AC9C",
"} 	c #858F82",
"| 	c #5F685D",
"1 	c #808B7C",
"2 	c #879382",
"3 	c #869282",
"4 	c #869281",
"5 	c #859281",
"6 	c #849180",
"7 	c #828E7D",
"8 	c #7F8C7A",
"9 	c #636D5F",
"0 	c #798376",
"a 	c #A5B2A1",
"b 	c #6B7368",
"c 	c #788275",
"d 	c #899484",
"e 	c #889484",
"f 	c #889383",
"g 	c #879383",
"h 	c #83907F",
"i 	c #768372",
"j 	c #626B5F",
"k 	c #9FAB9B",
"l 	c #A3B09F",
"m 	c #5F665C",
"n 	c #869182",
"o 	c #8A9586",
"p 	c #8A9585",
"q 	c #899485",
"r 	c #889483",
"s 	c #859181",
"t 	c #808D7B",
"u 	c #5D665A",
"v 	c #97A393",
"w 	c #5F675D",
"x 	c #8A9686",
"y 	c #899585",
"z 	c #808E7B",
"A 	c #576054",
"B 	c #99A596",
"C 	c #71796E",
"D 	c #8D9788",
"E 	c #8C9788",
"F 	c #8C9787",
"G 	c #596257",
"H 	c #A6B3A2",
"I 	c #8A9587",
"J 	c #808A7D",
"K 	c #8E988A",
"L 	c #8D9889",
"M 	c #8B9686",
"N 	c #7B8876",
"O 	c #727B6F",
"P 	c #6B7268",
"Q 	c #8F9A8B",
"R 	c #8F998B",
"S 	c #8E998A",
"T 	c #8E9889",
"U 	c #636C5F",
"V 	c #7B8578",
"W 	c #899385",
"X 	c #909A8C",
"Y 	c #676F64",
"Z 	c #919B8D",
"` 	c #5B6458",
" .	c #A3AF9F",
"..	c #99A595",
"+.	c #747C71",
"@.	c #929C8E",
"#.	c #919B8E",
"$.	c #788474",
"%.	c #7D877A",
"&.	c #788175",
"*.	c #939C8F",
"=.	c #909B8D",
"-.	c #6A7367",
";.	c #6F786D",
">.	c #949D90",
",.	c #939D90",
"'.	c #939D8F",
").	c #6A7167",
"!.	c #959E91",
"~.	c #949E90",
"{.	c #929C8F",
"].	c #697067",
"^.	c #959F92",
"/.	c #949E91",
"(.	c #929B8E",
"_.	c #8D9789",
":.	c #5C6459",
"<.	c #969F93",
"[.	c #5D6559",
"}.	c #97A093",
"|.	c #969F92",
"1.	c #959E92",
"2.	c #5D655A",
"3.	c #6D746A",
"4.	c #97A094",
"5.	c #687065",
"6.	c #98A194",
"7.	c #70796D",
"8.	c #939F90",
"9.	c #798076",
"0.	c #98A195",
"a.	c #818C7D",
"b.	c #696F67",
"c.	c #99A296",
"d.	c #99A195",
"e.	c #96A093",
"f.	c #61695E",
"g.	c #A1AE9D",
"h.	c #959D92",
"i.	c #666E63",
"j.	c #A1AE9E",
"k.	c #6C736A",
"l.	c #9AA297",
"m.	c #6B7468",
"n.	c #939E8F",
"o.	c #7F887C",
"p.	c #8F968C",
"q.	c #9AA397",
"r.	c #9AA296",
"s.	c #98A094",
"t.	c #6E776C",
"u.	c #71796F",
"v.	c #99A196",
"w.	c #8F9488",
"x.	c #69564F",
"y.	c #573D36",
"z.	c #66554D",
"A.	c #8F978A",
"B.	c #656C62",
"C.	c #6E756C",
"D.	c #9BA398",
"E.	c #9BA397",
"F.	c #7C4945",
"G.	c #732C2B",
"H.	c #622523",
"I.	c #491D1A",
"J.	c #604C44",
"K.	c #6C7469",
"L.	c #949F90",
"M.	c #9FAC9C",
"N.	c #646A62",
"O.	c #97978B",
"P.	c #AD4A48",
"Q.	c #C06361",
"R.	c #A04B49",
"S.	c #722D2B",
"T.	c #4B201C",
"U.	c #919A8D",
"V.	c #909B8C",
"W.	c #9EAA9A",
"X.	c #61685F",
"Y.	c #8B9288",
"Z.	c #989C91",
"`.	c #DF7D7A",
" +	c #FFE5E3",
".+	c #ECA29F",
"++	c #9A4442",
"@+	c #673531",
"#+	c #8E978A",
"$+	c #60675D",
"%+	c #95A091",
"&+	c #757E72",
"*+	c #6A7168",
"=+	c #B98D84",
"-+	c #FBBFBD",
";+	c #F19C9A",
">+	c #A84745",
",+	c #89746C",
"'+	c #71786E",
")+	c #6A7268",
"!+	c #A3B0A0",
"~+	c #9DA999",
"{+	c #6E746C",
"]+	c #A39388",
"^+	c #A88279",
"/+	c #999186",
"(+	c #8C9589",
"_+	c #697066",
":+	c #828C7F",
"<+	c #6D756B",
"[+	c #71786F",
"}+	c #727970",
"|+	c #6B7269",
"1+	c #6E766B",
"2+	c #7B8478",
". . . . . . . . . . + @ # $ % & & * = - ; > . . . . . . . . . . ",
". . . . . . . . , ' ) ! ~ { ] ] ^ / ( _ : < - [ . . . . . . . . ",
". . . . . . . } | 1 2 3 4 5 { 6 ] ^ ~ ( 7 _ 8 9 0 . . . . . . . ",
". . . . . a b c d e f g 2 4 4 { 6 ] h ~ ( ( _ _ i j k . . . . . ",
". . . . l m n o p q e r g 2 3 4 s { ] ] ^ / ( _ _ t u v . . . . ",
". . . a w q ; ; x p y d e f 2 3 4 5 { 6 ] ^ ~ ( 7 _ z A B . . . ",
". . . C q D E F ; x o y d e f g 2 4 4 { 6 ] h ~ ( ( _ z G H . . ",
". . I J K L L E E ; M o p q e r g 2 3 4 s { ] ] ^ / ( _ N O . . ",
". a P Q R S T L E E ; ; x p y d e f 2 3 4 5 { 6 ] ^ ~ ( 7 U v . ",
". V W X Q R S K L D E F ; x o y d e f g 2 3 4 { 6 ] h ~ ( 7 Y . ",
". b Z Z X X R S K L L E E ; M o p q e r g 2 3 4 s { ] ] ^ / `  .",
"..+.@.#.Z X X Q R S T L E E ; ; x p y d e f 2 3 4 5 { 6 ] ^ $.%.",
"&.Z *.@.#.Z =.X Q R S K L D E F ; x o y d e f g 2 3 4 { 6 ] h -.",
";.>.,.'.@.@.Z Z X X R S S L L E E ; M o p q e r g 2 3 4 s { ] * ",
").!.~.,.'.{.@.#.Z X X Q R S T L E E ; ; x p y d e f 2 3 4 5 { ) ",
"].^.!./.>.'.*.@.(.Z =.X Q R S K L _.E F ; x o y d e f g 2 3 4 :.",
").<.^.!./.>.,.'.@.@.Z Z X X R S S L L E E ; M o p q e r g 2 3 [.",
"P }.<.|.1.!.~.>.'.{.@.#.Z X X Q R S T L E E ; ; x p y d e f 2 2.",
"3.4.4.<.|.^.!./.>.'.*.@.(.Z =.X Q R S K L _.E F ; x o y d e f 5.",
"# 4.6.4.}.<.^.!./.>.,.'.{.@.Z Z X X R S S L L E E ; M o p y e 7.",
"8.9.0.0.4.}.<.|.1.!.~.>.'.{.@.#.Z X X Q R S T L E E ; ; x p a.V ",
"+ b.c.d.0.4.4.e.|.^.!./.>.'.*.@.(.Z =.X Q R S K L _.E F ; x f.g.",
". ' h.c.d.0.6.4.}.<.|.!./.>.,.'.{.@.Z Z X X R S S L L E E ; i.. ",
". j.k.l.c.c.0.0.4.}.<.|.1.!.~.>.'.{.@.#.Z X X Q R S T L E m.n.. ",
". . o.p.q.r.c.d.0.s.4.e.|.^.!./.>.,.*.@.(.Z =.X Q R S K q t.. . ",
". . . u.c.q.l.c.v.0.6.4.}.<.|.!.w.x.y.z.A.@.Z Z X X R S B.a . . ",
". . . l C.D.E.l.c.c.0.0.4.}.<.|.F.G.H.I.J.{.@.#.Z X X K.L.. . . ",
". . . . M.N.r.D.q.r.c.d.0.s.4.O.P.Q.R.S.T.U.*.@.@.Z ).V.. . . . ",
". . . . . W.X.Y.D.q.l.c.v.0.6.Z.`. +.+++@+>.,.'.#+$+%+. . . . . ",
". . . . . . . &+*+v.E.l.r.c.0.0.=+-+;+>+,+!.~.'+)+!+. . . . . . ",
". . . . . . . . ~+;.{+Y.q.r.c.d.0.]+^+/+(+]._+V.. . . . . . . . ",
". . . . . . . . . . H :+<+3.[+}+|+].*+1+2+[ . . . . . . . . . . "};
