/* XPM */
static const char * knob19_xpm[] = {
"32 32 221 2",
"  	c None",
". 	c #A8B5A4",
"+ 	c #9AA696",
"@ 	c #7E887B",
"# 	c #778174",
"$ 	c #70786D",
"% 	c #697166",
"& 	c #687065",
"* 	c #6D756A",
"= 	c #788175",
"- 	c #929D8E",
"; 	c #A6B3A2",
"> 	c #7C8579",
", 	c #6B7268",
"' 	c #747C71",
") 	c #8E988A",
"! 	c #8E998A",
"~ 	c #8D9889",
"{ 	c #8C9788",
"] 	c #8C9787",
"^ 	c #8B9686",
"/ 	c #8A9585",
"( 	c #879383",
"_ 	c #6D776A",
": 	c #5E665B",
"< 	c #717A6E",
"[ 	c #A2AE9E",
"} 	c #838D80",
"| 	c #697066",
"1 	c #8A9386",
"2 	c #919B8D",
"3 	c #909A8C",
"4 	c #8F9A8B",
"5 	c #8D9788",
"6 	c #8A9586",
"7 	c #899485",
"8 	c #889484",
"9 	c #818C7C",
"0 	c #5E675B",
"a 	c #7A8477",
"b 	c #A3B0A0",
"c 	c #676F65",
"d 	c #818A7E",
"e 	c #939D8F",
"f 	c #929C8E",
"g 	c #8D9789",
"h 	c #8B9687",
"i 	c #899585",
"j 	c #869282",
"k 	c #859281",
"l 	c #758071",
"m 	c #5F675C",
"n 	c #A1AE9D",
"o 	c #A1AD9D",
"p 	c #5E655C",
"q 	c #90998C",
"r 	c #949D90",
"s 	c #909B8D",
"t 	c #8F9A8C",
"u 	c #8F998B",
"v 	c #879282",
"w 	c #869281",
"x 	c #859180",
"y 	c #818D7C",
"z 	c #565F54",
"A 	c #9CA898",
"B 	c #A4B1A0",
"C 	c #939C8F",
"D 	c #959E91",
"E 	c #949E91",
"F 	c #939D90",
"G 	c #929C8F",
"H 	c #919B8E",
"I 	c #8A9686",
"J 	c #889383",
"K 	c #879382",
"L 	c #84907F",
"M 	c #828F7E",
"N 	c #586055",
"O 	c #9CA899",
"P 	c #676F64",
"Q 	c #919A8E",
"R 	c #969F93",
"S 	c #959E92",
"T 	c #899484",
"U 	c #83907E",
"V 	c #828E7D",
"W 	c #60685D",
"X 	c #A7B4A3",
"Y 	c #808A7D",
"Z 	c #81897E",
"` 	c #97A094",
" .	c #959F92",
"..	c #84917F",
"+.	c #83907F",
"@.	c #7A8675",
"#.	c #727B6F",
"$.	c #676D65",
"%.	c #98A195",
"&.	c #889483",
"*.	c #859181",
"=.	c #849180",
"-.	c #838F7E",
";.	c #5D665A",
">.	c #9DA999",
",.	c #777F74",
"'.	c #96A093",
").	c #969F92",
"!.	c #828F7D",
"~.	c #808D7B",
"{.	c #666F64",
"].	c #696F67",
"^.	c #99A296",
"/.	c #97A093",
"(.	c #818E7C",
"_.	c #5D675A",
":.	c #939E8F",
"<.	c #7D847A",
"[.	c #98A094",
"}.	c #949E90",
"|.	c #758271",
"1.	c #858F82",
"2.	c #788176",
"3.	c #99A196",
"4.	c #9AA296",
"5.	c #99A195",
"6.	c #98A194",
"7.	c #808E7B",
"8.	c #7A8277",
"9.	c #9BA397",
"0.	c #697265",
"a.	c #798076",
"b.	c #9BA398",
"c.	c #9AA297",
"d.	c #636D60",
"e.	c #777E74",
"f.	c #5E685A",
"g.	c #70776D",
"h.	c #596356",
"i.	c #6A7168",
"j.	c #9AA397",
"k.	c #5B6558",
"l.	c #6C736A",
"m.	c #626B5F",
"n.	c #6F776C",
"o.	c #6E776B",
"p.	c #7E857B",
"q.	c #7C8877",
"r.	c #6A7067",
"s.	c #5C6559",
"t.	c #A0AC9C",
"u.	c #757E72",
"v.	c #656E62",
"w.	c #6B7169",
"x.	c #8E7C73",
"y.	c #776058",
"z.	c #817F74",
"A.	c #646E61",
"B.	c #94A091",
"C.	c #757D72",
"D.	c #8D948A",
"E.	c #AC6F68",
"F.	c #A84846",
"G.	c #7D3130",
"H.	c #4E1F1C",
"I.	c #70645B",
"J.	c #7F8B7A",
"K.	c #697267",
"L.	c #656C63",
"M.	c #9B9C90",
"N.	c #ED9694",
"O.	c #F2AFAD",
"P.	c #A34C4A",
"Q.	c #612523",
"R.	c #47231F",
"S.	c #929B8E",
"T.	c #586056",
"U.	c #9FAB9B",
"V.	c #6D746A",
"W.	c #9E9A8E",
"X.	c #FABBB9",
"Y.	c #FEDBDA",
"Z.	c #BD6360",
"`.	c #6A2927",
" +	c #4A2622",
".+	c #5F675B",
"++	c #666C64",
"@+	c #C87D77",
"#+	c #DE7D7A",
"$+	c #A04745",
"%+	c #642624",
"&+	c #67554D",
"*+	c #60695D",
"=+	c #8D988A",
"-+	c #99A596",
";+	c #60675E",
">+	c #8F9287",
",+	c #9D736C",
"'+	c #885A55",
")+	c #7E7269",
"!+	c #859080",
"~+	c #5D655A",
"{+	c #6F786D",
"]+	c #6E756B",
"^+	c #697266",
"/+	c #A5B1A1",
"(+	c #99A595",
"_+	c #697167",
":+	c #666D64",
"<+	c #8C9589",
"[+	c #838E7F",
"}+	c #61695F",
"|+	c #666E63",
"1+	c #95A091",
"2+	c #788276",
"3+	c #6B7369",
"4+	c #666D63",
"5+	c #687066",
"6+	c #6C7469",
"7+	c #6F786C",
"8+	c #A0AD9C",
". . . . . . . . . . . + @ # $ % & * $ = - . . . . . . . . . . . ",
". . . . . . . . ; > , ' ) ! ~ { ] ^ / ( _ : < [ . . . . . . . . ",
". . . . . . . } | 1 2 3 4 ! ~ 5 ] ^ 6 7 8 ( 9 0 a . . . . . . . ",
". . . . . b c d e f 2 3 4 ! ) g { h 6 i 8 ( j k l m n . . . . . ",
". . . . o p q r e f 2 s t u ) ~ { h 6 i 8 ( v w x y z A . . . . ",
". . . B p C D E F G H 2 3 u ) ~ { h I i 8 J K w x L M N O . . . ",
". . . P Q R S E F G f 2 3 u ! ~ { h I i T J K w x L U V W X . . ",
". . Y Z ` R  .E F C f 2 3 u ! ~ { h I / T J K w x ..+.M @.#.. . ",
". B $.%.` R  .E r C f 2 3 4 ! ~ { ] ^ / T &.( j *.=.+.-.V ;.>.. ",
". ,.Q %.` '.).D r e f 2 3 4 ! ~ 5 ] ^ 6 7 8 ( j k =.L -.!.~.{.. ",
". ].^.%.` /.).D r e f 2 3 4 ! ) ~ { h 6 i 8 ( j w x L -.!.(._.; ",
":.<.^.%.[./.).D }.e f H s 3 u ) ~ { h 6 i 8 ( v w x L U !.(.|.1.",
"2.3.4.5.6./.).D E F G H 2 3 u ) ~ { h I i 8 J K w x L U !.(.7.< ",
"8.9.4.5.6.` R S E F G f 2 3 u ! ~ { h I i T J K w x L U !.(.(.0.",
"a.b.c.^.%.` R  .E F C f 2 3 u ! ~ { h ^ / T &.K w x =.+.M V (.d.",
"e.b.c.^.%.` R  .D r C f 2 3 4 ! ~ { ] ^ / T &.( j *.=.+.-.V (.f.",
"g.b.c.^.%.` '.).D r e f 2 3 4 ! ~ 5 ] h 6 7 8 ( j k =.L -.!.(.h.",
"i.b.j.^.%.` /.).D r e f 2 3 4 ! ) ~ { h 6 i 8 ( j w x L -.!.(.k.",
"l.b.j.^.%.[./.).D }.e f H s 3 u ) ~ { h 6 i 8 ( v w x L U !.(.m.",
"n.c.j.4.5.6./.).D E F G H 2 3 u ) ~ { h I i 8 J K w x L U !.(.o.",
"! p.9.4.5.%.` R S E F G f 2 3 u ! ~ { h I i T J K w x L U !.q.a ",
"X r.b.c.^.%.` R  .E F C f 2 3 u ! ~ { h ^ / T &.K w x =.+.M s.t.",
". u.%.c.^.%.` R  .D r C f 2 3 4 ! ~ { ] ^ / T &.( j *.=.+.-.v.. ",
". t.w.c.^.%.` R x.y.z.e f 2 3 4 ! ~ 5 ] h 6 7 8 ( j k x L A.B.. ",
". . C.D.^.%.` E.F.G.H.I.f 2 3 4 ! ) ~ { h 6 i 8 ( j w x J.K.. . ",
". . X L.3.%.M.N.O.P.Q.R.S.H s 3 u ) ~ { h 6 i 8 ( v w x T.B . . ",
". . . U.V.5.W.X.Y.Z.`. +f H 2 3 u ) ~ { h I i 8 J K w .+B.. . . ",
". . . . + ++` @+#+$+%+&+G f 2 3 u ! ~ { h I / T J K *+=+. . . . ",
". . . . . -+;+>+,+'+)+C C f 2 3 u ! ~ { h ^ / T !+~+s . . . . . ",
". . . . . . ; {+]+S D r C f 2 3 4 ! ~ { ] ^ / ^+o./+. . . . . . ",
". . . . . . . . (+_+:+<+e f 2 3 4 ! ~ 5 [+}+|+1+. . . . . . . . ",
". . . . . . . . . . [ 2+3+% 4+5+& % 6+7+a 8+. . . . . . . . . . "};
