/* XPM */
static const char * knob27_xpm[] = {
"32 32 248 2",
"  	c None",
". 	c #A8B5A4",
"+ 	c #A9B6A5",
"@ 	c #B0B9AD",
"# 	c #ADB2AB",
"$ 	c #A8ABA7",
"% 	c #A4A6A4",
"& 	c #A1A1A1",
"* 	c #9E9F9E",
"= 	c #9E9F9D",
"- 	c #A0A49F",
"; 	c #A6ABA4",
"> 	c #ACB5A9",
", 	c #A9B5A5",
"' 	c #ABB7A8",
") 	c #ACB1AA",
"! 	c #A3A4A3",
"~ 	c #959595",
"{ 	c #929292",
"] 	c #919191",
"^ 	c #8F8F8F",
"/ 	c #8E8E8E",
"( 	c #8D8D8D",
"_ 	c #8C8C8C",
": 	c #8A8A8A",
"< 	c #898989",
"[ 	c #969796",
"} 	c #A4AAA3",
"| 	c #AAB5A6",
"1 	c #AEB4AC",
"2 	c #9FA09F",
"3 	c #939393",
"4 	c #909090",
"5 	c #979797",
"6 	c #8B8B8B",
"7 	c #858585",
"8 	c #848484",
"9 	c #828282",
"0 	c #A5ABA4",
"a 	c #A8AAA7",
"b 	c #949494",
"c 	c #7D7D7D",
"d 	c #757575",
"e 	c #767676",
"f 	c #777777",
"g 	c #797979",
"h 	c #818181",
"i 	c #7E7E7E",
"j 	c #989B98",
"k 	c #A9B4A5",
"l 	c #AAB6A7",
"m 	c #A0A2A0",
"n 	c #878787",
"o 	c #787878",
"p 	c #7A7A7A",
"q 	c #7B7B7B",
"r 	c #7C7C7C",
"s 	c #888888",
"t 	c #8C8D8C",
"u 	c #A8B3A5",
"v 	c #AAB5A7",
"w 	c #7F7F7F",
"x 	c #808080",
"y 	c #898A88",
"z 	c #A8B3A4",
"A 	c #A4A7A3",
"B 	c #838383",
"C 	c #727272",
"D 	c #707070",
"E 	c #8E918E",
"F 	c #A9AFA7",
"G 	c #908E8E",
"H 	c #9A7372",
"I 	c #A17372",
"J 	c #837575",
"K 	c #868686",
"L 	c #6E6E6E",
"M 	c #6D6D6D",
"N 	c #9BA199",
"O 	c #A9B5A6",
"P 	c #969695",
"Q 	c #BF6865",
"R 	c #FECDCB",
"S 	c #FDCFCD",
"T 	c #C8615E",
"U 	c #836F6F",
"V 	c #696969",
"W 	c #777776",
"X 	c #A7B2A4",
"Y 	c #8D7373",
"Z 	c #C15A57",
"` 	c #F4B0AE",
" .	c #EEABA9",
"..	c #B2524F",
"+.	c #7E4747",
"@.	c #686868",
"#.	c #656565",
"$.	c #959B93",
"%.	c #A8B5A5",
"&.	c #959695",
"*.	c #796262",
"=.	c #873635",
"-.	c #9E4847",
";.	c #954240",
">.	c #7A302F",
",.	c #613735",
"'.	c #626262",
").	c #767776",
"!.	c #A8B4A4",
"~.	c #A8B2A5",
"{.	c #7F7D7D",
"].	c #582B28",
"^.	c #5C2321",
"/.	c #57221F",
"(.	c #4A1E1A",
"_.	c #6A5A59",
":.	c #606060",
"<.	c #A1AA9E",
"[.	c #A1A69F",
"}.	c #797372",
"|.	c #5B423F",
"1.	c #543734",
"2.	c #6A5A58",
"3.	c #5B5B5B",
"4.	c #8C928A",
"5.	c #979A96",
"6.	c #969696",
"7.	c #6A6A6A",
"8.	c #595959",
"9.	c #7B7E7A",
"0.	c #8F918F",
"a.	c #989898",
"b.	c #999999",
"c.	c #737373",
"d.	c #565656",
"e.	c #6F706E",
"f.	c #888988",
"g.	c #9A9A9A",
"h.	c #9B9B9B",
"i.	c #9C9C9C",
"j.	c #535353",
"k.	c #686968",
"l.	c #858685",
"m.	c #9D9D9D",
"n.	c #9E9E9E",
"o.	c #505050",
"p.	c #666666",
"q.	c #868786",
"r.	c #9F9F9F",
"s.	c #A0A0A0",
"t.	c #6C6C6C",
"u.	c #4D4D4D",
"v.	c #8C8F8B",
"w.	c #6F6F6F",
"x.	c #A2A2A2",
"y.	c #5F5F5F",
"z.	c #4A4A4A",
"A.	c #717470",
"B.	c #A3A3A3",
"C.	c #A4A4A4",
"D.	c #474747",
"E.	c #838881",
"F.	c #A2AB9F",
"G.	c #A5A5A5",
"H.	c #A6A6A6",
"I.	c #A7A7A7",
"J.	c #464646",
"K.	c #99A196",
"L.	c #A7B3A3",
"M.	c #787978",
"N.	c #A8A8A8",
"O.	c #616161",
"P.	c #434343",
"Q.	c #595958",
"R.	c #A5B1A1",
"S.	c #91968F",
"T.	c #676767",
"U.	c #A9A9A9",
"V.	c #AAAAAA",
"W.	c #ABABAB",
"X.	c #444444",
"Y.	c #404040",
"Z.	c #7F847D",
"`.	c #A5B0A2",
" +	c #5E5E5E",
".+	c #ACACAC",
"++	c #575757",
"@+	c #3E3E3E",
"#+	c #4F504F",
"$+	c #A1AC9E",
"%+	c #90968E",
"&+	c #5C5C5C",
"*+	c #ADADAD",
"=+	c #AEAEAE",
"-+	c #3D3D3D",
";+	c #848A82",
">+	c #A7B4A3",
",+	c #787A77",
"'+	c #5A5A5A",
")+	c #AFAFAF",
"!+	c #B0B0B0",
"~+	c #3A3A3A",
"{+	c #646763",
"]+	c #A6B2A2",
"^+	c #A2AD9F",
"/+	c #696A69",
"(+	c #B1B1B1",
"_+	c #B2B2B2",
":+	c #3B3B3B",
"<+	c #383838",
"[+	c #515250",
"}+	c #A0AB9D",
"|+	c #656665",
"1+	c #4F4F4F",
"2+	c #4E4E4E",
"3+	c #B3B3B3",
"4+	c #373737",
"5+	c #9DA79A",
"6+	c #6F716E",
"7+	c #4C4C4C",
"8+	c #494949",
"9+	c #747474",
"0+	c #B4B4B4",
"a+	c #636363",
"b+	c #3C3C3C",
"c+	c #363636",
"d+	c #353535",
"e+	c #5A5C5A",
"f+	c #9DA89A",
"g+	c #858A83",
"h+	c #545454",
"i+	c #454545",
"j+	c #414141",
"k+	c #787D77",
"l+	c #A5B2A2",
"m+	c #7A7F79",
"n+	c #535453",
"o+	c #393939",
"p+	c #6F736E",
"q+	c #A3AFA0",
"r+	c #90978D",
"s+	c #737872",
"t+	c #5D5F5D",
"u+	c #484848",
"v+	c #4D4E4D",
"w+	c #5D5F5C",
"x+	c #727770",
"y+	c #8F978D",
". . . . . . . . . . + @ # $ % & * = - ; > , . . . . . . . . . . ",
". . . . . . . . ' ) ! ~ { ] ^ / ( _ : < < [ } | . . . . . . . . ",
". . . . . . . 1 2 3 { 4 ~ 5 { 4 4 { 3 6 7 8 9 / 0 . . . . . . . ",
". . . . . | a b ] { 5 6 c d d e f f g h 6 ^ h i i j k . . . . . ",
". . . . l m ] 4 ~ n e e e f o o g p q q r c ( s p g t u . . . . ",
". . . v 2 ^ ^ b q f f o g g p q r r c i i w x 7 _ f d y z . . . ",
". . . A / / 4 g o g p p q r c c i w w x h h 9 B 7 : C D E . . . ",
". . F ( 6 G H I J q r c i i w x x h 9 9 B 8 8 7 K s 8 L M N . . ",
". O P < G Q R S T U w w x h h 9 B B 8 7 7 K n n s < ( g V W X . ",
". } s < Y Z `  ...+.h 9 9 B 8 8 7 K K n s s < : 6 6 _ / @.#.$.. ",
"%.&.7 _ *.=.-.;.>.,.B 8 7 7 K n n s < < : 6 _ _ ( / / 4 f '.).!.",
"~.7 B 6 {.].^./.(._.K K n s s < : : 6 _ ( ( / ^ ^ 4 ] ] < :.:.<.",
"[.x n K 8 }.|.1.2.n s < < : 6 _ _ ( / / ^ 4 4 ] { { 3 b b '.3.4.",
"5.c s K K n s s < : : 6 _ ( ( / ^ ^ 4 ] ] { 3 3 b ~ ~ 6.5 7.8.9.",
"0.p n s < < : 6 6 _ ( / / ^ 4 4 ] { { 3 b b ~ 6.6.5 a.a.b.c.d.e.",
"f.o < : 6 _ _ ( / ^ ^ 4 ] ] { 3 3 b ~ ~ 6.5 5 a.b.b.g.h.i.e j.k.",
"l.d < ( ( / ^ 4 4 ] { { 3 b b ~ 6.6.5 a.a.b.g.h.h.i.m.m.n.d o.p.",
"q.C n ^ 4 ] ] { 3 3 b ~ ~ 6.5 5 a.b.b.g.h.h.i.m.n.n.r.s.s.t.u.k.",
"v.w.h { { 3 b b ~ 6.6.5 a.a.b.g.g.h.i.m.m.n.r.r.s.& & x.x.y.z.A.",
"$.t.e b ~ ~ 6.5 5 a.b.b.g.h.h.i.m.n.n.r.s.s.& x.x.B.C.C.n.o.D.E.",
"F.t.V ] 5 a.a.b.g.g.h.i.i.m.n.r.r.s.& & x.B.B.C.G.G.H.I.: J.J.K.",
"L.M.#.x b.g.h.h.i.m.m.n.r.s.s.& x.x.B.C.C.G.H.H.I.N.N.N.O.P.Q.R.",
". S.'.T.5 i.m.n.n.r.s.& & x.B.B.C.G.G.H.I.I.N.U.U.V.W.4 X.Y.Z.. ",
". `.M  +o n.r.s.& x.x.B.C.C.G.H.H.I.N.N.U.V.V.W..+.+N.++@+#+$+. ",
". . %+&+3.n x.B.B.C.G.G.H.I.I.N.U.U.V.W.W..+*+=+=+=+w.-+-+;+. . ",
". . >+,+++'+( G.H.H.I.N.N.U.V.V.W..+.+*+=+)+)+!+)+p @+~+{+]+. . ",
". . . ^+/+j.++8 I.U.U.V.W.W..+*+*+=+)+!+!+(+_+=+C :+<+[+}+. . . ",
". . . . }+|+1+2+7.n..+.+*+=+=+)+!+(+(+_+3+3+n.8.<+4+#+5+. . . . ",
". . . . . $+6+7+8+o.9+b.*+!+(+_+_+3+0+=+{ a+b+c+d+e+f+. . . . . ",
". . . . . . ]+g+h+i+X.X.o.T.d x i f O.8+<+c+d+j+k+l+. . . . . . ",
". . . . . . . . }+m+n+Y.@+-+b+:+o+<+4+c+d+i+p+5+. . . . . . . . ",
". . . . . . . . . . q+r+s+t+#+u+D.v+w+x+y+q+. . . . . . . . . . "};
