/* XPM */
static const char * knob16_xpm[] = {
"32 32 239 2",
"  	c None",
". 	c #A8B5A4",
"+ 	c #A7B4A3",
"@ 	c #9CA599",
"# 	c #868C84",
"$ 	c #707470",
"% 	c #636562",
"& 	c #595A59",
"* 	c #575857",
"= 	c #5E605D",
"- 	c #686B67",
"; 	c #7E847D",
"> 	c #949D92",
", 	c #A6B3A2",
"' 	c #A6B2A2",
") 	c #8B9289",
"! 	c #636462",
"~ 	c #494949",
"{ 	c #434343",
"] 	c #414141",
"^ 	c #404040",
"/ 	c #3E3E3E",
"( 	c #3C3C3C",
"_ 	c #3B3B3B",
": 	c #393939",
"< 	c #373737",
"[ 	c #383838",
"} 	c #4D4E4D",
"| 	c #797E77",
"1 	c #A2AD9E",
"2 	c #959D93",
"3 	c #626262",
"4 	c #4B4B4B",
"5 	c #474747",
"6 	c #4A4A4A",
"7 	c #555555",
"8 	c #616161",
"9 	c #686868",
"0 	c #5F5F5F",
"a 	c #515151",
"b 	c #3F3F3F",
"c 	c #363636",
"d 	c #353535",
"e 	c #454545",
"f 	c #80867E",
"g 	c #A7B3A3",
"h 	c #7F837E",
"i 	c #545454",
"j 	c #4F4F4F",
"k 	c #4D4D4D",
"l 	c #5E5E5E",
"m 	c #808080",
"n 	c #9C9C9C",
"o 	c #A5A5A5",
"p 	c #AAAAAA",
"q 	c #ABABAB",
"r 	c #ADADAD",
"s 	c #AEAEAE",
"t 	c #868686",
"u 	c #5B5B5B",
"v 	c #3A3A3A",
"w 	c #5F625E",
"x 	c #A2AE9F",
"y 	c #A6B1A2",
"z 	c #747674",
"A 	c #535353",
"B 	c #9F9F9F",
"C 	c #A3A3A3",
"D 	c #A4A4A4",
"E 	c #A6A6A6",
"F 	c #A8A8A8",
"G 	c #A9A9A9",
"H 	c #ACACAC",
"I 	c #B0B0B0",
"J 	c #B1B1B1",
"K 	c #B2B2B2",
"L 	c #949494",
"M 	c #525252",
"N 	c #535452",
"O 	c #9FAA9C",
"P 	c #787A77",
"Q 	c #595959",
"R 	c #585858",
"S 	c #717171",
"T 	c #989898",
"U 	c #9E9E9E",
"V 	c #A1A1A1",
"W 	c #A7A7A7",
"X 	c #AFAFAF",
"Y 	c #B3B3B3",
"Z 	c #6E6E6E",
"` 	c #535553",
" .	c #888C87",
"..	c #5C5C5C",
"+.	c #787878",
"@.	c #9A9A9A",
"#.	c #9D9D9D",
"$.	c #A2A2A2",
"%.	c #7F7F7F",
"&.	c #9EA69C",
"*.	c #666666",
"=.	c #606060",
"-.	c #777777",
";.	c #959595",
">.	c #979797",
",.	c #A0A0A0",
"'.	c #7F857D",
").	c #A8B4A4",
"!.	c #7A7A79",
"~.	c #656565",
"{.	c #929292",
"].	c #939393",
"^.	c #969696",
"/.	c #9B9B9B",
"(.	c #5D5D5D",
"_.	c #A0AB9D",
":.	c #9BA299",
"<.	c #696969",
"[.	c #8A8A8A",
"}.	c #909090",
"|.	c #919191",
"1.	c #999999",
"2.	c #424242",
"3.	c #787D76",
"4.	c #848584",
"5.	c #6C6C6C",
"6.	c #7A7A7A",
"7.	c #8E8E8E",
"8.	c #8F8F8F",
"9.	c #6A6A6A",
"0.	c #A5B2A2",
"a.	c #A8B1A4",
"b.	c #757575",
"c.	c #888888",
"d.	c #8C8C8C",
"e.	c #929A8F",
"f.	c #9FA59D",
"g.	c #737373",
"h.	c #8D8D8D",
"i.	c #7C817A",
"j.	c #979B96",
"k.	c #878787",
"l.	c #8B8B8B",
"m.	c #444444",
"n.	c #696B68",
"o.	c #929492",
"p.	c #838383",
"q.	c #858585",
"r.	c #7C7C7C",
"s.	c #5F605F",
"t.	c #919291",
"u.	c #7B7B7B",
"v.	c #818181",
"w.	c #848484",
"x.	c #898989",
"y.	c #5A5A5A",
"z.	c #939493",
"A.	c #7D7D7D",
"B.	c #828282",
"C.	c #4C4C4C",
"D.	c #989A98",
"E.	c #656564",
"F.	c #9DA19D",
"G.	c #6F716F",
"H.	c #A6ACA4",
"I.	c #7E7E7E",
"J.	c #838781",
"K.	c #ACB5A9",
"L.	c #797979",
"M.	c #969E94",
"N.	c #9A9B9A",
"O.	c #676867",
"P.	c #A7ADA5",
"Q.	c #858984",
"R.	c #AAB6A7",
"S.	c #989998",
"T.	c #A3AEA0",
"U.	c #ABB2A9",
"V.	c #767676",
"W.	c #735C5B",
"X.	c #572E2B",
"Y.	c #4B2825",
"Z.	c #634F4E",
"`.	c #888787",
" +	c #90958F",
".+	c #A9B5A5",
"++	c #A7A9A6",
"@+	c #826E6E",
"#+	c #903938",
"$+	c #833534",
"%+	c #632624",
"&+	c #461C19",
"*+	c #6F6160",
"=+	c #7F817F",
"-+	c #ACB7A8",
";+	c #A4A5A3",
">+	c #9D6462",
",+	c #DD817E",
"'+	c #D37C79",
")+	c #93413F",
"!+	c #5F2522",
"~+	c #593F3D",
"{+	c #A5AFA2",
"]+	c #ADB7A9",
"^+	c #9A706F",
"/+	c #FDCCCB",
"(+	c #FEDEDC",
"_+	c #C36966",
":+	c #772E2D",
"<+	c #675351",
"[+	c #727272",
"}+	c #A3ADA0",
"|+	c #ACB7A9",
"1+	c #A8AAA7",
"2+	c #7A7878",
"3+	c #CA807E",
"4+	c #F19A98",
"5+	c #BE5653",
"6+	c #7E4140",
"7+	c #7E7C7B",
"8+	c #868786",
"9+	c #A6B0A2",
"0+	c #A9B6A5",
"a+	c #ADB2AB",
"b+	c #8C8B8B",
"c+	c #98807F",
"d+	c #937B7B",
"e+	c #8A8989",
"f+	c #999D97",
"g+	c #ABAFAA",
"h+	c #9A9E99",
"i+	c #A8B2A5",
"j+	c #AAB6A6",
"k+	c #ACB4AA",
"l+	c #A6ABA5",
"m+	c #A1A3A1",
"n+	c #999B99",
"o+	c #9FA29E",
"p+	c #A9B4A5",
". . . . . . . . . . + @ # $ % & * = - ; > , . . . . . . . . . . ",
". . . . . . . . ' ) ! ~ { ] ^ / ( _ : < [ } | 1 . . . . . . . . ",
". . . . . . . 2 3 4 ~ 5 6 7 8 9 9 0 a b [ c d e f g . . . . . . ",
". . . . . g h i j k l m n o p q r s s o t u v c c w x . . . . . ",
". . . . y z 7 A 0 t B C D E F G q H s I J K L M < d N O . . . . ",
". . . g P Q R S T U B V C D E W G q H s X J Y r Z _ c ` x . . . ",
". . .  .l ..+.T @.n #.B V $.D o W G p H r X J K Y %.( < w , . . ",
". . &.*.=.-.;.>.T @.n #.B ,.$.D o W F p H r X I K Y +.v : '.. . ",
". ).!.~.Z {.].;.^.T @./.#.U ,.$.C o E F p q r s I K I (.v 5 _.. ",
". :.<.9 [.}.|.].;.^.T 1./.#.U ,.V C o E F G q r s I J n 2._ 3.. ",
". 4.5.6.7.7.8.|.].L ^.>.1./.n U B V C D E F G q H s I J 9./ j 0.",
"a.b.Z c.[.d.7.8.|.{.L ^.>.1.@.n U B V $.D E W G p H s X ;.] ^ e.",
"f.g.g.h.c.[.d.h.8.|.{.L ;.>.1.@.n #.B V $.D o W G p H r H a 2.i.",
"j.b.m k.k.c.[.l.h.8.}.{.].;.>.T @./.#.B ,.$.C o W F p q r <.m.n.",
"o.+.c.p.q.t c.[.l.h.7.}.{.].;.^.T @./.#.U ,.$.C o E F p q r.5 s.",
"t.u.[.v.p.w.t c.x.l.d.7.}.|.].L ^.T 1./.n U ,.V C D E F G v.6 y.",
"z.A.l.%.v.p.w.t k.x.l.d.7.8.|.].L ^.>.1./.n U B V C D E W B.C...",
"D.m h.A.%.v.B.w.q.k.x.[.d.h.8.|.{.L ;.>.1.@.n #.B V $.D o %.j E.",
"F.p.7.A.A.%.m B.w.q.k.c.[.d.h.8.}.{.L ;.>.T @.n #.B ,.$.D -.M G.",
"H.q.k.w.u.A.I.m B.p.q.t c.[.l.h.7.}.{.].;.^.T @./.#.B ,.V *.i J.",
"K.[.t l.L.u.A.I.m v.p.q.t c.x.l.h.7.}.|.].;.^.T 1./.#.U >.u R M.",
". N.x.].L.L.u.r.I.%.v.p.w.t c.x.l.d.7.}.|.].L ^.T 1./.n B.u O.' ",
". P.d.d.[.-.L.6.r.I.%.v.B.w.t k.x.[.d.7.8.|.{.L ^.>.1.>.<.l Q.. ",
". R.S.h.L u.-.L.6.r.A.%.v.B.w.q.k.x.[.d.h.8.|.{.L ;.>.v.3 9.T.. ",
". . U.|.7.].V.-.+.6.u.A.%.m W.X.Y.Z.`.[.l.h.8.}.{.].d.<.~. +. . ",
". . .+++}.}.{.b.V.+.6.u.A.@+#+$+%+&+*+c.[.l.h.7.}.8.S <.=+g . . ",
". . . -+;+|.|.].+.V.+.L.u.>+,+'+)+!+~+t c.x.l.h.h.b.Z 6.{+. . . ",
". . . . ]+;+{.|.T w.V.-.L.^+/+(+_+:+<+w.t k.d.x.b.[+A.}+. . . . ",
". . . . . |+1+L |.L ].x.6.2+3+4+5+6+7+p.l.[.%.+.V.8+9+. . . . . ",
". . . . . . 0+a+n {.|.}.>.|.b+c+d+e+l.d.p.I.r.v.f+).. . . . . . ",
". . . . . . . . ]+g+B {.}.7.d.l.x.k.t w.p.l.h+i+. . . . . . . . ",
". . . . . . . . . . j+k+l+m+#.T ^.>.n+o+H.p+. . . . . . . . . . "};
