/* XPM */
static const char * knob24_xpm[] = {
"32 32 248 2",
"  	c None",
". 	c #A8B5A4",
"+ 	c #ABB5A9",
"@ 	c #A6ABA4",
"# 	c #9DA09C",
"$ 	c #979997",
"% 	c #919291",
"& 	c #8F908F",
"* 	c #909290",
"= 	c #949793",
"- 	c #9DA29B",
"; 	c #A6AFA4",
"> 	c #A8B4A4",
", 	c #AAB6A6",
"' 	c #A7ADA6",
") 	c #9A9B9A",
"! 	c #8B8B8B",
"~ 	c #868686",
"{ 	c #838383",
"] 	c #808080",
"^ 	c #7E7E7E",
"/ 	c #7B7B7B",
"( 	c #787878",
"_ 	c #767676",
": 	c #737373",
"< 	c #818281",
"[ 	c #979D96",
"} 	c #A8B3A4",
"| 	c #A8B5A5",
"1 	c #ABB2A9",
"2 	c #999A99",
"3 	c #8C8C8C",
"4 	c #898989",
"5 	c #878787",
"6 	c #888888",
"7 	c #8E8E8E",
"8 	c #8D8D8D",
"9 	c #828282",
"0 	c #747474",
"a 	c #6F6F6F",
"b 	c #6C6C6C",
"c 	c #696969",
"d 	c #9AA198",
"e 	c #ABB6A7",
"f 	c #A9ABA8",
"g 	c #929292",
"h 	c #939393",
"i 	c #7D7D7D",
"j 	c #7F7F7F",
"k 	c #818181",
"l 	c #656565",
"m 	c #646464",
"n 	c #838683",
"o 	c #A7B2A3",
"p 	c #ACB7A8",
"q 	c #A6A8A6",
"r 	c #909090",
"s 	c #797979",
"t 	c #858585",
"u 	c #8A8A8A",
"v 	c #717171",
"w 	c #616161",
"x 	c #5E5E5E",
"y 	c #737472",
"z 	c #A4AFA1",
"A 	c #A7A8A6",
"B 	c #919191",
"C 	c #8F8F8F",
"D 	c #949494",
"E 	c #7C7C7C",
"F 	c #777777",
"G 	c #848484",
"H 	c #5D5D5D",
"I 	c #5A5A5A",
"J 	c #6F716F",
"K 	c #A6B1A2",
"L 	c #AAADA9",
"M 	c #959595",
"N 	c #585858",
"O 	c #555555",
"P 	c #7A7D79",
"Q 	c #A7B4A4",
"R 	c #ADB4AB",
"S 	c #7A7A7A",
"T 	c #979797",
"U 	c #989898",
"V 	c #545454",
"W 	c #535353",
"X 	c #91988F",
"Y 	c #A0A1A0",
"Z 	c #969696",
"` 	c #9A9A9A",
" .	c #999999",
"..	c #626262",
"+.	c #4F4F4F",
"@.	c #A5B0A1",
"#.	c #ADB2AB",
"$.	c #9C9C9C",
"%.	c #9E9E9E",
"&.	c #4E4E4E",
"*.	c #4B4B4B",
"=.	c #868C85",
"-.	c #A3A4A2",
";.	c #9B9B9B",
">.	c #9D9D9D",
",.	c #9F9F9F",
"'.	c #A0A0A0",
").	c #636363",
"!.	c #494949",
"~.	c #5F605F",
"{.	c #A7B3A3",
"].	c #ACB5A9",
"^.	c #A1A1A1",
"/.	c #A3A3A3",
"(.	c #484848",
"_.	c #99A196",
":.	c #A8AFA6",
"<.	c #A2A2A2",
"[.	c #A4A4A4",
"}.	c #4D4D4D",
"|.	c #434343",
"1.	c #828780",
"2.	c #A4A7A3",
"3.	c #797878",
"4.	c #967170",
"5.	c #A06563",
"6.	c #846B6B",
"7.	c #A6A6A6",
"8.	c #595959",
"9.	c #414141",
"0.	c #6D6F6B",
"a.	c #BC7B79",
"b.	c #FDCAC8",
"c.	c #E48D8B",
"d.	c #973D3C",
"e.	c #725352",
"f.	c #A8A8A8",
"g.	c #A9A9A9",
"h.	c #666666",
"i.	c #404040",
"j.	c #5F605E",
"k.	c #928786",
"l.	c #EA8A87",
"m.	c #FFDFDE",
"n.	c #DB8A87",
"o.	c #893837",
"p.	c #552623",
"q.	c #A5A5A5",
"r.	c #A7A7A7",
"s.	c #ABABAB",
"t.	c #6D6D6D",
"u.	c #3E3E3E",
"v.	c #565756",
"w.	c #908383",
"x.	c #B9524F",
"y.	c #C56A67",
"z.	c #994543",
"A.	c #682826",
"B.	c #47201C",
"C.	c #868585",
"D.	c #ADADAD",
"E.	c #6E6E6E",
"F.	c #3C3C3C",
"G.	c #555654",
"H.	c #9B9C9A",
"I.	c #7E4848",
"J.	c #782F2E",
"K.	c #622624",
"L.	c #471D19",
"M.	c #5C4442",
"N.	c #AAAAAA",
"O.	c #ACACAC",
"P.	c #AEAEAE",
"Q.	c #3B3B3B",
"R.	c #595B59",
"S.	c #9D9F9C",
"T.	c #7F7D7D",
"U.	c #6A5756",
"V.	c #583E3B",
"W.	c #6B5B5A",
"X.	c #878686",
"Y.	c #AFAFAF",
"Z.	c #393939",
"`.	c #636662",
" +	c #A3A7A1",
".+	c #B0B0B0",
"++	c #424242",
"@+	c #373737",
"#+	c #797E77",
"$+	c #A8B0A5",
"%+	c #B1B1B1",
"&+	c #383838",
"*+	c #90998D",
"=+	c #909190",
"-+	c #B2B2B2",
";+	c #494948",
">+	c #A5B1A1",
",+	c #9FA49D",
"'+	c #353535",
")+	c #737872",
"!+	c #A8B3A5",
"~+	c #363636",
"{+	c #9FAA9C",
"]+	c #9DA39B",
"^+	c #757575",
"/+	c #B3B3B3",
"(+	c #797F78",
"_+	c #8B8D8A",
":+	c #727272",
"<+	c #595B58",
"[+	c #A5B2A2",
"}+	c #818280",
"|+	c #707070",
"1+	c #4D4E4C",
"2+	c #A0AB9C",
"3+	c #A5AFA1",
"4+	c #7D7E7D",
"5+	c #6A6A6A",
"6+	c #686868",
"7+	c #4D4E4D",
"8+	c #9BA698",
"9+	c #828482",
"0+	c #454545",
"a+	c #585A58",
"b+	c #929891",
"c+	c #6B6B6B",
"d+	c #5C5C5C",
"e+	c #676767",
"f+	c #565656",
"g+	c #787C76",
"h+	c #A4AEA0",
"i+	c #868A85",
"j+	c #676867",
"k+	c #525252",
"l+	c #4A4A4A",
"m+	c #474747",
"n+	c #70746F",
"o+	c #9DA79A",
"p+	c #969D93",
"q+	c #818680",
"r+	c #6E6F6D",
"s+	c #626362",
"t+	c #575757",
"u+	c #5B5B5B",
"v+	c #636563",
"w+	c #777B75",
"x+	c #8C948A",
"y+	c #A3AFA0",
". . . . . . . . . . . + @ # $ % & * = - ; > . . . . . . . . . . ",
". . . . . . . . , ' ) ! ~ { ] ^ / ( _ : : < [ } . . . . . . . . ",
". . . . . . | 1 2 3 4 5 6 7 8 3 ! 6 9 0 a b c _ d . . . . . . . ",
". . . . . e f g 8 3 h ! { i i j k { ~ 3 4 i c l m n o . . . . . ",
". . . . p q r 7 h ! s s / i j k { t ~ 6 u 8 3 v w x y z . . . . ",
". . . e A B C D E F s / i j k 9 G ~ 6 u 3 7 r g E H I J K . . . ",
". . | L g r h F F s / E ^ ] 9 G ~ 6 u 3 8 C B h M i N O P Q . . ",
". . R M B D _ _ ( S E ^ ] 9 G ~ 5 4 ! 8 C B h M T U _ V W X . . ",
". e Y g U S _ ( S E ^ ] 9 { t 5 4 ! 8 C B h D Z U `  ...+.x @.. ",
". #.h g 6 _ ( S E i j k { t 5 4 ! 8 7 r g D Z U ` $.%.! &.*.=.. ",
". -.B M _ F s / i j k { t 5 4 u 3 7 r g D Z U ` ;.>.,.'.).!.~.{.",
"].D r 3 F s / i j k { G ~ 6 u 3 7 r g D M T  .;.>.,.^./.t (.(._.",
":.r D j s / i ^ ] 9 G ~ 6 u 3 7 C B h M T  .;.>.,.^.<.[.%.}.|.1.",
"2.C D 3.4.5.6.] 9 G ~ 6 u ! 8 C B h M T  .;.$.%.'.<.[.7.7.8.9.0.",
"Y 8 7 a.b.c.d.e.G t 5 4 ! 8 C B h M Z U ` $.%.'.<.[.7.f.g.h.i.j.",
"$.! k.l.m.n.o.p.G 5 4 ! 8 C r g D Z U ` $.%.'.<./.q.r.g.s.t.u.v.",
") 4 w.x.y.z.A.B.C.4 ! 3 7 r g D Z U ` $.>.,.^./.q.r.g.s.D.E.F.G.",
"H.6 ! I.J.K.L.M.6 u 3 7 r g D Z U  .;.>.,.^./.q.r.g.N.O.P.l Q.R.",
"S.~ 3 T.U.V.W.X.u 3 7 r g h M T  .;.>.,.^./.[.7.f.N.O.P.Y.O Z.`.",
" +G u G G ~ 6 u 3 8 C B h M T  .;.>.%.'.<.[.7.f.N.O.P..+f.++@+#+",
"$+G k 3 ~ 5 4 ! 8 C B h M T  .` $.%.'.<.[.7.f.N.s.D.Y.%+8 &+@+*+",
". =+^ 4 5 4 ! 8 C B h D Z U ` $.%.'.<.[.q.r.g.s.D.Y.%+-+w @+;+>+",
". ,+i i 3 ! 8 7 r g D Z U ` $.%.,.^./.q.r.g.s.D.Y.%+-+` F.'+)+. ",
". !+~ ( ~ 8 7 r g D Z U ` ;.>.,.^./.q.r.g.s.O.P..+-+Y.N ~+9.{+. ",
". . ]+F ^+! r g D M T  .;.>.,.^./.q.7.f.N.O.P..+-+/+_ @+'+(+. . ",
". . > _+:+0 8 h M T  .;.>.,.'.<.[.7.f.N.O.P..+-+/+~ F.'+<+[+. . ",
". . . o }+E.|+u T  .;.$.%.'.<.[.7.f.N.O.D.Y.%+%+] u.~+1+2+. . . ",
". . . . 3+4+5+6+] T $.%.'.<.[.7.r.g.s.D.Y.%+^.m Q.@+7+8+. . . . ",
". . . . . K 9+h.).c k T ^./.q.r.g.s.D.D.` |+0+Q.Z.a+2+. . . . . ",
". . . . . . {.b+c+x d+d+e+( 9 t G ] a f+|.u.F.|.g+>+. . . . . . ",
". . . . . . . . h+i+j+N O k++.}.l+m+0+++i.*.n+o+. . . . . . . . ",
". . . . . . . . . . K p+q+r+s+I t+u+v+w+x+y+. . . . . . . . . . "};
