/* XPM */
static const char * knob25_xpm[] = {
"32 32 247 2",
"  	c None",
". 	c #A8B5A4",
"+ 	c #A9B5A5",
"@ 	c #ACB6A9",
"# 	c #A6ACA4",
"$ 	c #A0A49F",
"% 	c #9B9D9B",
"& 	c #989998",
"* 	c #969796",
"= 	c #979896",
"- 	c #999C99",
"; 	c #A0A69F",
"> 	c #A9B2A7",
", 	c #A8B4A4",
"' 	c #ABB7A8",
") 	c #ACB1AA",
"! 	c #9E9F9E",
"~ 	c #8F8F8F",
"{ 	c #8B8B8B",
"] 	c #898989",
"^ 	c #878787",
"/ 	c #848484",
"( 	c #828282",
"_ 	c #808080",
": 	c #7E7E7E",
"< 	c #7B7B7B",
"[ 	c #8A8B8A",
"} 	c #9DA29B",
"| 	c #A8B3A4",
"1 	c #AFB5AD",
"2 	c #9FA09F",
"3 	c #909090",
"4 	c #8E8E8E",
"5 	c #929292",
"6 	c #8C8C8C",
"7 	c #8D8D8D",
"8 	c #8A8A8A",
"9 	c #777777",
"0 	c #757575",
"a 	c #727272",
"b 	c #7F7F7F",
"c 	c #9DA39B",
"d 	c #ABAEAA",
"e 	c #959595",
"f 	c #797979",
"g 	c #7A7A7A",
"h 	c #7D7D7D",
"i 	c #818181",
"j 	c #717171",
"k 	c #6E6E6E",
"l 	c #6D6D6D",
"m 	c #8A8D89",
"n 	c #A7B3A4",
"o 	c #ACB7A8",
"p 	c #A5A6A4",
"q 	c #787878",
"r 	c #7C7C7C",
"s 	c #838383",
"t 	c #858585",
"u 	c #696969",
"v 	c #676767",
"w 	c #7D7E7D",
"x 	c #A6B1A3",
"y 	c #A4A5A3",
"z 	c #919191",
"A 	c #949494",
"B 	c #767676",
"C 	c #888888",
"D 	c #656565",
"E 	c #636363",
"F 	c #797B79",
"G 	c #A6B2A3",
"H 	c #AAACA9",
"I 	c #939393",
"J 	c #868686",
"K 	c #616161",
"L 	c #5E5E5E",
"M 	c #7F827E",
"N 	c #AEB4AC",
"O 	c #5C5C5C",
"P 	c #5B5B5B",
"Q 	c #929990",
"R 	c #AAB5A6",
"S 	c #9E9E9E",
"T 	c #969696",
"U 	c #686868",
"V 	c #585858",
"W 	c #656665",
"X 	c #A5B1A2",
"Y 	c #A9AFA7",
"Z 	c #989898",
"` 	c #575757",
" .	c #535353",
"..	c #8C918A",
"+.	c #979797",
"@.	c #9A9A9A",
"#.	c #9B9B9B",
"$.	c #515151",
"%.	c #676867",
"&.	c #A7B3A3",
"*.	c #ADB6AA",
"=.	c #987574",
"-.	c #B3706E",
";.	c #946463",
">.	c #7F7C7C",
",.	c #999999",
"'.	c #9C9C9C",
").	c #9D9D9D",
"!.	c #4F4F4F",
"~.	c #9DA69A",
"{.	c #A7ACA5",
"].	c #AC7472",
"^.	c #FDCAC9",
"/.	c #FCCBC9",
"(.	c #BD5856",
"_.	c #7D4444",
":.	c #9F9F9F",
"<.	c #4A4A4A",
"[.	c #858A83",
"}.	c #A0A39F",
"|.	c #8F8E8E",
"1.	c #C55F5D",
"2.	c #F9BDBA",
"3.	c #EBA5A3",
"4.	c #A14947",
"5.	c #682826",
"6.	c #787170",
"7.	c #A0A0A0",
"8.	c #A1A1A1",
"9.	c #5D5D5D",
"0.	c #484848",
"a.	c #717470",
"b.	c #974443",
"c.	c #AB514F",
"d.	c #984543",
"e.	c #712C2B",
"f.	c #4B1E1B",
"g.	c #7A7473",
"h.	c #A3A3A3",
"i.	c #A5A5A5",
"j.	c #6B6B6B",
"k.	c #464646",
"l.	c #626361",
"m.	c #979897",
"n.	c #765A59",
"o.	c #672826",
"p.	c #5C2421",
"q.	c #481D1A",
"r.	c #533633",
"s.	c #A2A2A2",
"t.	c #A6A6A6",
"u.	c #707070",
"v.	c #444444",
"w.	c #5A5B5A",
"x.	c #959695",
"y.	c #716564",
"z.	c #5D4644",
"A.	c #6A5A59",
"B.	c #858383",
"C.	c #A4A4A4",
"D.	c #A7A7A7",
"E.	c #A8A8A8",
"F.	c #424242",
"G.	c #595959",
"H.	c #959594",
"I.	c #A9A9A9",
"J.	c #AAAAAA",
"K.	c #3F3F3F",
"L.	c #5D5F5D",
"M.	c #999C98",
"N.	c #ABABAB",
"O.	c #565656",
"P.	c #3D3D3D",
"Q.	c #696C68",
"R.	c #9FA49D",
"S.	c #ADADAD",
"T.	c #454545",
"U.	c #3B3B3B",
"V.	c #7C827B",
"W.	c #A7B0A4",
"X.	c #ACACAC",
"Y.	c #AFAFAF",
"Z.	c #3C3C3C",
"`.	c #969F94",
" +	c #878786",
".+	c #B0B0B0",
"++	c #393939",
"@+	c #4E4F4E",
"#+	c #A4B0A0",
"$+	c #989E97",
"%+	c #747474",
"&+	c #AEAEAE",
"*+	c #B1B1B1",
"=+	c #373737",
"-+	c #787E77",
";+	c #A7B2A3",
">+	c #7D7D7C",
",+	c #434343",
"'+	c #9EA99B",
")+	c #999F97",
"!+	c #B2B2B2",
"~+	c #383838",
"{+	c #353535",
"]+	c #7B817A",
"^+	c #878A86",
"/+	c #B3B3B3",
"(+	c #3A3A3A",
"_+	c #5B5D5A",
":+	c #A5B1A1",
"<+	c #A5B0A2",
"[+	c #7A7B79",
"}+	c #4A4A49",
"|+	c #9EA89A",
"1+	c #A4AEA0",
"2+	c #767775",
"3+	c #606060",
"4+	c #4A4B4A",
"5+	c #9AA497",
"6+	c #A4AFA1",
"7+	c #7B7D7A",
"8+	c #5A5A5A",
"9+	c #5F5F5F",
"0+	c #6C6C6C",
"a+	c #414141",
"b+	c #363636",
"c+	c #8B918A",
"d+	c #626262",
"e+	c #555555",
"f+	c #545454",
"g+	c #3E3E3E",
"h+	c #434342",
"i+	c #7B8179",
"j+	c #A6B2A2",
"k+	c #A1AB9D",
"l+	c #828781",
"m+	c #4C4C4C",
"n+	c #70756F",
"o+	c #9DA89A",
"p+	c #969E94",
"q+	c #7C817B",
"r+	c #696A67",
"s+	c #5B5C5B",
"t+	c #525252",
"u+	c #5E5F5D",
"v+	c #70746F",
"w+	c #8D958B",
"x+	c #A1AD9E",
". . . . . . . . . . + @ # $ % & * = - ; > , . . . . . . . . . . ",
". . . . . . . . ' ) ! ~ { ] ^ / ( _ : < < [ } | . . . . . . . . ",
". . . . . . + 1 2 3 4 { ~ 5 4 6 7 7 8 : 9 0 a b c . . . . . . . ",
". . . . . ' d e 3 ~ e 6 ( f g < h : i 8 6 i j k l m n . . . . . ",
". . . . o p 5 3 e ] 9 9 q g r h b _ ( s t ^ { f u v w x . . . . ",
". . . ' y 5 z A < B 9 f g r : b i ( / t ^ C 8 4 i D E F G . . . ",
". . + H I 5 I B B q f < r : b i s / J ^ ] 8 6 7 3 s K L M , . . ",
". . N A 3 A B 9 q g < h : _ i s / J C ] { 6 4 ~ z I < O P Q . . ",
". R S 3 T g 9 q g r h b _ ( s t J C ] { 7 4 3 z I A e U V W X . ",
". Y z z ] 9 f g r : b i ( / t ^ C 8 { 7 ~ 3 5 I e T Z 6 `  .... ",
"+ 2 4 e q f < r : b i s / J ^ ] 8 6 7 ~ 3 5 A e +.Z @.#.u $.%.&.",
"*.z 6 ] =.-.;.>._ i s / J C ] { 6 4 ~ z 5 A e +.,.@.'.).t !.!.~.",
"{.6 ~ ].^./.(._.i s t J C 8 { 7 4 3 z I A T +.,.#.'.S :.,.$.<.[.",
"}.8 |.1.2.3.4.5.6.t ^ C 8 { 7 ~ 3 5 I e T Z ,.#.'.S 7.8.8.9.0.a.",
"% C { b.c.d.e.f.g.^ ] 8 6 7 ~ 3 5 A e +.Z @.#.).S 7.8.h.i.j.k.l.",
"m.J 8 n.o.p.q.r.^ ] { 6 4 ~ z 5 A T +.,.@.'.).:.7.s.h.i.t.u.v.w.",
"x./ { ( y.z.A.B.8 { 7 4 3 z I A T +.,.#.'.S :.8.s.C.i.D.E.u.F.G.",
"H.i 6 / t ^ C 8 { 7 ~ 3 5 I e T Z ,.#.'.S 7.8.h.C.t.D.I.J.D K.L.",
"M.b ] J ^ ] 8 6 7 ~ 3 5 A e +.Z @.#.).S 7.8.h.i.t.E.I.N.N.O.P.Q.",
"R.h ( ] ] { 6 4 ~ z 5 A T +.,.@.'.).:.7.s.h.i.D.E.J.N.S.h.T.U.V.",
"W.h f 4 { 7 4 3 z I A T +.,.#.'.S :.8.s.C.i.D.E.J.X.S.Y.6 U.Z.`.",
",  +9 ^ 7 ~ 3 5 I e T Z ,.#.'.S 7.8.h.C.t.D.I.J.X.S.Y..+O ++@+#+",
". $+%+9 3 z 5 A e +.Z @.#.).S 7.s.h.i.t.E.I.N.X.&+Y.*++.Z.=+-+. ",
". ;+>+u.( 5 A T +.,.@.'.).:.7.s.h.i.D.E.J.N.S.&+.+*+.+O.=+,+'+. ",
". . )+k l 8 T +.,.#.'.S :.8.s.C.i.D.E.J.X.S.Y..+!+!+B ~+{+]+. . ",
". . , ^+u j.4 ,.#.'.S 7.8.h.C.t.D.I.J.X.S.Y.*+!+/+_ (+{+_+:+. . ",
". . . <+[+D U 8 ).S 7.s.h.i.t.E.I.N.X.&+Y.*+/+*+q (+{+}+|+. . . ",
". . . . 1+2+3+K f @.s.h.i.D.E.J.N.S.&+.+*+/+h.3+++{+4+5+. . . . ",
". . . . . 6+7+O 8+9+r @.i.E.J.X.S.Y..+S.#.0+a+=+b+_+'+. . . . . ",
". . . . . . &.c+d+e+ .f+L k h ^ / < U $.g+(+~+h+i+j+. . . . . . ",
". . . . . . . . k+l+3+!.m+<.0.T.,+a+K.Z.U.0.n+o+. . . . . . . . ",
". . . . . . . . . . #+p+q+r+s+ .$.t+u+v+w+x+. . . . . . . . . . "};
