/* XPM */
static const char * knob23_xpm[] = {
"32 32 257 2",
"  	c None",
". 	c #A8B5A4",
"+ 	c #ABB5A8",
"@ 	c #A2A8A1",
"# 	c #989B97",
"$ 	c #919290",
"% 	c #8C8C8B",
"& 	c #898989",
"* 	c #898A89",
"= 	c #8E918D",
"- 	c #979C95",
"; 	c #A5AEA2",
"> 	c #A8B4A4",
", 	c #AAB5A7",
"' 	c #A7ACA4",
") 	c #969796",
"! 	c #848484",
"~ 	c #7E7E7E",
"{ 	c #7C7C7C",
"] 	c #797979",
"^ 	c #767676",
"/ 	c #737373",
"( 	c #707070",
"_ 	c #6D6D6D",
": 	c #6A6A6A",
"< 	c #696969",
"[ 	c #7A7B7A",
"} 	c #949A93",
"| 	c #A7B2A3",
"1 	c #AAB0A7",
"2 	c #868686",
"3 	c #838383",
"4 	c #808080",
"5 	c #828282",
"6 	c #888888",
"7 	c #7B7B7B",
"8 	c #6E6E6E",
"9 	c #666666",
"0 	c #636363",
"a 	c #606060",
"b 	c #6D6D6C",
"c 	c #949A92",
"d 	c #AAB6A6",
"e 	c #A3A7A2",
"f 	c #8C8C8C",
"g 	c #8E8E8E",
"h 	c #8D8D8D",
"i 	c #818181",
"j 	c #919191",
"k 	c #757575",
"l 	c #5C5C5C",
"m 	c #5A5A5A",
"n 	c #7C7F7B",
"o 	c #A5B1A2",
"p 	c #ABB6A7",
"q 	c #A0A19F",
"r 	c #8A8A8A",
"s 	c #909090",
"t 	c #7D7D7D",
"u 	c #7F7F7F",
"v 	c #858585",
"w 	c #878787",
"x 	c #939393",
"y 	c #686868",
"z 	c #585858",
"A 	c #555555",
"B 	c #6E6F6D",
"C 	c #A4AFA0",
"D 	c #ABB7A8",
"E 	c #A3A5A3",
"F 	c #8F8F8F",
"G 	c #949494",
"H 	c #8B8B8B",
"I 	c #969696",
"J 	c #545454",
"K 	c #515151",
"L 	c #6B6C6A",
"M 	c #A5B0A1",
"N 	c #A8B5A5",
"O 	c #ABAEAA",
"P 	c #787878",
"Q 	c #959595",
"R 	c #979797",
"S 	c #999999",
"T 	c #9A9A9A",
"U 	c #505050",
"V 	c #4D4D4D",
"W 	c #757874",
"X 	c #A7B4A3",
"Y 	c #AFB6AD",
"Z 	c #777777",
"` 	c #7A7A7A",
" .	c #929292",
"..	c #989898",
"+.	c #9C9C9C",
"@.	c #9D9D9D",
"#.	c #6F6F6F",
"$.	c #4C4C4C",
"%.	c #4A4A4A",
"&.	c #8D938B",
"*.	c #A1A2A1",
"=.	c #9B9B9B",
"-.	c #9E9E9E",
";.	c #A0A0A0",
">.	c #5B5B5B",
",.	c #484848",
"'.	c #585857",
").	c #A3AE9F",
"!.	c #ADB3AB",
"~.	c #9F9F9F",
"{.	c #A1A1A1",
"].	c #A3A3A3",
"^.	c #444444",
"/.	c #838881",
"(.	c #A9B5A5",
"_.	c #A3A4A2",
":.	c #A2A2A2",
"<.	c #A4A4A4",
"[.	c #A5A5A5",
"}.	c #5F5F5F",
"|.	c #424242",
"1.	c #A6B2A2",
"2.	c #AFB8AC",
"3.	c #A6A6A6",
"4.	c #A8A8A8",
"5.	c #414141",
"6.	c #9AA397",
"7.	c #ACB2AA",
"8.	c #A7A7A7",
"9.	c #A9A9A9",
"0.	c #464646",
"a.	c #3D3D3D",
"b.	c #7F857D",
"c.	c #A7ABA6",
"d.	c #AAAAAA",
"e.	c #ABABAB",
"f.	c #3C3C3C",
"g.	c #686B68",
"h.	c #A2A4A1",
"i.	c #ADADAD",
"j.	c #3B3B3B",
"k.	c #5A5C59",
"l.	c #9FA19F",
"m.	c #887372",
"n.	c #946463",
"o.	c #816969",
"p.	c #818080",
"q.	c #ACACAC",
"r.	c #AFAFAF",
"s.	c #3A3A3A",
"t.	c #50504F",
"u.	c #9FA09F",
"v.	c #9C7675",
"w.	c #F2A6A4",
"x.	c #DB7C79",
"y.	c #903A39",
"z.	c #684442",
"A.	c #AEAEAE",
"B.	c #B0B0B0",
"C.	c #6C6C6C",
"D.	c #393939",
"E.	c #4F4F4F",
"F.	c #DD8785",
"G.	c #FFF2F1",
"H.	c #E59B99",
"I.	c #8C3A39",
"J.	c #53201E",
"K.	c #7C7676",
"L.	c #B1B1B1",
"M.	c #373737",
"N.	c #505150",
"O.	c #A1A4A0",
"P.	c #8F8E8E",
"Q.	c #C7605D",
"R.	c #E28D8B",
"S.	c #B35957",
"T.	c #722C2B",
"U.	c #471D19",
"V.	c #78706F",
"W.	c #B2B2B2",
"X.	c #363636",
"Y.	c #5F625F",
"Z.	c #A6ABA4",
"`.	c #8D5B5B",
" +	c #913A39",
".+	c #762E2D",
"++	c #50201D",
"@+	c #4D2C29",
"#+	c #868585",
"$+	c #353535",
"%+	c #737872",
"&+	c #ABB3A8",
"*+	c #898888",
"=+	c #725A59",
"-+	c #5C3C39",
";+	c #5D4644",
">+	c #827F7F",
",+	c #B3B3B3",
"'+	c #919A8F",
")+	c #959695",
"!+	c #474847",
"~+	c #A3AF9F",
"{+	c #A3A7A1",
"]+	c #747872",
"^+	c #A8B3A5",
"/+	c #8D8D8C",
"(+	c #5E5E5E",
"_+	c #424342",
":+	c #9FAA9B",
"<+	c #A3A9A1",
"[+	c #7D837B",
"}+	c #959794",
"|+	c #3E3E3E",
"1+	c #5D5F5C",
"2+	c #A6B3A2",
"3+	c #A8B3A4",
"4+	c #888988",
"5+	c #404040",
"6+	c #4C4C4B",
"7+	c #9EA99B",
"8+	c #A6B0A3",
"9+	c #838483",
"0+	c #717171",
"a+	c #676767",
"b+	c #4C4D4C",
"c+	c #9AA497",
"d+	c #A6B1A3",
"e+	c #888B88",
"f+	c #3F3F3F",
"g+	c #5C5E5B",
"h+	c #9CA799",
"i+	c #969B94",
"j+	c #646464",
"k+	c #656565",
"l+	c #4B4B4B",
"m+	c #797E77",
"n+	c #A4B0A1",
"o+	c #A5AFA1",
"p+	c #8E928C",
"q+	c #727271",
"r+	c #616161",
"s+	c #5D5D5D",
"t+	c #525252",
"u+	c #494949",
"v+	c #535353",
"w+	c #767A75",
"x+	c #9BA698",
"y+	c #9BA398",
"z+	c #848983",
"A+	c #747674",
"B+	c #676867",
"C+	c #626262",
"D+	c #626261",
"E+	c #696B68",
"F+	c #797D78",
"G+	c #929A90",
"H+	c #A2AE9F",
". . . . . . . . . . . + @ # $ % & * = - ; > . . . . . . . . . . ",
". . . . . . . . , ' ) ! ~ { ] ^ / ( _ : < [ } | . . . . . . . . ",
". . . . . . . 1 ) 2 3 4 5 & & 6 ! 4 7 8 9 0 a b c > . . . . . . ",
". . . . . d e f 6 2 g h 6 i 5 ! 2 6 f j 6 k a l m n o . . . . . ",
". . . . p q h r s r { t u i 3 v w r f g s x h y z A B C . . . . ",
". . . D E F f G ~ ] { ~ 4 5 ! 2 & H h F j G I I ^ J K L M . . . ",
". . N O s g x ] P 7 t u i 3 2 6 r f g s x Q R S T 7 U V W X . . ",
". . Y Q F G Z P ` { ~ 4 5 v w & H h F  .G I ..T +.@.#.$.%.&.. . ",
". D *.j Q 7 Z ] 7 t u i ! 2 6 r f g j x Q R S =.-.;.@.>.,.'.).. ",
". !.x j & ^ P ` { ~ 4 3 v w & H h s  .G I ..T @.~.{.].g ,.^./.. ",
"(._. .R k Z ] 7 t u 5 ! 2 6 r f F j x Q R S +.-.;.:.<.[.}.|.m 1.",
"2.I j f ^ P ` { ~ i 3 v w & f g s  .G I S =.@.~.{.].3.4.2 5.|.6.",
"7. .Q t Z ] 7 ~ 4 5 ! 2 6 H h F j x Q ..T +.-.;.:.[.8.9.~.0.a.b.",
"c.j R ^ P ` t u i 3 v w r f g s  .G R S =.@.~.{.<.3.4.d.e.J f.g.",
"h.s x Z ] { ~ 4 5 ! 2 & H h F j x I ..T +.-.;.].[.8.9.e.i.0 j.k.",
"l.F s P m.n.o.p.3 v 6 r f g s  .Q R S =.@.~.:.<.3.4.d.q.r.#.s.t.",
"u.g g v.w.x.y.z.! w & H h F  .G I ..T +.~.{.].[.8.9.q.A.B.C.D.E.",
"q h h F.G.H.I.J.K.6 r f g j x Q R S =.-.;.:.<.3.4.e.i.r.L.9 M.N.",
"O.H P.Q.R.S.T.U.V.& H h s  .G I ..T @.~.{.].[.8.d.q.A.B.W.A X.Y.",
"Z.r g `. +.+++@+#+r f F j x Q R S +.-.;.:.<.3.9.e.i.r.L.q.^.$+%+",
"&+H w *+=+-+;+>+& H g s  .G I ..=.@.~.{.].[.4.d.q.A.B.,+F M.X.'+",
"N )+v f 5 ! 2 6 r h F j x Q R T +.-.;.:.<.8.9.e.i.r.W.,+a X.!+~+",
". {+! 2 r v w r f g s  .G R S =.@.~.{.<.3.4.d.q.A.L.,++.f.$+]+. ",
". ^+/+4 & w & H h F j x I ..T +.-.;.].[.8.9.e.i.B.W.L.(+X._+:+. ",
". . <+u t H r f g s  .Q R S =.@.~.:.<.3.4.d.q.r.L.,+u D.X.[+. . ",
". . . }+7 7 h h F j G I ..T +.-.{.].[.8.9.e.A.B.W.H |+M.1+2+. . ",
". . . 3+4+Z Z f j x Q R S =.@.;.:.<.3.4.e.i.r.r.u 5+D.6+7+. . . ",
". . . . 8+9+/ 0+3 x I ..T @.~.{.].[.8.d.q.A.:.a+5+j.b+c+. . . . ",
". . . . . d+e+#.C.( ! Q =.-.;.:.<.3.9.9.@.k %.f+a.g+h+. . . . . ",
". . . . . . > i+k a+j+k+0+7 v & H i ( >.l+^.5.,.m+n+. . . . . . ",
". . . . . . . . o+p+q+r+s+>.z A t+E.$.u+0.v+w+x+. . . . . . . . ",
". . . . . . . . . . 1.y+z+A+B+C+}.D+E+F+G+H+. . . . . . . . . . "};
