/* XPM */
static const char * knob9_xpm[] = {
"32 32 226 2",
"  	c None",
". 	c #A8B5A4",
"+ 	c #A6B3A2",
"@ 	c #889385",
"# 	c #6D766A",
"$ 	c #6B7468",
"% 	c #616A5E",
"& 	c #5D665A",
"* 	c #5E665A",
"= 	c #61695E",
"- 	c #666F62",
"; 	c #869083",
"> 	c #A5B1A1",
", 	c #A2AE9E",
"' 	c #70796D",
") 	c #5A6357",
"! 	c #6E7A6A",
"~ 	c #818E7C",
"{ 	c #828F7D",
"] 	c #838F7E",
"^ 	c #83907E",
"/ 	c #84907F",
"( 	c #737E6F",
"_ 	c #5D655A",
": 	c #697165",
"< 	c #98A495",
"[ 	c #7E887B",
"} 	c #606A5D",
"| 	c #7E8C79",
"1 	c #828E7D",
"2 	c #83907F",
"3 	c #849180",
"4 	c #859180",
"5 	c #859181",
"6 	c #869281",
"7 	c #626B5F",
"8 	c #737C70",
"9 	c #666F63",
"0 	c #737F6E",
"a 	c #818E7D",
"b 	c #828F7E",
"c 	c #869282",
"d 	c #879282",
"e 	c #879383",
"f 	c #889383",
"g 	c #838F7F",
"h 	c #60685E",
"i 	c #9BA797",
"j 	c #9DAA9A",
"k 	c #5B6459",
"l 	c #7F8C7A",
"m 	c #879382",
"n 	c #889483",
"o 	c #889484",
"p 	c #899484",
"q 	c #5D645A",
"r 	c #95A091",
"s 	c #555D52",
"t 	c #808D7B",
"u 	c #899585",
"v 	c #8A9585",
"w 	c #8A9586",
"x 	c #8A9686",
"y 	c #5E655B",
"z 	c #98A494",
"A 	c #5E665C",
"B 	c #7E8B7A",
"C 	c #899485",
"D 	c #8B9686",
"E 	c #8B9687",
"F 	c #60675D",
"G 	c #A7B4A3",
"H 	c #758171",
"I 	c #8C9787",
"J 	c #8C9788",
"K 	c #879183",
"L 	c #737B70",
"M 	c #A1AE9D",
"N 	c #5E675B",
"O 	c #859281",
"P 	c #8D9889",
"Q 	c #8E988A",
"R 	c #6F786C",
"S 	c #97A394",
"T 	c #727A6F",
"U 	c #7D8979",
"V 	c #8D9789",
"W 	c #8E9889",
"X 	c #8E998A",
"Y 	c #8F998B",
"Z 	c #6F776C",
"` 	c #5C6459",
" .	c #84917F",
"..	c #8F9A8B",
"+.	c #909A8C",
"@.	c #6A7267",
"#.	c #A3AF9F",
"$.	c #96A292",
"%.	c #919B8D",
"&.	c #868F82",
"*.	c #7D877A",
"=.	c #717A6F",
"-.	c #8F9A8C",
";.	c #909B8C",
">.	c #929C8E",
",.	c #6C7469",
"'.	c #6A7266",
").	c #8D9788",
"!.	c #939C8F",
"~.	c #687066",
"{.	c #656D62",
"].	c #919B8E",
"^.	c #929C8F",
"/.	c #939D8F",
"(.	c #939D90",
"_.	c #656C63",
":.	c #626B60",
"<.	c #909B8D",
"[.	c #919A8D",
"}.	c #828276",
"|.	c #85877B",
"1.	c #949D90",
"2.	c #949E90",
"3.	c #636B60",
"4.	c #8A8E82",
"5.	c #4D2D28",
"6.	c #481D19",
"7.	c #53201E",
"8.	c #735750",
"9.	c #959E91",
"0.	c #666C63",
"a.	c #656E62",
"b.	c #8B9787",
"c.	c #64524B",
"d.	c #52201D",
"e.	c #742E2C",
"f.	c #8F3D3B",
"g.	c #8F3938",
"h.	c #918279",
"i.	c #696F66",
"j.	c #62433D",
"k.	c #792F2E",
"l.	c #B65E5B",
"m.	c #EA9E9B",
"n.	c #D77572",
"o.	c #A07B72",
"p.	c #6A7168",
"q.	c #778074",
"r.	c #949E91",
"s.	c #7F6961",
"t.	c #943C3A",
"u.	c #E89A98",
"v.	c #FFF5F4",
"w.	c #EF9A97",
"x.	c #9D958A",
"y.	c #6E766B",
"z.	c #717A6D",
"A.	c #929B8E",
"B.	c #959F92",
"C.	c #997069",
"D.	c #CA6F6B",
"E.	c #DA918B",
"F.	c #AD9288",
"G.	c #8E968B",
"H.	c #7A8477",
"I.	c #636B61",
"J.	c #959E92",
"K.	c #969F92",
"L.	c #969F93",
"M.	c #96A093",
"N.	c #97A094",
"O.	c #98A194",
"P.	c #98A195",
"Q.	c #6C7269",
"R.	c #747D71",
"S.	c #879283",
"T.	c #97A093",
"U.	c #99A195",
"V.	c #99A296",
"W.	c #747C71",
"X.	c #A4B1A0",
"Y.	c #98A094",
"Z.	c #757B72",
"`.	c #858F82",
" +	c #838D80",
".+	c #99A196",
"++	c #9AA297",
"@+	c #939B90",
"#+	c #9AA296",
"$+	c #9AA397",
"%+	c #636960",
"&+	c #A5B2A1",
"*+	c #9BA398",
"=+	c #6C736A",
"-+	c #99A495",
";+	c #A1AD9D",
">+	c #646B61",
",+	c #909A8D",
"'+	c #686E66",
")+	c #96A192",
"!+	c #A2AF9E",
"~+	c #697066",
"{+	c #879084",
"]+	c #9BA397",
"^+	c #8F978C",
"/+	c #60665E",
"(+	c #99A595",
"_+	c #7A8377",
":+	c #666D64",
"<+	c #929B8F",
"[+	c #6E746C",
"}+	c #70796E",
"|+	c #9FAC9B",
"1+	c #656B63",
"2+	c #7F867C",
"3+	c #8E958B",
"4+	c #737A71",
"5+	c #71796E",
"6+	c #9AA697",
"7+	c #8A9587",
"8+	c #6F786D",
"9+	c #6D7469",
"0+	c #6C726A",
"a+	c #6E756C",
"b+	c #737B71",
"c+	c #8B9688",
". . . . . . . . . . + @ # $ % & * = - # ; > . . . . . . . . . . ",
". . . . . . . . , ' ) ! ~ ~ { { ] ^ / / ( _ : < . . . . . . . . ",
". . . . . . . [ } | ~ ~ 1 { ] ^ 2 / 3 4 5 6 5 7 8 + . . . . . . ",
". . . . . , 9 0 ~ ~ a { b ] 2 / 3 4 5 6 c d e f g h i . . . . . ",
". . . . j k l ~ ~ { { ] ^ / / 4 4 6 6 c m e n o p p q r . . . . ",
". . . , s t ~ 1 { ] ^ / / 3 4 5 6 c m e f o p u v w x y z . . . ",
". . . A B 1 { b ] 2 / 3 4 5 6 c m e f o o C u w x D E E F G . . ",
". . [ H { { ] ^ / / 4 4 6 6 c m e n o p u v w D E I J J K L . . ",
". M N { ] ^ / / 3 4 O 6 c m e f o p u v w x E E J J P P Q R S . ",
". T U ] 2 / 3 4 5 6 c m e f o o C u w x E E J J V P W X X Y Z . ",
"G ` ^ /  .4 4 6 6 c m e n o p u v w D E I J J P P Q X Y ..+.@.#.",
"$.- / 3 4 O 6 c m e f o p u v w x E E J J P P Q X Y ..+.+.%.&.*.",
"=.] 4 5 6 c m e f o o C u w x E E J J V P Q X Y Y -.+.;.%.%.>.,.",
"'.4 6 6 c m e n o p u v w D E I J ).P P X X Y ..+.+.%.%.>.>.!.~.",
"{.6 c m e f o p u v w D E E J J P P Q X Y ..+.+.%.%.].>.^./.(._.",
":.m e f o p C u w x E E J J P P Q X Y Y -.+.<.%.].>.[.}.|.1.2._.",
"3.e n o p u v w D E I J ).P P X X Y ..+.+.%.%.>.>.4.5.6.7.8.9.0.",
"a.o p u v w D E b.J J P P Q X Y ..+.+.%.%.].>.^./.c.d.e.f.g.h.i.",
"R C u w x E E J J P P Q X Y Y -.+.<.%.].>.^.!.(.1.j.k.l.m.n.o.p.",
"q.p x D E I J ).P P X X Y ..+.+.%.%.>.>.!./.(.1.r.s.t.u.v.w.x.y.",
"$.z.E b.J J P P Q X Y ..+.+.%.%.A.>.^./.(.1.r.9.B.9.C.D.E.F.G.H.",
". I.J J P P Q X Y Y +.+.<.%.].>.^.!.(.1.r.9.J.K.L.M.N.N.O.P.Q., ",
". R.S.P W X X Y ..+.+.%.%.>.>.!./.1.2.r.9.B.K.L.T.N.O.P.U.V.W.. ",
". X.@.Q X Y ..+.+.%.%.A.>.^./.(.1.r.9.B.K.L.T.N.Y.P.P.V.V.Z.i . ",
". . `. +Y +.+.<.%.].>.^./.(.1.r.9.J.K.L.M.N.N.P.P..+V.++@+y.. . ",
". . . Z Q +.%.%.>.>.!./.1.2.r.9.B.K.L.T.N.O.P.U.V.#+++$+%+&+. . ",
". . . #.I.+.A.>.^./.(.1.r.9.B.K.L.T.N.Y.P.P.V.V.++$+*+=+-+. . . ",
". . . . ;+>+,+/.(.1.r.9.J.K.L.M.N.N.P.P..+V.++$+*+$+'+)+. . . . ",
". . . . . !+~+{+2.r.9.B.K.L.T.N.O.P.U.V.#+++]+*+^+/+(+. . . . . ",
". . . . . . . _+:+<+K.L.T.N.Y.P.U.V.V.++$+*+V.[+}+G . . . . . . ",
". . . . . . . . |+y.1+2+N.P.P..+V.++$+*+3+4+5+6+. . . . . . . . ",
". . . . . . . . . . G 7+8+9+Q.=+0+a+b+_+c+G . . . . . . . . . . "};
