/* XPM */
static const char * knob26_xpm[] = {
"32 32 222 2",
"  	c None",
". 	c #A8B5A4",
"+ 	c #919C8D",
"@ 	c #757E72",
"# 	c #788176",
"$ 	c #798176",
"% 	c #787F75",
"& 	c #737A71",
"* 	c #70776D",
"= 	c #6F776D",
"- 	c #727B70",
"; 	c #919D8E",
"> 	c #A5B2A1",
", 	c #676D65",
"' 	c #7A8178",
") 	c #9AA297",
"! 	c #9BA398",
"~ 	c #9AA397",
"{ 	c #99A296",
"] 	c #98A095",
"^ 	c #686F66",
"/ 	c #727B6F",
"( 	c #A4B1A1",
"_ 	c #7E887B",
": 	c #666C64",
"< 	c #939B90",
"[ 	c #9AA296",
"} 	c #99A195",
"| 	c #98A195",
"1 	c #98A194",
"2 	c #91998D",
"3 	c #646B62",
"4 	c #7B8478",
"5 	c #A2AF9F",
"6 	c #697067",
"7 	c #889086",
"8 	c #97A094",
"9 	c #97A093",
"0 	c #969F93",
"a 	c #838B80",
"b 	c #636A60",
"c 	c #A0AD9C",
"d 	c #9CA898",
"e 	c #626860",
"f 	c #979F94",
"g 	c #98A094",
"h 	c #969F92",
"i 	c #959F92",
"j 	c #959E92",
"k 	c #929B8E",
"l 	c #61685F",
"m 	c #9CA999",
"n 	c #A2AF9E",
"o 	c #636960",
"p 	c #99A196",
"q 	c #959E91",
"r 	c #949E91",
"s 	c #949D90",
"t 	c #666D63",
"u 	c #A3AF9F",
"v 	c #6E766B",
"w 	c #96A093",
"x 	c #949E90",
"y 	c #939D90",
"z 	c #939D8F",
"A 	c #909A8D",
"B 	c #697166",
"C 	c #7C8579",
"D 	c #899186",
"E 	c #939C8F",
"F 	c #929C8F",
"G 	c #929C8E",
"H 	c #818A7E",
"I 	c #808A7D",
"J 	c #999F93",
"K 	c #999E92",
"L 	c #919B8E",
"M 	c #919B8D",
"N 	c #909B8D",
"O 	c #687065",
"P 	c #A4B1A0",
"Q 	c #6F776C",
"R 	c #939A8E",
"S 	c #CA8881",
"T 	c #F4ABA9",
"U 	c #DA7875",
"V 	c #9D726A",
"W 	c #909A8C",
"X 	c #8D9789",
"Y 	c #A6B3A2",
"Z 	c #A77970",
"` 	c #F3A2A0",
" .	c #FFEBEA",
"..	c #E49290",
"+.	c #943C3A",
"@.	c #897E74",
"#.	c #8F9A8B",
"$.	c #8F998B",
"%.	c #8E998A",
"&.	c #889385",
"*.	c #80877D",
"=.	c #975F5A",
"-.	c #BD5F5C",
";.	c #CF7573",
">.	c #9F4A48",
",.	c #732C2B",
"'.	c #736259",
").	c #909B8C",
"!.	c #8E988A",
"~.	c #7C8578",
"{.	c #6E766A",
"].	c #826B63",
"^.	c #762E2D",
"/.	c #632624",
"(.	c #4A1E1A",
"_.	c #7E7C71",
":.	c #8F9A8C",
"<.	c #8D9889",
"[.	c #8C9788",
"}.	c #70796E",
"|.	c #697167",
"1.	c #654E46",
"2.	c #471D1A",
"3.	c #451F1B",
"4.	c #695951",
"5.	c #8D9788",
"6.	c #8C9787",
"7.	c #6A7267",
"8.	c #686F65",
"9.	c #8F978A",
"0.	c #919A8D",
"a.	c #8B9687",
"b.	c #8B9686",
"c.	c #6A7367",
"d.	c #676E64",
"e.	c #8E9889",
"f.	c #8A9586",
"g.	c #666D64",
"h.	c #8B9787",
"i.	c #8A9686",
"j.	c #8A9585",
"k.	c #899585",
"l.	c #687165",
"m.	c #899484",
"n.	c #889484",
"o.	c #646C61",
"p.	c #889483",
"q.	c #889383",
"r.	c #879383",
"s.	c #656E63",
"t.	c #899485",
"u.	c #879382",
"v.	c #869282",
"w.	c #6B7468",
"x.	c #848F81",
"y.	c #818B7E",
"z.	c #879282",
"A.	c #869281",
"B.	c #737D6F",
"C.	c #869183",
"D.	c #A7B4A3",
"E.	c #859281",
"F.	c #859180",
"G.	c #5D655A",
"H.	c #70786D",
"I.	c #828E7E",
"J.	c #6B7368",
"K.	c #9FAB9B",
"L.	c #626A5F",
"M.	c #859181",
"N.	c #849180",
"O.	c #84907F",
"P.	c #5D665A",
"Q.	c #9FAC9B",
"R.	c #6F786C",
"S.	c #808B7C",
"T.	c #83907F",
"U.	c #83907E",
"V.	c #798575",
"W.	c #6E776C",
"X.	c #5B6359",
"Y.	c #838F7E",
"Z.	c #828F7D",
"`.	c #5A6257",
" +	c #636B60",
".+	c #60695D",
"++	c #9AA696",
"@+	c #95A192",
"#+	c #84917F",
"$+	c #828F7E",
"%+	c #818E7D",
"&+	c #818E7C",
"*+	c #5C6459",
"=+	c #939F90",
"-+	c #98A394",
";+	c #586056",
">+	c #7E897A",
",+	c #828E7D",
"'+	c #7A8776",
")+	c #565E53",
"!+	c #99A596",
"~+	c #A6B2A2",
"{+	c #6B7469",
"]+	c #7F8D7B",
"^+	c #626C5E",
"/+	c #6E776B",
"(+	c #9CA798",
"_+	c #5E665A",
":+	c #778272",
"<+	c #808E7B",
"[+	c #768371",
"}+	c #606A5D",
"|+	c #6D776A",
"1+	c #9EAA9A",
"2+	c #A4B0A0",
"3+	c #687166",
"4+	c #5F685C",
"5+	c #616A5D",
"6+	c #5B6458",
"7+	c #5E675B",
"8+	c #6C7569",
"9+	c #828C7F",
". . . . . . . . . . . + @ # $ % & * = - ; . . . . . . . . . . . ",
". . . . . . . . > - , ' ) ! ! ~ ~ ) { ] ' ^ / ( . . . . . . . . ",
". . . . . . . _ : < ! ! ~ ~ ) [ { { } | | 1 2 3 4 . . . . . . . ",
". . . . . 5 6 7 ! ~ ~ ) [ { { } | | 1 8 8 9 9 0 a b c . . . . . ",
". . . . d e f ~ ) [ { { } | | 1 g 8 8 9 0 0 h i j k l m . . . . ",
". . . n o p [ { { p | | | g 8 8 9 0 0 h i j q q r s s t u . . . ",
". . . v 8 { p } | | 1 8 8 9 w 0 h h i q q r x s y z z A B . . . ",
". . C D } | | 1 8 8 9 w 0 h h i q q r x s y z z E F G G H I . . ",
". 5 , | J K 8 9 9 0 h h i q q r r s s y z E F G G L M M N O P . ",
". Q R S T U V h h i j q r r s s y z E F G G L M M M W W W X 4 . ",
"Y : Z `  ...+.@.q q r s s y z E F G G L M M M W W W #.$.$.%.Q . ",
"&.*.=.-.;.>.,.'.s s y z z F G G G M M M ).W W #.#.$.$.%.%.!.~.%.",
"{.j ].^.^./.(._.z z E G G G L M M N W W :.#.$.$.%.%.!.<.<.<.[.}.",
"|.r E 1.2.3.4.E F G G L M M N W W W #.$.$.%.%.!.<.<.<.5.[.[.6.7.",
"8.s y z 9.0.G G L M M N W W W #.$.$.%.%.!.<.<.<.5.[.[.6.a.a.b.c.",
"d.E F G G L M M M W W W #.$.$.%.%.!.e.<.<.X [.[.[.a.a.a.b.f.f.B ",
"g.G k M M M W W W #.$.$.%.%.!.!.<.<.<.[.[.[.h.a.a.b.i.f.j.k.k.l.",
"8.M M ).W W :.#.$.$.%.%.!.<.<.<.[.[.[.6.a.a.b.i.f.j.k.k.m.m.n.o.",
"v W W W #.$.$.%.%.!.<.<.<.[.[.[.6.a.a.b.i.f.j.k.k.m.m.n.p.q.r.s.",
"- #.$.$.%.%.!.<.<.<.5.[.[.6.a.a.b.i.f.j.j.k.t.m.n.n.q.r.r.u.v.w.",
"x.y.%.!.<.<.<.5.[.[.6.a.a.a.i.f.f.j.k.t.m.n.n.q.r.r.u.z.v.A.B.C.",
"D.8.<.<.X [.[.[.a.a.a.b.f.f.j.k.t.m.n.n.q.r.r.u.u.v.A.A.E.F.G.D.",
". H.f.[.[.h.a.a.b.i.f.j.k.k.m.n.n.p.q.r.u.u.v.A.A.E.F.F.F.I.J.. ",
". K.L.a.a.b.i.f.j.k.k.m.m.n.p.q.r.u.u.v.A.A.E.M.F.F.N.O.O.P.Q.. ",
". . R.S.f.j.k.k.m.m.n.p.q.r.r.u.v.v.A.A.M.F.F.N.O.O.T.U.V.W.. . ",
". . D.X.m.t.m.n.n.q.r.r.u.z.v.A.A.M.F.F.N.O.O.T.U.Y.Y.Z.`.Y . . ",
". . . d  +n.q.r.r.u.z.v.A.A.M.F.F.N.O.O.O.U.Y.Y.Z.Z.Z..+++. . . ",
". . . . @+L.z.u.v.A.A.E.F.F.N.#+O.O.U.U.Y.$+Z.Z.%+&+*+=+. . . . ",
". . . . . -+;+>+E.F.F.F.N.O.O.T.U.Y.$+Z.Z.,+&+&+'+)+!+. . . . . ",
". . . . . . ~+{+.+Y.O.O.T.U.Y.$+Z.Z.,+&+&+&+]+^+/+> . . . . . . ",
". . . . . . . . (+O _+:+Y.Z.Z.,+&+&+&+<+[+}+|+1+. . . . . . . . ",
". . . . . . . . . . 2+_ 3+.+4+5+6+P.7+8+9+Y . . . . . . . . . . "};
