/* XPM */
static const char * knob6_xpm[] = {
"32 32 224 2",
"  	c None",
". 	c #A8B5A4",
"+ 	c #A6B3A2",
"@ 	c #889385",
"# 	c #6B7468",
"$ 	c #646D61",
"% 	c #60685D",
"& 	c #656E62",
"* 	c #677064",
"= 	c #656D62",
"- 	c #666E63",
"; 	c #6B7368",
"> 	c #838D80",
", 	c #A7B4A3",
"' 	c #A2AF9F",
") 	c #6D756A",
"! 	c #5D665A",
"~ 	c #707B6C",
"{ 	c #859181",
"] 	c #869281",
"^ 	c #879382",
"/ 	c #889383",
"( 	c #899484",
"_ 	c #899585",
": 	c #8A9586",
"< 	c #8B9687",
"[ 	c #7B8577",
"} 	c #70796D",
"| 	c #9FAB9B",
"1 	c #757E72",
"2 	c #5B6357",
"3 	c #808C7B",
"4 	c #84907F",
"5 	c #859180",
"6 	c #869282",
"7 	c #879383",
"8 	c #889484",
"9 	c #899485",
"0 	c #8A9585",
"a 	c #8B9686",
"b 	c #8C9788",
"c 	c #8D9889",
"d 	c #747D71",
"e 	c #5C6459",
"f 	c #748070",
"g 	c #838F7E",
"h 	c #849180",
"i 	c #8D9788",
"j 	c #8E998A",
"k 	c #8F998B",
"l 	c #899285",
"m 	c #62695F",
"n 	c #9CA898",
"o 	c #99A596",
"p 	c #5E675B",
"q 	c #808D7C",
"r 	c #828F7D",
"s 	c #83907E",
"t 	c #8E988A",
"u 	c #8F9A8B",
"v 	c #909A8C",
"w 	c #909A8D",
"x 	c #636960",
"y 	c #949F90",
"z 	c #A0AC9C",
"A 	c #596156",
"B 	c #818E7C",
"C 	c #919B8D",
"D 	c #919B8E",
"E 	c #929C8F",
"F 	c #98A394",
"G 	c #596157",
"H 	c #7F8C7A",
"I 	c #818E7D",
"J 	c #8A9686",
"K 	c #929C8E",
"L 	c #939C8F",
"M 	c #939D90",
"N 	c #5F655C",
"O 	c #A6B2A2",
"P 	c #798376",
"Q 	c #74806F",
"R 	c #83907F",
"S 	c #8C9787",
"T 	c #939D8F",
"U 	c #949D90",
"V 	c #8C9589",
"W 	c #A5B2A1",
"X 	c #5F695B",
"Y 	c #8A8E82",
"Z 	c #8B8F83",
"` 	c #959E91",
" .	c #6B7269",
"..	c #9CA798",
"+.	c #747E71",
"@.	c #7C8977",
"#.	c #64514A",
"$.	c #4E1F1C",
"%.	c #6F2B29",
"&.	c #8C4E4B",
"*.	c #95998D",
"=.	c #6B7369",
"-.	c #636D60",
";.	c #859281",
">.	c #889483",
",.	c #797369",
"'.	c #451C19",
").	c #6F2B2A",
"!.	c #A9514F",
"~.	c #CF6B68",
"{.	c #AD756D",
"].	c #696F66",
"^.	c #A4B0A0",
"/.	c #909B8D",
"(.	c #6D7868",
"_.	c #6F635A",
":.	c #501F1C",
"<.	c #8A3A38",
"[.	c #E89D9B",
"}.	c #FFE1DF",
"|.	c #CE867F",
"1.	c #899186",
"2.	c #7F897C",
"3.	c #717A6E",
"4.	c #808E7B",
"5.	c #85867A",
"6.	c #562320",
"7.	c #923D3C",
"8.	c #EA9E9C",
"9.	c #FCCAC8",
"0.	c #B88D85",
"a.	c #98A195",
"b.	c #70786D",
"c.	c #636C60",
"d.	c #84917F",
"e.	c #7D6F66",
"f.	c #864240",
"g.	c #B45753",
"h.	c #B77F77",
"i.	c #98A194",
"j.	c #99A195",
"k.	c #747C72",
"l.	c #626A5E",
"m.	c #949E91",
"n.	c #969F92",
"o.	c #97A093",
"p.	c #97A094",
"q.	c #99A296",
"r.	c #72796F",
"s.	c #60695D",
"t.	c #828E7D",
"u.	c #959F92",
"v.	c #969F93",
"w.	c #6A7168",
"x.	c #666F62",
"y.	c #8E9889",
"z.	c #949E90",
"A.	c #9AA297",
"B.	c #697067",
"C.	c #828F7E",
"D.	c #879282",
"E.	c #8B9787",
"F.	c #9AA397",
"G.	c #6C7269",
"H.	c #9BA397",
"I.	c #71796F",
"J.	c #6F786C",
"K.	c #909B8C",
"L.	c #9BA398",
"M.	c #71796E",
"N.	c #6A7366",
"O.	c #8D9789",
"P.	c #96A093",
"Q.	c #899086",
"R.	c #808A7D",
"S.	c #5E665B",
"T.	c #676D65",
"U.	c #7F8B7B",
"V.	c #929B8E",
"W.	c #98A095",
"X.	c #5B6358",
"Y.	c #8F9A8C",
"Z.	c #959E92",
"`.	c #6C726A",
" +	c #9EAA9A",
".+	c #7A8477",
"++	c #768072",
"@+	c #9AA296",
"#+	c #91998E",
"$+	c #767F74",
"%+	c #5F675C",
"&+	c #98A094",
"*+	c #6F776D",
"=+	c #A1AD9D",
"-+	c #99A196",
";+	c #737970",
">+	c #9FAC9C",
",+	c #626A5F",
"'+	c #889384",
")+	c #6C736A",
"!+	c #A3AF9F",
"~+	c #646C62",
"{+	c #7C8678",
"]+	c #8E968B",
"^+	c #656B62",
"/+	c #7B8578",
"(+	c #6A7068",
"_+	c #757E71",
":+	c #A4B1A0",
"<+	c #7B8478",
"[+	c #6F776C",
"}+	c #7E877B",
"|+	c #82897F",
"1+	c #676E65",
"2+	c #6D756B",
"3+	c #A0AD9C",
"4+	c #747D72",
"5+	c #6E766B",
"6+	c #6B7268",
"7+	c #686F66",
"8+	c #6A7268",
"9+	c #6D766B",
"0+	c #869183",
"a+	c #A6B3A3",
". . . . . . . . . . + @ # $ % & * = - ; > , . . . . . . . . . . ",
". . . . . . . . ' ) ! ~ { ] ^ / ( _ : < [ - } | . . . . . . . . ",
". . . . . . , 1 2 3 4 5 ] 6 7 8 9 0 a < b c b ; d , . . . . . . ",
". . . . . | e f g 4 h { ] ^ / 8 _ : < b i c j k l m n . . . . . ",
". . . . o p q r s 4 5 ] 6 7 8 ( 0 a < b c t k u v w x y . . . . ",
". . . z A B r g 4 h { ] ^ / 8 _ : < b i c j k v C D E x F . . . ",
". . , G H I r s 4 5 ] 6 7 8 ( 0 J < b c t k u v C K L M N O . . ",
". . P Q B r g R h 5 ] ^ / 8 _ : < S b c j k v C D K T U V ) . . ",
". W X B I r s 4 5 ] 6 7 8 ( 0 J < b c t k u v C K L Y Z `  .... ",
". +.@.B r g R h 5 ] ^ / 8 _ : < S b c j k v C D K #.$.%.&.*.=.. ",
". -.B B r s 4 5 ;.6 7 >.( 0 J < b c t j u v C K ,.'.).!.~.{.].^.",
"/.(.B r g R h 5 ] ^ / 8 _ : < S b c j k v C D K _.:.<.[.}.|.1.2.",
"3.4.B r s 4 5 ;.6 7 >.( 0 J < b c t j u v C K L 5.6.7.8.9.0.a.b.",
"c.B r g R d.5 ] ^ 7 8 _ : a S b c j k v /.C K T U e.f.g.h.i.j.k.",
"l.B r s 4 5 ;.6 7 >.( _ J < b c t j u v C K E M m.` n.o.p.a.q.r.",
"s.t.g R d.5 ] ^ 7 8 _ : a S b c j k v /.C K T U ` u.v.p.i.j.q.w.",
"x.r g 4 5 ;.6 ^ >.( _ J < b c y.j u v C K E M z.` n.o.p.a.q.A.B.",
"$ C.R 4 5 ] D.7 8 _ : a E.b c j k v /.C K T U m.u.v.p.i.j.q.F.G.",
"- g 4 5 { 6 ^ / ( _ J < b c y.j u v C K E M z.` n.o.p.a.q.A.H.I.",
"J.C.4 5 ] D.7 8 9 0 a < b c j k v K.C K T U m.u.v.p.i.j.q.F.L.M.",
"/.N.h { 6 ^ / ( _ : < b O.c j u v C K E M z.` n.P.p.a.q.A.H.Q.R.",
", S.5 ] D.7 8 9 0 a < b c t k v v C K T U m.u.v.o.i.a.q.F.L.T.+ ",
". 3.U.] ^ / ( _ : < b i c j k v C V.E T z.` n.P.p.a.q.A.H.W.=.. ",
". W X.6 7 8 9 0 a < b c t k Y.v C K L U m.Z.v.o.i.a.q.F.L.`. +. ",
". . .+++/ 8 _ : < b i c j k v C V.E T U ` n.v.p.a.q.@+F.#+$+. . ",
". . . %+{ ( 0 a < b c t k u v C K L U m.Z.n.o.&+a.q.A.H.*+. . . ",
". . . =+% _ : < b i c j k v C D E T U ` n.v.p.a.-+@+F.;+>+. . . ",
". . . . | ,+'+< b c t k u v C K L M m.Z.n.o.&+a.q.@+)+F . . . . ",
". . . . . !+~+{+i c j k v C D E T U ` n.v.p.a.-+]+^+n . . . . . ",
". . . . . . . /+- < k u v C K L M m.Z.n.o.&+v.(+_+, . . . . . . ",
". . . . . . . . :+<+[+}+/.D K T U ` u.v.|+1+2+3+. . . . . . . . ",
". . . . . . . . . . . j 4+b.5+) 6+7+8+9+0+a+. . . . . . . . . . "};
