/* XPM */
static const char * knob19_xpm[] = {
"32 32 253 2",
"  	c None",
". 	c #A8B5A4",
"+ 	c #A8B4A4",
"@ 	c #A3ACA0",
"# 	c #8F968D",
"$ 	c #7E827D",
"% 	c #727472",
"& 	c #6C6D6C",
"* 	c #6A6B69",
"= 	c #6C6E6B",
"- 	c #757974",
"; 	c #878D85",
"> 	c #9CA599",
", 	c #A6B3A2",
"' 	c #A8B3A4",
") 	c #989F96",
"! 	c #7A7B79",
"~ 	c #616161",
"{ 	c #5B5B5B",
"] 	c #585858",
"^ 	c #565656",
"/ 	c #535353",
"( 	c #505050",
"_ 	c #4D4D4D",
": 	c #4A4A4A",
"< 	c #474747",
"[ 	c #484848",
"} 	c #5D5D5C",
"| 	c #848A82",
"1 	c #A3AE9F",
"2 	c #9EA59C",
"3 	c #7A7B7A",
"4 	c #656565",
"5 	c #626262",
"6 	c #606060",
"7 	c #676767",
"8 	c #707070",
"9 	c #737373",
"0 	c #717171",
"a 	c #5C5C5C",
"b 	c #464646",
"c 	c #434343",
"d 	c #404040",
"e 	c #545452",
"f 	c #899087",
"g 	c #A7B3A3",
"h 	c #929591",
"i 	c #6E6E6E",
"j 	c #696969",
"k 	c #747474",
"l 	c #868686",
"m 	c #949494",
"n 	c #969696",
"o 	c #999999",
"p 	c #9C9C9C",
"q 	c #9E9E9E",
"r 	c #A0A0A0",
"s 	c #A1A1A1",
"t 	c #858585",
"u 	c #3E3E3E",
"v 	c #6B6D6A",
"w 	c #A2AE9F",
"x 	c #A8B4A5",
"y 	c #8D8E8C",
"z 	c #777777",
"A 	c #8C8C8C",
"B 	c #909090",
"C 	c #919191",
"D 	c #989898",
"E 	c #9B9B9B",
"F 	c #9D9D9D",
"G 	c #A2A2A2",
"H 	c #A4A4A4",
"I 	c #A7A7A7",
"J 	c #8B8B8B",
"K 	c #525252",
"L 	c #3D3D3D",
"M 	c #3A3A3A",
"N 	c #575857",
"O 	c #9FAA9C",
"P 	c #8F928F",
"Q 	c #757575",
"R 	c #727272",
"S 	c #818181",
"T 	c #8D8D8D",
"U 	c #8E8E8E",
"V 	c #939393",
"W 	c #959595",
"X 	c #9A9A9A",
"Y 	c #9F9F9F",
"Z 	c #A6A6A6",
"` 	c #A9A9A9",
" .	c #ABABAB",
"..	c #A5A5A5",
"+.	c #686868",
"@.	c #3C3C3C",
"#.	c #383838",
"$.	c #555755",
"%.	c #A0AB9C",
"&.	c #9C9F9B",
"*.	c #797979",
"=.	c #767676",
"-.	c #888888",
";.	c #898989",
">.	c #929292",
",.	c #979797",
"'.	c #A3A3A3",
").	c #A8A8A8",
"!.	c #AAAAAA",
"~.	c #ADADAD",
"{.	c #363636",
"].	c #626461",
"^.	c #A7AEA5",
"/.	c #808080",
"(.	c #7A7A7A",
"_.	c #8F8F8F",
":.	c #ACACAC",
"<.	c #AEAEAE",
"[.	c #6A6A6A",
"}.	c #7F867E",
"|.	c #A9B5A6",
"1.	c #919291",
"2.	c #7E7E7E",
"3.	c #878787",
"4.	c #838383",
"5.	c #8A8A8A",
"6.	c #B0B0B0",
"7.	c #454645",
"8.	c #A0AB9D",
"9.	c #A7ADA4",
"0.	c #828282",
"a.	c #848484",
"b.	c #AFAFAF",
"c.	c #B2B2B2",
"d.	c #343434",
"e.	c #767B75",
"f.	c #999A99",
"g.	c #7F7F7F",
"h.	c #B1B1B1",
"i.	c #4A4B4A",
"j.	c #A5B2A2",
"k.	c #ACB5A9",
"l.	c #7C7C7C",
"m.	c #B3B3B3",
"n.	c #373737",
"o.	c #959E92",
"p.	c #A7ADA5",
"q.	c #7B7B7B",
"r.	c #454545",
"s.	c #353535",
"t.	c #787D76",
"u.	c #A2A5A0",
"v.	c #7D7D7D",
"w.	c #B4B4B4",
"x.	c #626561",
"y.	c #9FA19E",
"z.	c #525452",
"A.	c #9FA09E",
"B.	c #393939",
"C.	c #4B4B4A",
"D.	c #A2A3A1",
"E.	c #787878",
"F.	c #4B4B4B",
"G.	c #A5A6A4",
"H.	c #A9ACA8",
"I.	c #606360",
"J.	c #ADB3AB",
"K.	c #4F4F4F",
"L.	c #757A73",
"M.	c #B0B8AD",
"N.	c #444444",
"O.	c #91998E",
"P.	c #A9B6A6",
"Q.	c #A3A4A3",
"R.	c #535352",
"S.	c #A3AF9F",
"T.	c #ABB1AA",
"U.	c #817474",
"V.	c #7D4F4E",
"W.	c #643F3D",
"X.	c #706462",
"Y.	c #515151",
"Z.	c #7A7F79",
"`.	c #ACB7A8",
" +	c #9F9F9E",
".+	c #807777",
"++	c #BE5B58",
"@+	c #AB4C4A",
"#+	c #782F2E",
"$+	c #491D1A",
"%+	c #6E605E",
"&+	c #6D6D6D",
"*+	c #494949",
"=+	c #9FA99C",
"-+	c #ADB3AC",
";+	c #9C7372",
">+	c #FCC4C2",
",+	c #EBA5A3",
"'+	c #94413F",
")+	c #57221F",
"!+	c #533734",
"~+	c #4E4E4E",
"{+	c #828880",
"]+	c #A7A9A6",
"^+	c #9B7372",
"/+	c #FED4D2",
"(+	c #F6B8B6",
"_+	c #A04A49",
":+	c #5D2421",
"<+	c #593F3C",
"[+	c #595959",
"}+	c #AAB5A7",
"|+	c #9E9F9E",
"1+	c #8F8C8C",
"2+	c #C86B68",
"3+	c #C96360",
"4+	c #8B3837",
"5+	c #572623",
"6+	c #756C6B",
"7+	c #616261",
"8+	c #ABB5A7",
"9+	c #9D9E9D",
"0+	c #918C8C",
"a+	c #8F6A6A",
"b+	c #795959",
"c+	c #7C7877",
"d+	c #575757",
"e+	c #646564",
"f+	c #9DA79B",
"g+	c #A0A3A0",
"h+	c #6B6B6B",
"i+	c #5E5E5E",
"j+	c #727371",
"k+	c #A9B5A5",
"l+	c #A7ACA5",
"m+	c #676867",
"n+	c #898D87",
"o+	c #A6B2A2",
"p+	c #AAB4A7",
"q+	c #A0A5A0",
"r+	c #909190",
"s+	c #6F6F6F",
"t+	c #6C6C6C",
"u+	c #8A8D88",
"v+	c #A3AD9F",
"w+	c #A9B4A5",
"x+	c #A6AEA4",
"y+	c #9CA09B",
"z+	c #929491",
"A+	c #858784",
"B+	c #8E928D",
"C+	c #9DA59B",
"D+	c #A6B1A2",
". . . . . . . . . . + @ # $ % & * = - ; > , . . . . . . . . . . ",
". . . . . . . . ' ) ! ~ { ] ^ / ( _ : < [ } | 1 . . . . . . . . ",
". . . . . . . 2 3 4 5 6 6 7 8 9 0 7 a _ b c d e f g . . . . . . ",
". . . . . + h i j 7 k l m n o p q r s p t a c u u v w . . . . . ",
". . . . x y 0 i z A B C m n D E F r G H I I J K L M N O . . . . ",
". . . x P Q R S T A U C V W D X F Y s H Z `  ...+.@.#.$.%.. . . ",
". . . &.*.=.-.-.;.J U B >.W ,.X p q s '...).!.~.~.9 M {.].g . . ",
". . ^./.(.J l l -.J T _.>.m n o E q r G ..I !.:.<.<.[.#.{.}.. . ",
". |.1.2.l 3.4.t 3.5.A _.C V n D E F Y G H Z `  .<.6.:.K {.7.8.. ",
". 9.0./.U /.0.a.3.;.A U B V W ,.X p Y s '.Z ). .~.b.c.D M d.e.. ",
". f.a.U g.g.S a.l -.J T B >.m ,.o p q r '...I !.:.b.h.c.a {.i.j.",
"k.J t A l.2.S 4.t -.5.T _.C m n D E F r G H I ` :.<.6.m.A n.{.o.",
"p.;.5.a.q.2./.0.t 3.5.A U C V W D X F Y s H Z ). .~.6.c. .r.s.t.",
"u.5.V (.q.v.g.0.a.l ;.J U B >.W ,.X p q s '...).!.~.b.h.w.{ n.x.",
"y.A >.z (.l.g.S 4.l -.J T _.>.m n o E q r G ..I !.:.<.h.m.0 #.z.",
"A.T C z *.l.2./.4.t 3.5.A _.C V n D E F Y G H Z `  .<.6.c.(.B.C.",
"D.U C =.E.q.v./.0.a.3.;.A U B V W ,.X p Y s '.Z ). .~.b.c.l.M F.",
"G._.V Q E.(.v.g.S a.l -.J T B >.m ,.o p q r '...I !.:.b.h.9 @.K ",
"H.C ,.Q z *.l.2.S 4.t -.5.T _.C m n D E F r G H I ` :.<.6.4 L I.",
"J.>.m v.=.*.q.2./.0.t 3.;.A U C V W D X F Y s H Z ). .~.:.K.u L.",
"M.n B J =.E.(.v.g.0.a.l ;.J U B >.W ,.o p q s '...).!.~.X N.d O.",
"P.Q.>.,.Q z (.l.g.S 4.l -.J T _.>.m n o E q r G ..I !.:.k N.R.S.",
". T.V V l z *.q.U.V.W.X.3.5.A _.C V n D X F Y G H Z ` Y Y.r.Z.. ",
". `. +C W (.E..+++@+#+$+%+;.A U B V W ,.X p Y s '.Z I &+*+/ =+. ",
". . -+V B V E.;+>+,+'+)+!+-.J T B >.m ,.o p q r '...-.~+F.{+. . ",
". . . ]+C B U ^+/+(+_+:+<+-.5.T _.C m n D E F r G C [+~+v j.. . ",
". . . }+|+_._.1+2+3+4+5+6+3.;.A U C V W D X F Y A { / 7+8.. . . ",
". . . . 8+9+U J 0+a+b+c+a.l ;.J U B >.W ,.o o 2.a d+e+f+. . . . ",
". . . . . 8+g+A ;.5.A 5.a.l -.5.T _.>.m m l h+i+{ j+=+. . . . . ",
". . . . . . k+l+>.3.t a.;.;.;.A A 5.t (.h+4 5 m+n+o+. . . . . . ",
". . . . . . . . p+q+r+4./.v.(.z Q R s+t+j R u+v+. . . . . . . . ",
". . . . . . . . . . w+x+y+z+5.0././.A+B+C+D+. . . . . . . . . . "};
