/* XPM */
static const char * knob12_xpm[] = {
"32 32 247 2",
"  	c None",
". 	c #A8B5A4",
"+ 	c #A6B3A3",
"@ 	c #969F93",
"# 	c #7A8078",
"$ 	c #646863",
"% 	c #565856",
"& 	c #50514F",
"* 	c #575956",
"= 	c #636662",
"- 	c #797E77",
"; 	c #939B90",
"> 	c #A5B2A2",
", 	c #A2AE9F",
"' 	c #7E847D",
") 	c #4F4F4E",
"! 	c #383838",
"~ 	c #353535",
"{ 	c #363636",
"] 	c #373737",
"^ 	c #393939",
"/ 	c #3D3D3D",
"( 	c #505150",
"_ 	c #7A7F78",
": 	c #A1AC9D",
"< 	c #A7B4A3",
"[ 	c #8A9188",
"} 	c #4A4A4A",
"| 	c #3E3E3E",
"1 	c #505050",
"2 	c #626262",
"3 	c #727272",
"4 	c #737373",
"5 	c #6D6D6D",
"6 	c #5B5B5B",
"7 	c #484848",
"8 	c #4C4D4C",
"9 	c #858A83",
"0 	c #A6B2A2",
"a 	c #A5B1A1",
"b 	c #6C706C",
"c 	c #3B3B3B",
"d 	c #535353",
"e 	c #898989",
"f 	c #A6A6A6",
"g 	c #B2B2B2",
"h 	c #B4B4B4",
"i 	c #B3B3B3",
"j 	c #ABABAB",
"k 	c #939393",
"l 	c #676767",
"m 	c #464646",
"n 	c #424242",
"o 	c #454545",
"p 	c #696B69",
"q 	c #A3AE9F",
"r 	c #616361",
"s 	c #3A3A3A",
"t 	c #4C4C4C",
"u 	c #8B8B8B",
"v 	c #B0B0B0",
"w 	c #B1B1B1",
"x 	c #9E9E9E",
"y 	c #646464",
"z 	c #474747",
"A 	c #5F615F",
"B 	c #9FAA9C",
"C 	c #646663",
"D 	c #3C3C3C",
"E 	c #AFAFAF",
"F 	c #AEAEAE",
"G 	c #ADADAD",
"H 	c #828282",
"I 	c #636462",
"J 	c #737773",
"K 	c #3F3F3F",
"L 	c #6B6B6B",
"M 	c #AAAAAA",
"N 	c #ACACAC",
"O 	c #888888",
"P 	c #4E4E4E",
"Q 	c #70726F",
"R 	c #90988E",
"S 	c #414141",
"T 	c #636363",
"U 	c #A7A7A7",
"V 	c #A9A9A9",
"W 	c #A8A8A8",
"X 	c #848484",
"Y 	c #8B9089",
"Z 	c #5C5C5B",
"` 	c #444444",
" .	c #525252",
"..	c #9F9F9F",
"+.	c #A5A5A5",
"@.	c #A4A4A4",
"#.	c #555555",
"$.	c #616161",
"%.	c #A2AD9F",
"&.	c #8D948B",
"*.	c #A3A3A3",
"=.	c #A2A2A2",
"-.	c #9A9A9A",
";.	c #5F5F5F",
">.	c #595959",
",.	c #888D86",
"'.	c #676866",
").	c #494949",
"!.	c #5C5C5C",
"~.	c #A1A1A1",
"{.	c #A0A0A0",
"].	c #7D7D7D",
"^.	c #6A6B6A",
"/.	c #A1AB9E",
"(.	c #9D9D9D",
"_.	c #969696",
":.	c #9DA59A",
"<.	c #90978E",
"[.	c #4F4F4F",
"}.	c #515151",
"|.	c #959595",
"1.	c #9C9C9C",
"2.	c #9B9B9B",
"3.	c #717171",
"4.	c #8D928C",
"5.	c #80847F",
"6.	c #606060",
"7.	c #999999",
"8.	c #989898",
"9.	c #7F7F7F",
"0.	c #666666",
"a.	c #828481",
"b.	c #757875",
"c.	c #6C6C6C",
"d.	c #979797",
"e.	c #868686",
"f.	c #696969",
"g.	c #7C7C7B",
"h.	c #717371",
"i.	c #585858",
"j.	c #949494",
"k.	c #7A7A7A",
"l.	c #737573",
"m.	c #757575",
"n.	c #929292",
"o.	c #919191",
"p.	c #6F6F6F",
"q.	c #7C7C7C",
"r.	c #7B7E7B",
"s.	c #5E5E5E",
"t.	c #909090",
"u.	c #8F8F8F",
"v.	c #8E8E8E",
"w.	c #828382",
"x.	c #888C87",
"y.	c #707070",
"z.	c #8D8D8D",
"A.	c #8C8C8C",
"B.	c #8A8C8A",
"C.	c #989E96",
"D.	c #686868",
"E.	c #8A8A8A",
"F.	c #838383",
"G.	c #787878",
"H.	c #969B95",
"I.	c #A5AFA2",
"J.	c #878787",
"K.	c #827F7E",
"L.	c #A4ABA1",
"M.	c #808180",
"N.	c #7B7574",
"O.	c #4E2D2A",
"P.	c #431B18",
"Q.	c #4D2C29",
"R.	c #746B6A",
"S.	c #858585",
"T.	c #A8B4A5",
"U.	c #9BA099",
"V.	c #6E6E6E",
"W.	c #59322F",
"X.	c #632624",
"Y.	c #6A2927",
"Z.	c #642624",
"`.	c #572D2A",
" +	c #818181",
".+	c #9DA19C",
"++	c #A8B4A4",
"@+	c #7E7E7E",
"#+	c #7F7D7D",
"$+	c #7C302F",
"%+	c #A24947",
"&+	c #B95F5D",
"*+	c #A54E4C",
"=+	c #7D3130",
"-+	c #7C7474",
";+	c #A8B3A5",
">+	c #A1A8A0",
",+	c #777777",
"'+	c #767676",
")+	c #808080",
"!+	c #7F7E7E",
"~+	c #9E4D4B",
"{+	c #E79492",
"]+	c #FEE2E1",
"^+	c #EB9997",
"/+	c #A24745",
"(+	c #8A8989",
"_+	c #A3A7A1",
":+	c #959895",
"<+	c #797979",
"[+	c #887170",
"}+	c #D77E7C",
"|+	c #FBBEBC",
"1+	c #DF7F7D",
"2+	c #9A7977",
"3+	c #999A99",
"4+	c #A9B5A5",
"5+	c #A9B4A5",
"6+	c #919290",
"7+	c #7B7B7B",
"8+	c #837675",
"9+	c #8D8B8B",
"0+	c #969796",
"a+	c #AAB4A7",
"b+	c #A9B4A6",
"c+	c #929392",
"d+	c #A9B5A6",
"e+	c #9C9E9B",
"f+	c #A0A1A0",
"g+	c #ABB5A8",
"h+	c #A8ADA5",
"i+	c #919291",
"j+	c #979897",
"k+	c #A8AEA6",
"l+	c #ABB5A7",
"m+	c #A5AAA4",
"n+	c #AAADA8",
"o+	c #ABB6A8",
"p+	c #A9B6A6",
"q+	c #ABB4A9",
"r+	c #A6ABA5",
"s+	c #A4A6A3",
"t+	c #A3A4A3",
"u+	c #A6A7A5",
"v+	c #A9ADA7",
"w+	c #AEB6AC",
"x+	c #ABB7A8",
". . . . . . . . . . + @ # $ % & & * = - ; > . . . . . . . . . . ",
". . . . . . . . , ' ) ! ~ ~ { ] ] ! ^ ^ / ( _ : . . . . . . . . ",
". . . . . . < [ } { { ] | 1 2 3 4 5 6 7 | | | 8 9 0 . . . . . . ",
". . . . . a b c ! ^ d e f g h i i i i j k l m n o p , . . . . . ",
". . . . q r s s t u v g w w w w w v v v v v x y z z A B . . . . ",
". . . a C D / 2 f v E E E E E F F F F F G G G j H t } I q . . . ",
". . < J K K L M G G G G G N N N N N j j j j j M M O 1 P Q 0 . . ",
". . R o S T U j j j j M M M M V V V V V W W W W W U X d d Y . . ",
". a Z `  ...V V W W W W W U U U U U f f f f f +.+.+.@.4 #.$.%.. ",
". &.z z e U f f f f f +.+.+.+.@.@.@.@.@.*.*.*.*.*.=.=.-.;.>.,.. ",
". '.).!.~.@.@.@.*.*.*.*.*.=.=.=.=.=.~.~.~.~.~.{.{.{.{.{.].!.^.+ ",
"/. .t ].=.=.~.~.~.~.~.{.{.{.{.{...........x x x x x (.(._.T $.:.",
"<.[.}.|...........x x x x x (.(.(.(.(.1.1.1.1.2.2.2.2.2.-.3.T 4.",
"5. .6.1.(.(.(.1.1.1.1.1.2.2.2.2.-.-.-.-.-.7.7.7.7.7.8.8.8.9.0.a.",
"b.#.c.2.-.-.-.-.-.7.7.7.7.7.8.8.8.8.8.d.d.d.d.d._._._._.|.e.f.g.",
"h.i.4 8.8.8.8.d.d.d.d.d._._._._.|.|.|.|.|.j.j.j.j.j.k k k u c.k.",
"l.6 m._._.|.|.|.|.j.j.j.j.j.k k k k k n.n.n.n.n.o.o.o.o.o.u p.q.",
"r.s.m.k k k k n.n.n.n.n.o.o.o.o.o.t.t.t.t.t.u.u.u.u.u.v.v.e 3 w.",
"x.$.y.o.o.t.t.t.t.t.u.u.u.u.u.v.v.v.v.v.z.z.z.z.z.A.A.A.A.e.m.B.",
"C.y D.o.v.v.v.v.z.z.z.z.z.A.A.A.A.u u u u u E.E.E.E.E.e E.F.G.H.",
"I.L D.E.A.u u u u u E.E.E.E.E.e e e e e O O J.K.J.J.J.J.u q.q.L.",
". M.L q.u e e e O O O O O J.J.J.J.e.e.e.e.N.O.P.Q.R.S.X u ].E.T.",
". U.V.p.u J.e.e.e.e.S.S.S.S.S.X X X X X F.W.X.Y.Z.`.H O e. +.+. ",
". ++ +3 @+e X X F.F.F.F.F.H H H H H  + +#+$+%+&+*+=+-+z.F.E.;+. ",
". . >+,+'+u F. + + + +)+)+)+)+)+9.9.9.9.!+~+{+]+^+/+(+J.e._+. . ",
". . ++:+<+k.u.)+9.@+@+@+@+@+].].].].q.q.q.[+}+|+1+2+u O 3+4+. . ",
". . . 5+6+q.@+t.)+q.q.7+7+7+7+7+k.k.k.k.k.<+<+8+9+z.u 0+a+. . . ",
". . . . b+c+)+ +z.O <+<+<+<+G.G.G.G.,+,+,+,+F.k v.z.7.a+. . . . ",
". . . . . d+e+S.S.O o.A.].'+'+'+m.m.m.G.e.k j.u.t.f+g+. . . . . ",
". . . . . . . h+i+O e E.n.j.t.v.v.t.|.7.o.o.o.j+k+4+. . . . . . ",
". . . . . . . . l+m+j+z.v.v.u.t.t.o.n.n.k x n+o+. . . . . . . . ",
". . . . . . . . . . p+q+r+s+=.{.~.t+u+v+w+x+. . . . . . . . . . "};
