/* XPM */
static const char * knob22_xpm[] = {
"32 32 223 2",
"  	c None",
". 	c #A8B5A4",
"+ 	c #95A091",
"@ 	c #727B6F",
"# 	c #6C7369",
"$ 	c #6A7167",
"% 	c #6F776C",
"& 	c #70786D",
"* 	c #717A6F",
"= 	c #788175",
"- 	c #A6B3A2",
"; 	c #767E73",
"> 	c #686E64",
", 	c #757C73",
"' 	c #949C90",
") 	c #969F92",
"! 	c #959E91",
"~ 	c #949D90",
"{ 	c #939D8F",
"] 	c #929C8F",
"^ 	c #919B8E",
"/ 	c #8F998B",
"( 	c #788075",
"_ 	c #70796D",
": 	c #7E887B",
"< 	c #808A7D",
"[ 	c #666C63",
"} 	c #8F978C",
"| 	c #98A194",
"1 	c #97A093",
"2 	c #969F93",
"3 	c #959E92",
"4 	c #949E91",
"5 	c #939C8F",
"6 	c #929C8E",
"7 	c #919B8D",
"8 	c #909A8C",
"9 	c #8F9A8C",
"0 	c #899385",
"a 	c #676F64",
"b 	c #A3B0A0",
"c 	c #697167",
"d 	c #848B81",
"e 	c #99A296",
"f 	c #98A195",
"g 	c #97A094",
"h 	c #96A093",
"i 	c #929B8E",
"j 	c #8E998A",
"k 	c #8D9889",
"l 	c #8D9788",
"m 	c #7A8476",
"n 	c #656D63",
"o 	c #A3B09F",
"p 	c #A1AD9D",
"q 	c #686F66",
"r 	c #969E93",
"s 	c #959F92",
"t 	c #8E988A",
"u 	c #8C9788",
"v 	c #8B9687",
"w 	c #889384",
"x 	c #626A5F",
"y 	c #9EAB9B",
"z 	c #A6B2A2",
"A 	c #6F766C",
"B 	c #9AA297",
"C 	c #949E90",
"D 	c #939D90",
"E 	c #8D9789",
"F 	c #8A9586",
"G 	c #899585",
"H 	c #61695E",
"I 	c #A1AE9D",
"J 	c #737C71",
"K 	c #98A095",
"L 	c #9AA397",
"M 	c #99A195",
"N 	c #909B8C",
"O 	c #8B9686",
"P 	c #8A9585",
"Q 	c #899485",
"R 	c #869182",
"S 	c #5E655B",
"T 	c #838D80",
"U 	c #888F85",
"V 	c #9BA397",
"W 	c #8F9A8B",
"X 	c #8E9889",
"Y 	c #899484",
"Z 	c #889383",
"` 	c #788274",
" .	c #778073",
"..	c #A5B2A1",
"+.	c #666C64",
"@.	c #9BA398",
"#.	c #909B8D",
"$.	c #8B9787",
"%.	c #889484",
"&.	c #879383",
"*.	c #879282",
"=.	c #5D6559",
"-.	c #737C70",
";.	c #929A8F",
">.	c #8A9686",
",.	c #889483",
"'.	c #879382",
").	c #869282",
"!.	c #818C7C",
"~.	c #6E776C",
"{.	c #8C9787",
"].	c #869281",
"^.	c #859180",
"/.	c #5D655A",
"(.	c #A7B3A3",
"_.	c #7C8279",
":.	c #859281",
"<.	c #6F796B",
"[.	c #899386",
"}.	c #737B70",
"|.	c #84917F",
"1.	c #83907F",
"2.	c #6C7468",
"3.	c #84907F",
"4.	c #83907E",
"5.	c #646C61",
"6.	c #6D736A",
"7.	c #838F7E",
"8.	c #616A5E",
"9.	c #6B7168",
"0.	c #828F7D",
"a.	c #626B5F",
"b.	c #6B7269",
"c.	c #9AA296",
"d.	c #849180",
"e.	c #5D665A",
"f.	c #72796F",
"g.	c #818E7C",
"h.	c #5E675B",
"i.	c #757D73",
"j.	c #AD857D",
"k.	c #B25D59",
"l.	c #8A4A47",
"m.	c #7F7268",
"n.	c #5F685C",
"o.	c #AD9187",
"p.	c #F9BAB8",
"q.	c #ECA29F",
"r.	c #98403F",
"s.	c #5A2421",
"t.	c #828176",
"u.	c #818E7D",
"v.	c #6D766A",
"w.	c #859082",
"x.	c #838B80",
"y.	c #C7857E",
"z.	c #FFE3E2",
"A.	c #F0ACAA",
"B.	c #913F3D",
"C.	c #55211E",
"D.	c #695951",
"E.	c #768371",
"F.	c #828C7F",
"G.	c #666D64",
"H.	c #AB7971",
"I.	c #D6726F",
"J.	c #B45B58",
"K.	c #762F2D",
"L.	c #481D19",
"M.	c #70665C",
"N.	c #606A5D",
"O.	c #A7B4A3",
"P.	c #6D756B",
"Q.	c #959A8E",
"R.	c #904E4A",
"S.	c #762E2C",
"T.	c #53201E",
"U.	c #593F39",
"V.	c #90998C",
"W.	c #859181",
"X.	c #7F8D7A",
"Y.	c #9EAB9A",
"Z.	c #87867B",
"`.	c #838277",
" +	c #828E7D",
".+	c #626C5E",
"++	c #9DA999",
"@+	c #8B9387",
"#+	c #7B8876",
"$+	c #A5B2A2",
"%+	c #5F665D",
"&+	c #828F7E",
"*+	c #565E53",
"=+	c #A4B1A0",
"-+	c #98A594",
";+	c #626960",
">+	c #5D6659",
",+	c #96A192",
"'+	c #94A091",
")+	c #919A8D",
"!+	c #626C5F",
"~+	c #9BA797",
"{+	c #61685E",
"]+	c #8A9486",
"^+	c #7C8978",
"/+	c #586055",
"(+	c #95A191",
"_+	c #6E766B",
":+	c #616A5D",
"<+	c #687065",
"[+	c #A5B1A1",
"}+	c #818B7D",
"|+	c #7A8676",
"1+	c #666F64",
"2+	c #98A495",
"3+	c #7C8679",
"4+	c #697166",
"5+	c #636B60",
"6+	c #656D61",
"7+	c #5E665B",
"8+	c #677165",
"9+	c #7A8477",
"0+	c #A2AE9E",
". . . . . . . . . . . + @ # $ # % & * = + . . . . . . . . . . . ",
". . . . . . . . - ; > , ' ) ! ~ { ] ^ / ( _ : - . . . . . . . . ",
". . . . . . . < [ } | 1 2 3 4 ~ 5 6 7 8 9 / 0 a : . . . . . . . ",
". . . . . b c d e f g h ) ! ~ { ] i 7 8 / j k l m n o . . . . . ",
". . . . p q r e f | 1 2 s 4 ~ 5 6 7 8 9 / t k u v w x y . . . . ",
". . . z A B B e f g h ) ! C D ] 6 7 8 / j k E u v F G H I . . . ",
". . . J K L e M | 1 2 s 4 ~ { 6 7 N 8 / t k u v O P Q R S . . . ",
". . T U V B e f g h ) ! C D ] 6 7 8 W j X k u v F G Y Z `  .. . ",
". ..+.@.L e M | g 2 s 4 ~ { 6 7 #.8 / j k u $.O F Q %.&.*.=.o . ",
". -.;.V B e f g 1 ) ! C D ] 6 7 8 W j X k u v >.G Y ,.'.).!.~.. ",
". +.@.L e M | g 2 s ! ~ { 6 7 #.8 / j k u {.O F G %.&.'.].^./.(.",
"N _.@.B e f g 1 ) ! 4 D ] 6 7 8 W j t k u v >.G Y ,.&.).:.^.<.[.",
"}.B L e M | g 2 s ! ~ { 6 7 #.8 / j k u {.O F G %.&.'.].^.|.1.2.",
"}.@.B e f g 1 ) ! 4 D 5 6 7 8 W j t k u v >.P Y ,.&.).:.^.3.4.5.",
"6.L e M f g 2 s ! ~ { 6 ^ #.8 / j k u {.O F G %.Z '.].^.|.1.7.8.",
"9.B e f g 1 ) ! 4 D 5 6 7 8 W j t k u v >.P Y ,.&.).:.^.3.4.0.a.",
"b.c.M f g 2 s ! ~ { 6 ^ 7 8 / j k u {.v F G %.Z '.].^.d.1.7.0.e.",
"f.e f g 1 ) 3 4 D 5 6 7 8 W / t k u v >.P Y ,.&.).].^.3.4.0.g.h.",
"i.M f j.k.l.m.~ { 6 ^ 7 8 / j k u {.v F G %.Z '.].^.d.1.7.0.g.n.",
"@ f o.p.q.r.s.t.5 6 7 8 W / t k u v >.P Y %.&.).].^.3.4.0.u.g.v.",
"w.x.y.z.A.B.C.D.] ^ 7 8 / j k l u v F G %.Z '.].^.d.3.7.0.g.E.F.",
"(.G.H.I.J.K.L.M.6 7 8 W / t k u v >.P Y %.&.).].^.3.4.0.u.g.N.O.",
". P.Q.R.S.T.U.V.^ 7 8 / j k l u v F G %.Z '.].W.d.3.7.0.g.X.v.. ",
". Y.$ ~ Z.`.i 6 7 8 W / t k u v O P Y %.&.).].^.3.4.0. +g..+++. ",
". . ~.@+~ { ] i 7 8 / j k l u v F G Y Z '.].W.d.3.7.0.g.#+v.. . ",
". . $+%+D 5 6 7 8 9 / t k u v O P Q %.&.).].^.3.4.&+ +g.*+=+. . ",
". . . -+;+] i 7 8 / j k l u v F G Y Z '.].W.d.3.7.0.g.>+,+. . . ",
". . . . '+;+)+N 8 / t k u v O P Q %.&.*.].^.3.4.&+ +!+9 . . . . ",
". . . . . ~+{+]+W j k E u v F G Y Z '.).W.d.3.7.^+/+(+. . . . . ",
". . . . . . - * _+k k u $.O P Q %.&.*.].^.3.4.:+<+[+. . . . . . ",
". . . . . . . . ~+_+a }+v >.G Y Z '.).W.|+h.1+2+. . . . . . . . ",
". . . . . . . . . . [+3+4+5.5+6+5+7+H 8+9+0+. . . . . . . . . . "};
