/* XPM */
static const char * knob10_xpm[] = {
"32 32 221 2",
"  	c None",
". 	c #A8B5A4",
"+ 	c #8F9A8C",
"@ 	c #70796D",
"# 	c #626B5F",
"$ 	c #60695D",
"% 	c #5E675B",
"& 	c #646D60",
"* 	c #636B60",
"= 	c #6A7368",
"- 	c #858F82",
"; 	c #A7B3A3",
"> 	c #A5B2A1",
", 	c #768073",
"' 	c #626B5E",
") 	c #6D7868",
"! 	c #808E7B",
"~ 	c #818E7C",
"{ 	c #828E7D",
"] 	c #828F7D",
"^ 	c #717C6D",
"/ 	c #5D665A",
"( 	c #6B7368",
"_ 	c #9EAB9A",
": 	c #7B8478",
"< 	c #5E685B",
"[ 	c #7C8977",
"} 	c #818E7D",
"| 	c #828F7E",
"1 	c #838F7E",
"2 	c #83907E",
"3 	c #84907F",
"4 	c #5F675B",
"5 	c #6D766A",
"6 	c #A5B2A2",
"7 	c #A2AF9F",
"8 	c #5C6459",
"9 	c #727E6E",
"0 	c #849180",
"a 	c #859180",
"b 	c #859181",
"c 	c #7D8878",
"d 	c #596056",
"e 	c #98A594",
"f 	c #9EAA9A",
"g 	c #596156",
"h 	c #7E8B79",
"i 	c #83907F",
"j 	c #869281",
"k 	c #869282",
"l 	c #879282",
"m 	c #95A091",
"n 	c #A2AE9E",
"o 	c #5E665B",
"p 	c #879382",
"q 	c #879383",
"r 	c #889383",
"s 	c #889484",
"t 	c #656D62",
"u 	c #9BA797",
"v 	c #60685D",
"w 	c #808C7B",
"x 	c #859281",
"y 	c #889483",
"z 	c #899484",
"A 	c #5B6258",
"B 	c #A6B3A2",
"C 	c #7D867A",
"D 	c #707A6C",
"E 	c #899585",
"F 	c #8A9585",
"G 	c #8A9586",
"H 	c #828D7E",
"I 	c #6C756A",
"J 	c #A6B2A2",
"K 	c #5A6257",
"L 	c #84917F",
"M 	c #8B9686",
"N 	c #8B9687",
"O 	c #747D71",
"P 	c #7C8878",
"Q 	c #899485",
"R 	c #8A9686",
"S 	c #8C9787",
"T 	c #8C9788",
"U 	c #8D9788",
"V 	c #8D9889",
"W 	c #697166",
"X 	c #A5B1A1",
"Y 	c #687264",
"Z 	c #8E988A",
"` 	c #8E998A",
" .	c #7F897C",
"..	c #717A6E",
"+.	c #8F998B",
"@.	c #8F9A8B",
"#.	c #71796E",
"$.	c #687065",
"%.	c #8B9787",
"&.	c #909A8C",
"*.	c #6D756A",
"=.	c #676F64",
"-.	c #8D9789",
";.	c #8E9889",
">.	c #919B8D",
",.	c #666D63",
"'.	c #6A7367",
").	c #919B8E",
"!.	c #929C8E",
"~.	c #656C62",
"{.	c #6B7468",
"].	c #909B8D",
"^.	c #929C8F",
"/.	c #939C8F",
"(.	c #646B62",
"_.	c #929B8E",
":.	c #939D8F",
"<.	c #939D90",
"[.	c #666D64",
"}.	c #909B8C",
"|.	c #746B61",
"1.	c #4B2924",
"2.	c #48221E",
"3.	c #655048",
"4.	c #949E91",
"5.	c #676E65",
"6.	c #737C70",
"7.	c #87897D",
"8.	c #481F1B",
"9.	c #5D2421",
"0.	c #702C2A",
"a.	c #722C2B",
"b.	c #7F655E",
"c.	c #959E92",
"d.	c #6B7369",
"e.	c #767F72",
"f.	c #949D90",
"g.	c #776B62",
"h.	c #6C2928",
"i.	c #954240",
"j.	c #C56B68",
"k.	c #B95C59",
"l.	c #965753",
"m.	c #8B9388",
"n.	c #70786D",
"o.	c #959E91",
"p.	c #898278",
"q.	c #8D3837",
"r.	c #DB8381",
"s.	c #FEE4E3",
"t.	c #F6ABA9",
"u.	c #AC7068",
"v.	c #6A7067",
"w.	c #7E887B",
"x.	c #8A9587",
"y.	c #949E90",
"z.	c #959F92",
"A.	c #969F92",
"B.	c #9B7069",
"C.	c #DA7673",
"D.	c #F8B6B4",
"E.	c #D78B86",
"F.	c #999A8E",
"G.	c #6A7267",
"H.	c #697066",
"I.	c #969F93",
"J.	c #96A093",
"K.	c #97A093",
"L.	c #97A094",
"M.	c #9A9B8F",
"N.	c #9D9A8E",
"O.	c #98A195",
"P.	c #6F756C",
"Q.	c #98A495",
"R.	c #828C7F",
"S.	c #7F887C",
"T.	c #98A094",
"U.	c #99A195",
"V.	c #929A8F",
"W.	c #6A7268",
"X.	c #90998C",
"Y.	c #99A296",
"Z.	c #6C736A",
"`.	c #A3B09F",
" +	c #656D63",
".+	c #98A194",
"++	c #9AA296",
"@+	c #9AA297",
"#+	c #696F67",
"$+	c #9AA696",
"%+	c #9CA899",
"&+	c #626960",
"*+	c #929B8F",
"=+	c #9AA397",
"-+	c #686E66",
";+	c #919C8D",
">+	c #A0AC9C",
",+	c #61685F",
"'+	c #858D82",
")+	c #9BA398",
"!+	c #666C64",
"~+	c #99A596",
"{+	c #778075",
"]+	c #99A196",
"^+	c #6C726A",
"/+	c #737B70",
"(+	c #666E64",
"_+	c #81887E",
":+	c #9BA397",
"<+	c #889086",
"[+	c #676D65",
"}+	c #9DA999",
"|+	c #A7B4A3",
"1+	c #72796E",
"2+	c #6D756B",
"3+	c #6F766C",
"4+	c #72786F",
"5+	c #777D74",
"6+	c #787F75",
"7+	c #788075",
"8+	c #818B7E",
". . . . . . . . . . . + @ # $ % & # * = - ; . . . . . . . . . . ",
". . . . . . . . > , ' ) ! ~ ~ ~ { ] ] ] ^ / ( _ . . . . . . . . ",
". . . . . . . : < [ ~ ~ ~ } ] ] | 1 2 2 3 3 1 4 5 6 . . . . . . ",
". . . . . 7 8 9 ~ ~ ~ ] ] ] 1 2 2 3 3 3 0 a a b c d e . . . . . ",
". . . . f g h ~ { ] ] 1 1 2 i 3 3 0 a a b j j k l l $ m . . . . ",
". . . n o ~ ] ] 1 1 2 i 3 3 0 a a b j j k k p q q r s t u . . . ",
". . . v w | 1 2 i 3 3 0 a a b x j k k p p q r y s z z z A B . . ",
". . C D 2 i 3 3 0 a a a x j j k p p q r y s s z E E F G H I . . ",
". J K 3 3 L 0 a a x j j k p p q r y s s z E E F G G M N N t u . ",
". O P 0 a a b j j k l p q q r s s z Q E F G G R N N N S T N I . ",
". $ a b j j k l p q q r s s z Q E F F G R M N N S T T U V V W X ",
"m Y j k k p q q r y s z z E E F G R M N N S T T T V V V Z ` -  .",
"..3 p p q r y s z z E E F G R M N N S T T T V V V Z ` ` +.+.@.#.",
"$.q r y s s z E E F G R M N N %.T T T V V V Z ` ` +.+.@.@.&.&.*.",
"=.s s z Q E F G G M N N N T T T -.V V ;.Z ` ` +.+.@.&.&.&.>.>.,.",
"'.Q E F G G R N N N S T T U V V V Z ` ` +.+.@.&.&.&.>.>.>.).!.~.",
"{.F G R M N N S T T U V V V Z ` ` +.+.@.&.&.&.].>.>.).!.!.^./.(.",
"*.M N N S T T T V V V Z ` ` +.+.@.+ &.&.].>.>.).!.!.!._.:.:.<.[.",
"I S T T T V V V Z ` ` +.+.@.+ &.&.}.>.>.>.!.!.!.^.|.1.2.3./.4.5.",
"6.N V V V Z Z ` ` +.+.@.&.&.&.>.>.>._.!.!.^./.:.7.8.9.0.a.b.c.d.",
"m e.;.Z ` ` +.+.@.&.&.&.>.>.>.).!.!.^./.:.<.f.f.g.h.i.j.k.l.m.: ",
". n.` +.+.@.&.&.&.>.>.>.).!.!.^./.:.<.f.f.4.4.o.p.q.r.s.t.u.v.n ",
". w.x.&.&.&.].>.>.).!.!.^./.:.<.<.f.y.4.o.o.z.A.A.B.C.D.E.F.G.. ",
". B H.].>.>.).!.!.!./.:.:.<.f.y.4.o.o.z.A.A.I.J.K.L.M.N.O.P.Q.. ",
". . R.S.!.!.!.^.:.:.<.f.f.4.o.o.c.z.A.I.I.K.L.L.T.O.O.U.V.#.. . ",
". . . W.X./.:.<.f.f.4.o.o.c.z.A.I.I.K.L.L.T.O.O.O.U.Y.Y.Z.B . . ",
". . . `. +<.f.4.4.o.c.z.A.I.I.K.K.L.L..+O.O.U.Y.Y.++@+#+$+. . . ",
". . . . %+&+*+o.z.A.A.I.K.K.L.L..+O.O.U.Y.Y.++@+=+=+-+;+. . . . ",
". . . . . >+,+'+I.J.K.L.L..+O.O.U.Y.Y.++@+=+=+)+V.!+~+. . . . . ",
". . . . . . . {+[.V..+O.O.U.]+Y.Y.@+@+=+)+)+]+^+/+; . . . . . . ",
". . . . . . . . `.n.(+_+Y.Y.@+@+=+:+)+)+<+[+( }+. . . . . . . . ",
". . . . . . . . . . |+x.1+2+3+4+5+6+7+/+8+|+. . . . . . . . . . "};
