/* XPM */
static const char * knob14_xpm[] = {
"32 32 246 2",
"  	c None",
". 	c #A8B5A4",
"+ 	c #A6B3A2",
"@ 	c #9AA397",
"# 	c #81877F",
"$ 	c #696D68",
"% 	c #565856",
"& 	c #4F504E",
"* 	c #4D4D4D",
"= 	c #555655",
"- 	c #616460",
"; 	c #797F78",
"> 	c #959E92",
", 	c #A7B3A3",
"' 	c #A5B1A1",
") 	c #868C84",
"! 	c #585A58",
"~ 	c #404040",
"{ 	c #383838",
"] 	c #373737",
"^ 	c #363636",
"/ 	c #353535",
"( 	c #4E4F4D",
"_ 	c #7C817A",
": 	c #A3AF9F",
"< 	c #A7B4A3",
"[ 	c #8F968C",
"} 	c #565755",
"| 	c #3E3E3E",
"1 	c #3D3D3D",
"2 	c #3C3C3C",
"3 	c #414141",
"4 	c #4E4E4E",
"5 	c #5F5F5F",
"6 	c #686868",
"7 	c #6E6E6E",
"8 	c #636363",
"9 	c #515151",
"0 	c #464646",
"a 	c #A6B2A2",
"b 	c #A5B0A1",
"c 	c #757874",
"d 	c #565656",
"e 	c #808080",
"f 	c #9F9F9F",
"g 	c #ADADAD",
"h 	c #B1B1B1",
"i 	c #B2B2B2",
"j 	c #B3B3B3",
"k 	c #A7A7A7",
"l 	c #909090",
"m 	c #616161",
"n 	c #393939",
"o 	c #3A3A3A",
"p 	c #60625F",
"q 	c #A1AC9D",
"r 	c #A4B0A0",
"s 	c #6A6C6A",
"t 	c #454545",
"u 	c #525252",
"v 	c #888888",
"w 	c #A8A8A8",
"x 	c #ACACAC",
"y 	c #AEAEAE",
"z 	c #AFAFAF",
"A 	c #B0B0B0",
"B 	c #9C9C9C",
"C 	c #5B5B5B",
"D 	c #3B3B3B",
"E 	c #555654",
"F 	c #9CA699",
"G 	c #6D6F6C",
"H 	c #494949",
"I 	c #484848",
"J 	c #6A6A6A",
"K 	c #A9A9A9",
"L 	c #AAAAAA",
"M 	c #ABABAB",
"N 	c #777777",
"O 	c #555755",
"P 	c #A0AC9D",
"Q 	c #7D817C",
"R 	c #4C4C4C",
"S 	c #707070",
"T 	c #A1A1A1",
"U 	c #A5A5A5",
"V 	c #A6A6A6",
"W 	c #848484",
"X 	c #434343",
"Y 	c #646664",
"Z 	c #979F95",
"` 	c #545454",
" .	c #4F4F4F",
"..	c #696969",
"+.	c #9E9E9E",
"@.	c #A2A2A2",
"#.	c #A3A3A3",
"$.	c #A4A4A4",
"%.	c #7D7D7D",
"&.	c #444444",
"*.	c #858B83",
"=.	c #696A69",
"-.	c #535353",
";.	c #5E5E5E",
">.	c #999999",
",.	c #A0A0A0",
"'.	c #676767",
").	c #A2AD9E",
"!.	c #929990",
"~.	c #575757",
"{.	c #9D9D9D",
"].	c #80847E",
"^.	c #737573",
"/.	c #5A5A5A",
"(.	c #989898",
"_.	c #9A9A9A",
":.	c #9B9B9B",
"<.	c #717171",
"[.	c #4B4B4B",
"}.	c #5C5E5C",
"|.	c #A4AEA1",
"1.	c #626262",
"2.	c #5D5D5D",
"3.	c #838383",
"4.	c #969696",
"5.	c #979797",
"6.	c #505050",
"7.	c #97A095",
"8.	c #989E96",
"9.	c #939393",
"0.	c #949494",
"a.	c #959595",
"b.	c #828781",
"c.	c #8C908A",
"d.	c #646464",
"e.	c #919191",
"f.	c #929292",
"g.	c #757575",
"h.	c #747673",
"i.	c #848683",
"j.	c #7A7A7A",
"k.	c #8E8E8E",
"l.	c #8F8F8F",
"m.	c #828282",
"n.	c #6A6A69",
"o.	c #828381",
"p.	c #818181",
"q.	c #8C8C8C",
"r.	c #8D8D8D",
"s.	c #878787",
"t.	c #848584",
"u.	c #6D6D6D",
"v.	c #8A8A8A",
"w.	c #8B8B8B",
"x.	c #8B8D8A",
"y.	c #898989",
"z.	c #868686",
"A.	c #606060",
"B.	c #737473",
"C.	c #949793",
"D.	c #737373",
"E.	c #7E7E7E",
"F.	c #7E807E",
"G.	c #9FA59E",
"H.	c #767676",
"I.	c #858585",
"J.	c #666666",
"K.	c #8D928C",
"L.	c #A9B2A6",
"M.	c #797979",
"N.	c #9EA69C",
"O.	c #A8B4A4",
"P.	c #909190",
"Q.	c #7C7C7C",
"R.	c #7F7F7F",
"S.	c #A4A9A2",
"T.	c #787878",
"U.	c #919590",
"V.	c #A9B5A6",
"W.	c #78706F",
"X.	c #593F3D",
"Y.	c #533734",
"Z.	c #706362",
"`.	c #747474",
" +	c #A6B1A3",
".+	c #A8AEA6",
"++	c #7B7B7B",
"@+	c #7D7474",
"#+	c #642A28",
"$+	c #642724",
"%+	c #56211F",
"&+	c #471D1A",
"*+	c #6F6261",
"=+	c #989D97",
"-+	c #A0A29F",
";+	c #835F5F",
">+	c #9F4341",
",+	c #A8504E",
"'+	c #8F3E3C",
")+	c #6B2928",
"!+	c #5D403E",
"~+	c #8D8E8C",
"{+	c #AAB5A6",
"]+	c #9A9B9A",
"^+	c #906766",
"/+	c #E18582",
"(+	c #FBCFCD",
"_+	c #DF8C89",
":+	c #943E3C",
"<+	c #704C4A",
"[+	c #8A8B8A",
"}+	c #A7B2A4",
"|+	c #ABB5A8",
"1+	c #9A9C9A",
"2+	c #7D7878",
"3+	c #D07F7D",
"4+	c #FFDBDA",
"5+	c #F19D9A",
"6+	c #A64947",
"7+	c #837777",
"8+	c #8E8E8D",
"9+	c #A7B1A4",
"0+	c #AAB6A7",
"a+	c #A2A4A1",
"b+	c #7B7877",
"c+	c #9E7271",
"d+	c #A87674",
"e+	c #928686",
"f+	c #959695",
"g+	c #A8B2A5",
"h+	c #A9B5A5",
"i+	c #ACB2AA",
"j+	c #A3A7A2",
"k+	c #A8B5A5",
"l+	c #ADB7A9",
"m+	c #ACB1AB",
"n+	c #A2A6A1",
"o+	c #AAB4A7",
"p+	c #AFB7AD",
"q+	c #AAAEA9",
"r+	c #A5A7A4",
"s+	c #A2A3A2",
"t+	c #9FA09F",
"u+	c #A1A3A1",
"v+	c #A6A9A4",
"w+	c #ABB2A9",
". . . . . . . . . . + @ # $ % & * = - ; > , . . . . . . . . . . ",
". . . . . . . . ' ) ! ~ { { ] ] ^ ^ / / ] ( _ : . . . . . . . . ",
". . . . . . < [ } | 1 2 3 4 5 6 7 8 9 ~ ] ] ^ 0 # a . . . . . . ",
". . . . . b c 0 3 ~ d e f g h h i j j k l m | n o p q . . . . . ",
". . . . r s t t u v w x g y y z A h h i j j B C 2 D E F . . . . ",
". . . a G H I J f w K L L M x g g y z A A h i A N 3 1 O P . . . ",
". . . Q R R S T U V k k w K L L M x g g y z A A A W X ~ Y a . . ",
". . Z `  ...+.@.#.#.$.U V k k w K L L M x g g y z z %.X &.*.. . ",
". , =.-.;.>.f ,.,.T @.#.#.$.U V V k w K K L M x x g x '.t -.).. ",
". !.~.d v B B {.+.f ,.,.T @.#.#.$.U V V k w K K L M x f 4 I ].. ",
". ^./...(.>._.:.B B {.+.f f ,.T @.@.#.$.U U V k w w K L <.[.}.' ",
"|.1.2.3.4.5.(.>.>._.:.B B {.+.f f ,.T @.@.#.$.U U V k w 4. .6.7.",
"8.m 1.9.0.a.a.4.5.(.(.>._.:.:.B {.+.+.f ,.T @.@.#.$.U U $.1.9 b.",
"c.d.S e.f.f.9.0.a.a.4.5.(.(.>._.:.:.B {.+.+.f ,.T T @.#.$.g.` h.",
"i.'.j.k.l.l e.e.f.9.0.0.a.4.5.5.(.>._.:.:.B {.+.+.f ,.T T m.~.n.",
"o.J p.q.r.k.k.l.l e.e.f.9.0.0.a.4.5.5.(.>._._.:.B {.{.+.f s./.6 ",
"t.u.p.v.v.w.q.r.r.k.l.l e.e.f.9.0.0.a.4.5.5.(.>._._.:.B {.v.2.J ",
"x.S e s.v y.v.v.w.q.r.r.k.l.l l e.f.9.9.0.a.4.4.5.(.>._._.z.A.B.",
"C.D.E.s.z.s.s.v y.v.v.w.q.r.r.k.l.l l e.f.9.9.0.a.4.4.5.(.e 8 F.",
"G.H.j.q.3.W I.z.z.s.v y.y.v.w.q.q.r.k.l.l.l e.f.9.9.0.a.a.g.J.K.",
"L.E.M.q.p.m.3.3.W I.z.z.s.v y.y.v.w.q.q.r.k.l.l.l e.f.f.f.u.J N.",
"O.P.Q.v.e R.e p.m.m.3.W I.z.z.s.v y.y.v.w.q.q.r.k.l.l.l s.u.M., ",
". S.R.e r.%.E.R.R.e p.m.m.3.W I.I.z.s.v v y.v.w.w.q.r.l.T.S U.. ",
". V.e.p.q.e Q.Q.%.E.R.R.e p.m.m.3.W W.X.Y.Z.v v y.v.w.s.`.j. +. ",
". . .+z.W l.j.j.++++Q.%.E.E.R.e p.@+#+$+%+&+*+z.s.s.q.M.N =+. . ",
". . . -+s.s.e.M.T.M.j.++++Q.%.E.E.;+>+,+'+)+!+W W w.R.++~+O.. . ",
". . . {+]+v.w.9.++N N T.M.j.j.++Q.^+/+(+_+:+<+m.k.3.E.[+}+. . . ",
". . . . |+1+q.q.0.z.g.H.N N T.M.j.2+3+4+5+6+7+r.W m.8+9+. . . . ",
". . . . . 0+a+l.k.e.0.y.T.g.H.N N T.b+c+d+e+w.z.z.f+g+. . . . . ",
". . . . . . h+i+:.e.l l (.4.l r.k.l f.9.q.v.v.l.j+k+. . . . . . ",
". . . . . . . . l+m+T 0.f.f.e.e.l l l.k.k.4.n+o+. . . . . . . . ",
". . . . . . . . . . 0+p+q+r+s+f f t+u+v+w+{+. . . . . . . . . . "};
