/* XPM */
static const char * knob21_xpm[] = {
"32 32 248 2",
"  	c None",
". 	c #A8B5A4",
"+ 	c #A8B4A4",
"@ 	c #A7B0A4",
"# 	c #999F98",
"$ 	c #8C8F8B",
"% 	c #818381",
"& 	c #7C7D7B",
"* 	c #797A79",
"= 	c #797B78",
"- 	c #7F837E",
"; 	c #8D938B",
"> 	c #A0A99D",
", 	c #A7B4A3",
"' 	c #A9B4A5",
") 	c #A0A69F",
"! 	c #898A89",
"~ 	c #747474",
"{ 	c #6E6E6E",
"] 	c #6B6B6B",
"^ 	c #676767",
"/ 	c #646464",
"( 	c #616161",
"_ 	c #5E5E5E",
": 	c #5B5B5B",
"< 	c #585858",
"[ 	c #575757",
"} 	c #6A6B6A",
"| 	c #8C928A",
"1 	c #A5B1A1",
"2 	c #A6ACA4",
"3 	c #8A8C8A",
"4 	c #777777",
"5 	c #717171",
"6 	c #707070",
"7 	c #7A7A7A",
"8 	c #7D7D7D",
"9 	c #7B7B7B",
"0 	c #767676",
"a 	c #696969",
"b 	c #555555",
"c 	c #515151",
"d 	c #4E4E4E",
"e 	c #8E958C",
"f 	c #A9B5A6",
"g 	c #9EA19D",
"h 	c #808080",
"i 	c #787878",
"j 	c #838383",
"k 	c #888888",
"l 	c #8D8D8D",
"m 	c #8C8C8C",
"n 	c #8F8F8F",
"o 	c #929292",
"p 	c #949494",
"q 	c #969696",
"r 	c #858585",
"s 	c #4F4F4F",
"t 	c #4B4B4B",
"u 	c #4A4A4A",
"v 	c #737672",
"w 	c #A3AE9F",
"x 	c #AAB5A6",
"y 	c #989A98",
"z 	c #818181",
"A 	c #7E7E7E",
"B 	c #868686",
"C 	c #8B8B8B",
"D 	c #909090",
"E 	c #959595",
"F 	c #979797",
"G 	c #9A9A9A",
"H 	c #9C9C9C",
"I 	c #9D9D9D",
"J 	c #898989",
"K 	c #484848",
"L 	c #454545",
"M 	c #616260",
"N 	c #A1AC9E",
"O 	c #9B9D9B",
"P 	c #848484",
"Q 	c #828282",
"R 	c #8E8E8E",
"S 	c #9F9F9F",
"T 	c #A1A1A1",
"U 	c #9E9E9E",
"V 	c #6F6F6F",
"W 	c #464646",
"X 	c #424242",
"Y 	c #5E605E",
"Z 	c #A3A6A2",
"` 	c #878787",
" .	c #7F7F7F",
"..	c #939393",
"+.	c #989898",
"@.	c #A2A2A2",
"#.	c #A4A4A4",
"$.	c #A5A5A5",
"%.	c #757575",
"&.	c #434343",
"*.	c #3F3F3F",
"=.	c #6D706C",
"-.	c #A7B3A3",
";.	c #A9B1A7",
">.	c #919191",
",.	c #A7A7A7",
"'.	c #6A6A6A",
").	c #3E3E3E",
"!.	c #888E86",
"~.	c #AAB6A6",
"{.	c #9A9A99",
"].	c #9B9B9B",
"^.	c #A0A0A0",
"/.	c #AAAAAA",
"(.	c #525252",
"_.	c #3C3C3C",
":.	c #A2AD9E",
"<.	c #AAB0A8",
"[.	c #8A8A8A",
"}.	c #999999",
"|.	c #ACACAC",
"1.	c #3D3D3D",
"2.	c #393939",
"3.	c #7D827B",
"4.	c #A9B5A5",
"5.	c #A2A3A1",
"6.	c #797979",
"7.	c #A3A3A3",
"8.	c #A8A8A8",
"9.	c #ADADAD",
"0.	c #505150",
"a.	c #AFB9AC",
"b.	c #AFAFAF",
"c.	c #383838",
"d.	c #939C91",
"e.	c #ADB3AB",
"f.	c #7C7C7C",
"g.	c #A6A6A6",
"h.	c #ABABAB",
"i.	c #B0B0B0",
"j.	c #363636",
"k.	c #777C75",
"l.	c #A9ADA8",
"m.	c #B2B2B2",
"n.	c #5F625E",
"o.	c #A6A8A6",
"p.	c #A9A9A9",
"q.	c #AEAEAE",
"r.	c #B3B3B3",
"s.	c #515251",
"t.	c #A4A5A4",
"u.	c #A3A4A3",
"v.	c #B1B1B1",
"w.	c #494949",
"x.	c #A5A6A4",
"y.	c #A8ABA7",
"z.	c #B4B4B4",
"A.	c #5D5D5D",
"B.	c #616460",
"C.	c #ABB1AA",
"D.	c #807777",
"E.	c #915E5D",
"F.	c #7E4F4E",
"G.	c #736463",
"H.	c #767B74",
"I.	c #ADB6AA",
"J.	c #7B7878",
"K.	c #D27A77",
"L.	c #D97A77",
"M.	c #963F3D",
"N.	c #5B2421",
"O.	c #6D605E",
"P.	c #3B3B3B",
"Q.	c #373737",
"R.	c #939C90",
"S.	c #A8B5A5",
"T.	c #9E9F9E",
"U.	c #967271",
"V.	c #FED5D4",
"W.	c #FACECC",
"X.	c #A54E4C",
"Y.	c #612523",
"Z.	c #50312E",
"`.	c #6C6C6C",
" +	c #3A3A3A",
".+	c #494A49",
"++	c #A4B0A0",
"@+	c #A8AEA7",
"#+	c #9D7A79",
"$+	c #F5A4A2",
"%+	c #E89996",
"&+	c #964341",
"*+	c #582220",
"=+	c #737771",
"-+	c #AAB5A7",
";+	c #999998",
">+	c #918E8D",
",+	c #AC5452",
"'+	c #A24544",
")+	c #752D2C",
"!+	c #491E1A",
"~+	c #726665",
"{+	c #666666",
"]+	c #9DA89A",
"^+	c #A9AEA7",
"/+	c #8D8888",
"(+	c #7A5B5A",
"_+	c #6B5251",
":+	c #756B6A",
"<+	c #414141",
"[+	c #7A8079",
"}+	c #9FA19E",
"|+	c #404040",
"1+	c #4D4D4D",
"2+	c #545554",
"3+	c #9CA799",
"4+	c #A9B3A6",
"5+	c #929392",
"6+	c #474747",
"7+	c #575857",
"8+	c #9CA598",
"9+	c #A8B3A5",
"0+	c #979896",
"a+	c #595959",
"b+	c #666866",
"c+	c #9EA99B",
"d+	c #A0A59E",
"e+	c #5A5A5A",
"f+	c #535353",
"g+	c #505050",
"h+	c #828680",
"i+	c #A8B2A4",
"j+	c #979B95",
"k+	c #737373",
"l+	c #6D6D6D",
"m+	c #636363",
"n+	c #606060",
"o+	c #7D827C",
"p+	c #9FA99C",
"q+	c #A7B3A4",
"r+	c #A0A89D",
"s+	c #90958F",
"t+	c #838583",
"u+	c #7A7A79",
"v+	c #757775",
"w+	c #828681",
"x+	c #959C93",
"y+	c #A3AFA0",
". . . . . . . . . . + @ # $ % & * = - ; > , . . . . . . . . . . ",
". . . . . . . . ' ) ! ~ { ] ^ / ( _ : < [ } | 1 . . . . . . . . ",
". . . . . . . 2 3 4 ~ 5 6 7 8 8 9 0 a : b c d _ e , . . . . . . ",
". . . . . f g h 7 i j k l m l n o p q q r ^ s t u v w . . . . . ",
". . . . x y z A B l r B k C l D o E F G H I J : K L M N . . . . ",
". . . x O P Q n r z P B J C R D o E F G H S T U V W X Y w . . . ",
". . . Z ` P D  . .Q P B J C R D ..E +.G I S @.#.$.%.&.*.=.-.. . ",
". . ;.m ` n 8 8  .Q P ` J m R >...E +.G I S @.#.,.,.'.*.).!.. . ",
". ~.{.C D  .9 8 h Q r ` J m R >...q +.].I ^.@.$.,./.$.(._.d :.. ",
". <.R C m i 9 8 h Q r ` [.m n >.p q }.].I ^.@.$.,./.|.R 1.2.3.. ",
"4.5.R p 6.6.9 A h j r k [.m n >.p q }.].U ^.7.$.8./.9.9.: 2.0.1 ",
"a.E R l 4 6.9 A h j r k [.l n o p F }.H U ^.7.$.8./.9.b.B 2.c.d.",
"e.>.o h 4 6.f.A z j B k C l D o p F }.H U T 7.g.8.h.9.i.8.*.j.k.",
"l.>.F 0 4 7 f. .z j B k C l D o E F G H S T 7.g.8.h.9.i.m.b j.n.",
"o.>...%.4 7 f. .z P B J C R D ..E F G H S T #.g.p.h.q.i.r.'.j.s.",
"t.>.o %.i 7 8  .Q P B J C R D ..E +.G I S @.#.,.p.h.q.i.r.5 j.K ",
"u.>.o 0 i 7 8  .Q P ` J m R >...q +.G I S @.#.,.p.|.q.v.r.5 j.w.",
"x.>...0 i 9 8 h Q r ` J m R >...q +.].I ^.@.$.,./.|.q.v.r.] j.0.",
"y.o q 0 6.9 8 h Q r ` [.m n >.p q }.].U ^.@.$.,./.|.b.v.z.A.j.B.",
"C.o E A 6.D.E.F.G.r k [.l n >.p q }.].U ^.7.$.8./.9.b.m.b.w.j.H.",
"I...n m J.K.L.M.N.O.k [.l n o p F }.H U T 7.$.8./.9.b.m.F P.Q.R.",
"S.T.n >.U.V.W.X.Y.Z.k C l D o p F }.H U T 7.g.8.h.9.i.m.`. +.+++",
". @+n n #+$+%+&+*+Z.k C l D o E F G H S T #.g.8.h.9.i.S &. +=+. ",
". -+;+m >+,+'+)+!+~+J C R D ..E +.G H S T #.g.p.h.q.q.{+1.W ]+. ",
". . ^+m J /+(+_+:+` J C R D ..E +.G I S @.#.,.p.h.q.j <+1.[+. . ",
". . . }+J k C Q P ` J m R >...q +.].I S @.#.,.p.|.R K |+Y 1 . . ",
". . . x q r r R r ` [.m R >...q +.].I ^.@.$.,.p.k 1+&.2+3+. . . ",
". . . . 4+5+Q h J C [.m n >.p q }.].U ^.@.$.U V t 6+7+8+. . . . ",
". . . . . 9+0+h f.A J n n o p q }.].U ^.}.h a+1+u b+c+. . . . . ",
". . . . . . . d+r 6.0 %.A P k m l k A ] e+f+g+< h+1 . . . . . . ",
". . . . . . . . i+j+h k+6 l+a {+m+n+A.e+[ ( o+p+. . . . . . . . ",
". . . . . . . . . . q+r+s+t+u+k+6 5 v+w+x+y+. . . . . . . . . . "};
