/* XPM */
static const char * knob20_xpm[] = {
"32 32 243 2",
"  	c None",
". 	c #A8B5A4",
"+ 	c #A5AEA2",
"@ 	c #979D95",
"# 	c #878B86",
"$ 	c #797B79",
"% 	c #717271",
"& 	c #6E6F6E",
"* 	c #727471",
"= 	c #7C7F7B",
"- 	c #8C918A",
"; 	c #9EA79B",
"> 	c #A7B4A3",
", 	c #A8B4A4",
"' 	c #9BA19A",
") 	c #808180",
"! 	c #6B6B6B",
"~ 	c #656565",
"{ 	c #616161",
"] 	c #5E5E5E",
"^ 	c #5B5B5B",
"/ 	c #585858",
"( 	c #555555",
"_ 	c #525252",
": 	c #4F4F4F",
"< 	c #626361",
"[ 	c #878D86",
"} 	c #A4AFA0",
"| 	c #A2A9A1",
"1 	c #828382",
"2 	c #6F6F6F",
"3 	c #686868",
"4 	c #717171",
"5 	c #767676",
"6 	c #777777",
"7 	c #757575",
"8 	c #636363",
"9 	c #535353",
"0 	c #4D4D4D",
"a 	c #4A4A4A",
"b 	c #474747",
"c 	c #565756",
"d 	c #8C9189",
"e 	c #A7B3A3",
"f 	c #A8B4A5",
"g 	c #999B97",
"h 	c #787878",
"i 	c #727272",
"j 	c #7B7B7B",
"k 	c #8A8A8A",
"l 	c #919191",
"m 	c #939393",
"n 	c #969696",
"o 	c #989898",
"p 	c #9B9B9B",
"q 	c #9C9C9C",
"r 	c #828282",
"s 	c #484848",
"t 	c #444444",
"u 	c #6D6F6C",
"v 	c #A9B4A6",
"w 	c #949694",
"x 	c #797979",
"y 	c #7D7D7D",
"z 	c #8B8B8B",
"A 	c #8E8E8E",
"B 	c #909090",
"C 	c #959595",
"D 	c #9A9A9A",
"E 	c #9D9D9D",
"F 	c #9F9F9F",
"G 	c #A2A2A2",
"H 	c #565656",
"I 	c #424242",
"J 	c #3F3F3F",
"K 	c #5D5E5D",
"L 	c #A0AB9D",
"M 	c #A9B5A5",
"N 	c #979896",
"O 	c #7A7A7A",
"P 	c #898989",
"Q 	c #868686",
"R 	c #A1A1A1",
"S 	c #A4A4A4",
"T 	c #A6A6A6",
"U 	c #6A6A6A",
"V 	c #404040",
"W 	c #3C3C3C",
"X 	c #5B5C5A",
"Y 	c #A3AF9F",
"Z 	c #A0A39F",
"` 	c #818181",
" .	c #7E7E7E",
"..	c #8F8F8F",
"+.	c #848484",
"@.	c #929292",
"#.	c #979797",
"$.	c #A9A9A9",
"%.	c #3E3E3E",
"&.	c #3A3A3A",
"*.	c #666965",
"=.	c #A6B3A2",
"-.	c #A9B0A7",
";.	c #878787",
">.	c #838383",
",.	c #888888",
"'.	c #8D8D8D",
").	c #ABABAB",
"!.	c #696969",
"~.	c #3B3B3B",
"{.	c #858B82",
"].	c #A9B5A6",
"^.	c #969796",
"/.	c #858585",
"(.	c #949494",
"_.	c #999999",
":.	c #9E9E9E",
"<.	c #A3A3A3",
"[.	c #A8A8A8",
"}.	c #ADADAD",
"|.	c #505050",
"1.	c #383838",
"2.	c #464646",
"3.	c #A0AC9D",
"4.	c #A8AFA7",
"5.	c #7C7C7C",
"6.	c #AFAFAF",
"7.	c #363636",
"8.	c #797E77",
"9.	c #9C9D9B",
"0.	c #808080",
"a.	c #A0A0A0",
"b.	c #A5A5A5",
"c.	c #AAAAAA",
"d.	c #B1B1B1",
"e.	c #595959",
"f.	c #4A4B4A",
"g.	c #A5B2A1",
"h.	c #ACB6A9",
"i.	c #8C8C8C",
"j.	c #B2B2B2",
"k.	c #373737",
"l.	c #929B90",
"m.	c #A7A7A7",
"n.	c #ACACAC",
"o.	c #414141",
"p.	c #353535",
"q.	c #757A74",
"r.	c #A7AAA6",
"s.	c #B3B3B3",
"t.	c #60625F",
"u.	c #A5A7A5",
"v.	c #AEAEAE",
"w.	c #515351",
"x.	c #A4A5A4",
"y.	c #7F7F7F",
"z.	c #4B4C4B",
"A.	c #A5A6A4",
"B.	c #B0B0B0",
"C.	c #A6A8A6",
"D.	c #525452",
"E.	c #A8ABA7",
"F.	c #393939",
"G.	c #5E615E",
"H.	c #ABB1A9",
"I.	c #4C4C4C",
"J.	c #747973",
"K.	c #AFB7AC",
"L.	c #7F7D7D",
"M.	c #8F978C",
"N.	c #A9B6A5",
"O.	c #A2A3A2",
"P.	c #847474",
"Q.	c #9E514F",
"R.	c #803231",
"S.	c #5B302E",
"T.	c #78706F",
"U.	c #6D6D6D",
"V.	c #4C4D4C",
"W.	c #A4B0A0",
"X.	c #ACB1AA",
"Y.	c #CA7977",
"Z.	c #E99795",
"`.	c #A94F4C",
" +	c #682826",
".+	c #4A2623",
"++	c #868585",
"@+	c #AAB5A7",
"#+	c #9B9C9B",
"$+	c #7C7A7A",
"%+	c #F5ADAB",
"&+	c #FFEBE9",
"*+	c #C46A67",
"=+	c #702C2A",
"-+	c #441C18",
";+	c #7B7574",
">+	c #494949",
",+	c #9EA99B",
"'+	c #AAB1A8",
")+	c #D57B78",
"!+	c #EFA19E",
"~+	c #AE5653",
"{+	c #6A2927",
"]+	c #482320",
"^+	c #7F857D",
"/+	c #A3A5A3",
"(+	c #997E7D",
"_+	c #A54947",
":+	c #833332",
"<+	c #582926",
"[+	c #6F6261",
"}+	c #4E4E4E",
"|+	c #636563",
"1+	c #A5B1A1",
"2+	c #8C8A8A",
"3+	c #7B7272",
"4+	c #818080",
"5+	c #515151",
"6+	c #4B4B4B",
"7+	c #989998",
"8+	c #9CA699",
"9+	c #9B9D9B",
"0+	c #6B6C6A",
"a+	c #A8B5A5",
"b+	c #A4A8A2",
"c+	c #747474",
"d+	c #5C5C5C",
"e+	c #858A84",
"f+	c #A8B3A5",
"g+	c #9EA29C",
"h+	c #6C6C6C",
"i+	c #666666",
"j+	c #606060",
"k+	c #676767",
"l+	c #828681",
"m+	c #A0AA9D",
"n+	c #A4ABA2",
"o+	c #959994",
"p+	c #898B89",
"q+	c #7E807E",
"r+	c #8A8E88",
"s+	c #9AA197",
"t+	c #A5B1A2",
". . . . . . . . . . . + @ # $ % & * = - ; > . . . . . . . . . . ",
". . . . . . . . , ' ) ! ~ { ] ^ / ( _ : : < [ } . . . . . . . . ",
". . . . . . , | 1 2 ! 3 3 4 5 6 7 2 8 9 0 a b c d e . . . . . . ",
". . . . . f g h i 2 j k l l m n o p q o r { s t t u } . . . . . ",
". . . . v w x 5 y k z z A B m C o D E F G G A H I J K L . . . . ",
". . . M N y O k P Q P z A B m C o D E F R S T G U V W X Y . . . ",
". . . Z `  ...+.+.Q P z A B @.C #.D q F R S T $.$.i %.&.*.=.. . ",
". . -.;.` ..` ` >.Q ,.z '.B @.C #.D q F R S T $.).).!.~.&.{.. . ",
". ].^./.z >. .` >.Q ,.z '.B @.(.#._.q :.R <.T [.).}.$.|.1.2.3.. ",
". 4.P Q k 5. .` >./.,.k '...@.(.#._.q :.R <.T [.).}.6.l &.7.8.. ",
". 9.P l j j  .0.>./.,.k '...@.(.#._.q :.a.<.b.[.c.}.6.d.e.7.f.g.",
"h.B k A x j  .0.>./.;.k i...l (.n _.p :.a.<.b.[.c.}.6.j.B k.k.l.",
"-.A ..>.h j y 0.r /.;.k i...l (.n _.p :.a.G b.m.c.n.6.d.c.o.p.q.",
"r...C 6 h j y 0.r /.;.k i...l m n o p E a.G b.m.c.n.6.d.s.( p.t.",
"u...m 5 h j y 0.r +.;.P i.A l m n o p E a.G b.m.c.n.v.d.s.3 7.w.",
"x.B l 7 h O y y.r +.;.P i.A l m n o p E F G S m.$.n.v.d.s.h k.z.",
"A.l l 7 h O y y.r +.Q P z A B m C o D E F G S m.$.n.v.B.s.x k.z.",
"C.l m 7 6 O 5.y.` +.Q P z A B m C o D E F R S T $.).v.B.s.i 1.D.",
"E.@.o 7 6 O 5.y.` +.Q P z A B @.C #.D q F R S T $.).v.B.s.{ F.G.",
"H.m #.5.6 x 5. .` >.Q ,.z '.B @.C #.D q F R S T [.).}.B.}.I.F.J.",
"K.n B k 6 x 5. .L.>.Q ,.z '.B @.(.#._.q :.R <.T [.).}.B.o J ~.M.",
"N.O.l C 6 x P.Q.R.S.T.,.k '...@.(.#._.q :.R <.T [.).}.6.U.%.V.W.",
". X.@.@.,.x Y.Z.`. +.+++k '...@.(.#._.q :.a.<.b.[.c.}.G s J J.. ",
". @+#+..(.$+%+&+*+=+-+;+k i...l (.n _.p :.a.<.b.[.c.n.U I >+,+. ",
". . '+l '.A )+!+~+{+]+++k i...l (.n _.p :.a.<.b.m.c.,.s t ^+. . ",
". . . /+'.'.(+_+:+<+[+;.k i...l m n o p E a.G b.m.A }+b |+1+. . ",
". . . @+#+z k 2+3+4++.;.P i.A l m n o p E a.G S k 5+6+X L . . . ",
". . . . @+7+P ;.'.,.+.;.P i.A l m n o D E F E h ( }+] 8+. . . . ",
". . . . . @+9+;.>.Q z z P z A B m C o D #.` { ( _ 0+L . . . . . ",
". . . . . . a+b+z `  .5.>.;.P i.i.,.r c+~ d+e.] e+1+. . . . . . ",
". . . . . . . . f+g+k 5.h 7 i 2 h+!.i+8 j+k+l+m+. . . . . . . . ",
". . . . . . . . . . f n+o+p+0.j h x q+r+s+t+. . . . . . . . . . "};
