/* XPM */
static const char * knob28_xpm[] = {
"32 32 222 2",
"  	c None",
". 	c #A8B5A4",
"+ 	c #8E998B",
"@ 	c #767E73",
"# 	c #6F776D",
"$ 	c #6A7168",
"% 	c #6B7168",
"& 	c #70786D",
"* 	c #7A8478",
"= 	c #95A192",
"- 	c #A4B0A0",
"; 	c #727A6F",
"> 	c #686E65",
", 	c #7F867D",
"' 	c #9AA397",
") 	c #9BA398",
"! 	c #9BA397",
"~ 	c #858C82",
"{ 	c #757C73",
"] 	c #788175",
"^ 	c #A3AF9F",
"/ 	c #80897D",
"( 	c #70766D",
"_ 	c #949C91",
": 	c #9AA297",
"< 	c #959E92",
"[ 	c #6B7269",
"} 	c #7C8579",
"| 	c #A7B4A3",
"1 	c #A1AE9E",
"2 	c #636961",
"3 	c #899186",
"4 	c #99A196",
"5 	c #99A296",
"6 	c #9AA296",
"7 	c #888F85",
"8 	c #656C63",
"9 	c #A2AF9F",
"0 	c #9BA797",
"a 	c #60665E",
"b 	c #98A094",
"c 	c #98A195",
"d 	c #99A195",
"e 	c #959D92",
"f 	c #61675F",
"g 	c #9DAA9A",
"h 	c #A1AE9D",
"i 	c #60675E",
"j 	c #9C9186",
"k 	c #D07F7A",
"l 	c #F2A9A7",
"m 	c #D1847F",
"n 	c #9D9489",
"o 	c #97A094",
"p 	c #98A194",
"q 	c #5F665D",
"r 	c #61675E",
"s 	c #939C90",
"t 	c #A35450",
"u 	c #EB9996",
"v 	c #FFECEB",
"w 	c #EFA4A2",
"x 	c #A75753",
"y 	c #969F93",
"z 	c #96A093",
"A 	c #97A093",
"B 	c #626960",
"C 	c #747D72",
"D 	c #878F84",
"E 	c #91968A",
"F 	c #803231",
"G 	c #AE5552",
"H 	c #CB7270",
"I 	c #AE5351",
"J 	c #833332",
"K 	c #92978B",
"L 	c #959F92",
"M 	c #969F92",
"N 	c #858D82",
"O 	c #778175",
"P 	c #9EAA9A",
"Q 	c #666D64",
"R 	c #949E90",
"S 	c #949D90",
"T 	c #5D332F",
"U 	c #6A2927",
"V 	c #712C2B",
"W 	c #6A2827",
"X 	c #5D302C",
"Y 	c #939C8F",
"Z 	c #949E91",
"` 	c #959E91",
" .	c #666C63",
"..	c #A0AC9C",
"+.	c #6E766B",
"@.	c #90998C",
"#.	c #939D8F",
"$.	c #939D90",
"%.	c #7D796E",
"&.	c #4B2823",
"*.	c #441C18",
"=.	c #4A2722",
"-.	c #807E73",
";.	c #90998D",
">.	c #717A6E",
",.	c #A7B4A4",
"'.	c #646B61",
").	c #929C8E",
"!.	c #929C8F",
"~.	c #919A8D",
"{.	c #84857A",
"].	c #90988B",
"^.	c #6B7268",
"/.	c #889285",
"(.	c #919B8D",
"_.	c #919B8E",
":.	c #929B8E",
"<.	c #7E877B",
"[.	c #8D988A",
"}.	c #737C70",
"|.	c #909A8C",
"1.	c #909B8D",
"2.	c #757E72",
"3.	c #8F9A8B",
"4.	c #8F9A8C",
"5.	c #909B8C",
"6.	c #6C7469",
"7.	c #8F998B",
"8.	c #6F776C",
"9.	c #6A7267",
"0.	c #8E988A",
"a.	c #8E998A",
"b.	c #687065",
"c.	c #8D9889",
"d.	c #8E9889",
"e.	c #666E63",
"f.	c #8C9788",
"g.	c #8D9788",
"h.	c #8D9789",
"i.	c #8B9687",
"j.	c #8B9787",
"k.	c #8C9787",
"l.	c #6B7368",
"m.	c #6B7468",
"n.	c #8A9586",
"o.	c #8A9686",
"p.	c #8B9686",
"q.	c #70796D",
"r.	c #848E81",
"s.	c #798375",
"t.	c #899585",
"u.	c #8A9585",
"v.	c #7A8476",
"w.	c #899486",
"x.	c #656E62",
"y.	c #889484",
"z.	c #899484",
"A.	c #899485",
"B.	c #6E776B",
"C.	c #869282",
"D.	c #879383",
"E.	c #889383",
"F.	c #889483",
"G.	c #727B6F",
"H.	c #60685D",
"I.	c #879282",
"J.	c #879382",
"K.	c #9FAB9B",
"L.	c #7D8878",
"M.	c #869281",
"N.	c #7C8677",
"O.	c #71796E",
"P.	c #A6B3A2",
"Q.	c #596056",
"R.	c #84907F",
"S.	c #859180",
"T.	c #859181",
"U.	c #859281",
"V.	c #849080",
"W.	c #5B6258",
"X.	c #A7B3A3",
"Y.	c #9DA99A",
"Z.	c #84917F",
"`.	c #849180",
" +	c #5A6157",
".+	c #96A292",
"++	c #5A6257",
"@+	c #828F7D",
"#+	c #83907E",
"$+	c #83907F",
"%+	c #838F7E",
"&+	c #586056",
"*+	c #98A495",
"=+	c #9DA999",
"-+	c #585F55",
";+	c #7A8675",
">+	c #828F7E",
",+	c #798474",
"'+	c #9EAB9B",
")+	c #6D756A",
"!+	c #60695C",
"~+	c #818D7C",
"{+	c #818E7C",
"]+	c #818E7D",
"^+	c #828E7D",
"/+	c #5F685C",
"(+	c #6E786C",
"_+	c #99A595",
":+	c #6D766A",
"<+	c #5C6558",
"[+	c #768271",
"}+	c #758171",
"|+	c #5C6559",
"1+	c #9AA697",
"2+	c #A5B2A1",
"3+	c #687165",
"4+	c #656F62",
"5+	c #646D60",
"6+	c #616B5E",
"7+	c #636D5F",
"8+	c #646E61",
"9+	c #7D877A",
". . . . . . . . . . . + @ # $ $ $ % & * = . . . . . . . . . . . ",
". . . . . . . . - ; > , ' ) ) ) ) ) ) ! ~ { ] ^ . . . . . . . . ",
". . . . . . . / ( _ : : : : : : ' ' ' ' ' ' < [ } | . . . . . . ",
". . . . . 1 2 3 4 4 5 5 5 5 5 5 5 5 5 5 5 5 5 6 7 8 9 . . . . . ",
". . . . 0 a < b c c c c c c c c c c c c c d d d d e f g . . . . ",
". . . h i j k l m n o o o o o o o o o b b b p p p p o q 9 . . . ",
". . | r s t u v w x y y y y y z z A A A A A A A A A o s B | . . ",
". . C D E F G H I J K L L L L M M M M M M M M M M y y y N O . . ",
". P Q R S T U V W X Y Z Z Z ` ` ` ` ` ` ` ` ` ` ` < < < L  .... ",
". +.@.#.$.%.&.*.=.-.$.S S S S S S S S S S R R R Z Z Z Z Z ;.>.. ",
",.'.).).!.!.~.{.].Y Y Y Y Y Y #.#.#.#.#.#.#.#.$.$.$.$.$.$.$.^.. ",
"/.} (._._._._.:.).).).).).).).).).).).).).).!.!.!.!.!.!.Y Y <.[.",
"}.|.1.1.1.(.(.(.(.(.(.(.(.(.(.(.(.(.(.(.(._._._._._.:.).).)._.2.",
"+.3.4.|.|.|.|.|.|.|.|.|.|.|.|.|.|.|.|.|.|.5.1.1.(.(.(.(.(.(.(.& ",
"6.7.7.7.7.7.7.7.7.7.7.7.7.7.3.3.3.3.3.3.3.4.|.|.|.|.|.|.|.|.|.8.",
"9.0.0.0.0.0.0.a.a.a.a.a.a.a.a.a.a.a.a.a.7.7.7.7.7.7.7.7.7.7.7.>.",
"b.c.c.c.c.c.c.c.c.c.c.c.c.c.c.c.c.c.d.0.0.0.0.0.0.0.a.a.a.a.a.>.",
"e.f.f.f.f.f.f.f.f.f.f.f.f.f.f.f.f.g.g.h.c.c.c.c.c.c.c.c.c.c.c.+.",
"e.i.i.i.i.i.i.i.i.i.i.i.i.j.k.k.k.k.k.f.f.f.f.f.f.f.f.f.f.f.f.l.",
"m.n.n.n.n.n.n.o.o.o.o.o.p.p.p.p.p.p.i.i.i.i.i.i.i.i.i.i.i.i.i.q.",
"r.s.t.t.t.t.t.t.t.t.u.u.u.u.u.u.u.n.n.n.n.n.n.n.n.o.o.o.o.o.v.w.",
"| x.y.y.y.y.y.y.y.z.z.z.z.z.z.z.z.A.A.A.t.t.t.t.t.t.t.t.t.t.e.| ",
". B.C.D.D.D.E.E.E.E.E.E.E.F.F.F.y.y.y.y.y.y.y.y.y.y.y.z.z.C.G.. ",
". 0 H.C.I.I.J.J.J.J.J.J.J.J.J.D.D.D.D.D.D.D.D.D.D.E.E.E.E.H.K.. ",
". . +.L.M.M.M.M.M.M.M.M.M.M.M.C.C.C.C.C.C.C.C.I.I.J.J.J.N.O.. . ",
". . P.Q.R.S.S.S.S.S.S.S.S.S.T.T.T.T.U.U.U.M.M.M.M.M.M.V.W.X.. . ",
". . . Y.Q.R.R.R.R.R.R.R.Z.Z.`.`.`.`.`.S.S.S.S.S.S.S.S. +K.. . . ",
". . . . .+++@+#+#+#+#+#+#+$+$+$+$+R.R.R.R.R.R.R.R.%+&+*+. . . . ",
". . . . . =+-+;+@+@+@+@+>+>+>+%+%+%+%+%+%+%+%+%+,+Q.'+. . . . . ",
". . . . . . P.)+!+~+{+]+]+^+^+^+^+@+@+@+@+@+{+/+(+X.. . . . . . ",
". . . . . . . . _+:+<+[+{+{+{+{+{+{+{+{+}+|+:+1+. . . . . . . . ",
". . . . . . . . . . 2+} 3+4+5+6+7+8+x.3+9+2+. . . . . . . . . . "};
