/* XPM */
static const char * knob18_xpm[] = {
"32 32 241 2",
"  	c None",
". 	c #A8B5A4",
"+ 	c #A8B4A4",
"@ 	c #A1AA9E",
"# 	c #8E948C",
"$ 	c #7B7F7A",
"% 	c #6C6E6C",
"& 	c #646563",
"* 	c #626361",
"= 	c #666765",
"- 	c #717470",
"; 	c #848A82",
"> 	c #9AA397",
", 	c #A6B3A3",
"' 	c #A7B3A3",
") 	c #91988F",
"! 	c #6F706F",
"~ 	c #585858",
"{ 	c #525252",
"] 	c #505050",
"^ 	c #4D4D4D",
"/ 	c #4B4B4B",
"( 	c #484848",
"_ 	c #464646",
": 	c #434343",
"< 	c #404040",
"[ 	c #585857",
"} 	c #818780",
"| 	c #A3AFA0",
"1 	c #9CA49A",
"2 	c #717171",
"3 	c #5C5C5C",
"4 	c #595959",
"5 	c #575757",
"6 	c #616161",
"7 	c #686868",
"8 	c #6D6D6D",
"9 	c #3D3D3D",
"0 	c #3B3B3B",
"a 	c #868C84",
"b 	c #A6B3A2",
"c 	c #8C8F8B",
"d 	c #666666",
"e 	c #606060",
"f 	c #5E5E5E",
"g 	c #6C6C6C",
"h 	c #838383",
"i 	c #969696",
"j 	c #9C9C9C",
"k 	c #9F9F9F",
"l 	c #A1A1A1",
"m 	c #A4A4A4",
"n 	c #A6A6A6",
"o 	c #9E9E9E",
"p 	c #828282",
"q 	c #3E3E3E",
"r 	c #3A3A3A",
"s 	c #636663",
"t 	c #A1AD9D",
"u 	c #A7B2A4",
"v 	c #848684",
"w 	c #676767",
"x 	c #656565",
"y 	c #6E6E6E",
"z 	c #8B8B8B",
"A 	c #959595",
"B 	c #979797",
"C 	c #9A9A9A",
"D 	c #A0A0A0",
"E 	c #A2A2A2",
"F 	c #A5A5A5",
"G 	c #A7A7A7",
"H 	c #A9A9A9",
"I 	c #ABABAB",
"J 	c #8D8D8D",
"K 	c #393939",
"L 	c #363636",
"M 	c #525352",
"N 	c #9DA89A",
"O 	c #898A88",
"P 	c #696969",
"Q 	c #7E7E7E",
"R 	c #919191",
"S 	c #929292",
"T 	c #949494",
"U 	c #989898",
"V 	c #9B9B9B",
"W 	c #9D9D9D",
"X 	c #A3A3A3",
"Y 	c #A8A8A8",
"Z 	c #AAAAAA",
"` 	c #ACACAC",
" .	c #AEAEAE",
"..	c #515251",
"+.	c #A1AC9E",
"@.	c #959894",
"#.	c #707070",
"$.	c #858585",
"%.	c #8E8E8E",
"&.	c #939393",
"*.	c #ADADAD",
"=.	c #B0B0B0",
"-.	c #777777",
";.	c #353535",
">.	c #5E605D",
",.	c #A6B2A2",
"'.	c #A4ABA1",
").	c #787878",
"!.	c #727272",
"~.	c #818181",
"{.	c #909090",
"].	c #B1B1B1",
"^.	c #B2B2B2",
"/.	c #373737",
"(.	c #81877F",
"_.	c #A8B4A5",
":.	c #767676",
"<.	c #8A8A8A",
"[.	c #888888",
"}.	c #8C8C8C",
"|.	c #999999",
"1.	c #535353",
"2.	c #A2AE9F",
"3.	c #A4AAA2",
"4.	c #7B7B7B",
"5.	c #848484",
"6.	c #878787",
"7.	c #898989",
"8.	c #8F8F8F",
"9.	c #B3B3B3",
"0.	c #7A7F78",
"a.	c #939493",
"b.	c #7D7D7D",
"c.	c #868686",
"d.	c #AFAFAF",
"e.	c #636363",
"f.	c #4D4D4C",
"g.	c #ABB4A8",
"h.	c #808080",
"i.	c #939C90",
"j.	c #A6ACA4",
"k.	c #7F7F7F",
"l.	c #474747",
"m.	c #383838",
"n.	c #777C75",
"o.	c #A1A49F",
"p.	c #5F615E",
"q.	c #9D9E9C",
"r.	c #7A7A7A",
"s.	c #535453",
"t.	c #9B9D9B",
"u.	c #797979",
"v.	c #9C9D9B",
"w.	c #3F3F3F",
"x.	c #4E4E4E",
"y.	c #9FA19E",
"z.	c #414141",
"A.	c #555655",
"B.	c #A3A7A2",
"C.	c #7C7C7C",
"D.	c #656764",
"E.	c #ABB1A9",
"F.	c #5A5A5A",
"G.	c #444444",
"H.	c #AFB8AC",
"I.	c #939B91",
"J.	c #A9B5A5",
"K.	c #A3A4A3",
"L.	c #757575",
"M.	c #A4B0A1",
"N.	c #AEB3AC",
"O.	c #565656",
"P.	c #4C4C4C",
"Q.	c #7D827C",
"R.	c #ABB7A8",
"S.	c #7F6D6C",
"T.	c #6D4241",
"U.	c #5C3F3D",
"V.	c #756C6B",
"W.	c #515151",
"X.	c #A1AC9D",
"Y.	c #AEB4AC",
"Z.	c #877171",
"`.	c #AC4A48",
" +	c #923D3B",
".+	c #662725",
"++	c #451D19",
"@+	c #776D6C",
"#+	c #868B84",
"$+	c #A7AAA7",
"%+	c #AD6F6D",
"&+	c #F5B1AF",
"*+	c #D6817F",
"=+	c #863836",
"-+	c #501F1C",
";+	c #614C4A",
">+	c #5F5F5F",
",+	c #6F716F",
"'+	c #ACB7A8",
")+	c #A2A3A2",
"!+	c #AE7776",
"~+	c #FFE9E8",
"{+	c #F5B6B4",
"]+	c #9D4746",
"^+	c #5B2321",
"/+	c #624E4C",
"(+	c #5B5B5B",
"_+	c #A1AB9E",
":+	c #ADB7AA",
"<+	c #A1A2A1",
"[+	c #8B7F7F",
"}+	c #DB7D7A",
"|+	c #D67370",
"1+	c #923C3A",
"2+	c #5F302E",
"3+	c #7D7978",
"4+	c #6C6C6B",
"5+	c #9EA89B",
"6+	c #AAB5A7",
"7+	c #A3A5A2",
"8+	c #938989",
"9+	c #986D6C",
"0+	c #7F605F",
"a+	c #7E7A7A",
"b+	c #7A7C7A",
"c+	c #A3ADA0",
"d+	c #A9AFA8",
"e+	c #6B6B6B",
"f+	c #91958F",
"g+	c #ABB6A8",
"h+	c #A5AAA4",
"i+	c #8E928D",
"j+	c #A4AFA1",
"k+	c #A9B5A6",
"l+	c #A9B0A7",
"m+	c #A0A49F",
"n+	c #989998",
"o+	c #8B8D8B",
"p+	c #939792",
"q+	c #9EA59C",
"r+	c #A7B3A4",
". . . . . . . . . . + @ # $ % & * = - ; > , . . . . . . . . . . ",
". . . . . . . . ' ) ! ~ { ] ^ / ( _ : < : [ } | . . . . . . . . ",
". . . . . . . 1 2 3 4 5 5 6 7 8 8 7 5 ( < 9 0 ^ a b . . . . . . ",
". . . . . + c d e f g h i j k l m n n o p ~ q r r s t . . . . . ",
". . . . u v w x y z A B C j o D E F G H I I J ] K L M N . . . . ",
". . . + O g P Q R S T i U V W k l X n Y Z `  .Y P K L ..+.. . . ",
". . . @.#.y $.%.%.R &.A B C j o D E F G H I *.=.=.-.K ;.>.,.. . ",
". . '.).!.~.z z J {.S T i U V W k l X n Y Z `  .].^.y /.L (.. . ",
". _.z :.Q <.[.<.}.%.R &.A B |.j o D E m G H I *.=.^.*.1.L : 2.. ",
". 3.4.).%.5.6.7.z J 8.S T i U V W k l X n Y Z `  .].9.A 0 ;.0.. ",
". a.b.7.5.h c.[.<.}.%.R &.A B |.j o D E m G H I *.d.^.9.e./.f.b ",
"g.c.Q J h.p 5.6.7.z J 8.S T i U C W k l X F Y Z `  .=.9.T r K i.",
"j.h 5.[.k.~.h $.[.<.}.%.{.&.A B |.j o D E m G H I *.d.^. .l.m.n.",
"o.5.%.b.Q h.p 5.6.7.z J 8.S T i U C W k l X F Y Z `  .=.9.e r p.",
"q.c.J r.b.k.~.h $.[.<.}.%.{.&.A B |.V o D E m n H I *.d.^.!.0 s.",
"t.[.%.u.4.Q h.p 5.c.7.z J 8.S T i U C W k l X F Y Z `  .=.b.9 ^ ",
"v.<.R ).r.b.k.~.h $.[.<.}.%.{.&.A B |.V o D E m n H I *.d.b.w.x.",
"y.}.&.-.u.4.Q h.p 5.c.7.z J 8.R T i U C j k l X F G Z `  .).z.A.",
"B.%.A :.).r.C.k.~.h $.6.<.}.%.{.&.A B |.V o D E m n H I *.P : D.",
"E.8.S h.-.u.4.Q h.p 5.c.7.z J 8.R T i U C j k l X F G Z Z F.G.$ ",
"H.T 8.z :.).r.C.k.~.h $.6.<.}.%.{.S A B |.V W D E m n H U / ( I.",
"J.K.{.i L.-.u.4.b.h.p 5.c.[.z J 8.R T i U C j k l X F G L./ 4 M.",
". N.S S 6.:.).r.C.k.~.h $.6.<.}.%.{.S A B |.V W D E m o O.P.Q.. ",
". R.D R B ).-.u.4.b.S.T.U.V.[.z J 8.R &.i U C j o l E ).W.4 X.. ",
". . Y.T R &.:.).r.Z.`. +.+++@+<.}.%.{.S A B |.V W D z 5 1.#+. . ",
". . J.$+S S 8.-.u.%+&+*+=+-+;+[.z J 8.R &.i U C j R >+5 ,+,.. . ",
". . . '+)+S R &.r.!+~+{+]+^+/+6.7.}.%.{.S T B |.J d (+P _+. . . ",
". . . . :+<+R 8.&.[+}+|+1+2+3+c.[.z J 8.R &.T p x e 4+5+. . . . ",
". . . . . 6+7+R J 8.8+9+0+a+h $.6.7.}.%.R 6.!.w x b+c+. . . . . ",
". . . . . . . d+B J <.7.J z }.z <.7.[.h.L.y e+#.f+' . . . . . . ",
". . . . . . . . g+h+i <.6.5.p k.C.r.-.L.!.r.i+j+. . . . . . . . ",
". . . . . . . . . . k+l+m+n+{.}.7.<.o+p+q+r+. . . . . . . . . . "};
