/* XPM */
static const char * knob22_xpm[] = {
"32 32 243 2",
"  	c None",
". 	c #A8B5A4",
"+ 	c #A8B4A4",
"@ 	c #A9B2A6",
"# 	c #9FA49D",
"$ 	c #939692",
"% 	c #898B89",
"& 	c #838382",
"* 	c #7F807F",
"= 	c #818381",
"- 	c #888C87",
"; 	c #949A92",
"> 	c #A2AB9F",
", 	c #A9B5A5",
"' 	c #A4A9A2",
") 	c #909190",
"! 	c #7E7E7E",
"~ 	c #767676",
"{ 	c #737373",
"] 	c #707070",
"^ 	c #6D6D6D",
"/ 	c #6A6A6A",
"( 	c #676767",
"_ 	c #646464",
": 	c #616161",
"< 	c #606060",
"[ 	c #6F706F",
"} 	c #8D938B",
"| 	c #A6B2A2",
"1 	c #A8AFA6",
"2 	c #929292",
"3 	c #808080",
"4 	c #7C7C7C",
"5 	c #797979",
"6 	c #7B7B7B",
"7 	c #828282",
"8 	c #5D5D5D",
"9 	c #5A5A5A",
"0 	c #575757",
"a 	c #646564",
"b 	c #939991",
"c 	c #AAB5A6",
"d 	c #A2A4A1",
"e 	c #878787",
"f 	c #8B8B8B",
"g 	c #8D8D8D",
"h 	c #868686",
"i 	c #8A8A8A",
"j 	c #8C8C8C",
"k 	c #8E8E8E",
"l 	c #919191",
"m 	c #939393",
"n 	c #6C6C6C",
"o 	c #535353",
"p 	c #777A76",
"q 	c #A5B1A1",
"r 	c #AAB6A7",
"s 	c #9C9E9C",
"t 	c #848484",
"u 	c #818181",
"v 	c #838383",
"w 	c #888888",
"x 	c #8F8F8F",
"y 	c #949494",
"z 	c #969696",
"A 	c #989898",
"B 	c #626262",
"C 	c #505050",
"D 	c #4C4C4C",
"E 	c #676866",
"F 	c #A2AD9F",
"G 	c #AAB6A6",
"H 	c #9E9F9D",
"I 	c #7D7D7D",
"J 	c #7F7F7F",
"K 	c #898989",
"L 	c #909090",
"M 	c #959595",
"N 	c #979797",
"O 	c #999999",
"P 	c #9C9C9C",
"Q 	c #9B9B9B",
"R 	c #6F6F6F",
"S 	c #494949",
"T 	c #646664",
"U 	c #A3AFA0",
"V 	c #A5A8A4",
"W 	c #858585",
"X 	c #9A9A9A",
"Y 	c #9F9F9F",
"Z 	c #454545",
"` 	c #6E716E",
" .	c #A7B3A3",
"..	c #ADB4AB",
"+.	c #7A7A7A",
"@.	c #9D9D9D",
"#.	c #A2A2A2",
"$.	c #444444",
"%.	c #8A9088",
"&.	c #ABB6A7",
"*.	c #A0A0A0",
"=.	c #787878",
"-.	c #9E9E9E",
";.	c #A3A3A3",
">.	c #A5A5A5",
",.	c #A1A1A1",
"'.	c #414141",
").	c #525252",
"!.	c #AEB4AC",
"~.	c #A6A6A6",
"{.	c #A8A8A8",
"].	c #3E3E3E",
"^.	c #81867F",
"/.	c #A5A6A4",
"(.	c #777777",
"_.	c #A4A4A4",
":.	c #A9A9A9",
"<.	c #5B5B5B",
"[.	c #3D3D3D",
"}.	c #545554",
"|.	c #A5B2A2",
"1.	c #AFB8AC",
"2.	c #A7A7A7",
"3.	c #AAAAAA",
"4.	c #ACACAC",
"5.	c #3C3C3C",
"6.	c #96A094",
"7.	c #ACB2AA",
"8.	c #ADADAD",
"9.	c #393939",
"0.	c #7C817A",
"a.	c #A7ABA6",
"b.	c #757575",
"c.	c #ABABAB",
"d.	c #AFAFAF",
"e.	c #383838",
"f.	c #656864",
"g.	c #A5A7A5",
"h.	c #AEAEAE",
"i.	c #B1B1B1",
"j.	c #656565",
"k.	c #515251",
"l.	c #A4A4A3",
"m.	c #6E6E6E",
"n.	c #373737",
"o.	c #4A4B4A",
"p.	c #A3A4A3",
"q.	c #B0B0B0",
"r.	c #B2B2B2",
"s.	c #747474",
"t.	c #363636",
"u.	c #A2A4A2",
"v.	c #7C7979",
"w.	c #8F6A68",
"x.	c #855F5F",
"y.	c #7C7271",
"z.	c #B3B3B3",
"A.	c #696969",
"B.	c #505150",
"C.	c #A4A7A3",
"D.	c #797878",
"E.	c #C57B79",
"F.	c #E58987",
"G.	c #A64846",
"H.	c #692A28",
"I.	c #726766",
"J.	c #353535",
"K.	c #5C5E5B",
"L.	c #A8AEA6",
"M.	c #937574",
"N.	c #FECCCA",
"O.	c #FDDBDA",
"P.	c #B35956",
"Q.	c #6A2927",
"R.	c #533532",
"S.	c #434343",
"T.	c #747973",
"U.	c #ACB5AA",
"V.	c #A07B7A",
"W.	c #EF9593",
"X.	c #E59592",
"Y.	c #984442",
"Z.	c #5B2321",
"`.	c #4D2C29",
" +	c #90998E",
".+	c #9B9C9B",
"++	c #908B8A",
"@+	c #A54B49",
"#+	c #99413F",
"$+	c #702B2A",
"%+	c #491D1A",
"&+	c #695857",
"*+	c #494A49",
"=+	c #A6ABA4",
"-+	c #857C7C",
";+	c #724D4C",
">+	c #5E3E3C",
",+	c #6A5A58",
"'+	c #404040",
")+	c #767B74",
"!+	c #A9B5A6",
"~+	c #939493",
"{+	c #424242",
"]+	c #A1AC9D",
"^+	c #7B8079",
"/+	c #999B99",
"(+	c #3B3B3B",
"_+	c #5A5B59",
":+	c #A8B4A5",
"<+	c #919290",
"[+	c #4F504F",
"}+	c #9EA99B",
"|+	c #A8B2A5",
"1+	c #8D8E8D",
"2+	c #98A295",
"3+	c #A8B3A5",
"4+	c #8F918F",
"5+	c #515151",
"6+	c #464646",
"7+	c #5E605E",
"8+	c #9EA89A",
"9+	c #9A9F98",
"0+	c #717171",
"a+	c #666666",
"b+	c #4B4B4B",
"c+	c #484848",
"d+	c #4F4F4F",
"e+	c #7F837C",
"f+	c #A4B1A1",
"g+	c #A6B1A3",
"h+	c #929691",
"i+	c #545454",
"j+	c #595959",
"k+	c #797E78",
"l+	c #A0AA9C",
"m+	c #9EA59B",
"n+	c #8C918B",
"o+	c #7D7F7C",
"p+	c #686868",
"q+	c #6F706E",
"r+	c #7E827C",
"s+	c #939A91",
"t+	c #A4AFA0",
". . . . . . . . . . + @ # $ % & * = - ; > + . . . . . . . . . . ",
". . . . . . . . , ' ) ! ~ { ] ^ / ( _ : < [ } | . . . . . . . . ",
". . . . . . . 1 2 3 4 5 6 3 3 7 7 4 { _ 8 9 0 a b + . . . . . . ",
". . . . . c d e 7 3 f g f h e i j k l m h n 0 o o p q . . . . . ",
". . . . r s e t f g 3 u v h w i g x l y z A j B C D E F . . . . ",
". . . G H i e x u I J 7 t h K f g L 2 M N O P Q R D S T U . . . ",
". . . V g i 2 6 6 ! 3 7 W e K j k l m M A X P Y Y ~ S Z `  .. . ",
". . ..l j y +.+.4 ! u v W w i g x l y z A Q @.Y #.#.] Z $.%.. . ",
". &.*.x y I =.+.I J 7 t h K f g L 2 y N O Q -.*.;.>.,.0 '.).U . ",
". !.2 L i ~ 5 6 ! 3 7 W e K j k L m M A X P Y ,.;.~.{.k '.].^.. ",
", /.l z ~ (.+.4 ! u v W w i j x l y z A Q @.Y #._.~.:.:.<.[.}.|.",
"1.N L j ~ =.+.I J u t h w f g L 2 y N O Q -.*.#.>.2.3.4.h 5.].6.",
"7.m M ! ~ 5 6 I 3 7 W e K j k L m M N X P -.,.;.~.{.3.8.;.$.9.0.",
"a.2 A b.(.5 4 ! u v W w i j x l m z A Q @.Y #._.~.:.c.8.d.).e.f.",
"g.l m b.=.+.I J u t h w f g x 2 y N O Q -.*.#.>.2.:.4.h.i.j.e.k.",
"l.l L ~ 5 6 I 3 7 t e K f k L m M N X P -.,.;.~.{.3.8.d.i.m.n.o.",
"p.L l (.5 4 ! 3 v W w i j x l m z A X @.Y #._.~.:.c.8.q.r.s.t.S ",
"u.L m =.v.w.x.y.t h w f g x 2 y z O Q -.*.#.>.2.:.4.h.q.z.A.t.B.",
"C.x y D.E.F.G.H.I.e K f k L m M N X P -.,.;.>.{.3.8.d.i.z.0 J.K.",
"L.x 2 M.N.O.P.Q.R.e i j x l m z A X @.Y ,._.~.:.c.8.q.r.3.S.J.T.",
"U.l f V.W.X.Y.Z.`.w f g x 2 y z O Q @.*.#.>.2.:.4.h.q.z.M e.t. +",
", .+f ++@+#+$+%+&+K f k L 2 M N O P -.,.;.>.{.3.4.d.i.z.( n.*+| ",
". =+i i -+;+>+,+e i j k l m z A X @.Y ,._.~.{.c.8.q.r.,.'+t.)+. ",
". !+~+h g 7 v h w i g x 2 y z O Q @.*.#._.2.:.4.h.q.i.B 9.{+]+. ",
". . =+e v k t h K f k L 2 M N O P -.*.;.>.{.3.4.d.i.! 5.9.^+. . ",
". . . /+7 7 j e i j k l m M A X @.Y ,._.~.{.c.8.d.f S.(+_+q . . ",
". . . :+<+J ! f f g x l y z O Q @.*.#._.2.:.c.8.W Z [.[+}+. . . ",
". . . . |+1+6 5 e x L 2 M N O P -.*.;.>.2.3.#.^ $.'+B.2+. . . . ",
". . . . . 3+4+=.s.=.e 2 M A X P Y ,._.>.X (.5+6+S.7+8+. . . . . ",
". . . . . . + 9++.0+^ m.~ u w g i W =.a+5+b+c+d+e+f+. . . . . . ",
". . . . . . . . g+h+5 / ( _ < 8 9 0 i+5+d+j+k+l+. . . . . . . . ",
". . . . . . . . . .  .m+n+o+0+p+a+( q+r+s+t+. . . . . . . . . . "};
