/* XPM */
static const char * knob1_xpm[] = {
"32 32 256 2",
"  	c None",
". 	c #A8B5A4",
"+ 	c #A8B4A4",
"@ 	c #A7AFA4",
"# 	c #9EA39C",
"$ 	c #989A97",
"% 	c #939493",
"& 	c #949493",
"* 	c #969696",
"= 	c #9A9A99",
"- 	c #9EA19E",
"; 	c #A6ABA4",
"> 	c #ADB5AA",
", 	c #A9B5A6",
"' 	c #A7B2A3",
") 	c #989E97",
"! 	c #868786",
"~ 	c #7C7C7C",
"{ 	c #7D7D7D",
"] 	c #7F7F7F",
"^ 	c #818181",
"/ 	c #838383",
"( 	c #868686",
"_ 	c #888888",
": 	c #8A8A8A",
"< 	c #8C8C8C",
"[ 	c #8F8F8F",
"} 	c #9D9D9C",
"| 	c #A8ADA6",
"1 	c #ABB5A7",
"2 	c #9AA198",
"3 	c #7D7E7D",
"4 	c #747474",
"5 	c #767676",
"6 	c #797979",
"7 	c #828282",
"8 	c #8B8B8B",
"9 	c #8E8D8D",
"0 	c #909090",
"a 	c #8D8D8D",
"b 	c #8E8E8E",
"c 	c #9B9C9B",
"d 	c #ADB3AB",
"e 	c #A9B6A6",
"f 	c #A6B1A3",
"g 	c #8A8D89",
"h 	c #6F6F6F",
"i 	c #707070",
"j 	c #898989",
"k 	c #848484",
"l 	c #765D5C",
"m 	c #944241",
"n 	c #C75E5B",
"o 	c #B47270",
"p 	c #888787",
"q 	c #939393",
"r 	c #929292",
"s 	c #A7A9A7",
"t 	c #ACB7A9",
"u 	c #A5B0A1",
"v 	c #7D7F7D",
"w 	c #696969",
"x 	c #6C6C6C",
"y 	c #878787",
"z 	c #858585",
"A 	c #746B6A",
"B 	c #632725",
"C 	c #A44C4A",
"D 	c #F6B6B3",
"E 	c #FED5D3",
"F 	c #A37574",
"G 	c #787878",
"H 	c #919191",
"I 	c #A1A2A1",
"J 	c #A6B1A2",
"K 	c #7A7B7A",
"L 	c #656565",
"M 	c #6A6A6A",
"N 	c #634F4D",
"O 	c #57221F",
"P 	c #92403E",
"Q 	c #E59A98",
"R 	c #FCCDCB",
"S 	c #BB7270",
"T 	c #A2A3A2",
"U 	c #A7B4A3",
"V 	c #818480",
"W 	c #606060",
"X 	c #666666",
"Y 	c #949494",
"Z 	c #706463",
"` 	c #461C19",
" .	c #6D2A29",
"..	c #9C4543",
"+.	c #BA5754",
"@.	c #976160",
"#.	c #7B7B7B",
"$.	c #777777",
"%.	c #757575",
"&.	c #A9ABA8",
"*.	c #A9B6A5",
"=.	c #939990",
"-.	c #5D5D5D",
";.	c #5F5F5F",
">.	c #9A9A9A",
",.	c #989898",
"'.	c #878686",
").	c #583E3C",
"!.	c #4A1E1A",
"~.	c #652725",
"{.	c #7B4141",
"].	c #7F7B7B",
"^.	c #AFB4AD",
"/.	c #A3AFA0",
"(.	c #676867",
"_.	c #595959",
":.	c #737373",
"<.	c #9C9C9C",
"[.	c #9B9B9B",
"}.	c #999999",
"|.	c #979797",
"1.	c #959595",
"2.	c #7D7877",
"3.	c #797271",
"4.	c #808080",
"5.	c #7E7E7E",
"6.	c #7A7A7A",
"7.	c #9D9D9D",
"8.	c #8B9189",
"9.	c #555555",
"0.	c #5B5B5B",
"a.	c #9F9F9F",
"b.	c #AAB0A9",
"c.	c #A6B3A2",
"d.	c #535353",
"e.	c #A2A2A2",
"f.	c #A0A0A0",
"g.	c #9E9E9E",
"h.	c #9C9D9C",
"i.	c #9DA79A",
"j.	c #525252",
"k.	c #515151",
"l.	c #A4A4A4",
"m.	c #ACB5A9",
"n.	c #878D85",
"o.	c #4C4C4C",
"p.	c #565656",
"q.	c #A3A3A3",
"r.	c #A5A5A5",
"s.	c #A1A1A1",
"t.	c #A5AAA3",
"u.	c #737772",
"v.	c #4A4A4A",
"w.	c #646464",
"x.	c #A9A9A9",
"y.	c #A7A7A7",
"z.	c #9FA29E",
"A.	c #666866",
"B.	c #474747",
"C.	c #727272",
"D.	c #AAAAAA",
"E.	c #A8A8A8",
"F.	c #A6A6A6",
"G.	c #9A9B9A",
"H.	c #5D5E5D",
"I.	c #454545",
"J.	c #ACACAC",
"K.	c #5C5D5B",
"L.	c #434343",
"M.	c #ADADAD",
"N.	c #ABABAB",
"O.	c #5D5F5D",
"P.	c #414141",
"Q.	c #AFAFAF",
"R.	c #959695",
"S.	c #6A6E69",
"T.	c #3E3E3E",
"U.	c #B0B0B0",
"V.	c #AEAEAE",
"W.	c #7D827B",
"X.	c #3C3C3C",
"Y.	c #494949",
"Z.	c #9FA49D",
"`.	c #97A094",
" +	c #3D3D3D",
".+	c #B2B2B2",
"++	c #A9B1A6",
"@+	c #A5B1A1",
"#+	c #505150",
"$+	c #3A3A3A",
"%+	c #B3B3B3",
"&+	c #B1B1B1",
"*+	c #878887",
"=+	c #A8B4A5",
"-+	c #7D837B",
";+	c #373737",
">+	c #717171",
",+	c #9B9F99",
"'+	c #A2AE9E",
")+	c #4A4A49",
"!+	c #575757",
"~+	c #6E6E6E",
"{+	c #A8B2A4",
"]+	c #858C83",
"^+	c #383838",
"/+	c #9A9F98",
"(+	c #646763",
"_+	c #353535",
":+	c #393939",
"<+	c #676767",
"[+	c #868885",
"}+	c #A2AD9E",
"|+	c #505250",
"1+	c #626262",
"2+	c #636363",
"3+	c #797A78",
"4+	c #9EA89A",
"5+	c #4F504F",
"6+	c #6B6B6B",
"7+	c #5C5C5C",
"8+	c #5E5E5E",
"9+	c #757574",
"0+	c #A5B0A2",
"a+	c #A0AB9C",
"b+	c #60625F",
"c+	c #363636",
"d+	c #3B3B3B",
"e+	c #5A5A5A",
"f+	c #585858",
"g+	c #7A7C79",
"h+	c #A6B2A2",
"i+	c #7E847C",
"j+	c #444444",
"k+	c #464646",
"l+	c #686868",
"m+	c #616161",
"n+	c #4F4F4F",
"o+	c #8D938B",
"p+	c #A7B4A4",
"q+	c #9FAA9B",
"r+	c #797E77",
"s+	c #4F4F4E",
"t+	c #3F3F3F",
"u+	c #424242",
"v+	c #484848",
"w+	c #4D4D4D",
"x+	c #868B85",
"y+	c #A4AFA0",
"z+	c #A4B0A0",
"A+	c #969E93",
"B+	c #7A7F78",
"C+	c #656864",
"D+	c #5A5C5A",
"E+	c #6C6F6C",
"F+	c #7F847E",
"G+	c #99A196",
". . . . . . . . . . + @ # $ % & * = - ; > , . . . . . . . . . . ",
". . . . . . . . ' ) ! ~ { ] ^ / ( _ : < [ } | 1 . . . . . . . . ",
". . . . . . + 2 3 4 5 6 7 _ < 8 : 8 9 0 a b 0 c d e . . . . . . ",
". . . . . f g h i 5 ( b j ( k 7 l m n o p q r 0 q s t . . . . . ",
". . . . u v w x ^ 0 a 8 j y z A B C D E F G ( * H r I t . . . . ",
". . . J K L M _ q H [ a 8 j y N O P Q R S 6 G G q q r T t . . . ",
". . U V W X < * Y r 0 b < 8 j Z `  ...+.@.#.6 $.%.H r r &.*.. . ",
". . =.-.;.( >.,.* Y r 0 b < : '.).!.~.{.].{ #.6 $.%.r 0 q ^.. . ",
". /.(._.:.<.[.}.|.1.q H 0 b < : _ 2.3.^ 4.5.~ 6.G 5 6 * 0 7.t . ",
". 8.9.0.* a.7.[.}.|.1.q H [ a 8 j y z / 7 4.5.~ 6.G 5 y 0 0 b.. ",
"c.(.d.4 e.f.g.<.>.,.|.1.q H [ a 8 j y z / ^ ] { #.6 $.5 Y a h.*.",
"i.j.k.Y l.e.f.g.<.>.,.* Y r 0 b < : j y z / ^ ] { #.6 $.8 8 b m.",
"n.o.p.q.r.q.s.a.7.<.>.,.* Y r 0 b < : _ ( k 7 4.5.~ #.6 ] H 8 t.",
"u.v.w.x.y.r.q.s.a.7.[.}.|.1.q H [ b < : _ ( k 7 4.5.~ 6.G r j z.",
"A.B.C.D.E.F.l.e.s.a.7.[.}.|.1.q H [ a 8 j y z / ^ 4.5.~ 6.a y G.",
"H.I.~ J.D.E.F.l.e.f.g.<.>.,.* 1.q H [ a 8 j y z / ^ ] { #.< k |.",
"K.L.G M.N.x.E.F.l.e.f.g.<.>.,.* Y r 0 b < : _ y z / ^ ] { a 7 1.",
"O.P.h Q.M.N.x.y.r.q.s.a.7.[.>.,.* Y r 0 b < : _ ( k 7 4.5.a 4.R.",
"S.T.0.U.V.M.N.x.y.r.q.s.a.7.[.}.|.1.q H [ a < : _ ( k 7 4.8 { $ ",
"W.X.Y.E.U.V.J.D.E.F.l.e.f.a.7.[.}.|.1.q H [ a 8 j y z / j 4.#.Z.",
"`. +X.0 .+U.V.J.D.E.F.l.e.f.g.<.>.,.* Y q H [ a 8 j y z a $.6.++",
"@+#+$+W %+&+Q.M.N.x.y.r.l.e.f.g.<.>.,.* Y r 0 b < : _ y / 4 *+=+",
". -+;+ +[.%+&+Q.M.N.x.y.r.q.s.a.7.[.}.,.* Y r 0 b < : < >+C.,+. ",
". '+)+;+!+Q..+U.V.J.N.x.y.r.q.s.a.7.[.}.|.1.q H [ a b ~ ~+~ {+. ",
". . ]+;+^+h .+.+U.V.J.D.E.F.l.e.f.g.7.[.}.|.1.q H [ k w x /+. . ",
". . U (+_+:+G .+&+U.V.J.D.E.F.l.e.f.g.<.>.,.* Y q ( X <+[++ . . ",
". . . }+|+_+:+i Q.&+Q.M.N.x.y.r.l.e.f.g.<.>.,.* ] 1+2+3+f . . . ",
". . . . 4+5+_+;+d.1.U.Q.M.N.x.y.r.q.s.a.7.[.0 6+7+8+9+0+. . . . ",
". . . . . a+b+c+;+d+e+< q.J.D.x.y.r.e.[.j ~+!+f+e+g+0+. . . . . ",
". . . . . . h+i+j+;+:+d+k+f+l+:.4 h m+d.n+k.d.m+o+p+. . . . . . ",
". . . . . . . . q+r+s+d+d+ +t+u+j+k+v+v.w+1+x+y+. . . . . . . . ",
". . . . . . . . . . z+A+B+C+D+9.!+-.E+F+G+h+. . . . . . . . . . "};
