/* XPM */
static const char * knob0_xpm[] = {
"32 32 248 2",
"  	c None",
". 	c #A8B5A4",
"+ 	c #A8B5A5",
"@ 	c #A8B0A6",
"# 	c #A2A7A0",
"$ 	c #9D9F9C",
"% 	c #9A9B9A",
"& 	c #9A9A9A",
"* 	c #9B9B9B",
"= 	c #9FA09F",
"- 	c #A3A5A2",
"; 	c #A8ADA6",
"> 	c #ACB5AA",
", 	c #A9B6A5",
"' 	c #A8B4A5",
") 	c #9FA49D",
"! 	c #909090",
"~ 	c #848484",
"{ 	c #868686",
"] 	c #878787",
"^ 	c #898989",
"/ 	c #8B8B8B",
"( 	c #8D8D8D",
"_ 	c #8E8E8E",
": 	c #939393",
"< 	c #A1A1A0",
"[ 	c #ACB0AA",
"} 	c #ACB7A9",
"| 	c #9EA49C",
"1 	c #7C7C7C",
"2 	c #7E7E7E",
"3 	c #818181",
"4 	c #8A8A8A",
"5 	c #8C8C8C",
"6 	c #908282",
"7 	c #948483",
"8 	c #929292",
"9 	c #969696",
"0 	c #919191",
"a 	c #9E9E9E",
"b 	c #ADB3AB",
"c 	c #A9B5A5",
"d 	c #A7B3A4",
"e 	c #8D8F8C",
"f 	c #777777",
"g 	c #787878",
"h 	c #7D7D7D",
"i 	c #807F7F",
"j 	c #7B4949",
"k 	c #B54F4C",
"l 	c #EB8C89",
"m 	c #C87E7C",
"n 	c #7A7878",
"o 	c #949494",
"p 	c #A8AAA8",
"q 	c #ACB7A8",
"r 	c #A6B1A2",
"s 	c #848583",
"t 	c #727272",
"u 	c #747474",
"v 	c #858585",
"w 	c #6D5E5D",
"x 	c #732C2B",
"y 	c #BC6260",
"z 	c #FED8D6",
"A 	c #FED5D3",
"B 	c #A07170",
"C 	c #797979",
"D 	c #767676",
"E 	c #989898",
"F 	c #A4A5A4",
"G 	c #ADB7A9",
"H 	c #A7B2A3",
"I 	c #818381",
"J 	c #6E6E6E",
"K 	c #737373",
"L 	c #888888",
"M 	c #5E4745",
"N 	c #5E2422",
"O 	c #93413F",
"P 	c #D5817F",
"Q 	c #E48F8C",
"R 	c #A66361",
"S 	c #7B7B7B",
"T 	c #A3A4A3",
"U 	c #A8B4A4",
"V 	c #878A87",
"W 	c #696969",
"X 	c #726665",
"Y 	c #451C19",
"Z 	c #642624",
"` 	c #853635",
" .	c #953C3B",
"..	c #856767",
"+.	c #7A7A7A",
"@.	c #757575",
"#.	c #A7A9A6",
"$.	c #989F96",
"%.	c #676767",
"&.	c #8F8F8F",
"*.	c #624D4B",
"=.	c #47211D",
"-.	c #532522",
";.	c #704F4E",
">.	c #808080",
",.	c #7F7F7F",
"'.	c #ABB1A9",
").	c #A6B2A2",
"!.	c #707170",
"~.	c #626262",
"{.	c #979797",
"].	c #959595",
"^.	c #828282",
"/.	c #979897",
"(.	c #ABB6A7",
"_.	c #8E948C",
":.	c #5E5E5E",
"<.	c #656565",
"[.	c #999999",
"}.	c #A6ABA4",
"|.	c #A7B4A3",
"1.	c #6E6F6E",
"2.	c #5B5B5B",
"3.	c #9C9C9C",
"4.	c #838383",
"5.	c #989998",
"6.	c #9DA59A",
"7.	c #5A5A5A",
"8.	c #595959",
"9.	c #9D9D9D",
"0.	c #ACB4A9",
"a.	c #8B9189",
"b.	c #545454",
"c.	c #616161",
"d.	c #9F9F9F",
"e.	c #A0A0A0",
"f.	c #A4A9A3",
"g.	c #787B77",
"h.	c #525252",
"i.	c #6F6F6F",
"j.	c #A4A4A4",
"k.	c #A2A2A2",
"l.	c #9C9F9B",
"m.	c #6D6E6C",
"n.	c #4F4F4F",
"o.	c #A5A5A5",
"p.	c #A1A1A1",
"q.	c #969796",
"r.	c #646563",
"s.	c #4C4C4C",
"t.	c #A7A7A7",
"u.	c #A6A6A6",
"v.	c #A3A3A3",
"w.	c #616260",
"x.	c #4A4A4A",
"y.	c #A9A9A9",
"z.	c #A8A8A8",
"A.	c #666866",
"B.	c #474747",
"C.	c #ABABAB",
"D.	c #AAAAAA",
"E.	c #8F908F",
"F.	c #6F726E",
"G.	c #444444",
"H.	c #636363",
"I.	c #ADADAD",
"J.	c #939592",
"K.	c #838981",
"L.	c #424242",
"M.	c #4D4D4D",
"N.	c #ACACAC",
"O.	c #9BA099",
"P.	c #969F94",
"Q.	c #414141",
"R.	c #AFAFAF",
"S.	c #AEAEAE",
"T.	c #A5ADA3",
"U.	c #A6B3A3",
"V.	c #545553",
"W.	c #3E3E3E",
"X.	c #B0B0B0",
"Y.	c #6C6C6C",
"Z.	c #7E7F7E",
"`.	c #7C827B",
" +	c #3C3C3C",
".+	c #B1B1B1",
"++	c #949993",
"@+	c #A2AD9E",
"#+	c #3B3B3B",
"$+	c #B2B2B2",
"%+	c #727372",
"&+	c #A7B2A4",
"*+	c #828880",
"=+	c #3A3A3A",
"-+	c #B3B3B3",
";+	c #979D96",
">+	c #A7B3A3",
",+	c #616460",
"'+	c #373737",
")+	c #5D5D5D",
"!+	c #7F817E",
"~+	c #A3AE9F",
"{+	c #363636",
"]+	c #707070",
"^+	c #9FAA9C",
"/+	c #525351",
"(+	c #353535",
"_+	c #555555",
":+	c #666666",
"<+	c #535353",
"[+	c #6A6B6A",
"}+	c #A2AD9F",
"|+	c #A2AE9F",
"1+	c #5D605D",
"2+	c #606060",
"3+	c #747673",
"4+	c #A5B0A1",
"5+	c #A6B3A2",
"6+	c #7D837B",
"7+	c #383838",
"8+	c #565656",
"9+	c #686868",
"0+	c #717171",
"a+	c #6A6A6A",
"b+	c #5C5C5C",
"c+	c #505050",
"d+	c #484848",
"e+	c #494949",
"f+	c #4B4B4B",
"g+	c #8C918A",
"h+	c #A0AB9D",
"i+	c #747973",
"j+	c #393939",
"k+	c #404040",
"l+	c #434343",
"m+	c #464646",
"n+	c #80857F",
"o+	c #A3AEA0",
"p+	c #A5B1A1",
"q+	c #90988D",
"r+	c #777C76",
"s+	c #616360",
"t+	c #565756",
"u+	c #515151",
"v+	c #5A5B5A",
"w+	c #676966",
"x+	c #7D827C",
"y+	c #959D93",
". . . . . . . . . . + @ # $ % & * = - ; > , . . . . . . . . . . ",
". . . . . . . . ' ) ! ~ ~ { ] ^ / ( _ ! : < [ } . . . . . . . . ",
". . . . . . . | { 1 2 3 4 5 / 6 7 ( 8 9 ! 0 8 a b c . . . . . . ",
". . . . . d e f g h ^ 5 ~ i j k l m n 1 / o : 0 o p q . . . . . ",
". . . . r s t u v ( ] { ~ w x y z A B C f D { E 0 8 F G . . . . ",
". . . H I J K 4 ( / ^ L { M N O P Q R S C g D g : 0 0 T q . . . ",
". . U V W J 5 ! _ ( / 4 L X Y Z `  ...h S +.g D @.8 ! ! #.c . . ",
". . $.%.%.] : 8 ! &.( / 4 L *.=.-.;.>.,.h S +.g f D : _ ! '.. . ",
". ).!.~.S {.].o 8 0 &.( 5 4 ^ ] v ~ ^.>.,.h 1 +.g f +.o ( /.(.. ",
". _.:.<.o [.{.9 o 8 0 &._ 5 4 ^ ] { ~ ^.3 ,.2 1 +.C f ^ 5 5 }.. ",
"|.1.2.S 3.* [.E 9 o : 0 &._ 5 / ^ ] { ~ 4.3 ,.2 1 S C g : ^ 5.c ",
"6.7.8.0 a 9.* [.E 9 ].: 0 ! _ ( / ^ L { v 4.3 >.2 h S C / { ^ 0.",
"a.b.c.d.e.a 9.* & E 9 ].: 8 ! _ ( / 4 L { v 4.^.>.2 h S 3 4 v f.",
"g.h.i.j.k.e.d.9.3.& E {.].o 8 ! &.( 5 4 L ] v ~ ^.>.,.h 1 &.4.l.",
"m.n.g o.j.k.p.d.9.3.& [.{.].o 8 0 &.( 5 4 ^ ] v ~ ^.3 ,.h ( >.q.",
"r.s.S t.u.j.v.p.d.a 3.* [.{.9 o : 0 &._ 5 / ^ ] { ~ 4.3 ,.5 h 0 ",
"w.x.C y.z.u.j.v.p.e.a 3.* [.E 9 o : 0 ! _ 5 / ^ L { ~ 4.3 / S _ ",
"A.B.@.C.D.z.u.o.v.k.e.a 9.* & E 9 ].: 8 ! _ ( / ^ L { v 4.^ g E.",
"F.G.H.I.C.D.z.t.o.v.k.e.d.9.* & E {.].: 8 ! &.( / 4 L ] v 4.D J.",
"K.L.M.D.I.N.D.y.t.o.j.k.e.d.9.3.& E {.].o 8 ! &.( 5 4 L 5 D K O.",
"P.L.Q.! R.S.N.D.y.t.u.j.k.p.d.a 3.& [.{.9 o 8 0 &._ 5 4 / i.t T.",
"U.V.W.<.X.R.S.N.C.y.t.u.j.v.p.d.a 3.* [.{.9 o : 0 &._ ( ,.Y.Z.U ",
". `. +Q.[..+X.S.I.C.y.z.u.o.v.p.e.a 9.* [.E 9 ].: 0 ! _ W W ++. ",
". @+x.#+2.R.$+X.S.I.C.D.z.u.o.v.k.e.a 9.* & E 9 ].: 8 u <.%+&+. ",
". . *+=+=+D -+$+X.R.I.N.D.z.t.o.j.k.e.d.9.3.& E {.].,.c.H.;+. . ",
". . >+,+'+ +,.-+$+.+R.I.N.D.y.t.o.j.k.p.d.9.3.& E 3 )+:.!+U . . ",
". . . ~+V.{+#+]+S.-+.+R.S.N.C.y.t.u.j.v.p.d.a & S 8.7.1.r . . . ",
". . . . ^+/+(+'+_+{.-+.+X.S.N.C.y.z.u.j.v.e.&.:+<+_+[+}+. . . . ",
". . . . . |+1+(+{+#+2+5 y.R.S.I.C.y.t.e.4 %.n.n.h.3+4+. . . . . ",
". . . . . . 5+6+L.(+{+7+L.8+9+0+0+a+b+c+d+e+f+8.g+>+. . . . . . ",
". . . . . . . . h+i+d+'+'+j+#+ +W.k+Q.l+m+7.n+o+. . . . . . . . ",
". . . . . . . . . . p+q+r+s+t+n.u+v+w+x+y+).. . . . . . . . . . "};
