/* XPM */
static const char * knob8_xpm[] = {
"32 32 243 2",
"  	c None",
". 	c #A8B5A4",
"+ 	c #A6B3A2",
"@ 	c #959E93",
"# 	c #80867E",
"$ 	c #6D706C",
"% 	c #636462",
"& 	c #5D5E5D",
"* 	c #5F605F",
"= 	c #686A68",
"- 	c #737672",
"; 	c #868C85",
"> 	c #99A197",
", 	c #A6B3A3",
"' 	c #A2AE9F",
") 	c #7D837C",
"! 	c #535453",
"~ 	c #424242",
"{ 	c #444444",
"] 	c #474747",
"^ 	c #4A4A4A",
"/ 	c #4C4C4C",
"( 	c #4F4F4F",
"_ 	c #515151",
": 	c #545454",
"< 	c #585858",
"[ 	c #6A6B6A",
"} 	c #898E87",
"| 	c #A5B0A1",
"1 	c #A7B4A3",
"2 	c #858B83",
"3 	c #4B4C4B",
"4 	c #3B3B3B",
"5 	c #3E3E3E",
"6 	c #414141",
"7 	c #4E4E4E",
"8 	c #646464",
"9 	c #777777",
"0 	c #7C7C7C",
"a 	c #7E7E7E",
"b 	c #7B7B7B",
"c 	c #737373",
"d 	c #636363",
"e 	c #5A5A5A",
"f 	c #5B5B5B",
"g 	c #5E5E5E",
"h 	c #6D6D6D",
"i 	c #949A92",
"j 	c #A4B0A0",
"k 	c #666965",
"l 	c #3A3A3A",
"m 	c #8F8F8F",
"n 	c #AAAAAA",
"o 	c #ADADAD",
"p 	c #ABABAB",
"q 	c #A9A9A9",
"r 	c #A7A7A7",
"s 	c #A6A6A6",
"t 	c #A4A4A4",
"u 	c #A1A1A1",
"v 	c #949494",
"w 	c #676767",
"x 	c #626262",
"y 	c #666666",
"z 	c #838582",
"A 	c #A6B1A2",
"B 	c #A2AD9E",
"C 	c #5A5C59",
"D 	c #373737",
"E 	c #393939",
"F 	c #575757",
"G 	c #979797",
"H 	c #B0B0B0",
"I 	c #AFAFAF",
"J 	c #ACACAC",
"K 	c #A8A8A8",
"L 	c #A2A2A2",
"M 	c #A0A0A0",
"N 	c #9E9E9E",
"O 	c #9C9C9C",
"P 	c #969696",
"Q 	c #686868",
"R 	c #696969",
"S 	c #7D7E7D",
"T 	c #A4AFA1",
"U 	c #363636",
"V 	c #707070",
"W 	c #AEAEAE",
"X 	c #B2B2B2",
"Y 	c #9F9F9F",
"Z 	c #9D9D9D",
"` 	c #9B9B9B",
" .	c #999999",
"..	c #8A8A8A",
"+.	c #6F6F6F",
"@.	c #6E6E6E",
"#.	c #808180",
"$.	c #A6B2A3",
"%.	c #676A66",
"&.	c #353535",
"*.	c #A5A5A5",
"=.	c #A3A3A3",
"-.	c #959595",
";.	c #8D8D8D",
">.	c #747474",
",.	c #727272",
"'.	c #8A8C89",
").	c #A8B4A4",
"!.	c #878E84",
"~.	c #989898",
"{.	c #929292",
"].	c #909090",
"^.	c #8C8C8C",
"/.	c #757575",
"(.	c #9CA19A",
"_.	c #A4AFA0",
":.	c #4A4B4A",
"<.	c #B1B1B1",
"[.	c #9A9A9A",
"}.	c #8E8E8E",
"|.	c #878787",
"1.	c #787878",
"2.	c #848484",
"3.	c #A8B3A5",
"4.	c #B3B3B3",
"5.	c #939393",
"6.	c #919191",
"7.	c #8B8B8B",
"8.	c #9DA19B",
"9.	c #535452",
"0.	c #555555",
"a.	c #898989",
"b.	c #8E8E8D",
"c.	c #99A295",
"d.	c #383838",
"e.	c #7F7F7F",
"f.	c #888888",
"g.	c #868686",
"h.	c #828282",
"i.	c #838383",
"j.	c #A7AEA4",
"k.	c #848B82",
"l.	c #3D3D3D",
"m.	c #A0A49F",
"n.	c #6E726D",
"o.	c #736867",
"p.	c #5E4644",
"q.	c #6C5B5A",
"r.	c #807F7E",
"s.	c #9B9D9A",
"t.	c #636562",
"u.	c #665351",
"v.	c #451C18",
"w.	c #5C2321",
"x.	c #732C2B",
"y.	c #7B4645",
"z.	c #989998",
"A.	c #5C5E5B",
"B.	c #3C3C3C",
"C.	c #4A2724",
"D.	c #612523",
"E.	c #8F3E3D",
"F.	c #BB615F",
"G.	c #B6504E",
"H.	c #917E7E",
"I.	c #969796",
"J.	c #5D5E5C",
"K.	c #656565",
"L.	c #858585",
"M.	c #552A28",
"N.	c #823433",
"O.	c #D17B78",
"P.	c #FED7D5",
"Q.	c #EE928F",
"R.	c #978180",
"S.	c #666966",
"T.	c #3F3F3F",
"U.	c #705453",
"V.	c #923A39",
"W.	c #E18886",
"X.	c #FED6D5",
"Y.	c #CE8280",
"Z.	c #9C9D9C",
"`.	c #737771",
" +	c #808080",
".+	c #846868",
"++	c #A46260",
"@+	c #A37170",
"#+	c #7C7877",
"$+	c #A1A3A1",
"%+	c #898F86",
"&+	c #434343",
"*+	c #818181",
"=+	c #7D7D7D",
"-+	c #797979",
";+	c #A7ABA4",
">+	c #9CA699",
",+	c #ABB4A9",
"'+	c #636463",
")+	c #494949",
"!+	c #5F5F5F",
"~+	c #7A7A7A",
"{+	c #767676",
"]+	c #A9B5A6",
"^+	c #8A9088",
"/+	c #4B4B4B",
"(+	c #ABAFA9",
"_+	c #A6B2A2",
":+	c #606160",
"<+	c #616161",
"[+	c #ADB7AA",
"}+	c #939A91",
"|+	c #535353",
"1+	c #ACB1AB",
"2+	c #7B7E7B",
"3+	c #A6A8A6",
"4+	c #AAB6A6",
"5+	c #70716F",
"6+	c #595959",
"7+	c #5C5C5C",
"8+	c #A2A2A1",
"9+	c #ADB7A9",
"0+	c #727371",
"a+	c #606060",
"b+	c #828481",
"c+	c #A4A6A4",
"d+	c #999F97",
"e+	c #737473",
"f+	c #6C6C6C",
"g+	c #A9AFA8",
"h+	c #A7B2A4",
"i+	c #959A93",
"j+	c #717171",
"k+	c #969695",
"l+	c #A4A8A3",
"m+	c #ABB6A8",
"n+	c #A5ADA2",
"o+	c #999E98",
"p+	c #929491",
"q+	c #8D8E8D",
"r+	c #9A9C99",
"s+	c #A3A7A1",
"t+	c #ABB2A8",
". . . . . . . . . . + @ # $ % & * = - ; > , . . . . . . . . . . ",
". . . . . . . . ' ) ! ~ ~ { ] ^ / ( _ : < [ } | . . . . . . . . ",
". . . . . . 1 2 3 4 5 6 7 8 9 0 a b c d e f g h i 1 . . . . . . ",
". . . . . j k l l 6 8 m n o p q r s t u v a w x y z A . . . . . ",
". . . . B C D E F G H I o J n K s t L M N O P a Q R S T . . . . ",
". . . j C U l V W X H W J n K s t L M Y Z `  .G ..+.@.#.$.. . . ",
". . 1 %.&.E 9 X X H W J n K s *.=.u Y Z `  .G -.v ;.>.,.'.).. . ",
". . !.D U y X X H W J p q r *.=.u Y Z `  .~.P v {.].^./.9 (.. . ",
". _.:.&./ n X <.I o p q r *.=.u Y N O [.~.P v {.].}.;.|.1.2.3.. ",
". # &.E ;.4.<.I o p q r *.t L M N O [.~.P v 5.6.m ;.7.^.a 0 8.. ",
"1 9.U 0.<.<.I o p n K s t L M N O [.~.G -.5.6.m ;.7.a.|.a.a b.).",
"c.l d.e.<.H W J n K s t L M N Z `  .G -.5.6.m ;.^...f.g.7.h.i.j.",
"k.D l.u H W J n K s t =.u Y Z `  .G -.5.6.].}.^...f.g.2.i.7.2.m.",
"n.E / J W J n q r *.=.u Y Z `  .G P v {.].}.^...f.o.p.q.r.^.g.s.",
"t.l f I o p q r *.=.u Y Z O [.~.P v {.].}.^.7.a.u.v.w.x.y...|.z.",
"A.B.8 o p q r *.=.L M N O [.~.P v {.6.m ;.7.a.|.C.D.E.F.G.H.a.I.",
"J.5 K.p q K s t L M N O [.~.P -.5.6.m ;.7.a.|.L.M.N.O.P.Q.R.7.z.",
"S.T.g n K s t L M N O `  .G -.5.6.m ;.7.a.f.g.2.U.V.W.X.Y.^.^.Z.",
"`.6 : *.s t L u Y Z `  .G -.5.6.m }.^...f.g.2.h. +.+++@+#+6.}.$+",
"%+&+^ O *.=.u Y Z `  .G -.v {.].}.^...f.g.2.i.*+e.=+b -+b P ].;+",
">+^ ] *+=.u Y Z ` [.~.P v {.].}.^...f.|.L.i.*+e.=+b -+9 a.].{.,+",
"1 '+)+!+Y M N O [.~.P v {.].}.;.7.a.|.L.i.*+e.=+0 ~+1.{+5.6.Y ]+",
". ^+/+7 f.N O [.~.P v 5.6.m ;.7.a.|.L.i.*+ +a 0 ~+1.{+i.v {.(+. ",
". _+:+( <+ .[. .G -.5.6.m ;.7.a.|.g.2.h. +a 0 ~+1.{+9 G 6.O [+. ",
". . }+|+|+/.~.G -.5.6.m ;.^...f.g.2.h. +a 0 b -+9 /.6.6.5.1+. . ",
". . ).2+0.< =+-.5.{.].}.^...f.g.2.h. +e.=+b -+9 /.m {.{.3+4+. . ",
". . . A 5+6+7+0 {.].}.^...f.g.L.i.*+e.=+b -+9 1.6.6.6.8+9+. . . ",
". . . . T 0+g a+,.;.;.7.a.|.L.i.*+e.=+b ~+1.|.v }.].u [+. . . . ",
". . . . . $.b+d K.R e.7.7.g.i.*+e.a 0 e.a.{.}.^.].c+9+. . . . . ",
". . . . . . ).d+e+R f+@.{+i.a.7.^.;.}.7.|.a.7.-.g+4+. . . . . . ",
". . . . . . . . h+i+a j+c /.1.b =+ +i.L.f.k+l+m+. . . . . . . . ",
". . . . . . . . . . ).n+o+p+q+^.}.v r+s+t+4+. . . . . . . . . . "};
