/* XPM */
static const char * knob6_xpm[] = {
"32 32 244 2",
"  	c None",
". 	c #A8B5A4",
"+ 	c #A6B2A2",
"@ 	c #9AA398",
"# 	c #868B84",
"$ 	c #777A76",
"% 	c #6D6E6D",
"& 	c #6B6C6B",
"* 	c #6C6D6C",
"= 	c #767776",
"- 	c #818480",
"; 	c #90968F",
"> 	c #A0A89D",
", 	c #A7B4A4",
"' 	c #A4AFA0",
") 	c #848A82",
"! 	c #616160",
"~ 	c #515151",
"{ 	c #545454",
"] 	c #575757",
"^ 	c #5A5A5A",
"/ 	c #5D5D5D",
"( 	c #606060",
"_ 	c #636363",
": 	c #666666",
"< 	c #6B6B6B",
"[ 	c #7C7C7B",
"} 	c #949992",
"| 	c #A7B2A3",
"1 	c #A7B3A3",
"2 	c #8A9188",
"3 	c #484848",
"4 	c #4B4B4B",
"5 	c #4F4F4F",
"6 	c #5F5F5F",
"7 	c #717171",
"8 	c #7F7F7F",
"9 	c #848484",
"0 	c #888888",
"a 	c #838383",
"b 	c #7D7D7D",
"c 	c #737373",
"d 	c #6C6C6C",
"e 	c #6D6D6D",
"f 	c #707070",
"g 	c #7C7C7C",
"h 	c #9BA099",
"i 	c #A8B4A4",
"j 	c #A2AE9F",
"k 	c #6A6D6A",
"l 	c #454545",
"m 	c #4C4C4C",
"n 	c #929292",
"o 	c #A3A3A3",
"p 	c #A4A4A4",
"q 	c #A1A1A1",
"r 	c #9F9F9F",
"s 	c #9D9D9D",
"t 	c #9A9A9A",
"u 	c #989898",
"v 	c #959595",
"w 	c #919191",
"x 	c #858585",
"y 	c #777777",
"z 	c #747474",
"A 	c #90928F",
"B 	c #A8B3A5",
"C 	c #9FAA9C",
"D 	c #5B5D5B",
"E 	c #404040",
"F 	c #434343",
"G 	c #616161",
"H 	c #9B9B9B",
"I 	c #AAAAAA",
"J 	c #A8A8A8",
"K 	c #A5A5A5",
"L 	c #9E9E9E",
"M 	c #9C9C9C",
"N 	c #979797",
"O 	c #909090",
"P 	c #8F8F8F",
"Q 	c #868686",
"R 	c #797979",
"S 	c #7B7B7B",
"T 	c #8D8E8D",
"U 	c #A8B2A5",
"V 	c #A3AE9F",
"W 	c #5B5C5A",
"X 	c #3D3D3D",
"Y 	c #424242",
"Z 	c #ACACAC",
"` 	c #A9A9A9",
" .	c #A7A7A7",
"..	c #A2A2A2",
"+.	c #A0A0A0",
"@.	c #999999",
"#.	c #969696",
"$.	c #949494",
"%.	c #8D8D8D",
"&.	c #8B8B8B",
"*.	c #7E7E7E",
"=.	c #909190",
"-.	c #A8B4A5",
";.	c #A7B4A3",
">.	c #676A66",
",.	c #3B3B3B",
"'.	c #AEAEAE",
").	c #ADADAD",
"!.	c #ABABAB",
"~.	c #A6A6A6",
"{.	c #939393",
"].	c #8C8C8C",
"^.	c #8A8A8A",
"/.	c #878787",
"(.	c #828282",
"_.	c #989A98",
":.	c #888F86",
"<.	c #AFAFAF",
"[.	c #8E8E8E",
"}.	c #898989",
"|.	c #A5AAA4",
"1.	c #A5B1A1",
"2.	c #4B4C4B",
"3.	c #393939",
"4.	c #555555",
"5.	c #B0B0B0",
"6.	c #AAB5A7",
"7.	c #838981",
"8.	c #373737",
"9.	c #3C3C3C",
"0.	c #B2B2B2",
"a.	c #726766",
"b.	c #604644",
"c.	c #715250",
"d.	c #857D7C",
"e.	c #A4A9A3",
"f.	c #545553",
"g.	c #363636",
"h.	c #B3B3B3",
"i.	c #B1B1B1",
"j.	c #726665",
"k.	c #471D1A",
"l.	c #6A2827",
"m.	c #913C3A",
"n.	c #A14847",
"o.	c #908888",
"p.	c #A9B5A6",
"q.	c #9AA396",
"r.	c #533633",
"s.	c #56211F",
"t.	c #8F3E3C",
"u.	c #DC8785",
"v.	c #ED9290",
"w.	c #A57876",
"x.	c #ACB4A9",
"y.	c #80867E",
"z.	c #353535",
"A.	c #573B39",
"B.	c #652725",
"C.	c #AA514F",
"D.	c #FBD2D0",
"E.	c #FFD9D8",
"F.	c #9D7372",
"G.	c #A7ACA5",
"H.	c #4D4D4D",
"I.	c #746A69",
"J.	c #652826",
"K.	c #A24644",
"L.	c #E78F8C",
"M.	c #D58481",
"N.	c #7C7777",
"O.	c #A2A5A2",
"P.	c #5A5C59",
"Q.	c #5E5E5E",
"R.	c #7B6F6E",
"S.	c #855A5A",
"T.	c #956563",
"U.	c #7F7777",
"V.	c #787878",
"W.	c #A0A1A0",
"X.	c #525352",
"Y.	c #6A6A6A",
"Z.	c #818181",
"`.	c #7A7A7A",
" +	c #535452",
".+	c #656565",
"++	c #808080",
"@+	c #5C5C5C",
"#+	c #767676",
"$+	c #A3A4A3",
"%+	c #6B6F6A",
"&+	c #383838",
"*+	c #757575",
"=+	c #A5A7A5",
"-+	c #414141",
";+	c #AAAFA9",
">+	c #9AA497",
",+	c #AFB7AD",
"'+	c #585A58",
")+	c #AAB6A7",
"!+	c #858B83",
"~+	c #ACB0AB",
"{+	c #A4B0A1",
"]+	c #545654",
"^+	c #ADB8AA",
"/+	c #8C938A",
"(+	c #444444",
"_+	c #6F6F6F",
":+	c #ACB1AA",
"<+	c #707370",
"[+	c #494949",
"}+	c #A0A2A0",
"|+	c #A9B6A5",
"1+	c #A3AFA0",
"2+	c #656664",
"3+	c #999998",
"4+	c #ABB6A7",
"5+	c #A2AD9F",
"6+	c #666765",
"7+	c #646464",
"8+	c #979897",
"9+	c #ABB5A8",
"0+	c #A5B0A1",
"a+	c #757875",
"b+	c #525252",
"c+	c #535353",
"d+	c #585858",
"e+	c #9C9E9C",
"f+	c #91978F",
"g+	c #626262",
"h+	c #A9B5A5",
"i+	c #A5B1A2",
"j+	c #8A8F88",
"k+	c #676767",
"l+	c #9FA39D",
"m+	c #9FA79C",
"n+	c #8F958E",
"o+	c #848683",
"p+	c #7C7D7C",
"q+	c #7A7B7A",
"r+	c #8E908D",
"s+	c #9A9E99",
"t+	c #A6AEA4",
"u+	c #A9B4A5",
". . . . . . . . . . + @ # $ % & * = - ; > , . . . . . . . . . . ",
". . . . . . . . ' ) ! ~ ~ { ] ^ / ( _ : < [ } | . . . . . . . . ",
". . . . . . 1 2 ] 3 4 5 6 7 8 9 0 a b c d e f g h i . . . . . . ",
". . . . . j k l l m d n o p q r s t u v w x y z y A B . . . . . ",
". . . . C D E F G H I J K o q L M t N v n O P Q R S T U . . . . ",
". . . V W X Y y I Z `  .K ..+.s H @.#.$.n P %.&.&.*.*.=.-.. . . ",
". . ;.>.,.E b '.).!.` ~.p q r s t u #.{.w P ].^./.].(.(._.. . . ",
". . :.,.,.f <.<.).I J K o q L M t N v {.O [.&.}./.9 [.a Q |.. . ",
". 1.2.3.4.'.5.'.Z `  .K ..+.L H @.N $.n P %.&.0 Q 9 (.%.Q n 6.. ",
". 7.8.9.#.0.5.).!.` ~.p ..r s t u #.{.w P ].^.0 a.b.c.d.^.^.e.. ",
"i f.g.^ h.i.<.).I J ~.o q L M t N v {.O [.].}.j.k.l.m.n.o.^.@.p.",
"q.3.8.}.h.i.'.Z I  .K ..+.L H @.N $.n O %.&.0 r.s.t.u.v.w.].P x.",
"y.z.X p 0.5.).!.` ~.p ..r s H u #.{.w P ].^.0 A.B.C.D.E.F.n P G.",
">.z.H.0.i.<.).I J ~.o q r M t N v {.O [.].}./.I.J.K.L.M.N.{.P O.",
"P.g.Q.h.i.'.Z I  .K o +.L H @.N $.n O %.&.}.Q 9 R.S.T.U.V.w O W.",
"X.g.Y.0.5.'.!.`  .p ..r s H u #.$.w P %.^.0 x a Z.*.g `.y P O q ",
" +8..+0.<.).I J ~.o q r M t u v {.O [.].}./.x (.++*.S R y [.w q ",
"P.8.@+i.'.Z I  .K o +.L M @.N $.n O %.&.}.Q 9 (.8 b `.V.#+w w $+",
"%+&+m ).'.!.`  .p ..+.s H u #.$.w P %.^.0 Q a Z.*.g `.y *+#.n =+",
"7.&+-+r ).!.J ~.o q r M t u v {.w [.].^./.x (.++*.S R y R u n ;+",
">+E 9.++Z I  .K o +.L M @.N v n O %.&.}.Q 9 (.8 b S V.#+}.w $.,+",
"1 '+X ] ` `  .p ..+.s H @.#.$.w P %.^.0 Q a Z.8 g `.y *+$.O q )+",
". !+X -+^.J ~.p q r s t u v {.w [.].^./.x a ++*.S R y x w w ~+. ",
". {+]+-+{ q K o +.L M @.N v n O [.&.}.Q 9 (.8 b S V.R $.[.H ^+. ",
". . /+(+(+_+....+.s H @.#.$.n P %.^.0 Q a Z.8 g `.V.{.].P :+. . ",
". . 1 <+l [+#++.r s t u #.{.w [.].^./.x a ++*.g `.O ].].}+|+. . ",
". . . 1+2+[+m _+H M t N v n O [.&.}./.9 (.++b *.[.0 ^.3+4+. . . ",
". . . . 5+6+m 5 7+%.u #.$.n P %.&.0 Q a Z.8 &.[.9 /.8+9+. . . . ",
". . . . . 0+a+b+c+d+_+}.$.w P ].^./.x 0 %.].(.(.x e+6.. . . . . ",
". . . . . . ;.f+g+] ^ / : #+*.x 9 (.(.8 R g 8 ].|.h+. . . . . . ",
". . . . . . . . i+j+& Q.( 7+k+Y.e f c #+S ^.l+6.. . . . . . . . ",
". . . . . . . . . . ;.m+n+o+p+q+b 9 r+s+t+u+. . . . . . . . . . "};
