/* XPM */
static const char * knob17_xpm[] = {
"32 32 224 2",
"  	c None",
". 	c #A8B5A4",
"+ 	c #99A595",
"@ 	c #788175",
"# 	c #70796D",
"$ 	c #666E63",
"% 	c #636B60",
"& 	c #646C61",
"* 	c #697166",
"= 	c #70796E",
"- 	c #929E8F",
"; 	c #A7B4A3",
"> 	c #A5B2A1",
", 	c #6E776B",
"' 	c #889384",
") 	c #899585",
"! 	c #889484",
"~ 	c #879383",
"{ 	c #879382",
"] 	c #869281",
"^ 	c #859181",
"/ 	c #83907F",
"( 	c #687265",
"_ 	c #5C6459",
": 	c #6E786B",
"< 	c #9FAB9B",
"[ 	c #8A9587",
"} 	c #859081",
"| 	c #8C9788",
"1 	c #8B9687",
"2 	c #8A9686",
"3 	c #8A9585",
"4 	c #899484",
"5 	c #889483",
"6 	c #869282",
"7 	c #859180",
"8 	c #84907F",
"9 	c #83907E",
"0 	c #7F8B7A",
"a 	c #5F685C",
"b 	c #798276",
"c 	c #717A6E",
"d 	c #818A7D",
"e 	c #8E988A",
"f 	c #8D9889",
"g 	c #8C9787",
"h 	c #8B9686",
"i 	c #8A9586",
"j 	c #889383",
"k 	c #828F7D",
"l 	c #798574",
"m 	c #5B6359",
"n 	c #9EAA9A",
"o 	c #A4B1A0",
"p 	c #646B61",
"q 	c #8C9688",
"r 	c #8F9A8B",
"s 	c #8E998A",
"t 	c #8E9889",
"u 	c #879282",
"v 	c #84917F",
"w 	c #838F7E",
"x 	c #808D7B",
"y 	c #565E53",
"z 	c #98A495",
"A 	c #646C62",
"B 	c #8E988B",
"C 	c #909B8C",
"D 	c #909A8C",
"E 	c #8F998B",
"F 	c #859281",
"G 	c #828E7D",
"H 	c #818E7C",
"I 	c #5D6659",
"J 	c #9DA999",
"K 	c #6D756A",
"L 	c #8E978A",
"M 	c #929C8E",
"N 	c #919B8D",
"O 	c #849180",
"P 	c #808E7B",
"Q 	c #626B5F",
"R 	c #818B7E",
"S 	c #818A7E",
"T 	c #939D8F",
"U 	c #8D9788",
"V 	c #828F7E",
"W 	c #778473",
"X 	c #778074",
"Y 	c #A4B0A0",
"Z 	c #646A61",
"` 	c #949E90",
" .	c #939D90",
"..	c #939C8F",
"+.	c #626D5F",
"@.	c #747D72",
"#.	c #8D968A",
"$.	c #959E91",
"%.	c #949D90",
"&.	c #919B8E",
"*.	c #6B7468",
"=.	c #666C63",
"-.	c #969F92",
";.	c #949E91",
">.	c #5A6457",
",.	c #A2AE9E",
"'.	c #97A393",
").	c #737A71",
"!.	c #969F93",
"~.	c #959F92",
"{.	c #929C8F",
"].	c #899485",
"^.	c #778372",
"/.	c #7D867A",
"(.	c #727B70",
"_.	c #959E92",
":.	c #97A093",
"<.	c #909B8D",
"[.	c #697266",
"}.	c #6D756B",
"|.	c #98A195",
"1.	c #97A094",
"2.	c #687165",
"3.	c #6C746A",
"4.	c #98A194",
"5.	c #5E675B",
"6.	c #6E756B",
"7.	c #99A296",
"8.	c #5A6357",
"9.	c #6D746B",
"0.	c #99A195",
"a.	c #5B6357",
"b.	c #6F776D",
"c.	c #9AA297",
"d.	c #5E665B",
"e.	c #747C72",
"f.	c #9AA397",
"g.	c #9AA296",
"h.	c #8B9787",
"i.	c #7C8579",
"j.	c #98A094",
"k.	c #6A7367",
"l.	c #96A293",
"m.	c #848B81",
"n.	c #7C8777",
"o.	c #7A8377",
"p.	c #9BA398",
"q.	c #929B8E",
"r.	c #5F675C",
"s.	c #A0AC9C",
"t.	c #757E72",
"u.	c #969E93",
"v.	c #9BA397",
"w.	c #656E63",
"x.	c #A1AD9D",
"y.	c #696F67",
"z.	c #687164",
"A.	c #899086",
"B.	c #869182",
"C.	c #6E766B",
"D.	c #62685F",
"E.	c #99A196",
"F.	c #826F66",
"G.	c #63443E",
"H.	c #634F48",
"I.	c #878A7E",
"J.	c #60685D",
"K.	c #A3B0A0",
"L.	c #646A62",
"M.	c #997770",
"N.	c #953C3B",
"O.	c #7C3130",
"P.	c #54211E",
"Q.	c #492722",
"R.	c #8F9689",
"S.	c #60685E",
"T.	c #95A091",
"U.	c #9BA798",
"V.	c #696F66",
"W.	c #C4716B",
"X.	c #E99A98",
"Y.	c #BD6461",
"Z.	c #78302F",
"`.	c #4A1E1A",
" +	c #7C776D",
".+	c #61695F",
"++	c #8E998B",
"@+	c #636960",
"#+	c #8F978C",
"$+	c #D28D87",
"%+	c #FFF3F2",
"&+	c #EFA8A6",
"*+	c #95413F",
"=+	c #57221F",
"-+	c #7F7D71",
";+	c #60675D",
">+	c #939E8F",
",+	c #727A6F",
"'+	c #71776F",
")+	c #A8948A",
"!+	c #ED9895",
"~+	c #DC7B78",
"{+	c #943C3A",
"]+	c #704F48",
"^+	c #727B6F",
"/+	c #6F776C",
"(+	c #9EAA9B",
"_+	c #757D72",
":+	c #6B7168",
"<+	c #8B9488",
"[+	c #9C988C",
"}+	c #A17C73",
"|+	c #918077",
"1+	c #889285",
"2+	c #6B7368",
"3+	c #949F90",
"4+	c #7D877A",
"5+	c #6A7268",
"6+	c #697067",
"7+	c #656C63",
"8+	c #687066",
"9+	c #6B7469",
"0+	c #7A8477",
"a+	c #A1AE9D",
". . . . . . . . . . . + @ # $ % % & * = - ; . . . . . . . . . . ",
". . . . . . . . > @ & , ' ) ! ~ { ] ^ / ( _ : < . . . . . . . . ",
". . . . . . . [ * } | 1 2 3 4 5 ~ 6 ] 7 8 9 0 a b ; . . . . . . ",
". . . . . > c d e f | g h i ) ! j { ] ^ 7 8 9 k l m n . . . . . ",
". . . . o p q r s t f | 1 2 3 4 ! ~ u ] 7 v / w k x y z . . . . ",
". . . > A B C D E s f | g 1 i ) 4 j { 6 F 7 8 9 k G H I J . . . ",
". . . K L M N D r s e f | 1 h 3 ) ! ~ { ] 7 O 8 w k H P Q . . . ",
". . R S T M N N D E s f U | 1 2 3 4 5 ~ 6 ] 7 8 9 V k H W X . . ",
". Y Z `  ...M N D r E e f | g h i ) ! j { ] ^ 7 8 9 k H H +.J . ",
". @.#.$.%.T M &.N D E s t f | 1 2 3 4 ! ~ u ] 7 v / w k H P *.. ",
"; =.-.$.;. ...M N C D E s f | g 1 i ) 4 j { 6 F 7 8 9 k G H >.,.",
"'.).!.~.$.%.T {.M N D r s e f | 1 h 3 ].! ~ { ] 7 O 8 w k H ^./.",
"(._.:.-._.;.%.T M N <.D E s f U | 1 2 ) 4 5 ~ 6 ] 7 8 9 V G H [.",
"}.|.1.!.-.$.`  ...M N D r E e f | g h i ) ! j { ] ^ O 8 w k H 2.",
"3.|.4.:.!.~.$.%.T M &.N D E s t f | 1 2 3 4 ! ~ u ] 7 v / w k 5.",
"6.7.|.1.:.-.$.;. ...M N D D E s f | g 1 i ) 4 j { 6 F 7 8 9 k 8.",
"9.7.0.4.1.!.~.$.%.T {.M N D r s e f | 1 h 3 ].! ~ { ] 7 O 8 w a.",
"b.c.7.|.1.:.-._.;.%.T M N <.D E s f U | 1 2 ) 4 5 ~ 6 ] 7 8 9 d.",
"e.f.g.0.|.1.!.-.$.`  .{.M N D r E e f | h.h i ) ! j { ] ^ O 8 % ",
"i.c.c.7.|.j.:.!.~.$.%.T M &.N D E s f f | 1 2 3 4 ! ~ 6 ] 7 8 k.",
"l.m.f.g.7.|.1.:.-.$.;. ...M N D D E s f | g 1 i ) 4 j { 6 F n.o.",
". ).p.f.7.0.4.1.!.~.$.%.T {.q.N D r s e f | 1 h 3 ].! ~ { ] r.s.",
". t.u.v.c.7.|.1.:.-._.;.%.T M N <.D E s f U | 1 i ) 4 5 ~ 6 w.. ",
". x.y.p.f.7.0.|.1.!.-.$.`  .{.M N D r E e f | h.h i ) ! j z.D . ",
". . @ A.p.c.7.|.j.:.!.~.;.%.T M &.N D E s f f | 1 2 3 4 B.C.. . ",
". . . D.E.f.g.E.|.1.:.-.F.G.H.I.M N D D E s f | g 1 i ) J.K.. . ",
". . . < L.f.f.7.0.4.1.M.N.O.P.Q.R.q.N D r s e f | 1 h S.T.. . . ",
". . . . U.V.7.c.7.|.1.W.X.Y.Z.`. +M N <.D E s f U g .+++. . . . ",
". . . . . J @+#+7.0.|.$+%+&+*+=+-+{.M N D r E e ].;+>+. . . . . ",
". . . . . . ; ,+'+|.|.)+!+~+{+]+%.T M &.N D E ^+/+> . . . . . . ",
". . . . . . . . (+_+:+<+[+}+|+%.;. ...M 1+2+C.3+. . . . . . . . ",
". . . . . . . . . . Y 4+6.5+6+=.7+7+8+9+0+a+. . . . . . . . . . "};
