/* XPM */
static const char * knob29_xpm[] = {
"32 32 218 2",
"  	c None",
". 	c #A8B5A4",
"+ 	c #909B8D",
"@ 	c #70786D",
"# 	c #6D756B",
"$ 	c #6C736A",
"% 	c #72786F",
"& 	c #6D746B",
"* 	c #6A7168",
"= 	c #6C7369",
"- 	c #6F776C",
"; 	c #8F9A8B",
"> 	c #9FAB9B",
", 	c #727B6F",
"' 	c #6F766D",
") 	c #838A80",
"! 	c #99A196",
"~ 	c #9AA297",
"{ 	c #9AA397",
"] 	c #9BA398",
"^ 	c #7D837A",
"/ 	c #6B7269",
"( 	c #7B8579",
"_ 	c #A4B1A0",
": 	c #A7B4A3",
"< 	c #768074",
"[ 	c #696F66",
"} 	c #959D91",
"| 	c #98A195",
"1 	c #99A195",
"2 	c #99A296",
"3 	c #9AA296",
"4 	c #98A095",
"5 	c #747B72",
"6 	c #828B7E",
"7 	c #626960",
"8 	c #898E83",
"9 	c #AA877D",
"0 	c #BE8A82",
"a 	c #A3968B",
"b 	c #98A194",
"c 	c #8E968B",
"d 	c #A0AD9D",
"e 	c #99A595",
"f 	c #5F665D",
"g 	c #949D90",
"h 	c #A15F59",
"i 	c #E98B88",
"j 	c #FFE9E8",
"k 	c #F09E9B",
"l 	c #A5877D",
"m 	c #97A094",
"n 	c #98A094",
"o 	c #646A62",
"p 	c #9CA898",
"q 	c #9BA798",
"r 	c #61685F",
"s 	c #8B887D",
"t 	c #8B3736",
"u 	c #CD7472",
"v 	c #F5BCB9",
"w 	c #E28C8A",
"x 	c #A35752",
"y 	c #969F93",
"z 	c #97A093",
"A 	c #636961",
"B 	c #A0AC9C",
"C 	c #61685E",
"D 	c #929C8F",
"E 	c #86877B",
"F 	c #622624",
"G 	c #843635",
"H 	c #974341",
"I 	c #913C3B",
"J 	c #7E403D",
"K 	c #959F92",
"L 	c #969F92",
"M 	c #646B62",
"N 	c #767F73",
"O 	c #858E81",
"P 	c #939C8F",
"Q 	c #939D8F",
"R 	c #929B8D",
"S 	c #52332D",
"T 	c #4D1E1B",
"U 	c #56211F",
"V 	c #55211E",
"W 	c #75665E",
"X 	c #959E91",
"Y 	c #959E92",
"Z 	c #889085",
"` 	c #788275",
" .	c #666D63",
"..	c #929C8E",
"+.	c #8E9488",
"@.	c #695A52",
"#.	c #5D4740",
"$.	c #787268",
"%.	c #939D90",
"&.	c #949E90",
"*.	c #949E91",
"=.	c #686F65",
"-.	c #717A6E",
";.	c #8E988B",
">.	c #919B8D",
",.	c #919B8E",
"'.	c #939C90",
").	c #6F786C",
"!.	c #A6B3A2",
"~.	c #909A8C",
"{.	c #889285",
"].	c #808A7D",
"^.	c #8F998B",
"/.	c #8F9A8C",
"(.	c #909B8C",
"_.	c #80887D",
":.	c #879183",
"<.	c #727B70",
"[.	c #8E9889",
"}.	c #8E998A",
"|.	c #727A6F",
"1.	c #6D766A",
"2.	c #8D9889",
"3.	c #8E988A",
"4.	c #71796E",
"5.	c #656D62",
"6.	c #8C9788",
"7.	c #8D9788",
"8.	c #929B8E",
"9.	c #6E766C",
"0.	c #61695F",
"a.	c #8B9687",
"b.	c #8B9787",
"c.	c #6D746A",
"d.	c #61695E",
"e.	c #8A9586",
"f.	c #8A9686",
"g.	c #8B9686",
"h.	c #8C9787",
"i.	c #6C7469",
"j.	c #646C61",
"k.	c #899585",
"l.	c #8A9585",
"m.	c #6E766B",
"n.	c #889484",
"o.	c #899484",
"p.	c #8D9789",
"q.	c #757E72",
"r.	c #879383",
"s.	c #889383",
"t.	c #7A8477",
"u.	c #818B7E",
"v.	c #798475",
"w.	c #879382",
"x.	c #7D877A",
"y.	c #8B9688",
"z.	c #A3B0A0",
"A.	c #5D655A",
"B.	c #869281",
"C.	c #869282",
"D.	c #636B61",
"E.	c #687166",
"F.	c #849080",
"G.	c #859181",
"H.	c #899485",
"I.	c #6E776C",
"J.	c #9BA797",
"K.	c #60695D",
"L.	c #849180",
"M.	c #859180",
"N.	c #889483",
"O.	c #677064",
"P.	c #9FAC9C",
"Q.	c #70796D",
"R.	c #7B8777",
"S.	c #84907F",
"T.	c #859281",
"U.	c #818C7D",
"V.	c #5A6258",
"W.	c #828F7D",
"X.	c #83907E",
"Y.	c #83907F",
"Z.	c #879282",
"`.	c #626A5F",
" +	c #A7B4A4",
".+	c #586155",
"++	c #838F7E",
"@+	c #5B6358",
"#+	c #9BA897",
"$+	c #95A091",
"%+	c #5A6357",
"&+	c #818E7D",
"*+	c #5A6157",
"=+	c #97A393",
"-+	c #98A494",
";+	c #5E675B",
">+	c #7C8877",
",+	c #818E7C",
"'+	c #828E7D",
")+	c #7A8676",
"!+	c #5C645A",
"~+	c #9CA899",
"{+	c #6E776B",
"]+	c #5F695B",
"^+	c #808D7B",
"/+	c #5F675B",
"(+	c #666E63",
"_+	c #5D675A",
":+	c #768371",
"<+	c #808E7B",
"[+	c #788373",
"}+	c #A5B2A1",
"|+	c #848F81",
"1+	c #6A7467",
"2+	c #636D60",
"3+	c #5F685B",
"4+	c #596256",
"5+	c #646D61",
". . . . . . . . . . . + @ # $ % & * = - ; . . . . . . . . . . . ",
". . . . . . . . > , ' ) ! ~ { { ] ] ] ~ ^ / ( _ . . . . . . . . ",
". . . . . . : < [ } | 1 2 2 2 3 ~ ~ { { ] ] 4 5 6 . . . . . . . ",
". . . . . > 7 8 9 0 a b | | | 1 2 2 2 3 ~ ~ { { c * d . . . . . ",
". . . . e f g h i j k l m m n b | | | 1 2 2 2 3 ~ 4 o p . . . . ",
". . . q r g s t u v w x y z z m m m n | | | 1 1 2 2 | A B . . . ",
". . . C D g E F G H I J K L L y y z z m m m b | | | 1 y M : . . ",
". . N O P Q R S T U V W X X X Y K L L y y z z m m m b | Z ` . . ",
". B  .......D +.@.#.$.%.g g &.*.X X X K K L L y y z z m m =.B . ",
". -.;.>.>.>.,.......D P Q Q %.%.g g *.*.X X X K K L L y y '.).. ",
"!.=.~.~.~.~.>.>.>.>.,.......D P Q Q %.%.g g *.*.X X X K K L M !.",
"{.].^.^.; /.~.~.~.(.>.>.>.>.,.......D P Q Q %.%.g g *.*.X X _.:.",
"<.[.}.}.}.^.^.^.; /.~.~.~.(.>.>.>.>.,.......D P Q Q %.%.g g g |.",
"1.2.2.2.2.3.}.}.}.^.^.^.; /.~.~.~.+ >.>.>.>.,.......D P Q Q %.4.",
"5.6.6.6.7.2.2.2.2.3.}.}.}.^.^.^.; /.~.~.~.+ >.>.>.>.8.......D 9.",
"0.a.a.b.6.6.6.6.7.2.2.2.2.3.}.}.}.^.^.^.; ~.~.~.~.+ >.>.>.>.8.c.",
"d.e.f.g.a.a.a.h.6.6.6.6.7.2.2.2.[.3.}.}.}.^.^.^.; ~.~.~.~.+ >.i.",
"j.k.l.l.e.e.f.g.a.a.a.h.6.6.6.6.7.2.2.2.[.3.}.}.}.^.^.^.; ~.~.m.",
"1.n.o.o.k.k.l.l.e.e.f.g.a.a.a.h.6.6.6.6.p.2.2.2.[.3.}.}.}.^.^.q.",
"4.r.s.n.n.n.o.o.k.k.l.l.e.e.f.g.a.a.a.h.6.6.6.6.p.2.2.2.[.3.}.t.",
"u.v.w.r.r.s.s.n.n.n.o.o.k.k.l.l.e.e.f.g.a.a.a.h.6.6.6.6.p.2.x.y.",
"z.A.B.C.C.w.w.r.r.s.s.n.n.n.o.o.k.k.l.l.e.f.f.g.a.a.a.h.6.6.D.: ",
". E.F.G.B.B.B.C.C.w.w.r.r.s.s.n.n.n.o.H.k.k.l.l.e.f.f.g.a.H.I.. ",
". J.K.L.M.M.M.G.B.B.B.C.C.w.w.r.r.s.N.n.n.n.o.H.k.k.l.l.e.O.P.. ",
". . Q.R.S.S.L.L.M.M.M.T.B.B.B.C.C.w.w.r.r.s.N.n.n.n.o.H.U.` . . ",
". . : V.W.X.Y.S.S.S.L.L.M.M.G.T.B.B.B.C.Z.w.w.r.r.s.N.r.`. +. . ",
". . . q .+W.++++X.X.Y.S.S.S.L.M.M.M.G.T.B.B.B.C.Z.w.w.@+#+. . . ",
". . . . $+%+&+W.W.W.++++X.X.Y.S.S.S.L.M.M.M.G.T.B.M.*+=+. . . . ",
". . . . . -+;+>+,+,+'+W.W.W.++++X.X.Y.S.S.S.L.M.)+!+~+. . . . . ",
". . . . . . !.{+]+^+,+,+,+,+'+W.W.W.++++X.X.++/+, : . . . . . . ",
". . . . . . . . e (+_+:+<+,+,+,+,+&+'+W.[+%+E.p . . . . . . . . ",
". . . . . . . . . . }+|+Q.1+2+3+4+;+5+Q.]._ . . . . . . . . . . "};
