/* XPM */
static const char * knob15_xpm[] = {
"32 32 251 2",
"  	c None",
". 	c #A8B5A4",
"+ 	c #A6B3A2",
"@ 	c #9DA69A",
"# 	c #848A82",
"$ 	c #6D706C",
"% 	c #5E605D",
"& 	c #545554",
"* 	c #545453",
"= 	c #555655",
"- 	c #646763",
"; 	c #797E77",
"> 	c #959E93",
", 	c #A5B1A1",
"' 	c #A4AFA1",
") 	c #888F86",
"! 	c #5E5F5E",
"~ 	c #444444",
"{ 	c #3D3D3D",
"] 	c #3C3C3C",
"^ 	c #3B3B3B",
"/ 	c #3A3A3A",
"( 	c #383838",
"_ 	c #373737",
": 	c #363636",
"< 	c #353535",
"[ 	c #4B4C4B",
"} 	c #7A7F78",
"| 	c #A1AD9E",
"1 	c #A8B4A4",
"2 	c #91998F",
"3 	c #5C5D5C",
"4 	c #434343",
"5 	c #424242",
"6 	c #414141",
"7 	c #505050",
"8 	c #5E5E5E",
"9 	c #6A6A6A",
"0 	c #676767",
"a 	c #606060",
"b 	c #464746",
"c 	c #838A81",
"d 	c #A7B4A3",
"e 	c #A6B2A2",
"f 	c #7B7E7A",
"g 	c #4B4B4B",
"h 	c #474747",
"i 	c #5B5B5B",
"j 	c #818181",
"k 	c #9C9C9C",
"l 	c #AAAAAA",
"m 	c #AEAEAE",
"n 	c #AFAFAF",
"o 	c #B0B0B0",
"p 	c #B1B1B1",
"q 	c #B2B2B2",
"r 	c #898989",
"s 	c #5A5A5A",
"t 	c #A5B1A2",
"u 	c #707270",
"v 	c #4D4D4D",
"w 	c #575757",
"x 	c #A4A4A4",
"y 	c #A8A8A8",
"z 	c #A9A9A9",
"A 	c #ABABAB",
"B 	c #ADADAD",
"C 	c #B3B3B3",
"D 	c #979797",
"E 	c #585858",
"F 	c #393939",
"G 	c #515251",
"H 	c #9DA89A",
"I 	c #A6B2A3",
"J 	c #737573",
"K 	c #515151",
"L 	c #9B9B9B",
"M 	c #A3A3A3",
"N 	c #A6A6A6",
"O 	c #A7A7A7",
"P 	c #ACACAC",
"Q 	c #787878",
"R 	c #525251",
"S 	c #A0AB9C",
"T 	c #828681",
"U 	c #555555",
"V 	c #545454",
"W 	c #757575",
"X 	c #9D9D9D",
"Y 	c #A0A0A0",
"Z 	c #A1A1A1",
"` 	c #A2A2A2",
" .	c #A5A5A5",
"..	c #838383",
"+.	c #3F3F3F",
"@.	c #626562",
"#.	c #98A096",
"$.	c #717171",
"%.	c #9A9A9A",
"&.	c #9E9E9E",
"*.	c #9F9F9F",
"=.	c #3E3E3E",
"-.	c #80867E",
";.	c #A7B3A3",
">.	c #717271",
",.	c #5C5C5C",
"'.	c #656565",
").	c #959595",
"!.	c #999999",
"~.	c #616161",
"{.	c #4C4C4C",
"].	c #9FAA9C",
"^.	c #999F97",
"/.	c #5F5F5F",
"(.	c #969696",
"_.	c #989898",
":.	c #7C817B",
"<.	c #7E807E",
"[.	c #636363",
"}.	c #939393",
"|.	c #949494",
"1.	c #6E6E6E",
"2.	c #575857",
"3.	c #A4B0A1",
"4.	c #A6B0A3",
"5.	c #6B6B6B",
"6.	c #666666",
"7.	c #868686",
"8.	c #909090",
"9.	c #919191",
"0.	c #4A4A4A",
"a.	c #979F94",
"b.	c #9AA098",
"c.	c #6C6C6C",
"d.	c #8E8E8E",
"e.	c #8F8F8F",
"f.	c #929292",
"g.	c #494949",
"h.	c #7E837D",
"i.	c #90948F",
"j.	c #6D6D6D",
"k.	c #797979",
"l.	c #8D8D8D",
"m.	c #8C8C8C",
"n.	c #6E706D",
"o.	c #8B8D8B",
"p.	c #707070",
"q.	c #7F7F7F",
"r.	c #8A8A8A",
"s.	c #8B8B8B",
"t.	c #7D7D7D",
"u.	c #4F4F4F",
"v.	c #656665",
"w.	c #8B8B8A",
"x.	c #737373",
"y.	c #888888",
"z.	c #8D8E8D",
"A.	c #767676",
"B.	c #878787",
"C.	c #848484",
"D.	c #858585",
"E.	c #646464",
"F.	c #929492",
"G.	c #828282",
"H.	c #696969",
"I.	c #999D98",
"J.	c #7B7B7B",
"K.	c #7A7A7A",
"L.	c #767876",
"M.	c #A3A9A1",
"N.	c #7E7E7E",
"O.	c #808080",
"P.	c #5D5D5D",
"Q.	c #858A84",
"R.	c #ABB4A8",
"S.	c #9BA399",
"T.	c #969796",
"U.	c #7C7C7C",
"V.	c #A7ACA4",
"W.	c #8D928C",
"X.	c #AAB5A7",
"Y.	c #82807F",
"Z.	c #7F7B7A",
"`.	c #A4AEA1",
" +	c #A9B0A7",
".+	c #6A4D4B",
"++	c #4F201D",
"@+	c #451C18",
"#+	c #523532",
"$+	c #858383",
"%+	c #727272",
"&+	c #949993",
"*+	c #A9B5A5",
"=+	c #A2A4A1",
"-+	c #777777",
";+	c #806C6C",
">+	c #8A3635",
",+	c #853635",
"'+	c #6C2A28",
")+	c #4D1F1B",
"!+	c #614C4A",
"~+	c #868885",
"{+	c #A7B4A4",
"]+	c #AAB6A7",
"^+	c #9D9F9D",
"/+	c #936462",
"(+	c #D4726F",
"_+	c #DD8B89",
":+	c #AA5250",
"<+	c #722C2B",
"[+	c #5B3B39",
"}+	c #808180",
"|+	c #A5AFA2",
"1+	c #ABB6A8",
"2+	c #A0A1A0",
"3+	c #8B7270",
"4+	c #F4AAA8",
"5+	c #FFF1F0",
"6+	c #E08B89",
"7+	c #8E3938",
"8+	c #705655",
"9+	c #848584",
"0+	c #A5AEA2",
"a+	c #ACB7A9",
"b+	c #A8AAA7",
"c+	c #A87876",
"d+	c #EA9593",
"e+	c #CF6460",
"f+	c #8E5252",
"g+	c #868484",
"h+	c #909290",
"i+	c #A7B1A4",
"j+	c #A9B6A5",
"k+	c #AFB4AD",
"l+	c #9E9E9D",
"m+	c #8D8B8A",
"n+	c #908A8A",
"o+	c #9FA49E",
"p+	c #A8B4A5",
"q+	c #ADB7A9",
"r+	c #ABB0AA",
"s+	c #9FA29E",
"t+	c #A8B2A5",
"u+	c #ABB6A7",
"v+	c #AFB6AC",
"w+	c #AAAEA8",
"x+	c #A5A6A4",
"y+	c #9FA09F",
"z+	c #9EA09E",
"A+	c #A3A6A1",
"B+	c #A9B5A6",
". . . . . . . . . . + @ # $ % & * = - ; > , . . . . . . . . . . ",
". . . . . . . . ' ) ! ~ { ] ^ / ( _ : < _ [ } | . . . . . . . . ",
". . . . . . 1 2 3 4 5 6 ~ 7 8 9 0 a 7 6 _ : < b c d . . . . . . ",
". . . . . e f g h h i j k l m n o p q l r s / : _ - | . . . . . ",
". . . . t u v g w r x y z l A B m n o p C q D E F _ G H . . . . ",
". . . I J K 7 9 L M x N O y z l P B m n o q C n Q ] F R S . . . ",
". . . T U V W X Y Z ` M  .N O y z A P B m n p q q ..+.^ @.e . . ",
". . #.i E $.%.X &.*.Y Z M x  .N O z l A P B n o p q Q =.{ -.. . ",
". ;.>.,.'.).!.%.k X &.*.Y ` M x  .N y z l A P m n o m ~.+.{.].. ",
". ^.a /.r (.D _.!.L k X &.*.Z ` M x  .O y z l A B m n X h 6 :.. ",
". <.[.$.}.|.).(.D _.%.L k X &.Y Z ` M x N O y z l P B m 1.~ 2.3.",
"4.5.6.7.8.9.}.|.).(.D !.%.L k X *.Y Z ` M  .N O y z A P !.0.h a.",
"b.9 c.9.d.e.8.f.}.|.).(._.!.%.L X &.*.Y Z M x  .N O z l y w g.h.",
"i.j.k.l.m.l.d.8.9.f.}.|.(.D _.!.%.k X &.*.Y ` M x  .N y z c.{.n.",
"o.p.q.r r.s.m.l.e.8.9.f.}.).(.D _.!.L k X &.*.Z ` M x  .O t.u.v.",
"w.x...7.y.r r.s.m.d.e.8.9.f.|.).(.D _.%.L k X &.Y Z ` M x y.K ~.",
"z.A.B.C.D.B.y.r r.s.l.d.e.8.9.}.|.).(.D !.%.L k X *.Y Z ` B.V E.",
"F.Q y.G...C.7.B.y.r r.m.l.d.e.8.f.}.|.).(._.!.%.L X &.*.Y ..w H.",
"I.J.y.G.j G...D.7.B.y.r.s.m.l.d.8.9.f.}.|.(.D _.!.%.k X &.K.s L.",
"M.N.G.r q.O.j ..C.D.7.B.r r.s.m.l.e.8.9.f.}.).(.D _.!.L L p.P.Q.",
"R.D.O.l.t.N.q.O.G...C.D.7.y.r r.s.m.d.e.8.9.f.|.).(.D _.).'.~.S.",
". T...d.U.U.t.N.q.j G...C.D.B.y.r r.s.l.d.e.8.9.}.|.).(.D.E.$.e ",
". V.7.7.r K.J.U.t.N.O.j G...C.7.B.y.r r.m.l.d.e.8.f.}.}.p.0 W.. ",
". X.).y.8.t.k.K.J.U.t.q.O.j G...D.Y.Z.y.r s.m.l.d.8.9.C.5.x.`.. ",
". .  +s.r.|.Q Q k.K.J.t.N.q.O.j .+++@+#+$+r r.s.m.l.l.%+1.&+. . ",
". . *+=+m.m.9.A.-+Q k.K.U.t.N.;+>+,+'+)+!+7.y.r r.d.Q %+~+{+. . ",
". . . ]+^+d.d.}.k.A.-+Q k.J.U./+(+_+:+<+[+C.D.B.s.U.A.}+|+. . . ",
". . . . 1+2+8.e.(.C.W A.-+Q K.3+4+5+6+7+8+G.y.r.t.K.9+0+. . . . ",
". . . . . a+b+}.9.}.).y.Q A.-+k.c+d+e+f+g+m.y.O.q.h+i+. . . . . ",
". . . . . . j+k+l+f.9.f.D |.8.d.s.m+n+d.y.D.C.r o+p+. . . . . . ",
". . . . . . . . q+r+*.|.f.9.8.e.l.m.s.r.r 9.s+t+. . . . . . . . ",
". . . . . . . . . . u+v+w+x+y+k L k z+A+ +B+. . . . . . . . . . "};
