/* XPM */
static const char * knob25_xpm[] = {
"32 32 218 2",
"  	c None",
". 	c #A8B5A4",
"+ 	c #99A595",
"@ 	c #7D867A",
"# 	c #757D72",
"$ 	c #70776D",
"% 	c #6D746B",
"& 	c #6C746A",
"* 	c #6E756B",
"= 	c #727A6F",
"- 	c #939F90",
"; 	c #A7B4A3",
"> 	c #A3B09F",
", 	c #778074",
"' 	c #737A70",
") 	c #81887F",
"! 	c #9AA297",
"~ 	c #9AA397",
"{ 	c #99A296",
"] 	c #98A195",
"^ 	c #969F93",
"/ 	c #777E74",
"( 	c #656B62",
"_ 	c #717A6F",
": 	c #A1AE9E",
"< 	c #7D877A",
"[ 	c #666D64",
"} 	c #949C91",
"| 	c #9BA398",
"1 	c #9AA296",
"2 	c #99A195",
"3 	c #98A194",
"4 	c #97A094",
"5 	c #97A093",
"6 	c #969F92",
"7 	c #90998D",
"8 	c #7C8679",
"9 	c #A2AE9E",
"0 	c #646B62",
"a 	c #848B81",
"b 	c #9BA397",
"c 	c #96A093",
"d 	c #959E92",
"e 	c #959E91",
"f 	c #949E91",
"g 	c #858E82",
"h 	c #697167",
"i 	c #A0AC9C",
"j 	c #626860",
"k 	c #979F94",
"l 	c #98A094",
"m 	c #959F92",
"n 	c #949D90",
"o 	c #939D90",
"p 	c #939D8F",
"q 	c #909A8C",
"r 	c #646B61",
"s 	c #A1AD9D",
"t 	c #99A196",
"u 	c #939C8F",
"v 	c #929C8E",
"w 	c #929C8F",
"x 	c #919B8E",
"y 	c #919B8D",
"z 	c #909B8D",
"A 	c #8E988A",
"B 	c #6D756A",
"C 	c #798276",
"D 	c #899086",
"E 	c #8F9A8B",
"F 	c #858F81",
"G 	c #848E81",
"H 	c #6D736B",
"I 	c #8F998B",
"J 	c #8E998A",
"K 	c #6B7368",
"L 	c #788175",
"M 	c #949E90",
"N 	c #8F9A8C",
"O 	c #8D9889",
"P 	c #8A9486",
"Q 	c #717A6E",
"R 	c #A7B3A3",
"S 	c #697067",
"T 	c #8C9788",
"U 	c #636A60",
"V 	c #80887D",
"W 	c #A4968B",
"X 	c #D08D87",
"Y 	c #C8736E",
"Z 	c #9B736C",
"` 	c #969E91",
" .	c #8D9788",
"..	c #8C9787",
"+.	c #8B9687",
"@.	c #788174",
"#.	c #8D988A",
"$.	c #6F776C",
"%.	c #999B8F",
"&.	c #E78F8B",
"*.	c #FFF3F2",
"=.	c #EEA6A4",
"-.	c #9A3F3E",
";.	c #80665E",
">.	c #909B8C",
",.	c #8D9789",
"'.	c #8A9686",
").	c #8A9585",
"!.	c #747D71",
"~.	c #6C7369",
"{.	c #9E8379",
"].	c #D87471",
"^.	c #EFA9A7",
"/.	c #C36B68",
"(.	c #7F3332",
"_.	c #5F3B36",
":.	c #8A9586",
"<.	c #899585",
"[.	c #6E776B",
"}.	c #6A7168",
"|.	c #92887E",
"1.	c #933B39",
"2.	c #964140",
"3.	c #7B3130",
"4.	c #57221F",
"5.	c #5C453E",
"6.	c #8B9686",
"7.	c #899484",
"8.	c #889484",
"9.	c #646C61",
"0.	c #676E65",
"a.	c #745750",
"b.	c #58221F",
"c.	c #4B1E1B",
"d.	c #47231F",
"e.	c #838378",
"f.	c #8E9889",
"g.	c #899485",
"h.	c #889383",
"i.	c #60685D",
"j.	c #818075",
"k.	c #7A756B",
"l.	c #8E9588",
"m.	c #879383",
"n.	c #879382",
"o.	c #676E64",
"p.	c #889483",
"q.	c #869282",
"r.	c #869281",
"s.	c #626A5F",
"t.	c #6A7267",
"u.	c #879282",
"v.	c #859181",
"w.	c #666F63",
"x.	c #6D766B",
"y.	c #859180",
"z.	c #849180",
"A.	c #6C756A",
"B.	c #858F82",
"C.	c #7F887C",
"D.	c #859281",
"E.	c #84907F",
"F.	c #727C6E",
"G.	c #869083",
"H.	c #A6B3A2",
"I.	c #687066",
"J.	c #83907F",
"K.	c #5B6458",
"L.	c #A5B1A1",
"M.	c #70786D",
"N.	c #83907E",
"O.	c #828E7D",
"P.	c #697165",
"Q.	c #9AA697",
"R.	c #6E766B",
"S.	c #8B9787",
"T.	c #838F7E",
"U.	c #828F7D",
"V.	c #626C5F",
"W.	c #99A495",
"X.	c #869182",
"Y.	c #828F7E",
"Z.	c #7D8978",
"`.	c #727B6F",
" +	c #61685E",
".+	c #818E7C",
"++	c #596156",
"@+	c #A5B2A1",
"#+	c #9AA696",
"$+	c #5D645A",
"%+	c #586155",
"&+	c #95A091",
"*+	c #84917F",
"=+	c #818E7D",
"-+	c #808E7B",
";+	c #5F685B",
">+	c #939E8F",
",+	c #848F80",
"'+	c #7A8775",
")+	c #60695D",
"!+	c #99A596",
"~+	c #656E62",
"{+	c #656F61",
"]+	c #949F91",
"^+	c #676F64",
"/+	c #5D655A",
"(+	c #7A8576",
"_+	c #798574",
":+	c #6A7367",
"<+	c #636C60",
"[+	c #5F675C",
"}+	c #5A6357",
"|+	c #5B6357",
"1+	c #5E675B",
"2+	c #677064",
"3+	c #697266",
"4+	c #7A8377",
"5+	c #A0AD9C",
". . . . . . . . . . . + @ # $ % % & * = - ; . . . . . . . . . . ",
". . . . . . . . > , ' ) ! ~ ! { { ] ] ^ / ( _ : . . . . . . . . ",
". . . . . . . < [ } | ~ ! 1 { 2 ] 3 4 5 ^ 6 7 ( 8 . . . . . . . ",
". . . . . 9 0 a | b ~ 1 { 2 ] 3 4 4 c ^ 6 d e f g h > . . . . . ",
". . . . i j k | ~ ! { { ] ] l 4 5 ^ 6 m e f n o p q r s . . . . ",
". . . 9 [ t ~ ! 1 { 2 ] 3 4 5 ^ 6 m e f n n p u v v q r : . . . ",
". . . ( 4 ~ 1 { 2 ] 3 4 5 c 6 m e e f n o u w v x y z A B . . . ",
". . C D ! { { ] ] 4 4 5 ^ 6 d e f n o p w v x y y q q E F G . . ",
". > H { { 2 ] 3 4 5 ^ 6 m e f n o p u v v y y q q E I J J K 9 . ",
". L ^ 2 ] 3 4 5 ^ 6 m e e M n p u v v x y z q N I I J A O P Q . ",
"R S ] ] 4 4 5 ^ 6 d e f n o p w v x y y q q E I J A O O T T U ; ",
"P V W X Y Z ` m e f n o p u v v y y q q E I J J O O  .T ..+.@.#.",
"$.%.&.*.=.-.;.e M n p u v v y y >.q E I I J A O ,.T T +.+.'.).!.",
"~.{.].^./.(._.n o p w v x y y q q E I J A O O T T +.+.'.:.).<.[.",
"}.|.1.2.3.4.5.p w v v y y q q E I J A O O T T ..+.6.:.).<.7.8.9.",
"0.e a.b.c.d.e.v v y y >.q E I J J f.O ,.T T +.+.'.:.<.g.8.8.h.i.",
"0.f n j.k.l.v x y z q q I I J A O O T T +.+.'.:.).<.7.8.h.m.n.i.",
"o.o p w v v y y q q E I J A O O T T ..+.6.:.).<.7.8.p.m.n.q.r.s.",
"t.u v v y y q q E I J J f.O  .T ..+.6.'.:.<.g.8.8.h.m.u.q.r.v.w.",
"x.v x y z q q I I J A O O T T +.+.'.:.).<.7.8.h.m.n.q.r.v.y.z.A.",
"B.C.y q q E I J A O O T T ..+.6.:.).<.7.8.p.m.n.q.r.D.y.y.E.F.G.",
"H.I.q E I J J f.O  .T ..+.6.'.).<.7.8.p.m.n.u.q.r.v.y.z.E.J.K.L.",
". M.I I J A O O T T +.+.'.:.).<.7.8.h.m.n.q.r.v.y.z.E.J.N.O.P.. ",
". Q.R.A O O T T S.+.6.:.).<.7.8.h.m.n.q.r.D.y.y.E.E.N.T.U.V.W.. ",
". . !.X. .T ..+.6.'.).<.7.8.p.m.n.u.r.r.v.y.z.E.J.T.Y.U.Z.`.. . ",
". . ;  ++.+.+.'.:.<.g.7.8.h.m.n.q.r.v.y.z.E.J.N.T.U.O..+++@+. . ",
". . . #+$+'.:.).<.7.8.h.m.n.q.r.D.y.y.E.E.N.T.U.U..+.+%+W.. . . ",
". . . . &+$+7.7.8.p.m.n.u.r.r.y.y.*+E.N.T.U.U.=+.+-+;+>+. . . . ",
". . . . . #+i.,+h.m.n.q.r.v.y.z.E.J.N.T.U.O..+.+'+)+!+. . . . . ",
". . . . . . H.Q ~+q.r.D.y.y.E.E.N.T.U.U..+.+-+{+`.; . . . . . . ",
". . . . . . . . ]+^+/+(+*+E.N.T.U.U..+.+_+K.:+W.. . . . . . . . ",
". . . . . . . . . . 9 8 :+<+[+}+|+1+2+3+4+5+. . . . . . . . . . "};
