/* XPM */
static const char * knob5_xpm[] = {
"32 32 247 2",
"  	c None",
". 	c #A8B5A4",
"+ 	c #A6B2A2",
"@ 	c #9CA499",
"# 	c #8A8F88",
"$ 	c #7C7F7B",
"% 	c #777876",
"& 	c #757575",
"* 	c #777877",
"= 	c #7D7E7D",
"- 	c #878A87",
"; 	c #949992",
"> 	c #A3ABA0",
", 	c #A8B4A4",
"' 	c #A3AFA0",
") 	c #878C85",
"! 	c #686968",
"~ 	c #585858",
"{ 	c #595959",
"] 	c #5D5D5D",
"^ 	c #606060",
"/ 	c #636363",
"( 	c #666666",
"_ 	c #696969",
": 	c #6C6C6C",
"< 	c #6F6F6F",
"[ 	c #737373",
"} 	c #828282",
"| 	c #989D97",
"1 	c #A8B3A4",
"2 	c #A7B4A3",
"3 	c #8C938A",
"4 	c #5E5F5E",
"5 	c #505050",
"6 	c #535353",
"7 	c #575757",
"8 	c #656565",
"9 	c #777777",
"0 	c #838383",
"a 	c #888888",
"b 	c #858585",
"c 	c #818181",
"d 	c #7C7C7C",
"e 	c #747474",
"f 	c #767676",
"g 	c #797979",
"h 	c #868686",
"i 	c #A1A69F",
"j 	c #A3AE9F",
"k 	c #727671",
"l 	c #4C4C4C",
"m 	c #4D4D4D",
"n 	c #545454",
"o 	c #949494",
"p 	c #9F9F9F",
"q 	c #9E9E9E",
"r 	c #9C9C9C",
"s 	c #999999",
"t 	c #979797",
"u 	c #929292",
"v 	c #909090",
"w 	c #8F8F8F",
"x 	c #7D7D7D",
"y 	c #808080",
"z 	c #979997",
"A 	c #A8B3A5",
"B 	c #A1AC9D",
"C 	c #616261",
"D 	c #464646",
"E 	c #4A4A4A",
"F 	c #646464",
"G 	c #989898",
"H 	c #A5A5A5",
"I 	c #A3A3A3",
"J 	c #A0A0A0",
"K 	c #9B9B9B",
"L 	c #969696",
"M 	c #919191",
"N 	c #8C8C8C",
"O 	c #8A8A8A",
"P 	c #8B8B8B",
"Q 	c #898989",
"R 	c #929392",
"S 	c #A9B3A6",
"T 	c #A2AE9E",
"U 	c #5F605E",
"V 	c #434343",
"W 	c #494949",
"X 	c #7B7B7B",
"Y 	c #A7A7A7",
"Z 	c #A2A2A2",
"` 	c #9D9D9D",
" .	c #878787",
"..	c #8E8E8E",
"+.	c #959695",
"@.	c #AAB4A6",
"#.	c #6B6E6A",
"$.	c #404040",
"%.	c #454545",
"&.	c #ACACAC",
"*.	c #AAAAAA",
"=.	c #939393",
"-.	c #9EA09D",
";.	c #A8B5A5",
">.	c #878E85",
",.	c #3E3E3E",
"'.	c #AEAEAE",
").	c #A9A9A9",
"!.	c #A4A4A4",
"~.	c #9A9A9A",
"{.	c #7B7575",
"].	c #6D5A59",
"^.	c #795F5E",
"/.	c #8C8888",
"(.	c #A8ADA6",
"_.	c #A2AE9F",
":.	c #4F4F4F",
"<.	c #3D3D3D",
"[.	c #5A5A5A",
"}.	c #ABABAB",
"|.	c #959595",
"1.	c #797271",
"2.	c #48201C",
"3.	c #6E2A29",
"4.	c #9A403E",
"5.	c #A85250",
"6.	c #928D8D",
"7.	c #ABB5A7",
"8.	c #7F857D",
"9.	c #393939",
"0.	c #3F3F3F",
"a.	c #B0B0B0",
"b.	c #A6A6A6",
"c.	c #A1A1A1",
"d.	c #573D3A",
"e.	c #53201E",
"f.	c #8E3D3B",
"g.	c #DF8B88",
"h.	c #F3A09E",
"i.	c #A37876",
"j.	c #A8ACA6",
"k.	c #A7B3A3",
"l.	c #535453",
"m.	c #5F5F5F",
"n.	c #B1B1B1",
"o.	c #ADADAD",
"p.	c #A8A8A8",
"q.	c #8D8D8D",
"r.	c #543735",
"s.	c #5C2421",
"t.	c #9E4846",
"u.	c #F7C4C2",
"v.	c #FFE2E1",
"w.	c #A27372",
"x.	c #9D9D9C",
"y.	c #A9B5A5",
"z.	c #9BA598",
"A.	c #3A3A3A",
"B.	c #B2B2B2",
"C.	c #6F6261",
"D.	c #582220",
"E.	c #933D3C",
"F.	c #DA7D7A",
"G.	c #DF8482",
"H.	c #7F7777",
"I.	c #ACB5AA",
"J.	c #81887F",
"K.	c #363636",
"L.	c #AFAFAF",
"M.	c #716160",
"N.	c #7C4848",
"O.	c #955857",
"P.	c #857473",
"Q.	c #AAAFA8",
"R.	c #6B6F6A",
"S.	c #525252",
"T.	c #B3B3B3",
"U.	c #7E7E7E",
"V.	c #A6A8A5",
"W.	c #5A5D5A",
"X.	c #616161",
"Y.	c #B4B4B4",
"Z.	c #787878",
"`.	c #A3A4A3",
" +	c #525352",
".+	c #676767",
"++	c #505150",
"@+	c #686868",
"#+	c #848484",
"$+	c #7F7F7F",
"%+	c #7A7A7A",
"&+	c #595B58",
"*+	c #A4A5A4",
"=+	c #686B66",
"-+	c #A7A9A7",
";+	c #7D847C",
">+	c #353535",
",+	c #3C3C3C",
"'+	c #ABB0AA",
")+	c #98A195",
"!+	c #B0B8AD",
"~+	c #545554",
"{+	c #565656",
"]+	c #9E9E9D",
"^+	c #AAB6A7",
"/+	c #828880",
"(+	c #A7ACA5",
"_+	c #505250",
":+	c #3B3B3B",
"<+	c #ABB6A8",
"[+	c #8A9188",
"}+	c #A7ADA5",
"|+	c #6F726D",
"1+	c #5F605F",
"2+	c #424242",
"3+	c #717171",
"4+	c #A1AC9E",
"5+	c #616260",
"6+	c #484848",
"7+	c #A2AD9F",
"8+	c #717370",
"9+	c #4B4B4B",
"0+	c #989997",
"a+	c #AAB5A7",
"b+	c #8B9289",
"c+	c #5B5C5B",
"d+	c #4E4E4E",
"e+	c #515151",
"f+	c #5E5E5E",
"g+	c #6D6D6D",
"h+	c #A2A7A0",
"i+	c #A4B0A1",
"j+	c #878C86",
"k+	c #676766",
"l+	c #555555",
"m+	c #5B5B5B",
"n+	c #6A6A6A",
"o+	c #9B9F9A",
"p+	c #9CA59A",
"q+	c #888D86",
"r+	c #7A7C79",
"s+	c #737473",
"t+	c #7B7C7B",
"u+	c #868885",
"v+	c #939892",
"w+	c #A4ABA2",
"x+	c #A8B4A5",
". . . . . . . . . . + @ # $ % & * = - ; > , . . . . . . . . . . ",
". . . . . . . . ' ) ! ~ { ] ^ / ( _ : < [ } | 1 . . . . . . . . ",
". . . . . . 2 3 4 5 6 7 8 9 0 a a b c d e f g h i . . . . . . . ",
". . . . . j k l m n f o p q r s t o u v w a x d y z A . . . . . ",
". . . . B C D E F G H I J q K s L o M w N O P Q y } R S . . . . ",
". . . T U V W X Y Y H Z J ` K s L o M w N O  .h ..b b +.@.. . . ",
". . 2 #.$.%.c &.*.Y H Z J ` K G L =.M ..N Q  .b } P a a -.;.. . ",
". . >.,.$.& '.&.).Y !.Z p ` ~.G L =.M ..N Q  .{.].^./.Q N (.. . ",
". _.:.<.[.}.'.}.).Y !.Z p ` ~.G |.=.v ..P Q 1.2.3.4.5.6.P t 7.. ",
". 8.9.0.o a.'.}.).b.!.c.p r ~.t |.=.v ..P Q d.e.f.g.h.i.w ..j.. ",
"k.l.9.m.n.a.o.}.p.b.I c.p r ~.t |.u v q.P a r.s.t.u.v.w.v ..x.y.",
"z.A.9.P B.a.o.}.p.b.I c.q r s t o u w q.P a C.D.E.F.G.H.O w u I.",
"J.K.V ).B.L.o.*.p.H I J q r s t o u w q.O a b M.N.O.P.g X t M Q.",
"R.K.S.T.n.L.o.*.p.H I J q K s L o M w N O a b 0 y U.X g f o M V.",
"W.K.X.Y.n.L.&.*.Y H Z J ` K G L o M w N O  .b } y x X Z.f M M `.",
" +K..+T.n.'.&.).Y H Z J ` K G L =.M ..N Q  .b } y x X Z.f v M c.",
"++K.@+T.n.'.&.).Y !.Z p ` ~.G L =.M ..N Q  .#+} $+x %+Z.& w M Z ",
"&+K.^ T.a.'.}.).b.!.Z p ` ~.G |.=.v ..P Q h #+c $+x %+Z.& M M *+",
"=+K.:.n.a.'.}.).b.!.c.p r ~.t |.u v ..P Q h #+c $+d %+9 & |.M -+",
";+>+,+!.a.o.}.p.b.I c.p r ~.t |.u v q.P a h 0 c U.d %+9 %+L M '+",
")+9.9.y L.o.}.p.b.I c.q r s t o u w q.P a h 0 c U.d g 9 O ..u !+",
"+ ~+9.{+o.o.*.p.H I J q K s t o u w q.O a b 0 y U.X g 9 =...]+^+",
". /+9.<.O &.*.p.H I J q K s L o M w N O  .b 0 y U.X g a q.q.(+. ",
". j _+:+5 !.*.Y H Z J ` K G L o M w N O  .b } y x X d u O |.<+. ",
". . [+0.0.@+Y Y H Z J ` K G L =.M ..N Q  .#+} y x X w  .O }+. . ",
". . 2 |+0.V e H !.Z p ` ~.G |.=.M ..N Q  .#+} $+x w b  .-.;.. . ",
". . . ' 1+2+%.3+p c.p ` ~.G |.=.v ..P Q h #+c } v 0 #++.7.. . . ",
". . . . 4+5+%.6+] N q r ~.t |.u v q.P Q h #+N O U.c R 7.. . . . ",
". . . . . 7+8+W 9+:._ a t t |.u v q.P N O h X %+U.0+a+. . . . . ",
". . . . . . 2 b+c+d+e+n f+g+%+$+c y U.e 3+e 9 b h+;.. . . . . . ",
". . . . . . . . i+j+k+l+7 m+f+X.F .+n+g+3+0 o+S . . . . . . . . ",
". . . . . . . . . . k.p+q+r+s+[ f t+u+v+w+x+. . . . . . . . . . "};
