/* XPM */
static const char * knob7_xpm[] = {
"32 32 251 2",
"  	c None",
". 	c #A8B5A4",
"+ 	c #A5B2A1",
"@ 	c #9AA397",
"# 	c #838881",
"$ 	c #717571",
"% 	c #696A68",
"& 	c #636463",
"* 	c #676766",
"= 	c #6C6D6C",
"- 	c #797C79",
"; 	c #898E87",
"> 	c #9EA69B",
", 	c #A7B3A3",
"' 	c #A2AD9E",
") 	c #81877F",
"! 	c #5B5C5B",
"~ 	c #494949",
"{ 	c #4C4C4C",
"] 	c #4E4E4E",
"^ 	c #515151",
"/ 	c #545454",
"( 	c #575757",
"_ 	c #5A5A5A",
": 	c #5D5D5D",
"< 	c #626262",
"[ 	c #747474",
"} 	c #91968F",
"| 	c #A5B0A2",
"1 	c #868C83",
"2 	c #4F504F",
"3 	c #414141",
"4 	c #444444",
"5 	c #484848",
"6 	c #676767",
"7 	c #787878",
"8 	c #858585",
"9 	c #838383",
"0 	c #7F7F7F",
"a 	c #767676",
"b 	c #6E6E6E",
"c 	c #646464",
"d 	c #979D95",
"e 	c #A8B4A4",
"f 	c #A2AE9E",
"g 	c #696C68",
"h 	c #3E3E3E",
"i 	c #3F3F3F",
"j 	c #464646",
"k 	c #686868",
"l 	c #959595",
"m 	c #A6A6A6",
"n 	c #A9A9A9",
"o 	c #A7A7A7",
"p 	c #A4A4A4",
"q 	c #A2A2A2",
"r 	c #A0A0A0",
"s 	c #9E9E9E",
"t 	c #9B9B9B",
"u 	c #949494",
"v 	c #828282",
"w 	c #6B6B6B",
"x 	c #6F6F6F",
"y 	c #898C89",
"z 	c #A6B1A3",
"A 	c #A0AC9D",
"B 	c #575957",
"C 	c #3A3A3A",
"D 	c #5B5B5B",
"E 	c #989898",
"F 	c #AEAEAE",
"G 	c #ACACAC",
"H 	c #AAAAAA",
"I 	c #A8A8A8",
"J 	c #A5A5A5",
"K 	c #A3A3A3",
"L 	c #A1A1A1",
"M 	c #9F9F9F",
"N 	c #9D9D9D",
"O 	c #969696",
"P 	c #939393",
"Q 	c #717171",
"R 	c #727272",
"S 	c #838483",
"T 	c #A6B0A3",
"U 	c #A3AFA0",
"V 	c #393939",
"W 	c #3D3D3D",
"X 	c #AFAFAF",
"Y 	c #ADADAD",
"Z 	c #ABABAB",
"` 	c #9C9C9C",
" .	c #999999",
"..	c #979797",
"+.	c #919191",
"@.	c #8C8C8C",
"#.	c #777777",
"$.	c #878887",
"%.	c #A8B3A4",
"&.	c #6B6F6A",
"*.	c #373737",
"=.	c #3B3B3B",
"-.	c #7B7B7B",
";.	c #B1B1B1",
">.	c #B0B0B0",
",.	c #9A9A9A",
"'.	c #929292",
").	c #909090",
"!.	c #8D8D8D",
"~.	c #7A7A7A",
"{.	c #949693",
"].	c #8A9288",
"^.	c #383838",
"/.	c #707070",
"(.	c #B2B2B2",
"_.	c #8E8E8E",
":.	c #8A8A8A",
"<.	c #8B8B8B",
"[.	c #7C7C7C",
"}.	c #A2A7A0",
"|.	c #4C4D4C",
"1.	c #363636",
"2.	c #525252",
"3.	c #8F8F8F",
"4.	c #898989",
"5.	c #878787",
"6.	c #808080",
"7.	c #A8B3A5",
"8.	c #343434",
"9.	c #B3B3B3",
"0.	c #888888",
"a.	c #868686",
"b.	c #848484",
"c.	c #A1A59F",
"d.	c #A6B3A2",
"e.	c #515251",
"f.	c #353535",
"g.	c #939493",
"h.	c #A9B5A5",
"i.	c #868585",
"j.	c #655251",
"k.	c #5E4240",
"l.	c #725D5D",
"m.	c #888787",
"n.	c #AAB2A8",
"o.	c #7F857D",
"p.	c #553836",
"q.	c #4C1E1B",
"r.	c #702B2A",
"s.	c #8A3736",
"t.	c #8B5757",
"u.	c #A4A8A2",
"v.	c #6A6E68",
"w.	c #4B4B4B",
"x.	c #7F7A79",
"y.	c #451C18",
"z.	c #6B2928",
"A.	c #A7504D",
"B.	c #DB8380",
"C.	c #C85E5B",
"D.	c #8F8C8C",
"E.	c #9FA19E",
"F.	c #5B5D5A",
"G.	c #807C7C",
"H.	c #4F201D",
"I.	c #853635",
"J.	c #DD8C8A",
"K.	c #FFEDEC",
"L.	c #E8918E",
"M.	c #8D8B8B",
"N.	c #585957",
"O.	c #636363",
"P.	c #664543",
"Q.	c #8C3837",
"R.	c #D97A77",
"S.	c #F8B5B3",
"T.	c #AC7877",
"U.	c #595A58",
"V.	c #666666",
"W.	c #818080",
"X.	c #816565",
"Y.	c #98605F",
"Z.	c #91706F",
"`.	c #797979",
" +	c #9D9E9D",
".+	c #616360",
"++	c #7E7E7E",
"@+	c #A0A1A0",
"#+	c #70746F",
"$+	c #3C3C3C",
"%+	c #4F4F4F",
"&+	c #818181",
"*+	c #7D7D7D",
"=+	c #A5A7A4",
"-+	c #868C84",
";+	c #434343",
">+	c #AAAEA9",
",+	c #9DA79A",
"'+	c #454545",
")+	c #AFB7AC",
"!+	c #A6B3A3",
"~+	c #5E5F5D",
"{+	c #424242",
"]+	c #757575",
"^+	c #AAB6A7",
"/+	c #888E87",
"(+	c #474747",
"_+	c #ABAFAA",
":+	c #595959",
"<+	c #ADB7AA",
"[+	c #8F968D",
"}+	c #4A4A4A",
"|+	c #6D6D6D",
"1+	c #AEB3AD",
"2+	c #A7B4A4",
"3+	c #767975",
"4+	c #505050",
"5+	c #A7A8A6",
"6+	c #AAB6A6",
"7+	c #A5B1A2",
"8+	c #6B6C6A",
"9+	c #9E9F9E",
"0+	c #ADB7A9",
"a+	c #A4AFA0",
"b+	c #6D6F6D",
"c+	c #555555",
"d+	c #585858",
"e+	c #696969",
"f+	c #9B9C9A",
"g+	c #ACB6A9",
"h+	c #A5B0A1",
"i+	c #7A7D7A",
"j+	c #5C5C5C",
"k+	c #606060",
"l+	c #9EA09E",
"m+	c #ABB6A8",
"n+	c #91988F",
"o+	c #6A6B6A",
"p+	c #A7ACA5",
"q+	c #A9B6A5",
"r+	c #A6B1A2",
"s+	c #777877",
"t+	c #6A6A6A",
"u+	c #A3A7A2",
"v+	c #ABB5A8",
"w+	c #A2AA9F",
"x+	c #939892",
"y+	c #959694",
"z+	c #9EA39D",
"A+	c #AAB1A7",
"B+	c #A9B5A6",
". . . . . . . . . . + @ # $ % & * = - ; > , . . . . . . . . . . ",
". . . . . . . . ' ) ! ~ ~ { ] ^ / ( _ : < [ } | . . . . . . . . ",
". . . . . . , 1 2 3 4 5 / 6 7 8 9 0 a b c c 6 a d e . . . . . . ",
". . . . . f g h i j k l m n o p q r s t u v b w x y z . . . . . ",
". . . . A B C h D E F G H I J K L M N t E O P v Q R S T . . . . ",
". . . U B V W Q G X Y Z n m p q r s `  ...l P +.@.#.a $.%.. . . ",
". . . &.*.=.-.;.>.F G H o J K L M N ,.E O u '.).!.!.-.~.{.. . . ",
". . ].^.^./.(.;.X Y Z I m p q r s t  ...l P )._.@.:.<.[.0 }.. . ",
". U |.1.2.Y (.>.F G n o J K L s ` ,.E O u +.3.!.<.4.5.4.6.<.7.. ",
". ) 8.V +.9.;.X Y H I m p q M N t  ...l '.)._.@.:.0.8 4.a.b.c.. ",
"d.e.f./ >.(.>.Y Z n o J K r s ` ,.E O P +.3.!.<.4.a.b.v @.8 g.h.",
"@ V *.9 9.;.F G H I m p L M N t  ...u '.)._.@.:.i.j.k.l.m.5.4.n.",
"o.f.h m (.X Y Z n o J q r s ` ,.E l P +.3.!.<.0.p.q.r.s.t._.:.u.",
"v.1.w.;.>.F G H I m K L M N t  .O u '.)._.<.4.x.y.z.A.B.C.D.<.E.",
"F.*.D ;.X Y Z n m p q r s `  ...l P +.3.@.:.0.G.H.I.J.K.L.M.@.s ",
"N.^.O.>.F G H o J K L M N ,.E O u '.).!.<.4.5.8 P.Q.R.S.T.@.!.N ",
"U.V V.X Y Z I m p q r s t  ...l P +._.@.:.0.a.b.W.X.Y.Z.`._.3. +",
".+=.D F G n o J K L M ` ,.E O u '.3.!.<.4.5.8 v 6.++[.~.#.+.).@+",
"#+$+%+n H I m p q r N t  ...l P )._.@.:.0.8 9 &+0 *+-.7 a u +.=+",
"-+W ;+` n o J K L s ` ,.E O P +.3.!.<.4.a.b.v 6.++[.`.#.7 ..'.>+",
",+'+3 &+I m p L M N t  ...u '.)._.@.:.5.8 9 &+0 *+~.7 a 0.+.u )+",
"!+~+{+D J J q r s ` ,.E l P +.3.!.<.0.a.b.v 6.++-.`.#.]+l +.M ^+",
". /+;+(+<.K L M N t  .O u '.)._.@.4.5.8 9 &+0 [.~.7 a 9 u '._+. ",
". U _ (+:+` r s ` ,...l P +.3.!.:.0.a.b.v 0 *+-.`.#.7 O +.N <+. ",
". . [+}+w.|+s N ,.E O u '.).!.<.4.5.8 9 6.++[.~.7 a '.3.P 1+. . ",
". . 2+3+{ 4+~.t  ...l P +._.@.:.0.a.b.&+0 *+-.`.#.3.3.).5+6+. . ",
". . . 7+8+^ / #...O u '.3.!.<.4.5.8 v 6.++[.~.-.P !._.9+0+. . . ",
". . . . a+b+c+d+e+_.P )._.@.:.0.a.9 &+0 *+-.a.'.:.@.f+g+. . . . ",
". . . . . h+i+:+j+k+#.:.).<.4.5.b.v 6.b.@.3.0.0.<.l+m+. . . . . ",
". . . . . . e n+o+k+O.V./.*+v 8 0.:.:.a.6.9 a.+.p+q+. . . . . . ",
". . . . . . . . r+} s+k t+|+x R ]+7 -.++v +.u+v+. . . . . . . . ",
". . . . . . . . . . e w+x+y 8 b.5.!.y+z+A+B+. . . . . . . . . . "};
