/* XPM */
static const char * knob16_xpm[] = {
"32 32 213 2",
"  	c None",
". 	c #A8B5A4",
"+ 	c #939E8F",
"@ 	c #70796D",
"# 	c #687065",
"$ 	c #656E62",
"% 	c #626B5F",
"& 	c #636C60",
"* 	c #666E63",
"= 	c #6D766A",
"- 	c #8A9486",
"; 	c #A7B4A3",
"> 	c #7B8478",
", 	c #687165",
"' 	c #6B7568",
") 	c #869282",
"! 	c #879382",
"~ 	c #869281",
"{ 	c #859281",
"] 	c #859180",
"^ 	c #84907F",
"/ 	c #83907F",
"( 	c #828E7D",
"_ 	c #6F7A6B",
": 	c #6E776B",
"< 	c #A1AD9D",
"[ 	c #838D80",
"} 	c #636B60",
"| 	c #828D7E",
"1 	c #899585",
"2 	c #899484",
"3 	c #889484",
"4 	c #879383",
"5 	c #859181",
"6 	c #83907E",
"7 	c #838F7E",
"8 	c #828F7D",
"9 	c #7E8B79",
"0 	c #5C6559",
"a 	c #A6B3A2",
"b 	c #6A7267",
"c 	c #767F73",
"d 	c #8B9687",
"e 	c #8B9686",
"f 	c #8A9586",
"g 	c #889483",
"h 	c #879282",
"i 	c #818E7C",
"j 	c #768271",
"k 	c #5F685C",
"l 	c #A0AD9D",
"m 	c #A4B1A0",
"n 	c #6B7368",
"o 	c #899385",
"p 	c #8D9788",
"q 	c #8C9788",
"r 	c #849180",
"s 	c #828F7E",
"t 	c #808D7B",
"u 	c #5E675B",
"v 	c #9BA797",
"w 	c #8E988A",
"x 	c #8D9889",
"y 	c #8A9686",
"z 	c #8A9585",
"A 	c #889383",
"B 	c #808E7B",
"C 	c #5D665A",
"D 	c #6C756A",
"E 	c #8B9587",
"F 	c #8F9A8B",
"G 	c #8E998A",
"H 	c #879183",
"I 	c #7C8478",
"J 	c #909B8D",
"K 	c #909A8C",
"L 	c #8F998B",
"M 	c #8C9787",
"N 	c #899485",
"O 	c #788574",
"P 	c #686F65",
"Q 	c #929C8E",
"R 	c #919B8D",
"S 	c #909B8C",
"T 	c #84917F",
"U 	c #5D675A",
"V 	c #9BA697",
"W 	c #8B9487",
"X 	c #929C8F",
"Y 	c #818E7D",
"Z 	c #676F64",
"` 	c #697067",
" .	c #949D90",
"..	c #939D8F",
"+.	c #8E9889",
"@.	c #8B9787",
"#.	c #616A5D",
"$.	c #A5B2A1",
"%.	c #929D8F",
"&.	c #757C72",
"*.	c #949E91",
"=.	c #919B8E",
"-.	c #8F9A8C",
";.	c #798574",
">.	c #7C8579",
",.	c #717A6E",
"'.	c #959E91",
").	c #939D90",
"!.	c #697266",
"~.	c #6C7369",
"{.	c #969F93",
"].	c #959F92",
"^.	c #949E90",
"/.	c #939C8F",
"(.	c #8D9789",
"_.	c #61695E",
":.	c #97A093",
"<.	c #6B7168",
"[.	c #97A094",
"}.	c #969F92",
"|.	c #6C7269",
"1.	c #98A195",
"2.	c #959E92",
"3.	c #5E665B",
"4.	c #6D746A",
"5.	c #98A194",
"6.	c #96A093",
"7.	c #5F675C",
"8.	c #6E766C",
"9.	c #99A296",
"0.	c #626A5F",
"a.	c #727A70",
"b.	c #99A196",
"c.	c #80877E",
"d.	c #9AA296",
"e.	c #98A094",
"f.	c #808B7C",
"g.	c #757E72",
"h.	c #6F766D",
"i.	c #9AA397",
"j.	c #646C60",
"k.	c #A3AF9F",
"l.	c #979F94",
"m.	c #6D756A",
"n.	c #747B71",
"o.	c #9BA398",
"p.	c #99A195",
"q.	c #97A293",
"r.	c #8B9288",
"s.	c #9AA297",
"t.	c #859081",
"u.	c #656B62",
"v.	c #8F9488",
"w.	c #72665D",
"x.	c #6D6158",
"y.	c #86897D",
"z.	c #5A6157",
"A.	c #5F655D",
"B.	c #9BA397",
"C.	c #959A8E",
"D.	c #7D3D3B",
"E.	c #6D2A29",
"F.	c #52201D",
"G.	c #45201C",
"H.	c #85877B",
"I.	c #96A293",
"J.	c #9CA898",
"K.	c #9E7B73",
"L.	c #BD5956",
"M.	c #B05654",
"N.	c #813533",
"O.	c #54211E",
"P.	c #624E46",
"Q.	c #697166",
"R.	c #919C8E",
"S.	c #61685F",
"T.	c #8E968B",
"U.	c #AD8279",
"V.	c #F9BCBA",
"W.	c #FBCCCA",
"X.	c #BB615F",
"Y.	c #722C2B",
"Z.	c #634C45",
"`.	c #8C9689",
" +	c #646B61",
".+	c #798276",
"++	c #6F756C",
"@+	c #9B9C90",
"#+	c #EDA19D",
"$+	c #FDCDCB",
"%+	c #C96865",
"&+	c #7E3332",
"*+	c #868579",
"=+	c #6E756B",
"-+	c #6E766B",
";+	c #9EAA9A",
">+	c #6C746A",
",+	c #686F66",
"'+	c #8B9388",
")+	c #9F988D",
"!+	c #B97B74",
"~+	c #A56A64",
"{+	c #91877D",
"]+	c #8C9589",
"^+	c #666D63",
"/+	c #687066",
"(+	c #869083",
"_+	c #777F74",
":+	c #6D746B",
"<+	c #6A7067",
"[+	c #686E66",
"}+	c #697066",
"|+	c #6B7369",
". . . . . . . . . . . + @ # $ % % & * = - . . . . . . . . . . . ",
". . . . . . . . ; > , ' ) ! ~ { ] ^ / ( _ % : < . . . . . . . . ",
". . . . . . . [ } | 1 2 3 4 ! ~ 5 ] ^ 6 7 8 9 0 @ . . . . . . . ",
". . . . . a b c d e f 1 2 g 4 h ~ 5 ] ^ 6 7 8 i j k l . . . . . ",
". . . . m n o p q d e f 1 2 g 4 h ~ 5 r ^ 6 s 8 i t u v . . . . ",
". . . a n w w x p q d y z 1 3 A 4 ) ~ ] r ^ 6 s 8 i B C l . . . ",
". . . D E F G w x q q d y z 1 3 A 4 ) ~ ] r ^ 6 8 ( i t u ; . . ",
". . H I J K L G w x q M d y z N 3 A ! ) ~ ] r ^ 6 8 ( i O = . . ",
". ; P Q R S K L G w x q M d y z N 3 A ! ) ~ ] T ^ 7 8 ( i U V . ",
". > W X Q R K K L G w x q M d f z 2 3 A ! ) { ] ^ / 7 8 Y t Z . ",
". `  ...Q Q R K K L G +.x q @.d f 1 2 3 4 ! ) { ] ^ / 7 8 i #.$.",
"%.&.*. ...Q =.R K -.L G x x q d e f 1 2 3 4 ! ~ 5 ] ^ / 7 8 ;.>.",
",. .'.*.)...Q =.R K F L G x x q d e f 1 2 3 4 ! ~ 5 ] ^ 6 7 8 !.",
"~.{.].'.^.)./.Q =.R K F L G x (.q d e f 1 2 g 4 h ~ 5 ] ^ 6 7 _.",
"~.:.{.].'. .)./.Q R R K F L G x p q d e f 1 2 g 4 h ~ ] r ^ 6 k ",
"<.[.:.}.].'. .)./.Q R R K F L w x p q d y z 1 3 A 4 ) ~ ] r ^ 0 ",
"|.1.[.:.}.2.'. .).X Q R J K F G w x q q d y z 1 3 A 4 ) ~ ] r 3.",
"4.1.5.[.6.}.2.*. ...X Q R J K L G w x q M d y z N 3 A ! ) ~ ] 7.",
"8.9.1.5.[.{.}.2.*. ...X Q R S K L G w x q M d y z N 3 A ! ) ~ 0.",
"a.b.9.1.5.[.{.}.'.*. ...X Q R K K L G w x q M d f z 2 3 A ! ) # ",
"-.c.d.9.1.e.[.{.}.'.*. ...Q Q R K K L G +.x q @.d f 1 2 3 4 f.g.",
". h.i.d.9.1.e.:.{.}.'.*. ...Q =.R K -.L G x x q d e f 1 2 3 j.k.",
". >.l.i.d.b.1.[.:.{.].'.*.)...Q =.R K F L G x x q d e f 1 2 m.. ",
". $.n.o.i.9.p.1.[.:.{.].'.^.)./.Q =.R K F L G x (.q d e f # q.. ",
". . [ r.o.s.9.p.1.[.:.{.].'.^.)./.Q R R K F L G x p q d t.# . . ",
". . . u.b.o.s.9.p.1.[.:.}.].v.w.x.y.Q R R K F L w x p q z.m . . ",
". . . l A.i.B.s.9.p.1.[.:.C.D.E.F.G.H.Q R J K F G w x * I.. . . ",
". . . . J.A.b.B.s.9.1.5.[.K.L.M.N.O.P.X Q R J K L G Q.R.. . . . ",
". . . . . l S.T.i.s.9.1.5.U.V.W.X.Y.Z...X Q R S `. +q.. . . . . ",
". . . . . . . .+++1.s.9.1.@+#+$+%+&+*+ ...X =.=+-+m . . . . . . ",
". . . . . . . . ;+>+,+'+9.1.)+!+~+{+'.*.]+^+/+I.. . . . . . . . ",
". . . . . . . . . . ; (+_+:+<+[+,+` }+|+c k.. . . . . . . . . . "};
