/* XPM */
static const char * knob7_xpm[] = {
"32 32 216 2",
"  	c None",
". 	c #A8B5A4",
"+ 	c #A6B3A2",
"@ 	c #8A9587",
"# 	c #6D756A",
"$ 	c #666E63",
"% 	c #616A5E",
"& 	c #5E675B",
"* 	c #5F685C",
"= 	c #6A7367",
"- 	c #727B6F",
"; 	c #869082",
"> 	c #9EAA9A",
", 	c #6B7468",
"' 	c #5B6357",
") 	c #6F796B",
"! 	c #83907E",
"~ 	c #84907F",
"{ 	c #859180",
"] 	c #869281",
"^ 	c #869282",
"/ 	c #879382",
"( 	c #889383",
"_ 	c #889484",
": 	c #798375",
"< 	c #5F665C",
"[ 	c #697267",
"} 	c #9AA697",
"| 	c #A7B4A3",
"1 	c #788275",
"2 	c #5F685B",
"3 	c #808D7B",
"4 	c #828F7E",
"5 	c #859181",
"6 	c #899485",
"7 	c #8A9585",
"8 	c #8A9686",
"9 	c #8A9586",
"0 	c #747D71",
"a 	c #9FAB9B",
"b 	c #5C6459",
"c 	c #788473",
"d 	c #828E7D",
"e 	c #828F7D",
"f 	c #849180",
"g 	c #879383",
"h 	c #899484",
"i 	c #8B9687",
"j 	c #8C9788",
"k 	c #656C62",
"l 	c #9AA696",
"m 	c #9CA898",
"n 	c #555D52",
"o 	c #7F8C7A",
"p 	c #818E7C",
"q 	c #838F7E",
"r 	c #889483",
"s 	c #899585",
"t 	c #8C9787",
"u 	c #8D9889",
"v 	c #8E988A",
"w 	c #8E998A",
"x 	c #687065",
"y 	c #95A192",
"z 	c #A2AE9E",
"A 	c #83907F",
"B 	c #8B9686",
"C 	c #8E9889",
"D 	c #8F998B",
"E 	c #909A8C",
"F 	c #666E64",
"G 	c #656E62",
"H 	c #8D9788",
"I 	c #909A8D",
"J 	c #5F665D",
"K 	c #7E887B",
"L 	c #737F6E",
"M 	c #8F9A8B",
"N 	c #919B8D",
"O 	c #929B8E",
"P 	c #8B9487",
"Q 	c #6D766B",
"R 	c #A2AF9E",
"S 	c #616B5E",
"T 	c #919B8E",
"U 	c #929C8E",
"V 	c #939D8F",
"W 	c #6D756B",
"X 	c #94A091",
"Y 	c #7E8B79",
"Z 	c #909B8D",
"` 	c #939C8F",
" .	c #939D90",
"..	c #949E90",
"+.	c #6A7267",
"@.	c #596256",
"#.	c #8F9A8C",
"$.	c #929C8F",
"%.	c #949D90",
"&.	c #959E91",
"*.	c #676D64",
"=.	c #8E998B",
"-.	c #6A7566",
";.	c #90998C",
">.	c #67564E",
",.	c #4E2722",
"'.	c #693D39",
").	c #8A7B72",
"!.	c #8A9387",
"~.	c #7D877A",
"{.	c #6F786D",
"].	c #808D7C",
"^.	c #8B9787",
"/.	c #695A52",
"(.	c #481D1A",
"_.	c #6F2B29",
":.	c #943F3D",
"<.	c #A24543",
"[.	c #989388",
"}.	c #6E766B",
"|.	c #6C7669",
"1.	c #573D36",
"2.	c #602522",
"3.	c #9C4846",
"4.	c #E79996",
"5.	c #EC9491",
"6.	c #A78278",
"7.	c #6A7268",
"8.	c #646D60",
"9.	c #66534B",
"0.	c #732C2B",
"a.	c #BF6361",
"b.	c #FFE5E4",
"c.	c #FCC3C1",
"d.	c #A59186",
"e.	c #697067",
"f.	c #60695D",
"g.	c #8C9185",
"h.	c #7A403D",
"i.	c #B04D4A",
"j.	c #E58683",
"k.	c #C08C84",
"l.	c #98A195",
"m.	c #6B7269",
"n.	c #949E91",
"o.	c #969E92",
"p.	c #978F84",
"q.	c #9B978B",
"r.	c #99A195",
"s.	c #71786F",
"t.	c #636C61",
"u.	c #959F92",
"v.	c #969F93",
"w.	c #97A094",
"x.	c #98A194",
"y.	c #99A296",
"z.	c #72786F",
"A.	c #677065",
"B.	c #97A093",
"C.	c #9AA296",
"D.	c #6D746B",
"E.	c #70796E",
"F.	c #959E92",
"G.	c #969F92",
"H.	c #9AA397",
"I.	c #95A091",
"J.	c #697365",
"K.	c #9AA297",
"L.	c #8D958A",
"M.	c #7F897C",
"N.	c #5E655B",
"O.	c #9BA397",
"P.	c #6F756D",
"Q.	c #A5B1A1",
"R.	c #838E7E",
"S.	c #6E766C",
"T.	c #A1AE9E",
"U.	c #60685D",
"V.	c #9BA398",
"W.	c #6E746C",
"X.	c #99A596",
"Y.	c #808A7D",
"Z.	c #7C8678",
"`.	c #8F978C",
" +	c #70786E",
".+	c #676F64",
"++	c #889384",
"@+	c #60665E",
"#+	c #A3B09F",
"$+	c #5E665C",
"%+	c #676D65",
"&+	c #9FAC9C",
"*+	c #8C9687",
"=+	c #71786E",
"-+	c #6C7469",
";+	c #858E81",
">+	c #949C91",
",+	c #70776D",
"'+	c #848E81",
")+	c #6C746A",
"!+	c #8D978A",
"~+	c #98A094",
"{+	c #99A196",
"]+	c #70776E",
"^+	c #798176",
"/+	c #757E72",
"(+	c #697167",
"_+	c #7E877B",
":+	c #848C81",
"<+	c #8D988A",
"[+	c #686F66",
"}+	c #686F65",
"|+	c #6B7369",
"1+	c #6F776D",
"2+	c #879184",
"3+	c #A6B2A2",
". . . . . . . . . . + @ # $ % & * * = - ; + . . . . . . . . . . ",
". . . . . . . . > , ' ) ! ~ { ] ^ / ( _ : < [ } . . . . . . . . ",
". . . . . . | 1 2 3 4 ! ~ { 5 ] / ( _ 6 7 8 9 $ 0 | . . . . . . ",
". . . . . a b c d e ! ~ f 5 ] / g _ h 7 8 i j j ; k l . . . . . ",
". . . . m n o p e q ~ f { ] ^ g r h s 9 i t j u v w x y . . . . ",
". . . z b 3 p e q A ~ { ] ^ / ( _ s 9 B i j u C w D E F l . . . ",
". . . G o p e 4 ! ~ { 5 ] / ( _ 6 7 8 i j H u w D E E I J + . . ",
". . K L p d e ! ~ f 5 ] / g _ h 7 8 i t j u v D M E N O P Q . . ",
". R S p p e q ~ f { ] ^ g r h s 9 i t j u v w M E N T U V W X . ",
". - Y p e q A ~ { ] ^ / ( _ s 9 B i j u C w D E Z N U `  ...+.. ",
"| @.p d 4 ! ~ { 5 ] / ( _ 6 7 8 i j H u w D #.E N U $.V %.&.*.z ",
"=.-.d e ! ~ f { ] / g _ h 7 9 i t j u v D M E N T ;.>.,.'.).!.~.",
"{.].e q ~ f { ] ^ g r h s 9 i ^.j u v w M E N T U /.(._.:.<.[.}.",
"|.e q A ~ { ] ^ / ( _ s 9 B i j u u w D E Z N U ` 1.2.3.4.5.6.7.",
"8.4 ! ~ { 5 ] / ( _ 6 7 8 i j H u w D #.E N U $.V 9.0.a.b.c.d.e.",
"f.! ~ f { ] / g _ h 7 9 i t j u v D M E N T U V %.g.h.i.j.k.l.m.",
"f.~ f { ] ^ g r h s 9 i ^.j u v w M E N N U `  .n.&.o.p.q.l.r.s.",
"t.~ { ] ^ / ( _ s 9 B i j u u w D E Z N U `  ...&.u.v.w.x.l.y.z.",
"A.{ 5 ] / g _ 6 7 8 i j H u w D #.E N U $.V %.&.u.v.B.w.l.y.C.D.",
"E.~ ] / g _ h s 9 i t j u v D M E N T U V %.n.F.G.B.w.l.r.y.H.# ",
"I.J.^ g r h s 9 B ^.j u v w M E N N U `  .n.&.G.v.w.x.r.y.K.L.M.",
"| N./ ( _ s 9 B i j u u w D E Z N U `  ...&.u.v.w.x.l.y.K.O.P.Q.",
". E.R._ 6 7 8 i j H u w D #.E N U $.V %.&.u.v.B.w.l.y.C.H.K.S.. ",
". T.U.h s 9 i t j u v D M E N T U V %.n.F.G.B.w.l.r.y.H.V.W.X.. ",
". . Y.Z.9 B ^.j u v w M E N N U `  .n.&.G.v.w.x.r.y.K.V.`. +. . ",
". . . .+++i j u u w D E Z N U `  ...&.u.v.w.x.l.y.K.O.V.@+| . . ",
". . . #+$+i H u w D #.E N U $.V %.&.u.v.B.w.l.y.C.H.V.%+l . . . ",
". . . . &+< *+v D M E N T U V %.n.F.G.B.w.l.r.y.H.O.=+} . . . . ",
". . . . . T.-+;+D E N N U `  .n.&.G.v.w.x.r.y.K.>+,+a . . . . . ",
". . . . . . . '+)+!+N U `  ...&.u.v.B.~+l.y.{+]+^+| . . . . . . ",
". . . . . . . . z /+(+_+V %.&.u.v.B.w.l.:+e.S.m . . . . . . . . ",
". . . . . . . . . . . <+0 }.[+}+[+(+|+1+2+3+. . . . . . . . . . "};
