/* XPM */
static const char * knob26_xpm[] = {
"32 32 246 2",
"  	c None",
". 	c #A8B5A4",
"+ 	c #A9B6A5",
"@ 	c #AFB8AC",
"# 	c #AAB0A9",
"$ 	c #A3A7A2",
"% 	c #9EA09E",
"& 	c #9B9C9B",
"* 	c #9A9B9A",
"= 	c #9FA19E",
"- 	c #A4AAA3",
"; 	c #AAB3A8",
"> 	c #ABB7A8",
", 	c #AEB3AC",
"' 	c #A3A4A3",
") 	c #949494",
"! 	c #8F8F8F",
"~ 	c #8E8E8E",
"{ 	c #8C8C8C",
"] 	c #8A8A8A",
"^ 	c #888888",
"/ 	c #868686",
"( 	c #858585",
"_ 	c #838383",
": 	c #848484",
"< 	c #919190",
"[ 	c #A1A69F",
"} 	c #A9B4A5",
"| 	c #A9B5A5",
"1 	c #AEB5AC",
"2 	c #A1A1A1",
"3 	c #929292",
"4 	c #909090",
"5 	c #959595",
"6 	c #8D8D8D",
"7 	c #7E7E7E",
"8 	c #7D7D7D",
"9 	c #7B7B7B",
"0 	c #A2A8A0",
"a 	c #A8B4A4",
"b 	c #ABB6A7",
"c 	c #A9ABA8",
"d 	c #919191",
"e 	c #969696",
"f 	c #7F7F7F",
"g 	c #767676",
"h 	c #777777",
"i 	c #787878",
"j 	c #797979",
"k 	c #7A7A7A",
"l 	c #7C7C7C",
"m 	c #919391",
"n 	c #A8B3A4",
"o 	c #ACB7A9",
"p 	c #A4A6A4",
"q 	c #939393",
"r 	c #989898",
"s 	c #757575",
"t 	c #808080",
"u 	c #828282",
"v 	c #727272",
"w 	c #707070",
"x 	c #848584",
"y 	c #A7B1A3",
"z 	c #AAB5A6",
"A 	c #A4A5A3",
"B 	c #818181",
"C 	c #898989",
"D 	c #6E6E6E",
"E 	c #6C6C6C",
"F 	c #808280",
"G 	c #A7B3A4",
"H 	c #A5A8A4",
"I 	c #878787",
"J 	c #6A6A6A",
"K 	c #676767",
"L 	c #878A87",
"M 	c #AAB2A9",
"N 	c #8B8B8B",
"O 	c #656565",
"P 	c #99A097",
"Q 	c #A9B5A6",
"R 	c #9B9B9B",
"S 	c #717171",
"T 	c #606060",
"U 	c #6D6D6D",
"V 	c #A6B2A3",
"W 	c #A8ADA6",
"X 	c #8C8483",
"Y 	c #AD7775",
"Z 	c #B27170",
"` 	c #8B6F6E",
" .	c #5F5F5F",
"..	c #5C5C5C",
"+.	c #8D938C",
"@.	c #918D8C",
"#.	c #D27471",
"$.	c #FFE5E4",
"%.	c #F9BFBD",
"&.	c #B44F4D",
"*.	c #806666",
"=.	c #6F6F6F",
"-.	c #5A5A5A",
";.	c #6B6C6B",
">.	c #A7B4A4",
",.	c #947575",
"'.	c #CF6865",
").	c #F4B3B0",
"!.	c #DB8A88",
"~.	c #97403F",
"{.	c #6C3A38",
"].	c #979797",
"^.	c #575757",
"/.	c #9EA79B",
"(.	c #A3A9A2",
"_.	c #806A6A",
":.	c #8F3A38",
"<.	c #9C4745",
"[.	c #883938",
"}.	c #692827",
"|.	c #573633",
"1.	c #9A9A9A",
"2.	c #595959",
"3.	c #535353",
"4.	c #8A9089",
"5.	c #9C9F9B",
"6.	c #7F7E7E",
"7.	c #623735",
"8.	c #5B2321",
"9.	c #51201D",
"0.	c #451C19",
"a.	c #6F6261",
"b.	c #999999",
"c.	c #9C9C9C",
"d.	c #505050",
"e.	c #777A76",
"f.	c #959694",
"g.	c #7F7D7C",
"h.	c #64514F",
"i.	c #614B49",
"j.	c #736867",
"k.	c #9D9D9D",
"l.	c #9E9E9E",
"m.	c #9F9F9F",
"n.	c #6B6B6B",
"o.	c #4D4D4D",
"p.	c #696A68",
"q.	c #919291",
"r.	c #A0A0A0",
"s.	c #4B4B4B",
"t.	c #606160",
"u.	c #8F8F8E",
"v.	c #A2A2A2",
"w.	c #A3A3A3",
"x.	c #484848",
"y.	c #5E5E5E",
"z.	c #8F918F",
"A.	c #A5A5A5",
"B.	c #A6A6A6",
"C.	c #464646",
"D.	c #626361",
"E.	c #919490",
"F.	c #A4A4A4",
"G.	c #A7A7A7",
"H.	c #434343",
"I.	c #6C6F6C",
"J.	c #999E97",
"K.	c #A8A8A8",
"L.	c #A9A9A9",
"M.	c #4A4A4A",
"N.	c #404040",
"O.	c #7F857E",
"P.	c #A3ACA0",
"Q.	c #747474",
"R.	c #AAAAAA",
"S.	c #ABABAB",
"T.	c #424242",
"U.	c #97A094",
"V.	c #7F807F",
"W.	c #ACACAC",
"X.	c #3D3D3D",
"Y.	c #A5B2A2",
"Z.	c #959A93",
"`.	c #ADADAD",
" +	c #AEAEAE",
".+	c #3F3F3F",
"++	c #3B3B3B",
"@+	c #7B817A",
"#+	c #AFAFAF",
"$+	c #565656",
"%+	c #3A3A3A",
"&+	c #494949",
"*+	c #A1AD9E",
"=+	c #969C94",
"-+	c #666666",
";+	c #646464",
">+	c #B0B0B0",
",+	c #B1B1B1",
"'+	c #393939",
")+	c #80867E",
"!+	c #A7B4A3",
"~+	c #80827F",
"{+	c #B2B2B2",
"]+	c #B3B3B3",
"^+	c #363636",
"/+	c #5D5F5C",
"(+	c #A5B0A1",
"_+	c #717270",
":+	c #4C4D4C",
"<+	c #9EA99B",
"[+	c #A1AB9D",
"}+	c #6C6D6C",
"|+	c #B4B4B4",
"1+	c #373737",
"2+	c #353535",
"3+	c #4B4C4B",
"4+	c #99A396",
"5+	c #A3AE9F",
"6+	c #737472",
"7+	c #545454",
"8+	c #515151",
"9+	c #3E3E3E",
"0+	c #575957",
"a+	c #A6B2A2",
"b+	c #888E87",
"c+	c #5B5B5B",
"d+	c #797F78",
"e+	c #A4B1A1",
"f+	c #A2AD9E",
"g+	c #7E837D",
"h+	c #454545",
"i+	c #414141",
"j+	c #3C3C3C",
"k+	c #383838",
"l+	c #484847",
"m+	c #727770",
"n+	c #9FAA9C",
"o+	c #A4B0A0",
"p+	c #929B90",
"q+	c #797D78",
"r+	c #636563",
"s+	c #525252",
"t+	c #4E4F4E",
"u+	c #595B59",
"v+	c #70756F",
"w+	c #8D958B",
". . . . . . . . . . + @ # $ % & * & = - ; . . . . . . . . . . . ",
". . . . . . . . > , ' ) ! ~ { ] ^ / ( _ : < [ } . . . . . . . . ",
". . . . . . | 1 2 3 4 ! 3 5 3 4 ~ 6 ~ / 7 8 9 ^ 0 a . . . . . . ",
". . . . . b c 5 d 3 e { f g h i j k l / 6 ] j g g m n . . . . . ",
". . . . o p q d r ^ s g h i j k 9 8 7 f t u ~ t v w x y . . . . ",
". . . z A 3 d 5 j g h i j k 9 l 7 f t B u _ : C _ D E F G . . . ",
". . . H d 4 3 g h i j k 9 l 7 f t B u _ : / I ^ ] ^ J K L . . . ",
". . M 3 ~ 5 i i j k 9 l 8 f t B u _ : ( I ^ C ] N 6 B O O P . . ",
". Q R ~ q l j k 9 l 8 f t B u _ : ( I ^ C ] N { 6 ~ d S T U V . ",
". W 6 6 X Y Z ` 8 7 t B u _ : ( / ^ C ] N { 6 ~ 4 d 3 6  ...+.. ",
". * ] @.#.$.%.&.*.B u _ : ( / I C ] N { 6 ~ ! d 3 q ) 5 =.-.;.>.",
"; { ^ ,.'.).!.~.{._ : ( / I C ] N { 6 ~ ! d 3 q ) 5 e ].I ^.^./.",
"(.I N _.:.<.[.}.|.( / I ^ ] N { 6 ~ ! 4 3 q ) 5 e ].r 1.].2.3.4.",
"5.: { 6.7.8.9.0.a.I ^ ] N { 6 ~ ! 4 d q ) 5 e ].r b.R c.c.O d.e.",
"f.u { _ g.h.i.j.^ C N { 6 ~ ! 4 d q ) 5 e ].r b.R c.k.l.m.n.o.p.",
"q.f N ( / I ^ C N { 6 ~ ! 4 d 3 ) 5 e ].r b.1.c.k.l.m.r.2 S s.t.",
"u.8 C I ^ C ] { 6 ~ ! 4 d 3 ) 5 e ].r b.1.c.k.l.m.r.2 v.w.S x.y.",
"z.k ^ C ] { 6 ~ ! 4 d 3 q 5 e ].r b.1.R k.l.m.r.2 v.w.A.B.E C.D.",
"E.h ( N 6 ~ ! 4 d 3 q 5 e ].r b.1.R c.l.m.r.2 v.w.F.B.G.G.-.H.I.",
"J.s 8 ~ ! 4 d 3 q ) e ].r b.1.R c.l.m.r.2 v.w.F.B.G.K.L.2 M.N.O.",
"P.Q.v 4 d 3 q ) e ].r b.1.R c.k.m.r.2 v.w.F.A.G.K.L.R.S.I N.T.U.",
"a V.D : q ) 5 ].r b.1.R c.k.m.r.2 v.w.F.A.B.K.L.R.S.W.W.y.X.3.Y.",
". Z.n.=.q ].r b.1.R c.k.l.r.2 v.w.F.A.B.K.L.R.S.W.`. +q .+++@+. ",
". V s K 8 r 1.R c.k.l.r.2 v.w.F.A.B.G.L.R.S.W.`. +#+S.$+%+&+*+. ",
". . =+-+;+C c.k.l.m.2 v.w.F.A.B.G.L.R.S.W.`. +#+>+,+S '+'+)+. . ",
". . !+~+T ;+6 m.2 v.w.F.A.B.G.K.R.S.W.`. +#+>+{+]+f %+^+/+Y.. . ",
". . . (+_+..y.^ v.F.A.B.G.K.R.S.W.`. +#+>+{+]+#+g ++^+:+<+. . . ",
". . . . [+}+^.^.s k.G.K.L.S.W.`. +#+>+,+]+|+R -.1+2+3+4+. . . . ",
". . . . . 5+6+7+8+$+Q.r R.`. +#+>+,+{+>+1.J 9+^+2+0+<+. . . . . ",
". . . . . . a+b+-.o.s.s.c+n.9 t B g -+s.++1+2+.+d+e+. . . . . . ",
". . . . . . . . f+g+2.x.h+H.i+.+9+j+%+k+k+l+m+n+. . . . . . . . ",
". . . . . . . . . . o+p+q+r+s+s.M.t+u+v+w+e+. . . . . . . . . . "};
