/* XPM */
static const char * knob3_xpm[] = {
"32 32 223 2",
"  	c None",
". 	c #A8B5A4",
"+ 	c #A6B3A2",
"@ 	c #889285",
"# 	c #717A6F",
"$ 	c #6F776C",
"% 	c #6B7368",
"& 	c #6A7267",
"* 	c #6A7268",
"= 	c #676F65",
"- 	c #6C756A",
"; 	c #818A7D",
"> 	c #A3B0A0",
", 	c #A0AC9C",
"' 	c #6B7469",
") 	c #5F665C",
"! 	c #788275",
"~ 	c #8C9788",
"{ 	c #8D9889",
"] 	c #8E998A",
"^ 	c #8F9A8B",
"/ 	c #909A8C",
"( 	c #919B8D",
"_ 	c #929C8E",
": 	c #939C8F",
"< 	c #868E82",
"[ 	c #656C62",
"} 	c #6B7369",
"| 	c #9BA797",
"1 	c #636B60",
"2 	c #879283",
"3 	c #8B9686",
"4 	c #8C9787",
"5 	c #8F998B",
"6 	c #949D90",
"7 	c #949E91",
"8 	c #6C736A",
"9 	c #727B6F",
"0 	c #A7B4A3",
"a 	c #9BA798",
"b 	c #5F675C",
"c 	c #7F8A7B",
"d 	c #899484",
"e 	c #8A9585",
"f 	c #8A9686",
"g 	c #8B9687",
"h 	c #939D90",
"i 	c #858176",
"j 	c #87625C",
"k 	c #9A7870",
"l 	c #8D9186",
"m 	c #60665E",
"n 	c #99A595",
"o 	c #5A6157",
"p 	c #869281",
"q 	c #889383",
"r 	c #899585",
"s 	c #929B8E",
"t 	c #929C8F",
"u 	c #71665D",
"v 	c #5E2522",
"w 	c #98413F",
"x 	c #D6726F",
"y 	c #C87A73",
"z 	c #97A094",
"A 	c #656B62",
"B 	c #9AA696",
"C 	c #9FAB9B",
"D 	c #586055",
"E 	c #859181",
"F 	c #879382",
"G 	c #889484",
"H 	c #8A9586",
"I 	c #8E988A",
"J 	c #909B8D",
"K 	c #919B8E",
"L 	c #51322C",
"M 	c #662725",
"N 	c #B35B58",
"O 	c #FCD0CE",
"P 	c #FCC3C1",
"Q 	c #A2958A",
"R 	c #98A195",
"S 	c #9EAA9B",
"T 	c #5C6459",
"U 	c #838F7E",
"V 	c #879282",
"W 	c #879383",
"X 	c #8F9A8C",
"Y 	c #909B8C",
"Z 	c #4C2B26",
"` 	c #5E2422",
" .	c #9F4947",
"..	c #F2B1AF",
"+.	c #F4A7A5",
"@.	c #A0968B",
"#.	c #99A196",
"$.	c #656C63",
"%.	c #757F72",
"&.	c #788373",
"*.	c #859180",
"=.	c #859281",
"-.	c #869282",
";.	c #8D9789",
">.	c #8E9889",
",.	c #4C1E1B",
"'.	c #7C3130",
").	c #AB4B49",
"!.	c #B36661",
"~.	c #98A094",
"{.	c #99A296",
"].	c #8E968C",
"^.	c #727A6F",
"/.	c #5D665A",
"(.	c #84907F",
"_.	c #849180",
":.	c #899485",
"<.	c #8D9788",
"[.	c #939D8F",
"}.	c #7D7A6F",
"|.	c #735750",
"1.	c #8B6F68",
"2.	c #969D90",
"3.	c #9AA297",
"4.	c #6D746B",
"5.	c #9DA999",
"6.	c #6C7468",
"7.	c #808C7B",
"8.	c #83907F",
"9.	c #889483",
"0.	c #8B9787",
"a.	c #959F92",
"b.	c #969F93",
"c.	c #737C71",
"d.	c #A5B2A1",
"e.	c #5A6357",
"f.	c #828F7E",
"g.	c #83907E",
"h.	c #84917F",
"i.	c #9BA397",
"j.	c #6B7168",
"k.	c #879184",
"l.	c #727D6E",
"m.	c #828F7D",
"n.	c #959E92",
"o.	c #97A093",
"p.	c #98A194",
"q.	c #99A195",
"r.	c #9AA296",
"s.	c #9AA397",
"t.	c #878E84",
"u.	c #848E81",
"v.	c #818E7C",
"w.	c #949E90",
"x.	c #959E91",
"y.	c #969F92",
"z.	c #9BA398",
"A.	c #6D756A",
"B.	c #666F63",
"C.	c #6B7269",
"D.	c #5F695C",
"E.	c #697067",
"F.	c #5C6558",
"G.	c #6E756C",
"H.	c #616B5E",
"I.	c #828E7D",
"J.	c #757C72",
"K.	c #666F62",
"L.	c #818E7D",
"M.	c #787F75",
"N.	c #6B7568",
"O.	c #808E7B",
"P.	c #798176",
"Q.	c #737D70",
"R.	c #767F73",
"S.	c #6F7B6A",
"T.	c #8B9288",
"U.	c #5E675A",
"V.	c #96A093",
"W.	c #696F67",
"X.	c #697267",
"Y.	c #7F8C7A",
"Z.	c #6F786D",
"`.	c #5C6559",
" +	c #6D736A",
".+	c #9CA999",
"++	c #747E71",
"@+	c #798574",
"#+	c #8C9489",
"$+	c #747C71",
"%+	c #61695E",
"&+	c #60675E",
"*+	c #9EAB9A",
"=+	c #61685F",
"-+	c #9CA899",
";+	c #575F54",
">+	c #62685F",
",+	c #97A393",
"'+	c #5E665B",
")+	c #778272",
"!+	c #8B9487",
"~+	c #62695F",
"{+	c #9BA897",
"]+	c #778174",
"^+	c #5F685C",
"/+	c #838F7F",
"(+	c #6D746A",
"_+	c #778074",
":+	c #6D766B",
"<+	c #5D655A",
"[+	c #757F71",
"}+	c #80897D",
"|+	c #697166",
"1+	c #737C70",
"2+	c #9FAC9C",
"3+	c #899386",
"4+	c #747D71",
"5+	c #6E776B",
"6+	c #656D62",
"7+	c #666E63",
"8+	c #757E72",
"9+	c #7A8477",
"0+	c #8B9688",
". . . . . . . . . . + @ # $ % & * = % - ; > . . . . . . . . . . ",
". . . . . . . . , ' ) ! ~ { ] ^ / ( _ : < [ } | . . . . . . . . ",
". . . . . . . ! 1 2 3 4 ~ { ] 5 / ( _ : 6 7 7 8 9 0 . . . . . . ",
". . . . . a b c d e f g ~ { ] 5 / ( _ : h i j k l m a . . . . . ",
". . . . n o p q d r f g ~ { ] 5 / ( s t u v w x y z A B . . . . ",
". . . C D E F q G r H g ~ { I 5 / J K t L M N O P Q R 8 S . . . ",
". . 0 T U p V W G r H g ~ { I 5 X Y ( _ Z `  ...+.@.R #.$.0 . . ",
". . %.&.*.=.-.W G r H g ~ ;.>.] ^ / ( _ u ,.'.).!.~.R {.].^.. . ",
". C /.(._.E -.W G :.e 3 4 <.{ ] ^ / ( _ [.}.|.1.2.z R {.3.4.5.. ",
". 6.7.8._.E -.F 9.d e 3 0.~ { ] 5 / ( _ : 6 7 a.b.z R {.3.#.c.. ",
"d.e.f.g.h.*.p F q d e f g ~ { ] 5 / ( _ : h 7 a.b.z R #.3.i.j.+ ",
"k.l.m.g.(.*.p F q d r f g ~ { ] 5 / ( s t h 7 n.b.o.p.q.r.s.t.u.",
"9 v.m.g.(.*.p F q G r H g ~ { I 5 / J K t h w.x.y.o.p.q.{.s.z.A.",
"B.v.m.U (.*.p -.W G r H g ~ { I 5 X Y ( _ [.6 x.y.o.~.R {.s.z.C.",
"D.v.m.U (.*.=.-.W G r H g ~ <.>.] ^ / ( _ [.6 x.y.o.z R {.s.z.E.",
"F.v.m.U (._.E -.W G :.e 3 4 <.{ ] ^ / ( _ [.6 x.a.b.z R {.3.z.G.",
"H.v.I.U 8._.E p F 9.d e 3 0.~ { ] 5 / ( _ : 6 7 a.b.z R {.3.z.J.",
"K.v.L.f.g.h.*.p F q d e f g ~ { ] 5 / ( _ : h 7 a.b.z R #.3.i.M.",
"N.O.v.m.g.(.*.p F q d r f g ~ { ] 5 / ( K t h 7 n.b.o.p.q.r.s.P.",
"Q.O.v.m.g.(.*.p F W G r H g ~ { I 5 / J K t [.w.x.y.o.p.q.{.s.R.",
"^ S.v.m.U (.*.p -.W G r H g ~ { I 5 X Y ( _ [.6 x.y.o.~.R {.T.u.",
"0 U.v.m.U (.*.=.-.W G r H g ~ <.>.] ^ / ( _ [.6 x.y.V.z R {.W.d.",
". X.Y.m.U (._.E -.W G :.e 3 4 ~ { ] ^ / ( _ [.6 x.a.b.z R z Z.. ",
". C `.I.U 8._.E p F 9.d e 3 0.~ { ] 5 / ( _ : 6 7 a.b.z R  +.+. ",
". . ++@+f.g.h.*.p F q d e f g ~ { ] 5 / ( _ : h 7 a.b.z #+$+. . ",
". . . %+v.g.(.*.p F q d r f g ~ { ] 5 / ( K t h 7 n.y.y.&+0 . . ",
". . . *+D I.(.*.p F W G r H g ~ { I 5 / J K t [.w.x.y.=+-+. . . ",
". . . . | ;+I.*.p -.W G r H g ~ { I 5 ^ Y ( _ [.6 6 >+,+. . . . ",
". . . . . , '+)+=.-.W G r H g ~ <.>.] ^ / ( _ [.!+~+{+. . . . . ",
". . . . . . 0 ]+^+/+W G d e 3 4 ~ { ] ^ / ( / (+_+0 . . . . . . ",
". . . . . . . . , :+<+[+G e 3 0.~ { ] 5 }+|+1+2+. . . . . . . . ",
". . . . . . . . . . + 3+4+5+% 6+7+A.8+9+0+0 . . . . . . . . . . "};
