/* XPM */
static const char * knob21_xpm[] = {
"32 32 215 2",
"  	c None",
". 	c #A8B5A4",
"+ 	c #939E8F",
"@ 	c #757E72",
"# 	c #727B70",
"$ 	c #70786D",
"% 	c #6E766C",
"& 	c #6E766B",
"* 	c #778074",
"= 	c #7D877A",
"- 	c #97A393",
"; 	c #A4B1A0",
"> 	c #646B62",
", 	c #757C72",
"' 	c #929B8E",
") 	c #939D90",
"! 	c #929C8F",
"~ 	c #919B8D",
"{ 	c #909A8C",
"] 	c #8F998B",
"^ 	c #8D9889",
"/ 	c #747D71",
"( 	c #656D62",
"_ 	c #808A7D",
": 	c #656B63",
"< 	c #8E978B",
"[ 	c #969F92",
"} 	c #959E91",
"| 	c #949D90",
"1 	c #939D8F",
"2 	c #929C8E",
"3 	c #919B8E",
"4 	c #909B8D",
"5 	c #8E988A",
"6 	c #8C9788",
"7 	c #869082",
"8 	c #80897C",
"9 	c #687066",
"0 	c #81897E",
"a 	c #97A094",
"b 	c #969F93",
"c 	c #959F92",
"d 	c #8F9A8B",
"e 	c #8E998A",
"f 	c #8B9687",
"g 	c #8A9586",
"h 	c #7C8678",
"i 	c #666E63",
"j 	c #A0AD9D",
"k 	c #A1AD9D",
"l 	c #61685F",
"m 	c #939B90",
"n 	c #98A195",
"o 	c #949E91",
"p 	c #939C8F",
"q 	c #8C9787",
"r 	c #8B9686",
"s 	c #899485",
"t 	c #869181",
"u 	c #596157",
"v 	c #9CA898",
"w 	c #A3B0A0",
"x 	c #626960",
"y 	c #979F94",
"z 	c #99A195",
"A 	c #98A194",
"B 	c #97A093",
"C 	c #8A9686",
"D 	c #8A9585",
"E 	c #899484",
"F 	c #889483",
"G 	c #869281",
"H 	c #586056",
"I 	c #A0AC9C",
"J 	c #6C746A",
"K 	c #99A296",
"L 	c #899585",
"M 	c #889383",
"N 	c #879382",
"O 	c #84907F",
"P 	c #5F665C",
"Q 	c #A7B4A3",
"R 	c #8A9288",
"S 	c #9AA297",
"T 	c #8E9889",
"U 	c #889484",
"V 	c #879383",
"W 	c #879282",
"X 	c #778272",
"Y 	c #778174",
"Z 	c #A6B3A2",
"` 	c #737A71",
" .	c #9BA397",
"..	c #9AA296",
"+.	c #869282",
"@.	c #859281",
"#.	c #859180",
"$.	c #5D655A",
"%.	c #7E877B",
"&.	c #969E93",
"*.	c #9AA397",
"=.	c #859181",
"-.	c #849180",
";.	c #818E7D",
">.	c #6A7367",
",.	c #6C736A",
"'.	c #9BA398",
").	c #83907E",
"!.	c #5B6358",
"~.	c #929E8F",
"{.	c #7A8077",
"].	c #8D9789",
"^.	c #758171",
"/.	c #828C7F",
"(.	c #99A196",
"_.	c #838F7E",
":.	c #828F7D",
"<.	c #707A6D",
"[.	c #6C7369",
"}.	c #98A094",
"|.	c #83907F",
"1.	c #828E7D",
"2.	c #656E62",
"3.	c #6A7168",
"4.	c #5E675B",
"5.	c #6E756B",
"6.	c #818E7C",
"7.	c #596255",
"8.	c #71776E",
"9.	c #5F685B",
"0.	c #6D736A",
"a.	c #636D60",
"b.	c #6D756B",
"c.	c #697366",
"d.	c #6F776C",
"e.	c #808E7B",
"f.	c #70796D",
"g.	c #8C9789",
"h.	c #858D82",
"i.	c #A18B81",
"j.	c #A05C58",
"k.	c #7F4845",
"l.	c #7B7067",
"m.	c #788573",
"n.	c #70776E",
"o.	c #A1988D",
"p.	c #EB9592",
"q.	c #DD8482",
"r.	c #8F3B3A",
"s.	c #54211E",
"t.	c #7C786D",
"u.	c #5E685B",
"v.	c #A3B09F",
"w.	c #71796E",
"x.	c #BD8B83",
"y.	c #FFE9E8",
"z.	c #F6BEBB",
"A.	c #974341",
"B.	c #57221F",
"C.	c #5E4841",
"D.	c #909B8C",
"E.	c #8F9A8C",
"F.	c #AC867D",
"G.	c #EE9593",
"H.	c #D37B79",
"I.	c #863836",
"J.	c #4E1F1C",
"K.	c #67564E",
"L.	c #8D9788",
"M.	c #626C5E",
"N.	c #949F90",
"O.	c #727B6F",
"P.	c #8D9186",
"Q.	c #A45A55",
"R.	c #903A38",
"S.	c #662725",
"T.	c #4E2C27",
"U.	c #8C9285",
"V.	c #7E8B79",
"W.	c #697266",
"X.	c #60675E",
"Y.	c #959D91",
"Z.	c #897F75",
"`.	c #817D72",
" +	c #8F978A",
".+	c #5E665B",
"++	c #A5B1A1",
"@+	c #9BA798",
"#+	c #636961",
"$+	c #5D665A",
"%+	c #949F91",
"&+	c #656C63",
"*+	c #5C6559",
"=+	c #95A091",
"-+	c #5F665D",
";+	c #8A9386",
">+	c #7F8A7A",
",+	c #596156",
"'+	c #94A091",
")+	c #6A7167",
"!+	c #646E61",
"~+	c #697267",
"{+	c #99A596",
"]+	c #6D766B",
"^+	c #697167",
"/+	c #899385",
"(+	c #818C7C",
"_+	c #5F675C",
":+	c #A3AF9F",
"<+	c #6B7368",
"[+	c #626A60",
"}+	c #626A5F",
"|+	c #6B7367",
"1+	c #6E776B",
"2+	c #9FAB9B",
". . . . . . . . . . . + @ # $ % & $ * = - . . . . . . . . . . . ",
". . . . . . . . ; @ > , ' ) ! ' ~ { ] ^ / ( / ; . . . . . . . . ",
". . . . . . . _ : < [ } | 1 2 3 4 { ] 5 ^ 6 7 ( 8 . . . . . . . ",
". . . . . ; 9 0 a b c } | 1 2 ~ { d e 5 ^ 6 f g h i j . . . . . ",
". . . . k l m n a b c o ) p 2 ~ { d e ^ 6 q r g s t u v . . . . ",
". . . w x y z A B [ } o ) ! ' ~ { ] e ^ 6 f C D E F G H I . . . ",
". . . J b K n a B [ } | 1 2 ~ 4 { ] 5 ^ 6 f C L E M N O P Q . . ",
". . 7 R S K n a b c } | 1 2 ~ { d e T ^ 6 f g L U V W G X Y . . ",
". Z `  ...z n a b c o ) p 2 ~ { ] e ^ 6 q r D s U V +.@.#.$.I . ",
". %.&.*.K z A B [ } o ) ! ' ~ { ] e ^ 6 f C D E F N G =.-.;.>.. ",
". ,.'.*.K n a B [ } | 1 2 ~ 4 { ] 5 ^ 6 f C L U M N G #.O ).!.Z ",
"~.{.'.S K n a b c } | 1 2 ~ { d e T ].6 f g L U V W G #.O ).^./.",
"$ (.*...z n a b c o ) p 2 ~ { ] e ^ 6 q r D s U V +.@.#.O _.:.<.",
"[.'.*.K z }.B [ } o ) ! 3 ~ { ] e ^ 6 f C D E F N G =.-.|._.1.2.",
"3.'.S K n a B [ } | 1 2 ~ 4 { ] 5 ^ 6 f C L U M N G #.O ).:.;.4.",
"5.'.S K n a b c } | 1 2 ~ { d e T ].6 f g L U V W G #.O ).:.6.7.",
"8.*...z n a b c o ) p 2 ~ { ] e ^ 6 q r D s U V +.@.#.O _.:.6.9.",
"0.*.K n }.B [ } o ) ! 3 ~ { ] e ^ 6 f C D E F N G =.-.|._.1.6.a.",
"b.S K n a B [ } | 1 2 ~ 4 { ] 5 ^ 6 f g L U M N G #.O ).:.;.6.c.",
"d.K K n a b c } | 1 2 ~ { d e T ].6 f g L U V +.G #.O ).:.6.e.f.",
"g.h.z A i.j.k.l.) p 2 ~ { ] e ^ 6 q r D s U V +.@.#.O _.:.6.m./.",
". n.n o.p.q.r.s.t.! 3 ~ { ] e ^ 6 f C D E M N G =.-.|._.1.6.u.v.",
". w.&.x.y.z.A.B.C.2 ~ D.E.] 5 ^ 6 f g L U M N G #.O ).:.6.e.( . ",
". v ,.F.G.H.I.J.K.2 ~ { d e ^ L.6 f g L U V +.G #.O ).:.6.M.N.. ",
". . O.P.Q.R.S.T.U.2 ~ { ] e ^ 6 q r D E U V +.@.-.O _.:.V.W.. . ",
". . Q X.Y.Z.`. +! 3 ~ { ] e ^ 6 f C D E M N G #.-.|._.1..+++. . ",
". . . @+#+} | 1 2 ~ D.E.] 5 ^ 6 f g L U M N G #.O ).:.$++ . . . ",
". . . . %+&+) p 2 ~ { d e ^ L.6 f g L U V +.G #.O _.*+d . . . . ",
". . . . . =+-+;+2 ~ { ] e ^ 6 q r D E U V +.=.-.>+,+'+. . . . . ",
". . . . . . Z d.)+{ { ] e ^ 6 f C D E M N G #.!+~+; . . . . . . ",
". . . . . . . . {+]+^+/+5 ^ 6 f g L U M (+_+2.%+. . . . . . . . ",
". . . . . . . . . . :+= f.<+[+_+P }+|+1+* 2+. . . . . . . . . . "};
