/* XPM */
static const char * knob13_xpm[] = {
"32 32 246 2",
"  	c None",
". 	c #A8B5A4",
"+ 	c #A6B2A2",
"@ 	c #97A094",
"# 	c #7C827A",
"$ 	c #646763",
"% 	c #565755",
"& 	c #4C4C4C",
"* 	c #4D4E4D",
"= 	c #555654",
"- 	c #656964",
"; 	c #7B8179",
"> 	c #A5B2A2",
", 	c #A3AFA0",
"' 	c #828880",
") 	c #555655",
"! 	c #393939",
"~ 	c #363636",
"{ 	c #383838",
"] 	c #787D77",
"^ 	c #A0AB9C",
"/ 	c #A7B4A3",
"( 	c #8D948A",
"_ 	c #525352",
": 	c #3D3D3D",
"< 	c #505050",
"[ 	c #646464",
"} 	c #6B6B6B",
"| 	c #6C6C6C",
"1 	c #656565",
"2 	c #575757",
"3 	c #464646",
"4 	c #3A3A3A",
"5 	c #4A4A49",
"6 	c #80867F",
"7 	c #A6B3A2",
"8 	c #A4B0A0",
"9 	c #737772",
"0 	c #404040",
"a 	c #3C3C3C",
"b 	c #565656",
"c 	c #808080",
"d 	c #A5A5A5",
"e 	c #B1B1B1",
"f 	c #B3B3B3",
"g 	c #B4B4B4",
"h 	c #ADADAD",
"i 	c #919191",
"j 	c #414141",
"k 	c #9FAB9C",
"l 	c #A3AF9F",
"m 	c #656664",
"n 	c #3F3F3F",
"o 	c #4E4E4E",
"p 	c #888888",
"q 	c #ACACAC",
"r 	c #AFAFAF",
"s 	c #B0B0B0",
"t 	c #B2B2B2",
"u 	c #9A9A9A",
"v 	c #606060",
"w 	c #595A59",
"x 	c #9FA99B",
"y 	c #A5B0A1",
"z 	c #676967",
"A 	c #424242",
"B 	c #A2A2A2",
"C 	c #AEAEAE",
"D 	c #7C7C7C",
"E 	c #434343",
"F 	c #5C5D5C",
"G 	c #A1AC9D",
"H 	c #797D78",
"I 	c #454545",
"J 	c #6E6E6E",
"K 	c #A6A6A6",
"L 	c #AAAAAA",
"M 	c #ABABAB",
"N 	c #878787",
"O 	c #4B4B4B",
"P 	c #6C6F6C",
"Q 	c #939B91",
"R 	c #484848",
"S 	c #6A6A6A",
"T 	c #A4A4A4",
"U 	c #A7A7A7",
"V 	c #A8A8A8",
"W 	c #A9A9A9",
"X 	c #818181",
"Y 	c #4A4A4A",
"Z 	c #888E85",
"` 	c #636463",
" .	c #9C9C9C",
"..	c #696969",
"+.	c #4D4D4D",
"@.	c #5B5B5B",
"#.	c #A2AD9E",
"$.	c #91988F",
"%.	c #848484",
"&.	c #A1A1A1",
"*.	c #A3A3A3",
"=.	c #9B9B9B",
"-.	c #838781",
";.	c #A8B4A4",
">.	c #6F716F",
",.	c #515151",
"'.	c #626262",
").	c #9D9D9D",
"!.	c #9F9F9F",
"~.	c #A0A0A0",
"{.	c #7B7B7B",
"].	c #535353",
"^.	c #656564",
"/.	c #A5B1A1",
"(.	c #A2AC9F",
"_.	c #595959",
":.	c #545454",
"<.	c #9E9E9E",
"[.	c #979797",
"}.	c #585858",
"|.	c #99A197",
"1.	c #959595",
"2.	c #686868",
"3.	c #878B85",
"4.	c #838782",
"5.	c #666666",
"6.	c #969696",
"7.	c #989898",
"8.	c #999999",
"9.	c #7A7A7A",
"0.	c #5D5D5D",
"a.	c #797B78",
"b.	c #7C7E7B",
"c.	c #5E5E5E",
"d.	c #737373",
"e.	c #868686",
"f.	c #747473",
"g.	c #7C7D7B",
"h.	c #616161",
"i.	c #797979",
"j.	c #929292",
"k.	c #939393",
"l.	c #949494",
"m.	c #8B8B8B",
"n.	c #636363",
"o.	c #727272",
"p.	c #7E807E",
"q.	c #909090",
"r.	c #8A8A8A",
"s.	c #757575",
"t.	c #838582",
"u.	c #676767",
"v.	c #8D8D8D",
"w.	c #8E8E8E",
"x.	c #8F8F8F",
"y.	c #8D918C",
"z.	c #8C8C8C",
"A.	c #838383",
"B.	c #858784",
"C.	c #9AA098",
"D.	c #6D6D6D",
"E.	c #707070",
"F.	c #898989",
"G.	c #7D7D7D",
"H.	c #6F6F6F",
"I.	c #919690",
"J.	c #A8B1A4",
"K.	c #747474",
"L.	c #717171",
"M.	c #A0A89E",
"N.	c #898988",
"O.	c #858585",
"P.	c #767676",
"Q.	c #A7B3A4",
"R.	c #A0A69F",
"S.	c #777777",
"T.	c #828282",
"U.	c #736867",
"V.	c #563B38",
"W.	c #573C3A",
"X.	c #78706F",
"Y.	c #7E7E7E",
"Z.	c #969A95",
"`.	c #A9B4A5",
" +	c #898A89",
".+	c #7F7F7F",
"++	c #756868",
"@+	c #572320",
"#+	c #5B2321",
"$+	c #53201E",
"%+	c #481F1B",
"&+	c #787171",
"*+	c #A7B2A4",
"=+	c #A5ABA3",
"-+	c #7B4D4D",
";+	c #903B3A",
">+	c #9C4645",
",+	c #8E3D3B",
"'+	c #702B2A",
")+	c #6B5553",
"!+	c #9EA39D",
"~+	c #9C9E9B",
"{+	c #915B5B",
"]+	c #D57471",
"^+	c #F6C1BF",
"/+	c #E18F8C",
"(+	c #9C4240",
"_+	c #795A59",
":+	c #959694",
"<+	c #A8B4A5",
"[+	c #AAB5A6",
"}+	c #959695",
"|+	c #837575",
"1+	c #DB7F7C",
"2+	c #FFE2E1",
"3+	c #F7AAA8",
"4+	c #AD514E",
"5+	c #8B8585",
"6+	c #A8B2A5",
"7+	c #AAB5A7",
"8+	c #989997",
"9+	c #787878",
"0+	c #7F7777",
"a+	c #A57473",
"b+	c #A67674",
"c+	c #938B8B",
"d+	c #A9B2A6",
"e+	c #A0A29F",
"f+	c #9C9D9B",
"g+	c #AAB4A6",
"h+	c #A8AEA6",
"i+	c #A7ABA5",
"j+	c #A9B5A5",
"k+	c #ABB6A8",
"l+	c #A7ACA5",
"m+	c #9D9E9D",
"n+	c #A6A9A4",
"o+	c #ABB5A8",
"p+	c #AAB6A7",
"q+	c #B0B7AD",
"r+	c #ABAFAA",
"s+	c #A7A9A6",
"t+	c #A3A4A3",
"u+	c #A5A7A5",
"v+	c #A9ADA8",
"w+	c #ADB4AA",
". . . . . . . . . . + @ # $ % & * = - ; @ > . . . . . . . . . . ",
". . . . . . . . , ' ) ! ~ ~ ~ ~ ~ ~ ~ ~ { * ] ^ . . . . . . . . ",
". . . . . . / ( _ ! ! ! : < [ } | 1 2 3 4 ! ! 5 6 7 . . . . . . ",
". . . . . 8 9 0 a a b c d e f f f g g h i 1 j : : $ k . . . . . ",
". . . . l m n n o p q r s s s e e e e t t t u v 0 0 w x . . . . ",
". . . y z A A [ B q h h h h C C C r r r r s s h D 3 E F G . . . ",
". . . H I I J K L L L L M M M q q q q h h h C C C N O 3 P 7 . . ",
". . Q O R S T U U U V V V W W W W L L L M M M M q q X Y O Z . . ",
". + ` O 2  .T T d d d K K K K U U U V V V V W W W W V ..+.@.#.. ",
". $.o o %.&.B B B *.*.*.*.T T T T d d d K K K K U U U =.b < -.. ",
";.>.,.'.).!.!.~.~.~.~.&.&.&.&.B B B *.*.*.*.T T T d d d {.].^./.",
"(._.:.X  . .).).).<.<.<.<.!.!.!.~.~.~.~.&.&.&.B B B B *.[.}.2 |.",
"$.2 _.1.u u u =.=.=.=. . . .).).).).<.<.<.!.!.!.!.~.~.~.~.2._.3.",
"4.@.5.6.[.7.7.7.7.8.8.8.u u u u =.=.=.=. . . .).).).).<.<.9.0.a.",
"b.c.d.1.1.1.1.6.6.6.[.[.[.[.7.7.7.7.8.8.8.u u u u =.=.=. .e.v f.",
"g.h.i.j.j.k.k.k.k.l.l.l.1.1.1.1.6.6.6.[.[.[.[.7.7.7.8.8.8.m.n.o.",
"p.[ D q.q.q.q.i i i j.j.j.j.k.k.k.l.l.l.l.1.1.1.6.6.6.6.[.r.5.s.",
"t.u.D v.v.w.w.w.x.x.x.x.q.q.q.i i i i j.j.j.j.k.k.k.l.l.l.N ..{.",
"y.S i.z.m.m.z.z.z.z.v.v.v.w.w.w.w.x.x.x.q.q.q.q.i i i i j.A.| B.",
"C.D.E.w.F.F.F.F.r.r.r.r.m.m.m.z.z.z.z.v.v.v.w.w.w.w.x.x.x.G.H.I.",
"J.K.L.p e.e.N N N N p p p F.F.F.F.r.r.r.m.m.m.m.z.z.z.v.x.s.d.M.",
";.N.K.A.O.%.%.%.O.O.O.e.e.e.e.N N N p p p p F.F.F.F.r.r.F.P.c Q.",
". R.S.i.v.X T.T.T.A.A.A.A.%.%.%.O.O.O.O.U.V.W.X.N N N m.Y.i.Z.. ",
". `. +9.N O..+c c c c X X X X T.T.T.A.++@+#+$+%+&+O.O.r.D %.*+. ",
". . =+.+G.x.Y.G.G.Y.Y.Y.Y..+.+.+c c c -+;+>+,+'+)+T.v.c .+!+. . ",
". . . ~+c T.q.D {.{.{.D D D G.G.G.G.Y.{+]+^+/+(+_+r.e.T.:+<+. . ",
". . . [+}+%.O.x.G.i.i.i.9.9.9.9.{.{.{.|+1+2+3+4+5+F.O.q.6+. . . ",
". . . . 7+8+N N i F.S.S.S.S.9+9+9+i.i.i.0+a+b+c+F.p k.d+. . . . ",
". . . . . 7+e+m.r.v.k.r.9.s.s.P.P.P.P.i.p x.x.m.m.f+g+. . . . . ",
". . . . . . . h+6.v.v.w.6.1.q.w.x.q.k.7.q.w.w.1.i+j+. . . . . . ",
". . . . . . . . k+l+m+i i i i i i i i i i u n+o+. . . . . . . . ",
". . . . . . . . . . p+q+r+s+t+~.!.B u+v+w+[+. . . . . . . . . . "};
