/* XPM */
static const char * knob5_xpm[] = {
"32 32 218 2",
"  	c None",
". 	c #A8B5A4",
"+ 	c #A5B2A1",
"@ 	c #838D80",
"# 	c #717A6E",
"$ 	c #6D766A",
"% 	c #656D62",
"& 	c #61695E",
"* 	c #646C61",
"= 	c #6C7569",
"- 	c #737C70",
"; 	c #858F82",
"> 	c #9FAB9B",
", 	c #6B7368",
"' 	c #5C6459",
") 	c #778173",
"! 	c #879383",
"~ 	c #889484",
"{ 	c #899585",
"] 	c #8A9586",
"^ 	c #8B9687",
"/ 	c #8C9788",
"( 	c #8D9889",
"_ 	c #8E988A",
": 	c #828C7F",
"< 	c #686F65",
"[ 	c #70786D",
"} 	c #9CA898",
"| 	c #A7B4A3",
"1 	c #757F72",
"2 	c #5D665A",
"3 	c #838F7F",
"4 	c #869281",
"5 	c #879382",
"6 	c #889383",
"7 	c #899484",
"8 	c #8A9686",
"9 	c #8F998B",
"0 	c #909A8C",
"a 	c #8F9A8C",
"b 	c #687066",
"c 	c #71796E",
"d 	c #5D645A",
"e 	c #778373",
"f 	c #849180",
"g 	c #859181",
"h 	c #869282",
"i 	c #889483",
"j 	c #8A9585",
"k 	c #8B9686",
"l 	c #8E998A",
"m 	c #919B8D",
"n 	c #929C8E",
"o 	c #899285",
"p 	c #5F665D",
"q 	c #97A393",
"r 	c #9BA697",
"s 	c #565F53",
"t 	c #818E7C",
"u 	c #84907F",
"v 	c #859180",
"w 	c #859281",
"x 	c #899485",
"y 	c #8C9787",
"z 	c #8D9788",
"A 	c #8F9A8B",
"B 	c #939C8F",
"C 	c #939D90",
"D 	c #646B62",
"E 	c #949F90",
"F 	c #9DAA9A",
"G 	c #586055",
"H 	c #818E7D",
"I 	c #83907E",
"J 	c #939D8F",
"K 	c #949D90",
"L 	c #959E91",
"M 	c #646A61",
"N 	c #99A596",
"O 	c #818D7C",
"P 	c #828F7E",
"Q 	c #83907F",
"R 	c #84917F",
"S 	c #909B8D",
"T 	c #919B8E",
"U 	c #929B8E",
"V 	c #87887D",
"W 	c #8A867B",
"X 	c #60675E",
"Y 	c #A6B3A2",
"Z 	c #747E71",
"` 	c #788574",
" .	c #828F7D",
"..	c #838F7E",
"+.	c #90988B",
"@.	c #553933",
"#.	c #5F2422",
"$.	c #883635",
"%.	c #A05954",
"&.	c #8F9287",
"*.	c #6F786D",
"=.	c #9FAC9B",
"-.	c #5C6558",
";.	c #70645B",
">.	c #4B1E1A",
",.	c #7F3332",
"'.	c #C86F6C",
").	c #EA8F8C",
"!.	c #AF8279",
"~.	c #6E756B",
"{.	c #99A595",
"].	c #7E8C79",
"^.	c #645149",
"/.	c #53201D",
"(.	c #903E3D",
"_.	c #F1B1AF",
":.	c #FFEEED",
"<.	c #C68B84",
"[.	c #97A094",
"}.	c #6E766B",
"|.	c #5E675B",
"1.	c #828E7D",
"2.	c #929C8F",
"3.	c #7E7C71",
"4.	c #51201D",
"5.	c #8B3938",
"6.	c #DD8482",
"7.	c #F2A3A0",
"8.	c #A89389",
"9.	c #98A195",
"0.	c #6F766D",
"a.	c #919C8D",
"b.	c #6C7868",
"c.	c #796D64",
"d.	c #7B403D",
"e.	c #A15450",
"f.	c #A78279",
"g.	c #98A194",
"h.	c #99A195",
"i.	c #8D958A",
"j.	c #737D70",
"k.	c #808D7B",
"l.	c #949E91",
"m.	c #959F92",
"n.	c #969F93",
"o.	c #99A196",
"p.	c #9AA296",
"q.	c #6D776A",
"r.	c #808E7B",
"s.	c #969F92",
"t.	c #96A093",
"u.	c #99A296",
"v.	c #9AA297",
"w.	c #6C736A",
"x.	c #677063",
"y.	c #949E90",
"z.	c #97A093",
"A.	c #98A094",
"B.	c #9AA397",
"C.	c #6B7269",
"D.	c #626B5F",
"E.	c #8B9787",
"F.	c #959E92",
"G.	c #70776E",
"H.	c #5C6559",
"I.	c #9BA397",
"J.	c #6C726A",
"K.	c #616A5E",
"L.	c #9BA398",
"M.	c #697067",
"N.	c #677064",
"O.	c #6D756A",
"P.	c #8B9688",
"Q.	c #6F7A6B",
"R.	c #899086",
"S.	c #5B6358",
"T.	c #6E776B",
"U.	c #808C7B",
"V.	c #788075",
"W.	c #A1AE9D",
"X.	c #787F76",
"Y.	c #A0AC9C",
"Z.	c #7A8477",
"`.	c #758071",
" +	c #939B90",
".+	c #7C8579",
"++	c #60685E",
"@+	c #909B8C",
"#+	c #686F66",
"$+	c #586056",
"%+	c #869181",
"&+	c #676D65",
"*+	c #9BA897",
"=+	c #9DA999",
"-+	c #596157",
";+	c #869182",
">+	c #656C63",
",+	c #7D8879",
"'+	c #8C9489",
")+	c #626860",
"!+	c #9CA899",
"~+	c #7D877A",
"{+	c #666E63",
"]+	c #889384",
"^+	c #949D91",
"/+	c #6B7168",
"(+	c #747C71",
"_+	c #A2AF9E",
":+	c #636B61",
"<+	c #7B8477",
"[+	c #838B7F",
"}+	c #9CA999",
"|+	c #767F73",
"1+	c #6F776C",
"2+	c #6C7469",
"3+	c #6C746A",
"4+	c #717A6F",
"5+	c #838E80",
". . . . . . . . . . + @ # $ % & & * = - ; + . . . . . . . . . . ",
". . . . . . . . > , ' ) ! ~ { ] ^ / ( _ : < [ } . . . . . . . . ",
". . . . . . | 1 2 3 4 5 6 7 { 8 ^ / ( _ 9 0 a b c | . . . . . . ",
". . . . . > d e f g h 5 i 7 j k ^ / ( l 9 0 m n o p q . . . . . ",
". . . . r s t u v w h ! ~ x ] k y z ( l A 0 m n B C D E . . . . ",
". . . F G H I u v 4 5 ! ~ { ] ^ / ( _ 9 A 0 m n J K L M N . . . ",
". . . & O P Q R v 4 5 6 7 { 8 ^ / ( _ 9 0 S T n U V W L X Y . . ",
". . Z `  ...u f g h ! i 7 j k ^ / ( l 9 0 m n +.@.#.$.%.&.*.. . ",
". =.-.t  ...u v 4 h ! ~ x ] ^ y z ( l A 0 m n ;.>.,.'.).!.~.{.. ",
". , ].t  .I u v 4 5 ! ~ { ] ^ / ( _ 9 A 0 m n ^./.(._.:.<.[.}.. ",
"| |.t 1.P Q R v 4 5 6 7 { 8 ^ / ( _ 9 0 S T 2.3.4.5.6.7.8.9.0.Y ",
"a.b.t  ...u f g h ! i 7 j k ^ / ( l 9 0 m n 2.C c.d.e.f.g.h.i.; ",
"j.k.t  ...u v 4 h ! ~ { ] ^ y z ( l A 0 m n B K l.m.n.[.9.o.p.}.",
"q.r.t  .I u v 4 5 6 ~ { ] ^ / ( _ 9 A 0 m n J K L s.t.[.9.u.v.w.",
"x.t 1.P Q R v 4 5 6 7 { 8 ^ / ( _ 9 0 m T 2.J y.L s.z.A.9.u.B.C.",
"D.t  ...u f g h ! i 7 j k E./ ( l 9 0 m n 2.C l.F.n.z.g.h.p.B.G.",
"H.t  ...u v 4 h ! ~ { ] ^ y z ( l A 0 m n B K l.m.n.[.9.u.v.I.J.",
"K.t  .I u v 4 5 6 ~ { ] ^ / ( _ 9 A 0 m n J K L s.t.[.9.u.v.L.M.",
"N.1.P Q R v 4 5 6 7 j 8 ^ / ( l 9 0 m T 2.J y.L s.z.A.9.u.B.L.C.",
"j.1...u f g h ! ~ 7 j k E./ ( l 9 0 m n B C l.F.n.z.g.h.p.B.L.O.",
"P.Q...u v 4 h ! ~ { ] ^ / z ( l A 0 m n B K l.m.n.[.9.u.v.I.R.: ",
"Y S.I u v 4 5 6 ~ { ] ^ / ( _ 9 a 0 m n J K L s.t.[.9.u.v.L.J.Y ",
". T.U.f v 4 5 6 7 j 8 ^ / ( l 9 0 m T 2.C y.L s.z.A.9.u.B.B.V.. ",
". W.' f g h ! ~ 7 j k E./ ( l 9 0 m n B C l.F.n.[.g.h.p.B.X.Y.. ",
". . Z.`.4 h ! ~ { ] ^ / z ( l A 0 m n B K l.m.n.[.9.u.v. +.+. . ",
". . . ++..5 6 ~ { ] ^ / ( _ 9 a @+m n J K L s.t.[.9.u.u.#+| . . ",
". . . W.$+%+6 7 j 8 ^ / ( l 9 0 m T 2.C y.L s.z.A.9.u.&+*+. . . ",
". . . . =+-+;+7 j k y / ( l 9 0 m n B C l.F.n.[.g.A.>+q . . . . ",
". . . . . =.* ,+] ^ / z ( l A 0 m n B K L m.n.[.'+)+!+. . . . . ",
". . . . . . . ~+{+]+/ ( _ 9 a @+m n J K L s.^+/+(+| . . . . . . ",
". . . . . . . . _+c :+<+_ 9 0 m T 2.C K [+>+O.}+. . . . . . . . ",
". . . . . . . . . . . A Z.|+1+2+3+}.c 4+5++ . . . . . . . . . . "};
