/* XPM */
static const char * knob0_xpm[] = {
"32 32 202 2",
"  	c None",
". 	c #A8B5A4",
"+ 	c #A7B4A3",
"@ 	c #838D7F",
"# 	c #6E766B",
"$ 	c #697167",
"% 	c #6B7268",
"& 	c #6A7167",
"* 	c #6A7168",
"= 	c #6E756B",
"- 	c #777F74",
"; 	c #8D988A",
"> 	c #A1AD9D",
", 	c #636A61",
"' 	c #828A7F",
") 	c #949E91",
"! 	c #959E91",
"~ 	c #939186",
"{ 	c #A0716A",
"] 	c #B17C74",
"^ 	c #9E998D",
"/ 	c #98A195",
"( 	c #99A296",
"_ 	c #868D83",
": 	c #696F66",
"< 	c #788175",
"[ 	c #676E64",
"} 	c #8E988A",
"| 	c #929C8F",
"1 	c #939D8F",
"2 	c #949D90",
"3 	c #8C9084",
"4 	c #7B3634",
"5 	c #C15F5C",
"6 	c #FCC0BE",
"7 	c #EDA19E",
"8 	c #9D9B8F",
"9 	c #9AA296",
"0 	c #979F93",
"a 	c #6C7269",
"b 	c #7B8579",
"c 	c #A0AD9D",
"d 	c #646C62",
"e 	c #858F82",
"f 	c #909B8C",
"g 	c #919B8D",
"h 	c #929C8E",
"i 	c #6A5951",
"j 	c #6F2B29",
"k 	c #B65D5A",
"l 	c #FBCCCA",
"m 	c #FCC9C7",
"n 	c #B48179",
"o 	c #98A194",
"p 	c #9AA297",
"q 	c #9AA397",
"r 	c #8C9489",
"s 	c #636960",
"t 	c #9BA798",
"u 	c #636B60",
"v 	c #8F998B",
"w 	c #909A8C",
"x 	c #909B8D",
"y 	c #66554D",
"z 	c #54211E",
"A 	c #813534",
"B 	c #B55B59",
"C 	c #C5625F",
"D 	c #A2746C",
"E 	c #97A094",
"F 	c #9BA397",
"G 	c #99A196",
"H 	c #5F655D",
"I 	c #9CA898",
"J 	c #62695F",
"K 	c #8D9889",
"L 	c #8E998A",
"M 	c #8F9A8B",
"N 	c #878A7E",
"O 	c #45201C",
"P 	c #53211E",
"Q 	c #702B2A",
"R 	c #7E3736",
"S 	c #949388",
"T 	c #97A093",
"U 	c #99A195",
"V 	c #5C6359",
"W 	c #8A9586",
"X 	c #8D9788",
"Y 	c #84857A",
"Z 	c #685850",
"` 	c #6B5B52",
" .	c #8A8B7F",
"..	c #959F92",
"+.	c #969F92",
"@.	c #9BA398",
"#.	c #636961",
"$.	c #747D71",
"%.	c #7D8779",
"&.	c #8B9687",
"*.	c #8C9788",
"=.	c #939C8F",
"-.	c #939D90",
";.	c #969F93",
">.	c #8C948A",
",.	c #80897D",
"'.	c #60685D",
").	c #8B9686",
"!.	c #8D9789",
"~.	c #919B8E",
"{.	c #949E90",
"].	c #767D73",
"^.	c #A3B09F",
"/.	c #717A6F",
"(.	c #879282",
"_.	c #899585",
":.	c #7A8377",
"<.	c #636C60",
"[.	c #889484",
"}.	c #899484",
"|.	c #8F9A8C",
"1.	c #98A094",
"2.	c #70776E",
"3.	c #828C7F",
"4.	c #768172",
"5.	c #879383",
"6.	c #8B9787",
"7.	c #8E9889",
"8.	c #929B8E",
"9.	c #878F85",
"0.	c #879284",
"a.	c #6C7569",
"b.	c #869282",
"c.	c #879382",
"d.	c #889383",
"e.	c #8A9585",
"f.	c #8C9787",
"g.	c #71796E",
"h.	c #646C61",
"i.	c #869281",
"j.	c #899485",
"k.	c #8A9686",
"l.	c #959E92",
"m.	c #626A5F",
"n.	c #859180",
"o.	c #96A093",
"p.	c #6C736A",
"q.	c #849180",
"r.	c #6B7168",
"s.	c #60695D",
"t.	c #84907F",
"u.	c #83907E",
"v.	c #889483",
"w.	c #838F7E",
"x.	c #859181",
"y.	c #6B7469",
"z.	c #828F7D",
"A.	c #6E766C",
"B.	c #748070",
"C.	c #83907F",
"D.	c #838B7F",
"E.	c #838D80",
"F.	c #616A5D",
"G.	c #818E7C",
"H.	c #859281",
"I.	c #686F65",
"J.	c #6A7367",
"K.	c #7F8C7A",
"L.	c #818E7D",
"M.	c #727B6F",
"N.	c #9EAA9A",
"O.	c #5D6659",
"P.	c #828E7D",
"Q.	c #84917F",
"R.	c #778472",
"S.	c #858E81",
"T.	c #7B8478",
"U.	c #5E675B",
"V.	c #808D7B",
"W.	c #656D63",
"X.	c #5D665A",
"Y.	c #808E7B",
"Z.	c #828F7E",
"`.	c #6C7469",
" +	c #9BA797",
".+	c #5E685B",
"++	c #6B7368",
"@+	c #9CA899",
"#+	c #778473",
"$+	c #808A7C",
"%+	c #626A60",
"&+	c #7F8C7B",
"*+	c #889384",
"=+	c #666F63",
"-+	c #757E72",
";+	c #6A7368",
">+	c #616A5E",
",+	c #758070",
"'+	c #778273",
")+	c #656D62",
"!+	c #828D7F",
"~+	c #848E81",
". . . . . . . . . . + @ # $ % & * % = - ; . . . . . . . . . . . ",
". . . . . . . . > # , ' ) ! ~ { ] ^ / ( _ : # > . . . . . . . . ",
". . . . . . . < [ } | 1 2 3 4 5 6 7 8 / ( 9 0 a b . . . . . . . ",
". . . . . c d e f g h | 1 i j k l m n o / ( p q r s c . . . . . ",
". . . . t u } v w x g h | y z A B C D E o / ( p F G H I . . . . ",
". . . c J K } L M w x g h N O P Q R S T E / U ( p F q H c . . . ",
". . . V W X K } v M w g g h Y Z `  ...+.T E / U ( p @.G #.. . . ",
". . $.%.&.*.X K L v M w g g h =.-.2 ! ..;.T E / U ( p @.>.,.. . ",
". > '.W ).&.*.!.K L v M w g ~.h =.-.{.! ..;.T E / U ( q @.].^.. ",
". /.(._.W ).&.*.K K L v M w g ~.h =.-.) ! ..;.T E / G 9 q G :.. ",
"+ <.[.}._.W ).&.*.K K L v |.w g ~.h 1 2 ) ! +.;.T 1./ ( 9 q 2.+ ",
"3.4.5.[.}._.W &.6.*.K 7.L v w w g 8.h 1 2 ) ! +.;.E 1./ ( 9 9.0.",
"a.b.c.d.[.}.e.W &.f.*.K } L v w w g h | 1 2 ) ! +.;.E o / ( p g.",
"h.i.b.c.d.[.j.e.k.&.f.*.K } L v w f g h | 1 2 ) l.+.;.E o / ( = ",
"m.n.i.b.c.d.[.j.e.k.&.f.*.K } L v w x g h | 1 2 ) l.+.o.E o / p.",
"'.q.n.i.b.5.d.[._.e.k.&.*.*.K } L M w x g h | 1 2 ! l.+.T E / r.",
"s.t.q.n.i.b.5.d.[._.e.k.&.*.*.K } v M w g g h =.-.2 ! ..+.T E * ",
"m.u.t.q.n.i.(.5.v.}._.W ).&.*.X K L v M w g g h =.-.2 ! ..;.T * ",
"<.w.u.t.n.x.i.(.5.v.}._.W ).&.*.X K L v M w g ~.h =.-.{.! ..;.* ",
"y.z.w.u.t.n.x.i.c.5.[.}._.W ).&.*.K K L v M w g ~.h 1 -.) ! ..A.",
"3.B.z.w.C.t.n.x.i.c.5.[.}._.W ).&.*.K K L v |.w g ~.h 1 2 ) D.E.",
"+ F.G.z.w.C.t.n.H.b.c.5.[.}._.W &.6.*.K 7.L v w w g h h 1 2 I.+ ",
". J.K.L.z.w.C.t.n.H.b.c.d.[.}.e.W &.f.*.K } L v w w g h | g M.. ",
". N.O.G.P.z.w.t.Q.n.i.b.c.d.[.j.e.k.&.f.*.K } L v w f g h % > . ",
". . # R.G.P.z.u.t.q.n.i.b.c.d.[.j.e.k.&.f.*.K } L v w x S.T.. . ",
". . . U.V.G.P.z.u.t.q.n.i.b.5.d.[._.e.k.&.*.*.K } L M v W.. . . ",
". . . c X.Y.G.z.Z.u.t.q.n.i.b.5.d.[._.e.k.&.*.X K } v `.c . . . ",
". . . .  +.+V.G.z.Z.u.t.q.n.i.(.5.v.}._.W ).&.*.X *.++@+. . . . ",
". . . . . c U.#+G.z.w.u.t.n.x.i.(.5.v.}._.W ).&.$+%+c . . . . . ",
". . . . . . . # X.&+z.w.u.t.n.x.i.c.5.[.}._.*+=+-+. . . . . . . ",
". . . . . . . . N.;+>+,+w.C.t.n.x.i.c.5.'+)+M.> . . . . . . . . ",
". . . . . . . . . . + !+`.<.>+s.s.<.)+a.~++ . . . . . . . . . . "};
