/* XPM */
static const char * knob18_xpm[] = {
"32 32 230 2",
"  	c None",
". 	c #A8B5A4",
"+ 	c #98A494",
"@ 	c #757E72",
"# 	c #6C756A",
"$ 	c #6D756A",
"% 	c #6B7468",
"& 	c #6B7368",
"* 	c #676F64",
"= 	c #687065",
"- 	c #6F786D",
"; 	c #919D8E",
"> 	c #A7B4A3",
", 	c #818B7E",
"' 	c #71796E",
") 	c #747D71",
"! 	c #8A9586",
"~ 	c #8C9787",
"{ 	c #8B9686",
"] 	c #899585",
"^ 	c #889484",
"/ 	c #879383",
"( 	c #859080",
"_ 	c #6A7467",
": 	c #60685D",
"< 	c #717A6E",
"[ 	c #A4B0A0",
"} 	c #889284",
"| 	c #899385",
"1 	c #8E998A",
"2 	c #8E988A",
"3 	c #8D9889",
"4 	c #8C9788",
"5 	c #8B9687",
"6 	c #889383",
"7 	c #879382",
"8 	c #869281",
"9 	c #859180",
"0 	c #7F8B7B",
"a 	c #5B6458",
"b 	c #778073",
"c 	c #A6B2A2",
"d 	c #7B8478",
"e 	c #909B8D",
"f 	c #909A8C",
"g 	c #8F998B",
"h 	c #8A9686",
"i 	c #8A9585",
"j 	c #899484",
"k 	c #889483",
"l 	c #869282",
"m 	c #859181",
"n 	c #84907F",
"o 	c #747F70",
"p 	c #5C6459",
"q 	c #9FAC9C",
"r 	c #A1AD9D",
"s 	c #656D63",
"t 	c #8E978A",
"u 	c #929C8E",
"v 	c #919B8D",
"w 	c #879282",
"x 	c #83907E",
"y 	c #818E7C",
"z 	c #5E675B",
"A 	c #99A595",
"B 	c #A3B0A0",
"C 	c #61685F",
"D 	c #939C8F",
"E 	c #939D8F",
"F 	c #8F9A8B",
"G 	c #849180",
"H 	c #83907F",
"I 	c #838F7E",
"J 	c #828E7D",
"K 	c #5A6257",
"L 	c #9EAA9A",
"M 	c #90998C",
"N 	c #949D90",
"O 	c #919B8E",
"P 	c #859281",
"Q 	c #828F7D",
"R 	c #808D7B",
"S 	c #586055",
"T 	c #7F897C",
"U 	c #7F867C",
"V 	c #959E92",
"W 	c #949E91",
"X 	c #939D90",
"Y 	c #8D9788",
"Z 	c #818E7D",
"` 	c #778473",
" .	c #727B6F",
"..	c #A6B3A2",
"+.	c #646A61",
"@.	c #969F93",
"#.	c #959F92",
"$.	c #959E91",
"%.	c #606A5D",
"&.	c #A0AD9D",
"*.	c #767E73",
"=.	c #8D968A",
"-.	c #97A093",
";.	c #969F92",
">.	c #949E90",
",.	c #929C8F",
"'.	c #7F8C7A",
").	c #707A6D",
"!.	c #686E65",
"~.	c #98A194",
"{.	c #606A5C",
"].	c #95A091",
"^.	c #787E75",
"/.	c #98A195",
"(.	c #97A094",
"_.	c #8F9A8C",
":.	c #73806F",
"<.	c #859082",
"[.	c #747D72",
"}.	c #899485",
"|.	c #808E7B",
"1.	c #6D766A",
"2.	c #6E766C",
"3.	c #99A296",
"4.	c #99A195",
"5.	c #8E9889",
"6.	c #8D9789",
"7.	c #828F7E",
"8.	c #5F685C",
"9.	c #70776D",
"0.	c #9AA297",
"a.	c #5D665A",
"b.	c #737A70",
"c.	c #9AA397",
"d.	c #98A094",
"e.	c #929B8E",
"f.	c #5B6457",
"g.	c #787F75",
"h.	c #9AA296",
"i.	c #84917F",
"j.	c #616A5D",
"k.	c #798076",
"l.	c #9BA398",
"m.	c #798176",
"n.	c #677064",
"o.	c #8D988A",
"p.	c #7E847B",
"q.	c #96A093",
"r.	c #798474",
"s.	c #676D64",
"t.	c #5E675A",
"u.	c #A3AF9F",
"v.	c #70786D",
"w.	c #969E93",
"x.	c #99A196",
"y.	c #676D65",
"z.	c #636C5F",
"A.	c #97A393",
"B.	c #798276",
"C.	c #8D948A",
"D.	c #8B867B",
"E.	c #776B62",
"F.	c #84857A",
"G.	c #818C7C",
"H.	c #666F64",
"I.	c #676E65",
"J.	c #9B776F",
"K.	c #8F3A38",
"L.	c #6F2B29",
"M.	c #491E1A",
"N.	c #6E6259",
"O.	c #586056",
"P.	c #9FAB9B",
"Q.	c #646A62",
"R.	c #989E92",
"S.	c #D5736F",
"T.	c #DE8785",
"U.	c #9B4644",
"V.	c #612523",
"W.	c #46201C",
"X.	c #919A8D",
"Y.	c #8B9787",
"Z.	c #646C61",
"`.	c #929E8F",
" +	c #97A293",
".+	c #656B63",
"++	c #999F92",
"@+	c #F4AAA8",
"#+	c #FFEAE9",
"$+	c #CD7471",
"%+	c #752E2D",
"&+	c #461D19",
"*+	c #8F978A",
"=+	c #666F63",
"-+	c #9EAB9B",
";+	c #6C736A",
">+	c #8F978C",
",+	c #D08A84",
"'+	c #F7ADAB",
")+	c #C06360",
"!+	c #762E2D",
"~+	c #60463F",
"{+	c #909B8C",
"]+	c #859081",
"^+	c #5B6258",
"/+	c #96A192",
"(+	c #6C726A",
"_+	c #979B8F",
":+	c #AB746B",
"<+	c #995854",
"[+	c #7F615A",
"}+	c #929A8D",
"|+	c #687066",
"1+	c #A4B1A0",
"2+	c #9CA999",
"3+	c #6B7369",
"4+	c #696F65",
"5+	c #899186",
"6+	c #697166",
"7+	c #6C7469",
"8+	c #97A394",
"9+	c #A3B09F",
"0+	c #7E887B",
"a+	c #6B7469",
"b+	c #686F65",
"c+	c #666D63",
"d+	c #656C63",
"e+	c #646B62",
"f+	c #666D64",
"g+	c #7C8679",
". . . . . . . . . . . + @ # $ % & * = - ; . . . . . . . . . . . ",
". . . . . . . . > , ' ) ! ~ { ! ] ^ / ( _ : < [ . . . . . . . . ",
". . . . . . . } * | 1 2 3 4 5 ! ] ^ 6 7 8 9 0 a b . . . . . . . ",
". . . . . c $ d e f g 1 3 4 5 h i j k / l m 9 n o p q . . . . . ",
". . . . r s t u v f g 1 3 4 ~ 5 ! ] ^ / w 8 9 n x y z A . . . . ",
". . . B C D E u v f F g 2 3 4 5 ! ] j 6 7 8 9 G H I J K L . . . ",
". . . s M N E u O v f g 1 3 4 5 { i j ^ / l P 9 n I Q R S > . . ",
". . T U V W X D u v f F 1 3 Y ~ 5 ! ] ^ / w 8 9 n x Q Z `  .. . ",
". ..+.@.#.$.N E u v f F g 2 3 4 5 h ] j 6 7 8 m G H I Q y %.&.. ",
". *.=.-.;.$.>.E ,.O v f g 1 3 4 5 { i j ^ / l P 9 n I Q y '.).. ",
". !.~.-.@.V W X D u v f F 1 3 Y 4 5 ! ] ^ / 7 8 9 n x Q Z y {.> ",
"].^./.(.@.#.$.N E u v f _.g 2 3 4 5 h ] j 6 7 8 m G n I Q y :.<.",
"[.(./.(.-.;.$.>.X ,.O v f g 1 3 4 ~ { i }.^ / l 8 9 n x Q y |.1.",
"2.3.4.~.(.@.V W X D u v f F 1 5.6.4 5 ! ] ^ 6 7 8 9 n x 7.J y 8.",
"9.0.3./.(.@.#.$.N E u v e f g 2 3 4 5 h i j k 7 l m G n I Q y a.",
"b.c.3./.d.-.;.$.>.X ,.e.v f g 1 3 4 ~ { ! }.^ / l 8 9 n x Q y f.",
"g.c.h.4.~.(.@.#.W N D u v f F 1 5.3 4 5 ! ] ^ 6 7 8 9 i.H 7.J j.",
"k.l.0.3./.(.@.;.$.N E u v e f g 2 3 4 5 h i j k / l m G n I Q 8.",
"m.l.c.3./.d.-.;.$.W X ,.u v f g 1 3 4 ~ { ! ] ^ / l 8 9 n x Q : ",
"@ 0.c.h.4./.(.@.#.W N D u v f F 1 2 3 4 5 ! ] ^ 6 7 8 9 i.H I n.",
"o.p.l.0.3./.(.q.;.$.N E u O e f g 1 3 4 5 { i j k / l P 9 n r.d ",
". s.l.c.3./.d.-.;.V W X ,.u v f g 1 3 Y ~ 5 ! ] ^ / w 8 9 n t.u.",
". v.w.c.h.x./.(.@.#.W N E u v f F g 2 3 4 5 h ] j 6 7 8 9 n * . ",
". u.y.l.0.3./.(.-.;.$.N E ,.O v f g 1 3 4 5 { i j ^ / l P z.A.. ",
". . B.C.c.3.4.~.-.;.D.E.F.D u v f F 1 3 Y 4 5 ! ] ^ / w G.H.. . ",
". . . I.x.h.x./.(.J.K.L.M.N.u v f F g 2 3 4 5 h ] j 6 7 O.B . . ",
". . . P.Q.0.3./.R.S.T.U.V.W.X.O v f g 1 3 4 Y.{ i j ^ Z.`.. . . ",
". . . .  +.+4.4.++@+#+$+%+&+*+u v f F 1 3 Y 4 5 ! ] =+e . . . . ",
". . . . . -+;+>+/.,+'+)+!+~+E u v {+_.g 2 3 4 5 ]+^+/+. . . . . ",
". . . . . . > @ (+_+:+<+[+}+X ,.O v f g 1 3 4 = |+1+. . . . . . ",
". . . . . . . . 2+3+4+5+#.W N D u v f F } 6+7+8+. . . . . . . . ",
". . . . . . . . . . 9+0+a+b+c+d+e+f+7+' g+B . . . . . . . . . . "};
