/* XPM */
static const char * knob8_xpm[] = {
"32 32 210 2",
"  	c None",
". 	c #A8B5A4",
"+ 	c #A7B4A3",
"@ 	c #869083",
"# 	c #6C7569",
"$ 	c #646C61",
"% 	c #626B5F",
"& 	c #5F685C",
"* 	c #61695D",
"= 	c #626A5F",
"- 	c #646D61",
"; 	c #6B7368",
"> 	c #7E887B",
", 	c #A1AD9D",
"' 	c #626B5E",
") 	c #717D6D",
"! 	c #828F7D",
"~ 	c #828F7E",
"{ 	c #83907E",
"] 	c #84907F",
"^ 	c #849180",
"/ 	c #859180",
"( 	c #869281",
"_ 	c #869282",
": 	c #798475",
"< 	c #70796D",
"[ 	c #9EAA9A",
"} 	c #757E72",
"| 	c #5A6356",
"1 	c #7E8B79",
"2 	c #818E7C",
"3 	c #838F7E",
"4 	c #879382",
"5 	c #879383",
"6 	c #889484",
"7 	c #889383",
"8 	c #636B60",
"9 	c #6F776C",
"0 	c #A4B1A0",
"a 	c #616A5E",
"b 	c #74806F",
"c 	c #899484",
"d 	c #899585",
"e 	c #8A9586",
"f 	c #818B7D",
"g 	c #5A6158",
"h 	c #9CA898",
"i 	c #A0AC9C",
"j 	c #5D665A",
"k 	c #7E8C79",
"l 	c #818E7D",
"m 	c #8B9686",
"n 	c #8B9687",
"o 	c #636A60",
"p 	c #97A293",
"q 	c #5E675B",
"r 	c #808E7B",
"s 	c #828E7D",
"t 	c #83907F",
"u 	c #859181",
"v 	c #8C9788",
"w 	c #8D9889",
"x 	c #656D63",
"y 	c #8D9788",
"z 	c #8E988A",
"A 	c #8E998A",
"B 	c #636A61",
"C 	c #A6B3A2",
"D 	c #767F73",
"E 	c #727E6E",
"F 	c #879282",
"G 	c #899485",
"H 	c #8A9585",
"I 	c #8F998B",
"J 	c #8A9486",
"K 	c #717A6E",
"L 	c #A3B09F",
"M 	c #5B6357",
"N 	c #84917F",
"O 	c #859281",
"P 	c #889483",
"Q 	c #8D9789",
"R 	c #909A8C",
"S 	c #9BA697",
"T 	c #7C8978",
"U 	c #8A9686",
"V 	c #8C9787",
"W 	c #8F9A8B",
"X 	c #909B8C",
"Y 	c #919B8D",
"Z 	c #6A7167",
"` 	c #636C60",
" .	c #909B8D",
"..	c #929C8E",
"+.	c #929C8F",
"@.	c #656B62",
"#.	c #A5B1A1",
"$.	c #6C7768",
"%.	c #939D8F",
"&.	c #8A9386",
"*.	c #798276",
"=.	c #6F786C",
"-.	c #8E9889",
";.	c #949D90",
">.	c #949E91",
",.	c #6C746A",
"'.	c #666E63",
").	c #898E81",
"!.	c #685850",
"~.	c #69564E",
"{.	c #8A8C80",
"].	c #959E91",
"^.	c #686F66",
"/.	c #636D61",
"(.	c #8F9A8C",
"_.	c #898C80",
":.	c #47231F",
"<.	c #51201D",
"[.	c #6D2A29",
"}.	c #7A3332",
"|.	c #918B80",
"1.	c #697067",
"2.	c #919B8E",
"3.	c #939C8F",
"4.	c #6E6259",
"5.	c #50201C",
"6.	c #7D3231",
"7.	c #B35A58",
"8.	c #C2615E",
"9.	c #A26A64",
"0.	c #939D90",
"a.	c #71645C",
"b.	c #6C2928",
"c.	c #AD5451",
"d.	c #F9C6C4",
"e.	c #FDC8C6",
"f.	c #B97972",
"g.	c #696F66",
"h.	c #656E63",
"i.	c #8D9185",
"j.	c #7B3937",
"k.	c #BE5B58",
"l.	c #FBC5C3",
"m.	c #F2A8A5",
"n.	c #A1968B",
"o.	c #676F64",
"p.	c #949E90",
"q.	c #959F92",
"r.	c #94968A",
"s.	c #A0746D",
"t.	c #B47F77",
"u.	c #9F998E",
"v.	c #98A195",
"w.	c #6D746A",
"x.	c #969F92",
"y.	c #96A093",
"z.	c #97A094",
"A.	c #98A194",
"B.	c #99A296",
"C.	c #757E73",
"D.	c #6E786B",
"E.	c #97A093",
"F.	c #8F968C",
"G.	c #838D80",
"H.	c #969F93",
"I.	c #9AA296",
"J.	c #788175",
"K.	c #859081",
"L.	c #99A195",
"M.	c #9AA297",
"N.	c #6A7268",
"O.	c #A5B2A1",
"P.	c #9AA397",
"Q.	c #71776F",
"R.	c #7D877A",
"S.	c #7A8477",
"T.	c #92998F",
"U.	c #757D72",
"V.	c #8B9587",
"W.	c #959E92",
"X.	c #9BA397",
"Y.	c #61685F",
"Z.	c #6A7267",
"`.	c #929B8E",
" +	c #98A094",
".+	c #99A196",
"++	c #9BA398",
"@+	c #626760",
"#+	c #626860",
"$+	c #687065",
"%+	c #818A7D",
"&+	c #90988D",
"*+	c #626960",
"=+	c #7F897C",
"-+	c #8F998C",
";+	c #777E75",
">+	c #7D867A",
",+	c #747D72",
"'+	c #7F877C",
")+	c #8A9288",
"!+	c #70766D",
"~+	c #879183",
"{+	c #6E776C",
"]+	c #6B7268",
"^+	c #6A7067",
"/+	c #6B7168",
"(+	c #6C736A",
"_+	c #6E756B",
":+	c #71796E",
"<+	c #848E81",
". . . . . . . . . . + @ # $ % & * = - ; > + . . . . . . . . . . ",
". . . . . . . . , # ' ) ! ~ { ] ^ / ( _ : % < [ . . . . . . . . ",
". . . . . . . } | 1 2 ! 3 { ] ^ / ( _ 4 5 6 7 8 9 + . . . . . . ",
". . . . . 0 a b 2 2 ! 3 { ] ^ / ( _ 4 5 6 c d e f g h . . . . . ",
". . . . i j k 2 l ! 3 { ] / / ( _ 4 7 6 c d e m n n o p . . . . ",
". . . 0 q r 2 s ! 3 t ] / u ( _ 4 7 6 c d e m n v v w x h . . . ",
". . . 8 k 2 s ! 3 t ] / u ( _ 5 7 6 c d e m n v y w z A B C . . ",
". . D E 2 s ! 3 t ] / u ( F 5 7 6 G H e n n v y w z A I J K . . ",
". L M 2 ! ! { ] N / O ( 4 5 P 6 G H e n n v Q w z A I R R ; S . ",
". K T ! ~ { ] ^ / O ( 4 5 P 6 d H U n V v w w A I W R X Y Y Z . ",
". ` ! ~ { ] ^ / ( _ 4 5 P c d H U n V v w w A I W R  .Y ..+.@.#.",
"A $.3 { ] ^ / ( _ 4 5 6 c d H U n V v w w A I W R  .Y ..+.%.&.*.",
"=.s { ] ^ / ( _ 4 5 6 c d e U n v v w -.A I W R Y Y ..+.%.;.>.,.",
"'.{ ] / / ( _ 4 7 6 c d e m n v v w z A I W R Y Y ..).!.~.{.].^.",
"/.] / u ( _ 4 7 6 c d e m n v v w z A I (.R Y Y .._.:.<.[.}.|.1.",
"% / u ( _ 5 7 6 c d e m n v y w z A I R R Y 2...3.4.5.6.7.8.9.^.",
"% u ( F 5 7 6 G H e m n v y w z A I R R Y 2...3.0.a.b.c.d.e.f.g.",
"h.( 4 5 7 6 G H e n n v Q w z A I R R Y 2...3.0.;.i.j.k.l.m.n.1.",
"o.4 5 P 6 d H U n V v w w A I W R X Y ....%.0.p.].q.r.s.t.u.v.w.",
"=._ P c d H U n V v w w A I W R  .Y ..+.%.0.p.].q.x.y.z.A.v.B.C.",
"X D.c d H U n V v w w A I W R  .Y ..+.%.;.>.].q.x.E.z.A.v.B.F.G.",
". o.d e m n v v w -.A I W R Y Y ..+.%.;.>.].q.H.E.z.A.v.B.I.1.C ",
". J.K.m n v v w z A I W R Y Y ..+.%.;.>.].q.H.E.z.v.L.B.M.B.N.. ",
". O.$ n v v w z A I (.R Y 2...3.%.;.>.].x.H.E.z.v.L.B.M.P.Q.S . ",
". . R.S.y w z A I R R Y 2...3.0.;.>.].x.H.E.z.v.L.B.M.P.T.U.. . ",
". . . x V.z A I R R Y 2...3.0.;.>.W.x.H.E.z.v.L.B.M.X.M.Y.+ . . ",
". . . 0 Z.A I R R Y `...3.0.;.].W.x.H.z. +v..+B.M.X.++@+h . . . ",
". . . . , ; z X Y ....%.0.p.].q.x.y.z.A.v..+B.M.++P.#+p . . . . ",
". . . . . 0 $+%+..+.%.0.p.].q.x.y.z.A.v.B.I.P.++&+*+h . . . . . ",
". . . . . . . =+Z -+;.>.].q.x.E.z.A.v.B.I.P.M.;+>+. . . . . . . ",
". . . . . . . . L ,+^.'+q.H.E.z.A.v.B.I.)+!+J., . . . . . . . . ",
". . . . . . . . . . + ~+{+N.]+^+/+(+_+:+<++ . . . . . . . . . . "};
