/* XPM */
static const char * knob2_xpm[] = {
"32 32 222 2",
"  	c None",
". 	c #A8B5A4",
"+ 	c #A8B4A4",
"@ 	c #889385",
"# 	c #737B70",
"$ 	c #6F776C",
"% 	c #686F65",
"& 	c #676E64",
"* 	c #666D64",
"= 	c #697066",
"- 	c #6D756A",
"; 	c #848F81",
"> 	c #A6B3A2",
", 	c #A2AE9E",
"' 	c #717A6E",
") 	c #687065",
"! 	c #7E887B",
"~ 	c #8F9A8B",
"{ 	c #909A8C",
"] 	c #919B8D",
"^ 	c #929C8E",
"/ 	c #939C8F",
"( 	c #939D90",
"_ 	c #949E91",
": 	c #959E92",
"< 	c #838B80",
"[ 	c #6D756B",
"} 	c #9FAC9B",
"| 	c #A7B4A3",
"1 	c #747D71",
"2 	c #60685E",
"3 	c #899485",
"4 	c #8D9889",
"5 	c #8E998A",
"6 	c #8F998B",
"7 	c #919B8E",
"8 	c #929C8F",
"9 	c #939D8F",
"0 	c #949D90",
"a 	c #826F66",
"b 	c #955E59",
"c 	c #A7766D",
"d 	c #969B8F",
"e 	c #696F67",
"f 	c #778074",
"g 	c #A0AC9C",
"h 	c #5D655B",
"i 	c #7D8779",
"j 	c #8B9687",
"k 	c #8C9788",
"l 	c #8E988A",
"m 	c #8F9A8C",
"n 	c #6A574F",
"o 	c #712B2A",
"p 	c #B65956",
"q 	c #F2A19E",
"r 	c #D18882",
"s 	c #98A195",
"t 	c #8D958A",
"u 	c #6C736A",
"v 	c #9FAB9B",
"w 	c #9AA596",
"x 	c #626A5F",
"y 	c #879383",
"z 	c #8A9586",
"A 	c #8D9788",
"B 	c #929B8E",
"C 	c #49231E",
"D 	c #712C2B",
"E 	c #C66C69",
"F 	c #FEE5E4",
"G 	c #F8B7B5",
"H 	c #9C9A8F",
"I 	c #99A195",
"J 	c #656B63",
"K 	c #97A293",
"L 	c #9DA999",
"M 	c #5F675C",
"N 	c #889484",
"O 	c #899484",
"P 	c #8A9585",
"Q 	c #8B9686",
"R 	c #4A2723",
"S 	c #5E2422",
"T 	c #994543",
"U 	c #E18E8B",
"V 	c #DF7C79",
"W 	c #9B9A8E",
"X 	c #99A296",
"Y 	c #9AA297",
"Z 	c #646A62",
"` 	c #9EAA9A",
" .	c #5B6258",
"..	c #869281",
"+.	c #889383",
"@.	c #899585",
"#.	c #8A9686",
"$.	c #6F635A",
"%.	c #491E1A",
"&.	c #6F2B2A",
"*.	c #923B39",
"=.	c #9E6A64",
"-.	c #97A094",
";.	c #99A196",
">.	c #9AA296",
",.	c #737C70",
"'.	c #798475",
").	c #879282",
"!.	c #8C9787",
"~.	c #818075",
"{.	c #726159",
"].	c #877970",
"^.	c #969F92",
"/.	c #97A093",
"(.	c #98A094",
"_.	c #9AA397",
":.	c #8F968C",
"<.	c #5D655A",
"[.	c #859281",
"}.	c #869282",
"|.	c #889483",
"1.	c #909B8D",
"2.	c #959E91",
"3.	c #96A093",
"4.	c #9BA398",
"5.	c #6A6F67",
"6.	c #A0AD9C",
"7.	c #818D7C",
"8.	c #859180",
"9.	c #879382",
"0.	c #959F92",
"a.	c #969F93",
"b.	c #979F94",
"c.	c #5D665A",
"d.	c #84907F",
"e.	c #676D64",
"f.	c #899385",
"g.	c #6F796B",
"h.	c #849180",
"i.	c #859181",
"j.	c #858C82",
"k.	c #858F82",
"l.	c #6B7469",
"m.	c #828F7D",
"n.	c #83907F",
"o.	c #84917F",
"p.	c #98A194",
"q.	c #646C61",
"r.	c #83907E",
"s.	c #777F75",
"t.	c #626B5F",
"u.	c #838F7E",
"v.	c #9BA397",
"w.	c #787F75",
"x.	c #646D60",
"y.	c #828E7D",
"z.	c #828F7E",
"A.	c #8D9789",
"B.	c #8E9889",
"C.	c #777E74",
"D.	c #5E675B",
"E.	c #818E7C",
"F.	c #949E90",
"G.	c #727970",
"H.	c #60695D",
"I.	c #909B8C",
"J.	c #6F766C",
"K.	c #616A5E",
"L.	c #6E756B",
"M.	c #6F786C",
"N.	c #808E7B",
"O.	c #8B9787",
"P.	c #71786E",
"Q.	c #8C9688",
"R.	c #6F7B6B",
"S.	c #848B81",
"T.	c #879184",
"U.	c #616B5E",
"V.	c #818E7D",
"W.	c #686E66",
"X.	c #A6B3A3",
"Y.	c #727C6F",
"Z.	c #7E8B79",
"`.	c #949D91",
" +	c #A4B0A0",
".+	c #5F695C",
"++	c #686E65",
"@+	c #757F73",
"#+	c #768271",
"$+	c #899186",
"%+	c #737C71",
"&+	c #586056",
"*+	c #808D7B",
"=+	c #60675E",
"-+	c #596256",
";+	c #646B62",
">+	c #9CA898",
",+	c #99A495",
"'+	c #676F65",
")+	c #98A394",
"!+	c #5C6459",
"~+	c #758171",
"{+	c #858E81",
"]+	c #676F64",
"^+	c #9FAC9C",
"/+	c #5B6458",
"(+	c #808C7C",
"_+	c #6B7268",
":+	c #7B8478",
"<+	c #A2AF9F",
"[+	c #5E665B",
"}+	c #707A6C",
"|+	c #6E766B",
"1+	c #798276",
"2+	c #A2AF9E",
"3+	c #8A9587",
"4+	c #6C756A",
"5+	c #656E63",
"6+	c #697166",
"7+	c #6A7367",
"8+	c #6A7267",
"9+	c #6F786D",
". . . . . . . . . . + @ # $ % & * % = - ; > . . . . . . . . . . ",
". . . . . . . . , ' ) ! ~ { ] ^ / ( _ : < & [ } . . . . . . . . ",
". . . . . . | 1 2 3 4 5 6 { ] 7 8 9 0 a b c d e f . . . . . . . ",
". . . . . g h i j k 4 l 6 m { ] ^ 9 n o p q r s t u v . . . . . ",
". . . . w x y z j k A 4 5 ~ { ] ^ B C D E F G H I I J K . . . . ",
". . . L M N O P Q j k 4 5 6 { ] 7 ^ R S T U V W s X Y Z ` . . . ",
". . |  ...+.O @.#.j k 4 l 6 ~ { ] ^ $.%.&.*.=.-.s ;.>.X * . . . ",
". . ,.'.).y N @.z j !.A 4 5 6 { ] ^ 8 ~.{.].^./.(.s X _.:.f . . ",
". , <.[.}.y |.O P Q j k 4 5 6 { 1.7 ^ 9 0 2.^.3.-.s X Y 4.5.6.. ",
". - 7.8...9.+.O @.z j k 4 l 5 ~ { ] ^ / 0 _ 0.a.-.s I >._.b.- . ",
"| c.d.8...}.y N @.z Q !.k 4 5 6 { ] ^ 8 ( _ 2.^./.(.s X _.4.e.| ",
"f.g.d.h.i.}.y |.O P #.j k 4 l 6 { 1.] ^ 9 0 2.^.3.-.s X Y 4.j.k.",
"l.m.n.o.8...9.+.N @.z j k 4 l 5 ~ { ] ^ / 0 _ 0.a.-.p.I >._.4.# ",
"q.m.r.d.8...}.y N 3 z Q !.k 4 5 6 { ] B 8 ( _ 2.^./.(.s X _.4.s.",
"t.m.u.d.h.i.}.9.|.O P #.j k 4 l 6 { 1.] ^ 9 0 2.^.a.-.s X Y v.w.",
"x.y.z.r.d.8...9.+.N @.z j k A.B.5 ~ { ] ^ / 0 _ 0.a.-.p.I X _.C.",
"D.E.m.r.d.8...}.y N 3 P Q !.k 4 5 6 { ] 7 8 ( F.2.^./.-.s X Y G.",
"H.E.m.u.d.h.i...9.+.O @.#.j k 4 l 6 m I.] ^ 9 0 2.0.a.-.s X Y J.",
"K.E.y.m.r.d.8...9.y N @.z j k A 4 5 ~ { ] ^ / ( _ : a./.p.I X L.",
"M.N.E.m.u.d.8.[.}.y N O P Q O.k 4 5 6 { ] 7 8 9 F.2.^./.-.s X P.",
"Q.R.E.m.u.n.h.i...9.+.O @.#.j k 4 l 6 ~ { ] ^ 9 0 2.0.a.-.s S.T.",
". U.E.V.m.r.d.8...).y N @.z j k A 4 5 ~ { ] ^ / ( _ : ^./.p.W.X.",
". Y.Z.E.m.u.d.8.[.}.y N O P Q j k 4 5 6 { ] 7 ^ 9 0 2.^./.`.[ . ",
".  +.+E.y.u.n.h.8...9.+.O @.#.j k 4 l 6 ~ { ] ^ 9 0 _ 0.a.++6.. ",
". . @+#+E.m.r.d.8...).y N @.z j !.k 4 5 6 { ] ^ 8 ( _ : $+%+. . ",
". . | &+*+m.u.d.8.[.}.y |.O P #.j k 4 5 6 { 1.7 ^ 9 0 0 =+| . . ",
". . . v -+y.u.n.o.8...9.+.N @.z j k 4 l 5 ~ { ] ^ / 0 ;+>+. . . ",
". . . . ,+M V.r.d.8...}.y N @.z Q !.k 4 5 6 { ] ^ B '+)+. . . . ",
". . . . . ` !+~+d.h.i.}.9.|.O P #.j k 4 l 6 { 1.{+]+^+. . . . . ",
". . . . . . | 1 /+(+8...9.+.N @.z j k 4 B.5 l _+:+. . . . . . . ",
". . . . . . . . <+- [+}+..y N 3 z Q !.k ! |+1+2+. . . . . . . . ",
". . . . . . . . . . | 3+4+5+q.) 6+7+8+9+3+. . . . . . . . . . . "};
