/* XPM */
static const char * pfl_off_xpm[] = {
"20 20 27 1",
" 	c None",
".	c #A8B5A4",
"+	c #A6B3A2",
"@	c #A0A69E",
"#	c #9B9B9B",
"$	c #9A9C9A",
"%	c #919191",
"&	c #7E7E7E",
"*	c #747474",
"=	c #878787",
"-	c #7B7B7B",
";	c #785F5F",
">	c #803535",
",	c #861A1A",
"'	c #880D0D",
")	c #737373",
"!	c #323131",
"~	c #626860",
"{	c #756F6F",
"]	c #803636",
"^	c #890B0B",
"/	c #5E5E5E",
"(	c #1C1B1B",
"_	c #842222",
":	c #585D56",
"<	c #3C3B3B",
"[	c #9EAA9B",
".+@##############@+.",
"+$%&************&=-+",
"@%****;>,'',>;***)!~",
"#&**{]^^^^^^^^]{**/(",
"#**{_^^^^^^^^^^_{**(",
"#**]^^^^^^^^^^^^]**(",
"#*;^^^^^^^^^^^^^^;*(",
"#*>^^^^^^^^^^^^^^>*(",
"#*,^^^^^^^^^^^^^^,*(",
"#*'^^^^^^^^^^^^^^'*(",
"#*'^^^^^^^^^^^^^^'*(",
"#*,^^^^^^^^^^^^^^,*(",
"#*>^^^^^^^^^^^^^^>*(",
"#*;^^^^^^^^^^^^^^;*(",
"#**]^^^^^^^^^^^^]**(",
"#**{_^^^^^^^^^^_{**(",
"#&**{]^^^^^^^^]{**/(",
"@%****;>,'',>;****!:",
"+<!/************/!([",
"..:((((((((((((((~[."};
