/* XPM */
static const char * pfl_on_xpm[] = {
"20 20 46 1",
" 	c None",
".	c #A8B5A4",
"+	c #A7B4A3",
"@	c #70776D",
"#	c #5C625A",
"$	c #444642",
"%	c #4F534C",
"&	c #5E645C",
"*	c #61675E",
"=	c #5A5E58",
"-	c #454843",
";	c #1C1B1B",
">	c #484848",
",	c #3F423D",
"'	c #858E82",
")	c #656C63",
"!	c #1E1E1E",
"~	c #323131",
"{	c #737373",
"]	c #747474",
"^	c #767272",
"/	c #955858",
"(	c #B04242",
"_	c #B83A3A",
":	c #525151",
"<	c #A0A69E",
"[	c #AF4242",
"}	c #F10C0C",
"|	c #FF0000",
"1	c #9B9B9B",
"2	c #7C6D6D",
"3	c #D82020",
"4	c #888888",
"5	c #50544E",
"6	c #636960",
"7	c #626860",
"8	c #62685F",
"9	c #383A36",
"0	c #61675F",
"a	c #A6B3A2",
"b	c #3E403C",
"c	c #686868",
"d	c #919191",
"e	c #A2A8A0",
"f	c #A5AEA2",
"g	c #A4B0A0",
".+@#$$$$$$$$%&***=..",
"+-;;>>>>>>>>>>>>>;,'",
")!~{]]]^/(_(/^]]]]:<",
"#;]]]][}|||||}[]]]]1",
"#>]]23|||||||||32]]4",
"#>]]3|||||||||||3]]4",
"5>][|||||||||||||[]4",
"5>^}|||||||||||||}^4",
"6>/|||||||||||||||/4",
"*>(|||||||||||||||(4",
"*>_|||||||||||||||_4",
"7>(|||||||||||||||(4",
"7>/|||||||||||||||/4",
"7>^}|||||||||||||}^4",
"8>][|||||||||||||[]4",
"9>]]3|||||||||||3]]4",
"0>]]23|||||||||32]]4",
"7;]]]][}|||||}[]]]]<",
"abc{]]]^/(_(/^]]]]de",
".f<14444444444444<eg"};
