/* XPM */
static const char * playbutton_up_on_xpm[] = {
"51 32 155 2",
"  	c None",
". 	c #565855",
"+ 	c #4E4E4E",
"@ 	c #4F4F4F",
"# 	c #505050",
"$ 	c #515151",
"% 	c #525252",
"& 	c #535353",
"* 	c #545454",
"= 	c #555555",
"- 	c #565656",
"; 	c #575757",
"> 	c #585858",
", 	c #595959",
"' 	c #5A5A5A",
") 	c #5B5B5B",
"! 	c #5C5C5C",
"~ 	c #5D5D5D",
"{ 	c #5E5E5E",
"] 	c #5F5F5F",
"^ 	c #606060",
"/ 	c #646563",
"( 	c #747973",
"_ 	c #98A394",
": 	c #6E726C",
"< 	c #616161",
"[ 	c #626262",
"} 	c #646464",
"| 	c #656565",
"1 	c #666666",
"2 	c #676767",
"3 	c #696969",
"4 	c #6A6A6A",
"5 	c #6B6B6B",
"6 	c #6D6D6D",
"7 	c #6E6E6E",
"8 	c #6F6F6F",
"9 	c #707070",
"0 	c #727272",
"a 	c #747474",
"b 	c #757575",
"c 	c #767676",
"d 	c #777777",
"e 	c #797979",
"f 	c #7A7A7A",
"g 	c #7B7B7B",
"h 	c #7C7C7C",
"i 	c #7E7E7E",
"j 	c #7F7F7F",
"k 	c #818181",
"l 	c #828282",
"m 	c #838383",
"n 	c #858585",
"o 	c #868686",
"p 	c #878787",
"q 	c #898989",
"r 	c #8A8A8A",
"s 	c #8B8B8B",
"t 	c #8C8C8C",
"u 	c #8E8E8E",
"v 	c #8F8F8F",
"w 	c #6E726D",
"x 	c #555554",
"y 	c #686868",
"z 	c #6C6C6C",
"A 	c #717171",
"B 	c #787878",
"C 	c #7D7D7D",
"D 	c #808080",
"E 	c #848484",
"F 	c #888888",
"G 	c #8D8D8D",
"H 	c #909090",
"I 	c #737373",
"J 	c #979797",
"K 	c #9D9D9D",
"L 	c #9E9E9E",
"M 	c #9C9C9C",
"N 	c #9B9B9B",
"O 	c #9A9A9A",
"P 	c #999999",
"Q 	c #989898",
"R 	c #969696",
"S 	c #959595",
"T 	c #949494",
"U 	c #939393",
"V 	c #929292",
"W 	c #919191",
"X 	c #4D4D4D",
"Y 	c #A2A2A2",
"Z 	c #A1A1A1",
"` 	c #A0A0A0",
" .	c #9F9F9F",
"..	c #8B6666",
"+.	c #C73333",
"@.	c #F45252",
"#.	c #D06868",
"$.	c #8E7474",
"%.	c #4C4C4C",
"&.	c #A3A3A3",
"*.	c #C12C2C",
"=.	c #FF3A3A",
"-.	c #FF7A7A",
";.	c #FFB6B6",
">.	c #D26A6A",
",.	c #4B4B4B",
"'.	c #A4A4A4",
").	c #F02424",
"!.	c #FF3434",
"~.	c #FF5A5A",
"{.	c #FF7B7B",
"].	c #F65454",
"^.	c #4A4A4A",
"/.	c #C31E1E",
"(.	c #FF2727",
"_.	c #FF3232",
":.	c #CC3232",
"<.	c #494949",
"[.	c #8D6262",
"}.	c #C51D1D",
"|.	c #F52222",
"1.	c #C82B2B",
"2.	c #8F6868",
"3.	c #A5A5A5",
"4.	c #474747",
"5.	c #484848",
"6.	c #A6A6A6",
"7.	c #464646",
"8.	c #454545",
"9.	c #444444",
"0.	c #A7A7A7",
"a.	c #434343",
"b.	c #A8A8A8",
"c.	c #424242",
"d.	c #414141",
"e.	c #A9A9A9",
"f.	c #404040",
"g.	c #3F3F3F",
"h.	c #AAAAAA",
"i.	c #636363",
"j.	c #3D3D3D",
"k.	c #3E3E3E",
"l.	c #ABABAB",
"m.	c #3C3C3C",
"n.	c #3B3B3B",
"o.	c #3A3A3A",
"p.	c #7C7D7C",
"q.	c #858983",
"r.	c #8A8E89",
"s.	c #A1AC9E",
"t.	c #838782",
"u.	c #6A6B6A",
"v.	c #808280",
"w.	c #8B8F8A",
"x.	c #A1AB9D",
"    . + + + @ @ # # $ $ % % % % & * * * * = - - - - ; > > , , , ' ' ) ) ) ! ! ~ ~ ~ { ] ] ] ^ ^ / ( _ ",
": # % & = - ; > ' ) ~ { ] < [ } | 1 2 3 4 5 6 7 8 9 0 a b c d e f g h i j k l m n o p q r s t u v k w ",
"x # $ & * = ; > ' ) ! ~ ] ^ < [ } | 2 y 3 5 z 6 8 9 A 0 a b d B e g h C j D k m E n o F q s t G v H 3 ",
"# @ $ % * { 3 5 z 7 7 8 9 A 0 I a b c d B e f g h C i i j D k l m m E n o o p F q q r s s s s t u v 8 ",
"# + @ % b J K L K M M N O O P Q J R R S T T U V V W H v v u G t t s r r q F p p n n E m m o s s G u 9 ",
"$ X @ > T Y Z ` `  .L K M M N O P Q J R R S T U V V W H v u G t t s r q F p p o n E m l l k E t t G 9 ",
"$ X + < L Y Y Z `  .L L K M N O P P Q J R S T T U V W H v u u G t s r r q F p o n ..+.@.#.$.l t s G A ",
"$ %.X < ` &.Y Z Z `  .L K M N N O P Q J J R S T U V W W H v u G G s s r q F p p o *.=.-.;.>.l s r t A ",
"% ,.%.] ` '.Y Y Z `  .L L K M N O O Q Q J R S T T U V W H v u u G t s r r q F p o ).!.~.{.].l q q s 0 ",
"% ^.,.~ ` '.&.Y Z Z `  .L K M N N O P Q J J R S T U V W W H v u G t t s r q F F p /.(._.=.:.l p q r 0 ",
"& <.,.! ` '.&.&.Y Z `  .L L K M N O P P Q J R S T T U V W H v v u G t s r q q F p [.}.|.1.2.l n F q 0 ",
"& <.^.' ` 3.'.&.Y Z ` `  .L K M M N O P Q J R R S T U V V H H v u G t t s r q q F p o n E m l m p q I ",
"* 4.<.> ` 3.'.&.&.Y Z `  . .K K M N O P P Q J R S T U U V W H v v u G t t s r q F p o o n E l l o p I ",
"* 4.5.- ` 6.3.'.&.Y Z ` `  .L K M M N O P Q J R R S T U V W W H v u u G t s r q q F p o n E l j n p a ",
"= 7.4.* Z 6.3.'.&.&.Y Z `  .L L K M N O P P Q J R S T T U V W H H v u G t s s r q F p p o n m C n o a ",
"= 8.4.% ` 6.3.3.'.&.Y Z Z `  .L K M N N O P Q J J R S T U V V W H v u u G t s r r F F p o n m h E n b ",
"- 9.8.# Z 0.6.3.'.'.Y Y Z `  .L L K M N O O Q Q J R S T T U V W W H v u G t s s r q F p p o m f m E b ",
"- a.8.@ ` 0.6.3.3.'.&.Y Z Z `  .L K M N N O P Q Q J R S T U U V W H v u u G t s r q q F p o m B l m c ",
"- a.9.X Z b.0.6.3.'.&.&.Y Z `  .L L K M N O O P Q J R R S T U V W H H v u G t t s r q F p o m c k m c ",
"; c.a.^.` b.0.6.6.3.'.&.Y Z ` `  .L K M M N O P P Q J R S T U U V W H v v G G t s r q q F p m a D l d ",
"; d.c.<.` e.b.0.6.3.'.&.&.Y Z `  . .L K M M O O P Q J R R S T U V W H H v u G t t s r q F p m 0 j k d ",
"> f.d.4.` e.b.0.6.6.3.'.&.Y Z ` `  .L K K M N O P Q Q J R S T U U V W H v u u G t s r q q F m 9 j D B ",
"> g.d.8.Z e.s < < < ~ ; ^ J n ^ j Q * ] i } ' ; { V k a R U e ~ ~ ~ > ; ! r I ! B j * ) c F m 8 i j B ",
", g.f.a.Z h.d E P 6.V a '. .i.Y 5 v ! i a J o a O P r l J H 9 B t V g I H E 1 u ~ j ~ 0 3 F m 6 C j B ",
", j.g.d.Z h.Z E f K V a 3.` > 9 ) H ! 3 E K o a N O s l J R t e 7 H g I W n 2 u ~ j ~ I n q E 4 h C e ",
"' j.k.g.M l.[ < l '.U a 3.` ^ W 1 H | J 7 R o b N O l a Q H { ~ g V g a W G a ! e k 2 s r q E 3 g C e ",
"' m.j.g.o l.h.h.b.b.0.6.3.3.'.&.Y Z ` `  .L K M N O O P Q J R R S T U V W H H v u G t t s r g 7 g h f ",
") n.j.k.$ m H H v v u G G G t s s r r r q F F p o o n n n E m m l l k D D j j i i C C h h 0 | d f g f ",
") o.n.j.k.j.j.g.g.f.c.c.a.8.7.4.5.<.^.,.%.X + # # % & * = - ; > , ' ) ~ { { ^ < [ i.} | 1 5 a d e f g ",
"2 o.n.m.k.g.f.d.a.9.8.4.5.<.,.%.X @ # % & * = ; > , ) ! ~ ] ^ [ i.} | 2 y 3 4 z 6 8 9 A I a b d B e p.",
"q.7.o.n.j.k.g.f.c.a.8.7.5.<.^.,.X + @ # % & = - ; , ' ) ~ { ] ^ [ i.} 1 2 3 4 5 6 7 8 A 0 I a c d e r.",
"s.t.u.1 1 2 y 3 3 4 5 5 z z 6 6 7 8 9 9 A A 0 I I a a b b c c c d d B B e e e f f g g g g h C C v.w.x."};
