/* XPM */
static const char * playbutton_up_xpm[] = {
"64 40 172 2",
"  	c None",
". 	c #C6C6C6",
"+ 	c #9B9B9B",
"@ 	c #000000",
"# 	c #A2A2A2",
"$ 	c #1C1B1B",
"% 	c #555D54",
"& 	c #565D55",
"* 	c #565E55",
"= 	c #575F56",
"- 	c #586057",
"; 	c #586158",
"> 	c #596158",
", 	c #596259",
"' 	c #5A6359",
") 	c #5A635A",
"! 	c #5B645A",
"~ 	c #5C655B",
"{ 	c #5C665C",
"] 	c #5D665C",
"^ 	c #5D675D",
"/ 	c #5E685D",
"( 	c #5E685E",
"_ 	c #5F695E",
": 	c #5F6A5F",
"< 	c #606A60",
"[ 	c #606B60",
"} 	c #616C61",
"| 	c #616D61",
"1 	c #626D62",
"2 	c #626E63",
"3 	c #636F63",
"4 	c #636F64",
"5 	c #647064",
"6 	c #647165",
"7 	c #657165",
"8 	c #657266",
"9 	c #667367",
"0 	c #677468",
"a 	c #687568",
"b 	c #687669",
"c 	c #697669",
"d 	c #69776A",
"e 	c #6A786B",
"f 	c #6B796C",
"g 	c #6B7A6C",
"h 	c #6C7A6D",
"i 	c #6C7B6E",
"j 	c #6D7C6E",
"k 	c #6D7D6F",
"l 	c #6E7D6F",
"m 	c #6E7E70",
"n 	c #6F7F70",
"o 	c #6F7F71",
"p 	c #708072",
"q 	c #708172",
"r 	c #718173",
"s 	c #718273",
"t 	c #728374",
"u 	c #738474",
"v 	c #555C54",
"w 	c #565D54",
"x 	c #575E55",
"y 	c #596258",
"z 	c #5A6259",
"A 	c #5B655B",
"B 	c #5D675C",
"C 	c #5E695E",
"D 	c #5F695F",
"E 	c #626E62",
"F 	c #636E63",
"G 	c #647065",
"H 	c #667266",
"I 	c #677467",
"J 	c #677568",
"K 	c #687569",
"L 	c #6A796C",
"M 	c #6B7A6D",
"N 	c #6C7B6D",
"O 	c #6F7E70",
"P 	c #708071",
"Q 	c #718172",
"R 	c #728274",
"S 	c #555C53",
"T 	c #8E978F",
"U 	c #8F978F",
"V 	c #8F9890",
"W 	c #909990",
"X 	c #758075",
"Y 	c #838E84",
"Z 	c #919A91",
"` 	c #879287",
" .	c #949F95",
"..	c #96A197",
"+.	c #89968B",
"@.	c #8A978B",
"#.	c #97A399",
"$.	c #7F8E80",
"%.	c #575E56",
"&.	c #E2E2E2",
"*.	c #C6C9C6",
"=.	c #C6C9C7",
"-.	c #C7C9C7",
";.	c #828D83",
">.	c #B9BEBA",
",.	c #BBC0BB",
"'.	c #BCC1BD",
").	c #BCC2BD",
"!.	c #545B53",
"~.	c #B8BCB8",
"{.	c #B9BDB9",
"].	c #909991",
"^.	c #B9BEB9",
"/.	c #69766A",
"(.	c #A0A8A1",
"_.	c #D5D6D5",
":.	c #BBC0BC",
"<.	c #BABFBB",
"[.	c #AEB4AE",
"}.	c #AFB6AF",
"|.	c #D5D7D5",
"1.	c #AFB7B0",
"2.	c #7E8D80",
"3.	c #545B52",
"4.	c #D4D5D4",
"5.	c #ABB0AB",
"6.	c #939D95",
"7.	c #7C8A7D",
"8.	c #7D8C7F",
"9.	c #545A52",
"0.	c #606A5F",
"a.	c #667366",
"b.	c #929C93",
"c.	c #95A097",
"d.	c #535A52",
"e.	c #929B93",
"f.	c #939D93",
"g.	c #728273",
"h.	c #919991",
"i.	c #848E84",
"j.	c #768377",
"k.	c #ACB3AD",
"l.	c #949E95",
"m.	c #959F96",
"n.	c #535951",
"o.	c #5B645B",
"p.	c #B7BBB8",
"q.	c #9BA29B",
"r.	c #9DA49E",
"s.	c #9FA69F",
"t.	c #BABFBA",
"u.	c #859086",
"v.	c #879489",
"w.	c #BCC1BC",
"x.	c #88958A",
"y.	c #6D7C6F",
"z.	c #525951",
"A.	c #525850",
"B.	c #586157",
"C.	c #6A796B",
"D.	c #515750",
"E.	c #616D62",
"F.	c #51574F",
"G.	c #51564F",
"H.	c #50564F",
"I.	c #50564E",
"J.	c #50554E",
"K.	c #4F554E",
"L.	c #4F544D",
"M.	c #525851",
"N.	c #4F554D",
"O.	c #4F534C",
". + + + + + + + + + + + + + + + + + + + + + + + + + + + + + + + + + + + + + + + + + + + + + + + + + + + + + + + + + + + + + + @ ",
"+ . + + + # # + + + + + + + + + + + + + + + + + + + + + + + + + + + + + + + + + + + + + + + + + + + + + + + + + + + + + + + @ $ ",
"+ + % & * = = - ; > , ' ) ! ~ { ] ^ / ( _ : < [ } | 1 2 3 4 5 6 7 8 9 9 0 a b c d e e f g h i j k l m n o p q r s t t u u u $ @ ",
"+ + v w * x = - - > y z ) ! A ~ { B ^ ( C D : [ [ } 1 E F 3 5 G 7 8 H 9 I J K b d d e L f M N i j l m O o P p Q s R t u u u $ $ ",
"+ + S % & * = = - ; > , ' ! ! ~ { ] ^ / ( _ : < [ } | 1 2 3 4 5 T U U V W X a Y Z d e e f g h i `  .l m n o ..+.r @.#.$.u u $ $ ",
"+ + S v w * %.= - - > y z ) ! A ~ { B ^ ( C D : [ } } 1 E F 3 5 &.*.U U =.-.;.>.&.d d e L f M N ,.&.l m O o &.'.Q ).&.#.u u $ $ ",
"+ + !.S % & * = = - ; > , ' ! ! ~ { ] ^ / ( _ : < [ } | 1 2 3 4 &.~.7 8 {.&.].^.&./.d e e f g (._.&.:.l m n &.'.q ).&.#.u u $ $ ",
"+ + !.S v w * %.= - - > y ' ) ! A ~ { B ^ ( C D : [ } } 1 E F 3 &.~.7 8 {.&.W ^.&.b d d e L f <.&.[.&.l m O }.|.'.|.1.2.t u $ $ ",
"+ + 3.!.v % & * = = - ; > z ' ! ! ~ { ] ^ / ( D : [ [ } | 1 2 3 &.4.~.~.4.5.X {.&.b /.d e e f <.&.6.&.k l m 7.}.&.1.8.s t u $ $ ",
"+ + 9.!.S v w * %.= - - > y ' ) ! A ~ { B ^ ( C D 0.[ } } 1 E F &.~.G 7 8 a.9 {.&.K b d d e b.&.&.&.&.&.l m O c.&...r s t t $ $ ",
"+ + d.3.!.v % & * = = - ; > z ' ! ! ~ { ] ^ / ( D : [ [ } | 1 2 &.~.5 6 7 H 9 {.&.a b /.d e e.&.f.N i &.k l m c.&...q r g.t $ $ ",
"+ + d.9.!.S v w * %.= - - > y ' ) ! A ~ { ^ ^ ( C : 0.[ } } 1 E &.~.5 G 7 8 a.{.&.].h.Z i.j.k.&.f.h N &.l.l m m.&...p r s t $ $ ",
"+ + n.d.3.!.v % & * = = - ; y z ' ! o.~ { ] ^ / ( D : [ [ } | 1 p.q.4 5 6 8 H r.{.{.^.>.s.i.t.t.u.g N ,.,.k l v.w.x.p q s g.$ $ ",
"+ + n.d.9.!.S v w * %.= - - > y ' ) ! A ~ { ^ ^ ( _ : 0.[ } } 1 E F 3 5 G 7 8 a.9 0 J K b d d e L g h N j y.l m O o P p r s $ $ ",
"+ + z.n.d.3.!.v % & * = = - > y z ' ! o.~ { ] ^ / C D : [ [ } | 1 2 3 4 5 7 8 H 9 I 0 a b /.d e e f g N i j k l m o o p Q s $ $ ",
"+ + A.n.d.9.!.S v w * %.= - B.> , ' ) ! A ~ { ^ ^ ( _ : 0.[ } } 1 E F 4 5 6 7 8 a.9 0 J K b d d e f g h N j y.l m O o P q r $ $ ",
"+ + A.z.n.d.3.!.v % & * = = - > y z ' ! o.~ { ] ^ / C D : [ [ } | 1 2 3 4 5 7 8 H 9 I 0 a b /.d e C.f M N i j k l m o o p Q $ $ ",
"+ + D.A.n.d.9.!.S v w * %.= - B.> , ' ) ! A ~ { ^ ^ ( _ : 0.[ } } 1 E F 4 5 6 7 8 a.9 0 J K b d d e f g h N j y.l m O o P q $ $ ",
"+ + D.A.z.n.d.3.!.v % & * = - - > y z ' ! o.~ { ] ^ / C D : [ [ } E.1 2 3 5 5 7 8 H 9 I 0 a b /.d e C.f M N i j k l m o P p $ $ ",
"+ + F.A.A.n.d.9.!.S v w * %.= - B.> , ' ) ! A ~ { ^ / ( _ : < [ } } 1 E F 4 5 6 7 8 a.9 0 J K b d e e f g h N j y.l m O o P $ $ ",
"+ + G.D.A.z.n.d.3.!.v % & * = - - > y z ' ! o.~ { ] ^ / C D : [ [ } E.1 2 3 5 5 7 8 H 9 I 0 a b /.d e C.f M N i j k l m o P $ $ ",
"+ + H.F.A.A.n.d.9.!.S v & * = = - B.> , ' ) ! A ~ { ^ / ( _ : < [ } } 1 E F 4 5 6 7 8 a.9 0 J K b d e e f g h N j y.l m O o $ $ ",
"+ + I.F.D.A.z.n.d.3.!.v % & x = - - > y z ' ! o.~ { B ^ ( C D : [ [ } E.1 2 3 5 5 7 8 H 9 I 0 K b d d e C.f M N i j k l m o $ $ ",
"+ + J.G.F.A.A.n.d.9.!.S v & * = = - B.> , ' ) ! A ~ ] ^ / ( _ : < [ } } 1 E 3 4 5 6 7 8 a.9 0 J K c d e e f g h N j y.l m n $ $ ",
"+ + J.I.F.D.A.z.n.d.!.!.v % & x = - - > y z ' ! o.~ { B ^ ( C D : [ [ } E.1 F 3 5 5 7 8 H 9 I 0 K b d d e C.f M N i j k l O $ $ ",
"+ + K.I.G.F.A.A.n.d.9.!.S v & * = = - B.> , ' ) ! A { ] ^ / ( _ : < [ } } 1 E 3 4 5 6 7 8 9 9 0 J b c d e e f g h N j y.l m $ $ ",
"+ + L.J.I.F.D.A.z.n.d.!.!.v % * x = - - > y z ' ! o.~ { B ^ ( C D : [ [ } E.E F 3 5 5 7 8 H 9 I 0 K b d d e C.f M N i j k m $ $ ",
"+ + L.J.I.G.F.A.M.n.d.9.!.S v & * = = - B.> , ' ) ! ~ { ] ^ / ( _ : < [ } } 1 E 3 4 5 6 7 8 9 9 0 J b c d e e f g h N j y.l $ $ ",
"+ + L.N.J.I.F.D.A.z.n.d.!.!.v w * x = - - > y z ) ! A ~ { B ^ ( C D : [ [ } 1 E F 3 5 G 7 8 H 9 I 0 K b d d e C.f M N i j l $ $ ",
"+ + O.L.J.I.G.F.A.M.n.d.9.!.S % & * = = - B.> , ' ) ! ~ { ] ^ / ( _ : < [ } | 1 2 3 4 5 6 7 8 9 9 0 a b c d e e f g h i j k $ $ ",
"+ + O.L.N.J.H.F.D.A.z.n.d.!.!.v w * x = - - > y z ) ! A ~ { B ^ ( C D : [ [ } 1 E F 3 5 G 7 8 H 9 I J K b d d e C.f M N i j $ $ ",
"+ + O.O.L.J.I.G.F.A.M.n.d.9.!.S % & * = = - ; > , ' ) ! ~ { ] ^ / ( _ : < [ } | 1 2 3 4 5 6 7 8 9 9 0 a b c d e e f g h i j $ $ ",
"+ + O.O.L.N.J.H.F.D.A.z.n.d.!.S v w * x = - - > y z ) ! A ~ { B ^ ( C D : [ } } 1 E F 3 5 G 7 8 H 9 I J K b d d e L f M N j $ $ ",
"+ + O.O.L.L.J.I.G.F.A.M.n.d.9.!.S % & * = = - ; > , ' ! ! ~ { ] ^ / ( _ : < [ } | 1 2 3 4 5 6 7 8 9 I 0 a b c d e e f g h i $ $ ",
"+ + O.O.O.L.N.J.H.F.D.A.z.n.d.!.S v w * %.= - - > y z ) ! A ~ { B ^ ( C D : [ } } 1 E F 3 5 G 7 8 H 9 I J K b d d e L f M N $ $ ",
"+ + O.O.O.L.L.J.I.G.F.A.M.n.d.3.!.S % & * = = - ; > , ' ! ! ~ { ] ^ / ( D : [ [ } | 1 2 3 4 5 6 7 8 9 I 0 a b /.d e e f g h $ $ ",
"+ + O.O.O.O.L.N.J.H.F.D.A.z.n.9.!.S v w * %.= - - > y ' ) ! A ~ { B ^ ( C D : [ } } 1 E F 3 5 G 7 8 a.9 0 J K b d d e L f M $ $ ",
"+ + O.O.O.O.L.L.J.I.G.F.A.M.n.d.3.!.v % & * = = - ; > z ' ! ! ~ { ] ^ / ( D : [ [ } | 1 2 3 4 5 6 7 H 9 I 0 a b /.d e e f g $ $ ",
"+ @ $ $ $ $ $ $ $ $ $ $ $ $ $ $ $ $ $ $ $ $ $ $ $ $ $ $ $ $ $ $ $ $ $ $ $ $ $ $ $ $ $ $ $ $ $ $ $ $ $ $ $ $ $ $ $ $ $ $ $ $ $ $ ",
"@ @ $ $ $ $ $ $ $ $ $ $ $ $ $ $ $ $ $ $ $ $ $ $ $ $ $ $ $ $ $ $ $ $ $ $ $ $ $ $ $ $ $ $ $ $ $ $ $ $ $ $ $ $ $ $ $ $ $ $ $ $ $ $ "};
