/* XPM */
static const char * playposmarker_xpm[] = {
"6 6 7 1",
" 	c None",
".	c #BDC7B3",
"+	c #979F8F",
"@	c #747B6F",
"#	c #474A43",
"$	c #1D1E1B",
"%	c #030303",
".+@@+.",
"+#$$#+",
"@$%%$@",
"@$%%$@",
"+#$$#+",
".+@@+."};
