/* XPM */
static const char * playbutton_down_xpm[] = {
"64 40 171 2",
"  	c None",
". 	c #000000",
"+ 	c #C6C6C6",
"@ 	c #9B9B9B",
"# 	c #555D54",
"$ 	c #565D55",
"% 	c #565E55",
"& 	c #575F56",
"* 	c #586057",
"= 	c #586158",
"- 	c #596158",
"; 	c #596259",
"> 	c #5A6359",
", 	c #5A635A",
"' 	c #5B645A",
") 	c #5C655B",
"! 	c #5C665C",
"~ 	c #5D665C",
"{ 	c #5D675D",
"] 	c #5E685D",
"^ 	c #5E685E",
"/ 	c #5F695E",
"( 	c #5F6A5F",
"_ 	c #606A60",
": 	c #606B60",
"< 	c #616C61",
"[ 	c #616D61",
"} 	c #626D62",
"| 	c #626E63",
"1 	c #636F63",
"2 	c #636F64",
"3 	c #647064",
"4 	c #647165",
"5 	c #657165",
"6 	c #657266",
"7 	c #667367",
"8 	c #677468",
"9 	c #687568",
"0 	c #687669",
"a 	c #697669",
"b 	c #69776A",
"c 	c #6A786B",
"d 	c #6B796C",
"e 	c #6B7A6C",
"f 	c #6C7A6D",
"g 	c #6C7B6E",
"h 	c #6D7C6E",
"i 	c #6D7D6F",
"j 	c #6E7D6F",
"k 	c #6E7E70",
"l 	c #6F7F70",
"m 	c #6F7F71",
"n 	c #708072",
"o 	c #708172",
"p 	c #718173",
"q 	c #718273",
"r 	c #728374",
"s 	c #738474",
"t 	c #1C1B1B",
"u 	c #555C54",
"v 	c #565D54",
"w 	c #575E55",
"x 	c #596258",
"y 	c #5A6259",
"z 	c #5B655B",
"A 	c #5D675C",
"B 	c #5E695E",
"C 	c #5F695F",
"D 	c #626E62",
"E 	c #636E63",
"F 	c #647065",
"G 	c #667266",
"H 	c #677467",
"I 	c #677568",
"J 	c #687569",
"K 	c #6A796C",
"L 	c #6B7A6D",
"M 	c #6C7B6D",
"N 	c #6F7E70",
"O 	c #708071",
"P 	c #718172",
"Q 	c #728274",
"R 	c #555C53",
"S 	c #8E978F",
"T 	c #8F978F",
"U 	c #8F9890",
"V 	c #909990",
"W 	c #758075",
"X 	c #838E84",
"Y 	c #919A91",
"Z 	c #879287",
"` 	c #949F95",
" .	c #96A197",
"..	c #89968B",
"+.	c #8A978B",
"@.	c #97A399",
"#.	c #7F8E80",
"$.	c #575E56",
"%.	c #E2E2E2",
"&.	c #C6C9C6",
"*.	c #C6C9C7",
"=.	c #C7C9C7",
"-.	c #828D83",
";.	c #B9BEBA",
">.	c #BBC0BB",
",.	c #BCC1BD",
"'.	c #BCC2BD",
").	c #545B53",
"!.	c #B8BCB8",
"~.	c #B9BDB9",
"{.	c #909991",
"].	c #B9BEB9",
"^.	c #69766A",
"/.	c #A0A8A1",
"(.	c #D5D6D5",
"_.	c #BBC0BC",
":.	c #BABFBB",
"<.	c #AEB4AE",
"[.	c #AFB6AF",
"}.	c #D5D7D5",
"|.	c #AFB7B0",
"1.	c #7E8D80",
"2.	c #545B52",
"3.	c #D4D5D4",
"4.	c #ABB0AB",
"5.	c #939D95",
"6.	c #7C8A7D",
"7.	c #7D8C7F",
"8.	c #545A52",
"9.	c #606A5F",
"0.	c #667366",
"a.	c #929C93",
"b.	c #95A097",
"c.	c #535A52",
"d.	c #929B93",
"e.	c #939D93",
"f.	c #728273",
"g.	c #919991",
"h.	c #848E84",
"i.	c #768377",
"j.	c #ACB3AD",
"k.	c #949E95",
"l.	c #959F96",
"m.	c #535951",
"n.	c #5B645B",
"o.	c #B7BBB8",
"p.	c #9BA29B",
"q.	c #9DA49E",
"r.	c #9FA69F",
"s.	c #BABFBA",
"t.	c #859086",
"u.	c #879489",
"v.	c #BCC1BC",
"w.	c #88958A",
"x.	c #6D7C6F",
"y.	c #525951",
"z.	c #525850",
"A.	c #586157",
"B.	c #6A796B",
"C.	c #515750",
"D.	c #616D62",
"E.	c #51574F",
"F.	c #51564F",
"G.	c #50564F",
"H.	c #50564E",
"I.	c #50554E",
"J.	c #4F554E",
"K.	c #4F544D",
"L.	c #525851",
"M.	c #4F554D",
"N.	c #4F534C",
". . . . . . . . . . . . . . . . . . . . . . . . . . . . . . . . . . . . . . . . . . . . . . . . . . . . . . . . . . . . . . . . ",
". + @ @ @ @ @ @ @ @ @ @ @ @ @ @ @ @ @ @ @ @ @ @ @ @ @ @ @ @ @ @ @ @ @ @ @ @ @ @ @ @ @ @ @ @ @ @ @ @ @ @ @ @ @ @ @ @ @ @ @ @ @ . ",
". @ @ @ @ @ @ @ @ @ @ @ @ @ @ @ @ @ @ @ @ @ @ @ @ @ @ @ @ @ @ @ @ @ @ @ @ @ @ @ @ @ @ @ @ @ @ @ @ @ @ @ @ @ @ @ @ @ @ @ @ @ @ . ",
". @ @ # $ % & & * = - ; > , ' ) ! ~ { ] ^ / ( _ : < [ } | 1 2 3 4 5 6 7 7 8 9 0 a b c c d e f g h i j k l m n o p q r r s s s t ",
". @ @ u v % w & * * - x y , ' z ) ! A { ^ B C ( : : < } D E 1 3 F 5 6 G 7 H I J 0 b b c K d L M g h j k N m O n P q Q r s s s t ",
". @ @ R # $ % & & * = - ; > ' ' ) ! ~ { ] ^ / ( _ : < [ } | 1 2 3 S T T U V W 9 X Y b c c d e f g Z ` j k l m  ...p +.@.#.s s t ",
". @ @ R u v % $.& * * - x y , ' z ) ! A { ^ B C ( : < < } D E 1 3 %.&.T T *.=.-.;.%.b b c K d L M >.%.j k N m %.,.P '.%.@.s s t ",
". @ @ ).R # $ % & & * = - ; > ' ' ) ! ~ { ] ^ / ( _ : < [ } | 1 2 %.!.5 6 ~.%.{.].%.^.b c c d e /.(.%._.j k l %.,.o '.%.@.s s t ",
". @ @ ).R u v % $.& * * - x > , ' z ) ! A { ^ B C ( : < < } D E 1 %.!.5 6 ~.%.V ].%.0 b b c K d :.%.<.%.j k N [.}.,.}.|.1.r s t ",
". @ @ 2.).u # $ % & & * = - y > ' ' ) ! ~ { ] ^ C ( : : < [ } | 1 %.3.!.!.3.4.W ~.%.0 ^.b c c d :.%.5.%.i j k 6.[.%.|.7.q r s t ",
". @ @ 8.).R u v % $.& * * - x > , ' z ) ! A { ^ B C 9.: < < } D E %.!.F 5 6 0.7 ~.%.J 0 b b c a.%.%.%.%.%.j k N b.%. .p q r r t ",
". @ @ c.2.).u # $ % & & * = - y > ' ' ) ! ~ { ] ^ C ( : : < [ } | %.!.3 4 5 G 7 ~.%.9 0 ^.b c d.%.e.M g %.i j k b.%. .o p f.r t ",
". @ @ c.8.).R u v % $.& * * - x > , ' z ) ! { { ^ B ( 9.: < < } D %.!.3 F 5 6 0.~.%.{.g.Y h.i.j.%.e.f M %.k.j k l.%. .n p q r t ",
". @ @ m.c.2.).u # $ % & & * = x y > ' n.) ! ~ { ] ^ C ( : : < [ } o.p.2 3 4 6 G q.~.~.].;.r.h.s.s.t.e M >.>.i j u.v.w.n o q f.t ",
". @ @ m.c.8.).R u v % $.& * * - x > , ' z ) ! { { ^ / ( 9.: < < } D E 1 3 F 5 6 0.7 8 I J 0 b b c K e f M h x.j k N m O n p q t ",
". @ @ y.m.c.2.).u # $ % & & * - x y > ' n.) ! ~ { ] B C ( : : < [ } | 1 2 3 5 6 G 7 H 8 9 0 ^.b c c d e M g h i j k m m n P q t ",
". @ @ z.m.c.8.).R u v % $.& * A.- ; > , ' z ) ! { { ^ / ( 9.: < < } D E 2 3 4 5 6 0.7 8 I J 0 b b c d e f M h x.j k N m O o p t ",
". @ @ z.y.m.c.2.).u # $ % & & * - x y > ' n.) ! ~ { ] B C ( : : < [ } | 1 2 3 5 6 G 7 H 8 9 0 ^.b c B.d L M g h i j k m m n P t ",
". @ @ C.z.m.c.8.).R u v % $.& * A.- ; > , ' z ) ! { { ^ / ( 9.: < < } D E 2 3 4 5 6 0.7 8 I J 0 b b c d e f M h x.j k N m O o t ",
". @ @ C.z.y.m.c.2.).u # $ % & * * - x y > ' n.) ! ~ { ] B C ( : : < D.} | 1 3 3 5 6 G 7 H 8 9 0 ^.b c B.d L M g h i j k m O n t ",
". @ @ E.z.z.m.c.8.).R u v % $.& * A.- ; > , ' z ) ! { ] ^ / ( _ : < < } D E 2 3 4 5 6 0.7 8 I J 0 b c c d e f M h x.j k N m O t ",
". @ @ F.C.z.y.m.c.2.).u # $ % & * * - x y > ' n.) ! ~ { ] B C ( : : < D.} | 1 3 3 5 6 G 7 H 8 9 0 ^.b c B.d L M g h i j k m O t ",
". @ @ G.E.z.z.m.c.8.).R u $ % & & * A.- ; > , ' z ) ! { ] ^ / ( _ : < < } D E 2 3 4 5 6 0.7 8 I J 0 b c c d e f M h x.j k N m t ",
". @ @ H.E.C.z.y.m.c.2.).u # $ w & * * - x y > ' n.) ! A { ^ B C ( : : < D.} | 1 3 3 5 6 G 7 H 8 J 0 b b c B.d L M g h i j k m t ",
". @ @ I.F.E.z.z.m.c.8.).R u $ % & & * A.- ; > , ' z ) ~ { ] ^ / ( _ : < < } D 1 2 3 4 5 6 0.7 8 I J a b c c d e f M h x.j k l t ",
". @ @ I.H.E.C.z.y.m.c.).).u # $ w & * * - x y > ' n.) ! A { ^ B C ( : : < D.} E 1 3 3 5 6 G 7 H 8 J 0 b b c B.d L M g h i j N t ",
". @ @ J.H.F.E.z.z.m.c.8.).R u $ % & & * A.- ; > , ' z ! ~ { ] ^ / ( _ : < < } D 1 2 3 4 5 6 7 7 8 I 0 a b c c d e f M h x.j k t ",
". @ @ K.I.H.E.C.z.y.m.c.).).u # % w & * * - x y > ' n.) ! A { ^ B C ( : : < D.D E 1 3 3 5 6 G 7 H 8 J 0 b b c B.d L M g h i k t ",
". @ @ K.I.H.F.E.z.L.m.c.8.).R u $ % & & * A.- ; > , ' ) ! ~ { ] ^ / ( _ : < < } D 1 2 3 4 5 6 7 7 8 I 0 a b c c d e f M h x.j t ",
". @ @ K.M.I.H.E.C.z.y.m.c.).).u v % w & * * - x y , ' z ) ! A { ^ B C ( : : < } D E 1 3 F 5 6 G 7 H 8 J 0 b b c B.d L M g h j t ",
". @ @ N.K.I.H.F.E.z.L.m.c.8.).R # $ % & & * A.- ; > , ' ) ! ~ { ] ^ / ( _ : < [ } | 1 2 3 4 5 6 7 7 8 9 0 a b c c d e f g h i t ",
". @ @ N.K.M.I.G.E.C.z.y.m.c.).).u v % w & * * - x y , ' z ) ! A { ^ B C ( : : < } D E 1 3 F 5 6 G 7 H I J 0 b b c B.d L M g h t ",
". @ @ N.N.K.I.H.F.E.z.L.m.c.8.).R # $ % & & * = - ; > , ' ) ! ~ { ] ^ / ( _ : < [ } | 1 2 3 4 5 6 7 7 8 9 0 a b c c d e f g h t ",
". @ @ N.N.K.M.I.G.E.C.z.y.m.c.).R u v % w & * * - x y , ' z ) ! A { ^ B C ( : < < } D E 1 3 F 5 6 G 7 H I J 0 b b c K d L M h t ",
". @ @ N.N.K.K.I.H.F.E.z.L.m.c.8.).R # $ % & & * = - ; > ' ' ) ! ~ { ] ^ / ( _ : < [ } | 1 2 3 4 5 6 7 H 8 9 0 a b c c d e f g t ",
". @ @ N.N.N.K.M.I.G.E.C.z.y.m.c.).R u v % $.& * * - x y , ' z ) ! A { ^ B C ( : < < } D E 1 3 F 5 6 G 7 H I J 0 b b c K d L M t ",
". @ @ N.N.N.K.K.I.H.F.E.z.L.m.c.2.).R # $ % & & * = - ; > ' ' ) ! ~ { ] ^ C ( : : < [ } | 1 2 3 4 5 6 7 H 8 9 0 ^.b c c d e f t ",
". @ @ N.N.N.N.K.M.I.G.E.C.z.y.m.8.).R u v % $.& * * - x > , ' z ) ! A { ^ B C ( : < < } D E 1 3 F 5 6 0.7 8 I J 0 b b c K d L t ",
". @ @ N.N.N.N.K.K.I.H.F.E.z.L.m.c.2.).u # $ % & & * = - y > ' ' ) ! ~ { ] ^ C ( : : < [ } | 1 2 3 4 5 G 7 H 8 9 0 ^.b c c d e t ",
". . . t t t t t t t t t t t t t t t t t t t t t t t t t t t t t t t t t t t t t t t t t t t t t t t t t t t t t t t t t t t t t "};
