/* XPM */
static const char * playposmarker_xpm[] = {
"5 6 4 1",
" 	c None",
".	c #CAD5C0",
"+	c #000000",
"@	c #353535",
"..+..",
".@+@.",
"++++@",
"+++++",
".@+@.",
"..+.."};
