/* XPM */
static const char * playbutton_down_on_xpm[] = {
"64 40 272 2",
"  	c None",
". 	c #A8B5A4",
"+ 	c #A7B4A3",
"@ 	c #A5B2A1",
"# 	c #A4B0A0",
"$ 	c #A0AB9C",
"% 	c #A6B3A2",
"& 	c #A1AC9D",
"* 	c #96A293",
"= 	c #899285",
"- 	c #5E615C",
"; 	c #4E504E",
"> 	c #444544",
", 	c #434343",
"' 	c #424242",
") 	c #414141",
"! 	c #404040",
"~ 	c #3F3F3F",
"{ 	c #3E3E3E",
"] 	c #3D3D3D",
"^ 	c #3C3C3C",
"/ 	c #3D3D3C",
"( 	c #3F3F3E",
"_ 	c #4A4B4A",
": 	c #8E968B",
"< 	c #9AA597",
"[ 	c #A0AC9C",
"} 	c #A6B2A2",
"| 	c #9DA99A",
"1 	c #8E978C",
"2 	c #60635E",
"3 	c #565955",
"4 	c #525351",
"5 	c #4D4D4D",
"6 	c #4E4E4E",
"7 	c #505050",
"8 	c #494949",
"9 	c #464646",
"0 	c #424342",
"a 	c #484A48",
"b 	c #535652",
"c 	c #8A9487",
"d 	c #99A495",
"e 	c #90998D",
"f 	c #5A5D5A",
"g 	c #535452",
"h 	c #545554",
"i 	c #5F5F5E",
"j 	c #6D6D6D",
"k 	c #7A7A7A",
"l 	c #7B7B7B",
"m 	c #808080",
"n 	c #868686",
"o 	c #8A8A8A",
"p 	c #8E8E8E",
"q 	c #8D8D8D",
"r 	c #8C8C8C",
"s 	c #8B8B8B",
"t 	c #888888",
"u 	c #878787",
"v 	c #858585",
"w 	c #838383",
"x 	c #828282",
"y 	c #818181",
"z 	c #7F7F7F",
"A 	c #7D7D7D",
"B 	c #7C7C7C",
"C 	c #797979",
"D 	c #777777",
"E 	c #767676",
"F 	c #757575",
"G 	c #747474",
"H 	c #727272",
"I 	c #717171",
"J 	c #707070",
"K 	c #6F6F6F",
"L 	c #6E6E6E",
"M 	c #6C6C6C",
"N 	c #6B6B6B",
"O 	c #6A6A6A",
"P 	c #696969",
"Q 	c #686868",
"R 	c #666666",
"S 	c #656565",
"T 	c #646464",
"U 	c #636363",
"V 	c #616161",
"W 	c #606060",
"X 	c #5F5F5F",
"Y 	c #585858",
"Z 	c #515151",
"` 	c #444444",
" .	c #595C57",
"..	c #97A294",
"+.	c #A2AF9E",
"@.	c #5B5E5B",
"#.	c #535352",
"$.	c #565656",
"%.	c #919191",
"&.	c #929292",
"*.	c #909090",
"=.	c #8F8F8F",
"-.	c #898989",
";.	c #848484",
">.	c #7E7E7E",
",.	c #787878",
"'.	c #737373",
").	c #676767",
"!.	c #626262",
"~.	c #5D5D5D",
"{.	c #525252",
"].	c #474747",
"^.	c #484A47",
"/.	c #899185",
"(.	c #99A696",
"_.	c #525352",
":.	c #939393",
"<.	c #959595",
"[.	c #5B5B5B",
"}.	c #545454",
"|.	c #404140",
"1.	c #4C4E4B",
"2.	c #929C8F",
"3.	c #4F4F4F",
"4.	c #989898",
"5.	c #979797",
"6.	c #949494",
"7.	c #5E5E5E",
"8.	c #555555",
"9.	c #484848",
"0.	c #494C49",
"a.	c #4C4D4C",
"b.	c #575757",
"c.	c #969696",
"d.	c #999999",
"e.	c #454545",
"f.	c #9B9B9B",
"g.	c #DBDBDB",
"h.	c #B9B9B9",
"i.	c #ADADAD",
"j.	c #B7B7B7",
"k.	c #A8A8A8",
"l.	c #B5B5B5",
"m.	c #B4B4B4",
"n.	c #B1B1B1",
"o.	c #595959",
"p.	c #535353",
"q.	c #4C4C4C",
"r.	c #3E3F3E",
"s.	c #9C9C9C",
"t.	c #9D9D9D",
"u.	c #9A9A9A",
"v.	c #B8B8B8",
"w.	c #B6B6B6",
"x.	c #B2B2B2",
"y.	c #9E9E9E",
"z.	c #9F9F9F",
"A.	c #A3A3A3",
"B.	c #A2A2A2",
"C.	c #A9A9A9",
"D.	c #5C5C5C",
"E.	c #3B3B3B",
"F.	c #A0A0A0",
"G.	c #BABABA",
"H.	c #C2C2C2",
"I.	c #A1A1A1",
"J.	c #A6A6A6",
"K.	c #A5A5A5",
"L.	c #CFCFCF",
"M.	c #A7A7A7",
"N.	c #A4A4A4",
"O.	c #AAAAAA",
"P.	c #ABABAB",
"Q.	c #ACACAC",
"R.	c #AEAEAE",
"S.	c #4A4A4A",
"T.	c #696B68",
"U.	c #434742",
"V.	c #353634",
"W.	c #3A3A3A",
"X.	c #575B56",
"Y.	c #676967",
"Z.	c #6D6E6D",
"`.	c #6A6D6A",
" +	c #2B2525",
".+	c #A12C2C",
"++	c #F13D3D",
"@+	c #F35656",
"#+	c #B15858",
"$+	c #4B4847",
"%+	c #676966",
"&+	c #4D4D4C",
"*+	c #3D403C",
"=+	c #9D2222",
"-+	c #FF2F2F",
";+	c #FF4D4D",
">+	c #FFAEAE",
",+	c #FFC4C4",
"'+	c #B45A5A",
")+	c #4E4F4E",
"!+	c #5A5A5A",
"~+	c #262726",
"{+	c #ED2525",
"]+	c #FF3333",
"^+	c #FF4E4E",
"/+	c #FF9A9A",
"(+	c #FFB0B0",
"_+	c #F45858",
":+	c #393939",
"<+	c #A4B1A1",
"[+	c #505150",
"}+	c #232423",
"|+	c #EE2020",
"1+	c #FF2828",
"2+	c #FF3737",
"3+	c #FF4A4A",
"4+	c #FF4F4F",
"5+	c #F43E3E",
"6+	c #333433",
"7+	c #525452",
"8+	c #AFAFAF",
"9+	c #323431",
"0+	c #9B1B1B",
"a+	c #FF2222",
"b+	c #FF3232",
"c+	c #A82A2A",
"d+	c #3B3C3A",
"e+	c #565856",
"f+	c #6B6D6A",
"g+	c #251E1E",
"h+	c #A01B1B",
"i+	c #F31E1E",
"j+	c #F42323",
"k+	c #A42424",
"l+	c #312B2A",
"m+	c #5C605C",
"n+	c #585A58",
"o+	c #6F706E",
"p+	c #303230",
"q+	c #1E1E1E",
"r+	c #202120",
"s+	c #3E413D",
"t+	c #6B6F6B",
"u+	c #7E827D",
"v+	c #909A8D",
"w+	c #5B5C5B",
"x+	c #4A4A49",
"y+	c #4F514E",
"z+	c #A8B4A4",
"A+	c #9DA999",
"B+	c #616360",
"C+	c #575856",
"D+	c #4B4C4A",
"E+	c #515450",
"F+	c #A3B09F",
"G+	c #919C8E",
"H+	c #555654",
"I+	c #828880",
"J+	c #9FA99B",
"K+	c #5F625E",
"L+	c #545553",
"M+	c #515251",
"N+	c #494A49",
"O+	c #474847",
"P+	c #9DA899",
"Q+	c #95A092",
"R+	c #565956",
"S+	c #4F504E",
"T+	c #4B4B4B",
"U+	c #4D4F4D",
"V+	c #4F524F",
"W+	c #464746",
". . . . + + @ # @ . . . . . . . . . . . . . . . . . . . . . . . . . . . . . . . . . . . . . . . . . . . . . . . . + $ % . . . . ",
". . . + & * = - ; > , , , , , ' ' ' ' ' ' ) ) ) ) ) ) ! ! ! ! ! ! ~ ~ ~ ~ ~ ~ { { { { { { ] ] ] ] ] ] ^ ^ ^ ^ / ( ' _ : < [ } % ",
". . + | 1 2 3 4 5 6 7 7 6 8 9 , ' ' ' ' ' ' ) ) ) ) ) ) ! ! ! ! ! ! ~ ~ ~ ~ ~ ~ { { { { { { ] ] ] ] ] ] ^ ^ ^ ] ] { 0 a b c d $ ",
". + | e f g h i j k l m m n o p q r s o t u n v w x y m z A B l k C D E F G H I J K L M N O P Q R S T U V W X Y Z 8 , ! ` a  ...",
". +.1 @.#.$.M D x r p %.%.&.*.=.p q s o -.t u v ;.w x y z >.A B k C ,.D E G '.H I J L j M N P Q ).R S U !.V W ~.Y {.5 ].! ] ^./.",
". (.2 _.Y D m -.r :.:.<.:.&.%.*.=.q r s o -.u n v ;.x y m z >.B l k C ,.E F G '.H J K L j N O P Q ).S T U !.V X [.Y }.6 8 |.> 1.",
". 2.; 3.B t *.&.<.4.5.<.6.:.&.%.=.p q r s -.t u n ;.w x y m >.A B l k ,.D E F '.H I J K j M N O P ).R S T !.V W X 7.[.8.7 9.) 0.",
". a.8 b.t 6.c.5.d.d.5.c.<.6.:.%.*.=.p r s o -.t n v ;.w x m z >.A l k C d.4.5.o '.A t K L j M O x p q R T s !.V j C ~.[.8.6 > > ",
". e.e.v %.5.d.f.f.d.4.5.c.6.:.&.%.*.p q r s o t u n v ;.x y m z A B l k g.h.h.i.o <.j.J K L M w k.l.m.q S g.U !.-.n.7.~.o.p.q.r.",
". 9 e.-.4.d.s.t.f.u.d.4.c.<.6.:.&.*.=.p q r o -.t u v ;.w x y z >.A B l g.,.D 5.v.<.v.I J L j w.*.O Q g.R g.U !.-.x.X ~.[.Y Z ~ ",
". 9 9 o s.s.t.t.s.f.u.4.5.c.<.6.&.%.*.=.q r s o -.u n v ;.w y m z >.B l g.C ,.5.h.c.v.H J K L w.%.O P g.).g.T U o x.X 7.~.[.Y ] ",
". 9 9 p y.y.z.y.t.s.u.d.4.5.c.6.:.&.%.=.p q r s -.t u n v w x y m >.A B g.u.d.A.B.5.v.H I J K w.C.*.=.g.).m.r s 4.5.W X 7.D.[.E.",
". 9 9 =.z.z.F.z.y.s.f.u.d.5.c.<.6.:.%.*.=.p q s o -.t n v ;.w x m z >.A g.G.G.A.D 5.v.'.H I K w.H.w.l.g.Q ).m.g.4.!.V W 7.~.D.^ ",
". 9 9 c.I.I.I.z.y.t.s.f.d.4.5.c.<.:.&.%.*.=.q r s o t u n v ;.x y m z >.g.l k C D 5.h.G '.I J j.&.j N g.P Q R g.T U !.W X 7.~.^ ",
". 9 9 t.A.B.I.F.z.y.t.f.u.d.4.5.<.6.:.&.*.=.p q r o -.t u n ;.w x y z >.g.B l C ,.4.h.F '.H I j.&.j M g.O Q ).g.S T !.V W X ~.^ ",
". 9 9 J.K.A.B.I.F.z.t.s.f.u.4.5.c.<.6.&.%.*.=.p r s o -.u n v ;.w y m z g.A l k C d.L.h.v.v.-.j.:.L j g.O P Q g.R T U !.V X 7.^ ",
". 9 9 M.K.N.A.B.F.z.y.t.s.u.d.4.5.c.6.:.&.%.*.p q r s -.t u n v w x y m t.A B l k x 4.5.5.c.A t l K L %.N O P q R S T U V W X ^ ",
". 9 9 M.J.K.N.B.I.F.z.y.s.f.u.d.4.c.<.6.:.%.*.=.p q s o -.t u v ;.w x m z >.A B k C ,.D E G '.H I K L j M N P Q ).R S U !.V W ^ ",
". 9 9 k.M.J.N.A.B.I.F.y.t.s.f.d.4.5.c.<.:.&.%.*.=.q r s o t u n v ;.x y m z >.B l k C ,.E F G '.I J K L j N O P Q ).S T U !.W ^ ",
". ].9 C.k.J.K.N.A.B.F.z.y.t.f.u.d.4.5.<.6.:.&.%.=.p q r o -.t u n ;.w x y m >.A B l C ,.D E F '.H I J K j M N O Q ).R S T !.V ^ ",
". ].].O.k.M.J.K.A.B.I.F.z.t.s.f.u.d.5.c.<.6.&.%.*.=.p r s o -.t n v ;.w y m z >.A l k C ,.D F G '.H J K L j M O P Q ).R T U !.^ ",
". ].].O.C.k.M.K.N.A.B.I.z.y.t.s.u.d.4.5.c.6.:.&.%.*.p q r s o t u n v w x y m z A B l k C D E F G H I J K L M N O P Q R S T U ^ ",
". ].].P.O.C.M.J.K.N.A.I.F.z.y.s.f.u.d.4.c.<.6.:.&.*.=.p q s o -.t u v ;.w x y z >.A B k C ,.D E G '.H I J L j M N P Q ).R S U ] ",
". ].].Q.P.C.k.M.J.N.A.B.I.F.y.t.s.f.u.4.5.c.<.:.&.%.*.=.q r s o -.u n v ;.x y m z >.B l k C ,.E F G '.H J K L j N O P Q ).S T ] ",
". ].].Q.P.O.C.k.J.K.N.A.B.F.z.y.t.s.u.d.4.5.<.6.:.&.%.=.p q r s -.t u n ;.w x y m >.A B l k ,.D E F '.H I J K j M N O P ).R S ] ",
". ].].i.Q.P.O.k.M.J.K.N.B.I.F.z.t.s.f.u.d.5.c.<.6.:.%.*.=.p r s o -.t n v ;.w x m z >.A l k C ,.D F G '.H I K L j M O P Q ).R ] ",
". ].].R.i.Q.O.C.k.M.K.N.A.B.I.z.y.t.s.f.d.4.5.c.6.:.&.%.*.p q r s o t u n v ;.x y m z A B l k C D E F G '.I J K L M N O P Q R ] ",
". ].S.k.i.Q.P.O.C.M.J.K.N.A.I.F.z.y.t.f.u.d.4.c.<.6.:.&.*.=.p q r o -.t u v ;.w x y z >.A B l C ,.D E G T.U.V.W.X.Y.Z.N O Q ).] ",
". 9.}.c.O.i.Q.P.C.k.M.J.K.A.B.I.F.y.t.s.f.u.4.5.c.<.6.&.%.*.=.q r s o -.u n v ;.w y m z >.B l k C ,.E `. +.+++@+#+$+%+M O P Q ] ",
"+ &+o.=.M.i.i.P.O.C.k.J.K.N.A.B.F.z.y.t.s.u.d.4.5.c.6.:.&.%.=.p q r s -.t u n v w x y m >.A B l k ,.D *+=+-+;+>+,+'+0.M N O P ] ",
"} )+!+u I.i.i.Q.P.O.k.M.J.K.N.B.I.F.z.y.s.f.u.d.5.c.<.6.:.%.*.=.p q s o -.t n v ;.w x m z >.A B k C ,.~+{+]+^+/+(+_+:+j M N P ] ",
"<+[+Y x y.P.R.i.Q.O.C.k.M.J.N.A.B.I.z.y.t.s.f.d.4.5.c.<.:.&.%.*.=.q r s o t u n v ;.x y m z >.B l k C }+|+1+2+3+4+5+6+L j N R ! ",
"<+7+$.m t.O.8+R.Q.P.O.C.k.J.K.N.A.I.F.z.y.t.f.u.d.4.5.<.6.:.&.*.=.p q r o -.t u n ;.w x y z >.A B l C 9+0+a+1+-+b+c+d+L j O X e.",
"<+e+8.E &.K.R.R.i.Q.P.C.k.M.J.K.A.B.I.F.z.t.s.f.u.4.5.c.<.6.&.%.*.=.p r s o -.u n v ;.w y m z >.A l k f+g+h+i+j+k+l+T.K L Q !+9 ",
"} m+n+Q v y.O.8+R.i.P.O.C.k.M.K.N.A.B.F.z.y.t.s.u.d.4.5.c.6.:.&.%.*.p q r s -.t u n v w x y m z A B l k o+p+q+r+s+t+u+J L V 7 _ ",
"+ v+@.w+F =.F.O.i.i.Q.P.O.C.M.J.K.N.B.I.F.z.y.s.f.u.d.4.c.<.6.:.%.*.=.p q s o -.t u v ;.w x m z >.A B k C ,.D E G '.H J ).Y x+y+",
"z+A+B+C+7.A %.y.K.k.O.P.O.C.k.M.J.N.A.B.I.F.y.t.s.f.d.4.5.c.<.:.&.%.*.=.q r s o t u n v ;.x y m z >.B l k C ,.E F G J Q D.a.D+E+",
". F+G+H+7 D.C t <.y.K.O.P.O.C.k.J.K.N.A.B.F.z.y.t.f.u.d.4.5.<.6.:.&.%.=.p q r o -.t u n ;.w x y m >.A B l C D G J N T [.5 ` a I+",
". + J+K+L+M+{.T l w =.t.Q.P.O.k.M.J.K.A.B.I.F.z.t.s.f.u.d.5.c.<.6.&.%.*.=.p r s o -.t n v ;.w y m z >.A l k J P T 7.M+_ N+O+{ . ",
". + +.P+Q+R+S+S.6 p.Z 5 ].].9 9 9 9 9 9 e.e.e.e.e.e.` ` ` ` ` ` , , , , , , ' ' ' ' ' ' ) ) ) ) ) ) ! ! ! ! ].S.T+9.U+V+W+I+. . "};
