/* XPM */
static const char * playbutton_up_on_xpm[] = {
"64 40 213 2",
"  	c None",
". 	c #A8B5A4",
"+ 	c #A2AD9E",
"@ 	c #444444",
"# 	c #434343",
"$ 	c #424242",
"% 	c #414141",
"& 	c #404040",
"* 	c #3F3F3F",
"= 	c #3E3E3E",
"- 	c #3D3D3D",
"; 	c #3C3C3C",
"> 	c #3B3B3B",
", 	c #464645",
"' 	c #484847",
") 	c #484848",
"! 	c #4B4B4B",
"~ 	c #4F4F4F",
"{ 	c #505050",
"] 	c #4E4E4E",
"^ 	c #494949",
"/ 	c #464646",
"( 	c #454545",
"_ 	c #5F5F5E",
": 	c #707070",
"< 	c #7D7D7D",
"[ 	c #7E7E7E",
"} 	c #808080",
"| 	c #868686",
"1 	c #8A8A8A",
"2 	c #8E8E8E",
"3 	c #8D8D8D",
"4 	c #8C8C8C",
"5 	c #8B8B8B",
"6 	c #888888",
"7 	c #878787",
"8 	c #858585",
"9 	c #838383",
"0 	c #828282",
"a 	c #818181",
"b 	c #7F7F7F",
"c 	c #7C7C7C",
"d 	c #7B7B7B",
"e 	c #7A7A7A",
"f 	c #797979",
"g 	c #777777",
"h 	c #767676",
"i 	c #757575",
"j 	c #747474",
"k 	c #727272",
"l 	c #717171",
"m 	c #6F6F6F",
"n 	c #6E6E6E",
"o 	c #6C6C6C",
"p 	c #6B6B6B",
"q 	c #6A6A6A",
"r 	c #696969",
"s 	c #686868",
"t 	c #666666",
"u 	c #656565",
"v 	c #646464",
"w 	c #636363",
"x 	c #616161",
"y 	c #606060",
"z 	c #5F5F5F",
"A 	c #5B5B5B",
"B 	c #555555",
"C 	c #4C4C4C",
"D 	c #4D4D4D",
"E 	c #7C7C7B",
"F 	c #848484",
"G 	c #909090",
"H 	c #919191",
"I 	c #929292",
"J 	c #8F8F8F",
"K 	c #898989",
"L 	c #787878",
"M 	c #737373",
"N 	c #6D6D6D",
"O 	c #676767",
"P 	c #626262",
"Q 	c #5E5E5E",
"R 	c #5A5A5A",
"S 	c #4A4A4A",
"T 	c #949494",
"U 	c #959595",
"V 	c #939393",
"W 	c #5C5C5C",
"X 	c #595959",
"Y 	c #565656",
"Z 	c #424342",
"` 	c #969696",
" .	c #989898",
"..	c #979797",
"+.	c #515151",
"@.	c #444644",
"#.	c #535353",
"$.	c #999999",
"%.	c #5D5D5D",
"&.	c #444544",
"*.	c #9B9B9B",
"=.	c #DBDBDB",
"-.	c #B9B9B9",
";.	c #ADADAD",
">.	c #B7B7B7",
",.	c #A8A8A8",
"'.	c #B5B5B5",
").	c #B4B4B4",
"!.	c #B1B1B1",
"~.	c #3E3F3E",
"{.	c #9C9C9C",
"].	c #9D9D9D",
"^.	c #9A9A9A",
"/.	c #B8B8B8",
"(.	c #B6B6B6",
"_.	c #B2B2B2",
":.	c #585858",
"<.	c #9E9E9E",
"[.	c #9F9F9F",
"}.	c #A3A3A3",
"|.	c #A2A2A2",
"1.	c #A9A9A9",
"2.	c #A0A0A0",
"3.	c #BABABA",
"4.	c #C2C2C2",
"5.	c #A1A1A1",
"6.	c #A6A6A6",
"7.	c #A5A5A5",
"8.	c #CFCFCF",
"9.	c #A7A7A7",
"0.	c #A4A4A4",
"a.	c #474747",
"b.	c #AAAAAA",
"c.	c #ABABAB",
"d.	c #ACACAC",
"e.	c #AEAEAE",
"f.	c #696B68",
"g.	c #434742",
"h.	c #353634",
"i.	c #3A3A3A",
"j.	c #575B56",
"k.	c #676967",
"l.	c #6D6E6D",
"m.	c #6A6D6A",
"n.	c #2B2525",
"o.	c #A12C2C",
"p.	c #F13D3D",
"q.	c #F35656",
"r.	c #B15858",
"s.	c #4B4847",
"t.	c #676966",
"u.	c #3D403C",
"v.	c #9D2222",
"w.	c #FF2F2F",
"x.	c #FF4D4D",
"y.	c #FFAEAE",
"z.	c #FFC4C4",
"A.	c #B45A5A",
"B.	c #494C49",
"C.	c #575757",
"D.	c #262726",
"E.	c #ED2525",
"F.	c #FF3333",
"G.	c #FF4E4E",
"H.	c #FF9A9A",
"I.	c #FFB0B0",
"J.	c #F45858",
"K.	c #393939",
"L.	c #525252",
"M.	c #232423",
"N.	c #EE2020",
"O.	c #FF2828",
"P.	c #FF3737",
"Q.	c #FF4A4A",
"R.	c #FF4F4F",
"S.	c #F43E3E",
"T.	c #333433",
"U.	c #AFAFAF",
"V.	c #323431",
"W.	c #9B1B1B",
"X.	c #FF2222",
"Y.	c #FF3232",
"Z.	c #A82A2A",
"`.	c #3B3C3A",
" +	c #6B6D6A",
".+	c #251E1E",
"++	c #A01B1B",
"@+	c #F31E1E",
"#+	c #F42323",
"$+	c #A42424",
"%+	c #312B2A",
"&+	c #4D4E4D",
"*+	c #6F706E",
"=+	c #303230",
"-+	c #1E1E1E",
";+	c #202120",
">+	c #3E413D",
",+	c #6B6F6B",
"'+	c #7E827D",
")+	c #4A4B4A",
"!+	c #4A4A49",
"~+	c #4F514E",
"{+	c #828880",
"]+	c #4C4D4C",
"^+	c #4B4C4A",
"/+	c #515450",
"(+	c #484A48",
"_+	c #515251",
":+	c #494A49",
"<+	c #474847",
"[+	c #4D4F4D",
"}+	c #4F524F",
"|+	c #464746",
". . . . . + @ @ # # # # # # $ $ $ $ $ $ % % % % % % & & & & & & * * * * * * = = = = = = - - - - - - ; ; ; ; ; ; > > + . . . . . ",
". . . + @ , ' ) ! ~ { ] ^ / # $ $ $ $ $ $ % % % % % % & & & & & & * * * * * * = = = = = = - - - - - - ; ; ; ; ; ; > > > + . . . ",
". . ( @ ' { _ : < [ } } | 1 2 3 4 5 1 6 7 | 8 9 0 a } b < c d e f g h i j k l : m n o p q r s t u v w x y z A B C # = = > > . . ",
". + ( ( D k E F 2 G H H I G J 2 3 5 1 K 6 7 8 F 9 0 a b [ < c e f L g h j M k l : n N o p r s O t u w P x y Q R B { S * > > + . ",
". ( ( ~ F 8 3 2 T T U V I H G J 3 4 5 1 K 7 | 8 F 0 a } b [ c d e f L h i j M k : m n N p q r s O u v w P x z W X Y { ! & Z > . ",
"+ ( ^ 8 4 V T `  ...U T V I H J 2 3 4 5 K 6 7 | F 9 0 a } [ < c d e L g h i M k l : m N o p q r O t u v P x y z Q A Y +.^ & @.. ",
"( ( #.5 ` .. .$.$...` U T V H G J 2 4 5 1 K 6 | 8 F 9 0 } b [ < d e f $. ...1 M < 6 m n N o q 0 2 3 t v 5 P x N f %.A B ] &.&.> ",
"( ( 8 H ..$.*.*.$. ...` T V I H G 2 3 4 5 1 6 7 | 8 F 0 a } b < c d e =.-.-.;.1 U >.: m n o 9 ,.'.).3 u =.w P K !.Q %.X #.C ~.> ",
"/ ( K  .$.{.].*.^.$. .` U T V I G J 2 3 4 1 K 6 7 8 F 9 0 a b [ < c d =.L g ../.U /.l : n N (.G q s =.t =.w P K _.z %.A :.+.* > ",
"/ / 1 {.{.].].{.*.^. ...` U T I H G J 3 4 5 1 K 7 | 8 F 9 a } b [ c d =.f L ..-.` /.k : m n (.H q r =.O =.v w 1 _.z Q %.A :.- > ",
"/ / 2 <.<.[.<.].{.^.$. ...` T V I H J 2 3 4 5 K 6 7 | 8 9 0 a } [ < c =.^.$.}.|.../.k l : m (.1.G J =.O ).4 5  ...y z Q W A > > ",
"/ / J [.[.2.[.<.{.*.^.$...` U T V H G J 2 3 5 1 K 6 | 8 F 9 0 } b [ < =.3.3.}.g ../.M k l m (.4.(.'.=.s O ).=. .P x y Q %.W ; > ",
"/ / ` 5.5.5.[.<.].{.*.$. ...` U V I H G J 3 4 5 1 6 7 | 8 F 0 a } b [ =.d e f g ..-.j M l : >.I N p =.r s t =.v w P y z Q %.; ; ",
"/ / ].}.|.5.2.[.<.].*.^.$. ...U T V I G J 2 3 4 1 K 6 7 | F 9 0 a b [ =.c d f L  .-.i M k l >.I N o =.q s O =.u v P x y z %.; ; ",
"/ / 6.7.}.|.5.2.[.].{.*.^. ...` U T I H G J 2 4 5 1 K 7 | 8 F 9 a } b =.< d e f $.8.-././.K >.V n N =.q r s =.t v w P x z Q ; ; ",
"/ / 9.7.0.}.|.2.[.<.].{.^.$. ...` T V I H G 2 3 4 5 K 6 7 | 8 9 0 a } ].< c d e 0  .....` < 6 d m n H p q r 3 t u v w x y z ; ; ",
"/ / 9.6.7.0.|.5.2.[.<.{.*.^.$. .` U T V H G J 2 3 5 1 K 6 7 8 F 9 0 } b [ < c e f L g h j M k l m n N o p r s O t u w P x y ; ; ",
"/ / ,.9.6.0.}.|.5.2.<.].{.*.$. ...` U V I H G J 3 4 5 1 6 7 | 8 F 0 a } b [ c d e f L h i j M l : m n N p q r s O u v w P y ; ; ",
"a./ 1.,.6.7.0.}.|.2.[.<.].*.^.$. ...U T V I H J 2 3 4 1 K 6 7 | F 9 0 a } [ < c d f L g h i M k l : m N o p q s O t u v P x ; ; ",
"a.a.b.,.9.6.7.}.|.5.2.[.].{.*.^.$...` U T I H G J 2 4 5 1 K 6 | 8 F 9 a } b [ < d e f L g i j M k : m n N o q r s O t v w P ; ; ",
"a.a.b.1.,.9.7.0.}.|.5.[.<.].{.^.$. ...` T V I H G 2 3 4 5 1 6 7 | 8 9 0 a } b < c d e f g h i j k l : m n o p q r s t u v w ; ; ",
"a.a.c.b.1.9.6.7.0.}.5.2.[.<.{.*.^.$. .` U T V I G J 2 3 5 1 K 6 7 8 F 9 0 a b [ < c e f L g h j M k l : n N o p r s O t u w - ; ",
"a.a.d.c.1.,.9.6.0.}.|.5.2.<.].{.*.^. ...` U V I H G J 3 4 5 1 K 7 | 8 F 0 a } b [ c d e f L h i j M k : m n N p q r s O u v - - ",
"a.a.d.c.b.1.,.6.7.0.}.|.2.[.<.].{.^.$. ...U T V I H J 2 3 4 5 K 6 7 | F 9 0 a } [ < c d e L g h i M k l : m N o p q r O t u - - ",
"a.a.;.d.c.b.,.9.6.7.0.|.5.2.[.].{.*.^.$...` U T V H G J 2 4 5 1 K 6 | 8 F 9 0 } b [ < d e f L g i j M k l m n N o q r s O t - - ",
"a.a.e.;.d.b.1.,.9.7.0.}.|.5.[.<.].{.*.$. ...` T V I H G 2 3 4 5 1 6 7 | 8 F 0 a } b < c d e f g h i j M l : m n o p q r s t - - ",
"a.S ,.;.d.c.b.1.9.6.7.0.}.5.2.[.<.].*.^.$. .` U T V I G J 2 3 4 1 K 6 7 8 F 9 0 a b [ < c d f L g h j f.g.h.i.j.k.l.p q s O - - ",
"a.+.*.d.;.d.c.1.,.9.6.7.}.|.5.2.<.].{.*.^. ...` U T I H G J 3 4 5 1 K 7 | 8 F 9 a } b [ c d e f L h m.n.o.p.q.r.s.t.o q r s - - ",
") Y V 1.;.;.c.b.1.,.6.7.0.}.|.2.[.<.].{.^.$. ...` T V I H J 2 3 4 5 K 6 7 | 8 9 0 a } [ < c d e L g u.v.w.x.y.z.A.B.o p q r - - ",
") C.5 0.;.;.d.c.b.,.9.6.7.0.|.5.2.[.<.{.*.^.$...` U T V H G J 2 3 5 1 K 6 | 8 F 9 0 } b [ < c e f L D.E.F.G.H.I.J.K.N o p r - - ",
") L.K }.d.e.;.d.b.1.,.9.6.0.}.|.5.[.<.].{.*.$. ...` U V I H G J 3 4 5 1 6 7 | 8 F 0 a } b [ c d e f M.N.O.P.Q.R.S.T.n N p t & - ",
") C 6 0.d.U.e.d.c.b.1.,.6.7.0.}.5.2.[.<.].*.^.$. ...U T V I G J 2 3 4 1 K 6 7 | F 9 0 a b [ < c d f V.W.X.O.w.Y.Z.`.n N q z ( = ",
") C c ..1.U.e.;.d.c.1.,.9.6.7.}.|.5.2.[.].{.*.^. ...` U T I H G J 2 4 5 1 K 7 | 8 F 9 a } b [ < d e  +.+++@+#+$+%+f.m n s R / * ",
") &+u 1 |.d.U.e.;.c.b.1.,.9.7.0.}.|.2.[.<.].{.^.$. ...` T V I H G 2 3 4 5 K 6 7 | 8 9 0 a } b < c d e *+=+-+;+>+,+'+: n x { )+& ",
"+ D Y e V |.b.;.;.d.c.b.1.9.6.7.0.|.5.2.[.<.{.*.^.$. .` U T V H G J 2 3 5 1 K 6 7 8 F 9 0 } b [ < c e f L g h j M k : O :.!+~+{+",
". ) C R a V <.7.,.b.c.b.1.,.9.6.0.}.|.5.2.<.].{.*.$. ...` U V I H G J 3 4 5 1 6 7 | 8 F 0 a } b [ c d e f L h i j : s W ]+^+/+. ",
". + ) S R d 6 U <.7.b.c.b.1.,.6.7.0.}.|.2.[.<.].*.^.$. ...U T V I H J 2 3 4 1 K 6 7 | F 9 0 a } [ < c d f g j : p v A D @ (+{+. ",
". . ) ) ! ~ v d 9 J ].d.c.b.,.9.6.7.}.|.5.2.[.].{.*.^.$...` U T I H G J 2 4 5 1 K 6 | 8 F 9 a } b [ < d e : r v Q _+)+:+<+= . . ",
". . . . ) ) S ] #.+.D a.a./ / / / / / ( ( ( ( ( ( @ @ @ @ @ @ # # # # # # $ $ $ $ $ $ % % % % % % & & & & a.S ! ) [+}+|+{+. . . ",
". . . . . {+) ) a.a.a.a.a.a./ / / / / / ( ( ( ( ( ( @ @ @ @ @ @ # # # # # # $ $ $ $ $ $ % % % % % % & & & & & & * * . . . . . . "};
