/* XPM */
static const char * playbutton_down_off_xpm[] = {
"51 32 128 2",
"  	c None",
". 	c #565855",
"+ 	c #4E4E4E",
"@ 	c #4F4F4F",
"# 	c #505050",
"$ 	c #515151",
"% 	c #525252",
"& 	c #535353",
"* 	c #545454",
"= 	c #555555",
"- 	c #565656",
"; 	c #575757",
"> 	c #585858",
", 	c #595959",
"' 	c #5A5A5A",
") 	c #5B5B5B",
"! 	c #5C5C5C",
"~ 	c #5D5D5D",
"{ 	c #5E5E5E",
"] 	c #5F5F5F",
"^ 	c #606060",
"/ 	c #646563",
"( 	c #747973",
"_ 	c #98A394",
": 	c #6E726C",
"< 	c #616161",
"[ 	c #626262",
"} 	c #646464",
"| 	c #656565",
"1 	c #666666",
"2 	c #676767",
"3 	c #696969",
"4 	c #6A6A6A",
"5 	c #6B6B6B",
"6 	c #6D6D6D",
"7 	c #6E6E6E",
"8 	c #6F6F6F",
"9 	c #707070",
"0 	c #727272",
"a 	c #747474",
"b 	c #757575",
"c 	c #767676",
"d 	c #777777",
"e 	c #797979",
"f 	c #7A7A7A",
"g 	c #7B7B7B",
"h 	c #7C7C7C",
"i 	c #7E7E7E",
"j 	c #7F7F7F",
"k 	c #818181",
"l 	c #828282",
"m 	c #838383",
"n 	c #858585",
"o 	c #868686",
"p 	c #878787",
"q 	c #898989",
"r 	c #8A8A8A",
"s 	c #8B8B8B",
"t 	c #8C8C8C",
"u 	c #8E8E8E",
"v 	c #8F8F8F",
"w 	c #6E726D",
"x 	c #555554",
"y 	c #686868",
"z 	c #6C6C6C",
"A 	c #717171",
"B 	c #787878",
"C 	c #7D7D7D",
"D 	c #808080",
"E 	c #848484",
"F 	c #888888",
"G 	c #8D8D8D",
"H 	c #909090",
"I 	c #737373",
"J 	c #636363",
"K 	c #4D4D4D",
"L 	c #4C4C4C",
"M 	c #4B4B4B",
"N 	c #494949",
"O 	c #484848",
"P 	c #474747",
"Q 	c #464646",
"R 	c #444444",
"S 	c #434343",
"T 	c #424242",
"U 	c #404040",
"V 	c #3F3F3F",
"W 	c #3E3E3E",
"X 	c #3D3D3D",
"Y 	c #4A4A4A",
"Z 	c #454545",
"` 	c #414141",
" .	c #4A3332",
"..	c #721414",
"+.	c #942222",
"@.	c #822E2E",
"#.	c #4D3838",
"$.	c #6D0F0F",
"%.	c #951818",
"&.	c #A63636",
"*.	c #BA5A5A",
"=.	c #842E2E",
"-.	c #870F0F",
";.	c #941616",
">.	c #9E2727",
",.	c #A83838",
"'.	c #962222",
").	c #6D0D0D",
"!.	c #921111",
"~.	c #961919",
"{.	c #761515",
"].	c #4E3535",
"^.	c #6F0D0D",
"/.	c #8B0E0E",
"(.	c #701111",
"_.	c #4B3333",
":.	c #3C3C3C",
"<.	c #3B3B3B",
"[.	c #3A3A3A",
"}.	c #7C7D7C",
"|.	c #858983",
"1.	c #8A8E89",
"2.	c #A1AC9E",
"3.	c #838782",
"4.	c #6A6B6A",
"5.	c #808280",
"6.	c #8B8F8A",
"7.	c #A1AB9D",
"    . + + + @ @ # # $ $ % % % % & * * * * = - - - - ; > > , , , ' ' ) ) ) ! ! ~ ~ ~ { ] ] ] ^ ^ / ( _ ",
": # % & = - ; > ' ) ~ { ] < [ } | 1 2 3 4 5 6 7 8 9 0 a b c d e f g h i j k l m n o p q r s t u v k w ",
"x # $ & * = ; > ' ) ! ~ ] ^ < [ } | 2 y 3 5 z 6 8 9 A 0 a b d B e g h C j D k m E n o F q s t G v H 3 ",
"# @ $ % * { 3 5 z 7 7 8 9 A 0 I a b c d B e f g h C i i j D k l m m E n o o p F q q r s s s s t u v 8 ",
"# + @ % I A 9 8 6 z 5 4 y 2 1 } J [ < ] { ~ ) ' , > - = * % $ # @ K L M N O P Q R S T U V W X s G u 9 ",
"$ K @ > I 0 A 8 7 6 z 4 3 y 1 | } J < ^ ] ~ ! ) , > ; - * & % # @ + K M Y N P Q Z R T ` U W X t t G 9 ",
"$ K + < a I A 9 8 6 z 5 4 y 2 1 } J [ < ] { ~ ) ' , > - = * % $ # @ K L M N O P Q  ...+.@.#.W t s G A ",
"$ L K < b I 0 A 8 7 6 z 4 3 y 1 | } J < ^ ] ~ ! ) ' > ; - * & % $ @ + K M Y N O Q $.%.&.*.=.V s r t A ",
"% M L ] b a I A 9 8 7 z 5 4 y 2 1 | J [ < ] { ~ ! ' , > - = * & $ # @ K L M Y O P -.;.>.,.'.V q q s 0 ",
"% Y M ~ c b I 0 A 9 7 6 z 4 3 y 2 | } J < ^ ] { ! ) ' > ; - = & % $ @ + K L Y N O ).!.;.~.{.U p q r 0 ",
"& N M ! d b a I 0 9 8 7 z 5 4 3 2 1 | J [ < ^ { ~ ! ' , > ; = * & $ # @ + L M Y O ].^./.(._.` n F q 0 ",
"& N Y ' d c b a 0 A 9 7 6 z 5 3 y 2 | } J [ ^ ] { ! ) ' , ; - = & % $ # + K L Y N O P Z R S ` m p q I ",
"* P N > B d c a I 0 9 8 7 6 5 4 3 2 1 | } [ < ^ { ~ ! ) , > ; = * & % # @ + L M Y N P Q Z S T l o p I ",
"* P O - e B c b a 0 A 9 8 6 z 5 3 y 2 1 } J [ ^ ] { ~ ) ' , ; - = * % $ # + K L M N O P Z R S j n p a ",
"= Q P * f B d c a I 0 A 8 7 6 5 4 3 y 1 | } [ < ^ ] ~ ! ) , > ; - * & % # @ + K M Y N P Q Z R C n o a ",
"= Z P % f e B c b a I A 9 8 6 z 5 4 y 2 1 } J [ < ] { ~ ) ' , > - = * % $ # @ K L M N O P Q R h E n b ",
"- R Z # g f B d c b I 0 A 8 7 6 z 4 3 y 1 | } J < ^ ] ~ ! ) ' > ; - * & % $ @ + K M Y N O Q Z f m E b ",
"- S Z @ h f e B d b a I A 9 8 7 z 5 4 y 2 1 | J [ < ] { ~ ! ' , > - = * & $ # @ K L M Y O P Q B l m c ",
"- S R K h g f e d c b I 0 A 9 7 6 z 4 3 y 2 | } J < ^ ] { ! ) ' > ; - = & % $ @ + K L Y N O Q c k m c ",
"; T S Y C h g e B d b a I 0 9 8 7 z 5 4 3 2 1 | J [ < ^ { ~ ! ' , > ; = * & $ # @ + L M Y O P a D l d ",
"; ` T N i C g f e d c b a 0 A 9 7 6 z 5 3 y 2 | } J [ ^ ] { ! ) ' , ; - = & % $ # + K L Y N O 0 j k d ",
"> U ` P j C h g e B d c a I 0 9 8 7 6 5 4 3 2 1 | } [ < ^ { ~ ! ) , > ; = * & % # @ + L M Y N 9 j D B ",
"> V ` Z j i 7 > > > - & ; 8 1 - [ z $ = ^ - & % * [ ~ , ^ { > % % % $ # $ * % # # # @ @ K M N 8 i j B ",
", V U S j j J 4 a f 8 ^ c 0 > 0 ) y * < ! y < ) 1 | ^ ! < { ; ; ' ) = * ; = $ & # # @ + + M Y 6 C j B ",
", X V ` j j f 5 | b 8 < c I & { * 3 * , [ 5 [ ) 2 1 ^ ~ [ < ~ > = ' - * > = $ * # # # @ K L M 4 h C e ",
"' X W V j j , , 3 e 9 < d a ; z , 4 > 5 ) 3 [ ! y 1 { ' J ] & & > ) ; * > - & # % $ # @ + K M 3 g C e ",
"' :.X V j j j i C h f e B c b a I A 9 8 6 z 5 4 y 2 1 } J [ < ] { ~ ) ' , > - = * % $ # @ K L 7 g h f ",
") <.X W j j j j i h g f B d c b I 0 A 8 7 6 z 4 3 y 1 | } J < ^ ] ~ ! ) ' > ; - * & % $ @ + K d f g f ",
") [.<.X W X X V V U T T S Z Q P O N Y M L K + # # % & * = - ; > , ' ) ~ { { ^ < [ J } | 1 5 a d e f g ",
"2 [.<.:.W V U ` S R Z P O N M L K @ # % & * = ; > , ) ! ~ ] ^ [ J } | 2 y 3 4 z 6 8 9 A I a b d B e }.",
"|.Q [.<.X W V U T S Z Q O N Y M K + @ # % & = - ; , ' ) ~ { ] ^ [ J } 1 2 3 4 5 6 7 8 A 0 I a c d e 1.",
"2.3.4.1 1 2 y 3 3 4 5 5 z z 6 6 7 8 9 9 A A 0 I I a a b b c c c d d B B e e e f f g g g g h C C 5.6.7."};
