/* XPM */
static const char * selector_a_xpm[] = {
"25 10 78 1",
" 	c None",
".	c #61675E",
"+	c #636960",
"@	c #676E64",
"#	c #5A5F57",
"$	c #575D55",
"%	c #585D55",
"&	c #5F655C",
"*	c #656C62",
"=	c #686F65",
"-	c #5E645B",
";	c #70776D",
">	c #8D9789",
",	c #2F322D",
"'	c #1D1F1C",
")	c #1F211E",
"!	c #555B53",
"~	c #7F897C",
"{	c #939E8F",
"]	c #4E524C",
"^	c #6E756B",
"/	c #848E81",
"(	c #434841",
"_	c #121311",
":	c #000000",
"<	c #010101",
"[	c #030303",
"}	c #3C413B",
"|	c #7E877B",
"1	c #A7B4A3",
"2	c #A8B5A4",
"3	c #464944",
"4	c #5D635B",
"5	c #4E534C",
"6	c #101110",
"7	c #030302",
"8	c #040404",
"9	c #141514",
"0	c #60675D",
"a	c #A5B2A1",
"b	c #5E655C",
"c	c #50564D",
"d	c #090A09",
"e	c #020202",
"f	c #070807",
"g	c #51574F",
"h	c #9DA999",
"i	c #646B61",
"j	c #61695E",
"k	c #0E0F0D",
"l	c #0B0C0B",
"m	c #4F554D",
"n	c #96A192",
"o	c #70786D",
"p	c #879284",
"q	c #242723",
"r	c #444943",
"s	c #A2AE9E",
"t	c #4C504A",
"u	c #5B6159",
"v	c #757D72",
"w	c #2A2B28",
"x	c #10100F",
"y	c #080808",
"z	c #090909",
"A	c #0F100F",
"B	c #4C514B",
"C	c #727A6F",
"D	c #393B38",
"E	c #232322",
"F	c #252524",
"G	c #292927",
"H	c #1E1D1D",
"I	c #1A1919",
"J	c #191818",
"K	c #282927",
"L	c #2A2A29",
"M	c #20201F",
".........................",
".+@.#$$$%&*=============-",
".;>-,''')!~{{{{{{{{{{{{{]",
".^/(_::<[}|12222222222223",
".4567::<890a2222222222223",
".bcd:::<efgh2222222222223",
".ijk<:::<lmn2222222222223",
".opqf::<fr~s2222222222223",
"tuvwxyyzABC|||||||||||||D",
"EFGHIJJJIEKLLLLLLLLLLLLLM"};
