/* XPM */
static const char * selector_b_xpm[] = {
"25 10 72 1",
" 	c None",
".	c #61675E",
"+	c #A8B5A4",
"@	c #676E64",
"#	c #5A5F57",
"$	c #575D55",
"%	c #585D55",
"&	c #5F655C",
"*	c #656C62",
"=	c #686F65",
"-	c #5E645B",
";	c #8D9789",
">	c #2F322D",
",	c #1D1F1C",
"'	c #1F211E",
")	c #555B53",
"!	c #7F897C",
"~	c #939E8F",
"{	c #4E524C",
"]	c #848E81",
"^	c #434841",
"/	c #121311",
"(	c #000000",
"_	c #010101",
":	c #030303",
"<	c #3C413B",
"[	c #7E877B",
"}	c #A7B4A3",
"|	c #464944",
"1	c #5D635B",
"2	c #4E534C",
"3	c #101110",
"4	c #030302",
"5	c #040404",
"6	c #141514",
"7	c #60675D",
"8	c #A5B2A1",
"9	c #5E655C",
"0	c #50564D",
"a	c #090A09",
"b	c #020202",
"c	c #070807",
"d	c #51574F",
"e	c #9DA999",
"f	c #61695E",
"g	c #0E0F0D",
"h	c #0B0C0B",
"i	c #4F554D",
"j	c #96A192",
"k	c #879284",
"l	c #242723",
"m	c #444943",
"n	c #A2AE9E",
"o	c #4C504A",
"p	c #757D72",
"q	c #2A2B28",
"r	c #10100F",
"s	c #080808",
"t	c #090909",
"u	c #0F100F",
"v	c #4C514B",
"w	c #727A6F",
"x	c #393B38",
"y	c #232322",
"z	c #252524",
"A	c #292927",
"B	c #1E1D1D",
"C	c #1A1919",
"D	c #191818",
"E	c #282927",
"F	c #2A2A29",
"G	c #20201F",
".........................",
".+++++++++++++@.#$$$%&*=-",
".+++++++++++++;->,,,')!~{",
".+++++++++++++]^/((_:<[}|",
".++++++++++++1234((_5678|",
".++++++++++++90a(((_bcde|",
".+++++++++++++fg_(((_hij|",
".+++++++++++++klc((_cm!n|",
"o+++++++++++++pqrsstuvw[x",
"yzABCDDDCyEFFFFFFFFFFFFFG"};
