/* XPM */
static const char * slider_large_h_handle_xpm[] = {
"16 30 86 1",
" 	c None",
".	c #727A6F",
"+	c #383938",
"@	c #373737",
"#	c #383838",
"$	c #393939",
"%	c #3A3A3A",
"&	c #3B3B3B",
"*	c #3C3C3C",
"=	c #3F403E",
"-	c #7E877C",
";	c #363736",
">	c #5F5F5F",
",	c #606060",
"'	c #3E3F3D",
")	c #323232",
"!	c #616161",
"~	c #3F3F3F",
"{	c #626262",
"]	c #404040",
"^	c #333333",
"/	c #636363",
"(	c #646464",
"_	c #424242",
":	c #343434",
"<	c #656565",
"[	c #434343",
"}	c #353535",
"|	c #666666",
"1	c #444444",
"2	c #363636",
"3	c #676767",
"4	c #464646",
"5	c #686868",
"6	c #474747",
"7	c #696969",
"8	c #484848",
"9	c #6A6A6A",
"0	c #6B6B6B",
"a	c #4A4A4A",
"b	c #6C6C6C",
"c	c #4B4B4B",
"d	c #6D6D6D",
"e	c #4C4C4C",
"f	c #3D3D3D",
"g	c #6E6E6E",
"h	c #4D4D4D",
"i	c #6F6F6F",
"j	c #4F4F4F",
"k	c #707070",
"l	c #717171",
"m	c #505050",
"n	c #414141",
"o	c #727272",
"p	c #515151",
"q	c #737373",
"r	c #535353",
"s	c #747474",
"t	c #545454",
"u	c #454545",
"v	c #757575",
"w	c #555555",
"x	c #767676",
"y	c #575757",
"z	c #777777",
"A	c #787878",
"B	c #585858",
"C	c #494949",
"D	c #797979",
"E	c #595959",
"F	c #7A7A7A",
"G	c #5B5B5B",
"H	c #7B7B7B",
"I	c #5C5C5C",
"J	c #7C7C7C",
"K	c #5D5D5D",
"L	c #7D7D7D",
"M	c #5E5E5E",
"N	c #7E7E7E",
"O	c #7F7F7F",
"P	c #565756",
"Q	c #616260",
"R	c #7D857B",
"S	c #575857",
"T	c #5A5A5A",
"U	c #889085",
".+@@##$$%%%&&*=-",
";>>>>>>>>>>>>>,'",
")>>>>>>>>>>>,!!~",
")>>>>>>>>>>,!{{]",
"^>>>>>>>>,!!{/(_",
":>>>>>>>,!{{/(<[",
"}>>>>>,!!{/((<|1",
"2>>>>,!{{/(<||34",
"@>>,!!{/((<|3556",
"#>,!{{/(<||35778",
"$!!{/((<|355790a",
"&{{/(<||357790bc",
"*/((<|3557900bde",
"f(<||357790bddgh",
"~<|3557900bdgiij",
"]|357790bddgiklm",
"n357900bdgiiklop",
"[7790bddgikkloqr",
"1900bdgiiklooqst",
"u0bddgikkloqssvw",
"6bdgiiklooqsvxxy",
"8dgikkloqssvxzAB",
"CgiklooqsvxxzADE",
"ckkloqssvxzzADFG",
"elooqsvxxzADDFHI",
"hoqssvxzzADFHHJK",
"jqsvxxzADDFHJLLM",
"msvxzzADFHHJLNO,",
"PxxzADDFHJLLNOOQ",
"RSETGGIKMM>,!!>U"};
