/* XPM */
static const char * slider_small_v_handle_xpm[] = {
"20 10 48 1",
" 	c None",
".	c #848982",
"+	c #747474",
"@	c #757575",
"#	c #777777",
"$	c #787878",
"%	c #797979",
"&	c #7B7B7B",
"*	c #7C7C7C",
"=	c #7D7D7D",
"-	c #7F7F7F",
";	c #808080",
">	c #818181",
",	c #838383",
"'	c #848484",
")	c #8B918A",
"!	c #717171",
"~	c #828282",
"{	c #858585",
"]	c #878787",
"^	c #898989",
"/	c #8B8B8B",
"(	c #8C8C8C",
"_	c #8E8E8E",
":	c #909090",
"<	c #919191",
"[	c #929292",
"}	c #848483",
"|	c #6D6D6D",
"1	c #767676",
"2	c #7E7E7E",
"3	c #6A6A6A",
"4	c #727272",
"5	c #8A8A8A",
"6	c #676767",
"7	c #6E6E6E",
"8	c #707070",
"9	c #666666",
"0	c #6C6C6C",
"a	c #7A7A7A",
"b	c #888888",
"c	c #737373",
"d	c #676867",
"e	c #7A7E78",
"f	c #686868",
"g	c #6B6B6B",
"h	c #6F6F6F",
"i	c #80857F",
".++@#$%&*=-;>,,,,,')",
"!%&=-;~'{]^/(_:<[[[}",
"|1#%&=2;~'{]^/(_:<[,",
"34+1#%&=2;~'{]^5(_:~",
"6784+@#%&*2;~,{]^5(;",
"90|784+@#%a*2;>,{]b=",
"9000|784c@#%a*2;>,{a",
"900000|784c@#%a*2->$",
"d0000000|78!c@#$a*2@",
"e6666666666f3g0|h8!i"};
