/* XPM */
static const char * slider_mid_v_handle_xpm[] = {
"30 16 86 1",
" 	c None",
".	c #7D857B",
"+	c #565756",
"@	c #505050",
"#	c #4F4F4F",
"$	c #4D4D4D",
"%	c #4C4C4C",
"&	c #4B4B4B",
"*	c #494949",
"=	c #484848",
"-	c #474747",
";	c #454545",
">	c #444444",
",	c #434343",
"'	c #414141",
")	c #404040",
"!	c #3F3F3F",
"~	c #3D3D3D",
"{	c #3C3C3C",
"]	c #3B3B3B",
"^	c #393939",
"/	c #383838",
"(	c #373737",
"_	c #363636",
":	c #353535",
"<	c #343434",
"[	c #333333",
"}	c #323232",
"|	c #363736",
"1	c #727A6F",
"2	c #575857",
"3	c #767676",
"4	c #747474",
"5	c #737373",
"6	c #727272",
"7	c #717171",
"8	c #707070",
"9	c #6E6E6E",
"0	c #6D6D6D",
"a	c #6C6C6C",
"b	c #6B6B6B",
"c	c #6A6A6A",
"d	c #696969",
"e	c #676767",
"f	c #666666",
"g	c #656565",
"h	c #646464",
"i	c #636363",
"j	c #626262",
"k	c #616161",
"l	c #5F5F5F",
"m	c #383938",
"n	c #595959",
"o	c #757575",
"p	c #6F6F6F",
"q	c #686868",
"r	c #606060",
"s	c #5A5A5A",
"t	c #777777",
"u	c #5B5B5B",
"v	c #787878",
"w	c #797979",
"x	c #5C5C5C",
"y	c #5D5D5D",
"z	c #7A7A7A",
"A	c #5E5E5E",
"B	c #7B7B7B",
"C	c #3A3A3A",
"D	c #7C7C7C",
"E	c #7D7D7D",
"F	c #7E7E7E",
"G	c #7F7F7F",
"H	c #3F403E",
"I	c #889085",
"J	c #616260",
"K	c #585858",
"L	c #575757",
"M	c #555555",
"N	c #545454",
"O	c #535353",
"P	c #515151",
"Q	c #4A4A4A",
"R	c #464646",
"S	c #424242",
"T	c #3E3F3D",
"U	c #7E877C",
".+@#$%&*=-;>,')!~{]^/(_:<[}}|1",
"234567890abcdefghijklllllllllm",
"n3o4568p90abdqefghjkrllllllll(",
"st3o4678p90bcdqefhijkrlllllll(",
"uvt345678p0abcdqfghijklllllll/",
"uwt3o4568p90abdqefghjkrllllll/",
"xwvt3o4678p90bcdqefhijkrlllll^",
"yzwvt345678p0abcdqfghijklllll^",
"ABzwt3o4568p90abdqefghjkrllllC",
"ADBwvt3o4678p90bcdqefhijkrlllC",
"lEBzwvt345678p0abcdqfghijklllC",
"rEDBzwt3o4568p90abdqefghjkrll]",
"kFEDBwvt3o4678p90bcdqefhijkrl]",
"kGFEBzwvt345678p0abcdqfghijkl{",
"lGGEDBzwv3o4567p90abdqefghjkrH",
"IJrAyxunKLMNOP@#$%&Q=-R>,S)!TU"};
