/* XPM */
static const char * slider_mid_v_xpm[] = {
"30 171 6 1",
" 	c None",
".	c #A8B5A4",
"+	c #777777",
"@	c #828780",
"#	c #595959",
"$	c #000000",
"..............................",
"..............................",
"..............................",
"..............................",
"..............................",
"..............................",
"..............................",
"+@+..........##$$..........+@+",
"@@@..........##$$..........@@@",
"+@+..........##$$..........+@+",
".............##$$.............",
".............##$$.............",
".............##$$.............",
".............##$$.............",
".............##$$.............",
".............##$$.............",
".............##$$.............",
".@...........##$$...........@.",
".............##$$.............",
".............##$$.............",
".............##$$.............",
".............##$$.............",
".............##$$.............",
".............##$$.............",
".............##$$.............",
".@...........##$$...........@.",
".............##$$.............",
".............##$$.............",
".............##$$.............",
".............##$$.............",
".............##$$.............",
".............##$$.............",
".............##$$.............",
".@...........##$$...........@.",
".............##$$.............",
".............##$$.............",
".............##$$.............",
".............##$$.............",
".............##$$.............",
".............##$$.............",
".............##$$.............",
".@...........##$$...........@.",
".............##$$.............",
".............##$$.............",
".............##$$.............",
".............##$$.............",
".............##$$.............",
".............##$$.............",
".............##$$.............",
".@...........##$$...........@.",
".............##$$.............",
".............##$$.............",
".............##$$.............",
".............##$$.............",
".............##$$.............",
".............##$$.............",
".............##$$.............",
".@...........##$$...........@.",
".............##$$.............",
".............##$$.............",
".............##$$.............",
".............##$$.............",
".............##$$.............",
".............##$$.............",
".............##$$.............",
".@...........##$$...........@.",
".............##$$.............",
".............##$$.............",
".............##$$.............",
".............##$$.............",
".............##$$.............",
".............##$$.............",
".............##$$.............",
".@...........##$$...........@.",
".............##$$.............",
".............##$$.............",
".............##$$.............",
".............##$$.............",
".............##$$.............",
".............##$$.............",
".@...........##$$...........@.",
".............##$$.............",
".............##$$.............",
".............##$$.............",
"+@+..........##$$..........+@+",
"@@@..........##$$..........@@@",
"+@+..........##$$..........+@+",
".............##$$.............",
".............##$$.............",
".............##$$.............",
".@...........##$$...........@.",
".............##$$.............",
".............##$$.............",
".............##$$.............",
".............##$$.............",
".............##$$.............",
".............##$$.............",
".@...........##$$...........@.",
".............##$$.............",
".............##$$.............",
".............##$$.............",
".............##$$.............",
".............##$$.............",
".............##$$.............",
".............##$$.............",
".@...........##$$...........@.",
".............##$$.............",
".............##$$.............",
".............##$$.............",
".............##$$.............",
".............##$$.............",
".............##$$.............",
".............##$$.............",
".@...........##$$...........@.",
".............##$$.............",
".............##$$.............",
".............##$$.............",
".............##$$.............",
".............##$$.............",
".............##$$.............",
".............##$$.............",
".@...........##$$...........@.",
".............##$$.............",
".............##$$.............",
".............##$$.............",
".............##$$.............",
".............##$$.............",
".............##$$.............",
".............##$$.............",
".@...........##$$...........@.",
".............##$$.............",
".............##$$.............",
".............##$$.............",
".............##$$.............",
".............##$$.............",
".............##$$.............",
".............##$$.............",
".@...........##$$...........@.",
".............##$$.............",
".............##$$.............",
".............##$$.............",
".............##$$.............",
".............##$$.............",
".............##$$.............",
".............##$$.............",
".@...........##$$...........@.",
".............##$$.............",
".............##$$.............",
".............##$$.............",
".............##$$.............",
".............##$$.............",
".............##$$.............",
".............##$$.............",
".@...........##$$...........@.",
".............##$$.............",
".............##$$.............",
".............##$$.............",
".............##$$.............",
".............##$$.............",
".............##$$.............",
".............##$$.............",
"+@+..........##$$..........+@+",
"@@@..........##$$..........@@@",
"+@+..........##$$..........+@+",
"..............................",
"..............................",
"..............................",
"..............................",
"..............................",
"..............................",
".............................."};
