/* XPM */
static const char * slider_small_v_xpm[] = {
"20 80 6 1",
" 	c None",
".	c #A8B5A4",
"+	c #777777",
"@	c #828780",
"#	c #595959",
"$	c #000000",
"....................",
"....................",
"....................",
"....................",
"+@+......#$......+@+",
"@@@......#$......@@@",
"+@+......#$......+@+",
".........#$.........",
".........#$.........",
".........#$.........",
".@.......#$.......@.",
".........#$.........",
".........#$.........",
".........#$.........",
".@.......#$.......@.",
".........#$.........",
".........#$.........",
".........#$.........",
".@.......#$.......@.",
".........#$.........",
".........#$.........",
".........#$.........",
".@.......#$.......@.",
".........#$.........",
".........#$.........",
".........#$.........",
".@.......#$.......@.",
".........#$.........",
".........#$.........",
".........#$.........",
".@.......#$.......@.",
".........#$.........",
".........#$.........",
".........#$.........",
".@.......#$.......@.",
".........#$.........",
".........#$.........",
".........#$.........",
"+@+......#$......+@+",
"@@@......#$......@@@",
"+@+......#$......+@+",
".........#$.........",
".........#$.........",
".........#$.........",
".........#$.........",
".@.......#$.......@.",
".........#$.........",
".........#$.........",
".........#$.........",
".@.......#$.......@.",
".........#$.........",
".........#$.........",
".........#$.........",
".@.......#$.......@.",
".........#$.........",
".........#$.........",
".........#$.........",
".@.......#$.......@.",
".........#$.........",
".........#$.........",
".........#$.........",
".@.......#$.......@.",
".........#$.........",
".........#$.........",
".........#$.........",
".@.......#$.......@.",
".........#$.........",
".........#$.........",
".........#$.........",
".@.......#$.......@.",
".........#$.........",
".........#$.........",
".........#$.........",
"+@+......#$......+@+",
"@@@......#$......@@@",
"+@+......#$......+@+",
"....................",
"....................",
"....................",
"...................."};
