/* XPM */
static const char * wheel0_xpm[] = {
"200 16 296 2",
"  	c None",
". 	c #A8B5A4",
"+ 	c #A8B4A4",
"@ 	c #A7B3A3",
"# 	c #A6B3A2",
"$ 	c #A6B2A2",
"% 	c #A5B1A1",
"& 	c #A3AE9F",
"* 	c #A8B0A5",
"= 	c #919790",
"- 	c #8F948D",
"; 	c #9BA498",
"> 	c #9FAA9C",
", 	c #A1AB9E",
"' 	c #A5B0A1",
") 	c #A7B2A4",
"! 	c #A6B2A3",
"~ 	c #A4AFA0",
"{ 	c #A2AE9F",
"] 	c #A3AFA0",
"^ 	c #A3AEA0",
"/ 	c #A5B1A2",
"( 	c #A7B3A4",
"_ 	c #A7B2A3",
": 	c #A4B0A1",
"< 	c #A6B1A2",
"[ 	c #A5B0A2",
"} 	c #A4AFA1",
"| 	c #A6B1A3",
"1 	c #A2AD9E",
"2 	c #A2AD9F",
"3 	c #A7B1A4",
"4 	c #A4AEA1",
"5 	c #9FA89C",
"6 	c #99A196",
"7 	c #888B87",
"8 	c #90958F",
"9 	c #91968F",
"0 	c #666666",
"a 	c #383838",
"b 	c #5E615D",
"c 	c #5F615E",
"d 	c #6F736E",
"e 	c #797D78",
"f 	c #8B8F8A",
"g 	c #949893",
"h 	c #90948F",
"i 	c #878B86",
"j 	c #828781",
"k 	c #828680",
"l 	c #838781",
"m 	c #868A84",
"n 	c #898D88",
"o 	c #858A84",
"p 	c #828681",
"q 	c #868B85",
"r 	c #8E928D",
"s 	c #949993",
"t 	c #939792",
"u 	c #8A8F89",
"v 	c #868A85",
"w 	c #848983",
"x 	c #848883",
"y 	c #838882",
"z 	c #80857F",
"A 	c #7C817B",
"B 	c #7A7F7A",
"C 	c #7B7F7A",
"D 	c #7E837D",
"E 	c #898E88",
"F 	c #919690",
"G 	c #8F938E",
"H 	c #8D918C",
"I 	c #818580",
"J 	c #81857F",
"K 	c #8A8E89",
"L 	c #919590",
"M 	c #929691",
"N 	c #7D827C",
"O 	c #7A7F79",
"P 	c #7D817C",
"Q 	c #929690",
"R 	c #979C96",
"S 	c #888C87",
"T 	c #7B807A",
"U 	c #9CA09A",
"V 	c #9B9F9A",
"W 	c #878B85",
"X 	c #80847F",
"Y 	c #7F837E",
"Z 	c #7F837D",
"` 	c #9FA39E",
" .	c #A0A49F",
"..	c #7C807A",
"+.	c #979B95",
"@.	c #A5A9A4",
"#.	c #9DA19C",
"$.	c #7C807B",
"%.	c #969A95",
"&.	c #A3A8A2",
"*.	c #9FA39D",
"=.	c #8F938D",
"-.	c #848882",
";.	c #8A8E88",
">.	c #9B9F99",
",.	c #A1A59F",
"'.	c #989C97",
").	c #7E827D",
"!.	c #858983",
"~.	c #959993",
"{.	c #7B7F79",
"].	c #858984",
"^.	c #8C908B",
"/.	c #989C96",
"(.	c #959994",
"_.	c #80847E",
":.	c #838782",
"<.	c #979B96",
"[.	c #969A94",
"}.	c #8B908A",
"|.	c #7F847E",
"1.	c #959A94",
"2.	c #90938F",
"3.	c #9B9E9A",
"4.	c #8E918D",
"5.	c #717470",
"6.	c #5D5F5D",
"7.	c #7D7D7D",
"8.	c #9CA599",
"9.	c #2F2F2F",
"0.	c #090909",
"a.	c #202020",
"b.	c #212121",
"c.	c #272727",
"d.	c #393939",
"e.	c #4B4B4B",
"f.	c #5B5B5B",
"g.	c #535353",
"h.	c #4E4E4E",
"i.	c #4A4A4A",
"j.	c #505050",
"k.	c #575757",
"l.	c #5A5A5A",
"m.	c #484848",
"n.	c #3F3F3F",
"o.	c #3D3D3D",
"p.	c #626262",
"q.	c #656565",
"r.	c #5F5F5F",
"s.	c #5D5D5D",
"t.	c #585858",
"u.	c #515151",
"v.	c #414141",
"w.	c #262626",
"x.	c #252525",
"y.	c #2C2C2C",
"z.	c #3E3E3E",
"A.	c #4D4D4D",
"B.	c #646464",
"C.	c #747474",
"D.	c #767676",
"E.	c #676767",
"F.	c #4C4C4C",
"G.	c #565656",
"H.	c #6F6F6F",
"I.	c #494949",
"J.	c #333333",
"K.	c #282828",
"L.	c #292929",
"M.	c #3A3A3A",
"N.	c #545454",
"O.	c #696969",
"P.	c #787878",
"Q.	c #434343",
"R.	c #363636",
"S.	c #525252",
"T.	c #818181",
"U.	c #919191",
"V.	c #7F7F7F",
"W.	c #5E5E5E",
"X.	c #424242",
"Y.	c #949494",
"Z.	c #A0A0A0",
"`.	c #7A7A7A",
" +	c #444444",
".+	c #313131",
"++	c #2D2D2D",
"@+	c #2B2B2B",
"#+	c #353535",
"$+	c #848484",
"%+	c #A4A4A4",
"&+	c #8B8B8B",
"*+	c #A3A3A3",
"=+	c #929292",
"-+	c #6A6A6A",
";+	c #686868",
">+	c #707070",
",+	c #454545",
"'+	c #323232",
")+	c #555555",
"!+	c #6D6D6D",
"~+	c #808080",
"{+	c #828282",
"]+	c #6B6B6B",
"^+	c #595959",
"/+	c #3C3C3C",
"(+	c #2A2A2A",
"_+	c #606060",
":+	c #717171",
"<+	c #5C5C5C",
"[+	c #404040",
"}+	c #4F4F4F",
"|+	c #616161",
"1+	c #3B3B3B",
"2+	c #222222",
"3+	c #141414",
"4+	c #777777",
"5+	c #8E938D",
"6+	c #050505",
"7+	c #060606",
"8+	c #080808",
"9+	c #181818",
"0+	c #2E2E2E",
"a+	c #464646",
"b+	c #111111",
"c+	c #040404",
"d+	c #0A0A0A",
"e+	c #1B1B1B",
"f+	c #737373",
"g+	c #797979",
"h+	c #191919",
"i+	c #7B7B7B",
"j+	c #070707",
"k+	c #151515",
"l+	c #868686",
"m+	c #9D9D9D",
"n+	c #757575",
"o+	c #B1B1B1",
"p+	c #BABABA",
"q+	c #1E1E1E",
"r+	c #1D1D1D",
"s+	c #909090",
"t+	c #B4B4B4",
"u+	c #303030",
"v+	c #959595",
"w+	c #A1A1A1",
"x+	c #969696",
"y+	c #242424",
"z+	c #101010",
"A+	c #161616",
"B+	c #171717",
"C+	c #373737",
"D+	c #131313",
"E+	c #474747",
"F+	c #1F1F1F",
"G+	c #6C6C6C",
"H+	c #0C0C0C",
"I+	c #0B0B0B",
"J+	c #030303",
"K+	c #0F0F0F",
"L+	c #000000",
"M+	c #636363",
"N+	c #0D0D0D",
"O+	c #020202",
"P+	c #010101",
"Q+	c #727272",
"R+	c #ADADAD",
"S+	c #7E7E7E",
"T+	c #A7A7A7",
"U+	c #A2A2A2",
"V+	c #8A8A8A",
"W+	c #343434",
"X+	c #232323",
"Y+	c #0E0E0E",
"Z+	c #121212",
"`+	c #9F9F9F",
" @	c #1C1C1C",
".@	c #1A1A1A",
"+@	c #838383",
"@@	c #8C8C8C",
"#@	c #8D8D8D",
"$@	c #898989",
"%@	c #9B9B9B",
"&@	c #6E6E6E",
"*@	c #9DA29C",
"=@	c #888888",
"-@	c #A3ACA0",
";@	c #ACB6A9",
">@	c #9CA59A",
",@	c #9BA499",
"'@	c #98A096",
")@	c #979F95",
"!@	c #959C93",
"~@	c #90958E",
"{@	c #9DA59B",
"]@	c #AAB6A6",
". + . . . . . . . . . . . . . . . . . . . . . . . . . . . . . . . . . . . . . . . . . . . . . . . . . . . . . . . . . . . . . . . . . . . . . . . . . . . . . . . . . . . . . . . . . . . . . . . . . . . . . . . . . . . . . . . . . . . . . . . . . . . . . . . . . . . . . . . . . . . . . . . . . . . . . . . . . . . . . . . . . . . . . . . . . . . . . . . . . . . . . . . . . . . . @ . # . $ . % & $ . ",
". * = - ; ; > , ' ) ! ~ & { { & ] ] & ^ ~ / ( _ : & { { { { { { & & ' _ _ ' ] ] & & & & & & & ' _ ( ' & { { { { { { & & : ! ( / ] { { { { { { { & ~ ! ( < ] & & & & & & & & ~ < ( ! ] & { { { { { { & ] / ( ! ~ & { { { { { { & ] [ ( _ ' ] & & & & & & ^ ] ' _ _ ' & & & & & & & & & : _ ( ' & { { { { & & & & } ! ( / ] & { { { { { { & ~ | ( < ] & { { { { { { & ~ < ( ! ~ & { { { { { { 1 2 ^ 3 4 5 6 7 8 } ",
". 9 0 a b c d e f g h i j k l m n o l p q r s t u v w x y z A B C D E F t h r G H n x k I J l K L t M f q p N C O O B P m Q R g r S J T O O O O A x 8 U V L W X Y Z Z Z Z Y x h `  .G X ..T T T T T T k +.@.#.i $.O O O O O O C l %.&.*.=.-.l l l l l l -.;.>.,.'.S ).).J l l l l !.f ~.U '.;.D B O {...).J ].^.L /.(.n D C O O C $._.:.i G <.[.}.|.T O B $.Z l -.m K M 1.r z T O T ).p k k I v 2.3.4.5.6.a 7.8.",
". - 9.0.a.b.c.d.e.f.g.h.e.i.j.k.l.m.n.o.m.k.p.q.r.p.s.t.u.v.9.w.x.y.z.A.k.B.C.7.D.E.t.u.h.F.A.G.r.B.D.H.r.I.J.K.x.x.x.L.M.N.O.P.P.B.Q.L.x.x.x.x.K.R.S.T.U.V.W.m.X.X.X.X.X.Q.e.0 Y.Z.`. +.+++++++++y.@+#+$+%+&+e.@+x.x.x.x.x.x.c.Q.$+*+=+-+h.e.e.e.e.e.e.j.;+Y.Y.>+,+'+d.,+i.e.I.I.)+!+~+{+]+,+y.w.K.y.J.z.i.l.C.D.>+^+/+(+x.x.x.w.9.X.S._+H.:+<+[+y.x.x.w.++z.}+N.^+<+|+f. +++w.x.y.1+F.i.i.A.r.H.7.W.R.2+3+4+; ",
". 5+y.6+7+8+0.9+L.[+d.1+n.[+i.}+I.@+a.a.0+a+l.p.|+;+_+)+a+@+b+6+c+d+e+0+[+k.f+T.g+0 k.u.j.j.g.s.]+:+$+P.<+a 9+8+c+c+c+8+h+o.s.i+V.r.++0.c+c+c+c+j+k+M.l+m+T.t.a+m.I.I.I.i.A.G.n+o+p+&+m.9.@+@+@+@+c.q+r+s+t+$+u+d+c+c+c+c+c+c+0.'+s+t+v+B.m.,+,+,+,+ +,+h.H.w+x+s.c.e+y.z. + +v.o.j.:+{+7.G.y+d+j+z+q+0+o.i.s.4+:+r./+A+j+c+c+c+j+B+C+h._+]+p.v.e+8+c+c+7+D+9.E+}+u.h.F.[+F+0.c+6+b+@+ +z.z.X.G.|+G+z.k+H+I+N.; ",
". 5+y.6+J+J+c+K+b.C+9..+'+J.M.v.a 9+H+H+A+y.v.a+E+u.E+,+M.q+8+L+L+J+D+c.J.,+f.M+k.n.9.@+y.0+'+v.g.^+!+M+e.L.N+O+L+L+L+O+z+'+u.;+!+F.e+J+L+L+L+L+P+H+u+4+&+q.d.u+C+d.d.d.M.o.F.Q+R+o+~+A.v.n.n.n.n.z.'+b.S+T+E.h+J+L+L+L+L+L+L+c+y+S+U+>+a w.y+y+y+y+y+x.y.h.V+~+,+k+N+9+b.y+y+2+b.C+<+]+-+ +k+J+J+H+h+x.++W+m._+f.A.y.H+P+L+L+L+J+K+0+z.j.t.j.'+z+P+L+L+O+N+c.n.Q.X.1+z.J.3+O+L+P+d+X+/+'+.+W+ +j.f.y.I+7+d+A.; ",
". 5+y.6+O+O+O+Y+b.J.L.(+L.(+9.d.u+b+J+P+j+h+L.(+y.1+'+d.J.B+c+L+L+J+D+x.@+1+F.h.o.F+d+6+6+7+8+B+(+u+S.j.n.a.j+L+L+L+L+P+Y+++m.l.|+v.b+P+L+L+L+L+P+I+(+O.V.N.r+H+N+N+N+N+N+K+e+a+s+v+S.b.e+e+e+e+e+e+A+Z+:+`+k.Y+L+L+L+L+L+L+L+P+B+Q+v+N.k+6+c+c+c+c+c+6+I+9.i+f+a H+O+J+c+c+c+c+j+b.e.W.|+1+K+P+L+J+7+0.I+3+9.j.j.a+c.0.P+L+L+L+P+d+x.'+ +}+I.y.N+P+L+L+L+8+a.a M.C+.+1+9.b+P+L+L+7+ @#+L.K.@+d.e.)+w.8+6+d+A.; ",
". 5+y.6+O+O+O+H+F+'+@+(+L.(+u+1+u+z+O+L+c+k+x.L.(+d..+M.J.A+c+L+L+J+Z+X+y.o.A.}+/+.@6+L+L+L+P+K+2+@+S.j.[+F+j+L+L+L+L+P+N+++i.W.B.v.z+L+L+L+L+L+P+d+L.!++@S.9+O+L+L+L+L+L+P+I+W+@@#@z.8+J+J+J+J+J+J+O+8+n+w+)+N+L+L+L+L+L+L+L+P+A+n+x+S.b+L+L+L+L+L+L+L+7+0+7.Q+a H+L+L+L+L+L+L+J+b.F.W._+M.Y+P+L+L+L+L+O+N+y.u.j. +w.d+P+L+L+L+P+d+c.J.a+}+E+@+N+P+L+L+L+8+b.M.1+C+'+M.9.b+P+L+L+7+r+a L.L.@+M.i.g.c.0.6+d+A.; ",
". 5+y.6+O+O+O+I+r+9.K.K.c.K.++C+u+b+O+L+c+D+X+c.K.C+u+C+'+9+c+L+L+O+b+b.(+d.I.F.1+ @7+L+L+L+P+Y+F+L.h.A.z.a.8+L+L+L+L+P+H+L.,+t.r.v.Z+P+L+L+L+L+P+0.x.B.7.g..@O+L+L+L+L+L+L+8+++V.$@n.j+L+L+L+L+L+L+L+7+-+%@l.z+L+L+L+L+L+L+L+P+3+]+s+)+D+L+L+L+L+L+L+L+c+K.n+:+M.N+L+L+L+L+L+L+J+ @m.l.s./+z+P+L+L+L+L+P+I+K.h.h. +c.d+P+L+L+L+L+8+X+u+X.F.a+@+Y+P+L+L+L+j+r+R.a R.u+C+9.Z+P+L+L+6+h+J.c.c.(+C+E+g.K.0.6+d+A.; ",
". 5+y.6+O+O+O+I+e+y.w.w.x.x.(+J.++z+O+L+c+Z+b.x.x.J.++J.9.A+c+L+L+O+z+F+c.#+ +E+R..@6+L+L+L+P+Y+r+w.I.m.M.q+j+L+L+L+L+P+I+c.v.S.^+o.b+P+L+L+L+L+P+0.X+W.C.A.9+O+L+L+L+L+L+L+8+@+D.S+1+7+L+L+L+L+L+L+L+7+B.s+N.Y+L+L+L+L+L+L+L+P+D+B.l+}+b+L+L+L+L+L+L+L+c+w.&@O.R.H+L+L+L+L+L+L+O+e+Q.N.k.C+K+P+L+L+L+L+P+d+x.I.m.n.y+0.P+L+L+L+L+8+b.++z.E+v.K.N+P+L+L+L+7+ @'+W+'+++W+@+b+P+L+L+6+9+u+x.x.c.W+Q.A.x.0.6+d+A.; ",
". 5+y.6+O+O+O+0.B+x.F+F+q+F+X+@+y+H+P+L+J+z+ @q+F+@+x.@+c.b+J+L+L+O+Y+e+a.++d.1+++3+c+L+L+L+P+H+h+a.o./+u+9+6+L+L+L+L+P+d+b.R.,+e..+N+L+L+L+L+L+L+j+q+j.|+n.D+O+L+L+L+L+L+L+j+x.0 O.0+c+L+L+L+L+L+L+L+6+G.`.X.I+L+L+L+L+L+L+L+P+z+G.:+z.N+L+L+L+L+L+L+L+J+a.s.k.(+0.L+L+L+L+L+L+O+B+d.E+I.y.I+P+L+L+L+L+P+0.a./+/+W+r+j+L+L+L+L+L+j+ @x.W+1+R.b.d+P+L+L+L+6+9+@+y.L.x.@+X+N+P+L+L+c+k+L.F+q+b.@+d.n.q+7+6+d+A.; ",
". 5+y.6+O+O+O+j+b+.@A+A+k+k+9+q+h+8+P+L+O+I+D+3+k+r+h+q+e+I+O+L+L+P+0.D+A+F+K.L.F+N+O+L+L+L+L+8+Z+k+(+L.b.z+J+L+L+L+L+L+7+B+w.u+W+2+8+L+L+L+L+L+L+6+k+a  +@+H+P+L+L+L+L+L+L+c+h+E+I.q+J+L+L+L+L+L+L+L+J+/+k.y.j+L+L+L+L+L+L+L+L+I+/+j.(+8+L+L+L+L+L+L+L+O+A+v./+ @7+L+L+L+L+L+L+P+z+c..+J.q+j+L+L+L+L+L+L+7+A+(+(+y+3+c+L+L+L+L+L+c+D+h+y+L.x.A+7+L+L+L+L+J+z+q+F+ @h+F+h+8+L+L+L+O+Y+r+k+k+B+r+K.y.k+c+6+d+A.; ",
". 5+y.6+J+O+O+6+N+B+Z+D+b+D+D+h+9+8+P+L+P+8+b+b+D+.@k+h+9+I+O+L+L+P+j+z+Z+h+b.X+ @N+O+L+L+L+L+6+Y+Z+y+X+q+z+J+L+L+L+L+L+c+b+F+c.++a.8+L+L+L+L+L+L+J+z+++1+L.H+P+L+L+L+L+L+L+J+b+a  +q+J+L+L+L+L+L+L+L+O+y.h.@+j+L+L+L+L+L+L+L+L+j+++a+L.8+L+L+L+L+L+L+L+P+K+#+R.e+7+L+L+L+L+L+L+P+I+b.K.y.r+j+L+L+L+L+L+L+c+b+X+X+a.Z+c+L+L+L+L+L+J+K+k+q+X+b.k+7+L+L+L+L+O+H+h+.@h+3+.@B+8+L+L+L+P+d+B+Z+b+3+9+2+L.k+c+6+d+A.; ",
". 5+j.k+z+K+Y+K+D+e+B+9+k+A+A+.@.@K+d+d+d+Y+k+k+A+e+B+.@e+Z+I+d+d+d+N+3+k+.@F+b.r+D+H+d+d+d+d+N+D+k+b.b.q+k+H+d+d+d+d+d+H+3+q+X+K.a.z+d+d+d+d+d+d+I+D+w..+w.Z+d+d+d+d+d+d+d+I+3+++d.F+H+d+d+d+d+d+d+d+I+X+n.K.K+d+d+d+d+d+d+d+d+N+x.d.w.z+d+d+d+d+d+d+d+d+Z+y.9.r+Y+d+d+d+d+d+d+d+K+F+y+c.q+K+d+d+d+d+d+d+H+3+b.b.F+B+N+d+d+d+d+d+I+Z+A+r+a.a.9+Y+d+d+d+d+I+z+.@e+e+A+e+.@z+d+d+d+d+K+h+A+k+h+h+2+w..@N+b+B+&@; ",
". *@{+p.k.k.N.N.N.G.N.N.j.j.j.u.u.h.A.A.A.h.j.j.j.u.j.u.u.}+A.A.A.A.h.}+j.u.S.g.S.}+A.A.A.A.A.A.}+j.g.g.S.}+A.A.A.A.A.A.A.j.S.g.)+g.h.A.A.A.A.A.A.A.}+N.k.N.}+A.A.A.A.A.A.A.A.}+G.^+S.A.A.A.A.A.A.A.A.A.g.f.)+h.A.A.A.A.A.A.A.A.h.g.l.N.h.A.A.A.A.A.A.A.A.}+)+G.S.h.A.A.A.A.A.A.A.h.S.g.N.S.h.A.A.A.A.A.A.A.}+g.g.S.j.h.A.A.A.A.A.A.}+j.S.g.S.u.h.A.A.A.A.A.h.u.u.u.j.u.u.h.A.A.A.A.h.u.j.j.u.u.N.N.S.h.u.N.=@-@",
". ;@5 8.; ; ; ; ; ; ; ; ; ; ; ; ; ; ; ; ; ; ; ; ; ; ; ; ; ; ; ; ; ; ; ; ; ; ; ; ; ; ; ; ; ; ; ; ; ; ; ; ; ; ; ; ; ; ; ; ; ; ; ; ; ; ; ; ; ; ; ; ; ; ; ; 8.; ; ; ; ; ; ; ; ; ; ; 8.8.; ; ; ; ; ; ; ; ; ; 8.>@8.; ; ; ; ; ; ; ; ; ; 8.8.,@; ; ; ; ; ; ; ; ; ; ,@,@; ; ; ; ; ; ; ; ; ; ; ,@; ; ; ; ; ; ; ; ; ; ; ; ; ; ; ; ; ; ; ; ; ; ; ; ; ; ; ; ; ; ; ; ; ; ; ; ; ; ; ; ; ; ; ; ; ; ; ; ; ; 6 ; '@,@)@; !@~@{@]@"};
