<svg width="19" height="19" version="1.1" xmlns="http://www.w3.org/2000/svg">
  <title>Mixxx 1.12+ iconset</title>
  <circle cx="9.5" cy="9.5" r="9.2486782" fill="#ff3d10" style="paint-order:fill markers stroke"/>
  <path d="m5.672102 4.4601975c0.3377344 0 0.6701835 0.1334538 0.9290046 0.3922436l2.8076171 2.8076171 2.8076173-2.8076171c0.517577-0.5175783 1.340431-0.5175783 1.858008 0 0.517579 0.5175782 0.517579 1.340431 0 1.8580092l-2.807616 2.8076171 2.807616 2.8076166c0.517579 0.517578 0.517579 1.340431 0 1.858009-0.517577 0.517579-1.340431 0.517579-1.858008 0l-2.8076173-2.807617-2.8076171 2.807617c-0.5175783 0.517579-1.340431 0.517579-1.8580093 0-0.5175782-0.517578-0.5175782-1.340431 0-1.858009l2.8076172-2.8076166-2.8076172-2.8076171c-0.5175782-0.5175782-0.5175782-1.340431 0-1.8580092 0.2587892-0.2587892 0.5912639-0.3922436 0.9290047-0.3922436z" fill="#fff" stroke-width=".999999"/>
</svg>
