<svg width="32" height="32" version="1.1" viewBox="0 -256 32 32" xmlns="http://www.w3.org/2000/svg">
  <defs>
    <linearGradient id="d" x1="133.3633" x2="109.5902" y1="177.1338" y2="211.49969" gradientUnits="userSpaceOnUse">
      <stop stop-color="#39B54A" offset=".478"/>
      <stop stop-color="#1B75BC" offset="1"/>
    </linearGradient>
    <linearGradient id="b" x1="109.707" x2="85.933998" y1="177.1338" y2="211.49969" gradientUnits="userSpaceOnUse">
      <stop stop-color="#130E1E" offset="0"/>
      <stop stop-color="#1C1426" offset=".0231"/>
      <stop stop-color="#442349" offset=".1446"/>
      <stop stop-color="#652966" offset=".2552"/>
      <stop stop-color="#7C287A" offset=".3511"/>
      <stop stop-color="#8B2688" offset=".4286"/>
      <stop stop-color="#91278F" offset=".478"/>
      <stop stop-color="#ED1C24" offset="1"/>
    </linearGradient>
    <linearGradient id="c" x1="86.048302" x2="62.2743" y1="177.13229" y2="211.49969" gradientUnits="userSpaceOnUse">
      <stop stop-color="#381F1F" offset="0"/>
      <stop stop-color="#3A1F20" offset=".0017"/>
      <stop stop-color="#5B2926" offset=".0376"/>
      <stop stop-color="#7C2F28" offset=".0757"/>
      <stop stop-color="#9B3029" offset=".1173"/>
      <stop stop-color="#B62E28" offset=".1626"/>
      <stop stop-color="#CC2927" offset=".2129"/>
      <stop stop-color="#DC2325" offset=".271"/>
      <stop stop-color="#E81F25" offset=".3438"/>
      <stop stop-color="#ED1C24" offset=".478"/>
      <stop stop-color="#F7931E" offset="1"/>
    </linearGradient>
    <clipPath id="a">
      <path d="m9.6836895-251.249c-1.915489-0.0269-3.7918695 0.71916-5.2090637 2.11846-2.8337363 2.7979-2.870482 7.42095 0.255038 10.50582h0.00174l0.8629367 0.85257 8.4808875 8.3718c0.523722 0.51731 1.371594 0.51731 1.895316 0l8.479141-8.3718 0.864683-0.85257c3.125884-3.08522 3.089911-7.7097 0.255037-10.50754-2.807061-2.77048-7.407723-2.80898-10.531671 0.18675l0.06813 0.0675c-0.02542-0.0251-0.05823-0.0324-0.08385-0.0572-0.02568 0.0247-0.05837 0.0319-0.08385 0.0572l0.06813-0.0675c-1.546904-1.48513-3.444082-2.27706-5.322608-2.30349z" color="#000000" color-rendering="auto" dominant-baseline="auto" image-rendering="auto" shape-rendering="auto" solid-color="#000000" stop-color="#000000" stroke-width=".999996" style="font-feature-settings:normal;font-variant-alternates:normal;font-variant-caps:normal;font-variant-east-asian:normal;font-variant-ligatures:normal;font-variant-numeric:normal;font-variant-position:normal;font-variation-settings:normal;inline-size:0;isolation:auto;mix-blend-mode:normal;paint-order:markers fill stroke;shape-margin:0;shape-padding:0;text-decoration-color:#000000;text-decoration-line:none;text-decoration-style:solid;text-indent:0;text-orientation:mixed;text-transform:none;white-space:normal"/>
    </clipPath>
  </defs>
  <script/>
  <path d="m8.9421188-251.04327c-1.9676113-0.0279-3.8950499 0.74618-5.3508074 2.19807-2.91084495 2.90304-2.94859056 7.69982 0.2619779 10.90062h0.00179l0.886418 0.88461 8.7116607 8.68641c0.537973 0.53675 1.408917 0.53675 1.94689 0l8.709866-8.68641 0.888212-0.88461c3.210943-3.20116 3.173991-7.99943 0.261977-10.90241-2.883444-2.87459-7.609294-2.91454-10.818248 0.19377l0.06998 0.07c-0.02611-0.026-0.05982-0.0336-0.08613-0.0593-0.02638 0.0256-0.05996 0.0331-0.08613 0.0593l0.06998-0.07c-1.588996-1.54094-3.537798-2.36263-5.4674412-2.39005z" color="#000000" color-rendering="auto" dominant-baseline="auto" fill="#fff" image-rendering="auto" shape-rendering="auto" solid-color="#000000" stop-color="#000000" style="font-feature-settings:normal;font-variant-alternates:normal;font-variant-caps:normal;font-variant-east-asian:normal;font-variant-ligatures:normal;font-variant-numeric:normal;font-variant-position:normal;font-variation-settings:normal;inline-size:0;isolation:auto;mix-blend-mode:normal;paint-order:markers fill stroke;shape-margin:0;shape-padding:0;text-decoration-color:#000000;text-decoration-line:none;text-decoration-style:solid;text-indent:0;text-orientation:mixed;text-transform:none;white-space:normal"/>
  <g transform="matrix(.92045465 0 0 .92045465 .59865235 -18.505006)" clip-path="url(#a)">
    <path d="m9.5384206-251.63957c-1.9676113-0.0279-3.8950499 0.74618-5.3508074 2.19807-2.9108449 2.90304-2.9485905 7.69982 0.2619779 10.90062h0.00179l0.886418 0.88461 8.7116609 8.68641c0.537973 0.53675 1.408917 0.53675 1.94689 0l8.709866-8.68641 0.888212-0.88461c3.210943-3.20116 3.173991-7.99943 0.261977-10.90241-2.883444-2.87459-7.609294-2.91454-10.818248 0.19377l0.06998 0.07c-0.02611-0.026-0.05982-0.0336-0.08613-0.0593-0.02638 0.0256-0.05996 0.0331-0.08613 0.0593l0.06998-0.07c-1.588996-1.54094-3.537798-2.36263-5.4674414-2.39005z" color="#000000" color-rendering="auto" dominant-baseline="auto" fill="#fff" image-rendering="auto" shape-rendering="auto" solid-color="#000000" stop-color="#000000" stroke-width="1.18031" style="font-feature-settings:normal;font-variant-alternates:normal;font-variant-caps:normal;font-variant-east-asian:normal;font-variant-ligatures:normal;font-variant-numeric:normal;font-variant-position:normal;font-variation-settings:normal;inline-size:0;isolation:auto;mix-blend-mode:normal;paint-order:markers fill stroke;shape-margin:0;shape-padding:0;text-decoration-color:#000000;text-decoration-line:none;text-decoration-style:solid;text-indent:0;text-orientation:mixed;text-transform:none;white-space:normal"/>
    <polygon transform="matrix(1.0804998 0 0 .74068909 -107.08354 -384.90309)" points="114.823 211.636 104.378 211.636 127.999 177.19 138.439 177.19" fill="url(#d)" stroke-width="2.51316"/>
    <polygon transform="matrix(1.0804998 0 0 .74068909 -68.276289 -395.15699)" points="80.68 177.19 91.126 177.19 67.51 211.636 57.062 211.636" fill="url(#c)" stroke-width="2.51316"/>
    <polygon transform="matrix(1.0804998 0 0 .74068909 -88.251713 -389.46476)" points="80.722 211.636 104.342 177.19 114.783 177.19 91.167 211.636" fill="url(#b)" stroke-width="2.51316"/>
  </g>
</svg>
