<svg width="32" height="32" version="1.1" viewBox="0 -256 32 32" xmlns="http://www.w3.org/2000/svg">
  <script/>
  <path d="m8.9421188-251.04327c-1.9676113-0.0279-3.8950499 0.74618-5.3508074 2.19807-2.91084495 2.90304-2.94859056 7.69982 0.2619779 10.90062h0.00179l0.886418 0.88461 8.7116607 8.68641c0.537973 0.53675 1.408917 0.53675 1.94689 0l8.709866-8.68641 0.888212-0.88461c3.210943-3.20116 3.173991-7.99943 0.261977-10.90241-2.883444-2.87459-7.609294-2.91454-10.818248 0.19377l0.06998 0.07c-0.02611-0.026-0.05982-0.0336-0.08613-0.0593-0.02638 0.0256-0.05996 0.0331-0.08613 0.0593l0.06998-0.07c-1.588996-1.54094-3.537798-2.36263-5.4674412-2.39005z" color="#000000" color-rendering="auto" dominant-baseline="auto" image-rendering="auto" shape-rendering="auto" solid-color="#000000" stop-color="#000000" style="font-feature-settings:normal;font-variant-alternates:normal;font-variant-caps:normal;font-variant-east-asian:normal;font-variant-ligatures:normal;font-variant-numeric:normal;font-variant-position:normal;font-variation-settings:normal;inline-size:0;isolation:auto;mix-blend-mode:normal;paint-order:markers fill stroke;shape-margin:0;shape-padding:0;text-decoration-color:#000000;text-decoration-line:none;text-decoration-style:solid;text-indent:0;text-orientation:mixed;text-transform:none;white-space:normal"/>
</svg>
