<?xml version="1.0" encoding="UTF-8" standalone="no"?>
<!-- Created with Inkscape (http://www.inkscape.org/) -->

<svg
   xmlns:dc="http://purl.org/dc/elements/1.1/"
   xmlns:cc="http://creativecommons.org/ns#"
   xmlns:rdf="http://www.w3.org/1999/02/22-rdf-syntax-ns#"
   xmlns:svg="http://www.w3.org/2000/svg"
   xmlns="http://www.w3.org/2000/svg"
   xmlns:sodipodi="http://sodipodi.sourceforge.net/DTD/sodipodi-0.dtd"
   xmlns:inkscape="http://www.inkscape.org/namespaces/inkscape"
   width="32"
   height="32"
   viewBox="0 0 8.4666669 8.4666662"
   version="1.1"
   id="svg8"
   inkscape:version="0.92.4 5da689c313, 2019-01-14"
   sodipodi:docname="ic_custom.svg">
  <defs
     id="defs2" />
  <sodipodi:namedview
     id="base"
     pagecolor="#ffffff"
     bordercolor="#666666"
     borderopacity="1.0"
     inkscape:pageopacity="0.0"
     inkscape:pageshadow="2"
     inkscape:zoom="22.4"
     inkscape:cx="5.8672002"
     inkscape:cy="24.59093"
     inkscape:document-units="mm"
     inkscape:current-layer="layer1"
     showgrid="false"
     fit-margin-top="0"
     fit-margin-left="0"
     fit-margin-right="0"
     fit-margin-bottom="0"
     inkscape:window-width="1896"
     inkscape:window-height="2102"
     inkscape:window-x="16"
     inkscape:window-y="38"
     inkscape:window-maximized="0" />
  <metadata
     id="metadata5">
    <rdf:RDF>
      <cc:Work
         rdf:about="">
        <dc:format>image/svg+xml</dc:format>
        <dc:type
           rdf:resource="http://purl.org/dc/dcmitype/StillImage" />
        <dc:title></dc:title>
      </cc:Work>
    </rdf:RDF>
  </metadata>
  <g
     inkscape:label="Ebene 1"
     inkscape:groupmode="layer"
     id="layer1"
     transform="translate(-43.381965,-122.49859)">
    <path
       style="fill:#000000;stroke-width:0.01701626"
       d="m 44.015975,127.01486 c 0.441248,0.10389 0.410779,0.0912 0.423871,0.17684 0.04426,0.28965 0.190689,0.76544 0.303216,0.9853 0.02913,0.057 0.05219,0.1115 0.05125,0.12129 -9.44e-4,0.0101 -0.11494,0.13136 -0.253325,0.27016 -0.138384,0.13879 -0.257331,0.25998 -0.264324,0.26932 -0.007,0.01 0.140753,0.20301 0.328323,0.43041 l 0.341039,0.41345 0.313691,-0.21043 c 0.17253,-0.11574 0.32117,-0.2097 0.330309,-0.20884 0.0092,8.8e-4 0.05715,0.0334 0.10668,0.0722 0.162531,0.12748 0.444076,0.28678 0.714451,0.40422 0.212848,0.0925 0.266717,0.12236 0.270428,0.1501 0.0026,0.0191 0.01109,0.19114 0.019,0.38242 l 0.01435,0.34779 0.542631,0.0478 0.542631,0.0477 0.09011,-0.3674 c 0.04956,-0.20208 0.09086,-0.36927 0.09175,-0.37154 9.07e-4,-0.002 0.02126,-0.002 0.04524,7e-5 0.04522,0.004 0.301939,-0.0496 0.325286,-0.0684 0.0073,-0.006 -0.122018,-0.22743 -0.287376,-0.49237 -0.218984,-0.35086 -0.30952,-0.48192 -0.333302,-0.48248 -0.01795,-4.5e-4 -0.09451,0.002 -0.170123,0.006 -0.164217,0.01 -0.389278,-0.0258 -0.618808,-0.095 -1.186662,-0.35809 -1.840444,-1.67392 -1.407057,-2.83191 0.141756,-0.37878 0.354119,-0.67257 0.676054,-0.93532 0.348552,-0.28448 0.762649,-0.45066 1.208108,-0.48485 0.193773,-0.0149 0.537214,0.0193 0.73384,0.0728 0.685119,0.18679 1.256728,0.72538 1.486881,1.40098 0.100167,0.29404 0.131614,0.59664 0.09837,0.94653 l -0.02172,0.22868 0.424453,0.42347 0.424454,0.42347 0.04484,-0.0771 c 0.02466,-0.0425 0.05916,-0.1247 0.07666,-0.18287 0.01751,-0.0581 0.03619,-0.10586 0.04153,-0.10599 0.0053,-1.3e-4 0.175918,-0.01 0.379064,-0.0191 l 0.369357,-0.0188 0.05213,-0.54104 0.05213,-0.54103 -0.361469,-0.11488 c -0.198807,-0.0632 -0.364296,-0.11831 -0.367753,-0.12251 -0.0034,-0.004 -0.02444,-0.098 -0.04662,-0.20839 -0.05372,-0.26738 -0.1542,-0.58204 -0.255389,-0.79973 l -0.08261,-0.17772 0.271584,-0.27409 0.271584,-0.27407 -0.342358,-0.41536 -0.342358,-0.41537 -0.314454,0.21094 c -0.172951,0.11602 -0.321409,0.21027 -0.32991,0.20945 -0.0085,-8.1e-4 -0.06397,-0.0382 -0.123284,-0.0831 -0.165778,-0.12544 -0.420474,-0.27167 -0.658036,-0.3778 -0.118497,-0.0529 -0.226861,-0.0976 -0.240809,-0.0992 -0.06418,-0.007 -0.07054,-0.0375 -0.08748,-0.41294 l -0.01691,-0.3749 -0.542041,-0.0568 -0.542042,-0.0567 -0.08289,0.36406 c -0.0456,0.20024 -0.08825,0.38032 -0.09481,0.40019 -0.0094,0.0284 -0.03836,0.0411 -0.136587,0.0598 -0.325703,0.0621 -0.673941,0.17173 -0.928316,0.29226 l -0.134288,0.0637 -0.116953,-0.11744 c -0.06431,-0.0645 -0.186865,-0.18728 -0.272315,-0.27265 l -0.155365,-0.15523 -0.415936,0.34284 -0.415937,0.34283 0.210942,0.31445 c 0.116018,0.17295 0.210272,0.32141 0.209453,0.32991 -8.18e-4,0.008 -0.03822,0.064 -0.08311,0.12328 -0.125007,0.16518 -0.264343,0.40806 -0.374701,0.65318 -0.05499,0.12213 -0.101149,0.23307 -0.102592,0.24655 -0.0068,0.0631 -0.03815,0.0697 -0.412637,0.0867 l -0.374902,0.0169 -0.05676,0.54239 -0.05676,0.54241 z m 2.106666,-0.50477 c 0.0058,0.26039 0.08734,0.54454 0.216342,0.75382 0.280163,0.45452 0.875076,0.69894 1.423062,0.58467 l 0.09712,-0.0202 0.120557,0.1157 c 0.829702,0.97849 1.288529,1.51877 2.220836,2.67973 0.243453,0.27387 1.061484,-0.47479 0.888274,-0.68774 -1.338712,-1.45629 -1.38928,-1.53146 -2.376116,-2.71453 -0.08922,-0.12512 -0.07867,-0.12306 -0.04007,-0.22729 0.120265,-0.32478 0.08865,-0.76414 -0.07779,-1.08087 -0.170978,-0.32537 -0.421621,-0.5388 -0.762311,-0.64913 -0.194783,-0.063 -0.510823,-0.0785 -0.699741,-0.0342 -0.07695,0.018 -0.146638,0.0383 -0.154842,0.0449 -0.0082,0.007 0.164889,0.16622 0.384655,0.35468 0.49216,0.42206 0.525953,0.45493 0.562238,0.54693 0.03642,0.0923 0.0262,0.22338 -0.0234,0.30028 -0.07422,0.11504 -0.416009,0.51942 -0.471167,0.55745 -0.09441,0.0651 -0.241436,0.0599 -0.360843,-0.0125 -0.03012,-0.0182 -0.245552,-0.19802 -0.478719,-0.39944 -0.233165,-0.20141 -0.427686,-0.36311 -0.432267,-0.35934 -0.01279,0.0105 -0.03731,0.17979 -0.03581,0.24715 z"
       id="path4583"
       inkscape:connector-curvature="0"
       sodipodi:nodetypes="cscccccccccccccccccccscccssccscccccscccccccsscccccsccscscccscccccccccsccccccccccsscccccsccscsccccccc" />
  </g>
</svg>
