<svg xmlns="http://www.w3.org/2000/svg" height="48" width="236" viewBox="0 0 236 48.000001"><g fill="#fff"><path d="M137.32 4.042l27.411 39.985h12.132l-27.423-39.985zM164.778 4.042l27.423 39.985h12.132l-27.423-39.985zM192.247 4.042l27.423 39.985h12.121l-27.423-39.985zM122.808 4.042h10.372v39.991h-10.372zM81.232 44.026v-23.417l13.143 19.946h.267l13.27-20.143v23.615h10.31v-39.985h-11.18l-12.399 19.934-12.399-19.934h-11.18v39.985zM171.536 34.181l6.063 8.843 6.25-9.116-6.063-8.841-6.25 9.114zm-13.733-20.031l6.064 8.846 6.249-9.114-6.065-8.843-6.247 9.112zm61.871-10.113l-6.938 10.117 6.062 8.84 12.997-18.957h-12.121zm-82.359 39.991h12.131l6.935-10.115-6.065-8.846-13.001 18.96zm61.689-9.848l6.063 8.841 6.247-9.112-6.063-8.841-6.247 9.112zm-13.732-20.027l6.062 8.84 6.247-9.112-6.062-8.839-6.247 9.11z"/><path style="text-decoration-color:#000000;isolation:auto;mix-blend-mode:normal;solid-color:#000000;block-progression:tb;text-decoration-line:none;text-decoration-style:solid;white-space:normal;text-indent:0;text-transform:none" d="M22.4 10c-1.307 0-2.375 1.068-2.375 2.375v8.25c0 1.307 1.068 2.375 2.375 2.375h7.25c1.307 0 2.375-1.068 2.375-2.375v-8.25c0-1.307-1.068-2.375-2.375-2.375h-7.25zm3.303 1.998h.643c.376 0 .68.304.68.68v7.643c0 .376-.304.678-.68.678h-.643c-.376 0-.678-.302-.678-.678v-7.643c0-.376.302-.68.678-.68zm-19.107-7.998c-1.416 0-2.57 1.092-2.57 2.432v30.135c0 1.339 1.155 2.434 2.57 2.434h38.857c1.416 0 2.572-1.094 2.572-2.434v-30.135c0-1.339-1.156-2.432-2.572-2.432h-38.857zm12.805 4h13.25c1.307 0 2.375 1.068 2.375 2.375v6.625h6.688c.719 0 1.313.594 1.313 1.313v.375c0 .718-.594 1.313-1.313 1.313h-6.688v5.625c0 1.307-1.068 2.375-2.375 2.375h-13.25c-1.307 0-2.375-1.068-2.375-2.375v-5.625h-6.688c-.719 0-1.313-.594-1.313-1.313v-.375c0-.719.594-1.313 1.313-1.313h6.688v-6.625c0-1.307 1.068-2.375 2.375-2.375zm-9.375 21.998h1v6h-1v-6zm4 0h1v5h-1v-5zm4 0h1v4h-1v-4zm4 0h1v3h-1v-3zm4 0h1v6h-1v-6zm4 0h1v3h-1v-3zm4 0h1v4h-1v-4zm3 0h1v5h-1v-5zm4 0h1v6h-1v-6zm-37 8.43v3c0 1.417 1.16 2.572 2.578 2.572h38.844c1.418 0 2.578-1.155 2.578-2.572v-3c0 1.416-1.156 2.572-2.572 2.572h-38.857c-1.416 0-2.57-1.156-2.57-2.572z" color="#000"/></g></svg>