<?xml version="1.0" encoding="UTF-8" standalone="no"?>
<svg
   height="48"
   width="236"
   viewBox="0 0 236 48.000001"
   version="1.1"
   id="svg3313"
   sodipodi:docname="mixxx-icon-logo-christmas.svg"
   inkscape:version="1.1.2 (0a00cf5339, 2022-02-04)"
   xml:space="preserve"
   inkscape:export-filename="mixxx-icon-logo-christmas.svg"
   inkscape:export-xdpi="300"
   inkscape:export-ydpi="300"
   xmlns:inkscape="http://www.inkscape.org/namespaces/inkscape"
   xmlns:sodipodi="http://sodipodi.sourceforge.net/DTD/sodipodi-0.dtd"
   xmlns="http://www.w3.org/2000/svg"
   xmlns:svg="http://www.w3.org/2000/svg"><defs
     id="defs3317"><linearGradient
       id="swatch15"
       inkscape:swatch="solid"><stop
         style="stop-color:#ffffff;stop-opacity:1;"
         offset="0"
         id="stop15" /></linearGradient></defs><sodipodi:namedview
     id="namedview3315"
     pagecolor="#5d5d5d"
     bordercolor="#666666"
     borderopacity="1.0"
     inkscape:pageshadow="2"
     inkscape:pageopacity="0.0"
     inkscape:pagecheckerboard="0"
     showgrid="false"
     inkscape:zoom="15.891925"
     inkscape:cx="52.605332"
     inkscape:cy="19.380912"
     inkscape:window-width="2544"
     inkscape:window-height="1331"
     inkscape:window-x="26"
     inkscape:window-y="23"
     inkscape:window-maximized="0"
     inkscape:current-layer="svg3313"
     inkscape:showpageshadow="2"
     inkscape:deskcolor="#606060"
     inkscape:export-bgcolor="#4d4d4dc1" /><g
     id="g3"
     style="display:inline"
     transform="matrix(0.87716006,0,0,0.87716006,-11.565451,1.16894)"><path
       style="fill:#a40d0d;fill-opacity:1;stroke-width:0.623622"
       d="m 242.2614,6.0408037 c 4.09013,-3.4923396 9.75338,-7.2363794 11.82991,-7.330767 2.07652,-0.094388 4.31036,0.88095055 6.10373,2.07652629 1.79336,1.19557571 3.42941,2.76870171 3.96427,4.31036521 0.53487,1.5416634 0.72364,11.5782068 0.72364,11.5782068 0,0 -2.23384,-0.09439 -2.20237,-0.2517 0.0315,-0.157312 -1.13266,-4.37329 -1.76191,-5.443016 -0.62925,-1.0697254 -0.56632,-0.346087 -0.56632,-0.346087 0,0 0.0315,2.737239 -0.81803,4.404752 -0.84948,1.667514 -17.27292,-8.9982803 -17.27292,-8.9982803 z"
       id="path3" /><path
       style="fill:#dadade;fill-opacity:1;stroke-width:0.623622"
       d="m 240.87705,6.481279 c 2.0136,-1.8248261 3.17772,-1.1011882 5.00254,-0.5034003 2.77981,0.910629 11.90856,6.2925033 13.48169,8.1802553 1.71289,2.055455 1.14838,3.775502 0.26743,5.600328 -0.88095,1.824826 -1.63605,3.649652 -4.09013,3.586727 -2.45407,-0.06292 -7.7452,-1.720305 -11.85978,-4.549032 -3.66247,-2.517905 -6.01093,-4.700948 -5.88508,-6.588699 0.12585,-1.887752 3.08333,-5.726179 3.08333,-5.726179 z"
       id="path1"
       sodipodi:nodetypes="cssssssc" /><path
       style="display:inline;fill:#dadade;fill-opacity:1;stroke-width:0.623622"
       d="m 263.53006,15.85711 c 2.61139,0 3.86989,1.289963 3.96428,3.051864 0.0944,1.761901 -1.10119,3.397952 -3.36649,3.586727 -2.2653,0.188776 -3.90135,-1.447275 -3.86989,-3.272102 0.0315,-1.824826 1.28996,-3.303564 3.2721,-3.366489 z"
       id="path2" /><path
       style="fill:#b0b0b0;fill-opacity:1;stroke-width:0.623622"
       d="m 239.05222,13.371571 c 0.72364,-0.692176 4.75368,-0.08139 10.72818,3.706253 5.13168,3.253312 6.4984,4.946594 6.21524,5.449995 -0.28316,0.5034 -3.51565,0.732266 -10.82666,-3.5575 -4.54624,-2.667529 -6.49431,-5.032423 -6.11676,-5.598748 z"
       id="path4"
       sodipodi:nodetypes="csssc" /><path
       style="fill:#ffffff;fill-opacity:1;stroke-width:0.623622"
       d="m 244.59153,5.4023382 c -0.7551,-0.062925 -1.5121,0.2294528 -2.55037,2.2745166 -1.03826,2.0450637 -2.0136,4.3418272 -0.94387,4.6879152 1.06972,0.346088 5.88772,2.090795 8.84004,3.856858 4.72832,2.828464 6.92275,5.573432 7.22268,5.863152 0.28357,0.273909 0.76242,0.736671 1.61191,-0.679143 0.84949,-1.415813 2.02167,-3.961769 1.70628,-5.548527 -0.28986,-1.458335 -1.75125,-3.73551 -6.70151,-6.5127417 -4.92027,-2.7604053 -7.87256,-3.7751749 -9.18516,-3.9420301 z"
       id="path5"
       sodipodi:nodetypes="csssssssc" /><path
       style="fill:#ffffff;fill-opacity:1;stroke-width:0.623622"
       d="m 265.10319,16.10881 c -2.35969,-0.283163 -3.61819,1.069726 -3.68112,2.548464 -0.0629,1.478738 0.62925,3.083327 2.51701,3.24064 1.88775,0.157312 3.36649,-0.755101 3.46087,-2.265302 0.0944,-1.510201 -0.72363,-3.397952 -2.29676,-3.523802 z"
       id="path6" /><path
       style="fill:#7c0a0a;fill-opacity:1;stroke-width:0.623622"
       d="m 260.41527,10.256781 c -0.0315,-2.6113888 -2.04506,-5.5059406 -3.80696,-6.7015163 -1.7619,-1.1955757 -2.61139,-1.9192137 -2.23384,-2.2653014 0.37755,-0.34608771 6.57567,1.7619011 7.33077,3.6811148 0.7551,1.9192137 0.12585,8.4319549 0.12585,8.4319549 0,0 -0.56633,-2.013601 -0.88095,-2.359689 -0.31463,-0.346087 -0.53487,-0.786563 -0.53487,-0.786563 z"
       id="path7" /><path
       style="fill:#7c0a0a;fill-opacity:1;stroke-width:0.623622"
       d="m 244.96974,3.8530407 c 3.24064,-0.3775503 7.80014,1.3697375 8.17769,0.9607248 0.37755,-0.4090128 -1.83279,-3.96302389 -3.09129,-3.99448639 -1.2585,-0.031463 -5.0864,3.03376159 -5.0864,3.03376159 z"
       id="path8"
       sodipodi:nodetypes="cssc" /></g><g
     fill="#bbb"
     id="g3311"><path
       d="m 134.28237,9.9104093 23.45248,34.2106187 h 10.37997 L 144.65208,9.9104093 Z m 23.49269,0 23.46274,34.2106187 h 10.37998 L 168.15503,9.9104093 Z m 23.5021,0 23.46274,34.2106187 h 10.37056 L 191.64772,9.9104093 Z m -59.41106,0 h 8.87414 V 44.126161 H 121.8661 Z M 86.294253,44.120172 V 24.084907 l 11.244971,17.065525 h 0.228442 L 109.12129,23.916357 v 20.204671 h 8.8211 V 9.9104093 h -9.56545 L 97.768521,26.965667 87.160107,9.9104093 c 4.41451,1.9646457 -4.796399,0.4084267 -9.565455,0 V 44.121028 Z m 77.262857,-8.423247 5.18742,7.565949 5.34742,-7.799524 -5.18742,-7.564238 z m -11.74976,-17.138249 5.18827,7.568517 5.34656,-7.797814 -5.18913,-7.56595 -5.34484,7.796103 z m 50.99834,-4.915756 -3.99842,4.919179 5.18657,7.563382 5.88769,-8.448108 c -2.31579,-1.612219 -4.59267,-2.999726 -7.07584,-4.034453 z M 134.2781,44.121883 h 10.37912 l 5.93348,-8.654255 -5.18913,-7.568516 -11.12347,16.221916 z m 52.78026,-8.425814 5.18742,7.564239 5.34485,-7.796102 -5.18742,-7.564239 z m -11.74891,-17.134827 5.18656,7.563384 5.34485,-7.796103 -5.18657,-7.562527 -5.34484,7.794391 z"
       id="path3307"
       style="stroke-width:0.855586"
       sodipodi:nodetypes="ccccccccccccccccccccccccccccccccccccccccccccccccccccccccccccccccccc" /><path
       style="text-indent:0;text-decoration-line:none;text-decoration-style:solid;text-decoration-color:#000000;text-transform:none;white-space:normal;isolation:auto;mix-blend-mode:normal;solid-color:#000000;stroke-width:0.8554"
       d="m 35.71712,15.0424 c -1.118008,0 -2.031575,0.913567 -2.031575,2.031575 v 7.05705 c 0,1.118008 0.913567,2.031575 2.031575,2.031575 h 6.20165 c 1.118007,0 2.031575,-0.913567 2.031575,-2.031575 v -7.05705 c 0,-1.118008 -0.913568,-2.031575 -2.031575,-2.031575 z m 2.825386,1.709089 h 0.550022 c 0.32163,0 0.581672,0.260042 0.581672,0.581672 v 6.537822 c 0,0.321631 -0.260042,0.579962 -0.581672,0.579962 h -0.550022 c -0.321631,0 -0.579961,-0.258331 -0.579961,-0.579962 v -6.537822 c 0,-0.32163 0.25833,-0.581672 0.579961,-0.581672 z M 22.198378,9.91 C 20.987132,9.91 20,10.844097 20,11.990333 v 25.777479 c 0,1.14538 0.987987,2.082043 2.198378,2.082043 h 33.238278 c 1.211246,0 2.200089,-0.935807 2.200089,-2.082043 V 11.990333 C 57.636745,10.844952 56.647902,9.91 55.436656,9.91 Z m 10.953397,3.4216 h 11.33405 c 1.118008,0 2.031575,0.913567 2.031575,2.031575 V 21.0302 h 5.720915 c 0.615033,0 1.12314,0.508108 1.12314,1.12314 v 0.320775 c 0,0.614177 -0.508107,1.12314 -1.12314,1.12314 H 46.5174 v 4.811625 c 0,1.118008 -0.913567,2.031575 -2.031575,2.031575 h -11.33405 c -1.118008,0 -2.031575,-0.913567 -2.031575,-2.031575 v -4.811625 h -5.720915 c -0.615033,0 -1.12314,-0.508107 -1.12314,-1.12314 V 22.15334 c 0,-0.615032 0.508107,-1.12314 1.12314,-1.12314 H 31.1202 v -5.667025 c 0,-1.118008 0.913567,-2.031575 2.031575,-2.031575 z M 25.1324,32.148689 h 0.8554 v 5.1324 h -0.8554 z m 3.4216,0 h 0.8554 v 4.277 H 28.554 Z m 3.4216,0 h 0.8554 v 3.4216 h -0.8554 z m 3.4216,0 h 0.8554 v 2.5662 h -0.8554 z m 3.4216,0 h 0.8554 v 5.1324 h -0.8554 z m 3.4216,0 h 0.8554 v 2.5662 h -0.8554 z m 3.4216,0 h 0.8554 v 3.4216 H 45.662 Z m 2.5662,0 h 0.8554 v 4.277 h -0.8554 z m 3.4216,0 h 0.8554 v 5.1324 H 51.6498 Z M 20,39.359711 v 2.5662 c 0,1.212102 0.992264,2.200089 2.205221,2.200089 h 33.227158 c 1.212957,0 2.205221,-0.987987 2.205221,-2.200089 v -2.5662 c 0,1.211247 -0.988842,2.200089 -2.200089,2.200089 H 22.199233 c -1.211246,0 -2.198378,-0.988842 -2.198378,-2.200089 z"
       color="#000000"
       id="path3309" /></g><path
     style="fill:#b7c5d9;fill-opacity:1;stroke-width:0.515197;stroke-dasharray:none"
     d="m 19.875095,9.4789058 c -0.18216,0.3350882 -0.445295,0.7951102 -0.312248,1.1928992 0.608888,1.820488 0.937328,-0.440619 1.977562,-0.02593 0.332983,0.132744 0.862261,1.281879 1.301026,1.063237 0.753367,-0.375409 1.023855,-1.486897 1.925521,-1.7115513 0.384445,-0.095786 0.619699,1.1151013 1.170926,1.1151013 0.402334,0 0.682869,-0.542132 1.118883,-0.59645 0.454709,-0.05664 0.80864,0.20796 1.222966,0.311191 0.469393,0.116952 0.99845,-0.34768 1.457152,-0.233393 0.519549,0.129449 0.473513,2.870378 3.694917,2.411731 0.643262,-0.09158 0.386323,-1.242778 0.910719,-1.50409 0.130853,-0.06521 0.689604,0.521562 0.858677,0.596451 0.311377,0.137921 1.213785,-0.0826 1.561233,-0.181529 0.619924,-0.176523 0.890933,-1.507377 1.37909,-1.426294 0.468952,0.0779 0.960035,0.49682 1.40511,0.674248 0.41157,0.164073 0.858332,0.02582 1.248985,0.155596 0.960481,0.319078 1.876595,1.018073 2.862261,1.244764 0.711065,0.163538 0.927386,-0.449362 1.535211,-0.570516 0.779111,-0.155295 1.663988,0.711847 2.393892,0.777978 0.671963,0.06088 0.882709,-0.591375 1.48317,-0.70018 0.571841,-0.103615 1.083386,0.20881 1.639296,0.129663 0.311906,-0.04441 0.520006,-0.352765 0.858678,-0.285259 0.728033,0.145115 1.248991,0.744066 2.029602,0.80391 0.819793,0.06285 1.416697,-0.942792 2.289809,-0.855775 0.532166,0.05303 1.850526,0.376761 2.055623,-0.440855 C 58.26233,10.151468 55.3399,8.9703875 54.508444,8.8046582 53.844983,8.6724146 53.116856,9.1451511 52.478841,8.9861864 52.020051,8.8718767 51.826491,8.4247203 51.281895,8.5453322 50.879037,8.6345537 50.530179,8.9339625 50.110971,8.9861864 48.733068,9.157842 47.550586,8.2123613 46.20789,8.0785455 45.24927,7.9830076 44.455031,8.9811319 43.579812,8.8565233 42.815681,8.7477307 42.536112,7.7706491 41.784395,7.6636239 41.281233,7.591987 40.986986,8.2165768 40.58745,8.4156692 40.418206,8.5000056 39.397245,7.666889 39.10428,7.6376913 38.318443,7.5593734 38.055864,8.360131 37.386922,8.4934671 36.830552,8.6043648 36.154041,7.5811615 35.409361,7.6636239 34.864957,7.7239086 34.447336,8.3183305 33.874149,8.3897367 33.154388,8.4794025 32.478184,8.0716771 31.766484,8.0007477 30.748734,7.8993162 29.661302,8.2046804 28.617997,8.1304107 28.103539,8.0937878 27.635028,7.8128134 27.108806,7.8710845 26.251111,7.9660624 25.443695,8.5452813 24.610833,8.752793 24.08276,8.8843653 23.661794,8.7451561 23.179704,8.6490628 22.088418,8.4315436 20.684961,9.0176888 19.875095,9.4789058 Z"
     id="path10" /><path
     style="fill:#ffffff;fill-opacity:1;stroke-width:0.483235;stroke-dasharray:none"
     d="m 20.184139,8.8871836 c -0.179447,0.2992594 -0.438661,0.7100937 -0.307597,1.0653502 0.599819,1.6258342 0.923371,-0.3935066 1.948112,-0.02316 0.328024,0.1185502 0.84942,1.1448152 1.281652,0.9495522 0.742148,-0.335269 1.008609,-1.3279132 1.896846,-1.5285468 0.37872,-0.085545 0.610471,0.9958708 1.153489,0.9958708 0.396342,0 0.6727,-0.4841653 1.10222,-0.5326752 0.447938,-0.050591 0.796599,0.1857238 1.204754,0.2779172 0.462401,0.104447 0.983582,-0.3105052 1.435452,-0.2084376 0.511812,0.1156071 0.466462,2.5634666 3.639894,2.1538606 0.633682,-0.08179 0.38057,-1.109897 0.897157,-1.343267 0.128904,-0.05824 0.679335,0.465794 0.845889,0.532675 0.306742,0.123176 1.195711,-0.07377 1.537984,-0.162119 0.610692,-0.157648 0.877666,-1.3462036 1.358552,-1.2737888 0.46197,0.069565 0.945741,0.4436978 1.384186,0.6021558 0.405441,0.146528 0.845552,0.02306 1.230387,0.138958 0.946176,0.284961 1.848647,0.909216 2.819635,1.11167 0.700477,0.146052 0.913575,-0.401315 1.51235,-0.509515 0.767509,-0.138692 1.639206,0.635734 2.358242,0.694793 0.661957,0.05437 0.869564,-0.528141 1.461083,-0.625314 0.563325,-0.09253 1.067252,0.186484 1.614884,0.115799 0.307261,-0.03965 0.512263,-0.315044 0.84589,-0.254758 0.717192,0.129599 1.23039,0.664509 1.999379,0.717954 0.807584,0.05612 1.395599,-0.841985 2.255708,-0.764273 0.524243,0.04736 1.822969,0.336476 2.025011,-0.393717 C 57.99972,9.4878337 55.120809,8.4330379 54.301735,8.2850291 53.648155,8.1669254 52.930871,8.5891152 52.302356,8.4471478 51.850399,8.3450605 51.659722,7.9457156 51.123237,8.0534313 50.726378,8.133113 50.382714,8.4005077 49.96975,8.4471478 48.612367,8.6004492 47.447491,7.7560628 46.12479,7.6365551 45.180447,7.5512325 44.398036,8.4426336 43.535852,8.3313488 42.783099,8.2341884 42.507693,7.36158 41.767172,7.2659984 41.271504,7.202021 40.981636,7.7598275 40.58805,7.9376324 40.421326,8.012952 39.41557,7.2689143 39.126966,7.2428386 38.352833,7.1728947 38.094165,7.8880325 37.435185,8.0071118 36.887099,8.1061526 36.220663,7.1923531 35.487072,7.2659984 34.950774,7.3198379 34.539374,7.8507014 33.974722,7.9144726 33.265681,7.994551 32.599545,7.6304211 31.898445,7.5670757 30.895852,7.4764898 29.824612,7.7492033 28.796844,7.6828747 28.290047,7.6501681 27.828513,7.399236 27.310127,7.4512766 c -0.844922,0.084823 -1.640313,0.6021092 -2.460773,0.7874331 -0.52021,0.1175041 -0.934905,-0.00683 -1.409818,-0.09264 -1.075032,-0.1942611 -2.457591,0.3292111 -3.255397,0.7411135 z"
     id="path10-3" /><path
     style="fill:#b7c5d9;fill-opacity:1;stroke-width:0.624;stroke-dasharray:none"
     d="m 78.132731,9.6108599 c -3.141801,0.6337811 -0.920443,2.5029931 -0.511689,4.1380091 0.13035,0.5214 0.05378,2.107018 0.556184,2.35822 0.508133,0.254067 0.866976,-0.510346 1.023379,-0.823152 0.264851,-0.529702 0.289215,-1.158207 0.289215,-1.735294 0,-0.07742 -0.06674,-0.299897 -0.06674,-0.222474 0,0.478751 1.353024,-0.627951 1.468326,-0.800905 0.262105,-0.393158 0.131181,-1.273085 0.734163,-1.423831 0.541043,-0.135261 1.194712,0.671321 1.713047,0.800905 1.163114,0.290779 1.805439,-1.200979 3.003394,-1.067873 0.671257,0.07458 2.567729,1.24025 2.936651,0.133484 C 89.535509,10.1974 87.976341,10.43915 87.743591,10.322775 87.52509,10.213525 87.46732,9.7974686 87.254149,9.6553546 86.25914,8.9920153 85.416448,9.7687988 84.428735,9.5218705 81.261737,8.730121 81.18258,7.4323969 78.132731,9.6108599 Z"
     id="path15" /><path
     style="fill:#b7c5d9;fill-opacity:1;stroke-width:0.624;stroke-dasharray:none"
     d="m 108.12217,9.8778282 c -0.64284,-0.092438 -1.85992,0.6829698 -0.86764,1.1791098 0.80411,0.402058 1.61958,-0.365962 2.38046,-0.556184 0.77492,-0.193729 1.57876,0.582005 2.35822,0.711916 0.44501,0.07417 0.80856,-0.368038 1.24586,-0.4227 0.23082,-0.02885 3.28042,0.07177 3.31485,0.08899 0.70359,0.351794 0.82819,1.218574 1.7353,0.311464 1.26596,-1.2659653 -0.56027,-2.2935219 -1.57956,-2.8031679 -1.86859,-0.9342914 -3.19102,1.0859177 -4.80543,1.6240569 -0.98531,0.328436 -0.72096,-0.8039168 -1.3126,-1.0011308 -0.47561,-0.1585367 -1.82039,0.7053803 -2.46946,0.867646 z"
     id="path16" /><path
     style="fill:#b7c5d9;fill-opacity:1;stroke-width:0.624;stroke-dasharray:none"
     d="m 122.71644,8.1647815 c -4.70311,-0.092801 -1.28251,2.0730855 -1.53507,4.0935145 -0.16487,1.318984 -1.19064,2.846831 -0.51168,4.204751 0.29257,0.585157 0.98239,0.913781 1.51282,0.489442 0.86906,-0.695254 1.03813,-4.688246 1.29034,-4.738688 1.69522,-0.339043 1.46425,1.945638 3.09239,1.713047 1.38412,-0.197733 0.92365,-2.8698 2.55844,-2.402715 1.32544,0.378698 0.64764,1.057926 0.8454,2.046757 0.0989,0.494495 0.78997,0.619911 1.09012,0.244721 0.74253,-0.928156 -0.4414,-1.415778 -0.22247,-2.291478 0.21943,-0.877717 1.37811,-1.295247 1.13461,-2.2692309 -0.31153,-1.246141 -2.35837,-0.2893668 -2.93665,-0.867647 -0.17034,-0.1703387 -0.14035,-0.3682268 -0.46719,-0.4226999 -0.68844,-0.1147403 -1.47693,0.434665 -2.1135,0.2224736 -0.56796,-0.1893208 -1.22401,-0.5294063 -1.86878,-0.4004525 -0.55395,0.1107902 -1.10187,0.3153805 -1.62406,0.489442"
     id="path17" /><path
     style="fill:#b7c5d9;fill-opacity:1;stroke-width:0.624;stroke-dasharray:none"
     d="m 134.95249,9.1881601 c -0.5738,-0.1232765 -1.06208,-0.1407182 -1.42383,0.311463 -0.79923,0.9990379 0.91553,1.6285739 1.44608,2.3359729 0.19209,0.256125 -0.14168,0.817687 0.13348,1.001131 0.17245,0.114967 0.45496,0.198224 0.66742,0.155732 1.36234,-0.272467 2.10123,-2.265905 3.62632,-1.757542 1.45375,0.484583 0.89364,3.238467 3.07014,2.803168 0.95212,-0.190425 -0.53386,-2.602941 0.77866,-2.602941 1.16507,0 2.84918,2.200968 3.55957,1.490573 0.73027,-0.730271 -1.34895,-2.598875 -1.89102,-2.86991 -0.59323,-0.2966143 -0.77611,-0.9664845 -1.37934,-1.2680994 -1.34798,-0.6739905 -2.69797,0.087781 -4.02677,-0.1779789 -2.04874,-0.409749 -1.11209,-1.2237456 -3.55958,0"
     id="path18" /><path
     style="fill:#b7c5d9;fill-opacity:1;stroke-width:0.624;stroke-dasharray:none"
     d="m 159.60936,9.2185182 c -1.76022,-0.035701 -2.64117,0.6584675 -3.86989,2.2967638 -0.0797,0.10628 -0.50594,0.658172 -0.34609,0.818026 0.75188,0.75188 2.01545,-0.78472 2.92602,0.12585 0.23448,0.234483 2.20568,2.16761 2.80016,1.573126 0.16008,-0.160078 -1.89992,-3.922665 2.13945,-3.11479 1.394,0.2788 4.89596,2.239937 6.10373,1.636051 0.70704,-0.35352 -0.46572,-1.812389 -0.69217,-2.265301 -0.16247,-0.3249287 0.23601,-1.0539461 0,-1.2899634 -0.27446,-0.274461 -0.94405,-0.2675173 -1.28997,-0.4404753 -0.65093,-0.3254677 -0.6622,-1.1750979 -1.38435,-1.4158134 -1.8564,-0.6187994 -3.33477,1.8523247 -4.87669,2.0450638"
     id="path19" /><path
     style="fill:#b7c5d9;fill-opacity:1;stroke-width:0.624;stroke-dasharray:none"
     d="m 181.82921,9.8357188 c -0.31571,-1.0810819 -4.0469,1.0946222 -2.13946,1.7304382 1.56953,0.523175 3.57039,-2.6038293 7.07907,-0.849488 0.70169,0.350845 1.34251,0.741155 2.04506,0.975338 1.13841,0.379469 2.24179,0.0892 3.33503,0.818026 0.27359,0.182393 1.72559,1.798215 1.98214,1.541663 0.60318,-0.603179 -1.50227,-2.477606 -1.95068,-2.926014 -0.39819,-0.398189 -0.7036,-1.080449 -1.28996,-1.2270382 -0.90067,-0.2251678 -1.77846,0.053322 -2.67431,-0.1258501 -0.66894,-0.1337867 -2.2253,-1.2155775 -2.89456,-0.8809505 -0.77307,0.3865369 -1.23734,0.5204195 -2.10798,0.6292504"
     id="path20" /><path
     style="fill:#ffffff;fill-opacity:1;stroke-width:0.624;stroke-dasharray:none"
     d="m 78.218058,9.0363833 c -3.1418,0.6337813 -0.92044,2.5029937 -0.51169,4.1380097 0.13035,0.5214 0.0538,2.107018 0.55619,2.35822 0.50813,0.254067 0.86697,-0.510346 1.02338,-0.823152 0.26485,-0.529702 0.28921,-1.158207 0.28921,-1.735294 0,-0.07742 -0.0667,-0.299897 -0.0667,-0.222474 0,0.478751 1.35303,-0.627951 1.46833,-0.800905 0.2621,-0.393158 0.13118,-1.273085 0.73416,-1.423831 0.54105,-0.135261 1.19471,0.671321 1.71305,0.800905 1.16311,0.290779 1.80544,-1.200979 3.00339,-1.067873 0.67126,0.07458 2.56773,1.24025 2.93665,0.133484 0.25685,-0.7705496 -1.30232,-0.5287994 -1.53507,-0.6451744 -0.2185,-0.1092502 -0.27627,-0.5253066 -0.48944,-0.6674206 -0.99501,-0.6633393 -1.8377,0.1134442 -2.82541,-0.1334841 -3.167,-0.7917495 -3.24616,-2.0894736 -6.29601,0.088989 z"
     id="path15-6" /><path
     style="fill:#ffffff;fill-opacity:1;stroke-width:0.624;stroke-dasharray:none"
     d="m 108.2075,9.3033516 c -0.64284,-0.092438 -1.85992,0.68297 -0.86764,1.1791104 0.80411,0.402058 1.61958,-0.365962 2.38046,-0.5561844 0.77492,-0.193729 1.57876,0.5820054 2.35822,0.7119164 0.44501,0.07417 0.80856,-0.368038 1.24586,-0.4227 0.23082,-0.02885 3.28042,0.07177 3.31485,0.08899 0.70359,0.351794 0.82819,1.218574 1.7353,0.311464 1.26596,-1.2659659 -0.56027,-2.2935225 -1.57956,-2.8031685 -1.86859,-0.9342914 -3.19102,1.0859177 -4.80543,1.6240569 -0.98531,0.3284362 -0.72096,-0.8039168 -1.3126,-1.0011308 -0.47561,-0.1585367 -1.82039,0.7053803 -2.46946,0.867646 z"
     id="path16-7" /><path
     style="fill:#ffffff;fill-opacity:1;stroke-width:0.624;stroke-dasharray:none"
     d="m 122.73503,7.6125523 c -4.70311,-0.092801 -1.28251,2.0730855 -1.53507,4.0935147 -0.16487,1.318984 -1.19064,2.846831 -0.51168,4.204751 0.29257,0.585157 0.98239,0.913781 1.51282,0.489442 0.86906,-0.695254 1.03813,-4.688246 1.29034,-4.738688 1.69522,-0.339043 1.46425,1.945638 3.09239,1.713047 1.38412,-0.197733 0.92365,-2.8698 2.55844,-2.402715 1.32544,0.378698 0.64764,1.057926 0.8454,2.046757 0.0989,0.494495 0.78997,0.619911 1.09012,0.244721 0.74253,-0.928156 -0.4414,-1.415778 -0.22247,-2.291478 0.21943,-0.877717 1.37811,-1.2952472 1.13461,-2.2692311 -0.31153,-1.246141 -2.35837,-0.2893668 -2.93665,-0.867647 -0.17034,-0.1703387 -0.14035,-0.3682268 -0.46719,-0.4226999 -0.68844,-0.1147403 -1.47693,0.434665 -2.1135,0.2224736 -0.56796,-0.1893208 -1.22401,-0.5294063 -1.86878,-0.4004525 -0.55395,0.1107902 -1.10187,0.3153805 -1.62406,0.489442"
     id="path17-5" /><path
     style="fill:#ffffff;fill-opacity:1;stroke-width:0.624;stroke-dasharray:none"
     d="m 135.03782,8.6136835 c -0.5738,-0.1232765 -1.06208,-0.1407182 -1.42383,0.311463 -0.79923,0.9990381 0.91553,1.6285745 1.44608,2.3359735 0.19209,0.256125 -0.14168,0.817687 0.13348,1.001131 0.17245,0.114967 0.45496,0.198224 0.66742,0.155732 1.36234,-0.272467 2.10123,-2.265905 3.62632,-1.757542 1.45375,0.484583 0.89364,3.238467 3.07014,2.803168 0.95212,-0.190425 -0.53386,-2.602941 0.77866,-2.602941 1.16507,0 2.84918,2.200968 3.55957,1.490573 0.73027,-0.730271 -1.34895,-2.5988754 -1.89102,-2.8699106 -0.59323,-0.2966143 -0.77611,-0.9664845 -1.37934,-1.2680994 -1.34798,-0.6739905 -2.69797,0.087781 -4.02677,-0.1779789 -2.04874,-0.409749 -1.11209,-1.2237456 -3.55958,0"
     id="path18-3" /><path
     style="fill:#ffffff;fill-opacity:1;stroke-width:0.624;stroke-dasharray:none"
     d="m 159.69469,8.6440416 c -1.76022,-0.035701 -2.64117,0.6584675 -3.86989,2.2967644 -0.0797,0.10628 -0.50594,0.658172 -0.34609,0.818026 0.75188,0.75188 2.01545,-0.78472 2.92602,0.12585 0.23448,0.234483 2.20568,2.16761 2.80016,1.573126 0.16008,-0.160078 -1.89992,-3.9226656 2.13945,-3.11479 1.394,0.2788 4.89596,2.239937 6.10373,1.636051 0.70704,-0.35352 -0.46572,-1.812389 -0.69217,-2.2653014 -0.16247,-0.3249289 0.23601,-1.0539463 0,-1.2899636 -0.27446,-0.274461 -0.94405,-0.2675173 -1.28997,-0.4404753 -0.65093,-0.3254677 -0.6622,-1.1750979 -1.38435,-1.4158134 -1.8564,-0.6187994 -3.33477,1.8523247 -4.87669,2.0450638"
     id="path19-5" /><path
     style="fill:#ffffff;fill-opacity:1;stroke-width:0.624;stroke-dasharray:none"
     d="m 181.91454,9.2612422 c -0.31571,-1.0810819 -4.0469,1.0946228 -2.13946,1.7304388 1.56953,0.523175 3.57039,-2.6038299 7.07907,-0.849489 0.70169,0.350846 1.34251,0.741156 2.04506,0.975339 1.13841,0.379469 2.24179,0.0892 3.33503,0.818026 0.27359,0.182393 1.72559,1.798215 1.98214,1.541663 0.60318,-0.603179 -1.50227,-2.477606 -1.95068,-2.926014 -0.39819,-0.39819 -0.7036,-1.0804491 -1.28996,-1.2270388 -0.90067,-0.2251678 -1.77846,0.053322 -2.67431,-0.1258501 -0.66894,-0.1337867 -2.2253,-1.2155775 -2.89456,-0.8809505 -0.77307,0.3865369 -1.23734,0.5204195 -2.10798,0.6292504"
     id="path20-6" /></svg>
