<svg width="32" height="18" version="1.1" xmlns="http://www.w3.org/2000/svg"><g><rect x="1" y="10" width="8" height="6" rx="1" ry="1" style="paint-order:fill markers stroke"/><path d="m13 10c-.554 0-1 .446-1 1v4c0 .554.446 1 1 1h6c.554 0 1-.446 1-1v-4c0-.554-.446-1-1-1zm1 1h4c.554 0 1 .446 1 1v2c0 .554-.446 1-1 1h-4c-.554 0-1-.446-1-1v-2c0-.554.446-1 1-1z" fill="#1e1e1e" style="paint-order:fill markers stroke"/><rect x="23" y="10" width="8" height="6" rx="1" ry="1" fill="#1e1e1e" style="paint-order:fill markers stroke"/></g><g transform="matrix(.89999 0 0 .89999 1.5988 .40278)" fill="none" stroke="#000" stroke-linecap="round" stroke-width="1.1111px"><path d="m13.5 4 5 5"/><path d="m18.5 4-5 5"/></g></svg>
