<svg width="19" height="19" version="1.1" xmlns="http://www.w3.org/2000/svg" xmlns:osb="http://www.openswatchbook.org/uri/2009/osb"><title>Mixxx 1.12+ iconset</title><g transform="translate(0,-13)"><g transform="matrix(.4151 0 0 .4151 -1.6604 19.547)"><path d="m26.886-7.3406c-7.2888 0-14.454 7.1656-14.454 14.454 0 7.2888 7.1656 14.454 14.454 14.454 7.2888 0 14.454-7.1656 14.454-14.454 0-7.2888-7.1656-14.454-14.454-14.454zm-5.8398 6.5497c.52783 0 1.0474.20857 1.4519.61302l4.3879 4.3879 4.3879-4.3879c.8089-.8089 2.0949-.8089 2.9038 0 .8089.8089.8089 2.0949 0 2.9038l-4.3879 4.3879 4.3879 4.3879c.8089.8089.8089 2.0949 0 2.9038-.8089.8089-2.0949.8089-2.9038 0l-4.3879-4.3879-4.3879 4.3879c-.8089.8089-2.0949.8089-2.9038 0-.8089-.8089-.8089-2.0949 0-2.9038l4.3879-4.3879-4.3879-4.3879c-.8089-.8089-.8089-2.0949 0-2.9038.40445-.40445.92406-.61302 1.4519-.61302z" color="#000000" fill="#f60" stroke-width="0"/></g></g></svg>
