<svg width="32" height="18" version="1.1" xmlns="http://www.w3.org/2000/svg"><g><path d="m16.027 1.8496c-4.695-.0059697-9.061 2.3891-11.346 5.7266a.75031.75031 0 1 0 1.2383.84766c3.1006-4.5294 10.935-7.2905 17.326-2.666l-1.4531 1.2832 5.6367 2.2754-1.5605-5.873-1.4629 1.291c-2.6623-2.0205-5.579-2.8812-8.3789-2.8848z" color="#000000" color-rendering="auto" dominant-baseline="auto" image-rendering="auto" shape-rendering="auto" solid-color="#000000" style="font-feature-settings:normal;font-variant-alternates:normal;font-variant-caps:normal;font-variant-ligatures:normal;font-variant-numeric:normal;font-variant-position:normal;isolation:auto;mix-blend-mode:normal;shape-padding:0;text-decoration-color:#000000;text-decoration-line:none;text-decoration-style:solid;text-indent:0;text-orientation:mixed;text-transform:none;white-space:normal"/><rect x="1" y="10" width="8" height="6" rx="1" ry="1" style="paint-order:fill markers stroke"/><path d="m13 10c-.554 0-1 .446-1 1v4c0 .554.446 1 1 1h6c.554 0 1-.446 1-1v-4c0-.554-.446-1-1-1zm1 1h4c.554 0 1 .446 1 1v2c0 .554-.446 1-1 1h-4c-.554 0-1-.446-1-1v-2c0-.554.446-1 1-1z" fill="#1e1e1e" style="paint-order:fill markers stroke"/><rect x="23" y="10" width="8" height="6" rx="1" ry="1" fill="#1e1e1e" style="paint-order:fill markers stroke"/></g></svg>
