<svg width="32" height="18" version="1.1" xmlns="http://www.w3.org/2000/svg"><g><path d="m24 4c-4.6176 0-7.0531 3.0838-9.6895 5.1222-2.6048 2.0141-5.4304 3.9527-11.311 3.9527h-.0039c-.18976-.0025-.29826.05381-.37891.13953-.080649.08571-.12695.21231-.12695.34148 0 .12917.046299.25575.12695.34148.080654.08572.18915.14207.37891.13953h.0039c6.1148 0 9.298-2.1236 11.939-4.1657 1.3066-1.0102 2.4678-2.2278 3.8555-3.2037 1.3877-.9759 3.0149-1.7037 5.2051-1.7037h.004c.18976.00257.29826-.05565.37891-.14137.08065-.085717.12891-.21047.12891-.33964 0-.12917-.04825-.25575-.12891-.34148-.08065-.085729-.18915-.14391-.37891-.14137h-.002z" color="#000000" color-rendering="auto" dominant-baseline="auto" fill="#070707" image-rendering="auto" shape-rendering="auto" solid-color="#000000" style="font-feature-settings:normal;font-variant-alternates:normal;font-variant-caps:normal;font-variant-ligatures:normal;font-variant-numeric:normal;font-variant-position:normal;isolation:auto;mix-blend-mode:normal;shape-padding:0;text-decoration-color:#000000;text-decoration-line:none;text-decoration-style:solid;text-indent:0;text-orientation:mixed;text-transform:none;white-space:normal"/><path d="m2.9551 3.9828.041016.21983c-.19002-.0024709-.30031.052374-.38086.13473-.080545.082361-.12695.20405-.12695.32797 0 .12392.046406.24384.12695.3262.080548.082366.19084.1372.38086.13473h.0039062c4.8546 0 7.7066 1.6047 9.9805 3.1645.16702-.12107.33378-.24155.5-.3652.09918-.073783.2016-.14858.30469-.22338-2.4466-1.6969-5.5928-3.4996-10.785-3.4996l-.042969-.21983c-.0006947 2.24e-5-.00126-2.39e-5-.00195 0zm14.428 6.501c-.25464.19094-.51284.38559-.7832.58681 2.0335 1.502 3.8085 2.8968 7.4004 2.8968h.004c.18998.0024.29837-.05414.37891-.13651.08053-.08236.12695-.20228.12695-.3262s-.04641-.24561-.12695-.32797c-.08054-.082366-.18892-.13719-.37891-.13474h-.004c-3.2448 1e-6-4.7788-1.2116-6.6172-2.5582z" color="#000000" color-rendering="auto" dominant-baseline="auto" fill="#070707" image-rendering="auto" shape-rendering="auto" solid-color="#000000" style="font-feature-settings:normal;font-variant-alternates:normal;font-variant-caps:normal;font-variant-ligatures:normal;font-variant-numeric:normal;font-variant-position:normal;isolation:auto;mix-blend-mode:normal;shape-padding:0;text-decoration-color:#000000;text-decoration-line:none;text-decoration-style:solid;text-indent:0;text-orientation:mixed;text-transform:none;white-space:normal"/><path d="m28.952 4.5-4.9525-2.5v5z"/><path d="m28.952 13.5-4.9525-2.5v5z"/></g></svg>
