<svg width="32" height="18" version="1.1" xmlns="http://www.w3.org/2000/svg"><path d="m22 3v2.2754c-11.803 1.3922-18.373 9.7227-18.373 9.7227l.78711.61719s6.2721-7.952 17.586-9.334v1.7188l4.9531-2.5-4.9531-2.5z" color="#000000" color-rendering="auto" dominant-baseline="auto" image-rendering="auto" shape-rendering="auto" solid-color="#000000" style="font-feature-settings:normal;font-variant-alternates:normal;font-variant-caps:normal;font-variant-ligatures:normal;font-variant-numeric:normal;font-variant-position:normal;isolation:auto;mix-blend-mode:normal;shape-padding:0;text-decoration-color:#000000;text-decoration-line:none;text-decoration-style:solid;text-indent:0;text-orientation:mixed;text-transform:none;white-space:normal"/><path d="m3.8105 5.502-.074219.99609c2.6634.19422 5.0651.70599 7.2246 1.3809.39267-.2195.81072-.43207 1.2305-.64258-2.4586-.85204-5.2504-1.5061-8.3809-1.7344zm12.068 3.2617c-.42769.164-.83884.3353-1.2422.51367 5.9327 2.6951 9.1191 6.3164 9.1191 6.3164l.75391-.66016s-3.0179-3.4271-8.6309-6.1699z" color="#000000" color-rendering="auto" dominant-baseline="auto" image-rendering="auto" shape-rendering="auto" solid-color="#000000" style="font-feature-settings:normal;font-variant-alternates:normal;font-variant-caps:normal;font-variant-ligatures:normal;font-variant-numeric:normal;font-variant-position:normal;isolation:auto;mix-blend-mode:normal;shape-padding:0;text-decoration-color:#000000;text-decoration-line:none;text-decoration-style:solid;text-indent:0;text-orientation:mixed;text-transform:none;white-space:normal"/></svg>
