<svg width="20" height="9" version="1.1" viewBox="0 0 20 9" xmlns="http://www.w3.org/2000/svg"><g><rect x=".5" y=".5" width="19" height="8" fill="#aab2b7" stroke="#191f24" stroke-linecap="square" style="paint-order:fill markers stroke"/><path d="m2 2v1.25a.75008.75008 0 0 0 .048828-.00195c4.9185-.32644 6.246.69733 7.8145 1.8555.96265.71083 2.0403 1.4828 3.8262 1.8965h4.3105v-1.25a.75008.75008 0 0 0-.05469.00195c-4.4952.32494-5.596-.6788-7.1895-1.8555-.97412-.7193-2.1237-1.4853-4.0449-1.8965z" color="#000000" color-rendering="auto" dominant-baseline="auto" image-rendering="auto" shape-rendering="auto" solid-color="#000000" style="font-feature-settings:normal;font-variant-alternates:normal;font-variant-caps:normal;font-variant-ligatures:normal;font-variant-numeric:normal;font-variant-position:normal;isolation:auto;mix-blend-mode:normal;shape-padding:0;text-decoration-color:#000000;text-decoration-line:none;text-decoration-style:solid;text-indent:0;text-orientation:mixed;text-transform:none;white-space:normal"/><path d="m13.289 2c-1.9212.41114-3.0708 1.1772-4.0449 1.8965-1.5935 1.1767-2.6942 2.1804-7.1895 1.8555a.75008.75008 0 0 0-.054688-.0019531v1.25h4.3105c1.7858-.41368 2.8635-1.1857 3.8262-1.8965 1.5684-1.1581 2.8959-2.1819 7.8145-1.8555a.75008.75008 0 0 0 .048828.0019531v-1.25z" color="#000000" color-rendering="auto" dominant-baseline="auto" fill="#ec4522" image-rendering="auto" shape-rendering="auto" solid-color="#000000" style="font-feature-settings:normal;font-variant-alternates:normal;font-variant-caps:normal;font-variant-ligatures:normal;font-variant-numeric:normal;font-variant-position:normal;isolation:auto;mix-blend-mode:normal;shape-padding:0;text-decoration-color:#000000;text-decoration-line:none;text-decoration-style:solid;text-indent:0;text-orientation:mixed;text-transform:none;white-space:normal"/></g></svg>
