<?xml version="1.0" encoding="UTF-8" standalone="no"?>
<svg
   xmlns:dc="http://purl.org/dc/elements/1.1/"
   xmlns:cc="http://creativecommons.org/ns#"
   xmlns:rdf="http://www.w3.org/1999/02/22-rdf-syntax-ns#"
   xmlns:svg="http://www.w3.org/2000/svg"
   xmlns="http://www.w3.org/2000/svg"
   xmlns:sodipodi="http://sodipodi.sourceforge.net/DTD/sodipodi-0.dtd"
   xmlns:inkscape="http://www.inkscape.org/namespaces/inkscape"
   height="32"
   width="32"
   version="1.1"
   viewBox="0 0 31.999999 31.999998"
   id="svg2"
   inkscape:version="0.48.4 r9939"
   sodipodi:docname="ic_broadcast_0_32px.svg">
  <metadata
     id="metadata12">
    <rdf:RDF>
      <cc:Work
         rdf:about="">
        <dc:format>image/svg+xml</dc:format>
        <dc:type
           rdf:resource="http://purl.org/dc/dcmitype/StillImage" />
        <dc:title></dc:title>
      </cc:Work>
    </rdf:RDF>
  </metadata>
  <defs
     id="defs10" />
  <sodipodi:namedview
     pagecolor="#ffffff"
     bordercolor="#666666"
     borderopacity="1"
     objecttolerance="10"
     gridtolerance="10"
     guidetolerance="10"
     inkscape:pageopacity="0"
     inkscape:pageshadow="2"
     inkscape:window-width="1366"
     inkscape:window-height="747"
     id="namedview8"
     showgrid="false"
     inkscape:zoom="7.375"
     inkscape:cx="-6.779661"
     inkscape:cy="16.542373"
     inkscape:window-x="0"
     inkscape:window-y="21"
     inkscape:window-maximized="1"
     inkscape:current-layer="svg2"
     inkscape:snap-page="true" />
  <path
     inkscape:connector-curvature="0"
     id="path6"
     d="m 25.938578,5.2812486 a 0.76570156,0.76570156 0 0 0 -0.526367,0.2317547 l -4.59375,4.5937497 a 0.76570156,0.76570156 0 1 0 1.08267,1.08267 l 4.59375,-4.5937495 A 0.76570156,0.76570156 0 0 0 25.938609,5.2812486 z M 11.429218,20.601405 c -0.222153,-0.0076 -0.436069,0.0843 -0.586177,0.248216 l -3.9821693,4.344003 -0.8000016,-0.0076 c -0.1862688,0 -0.366497,0.06584 -0.506928,0.188419 -0.01441,0.01225 -0.028382,0.0245 -0.041872,0.03751 l -0.00751,0.0092 c -0.1509966,0.151441 -0.2317777,0.359078 -0.2228122,0.572765 0.019186,0.408766 0.356406,0.730176 0.765625,0.729793 l 1.1439203,0 8.4042658,0 0.02392,0 8.801625,0 0.0015,0 c 1.006568,-0.01301 1.008022,-1.516014 0.0016,-1.53125 l -0.0016,0 -3.826593,-0.0077 -0.003,0 -4.638616,0.0077 -3.982169,-4.345534 c -0.139869,-0.152738 -0.335708,-0.242316 -0.542772,-0.248211 z m 15.290298,-1.359214 a 9.8666091,9.8666091 0 0 1 -9.530501,2.553743 9.8666091,9.8666091 0 0 1 -6.97691,-6.976912 9.8666091,9.8666091 0 0 1 2.553742,-9.5305"
     style="text-indent:0;text-decoration:none;text-transform:none;block-progression:tb;color:#000000;fill:#eeeeee;fill-opacity:1" />
</svg>
