<?xml version="1.0" encoding="UTF-8" standalone="no"?>
<svg
   xmlns:dc="http://purl.org/dc/elements/1.1/"
   xmlns:cc="http://creativecommons.org/ns#"
   xmlns:rdf="http://www.w3.org/1999/02/22-rdf-syntax-ns#"
   xmlns:svg="http://www.w3.org/2000/svg"
   xmlns="http://www.w3.org/2000/svg"
   xmlns:sodipodi="http://sodipodi.sourceforge.net/DTD/sodipodi-0.dtd"
   xmlns:inkscape="http://www.inkscape.org/namespaces/inkscape"
   height="32"
   width="32"
   version="1.1"
   viewBox="0 0 31.999999 31.999998"
   id="svg2"
   inkscape:version="0.48.4 r9939"
   sodipodi:docname="ic_recording_3_32px.svg">
  <metadata
     id="metadata12">
    <rdf:RDF>
      <cc:Work
         rdf:about="">
        <dc:format>image/svg+xml</dc:format>
        <dc:type
           rdf:resource="http://purl.org/dc/dcmitype/StillImage" />
      </cc:Work>
    </rdf:RDF>
  </metadata>
  <defs
     id="defs10" />
  <sodipodi:namedview
     pagecolor="#ffffff"
     bordercolor="#666666"
     borderopacity="1"
     objecttolerance="10"
     gridtolerance="10"
     guidetolerance="10"
     inkscape:pageopacity="0"
     inkscape:pageshadow="2"
     inkscape:window-width="1366"
     inkscape:window-height="747"
     id="namedview8"
     showgrid="false"
     inkscape:zoom="7.375"
     inkscape:cx="-6.1016952"
     inkscape:cy="16.542373"
     inkscape:window-x="0"
     inkscape:window-y="21"
     inkscape:window-maximized="1"
     inkscape:current-layer="svg2" />
  <path
     style="fill:#ff13ed;fill-opacity:1"
     inkscape:connector-curvature="0"
     id="path6"
     d="m 5.9511719,7.5781235 c -0.7953314,0 -1.435547,0.6829375 -1.435547,1.53125 l 0,13.7812515 c 0,0.848312 0.6402539,1.53125 1.435547,1.53125 l 20.0976581,0 c 0.795331,0 1.435547,-0.682938 1.435547,-1.53125 l 0,-13.7812515 c 0,-0.8483125 -0.640255,-1.53125 -1.435547,-1.53125 l -3.158204,0 0,3.0625005 -13.7812508,0 0,-3.0625005 -3.1582033,0 z m 4.6894531,0 0,1.53125 10.718751,0 0,-1.53125 -10.718751,0 z M 9.8750002,15.234374 c 1.2685648,0 2.2968748,1.028311 2.2968748,2.296875 0,1.268564 -1.02831,2.296876 -2.2968748,2.296876 -1.2685641,0 -2.2968751,-1.028312 -2.2968751,-2.296876 0,-1.268564 1.028311,-2.296875 2.2968751,-2.296875 z m 12.2500008,0 c 1.268564,0 2.296875,1.028311 2.296875,2.296875 0,1.268564 -1.028311,2.296876 -2.296875,2.296876 -1.268564,0 -2.296875,-1.028312 -2.296875,-2.296876 0,-1.268564 1.028311,-2.296875 2.296875,-2.296875 z m -8.039063,1.53125 3.828125,0 c 0.212078,0 0.382812,0.170734 0.382812,0.382812 l 0,0.765625 c 0,0.212078 -0.170734,0.382813 -0.382812,0.382813 l -3.828125,0 c -0.212078,0 -0.382813,-0.170735 -0.382813,-0.382813 l 0,-0.765625 c 0,-0.212078 0.170735,-0.382812 0.382813,-0.382812 z" />
</svg>
