<?xml version="1.0" encoding="UTF-8" standalone="no"?>
<svg
   xmlns:dc="http://purl.org/dc/elements/1.1/"
   xmlns:cc="http://creativecommons.org/ns#"
   xmlns:rdf="http://www.w3.org/1999/02/22-rdf-syntax-ns#"
   xmlns:svg="http://www.w3.org/2000/svg"
   xmlns="http://www.w3.org/2000/svg"
   xmlns:sodipodi="http://sodipodi.sourceforge.net/DTD/sodipodi-0.dtd"
   xmlns:inkscape="http://www.inkscape.org/namespaces/inkscape"
   height="32"
   width="32"
   version="1.1"
   viewBox="0 0 31.999999 31.999998"
   id="svg2"
   inkscape:version="0.48.4 r9939"
   sodipodi:docname="ic_vinylcontrol_32px.svg">
  <metadata
     id="metadata12">
    <rdf:RDF>
      <cc:Work
         rdf:about="">
        <dc:format>image/svg+xml</dc:format>
        <dc:type
           rdf:resource="http://purl.org/dc/dcmitype/StillImage" />
      </cc:Work>
    </rdf:RDF>
  </metadata>
  <defs
     id="defs10" />
  <sodipodi:namedview
     pagecolor="#ffffff"
     bordercolor="#666666"
     borderopacity="1"
     objecttolerance="10"
     gridtolerance="10"
     guidetolerance="10"
     inkscape:pageopacity="0"
     inkscape:pageshadow="2"
     inkscape:window-width="1366"
     inkscape:window-height="746"
     id="namedview8"
     showgrid="false"
     inkscape:zoom="7.375"
     inkscape:cx="-6.1016952"
     inkscape:cy="16.542373"
     inkscape:window-x="0"
     inkscape:window-y="0"
     inkscape:window-maximized="1"
     inkscape:current-layer="svg2"
     inkscape:snap-page="true" />
  <path
     inkscape:connector-curvature="0"
     id="path6"
     d="m 16,3.7499994 c -6.7200002,0 -12.2500002,5.5299998 -12.2500002,12.2499996 0,6.720088 5.53,12.25 12.2500002,12.25 6.719999,0 12.249999,-5.529912 12.249999,-12.25 0,-6.7199998 -5.53,-12.2499996 -12.249999,-12.2499996 z m 0,7.6801376 c 2.569437,0 4.569862,2.000425 4.569862,4.569862 0,2.569525 -2.000338,4.569863 -4.569862,4.569863 -2.569438,0 -4.569863,-2.000338 -4.569863,-4.569863 0,-2.569437 2.000338,-4.569862 4.569863,-4.569862 z m 0,2.2337 c -1.283188,0 -2.336163,1.053062 -2.336163,2.336162 0,1.283188 1.052975,2.336163 2.336163,2.336163 1.283187,0 2.336162,-1.052975 2.336162,-2.336163 0,-1.2831 -1.053062,-2.336162 -2.336162,-2.336162 z"
     style="text-indent:0;text-decoration:none;text-transform:none;block-progression:tb;color:#000000;fill:#d2d2d2;fill-opacity:1" />
</svg>
