<svg width="30" height="13" version="1.1" xmlns="http://www.w3.org/2000/svg">
  <path d="m4.29363 11.1835c0.50429 0.41324 1.07523 0.816575 2.20536 0.816565l17.3989-8.7e-5c2.10175-1.1e-5 3.10186-1.65253 3.10175-2.99965l-2.5e-4 -3.00035c-4.8e-5 -0.57381-0.198496-1.29214-0.580323-1.77769 0.86256 0.52578 1.08073 1.68914 1.08082 2.77734l2.5e-4 3.00035c1.38e-4 1.662-1.338 2.99999-3 3l-17.644 8.7e-5c-1.0882 1e-5 -2.27159-0.138071-2.5625-1.81656z" color="#000000" opacity=".5"/>
  <path d="m3.35538 6.00044 2.5e-4 3.00035c1.385e-4 1.662 1.338 3.00001 3 3l17.644-8.8e-5c1.662-8e-6 3.00014-1.338 3-3l-2.5e-4 -3.00035c-1.38e-4 -1.662-1.338-3.00001-3-3l-17.644 8.75e-5c-1.662 8.2e-6 -3.00014 1.338-3 3z" color="#000000" opacity=".8"/>
  <path d="m4.99988 1.99991 20.0001 8.75e-5c1.108 4.8e-6 2 0.892 2 2v2c0 1.108-0.892 2-2 2l-20.0001-8.75e-5c-1.108-4.8e-6 -2-0.892-2-2v-2c0-1.108 0.892-2 2-2z" fill="#2a2a2a"/>
  <path d="m4.99988 4.99991 20.0001 8.75e-5c1.108 4.8e-6 2 0.892 2 2v2c0 1.108-0.892 2-2 2l-20.0001-8.7e-5c-1.108-5e-6 -2-0.892-2-2v-2c0-1.108 0.892-2 2-2z" fill="#050505"/>
  <path d="m27 8c0 1.108-0.446 2-1 2l-22.0001-8.75e-5c-0.554-2.2e-6 -1-0.892-1-2z" fill="#1a1a1a"/>
  <path d="m3.99988 5.00023 22.0001 8.75e-5v1l-22.0001-8.75e-5z" fill="#323232"/>
  <path d="m3.99988 7.00023 22.0001 8.75e-5v1l-22.0001-8.75e-5z" fill="#5f5f5f"/>
  <path d="m3.99988 6.00023 22.0001 8.75e-5v1l-22.0001-8.75e-5z" fill="#51504f"/>
  <path d="m27 5.00032h-1v1h1z" fill="#212121"/>
  <path d="m27 7.00032h-1v1h1z" fill="#464646"/>
  <path d="m27 6.00032h-1v1h1z" fill="#323232"/>
  <path d="m3.99988 6.99991h-1v1h1z" fill="#706f6e"/>
  <path d="m3.99988 5.99991h-1v1h1z" fill="#5e5e5e"/>
  <path d="m3.00028 5.00023h0.9996v1h-0.9996z" fill="#3e3e3e"/>
  <path d="m3.99988 2.99991 22.0001 8.75e-5c0.554 2.2e-6 1 0.892 1 2l-24.0001-8.75e-5c0-1.108 0.446-2 1-2z" fill="#141414"/>
  <g transform="translate(-40)">
    <path d="m3 5.00032h24v1h-24z" fill="#561e0e"/>
    <path d="m3 7.00032h24v1h-24z" fill="#a74a17"/>
    <path d="m3 6.00032h24v1h-24z" fill="#8d3b13"/>
    <path d="m28 5.00032h-1v1h1z" fill="#37110b"/>
    <path d="m28 7.00032h-1v1h1z" fill="#7a3612"/>
    <path d="m28 6.00032h-1v1h1z" fill="#57240d"/>
    <path d="m3 7h-1v1h1z" fill="#b35115"/>
    <path d="m3 6h-1v1h1z" fill="#994311"/>
    <path d="m2.0004 5.00032h0.9996v1h-0.9996z" fill="#61230d"/>
  </g>
</svg>
