<svg version="1.1" viewBox="0 0 40 119" xmlns="http://www.w3.org/2000/svg">
  <path d="m2 59.0004h14v.999596h-14z" color="#000000" stroke-width=".999798"/>
  <path d="m36 59.0004h-12v.999596h12z" color="#000000" stroke-width=".999798"/>
  <path d="m6 20.0004h10v.999596h-10z" color="#000000" stroke-width=".999798"/>
  <path d="m6 33h10v.999596h-10z" color="#000000" stroke-width=".999798"/>
  <path d="m6 46.0004h10v.999596h-10z" color="#000000" stroke-width=".999798"/>
  <path d="m6 72.0004h10v.999596h-10z" color="#000000" stroke-width=".999798"/>
  <path d="m6 85.0004h10v.999596h-10z" color="#000000" stroke-width=".999798"/>
  <path d="m6 98.0004h10v.999596h-10z" color="#000000" stroke-width=".999798"/>
  <path d="m34 20.0004h-10v.999596h10z" color="#000000" stroke-width=".999798"/>
  <path d="m34 33h-10v.999596h10z" color="#000000" stroke-width=".999798"/>
  <path d="m34 46.0004h-10v.999596h10z" color="#000000" stroke-width=".999798"/>
  <path d="m34 72.0004h-10v.999596h10z" color="#000000" stroke-width=".999798"/>
  <path d="m34 85.0004h-10v.999596h10z" color="#000000" stroke-width=".999798"/>
  <path d="m34 98.0004h-10v.999596h10z" color="#000000" stroke-width=".999798"/>
  <path d="m6 7h10v.999596h-10z" color="#000000" stroke-width=".999798"/>
  <path d="m32 7h-8v.999596h8z" color="#000000" stroke-width=".999798"/>
  <path d="m6 111h10v.9996h-10z" color="#000000" stroke-width=".999798"/>
  <path d="m32 111h-8v.9996h8z" color="#000000" stroke-width=".999798"/>
  <path d="m19.3412 6.34116h1.31769v106.318h-1.31769z" color="#000000" stroke="#000" stroke-linejoin="round" stroke-width="3.682"/>
</svg>
