<svg width="32" height="32" version="1.1" xmlns="http://www.w3.org/2000/svg" xmlns:xlink="http://www.w3.org/1999/xlink">
	<title>Mixxx 1.12+ iconset</title>
	<g>
		<path d="m2.6775373 29.441818c1.2915257 1.276979 3.3854996 1.276979 4.6770264-1e-6.3123328-.310526.5584503-.679879.7236793-1.086207l2.862452-4.243047 4.133113-3.81616 3.933374 3.889081 2.360024-2.333449-11.013445-10.889425-2.3600243 2.333447 3.9333733 3.889083-3.859623 4.08657-4.2806157 2.822624c-.4154472.164357-.7928415.410361-1.109334.723125-1.2915224 1.276982-1.2915236 3.347377 0 4.624359zm19.4763437-8.367599-11.013445-10.889425 8.65342-8.5559755 1.165566 1.1524393 1.395903 1.380184 1.71322 1.6939276-2.926472 3.8589267 4.005054-2.7924897 1.3959 1.3801829 1.395903 1.3801825s-4.876191 5.7519612-4.585379 6.0394992 5.74863-4.889348 5.981281-4.659316l1.472469 1.455888z"/>
		<path d="m31.326116 21.55374c.627527 1.301959 1.031435 2.673278 0 3.693101-1.031438 1.01982-2.703725 1.01982-3.735161 0-1.031438-1.019823-.612938-2.384365 0-3.693101 1.840765-3.930379 1.840765-3.930379 1.840765-3.930379s1.262931 2.620252 1.894396 3.930379z" style="paint-order:fill markers stroke"/>
	</g>
</svg>
