<?xml version="1.0" encoding="UTF-8" standalone="no"?>
<svg
   xmlns:osb="http://www.openswatchbook.org/uri/2009/osb"
   xmlns:dc="http://purl.org/dc/elements/1.1/"
   xmlns:cc="http://creativecommons.org/ns#"
   xmlns:rdf="http://www.w3.org/1999/02/22-rdf-syntax-ns#"
   xmlns:svg="http://www.w3.org/2000/svg"
   xmlns="http://www.w3.org/2000/svg"
   xmlns:xlink="http://www.w3.org/1999/xlink"
   xmlns:sodipodi="http://sodipodi.sourceforge.net/DTD/sodipodi-0.dtd"
   xmlns:inkscape="http://www.inkscape.org/namespaces/inkscape"
   version="1.1"
   width="32"
   height="32"
   id="svg2"
   inkscape:version="0.92.3 (unknown)"
   sodipodi:docname="ic_preferences_waveforms.svg"
   style="display:inline"
   inkscape:export-filename=""
   inkscape:export-xdpi="135"
   inkscape:export-ydpi="135">
  <sodipodi:namedview
     pagecolor="#ffffff"
     bordercolor="#666666"
     borderopacity="1"
     objecttolerance="10"
     gridtolerance="10"
     guidetolerance="10"
     inkscape:pageopacity="0"
     inkscape:pageshadow="2"
     inkscape:window-width="1366"
     inkscape:window-height="740"
     id="namedview26"
     showgrid="true"
     inkscape:zoom="7.5599695"
     inkscape:cx="-12.797001"
     inkscape:cy="26.6981"
     inkscape:window-x="0"
     inkscape:window-y="0"
     inkscape:window-maximized="1"
     inkscape:current-layer="svg2"
     inkscape:object-paths="true"
     showguides="true"
     inkscape:guide-bbox="true"
     inkscape:snap-midpoints="true"
     inkscape:snap-grids="false"
     inkscape:snap-smooth-nodes="true"
     inkscape:snap-global="false">
    <inkscape:grid
       type="xygrid"
       id="grid3788"
       empspacing="4"
       visible="true"
       enabled="true"
       snapvisiblegridlinesonly="true"
       originx="4"
       spacingx="1"
       spacingy="1"
       color="#00ffe0"
       opacity="0.1254902"
       empcolor="#0072ff"
       empopacity="0.25098039"
       originy="4"
       dotted="false" />
  </sodipodi:namedview>
  <title
     id="title5647">Mixxx 1.12+ iconset</title>
  <defs
     id="defs28">
    <linearGradient
       id="linearGradient5515"
       osb:paint="solid">
      <stop
         style="stop-color:#000000;stop-opacity:1;"
         offset="0"
         id="stop5517" />
    </linearGradient>
    <linearGradient
       id="linearGradient4942">
      <stop
         style="stop-color:#ff6600;stop-opacity:1;"
         offset="0"
         id="stop4944" />
      <stop
         style="stop-color:#de5800;stop-opacity:1;"
         offset="1"
         id="stop4946" />
    </linearGradient>
    <linearGradient
       id="linearGradient5695-6">
      <stop
         style="stop-color:#3c3c3c;stop-opacity:1;"
         offset="0"
         id="stop5697-6" />
      <stop
         style="stop-color:#000000;stop-opacity:1;"
         offset="1"
         id="stop5699-7" />
    </linearGradient>
    <filter
       id="filter6108"
       inkscape:label="Drop shadow ic_preferences"
       width="1.5"
       height="1.5"
       x="-0.25"
       y="-0.25"
       color-interpolation-filters="sRGB">
      <feGaussianBlur
         id="feGaussianBlur6110"
         in="SourceAlpha"
         stdDeviation="0.6"
         result="blur" />
      <feColorMatrix
         id="feColorMatrix6112"
         result="bluralpha"
         type="matrix"
         values="1 0 0 0 0 0 1 0 0 0 0 0 1 0 0 0 0 0 0.4 0 " />
      <feOffset
         id="feOffset6114"
         in="bluralpha"
         dx="1"
         dy="1"
         result="offsetBlur" />
      <feMerge
         id="feMerge6116">
        <feMergeNode
           id="feMergeNode6118"
           in="offsetBlur" />
        <feMergeNode
           id="feMergeNode6120"
           in="SourceGraphic" />
      </feMerge>
    </filter>
    <linearGradient
       id="linearGradient5695-4">
      <stop
         style="stop-color:#646464;stop-opacity:1;"
         offset="0"
         id="stop5697-7" />
      <stop
         style="stop-color:#000000;stop-opacity:1;"
         offset="1"
         id="stop5699-6" />
    </linearGradient>
    <linearGradient
       id="linearGradient4942-73">
      <stop
         style="stop-color:#ff6600;stop-opacity:1;"
         offset="0"
         id="stop4944-6" />
      <stop
         style="stop-color:#de5800;stop-opacity:1;"
         offset="1"
         id="stop4946-6" />
    </linearGradient>
    <linearGradient
       id="linearGradient4942-5">
      <stop
         style="stop-color:#ff6600;stop-opacity:1;"
         offset="0"
         id="stop4944-9" />
      <stop
         style="stop-color:#de5800;stop-opacity:1;"
         offset="1"
         id="stop4946-5" />
    </linearGradient>
    <filter
       style="color-interpolation-filters:sRGB"
       id="filter6108-7"
       inkscape:label="Drop shadow ic_preferences"
       width="1.5"
       height="1.5"
       x="-0.25"
       y="-0.25">
      <feGaussianBlur
         id="feGaussianBlur6110-5"
         in="SourceAlpha"
         stdDeviation="0.6"
         result="blur" />
      <feColorMatrix
         id="feColorMatrix6112-3"
         result="bluralpha"
         type="matrix"
         values="1 0 0 0 0 0 1 0 0 0 0 0 1 0 0 0 0 0 0.4 0 " />
      <feOffset
         id="feOffset6114-5"
         in="bluralpha"
         dx="1"
         dy="1"
         result="offsetBlur" />
      <feMerge
         id="feMerge6116-6">
        <feMergeNode
           id="feMergeNode6118-2"
           in="offsetBlur" />
        <feMergeNode
           id="feMergeNode6120-9"
           in="SourceGraphic" />
      </feMerge>
    </filter>
    <filter
       style="color-interpolation-filters:sRGB"
       id="filter6108-70"
       inkscape:label="Drop shadow ic_preferences"
       width="1.5"
       height="1.5"
       x="-0.25"
       y="-0.25">
      <feGaussianBlur
         id="feGaussianBlur6110-9"
         in="SourceAlpha"
         stdDeviation="0.6"
         result="blur" />
      <feColorMatrix
         id="feColorMatrix6112-36"
         result="bluralpha"
         type="matrix"
         values="1 0 0 0 0 0 1 0 0 0 0 0 1 0 0 0 0 0 0.4 0 " />
      <feOffset
         id="feOffset6114-0"
         in="bluralpha"
         dx="1"
         dy="1"
         result="offsetBlur" />
      <feMerge
         id="feMerge6116-62">
        <feMergeNode
           id="feMergeNode6118-6"
           in="offsetBlur" />
        <feMergeNode
           id="feMergeNode6120-1"
           in="SourceGraphic" />
      </feMerge>
    </filter>
    <filter
       style="color-interpolation-filters:sRGB"
       id="filter1927"
       inkscape:label="Drop shadow ic_preferences"
       width="1.5"
       height="1.5"
       x="-0.25"
       y="-0.25">
      <feGaussianBlur
         id="feGaussianBlur1915"
         in="SourceAlpha"
         stdDeviation="0.6"
         result="blur" />
      <feColorMatrix
         id="feColorMatrix1917"
         result="bluralpha"
         type="matrix"
         values="1 0 0 0 0 0 1 0 0 0 0 0 1 0 0 0 0 0 0.4 0 " />
      <feOffset
         id="feOffset1919"
         in="bluralpha"
         dx="1"
         dy="1"
         result="offsetBlur" />
      <feMerge
         id="feMerge1925">
        <feMergeNode
           id="feMergeNode1921"
           in="offsetBlur" />
        <feMergeNode
           id="feMergeNode1923"
           in="SourceGraphic" />
      </feMerge>
    </filter>
    <filter
       style="color-interpolation-filters:sRGB"
       id="filter6108-8"
       inkscape:label="Drop shadow ic_preferences"
       width="1.5"
       height="1.5"
       x="-0.25"
       y="-0.25">
      <feGaussianBlur
         id="feGaussianBlur6110-7"
         in="SourceAlpha"
         stdDeviation="0.6"
         result="blur" />
      <feColorMatrix
         id="feColorMatrix6112-9"
         result="bluralpha"
         type="matrix"
         values="1 0 0 0 0 0 1 0 0 0 0 0 1 0 0 0 0 0 0.4 0 " />
      <feOffset
         id="feOffset6114-2"
         in="bluralpha"
         dx="1"
         dy="1"
         result="offsetBlur" />
      <feMerge
         id="feMerge6116-0">
        <feMergeNode
           id="feMergeNode6118-23"
           in="offsetBlur" />
        <feMergeNode
           id="feMergeNode6120-7"
           in="SourceGraphic" />
      </feMerge>
    </filter>
    <filter
       style="color-interpolation-filters:sRGB"
       id="filter6108-89"
       inkscape:label="Drop shadow ic_preferences"
       width="1.5"
       height="1.5"
       x="-0.25"
       y="-0.25">
      <feGaussianBlur
         id="feGaussianBlur6110-73"
         in="SourceAlpha"
         stdDeviation="0.6"
         result="blur" />
      <feColorMatrix
         id="feColorMatrix6112-6"
         result="bluralpha"
         type="matrix"
         values="1 0 0 0 0 0 1 0 0 0 0 0 1 0 0 0 0 0 0.4 0 " />
      <feOffset
         id="feOffset6114-1"
         in="bluralpha"
         dx="1"
         dy="1"
         result="offsetBlur" />
      <feMerge
         id="feMerge6116-2">
        <feMergeNode
           id="feMergeNode6118-9"
           in="offsetBlur" />
        <feMergeNode
           id="feMergeNode6120-3"
           in="SourceGraphic" />
      </feMerge>
    </filter>
    <linearGradient
       inkscape:collect="always"
       xlink:href="#linearGradient5695-6"
       id="linearGradient6060"
       gradientUnits="userSpaceOnUse"
       gradientTransform="translate(7.2768052,14.338622)"
       x1="16.19677"
       y1="-13"
       x2="16.19677"
       y2="15" />
    <filter
       style="color-interpolation-filters:sRGB"
       id="filter6108-9"
       inkscape:label="Drop shadow ic_preferences"
       width="1.5"
       height="1.5"
       x="-0.25"
       y="-0.25">
      <feGaussianBlur
         id="feGaussianBlur6110-3"
         in="SourceAlpha"
         stdDeviation="0.6"
         result="blur" />
      <feColorMatrix
         id="feColorMatrix6112-90"
         result="bluralpha"
         type="matrix"
         values="1 0 0 0 0 0 1 0 0 0 0 0 1 0 0 0 0 0 0.4 0 " />
      <feOffset
         id="feOffset6114-8"
         in="bluralpha"
         dx="1"
         dy="1"
         result="offsetBlur" />
      <feMerge
         id="feMerge6116-8">
        <feMergeNode
           id="feMergeNode6118-5"
           in="offsetBlur" />
        <feMergeNode
           id="feMergeNode6120-0"
           in="SourceGraphic" />
      </feMerge>
    </filter>
    <linearGradient
       inkscape:collect="always"
       xlink:href="#linearGradient5695-6"
       id="linearGradient2391"
       gradientUnits="userSpaceOnUse"
       x1="21.539436"
       y1="0.92073631"
       x2="21.539436"
       y2="29.227728"
       gradientTransform="translate(-2)" />
    <filter
       style="color-interpolation-filters:sRGB"
       id="filter6108-3"
       inkscape:label="Drop shadow ic_preferences"
       width="1.5"
       height="1.5"
       x="-0.25"
       y="-0.25">
      <feGaussianBlur
         id="feGaussianBlur6110-8"
         in="SourceAlpha"
         stdDeviation="0.6"
         result="blur" />
      <feColorMatrix
         id="feColorMatrix6112-5"
         result="bluralpha"
         type="matrix"
         values="1 0 0 0 0 0 1 0 0 0 0 0 1 0 0 0 0 0 0.4 0 " />
      <feOffset
         id="feOffset6114-6"
         in="bluralpha"
         dx="1"
         dy="1"
         result="offsetBlur" />
      <feMerge
         id="feMerge6116-1">
        <feMergeNode
           id="feMergeNode6118-1"
           in="offsetBlur" />
        <feMergeNode
           id="feMergeNode6120-5"
           in="SourceGraphic" />
      </feMerge>
    </filter>
    <filter
       style="color-interpolation-filters:sRGB"
       id="filter2701"
       inkscape:label="Drop shadow ic_preferences"
       width="1.5"
       height="1.5"
       x="-0.25"
       y="-0.25">
      <feGaussianBlur
         id="feGaussianBlur2689"
         in="SourceAlpha"
         stdDeviation="0.6"
         result="blur" />
      <feColorMatrix
         id="feColorMatrix2691"
         result="bluralpha"
         type="matrix"
         values="1 0 0 0 0 0 1 0 0 0 0 0 1 0 0 0 0 0 0.4 0 " />
      <feOffset
         id="feOffset2693"
         in="bluralpha"
         dx="1"
         dy="1"
         result="offsetBlur" />
      <feMerge
         id="feMerge2699">
        <feMergeNode
           id="feMergeNode2695"
           in="offsetBlur" />
        <feMergeNode
           id="feMergeNode2697"
           in="SourceGraphic" />
      </feMerge>
    </filter>
    <filter
       style="color-interpolation-filters:sRGB"
       id="filter2722"
       inkscape:label="Drop shadow ic_preferences"
       width="1.5"
       height="1.5"
       x="-0.25"
       y="-0.25">
      <feGaussianBlur
         id="feGaussianBlur2710"
         in="SourceAlpha"
         stdDeviation="0.6"
         result="blur" />
      <feColorMatrix
         id="feColorMatrix2712"
         result="bluralpha"
         type="matrix"
         values="1 0 0 0 0 0 1 0 0 0 0 0 1 0 0 0 0 0 0.4 0 " />
      <feOffset
         id="feOffset2714"
         in="bluralpha"
         dx="1"
         dy="1"
         result="offsetBlur" />
      <feMerge
         id="feMerge2720">
        <feMergeNode
           id="feMergeNode2716"
           in="offsetBlur" />
        <feMergeNode
           id="feMergeNode2718"
           in="SourceGraphic" />
      </feMerge>
    </filter>
    <linearGradient
       inkscape:collect="always"
       xlink:href="#linearGradient5695-6"
       id="linearGradient2391-9"
       gradientUnits="userSpaceOnUse"
       x1="21.539436"
       y1="0.92073631"
       x2="21.539436"
       y2="29.227728"
       gradientTransform="matrix(0.90156055,0,0,0.76810268,-3.1700028,3.7103526)" />
    <filter
       style="color-interpolation-filters:sRGB"
       id="filter6108-31"
       inkscape:label="Drop shadow ic_preferences"
       width="1.5"
       height="1.5"
       x="-0.25"
       y="-0.25">
      <feGaussianBlur
         id="feGaussianBlur6110-75"
         in="SourceAlpha"
         stdDeviation="0.6"
         result="blur" />
      <feColorMatrix
         id="feColorMatrix6112-96"
         result="bluralpha"
         type="matrix"
         values="1 0 0 0 0 0 1 0 0 0 0 0 1 0 0 0 0 0 0.4 0 " />
      <feOffset
         id="feOffset6114-21"
         in="bluralpha"
         dx="1"
         dy="1"
         result="offsetBlur" />
      <feMerge
         id="feMerge6116-7">
        <feMergeNode
           id="feMergeNode6118-8"
           in="offsetBlur" />
        <feMergeNode
           id="feMergeNode6120-57"
           in="SourceGraphic" />
      </feMerge>
    </filter>
    <linearGradient
       inkscape:collect="always"
       xlink:href="#linearGradient5695-6"
       id="linearGradient7077"
       x1="15.500217"
       y1="1.1275674e-06"
       x2="15.500217"
       y2="28.000002"
       gradientUnits="userSpaceOnUse"
       gradientTransform="translate(0.49976031)" />
    <filter
       style="color-interpolation-filters:sRGB"
       id="filter6108-88"
       inkscape:label="Drop shadow ic_preferences"
       width="1.5"
       height="1.5"
       x="-0.25"
       y="-0.25">
      <feGaussianBlur
         id="feGaussianBlur6110-97"
         in="SourceAlpha"
         stdDeviation="0.6"
         result="blur" />
      <feColorMatrix
         id="feColorMatrix6112-7"
         result="bluralpha"
         type="matrix"
         values="1 0 0 0 0 0 1 0 0 0 0 0 1 0 0 0 0 0 0.4 0 " />
      <feOffset
         id="feOffset6114-64"
         in="bluralpha"
         dx="1"
         dy="1"
         result="offsetBlur" />
      <feMerge
         id="feMerge6116-3">
        <feMergeNode
           id="feMergeNode6118-0"
           in="offsetBlur" />
        <feMergeNode
           id="feMergeNode6120-30"
           in="SourceGraphic" />
      </feMerge>
    </filter>
  </defs>
  <metadata
     id="metadata4">
    <rdf:RDF>
      <rdf:Description
         rdf:about="">
        <dc:title />
        <dc:creator />
        <dc:rights />
        <dc:description />
        <dc:format>image/svg+xml</dc:format>
        <dc:language>en</dc:language>
      </rdf:Description>
      <cc:Work
         rdf:about="">
        <dc:format>image/svg+xml</dc:format>
        <dc:type
           rdf:resource="http://purl.org/dc/dcmitype/StillImage" />
        <dc:title>Mixxx 1.12+ iconset</dc:title>
        <dc:subject>
          <rdf:Bag>
            <rdf:li>Mixxx</rdf:li>
            <rdf:li>GUI</rdf:li>
            <rdf:li>Interface</rdf:li>
            <rdf:li>Icons</rdf:li>
          </rdf:Bag>
        </dc:subject>
        <dc:creator>
          <cc:Agent>
            <dc:title>s.brandt@mixxx.org</dc:title>
          </cc:Agent>
        </dc:creator>
        <cc:license
           rdf:resource="http://creativecommons.org/licenses/publicdomain/" />
        <dc:date>2014-04-18</dc:date>
        <dc:source>www.mixxx.org</dc:source>
        <dc:description>Iconset for use in Mixxx 1.12s+. Optimized for 48px (16px) icon size. Contains icons for preference menu and library widget

Grid based on suggestions from http://techbase.kde.org/Projects/Oxygen/Style</dc:description>
        <dc:coverage />
        <dc:language>en</dc:language>
      </cc:Work>
      <cc:License
         rdf:about="http://creativecommons.org/licenses/publicdomain/">
        <cc:permits
           rdf:resource="http://creativecommons.org/ns#Reproduction" />
        <cc:permits
           rdf:resource="http://creativecommons.org/ns#Distribution" />
        <cc:permits
           rdf:resource="http://creativecommons.org/ns#DerivativeWorks" />
      </cc:License>
    </rdf:RDF>
  </metadata>
  <path
     style="display:inline;fill:url(#linearGradient7077);fill-opacity:1;stroke:none;"
     sodipodi:nodetypes="ccccccccccsccccccccccccccsccccccccccccccccccscccscccccccccscccccccccccccccccccccccccccsccccccccccsccccccccccccccccccscccccccsccccccsccccccccccccccccccscccccccccsccccccsssccccccccccsccccsccccccccccsccccccccccccsccccsccssccccccccccccccccccccccccccccccccccccssccccccsccccccccscccccccccssccsccccccccccccccccccsccsccccccscccscccccccccccccccsccccccccccccccccccccccccsscccccccccccccccscccccccccccccccccccccccccccccccccccccccscccccccccccccccccccccccccccccccccccscccccccccccccc"
     inkscape:connector-curvature="0"
     id="path3045"
     d="m 5.8080684,1.0059511 c -0.06049,0.163278 -0.108889,2.6614208 -0.120988,5.5514298 l -0.0363,5.2575301 -0.06049,-5.3881521 c -0.0363,-3.3145298 -0.08469,-4.6370768 -0.120988,-3.4288238 l -0.04839,1.9593278 -0.07259,-1.5511348 c -0.04839,-0.914353 -0.09679,1.2735628 -0.120988,5.3065128 l -0.06049,6.8576501 -0.0242,-6.4984391 c -0.0242,-4.130917 -0.08469,-6.4821108 -0.157284,-6.4821108 -0.07259,0 -0.133087,2.3511938 -0.145185,6.4821108 l -0.0363,6.4984391 -0.06049,-6.2045401 c -0.07259,-6.5637488 -0.10889,-6.7760098 -0.241976,-1.387858 l -0.07259,3.3471871 -0.0484,-3.6737421 -0.04839,-3.673739 -0.07259,4.163572 -0.072593,4.1635711 -0.036296,-3.5921011 C 4.0900564,2.4754481 3.9327724,2.8999681 3.8843773,9.4473899 3.8480813,14.949834 3.8359823,15.243735 3.7754883,12.304742 3.7270933,10.067843 3.7028953,9.5943399 3.6786973,10.786264 c -0.012099,0.963337 -0.072593,1.796052 -0.1451852,1.845034 -0.060494,0.04897 -0.120988,0.571471 -0.120988,1.142943 0,0.995991 -0.157284,1.551133 -0.2782716,0.947006 -0.036297,-0.195933 -0.060494,-0.130621 -0.072593,0.14695 0,0.244919 -0.1088891,0.506163 -0.217778,0.5878 -1.3723631,0.209602 -1.3441079,0.293897 -1.3441079,0.293897 0,0 0.4285506,0.144491 1.3562062,0.473506 l 0.09679,0.326554 0.096791,-0.326554 c 0.072593,-0.228588 0.108889,-0.06532 0.108889,0.571471 0.012099,1.044975 0.2177778,0.93068 0.2903707,-0.163279 0.024197,-0.408192 0.060494,0.408194 0.084691,1.796051 l 0.048395,2.530798 0.072593,-1.632772 c 0.048395,-1.175595 0.084691,-0.31023 0.1209877,3.102267 0.048396,4.081937 0.060494,4.424819 0.1209881,2.449161 0.072592,-2.514469 0.1088886,-2.432831 0.2419752,0.489833 0.060494,1.518481 0.084691,0.653109 0.1209879,-3.755379 l 0.04839,-5.714706 0.07259,5.469791 c 0.0484,3.004302 0.108889,5.502444 0.133086,5.551431 0.0242,0.04897 0.07259,-2.416505 0.108889,-5.469792 l 0.06049,-5.55143 0.0363,5.829 c 0.0121,3.690067 0.07259,5.845331 0.145186,5.845331 0.07259,0 0.133086,-1.338874 0.157283,-3.477809 l 0.0242,-3.461478 0.06049,4.000294 c 0.0484,3.673741 0.06049,3.820691 0.120988,1.87769 l 0.07259,-2.122606 0.0484,2.938991 c 0.03629,2.089952 0.07259,0.865371 0.120988,-4.245211 l 0.06049,-7.184202 0.0363,7.543414 c 0.0121,4.914646 0.07259,7.55974 0.145185,7.55974 0.07259,0 0.133087,-2.106278 0.145186,-5.92697 l 0.0363,-5.910638 0.06049,5.388153 c 0.06049,4.96363 0.07259,5.143236 0.108889,2.204243 l 0.04839,-3.183909 0.09679,3.477809 c 0.04839,1.926672 0.120988,3.526791 0.157284,3.575773 0.03629,0.06532 0.08469,-3.167578 0.09679,-7.151546 l 0.0363,-7.249514 0.06049,7.102564 c 0.0363,3.902329 0.08469,6.155553 0.108889,4.97996 l 0.0484,-2.122609 0.145185,2.122609 c 0.145186,2.073622 0.145186,1.991983 0.193581,-4.163574 l 0.04839,-6.286178 0.06049,6.041264 c 0.0363,3.314527 0.07259,5.910639 0.09679,5.747363 0.0121,-0.163282 0.08469,-0.24492 0.145185,-0.195933 0.08469,0.06532 0.133087,-1.077634 0.145186,-3.298203 l 0.0242,-3.39617 0.07259,3.183908 c 0.06049,2.775713 0.07259,2.318536 0.120987,-3.428823 l 0.06049,-6.612733 0.06049,6.612733 c 0.0484,4.996286 0.07259,5.975948 0.120989,4.000295 l 0.07259,-2.612437 0.0242,2.645092 c 0.0121,1.649101 0.07259,2.66142 0.145185,2.66142 0.07259,0 0.133087,-0.604128 0.145186,-1.43684 l 0.0242,-1.420513 0.06049,1.306219 0.06049,1.306218 0.07259,-1.714412 0.07259,-1.714413 0.0484,1.959327 c 0.0363,1.38786 0.07259,0.604127 0.120988,-2.694075 l 0.06049,-4.653403 0.0363,5.290186 c 0.0121,3.412497 0.06049,5.257531 0.145186,5.143236 0.06049,-0.08163 0.133086,-1.028648 0.157285,-2.106278 l 0.0363,-1.959327 0.0242,2.073621 c 0.02419,2.367523 0.254074,3.069615 0.290369,0.914354 l 0.0242,-1.355204 0.0726,1.469498 c 0.07259,1.306219 0.08469,1.159269 0.120988,-1.387856 l 0.04839,-2.857356 0.0726,2.122604 c 0.04839,1.436843 0.08469,-0.09799 0.1209876,-4.735041 l 0.06049,-6.857648 0.06049,6.041262 0.06049,6.04126 0.06049,-3.755379 0.06049,-3.755379 0.06049,4.898321 c 0.0484,4.441145 0.06049,4.653403 0.120987,2.367523 0.04839,-1.845034 0.07259,-2.138935 0.09679,-1.110287 0.0121,0.832716 0.07259,1.436839 0.145184,1.436839 0.0726,0 0.133086,0.130624 0.145185,0.277575 0.0242,0.163276 0.06049,-2.579785 0.09679,-6.07392 l 0.06049,-6.367815 0.06049,6.286176 c 0.04839,5.714708 0.06049,5.992278 0.120988,3.020633 l 0.0726,-3.265547 0.02419,3.543117 c 0.0121,2.236899 0.0726,3.559448 0.145185,3.559448 0.0726,0 0.133087,-1.126613 0.145186,-2.987976 l 0.0242,-2.971649 0.07259,3.02063 c 0.06049,2.547129 0.0726,1.991984 0.120988,-3.592099 l 0.06049,-6.612733 0.0242,6.416798 c 0.0242,4.179899 0.08469,6.384145 0.157284,6.318833 0.0726,-0.06532 0.133086,-1.534806 0.145186,-3.641085 l 0.0363,-3.543116 0.0605,4.571764 0.06049,4.571765 0.06049,-7.347478 0.06049,-7.347481 0.06049,7.429119 0.06049,7.42912 0.06049,-5.633068 c 0.02419,-3.216565 0.07259,-4.99629 0.108889,-4.163575 0.07259,1.387857 0.08469,1.436843 0.19358,0.816386 0.09679,-0.538815 0.133086,-0.228588 0.181482,1.95933 0.06049,2.204244 0.07259,1.81238 0.10889,-2.61244 l 0.04839,-5.224872 0.09679,4.653402 c 0.145185,7.102567 0.181482,7.249518 0.229878,1.061304 l 0.0363,-5.714706 0.08469,4.53911 c 0.0484,2.481814 0.120987,4.571766 0.169383,4.637074 0.0363,0.04897 0.08469,-1.991982 0.09679,-4.539108 l 0.0121,-4.637076 0.08469,4.53911 c 0.08469,4.506455 0.229877,6.204537 0.266171,3.118598 0.0121,-1.273563 0.0363,-1.45317 0.09679,-0.881698 0.04839,0.424521 0.09679,-0.816387 0.120987,-3.020632 l 0.0363,-3.755378 0.09679,2.44916 c 0.133086,3.37984 0.19358,3.624758 0.229878,1.061304 0.02419,-2.204247 0.02419,-2.204247 0.169382,-1.22458 l 0.145186,0.979662 0.08469,-0.898024 c 0.04839,-0.489833 0.10889,-1.191924 0.120988,-1.551137 0.02419,-0.359208 0.04839,-0.114294 0.06049,0.538816 0.0363,1.551136 0.254076,1.404186 0.290371,-0.179603 0.0121,-0.783734 0.0363,-0.947009 0.0605,-0.489833 0.04839,0.751076 0.27827,0.979664 0.27827,0.293901 0,-0.228588 0.06049,-0.408196 0.120988,-0.408196 0.07259,0 0.12099,-0.130621 0.12099,-0.293901 0,-0.277569 0.133085,-0.310225 1.355061,-0.342881 0.9921,-0.03266 0.367571,0.01634 0.440164,0.179606 0.06049,0.114295 0.108887,1.681758 0.120988,3.477808 0,1.796052 0.06049,3.445153 0.108887,3.673741 0.06049,0.244914 0.108891,-0.620458 0.120991,-2.204247 0.0121,-1.436839 0.06049,-2.938991 0.108887,-3.347183 0.09679,-0.65311 0.10889,-0.571472 0.133087,0.734747 l 0.0363,1.469494 0.108891,-1.387856 c 0.133086,-1.583788 0.229875,-2.089949 0.30247,-1.518477 0.0363,0.212259 0.133086,0.375535 0.229875,0.375535 0.133088,0 0.169382,0.293901 0.181483,1.257236 0.0121,0.702093 0.06049,1.485825 0.108887,1.763395 l 0.09679,0.489834 0.0121,-0.571471 c 0.0242,-0.849042 0.145185,-1.306218 0.326665,-1.306218 0.120989,0 0.169385,0.244914 0.181482,0.849041 0.0121,0.473502 0.04839,0.702091 0.0726,0.489832 0.09679,-0.702093 0.278272,-0.163278 0.30247,0.914354 l 0.02419,1.093956 0.0726,-1.306219 0.07259,-1.306218 0.0363,1.306218 c 0.0363,0.995993 0.06049,1.191925 0.133086,0.816386 l 0.09679,-0.489828 0.0121,0.440846 c 0,0.261244 0.0726,0.457176 0.133085,0.457176 0.0726,0 0.133087,-0.57147 0.145187,-1.3552 l 0.02419,-1.338874 0.0726,1.306219 0.0726,1.306217 0.06049,-1.061303 c 0.04839,-0.881698 0.0726,-0.718419 0.09679,0.898027 l 0.0484,1.959329 0.145185,-1.632776 c 0.08469,-0.898024 0.157285,-1.518477 0.169382,-1.387857 0.0121,0.212262 0.0242,0.212262 0.133087,0 0.0726,-0.163276 0.120988,0.03266 0.157284,0.65311 0.0363,0.80006 0.04839,0.767403 0.06049,-0.326553 0.0363,-1.894019 0.266172,-2.024639 0.266172,-0.16328 0,0.84904 0.04839,1.730739 0.09679,1.959328 0.07259,0.359212 0.09679,0.310226 0.157284,-0.326553 0.06049,-0.555146 0.08469,-0.359212 0.09679,0.816385 0.0363,1.861364 0.08469,1.763396 0.193581,-0.375539 0.04839,-0.865366 0.133087,-1.583788 0.193581,-1.583788 0.06049,0 0.108888,0.130619 0.120988,0.277571 0,0.195931 0.06049,0.14695 0.157283,-0.163278 0.205678,-0.636782 0.314569,-0.375537 0.314569,0.734748 0,0.522489 0.04839,0.94701 0.108889,0.94701 0.120989,0 0.217779,-0.685765 0.362963,-2.612437 l 0.09679,-1.22458 0.0121,0.979662 c 0.02419,0.995991 0.205678,1.09396 0.302467,0.16328 0.0242,-0.277575 0.0726,0.212258 0.08469,1.0613 l 0.04839,1.551137 0.0726,-1.306219 c 0.04839,-0.734747 0.08469,-1.012321 0.09679,-0.636783 0.0726,2.00831 0.362964,2.987976 0.41136,1.322548 0.0121,-0.816388 0.02419,-0.800059 0.09679,0.293897 l 0.0726,1.142943 0.04839,-1.714414 c 0.0363,-1.224581 0.06049,-1.485822 0.09679,-0.898023 l 0.06049,0.816385 0.157285,-0.979661 c 0.120987,-0.849044 0.145184,-0.898029 0.169383,-0.408196 l 0.02419,0.571472 0.09679,-0.489834 0.09679,-0.489832 0.0242,0.571471 c 0.0121,0.310226 0.0726,0.751078 0.120989,0.979666 0.08469,0.342882 0.09679,0.293897 0.108889,-0.326557 0.0242,-0.930679 0.241975,-1.485822 0.266173,-0.653109 l 0.0121,0.571471 0.09679,-0.489834 0.09679,-0.489828 0.0121,0.571471 c 0.0121,0.391864 0.0484,0.506159 0.120988,0.342879 0.08469,-0.179603 0.120988,-0.163277 0.169383,0.08163 0.0242,0.163277 0.0726,-0.310227 0.09679,-1.077632 l 0.0363,-1.387857 0.0726,1.469498 0.0726,1.469494 0.04839,-1.142942 c 0.0363,-1.044974 0.0484,-1.07763 0.120989,-0.489833 0.0726,0.538815 0.08469,0.44085 0.10889,-0.620453 0.0121,-0.995991 0.04839,-1.257236 0.193581,-1.257236 0.09679,0 0.181481,0.08163 0.181481,0.179606 0,0.130624 0.04839,0.130624 0.169383,0 0.133087,-0.163276 0.181481,-0.130619 0.229876,0.09799 0.0363,0.163276 0.06049,0.01631 0.0726,-0.326557 0.0121,-0.702091 0.217777,-0.816386 0.290372,-0.163275 0.0363,0.408193 0.04839,0.391863 0.07259,-0.114295 0.02419,-0.604127 0.362963,-1.616445 0.375061,-1.110286 0,0.342882 0.362963,0.21226 0.362963,-0.114295 0,-0.114294 0.0605,-0.244915 0.133087,-0.27757 0.169383,-0.08163 0.169383,-2.138934 0,-2.220572 -0.07259,-0.03266 -0.145186,-0.293901 -0.145186,-0.571472 l -0.0121,-0.522489 -0.08469,0.473506 c -0.0726,0.457176 -0.08469,0.473504 -0.278274,0.195933 -0.120987,-0.14695 -0.241975,-0.538813 -0.278273,-0.881696 -0.133085,-1.061305 -0.157281,-1.110288 -0.169382,-0.408196 -0.0121,0.767403 -0.254073,0.995993 -0.254073,0.244917 0,-0.342882 -0.0242,-0.391867 -0.120989,-0.195935 -0.08469,0.179608 -0.120989,-0.03266 -0.145185,-0.734747 l -0.0121,-0.979663 -0.08469,0.979663 c -0.08469,0.963335 -0.08469,0.963335 -0.09679,0.212262 -0.02419,-0.947009 -0.229876,-1.175598 -0.302469,-0.342881 l -0.04839,0.620451 -0.0121,-0.70209 c -0.0121,-0.424522 -0.0726,-0.669439 -0.145185,-0.604127 -0.06049,0.04897 -0.120989,0 -0.120989,-0.114294 0,-0.146952 -0.0363,-0.146952 -0.120987,0.03266 -0.08469,0.179605 -0.120986,0.04897 -0.133087,-0.489834 -0.0121,-0.408194 -0.04839,-0.57147 -0.0726,-0.375538 -0.0242,0.212262 -0.108889,0.375538 -0.169382,0.375538 -0.06049,0 -0.120988,0.244915 -0.133086,0.522488 -0.0121,0.310228 -0.0484,0.09799 -0.09679,-0.44085 -0.06049,-0.8980221 -0.08469,-0.9470061 -0.205679,-0.571471 -0.133087,0.37554 -0.145184,0.326557 -0.157284,-0.4898301 l -0.02418,-0.898039 -0.157286,0.653108 c -0.09679,0.359209 -0.169382,0.8653721 -0.181481,1.1429421 -0.0121,0.391865 -0.04839,0.310228 -0.181482,-0.408195 -0.09679,-0.4898311 -0.181484,-1.1266121 -0.193581,-1.3878551 -0.0121,-0.277572 -0.06049,-0.01633 -0.108889,0.571471 l -0.08469,1.0613011 -0.0363,-1.3878561 -0.04839,-1.387858 -0.0726,1.224579 -0.0726,1.2245811 -0.02419,-1.1429421 c -0.0363,-1.845034 -0.193582,-2.171588 -0.266175,-0.571471 -0.04839,0.995992 -0.108891,1.37153 -0.20568,1.338874 -0.08469,-0.01632 -0.157283,0.114294 -0.157283,0.3102271 0,0.244918 -0.06049,0.310229 -0.181482,0.244918 -0.145186,-0.06532 -0.181481,0.06532 -0.193581,0.604126 -0.0121,0.375536 -0.0363,0.50616 -0.06049,0.277572 -0.02423,-0.228589 -0.108914,-1.012323 -0.193607,-1.7633971 -0.205678,-1.991983 -0.435554,-1.698084 -0.483951,0.6204541 l -0.02419,1.224581 -0.04839,-0.979666 c -0.0363,-0.7184191 -0.0726,-0.8980241 -0.145186,-0.6531081 -0.07259,0.228587 -0.108888,0 -0.133087,-0.734749 -0.0121,-0.914352 -0.03629,-0.979663 -0.108886,-0.489832 l -0.08469,0.571471 -0.02419,-0.522487 c 0,-0.277572 -0.06049,-0.571471 -0.133086,-0.620453 -0.0726,-0.06531 -0.120987,0.27757 -0.120987,0.93068 0,0.571471 -0.04839,1.3225451 -0.09679,1.6817561 -0.08469,0.636782 -0.08469,0.620455 -0.157284,-0.408193 -0.0605,-1.0123191 -0.0726,-0.9959911 -0.108891,0.571471 l -0.0363,1.632772 -0.133087,-1.0613 C 22.521063,9.8555829 22.339582,9.4800449 22.24279,10.263775 22.1944,10.574002 22.1581,9.7739439 22.146,8.4677249 c -0.02419,-1.306218 -0.04839,-2.30221 -0.0726,-2.204243 -0.0242,0.08164 -0.08469,1.110286 -0.145185,2.285883 l -0.09679,2.1226051 -0.07259,-1.4694971 -0.06049,-1.469495 -0.04839,1.877689 -0.04839,1.8776901 -0.0726,-1.306219 c -0.0363,-0.7184211 -0.08469,-1.1266141 -0.09679,-0.8980261 -0.0121,0.228589 -0.07259,0.5878 -0.108887,0.8163871 -0.08469,0.37554 -0.09679,0.342883 -0.169383,-0.2449161 -0.04839,-0.473504 -0.08469,-0.244916 -0.09679,0.7837321 0,0.914353 -0.06049,1.404185 -0.133087,1.338875 -0.06049,-0.04897 -0.120988,-0.408196 -0.133085,-0.783731 -0.0121,-0.571471 -0.0242,-0.620457 -0.108891,-0.277573 -0.0726,0.375537 -0.09679,0.342883 -0.145186,-0.244916 -0.04839,-0.555144 -0.06049,-0.506159 -0.08469,0.326554 -0.0363,1.126615 -0.229876,1.975657 -0.254074,1.142942 -0.0121,-0.277571 -0.04839,-0.391865 -0.08469,-0.277571 -0.0242,0.09799 -0.09679,0.163277 -0.157282,0.114295 -0.04839,-0.04897 -0.133088,0.375537 -0.181482,0.930679 -0.0605,0.620454 -0.169383,1.126616 -0.314568,1.338874 -0.133088,0.179606 -0.241979,0.293901 -0.254076,0.244918 0,-0.03266 -0.0726,-1.240909 -0.157285,-2.67775 l -0.145185,-2.6124381 -0.0363,2.7757171 c -0.0363,2.547124 -0.04839,2.661418 -0.133087,1.387855 -0.04839,-0.767403 -0.09679,-2.351192 -0.120987,-3.5104621 l -0.0363,-2.122605 -0.0726,1.469495 c -0.0484,1.0449761 -0.08469,1.3062191 -0.133086,0.8980261 -0.0363,-0.3102271 -0.08469,0.80006 -0.08469,2.481817 l -0.02419,3.069613 h -0.27078 c -0.846913,0 -1.270372,-0.06532 -1.270372,-0.179606 0,-0.09797 -0.08469,-0.146949 -0.181481,-0.08163 -0.133086,0.06532 -0.181483,-0.04897 -0.19358,-0.440851 l -0.0121,-0.522484 -0.08469,0.489832 c -0.08469,0.473503 -0.08469,0.473503 -0.181481,0.114295 -0.120988,-0.489833 -0.290372,-0.457177 -0.350864,0.08163 -0.0363,0.326553 -0.04839,0.261245 -0.0726,-0.228589 -0.02419,-0.963337 -0.229877,-1.028648 -0.290371,-0.09799 -0.02419,0.44085 -0.04839,-0.261244 -0.06049,-1.534806 -0.0363,-3.183909 -0.254076,-3.2655481 -0.290371,-0.09799 l -0.02419,2.416505 -0.0726,-2.694079 C 14.785336,9.0881799 14.74904,8.7779529 14.664349,10.916886 l -0.0726,1.877689 -0.0242,-2.106278 c -0.0121,-1.1592691 -0.04839,-2.0736211 -0.08469,-2.0246381 -0.0363,0.04898 -0.10889,1.4041841 -0.169383,3.0043041 l -0.09679,2.922663 -0.0121,-3.08594 c -0.0121,-1.6980871 -0.06049,-3.0532881 -0.09679,-2.9879771 -0.0363,0.04898 -0.108887,1.257235 -0.157284,2.6777501 l -0.09679,2.579782 -0.0363,-2.694077 -0.0363,-2.6940761 -0.145186,1.7144111 -0.145184,1.714412 -0.0363,-1.551136 -0.04839,-1.5511341 -0.07259,1.5511341 -0.0726,1.551136 -0.0242,-1.551136 c -0.04839,-3.1185961 -0.205673,-2.2695541 -0.266168,1.469499 l -0.0726,3.837017 -0.04839,-5.388153 c -0.02418,-2.9716481 -0.07258,-4.8003541 -0.10887,-4.0819331 l -0.06049,1.306218 -0.0726,-1.469496 c -0.0726,-1.322547 -0.08469,-1.191924 -0.120987,1.306219 l -0.0484,2.7757151 -0.07259,-2.4491601 c -0.0605,-2.204245 -0.0726,-2.285883 -0.108891,-0.898026 -0.0484,2.269555 -0.229875,2.59611 -0.27827,0.489832 -0.0121,-0.947009 -0.06049,0.457177 -0.09679,3.1022681 l -0.06049,4.816685 -0.04839,-4.735046 c -0.0363,-2.6124361 -0.08469,-4.2288831 -0.120992,-3.5921001 l -0.07259,1.142942 -0.120988,-0.816387 c -0.108889,-0.702094 -0.133087,-0.342883 -0.181482,2.367521 l -0.0726,3.1839081 -0.0484,-3.8370181 -0.04839,-3.837017 -0.0726,3.510462 -0.07259,3.5104651 -0.0242,-3.8043641 c -0.0121,-2.383848 -0.07259,-3.788034 -0.145178,-3.788034 -0.06049,0 -0.133087,0.01633 -0.145184,0.03266 0,0.03266 -0.04839,1.191924 -0.09679,2.579782 l -0.0726,2.530799 -0.0484,-3.428824 c -0.04839,-3.1022698 -0.06049,-2.8246988 -0.120987,2.694075 l -0.06049,6.1229021 -0.06049,-6.0412631 -0.06049,-6.0412618 -0.06049,5.8779838 -0.06049,5.8779841 -0.06049,-5.8779841 c -0.04842,-5.2248738 -0.06051,-5.5514288 -0.121003,-2.938992 l -0.0726,2.938992 -0.0363,-2.694076 c -0.0121,-1.485824 -0.07259,-2.8410258 -0.133085,-3.0206308 -0.0726,-0.228589 -0.10889,-0.261243 -0.133087,-0.08164 -0.0121,0.130622 -0.06049,-0.01633 -0.10889,-0.326555 -0.06049,-0.342883 -0.108889,0.571471 -0.133086,2.3675218 -0.0363,2.841026 -0.0363,2.890009 -0.108889,1.142942 -0.08469,-2.008313 -0.108882,-1.649102 -0.22987,2.612436 l -0.08469,2.9389911 -0.0484,-2.1226041 -0.0484,-2.122606 -0.07259,1.387858 c -0.07259,1.2735631 -0.07259,1.2082511 -0.09679,-0.93068 -0.02418,-2.416505 -0.217759,-3.347185 -0.30245,-1.404186 l -0.0363,1.110287 -0.04839,-1.22458 c -0.0363,-0.669438 -0.08469,0.800058 -0.120988,3.265546 l -0.06049,4.4901261 -0.06049,-4.8166811 -0.06049,-4.816681 -0.06049,4.571765 -0.06049,4.5717671 -0.0363,-4.7023881 c -0.0121,-2.890009 -0.07259,-4.68606 -0.145185,-4.68606 -0.06049,0 -0.133087,0.849041 -0.157284,1.991983 l -0.0363,2.008311 -0.0242,-2.285882 c -0.0363,-2.6124378 -0.254074,-3.6737408 -0.278271,-1.306219 -0.0121,1.796051 -0.08469,1.616446 -0.217779,-0.50616 -0.07259,-1.2245798 -0.108889,-0.01633 -0.145185,4.914648 l -0.04839,6.5310951 -0.06049,-6.9392881 c -0.0363,-3.820689 -0.07259,-6.2371938 -0.09679,-5.3881518 -0.04839,2.7593868 -0.193581,3.1185958 -0.266173,0.6531088 -0.0484,-1.4205118 -0.08469,0.244916 -0.120988,4.735043 l -0.06049,6.9392881 -0.06049,-7.4291201 c -0.0363,-4.081934 -0.09679,-7.29849677 -0.145185,-7.1352198 z"
     inkscape:export-filename="/Users/maxi/Dropbox/Coding/git/mixxxdj-mixxx/res/images/preferences/ic_preferences_waveforms.png"
     inkscape:export-xdpi="135"
     inkscape:export-ydpi="135" />
</svg>
