<?xml version="1.0" encoding="UTF-8" standalone="no"?>
<svg
   xmlns:osb="http://www.openswatchbook.org/uri/2009/osb"
   xmlns:dc="http://purl.org/dc/elements/1.1/"
   xmlns:cc="http://creativecommons.org/ns#"
   xmlns:rdf="http://www.w3.org/1999/02/22-rdf-syntax-ns#"
   xmlns:svg="http://www.w3.org/2000/svg"
   xmlns="http://www.w3.org/2000/svg"
   xmlns:xlink="http://www.w3.org/1999/xlink"
   xmlns:sodipodi="http://sodipodi.sourceforge.net/DTD/sodipodi-0.dtd"
   xmlns:inkscape="http://www.inkscape.org/namespaces/inkscape"
   version="1.1"
   width="32"
   height="32"
   id="svg2"
   inkscape:version="0.92.3 (unknown)"
   sodipodi:docname="ic_preferences_keydetect.svg"
   style="display:inline"
   inkscape:export-filename=""
   inkscape:export-xdpi="135"
   inkscape:export-ydpi="135">
  <sodipodi:namedview
     pagecolor="#ffffff"
     bordercolor="#666666"
     borderopacity="1"
     objecttolerance="10"
     gridtolerance="10"
     guidetolerance="10"
     inkscape:pageopacity="0"
     inkscape:pageshadow="2"
     inkscape:window-width="1366"
     inkscape:window-height="740"
     id="namedview26"
     showgrid="true"
     inkscape:zoom="21.382823"
     inkscape:cx="13.672748"
     inkscape:cy="17.918718"
     inkscape:window-x="0"
     inkscape:window-y="0"
     inkscape:window-maximized="1"
     inkscape:current-layer="svg2"
     inkscape:object-paths="true"
     showguides="true"
     inkscape:guide-bbox="true"
     inkscape:snap-midpoints="true">
    <inkscape:grid
       type="xygrid"
       id="grid3788"
       empspacing="4"
       visible="true"
       enabled="true"
       snapvisiblegridlinesonly="true"
       originx="4"
       spacingx="1"
       spacingy="1"
       color="#00ffe0"
       opacity="0.1254902"
       empcolor="#0072ff"
       empopacity="0.25098039"
       originy="4"
       dotted="false" />
  </sodipodi:namedview>
  <title
     id="title5647">Mixxx 1.12+ iconset</title>
  <defs
     id="defs28">
    <linearGradient
       id="linearGradient5515"
       osb:paint="solid">
      <stop
         style="stop-color:#000000;stop-opacity:1;"
         offset="0"
         id="stop5517" />
    </linearGradient>
    <linearGradient
       id="linearGradient4942">
      <stop
         style="stop-color:#ff6600;stop-opacity:1;"
         offset="0"
         id="stop4944" />
      <stop
         style="stop-color:#de5800;stop-opacity:1;"
         offset="1"
         id="stop4946" />
    </linearGradient>
    <linearGradient
       id="linearGradient5695-6">
      <stop
         style="stop-color:#3c3c3c;stop-opacity:1;"
         offset="0"
         id="stop5697-6" />
      <stop
         style="stop-color:#000000;stop-opacity:1;"
         offset="1"
         id="stop5699-7" />
    </linearGradient>
    <filter
       id="filter6108"
       inkscape:label="Drop shadow ic_preferences"
       width="1.5"
       height="1.5"
       x="-0.25"
       y="-0.25"
       color-interpolation-filters="sRGB">
      <feGaussianBlur
         id="feGaussianBlur6110"
         in="SourceAlpha"
         stdDeviation="0.6"
         result="blur" />
      <feColorMatrix
         id="feColorMatrix6112"
         result="bluralpha"
         type="matrix"
         values="1 0 0 0 0 0 1 0 0 0 0 0 1 0 0 0 0 0 0.4 0 " />
      <feOffset
         id="feOffset6114"
         in="bluralpha"
         dx="1"
         dy="1"
         result="offsetBlur" />
      <feMerge
         id="feMerge6116">
        <feMergeNode
           id="feMergeNode6118"
           in="offsetBlur" />
        <feMergeNode
           id="feMergeNode6120"
           in="SourceGraphic" />
      </feMerge>
    </filter>
    <linearGradient
       id="linearGradient5695-4">
      <stop
         style="stop-color:#646464;stop-opacity:1;"
         offset="0"
         id="stop5697-7" />
      <stop
         style="stop-color:#000000;stop-opacity:1;"
         offset="1"
         id="stop5699-6" />
    </linearGradient>
    <linearGradient
       id="linearGradient4942-73">
      <stop
         style="stop-color:#ff6600;stop-opacity:1;"
         offset="0"
         id="stop4944-6" />
      <stop
         style="stop-color:#de5800;stop-opacity:1;"
         offset="1"
         id="stop4946-6" />
    </linearGradient>
    <linearGradient
       id="linearGradient4942-5">
      <stop
         style="stop-color:#ff6600;stop-opacity:1;"
         offset="0"
         id="stop4944-9" />
      <stop
         style="stop-color:#de5800;stop-opacity:1;"
         offset="1"
         id="stop4946-5" />
    </linearGradient>
    <filter
       style="color-interpolation-filters:sRGB"
       id="filter6108-7"
       inkscape:label="Drop shadow ic_preferences"
       width="1.5"
       height="1.5"
       x="-0.25"
       y="-0.25">
      <feGaussianBlur
         id="feGaussianBlur6110-5"
         in="SourceAlpha"
         stdDeviation="0.6"
         result="blur" />
      <feColorMatrix
         id="feColorMatrix6112-3"
         result="bluralpha"
         type="matrix"
         values="1 0 0 0 0 0 1 0 0 0 0 0 1 0 0 0 0 0 0.4 0 " />
      <feOffset
         id="feOffset6114-5"
         in="bluralpha"
         dx="1"
         dy="1"
         result="offsetBlur" />
      <feMerge
         id="feMerge6116-6">
        <feMergeNode
           id="feMergeNode6118-2"
           in="offsetBlur" />
        <feMergeNode
           id="feMergeNode6120-9"
           in="SourceGraphic" />
      </feMerge>
    </filter>
    <filter
       style="color-interpolation-filters:sRGB"
       id="filter6108-70"
       inkscape:label="Drop shadow ic_preferences"
       width="1.5"
       height="1.5"
       x="-0.25"
       y="-0.25">
      <feGaussianBlur
         id="feGaussianBlur6110-9"
         in="SourceAlpha"
         stdDeviation="0.6"
         result="blur" />
      <feColorMatrix
         id="feColorMatrix6112-36"
         result="bluralpha"
         type="matrix"
         values="1 0 0 0 0 0 1 0 0 0 0 0 1 0 0 0 0 0 0.4 0 " />
      <feOffset
         id="feOffset6114-0"
         in="bluralpha"
         dx="1"
         dy="1"
         result="offsetBlur" />
      <feMerge
         id="feMerge6116-62">
        <feMergeNode
           id="feMergeNode6118-6"
           in="offsetBlur" />
        <feMergeNode
           id="feMergeNode6120-1"
           in="SourceGraphic" />
      </feMerge>
    </filter>
    <filter
       style="color-interpolation-filters:sRGB"
       id="filter1927"
       inkscape:label="Drop shadow ic_preferences"
       width="1.5"
       height="1.5"
       x="-0.25"
       y="-0.25">
      <feGaussianBlur
         id="feGaussianBlur1915"
         in="SourceAlpha"
         stdDeviation="0.6"
         result="blur" />
      <feColorMatrix
         id="feColorMatrix1917"
         result="bluralpha"
         type="matrix"
         values="1 0 0 0 0 0 1 0 0 0 0 0 1 0 0 0 0 0 0.4 0 " />
      <feOffset
         id="feOffset1919"
         in="bluralpha"
         dx="1"
         dy="1"
         result="offsetBlur" />
      <feMerge
         id="feMerge1925">
        <feMergeNode
           id="feMergeNode1921"
           in="offsetBlur" />
        <feMergeNode
           id="feMergeNode1923"
           in="SourceGraphic" />
      </feMerge>
    </filter>
    <filter
       style="color-interpolation-filters:sRGB"
       id="filter6108-8"
       inkscape:label="Drop shadow ic_preferences"
       width="1.5"
       height="1.5"
       x="-0.25"
       y="-0.25">
      <feGaussianBlur
         id="feGaussianBlur6110-7"
         in="SourceAlpha"
         stdDeviation="0.6"
         result="blur" />
      <feColorMatrix
         id="feColorMatrix6112-9"
         result="bluralpha"
         type="matrix"
         values="1 0 0 0 0 0 1 0 0 0 0 0 1 0 0 0 0 0 0.4 0 " />
      <feOffset
         id="feOffset6114-2"
         in="bluralpha"
         dx="1"
         dy="1"
         result="offsetBlur" />
      <feMerge
         id="feMerge6116-0">
        <feMergeNode
           id="feMergeNode6118-23"
           in="offsetBlur" />
        <feMergeNode
           id="feMergeNode6120-7"
           in="SourceGraphic" />
      </feMerge>
    </filter>
    <filter
       style="color-interpolation-filters:sRGB"
       id="filter6108-89"
       inkscape:label="Drop shadow ic_preferences"
       width="1.5"
       height="1.5"
       x="-0.25"
       y="-0.25">
      <feGaussianBlur
         id="feGaussianBlur6110-73"
         in="SourceAlpha"
         stdDeviation="0.6"
         result="blur" />
      <feColorMatrix
         id="feColorMatrix6112-6"
         result="bluralpha"
         type="matrix"
         values="1 0 0 0 0 0 1 0 0 0 0 0 1 0 0 0 0 0 0.4 0 " />
      <feOffset
         id="feOffset6114-1"
         in="bluralpha"
         dx="1"
         dy="1"
         result="offsetBlur" />
      <feMerge
         id="feMerge6116-2">
        <feMergeNode
           id="feMergeNode6118-9"
           in="offsetBlur" />
        <feMergeNode
           id="feMergeNode6120-3"
           in="SourceGraphic" />
      </feMerge>
    </filter>
    <filter
       style="color-interpolation-filters:sRGB"
       id="filter6108-6"
       inkscape:label="Drop shadow ic_preferences"
       width="1.5"
       height="1.5"
       x="-0.25"
       y="-0.25">
      <feGaussianBlur
         id="feGaussianBlur6110-8"
         in="SourceAlpha"
         stdDeviation="0.6"
         result="blur" />
      <feColorMatrix
         id="feColorMatrix6112-8"
         result="bluralpha"
         type="matrix"
         values="1 0 0 0 0 0 1 0 0 0 0 0 1 0 0 0 0 0 0.4 0 " />
      <feOffset
         id="feOffset6114-4"
         in="bluralpha"
         dx="1"
         dy="1"
         result="offsetBlur" />
      <feMerge
         id="feMerge6116-3">
        <feMergeNode
           id="feMergeNode6118-1"
           in="offsetBlur" />
        <feMergeNode
           id="feMergeNode6120-4"
           in="SourceGraphic" />
      </feMerge>
    </filter>
    <linearGradient
       inkscape:collect="always"
       xlink:href="#linearGradient5695-6"
       id="linearGradient3465"
       x1="14"
       y1="2"
       x2="14"
       y2="28"
       gradientUnits="userSpaceOnUse" />
    <linearGradient
       inkscape:collect="always"
       xlink:href="#linearGradient5695-6"
       id="linearGradient3438"
       x1="20"
       y1="2"
       x2="20"
       y2="28"
       gradientUnits="userSpaceOnUse" />
    <filter
       style="color-interpolation-filters:sRGB"
       id="filter2349"
       inkscape:label="Drop shadow ic_preferences"
       width="1.5"
       height="1.5"
       x="-0.25"
       y="-0.25">
      <feGaussianBlur
         id="feGaussianBlur2337"
         in="SourceAlpha"
         stdDeviation="0.6"
         result="blur" />
      <feColorMatrix
         id="feColorMatrix2339"
         result="bluralpha"
         type="matrix"
         values="1 0 0 0 0 0 1 0 0 0 0 0 1 0 0 0 0 0 0.4 0 " />
      <feOffset
         id="feOffset2341"
         in="bluralpha"
         dx="1"
         dy="1"
         result="offsetBlur" />
      <feMerge
         id="feMerge2347">
        <feMergeNode
           id="feMergeNode2343"
           in="offsetBlur" />
        <feMergeNode
           id="feMergeNode2345"
           in="SourceGraphic" />
      </feMerge>
    </filter>
    <linearGradient
       inkscape:collect="always"
       xlink:href="#linearGradient5695-6"
       id="linearGradient1951"
       gradientUnits="userSpaceOnUse"
       x1="20"
       y1="2"
       x2="20"
       y2="28"
       gradientTransform="matrix(1,0,0,1.3333333,0,-5.3333333)" />
    <linearGradient
       inkscape:collect="always"
       xlink:href="#linearGradient5695-6"
       id="linearGradient1965"
       gradientUnits="userSpaceOnUse"
       x1="14"
       y1="2"
       x2="14"
       y2="28" />
    <linearGradient
       inkscape:collect="always"
       xlink:href="#linearGradient5695-6"
       id="linearGradient1967"
       gradientUnits="userSpaceOnUse"
       x1="20"
       y1="2"
       x2="20"
       y2="28" />
  </defs>
  <metadata
     id="metadata4">
    <rdf:RDF>
      <rdf:Description
         rdf:about="">
        <dc:title />
        <dc:creator />
        <dc:rights />
        <dc:description />
        <dc:format>image/svg+xml</dc:format>
        <dc:language>en</dc:language>
      </rdf:Description>
      <cc:Work
         rdf:about="">
        <dc:format>image/svg+xml</dc:format>
        <dc:type
           rdf:resource="http://purl.org/dc/dcmitype/StillImage" />
        <dc:title>Mixxx 1.12+ iconset</dc:title>
        <dc:subject>
          <rdf:Bag>
            <rdf:li>Mixxx</rdf:li>
            <rdf:li>GUI</rdf:li>
            <rdf:li>Interface</rdf:li>
            <rdf:li>Icons</rdf:li>
          </rdf:Bag>
        </dc:subject>
        <dc:creator>
          <cc:Agent>
            <dc:title>s.brandt@mixxx.org</dc:title>
          </cc:Agent>
        </dc:creator>
        <cc:license
           rdf:resource="http://creativecommons.org/licenses/publicdomain/" />
        <dc:date>2014-04-18</dc:date>
        <dc:source>www.mixxx.org</dc:source>
        <dc:description>Iconset for use in Mixxx 1.12s+. Optimized for 48px (16px) icon size. Contains icons for preference menu and library widget

Grid based on suggestions from http://techbase.kde.org/Projects/Oxygen/Style</dc:description>
        <dc:coverage />
        <dc:language>en</dc:language>
      </cc:Work>
      <cc:License
         rdf:about="http://creativecommons.org/licenses/publicdomain/">
        <cc:permits
           rdf:resource="http://creativecommons.org/ns#Reproduction" />
        <cc:permits
           rdf:resource="http://creativecommons.org/ns#Distribution" />
        <cc:permits
           rdf:resource="http://creativecommons.org/ns#DerivativeWorks" />
      </cc:License>
    </rdf:RDF>
  </metadata>
  <path
     sodipodi:nodetypes="ccsccscccccccccccccccccscccccsccscccccccccsccsccccssccssccssccscccccccssscscscscccssccccscc"
     style="display:inline;fill:url(#linearGradient3465);fill-opacity:1;fill-rule:evenodd;stroke:url(#linearGradient3438);stroke-width:0.53920877;"
     id="path9"
     d="m 8.7866813,17.521592 c -0.487184,0.123176 -0.926447,0.39851 -1.333763,0.818757 -0.407319,0.427494 -0.606984,0.898461 -0.606984,1.405656 0,0.318809 0.119799,0.681091 0.351412,1.06511 0.231611,0.391266 0.583023,0.673846 1.038259,0.854987 0.151746,0.02898 0.223625,0.101437 0.223625,0.202878 0,0.03623 -0.0559,0.07245 -0.191679,0.101438 C 7.5407693,21.803768 6.9417733,21.448732 6.4785514,20.9198 6.0153268,20.383622 5.7757282,19.774987 5.7597556,19.079406 5.7837038,18.333104 6.0312993,17.637521 6.5025102,16.999905 6.9817073,16.355042 7.5966763,15.898567 8.3474173,15.630477 l -0.551076,-2.572205 c -1.229939,0.927444 -2.2282643,1.891115 -3.0029662,2.905505 -0.7747008,1.007145 -1.1740318,2.101238 -1.2059792,3.282278 0.015965,0.528932 0.1357724,1.043375 0.3593972,1.536079 0.2236261,0.499949 0.5590633,0.949178 1.0063144,1.362181 0.9024869,0.818758 2.0765198,1.24625 3.5061228,1.289725 0.487183,-0.02898 1.0063141,-0.108685 1.5653747,-0.239107 z m 0.575036,-0.07245 1.2459117,5.571902 c 1.229938,-0.449231 1.844909,-1.427393 1.844909,-2.919996 -0.07188,-0.499949 -0.231612,-0.94918 -0.503158,-1.34769 -0.263557,-0.405757 -0.614969,-0.724564 -1.062218,-0.956426 -0.44725,-0.231861 -0.9504076,-0.34779 -1.5254447,-0.34779 z M 7.7244613,9.913664 c 0.263559,-0.144914 0.56705,-0.398511 0.894501,-0.753549 0.327451,-0.34779 0.646916,-0.760792 0.9504071,-1.224513 0.311478,-0.470968 0.5590636,-0.94918 0.7427566,-1.434639 0.183691,-0.478212 0.271545,-0.934688 0.271545,-1.354935 0,-0.181142 -0.01597,-0.362283 -0.0559,-0.521687 C 10.495811,4.363497 10.40797,4.16062 10.256224,4.022953 10.104477,3.8925309 9.9127984,3.8200739 9.6732004,3.8200739 c -0.4791971,0 -0.9104741,0.2680891 -1.2938311,0.8042671 -0.295506,0.463721 -0.543089,1.01439 -0.718796,1.637516 -0.183692,0.630371 -0.287518,1.253497 -0.303491,1.883868 0.03994,0.717319 0.167719,1.304217 0.367379,1.767939 z m -0.503157,0.420248 C 6.8619073,9.160115 6.6622423,7.964584 6.6223103,6.747315 c 0.008,-0.78253 0.09583,-1.514339 0.263557,-2.19543 0.159732,-0.6810901 0.391344,-1.2679891 0.694836,-1.7751841 0.295505,-0.507196 0.638928,-0.891214 1.022285,-1.152058 0.343425,-0.2318611 0.59101,-0.3550361 0.726782,-0.3550361 0.1038231,0 0.1916791,0.03623 0.2715461,0.1014351 0.07987,0.06522 0.183692,0.173896 0.311478,0.318809 0.9504066,1.224514 1.4296036,2.7026271 1.4296036,4.4270901 0,0.818758 -0.1198,1.61578 -0.359399,2.412801 -0.231612,0.789775 -0.575034,1.543323 -1.0302716,2.24615 -0.463224,0.710074 -1.0063141,1.325954 -1.6372561,1.854886 l 0.646915,2.854785 c 0.351412,-0.03623 0.5910111,-0.06522 0.7267831,-0.06522 0.6069806,0 1.1500706,0.115931 1.6532286,0.347791 0.503156,0.231861 0.934433,0.543422 1.285844,0.941934 0.351412,0.391264 0.622955,0.840495 0.814634,1.347691 0.183693,0.507194 0.287519,1.036127 0.287519,1.586795 0,0.854987 -0.247586,1.637517 -0.742756,2.340345 -0.495168,0.702827 -1.237925,1.217269 -2.236252,1.550568 0.0639,0.355036 0.175706,0.869478 0.343425,1.528832 0.159732,0.6666 0.279531,1.195532 0.359398,1.586797 0.07987,0.391265 0.111806,0.768038 0.111806,1.137566 0,0.572407 -0.151746,1.079602 -0.455236,1.528832 -0.31148,0.44923 -0.726783,0.797021 -1.2538996,1.043372 -0.5191301,0.246352 -1.0941661,0.369528 -1.7171211,0.369528 -0.878529,0 -1.6452414,-0.224614 -2.3001445,-0.666599 -0.6549022,-0.44923 -1.0063143,-1.050618 -1.0382595,-1.818657 0.023972,-0.340545 0.1118055,-0.659352 0.2715438,-0.96367 0.1597322,-0.304319 0.375371,-0.550671 0.654903,-0.739057 0.2715438,-0.195632 0.5989948,-0.297071 0.9743662,-0.318808 0.311478,0 0.606983,0.0797 0.886514,0.231861 0.271545,0.159403 0.495171,0.369528 0.662889,0.637616 0.159733,0.26809 0.247585,0.565161 0.247585,0.88397 0,0.427492 -0.159732,0.789776 -0.479198,1.086848 -0.319464,0.297071 -0.726781,0.449229 -1.213964,0.449229 h -0.183691 c 0.311477,0.434739 0.822619,0.659353 1.53343,0.659353 0.359397,0 0.726781,-0.07245 1.094164,-0.202878 0.3753721,-0.137667 0.6868491,-0.318809 0.9504077,-0.550669 0.263557,-0.231859 0.439264,-0.478211 0.511143,-0.739055 0.135772,-0.297073 0.199666,-0.710074 0.199666,-1.224513 0,-0.347792 -0.03994,-0.695583 -0.111806,-1.043375 -0.07188,-0.340541 -0.183692,-0.797017 -0.33544,-1.362178 -0.151743,-0.557915 -0.263556,-0.992653 -0.327451,-1.289725 -0.4791946,0.108685 -0.9743657,0.16665 -1.4934947,0.16665 -0.870541,0 -1.693161,-0.159405 -2.4678632,-0.485458 -0.7747019,-0.326055 -1.453564,-0.775284 -2.0445736,-1.354936 -0.5830233,-0.579652 -1.0382581,-1.23176 -1.3657092,-1.970816 -0.319466,-0.73181 -0.4871847,-1.499849 -0.495172,-2.29687 0.031955,-0.739056 0.1836924,-1.449129 0.4712108,-2.115729 0.2875174,-0.673845 0.6549022,-1.311462 1.1101405,-1.905605 0.4552349,-0.594144 0.9264458,-1.137567 1.4136292,-1.623026 0.4951708,-0.478212 1.1420854,-1.094092 1.9567195,-1.840385 z"
     class="fil0 str0"
     inkscape:connector-curvature="0" />
  <path
     style="color:#000000;font-style:normal;font-variant:normal;font-weight:normal;font-stretch:normal;font-size:medium;line-height:normal;font-family:sans-serif;font-variant-ligatures:normal;font-variant-position:normal;font-variant-caps:normal;font-variant-numeric:normal;font-variant-alternates:normal;font-feature-settings:normal;text-indent:0;text-align:start;text-decoration:none;text-decoration-line:none;text-decoration-style:solid;text-decoration-color:#000000;letter-spacing:normal;word-spacing:normal;text-transform:none;writing-mode:lr-tb;direction:ltr;text-orientation:mixed;dominant-baseline:auto;baseline-shift:baseline;text-anchor:start;white-space:normal;shape-padding:0;clip-rule:nonzero;display:inline;overflow:visible;visibility:visible;opacity:1;isolation:auto;mix-blend-mode:normal;color-interpolation:sRGB;color-interpolation-filters:linearRGB;solid-color:#000000;solid-opacity:1;vector-effect:none;fill:url(#linearGradient1951);fill-opacity:1;fill-rule:nonzero;stroke:none;stroke-width:0.74999994;stroke-linecap:butt;stroke-linejoin:miter;stroke-miterlimit:4;stroke-dasharray:none;stroke-dashoffset:0;stroke-opacity:1;color-rendering:auto;image-rendering:auto;shape-rendering:auto;text-rendering:auto;enable-background:accumulate"
     d="M 14 7 L 14 8 L 25 8 L 25 11 L 14 11 L 14 12 L 25 12 L 25 15 L 16 15 L 16 16 L 25 16 L 25 19 L 18 19 L 18 20 L 25 20 L 25 23 L 16 23 L 16 24 L 30 24 L 30 23.25 L 30 23 L 30 20 L 30 19 L 30 16 L 30 15 L 30 12 L 30 11 L 30 8 L 30 7.625 L 30 7 L 14 7 z M 26 8 L 28 8 L 28 11 L 26 11 L 26 8 z M 26 12 L 28 12 L 28 15 L 26 15 L 26 12 z M 26 16 L 28 16 L 28 19 L 26 19 L 26 16 z M 26 20 L 28 20 L 28 23 L 26 23 L 26 20 z "
     id="path11" />
</svg>
