/* XPM */
static char * icon_small_xpm[] = {
"16 16 58 1",
" 	c None",
".	c #8E908B",
"+	c #888A85",
"@	c #E0E0DF",
"#	c #FCFCFC",
"$	c #FDFDFD",
"%	c #FEFEFE",
"&	c #FFFFFF",
"*	c #F4F4F3",
"=	c #F3F3F3",
"-	c #F5F5F5",
";	c #F6F6F6",
">	c #9EA1A1",
",	c #2E3436",
"'	c #A0A3A4",
")	c #F8F8F8",
"!	c #FAFAFA",
"~	c #B7B8B7",
"{	c #A6A7A5",
"]	c #8D8E8C",
"^	c #B2B4B2",
"/	c #676A65",
"(	c #B4B4B3",
"_	c #C20606",
":	c #848583",
"<	c #ADAFAD",
"[	c #A3A4A2",
"}	c #A8A8A7",
"|	c #ABABAA",
"1	c #CC0000",
"2	c #7C7C7A",
"3	c #FBFBFB",
"4	c #BDC0BC",
"5	c #C4C7C2",
"6	c #A2A3A1",
"7	c #727371",
"8	c #B0B2B0",
"9	c #999997",
"0	c #696A67",
"a	c #A9ABA9",
"b	c #EDEDED",
"c	c #EAEAEA",
"d	c #E8E8E8",
"e	c #E3E3E3",
"f	c #8E8F8E",
"g	c #787977",
"h	c #5D5F5C",
"i	c #E5E5E5",
"j	c #E4E4E4",
"k	c #CFCFCF",
"l	c #818484",
"m	c #858889",
"n	c #D7D7D7",
"o	c #E2E2E2",
"p	c #E1E1E1",
"q	c #8D8F8A",
"r	c #DFDFDF",
"s	c #DADAD9",
" .++++++++++++. ",
".@###$$$$%%%&&*.",
"+#==-;>,,,'&$#%+",
"+$-;)!,~{],!);$+",
"+%^///,(_:,//<$+",
"+%/[}},|12,}[/3+",
"+&/455,617,54/3+",
"+%8///,9_0,//a3+",
"+$bcde,fgh,iii3+",
"+3ijjkl,,,mnjj3+",
"+!ooopooooopoo!+",
"+!p+p+p+p+p+pq!+",
"+!p+r+rrrrr+r+!+",
"qs!!!!!!!!!!!!sq",
" q++++++++++++q ",
"                "};
