<svg width="26" height="26" version="1.1" xmlns="http://www.w3.org/2000/svg">
	<g>
		<rect width="26" height="26" fill="#1e1e1d" style="paint-order:fill markers stroke"/>
		<path d="M 0,0 0.05508475,25.972358 1,26 1.4121094,24.587891 C 1.1557815,24.331563 1,23.974688 1,23.576172 V 2.4238281 C 1,1.6267949 1.6267949,1 2.4238281,1 H 23.576172 c 0.398516,0 0.755391,0.1557815 1.011719,0.4121094 L 26,0 h -2.423828 z" color="#000000" color-rendering="auto" dominant-baseline="auto" fill="#2a2a28" image-rendering="auto" shape-rendering="auto" solid-color="#000000" style="font-feature-settings:normal;font-variant-alternates:normal;font-variant-caps:normal;font-variant-ligatures:normal;font-variant-numeric:normal;font-variant-position:normal;isolation:auto;mix-blend-mode:normal;paint-order:fill markers stroke;shape-padding:0;text-decoration-color:#000000;text-decoration-line:none;text-decoration-style:solid;text-indent:0;text-orientation:mixed;text-transform:none;white-space:normal"/>
		<rect x="1.412109" y="1.412109" width="23.175781" height="23.175781" fill="#0f0f0e" style="paint-order:fill markers stroke"/>
	</g>
	<g shape-rendering="auto">
		<path d="m2.4003906 1c-.7669513 0-1.4003906.6334393-1.4003906 1.4003906v21.1992184c0 .383476.1578806.734053.4121094.988282l.7011718-.701172c-.0713165-.071317-.1132812-.171985-.1132812-.28711v-21.1992184c0-.2302486.170142-.4003906.4003906-.4003906h21.1992184c.115125 0 .215793.0419647.28711.1132812l.701172-.7011718c-.254229-.2542288-.604806-.4121094-.988282-.4121094h-21.1992184z" color="#000000" color-rendering="auto" dominant-baseline="auto" fill="#444442" image-rendering="auto" solid-color="#000000" style="font-feature-settings:normal;font-variant-alternates:normal;font-variant-caps:normal;font-variant-ligatures:normal;font-variant-numeric:normal;font-variant-position:normal;isolation:auto;mix-blend-mode:normal;paint-order:fill markers stroke;shape-padding:0;text-decoration-color:#000000;text-decoration-line:none;text-decoration-style:solid;text-indent:0;text-orientation:mixed;text-transform:none;white-space:normal"/>
		<path d="m23.599609 25c.766952 0 1.400391-.633439 1.400391-1.400391v-21.199218c0-.383476-.157881-.734053-.412109-.988282l-.701172.701172c.07132.071317.113281.171985.113281.28711v21.199218c0 .230249-.170142.400391-.400391.400391h-21.1992178c-.115125 0-.215793-.04196-.28711-.113281l-.701172.701172c.254229.254228.604806.412109.988282.412109z" color="#000000" color-rendering="auto" dominant-baseline="auto" fill="#010100" image-rendering="auto" solid-color="#000000" style="font-feature-settings:normal;font-variant-alternates:normal;font-variant-caps:normal;font-variant-ligatures:normal;font-variant-numeric:normal;font-variant-position:normal;isolation:auto;mix-blend-mode:normal;paint-order:fill markers stroke;shape-padding:0;text-decoration-color:#000000;text-decoration-line:none;text-decoration-style:solid;text-indent:0;text-orientation:mixed;text-transform:none;white-space:normal"/>
		<path d="m26 26v-26l-1.412109 1.412109c.256328.256328.412109.613203.412109 1.011719v21.152344c0 .797033-.626795 1.423828-1.423828 1.423828h-21.1523438c-.398516 0-.755391-.155781-1.011719-.412109l-.4121092 1.412109z" color="#000000" color-rendering="auto" dominant-baseline="auto" fill="#0e0e0c" image-rendering="auto" solid-color="#000000" style="font-feature-settings:normal;font-variant-alternates:normal;font-variant-caps:normal;font-variant-ligatures:normal;font-variant-numeric:normal;font-variant-position:normal;isolation:auto;mix-blend-mode:normal;paint-order:fill markers stroke;shape-padding:0;text-decoration-color:#000000;text-decoration-line:none;text-decoration-style:solid;text-indent:0;text-orientation:mixed;text-transform:none;white-space:normal"/>
	</g>
</svg>
