<svg width="20" height="20" version="1.1" xmlns="http://www.w3.org/2000/svg" xmlns:xlink="http://www.w3.org/1999/xlink">
	<defs>
		<linearGradient id="b">
			<stop offset="0"/>
			<stop stop-color="#5a5a5a" offset=".42617449"/>
			<stop stop-color="#979797" offset="1"/>
		</linearGradient>
		<linearGradient id="c" x1="256.73999" x2="484.70999" y1="472.03" y2="472.03" gradientTransform="matrix(-.02689375 -.08131675 .08068125 -.02710559 -17.729844 51.688341)" gradientUnits="userSpaceOnUse">
			<stop stop-color="#060606" offset="0"/>
			<stop stop-color="#343434" offset="1"/>
		</linearGradient>
		<linearGradient id="f" x1=".48967797" x2="19.539619" y1="10.011954" y2="10.011954" gradientTransform="rotate(180 -9.985347 10.011957)" gradientUnits="userSpaceOnUse" xlink:href="#b"/>
		<linearGradient id="u" x1="3.5003572" x2="3.5003572" y1="21.247955" y2="-.1809755" gradientTransform="matrix(.91881554 0 0 .91881554 .81288587 -39.139006)" gradientUnits="userSpaceOnUse" xlink:href="#b"/>
		<linearGradient id="t" x1=".49674207" x2="19.53257" y1="10.011954" y2="10.011954" gradientTransform="rotate(-90,-9.985344,30.011954)" gradientUnits="userSpaceOnUse" xlink:href="#b"/>
		<linearGradient id="e" x1="-5.2630553" x2="19.539619" y1="10.011954" y2="10.011954" gradientTransform="rotate(-90,-9.985345,30.011959)" gradientUnits="userSpaceOnUse" xlink:href="#b"/>
		<linearGradient id="d" x1="27.888315" x2="53.793419" y1="9.8968611" y2="9.8968611" gradientUnits="userSpaceOnUse" xlink:href="#b"/>
		<linearGradient id="q" x1="27.888315" x2="53.793419" y1="9.8968611" y2="9.8968611" gradientTransform="matrix(1.2970097,0,0,1.29701,-13.068549,-2.9736993)" gradientUnits="userSpaceOnUse" xlink:href="#b"/>
		<linearGradient id="o" x1="27.888315" x2="53.793419" y1="9.8968611" y2="9.8968611" gradientTransform="matrix(.64280627 0 0 .64280627 12.758843 3.576266)" gradientUnits="userSpaceOnUse" xlink:href="#b"/>
		<linearGradient id="n" x1="27.888315" x2="53.793419" y1="9.8968611" y2="9.8968611" gradientTransform="matrix(.59226271 0 0 .59226271 21.332937 4.0823143)" gradientUnits="userSpaceOnUse" xlink:href="#b"/>
		<linearGradient id="m" x1="27.888315" x2="53.793419" y1="9.8968611" y2="9.8968611" gradientTransform="matrix(.58022484 0 0 .58022484 18.470278 7.6543595)" gradientUnits="userSpaceOnUse" xlink:href="#b"/>
		<linearGradient id="l" x1="27.888315" x2="53.793419" y1="9.8968611" y2="9.8968611" gradientTransform="matrix(.61994903 0 0 .61994903 16.722411 .60838196)" gradientUnits="userSpaceOnUse" xlink:href="#b"/>
		<linearGradient id="p" x1="27.888315" x2="53.793419" y1="9.8968611" y2="9.8968611" gradientTransform="matrix(0,-1.2063935,1.206393,0,21.68668,73.693886)" gradientUnits="userSpaceOnUse" xlink:href="#b"/>
		<linearGradient id="k" x1="4.4978113" x2="15.295909" y1="-43.891712" y2="-43.891712" gradientTransform="matrix(.88673909 0 0 .88673855 -2.3793616 29.936364)" gradientUnits="userSpaceOnUse" xlink:href="#c"/>
		<linearGradient id="h" x1="-25.224104" x2="-40.264385" y1="-31.891275" y2="-47.270847" gradientTransform="matrix(1.2055543,0,0,1.2055543,29.452607,50.506638)" gradientUnits="userSpaceOnUse">
			<stop offset="0"/>
			<stop stop-color="#5a5a5a" offset=".35063794"/>
			<stop stop-color="#979797" offset="1"/>
		</linearGradient>
		<linearGradient id="j" x1="4.4978113" x2="15.295909" y1="-43.891712" y2="-43.891712" gradientTransform="matrix(.58275237 0 0 .582752 -15.767419 16.224989)" gradientUnits="userSpaceOnUse" xlink:href="#c"/>
		<linearGradient id="s" x1="7.2461166" x2="16.411036" y1="-6.8960171" y2="2.2689023" gradientTransform="translate(-64.169491,16.277727)" gradientUnits="userSpaceOnUse">
			<stop stop-color="#979797" offset="0"/>
			<stop stop-color="#5a5a5a" offset=".70143074"/>
			<stop offset="1"/>
		</linearGradient>
		<linearGradient id="i" x1="4.4978113" x2="15.295909" y1="-43.891712" y2="-43.891712" gradientTransform="matrix(.79585423 0 0 .79585374 15.989498 -11.953486)" gradientUnits="userSpaceOnUse" xlink:href="#c"/>
		<linearGradient id="g" x1="-25.224104" x2="-40.264385" y1="-31.891275" y2="-47.270847" gradientTransform="matrix(1.2829802,0,0,1.2829802,-7.1099335,68.080049)" gradientUnits="userSpaceOnUse">
			<stop offset="0"/>
			<stop stop-color="#5a5a5a" offset=".80397099"/>
			<stop stop-color="#979797" offset="1"/>
		</linearGradient>
		<linearGradient id="r" x1="23.589788" x2="-8.4102125" y1="11.769581" y2="11.769581" gradientTransform="translate(0 -.3593684)" gradientUnits="userSpaceOnUse">
			<stop offset="0"/>
			<stop stop-color="#5a5a5a" offset=".56143475"/>
			<stop stop-color="#979797" offset="1"/>
		</linearGradient>
	</defs>
	<g transform="matrix(0 -.96110921 .96110921 0 40.488037 52.184731)" fill="none" stroke="#000" stroke-linecap="round" stroke-linejoin="round" stroke-width="3.5999999">
		<ellipse cx="44.000408" cy="10.012118" rx="4.9541779" ry="4.9541545" style="paint-order:fill markers stroke"/>
		<path d="m35.257812 10.012119h3.204309"/>
		<path d="m49.440445 10.012119h3.085171"/>
		<path d="m44.000407 15.136171v3.379592"/>
		<path d="m44.000441 1.2779594v3.2730534"/>
	</g>
	<path d="m-29.957024 19.529774a1.0000999 1.0000999 0 0 0 .986328-1.013672v-1.390625c3.161365-.444254 5.669029-2.951923 6.113282-6.113281h1.382812a1.0000999 1.0000999 0 1 0 0-2.0000005h-1.382812c-.444253-3.161612-2.951917-5.670726-6.113282-6.115234v-1.388672a1.0000999 1.0000999 0 1 0-1.999999 0v1.388672c-3.161618.444508-5.670728 2.953622-6.115234 6.115234h-1.410157a1.0000999 1.0000999 0 1 0 0 2.0000005h1.410157c.444506 3.161358 2.953616 5.669027 6.115234 6.113281v1.390625a1.0000999 1.0000999 0 0 0 1.013671 1.013672zm.986328-4.423828v-.826172a1.0000999 1.0000999 0 1 0-2 0v.826172c-2.073069-.400054-3.69467-2.021248-4.095703-4.09375h.806642a1.0000999 1.0000999 0 1 0 0-2.0000005h-.806642c.400472-2.073628 2.022065-3.695227 4.095703-4.095703v.828125a1.0000999 1.0000999 0 0 0 1.015625 1.013672 1.0000999 1.0000999 0 0 0 .984375-1.013672v-.828125c2.073326.400476 3.69359 2.022075 4.09375 4.095703h-.833984a1.0000999 1.0000999 0 1 0 0 2.0000005h.833984c-.40072 2.072502-2.020992 3.693696-4.09375 4.09375z" color="#000000" color-rendering="auto" dominant-baseline="auto" fill="url(#f)" image-rendering="auto" shape-rendering="auto" solid-color="#000000" stroke="url(#t)" stroke-linecap="round" stroke-linejoin="round" style="font-feature-settings:normal;font-variant-alternates:normal;font-variant-caps:normal;font-variant-ligatures:normal;font-variant-numeric:normal;font-variant-position:normal;isolation:auto;mix-blend-mode:normal;paint-order:fill markers stroke;shape-padding:0;text-decoration-color:#000000;text-decoration-line:none;text-decoration-style:solid;text-indent:0;text-orientation:mixed;text-transform:none;white-space:normal"/>
	<path d="m9.993863-39.160541c-.0018.000587-.00359.0012-.00538.0018-.045544.0012-.091198.005-.1363867.01077-.7017999.08221-1.2356883.689211-1.2256856 1.396169-6.92e-5.01099-.0001799.02131 0 .0323v.92061c-2.7677663.564383-4.920142 2.718018-5.4841845 5.485975h-.934966c-.7744815-.01058-1.41752.632454-1.40693626 1.406936.00058714.0018.001185.0036.001795.0054.001176.04219.007548.08374.0125619.125619-.006995.05988-.0148499.119118-.0143565.179456-4.57e-6.0012-4.57e-6.0024 0 .0036.001186.0736.0164269.146474.028713.218936-.0128473.0795-.0292109.159786-.028713.240471-4.57e-6.0012-4.57e-6.0024 0 .0036.0103668.769451.63788226 1.410648 1.40693626 1.399758h.929583c.5584729 2.862781 2.7105652 5.100592 5.4895638 5.685171v.974447c-.00594.435147.1638763.823077.4324895 1.073148.268613.250071.6146665.367885.9547061.367885.34004 0 .686094-.117814.954707-.367885.268614-.250071.438425-.638001.43249-1.073148v-.389419l-.0018.01615c.0011-.03262.0011-.06608 0-.0987l.0018.01615v-.518628c.454729-.09564.892654-.235552 1.30955-.415222 2.131013-.918403 3.712537-2.875685 4.180013-5.269949h.929584c.908877.01329 1.578979-.876139 1.365661-1.760465v.218936c.03453-.143463.02608-.291201.01615-.437873.131792-.838347-.530249-1.616673-1.381811-1.604374h-.933173c-.564368-2.768039-2.71794-4.921609-5.485974-5.485975v-.927788l-.0018.01436c.0013-.04496.001-.08971-.0018-.134593-.03364-.634793-.499097-1.169427-1.123396-1.288495h-.0018c-.09145-.01762-.184998-.02659-.278141-.02512zm-1.367456 5.900518v.02153c-.00594.435147.1638763.823077.4324895 1.073148.268613.250071.6146665.367885.9547065.367885s.686094-.117814.954707-.367885c.268614-.250071.438425-.638001.43249-1.073148v-.02153c1.006017.369173 1.801928 1.077731 2.304216 2.044006-.649286.120748-1.180732.628205-1.170054 1.311824.000602.0018.0012.0036.0018.0054.0012.04219.0075.08374.01256.125619-.007.05988-.01485.119118-.01436.179457-1.1e-5.0018-1.1e-5.0036 0 .0054.0013.07261.01659.143852.02871.215347-.01297.08029-.02936.160792-.02871.242266-5e-6.0012-5e-6.0024 0 .0036.01002.65524.505786 1.133249 1.116217 1.277728-.505082.883797-1.276444 1.53498-2.250379 1.878906v-.0341c.0061-.428055-.168013-.810891-.437874-1.053407-.269861-.242518-.613035-.353529-.949323-.353529-.3362889 0-.6794622.111011-.9493231.353529-.269861.242516-.4439223.625352-.4378731 1.053407v.03231c-.9794977-.346706-1.7557454-1.00253-2.2593527-1.895105.7307228-.176279 1.2700296-.850734 1.0839152-1.622284v.218936c.034525-.143462.02608-.291201.016151-.437872.1172839-.746029-.4329732-1.361039-1.1485195-1.496665.5010574-.971612 1.2989038-1.683941 2.3078062-2.054773z" color="#000000" color-rendering="auto" dominant-baseline="auto" fill="url(#u)" image-rendering="auto" shape-rendering="auto" solid-color="#000000" style="font-feature-settings:normal;font-variant-alternates:normal;font-variant-caps:normal;font-variant-ligatures:normal;font-variant-numeric:normal;font-variant-position:normal;isolation:auto;mix-blend-mode:normal;paint-order:fill markers stroke;shape-padding:0;text-decoration-color:#000000;text-decoration-line:none;text-decoration-style:solid;text-indent:0;text-orientation:mixed;text-transform:none;white-space:normal"/>
	<g transform="translate(-39.95,-4.0829584)">
		<g transform="matrix(.76872597 .34140352 -.34140352 .76872597 1.504911 -10.097772)">
			<g transform="matrix(.10676 0 0 .10676 -19.071124 -31.786292)" opacity=".49300005">
				<path d="m270.69379 536.40673c20.01433 60.04489 85.31772 92.31846 145.17067 71.75942 60.21816-19.46338 93.09981-84.46428 73.08548-144.50917-78.29686-151.10046-253.52045-44.94758-218.25615 72.74975z" color="#000000" color-rendering="auto" dominant-baseline="auto" image-rendering="auto" opacity="1" shape-rendering="auto" solid-color="#000000" style="font-feature-settings:normal;font-variant-alternates:normal;font-variant-caps:normal;font-variant-ligatures:normal;font-variant-numeric:normal;font-variant-position:normal;isolation:auto;mix-blend-mode:normal;shape-padding:0;text-decoration-color:#000000;text-decoration-line:none;text-decoration-style:solid;text-indent:0;text-orientation:mixed;text-transform:none;white-space:normal"/>
			</g>
			<g transform="matrix(.10746967 0 0 .10746967 -20.137858 -33.659792)" fill="#050505" opacity=".93999999">
				<path d="m270.69379 536.40673c20.01433 60.04489 85.31772 92.31846 145.17067 71.75942 60.21816-19.46338 93.09981-84.46428 73.08548-144.50917-20.01433-60.04488-85.31957-92.31785-145.17252-71.7588-60.21816 19.46339-93.09796 84.46366-73.08363 144.50855z" color="#000000" color-rendering="auto" dominant-baseline="auto" fill="#050505" image-rendering="auto" opacity="1" shape-rendering="auto" solid-color="#000000" style="font-feature-settings:normal;font-variant-alternates:normal;font-variant-caps:normal;font-variant-ligatures:normal;font-variant-numeric:normal;font-variant-position:normal;isolation:auto;mix-blend-mode:normal;shape-padding:0;text-decoration-color:#000000;text-decoration-line:none;text-decoration-style:solid;text-indent:0;text-orientation:mixed;text-transform:none;white-space:normal"/>
			</g>
		</g>
		<path d="m11.186356 1.2636715c-1.3020582-.0916159-2.6422052.0771242-3.9531254.5351562-5.2875947 1.7077135-8.17857564 7.4460999-6.42382826 12.7519533 1.75509276 5.306898 7.49078446 8.151822 12.73828166 6.31836 5.287593-1.707715 8.176622-7.446101 6.421875-12.7519539-1.316639-3.9811374-4.873239-6.5784013-8.783203-6.8535156z" color="#000000" color-rendering="auto" dominant-baseline="auto" fill="#404040" image-rendering="auto" shape-rendering="auto" solid-color="#000000" style="font-feature-settings:normal;font-variant-alternates:normal;font-variant-caps:normal;font-variant-ligatures:normal;font-variant-numeric:normal;font-variant-position:normal;isolation:auto;mix-blend-mode:normal;shape-padding:0;text-decoration-color:#000000;text-decoration-line:none;text-decoration-style:solid;text-indent:0;text-orientation:mixed;text-transform:none;white-space:normal"/>
		<path d="m7.4081644 2.98355a9.1929467 9.2653595 0 1 1 5.8135456 17.578491 9.1929467 9.2653595 0 1 1-5.8135456-17.578491z" fill="url(#c)"/>
	</g>
	<g transform="matrix(0 -.96110921 .96110921 0 40.488037 52.184731)" fill="none" stroke="url(#d)" stroke-linecap="round" stroke-linejoin="round" stroke-width="2.5">
		<ellipse cx="44.000408" cy="10.012118" rx="4.9541779" ry="4.9541545" style="paint-order:fill markers stroke"/>
		<path d="m35.257812 10.012119h3.204309"/>
		<path d="m49.440445 10.012119h3.085171"/>
		<path d="m44.000407 15.136171v3.379592"/>
		<path d="m44.000441 1.2779594v3.2730534"/>
	</g>
	<path d="m-39.503165 10.040285a1.0000999 1.0000999 0 0 0 1.013672.986328h1.390625c.444254 3.161365 2.951923 5.669029 6.113282 6.113282v1.382812a1.0000999 1.0000999 0 1 0 2 0v-1.382812c3.161612-.444253 5.670726-2.951917 6.115234-6.113282h1.388672a1.0000999 1.0000999 0 1 0 0-1.9999998h-1.388672c-.444508-3.161618-2.953622-5.670728-6.115234-6.115234v-1.410157a1.0000999 1.0000999 0 1 0-2 0v1.410157c-3.161359.444506-5.669028 2.953616-6.113282 6.115234h-1.390625a1.0000999 1.0000999 0 0 0-1.013672 1.0136718zm4.423829.986328h.826171a1.0000999 1.0000999 0 1 0 0-1.9999998h-.826171c.400054-2.07307 2.021247-3.694671 4.09375-4.095703v.806641a1.0000999 1.0000999 0 1 0 2 0v-.806641c2.073628.400472 3.695227 2.022065 4.095703 4.095703h-.828125a1.0000999 1.0000999 0 0 0-1.013672 1.0156248 1.0000999 1.0000999 0 0 0 1.013672.984375h.828125c-.400476 2.073326-2.022075 3.69359-4.095703 4.09375v-.833984a1.0000999 1.0000999 0 1 0-2 0v.833984c-2.072503-.40072-3.693696-2.020992-4.09375-4.09375z" color="#000000" color-rendering="auto" dominant-baseline="auto" fill="url(#e)" image-rendering="auto" shape-rendering="auto" solid-color="#000000" style="font-feature-settings:normal;font-variant-alternates:normal;font-variant-caps:normal;font-variant-ligatures:normal;font-variant-numeric:normal;font-variant-position:normal;isolation:auto;mix-blend-mode:normal;paint-order:fill markers stroke;shape-padding:0;text-decoration-color:#000000;text-decoration-line:none;text-decoration-style:solid;text-indent:0;text-orientation:mixed;text-transform:none;white-space:normal"/>
	<g fill="none" stroke="#000" stroke-linecap="round" stroke-linejoin="round" stroke-width="3.45999312">
		<path d="m36.860985-1.404988v-3.07969"/>
		<path d="m28.466504-9.807609h3.145762"/>
		<path d="m36.860985-15.036047v-2.965186"/>
		<path d="m41.785759-9.807576h3.248157"/>
	</g>
	<circle transform="rotate(-90)" cx="9.7031088" cy="36.75021" r="5.3990488" fill="#010101" style="paint-order:fill markers stroke"/>
	<ellipse transform="rotate(-90)" cx="9.8075781" cy="36.860985" rx="6.1315255" ry="6.1314979" fill="none" stroke="#000" stroke-linecap="round" stroke-linejoin="round" stroke-width="3.45999312" style="paint-order:fill markers stroke"/>
	<g transform="matrix(0 -.96110921 .96110921 0 27.238246 32.48162)" fill="none" stroke="url(#d)" stroke-linecap="round" stroke-linejoin="round">
		<g stroke-width="2.5">
			<ellipse cx="44.000408" cy="10.012118" rx="6.4256167" ry="6.4255881" stroke="url(#q)" style="paint-order:fill markers stroke"/>
			<path d="m35.422784 10.012119h2.059751" stroke="url(#o)"/>
			<path d="m50.614669 10.012119h1.827231" stroke="url(#n)"/>
		</g>
		<path d="m44.000407 16.436742v1.960923" stroke="url(#m)" stroke-width="2.49999976"/>
		<path d="m44.000441 1.4006518v2.0291263" stroke="url(#l)" stroke-width="2.5"/>
	</g>
	<ellipse transform="rotate(-90)" cx="-20.713182" cy="33.658024" rx="5.2250476" ry="5.2250443" fill="#0a0500" style="paint-order:fill markers stroke"/>
	<path d="m33.765764 11.290637c-.973623 0-1.947129.650581-1.935543 1.952555v.504678c-2.377477.673804-4.254986 2.550543-4.929585 4.927698h-.661562c-1.091139-.01494-1.978962.874677-1.962005 1.965786.01648 1.067634.894345 1.919916 1.962005 1.905301h.661562c.674046 2.378165 2.551425 4.255544 4.929585 4.929588v.62943c-.02317 2.60395 3.894258 2.60395 3.871085 0v-.62943c2.377331-.674472 4.253816-2.552009 4.927695-4.929588h.451753c2.603976.0232 2.603976-3.894289 0-3.871087h-.451753c-.674433-2.376569-2.551048-4.253464-4.927695-4.927698v-.504678c.01159-1.301974-.96192-1.952555-1.935542-1.952555zm0 4.508078c2.672462 0 4.812394 2.141803 4.812394 4.814286 0 2.672484-2.139932 4.814288-4.812394 4.814288s-4.814284-2.141804-4.814284-4.814288c0-2.672483 2.141822-4.814286 4.814284-4.814286z" color="#000000" color-rendering="auto" dominant-baseline="auto" fill="url(#p)" image-rendering="auto" shape-rendering="auto" solid-color="#000000" style="font-feature-settings:normal;font-variant-alternates:normal;font-variant-caps:normal;font-variant-ligatures:normal;font-variant-numeric:normal;font-variant-position:normal;isolation:auto;mix-blend-mode:normal;paint-order:fill markers stroke;shape-padding:0;text-decoration-color:#000000;text-decoration-line:none;text-decoration-style:solid;text-indent:0;text-orientation:mixed;text-transform:none;white-space:normal"/>
	<g stroke="#000" stroke-linecap="round" stroke-linejoin="round">
		<path d="m33.765764 11.290637c-.973623 0-1.947129.650581-1.935543 1.952555v.504678c-2.377477.673804-4.254986 2.550543-4.929585 4.927698h-.661562c-1.091139-.01494-1.978962.874677-1.962005 1.965786.01648 1.067634.894345 1.919916 1.962005 1.905301h.661562c.674046 2.378165 2.551425 4.255544 4.929585 4.929588v.62943c-.02317 2.60395 3.894258 2.60395 3.871085 0v-.62943c2.377331-.674472 4.253816-2.552009 4.927695-4.929588h.451753c2.603976.0232 2.603976-3.894289 0-3.871087h-.451753c-.674433-2.376569-2.551048-4.253464-4.927695-4.927698v-.504678c.01159-1.301974-.96192-1.952555-1.935542-1.952555zm0 4.508078c2.672462 0 4.812394 2.141803 4.812394 4.814286 0 2.672484-2.139932 4.814288-4.812394 4.814288s-4.814284-2.141804-4.814284-4.814288c0-2.672483 2.141822-4.814286 4.814284-4.814286z" color="#000000" color-rendering="auto" dominant-baseline="auto" fill="none" image-rendering="auto" shape-rendering="auto" solid-color="#000000" stroke-width=".60299999" style="font-feature-settings:normal;font-variant-alternates:normal;font-variant-caps:normal;font-variant-ligatures:normal;font-variant-numeric:normal;font-variant-position:normal;isolation:auto;mix-blend-mode:normal;paint-order:fill markers stroke;shape-padding:0;text-decoration-color:#000000;text-decoration-line:none;text-decoration-style:solid;text-indent:0;text-orientation:mixed;text-transform:none;white-space:normal"/>
		<rect transform="rotate(45)" x="-17.354668" y="-4.649344" width="12.959709" height="12.959709" rx=".5" ry=".5" fill="url(#h)" stroke-width=".403" style="paint-order:fill markers stroke"/>
		<ellipse transform="rotate(-90)" cx="6.3965731" cy="-8.9841108" rx="4.7875476" ry="4.7875447" fill="url(#k)" stroke-width=".40000001" style="paint-order:fill markers stroke"/>
	</g>
	<g transform="rotate(90,10,9.4102123)">
		<path d="m2.4162076 4c-.7190868.0003459-1.168452.7786382-.8092295 1.4015709l7.5837925 13.1335761c.3598428.622625 1.2586164.622625 1.6184594 0l7.583792-13.1335761c.359223-.6229329-.09014-1.4012254-.80923-1.4015709z" color="#000000" color-rendering="auto" dominant-baseline="auto" fill="none" image-rendering="auto" shape-rendering="auto" solid-color="#000000" stroke="#000" stroke-linecap="round" stroke-linejoin="round" stroke-width=".70300001" style="font-feature-settings:normal;font-variant-alternates:normal;font-variant-caps:normal;font-variant-ligatures:normal;font-variant-numeric:normal;font-variant-position:normal;isolation:auto;mix-blend-mode:normal;paint-order:fill markers stroke;shape-padding:0;text-decoration-color:#000000;text-decoration-line:none;text-decoration-style:solid;text-indent:0;text-orientation:mixed;text-transform:none;white-space:normal"/>
		<path d="m2.4162076 4c-.7190868.0003459-1.168452.7786382-.8092295 1.4015709l7.5837925 13.1335761c.3598428.622625 1.2586164.622625 1.6184594 0l7.583792-13.1335761c.359223-.6229329-.09014-1.4012254-.80923-1.4015709z" color="#000000" color-rendering="auto" dominant-baseline="auto" fill="url(#r)" image-rendering="auto" shape-rendering="auto" solid-color="#000000" style="font-feature-settings:normal;font-variant-alternates:normal;font-variant-caps:normal;font-variant-ligatures:normal;font-variant-numeric:normal;font-variant-position:normal;isolation:auto;mix-blend-mode:normal;paint-order:fill markers stroke;shape-padding:0;text-decoration-color:#000000;text-decoration-line:none;text-decoration-style:solid;text-indent:0;text-orientation:mixed;text-transform:none;white-space:normal"/>
		<ellipse transform="scale(-1)" cx="-10" cy="-9.3529949" rx="3.1463087" ry="3.1463065" fill="url(#j)" stroke="#000" stroke-linecap="round" stroke-linejoin="round" stroke-width=".39999998" style="paint-order:fill markers stroke"/>
	</g>
	<rect transform="rotate(45)" x="-56.923374" y="9.3817101" width="13.792038" height="13.792038" rx="1" ry="1" fill="url(#g)" style="paint-order:fill markers stroke"/>
	<ellipse transform="rotate(-90)" cx="23.865957" cy="-46.884872" rx="4.2968559" ry="4.2968531" fill="url(#i)" stroke="#000" stroke-linecap="round" stroke-linejoin="round" stroke-width=".39999998" style="paint-order:fill markers stroke"/>
	<rect transform="rotate(45)" x="-56.923374" y="9.3817101" width="13.792038" height="13.792038" rx="1" ry="1" fill="none" stroke="url(#s)" stroke-linecap="round" stroke-linejoin="round" stroke-width=".403" style="paint-order:fill markers stroke"/>
</svg>
