<svg width="110" height="110" version="1.1" xmlns="http://www.w3.org/2000/svg">
	<g transform="translate(0,-2)" shape-rendering="auto">
		<path d="m54.20605 2.005256c-2.87145 0-5.20605 2.1429615-5.20605 4.778705v36.443842c0 2.635743 2.3346 4.778706 5.20605 4.778706h1.587899c2.871451 0 5.206051-2.142963 5.206051-4.778706v-36.443842c0-2.6357435-2.3346-4.778705-5.206051-4.778705z" color="#000000" color-rendering="auto" dominant-baseline="auto" fill-opacity=".62745098" image-rendering="auto" solid-color="#000000" stroke-width=".99999994" style="font-feature-settings:normal;font-variant-alternates:normal;font-variant-caps:normal;font-variant-ligatures:normal;font-variant-numeric:normal;font-variant-position:normal;isolation:auto;mix-blend-mode:normal;shape-padding:0;text-decoration-color:#000000;text-decoration-line:none;text-decoration-style:solid;text-indent:0;text-orientation:mixed;text-transform:none;white-space:normal"/>
		<path d="m54.404538 4.523988c-2.153587 0-3.904538 1.7938996-3.904538 4.0003133v33.6623147c0 2.206414 1.750951 4.000313 3.904538 4.000313h1.190925c2.153587 0 3.904537-1.793899 3.904537-4.000313v-33.6623147c0-2.2064137-1.75095-4.0003133-3.904537-4.0003133z" color="#000000" color-rendering="auto" dominant-baseline="auto" fill-opacity=".62745098" image-rendering="auto" solid-color="#000000" style="font-feature-settings:normal;font-variant-alternates:normal;font-variant-caps:normal;font-variant-ligatures:normal;font-variant-numeric:normal;font-variant-position:normal;isolation:auto;mix-blend-mode:normal;shape-padding:0;text-decoration-color:#000000;text-decoration-line:none;text-decoration-style:solid;text-indent:0;text-orientation:mixed;text-transform:none;white-space:normal"/>
		<path d="m54.999859 5.9908904s1.99985-.00289 1.999861 1.3758096l.00028 35.5113c1.1e-5 1.378802-2.000141 1.37544-2.000141 1.37544s-1.999568.0033-1.999579-1.37544l-.00028-35.5113c-1.1e-5-1.3788008 1.999859-1.3758096 1.999859-1.3758096z" color="#000000" color-rendering="auto" dominant-baseline="auto" fill="#1af000" fill-opacity=".96651001" image-rendering="auto" solid-color="#000000" stroke-width=".95523119" style="font-feature-settings:normal;font-variant-alternates:normal;font-variant-caps:normal;font-variant-ligatures:normal;font-variant-numeric:normal;font-variant-position:normal;isolation:auto;mix-blend-mode:normal;shape-padding:0;text-decoration-color:#000000;text-decoration-line:none;text-decoration-style:solid;text-indent:0;text-orientation:mixed;text-transform:none;white-space:normal"/>
	</g>
</svg>
