<svg width="100" height="100" enable-background="new" version="1.1" xmlns="http://www.w3.org/2000/svg">
	<defs>
		<radialGradient id="a" cx="50.003" cy="45.492" r="20.077" gradientTransform="matrix(1.0417 0 0 1.0417 -2.086 2.6121)" gradientUnits="userSpaceOnUse">
			<stop stop-color="#09b2ae" offset="0"/>
			<stop stop-color="#09b2ae" stop-opacity="0" offset="1"/>
		</radialGradient>
	</defs>
	<path d="m70.913 50a20.913 20.913 0 0 1-41.827 0 20.913 20.913 0 1 1 41.827 0z" fill="url(#a)" opacity=".4"/>
	<path d="m54.167 50a4.1667 4.1667 0 0 1-8.3333 0 4.1667 4.1667 0 1 1 8.3333 0z" enable-background="new"/>
	<path d="m0 0v100h100v-100zm50 3.125c12.259 0 24.47 5.0688 33.138 13.737 8.6682 8.6682 13.737 20.879 13.737 33.138s-5.0688 24.47-13.737 33.138l-.09766.09766c-8.6622 8.6087-20.828 13.639-33.04 13.639-12.259 0-24.47-5.0688-33.138-13.737l-.09766-.09766c-8.6087-8.6622-13.639-20.828-13.639-33.04 0-12.259 5.0688-24.47 13.737-33.138 8.6682-8.6682 20.879-13.737 33.138-13.737z" color="#000000" enable-background="accumulate" fill="#0f0f0e"/>
	<path d="m96.875 50a46.875 46.875 0 0 1-93.75 0 46.875 46.875 0 1 1 93.75 0z" enable-background="new" fill="none" stroke="#000"/>
</svg>
