<svg width="110" height="110" version="1.1" xmlns="http://www.w3.org/2000/svg">
	<g transform="translate(0,8)" shape-rendering="auto">
		<path d="m54.20605-7.9947441c-2.87145 0-5.20605 2.1429615-5.20605 4.778705v36.4438421c0 2.635743 2.3346 4.778706 5.20605 4.778706h1.587899c2.871451 0 5.206051-2.142963 5.206051-4.778706v-36.4438421c0-2.6357435-2.3346-4.778705-5.206051-4.778705z" color="#000000" color-rendering="auto" dominant-baseline="auto" fill-opacity=".62745098" image-rendering="auto" solid-color="#000000" stroke-width=".99999994" style="font-feature-settings:normal;font-variant-alternates:normal;font-variant-caps:normal;font-variant-ligatures:normal;font-variant-numeric:normal;font-variant-position:normal;isolation:auto;mix-blend-mode:normal;shape-padding:0;text-decoration-color:#000000;text-decoration-line:none;text-decoration-style:solid;text-indent:0;text-orientation:mixed;text-transform:none;white-space:normal"/>
		<path d="m54.4707-5.4760121c-1.9143 0-3.4707 1.7938996-3.4707 4.0003133v33.6623148c0 2.206414 1.5564 4.000313 3.4707 4.000313h1.0586c1.9143 0 3.4707-1.793899 3.4707-4.000313v-33.6623148c0-2.2064137-1.5564-4.0003133-3.4707-4.0003133z" color="#000000" color-rendering="auto" dominant-baseline="auto" fill-opacity=".62745098" image-rendering="auto" solid-color="#000000" stroke-width=".99999994" style="font-feature-settings:normal;font-variant-alternates:normal;font-variant-caps:normal;font-variant-ligatures:normal;font-variant-numeric:normal;font-variant-position:normal;isolation:auto;mix-blend-mode:normal;shape-padding:0;text-decoration-color:#000000;text-decoration-line:none;text-decoration-style:solid;text-indent:0;text-orientation:mixed;text-transform:none;white-space:normal"/>
		<path d="m54.65411-3.8443175h.69178c.921217 0 1.65411 1.20219 1.65411 2.71315v32.8362495c0 1.51107-.732909 2.71315-1.65411 2.71315h-.69178c-.921217 0-1.65411-1.20219-1.65411-2.71315v-32.8362495c0-1.51107.732909-2.71315 1.65411-2.71315z" color="#000000" color-rendering="auto" dominant-baseline="auto" fill="none" image-rendering="auto" solid-color="#000000" stroke="#000" style="font-feature-settings:normal;font-variant-alternates:normal;font-variant-caps:normal;font-variant-ligatures:normal;font-variant-numeric:normal;font-variant-position:normal;isolation:auto;mix-blend-mode:normal;shape-padding:0;text-decoration-color:#000000;text-decoration-line:none;text-decoration-style:solid;text-indent:0;text-orientation:mixed;text-transform:none;white-space:normal"/>
		<path d="m54.65411-3.8443173h.69178c.921217 0 1.65411 1.20219 1.65411 2.71315v32.8362493c0 1.51107-.732909 2.71315-1.65411 2.71315h-.69178c-.921217 0-1.65411-1.20219-1.65411-2.71315v-32.8362493c0-1.51107.732909-2.71315 1.65411-2.71315z" color="#000000" color-rendering="auto" dominant-baseline="auto" fill="#fff" image-rendering="auto" solid-color="#000000" stroke-width=".99999994" style="font-feature-settings:normal;font-variant-alternates:normal;font-variant-caps:normal;font-variant-ligatures:normal;font-variant-numeric:normal;font-variant-position:normal;isolation:auto;mix-blend-mode:normal;shape-padding:0;text-decoration-color:#000000;text-decoration-line:none;text-decoration-style:solid;text-indent:0;text-orientation:mixed;text-transform:none;white-space:normal"/>
	</g>
</svg>
