<svg width="115" height="40" version="1.1" xmlns="http://www.w3.org/2000/svg">
  <path d="m57.9998 23-2e-4 9h-0.999596l2e-4 -9z" color="#ffffff" fill="#fafafa" stroke-width=".999798"/>
  <path d="m57.9998 5-2e-4 9h-0.999596l2e-4 -9z" color="#ffffff" fill="#fafafa" stroke-width=".999798"/>
  <path d="m7.9998 23-2e-4 9h-0.999596l2e-4 -9z" color="#ffffff" fill="#fafafa" stroke-width=".999798"/>
  <path d="m7.9998 5-2e-4 9h-0.999596l2e-4 -9z" color="#ffffff" fill="#fafafa" stroke-width=".999798"/>
  <path d="m108 23-2e-4 9h-0.9996l2e-4 -9z" color="#ffffff" fill="#fafafa" stroke-width=".999798"/>
  <path d="m108 5-2e-4 9h-0.9996l2e-4 -9z" color="#ffffff" fill="#fafafa" stroke-width=".999798"/>
  <path d="m44.9998 23 2e-6 7h-0.999596l-2e-6 -7z" color="#ffffff" fill="#fafafa" stroke-width=".999798"/>
  <path d="m45 7-4.02e-4 7h-0.999596l4.02e-4 -7z" color="#ffffff" fill="#fafafa" stroke-width=".999798"/>
  <path d="m70.9998 23 2e-6 7h-0.999596l-2e-6 -7z" color="#ffffff" fill="#fafafa" stroke-width=".999798"/>
  <path d="m71 7-4.02e-4 7h-0.999596l4.02e-4 -7z" color="#ffffff" fill="#fafafa" stroke-width=".999798"/>
  <path d="m57.9999 6-2e-4 9h-0.999596l2e-4 -9z" color="#ffffff" fill="#9c9c9c" stroke-width=".999798"/>
  <path d="m57.9996 33 2e-4 -9h-0.999596l-2e-4 9z" color="#ffffff" fill="#9c9c9c" stroke-width=".999798"/>
  <path d="m7.9998 6-2e-4 9h-0.999596l2e-4 -9z" color="#ffffff" fill="#b4b4b4" stroke-width=".999798"/>
  <path d="m7.9996 33 2e-4 -9h-0.999596l-2e-4 9z" color="#ffffff" fill="#b4b4b4" stroke-width=".999798"/>
  <path d="m108 6-2e-4 9h-0.9996l2e-4 -9z" color="#ffffff" fill="#b4b4b4" stroke-width=".999798"/>
  <path d="m108 33 2e-4 -9h-0.9996l-2e-4 9z" color="#ffffff" fill="#b4b4b4" stroke-width=".999798"/>
  <path d="m45 8-4.02e-4 7h-0.999596l4.02e-4 -7z" color="#ffffff" fill="#b4b4b4" stroke-width=".999798"/>
  <path d="m44.9998 31-2e-6 -7h-0.999596l2e-6 7z" color="#ffffff" fill="#b4b4b4" stroke-width=".999798"/>
  <path d="m71 8-4.02e-4 7h-0.999596l4.02e-4 -7z" color="#ffffff" fill="#b4b4b4" stroke-width=".999798"/>
  <path d="m70.9998 31-2e-6 -7h-0.999596l2e-6 7z" color="#ffffff" fill="#b4b4b4" stroke-width=".999798"/>
  <path d="m108.674 18.3263v1.34746h-102.347v-1.34746z" color="#ffffff" stroke="#fff" stroke-linejoin="round" stroke-width="1.65254"/>
</svg>
