<?xml version="1.0" encoding="UTF-8" standalone="no"?>
<!-- Created with Inkscape (http://www.inkscape.org/) -->

<svg
   xmlns:dc="http://purl.org/dc/elements/1.1/"
   xmlns:cc="http://creativecommons.org/ns#"
   xmlns:rdf="http://www.w3.org/1999/02/22-rdf-syntax-ns#"
   xmlns:svg="http://www.w3.org/2000/svg"
   xmlns="http://www.w3.org/2000/svg"
   xmlns:xlink="http://www.w3.org/1999/xlink"
   xmlns:sodipodi="http://sodipodi.sourceforge.net/DTD/sodipodi-0.dtd"
   xmlns:inkscape="http://www.inkscape.org/namespaces/inkscape"
   version="1.1"
   width="34"
   height="28"
   id="svg2"
   inkscape:version="0.48.4 r9939"
   sodipodi:docname="knob_toolbar.svg">
  <sodipodi:namedview
     pagecolor="#ffffff"
     bordercolor="#666666"
     borderopacity="1"
     objecttolerance="10"
     gridtolerance="10"
     guidetolerance="10"
     inkscape:pageopacity="0"
     inkscape:pageshadow="2"
     inkscape:window-width="1366"
     inkscape:window-height="746"
     id="namedview3175"
     showgrid="false"
     inkscape:zoom="22.627417"
     inkscape:cx="14.545477"
     inkscape:cy="13.865718"
     inkscape:window-x="0"
     inkscape:window-y="0"
     inkscape:window-maximized="1"
     inkscape:current-layer="svg2"
     showguides="true"
     inkscape:guide-bbox="true"
     inkscape:snap-page="true"
     inkscape:snap-bbox="true">
    <sodipodi:guide
       orientation="0,1"
       position="8.6640625,15.0625"
       id="guide3964" />
  </sodipodi:namedview>
  <defs
     id="defs4">
    <linearGradient
       id="linearGradient5441">
      <stop
         id="stop5443"
         style="stop-color:#060606;stop-opacity:1"
         offset="0" />
      <stop
         id="stop5445"
         style="stop-color:#343434;stop-opacity:1"
         offset="1" />
    </linearGradient>
    <linearGradient
       x1="256.73965"
       y1="472.02954"
       x2="484.71231"
       y2="472.02954"
       id="linearGradient3839"
       xlink:href="#linearGradient5441"
       gradientUnits="userSpaceOnUse"
       gradientTransform="matrix(0.10675958,0,0,0.1067605,-60.001687,-36.030994)" />
    <linearGradient
       x1="202.50447"
       y1="618.50647"
       x2="202.48778"
       y2="634.36542"
       id="linearGradient4945"
       xlink:href="#linearGradient4937"
       gradientUnits="userSpaceOnUse"
       gradientTransform="matrix(1.257316,0,0,1,-234.59421,-615.28453)" />
    <linearGradient
       id="linearGradient4937">
      <stop
         id="stop4939"
         style="stop-color:#ffffff;stop-opacity:1"
         offset="0" />
      <stop
         id="stop4185"
         style="stop-color:#c8c8c8;stop-opacity:1"
         offset="0.25399527" />
      <stop
         id="stop4941"
         style="stop-color:#afafaf;stop-opacity:1"
         offset="1" />
    </linearGradient>
  </defs>
  <metadata
     id="metadata7">
    <rdf:RDF>
      <cc:Work
         rdf:about="">
        <dc:format>image/svg+xml</dc:format>
        <dc:type
           rdf:resource="http://purl.org/dc/dcmitype/StillImage" />
        <dc:title></dc:title>
      </cc:Work>
    </rdf:RDF>
  </metadata>
  <path
     d="M 13.820761,6.3711589 C 10.138766,7.6704798 7.4746455,11.42426 7.470345,15.318971 c -1.37e-5,2.487812 1.0270226,4.960311 2.791157,6.719459 1.764133,1.759152 4.243637,2.783285 6.738499,2.783272 2.494863,1.3e-5 4.974367,-1.02412 6.7385,-2.783272 1.764134,-1.759148 2.791169,-4.231647 2.791156,-6.719459 -0.005,-3.894176 -2.668926,-7.6470624 -6.350416,-8.9462038 l 0,5.6520968 c 0,1.722782 -1.451576,3.170257 -3.17924,3.170257 -1.727663,0 -3.17924,-1.447475 -3.17924,-3.170257 z"
     id="path4256"
     style="fill:#797979;fill-opacity:1;stroke:#000000;stroke-width:0.59999996;stroke-linecap:round;stroke-miterlimit:4;stroke-opacity:1;stroke-dasharray:none"
     inkscape:connector-curvature="0" />
  <path
     d="m 17,2.7865969 c -0.686289,0 -1.23879,0.5114591 -1.23879,1.1467693 l 0,8.1735848 c 0,0.635309 0.552501,1.14677 1.23879,1.14677 0.68629,0 1.238791,-0.511461 1.238791,-1.14677 l 0,-8.1735848 C 18.238791,3.298056 17.68629,2.7865969 17,2.7865969 z"
     id="rect4263"
     style="fill:#111111;fill-opacity:1;stroke:#111111;stroke-width:5;stroke-miterlimit:4;stroke-opacity:1;stroke-dasharray:none"
     inkscape:connector-curvature="0" />
  <path
     d="m 17.000001,2.5546644 c 0.686289,0 1.238789,0.5509397 1.238789,1.2352905 l 0,8.2352701 c 0,0.68435 -0.5525,1.23529 -1.238789,1.23529 -0.686291,0 -1.238791,-0.55094 -1.238791,-1.23529 l 0,-8.2352701 c 0,-0.6843508 0.5525,-1.2352905 1.238791,-1.2352905 z"
     id="rect4263-2"
     style="fill:#ffffff;fill-opacity:0.94117647;stroke:none"
     inkscape:connector-curvature="0" />
</svg>
