<?xml version="1.0" encoding="UTF-8" standalone="no"?>
<svg
   xmlns:dc="http://purl.org/dc/elements/1.1/"
   xmlns:cc="http://creativecommons.org/ns#"
   xmlns:rdf="http://www.w3.org/1999/02/22-rdf-syntax-ns#"
   xmlns:svg="http://www.w3.org/2000/svg"
   xmlns="http://www.w3.org/2000/svg"
   id="svg2"
   width="21"
   height="18"
   version="1.1"
   viewBox="0 0 21 18">
  <metadata
     id="metadata8">
    <rdf:RDF>
      <cc:Work
         rdf:about="">
        <dc:format>image/svg+xml</dc:format>
        <dc:type
           rdf:resource="http://purl.org/dc/dcmitype/StillImage" />
        <dc:title></dc:title>
      </cc:Work>
    </rdf:RDF>
  </metadata>
  <defs
     id="defs6" />
  <path
     id="rect4195"
     d="m 4,8 v 7 H 17 V 8 Z m 6,2 h 1 v 3 h -1 z"
     color="#000001"
     fill="#766d65"
     style="fill:#444443;fill-opacity:1" />
  <path
     style="fill:#c7c2bd;fill-opacity:1"
     fill="#766d65"
     color="#000001"
     d="M -8.5,7 V 5.5 C -8.5,3.567 -10.067,2 -12,2 c -1.933,0 -3.5,1.567 -3.5,3.5 V 7 h 2 V 5.5 c 0,-0.82843 0.67157,-1.5 1.5,-1.5 0.82843,0 1.5,0.67157 1.5,1.5 V 7 Z"
     id="rect4195-6" />
  <path
     d="M 10.5 2.5 C 9.1432002 2.5 7.9402841 3.1128036 7.1152344 4.0625 L 8.6191406 5.3691406 C 9.0775198 4.8408028 9.7456226 4.5 10.5 4.5 C 11.880712 4.5 13 5.6192881 13 7 L 13 8 L 15 8 L 15 7 C 15 4.5147186 12.985281 2.5 10.5 2.5 z "
     style="fill:#444443;fill-opacity:1;stroke:none;stroke-width:1.70255;stroke-linecap:round;stroke-linejoin:round;stroke-miterlimit:4;stroke-dasharray:none;stroke-opacity:1"
     id="path1060" />
  <path
     style="fill:#3a3631;fill-opacity:1;stroke:none;stroke-width:1px;stroke-linecap:butt;stroke-linejoin:miter;stroke-opacity:1"
     d="M -9.5,7 -13,2 -17.422409,7.5832601 -16.478484,12 Z"
     id="path1205-5" />
  <path
     id="path1060-3"
     style="fill:#444443;fill-opacity:1;stroke:none;stroke-width:1.70255;stroke-linecap:round;stroke-linejoin:round;stroke-miterlimit:4;stroke-dasharray:none;stroke-opacity:1"
     d="M -9.5,2.5 C -11.985281,2.5 -14,4.5147186 -14,7 v 1 h 2 V 7 c 0,-1.3807119 1.119288,-2.5 2.5,-2.5 1.380712,0 2.5,1.1192881 2.5,2.5 v 1 h 2 V 7 C -5,4.5147186 -7.014719,2.5 -9.5,2.5 Z" />
</svg>
