<svg width="30" height="18" version="1.1" xmlns="http://www.w3.org/2000/svg">
	<g transform="translate(0,-14)">
		<g transform="matrix(.4151 0 0 .4151 -1.6604 19.547)">
			<path transform="matrix(0 1.0073 -.99696 0 665.47 -566.48)" d="m582.29 615.16h-23.318l11.659-20.194z"/>
			<path d="m28.091-5.2913c-7.6146 0-14.009 6.184-14.009 13.799 0 .081419-.0018.15673 0 .25552v.44717c-1.5498 1.3124-2.5552 3.24-2.5552 5.4298 0 3.9514 2.9756 7.1547 6.927 7.1547v-14.309c-.49392 0-.77584.032462-1.2416.12776.44085-5.5257 5.2378-9.838 10.879-9.838 5.6277 0 10.418 4.3312 10.878 9.8387-.46575-.0953-.74765-.12776-1.2416-.12776v14.309c3.9514 0 6.927-3.2033 6.927-7.1547 0-2.2227-1.029-4.1814-2.619-5.4938.01253-.21585.06386-.41511.06386-.63881 2.1e-5-7.6146-6.3933-13.799-14.008-13.799z" color="#000001" stroke-width="2.40910006" style="text-indent:0;text-transform:none"/>
		</g>
	</g>
</svg>
