<?xml version="1.0" encoding="UTF-8" standalone="no"?>
<svg
   xmlns:dc="http://purl.org/dc/elements/1.1/"
   xmlns:cc="http://creativecommons.org/ns#"
   xmlns:rdf="http://www.w3.org/1999/02/22-rdf-syntax-ns#"
   xmlns:svg="http://www.w3.org/2000/svg"
   xmlns="http://www.w3.org/2000/svg"
   xmlns:xlink="http://www.w3.org/1999/xlink"
   version="1.1"
   height="5"
   width="59"
   id="svg3248">
  <metadata
     id="metadata8">
    <rdf:RDF>
      <cc:Work
         rdf:about="">
        <dc:format>image/svg+xml</dc:format>
        <dc:type
           rdf:resource="http://purl.org/dc/dcmitype/StillImage" />
        <dc:title></dc:title>
      </cc:Work>
    </rdf:RDF>
  </metadata>
  <defs
     id="defs6" />
  <g
     transform="translate(-1,-1)"
     id="g1237">
    <rect
       y="5"
       x="1"
       height="1"
       width="1"
       id="use850"
       style="opacity:1;fill:#333333;fill-opacity:1;stroke:none;stroke-width:0.71554178;stroke-linejoin:round;stroke-miterlimit:4;stroke-dasharray:none;stroke-opacity:1" />
    <rect
       y="1"
       x="1"
       height="1"
       width="1"
       id="use850-5"
       style="opacity:1;fill:#555555;fill-opacity:1;stroke:none;stroke-width:0.71554178;stroke-linejoin:round;stroke-miterlimit:4;stroke-dasharray:none;stroke-opacity:1" />
    <rect
       y="2"
       x="1"
       height="3"
       width="1"
       id="use850-2"
       style="opacity:1;fill:#3f3f3f;fill-opacity:1;stroke:none;stroke-width:1.23935473;stroke-linejoin:round;stroke-miterlimit:4;stroke-dasharray:none;stroke-opacity:1" />
  </g>
  <use
     height="100%"
     width="100%"
     id="use1239"
     xlink:href="#g1237"
     y="0"
     x="0" />
  <use
     height="100%"
     width="100%"
     id="use1241"
     transform="translate(2)"
     xlink:href="#g1237"
     y="0"
     x="0" />
  <use
     height="100%"
     width="100%"
     id="use1243"
     transform="translate(4)"
     xlink:href="#g1237"
     y="0"
     x="0" />
  <use
     height="100%"
     width="100%"
     id="use1245"
     transform="translate(6)"
     xlink:href="#g1237"
     y="0"
     x="0" />
  <use
     height="100%"
     width="100%"
     id="use1247"
     transform="translate(8)"
     xlink:href="#g1237"
     y="0"
     x="0" />
  <use
     height="100%"
     width="100%"
     id="use1249"
     transform="translate(10)"
     xlink:href="#g1237"
     y="0"
     x="0" />
  <use
     height="100%"
     width="100%"
     id="use1251"
     transform="translate(12)"
     xlink:href="#g1237"
     y="0"
     x="0" />
  <use
     height="100%"
     width="100%"
     id="use1253"
     transform="translate(14)"
     xlink:href="#g1237"
     y="0"
     x="0" />
  <use
     height="100%"
     width="100%"
     id="use1255"
     transform="translate(16)"
     xlink:href="#g1237"
     y="0"
     x="0" />
  <use
     height="100%"
     width="100%"
     id="use1257"
     transform="translate(18)"
     xlink:href="#g1237"
     y="0"
     x="0" />
  <use
     height="100%"
     width="100%"
     id="use1259"
     transform="translate(20)"
     xlink:href="#g1237"
     y="0"
     x="0" />
  <use
     height="100%"
     width="100%"
     id="use1261"
     transform="translate(22)"
     xlink:href="#g1237"
     y="0"
     x="0" />
  <use
     height="100%"
     width="100%"
     id="use1263"
     transform="translate(24)"
     xlink:href="#g1237"
     y="0"
     x="0" />
  <use
     height="100%"
     width="100%"
     id="use1265"
     transform="translate(26)"
     xlink:href="#g1237"
     y="0"
     x="0" />
  <use
     height="100%"
     width="100%"
     id="use1267"
     transform="translate(28)"
     xlink:href="#g1237"
     y="0"
     x="0" />
  <use
     height="100%"
     width="100%"
     id="use1269"
     transform="translate(30)"
     xlink:href="#g1237"
     y="0"
     x="0" />
  <use
     height="100%"
     width="100%"
     id="use1271"
     transform="translate(32)"
     xlink:href="#g1237"
     y="0"
     x="0" />
  <use
     height="100%"
     width="100%"
     id="use1273"
     transform="translate(34)"
     xlink:href="#g1237"
     y="0"
     x="0" />
  <use
     height="100%"
     width="100%"
     id="use1275"
     transform="translate(36)"
     xlink:href="#g1237"
     y="0"
     x="0" />
  <use
     height="100%"
     width="100%"
     id="use1277"
     transform="translate(38)"
     xlink:href="#g1237"
     y="0"
     x="0" />
  <use
     height="100%"
     width="100%"
     id="use1279"
     transform="translate(40)"
     xlink:href="#g1237"
     y="0"
     x="0" />
  <use
     height="100%"
     width="100%"
     id="use1281"
     transform="translate(42)"
     xlink:href="#g1237"
     y="0"
     x="0" />
  <use
     height="100%"
     width="100%"
     id="use1283"
     transform="translate(44)"
     xlink:href="#g1237"
     y="0"
     x="0" />
  <use
     height="100%"
     width="100%"
     id="use1285"
     transform="translate(46)"
     xlink:href="#g1237"
     y="0"
     x="0" />
  <use
     height="100%"
     width="100%"
     id="use1287"
     transform="translate(48)"
     xlink:href="#g1237"
     y="0"
     x="0" />
  <use
     height="100%"
     width="100%"
     id="use1289"
     transform="translate(50)"
     xlink:href="#g1237"
     y="0"
     x="0" />
  <use
     height="100%"
     width="100%"
     id="use1291"
     transform="translate(52)"
     xlink:href="#g1237"
     y="0"
     x="0" />
  <use
     height="100%"
     width="100%"
     id="use1293"
     transform="translate(54)"
     xlink:href="#g1237"
     y="0"
     x="0" />
  <use
     height="100%"
     width="100%"
     id="use1295"
     transform="translate(56)"
     xlink:href="#g1237"
     y="0"
     x="0" />
  <use
     height="100%"
     width="100%"
     id="use1297"
     transform="translate(58)"
     xlink:href="#g1237"
     y="0"
     x="0" />
</svg>
