<?xml version="1.0" encoding="UTF-8" standalone="no"?>
<svg
   xmlns:dc="http://purl.org/dc/elements/1.1/"
   xmlns:cc="http://creativecommons.org/ns#"
   xmlns:rdf="http://www.w3.org/1999/02/22-rdf-syntax-ns#"
   xmlns:svg="http://www.w3.org/2000/svg"
   xmlns="http://www.w3.org/2000/svg"
   version="1.1"
   id="Rekordbox_Logo_Vector_1_"
   x="0px"
   y="0px"
   viewBox="0 0 31.999999 31.999999"
   enable-background="new 0 0 157.21 176.99"
   xml:space="preserve"
   width="32"
   height="32"><metadata
     id="metadata12"><rdf:RDF><cc:Work
         rdf:about=""><dc:format>image/svg+xml</dc:format><dc:type
           rdf:resource="http://purl.org/dc/dcmitype/StillImage" /><dc:title></dc:title></cc:Work></rdf:RDF></metadata><defs
     id="defs10" /><g
     transform="matrix(0.69636487,0,0,0.69636487,17.09885,110.06171)"
     id="g6070"><path
       style="fill:#ff6600;fill-opacity:1;fill-rule:nonzero;stroke:none;stroke-width:0.02336039"
       d="m -1.6914062,-154.86523 c -11.0702578,0 -20.0449218,8.97628 -20.0449218,20.04687 0,11.07018 8.974664,20.04492 20.0449218,20.04492 11.070725,0 20.0449222,-8.97474 20.0449222,-20.04492 0,-11.07059 -8.9741972,-20.04687 -20.0449222,-20.04687 z m 0,2.88476 c 0.87321143,0 1.5820312,0.70882 1.5820312,1.58203 v 5.20313 1.45117 0.85547 c 0,0.76389 0.61892757,1.38281 1.3828125,1.38281 0.7641197,0 1.3828125,-0.61892 1.3828125,-1.38281 v -2.30664 c 0,-0.11867 -0.01861,-0.232 -0.046875,-0.3418 0.086668,-0.58821 0.5888954,-1.04103 1.2011719,-1.04101 0.6730124,0 1.21875,0.5455 1.21875,1.21874 v 6.32422 H 5.09375 v 1.71289 c 0,0.67315 0.5455028,1.21875 1.21875,1.21875 0.6732454,0 1.21875,-0.5456 1.21875,-1.21875 v -1.71289 -1.71289 -0.13086 c 0,-0.60013 0.4872949,-1.08789 1.0878906,-1.08789 0.600128,0 1.0859375,0.48776 1.0859375,1.08789 v 11.92383 c 0,0.60034 -0.4858095,1.08594 -1.0859375,1.08594 -0.6005957,0 -1.0878906,-0.4856 -1.0878906,-1.08594 v -1.23828 -2.12305 c 0,-0.67299 -0.5455046,-1.21875 -1.21875,-1.21875 -0.6732472,0 -1.21875,0.54576 -1.21875,1.21875 v 2.12305 H 5.029297 v 5.7832 c 0,0.67326 -0.5457376,1.21875 -1.21875,1.21875 -0.5814408,0 -1.0660247,-0.40852 -1.1875,-0.95312 0.021492,-0.0964 0.033203,-0.19581 0.033203,-0.29883 V -126.75 c 0,-0.76396 -0.6186928,-1.38281 -1.3828125,-1.38281 -0.76388493,0 -1.3828125,0.61885 -1.3828125,1.38281 v 1.1543 1.15234 5.20508 c 0,0.87301 -0.70881977,1.58008 -1.5820312,1.58008 -0.8729768,0 -1.5800782,-0.70707 -1.5800782,-1.58008 v -5.20508 -1.15234 -1.1543 c 0,-0.76396 -0.6189273,-1.38281 -1.3828125,-1.38281 -0.7641187,0 -1.3847656,0.61885 -1.3847656,1.38281 v 1.1543 1.15234 0.0332 c 0,0.67326 -0.5455036,1.21875 -1.21875,1.21875 -0.6730132,0 -1.21875,-0.54549 -1.21875,-1.21875 v -4.48046 -1.30274 -2.12305 c 0,-0.67299 -0.5455034,-1.21875 -1.21875,-1.21875 -0.6732465,0 -1.2187515,0.54576 -1.2187495,1.21875 v 2.12305 1.23828 c 0,0.60034 -0.485342,1.08594 -1.085938,1.08594 -0.600129,0 -1.087891,-0.4856 -1.087891,-1.08594 v -11.92383 c 0,-0.60013 0.487762,-1.08789 1.087891,-1.08789 0.600596,0 1.085936,0.48776 1.085938,1.08789 v 0.13086 2.07617 1.34961 c 0,0.67315 0.545503,1.21875 1.2187495,1.21875 0.6732466,0 1.21875,-0.5456 1.21875,-1.21875 v -1.34961 -2.07617 -4.61133 c 0,-0.67324 0.5457368,-1.21874 1.21875,-1.21874 0.6732464,0 1.21875,0.5455 1.21875,1.21874 v 0.16407 1.45117 0.85547 c 0,0.76389 0.6206469,1.38281 1.3847656,1.38281 0.7638852,0 1.3828125,-0.61892 1.3828125,-1.38281 v -0.85547 -1.45117 -5.20313 c 0,-0.87321 0.7071011,-1.58203 1.5800782,-1.58203 z m -14.7226558,14.49414 c 0.563686,0 1.021484,0.45746 1.021484,1.02149 v 3.29296 c 0,0.56382 -0.457798,1.02149 -1.021484,1.02149 -0.563919,0 -1.021485,-0.45765 -1.021485,-1.02149 v -3.29296 c 0,-0.56403 0.457565,-1.02149 1.021485,-1.02149 z m 29.511718,0 c 0.563686,0 1.021485,0.45746 1.021485,1.02149 v 3.29296 c 0,0.56382 -0.457799,1.02149 -1.021485,1.02149 -0.563921,0 -1.019531,-0.45765 -1.019531,-1.02149 v -3.29296 c 0,-0.56403 0.45561,-1.02149 1.019531,-1.02149 z m -14.7890622,0.80469 c -1.0290249,0 -1.8632813,0.83423 -1.8632813,1.86328 0,1.02914 0.8342564,1.86328 1.8632813,1.86328 1.02902644,0 1.8632812,-0.83414 1.8632812,-1.86328 0,-1.02905 -0.83425476,-1.86328 -1.8632812,-1.86328 z"
       id="path22" /></g></svg>
