/* XPM */
static char *iconhuge[] = {
/* columns rows colors chars-per-pixel */
"48 48 111 2",
"   c #CE0000",
".  c #D20000",
"X  c #D30C0C",
"o  c #D41212",
"O  c #D41A1A",
"+  c #D81D1D",
"@  c #D32424",
"#  c #D52D2D",
"$  c #D82323",
"%  c #DA2C2C",
"&  c #D53636",
"*  c #D53F3F",
"=  c #DB3131",
"-  c #DD3A3A",
";  c #D54343",
":  c #D64D4D",
">  c #DE4343",
",  c #DF4949",
"<  c #D55151",
"1  c #D65959",
"2  c #DC5858",
"3  c #D67C7C",
"4  c #E04042",
"5  c #E14A4B",
"6  c #E15353",
"7  c #E35C5C",
"8  c #E36262",
"9  c #E66D6D",
"0  c #E67272",
"q  c #E87575",
"w  c #E87D7D",
"e  c #EB7F81",
"r  c #BB805D",
"t  c #B38F65",
"y  c #B88963",
"u  c #A2E6A4",
"i  c #A6E7A8",
"p  c #A3E8A6",
"a  c #A6E8A8",
"s  c #ADE6AE",
"d  c #AAE8AB",
"f  c #AEE6B0",
"g  c #AFEAB0",
"h  c #A2F6B1",
"j  c #AAF8BA",
"k  c #B3EBB5",
"l  c #BBE4BD",
"z  c #B9EDBA",
"x  c #BFEEC0",
"c  c #D98686",
"v  c #D88B8B",
"b  c #D99797",
"n  c #D89B9B",
"m  c #CDB195",
"M  c #D9A1A1",
"N  c #D9AAAA",
"B  c #DAB1B1",
"V  c #E58585",
"C  c #EA8686",
"Z  c #EB8B8B",
"A  c #E09090",
"S  c #EC9292",
"D  c #ED9B9B",
"F  c #E2AFAF",
"G  c #EFA2A2",
"H  c #EAAEAE",
"J  c #F0A6A6",
"K  c #F0ABAB",
"L  c #F2B3B3",
"P  c #F4BBBB",
"I  c #CBDFCC",
"U  c #DAC5C5",
"Y  c #DBCDCD",
"T  c #D5DDD5",
"R  c #D7DCD8",
"E  c #DBD2D2",
"W  c #DADBDB",
"Q  c #C1E2C2",
"!  c #C3EFC5",
"~  c #C6F1C7",
"^  c #CDF2CE",
"/  c #CFF3D1",
"(  c #DCF6DD",
")  c #DBE2E2",
"_  c #DBEAEA",
"`  c #E6DCDC",
"'  c #F5C3C3",
"]  c #F6CACA",
"[  c #F7D3D3",
"{  c #F8D4D4",
"}  c #F8DADA",
"|  c #E1DFE1",
" . c #E6EDDE",
".. c #E3E3E3",
"X. c #E2EAEA",
"o. c #ECE7E7",
"O. c #EBEBEB",
"+. c #E1F8E2",
"@. c #E7F9E8",
"#. c #E9F9EA",
"$. c #EBFFF4",
"%. c #F4E4E4",
"&. c #FAE3E3",
"*. c #FCEDED",
"=. c #F3F3F3",
"-. c #F4FDF5",
";. c #F5FAFA",
":. c #FDF4F4",
">. c #FAF6FA",
",. c #FEFEFE",
"<. c None",
/* pixels */
"<.<.<.<.<.<.<.<.. . . <.<.<.<.<.<.<.<.<.<.<.<.<.<.<.<.<.<.<.<.<.<.<.<.<.<.<.<.<.<.<.<.<.<.<.<.<.",
"<.<.<.<.<.<.<.. . . . . <.<.<.<.<.<.<.<.<.<.<.<.<.<.<.<.<.<.<.<.<.<.<.<.<.<.<.<.<.<.<.<.<.<.<.<.",
"<.<.<.<.<.<.<.. . . . . . <.<.<.<.<.<.<.<.<.<.<.<.<.<.<.<.<.<.<.<.<.<.<.<.<.<.<.<.<.<.<.<.<.<.<.",
"<.<.<.<.<.. . . . . . . <.<.<.<.<.<.<.<.<.<.<.<.<.<.<.<.<.<.<.<.<.<.<.<.<.<.<.<.<.<.<.<.<.<.<.<.",
"<.<.<.<.<.. . . . . . . <.<.<.<.<.<.<.W W W W W W W W W <.<.<.<.<.<.<.<.<.<.<.<.<.<.<.<.<.<.<.<.",
"<.<.<.<.. . . . . . . <.<.<.<.<.<.W W W W W W W W W W W W W W <.<.<.<.<.<.<.<.<.<.<.<.<.<.<.<.<.",
"<.<.<.. . . . <.. . . <.<.<.W W W W W W W W W W W R W W W W W W W <.<.<.<.<.<.<.<.<.<.<.<.<.<.<.",
"<.<.. . . . <.<.. . . <.<.W W W W W W W W W ......` W W W E W W W W W <.<.<.<.<.<.<.<.<.<.<.<.<.",
"<.. . . . . <.. . . & <.) W W W ) X.o.;.>.,.,.,.,.,.;.>.=...W W W ` T s <.<.<.<.<.<.<.<.<.<.<.<.",
"<.. . . . <.<.. . . n _ W W ) W F q = ' ,.,.,.,.,.,.,.,.,.,.=...W W l a u <.<.<.<.<.<.<.<.<.<.<.",
"<.<.. . <.<.<.. . ; ) ) _ E c O . . . X H ,.,.,.,.,.,.,.,.,.,.,.>.l p u i I <.<.<.<.<.<.<.<.<.<.",
"<.<.<.<.<.<.. . $ ) ) B 3 + . $ 7 = . o D ,.,.,.,.,.,.,.,.,.,.,.+.d p p I W W <.<.<.<.<.<.<.<.<.",
"<.<.<.<.<.<.. . 1 N # . . = H ,.0   . L ,.,.,.,.,.,.,.,.,.,.,.@.u a a Q W W W W <.<.<.<.<.<.<.<.",
"<.<.<.<.<.. . . X . @ V ] ,.,.q . X K ,.,.,.C D ,.,.,.,.,.,.@.g u u ~ >...E W W <.<.<.<.<.<.<.<.",
"<.<.<.<.<.X o @ * 3 ` ,.,.,.Z   X S ,.,.,.:.O o :.,.,.,.,.-.k u u x ;.,.=.W W W W <.<.<.<.<.<.<.",
"<.<.<.<.<.<.Y E W _ ;.,.,.C .   D ,.,.,.*.,.L C >.,.,.,.;.z u u k -.,.,.,.O.R W W <.<.<.<.<.<.<.",
"<.<.<.<.<.<.W W W O.,.,.K X . 0 >.,.,.' = Z ,.,.,.,.,.,.^ u u s @.,.,.,.,.>.W W W W <.<.<.<.<.<.",
"<.<.<.<.<.W W E W ,.,.L .   8 ,.,.,.} O . 6 >.,.,.,.,./ u u u +.,.,.,.,.,.,.o.W W W <.<.<.<.<.<.",
"<.<.<.<.<.W W W ..,.:.4   q :.,.,.] + . 7 >.,.&.,.,.( a u u ( ,.,.,.,.,.,.,.>.W W W W <.<.<.<.<.",
"<.<.<.<.<.W W W O.,.,.' 8 >.,.,.{ -   2 *.,.,.S e  .a u a ^ ,.,.,.,.,.,.,.,.,...W W W <.<.<.<.<.",
"<.<.<.<.<.W W W >.,.,.,.,.,.,.*.$   > :.,.,.,.Z . r h u ! ,.,.,.,.,.,.,.,.,.,.O.R W W <.<.<.<.<.",
"<.<.<.<.W W W W ,.,.,.,.,.,.&.,   % &.,.,.,.,.Z . y h z -.,.,.,.,.,.,.,.,.,.,.O.W W W <.<.<.<.<.",
"<.<.<.<.W W W ..,.,.,.,.,.,.{ X % &.,.,.,.,.,.w . t j -.,.,.,.,.,.,.,.,.,.,.,.O.R W W <.<.<.<.<.",
"<.<.<.<.W W R O.,.,.,.,.,.,.,.{ &.,.,.,.,.,.,.C   m $.,.>.,.,.,.,.,.,.,.,.,.,.=.W W W <.<.<.<.<.",
"<.<.<.<.W W W ..,.,.,.,.,.,.,.,.,.} D D S Z w - . > 5 - $ 8 &.,.,.,.,.,.,.,.,.=.R W W <.<.<.<.<.",
"<.<.<.<.W W W ..,.,.,.,.,.,.,.,.,.} +   . . . . . . . + $ $ S ,.,.,.,.,.,.,.,.O.W W W <.<.<.<.<.",
"<.<.<.<.W W W W ,.,.,.,.,.,.,.,.,.,.&.L P ] } w . G :.:.>.:.>.{ *.,.,.,.,.,.,.O.E W W <.<.<.<.<.",
"<.<.<.<.<.W W W >.,.,.,.,.,.,.,.,.,.,.,.,.,.,.Z   P ,.,.,.,.,.D > *.,.,.,.,.,.O.W W W <.<.<.<.<.",
"<.<.<.<.<.W W W O.,.,.,.,.,.,.,.,.,.,.,.,.,.,.w . P ,.,.,.,.,.H . G ,.,.,.,.,...W W W <.<.<.<.<.",
"<.<.<.<.<.W W W ..,.,.,.,.,.,.,.,.,.,.,.,.,.,.q   L ,.,.,.,.,.J   G ,.,.,.,.>.W W W W <.<.<.<.<.",
"<.<.<.<.<.W W W W ,.,.,.,.,.,.,.,.,.,.,.,.,.,.9   L ,.,.,.,.,.D . L ,.,.,.,.O.R W W <.<.<.<.<.<.",
"<.<.<.<.<.W W W W O.,.,.,.,.,.,.,.,.,.,.,.,.,.&.6 L ,.,.,.,.,.S . K :.*.{ %.W W W W <.<.<.<.<.<.",
"<.<.<.<.<.<.W W W W >.,.,.,.,.,.,.,.,.,.,.,.,.,.>.' C w 0 7 5 $ . o X . . # U W W <.<.<.<.<.<.<.",
"<.<.<.<.<.<.<.W W W ..,.,.,.,.,.,.,.,.,.,.,.,.,.,.*.7 .   . . O . % 5 7 2 1 b W E <.<.<.<.<.<.<.",
"<.<.<.<.<.<.<.W W W E O.,.,.,.,.,.,.,.,.,.,.,.,.,.,.,.L P } *.J . L ,.,._ W _ M o <.<.<.<.<.<.<.",
"<.<.<.<.<.<.<.<.W W W W =.,.,.,.,.,.,.,.,.,.,.,.,.,.,.,.,.,.,.J . P ,...W W _ : . . <.<.<.<.<.<.",
"<.<.<.<.<.<.<.<.W W W W W O.,.,.,.,.,.,.,.,.,.,.,.,.,.,.,.,.,.D   H _ W W W W o . . <.<.<.<.<.<.",
"<.<.<.<.<.<.<.<.<.<.W W W R ..,.,.,.,.,.,.,.,.,.,.,.,.,.,.,.,.S . n ) W W _ <.X . . <.<.<.<.<.<.",
"<.<.<.<.<.<.<.<.<.<.W W W W W | O.,.,.,.,.,.,.,.,.,.,.,.,.,.;.b . n _ _ _ <.<.. . . <.<.<.<.<.<.",
"<.<.<.<.<.<.<.<.<.<.<.W W W W W W W =.=.>.,.,.,.,.,.,.=.=.O.W Y 1 N Y v <.<.. . . . . . . . <.<.",
"<.<.<.<.<.<.<.<.<.<.<.<.<.R W W W W E W W | ........W W W W W W ) v o . . . . . . . . . . . . <.",
"<.<.<.<.<.<.<.<.<.<.<.<.<.<.W W W W W W W W W R R W W W W W W W ) > . . . . . . . . . . . . . <.",
"<.<.<.<.<.<.<.<.<.<.<.<.<.<.<.<.<.W W W W W W W W W W W W W W <.<.<.. . . . . . . . <.<.<.<.<.<.",
"<.<.<.<.<.<.<.<.<.<.<.<.<.<.<.<.<.<.<.W W W W W W W W W <.<.<.<.<.<.<.<.<.<.<.. . . <.<.<.<.<.<.",
"<.<.<.<.<.<.<.<.<.<.<.<.<.<.<.<.<.<.<.<.<.<.<.<.<.<.<.<.<.<.<.<.<.<.<.<.<.<.<.. . . <.<.<.<.<.<.",
"<.<.<.<.<.<.<.<.<.<.<.<.<.<.<.<.<.<.<.<.<.<.<.<.<.<.<.<.<.<.<.<.<.<.<.<.<.<.<.. . . <.<.<.<.<.<.",
"<.<.<.<.<.<.<.<.<.<.<.<.<.<.<.<.<.<.<.<.<.<.<.<.<.<.<.<.<.<.<.<.<.<.<.<.<.<.<.. . . <.<.<.<.<.<.",
"<.<.<.<.<.<.<.<.<.<.<.<.<.<.<.<.<.<.<.<.<.<.<.<.<.<.<.<.<.<.<.<.<.<.<.<.<.<.<.<.. . <.<.<.<.<.<."
};
