/* XPM */
static char *iconlarge[] = {
/* columns rows colors chars-per-pixel */
"32 32 91 1",
"  c #CD0100",
". c #CA1208",
"X c #D20000",
"o c #D30B0B",
"O c #D51212",
"+ c #D71A1A",
"@ c #D81C1C",
"# c #D72121",
"$ c #D42D2D",
"% c #D92323",
"& c #DA2B2B",
"* c #D7312E",
"= c #D43131",
"- c #DC3333",
"; c #DC3939",
": c #D44747",
"> c #D54B4B",
", c #DD4444",
"< c #D65555",
"1 c #DD5858",
"2 c #D56666",
"3 c #D77C7C",
"4 c #E04545",
"5 c #E04B4B",
"6 c #E05252",
"7 c #E35B5B",
"8 c #E36161",
"9 c #E06E6E",
"0 c #E67272",
"q c #E87A7B",
"w c #9EE6A0",
"e c #9FE8A1",
"r c #A3DE9E",
"t c #A3E7A5",
"y c #A3E8A6",
"u c #A6E8A8",
"i c #AFE6AD",
"p c #A8E8AA",
"a c #AFE6B1",
"s c #B6ECB7",
"d c #B8E3BA",
"f c #BBEDBD",
"g c #D98383",
"h c #D88F8F",
"j c #D99C9C",
"k c #D9ACAC",
"l c #D9B4B4",
"z c #DABBBB",
"x c #E08C8C",
"c c #EA8485",
"v c #EB8888",
"b c #EC9393",
"n c #EE9E9E",
"m c #EFA3A3",
"M c #F0A3A3",
"N c #F0ABAB",
"B c #F1B1B1",
"V c #F3BCBC",
"C c #CBE3BF",
"Z c #CCDECC",
"A c #DBC3C3",
"S c #DBCECE",
"D c #DAD2D2",
"F c #DADADB",
"G c #C7F0C9",
"H c #DEE0DE",
"J c #D1FAD7",
"K c #DBF5DB",
"L c #DBE3E3",
"P c #DBE9E9",
"I c #DBF4F4",
"U c #F6CCCC",
"Y c #F8D6D6",
"T c #F8DBDB",
"R c #E3E3E3",
"E c #E1EEEE",
"W c #E9E7E7",
"Q c #EBEBEB",
"! c #E1F7E1",
"~ c #E2F8E2",
"^ c #E6FCEA",
"/ c #EEFBEE",
"( c #E2F2F2",
") c #FBE4E4",
"_ c #FEE9EC",
"` c #F4F4F4",
"' c #F6FDF6",
"] c #F6FAFA",
"[ c #FDF4F4",
"{ c #FEFEFE",
"} c None",
/* pixels */
"}}}}}XX}}}}}}}}}}}}}}}}}}}}}}}}}",
"}}}}XXXX}}}}}}}}}}}}}}}}}}}}}}}}",
"}}}XXXXX}}}}}}}}}}}}}}}}}}}}}}}}",
"}}XXXXXX}}}FFFFFFFFFF}}}}}}}}}}}",
"}XXX}XX}}LFFFFFFFFFDFFF}}}}}}}}}",
"XXX}XXOzLLPHW`[]]``RFFFZ}}}}}}}}",
"XXX}XX3ILAg,,){{{{{{]QFauZ}}}}}}",
"XX}XX<Lj:#5# m{{{{{{{]sedF}}}}}}",
"}}}XX>=&qTqXq{[){{{{'ftfLFF}}}}}",
"}}}O$:j[{0 0{{m-[{{]fws][FFF}}}}",
"}}}SFL]{cXc{{BYU{{{Gwp/{{QFFF}}}",
"}}}FFR{N 8{{BXm{{{Ktp!{{{`FFF}}}",
"}}FFD`{;6{{VX7{T_^ut~{{{{{RFF}}}",
"}}FFL{{)[{no7{{c*itK{{{{{{QFF}}}",
"}}FFR{{{{NX>[{{c.rJ{{{{{{{]FFF}}",
"}}FFQ{{{{Tb[{{{q.Z[[{{{{{{{FFF}}",
"}}FFQ{{{{{{Y755#X*%-Y{{{{{{HFF}}",
"}}FFR{{{{{{[v0b6ONVVTT[{{{]FFF}}",
"}}FFH{{{{{{{{{{q#[{{{8b{{{`FF}}}",
"}}FFF`{{{{{{{{{0@[{{{58{{{HFF}}}",
"}}}FFH{{{{{{{{{m*[{{{;0{{[FFF}}}",
"}}}FFF`{{{{{{{{{UVNmb@;q7hFLL}}}",
"}}}}FFH{{{{{{{{{{N%-,@#712Sl}}}}",
"}}}}FFFW{{{{{{{{{{[{{50{EPzoX}}}",
"}}}}}FFFR{{{{{{{{{{{{;2(FP:XX}}}",
"}}}}}}FFFHQ{{{{{{{{{];2IF}oXX}}}",
"}}}}}}}FFFFHQ``]][QRHljh=XXXXXXX",
"}}}}}}}}}FFFFFFFFFFFFPgXXXXXXXXX",
"}}}}}}}}}}}FFFFFFFFFF}}XXXXXX}}X",
"}}}}}}}}}}}}}}}}}}}}}}}}}}XXX}}}",
"}}}}}}}}}}}}}}}}}}}}}}}}}}XXX}}}",
"}}}}}}}}}}}}}}}}}}}}}}}}}}XXX}}}"
};
