/* XPM */
static const char *icon[] = {
/* columns rows colors chars-per-pixel */
"128 128 88 1",
"  c #BD7454",
". c #D30000",
"X c #D00E0A",
"o c #D30D0D",
"O c #D50F0F",
"+ c #D41B1B",
"@ c #D81F1F",
"# c #C83A2A",
"$ c #D42929",
"% c #DB2F2F",
"& c #D53636",
"* c #D73939",
"= c #DE3F3F",
"- c #D54444",
"; c #D54949",
": c #DE4D4D",
"> c #D65252",
", c #DA5656",
"< c #C27559",
"1 c #D76D6D",
"2 c #D77B7B",
"3 c #E04F4F",
"4 c #E15D5D",
"5 c #E35F5F",
"6 c #E66F6F",
"7 c #E97F7F",
"8 c #A7E8A9",
"9 c #AAE7AC",
"0 c #ADE6AF",
"q c #ACE9AE",
"w c #AFE5B1",
"e c #B2EAB3",
"r c #B7ECB9",
"t c #BAE3BB",
"y c #BDE2BE",
"u c #BFE7C0",
"i c #D88888",
"p c #D89696",
"a c #D9A4A4",
"s c #DFABAB",
"d c #D9B1B1",
"f c #DABFBF",
"g c #EB8F8F",
"h c #EE9F9F",
"j c #EDB8B8",
"k c #F1AFAF",
"l c #F4BFBF",
"z c #C7DFC8",
"x c #CADFCB",
"c c #DACDCD",
"v c #D0DDD1",
"b c #D1DDD1",
"n c gray86",
"m c #DDDDDD",
"M c #DFDFDF",
"N c #C2EFC3",
"B c #C8F0C9",
"V c #CDF2CE",
"C c #D3F3D4",
"Z c #D8F4D9",
"A c #DEF6DE",
"S c #E5D8D8",
"D c #F1CDC9",
"F c #F6CFCF",
"G c #F9DFDF",
"H c #E1E1E1",
"J c #E4E4E4",
"K c #E6E6E6",
"L c #E4ECE4",
"P c gray91",
"I c #EAEAEA",
"U c gray93",
"Y c #EFEFEF",
"T c #E3F7E4",
"R c #E9F9E9",
"E c #EEFAEE",
"W c #F1E3E3",
"Q c #FCEFEF",
"! c #F1F1F1",
"~ c #F3F3F3",
"^ c #F6F6F6",
"/ c #F4FCF4",
"( c #F8F8F8",
") c gray98",
"_ c #F9FDF9",
"` c gray99",
"' c gray100",
"] c None",
/* pixels */
"]]]]]]]]]]]]]]]]]]]]]]]]]]]]]]]]]]]]]]]]]]]]]]]]]]]]]]]]]]]]]]]]]]]]]]]]]]]]]]]]]]]]]]]]]]]]]]]]]]]]]]]]]]]]]]]]]]]]]]]]]]]]]]]]",
"]]]]]]]]]]]]]]]]]]]]]]]]...]]]]]]]]]]]]]]]]]]]]]]]]]]]]]]]]]]]]]]]]]]]]]]]]]]]]]]]]]]]]]]]]]]]]]]]]]]]]]]]]]]]]]]]]]]]]]]]]]]]]]",
"]]]]]]]]]]]]]]]]]]]]]]].....]]]]]]]]]]]]]]]]]]]]]]]]]]]]]]]]]]]]]]]]]]]]]]]]]]]]]]]]]]]]]]]]]]]]]]]]]]]]]]]]]]]]]]]]]]]]]]]]]]]]",
"]]]]]]]]]]]]]]]]]]]]]].......]]]]]]]]]]]]]]]]]]]]]]]]]]]]]]]]]]]]]]]]]]]]]]]]]]]]]]]]]]]]]]]]]]]]]]]]]]]]]]]]]]]]]]]]]]]]]]]]]]]",
"]]]]]]]]]]]]]]]]]]]]].........]]]]]]]]]]]]]]]]]]]]]]]]]]]]]]]]]]]]]]]]]]]]]]]]]]]]]]]]]]]]]]]]]]]]]]]]]]]]]]]]]]]]]]]]]]]]]]]]]]",
"]]]]]]]]]]]]]]]]]]]]...........]]]]]]]]]]]]]]]]]]]]]]]]]]]]]]]]]]]]]]]]]]]]]]]]]]]]]]]]]]]]]]]]]]]]]]]]]]]]]]]]]]]]]]]]]]]]]]]]]",
"]]]]]]]]]]]]]]]]]]].............]]]]]]]]]]]]]]]]]]]]]]]]]]]]]]]]]]]]]]]]]]]]]]]]]]]]]]]]]]]]]]]]]]]]]]]]]]]]]]]]]]]]]]]]]]]]]]]]",
"]]]]]]]]]]]]]]]]]]..............]]]]]]]]]]]]]]]]]]]]]]]]]]]]]]]]]]]]]]]]]]]]]]]]]]]]]]]]]]]]]]]]]]]]]]]]]]]]]]]]]]]]]]]]]]]]]]]]",
"]]]]]]]]]]]]]]]]]..............]]]]]]]]]]]]]]]]]]]]]]]]]]]]]]]]]]]]]]]]]]]]]]]]]]]]]]]]]]]]]]]]]]]]]]]]]]]]]]]]]]]]]]]]]]]]]]]]]",
"]]]]]]]]]]]]]]]]...............]]]]]]]]]]]]]]]]]]]]]]]]]]]]]]]]]]]]]]]]]]]]]]]]]]]]]]]]]]]]]]]]]]]]]]]]]]]]]]]]]]]]]]]]]]]]]]]]]",
"]]]]]]]]]]]]]]].........]......]]]]]]]]]]]]]]]]]]]]]]]]]]]]]]]]]]]]]]]]]]]]]]]]]]]]]]]]]]]]]]]]]]]]]]]]]]]]]]]]]]]]]]]]]]]]]]]]]",
"]]]]]]]]]]]]]]]...............]]]]]]]]]]]]]]]]]]]]]]]]]]]]]]]]]]]]]]]]]]]]]]]]]]]]]]]]]]]]]]]]]]]]]]]]]]]]]]]]]]]]]]]]]]]]]]]]]]",
"]]]]]]]]]]]]]].........]......]]]]]]]]]]]]]]]]]]]]]]]]]]]]]]]]]]]]]]]]]]]]]]]]]]]]]]]]]]]]]]]]]]]]]]]]]]]]]]]]]]]]]]]]]]]]]]]]]]",
"]]]]]]]]]]]]].........]]......]]]]]]]]]]]]]]]]]]]]]]]nnnnnnnnnnnnnnnnnnnn]]]]]]]]]]]]]]]]]]]]]]]]]]]]]]]]]]]]]]]]]]]]]]]]]]]]]]]",
"]]]]]]]]]]]].........]]......]]]]]]]]]]]]]]]]]]]]nnnnnnnnnnnnnnnnnnnnnnnnnnnn]]]]]]]]]]]]]]]]]]]]]]]]]]]]]]]]]]]]]]]]]]]]]]]]]]]",
"]]]]]]]]]]].........]]]......]]]]]]]]]]]]]]]]]nnnnnnnnnnnnnnnnnnnnnnnnnnnnnnnnnn]]]]]]]]]]]]]]]]]]]]]]]]]]]]]]]]]]]]]]]]]]]]]]]]",
"]]]]]]]]]].........]]]]......]]]]]]]]]]]]]]nnnnnnnnnnnnnnnnnnnnnnnnnnnnnnnnnnnnnnnn]]]]]]]]]]]]]]]]]]]]]]]]]]]]]]]]]]]]]]]]]]]]]",
"]]]]]]]]].........]]]]......]]]]]]]]]]]]]nnnnnnnnnnnnnnnnnnnnnnnnnnnnnnnnnnnnnnnnnnnn]]]]]]]]]]]]]]]]]]]]]]]]]]]]]]]]]]]]]]]]]]]",
"]]]]]]]].........]]]]]......]]]]]]]]]]]nnnnnnnnnnnnnnnnnnnnnnnnnnnnnnnnnnnnnnnnnnnnnnnn]]]]]]]]]]]]]]]]]]]]]]]]]]]]]]]]]]]]]]]]]",
"]]]]]]].........]]]]]......]]]]]]]]]]nnnnnnnnnnnnnnnnnnnnnnnnnnnnnnnnnnnnnnnnnnnnnnnnnnnn]]]]]]]]]]]]]]]]]]]]]]]]]]]]]]]]]]]]]]]",
"]]]]]].........]]]]]]......]]]]]]]]nnnnnnnnnnnnnnnnnMnnnnMKMIUUUUPJJmnnnnnnnnnnnnnnnnnnnnn]]]]]]]]]]]]]]]]]]]]]]]]]]]]]]]]]]]]]]",
"]]]]].........]]]]]]]......]]]]]]]nnnnnnnnnnnnnnnnnnMI~^'''''''''''''`^UKMnnnnnnnnnnnnnnnnnn]]]]]]]]]]]]]]]]]]]]]]]]]]]]]]]]]]]]",
"]]]].........]]]]]]]......]]]]]]]nnnnnnnnnnnnnnnnK~^''''''''''''''''''''''^~Mnnnnnnnnnnnnnnnn]]]]]]]]]]]]]]]]]]]]]]]]]]]]]]]]]]]",
"]]].........]]]]]]]]......]]]]]nnnnnnnnnnnnnnnM!'''''''''''''''''''''''''''''^IMnnnnnnnnnnnnt8]]]]]]]]]]]]]]]]]]]]]]]]]]]]]]]]]]",
"]]]........]]]]]]]]]......]]]]nnnnnnnnnnnnnnJ^Qh%%Q''''''''''''''''''''''''''''`!Mnnnnnnnnny8808]]]]]]]]]]]]]]]]]]]]]]]]]]]]]]]]",
"]]]]......]]]]]]]]]......]]]]nnnnnnnnnnnnnJ^F5O...%Q''''''''''''''''''''''''''''''!Mnnnnnnz888888]]]]]]]]]]]]]]]]]]]]]]]]]]]]]]]",
"]]]]]....]]]]]]]]]]......]]]nnnnnnnnnnnnMWg%.......%Q''''''''''''''''''''''''''''''^UMnnnx88888808]]]]]]]]]]]]]]]]]]]]]]]]]]]]]]",
"]]]]]]..]]]]]]]]]]]......]]nnnnnnnnnnnns5...........%Q'''''''''''''''''''''''''''''''^Knx9888888888]]]]]]]]]]]]]]]]]]]]]]]]]]]]]",
"]]]]]]]]]]]]]]]]]]......]]nnnnnnnnnnc2+..............OF''''''''''''''''''''''''''''''''L0988888899vn]]]]]]]]]]]]]]]]]]]]]]]]]]]]",
"]]]]]]]]]]]]]]]]]]......]nnnnnnnnnp>.........%5.......h'''''''''''''''''''''''''''''''_r888888889vnnn]]]]]]]]]]]]]]]]]]]]]]]]]]]",
"]]]]]]]]]]]]]]]]]].....]nnnnnnnf1+........O5FFO......h''''''''''''''''''''''''''''''''r888888888znnnnn]]]]]]]]]]]]]]]]]]]]]]]]]]",
"]]]]]]]]]]]]]]]]]......nnnnnnp-.........%hQ'FO......g''''''''''''''''''''''''''''''''B888888888znnnnnn]]]]]]]]]]]]]]]]]]]]]]]]]]",
"]]]]]]]]]]]]]]]]]......nnnf1+........O6G'''GO......5''''''''''''''''''''''''''''''''V888888888tnnnnnnnn]]]]]]]]]]]]]]]]]]]]]]]]]",
"]]]]]]]]]]]]]]]]].....nnp-.........=h'''''Q%......5''''''''''''''''''''''''''''''''A888888888ynnnnnnnnnn]]]]]]]]]]]]]]]]]]]]]]]]",
"]]]]]]]]]]]]]]]].....&1+........@7G''''''Q%......5''''''''''''''''''''''''''''''''T888888888r_Knnnnnnnnnn]]]]]]]]]]]]]]]]]]]]]]]",
"]]]]]]]]]]]]]]]]..............:k''''''''Q%......5''''''''''Q%h'''''''''''''''''''Eq88888888r_''Mnnnnnnnnn]]]]]]]]]]]]]]]]]]]]]]]",
"]]]]]]]]]]]]]]]]...........+2S'''''''''Q%......5''''''''''Q%..h'''''''''''''''''/q88888888qE'''`Mnnnnnnnnn]]]]]]]]]]]]]]]]]]]]]]",
"]]]]]]]]]]]]]]]].........>anM'''''''''Q%......5'''''''''''5....h'''''''''''''''_r88888888qE'''''^nnnnnnnnn]]]]]]]]]]]]]]]]]]]]]]",
"]]]]]]]]]]]]]]]]].....$icnnn^''''''''Q%......%Q''''''''''GO.....k''''''''''''''r888888888A'''''''Innnnnnnnn]]]]]]]]]]]]]]]]]]]]]",
"]]]]]]]]]]]]]]]]]]n>>dnnnnnU'''''''''5......%Q''''''''''''Q%...5''''''''''''''B888888888A'''''''''Mnnnnnnnnn]]]]]]]]]]]]]]]]]]]]",
"]]]]]]]]]]]]]]]]]]nnnnnnnnM'''''''''5......%Q''''''''''''''Q%.5''''''''''''''V888888888B''''''''''^Mnnnnnnnn]]]]]]]]]]]]]]]]]]]]",
"]]]]]]]]]]]]]]]]]nnnnnnnnM^''''''''5......%Q''''''''''7Q''''Q7''''''''''''''A888888888B''''''''''''Innnnnnnnn]]]]]]]]]]]]]]]]]]]",
"]]]]]]]]]]]]]]]]]nnnnnnnnK''''''''5......%Q''''''''''5.%Q''''''''''''''''''T888888888r_''''''''''''^Mnnnnnnnn]]]]]]]]]]]]]]]]]]]",
"]]]]]]]]]]]]]]]]nnnnnnnnM^'''''''5......%Q''''''''''h...%Q''''''''''''''''Eq88888888r_''''''''''''''Unnnnnnnn]]]]]]]]]]]]]]]]]]]",
"]]]]]]]]]]]]]]]]nnnnnnnnI'''''''5......OG''''''''''h.....OF''''''''''''''/q88888888qE''''''''''''''''Mnnnnnnnn]]]]]]]]]]]]]]]]]]",
"]]]]]]]]]]]]]]]nnnnnnnnn^''''''g......OF''''''''''h......%Q'''''''''''''_r888888888E'''''''''''''''''Innnnnnnn]]]]]]]]]]]]]]]]]]",
"]]]]]]]]]]]]]]]nnnnnnnnK''''''h......OF''''''''''h......%Q''''''''''''''r888888888A''''''''''''''''''^Mnnnnnnnn]]]]]]]]]]]]]]]]]",
"]]]]]]]]]]]]]]]nnnnnnnn~'''''h......OF''''''''''h......%Q''''''''''''''B888888888Z''''''''''''''''''''Innnnnnnn]]]]]]]]]]]]]]]]]",
"]]]]]]]]]]]]]]nnnnnnnnM'''''G......OF''''''''''h......%Q''''''Q'''''''C888888888N'''''''''''''''''''''^nnnnnnnn]]]]]]]]]]]]]]]]]",
"]]]]]]]]]]]]]]nnnnnnnnI''''''h....OF''''''''''F......OF''''''':F'''''A888888888N'''''''''''''''''''''''Mnnnnnnn]]]]]]]]]]]]]]]]]",
"]]]]]]]]]]]]]]nnnnnnnn^'''''''hO..l''''''''''FO.....OF''''''''=OF'''R888888888r_'''''''''''''''''''''''Innnnnnnn]]]]]]]]]]]]]]]]",
"]]]]]]]]]]]]]]nnnnnnnM'''''''''FOh''''''''''FO.....OF'''''''''=.OF'Eq88888888e_''''''''''''''''''''''''~nnnnnnnn]]]]]]]]]]]]]]]]",
"]]]]]]]]]]]]]nnnnnnnnK''''''''''Q''''''''''FO.....OF''''''''''=..ODq88888888qE''''''''''''''''''''''''''nnnnnnnn]]]]]]]]]]]]]]]]",
"]]]]]]]]]]]]]nnnnnnnnU''''''''''''''''''''FO.....OF'''''''''''=...X888888888E'''''''''''''''''''''''''''MMnnnnnn]]]]]]]]]]]]]]]]",
"]]]]]]]]]]]]]nnnnnnnn^'''''''''''''''''''FO.....OF''''''''''''=...X88888888A''''''''''''''''''''''''''''Innnnnnnn]]]]]]]]]]]]]]]",
"]]]]]]]]]]]]]nnnnnnnn'''''''''''''''''''QO......k'''''''''''''=...#8888888Z'''''''''''''''''''''''''''''~nnnnnnnn]]]]]]]]]]]]]]]",
"]]]]]]]]]]]]]nnnnnnnM''''''''''''''''''Q%......h''''''''''''''=...#888888B''''''''''''''''''''''''''''''^nnnnnnnn]]]]]]]]]]]]]]]",
"]]]]]]]]]]]]]nnnnnnnK'''''''''''''''''Q%......h'''''''''''''''@...#88888N''''''''''''''''''''''''''''''''nnnnnnnn]]]]]]]]]]]]]]]",
"]]]]]]]]]]]]]nnnnnnnU'''''''''''''''''G%.....h''''''''''''''''....#8888r_''''''''''''''''''''''''''''''''nnnnnnnn]]]]]]]]]]]]]]]",
"]]]]]]]]]]]]]nnnnnnnU''''''''''''''''''Q%...h'''''''''''''''''....#888e_'''''''''''''''''''''''''''''''''Knnnnnnn]]]]]]]]]]]]]]]",
"]]]]]]]]]]]]nnnnnnnnU'''''''''''''''''''Q%.h''''''''''''''''''.... 88qE''''''''''''''''''''''''''''''''''Knnnnnnn]]]]]]]]]]]]]]]",
"]]]]]]]]]]]]nnnnnnnn~''''''''''''''''''''Ql'''''''''''''''''''....<88E'''''''''''''''''''''''''''''''''''Mnnnnnnn]]]]]]]]]]]]]]]",
"]]]]]]]]]]]]nnnnnnnn^'''''''''''''''''''''''''''''''''''''''''....7VA''''''''''''''''''''''''''''''''''''Knnnnnnn]]]]]]]]]]]]]]]",
"]]]]]]]]]]]]nnnnnnnn^'''''''''''''''''''''''''''''''''''''''''....5lh77776===6'''''''''''''''''''''''''''Mnnnnnnn]]]]]]]]]]]]]]]",
"]]]]]]]]]]]]nnnnnnnn~''''''''''''''''''''''''Glll77776====O...................5''''''''''''''''''''''''''Knnnnnnn]]]]]]]]]]]]]]]",
"]]]]]]]]]]]]nnnnnnnnU'''''''''''''''''''''''''5................................%Q''''''''''''''''''''''''Mnnnnnnn]]]]]]]]]]]]]]]",
"]]]]]]]]]]]]]nnnnnnnU''''''''''''''''''''''''''5................................%Q'''''''''''''''''''''''Knnnnnnn]]]]]]]]]]]]]]]",
"]]]]]]]]]]]]]nnnnnnnU'''''''''''''''''''''''''''5......................%=======57h'''''''''''''''''''''''nnnnnnnn]]]]]]]]]]]]]]]",
"]]]]]]]]]]]]]nnnnnnnK''''''''''''''''''''''''''''5....%==677hl%...=''''''''''''''''''''''''''''''''''''''nnnnnnnn]]]]]]]]]]]]]]]",
"]]]]]]]]]]]]]nnnnnnnM'''''''''''''''''''''''''''''l'''''''''''=...7''''''''''''''''FF'''''''''''''''''''^nnnnnnnn]]]]]]]]]]]]]]]",
"]]]]]]]]]]]]]nnnnnnnn'''''''''''''''''''''''''''''''''''''''''=...7''''''''''''''''lOF''''''''''''''''''~nnnnnnnn]]]]]]]]]]]]]]]",
"]]]]]]]]]]]]]nnnnnnnn^''''''''''''''''''''''''''''''''''''''''=...7''''''''''''''''l.OF'''''''''''''''''Unnnnnnnn]]]]]]]]]]]]]]]",
"]]]]]]]]]]]]]nnnnnnnnU''''''''''''''''''''''''''''''''''''''''%...7''''''''''''''''l..OF''''''''''''''''Knnnnnnn]]]]]]]]]]]]]]]]",
"]]]]]]]]]]]]]nnnnnnnnK''''''''''''''''''''''''''''''''''''''''....7''''''''''''''''l...OF'''''''''''''''nnnnnnnn]]]]]]]]]]]]]]]]",
"]]]]]]]]]]]]]]nnnnnnnM''''''''''''''''''''''''''''''''''''''''....7''''''''''''''''l....7''''''''''''''^nnnnnnnn]]]]]]]]]]]]]]]]",
"]]]]]]]]]]]]]]nnnnnnnM^'''''''''''''''''''''''''''''''''''''''....7''''''''''''''''l....k''''''''''''''Innnnnnnn]]]]]]]]]]]]]]]]",
"]]]]]]]]]]]]]]nnnnnnnnI'''''''''''''''''''''''''''''''''''''''....7''''''''''''''''l....l''''''''''''''Mnnnnnnnn]]]]]]]]]]]]]]]]",
"]]]]]]]]]]]]]]nnnnnnnnM'''''''''''''''''''''''''''''''''''''''....7''''''''''''''''l....l'''''''''''''^nnnnnnnn]]]]]]]]]]]]]]]]]",
"]]]]]]]]]]]]]]]nnnnnnnn~'''''''''''''''''''''''''''''''''''''G....7''''''''''''''''7....l'''''''''''''Knnnnnnnn]]]]]]]]]]]]]]]]]",
"]]]]]]]]]]]]]]]nnnnnnnnK'''''''''''''''''''''''''''''''''''''l....7''''''''''''''''7....l'''''''''''''Mnnnnnnnn]]]]]]]]]]]]]]]]]",
"]]]]]]]]]]]]]]]nnnnnnnnn^''''''''''''''''''''''''''''''''''''GO...7''''''''''''''''7....G''''''''''''Unnnnnnnn]]]]]]]]]]]]]]]]]]",
"]]]]]]]]]]]]]]]]nnnnnnnnI'''''''''''''''''''''''''''''''''''''FO..7''''''''''''''''7....'''''''''''''Mnnnnnnnn]]]]]]]]]]]]]]]]]]",
"]]]]]]]]]]]]]]]]nnnnnnnnM^'''''''''''''''''''''''''''''''''''''F%.7''''''''''''''''7....''''''''''``UMnnnnnnn]]]]]]]]]]]]]]]]]]]",
"]]]]]]]]]]]]]]]]]nnnnnnnnI''''''''''''''''''''''''''''''''''''''Q%7''''''''''''''''7....'''''''FllD^Mnnnnnnnn]]]]]]]]]]]]]]]]]]]",
"]]]]]]]]]]]]]]]]]nnnnnnnnn^''''''''''''''''''''''''''''''''''''''Qk''''''''Flllk777=....==.........,nnnnnnnnn]]]]]]]]]]]]]]]]]]]",
"]]]]]]]]]]]]]]]]]]nnnnnnnnM''''''''''''''''''''''''''''''''''''''''g==@.............................-cnnnnnn]]]]]]]]]]]]]]]]]]]]",
"]]]]]]]]]]]]]]]]]]nnnnnnnnnU''''''''''''''''''''''''''''''''''''''''5................................$cnnnnn]]]]]]]]]]]]]]]]]]]]",
"]]]]]]]]]]]]]]]]]]]nnnnnnnnm^''''''''''''''''''''''''''''''''''''''''5................................$cnnn]]]]]]]]]]]]]]]]]]]]]",
"]]]]]]]]]]]]]]]]]]]nnnnnnnnnM^''''''''''''''''''''''''''''''''''''''''5...........=%....5777gllDjaaaanncnnn]]]]]]]]]]]]]]]]]]]]]",
"]]]]]]]]]]]]]]]]]]]]nnnnnnnnMI'''''''''''''''''''''''''''''''''''''''''6577gllF''''l....G''''''^Mnnnnnnnnn]]]]]]]]]]]]]]]]]]]]]]",
"]]]]]]]]]]]]]]]]]]]]nnnnnnnnMnU''''''''''''''''''''''''''''''''''''''''''''''''''''l....'''''''Mnnnnnnnnn..]]]]]]]]]]]]]]]]]]]]]",
"]]]]]]]]]]]]]]]]]]]]]nnnnnnnnnn!'''''''''''''''''''''''''''''''''''''''''''''''''''l....''''''Knnnnnnnnnn...]]]]]]]]]]]]]]]]]]]]",
"]]]]]]]]]]]]]]]]]]]]]]nnnnnnnnnn~''''''''''''''''''''''''''''''''''''''''''''''''''l....'''''Knnnnnnnnnn]....]]]]]]]]]]]]]]]]]]]",
"]]]]]]]]]]]]]]]]]]]]]]nnnnnnnnnnn!'''''''''''''''''''''''''''''''''''''''''''''''''g....''''Innnnnnnnnn]].....]]]]]]]]]]]]]]]]]]",
"]]]]]]]]]]]]]]]]]]]]]]]nnnnnnnnnnn!''''''''''''''''''''''''''''''''''''''''''''''''7....'''Innnnnnnnnn]]].....]]]]]]]]]]]]]]]]]]",
"]]]]]]]]]]]]]]]]]]]]]]]]nnnnnnnnnnnU'''''''''''''''''''''''''''''''''''''''''''''''7....''Mnnnnnnnnnnn]]].....]]]]]]]]]]]]]]]]]]",
"]]]]]]]]]]]]]]]]]]]]]]]]]nnnnnnnnnnnK''''''''''''''''''''''''''''''''''''''''''''''7....^Mnnnnnnnnnnn]]]].....]]]]]]]]]]]]]]]]]]",
"]]]]]]]]]]]]]]]]]]]]]]]]]]nnnnnnnnnnnM^''''''''''''''''''''''''''''''''''''''''''''7....Mnnnnnnnnnnn]]]]].....]]]]]]]]]]]]]]]]]]",
"]]]]]]]]]]]]]]]]]]]]]]]]]]]nnnnnnnnnnnnU'''''''''''''''''''''''''''''''''''''''''''7....nnnnnnnnnnn]]]]]].....]]]]]]]]]]]]]]]]]]",
"]]]]]]]]]]]]]]]]]]]]]]]]]]]]nnnnnnnnnnnnM^'''''''''''''''''''''''''''''''''''''''''=....nnnnnnnnnn]]]]]]].....]]]]]]]]]]]]]]]]]]",
"]]]]]]]]]]]]]]]]]]]]]]]]]]]]]nnnnnnnnnnnMnK^''''''''''''''''''''''''''''''''''''''!*....nnnnnnnnn]]]]]]]].....]]]]]]]]]]]]]]]]]]",
"]]]]]]]]]]]]]]]]]]]]]]]]]]]]]]nnnnnnnnnnnnnnI^''''''''''''''''''''''''''''''''''!MndO...nnnnnnnn]]]]]]]]].....]]]]]]]]]]]]]]]]]]",
"]]]]]]]]]]]]]]]]]]]]]]]]]]]]]]]nnnnnnnnnnnnnMnM~'''''''''''''''''''''''''''''^UMnnnndO..nnnnnn]]]]]]]]]]].....]]]]]]]]]]]]]]]]]]",
"]]]]]]]]]]]]]]]]]]]]]]]]]]]]]]]]nnnnnnnnnnnnnnMnMI^^'''''''''''''''''''''''UMnnnnnnnnc$.nnnnn]]]]]]]]]]]].....]]]]]]]]]]]]]]]]]]",
"]]]]]]]]]]]]]]]]]]]]]]]]]]]]]]]]]]nnnnnnnnnnnnnnnnnnMU~^''''''''''''''^~PMnnnnnnnnnnnnc$nnnn]]]]]]]]]]]]].....]..........]]]]]]]",
"]]]]]]]]]]]]]]]]]]]]]]]]]]]]]]]]]]]nnnnnnnnnnnnnnnnnnnnnMMKIUUUUUUIMMnnnnnnnnnnnnnnnnnncnn]]..............................]]]]]]",
"]]]]]]]]]]]]]]]]]]]]]]]]]]]]]]]]]]]]]nnnnnnnnnnnnnnnnnnnnnnnnnnnnnnnnnnnnnnnnnnnnnnnnnnn;..................................]]]]]",
"]]]]]]]]]]]]]]]]]]]]]]]]]]]]]]]]]]]]]]]nnnnnnnnnnnnnnnnnnnnnnnnnnnnnnnnnnnnnnnnnnnnnnnn]]...................................]]]]",
"]]]]]]]]]]]]]]]]]]]]]]]]]]]]]]]]]]]]]]]]]nnnnnnnnnnnnnnnnnnnnnnnnnnnnnnnnnnnnnnnnnnnn]]]]]...................................]]]",
"]]]]]]]]]]]]]]]]]]]]]]]]]]]]]]]]]]]]]]]]]]]nnnnnnnnnnnnnnnnnnnnnnnnnnnnnnnnnnnnnnnn]]]]]]]]........................]]]]]]]]]]]]]",
"]]]]]]]]]]]]]]]]]]]]]]]]]]]]]]]]]]]]]]]]]]]]]]nnnnnnnnnnnnnnnnnnnnnnnnnnnnnnnnnn]]]]]]]]]]]]......]]]]]]].....]]]]]]]]]]]]]]]]]]",
"]]]]]]]]]]]]]]]]]]]]]]]]]]]]]]]]]]]]]]]]]]]]]]]]]nnnnnnnnnnnnnnnnnnnnnnnnnnnn]]]]]]]]]]]]]]]]]]]]]]]]]]]].....]]]]]]]]]]]]]]]]]]",
"]]]]]]]]]]]]]]]]]]]]]]]]]]]]]]]]]]]]]]]]]]]]]]]]]]]]]nnnnnnnnnnnnnnnnnnnn]]]]]]]]]]]]]]]]]]]]]]]]]]]]]]]].....]]]]]]]]]]]]]]]]]]",
"]]]]]]]]]]]]]]]]]]]]]]]]]]]]]]]]]]]]]]]]]]]]]]]]]]]]]]]]]]]]]]]]]]]]]]]]]]]]]]]]]]]]]]]]]]]]]]]]]]]]]]]]].....]]]]]]]]]]]]]]]]]]",
"]]]]]]]]]]]]]]]]]]]]]]]]]]]]]]]]]]]]]]]]]]]]]]]]]]]]]]]]]]]]]]]]]]]]]]]]]]]]]]]]]]]]]]]]]]]]]]]]]]]]]]]]].....]]]]]]]]]]]]]]]]]]",
"]]]]]]]]]]]]]]]]]]]]]]]]]]]]]]]]]]]]]]]]]]]]]]]]]]]]]]]]]]]]]]]]]]]]]]]]]]]]]]]]]]]]]]]]]]]]]]]]]]]]]]]]].....]]]]]]]]]]]]]]]]]]",
"]]]]]]]]]]]]]]]]]]]]]]]]]]]]]]]]]]]]]]]]]]]]]]]]]]]]]]]]]]]]]]]]]]]]]]]]]]]]]]]]]]]]]]]]]]]]]]]]]]]]]]]]].....]]]]]]]]]]]]]]]]]]",
"]]]]]]]]]]]]]]]]]]]]]]]]]]]]]]]]]]]]]]]]]]]]]]]]]]]]]]]]]]]]]]]]]]]]]]]]]]]]]]]]]]]]]]]]]]]]]]]]]]]]]]]]].....]]]]]]]]]]]]]]]]]]",
"]]]]]]]]]]]]]]]]]]]]]]]]]]]]]]]]]]]]]]]]]]]]]]]]]]]]]]]]]]]]]]]]]]]]]]]]]]]]]]]]]]]]]]]]]]]]]]]]]]]]]]]]].....]]]]]]]]]]]]]]]]]]",
"]]]]]]]]]]]]]]]]]]]]]]]]]]]]]]]]]]]]]]]]]]]]]]]]]]]]]]]]]]]]]]]]]]]]]]]]]]]]]]]]]]]]]]]]]]]]]]]]]]]]]]]]......]]]]]]]]]]]]]]]]]]",
"]]]]]]]]]]]]]]]]]]]]]]]]]]]]]]]]]]]]]]]]]]]]]]]]]]]]]]]]]]]]]]]]]]]]]]]]]]]]]]]]]]]]]]]]]]]]]]]]]]]]]]]]......]]]]]]]]]]]]]]]]]]",
"]]]]]]]]]]]]]]]]]]]]]]]]]]]]]]]]]]]]]]]]]]]]]]]]]]]]]]]]]]]]]]]]]]]]]]]]]]]]]]]]]]]]]]]]]]]]]]]]]]]]]]]]......]]]]]]]]]]]]]]]]]]",
"]]]]]]]]]]]]]]]]]]]]]]]]]]]]]]]]]]]]]]]]]]]]]]]]]]]]]]]]]]]]]]]]]]]]]]]]]]]]]]]]]]]]]]]]]]]]]]]]]]]]]]]]].....]]]]]]]]]]]]]]]]]]",
"]]]]]]]]]]]]]]]]]]]]]]]]]]]]]]]]]]]]]]]]]]]]]]]]]]]]]]]]]]]]]]]]]]]]]]]]]]]]]]]]]]]]]]]]]]]]]]]]]]]]]]]]]]....]]]]]]]]]]]]]]]]]]",
"]]]]]]]]]]]]]]]]]]]]]]]]]]]]]]]]]]]]]]]]]]]]]]]]]]]]]]]]]]]]]]]]]]]]]]]]]]]]]]]]]]]]]]]]]]]]]]]]]]]]]]]]]]]...]]]]]]]]]]]]]]]]]]",
"]]]]]]]]]]]]]]]]]]]]]]]]]]]]]]]]]]]]]]]]]]]]]]]]]]]]]]]]]]]]]]]]]]]]]]]]]]]]]]]]]]]]]]]]]]]]]]]]]]]]]]]]]]]]..]]]]]]]]]]]]]]]]]]",
"]]]]]]]]]]]]]]]]]]]]]]]]]]]]]]]]]]]]]]]]]]]]]]]]]]]]]]]]]]]]]]]]]]]]]]]]]]]]]]]]]]]]]]]]]]]]]]]]]]]]]]]]]]]]]]]]]]]]]]]]]]]]]]]]",
"]]]]]]]]]]]]]]]]]]]]]]]]]]]]]]]]]]]]]]]]]]]]]]]]]]]]]]]]]]]]]]]]]]]]]]]]]]]]]]]]]]]]]]]]]]]]]]]]]]]]]]]]]]]]]]]]]]]]]]]]]]]]]]]]"
};
