/* XPM */
static const char *iconsmall[] = {
/* columns rows colors chars-per-pixel */
"16 16 131 2",
"   c #D30000",
".  c #D30707",
"X  c #D30808",
"o  c #D30D0D",
"O  c #D30F0F",
"+  c #D41A1A",
"@  c #D42020",
"#  c #DF3D3D",
"$  c #D44141",
"%  c #D54747",
"&  c #D64646",
"*  c #D64848",
"=  c #D64E4E",
"-  c #DB4B4B",
";  c #D65555",
":  c #C17256",
">  c #D66A6A",
",  c #D76A6A",
"<  c #E04949",
"1  c #E15050",
"2  c #E25857",
"3  c #E45D5D",
"4  c #E36464",
"5  c #E66868",
"6  c #E46D6D",
"7  c #E77575",
"8  c #E87979",
"9  c #B6E5B8",
"0  c #B6ECB7",
"q  c #BCE3BD",
"w  c #BEE2BF",
"e  c #BFE0C0",
"r  c #B6F6C0",
"t  c #D79090",
"y  c #DB9999",
"u  c #D89F9F",
"i  c #DCA8A8",
"p  c #DDAEAE",
"a  c #DAB4B4",
"s  c #E59999",
"d  c #EB9091",
"f  c #EB9696",
"g  c #EC9393",
"h  c #EF9396",
"j  c #EF9494",
"k  c #EE9A9A",
"l  c #EF9D9D",
"z  c #EE9F9F",
"x  c #EDB3B3",
"c  c #F2A3A6",
"v  c #F0AAAA",
"b  c #F1ADAD",
"n  c #F1AFAF",
"m  c #F3B6B6",
"M  c #F4BFBF",
"N  c #D6C5AD",
"B  c #CFDECF",
"V  c #CFDED0",
"C  c #DACDCD",
"Z  c #DBCECE",
"A  c #D0DED0",
"S  c #DBD2D2",
"D  c #DBD3D3",
"F  c gray85",
"G  c #D9DADA",
"H  c #DADADA",
"J  c #DADBDB",
"K  c gray86",
"L  c #D9DDDD",
"P  c #DADCDC",
"I  c #DBDCDC",
"U  c #DBDDDD",
"Y  c #DBDEDE",
"T  c #DBDFDF",
"R  c #DFDBDB",
"E  c #DCDBDC",
"W  c #DDDBDC",
"Q  c #DDDBDD",
"!  c #DEDBDE",
"~  c gainsboro",
"^  c gray87",
"/  c #C2F0C3",
"(  c #CEF3D0",
")  c #DBE0E0",
"_  c #DBE1E1",
"`  c #DBE2E2",
"'  c #DBE3E3",
"]  c #DBE4E4",
"[  c #DBE5E5",
"{  c #F4C2C2",
"}  c #F5C4C4",
"|  c #F6C4C4",
" . c #F6CACA",
".. c #F6CDCD",
"X. c #FBCED1",
"o. c #F7D1D1",
"O. c #F6DCDC",
"+. c #F9DDDD",
"@. c #F9DFDF",
"#. c #FADEDE",
"$. c #E8EDDE",
"%. c gray89",
"&. c #E4E1E1",
"*. c #E4E4E4",
"=. c gray90",
"-. c #E4E6E6",
";. c #E5E6E6",
":. c gray91",
">. c #EAEAEA",
",. c gray92",
"<. c #EBECEC",
"1. c #ECECEC",
"2. c gray93",
"3. c #EDF5F5",
"4. c #FBE5E5",
"5. c #F3F3F3",
"6. c gray96",
"7. c #F5FDF6",
"8. c #FDF2F2",
"9. c #FEF2F2",
"0. c #FEF6F7",
"q. c #F8F7F8",
"w. c gray98",
"e. c #FBFBFB",
"r. c #FAFFFA",
"t. c #FFFCFF",
"y. c #FEFFFF",
"u. c #FFFEFE",
"i. c #FFFEFF",
"p. c gray100",
"a. c None",
/* pixels */
"a.a.    a.a.a.a.a.a.a.a.a.a.a.a.",
"a.      a.T L K K K ! a.a.a.a.a.",
"      * [ L &.<.;.%.! B a.a.a.a.",
"    + u y - 8 p.p.p.6.9 w a.a.a.",
"a.X $ s j # o.| 8.p./ / %.K a.a.",
"a.C R O.1 ..b M p.( 0 r.q.J K a.",
"a.L 3.| { k 7 X.N r 7.p.p.*.K a.",
"a.K 5.p.#.8 0.c : $.p.p.p.,.F a.",
"a.K 5.p.p.8.g 2 - h @.p.p.2.K a.",
"a.K ,.p.p.p.p.v d p.l m p.*.K a.",
"a.K K p.p.p.p.#.b  .4 5 x ) ' a.",
"a.a.K ;.p.p.p.p.4.l 3 6 p t = a.",
"a.a.K K *.e.p.p.p.p.f i S @   a.",
"a.a.a.K F K *.,.;.*.D > o       ",
"a.a.a.a.a.K K K ! J ) %         ",
"a.a.a.a.a.a.a.a.a.a.a.a.a.    a."
};
