<svg viewBox="0 0 48 48" xmlns="http://www.w3.org/2000/svg"><path d="m31.33 8h-3.33v-4h-8v4h-3.33c-1.48 0-2.67 1.18-2.67 2.66v30.67c0 1.47 1.19 2.67 2.67 2.67h14.67c1.47 0 2.66-1.19 2.66-2.67v-30.67c-0.01-1.48-1.19-2.6556-2.67-2.66z" fill="#5f5f5f"/><path d="m28.6 25.37s-0.76 0.84-1.34 1.42c-0.97 0.97-1.66 2.29-1.66 3.2h-3.2c0-1.66 0.92-3.05 1.86-3.99l1.86-1.89c0.54-0.54 0.88-1.29 0.88-2.12 0-1.66-1.34-3-3-3s-3 1.34-3 3h-3c0-3.31 2.69-6 6-6s6 2.69 6 6c0 1.32-0.53 2.52-1.4 3.38zm-2.7 10.52h-3.8v-3.8h3.8z" fill="#b4b4b4"/></svg>
