/* XPM */
static const char * knob27_xpm[] = {
"32 32 86 1",
" 	c None",
".	c #E1E1E1",
"+	c #E0E0E0",
"@	c #C4C4C4",
"#	c #ADADAD",
"$	c #A0A0A0",
"%	c #A8A8A8",
"&	c #AEAEAE",
"*	c #B0B0B0",
"=	c #B3B3B3",
"-	c #B5B5B5",
";	c #C6C6C6",
">	c #DADADA",
",	c #999999",
"'	c #B4B4B4",
")	c #B2B2B2",
"!	c #B7B7B7",
"~	c #D2D2D2",
"{	c #DBDBDB",
"]	c #9A9A9A",
"^	c #D1D1D1",
"/	c #B1B1B1",
"(	c #BABABA",
"_	c #D8D8D8",
":	c #9D9D9D",
"<	c #9E9E9E",
"[	c #A3A3A3",
"}	c #BDBDBD",
"|	c #A9A9A9",
"1	c #D9D9D9",
"2	c #9B9B9B",
"3	c #9F9F9F",
"4	c #E6E6E6",
"5	c #F6F6F6",
"6	c #C1C1C1",
"7	c #D0D0D0",
"8	c #D4D4D4",
"9	c #D7D7D7",
"0	c #A1A1A1",
"a	c #BEBEBE",
"b	c #F4F4F4",
"c	c #C2C2C2",
"d	c #DFDFDF",
"e	c #DDDDDD",
"f	c #A2A2A2",
"g	c #B6B6B6",
"h	c #5D5D5D",
"i	c #8E8E8E",
"j	c #E9E9E9",
"k	c #E7E7E7",
"l	c #868686",
"m	c #5A5A5A",
"n	c #DEDEDE",
"o	c #CDCDCD",
"p	c #727272",
"q	c #C3C3C3",
"r	c #F5F5F5",
"s	c #EFEFEF",
"t	c #C0C0C0",
"u	c #C9C9C9",
"v	c #ECECEC",
"w	c #9C9C9C",
"x	c #E8E8E8",
"y	c #ACACAC",
"z	c #C5C5C5",
"A	c #989898",
"B	c #A6A6A6",
"C	c #AAAAAA",
"D	c #BCBCBC",
"E	c #878787",
"F	c #AFAFAF",
"G	c #BFBFBF",
"H	c #BBBBBB",
"I	c #B8B8B8",
"J	c #CECECE",
"K	c #909090",
"L	c #EDEDED",
"M	c #C8C8C8",
"N	c #CCCCCC",
"O	c #D3D3D3",
"P	c #E4E4E4",
"Q	c #D6D6D6",
"R	c #F0F0F0",
"S	c #CBCBCB",
"T	c #F1F1F1",
"U	c #B9B9B9",
"..........+@#$%&**=-;+..........",
"........>#,%')!~~~~~@#'{........",
".......=]=''''*~~~~~~~^/(+......",
"....._:&''''<[%(}('(^~~~|$1.....",
"....~2'''*3(455555546'7()']8....",
"...9]'''0ab5555555555bc<''']1...",
"..+:'''<d55555555555555ef'''<...",
"..ghi'fj5555555555555555k3''#'..",
".9'^lm_555555555555555555n0'']1.",
".)^~o&pq555555555555555555}*'=#.",
"d#~~'rr:ls5555555555555555b3'',+",
"tu~7@555>p@5555555555555555(='|6",
"'~~-v5555rwls55555555555555xw''y",
")~~g55555551pz55555555555555ABC3",
"&~~D55555555r2Es555555555555g~~&",
"F~~G55555555551p+55555555555H~~#",
"#~~}55555555555rb55555555555a~~F",
"&~~(555555555555555555555555H~~F",
"*~~I555555555555555555555555g~~)",
")JHKs5555555555555555555555L-~~'",
"I2/)65555555555555555555555@7~ut",
"nA''[555555555555555555555r'~~&d",
".%''yM55555555555555555555uN~~/.",
".O:''3x555555555555555555P:I^gQ.",
"..y/''3R5555555555555555Lf'=C'..",
"..d2''=[45555555555555543''':d..",
"...~w'''<o555555555555M3'''w8...",
"....Sw'''uguT555555Rc[y'''wo....",
".....~:C7~~o=!}6}Hf,/'''/28.....",
"......n*U~~~~~~~~~D/''':y+......",
"........~/Fo~~~~~~7fFA%~........",
"..........eD=/&Fy#*$In.........."};
