/* XPM */
static const char * knob8_xpm[] = {
"32 32 89 1",
" 	c None",
".	c #E1E1E1",
"+	c #E0E0E0",
"@	c #C3C3C3",
"#	c #B4B4B4",
"$	c #B2B2B2",
"%	c #B3B3B3",
"&	c #AFAFAF",
"*	c #959595",
"=	c #A1A1A1",
"-	c #A4A4A4",
";	c #ABABAB",
">	c #BDBDBD",
",	c #DFDFDF",
"'	c #DADADA",
")	c #AEAEAE",
"!	c #C7C7C7",
"~	c #D2D2D2",
"{	c #CFCFCF",
"]	c #A8A8A8",
"^	c #999999",
"/	c #D4D4D4",
"(	c #B8B8B8",
"_	c #D1D1D1",
":	c #9C9C9C",
"<	c #D9D9D9",
"[	c #A6A6A6",
"}	c #C9C9C9",
"|	c #B5B5B5",
"1	c #B6B6B6",
"2	c #BEBEBE",
"3	c #BFBFBF",
"4	c #9A9A9A",
"5	c #979797",
"6	c #D0D0D0",
"7	c #D5D5D5",
"8	c #AAAAAA",
"9	c #CDCDCD",
"0	c #B1B1B1",
"a	c #C2C2C2",
"b	c #EBEBEB",
"c	c #F6F6F6",
"d	c #F0F0F0",
"e	c #A3A3A3",
"f	c #ACACAC",
"g	c #A7A7A7",
"h	c #A0A0A0",
"i	c #CCCCCC",
"j	c #929292",
"k	c #B7B7B7",
"l	c #F5F5F5",
"m	c #C8C8C8",
"n	c #9D9D9D",
"o	c #C0C0C0",
"p	c #B0B0B0",
"q	c #ADADAD",
"r	c #DCDCDC",
"s	c #E6E6E6",
"t	c #9F9F9F",
"u	c #DEDEDE",
"v	c #E5E5E5",
"w	c #EFEFEF",
"x	c #DDDDDD",
"y	c #989898",
"z	c #E8E8E8",
"A	c #BABABA",
"B	c #CECECE",
"C	c #C6C6C6",
"D	c #9E9E9E",
"E	c #F3F3F3",
"F	c #B9B9B9",
"G	c #CBCBCB",
"H	c #E3E3E3",
"I	c #F4F4F4",
"J	c #A5A5A5",
"K	c #C1C1C1",
"L	c #C4C4C4",
"M	c #878787",
"N	c #858585",
"O	c #646464",
"P	c #616161",
"Q	c #5A5A5A",
"R	c #BCBCBC",
"S	c #BBBBBB",
"T	c #DBDBDB",
"U	c #A2A2A2",
"V	c #A9A9A9",
"W	c #939393",
"X	c #9B9B9B",
"..........+@#$%&*=-;>,..........",
"........'$)!~~~{]###&^]/........",
".......(&_~~~~~{]######:;,......",
".....<[}~~~_|123#$]4$###$56.....",
"....78~~~90abccccccd@ef##ghi....",
"...<j$~~kalcccccccccccmn[o~p6...",
"...:#qp$rccccccccccccccst~~~gu..",
"..1f##5vccccccccccccccccw)~~6p..",
".xy##h'ccccccccccccccccccz0~~k6.",
".&$#0AccccccccccccccccccccBC~~p.",
".n##DEccccccccccccccccccccc#~~0r",
"}[##FccccccccccccccccccccccG9~{A",
"&##=HccccccccccccccccccccccIp~~%",
"g##=ccccccccccccccccccccccccF~~0",
"J##qccccccccccccccccccccccccK~~$",
"D$$pccccccccccccEEEEEEEEEEEEo{{q",
"]LL(ccccccccccclMNNNNNNNNNNNOPPQ",
"%~~Rcccccccccccccccccccccccck##D",
"$~~#cccccccccccccccccccccccc;##=",
"#~~SHccccccccccccccccccccccI4##]",
"}K~~occccccccccccccccccccccm&#$k",
".)~~0EcccccccccccccccccccccJ##4r",
".#6~{occcccccccccccccccccci8##[.",
".xf~~FTcccccccccccccccccczn##t6.",
"..Am~~Usccccccccccccccccwt##$V..",
"...g_agtTccccccccccccccsy###5u..",
"...<D-##h>lccccccccccci$!e#:6...",
"..../4###pt>bccccccd!$m~~aWG....",
".....<Xq###%:-01R3(0{~~~6[6.....",
".......#4%#####$L~~~~~~%$,......",
"........'fX;###$L~~~i)0/........",
"..........+aqJUXg%$#2,.........."};
