/* XPM */
static const char * knob1_xpm[] = {
"32 32 87 1",
" 	c None",
".	c #E1E1E1",
"+	c #DFDFDF",
"@	c #BFBFBF",
"#	c #B4B4B4",
"$	c #B2B2B2",
"%	c #B1B1B1",
"&	c #AFAFAF",
"*	c #B0B0B0",
"=	c #8F8F8F",
"-	c #C0C0C0",
";	c #D5D5D5",
">	c #AEAEAE",
",	c #C9C9C9",
"'	c #D2D2D2",
")	c #BBBBBB",
"!	c #717171",
"~	c #9A9A9A",
"{	c #A9A9A9",
"]	c #D6D6D6",
"^	c #E0E0E0",
"/	c #B3B3B3",
"(	c #919191",
"_	c #949494",
":	c #9D9D9D",
"<	c #979797",
"[	c #CDCDCD",
"}	c #D0D0D0",
"|	c #B6B6B6",
"1	c #BCBCBC",
"2	c #C1C1C1",
"3	c #BDBDBD",
"4	c #646464",
"5	c #999999",
"6	c #9B9B9B",
"7	c #D4D4D4",
"8	c #989898",
"9	c #A7A7A7",
"0	c #C4C4C4",
"a	c #CACACA",
"b	c #EEEEEE",
"c	c #F6F6F6",
"d	c #7F7F7F",
"e	c #C2C2C2",
"f	c #A1A1A1",
"g	c #ADADAD",
"h	c #9C9C9C",
"i	c #CFCFCF",
"j	c #C6C6C6",
"k	c #F5F5F5",
"l	c #808080",
"m	c #A0A0A0",
"n	c #DCDCDC",
"o	c #E4E4E4",
"p	c #9F9F9F",
"q	c #EBEBEB",
"r	c #ACACAC",
"s	c #ECECEC",
"t	c #D7D7D7",
"u	c #E2E2E2",
"v	c #858585",
"w	c #F0F0F0",
"x	c #A2A2A2",
"y	c #ABABAB",
"z	c #C3C3C3",
"A	c #CBCBCB",
"B	c #DDDDDD",
"C	c #BEBEBE",
"D	c #AAAAAA",
"E	c #C8C8C8",
"F	c #B8B8B8",
"G	c #A8A8A8",
"H	c #868686",
"I	c #EFEFEF",
"J	c #EAEAEA",
"K	c #B5B5B5",
"L	c #BABABA",
"M	c #D1D1D1",
"N	c #C5C5C5",
"O	c #929292",
"P	c #E3E3E3",
"Q	c #A6A6A6",
"R	c #EDEDED",
"S	c #A5A5A5",
"T	c #A4A4A4",
"U	c #B7B7B7",
"V	c #D8D8D8",
"..........+@#$%&*$$=-+..........",
"........;*>,'''''')!>~{]........",
"......^/$'''''''''(_###:>^......",
".....;<['''}#|1@2345/###*67.....",
"....}890'a&0bcccccdbefg###hi....",
"...;6##f|jkccccccklccc0m###57...",
"..^h###6+ccccccccn~ccccop###6^..",
"..&*##pqcccccccccracccccs:##*g..",
".th##fuccccccccccvwccccccuf#xh7.",
".y##>ecccccccccccdcccccccczfA'&.",
"^6##mkccccccccccklcccccccck&''>+",
"eg#/2cccccccccccB5ccccccccc0}'aC",
"D##:scccccccccccgEcccccccccb#''#",
"&CFGccccccccccccHIcccccccccc|''$",
"$''3ccccccccccccdccccccccccc1''%",
"*''-cccccccccccklccccccccccc@''&",
"&''CccccccccccccJccccccccccc2''*",
"%''1cccccccccccccccccccccccc3''$",
"$''KccccccccccccccccccccccccDLe$",
"#''Ksccccccccccccccccccccccbh#$G",
"2E'Mzcccccccccccccccccccccce/#>-",
"^>''&kcccccccccccccccccccckf##~+",
".*M'ANcccccccccccccccccccc0g##{.",
".]%'2O^ccccccccccccccccccPm##:].",
"..#QD#:Jccccccccccccccccqp##*&..",
"..^6###p.cccccccccccccc.:###6^..",
"...]8###fekcccccccccckLf###6;...",
"....M6###>m-sccccccRz&NS##8}....",
".....]h&###/:93-C1KKM''CT6;.....",
"......^*h####U''''''''M$D^......",
"........Vy6r#C''''''E>*]........",
"..........^ey>/*&%$#-^.........."};
