/* XPM */
static const char * knob3_xpm[] = {
"32 32 89 1",
" 	c None",
".	c #E1E1E1",
"+	c #DFDFDF",
"@	c #BABABA",
"#	c #B2B2B2",
"$	c #B0B0B0",
"%	c #AEAEAE",
"&	c #ADADAD",
"*	c #AFAFAF",
"=	c #B4B4B4",
"-	c #BEBEBE",
";	c #D6D6D6",
">	c #AAAAAA",
",	c #989898",
"'	c #9D9D9D",
")	c #C7C7C7",
"!	c #D2D2D2",
"~	c #CBCBCB",
"{	c #B1B1B1",
"]	c #D4D4D4",
"^	c #E0E0E0",
"/	c #9B9B9B",
"(	c #B7B7B7",
"_	c #B3B3B3",
":	c #9C9C9C",
"<	c #8F8F8F",
"[	c #B8B8B8",
"}	c #BCBCBC",
"|	c #BFBFBF",
"1	c #B6B6B6",
"2	c #CFCFCF",
"3	c #636363",
"4	c #D3D3D3",
"5	c #D1D1D1",
"6	c #A1A1A1",
"7	c #ECECEC",
"8	c #F6F6F6",
"9	c #EFEFEF",
"0	c #C6C6C6",
"a	c #B5B5B5",
"b	c #949494",
"c	c #838383",
"d	c #CDCDCD",
"e	c #A0A0A0",
"f	c #C2C2C2",
"g	c #F5F5F5",
"h	c #525252",
"i	c #9E9E9E",
"j	c #9F9F9F",
"k	c #E2E2E2",
"l	c #787878",
"m	c #A2A2A2",
"n	c #A8A8A8",
"o	c #EBEBEB",
"p	c #ACACAC",
"q	c #EEEEEE",
"r	c #D8D8D8",
"s	c #E4E4E4",
"t	c #7C7C7C",
"u	c #E7E7E7",
"v	c #CECECE",
"w	c #C5C5C5",
"x	c #E8E8E8",
"y	c #A9A9A9",
"z	c #ABABAB",
"A	c #A3A3A3",
"B	c #DEDEDE",
"C	c #C3C3C3",
"D	c #C1C1C1",
"E	c #EAEAEA",
"F	c #777777",
"G	c #E9E9E9",
"H	c #9A9A9A",
"I	c #E3E3E3",
"J	c #7D7D7D",
"K	c #A5A5A5",
"L	c #BDBDBD",
"M	c #C0C0C0",
"N	c #D0D0D0",
"O	c #A6A6A6",
"P	c #BBBBBB",
"Q	c #999999",
"R	c #F4F4F4",
"S	c #C9C9C9",
"T	c #D9D9D9",
"U	c #D5D5D5",
"V	c #EDEDED",
"W	c #C4C4C4",
"X	c #A7A7A7",
"..........+@#$%&*%#=-+..........",
"........;>,')!!!!!!!~%{]........",
"......^$/===(!!!!!!!!!!(_+......",
".....;:*===#<[@}|}1=2!!!3,4.....",
"....5/===%6-788888890a~bc=:d....",
"...;/===efg88888888888@h===:4...",
"..^i===jk8888888888888l;m===/+..",
"..(n_=mo8888888888888p_8qj=={p..",
".r_51i^8888888888888st888uj=='4.",
"._5!vw88888888888888lx8888)p==y.",
"^&!!=g8888888888888z=888888A==,B",
"C)!5C8888888888888st8888888D{=%@",
"a!!(E8888888888888FG88888889H==y",
"#!!=8888888888888>a888888888n=#:",
"*!!@888888888888IJ8888888888%$1K",
"$!!-888888888888FG8888888888L!!&",
"&!!@888888888888B88888888888M!!*",
"*!![888888888888888888888888L!!%",
"{N-'8888888888888888888888881!!#",
"O6*'u88888888888888888888889=!!=",
"fy=_P888888888888888888888802!~-",
"^Q==jR88888888888888888888ga!!%+",
".p_=$|88888888888888888888S~!!{.",
".TH==6+888888888888888888Ii[51U.",
".._%==jG8888888888888888Vm=_>=..",
"...'===m+88888888888888sj==='+..",
"...r/===iWR8888888888gCe===/U...",
"....4/===v=CE888888oL6%===/2....",
".....rjXN!!5(aP-P[,/_===$:U.....",
"......^(_5!!!!!!!!n====/*^......",
"........r_&)!!!!!!p=p,>;........",
"..........^C=#*$&%ez|^.........."};
