/* XPM */
static const char * knob9_xpm[] = {
"32 32 93 2",
"  	c None",
". 	c #E1E1E1",
"+ 	c #C3C3C3",
"@ 	c #B4B4B4",
"# 	c #B2B2B2",
"$ 	c #B1B1B1",
"% 	c #AFAFAF",
"& 	c #B0B0B0",
"* 	c #A7A7A7",
"= 	c #BFBFBF",
"- 	c #DFDFDF",
"; 	c #D9D9D9",
"> 	c #AEAEAE",
", 	c #C5C5C5",
"' 	c #D2D2D2",
") 	c #9A9A9A",
"! 	c #A8A8A8",
"~ 	c #D4D4D4",
"{ 	c #B7B7B7",
"] 	c #D0D0D0",
"^ 	c #BABABA",
"/ 	c #9E9E9E",
"( 	c #ABABAB",
"_ 	c #DADADA",
": 	c #A1A1A1",
"< 	c #D1D1D1",
"[ 	c #B5B5B5",
"} 	c #BBBBBB",
"| 	c #BDBDBD",
"1 	c #C0C0C0",
"2 	c #AAAAAA",
"3 	c #9D9D9D",
"4 	c #9B9B9B",
"5 	c #D5D5D5",
"6 	c #979797",
"7 	c #ACACAC",
"8 	c #CDCDCD",
"9 	c #C1C1C1",
"0 	c #E9E9E9",
"a 	c #F6F6F6",
"b 	c #EFEFEF",
"c 	c #C4C4C4",
"d 	c #A2A2A2",
"e 	c #9C9C9C",
"f 	c #CBCBCB",
"g 	c #DBDBDB",
"h 	c #929292",
"i 	c #F3F3F3",
"j 	c #C8C8C8",
"k 	c #A0A0A0",
"l 	c #9F9F9F",
"m 	c #B3B3B3",
"n 	c #E7E7E7",
"o 	c #A9A9A9",
"p 	c #949494",
"q 	c #DDDDDD",
"r 	c #E4E4E4",
"s 	c #F0F0F0",
"t 	c #C2C2C2",
"u 	c #DCDCDC",
"v 	c #B9B9B9",
"w 	c #CECECE",
"x 	c #CFCFCF",
"y 	c #F2F2F2",
"z 	c #A5A5A5",
"A 	c #CCCCCC",
"B 	c #B8B8B8",
"C 	c #A4A4A4",
"D 	c #E0E0E0",
"E 	c #BEBEBE",
"F 	c #F5F5F5",
"G 	c #818181",
"H 	c #7F7F7F",
"I 	c #848484",
"J 	c #F4F4F4",
"K 	c #F1F1F1",
"L 	c #D8D8D8",
"M 	c #656565",
"N 	c #8E8E8E",
"O 	c #BCBCBC",
"P 	c #E2E2E2",
"Q 	c #999999",
"R 	c #747474",
"S 	c #858585",
"T 	c #A6A6A6",
"U 	c #ADADAD",
"V 	c #EAEAEA",
"W 	c #E5E5E5",
"X 	c #DEDEDE",
"Y 	c #C9C9C9",
"Z 	c #EBEBEB",
"` 	c #C7C7C7",
" .	c #CACACA",
". . . . . . . . . . . + @ # $ % & # # * = - . . . . . . . . . . ",
". . . . . . . . ; $ > , ' ' ' ' ' ' + $ % ) ! ~ . . . . . . . . ",
". . . . . . . { % ] ' ' ' ' ' ' ' ' ^ @ @ @ @ / ( - . . . . . . ",
". . . . . _ / : ' ' ' < { [ } | 1 | 2 3 # @ @ @ # 4 < . . . . . ",
". . . . 5 6 @ 7 | 8 % 9 0 a a a a a a b c d 7 @ @ @ e f . . . . ",
". . . g ) @ @ @ h 9 i a a a a a a a a a a a j k @ @ @ ) ] . . . ",
". . . l m @ @ 3 _ a a a a a a a a a a a a a a n k m @ o p q . . ",
". . { 7 @ @ k r a a a a a a a a a a a a a a a a s e : t ] % . . ",
". u 4 @ @ d _ a a a a a a a a a a a a a a a a a a n $ ' ' v w . ",
". % # @ $ v a a a a a a a a a a a a a a a a a a a a x c ' ' > . ",
". 3 @ @ 3 y a a a a a a a a a a a a a a a a a a a a a $ ' ' $ u ",
"8 z @ @ ^ a a a a a a a a a a a a a a a a a a a a a a f A ' x B ",
"% m @ C D a a a a a a a a a a a a a a a a a a a a a a i $ ' ' m ",
"& E B d a a a a a a a a a a a a a a a a a a a a a a a a v ' ' & ",
"@ ' ' ^ a a a a a a a a a a a a a a a a a a a a a a a a = ' ' % ",
"$ ' ' | a a a a a a a a a a a a F a a a a a a a a a a a 9 ' ' > ",
"& ' ' } a a a a a a a a a a a y G H I o ; J a a a a a a c ' ' % ",
"# ' ' v a a a a a a a a a a a a a a K A e G H I ! L J a 1 ' ' # ",
"m ' ' m a a a a a a a a a a a a a a a a a a a K 8 3 G H M N { & ",
"[ ' ' O P a a a a a a a a a a a a a a a a a a a a a a J Q 6 R S ",
"f = ' ' = a a a a a a a a a a a a a a a a a a a a a a f % @ # v ",
". > ' ' > y a a a a a a a a a a a a a a a a a a a a a z @ @ 4 g ",
". m ] ' A & a a a a a a a a a a a a a a a a a a a a 8 o @ @ T . ",
". u U 9 z d _ a a a a a a a a a a a a a a a a a a V l @ @ : w . ",
". . m / @ @ 3 W a a a a a a a a a a a a a a a a s k @ @ m ! . . ",
". . . / m @ @ l X a a a a a a a a a a a a a a n 3 m @ @ ) q . . ",
". . . _ 6 @ @ @ : E F a a a a a a a a a a a Y k @ @ @ 3 x . . . ",
". . . . 5 ) @ @ @ % l = Z a a a a a a K ` & : @ @ @ )  .. . . . ",
". . . . . ; 3 U @ @ @ m 3 * | 9 = | { # x ' w d # ) x . . . . . ",
". . . . . . . m e m @ @ @ { ' ' ' ' ' ' ' ' ' k o X . . . . . . ",
". . . . . . . . ; ( 4 7 @ E ' ' ' ' ' ' A % % < . . . . . . . . ",
". . . . . . . . . . D + 7 > m & % $ $ @ O X . . . . . . . . . . "};
