/* XPM */
static const char * knob6_xpm[] = {
"32 32 97 2",
"  	c None",
". 	c #E1E1E1",
"+ 	c #E0E0E0",
"@ 	c #C2C2C2",
"# 	c #ADADAD",
"$ 	c #A4A4A4",
"% 	c #9F9F9F",
"& 	c #9B9B9B",
"* 	c #9D9D9D",
"= 	c #A3A3A3",
"- 	c #A9A9A9",
"; 	c #B9B9B9",
"> 	c #DFDFDF",
", 	c #DADADA",
"' 	c #B3B3B3",
") 	c #959595",
"! 	c #ACACAC",
"~ 	c #B4B4B4",
"{ 	c #9C9C9C",
"] 	c #B0B0B0",
"^ 	c #D2D2D2",
"/ 	c #B5B5B5",
"( 	c #D1D1D1",
"_ 	c #AEAEAE",
": 	c #AFAFAF",
"< 	c #D8D8D8",
"[ 	c #AAAAAA",
"} 	c #CBCBCB",
"| 	c #BFBFBF",
"1 	c #A0A0A0",
"2 	c #A6A6A6",
"3 	c #B6B6B6",
"4 	c #B7B7B7",
"5 	c #B1B1B1",
"6 	c #A5A5A5",
"7 	c #8F8F8F",
"8 	c #BDBDBD",
"9 	c #CFCFCF",
"0 	c #D3D3D3",
"a 	c #CCCCCC",
"b 	c #C0C0C0",
"c 	c #EAEAEA",
"d 	c #F6F6F6",
"e 	c #EFEFEF",
"f 	c #C7C7C7",
"g 	c #B2B2B2",
"h 	c #C8C8C8",
"i 	c #D9D9D9",
"j 	c #ABABAB",
"k 	c #B8B8B8",
"l 	c #F5F5F5",
"m 	c #E7E7E7",
"n 	c #DDDDDD",
"o 	c #CACACA",
"p 	c #E9E9E9",
"q 	c #F0F0F0",
"r 	c #E8E8E8",
"s 	c #CECECE",
"t 	c #BEBEBE",
"u 	c #8E8E8E",
"v 	c #F4F4F4",
"w 	c #696969",
"x 	c #626262",
"y 	c #DEDEDE",
"z 	c #C4C4C4",
"A 	c #A8A8A8",
"B 	c #636363",
"C 	c #727272",
"D 	c #BABABA",
"E 	c #E4E4E4",
"F 	c #868686",
"G 	c #7E7E7E",
"H 	c #C9C9C9",
"I 	c #F1F1F1",
"J 	c #9E9E9E",
"K 	c #A7A7A7",
"L 	c #797979",
"M 	c #949494",
"N 	c #A1A1A1",
"O 	c #E5E5E5",
"P 	c #919191",
"Q 	c #7A7A7A",
"R 	c #C6C6C6",
"S 	c #7C7C7C",
"T 	c #898989",
"U 	c #999999",
"V 	c #A2A2A2",
"W 	c #BBBBBB",
"X 	c #F3F3F3",
"Y 	c #9A9A9A",
"Z 	c #989898",
"` 	c #D0D0D0",
" .	c #C3C3C3",
"..	c #D5D5D5",
"+.	c #CDCDCD",
"@.	c #EDEDED",
"#.	c #BCBCBC",
". . . . . . . . . . + @ # $ % & & * = - ; > . . . . . . . . . . ",
". . . . . . . . , ' ) ! ~ ~ ~ ~ ~ ~ ~ ~ { ! ] ^ . . . . . . . . ",
". . . . . . + / ' ( ] ~ ~ ~ ~ ~ ~ ~ ~ ~ _ ^ ^ / : > . . . . . . ",
". . . . . < [ } ^ ^ | ] 1 2 : 3 4 5 6 7 8 ^ ^ ^ 9 - ^ . . . . . ",
". . . . 0 ! ^ ^ ^ a ' b c d d d d d d e f g h ^ ^ ^ ] a . . . . ",
". . . i j ^ ^ ^ k f l d d d d d d d d d d d h / ^ ^ ^ 5 ( . . . ",
". . . - ^ ^ ^ g + d d d d d d d d d d d d d d m : ( ^ ^ j n . . ",
". . 3 o ^ ^ g p d d d d d d d d d d d d d d d d q ] ^ ^ 9 5 . . ",
". , _ ^ ^ ; > d d d d d d d d d d d d d d d d d d r ~ ^ ^ ; 0 . ",
". g ( ^ s t d d d d d d d d d d d d d d d d d d d d 9 h ^ ^ 5 . ",
". u : h ] v d d d d d d d d d d d d d d d d d d d d d / _ w x y ",
"z A ~ 6 / d d d d d d d d d d d d d d d d d d d d q $ B C : ] D ",
"# ~ ~ % E d d d d d d d d d d d d d d d d d d , F G H I J ~ ~ - ",
"K ~ ~ % d d d d d d d d d d d d d d d d v / L M r d d d j ~ ~ N ",
"1 ~ ~ ! d d d d d d d d d d d d d d O P Q ; v d d d d d ' ~ ~ { ",
"J ~ ~ 5 d d d d d d d d d d d d R S T n d d d d d d d d ; ~ ~ U ",
"% ~ ~ 5 d d d d d d d d d d d d ~ I d d d d d d d d d d ; ~ ~ U ",
"V ~ ~ j d d d d d d d d d d d d d d d d d d d d d d d d ' ~ ~ & ",
"2 ~ ~ V d d d d d d d d d d d d d d d d d d d d d d d d K ~ ~ N ",
": ~ ~ = E d d d d d d d d d d d d d d d d d d d d d d q U ~ ~ K ",
"h A ~ ' D d d d d d d d d d d d d d d d d d d d d d d f ] ~ 5 3 ",
"+ U _ W 5 X d d d d d d d d d d d d d d d d d d d d d Y ] ~ Z y ",
". ~ ` ^ 9  .d d d d d d d d d d d d d d d d d d d d H f ~ V $ . ",
". n 5 ^ ^ D n d d d d d d d d d d d d d d d d d d m / ^ ^ / ( . ",
". . ; h ^ ^ ' m d d d d d d d d d d d d d d d d e : ^ ^ 9 : . . ",
". . + j ^ ^ ^ g y d d d d d d d d d d d d d d O 5 ^ ^ ^ - > . . ",
". . . i [ ^ ^ ^ D | v d d d d d d d d d d l } 3 ^ ^ ^ : 0 . . . ",
". . . . ..[ ( ^ ^ +.J t m d d d d d d @.b ' o ^ ^ ^ : s . . . . ",
". . . . . , - o ^ ^ j ' * N _ ~ / : 2 % 5 #.^ ^ s [ 0 . . . . . ",
". . . . . . . 3 : f 2 ~ ~ ~ ~ ~ ~ ~ ~ ~ ~ : ^ / ' > . . . . . . ",
". . . . . . . . i 6 U j ~ ~ ~ ~ ~ ~ ~ ~ # ) 5 < . . . . . . . . ",
". . . . . . . . . . + b j 6 J { { % $ ! b + . . . . . . . . . . "};
