/* XPM */
static const char * knob10_xpm[] = {
"32 32 96 2",
"  	c None",
". 	c #E1E1E1",
"+ 	c #C3C3C3",
"@ 	c #B2B2B2",
"# 	c #AFAFAF",
"$ 	c #B0B0B0",
"% 	c #B1B1B1",
"& 	c #B4B4B4",
"* 	c #C1C1C1",
"= 	c #E0E0E0",
"- 	c #DADADA",
"; 	c #A4A4A4",
"> 	c #AAAAAA",
", 	c #C5C5C5",
"' 	c #D2D2D2",
") 	c #CBCBCB",
"! 	c #A8A8A8",
"~ 	c #D7D7D7",
"{ 	c #999999",
"] 	c #B7B7B7",
"^ 	c #9E9E9E",
"/ 	c #ACACAC",
"( 	c #DEDEDE",
"_ 	c #DCDCDC",
": 	c #9F9F9F",
"< 	c #A6A6A6",
"[ 	c #D1D1D1",
"} 	c #BABABA",
"| 	c #BEBEBE",
"1 	c #BBBBBB",
"2 	c #CFCFCF",
"3 	c #ABABAB",
"4 	c #9C9C9C",
"5 	c #D6D6D6",
"6 	c #9A9A9A",
"7 	c #B3B3B3",
"8 	c #949494",
"9 	c #E5E5E5",
"0 	c #F6F6F6",
"a 	c #EDEDED",
"b 	c #C4C4C4",
"c 	c #A2A2A2",
"d 	c #ADADAD",
"e 	c #CCCCCC",
"f 	c #DBDBDB",
"g 	c #B8B8B8",
"h 	c #F3F3F3",
"i 	c #C8C8C8",
"j 	c #A1A1A1",
"k 	c #E6E6E6",
"l 	c #B9B9B9",
"m 	c #A0A0A0",
"n 	c #E4E4E4",
"o 	c #F0F0F0",
"p 	c #A7A7A7",
"q 	c #9B9B9B",
"r 	c #A3A3A3",
"s 	c #D8D8D8",
"t 	c #E9E9E9",
"u 	c #CDCDCD",
"v 	c #C9C9C9",
"w 	c #F2F2F2",
"x 	c #A5A5A5",
"y 	c #C0C0C0",
"z 	c #D0D0D0",
"A 	c #B5B5B5",
"B 	c #AEAEAE",
"C 	c #BFBFBF",
"D 	c #BCBCBC",
"E 	c #C2C2C2",
"F 	c #EEEEEE",
"G 	c #797979",
"H 	c #989898",
"I 	c #EAEAEA",
"J 	c #848484",
"K 	c #808080",
"L 	c #CECECE",
"M 	c #787878",
"N 	c #F1F1F1",
"O 	c #DFDFDF",
"P 	c #7D7D7D",
"Q 	c #878787",
"R 	c #929292",
"S 	c #7A7A7A",
"T 	c #969696",
"U 	c #9D9D9D",
"V 	c #F4F4F4",
"W 	c #5E5E5E",
"X 	c #7C7C7C",
"Y 	c #B6B6B6",
"Z 	c #E7E7E7",
"` 	c #F5F5F5",
" .	c #D4D4D4",
"..	c #C6C6C6",
"+.	c #D9D9D9",
"@.	c #BDBDBD",
". . . . . . . . . . . + @ @ # $ $ % @ & * = . . . . . . . . . . ",
". . . . . . . . - ; > , ' ' ' ' ' ' ' ' ) ! ! ~ . . . . . . . . ",
". . . . . . . & { % & ' ' ' ' ' ' ' ' ' ' ] & ^ / ( . . . . . . ",
". . . . . _ : / & & < [ ] @ } | | 1 ] ] 2 3 & & % 4 [ . . . . . ",
". . . . 5 6 7 & & % 8 | 9 0 0 0 0 0 0 a b c d & & & 4 e . . . . ",
". . . f 6 & & & c g h 0 0 0 0 0 0 0 0 0 0 0 i j & & & 4 [ . . . ",
". . = j 7 & & : - 0 0 0 0 0 0 0 0 0 0 0 0 0 0 k j 7 & & 6 ( . . ",
". . l > & & m n 0 0 0 0 0 0 0 0 0 0 0 0 0 0 0 0 o m & & @ p . . ",
". ( q & & r s 0 0 0 0 0 0 0 0 0 0 0 0 0 0 0 0 0 0 t : & & 4 u . ",
". @ % & @ } 0 0 0 0 0 0 0 0 0 0 0 0 0 0 0 0 0 0 0 0 v j p @ d . ",
". p & 3 : w 0 0 0 0 0 0 0 0 0 0 0 0 0 0 0 0 0 0 0 0 0 x ' ' # _ ",
"u y ' 2 1 0 0 0 0 0 0 0 0 0 0 0 0 0 0 0 0 0 0 0 0 0 0 u ) ' z ] ",
"A ' ' y = 0 0 0 0 0 0 0 0 0 0 0 0 0 0 0 0 0 0 0 0 0 0 w B ' ' $ ",
"7 ' ' & 0 0 0 0 0 0 0 0 0 0 0 0 0 0 0 0 0 0 0 0 0 0 0 0 ] ' ' $ ",
"@ ' ' ] 0 0 0 0 0 0 0 0 0 0 0 0 0 0 0 0 0 0 0 0 0 0 0 0 C ' ' d ",
"% ' ' D 0 0 0 0 0 0 0 0 0 0 0 0 0 0 0 0 0 0 0 0 0 0 0 0 E ' ' B ",
"$ ' ' D 0 0 0 0 0 0 0 0 0 0 0 F G H I 0 0 0 0 0 0 0 0 0 E ' ' # ",
"$ ' ' l 0 0 0 0 0 0 0 0 0 0 0 0 0 5 J K L 0 0 0 0 0 0 0 | ' ' # ",
"7 ' ' % 0 0 0 0 0 0 0 0 0 0 0 0 0 0 0 F m M < N 0 0 0 0 1 ' ' $ ",
"7 ' ' D O 0 0 0 0 0 0 0 0 0 0 0 0 0 0 0 0 0 i P Q _ 0 h & ' ' 7 ",
"v y [ A & 0 0 0 0 0 0 0 0 0 0 0 0 0 0 0 0 0 0 0 k R S { v ' 2 1 ",
". T ; % U w 0 0 0 0 0 0 0 0 0 0 0 0 0 0 0 0 0 0 0 0 V P W X x f ",
". B @ & % Y 0 0 0 0 0 0 0 0 0 0 0 0 0 0 0 0 0 0 0 0 2 > & j J . ",
". _ { & & c _ 0 0 0 0 0 0 0 0 0 0 0 0 0 0 0 0 0 0 I : & & c 2 . ",
". . & / & & : Z 0 0 0 0 0 0 0 0 0 0 0 0 0 0 0 0 w j & & @ p . . ",
". . . : 7 & & : ( 0 0 0 0 0 0 0 0 0 0 0 0 0 0 I j 7 & & q _ . . ",
". . . - 6 & & & j y ` 0 0 0 0 0 0 0 0 0 0 0 i m & & & U 2 . . . ",
". . . .  .6 & & & $ j E I 0 0 0 0 0 0 o ..r > & & & U v . . . . ",
". . . . . +.: d & & 3 e l ] 1 C y @.A $ : & & & @ 6 2 . . . . . ",
". . . . . . = @ U 7 7 ' ' ' ' ' ' ' ' ' 3 & & ^ p ( . . . . . . ",
". . . . . . . . - / ; i ' ' ' ' ' ' ' ' @.R < z . . . . . . . . ",
". . . . . . . . . . = b & % % # # B % % l ( . . . . . . . . . . "};
