/* XPM */
static const char * knob23_xpm[] = {
"32 32 95 2",
"  	c None",
". 	c #E1E1E1",
"+ 	c #CDCDCD",
"@ 	c #B5B5B5",
"# 	c #A6A6A6",
"$ 	c #A4A4A4",
"% 	c #A0A0A0",
"& 	c #9F9F9F",
"* 	c #A3A3A3",
"= 	c #A8A8A8",
"- 	c #B0B0B0",
"; 	c #CACACA",
"> 	c #DCDCDC",
", 	c #AFAFAF",
"' 	c #C0C0C0",
") 	c #D1D1D1",
"! 	c #A9A9A9",
"~ 	c #B4B4B4",
"{ 	c #9D9D9D",
"] 	c #ADADAD",
"^ 	c #BBBBBB",
"/ 	c #AEAEAE",
"( 	c #D0D0D0",
"_ 	c #D2D2D2",
": 	c #B2B2B2",
"< 	c #999999",
"[ 	c #DBDBDB",
"} 	c #AAAAAA",
"| 	c #C8C8C8",
"1 	c #BFBFBF",
"2 	c #ABABAB",
"3 	c #B1B1B1",
"4 	c #A2A2A2",
"5 	c #9A9A9A",
"6 	c #DADADA",
"7 	c #D6D6D6",
"8 	c #CFCFCF",
"9 	c #C1C1C1",
"0 	c #F6F6F6",
"a 	c #E2E2E2",
"b 	c #B9B9B9",
"c 	c #9B9B9B",
"d 	c #B7B7B7",
"e 	c #A7A7A7",
"f 	c #D5D5D5",
"g 	c #F2F2F2",
"h 	c #B8B8B8",
"i 	c #969696",
"j 	c #D9D9D9",
"k 	c #979797",
"l 	c #C9C9C9",
"m 	c #B3B3B3",
"n 	c #ACACAC",
"o 	c #E4E4E4",
"p 	c #E5E5E5",
"q 	c #DEDEDE",
"r 	c #C3C3C3",
"s 	c #9C9C9C",
"t 	c #F3F3F3",
"u 	c #F5F5F5",
"v 	c #E0E0E0",
"w 	c #C4C4C4",
"x 	c #9E9E9E",
"y 	c #E9E9E9",
"z 	c #EBEBEB",
"A 	c #B6B6B6",
"B 	c #A5A5A5",
"C 	c #A1A1A1",
"D 	c #DDDDDD",
"E 	c #868686",
"F 	c #7F7F7F",
"G 	c #808080",
"H 	c #989898",
"I 	c #F4F4F4",
"J 	c #858585",
"K 	c #F0F0F0",
"L 	c #888888",
"M 	c #626262",
"N 	c #646464",
"O 	c #5E5E5E",
"P 	c #CECECE",
"Q 	c #EFEFEF",
"R 	c #F1F1F1",
"S 	c #CCCCCC",
"T 	c #BABABA",
"U 	c #DFDFDF",
"V 	c #CBCBCB",
"W 	c #C5C5C5",
"X 	c #D4D4D4",
"Y 	c #E7E7E7",
"Z 	c #E8E8E8",
"` 	c #EAEAEA",
" .	c #C7C7C7",
"..	c #BCBCBC",
"+.	c #939393",
". . . . . . . . . . . + @ # $ % & * = - ; . . . . . . . . . . . ",
". . . . . . . . > @ , ' ) ! ~ ~ ~ ~ ~ ~ $ { ] > . . . . . . . . ",
". . . . . . . ^ / ( _ _ _ , ~ ~ ~ ~ ~ ~ ~ ~ : < @ . . . . . . . ",
". . . . . [ } | _ _ _ _ 1 $ 2 3 , } % 4 ~ ~ ~ ~ 5 = 6 . . . . . ",
". . . . 7 } ) _ _ 8 3 9 . 0 0 0 0 0 0 a b c : , d ) e f . . . . ",
". . . 6 e _ _ _ ^ ' g 0 0 0 0 0 0 0 0 0 0 g h i _ _ _ 2 j . . . ",
". . . k l _ _ ~ > 0 0 0 0 0 0 0 0 0 0 0 0 0 0 [ - _ _ _ = . . . ",
". . m n * ^ - o 0 0 0 0 0 0 0 0 0 0 0 0 0 0 0 0 p : _ _ ; h . . ",
". j c ~ ~ 5 [ 0 0 0 0 0 0 0 0 0 0 0 0 0 0 0 0 0 0 q b _ _ 3 j . ",
". 2 m ~ - ^ 0 0 0 0 0 0 0 0 0 0 0 0 0 0 0 0 0 0 0 0 r + _ ) : . ",
". c ~ ~ s t 0 0 0 0 0 0 0 0 0 0 0 0 0 0 0 0 0 0 0 0 u 3 _ _ / v ",
"r ! ~ m ^ 0 0 0 0 0 0 0 0 0 0 0 0 0 0 0 0 0 0 0 0 0 0 w ) _ | w ",
"] ~ ~ x y 0 0 0 0 0 0 0 0 0 0 0 0 0 0 0 0 0 0 0 0 0 0 z A _ _ m ",
"B ~ ~ * 0 0 0 0 0 0 0 0 0 0 0 0 0 0 0 0 0 0 0 0 0 0 0 0 ! , ! C ",
"& ~ ~ , 0 0 0 0 0 0 0 0 0 0 0 0 0 0 0 0 0 0 0 0 0 0 0 0 - ~ ~ C ",
"s ~ ~ ~ 0 0 0 0 0 0 0 0 0 u D , g 0 0 0 0 0 0 0 0 0 0 0 d ~ ~ s ",
"s ~ ~ A 0 0 0 0 u > n E F G H | I 0 0 0 0 0 0 0 0 0 0 0 A ~ ~ c ",
"C ~ ~ , [ 2 J F G < l K 0 0 0 0 0 0 0 0 0 0 0 0 0 0 0 0 3 ~ ~ x ",
"L M N O 5 ; K 0 0 0 0 0 0 0 0 0 0 0 0 0 0 0 0 0 0 0 0 0 e ~ ~ * ",
"n P _ @ Q 0 0 0 0 0 0 0 0 0 0 0 0 0 0 0 0 0 0 0 0 0 0 R c ~ ~ 2 ",
"' S _ ( | 0 0 0 0 0 0 0 0 0 0 0 0 0 0 0 0 0 0 0 0 0 0 w 3 ~ , T ",
"U / _ _ : 0 0 0 0 0 0 0 0 0 0 0 0 0 0 0 0 0 0 0 0 0 0 % ~ ~ 5 q ",
". - _ _ | V 0 0 0 0 0 0 0 0 0 0 0 0 0 0 0 0 0 0 0 0 W } ~ ~ # . ",
". X @ _ _ @ Y 0 0 0 0 0 0 0 0 0 0 0 0 0 0 0 0 0 0 Y 2 ! ] x ) . ",
". . : 8 _ _ - K 0 0 0 0 0 0 0 0 0 0 0 0 0 0 0 0 K n _ _ A * . . ",
". . U ! _ _ ) n Z 0 0 0 0 0 0 0 0 0 0 0 0 0 0 ` , ) _ _ ! q . . ",
". . . ) - _ _ _ ~ 8 0 0 0 0 0 0 0 0 0 0 0 0 ( m _ _ _ , 8 . . . ",
". . . . S / _ _ _ 4 4 | t 0 0 0 0 0 0 I + ~ W _ _ _ : V . . . . ",
". . . . . ( ! (  .= ~ , s 2 @ ^ ..A / : + _ _ _ ( } 8 . . . . . ",
". . . . . . D , +.~ ~ ~ ~ ~ ~ ~ ~ ~ ] _ _ _ _ b - D . . . . . . ",
". . . . . . . . + $ 5 3 ~ ~ ~ ~ ~ ~ ! 8 8 3 - P . . . . . . . . ",
". . . . . . . . . . > @ = % c H < { % n ..[ . . . . . . . . . . "};
