/* XPM */
static const char * knob2_xpm[] = {
"32 32 95 2",
"  	c None",
". 	c #E1E1E1",
"+ 	c #E0E0E0",
"@ 	c #BDBDBD",
"# 	c #B2B2B2",
"$ 	c #AFAFAF",
"% 	c #B0B0B0",
"& 	c #B1B1B1",
"* 	c #B4B4B4",
"= 	c #C1C1C1",
"- 	c #D5D5D5",
"; 	c #ADADAD",
"> 	c #CBCBCB",
", 	c #D2D2D2",
"' 	c #A5A5A5",
") 	c #8C8C8C",
"! 	c #D7D7D7",
"~ 	c #979797",
"{ 	c #818181",
"] 	c #9C9C9C",
"^ 	c #9E9E9E",
"/ 	c #ACACAC",
"( 	c #DEDEDE",
"_ 	c #D6D6D6",
": 	c #9B9B9B",
"< 	c #A8A8A8",
"[ 	c #D0D0D0",
"} 	c #BCBCBC",
"| 	c #BFBFBF",
"1 	c #BBBBBB",
"2 	c #B8B8B8",
"3 	c #B7B7B7",
"4 	c #CFCFCF",
"5 	c #5E5E5E",
"6 	c #D3D3D3",
"7 	c #A4A4A4",
"8 	c #A3A3A3",
"9 	c #C6C6C6",
"0 	c #ECECEC",
"a 	c #F6F6F6",
"b 	c #EEEEEE",
"c 	c #989898",
"d 	c #737373",
"e 	c #CECECE",
"f 	c #A0A0A0",
"g 	c #F5F5F5",
"h 	c #7B7B7B",
"i 	c #F2F2F2",
"j 	c #C7C7C7",
"k 	c #D4D4D4",
"l 	c #DFDFDF",
"m 	c #9D9D9D",
"n 	c #9F9F9F",
"o 	c #E2E2E2",
"p 	c #8D8D8D",
"q 	c #E4E4E4",
"r 	c #EBEBEB",
"s 	c #ABABAB",
"t 	c #DADADA",
"u 	c #A1A1A1",
"v 	c #F3F3F3",
"w 	c #E5E5E5",
"x 	c #B3B3B3",
"y 	c #C3C3C3",
"z 	c #AEAEAE",
"A 	c #C0C0C0",
"B 	c #C2C2C2",
"C 	c #787878",
"D 	c #969696",
"E 	c #C4C4C4",
"F 	c #C8C8C8",
"G 	c #999999",
"H 	c #A9A9A9",
"I 	c #B5B5B5",
"J 	c #B9B9B9",
"K 	c #EAEAEA",
"L 	c #838383",
"M 	c #EDEDED",
"N 	c #808080",
"O 	c #BABABA",
"P 	c #BEBEBE",
"Q 	c #E8E8E8",
"R 	c #D1D1D1",
"S 	c #CACACA",
"T 	c #949494",
"U 	c #A2A2A2",
"V 	c #B6B6B6",
"W 	c #A7A7A7",
"X 	c #C5C5C5",
"Y 	c #D8D8D8",
"Z 	c #9A9A9A",
"` 	c #E3E3E3",
" .	c #CDCDCD",
"..	c #C9C9C9",
"+.	c #929292",
". . . . . . . . . . + @ # # $ $ $ % & * = + . . . . . . . . . . ",
". . . . . . . . - % ; > , , , , , , , , > ' ) ! . . . . . . . . ",
". . . . . . + ; ~ * , , , , , , , , , , , { ] ^ / ( . . . . . . ",
". . . . . _ : % * < , [ # * } | | 1 2 3 4 5 * * % ] 6 . . . . . ",
". . . . [ : * * * 7 8 9 0 a a a a a a b c d ; * * * : e . . . . ",
". . . _ : * * * f | g a a a a a a a a a h i j f * * * : k . . . ",
". . l m * * * n o a a a a a a a a a a . p a a q f * * * : + . . ",
". . % $ * * f r a a a a a a a a a a a ) o a a a b n * * & s . . ",
". t m * * u . a a a a a a a a a a a v h a a a a a w f * * ] k . ",
". s x * $ y a a a a a a a a a a a a z A a a a a a a B / * * < . ",
"+ ' * s u g a a a a a a a a a a a a C g a a a a a a a u * * D l ",
"E F , e = a a a a a a a a a a a a k G a a a a a a a a y f H I 1 ",
"* , , J K a a a a a a a a a a a a L r a a a a a a a a M % , , & ",
"# , , 3 a a a a a a a a a a a a M N a a a a a a a a a a I , , # ",
"& , , O a a a a a a a a a a a a ^ [ a a a a a a a a a a } , , $ ",
"% , , P a a a a a a a a a a a a C a a a a a a a a a a a A , , $ ",
"$ , , P a a a a a a a a a a a a w a a a a a a a a a a a A , , $ ",
"$ , , 1 a a a a a a a a a a a a a a a a a a a a a a a a 1 , , % ",
"# , , x a a a a a a a a a a a a a a a a a a a a a a a a 2 , , & ",
"# , , I Q a a a a a a a a a a a a a a a a a a a a a a M 3 , , * ",
"A F , R y a a a a a a a a a a a a a a a a a a a a a a E e , S = ",
"+ / O < T g a a a a a a a a a a a a a a a a a a a a g U s V W + ",
". u z * $ } a a a a a a a a a a a a a a a a a a a a X z * * H . ",
". Y Z * * u + a a a a a a a a a a a a a a a a a a ` f * * ^ Y . ",
". . $ $ * * n K a a a a a a a a a a a a a a a a 0 f * * % z . . ",
". . + ] * * * f + a a a a a a a a a a a a a a ` n * * * ] l . . ",
". . . ! Z * * * u B g a a a a a a a a a a g | u * * * : - . . . ",
". . . . , Z * * * $ u A K a a a a a a K } f z * * * : [ . . . . ",
". . . . . ! m z * * s  .J 3 O P | 1 * x & # * * % ] - . . . . . ",
". . . . . . + % m x x , , , , , , , , , R 7 * : ; + . . . . . . ",
". . . . . . . . t / 7 F , , , , , , , , ..+.H _ . . . . . . . . ",
". . . . . . . . . . + E * & & % $ $ # # P + . . . . . . . . . . "};
