/* XPM */
static const char * knob12_xpm[] = {
"32 32 96 2",
"  	c None",
". 	c #E1E1E1",
"+ 	c #C8C8C8",
"@ 	c #AFAFAF",
"# 	c #A4A4A4",
"$ 	c #9F9F9F",
"% 	c #8D8D8D",
"& 	c #AEAEAE",
"* 	c #B0B0B0",
"= 	c #B4B4B4",
"- 	c #C1C1C1",
"; 	c #E0E0E0",
"> 	c #DCDCDC",
", 	c #9C9C9C",
"' 	c #A5A5A5",
") 	c #A3A3A3",
"! 	c #D2D2D2",
"~ 	c #C7C7C7",
"{ 	c #B2B2B2",
"] 	c #D5D5D5",
"^ 	c #B9B9B9",
"/ 	c #9B9B9B",
"( 	c #A1A1A1",
"_ 	c #DFDFDF",
": 	c #DDDDDD",
"< 	c #AAAAAA",
"[ 	c #A7A7A7",
"} 	c #BDBDBD",
"| 	c #B7B7B7",
"1 	c #B3B3B3",
"2 	c #B6B6B6",
"3 	c #D1D1D1",
"4 	c #CECECE",
"5 	c #D4D4D4",
"6 	c #D8D8D8",
"7 	c #BABABA",
"8 	c #E4E4E4",
"9 	c #F6F6F6",
"0 	c #ECECEC",
"a 	c #C4C4C4",
"b 	c #CACACA",
"c 	c #CCCCCC",
"d 	c #ADADAD",
"e 	c #B8B8B8",
"f 	c #F2F2F2",
"g 	c #9A9A9A",
"h 	c #ABABAB",
"i 	c #E6E6E6",
"j 	c #DEDEDE",
"k 	c #C6C6C6",
"l 	c #B5B5B5",
"m 	c #E3E3E3",
"n 	c #EFEFEF",
"o 	c #A2A2A2",
"p 	c #A9A9A9",
"q 	c #BEBEBE",
"r 	c #D9D9D9",
"s 	c #E8E8E8",
"t 	c #A0A0A0",
"u 	c #CFCFCF",
"v 	c #D0D0D0",
"w 	c #CBCBCB",
"x 	c #A6A6A6",
"y 	c #F1F1F1",
"z 	c #CDCDCD",
"A 	c #BCBCBC",
"B 	c #BFBFBF",
"C 	c #C9C9C9",
"D 	c #B1B1B1",
"E 	c #F3F3F3",
"F 	c #A8A8A8",
"G 	c #9E9E9E",
"H 	c #ACACAC",
"I 	c #878787",
"J 	c #989898",
"K 	c #C0C0C0",
"L 	c #808080",
"M 	c #F5F5F5",
"N 	c #C2C2C2",
"O 	c #E2E2E2",
"P 	c #F4F4F4",
"Q 	c #9D9D9D",
"R 	c #DADADA",
"S 	c #D3D3D3",
"T 	c #C3C3C3",
"U 	c #DBDBDB",
"V 	c #EDEDED",
"W 	c #BBBBBB",
"X 	c #E9E9E9",
"Y 	c #7F7F7F",
"Z 	c #6B6B6B",
"` 	c #C5C5C5",
" .	c #919191",
"..	c #EEEEEE",
"+.	c #D7D7D7",
"@.	c #8E8E8E",
". . . . . . . . . . . + @ # $ % & * @ = - ; . . . . . . . . . . ",
". . . . . . . . > @ , ' = = = ) ! ! ! ! ~ & { ] . . . . . . . . ",
". . . . . . ; ^ / { = = = = = ( ! ! ! ! ! ! ! = = _ . . . . . . ",
". . . . . : ( < = = = = ( $ < [ } | 1 2 3 ! ! ! 4 < 5 . . . . . ",
". . . . 6 / 1 = = { $ 7 8 9 9 9 9 9 9 0 a { b ! ! ! * c . . . . ",
". . . : < d 1 = ' e f 9 9 9 9 9 9 9 9 9 9 9 + e ! ! * g 5 . . . ",
". . ; h 3 3 d ( 6 9 9 9 9 9 9 9 9 9 9 9 9 9 9 i { * { = g j . . ",
". . } k ! ! l m 9 9 9 9 9 9 9 9 9 9 9 9 9 9 9 9 n o = = { p . . ",
". : & ! ! q r 9 9 9 9 9 9 9 9 9 9 9 9 9 9 9 9 9 9 s ( = = t u . ",
". 2 u ! v } 9 9 9 9 9 9 9 9 9 9 9 9 9 9 9 9 9 9 9 9 w < = = x . ",
". & ! ! { y 9 9 9 9 9 9 9 9 9 9 9 9 9 9 9 9 9 9 9 9 9 ' = = g > ",
"z A ! ! B 9 9 9 9 9 9 9 9 9 9 9 9 9 9 9 9 9 9 9 9 9 9 C @ = D 2 ",
"2 ! ! B _ 9 9 9 9 9 9 9 9 9 9 9 9 9 9 9 9 9 9 9 9 9 9 E , = = F ",
"D ! ! D 9 9 9 9 9 9 9 9 9 9 9 9 9 9 9 9 9 9 9 9 9 9 9 9 p = = G ",
"* ! ! 2 9 9 9 9 9 9 9 9 9 9 9 9 9 9 9 9 9 9 9 9 9 9 9 9 H t ) I ",
"J { D F 9 9 9 9 9 9 9 9 9 9 9 9 9 9 9 9 9 9 9 9 9 9 9 9 K u v H ",
"$ = = @ 9 9 9 9 9 9 9 9 9 9 9 . L M 9 9 9 9 9 9 9 9 9 9 N ! ! d ",
"( = = [ 9 9 9 9 9 9 9 9 9 9 9 9 ~ L M 9 9 9 9 9 9 9 9 9 A ! ! d ",
"x = = G 9 9 9 9 9 9 9 9 9 9 9 9 9 ~ L M 9 9 9 9 9 9 9 9 e ! ! & ",
"* = = o O 9 9 9 9 9 9 9 9 9 9 9 9 9 ~ L M 9 9 9 9 9 9 P D ! ! { ",
"b # = = 7 9 9 9 9 9 9 9 9 9 9 9 9 9 9 ~ L M 9 9 9 9 9 u b ! u | ",
". Q = = G E 9 9 9 9 9 9 9 9 9 9 9 9 9 9 ~ L M 9 9 9 9 2 ! ! { R ",
". @ { = { 7 9 9 9 9 9 9 9 9 9 9 9 9 9 9 9 ~ L M 9 9 S T ! ! @ . ",
". U / = = ) : 9 9 9 9 9 9 9 9 9 9 9 9 9 9 9 ~ L M V = ! ! W c . ",
". . 2 H = = ( X 9 9 9 9 9 9 9 9 9 9 9 9 9 9 9 ~ Y { ! ! 3 @ . . ",
". . ; G = = H 1 . 9 9 9 9 9 9 9 9 9 9 9 9 9 9 0 I Z 3 ! H > . . ",
". . . R , H v ! 7 ` M 9 9 9 9 9 9 9 9 9 9 9 4 t =  .Z { v . . . ",
". . . . S < ! ! ! c { a ..9 9 9 9 9 9 E C x p = = = Y T . . . . ",
". . . . . R p c ! ! ! v = l 7 { e * [ , @ = = = 1 g u . . . . . ",
". . . . . . ; 2 1 ! ! ! ! ! 3 t = = = = = = = t F > . . . . . . ",
". . . . . . . . +.{ & C ! ! u t = = = = * g x 4 . . . . . . . . ",
". . . . . . . . . . ; B = @ < @.J / $ p | : . . . . . . . . . . "};
