/* XPM */
static const char * knob31_xpm[] = {
"32 32 88 1",
" 	c None",
".	c #E1E1E1",
"+	c #E0E0E0",
"@	c #C3C3C3",
"#	c #B1B1B1",
"$	c #848484",
"%	c #A1A1A1",
"&	c #9C9C9C",
"*	c #9F9F9F",
"=	c #A4A4A4",
"-	c #ACACAC",
";	c #C0C0C0",
">	c #D7D7D7",
",	c #B2B2B2",
"'	c #AEAEAE",
")	c #C9C9C9",
"!	c #D1D1D1",
"~	c #616161",
"{	c #B4B4B4",
"]	c #ABABAB",
"^	c #9A9A9A",
"/	c #A9A9A9",
"(	c #D6D6D6",
"_	c #B3B3B3",
":	c #D2D2D2",
"<	c #666666",
"[	c #9B9B9B",
"}	c #AFAFAF",
"|	c #D5D5D5",
"1	c #CDCDCD",
"2	c #B6B6B6",
"3	c #636363",
"4	c #AAAAAA",
"5	c #9D9D9D",
"6	c #949494",
"7	c #D0D0D0",
"8	c #ADADAD",
"9	c #CBCBCB",
"0	c #C6C6C6",
"a	c #ECECEC",
"b	c #C8C8C8",
"c	c #F6F6F6",
"d	c #BEBEBE",
"e	c #A5A5A5",
"f	c #B7B7B7",
"g	c #C7C7C7",
"h	c #F5F5F5",
"i	c #DDDDDD",
"j	c #989898",
"k	c #A8A8A8",
"l	c #E3E3E3",
"m	c #808080",
"n	c #EBEBEB",
"o	c #7F7F7F",
"p	c #EAEAEA",
"q	c #B5B5B5",
"r	c #8F8F8F",
"s	c #C4C4C4",
"t	c #B8B8B8",
"u	c #E2E2E2",
"v	c #858585",
"w	c #F0F0F0",
"x	c #D8D8D8",
"y	c #DFDFDF",
"z	c #9E9E9E",
"A	c #DCDCDC",
"B	c #999999",
"C	c #BFBFBF",
"D	c #C5C5C5",
"E	c #EEEEEE",
"F	c #F1F1F1",
"G	c #B0B0B0",
"H	c #DBDBDB",
"I	c #CECECE",
"J	c #EDEDED",
"K	c #C1C1C1",
"L	c #CACACA",
"M	c #E4E4E4",
"N	c #979797",
"O	c #BABABA",
"P	c #A7A7A7",
"Q	c #D4D4D4",
"R	c #BCBCBC",
"S	c #CFCFCF",
"T	c #A6A6A6",
"U	c #BDBDBD",
"V	c #A3A3A3",
"W	c #C2C2C2",
"..........+@#$%&&*=-;+..........",
"........>,')!~{{{{{{]^/(........",
"......+{_::::<{{{{{{{{_[}+......",
".....|/1:::!2342{}=5_{{{}6(.....",
"....78:::9#0a8bccccad5'{e04!....",
"...|]:::fghccijcccccch;[2::8(...",
"..+k:::#lcccchmcccccccc+':::/+..",
".._1::'nccccccocccccccccp#::1q..",
".|rs:tucccccccvwcccccccccuf::,x.",
".k{/=0cccccccc-)cccccccccc09::,.",
"y^{{zhccccccccABcccccccccch#::'+",
"d-{_CccccccccchmcccccccccccD!:)@",
"-{{&Eccccccccccoccccccccccca2::_",
"={{eccccccccccc$Fccccccccccc4}/%",
"*{{Gccccccccccc49cccccccccccG{{%",
"[{{qcccccccccccH&ccccccccccc2{{5",
"&{{fccccccccccccFccccccccccc{{{&",
"%{{#ccccccccccccccccccccccccG{{*",
"=4-/cccccccccccccccccccccccce{{=",
"'I:qEccccccccccccccccccccccJ&{{-",
"K9:70ccccccccccccccccccccccC_{-C",
"y'::#ccccccccccccccccccccchz{{^+",
".#::LbccccccccccccccccccccK'{{k.",
".({::2Mcccccccccccccccccc.N8{&(.",
"..{I::Gaccccccccccccccccn':O5'..",
"..+/:::8uccccccccccccccl#:::P+..",
"...Q':::#Rhcccccccccchbf:::]|...",
"....S]::]-z;EccccccE0#L:::'7....",
".....Qkt]{{,&TGqf#/q!:::1/|.....",
"......+P&{{{{{{{{{8::::_{+......",
"........Qk^8{{{{{{/SL'#(........",
"..........yU]V*[&%=}Wy.........."};
