/* XPM */
static const char * knob29_xpm[] = {
"32 32 91 1",
" 	c None",
".	c #E1E1E1",
"+	c #E0E0E0",
"@	c #C2C2C2",
"#	c #ADADAD",
"$	c #A5A5A5",
"%	c #9F9F9F",
"&	c #9D9D9D",
"*	c #9B9B9B",
"=	c #9E9E9E",
"-	c #A4A4A4",
";	c #ACACAC",
">	c #C0C0C0",
",	c #D8D8D8",
"'	c #ABABAB",
")	c #9A9A9A",
"!	c #B4B4B4",
"~	c #A2A2A2",
"{	c #B3B3B3",
"]	c #D9D9D9",
"^	c #A3A3A3",
"/	c #D2D2D2",
"(	c #D1D1D1",
"_	c #AFAFAF",
":	c #B7B7B7",
"<	c #D6D6D6",
"[	c #808080",
"}	c #8F8F8F",
"|	c #AEAEAE",
"1	c #B0B0B0",
"2	c #999999",
"3	c #CBCBCB",
"4	c #AAAAAA",
"5	c #5C5C5C",
"6	c #BEBEBE",
"7	c #EAEAEA",
"8	c #F6F6F6",
"9	c #E7E7E7",
"0	c #B1B1B1",
"a	c #CDCDCD",
"b	c #D3D3D3",
"c	c #686868",
"d	c #F5F5F5",
"e	c #F4F4F4",
"f	c #C3C3C3",
"g	c #B8B8B8",
"h	c #B5B5B5",
"i	c #CCCCCC",
"j	c #EBEBEB",
"k	c #737373",
"l	c #EEEEEE",
"m	c #E9E9E9",
"n	c #B2B2B2",
"o	c #E3E3E3",
"p	c #DADADA",
"q	c #858585",
"r	c #C7C7C7",
"s	c #BFBFBF",
"t	c #DFDFDF",
"u	c #C9C9C9",
"v	c #D0D0D0",
"w	c #DBDBDB",
"x	c #ECECEC",
"y	c #C1C1C1",
"z	c #8D8D8D",
"A	c #A7A7A7",
"B	c #A9A9A9",
"C	c #DCDCDC",
"D	c #848484",
"E	c #CACACA",
"F	c #B6B6B6",
"G	c #9C9C9C",
"H	c #A6A6A6",
"I	c #989898",
"J	c #EFEFEF",
"K	c #BCBCBC",
"L	c #C8C8C8",
"M	c #D4D4D4",
"N	c #A0A0A0",
"O	c #E5E5E5",
"P	c #E4E4E4",
"Q	c #D7D7D7",
"R	c #CFCFCF",
"S	c #EDEDED",
"T	c #C6C6C6",
"U	c #D5D5D5",
"V	c #CECECE",
"W	c #C4C4C4",
"X	c #A8A8A8",
"Y	c #DEDEDE",
"Z	c #969696",
"..........+@#$%&*=-;>+..........",
"........,')'!!!!!!!~>'{]........",
"......+^&{!!!!!!!!!-//(_:.......",
".....<'[}!!{=^|{1;-2(///34,.....",
"....(#/(5'~678888889>0a///;b....",
"...<#///-cd8888888888efg///',...",
"..+4///h.&f888888888888+0///'+..",
"..hi//1j8dkl888888888888mh//{n..",
".<0//:o888pq8888888888888+n#{=,.",
".n//3r88888&@8888888888888s0!{;.",
"t;//nd88888dkl888888888888e~!!)+",
"6u/v@8888888wq88888888888886{!'@",
"n//nx88888888=y8888888888887=!!#",
"1//g888888888dkl888888888888^!!$",
"zA'B8888888888CD888888888888|!!=",
"2!!{88888888888%E88888888888!!!&",
"*!!F88888888888de888888888880!!)",
"G!!0888888888888888888888888;!!&",
"^!!H888888888888888888888888I0!^",
"'!!GJ8888888888888888888888j_K1H",
"K|!nf8888888888888888888888y(/L>",
"t2!!-888888888888888888888dn//;+",
".B!!|r88888888888888888888r3//n.",
".MN!;;O888888888888888888PF//0Q.",
"..#1R/{l8888888888888888S1//ah..",
"..t'///_988888888888888P{///B+..",
"...M_///h388888888888dT|///|U...",
"....V_///u{WJ888888J@-|;v/|v....",
".....b4V///R1^_!:0HGn!!!n'U.....",
"......t{!////|!!!!!!!!!N|t......",
"........b0#3/X!!!!!!|2BU........",
"..........YKnZ*I*G^'Kt.........."};
