/* XPM */
static const char * knob25_xpm[] = {
"32 32 94 2",
"  	c None",
". 	c #E1E1E1",
"+ 	c #C8C8C8",
"@ 	c #B5B5B5",
"# 	c #B3B3B3",
"$ 	c #B2B2B2",
"% 	c #B0B0B0",
"& 	c #B1B1B1",
"* 	c #B4B4B4",
"= 	c #ADADAD",
"- 	c #CBCBCB",
"; 	c #E0E0E0",
"> 	c #DBDBDB",
", 	c #AEAEAE",
"' 	c #C1C1C1",
") 	c #D2D2D2",
"! 	c #C3C3C3",
"~ 	c #A7A7A7",
"{ 	c #9D9D9D",
"] 	c #AFAFAF",
"^ 	c #9B9B9B",
"/ 	c #D0D0D0",
"( 	c #BABABA",
"_ 	c #B6B6B6",
": 	c #D9D9D9",
"< 	c #A2A2A2",
"[ 	c #CDCDCD",
"} 	c #BCBCBC",
"| 	c #BEBEBE",
"1 	c #A5A5A5",
"2 	c #9F9F9F",
"3 	c #DADADA",
"4 	c #D4D4D4",
"5 	c #979797",
"6 	c #A6A6A6",
"7 	c #C0C0C0",
"8 	c #E5E5E5",
"9 	c #F6F6F6",
"0 	c #E3E3E3",
"a 	c #BBBBBB",
"b 	c #9E9E9E",
"c 	c #9A9A9A",
"d 	c #D5D5D5",
"e 	c #A3A3A3",
"f 	c #B9B9B9",
"g 	c #F3F3F3",
"h 	c #DCDCDC",
"i 	c #A0A0A0",
"j 	c #E6E6E6",
"k 	c #D8D8D8",
"l 	c #9C9C9C",
"m 	c #A1A1A1",
"n 	c #DEDEDE",
"o 	c #ABABAB",
"p 	c #BFBFBF",
"q 	c #C4C4C4",
"r 	c #D1D1D1",
"s 	c #F5F5F5",
"t 	c #F4F4F4",
"u 	c #C2C2C2",
"v 	c #ACACAC",
"w 	c #C6C6C6",
"x 	c #939393",
"y 	c #7F7F7F",
"z 	c #EBEBEB",
"A 	c #EAEAEA",
"B 	c #B7B7B7",
"C 	c #AAAAAA",
"D 	c #818181",
"E 	c #5F5F5F",
"F 	c #868686",
"G 	c #BDBDBD",
"H 	c #EFEFEF",
"I 	c #C9C9C9",
"J 	c #999999",
"K 	c #808080",
"L 	c #858585",
"M 	c #F0F0F0",
"N 	c #CACACA",
"O 	c #848484",
"P 	c #F1F1F1",
"Q 	c #A8A8A8",
"R 	c #CFCFCF",
"S 	c #DFDFDF",
"T 	c #C7C7C7",
"U 	c #989898",
"V 	c #E8E8E8",
"W 	c #CCCCCC",
"X 	c #929292",
"Y 	c #C5C5C5",
"Z 	c #B8B8B8",
"` 	c #A9A9A9",
" .	c #CECECE",
"..	c #DDDDDD",
". . . . . . . . . . . + @ # $ % & * # = - ; . . . . . . . . . . ",
". . . . . . . . > $ , ' ) ) ) ) ) ) ! & ~ { ] > . . . . . . . . ",
". . . . . . . # ^ / ) ) ) ) ) ) ) ) ( * * * $ ^ _ . . . . . . . ",
". . . . . : { = < [ ) ) ( # ( } | ( 1 < * * * * = 2 3 . . . . . ",
". . . . 4 5 * * * 6 , 7 8 9 9 9 9 9 9 0 a b & * * # c d . . . . ",
". . . : ^ * * * e f g 9 9 9 9 9 9 9 9 9 9 g a < * * * 5 : . . . ",
". . . { * * * { > 9 9 9 9 9 9 9 9 9 9 9 9 9 9 h i * * * { . . . ",
". . $ , * * 2 j 9 9 9 9 9 9 9 9 9 9 9 9 9 9 9 9 8 { * * e = . . ",
". k l * * m n 9 9 9 9 9 9 9 9 9 9 9 9 9 9 9 9 9 9 > < 6 f % : . ",
". o # * ] p 9 9 9 9 9 9 9 9 9 9 9 9 9 9 9 9 9 9 9 9 @ q ) r % . ",
"; ^ * * 2 s 9 9 9 9 9 9 9 9 9 9 9 9 9 9 9 9 9 9 9 9 t ] ) ) , ; ",
"u v * # p 9 9 9 9 9 9 9 9 9 9 9 9 9 9 9 9 9 9 9 9 9 9 ' r ) w ! ",
"x y < { z 9 9 9 9 9 9 9 9 9 9 9 9 9 9 9 9 9 9 9 9 9 9 A B ) ) * ",
", C D E y F v h s 9 9 9 9 9 9 9 9 9 9 9 9 9 9 9 9 9 9 9 @ ) ) $ ",
"$ ) ) G 9 H I J K y L o > s 9 9 9 9 9 9 9 9 9 9 9 9 9 9 } ) ) & ",
"% ) ) ' 9 9 9 9 9 9 M N c D y O z 9 9 9 9 9 9 9 9 9 9 9 | ) ) ] ",
"] ) ) p 9 9 9 9 9 9 9 9 9 9 9 P t 9 9 9 9 9 9 9 9 9 9 9 7 ) ) % ",
"& ) ) G 9 9 9 9 9 9 9 9 9 9 9 9 9 9 9 9 9 9 9 9 9 9 9 9 G ) ) $ ",
"& ) ) B 9 9 9 9 9 9 9 9 9 9 9 9 9 9 9 9 9 9 9 9 9 9 9 9 C ( u $ ",
"* ) ) # M 9 9 9 9 9 9 9 9 9 9 9 9 9 9 9 9 9 9 9 9 9 9 H { * $ Q ",
"G - ) R w 9 9 9 9 9 9 9 9 9 9 9 9 9 9 9 9 9 9 9 9 9 9 ! $ * , p ",
"n ] ) ) % 9 9 9 9 9 9 9 9 9 9 9 9 9 9 9 9 9 9 9 9 9 9 m * * c S ",
". ] ) ) T - 9 9 9 9 9 9 9 9 9 9 9 9 9 9 9 9 9 9 9 9 T v * * Q . ",
". ) @ ) ) @ 8 9 9 9 9 9 9 9 9 9 9 9 9 9 9 9 9 9 9 j i * * b 4 . ",
". . % / I < c H 9 9 9 9 9 9 9 9 9 9 9 9 9 9 9 9 H i * * & v . . ",
". . n U 6 * # i V 9 9 9 9 9 9 9 9 9 9 9 9 9 9 j { # * * ^ S . . ",
". . . / c * * * i W 9 9 9 9 9 9 9 9 9 9 9 9 [ X * * * l ) . . . ",
". . . . - { * * * C 1 I g 9 9 9 9 9 9 g I & Y | o * c W . . . . ",
". . . . . / c $ * * * % l = 7 ! ' | Z & [ ) ) ) 6 c r . . . . . ",
". . . . . . n ` i * * * * B ) ) ) ) ) ) ) ) ) B ] n . . . . . . ",
". . . . . . . . / ~ c & * | ) ) ) ) ) )  .% , R . . . . . . . . ",
". . . . . . . . . . h ( ~ = $ ] , % & # f ... . . . . . . . . . "};
