/* XPM */
static const char * knob14_xpm[] = {
"32 32 102 2",
"  	c None",
". 	c #E1E1E1",
"+ 	c #E0E0E0",
"@ 	c #CBCBCB",
"# 	c #B0B0B0",
"$ 	c #A7A7A7",
"% 	c #A2A2A2",
"& 	c #9F9F9F",
"* 	c #9E9E9E",
"= 	c #A0A0A0",
"- 	c #A6A6A6",
"; 	c #ACACAC",
"> 	c #C1C1C1",
", 	c #DEDEDE",
"' 	c #B8B8B8",
") 	c #999999",
"! 	c #B4B4B4",
"~ 	c #AAAAAA",
"{ 	c #8D8D8D",
"] 	c #B1B1B1",
"^ 	c #D8D8D8",
"/ 	c #BDBDBD",
"( 	c #AFAFAF",
"_ 	c #CECECE",
": 	c #ADADAD",
"< 	c #D1D1D1",
"[ 	c #B2B2B2",
"} 	c #DDDDDD",
"| 	c #C5C5C5",
"1 	c #D2D2D2",
"2 	c #BFBFBF",
"3 	c #A4A4A4",
"4 	c #A1A1A1",
"5 	c #9D9D9D",
"6 	c #A8A8A8",
"7 	c #C2C2C2",
"8 	c #CDCDCD",
"9 	c #A9A9A9",
"0 	c #D5D5D5",
"a 	c #D9D9D9",
"b 	c #D0D0D0",
"c 	c #B3B3B3",
"d 	c #F6F6F6",
"e 	c #E7E7E7",
"f 	c #B6B6B6",
"g 	c #CCCCCC",
"h 	c #AEAEAE",
"i 	c #CFCFCF",
"j 	c #BCBCBC",
"k 	c #C0C0C0",
"l 	c #F2F2F2",
"m 	c #F5F5F5",
"n 	c #C3C3C3",
"o 	c #B7B7B7",
"p 	c #D3D3D3",
"q 	c #ABABAB",
"r 	c #B5B5B5",
"s 	c #E4E4E4",
"t 	c #DFDFDF",
"u 	c #E2E2E2",
"v 	c #EEEEEE",
"w 	c #E6E6E6",
"x 	c #B9B9B9",
"y 	c #C8C8C8",
"z 	c #9C9C9C",
"A 	c #F0F0F0",
"B 	c #949494",
"C 	c #A3A3A3",
"D 	c #C9C9C9",
"E 	c #BABABA",
"F 	c #DBDBDB",
"G 	c #F1F1F1",
"H 	c #9B9B9B",
"I 	c #BBBBBB",
"J 	c #989898",
"K 	c #C7C7C7",
"L 	c #797979",
"M 	c #959595",
"N 	c #E3E3E3",
"O 	c #E8E8E8",
"P 	c #858585",
"Q 	c #F4F4F4",
"R 	c #8F8F8F",
"S 	c #A5A5A5",
"T 	c #CACACA",
"U 	c #7F7F7F",
"V 	c #EFEFEF",
"W 	c #F3F3F3",
"X 	c #DADADA",
"Y 	c #C4C4C4",
"Z 	c #787878",
"` 	c #EDEDED",
" .	c #EAEAEA",
"..	c #7E7E7E",
"+.	c #868686",
"@.	c #ECECEC",
"#.	c #DCDCDC",
"$.	c #666666",
"%.	c #9A9A9A",
"&.	c #636363",
"*.	c #D4D4D4",
"=.	c #626262",
". . . . . . . . . . + @ # $ % & * = - ; > + . . . . . . . . . . ",
". . . . . . . . , ' ) - ! ! ! ! ! ! ! ! ~ { ] ^ . . . . . . . . ",
". . . . . . . / ( _ # ! ! ! ! ! ! ! ! ! ! : < # [ + . . . . . . ",
". . . . . } ; | 1 1 2 [ 3 4 ~ ] [ ; 4 5 6 7 1 1 8 9 0 . . . . . ",
". . . . a 9 < 1 1 b c ' + d d d d d d e f ] g 1 1 1 h i . . . . ",
". . . } 6 1 1 1 j k l d d d d d d d d d d m n o 1 1 1 ( p . . . ",
". . . q b 1 1 r ^ d d d d d d d d d d d d d d s # 1 1 1 ~ t . . ",
". . j | 1 1 r u d d d d d d d d d d d d d d d d v # 1 1 i ] . . ",
". , q 1 1 / ^ d d d d d d d d d d d d d d d d d d w ! 1 1 ' p . ",
". q 7 1 b x d d d d d d d d d d d d d d d d d d d d 8 y 1 1 ] . ",
". 5 $ ~ z A d d d d d d d d d d d d d d d d d d d d d r > ] B } ",
"@ C ! ! ' d d d d d d d d d d d d d d d d d d d d d d D ; ! # E ",
"( ! ! 3 F d d d d d d d d d d d d d d d d d d d d d d G * ! ! 9 ",
"9 ! ! z m d d d d d d d d d d d d d d d d d d d d d d d q ! ! = ",
"% ! ! 9 d d d d d d d d d d d d d d d d d d d d d d d d ! ! ! H ",
"= ! ! ( d d d d d d d d d d d d d d d d d d d d d d d d I ! ! J ",
"= ! ! ( d d d d d d d d d d d K c d d d d d d d d d d d j ! ! J ",
"C ! ! 9 d d d d d d d d d d d m L d d d d d d d d d d d f ! ! ) ",
"$ ! ! 4 d d d d d d d d d d d d M ^ d d d d d d d d d d ~ ! ! & ",
"( ! ! C N d d d d d d d d d d d O P d d d d d d d d d Q R ! ! S ",
"T $ ! c x d d d d d d d d d d d d U V d d d d d d d d b x ( & ] ",
"+ ) h I ] W d d d d d d d d d d d @ C d d d d d d d d r 1 1 # X ",
". ! b 1 i Y d d d d d d d d d d d d Z d d d d d d d b 7 1 1 h . ",
". } ] 1 1 E , d d d d d d d d d d d C T d d d d d ` [ 1 1 E @ . ",
". . ' T 1 1 c  .d d d d d d d d d d A ..d d d d W ( 1 1 < ; . . ",
". . + ~ 1 1 1 ] u d d d d d d d d d d +.O d d @.# b 1 1 q #.. . ",
". . . ^ ; 1 1 1 o Y m d d d d d d d d a B d p c 1 1 1 ! 8 . . . ",
". . . . 1 ; 1 1 1 T ) Y v d d d d d d W $.f | 1 1 1 ! y . . . . ",
". . . . . ^ 6 8 1 I ; ] %.S c x E ! q * ..& 1 1 < ; 8 . . . . . ",
". . . . . . + [ [ 3 ! ! ! ! ! ! ! ! ! ! [ &.1 I ( F . . . . . . ",
". . . . . . . . *.S J ( ! ! ! ! ! ! ! ! [ =.: b . . . . . . . . ",
". . . . . . . . . . t x 6 % H ) ) z = 6 ' #.. . . . . . . . . . "};
