/* XPM */
static const char * knob26_xpm[] = {
"32 32 98 2",
"  	c None",
". 	c #E1E1E1",
"+ 	c #C5C5C5",
"@ 	c #B3B3B3",
"# 	c #B0B0B0",
"$ 	c #B1B1B1",
"% 	c #B2B2B2",
"& 	c #B5B5B5",
"* 	c #C9C9C9",
"= 	c #E0E0E0",
"- 	c #DADADA",
"; 	c #ACACAC",
"> 	c #989898",
", 	c #D2D2D2",
"' 	c #C3C3C3",
") 	c #A9A9A9",
"! 	c #AEAEAE",
"~ 	c #DDDDDD",
"{ 	c #999999",
"] 	c #B4B4B4",
"^ 	c #AAAAAA",
"/ 	c #B7B7B7",
"( 	c #9C9C9C",
"_ 	c #D8D8D8",
": 	c #9E9E9E",
"< 	c #ADADAD",
"[ 	c #A1A1A1",
"} 	c #BABABA",
"| 	c #BDBDBD",
"1 	c #B9B9B9",
"2 	c #D1D1D1",
"3 	c #ABABAB",
"4 	c #9F9F9F",
"5 	c #D9D9D9",
"6 	c #D3D3D3",
"7 	c #9A9A9A",
"8 	c #BCBCBC",
"9 	c #E3E3E3",
"0 	c #F6F6F6",
"a 	c #E4E4E4",
"b 	c #BFBFBF",
"c 	c #D4D4D4",
"d 	c #A2A2A2",
"e 	c #F4F4F4",
"f 	c #F3F3F3",
"g 	c #DEDEDE",
"h 	c #DCDCDC",
"i 	c #A0A0A0",
"j 	c #E9E9E9",
"k 	c #E7E7E7",
"l 	c #9D9D9D",
"m 	c #DFDFDF",
"n 	c #959595",
"o 	c #A5A5A5",
"p 	c #AFAFAF",
"q 	c #C2C2C2",
"r 	c #757575",
"s 	c #5E5E5E",
"t 	c #7E7E7E",
"u 	c #919191",
"v 	c #C8C8C8",
"w 	c #CDCDCD",
"x 	c #898989",
"y 	c #787878",
"z 	c #9B9B9B",
"A 	c #ECECEC",
"B 	c #C7C7C7",
"C 	c #C1C1C1",
"D 	c #B8B8B8",
"E 	c #EAEAEA",
"F 	c #828282",
"G 	c #818181",
"H 	c #B6B6B6",
"I 	c #EDEDED",
"J 	c #F2F2F2",
"K 	c #BBBBBB",
"L 	c #F5F5F5",
"M 	c #C4C4C4",
"N 	c #7C7C7C",
"O 	c #8A8A8A",
"P 	c #8F8F8F",
"Q 	c #7A7A7A",
"R 	c #E6E6E6",
"S 	c #BEBEBE",
"T 	c #EFEFEF",
"U 	c #CECECE",
"V 	c #CFCFCF",
"W 	c #CACACA",
"X 	c #A6A6A6",
"Y 	c #A8A8A8",
"Z 	c #F0F0F0",
"` 	c #E8E8E8",
" .	c #CCCCCC",
"..	c #C6C6C6",
"+.	c #CBCBCB",
"@.	c #F1F1F1",
"#.	c #A7A7A7",
"$.	c #A4A4A4",
". . . . . . . . . . . + @ @ # # # $ % & * = . . . . . . . . . . ",
". . . . . . . . - ; > # , , , , , , , , ' ) ! ~ . . . . . . . . ",
". . . . . . . % { @ ] ^ , , , , , , , , , / % ( & = . . . . . . ",
". . . . . _ : < ] ] ] [ / % } | | 1 & | 2 3 ] ] ; 4 5 . . . . . ",
". . . . 6 7 ] ] ] # : 8 9 0 0 0 0 0 0 a b : $ ] ] ] 7 c . . . . ",
". . . _ 7 ] ] ] d 1 e 0 0 0 0 0 0 0 0 0 0 f | d ] ] ] 7 - . . . ",
". . = : ] ] ] 4 g 0 0 0 0 0 0 0 0 0 0 0 0 0 0 h i ] ] ] : . . . ",
". . $ ! ] ] 4 j 0 0 0 0 0 0 0 0 0 0 0 0 0 0 0 0 k 4 ] ] < % . . ",
". - l ] ] [ m 0 0 0 0 0 0 0 0 0 0 0 0 0 0 0 0 0 0 ~ d ] ] 7 5 . ",
". n o ] p q 0 0 0 0 0 0 0 0 0 0 0 0 0 0 0 0 0 0 0 0 } # ] @ 3 . ",
"= l r s t e 0 0 0 0 0 0 0 0 0 0 0 0 0 0 0 0 0 0 0 0 e : ] o u = ",
"' v , w x y z A 0 0 0 0 0 0 0 0 0 0 0 0 0 0 0 0 0 0 0 } < w B C ",
"] , , D E 0 6 F G 2 0 0 0 0 0 0 0 0 0 0 0 0 0 0 0 0 0 k H , , % ",
"$ , , / 0 0 0 0 I ( y ^ J 0 0 0 0 0 0 0 0 0 0 0 0 0 0 0 % , , % ",
"# , , K 0 0 0 0 0 0 L M N O g 0 0 0 0 0 0 0 0 0 0 0 0 0 K , , p ",
"p , , b 0 0 0 0 0 0 0 0 0 a P Q R 0 0 0 0 0 0 0 0 0 0 0 S , , p ",
"p , , b 0 0 0 0 0 0 0 0 0 0 0 e e 0 0 0 0 0 0 0 0 0 0 0 b , , # ",
"! , , 8 0 0 0 0 0 0 0 0 0 0 0 0 0 0 0 0 0 0 0 0 0 0 0 0 K , , $ ",
"$ , , & 0 0 0 0 0 0 0 0 0 0 0 0 0 0 0 0 0 0 0 0 0 0 0 0 / , , $ ",
"$ , , $ T 0 0 0 0 0 0 0 0 0 0 0 0 0 0 0 0 0 0 0 0 0 0 I / , , ] ",
"} w , U B 0 0 0 0 0 0 0 0 0 0 0 0 0 0 0 0 0 0 0 0 0 0 ' V , W C ",
"m < , , 3 0 0 0 0 0 0 0 0 0 0 0 0 0 0 0 0 0 0 0 0 0 L d 3 H X = ",
". p K ^ l + 0 0 0 0 0 0 0 0 0 0 0 0 0 0 0 0 0 0 0 0 B < ] ] Y . ",
". 2 n ] ] i k 0 0 0 0 0 0 0 0 0 0 0 0 0 0 0 0 0 0 a [ ] ] : _ . ",
". . ) % ] ] i Z 0 0 0 0 0 0 0 0 0 0 0 0 0 0 0 0 T i ] ] $ < . . ",
". . m 7 ] ] @ i ` 0 0 0 0 0 0 0 0 0 0 0 0 0 0 k 4 ] ] ] ( m . . ",
". . . 2 ( ] ] ] i  .0 0 0 0 0 0 0 0 0 0 0 0 ..i ] ] ] z , . . . ",
". . . . +.( ] ] ] 3 X * @.0 0 0 0 0 0 Z * 7 3 ] ] ] ( w . . . . ",
". . . . . 2 z % ] ] 3 * & 1 | C C S H p w X ] ] % 7 6 . . . . . ",
". . . . . . ~ ^ [ ] @ , , , , , , , , , , / $ : ) m . . . . . . ",
". . . . . . . . 6 #.$.U , , , , , , , , U < 7 2 . . . . . . . . ",
". . . . . . . . . . g | @ # # p ! ! $ $ D g . . . . . . . . . . "};
