/* XPM */
static const char * knob24_xpm[] = {
"32 32 85 1",
" 	c None",
".	c #E1E1E1",
"+	c #CACACA",
"@	c #B4B4B4",
"#	c #B3B3B3",
"$	c #B0B0B0",
"%	c #999999",
"&	c #A5A5A5",
"*	c #A7A7A7",
"=	c #AFAFAF",
"-	c #C9C9C9",
";	c #DDDDDD",
">	c #AEAEAE",
",	c #C1C1C1",
"'	c #D2D2D2",
")	c #CFCFCF",
"!	c #A8A8A8",
"~	c #A6A6A6",
"{	c #9D9D9D",
"]	c #BABABA",
"^	c #ACACAC",
"/	c #D0D0D0",
"(	c #B2B2B2",
"_	c #989898",
":	c #B6B6B6",
"<	c #D9D9D9",
"[	c #C8C8C8",
"}	c #BBBBBB",
"|	c #BCBCBC",
"1	c #ADADAD",
"2	c #A1A1A1",
"3	c #9C9C9C",
"4	c #D4D4D4",
"5	c #929292",
"6	c #C3C3C3",
"7	c #B1B1B1",
"8	c #C0C0C0",
"9	c #E3E3E3",
"0	c #F6F6F6",
"a	c #9E9E9E",
"b	c #9A9A9A",
"c	c #A3A3A3",
"d	c #C6C6C6",
"e	c #B9B9B9",
"f	c #F3F3F3",
"g	c #A0A0A0",
"h	c #9B9B9B",
"i	c #979797",
"j	c #DBDBDB",
"k	c #DADADA",
"l	c #9F9F9F",
"m	c #AAAAAA",
"n	c #E6E6E6",
"o	c #B8B8B8",
"p	c #DCDCDC",
"q	c #B7B7B7",
"r	c #BDBDBD",
"s	c #C2C2C2",
"t	c #CDCDCD",
"u	c #D1D1D1",
"v	c #E0E0E0",
"w	c #F5F5F5",
"x	c #ABABAB",
"y	c #C7C7C7",
"z	c #EBEBEB",
"A	c #B5B5B5",
"B	c #A4A4A4",
"C	c #A2A2A2",
"D	c #BEBEBE",
"E	c #6C6C6C",
"F	c #6D6D6D",
"G	c #959595",
"H	c #F0F0F0",
"I	c #BFBFBF",
"J	c #E2E2E2",
"K	c #F4F4F4",
"L	c #CCCCCC",
"M	c #DFDFDF",
"N	c #EFEFEF",
"O	c #E8E8E8",
"P	c #CECECE",
"Q	c #CBCBCB",
"R	c #DEDEDE",
"S	c #A9A9A9",
"T	c #C4C4C4",
"...........+@##$%&*=-...........",
"........;@>,''')!@@@~{=;........",
".......]^/''''')!@@@@@(_:.......",
".....<*[''''}@||1122@@@@^3<.....",
"....456'')7890000009]a7@@@b4....",
"...<b@cde8f0000000000f]g@@!%<...",
"...h@@@ij00000000000000klm]'~...",
"..@1@@ln0000000000000000na''-o..",
".kb@@gj000000000000000000pq''>k.",
".^#@$r00000000000000000000st'u(.",
"vh@@lw00000000000000000000w7''>v",
"sx@#r0000000000000000000000su'y6",
"1@@3z0000000000000000000000zA''@",
"&@@B000000000000000000000000:''(",
"C@@7000000000000000000000000D''#",
"EFFFGGGGGGGGGGGGH00000000000I))=",
"&,,7JJJJJJJJJJJJK00000000000@!!G",
"#''I000000000000000000000000(@@2",
"(''o000000000000000000000000!@@B",
"@''7H0000000000000000000000Hb@@x",
"DL')y00000000000000000000006(@=r",
"M>''(0000000000000000000000c@@%M",
".7''[L00000000000000000000[^@@!.",
".4#''(n000000000000000000n{@@34.",
"..(/''>N0000000000000000Nb@@(x..",
"..M~'''BO00000000000000O>>1@iM..",
".../$'yc{L000000000000P7''#5/...",
"....L&B@@m&[K000000KQ@d'''$Q....",
"...../i(@@@=hxq}8,e$t'''/*/.....",
"......RSl@@@@@@(T''''''q$R......",
"......../~b(@@@(T''')7$/........",
"..........pq!2ai&(7#]p.........."};
