/* XPM */
static const char * knob22_xpm[] = {
"32 32 96 2",
"  	c None",
". 	c #E1E1E1",
"+ 	c #CDCDCD",
"@ 	c #B1B1B1",
"# 	c #A8A8A8",
"$ 	c #A3A3A3",
"% 	c #A0A0A0",
"& 	c #A1A1A1",
"* 	c #AEAEAE",
"= 	c #C8C8C8",
"- 	c #DEDEDE",
"; 	c #B8B8B8",
"> 	c #999999",
", 	c #A5A5A5",
"' 	c #B4B4B4",
") 	c #9C9C9C",
"! 	c #DCDCDC",
"~ 	c #E0E0E0",
"{ 	c #BCBCBC",
"] 	c #AFAFAF",
"^ 	c #CECECE",
"/ 	c #B0B0B0",
"( 	c #ABABAB",
"_ 	c #BDBDBD",
": 	c #ADADAD",
"< 	c #DBDBDB",
"[ 	c #C6C6C6",
"} 	c #D2D2D2",
"| 	c #BFBFBF",
"1 	c #B2B2B2",
"2 	c #A9A9A9",
"3 	c #AAAAAA",
"4 	c #9E9E9E",
"5 	c #C9C9C9",
"6 	c #DADADA",
"7 	c #D7D7D7",
"8 	c #D1D1D1",
"9 	c #D0D0D0",
"0 	c #B3B3B3",
"a 	c #B7B7B7",
"b 	c #F6F6F6",
"c 	c #DFDFDF",
"d 	c #BABABA",
"e 	c #9A9A9A",
"f 	c #CFCFCF",
"g 	c #D5D5D5",
"h 	c #C0C0C0",
"i 	c #F2F2F2",
"j 	c #BBBBBB",
"k 	c #D9D9D9",
"l 	c #DDDDDD",
"m 	c #E5E5E5",
"n 	c #E7E7E7",
"o 	c #CACACA",
"p 	c #B9B9B9",
"q 	c #C5C5C5",
"r 	c #949494",
"s 	c #F3F3F3",
"t 	c #F5F5F5",
"u 	c #C1C1C1",
"v 	c #959595",
"w 	c #C2C2C2",
"x 	c #ACACAC",
"y 	c #EAEAEA",
"z 	c #A6A6A6",
"A 	c #9D9D9D",
"B 	c #F4F4F4",
"C 	c #B6B6B6",
"D 	c #9B9B9B",
"E 	c #ECECEC",
"F 	c #787878",
"G 	c #9F9F9F",
"H 	c #828282",
"I 	c #A4A4A4",
"J 	c #EDEDED",
"K 	c #8A8A8A",
"L 	c #7C7C7C",
"M 	c #C3C3C3",
"N 	c #F0F0F0",
"O 	c #888888",
"P 	c #616161",
"Q 	c #8F8F8F",
"R 	c #E4E4E4",
"S 	c #A2A2A2",
"T 	c #6A6A6A",
"U 	c #626262",
"V 	c #989898",
"W 	c #C4C4C4",
"X 	c #8B8B8B",
"Y 	c #CCCCCC",
"Z 	c #CBCBCB",
"` 	c #E6E6E6",
" .	c #E9E9E9",
"..	c #EBEBEB",
"+.	c #B5B5B5",
"@.	c #898989",
". . . . . . . . . . . + @ # $ % % & # * = . . . . . . . . . . . ",
". . . . . . . . - ; > , ' ' ' ' ' ' ' ' , ) # ! . . . . . . . . ",
". . . . . . ~ { ] ^ / ' ' ' ' ' ' ' ' ' ' ( _ : ; . . . . . . . ",
". . . . . < ( [ } } | 1 , % 2 ] / 3 4 & ' # } } 5 3 6 . . . . . ",
". . . . 7 2 8 } } 9 0 a ~ b b b b b b c d e f } } 8 3 g . . . . ",
". . . ! 2 } } } { h i b b b b b b b b b b i { j } } } ( k . . . ",
". . . 2 8 } } ' 6 b b b b b b b b b b b b b b l 1 } } } 3 ~ . . ",
". . ; = } } 0 m b b b b b b b b b b b b b b b b n 1 } } o a . . ",
". 6 : } } j ! b b b b b b b b b b b b b b b b b b c p } } 1 6 . ",
". ( $ ; ^ _ b b b b b b b b b b b b b b b b b b b b q + } 8 0 . ",
". e ' * r s b b b b b b b b b b b b b b b b b b b b t 0 u @ v ~ ",
"w 2 ' 0 _ b b b b b b b b b b b b b b b b b b b b b b h ] ' ( w ",
"x ' ' 4 m b b b b b b b b b b b b b b b b b b b b b b y % ' ' x ",
"z ' ' % b b b b b b b b b b b b b b b b b b b b b b b b z ' ' $ ",
"4 ' ' : b b b b b b b b b b b b b b b b b b b b b b b b ] ' ' 4 ",
"A ' ' ' b b b b b b b b b b b = B b b b b b b b b b b b C ' ' D ",
") ' ' ' b b b b b b b b E ) F ( B b b b b b b b b b b b a ' ' D ",
"G ' ' * b b b b b b } H H } b b b b b b b b b b b b b b @ ' ' ) ",
"I ' ' z b b b i ( F ) E b b b b b b b b b b b b b b b b z ' ' $ ",
"x ' ' 4 J c K L M b b b b b b b b b b b b b b b b b b N > ' ' # ",
"| * 0 O P Q R b b b b b b b b b b b b b b b b b b b b h S ' / a ",
"~ T U V 1 b b b b b b b b b b b b b b b b b b b b b b 1 W * X - ",
". ] } } o Y b b b b b b b b b b b b b b b b b b b b Z [ } } ] . ",
". 7 C } } C ` b b b b b b b b b b b b b b b b b b y ' } } C 8 . ",
". . 1 f } } / N b b b b b b b b b b b b b b b b i ] } } 9 * . . ",
". . - 3 } } 8 ]  .b b b b b b b b b b b b b b ../ 9 } } 3 - . . ",
". . . } / } } } 0 Y b b b b b b b b b b b b } 0 } } } @ 9 . . . ",
". . . . + / } } } q 0 + i b b b b b b s Y +.[ } } } 1 Z . . . . ",
". . . . . 8 2 9 } } } M @.2 +.j j +.: 4 x { } } 9 x f . . . . . ",
". . . . . . - * a } } @ ' ' ' ' ' ' ' ' ' ] } j ] ! . . . . . . ",
". . . . . . . . f ] ] G ' ' ' ' ' ' ' ' 1 v * 9 . . . . . . . . ",
". . . . . . . . . . ! 0 z % > V V D G # ; < . . . . . . . . . . "};
