/* XPM */
static const char * knob4_xpm[] = {
"32 32 90 1",
" 	c None",
".	c #E1E1E1",
"+	c #E0E0E0",
"@	c #BEBEBE",
"#	c #ACACAC",
"$	c #A1A1A1",
"%	c #8C8C8C",
"&	c #ADADAD",
"*	c #AEAEAE",
"=	c #AFAFAF",
"-	c #B3B3B3",
";	c #BDBDBD",
">	c #DFDFDF",
",	c #D6D6D6",
"'	c #AAAAAA",
")	c #9A9A9A",
"!	c #B4B4B4",
"~	c #A3A3A3",
"{	c #D0D0D0",
"]	c #D2D2D2",
"^	c #CBCBCB",
"/	c #B1B1B1",
"(	c #D3D3D3",
"_	c #B0B0B0",
":	c #9D9D9D",
"<	c #CFCFCF",
"[	c #B5B5B5",
"}	c #B2B2B2",
"|	c #DEDEDE",
"1	c #D8D8D8",
"2	c #9C9C9C",
"3	c #A4A4A4",
"4	c #A5A5A5",
"5	c #BCBCBC",
"6	c #BFBFBF",
"7	c #B9B9B9",
"8	c #D4D4D4",
"9	c #D1D1D1",
"0	c #C0C0C0",
"a	c #EDEDED",
"b	c #F6F6F6",
"c	c #F0F0F0",
"d	c #C7C7C7",
"e	c #C9C9C9",
"f	c #A2A2A2",
"g	c #C1C1C1",
"h	c #F5F5F5",
"i	c #CACACA",
"j	c #B7B7B7",
"k	c #767676",
"l	c #7B7B7B",
"m	c #E7E7E7",
"n	c #757575",
"o	c #888888",
"p	c #9B9B9B",
"q	c #EBEBEB",
"r	c #7E7E7E",
"s	c #ABABAB",
"t	c #BABABA",
"u	c #9F9F9F",
"v	c #CDCDCD",
"w	c #C3C3C3",
"x	c #C8C8C8",
"y	c #A8A8A8",
"z	c #C4C4C4",
"A	c #C5C5C5",
"B	c #C2C2C2",
"C	c #E9E9E9",
"D	c #F1F1F1",
"E	c #BBBBBB",
"F	c #A7A7A7",
"G	c #A0A0A0",
"H	c #999999",
"I	c #8E8E8E",
"J	c #D5D5D5",
"K	c #A6A6A6",
"L	c #939393",
"M	c #9E9E9E",
"N	c #B6B6B6",
"O	c #F4F4F4",
"P	c #D9D9D9",
"Q	c #E6E6E6",
"R	c #EEEEEE",
"S	c #CECECE",
"T	c #E4E4E4",
"U	c #A9A9A9",
"V	c #DADADA",
"W	c #EAEAEA",
"X	c #B8B8B8",
"Y	c #959595",
"..........+@#$%&**=-;>..........",
"........,')#!!~{]]]]^*/(........",
"......+_:!!!!!$<]]]]]]][}|......",
".....12=!!!}234567[-<]]]<'8.....",
"....9)!!!*$0abbbbbbcd-e]]]_^....",
"...1&&-!fghbbbbbbbbbbbij]]kl8...",
"..+']9&$.bbbbbbbbbbbbbbm}no!p|..",
"..j^]]-qbbbbbbbbbbbbbbbbor!!/s..",
".1/]]t.bbbbbbbbbbbbbbbb%tm$!!u].",
".-9]vwbbbbbbbbbbbbbbbb%tbbx#!!y.",
".*]]/hbbbbbbbbbbbbbbb%tbbbb~!!)|",
"zA]9Bbbbbbbbbbbbbbbb%tbbbbbA/!=7",
"!]]jCbbbbbbbbbbbbbb%tbbbbbbDp!!'",
"_]]-bbbbbbbbbbbbbb%EbbbbbbbbF!!G",
"=]]jbbbbbbbbbbbbb%tbbbbbbbbb=!!p",
"*]];bbbbbbbbbbbb%tbbbbbbbbbbj!!H",
"I4~ybbbbbbbbbbbbJbbbbbbbbbbb}$KL",
"M!!'bbbbbbbbbbbbbbbbbbbbbbbbtvd~",
"3!!$bbbbbbbbbbbbbbbbbbbbbbbbN]]=",
"*!!umbbbbbbbbbbbbbbbbbbbbbbc}]]-",
"Ay!-5bbbbbbbbbbbbbbbbbbbbbbd<]^;",
".p!!uObbbbbbbbbbbbbbbbbbbbh-]]*>",
".&-!/;bbbbbbbbbbbbbbbbbbbbee]]/.",
".Pp!!~|bbbbbbbbbbbbbbbbbbQj]][(.",
"..-&!!$CbbbbbbbbbbbbbbbbR}]]S-..",
"..+:!!#}>bbbbbbbbbbbbbbT$&9]U>..",
"...Vp#{]EwObbbbbbbbbbhwf!-&*,...",
"....(']]]v/wWbbbbbba0$*!!!pS....",
".....V'i]]]9j!X=!#~:-!!!_2,.....",
"......+j/9]]]]]/!!!!!!!:=>......",
"........P-*A]]]}!!!!s)',........",
"..........+w[_*Yp:f#6+.........."};
