/* XPM */
static const char * knob15_xpm[] = {
"32 32 94 2",
"  	c None",
". 	c #E1E1E1",
"+ 	c #CECECE",
"@ 	c #B5B5B5",
"# 	c #A5A5A5",
"$ 	c #A4A4A4",
"% 	c #9F9F9F",
"& 	c #9E9E9E",
"* 	c #A2A2A2",
"= 	c #A6A6A6",
"- 	c #AEAEAE",
"; 	c #C5C5C5",
"> 	c #E0E0E0",
", 	c #DEDEDE",
"' 	c #AFAFAF",
") 	c #C0C0C0",
"! 	c #D1D1D1",
"~ 	c #A9A9A9",
"{ 	c #B4B4B4",
"] 	c #A8A8A8",
"^ 	c #9B9B9B",
"/ 	c #AAAAAA",
"( 	c #D8D8D8",
"_ 	c #BDBDBD",
": 	c #CFCFCF",
"< 	c #D2D2D2",
"[ 	c #B3B3B3",
"} 	c #9A9A9A",
"| 	c #ACACAC",
"1 	c #DDDDDD",
"2 	c #ABABAB",
"3 	c #C6C6C6",
"4 	c #BFBFBF",
"5 	c #B2B2B2",
"6 	c #B1B1B1",
"7 	c #D4D4D4",
"8 	c #D9D9D9",
"9 	c #D0D0D0",
"0 	c #C1C1C1",
"a 	c #DFDFDF",
"b 	c #F6F6F6",
"c 	c #E8E8E8",
"d 	c #BCBCBC",
"e 	c #9C9C9C",
"f 	c #F1F1F1",
"g 	c #F5F5F5",
"h 	c #BBBBBB",
"i 	c #B9B9B9",
"j 	c #979797",
"k 	c #EBEBEB",
"l 	c #B0B0B0",
"m 	c #D6D6D6",
"n 	c #E5E5E5",
"o 	c #B6B6B6",
"p 	c #CCCCCC",
"q 	c #C8C8C8",
"r 	c #F0F0F0",
"s 	c #CDCDCD",
"t 	c #CACACA",
"u 	c #F2F2F2",
"v 	c #9D9D9D",
"w 	c #A3A3A3",
"x 	c #999999",
"y 	c #A0A0A0",
"z 	c #989898",
"A 	c #DADADA",
"B 	c #808080",
"C 	c #E4E4E4",
"D 	c #7F7F7F",
"E 	c #F4F4F4",
"F 	c #A7A7A7",
"G 	c #C3C3C3",
"H 	c #848484",
"I 	c #ADADAD",
"J 	c #DBDBDB",
"K 	c #B8B8B8",
"L 	c #818181",
"M 	c #ECECEC",
"N 	c #C2C2C2",
"O 	c #949494",
"P 	c #C9C9C9",
"Q 	c #B7B7B7",
"R 	c #CBCBCB",
"S 	c #EAEAEA",
"T 	c #F3F3F3",
"U 	c #E2E2E2",
"V 	c #838383",
"W 	c #EDEDED",
"X 	c #D7D7D7",
"Y 	c #BEBEBE",
"Z 	c #D3D3D3",
"` 	c #616161",
" .	c #646464",
"..	c #7E7E7E",
". . . . . . . . . . . + @ # $ % & * = - ; > . . . . . . . . . . ",
". . . . . . . . , @ ' ) ! ~ { { { { { { ] ^ / ( . . . . . . . . ",
". . . . . . . _ - : < < < ' { { { { { { { { [ } | > . . . . . . ",
". . . . . 1 2 3 < < < < 4 $ 2 5 6 | * % [ { { ' ' ] 7 . . . . . ",
". . . . 8 ~ 9 < < 9 5 0 a b b b b b b c d e ' ] < < 2 : . . . . ",
". . . 1 # < < < _ _ f b b b b b b b b b b g h 2 < < < ' 7 . . . ",
". . . 2 9 < < @ ( b b b b b b b b b b b b b b . - < < < ] a . . ",
". . i j d < [ > b b b b b b b b b b b b b b b b k l < < : 5 . . ",
". , } { | } m b b b b b b b b b b b b b b b b b b n @ < < o < . ",
". l l { [ { b b b b b b b b b b b b b b b b b b b b p q < < l . ",
". & { { ^ r b b b b b b b b b b b b b b b b b b b b b [ < < l 1 ",
"s * { { o b b b b b b b b b b b b b b b b b b b b b b t : < + _ ",
"6 { { $ , b b b b b b b b b b b b b b b b b b b b b b u 5 < < l ",
"~ { { % b b b b b b b b b b b b b b b b b b b b b b b b ' ' ~ v ",
"w { { / b b b b b b b b b b b b b b b b b b b b b b b b o { { & ",
"% { { ' b b b b b b b b b b b g b b b b b b b b b b b b d { { x ",
"y { { 6 b b b b b b b b b b b l p b b b b b b b b b b b h { { z ",
"# { { 2 b b b b b b b b b b b A ^ b b b b b b b b b b b o { { ^ ",
"] / | $ b b b b b b b b b b b g B b b b b b b b b b b b | { { y ",
"5 + < d C b b b b b b b b b b b D b b b b b b b b b b E e { { F ",
"t G < < G b b b b b b b b b b b H f b b b b b b b b b p I { 5 [ ",
"> - < < 6 E b b b b b b b b b b ] s b b b b b b b b b # { { ^ 8 ",
". [ ! < s G b b b b b b b b b b ( v b b b b b b b b 7 v ~ { w . ",
". J l < < K . b b b b b b b b b E L b b b b b b b M 5 < N O P . ",
". . Q R < < 5 S b b b b b b b b b D b b b b b b T | < < ! - . . ",
". . . ~ < < < I U b b b b b b b b V u b b b b W ' 9 < < | A . . ",
". . . X | < < Y z ; g b b b b b b F + b b b Z 5 < < < 5 R . . . ",
". . . . ! / p * { | y G f b b b b X & E : { G < < < { q . . . . ",
". . . . . m O ' { { { 6 e ] { i h { ` 5 R < < < ! 2 p . . . . . ",
". . . . . . > | & { { { { { { { { {  .< < < < h ' J . . . . . . ",
". . . . . . . . Z = } ' { { { { { { ` : 9 5 l s . . . . . . . . ",
". . . . . . . . . . , i / * e z x v ..~ h A . . . . . . . . . . "};
