<svg width="52" height="104" version="1.1" xmlns="http://www.w3.org/2000/svg" viewBox="0 0 26 52">
  <g fill="none" stroke="#000001" stroke-linejoin="round" stroke-width="1.6">
    <path d="m20.257 45.224c-0.9573 0.83444-2.4233 0.73391-3.2577-0.22341l-7.6685-8.7975c-1.7551 0.41421-3.6769-0.10729-4.9385-1.5547-1.2625-1.4484-1.5175-3.4246-0.86593-5.1072l2.0773 2.3831c0.83445 0.95731 2.3004 1.0578 3.2577 0.2234 0.9573-0.83444 1.0563-2.2991 0.22188-3.2564l-2.0773-2.3831c1.7558-0.41578 3.6787 0.10657 4.9412 1.555 1.2627 1.4486 1.5174 3.4246 0.86593 5.1072l7.6672 8.7961c0.83445 0.95731 0.73394 2.4233-0.22337 3.2577z" color="#000001"/>
    <path d="m8.9997 37.363v7.6375h2v-5.3425z"/>
    <path d="m14 27v5.9864l2 2.2949v-8.2813z"/>
    <path d="m19 27v11.725l2 2.293v-14.018z"/>
    <path d="m3.9997 35.713v9.2874h2v-7.9846c-0.73826-0.26909-1.4212-0.69782-2-1.3027z"/>
    <path d="m5.3641 18.098 4.4253-4.4252-4.4253-4.4252 1.1064-1.1063 5.5315 5.5315-5.5315 5.5315z"/>
    <path d="m20.636 18.098-4.4253-4.4253 4.4253-4.4253-1.1064-1.1064-5.5315 5.5315 5.5315 5.5316 1.1064-1.1064z"/>
  </g>
  <g fill="#666668">
    <g transform="matrix(-.5112 .44559 -.50559 -.58003 28.909 44.828)" stroke-width="1.0108">
      <path transform="matrix(-1.4588,0,0,1.2857,27.506,3.1429)" d="m12 3c-1.2837 0-2.334 1.0503-2.334 2.334v11.797c-1.6125 0.8501-2.7305 2.5239-2.7305 4.4648 0 1.9422 1.1183 3.6174 2.7324 4.4668v-3.1956c0-1.2837 1.0503-2.334 2.334-2.334s2.332 1.0503 2.332 2.334v3.1956c1.6141-0.84939 2.7324-2.5246 2.7324-4.4668 0-1.9425-1.1184-3.6174-2.7324-4.4668v-11.795c0-1.2837-1.0503-2.334-2.334-2.334z" color="#000001" fill="#666668"/>
    </g>
    <path d="m8.9997 37.363v7.6375h2v-5.3425z"/>
    <path d="m14 27v5.9864l2 2.2949v-8.2813z"/>
    <path d="m19 27v11.725l2 2.293v-14.018z"/>
    <path d="m3.9997 35.713v9.2874h2v-7.9846c-0.73826-0.26909-1.4212-0.69782-2-1.3027z"/>
    <path d="m5.3641 18.098 4.4253-4.4252-4.4253-4.4252 1.1064-1.1063 5.5315 5.5315-5.5315 5.5315z" stroke-width=".93992"/>
    <path d="m20.636 18.098-4.4253-4.4253 4.4253-4.4253-1.1064-1.1064-5.5315 5.5315 5.5315 5.5316 1.1064-1.1064z" stroke-width=".93992"/>
  </g>
</svg>
