<svg width="40" height="48" version="1.1" viewBox="0 0 20 24" xmlns="http://www.w3.org/2000/svg">
  <text x="5.8255696" y="17.235025" fill="#000000" font-family="sans-serif" font-size="40px" letter-spacing="0px" word-spacing="0px" style="line-height:1.25" xml:space="preserve"><tspan x="5.8255696" y="17.235025" fill="#000000" font-family="'Open Sans'" font-size="14.66666698px" font-weight="bold">4</tspan></text>
  <g fill="none" stroke="#000">
    <path d="m4.5608663 5.029992c1.5688359-1.2205372 3.4998081-1.8832108 5.4875097-1.8832108 4.935583 1e-7 8.936664 4.0010807 8.936664 8.9366638 0 1.383787-.320631 2.729437-.915876 3.940928" stroke-miterlimit="3.9" stroke-width="1.5"/>
    <path d="m15.646565 19.04938c-1.587077 1.275457-3.562113 1.970729-5.598189 1.970729-4.9355833 0-8.9366639-4.001081-8.9366639-8.936664 1e-7-1.507842.380631-2.9695133 1.0814855-4.2614821" stroke-width="1.5"/>
    <path transform="matrix(-1.0893759 .55467804 -.55467804 -1.0893759 14.328231 7.6701776)" d="m5.6021461 5.6513966-.5293962.2955363-.5293961.2955362.0175124-1.2124772.5206399.3107024z" stroke-miterlimit="3.9" stroke-width="2"/>
    <path transform="matrix(-1.0774745 -.5774569 .5774569 -1.0774745 16.472708 28.603882)" d="m5.6021461 5.6513966-.5293962.2955363-.5293961.2955362.0175124-1.2124772.5206399.3107024z" stroke-miterlimit="3.9" stroke-width="2"/>
  </g>
</svg>
