<svg width="26" height="26" version="1.1" xmlns="http://www.w3.org/2000/svg" xmlns:xlink="http://www.w3.org/1999/xlink">
  <path d="M 1.0507812,0 C 0.48205432,0 0,0.482054 0,1.050781 V 24.949219 C 0,25.517946 0.48205432,26 1.0507812,26 H 24.949219 C 25.517946,26 26,25.517946 26,24.949219 V 1.050781 C 26,0.482054 25.517946,0 24.949219,0 Z M 3,3 H 24.5 V 24.5 H 3 Z" color="#000000" color-rendering="auto" dominant-baseline="auto" image-rendering="auto" shape-rendering="auto" solid-color="#000000" stop-color="#000000" style="font-feature-settings:normal;font-variant-alternates:normal;font-variant-caps:normal;font-variant-east-asian:normal;font-variant-ligatures:normal;font-variant-numeric:normal;font-variant-position:normal;font-variation-settings:normal;inline-size:0;isolation:auto;mix-blend-mode:normal;paint-order:fill markers stroke;shape-margin:0;shape-padding:0;text-decoration-color:#000000;text-decoration-line:none;text-decoration-style:solid;text-indent:0;text-orientation:mixed;text-transform:none;white-space:normal"/>
  <path d="m1 2.5v22.4922h1v-22.4922" color="#000001" color-rendering="auto" dominant-baseline="auto" fill="#1b1b1d" image-rendering="auto" shape-rendering="auto" solid-color="#000001" style="font-feature-settings:normal;font-variant-alternates:normal;font-variant-caps:normal;font-variant-ligatures:normal;font-variant-numeric:normal;font-variant-position:normal;isolation:auto;mix-blend-mode:normal;shape-padding:0;text-decoration-color:#000001;text-decoration-line:none;text-decoration-style:solid;text-indent:0;text-orientation:mixed;text-transform:none;white-space:normal"/>
  <path d="m2 25v-1h22v-21l1-1v23z" fill="#202022"/>
  <path d="m25 1-23.5-0.0078125c-0.276131 2.761e-5 -0.499972 0.223869-0.5 0.5v1.00781h1v-0.5h23" color="#000001" color-rendering="auto" dominant-baseline="auto" fill="#242426" image-rendering="auto" shape-rendering="auto" solid-color="#000001" style="font-feature-settings:normal;font-variant-alternates:normal;font-variant-caps:normal;font-variant-ligatures:normal;font-variant-numeric:normal;font-variant-position:normal;isolation:auto;mix-blend-mode:normal;shape-padding:0;text-decoration-color:#000001;text-decoration-line:none;text-decoration-style:solid;text-indent:0;text-orientation:mixed;text-transform:none;white-space:normal"/>
</svg>
