<svg width="32" height="36" version="1.1" xmlns="http://www.w3.org/2000/svg" viewBox="0 0 16 18">
  <g transform="translate(-3.00003 -1.99955)" fill="none" stroke="#000001" stroke-linejoin="round" stroke-width="1.6">
    <g transform="matrix(.939924 0 0 .939924 1.60035 1.6004)" fill="none" stroke="#000001" stroke-linejoin="round" stroke-width="1.70226">
      <path d="m14.7082 11.4378-4.708 4.7081-4.708-4.7081-1.177 1.1771 5.885 5.8851 5.885-5.8851z"/>
      <path d="m14.7082 8.562-4.7081-4.7081-4.7081 4.7081-1.1771-1.1771 5.8851-5.8851 5.8851 5.8851-1.1771 1.1771z"/>
    </g>
  </g>
  <g transform="matrix(.939924 0 0 .939924 -1.39968 -.399151)" fill="#666668">
    <path d="m14.7082 11.4378-4.708 4.7081-4.708-4.7081-1.177 1.1771 5.885 5.8851 5.885-5.8851z"/>
    <path d="m14.7082 8.562-4.7081-4.7081-4.7081 4.7081-1.1771-1.1771 5.8851-5.8851 5.8851 5.8851-1.1771 1.1771z"/>
  </g>
</svg>
