<svg width="36" height="36" version="1.1" xmlns="http://www.w3.org/2000/svg" viewBox="0 0 18 18">
  <g transform="matrix(-.88128042 0 0 .99998333 17.814781 -.9999333)" fill="#918273" stroke-width=".77781">
    <path transform="matrix(1.1347,0,0,1,-34.251,6)" d="m37.625-5-0.1875 2.625c-0.66019 0.16435-1.2765 0.43313-1.8438 0.78125l-1.9688-1.75-1.9688 1.9688 1.75 1.9688c-0.34382 0.56314-0.61891 1.1878-0.78125 1.8438l-2.625 0.1875v2.75l2.625 0.1875c0.16385 0.66212 0.431 1.2793 0.78125 1.8438l-1.75 1.9688 1.9688 1.9688 2-1.75c0.55851 0.33599 1.1644 0.58862 1.8125 0.75l0.1875 2.6562h2.75l0.1875-2.625c0.66019-0.16435 1.2765-0.43313 1.8438-0.78125l1.9688 1.75 1.9688-1.9688-1.75-1.9688c0.34382-0.56314 0.61891-1.1878 0.78125-1.8438l2.625-0.1875v-2.75l-2.625-0.1875c-0.16435-0.66019-0.43313-1.2765-0.78125-1.8438l1.75-1.9688-1.9688-1.9688-1.9688 1.75c-0.56314-0.34382-1.1878-0.61891-1.8438-0.78125l-0.1875-2.625zm1.375 6c1.6505 0 3 1.3495 3 3s-1.3495 3-3 3-3-1.3495-3-3 1.3495-3 3-3z" color="#000001" fill="#918273" stroke-width=".646064"/>
  </g>
</svg>
