<svg width="64" height="40" version="1.1" viewBox="0 0 8.4667 5.2917" xmlns="http://www.w3.org/2000/svg" xmlns:xlink="http://www.w3.org/1999/xlink">
  <defs>
    <linearGradient id="a" x1="9.315" x2="9.315" y1="19.048" y2="1.0256" gradientUnits="userSpaceOnUse">
      <stop stop-color="#80766b" offset="0"/>
      <stop stop-color="#a89a8c" offset="1"/>
    </linearGradient>
    <linearGradient id="d" x1="1.5856" x2="1.5856" y1="19" y2="1" gradientTransform="matrix(.18111 0 0 .18063 3.2891 291.7)" gradientUnits="userSpaceOnUse" xlink:href="#a"/>
    <linearGradient id="c" x1="1.5856" x2="1.5856" y1="19" y2="1" gradientTransform="matrix(.26458 0 0 .26458 1.1958e-8 291.71)" gradientUnits="userSpaceOnUse" xlink:href="#a"/>
    <linearGradient id="b" x1="-.26458" x2="3.9688" y1="294.35" y2="294.35" gradientTransform="rotate(-90 1.5875 294.35)" gradientUnits="userSpaceOnUse" xlink:href="#a"/>
  </defs>
  <g transform="translate(0 -291.71)">
    <path d="m6.3942 293.94q0 0.10701-0.037968 0.1959-0.036316 0.0889-0.1073 0.16793-0.069331 0.0774-0.32024 0.25848-0.21954 0.15804-0.2278 0.33255h-0.44075q0.0099-0.16958 0.097394-0.30293 0.087489-0.135 0.24761-0.24531 0.18653-0.12677 0.25421-0.20743 0.067681-0.0823 0.067681-0.17945 0-0.12677-0.1007-0.2025-0.1007-0.0774-0.26411-0.0774-0.16672 0-0.28063 0.0971-0.11225 0.0971-0.13206 0.25683l-0.47047-0.0198q0.044569-0.33421 0.27567-0.52024 0.2311-0.18602 0.60087-0.18602 0.38298 0 0.61078 0.17122t0.2278 0.46097zm-1.1473 1.6233v-0.4445h0.47706v0.4445z" fill="url(#d)" stroke-width=".26459"/>
    <path d="m4.4308 292.5c-0.00311 6e-5 -0.00621 2.3e-4 -0.0093 5.2e-4 -0.00138 1.5e-4 -0.00276 3.2e-4 -0.00414 5.1e-4 -0.00122 1.6e-4 -0.00241 3.3e-4 -0.00362 5.2e-4 -0.00172 3.1e-4 -0.00345 6.5e-4 -0.00517 1e-3 -0.00138 3.3e-4 -0.00276 6.7e-4 -0.00414 1e-3 -0.00419 1e-3 -0.00833 2e-3 -0.012401 4e-3 -0.00368 1e-3 -0.0073 3e-3 -0.010853 4e-3 -0.0019 8.2e-4 -0.00381 2e-3 -0.00568 3e-3 -0.00193 9.9e-4 -0.00382 2e-3 -0.00568 3e-3 -6.879e-4 3.4e-4 -0.00138 6.9e-4 -0.00206 1e-3 -0.00265 2e-3 -0.00523 3e-3 -0.00775 5e-3 -0.00159 1e-3 -0.00313 2e-3 -0.00465 4e-3 -0.00302 2e-3 -0.00595 4e-3 -0.00878 7e-3 -0.00177 2e-3 -0.00349 3e-3 -0.00517 5e-3l-1.1276 1.1245c-0.00309 3e-3 -0.00602 6e-3 -0.00878 0.01-0.00553 7e-3 -0.010374 0.014-0.01447 0.0217-0.00209 4e-3 -0.00399 8e-3 -0.00569 0.0119-0.00159 4e-3 -0.00298 9e-3 -0.00414 0.0129-0.00124 4e-3 -0.00228 8e-3 -0.0031 0.0124v5.1e-4c-0.00161 8e-3 -0.00249 0.0161-0.00259 0.0243-2.9e-6 5.2e-4 -2.9e-6 1e-3 0 2e-3l-2.05e-5 2.3121c7.4e-6 0.073 0.059232 0.13228 0.13229 0.13229h4.4979c0.073059-1e-5 0.13228-0.0592 0.13229-0.13229l-1.77e-5 -3.4396c-7.4e-6 -0.0731-0.059232-0.13228-0.13229-0.13229h-3.3708c-0.00122-2e-5 -0.00241-2e-5 -0.00362 0zm0.13591 0.26458h3.1062l1.77e-5 3.175h-4.2333l1.77e-5 -2.0505h0.99481c0.073059 0 0.13228-0.0592 0.13229-0.13229zm-0.26458 0.18656 3.55e-5 0.67333h-0.67493z" color="#000001" color-rendering="auto" dominant-baseline="auto" fill="url(#c)" image-rendering="auto" shape-rendering="auto" solid-color="#000001" stroke-width=".26458" style="font-feature-settings:normal;font-variant-alternates:normal;font-variant-caps:normal;font-variant-ligatures:normal;font-variant-numeric:normal;font-variant-position:normal;isolation:auto;mix-blend-mode:normal;shape-padding:0;text-decoration-color:#000001;text-decoration-line:none;text-decoration-style:solid;text-indent:0;text-orientation:mixed;text-transform:none;white-space:normal"/>
    <path d="m0.52916 294.62v-0.52917h0.79375v-0.79375h0.52917v0.79375h0.79375v0.52917h-0.79375v0.79375h-0.52917v-0.79375z" fill="url(#b)"/>
  </g>
</svg>
