<svg width="42" height="26" version="1.1" xmlns="http://www.w3.org/2000/svg">
  <path d="m1.80078 1c-0.434551 0-0.800781 0.36623-0.800781 0.800781v22.3984c0 0.434551 0.36623 0.800781 0.800781 0.800781h38.3985c0.434551 0 0.800781-0.36623 0.800781-0.800781v-22.3984c0-0.434551-0.36623-0.800781-0.800781-0.800781zm1.19922 1h36.0001c0.562649 0 1 0.437351 1 1v20c0 0.562649-0.437351 1-1 1h-36.0001c-0.562649 0-1-0.437351-1-1v-20c0-0.562649 0.437351-1 1-1z" color="#000000" color-rendering="auto" dominant-baseline="auto" fill="#000001" image-rendering="auto" shape-rendering="auto" solid-color="#000000" style="font-feature-settings:normal;font-variant-alternates:normal;font-variant-caps:normal;font-variant-ligatures:normal;font-variant-numeric:normal;font-variant-position:normal;isolation:auto;mix-blend-mode:normal;paint-order:fill markers stroke;shape-padding:0;text-decoration-color:#000000;text-decoration-line:none;text-decoration-style:solid;text-indent:0;text-orientation:mixed;text-transform:none;white-space:normal"/>
  <path d="m3 2c-0.562649 0-1 0.437352-1 1v0.5h1.10742c0.150078-0.293496 0.446907-0.5 0.800781-0.5h34.1837c0.353875 0 0.650703 0.206504 0.800781 0.5h1.10742v-0.5c0-0.562648-0.437351-1-1-1z" color="#000000" color-rendering="auto" dominant-baseline="auto" fill="#dcdcdc" fill-opacity=".0705882" image-rendering="auto" shape-rendering="auto" solid-color="#000000" style="font-feature-settings:normal;font-variant-alternates:normal;font-variant-caps:normal;font-variant-ligatures:normal;font-variant-numeric:normal;font-variant-position:normal;isolation:auto;mix-blend-mode:normal;paint-order:fill markers stroke;shape-padding:0;text-decoration-color:#000000;text-decoration-line:none;text-decoration-style:solid;text-indent:0;text-orientation:mixed;text-transform:none;white-space:normal"/>
  <path d="m3 24c-0.562649 0-1-0.437352-1-1v-19.5h1v18.5918c0 0.503636 0.404567 0.908203 0.908203 0.908203h34.1837c0.503636 0 1.3842-0.743651 0.908203-0.908203v-18.5918h1v19.5c0 0.562648-0.437351 1-1 1z" color="#000000" color-rendering="auto" dominant-baseline="auto" fill="#d1d1d1" fill-opacity=".0196078" image-rendering="auto" shape-rendering="auto" solid-color="#000000" style="font-feature-settings:normal;font-variant-alternates:normal;font-variant-caps:normal;font-variant-ligatures:normal;font-variant-numeric:normal;font-variant-position:normal;isolation:auto;mix-blend-mode:normal;paint-order:fill markers stroke;shape-padding:0;text-decoration-color:#000000;text-decoration-line:none;text-decoration-style:solid;text-indent:0;text-orientation:mixed;text-transform:none;white-space:normal"/>
</svg>
