<svg width="52" height="26" version="1.1" xmlns="http://www.w3.org/2000/svg">
  <path d="m0.800731 0c-0.434551 0-0.800782 0.36623-0.800781 0.800781l5.05e-5 24.3984c8.99436e-7 0.434551 0.36623 0.800781 0.800781 0.800781h50.3986c0.434551 0 0.800782-0.36623 0.800781-0.800781l-5.1e-5 -24.3984c-1e-6 -0.434551-0.36623-0.800781-0.800781-0.800781zm1.19922 1h48.0001c0.562649 0 0.999999 0.437351 1 1l5.1e-5 22c1e-6 0.562649-0.437351 1-1 1h-48.0001c-0.562649 0-0.999999-0.437351-1-1l-5.05e-5 -22c-1.29e-6 -0.562649 0.437351-1 1-1z" color="#000000" color-rendering="auto" dominant-baseline="auto" fill="#000001" image-rendering="auto" shape-rendering="auto" solid-color="#000000" style="font-feature-settings:normal;font-variant-alternates:normal;font-variant-caps:normal;font-variant-ligatures:normal;font-variant-numeric:normal;font-variant-position:normal;isolation:auto;mix-blend-mode:normal;paint-order:fill markers stroke;shape-padding:0;text-decoration-color:#000000;text-decoration-line:none;text-decoration-style:solid;text-indent:0;text-orientation:mixed;text-transform:none;white-space:normal"/>
  <path d="m1.99995 1c-0.562649 0-1.00006 0.437352-1 1v0.5h1.10742c0.150078-0.293496 0.446907-0.5 0.800781-0.5h46.1837c0.353875 0 0.650703 0.206504 0.800781 0.5h1.10742v-0.5c0-0.562648-0.437351-1-1-1z" color="#000000" color-rendering="auto" dominant-baseline="auto" fill="#dcdcdc" fill-opacity=".0705882" image-rendering="auto" shape-rendering="auto" solid-color="#000000" style="font-feature-settings:normal;font-variant-alternates:normal;font-variant-caps:normal;font-variant-ligatures:normal;font-variant-numeric:normal;font-variant-position:normal;isolation:auto;mix-blend-mode:normal;paint-order:fill markers stroke;shape-padding:0;text-decoration-color:#000000;text-decoration-line:none;text-decoration-style:solid;text-indent:0;text-orientation:mixed;text-transform:none;white-space:normal"/>
  <path d="m2 25c-0.562649 0-1-0.437352-1-1l-5.05e-5 -21.5h1l5.05e-5 15.0605v5.53125c0 0.503636 0.404567 0.908203 0.908203 0.908203h46.1837c0.503636 0 1.40082-0.803405 0.908203-0.908203v-5.53125l-5.1e-5 -15.0605h1l5.1e-5 21.5c1e-6 0.562648-0.437351 1-1 1z" color="#000000" color-rendering="auto" dominant-baseline="auto" fill="#d1d1d1" fill-opacity=".0196078" image-rendering="auto" shape-rendering="auto" solid-color="#000000" style="font-feature-settings:normal;font-variant-alternates:normal;font-variant-caps:normal;font-variant-ligatures:normal;font-variant-numeric:normal;font-variant-position:normal;isolation:auto;mix-blend-mode:normal;paint-order:fill markers stroke;shape-padding:0;text-decoration-color:#000000;text-decoration-line:none;text-decoration-style:solid;text-indent:0;text-orientation:mixed;text-transform:none;white-space:normal"/>
</svg>
