<svg width="162" height="42" version="1.1" xmlns="http://www.w3.org/2000/svg" xmlns:xlink="http://www.w3.org/1999/xlink">
  <defs>
    <linearGradient id="d" x1="74.991997" x2="13.485" y1="-.1471" y2="88.765999" gradientTransform="matrix(.44669754 0 0 .44869755 97.070475 1.0001315)" gradientUnits="userSpaceOnUse">
      <stop stop-color="#120e1e" offset="0"/>
      <stop stop-color="#1b1426" offset=".0231"/>
      <stop stop-color="#442349" offset=".1446"/>
      <stop stop-color="#652866" offset=".2552"/>
      <stop stop-color="#7c287b" offset=".3511"/>
      <stop stop-color="#8b2589" offset=".4286"/>
      <stop stop-color="#91268f" offset=".478"/>
      <stop stop-color="#ed1b26" offset="1"/>
    </linearGradient>
    <linearGradient id="f" x1="74.998001" x2="13.488" y1="-.15009999" y2="88.766998" gradientTransform="matrix(.44669754 0 0 .44869755 69.725624 1.0001315)" gradientUnits="userSpaceOnUse">
      <stop stop-color="#381f1f" offset="0"/>
      <stop stop-color="#3a1f20" offset=".0017"/>
      <stop stop-color="#5b2825" offset=".0376"/>
      <stop stop-color="#7c2f28" offset=".0757"/>
      <stop stop-color="#9b2e28" offset=".1173"/>
      <stop stop-color="#b62c28" offset=".1626"/>
      <stop stop-color="#cc2626" offset=".2129"/>
      <stop stop-color="#dc2225" offset=".271"/>
      <stop stop-color="#e81f25" offset=".3438"/>
      <stop stop-color="#ed1b26" offset=".478"/>
      <stop stop-color="#f7921e" offset="1"/>
    </linearGradient>
    <linearGradient id="g" x1="74.992996" x2="13.486" y1="-.1462" y2="88.766998" gradientTransform="matrix(.44669754 0 0 .44869755 124.40932 1.0001315)" gradientUnits="userSpaceOnUse">
      <stop stop-color="#39b549" offset=".478"/>
      <stop stop-color="#1a76bc" offset="1"/>
    </linearGradient>
    <linearGradient id="e" x2="0" y1=".028000001" y2="89.146004" gradientTransform="matrix(.4467 0 0 .4487 65.950788 .01288623)" gradientUnits="userSpaceOnUse" xlink:href="#a"/>
    <linearGradient id="a" x2="0" y1=".028000001" y2="89.146004" gradientUnits="userSpaceOnUse">
      <stop stop-color="#ffd235" offset="0"/>
      <stop stop-color="#feb30a" offset="1"/>
    </linearGradient>
    <linearGradient id="h" x2="0" y1=".028000001" y2="89.146004" gradientTransform="matrix(.4467 0 0 .4487 93.288828 .01288623)" gradientUnits="userSpaceOnUse" xlink:href="#a"/>
    <linearGradient id="i" x2="0" y1=".028000001" y2="89.146004" gradientTransform="matrix(.4467 0 0 .4487 120.63134 .01288623)" gradientUnits="userSpaceOnUse" xlink:href="#a"/>
    <linearGradient id="b" x2="0" y1=".028000001" y2="89.146004" gradientTransform="matrix(.4467 0 0 .4487 51.508977 .01288623)" gradientUnits="userSpaceOnUse" xlink:href="#a"/>
    <linearGradient id="c" x2="0" y1=".028000001" y2="89.146004" gradientTransform="matrix(.4467 0 0 .4487 0 .01288623)" gradientUnits="userSpaceOnUse" xlink:href="#a"/>
  </defs>
  <g transform="matrix(2.2432597,0,0,2.2432597,-1.2432597,-5.9256029)" fill="none" stroke="#0f0f0f" stroke-linejoin="round" stroke-width=".89155972">
    <path d="m54.77413 20.912646 12.168832-17.825302h5.378751l-12.166603 17.825302z"/>
    <path d="m30.397238 20.912646 12.16794-17.825302h5.381871l-12.166603 17.825302z"/>
    <path d="m42.587021 20.912646 12.168832-17.825302h5.379197l-12.167049 17.825302z"/>
  </g>
  <path d="m121.62934 40.986892 27.29784-39.9867807h12.06593l-27.29284 39.9867807z" fill="url(#g)" stroke-width="2"/>
  <path d="m66.945639 40.986892 27.29585-39.9867807h12.072931l-27.292847 39.9867807z" fill="url(#f)" stroke-width="2"/>
  <path d="m94.290488 40.986892 27.297852-39.9867807h12.06693l-27.29385 39.9867807z" fill="url(#d)" stroke-width="2"/>
  <g transform="matrix(.9999945 0 0 .9999945 1 .9871116)" fill="none" stroke="#0f0f0f" stroke-linejoin="round" stroke-width="2.000011">
    <path d="m105.31533 40.000133-27.293368-39.98724677h-12.071174l27.291583 39.98724677z"/>
    <path d="m132.65784 40.000133-27.29828-39.98724677h-12.070732l27.297832 39.98724677z"/>
    <path d="m160.0008 40.000133-27.29829-39.98724677h-12.07117l27.29828 39.98724677z"/>
    <path d="m51.508977 0.01288623h10.325471v39.98724677h-10.325471z"/>
    <path d="m10.124456 40.000133v-23.416756l13.077589 19.939331h0.26668l13.213386-20.142143v23.619568h10.260252v-39.98724677h-11.129977l-12.343661 19.93888177-12.337408-19.93888177h-11.131317v39.98724677z"/>
  </g>
  <g transform="matrix(.9999945 0 0 .9999945 1 .98711384)" stroke-width="2.000011">
    <path d="m105.31533 40.000133-27.293368-39.98724677h-12.071174l27.291583 39.98724677z" fill="url(#e)"/>
    <path d="m132.65784 40.000133-27.29828-39.98724677h-12.070732l27.297832 39.98724677z" fill="url(#h)"/>
    <path d="m160.0008 40.000133-27.29829-39.98724677h-12.07117l27.29828 39.98724677z" fill="url(#i)"/>
    <path d="m51.508977 0.01288623h10.325471v39.98724677h-10.325471z" fill="url(#b)" fill-rule="evenodd"/>
    <path d="m10.124456 40.000133v-23.416756l13.077589 19.939331h0.26668l13.213386-20.142143v23.619568h10.260252v-39.98724677h-11.129977l-12.343661 19.93888177-12.337408-19.93888177h-11.131317v39.98724677z" fill="url(#c)"/>
  </g>
</svg>
