<svg width="160" height="5" version="1.1" xmlns="http://www.w3.org/2000/svg">
  <rect x="1" width="1" height="5" color="#000000" fill="#0ed10e"/>
  <rect x="3" width="1" height="5" color="#000000" fill="#0ed10e"/>
  <rect x="5" width="1" height="5" color="#000000" fill="#0ed10e"/>
  <rect x="7" width="1" height="5" color="#000000" fill="#0ed10e"/>
  <rect x="9" width="1" height="5" color="#000000" fill="#0ed10e"/>
  <rect x="11" width="1" height="5" color="#000000" fill="#0ed10e"/>
  <rect x="13" width="1" height="5" color="#000000" fill="#0ed10e"/>
  <rect x="15" width="1" height="5" color="#000000" fill="#0ed10e"/>
  <rect x="17" width="1" height="5" color="#000000" fill="#0ed10e"/>
  <rect x="19" width="1" height="5" color="#000000" fill="#0ed10e"/>
  <rect x="21" width="1" height="5" color="#000000" fill="#0ed10e"/>
  <rect x="23" width="1" height="5" color="#000000" fill="#0ed10e"/>
  <rect x="25" width="1" height="5" color="#000000" fill="#0ed10e"/>
  <rect x="27" width="1" height="5" color="#000000" fill="#0ed10e"/>
  <rect x="29" width="1" height="5" color="#000000" fill="#0ed10e"/>
  <rect x="31" width="1" height="5" color="#000000" fill="#0ed10e"/>
  <rect x="33" width="1" height="5" color="#000000" fill="#0ed10e"/>
  <rect x="35" width="1" height="5" color="#000000" fill="#0ed10e"/>
  <rect x="37" width="1" height="5" color="#000000" fill="#0ed10e"/>
  <rect x="39" width="1" height="5" color="#000000" fill="#0ed10e"/>
  <rect x="41" width="1" height="5" color="#000000" fill="#0ed10e"/>
  <rect x="43" width="1" height="5" color="#000000" fill="#0ed10e"/>
  <rect x="45" width="1" height="5" color="#000000" fill="#0ed10e"/>
  <rect x="47" width="1" height="5" color="#000000" fill="#0ed10e"/>
  <rect x="49" width="1" height="5" color="#000000" fill="#0ed10e"/>
  <rect x="51" width="1" height="5" color="#000000" fill="#0ed10e"/>
  <rect x="53" width="1" height="5" color="#000000" fill="#0ed10e"/>
  <rect x="55" width="1" height="5" color="#000000" fill="#0ed10e"/>
  <rect x="57" width="1" height="5" color="#000000" fill="#0ed10e"/>
  <rect x="59" width="1" height="5" color="#000000" fill="#0ed10e"/>
  <rect x="61" width="1" height="5" color="#000000" fill="#0ed10e"/>
  <rect x="63" width="1" height="5" color="#000000" fill="#0ed10e"/>
  <rect x="65" width="1" height="5" color="#000000" fill="#0ed10e"/>
  <rect x="67" width="1" height="5" color="#000000" fill="#0ed10e"/>
  <rect x="69" width="1" height="5" color="#000000" fill="#0ed10e"/>
  <rect x="71" width="1" height="5" color="#000000" fill="#0ed10e"/>
  <rect x="73" width="1" height="5" color="#000000" fill="#0ed10e"/>
  <rect x="75" width="1" height="5" color="#000000" fill="#0ed10e"/>
  <rect x="77" width="1" height="5" color="#000000" fill="#0ed10e"/>
  <rect x="79" width="1" height="5" color="#000000" fill="#0ed10e"/>
  <rect x="81" width="1" height="5" color="#000000" fill="#0ed10e"/>
  <rect x="83" width="1" height="5" color="#000000" fill="#0ed10e"/>
  <rect x="85" width="1" height="5" color="#000000" fill="#0ed10e"/>
  <rect x="87" width="1" height="5" color="#000000" fill="#0ed10e"/>
  <rect x="89" width="1" height="5" color="#000000" fill="#0ed10e"/>
  <rect x="91" width="1" height="5" color="#000000" fill="#0ed10e"/>
  <rect x="93" width="1" height="5" color="#000000" fill="#0ed10e"/>
  <rect x="95" width="1" height="5" color="#000000" fill="#0ed10e"/>
  <rect x="97" width="1" height="5" color="#000000" fill="#0ed10e"/>
  <rect x="99" width="1" height="5" color="#000000" fill="#0ed10e"/>
  <rect x="101" width="1" height="5" color="#000000" fill="#0ed10e"/>
  <rect x="103" width="1" height="5" color="#000000" fill="#0ed10e"/>
  <rect x="105" width="1" height="5" color="#000000" fill="#0ed10e"/>
  <rect x="107" width="1" height="5" color="#000000" fill="#0ed10e"/>
  <rect x="109" width="1" height="5" color="#000000" fill="#0ed10e"/>
  <rect x="111" width="1" height="5" color="#000000" fill="#0ed10e"/>
  <rect x="113" width="1" height="5" color="#000000" fill="#0ed10e"/>
  <rect x="115" width="1" height="5" color="#000000" fill="#0ed10e"/>
  <rect x="117" width="1" height="5" color="#000000" fill="#0ed10e"/>
  <rect x="119" width="1" height="5" color="#000000" fill="#0ed10e"/>
  <rect x="121" width="1" height="5" color="#000000" fill="#0ed10e"/>
  <rect x="123" width="1" height="5" color="#000000" fill="#0ed10e"/>
  <rect x="125" width="1" height="5" color="#000000" fill="#0ed10e"/>
  <rect x="127" width="1" height="5" color="#000000" fill="#0ed10e"/>
  <rect x="129" width="1" height="5" color="#000000" fill="#0ed10e"/>
  <rect x="131" width="1" height="5" color="#000000" fill="#0ed10e"/>
  <rect x="133" width="1" height="5" color="#000000" fill="#0ed10e"/>
  <rect x="135" width="1" height="5" color="#000000" fill="#0ed10e"/>
  <rect x="137" width="1" height="5" color="#000000" fill="#0ed10e"/>
  <rect x="139" width="1" height="5" color="#000000" fill="#0ed10e"/>
  <rect x="141" width="1" height="5" color="#000000" fill="#0ed10e"/>
  <rect x="143" width="1" height="5" color="#000000" fill="#0ed10e"/>
  <rect x="145" width="1" height="5" color="#000000" fill="#0ed10e"/>
  <rect x="147" width="1" height="5" color="#000000" fill="#0ed10e"/>
  <rect x="149" width="1" height="5" color="#000000" fill="#0ed10e"/>
  <rect x="151" width="1" height="5" color="#000000" fill="#0ed10e"/>
  <rect x="153" width="1" height="5" color="#000000" fill="#0ed10e"/>
  <rect x="155" width="1" height="5" color="#000000" fill="#0ed10e"/>
  <rect x="157" width="1" height="5" color="#000000" fill="#0ed10e"/>
  <rect x="159" width="1" height="5" color="#000000" fill="#0ed10e"/>
</svg>
