<svg width="110" height="110" version="1.1" xmlns="http://www.w3.org/2000/svg">
		<g shape-rendering="auto">
				<path d="m54.20605 3.0989052c-2.87145 0-5.20605-.1267242-5.20605 2.5090193v35.6198825c0 2.635743 2.3346 4.778706 5.20605 4.778706h1.587899c2.871451 0 5.206051-2.142963 5.206051-4.778706v-35.6198825c0-2.6357435-2.3346-2.5090193-5.206051-2.5090193z" color="#000000" color-rendering="auto" dominant-baseline="auto" fill-opacity=".62745098" image-rendering="auto" solid-color="#000000" stroke-width=".99999994" style="font-feature-settings:normal;font-variant-alternates:normal;font-variant-caps:normal;font-variant-ligatures:normal;font-variant-numeric:normal;font-variant-position:normal;isolation:auto;mix-blend-mode:normal;shape-padding:0;text-decoration-color:#000000;text-decoration-line:none;text-decoration-style:solid;text-indent:0;text-orientation:mixed;text-transform:none;white-space:normal"/>
				<path d="m54.4707 3.3479515c-1.9143 0-3.4707 2.9e-6-3.4707 1.6032609v35.2354076c0 2.206414 1.5564 4.000313 3.4707 4.000313h1.0586c1.9143 0 3.4707-1.793899 3.4707-4.000313v-35.2354076c0-1.603258-1.5564-1.6032609-3.4707-1.6032609z" color="#000000" color-rendering="auto" dominant-baseline="auto" fill-opacity=".62745098" image-rendering="auto" solid-color="#000000" stroke-width=".99999994" style="font-feature-settings:normal;font-variant-alternates:normal;font-variant-caps:normal;font-variant-ligatures:normal;font-variant-numeric:normal;font-variant-position:normal;isolation:auto;mix-blend-mode:normal;shape-padding:0;text-decoration-color:#000000;text-decoration-line:none;text-decoration-style:solid;text-indent:0;text-orientation:mixed;text-transform:none;white-space:normal"/>
				<path d="m54.999859 3.9908904s1.99985-.00289 1.999861 1.3758096l.00028 35.5113c1.1e-5 1.378802-2.000141 1.37544-2.000141 1.37544s-1.999568.0033-1.999579-1.37544l-.00028-35.5113c-1.1e-5-1.3788008 1.999859-1.3758096 1.999859-1.3758096z" color="#000000" color-rendering="auto" dominant-baseline="auto" fill="#1af000" fill-opacity=".96651001" image-rendering="auto" solid-color="#000000" stroke-width=".95523119" style="font-feature-settings:normal;font-variant-alternates:normal;font-variant-caps:normal;font-variant-ligatures:normal;font-variant-numeric:normal;font-variant-position:normal;isolation:auto;mix-blend-mode:normal;shape-padding:0;text-decoration-color:#000000;text-decoration-line:none;text-decoration-style:solid;text-indent:0;text-orientation:mixed;text-transform:none;white-space:normal"/>
		</g>
</svg>
