<?xml version="1.0" encoding="UTF-8"?>
<svg width="58" height="27" version="1.1" viewBox="0 0 15.346 7.1439" xmlns="http://www.w3.org/2000/svg" xmlns:xlink="http://www.w3.org/1999/xlink"><defs><linearGradient id="linearGradient8762" x1="762.5" x2="762.5" y1="119.01" y2="158.99" gradientTransform="matrix(.25135 0 0 .25135 -88.524 90.712)" gradientUnits="userSpaceOnUse"><stop stop-color="#303030" offset="0"/><stop stop-color="#181818" offset="1"/></linearGradient><linearGradient id="linearGradient8764" x1="748" x2="748" y1="139" y2="169" gradientTransform="translate(-170)" gradientUnits="userSpaceOnUse"><stop stop-opacity=".75294" offset="0"/><stop stop-opacity="0" offset="1"/></linearGradient><filter id="filter7885"><feGaussianBlur stdDeviation="0.6"/></filter><linearGradient id="linearGradient8766" x1="763" x2="763" y1="119" y2="159" gradientTransform="matrix(.19844 0 0 .19844 -48.149 98.067)" gradientUnits="userSpaceOnUse"><stop stop-color="#404040" offset="0"/><stop stop-color="#282828" offset="1"/></linearGradient><linearGradient id="linearGradient8504"><stop stop-opacity=".29804" offset="0"/><stop stop-opacity=".060976" offset=".5"/><stop stop-opacity="0" offset="1"/></linearGradient><linearGradient id="linearGradient8638" x1="754" x2="754" y1="287" y2="303" gradientTransform="translate(-9.0139 79.594)" gradientUnits="userSpaceOnUse"><stop stop-color="#202020" offset="0"/><stop stop-color="#181818" offset="1"/></linearGradient><linearGradient id="linearGradient8640" x1="747" x2="799" y1="285.5" y2="285.5" gradientTransform="translate(-9.0139 79.594)" gradientUnits="userSpaceOnUse"><stop stop-color="#fff" stop-opacity="0" offset="0"/><stop stop-color="#fff" stop-opacity=".39216" offset=".5"/><stop stop-color="#fff" stop-opacity="0" offset="1"/></linearGradient><linearGradient id="linearGradient8642" x1="747" x2="799" y1="285.5" y2="285.5" gradientTransform="translate(-9.0139 102.59)" gradientUnits="userSpaceOnUse"><stop stop-color="#fff" stop-opacity="0" offset="0"/><stop stop-color="#fff" stop-opacity=".39216" offset=".5"/><stop stop-color="#fff" stop-opacity="0" offset="1"/></linearGradient><linearGradient id="linearGradient8644" x1="747" x2="799" y1="285.5" y2="285.5" gradientTransform="matrix(.38462 0 0 1 79.287 -1022)" gradientUnits="userSpaceOnUse"><stop stop-color="#fff" stop-opacity="0" offset="0"/><stop stop-color="#fff" stop-opacity=".39216" offset=".5"/><stop stop-color="#fff" stop-opacity="0" offset="1"/></linearGradient><linearGradient id="linearGradient8646" x1="747" x2="799" y1="285.5" y2="285.5" gradientTransform="matrix(.38462 0 0 1 79.287 -1077)" gradientUnits="userSpaceOnUse"><stop stop-color="#fff" stop-opacity="0" offset="0"/><stop stop-color="#fff" stop-opacity=".39216" offset=".5"/><stop stop-color="#fff" stop-opacity="0" offset="1"/></linearGradient><linearGradient id="linearGradient8648" x1="579" x2="579" y1="290" y2="296" gradientTransform="translate(170.99 75.594)" gradientUnits="userSpaceOnUse" xlink:href="#linearGradient8504"/><linearGradient id="linearGradient8650" x1="579" x2="579" y1="290" y2="296" gradientTransform="rotate(-90 700.29 253.3)" gradientUnits="userSpaceOnUse" xlink:href="#linearGradient8504"/><linearGradient id="linearGradient8652" x1="579" x2="579" y1="290" y2="296" gradientTransform="matrix(0 -1 -1 0 1081 953.59)" gradientUnits="userSpaceOnUse" xlink:href="#linearGradient8504"/></defs><g transform="translate(-102.03 -133.79)" display="none"><rect x="95.851" y="117.98" width="14.817" height="14.817" rx=".79375" ry=".79375" display="inline" fill="#fff" fill-opacity=".031372"/><circle cx="103.26" cy="125.65" r="5.2917" display="inline" fill-opacity=".50196"/><path d="m96.917 125.86c-0.0052 0.10557-0.0083 0.21561-0.0083 0.32247 0 1.1574 0.31065 2.2406 0.85163 3.175v-0.52917c-0.50847-0.87827-0.80854-1.8891-0.84336-2.9683zm0.84336 2.9683c0.05542 0.0956 0.11349 0.18875 0.17363 0.28112l0.678-0.42995c0.04787 0.0734 0.09762 0.14399 0.14883 0.21498 0.02096 0.0291 0.03638 0.0623 0.05788 0.0909 0.04113 0.0548 0.08922 0.10388 0.13229 0.15708 0.02207 0.0273 0.04358 0.0558 0.06615 0.0827 0.02133 0.0253 0.04438 0.0495 0.06615 0.0744 0.07195 0.0827 0.14663 0.16146 0.22324 0.23978 0.0069 7e-3 0.0096 0.0178 0.01654 0.0248 0.05152 0.0521 0.10357 0.0988 0.1571 0.14884 0.08354 0.0781 0.16809 0.15037 0.25632 0.22324 0.06369 0.0526 0.12415 0.10732 0.19017 0.1571 0.04867 0.0368 0.09893 0.0722 0.14883 0.10748 0.0466 0.0328 0.093 0.0679 0.14057 0.0992 0.0512 0.0339 0.1047 0.067 0.1571 0.0992 0.0535 0.0327 0.11069 0.06 0.16537 0.0909 0.0138 8e-3 0.0275 0.0171 0.0413 0.0248 0.0795 0.0441 0.15796 0.092 0.23979 0.13231 0.0542 0.0267 0.11016 0.0494 0.16536 0.0744 0.049 0.0222 0.0991 0.0454 0.14883 0.0661 0.0193 8e-3 0.0384 0.017 0.0579 0.0248 0.10597 0.0428 0.21336 0.0794 0.32245 0.11575 0.0429 0.0143 0.0889 0.0281 0.1323 0.0413 0.0442 0.0135 0.0877 0.029 0.13229 0.0413 0.0241 7e-3 0.0502 0.0102 0.0744 0.0165 0.0938 0.0246 0.18545 0.0464 0.28111 0.0661 0.0717 0.0149 0.14224 0.0293 0.21498 0.0413 0.0632 0.0104 0.12621 0.0165 0.19016 0.0248 0.0406 5e-3 0.0833 0.0122 0.12403 0.0165 0.19543 0.0209 0.39418 0.0331 0.59531 0.0331s0.3999-0.0121 0.59531-0.0331c0.0414-4e-3 0.0828-0.0112 0.12402-0.0165 0.064-8e-3 0.12693-0.0144 0.19017-0.0248 0.0727-0.0121 0.14323-0.0265 0.21498-0.0413 0.0731-0.0151 0.14297-0.0317 0.21497-0.0496 0.0907-0.0227 0.184-0.0473 0.27284-0.0744 0.0725-0.0221 0.14381-0.0494 0.21499-0.0744 0.20937-0.0735 0.41488-0.15094 0.61187-0.24804 0.0652-0.0321 0.12644-0.073 0.19015-0.10749 0.0604-0.0329 0.12284-0.0642 0.18191-0.0992 0.0551-0.0326 0.11147-0.0648 0.16535-0.0992 0.047-0.0302 0.0945-0.0594 0.14057-0.091 0.047-0.0321 0.0946-0.0657 0.14056-0.0992 0.0913-0.0667 0.17759-0.14296 0.26458-0.21498 0.0882-0.0729 0.17277-0.14517 0.25632-0.22324 0.0535-0.0501 0.10558-0.0967 0.1571-0.14884 0.0273-0.0276 0.0559-0.0545 0.0829-0.0827 0.13647-0.14404 0.26784-0.29681 0.38858-0.45475 0.0169-0.022 0.0331-0.0439 0.0496-0.0661 0.0542-0.0731 0.10642-0.14748 0.1571-0.22324 0.0123-0.0184 0.021-0.0394 0.0331-0.0579l0.678 0.42995c0.0601-0.0924 0.1182-0.18549 0.17362-0.28112l-0.69453-0.39687-0.22324-0.13231c-0.0541 0.0935-0.11408 0.18312-0.17364 0.27287-0.0166 0.0251-0.0326 0.0497-0.0496 0.0744-0.0434 0.0631-0.0864 0.12909-0.1323 0.19017-0.0568 0.0752-0.1213 0.15122-0.1819 0.22324-0.0693 0.0824-0.14087 0.16182-0.21497 0.23978-0.0659 0.0693-0.12893 0.13277-0.19845 0.19844-0.017 0.0161-0.0324 0.0337-0.0496 0.0496-0.0523 0.0482-0.11112 0.0945-0.16536 0.14056-0.0462 0.0392-0.093 0.0781-0.14056 0.11575-0.037 0.0293-0.078 0.0543-0.11575 0.0827-0.025 0.0188-0.049 0.0396-0.0744 0.0579-0.0825 0.0595-0.1622 0.11883-0.24806 0.17364-0.091 0.0581-0.18639 0.11277-0.28111 0.16536-0.0947 0.0526-0.19121 0.10202-0.28938 0.14883-0.0816 0.0388-0.16434 0.0728-0.24806 0.10748-0.017 7e-3 -0.0325 0.0179-0.0496 0.0248-0.0738 0.0297-0.14784 0.0563-0.22323 0.0827-0.0739 0.0259-0.14787 0.0518-0.22327 0.0744-0.0354 0.0107-0.0717 0.0231-0.10748 0.0331-0.0246 7e-3 -0.0497 0.0101-0.0744 0.0165-0.20351 0.0534-0.40777 0.0951-0.62012 0.12402-0.0905 0.0124-0.1809 0.0253-0.27285 0.0331-0.14675 0.0123-0.29653 0.0166-0.44648 0.0166-0.12165 0-0.24423-1.7e-4 -0.3638-8e-3 -0.028-2e-3 -0.0549-6e-3 -0.0825-8e-3 -0.16268-0.0136-0.32142-0.0381-0.47955-0.0661-0.0299-5e-3 -0.0613-0.0107-0.0909-0.0165-0.0193-4e-3 -0.0386-4e-3 -0.0579-8e-3 -0.15258-0.0315-0.29902-0.0715-0.44649-0.11576-0.0754-0.0226-0.14929-0.0485-0.22324-0.0744-0.093-0.0326-0.18225-0.0699-0.27281-0.10749-0.0836-0.0346-0.16671-0.0688-0.24805-0.10748-0.0982-0.0468-0.19466-0.0962-0.28939-0.14883-0.0947-0.0526-0.19008-0.10725-0.28114-0.16537-0.0858-0.0548-0.16564-0.11411-0.24804-0.17363-0.0255-0.0184-0.0493-0.039-0.0744-0.0579-0.0378-0.0283-0.0787-0.0534-0.11577-0.0827-0.04716-0.0374-0.09472-0.0768-0.14056-0.11575-0.0552-0.0469-0.11214-0.0915-0.16536-0.14056-0.01723-0.0159-0.03259-0.0335-0.04961-0.0496-0.06819-0.0645-0.13374-0.13042-0.19844-0.19844-0.0741-0.078-0.14568-0.15744-0.21497-0.23978-0.05191-0.0617-0.108-0.12613-0.1571-0.19017-0.0083-0.0108-0.01659-0.0222-0.02481-0.0331-0.04663-0.0618-0.08834-0.12634-0.13229-0.19017-0.0168-0.0244-0.03321-0.0497-0.04961-0.0744-0.0077-0.0116-0.01722-0.0214-0.02482-0.0331-0.04996-0.0767-0.10276-0.16039-0.14882-0.23979l-0.22324 0.13231-0.69453 0.39687zm10.997 0v0.52917c0.54098-0.93444 0.85163-2.0176 0.85163-3.175 0-0.10686-3e-3 -0.2169-8e-3 -0.32247-0.0348 1.0792-0.33489 2.09-0.84336 2.9683z" display="inline" fill="#fff" fill-opacity=".062745"/><circle cx="103.26" cy="125.65" r="5.0271" display="inline" fill="url(#linearGradient8762)"/><path d="m103.26 119.3c-3.507 0-6.35 2.843-6.35 6.35 0 1.1574 0.31065 2.2406 0.85163 3.175l0.91778-0.52918c-0.45115-0.77889-0.71107-1.6809-0.71107-2.6458 0-2.9225 2.3692-5.2917 5.2917-5.2917s5.2917 2.3692 5.2917 5.2917c0 0.9649-0.25992 1.8669-0.71107 2.6458l0.91777 0.52918c0.54098-0.93443 0.85163-2.0176 0.85163-3.175 0-3.507-2.843-6.35-6.35-6.35z" display="inline" fill-opacity=".25098"/><path d="m103.26 119.3c-3.507 0-6.35 2.843-6.35 6.35 0 1.1574 0.31065 2.2406 0.85163 3.175l0.23151-0.13229c-0.51747-0.8949-0.81856-1.9346-0.81856-3.0427 0-3.3609 2.7245-6.0854 6.0855-6.0854 3.3609 0 6.0854 2.7245 6.0854 6.0854 0 1.1081-0.30109 2.1478-0.81856 3.0427l0.23151 0.13229c0.54098-0.93443 0.85163-2.0176 0.85163-3.175 0-3.507-2.843-6.35-6.35-6.35z" display="inline" fill-opacity=".25098"/><path transform="matrix(.26458 0 0 .26458 -53.639 88.609)" d="m578 139v15c0 8.2843 6.7157 15 15 15s15-6.7157 15-15v-15c0 8.2843-6.7157 15-15 15s-15-6.7157-15-15z" display="inline" fill="url(#linearGradient8764)" filter="url(#filter7885)"/><circle cx="103.26" cy="125.65" r="3.9687" display="inline" fill="url(#linearGradient8766)"/><g fill-opacity=".12549"><path d="m103.26 120.62c-2.7764 0-5.0271 2.2507-5.0271 5.0271 0 0.0448 0.0071 0.0878 0.0083 0.13229 0.07104-2.7144 2.2873-4.8948 5.0189-4.8948s4.9478 2.1804 5.0188 4.8948c1e-3 -0.0445 8e-3 -0.0875 8e-3 -0.13229 0-2.7764-2.2507-5.0271-5.0271-5.0271z" display="inline" fill="#fff"/><path d="m103.26 121.68c-2.1919 0-3.9688 1.7769-3.9688 3.9688 0 0.0448 0.0068 0.0879 0.0083 0.13229 0.07056-2.1299 1.8134-3.8365 3.9606-3.8365 2.1471 0 3.8899 1.7065 3.9605 3.8365 2e-3 -0.0444 8e-3 -0.0875 8e-3 -0.13229 0-2.1919-1.7769-3.9688-3.9688-3.9688z" display="inline" fill="#fff"/><path d="m103.26 129.62c-2.1919 0-3.9688-1.7769-3.9688-3.9688 0-0.0448 0.0068-0.0879 0.0083-0.13229 0.07055 2.13 1.8134 3.8365 3.9605 3.8365s3.8899-1.7065 3.9605-3.8365c2e-3 0.0444 8e-3 0.0875 8e-3 0.13229 0 2.1919-1.7769 3.9688-3.9688 3.9688z" display="inline"/></g></g><g transform="matrix(.26459 0 0 .26459 -194.47 -96.204)"><rect x="734.99" y="363.59" width="58" height="26" rx="3" ry="3" fill-opacity=".50196"/><path d="m734.99 386.59v1c0 1.662 1.338 3 3 3h52c1.662 0 3-1.338 3-3v-1c0 1.662-1.338 3-3 3h-52c-1.662 0-3-1.338-3-3z" fill="#fff" fill-opacity=".031372"/><rect x="736.99" y="365.59" width="54" height="22" rx="1" ry="1" fill="url(#linearGradient8638)"/><path d="m737.99 387.59c-0.554 0-1-0.446-1-1v-1c0 0.554 0.446 1 1 1h52c0.554 0 1-0.446 1-1v1c0 0.554-0.446 1-1 1z" fill-opacity=".25098"/><g><rect x="737.99" y="364.59" width="52" height="1" fill="url(#linearGradient8640)" opacity=".75"/><rect x="737.99" y="387.59" width="52" height="1" fill="url(#linearGradient8642)"/><rect transform="rotate(90)" x="366.59" y="-736.99" width="20" height="1" fill="url(#linearGradient8644)" opacity=".5"/><rect transform="rotate(90)" x="366.59" y="-791.99" width="20" height="1" fill="url(#linearGradient8646)" opacity=".5"/><path d="m737.99 365.59c-0.554 0-1 0.446-1 1v5h54v-5c0-0.554-0.446-1-1-1z" fill="url(#linearGradient8648)"/><path d="m736.99 386.59c0 0.554 0.446 1 1 1h5v-22h-5c-0.554 0-1 0.446-1 1z" fill="url(#linearGradient8650)"/><path d="m790.99 386.59c0 0.554-0.446 1-1 1h-5v-22h5c0.554 0 1 0.446 1 1z" fill="url(#linearGradient8652)"/></g><path d="m737.99 365.59c-0.554 0-1 0.446-1 1v1c0-0.554 0.446-1 1-1h52c0.554 0 1 0.446 1 1v-1c0-0.554-0.446-1-1-1z" fill="#fff" fill-opacity=".031372"/></g></svg>
