<?xml version="1.0" encoding="UTF-8" standalone="no"?>
<!-- Created with Inkscape (http://www.inkscape.org/) -->

<svg
   width="32mm"
   height="32mm"
   viewBox="0 0 32 32"
   version="1.1"
   id="svg1"
   inkscape:version="1.4 (e7c3feb100, 2024-10-09)"
   sodipodi:docname="gear.svg"
   xmlns:inkscape="http://www.inkscape.org/namespaces/inkscape"
   xmlns:sodipodi="http://sodipodi.sourceforge.net/DTD/sodipodi-0.dtd"
   xmlns="http://www.w3.org/2000/svg"
   xmlns:svg="http://www.w3.org/2000/svg">
  <sodipodi:namedview
     id="namedview1"
     pagecolor="#ffffff"
     bordercolor="#000000"
     borderopacity="0.25"
     inkscape:showpageshadow="2"
     inkscape:pageopacity="0.0"
     inkscape:pagecheckerboard="0"
     inkscape:deskcolor="#d1d1d1"
     inkscape:document-units="mm"
     inkscape:zoom="0.99597363"
     inkscape:cx="68.2749"
     inkscape:cy="303.22088"
     inkscape:window-width="2544"
     inkscape:window-height="1331"
     inkscape:window-x="26"
     inkscape:window-y="23"
     inkscape:window-maximized="0"
     inkscape:current-layer="layer1" />
  <defs
     id="defs1" />
  <g
     inkscape:label="Layer 1"
     inkscape:groupmode="layer"
     id="layer1">
    <path
       d="m 15.935526,0 c 0.608239,0.006 1.215602,0.0465 1.819212,0.12312 l 0.965588,3.4743999 c 1.101729,0.23695 2.167879,0.6187 3.17115,1.13565 l 2.92961,-2.01344 c 0.508752,0.33994 0.997887,0.70851 1.465106,1.10491 0.463379,0.39645 0.904197,0.81824 1.320302,1.26457 l -1.465113,3.37613 c 0.68724,0.89545 1.255445,1.8777801 1.690231,2.9219001 l 3.541694,0.24547 c 0.17324,0.58696 0.313347,1.18335 0.419821,1.78633 0.103401,0.60708 0.172478,1.22013 0.206873,1.83535 l -3.203408,1.51012 c -0.04404,1.14618 -0.238471,2.28144 -0.578036,3.37613 l 2.479369,2.43694 c -0.237564,0.61173 -0.511621,1.2082 -0.820781,1.78632 -0.306007,0.50487 -0.639069,0.99271 -0.997832,1.46096 l -3.444948,-0.8778 c -0.758514,0.84759 -1.624477,1.59057 -2.575496,2.20981 l 0.25553,3.54193 c -0.542241,0.30276 -1.101281,0.57301 -1.674402,0.81026 C 20.864757,31.70575 20.278891,31.86991 19.685271,32 l -2.060765,-2.89124 c -1.095493,0.14248 -2.204646,0.14248 -3.300139,0 L 12.231357,32 C 11.632418,31.87069 11.041253,31.70653 10.460811,31.50906 9.9096217,31.2698 9.372142,30.99878 8.850896,30.6988 L 9.173333,27.15687 C 8.222314,26.53741 7.356351,25.79465 6.597837,24.94706 l -3.541693,0.8778 C 2.708399,25.3556 2.386103,24.86807 2.090563,24.3639 1.786793,23.78547 1.51798,23.18884 1.285605,22.57758 L 3.700478,20.14064 C 3.393912,19.04146 3.232344,17.90628 3.21983,16.76451 L 0,15.25439 c 0.01818,-0.61405 0.0711,-1.2271 0.158212,-1.83535 0.126401,-0.60398 0.28692,-1.20061 0.48064697,-1.78633 L 4.180552,11.38724 C 4.590239,10.34738 5.131361,9.3652799 5.790467,8.4653399 l -1.448683,-3.37613 c 0.405702,-0.44525 0.835698,-0.86757 1.28806,-1.26457 0.46191,-0.39569 0.945557,-0.76428 1.448676,-1.10491 l 3.058597,2.01344 c 1.018617,-0.52113 2.101386,-0.90281 3.219823,-1.13565 L 14.161898,0.12312 C 14.749372,0.04572 15.340467,0.00852 15.932443,0 v 11.36905 c -6.439275,0 -6.439275,9.74486 0,9.74486 6.439276,0 6.439276,-9.74486 0,-9.74486 z"
       id="path1"
       style="stroke-width:16.1695"
       sodipodi:nodetypes="cccccccccccccccccccccccccccccccccccccccccccccccscc">
    </path>
  </g>
</svg>
