<?xml version="1.0" encoding="UTF-8"?>
<svg width="7.276mm" height="2.6458mm" version="1.1" viewBox="0 0 7.276 2.6458" xmlns="http://www.w3.org/2000/svg"><g transform="translate(-116.42 -196.74)" fill="#fff"><path d="m119.33 196.74c-0.73063 0-1.3229 0.5923-1.3229 1.3229 0 0.73063 0.59229 1.3229 1.3229 1.3229s1.3229-0.59228 1.3229-1.3229c0-0.73062-0.59229-1.3229-1.3229-1.3229zm0 0.52917c0.43838 0 0.79375 0.35538 0.79375 0.79375 0 0.43838-0.35537 0.79375-0.79375 0.79375s-0.79375-0.35537-0.79375-0.79375c0-0.43837 0.35537-0.79375 0.79375-0.79375z"/><path d="m119.06 197.79h-2.6458v0.52916h2.6458z"/><path transform="matrix(1.1066 0 0 1.0953 -8.7713 -18.739)" d="m116.23 197.94-0.83681 0.48313v-0.96627l0.41841 0.24157z"/><path d="m122.9 197.79h-2.6458v0.52916h2.6458z"/><path transform="matrix(1.1066 0 0 1.0953 -4.9348 -18.739)" d="m116.23 197.94-0.83681 0.48313v-0.96627l0.41841 0.24157z"/></g></svg>
