<?xml version="1.0" encoding="UTF-8"?>
<svg width="48" height="48" version="1.1" xmlns="http://www.w3.org/2000/svg" viewBox="0 0 24 24">
  <path d="m3.99995 10.9999 3.75 7 3.75-7h-2.99023l0.010088-2.49012h8.98044l-2.88e-4 7.49012h1.50976l2.88e-4 -7.7616c2.7e-5 -0.707602-0.615581-1.23828-1.2793-1.23828h-9.44141c-0.663716 0-1.27671 0.530685-1.2793 1.23828l-0.01009 2.7616z" color="#000000" color-rendering="auto" dominant-baseline="auto" fill="#918273" image-rendering="auto" shape-rendering="auto" solid-color="#000000" stop-color="#000000" stroke="#000" stroke-linecap="round" stroke-linejoin="round" stroke-width="1.6" style="font-feature-settings:normal;font-variant-alternates:normal;font-variant-caps:normal;font-variant-east-asian:normal;font-variant-ligatures:normal;font-variant-numeric:normal;font-variant-position:normal;font-variation-settings:normal;inline-size:0;isolation:auto;mix-blend-mode:normal;shape-margin:0;shape-padding:0;text-decoration-color:#000000;text-decoration-line:none;text-decoration-style:solid;text-indent:0;text-orientation:mixed;text-transform:none;white-space:normal"/>
  <path d="m6.99995 11.5663h1.50977l0.010088-3.05652h8.98044l-2.88e-4 7.49012h1.50976l2.88e-4 -7.7616c2.7e-5 -0.707602-0.615581-1.23828-1.2793-1.23828h-9.44141c-0.663716 0-1.27716 0.530683-1.2793 1.23828z" color="#000000" color-rendering="auto" dominant-baseline="auto" fill="#918273" image-rendering="auto" shape-rendering="auto" solid-color="#000000" stop-color="#000000" style="font-feature-settings:normal;font-variant-alternates:normal;font-variant-caps:normal;font-variant-east-asian:normal;font-variant-ligatures:normal;font-variant-numeric:normal;font-variant-position:normal;font-variation-settings:normal;inline-size:0;isolation:auto;mix-blend-mode:normal;shape-margin:0;shape-padding:0;text-decoration-color:#000000;text-decoration-line:none;text-decoration-style:solid;text-indent:0;text-orientation:mixed;text-transform:none;white-space:normal"/>
  <path d="m7.74995 17.9999-3.75-7h7.5z" fill="#918273"/>
</svg>
