<?xml version="1.0" encoding="UTF-8"?>
<svg width="48" height="48" version="1.1" xmlns="http://www.w3.org/2000/svg" viewBox="0 0 24 24">
  <path d="m20.0098 11-3.75 7-3.75-7h2.99023l-0.010088-2.49012h-8.98044l2.88e-4 7.49012h-1.50976l-2.88e-4 -7.7616c-2.63e-5 -0.707602 0.615581-1.23828 1.2793-1.23828h9.44141c0.663716 0 1.27671 0.530685 1.2793 1.23828l0.010088 2.7616z" color="#000000" color-rendering="auto" dominant-baseline="auto" fill="#918273" image-rendering="auto" shape-rendering="auto" solid-color="#000000" stop-color="#000000" stroke="#000" stroke-linecap="round" stroke-linejoin="round" stroke-width="1.6" style="font-feature-settings:normal;font-variant-alternates:normal;font-variant-caps:normal;font-variant-east-asian:normal;font-variant-ligatures:normal;font-variant-numeric:normal;font-variant-position:normal;font-variation-settings:normal;inline-size:0;isolation:auto;mix-blend-mode:normal;shape-margin:0;shape-padding:0;text-decoration-color:#000000;text-decoration-line:none;text-decoration-style:solid;text-indent:0;text-orientation:mixed;text-transform:none;white-space:normal"/>
  <path d="m17.0098 11.5664h-1.50977l-0.010088-3.05652h-8.98044l2.88e-4 7.49012h-1.50976l-2.88e-4 -7.7616c-2.63e-5 -0.707602 0.615581-1.23828 1.2793-1.23828h9.44141c0.663716 0 1.27716 0.530683 1.2793 1.23828z" color="#000000" color-rendering="auto" dominant-baseline="auto" fill="#918273" image-rendering="auto" shape-rendering="auto" solid-color="#000000" stop-color="#000000" style="font-feature-settings:normal;font-variant-alternates:normal;font-variant-caps:normal;font-variant-east-asian:normal;font-variant-ligatures:normal;font-variant-numeric:normal;font-variant-position:normal;font-variation-settings:normal;inline-size:0;isolation:auto;mix-blend-mode:normal;shape-margin:0;shape-padding:0;text-decoration-color:#000000;text-decoration-line:none;text-decoration-style:solid;text-indent:0;text-orientation:mixed;text-transform:none;white-space:normal"/>
  <path d="m16.2598 18 3.75-7h-7.5z" fill="#918273"/>
</svg>
