<?xml version="1.0" encoding="UTF-8"?>
<svg width="48" height="48" version="1.1" viewBox="0 0 12.7 12.7" xmlns="http://www.w3.org/2000/svg"><defs><linearGradient id="linearGradient8762" x1="762.5" x2="762.5" y1="119.01" y2="158.99" gradientTransform="matrix(.25133 0 0 .25135 -89.566 89.392)" gradientUnits="userSpaceOnUse"><stop stop-color="#303030" offset="0"/><stop stop-color="#181818" offset="1"/></linearGradient><linearGradient id="linearGradient8766" x1="763" x2="763" y1="119" y2="159" gradientTransform="matrix(.19842 0 0 .19844 -49.195 96.747)" gradientUnits="userSpaceOnUse"><stop stop-color="#404040" offset="0"/><stop stop-color="#282828" offset="1"/></linearGradient><linearGradient id="linearGradient8768" x1="761" x2="761" y1="196" y2="185" gradientTransform="matrix(.26458 0 0 .26458 -193.81 -44.979)" gradientUnits="userSpaceOnUse"><stop stop-color="#fff" stop-opacity=".031373" offset="0"/><stop stop-color="#fff" stop-opacity=".062745" offset="1"/></linearGradient></defs><g transform="translate(-95.851 -117.98)"><g stroke-width=".99996"><ellipse cx="102.2" cy="124.33" rx="5.2913" ry="5.2917" fill-opacity=".50196"/><path d="m95.859 124.54c-0.0052 0.10558-0.0083 0.21562-0.0083 0.32248 0 1.1574 0.31062 2.2406 0.85156 3.175v-0.52917c-0.50843-0.87827-0.80847-1.8891-0.84329-2.9683zm0.84329 2.9683c0.05541 0.0956 0.11348 0.18875 0.17362 0.28112l0.67794-0.42995c0.04787 0.0734 0.09761 0.14399 0.14882 0.21498 0.02096 0.0291 0.03638 0.0623 0.05787 0.0909 0.04113 0.0548 0.08921 0.10388 0.13228 0.15708 0.02207 0.0273 0.04358 0.0558 0.06615 0.0827 0.02133 0.0253 0.04438 0.0495 0.06614 0.0744 0.07194 0.0827 0.14662 0.16146 0.22322 0.23978 0.0069 7e-3 0.0096 0.0178 0.01654 0.0248 0.05152 0.0521 0.10356 0.0988 0.15709 0.14884 0.08353 0.0781 0.16808 0.15037 0.2563 0.22324 0.06368 0.0526 0.12414 0.10732 0.19015 0.1571 0.04867 0.0368 0.09892 0.0722 0.14882 0.10748 0.0466 0.0328 0.09299 0.0679 0.14056 0.0992 0.0512 0.0339 0.10469 0.067 0.15709 0.0992 0.0535 0.0327 0.11068 0.06 0.16536 0.0909 0.0138 8e-3 0.0275 0.0171 0.0413 0.0248 0.07949 0.0441 0.15795 0.092 0.23977 0.13231 0.0542 0.0267 0.11015 0.0494 0.16535 0.0744 0.049 0.0222 0.09909 0.0454 0.14882 0.0661 0.0193 8e-3 0.0384 0.017 0.0579 0.0248 0.10596 0.0428 0.21334 0.0794 0.32242 0.11575 0.0429 0.0143 0.0889 0.0281 0.13229 0.0413 0.0442 0.0135 0.0877 0.029 0.13228 0.0413 0.0241 7e-3 0.0502 0.0102 0.0744 0.0165 0.0938 0.0246 0.18544 0.0464 0.28109 0.0661 0.0717 0.0149 0.14223 0.0293 0.21496 0.0413 0.0632 0.0104 0.1262 0.0165 0.19015 0.0248 0.0406 5e-3 0.0833 0.0122 0.12402 0.0165 0.19541 0.0209 0.39414 0.0331 0.59526 0.0331 0.20111 0 0.39987-0.0121 0.59526-0.0331 0.0414-4e-3 0.0828-0.0112 0.12401-0.0165 0.064-8e-3 0.12692-0.0144 0.19015-0.0248 0.0727-0.0121 0.14322-0.0265 0.21497-0.0413 0.0731-0.0151 0.14295-0.0317 0.21495-0.0496 0.0907-0.0227 0.18398-0.0473 0.27282-0.0744 0.0725-0.0221 0.14379-0.0494 0.21497-0.0744 0.20935-0.0735 0.41484-0.15094 0.61182-0.24804 0.0652-0.0321 0.12643-0.073 0.19013-0.10749 0.0604-0.0329 0.12283-0.0642 0.1819-0.0992 0.0551-0.0326 0.11146-0.0648 0.16533-0.0992 0.047-0.0302 0.0945-0.0594 0.14056-0.091 0.047-0.0321 0.0946-0.0657 0.14055-0.0992 0.0913-0.0667 0.17758-0.14296 0.26456-0.21498 0.0882-0.0729 0.17275-0.14517 0.2563-0.22324 0.0535-0.0501 0.10557-0.0967 0.15708-0.14884 0.0273-0.0276 0.0559-0.0545 0.0829-0.0827 0.13646-0.14404 0.26782-0.29681 0.38855-0.45475 0.0169-0.022 0.0331-0.0439 0.0496-0.0661 0.0542-0.0731 0.10641-0.14748 0.15709-0.22324 0.0123-0.0184 0.021-0.0394 0.0331-0.0579l0.67794 0.42995c0.0601-0.0924 0.11819-0.18549 0.17361-0.28112l-0.69448-0.39687-0.22322-0.13231c-0.0541 0.0935-0.11407 0.18312-0.17362 0.27287-0.0166 0.0251-0.0326 0.0497-0.0496 0.0744-0.0434 0.0631-0.0864 0.12909-0.13229 0.19017-0.0568 0.0752-0.12129 0.15122-0.18188 0.22324-0.0693 0.0824-0.14086 0.16182-0.21496 0.23978-0.0659 0.0693-0.12892 0.13277-0.19843 0.19844-0.017 0.0161-0.0324 0.0337-0.0496 0.0496-0.0523 0.0482-0.11111 0.0945-0.16534 0.14056-0.0462 0.0392-0.093 0.0781-0.14055 0.11575-0.037 0.0293-0.078 0.0543-0.11574 0.0827-0.025 0.0188-0.049 0.0396-0.0744 0.0579-0.0825 0.0595-0.16218 0.11883-0.24804 0.17364-0.091 0.0581-0.18637 0.11277-0.28108 0.16536-0.0947 0.0526-0.1912 0.10203-0.28936 0.14884-0.0816 0.0388-0.16432 0.0728-0.24804 0.10748-0.017 7e-3 -0.0325 0.0179-0.0496 0.0248-0.0738 0.0297-0.14783 0.0563-0.22322 0.0827-0.0739 0.0259-0.14785 0.0518-0.22325 0.0744-0.0354 0.0107-0.0717 0.0231-0.10747 0.0331-0.0246 7e-3 -0.0497 0.0101-0.0744 0.0165-0.2035 0.0534-0.40774 0.0951-0.62007 0.12402-0.0905 0.0124-0.18089 0.0253-0.27283 0.0331-0.14674 0.0123-0.2965 0.0166-0.44644 0.0166-0.12164 0-0.24421-1.7e-4 -0.36377-8e-3 -0.028-2e-3 -0.0549-6e-3 -0.0825-8e-3 -0.16266-0.0136-0.32139-0.0381-0.47951-0.0661-0.0299-5e-3 -0.0613-0.0107-0.0909-0.0165-0.0193-4e-3 -0.0386-4e-3 -0.0579-8e-3 -0.15257-0.0315-0.299-0.0715-0.44646-0.11576-0.0754-0.0226-0.14927-0.0485-0.22322-0.0744-0.093-0.0326-0.18223-0.0699-0.27279-0.10749-0.0836-0.0346-0.16669-0.0688-0.24803-0.10748-0.09819-0.0468-0.19464-0.0962-0.28937-0.14884-0.09469-0.0526-0.19006-0.10725-0.28112-0.16537-0.08579-0.0548-0.16563-0.11411-0.24802-0.17363-0.0255-0.0184-0.0493-0.039-0.07439-0.0579-0.0378-0.0283-0.07869-0.0534-0.11576-0.0827-0.04716-0.0374-0.09471-0.0768-0.14055-0.11575-0.0552-0.0469-0.11213-0.0915-0.16535-0.14056-0.01723-0.0159-0.03259-0.0335-0.04961-0.0496-0.06818-0.0645-0.13373-0.13042-0.19842-0.19844-0.07409-0.078-0.14567-0.15744-0.21495-0.23978-0.05191-0.0617-0.10799-0.12613-0.15709-0.19017-0.0083-0.0108-0.01659-0.0222-0.02481-0.0331-0.04663-0.0618-0.08833-0.12634-0.13228-0.19017-0.0168-0.0244-0.03321-0.0497-0.04961-0.0744-0.0077-0.0116-0.01722-0.0214-0.02482-0.0331-0.04996-0.0767-0.10275-0.16039-0.14881-0.23979l-0.22322 0.13231-0.69447 0.39687zm10.996 0v0.52917c0.54093-0.93444 0.85156-2.0176 0.85156-3.175 0-0.10686-3e-3 -0.2169-8e-3 -0.32248-0.0348 1.0792-0.33487 2.09-0.84329 2.9683z" fill="#fff" fill-opacity=".062745"/><ellipse cx="102.2" cy="124.33" rx="5.0267" ry="5.0271" fill="url(#linearGradient8762)"/><path d="m102.2 117.98c-3.5067 0-6.3495 2.843-6.3495 6.35 0 1.1574 0.31062 2.2406 0.85156 3.175l0.9177-0.52918c-0.45111-0.77889-0.71101-1.6809-0.71101-2.6458 0-2.9225 2.369-5.2917 5.2913-5.2917 2.9223 0 5.2913 2.3692 5.2913 5.2917 0 0.96491-0.2599 1.8669-0.71101 2.6458l0.9177 0.52918c0.54093-0.93443 0.85156-2.0176 0.85156-3.175 0-3.507-2.8428-6.35-6.3495-6.35z" fill-opacity=".25098"/><path d="m102.2 117.98c-3.5067 0-6.3495 2.843-6.3495 6.35 0 1.1574 0.31062 2.2406 0.85156 3.175l0.23149-0.13229c-0.51743-0.8949-0.81849-1.9346-0.81849-3.0427 0-3.3609 2.7243-6.0854 6.085-6.0854 3.3606 0 6.0849 2.7245 6.0849 6.0854 0 1.1081-0.30107 2.1478-0.8185 3.0427l0.2315 0.13229c0.54093-0.93443 0.85156-2.0176 0.85156-3.175 0-3.507-2.8428-6.35-6.3495-6.35z" fill-opacity=".25098"/><ellipse cx="102.2" cy="124.33" rx="3.9684" ry="3.9687" fill="url(#linearGradient8766)"/></g><g transform="matrix(.99992 0 0 1 -1.0497 -1.3203)" fill-opacity=".12549"><path d="m103.26 120.62c-2.7764 0-5.0271 2.2507-5.0271 5.0271 0 0.0448 0.0071 0.0878 0.0083 0.13229 0.07104-2.7144 2.2873-4.8948 5.0189-4.8948s4.9478 2.1804 5.0188 4.8948c1e-3 -0.0445 8e-3 -0.0875 8e-3 -0.13229 0-2.7764-2.2507-5.0271-5.0271-5.0271z" fill="#fff"/><path d="m103.26 121.68c-2.1919 0-3.9688 1.7769-3.9688 3.9688 0 0.0448 0.0068 0.0879 0.0083 0.13229 0.07056-2.1299 1.8134-3.8365 3.9606-3.8365 2.1471 0 3.8899 1.7065 3.9605 3.8365 2e-3 -0.0444 8e-3 -0.0875 8e-3 -0.13229 0-2.1919-1.7769-3.9688-3.9688-3.9688z" fill="#fff"/><path d="m103.26 129.62c-2.1919 0-3.9688-1.7769-3.9688-3.9688 0-0.0448 0.0068-0.0879 0.0083-0.13229 0.07055 2.13 1.8134 3.8365 3.9605 3.8365s3.8899-1.7065 3.9605-3.8365c2e-3 0.0444 8e-3 0.0875 8e-3 0.13229 0 2.1919-1.7769 3.9688-3.9688 3.9688z"/></g></g><g transform="translate(-.662)" display="none"><rect x="7.8053" y="3.9688" width=".52917" height="2.6458" display="inline" fill="#fff"/><path d="m7.5407 3.9687v2.6458h0.26459v-2.6458zm0.26459 2.6458v0.26458h0.52916v-0.26458zm0.52916 0h0.26459v-2.6458h-0.26459z" display="inline" fill="url(#linearGradient8768)"/></g></svg>
