<?xml version="1.0" encoding="UTF-8"?>
<svg width="48" height="56" version="1.1" viewBox="0 0 12.7 14.817" xmlns="http://www.w3.org/2000/svg" xmlns:xlink="http://www.w3.org/1999/xlink"><defs><filter id="filter7885"><feGaussianBlur stdDeviation="0.6"/></filter><linearGradient id="linearGradient8768" x1="761" x2="761" y1="196" y2="185" gradientTransform="matrix(.26458 0 0 .26458 -193.81 -44.979)" gradientUnits="userSpaceOnUse"><stop stop-color="#fff" stop-opacity=".031373" offset="0"/><stop stop-color="#fff" stop-opacity=".062745" offset="1"/></linearGradient><linearGradient id="linearGradient14108" x1="748" x2="748" y1="139" y2="169" gradientTransform="translate(-170)" gradientUnits="userSpaceOnUse"><stop stop-opacity=".75294" offset="0"/><stop stop-opacity="0" offset="1"/></linearGradient><clipPath id="clipPath14233"><ellipse cx="593.01" cy="140" rx="15" ry="15" d="m 608.0116,139.99925 a 14.999999,15 0 0 1 -15,15 14.999999,15 0 0 1 -15,-15 14.999999,15 0 0 1 15,-15 14.999999,15 0 0 1 15,15 z" display="none" fill="#fff" stroke-width="3.7796"/><path class="powerclip" d="m570 131h46v46h-46zm38.012 8.9992a15 15 0 0 0-15-15 15 15 0 0 0-15 15 15 15 0 0 0 15 15 15 15 0 0 0 15-15z" fill="#fff" stroke-width="3.7796"/></clipPath></defs><g transform="translate(-95.851 -117.98)"><path transform="matrix(.26456 0 0 .26458 -54.684 87.289)" d="m578 139v15c0 8.2843 6.7157 15 15 15s15-6.7157 15-15v-15c0 8.2843-6.7157 15-15 15s-15-6.7157-15-15z" clip-path="url(#clipPath14233)" fill="url(#linearGradient14108)" filter="url(#filter7885)"/></g><g transform="translate(-.662)" display="none"><rect x="7.8053" y="3.9688" width=".52917" height="2.6458" display="inline" fill="#fff"/><path d="m7.5407 3.9687v2.6458h0.26459v-2.6458zm0.26459 2.6458v0.26458h0.52916v-0.26458zm0.52916 0h0.26459v-2.6458h-0.26459z" display="inline" fill="url(#linearGradient8768)"/></g></svg>
