<?xml version="1.0" encoding="UTF-8"?>
<svg width="40" height="40" version="1.1" viewBox="0 0 10.583 10.583" xmlns="http://www.w3.org/2000/svg" xmlns:xlink="http://www.w3.org/1999/xlink"><defs><linearGradient id="linearGradient13251" x1="762.5" x2="762.5" y1="119.01" y2="158.99" gradientUnits="userSpaceOnUse"><stop stop-color="#303030" offset="0"/><stop stop-color="#181818" offset="1"/></linearGradient><linearGradient id="linearGradient13255" x1="763" x2="763" y1="119" y2="159" gradientUnits="userSpaceOnUse"><stop stop-color="#404040" offset="0"/><stop stop-color="#282828" offset="1"/></linearGradient></defs><g transform="translate(-95.41 -109.48)"><g transform="matrix(.26458 0 0 .26458 -127.1 -75.727)"><circle transform="translate(98,581)" cx="763" cy="139" r="20" fill-opacity=".50196"/><circle transform="matrix(.95 0 0 .95 136.15 587.95)" cx="763" cy="139" r="20" fill="url(#linearGradient13251)"/><circle transform="matrix(.75 0 0 .75 288.75 615.75)" cx="763" cy="139" r="20" fill="url(#linearGradient13255)"/><g fill-opacity=".12549"><path d="m861 701c-10.493 0-19 8.5066-19 19 0 0.16936 0.0268 0.3317 0.0312 0.5 0.26849-10.259 8.6447-18.5 18.969-18.5s18.7 8.2407 18.969 18.5c4e-3 -0.1683 0.0312-0.33064 0.0312-0.5 0-10.493-8.5066-19-19-19z" fill="#fff"/><path d="m861 705c-8.2843 0-15 6.7157-15 15 0 0.16922 0.0257 0.33214 0.0312 0.5 0.2667-8.0502 6.8537-14.5 14.969-14.5s14.702 6.4498 14.969 14.5c6e-3 -0.16786 0.0312-0.33078 0.0312-0.5 0-8.2843-6.7157-15-15-15z" fill="#fff"/><path d="m861 735c-8.2843 0-15-6.7157-15-15 0-0.16922 0.0257-0.33214 0.0312-0.5 0.26665 8.0502 6.8537 14.5 14.969 14.5s14.702-6.4498 14.969-14.5c6e-3 0.16786 0.0312 0.33078 0.0312 0.5 0 8.2843-6.7157 15-15 15z"/></g></g></g></svg>
