<?xml version="1.0" encoding="UTF-8"?>
<svg width="58.738mm" height="11.642mm" version="1.1" viewBox="0 0 58.738 11.642" xmlns="http://www.w3.org/2000/svg"><g transform="rotate(90 132.33 61.799)"><g transform="rotate(-90 76.351 164.76)"><path d="m46.999 164.89c-0.01085 0.0423-0.01654 0.0865-0.01654 0.13229 0 0.29316 0.23601 0.52917 0.52917 0.52917h57.679c0.29316 0 0.52916-0.23601 0.52916-0.52917 0-0.0458-6e-3 -0.09-0.0165-0.13229-0.0586 0.2286-0.26528 0.39688-0.51263 0.39688h-57.679c-0.24735 0-0.45408-0.16828-0.51263-0.39688z" fill="#fff" fill-opacity=".062745"/><rect x="46.982" y="164.23" width="58.737" height="1.0583" rx=".52917" ry=".52917" fill-opacity=".50196"/><g transform="matrix(.26458 0 0 .26458 -104.36 72.949)" fill-opacity=".12549"><rect transform="matrix(0,-1,-1,0,0,0)" x="-369" y="-574" width="15" height="1" rx="0" ry="1" fill="#fff"/><rect transform="matrix(0,-1,-1,0,0,0)" x="-369" y="-575" width="15" height="1" rx="0" ry="1"/><rect transform="matrix(0,-1,-1,0,0,0)" x="-340" y="-574" width="15" height="1" rx="0" ry="1" fill="#fff"/><g><rect transform="matrix(0,-1,-1,0,0,0)" x="-340" y="-575" width="15" height="1" rx="0" ry="1"/><rect transform="matrix(0,-1,-1,0,0,0)" x="-369" y="-573" width="15" height="1" rx="0" ry="1"/><rect transform="matrix(0,-1,-1,0,0,0)" x="-340" y="-573" width="15" height="1" rx="0" ry="1"/></g></g><g transform="matrix(.26458 0 0 .26458 -46.415 72.949)" fill-opacity=".12549"><rect transform="matrix(0,-1,-1,0,0,0)" x="-369" y="-574" width="15" height="1" rx="0" ry="1" fill="#fff"/><rect transform="matrix(0,-1,-1,0,0,0)" x="-369" y="-575" width="15" height="1" rx="0" ry="1"/><rect transform="matrix(0,-1,-1,0,0,0)" x="-340" y="-574" width="15" height="1" rx="0" ry="1" fill="#fff"/><g><rect transform="matrix(0,-1,-1,0,0,0)" x="-340" y="-575" width="15" height="1" rx="0" ry="1"/><rect transform="matrix(0,-1,-1,0,0,0)" x="-369" y="-573" width="15" height="1" rx="0" ry="1"/><rect transform="matrix(0,-1,-1,0,0,0)" x="-340" y="-573" width="15" height="1" rx="0" ry="1"/></g></g><g transform="matrix(.26458 0 0 .26458 -85.045 72.949)" fill-opacity=".12549"><rect transform="matrix(0,-1,-1,0,0,0)" x="-369" y="-574" width="15" height="1" rx="0" ry="1" fill="#fff"/><rect transform="matrix(0,-1,-1,0,0,0)" x="-369" y="-575" width="15" height="1" rx="0" ry="1"/><rect transform="matrix(0,-1,-1,0,0,0)" x="-340" y="-574" width="15" height="1" rx="0" ry="1" fill="#fff"/><g><rect transform="matrix(0,-1,-1,0,0,0)" x="-340" y="-575" width="15" height="1" rx="0" ry="1"/><rect transform="matrix(0,-1,-1,0,0,0)" x="-369" y="-573" width="15" height="1" rx="0" ry="1"/><rect transform="matrix(0,-1,-1,0,0,0)" x="-340" y="-573" width="15" height="1" rx="0" ry="1"/></g></g><g transform="matrix(.26458 0 0 .26458 -65.73 72.949)" fill-opacity=".12549"><rect transform="matrix(0,-1,-1,0,0,0)" x="-369" y="-574" width="15" height="1" rx="0" ry="1" fill="#fff"/><rect transform="matrix(0,-1,-1,0,0,0)" x="-369" y="-575" width="15" height="1" rx="0" ry="1"/><rect transform="matrix(0,-1,-1,0,0,0)" x="-340" y="-574" width="15" height="1" rx="0" ry="1" fill="#fff"/><g><rect transform="matrix(0,-1,-1,0,0,0)" x="-340" y="-575" width="15" height="1" rx="0" ry="1"/><rect transform="matrix(0,-1,-1,0,0,0)" x="-369" y="-573" width="15" height="1" rx="0" ry="1"/><rect transform="matrix(0,-1,-1,0,0,0)" x="-340" y="-573" width="15" height="1" rx="0" ry="1"/></g></g></g></g></svg>
