<?xml version="1.0" encoding="UTF-8"?>
<svg width="44" height="131" version="1.1" viewBox="0 0 11.642 34.66" xmlns="http://www.w3.org/2000/svg" xmlns:xlink="http://www.w3.org/1999/xlink"><defs><linearGradient id="linearGradient9034" x1="87" x2="218" y1="-713" y2="-713" gradientTransform="matrix(0 .26458 -.26458 0 -182.83 -23.019)" gradientUnits="userSpaceOnUse"><stop stop-color="#fff" stop-opacity="0" offset="0"/><stop stop-color="#fff" stop-opacity=".039216" offset=".19608"/><stop stop-color="#fff" stop-opacity=".047059" offset="1"/></linearGradient></defs><path d="m5.8208 0c-0.43974 0-0.79375 0.35401-0.79375 0.79375v33.073c0 0.43974 0.35401 0.79375 0.79375 0.79375s0.79375-0.35401 0.79375-0.79375v-33.073c0-0.43974-0.35401-0.79375-0.79375-0.79375zm-0.0331 0.26458h0.0661c0.27379 0 0.4961 0.23601 0.4961 0.52917v33.073c0 0.29316-0.22231 0.52917-0.4961 0.52917h-0.0661c-0.27379 0-0.4961-0.23601-0.4961-0.52917v-33.073c0-0.29316 0.22231-0.52917 0.4961-0.52917z" fill="url(#linearGradient9034)"/><rect transform="rotate(90)" x=".26458" y="-6.35" width="34.131" height="1.0583" rx=".52917" ry=".4942" fill-opacity=".50196"/><g transform="matrix(.26458 0 0 .26458 -166.95 -23.019)" fill-opacity=".12549"><rect transform="scale(-1,1)" x="-675" y="89" width="15" height="1" rx="0" ry="1" fill="#fff"/><rect transform="scale(-1,1)" x="-675" y="88" width="15" height="1" rx="0" ry="1"/><rect transform="scale(-1,1)" x="-646" y="89" width="15" height="1" rx="0" ry="1" fill="#fff"/><rect transform="scale(-1,1)" x="-646" y="88" width="15" height="1" rx="0" ry="1"/><g transform="translate(0 2)"><rect transform="scale(-1,1)" x="-675" y="215" width="15" height="1" rx="0" ry="1" fill="#fff"/><rect transform="scale(-1,1)" x="-675" y="214" width="15" height="1" rx="0" ry="1"/><rect transform="scale(-1,1)" x="-646" y="215" width="15" height="1" rx="0" ry="1" fill="#fff"/><rect transform="scale(-1,1)" x="-646" y="214" width="15" height="1" rx="0" ry="1"/></g><g transform="translate(0 1.5)"><rect transform="scale(-1,1)" x="-675" y="152" width="15" height="1" rx="0" ry="1" fill="#fff"/><rect transform="scale(-1,1)" x="-675" y="151" width="15" height="1" rx="0" ry="1"/><rect transform="scale(-1,1)" x="-646" y="152" width="15" height="1" rx="0" ry="1" fill="#fff"/><rect transform="scale(-1,1)" x="-646" y="151" width="15" height="1" rx="0" ry="1"/></g></g></svg>
