<?xml version="1.0" encoding="UTF-8"?>
<svg width="13" height="20" version="1.1" viewBox="0 0 3.4396 5.2917" xmlns="http://www.w3.org/2000/svg" xmlns:xlink="http://www.w3.org/1999/xlink"><defs><linearGradient id="linearGradient13957" x1="754" x2="754" y1="287" y2="343" gradientTransform="translate(-617,-968)" gradientUnits="userSpaceOnUse"><stop stop-color="#282828" offset="0"/><stop stop-color="#202020" offset="1"/></linearGradient><linearGradient id="linearGradient13959" x1="790.56" x2="790.56" y1="321" y2="373" gradientTransform="matrix(1.2857 0 0 1 -843.43 -1e3)" gradientUnits="userSpaceOnUse"><stop stop-color="#fff" stop-opacity=".015686" offset="0"/><stop stop-color="#fff" stop-opacity=".035294" offset=".5"/><stop stop-color="#fff" stop-opacity=".016523" offset="1"/></linearGradient><linearGradient id="linearGradient13961" x1="789" x2="786" y1="347" y2="347" gradientTransform="rotate(90,808.5,191.5)" gradientUnits="userSpaceOnUse"><stop stop-color="#fff" stop-opacity=".097561" offset="0"/><stop stop-color="#fff" stop-opacity=".079268" offset=".5"/><stop stop-color="#fff" stop-opacity=".036585" offset="1"/></linearGradient><linearGradient id="linearGradient13963" x1="789" x2="786" y1="347" y2="347" gradientTransform="matrix(0 -1 -1 0 1e3 968)" gradientUnits="userSpaceOnUse"><stop stop-opacity=".37195" offset="0"/><stop stop-opacity="0" offset="1"/></linearGradient></defs><g transform="translate(-87.482 -208.49)"><g transform="matrix(.26458 0 0 .26458 -83.571 164.7)"><g transform="matrix(0 -.99995 1 0 477.5 828.46)"><g><rect transform="rotate(90)" x="169" y="-663" width="13" height="20" rx="1" ry="1" fill="url(#linearGradient13957)"/><rect transform="rotate(90)" x="172" y="-663" width="7" height="20" fill="url(#linearGradient13959)"/><path d="m663 170c0-0.554-0.446-1-1-1h-18c-0.554 0-1.0263 0.44663-1 1v2h20z" fill="url(#linearGradient13961)"/><path d="m663 181c0 0.554-0.446 1-1 1h-18c-0.554 0-1-0.446-1-1v-2h20z" fill="url(#linearGradient13963)"/></g><rect transform="rotate(90)" x="175" y="-663" width="1" height="20" fill="#fff" fill-opacity=".50196"/><rect transform="rotate(90)" x="174" y="-663" width="1" height="20" fill-opacity=".25098"/></g></g></g></svg>
