<?xml version="1.0" encoding="UTF-8"?>
<svg width="56" height="22" version="1.1" viewBox="0 0 14.817 5.8208" xmlns="http://www.w3.org/2000/svg" xmlns:xlink="http://www.w3.org/1999/xlink"><defs><linearGradient id="linearGradient13955" x1="120" x2="218" y1="-713" y2="-713" gradientTransform="matrix(0 .94915 -1 0 225 579.36)" gradientUnits="userSpaceOnUse"><stop stop-color="#fff" stop-opacity="0" offset="0"/><stop stop-color="#fff" stop-opacity=".039216" offset=".19608"/><stop stop-color="#fff" stop-opacity=".047059" offset="1"/></linearGradient></defs><g transform="translate(-11.85 -279.06)"><g transform="rotate(-90 19.655 281.97)"><g transform="matrix(.26458 0 0 .26458 -228.52 89.486)"><path d="m938 698c-1.662 0-3 1.2699-3 2.8475v50.305c0 1.5775 1.338 2.8475 3 2.8475s3-1.2699 3-2.8475v-50.305c0-1.5776-1.338-2.8475-3-2.8475zm-0.125 0.94918h0.25c1.0348 0 1.875 0.84658 1.875 1.8983v50.305c0 1.0517-0.84022 1.8983-1.875 1.8983h-0.25c-1.0348 0-1.875-0.84662-1.875-1.8983v-50.305c0-1.0517 0.84022-1.8983 1.875-1.8983z" fill="url(#linearGradient13955)"/><rect transform="rotate(90)" x="698.95" y="-940" width="54.102" height="4" rx="1.8983" ry="1.8678" fill-opacity=".50196"/><g transform="matrix(1 0 0 .98246 0 12.246)" fill-opacity=".12549"><rect transform="scale(-1,1)" x="-949" y="700" width="6" height="1" rx="0" ry="1" fill="#fff"/><rect transform="scale(-1,1)" x="-949" y="699" width="6" height="1" rx="0" ry="1"/><rect transform="scale(-1,1)" x="-949" y="754" width="6" height="1" rx="0" ry="1" fill="#fff"/><rect transform="scale(-1,1)" x="-949" y="753" width="6" height="1" rx="0" ry="1"/><rect transform="scale(-1,1)" x="-946" y="730" width="3" height="1" rx="0" ry="1" fill="#fff"/><rect transform="scale(-1,1)" x="-946" y="729" width="3" height="1" rx="0" ry="1"/><rect transform="scale(-1,1)" x="-946" y="733" width="3" height="1" rx="0" ry="1" fill="#fff"/><rect transform="scale(-1,1)" x="-946" y="732" width="3" height="1" rx="0" ry="1"/><rect transform="scale(-1,1)" x="-946" y="736" width="3" height="1" rx="0" ry="1" fill="#fff"/><rect transform="scale(-1,1)" x="-946" y="735" width="3" height="1" rx="0" ry="1"/><rect transform="scale(-1,1)" x="-946" y="739" width="3" height="1" rx="0" ry="1" fill="#fff"/><rect transform="scale(-1,1)" x="-946" y="738" width="3" height="1" rx="0" ry="1"/><rect transform="scale(-1,1)" x="-946" y="742" width="3" height="1" rx="0" ry="1" fill="#fff"/><rect transform="scale(-1,1)" x="-946" y="741" width="3" height="1" rx="0" ry="1"/><rect transform="scale(-1,1)" x="-946" y="745" width="3" height="1" rx="0" ry="1" fill="#fff"/><rect transform="scale(-1,1)" x="-946" y="744" width="3" height="1" rx="0" ry="1"/><rect transform="scale(-1,1)" x="-946" y="748" width="3" height="1" rx="0" ry="1" fill="#fff"/><rect transform="scale(-1,1)" x="-946" y="747" width="3" height="1" rx="0" ry="1"/><rect transform="scale(-1,1)" x="-946" y="751" width="3" height="1" rx="0" ry="1" fill="#fff"/><rect transform="scale(-1,1)" x="-946" y="750" width="3" height="1" rx="0" ry="1"/><rect transform="scale(-1,1)" x="-946" y="703" width="3" height="1" rx="0" ry="1" fill="#fff"/><rect transform="scale(-1,1)" x="-946" y="702" width="3" height="1" rx="0" ry="1"/><rect transform="scale(-1,1)" x="-946" y="706" width="3" height="1" rx="0" ry="1" fill="#fff"/><rect transform="scale(-1,1)" x="-946" y="705" width="3" height="1" rx="0" ry="1"/><rect transform="scale(-1,1)" x="-946" y="709" width="3" height="1" rx="0" ry="1" fill="#fff"/><rect transform="scale(-1,1)" x="-946" y="708" width="3" height="1" rx="0" ry="1"/><rect transform="scale(-1,1)" x="-946" y="712" width="3" height="1" rx="0" ry="1" fill="#fff"/><rect transform="scale(-1,1)" x="-946" y="711" width="3" height="1" rx="0" ry="1"/><rect transform="scale(-1,1)" x="-946" y="715" width="3" height="1" rx="0" ry="1" fill="#fff"/><rect transform="scale(-1,1)" x="-946" y="714" width="3" height="1" rx="0" ry="1"/><rect transform="scale(-1,1)" x="-946" y="718" width="3" height="1" rx="0" ry="1" fill="#fff"/><rect transform="scale(-1,1)" x="-946" y="717" width="3" height="1" rx="0" ry="1"/><rect transform="scale(-1,1)" x="-946" y="721" width="3" height="1" rx="0" ry="1" fill="#fff"/><rect transform="scale(-1,1)" x="-946" y="720" width="3" height="1" rx="0" ry="1"/><rect transform="scale(-1,1)" x="-946" y="724" width="3" height="1" rx="0" ry="1" fill="#fff"/><rect transform="scale(-1,1)" x="-946" y="723" width="3" height="1" rx="0" ry="1"/><rect transform="scale(-1,1)" x="-949" y="727" width="6" height="1" rx="0" ry="1" fill="#fff"/><rect transform="scale(-1,1)" x="-949" y="726" width="6" height="1" rx="0" ry="1"/><rect transform="scale(-1,1)" x="-933" y="700" width="6" height="1" rx="0" ry="1" fill="#fff"/><rect transform="scale(-1,1)" x="-933" y="699" width="6" height="1" rx="0" ry="1"/><rect transform="scale(-1,1)" x="-933" y="754" width="6" height="1" rx="0" ry="1" fill="#fff"/><rect transform="scale(-1,1)" x="-933" y="753" width="6" height="1" rx="0" ry="1"/><rect transform="scale(-1,1)" x="-933" y="730" width="3" height="1" rx="0" ry="1" fill="#fff"/><rect transform="scale(-1,1)" x="-933" y="729" width="3" height="1" rx="0" ry="1"/><rect transform="scale(-1,1)" x="-933" y="733" width="3" height="1" rx="0" ry="1" fill="#fff"/><rect transform="scale(-1,1)" x="-933" y="732" width="3" height="1" rx="0" ry="1"/><rect transform="scale(-1,1)" x="-933" y="736" width="3" height="1" rx="0" ry="1" fill="#fff"/><rect transform="scale(-1,1)" x="-933" y="735" width="3" height="1" rx="0" ry="1"/><rect transform="scale(-1,1)" x="-933" y="739" width="3" height="1" rx="0" ry="1" fill="#fff"/><rect transform="scale(-1,1)" x="-933" y="738" width="3" height="1" rx="0" ry="1"/><rect transform="scale(-1,1)" x="-933" y="742" width="3" height="1" rx="0" ry="1" fill="#fff"/><rect transform="scale(-1,1)" x="-933" y="741" width="3" height="1" rx="0" ry="1"/><rect transform="scale(-1,1)" x="-933" y="745" width="3" height="1" rx="0" ry="1" fill="#fff"/><rect transform="scale(-1,1)" x="-933" y="744" width="3" height="1" rx="0" ry="1"/><rect transform="scale(-1,1)" x="-933" y="748" width="3" height="1" rx="0" ry="1" fill="#fff"/><rect transform="scale(-1,1)" x="-933" y="747" width="3" height="1" rx="0" ry="1"/><rect transform="scale(-1,1)" x="-933" y="751" width="3" height="1" rx="0" ry="1" fill="#fff"/><rect transform="scale(-1,1)" x="-933" y="750" width="3" height="1" rx="0" ry="1"/><rect transform="scale(-1,1)" x="-933" y="703" width="3" height="1" rx="0" ry="1" fill="#fff"/><rect transform="scale(-1,1)" x="-933" y="702" width="3" height="1" rx="0" ry="1"/><rect transform="scale(-1,1)" x="-933" y="706" width="3" height="1" rx="0" ry="1" fill="#fff"/><rect transform="scale(-1,1)" x="-933" y="705" width="3" height="1" rx="0" ry="1"/><rect transform="scale(-1,1)" x="-933" y="709" width="3" height="1" rx="0" ry="1" fill="#fff"/><rect transform="scale(-1,1)" x="-933" y="708" width="3" height="1" rx="0" ry="1"/><rect transform="scale(-1,1)" x="-933" y="712" width="3" height="1" rx="0" ry="1" fill="#fff"/><rect transform="scale(-1,1)" x="-933" y="711" width="3" height="1" rx="0" ry="1"/><rect transform="scale(-1,1)" x="-933" y="715" width="3" height="1" rx="0" ry="1" fill="#fff"/><rect transform="scale(-1,1)" x="-933" y="714" width="3" height="1" rx="0" ry="1"/><rect transform="scale(-1,1)" x="-933" y="718" width="3" height="1" rx="0" ry="1" fill="#fff"/><rect transform="scale(-1,1)" x="-933" y="717" width="3" height="1" rx="0" ry="1"/><rect transform="scale(-1,1)" x="-933" y="721" width="3" height="1" rx="0" ry="1" fill="#fff"/><rect transform="scale(-1,1)" x="-933" y="720" width="3" height="1" rx="0" ry="1"/><rect transform="scale(-1,1)" x="-933" y="724" width="3" height="1" rx="0" ry="1" fill="#fff"/><rect transform="scale(-1,1)" x="-933" y="723" width="3" height="1" rx="0" ry="1"/><rect transform="scale(-1,1)" x="-933" y="727" width="6" height="1" rx="0" ry="1" fill="#fff"/><rect transform="scale(-1,1)" x="-933" y="726" width="6" height="1" rx="0" ry="1"/></g></g></g></g></svg>
