<svg width="18" height="18" version="1.1" xmlns="http://www.w3.org/2000/svg">
  <path d="m0.800781 0c-0.434551 0-0.800781 0.36623-0.800781 0.800781v16.3984c0 0.434551 0.36623 0.800781 0.800781 0.800781h16.3985c0.434551 0 0.800781-0.36623 0.800781-0.800781v-16.3984c0-0.434551-0.36623-0.800781-0.800781-0.800781zm1.19922 1h14.0001c0.56265 0 1 0.437351 1 1v14c0 0.562649-0.437351 1-1 1h-14.0001c-0.562649 0-1-0.437351-1-1v-14c0-0.562649 0.437351-1 1-1z" color="#000000" color-rendering="auto" dominant-baseline="auto" fill="#000002" image-rendering="auto" shape-rendering="auto" solid-color="#000000" style="font-feature-settings:normal;font-variant-alternates:normal;font-variant-caps:normal;font-variant-ligatures:normal;font-variant-numeric:normal;font-variant-position:normal;isolation:auto;mix-blend-mode:normal;paint-order:fill markers stroke;shape-padding:0;text-decoration-color:#000000;text-decoration-line:none;text-decoration-style:solid;text-indent:0;text-orientation:mixed;text-transform:none;white-space:normal"/>
</svg>
