<svg width="66" height="16" version="1.1" xmlns="http://www.w3.org/2000/svg">
  <g transform="matrix(-.60802 0 0 .68989 32.4115 -16.899)" fill="#a89a8c" stroke-width="1.1274">
    <path transform="matrix(1.1347,0,0,1,-34.251,6)" d="m37.625-5-0.1875 2.625c-0.66019 0.16435-1.2765 0.43313-1.8438 0.78125l-1.9688-1.75-1.9688 1.9688 1.75 1.9688c-0.34382 0.56314-0.61891 1.1878-0.78125 1.8438l-2.625 0.1875v2.75l2.625 0.1875c0.16385 0.66212 0.431 1.2793 0.78125 1.8438l-1.75 1.9688 1.9688 1.9688 2-1.75c0.55851 0.33599 1.1644 0.58862 1.8125 0.75l0.1875 2.6562h2.75l0.1875-2.625c0.66019-0.16435 1.2765-0.43313 1.8438-0.78125l1.9688 1.75 1.9688-1.9688-1.75-1.9688c0.34382-0.56314 0.61891-1.1878 0.78125-1.8438l2.625-0.1875v-2.75l-2.625-0.1875c-0.16435-0.66019-0.43313-1.2765-0.78125-1.8438l1.75-1.9688-1.9688-1.9688-1.9688 1.75c-0.56314-0.34382-1.1878-0.61891-1.8438-0.78125l-0.1875-2.625zm1.375 6c1.6505 0 3 1.3495 3 3s-1.3495 3-3 3-3-1.3495-3-3 1.3495-3 3-3z" color="#000001" fill="#a89a8c"/>
  </g>
  <path d="m12.1402 7.99759c0 1.1046-0.895425 2-1.99999 2-1.1046 0-2-0.895434-2-2 0-1.1046 0.89543-2 2-2 1.10459 0 1.99999 0.89543 1.99999 2z"/>
  <path d="m5.10905 1.77879c-0.46983 0.37272-0.88558 0.83607-1.2712 1.2695-0.34677 0.53773-0.750721 1.0428-0.973171 1.6505-0.31642 0.65805-0.53809 1.3539-0.63065 2.08-0.14628 0.83028-0.10783 1.6845 0.01383 2.5158 0.30628 1.9073 1.3517 3.682 2.8299 4.9217 0.26042-0.32292 0.52083-0.64583 0.78125-0.96875-1.0985-0.93442-1.9431-2.1971-2.2728-3.6081-0.1522-0.512102-0.17992-1.0499-0.22748-1.5794 0.01245-0.66319 0.12302-1.3252 0.28153-1.9688 0.39737-1.3023 1.1834-2.4911 2.25-3.3438-0.26042-0.32292-0.52083-0.64583-0.78125-0.96875z"/>
  <path d="m5.14025 1.81009c-0.43163 0.34953-0.83797 0.75587-1.1875 1.1875-2.7581 3.406-2.2185 8.4294 1.1875 11.188l0.75-0.9375c-2.902-2.35-3.35-6.598-1-9.5l0.09375-0.09375c0.27528-0.32661 0.57414-0.63731 0.90625-0.90625l-0.75-0.9375z" color="#000000" style="text-indent:0;text-transform:none"/>
  <path d="m7.01525 4.15379c-0.26844 0.21737-0.50138 0.45031-0.71875 0.71875-1.7136 2.1161-1.3974 5.2552 0.71875 6.9688l0.78125-0.9375c-1.6121-1.3055-1.868-3.6379-0.5625-5.25 0.16461-0.20327 0.35923-0.39789 0.5625-0.5625l-0.78125-0.9375z" color="#000000" style="text-indent:0;text-transform:none"/>
  <path d="m15.1402 1.81009c0.43163 0.34953 0.83797 0.75587 1.1875 1.1875 2.7581 3.406 2.2185 8.4294-1.1875 11.188l-0.75-0.9375c2.902-2.35 3.35-6.598 1-9.5l-0.09375-0.09375c-0.27528-0.32661-0.57414-0.63731-0.90625-0.90625l0.75-0.9375z" color="#000000" style="text-indent:0;text-transform:none"/>
  <path d="m13.2652 4.15379c0.26844 0.21737 0.50138 0.45031 0.71875 0.71875 1.7136 2.1161 1.3974 5.2552-0.71875 6.9688l-0.78125-0.9375c1.6121-1.3055 1.868-3.6379 0.5625-5.25-0.1646-0.20327-0.35923-0.39789-0.5625-0.5625l0.78125-0.9375z" color="#000000" style="text-indent:0;text-transform:none"/>
</svg>
