<svg width="23" height="24" version="1.1" xmlns="http://www.w3.org/2000/svg">
  <path d="M -0.1992188,0 C -0.6337701,0 -1,0.36623 -1,0.800781 V 23.199219 C -1,23.63377 -0.63377,24 -0.1992188,24 H 22.199219 C 22.63377,24 23,23.63377 23,23.199219 V 0.800781 C 23,0.36623 22.63377,0 22.199219,0 Z M 1,1 h 20 c 0.562649,0 1,0.437351 1,1 v 20 c 0,0.562649 -0.437351,1 -1,1 H 1 C 0.4373514,23 0,22.562649 0,22 V 2 C 0,1.437351 0.4373514,1 1,1 Z" color="#000000" color-rendering="auto" dominant-baseline="auto" image-rendering="auto" shape-rendering="auto" solid-color="#000000" style="font-feature-settings:normal;font-variant-alternates:normal;font-variant-caps:normal;font-variant-ligatures:normal;font-variant-numeric:normal;font-variant-position:normal;isolation:auto;mix-blend-mode:normal;paint-order:fill markers stroke;shape-padding:0;text-decoration-color:#000000;text-decoration-line:none;text-decoration-style:solid;text-indent:0;text-orientation:mixed;text-transform:none;white-space:normal"/>
</svg>
