<svg width="24" height="24" version="1.1" xmlns="http://www.w3.org/2000/svg">
  <g display="none" opacity=".360743">
    <g fill="none" stroke="#fffffd" stroke-linejoin="round" stroke-width="1.6">
      <path d="m20 18v-12h-5v-3l-7 3.75 7 3.75-1e-4 -2.9999 3.5001-1e-4v9l-1.5-1e-4v1.5001z" color="#fffffd"/>
      <path d="m4 6v12h5v3l7-3.75-7-3.75 1e-4 2.9999-3.5001 1e-4v-9l1.5 1e-4v-1.5001z" color="#fffffd"/>
    </g>
    <path d="m20 18v-12h-5v-3l-7 3.75 7 3.75-1e-4 -2.9999 3.5001-1e-4v9l-1.5-1e-4v1.5001z" fill="#000002"/>
    <path d="m4 6v12h5v3l7-3.75-7-3.75 1e-4 2.9999-3.5001 1e-4v-9l1.5 1e-4v-1.5001z" color="#fffffd" fill="#000002"/>
  </g>
  <path d="m11 3.99995-7 3.75 7 3.75v-2.99023h3.49023v8.98047h-1.49023v1.50977h1.76172c0.707602 0 1.23828-0.615581 1.23828-1.2793v-9.44141c0-0.663716-0.53068-1.2793-1.23828-1.2793h-3.76172z" color="#fffffd" color-rendering="auto" dominant-baseline="auto" fill="#000002" image-rendering="auto" shape-rendering="auto" solid-color="#fffffd" stop-color="#fffffd" stroke="#fffffd" stroke-linecap="round" stroke-linejoin="round" stroke-width="1.6" style="font-feature-settings:normal;font-variant-alternates:normal;font-variant-caps:normal;font-variant-east-asian:normal;font-variant-ligatures:normal;font-variant-numeric:normal;font-variant-position:normal;font-variation-settings:normal;inline-size:0;isolation:auto;mix-blend-mode:normal;shape-margin:0;shape-padding:0;text-decoration-color:#fffffd;text-decoration-line:none;text-decoration-style:solid;text-indent:0;text-orientation:mixed;text-transform:none;white-space:normal"/>
  <path d="m10.4336 6.99995v1.50977h4.05664v8.98047h-1.49023v1.50977h1.76172c0.707602 0 1.23828-0.615581 1.23828-1.2793v-9.44141c0-0.663716-0.53068-1.2793-1.23828-1.2793z" color="#fffffd" color-rendering="auto" dominant-baseline="auto" fill="#000002" image-rendering="auto" shape-rendering="auto" solid-color="#fffffd" stop-color="#fffffd" style="font-feature-settings:normal;font-variant-alternates:normal;font-variant-caps:normal;font-variant-east-asian:normal;font-variant-ligatures:normal;font-variant-numeric:normal;font-variant-position:normal;font-variation-settings:normal;inline-size:0;isolation:auto;mix-blend-mode:normal;shape-margin:0;shape-padding:0;text-decoration-color:#fffffd;text-decoration-line:none;text-decoration-style:solid;text-indent:0;text-orientation:mixed;text-transform:none;white-space:normal"/>
  <path d="m4 7.74995 7-3.75v7.5z" fill="#000002"/>
</svg>
