<svg version="1.1" viewBox="0 0 24 24" xmlns="http://www.w3.org/2000/svg">
  <path d="m5 2.1992188a.80008001.80008001 0 00-.8007813.8007812v18a.80008001.80008001 0 00.8007813.800781h2a.80008001.80008001 0 00.8007812-.800781v-18a.80008001.80008001 0 00-.8007812-.8007812zm0 .8007812h2v18h-2z" fill="#fff" stop-color="#000000"/>
  <path d="m5 3v18h2v-18z" fill="#3f3d3d"/>
  <path d="m17 2.1992188a.80008001.80008001 0 00-.800781.8007812v18a.80008001.80008001 0 00.800781.800781h2a.80008001.80008001 0 00.800781-.800781v-18a.80008001.80008001 0 00-.800781-.8007812zm0 .8007812h2v18h-2z" fill="#fff" stop-color="#000000" stroke-linejoin="round"/>
  <path d="m17 21h2v-18h-2z" fill="#3f3d3d"/>
  <path d="m20.03125 4.1992187a.80008001.80008001 0 00-.427734.1054688l-7 4a.80008001.80008001 0 000 1.390625l7 4.0000005a.80008001.80008001 0 001.197265-.695313v-8a.80008001.80008001 0 00-.769531-.8007813zm-.03125.8007813v8l-7-4z" fill="#fff" stop-color="#000000" stroke-linejoin="round"/>
  <path d="m20 5-7 4 7 4z"/>
  <path d="m3.96875 4.1992187a.80008001.80008001 0 00-.7695312.8007813v8a.80008001.80008001 0 001.1972656.695313l6.9999996-4.0000005a.80008001.80008001 0 000-1.390625l-6.9999996-4a.80008001.80008001 0 00-.4277344-.1054688zm.03125.8007813 7 4-7 4z" fill="#fff" stop-color="#000000" stroke-linejoin="round"/>
  <path d="m4.00008 13 7-4-7-4z"/>
</svg>
