<svg version="1.1" viewBox="0 0 18 11" xmlns="http://www.w3.org/2000/svg">
  <path d="m9.00005 3-3.46414 6h6.9282z" fill="none" stroke="#fff" stroke-linejoin="round" stroke-width="1.6"/>
  <path d="m9.00005 3-3.46414 6h6.9282z" stroke-width=".857143"/>
  <path d="m-.199219-1c-.434551 0-.800781.36623-.800781.800781v22.3984c0 .434551.36623.800781.800781.800781h18.4024c.434551 0 .800781-.36623.800781-.800781v-22.3984c0-.434551-.36623-.800781-.800781-.800781zm1.19922 1h16.004c.562649 0 1 .437351 1 1v20c0 .562649-.437351 1-1 1h-16.004c-.562649 0-1-.437351-1-1v-20c0-.562649.437351-1 1-1z" color="#000000" color-rendering="auto" dominant-baseline="auto" image-rendering="auto" shape-rendering="auto" solid-color="#000000" style="font-feature-settings:normal;font-variant-alternates:normal;font-variant-caps:normal;font-variant-ligatures:normal;font-variant-numeric:normal;font-variant-position:normal;isolation:auto;mix-blend-mode:normal;paint-order:fill markers stroke;shape-padding:0;text-decoration-color:#000000;text-decoration-line:none;text-decoration-style:solid;text-indent:0;text-orientation:mixed;text-transform:none;white-space:normal"/>
  <path d="m.999898 0c-.562649 0-1 .437352-1 1v.5h1.10742c.150078-.293496.446907-.5.800781-.5l14.1876 2e-7c.353874 0 .650703.206504.800781.5h1.10742v-.5c0-.562648-.437351-1-1-1z" color="#000000" color-rendering="auto" dominant-baseline="auto" fill="#dcdcdc" fill-opacity=".0705882" image-rendering="auto" shape-rendering="auto" solid-color="#000000" style="font-feature-settings:normal;font-variant-alternates:normal;font-variant-caps:normal;font-variant-ligatures:normal;font-variant-numeric:normal;font-variant-position:normal;isolation:auto;mix-blend-mode:normal;paint-order:fill markers stroke;shape-padding:0;text-decoration-color:#000000;text-decoration-line:none;text-decoration-style:solid;text-indent:0;text-orientation:mixed;text-transform:none;white-space:normal"/>
  <path d="m.999898 22v-1.9082c0 .503636.404567.908203.908203.908203h14.1876c.503636 0 .908203-.404567.908203-.908203v-18.5918h1v19.5c0 .562648-.437351 1-1 1z" color="#000000" color-rendering="auto" dominant-baseline="auto" fill="#d1d1d1" fill-opacity=".0196078" image-rendering="auto" shape-rendering="auto" solid-color="#000000" style="font-feature-settings:normal;font-variant-alternates:normal;font-variant-caps:normal;font-variant-ligatures:normal;font-variant-numeric:normal;font-variant-position:normal;isolation:auto;mix-blend-mode:normal;paint-order:fill markers stroke;shape-padding:0;text-decoration-color:#000000;text-decoration-line:none;text-decoration-style:solid;text-indent:0;text-orientation:mixed;text-transform:none;white-space:normal"/>
  <path d="m.999898 22c-.562649 0-1-.437352-1-1v-19.5h1v18.5918z" color="#000000" color-rendering="auto" dominant-baseline="auto" fill="#d1d1d1" fill-opacity=".06" image-rendering="auto" shape-rendering="auto" solid-color="#000000" style="font-feature-settings:normal;font-variant-alternates:normal;font-variant-caps:normal;font-variant-ligatures:normal;font-variant-numeric:normal;font-variant-position:normal;isolation:auto;mix-blend-mode:normal;paint-order:fill markers stroke;shape-padding:0;text-decoration-color:#000000;text-decoration-line:none;text-decoration-style:solid;text-indent:0;text-orientation:mixed;text-transform:none;white-space:normal"/>
</svg>
