<svg version="1.1" viewBox="0 0 16 16" xmlns="http://www.w3.org/2000/svg">
  <g transform="matrix(.774637 0 0 .774637 19.5076 .200978)" fill="none" stroke="#6a6a6a" stroke-linecap="round" stroke-linejoin="round" stroke-width=".77455634" aria-label="♪">
    <path d="m-14.6232 1.77188h1.13281l.104167.091146v.507812c.234375.46875 1.10243.976562 2.60417 1.52344 2.08333.607639 3.125 1.51042 3.125 2.70833 0 1.26736-.529514 2.31771-1.58854 3.15104h-.05208l-.390625-.416667c.529514-.425347.794271-1.0026.794271-1.73177 0-.607639-.989583-1.21962-2.96875-1.83594-.798611-.364583-1.30642-.659722-1.52344-.885417v11.2984c0 1.32812-.972222 2.1875-2.91667 2.57812h-.742187c-2.1007 0-3.15104-.729167-3.15104-2.1875 0-1.13715.920139-1.80556 2.76042-2.00521h.299479c.833333 0 1.63628.277778 2.40885.833333v-13.5379z" fill="none" stroke="#6a6a6a" stroke-linecap="round" stroke-linejoin="round" stroke-width=".77455634"/>
  </g>
  <g transform="matrix(.774637 0 0 .774637 19.5076 .200977)" aria-label="♪">
    <path d="m-14.6232 1.77188h1.13281l.104167.091146v.507812c.234375.46875 1.10243.976562 2.60417 1.52344 2.08333.607639 3.125 1.51042 3.125 2.70833 0 1.26736-.529514 2.31771-1.58854 3.15104h-.05208l-.390625-.416667c.529514-.425347.794271-1.0026.794271-1.73177 0-.607639-.989583-1.21962-2.96875-1.83594-.798611-.364583-1.30642-.659722-1.52344-.885417v11.2984c0 1.32812-.972222 2.1875-2.91667 2.57812h-.742187c-2.1007 0-3.15104-.729167-3.15104-2.1875 0-1.13715.920139-1.80556 2.76042-2.00521h.299479c.833333 0 1.63628.277778 2.40885.833333v-13.5379z" stroke-width="1.29093"/>
  </g>
</svg>
