<?xml version="1.0" encoding="utf-8"?>
<!-- Generator: Adobe Illustrator 23.0.6, SVG Export Plug-In . SVG Version: 6.00 Build 0)  -->
<svg version="1.1" id="Capa_1" xmlns="http://www.w3.org/2000/svg" xmlns:xlink="http://www.w3.org/1999/xlink" x="0px" y="0px"
	 viewBox="0 0 116 116" style="enable-background:new 0 0 116 116;" xml:space="preserve">
<style type="text/css">
	.st0{fill:#3DABD0;}
	.st1{fill:#020202;}
</style>
<path class="st0" d="M57.6,36.7c-0.4,0-0.8-0.4-0.8-0.8V18.1c0-0.4,0.4-0.8,0.8-0.8h0.9c0.4,0,0.8,0.4,0.8,0.8v17.8
	c0,0.4-0.4,0.8-0.8,0.8H57.6z"/>
<path class="st1" d="M58.5,17.5c0.3,0,0.6,0.3,0.6,0.6v17.8c0,0.3-0.3,0.6-0.6,0.6h-0.9c-0.3,0-0.6-0.3-0.6-0.6V18.1
	c0.1-0.3,0.4-0.6,0.7-0.6H58.5 M58.5,17h-0.9c-0.6,0-1.1,0.5-1.1,1.1v17.8c0,0.6,0.5,1.1,1.1,1.1h0.9c0.6,0,1.1-0.5,1.1-1.1V18.1
	C59.5,17.5,59,17,58.5,17L58.5,17z"/>
</svg>
