<?xml version="1.0" encoding="utf-8"?>
<!-- Generator: Adobe Illustrator 23.0.6, SVG Export Plug-In . SVG Version: 6.00 Build 0)  -->
<svg version="1.1" id="Capa_1" xmlns="http://www.w3.org/2000/svg" xmlns:xlink="http://www.w3.org/1999/xlink" x="0px" y="0px"
	 viewBox="0 0 56 14" style="enable-background:new 0 0 56 14;" xml:space="preserve">
<style type="text/css">
	.st0{fill:#272727;}
	.st1{fill:#C7C7C7;}
	.st2{fill:#343434;}
	.st3{fill:#0B0A0F;}
</style>
<path class="st0" d="M11,10.9v-8c0-1.1,0.9-2,2-2h40c1.1,0,2,0.9,2,2v8c0,1.1-0.9,2-2,2H13C11.9,12.9,11,12,11,10.9z"/>
<path class="st1" d="M55,7.9H11v-2h44V7.9z"/>
<rect x="31.5" y="-17.6" transform="matrix(-1.836970e-16 1 -1 -1.836970e-16 37.4118 -28.5882)" class="st2" width="3" height="43.9"/>
<rect x="31.5" y="-12.6" transform="matrix(-1.836970e-16 1 -1 -1.836970e-16 42.4118 -23.5882)" class="st2" width="3" height="43.9"/>
<path class="st3" d="M54,2v10H12V2H54 M54,0H12c-1.1,0-2,0.9-2,2v10c0,1.1,0.9,2,2,2h42c1.1,0,2-0.9,2-2V2C56,0.9,55.1,0,54,0L54,0z
	"/>
</svg>
