<?xml version="1.0" encoding="utf-8"?>
<!-- Generator: Adobe Illustrator 23.0.6, SVG Export Plug-In . SVG Version: 6.00 Build 0)  -->
<svg version="1.1" id="Capa_1" xmlns="http://www.w3.org/2000/svg" xmlns:xlink="http://www.w3.org/1999/xlink" x="0px" y="0px"
	 viewBox="0 0 14 45" style="enable-background:new 0 0 14 45;" xml:space="preserve">
<style type="text/css">
	.st0{fill:#272727;}
	.st1{fill:#C7C7C7;}
	.st2{fill:#343434;}
	.st3{fill:#0B0A0F;}
</style>
<path class="st0" d="M11,44H3c-1.1,0-2-0.9-2-2V3c0-1.1,0.9-2,2-2h8c1.1,0,2,0.9,2,2v39C13,43.1,12.1,44,11,44z"/>
<path class="st1" d="M8,1v43H6V1H8z"/>
<rect x="3" y="1" class="st2" width="3" height="42.9"/>
<rect x="8" y="1" class="st2" width="3" height="42.9"/>
<path class="st3" d="M12,2v41H2V2H12 M12,0H2C0.9,0,0,0.9,0,2v41c0,1.1,0.9,2,2,2h10c1.1,0,2-0.9,2-2V2C14,0.9,13.1,0,12,0L12,0z"/>
</svg>
