<?xml version="1.0" encoding="utf-8"?>
<!-- Generator: Adobe Illustrator 23.0.6, SVG Export Plug-In . SVG Version: 6.00 Build 0)  -->
<svg version="1.1" id="Capa_1" xmlns="http://www.w3.org/2000/svg" xmlns:xlink="http://www.w3.org/1999/xlink" x="0px" y="0px"
	 viewBox="0 0 72 72" style="enable-background:new 0 0 72 72;" xml:space="preserve">
<style type="text/css">
	.st0{fill:#6A50D8;}
	.st1{fill:#020202;}
</style>
<g>
	<path class="st0" d="M35.6,19.3c-0.4,0-0.8-0.4-0.8-0.8V3.6c0-0.4,0.4-0.8,0.8-0.8h0.9c0.4,0,0.8,0.4,0.8,0.8v14.9
		c0,0.4-0.4,0.8-0.8,0.8H35.6z"/>
	<path class="st1" d="M36.4,3C36.7,3,37,3.3,37,3.6v14.9c0,0.3-0.3,0.6-0.6,0.6h-0.9c-0.3,0-0.6-0.3-0.6-0.6V3.6
		C35,3.3,35.3,3,35.6,3H36.4 M36.4,2.5h-0.9c-0.6,0-1.1,0.5-1.1,1.1v14.9c0,0.6,0.5,1.1,1.1,1.1h0.9c0.6,0,1.1-0.5,1.1-1.1V3.6
		C37.5,3,37,2.5,36.4,2.5L36.4,2.5z"/>
</g>
</svg>
