<?xml version="1.0" encoding="UTF-8" standalone="no"?>
<!-- Created with Inkscape (http://www.inkscape.org/) -->
<svg
   xmlns:dc="http://purl.org/dc/elements/1.1/"
   xmlns:cc="http://creativecommons.org/ns#"
   xmlns:rdf="http://www.w3.org/1999/02/22-rdf-syntax-ns#"
   xmlns:svg="http://www.w3.org/2000/svg"
   xmlns="http://www.w3.org/2000/svg"
   xmlns:sodipodi="http://sodipodi.sourceforge.net/DTD/sodipodi-0.dtd"
   xmlns:inkscape="http://www.inkscape.org/namespaces/inkscape"
   width="358.18201"
   height="89.146004"
   id="svg3661"
   sodipodi:version="0.32"
   inkscape:version="0.46"
   version="1.0"
   sodipodi:docname="logocolour_nopadding.svg"
   inkscape:output_extension="org.inkscape.output.svg.inkscape">
  <defs
     id="defs3663">
    <linearGradient
       id="SVGID_46_"
       gradientUnits="userSpaceOnUse"
       x1="52.391102"
       y1="89.894997"
       x2="52.391102"
       y2="-0.1152">
			<stop
   offset="0"
   style="stop-color:#FFFFFF"
   id="stop662" />

			<stop
   offset="1"
   style="stop-color:#000000"
   id="stop664" />

		</linearGradient>
    <linearGradient
       id="SVGID_45_"
       gradientUnits="userSpaceOnUse"
       x1="52.545399"
       y1="89.147903"
       x2="52.545399"
       y2="0.1582">
			<stop
   offset="0"
   style="stop-color:#FFFFFF"
   id="stop655" />

			<stop
   offset="1"
   style="stop-color:#000000"
   id="stop657" />

		</linearGradient>
    <linearGradient
       id="SVGID_44_"
       gradientUnits="userSpaceOnUse"
       x1="22.4111"
       y1="89.1465"
       x2="22.4111"
       y2="0.90429997">
			<stop
   offset="0"
   style="stop-color:#FFFFFF"
   id="stop648" />

			<stop
   offset="1"
   style="stop-color:#000000"
   id="stop650" />

		</linearGradient>
    <linearGradient
       id="SVGID_43_"
       gradientUnits="userSpaceOnUse"
       x1="82.409698"
       y1="89.1465"
       x2="82.409698"
       y2="-1.3928">
			<stop
   offset="0"
   style="stop-color:#FFFFFF"
   id="stop641" />

			<stop
   offset="1"
   style="stop-color:#000000"
   id="stop643" />

		</linearGradient>
    <linearGradient
       y2="0.1052"
       x2="300.58301"
       y1="90.025398"
       x1="300.58301"
       gradientUnits="userSpaceOnUse"
       id="SVGID_42_">
				<stop
   id="stop634"
   style="stop-color:#FFFFFF"
   offset="0" />

				<stop
   id="stop636"
   style="stop-color:#000000"
   offset="1" />

			</linearGradient>
    <linearGradient
       y2="-3.2412"
       x2="327.60641"
       y1="89.118202"
       x1="327.60641"
       gradientUnits="userSpaceOnUse"
       id="SVGID_41_">
				<stop
   id="stop627"
   style="stop-color:#FFFFFF"
   offset="0" />

				<stop
   id="stop629"
   style="stop-color:#000000"
   offset="1" />

			</linearGradient>
    <linearGradient
       y2="0.1052"
       x2="239.3721"
       y1="90.025398"
       x1="239.3721"
       gradientUnits="userSpaceOnUse"
       id="SVGID_40_">
				<stop
   id="stop618"
   style="stop-color:#FFFFFF"
   offset="0" />

				<stop
   id="stop620"
   style="stop-color:#000000"
   offset="1" />

			</linearGradient>
    <linearGradient
       y2="-3.2412"
       x2="266.39551"
       y1="89.118202"
       x1="266.39551"
       gradientUnits="userSpaceOnUse"
       id="SVGID_39_">
				<stop
   id="stop611"
   style="stop-color:#FFFFFF"
   offset="0" />

				<stop
   id="stop613"
   style="stop-color:#000000"
   offset="1" />

			</linearGradient>
    <linearGradient
       y2="0.13349999"
       x2="178.18851"
       y1="90.053703"
       x1="178.18851"
       gradientUnits="userSpaceOnUse"
       id="SVGID_38_">
				<stop
   id="stop602"
   style="stop-color:#FFFFFF"
   offset="0" />

				<stop
   id="stop604"
   style="stop-color:#000000"
   offset="1" />

			</linearGradient>
    <linearGradient
       y2="-3.2128999"
       x2="205.2139"
       y1="89.1465"
       x1="205.2139"
       gradientUnits="userSpaceOnUse"
       id="SVGID_37_">
				<stop
   id="stop595"
   style="stop-color:#FFFFFF"
   offset="0" />

				<stop
   id="stop597"
   style="stop-color:#000000"
   offset="1" />

			</linearGradient>
    <linearGradient
       id="SVGID_36_"
       gradientUnits="userSpaceOnUse"
       x1="0.39109999"
       y1="88.684097"
       x2="0.39109999"
       y2="1.2002">
			<stop
   offset="0"
   style="stop-color:#FFFFFF"
   id="stop586" />

			<stop
   offset="1"
   style="stop-color:#000000"
   id="stop588" />

		</linearGradient>
    <linearGradient
       id="SVGID_35_"
       gradientUnits="userSpaceOnUse"
       x1="115.6196"
       y1="88.684097"
       x2="115.6196"
       y2="1.2002">
			<stop
   offset="0"
   style="stop-color:#FFFFFF"
   id="stop579" />

			<stop
   offset="1"
   style="stop-color:#000000"
   id="stop581" />

		</linearGradient>
    <linearGradient
       id="SVGID_34_"
       gradientUnits="userSpaceOnUse"
       x1="104.688"
       y1="90.664597"
       x2="104.688"
       y2="-2.3044">
			<stop
   offset="0"
   style="stop-color:#FFFFFF"
   id="stop572" />

			<stop
   offset="1"
   style="stop-color:#000000"
   id="stop574" />

		</linearGradient>
    <linearGradient
       id="SVGID_33_"
       gradientUnits="userSpaceOnUse"
       x1="138.0732"
       y1="90.664597"
       x2="138.0732"
       y2="-2.3044">
			<stop
   offset="0"
   style="stop-color:#FFFFFF"
   id="stop565" />

			<stop
   offset="1"
   style="stop-color:#000000"
   id="stop567" />

		</linearGradient>
    <linearGradient
       id="SVGID_32_"
       gradientUnits="userSpaceOnUse"
       x1="169.2778"
       y1="-12.0596"
       x2="169.2778"
       y2="36.1007">
			<stop
   offset="0"
   style="stop-color:#828486"
   id="stop554" />

			<stop
   offset="0.3791"
   style="stop-color:#5A5B5D"
   id="stop556" />

			<stop
   offset="1"
   style="stop-color:#D1D3D4"
   id="stop558" />

		</linearGradient>
    <linearGradient
       y2="93.905998"
       x2="52.543499"
       y1="0.27489999"
       x1="52.543499"
       gradientUnits="userSpaceOnUse"
       id="SVGID_31_">
				<stop
   id="stop545"
   style="stop-color:#1F1F20"
   offset="0.478" />

				<stop
   id="stop547"
   style="stop-color:#58595B"
   offset="0.8626" />

				<stop
   id="stop549"
   style="stop-color:#A5A8AA"
   offset="1" />

			</linearGradient>
    <linearGradient
       y2="93.905998"
       x2="126.8638"
       y1="0.27489999"
       x1="126.8638"
       gradientUnits="userSpaceOnUse"
       id="SVGID_30_">
				<stop
   id="stop536"
   style="stop-color:#1F1F20"
   offset="0.478" />

				<stop
   id="stop538"
   style="stop-color:#58595B"
   offset="0.8626" />

				<stop
   id="stop540"
   style="stop-color:#A5A8AA"
   offset="1" />

			</linearGradient>
    <linearGradient
       y2="93.905998"
       x2="314.11429"
       y1="0.27489999"
       x1="314.11429"
       gradientUnits="userSpaceOnUse"
       id="SVGID_29_">
				<stop
   id="stop527"
   style="stop-color:#1F1F20"
   offset="0.478" />

				<stop
   id="stop529"
   style="stop-color:#58595B"
   offset="0.8626" />

				<stop
   id="stop531"
   style="stop-color:#A5A8AA"
   offset="1" />

			</linearGradient>
    <linearGradient
       y2="93.905998"
       x2="252.9111"
       y1="0.27489999"
       x1="252.9111"
       gradientUnits="userSpaceOnUse"
       id="SVGID_28_">
				<stop
   id="stop518"
   style="stop-color:#1F1F20"
   offset="0.478" />

				<stop
   id="stop520"
   style="stop-color:#58595B"
   offset="0.8626" />

				<stop
   id="stop522"
   style="stop-color:#A5A8AA"
   offset="1" />

			</linearGradient>
    <linearGradient
       y2="93.905998"
       x2="191.7021"
       y1="0.27489999"
       x1="191.7021"
       gradientUnits="userSpaceOnUse"
       id="SVGID_27_">
				<stop
   id="stop509"
   style="stop-color:#1F1F20"
   offset="0.478" />

				<stop
   id="stop511"
   style="stop-color:#58595B"
   offset="0.8626" />

				<stop
   id="stop513"
   style="stop-color:#A5A8AA"
   offset="1" />

			</linearGradient>
    <linearGradient
       id="SVGID_26_"
       gradientUnits="userSpaceOnUse"
       x1="283.83691"
       y1="-0.1191"
       x2="222.3302"
       y2="88.793999">
			<stop
   offset="0"
   style="stop-color:#130E1E"
   id="stop488" />

			<stop
   offset="0.0231"
   style="stop-color:#1C1426"
   id="stop490" />

			<stop
   offset="0.1446"
   style="stop-color:#442349"
   id="stop492" />

			<stop
   offset="0.2552"
   style="stop-color:#652966"
   id="stop494" />

			<stop
   offset="0.3511"
   style="stop-color:#7C287A"
   id="stop496" />

			<stop
   offset="0.4286"
   style="stop-color:#8B2688"
   id="stop498" />

			<stop
   offset="0.478"
   style="stop-color:#91278F"
   id="stop500" />

			<stop
   offset="1"
   style="stop-color:#ED1C24"
   id="stop502" />

		</linearGradient>
    <linearGradient
       id="SVGID_25_"
       gradientUnits="userSpaceOnUse"
       x1="222.6279"
       y1="-0.1221"
       x2="161.1183"
       y2="88.795303">
			<stop
   offset="0"
   style="stop-color:#381F1F"
   id="stop463" />

			<stop
   offset="0.0017"
   style="stop-color:#3A1F20"
   id="stop465" />

			<stop
   offset="0.0376"
   style="stop-color:#5B2926"
   id="stop467" />

			<stop
   offset="0.0757"
   style="stop-color:#7C2F28"
   id="stop469" />

			<stop
   offset="0.1173"
   style="stop-color:#9B3029"
   id="stop471" />

			<stop
   offset="0.1626"
   style="stop-color:#B62E28"
   id="stop473" />

			<stop
   offset="0.2129"
   style="stop-color:#CC2927"
   id="stop475" />

			<stop
   offset="0.271"
   style="stop-color:#DC2325"
   id="stop477" />

			<stop
   offset="0.3438"
   style="stop-color:#E81F25"
   id="stop479" />

			<stop
   offset="0.478"
   style="stop-color:#ED1C24"
   id="stop481" />

			<stop
   offset="1"
   style="stop-color:#F7931E"
   id="stop483" />

		</linearGradient>
    <linearGradient
       id="SVGID_24_"
       gradientUnits="userSpaceOnUse"
       x1="345.04099"
       y1="-0.1182"
       x2="283.5343"
       y2="88.794998">
			<stop
   offset="0.478"
   style="stop-color:#39B54A"
   id="stop456" />

			<stop
   offset="1"
   style="stop-color:#1B75BC"
   id="stop458" />

		</linearGradient>
  </defs>
  <sodipodi:namedview
     id="base"
     pagecolor="#ffffff"
     bordercolor="#666666"
     borderopacity="1.0"
     gridtolerance="10000"
     guidetolerance="10"
     objecttolerance="10"
     inkscape:pageopacity="0.0"
     inkscape:pageshadow="2"
     inkscape:zoom="0.98994949"
     inkscape:cx="181.3504"
     inkscape:cy="141.16904"
     inkscape:document-units="px"
     inkscape:current-layer="layer1"
     showgrid="false"
     inkscape:window-width="642"
     inkscape:window-height="722"
     inkscape:window-x="0"
     inkscape:window-y="25" />
  <metadata
     id="metadata3666">
    <rdf:RDF>
      <cc:Work
         rdf:about="">
        <dc:format>image/svg+xml</dc:format>
        <dc:type
           rdf:resource="http://purl.org/dc/dcmitype/StillImage" />
      </cc:Work>
    </rdf:RDF>
  </metadata>
  <g
     inkscape:label="Layer 1"
     inkscape:groupmode="layer"
     id="layer1"
     transform="translate(-23.766146,-27.789184)">
    <g
       transform="translate(23.766146,27.789184)"
       id="g3593">
      <polygon
         id="polygon460"
         points="270.048,89.146 331.159,0.028 358.171,0.028 297.071,89.146 270.048,89.146 "
         style="fill:url(#SVGID_24_)" />
      <polygon
         id="polygon485"
         points="147.63,89.146 208.737,0.028 235.764,0.028 174.664,89.146 147.63,89.146 "
         style="fill:url(#SVGID_25_)" />
      <polygon
         id="polygon504"
         points="208.845,89.146 269.955,0.028 296.968,0.028 235.867,89.146 208.845,89.146 "
         style="fill:url(#SVGID_26_)" />
      <g
         id="g506">
			<linearGradient
   y2="93.905998"
   x2="191.7021"
   y1="0.27489999"
   x1="191.7021"
   gradientUnits="userSpaceOnUse"
   id="linearGradient3766">
				<stop
   id="stop3768"
   style="stop-color:#1F1F20"
   offset="0.478" />

				<stop
   id="stop3770"
   style="stop-color:#58595B"
   offset="0.8626" />

				<stop
   id="stop3772"
   style="stop-color:#A5A8AA"
   offset="1" />

			</linearGradient>

			<polygon
   id="polygon515"
   points="235.764,89.146 174.664,0.028 147.641,0.028 208.737,89.146 235.764,89.146 "
   style="fill:url(#SVGID_27_)" />

			<linearGradient
   y2="93.905998"
   x2="252.9111"
   y1="0.27489999"
   x1="252.9111"
   gradientUnits="userSpaceOnUse"
   id="linearGradient3775">
				<stop
   id="stop3777"
   style="stop-color:#1F1F20"
   offset="0.478" />

				<stop
   id="stop3779"
   style="stop-color:#58595B"
   offset="0.8626" />

				<stop
   id="stop3781"
   style="stop-color:#A5A8AA"
   offset="1" />

			</linearGradient>

			<polygon
   id="polygon524"
   points="296.978,89.146 235.867,0.028 208.845,0.028 269.955,89.146 296.978,89.146 "
   style="fill:url(#SVGID_28_)" />

			<linearGradient
   y2="93.905998"
   x2="314.11429"
   y1="0.27489999"
   x1="314.11429"
   gradientUnits="userSpaceOnUse"
   id="linearGradient3784">
				<stop
   id="stop3786"
   style="stop-color:#1F1F20"
   offset="0.478" />

				<stop
   id="stop3788"
   style="stop-color:#58595B"
   offset="0.8626" />

				<stop
   id="stop3790"
   style="stop-color:#A5A8AA"
   offset="1" />

			</linearGradient>

			<polygon
   id="polygon533"
   points="358.182,89.146 297.071,0.028 270.048,0.028 331.159,89.146 358.182,89.146 "
   style="fill:url(#SVGID_29_)" />

			<linearGradient
   y2="93.905998"
   x2="126.8638"
   y1="0.27489999"
   x1="126.8638"
   gradientUnits="userSpaceOnUse"
   id="linearGradient3793">
				<stop
   id="stop3795"
   style="stop-color:#1F1F20"
   offset="0.478" />

				<stop
   id="stop3797"
   style="stop-color:#58595B"
   offset="0.8626" />

				<stop
   id="stop3799"
   style="stop-color:#A5A8AA"
   offset="1" />

			</linearGradient>

			<rect
   id="rect542"
   height="89.117996"
   width="23.115"
   y="0.028000001"
   x="115.307"
   style="fill:url(#SVGID_30_)" />

			<linearGradient
   y2="93.905998"
   x2="52.543499"
   y1="0.27489999"
   x1="52.543499"
   gradientUnits="userSpaceOnUse"
   id="linearGradient3802">
				<stop
   id="stop3804"
   style="stop-color:#1F1F20"
   offset="0.478" />

				<stop
   id="stop3806"
   style="stop-color:#58595B"
   offset="0.8626" />

				<stop
   id="stop3808"
   style="stop-color:#A5A8AA"
   offset="1" />

			</linearGradient>

			<polygon
   id="polygon551"
   points="22.665,89.146 22.665,36.958 51.941,81.396 52.538,81.396 82.118,36.506 82.118,89.146 105.087,89.146 105.087,0.028 80.171,0.028 52.538,44.465 24.919,0.028 0,0.028 0,89.146 22.665,89.146 "
   style="fill:url(#SVGID_31_)" />

		</g>
      <path
         id="path560"
         d="M 147.641,0.028 L 176.057,41.475 C 185.405,41.621 194.607,41.909 203.659,42.318 L 174.665,0.028 L 147.641,0.028 L 147.641,0.028 z M 208.845,0.028 L 239.443,44.643 C 249.427,45.504 259.139,46.518 268.542,47.686 L 235.867,0.028 L 208.845,0.028 z M 297.071,0.028 L 270.048,0.028 L 306.755,53.545 C 318.05,55.642 328.688,57.979 338.557,60.518 L 297.071,0.028 z M 115.307,42.329 C 122.894,41.982 130.617,41.732 138.422,41.567 L 138.422,0.028 L 115.307,0.028 L 115.307,42.329 z M 52.538,44.465 L 24.919,0.028 L 0,0.028 L 0,56.438 C 7.241,54.877 14.806,53.434 22.665,52.094 L 22.665,36.958 L 31.667,50.623 C 45.791,48.427 60.765,46.576 76.439,45.126 L 82.119,36.506 L 82.119,44.618 C 89.631,43.973 97.293,43.424 105.088,42.968 L 105.088,0.028 L 80.171,0.028 L 52.538,44.465 z"
         style="fill:url(#SVGID_32_)" />
      <path
         id="path562"
         d="M 239.254,44.368 L 239.442,44.643 C 249.426,45.504 259.138,46.518 268.541,47.686 L 268.333,47.385 C 258.961,46.231 249.248,45.226 239.254,44.368 z M 0,56.438 C 7.241,54.877 14.806,53.434 22.665,52.094 L 22.665,50.924 C 14.803,52.192 7.216,53.556 0,55.027 L 0,56.438 z M 338.35,60.214 C 328.555,57.658 317.928,55.299 306.509,53.189 L 306.755,53.545 C 318.05,55.642 328.688,57.979 338.557,60.518 L 338.35,60.214 z M 175.839,41.155 L 176.057,41.475 C 185.405,41.621 194.607,41.909 203.659,42.318 L 203.459,42.028 C 194.413,41.612 185.197,41.321 175.839,41.155 z M 115.307,42.329 C 122.894,41.982 130.617,41.732 138.422,41.567 L 138.422,41.149 C 130.614,41.286 122.901,41.503 115.307,41.814 L 115.307,42.329 z M 31.667,50.623 C 45.791,48.427 60.765,46.576 76.439,45.126 L 76.95,44.349 C 60.825,45.728 45.448,47.501 31.013,49.63 L 31.667,50.623 z M 82.118,44.618 C 89.63,43.973 97.292,43.424 105.087,42.968 L 105.087,42.394 C 97.289,42.814 89.623,43.319 82.118,43.915 L 82.118,44.618 z"
         style="fill:#ffffff" />
      <polygon
         id="polygon569"
         points="138.421,89.146 138.421,0.028 137.725,0.028 138.421,89.146 "
         style="fill:url(#SVGID_33_)" />
      <polygon
         id="polygon576"
         points="105.037,89.146 105.037,0.028 104.34,0.028 105.037,89.146 "
         style="fill:url(#SVGID_34_)" />
      <polygon
         id="polygon583"
         points="115.932,89.146 115.307,0.028 115.307,89.146 115.932,89.146 "
         style="fill:url(#SVGID_35_)" />
      <polygon
         id="polygon590"
         points="0.704,89.146 0.079,0.028 0.079,89.146 0.704,89.146 "
         style="fill:url(#SVGID_36_)" />
      <g
         id="g592">
			<linearGradient
   y2="-3.2128999"
   x2="205.2139"
   y1="89.1465"
   x1="205.2139"
   gradientUnits="userSpaceOnUse"
   id="linearGradient3818">
				<stop
   id="stop3820"
   style="stop-color:#FFFFFF"
   offset="0" />

				<stop
   id="stop3822"
   style="stop-color:#000000"
   offset="1" />

			</linearGradient>

			<polygon
   id="polygon599"
   points="235.764,89.146 174.664,0.028 235.188,89.146 235.764,89.146 "
   style="fill:url(#SVGID_37_)" />

			<linearGradient
   y2="0.13349999"
   x2="178.18851"
   y1="90.053703"
   x1="178.18851"
   gradientUnits="userSpaceOnUse"
   id="linearGradient3825">
				<stop
   id="stop3827"
   style="stop-color:#FFFFFF"
   offset="0" />

				<stop
   id="stop3829"
   style="stop-color:#000000"
   offset="1" />

			</linearGradient>

			<polygon
   id="polygon606"
   points="148.462,0.028 147.641,0.028 208.737,89.146 148.462,0.028 "
   style="fill:url(#SVGID_38_)" />

		</g>
      <g
         id="g608">
			<linearGradient
   y2="-3.2412"
   x2="266.39551"
   y1="89.118202"
   x1="266.39551"
   gradientUnits="userSpaceOnUse"
   id="linearGradient3833">
				<stop
   id="stop3835"
   style="stop-color:#FFFFFF"
   offset="0" />

				<stop
   id="stop3837"
   style="stop-color:#000000"
   offset="1" />

			</linearGradient>

			<polygon
   id="polygon615"
   points="296.946,89.118 235.846,0 296.371,89.118 296.946,89.118 "
   style="fill:url(#SVGID_39_)" />

			<linearGradient
   y2="0.1052"
   x2="239.3721"
   y1="90.025398"
   x1="239.3721"
   gradientUnits="userSpaceOnUse"
   id="linearGradient3840">
				<stop
   id="stop3842"
   style="stop-color:#FFFFFF"
   offset="0" />

				<stop
   id="stop3844"
   style="stop-color:#000000"
   offset="1" />

			</linearGradient>

			<polygon
   id="polygon622"
   points="209.645,0 208.823,0 269.92,89.118 209.645,0 "
   style="fill:url(#SVGID_40_)" />

		</g>
      <g
         id="g624">
			<linearGradient
   y2="-3.2412"
   x2="327.60641"
   y1="89.118202"
   x1="327.60641"
   gradientUnits="userSpaceOnUse"
   id="linearGradient3848">
				<stop
   id="stop3850"
   style="stop-color:#FFFFFF"
   offset="0" />

				<stop
   id="stop3852"
   style="stop-color:#000000"
   offset="1" />

			</linearGradient>

			<polygon
   id="polygon631"
   points="358.157,89.118 297.057,0 357.582,89.118 358.157,89.118 "
   style="fill:url(#SVGID_41_)" />

			<linearGradient
   y2="0.1052"
   x2="300.58301"
   y1="90.025398"
   x1="300.58301"
   gradientUnits="userSpaceOnUse"
   id="linearGradient3855">
				<stop
   id="stop3857"
   style="stop-color:#FFFFFF"
   offset="0" />

				<stop
   id="stop3859"
   style="stop-color:#000000"
   offset="1" />

			</linearGradient>

			<polygon
   id="polygon638"
   points="270.855,0 270.034,0 331.131,89.118 270.855,0 "
   style="fill:url(#SVGID_42_)" />

		</g>
      <polygon
         id="polygon645"
         points="82.118,36.506 82.118,89.146 82.701,89.146 82.118,36.506 "
         style="fill:url(#SVGID_43_)" />
      <polygon
         id="polygon652"
         points="22.66,89.146 22.66,36.958 22.163,36.23 22.66,89.146 "
         style="fill:url(#SVGID_44_)" />
      <polygon
         id="polygon659"
         points="52.541,45.118 80.171,0.028 52.538,44.465 24.919,0.028 52.541,45.118 "
         style="fill:url(#SVGID_45_)" />
      <polygon
         id="polygon666"
         points="22.665,36.958 51.941,81.396 52.538,81.396 82.118,36.506 52.268,81.076 22.665,36.958 "
         style="fill:url(#SVGID_46_)" />
    </g>
  </g>
</svg>
