<svg width="32" height="20" version="1.1" xmlns="http://www.w3.org/2000/svg"><defs><linearGradient id="a" x1="5.8939" x2="23.745" y1="16.222" y2="6.7843" gradientUnits="userSpaceOnUse"><stop stop-color="#c7c8c9" offset="0"/><stop stop-color="#e6e6e6" offset="1"/></linearGradient></defs><path d="m22.344 6.041c-8.5814 1.2349-13.813 4.3649-18.887 9.7031l1.0859 1.0332c4.9261-5.1827 9.694-8.0547 18.014-9.252zm-.57675-3.0402.97008 7.1903 6.7052-4.5652z" color="#000000" color-rendering="auto" dominant-baseline="auto" fill="url(#a)" image-rendering="auto" shape-rendering="auto" solid-color="#000000" style="font-feature-settings:normal;font-variant-alternates:normal;font-variant-caps:normal;font-variant-ligatures:normal;font-variant-numeric:normal;font-variant-position:normal;isolation:auto;mix-blend-mode:normal;shape-padding:0;text-decoration-color:#000000;text-decoration-line:none;text-decoration-style:solid;text-indent:0;text-orientation:mixed;text-transform:none;white-space:normal"/><path d="m3.7793 4.8281-.2168 1.4844c3.1686.4617 5.4587 1.0047 7.8706 1.9377.59438-.29785 1.1531-.62948 1.7832-.89062-2.853-1.264-5.6118-1.9741-9.437-2.5315zm13.878 4.8589c-.63968.19217-1.2426.38965-1.8359.61523 3.0203 1.6884 5.2014 3.6519 7.8405 6.4634l1.0938-1.0273c-2.3854-2.5411-4.385-4.3747-7.0983-6.0512z" color="#000000" color-rendering="auto" dominant-baseline="auto" fill="#d2d2d2" image-rendering="auto" shape-rendering="auto" solid-color="#000000" style="font-feature-settings:normal;font-variant-alternates:normal;font-variant-caps:normal;font-variant-ligatures:normal;font-variant-numeric:normal;font-variant-position:normal;isolation:auto;mix-blend-mode:normal;shape-padding:0;text-decoration-color:#000000;text-decoration-line:none;text-decoration-style:solid;text-indent:0;text-orientation:mixed;text-transform:none;white-space:normal"/></svg>
