<svg width="512" height="512" version="1.1" viewBox="0 0 511.99998 512.00002" xmlns="http://www.w3.org/2000/svg">
	<g transform="translate(-23.64344,7e-5)" fill="#d2d2d1">
		<path d="m279.64681 171.88159c-26.06575 0-52.13052.0299-71.90526.0877l-71.90864.20917 11.39635 144.28116c7.26636 91.9973 11.88509 146.21609 12.74582 149.6234 2.4022 9.50895 6.88437 16.93731 14.65702 24.28386 7.88017 7.44816 14.40588 11.12108 24.00553 13.51503 5.96413 1.48733 10.30426 1.57485 80.65663 1.61768 71.30357.0434 74.62708-.0215 81.02436-1.57888 9.85632-2.39955 16.34743-6.02487 24.29398-13.57238 7.85903-7.46439 12.32536-14.96921 14.6857-24.67522.90639-3.72716 5.40827-56.44582 12.77787-149.62509l11.37779-143.86956-71.90188-.20917c-19.77331-.0578-45.83951-.0877-71.90527-.0877zm79.20088 23.47248c1.92031.0545 3.91687.65563 5.89385 1.87747 4.29268 2.65302 5.9201 6.92117 5.75552 15.10065-.0764 3.80014-2.86136 62.8749-6.18904 131.27725-6.57263 135.10449-5.97739 128.11675-11.2479 131.76981-4.70407 3.26046-10.50992 2.49862-14.17796-1.86059-1.87869-2.2327-2.2317-3.50477-2.2317-8.05808 0-5.74085 8.32212-242.81518 8.888-253.19417.56337-10.33268 6.45099-17.10691 13.30923-16.91234zm-79.51126.22773c4.38547-.10444 8.72138 2.47334 10.99151 7.105 1.52928 3.12018 1.6007 6.17808 1.40345 60.44482-.11427 31.43731-.45063 90.79419-.74728 131.90475-.50093 69.42126-.6481 74.91225-2.06301 77.07039-.83789 1.27804-2.39249 2.86626-3.45466 3.52889-6.30109 3.93089-14.30324.80068-16.12627-6.30712-.65167-2.54075-2.5629-242.03828-2.06302-258.52124.18575-6.12512 2.35757-10.77695 6.23797-13.36153 1.82416-1.215 3.82792-1.8165 5.82131-1.86396zm-78.86857.007c5.49185.14786 11.05876 4.33427 12.51979 12.08289.48348 2.56393 2.8998 62.42091 5.37092 133.01639 4.87989 139.42323 4.88156 131.2626-.0304 134.68467-2.86392 1.99523-5.87605 2.50847-9.21188 1.56878-2.9698-.83662-6.927-4.95017-7.64816-7.95012-1.01291-4.21309-13.19116-261.60393-12.4928-264.03892 1.8586-6.48061 6.64675-9.49416 11.49249-9.36369z"/>
		<path d="m197.35198 25.916155c5.91021-9.37875 14.10043-14.356319 23.66471-14.382207l5.25609-.01419 37.62836 20.407046 37.62843 20.407088 3.50577-4.104816c7.29902-8.546334 17.96939-13.649361 27.61485-13.206643l4.78273.219524 31.39991 17.283079c30.62399 16.855999 31.46538 17.371964 34.04955 20.880829 5.51991 7.495076 7.17444 22.573787 3.50975 31.986485l-1.49873 3.84943 37.42427 20.896 37.42427 20.89599 2.7998 4.44829c5.09476 8.0945 5.27082 17.67701.50871 27.6877l-2.88036 6.05495-143.19644-78.81791-143.19644-78.817918z"/>
	</g>
</svg>
