<svg width="48" height="48" version="1.1" viewBox="0 0 48 48" xmlns="http://www.w3.org/2000/svg">
  <g transform="translate(-.57527 -3.5955)" fill="#1f1e1e">
    <g fill="#1f1e1e">
      <g fill="#1f1e1e">
        <g fill="#1f1e1e">
          <g transform="matrix(.91901 0 0 .91901 3.2709 .48471)" fill="#1f1e1e">
            <g transform="translate(1.0827,2.6255)" fill="#1f1e1e">
              <g transform="translate(-.22112 .33681)" fill="#1f1e1e">
                <path d="m18.926267 1.3046042-11.2531929 10.1671908h29.4134449v24.846285c0 0.970385 0.78082 1.751205 1.751205 1.751205 0.970386 0 1.753331-0.78082 1.753331-1.751205v-26.5974899c0-0.970386-0.782946-1.751205-1.753331-1.751205h-19.911457zm-13.1234119 13.7014798c-0.970386 0-1.7512051 0.78082-1.7512051 1.751205v26.59749c0 0.970386 0.7808201 1.751206 1.7512051 1.751206h19.9114569v6.66478l11.253193-10.169316h-29.4134448v-24.84416c0-0.970385-0.7808201-1.751205-1.7512051-1.751205z" fill="#1f1e1e"/>
              </g>
            </g>
          </g>
        </g>
      </g>
    </g>
  </g>
</svg>
