<svg id="svg2" width="30" height="18" version="1.1" xmlns="http://www.w3.org/2000/svg" xmlns:osb="http://www.openswatchbook.org/uri/2009/osb"><g id="ic_library_crates" transform="translate(0,-14)"><g id="ic_library_unchecked" transform="matrix(.4151 0 0 .4151 -1.6604 19.547)" fill="#f60"><path id="path4249" d="m28.091-7.176c-8.1334 0-14.003 5.8302-14.003 13.852-0.0695 0.099133-0.0648 0.10802 0 0.15057v5.044c-0.34011 0.83162-0.4517 1.8902-0.4517 3.0866 0 2.605 0.36813 4.7429 2.9361 4.7429v-9.4857c-0.14035 0-0.24832 0.06273-0.37642 0.07528v-3.6136c0-0.86216 0.07841-1.7152 0.22585-2.4844 0.13842-0.74338 0.41844-1.4357 0.67755-2.1079 1.7042-4.032 5.7379-6.3238 10.991-6.3238 5.2523 0 9.3626 2.2918 11.067 6.3238 0.56801 1.344 0.82812 2.868 0.82812 4.5923v3.5383c-0.13255-0.01373-0.2305 0-0.37642 0v9.4104c2.5676 0 2.9361-2.0637 2.9361-4.6676 0-1.1776-0.05078-2.2605-0.37642-3.0866v-5.1946c0-8.022-5.9457-13.852-14.078-13.852z"/><path id="rect4251" d="m34.974 9.3433h1.0325c1.144 0 1.7208 0.18419 1.7208 0.41298v11.564c0 0.22879-0.5768 0.41298-1.7208 0.41298h-1.0325c-1.144 0-2.0649-0.1842-2.0649-0.41298v-11.564c0-0.22879 0.92095-0.41298 2.0649-0.41298z" color="#000000" fill-rule="evenodd" stroke-width="0"/><path id="rect4253" d="m20.175 9.3433h1.0325c1.144 0 2.0649 0.18419 2.0649 0.41298v11.564c0 0.22879-0.92095 0.41298-2.0649 0.41298h-1.0325c-1.144 0-1.7208-0.1842-1.7208-0.41298v-11.564c0-0.22879 0.5768-0.41298 1.7208-0.41298z" color="#000000" fill-rule="evenodd" stroke-width="0"/><rect id="rect3370-3" x="54.591" y="-1.3181" width="4.818" height="19.273" color="#000000"/><rect id="rect3372-6" x="64.227" y="-1.3181" width="4.818" height="19.273" color="#000000"/></g></g></svg>
