<svg width="20" height="20" version="1.1" viewBox="0 0 20 20" xmlns="http://www.w3.org/2000/svg">
  <path d="m8.2460938 1.6015625c-0.037527-2e-7 -0.0647986 0.0281629-0.0703126 0.0605469l-0.3554687 2.5195312-0.1933594 0.0820313c-0.5052017 0.2111912-0.9743903 0.4835791-1.4003906 0.8144531l-0.1660156 0.1289062-2.3710938-0.9570312h-0.0019531c-0.032884-0.011531-0.0651244-0.0031441-0.0839844 0.0292969l-1.7558594 3.0390625c-0.0186749 0.0321199-0.0117237 0.0643458 0.0195313 0.0898437l2.0078125 1.5761719-0.0234375 0.2050781c-0.0340783 0.272615-0.0605469 0.5435181-0.0605469 0.8105469 0 0.26703 0.0264689 0.537934 0.0605469 0.810547l0.0234375 0.205078-2.0117188 1.580078c-0.0244759 0.01932-0.0344648 0.049161-0.0136718 0.087891v0.001953l1.7539062 3.035156c0.020521 0.03525 0.0502741 0.04239 0.078125 0.03125l2.3769532-0.958984 0.1660156 0.126953c0.4281342 0.328377 0.8987223 0.605875 1.4023437 0.816406l0.1933594 0.082031 0.3554687 2.519532c0.00551 0.03238 0.0327866 0.060547 0.0703126 0.060547h3.5058592c0.03753 0 0.066786-0.028167 0.072266-0.060547l0.355469-2.519532 0.193359-0.082031c0.505202-0.211192 0.974391-0.483578 1.400391-0.814453l0.166015-0.128906 2.373047 0.957031c0.03288 0.01153 0.065114 0.003173 0.083984-0.029297l1.75586-3.039062c0.01868-0.03213 0.009775-0.064354-0.021485-0.089844l-1.841797-1.447266-0.166015-0.128906 0.025391-0.205078c0.034079-0.272613 0.060546-0.543517 0.060546-0.810547 0-0.2670288-0.026467-0.5379379-0.060546-0.8105469l-0.025391-0.2070312 2.017578-1.578125c0.02503-0.019762 0.036422-0.0498088 0.013672-0.0898438l-1.753906-3.0351562c-0.02052-0.035297-0.050275-0.042389-0.078125-0.03125l-2.376954 0.9589843-0.166015-0.1269531c-0.428135-0.3283749-0.89677-0.6058759-1.400391-0.8164062l-0.193359-0.0820313-0.357422-2.515625c-0.0084-0.0367289-0.039702-0.0644531-0.076172-0.0644531h-3.5058592zm1.7539062 4.5605469c2.112283 0 3.837891 1.7256075 3.837891 3.8378906 0 2.112283-1.725608 3.837891-3.837891 3.837891-2.1122831 0-3.8378906-1.725608-3.8378906-3.837891 0-2.1122832 1.7256074-3.8378906 3.8378906-3.8378906z" fill="#bfbfbf"/>
</svg>
