<?xml version="1.0" encoding="UTF-8" standalone="no"?>
<svg
   xmlns:dc="http://purl.org/dc/elements/1.1/"
   xmlns:cc="http://creativecommons.org/ns#"
   xmlns:rdf="http://www.w3.org/1999/02/22-rdf-syntax-ns#"
   xmlns:svg="http://www.w3.org/2000/svg"
   xmlns="http://www.w3.org/2000/svg"
   width="30"
   height="13"
   version="1.1"
   id="svg22">
  <metadata
     id="metadata28">
    <rdf:RDF>
      <cc:Work
         rdf:about="">
        <dc:format>image/svg+xml</dc:format>
        <dc:type
           rdf:resource="http://purl.org/dc/dcmitype/StillImage" />
        <dc:title></dc:title>
      </cc:Work>
    </rdf:RDF>
  </metadata>
  <defs
     id="defs26" />
  <path
     style="color:#000000;opacity:0.5"
     d="m 3.29375,11.18361 c 0.504291,0.413239 1.075229,0.816575 2.205357,0.816565 L 24.897874,12 c 2.101752,-1.9e-5 3.101864,-1.652533 3.101752,-2.99965 L 27.999376,6 C 27.999328,5.42619 27.80088,4.7078645 27.419053,4.2223066 28.281613,4.7480866 28.499785,5.91145 28.499876,6.99965 L 28.500126,10 c 1.38e-4,1.662 -1.338,2.999985 -3,3 L 5.85625,13.000175 c -1.0882,10e-6 -2.27159,-0.138071 -2.5625,-1.816565 z"
     id="path2-3" />
  <path
     style="color:#000000;opacity:0.8"
     d="m 2.3555,6.000525 2.5e-4,3.00035 c 1.39e-4,1.662 1.338,3.000015 3,3 L 24.999626,12.0007 c 1.662,-1.5e-5 3.000138,-1.338 3,-3 l -2.5e-4,-3.00035 c -1.38e-4,-1.662 -1.338,-3.0000148 -3,-3 L 5.3555,3.000525 c -1.662,1.48e-5 -3.000138,1.338 -3,3 z"
     id="path4-6" />
  <path
     id="path8-5-5"
     d="m 2,5.000075 c 0,-1.662 1.338,-3 3,-3 L 25,2 c 0.831,-3.1e-6 1.5828,0.33275 2.125,0.875 L 26,4 4,9.000745 l -1.125,1.125 C 2.33275,9.583495 2,8.831745 2,8.000745 Z"
     style="color:#000000;fill:#444444" />
  <path
     id="path10-3-3"
     d="M 2.875,10.12532 4,9.00032 26,3.999575 l 1.125,-1.125 c 0.54225,0.54225 0.875,1.294 0.875,2.125 V 8.00022 c 0,1.662 -1.338,3 -3,3 l -20,7.5e-5 c -0.831,3e-6 -1.5828,-0.33275 -2.125,-0.875 z"
     style="color:#000000;fill:#1a1a1a" />
  <path
     id="path12-5-5"
     d="M 3,5.000075 V 8.00072 c 0,1.108 0.892,2 2,2 l 20,-7.5e-5 c 1.108,-4e-6 2,-0.892 2,-2 V 5 C 27,3.892 26.108,3 25,3 l -20,7.5e-5 c -1.108,4.2e-6 -2,0.892 -2,2 z"
     style="color:#000000;fill:#262626;fill-opacity:1" />
  <path
     id="path14-6-6"
     d="m 3,6.0007203 v 1 l 24,-7.5e-5 v -1 z"
     style="color:#000000;fill:#b40000;fill-opacity:1" />
  <path
     id="path18-9"
     d="m 3,7.0007203 v 1 l 24,-7.5e-5 v -1 z"
     style="color:#000000;fill:#ea0000" />
  <path
     id="path20"
     d="M 3.2658829,5.0002 3,6.0002003 27,6.0001253 26.733722,5.000125 Z"
     style="color:#000000;fill:#191919;fill-opacity:1" />
</svg>
