<?xml version="1.0" encoding="UTF-8" standalone="no"?>
<svg
   xmlns:dc="http://purl.org/dc/elements/1.1/"
   xmlns:cc="http://creativecommons.org/ns#"
   xmlns:rdf="http://www.w3.org/1999/02/22-rdf-syntax-ns#"
   xmlns:svg="http://www.w3.org/2000/svg"
   xmlns="http://www.w3.org/2000/svg"
   width="30"
   height="13"
   version="1.1"
   id="svg22">
  <metadata
     id="metadata28">
    <rdf:RDF>
      <cc:Work
         rdf:about="">
        <dc:format>image/svg+xml</dc:format>
        <dc:type
           rdf:resource="http://purl.org/dc/dcmitype/StillImage" />
        <dc:title></dc:title>
      </cc:Work>
    </rdf:RDF>
  </metadata>
  <defs
     id="defs26" />
  <path
     style="color:#000000;opacity:0.5"
     d="m 4.293625,11.183485 c 0.504291,0.413239 1.075229,0.816575 2.205357,0.816565 L 23.897874,12 c 2.101752,-6e-6 3.101864,-1.652533 3.101752,-2.99965 L 26.999376,6 C 26.999328,5.42619 26.80088,4.7078645 26.419053,4.2223066 27.281613,4.7480866 27.499785,5.91145 27.499876,6.99965 L 27.500126,10 c 1.38e-4,1.662 -1.338,2.999995 -3,3 l -17.644001,5e-5 c -1.0882,10e-6 -2.27159,-0.138071 -2.5625,-1.816565 z"
     id="path2-3" />
  <path
     style="color:#000000;opacity:0.8"
     d="m 3.355375,6.0004 2.5e-4,3.00035 c 1.385e-4,1.662 1.338,3.000005 3,3 l 17.644001,-5e-5 c 1.662,-5e-6 3.000138,-1.338 3,-3 l -2.5e-4,-3.00035 c -1.38e-4,-1.662 -1.338,-3.0000047 -3,-3 l -17.644001,5e-5 c -1.662,4.7e-6 -3.0001385,1.338 -3,3 z"
     id="path4-6" />
  <path
     id="path8-5-5"
     d="m 2.999875,4.99995 c 0,-1.662 1.338,-3 3,-3 L 24,2 c 0.831,2.3e-6 1.5828,0.33275 2.125,0.875 L 25,4 4.999875,9.00062 l -1.125,1.125 c -0.54225,-0.54225 -0.875,-1.294 -0.875,-2.125 z"
     style="color:#000000;fill:#444444" />
  <path
     id="path10-3-3"
     d="m 3.874875,10.125195 1.125,-1.125 L 25,3.999575 l 1.125,-1.125 c 0.54225,0.54225 0.875,1.294 0.875,2.125 V 8.00022 c 0,1.662 -1.338,3 -3,3 l -18.000125,-5e-5 c -0.831,-2e-6 -1.5828,-0.33275 -2.125,-0.875 z"
     style="color:#000000;fill:#1a1a1a" />
  <path
     id="path12-5-5"
     d="m 3.999875,4.99995 v 3.000645 c 0,1.108 0.892,2 2,2 L 24,10.000645 c 1.108,3e-6 2,-0.892 2,-2 V 5 C 26,3.892 25.108,3 24,3 l -18.000125,-5e-5 c -1.108,-3.1e-6 -2,0.892 -2,2 z"
     style="color:#000000;fill:#262626;fill-opacity:1" />
  <path
     id="path14-6-6"
     d="m 3.999875,6.0005953 v 1 L 26,7.0006453 v -1 z"
     style="color:#000000;fill:#b40000;fill-opacity:1" />
  <path
     id="path18-9"
     d="m 3.999875,7.0005953 v 1 L 26,8.0006453 v -1 z"
     style="color:#000000;fill:#ea0000" />
  <path
     id="path20"
     d="M 4.2657579,5.000075 3.999875,6.0000753 26,6.0001253 25.733722,5.000125 Z"
     style="color:#000000;fill:#191919;fill-opacity:1" />
</svg>
