<?xml version="1.0" encoding="UTF-8" standalone="no"?>
<svg
   xmlns:dc="http://purl.org/dc/elements/1.1/"
   xmlns:cc="http://creativecommons.org/ns#"
   xmlns:rdf="http://www.w3.org/1999/02/22-rdf-syntax-ns#"
   xmlns:svg="http://www.w3.org/2000/svg"
   xmlns="http://www.w3.org/2000/svg"
   id="svg22"
   version="1.1"
   height="13"
   width="30">
  <metadata
     id="metadata28">
    <rdf:RDF>
      <cc:Work
         rdf:about="">
        <dc:format>image/svg+xml</dc:format>
        <dc:type
           rdf:resource="http://purl.org/dc/dcmitype/StillImage" />
        <dc:title></dc:title>
      </cc:Work>
    </rdf:RDF>
  </metadata>
  <defs
     id="defs26" />
  <path
     id="path2-3"
     d="m 3.2937501,11.18361 c 0.5042904,0.413239 1.0752284,0.816575 2.2053571,0.816565 L 24.897874,12 c 2.101752,-1.9e-5 3.101864,-1.652533 3.101752,-2.99965 L 27.999376,6 C 27.999328,5.42619 27.80088,4.7078645 27.419053,4.2223066 28.281613,4.7480866 28.499785,5.91145 28.499876,6.99965 L 28.500126,10 c 1.38e-4,1.662 -1.338,2.999985 -3,3 L 5.85625,13.000175 c -1.0882,10e-6 -2.2715901,-0.138071 -2.5624999,-1.816565 z"
     style="color:#000000;opacity:0.5" />
  <path
     id="path4-6"
     d="m 2.3555001,6.000525 2.5e-4,3.00035 c 1.384e-4,1.662 1.3379999,3.000015 2.9999999,3 L 24.999626,12.0007 c 1.662,-1.5e-5 3.000138,-1.338 3,-3 l -2.5e-4,-3.00035 c -1.38e-4,-1.662 -1.338,-3.0000148 -3,-3 L 5.3555,3.000525 c -1.662,1.48e-5 -3.0001384,1.338 -2.9999999,3 z"
     style="color:#000000;opacity:0.8" />
  <path
     id="path6-7"
     d="m 1.9997501,4.999825 c 0,-1.662 1.3379999,-3.0000145 2.9999999,-3 L 24.999626,2 c 0.831,7.3e-6 1.5828,0.33275 2.125,0.875 L 25.999626,4 3.9997501,8.99975 l -1.125,1.125 c -0.54225,-0.54225 -0.875,-1.294 -0.875,-2.125 z"
     style="color:#000000;fill:#444444" />
  <path
     id="path8-5"
     d="m 2.8747501,10.12455 1.125,-1.125 21.9998759,-4.99975 1.125,-1.125 c 0.54225,0.54225 0.875,1.294 0.875,2.125 v 2.999925 c 0,1.662 -1.338,3.000015 -3,3 L 4.99975,10.99955 c -0.831,-7e-6 -1.5827999,-0.33275 -2.1249999,-0.875 z"
     style="color:#000000;fill:#1a1a1a" />
  <path
     id="path10-3"
     d="M 2.9997501,4.999825 V 7.99975 c 0,1.108 0.8919999,1.9999903 1.9999999,2 l 19.999876,1.75e-4 c 1.108,9.7e-6 2,-0.892 2,-2 V 5 c 0,-1.108 -0.892,-1.9999903 -2,-2 L 4.99975,2.999825 c -1.108,-9.7e-6 -1.9999999,0.892 -1.9999999,2 z"
     style="color:#000000;fill:#333333" />
  <path
     id="path12-5"
     d="m 2.9997501,4.999375 v 1 L 26.999626,5.99955 v -1 z"
     style="color:#000000;fill:#131313" />
  <path
     id="path14-6"
     d="m 2.9997501,5.999375 v 1 L 26.999626,6.99955 v -1 z"
     style="color:#000000;fill:#ea0000" />
  <path
     id="path16-2"
     d="m 2.9997501,6.999375 v 1 L 26.999626,7.99955 v -1 z"
     style="color:#000000;fill:#515151" />
</svg>
