<?xml version="1.0" encoding="UTF-8" standalone="no"?>
<svg
   xmlns:dc="http://purl.org/dc/elements/1.1/"
   xmlns:cc="http://creativecommons.org/ns#"
   xmlns:rdf="http://www.w3.org/1999/02/22-rdf-syntax-ns#"
   xmlns:svg="http://www.w3.org/2000/svg"
   xmlns="http://www.w3.org/2000/svg"
   id="svg24"
   version="1.1"
   height="17"
   width="40">
  <metadata
     id="metadata30">
    <rdf:RDF>
      <cc:Work
         rdf:about="">
        <dc:format>image/svg+xml</dc:format>
        <dc:type
           rdf:resource="http://purl.org/dc/dcmitype/StillImage" />
        <dc:title></dc:title>
      </cc:Work>
    </rdf:RDF>
  </metadata>
  <defs
     id="defs28" />
  <path
     id="path2"
     d="m 3.7942,15.148 c 0.60561,0.57244 1.4882,0.85239 2.062,0.85238 l 29.657,-7e-4 c 1.4154,3.5e-4 2.7757,-1.0248 2.9852,-2.6991 0.01105,2.1371 -0.42549,3.6991 -2.3306,3.6991 H 6.3568 c -1.0882,0 -2.3492,-0.62974 -2.5625,-1.8517 z"
     style="color:#000000;opacity:0.15" />
  <path
     id="path4"
     d="m 3.2942,14.183 c 0.69268,0.64195 1.4882,0.81723 2.062,0.81722 l 29.555,-7e-4 c 2.1018,-5e-5 3.1018,-1.6525 3.1018,-2.9996 v -5 c 0,-0.57381 -0.1985,-1.2921 -0.58032,-1.7777 0.86256,0.52578 1.0808,1.6891 1.0808,2.7773 v 5 c 0,1.662 -1.338,3 -3,3 h -29.657 c -1.0882,0 -2.5339,-0.85452 -2.5625,-1.8165 z"
     style="color:#000000;opacity:0.5" />
  <path
     id="path6"
     d="m 2.3562,7.0005 v 5 c 0,1.662 1.338,3 3,3 h 29.657 c 1.662,0 3,-1.338 3,-3 v -5 c 0,-1.662 -1.338,-3 -3,-3 H 5.3562 c -1.662,0 -3,1.338 -3,3 z"
     style="color:#000000;opacity:0.8" />
  <path
     id="path8"
     d="m 2,6.0002 c 0,-1.662 1.338,-3 3,-3 h 30.001 c 0.831,0 1.5828,0.33275 2.125,0.875 l -1.125,1.125 -32.001,7 -1.125,1.125 C 2.33275,12.58295 2,11.8312 2,11.0002 Z"
     style="color:#000000;fill:#444444" />
  <path
     id="path10"
     d="M 2.875,13.125 4,12 36.001,5 37.126,3.875 C 37.66825,4.41725 38.001,5.169 38.001,6 v 5 c 0,1.662 -1.338,3 -3,3 H 5 C 4.169,14 3.4172,13.66725 2.875,13.125 Z"
     style="color:#000000;fill:#1a1a1a" />
  <path
     id="path12"
     d="m 3,6.0002 v 5 c 0,1.108 0.892,2 2,2 h 30.001 c 1.108,0 2,-0.892 2,-2 v -5 c 0,-1.108 -0.892,-2 -2,-2 H 5 c -1.108,0 -2,0.892 -2,2 z"
     style="color:#000000;fill:#333333" />
  <path
     id="path14"
     d="M 3,7 V 8 H 37.001 V 7 Z"
     style="color:#000000;fill:#131313" />
  <path
     id="path16"
     d="M 3,8 V 9 H 37.001 V 8 Z"
     style="color:#000000;fill:#ea0000" />
  <path
     id="path18"
     d="m 3,9 v 1 H 37.001 V 9 Z"
     style="color:#000000;fill:#515151" />
</svg>
