<?xml version="1.0" encoding="UTF-8" standalone="no"?>
<svg
   xmlns:dc="http://purl.org/dc/elements/1.1/"
   xmlns:cc="http://creativecommons.org/ns#"
   xmlns:rdf="http://www.w3.org/1999/02/22-rdf-syntax-ns#"
   xmlns:svg="http://www.w3.org/2000/svg"
   xmlns="http://www.w3.org/2000/svg"
   width="19"
   height="40"
   version="1.1"
   id="svg22">
  <metadata
     id="metadata28">
    <rdf:RDF>
      <cc:Work
         rdf:about="">
        <dc:format>image/svg+xml</dc:format>
        <dc:type
           rdf:resource="http://purl.org/dc/dcmitype/StillImage" />
        <dc:title></dc:title>
      </cc:Work>
    </rdf:RDF>
  </metadata>
  <defs
     id="defs26" />
  <path
     id="path2"
     d="m 5.438,38.212006 c 0.2951675,0.339333 1.1004362,0.787417 2.0196366,0.787444 L 12.5005,38.9996 c 1.415374,3.5e-4 2.4995,-0.99965 2.830554,-2 0,1.662 -0.668554,3.00005 -2.330554,3 l -5,-1.5e-4 C 6.9123,39.999417 5.5161753,39.587064 5.438,38.212006 Z"
     style="color:#000000;opacity:0.15" />
  <path
     id="path4"
     d="m 4.9347952,37.183391 c 0.5498066,0.509986 1.212016,0.816033 2.0597429,0.816059 l 4.9037099,1.5e-4 C 14,37.999664 15,36.347067 15,34.99995 V 5.9998 C 15,5.42599 14.801504,4.707664 14.419677,4.222106 15.282237,4.747886 15.5005,5.91125 15.5005,6.99945 V 35.9996 c 0,1.662 -1.338,3.00005 -3,3 l -5,-1.5e-4 C 6.4123,38.999417 5.0618213,38.39699 4.9347952,37.183391 Z"
     style="color:#000000;opacity:0.5" />
  <path
     id="path6"
     d="m 4,6 v 29.00015 c 0,1.662 1.338,2.99995 3,3 l 5,1.5e-4 c 1.662,5e-5 3,-1.338 3,-3 V 6.00015 c 0,-1.662 -1.338,-2.9999501 -3,-3 L 7,3 C 5.338,2.9999501 4,4.338 4,6 Z"
     style="color:#000000;opacity:0.8" />
  <path
     id="path8"
     d="m 7,3.00015 c -1.662,0 -3,1.338 -3,3 v 28 c 0,0.831 0.33275,1.5828 0.875,2.125 l 1.125,-1.125 7,-30 1.125,-1.125 C 13.58275,3.3329 12.831,3.00015 12,3.00015 Z"
     style="color:#000000;fill:#444444" />
  <path
     id="path10"
     d="m 14.125,3.87515 -1.125,1.125 -7,30 -1.125,1.125 c 0.54225,0.54225 1.294,0.875 2.125,0.875 h 5 c 1.662,0 3,-1.338 3,-3 v -28 c 0,-0.831 -0.33275,-1.5828 -0.875,-2.125 z"
     style="color:#000000;fill:#1a1a1a" />
  <path
     id="path12"
     d="m 7,4.00015 h 5 c 1.108,0 2,0.892 2,2 v 28 c 0,1.108 -0.892,2 -2,2 H 7 c -1.108,0 -2,-0.892 -2,-2 v -28 c 0,-1.108 0.892,-2 2,-2 z"
     style="color:#000000;fill:#2b2b2b;fill-opacity:1" />
  <path
     style="color:#000000;fill:#333333"
     d="M 10.727256,4.00015 H 12 c 1.108,0 2,0.892 2,2 v 28 c 0,1.108 -0.892,2 -2,2 h -1.272744 c -1.1079999,0 -1.9999999,-0.892 -1.9999999,-2 v -28 c 0,-1.108 0.892,-2 1.9999999,-2 z"
     id="path12-3" />
  <path
     style="color:#000000;fill:#b40000;fill-opacity:1;stroke-width:0.97014"
     d="M 9.0000746,36.00015 H 10.000075 L 10,4.00015 H 8.9999996 Z"
     id="path14-6" />
  <path
     style="color:#000000;fill:#e50000;fill-opacity:1;stroke-width:0.97014"
     d="m 10.000075,36.00015 h 1 L 11,4.00015 h -1 z"
     id="path18-9" />
  <path
     style="color:#000000;fill:#990000;fill-opacity:1;stroke-width:0.97014"
     d="m 7.9995546,36.00015 h 1 l -7.5e-5,-32 h -1 z"
     id="path20" />
</svg>
