<?xml version="1.0" encoding="UTF-8" standalone="no"?>
<svg
   xmlns:dc="http://purl.org/dc/elements/1.1/"
   xmlns:cc="http://creativecommons.org/ns#"
   xmlns:rdf="http://www.w3.org/1999/02/22-rdf-syntax-ns#"
   xmlns:svg="http://www.w3.org/2000/svg"
   xmlns="http://www.w3.org/2000/svg"
   width="19"
   height="40"
   version="1.1"
   id="svg22">
  <metadata
     id="metadata28">
    <rdf:RDF>
      <cc:Work
         rdf:about="">
        <dc:format>image/svg+xml</dc:format>
        <dc:type
           rdf:resource="http://purl.org/dc/dcmitype/StillImage" />
        <dc:title></dc:title>
      </cc:Work>
    </rdf:RDF>
  </metadata>
  <defs
     id="defs26" />
  <path
     id="path2"
     d="m 5.438,37.5618 c 0.45484,0.27725 0.98869,0.437484 1.5625,0.4375 l 5.5,1.5e-4 c 1.415374,3.5e-4 2.4995,-0.99965 2.830554,-2 0,1.662 -0.668554,3.00005 -2.330554,3 l -5,-1.5e-4 C 6.9123,38.999267 5.9638,38.42436 5.438,37.5618 Z"
     style="color:#000000;opacity:0.15" />
  <path
     id="path4"
     d="m 4.938,36.5618 c 0.45484,0.27725 0.98869,0.437484 1.5625,0.4375 l 5.397748,1.5e-4 C 14,36.999508 15,35.346917 15,33.9998 V 4.99965 C 15,4.42584 14.801504,3.707514 14.419677,3.221956 15.282237,3.747736 15.5005,4.9111 15.5005,5.9993 v 29.00015 c 0,1.662 -1.338,3.00005 -3,3 l -5,-1.5e-4 C 6.4123,37.999267 5.4638,37.42436 4.938,36.5618 Z"
     style="color:#000000;opacity:0.5" />
  <path
     id="path6"
     d="M 4,4.99985 V 34 c 0,1.662 1.338,2.99995 3,3 l 5,1.5e-4 c 1.662,5e-5 3,-1.338 3,-3 V 5 C 15,3.338 13.662,2.0000499 12,2 L 7,1.99985 c -1.662,-4.99e-5 -3,1.338 -3,3 z"
     style="color:#000000;opacity:0.8" />
  <path
     id="path8"
     d="M 7,2 C 5.338,2 4,3.338 4,5 v 28 c 0,0.831 0.33275,1.5828 0.875,2.125 L 6,34 13,4 14.125,2.875 C 13.58275,2.33275 12.831,2 12,2 Z"
     style="color:#000000;fill:#444444" />
  <path
     id="path10"
     d="M 14.125,2.875 13,4 6,34 4.875,35.125 C 5.41725,35.66725 6.169,36 7,36 h 5 c 1.662,0 3,-1.338 3,-3 V 5 C 15,4.169 14.66725,3.4172 14.125,2.875 Z"
     style="color:#000000;fill:#1a1a1a" />
  <path
     id="path12"
     d="m 7,3 h 5 c 1.108,0 2,0.892 2,2 v 28 c 0,1.108 -0.892,2 -2,2 H 7 C 5.892,35 5,34.108 5,33 V 5 C 5,3.892 5.892,3 7,3 Z"
     style="color:#000000;fill:#333333" />
  <path
     id="path14"
     d="M 8,3 H 9 V 35 H 8 Z"
     style="color:#000000;fill:#282828" />
  <path
     id="path16"
     d="m 9,3 h 1 V 35 H 9 Z"
     style="color:#000000;fill:#ea0000" />
  <path
     id="path18"
     d="m 10,3 h 1 v 32 h -1 z"
     style="color:#000000;fill:#414141" />
</svg>
