<?xml version="1.0" encoding="UTF-8" standalone="no"?>
<svg
   xmlns:dc="http://purl.org/dc/elements/1.1/"
   xmlns:cc="http://creativecommons.org/ns#"
   xmlns:rdf="http://www.w3.org/1999/02/22-rdf-syntax-ns#"
   xmlns:svg="http://www.w3.org/2000/svg"
   xmlns="http://www.w3.org/2000/svg"
   width="40"
   height="113"
   version="1.1"
   id="svg84">
  <metadata
     id="metadata90">
    <rdf:RDF>
      <cc:Work
         rdf:about="">
        <dc:format>image/svg+xml</dc:format>
        <dc:type
           rdf:resource="http://purl.org/dc/dcmitype/StillImage" />
        <dc:title></dc:title>
      </cc:Work>
    </rdf:RDF>
  </metadata>
  <defs
     id="defs88" />
  <g
     fill="#050505"
     stroke-width=".99979782"
     id="g38">
    <path
       d="m8 20.500564h8v.999596h-8z"
       color="#000000"
       id="path2" />
    <path
       d="m8 32.500511h8v.999596h-8z"
       color="#000000"
       id="path4" />
    <path
       d="m8 44.500457h8v.999596h-8z"
       color="#000000"
       id="path6" />
    <path
       d="m6 56.500404h10v.999596h-10z"
       color="#000000"
       id="path8" />
    <path
       d="m8 68.500361h8v.999596h-8z"
       color="#000000"
       id="path10" />
    <path
       d="m8 80.500308h8v.999596h-8z"
       color="#000000"
       id="path12" />
    <path
       d="m8 92.500254h8v.999596h-8z"
       color="#000000"
       id="path14" />
    <path
       d="m32 20.500564h-8v.999596h8z"
       color="#000000"
       id="path16" />
    <path
       d="m32 32.500511h-8v.999596h8z"
       color="#000000"
       id="path18" />
    <path
       d="m32 44.500457h-8v.999596h8z"
       color="#000000"
       id="path20" />
    <path
       d="m34 56.500404h-10v.999596h10z"
       color="#000000"
       id="path22" />
    <path
       d="m32 68.500361h-8v.999596h8z"
       color="#000000"
       id="path24" />
    <path
       d="m32 80.500308h-8v.999596h8z"
       color="#000000"
       id="path26" />
    <path
       d="m32 92.500254h-8v.999596h8z"
       color="#000000"
       id="path28" />
    <path
       d="m8 6.500564h8v.999596h-8z"
       color="#000000"
       id="path30" />
    <path
       d="m32 6.500564h-8v.999596h8z"
       color="#000000"
       id="path32" />
    <path
       d="m8 104.50025h8v.9996h-8z"
       color="#000000"
       id="path34" />
    <path
       d="m32 104.50025h-8v.9996h8z"
       color="#000000"
       id="path36" />
  </g>
  <g
     fill="#636363"
     stroke-width=".99979782"
     id="g44">
    <path
       d="m6 57.000404h10v.999596h-10z"
       color="#000000"
       id="path40" />
    <path
       d="m34 57.000404h-10v.999596h10z"
       color="#000000"
       id="path42" />
  </g>
  <g
     fill="#404040"
     stroke-width=".99979782"
     id="g78">
    <path
       d="m8 21.000564h8v.999596h-8z"
       color="#000000"
       id="path46" />
    <path
       d="m8 33.000511h8v.999596h-8z"
       color="#000000"
       id="path48" />
    <path
       d="m8 45.000457h8v.999596h-8z"
       color="#000000"
       id="path50" />
    <path
       d="m8 69.000361h8v.999596h-8z"
       color="#000000"
       id="path52" />
    <path
       d="m8 81.000308h8v.999596h-8z"
       color="#000000"
       id="path54" />
    <path
       d="m8 93.000254h8v.999596h-8z"
       color="#000000"
       id="path56" />
    <path
       d="m32 21.000564h-8v.999596h8z"
       color="#000000"
       id="path58" />
    <path
       d="m32 33.000511h-8v.999596h8z"
       color="#000000"
       id="path60" />
    <path
       d="m32 45.000457h-8v.999596h8z"
       color="#000000"
       id="path62" />
    <path
       d="m32 69.000361h-8v.999596h8z"
       color="#000000"
       id="path64" />
    <path
       d="m32 81.000308h-8v.999596h8z"
       color="#000000"
       id="path66" />
    <path
       d="m32 93.000254h-8v.999596h8z"
       color="#000000"
       id="path68" />
    <path
       d="m8 7.000564h8v.999596h-8z"
       color="#000000"
       id="path70" />
    <path
       d="m32 7.000564h-8v.999596h8z"
       color="#000000"
       id="path72" />
    <path
       d="m8 105.00025h8v.9996h-8z"
       color="#000000"
       id="path74" />
    <path
       d="m32 105.00025h-8v.9996h8z"
       color="#000000"
       id="path76" />
  </g>
  <path
     id="path40-3"
     d="m 18,7 h 4 v 99 h -4 z"
     style="color:#000000;fill:#050505;stroke-width:0.99999994" />
  <path
     id="path42-6"
     style="fill:#505050;paint-order:fill markers stroke"
     d="m 17,107 h 6 V 6 h -6 z m 1,-1 V 7.000001 h 4 V 106 Z" />
</svg>
