<?xml version="1.0" encoding="UTF-8" standalone="no"?>
<svg
   xmlns:dc="http://purl.org/dc/elements/1.1/"
   xmlns:cc="http://creativecommons.org/ns#"
   xmlns:rdf="http://www.w3.org/1999/02/22-rdf-syntax-ns#"
   xmlns:svg="http://www.w3.org/2000/svg"
   xmlns="http://www.w3.org/2000/svg"
   width="40"
   height="113"
   version="1.1"
   id="svg84">
  <metadata
     id="metadata90">
    <rdf:RDF>
      <cc:Work
         rdf:about="">
        <dc:format>image/svg+xml</dc:format>
        <dc:type
           rdf:resource="http://purl.org/dc/dcmitype/StillImage" />
        <dc:title></dc:title>
      </cc:Work>
    </rdf:RDF>
  </metadata>
  <defs
     id="defs88" />
  <path
     id="path2"
     color="#000000"
     d="m 8,20.500564 h 8 V 21.50016 H 8 Z"
     style="fill:#050505;stroke-width:0.999798" />
  <path
     id="path4"
     color="#000000"
     d="m 8,32.500511 h 8 v 0.999596 H 8 Z"
     style="fill:#050505;stroke-width:0.999798" />
  <path
     id="path6"
     color="#000000"
     d="m 8,44.500457 h 8 v 0.999596 H 8 Z"
     style="fill:#050505;stroke-width:0.999798" />
  <path
     id="path8"
     color="#000000"
     d="M 6,56.500404 H 16 V 57.5 H 6 Z"
     style="fill:#050505;stroke-width:0.999798" />
  <path
     id="path10"
     color="#000000"
     d="m 8,68.500361 h 8 v 0.999596 H 8 Z"
     style="fill:#050505;stroke-width:0.999798" />
  <path
     id="path12"
     color="#000000"
     d="m 8,80.500308 h 8 v 0.999596 H 8 Z"
     style="fill:#050505;stroke-width:0.999798" />
  <path
     id="path14"
     color="#000000"
     d="m 8,92.500254 h 8 V 93.49985 H 8 Z"
     style="fill:#050505;stroke-width:0.999798" />
  <path
     id="path16"
     color="#000000"
     d="m 32,20.500564 h -8 v 0.999596 h 8 z"
     style="fill:#050505;stroke-width:0.999798" />
  <path
     id="path18"
     color="#000000"
     d="m 32,32.500511 h -8 v 0.999596 h 8 z"
     style="fill:#050505;stroke-width:0.999798" />
  <path
     id="path20"
     color="#000000"
     d="m 32,44.500457 h -8 v 0.999596 h 8 z"
     style="fill:#050505;stroke-width:0.999798" />
  <path
     id="path22"
     color="#000000"
     d="M 34,56.500404 H 24 V 57.5 h 10 z"
     style="fill:#050505;stroke-width:0.999798" />
  <path
     id="path24"
     color="#000000"
     d="m 32,68.500361 h -8 v 0.999596 h 8 z"
     style="fill:#050505;stroke-width:0.999798" />
  <path
     id="path26"
     color="#000000"
     d="m 32,80.500308 h -8 v 0.999596 h 8 z"
     style="fill:#050505;stroke-width:0.999798" />
  <path
     id="path28"
     color="#000000"
     d="m 32,92.500254 h -8 v 0.999596 h 8 z"
     style="fill:#050505;stroke-width:0.999798" />
  <path
     id="path30"
     color="#000000"
     d="m 8,6.500564 h 8 V 7.50016 H 8 Z"
     style="fill:#050505;stroke-width:0.999798" />
  <path
     id="path32"
     color="#000000"
     d="m 29,6.500357 -5,2.07e-4 V 7.50016 l 5,-2.07e-4 z"
     style="fill:#050505;stroke-width:0.999798" />
  <path
     id="path34"
     color="#000000"
     d="m 8,104.50025 h 8 v 0.9996 H 8 Z"
     style="fill:#050505;stroke-width:0.999798" />
  <path
     id="path36"
     color="#000000"
     d="m 29,104.50004 -5,2.1e-4 v 0.9996 l 5,-2.1e-4 z"
     style="fill:#050505;stroke-width:0.999798" />
  <path
     id="path40"
     color="#000000"
     d="M 6,57.000404 H 16 V 58 H 6 Z"
     style="fill:#636363;stroke-width:0.999798" />
  <path
     id="path42"
     color="#000000"
     d="M 34,57.000404 H 24 V 58 h 10 z"
     style="fill:#636363;stroke-width:0.999798" />
  <path
     id="path46"
     color="#000000"
     d="m 8,21 h 8 v 0.999596 H 8 Z"
     style="fill:#404040;stroke-width:0.999798" />
  <path
     id="path48"
     color="#000000"
     d="m 8,33 h 8 v 0.999596 H 8 Z"
     style="fill:#404040;stroke-width:0.999798" />
  <path
     id="path50"
     color="#000000"
     d="m 8,45.000457 h 8 v 0.999596 H 8 Z"
     style="fill:#404040;stroke-width:0.999798" />
  <path
     id="path52"
     color="#000000"
     d="m 8,69.000361 h 8 v 0.999596 H 8 Z"
     style="fill:#404040;stroke-width:0.999798" />
  <path
     id="path54"
     color="#000000"
     d="m 8,81.000308 h 8 v 0.999596 H 8 Z"
     style="fill:#404040;stroke-width:0.999798" />
  <path
     id="path56"
     color="#000000"
     d="m 8,93.000254 h 8 V 93.99985 H 8 Z"
     style="fill:#404040;stroke-width:0.999798" />
  <path
     id="path58"
     color="#000000"
     d="m 32,21 h -8 v 0.999596 h 8 z"
     style="fill:#404040;stroke-width:0.999798" />
  <path
     id="path60"
     color="#000000"
     d="m 32,33 h -8 v 0.999596 h 8 z"
     style="fill:#404040;stroke-width:0.999798" />
  <path
     id="path62"
     color="#000000"
     d="m 32,45.000457 h -8 v 0.999596 h 8 z"
     style="fill:#404040;stroke-width:0.999798" />
  <path
     id="path64"
     color="#000000"
     d="m 32,69.000361 h -8 v 0.999596 h 8 z"
     style="fill:#404040;stroke-width:0.999798" />
  <path
     id="path66"
     color="#000000"
     d="m 32,81.000308 h -8 v 0.999596 h 8 z"
     style="fill:#404040;stroke-width:0.999798" />
  <path
     id="path68"
     color="#000000"
     d="m 32,93.000254 h -8 v 0.999596 h 8 z"
     style="fill:#404040;stroke-width:0.999798" />
  <path
     id="path70"
     color="#000000"
     d="m 8,7 h 8 V 7.999596 H 8 Z"
     style="fill:#404040;stroke-width:0.999798" />
  <path
     id="path72"
     color="#000000"
     d="m 29,7 -5,5.64e-4 V 8.00016 l 5,-5.64e-4 z"
     style="fill:#404040;stroke-width:0.999798" />
  <path
     id="path74"
     color="#000000"
     d="m 8,105.00025 h 8 v 0.9996 H 8 Z"
     style="fill:#404040;stroke-width:0.999798" />
  <path
     id="path76"
     color="#000000"
     d="m 29,104.99969 -5,5.6e-4 v 0.9996 l 5,-5.6e-4 z"
     style="fill:#404040;stroke-width:0.999798" />
  <path
     id="path40-3"
     d="m 18,7 h 4 v 99 h -4 z"
     style="color:#000000;fill:#050505;stroke-width:0.99999994" />
  <path
     id="path42-6"
     style="fill:#505050;paint-order:fill markers stroke"
     d="m 17,107 h 6 V 6 h -6 z m 1,-1 V 7.000001 h 4 V 106 Z" />
</svg>
