<?xml version="1.0" encoding="UTF-8" standalone="no"?>
<svg
   xmlns:dc="http://purl.org/dc/elements/1.1/"
   xmlns:cc="http://creativecommons.org/ns#"
   xmlns:rdf="http://www.w3.org/1999/02/22-rdf-syntax-ns#"
   xmlns:svg="http://www.w3.org/2000/svg"
   xmlns="http://www.w3.org/2000/svg"
   id="svg94"
   version="1.1"
   height="107"
   width="42">
  <metadata
     id="metadata100">
    <rdf:RDF>
      <cc:Work
         rdf:about="">
        <dc:format>image/svg+xml</dc:format>
        <dc:type
           rdf:resource="http://purl.org/dc/dcmitype/StillImage" />
        <dc:title></dc:title>
      </cc:Work>
    </rdf:RDF>
  </metadata>
  <defs
     id="defs98" />
  <path
     d="m 9,57.500804 h 8 V 58.5004 H 9 Z"
     id="path4"
     style="color:#000000;fill:#050505;stroke-width:0.99979782" />
  <path
     d="m 9,67.500956 h 8 v 0.999596 H 9 Z"
     id="path6"
     style="color:#000000;fill:#050505;stroke-width:0.99979782" />
  <path
     d="m 9,77.500705 h 8 v 0.999596 H 9 Z"
     id="path8"
     style="color:#000000;fill:#050505;stroke-width:0.99979782" />
  <path
     d="m 9,87.500454 h 8 V 88.50005 H 9 Z"
     id="path10"
     style="color:#000000;fill:#050505;stroke-width:0.99979782" />
  <path
     d="m 9,17.499953 h 8 v 0.999596 H 9 Z"
     id="path12"
     style="color:#000000;fill:#050505;stroke-width:0.99979782" />
  <path
     d="m 9,27.501559 h 8 v 0.999596 H 9 Z"
     id="path14"
     style="color:#000000;fill:#050505;stroke-width:0.99979782" />
  <path
     d="m 9,37.501307 h 8 v 0.999596 H 9 Z"
     id="path16"
     style="color:#000000;fill:#050505;stroke-width:0.99979782" />
  <path
     d="m 9,47.501055 h 8 v 0.999596 H 9 Z"
     id="path18"
     style="color:#000000;fill:#050505;stroke-width:0.99979782" />
  <path
     d="m 8,7.500404 9,-2.025e-4 v 0.999596 L 8,8.5 Z"
     id="path20"
     style="color:#000000;fill:#050505;stroke-width:0.99979782" />
  <path
     d="m 8,97.500405 9,-2.03e-4 v 0.999595 L 8,98.5 Z"
     id="path22"
     style="color:#000000;fill:#050505;stroke-width:0.99979782" />
  <path
     d="m 25,57.500804 8,2.53e-4 v 0.999596 L 25,58.5004 Z"
     id="path24"
     style="color:#000000;fill:#050505;stroke-width:0.99979782" />
  <path
     d="m 25,67.500956 8,2.53e-4 v 0.999596 l -8,-2.53e-4 z"
     id="path26"
     style="color:#000000;fill:#050505;stroke-width:0.99979782" />
  <path
     d="m 25,77.500705 8,2.53e-4 v 0.999596 l -8,-2.53e-4 z"
     id="path28"
     style="color:#000000;fill:#050505;stroke-width:0.99979782" />
  <path
     d="m 25,87.500454 8,2.52e-4 v 0.999596 l -8,-2.52e-4 z"
     id="path30"
     style="color:#000000;fill:#050505;stroke-width:0.99979782" />
  <path
     d="m 25,17.499953 8,2.52e-4 v 0.999596 l -8,-2.52e-4 z"
     id="path32"
     style="color:#000000;fill:#050505;stroke-width:0.99979782" />
  <path
     d="m 25,27.501559 8,2.53e-4 v 0.999596 l -8,-2.53e-4 z"
     id="path34"
     style="color:#000000;fill:#050505;stroke-width:0.99979782" />
  <path
     d="m 25,37.501307 8,2.53e-4 v 0.999596 l -8,-2.53e-4 z"
     id="path36"
     style="color:#000000;fill:#050505;stroke-width:0.99979782" />
  <path
     d="m 25,47.501055 8,2.53e-4 v 0.999596 l -8,-2.53e-4 z"
     id="path38"
     style="color:#000000;fill:#050505;stroke-width:0.99979782" />
  <path
     style="color:#000000;fill:#404040;stroke-width:0.99979782"
     id="path42"
     d="m 9,58.000552 h 8 v 0.999596 H 9 Z" />
  <path
     style="color:#000000;fill:#404040;stroke-width:0.99979782"
     id="path44"
     d="m 9,68.000704 h 8 V 69.0003 H 9 Z" />
  <path
     style="color:#000000;fill:#404040;stroke-width:0.99979782"
     id="path46"
     d="m 9,78.000453 h 8 v 0.999596 H 9 Z" />
  <path
     style="color:#000000;fill:#404040;stroke-width:0.99979782"
     id="path48"
     d="m 9,88.000202 h 8 v 0.999596 H 9 Z" />
  <path
     style="color:#000000;fill:#404040;stroke-width:0.99979782"
     id="path50"
     d="m 9,17.999701 h 8 v 0.999596 H 9 Z" />
  <path
     style="color:#000000;fill:#404040;stroke-width:0.99979782"
     id="path52"
     d="m 9,28.001307 h 8 v 0.999596 H 9 Z" />
  <path
     style="color:#000000;fill:#404040;stroke-width:0.99979782"
     id="path54"
     d="m 9,38.001055 h 8 v 0.999596 H 9 Z" />
  <path
     style="color:#000000;fill:#404040;stroke-width:0.99979782"
     id="path56"
     d="m 9,48.000803 h 8 v 0.999596 H 9 Z" />
  <path
     style="color:#000000;fill:#404040;stroke-width:0.99979782"
     id="path58"
     d="m 25,58.000552 8,2.53e-4 v 0.999596 l -8,-2.53e-4 z" />
  <path
     style="color:#000000;fill:#404040;stroke-width:0.99979782"
     id="path60"
     d="m 25,68.000704 8,2.03e-4 v 0.999596 L 25,69.0003 Z" />
  <path
     style="color:#000000;fill:#404040;stroke-width:0.99979782"
     id="path62"
     d="m 25,78.000453 8,2.03e-4 v 0.999596 l -8,-2.03e-4 z" />
  <path
     style="color:#000000;fill:#404040;stroke-width:0.99979782"
     id="path64"
     d="m 25,88.000202 8,2.02e-4 V 89 l -8,-2.02e-4 z" />
  <path
     style="color:#000000;fill:#404040;stroke-width:0.99979782"
     id="path66"
     d="m 25,17.999701 8,2.02e-4 v 0.999596 l -8,-2.02e-4 z" />
  <path
     style="color:#000000;fill:#404040;stroke-width:0.99979782"
     id="path68"
     d="m 25,28.001307 8,2.03e-4 v 0.999596 l -8,-2.03e-4 z" />
  <path
     style="color:#000000;fill:#404040;stroke-width:0.99979782"
     id="path70"
     d="m 25,38.001055 8,2.03e-4 v 0.999596 l -8,-2.03e-4 z" />
  <path
     style="color:#000000;fill:#404040;stroke-width:0.99979782"
     id="path72"
     d="m 25,48.000803 8,2.03e-4 v 0.999596 l -8,-2.03e-4 z" />
  <path
     d="m 25,7.4999495 9,2.525e-4 v 0.999596 l -9,-2.525e-4 z"
     id="path76"
     style="color:#000000;fill:#050505;stroke-width:0.99979782" />
  <path
     d="m 25,97.49995 9,2.52e-4 v 0.999596 l -9,-2.53e-4 z"
     id="path78"
     style="color:#000000;fill:#050505;stroke-width:0.99979782" />
  <path
     d="m 8,8.000404 9,-2.025e-4 v 0.999596 L 8,9 Z"
     id="path84"
     style="color:#000000;fill:#505050;stroke-width:0.99979782" />
  <path
     d="m 8,98.000405 9,-2.03e-4 v 0.999595 L 8,99 Z"
     id="path86"
     style="color:#000000;fill:#505050;stroke-width:0.99979782" />
  <path
     d="m 25,8.0002015 9,2.025e-4 V 9 l -9,-2.025e-4 z"
     id="path88"
     style="color:#000000;fill:#505050;stroke-width:0.99979788" />
  <path
     d="m 25,98.000202 9,2.02e-4 V 99 l -9,-2.03e-4 z"
     id="path90"
     style="color:#000000;fill:#505050;stroke-width:0.99979788" />
  <path
     id="path2"
     d="m 19,8 h 4 v 91 h -4 z"
     style="color:#000000;stroke-width:0.99999994" />
  <path
     id="path84-3"
     style="paint-order:fill markers stroke;fill:#505050;fill-opacity:1"
     d="m 18,100 h 6 V 7 h -6 z m 1,-0.999999 V 8.0000014 h 4 V 99.000001 Z" />
</svg>
