<?xml version="1.0" encoding="UTF-8" standalone="no"?>
<svg
   xmlns:dc="http://purl.org/dc/elements/1.1/"
   xmlns:cc="http://creativecommons.org/ns#"
   xmlns:rdf="http://www.w3.org/1999/02/22-rdf-syntax-ns#"
   xmlns:svg="http://www.w3.org/2000/svg"
   xmlns="http://www.w3.org/2000/svg"
   width="40"
   height="95"
   version="1.1"
   id="svg84">
  <metadata
     id="metadata90">
    <rdf:RDF>
      <cc:Work
         rdf:about="">
        <dc:format>image/svg+xml</dc:format>
        <dc:type
           rdf:resource="http://purl.org/dc/dcmitype/StillImage" />
        <dc:title></dc:title>
      </cc:Work>
    </rdf:RDF>
  </metadata>
  <defs
     id="defs88" />
  <path
     id="path4"
     d="m 8,6.49985 h 8 V 7.6090008 H 8 Z"
     style="color:#000000;fill:#050505;stroke-width:1.0531621" />
  <path
     id="path8"
     d="m 6,46.445298 h 10 v 1.109151 H 6 Z"
     style="color:#000000;fill:#050505;stroke-width:1.0531621" />
  <path
     id="path10"
     d="m 8,56.43169 h 8 v 1.109151 H 8 Z"
     style="color:#000000;fill:#050505;stroke-width:1.0531621" />
  <path
     id="path12"
     d="m 8,66.418082 h 8 v 1.109151 H 8 Z"
     style="color:#000000;fill:#050505;stroke-width:1.0531621" />
  <path
     id="path14"
     d="m 8,76.404474 h 8 v 1.109151 H 8 Z"
     style="color:#000000;fill:#050505;stroke-width:1.0531621" />
  <path
     id="path22"
     d="M 34,46.500404 H 24 V 47.5 h 10 z"
     style="color:#000000;fill:#050505;stroke-width:0.99979782" />
  <path
     id="path34"
     d="m 8,86.390695 h 8 V 87.49985 H 8 Z"
     style="color:#000000;fill:#050505;stroke-width:1.0531621" />
  <path
     id="path40"
     d="M 6,47.000404 H 16 V 48 H 6 Z"
     style="color:#000000;fill:#636363;stroke-width:0.999798" />
  <path
     id="path42"
     d="M 34,47.000404 H 24 V 48 h 10 z"
     style="color:#000000;fill:#636363;stroke-width:0.999798" />
  <path
     id="path48"
     d="m 8,6.99985 h 8 v 1 H 8 Z"
     style="color:#000000;fill:#404040;stroke-width:1" />
  <path
     id="path52"
     d="m 8,57 h 8 v 1 H 8 Z"
     style="color:#000000;fill:#404040;stroke-width:0.999998" />
  <path
     id="path54"
     d="m 8,67 h 8 v 1 H 8 Z"
     style="color:#000000;fill:#404040;stroke-width:0.999998" />
  <path
     id="path56"
     d="m 8,77 h 8 v 1 H 8 Z"
     style="color:#000000;fill:#404040;stroke-width:0.999998" />
  <path
     id="path74"
     d="m 8,87 h 8 v 1 H 8 Z"
     style="color:#000000;fill:#404040;stroke-width:0.999996" />
  <path
     id="path10-3"
     d="m 8,16.486123 h 8 v 1.109151 H 8 Z"
     style="color:#000000;fill:#050505;stroke-width:1.0531621" />
  <path
     id="path12-6"
     d="m 8,26.472515 h 8 v 1.109151 H 8 Z"
     style="color:#000000;fill:#050505;stroke-width:1.0531621" />
  <path
     id="path14-7"
     d="m 8,36.458907 h 8 v 1.10915 H 8 Z"
     style="color:#000000;fill:#050505;stroke-width:1.0531621" />
  <path
     id="path52-6"
     d="m 8,17 h 8 v 1 H 8 Z"
     style="color:#000000;fill:#404040;stroke-width:0.999998" />
  <path
     id="path54-2"
     d="m 8,27 h 8 v 1 H 8 Z"
     style="color:#000000;fill:#404040;stroke-width:0.999998" />
  <path
     id="path56-9"
     d="m 8,37 h 8 v 1 H 8 Z"
     style="color:#000000;fill:#404040;stroke-width:0.999998" />
  <path
     id="path4-1"
     d="M 24,6.49985 29,6.5 v 1.1091508 l -5,-1.5e-4 z"
     style="color:#000000;fill:#050505;stroke-width:1.05316" />
  <path
     id="path34-2"
     d="m 24,86.390695 5,1.5e-4 V 87.5 l -5,-1.5e-4 z"
     style="color:#000000;fill:#050505;stroke-width:1.05316" />
  <path
     id="path48-0"
     d="m 24,6.99985 5,1.352e-4 V 7.99985 l -5,-1.352e-4 z"
     style="color:#000000;fill:#404040;stroke-width:0.99993" />
  <path
     id="path74-5"
     d="m 24,86.890695 5,1.5e-4 V 88 l -5,-1.5e-4 z"
     style="color:#000000;fill:#404040;stroke-width:1.05316" />
  <path
     style="color:#000000;fill:#050505;stroke-width:0.99999994"
     d="m 18,6 h 4 v 82 h -4 z"
     id="path40-3" />
  <path
     d="m 17,89 h 6 V 5 h -6 z m 1,-1 V 6.000001 h 4 V 88 Z"
     style="fill:#505050;paint-order:fill markers stroke"
     id="path42-6" />
  <path
     style="color:#000000;fill:#050505;stroke-width:1.05316"
     d="m 24,56.43169 h 8 v 1.109151 h -8 z"
     id="path10-36" />
  <path
     style="color:#000000;fill:#050505;stroke-width:1.05316"
     d="m 24,66.418082 h 8 v 1.109151 h -8 z"
     id="path12-7" />
  <path
     style="color:#000000;fill:#050505;stroke-width:1.05316"
     d="m 24,76.404474 h 8 v 1.109151 h -8 z"
     id="path14-5" />
  <path
     style="color:#000000;fill:#404040;stroke-width:0.999998"
     d="m 24,57 h 8 v 1 h -8 z"
     id="path52-3" />
  <path
     style="color:#000000;fill:#404040;stroke-width:0.999998"
     d="m 24,67 h 8 v 1 h -8 z"
     id="path54-5" />
  <path
     style="color:#000000;fill:#404040;stroke-width:0.999998"
     d="m 24,77 h 8 v 1 h -8 z"
     id="path56-6" />
  <path
     style="color:#000000;fill:#050505;stroke-width:1.05316"
     d="m 24,16.486123 h 8 v 1.109151 h -8 z"
     id="path10-3-2" />
  <path
     style="color:#000000;fill:#050505;stroke-width:1.05316"
     d="m 24,26.472515 h 8 v 1.109151 h -8 z"
     id="path12-6-9" />
  <path
     style="color:#000000;fill:#050505;stroke-width:1.05316"
     d="m 24,36.458907 h 8 v 1.10915 h -8 z"
     id="path14-7-1" />
  <path
     style="color:#000000;fill:#404040;stroke-width:0.999998"
     d="m 24,17 h 8 v 1 h -8 z"
     id="path52-6-2" />
  <path
     style="color:#000000;fill:#404040;stroke-width:0.999998"
     d="m 24,27 h 8 v 1 h -8 z"
     id="path54-2-7" />
  <path
     style="color:#000000;fill:#404040;stroke-width:0.999998"
     d="m 24,37 h 8 v 1 h -8 z"
     id="path56-9-0" />
</svg>
