<?xml version="1.0" encoding="UTF-8" standalone="no"?>
<svg
   xmlns:dc="http://purl.org/dc/elements/1.1/"
   xmlns:cc="http://creativecommons.org/ns#"
   xmlns:rdf="http://www.w3.org/1999/02/22-rdf-syntax-ns#"
   xmlns:svg="http://www.w3.org/2000/svg"
   xmlns="http://www.w3.org/2000/svg"
   width="40"
   height="95"
   version="1.1"
   id="svg84">
  <metadata
     id="metadata90">
    <rdf:RDF>
      <cc:Work
         rdf:about="">
        <dc:format>image/svg+xml</dc:format>
        <dc:type
           rdf:resource="http://purl.org/dc/dcmitype/StillImage" />
        <dc:title></dc:title>
      </cc:Work>
    </rdf:RDF>
  </metadata>
  <defs
     id="defs88" />
  <path
     id="path4"
     d="m 8,6.49985 h 8 V 7.6090008 H 8 Z"
     style="color:#000000;fill:#050505;stroke-width:1.0531621" />
  <path
     id="path8"
     d="m 6,46.445298 h 10 v 1.109151 H 6 Z"
     style="color:#000000;fill:#050505;stroke-width:1.0531621" />
  <path
     id="path10"
     d="m 8,56.43169 h 8 v 1.109151 H 8 Z"
     style="color:#000000;fill:#050505;stroke-width:1.0531621" />
  <path
     id="path12"
     d="m 8,66.418082 h 8 v 1.109151 H 8 Z"
     style="color:#000000;fill:#050505;stroke-width:1.0531621" />
  <path
     id="path14"
     d="m 8,76.404474 h 8 v 1.109151 H 8 Z"
     style="color:#000000;fill:#050505;stroke-width:1.0531621" />
  <path
     id="path22"
     d="M 34,46.500404 H 24 V 47.5 h 10 z"
     style="color:#000000;fill:#050505;stroke-width:0.99979782" />
  <path
     id="path34"
     d="m 8,86.390695 h 8 V 87.49985 H 8 Z"
     style="color:#000000;fill:#050505;stroke-width:1.0531621" />
  <g
     transform="translate(0,-10)"
     style="fill:#636363;stroke-width:0.99979782"
     id="g44">
    <path
       style="color:#000000"
       d="M 6,57.000404 H 16 V 58 H 6 Z"
       id="path40" />
    <path
       style="color:#000000"
       d="M 34,57.000404 H 24 V 58 h 10 z"
       id="path42" />
  </g>
  <path
     id="path48"
     d="m 8,6.99985 h 8 V 8.1090008 H 8 Z"
     style="color:#000000;fill:#404040;stroke-width:1.0531621" />
  <path
     id="path52"
     d="m 8,56.93169 h 8 v 1.109151 H 8 Z"
     style="color:#000000;fill:#404040;stroke-width:1.0531621" />
  <path
     id="path54"
     d="m 8,66.917998 h 8 v 1.109151 H 8 Z"
     style="color:#000000;fill:#404040;stroke-width:1.0531621" />
  <path
     id="path56"
     d="m 8,76.904474 h 8 v 1.109151 H 8 Z"
     style="color:#000000;fill:#404040;stroke-width:1.0531621" />
  <path
     id="path74"
     d="m 8,86.890695 h 8 V 87.99985 H 8 Z"
     style="color:#000000;fill:#404040;stroke-width:1.0531621" />
  <path
     id="path10-3"
     d="m 8,16.486123 h 8 v 1.109151 H 8 Z"
     style="color:#000000;fill:#050505;stroke-width:1.0531621" />
  <path
     id="path12-6"
     d="m 8,26.472515 h 8 v 1.109151 H 8 Z"
     style="color:#000000;fill:#050505;stroke-width:1.0531621" />
  <path
     id="path14-7"
     d="m 8,36.458907 h 8 v 1.10915 H 8 Z"
     style="color:#000000;fill:#050505;stroke-width:1.0531621" />
  <path
     id="path52-6"
     d="m 8,16.986123 h 8 v 1.109151 H 8 Z"
     style="color:#000000;fill:#404040;stroke-width:1.0531621" />
  <path
     id="path54-2"
     d="m 8,26.972431 h 8 v 1.10915 H 8 Z"
     style="color:#000000;fill:#404040;stroke-width:1.0531621" />
  <path
     id="path56-9"
     d="m 8,36.958907 h 8 v 1.10915 H 8 Z"
     style="color:#000000;fill:#404040;stroke-width:1.0531621" />
  <path
     id="path4-1"
     d="m 24,6.49985 h 8 v 1.1091508 h -8 z"
     style="color:#000000;fill:#050505;stroke-width:1.0531621" />
  <path
     id="path10-8"
     d="m 24,56.43169 h 8 v 1.109151 h -8 z"
     style="color:#000000;fill:#050505;stroke-width:1.0531621" />
  <path
     id="path12-7"
     d="m 24,66.418082 h 8 v 1.109151 h -8 z"
     style="color:#000000;fill:#050505;stroke-width:1.0531621" />
  <path
     id="path14-9"
     d="m 24,76.404474 h 8 v 1.109151 h -8 z"
     style="color:#000000;fill:#050505;stroke-width:1.0531621" />
  <path
     id="path34-2"
     d="m 24,86.390695 h 8 v 1.109155 h -8 z"
     style="color:#000000;fill:#050505;stroke-width:1.0531621" />
  <path
     id="path48-0"
     d="m 24,6.99985 h 8 v 1.1091508 h -8 z"
     style="color:#000000;fill:#404040;stroke-width:1.0531621" />
  <path
     id="path52-2"
     d="m 24,56.93169 h 8 v 1.109151 h -8 z"
     style="color:#000000;fill:#404040;stroke-width:1.0531621" />
  <path
     id="path54-3"
     d="m 24,66.917998 h 8 v 1.109151 h -8 z"
     style="color:#000000;fill:#404040;stroke-width:1.0531621" />
  <path
     id="path56-7"
     d="m 24,76.904474 h 8 v 1.109151 h -8 z"
     style="color:#000000;fill:#404040;stroke-width:1.0531621" />
  <path
     id="path74-5"
     d="m 24,86.890695 h 8 v 1.109155 h -8 z"
     style="color:#000000;fill:#404040;stroke-width:1.0531621" />
  <path
     id="path10-3-9"
     d="m 24,16.486123 h 8 v 1.109151 h -8 z"
     style="color:#000000;fill:#050505;stroke-width:1.0531621" />
  <path
     id="path12-6-2"
     d="m 24,26.472515 h 8 v 1.109151 h -8 z"
     style="color:#000000;fill:#050505;stroke-width:1.0531621" />
  <path
     id="path14-7-2"
     d="m 24,36.458907 h 8 v 1.10915 h -8 z"
     style="color:#000000;fill:#050505;stroke-width:1.0531621" />
  <path
     id="path52-6-8"
     d="m 24,16.986123 h 8 v 1.109151 h -8 z"
     style="color:#000000;fill:#404040;stroke-width:1.0531621" />
  <path
     id="path54-2-9"
     d="m 24,26.972431 h 8 v 1.10915 h -8 z"
     style="color:#000000;fill:#404040;stroke-width:1.0531621" />
  <path
     id="path56-9-7"
     d="m 24,36.958907 h 8 v 1.10915 h -8 z"
     style="color:#000000;fill:#404040;stroke-width:1.0531621" />
  <path
     style="color:#000000;fill:#050505;stroke-width:0.99999994"
     d="m 18,6 h 4 v 82 h -4 z"
     id="path40-3" />
  <path
     d="m 17,89 h 6 V 5 h -6 z m 1,-1 V 6.000001 h 4 V 88 Z"
     style="fill:#505050;paint-order:fill markers stroke"
     id="path42-6" />
</svg>
