<?xml version="1.0" encoding="UTF-8" standalone="no"?>
<svg
   xmlns:dc="http://purl.org/dc/elements/1.1/"
   xmlns:cc="http://creativecommons.org/ns#"
   xmlns:rdf="http://www.w3.org/1999/02/22-rdf-syntax-ns#"
   xmlns:svg="http://www.w3.org/2000/svg"
   xmlns="http://www.w3.org/2000/svg"
   id="svg46"
   version="1.1"
   height="42"
   width="85">
  <metadata
     id="metadata52">
    <rdf:RDF>
      <cc:Work
         rdf:about="">
        <dc:format>image/svg+xml</dc:format>
        <dc:type
           rdf:resource="http://purl.org/dc/dcmitype/StillImage" />
        <dc:title></dc:title>
      </cc:Work>
    </rdf:RDF>
  </metadata>
  <defs
     id="defs50" />
  <path
     id="path2"
     stroke-width=".99979782"
     fill="#050505"
     color="#000000"
     d="m42.999797 24-2e-4 9h-.999596l2e-4-9z" />
  <path
     id="path4"
     stroke-width=".99979782"
     fill="#050505"
     color="#000000"
     d="m42.999797 6-2e-4 9h-.999596l2e-4-9z" />
  <path
     id="path6"
     stroke-width=".99979782"
     fill="#050505"
     color="#000000"
     d="m7.999796 24-2e-4 9h-.999596l2e-4-9z" />
  <path
     id="path8"
     stroke-width=".99979782"
     fill="#050505"
     color="#000000"
     d="m7.999796 6-2e-4 9h-.999596l2e-4-9z" />
  <path
     id="path10"
     stroke-width=".99979782"
     fill="#050505"
     color="#000000"
     d="m77.9998 24-2e-4 9h-.9996l2e-4-9z" />
  <path
     id="path12"
     stroke-width=".99979782"
     fill="#050505"
     color="#000000"
     d="m77.9998 6-2e-4 9h-.9996l2e-4-9z" />
  <path
     id="path14"
     stroke-width=".99979782"
     fill="#050505"
     color="#000000"
     d="m31.999797 24 2e-6 7h-.999596l-2e-6-7z" />
  <path
     id="path16"
     stroke-width=".99979782"
     fill="#050505"
     color="#000000"
     d="m31.999999 8-.000402 7h-.999596l.000402-7z" />
  <path
     id="path18"
     stroke-width=".99979782"
     fill="#050505"
     color="#000000"
     d="m53.999797 24 2e-6 7h-.999596l-2e-6-7z" />
  <path
     id="path20"
     stroke-width=".99979782"
     fill="#050505"
     color="#000000"
     d="m53.999999 8-.000402 7h-.999596l.000402-7z" />
  <path
     id="path22"
     stroke-width=".99979782"
     fill="#636363"
     color="#000000"
     d="m42.999898 7-2e-4 9h-.999596l2e-4-9z" />
  <path
     id="path24"
     stroke-width=".99979782"
     fill="#636363"
     color="#000000"
     d="m42.999597 34 2e-4-9h-.999596l-2e-4 9z" />
  <path
     id="path26"
     stroke-width=".99979782"
     fill="#4b4b4b"
     color="#000000"
     d="m7.999796 7-2e-4 9h-.999596l2e-4-9z" />
  <path
     id="path28"
     stroke-width=".99979782"
     fill="#4b4b4b"
     color="#000000"
     d="m7.999596 34 2e-4-9h-.999596l-2e-4 9z" />
  <path
     id="path30"
     stroke-width=".99979782"
     fill="#4b4b4b"
     color="#000000"
     d="m77.9998 7-2e-4 9h-.9996l2e-4-9z" />
  <path
     id="path32"
     stroke-width=".99979782"
     fill="#4b4b4b"
     color="#000000"
     d="m77.9996 34 2e-4-9h-.9996l-2e-4 9z" />
  <path
     id="path34"
     stroke-width=".99979782"
     fill="#4b4b4b"
     color="#000000"
     d="m31.999999 9-.000402 7h-.999596l.000402-7z" />
  <path
     id="path36"
     stroke-width=".99979782"
     fill="#4b4b4b"
     color="#000000"
     d="m31.999799 32-2e-6-7h-.999596l2e-6 7z" />
  <path
     id="path38"
     stroke-width=".99979782"
     fill="#4b4b4b"
     color="#000000"
     d="m53.999999 9-.000402 7h-.999596l.000402-7z" />
  <path
     id="path40"
     stroke-width=".99979782"
     fill="#4b4b4b"
     color="#000000"
     d="m53.999799 32-2e-6-7h-.999596l2e-6 7z" />
  <path
     d="m 78.00001,18 v 4 H 7 v -4 z"
     id="path2-3"
     style="color:#000000;fill:#050505;stroke-width:0.99999994" />
  <path
     d="m 6,17 v 6 h 73 v -6 z m 1,1 h 71 v 4 H 7 Z"
     style="fill:#4b4b4b;paint-order:fill markers stroke"
     id="path28-6" />
</svg>
