<?xml version="1.0" encoding="UTF-8" standalone="no"?>
<svg
   xmlns:dc="http://purl.org/dc/elements/1.1/"
   xmlns:cc="http://creativecommons.org/ns#"
   xmlns:rdf="http://www.w3.org/1999/02/22-rdf-syntax-ns#"
   xmlns:svg="http://www.w3.org/2000/svg"
   xmlns="http://www.w3.org/2000/svg"
   id="svg70"
   version="1.1"
   height="65"
   width="30">
  <metadata
     id="metadata76">
    <rdf:RDF>
      <cc:Work
         rdf:about="">
        <dc:format>image/svg+xml</dc:format>
        <dc:type
           rdf:resource="http://purl.org/dc/dcmitype/StillImage" />
        <dc:title></dc:title>
      </cc:Work>
    </rdf:RDF>
  </metadata>
  <defs
     id="defs74" />
  <path
     style="color:#000000;fill:#050505;stroke-width:0.99979782"
     id="path4"
     d="m 6,4.500412 h 6 V 5.500008 H 6 Z" />
  <path
     style="color:#000000;fill:#050505;stroke-width:0.99979782"
     id="path6"
     d="m 6,13.500404 h 6 V 14.5 H 6 Z" />
  <path
     style="color:#000000;fill:#050505;stroke-width:0.99979782"
     id="path8"
     d="m 4,31.500404 h 8 V 32.5 H 4 Z" />
  <path
     style="color:#000000;fill:#050505;stroke-width:0.99979782"
     id="path10"
     d="m 6,22.500404 h 6 V 23.5 H 6 Z" />
  <path
     style="color:#000000;fill:#050505;stroke-width:0.99979782"
     id="path12"
     d="m 6,40.500352 h 6 v 0.999596 H 6 Z" />
  <path
     style="color:#000000;fill:#050505;stroke-width:0.99979782"
     id="path14"
     d="m 6,58.500254 h 6 V 59.49985 H 6 Z" />
  <path
     style="color:#000000;fill:#050505;stroke-width:0.99979782"
     id="path16"
     d="m 6,49.500303 h 6 v 0.999596 H 6 Z" />
  <path
     style="color:#000000;fill:#050505;stroke-width:0.99979782"
     id="path18"
     d="m 24,4.500412 h -6 v 0.999596 h 6 z" />
  <path
     style="color:#000000;fill:#050505;stroke-width:0.99979782"
     id="path20"
     d="M 24,13.500404 H 18 V 14.5 h 6 z" />
  <path
     style="color:#000000;fill:#050505;stroke-width:0.99979782"
     id="path22"
     d="M 26,31.500404 H 18 V 32.5 h 8 z" />
  <path
     style="color:#000000;fill:#050505;stroke-width:0.99979782"
     id="path24"
     d="M 24,22.500404 H 18 V 23.5 h 6 z" />
  <path
     style="color:#000000;fill:#050505;stroke-width:0.99979782"
     id="path26"
     d="m 24,40.500352 h -6 v 0.999596 h 6 z" />
  <path
     style="color:#000000;fill:#050505;stroke-width:0.99979782"
     id="path28"
     d="m 24,58.500254 h -6 v 0.999596 h 6 z" />
  <path
     style="color:#000000;fill:#050505;stroke-width:0.99979782"
     id="path30"
     d="m 24,49.500303 h -6 v 0.999596 h 6 z" />
  <g
     id="g42"
     stroke-width=".99979782"
     fill="#636363"
     transform="translate(2)">
    <path
       id="path38"
       color="#000000"
       d="m2 32.000404h8v.999596h-8z" />
    <path
       id="path40"
       color="#000000"
       d="m24 32.000404h-8v.999596h8z" />
  </g>
  <g
     id="g68"
     stroke-width=".99979782"
     fill="#404040"
     transform="translate(2)">
    <path
       id="path44"
       color="#000000"
       d="m4 5.000412h6v.999596h-6z" />
    <path
       id="path46"
       color="#000000"
       d="m4 14.000404h6v.999596h-6z" />
    <path
       id="path48"
       color="#000000"
       d="m4 23.000404h6v.999596h-6z" />
    <path
       id="path50"
       color="#000000"
       d="m4 41.000352h6v.999596h-6z" />
    <path
       id="path52"
       color="#000000"
       d="m4 59.000254h6v.999596h-6z" />
    <path
       id="path54"
       color="#000000"
       d="m4 50.000303h6v.999596h-6z" />
    <path
       id="path56"
       color="#000000"
       d="m22 5.000412h-6v.999596h6z" />
    <path
       id="path58"
       color="#000000"
       d="m22 14.000404h-6v.999596h6z" />
    <path
       id="path60"
       color="#000000"
       d="m22 23.000404h-6v.999596h6z" />
    <path
       id="path62"
       color="#000000"
       d="m22 41.000352h-6v.999596h6z" />
    <path
       id="path64"
       color="#000000"
       d="m22 59.000254h-6v.999596h6z" />
    <path
       id="path66"
       color="#000000"
       d="m22 50.000303h-6v.999596h6z" />
  </g>
  <path
     id="path2"
     d="m 14,4.999999 h 2 V 60 h -2 z"
     style="color:#000000;stroke-width:0.99999994" />
  <path
     id="path36"
     style="fill:#505050;paint-order:fill markers stroke"
     d="m 13,61 h 4 V 3.999999 h -4 z m 1,-1 V 5 h 2 v 55 z" />
</svg>
