<?xml version="1.0" encoding="UTF-8" standalone="no"?>
<svg
   xmlns:dc="http://purl.org/dc/elements/1.1/"
   xmlns:cc="http://creativecommons.org/ns#"
   xmlns:rdf="http://www.w3.org/1999/02/22-rdf-syntax-ns#"
   xmlns:svg="http://www.w3.org/2000/svg"
   xmlns="http://www.w3.org/2000/svg"
   id="svg84"
   version="1.1"
   height="95"
   width="40">
  <metadata
     id="metadata90">
    <rdf:RDF>
      <cc:Work
         rdf:about="">
        <dc:format>image/svg+xml</dc:format>
        <dc:type
           rdf:resource="http://purl.org/dc/dcmitype/StillImage" />
        <dc:title></dc:title>
      </cc:Work>
    </rdf:RDF>
  </metadata>
  <defs
     id="defs88" />
  <path
     style="color:#000000;fill:#050505;stroke-width:1"
     d="m 8,6.49985 h 8 v 1 H 8 Z"
     id="path4" />
  <path
     style="color:#000000;fill:#050505;stroke-width:0.999998"
     d="m 6,46.5 h 10 v 1 H 6 Z"
     id="path8" />
  <path
     style="color:#000000;fill:#050505;stroke-width:1.0531621"
     d="m 8,56.43169 h 8 v 1.109151 H 8 Z"
     id="path10" />
  <path
     style="color:#000000;fill:#050505;stroke-width:0.999998"
     d="m 8,66.5 h 8 v 1 H 8 Z"
     id="path12" />
  <path
     style="color:#000000;fill:#050505;stroke-width:0.999998"
     d="m 8,76.5 h 8 v 1 H 8 Z"
     id="path14" />
  <path
     style="color:#000000;fill:#050505;stroke-width:0.99979782"
     d="M 34,46.500404 H 24 V 47.5 h 10 z"
     id="path22" />
  <path
     style="color:#000000;fill:#050505;stroke-width:0.999996"
     d="m 8,86.5 h 8 v 1 H 8 Z"
     id="path34" />
  <path
     style="color:#000000;fill:#636363;stroke-width:0.999798"
     d="M 6,47.000404 H 16 V 48 H 6 Z"
     id="path40" />
  <path
     style="color:#000000;fill:#636363;stroke-width:0.999798"
     d="M 34,47.000404 H 24 V 48 h 10 z"
     id="path42" />
  <path
     style="color:#000000;fill:#404040;stroke-width:1"
     d="m 8,6.99985 h 8 v 1 H 8 Z"
     id="path48" />
  <path
     style="color:#000000;fill:#404040;stroke-width:0.999998"
     d="m 8,57 h 8 v 1 H 8 Z"
     id="path52" />
  <path
     style="color:#000000;fill:#404040;stroke-width:0.999998"
     d="m 8,67 h 8 v 1 H 8 Z"
     id="path54" />
  <path
     style="color:#000000;fill:#404040;stroke-width:0.999998"
     d="m 8,77 h 8 v 1 H 8 Z"
     id="path56" />
  <path
     style="color:#000000;fill:#404040;stroke-width:0.999996"
     d="m 8,87 h 8 v 1 H 8 Z"
     id="path74" />
  <path
     style="color:#000000;fill:#050505;stroke-width:0.999998"
     d="m 8,16.5 h 8 v 1 H 8 Z"
     id="path10-3" />
  <path
     style="color:#000000;fill:#050505;stroke-width:0.999998"
     d="m 8,26.5 h 8 v 1 H 8 Z"
     id="path12-6" />
  <path
     style="color:#000000;fill:#050505;stroke-width:0.999998"
     d="m 8,36.5 h 8 v 1 H 8 Z"
     id="path14-7" />
  <path
     style="color:#000000;fill:#404040;stroke-width:0.999998"
     d="m 8,17 h 8 v 1 H 8 Z"
     id="path52-6" />
  <path
     style="color:#000000;fill:#404040;stroke-width:0.999998"
     d="m 8,27 h 8 v 1 H 8 Z"
     id="path54-2" />
  <path
     style="color:#000000;fill:#404040;stroke-width:0.999998"
     d="m 8,37 h 8 v 1 H 8 Z"
     id="path56-9" />
  <path
     style="color:#000000;fill:#050505;stroke-width:0.99993"
     d="m 24,6.49985 8,2.852e-4 V 7.5 l -8,-2.852e-4 z"
     id="path4-1" />
  <path
     style="color:#000000;fill:#050505;stroke-width:0.999928"
     d="m 24,86.5 8,1.35e-4 V 87.5 l -8,-1.35e-4 z"
     id="path34-2" />
  <path
     style="color:#000000;fill:#404040;stroke-width:0.99993"
     d="m 24,6.99985 8,2.852e-4 V 8 l -8,-2.852e-4 z"
     id="path48-0" />
  <path
     style="color:#000000;fill:#404040;stroke-width:0.999928"
     d="m 24,87 8,1.35e-4 V 88 l -8,-1.35e-4 z"
     id="path74-5" />
  <path
     id="path40-3"
     d="m 18,6 h 4 v 83 h -4 z"
     style="color:#000000;fill:#050505;stroke-width:1" />
  <path
     id="path42-6"
     style="fill:#505050;paint-order:fill markers stroke"
     d="m 17,90 h 6 V 5 h -6 z m 1,-1 V 6.000001 h 4 V 89 Z" />
  <path
     id="path10-36"
     d="m 24,56.5 h 8 v 1 h -8 z"
     style="color:#000000;fill:#050505;stroke-width:0.999998" />
  <path
     id="path12-7"
     d="m 24,66.5 h 8 v 1 h -8 z"
     style="color:#000000;fill:#050505;stroke-width:0.999998" />
  <path
     id="path14-5"
     d="m 24,76.5 h 8 v 1 h -8 z"
     style="color:#000000;fill:#050505;stroke-width:0.999998" />
  <path
     id="path52-3"
     d="m 24,57 h 8 v 1 h -8 z"
     style="color:#000000;fill:#404040;stroke-width:0.999998" />
  <path
     id="path54-5"
     d="m 24,67 h 8 v 1 h -8 z"
     style="color:#000000;fill:#404040;stroke-width:0.999998" />
  <path
     id="path56-6"
     d="m 24,77 h 8 v 1 h -8 z"
     style="color:#000000;fill:#404040;stroke-width:0.999998" />
  <path
     id="path10-3-2"
     d="m 24,16.5 h 8 v 1 h -8 z"
     style="color:#000000;fill:#050505;stroke-width:0.999998" />
  <path
     id="path12-6-9"
     d="m 24,26.5 h 8 v 1 h -8 z"
     style="color:#000000;fill:#050505;stroke-width:0.999998" />
  <path
     id="path14-7-1"
     d="m 24,36.5 h 8 v 1 h -8 z"
     style="color:#000000;fill:#050505;stroke-width:0.999998" />
  <path
     id="path52-6-2"
     d="m 24,17 h 8 v 1 h -8 z"
     style="color:#000000;fill:#404040;stroke-width:0.999998" />
  <path
     id="path54-2-7"
     d="m 24,27 h 8 v 1 h -8 z"
     style="color:#000000;fill:#404040;stroke-width:0.999998" />
  <path
     id="path56-9-0"
     d="m 24,37 h 8 v 1 h -8 z"
     style="color:#000000;fill:#404040;stroke-width:0.999998" />
</svg>
