<?xml version="1.0" encoding="UTF-8" standalone="no"?>
<svg
   xmlns:dc="http://purl.org/dc/elements/1.1/"
   xmlns:cc="http://creativecommons.org/ns#"
   xmlns:rdf="http://www.w3.org/1999/02/22-rdf-syntax-ns#"
   xmlns:svg="http://www.w3.org/2000/svg"
   xmlns="http://www.w3.org/2000/svg"
   width="85"
   height="40"
   version="1.1"
   id="svg46">
  <metadata
     id="metadata52">
    <rdf:RDF>
      <cc:Work
         rdf:about="">
        <dc:format>image/svg+xml</dc:format>
        <dc:type
           rdf:resource="http://purl.org/dc/dcmitype/StillImage" />
        <dc:title></dc:title>
      </cc:Work>
    </rdf:RDF>
  </metadata>
  <defs
     id="defs50" />
  <path
     d="m 42.999797,24 -2e-4,9 h -0.999596 l 2e-4,-9 z"
     color="#000000"
     fill="#050505"
     stroke-width="0.999798"
     id="path2" />
  <path
     d="m 42.999797,6 -2e-4,9 h -0.999596 l 2e-4,-9 z"
     color="#000000"
     fill="#050505"
     stroke-width="0.999798"
     id="path4" />
  <path
     d="m 7.999796,24 -2e-4,9 H 7 l 2e-4,-9 z"
     color="#000000"
     fill="#050505"
     stroke-width="0.999798"
     id="path6" />
  <path
     d="m 7.999796,6 -2e-4,9 H 7 l 2e-4,-9 z"
     color="#000000"
     fill="#050505"
     stroke-width="0.999798"
     id="path8" />
  <path
     d="m 77.9998,24 -2e-4,9 H 77 l 2e-4,-9 z"
     color="#000000"
     fill="#050505"
     stroke-width="0.999798"
     id="path10" />
  <path
     d="m 77.9998,6 -2e-4,9 H 77 l 2e-4,-9 z"
     color="#000000"
     fill="#050505"
     stroke-width="0.999798"
     id="path12" />
  <path
     d="m 31.999797,24 2e-6,7 h -0.999596 l -2e-6,-7 z"
     color="#000000"
     fill="#050505"
     stroke-width="0.999798"
     id="path14" />
  <path
     d="m 31.999999,8 -4.02e-4,7 h -0.999596 l 4.02e-4,-7 z"
     color="#000000"
     fill="#050505"
     stroke-width="0.999798"
     id="path16" />
  <path
     d="m 53.999797,24 2e-6,7 h -0.999596 l -2e-6,-7 z"
     color="#000000"
     fill="#050505"
     stroke-width="0.999798"
     id="path18" />
  <path
     d="m 53.999999,8 -4.02e-4,7 h -0.999596 l 4.02e-4,-7 z"
     color="#000000"
     fill="#050505"
     stroke-width="0.999798"
     id="path20" />
  <path
     d="m 42.999898,7 -2e-4,9 h -0.999596 l 2e-4,-9 z"
     color="#000000"
     fill="#636363"
     stroke-width="0.999798"
     id="path22" />
  <path
     d="m 42.999597,34 2e-4,-9 h -0.999596 l -2e-4,9 z"
     color="#000000"
     fill="#636363"
     stroke-width="0.999798"
     id="path24" />
  <path
     d="m 7.999796,7 -2e-4,9 H 7 l 2e-4,-9 z"
     color="#000000"
     fill="#4b4b4b"
     stroke-width="0.999798"
     id="path26" />
  <path
     d="m 7.999596,34 2e-4,-9 H 7.0002 L 7,34 Z"
     color="#000000"
     fill="#4b4b4b"
     stroke-width="0.999798"
     id="path28" />
  <path
     d="m 77.9998,7 -2e-4,9 H 77 l 2e-4,-9 z"
     color="#000000"
     fill="#4b4b4b"
     stroke-width="0.999798"
     id="path30" />
  <path
     d="m 77.9996,34 2e-4,-9 H 77.0002 L 77,34 Z"
     color="#000000"
     fill="#4b4b4b"
     stroke-width="0.999798"
     id="path32" />
  <path
     d="m 31.999999,9 -4.02e-4,7 h -0.999596 l 4.02e-4,-7 z"
     color="#000000"
     fill="#4b4b4b"
     stroke-width="0.999798"
     id="path34" />
  <path
     d="m 31.999799,32 -2e-6,-7 h -0.999596 l 2e-6,7 z"
     color="#000000"
     fill="#4b4b4b"
     stroke-width="0.999798"
     id="path36" />
  <path
     d="m 53.999999,9 -4.02e-4,7 h -0.999596 l 4.02e-4,-7 z"
     color="#000000"
     fill="#4b4b4b"
     stroke-width="0.999798"
     id="path38" />
  <path
     d="m 53.999799,32 -2e-6,-7 h -0.999596 l 2e-6,7 z"
     color="#000000"
     fill="#4b4b4b"
     stroke-width="0.999798"
     id="path40" />
  <path
     style="color:#000000;fill:#050505;stroke-width:1"
     id="path2-3"
     d="m 78.00001,18 v 4 H 7 v -4 z" />
  <path
     id="path28-6"
     style="fill:#4b4b4b;paint-order:fill markers stroke"
     d="m 6,17 v 6 h 73 v -6 z m 1,1 h 71 v 4 H 7 Z" />
</svg>
