<?xml version="1.0" encoding="UTF-8" standalone="no"?>
<!-- Created with Inkscape (http://www.inkscape.org/) -->

<svg
   xmlns:dc="http://purl.org/dc/elements/1.1/"
   xmlns:cc="http://creativecommons.org/ns#"
   xmlns:rdf="http://www.w3.org/1999/02/22-rdf-syntax-ns#"
   xmlns:svg="http://www.w3.org/2000/svg"
   xmlns="http://www.w3.org/2000/svg"
   xmlns:sodipodi="http://sodipodi.sourceforge.net/DTD/sodipodi-0.dtd"
   xmlns:inkscape="http://www.inkscape.org/namespaces/inkscape"
   width="28"
   height="32"
   id="svg2"
   version="1.1"
   inkscape:version="0.48.4 r9939"
   sodipodi:docname="btn_aux3.svg">
  <defs
     id="defs4" />
  <sodipodi:namedview
     id="base"
     pagecolor="#ffffff"
     bordercolor="#666666"
     borderopacity="1.0"
     inkscape:pageopacity="0.0"
     inkscape:pageshadow="2"
     inkscape:zoom="11.313708"
     inkscape:cx="-12.083326"
     inkscape:cy="12.967121"
     inkscape:document-units="px"
     inkscape:current-layer="g3923"
     showgrid="false"
     inkscape:snap-page="true"
     inkscape:snap-bbox="true"
     inkscape:snap-bbox-midpoints="true"
     inkscape:snap-bbox-edge-midpoints="true"
     inkscape:bbox-nodes="true"
     inkscape:bbox-paths="true"
     inkscape:snap-object-midpoints="true"
     inkscape:object-nodes="true"
     inkscape:snap-smooth-nodes="true"
     inkscape:object-paths="true"
     showguides="true"
     inkscape:guide-bbox="true"
     inkscape:window-width="1366"
     inkscape:window-height="747"
     inkscape:window-x="0"
     inkscape:window-y="21"
     inkscape:window-maximized="1"
     inkscape:snap-global="true" />
  <metadata
     id="metadata7">
    <rdf:RDF>
      <cc:Work
         rdf:about="">
        <dc:format>image/svg+xml</dc:format>
        <dc:type
           rdf:resource="http://purl.org/dc/dcmitype/StillImage" />
        <dc:title />
      </cc:Work>
    </rdf:RDF>
  </metadata>
  <g
     transform="translate(0,-1020.3622)"
     id="g3923"
     inkscape:groupmode="layer"
     inkscape:label="OFF"
     style="display:inline">
    <g
       id="g2989"
       transform="translate(-88.571429,8.1332715)" />
    <path
       style="fill:#939393;fill-opacity:1;fill-rule:nonzero;stroke:none"
       d="m 8.1603034,1022.9654 c -0.3900552,0 -0.7040705,0.314 -0.7040705,0.704 l 0,6.6667 -2.9482965,0 0,9.3068 2.1122125,4.2247 0,5.7644 4.2244251,0 0,-5.7644 2.112213,-4.2247 0,-9.3068 -2.948296,0 0,-6.6667 c 0,-0.39 -0.3140174,-0.704 -0.7040725,-0.704 l -1.1441151,0 z"
       id="rect3835-6"
       inkscape:connector-curvature="0" />
    <g
       style="font-size:14px;font-style:normal;font-variant:normal;font-weight:normal;font-stretch:normal;line-height:125%;letter-spacing:0px;word-spacing:0px;fill:#d2d2d2;fill-opacity:1;stroke:none;display:inline;font-family:Ubuntu;-inkscape-font-specification:Ubuntu"
       id="text3030">
      <path
         d="m 20.024,1050.6742 c -0.368005,0 -0.760005,-0.032 -1.176,-0.096 -0.400004,-0.048 -0.792003,-0.112 -1.176,-0.192 -0.368003,-0.08 -0.712002,-0.168 -1.032,-0.264 -0.320002,-0.096 -0.568001,-0.184 -0.744,-0.264 l 0.576,-2.472 c 0.367998,0.16 0.839997,0.328 1.416,0.504 0.591996,0.176 1.295995,0.264 2.112,0.264 1.007994,0 1.711993,-0.216 2.112,-0.648 0.415992,-0.432 0.623992,-0.968 0.624,-1.608 -8e-6,-0.784 -0.312008,-1.328 -0.936,-1.632 -0.624007,-0.32 -1.416006,-0.48 -2.376,-0.48 l -0.912,0 0,-2.448 1.104,0 c 0.303995,0 0.607994,-0.032 0.912,-0.096 0.303994,-0.064 0.575994,-0.168 0.816,-0.312 0.239993,-0.144 0.431993,-0.336 0.576,-0.576 0.159993,-0.24 0.239992,-0.544 0.24,-0.912 -8e-6,-0.544 -0.168007,-0.968 -0.504,-1.272 -0.320007,-0.32 -0.768006,-0.48 -1.344,-0.48 -0.560005,0 -1.120005,0.096 -1.68,0.288 -0.544003,0.176 -1.016003,0.4 -1.416,0.672 l -1.056,-2.16 c 0.431998,-0.288 0.999997,-0.576 1.704,-0.864 0.719996,-0.304 1.527995,-0.456 2.424,-0.456 0.831993,0 1.551993,0.104 2.16,0.312 0.623992,0.208 1.135991,0.504 1.536,0.888 0.39999,0.368 0.69599,0.808 0.888,1.32 0.19199,0.512 0.287989,1.064 0.288,1.656 -1.1e-5,0.592 -0.16801,1.16 -0.504,1.704 -0.33601,0.544 -0.784009,0.96 -1.344,1.248 0.767991,0.32 1.35999,0.792 1.776,1.416 0.431989,0.624 0.647989,1.368 0.648,2.232 -1.1e-5,0.688 -0.112011,1.32 -0.336,1.896 -0.224011,0.576 -0.56801,1.08 -1.032,1.512 -0.464009,0.416 -1.056009,0.744 -1.776,0.984 -0.720007,0.224 -1.576006,0.336 -2.568,0.336"
         style="font-size:24px;font-weight:bold;fill:#d2d2d2;font-family:Ubuntu Mono;-inkscape-font-specification:Ubuntu Mono Bold"
         id="path3888" />
    </g>
  </g>
</svg>
