<?xml version="1.0" encoding="UTF-8" standalone="no"?>
<!-- Created with Inkscape (http://www.inkscape.org/) -->

<svg
   xmlns:dc="http://purl.org/dc/elements/1.1/"
   xmlns:cc="http://creativecommons.org/ns#"
   xmlns:rdf="http://www.w3.org/1999/02/22-rdf-syntax-ns#"
   xmlns:svg="http://www.w3.org/2000/svg"
   xmlns="http://www.w3.org/2000/svg"
   xmlns:sodipodi="http://sodipodi.sourceforge.net/DTD/sodipodi-0.dtd"
   xmlns:inkscape="http://www.inkscape.org/namespaces/inkscape"
   width="28"
   height="32"
   id="svg2"
   version="1.1"
   inkscape:version="0.48.4 r9939"
   sodipodi:docname="btn_mic1.svg">
  <defs
     id="defs4" />
  <sodipodi:namedview
     id="base"
     pagecolor="#ffffff"
     bordercolor="#666666"
     borderopacity="1.0"
     inkscape:pageopacity="0.0"
     inkscape:pageshadow="2"
     inkscape:zoom="31.999999"
     inkscape:cx="17.56009"
     inkscape:cy="9.131454"
     inkscape:document-units="px"
     inkscape:current-layer="g3923"
     showgrid="false"
     inkscape:snap-page="true"
     inkscape:snap-bbox="true"
     inkscape:snap-bbox-midpoints="true"
     inkscape:snap-bbox-edge-midpoints="true"
     inkscape:bbox-nodes="true"
     inkscape:bbox-paths="true"
     inkscape:snap-object-midpoints="true"
     inkscape:object-nodes="true"
     inkscape:snap-smooth-nodes="true"
     inkscape:object-paths="true"
     showguides="true"
     inkscape:guide-bbox="true"
     inkscape:window-width="1366"
     inkscape:window-height="747"
     inkscape:window-x="0"
     inkscape:window-y="21"
     inkscape:window-maximized="1"
     inkscape:snap-global="true" />
  <metadata
     id="metadata7">
    <rdf:RDF>
      <cc:Work
         rdf:about="">
        <dc:format>image/svg+xml</dc:format>
        <dc:type
           rdf:resource="http://purl.org/dc/dcmitype/StillImage" />
        <dc:title />
      </cc:Work>
    </rdf:RDF>
  </metadata>
  <g
     transform="translate(0,-1020.3622)"
     id="g3923"
     inkscape:groupmode="layer"
     inkscape:label="OFF"
     style="display:inline">
    <g
       id="g2989"
       transform="translate(-88.571429,8.1332715)" />
    <g
       id="g3785"
       transform="matrix(0.51582577,0.23602201,-0.23602201,0.51582577,242.67325,503.6991)"
       style="fill:#939393;fill-opacity:1">
      <path
         inkscape:connector-curvature="0"
         id="path2994"
         d="m 18,1000.1524 c -4.336479,0 -7.84375,3.5072 -7.84375,7.8437 0,1.8238 0.613137,3.5109 1.65625,4.8438 l 12.375,0 c 1.043113,-1.3329 1.65625,-3.02 1.65625,-4.8438 0,-4.3365 -3.507271,-7.8437 -7.84375,-7.8437 z"
         style="fill:#939393;fill-opacity:1;fill-rule:nonzero;stroke:none" />
      <path
         inkscape:connector-curvature="0"
         id="path3024"
         d="m 12.53125,1013.9247 2.21875,33.7813 6.5,0 2.21875,-33.7813 -10.9375,0 z M 18,1017.5497 c 0.829921,0 1.5,0.669 1.5,1.5 l 0,5.0313 c 0,0.831 -0.670079,1.5 -1.5,1.5 -0.829921,0 -1.5,-0.669 -1.5,-1.5 l 0,-5.0313 c 0,-0.831 0.670079,-1.5 1.5,-1.5 z"
         style="fill:#939393;fill-opacity:1;fill-rule:nonzero;stroke:none;display:inline" />
    </g>
    <g
       style="font-size:14px;font-style:normal;font-variant:normal;font-weight:normal;font-stretch:normal;line-height:125%;letter-spacing:0px;word-spacing:0px;fill:#d2d2d2;fill-opacity:1;stroke:none;display:inline;font-family:Ubuntu;-inkscape-font-specification:Ubuntu"
       id="text3030">
      <g
         style="line-height:125%;fill:#d2d2d2;font-family:Ubuntu;-inkscape-font-specification:Ubuntu"
         id="text3999">
        <path
           d="m 20.408,1047.9142 0,-8.304 c -0.448005,0.32 -0.960005,0.608 -1.536,0.864 -0.576003,0.24 -1.064003,0.432 -1.464,0.576 l -0.96,-2.448 c 0.383998,-0.144 0.799998,-0.328 1.248,-0.552 0.447997,-0.224 0.895996,-0.472 1.344,-0.744 0.447995,-0.272 0.871995,-0.56 1.272,-0.864 0.399994,-0.304 0.743994,-0.616 1.032,-0.936 l 2.016,0 0,12.408 2.952,0 0,2.448 -9.024,0 0,-2.448 3.12,0"
           style="font-size:24px;font-weight:bold;fill:#d2d2d2;font-family:Ubuntu Mono;-inkscape-font-specification:Ubuntu Mono Bold"
           id="path4524" />
      </g>
    </g>
  </g>
</svg>
