<?xml version="1.0" encoding="UTF-8" standalone="no"?>
<!-- Created with Inkscape (http://www.inkscape.org/) -->

<svg
   xmlns:dc="http://purl.org/dc/elements/1.1/"
   xmlns:cc="http://creativecommons.org/ns#"
   xmlns:rdf="http://www.w3.org/1999/02/22-rdf-syntax-ns#"
   xmlns:svg="http://www.w3.org/2000/svg"
   xmlns="http://www.w3.org/2000/svg"
   xmlns:sodipodi="http://sodipodi.sourceforge.net/DTD/sodipodi-0.dtd"
   xmlns:inkscape="http://www.inkscape.org/namespaces/inkscape"
   width="28"
   height="32"
   id="svg2"
   version="1.1"
   inkscape:version="0.48.4 r9939"
   sodipodi:docname="btn_mic2.svg">
  <defs
     id="defs4" />
  <sodipodi:namedview
     id="base"
     pagecolor="#ffffff"
     bordercolor="#666666"
     borderopacity="1.0"
     inkscape:pageopacity="0.0"
     inkscape:pageshadow="2"
     inkscape:zoom="15.999999"
     inkscape:cx="11.304297"
     inkscape:cy="6.7368358"
     inkscape:document-units="px"
     inkscape:current-layer="g3923"
     showgrid="false"
     inkscape:snap-page="true"
     inkscape:snap-bbox="true"
     inkscape:snap-bbox-midpoints="true"
     inkscape:snap-bbox-edge-midpoints="true"
     inkscape:bbox-nodes="true"
     inkscape:bbox-paths="true"
     inkscape:snap-object-midpoints="true"
     inkscape:object-nodes="true"
     inkscape:snap-smooth-nodes="true"
     inkscape:object-paths="true"
     showguides="true"
     inkscape:guide-bbox="true"
     inkscape:window-width="1366"
     inkscape:window-height="747"
     inkscape:window-x="0"
     inkscape:window-y="21"
     inkscape:window-maximized="1"
     inkscape:snap-global="true" />
  <metadata
     id="metadata7">
    <rdf:RDF>
      <cc:Work
         rdf:about="">
        <dc:format>image/svg+xml</dc:format>
        <dc:type
           rdf:resource="http://purl.org/dc/dcmitype/StillImage" />
        <dc:title />
      </cc:Work>
    </rdf:RDF>
  </metadata>
  <g
     transform="translate(0,-1020.3622)"
     id="g3923"
     inkscape:groupmode="layer"
     inkscape:label="OFF"
     style="display:inline">
    <g
       id="g2989"
       transform="translate(-88.571429,8.1332715)" />
    <g
       id="g3785"
       transform="matrix(0.51582577,0.23602201,-0.23602201,0.51582577,242.67325,503.6991)"
       style="fill:#939393;fill-opacity:1">
      <path
         inkscape:connector-curvature="0"
         id="path2994"
         d="m 18,1000.1524 c -4.336479,0 -7.84375,3.5072 -7.84375,7.8437 0,1.8238 0.613137,3.5109 1.65625,4.8438 l 12.375,0 c 1.043113,-1.3329 1.65625,-3.02 1.65625,-4.8438 0,-4.3365 -3.507271,-7.8437 -7.84375,-7.8437 z"
         style="fill:#939393;fill-opacity:1;fill-rule:nonzero;stroke:none" />
      <path
         inkscape:connector-curvature="0"
         id="path3024"
         d="m 12.53125,1013.9247 2.21875,33.7813 6.5,0 2.21875,-33.7813 -10.9375,0 z M 18,1017.5497 c 0.829921,0 1.5,0.669 1.5,1.5 l 0,5.0313 c 0,0.831 -0.670079,1.5 -1.5,1.5 -0.829921,0 -1.5,-0.669 -1.5,-1.5 l 0,-5.0313 c 0,-0.831 0.670079,-1.5 1.5,-1.5 z"
         style="fill:#939393;fill-opacity:1;fill-rule:nonzero;stroke:none;display:inline" />
    </g>
    <g
       style="font-size:14px;font-style:normal;font-variant:normal;font-weight:normal;font-stretch:normal;line-height:125%;letter-spacing:0px;word-spacing:0px;fill:#d2d2d2;fill-opacity:1;stroke:none;display:inline;font-family:Ubuntu;-inkscape-font-specification:Ubuntu"
       id="text3030">
      <g
         style="line-height:125%;fill:#d2d2d2;display:inline;font-family:Ubuntu;-inkscape-font-specification:Ubuntu"
         id="text3999">
        <path
           d="m 25.712,1039.4182 c -1.1e-5,0.512 -0.09601,1.008 -0.288,1.488 -0.19201,0.464 -0.44801,0.92 -0.768,1.368 -0.32001,0.448 -0.680009,0.88 -1.08,1.296 -0.400008,0.416 -0.808008,0.816 -1.224,1.2 -0.208007,0.192 -0.448007,0.424 -0.72,0.696 -0.272007,0.256 -0.528006,0.528 -0.768,0.816 -0.240006,0.272 -0.448006,0.552 -0.624,0.84 -0.160005,0.288 -0.240005,0.552 -0.24,0.792 l 6.384,0 0,2.448 -9.696,0 c -0.048,-0.16 -0.072,-0.36 -0.072,-0.6 0.016,-0.24 0.024,-0.408 0.024,-0.504 -2e-6,-0.8 0.143998,-1.536 0.432,-2.208 0.303997,-0.672 0.679997,-1.288 1.128,-1.848 0.463996,-0.576 0.951996,-1.104 1.464,-1.584 0.527995,-0.496 1.015994,-0.968 1.464,-1.416 0.463993,-0.448 0.839993,-0.88 1.128,-1.296 0.303992,-0.416 0.455992,-0.84 0.456,-1.272 -8e-6,-0.608 -0.184008,-1.072 -0.552,-1.392 -0.368007,-0.336 -0.832007,-0.504 -1.392,-0.504 -0.464005,0 -0.952005,0.112 -1.464,0.336 -0.512004,0.224 -1.016003,0.6 -1.512,1.128 l -1.464,-2.064 c 0.639998,-0.672 1.375997,-1.168 2.208,-1.488 0.847995,-0.32 1.687995,-0.48 2.52,-0.48 0.607993,0 1.191993,0.088 1.752,0.264 0.559991,0.176 1.055991,0.44 1.488,0.792 0.43199,0.352 0.77599,0.8 1.032,1.344 0.255989,0.528 0.383989,1.144 0.384,1.848"
           style="font-size:24px;font-weight:bold;fill:#d2d2d2;font-family:Ubuntu Mono;-inkscape-font-specification:Ubuntu Mono Bold"
           id="path4536" />
      </g>
    </g>
  </g>
</svg>
