<?xml version="1.0" encoding="utf-8"?>
<!-- Generator: Adobe Illustrator 23.0.6, SVG Export Plug-In . SVG Version: 6.00 Build 0)  -->
<svg version="1.1" id="Capa_1" xmlns="http://www.w3.org/2000/svg" xmlns:xlink="http://www.w3.org/1999/xlink" x="0px" y="0px"
	 viewBox="0 0 56 300" style="enable-background:new 0 0 56 300;" xml:space="preserve">
<style type="text/css">
	.st0{fill:#FF3B37;}
	.st1{fill:#FFFFFF;}
</style>
<path class="st0" d="M28,0h2v300h-2V0z"/>
<circle class="st0" cx="29" cy="11" r="11"/>
<g>
	<path class="st1" d="M32.3,12.1c-0.1,0.9-0.4,1.6-1,2.1S30,15,29,15c-1,0-1.8-0.4-2.4-1.1s-0.9-1.7-0.9-2.9v-0.8
		c0-0.8,0.1-1.5,0.4-2.1s0.7-1.1,1.2-1.4s1.1-0.5,1.8-0.5c0.9,0,1.6,0.3,2.2,0.8s0.9,1.2,1,2.1h-1.1c-0.1-0.7-0.3-1.2-0.6-1.5
		s-0.8-0.5-1.4-0.5c-0.7,0-1.3,0.3-1.7,0.8c-0.4,0.5-0.6,1.3-0.6,2.3V11c0,0.9,0.2,1.7,0.6,2.2s0.9,0.8,1.6,0.8
		c0.6,0,1.1-0.1,1.4-0.4s0.6-0.8,0.7-1.5H32.3z"/>
</g>
</svg>
