<svg id="svg3248" width="63" height="7" version="1.1" xmlns="http://www.w3.org/2000/svg" xmlns:xlink="http://www.w3.org/1999/xlink"><defs id="defs3250"><linearGradient id="linearGradient5486-6" x1="46" x2="61" y1="1048.9" y2="1048.9" gradientUnits="userSpaceOnUse"><stop id="stop5482-5" stop-color="#e72904" offset="0"/><stop id="stop5484-3" stop-color="#9f250d" offset="1"/></linearGradient><linearGradient id="linearGradient5478-5" x1="26" x2="45" y1="1048.9" y2="1048.9" gradientUnits="userSpaceOnUse"><stop id="stop5474-2" stop-color="#b2cb08" offset="0"/><stop id="stop5476-9" stop-color="#d0f103" offset="1"/></linearGradient><linearGradient id="linearGradient6106" x1="2" x2="25" y1="1048.9" y2="1048.9" gradientUnits="userSpaceOnUse"><stop id="stop5444-7" stop-color="#127a12" offset="0"/><stop id="stop5446-0" stop-color="#08c408" offset="1"/></linearGradient></defs><g id="g5428" transform="translate(0 -1045.4)" fill="url(#linearGradient6106)"><rect id="use5308" x="2" y="1047.4" width="1" height="3" color="#000000"/><rect id="use5310" x="4" y="1047.4" width="1" height="3" color="#000000"/><rect id="use5312" x="6" y="1047.4" width="1" height="3" color="#000000"/><rect id="use5314" x="8" y="1047.4" width="1" height="3" color="#000000"/><rect id="use5316" x="10" y="1047.4" width="1" height="3" color="#000000"/><rect id="use5318" x="12" y="1047.4" width="1" height="3" color="#000000"/><rect id="use5320" x="14" y="1047.4" width="1" height="3" color="#000000"/><rect id="use5322" x="16" y="1047.4" width="1" height="3" color="#000000"/><rect id="use5324" x="18" y="1047.4" width="1" height="3" color="#000000"/><rect id="use5326" x="20" y="1047.4" width="1" height="3" color="#000000"/><rect id="use5328" x="22" y="1047.4" width="1" height="3" color="#000000"/><rect id="use5330" x="24" y="1047.4" width="1" height="3" color="#000000"/></g><g id="g5450" transform="translate(0 -1045.4)" fill="url(#linearGradient5478-5)"><rect id="use5332" x="26" y="1047.4" width="1" height="3" color="#000000"/><rect id="use5334" x="28" y="1047.4" width="1" height="3" color="#000000"/><rect id="use5336" x="30" y="1047.4" width="1" height="3" color="#000000"/><rect id="use5338" x="32" y="1047.4" width="1" height="3" color="#000000"/><rect id="use5340" x="34" y="1047.4" width="1" height="3" color="#000000"/><rect id="use5342" x="36" y="1047.4" width="1" height="3" color="#000000"/><rect id="use5344" x="38" y="1047.4" width="1" height="3" color="#000000"/><rect id="use5346" x="40" y="1047.4" width="1" height="3" color="#000000"/><rect id="use5348" x="42" y="1047.4" width="1" height="3" color="#000000"/><rect id="use5350" x="44" y="1047.4" width="1" height="3" color="#000000"/></g><g id="g5462" transform="translate(0 -1045.4)" fill="url(#linearGradient5486-6)"><rect id="use5352" x="46" y="1047.4" width="1" height="3" color="#000000"/><rect id="use5354" x="48" y="1047.4" width="1" height="3" color="#000000"/><rect id="use5356" x="50" y="1047.4" width="1" height="3" color="#000000"/><rect id="use5358" x="52" y="1047.4" width="1" height="3" color="#000000"/><rect id="use5360" x="54" y="1047.4" width="1" height="3" color="#000000"/><rect id="use5362" x="56" y="1047.4" width="1" height="3" color="#000000"/><rect id="use5364" x="58" y="1047.4" width="1" height="3" color="#000000"/><rect id="use5366" x="60" y="1047.4" width="1" height="3" color="#000000"/></g></svg>
