<svg id="svg2" width="160" height="40" version="1.1" xmlns="http://www.w3.org/2000/svg"><defs id="defs4"><clipPath id="z"><path id="path52" transform="translate(0 .028)" d="M 0,0 H 358.182 V 89.118 H 0 V 0 z"/></clipPath><linearGradient id="w" x1="74.993" x2="13.486" y1="-.1462" y2="88.767" gradientTransform="matrix(.4467 0 0 .4487 123.41 .013019)" gradientUnits="userSpaceOnUse"><stop id="stop7" stop-color="#39b549" offset=".478"/><stop id="stop9" stop-color="#1a76bc" offset="1"/></linearGradient><linearGradient id="x" x1="74.998" x2="13.488" y1="-.1501" y2="88.767" gradientTransform="matrix(.4467 0 0 .4487 68.726 .013019)" gradientUnits="userSpaceOnUse"><stop id="stop12" stop-color="#381f1f" offset="0"/><stop id="stop14" stop-color="#3a1f20" offset=".0017"/><stop id="stop16" stop-color="#5b2825" offset=".0376"/><stop id="stop18" stop-color="#7c2f28" offset=".0757"/><stop id="stop20" stop-color="#9b2e28" offset=".1173"/><stop id="stop22" stop-color="#b62c28" offset=".1626"/><stop id="stop24" stop-color="#cc2626" offset=".2129"/><stop id="stop26" stop-color="#dc2225" offset=".271"/><stop id="stop28" stop-color="#e81f25" offset=".3438"/><stop id="stop30" stop-color="#ed1b26" offset=".478"/><stop id="stop32" stop-color="#f7921e" offset="1"/></linearGradient><linearGradient id="y" x1="74.992" x2="13.485" y1="-.1471" y2="88.766" gradientTransform="matrix(.4467 0 0 .4487 96.071 .013019)" gradientUnits="userSpaceOnUse"><stop id="stop35" stop-color="#120e1e" offset="0"/><stop id="stop37" stop-color="#1b1426" offset=".0231"/><stop id="stop39" stop-color="#442349" offset=".1446"/><stop id="stop41" stop-color="#652866" offset=".2552"/><stop id="stop43" stop-color="#7c287b" offset=".3511"/><stop id="stop45" stop-color="#8b2589" offset=".4286"/><stop id="stop47" stop-color="#91268f" offset=".478"/><stop id="stop49" stop-color="#ed1b26" offset="1"/></linearGradient><linearGradient id="linearGradient8101" x2="0" y1=".028" y2="89.146" gradientUnits="userSpaceOnUse"><stop id="stop8095" stop-color="#ffd235" offset="0"/><stop id="stop8097" stop-color="#feb30a" offset="1"/></linearGradient></defs><path id="path197" d="m120.63 40 27.298-39.987h12.066l-27.293 39.987h-12.071z" fill="url(#w)"/><path id="path199" d="m65.946 40 27.296-39.987h12.073l-27.293 39.987h-12.076z" fill="url(#x)"/><path id="path201" d="m93.291 40 27.298-39.987h12.067l-27.294 39.987h-12.071z" fill="url(#y)"/><g id="g203" transform="matrix(.4467 0 0 .4487 0 .00032263)" clip-path="url(#z)" fill="url(#linearGradient8101)"><path id="path205" transform="translate(147.64 .028)" d="M 88.123,89.118 27.023,0 H 0 l 61.096,89.118 h 27.027 z"/><path id="path207" transform="translate(208.84 .028)" d="M 88.133,89.118 27.022,0 H 0 l 61.11,89.118 h 27.023 z"/><path id="path209" transform="translate(270.05 .028)" d="M 88.134,89.118 27.023,0 H 0 l 61.111,89.118 h 27.023 z"/><path id="path211" transform="translate(115.31 .028)" d="M 0,0 H 23.115 V 89.118 H 0 V 0 z" fill-rule="evenodd"/><path id="path213" transform="translate(0 .028)" d="m22.665 89.118v-52.188l29.276 44.438h0.597l29.58-44.89v52.64h22.969v-89.118h-24.916l-27.633 44.437-27.619-44.437h-24.919v89.118h22.665z"/></g></svg>
