<svg id="svg2" width="164" height="5" version="1.1" xmlns="http://www.w3.org/2000/svg"><g id="layer4"><rect id="use5185-3" width="164" height="5" color="#000000"/><g id="g11605" fill="#333"><rect id="use5185" x="1" width="1" height="5" color="#000000"/><rect id="use5187" x="3" width="1" height="5" color="#000000"/><rect id="use5189" x="5" width="1" height="5" color="#000000"/><rect id="use5191" x="7" width="1" height="5" color="#000000"/><rect id="use5193" x="9" width="1" height="5" color="#000000"/><rect id="use5195" x="11" width="1" height="5" color="#000000"/><rect id="use5197" x="13" width="1" height="5" color="#000000"/><rect id="use5199" x="15" width="1" height="5" color="#000000"/><rect id="use5201" x="17" width="1" height="5" color="#000000"/><rect id="use5203" x="19" width="1" height="5" color="#000000"/><rect id="use5205" x="21" width="1" height="5" color="#000000"/><rect id="use5207" x="23" width="1" height="5" color="#000000"/><rect id="use5209" x="25" width="1" height="5" color="#000000"/><rect id="use5211" x="27" width="1" height="5" color="#000000"/><rect id="use5213" x="29" width="1" height="5" color="#000000"/><rect id="use5215" x="31" width="1" height="5" color="#000000"/><rect id="use5217" x="33" width="1" height="5" color="#000000"/><rect id="use5219" x="35" width="1" height="5" color="#000000"/><rect id="use5221" x="37" width="1" height="5" color="#000000"/><rect id="use5223" x="39" width="1" height="5" color="#000000"/><rect id="use5225" x="41" width="1" height="5" color="#000000"/><rect id="use5227" x="43" width="1" height="5" color="#000000"/><rect id="use5229" x="45" width="1" height="5" color="#000000"/><rect id="use5231" x="47" width="1" height="5" color="#000000"/><rect id="use5233" x="49" width="1" height="5" color="#000000"/><rect id="use5235" x="51" width="1" height="5" color="#000000"/><rect id="use5237" x="53" width="1" height="5" color="#000000"/><rect id="use5239" x="55" width="1" height="5" color="#000000"/><rect id="use5241" x="57" width="1" height="5" color="#000000"/><rect id="use5243" x="59" width="1" height="5" color="#000000"/><rect id="use5245" x="61" width="1" height="5" color="#000000"/><rect id="use5247" x="63" width="1" height="5" color="#000000"/><rect id="use5249" x="65" width="1" height="5" color="#000000"/><rect id="use5251" x="67" width="1" height="5" color="#000000"/><rect id="use5253" x="69" width="1" height="5" color="#000000"/><rect id="use5255" x="71" width="1" height="5" color="#000000"/><rect id="use5257" x="73" width="1" height="5" color="#000000"/><rect id="use5259" x="75" width="1" height="5" color="#000000"/><rect id="use5261" x="77" width="1" height="5" color="#000000"/><rect id="use5263" x="79" width="1" height="5" color="#000000"/><rect id="use5265" x="81" width="1" height="5" color="#000000"/><rect id="use5267" x="83" width="1" height="5" color="#000000"/><rect id="use5269" x="85" width="1" height="5" color="#000000"/><rect id="use5271" x="87" width="1" height="5" color="#000000"/><rect id="use5273" x="89" width="1" height="5" color="#000000"/><rect id="use5275" x="91" width="1" height="5" color="#000000"/><rect id="use5277" x="93" width="1" height="5" color="#000000"/><rect id="use5279" x="95" width="1" height="5" color="#000000"/><rect id="use5281" x="97" width="1" height="5" color="#000000"/><rect id="use5283" x="99" width="1" height="5" color="#000000"/><rect id="use5285" x="101" width="1" height="5" color="#000000"/><rect id="use5287" x="103" width="1" height="5" color="#000000"/><rect id="use5289" x="105" width="1" height="5" color="#000000"/><rect id="use5291" x="107" width="1" height="5" color="#000000"/><rect id="use5293" x="109" width="1" height="5" color="#000000"/><rect id="use5295" x="111" width="1" height="5" color="#000000"/><rect id="use5297" x="113" width="1" height="5" color="#000000"/><rect id="use5299" x="115" width="1" height="5" color="#000000"/><rect id="use5301" x="117" width="1" height="5" color="#000000"/><rect id="use5303" x="119" width="1" height="5" color="#000000"/><rect id="use5305" x="121" width="1" height="5" color="#000000"/><rect id="use5307" x="123" width="1" height="5" color="#000000"/><rect id="use5309" x="125" width="1" height="5" color="#000000"/><rect id="use5311" x="127" width="1" height="5" color="#000000"/><rect id="use5313" x="129" width="1" height="5" color="#000000"/><rect id="use5315" x="131" width="1" height="5" color="#000000"/><rect id="use5317" x="133" width="1" height="5" color="#000000"/><rect id="use5319" x="135" width="1" height="5" color="#000000"/><rect id="use5321" x="137" width="1" height="5" color="#000000"/><rect id="use5323" x="139" width="1" height="5" color="#000000"/><rect id="use5325" x="141" width="1" height="5" color="#000000"/><rect id="use5327" x="143" width="1" height="5" color="#000000"/><rect id="use5329" x="145" width="1" height="5" color="#000000"/><rect id="use5331" x="147" width="1" height="5" color="#000000"/><rect id="use5333" x="149" width="1" height="5" color="#000000"/><rect id="use5335" x="151" width="1" height="5" color="#000000"/><rect id="use5337" x="153" width="1" height="5" color="#000000"/><rect id="use5339" x="155" width="1" height="5" color="#000000"/><rect id="use5341" x="157" width="1" height="5" color="#000000"/><rect id="use5343" x="159" width="1" height="5" color="#000000"/><rect id="use5345" x="161" width="1" height="5" color="#000000"/><rect id="use5347" x="163" width="1" height="5" color="#000000"/></g></g></svg>
