<?xml version="1.0" encoding="UTF-8"?>
<!-- Created with Inkscape (http://www.inkscape.org/) -->
<svg id="svg2" width="100" height="100" enable-background="new" version="1.1" xmlns="http://www.w3.org/2000/svg" xmlns:cc="http://creativecommons.org/ns#" xmlns:dc="http://purl.org/dc/elements/1.1/" xmlns:rdf="http://www.w3.org/1999/02/22-rdf-syntax-ns#" xmlns:xlink="http://www.w3.org/1999/xlink">
 <defs id="defs4">
  <radialGradient id="radialGradient3335" cx="50.003" cy="45.492" r="20.077" gradientTransform="matrix(1.0417 0 0 1.0417 -2.086 2.6121)" gradientUnits="userSpaceOnUse">
   <stop id="stop3863" stop-color="#eece33" offset="0"/>
   <stop id="stop3865" stop-color="#eece33" stop-opacity="0" offset="1"/>
  </radialGradient>
  <linearGradient id="linearGradient3338" x1="48.011" x2="47.827" y1=".070372" y2="24.407" gradientTransform="matrix(1.0026 0 0 1.0052 1.9567 1.9207)" gradientUnits="userSpaceOnUse">
   <stop id="stop3853" stop-color="#eece33" offset="0"/>
   <stop id="stop3855" stop-color="#eece33" stop-opacity="0" offset="1"/>
  </linearGradient>
 </defs>
 <metadata id="metadata7">
  <rdf:RDF>
   <cc:Work rdf:about="">
    <dc:format>image/svg+xml</dc:format>
    <dc:type rdf:resource="http://purl.org/dc/dcmitype/StillImage"/>
    <dc:title/>
   </cc:Work>
  </rdf:RDF>
 </metadata>
 <g id="layer1" transform="translate(0 -952.36)" display="none">
  <image id="image3047" y="956.36" width="96" height="96"/>
 </g>
 <g id="layer4" transform="translate(0,4)" display="none">
  <rect id="rect4304" y="-8.8818e-16" width="96" height="96" fill="#2f290a"/>
 </g>
 <path id="path3849" d="m97.917 50a47.917 47.917 0 1 1-95.833 0 47.917 47.917 0 1 1 95.833 0z" fill="url(#linearGradient3338)" opacity=".4"/>
 <path id="path3859" d="m70.913 50a20.913 20.913 0 0 1-41.827 0 20.913 20.913 0 1 1 41.827 0z" fill="url(#radialGradient3335)" opacity=".4"/>
 <path id="path3830" d="m54.167 50a4.1667 4.1667 0 0 1-8.3333 0 4.1667 4.1667 0 1 1 8.3333 0z"/>
 <g id="layer3" transform="translate(0,4)" display="none" opacity=".96">
  <path id="rect3776" d="m46 3.7264c-0.03097-0.89288 0.54507-1.7769 1.9369-1.735 1.3919 0.041912 2.0266 0.68398 2.0473 1.7508l0.015784 39.059c0 0.68163-1.2877 1.1128-2.0493 1.1049-0.76163-0.007952-1.9349-0.45772-1.9507-1.1049z" fill="#fff"/>
 </g>
 <path id="rect3033" d="m0 0v100h100v-100zm50 3.125c12.259 0 24.47 5.0688 33.138 13.737 8.6682 8.6682 13.737 20.879 13.737 33.138s-5.0688 24.47-13.737 33.138l-0.09766 0.09766c-8.6622 8.6087-20.828 13.639-33.04 13.639-12.259 0-24.47-5.0688-33.138-13.737l-0.09766-0.09766c-8.6087-8.6622-13.639-20.828-13.639-33.04 0-12.259 5.0688-24.47 13.737-33.138 8.6682-8.6682 20.879-13.737 33.138-13.737z" color="#000000" enable-background="accumulate" fill="#1e1e1e"/>
 <path id="path4919" d="m96.875 50a46.875 46.875 0 0 1-93.75 0 46.875 46.875 0 1 1 93.75 0z" enable-background="new" fill="none" stroke="#000"/>
</svg>
