<?xml version="1.0" encoding="UTF-8" standalone="no"?>
<!-- Created with Inkscape (http://www.inkscape.org/) -->
<svg id="svg2" xmlns:rdf="http://www.w3.org/1999/02/22-rdf-syntax-ns#" style="enable-background:new;" xmlns="http://www.w3.org/2000/svg" height="96" width="96" version="1.1" xmlns:cc="http://creativecommons.org/ns#" xmlns:xlink="http://www.w3.org/1999/xlink" xmlns:dc="http://purl.org/dc/elements/1.1/">
 <defs id="defs4">
  <linearGradient id="linearGradient3857" y2="24.41" gradientUnits="userSpaceOnUse" x2="47.83" y1="0.07037" x1="48.01">
   <stop id="stop3853" stop-color="#eece33" offset="0"/>
   <stop id="stop3855" stop-color="#eece33" stop-opacity="0" offset="1"/>
  </linearGradient>
  <radialGradient id="radialGradient3867" gradientUnits="userSpaceOnUse" cy="45.49" cx="50" r="20.08">
   <stop id="stop3863" stop-color="#eece33" offset="0"/>
   <stop id="stop3865" stop-color="#eece33" stop-opacity="0" offset="1"/>
  </radialGradient>
 </defs>
 <metadata id="metadata7">
  <rdf:RDF>
   <cc:Work rdf:about="">
    <dc:format>image/svg+xml</dc:format>
    <dc:type rdf:resource="http://purl.org/dc/dcmitype/StillImage"/>
    <dc:title/>
   </cc:Work>
  </rdf:RDF>
 </metadata>
 <g id="layer1" display="none" transform="translate(0,-956.36218)">
 </g>
 <g id="layer2" fill-rule="nonzero" display="none">
  <path id="path3849" opacity="0.4" d="m95.71,47.83a47.79,47.67,0,1,1,-95.59,0,47.79,47.67,0,1,1,95.59,0z" transform="matrix(0.96248721,0,0,0.96503687,1.8784665,1.8438788)" fill="url(#linearGradient3857)"/>
  <path id="path3859" opacity="0.4" d="m70.08,45.49a20.08,20.08,0,1,1,-40.15,0,20.08,20.08,0,1,1,40.15,0z" transform="translate(-2.002552,2.5076256)" fill="url(#radialGradient3867)"/>
  <path id="path3830" d="m53.03,48.02a4.293,4.293,0,1,1,-8.586,0,4.293,4.293,0,1,1,8.586,0z" transform="matrix(0.93171713,0,0,0.93171713,2.588237,3.2610364)" fill="#000"/>
  <path id="rect3842" fill="#0e0e0e" d="M0,0,0,96,96,96,96,0,0,0zm48,2c25.41,0,46,20.59,46,46s-20.59,46-46,46-46-20.59-46-46,20.59-46,46-46z"/>
 </g>
 <g id="layer3" opacity="0.95999995" display="none">
  <path id="rect3776" fill-rule="nonzero" fill="#FFF" d="M46,3.726c-0.03-0.892,0.55-1.776,1.94-1.735,1.39,0.042,2.02,0.684,2.04,1.751l0.02,39.06c0,0.68-1.29,1.11-2.05,1.11-0.76-0.01-1.93-0.46-1.95-1.11z"/>
 </g>
 <rect id="rect3001" style="enable-background:accumulate;color:#000000;" fill-rule="nonzero" height="96" width="96" y="0" x="0" fill="#1e1e1e"/>
</svg>
