<svg width="100" height="100" version="1.1" xmlns="http://www.w3.org/2000/svg">
	<g shape-rendering="auto">
		<path d="m49.162614 1.8229599c-3.029623 0-5.492824 1.9481468-5.492824 4.3442773v33.1307658c0 2.39613 2.463201 4.344278 5.492824 4.344278h1.675368c3.029624 0 5.492825-1.948148 5.492825-4.344278v-33.1307658c0-2.3961305-2.463201-4.3442773-5.492825-4.3442773z" color="#000000" color-rendering="auto" dominant-baseline="auto" fill-opacity=".62745098" image-rendering="auto" solid-color="#000000" style="font-feature-settings:normal;font-variant-alternates:normal;font-variant-caps:normal;font-variant-ligatures:normal;font-variant-numeric:normal;font-variant-position:normal;isolation:auto;mix-blend-mode:normal;shape-padding:0;text-decoration-color:#000000;text-decoration-line:none;text-decoration-style:solid;text-indent:0;text-orientation:mixed;text-transform:none;white-space:normal"/>
		<path d="m49.40792 4.1127163c-2.142434 0-3.884316 1.6308178-3.884316 3.6366484v30.6021043c0 2.005831 1.741882 3.636648 3.884316 3.636648h1.184757c2.142434 0 3.884316-1.630817 3.884316-3.636648v-30.6021043c0-2.0058306-1.741882-3.6366484-3.884316-3.6366484z" color="#000000" color-rendering="auto" dominant-baseline="auto" fill-opacity=".62745098" image-rendering="auto" solid-color="#000000" style="font-feature-settings:normal;font-variant-alternates:normal;font-variant-caps:normal;font-variant-ligatures:normal;font-variant-numeric:normal;font-variant-position:normal;isolation:auto;mix-blend-mode:normal;shape-padding:0;text-decoration-color:#000000;text-decoration-line:none;text-decoration-style:solid;text-indent:0;text-orientation:mixed;text-transform:none;white-space:normal"/>
		<path d="m49.568 5.596075h.86471c1.1515 0 2.0676 1.0929 2.0676 2.4665v29.851136c0 1.3737-.91612 2.4665-2.0676 2.4665h-.86471c-1.1515 0-2.0676-1.0929-2.0676-2.4665v-29.851136c0-1.3737.91612-2.4665 2.0676-2.4665z" color="#000000" color-rendering="auto" dominant-baseline="auto" fill="none" image-rendering="auto" solid-color="#000000" stroke="#000" style="font-feature-settings:normal;font-variant-alternates:normal;font-variant-caps:normal;font-variant-ligatures:normal;font-variant-numeric:normal;font-variant-position:normal;isolation:auto;mix-blend-mode:normal;shape-padding:0;text-decoration-color:#000000;text-decoration-line:none;text-decoration-style:solid;text-indent:0;text-orientation:mixed;text-transform:none;white-space:normal"/>
		<path d="m49.568 5.5960752h.86471c1.1515 0 2.0676 1.0929 2.0676 2.4665v29.8511358c0 1.3737-.91612 2.4665-2.0676 2.4665h-.86471c-1.1515 0-2.0676-1.0929-2.0676-2.4665v-29.8511358c0-1.3737.91612-2.4665 2.0676-2.4665z" color="#000000" color-rendering="auto" dominant-baseline="auto" fill="#fff" image-rendering="auto" solid-color="#000000" style="font-feature-settings:normal;font-variant-alternates:normal;font-variant-caps:normal;font-variant-ligatures:normal;font-variant-numeric:normal;font-variant-position:normal;isolation:auto;mix-blend-mode:normal;shape-padding:0;text-decoration-color:#000000;text-decoration-line:none;text-decoration-style:solid;text-indent:0;text-orientation:mixed;text-transform:none;white-space:normal"/>
	</g>
</svg>
