<?xml version="1.0" encoding="UTF-8" standalone="no"?>
<svg
   xmlns:dc="http://purl.org/dc/elements/1.1/"
   xmlns:cc="http://creativecommons.org/ns#"
   xmlns:rdf="http://www.w3.org/1999/02/22-rdf-syntax-ns#"
   xmlns:svg="http://www.w3.org/2000/svg"
   xmlns="http://www.w3.org/2000/svg"
   version="1.1"
   height="100"
   width="100"
   id="svg2">
  <metadata
     id="metadata9">
    <rdf:RDF>
      <cc:Work
         rdf:about="">
        <dc:format>image/svg+xml</dc:format>
        <dc:type
           rdf:resource="http://purl.org/dc/dcmitype/StillImage" />
        <dc:title></dc:title>
      </cc:Work>
    </rdf:RDF>
  </metadata>
  <defs
     id="defs7" />
  <path
     style="color:#000000;font-variant-ligatures:normal;font-variant-position:normal;font-variant-caps:normal;font-variant-numeric:normal;font-variant-alternates:normal;font-feature-settings:normal;text-indent:0;text-decoration:none;text-decoration-line:none;text-decoration-style:solid;text-decoration-color:#000000;text-transform:none;text-orientation:mixed;dominant-baseline:auto;white-space:normal;shape-padding:0;isolation:auto;mix-blend-mode:normal;solid-color:#000000;color-rendering:auto;image-rendering:auto;shape-rendering:auto"
     dominant-baseline="auto"
     d="m 49.471,4.0067844 c -1.9143,0 -3.4707,1.5564 -3.4707,3.4707 l 0,30.7221356 c 0,1.9143 1.5564,3.4707 3.4707,3.4707 h 1.0586 c 1.9143,0 3.4707,-1.5564 3.4707,-3.4707 l 0,-30.7221356 c 0,-1.9143 -1.5564,-3.4707 -3.4707,-3.4707 z"
     id="path5574" />
  <path
     style="color:#000000;font-variant-ligatures:normal;font-variant-position:normal;font-variant-caps:normal;font-variant-numeric:normal;font-variant-alternates:normal;font-feature-settings:normal;text-indent:0;text-decoration:none;text-decoration-line:none;text-decoration-style:solid;text-decoration-color:#000000;text-transform:none;text-orientation:mixed;dominant-baseline:auto;white-space:normal;shape-padding:0;isolation:auto;mix-blend-mode:normal;solid-color:#000000;fill:#ffffff;color-rendering:auto;image-rendering:auto;shape-rendering:auto"
     dominant-baseline="auto"
     d="m 49.568,5.4462644 h 0.86471 c 1.1515,0 2.0676,1.0929 2.0676,2.4665 l 0,29.8511356 c 0,1.3737 -0.91612,2.4665 -2.0676,2.4665 H 49.568 c -1.1515,0 -2.0676,-1.0929 -2.0676,-2.4665 l 0,-29.8511356 c 0,-1.3737 0.91612,-2.4665 2.0676,-2.4665 z"
     id="rect4544" />
</svg>
