<?xml version="1.0" encoding="UTF-8" standalone="no"?>
<svg
   xmlns:dc="http://purl.org/dc/elements/1.1/"
   xmlns:cc="http://creativecommons.org/ns#"
   xmlns:rdf="http://www.w3.org/1999/02/22-rdf-syntax-ns#"
   xmlns:svg="http://www.w3.org/2000/svg"
   xmlns="http://www.w3.org/2000/svg"
   enable-background="new"
   version="1.1"
   height="100"
   width="100"
   id="svg2">
  <metadata
     id="metadata17">
    <rdf:RDF>
      <cc:Work
         rdf:about="">
        <dc:format>image/svg+xml</dc:format>
        <dc:type
           rdf:resource="http://purl.org/dc/dcmitype/StillImage" />
        <dc:title></dc:title>
      </cc:Work>
    </rdf:RDF>
  </metadata>
  <defs
     id="defs4">
    <radialGradient
       gradientUnits="userSpaceOnUse"
       gradientTransform="matrix(1.0417 0 0 1.0417 -2.086 2.6121)"
       r="20.077"
       cy="45.492"
       cx="50.003"
       id="radialGradient3335">
      <stop
         offset="0"
         stop-color="#eece33"
         id="stop3863" />
      <stop
         offset="1"
         stop-opacity="0"
         stop-color="#eece33"
         id="stop3865" />
    </radialGradient>
    <linearGradient
       gradientUnits="userSpaceOnUse"
       gradientTransform="matrix(1.0026 0 0 1.0052 1.9567 1.9207)"
       y2="24.407"
       y1=".070372"
       x2="47.827"
       x1="48.011"
       id="linearGradient3338">
      <stop
         offset="0"
         stop-color="#eece33"
         id="stop3853" />
      <stop
         offset="1"
         stop-opacity="0"
         stop-color="#eece33"
         id="stop3855" />
    </linearGradient>
  </defs>
  <path
     opacity=".4"
     fill="url(#linearGradient3338)"
     d="m97.917 50a47.917 47.917 0 1 1-95.833 0 47.917 47.917 0 1 1 95.833 0z"
     id="path3849" />
  <path
     opacity=".4"
     fill="url(#radialGradient3335)"
     d="m70.913 50a20.913 20.913 0 0 1-41.827 0 20.913 20.913 0 1 1 41.827 0z"
     id="path3859" />
  <path
     d="m54.167 50a4.1667 4.1667 0 0 1-8.3333 0 4.1667 4.1667 0 1 1 8.3333 0z"
     id="path3830" />
  <path
     color="#000000"
     fill="#1e1e1e"
     enable-background="accumulate"
     d="m0 0v100h100v-100zm50 3.125c12.259 0 24.47 5.0688 33.138 13.737 8.6682 8.6682 13.737 20.879 13.737 33.138s-5.0688 24.47-13.737 33.138l-0.09766 0.09766c-8.6622 8.6087-20.828 13.639-33.04 13.639-12.259 0-24.47-5.0688-33.138-13.737l-0.09766-0.09766c-8.6087-8.6622-13.639-20.828-13.639-33.04 0-12.259 5.0688-24.47 13.737-33.138 8.6682-8.6682 20.879-13.737 33.138-13.737z"
     id="rect3033" />
  <path
     fill="none"
     stroke="#000"
     enable-background="new"
     d="m96.875 50a46.875 46.875 0 0 1-93.75 0 46.875 46.875 0 1 1 93.75 0z"
     id="path4919" />
</svg>
