<svg xmlns:rdf="http://www.w3.org/1999/02/22-rdf-syntax-ns#" style="enable-background:new" xmlns="http://www.w3.org/2000/svg" height="96" width="96" version="1.1" xmlns:cc="http://creativecommons.org/ns#" xmlns:dc="http://purl.org/dc/elements/1.1/">
 <defs>
  <linearGradient id="linearGradient3857" y2="24.41" gradientUnits="userSpaceOnUse" y1=".07037" x2="47.83" x1="48.01">
   <stop stop-color="#eece33" offset="0"/>
   <stop stop-color="#eece33" stop-opacity="0" offset="1"/>
  </linearGradient>
  <radialGradient id="radialGradient3867" gradientUnits="userSpaceOnUse" cy="45.49" cx="50" r="20.08">
   <stop stop-color="#eece33" offset="0"/>
   <stop stop-color="#eece33" stop-opacity="0" offset="1"/>
  </radialGradient>
 </defs>
 <g display="none">
  <path opacity=".4" transform="matrix(.9625 0 0 .9650 1.878 1.844)" fill="url(#linearGradient3857)" d="m95.71 47.83a47.79 47.67 0 1 1 -95.59 0 47.79 47.67 0 1 1 95.59 0z"/>
  <path opacity=".4" transform="translate(-2.003 2.508)" fill="url(#radialGradient3867)" d="m70.08 45.49a20.08 20.08 0 1 1 -40.15 0 20.08 20.08 0 1 1 40.15 0z"/>
  <path transform="matrix(.9317 0 0 .9317 2.588 3.261)" d="m53.03 48.02a4.293 4.293 0 1 1 -8.586 0 4.293 4.293 0 1 1 8.586 0z"/>
  <path d="m0 0v96h96v-96h-96zm48 2c25.41 0 46 20.59 46 46s-20.59 46-46 46-46-20.59-46-46 20.59-46 46-46z" fill="#0e0e0e"/>
 </g>
 <g opacity="0.96" display="none">
  <path d="m46 3.726c-0.03-0.892 0.55-1.776 1.94-1.735 1.39 0.042 2.02 0.684 2.04 1.751l0.02 39.06c0 0.68-1.29 1.11-2.05 1.11-0.76-0.01-1.93-0.46-1.95-1.11z" fill="#FFF"/>
 </g>
 <rect style="color:#000000;enable-background:accumulate" height="96" width="96" y="-2.057e-7" x="0" fill="#020202"/>
</svg>
