<?xml version="1.0" encoding="UTF-8"?>
<svg width="96" height="96" enable-background="new" version="1.1" xmlns="http://www.w3.org/2000/svg">
 <defs>
  <linearGradient id="linearGradient3857" x1="48.01" x2="47.83" y1=".07037" y2="24.41" gradientUnits="userSpaceOnUse">
   <stop stop-color="#eece33" offset="0"/>
   <stop stop-color="#eece33" stop-opacity="0" offset="1"/>
  </linearGradient>
  <radialGradient id="radialGradient3867" cx="50" cy="45.49" r="20.08" gradientUnits="userSpaceOnUse">
   <stop stop-color="#eece33" offset="0"/>
   <stop stop-color="#eece33" stop-opacity="0" offset="1"/>
  </radialGradient>
 </defs>
 <g display="none">
  <path transform="matrix(.9625 0 0 .965 1.878 1.844)" d="m95.71 47.83a47.79 47.67 0 1 1-95.59 0 47.79 47.67 0 1 1 95.59 0z" fill="url(#linearGradient3857)" opacity=".4"/>
  <path transform="translate(-2.003 2.508)" d="m70.08 45.49a20.08 20.08 0 1 1-40.15 0 20.08 20.08 0 1 1 40.15 0z" fill="url(#radialGradient3867)" opacity=".4"/>
  <path transform="matrix(.9317 0 0 .9317 2.588 3.261)" d="m53.03 48.02a4.293 4.293 0 1 1-8.586 0 4.293 4.293 0 1 1 8.586 0z"/>
  <path d="m0 0v96h96v-96h-96zm48 2c25.41 0 46 20.59 46 46s-20.59 46-46 46-46-20.59-46-46 20.59-46 46-46z" fill="#0e0e0e"/>
 </g>
 <g display="none" opacity=".96">
  <path d="m46 3.726c-0.03-0.892 0.55-1.776 1.94-1.735 1.39 0.042 2.02 0.684 2.04 1.751l0.02 39.06c0 0.68-1.29 1.11-2.05 1.11-0.76-0.01-1.93-0.46-1.95-1.11z" fill="#FFF"/>
 </g>
 <rect y="-2.057e-7" width="96" height="96" color="#000000" enable-background="accumulate" fill="#020202"/>
</svg>
