<?xml version="1.0" encoding="UTF-8"?>
<!-- Created with Inkscape (http://www.inkscape.org/) -->
<svg id="svg2" width="100" height="100" version="1.1" xmlns="http://www.w3.org/2000/svg" xmlns:cc="http://creativecommons.org/ns#" xmlns:dc="http://purl.org/dc/elements/1.1/" xmlns:rdf="http://www.w3.org/1999/02/22-rdf-syntax-ns#" xmlns:xlink="http://www.w3.org/1999/xlink">
 <defs id="defs4">
  <linearGradient id="linearGradient3857" x1="48.011" x2="47.827" y1=".070372" y2="24.407" gradientUnits="userSpaceOnUse">
   <stop id="stop3853" stop-color="#09b2ae" offset="0"/>
   <stop id="stop3855" stop-color="#09b2ae" stop-opacity="0" offset="1"/>
  </linearGradient>
  <radialGradient id="radialGradient3867" cx="50.003" cy="45.492" r="20.077" gradientUnits="userSpaceOnUse">
   <stop id="stop3863" stop-color="#09b2ae" offset="0"/>
   <stop id="stop3865" stop-color="#09b2ae" stop-opacity="0" offset="1"/>
  </radialGradient>
 </defs>
 <metadata id="metadata7">
  <rdf:RDF>
   <cc:Work rdf:about="">
    <dc:format>image/svg+xml</dc:format>
    <dc:type rdf:resource="http://purl.org/dc/dcmitype/StillImage"/>
    <dc:title/>
   </cc:Work>
  </rdf:RDF>
 </metadata>
 <g id="layer1" transform="translate(0 -952.36)" display="none">
  <image id="image3047" y="956.36" width="96" height="96"/>
 </g>
 <g id="layer2" transform="translate(0,4)" display="none">
  <path id="path3859" transform="translate(-2.0026 2.5076)" d="m70.079 45.492a20.077 20.077 0 1 1-40.154 0 20.077 20.077 0 1 1 40.154 0z" fill="url(#radialGradient3867)" opacity=".94"/>
  <path id="path3830" transform="matrix(.93172 0 0 .93172 2.5882 3.261)" d="m53.033 48.018a4.2931 4.2931 0 1 1-8.5863 0 4.2931 4.2931 0 1 1 8.5863 0z" opacity=".94"/>
  <path id="rect3842" d="m0 0v96h96v-96zm48 2c25.405 0 46 20.595 46 46 0 25.405-20.595 46-46 46-25.405 0-46-20.595-46-46 0-25.405 20.595-46 46-46z" opacity=".94"/>
  <path id="path3849" transform="matrix(.96249 0 0 .96504 1.8785 1.8439)" d="m95.712 47.828a47.793 47.667 0 1 1-95.586 0 47.793 47.667 0 1 1 95.586 0z" fill="url(#linearGradient3857)" opacity=".94"/>
 </g>
 <path id="path5574" d="m49.471 0.66992c-1.9143 0-3.4707 1.5564-3.4707 3.4707v34.059c0 1.9143 1.5564 3.4707 3.4707 3.4707h1.0586c1.9143 0 3.4707-1.5564 3.4707-3.4707v-34.059c0-1.9143-1.5564-3.4707-3.4707-3.4707z" color="#000000" color-rendering="auto" dominant-baseline="auto" image-rendering="auto" shape-rendering="auto" solid-color="#000000" style="font-feature-settings:normal;font-variant-alternates:normal;font-variant-caps:normal;font-variant-ligatures:normal;font-variant-numeric:normal;font-variant-position:normal;isolation:auto;mix-blend-mode:normal;shape-padding:0;text-decoration-color:#000000;text-decoration-line:none;text-decoration-style:solid;text-indent:0;text-orientation:mixed;text-transform:none;white-space:normal"/>
 <path id="rect4544" d="m49.568 2.1094h0.86471c1.1515 0 2.0676 1.0929 2.0676 2.4665v33.188c0 1.3737-0.91612 2.4665-2.0676 2.4665h-0.86471c-1.1515 0-2.0676-1.0929-2.0676-2.4665v-33.188c0-1.3737 0.91612-2.4665 2.0676-2.4665z" color="#000000" color-rendering="auto" dominant-baseline="auto" fill="#fff" image-rendering="auto" shape-rendering="auto" solid-color="#000000" style="font-feature-settings:normal;font-variant-alternates:normal;font-variant-caps:normal;font-variant-ligatures:normal;font-variant-numeric:normal;font-variant-position:normal;isolation:auto;mix-blend-mode:normal;shape-padding:0;text-decoration-color:#000000;text-decoration-line:none;text-decoration-style:solid;text-indent:0;text-orientation:mixed;text-transform:none;white-space:normal"/>
</svg>
