<svg id="svg2" width="100" height="100" version="1.1" xmlns="http://www.w3.org/2000/svg"><path id="path5574" d="m49.471 0.66992c-1.9143 0-3.4707 1.5564-3.4707 3.4707v34.059c0 1.9143 1.5564 3.4707 3.4707 3.4707h1.0586c1.9143 0 3.4707-1.5564 3.4707-3.4707v-34.059c0-1.9143-1.5564-3.4707-3.4707-3.4707z" color="#000000" color-rendering="auto" dominant-baseline="auto" image-rendering="auto" shape-rendering="auto" solid-color="#000000" style="font-feature-settings:normal;font-variant-alternates:normal;font-variant-caps:normal;font-variant-ligatures:normal;font-variant-numeric:normal;font-variant-position:normal;isolation:auto;mix-blend-mode:normal;shape-padding:0;text-decoration-color:#000000;text-decoration-line:none;text-decoration-style:solid;text-indent:0;text-orientation:mixed;text-transform:none;white-space:normal"/><path id="rect4544" d="m49.568 2.1094h0.86471c1.1515 0 2.0676 1.0929 2.0676 2.4665v33.188c0 1.3737-0.91612 2.4665-2.0676 2.4665h-0.86471c-1.1515 0-2.0676-1.0929-2.0676-2.4665v-33.188c0-1.3737 0.91612-2.4665 2.0676-2.4665z" color="#000000" color-rendering="auto" dominant-baseline="auto" fill="#fff" image-rendering="auto" shape-rendering="auto" solid-color="#000000" style="font-feature-settings:normal;font-variant-alternates:normal;font-variant-caps:normal;font-variant-ligatures:normal;font-variant-numeric:normal;font-variant-position:normal;isolation:auto;mix-blend-mode:normal;shape-padding:0;text-decoration-color:#000000;text-decoration-line:none;text-decoration-style:solid;text-indent:0;text-orientation:mixed;text-transform:none;white-space:normal"/></svg>
