<?xml version="1.0" encoding="UTF-8" standalone="no"?>
<!-- Created with Inkscape (http://www.inkscape.org/) -->

<svg
   xmlns:dc="http://purl.org/dc/elements/1.1/"
   xmlns:cc="http://creativecommons.org/ns#"
   xmlns:rdf="http://www.w3.org/1999/02/22-rdf-syntax-ns#"
   xmlns:svg="http://www.w3.org/2000/svg"
   xmlns="http://www.w3.org/2000/svg"
   xmlns:xlink="http://www.w3.org/1999/xlink"
   version="1.1"
   width="50"
   height="50"
   id="svg2">
  <defs
     id="defs4">
    <linearGradient
       id="linearGradient3861">
      <stop
         id="stop3863"
         style="stop-color:#09b2ae;stop-opacity:1"
         offset="0" />
      <stop
         id="stop3865"
         style="stop-color:#09b2ae;stop-opacity:0"
         offset="1" />
    </linearGradient>
    <linearGradient
       id="linearGradient3851">
      <stop
         id="stop3853"
         style="stop-color:#09b2ae;stop-opacity:1"
         offset="0" />
      <stop
         id="stop3855"
         style="stop-color:#09b2ae;stop-opacity:0"
         offset="1" />
    </linearGradient>
    <linearGradient
       x1="48.010761"
       y1="0.07037171"
       x2="47.827461"
       y2="24.407314"
       id="linearGradient3857"
       xlink:href="#linearGradient3851"
       gradientUnits="userSpaceOnUse" />
    <radialGradient
       cx="50.002552"
       cy="45.492374"
       r="20.076782"
       fx="50.002552"
       fy="45.492374"
       id="radialGradient3867"
       xlink:href="#linearGradient3861"
       gradientUnits="userSpaceOnUse" />
  </defs>
  <metadata
     id="metadata7">
    <rdf:RDF>
      <cc:Work
         rdf:about="">
        <dc:format>image/svg+xml</dc:format>
        <dc:type
           rdf:resource="http://purl.org/dc/dcmitype/StillImage" />
        <dc:title></dc:title>
      </cc:Work>
    </rdf:RDF>
  </metadata>
  <g
     transform="translate(0,-1002.3622)"
     id="layer1"
     style="display:none">
    <image
       x="0"
       y="956.36218"
       width="96"
       height="96"
       id="image3047" />
  </g>
  <g
     transform="translate(0,-46)"
     id="layer2"
     style="display:none">
    <path
       d="m 70.079334,45.492374 a 20.076782,20.076782 0 1 1 -40.153564,0 20.076782,20.076782 0 1 1 40.153564,0 z"
       transform="translate(-2.002552,2.5076256)"
       id="path3859"
       style="opacity:0.94000005;fill:url(#radialGradient3867);fill-opacity:1;fill-rule:nonzero;stroke:none" />
    <path
       d="m 53.033009,48.017754 a 4.2931485,4.2931485 0 1 1 -8.586297,0 4.2931485,4.2931485 0 1 1 8.586297,0 z"
       transform="matrix(0.93171713,0,0,0.93171713,2.588237,3.2610364)"
       id="path3830"
       style="opacity:0.94000005;fill:#000000;fill-opacity:1;fill-rule:nonzero;stroke:none" />
    <path
       d="M 0,0 0,96 96,96 96,0 0,0 z M 48,2 C 73.405099,2 94,22.594902 94,48 94,73.405099 73.405099,94 48,94 22.594902,94 2,73.405099 2,48 2,22.594902 22.594902,2 48,2 z"
       id="rect3842"
       style="opacity:0.94000005;fill:#000000;fill-opacity:1;fill-rule:nonzero;stroke:none" />
    <path
       d="m 95.711956,47.82835 a 47.792843,47.666573 0 1 1 -95.58568571,0 47.792843,47.666573 0 1 1 95.58568571,0 z"
       transform="matrix(0.96248721,0,0,0.96503687,1.8784665,1.8438788)"
       id="path3849"
       style="opacity:0.94000005;fill:url(#linearGradient3857);fill-opacity:1;fill-rule:nonzero;stroke:none" />
  </g>
  <g
     transform="translate(0,-46)"
     id="layer3"
     style="opacity:0.95999995;display:inline">
    <path
       d="m 23.001222,48.697921 c -0.03093,-0.434177 0.522895,-1.426009 1.9364,-1.428654 1.413499,-0.0026 2.026058,0.917569 2.046706,1.436329 L 27,66.473726 c 0,0.331453 -0.799414,1.183391 -2.048749,1.177046 -1.24934,-0.0063 -1.934359,-0.862368 -1.950141,-1.177046 z"
       id="rect3776"
       style="fill:#ffffff;fill-opacity:1;fill-rule:nonzero;stroke:#0e0e0e;stroke-width:1;stroke-miterlimit:4;stroke-opacity:1;stroke-dasharray:none" />
  </g>
</svg>
