<?xml version="1.0" encoding="UTF-8" standalone="no"?>
<!-- Created with Inkscape (http://www.inkscape.org/) -->

<svg
   xmlns:dc="http://purl.org/dc/elements/1.1/"
   xmlns:cc="http://creativecommons.org/ns#"
   xmlns:rdf="http://www.w3.org/1999/02/22-rdf-syntax-ns#"
   xmlns:svg="http://www.w3.org/2000/svg"
   xmlns="http://www.w3.org/2000/svg"
   xmlns:xlink="http://www.w3.org/1999/xlink"
   version="1.1"
   width="96"
   height="96"
   id="svg2"
   style="enable-background:new">
  <defs
     id="defs4">
    <linearGradient
       id="linearGradient3861">
      <stop
         id="stop3863"
         style="stop-color:#09b2ae;stop-opacity:1"
         offset="0" />
      <stop
         id="stop3865"
         style="stop-color:#09b2ae;stop-opacity:0"
         offset="1" />
    </linearGradient>
    <linearGradient
       id="linearGradient3851">
      <stop
         id="stop3853"
         style="stop-color:#09b2ae;stop-opacity:1"
         offset="0" />
      <stop
         id="stop3855"
         style="stop-color:#09b2ae;stop-opacity:0"
         offset="1" />
    </linearGradient>
    <linearGradient
       x1="48.010761"
       y1="0.07037171"
       x2="47.827461"
       y2="24.407314"
       id="linearGradient3857"
       xlink:href="#linearGradient3851"
       gradientUnits="userSpaceOnUse" />
    <radialGradient
       cx="50.002552"
       cy="45.492374"
       r="20.076782"
       fx="50.002552"
       fy="45.492374"
       id="radialGradient3867"
       xlink:href="#linearGradient3861"
       gradientUnits="userSpaceOnUse" />
    <radialGradient
       cx="50.002552"
       cy="45.492374"
       r="20.076782"
       fx="50.002552"
       fy="45.492374"
       id="radialGradient3299"
       xlink:href="#linearGradient3861"
       gradientUnits="userSpaceOnUse"
       gradientTransform="translate(-2.002552,2.5076256)" />
    <linearGradient
       x1="48.010761"
       y1="0.07037171"
       x2="47.827461"
       y2="24.407314"
       id="linearGradient3302"
       xlink:href="#linearGradient3851"
       gradientUnits="userSpaceOnUse"
       gradientTransform="matrix(0.96248721,0,0,0.96503687,1.8784665,1.8438788)" />
  </defs>
  <metadata
     id="metadata7">
    <rdf:RDF>
      <cc:Work
         rdf:about="">
        <dc:format>image/svg+xml</dc:format>
        <dc:type
           rdf:resource="http://purl.org/dc/dcmitype/StillImage" />
        <dc:title></dc:title>
      </cc:Work>
    </rdf:RDF>
  </metadata>
  <g
     transform="translate(0,-956.36218)"
     id="layer1"
     style="display:none">
    <image
       x="0"
       y="956.36218"
       width="96"
       height="96"
       id="image3047" />
  </g>
  <path
     d="M 94,48 A 46,46 0 1 1 2,48 46,46 0 1 1 94,48 z"
     id="path3849"
     style="opacity:0.4;fill:url(#linearGradient3302);fill-opacity:1;fill-rule:nonzero;stroke:none" />
  <path
     d="m 68.076782,48 a 20.076782,20.076782 0 0 1 -40.153564,0 20.076782,20.076782 0 1 1 40.153564,0 z"
     id="path3859"
     style="opacity:0.4;fill:url(#radialGradient3299);fill-opacity:1;fill-rule:nonzero;stroke:none" />
  <path
     d="m 52,48 a 4,4 0 0 1 -8,0 4,4 0 1 1 8,0 z"
     id="path3830"
     style="fill:#000000;fill-opacity:1;fill-rule:nonzero;stroke:none" />
  <g
     id="layer3"
     style="opacity:0.95999995;display:none">
    <path
       d="M 46,3.7264493 C 45.96903,2.8335721 46.545072,1.949526 47.936937,1.9914377 49.328802,2.0333497 49.963562,2.675413 49.984216,3.742233 L 50,42.800846 C 50,43.482472 48.712307,43.913653 47.950679,43.9057 47.18905,43.897748 46.015784,43.447975 46,42.800846 z"
       id="rect3776"
       style="fill:#ffffff;fill-opacity:1;fill-rule:nonzero;stroke:none" />
  </g>
  <path
     d="M 0,0 0,96 96,96 96,0 0,0 z M 48,3 C 59.76833,3 71.491034,7.8660391 79.8125,16.1875 88.133966,24.508961 93,36.23167 93,48 93,59.76833 88.133966,71.491039 79.8125,79.8125 l -0.09375,0.09375 C 71.403068,88.170618 59.724203,93 48,93 36.23167,93 24.508966,88.133961 16.1875,79.8125 L 16.09375,79.71875 C 7.8293765,71.403073 3,59.724203 3,48 3,36.23167 7.8660341,24.508961 16.1875,16.1875 24.508966,7.8660391 36.23167,3 48,3 z"
     id="rect3033"
     style="color:#000000;fill:#1e1e1e;fill-opacity:1;fill-rule:nonzero;stroke:none;stroke-width:11.19999981;marker:none;visibility:visible;display:inline;overflow:visible;enable-background:accumulate" />
  <path
     d="M 93.000002,48 A 45.000001,45 0 0 1 3.0000002,48 45.000001,45 0 1 1 93.000002,48 z"
     id="path4919"
     style="fill:none;stroke:#000000;stroke-width:2;stroke-miterlimit:4;stroke-opacity:1;stroke-dasharray:none;display:inline;enable-background:new" />
</svg>
