<?xml version="1.0" encoding="UTF-8" standalone="no"?>
<svg
   xmlns:dc="http://purl.org/dc/elements/1.1/"
   xmlns:cc="http://creativecommons.org/ns#"
   xmlns:rdf="http://www.w3.org/1999/02/22-rdf-syntax-ns#"
   xmlns:svg="http://www.w3.org/2000/svg"
   xmlns="http://www.w3.org/2000/svg"
   xmlns:xlink="http://www.w3.org/1999/xlink"
   id="svg4272"
   height="20"
   width="20"
   version="1.1">
  <metadata
     id="metadata4284">
    <rdf:RDF>
      <cc:Work
         rdf:about="">
        <dc:format>image/svg+xml</dc:format>
        <dc:type
           rdf:resource="http://purl.org/dc/dcmitype/StillImage" />
        <dc:title></dc:title>
      </cc:Work>
    </rdf:RDF>
  </metadata>
  <defs
     id="defs4282">
    <linearGradient
       gradientTransform="translate(0,-1026.3622)"
       gradientUnits="userSpaceOnUse"
       xlink:href="#linearGradient3801-6"
       id="linearGradient3807-3"
       y2="1049.3622"
       x2="13"
       y1="1027.3622"
       x1="13" />
    <linearGradient
       id="linearGradient3801-6">
      <stop
         offset="0"
         style="stop-color:#242424;stop-opacity:1"
         id="stop3803-7" />
      <stop
         offset="1"
         style="stop-color:#101010;stop-opacity:1"
         id="stop3805-5" />
    </linearGradient>
  </defs>
  <g
     transform="translate(0,-6)"
     style="display:none"
     id="layer3">
    <path
       style="color:#000000;overflow:visible;fill:#8d8f90;fill-opacity:1;marker:none"
       id="path4276"
       d="m 6,6.000125 c -1.644703,-1.028e-4 -3,1.355297 -3,3 v 7.00025 c 0,1.644705 1.355294,3.000023 3,3 l 1.00025,-1.25e-4 v 3 L 14,18.25025 7.000125,14.500188 v 3 l -1.00025,1.24e-4 C 5.2530103,17.500405 4.4999724,16.733185 4.5,16.000375 V 9.000125 C 4.5,8.288378 5.2670519,7.500188 6,7.500188 l 2,1.24e-4 V 6.00025 Z" />
    <path
       style="color:#000000;overflow:visible;fill:#8d8f90;fill-opacity:1;marker:none"
       id="path3871"
       d="m 10,3 h 2 v 8 h -2 z" />
    <path
       style="color:#000000;overflow:visible;fill:#8d8f90;fill-opacity:1;marker:none"
       id="path4278"
       d="m 16,6.000125 c 1.644703,-1.028e-4 3,1.355297 3,3 v 7.00025 c 0,1.644705 -1.355294,3.000023 -3,3 l -1.00025,-6.3e-5 5e-4,-1.500124 1.00025,6.2e-5 c 0.78903,4.9e-5 1.499527,-0.788131 1.4995,-1.499875 v -7.00025 c 0,-0.725791 -0.753266,-1.499914 -1.500125,-1.499937 l -1.99975,1.25e-4 1.25e-4,-1.500063 z" />
  </g>
  <path
     id="path834"
     d="M 10 0 A 10 10 0 0 0 0 10 A 10 10 0 0 0 10 20 A 10 10 0 0 0 20 10 A 10 10 0 0 0 10 0 z M 10 6 A 4 4 0 0 1 14 10 A 4 4 0 0 1 10 14 A 4 4 0 0 1 6 10 A 4 4 0 0 1 10 6 z "
     style="color:#000000;display:inline;overflow:visible;visibility:visible;opacity:1;fill:#e602cd;fill-opacity:1;fill-rule:nonzero;stroke:none;stroke-width:1.70000005;stroke-linecap:round;stroke-linejoin:round;stroke-miterlimit:4;stroke-dasharray:none;stroke-dashoffset:0;stroke-opacity:1;marker:none;enable-background:accumulate" />
  <path
     id="path834-6"
     d="m 11,10 a 1,1 0 0 1 -1,1 1,1 0 0 1 -1,-1 1,1 0 0 1 1,-1 1,1 0 0 1 1,1 z"
     style="color:#000000;display:inline;overflow:visible;visibility:visible;opacity:1;fill:#e602cd;fill-opacity:1;fill-rule:nonzero;stroke:none;stroke-width:1.70000005;stroke-linecap:round;stroke-linejoin:round;stroke-miterlimit:4;stroke-dasharray:none;stroke-dashoffset:0;stroke-opacity:1;marker:none;enable-background:accumulate" />
</svg>
