<?xml version="1.0" encoding="UTF-8"?>
<svg id="svg4272" width="20" height="20" version="1.1" xmlns="http://www.w3.org/2000/svg" xmlns:cc="http://creativecommons.org/ns#" xmlns:dc="http://purl.org/dc/elements/1.1/" xmlns:rdf="http://www.w3.org/1999/02/22-rdf-syntax-ns#" xmlns:xlink="http://www.w3.org/1999/xlink">
 <metadata id="metadata4284">
  <rdf:RDF>
   <cc:Work rdf:about="">
    <dc:format>image/svg+xml</dc:format>
    <dc:type rdf:resource="http://purl.org/dc/dcmitype/StillImage"/>
    <dc:title/>
   </cc:Work>
  </rdf:RDF>
 </metadata>
 <g id="layer3" transform="translate(0,-6)" display="none" fill="#8d8f90">
  <path id="path4276" d="m6 6.0001c-1.6447-1.028e-4 -3 1.3553-3 3v7.0002c0 1.6447 1.3553 3 3 3l1.0002-1.25e-4v3l6.9998-3.75-6.9999-3.7501v3l-1.0002 1.24e-4c-0.74686 9.3e-5 -1.4999-0.76713-1.4999-1.4999v-7.0002c0-0.71175 0.76705-1.4999 1.5-1.4999l2 1.24e-4v-1.5001z" color="#000000"/>
  <path id="path3871" d="m10 3h2v8h-2z" color="#000000"/>
  <path id="path4278" d="m16 6.0001c1.6447-1.028e-4 3 1.3553 3 3v7.0002c0 1.6447-1.3553 3-3 3l-1.0002-6.3e-5 5e-4 -1.5001 1.0002 6.2e-5c0.78903 4.9e-5 1.4995-0.78813 1.4995-1.4999v-7.0002c0-0.72579-0.75327-1.4999-1.5001-1.4999l-1.9998 1.25e-4 1.25e-4 -1.5001z" color="#000000"/>
 </g>
 <path id="path834" d="m10 0a10 10 0 0 0-10 10 10 10 0 0 0 10 10 10 10 0 0 0 10-10 10 10 0 0 0-10-10zm0 6a4 4 0 0 1 4 4 4 4 0 0 1-4 4 4 4 0 0 1-4-4 4 4 0 0 1 4-4z" color="#000000" fill="#26a803"/>
 <path id="path834-6" d="m11 10a1 1 0 0 1-1 1 1 1 0 0 1-1-1 1 1 0 0 1 1-1 1 1 0 0 1 1 1z" color="#000000" fill="#26a803"/>
</svg>
