<svg id="svg3084" width="10" height="84" version="1.1" xmlns="http://www.w3.org/2000/svg"><defs id="defs3086"><linearGradient id="linearGradient9982" x1="2" x2="2" y1="11" y2="82" gradientUnits="userSpaceOnUse"><stop id="stop9978" stop-color="#1ba81b" offset="0"/><stop id="stop9984" stop-color="#04f005" offset=".45"/><stop id="stop9980" stop-color="#1ba81b" offset="1"/></linearGradient></defs><rect id="use4482" x="2" y="1" width="6" height="1" color="#000000" fill="#ff0"/><rect id="use4484" x="2" y="3" width="6" height="1" color="#000000" fill="#ff0"/><rect id="use4486" x="2" y="5" width="6" height="1" color="#000000" fill="#ff0"/><rect id="use4488" x="2" y="7" width="6" height="1" color="#000000" fill="#ff0"/><rect id="use4490" x="2" y="9" width="6" height="1" color="#000000" fill="#ff0"/><g id="g9937" fill="url(#linearGradient9982)"><g id="g9899" fill="url(#linearGradient9982)"><rect id="use4492" x="2" y="11" width="6" height="1" color="#000000"/><rect id="use4494" x="2" y="13" width="6" height="1" color="#000000"/><rect id="use4496" x="2" y="15" width="6" height="1" color="#000000"/><rect id="use4498" x="2" y="17" width="6" height="1" color="#000000"/><rect id="use4500" x="2" y="19" width="6" height="1" color="#000000"/><rect id="use4502" x="2" y="21" width="6" height="1" color="#000000"/><rect id="use4504" x="2" y="23" width="6" height="1" color="#000000"/><rect id="use4506" x="2" y="25" width="6" height="1" color="#000000"/><rect id="use4508" x="2" y="27" width="6" height="1" color="#000000"/><rect id="use4510" x="2" y="29" width="6" height="1" color="#000000"/><rect id="use4512" x="2" y="31" width="6" height="1" color="#000000"/><rect id="use4514" x="2" y="33" width="6" height="1" color="#000000"/><rect id="use4516" x="2" y="35" width="6" height="1" color="#000000"/><rect id="use4518" x="2" y="37" width="6" height="1" color="#000000"/><rect id="use4520" x="2" y="39" width="6" height="1" color="#000000"/><rect id="use4522" x="2" y="41" width="6" height="1" color="#000000"/><rect id="use4524" x="2" y="43" width="6" height="1" color="#000000"/><rect id="use4526" x="2" y="45" width="6" height="1" color="#000000"/><rect id="use4528" x="2" y="47" width="6" height="1" color="#000000"/><rect id="use4530" x="2" y="49" width="6" height="1" color="#000000"/><rect id="use4532" x="2" y="51" width="6" height="1" color="#000000"/><rect id="use4534" x="2" y="53" width="6" height="1" color="#000000"/><rect id="use4536" x="2" y="55" width="6" height="1" color="#000000"/><rect id="use4538" x="2" y="57" width="6" height="1" color="#000000"/><rect id="use4540" x="2" y="59" width="6" height="1" color="#000000"/><rect id="use4542" x="2" y="61" width="6" height="1" color="#000000"/><rect id="use4544" x="2" y="63" width="6" height="1" color="#000000"/><rect id="use4546" x="2" y="65" width="6" height="1" color="#000000"/><rect id="use4548" x="2" y="67" width="6" height="1" color="#000000"/><rect id="use4550" x="2" y="69" width="6" height="1" color="#000000"/><rect id="use4552" x="2" y="71" width="6" height="1" color="#000000"/><rect id="use4554" x="2" y="73" width="6" height="1" color="#000000"/><rect id="use4556" x="2" y="75" width="6" height="1" color="#000000"/><rect id="use4558" x="2" y="77" width="6" height="1" color="#000000"/><rect id="use4560" x="2" y="79" width="6" height="1" color="#000000"/><rect id="use4562" x="2" y="81" width="6" height="1" color="#000000"/></g></g></svg>
