<svg id="svg7841" width="10" height="74" version="1.1" xmlns="http://www.w3.org/2000/svg" xmlns:xlink="http://www.w3.org/1999/xlink"><defs id="defs7843"><linearGradient id="linearGradient10506" x1="2" x2="2" y1="989.36" y2="1050.4" gradientUnits="userSpaceOnUse"><stop id="stop13126" stop-color="#1ba81b" offset="0"/><stop id="stop13128" stop-color="#04f005" offset=".45"/><stop id="stop13130" stop-color="#1ba81b" offset="1"/></linearGradient></defs><rect id="use4494" x="2" y="3" width="6" height="1" color="#000000" fill="#ff0"/><rect id="use4496" x="2" y="5" width="6" height="1" color="#000000" fill="#ff0"/><rect id="use4498" x="2" y="7" width="6" height="1" color="#000000" fill="#ff0"/><rect id="use4500" x="2" y="9" width="6" height="1" color="#000000" fill="#ff0"/><g id="g14309" transform="translate(0 -978.36)" fill="url(#linearGradient10506)"><rect id="use4502" x="2" y="989.36" width="6" height="1" color="#000000"/><rect id="use4504" x="2" y="991.36" width="6" height="1" color="#000000"/><rect id="use4506" x="2" y="993.36" width="6" height="1" color="#000000"/><rect id="use4508" x="2" y="995.36" width="6" height="1" color="#000000"/><rect id="use4510" x="2" y="997.36" width="6" height="1" color="#000000"/><rect id="use4512" x="2" y="999.36" width="6" height="1" color="#000000"/><rect id="use4514" x="2" y="1001.4" width="6" height="1" color="#000000"/><rect id="use4516" x="2" y="1003.4" width="6" height="1" color="#000000"/><rect id="use4518" x="2" y="1005.4" width="6" height="1" color="#000000"/><rect id="use4520" x="2" y="1007.4" width="6" height="1" color="#000000"/><rect id="use4522" x="2" y="1009.4" width="6" height="1" color="#000000"/><rect id="use4524" x="2" y="1011.4" width="6" height="1" color="#000000"/><rect id="use4526" x="2" y="1013.4" width="6" height="1" color="#000000"/><rect id="use4528" x="2" y="1015.4" width="6" height="1" color="#000000"/><rect id="use4530" x="2" y="1017.4" width="6" height="1" color="#000000"/><rect id="use4532" x="2" y="1019.4" width="6" height="1" color="#000000"/><rect id="use4534" x="2" y="1021.4" width="6" height="1" color="#000000"/><rect id="use4536" x="2" y="1023.4" width="6" height="1" color="#000000"/><rect id="use4538" x="2" y="1025.4" width="6" height="1" color="#000000"/><rect id="use4540" x="2" y="1027.4" width="6" height="1" color="#000000"/><rect id="use4542" x="2" y="1029.4" width="6" height="1" color="#000000"/><rect id="use4544" x="2" y="1031.4" width="6" height="1" color="#000000"/><rect id="use4546" x="2" y="1033.4" width="6" height="1" color="#000000"/><rect id="use4548" x="2" y="1035.4" width="6" height="1" color="#000000"/><rect id="use4550" x="2" y="1037.4" width="6" height="1" color="#000000"/><rect id="use4552" x="2" y="1039.4" width="6" height="1" color="#000000"/><rect id="use4554" x="2" y="1041.4" width="6" height="1" color="#000000"/><rect id="use4556" x="2" y="1043.4" width="6" height="1" color="#000000"/><rect id="use4558" x="2" y="1045.4" width="6" height="1" color="#000000"/><rect id="use4560" x="2" y="1047.4" width="6" height="1" color="#000000"/><rect id="use4562" x="2" y="1049.4" width="6" height="1" color="#000000"/></g><rect id="use4494-5" x="2" y="1" width="6" height="1" color="#000000" fill="#ff0"/></svg>
