<svg id="svg5757" width="10" height="47" version="1.1" xmlns="http://www.w3.org/2000/svg" xmlns:xlink="http://www.w3.org/1999/xlink"><defs id="defs5759"><linearGradient id="linearGradient10686" x1="1.947" x2="1.947" y1="5" y2="44" gradientTransform="translate(0,2)" gradientUnits="userSpaceOnUse"><stop id="stop16456" stop-color="#1ba81b" offset="0"/><stop id="stop16458" stop-color="#04f005" offset=".45"/><stop id="stop16460" stop-color="#1ba81b" offset="1"/></linearGradient></defs><rect id="use4488" x="1.947" y="3" width="6" height="1" color="#000000" fill="#ff0"/><rect id="use4490" x="1.947" y="5" width="6" height="1" color="#000000" fill="#ff0"/><rect id="use4494" x="1.947" y="9" width="6" height="1" color="#000000" fill="url(#linearGradient10686)"/><rect id="use4496" x="1.947" y="11" width="6" height="1" color="#000000" fill="url(#linearGradient10686)"/><rect id="use4498" x="1.947" y="13" width="6" height="1" color="#000000" fill="url(#linearGradient10686)"/><rect id="use4500" x="1.947" y="15" width="6" height="1" color="#000000" fill="url(#linearGradient10686)"/><rect id="use4502" x="1.947" y="17" width="6" height="1" color="#000000" fill="url(#linearGradient10686)"/><rect id="use4504" x="1.947" y="19" width="6" height="1" color="#000000" fill="url(#linearGradient10686)"/><rect id="use4506" x="1.947" y="21" width="6" height="1" color="#000000" fill="url(#linearGradient10686)"/><rect id="use4508" x="1.947" y="23" width="6" height="1" color="#000000" fill="url(#linearGradient10686)"/><rect id="use4510" x="1.947" y="25" width="6" height="1" color="#000000" fill="url(#linearGradient10686)"/><rect id="use4512" x="1.947" y="27" width="6" height="1" color="#000000" fill="url(#linearGradient10686)"/><rect id="use4514" x="1.947" y="29" width="6" height="1" color="#000000" fill="url(#linearGradient10686)"/><rect id="use4516" x="1.947" y="31" width="6" height="1" color="#000000" fill="url(#linearGradient10686)"/><rect id="use4518" x="1.947" y="33" width="6" height="1" color="#000000" fill="url(#linearGradient10686)"/><rect id="use4520-1" x="1.947" y="35" width="6" height="1" color="#000000" fill="url(#linearGradient10686)"/><rect id="use4522-3" x="1.947" y="37" width="6" height="1" color="#000000" fill="url(#linearGradient10686)"/><rect id="use4524-0" x="1.947" y="39" width="6" height="1" color="#000000" fill="url(#linearGradient10686)"/><rect id="use4526-9" x="1.947" y="41" width="6" height="1" color="#000000" fill="url(#linearGradient10686)"/><rect id="use4528-9" x="1.947" y="43" width="6" height="1" color="#000000" fill="url(#linearGradient10686)"/><rect id="use4530-1" x="1.947" y="45" width="6" height="1" color="#000000" fill="url(#linearGradient10686)"/><rect id="use4490-9" x="1.947" y="7" width="6" height="1" color="#000000" fill="#ff0"/><rect id="use4488-3" x="1.947" y=".99998" width="6" height="1" color="#000000" fill="#ff0"/></svg>
