<svg id="svg7841" width="10" height="74" version="1.1" xmlns="http://www.w3.org/2000/svg" xmlns:xlink="http://www.w3.org/1999/xlink"><defs id="defs7843"><linearGradient id="linearGradient8226"><stop id="stop8228" stop-color="#3d3d3d" offset="0"/><stop id="stop8230" stop-color="#787878" offset=".45"/><stop id="stop8232" stop-color="#3d3d3d" offset="1"/></linearGradient><linearGradient id="linearGradient11895" x1="2" x2="2" y1="981.36" y2="1050.4" gradientTransform="translate(0 -978.36)" gradientUnits="userSpaceOnUse" xlink:href="#linearGradient8226"/><linearGradient id="linearGradient11895-3" x1="2" x2="2" y1="981.36" y2="1050.4" gradientTransform="translate(0 -980.36)" gradientUnits="userSpaceOnUse" xlink:href="#linearGradient8226"/></defs><path id="rect12208" d="m0 0h10v74h-10z" color="#000000" fill="#0f0f0f"/><path id="path4476" d="m1 0h-1v74h10v-74h-1v73h-8v-73" fill="#2d2d2d"/><rect id="use4494" x="2" y="3" width="6" height="1" color="#000000" fill="url(#linearGradient11895)"/><rect id="use4496" x="2" y="5" width="6" height="1" color="#000000" fill="url(#linearGradient11895)"/><rect id="use4498" x="2" y="7" width="6" height="1" color="#000000" fill="url(#linearGradient11895)"/><rect id="use4500" x="2" y="9" width="6" height="1" color="#000000" fill="url(#linearGradient11895)"/><rect id="use4502" x="2" y="11" width="6" height="1" color="#000000" fill="url(#linearGradient11895)"/><rect id="use4504" x="2" y="13" width="6" height="1" color="#000000" fill="url(#linearGradient11895)"/><rect id="use4506" x="2" y="15" width="6" height="1" color="#000000" fill="url(#linearGradient11895)"/><rect id="use4508" x="2" y="17" width="6" height="1" color="#000000" fill="url(#linearGradient11895)"/><rect id="use4510" x="2" y="19" width="6" height="1" color="#000000" fill="url(#linearGradient11895)"/><rect id="use4512" x="2" y="21" width="6" height="1" color="#000000" fill="url(#linearGradient11895)"/><rect id="use4514" x="2" y="23" width="6" height="1" color="#000000" fill="url(#linearGradient11895)"/><rect id="use4516" x="2" y="25" width="6" height="1" color="#000000" fill="url(#linearGradient11895)"/><rect id="use4518" x="2" y="27" width="6" height="1" color="#000000" fill="url(#linearGradient11895)"/><rect id="use4520" x="2" y="29" width="6" height="1" color="#000000" fill="url(#linearGradient11895)"/><rect id="use4522" x="2" y="31" width="6" height="1" color="#000000" fill="url(#linearGradient11895)"/><rect id="use4524" x="2" y="33" width="6" height="1" color="#000000" fill="url(#linearGradient11895)"/><rect id="use4526" x="2" y="35" width="6" height="1" color="#000000" fill="url(#linearGradient11895)"/><rect id="use4528" x="2" y="37" width="6" height="1" color="#000000" fill="url(#linearGradient11895)"/><rect id="use4530" x="2" y="39" width="6" height="1" color="#000000" fill="url(#linearGradient11895)"/><rect id="use4532" x="2" y="41" width="6" height="1" color="#000000" fill="url(#linearGradient11895)"/><rect id="use4534" x="2" y="43" width="6" height="1" color="#000000" fill="url(#linearGradient11895)"/><rect id="use4536" x="2" y="45" width="6" height="1" color="#000000" fill="url(#linearGradient11895)"/><rect id="use4538" x="2" y="47" width="6" height="1" color="#000000" fill="url(#linearGradient11895)"/><rect id="use4540" x="2" y="49" width="6" height="1" color="#000000" fill="url(#linearGradient11895)"/><rect id="use4542" x="2" y="51" width="6" height="1" color="#000000" fill="url(#linearGradient11895)"/><rect id="use4544" x="2" y="53" width="6" height="1" color="#000000" fill="url(#linearGradient11895)"/><rect id="use4546" x="2" y="55" width="6" height="1" color="#000000" fill="url(#linearGradient11895)"/><rect id="use4548" x="2" y="57" width="6" height="1" color="#000000" fill="url(#linearGradient11895)"/><rect id="use4550" x="2" y="59" width="6" height="1" color="#000000" fill="url(#linearGradient11895)"/><rect id="use4552" x="2" y="61" width="6" height="1" color="#000000" fill="url(#linearGradient11895)"/><rect id="use4554" x="2" y="63" width="6" height="1" color="#000000" fill="url(#linearGradient11895)"/><rect id="use4556" x="2" y="65" width="6" height="1" color="#000000" fill="url(#linearGradient11895)"/><rect id="use4558" x="2" y="67" width="6" height="1" color="#000000" fill="url(#linearGradient11895)"/><rect id="use4560" x="2" y="69" width="6" height="1" color="#000000" fill="url(#linearGradient11895)"/><rect id="use4562" x="2" y="71" width="6" height="1" color="#000000" fill="url(#linearGradient11895)"/><rect id="use4494-3" x="2" y="1" width="6" height="1" color="#000000" fill="url(#linearGradient11895-3)"/></svg>
