<svg id="svg5757" width="10" height="47" version="1.1" xmlns="http://www.w3.org/2000/svg" xmlns:xlink="http://www.w3.org/1999/xlink"><defs id="defs5759"><linearGradient id="linearGradient7820" x1="2" x2="2" y1="1008.4" y2="1051.4" gradientUnits="userSpaceOnUse"><stop id="stop6347" stop-color="#3d3d3d" offset="0"/><stop id="stop6349" stop-color="#787878" offset=".45"/><stop id="stop6351" stop-color="#3d3d3d" offset="1"/></linearGradient></defs><rect id="rect12208" width="10" height="47" color="#000000" fill="#0f0f0f"/><g id="g7282" transform="translate(0 -1006.4)" fill="url(#linearGradient7820)"><rect id="use4520" x="2" y="1008.4" width="6" height="1" color="#000000"/><rect id="use4522" x="2" y="1010.4" width="6" height="1" color="#000000"/><rect id="use4524" x="2" y="1012.4" width="6" height="1" color="#000000"/><rect id="use4526" x="2" y="1014.4" width="6" height="1" color="#000000"/><rect id="use4528" x="2" y="1016.4" width="6" height="1" color="#000000"/><rect id="use4530" x="2" y="1018.4" width="6" height="1" color="#000000"/><rect id="use4532" x="2" y="1020.4" width="6" height="1" color="#000000"/><rect id="use4534" x="2" y="1022.4" width="6" height="1" color="#000000"/><rect id="use4536" x="2" y="1024.4" width="6" height="1" color="#000000"/><rect id="use4538" x="2" y="1026.4" width="6" height="1" color="#000000"/><rect id="use4540" x="2" y="1028.4" width="6" height="1" color="#000000"/><rect id="use4542" x="2" y="1030.4" width="6" height="1" color="#000000"/><rect id="use4544" x="2" y="1032.4" width="6" height="1" color="#000000"/><rect id="use4546" x="2" y="1034.4" width="6" height="1" color="#000000"/><rect id="use4548" x="2" y="1036.4" width="6" height="1" color="#000000"/><rect id="use4550" x="2" y="1038.4" width="6" height="1" color="#000000"/><rect id="use4552" x="2" y="1040.4" width="6" height="1" color="#000000"/><rect id="use4554" x="2" y="1042.4" width="6" height="1" color="#000000"/><rect id="use4556" x="2" y="1044.4" width="6" height="1" color="#000000"/><rect id="use4558" x="2" y="1046.4" width="6" height="1" color="#000000"/><rect id="use4560" x="2" y="1048.4" width="6" height="1" color="#000000"/><rect id="use4562" x="2" y="1050.4" width="6" height="1" color="#000000"/></g><path id="rect11450" d="m0 0v47h10v-47h-10zm1 1h8v45h-8v-45z" color="#000000" fill="#2d2d2d"/></svg>
