<svg id="svg5757" width="10" height="47" version="1.1" xmlns="http://www.w3.org/2000/svg" xmlns:xlink="http://www.w3.org/1999/xlink"><defs id="defs5759"><linearGradient id="linearGradient10686" x1="1.947" x2="1.947" y1="5" y2="44" gradientTransform="translate(0 .9999)" gradientUnits="userSpaceOnUse"><stop id="stop16456" stop-color="#1ba81b" offset="0"/><stop id="stop16458" stop-color="#04f005" offset=".45"/><stop id="stop16460" stop-color="#1ba81b" offset="1"/></linearGradient></defs><rect id="use4488" x="1.947" y="1.9999" width="6" height="1" color="#000000" fill="#ff0"/><rect id="use4490" x="1.947" y="3.9999" width="6" height="1" color="#000000" fill="#ff0"/><rect id="use4494" x="1.947" y="7.9999" width="6" height="1" color="#000000" fill="url(#linearGradient10686)"/><rect id="use4496" x="1.947" y="9.9999" width="6" height="1" color="#000000" fill="url(#linearGradient10686)"/><rect id="use4498" x="1.947" y="12" width="6" height="1" color="#000000" fill="url(#linearGradient10686)"/><rect id="use4500" x="1.947" y="14" width="6" height="1" color="#000000" fill="url(#linearGradient10686)"/><rect id="use4502" x="1.947" y="16" width="6" height="1" color="#000000" fill="url(#linearGradient10686)"/><rect id="use4504" x="1.947" y="18" width="6" height="1" color="#000000" fill="url(#linearGradient10686)"/><rect id="use4506" x="1.947" y="20" width="6" height="1" color="#000000" fill="url(#linearGradient10686)"/><rect id="use4508" x="1.947" y="22" width="6" height="1" color="#000000" fill="url(#linearGradient10686)"/><rect id="use4510" x="1.947" y="24" width="6" height="1" color="#000000" fill="url(#linearGradient10686)"/><rect id="use4512" x="1.947" y="26" width="6" height="1" color="#000000" fill="url(#linearGradient10686)"/><rect id="use4514" x="1.947" y="28" width="6" height="1" color="#000000" fill="url(#linearGradient10686)"/><rect id="use4516" x="1.947" y="30" width="6" height="1" color="#000000" fill="url(#linearGradient10686)"/><rect id="use4518" x="1.947" y="32" width="6" height="1" color="#000000" fill="url(#linearGradient10686)"/><rect id="use4520-1" x="1.947" y="34" width="6" height="1" color="#000000" fill="url(#linearGradient10686)"/><rect id="use4522-3" x="1.947" y="36" width="6" height="1" color="#000000" fill="url(#linearGradient10686)"/><rect id="use4524-0" x="1.947" y="38" width="6" height="1" color="#000000" fill="url(#linearGradient10686)"/><rect id="use4526-9" x="1.947" y="40" width="6" height="1" color="#000000" fill="url(#linearGradient10686)"/><rect id="use4528-9" x="1.947" y="42" width="6" height="1" color="#000000" fill="url(#linearGradient10686)"/><rect id="use4530-1" x="1.947" y="44" width="6" height="1" color="#000000" fill="url(#linearGradient10686)"/><rect id="use4490-9" x="1.947" y="5.9999" width="6" height="1" color="#000000" fill="#ff0"/></svg>
