<svg id="svg3084" width="10" height="84" version="1.1" xmlns="http://www.w3.org/2000/svg" xmlns:xlink="http://www.w3.org/1999/xlink"><defs id="defs3086"><linearGradient id="linearGradient4711-5" x1="3" x2="3" y1="1" y2="82" gradientUnits="userSpaceOnUse"><stop id="stop4707-5" stop-color="#3d3d3d" offset="0"/><stop id="stop4713-6" stop-color="#787878" offset=".45"/><stop id="stop4709-2" stop-color="#3d3d3d" offset="1"/></linearGradient></defs><rect id="rect12208" y="-2.4869e-14" width="10" height="84" color="#000000" fill="#0f0f0f"/><path id="path4476" d="m1 0h-1v84h10v-84h-1v83h-8v-83" fill="#2d2d2d"/><g id="g4580" transform="translate(-1)" fill="url(#linearGradient4711-5)"><rect id="use4482" x="3" y="1" width="6" height="1" color="#000000"/><rect id="use4484" x="3" y="3" width="6" height="1" color="#000000"/><rect id="use4486" x="3" y="5" width="6" height="1" color="#000000"/><rect id="use4488" x="3" y="7" width="6" height="1" color="#000000"/><rect id="use4490" x="3" y="9" width="6" height="1" color="#000000"/><rect id="use4492" x="3" y="11" width="6" height="1" color="#000000"/><rect id="use4494" x="3" y="13" width="6" height="1" color="#000000"/><rect id="use4496" x="3" y="15" width="6" height="1" color="#000000"/><rect id="use4498" x="3" y="17" width="6" height="1" color="#000000"/><rect id="use4500" x="3" y="19" width="6" height="1" color="#000000"/><rect id="use4502" x="3" y="21" width="6" height="1" color="#000000"/><rect id="use4504" x="3" y="23" width="6" height="1" color="#000000"/><rect id="use4506" x="3" y="25" width="6" height="1" color="#000000"/><rect id="use4508" x="3" y="27" width="6" height="1" color="#000000"/><rect id="use4510" x="3" y="29" width="6" height="1" color="#000000"/><rect id="use4512" x="3" y="31" width="6" height="1" color="#000000"/><rect id="use4514" x="3" y="33" width="6" height="1" color="#000000"/><rect id="use4516" x="3" y="35" width="6" height="1" color="#000000"/><rect id="use4518" x="3" y="37" width="6" height="1" color="#000000"/><rect id="use4520" x="3" y="39" width="6" height="1" color="#000000"/><rect id="use4522" x="3" y="41" width="6" height="1" color="#000000"/><rect id="use4524" x="3" y="43" width="6" height="1" color="#000000"/><rect id="use4526" x="3" y="45" width="6" height="1" color="#000000"/><rect id="use4528" x="3" y="47" width="6" height="1" color="#000000"/><rect id="use4530" x="3" y="49" width="6" height="1" color="#000000"/><rect id="use4532" x="3" y="51" width="6" height="1" color="#000000"/><rect id="use4534" x="3" y="53" width="6" height="1" color="#000000"/><rect id="use4536" x="3" y="55" width="6" height="1" color="#000000"/><rect id="use4538" x="3" y="57" width="6" height="1" color="#000000"/><rect id="use4540" x="3" y="59" width="6" height="1" color="#000000"/><rect id="use4542" x="3" y="61" width="6" height="1" color="#000000"/><rect id="use4544" x="3" y="63" width="6" height="1" color="#000000"/><rect id="use4546" x="3" y="65" width="6" height="1" color="#000000"/><rect id="use4548" x="3" y="67" width="6" height="1" color="#000000"/><rect id="use4550" x="3" y="69" width="6" height="1" color="#000000"/><rect id="use4552" x="3" y="71" width="6" height="1" color="#000000"/><rect id="use4554" x="3" y="73" width="6" height="1" color="#000000"/><rect id="use4556" x="3" y="75" width="6" height="1" color="#000000"/><rect id="use4558" x="3" y="77" width="6" height="1" color="#000000"/><rect id="use4560" x="3" y="79" width="6" height="1" color="#000000"/><rect id="use4562" x="3" y="81" width="6" height="1" color="#000000"/></g></svg>
