<?xml version="1.0" encoding="UTF-8" standalone="no"?>
<!-- Created with Inkscape (http://www.inkscape.org/) -->

<svg
   xmlns:dc="http://purl.org/dc/elements/1.1/"
   xmlns:cc="http://creativecommons.org/ns#"
   xmlns:rdf="http://www.w3.org/1999/02/22-rdf-syntax-ns#"
   xmlns:svg="http://www.w3.org/2000/svg"
   xmlns="http://www.w3.org/2000/svg"
   xmlns:sodipodi="http://sodipodi.sourceforge.net/DTD/sodipodi-0.dtd"
   xmlns:inkscape="http://www.inkscape.org/namespaces/inkscape"
   id="svg3068"
   version="1.1"
   inkscape:version="0.48.4 r9939"
   width="32"
   height="107"
   sodipodi:docname="pitch_slider.svg"
   inkscape:export-filename="/home/ronso/.mixxx/skins/FlatNite/pitch_slider.png"
   inkscape:export-xdpi="90"
   inkscape:export-ydpi="90">
  <metadata
     id="metadata3074">
    <rdf:RDF>
      <cc:Work
         rdf:about="">
        <dc:format>image/svg+xml</dc:format>
        <dc:type
           rdf:resource="http://purl.org/dc/dcmitype/StillImage" />
        <dc:title />
      </cc:Work>
    </rdf:RDF>
  </metadata>
  <defs
     id="defs3072" />
  <sodipodi:namedview
     pagecolor="#ffffff"
     bordercolor="#666666"
     borderopacity="1"
     objecttolerance="10"
     gridtolerance="10"
     guidetolerance="10"
     inkscape:pageopacity="0"
     inkscape:pageshadow="2"
     inkscape:window-width="1366"
     inkscape:window-height="746"
     id="namedview3070"
     showgrid="false"
     showguides="true"
     inkscape:guide-bbox="true"
     inkscape:object-paths="true"
     inkscape:snap-intersection-paths="true"
     inkscape:object-nodes="true"
     inkscape:snap-smooth-nodes="true"
     inkscape:zoom="32"
     inkscape:cx="23.133185"
     inkscape:cy="52.977986"
     inkscape:window-x="0"
     inkscape:window-y="0"
     inkscape:window-maximized="1"
     inkscape:current-layer="layer4"
     inkscape:snap-bbox="true"
     inkscape:snap-bbox-edge-midpoints="true"
     inkscape:snap-object-midpoints="true"
     inkscape:bbox-paths="true"
     inkscape:bbox-nodes="true">
    <sodipodi:guide
       orientation="1,0"
       position="2,105"
       id="guide3134" />
    <sodipodi:guide
       orientation="1,0"
       position="26,53"
       id="guide3136" />
    <sodipodi:guide
       orientation="1,0"
       position="12,77.5"
       id="guide3138" />
    <sodipodi:guide
       orientation="1,0"
       position="8,67"
       id="guide3160" />
    <sodipodi:guide
       orientation="1,0"
       position="24,79"
       id="guide3162" />
    <sodipodi:guide
       orientation="1,0"
       position="19,79"
       id="guide3164" />
    <inkscape:grid
       type="xygrid"
       id="grid2992"
       empspacing="5"
       visible="true"
       enabled="true"
       snapvisiblegridlinesonly="true" />
    <sodipodi:guide
       orientation="0,1"
       position="24,105"
       id="guide3043" />
    <sodipodi:guide
       orientation="0,1"
       position="18,53.5"
       id="guide3115" />
    <sodipodi:guide
       orientation="1,0"
       position="16,56.656"
       id="guide3139" />
  </sodipodi:namedview>
  <g
     inkscape:groupmode="layer"
     id="layer4"
     inkscape:label="Layer#1"
     style="display:inline">
    <path
       style="fill:#6e6e6e;fill-opacity:1;fill-rule:nonzero;stroke:none;display:inline"
       d="M 16 2 C 15.447715 2 15 2.447715 15 3 L 15 50 C 15 51.380712 13.880712 52.5 12.5 52.5 L 7 52.5 C 6.4477152 52.5 6 52.947715 6 53.5 C 6 54.052285 6.4477152 54.5 7 54.5 L 12.5 54.5 C 13.880712 54.5 15 55.619288 15 57 L 15 104 C 15 104.55228 15.447715 105 16 105 C 16.552285 105 17 104.55228 17 104 L 17 57 C 17 55.619288 18.119288 54.5 19.5 54.5 L 25 54.5 C 25.552285 54.5 26 54.052285 26 53.5 C 26 52.947715 25.552285 52.5 25 52.5 L 19.5 52.5 C 18.119288 52.5 17 51.380712 17 50 L 17 3 C 17 2.447715 16.552285 2 16 2 z M 16 52.5 C 16.552285 52.5 17 52.947715 17 53.5 C 17 54.052285 16.552285 54.5 16 54.5 C 15.447715 54.5 15 54.052285 15 53.5 C 15 52.947715 15.447715 52.5 16 52.5 z "
       id="rect4849-3" />
  </g>
</svg>
