<?xml version="1.0" encoding="UTF-8" standalone="no"?>
<!-- Created with Inkscape (http://www.inkscape.org/) -->

<svg
   xmlns:dc="http://purl.org/dc/elements/1.1/"
   xmlns:cc="http://creativecommons.org/ns#"
   xmlns:rdf="http://www.w3.org/1999/02/22-rdf-syntax-ns#"
   xmlns:svg="http://www.w3.org/2000/svg"
   xmlns="http://www.w3.org/2000/svg"
   xmlns:sodipodi="http://sodipodi.sourceforge.net/DTD/sodipodi-0.dtd"
   xmlns:inkscape="http://www.inkscape.org/namespaces/inkscape"
   id="svg3068"
   version="1.1"
   inkscape:version="0.48.4 r9939"
   width="24"
   height="76"
   sodipodi:docname="sampler_pitch_slider.svg"
   inkscape:export-filename="/home/ronso/.mixxx/skins/FlatNite/sampler_pitch_slider.png"
   inkscape:export-xdpi="90"
   inkscape:export-ydpi="90">
  <metadata
     id="metadata3074">
    <rdf:RDF>
      <cc:Work
         rdf:about="">
        <dc:format>image/svg+xml</dc:format>
        <dc:type
           rdf:resource="http://purl.org/dc/dcmitype/StillImage" />
        <dc:title />
      </cc:Work>
    </rdf:RDF>
  </metadata>
  <defs
     id="defs3072" />
  <sodipodi:namedview
     pagecolor="#ffffff"
     bordercolor="#666666"
     borderopacity="1"
     objecttolerance="10"
     gridtolerance="10"
     guidetolerance="10"
     inkscape:pageopacity="0"
     inkscape:pageshadow="2"
     inkscape:window-width="1366"
     inkscape:window-height="746"
     id="namedview3070"
     showgrid="false"
     showguides="true"
     inkscape:guide-bbox="true"
     inkscape:object-paths="true"
     inkscape:snap-intersection-paths="true"
     inkscape:object-nodes="true"
     inkscape:snap-smooth-nodes="true"
     inkscape:zoom="11.313708"
     inkscape:cx="24.306237"
     inkscape:cy="51.939071"
     inkscape:window-x="0"
     inkscape:window-y="0"
     inkscape:window-maximized="1"
     inkscape:current-layer="layer4"
     inkscape:snap-bbox="true"
     inkscape:snap-bbox-edge-midpoints="true"
     inkscape:snap-object-midpoints="true">
    <sodipodi:guide
       orientation="1,0"
       position="12,77.5"
       id="guide3138" />
    <sodipodi:guide
       orientation="1,0"
       position="4,38"
       id="guide3160" />
    <sodipodi:guide
       orientation="1,0"
       position="24,79"
       id="guide3162" />
    <sodipodi:guide
       orientation="1,0"
       position="20,38"
       id="guide3164" />
    <inkscape:grid
       type="xygrid"
       id="grid2992"
       empspacing="5"
       visible="true"
       enabled="true"
       snapvisiblegridlinesonly="true" />
    <sodipodi:guide
       orientation="0,1"
       position="24,74"
       id="guide3043" />
    <sodipodi:guide
       orientation="0,1"
       position="26,38"
       id="guide3065" />
    <sodipodi:guide
       orientation="0,1"
       position="50.75,2"
       id="guide3817" />
  </sodipodi:namedview>
  <g
     inkscape:groupmode="layer"
     id="layer4"
     inkscape:label="Layer#1"
     transform="translate(0,-31)"
     style="display:inline">
    <path
       inkscape:connector-curvature="0"
       style="fill:#6e6e6e;fill-opacity:1;fill-rule:nonzero;stroke:none;display:inline"
       d="m 12,33 c -0.552285,0 -1,0.447715 -1,1 l 0,31.499999 c 0,1.380712 -1.119288,2.5 -2.5,2.5 L 5,68 c -0.552285,0 -1,0.447715 -1,1 0,0.552285 0.447715,1 1,1 l 3.5,-10e-7 c 1.380712,0 2.5,1.119288 2.5,2.5 L 11,104 c 0,0.55228 0.447715,1 1,1 0.552285,0 1,-0.44772 1,-1 l 0,-31.500001 c 0,-1.380712 1.119288,-2.5 2.5,-2.5 L 19,70 c 0.552285,0 1,-0.447715 1,-1 0,-0.552285 -0.447715,-1 -1,-1 l -3.5,-10e-7 c -1.380712,0 -2.5,-1.119288 -2.5,-2.5 L 13,34 c 0,-0.552285 -0.447715,-1 -1,-1 z m 0,34.999999 c 0.552285,0 1,0.447715 1,1 0,0.552285 -0.447715,1 -1,1 -0.552285,0 -1,-0.447715 -1,-1 0,-0.552285 0.447715,-1 1,-1 z"
       id="rect4849-3"
       sodipodi:nodetypes="ssssssssssssssssssssssssss" />
  </g>
</svg>
