<svg height="33" viewBox="0 0 34 33" width="34" xmlns="http://www.w3.org/2000/svg"><g transform="translate(0 -1019.3622)"><path d="m1 1 7.0000002-.00001738c1.1079999-.00000275 1.9999998.89199998 1.9999998 1.99999998v29.0000174" fill="none" stroke="#484848" stroke-linecap="square" stroke-width="2.00000024" transform="translate(0 1019.3622)"/><g fill="#262626"><path d="m3.0000038 1042.3622h5v8h-5z"/><path d="m3.0000038 1032.3622h5v8h-5z"/><path d="m3.0000038 1022.3622h5v8h-5z"/><path d="m3.0000038 1042.3622h5v8h-5z"/><path d="m3.0000038 1032.3622h5v8h-5z"/><path d="m3.0000038 1022.3622h5v8h-5z"/></g><rect fill="#fff" height="16.499983" opacity="0" rx="14.2848" stroke="#000" stroke-opacity=".54117647" width="47" x="-26" y="1052.8622"/><g fill="#484848" transform="rotate(-90)"><path d="m-1033.3622 14h1.0000174v10h-1.0000174z"/><path d="m-1043.3622 14h1.0000174v5h-1.0000174z"/><path d="m-1023.3622 14h1.0000174v5h-1.0000174z"/></g></g></svg>