<svg height="33" viewBox="0 0 34 33" width="34" xmlns="http://www.w3.org/2000/svg"><g transform="translate(0 -1019.3622)"><g fill="#262626"><path d="m26 1042.3622h5v8h-5z"/><path d="m26 1032.3622h5v8h-5z"/><path d="m26 1022.3622h5v8h-5z"/><path d="m26 1042.3622h5v8h-5z"/><path d="m26 1032.3622h5v8h-5z"/><path d="m26 1022.3622h5v8h-5z"/></g><rect fill="#fff" height="16.499983" opacity="0" rx="14.2848" stroke="#000" stroke-opacity=".54117647" width="47" x="8" y="1052.8622"/><g fill="#484848" transform="rotate(-90)"><path d="m-1033.3622 10h1.0000174v10h-1.0000174z"/><path d="m-1023.3622 15h1.0000174v5h-1.0000174z"/><path d="m-1043.3622 15h1.0000174v5h-1.0000174z"/></g><path d="m24 1051.3622v-29c0-1.108.892-2 2-2l0 0h7" fill="none" stroke="#484848" stroke-linecap="square" stroke-width="2.00000024"/></g></svg>