<svg height="22" viewBox="0 0 33 22" width="33" xmlns="http://www.w3.org/2000/svg"><g transform="translate(0 -1030.3622)"><path d="m1.0000228 12.999983h28.9999962c1.108 0 2 .892 2 1.999999l0 0v6" fill="none" stroke="#484848" stroke-linecap="square" stroke-width="2.00000024" transform="translate(0 1030.3622)"/><g transform="rotate(90)"><g fill="#262626"><path d="m1045.3622-10.000017h5v8h-5z"/><path d="m1045.3622-20.000017h5v8h-5z"/><path d="m1045.3622-30.000017h5v8h-5z"/><path d="m1045.3622-10.000017h5v8h-5z"/><path d="m1045.3622-20.000017h5v8h-5z"/><path d="m1045.3622-30.000017h5v8h-5z"/></g><rect fill="#fff" height="16.499983" opacity="0" rx="14.2848" stroke="#000" stroke-opacity=".54117647" width="47" x="1027.3622" y=".49998263"/></g><g fill="#484848"><path d="m19 1030.3622h1.0000343v8.9998608h-1.0000343z"/><path d="m29.000017 1034.3622h1.0000174v5h-1.0000174z"/><path d="m9.0000172 1034.3622h1.0000174v5h-1.0000174z"/></g></g></svg>