<svg height="23" viewBox="0 0 33 23" width="33" xmlns="http://www.w3.org/2000/svg"><g transform="translate(0 -1029.3622)"><path d="m32.000018.99998286.000001 8.00000004c0 1.1080001-.892 2.0000001-2 2.0000001l-29.0000012-.000001" fill="none" stroke="#484848" stroke-linecap="square" stroke-width="2.00000024" transform="translate(0 1029.3622)"/><g transform="rotate(90)"><g fill="#262626"><path d="m1033.3622-10.000017h5v8h-5z"/><path d="m1033.3622-20.000017h5v8h-5z"/><path d="m1033.3622-30.000017h5v8h-5z"/><path d="m1033.3622-10.000017h5v8h-5z"/><path d="m1033.3622-20.000017h5v8h-5z"/><path d="m1033.3622-30.000017h5v8h-5z"/></g><rect fill="#fff" height="16.499983" opacity="0" rx="14.2848" stroke="#000" stroke-opacity=".54117647" width="47" x="1004.3622" y=".49998263"/></g><g fill="#484848"><path d="m19.000017 1044.3622h1.0000174v8.0000172h-1.0000174z"/><path d="m9.0000172 1044.3622h1.0000174v5h-1.0000174z"/><path d="m29.000017 1044.3622h1.0000174v5h-1.0000174z"/></g></g></svg>