<?xml version="1.0" encoding="utf-8"?>
<!-- Generator: Adobe Illustrator 23.0.6, SVG Export Plug-In . SVG Version: 6.00 Build 0)  -->
<svg version="1.1" id="Capa_1" xmlns="http://www.w3.org/2000/svg" xmlns:xlink="http://www.w3.org/1999/xlink" x="0px" y="0px"
	 viewBox="0 0 72 72" style="enable-background:new 0 0 72 72;" xml:space="preserve">
<style type="text/css">
	.st0{fill:#121212;}
	.st1{fill:#1A1A1A;}
	.st2{fill:#020202;}
	.st3{fill:#131313;}
</style>
<rect class="st0" width="72" height="72"/>
<g>
	<circle class="st1" cx="36" cy="36" r="34.5"/>
	<path class="st2" d="M36,1.5c19,0,34.5,15.4,34.5,34.5S55,70.5,36,70.5S1.5,55,1.5,36S17,1.5,36,1.5 M36,0C16.1,0,0,16.1,0,36
		s16.1,36,36,36s36-16.1,36-36S55.9,0,36,0L36,0z"/>
</g>
<circle class="st3" cx="36" cy="36" r="14.1"/>
<path class="st2" d="M36,21.9c7.8,0,14.1,6.3,14.1,14.1S43.8,50.1,36,50.1S21.9,43.8,21.9,36S28.2,21.9,36,21.9 M36,21.1
	c-8.2,0-14.9,6.7-14.9,14.9S27.8,50.9,36,50.9S50.9,44.2,50.9,36S44.2,21.1,36,21.1L36,21.1z"/>
<g>
	<circle class="st2" cx="36" cy="36" r="10.8"/>
</g>
</svg>
