<?xml version="1.0" encoding="utf-8"?>
<!-- Generator: Adobe Illustrator 23.0.6, SVG Export Plug-In . SVG Version: 6.00 Build 0)  -->
<svg version="1.1" id="Capa_1" xmlns="http://www.w3.org/2000/svg" xmlns:xlink="http://www.w3.org/1999/xlink" x="0px" y="0px"
	 viewBox="0 0 116 116" style="enable-background:new 0 0 116 116;" xml:space="preserve">
<style type="text/css">
	.st0{fill:#121212;}
	.st1{fill:#1A1A1A;}
	.st2{fill:#020202;}
	.st3{fill:#131313;}
</style>
<rect class="st0" width="116" height="116"/>
<g>
	<circle class="st1" cx="58" cy="58" r="44.3"/>
	<path class="st2" d="M58,14.7c23.9,0,43.3,19.4,43.3,43.3S81.9,101.3,58,101.3S14.7,81.9,14.7,58S34.1,14.7,58,14.7 M58,12.7
		C33,12.7,12.7,33,12.7,58S33,103.3,58,103.3S103.3,83,103.3,58S83,12.7,58,12.7L58,12.7z"/>
</g>
<g>
	<circle class="st3" cx="58" cy="58" r="18.2"/>
	<path class="st2" d="M58,40.3c9.8,0,17.7,7.9,17.7,17.7S67.8,75.7,58,75.7S40.3,67.8,40.3,58S48.2,40.3,58,40.3 M58,39.3
		c-10.3,0-18.7,8.4-18.7,18.7S47.7,76.7,58,76.7S76.7,68.3,76.7,58S68.3,39.3,58,39.3L58,39.3z"/>
</g>
<g>
	<circle class="st2" cx="58" cy="58" r="13.5"/>
</g>
</svg>
