<?xml version="1.0" encoding="utf-8"?>
<!-- Generator: Adobe Illustrator 23.0.6, SVG Export Plug-In . SVG Version: 6.00 Build 0)  -->
<svg version="1.1" id="Capa_1" xmlns="http://www.w3.org/2000/svg" xmlns:xlink="http://www.w3.org/1999/xlink" x="0px" y="0px"
	 viewBox="0 0 56 300" style="enable-background:new 0 0 56 300;" xml:space="preserve">
<style type="text/css">
	.st0{fill:#61100C;}
	.st1{enable-background:new    ;}
	.st2{fill:#EAE1E1;}
</style>
<path class="st0" d="M28,0h2v300h-2V0z"/>
<circle class="st0" cx="29" cy="11" r="11"/>
<g class="st1">
	<path class="st2" d="M33.6,13c-0.1,1.2-0.5,2.2-1.4,2.9c-0.8,0.7-1.9,1.1-3.2,1.1c-1.5,0-2.6-0.5-3.4-1.5c-0.8-1-1.3-2.3-1.3-4
		v-0.7c0-1.1,0.2-2.1,0.6-2.9c0.4-0.8,0.9-1.5,1.7-1.9c0.7-0.4,1.5-0.7,2.5-0.7c1.3,0,2.4,0.4,3.2,1.1c0.8,0.7,1.3,1.7,1.4,3h-2.3
		C31.2,8.6,31,8,30.7,7.7c-0.4-0.3-0.9-0.5-1.6-0.5c-0.8,0-1.4,0.3-1.8,0.8c-0.4,0.6-0.6,1.4-0.6,2.6v0.9c0,1.2,0.2,2.1,0.6,2.7
		c0.4,0.6,1,0.9,1.8,0.9c0.7,0,1.3-0.2,1.6-0.5c0.4-0.3,0.6-0.8,0.6-1.5H33.6z"/>
</g>
</svg>
