<svg width="32" height="32" version="1.1" viewBox="0 0 8.4667 8.4667" xmlns="http://www.w3.org/2000/svg">
  <g transform="translate(-43.382,-122.5)" fill="#fff" stroke="none">
    <path d="m44.016 127.01c0.44125 0.10389 0.41078 0.0912 0.42387 0.17684 0.04426 0.28965 0.19069 0.76544 0.30322 0.9853 0.02913 0.057 0.05219 0.1115 0.05125 0.12129-9.44e-4 0.0101-0.11494 0.13136-0.25332 0.27016-0.13838 0.13879-0.25733 0.25998-0.26432 0.26932-7e-3 0.01 0.14075 0.20301 0.32832 0.43041l0.34104 0.41345 0.31369-0.21043c0.17253-0.11574 0.32117-0.2097 0.33031-0.20884 0.0092 8.8e-4 0.05715 0.0334 0.10668 0.0722 0.16253 0.12748 0.44408 0.28678 0.71445 0.40422 0.21285 0.0925 0.26672 0.12236 0.27043 0.1501 0.0026 0.0191 0.01109 0.19114 0.019 0.38242l0.01435 0.34779 0.54263 0.0478 0.54263 0.0477 0.09011-0.3674c0.04956-0.20208 0.09086-0.36927 0.09175-0.37154 9.07e-4 -2e-3 0.02126-2e-3 0.04524 7e-5 0.04522 4e-3 0.30194-0.0496 0.32529-0.0684 0.0073-6e-3 -0.12202-0.22743-0.28738-0.49237-0.21898-0.35086-0.30952-0.48192-0.3333-0.48248-0.01795-4.5e-4 -0.09451 2e-3 -0.17012 6e-3 -0.16422 0.01-0.38928-0.0258-0.61881-0.095-1.1867-0.35809-1.8404-1.6739-1.4071-2.8319 0.14176-0.37878 0.35412-0.67257 0.67605-0.93532 0.34855-0.28448 0.76265-0.45066 1.2081-0.48485 0.19377-0.0149 0.53721 0.0193 0.73384 0.0728 0.68512 0.18679 1.2567 0.72538 1.4869 1.401 0.10017 0.29404 0.13161 0.59664 0.09837 0.94653l-0.02172 0.22868 0.84891 0.84694 0.04484-0.0771c0.02466-0.0425 0.05916-0.1247 0.07666-0.18287 0.01751-0.0581 0.03619-0.10586 0.04153-0.10599 0.0053-1.3e-4 0.17592-0.01 0.37906-0.0191l0.36936-0.0188 0.05213-0.54104 0.05213-0.54103-0.36147-0.11488c-0.19881-0.0632-0.3643-0.11831-0.36775-0.12251-0.0034-4e-3 -0.02444-0.098-0.04662-0.20839-0.05372-0.26738-0.1542-0.58204-0.25539-0.79973l-0.08261-0.17772 0.27158-0.27409 0.27158-0.27407-0.34236-0.41536-0.34236-0.41537-0.31445 0.21094c-0.17295 0.11602-0.32141 0.21027-0.32991 0.20945-0.0085-8.1e-4 -0.06397-0.0382-0.12328-0.0831-0.16578-0.12544-0.42047-0.27167-0.65804-0.3778-0.1185-0.0529-0.22686-0.0976-0.24081-0.0992-0.06418-7e-3 -0.07054-0.0375-0.08748-0.41294l-0.01691-0.3749-0.54204-0.0568-0.54204-0.0567-0.08289 0.36406c-0.0456 0.20024-0.08825 0.38032-0.09481 0.40019-0.0094 0.0284-0.03836 0.0411-0.13659 0.0598-0.3257 0.0621-0.67394 0.17173-0.92832 0.29226l-0.13429 0.0637-0.11695-0.11744c-0.06431-0.0645-0.18686-0.18728-0.27232-0.27265l-0.15536-0.15523-0.41594 0.34284-0.41594 0.34283 0.21094 0.31445c0.11602 0.17295 0.21027 0.32141 0.20945 0.32991-8.18e-4 8e-3 -0.03822 0.064-0.08311 0.12328-0.12501 0.16518-0.26434 0.40806-0.3747 0.65318-0.05499 0.12213-0.10115 0.23307-0.10259 0.24655-0.0068 0.0631-0.03815 0.0697-0.41264 0.0867l-0.3749 0.0169-0.05676 0.54239-0.05676 0.54241zm2.1067-0.50477c0.0058 0.26039 0.08734 0.54454 0.21634 0.75382 0.28016 0.45452 0.87508 0.69894 1.4231 0.58467l0.09712-0.0202 0.12056 0.1157c0.8297 0.97849 1.2885 1.5188 2.2208 2.6797 0.24345 0.27387 1.0615-0.47479 0.88827-0.68774-1.3387-1.4563-1.3893-1.5315-2.3761-2.7145-0.08922-0.12512-0.07867-0.12306-0.04007-0.22729 0.12026-0.32478 0.08865-0.76414-0.07779-1.0809-0.17098-0.32537-0.42162-0.5388-0.76231-0.64913-0.19478-0.063-0.51082-0.0785-0.69974-0.0342-0.07695 0.018-0.14664 0.0383-0.15484 0.0449-0.0082 7e-3 0.16489 0.16622 0.38466 0.35468 0.49216 0.42206 0.52595 0.45493 0.56224 0.54693 0.03642 0.0923 0.0262 0.22338-0.0234 0.30028-0.07422 0.11504-0.41601 0.51942-0.47117 0.55745-0.09441 0.0651-0.24144 0.0599-0.36084-0.0125-0.03012-0.0182-0.24555-0.19802-0.47872-0.39944-0.23316-0.20141-0.42769-0.36311-0.43227-0.35934-0.01279 0.0105-0.03731 0.17979-0.03581 0.24715z" stroke-width=".017016"/>
  </g>
</svg>
