<svg width="32" height="32" version="1.1" xmlns="http://www.w3.org/2000/svg" xmlns:osb="http://www.openswatchbook.org/uri/2009/osb">
  <title>Mixxx 1.12+ iconset</title>
  <g id="a" fill="#fff">
    <path d="m27 6h2c0.554 0 1 0.446 1 1v18c0 0.554-0.446 1-1 1h-2c-0.554 0-1-0.446-1-1v-18c0-0.554 0.446-1 1-1zm-5 4h4v12h-4zm-18.844-8c-0.64633 0-1.1562 0.50992-1.1562 1.1562v6.8438h4v-3c0-0.554 0.446-1 1-1h2c0.554 0 1 0.446 1 1v18c0 0.554-0.446 1-1 1h-2c-0.554 0-1-0.446-1-1v-3h-4v6.8438c0 0.64633 0.50992 1.1562 1.1562 1.1562h17.688c0.64633 0 1.1562-0.50992 1.1562-1.1562v-25.688c0-0.64633-0.50992-1.1562-1.1562-1.1562z" color="#000000" fill="#fff"/>
  </g>
</svg>
