<?xml version="1.0" encoding="UTF-8" standalone="no"?>
<!-- Created with Inkscape (http://www.inkscape.org/) -->

<svg
   xmlns:dc="http://purl.org/dc/elements/1.1/"
   xmlns:cc="http://creativecommons.org/ns#"
   xmlns:rdf="http://www.w3.org/1999/02/22-rdf-syntax-ns#"
   xmlns:svg="http://www.w3.org/2000/svg"
   xmlns="http://www.w3.org/2000/svg"
   version="1.1"
   width="200"
   height="200"
   id="svg3969">
  <metadata
     id="metadata3981">
    <rdf:RDF>
      <cc:Work
         rdf:about="">
        <dc:format>image/svg+xml</dc:format>
        <dc:type
           rdf:resource="http://purl.org/dc/dcmitype/StillImage" />
        <dc:title></dc:title>
      </cc:Work>
    </rdf:RDF>
  </metadata>
  <defs
     id="defs3979" />
  <rect
     width="200"
     height="200"
     x="0"
     y="0"
     id="rect4571"
     style="color:#000000;fill:#3a0440;fill-opacity:1;fill-rule:nonzero;stroke:none;stroke-width:1;marker:none;visibility:visible;display:inline;overflow:visible;enable-background:accumulate" />
  <path
     d="m 99.999992,9.2232 c -50.148056,0 -90.7766,40.69484 -90.7766,90.80792 0,50.11328 40.628544,90.74568 90.7766,90.74568 50.148058,0 90.776618,-40.6324 90.776618,-90.74568 0,-50.11308 -40.62856,-90.80792 -90.776618,-90.80792 z"
     id="path8"
     style="font-weight:400;text-indent:0;text-align:start;line-height:normal;text-transform:none;block-progression:tb;color:#000000;fill:#080808;fill-opacity:1;stroke:#000000;stroke-width:4;stroke-opacity:1;marker:none;overflow:visible;font-family:Sans;-inkscape-font-specification:Sans" />
  <path
     d="m 99.999996,57.31392 c -23.574832,0 -42.686032,19.11124 -42.686032,42.68612 0,23.5748 19.1112,42.68604 42.686032,42.68604 23.574854,0 42.686044,-19.11124 42.686044,-42.68604 0,-23.57488 -19.11119,-42.68612 -42.686044,-42.68612 z"
     id="path10"
     style="fill:#414141;fill-opacity:1" />
  <path
     d="m 102.50394,100 c 0,1.38284 -1.12104,2.50396 -2.50394,2.50396 -1.382896,0 -2.50394,-1.12112 -2.50394,-2.50396 0,-1.38292 1.121044,-2.50396 2.50394,-2.50396 1.3829,0 2.50394,1.12104 2.50394,2.50396 z"
     id="path12"
     style="fill:#1a1a1a;fill-opacity:1" />
</svg>
