<?xml version="1.0" encoding="UTF-8" standalone="no"?>
<!-- Created with Inkscape (http://www.inkscape.org/) -->

<svg
   xmlns:dc="http://purl.org/dc/elements/1.1/"
   xmlns:cc="http://creativecommons.org/ns#"
   xmlns:rdf="http://www.w3.org/1999/02/22-rdf-syntax-ns#"
   xmlns:svg="http://www.w3.org/2000/svg"
   xmlns="http://www.w3.org/2000/svg"
   xmlns:sodipodi="http://sodipodi.sourceforge.net/DTD/sodipodi-0.dtd"
   xmlns:inkscape="http://www.inkscape.org/namespaces/inkscape"
   width="96"
   height="96"
   id="svg2"
   version="1.1"
   inkscape:version="0.48.4 r9939"
   sodipodi:docname="cover_default_big.svg">
  <defs
     id="defs4" />
  <sodipodi:namedview
     id="base"
     pagecolor="#ffffff"
     bordercolor="#666666"
     borderopacity="1.0"
     inkscape:pageopacity="0.0"
     inkscape:pageshadow="2"
     inkscape:zoom="2"
     inkscape:cx="1.4825945"
     inkscape:cy="82.793608"
     inkscape:document-units="px"
     inkscape:current-layer="layer1"
     showgrid="false"
     inkscape:snap-bbox="true"
     inkscape:snap-page="true"
     inkscape:window-width="1366"
     inkscape:window-height="746"
     inkscape:window-x="0"
     inkscape:window-y="0"
     inkscape:window-maximized="1" />
  <metadata
     id="metadata7">
    <rdf:RDF>
      <cc:Work
         rdf:about="">
        <dc:format>image/svg+xml</dc:format>
        <dc:type
           rdf:resource="http://purl.org/dc/dcmitype/StillImage" />
        <dc:title></dc:title>
      </cc:Work>
    </rdf:RDF>
  </metadata>
  <g
     inkscape:label="Layer 1"
     inkscape:groupmode="layer"
     id="layer1"
     transform="translate(0,-956.36218)">
    <rect
       style="fill:#333333;fill-opacity:1;stroke:none"
       id="rect4605"
       width="96"
       height="96"
       x="0"
       y="0"
       transform="translate(0,956.36218)" />
    <path
       sodipodi:type="arc"
       style="fill:#000000;fill-opacity:1;stroke:none;display:inline"
       id="path4919-6-3"
       sodipodi:cx="47.414036"
       sodipodi:cy="48.144024"
       sodipodi:rx="42.110733"
       sodipodi:ry="45.330597"
       d="m 89.524769,48.144024 c 0,25.035397 -18.853618,45.330597 -42.110733,45.330597 -23.257116,0 -42.1107332,-20.2952 -42.1107332,-45.330597 0,-25.035397 18.8536172,-45.330597 42.1107332,-45.330597 23.257115,0 42.110733,20.2952 42.110733,45.330597 z"
       transform="matrix(1.098337,0,0,1.0203213,-4.0765977,955.2398)" />
    <path
       style="font-size:medium;font-style:normal;font-variant:normal;font-weight:normal;font-stretch:normal;text-indent:0;text-align:start;text-decoration:none;line-height:normal;letter-spacing:normal;word-spacing:normal;text-transform:none;direction:ltr;block-progression:tb;writing-mode:lr-tb;text-anchor:start;baseline-shift:baseline;color:#000000;fill:#585858;fill-opacity:1;fill-rule:nonzero;stroke:none;stroke-width:0.22671224;marker:none;visibility:visible;display:inline;overflow:visible;enable-background:accumulate;font-family:Sans;-inkscape-font-specification:Sans"
       d="m 48.000001,957.99168 c -25.616581,0 -46.3704139,20.7877 -46.3704139,46.38642 0,25.5988 20.7538329,46.3546 46.3704139,46.3546 25.61658,0 46.370412,-20.7558 46.370412,-46.3546 0,-25.59872 -20.753832,-46.38642 -46.370412,-46.38642 z m 0,0.25505 c 25.471716,0 46.130153,20.64876 46.130153,46.13137 0,25.4826 -20.658437,46.1314 -46.130153,46.1314 -25.471718,0 -46.1301527,-20.6488 -46.1301527,-46.1314 0,-25.48261 20.6584347,-46.13137 46.1301527,-46.13137 z"
       id="path4919-6"
       inkscape:connector-curvature="0" />
    <path
       style="fill:#9e9e9e;fill-opacity:1;fill-rule:nonzero;stroke:none;display:inline"
       d="m 47.999985,983.23446 c -11.668502,0 -21.127701,9.4592 -21.127701,21.12774 0,11.6685 9.459199,21.1277 21.127701,21.1277 11.668513,0 21.1277,-9.4592 21.1277,-21.1277 0,-11.66854 -9.459187,-21.12774 -21.1277,-21.12774 z"
       id="path4010"
       inkscape:connector-curvature="0" />
    <path
       sodipodi:type="arc"
       style="fill:#000000;fill-opacity:1;fill-rule:nonzero;stroke:none;display:inline"
       id="path3830-7"
       sodipodi:cx="48.739861"
       sodipodi:cy="48.017754"
       sodipodi:rx="4.2931485"
       sodipodi:ry="4.2931485"
       d="m 53.033009,48.017754 c 0,2.37104 -1.922108,4.293148 -4.293148,4.293148 -2.371041,0 -4.293149,-1.922108 -4.293149,-4.293148 0,-2.371041 1.922108,-4.293149 4.293149,-4.293149 2.37104,0 4.293148,1.922108 4.293148,4.293149 z"
       transform="matrix(0.27995619,0,0,0.27995619,34.354962,990.9193)" />
    <rect
       style="fill:#333333;fill-opacity:1;stroke:none;opacity:0.5"
       id="rect4605-3"
       width="96"
       height="96"
       x="0"
       y="956.36218" />
  </g>
</svg>
