<svg xmlns="http://www.w3.org/2000/svg" width="200" height="200"><path d="M0 0v200.00002h200V0H0z" fill="#3a0440"/><path d="M89.524769 48.144024c0 25.035397-18.853618 45.330597-42.110733 45.330597-23.257116 0-42.1107332-20.2952-42.1107332-45.330597 0-25.035397 18.8536172-45.330597 42.1107332-45.330597 23.257115 0 42.110733 20.2952 42.110733 45.330597z" transform="matrix(2.2882 0 0 2.12567 -8.4929119 -2.3383)" stroke="#585858" stroke-width=".22671224"/><path d="M99.999969 55.98392c-24.309379 0-44.016044 19.70667-44.016044 44.01605 0 24.3094 19.706665 44.01604 44.016044 44.01604 24.309401 0 44.016041-19.70664 44.016041-44.01604 0-24.30938-19.70664-44.01605-44.016041-44.01605z" fill="#9e9e9e"/><path d="M102.5039199475 99.9999742397c0 1.3828902777-1.1210542487 2.5039445263-2.5039445263 2.5039445263-1.382890861 0-2.5039451096-1.1210542486-2.5039451096-2.5039445263 0-1.3828908609 1.1210542487-2.5039451096 2.5039451096-2.5039451096 1.3828902776 0 2.5039445263 1.1210542487 2.5039445263 2.5039451096z"/></svg>