<!-- Created with Inkscape (http://www.inkscape.org/) -->
<svg id="svg2" width="444" height="444" version="1.1" xmlns="http://www.w3.org/2000/svg"><path id="path4" d="m0 0h444v444h-444z" fill="#333"/><path id="path6" d="m435.91 222c0 118.14-95.773 213.91-213.91 213.91-118.14 0-213.91-95.773-213.91-213.91 0-118.14 95.773-213.91 213.91-213.91 118.14 0 213.91 95.773 213.91 213.91z" fill="#1a1a1a"/><path id="path8" d="m222 7.5364c-118.48 0-214.46 96.143-214.46 214.54 0 118.39 95.986 214.39 214.46 214.39s214.46-95.996 214.46-214.39c0-118.39-95.986-214.54-214.46-214.54zm0 1.1796c117.81 0 213.35 95.501 213.35 213.36 0 117.86-95.545 213.36-213.35 213.36s-213.35-95.501-213.35-213.36c0-117.86 95.545-213.36 213.35-213.36z" color="#000000" fill="#585858" style="block-progression:tb;text-indent:0;text-transform:none"/><path id="path10" d="m222 124.28c-53.967 0-97.716 43.749-97.716 97.716 0 53.967 43.749 97.716 97.716 97.716 53.967 0 97.716-43.749 97.716-97.716 0-53.967-43.749-97.716-97.716-97.716z" fill="#696969"/><path id="path12" d="m227.56 222c0 3.07-2.4887 5.5587-5.5588 5.5587-3.07 0-5.5588-2.4888-5.5588-5.5587 0-3.07 2.4887-5.5588 5.5588-5.5588 3.07 0 5.5588 2.4888 5.5588 5.5588z" fill="#1a1a1a"/></svg>
