<?xml version="1.0" encoding="UTF-8" standalone="no"?>
<!-- Created with Inkscape (http://www.inkscape.org/) -->

<svg
   xmlns:dc="http://purl.org/dc/elements/1.1/"
   xmlns:cc="http://creativecommons.org/ns#"
   xmlns:rdf="http://www.w3.org/1999/02/22-rdf-syntax-ns#"
   xmlns:svg="http://www.w3.org/2000/svg"
   xmlns="http://www.w3.org/2000/svg"
   xmlns:sodipodi="http://sodipodi.sourceforge.net/DTD/sodipodi-0.dtd"
   xmlns:inkscape="http://www.inkscape.org/namespaces/inkscape"
   version="1.1"
   width="200"
   height="200"
   id="svg3969"
   inkscape:version="0.48.4 r9939"
   sodipodi:docname="cover_default_mini.svg">
  <sodipodi:namedview
     pagecolor="#ffffff"
     bordercolor="#666666"
     borderopacity="1"
     objecttolerance="10"
     gridtolerance="10"
     guidetolerance="10"
     inkscape:pageopacity="0"
     inkscape:pageshadow="2"
     inkscape:window-width="1366"
     inkscape:window-height="740"
     id="namedview12"
     showgrid="false"
     inkscape:zoom="1.18"
     inkscape:cx="-43.220339"
     inkscape:cy="100"
     inkscape:window-x="0"
     inkscape:window-y="0"
     inkscape:window-maximized="1"
     inkscape:current-layer="svg3969" />
  <metadata
     id="metadata3981">
    <rdf:RDF>
      <cc:Work
         rdf:about="">
        <dc:format>image/svg+xml</dc:format>
        <dc:type
           rdf:resource="http://purl.org/dc/dcmitype/StillImage" />
        <dc:title></dc:title>
      </cc:Work>
    </rdf:RDF>
  </metadata>
  <defs
     id="defs3979" />
  <path
     d="m 89.524769,48.144024 c 0,25.035397 -18.853618,45.330597 -42.110733,45.330597 -23.257116,0 -42.1107332,-20.2952 -42.1107332,-45.330597 0,-25.035397 18.8536172,-45.330597 42.1107332,-45.330597 23.257115,0 42.110733,20.2952 42.110733,45.330597 z"
     id="path3971"
     transform="matrix(2.2882,0,0,2.12567,-8.4929119,-2.3383)" />
  <path
     d="m 99.999969,55.98392 c -24.309379,0 -44.016044,19.70667 -44.016044,44.01605 0,24.3094 19.706665,44.01604 44.016044,44.01604 24.309401,0 44.016041,-19.70664 44.016041,-44.01604 0,-24.30938 -19.70664,-44.01605 -44.016041,-44.01605 z"
     id="path3973" />
  <path
     d="m 102.50392,99.999974 c 0,1.382886 -1.12105,2.503946 -2.503945,2.503946 -1.38289,0 -2.503945,-1.12106 -2.503945,-2.503946 0,-1.382891 1.121055,-2.503945 2.503945,-2.503945 1.382895,0 2.503945,1.121054 2.503945,2.503945 z"
     id="path3975" />
  <path
     d="M 0,0 H 200 V 200 H 0 z"
     id="path4"
     style="fill:#333333" />
  <path
     d="m 100,3.3947917 c -53.367875,0 -96.6050208,43.3077083 -96.6050208,96.6383783 0,53.33083 43.2371458,96.57208 96.6050208,96.57208 53.36787,0 96.60504,-43.24125 96.60504,-96.57208 C 196.60504,46.7025 153.36787,3.3947917 100,3.3947917 z m 0,0.5313541 c 53.06608,0 96.1045,43.0182502 96.1045,96.1070242 0,53.08875 -43.03842,96.10708 -96.1045,96.10708 -53.066063,0 -96.1044792,-43.01833 -96.1044792,-96.10708 C 3.8955208,46.944396 46.933937,3.9261458 100,3.9261458 z"
     id="path8"
     style="font-weight:400;text-indent:0;text-align:start;line-height:normal;text-transform:none;block-progression:tb;color:#000000;fill:#585858;marker:none;overflow:visible;font-family:Sans;-inkscape-font-specification:Sans" />
  <path
     d="m 99.999979,55.983917 c -24.309375,0 -44.016042,19.706666 -44.016042,44.016123 0,24.30938 19.706667,44.01604 44.016042,44.01604 24.309401,0 44.016041,-19.70666 44.016041,-44.01604 0,-24.309457 -19.70664,-44.016123 -44.016041,-44.016123 z"
     id="path10"
     style="fill:#696969;fill-opacity:1" />
  <path
     d="m 102.50392,99.999979 c 0,1.382871 -1.12104,2.503941 -2.503941,2.503941 -1.382896,0 -2.503937,-1.12107 -2.503937,-2.503941 0,-1.382896 1.121041,-2.503958 2.503937,-2.503958 1.382901,0 2.503941,1.121062 2.503941,2.503958 z"
     id="path12"
     style="fill:#1a1a1a;fill-opacity:1" />
</svg>
