<?xml version="1.0" encoding="UTF-8" standalone="no"?>
<!-- Created with Inkscape (http://www.inkscape.org/) -->

<svg
   xmlns:dc="http://purl.org/dc/elements/1.1/"
   xmlns:cc="http://creativecommons.org/ns#"
   xmlns:rdf="http://www.w3.org/1999/02/22-rdf-syntax-ns#"
   xmlns:svg="http://www.w3.org/2000/svg"
   xmlns="http://www.w3.org/2000/svg"
   version="1.1"
   width="96"
   height="96"
   id="svg2">
  <metadata
     id="metadata20">
    <rdf:RDF>
      <cc:Work
         rdf:about="">
        <dc:format>image/svg+xml</dc:format>
        <dc:type
           rdf:resource="http://purl.org/dc/dcmitype/StillImage" />
        <dc:title></dc:title>
      </cc:Work>
    </rdf:RDF>
  </metadata>
  <defs
     id="defs18" />
  <path
     d="M 0,0 H 96 V 96 H 0 z"
     id="path4"
     style="fill:#333333" />
  <path
     d="m 94.251769,47.999993 c 0,25.544149 -20.707627,46.251774 -46.251777,46.251774 -25.544151,0 -46.251776,-20.707625 -46.251776,-46.251774 0,-25.544149 20.707625,-46.2517735 46.251776,-46.2517735 25.54415,0 46.251777,20.7076245 46.251777,46.2517735 z"
     id="path6"
     style="fill:#1a1a1a;fill-opacity:1" />
  <path
     d="m 48.000001,1.6295 c -25.616581,0 -46.3704139,20.7877 -46.3704139,46.38642 0,25.5988 20.7538329,46.3546 46.3704139,46.3546 25.61658,0 46.370412,-20.7558 46.370412,-46.3546 0,-25.59872 -20.753832,-46.38642 -46.370412,-46.38642 z m 0,0.25505 c 25.471716,0 46.130153,20.64876 46.130153,46.13137 0,25.4826 -20.658437,46.1314 -46.130153,46.1314 -25.471718,0 -46.1301527,-20.6488 -46.1301527,-46.1314 0,-25.48261 20.6584347,-46.13137 46.1301527,-46.13137 z"
     id="path8"
     style="font-weight:400;text-indent:0;text-align:start;line-height:normal;text-transform:none;block-progression:tb;color:#000000;fill:#585858;marker:none;overflow:visible;font-family:Sans;-inkscape-font-specification:Sans" />
  <path
     d="m 47.999985,26.87228 c -11.668502,0 -21.127701,9.4592 -21.127701,21.12774 0,11.6685 9.459199,21.1277 21.127701,21.1277 11.668513,0 21.1277,-9.4592 21.1277,-21.1277 0,-11.66854 -9.459187,-21.12774 -21.1277,-21.12774 z"
     id="path10"
     style="fill:#696969;fill-opacity:1" />
  <path
     d="m 49.201881,47.999987 c 0,0.663788 -0.538106,1.201894 -1.201893,1.201894 -0.663788,0 -1.201894,-0.538106 -1.201894,-1.201894 0,-0.663787 0.538106,-1.201893 1.201894,-1.201893 0.663787,0 1.201893,0.538106 1.201893,1.201893 z"
     id="path12"
     style="fill:#1a1a1a;fill-opacity:1" />
</svg>
