<svg xmlns="http://www.w3.org/2000/svg" width="96" height="96"><path fill="#333" d="M0 0h96v96H0z"/><path d="M94.2517685092 47.999993155c0 25.544148813-20.7076262333 46.2517736607-46.251776151 46.2517736607-25.5441510162 0-46.2517763708-20.7076248477-46.2517763708-46.2517736608 0-25.544148813 20.7076253546-46.2517736608 46.2517763707-46.2517736608 25.5441499178 0 46.251776151 20.7076248478 46.251776151 46.2517736608z"/><path style="text-indent:0;text-align:start;line-height:normal;text-transform:none;block-progression:tb;marker:none;-inkscape-font-specification:Sans" d="M48.000001 1.6295c-25.616581 0-46.3704139 20.7877-46.3704139 46.38642 0 25.5988 20.7538329 46.3546 46.3704139 46.3546 25.61658 0 46.370412-20.7558 46.370412-46.3546 0-25.59872-20.753832-46.38642-46.370412-46.38642zm0 .25505c25.471716 0 46.130153 20.64876 46.130153 46.13137 0 25.4826-20.658437 46.1314-46.130153 46.1314-25.471718 0-46.1301527-20.6488-46.1301527-46.1314 0-25.48261 20.6584347-46.13137 46.1301527-46.13137z" font-weight="400" color="#000" fill="#585858" overflow="visible" font-family="Sans"/><path d="M47.999985 26.87228c-11.668502 0-21.127701 9.4592-21.127701 21.12774 0 11.6685 9.459199 21.1277 21.127701 21.1277 11.668513 0 21.1277-9.4592 21.1277-21.1277 0-11.66854-9.459187-21.12774-21.1277-21.12774z" fill="#9e9e9e"/><path d="M49.2018811439 47.9999874622c0 .6637873247-.5381060325 1.2018933572-1.2018933572 1.2018933572-.6637876047 0-1.2018936372-.5381060325-1.2018936372-1.2018933572 0-.6637876047.5381060325-1.2018936371 1.2018936372-1.2018936371.6637873247 0 1.2018933572.5381060324 1.2018933572 1.2018936371z"/><path fill="#333" opacity=".5" d="M0 0h96v96H0z"/></svg>