<?xml version="1.0" encoding="UTF-8" standalone="no"?>
<!-- Created with Inkscape (http://www.inkscape.org/) -->

<svg
   xmlns:dc="http://purl.org/dc/elements/1.1/"
   xmlns:cc="http://creativecommons.org/ns#"
   xmlns:rdf="http://www.w3.org/1999/02/22-rdf-syntax-ns#"
   xmlns:svg="http://www.w3.org/2000/svg"
   xmlns="http://www.w3.org/2000/svg"
   version="1.1"
   width="444"
   height="444"
   id="svg2">
  <metadata
     id="metadata20">
    <rdf:RDF>
      <cc:Work
         rdf:about="">
        <dc:format>image/svg+xml</dc:format>
        <dc:type
           rdf:resource="http://purl.org/dc/dcmitype/StillImage" />
        <dc:title></dc:title>
      </cc:Work>
    </rdf:RDF>
  </metadata>
  <defs
     id="defs18" />
  <path
     d="M 0,0 H 444 V 444 H 0 z"
     id="path4"
     style="fill:#333333" />
  <path
     d="m 435.91444,221.99995 c 0,118.1417 -95.77278,213.91449 -213.91447,213.91449 -118.14171,0 -213.914471,-95.77279 -213.914471,-213.91449 0,-118.14169 95.772761,-213.9144325 213.914471,-213.9144325 118.14169,0 213.91447,95.7727425 213.91447,213.9144325 z"
     id="path6"
     style="fill:#1a1a1a;fill-opacity:1" />
  <path
     d="M 222,7.5364375 C 103.52332,7.5364375 7.5368403,103.67955 7.5368403,222.07363 7.5368403,340.46808 103.52332,436.46366 222,436.46366 c 118.47668,0 214.46316,-95.99558 214.46316,-214.39003 C 436.46316,103.67955 340.47668,7.5364375 222,7.5364375 z m 0,1.1796062 c 117.80669,0 213.35197,95.5005163 213.35197,213.3575863 0,117.85702 -95.54528,213.35772 -213.35197,213.35772 -117.80669,0 -213.3519516,-95.5007 -213.3519516,-213.35772 C 8.6480484,104.21656 104.19331,8.7160437 222,8.7160437 z"
     id="path8"
     style="font-weight:400;text-indent:0;text-align:start;line-height:normal;text-transform:none;block-progression:tb;color:#000000;fill:#585858;marker:none;overflow:visible;font-family:Sans;-inkscape-font-specification:Sans" />
  <path
     d="m 221.99993,124.2843 c -53.96682,0 -97.71561,43.74879 -97.71561,97.71579 0,53.96681 43.74879,97.71562 97.71561,97.71562 53.96687,0 97.71561,-43.7488 97.71561,-97.71562 0,-53.96699 -43.74874,-97.71579 -97.71561,-97.71579 z"
     id="path10"
     style="fill:#696969;fill-opacity:1" />
  <path
     d="m 227.55869,221.99995 c 0,3.06999 -2.48873,5.55874 -5.55875,5.55874 -3.07001,0 -5.55875,-2.48875 -5.55875,-5.55874 0,-3.07002 2.48874,-5.55878 5.55875,-5.55878 3.07002,0 5.55875,2.48876 5.55875,5.55878 z"
     id="path12"
     style="fill:#1a1a1a;fill-opacity:1" />
</svg>
