<?xml version="1.0" encoding="UTF-8" standalone="no"?>
<!-- Created with Inkscape (http://www.inkscape.org/) -->

<svg
   xmlns:dc="http://purl.org/dc/elements/1.1/"
   xmlns:cc="http://creativecommons.org/ns#"
   xmlns:rdf="http://www.w3.org/1999/02/22-rdf-syntax-ns#"
   xmlns:svg="http://www.w3.org/2000/svg"
   xmlns="http://www.w3.org/2000/svg"
   version="1.1"
   width="50"
   height="50"
   id="svg3969">
  <metadata
     id="metadata3981">
    <rdf:RDF>
      <cc:Work
         rdf:about="">
        <dc:format>image/svg+xml</dc:format>
        <dc:type
           rdf:resource="http://purl.org/dc/dcmitype/StillImage" />
        <dc:title></dc:title>
      </cc:Work>
    </rdf:RDF>
  </metadata>
  <defs
     id="defs3979" />
  <rect
     width="50"
     height="50"
     x="0"
     y="0"
     id="rect4571"
     style="color:#000000;fill:#001d33;fill-opacity:1;fill-rule:nonzero;stroke:none;stroke-width:1;marker:none;visibility:visible;display:inline;overflow:visible;enable-background:accumulate" />
  <path
     d="m 24.999998,2.305803 c -12.537014,0 -22.69415,10.173705 -22.69415,22.701982 0,12.528315 10.157136,22.686412 22.69415,22.686412 12.537015,0 22.694154,-10.158097 22.694154,-22.686412 0,-12.528277 -10.157139,-22.701982 -22.694154,-22.701982 z"
     id="path8"
     style="font-weight:400;text-indent:0;text-align:start;line-height:normal;text-transform:none;block-progression:tb;color:#000000;fill:#080808;fill-opacity:1;stroke:#000000;stroke-width:1;stroke-opacity:1;marker:none;overflow:visible;font-family:Sans;-inkscape-font-specification:Sans" />
  <path
     d="m 24.999999,14.328484 c -5.893708,0 -10.671508,4.777803 -10.671508,10.671526 0,5.893703 4.7778,10.671506 10.671508,10.671506 5.893713,0 10.67151,-4.777803 10.67151,-10.671506 0,-5.893723 -4.777796,-10.671526 -10.67151,-10.671526 z"
     id="path10"
     style="fill:#414141;fill-opacity:1" />
  <path
     d="m 25.625985,24.999995 c 0,0.34572 -0.28026,0.62599 -0.625985,0.62599 -0.345724,0 -0.625985,-0.28027 -0.625985,-0.62599 0,-0.34572 0.280261,-0.62598 0.625985,-0.62598 0.345725,0 0.625985,0.28026 0.625985,0.62598 z"
     id="path12"
     style="fill:#1a1a1a;fill-opacity:1" />
</svg>
