<!-- Created with Inkscape (http://www.inkscape.org/) -->
<svg id="svg3969" width="200" height="200" version="1.1" xmlns="http://www.w3.org/2000/svg"><rect id="rect4571" width="200" height="200" color="#000000" fill="#3a0440"/><path id="path8" d="m100 9.2232c-50.148 0-90.777 40.695-90.777 90.808 0 50.113 40.629 90.746 90.777 90.746 50.148 0 90.777-40.632 90.777-90.746 0-50.113-40.629-90.808-90.777-90.808z" color="#000000" fill="#080808" stroke="#000" stroke-width="4" style="block-progression:tb;text-indent:0;text-transform:none"/><path id="path10" d="m100 57.314c-23.575 0-42.686 19.111-42.686 42.686 0 23.575 19.111 42.686 42.686 42.686 23.575 0 42.686-19.111 42.686-42.686 0-23.575-19.111-42.686-42.686-42.686z" fill="#414141"/><path id="path12" d="m102.5 100c0 1.3828-1.121 2.504-2.5039 2.504-1.3829 0-2.5039-1.1211-2.5039-2.504 0-1.3829 1.121-2.504 2.5039-2.504 1.3829 0 2.5039 1.121 2.5039 2.504z" fill="#1a1a1a"/></svg>
