<!-- Created with Inkscape (http://www.inkscape.org/) -->
<svg id="svg2" width="31" height="3" version="1.1" xmlns="http://www.w3.org/2000/svg"><g id="layer1" transform="translate(0 -1049.4)"><rect id="use4024" transform="rotate(90)" x="1049.4" y="-31" width="3" height="1" color="#000000" fill="#f0f"/><rect id="use4026" transform="rotate(90)" x="1049.4" y="-29" width="3" height="1" color="#000000" fill="#f0f"/><rect id="use4028" transform="rotate(90)" x="1049.4" y="-27" width="3" height="1" color="#000000" fill="#f0f"/><rect id="use4030" transform="rotate(90)" x="1049.4" y="-25" width="3" height="1" color="#000000" fill="#ff0"/><rect id="use4032" transform="rotate(90)" x="1049.4" y="-23" width="3" height="1" color="#000000" fill="#ff0"/><rect id="use4034" transform="rotate(90)" x="1049.4" y="-21" width="3" height="1" color="#000000" fill="#ff0"/><rect id="use4036" transform="rotate(90)" x="1049.4" y="-19" width="3" height="1" color="#000000" fill="#ff0"/><rect id="use4038" transform="rotate(90)" x="1049.4" y="-17" width="3" height="1" color="#000000" fill="#ff0"/><rect id="use4040" transform="rotate(90)" x="1049.4" y="-15" width="3" height="1" color="#000000" fill="#ff0"/><rect id="use4042" transform="rotate(90)" x="1049.4" y="-13" width="3" height="1" color="#000000" fill="#0f0"/><rect id="use4044" transform="rotate(90)" x="1049.4" y="-11" width="3" height="1" color="#000000" fill="#0f0"/><rect id="use4046" transform="rotate(90)" x="1049.4" y="-9" width="3" height="1" color="#000000" fill="#0f0"/><rect id="use4048" transform="rotate(90)" x="1049.4" y="-7" width="3" height="1" color="#000000" fill="#0f0"/><rect id="use4050" transform="rotate(90)" x="1049.4" y="-5" width="3" height="1" color="#000000" fill="#0f0"/><rect id="use4052" transform="rotate(90)" x="1049.4" y="-3" width="3" height="1" color="#000000" fill="#0f0"/><rect id="use4054" transform="rotate(90)" x="1049.4" y="-1" width="3" height="1" color="#000000" fill="#0f0"/></g></svg>
