<!-- Created with Inkscape (http://www.inkscape.org/) -->
<svg id="svg3464" width="102" height="24" version="1.1" xmlns="http://www.w3.org/2000/svg" xmlns:xlink="http://www.w3.org/1999/xlink"><defs id="defs3466"><linearGradient id="A" x1="52.543" x2="52.543" y1=".2469" y2="93.878" gradientTransform="matrix(.26801 0 0 .26907 4.5 .0141)" gradientUnits="userSpaceOnUse"><stop id="stop3505" stop-color="#1f1f20" offset="0"/><stop id="stop3507" stop-color="#1f1f20" offset=".0055556"/><stop id="stop3509" stop-color="#58595b" offset=".63333"/><stop id="stop3511" stop-color="#a5a8aa" offset="1"/></linearGradient></defs><path id="path3631" d="m9.0745 23.993v-14.042l7.8464 11.957h0.16l7.9279-12.079v14.164h6.156v-23.979h-6.6778l-7.406 11.957-7.4023-11.957h-6.6787v23.979h6.0745zm24.829-23.979h6.1952v23.979h-6.1952v-23.979zm8.6694-0.0141 8.1929 12-8.1929 12h7.2395l4.5582-6.6998 4.588 6.6998h7.2693l4.5582-6.6998 4.5582 6.6998h7.2693l4.588-6.6998 4.5582 6.6998h7.2395l-8.1929-12 8.1929-12h-7.2395l-4.5582 6.6998-4.588-6.6998h-7.2693l-4.5582 6.67-4.5582-6.67h-7.2693l-4.588 6.6998-4.5582-6.6998h-7.2395zm36.406 5.2705 4.588 6.7295-4.588 6.7295-4.588-6.7295 4.588-6.7295zm-16.386 0.029777 4.5582 6.6998-4.5582 6.6998-4.588-6.6998 4.588-6.6998z" fill="url(#A)"/></svg>
