<!-- Created with Inkscape (http://www.inkscape.org/) -->
<svg id="svg2" width="102" height="24" version="1.1" xmlns="http://www.w3.org/2000/svg" xmlns:xlink="http://www.w3.org/1999/xlink"><defs id="defs4"><clipPath id="z"><path id="path52" transform="translate(0 .028)" d="M 0,0 H 358.182 V 89.118 H 0 V 0 z"/></clipPath><clipPath id="L"><path id="path130" transform="translate(208.82)" d="M 0,0 H 88.123 V 89.118 H 0 V 0 z"/></clipPath><clipPath id="O"><path id="path143" transform="translate(270.03)" d="M 0,0 H 88.123 V 89.118 H 0 V 0 z"/></clipPath><linearGradient id="w" x1="74.993" x2="13.486" y1="-.1462" y2="88.767" gradientTransform="matrix(.26802 0 0 .26922 76.878 .0075382)" gradientUnits="userSpaceOnUse"><stop id="stop7" stop-color="#39b549" offset=".478"/><stop id="stop9" stop-color="#1a76bc" offset="1"/></linearGradient><linearGradient id="x" x1="74.998" x2="13.488" y1="-.1501" y2="88.767" gradientTransform="matrix(.26802 0 0 .26922 44.068 .0075382)" gradientUnits="userSpaceOnUse"><stop id="stop12" stop-color="#381f1f" offset="0"/><stop id="stop14" stop-color="#3a1f20" offset=".0017"/><stop id="stop16" stop-color="#5b2825" offset=".0376"/><stop id="stop18" stop-color="#7c2f28" offset=".0757"/><stop id="stop20" stop-color="#9b2e28" offset=".1173"/><stop id="stop22" stop-color="#b62c28" offset=".1626"/><stop id="stop24" stop-color="#cc2626" offset=".2129"/><stop id="stop26" stop-color="#dc2225" offset=".271"/><stop id="stop28" stop-color="#e81f25" offset=".3438"/><stop id="stop30" stop-color="#ed1b26" offset=".478"/><stop id="stop32" stop-color="#f7921e" offset="1"/></linearGradient><linearGradient id="y" x1="74.992" x2="13.485" y1="-.1471" y2="88.766" gradientTransform="matrix(.26802 0 0 .26922 60.475 .0075382)" gradientUnits="userSpaceOnUse"><stop id="stop35" stop-color="#120e1e" offset="0"/><stop id="stop37" stop-color="#1b1426" offset=".0231"/><stop id="stop39" stop-color="#442349" offset=".1446"/><stop id="stop41" stop-color="#652866" offset=".2552"/><stop id="stop43" stop-color="#7c287b" offset=".3511"/><stop id="stop45" stop-color="#8b2589" offset=".4286"/><stop id="stop47" stop-color="#91268f" offset=".478"/><stop id="stop49" stop-color="#ed1b26" offset="1"/></linearGradient><linearGradient id="A" x1="44.061" x2="44.061" y1=".2469" y2="93.878" gradientTransform="translate(6.2234 .00029822)" gradientUnits="userSpaceOnUse"><stop id="stop55" stop-color="#1f1f20" offset="0"/><stop id="stop57" stop-color="#1f1f20" offset=".0055556"/><stop id="stop59" stop-color="#58595b" offset=".63333"/><stop id="stop61" stop-color="#a5a8aa" offset="1"/></linearGradient><linearGradient id="B" x1="44.066" x2="44.066" y1=".2469" y2="93.878" gradientTransform="translate(6.2234 .00029822)" gradientUnits="userSpaceOnUse"><stop id="stop64" stop-color="#1f1f20" offset="0"/><stop id="stop66" stop-color="#1f1f20" offset=".0055556"/><stop id="stop68" stop-color="#58595b" offset=".63333"/><stop id="stop70" stop-color="#a5a8aa" offset="1"/></linearGradient><linearGradient id="C" x1="44.066" x2="44.066" y1=".2469" y2="93.878" gradientTransform="translate(6.2234 .00029822)" gradientUnits="userSpaceOnUse"><stop id="stop73" stop-color="#1f1f20" offset="0"/><stop id="stop75" stop-color="#1f1f20" offset=".0055556"/><stop id="stop77" stop-color="#58595b" offset=".63333"/><stop id="stop79" stop-color="#a5a8aa" offset="1"/></linearGradient><linearGradient id="D" x1="11.557" x2="11.557" y1=".2469" y2="93.878" gradientTransform="translate(6.2234 .00029822)" gradientUnits="userSpaceOnUse"><stop id="stop82" stop-color="#1f1f20" offset="0"/><stop id="stop84" stop-color="#1f1f20" offset=".0055556"/><stop id="stop86" stop-color="#58595b" offset=".63333"/><stop id="stop88" stop-color="#a5a8aa" offset="1"/></linearGradient><linearGradient id="E" x1="52.543" x2="52.543" y1=".2469" y2="93.878" gradientTransform="translate(6.2234 .00029822)" gradientUnits="userSpaceOnUse"><stop id="stop91" stop-color="#1f1f20" offset="0"/><stop id="stop93" stop-color="#1f1f20" offset=".0055556"/><stop id="stop95" stop-color="#58595b" offset=".63333"/><stop id="stop97" stop-color="#a5a8aa" offset="1"/></linearGradient><linearGradient id="F" x1=".3482" x2=".3482" y1="90.637" y2="-2.3324" gradientTransform="matrix(.26803 0 0 .26923 41.413 .0075382)" gradientUnits="userSpaceOnUse"><stop id="stop100" stop-color="#fff" offset="0"/><stop id="stop102" offset="1"/></linearGradient><linearGradient id="G" x1=".348" x2=".348" y1="90.637" y2="-2.3324" gradientTransform="matrix(.26803 0 0 .26923 32.465 .0075382)" gradientUnits="userSpaceOnUse"><stop id="stop105" stop-color="#fff" offset="0"/><stop id="stop107" offset="1"/></linearGradient><linearGradient id="H" x1=".3126" x2=".3126" y1="88.656" y2="1.1722" gradientTransform="matrix(.26803 0 0 .26923 35.405 .0075379)" gradientUnits="userSpaceOnUse"><stop id="stop110" stop-color="#fff" offset="0"/><stop id="stop112" offset="1"/></linearGradient><linearGradient id="I" x1=".3121" x2=".3121" y1="88.656" y2="1.1722" gradientTransform="matrix(.26803 0 0 .26923 4.5 .0075377)" gradientUnits="userSpaceOnUse"><stop id="stop115" stop-color="#fff" offset="0"/><stop id="stop117" offset="1"/></linearGradient><linearGradient id="J" x1="30.55" x2="30.55" y1="89.118" y2="-3.2409" gradientTransform="matrix(.26803 0 0 .26923 51.314 .0075382)" gradientUnits="userSpaceOnUse"><stop id="stop120" stop-color="#fff" offset="0"/><stop id="stop122" offset="1"/></linearGradient><linearGradient id="K" x1="30.548" x2="30.548" y1="90.026" y2=".1055" gradientTransform="matrix(.26803 0 0 .26923 44.071 .0075382)" gradientUnits="userSpaceOnUse"><stop id="stop125" stop-color="#fff" offset="0"/><stop id="stop127" offset="1"/></linearGradient><linearGradient id="M" x1="30.55" x2="30.55" y1="89.118" y2="-3.2412" gradientTransform="translate(6.2234 .00029822)" gradientUnits="userSpaceOnUse"><stop id="stop133" stop-color="#fff" offset="0"/><stop id="stop135" offset="1"/></linearGradient><linearGradient id="N" x1="30.549" x2="30.549" y1="90.025" y2=".1052" gradientTransform="translate(6.2234 .00029822)" gradientUnits="userSpaceOnUse"><stop id="stop138" stop-color="#fff" offset="0"/><stop id="stop140" offset="1"/></linearGradient><linearGradient id="P" x1="30.549" x2="30.549" y1="89.118" y2="-3.2412" gradientTransform="translate(6.2234 .00029822)" gradientUnits="userSpaceOnUse"><stop id="stop146" stop-color="#fff" offset="0"/><stop id="stop148" offset="1"/></linearGradient><linearGradient id="Q" x1="30.549" x2="30.549" y1="90.025" y2=".1052" gradientTransform="translate(6.2234 .00029822)" gradientUnits="userSpaceOnUse"><stop id="stop151" stop-color="#fff" offset="0"/><stop id="stop153" offset="1"/></linearGradient><linearGradient id="R" x1=".2917" x2=".2917" y1="52.64" y2="-37.899" gradientTransform="matrix(.26803 0 0 .26923 26.509 9.8282)" gradientUnits="userSpaceOnUse"><stop id="stop156" stop-color="#fff" offset="0"/><stop id="stop158" offset="1"/></linearGradient><linearGradient id="S" x1=".2481" x2=".2481" y1="52.916" y2="-35.326" gradientTransform="matrix(.26803 0 0 .26923 10.44 9.7539)" gradientUnits="userSpaceOnUse"><stop id="stop161" stop-color="#fff" offset="0"/><stop id="stop163" offset="1"/></linearGradient><linearGradient id="T" x1="27.626" x2="27.626" y1="89.12" y2=".1302" gradientTransform="matrix(.26803 0 0 .26923 11.179 .0075382)" gradientUnits="userSpaceOnUse"><stop id="stop166" stop-color="#fff" offset="0"/><stop id="stop168" offset="1"/></linearGradient><linearGradient id="U" x1="29.726" x2="29.726" y1="53.389" y2="-36.621" gradientTransform="matrix(.26803 0 0 .26923 10.575 9.8282)" gradientUnits="userSpaceOnUse"><stop id="stop171" stop-color="#fff" offset="0"/><stop id="stop173" offset="1"/></linearGradient></defs><path id="path197" d="m75.21 24 16.379-23.992h7.2398l-16.376 23.992h-7.2427z" fill="url(#w)"/><path id="path199" d="m42.4 24 16.378-23.992h7.2438l-16.376 23.992h-7.2457z" fill="url(#x)"/><path id="path201" d="m58.807 24 16.379-23.992h7.24l-16.376 23.992h-7.2424z" fill="url(#y)"/><g id="g203" transform="matrix(.26802 0 0 .26922 2.832 -8.03e-5)" clip-path="url(#z)"><path id="path205" transform="translate(147.64 .028)" d="M 88.123,89.118 27.023,0 H 0 l 61.096,89.118 h 27.027 z" fill="url(#A)"/><path id="path207" transform="translate(208.84 .028)" d="M 88.133,89.118 27.022,0 H 0 l 61.11,89.118 h 27.023 z" fill="url(#B)"/><path id="path209" transform="translate(270.05 .028)" d="M 88.134,89.118 27.023,0 H 0 l 61.111,89.118 h 27.023 z" fill="url(#C)"/><path id="path211" transform="translate(115.31 .028)" d="M 0,0 H 23.115 V 89.118 H 0 V 0 z" fill="url(#D)" fill-rule="evenodd"/><path id="path213" transform="translate(0 .028)" d="m22.665 89.118v-52.188l29.276 44.438h0.597l29.58-44.89v52.64h22.969v-89.118h-24.916l-27.633 44.437-27.619-44.437h-24.919v89.118h22.665z" fill="url(#E)"/></g><path id="path215" d="m39.932 24v-23.993h-0.18654l0.18654 23.993z" fill="url(#F)"/><path id="path217" d="m30.984 24v-23.993h-0.18681l0.18681 23.993z" fill="url(#G)"/><path id="path219" d="m33.904 24-0.16751-23.993v23.993h0.16751z" fill="url(#H)"/><path id="path221" d="m2.9995 24-0.16751-23.993v23.993h0.16751z" fill="url(#I)"/><path id="path223" d="m66.022 24-16.376-23.993 16.222 23.993h0.15438z" fill="url(#J)"/><path id="path225" d="m42.623 0.0074579h-0.22004l16.375 23.993-16.155-23.993z" fill="url(#K)"/><g id="g227" transform="matrix(.26802 0 0 .26922 2.832 -8.03e-5)" clip-path="url(#L)"><path id="path229" transform="translate(235.85)" d="M 61.1,89.118 0,0 60.525,89.118 H 61.1 z" fill="url(#M)"/><path id="path231" transform="translate(208.82)" d="M 0.822,0 H 0 L 61.097,89.118 0.822,0 z" fill="url(#N)"/></g><g id="g233" transform="matrix(.26802 0 0 .26922 2.8387 .0074579)" clip-path="url(#O)"><path id="path235" transform="translate(297.06)" d="M 61.1,89.118 0,0 60.525,89.118 H 61.1 z" fill="url(#P)"/><path id="path237" transform="translate(270.03)" d="M 0.821,0 H 0 L 61.097,89.118 0.821,0 z" fill="url(#Q)"/></g><path id="path239" d="m24.841 9.8281v14.172h0.15626l-0.15626-14.172z" fill="url(#R)"/><path id="path241" d="m8.9054 24v-14.05l-0.13321-0.19599 0.13321 14.246z" fill="url(#S)"/><path id="path243" d="m16.914 12.147 7.4054-12.139-7.4062 11.963-7.4025-11.963 7.4033 12.139z" fill="url(#T)"/><path id="path245" d="m8.9067 9.9498 7.8466 11.964h0.16001l7.9281-12.085-8.0004 11.999-7.9342-11.878z" fill="url(#U)"/></svg>
