<?xml version="1.0" encoding="UTF-8" standalone="no"?>
<svg
   xmlns:dc="http://purl.org/dc/elements/1.1/"
   xmlns:cc="http://creativecommons.org/ns#"
   xmlns:rdf="http://www.w3.org/1999/02/22-rdf-syntax-ns#"
   xmlns:svg="http://www.w3.org/2000/svg"
   xmlns="http://www.w3.org/2000/svg"
   xmlns:sodipodi="http://sodipodi.sourceforge.net/DTD/sodipodi-0.dtd"
   xmlns:inkscape="http://www.inkscape.org/namespaces/inkscape"
   inkscape:version="1.0 (4035a4fb49, 2020-05-01)"
   sodipodi:docname="mainmenu.svg"
   height="32px"
   id="Layer_1"
   style="enable-background:new 0 0 32 32;"
   version="1.1"
   viewBox="0 0 32 32"
   width="32px"
   xml:space="preserve"><sodipodi:namedview
     inkscape:current-layer="Layer_1"
     inkscape:window-maximized="1"
     inkscape:window-y="32"
     inkscape:window-x="2560"
     inkscape:cy="21.120896"
     inkscape:cx="19.121806"
     inkscape:zoom="20.218835"
     showgrid="false"
     id="namedview1048"
     inkscape:window-height="2075"
     inkscape:window-width="3840"
     inkscape:pageshadow="2"
     inkscape:pageopacity="0"
     guidetolerance="10"
     gridtolerance="10"
     objecttolerance="10"
     borderopacity="1"
     bordercolor="#666666"
     pagecolor="#ffffff" /><metadata
     id="metadata7612"><rdf:RDF><cc:Work
         rdf:about=""><dc:format>image/svg+xml</dc:format><dc:type
           rdf:resource="http://purl.org/dc/dcmitype/StillImage" /><dc:title></dc:title></cc:Work></rdf:RDF></metadata><defs
     id="defs7610" /><path
     d="M4,10h24c1.104,0,2-0.896,2-2s-0.896-2-2-2H4C2.896,6,2,6.896,2,8S2.896,10,4,10z M28,14H4c-1.104,0-2,0.896-2,2  s0.896,2,2,2h24c1.104,0,2-0.896,2-2S29.104,14,28,14z M28,22H4c-1.104,0-2,0.896-2,2s0.896,2,2,2h24c1.104,0,2-0.896,2-2  S29.104,22,28,22z"
     id="path7605"
     style="fill:#ff7100;fill-opacity:1" /><path
     id="path1835"
     d="M 3.5052123,9.9164844 C 3.1229194,9.8131775 2.8651356,9.6664427 2.5998037,9.4011108 1.4269549,8.2282619 2.1232805,6.2462151 3.7834267,6.0320027 4.256447,5.9709678 27.814407,5.9762281 28.246961,6.0374652 c 0.903166,0.1278621 1.562232,0.7778062 1.719074,1.6952825 0.0428,0.2503698 0.03681,0.3761038 -0.03283,0.6887165 -0.147903,0.6639623 -0.584876,1.1756091 -1.230273,1.4405124 l -0.258136,0.1059519 -12.339979,0.00936 C 5.5849022,9.9852628 3.7265448,9.9762949 3.5052123,9.9164844 Z"
     style="fill:#5efc49;fill-opacity:0.0182767;stroke:none;stroke-width:0.0934655;stroke-linecap:butt;stroke-linejoin:round;stroke-miterlimit:4;stroke-dasharray:none;stroke-dashoffset:0;stroke-opacity:1;paint-order:normal" /><path
     id="path1837"
     d="M 3.5052123,9.9164844 C 2.9069718,9.754822 2.4576022,9.3788613 2.1917073,8.8175532 2.0474524,8.5130291 2.0340454,8.443482 2.03686,8.0143046 2.0409358,7.3928119 2.1599725,7.0823089 2.5567743,6.6581265 2.8984519,6.2928721 3.2830318,6.0965698 3.7834267,6.0320027 4.256447,5.9709678 27.814407,5.9762281 28.246961,6.0374652 c 0.903166,0.1278621 1.562232,0.7778062 1.719074,1.6952825 0.0428,0.2503698 0.03681,0.3761038 -0.03283,0.6887165 -0.147903,0.6639623 -0.584876,1.1756091 -1.230273,1.4405124 l -0.258136,0.1059519 -12.339979,0.00936 C 5.5849022,9.9852628 3.7265448,9.9762949 3.5052123,9.9164844 Z"
     style="fill:#5efc49;fill-opacity:0.0182767;stroke:none;stroke-width:0.0934655;stroke-linecap:butt;stroke-linejoin:round;stroke-miterlimit:4;stroke-dasharray:none;stroke-dashoffset:0;stroke-opacity:1;paint-order:normal" /><path
     id="path1839"
     d="M 3.5052123,9.916237 C 2.9075234,9.7552932 2.4576763,9.3790178 2.1917073,8.8175532 2.0474524,8.5130291 2.0340454,8.443482 2.03686,8.0143046 2.0392635,7.6478137 2.064668,7.4815045 2.1523359,7.258347 2.3085068,6.8608161 2.7185338,6.4286594 3.1332437,6.2244983 3.4232375,6.0817349 3.5196364,6.061423 4.0560802,6.0300505 4.8500415,5.9836178 26.622738,5.9835211 27.702914,6.0299455 c 0.757939,0.032575 0.868461,0.048837 1.121486,0.1650163 0.814239,0.3738664 1.30113,1.304386 1.126921,2.1537097 C 29.789643,9.1369046 29.248185,9.7200896 28.496229,9.9158978 28.233496,9.984313 26.873135,9.9923041 15.983143,9.989403 5.6174731,9.9866416 3.7254714,9.9755476 3.5052123,9.916237 Z"
     style="fill:#5efc49;fill-opacity:0.0182767;stroke:none;stroke-width:0.0934655;stroke-linecap:butt;stroke-linejoin:round;stroke-miterlimit:4;stroke-dasharray:none;stroke-dashoffset:0;stroke-opacity:1;paint-order:normal" /><path
     id="path1841"
     d="M 3.4928143,9.913368 C 2.9050896,9.7561219 2.4746989,9.3889589 2.1943356,8.8056459 2.0577482,8.5214676 2.039468,8.4325116 2.0367985,8.039034 2.0343832,7.6830154 2.0577276,7.5307811 2.1534091,7.278589 2.314995,6.8526895 2.7012404,6.4371729 3.1332437,6.2244983 3.4232375,6.0817349 3.5196364,6.061423 4.0560802,6.0300505 4.8495376,5.9836472 26.62026,5.9835069 27.709344,6.0298981 c 0.817985,0.034843 0.858283,0.041531 1.167475,0.1937456 0.702526,0.3458524 1.145813,1.1033534 1.100364,1.8803307 -0.05365,0.91725 -0.709814,1.6707781 -1.600961,1.838533 C 28.20042,9.9756015 23.969898,9.9915509 15.937325,9.989403 5.3853707,9.9865814 3.7286232,9.9764588 3.4928143,9.913368 Z"
     style="fill:#5efc49;fill-opacity:0.0182767;stroke:none;stroke-width:0.0934655;stroke-linecap:butt;stroke-linejoin:round;stroke-miterlimit:4;stroke-dasharray:none;stroke-dashoffset:0;stroke-opacity:1;paint-order:normal" /><path
     id="path1843"
     d="M 3.5939725,9.9389225 C 3.0062649,9.8229392 2.4804497,9.4022818 2.204523,8.8273491 2.05675,8.519443 2.0395079,8.4384042 2.0367985,8.039034 2.0343832,7.6830154 2.0577276,7.5307811 2.1534091,7.278589 2.3156834,6.8508752 2.7010157,6.4373054 3.1375797,6.2222974 3.4584524,6.0642675 3.4838731,6.0601077 4.2829809,6.0348686 c 1.2500646,-0.039482 21.7769331,-0.04382 23.0984511,-0.00488 1.113718,0.032816 1.17401,0.03967 1.442968,0.1640505 1.030758,0.4766751 1.445452,1.6946691 0.929043,2.7286787 -0.164711,0.3298018 -0.651801,0.7730168 -1.014903,0.9234852 l -0.293744,0.1217264 -12.315249,0.00724 C 9.2144546,9.9792296 3.717686,9.9633371 3.5939725,9.9389225 Z"
     style="fill:#aa4400;fill-opacity:0.0182767;stroke:none;stroke-width:0.0934655;stroke-linecap:butt;stroke-linejoin:round;stroke-miterlimit:4;stroke-dasharray:none;stroke-dashoffset:0;stroke-opacity:1;paint-order:normal" /><path
     id="path1845"
     d="M 3.5939725,9.9386309 C 2.582546,9.7403658 1.866558,8.6948373 2.0522115,7.6872593 2.1744551,7.0238194 2.5943007,6.470223 3.185276,6.193233 L 3.4680848,6.0606806 6.0646737,6.0251899 c 2.7985094,-0.038251 19.2076113,-0.029938 21.2425693,0.010761 1.230698,0.024614 1.237786,0.025375 1.518001,0.1629808 0.595725,0.2925434 0.971461,0.7711948 1.10375,1.4060684 0.221576,1.0633833 -0.49463,2.1364615 -1.560906,2.3386767 -0.325913,0.061808 -24.4581419,0.056893 -24.7741155,-0.00505 z"
     style="fill:#aa4400;fill-opacity:0.0182767;stroke:none;stroke-width:0.0934655;stroke-linecap:butt;stroke-linejoin:round;stroke-miterlimit:4;stroke-dasharray:none;stroke-dashoffset:0;stroke-opacity:1;paint-order:normal" /><path
     id="path1847"
     d="M 3.6239043,9.9410688 C 2.8517712,9.8105731 2.2012014,9.141434 2.0485859,8.3207859 1.8941236,7.490207 2.3872146,6.5672843 3.185276,6.193233 L 3.4680848,6.0606806 8.7935323,6.0217655 c 2.9289957,-0.021403 8.5710127,-0.021141 12.5378147,5.831e-4 l 7.212367,0.039498 0.296753,0.1447552 c 1.515604,0.7393072 1.493286,2.8759643 -0.03754,3.5934676 l -0.358134,0.1678589 -12.29052,0.00684 C 9.3944897,9.978528 3.7558224,9.9633638 3.6239043,9.9410688 Z"
     style="fill:#aa4400;fill-opacity:0.0182767;stroke:none;stroke-width:0.0934655;stroke-linecap:butt;stroke-linejoin:round;stroke-miterlimit:4;stroke-dasharray:none;stroke-dashoffset:0;stroke-opacity:1;paint-order:normal" /><path
     id="path1849"
     d="M 3.6524621,9.9425886 C 2.8729777,9.8280654 2.202884,9.1504821 2.0485859,8.3207859 1.8941236,7.490207 2.3872146,6.5672843 3.185276,6.193233 l 0.2828088,-0.1325524 6.0834367,-0.02688 c 3.3458905,-0.014784 8.9879065,-0.014784 12.5378145,0 l 6.454378,0.02688 0.296753,0.1453383 c 1.514226,0.7416104 1.491922,2.8771863 -0.03754,3.5940507 l -0.358134,0.1678589 -12.265791,0.00649 C 9.4328203,9.9779805 3.7958758,9.9636592 3.6524621,9.9425886 Z"
     style="fill:#ff7100;fill-opacity:1;stroke:none;stroke-width:0.0934655;stroke-linecap:butt;stroke-linejoin:round;stroke-miterlimit:4;stroke-dasharray:none;stroke-dashoffset:0;stroke-opacity:1;paint-order:normal" /></svg>
