<svg xmlns:rdf="http://www.w3.org/1999/02/22-rdf-syntax-ns#" xmlns="http://www.w3.org/2000/svg" height="106" width="50" version="1.1" xmlns:cc="http://creativecommons.org/ns#" xmlns:dc="http://purl.org/dc/elements/1.1/">
 <metadata>
  <rdf:RDF>
   <cc:Work rdf:about="">
    <dc:format>image/svg+xml</dc:format>
    <dc:type rdf:resource="http://purl.org/dc/dcmitype/StillImage"/>
    <dc:title/>
   </cc:Work>
  </rdf:RDF>
 </metadata>
 <g fill="#6e6e6e" transform="translate(-0.35355339,0)">
  <g style="letter-spacing:0px;word-spacing:0px;" font-weight="normal" transform="translate(102.08854,35.001786)" font-size="40px" font-stretch="normal" line-height="125%" font-variant="normal" font-family="Ubuntu" font-style="normal">
   <path d="m-65.383-26.158973c-0.000007,0.364002-0.06501,0.702002-0.195,1.014-0.12134,0.303334-0.307673,0.572001-0.559,0.806-0.242672,0.225334-0.550339,0.398667-0.923,0.52-0.372671,0.13-0.801671,0.195-1.287,0.195-0.563336,0-1.035669-0.078-1.417-0.234-0.372669-0.164666-0.671668-0.368333-0.897-0.611-0.225334-0.242666-0.385668-0.506999-0.481-0.793-0.09533-0.294665-0.143001-0.571998-0.143-0.832-0.000001-0.251331,0.039-0.489664,0.117-0.715,0.08667-0.233997,0.194999-0.450663,0.325-0.65,0.138665-0.19933,0.294665-0.376996,0.468-0.533,0.181998-0.164662,0.372665-0.307662,0.572-0.429-0.849335-0.485328-1.274001-1.200328-1.274-2.145-0.000001-0.329326,0.065-0.641326,0.195-0.936,0.129999-0.303325,0.311999-0.567658,0.546-0.793,0.242665-0.225325,0.532998-0.402991,0.871-0.533,0.337997-0.138658,0.714997-0.207991,1.131-0.208,0.485329,0.000009,0.901329,0.07368,1.248,0.221,0.346661,0.147342,0.628328,0.338009,0.845,0.572,0.225327,0.225342,0.385661,0.476675,0.481,0.754,0.103994,0.277341,0.155994,0.546007,0.156,0.806-0.000006,0.25134-0.03901,0.489673-0.117,0.715-0.06934,0.216673-0.169006,0.420339-0.299,0.611-0.121339,0.190672-0.264339,0.359672-0.429,0.507-0.156005,0.147338-0.320672,0.277338-0.494,0.39,1.022661,0.485337,1.54266,1.252337,1.56,2.301m-4.68,0.078c-0.000002,0.156002,0.026,0.320669,0.078,0.494,0.06067,0.164668,0.160331,0.320668,0.299,0.468,0.138664,0.138668,0.316331,0.255668,0.533,0.351,0.216664,0.09533,0.489663,0.143001,0.819,0.143,0.294663,0.000001,0.550329-0.04333,0.767-0.13,0.225329-0.08667,0.407328-0.194999,0.546-0.325,0.138662-0.138665,0.242661-0.294665,0.312-0.468,0.06933-0.173331,0.103995-0.350998,0.104-0.533-0.000005-0.277331-0.052-0.519997-0.156-0.728-0.104005-0.207997-0.255672-0.389997-0.455-0.546-0.190671-0.155996-0.424671-0.285996-0.702-0.39-0.26867-0.112663-0.576337-0.207996-0.923-0.286-0.390003,0.216671-0.693336,0.485337-0.91,0.806-0.208002,0.32067-0.312002,0.702003-0.312,1.144m3.25-4.615c-0.000005-0.129993-0.03034-0.272993-0.091-0.429-0.05201-0.155993-0.138672-0.298992-0.26-0.429-0.121338-0.138659-0.277338-0.251325-0.468-0.338-0.190671-0.09532-0.424671-0.142992-0.702-0.143-0.277337,0.000008-0.51567,0.04334-0.715,0.13-0.190669,0.08667-0.346669,0.199341-0.468,0.338-0.121336,0.130008-0.212336,0.277341-0.273,0.442-0.052,0.156007-0.078,0.312007-0.078,0.468-0.000002,0.190673,0.03466,0.38134,0.104,0.572,0.06933,0.190673,0.177664,0.368339,0.325,0.533,0.147331,0.164672,0.337997,0.312005,0.572,0.442,0.242663,0.130005,0.528663,0.234005,0.858,0.312,0.363996-0.216661,0.654329-0.467995,0.871-0.754,0.216662-0.294661,0.324995-0.675994,0.325-1.144"/>
   <path d="m-64.012109-30.630973c-0.000001-0.389993,0.052-0.732326,0.156-1.027,0.103999-0.294659,0.246999-0.541658,0.429-0.741,0.190665-0.207991,0.411665-0.363991,0.663-0.468,0.251331-0.103991,0.524331-0.155991,0.819-0.156,0.294663,0.000009,0.567663,0.05201,0.819,0.156,0.251329,0.104009,0.467996,0.260009,0.65,0.468,0.190662,0.199342,0.337995,0.446341,0.442,0.741,0.103995,0.294674,0.155995,0.637007,0.156,1.027-0.000005,0.390006-0.05201,0.732339-0.156,1.027-0.104005,0.294672-0.251338,0.546005-0.442,0.754-0.182004,0.199338-0.398671,0.351005-0.65,0.455-0.251337,0.104004-0.524337,0.156004-0.819,0.156-0.294669,0.000004-0.567669-0.052-0.819-0.156-0.251335-0.103995-0.472335-0.255662-0.663-0.455-0.182001-0.207995-0.325001-0.459328-0.429-0.754-0.104001-0.294661-0.156001-0.636994-0.156-1.027m3.12,0c-0.000004-0.467993-0.091-0.831992-0.273-1.092-0.182004-0.268659-0.442003-0.402992-0.78-0.403-0.338003,0.000008-0.598002,0.134341-0.78,0.403-0.182002,0.260008-0.273002,0.624007-0.273,1.092-0.000002,0.468006,0.091,0.836339,0.273,1.105,0.181998,0.260005,0.441997,0.390005,0.78,0.39,0.337997,0.000005,0.597996-0.129995,0.78-0.39,0.181996-0.268661,0.272996-0.636994,0.273-1.105m2.6,4.615c-0.000007-0.389997,0.05199-0.73233,0.156-1.027,0.103993-0.294663,0.246993-0.541663,0.429-0.741,0.190659-0.207996,0.411659-0.363996,0.663-0.468,0.251325-0.103995,0.524325-0.155995,0.819-0.156,0.294658,0.000005,0.567657,0.052,0.819,0.156,0.251323,0.104004,0.46799,0.260004,0.65,0.468,0.190656,0.199337,0.337989,0.446337,0.442,0.741,0.103989,0.29467,0.155989,0.637003,0.156,1.027-0.000011,0.390002-0.05201,0.732335-0.156,1.027-0.104011,0.294668-0.251344,0.546001-0.442,0.754-0.18201,0.199334-0.398677,0.351-0.65,0.455-0.251343,0.104-0.524342,0.156-0.819,0.156-0.294675,0-0.567675-0.052-0.819-0.156-0.251341-0.104-0.472341-0.255666-0.663-0.455-0.182007-0.207999-0.325007-0.459332-0.429-0.754-0.104007-0.294665-0.156007-0.636998-0.156-1.027m3.12,0c-0.00001-0.467997-0.09101-0.831997-0.273-1.092-0.182009-0.268663-0.442009-0.402996-0.78-0.403-0.338008,0.000004-0.598008,0.134337-0.78,0.403-0.182008,0.260003-0.273008,0.624003-0.273,1.092-0.000008,0.468002,0.09099,0.836335,0.273,1.105,0.181992,0.260001,0.441992,0.390001,0.78,0.39,0.337991,0.000001,0.597991-0.129999,0.78-0.39,0.18199-0.268665,0.27299-0.636998,0.273-1.105m-0.78-6.812-5.083,9.009-1.183,0,5.083-9.009,1.183,0"/>
  </g>
  <path d="m9.901172,6.106313,5.376515,0,0,1.131-5.376515,0,0-1.131"/>
 </g>
 <g fill="#6e6e6e" transform="translate(-0.35355339,109.9551)">
  <path d="m9.901172-11.77,2.457,0,0-2.678,1.04,0,0,2.678,2.457,0,0,1.027-2.457,0,0,2.691-1.04,0,0-2.691-2.457,0,0-1.027"/>
  <g style="letter-spacing:0px;word-spacing:0px;" font-weight="normal" transform="translate(102.08854,17.079973)" font-size="40px" font-stretch="normal" line-height="125%" font-variant="normal" font-family="Ubuntu" font-style="normal">
   <path d="m-65.383-26.158973c-0.000007,0.364002-0.06501,0.702002-0.195,1.014-0.12134,0.303334-0.307673,0.572001-0.559,0.806-0.242672,0.225334-0.550339,0.398667-0.923,0.52-0.372671,0.13-0.801671,0.195-1.287,0.195-0.563336,0-1.035669-0.078-1.417-0.234-0.372669-0.164666-0.671668-0.368333-0.897-0.611-0.225334-0.242666-0.385668-0.506999-0.481-0.793-0.09533-0.294665-0.143001-0.571998-0.143-0.832-0.000001-0.251331,0.039-0.489664,0.117-0.715,0.08667-0.233997,0.194999-0.450663,0.325-0.65,0.138665-0.19933,0.294665-0.376996,0.468-0.533,0.181998-0.164662,0.372665-0.307662,0.572-0.429-0.849335-0.485328-1.274001-1.200328-1.274-2.145-0.000001-0.329326,0.065-0.641326,0.195-0.936,0.129999-0.303325,0.311999-0.567658,0.546-0.793,0.242665-0.225325,0.532998-0.402991,0.871-0.533,0.337997-0.138658,0.714997-0.207991,1.131-0.208,0.485329,0.000009,0.901329,0.07368,1.248,0.221,0.346661,0.147342,0.628328,0.338009,0.845,0.572,0.225327,0.225342,0.385661,0.476675,0.481,0.754,0.103994,0.277341,0.155994,0.546007,0.156,0.806-0.000006,0.25134-0.03901,0.489673-0.117,0.715-0.06934,0.216673-0.169006,0.420339-0.299,0.611-0.121339,0.190672-0.264339,0.359672-0.429,0.507-0.156005,0.147338-0.320672,0.277338-0.494,0.39,1.022661,0.485337,1.54266,1.252337,1.56,2.301m-4.68,0.078c-0.000002,0.156002,0.026,0.320669,0.078,0.494,0.06067,0.164668,0.160331,0.320668,0.299,0.468,0.138664,0.138668,0.316331,0.255668,0.533,0.351,0.216664,0.09533,0.489663,0.143001,0.819,0.143,0.294663,0.000001,0.550329-0.04333,0.767-0.13,0.225329-0.08667,0.407328-0.194999,0.546-0.325,0.138662-0.138665,0.242661-0.294665,0.312-0.468,0.06933-0.173331,0.103995-0.350998,0.104-0.533-0.000005-0.277331-0.052-0.519997-0.156-0.728-0.104005-0.207997-0.255672-0.389997-0.455-0.546-0.190671-0.155996-0.424671-0.285996-0.702-0.39-0.26867-0.112663-0.576337-0.207996-0.923-0.286-0.390003,0.216671-0.693336,0.485337-0.91,0.806-0.208002,0.32067-0.312002,0.702003-0.312,1.144m3.25-4.615c-0.000005-0.129993-0.03034-0.272993-0.091-0.429-0.05201-0.155993-0.138672-0.298992-0.26-0.429-0.121338-0.138659-0.277338-0.251325-0.468-0.338-0.190671-0.09532-0.424671-0.142992-0.702-0.143-0.277337,0.000008-0.51567,0.04334-0.715,0.13-0.190669,0.08667-0.346669,0.199341-0.468,0.338-0.121336,0.130008-0.212336,0.277341-0.273,0.442-0.052,0.156007-0.078,0.312007-0.078,0.468-0.000002,0.190673,0.03466,0.38134,0.104,0.572,0.06933,0.190673,0.177664,0.368339,0.325,0.533,0.147331,0.164672,0.337997,0.312005,0.572,0.442,0.242663,0.130005,0.528663,0.234005,0.858,0.312,0.363996-0.216661,0.654329-0.467995,0.871-0.754,0.216662-0.294661,0.324995-0.675994,0.325-1.144"/>
   <path d="m-64.012109-30.630973c-0.000001-0.389993,0.052-0.732326,0.156-1.027,0.103999-0.294659,0.246999-0.541658,0.429-0.741,0.190665-0.207991,0.411665-0.363991,0.663-0.468,0.251331-0.103991,0.524331-0.155991,0.819-0.156,0.294663,0.000009,0.567663,0.05201,0.819,0.156,0.251329,0.104009,0.467996,0.260009,0.65,0.468,0.190662,0.199342,0.337995,0.446341,0.442,0.741,0.103995,0.294674,0.155995,0.637007,0.156,1.027-0.000005,0.390006-0.05201,0.732339-0.156,1.027-0.104005,0.294672-0.251338,0.546005-0.442,0.754-0.182004,0.199338-0.398671,0.351005-0.65,0.455-0.251337,0.104004-0.524337,0.156004-0.819,0.156-0.294669,0.000004-0.567669-0.052-0.819-0.156-0.251335-0.103995-0.472335-0.255662-0.663-0.455-0.182001-0.207995-0.325001-0.459328-0.429-0.754-0.104001-0.294661-0.156001-0.636994-0.156-1.027m3.12,0c-0.000004-0.467993-0.091-0.831992-0.273-1.092-0.182004-0.268659-0.442003-0.402992-0.78-0.403-0.338003,0.000008-0.598002,0.134341-0.78,0.403-0.182002,0.260008-0.273002,0.624007-0.273,1.092-0.000002,0.468006,0.091,0.836339,0.273,1.105,0.181998,0.260005,0.441997,0.390005,0.78,0.39,0.337997,0.000005,0.597996-0.129995,0.78-0.39,0.181996-0.268661,0.272996-0.636994,0.273-1.105m2.6,4.615c-0.000007-0.389997,0.05199-0.73233,0.156-1.027,0.103993-0.294663,0.246993-0.541663,0.429-0.741,0.190659-0.207996,0.411659-0.363996,0.663-0.468,0.251325-0.103995,0.524325-0.155995,0.819-0.156,0.294658,0.000005,0.567657,0.052,0.819,0.156,0.251323,0.104004,0.46799,0.260004,0.65,0.468,0.190656,0.199337,0.337989,0.446337,0.442,0.741,0.103989,0.29467,0.155989,0.637003,0.156,1.027-0.000011,0.390002-0.05201,0.732335-0.156,1.027-0.104011,0.294668-0.251344,0.546001-0.442,0.754-0.18201,0.199334-0.398677,0.351-0.65,0.455-0.251343,0.104-0.524342,0.156-0.819,0.156-0.294675,0-0.567675-0.052-0.819-0.156-0.251341-0.104-0.472341-0.255666-0.663-0.455-0.182007-0.207999-0.325007-0.459332-0.429-0.754-0.104007-0.294665-0.156007-0.636998-0.156-1.027m3.12,0c-0.00001-0.467997-0.09101-0.831997-0.273-1.092-0.182009-0.268663-0.442009-0.402996-0.78-0.403-0.338008,0.000004-0.598008,0.134337-0.78,0.403-0.182008,0.260003-0.273008,0.624003-0.273,1.092-0.000008,0.468002,0.09099,0.836335,0.273,1.105,0.181992,0.260001,0.441992,0.390001,0.78,0.39,0.337991,0.000001,0.597991-0.129999,0.78-0.39,0.18199-0.268665,0.27299-0.636998,0.273-1.105m-0.78-6.812-5.083,9.009-1.183,0,5.083-9.009,1.183,0"/>
  </g>
 </g>
</svg>
