<svg width="50" height="106" version="1.1" xmlns="http://www.w3.org/2000/svg"><g transform="translate(-.35355)" fill="#6e6e6e"><g transform="translate(102.09 35.002)" font-family="Ubuntu" font-size="40px" line-height="125%"><path d="m-65.383-26.159c-7e-6 0.364-0.06501 0.702-0.195 1.014-0.12134 0.30333-0.30767 0.572-0.559 0.806-0.24267 0.22533-0.55034 0.39867-0.923 0.52-0.37267 0.13-0.80167 0.195-1.287 0.195-0.56334 0-1.0357-0.078-1.417-0.234-0.37267-0.16467-0.67167-0.36833-0.897-0.611-0.22533-0.24267-0.38567-0.507-0.481-0.793-0.09533-0.29466-0.143-0.572-0.143-0.832-1e-6 -0.25133 0.039-0.48966 0.117-0.715 0.08667-0.234 0.195-0.45066 0.325-0.65 0.13866-0.19933 0.29466-0.377 0.468-0.533 0.182-0.16466 0.37266-0.30766 0.572-0.429-0.84934-0.48533-1.274-1.2003-1.274-2.145-1e-6 -0.32933 0.065-0.64133 0.195-0.936 0.13-0.30332 0.312-0.56766 0.546-0.793 0.24266-0.22532 0.533-0.40299 0.871-0.533 0.338-0.13866 0.715-0.20799 1.131-0.208 0.48533 9e-6 0.90133 0.07368 1.248 0.221 0.34666 0.14734 0.62833 0.33801 0.845 0.572 0.22533 0.22534 0.38566 0.47668 0.481 0.754 0.10399 0.27734 0.15599 0.54601 0.156 0.806-6e-6 0.25134-0.03901 0.48967-0.117 0.715-0.06934 0.21667-0.16901 0.42034-0.299 0.611-0.12134 0.19067-0.26434 0.35967-0.429 0.507-0.156 0.14734-0.32067 0.27734-0.494 0.39 1.0227 0.48534 1.5427 1.2523 1.56 2.301m-4.68 0.078c-2e-6 0.156 0.026 0.32067 0.078 0.494 0.06067 0.16467 0.16033 0.32067 0.299 0.468 0.13866 0.13867 0.31633 0.25567 0.533 0.351 0.21666 0.09533 0.48966 0.143 0.819 0.143 0.29466 1e-6 0.55033-0.04333 0.767-0.13 0.22533-0.08667 0.40733-0.195 0.546-0.325 0.13866-0.13866 0.24266-0.29466 0.312-0.468 0.06933-0.17333 0.104-0.351 0.104-0.533-5e-6 -0.27733-0.052-0.52-0.156-0.728-0.104-0.208-0.25567-0.39-0.455-0.546-0.19067-0.156-0.42467-0.286-0.702-0.39-0.26867-0.11266-0.57634-0.208-0.923-0.286-0.39 0.21667-0.69334 0.48534-0.91 0.806-0.208 0.32067-0.312 0.702-0.312 1.144m3.25-4.615c-5e-6 -0.12999-0.03034-0.27299-0.091-0.429-0.05201-0.15599-0.13867-0.29899-0.26-0.429-0.12134-0.13866-0.27734-0.25132-0.468-0.338-0.19067-0.09532-0.42467-0.14299-0.702-0.143-0.27734 8e-6 -0.51567 0.04334-0.715 0.13-0.19067 0.08667-0.34667 0.19934-0.468 0.338-0.12134 0.13001-0.21234 0.27734-0.273 0.442-0.052 0.15601-0.078 0.31201-0.078 0.468-2e-6 0.19067 0.03466 0.38134 0.104 0.572 0.06933 0.19067 0.17766 0.36834 0.325 0.533 0.14733 0.16467 0.338 0.312 0.572 0.442 0.24266 0.13 0.52866 0.234 0.858 0.312 0.364-0.21666 0.65433-0.468 0.871-0.754 0.21666-0.29466 0.325-0.67599 0.325-1.144"/><path d="m-64.012-30.631c-1e-6 -0.38999 0.052-0.73233 0.156-1.027 0.104-0.29466 0.247-0.54166 0.429-0.741 0.19066-0.20799 0.41166-0.36399 0.663-0.468 0.25133-0.10399 0.52433-0.15599 0.819-0.156 0.29466 9e-6 0.56766 0.05201 0.819 0.156 0.25133 0.10401 0.468 0.26001 0.65 0.468 0.19066 0.19934 0.338 0.44634 0.442 0.741 0.104 0.29467 0.156 0.63701 0.156 1.027-5e-6 0.39001-0.05201 0.73234-0.156 1.027-0.104 0.29467-0.25134 0.546-0.442 0.754-0.182 0.19934-0.39867 0.351-0.65 0.455-0.25134 0.104-0.52434 0.156-0.819 0.156-0.29467 4e-6 -0.56767-0.052-0.819-0.156-0.25134-0.104-0.47234-0.25566-0.663-0.455-0.182-0.208-0.325-0.45933-0.429-0.754-0.104-0.29466-0.156-0.63699-0.156-1.027m3.12 0c-4e-6 -0.46799-0.091-0.83199-0.273-1.092-0.182-0.26866-0.442-0.40299-0.78-0.403-0.338 8e-6 -0.598 0.13434-0.78 0.403-0.182 0.26001-0.273 0.62401-0.273 1.092-2e-6 0.46801 0.091 0.83634 0.273 1.105 0.182 0.26 0.442 0.39 0.78 0.39 0.338 5e-6 0.598-0.13 0.78-0.39 0.182-0.26866 0.273-0.63699 0.273-1.105m2.6 4.615c-7e-6 -0.39 0.05199-0.73233 0.156-1.027 0.10399-0.29466 0.24699-0.54166 0.429-0.741 0.19066-0.208 0.41166-0.364 0.663-0.468 0.25132-0.104 0.52432-0.156 0.819-0.156 0.29466 5e-6 0.56766 0.052 0.819 0.156 0.25132 0.104 0.46799 0.26 0.65 0.468 0.19066 0.19934 0.33799 0.44634 0.442 0.741 0.10399 0.29467 0.15599 0.637 0.156 1.027-1.1e-5 0.39-0.05201 0.73234-0.156 1.027-0.10401 0.29467-0.25134 0.546-0.442 0.754-0.18201 0.19933-0.39868 0.351-0.65 0.455-0.25134 0.104-0.52434 0.156-0.819 0.156-0.29468 0-0.56768-0.052-0.819-0.156-0.25134-0.104-0.47234-0.25567-0.663-0.455-0.18201-0.208-0.32501-0.45933-0.429-0.754-0.10401-0.29466-0.15601-0.637-0.156-1.027m3.12 0c-1e-5 -0.468-0.09101-0.832-0.273-1.092-0.18201-0.26866-0.44201-0.403-0.78-0.403-0.33801 4e-6 -0.59801 0.13434-0.78 0.403-0.18201 0.26-0.27301 0.624-0.273 1.092-8e-6 0.468 0.09099 0.83634 0.273 1.105 0.18199 0.26 0.44199 0.39 0.78 0.39 0.33799 1e-6 0.59799-0.13 0.78-0.39 0.18199-0.26866 0.27299-0.637 0.273-1.105m-0.78-6.812-5.083 9.009h-1.183l5.083-9.009h1.183"/></g><path d="m9.9012 6.1063h5.3765v1.131h-5.3765v-1.131"/></g><g transform="translate(-.35355 109.96)" fill="#6e6e6e"><path d="m9.9012-11.77h2.457v-2.678h1.04v2.678h2.457v1.027h-2.457v2.691h-1.04v-2.691h-2.457v-1.027"/><g transform="translate(102.09 17.08)" font-family="Ubuntu" font-size="40px" line-height="125%"><path d="m-65.383-26.159c-7e-6 0.364-0.06501 0.702-0.195 1.014-0.12134 0.30333-0.30767 0.572-0.559 0.806-0.24267 0.22533-0.55034 0.39867-0.923 0.52-0.37267 0.13-0.80167 0.195-1.287 0.195-0.56334 0-1.0357-0.078-1.417-0.234-0.37267-0.16467-0.67167-0.36833-0.897-0.611-0.22533-0.24267-0.38567-0.507-0.481-0.793-0.09533-0.29466-0.143-0.572-0.143-0.832-1e-6 -0.25133 0.039-0.48966 0.117-0.715 0.08667-0.234 0.195-0.45066 0.325-0.65 0.13866-0.19933 0.29466-0.377 0.468-0.533 0.182-0.16466 0.37266-0.30766 0.572-0.429-0.84934-0.48533-1.274-1.2003-1.274-2.145-1e-6 -0.32933 0.065-0.64133 0.195-0.936 0.13-0.30332 0.312-0.56766 0.546-0.793 0.24266-0.22532 0.533-0.40299 0.871-0.533 0.338-0.13866 0.715-0.20799 1.131-0.208 0.48533 9e-6 0.90133 0.07368 1.248 0.221 0.34666 0.14734 0.62833 0.33801 0.845 0.572 0.22533 0.22534 0.38566 0.47668 0.481 0.754 0.10399 0.27734 0.15599 0.54601 0.156 0.806-6e-6 0.25134-0.03901 0.48967-0.117 0.715-0.06934 0.21667-0.16901 0.42034-0.299 0.611-0.12134 0.19067-0.26434 0.35967-0.429 0.507-0.156 0.14734-0.32067 0.27734-0.494 0.39 1.0227 0.48534 1.5427 1.2523 1.56 2.301m-4.68 0.078c-2e-6 0.156 0.026 0.32067 0.078 0.494 0.06067 0.16467 0.16033 0.32067 0.299 0.468 0.13866 0.13867 0.31633 0.25567 0.533 0.351 0.21666 0.09533 0.48966 0.143 0.819 0.143 0.29466 1e-6 0.55033-0.04333 0.767-0.13 0.22533-0.08667 0.40733-0.195 0.546-0.325 0.13866-0.13866 0.24266-0.29466 0.312-0.468 0.06933-0.17333 0.104-0.351 0.104-0.533-5e-6 -0.27733-0.052-0.52-0.156-0.728-0.104-0.208-0.25567-0.39-0.455-0.546-0.19067-0.156-0.42467-0.286-0.702-0.39-0.26867-0.11266-0.57634-0.208-0.923-0.286-0.39 0.21667-0.69334 0.48534-0.91 0.806-0.208 0.32067-0.312 0.702-0.312 1.144m3.25-4.615c-5e-6 -0.12999-0.03034-0.27299-0.091-0.429-0.05201-0.15599-0.13867-0.29899-0.26-0.429-0.12134-0.13866-0.27734-0.25132-0.468-0.338-0.19067-0.09532-0.42467-0.14299-0.702-0.143-0.27734 8e-6 -0.51567 0.04334-0.715 0.13-0.19067 0.08667-0.34667 0.19934-0.468 0.338-0.12134 0.13001-0.21234 0.27734-0.273 0.442-0.052 0.15601-0.078 0.31201-0.078 0.468-2e-6 0.19067 0.03466 0.38134 0.104 0.572 0.06933 0.19067 0.17766 0.36834 0.325 0.533 0.14733 0.16467 0.338 0.312 0.572 0.442 0.24266 0.13 0.52866 0.234 0.858 0.312 0.364-0.21666 0.65433-0.468 0.871-0.754 0.21666-0.29466 0.325-0.67599 0.325-1.144"/><path d="m-64.012-30.631c-1e-6 -0.38999 0.052-0.73233 0.156-1.027 0.104-0.29466 0.247-0.54166 0.429-0.741 0.19066-0.20799 0.41166-0.36399 0.663-0.468 0.25133-0.10399 0.52433-0.15599 0.819-0.156 0.29466 9e-6 0.56766 0.05201 0.819 0.156 0.25133 0.10401 0.468 0.26001 0.65 0.468 0.19066 0.19934 0.338 0.44634 0.442 0.741 0.104 0.29467 0.156 0.63701 0.156 1.027-5e-6 0.39001-0.05201 0.73234-0.156 1.027-0.104 0.29467-0.25134 0.546-0.442 0.754-0.182 0.19934-0.39867 0.351-0.65 0.455-0.25134 0.104-0.52434 0.156-0.819 0.156-0.29467 4e-6 -0.56767-0.052-0.819-0.156-0.25134-0.104-0.47234-0.25566-0.663-0.455-0.182-0.208-0.325-0.45933-0.429-0.754-0.104-0.29466-0.156-0.63699-0.156-1.027m3.12 0c-4e-6 -0.46799-0.091-0.83199-0.273-1.092-0.182-0.26866-0.442-0.40299-0.78-0.403-0.338 8e-6 -0.598 0.13434-0.78 0.403-0.182 0.26001-0.273 0.62401-0.273 1.092-2e-6 0.46801 0.091 0.83634 0.273 1.105 0.182 0.26 0.442 0.39 0.78 0.39 0.338 5e-6 0.598-0.13 0.78-0.39 0.182-0.26866 0.273-0.63699 0.273-1.105m2.6 4.615c-7e-6 -0.39 0.05199-0.73233 0.156-1.027 0.10399-0.29466 0.24699-0.54166 0.429-0.741 0.19066-0.208 0.41166-0.364 0.663-0.468 0.25132-0.104 0.52432-0.156 0.819-0.156 0.29466 5e-6 0.56766 0.052 0.819 0.156 0.25132 0.104 0.46799 0.26 0.65 0.468 0.19066 0.19934 0.33799 0.44634 0.442 0.741 0.10399 0.29467 0.15599 0.637 0.156 1.027-1.1e-5 0.39-0.05201 0.73234-0.156 1.027-0.10401 0.29467-0.25134 0.546-0.442 0.754-0.18201 0.19933-0.39868 0.351-0.65 0.455-0.25134 0.104-0.52434 0.156-0.819 0.156-0.29468 0-0.56768-0.052-0.819-0.156-0.25134-0.104-0.47234-0.25567-0.663-0.455-0.18201-0.208-0.32501-0.45933-0.429-0.754-0.10401-0.29466-0.15601-0.637-0.156-1.027m3.12 0c-1e-5 -0.468-0.09101-0.832-0.273-1.092-0.18201-0.26866-0.44201-0.403-0.78-0.403-0.33801 4e-6 -0.59801 0.13434-0.78 0.403-0.18201 0.26-0.27301 0.624-0.273 1.092-8e-6 0.468 0.09099 0.83634 0.273 1.105 0.18199 0.26 0.44199 0.39 0.78 0.39 0.33799 1e-6 0.59799-0.13 0.78-0.39 0.18199-0.26866 0.27299-0.637 0.273-1.105m-0.78-6.812-5.083 9.009h-1.183l5.083-9.009h1.183"/></g></g></svg>
