<!-- Created with Inkscape (http://www.inkscape.org/) -->
<svg id="svg3259" width="96" height="96" version="1.1" xmlns="http://www.w3.org/2000/svg"><path id="path3261" d="m47.604 27.094c-11.765 0-21.302 9.5373-21.302 21.302 0 11.765 9.5373 21.302 21.302 21.302 11.765 0 21.302-9.5373 21.302-21.302 0-11.765-9.5373-21.302-21.302-21.302z" fill="none" stroke="#000" stroke-width=".1088"/><path id="path3263" d="m-0.7924 0v96.792h96.792v-96.792h-96.792zm48.396 1.8905c25.685 0 46.506 20.811 46.506 46.506 0 25.695-20.821 46.506-46.506 46.506-25.685 0-46.506-20.811-46.506-46.506 0-25.695 20.821-46.506 46.506-46.506z" fill="#333"/><path id="path3265" d="m47.604 1.6384c-25.828 0-46.758 20.979-46.758 46.789 0 25.81 20.93 46.726 46.758 46.726s46.758-20.916 46.758-46.726c0-25.81-20.93-46.789-46.758-46.789zm0 0.25206c25.679 0 46.506 20.816 46.506 46.506 0 25.689-20.827 46.506-46.506 46.506s-46.506-20.816-46.506-46.506c0-25.689 20.827-46.506 46.506-46.506z" color="#000000" style="block-progression:tb;text-indent:0;text-transform:none"/><path id="path3267" d="m48.816 48.396"/></svg>
