<svg xmlns="http://www.w3.org/2000/svg" width="96" height="96"><path d="M48 26.87228c-11.668501 0-21.127701 9.4592-21.127701 21.12774 0 11.6685 9.4592 21.1277 21.127701 21.1277 11.668513 0 21.127701-9.4592 21.127701-21.1277 0-11.66854-9.459188-21.12774-21.127701-21.12774z" fill="none" stroke="#000" stroke-width=".5"/><path d="M0 0v96h96V0H0zm48 1.875c25.474392 0 46.125 20.640393 46.125 46.125 0 25.484597-20.650608 46.125-46.125 46.125C22.525606 94.125 1.875 73.484597 1.875 48 1.875 22.515393 22.525606 1.875 48 1.875z" fill="#333"/><path style="text-indent:0;text-align:start;line-height:normal;text-transform:none;block-progression:tb;marker:none;-inkscape-font-specification:Sans" d="M48 1.625c-25.616581 0-46.375 20.80753-46.375 46.40625C1.625 73.63005 22.383419 94.375 48 94.375c25.61658 0 46.375-20.74495 46.375-46.34375C94.375 22.43253 73.61658 1.625 48 1.625zm0 .25c25.468871 0 46.125 20.645917 46.125 46.125 0 25.479073-20.656129 46.125-46.125 46.125C22.531127 94.125 1.875 73.479073 1.875 48 1.875 22.520917 22.531127 1.875 48 1.875z" font-weight="400" color="#000" overflow="visible" font-family="Sans"/><path d="M49.2018931439 47.9999974622a1.2018934972 1.2018934972 0 1 1-2.4037869944 0 1.2018934972 1.2018934972 0 1 1 2.4037869944 0z"/></svg>