<?xml version="1.0" encoding="UTF-8" standalone="no"?>
<!-- Created with Inkscape (http://www.inkscape.org/) -->

<svg
   xmlns:dc="http://purl.org/dc/elements/1.1/"
   xmlns:cc="http://creativecommons.org/ns#"
   xmlns:rdf="http://www.w3.org/1999/02/22-rdf-syntax-ns#"
   xmlns:svg="http://www.w3.org/2000/svg"
   xmlns="http://www.w3.org/2000/svg"
   xmlns:sodipodi="http://sodipodi.sourceforge.net/DTD/sodipodi-0.dtd"
   xmlns:inkscape="http://www.inkscape.org/namespaces/inkscape"
   width="96"
   height="96"
   id="svg2"
   version="1.1"
   inkscape:version="0.48.4 r9939"
   sodipodi:docname="spinnyBig_mask.svg"
   enable-background="new">
  <defs
     id="defs4">
    <linearGradient
       id="linearGradient3861">
      <stop
         style="stop-color:#eece33;stop-opacity:1;"
         offset="0"
         id="stop3863" />
      <stop
         style="stop-color:#eece33;stop-opacity:0;"
         offset="1"
         id="stop3865" />
    </linearGradient>
    <linearGradient
       id="linearGradient3851">
      <stop
         style="stop-color:#eece33;stop-opacity:1;"
         offset="0"
         id="stop3853" />
      <stop
         style="stop-color:#eece33;stop-opacity:0;"
         offset="1"
         id="stop3855" />
    </linearGradient>
  </defs>
  <sodipodi:namedview
     id="base"
     pagecolor="#ffffff"
     bordercolor="#666666"
     borderopacity="1.0"
     inkscape:pageopacity="0.0"
     inkscape:pageshadow="2"
     inkscape:zoom="11.313708"
     inkscape:cx="61.45348"
     inkscape:cy="3.1761761"
     inkscape:document-units="px"
     inkscape:current-layer="svg2"
     showgrid="false"
     inkscape:window-width="1366"
     inkscape:window-height="746"
     inkscape:window-x="0"
     inkscape:window-y="0"
     inkscape:window-maximized="1"
     inkscape:snap-page="true"
     inkscape:snap-bbox="true"
     inkscape:bbox-paths="true" />
  <metadata
     id="metadata7">
    <rdf:RDF>
      <cc:Work
         rdf:about="">
        <dc:format>image/svg+xml</dc:format>
        <dc:type
           rdf:resource="http://purl.org/dc/dcmitype/StillImage" />
        <dc:title />
      </cc:Work>
    </rdf:RDF>
  </metadata>
  <path
     style="fill:#333333;fill-opacity:1;fill-rule:nonzero;stroke:none;display:inline"
     d="M 0 0 L 0 96 L 96 96 L 96 0 L 0 0 z M 48 1.875 C 73.474392 1.875 94.125 22.515393 94.125 48 C 94.125 73.484597 73.474392 94.125 48 94.125 C 22.525606 94.125 1.875 73.484597 1.875 48 C 1.875 22.515393 22.525606 1.875 48 1.875 z "
     id="path5294" />
  <path
     style="font-size:medium;font-style:normal;font-variant:normal;font-weight:normal;font-stretch:normal;text-indent:0;text-align:start;text-decoration:none;line-height:normal;letter-spacing:normal;word-spacing:normal;text-transform:none;direction:ltr;block-progression:tb;writing-mode:lr-tb;text-anchor:start;baseline-shift:baseline;color:#000000;fill:#585858;fill-opacity:1;fill-rule:nonzero;stroke:none;stroke-width:0.227;marker:none;visibility:visible;display:inline;overflow:visible;enable-background:accumulate;font-family:Sans;-inkscape-font-specification:Sans"
     d="M 48 1.625 C 22.383419 1.625 1.625 22.43253 1.625 48.03125 C 1.625 73.63005 22.383419 94.375 48 94.375 C 73.61658 94.375 94.375 73.63005 94.375 48.03125 C 94.375 22.43253 73.61658 1.625 48 1.625 z M 48 1.875 C 73.468871 1.875 94.125 22.520917 94.125 48 C 94.125 73.479073 73.468871 94.125 48 94.125 C 22.531127 94.125 1.875 73.479073 1.875 48 C 1.875 22.520917 22.531127 1.875 48 1.875 z "
     id="path5348" />
</svg>
