<?xml version="1.0" encoding="UTF-8" standalone="no"?>
<!-- Created with Inkscape (http://www.inkscape.org/) -->

<svg
   xmlns:dc="http://purl.org/dc/elements/1.1/"
   xmlns:cc="http://creativecommons.org/ns#"
   xmlns:rdf="http://www.w3.org/1999/02/22-rdf-syntax-ns#"
   xmlns:svg="http://www.w3.org/2000/svg"
   xmlns="http://www.w3.org/2000/svg"
   version="1.1"
   width="96"
   height="96"
   id="svg3259">
  <metadata
     id="metadata3273">
    <rdf:RDF>
      <cc:Work
         rdf:about="">
        <dc:format>image/svg+xml</dc:format>
        <dc:type
           rdf:resource="http://purl.org/dc/dcmitype/StillImage" />
        <dc:title></dc:title>
      </cc:Work>
    </rdf:RDF>
  </metadata>
  <defs
     id="defs3271" />
  <path
     d="m 47.603802,27.094086 c -11.764815,0 -21.302091,9.537278 -21.302091,21.302132 0,11.764814 9.537276,21.302092 21.302091,21.302092 11.764828,0 21.302093,-9.537278 21.302093,-21.302092 0,-11.764854 -9.537265,-21.302132 -21.302093,-21.302132 z"
     id="path3261"
     style="fill:none;stroke:#000000;stroke-width:0.10879687" />
  <path
     d="M -0.79239739,0 V 96.7924 H 96 V 0 H -0.79239739 z M 47.6038,1.8904763 c 25.684663,0 46.505728,20.8107597 46.505728,46.5057227 0,25.694954 -20.821065,46.505729 -46.505728,46.505729 -25.684661,0 -46.5057209,-20.810775 -46.5057209,-46.505729 0,-25.694963 20.8210599,-46.5057227 46.5057209,-46.5057227 z"
     id="path3263"
     style="fill:#333333" />
  <path
     d="m 47.6038,1.6384128 c -25.828023,0 -46.75778444,20.9792812 -46.75778444,46.7892932 0,25.810099 20.92976144,46.72628 46.75778444,46.72628 25.828023,0 46.757786,-20.916181 46.757786,-46.72628 0,-25.810012 -20.929763,-46.7892932 -46.757786,-46.7892932 z m 0,0.2520635 c 25.679095,0 46.505728,20.8163367 46.505728,46.5057227 0,25.689377 -20.826633,46.505729 -46.505728,46.505729 -25.679095,0 -46.5057209,-20.816352 -46.5057209,-46.505729 0,-25.689386 20.8266259,-46.5057227 46.5057209,-46.5057227 z"
     id="path3265"
     style="font-weight:400;text-indent:0;text-align:start;line-height:normal;text-transform:none;block-progression:tb;color:#000000;marker:none;overflow:visible;font-family:Sans;-inkscape-font-specification:Sans" />
  <path
     d="M 48.815614,48.396199"
     id="path3267" />
</svg>
