<?xml version="1.0" encoding="UTF-8" standalone="no"?>
<!-- Created with Inkscape (http://www.inkscape.org/) -->

<svg
   xmlns:dc="http://purl.org/dc/elements/1.1/"
   xmlns:cc="http://creativecommons.org/ns#"
   xmlns:rdf="http://www.w3.org/1999/02/22-rdf-syntax-ns#"
   xmlns:svg="http://www.w3.org/2000/svg"
   xmlns="http://www.w3.org/2000/svg"
   xmlns:sodipodi="http://sodipodi.sourceforge.net/DTD/sodipodi-0.dtd"
   xmlns:inkscape="http://www.inkscape.org/namespaces/inkscape"
   width="96"
   height="96"
   id="svg2"
   version="1.1"
   inkscape:version="0.48.4 r9939"
   sodipodi:docname="spinny_indicator.svg"
   enable-background="new">
  <defs
     id="defs4">
    <linearGradient
       id="linearGradient3861">
      <stop
         style="stop-color:#eece33;stop-opacity:1;"
         offset="0"
         id="stop3863" />
      <stop
         style="stop-color:#eece33;stop-opacity:0;"
         offset="1"
         id="stop3865" />
    </linearGradient>
    <linearGradient
       id="linearGradient3851">
      <stop
         style="stop-color:#eece33;stop-opacity:1;"
         offset="0"
         id="stop3853" />
      <stop
         style="stop-color:#eece33;stop-opacity:0;"
         offset="1"
         id="stop3855" />
    </linearGradient>
  </defs>
  <sodipodi:namedview
     id="base"
     pagecolor="#ffffff"
     bordercolor="#666666"
     borderopacity="1.0"
     inkscape:pageopacity="0.0"
     inkscape:pageshadow="2"
     inkscape:zoom="0.98994949"
     inkscape:cx="-194.12642"
     inkscape:cy="-75.213518"
     inkscape:document-units="px"
     inkscape:current-layer="layer3"
     showgrid="false"
     inkscape:window-width="1366"
     inkscape:window-height="746"
     inkscape:window-x="0"
     inkscape:window-y="0"
     inkscape:window-maximized="1"
     inkscape:snap-page="true"
     inkscape:snap-bbox="true"
     inkscape:bbox-paths="true"
     inkscape:bbox-nodes="true"
     inkscape:snap-bbox-edge-midpoints="true"
     inkscape:snap-bbox-midpoints="true"
     inkscape:snap-smooth-nodes="true"
     inkscape:object-nodes="true" />
  <metadata
     id="metadata7">
    <rdf:RDF>
      <cc:Work
         rdf:about="">
        <dc:format>image/svg+xml</dc:format>
        <dc:type
           rdf:resource="http://purl.org/dc/dcmitype/StillImage" />
        <dc:title />
      </cc:Work>
    </rdf:RDF>
  </metadata>
  <g
     inkscape:groupmode="layer"
     id="layer6"
     inkscape:label="Back"
     style="display:none">
    <rect
       style="fill:#0f0f0f;fill-opacity:1;fill-rule:nonzero;stroke:none"
       id="rect3003"
       width="96"
       height="96"
       x="-4.2632564e-14"
       y="-2.7171737e-15" />
  </g>
  <g
     inkscape:groupmode="layer"
     id="layer7"
     inkscape:label="Mask"
     style="display:none">
    <path
       style="fill:#0f0f0f;fill-opacity:1;fill-rule:nonzero;stroke:none;display:inline"
       d="M 0,0 0,96 96,96 96,0 0,0 z M 48,2 C 73.405099,2 94,22.594902 94,48 94,73.405099 73.405099,94 48,94 22.594902,94 2,73.405099 2,48 2,22.594902 22.594902,2 48,2 z"
       id="rect3842-3"
       inkscape:connector-curvature="0" />
    <path
       sodipodi:type="arc"
       style="fill:none;stroke:#585858;stroke-width:1.89960933;stroke-miterlimit:4;stroke-opacity:1;stroke-dasharray:none;display:inline"
       id="path4919-6"
       sodipodi:cx="47.414036"
       sodipodi:cy="48.144024"
       sodipodi:rx="42.110733"
       sodipodi:ry="45.330597"
       d="m 89.524769,48.144024 a 42.110733,45.330597 0 1 1 -84.2214662,0 42.110733,45.330597 0 1 1 84.2214662,0 z"
       transform="matrix(1.0923581,0,0,1.0147671,-3.7931057,-0.85497323)" />
  </g>
  <g
     inkscape:groupmode="layer"
     id="layer5"
     inkscape:label="Color1, Color3"
     style="display:none">
    <path
       sodipodi:type="arc"
       style="fill:#52b5ff;fill-opacity:1;fill-rule:nonzero;stroke:none"
       id="path3823"
       sodipodi:cx="53.125"
       sodipodi:cy="46.267857"
       sodipodi:rx="17.946428"
       sodipodi:ry="11.875"
       d="m 71.071428,46.267857 a 17.946428,11.875 0 1 1 -35.892856,0 17.946428,11.875 0 1 1 35.892856,0 z"
       transform="matrix(1.1144279,0,0,1.6842105,-11.203982,-29.92481)" />
    <path
       sodipodi:type="arc"
       style="fill:#000000;fill-opacity:1;fill-rule:nonzero;stroke:none;display:inline"
       id="path3830-7"
       sodipodi:cx="48.739861"
       sodipodi:cy="48.017754"
       sodipodi:rx="4.2931485"
       sodipodi:ry="4.2931485"
       d="m 53.033009,48.017754 a 4.2931485,4.2931485 0 1 1 -8.586297,0 4.2931485,4.2931485 0 1 1 8.586297,0 z"
       transform="matrix(0.93171713,0,0,0.93171713,2.588237,3.2610364)" />
  </g>
  <g
     style="display:none"
     inkscape:label="Color2, Color4"
     id="g4080"
     inkscape:groupmode="layer">
    <path
       transform="matrix(1.1144279,0,0,1.6842105,-11.203982,-29.92481)"
       d="m 71.071428,46.267857 a 17.946428,11.875 0 1 1 -35.892856,0 17.946428,11.875 0 1 1 35.892856,0 z"
       sodipodi:ry="11.875"
       sodipodi:rx="17.946428"
       sodipodi:cy="46.267857"
       sodipodi:cx="53.125"
       id="path4082"
       style="fill:#bf880f;fill-opacity:1;fill-rule:nonzero;stroke:none"
       sodipodi:type="arc" />
    <path
       transform="matrix(0.93171713,0,0,0.93171713,2.588237,3.2610364)"
       d="m 53.033009,48.017754 a 4.2931485,4.2931485 0 1 1 -8.586297,0 4.2931485,4.2931485 0 1 1 8.586297,0 z"
       sodipodi:ry="4.2931485"
       sodipodi:rx="4.2931485"
       sodipodi:cy="48.017754"
       sodipodi:cx="48.739861"
       id="path4084"
       style="fill:#000000;fill-opacity:1;fill-rule:nonzero;stroke:none;display:inline"
       sodipodi:type="arc" />
  </g>
  <g
     inkscape:groupmode="layer"
     id="layer3"
     inkscape:label="indicator"
     style="opacity:0.95999995;display:inline">
    <path
       style="fill:#ffffff;fill-opacity:1;fill-rule:nonzero;stroke:#000000;stroke-opacity:1;stroke-width:1.50000002;stroke-miterlimit:4;stroke-dasharray:none"
       d="m 48,1.9078363 c -1.100151,0 -2,0.8685988 -2,1.96875 l 0,21.9279027 c 0,1.100151 0.899849,2 2,2 1.100151,0 2,-0.899849 2,-2 L 49.96875,3.8765863 c 0,-1.1001512 -0.868599,-1.96875 -1.96875,-1.96875 z"
       id="rect3776"
       inkscape:connector-curvature="0"
       sodipodi:nodetypes="sccsccs" />
  </g>
</svg>
