<!-- Created with Inkscape (http://www.inkscape.org/) -->
<svg id="svg3776" width="6" height="20" version="1.1" xmlns="http://www.w3.org/2000/svg"><g id="layer1" transform="translate(0 -1032.4)"><g id="g4716" transform="matrix(0 -1 1 0 -1046.4 1052.4)" fill="#888"><path id="path3797" transform="matrix(.77552 0 0 .77552 .89791 1047)" d="m6 3c0 1.1046-0.89543 2-2 2s-2-0.89543-2-2 0.89543-2 2-2 2 0.89543 2 2z" color="#000000"/><path id="path3797-6" transform="matrix(.77552 0 0 .77552 4.8979 1047)" d="m6 3c0 1.1046-0.89543 2-2 2s-2-0.89543-2-2 0.89543-2 2-2 2 0.89543 2 2z" color="#000000"/><path id="path3797-7" transform="matrix(.77552 0 0 .77552 8.8979 1047)" d="m6 3c0 1.1046-0.89543 2-2 2s-2-0.89543-2-2 0.89543-2 2-2 2 0.89543 2 2z" color="#000000"/><path id="path3797-6-5" transform="matrix(.77552 0 0 .77552 12.898 1047)" d="m6 3c0 1.1046-0.89543 2-2 2s-2-0.89543-2-2 0.89543-2 2-2 2 0.89543 2 2z" color="#000000"/></g></g></svg>
