<?xml version="1.0" encoding="UTF-8" standalone="no"?>
<!-- Created with Inkscape (http://www.inkscape.org/) -->

<svg
   xmlns:dc="http://purl.org/dc/elements/1.1/"
   xmlns:cc="http://creativecommons.org/ns#"
   xmlns:rdf="http://www.w3.org/1999/02/22-rdf-syntax-ns#"
   xmlns:svg="http://www.w3.org/2000/svg"
   xmlns="http://www.w3.org/2000/svg"
   version="1.1"
   width="6"
   height="20"
   id="svg3776">
  <defs
     id="defs3778" />
  <metadata
     id="metadata3781">
    <rdf:RDF>
      <cc:Work
         rdf:about="">
        <dc:format>image/svg+xml</dc:format>
        <dc:type
           rdf:resource="http://purl.org/dc/dcmitype/StillImage" />
        <dc:title></dc:title>
      </cc:Work>
    </rdf:RDF>
  </metadata>
  <g
     transform="matrix(0,-1,1,0,-13.999965,20)"
     id="g4741">
    <g
       transform="translate(0,-1032.3622)"
       id="layer1">
      <path
         d="M 6,3 C 6,4.1045695 5.1045695,5 4,5 2.8954305,5 2,4.1045695 2,3 2,1.8954305 2.8954305,1 4,1 5.1045695,1 6,1.8954305 6,3 z"
         transform="matrix(0.77552166,0,0,0.77552166,0.89791277,1047.0356)"
         id="path3797"
         style="color:#000000;fill:#d1d1d1;fill-opacity:1;fill-rule:nonzero;stroke:none;stroke-width:0.36000001;marker:none;visibility:visible;display:inline;overflow:visible;enable-background:accumulate" />
      <path
         d="M 6,3 C 6,4.1045695 5.1045695,5 4,5 2.8954305,5 2,4.1045695 2,3 2,1.8954305 2.8954305,1 4,1 5.1045695,1 6,1.8954305 6,3 z"
         transform="matrix(0.77552166,0,0,0.77552166,4.8979128,1047.0356)"
         id="path3797-6"
         style="color:#000000;fill:#d1d1d1;fill-opacity:1;fill-rule:nonzero;stroke:none;stroke-width:0.36000001;marker:none;visibility:visible;display:inline;overflow:visible;enable-background:accumulate" />
      <path
         d="M 6,3 C 6,4.1045695 5.1045695,5 4,5 2.8954305,5 2,4.1045695 2,3 2,1.8954305 2.8954305,1 4,1 5.1045695,1 6,1.8954305 6,3 z"
         transform="matrix(0.77552166,0,0,0.77552166,8.8979128,1047.0356)"
         id="path3797-7"
         style="color:#000000;fill:#d1d1d1;fill-opacity:1;fill-rule:nonzero;stroke:none;stroke-width:0.36000001;marker:none;visibility:visible;display:inline;overflow:visible;enable-background:accumulate" />
      <path
         d="M 6,3 C 6,4.1045695 5.1045695,5 4,5 2.8954305,5 2,4.1045695 2,3 2,1.8954305 2.8954305,1 4,1 5.1045695,1 6,1.8954305 6,3 z"
         transform="matrix(0.77552166,0,0,0.77552166,12.897913,1047.0356)"
         id="path3797-6-5"
         style="color:#000000;fill:#d1d1d1;fill-opacity:1;fill-rule:nonzero;stroke:none;stroke-width:0.36000001;marker:none;visibility:visible;display:inline;overflow:visible;enable-background:accumulate" />
    </g>
  </g>
</svg>
