<!-- Created with Inkscape (http://www.inkscape.org/) -->
<svg id="svg2" width="8" height="99" version="1.1" xmlns="http://www.w3.org/2000/svg"><g id="layer2" transform="translate(0,-6)" display="none"><rect id="rect2996" x="-512.86" y="-273.57" width="984.29" height="655.71" color="#000000" display="inline" fill="#252525"/></g><rect id="use3956" width="8" height="1" color="#000000"/><rect id="use3958" y="2" width="8" height="1" color="#000000"/><rect id="use3960" y="4" width="8" height="1" color="#000000"/><rect id="use3962" y="6" width="8" height="1" color="#000000"/><rect id="use3964" y="8" width="8" height="1" color="#000000"/><rect id="use3966" y="10" width="8" height="1" color="#000000"/><rect id="use3968" y="12" width="8" height="1" color="#000000"/><rect id="use3970" y="14" width="8" height="1" color="#000000"/><rect id="use3972" y="16" width="8" height="1" color="#000000"/><rect id="use3974" y="18" width="8" height="1" color="#000000"/><rect id="use3976" y="20" width="8" height="1" color="#000000"/><rect id="use3978" y="22" width="8" height="1" color="#000000"/><rect id="use3980" y="24" width="8" height="1" color="#000000"/><rect id="use3982" y="26" width="8" height="1" color="#000000"/><rect id="use3984" y="28" width="8" height="1" color="#000000"/><rect id="use3986" y="30" width="8" height="1" color="#000000"/><rect id="use3988" y="32" width="8" height="1" color="#000000"/><rect id="use3990" y="34" width="8" height="1" color="#000000"/><rect id="use3992" y="36" width="8" height="1" color="#000000"/><rect id="use3994" y="38" width="8" height="1" color="#000000"/><rect id="use3996" y="40" width="8" height="1" color="#000000"/><rect id="use3998" y="42" width="8" height="1" color="#000000"/><rect id="use4000" y="44" width="8" height="1" color="#000000"/><rect id="use4002" y="46" width="8" height="1" color="#000000"/><rect id="use4004" y="48" width="8" height="1" color="#000000"/><rect id="use4006" y="50" width="8" height="1" color="#000000"/><rect id="use4008" y="52" width="8" height="1" color="#000000"/><rect id="use4010" y="54" width="8" height="1" color="#000000"/><rect id="use4012" y="56" width="8" height="1" color="#000000"/><rect id="use4014" y="58" width="8" height="1" color="#000000"/><rect id="use4016" y="60" width="8" height="1" color="#000000"/><rect id="use4018" y="62" width="8" height="1" color="#000000"/><rect id="use4020" y="64" width="8" height="1" color="#000000"/><rect id="use4022" y="66" width="8" height="1" color="#000000"/><rect id="use4024" y="68" width="8" height="1" color="#000000"/><rect id="use4026" y="70" width="8" height="1" color="#000000"/><rect id="use4028" y="72" width="8" height="1" color="#000000"/><rect id="use4030" y="74" width="8" height="1" color="#000000"/><rect id="use4032" y="76" width="8" height="1" color="#000000"/><rect id="use4034" y="78" width="8" height="1" color="#000000"/><rect id="use4036" y="80" width="8" height="1" color="#000000"/><rect id="use4038" y="82" width="8" height="1" color="#000000"/><rect id="use4040" y="84" width="8" height="1" color="#000000"/><rect id="use4042" y="86" width="8" height="1" color="#000000"/><rect id="use4044" y="88" width="8" height="1" color="#000000"/><rect id="use4046" y="90" width="8" height="1" color="#000000"/><rect id="use4048" y="92" width="8" height="1" color="#000000"/><rect id="use4050" y="94" width="8" height="1" color="#000000"/><rect id="use4052" y="96" width="8" height="1" color="#000000"/><rect id="use4054" y="98" width="8" height="1" color="#000000"/></svg>
