<svg width="8" height="103" version="1.1" xmlns="http://www.w3.org/2000/svg"><g transform="translate(0,-2)" display="none"><rect x="-512.86" y="-273.57" width="984.29" height="655.71" color="#000000" display="inline" fill="#252525"/></g><rect width="8" height="1" color="#000000"/><rect y="2" width="8" height="1" color="#000000"/><rect y="4" width="8" height="1" color="#000000"/><rect y="6" width="8" height="1" color="#000000"/><rect y="8" width="8" height="1" color="#000000"/><rect y="10" width="8" height="1" color="#000000"/><rect y="12" width="8" height="1" color="#000000"/><rect y="14" width="8" height="1" color="#000000"/><rect y="16" width="8" height="1" color="#000000"/><rect y="18" width="8" height="1" color="#000000"/><rect y="20" width="8" height="1" color="#000000"/><rect y="22" width="8" height="1" color="#000000"/><rect y="24" width="8" height="1" color="#000000"/><rect y="26" width="8" height="1" color="#000000"/><rect y="28" width="8" height="1" color="#000000"/><rect y="30" width="8" height="1" color="#000000"/><rect y="32" width="8" height="1" color="#000000"/><rect y="34" width="8" height="1" color="#000000"/><rect y="36" width="8" height="1" color="#000000"/><rect y="38" width="8" height="1" color="#000000"/><rect y="40" width="8" height="1" color="#000000"/><rect y="42" width="8" height="1" color="#000000"/><rect y="44" width="8" height="1" color="#000000"/><rect y="46" width="8" height="1" color="#000000"/><rect y="48" width="8" height="1" color="#000000"/><rect y="50" width="8" height="1" color="#000000"/><rect y="52" width="8" height="1" color="#000000"/><rect y="54" width="8" height="1" color="#000000"/><rect y="56" width="8" height="1" color="#000000"/><rect y="58" width="8" height="1" color="#000000"/><rect y="60" width="8" height="1" color="#000000"/><rect y="62" width="8" height="1" color="#000000"/><rect y="64" width="8" height="1" color="#000000"/><rect y="66" width="8" height="1" color="#000000"/><rect y="68" width="8" height="1" color="#000000"/><rect y="70" width="8" height="1" color="#000000"/><rect y="72" width="8" height="1" color="#000000"/><rect y="74" width="8" height="1" color="#000000"/><rect y="76" width="8" height="1" color="#000000"/><rect y="78" width="8" height="1" color="#000000"/><rect y="80" width="8" height="1" color="#000000"/><rect y="82" width="8" height="1" color="#000000"/><rect y="84" width="8" height="1" color="#000000"/><rect y="86" width="8" height="1" color="#000000"/><rect y="88" width="8" height="1" color="#000000"/><rect y="90" width="8" height="1" color="#000000"/><rect y="92" width="8" height="1" color="#000000"/><rect y="94" width="8" height="1" color="#000000"/><rect y="96" width="8" height="1" color="#000000"/><rect y="98" width="8" height="1" color="#000000"/><rect y="100" width="8" height="1" color="#000000"/><rect y="102" width="8" height="1" color="#000000"/></svg>
