<!-- Created with Inkscape (http://www.inkscape.org/) -->
<svg id="svg10071" width="22" height="32" version="1.1" xmlns="http://www.w3.org/2000/svg"><g id="g10073" transform="matrix(-1 0 0 1 21.5 0)" fill="#d2d2d2"><path id="path10075" d="m15.9 3.4897c-2.2369-1.0235-4.8738-0.042194-5.8973 2.1947-0.43046 0.94076-0.51238 1.9557-0.28891 2.8895l6.3833 2.9208c0.85266-0.44135 1.5671-1.1669 1.9976-2.1076 1.0235-2.2369 0.042145-4.8738-2.1947-5.8973zm-6.0715 5.8134-6.8286 17.949 3.3529 1.5341 9.1176-16.902-5.6418-2.5815zm1.9653 3.1606c0.4281 0.19588 0.61584 0.69912 0.41971 1.1278l-1.1875 2.5953c-0.19613 0.42865-0.69968 0.61558-1.1278 0.4197-0.42809-0.19588-0.61584-0.69912-0.41971-1.1278l1.1875-2.5953c0.19613-0.42865 0.69968-0.61558 1.1278-0.4197z"/></g></svg>
