<!-- Created with Inkscape (http://www.inkscape.org/) -->
<svg id="svg2" width="20" height="20" version="1.1" xmlns="http://www.w3.org/2000/svg"><g id="g3201" transform="matrix(.8079 0 0 .8079 -2.1218 .76839)" color="#000000" fill="#888"><path id="path3203" d="m6.3396 7.1879 1.4062 0.8125 0.59375 0.34375-2.5e-4 7.5092c-1.9e-5 0.57129 0.4287 1 1 1h7.4541v-3l3.4688 2 3.4688 2-3.4688 2-3.4688 2v-3h-7.4541c-1.6447 0-3-1.3553-3-3z"/><path id="path3205" d="m13.214 1v3h7.4541c1.6447 0 2.9935 1.3553 3 3v8.6654l-1.4062-0.8125-0.59375-0.34375v-7.5092c0-0.5713-0.4287-1-1-1h-7.4541v3l-3.4688-2-3.4688-2 3.4688-2z" style="block-progression:tb;text-indent:0;text-transform:none"/></g></svg>
