<svg width="20" height="20" version="1.1" viewBox="0 0 20 20" xmlns="http://www.w3.org/2000/svg">
  <path d="m8.734375 1.7226562-0.1601562 2.4042969c-0.6135534 0.1498415-1.1898072 0.3950443-1.7148438 0.7167969l-1.8164062-1.5917969-1.7910157 1.7910157 1.5917969 1.8164062c-0.3209388 0.5247929-0.5639562 1.1016509-0.7128906 1.7148438l-2.4082032 0.1582031v2.5332031l2.4121094 0.160156c0.1498357 0.611782 0.3918941 1.187311 0.7128906 1.710938l-1.5957031 1.820312 1.7910157 1.791016 1.8222656-1.595703c0.5230832 0.31983 1.0981573 0.559794 1.7089844 0.708984l0.1582031 2.416016h2.5332031l0.160156-2.414063c0.611822-0.148972 1.187049-0.390808 1.710938-0.710937l1.820312 1.595703 1.791016-1.791016-1.59375-1.818359c0.321692-0.524239 0.564789-1.100216 0.714844-1.712891l2.408203-0.160156v-2.53125l-2.404297-0.1601562c-0.149075-0.6135665-0.393607-1.1917065-0.714844-1.7167969l1.589844-1.8144531-1.791016-1.7910157-1.814453 1.5898438c-0.525574-0.3218458-1.102613-0.5672642-1.716797-0.7167969l-0.160156-2.4023438h-2.53125zm1.267578 4.0722657c2.33207 0 4.199219 1.8672417 4.199219 4.1992187 0 2.3320694-1.867241 4.1992184-4.199219 4.1992184-2.3320685 0-4.1992186-1.867241-4.1992186-4.1992184 0-2.332069 1.8672421-4.1992187 4.1992186-4.1992187z" fill="#d2d2d2" stroke-width=".999999" style="text-indent:0;text-transform:none"/>
</svg>
