<!-- Created with Inkscape (http://www.inkscape.org/) -->
<svg id="svg3049" width="16" height="20" version="1.1" xmlns="http://www.w3.org/2000/svg"><path id="path3053" d="m3.5 0c-1.9304 0-3.5 1.5696-3.5 3.5v13c0 1.9304 1.5696 3.5 3.5 3.5h10c0.9806 0 1.864-0.3796 2.5-1.0312v-2.4688c0 1.3936-1.1064 2.5-2.5 2.5h-10c-1.3936 0-2.5-1.1064-2.5-2.5v-13c0-1.3936 1.1064-2.5 2.5-2.5h10c1.3936 0 2.5 1.1064 2.5 2.5v-2.4375c-0.63596-0.6516-1.5194-1.0625-2.5-1.0625h-10z" color="#000000" fill="#d2d2d2" style="block-progression:tb;text-indent:0;text-transform:none"/><path id="path3055" d="m9.0003 14.918 4.5715-7.9181h-9.143z" fill="#d2d2d2"/></svg>
