<!-- Created with Inkscape (http://www.inkscape.org/) -->
<svg id="svg2" width="20" height="20" version="1.1" xmlns="http://www.w3.org/2000/svg" xmlns:xlink="http://www.w3.org/1999/xlink"><rect id="rect3893" x="13.5" y="3" width="1" height="14" rx=".5" ry=".5" fill="#888"/><rect id="rect3895" x="10" y="6" width="8" height="2" rx="1" ry="1" fill="#888"/><path id="path3897" transform="matrix(.94281 0 0 .94281 1.3025e-7 -1.0032)" d="m7.4246 5.8371a1.591 1.591 0 1 1-3.182 0 1.591 1.591 0 1 1 3.182 0z" fill="#888"/><path id="path3897-5" transform="matrix(.94281 0 0 .94281 1.3025e-7 4.4968)" d="m7.4246 5.8371a1.591 1.591 0 1 1-3.182 0 1.591 1.591 0 1 1 3.182 0z" fill="#888"/><path id="path3897-5-6" transform="matrix(.94281 0 0 .94281 1.3025e-7 9.9968)" d="m7.4246 5.8371a1.591 1.591 0 1 1-3.182 0 1.591 1.591 0 1 1 3.182 0z" fill="#888"/></svg>
