<svg width="48" height="48" version="1.1" viewBox="0 0 24 24" xmlns="http://www.w3.org/2000/svg">
  <g display="none" opacity=".360743">
    <g fill="none" stroke="#000001" stroke-linejoin="round" stroke-width="1.6">
      <path d="m20 18v-12h-5v-3l-7 3.75 7 3.75-1e-4 -2.9999 3.5001-1e-4v9l-1.5-1e-4v1.5001z" color="#000001"/>
      <path d="m4 6v12h5v3l7-3.75-7-3.75 1e-4 2.9999-3.5001 1e-4v-9l1.5 1e-4v-1.5001z" color="#000001"/>
    </g>
    <path d="m20 18v-12h-5v-3l-7 3.75 7 3.75-1e-4 -2.9999 3.5001-1e-4v9l-1.5-1e-4v1.5001z" fill="#918273"/>
    <path d="m4 6v12h5v3l7-3.75-7-3.75 1e-4 2.9999-3.5001 1e-4v-9l1.5 1e-4v-1.5001z" color="#000001" fill="#918273"/>
  </g>
  <path d="m4.3634016 9.9033554 5.2881763-5.9243305 2.5735951 7.0446151z" fill="#aaa"/>
  <path d="m12.921875 6.0644531c-0.838016-0.0172305-1.690225 0.1186478-2.517578 0.421875a1 1 0 0 0-0.5957032 1.2832031 1 1 0 0 0 1.2832032 0.5937501c2.368666-0.8681234 4.99148 0.1735105 6.128906 2.4394527 1.137427 2.265944 0.408611 5.008541-1.697265 6.402344-2.105877 1.393803-4.89513 0.985873-6.5214849-0.955078a1 1 0 0 0-1.4082031-0.123047 1 1 0 0 0-0.125 1.408203c2.2668196 2.705306 6.217901 3.28397 9.158203 1.337891 2.940303-1.946079 3.964957-5.81101 2.380859-8.966797-1.188073-2.3668395-3.571888-3.7901054-6.085937-3.8417969z" color="#000000" fill="#aaa" stroke-linecap="round" stroke-linejoin="round" style="-inkscape-stroke:none;paint-order:fill markers stroke"/>
</svg>
