<?xml version="1.0" encoding="UTF-8"?>
<svg width="40" height="52" version="1.1" viewBox="0 0 10.583 13.758" xmlns="http://www.w3.org/2000/svg" xmlns:xlink="http://www.w3.org/1999/xlink"><defs><linearGradient id="linearGradient13253" x1="748" x2="748" y1="139" y2="169" gradientTransform="translate(98,580)" gradientUnits="userSpaceOnUse"><stop stop-opacity=".75294" offset="0"/><stop stop-opacity="0" offset="1"/></linearGradient><filter id="filter7885-4" color-interpolation-filters="sRGB"><feGaussianBlur stdDeviation="0.6"/></filter><mask id="mask-powermask-path-effect6600" maskUnits="userSpaceOnUse"><path id="mask-powermask-path-effect6600_box" d="m842 715h38v38h-38z" fill="#fff"/><circle cx="861" cy="720" r="15" d="M 875.99999,720 A 14.999988,14.999988 0 0 1 861,734.99999 14.999988,14.999988 0 0 1 846.00001,720 14.999988,14.999988 0 0 1 861,705.00001 14.999988,14.999988 0 0 1 875.99999,720 Z" fill="url(#linearGradient6598)"/></mask><linearGradient id="linearGradient6598" x1="763" x2="763" y1="119" y2="159" gradientTransform="matrix(.75 0 0 .75 288.75 615.75)" gradientUnits="userSpaceOnUse"><stop stop-color="#404040" offset="0"/><stop stop-color="#282828" offset="1"/></linearGradient></defs><g transform="translate(-95.41 -109.48)"><g transform="matrix(.26458 0 0 .26458 -127.1 -75.727)"><path d="m846 719v15c0 8.2843 6.7157 15 15 15s15-6.7157 15-15v-15c0 8.2843-6.7157 15-15 15s-15-6.7157-15-15z" fill="url(#linearGradient13253)" filter="url(#filter7885-4)" mask="url(#mask-powermask-path-effect6600)"/></g></g></svg>
