<?xml version="1.0" encoding="UTF-8"?>
<svg width="15" height="52" version="1.1" viewBox="0 0 3.9687 13.758" xmlns="http://www.w3.org/2000/svg" xmlns:xlink="http://www.w3.org/1999/xlink"><defs><linearGradient id="linearGradient10563" x1="754" x2="754" y1="287" y2="343" gradientTransform="matrix(.26458 0 0 .26458 -189.27 101.86)" gradientUnits="userSpaceOnUse"><stop stop-color="#282828" offset="0"/><stop stop-color="#202020" offset="1"/></linearGradient><linearGradient id="linearGradient10565" x1="789" x2="789" y1="321" y2="373" gradientTransform="matrix(.34018 0 0 .26458 -249.18 93.398)" gradientUnits="userSpaceOnUse"><stop stop-color="#fff" stop-opacity=".027451" offset="0"/><stop stop-color="#fff" stop-opacity=".035294" offset=".5"/><stop stop-color="#fff" stop-opacity=".016523" offset="1"/></linearGradient><linearGradient id="linearGradient10567" x1="789" x2="786" y1="347" y2="347" gradientTransform="matrix(.26458 0 0 .26458 -189.54 93.398)" gradientUnits="userSpaceOnUse" xlink:href="#linearGradient8803"/><linearGradient id="linearGradient8803"><stop stop-opacity=".37195" offset="0"/><stop stop-opacity="0" offset="1"/></linearGradient><linearGradient id="linearGradient10569" x1="789" x2="786" y1="347" y2="347" gradientTransform="matrix(-.26458 0 0 .26458 230.36 93.398)" gradientUnits="userSpaceOnUse" xlink:href="#linearGradient8803"/></defs><g transform="rotate(90 100.36 86.831)"><g transform="rotate(-90 20.411 185.21)"><rect x="18.426" y="178.33" width="3.9688" height="13.758" rx=".26458" ry=".26458" fill="url(#linearGradient10563)"/><rect x="19.22" y="178.33" width="2.3812" height="13.758" fill="url(#linearGradient10565)"/><path d="m19.485 192.09c-0.14658 0-0.26458-0.118-0.26458-0.26458v-0.26459c0 0.14658 0.118 0.26459 0.26458 0.26459h1.8521c0.14658 0 0.26458-0.11801 0.26458-0.26459v0.26459c0 0.14658-0.118 0.26458-0.26458 0.26458z" fill-opacity=".25098"/><path d="m18.691 178.33c-0.14658 0-0.26458 0.118-0.26458 0.26458v13.229c0 0.14658 0.118 0.26458 0.26458 0.26458h0.52917v-13.758z" fill="url(#linearGradient10567)"/><path d="m22.131 178.33c0.14658 0 0.26458 0.118 0.26458 0.26458v13.229c0 0.14658-0.118 0.26458-0.26458 0.26458h-0.52917v-13.758z" fill="url(#linearGradient10569)"/><path d="m19.485 178.33c-0.14658 0-0.26458 0.118-0.26458 0.26458v0.26458c0-0.14658 0.118-0.26458 0.26458-0.26458h1.8521c0.14658 0 0.26458 0.118 0.26458 0.26458v-0.26458c0-0.14658-0.118-0.26458-0.26458-0.26458z" fill="#fff" fill-opacity=".062745"/><rect x="20.278" y="178.33" width=".26458" height="13.758" fill="#fff" fill-opacity=".25098"/><rect x="20.014" y="178.33" width=".26458" height="13.758" fill-opacity=".12549"/><rect x="20.543" y="178.33" width=".26458" height="13.758" fill-opacity=".12549"/></g></g></svg>
