<?xml version="1.0" encoding="UTF-8"?>
<svg width="80" height="20" version="1.1" viewBox="0 0 21.167 5.2916" xmlns="http://www.w3.org/2000/svg" xmlns:xlink="http://www.w3.org/1999/xlink"><defs><linearGradient id="linearGradient9034" x1="87" x2="218" y1="-713" y2="-713" gradientTransform="matrix(0 .26458 -.26458 0 -182.83 -23.019)" gradientUnits="userSpaceOnUse"><stop stop-color="#fff" stop-opacity="0" offset="0"/><stop stop-color="#fff" stop-opacity=".039216" offset=".19608"/><stop stop-color="#fff" stop-opacity=".047059" offset="1"/></linearGradient><filter id="filter8954" x="-.077308" y="-.268" width="1.1546" height="1.536"><feGaussianBlur stdDeviation="1.675"/></filter><linearGradient id="linearGradient25272" x1="754" x2="754" y1="287" y2="343" gradientTransform="translate(-701,-1028)" gradientUnits="userSpaceOnUse"><stop stop-color="#282828" offset="0"/><stop stop-color="#202020" offset="1"/></linearGradient><linearGradient id="linearGradient25274" x1="789" x2="789" y1="321" y2="373" gradientTransform="matrix(1.2857 0 0 1 -927.43 -1060)" gradientUnits="userSpaceOnUse"><stop stop-color="#fff" stop-opacity=".015686" offset="0"/><stop stop-color="#fff" stop-opacity=".035294" offset=".5"/><stop stop-color="#fff" stop-opacity=".016523" offset="1"/></linearGradient><linearGradient id="linearGradient25276" x1="789" x2="786" y1="347" y2="347" gradientTransform="rotate(90,881,179)" gradientUnits="userSpaceOnUse"><stop stop-color="#fff" stop-opacity=".097561" offset="0"/><stop stop-color="#fff" stop-opacity=".079268" offset=".5"/><stop stop-color="#fff" stop-opacity=".036585" offset="1"/></linearGradient><linearGradient id="linearGradient25278" x1="789" x2="786" y1="347" y2="347" gradientTransform="matrix(0,-1,-1,0,1060,885)" gradientUnits="userSpaceOnUse"><stop stop-opacity=".37195" offset="0"/><stop stop-opacity="0" offset="1"/></linearGradient></defs><path d="m5.8208 0c-0.43974 0-0.79375 0.35401-0.79375 0.79375v33.073c0 0.43974 0.35401 0.79375 0.79375 0.79375s0.79375-0.35401 0.79375-0.79375v-33.073c0-0.43974-0.35401-0.79375-0.79375-0.79375zm-0.0331 0.26458h0.0661c0.27379 0 0.4961 0.23601 0.4961 0.52917v33.073c0 0.29316-0.22231 0.52917-0.4961 0.52917h-0.0661c-0.27379 0-0.4961-0.23601-0.4961-0.52917v-33.073c0-0.29316 0.22231-0.52917 0.4961-0.52917z" fill="url(#linearGradient9034)"/><g transform="matrix(.26459 0 0 .26459 -178.09 -22.226)"><rect transform="rotate(90,-2,2)" x="83" y="-739" width="15" height="52" rx="1" ry="1" fill-opacity=".62745" filter="url(#filter8954)"/><g><rect transform="rotate(90)" x="84" y="-739" width="15" height="52" rx="1" ry="1" fill="url(#linearGradient25272)"/><rect transform="rotate(90)" x="87" y="-739" width="9" height="52" fill="url(#linearGradient25274)"/><path d="m739 85c0-0.554-0.446-1-1-1h-50c-0.554 0-1 0.446-1 1v2h52z" fill="url(#linearGradient25276)"/><path d="m739 98c0 0.554-0.446 1-1 1h-50c-0.554 0-1-0.446-1-1v-2h52z" fill="url(#linearGradient25278)"/></g><rect transform="rotate(90)" x="91" y="-739" width="1" height="52" fill="#fff" fill-opacity=".25098"/><rect transform="rotate(90)" x="90" y="-739" width="1" height="52" fill-opacity=".12549"/></g></svg>
