<?xml version="1.0" encoding="UTF-8" standalone="no"?>
<svg
   xmlns:dc="http://purl.org/dc/elements/1.1/"
   xmlns:cc="http://creativecommons.org/ns#"
   xmlns:rdf="http://www.w3.org/1999/02/22-rdf-syntax-ns#"
   xmlns:svg="http://www.w3.org/2000/svg"
   xmlns="http://www.w3.org/2000/svg"
   width="11.641666mm"
   height="58.737503mm"
   viewBox="0 0 11.641666 58.737502"
   version="1.1"
   id="svg7436">
  <defs
     id="defs7430">
    <filter
       id="filter8857"
       x="-0.26800001"
       width="1.536"
       y="-0.077307694"
       height="1.1546154">
      <feGaussianBlur
         stdDeviation="1.675"
         id="feGaussianBlur8859" />
    </filter>
    <linearGradient
       id="linearGradient8129">
      <stop
         id="stop8131"
         offset="0"
         style="stop-color:#282828;stop-opacity:1;" />
      <stop
         id="stop8133"
         offset="1"
         style="stop-color:#202020;stop-opacity:1;" />
    </linearGradient>
    <linearGradient
       id="linearGradient8865">
      <stop
         style="stop-color:#ffffff;stop-opacity:0.02745098;"
         offset="0"
         id="stop8867" />
      <stop
         id="stop8875"
         offset="0.5"
         style="stop-color:#ffffff;stop-opacity:0.03529412;" />
      <stop
         style="stop-color:#ffffff;stop-opacity:0.0165232;"
         offset="1"
         id="stop8869" />
    </linearGradient>
    <linearGradient
       id="linearGradient8803">
      <stop
         style="stop-color:#000000;stop-opacity:0.37195122;"
         offset="0"
         id="stop8805" />
      <stop
         style="stop-color:#000000;stop-opacity:0;"
         offset="1"
         id="stop8807" />
    </linearGradient>
  </defs>
  <metadata
     id="metadata7433">
    <rdf:RDF>
      <cc:Work
         rdf:about="">
        <dc:format>image/svg+xml</dc:format>
        <dc:type
           rdf:resource="http://purl.org/dc/dcmitype/StillImage" />
        <dc:title></dc:title>
      </cc:Work>
    </rdf:RDF>
  </metadata>
  <g
     id="layer1"
     transform="translate(-70.530361,-135.39107)">
    <g
       id="g10551"
       transform="matrix(0.26458333,0,0,0.26458333,-114.94255,72.949406)"
       style="display:inline" />
    <g
       id="g8951"
       transform="rotate(-90,76.351193,164.75982)">
      <path
         style="display:inline;fill:#ffffff;fill-opacity:0.0627451;stroke:none;stroke-width:0.264583"
         d="m 46.998981,164.89211 c -0.01085,0.0423 -0.01654,0.0865 -0.01654,0.13229 0,0.29316 0.236008,0.52917 0.529166,0.52917 h 57.679173 c 0.29316,0 0.52916,-0.23601 0.52916,-0.52917 0,-0.0458 -0.006,-0.09 -0.0165,-0.13229 -0.0586,0.2286 -0.26528,0.39688 -0.51263,0.39688 H 47.511611 c -0.247351,0 -0.454085,-0.16828 -0.51263,-0.39688 z"
         id="rect8881" />
      <rect
         style="display:inline;fill:#000000;fill-opacity:0.501961;stroke:none;stroke-width:0.264583"
         id="rect8772"
         width="58.737499"
         height="1.0583333"
         x="46.982445"
         y="164.23065"
         rx="0.52916664"
         ry="0.52916664" />
      <g
         id="g10836"
         transform="matrix(0.26458333,0,0,0.26458333,-104.35922,72.949406)"
         style="display:inline">
        <rect
           transform="matrix(0,-1,-1,0,0,0)"
           style="fill:#ffffff;fill-opacity:0.12549;stroke:none"
           id="rect10209"
           width="15"
           height="1"
           x="-369"
           y="-574"
           rx="0"
           ry="1" />
        <rect
           transform="matrix(0,-1,-1,0,0,0)"
           ry="1"
           rx="0"
           y="-575"
           x="-369"
           height="1"
           width="15"
           id="rect10211"
           style="fill:#000000;fill-opacity:0.12549;stroke:none" />
        <rect
           transform="matrix(0,-1,-1,0,0,0)"
           ry="1"
           rx="0"
           y="-574"
           x="-340"
           height="1"
           width="15"
           id="rect10213"
           style="fill:#ffffff;fill-opacity:0.12549;stroke:none" />
        <rect
           transform="matrix(0,-1,-1,0,0,0)"
           style="fill:#000000;fill-opacity:0.12549;stroke:none"
           id="rect10215"
           width="15"
           height="1"
           x="-340"
           y="-575"
           rx="0"
           ry="1" />
        <rect
           style="fill:#000000;fill-opacity:0.12549;stroke:none"
           id="rect10832"
           width="15"
           height="1"
           x="-369"
           y="-573"
           rx="0"
           ry="1"
           transform="matrix(0,-1,-1,0,0,0)" />
        <rect
           ry="1"
           rx="0"
           y="-573"
           x="-340"
           height="1"
           width="15"
           id="rect10834"
           style="fill:#000000;fill-opacity:0.12549;stroke:none"
           transform="matrix(0,-1,-1,0,0,0)" />
      </g>
      <g
         id="g10844"
         transform="matrix(0.26458333,0,0,0.26458333,-46.415471,72.949406)"
         style="display:inline">
        <rect
           ry="1"
           rx="0"
           y="-574"
           x="-369"
           height="1"
           width="15"
           id="rect10846"
           style="fill:#ffffff;fill-opacity:0.12549;stroke:none"
           transform="matrix(0,-1,-1,0,0,0)" />
        <rect
           style="fill:#000000;fill-opacity:0.12549;stroke:none"
           id="rect10848"
           width="15"
           height="1"
           x="-369"
           y="-575"
           rx="0"
           ry="1"
           transform="matrix(0,-1,-1,0,0,0)" />
        <rect
           style="fill:#ffffff;fill-opacity:0.12549;stroke:none"
           id="rect10850"
           width="15"
           height="1"
           x="-340"
           y="-574"
           rx="0"
           ry="1"
           transform="matrix(0,-1,-1,0,0,0)" />
        <rect
           ry="1"
           rx="0"
           y="-575"
           x="-340"
           height="1"
           width="15"
           id="rect10852"
           style="fill:#000000;fill-opacity:0.12549;stroke:none"
           transform="matrix(0,-1,-1,0,0,0)" />
        <rect
           transform="matrix(0,-1,-1,0,0,0)"
           ry="1"
           rx="0"
           y="-573"
           x="-369"
           height="1"
           width="15"
           id="rect10854"
           style="fill:#000000;fill-opacity:0.12549;stroke:none" />
        <rect
           transform="matrix(0,-1,-1,0,0,0)"
           style="fill:#000000;fill-opacity:0.12549;stroke:none"
           id="rect10856"
           width="15"
           height="1"
           x="-340"
           y="-573"
           rx="0"
           ry="1" />
      </g>
      <g
         id="g10860"
         transform="matrix(0.26458333,0,0,0.26458333,-85.044637,72.949406)"
         style="display:inline">
        <rect
           ry="1"
           rx="0"
           y="-574"
           x="-369"
           height="1"
           width="15"
           id="rect10862"
           style="fill:#ffffff;fill-opacity:0.12549;stroke:none"
           transform="matrix(0,-1,-1,0,0,0)" />
        <rect
           style="fill:#000000;fill-opacity:0.12549;stroke:none"
           id="rect10864"
           width="15"
           height="1"
           x="-369"
           y="-575"
           rx="0"
           ry="1"
           transform="matrix(0,-1,-1,0,0,0)" />
        <rect
           style="fill:#ffffff;fill-opacity:0.12549;stroke:none"
           id="rect10866"
           width="15"
           height="1"
           x="-340"
           y="-574"
           rx="0"
           ry="1"
           transform="matrix(0,-1,-1,0,0,0)" />
        <rect
           ry="1"
           rx="0"
           y="-575"
           x="-340"
           height="1"
           width="15"
           id="rect10868"
           style="fill:#000000;fill-opacity:0.12549;stroke:none"
           transform="matrix(0,-1,-1,0,0,0)" />
        <rect
           transform="matrix(0,-1,-1,0,0,0)"
           ry="1"
           rx="0"
           y="-573"
           x="-369"
           height="1"
           width="15"
           id="rect10870"
           style="fill:#000000;fill-opacity:0.12549;stroke:none" />
        <rect
           transform="matrix(0,-1,-1,0,0,0)"
           style="fill:#000000;fill-opacity:0.12549;stroke:none"
           id="rect10872"
           width="15"
           height="1"
           x="-340"
           y="-573"
           rx="0"
           ry="1" />
      </g>
      <g
         transform="matrix(0.26458333,0,0,0.26458333,-65.730054,72.949406)"
         id="g10876"
         style="display:inline">
        <rect
           transform="matrix(0,-1,-1,0,0,0)"
           style="fill:#ffffff;fill-opacity:0.12549;stroke:none"
           id="rect10878"
           width="15"
           height="1"
           x="-369"
           y="-574"
           rx="0"
           ry="1" />
        <rect
           transform="matrix(0,-1,-1,0,0,0)"
           ry="1"
           rx="0"
           y="-575"
           x="-369"
           height="1"
           width="15"
           id="rect10880"
           style="fill:#000000;fill-opacity:0.12549;stroke:none" />
        <rect
           transform="matrix(0,-1,-1,0,0,0)"
           ry="1"
           rx="0"
           y="-574"
           x="-340"
           height="1"
           width="15"
           id="rect10882"
           style="fill:#ffffff;fill-opacity:0.12549;stroke:none" />
        <rect
           transform="matrix(0,-1,-1,0,0,0)"
           style="fill:#000000;fill-opacity:0.12549;stroke:none"
           id="rect10884"
           width="15"
           height="1"
           x="-340"
           y="-575"
           rx="0"
           ry="1" />
        <rect
           style="fill:#000000;fill-opacity:0.12549;stroke:none"
           id="rect10886"
           width="15"
           height="1"
           x="-369"
           y="-573"
           rx="0"
           ry="1"
           transform="matrix(0,-1,-1,0,0,0)" />
        <rect
           ry="1"
           rx="0"
           y="-573"
           x="-340"
           height="1"
           width="15"
           id="rect10888"
           style="fill:#000000;fill-opacity:0.12549;stroke:none"
           transform="matrix(0,-1,-1,0,0,0)" />
      </g>
    </g>
  </g>
</svg>
