<?xml version="1.0" encoding="UTF-8" standalone="no"?>
<!-- Created with Inkscape (http://www.inkscape.org/) -->

<svg
   xmlns:dc="http://purl.org/dc/elements/1.1/"
   xmlns:cc="http://creativecommons.org/ns#"
   xmlns:rdf="http://www.w3.org/1999/02/22-rdf-syntax-ns#"
   xmlns:svg="http://www.w3.org/2000/svg"
   xmlns="http://www.w3.org/2000/svg"
   xmlns:sodipodi="http://sodipodi.sourceforge.net/DTD/sodipodi-0.dtd"
   xmlns:inkscape="http://www.inkscape.org/namespaces/inkscape"
   version="1.1"
   width="20"
   height="20"
   viewBox="0 0 20 20"
   id="svg2"
   inkscape:version="0.48.4 r9939"
   sodipodi:docname="btn_spinny_on.svg">
  <sodipodi:namedview
     pagecolor="#ffffff"
     bordercolor="#666666"
     borderopacity="1"
     objecttolerance="10"
     gridtolerance="10"
     guidetolerance="10"
     inkscape:pageopacity="0"
     inkscape:pageshadow="2"
     inkscape:window-width="1366"
     inkscape:window-height="746"
     id="namedview7"
     showgrid="false"
     inkscape:object-paths="true"
     inkscape:snap-bbox="true"
     inkscape:snap-bbox-midpoints="true"
     inkscape:zoom="5.6568542"
     inkscape:cx="-3.3376885"
     inkscape:cy="19.55709"
     inkscape:window-x="0"
     inkscape:window-y="0"
     inkscape:window-maximized="1"
     inkscape:current-layer="layer2"
     inkscape:bbox-paths="true"
     inkscape:snap-page="true" />
  <metadata
     id="metadata12">
    <rdf:RDF>
      <cc:Work
         rdf:about="">
        <dc:format>image/svg+xml</dc:format>
        <dc:type
           rdf:resource="http://purl.org/dc/dcmitype/StillImage" />
        <dc:title />
      </cc:Work>
    </rdf:RDF>
  </metadata>
  <defs
     id="defs10" />
  <g
     inkscape:groupmode="layer"
     id="layer2"
     inkscape:label="ON"
     style="display:inline"
     transform="translate(0,-28)">
    <path
       style="fill:#d2d2d2;fill-opacity:1;display:inline"
       d="m 9.6875,30.916667 c -0.513612,0.02196 -1.0303625,0.102256 -1.5234375,0.234375 -1.7531554,0.469756 -3.3202267,1.615451 -4.296875,3.307291 -1.9535435,3.383401 -0.7923728,7.72114 2.5911458,9.674479 3.3833577,1.953383 7.7210967,0.792213 9.6744787,-2.591145 0.108423,-0.187794 0.210145,-0.366865 0.29948,-0.559896 0.07461,-0.161048 0.133991,-0.343855 0.195312,-0.507813 0.0145,-0.03925 0.0381,-0.06461 0.05208,-0.104166 0.06388,-0.180173 0.120695,-0.364333 0.169271,-0.546875 0.0038,-0.01482 -0.0038,-0.03726 0,-0.05208 0.05087,-0.19653 0.09706,-0.387685 0.130209,-0.585937 0.47766,-2.836095 -0.804914,-5.798126 -3.437497,-7.317709 -1.057327,-0.610532 -2.203729,-0.918861 -3.346354,-0.95052 -0.171394,-0.0047 -0.336609,-0.0073 -0.507813,0 z m 3.190104,1.09375 c 0.06234,0.03002 0.120864,0.05918 0.182292,0.09115 0.142267,0.07402 0.27988,0.150266 0.416667,0.234375 0.09202,0.05658 0.184096,0.13398 0.273437,0.195313 l -2.447917,4.231771 c -0.141516,-0.148187 -0.306244,-0.270669 -0.494791,-0.364584 -0.106288,-0.05294 -0.218794,-0.0851 -0.338542,-0.117187 -0.0175,-0.0047 -0.0346,-0.0089 -0.05208,-0.01302 l 2.460934,-4.257812 z m -2.929687,5.01302 c 0.194328,-0.01196 0.372133,0.03684 0.533854,0.130209 0.215627,0.124492 0.385583,0.337168 0.455729,0.598958 0.05149,0.192174 0.04447,0.372551 -0.01302,0.546875 -0.0033,0.0096 0.0035,0.02963 0,0.03906 -0.01515,0.04142 -0.04456,0.07857 -0.0651,0.117187 -0.0058,0.01083 -0.0068,0.01529 -0.01302,0.02604 -0.0055,0.0097 -0.0072,0.02983 -0.01302,0.03906 -0.02585,0.04145 -0.05931,0.07998 -0.09114,0.117188 -0.0021,0.0026 -0.01088,-0.0026 -0.01302,0 -0.122875,0.140554 -0.286394,0.247128 -0.481771,0.299479 -0.193305,0.0518 -0.384515,0.0454 -0.559896,-0.01302 -0.01137,-0.004 -0.01475,-0.0086 -0.02604,-0.01302 -0.03323,-0.0125 -0.07262,-0.02308 -0.104166,-0.03906 -0.01546,-0.008 -0.02377,-0.01722 -0.03906,-0.02604 -0.01577,-0.0091 -0.03692,-0.02919 -0.05208,-0.03906 -0.02837,-0.01845 -0.05179,-0.03067 -0.07813,-0.05208 -0.01079,-0.0086 -0.02879,-0.01708 -0.03906,-0.02604 -0.137803,-0.122402 -0.234763,-0.288844 -0.286458,-0.481771 -0.0517,-0.192928 -0.04512,-0.384992 0.01302,-0.559896 0.0044,-0.0129 0.008,-0.0262 0.01302,-0.03906 0.0121,-0.03172 0.02372,-0.06099 0.03906,-0.09115 0.0082,-0.01612 0.01694,-0.0233 0.02604,-0.03906 0.01048,-0.01815 0.02771,-0.0349 0.03906,-0.05208 0.01717,-0.0256 0.03266,-0.05414 0.05208,-0.07813 0.01122,-0.01391 0.0274,-0.02605 0.03906,-0.03906 0.121527,-0.133529 0.279779,-0.235823 0.46875,-0.286458 0.06545,-0.01754 0.130536,-0.03507 0.195313,-0.03906 z"
       id="path3800"
       inkscape:connector-curvature="0" />
  </g>
  <g
     inkscape:groupmode="layer"
     id="layer3"
     inkscape:label="Off"
     style="display:none"
     transform="translate(0,-28)">
    <path
       inkscape:connector-curvature="0"
       style="fill:#666666;fill-opacity:1;display:inline"
       d="m 23.25,7.0000004 c -1.232669,0.052703 -2.47287,0.2454143 -3.65625,0.5625 C 15.386177,8.6899162 11.625206,11.439584 9.28125,15.5 4.5927456,23.620162 7.3795554,34.030735 15.5,38.71875 23.620059,43.406868 34.030632,40.620059 38.71875,32.5 c 0.260215,-0.450706 0.504348,-0.880474 0.71875,-1.34375 0.179067,-0.386514 0.32158,-0.825252 0.46875,-1.21875 0.0348,-0.09421 0.09143,-0.155074 0.125,-0.25 0.153307,-0.432414 0.289666,-0.874398 0.40625,-1.3125 0.0091,-0.03557 -0.0091,-0.08942 0,-0.125 0.122076,-0.471673 0.232937,-0.930444 0.3125,-1.40625 1.146377,-6.806628 -1.931801,-13.915502 -8.25,-17.5624996 -2.537583,-1.4652784 -5.288949,-2.205268 -8.03125,-2.28125 -0.411345,-0.011397 -0.80786,-0.017568 -1.21875,0 z m 7.65625,2.625 c 0.149626,0.072059 0.290073,0.1420392 0.4375,0.21875 0.34144,0.1776506 0.671712,0.3606376 1,0.5624996 C 32.564593,10.542046 32.785582,10.727801 33,10.875 L 27.125,21.03125 C 26.78536,20.675602 26.390013,20.381644 25.9375,20.15625 25.682409,20.02919 25.412394,19.952 25.125,19.875 25.083,19.86374 25.04196,19.85375 25,19.84375 L 30.90625,9.6250004 z M 23.875,21.65625 c 0.466389,-0.02871 0.893121,0.08842 1.28125,0.3125 0.517505,0.298782 0.925399,0.809204 1.09375,1.4375 0.123583,0.461217 0.106719,0.894121 -0.03125,1.3125 -0.0079,0.02296 0.0085,0.07112 0,0.09375 -0.03637,0.0994 -0.10694,0.188556 -0.15625,0.28125 -0.01388,0.026 -0.01635,0.0367 -0.03125,0.0625 C 26.01813,25.17964 26.01392,25.22785 26,25.25 c -0.06204,0.09949 -0.142355,0.191961 -0.21875,0.28125 -0.0051,0.0062 -0.02612,-0.0062 -0.03125,0 -0.2949,0.337331 -0.687345,0.593107 -1.15625,0.71875 -0.463931,0.12431 -0.922835,0.108953 -1.34375,-0.03125 -0.0273,-0.0096 -0.03541,-0.02058 -0.0625,-0.03125 -0.07976,-0.03 -0.174296,-0.05539 -0.25,-0.09375 -0.0371,-0.01915 -0.05705,-0.04132 -0.09375,-0.0625 -0.03784,-0.02185 -0.0886,-0.07006 -0.125,-0.09375 -0.06808,-0.04428 -0.124288,-0.07361 -0.1875,-0.125 C 22.50535,25.79181 22.46216,25.7715 22.4375,25.75 22.106773,25.456237 21.874067,25.056776 21.75,24.59375 21.625932,24.130724 21.641718,23.669769 21.78125,23.25 c 0.01061,-0.03095 0.01917,-0.06288 0.03125,-0.09375 0.02904,-0.07612 0.05693,-0.146365 0.09375,-0.21875 0.01969,-0.0387 0.04065,-0.05591 0.0625,-0.09375 0.02516,-0.04357 0.06651,-0.08377 0.09375,-0.125 0.04121,-0.06144 0.07838,-0.12994 0.125,-0.1875 0.02692,-0.03338 0.06577,-0.06251 0.09375,-0.09375 0.291664,-0.32047 0.671469,-0.565977 1.125,-0.6875 0.157074,-0.04209 0.313287,-0.08418 0.46875,-0.09375 z"
       id="path3800-3" />
  </g>
</svg>
