<?xml version="1.0" encoding="UTF-8" standalone="no"?>
<!-- Created with Inkscape (http://www.inkscape.org/) -->

<svg
   xmlns:dc="http://purl.org/dc/elements/1.1/"
   xmlns:cc="http://creativecommons.org/ns#"
   xmlns:rdf="http://www.w3.org/1999/02/22-rdf-syntax-ns#"
   xmlns:svg="http://www.w3.org/2000/svg"
   xmlns="http://www.w3.org/2000/svg"
   xmlns:sodipodi="http://sodipodi.sourceforge.net/DTD/sodipodi-0.dtd"
   xmlns:inkscape="http://www.inkscape.org/namespaces/inkscape"
   width="56"
   height="56"
   id="svg2"
   version="1.1"
   inkscape:version="0.48.4 r9939"
   sodipodi:docname="btn_master_mute.svg">
  <defs
     id="defs4" />
  <sodipodi:namedview
     id="base"
     pagecolor="#ffffff"
     bordercolor="#666666"
     borderopacity="1.0"
     inkscape:pageopacity="0.0"
     inkscape:pageshadow="2"
     inkscape:zoom="1"
     inkscape:cx="14.764513"
     inkscape:cy="14.072401"
     inkscape:document-units="px"
     inkscape:current-layer="g3923"
     showgrid="false"
     inkscape:snap-page="true"
     inkscape:snap-bbox="true"
     inkscape:snap-bbox-midpoints="true"
     inkscape:snap-bbox-edge-midpoints="true"
     inkscape:bbox-nodes="true"
     inkscape:bbox-paths="true"
     inkscape:snap-object-midpoints="true"
     inkscape:object-nodes="true"
     inkscape:snap-smooth-nodes="true"
     inkscape:object-paths="true"
     showguides="true"
     inkscape:guide-bbox="true"
     inkscape:window-width="1366"
     inkscape:window-height="746"
     inkscape:window-x="0"
     inkscape:window-y="0"
     inkscape:window-maximized="1"
     inkscape:snap-global="false" />
  <metadata
     id="metadata7">
    <rdf:RDF>
      <cc:Work
         rdf:about="">
        <dc:format>image/svg+xml</dc:format>
        <dc:type
           rdf:resource="http://purl.org/dc/dcmitype/StillImage" />
        <dc:title></dc:title>
      </cc:Work>
    </rdf:RDF>
  </metadata>
  <g
     inkscape:groupmode="layer"
     id="layer1"
     inkscape:label="headphone"
     style="display:none">
    <path
       inkscape:connector-curvature="0"
       style="font-size:medium;font-style:normal;font-variant:normal;font-weight:normal;font-stretch:normal;text-indent:0;text-align:start;text-decoration:none;line-height:normal;letter-spacing:normal;word-spacing:normal;text-transform:none;direction:ltr;block-progression:tb;writing-mode:lr-tb;text-anchor:start;baseline-shift:baseline;color:#000000;fill:#0f0f0f;fill-opacity:1;stroke:none;stroke-width:0.5;marker:none;visibility:visible;display:inline;overflow:visible;enable-background:accumulate;font-family:Sans;-inkscape-font-specification:Sans"
       d="M 28,7.71875 C 16.823882,7.71875 7.71875,16.8237 7.71875,28 c 0,1.2779 0.1165944,2.50725 0.34375,3.71875 l 0.3125,1.6875 c -0.6845218,0.420478 -1.0961337,1.22385 -0.9375,2.0625 l 2.40625,12.625 c 0.205406,1.085923 1.226577,1.799156 2.3125,1.59375 l 4.5,-0.84375 C 17.742173,48.638344 18.455406,47.585923 18.25,46.5 L 15.84375,33.875 c -0.205406,-1.085923 -1.226577,-1.799156 -2.3125,-1.59375 L 12.75,32.4375 12.46875,30.90625 12.40625,30.625 l 0.0625,0 c -0.147469,-0.8597 -0.25,-1.7157 -0.25,-2.625 0,-8.7438 7.037512,-15.78125 15.78125,-15.78125 8.743738,-10e-5 15.78125,7.03745 15.78125,15.78125 0,1.0064 -0.104443,1.95805 -0.28125,2.90625 L 43.21875,32.4375 42.375,32.28125 c -1.085942,-0.205406 -2.13834,0.507827 -2.34375,1.59375 l -2.375,12.625 c -0.20541,1.085923 0.476558,2.138344 1.5625,2.34375 l 4.5,0.84375 c 1.085942,0.205406 2.10709,-0.507827 2.3125,-1.59375 l 2.40625,-12.625 C 48.58978,34.663705 48.258808,33.870614 47.625,33.4375 l 0.25,-1.40625 -0.03125,0 0.0625,-0.3125 C 48.134161,30.50325 48.28125,29.2738 48.28125,28 48.28125,16.8237 39.176117,7.71875 28,7.71875 z"
       id="path3925" />
  </g>
  <g
     transform="translate(0,-996.3622)"
     id="g3923"
     inkscape:groupmode="layer"
     inkscape:label="OFF"
     style="display:inline">
    <rect
       style="opacity:0.8427948;fill:#0f0f0f;fill-opacity:1;fill-rule:nonzero;stroke:none;display:inline"
       id="rect3787"
       width="127.63277"
       height="125.86501"
       x="-292.02475"
       y="1025.0168" />
    <path
       style="fill:#888888;fill-opacity:1;stroke:none"
       d="m 29.831847,1005.185 -12.715039,12.715 0,12.715 12.715039,12.7151 1.589379,0 0,-38.1451 -1.589379,0 z"
       id="path2991"
       inkscape:connector-curvature="0" />
    <rect
       style="fill:#888888;fill-opacity:1;fill-rule:nonzero;stroke:none;display:inline"
       id="rect3783-5"
       width="6.694572"
       height="12.715011"
       x="8.7485924"
       y="1017.9"
       rx="0.99999994"
       ry="0.99999994" />
    <path
       style="fill:#888888;fill-opacity:1;fill-rule:nonzero;stroke:none"
       d="m 37.122073,1008.6195 -0.889123,2.3797 c 5.487294,1.9706 9.414242,7.1949 9.414242,13.363 0,6.1392 -3.888781,11.345 -9.33579,13.3368 l 0.862972,2.3798 c 6.403706,-2.3516 10.983282,-8.5006 10.983282,-15.7166 0,-7.2367 -4.603068,-13.4063 -11.035583,-15.7427 z"
       id="path4069"
       inkscape:connector-curvature="0" />
    <path
       style="fill:#888888;fill-opacity:1;fill-rule:nonzero;stroke:none;display:inline"
       d="m 35.396128,1013.3528 -0.862972,2.3535 c 3.544938,1.2791 6.093107,4.6698 6.093107,8.6559 0,3.9567 -2.510686,7.3293 -6.014655,8.6297 l 0.836822,2.3536 c 4.485199,-1.6411 7.688297,-5.9297 7.688297,-10.9833 0,-5.0744 -3.226469,-9.3836 -7.740599,-11.0094 z"
       id="path4069-6"
       inkscape:connector-curvature="0" />
    <rect
       style="fill:#888888;fill-opacity:1;fill-rule:nonzero;stroke:none"
       id="rect4933"
       width="3.347286"
       height="43.514717"
       x="29.747583"
       y="1002.6048"
       rx="1.9999999"
       ry="1.9999999" />
    <rect
       style="fill:#ffffff;fill-opacity:1;fill-rule:nonzero;stroke:none;display:inline"
       id="rect3017"
       width="4"
       height="52"
       x="742.13245"
       y="678.53448"
       transform="matrix(0.70710678,0.70710678,-0.70710678,0.70710678,0,0)" />
  </g>
</svg>
