<?xml version="1.0" encoding="UTF-8" standalone="no"?>
<!-- Created with Inkscape (http://www.inkscape.org/) -->

<svg
   xmlns:dc="http://purl.org/dc/elements/1.1/"
   xmlns:cc="http://creativecommons.org/ns#"
   xmlns:rdf="http://www.w3.org/1999/02/22-rdf-syntax-ns#"
   xmlns:svg="http://www.w3.org/2000/svg"
   xmlns="http://www.w3.org/2000/svg"
   xmlns:sodipodi="http://sodipodi.sourceforge.net/DTD/sodipodi-0.dtd"
   xmlns:inkscape="http://www.inkscape.org/namespaces/inkscape"
   version="1.1"
   width="20"
   height="20"
   viewBox="0 0 20 20"
   id="svg2"
   inkscape:version="0.48.4 r9939"
   sodipodi:docname="btn_spinny_off.svg">
  <sodipodi:namedview
     pagecolor="#ffffff"
     bordercolor="#666666"
     borderopacity="1"
     objecttolerance="10"
     gridtolerance="10"
     guidetolerance="10"
     inkscape:pageopacity="0"
     inkscape:pageshadow="2"
     inkscape:window-width="1366"
     inkscape:window-height="746"
     id="namedview7"
     showgrid="false"
     inkscape:object-paths="true"
     inkscape:snap-bbox="true"
     inkscape:snap-bbox-midpoints="true"
     inkscape:zoom="8"
     inkscape:cx="-12.829001"
     inkscape:cy="28.278469"
     inkscape:window-x="0"
     inkscape:window-y="0"
     inkscape:window-maximized="1"
     inkscape:current-layer="layer3"
     inkscape:bbox-paths="true"
     inkscape:snap-page="true" />
  <metadata
     id="metadata12">
    <rdf:RDF>
      <cc:Work
         rdf:about="">
        <dc:format>image/svg+xml</dc:format>
        <dc:type
           rdf:resource="http://purl.org/dc/dcmitype/StillImage" />
        <dc:title />
      </cc:Work>
    </rdf:RDF>
  </metadata>
  <defs
     id="defs10" />
  <g
     inkscape:groupmode="layer"
     id="layer3"
     inkscape:label="On"
     style="display:inline"
     transform="translate(0,-28)">
    <path
       inkscape:connector-curvature="0"
       style="fill:#888888;fill-opacity:1;display:inline"
       d="m 9.6875,30.916667 c -0.5136121,0.02196 -1.0303625,0.102256 -1.5234375,0.234375 -1.7531554,0.469756 -3.3202267,1.615451 -4.296875,3.307291 -1.9535435,3.383401 -0.7923727,7.72114 2.5911458,9.674479 3.383358,1.953383 7.7210967,0.792213 9.6744787,-2.591145 0.108423,-0.187794 0.210145,-0.366865 0.29948,-0.559896 0.07461,-0.161048 0.133991,-0.343855 0.195312,-0.507813 0.0145,-0.03925 0.0381,-0.06461 0.05208,-0.104166 0.06388,-0.180173 0.120695,-0.364333 0.169271,-0.546875 0.0038,-0.01482 -0.0038,-0.03726 0,-0.05208 0.05087,-0.19653 0.09706,-0.387685 0.130209,-0.585937 0.477657,-2.836095 -0.804917,-5.798126 -3.4375,-7.317708 -1.057327,-0.610533 -2.203729,-0.918862 -3.346354,-0.950521 -0.171394,-0.0047 -0.3366088,-0.0073 -0.507813,0 z m 3.190104,1.09375 c 0.06234,0.03002 0.120864,0.05918 0.182292,0.09115 0.142267,0.07402 0.27988,0.150265 0.416667,0.234374 0.09202,0.05658 0.184096,0.13398 0.273437,0.195313 l -2.447917,4.231771 c -0.141516,-0.148187 -0.306244,-0.270669 -0.494791,-0.364584 -0.106288,-0.05294 -0.218794,-0.0851 -0.338542,-0.117187 -0.0175,-0.0047 -0.0346,-0.0089 -0.05208,-0.01302 l 2.460934,-4.257812 z m -2.9296873,5.01302 c 0.1943283,-0.01196 0.3721333,0.03684 0.5338543,0.130209 0.215627,0.124492 0.385583,0.337168 0.455729,0.598958 0.05149,0.192174 0.04447,0.372551 -0.01302,0.546875 -0.0033,0.0096 0.0035,0.02963 0,0.03906 -0.01515,0.04142 -0.04456,0.07857 -0.0651,0.117187 -0.0058,0.01083 -0.0068,0.01529 -0.01302,0.02604 -0.0055,0.0097 -0.0072,0.02983 -0.01302,0.03906 -0.02585,0.04145 -0.05931,0.07998 -0.09114,0.117188 -0.0021,0.0026 -0.01088,-0.0026 -0.01302,0 -0.122888,0.140554 -0.286407,0.247128 -0.481784,0.299479 -0.193305,0.0518 -0.3845147,0.0454 -0.559896,-0.01302 -0.011375,-0.004 -0.014754,-0.0086 -0.026042,-0.01302 -0.033233,-0.0125 -0.072623,-0.02308 -0.1041666,-0.03906 -0.015458,-0.008 -0.023771,-0.01722 -0.039063,-0.02604 -0.015767,-0.0091 -0.036917,-0.02919 -0.052083,-0.03906 -0.028367,-0.01845 -0.051787,-0.03067 -0.078125,-0.05208 -0.010792,-0.0086 -0.028787,-0.01708 -0.039063,-0.02604 C 9.2111554,38.606765 9.1141946,38.440323 9.0625,38.247396 9.010805,38.054468 9.0173825,37.862404 9.0755208,37.6875 c 0.00442,-0.0129 0.00799,-0.0262 0.013021,-0.03906 0.0121,-0.03172 0.023721,-0.06099 0.039063,-0.09115 0.0082,-0.01612 0.016937,-0.0233 0.026042,-0.03906 0.010483,-0.01815 0.027712,-0.0349 0.039063,-0.05208 0.017171,-0.0256 0.032658,-0.05414 0.052083,-0.07813 0.011217,-0.01391 0.027404,-0.02605 0.039063,-0.03906 0.1215266,-0.133529 0.2797787,-0.235823 0.46875,-0.286458 0.065447,-0.01754 0.1305362,-0.03507 0.1953125,-0.03906 z"
       id="path3800-3" />
  </g>
</svg>
