<svg width="26" height="26" version="1.1" xmlns="http://www.w3.org/2000/svg">
	<defs>
		<linearGradient id="b" x1="1.4220984" x2="24.143082" y1="19.699568" y2="19.699568" gradientTransform="translate(3.0040741e-5,-26.00003)" gradientUnits="userSpaceOnUse">
			<stop stop-color="#393939" offset="0"/>
			<stop stop-color="#393939" offset=".30102351"/>
			<stop stop-color="#141414" offset="1"/>
		</linearGradient>
		<linearGradient id="a" x1="2" x2="24" y1="12" y2="12" gradientTransform="translate(0,-24)" gradientUnits="userSpaceOnUse">
			<stop stop-opacity=".0047619" offset="0"/>
			<stop stop-opacity="0" offset=".5"/>
			<stop stop-opacity=".47451" offset="1"/>
		</linearGradient>
	</defs>
	<path d="m25 2.708984v21.291016c0 .545351-.454649 1-1 1h-22c-.043374 0-.073191.0036-.1152344-.002.2892095.571048.7949947 1.002 1.6152344 1.002h20c1.108 0 2-.892 2-2v-20.0000004c0-.4998619-.19821-.9420109-.5-1.2910156z"/>
	<rect transform="rotate(90)" x="1.50003" y="-24.5" width="23" height="23" rx="1.5" ry="1.5" color="#000000" fill="url(#a)"/>
	<rect transform="rotate(90)" x="1.50003" y="-24.5" width="23" height="23" rx=".30000001" ry=".30000001" fill="none" stroke="url(#b)" stroke-linecap="round" stroke-linejoin="round" style="paint-order:fill markers stroke"/>
	<rect transform="rotate(90)" x="2" y="-24" width="22" height="22" color="#000000" fill-opacity=".09019608"/>
</svg>
