<svg width="76" height="48" version="1.1" xmlns="http://www.w3.org/2000/svg" viewBox="0 0 38 24">
		<g transform="translate(-6)" fill="none" stroke="#000001" stroke-linecap="round" stroke-linejoin="round" stroke-width="1.6">
				<path d="m20 8h-7v7h7v-1h-5v-5h5z"/>
				<path d="m22 8v7h7v-7h-2v6h-3v-6z"/>
				<path d="m31 8v7h7v-1h-5v-3h4v-1h-4v-1h5v-1z"/>
		</g>
		<g transform="translate(-6)" fill="#d2d2d1">
				<path d="m20 8h-7v7h7v-1h-5v-5h5z"/>
				<path d="m22 8v7h7v-7h-2v6h-3v-6z"/>
				<path d="m31 8v7h7v-1h-5v-3h4v-1h-4v-1h5v-1z"/>
		</g>
</svg>
