<svg width="48" height="48" version="1.1" viewBox="0 0 24 24" xmlns="http://www.w3.org/2000/svg">
  <path d="m11.964844 3.0001652c-2.1733415 0.0149129-3.6627109 0.9892029-4.4003501 2.1357225-0.7376391 1.1465196-0.8196186 2.3241863-0.8144456 2.9589572 0.00703 0.8624814 0.00124 3.3395501 0 3.9052371h-0.9990142c-0.6249987 0-1.2509652 0.622462-1.2509652 1.245106v6.509706c0 0.622643 0.6259814 1.245105 1.2509652 1.245105h12.4979319c0.624998 0 1.250965-0.622462 1.250965-1.245105v-6.509706c0-0.622644-0.625982-1.245106-1.250965-1.245106h-0.999014c2.53e-4 -0.447538 0.0015-2.3659635 0-3.2577821-0.0015-0.9181693-0.09039-2.2693943-0.837884-3.5155927-0.7475-1.2461983-2.278365-2.2414504-4.447224-2.226542zm0.01466 2.2499793c1.566993-0.010771 2.110416 0.4791203 2.504853 1.1367083 0.394437 0.6575879 0.514423 1.629344 0.51562 2.3613063 0.0014 0.8835832 2.52e-4 2.8033759 0 3.2519229h-5.9999494c0.00133-0.570003 0.0074-3.0150118 0-3.9228151-0.00289-0.3554879 0.084277-1.1462014 0.457027-1.72557 0.3727499-0.5793744 0.9357564-1.0906652 2.5224374-1.1015524zm-4.4794627 9.7499095h8.9999167c0.415497 0 0.749994 0.334499 0.749994 0.749994 0 0.415496-0.334497 0.749993-0.749994 0.749993h-8.9999167c-0.4154957 0-0.7499931-0.334497-0.7499931-0.749993 0-0.415495 0.3344974-0.749994 0.7499931-0.749994zm0 2.999973h8.9999167c0.415497 0 0.749994 0.334498 0.749994 0.749993s-0.334497 0.749993-0.749994 0.749993h-8.9999167c-0.4154957 0-0.7499931-0.334498-0.7499931-0.749993s0.3344974-0.749993 0.7499931-0.749993z" color="#000000" fill="#bfbfbe" style="-inkscape-stroke:none"/>
</svg>
