<?xml version="1.0" encoding="UTF-8" standalone="no"?>
<svg
   xmlns:dc="http://purl.org/dc/elements/1.1/"
   xmlns:cc="http://creativecommons.org/ns#"
   xmlns:rdf="http://www.w3.org/1999/02/22-rdf-syntax-ns#"
   xmlns:svg="http://www.w3.org/2000/svg"
   xmlns="http://www.w3.org/2000/svg"
   id="svg16"
   version="1.1"
   height="36"
   width="28" viewBox="0 0 14 18">
  <metadata
     id="metadata22">
    <rdf:RDF>
      <cc:Work
         rdf:about="">
        <dc:format>image/svg+xml</dc:format>
        <dc:type
           rdf:resource="http://purl.org/dc/dcmitype/StillImage" />
        <dc:title></dc:title>
      </cc:Work>
    </rdf:RDF>
  </metadata>
  <defs
     id="defs20" />
  <g
     style="fill:none;stroke:#000001;stroke-width:1.60000002;stroke-linejoin:round"
     id="g8"
     transform="translate(-3.9997376,-1.989)">
    <g
       style="fill:none;stroke:#000001;stroke-width:1.70226443;stroke-linejoin:round"
       id="g6"
       transform="matrix(0.93992449,0,0,0.93992449,1.6003517,1.6003969)">
      <path
         id="path2"
         d="m 14.70815,11.4378 -4.708,4.7081 -4.708,-4.7081 -1.177,1.1771 5.885,5.8851 5.885,-5.8851 z" />
      <path
         id="path4"
         d="M 14.70815,8.562 10.00005,3.8539004 5.29195,8.562 4.11485,7.3849 9.99995,1.4998004 15.88505,7.3849 14.70795,8.562 Z" />
    </g>
  </g>
  <g
     style="fill:#999998"
     id="g14"
     transform="matrix(0.93992449,0,0,0.93992449,-2.3993859,-0.3886031)">
    <path
       id="path10"
       d="m 14.70815,11.4378 -4.708,4.7081 -4.708,-4.7081 -1.177,1.1771 5.885,5.8851 5.885,-5.8851 z" />
    <path
       id="path12"
       d="M 14.70815,8.562 10.00005,3.8539004 5.29195,8.562 4.11485,7.3849 9.99995,1.4998004 15.88505,7.3849 14.70795,8.562 Z" />
  </g>
</svg>
