<svg width="22" height="22" version="1.1" xmlns="http://www.w3.org/2000/svg">
	<g fill="none" stroke="#000001" stroke-width="1.6">
		<path d="m13.730156 7.0804229c1.509333.923162 2.519954 2.5811933 2.519954 4.4799511 0 2.900587-2.349347 5.250022-5.250022 5.250022s-5.250022-2.349435-5.250022-5.250022c0-1.8987578 1.0106213-3.5567891 2.5199542-4.4799511l-1.2643765-1.2643765c-1.8156164 1.2643765-3.0056437 3.3642797-3.0056437 5.7443276 0 3.867479 3.1325213 6.999912 7 6.999912 3.867479 0 7-3.132433 7-6.999912 0-2.3800479-1.190027-4.4799511-3.005644-5.7443276z"/>
		<path d="m11.999999 3h-1.9999998v6.0000003h1.9999998z"/>
	</g>
	<path d="m13.730156 7.080423c1.509333.923162 2.519954 2.5811933 2.519954 4.479951 0 2.900587-2.349347 5.250022-5.250022 5.250022s-5.250022-2.349435-5.250022-5.250022c0-1.8987577 1.0106213-3.556789 2.5199542-4.479951l-1.2643765-1.2643765c-1.8156164 1.2643765-3.0056437 3.3642797-3.0056437 5.7443275 0 3.867479 3.1325213 6.999912 7 6.999912 3.867479 0 7-3.132433 7-6.999912 0-2.3800478-1.190027-4.479951-3.005644-5.7443275z" fill="#d2d2d1"/>
	<path d="m11.999999 3.0000001h-1.9999998v6.0000003h1.9999998z" fill="#d2d2d1" stroke-width=".99999994"/>
</svg>
