<svg width="46" height="20" version="1.1" xmlns="http://www.w3.org/2000/svg">
		<g transform="translate(4)" fill="none" stroke="#000001" stroke-linecap="round" stroke-linejoin="round" stroke-width="1.6">
				<path d="m10 6h-7v4h5v2h-5v1h7v-4h-5v-2h5z"/>
				<path d="m18 6v7h6v-1h-4v-6z"/>
				<path d="m11 6v7h2v-3h4v-4zm2 1h3v2h-3z"/>
				<path d="m28 6h8v1h-3v6h-2v-6h-3z"/>
				<path d="m25 6h2v7h-2z" style="paint-order:fill markers stroke"/>
		</g>
		<g transform="translate(4)" fill="#d2d2d1">
				<path d="m10 6h-7v4h5v2h-5v1h7v-4h-5v-2h5z"/>
				<path d="m18 6v7h6v-1h-4v-6z"/>
				<path d="m11 6v7h2v-3h4v-4zm2 1h3v2h-3z"/>
				<path d="m28 6h8v1h-3v6h-2v-6h-3z"/>
				<path d="m25 6h2v7h-2z" style="paint-order:fill markers stroke"/>
		</g>
</svg>
