<svg width="80" height="44" version="1.1" xmlns="http://www.w3.org/2000/svg" viewBox="0 0 40 22">
		<g transform="translate(2,1)" fill="none" stroke="#000001" stroke-linecap="round" stroke-linejoin="round" stroke-width="1.6">
				<path d="m2 6h8v1h-3v6h-2v-6h-3z"/>
				<path d="m11 6v7h2v-3h3v3h2v-7zm2 1h3v2h-3z"/>
				<path d="m19 6v7h7v-1h-5v-6z"/>
				<path d="m27 6v7h2v-3h.5l3 3h1.5v-.5l-3-3 3-3v-.5h-1.5l-3 3h-.5v-3z"/>
		</g>
		<g transform="translate(2,1)" fill="#d2d2d1">
				<path d="m2 6h8v1h-3v6h-2v-6h-3z"/>
				<path d="m11 6v7h2v-3h3v3h2v-7zm2 1h3v2h-3z"/>
				<path d="m19 6v7h7v-1h-5v-6z"/>
				<path d="m27 6v7h2v-3h.5l3 3h1.5v-.5l-3-3 3-3v-.5h-1.5l-3 3h-.5v-3z"/>
		</g>
</svg>
