<?xml version="1.0" encoding="UTF-8" standalone="no"?>
<svg
   xmlns:dc="http://purl.org/dc/elements/1.1/"
   xmlns:cc="http://creativecommons.org/ns#"
   xmlns:rdf="http://www.w3.org/1999/02/22-rdf-syntax-ns#"
   xmlns:svg="http://www.w3.org/2000/svg"
   xmlns="http://www.w3.org/2000/svg"
   id="svg6"
   version="1.1"
   height="16"
   width="66">
  <metadata
     id="metadata12">
    <rdf:RDF>
      <cc:Work
         rdf:about="">
        <dc:format>image/svg+xml</dc:format>
        <dc:type
           rdf:resource="http://purl.org/dc/dcmitype/StillImage" />
        <dc:title></dc:title>
      </cc:Work>
    </rdf:RDF>
  </metadata>
  <defs
     id="defs10" />
  <path
     style="fill:#d2d2d1;fill-opacity:1"
     d="m 12.140236,7.9975861 c 0,1.1045999 -0.895425,2.0000035 -1.999987,2.0000035 -1.1045996,0 -1.9999996,-0.8954336 -1.9999996,-2.0000035 0,-1.1046 0.89543,-2 1.9999996,-2 1.104592,0 1.999987,0.89543 1.999987,2 z"
     id="path3245" />
  <path
     style="fill:#d2d2d1;fill-opacity:1"
     d="m 5.1090494,1.7787861 c -0.46983,0.37272 -0.88558,0.83607 -1.2712,1.2695 -0.34677,0.53773 -0.750721,1.0428 -0.9731711,1.6505 -0.3164203,0.65805 -0.5380905,1.3539 -0.6306505,2.08 -0.1462801,0.83028 -0.1078301,1.6844999 0.01383,2.5157999 0.3062802,1.907304 1.3517016,3.682004 2.8299016,4.921704 0.26042,-0.32292 0.52083,-0.64583 0.78125,-0.96875 -1.0985,-0.93442 -1.9431,-2.1971 -2.2728,-3.6081024 -0.1522,-0.5121016 -0.17992,-1.0499016 -0.22748,-1.5794015 0.01245,-0.66319 0.12302,-1.3252 0.28153,-1.9688 0.39737,-1.3023 1.1834,-2.4911 2.25,-3.3438 -0.26042,-0.32292 -0.52083,-0.64583 -0.78125,-0.96875 z"
     id="path3247" />
  <path
     style="text-indent:0;text-transform:none;fill:#d2d2d1;fill-opacity:1"
     color="#000000"
     d="m 5.1402494,1.8100861 c -0.43163,0.34953 -0.83797,0.75587 -1.1875,1.1875 -2.7581025,3.406 -2.218502,8.4294039 1.1875,11.1880039 l 0.75,-0.9375 c -2.902001,-2.35 -3.3500014,-6.5980039 -1,-9.5000039 l 0.09375,-0.09375 c 0.27528,-0.32661 0.57414,-0.63731 0.90625,-0.90625 l -0.75,-0.9375 z"
     id="path5888" />
  <path
     style="text-indent:0;text-transform:none;fill:#d2d2d1;fill-opacity:1"
     color="#000000"
     d="m 7.0152494,4.1537861 c -0.26844,0.21737 -0.50138,0.45031 -0.71875,0.71875 -1.7136,2.1161 -1.3974,5.2552039 0.71875,6.9688039 l 0.78125,-0.9375 c -1.6121,-1.3055028 -1.868,-3.6379039 -0.5625,-5.2500039 0.16461,-0.20327 0.35923,-0.39789 0.5625,-0.5625 l -0.78125,-0.9375 z"
     id="path5908" />
  <path
     style="text-indent:0;text-transform:none;fill:#d2d2d1;fill-opacity:1"
     color="#000000"
     d="m 15.140236,1.8100861 c 0.43163,0.34953 0.83797,0.75587 1.1875,1.1875 2.7581,3.406 2.2185,8.4294039 -1.1875,11.1880039 l -0.75,-0.9375 c 2.902,-2.35 3.35,-6.5980039 1,-9.5000039 l -0.09375,-0.09375 c -0.27528,-0.32661 -0.57414,-0.63731 -0.90625,-0.90625 l 0.75,-0.9375 z"
     id="path5888-5" />
  <path
     style="text-indent:0;text-transform:none;fill:#d2d2d1;fill-opacity:1"
     color="#000000"
     d="m 13.265236,4.1537861 c 0.26844,0.21737 0.50138,0.45031 0.71875,0.71875 1.7136,2.1161 1.3974,5.2552039 -0.71875,6.9688039 l -0.78125,-0.9375 c 1.6121,-1.3055028 1.868,-3.6379039 0.5625,-5.2500039 -0.1646,-0.20327 -0.35923,-0.39789 -0.5625,-0.5625 l 0.78125,-0.9375 z"
     id="path5908-3" />
</svg>
