<svg width="48" height="48" version="1.1" viewBox="0 0 24 24" xmlns="http://www.w3.org/2000/svg">
  <g transform="matrix(1.499956,0,0,1.499956,4.500265,-26.998837)" fill="#bfbfbe" stroke-width=".666686">
    <path transform="translate(0,20)" d="m4.9766 0c-1.4489 0.01-2.4418 0.65947-2.9336 1.4238l1.26172 0.81059c0.2485-0.38625 0.62385-0.7271 1.6816-0.73438 1.0447-0.00718 1.407 0.31941 1.6699 0.75781 0.26297 0.4384 0.34296 1.0862 0.34375 1.5742 9.639e-4 0.58906 1.684e-4 1.8689 0 2.168h-6.166c-0.41667 0-0.83398 0.41498-0.83398 0.83008v4.3398c0 0.4151 0.41732 0.83008 0.83398 0.83008h8.332c0.41667 0 0.83398-0.41498 0.83398-0.83008v-4.3398c0-0.4151-0.41732-0.83008-0.83398-0.83008h-0.66602c1.69e-4 -0.29836 9.685e-4 -1.5773 0-2.1719-9.966e-4 -0.61214-0.060246-1.5129-0.55859-2.3438-0.49835-0.83081-1.5189-1.4943-2.9648-1.4844zm-2.9766 8h6c0.277 0 0.5 0.223 0.5 0.5s-0.223 0.5-0.5 0.5h-6c-0.277 0-0.5-0.223-0.5-0.5s0.223-0.5 0.5-0.5zm0 2h6c0.277 0 0.5 0.223 0.5 0.5s-0.223 0.5-0.5 0.5h-6c-0.277 0-0.5-0.223-0.5-0.5s0.223-0.5 0.5-0.5z" color="#000001" color-rendering="auto" dominant-baseline="auto" fill="#bfbfbe" image-rendering="auto" shape-rendering="auto" solid-color="#000001" stroke-width=".666686" style="font-feature-settings:normal;font-variant-alternates:normal;font-variant-caps:normal;font-variant-ligatures:normal;font-variant-numeric:normal;font-variant-position:normal;isolation:auto;mix-blend-mode:normal;shape-padding:0;text-decoration-color:#000001;text-decoration-line:none;text-decoration-style:solid;text-indent:0;text-orientation:mixed;text-transform:none;white-space:normal"/>
  </g>
</svg>
