<?xml version="1.0" encoding="UTF-8" standalone="no"?>
<svg
   width="48"
   height="48"
   version="1.1"
   id="svg6"
   viewBox="0 0 24 24"
   xmlns="http://www.w3.org/2000/svg"
   xmlns:svg="http://www.w3.org/2000/svg"
   xmlns:rdf="http://www.w3.org/1999/02/22-rdf-syntax-ns#"
   xmlns:cc="http://creativecommons.org/ns#"
   xmlns:dc="http://purl.org/dc/elements/1.1/">
  <metadata
     id="metadata12">
    <rdf:RDF>
      <cc:Work
         rdf:about="">
        <dc:format>image/svg+xml</dc:format>
        <dc:type
           rdf:resource="http://purl.org/dc/dcmitype/StillImage" />
      </cc:Work>
    </rdf:RDF>
  </metadata>
  <defs
     id="defs10" />
  <path
     style="color:#000000;font-style:normal;font-variant:normal;font-weight:normal;font-stretch:normal;font-size:medium;line-height:normal;font-family:sans-serif;font-variant-ligatures:normal;font-variant-position:normal;font-variant-caps:normal;font-variant-numeric:normal;font-variant-alternates:normal;font-variant-east-asian:normal;font-feature-settings:normal;font-variation-settings:normal;text-indent:0;text-align:start;text-decoration:none;text-decoration-line:none;text-decoration-style:solid;text-decoration-color:#000000;letter-spacing:normal;word-spacing:normal;text-transform:none;writing-mode:lr-tb;direction:ltr;text-orientation:mixed;dominant-baseline:auto;baseline-shift:baseline;text-anchor:start;white-space:normal;shape-padding:0;shape-margin:0;inline-size:0;clip-rule:nonzero;display:inline;overflow:visible;visibility:visible;isolation:auto;mix-blend-mode:normal;color-interpolation:sRGB;color-interpolation-filters:linearRGB;solid-color:#000000;solid-opacity:1;vector-effect:none;fill:#918273;fill-opacity:1;fill-rule:nonzero;stroke:#000000;stroke-width:1.6;stroke-linecap:round;stroke-linejoin:round;stroke-miterlimit:4;stroke-dasharray:none;stroke-dashoffset:0;stroke-opacity:1;color-rendering:auto;image-rendering:auto;shape-rendering:auto;text-rendering:auto;enable-background:accumulate;stop-color:#000000"
     d="m 11,3.9999464 -7,3.75 7,3.7499996 V 8.509712 h 3.490234 V 17.49018 H 13 v 1.509766 h 1.761719 C 15.469321,18.999946 16,18.384365 16,17.720649 V 8.2792433 C 16,7.6155271 15.46932,6.9999464 14.761719,6.9999464 H 11 Z"
     id="path880-5" />
  <path
     style="color:#000000;font-style:normal;font-variant:normal;font-weight:normal;font-stretch:normal;font-size:medium;line-height:normal;font-family:sans-serif;font-variant-ligatures:normal;font-variant-position:normal;font-variant-caps:normal;font-variant-numeric:normal;font-variant-alternates:normal;font-variant-east-asian:normal;font-feature-settings:normal;font-variation-settings:normal;text-indent:0;text-align:start;text-decoration:none;text-decoration-line:none;text-decoration-style:solid;text-decoration-color:#000000;letter-spacing:normal;word-spacing:normal;text-transform:none;writing-mode:lr-tb;direction:ltr;text-orientation:mixed;dominant-baseline:auto;baseline-shift:baseline;text-anchor:start;white-space:normal;shape-padding:0;shape-margin:0;inline-size:0;clip-rule:nonzero;display:inline;overflow:visible;visibility:visible;isolation:auto;mix-blend-mode:normal;color-interpolation:sRGB;color-interpolation-filters:linearRGB;solid-color:#000000;solid-opacity:1;vector-effect:none;fill:#d2d2d1;fill-opacity:1;fill-rule:nonzero;stroke:none;stroke-width:1.50997;stroke-linecap:round;stroke-linejoin:round;stroke-miterlimit:4;stroke-dasharray:none;stroke-dashoffset:0;stroke-opacity:1;color-rendering:auto;image-rendering:auto;shape-rendering:auto;text-rendering:auto;enable-background:accumulate;stop-color:#000000"
     d="M 10.433594,6.9999464 V 8.509712 h 4.05664 V 17.49018 H 13 v 1.509766 h 1.761719 C 15.469321,18.999946 16,18.384365 16,17.720649 V 8.2792433 C 16,7.6155271 15.46932,6.9999464 14.761719,6.9999464 Z"
     id="path849" />
  <path
     id="path903"
     d="M 4,7.749946 11,3.9999464 V 11.499946 Z"
     style="fill:#d2d2d1;fill-opacity:1;stroke:none;stroke-width:1px;stroke-linecap:butt;stroke-linejoin:miter;stroke-opacity:1" />
  <path
     id="path8889-9"
     d="m 13.179059,12.768008 c 0,0 0.004,-1.573482 0,-2.045454 -0.004,-0.472173 0.166702,-1.8758036 2.028135,-1.8881056 1.849472,-0.01225 2.054721,1.4159896 2.056058,2.2028026 8.02e-4,0.472036 0,1.730828 0,1.730828"
     fill="none"
     stroke="#ff6600"
     stroke-width="1.09316" />
  <path
     id="rect8885-1"
     d="m 12.12755,12.589203 c -0.309411,0 -0.619297,0.296801 -0.619297,0.593689 v 3.103906 c 0,0.296887 0.309894,0.593689 0.619297,0.593689 h 6.187181 c 0.309411,0 0.619297,-0.296802 0.619297,-0.593689 v -3.103906 c 0,-0.296888 -0.309894,-0.593689 -0.619297,-0.593689 z m 0.865849,1.430437 h 4.455483 c 0.205695,0 0.37129,0.159494 0.37129,0.35761 0,0.198115 -0.165595,0.357609 -0.37129,0.357609 h -4.455483 c -0.205695,0 -0.37129,-0.159494 -0.37129,-0.357609 0,-0.198116 0.165595,-0.35761 0.37129,-0.35761 z m 0,1.430438 h 4.455483 c 0.205695,0 0.37129,0.159494 0.37129,0.357609 0,0.198116 -0.165595,0.35761 -0.37129,0.35761 h -4.455483 c -0.205695,0 -0.37129,-0.159494 -0.37129,-0.35761 0,-0.198115 0.165595,-0.357609 0.37129,-0.357609 z"
     color="#000001"
     fill="#ff6600"
     style="text-indent:0;text-decoration-line:none;text-transform:none;stroke-width:0.728771" />
</svg>
