<svg width="40" height="48" version="1.1" viewBox="0 0 20 24" xmlns="http://www.w3.org/2000/svg">
  <path d="m5.9999949 4.9999261h11.0000091v13.0000879l-1.999997-1e-4 -12.000011 1e-4v-13.0000878l1.9999977 1e-4zm-1.0000012-0.9997768h-3.0000037v14.9997317h5.0000063v1.999954l7.0000087-2.999821 0.999995 9.4e-5 7e-6 0.999773h3.000003v-14.9997317h-5.000006v-1.5001391l-7.000004 2.4999636-1 1e-4z" color="#000001" fill="none" stroke="#000001" stroke-width="1.59998" style="paint-order:fill markers stroke"/>
  <path d="m18 19.000086v-15.0001235h-5v-1.4999625l-7 2.4999738h10.999996v13.0002342l-1.999996-1e-4v0.999978z" color="#000001" fill="#d2d2d1"/>
  <path d="m2 3.9999625v15.0001235h5v2l7-2.999878h-10.999996v-13.0002341l1.999996 1e-4v-1.0001114z" color="#000001" fill="#d2d2d1"/>
  <path d="m7 8h6l0.031 4h1v1h-1v2h-2v-2h-2v-1h2l-0.031-3h-4z" stroke="#000001" stroke-width="1.60000002"/>
  <path d="m7 8h6l0.031 4h1v1h-1v2h-2v-2h-2v-1h2l-0.031-3h-4v-1" fill="#d2d2d1"/>
</svg>
