<svg width="54" height="36" version="1.1" xmlns="http://www.w3.org/2000/svg" viewBox="0 0 27 18">
	<g stroke="#000001" stroke-width="1.6">
		<path d="m1 6v6h2v-3h4v-1h-4v-1h5v-1h-7" fill="none" stroke-linecap="square"/>
		<path d="m16 11.5-2.25-2.25 2.25-2.25v-1h-1.5l-2 2-2-2h-1.5v.5l2.5 2.5-2.5 2.5v.5h2l1.75-1.75 1.75 1.75h1.5z" fill="none" stroke-linecap="square"/>
		<path d="m19 7v3h5v2h2v-6h-2v3h-3v-2z"/>
	</g>
	<g fill="#d2d2d1">
		<path d="m1 6v6h2v-3h4v-1h-4v-1h5v-1h-7"/>
		<path d="m16 11.5-2.25-2.25 2.25-2.25v-1h-1.5l-2 2-2-2h-1.5v.5l2.5 2.5-2.5 2.5v.5h2l1.75-1.75 1.75 1.75h1.5z"/>
		<path d="m19 7v3h5v2h2v-6h-2v3h-3v-2h-2"/>
	</g>
</svg>
