<svg width="32" height="32" version="1.1" xmlns="http://www.w3.org/2000/svg" xmlns:osb="http://www.openswatchbook.org/uri/2009/osb">
  <title>Mixxx 1.12+ iconset</title>
  <g fill="#0f0f0f">
    <g transform="matrix(1.2305 0 0 .70793 2 2)">
      <path d="m-2.0489e-8 2.9864h3.7731v2.1123c1.3499-1.6413 2.9573-2.462 4.822-2.462 0.9906 1.58e-5 1.8501 0.20397 2.5785 0.61185 0.72838 0.40791 1.3257 1.0246 1.7918 1.8501 0.67982-0.8255 1.4131-1.4422 2.1997-1.8501 0.78665-0.40788 1.6267-0.61183 2.5202-0.61185 1.1363 1.58e-5 2.0978 0.2331 2.8844 0.69926 0.78664 0.45647 1.3742 1.1315 1.7627 2.0249 0.28162 0.66042 0.42244 1.7287 0.42247 3.2049v11.869h-4.0936v-10.82c-2.1e-5 -1.5345-0.14084-2.5251-0.42247-2.9718-0.37878-0.5827-0.9615-0.87406-1.7481-0.87407-0.57302 1.26e-5 -1.112 0.17483-1.617 0.52444-0.50504 0.34964-0.86923 0.86437-1.0926 1.5442-0.22339 0.67013-0.33508 1.7336-0.33506 3.1904l-0.02206 9.4072h-4.0715v-10.456c-1.12e-5 -1.5053-0.07285-2.4765-0.21852-2.9136-0.14569-0.43702-0.37392-0.76237-0.68469-0.97605-0.30108-0.21365-0.71383-0.32048-1.2383-0.32049-0.63128 1.26e-5 -1.1994 0.16997-1.7044 0.50988-0.50503 0.33993-0.86922 0.83038-1.0926 1.4714-0.21367 0.641-0.3205 1.7044-0.32049 3.1904v9.4946h-4.0936v-17.449" fill="#0f0f0f" stroke-width="1.0714"/>
    </g>
    <g transform="matrix(1.2305 0 0 -.70793 13.173 2.3429)">
      <path d="m0.15217-39.067h4.1916v9.845c1.3499-1.6413 2.6149-2.462 4.4796-2.462 0.9906 1.5e-5 1.8501 0.20396 2.5785 0.61185 0.72838 0.40792 1.3685 0.70654 1.7918 1.8501s0.48716 3.7491 0.48074 5.9291v0.70581h-4.0936v-1.7547c-1.12e-5 -1.5053-0.072851-2.4765-0.21852-2.9136-0.14569-0.43702-0.37392-0.76237-0.68469-0.97605-0.30108-0.21365-0.71383-0.32048-1.2383-0.32049-0.63128 1.3e-5 -1.1994 0.16997-1.7044 0.50988-0.50503 0.33993-0.86922 0.83038-1.0926 1.4714-0.21367 0.641-0.3205 1.7044-0.32049 3.1904l0.02206 0.79322h-4.1156l-0.076133-16.48" fill="#0f0f0f" stroke-width="1.0714"/>
    </g>
    <path d="m3.8667 18.333h1.8667v7.7778s-0.41481 1.5556-0.93333 1.5556c-0.51852 0-0.93333-1.5556-0.93333-1.5556z" color="#000000" fill-rule="evenodd"/>
  </g>
</svg>
