<svg width="32" height="32" version="1.1" xmlns="http://www.w3.org/2000/svg" xmlns:osb="http://www.openswatchbook.org/uri/2009/osb" xmlns:xlink="http://www.w3.org/1999/xlink">
  <title>Mixxx 1.12+ iconset</title>
  <g fill="#0f0f0f" fill-rule="evenodd" shape-rendering="auto">
    <path d="m21.062 2.6074a1.5 1.5 0 0 0-0.94336 0.32617 1.5 1.5 0 0 0-0.24024 2.1074c3.8917 4.8926 4.7789 9.0451 4.334 12.65-0.44491 3.6053-2.3145 6.7452-4.3301 9.2637a1.5 1.5 0 0 0 0.23242 2.1094 1.5 1.5 0 0 0 2.1094-0.23438c2.2061-2.7566 4.4219-6.3717 4.9648-10.771 0.54295-4.3998-0.68152-9.5023-4.9629-14.885a1.5 1.5 0 0 0-1.1641-0.56641z" color="#000000" color-rendering="auto" dominant-baseline="auto" image-rendering="auto" solid-color="#000000" stop-color="#000000" style="font-feature-settings:normal;font-variant-alternates:normal;font-variant-caps:normal;font-variant-east-asian:normal;font-variant-ligatures:normal;font-variant-numeric:normal;font-variant-position:normal;font-variation-settings:normal;inline-size:0;isolation:auto;mix-blend-mode:normal;shape-margin:0;shape-padding:0;text-decoration-color:#000000;text-decoration-line:none;text-decoration-style:solid;text-indent:0;text-orientation:mixed;text-transform:none;white-space:normal"/>
    <path d="m15.607 5.3652a1.5 1.5 0 0 0-1.0176 0.4043 1.5 1.5 0 0 0-0.072266 2.1191c3.4655 3.7119 4.1811 6.7239 3.8027 9.3359-0.37834 2.612-2.0026 4.9706-3.7988 6.8828a1.5 1.5 0 0 0 0.064454 2.1211 1.5 1.5 0 0 0 2.1211-0.066407c2.0098-2.1396 4.0698-4.9711 4.582-8.5078 0.51227-3.5367-0.67517-7.6321-4.5781-11.813a1.5 1.5 0 0 0-1.1035-0.47656z" color="#000000" color-rendering="auto" dominant-baseline="auto" image-rendering="auto" solid-color="#000000" stop-color="#000000" style="font-feature-settings:normal;font-variant-alternates:normal;font-variant-caps:normal;font-variant-east-asian:normal;font-variant-ligatures:normal;font-variant-numeric:normal;font-variant-position:normal;font-variation-settings:normal;inline-size:0;isolation:auto;mix-blend-mode:normal;shape-margin:0;shape-padding:0;text-decoration-color:#000000;text-decoration-line:none;text-decoration-style:solid;text-indent:0;text-orientation:mixed;text-transform:none;white-space:normal"/>
    <path d="m10.754 8.4727a1.5 1.5 0 0 0-1.0176 0.40234 1.5 1.5 0 0 0-0.078125 2.1191c2.1994 2.3686 2.5892 4.1739 2.3633 5.7422s-1.2191 3.043-2.3613 4.2656a1.5 1.5 0 0 0 0.072266 2.1211 1.5 1.5 0 0 0 2.1211-0.072266c1.3551-1.4505 2.7783-3.3985 3.1367-5.8867 0.35844-2.4882-0.49941-5.3728-3.1348-8.2109a1.5 1.5 0 0 0-1.1016-0.48047z" color="#000000" color-rendering="auto" dominant-baseline="auto" image-rendering="auto" solid-color="#000000" stop-color="#000000" style="font-feature-settings:normal;font-variant-alternates:normal;font-variant-caps:normal;font-variant-east-asian:normal;font-variant-ligatures:normal;font-variant-numeric:normal;font-variant-position:normal;font-variation-settings:normal;inline-size:0;isolation:auto;mix-blend-mode:normal;shape-margin:0;shape-padding:0;text-decoration-color:#000000;text-decoration-line:none;text-decoration-style:solid;text-indent:0;text-orientation:mixed;text-transform:none;white-space:normal"/>
    <path d="m5.8496 11.676a1.5 1.5 0 0 0-1.0078 0.42578 1.5 1.5 0 0 0-0.025391 2.1211c0.96835 0.991 1.0183 1.5295 0.94727 1.998-0.07103 0.46855-0.4368 1.0375-0.94336 1.5527a1.5 1.5 0 0 0 0.017578 2.1211 1.5 1.5 0 0 0 2.1211-0.017578c0.72567-0.73812 1.5542-1.7736 1.7715-3.207 0.21731-1.4335-0.35034-3.0945-1.7676-4.5449a1.5 1.5 0 0 0-1.1133-0.44922z" color="#000000" color-rendering="auto" dominant-baseline="auto" image-rendering="auto" solid-color="#000000" stop-color="#000000" style="font-feature-settings:normal;font-variant-alternates:normal;font-variant-caps:normal;font-variant-east-asian:normal;font-variant-ligatures:normal;font-variant-numeric:normal;font-variant-position:normal;font-variation-settings:normal;inline-size:0;isolation:auto;mix-blend-mode:normal;shape-margin:0;shape-padding:0;text-decoration-color:#000000;text-decoration-line:none;text-decoration-style:solid;text-indent:0;text-orientation:mixed;text-transform:none;white-space:normal"/>
  </g>
</svg>
