<svg xmlns="http://www.w3.org/2000/svg" width="64" height="64" enable-background="new 0 0 64 64" viewBox="0 0 64 64"><path d="M53.357,23.453c-0.979-0.925-1.93-1.823-2.908-2.748c-0.938-0.886-2.311,0.568-1.373,1.454l0.706,0.667L29.63,42.979
		c-1.862,0-3.724,0-5.586,0c-1.29,0-1.29-2,0-2h5.183c0.326-0.923,1.145-1.569,1.817-2.242v-3.758h-1c-1.29,0-1.29-2,0-2h1v-4h-1
		c-1.29,0-1.29-2,0-2h1v-4h-1c-1.29,0-1.29-2,0-2h1v-4h-1c-1.29,0-1.29-2,0-2h1v-3c0-1.29,2-1.29,2,0v3h1c1.29,0,1.29,2,0,2h-1v4h1
		c1.29,0,1.29,2,0,2h-1v4h1c1.29,0,1.29,2,0,2h-1v4h1c1.29,0,1.29,2,0,2h-1v1.758l7.785-7.786l-4.785-22.93
		c-2.777,0-5.556,0-8.333,0l-9.667,47.916h2.466l1.534,4.042h2l1.534-4.042H38.51l1.534,4.042h2l1.534-4.042h2.466l-3.749-17.966
		l-5.009,5.008h2.758c1.29,0,1.29,2,0,2c-2.528,0-5.058,0-7.586,0l18.778-18.778c0.335,0.316,0.724,0.832,1.189,0.949
		C53.401,25.395,54.088,24.144,53.357,23.453z"/></svg>
