<svg width="32" height="32" version="1.1" xmlns="http://www.w3.org/2000/svg" xmlns:osb="http://www.openswatchbook.org/uri/2009/osb" xmlns:xlink="http://www.w3.org/1999/xlink">
  <title>Mixxx 1.12+ iconset</title>
  <path id="a" d="m3 2c-0.554 0-1 0.46588-1 1.0625v25.875c0 0.59662 0.446 1.0625 1 1.0625h26c0.554 0 1-0.46588 1-1.0625v-25.875c0-0.59662-0.446-1.0625-1-1.0625zm7.5 2h17c0.277 0 0.5 0.223 0.5 0.5v3c0 0.277-0.223 0.5-0.5 0.5h-17c-0.277 0-0.5-0.223-0.5-0.5v-3c0-0.277 0.223-0.5 0.5-0.5zm-7 2h4c0.277 0 0.5 0.223 0.5 0.5v1c0 0.277-0.223 0.5-0.5 0.5h-4c-0.277 0-0.5-0.223-0.5-0.5v-1c0-0.277 0.223-0.5 0.5-0.5zm-0.5 6h2v2h-2zm3.5 0h3c0.277 0 0.5 0.223 0.5 0.5v3c0 0.277-0.223 0.5-0.5 0.5h-3c-0.277 0-0.5-0.223-0.5-0.5v-3c0-0.277 0.223-0.5 0.5-0.5zm6 0h3c0.277 0 0.5 0.223 0.5 0.5v3c0 0.277-0.223 0.5-0.5 0.5h-3c-0.277 0-0.5-0.223-0.5-0.5v-3c0-0.277 0.223-0.5 0.5-0.5zm6 0h3c0.277 0 0.5 0.223 0.5 0.5v3c0 0.277-0.223 0.5-0.5 0.5h-3c-0.277 0-0.5-0.223-0.5-0.5v-3c0-0.277 0.223-0.5 0.5-0.5zm6 0h3c0.277 0 0.5 0.223 0.5 0.5v3c0 0.277-0.223 0.5-0.5 0.5h-3c-0.277 0-0.5-0.223-0.5-0.5v-3c0-0.277 0.223-0.5 0.5-0.5zm-21.5 6h2v2h-2zm3.5 0h3c0.277 0 0.5 0.223 0.5 0.5v3c0 0.277-0.223 0.5-0.5 0.5h-3c-0.277 0-0.5-0.223-0.5-0.5v-3c0-0.277 0.223-0.5 0.5-0.5zm6 0h3c0.277 0 0.5 0.223 0.5 0.5v3c0 0.277-0.223 0.5-0.5 0.5h-3c-0.277 0-0.5-0.223-0.5-0.5v-3c0-0.277 0.223-0.5 0.5-0.5zm6 0h3c0.277 0 0.5 0.223 0.5 0.5v3c0 0.277-0.223 0.5-0.5 0.5h-3c-0.277 0-0.5-0.223-0.5-0.5v-3c0-0.277 0.223-0.5 0.5-0.5zm6 0h3c0.277 0 0.5 0.223 0.5 0.5v3c0 0.277-0.223 0.5-0.5 0.5h-3c-0.277 0-0.5-0.223-0.5-0.5v-3c0-0.277 0.223-0.5 0.5-0.5zm-21.5 6h2v2h-2zm3.5 0h3c0.277 0 0.5 0.223 0.5 0.5v3c0 0.277-0.223 0.5-0.5 0.5h-3c-0.277 0-0.5-0.223-0.5-0.5v-3c0-0.277 0.223-0.5 0.5-0.5zm6 0h3c0.277 0 0.5 0.223 0.5 0.5v3c0 0.277-0.223 0.5-0.5 0.5h-3c-0.277 0-0.5-0.223-0.5-0.5v-3c0-0.277 0.223-0.5 0.5-0.5zm6 0h3c0.277 0 0.5 0.223 0.5 0.5v3c0 0.277-0.223 0.5-0.5 0.5h-3c-0.277 0-0.5-0.223-0.5-0.5v-3c0-0.277 0.223-0.5 0.5-0.5zm6 0h3c0.277 0 0.5 0.223 0.5 0.5v3c0 0.277-0.223 0.5-0.5 0.5h-3c-0.277 0-0.5-0.223-0.5-0.5v-3c0-0.277 0.223-0.5 0.5-0.5z" color="#000000" fill="#0f0f0f"/>
</svg>
