<svg version="1.1" viewBox="0 0 32 32" xmlns="http://www.w3.org/2000/svg">
  <title>Mixxx 1.12+ iconset</title>
  <path d="m15.471905 3.9464785c-2.621121.1296765-5.116262 1.1291247-7.0878465 2.7332608-3.9431692 3.2082722-5.9521645 8.9608877-3.2803094 14.5641777 2.671855 5.603289 8.4058389 7.664343 13.3808869 6.62008 4.975049-1.044263 9.394863-5.235937 9.585243-11.444414l-3.187152-.09911c-.146635 4.781907-3.3271 7.641867-7.05217 8.423759-3.725071.781895-7.791587-.55749-9.8488567-4.871901-2.0572705-4.314411-.5383013-8.316785 2.4141487-10.7189807 2.952451-2.4021958 7.176714-3.0746389 10.984577-.1783854l1.930527-2.537037c-2.471927-1.8801426-5.217926-2.621126-7.839048-2.4914494z" stop-color="#000000"/>
  <path d="m18.729834 11.51096 10.571132.01685-5.271019-9.1756833z" color="#000000" style="text-indent:0;text-transform:none"/>
</svg>
