<svg width="32" height="32" version="1.1" xmlns="http://www.w3.org/2000/svg" xmlns:osb="http://www.openswatchbook.org/uri/2009/osb" xmlns:xlink="http://www.w3.org/1999/xlink">
  <title>Mixxx 1.12+ iconset</title>
  <g id="a" transform="translate(.99973 16)" fill="#0f0f0f" shape-rendering="auto">
    <g>
      <path d="m2.5003-5.5h6c0.554 0 1 0.40883 1 0.91667v9.1667c0 0.50783-0.446 0.91667-1 0.91667h-6c-0.554 0-1-0.40883-1-0.91667v-9.1667c0-0.50783 0.446-0.91667 1-0.91667z" color="#000000" color-rendering="auto" dominant-baseline="auto" image-rendering="auto" solid-color="#000000" stop-color="#000000" style="font-feature-settings:normal;font-variant-alternates:normal;font-variant-caps:normal;font-variant-east-asian:normal;font-variant-ligatures:normal;font-variant-numeric:normal;font-variant-position:normal;font-variation-settings:normal;inline-size:0;isolation:auto;mix-blend-mode:normal;shape-margin:0;shape-padding:0;text-decoration-color:#000000;text-decoration-line:none;text-decoration-style:solid;text-indent:0;text-orientation:mixed;text-transform:none;white-space:normal"/>
      <path d="m2.5-6c-0.79999 0-1.5 0.61544-1.5 1.416v9.168c0 0.80058 0.70001 1.416 1.5 1.416h6c0.79999 0 1.5-0.61544 1.5-1.416v-9.168c0-0.80058-0.70001-1.416-1.5-1.416h-6zm0 1h6c0.30801 0 0.5 0.20093 0.5 0.41602v9.168c0 0.21509-0.19199 0.41602-0.5 0.41602h-6c-0.30801 0-0.5-0.20093-0.5-0.41602v-9.168c0-0.21509 0.19199-0.41602 0.5-0.41602z" color="#000000" color-rendering="auto" dominant-baseline="auto" image-rendering="auto" solid-color="#000000" stop-color="#000000" style="font-feature-settings:normal;font-variant-alternates:normal;font-variant-caps:normal;font-variant-east-asian:normal;font-variant-ligatures:normal;font-variant-numeric:normal;font-variant-position:normal;font-variation-settings:normal;inline-size:0;isolation:auto;mix-blend-mode:normal;shape-margin:0;shape-padding:0;text-decoration-color:#000000;text-decoration-line:none;text-decoration-style:solid;text-indent:0;text-orientation:mixed;text-transform:none;white-space:normal"/>
      <path d="m2-2 13.3-11.3v26.599l-13.3-11.3z" color="#000000" color-rendering="auto" dominant-baseline="auto" image-rendering="auto" solid-color="#000000" stop-color="#000000" style="font-feature-settings:normal;font-variant-alternates:normal;font-variant-caps:normal;font-variant-east-asian:normal;font-variant-ligatures:normal;font-variant-numeric:normal;font-variant-position:normal;font-variation-settings:normal;inline-size:0;isolation:auto;mix-blend-mode:normal;shape-margin:0;shape-padding:0;text-decoration-color:#000000;text-decoration-line:none;text-decoration-style:solid;text-indent:0;text-orientation:mixed;text-transform:none;white-space:normal"/>
      <path d="m15.273-14a0.70049 0.70049 0 0 0-0.42774 0.16602l-13.299 11.301a0.70049 0.70049 0 0 0-0.24805 0.5332v4a0.70049 0.70049 0 0 0 0.24805 0.5332l13.299 11.301a0.70049 0.70049 0 0 0 1.1543-0.53516v-26.598a0.70049 0.70049 0 0 0-0.72656-0.70117zm-0.67383 2.2148v23.57l-11.898-10.109v-3.3535l11.898-10.107z" color="#000000" color-rendering="auto" dominant-baseline="auto" image-rendering="auto" solid-color="#000000" stop-color="#000000" style="font-feature-settings:normal;font-variant-alternates:normal;font-variant-caps:normal;font-variant-east-asian:normal;font-variant-ligatures:normal;font-variant-numeric:normal;font-variant-position:normal;font-variation-settings:normal;inline-size:0;isolation:auto;mix-blend-mode:normal;shape-margin:0;shape-padding:0;text-decoration-color:#000000;text-decoration-line:none;text-decoration-style:solid;text-indent:0;text-orientation:mixed;text-transform:none;white-space:normal"/>
    </g>
    <path d="m23.24-12.143a1.25 1.25 0 0 0-0.91016 0.4043 1.25 1.25 0 0 0 0.074219 1.7656s2.7064 2.5113 4.0605 6.5039c1.3541 3.9926 1.4676 9.311-4.1426 15.523a1.25 1.25 0 0 0 0.089843 1.7656 1.25 1.25 0 0 0 1.7656-0.089843c6.1189-6.7758 6.2324-13.349 4.6543-18.002-1.5781-4.653-4.7363-7.541-4.7363-7.541a1.25 1.25 0 0 0-0.85547-0.33008z" color="#000000" color-rendering="auto" dominant-baseline="auto" image-rendering="auto" solid-color="#000000" stop-color="#000000" style="font-feature-settings:normal;font-variant-alternates:normal;font-variant-caps:normal;font-variant-east-asian:normal;font-variant-ligatures:normal;font-variant-numeric:normal;font-variant-position:normal;font-variation-settings:normal;inline-size:0;isolation:auto;mix-blend-mode:normal;shape-margin:0;shape-padding:0;text-decoration-color:#000000;text-decoration-line:none;text-decoration-style:solid;text-indent:0;text-orientation:mixed;text-transform:none;white-space:normal"/>
    <path d="m19.439-6.1953a1.25 1.25 0 0 0-0.9082 0.40234 1.25 1.25 0 0 0 0.072266 1.7656s1.2403 1.1629 1.8613 2.9941c0.62107 1.8312 0.73453 4.1772-1.9434 7.1426a1.25 1.25 0 0 0 0.089844 1.7656 1.25 1.25 0 0 0 1.7656-0.091797c3.1866-3.5287 3.3001-7.1275 2.4551-9.6191-0.84506-2.4916-2.5352-4.0293-2.5352-4.0293a1.25 1.25 0 0 0-0.85742-0.33008z" color="#000000" color-rendering="auto" dominant-baseline="auto" image-rendering="auto" solid-color="#000000" stop-color="#000000" style="font-feature-settings:normal;font-variant-alternates:normal;font-variant-caps:normal;font-variant-east-asian:normal;font-variant-ligatures:normal;font-variant-numeric:normal;font-variant-position:normal;font-variation-settings:normal;inline-size:0;isolation:auto;mix-blend-mode:normal;shape-margin:0;shape-padding:0;text-decoration-color:#000000;text-decoration-line:none;text-decoration-style:solid;text-indent:0;text-orientation:mixed;text-transform:none;white-space:normal"/>
  </g>
</svg>
