<svg width="40" height="34" version="1.1" xmlns="http://www.w3.org/2000/svg" xmlns:xlink="http://www.w3.org/1999/xlink">
	<defs>
		<linearGradient id="c" x1="256.73999" x2="446.62161" y1="472.03" y2="483.05225" gradientTransform="matrix(-.0309358 -.09353841 .09280739 -.03117947 -12.260041 64.912913)" gradientUnits="userSpaceOnUse">
			<stop stop-color="#1e1e1e" offset="0"/>
			<stop stop-color="#3d3d3d" offset="1"/>
		</linearGradient>
		<linearGradient id="b" x1="8.000597" x2="31.999203" y1="18.998119" y2="18.998119" gradientTransform="rotate(254.03464 19.999759 18.998456)" gradientUnits="userSpaceOnUse">
			<stop stop-color="#0e0e0e" offset="0"/>
			<stop stop-color="#5d5d5d" offset="1"/>
		</linearGradient>
	</defs>
	<path d="m21.025349 6.0407012c-1.675832-.1179207-3.40142.097458-5.088647.6870836-6.8053152 2.1970543-10.5223103 9.5833922-8.2640303 16.4117842 2.2584231 6.828825 9.6360493 10.489317 16.3885293 8.130842 6.805314-2.197054 10.524423-9.581278 8.266143-16.409671-1.694336-5.1231855-6.2704-8.4659885-11.301995-8.8200388z" color="#000000" color-rendering="auto" dominant-baseline="auto" fill="#080808" image-rendering="auto" shape-rendering="auto" solid-color="#000000" stroke-width=".99999994" style="font-feature-settings:normal;font-variant-alternates:normal;font-variant-caps:normal;font-variant-ligatures:normal;font-variant-numeric:normal;font-variant-position:normal;isolation:auto;mix-blend-mode:normal;shape-padding:0;text-decoration-color:#000000;text-decoration-line:none;text-decoration-style:solid;text-indent:0;text-orientation:mixed;text-transform:none;white-space:normal"/>
	<path d="m31.5 28v4h6v-4z" color="#000000" style="text-indent:0;text-transform:none"/>
	<path d="m1.5 28v4h6v-4zm1 1h4v2h-4z" color="#000000" style="text-indent:0;text-transform:none"/>
	<path d="m2 29v4h6v-4zm1 1h4v2h-4z" color="#000000" color-rendering="auto" dominant-baseline="auto" fill="#4d4d4d" image-rendering="auto" shape-rendering="auto" solid-color="#000000" style="font-feature-settings:normal;font-variant-alternates:normal;font-variant-caps:normal;font-variant-ligatures:normal;font-variant-numeric:normal;font-variant-position:normal;isolation:auto;mix-blend-mode:normal;shape-padding:0;text-decoration-color:#000000;text-decoration-line:none;text-decoration-style:solid;text-indent:0;text-orientation:mixed;text-transform:none;white-space:normal"/>
	<path d="m32 29v4h6v-4z" color="#000000" color-rendering="auto" dominant-baseline="auto" fill="#4d4d4d" image-rendering="auto" shape-rendering="auto" solid-color="#000000" style="font-feature-settings:normal;font-variant-alternates:normal;font-variant-caps:normal;font-variant-ligatures:normal;font-variant-numeric:normal;font-variant-position:normal;isolation:auto;mix-blend-mode:normal;shape-padding:0;text-decoration-color:#000000;text-decoration-line:none;text-decoration-style:solid;text-indent:0;text-orientation:mixed;text-transform:none;white-space:normal"/>
	<g transform="rotate(15.625951,20.010363,19.03425)">
		<g transform="matrix(.10676 0 0 .10676 -19.071124 -31.786292)" opacity=".49300005">
			<path d="m270.69379 536.40673c20.01433 60.04489 85.31772 92.31846 145.17067 71.75942 60.21816-19.46338 93.09981-84.46428 73.08548-144.50917-78.29686-151.10046-253.52045-44.94758-218.25615 72.74975z" color="#000000" color-rendering="auto" dominant-baseline="auto" image-rendering="auto" opacity="1" shape-rendering="auto" solid-color="#000000" style="font-feature-settings:normal;font-variant-alternates:normal;font-variant-caps:normal;font-variant-ligatures:normal;font-variant-numeric:normal;font-variant-position:normal;isolation:auto;mix-blend-mode:normal;shape-padding:0;text-decoration-color:#000000;text-decoration-line:none;text-decoration-style:solid;text-indent:0;text-orientation:mixed;text-transform:none;white-space:normal"/>
		</g>
		<g transform="matrix(.10746967 0 0 .10746967 -20.137858 -33.659792)" fill="#050505" opacity=".93999999">
			<path d="m270.69379 536.40673c20.01433 60.04489 85.31772 92.31846 145.17067 71.75942 60.21816-19.46338 93.09981-84.46428 73.08548-144.50917-20.01433-60.04488-85.31957-92.31785-145.17252-71.7588-60.21816 19.46339-93.09796 84.46366-73.08363 144.50855z" color="#000000" color-rendering="auto" dominant-baseline="auto" fill="#050505" image-rendering="auto" opacity="1" shape-rendering="auto" solid-color="#000000" style="font-feature-settings:normal;font-variant-alternates:normal;font-variant-caps:normal;font-variant-ligatures:normal;font-variant-numeric:normal;font-variant-position:normal;isolation:auto;mix-blend-mode:normal;shape-padding:0;text-decoration-color:#000000;text-decoration-line:none;text-decoration-style:solid;text-indent:0;text-orientation:mixed;text-transform:none;white-space:normal"/>
		</g>
	</g>
	<path d="m8.2297758 21.380224c.3211083 1.518471.9509058 2.996445 1.9033672 4.345243 3.68078 5.486321 11.186006 6.910874 16.677268 3.169848 5.491609-3.741264 6.868188-11.224395 3.057458-16.622767-3.680781-5.486321-11.184667-6.9132893-16.675928-3.1722633-4.1199672 2.8068063-5.9262795 7.7208053-4.9621652 12.2799393z" color="#000000" color-rendering="auto" dominant-baseline="auto" fill="url(#b)" image-rendering="auto" shape-rendering="auto" solid-color="#000000" style="font-feature-settings:normal;font-variant-alternates:normal;font-variant-caps:normal;font-variant-ligatures:normal;font-variant-numeric:normal;font-variant-position:normal;isolation:auto;mix-blend-mode:normal;shape-padding:0;text-decoration-color:#000000;text-decoration-line:none;text-decoration-style:solid;text-indent:0;text-orientation:mixed;text-transform:none;white-space:normal"/>
	<path d="m18.098392 8.5205096a10.574617 10.657914 8.0144789 1 1 3.802779 20.9553524 10.574617 10.657914 8.0144789 1 1-3.802779-20.9553524z" fill="url(#c)"/>
	<path d="m4.2885454 24.518558a16.746911 16.754821 0 0 1 5.7363876-19.1699185 16.746911 16.754821 0 0 1 20.001123 0 16.746911 16.754821 0 0 1 5.736387 19.1699185" fill="none" stroke="#0b0b0b" stroke-linecap="round" stroke-linejoin="round" stroke-width="1.10000002" style="paint-order:fill markers stroke"/>
	<path d="m4.2040566 25.536932a16.836822 16.84602 0 0 1 5.7671838-19.2742619 16.836822 16.84602 0 0 1 20.1085056 0 16.836822 16.84602 0 0 1 5.767184 19.2742619" fill="none" stroke="#555" stroke-linecap="round" stroke-linejoin="round" stroke-width="1.10000002" style="paint-order:fill markers stroke"/>
</svg>
