<svg width="35" height="30" version="1.1" xmlns="http://www.w3.org/2000/svg" xmlns:xlink="http://www.w3.org/1999/xlink">
	<defs>
		<linearGradient id="b" x1="256.73999" x2="446.62161" y1="472.03" y2="483.05225" gradientTransform="matrix(-.0309358 -.09353841 .09280739 -.03117947 -12.497094 64.492233)" gradientUnits="userSpaceOnUse">
			<stop stop-color="#1e1e1e" offset="0"/>
			<stop stop-color="#3d3d3d" offset="1"/>
		</linearGradient>
		<linearGradient id="a" x1="8.000597" x2="31.999203" y1="18.998119" y2="18.998119" gradientTransform="rotate(254.03464 19.72263 18.877489)" gradientUnits="userSpaceOnUse">
			<stop stop-color="#0e0e0e" offset="0"/>
			<stop stop-color="#5d5d5d" offset="1"/>
		</linearGradient>
	</defs>
	<path d="m3.7540617 20.98629a14.651862 14.660449 0 0 1 5.0187614-16.7736522 14.651862 14.660449 0 0 1 17.4989699 0 14.651862 14.660449 0 0 1 5.01876 16.7736522" fill="none" stroke="#0b0b0b" stroke-linecap="round" stroke-linejoin="round" stroke-width="1.10000002" style="paint-order:fill markers stroke"/>
	<g shape-rendering="auto">
		<path d="m.5 25v4h5v-4zm1 1h3v2h-3z" color="#000000" color-rendering="auto" dominant-baseline="auto" image-rendering="auto" solid-color="#000000" stroke-width=".99999994" style="font-feature-settings:normal;font-variant-alternates:normal;font-variant-caps:normal;font-variant-ligatures:normal;font-variant-numeric:normal;font-variant-position:normal;isolation:auto;mix-blend-mode:normal;shape-padding:0;text-decoration-color:#000000;text-decoration-line:none;text-decoration-style:solid;text-indent:0;text-orientation:mixed;text-transform:none;white-space:normal"/>
		<path d="m28.50007 25v4h5v-4z" color="#000000" color-rendering="auto" dominant-baseline="auto" image-rendering="auto" solid-color="#000000" style="font-feature-settings:normal;font-variant-alternates:normal;font-variant-caps:normal;font-variant-ligatures:normal;font-variant-numeric:normal;font-variant-position:normal;isolation:auto;mix-blend-mode:normal;shape-padding:0;text-decoration-color:#000000;text-decoration-line:none;text-decoration-style:solid;text-indent:0;text-orientation:mixed;text-transform:none;white-space:normal"/>
		<path d="m18.408635 5.2238562c-1.485074-.1044979-3.014241.0863644-4.50941.6088736-6.0306758 1.9469661-9.3245696 8.4925262-7.3233471 14.5436492 2.0013494 6.051508 8.5391891 9.29533 14.5230421 7.205318 6.030672-1.946967 9.32644-8.490653 7.325217-14.541777-1.50147-4.5400191-5.556648-7.5023146-10.015502-7.8160638z" color="#000000" color-rendering="auto" dominant-baseline="auto" fill="#080808" image-rendering="auto" solid-color="#000000" stroke-width=".95833886" style="font-feature-settings:normal;font-variant-alternates:normal;font-variant-caps:normal;font-variant-ligatures:normal;font-variant-numeric:normal;font-variant-position:normal;isolation:auto;mix-blend-mode:normal;shape-padding:0;text-decoration-color:#000000;text-decoration-line:none;text-decoration-style:solid;text-indent:0;text-orientation:mixed;text-transform:none;white-space:normal"/>
		<path d="m1 26v4h5v-4zm1 1h3v2h-3z" color="#000000" color-rendering="auto" dominant-baseline="auto" fill="#4d4d4d" image-rendering="auto" solid-color="#000000" style="font-feature-settings:normal;font-variant-alternates:normal;font-variant-caps:normal;font-variant-ligatures:normal;font-variant-numeric:normal;font-variant-position:normal;isolation:auto;mix-blend-mode:normal;shape-padding:0;text-decoration-color:#000000;text-decoration-line:none;text-decoration-style:solid;text-indent:0;text-orientation:mixed;text-transform:none;white-space:normal"/>
		<path d="m29 26.000001v4h5v-4z" color="#000000" color-rendering="auto" dominant-baseline="auto" fill="#4d4d4d" image-rendering="auto" solid-color="#000000" stroke-width=".95833892" style="font-feature-settings:normal;font-variant-alternates:normal;font-variant-caps:normal;font-variant-ligatures:normal;font-variant-numeric:normal;font-variant-position:normal;isolation:auto;mix-blend-mode:normal;shape-padding:0;text-decoration-color:#000000;text-decoration-line:none;text-decoration-style:solid;text-indent:0;text-orientation:mixed;text-transform:none;white-space:normal"/>
	</g>
	<g transform="matrix(.79968255 .35515184 -.35515184 .79968255 8.2569669 -5.5571877)" stroke-width="1.14285719">
		<g transform="matrix(.10676 0 0 .10676 -19.071124 -31.786292)" opacity=".49300005">
			<path d="m270.69379 536.40673c20.01433 60.04489 85.31772 92.31846 145.17067 71.75942 60.21816-19.46338 93.09981-84.46428 73.08548-144.50917-78.29686-151.10046-253.52045-44.94758-218.25615 72.74975z" color="#000000" color-rendering="auto" dominant-baseline="auto" image-rendering="auto" opacity="1" shape-rendering="auto" solid-color="#000000" stroke-width="1.14285719" style="font-feature-settings:normal;font-variant-alternates:normal;font-variant-caps:normal;font-variant-ligatures:normal;font-variant-numeric:normal;font-variant-position:normal;isolation:auto;mix-blend-mode:normal;shape-padding:0;text-decoration-color:#000000;text-decoration-line:none;text-decoration-style:solid;text-indent:0;text-orientation:mixed;text-transform:none;white-space:normal"/>
		</g>
		<g transform="matrix(.10746967 0 0 .10746967 -20.137858 -33.659792)" fill="#050505" opacity=".93999999">
			<path d="m270.69379 536.40673c20.01433 60.04489 85.31772 92.31846 145.17067 71.75942 60.21816-19.46338 93.09981-84.46428 73.08548-144.50917-20.01433-60.04488-85.31957-92.31785-145.17252-71.7588-60.21816 19.46339-93.09796 84.46366-73.08363 144.50855z" color="#000000" color-rendering="auto" dominant-baseline="auto" fill="#050505" image-rendering="auto" opacity="1" shape-rendering="auto" solid-color="#000000" stroke-width="1.14285719" style="font-feature-settings:normal;font-variant-alternates:normal;font-variant-caps:normal;font-variant-ligatures:normal;font-variant-numeric:normal;font-variant-position:normal;isolation:auto;mix-blend-mode:normal;shape-padding:0;text-decoration-color:#000000;text-decoration-line:none;text-decoration-style:solid;text-indent:0;text-orientation:mixed;text-transform:none;white-space:normal"/>
		</g>
	</g>
	<path d="m3.7068307 21.675642a14.702124 14.711531 0 0 1 5.0359772-16.8320996 14.702124 14.711531 0 0 1 17.5589991 0 14.702124 14.711531 0 0 1 5.035977 16.8320996" fill="none" stroke="#555" stroke-linecap="round" stroke-linejoin="round" stroke-width="1.10000014" style="paint-order:fill markers stroke"/>
	<g transform="matrix(.87319548 0 0 .87606868 .24318816 .46110601)" stroke-width="1.1433394">
		<path d="m7.9927222 20.959544c.321108 1.518471.950906 2.996445 1.903367 4.345243 3.6807798 5.486321 11.1860058 6.910874 16.6772678 3.169848 5.491609-3.741264 6.868188-11.224395 3.057458-16.622767-3.680781-5.4863209-11.184667-6.9132889-16.675928-3.1722629-4.1199668 2.8068059-5.9262785 7.7208049-4.9621648 12.2799389z" color="#000000" color-rendering="auto" dominant-baseline="auto" fill="url(#a)" image-rendering="auto" shape-rendering="auto" solid-color="#000000" style="font-feature-settings:normal;font-variant-alternates:normal;font-variant-caps:normal;font-variant-ligatures:normal;font-variant-numeric:normal;font-variant-position:normal;isolation:auto;mix-blend-mode:normal;shape-padding:0;text-decoration-color:#000000;text-decoration-line:none;text-decoration-style:solid;text-indent:0;text-orientation:mixed;text-transform:none;white-space:normal"/>
		<path d="m17.861338 8.0998291a10.574617 10.657914 8.0144789 1 1 3.802779 20.9553529 10.574617 10.657914 8.0144789 1 1-3.802779-20.9553529z" fill="url(#b)"/>
	</g>
</svg>
