<?xml version="1.0" encoding="UTF-8" standalone="no"?>
<!-- Created with Inkscape (http://www.inkscape.org/) -->

<svg
   xmlns:dc="http://purl.org/dc/elements/1.1/"
   xmlns:cc="http://creativecommons.org/ns#"
   xmlns:rdf="http://www.w3.org/1999/02/22-rdf-syntax-ns#"
   xmlns:svg="http://www.w3.org/2000/svg"
   xmlns="http://www.w3.org/2000/svg"
   xmlns:sodipodi="http://sodipodi.sourceforge.net/DTD/sodipodi-0.dtd"
   xmlns:inkscape="http://www.inkscape.org/namespaces/inkscape"
   width="105"
   height="70"
   viewBox="0 0 105 70"
   id="svg2"
   version="1.1"
   inkscape:version="0.92.1 r15371"
   sodipodi:docname="background_deck_infos1.svg">
  <defs
     id="defs4">
    <pattern
       y="0"
       x="0"
       height="6"
       width="6"
       patternUnits="userSpaceOnUse"
       id="EMFhbasepattern" />
  </defs>
  <sodipodi:namedview
     id="base"
     pagecolor="#ffffff"
     bordercolor="#666666"
     borderopacity="1.0"
     inkscape:pageopacity="0.0"
     inkscape:pageshadow="2"
     inkscape:zoom="4.4276025"
     inkscape:cx="-15.076276"
     inkscape:cy="-11.416575"
     inkscape:document-units="px"
     inkscape:current-layer="text4162"
     showgrid="false"
     units="px"
     inkscape:window-width="1920"
     inkscape:window-height="1028"
     inkscape:window-x="-8"
     inkscape:window-y="-8"
     inkscape:window-maximized="1"
     objecttolerance="10"
     guidetolerance="9"
     showguides="true"
     inkscape:guide-bbox="true" />
  <metadata
     id="metadata7">
    <rdf:RDF>
      <cc:Work
         rdf:about="">
        <dc:format>image/svg+xml</dc:format>
        <dc:type
           rdf:resource="http://purl.org/dc/dcmitype/StillImage" />
        <dc:title />
        <dc:creator>
          <cc:Agent>
            <dc:title>Jorge Rosa</dc:title>
          </cc:Agent>
        </dc:creator>
        <dc:description>Email: jorge.bigarte@gmail.com
Site:https://sites.google.com/site/jorgerosaportfolio</dc:description>
      </cc:Work>
    </rdf:RDF>
  </metadata>
  <g
     inkscape:label="Layer 1"
     inkscape:groupmode="layer"
     id="layer1"
     transform="translate(0,-982.3622)">
    <g
       style="font-style:normal;font-variant:normal;font-weight:normal;font-stretch:normal;font-size:13.65747356px;line-height:100%;font-family:'Estrangelo Edessa';-inkscape-font-specification:'Estrangelo Edessa, Normal';text-align:start;letter-spacing:0px;word-spacing:0px;writing-mode:lr-tb;text-anchor:start;fill:#1e1e1e;fill-opacity:1;stroke:none;stroke-width:1px;stroke-linecap:butt;stroke-linejoin:miter;stroke-opacity:1"
       id="text4162">
      <path
         inkscape:connector-curvature="0"
         id="rect822"
         d="m 11.626008,1041.4623 v 7.932 h 26.157984 v -0.5 H 12.126008 v -7.432 z m 79.447992,0 v 7.432 H 65.416016 v 0.5 H 91.574 v -7.932 z"
         style="color:#000000;font-style:normal;font-variant:normal;font-weight:normal;font-stretch:normal;font-size:medium;line-height:100%;font-family:'Estrangelo Edessa';-inkscape-font-specification:'Estrangelo Edessa, Normal';font-variant-ligatures:normal;font-variant-position:normal;font-variant-caps:normal;font-variant-numeric:normal;font-variant-alternates:normal;font-feature-settings:normal;text-indent:0;text-align:start;text-decoration:none;text-decoration-line:none;text-decoration-style:solid;text-decoration-color:#000000;letter-spacing:0px;word-spacing:0px;text-transform:none;writing-mode:lr-tb;direction:ltr;text-orientation:mixed;dominant-baseline:auto;baseline-shift:baseline;text-anchor:start;white-space:normal;shape-padding:0;clip-rule:nonzero;display:inline;overflow:visible;visibility:visible;opacity:1;isolation:auto;mix-blend-mode:normal;color-interpolation:sRGB;color-interpolation-filters:linearRGB;solid-color:#000000;solid-opacity:1;vector-effect:none;fill:#5a5a5a;fill-opacity:1;fill-rule:nonzero;stroke:none;stroke-width:0.5;stroke-linecap:butt;stroke-linejoin:miter;stroke-miterlimit:4;stroke-dasharray:none;stroke-dashoffset:0;stroke-opacity:1;color-rendering:auto;image-rendering:auto;shape-rendering:auto;text-rendering:auto;enable-background:accumulate"
         sodipodi:nodetypes="cccccccccccccc" />
      <g
         aria-label="CUES"
         style="font-style:normal;font-weight:normal;font-size:8.36870861px;line-height:1.25;font-family:sans-serif;letter-spacing:0px;word-spacing:0px;fill:#5a5a5a;fill-opacity:1;stroke:none;stroke-width:0.20921767px"
         id="text840"
         transform="translate(-0.999506)">
        <path
           d="m 44.454108,1049.1816 q 0,0.4454 0.126675,0.8131 0.130761,0.3637 0.363679,0.6252 0.237005,0.2616 0.563907,0.4046 0.330989,0.143 0.731445,0.143 0.371852,0 0.735531,-0.098 0.367766,-0.098 0.702841,-0.2819 v 0.7233 q -0.306471,0.1634 -0.686496,0.2492 -0.380024,0.082 -0.829515,0.082 -0.559821,0 -1.029744,-0.1961 -0.465836,-0.1961 -0.804998,-0.5476 -0.335075,-0.3514 -0.523044,-0.8377 -0.183883,-0.4903 -0.183883,-1.0787 0,-0.6048 0.200228,-1.1115 0.200228,-0.5108 0.551648,-0.8785 0.355507,-0.3678 0.837689,-0.5721 0.486267,-0.2084 1.054261,-0.2084 0.192055,0 0.388197,0.024 0.196141,0.02 0.38411,0.061 0.187969,0.037 0.355507,0.09 0.171624,0.049 0.310558,0.1103 v 0.7192 q -0.14302,-0.061 -0.318731,-0.1226 -0.17571,-0.061 -0.363679,-0.1062 -0.187969,-0.049 -0.38411,-0.078 -0.196142,-0.029 -0.380025,-0.029 -0.38411,0 -0.715099,0.1512 -0.326903,0.1471 -0.567994,0.4209 -0.241091,0.2738 -0.380024,0.662 -0.138934,0.3882 -0.138934,0.8663 z"
           style="font-style:normal;font-variant:normal;font-weight:normal;font-stretch:normal;font-family:'Estrangelo Edessa';-inkscape-font-specification:'Estrangelo Edessa';fill:#5a5a5a;fill-opacity:1;stroke-width:0.20921767px"
           id="path4487"
           inkscape:connector-curvature="0" />
        <path
           d="m 51.008507,1051.1838 q 0.298299,0 0.543476,-0.09 0.245177,-0.094 0.4168,-0.2738 0.175711,-0.1839 0.269695,-0.4577 0.09807,-0.2779 0.09807,-0.6456 v -3.2364 h 0.796825 v 3.1383 q 0,0.5598 -0.151192,0.9807 -0.151193,0.4209 -0.437233,0.7029 -0.286039,0.2778 -0.694668,0.4208 -0.408628,0.139 -0.919414,0.139 -0.486267,0 -0.878551,-0.1349 -0.388196,-0.1389 -0.666064,-0.4086 -0.273781,-0.2738 -0.424973,-0.6783 -0.147106,-0.4046 -0.147106,-0.9399 v -3.22 h 0.804997 v 3.1873 q 0,0.376 0.09807,0.662 0.09807,0.282 0.277868,0.474 0.183882,0.188 0.437232,0.2861 0.257436,0.094 0.576166,0.094 z"
           style="font-style:normal;font-variant:normal;font-weight:normal;font-stretch:normal;font-family:'Estrangelo Edessa';-inkscape-font-specification:'Estrangelo Edessa';fill:#5a5a5a;fill-opacity:1;stroke-width:0.20921767px"
           id="path4489"
           inkscape:connector-curvature="0" />
        <path
           d="m 57.186967,1051.7682 h -2.643825 v -5.2877 h 2.635653 v 0.6865 h -1.838828 v 1.6059 h 1.847 v 0.6784 h -1.847 v 1.6386 h 1.847 z"
           style="font-style:normal;font-variant:normal;font-weight:normal;font-stretch:normal;font-family:'Estrangelo Edessa';-inkscape-font-specification:'Estrangelo Edessa';fill:#5a5a5a;fill-opacity:1;stroke-width:0.20921767px"
           id="path4491"
           inkscape:connector-curvature="0" />
        <path
           d="m 61.379495,1050.289 q 0,0.3228 -0.114416,0.6088 -0.11033,0.282 -0.330989,0.4945 -0.216573,0.2084 -0.543476,0.3309 -0.322816,0.1185 -0.751876,0.1185 -0.208401,0 -0.416801,-0.029 -0.204314,-0.024 -0.392283,-0.073 -0.183883,-0.053 -0.343248,-0.1185 -0.159365,-0.07 -0.277867,-0.1471 v -0.8173 q 0.130761,0.094 0.306471,0.188 0.179796,0.09 0.375938,0.1634 0.196142,0.07 0.388197,0.1145 0.196142,0.045 0.35142,0.045 0.237005,0 0.412715,-0.057 0.179796,-0.061 0.298299,-0.1716 0.122588,-0.1104 0.179796,-0.2615 0.06129,-0.1553 0.06129,-0.3392 0,-0.2084 -0.07764,-0.3514 -0.07355,-0.1431 -0.212487,-0.2493 -0.138933,-0.1062 -0.335075,-0.192 -0.196142,-0.086 -0.437232,-0.1798 -0.330989,-0.1308 -0.588425,-0.2616 -0.257436,-0.1348 -0.433146,-0.3024 -0.17571,-0.1716 -0.269695,-0.3922 -0.0899,-0.2248 -0.0899,-0.5313 0,-0.335 0.134847,-0.6047 0.134848,-0.2738 0.367766,-0.4618 0.232918,-0.192 0.543475,-0.2942 0.314644,-0.1062 0.670151,-0.1062 0.380024,0 0.686496,0.069 0.306471,0.07 0.55982,0.1757 v 0.7356 q -0.118502,-0.057 -0.273781,-0.1104 -0.155278,-0.053 -0.326902,-0.094 -0.171624,-0.045 -0.343248,-0.07 -0.171624,-0.029 -0.326903,-0.029 -0.216573,0 -0.38411,0.057 -0.167538,0.053 -0.28604,0.1512 -0.114416,0.098 -0.17571,0.237 -0.05721,0.1348 -0.05721,0.2983 0,0.1839 0.07764,0.3187 0.07764,0.1308 0.220659,0.237 0.14302,0.1022 0.343248,0.1921 0.204314,0.086 0.453578,0.1839 0.31873,0.1266 0.567993,0.2656 0.25335,0.1348 0.424973,0.3146 0.175711,0.1757 0.269695,0.4087 0.09398,0.2288 0.09398,0.5353 z"
           style="font-style:normal;font-variant:normal;font-weight:normal;font-stretch:normal;font-family:'Estrangelo Edessa';-inkscape-font-specification:'Estrangelo Edessa';fill:#5a5a5a;fill-opacity:1;stroke-width:0.20921767px"
           id="path4493"
           inkscape:connector-curvature="0" />
      </g>
    </g>
  </g>
</svg>
