<?xml version="1.0" encoding="UTF-8" standalone="no"?>
<!-- Created with Inkscape (http://www.inkscape.org/) -->

<svg
   xmlns:dc="http://purl.org/dc/elements/1.1/"
   xmlns:cc="http://creativecommons.org/ns#"
   xmlns:rdf="http://www.w3.org/1999/02/22-rdf-syntax-ns#"
   xmlns:svg="http://www.w3.org/2000/svg"
   xmlns="http://www.w3.org/2000/svg"
   xmlns:xlink="http://www.w3.org/1999/xlink"
   xmlns:sodipodi="http://sodipodi.sourceforge.net/DTD/sodipodi-0.dtd"
   xmlns:inkscape="http://www.inkscape.org/namespaces/inkscape"
   width="65"
   height="50"
   viewBox="0 0 65 50"
   id="svg2"
   version="1.1"
   inkscape:version="0.92.1 r15371"
   sodipodi:docname="background_battery.svg">
  <defs
     id="defs4">
    <pattern
       y="0"
       x="0"
       height="6"
       width="6"
       patternUnits="userSpaceOnUse"
       id="EMFhbasepattern" />
    <radialGradient
       inkscape:collect="always"
       xlink:href="#linearGradient5282-0"
       id="radialGradient4196-1"
       cx="767.797"
       cy="229.94659"
       fx="767.797"
       fy="229.94658"
       r="32.034878"
       gradientTransform="matrix(-1.8825581e-5,0.81131099,-39.523138,-7.1150984e-4,9120.7452,404.60373)"
       gradientUnits="userSpaceOnUse" />
    <linearGradient
       id="linearGradient5282-0"
       inkscape:collect="always">
      <stop
         id="stop5284"
         offset="0"
         style="stop-color:#b3b3b3;stop-opacity:1" />
      <stop
         id="stop5286"
         offset="1"
         style="stop-color:#1a1a1a;stop-opacity:1" />
    </linearGradient>
    <marker
       style="overflow:visible"
       id="Arrow1Lstart"
       orient="auto"
       refY="0"
       refX="0">
      <path
         inkscape:connector-curvature="0"
         style="fill-rule:evenodd;stroke:#000000;stroke-width:1pt;marker-start:none"
         id="path10118"
         transform="matrix(0.8,0,0,0.8,10,0)"
         d="M 0,0 5,-5 -12.5,0 5,5 0,0 Z" />
    </marker>
    <radialGradient
       gradientTransform="matrix(1,0,0,0.17045779,808.10425,-1175.0862)"
       gradientUnits="userSpaceOnUse"
       xlink:href="#linearGradient4128"
       id="radialGradient4134"
       fy="-2665.9668"
       fx="276.14392"
       r="703.63379"
       cy="-2665.9668"
       cx="276.14392" />
    <linearGradient
       id="linearGradient4128">
      <stop
         offset="0"
         style="stop-color:#000000;stop-opacity:1"
         id="stop4130" />
      <stop
         offset="1"
         style="stop-color:#000000;stop-opacity:0"
         id="stop4132" />
    </linearGradient>
    <linearGradient
       id="linearGradient8105">
      <stop
         offset="0"
         style="stop-color:#a14dd3;stop-opacity:1"
         id="stop8107" />
      <stop
         offset="1"
         style="stop-color:#a14dd3;stop-opacity:0"
         id="stop8109" />
    </linearGradient>
    <radialGradient
       gradientTransform="matrix(1,0,0,0.17045779,1912.5103,685.79563)"
       gradientUnits="userSpaceOnUse"
       xlink:href="#linearGradient4128"
       id="radialGradient18343"
       fy="-2665.9668"
       fx="276.14392"
       r="703.63379"
       cy="-2665.9668"
       cx="276.14392" />
    <linearGradient
       gradientTransform="matrix(1,0,0,-1,8.3999,368.2998)"
       gradientUnits="userSpaceOnUse"
       xlink:href="#SVGID_3_"
       id="linearGradient31968"
       y2="259.30521"
       x2="195.5984"
       y1="259.30521"
       x1="129.342" />
    <linearGradient
       gradientTransform="matrix(1,0,0,-1,8.3999,368.2998)"
       gradientUnits="userSpaceOnUse"
       xlink:href="#SVGID_4_"
       id="linearGradient31970"
       y2="259.311"
       x2="195.5535"
       y1="259.311"
       x1="129.2932" />
    <linearGradient
       gradientTransform="matrix(1,0,0,-1,8.3999,368.2998)"
       gradientUnits="userSpaceOnUse"
       xlink:href="#SVGID_5_"
       id="linearGradient31972"
       y2="259.31689"
       x2="195.50951"
       y1="259.31689"
       x1="129.24541" />
    <linearGradient
       gradientTransform="matrix(1,0,0,-1,8.3999,368.2998)"
       gradientUnits="userSpaceOnUse"
       xlink:href="#SVGID_6_"
       id="linearGradient31974"
       y2="259.32181"
       x2="195.4646"
       y1="259.32181"
       x1="129.1965" />
    <linearGradient
       gradientTransform="matrix(1,0,0,-1,8.3999,368.2998)"
       gradientUnits="userSpaceOnUse"
       xlink:href="#SVGID_7_"
       id="linearGradient31976"
       y2="259.32669"
       x2="195.4216"
       y1="259.32669"
       x1="129.14771" />
    <linearGradient
       gradientTransform="matrix(1,0,0,-1,8.3999,368.2998)"
       gradientUnits="userSpaceOnUse"
       xlink:href="#SVGID_8_"
       id="linearGradient31978"
       y2="259.33151"
       x2="195.37869"
       y1="259.33151"
       x1="129.09891" />
    <linearGradient
       gradientTransform="matrix(1,0,0,-1,8.3999,368.2998)"
       gradientUnits="userSpaceOnUse"
       xlink:href="#SVGID_9_"
       id="linearGradient31980"
       y2="259.3364"
       x2="195.3376"
       y1="259.3364"
       x1="129.05099" />
    <linearGradient
       gradientTransform="matrix(1,0,0,-1,8.3999,368.2998)"
       gradientUnits="userSpaceOnUse"
       xlink:href="#SVGID_10_"
       id="linearGradient31982"
       y2="259.3403"
       x2="195.2957"
       y1="259.3403"
       x1="129.0032" />
    <linearGradient
       gradientTransform="matrix(1,0,0,-1,8.3999,368.2998)"
       gradientUnits="userSpaceOnUse"
       xlink:href="#SVGID_11_"
       id="linearGradient31984"
       y2="259.34329"
       x2="195.25459"
       y1="259.34329"
       x1="128.9543" />
    <linearGradient
       gradientTransform="matrix(1,0,0,-1,8.3999,368.2998)"
       gradientUnits="userSpaceOnUse"
       xlink:href="#SVGID_12_"
       id="linearGradient31986"
       y2="259.34811"
       x2="195.21561"
       y1="259.34811"
       x1="128.90649" />
    <linearGradient
       gradientTransform="matrix(1,0,0,-1,8.3999,368.2998)"
       gradientUnits="userSpaceOnUse"
       xlink:href="#SVGID_13_"
       id="linearGradient31988"
       y2="259.3501"
       x2="195.17551"
       y1="259.3501"
       x1="128.8567" />
    <linearGradient
       gradientTransform="matrix(1,0,0,-1,8.3999,368.2998)"
       gradientUnits="userSpaceOnUse"
       xlink:href="#SVGID_14_"
       id="linearGradient31990"
       y2="259.354"
       x2="195.13651"
       y1="259.354"
       x1="128.80881" />
    <linearGradient
       gradientTransform="matrix(1,0,0,-1,8.3999,368.2998)"
       gradientUnits="userSpaceOnUse"
       xlink:href="#SVGID_15_"
       id="linearGradient31992"
       y2="259.35599"
       x2="195.0994"
       y1="259.35599"
       x1="128.75999" />
    <linearGradient
       gradientTransform="matrix(1,0,0,-1,8.3999,368.2998)"
       gradientUnits="userSpaceOnUse"
       xlink:href="#SVGID_16_"
       id="linearGradient31994"
       y2="259.35791"
       x2="195.0623"
       y1="259.35791"
       x1="128.7122" />
    <linearGradient
       gradientTransform="matrix(1,0,0,-1,8.3999,368.2998)"
       gradientUnits="userSpaceOnUse"
       xlink:href="#SVGID_17_"
       id="linearGradient31996"
       y2="259.35989"
       x2="195.0251"
       y1="259.35989"
       x1="128.6633" />
    <linearGradient
       gradientTransform="matrix(1,0,0,-1,8.3999,368.2998)"
       gradientUnits="userSpaceOnUse"
       xlink:href="#SVGID_18_"
       id="linearGradient31998"
       y2="259.36179"
       x2="194.989"
       y1="259.36179"
       x1="128.61549" />
    <linearGradient
       gradientTransform="matrix(1,0,0,-1,8.3999,368.2998)"
       gradientUnits="userSpaceOnUse"
       xlink:href="#SVGID_19_"
       id="linearGradient32000"
       y2="259.3638"
       x2="194.9539"
       y1="259.3638"
       x1="128.5667" />
    <linearGradient
       gradientTransform="matrix(1,0,0,-1,8.3999,368.2998)"
       gradientUnits="userSpaceOnUse"
       xlink:href="#SVGID_20_"
       id="linearGradient32002"
       y2="259.36569"
       x2="194.91769"
       y1="259.36569"
       x1="128.51781" />
    <linearGradient
       gradientTransform="matrix(1,0,0,-1,8.3999,368.2998)"
       gradientUnits="userSpaceOnUse"
       xlink:href="#SVGID_21_"
       id="linearGradient32004"
       y2="259.3667"
       x2="194.8855"
       y1="259.3667"
       x1="128.47" />
    <linearGradient
       gradientTransform="matrix(1,0,0,-1,8.3999,368.2998)"
       gradientUnits="userSpaceOnUse"
       xlink:href="#SVGID_22_"
       id="linearGradient32006"
       y2="259.36871"
       x2="194.8503"
       y1="259.36871"
       x1="128.4211" />
    <linearGradient
       x1="128.4211"
       y1="259.36871"
       x2="194.8503"
       y2="259.36871"
       id="linearGradient32006-9"
       xlink:href="#SVGID_22_"
       gradientUnits="userSpaceOnUse"
       gradientTransform="matrix(1,0,0,-1,8.3999,368.2998)" />
    <linearGradient
       x1="128.47"
       y1="259.3667"
       x2="194.8855"
       y2="259.3667"
       id="linearGradient32004-0"
       xlink:href="#SVGID_21_"
       gradientUnits="userSpaceOnUse"
       gradientTransform="matrix(1,0,0,-1,8.3999,368.2998)" />
    <linearGradient
       x1="128.51781"
       y1="259.36569"
       x2="194.91769"
       y2="259.36569"
       id="linearGradient32002-5"
       xlink:href="#SVGID_20_"
       gradientUnits="userSpaceOnUse"
       gradientTransform="matrix(1,0,0,-1,8.3999,368.2998)" />
    <linearGradient
       x1="128.5667"
       y1="259.3638"
       x2="194.9539"
       y2="259.3638"
       id="linearGradient32000-5"
       xlink:href="#SVGID_19_"
       gradientUnits="userSpaceOnUse"
       gradientTransform="matrix(1,0,0,-1,8.3999,368.2998)" />
    <linearGradient
       x1="128.61549"
       y1="259.36179"
       x2="194.989"
       y2="259.36179"
       id="linearGradient31998-9"
       xlink:href="#SVGID_18_"
       gradientUnits="userSpaceOnUse"
       gradientTransform="matrix(1,0,0,-1,8.3999,368.2998)" />
    <linearGradient
       x1="128.6633"
       y1="259.35989"
       x2="195.0251"
       y2="259.35989"
       id="linearGradient31996-8"
       xlink:href="#SVGID_17_"
       gradientUnits="userSpaceOnUse"
       gradientTransform="matrix(1,0,0,-1,8.3999,368.2998)" />
    <linearGradient
       x1="128.7122"
       y1="259.35791"
       x2="195.0623"
       y2="259.35791"
       id="linearGradient31994-4"
       xlink:href="#SVGID_16_"
       gradientUnits="userSpaceOnUse"
       gradientTransform="matrix(1,0,0,-1,8.3999,368.2998)" />
    <linearGradient
       x1="128.75999"
       y1="259.35599"
       x2="195.0994"
       y2="259.35599"
       id="linearGradient31992-8"
       xlink:href="#SVGID_15_"
       gradientUnits="userSpaceOnUse"
       gradientTransform="matrix(1,0,0,-1,8.3999,368.2998)" />
    <linearGradient
       x1="128.80881"
       y1="259.354"
       x2="195.13651"
       y2="259.354"
       id="linearGradient31990-3"
       xlink:href="#SVGID_14_"
       gradientUnits="userSpaceOnUse"
       gradientTransform="matrix(1,0,0,-1,8.3999,368.2998)" />
    <linearGradient
       x1="128.8567"
       y1="259.3501"
       x2="195.17551"
       y2="259.3501"
       id="linearGradient31988-6"
       xlink:href="#SVGID_13_"
       gradientUnits="userSpaceOnUse"
       gradientTransform="matrix(1,0,0,-1,8.3999,368.2998)" />
    <linearGradient
       x1="128.90649"
       y1="259.34811"
       x2="195.21561"
       y2="259.34811"
       id="linearGradient31986-6"
       xlink:href="#SVGID_12_"
       gradientUnits="userSpaceOnUse"
       gradientTransform="matrix(1,0,0,-1,8.3999,368.2998)" />
    <linearGradient
       x1="128.9543"
       y1="259.34329"
       x2="195.25459"
       y2="259.34329"
       id="linearGradient31984-3"
       xlink:href="#SVGID_11_"
       gradientUnits="userSpaceOnUse"
       gradientTransform="matrix(1,0,0,-1,8.3999,368.2998)" />
    <linearGradient
       x1="129.0032"
       y1="259.3403"
       x2="195.2957"
       y2="259.3403"
       id="linearGradient31982-9"
       xlink:href="#SVGID_10_"
       gradientUnits="userSpaceOnUse"
       gradientTransform="matrix(1,0,0,-1,8.3999,368.2998)" />
    <linearGradient
       x1="129.05099"
       y1="259.3364"
       x2="195.3376"
       y2="259.3364"
       id="linearGradient31980-9"
       xlink:href="#SVGID_9_"
       gradientUnits="userSpaceOnUse"
       gradientTransform="matrix(1,0,0,-1,8.3999,368.2998)" />
    <linearGradient
       x1="129.09891"
       y1="259.33151"
       x2="195.37869"
       y2="259.33151"
       id="linearGradient31978-4"
       xlink:href="#SVGID_8_"
       gradientUnits="userSpaceOnUse"
       gradientTransform="matrix(1,0,0,-1,8.3999,368.2998)" />
    <linearGradient
       x1="129.14771"
       y1="259.32669"
       x2="195.4216"
       y2="259.32669"
       id="linearGradient31976-3"
       xlink:href="#SVGID_7_"
       gradientUnits="userSpaceOnUse"
       gradientTransform="matrix(1,0,0,-1,8.3999,368.2998)" />
    <linearGradient
       x1="129.1965"
       y1="259.32181"
       x2="195.4646"
       y2="259.32181"
       id="linearGradient31974-9"
       xlink:href="#SVGID_6_"
       gradientUnits="userSpaceOnUse"
       gradientTransform="matrix(1,0,0,-1,8.3999,368.2998)" />
    <linearGradient
       x1="129.24541"
       y1="259.31689"
       x2="195.50951"
       y2="259.31689"
       id="linearGradient31972-6"
       xlink:href="#SVGID_5_"
       gradientUnits="userSpaceOnUse"
       gradientTransform="matrix(1,0,0,-1,8.3999,368.2998)" />
    <linearGradient
       x1="129.2932"
       y1="259.311"
       x2="195.5535"
       y2="259.311"
       id="linearGradient31970-7"
       xlink:href="#SVGID_4_"
       gradientUnits="userSpaceOnUse"
       gradientTransform="matrix(1,0,0,-1,8.3999,368.2998)" />
    <linearGradient
       x1="129.342"
       y1="259.30521"
       x2="195.5984"
       y2="259.30521"
       id="linearGradient31968-6"
       xlink:href="#SVGID_3_"
       gradientUnits="userSpaceOnUse"
       gradientTransform="matrix(1,0,0,-1,8.3999,368.2998)" />
    <radialGradient
       cx="276.14392"
       cy="-2665.9668"
       r="703.63379"
       fx="276.14392"
       fy="-2665.9668"
       id="radialGradient18343-4"
       xlink:href="#linearGradient4128"
       gradientUnits="userSpaceOnUse"
       gradientTransform="matrix(1,0,0,0.17045779,1912.5103,685.79563)" />
    <radialGradient
       cx="276.14392"
       cy="-2665.9668"
       r="703.63379"
       fx="276.14392"
       fy="-2665.9668"
       id="radialGradient4134-5"
       xlink:href="#linearGradient4128"
       gradientUnits="userSpaceOnUse"
       gradientTransform="matrix(1,0,0,0.17045779,808.10425,-1175.0862)" />
    <marker
       refX="0"
       refY="0"
       orient="auto"
       id="Arrow1Lstart-6"
       style="overflow:visible">
      <path
         d="M 0,0 5,-5 -12.5,0 5,5 0,0 Z"
         transform="matrix(0.8,0,0,0.8,10,0)"
         id="path10118-8"
         style="fill-rule:evenodd;stroke:#000000;stroke-width:1pt;marker-start:none"
         inkscape:connector-curvature="0" />
    </marker>
    <linearGradient
       x1="128.4211"
       y1="259.36871"
       x2="194.8503"
       y2="259.36871"
       id="linearGradient32006-6"
       xlink:href="#SVGID_22_"
       gradientUnits="userSpaceOnUse"
       gradientTransform="matrix(1,0,0,-1,8.3999,368.2998)" />
    <linearGradient
       x1="128.47"
       y1="259.3667"
       x2="194.8855"
       y2="259.3667"
       id="linearGradient32004-6"
       xlink:href="#SVGID_21_"
       gradientUnits="userSpaceOnUse"
       gradientTransform="matrix(1,0,0,-1,8.3999,368.2998)" />
    <linearGradient
       x1="128.51781"
       y1="259.36569"
       x2="194.91769"
       y2="259.36569"
       id="linearGradient32002-1"
       xlink:href="#SVGID_20_"
       gradientUnits="userSpaceOnUse"
       gradientTransform="matrix(1,0,0,-1,8.3999,368.2998)" />
    <linearGradient
       x1="128.5667"
       y1="259.3638"
       x2="194.9539"
       y2="259.3638"
       id="linearGradient32000-6"
       xlink:href="#SVGID_19_"
       gradientUnits="userSpaceOnUse"
       gradientTransform="matrix(1,0,0,-1,8.3999,368.2998)" />
    <linearGradient
       x1="128.61549"
       y1="259.36179"
       x2="194.989"
       y2="259.36179"
       id="linearGradient31998-7"
       xlink:href="#SVGID_18_"
       gradientUnits="userSpaceOnUse"
       gradientTransform="matrix(1,0,0,-1,8.3999,368.2998)" />
    <linearGradient
       x1="128.6633"
       y1="259.35989"
       x2="195.0251"
       y2="259.35989"
       id="linearGradient31996-4"
       xlink:href="#SVGID_17_"
       gradientUnits="userSpaceOnUse"
       gradientTransform="matrix(1,0,0,-1,8.3999,368.2998)" />
    <linearGradient
       x1="128.7122"
       y1="259.35791"
       x2="195.0623"
       y2="259.35791"
       id="linearGradient31994-0"
       xlink:href="#SVGID_16_"
       gradientUnits="userSpaceOnUse"
       gradientTransform="matrix(1,0,0,-1,8.3999,368.2998)" />
    <linearGradient
       x1="128.75999"
       y1="259.35599"
       x2="195.0994"
       y2="259.35599"
       id="linearGradient31992-7"
       xlink:href="#SVGID_15_"
       gradientUnits="userSpaceOnUse"
       gradientTransform="matrix(1,0,0,-1,8.3999,368.2998)" />
    <linearGradient
       x1="128.80881"
       y1="259.354"
       x2="195.13651"
       y2="259.354"
       id="linearGradient31990-9"
       xlink:href="#SVGID_14_"
       gradientUnits="userSpaceOnUse"
       gradientTransform="matrix(1,0,0,-1,8.3999,368.2998)" />
    <linearGradient
       x1="128.8567"
       y1="259.3501"
       x2="195.17551"
       y2="259.3501"
       id="linearGradient31988-3"
       xlink:href="#SVGID_13_"
       gradientUnits="userSpaceOnUse"
       gradientTransform="matrix(1,0,0,-1,8.3999,368.2998)" />
    <linearGradient
       x1="128.90649"
       y1="259.34811"
       x2="195.21561"
       y2="259.34811"
       id="linearGradient31986-7"
       xlink:href="#SVGID_12_"
       gradientUnits="userSpaceOnUse"
       gradientTransform="matrix(1,0,0,-1,8.3999,368.2998)" />
    <linearGradient
       x1="128.9543"
       y1="259.34329"
       x2="195.25459"
       y2="259.34329"
       id="linearGradient31984-5"
       xlink:href="#SVGID_11_"
       gradientUnits="userSpaceOnUse"
       gradientTransform="matrix(1,0,0,-1,8.3999,368.2998)" />
    <linearGradient
       x1="129.0032"
       y1="259.3403"
       x2="195.2957"
       y2="259.3403"
       id="linearGradient31982-93"
       xlink:href="#SVGID_10_"
       gradientUnits="userSpaceOnUse"
       gradientTransform="matrix(1,0,0,-1,8.3999,368.2998)" />
    <linearGradient
       x1="129.05099"
       y1="259.3364"
       x2="195.3376"
       y2="259.3364"
       id="linearGradient31980-6"
       xlink:href="#SVGID_9_"
       gradientUnits="userSpaceOnUse"
       gradientTransform="matrix(1,0,0,-1,8.3999,368.2998)" />
    <linearGradient
       x1="129.09891"
       y1="259.33151"
       x2="195.37869"
       y2="259.33151"
       id="linearGradient31978-9"
       xlink:href="#SVGID_8_"
       gradientUnits="userSpaceOnUse"
       gradientTransform="matrix(1,0,0,-1,8.3999,368.2998)" />
    <linearGradient
       x1="129.14771"
       y1="259.32669"
       x2="195.4216"
       y2="259.32669"
       id="linearGradient31976-2"
       xlink:href="#SVGID_7_"
       gradientUnits="userSpaceOnUse"
       gradientTransform="matrix(1,0,0,-1,8.3999,368.2998)" />
    <linearGradient
       x1="129.1965"
       y1="259.32181"
       x2="195.4646"
       y2="259.32181"
       id="linearGradient31974-90"
       xlink:href="#SVGID_6_"
       gradientUnits="userSpaceOnUse"
       gradientTransform="matrix(1,0,0,-1,8.3999,368.2998)" />
    <linearGradient
       x1="129.24541"
       y1="259.31689"
       x2="195.50951"
       y2="259.31689"
       id="linearGradient31972-2"
       xlink:href="#SVGID_5_"
       gradientUnits="userSpaceOnUse"
       gradientTransform="matrix(1,0,0,-1,8.3999,368.2998)" />
    <linearGradient
       x1="129.2932"
       y1="259.311"
       x2="195.5535"
       y2="259.311"
       id="linearGradient31970-5"
       xlink:href="#SVGID_4_"
       gradientUnits="userSpaceOnUse"
       gradientTransform="matrix(1,0,0,-1,8.3999,368.2998)" />
    <linearGradient
       x1="129.342"
       y1="259.30521"
       x2="195.5984"
       y2="259.30521"
       id="linearGradient31968-9"
       xlink:href="#SVGID_3_"
       gradientUnits="userSpaceOnUse"
       gradientTransform="matrix(1,0,0,-1,8.3999,368.2998)" />
    <radialGradient
       cx="276.14392"
       cy="-2665.9668"
       r="703.63379"
       fx="276.14392"
       fy="-2665.9668"
       id="radialGradient18343-1"
       xlink:href="#linearGradient4128"
       gradientUnits="userSpaceOnUse"
       gradientTransform="matrix(1,0,0,0.17045779,1912.5103,685.79563)" />
    <radialGradient
       cx="276.14392"
       cy="-2665.9668"
       r="703.63379"
       fx="276.14392"
       fy="-2665.9668"
       id="radialGradient4134-9"
       xlink:href="#linearGradient4128"
       gradientUnits="userSpaceOnUse"
       gradientTransform="matrix(1,0,0,0.17045779,808.10425,-1175.0862)" />
    <marker
       refX="0"
       refY="0"
       orient="auto"
       id="Arrow1Lstart-7"
       style="overflow:visible">
      <path
         d="M 0,0 5,-5 -12.5,0 5,5 0,0 Z"
         transform="matrix(0.8,0,0,0.8,10,0)"
         id="path10118-84"
         style="fill-rule:evenodd;stroke:#000000;stroke-width:1pt;marker-start:none"
         inkscape:connector-curvature="0" />
    </marker>
    <linearGradient
       inkscape:collect="always"
       xlink:href="#linearGradient5254"
       id="linearGradient5268"
       x1="768.05304"
       y1="135.04349"
       x2="768.05304"
       y2="124.37498"
       gradientUnits="userSpaceOnUse"
       gradientTransform="matrix(-0.85441212,0,0,-1.3143221,688.76368,202.8233)" />
    <linearGradient
       inkscape:collect="always"
       id="linearGradient5254">
      <stop
         style="stop-color:#141414;stop-opacity:1"
         offset="0"
         id="stop5256" />
      <stop
         style="stop-color:#000000;stop-opacity:1"
         offset="1"
         id="stop5258" />
    </linearGradient>
    <linearGradient
       inkscape:collect="always"
       xlink:href="#linearGradient5282-0"
       id="linearGradient972"
       gradientUnits="userSpaceOnUse"
       gradientTransform="matrix(-0.85441212,0,0,-1.3143221,688.76368,202.8233)"
       x1="768.05304"
       y1="83.813377"
       x2="768.05304"
       y2="130.31911" />
    <radialGradient
       inkscape:collect="always"
       xlink:href="#linearGradient8105"
       id="radialGradient1060"
       cx="50.407417"
       cy="1034.0078"
       fx="50.407417"
       fy="1034.0078"
       r="1.5274118"
       gradientTransform="matrix(27.673567,-1.8267727e-4,1.4663757e-4,22.213955,-1344.6973,-21935.386)"
       gradientUnits="userSpaceOnUse" />
    <radialGradient
       inkscape:collect="always"
       xlink:href="#linearGradient5282-0"
       id="radialGradient4725-4-0-0"
       cx="768.25824"
       cy="172.608"
       fx="768.25824"
       fy="172.60774"
       r="24.596836"
       gradientTransform="matrix(0.38823735,5.4359785e-5,-5.6718912e-6,0.64354893,-281.53,923.13282)"
       gradientUnits="userSpaceOnUse" />
    <radialGradient
       inkscape:collect="always"
       xlink:href="#linearGradient5282-0"
       id="radialGradient4725-4-0-0-7"
       cx="768.25824"
       cy="172.608"
       fx="768.25824"
       fy="172.60774"
       r="24.596836"
       gradientTransform="matrix(0.38823735,5.4359785e-5,-5.6718912e-6,0.64354893,-275.16509,923.13279)"
       gradientUnits="userSpaceOnUse" />
    <radialGradient
       inkscape:collect="always"
       xlink:href="#linearGradient5282-0"
       id="radialGradient4725-4-0-0-8"
       cx="768.25824"
       cy="172.608"
       fx="768.25824"
       fy="172.60774"
       r="24.596836"
       gradientTransform="matrix(0.38823735,5.4359785e-5,-5.6718912e-6,0.64354893,-268.80016,923.13289)"
       gradientUnits="userSpaceOnUse" />
    <radialGradient
       inkscape:collect="always"
       xlink:href="#linearGradient5282-0"
       id="radialGradient4725-4-0-0-6"
       cx="768.25824"
       cy="172.608"
       fx="768.25824"
       fy="172.60774"
       r="24.596836"
       gradientTransform="matrix(0.38823735,5.4359785e-5,-5.6718912e-6,0.64354893,-262.43525,923.13281)"
       gradientUnits="userSpaceOnUse" />
    <radialGradient
       inkscape:collect="always"
       xlink:href="#linearGradient5282-0"
       id="radialGradient4725-4-0-0-1"
       cx="768.25824"
       cy="172.608"
       fx="768.25824"
       fy="172.60774"
       r="24.596836"
       gradientTransform="matrix(0.38823735,5.4359785e-5,-5.6718912e-6,0.64354893,-256.07033,923.13278)"
       gradientUnits="userSpaceOnUse" />
    <radialGradient
       inkscape:collect="always"
       xlink:href="#linearGradient5282-0"
       id="radialGradient1208"
       gradientUnits="userSpaceOnUse"
       gradientTransform="matrix(0.38823735,5.4359785e-5,-5.6718912e-6,0.64354893,-249.7054,-79.22934)"
       cx="768.25824"
       cy="172.608"
       fx="768.25824"
       fy="172.60774"
       r="24.596836" />
  </defs>
  <sodipodi:namedview
     id="base"
     pagecolor="#ffffff"
     bordercolor="#666666"
     borderopacity="1.0"
     inkscape:pageopacity="0.0"
     inkscape:pageshadow="2"
     inkscape:zoom="10.24"
     inkscape:cx="24.382435"
     inkscape:cy="15.59708"
     inkscape:document-units="px"
     inkscape:current-layer="layer1"
     showgrid="false"
     units="px"
     inkscape:window-width="1920"
     inkscape:window-height="1028"
     inkscape:window-x="-8"
     inkscape:window-y="-8"
     inkscape:window-maximized="1"
     showguides="false"
     inkscape:guide-bbox="true"
     gridtolerance="10"
     objecttolerance="20">
    <inkscape:grid
       type="xygrid"
       id="grid4798" />
  </sodipodi:namedview>
  <metadata
     id="metadata7">
    <rdf:RDF>
      <cc:Work
         rdf:about="">
        <dc:format>image/svg+xml</dc:format>
        <dc:type
           rdf:resource="http://purl.org/dc/dcmitype/StillImage" />
        <dc:title />
        <dc:creator>
          <cc:Agent>
            <dc:title>Jorge Rosa</dc:title>
          </cc:Agent>
        </dc:creator>
        <dc:description>Email: jorge.bigarte@gmail.com
Site:https://sites.google.com/site/jorgerosaportfolio</dc:description>
      </cc:Work>
    </rdf:RDF>
  </metadata>
  <g
     inkscape:label="Layer 1"
     inkscape:groupmode="layer"
     id="layer1"
     transform="translate(0,-1002.3622)">
    <path
       style="font-style:normal;font-variant:normal;font-weight:normal;font-stretch:normal;font-size:medium;line-height:100%;font-family:'Estrangelo Edessa';-inkscape-font-specification:'Estrangelo Edessa, Normal';text-align:start;letter-spacing:0px;word-spacing:0px;writing-mode:lr-tb;text-anchor:start;opacity:1;fill:url(#radialGradient4196-1);fill-opacity:1;stroke:none;stroke-width:0.51099998;stroke-linecap:round;stroke-linejoin:round;stroke-miterlimit:4;stroke-dasharray:none;stroke-dashoffset:0;stroke-opacity:1"
       d="m 65,1002.3622 0,50 -65,0 0,-49.9999 z"
       id="rect4183-9"
       inkscape:connector-curvature="0" />
    <g
       id="g213"
       transform="matrix(0.98046152,0,0,0.98046152,0.30496353,47.02096)">
      <path
         inkscape:connector-curvature="0"
         id="text189-5"
         d="m 16.437818,983.4788 c -0.290961,0 -0.575309,0 -0.853045,0.015 -0.274429,0.01 -0.509182,0.018 -0.704258,0.035 v 6.3184 c 0.09588,0.013 0.211608,0.027 0.34717,0.04 0.135561,0.013 0.276082,0.023 0.421562,0.03 0.148787,0.01 0.294268,0.017 0.436442,0.02 0.14548,0.01 0.272776,0.01 0.381886,0.01 0.429829,0 0.79849,-0.048 1.105983,-0.1438 0.310799,-0.096 0.56539,-0.2298 0.763772,-0.4017 0.201689,-0.172 0.348823,-0.377 0.441401,-0.615 0.09589,-0.2381 0.143828,-0.5009 0.143828,-0.7886 0,-0.1984 -0.03306,-0.3786 -0.09919,-0.5406 -0.06282,-0.162 -0.152093,-0.3042 -0.267816,-0.4265 -0.112417,-0.1256 -0.246325,-0.2298 -0.401725,-0.3124 -0.152093,-0.086 -0.315758,-0.1505 -0.490996,-0.1935 0.132255,-0.063 0.254591,-0.1421 0.367007,-0.238 0.112417,-0.096 0.208302,-0.205 0.287655,-0.3274 0.08266,-0.1223 0.147134,-0.2562 0.193423,-0.4017 0.04629,-0.1488 0.06943,-0.3075 0.06943,-0.4761 0,-0.2579 -0.04794,-0.486 -0.143827,-0.6844 -0.09589,-0.1984 -0.236406,-0.3654 -0.421563,-0.5009 -0.181851,-0.1356 -0.406684,-0.2381 -0.674501,-0.3075 -0.26451,-0.073 -0.56539,-0.1091 -0.90264,-0.1091 z m 5.376166,0.02 -2.489701,6.4177 h 1.046468 l 0.669541,-1.84 h 2.469862 l 0.719137,1.84 h 1.046467 l -2.519457,-6.4177 z m 3.878378,0 v 0.8332 h 1.626735 v 5.5845 h 0.972076 v -5.5845 h 1.616818 v -0.8332 z m 4.999238,0 v 0.8332 h 1.626736 v 5.5845 h 0.972076 v -5.5845 h 1.616818 v -0.8332 z m 5.495198,0 v 6.4177 h 3.20884 v -0.8233 h -2.24173 v -1.9888 h 2.24173 v -0.8233 h -2.24173 v -1.9491 h 2.23181 v -0.8332 z m 4.74134,0 v 6.4177 h 0.97703 v -2.8319 h 0.44636 l 1.785455,2.8319 h 1.15061 l -1.973905,-2.9956 c 0.18846,-0.043 0.37197,-0.1124 0.55051,-0.2083 0.17855,-0.099 0.335605,-0.2215 0.471165,-0.367 0.13887,-0.1455 0.24963,-0.3158 0.33229,-0.5109 0.086,-0.195 0.12895,-0.4116 0.12895,-0.6497 0,-0.324 -0.0628,-0.5934 -0.18847,-0.8084 -0.12233,-0.2149 -0.29261,-0.3868 -0.510835,-0.5158 -0.21491,-0.1322 -0.46951,-0.2248 -0.76377,-0.2777 -0.29427,-0.056 -0.61168,-0.084 -0.95224,-0.084 z m 4.503285,0 2.19213,3.7445 v 2.6732 h 0.97703 v -2.703 l 2.19213,-3.7147 h -1.02663 l -1.3986,2.4054 c -0.0198,0.03 -0.0413,0.068 -0.0645,0.1141 -0.0198,0.043 -0.0413,0.089 -0.0645,0.1388 l -0.0595,0.1488 c -0.0198,0.05 -0.038,0.096 -0.0546,0.1389 -0.0165,-0.04 -0.0364,-0.084 -0.0595,-0.1339 -0.0231,-0.053 -0.0479,-0.1042 -0.0744,-0.1538 -0.0231,-0.05 -0.0463,-0.098 -0.0694,-0.1438 -0.0232,-0.046 -0.0446,-0.086 -0.0645,-0.119 l -1.33908,-2.3955 z m -28.983686,0.7588 c 0.208302,0 0.383539,0.025 0.525714,0.074 0.14548,0.046 0.262856,0.1108 0.352129,0.1934 0.09258,0.083 0.158706,0.1786 0.198382,0.2877 0.03968,0.1058 0.05951,0.2182 0.05951,0.3372 0,0.3505 -0.112417,0.6183 -0.33725,0.8035 -0.224834,0.1851 -0.552165,0.2777 -0.981994,0.2777 h -0.406684 v -1.9541 c 0.07605,-0.01 0.160359,-0.011 0.252938,-0.015 0.09589,0 0.208301,0 0.33725,0 z m 25.457431,0.074 h 0.52572 c 0.45628,0 0.79353,0.071 1.01175,0.2133 0.22152,0.1388 0.33229,0.362 0.33229,0.6695 0,0.3373 -0.12068,0.6018 -0.36205,0.7935 -0.23806,0.1885 -0.58192,0.2827 -1.03159,0.2827 h -0.47612 z m -19.644824,0.2331 h 0.01984 c 0.01653,0.096 0.03637,0.1885 0.05951,0.2777 0.02645,0.086 0.04794,0.1521 0.06448,0.1984 l 0.813368,2.1822 h -1.869755 l 0.778651,-2.1524 c 0.02315,-0.06 0.04629,-0.1323 0.06943,-0.2182 0.02645,-0.089 0.04794,-0.1852 0.06447,-0.2877 z m -6.402795,2.4451 h 0.67946 c 0.459586,0 0.806756,0.083 1.041508,0.2479 0.234753,0.1654 0.352129,0.4216 0.352129,0.7688 0,0.3571 -0.115723,0.6365 -0.347169,0.8381 -0.231447,0.1984 -0.553818,0.2976 -0.967115,0.2976 -0.152093,0 -0.290961,0 -0.416603,0 -0.122336,-0.01 -0.236406,-0.015 -0.34221,-0.025 z"
         style="font-style:normal;font-weight:normal;font-size:40px;line-height:1.25;font-family:sans-serif;letter-spacing:0px;word-spacing:0px;fill:#000000;fill-opacity:1;stroke:none;stroke-width:0.25392962" />
      <path
         inkscape:connector-curvature="0"
         id="text189"
         d="m 16.437818,982.87875 c -0.290961,0 -0.575309,0 -0.853045,0.015 -0.274429,0.01 -0.509182,0.018 -0.704258,0.035 v 6.3184 c 0.09588,0.013 0.211608,0.027 0.34717,0.04 0.135561,0.013 0.276082,0.023 0.421562,0.03 0.148787,0.01 0.294268,0.017 0.436442,0.02 0.14548,0.01 0.272776,0.01 0.381886,0.01 0.429829,0 0.79849,-0.048 1.105983,-0.1438 0.310799,-0.096 0.56539,-0.2298 0.763772,-0.4017 0.201689,-0.172 0.348823,-0.377 0.441401,-0.615 0.09589,-0.2381 0.143828,-0.5009 0.143828,-0.7886 0,-0.1984 -0.03306,-0.3786 -0.09919,-0.5406 -0.06282,-0.162 -0.152093,-0.3042 -0.267816,-0.4265 -0.112417,-0.1256 -0.246325,-0.2298 -0.401725,-0.3124 -0.152093,-0.086 -0.315758,-0.1505 -0.490996,-0.1935 0.132255,-0.063 0.254591,-0.1421 0.367007,-0.238 0.112417,-0.096 0.208302,-0.205 0.287655,-0.3274 0.08266,-0.1223 0.147134,-0.2562 0.193423,-0.4017 0.04629,-0.1488 0.06943,-0.3075 0.06943,-0.4761 0,-0.2579 -0.04794,-0.486 -0.143827,-0.6844 -0.09589,-0.1984 -0.236406,-0.3654 -0.421563,-0.5009 -0.181851,-0.1356 -0.406684,-0.2381 -0.674501,-0.3075 -0.26451,-0.073 -0.56539,-0.1091 -0.90264,-0.1091 z m 5.376166,0.02 -2.489701,6.4177 h 1.046468 l 0.669541,-1.84 h 2.469862 l 0.719137,1.84 h 1.046467 l -2.519457,-6.4177 z m 3.878378,0 v 0.8332 h 1.626735 v 5.5845 h 0.972076 v -5.5845 h 1.616818 v -0.8332 z m 4.999238,0 v 0.8332 h 1.626736 v 5.5845 h 0.972076 v -5.5845 h 1.616818 v -0.8332 z m 5.495198,0 v 6.4177 h 3.20884 v -0.8233 h -2.24173 v -1.9888 h 2.24173 v -0.8233 h -2.24173 v -1.9491 h 2.23181 v -0.8332 z m 4.74134,0 v 6.4177 h 0.97703 v -2.8319 h 0.44636 l 1.785455,2.8319 h 1.15061 l -1.973905,-2.9956 c 0.18846,-0.043 0.37197,-0.1124 0.55051,-0.2083 0.17855,-0.099 0.335605,-0.2215 0.471165,-0.367 0.13887,-0.1455 0.24963,-0.3158 0.33229,-0.5109 0.086,-0.195 0.12895,-0.4116 0.12895,-0.6497 0,-0.324 -0.0628,-0.5934 -0.18847,-0.8084 -0.12233,-0.2149 -0.29261,-0.3868 -0.510835,-0.5158 -0.21491,-0.1322 -0.46951,-0.2248 -0.76377,-0.2777 -0.29427,-0.056 -0.61168,-0.084 -0.95224,-0.084 z m 4.503285,0 2.19213,3.7445 v 2.6732 h 0.97703 v -2.703 l 2.19213,-3.7147 h -1.02663 l -1.3986,2.4054 c -0.0198,0.03 -0.0413,0.068 -0.0645,0.1141 -0.0198,0.043 -0.0413,0.089 -0.0645,0.1388 l -0.0595,0.1488 c -0.0198,0.05 -0.038,0.096 -0.0546,0.1389 -0.0165,-0.04 -0.0364,-0.084 -0.0595,-0.1339 -0.0231,-0.053 -0.0479,-0.1042 -0.0744,-0.1538 -0.0231,-0.05 -0.0463,-0.098 -0.0694,-0.1438 -0.0232,-0.046 -0.0446,-0.086 -0.0645,-0.119 l -1.33908,-2.3955 z m -28.983686,0.7588 c 0.208302,0 0.383539,0.025 0.525714,0.074 0.14548,0.046 0.262856,0.1108 0.352129,0.1934 0.09258,0.083 0.158706,0.1786 0.198382,0.2877 0.03968,0.1058 0.05951,0.2182 0.05951,0.3372 0,0.3505 -0.112417,0.6183 -0.33725,0.8035 -0.224834,0.1851 -0.552165,0.2777 -0.981994,0.2777 h -0.406684 v -1.9541 c 0.07605,-0.01 0.160359,-0.011 0.252938,-0.015 0.09589,0 0.208301,0 0.33725,0 z m 25.457431,0.074 h 0.52572 c 0.45628,0 0.79353,0.071 1.01175,0.2133 0.22152,0.1388 0.33229,0.362 0.33229,0.6695 0,0.3373 -0.12068,0.6018 -0.36205,0.7935 -0.23806,0.1885 -0.58192,0.2827 -1.03159,0.2827 h -0.47612 z m -19.644824,0.2331 h 0.01984 c 0.01653,0.096 0.03637,0.1885 0.05951,0.2777 0.02645,0.086 0.04794,0.1521 0.06448,0.1984 l 0.813368,2.1822 h -1.869755 l 0.778651,-2.1524 c 0.02315,-0.06 0.04629,-0.1323 0.06943,-0.2182 0.02645,-0.089 0.04794,-0.1852 0.06447,-0.2877 z m -6.402795,2.4451 h 0.67946 c 0.459586,0 0.806756,0.083 1.041508,0.2479 0.234753,0.1654 0.352129,0.4216 0.352129,0.7688 0,0.3571 -0.115723,0.6365 -0.347169,0.8381 -0.231447,0.1984 -0.553818,0.2976 -0.967115,0.2976 -0.152093,0 -0.290961,0 -0.416603,0 -0.122336,-0.01 -0.236406,-0.015 -0.34221,-0.025 z"
         style="font-style:normal;font-weight:normal;font-size:40px;line-height:1.25;font-family:sans-serif;letter-spacing:0px;word-spacing:0px;fill:#333333;fill-opacity:1;stroke:none;stroke-width:0.25392962" />
    </g>
    <path
       style="opacity:1;fill:url(#linearGradient972);fill-opacity:1;stroke:#b3b3b3;stroke-width:0.84329289;stroke-linecap:round;stroke-linejoin:round;stroke-miterlimit:4;stroke-dasharray:none;stroke-dashoffset:0;stroke-opacity:1"
       d="m 11.939453,20.691406 v 21.908203 h 41.439453 v -7.1875 H 56.025 v -7.533203 h -2.646094 v -7.1875 z"
       transform="translate(0,1002.3622)"
       id="rect4183-39"
       inkscape:connector-curvature="0"
       sodipodi:nodetypes="ccccccccc" />
    <g
       id="g4658">
      <rect
         y="1025.3311"
         x="13.978503"
         height="17.530197"
         width="5.3399792"
         id="rect4183-39-0-0-1-8-1"
         style="opacity:0.3;fill:url(#radialGradient4725-4-0-0);fill-opacity:1.0;stroke:none;stroke-width:0.31633142;stroke-linecap:round;stroke-linejoin:round;stroke-miterlimit:4;stroke-dasharray:none;stroke-dashoffset:0;stroke-opacity:1" />
      <rect
         y="1025.3311"
         x="20.343424"
         height="17.530197"
         width="5.3399792"
         id="rect4183-39-0-0-1-8-1-8"
         style="opacity:0.3;fill:url(#radialGradient4725-4-0-0-7);fill-opacity:1.0;stroke:none;stroke-width:0.31633142;stroke-linecap:round;stroke-linejoin:round;stroke-miterlimit:4;stroke-dasharray:none;stroke-dashoffset:0;stroke-opacity:1" />
      <rect
         y="1025.3311"
         x="26.708345"
         height="17.530197"
         width="5.3399792"
         id="rect4183-39-0-0-1-8-1-2"
         style="opacity:0.3;fill:url(#radialGradient4725-4-0-0-8);fill-opacity:1.0;stroke:none;stroke-width:0.31633142;stroke-linecap:round;stroke-linejoin:round;stroke-miterlimit:4;stroke-dasharray:none;stroke-dashoffset:0;stroke-opacity:1" />
      <rect
         y="1025.3311"
         x="33.073265"
         height="17.530197"
         width="5.3399792"
         id="rect4183-39-0-0-1-8-1-7"
         style="opacity:0.3;fill:url(#radialGradient4725-4-0-0-6);fill-opacity:1.0;stroke:none;stroke-width:0.31633142;stroke-linecap:round;stroke-linejoin:round;stroke-miterlimit:4;stroke-dasharray:none;stroke-dashoffset:0;stroke-opacity:1" />
      <rect
         y="1025.3311"
         x="39.438187"
         height="17.530197"
         width="5.3399792"
         id="rect4183-39-0-0-1-8-1-1"
         style="opacity:0.3;fill:url(#radialGradient4725-4-0-0-1);fill-opacity:1.0;stroke:none;stroke-width:0.31633142;stroke-linecap:round;stroke-linejoin:round;stroke-miterlimit:4;stroke-dasharray:none;stroke-dashoffset:0;stroke-opacity:1" />
      <path
         id="rect4183-39-0-0-1-8-1-1-1"
         transform="translate(0,1002.3622)"
         d="M 45.802734 22.96875 L 45.802734 40.5 L 51.142578 40.5 L 51.142578 33.664062 L 53.822266 33.664062 L 53.822266 29.804688 L 51.142578 29.804688 L 51.142578 22.96875 L 45.802734 22.96875 z "
         style="opacity:0.3;fill:url(#radialGradient1208);fill-opacity:1;stroke:none;stroke-width:0.31633142;stroke-linecap:round;stroke-linejoin:round;stroke-miterlimit:4;stroke-dasharray:none;stroke-dashoffset:0;stroke-opacity:1" />
    </g>
  </g>
</svg>
