<?xml version="1.0" encoding="UTF-8" standalone="no"?>
<!-- Created with Inkscape (http://www.inkscape.org/) -->

<svg
   xmlns:dc="http://purl.org/dc/elements/1.1/"
   xmlns:cc="http://creativecommons.org/ns#"
   xmlns:rdf="http://www.w3.org/1999/02/22-rdf-syntax-ns#"
   xmlns:svg="http://www.w3.org/2000/svg"
   xmlns="http://www.w3.org/2000/svg"
   xmlns:xlink="http://www.w3.org/1999/xlink"
   xmlns:sodipodi="http://sodipodi.sourceforge.net/DTD/sodipodi-0.dtd"
   xmlns:inkscape="http://www.inkscape.org/namespaces/inkscape"
   width="100"
   height="20"
   viewBox="0 0 100 20"
   id="svg2"
   version="1.1"
   inkscape:version="0.92.1 r15371"
   sodipodi:docname="background_digital_small.svg">
  <defs
     id="defs4">
    <radialGradient
       inkscape:collect="always"
       xlink:href="#linearGradient5282"
       id="radialGradient4196-1"
       cx="687.79871"
       cy="229.94928"
       fx="687.79871"
       fy="229.94926"
       r="32.034878"
       gradientTransform="matrix(2.8962432e-5,-0.43098998,60.804822,0.01807569,-13932.793,1341.804)"
       gradientUnits="userSpaceOnUse" />
    <linearGradient
       id="linearGradient5282"
       inkscape:collect="always">
      <stop
         id="stop5284"
         offset="0"
         style="stop-color:#050505;stop-opacity:1" />
      <stop
         id="stop5286"
         offset="1"
         style="stop-color:#000000;stop-opacity:1" />
    </linearGradient>
    <pattern
       y="0"
       x="0"
       height="6"
       width="6"
       patternUnits="userSpaceOnUse"
       id="EMFhbasepattern" />
  </defs>
  <sodipodi:namedview
     id="base"
     pagecolor="#ffffff"
     bordercolor="#666666"
     borderopacity="1.0"
     inkscape:pageopacity="0.0"
     inkscape:pageshadow="2"
     inkscape:zoom="8.855205"
     inkscape:cx="37.623716"
     inkscape:cy="-1.6549102"
     inkscape:document-units="px"
     inkscape:current-layer="g4385"
     showgrid="false"
     units="px"
     inkscape:window-width="1920"
     inkscape:window-height="1028"
     inkscape:window-x="-8"
     inkscape:window-y="-8"
     inkscape:window-maximized="1"
     objecttolerance="10"
     guidetolerance="9"
     showguides="true"
     inkscape:guide-bbox="true"
     inkscape:lockguides="true" />
  <metadata
     id="metadata7">
    <rdf:RDF>
      <cc:Work
         rdf:about="">
        <dc:format>image/svg+xml</dc:format>
        <dc:type
           rdf:resource="http://purl.org/dc/dcmitype/StillImage" />
        <dc:title />
        <dc:creator>
          <cc:Agent>
            <dc:title>Jorge Rosa</dc:title>
          </cc:Agent>
        </dc:creator>
        <dc:description>Email: jorge.bigarte@gmail.com
Site:https://sites.google.com/site/jorgerosaportfolio</dc:description>
      </cc:Work>
    </rdf:RDF>
  </metadata>
  <g
     inkscape:label="Layer 1"
     inkscape:groupmode="layer"
     id="layer1"
     transform="translate(0,-1032.3622)">
    <g
       id="g4385">
      <path
         style="opacity:1;fill:url(#radialGradient4196-1);fill-opacity:1;stroke:none;stroke-width:0.50199997;stroke-linecap:round;stroke-linejoin:round;stroke-miterlimit:4;stroke-dasharray:none;stroke-dashoffset:0;stroke-opacity:1"
         d="m 100,1032.3622 0,20 -100.000000016249998,0 0,-20 z"
         id="rect4183-9"
         inkscape:connector-curvature="0" />
      <g
         id="text6116-4-3-2"
         style="font-style:normal;font-weight:normal;font-size:12.57457638px;line-height:125%;font-family:sans-serif;letter-spacing:0px;word-spacing:0px;opacity:0.12;fill:#ff00ff;fill-opacity:1;stroke:none;stroke-width:1px;stroke-linecap:butt;stroke-linejoin:miter;stroke-opacity:1"
         transform="matrix(0.82645989,0,0,1.0477592,-93.121225,118.47592)">
        <path
           inkscape:connector-curvature="0"
           id="path4312"
           style="font-style:normal;font-variant:normal;font-weight:normal;font-stretch:normal;font-family:Digital;-inkscape-font-specification:Digital;fill:#ff00ff;fill-opacity:1"
           d="m 114.39971,878.49613 0.54032,-0.54031 h 4.15673 l 0.54031,0.54031 -0.54031,0.54645 h -4.15673 z m 0,3.7515 0.54032,-0.53418 h 4.15673 l 0.54031,0.53418 -0.54031,0.54645 h -4.15673 z m 0,3.75763 0.54032,-0.54031 h 4.15673 l 0.54031,0.54031 -0.54031,0.54032 h -4.15673 z m 5.23736,-3.75763 0.54032,0.54645 v 2.67087 l -0.54032,0.54031 -0.54031,-0.54031 v -2.67087 z m 0,-3.7515 0.54032,0.54645 v 2.67087 l -0.54032,0.53418 -0.54031,-0.53418 v -2.67087 z m -5.23736,0 -0.54031,0.54645 v 2.67087 l 0.54031,0.53418 0.54032,-0.53418 v -2.67087 z m 0,7.50913 -0.54031,-0.54031 v -2.67087 l 0.54031,-0.54645 0.54032,0.54645 v 2.67087 z" />
        <path
           inkscape:connector-curvature="0"
           id="path4314"
           style="font-style:normal;font-variant:normal;font-weight:normal;font-stretch:normal;font-family:Digital;-inkscape-font-specification:Digital;fill:#ff00ff;fill-opacity:1"
           d="m 123.02502,878.49613 0.54031,-0.54031 h 4.15673 l 0.54032,0.54031 -0.54032,0.54645 h -4.15673 z m 0,3.7515 0.54031,-0.53418 h 4.15673 l 0.54032,0.53418 -0.54032,0.54645 h -4.15673 z m 0,3.75763 0.54031,-0.54031 h 4.15673 l 0.54032,0.54031 -0.54032,0.54032 h -4.15673 z m 5.23736,-3.75763 0.54031,0.54645 v 2.67087 l -0.54031,0.54031 -0.54032,-0.54031 v -2.67087 z m 0,-3.7515 0.54031,0.54645 v 2.67087 l -0.54031,0.53418 -0.54032,-0.53418 v -2.67087 z m -5.23736,0 -0.54032,0.54645 v 2.67087 l 0.54032,0.53418 0.54031,-0.53418 v -2.67087 z m 0,7.50913 -0.54032,-0.54031 v -2.67087 l 0.54032,-0.54645 0.54031,0.54645 v 2.67087 z" />
        <path
           inkscape:connector-curvature="0"
           id="path4316"
           style="font-style:normal;font-variant:normal;font-weight:normal;font-stretch:normal;font-family:Digital;-inkscape-font-specification:Digital;fill:#ff00ff;fill-opacity:1"
           d="m 131.65031,878.49613 0.54031,-0.54031 h 4.15674 l 0.54031,0.54031 -0.54031,0.54645 h -4.15674 z m 0,3.7515 0.54031,-0.53418 h 4.15674 l 0.54031,0.53418 -0.54031,0.54645 h -4.15674 z m 0,3.75763 0.54031,-0.54031 h 4.15674 l 0.54031,0.54031 -0.54031,0.54032 h -4.15674 z m 5.23736,-3.75763 0.54031,0.54645 v 2.67087 l -0.54031,0.54031 -0.54031,-0.54031 v -2.67087 z m 0,-3.7515 0.54031,0.54645 v 2.67087 l -0.54031,0.53418 -0.54031,-0.53418 v -2.67087 z m -5.23736,0 -0.54031,0.54645 v 2.67087 l 0.54031,0.53418 0.54031,-0.53418 v -2.67087 z m 0,7.50913 -0.54031,-0.54031 v -2.67087 l 0.54031,-0.54645 0.54031,0.54645 v 2.67087 z" />
        <path
           inkscape:connector-curvature="0"
           id="path4318"
           style="font-style:normal;font-variant:normal;font-weight:normal;font-stretch:normal;font-family:Digital;-inkscape-font-specification:Digital;fill:#ff00ff;fill-opacity:1"
           d="m 140.2756,878.49613 0.54032,-0.54031 h 4.15673 l 0.54031,0.54031 -0.54031,0.54645 h -4.15673 z m 0,3.7515 0.54032,-0.53418 h 4.15673 l 0.54031,0.53418 -0.54031,0.54645 h -4.15673 z m 0,3.75763 0.54032,-0.54031 h 4.15673 l 0.54031,0.54031 -0.54031,0.54032 h -4.15673 z m 5.23736,-3.75763 0.54032,0.54645 v 2.67087 l -0.54032,0.54031 -0.54031,-0.54031 v -2.67087 z m 0,-3.7515 0.54032,0.54645 v 2.67087 l -0.54032,0.53418 -0.54031,-0.53418 v -2.67087 z m -5.23736,0 -0.54031,0.54645 v 2.67087 l 0.54031,0.53418 0.54032,-0.53418 v -2.67087 z m 0,7.50913 -0.54031,-0.54031 v -2.67087 l 0.54031,-0.54645 0.54032,0.54645 v 2.67087 z" />
        <path
           inkscape:connector-curvature="0"
           id="path4320"
           style="font-style:normal;font-variant:normal;font-weight:normal;font-stretch:normal;font-family:Digital;-inkscape-font-specification:Digital;fill:#ff00ff;fill-opacity:1"
           d="m 148.90089,878.49613 0.54032,-0.54031 h 4.15673 l 0.54031,0.54031 -0.54031,0.54645 h -4.15673 z m 0,3.7515 0.54032,-0.53418 h 4.15673 l 0.54031,0.53418 -0.54031,0.54645 h -4.15673 z m 0,3.75763 0.54032,-0.54031 h 4.15673 l 0.54031,0.54031 -0.54031,0.54032 h -4.15673 z m 5.23736,-3.75763 0.54032,0.54645 v 2.67087 l -0.54032,0.54031 -0.54031,-0.54031 v -2.67087 z m 0,-3.7515 0.54032,0.54645 v 2.67087 l -0.54032,0.53418 -0.54031,-0.53418 v -2.67087 z m -5.23736,0 -0.54031,0.54645 v 2.67087 l 0.54031,0.53418 0.54032,-0.53418 v -2.67087 z m 0,7.50913 -0.54031,-0.54031 v -2.67087 l 0.54031,-0.54645 0.54032,0.54645 v 2.67087 z" />
        <path
           inkscape:connector-curvature="0"
           id="path4322"
           style="font-style:normal;font-variant:normal;font-weight:normal;font-stretch:normal;font-family:Digital;-inkscape-font-specification:Digital;fill:#ff00ff;fill-opacity:1"
           d="m 157.52619,878.49613 0.54031,-0.54031 h 4.15674 l 0.54031,0.54031 -0.54031,0.54645 h -4.15674 z m 0,3.7515 0.54031,-0.53418 h 4.15674 l 0.54031,0.53418 -0.54031,0.54645 h -4.15674 z m 0,3.75763 0.54031,-0.54031 h 4.15674 l 0.54031,0.54031 -0.54031,0.54032 h -4.15674 z m 5.23736,-3.75763 0.54031,0.54645 v 2.67087 l -0.54031,0.54031 -0.54031,-0.54031 v -2.67087 z m 0,-3.7515 0.54031,0.54645 v 2.67087 l -0.54031,0.53418 -0.54031,-0.53418 v -2.67087 z m -5.23736,0 -0.54031,0.54645 v 2.67087 l 0.54031,0.53418 0.54031,-0.53418 v -2.67087 z m 0,7.50913 -0.54031,-0.54031 v -2.67087 l 0.54031,-0.54645 0.54031,0.54645 v 2.67087 z" />
        <path
           inkscape:connector-curvature="0"
           id="path4324"
           style="font-style:normal;font-variant:normal;font-weight:normal;font-stretch:normal;font-family:Digital;-inkscape-font-specification:Digital;fill:#ff00ff;fill-opacity:1"
           d="m 166.15148,878.49613 0.54031,-0.54031 h 4.15674 l 0.54031,0.54031 -0.54031,0.54645 h -4.15674 z m 0,3.7515 0.54031,-0.53418 h 4.15674 l 0.54031,0.53418 -0.54031,0.54645 h -4.15674 z m 0,3.75763 0.54031,-0.54031 h 4.15674 l 0.54031,0.54031 -0.54031,0.54032 h -4.15674 z m 5.23736,-3.75763 0.54031,0.54645 v 2.67087 l -0.54031,0.54031 -0.54031,-0.54031 v -2.67087 z m 0,-3.7515 0.54031,0.54645 v 2.67087 l -0.54031,0.53418 -0.54031,-0.53418 v -2.67087 z m -5.23736,0 -0.54031,0.54645 v 2.67087 l 0.54031,0.53418 0.54031,-0.53418 v -2.67087 z m 0,7.50913 -0.54031,-0.54031 v -2.67087 l 0.54031,-0.54645 0.54031,0.54645 v 2.67087 z" />
        <path
           inkscape:connector-curvature="0"
           id="path4330"
           style="font-style:normal;font-variant:normal;font-weight:normal;font-stretch:normal;font-family:Digital;-inkscape-font-specification:Digital;fill:#ff00ff;fill-opacity:1"
           d="m 174.77677,878.49613 0.54032,-0.54031 h 4.15673 l 0.54031,0.54031 -0.54031,0.54645 h -4.15673 z m 0,3.7515 0.54032,-0.53418 h 4.15673 l 0.54031,0.53418 -0.54031,0.54645 h -4.15673 z m 0,3.75763 0.54032,-0.54031 h 4.15673 l 0.54031,0.54031 -0.54031,0.54032 h -4.15673 z m 5.23736,-3.75763 0.54032,0.54645 v 2.67087 l -0.54032,0.54031 -0.54031,-0.54031 v -2.67087 z m 0,-3.7515 0.54032,0.54645 v 2.67087 l -0.54032,0.53418 -0.54031,-0.53418 v -2.67087 z m -5.23736,0 -0.54031,0.54645 v 2.67087 l 0.54031,0.53418 0.54032,-0.53418 v -2.67087 z m 0,7.50913 -0.54031,-0.54031 v -2.67087 l 0.54031,-0.54645 0.54032,0.54645 v 2.67087 z" />
        <path
           inkscape:connector-curvature="0"
           id="path4332"
           style="font-style:normal;font-variant:normal;font-weight:normal;font-stretch:normal;font-family:Digital;-inkscape-font-specification:Digital;fill:#ff00ff;fill-opacity:1"
           d="m 183.40207,878.49613 0.54032,-0.54031 h 4.15673 l 0.54031,0.54031 -0.54031,0.54645 h -4.15673 z m 0,3.7515 0.54032,-0.53418 h 4.15673 l 0.54031,0.53418 -0.54031,0.54645 h -4.15673 z m 0,3.75763 0.54032,-0.54031 h 4.15673 l 0.54031,0.54031 -0.54031,0.54032 h -4.15673 z m 5.23736,-3.75763 0.54032,0.54645 v 2.67087 l -0.54032,0.54031 -0.54031,-0.54031 v -2.67087 z m 0,-3.7515 0.54032,0.54645 v 2.67087 l -0.54032,0.53418 -0.54031,-0.53418 v -2.67087 z m -5.23736,0 -0.54031,0.54645 v 2.67087 l 0.54031,0.53418 0.54032,-0.53418 v -2.67087 z m 0,7.50913 -0.54031,-0.54031 v -2.67087 l 0.54031,-0.54645 0.54032,0.54645 v 2.67087 z" />
        <path
           inkscape:connector-curvature="0"
           id="path4334"
           style="font-style:normal;font-variant:normal;font-weight:normal;font-stretch:normal;font-family:Digital;-inkscape-font-specification:Digital;fill:#ff00ff;fill-opacity:1"
           d="m 192.02737,878.49613 0.54032,-0.54031 h 4.15673 l 0.54031,0.54031 -0.54031,0.54645 h -4.15673 z m 0,3.7515 0.54032,-0.53418 h 4.15673 l 0.54031,0.53418 -0.54031,0.54645 h -4.15673 z m 0,3.75763 0.54032,-0.54031 h 4.15673 l 0.54031,0.54031 -0.54031,0.54032 h -4.15673 z m 5.23736,-3.75763 0.54032,0.54645 v 2.67087 l -0.54032,0.54031 -0.54031,-0.54031 v -2.67087 z m 0,-3.7515 0.54032,0.54645 v 2.67087 l -0.54032,0.53418 -0.54031,-0.53418 v -2.67087 z m -5.23736,0 -0.54031,0.54645 v 2.67087 l 0.54031,0.53418 0.54032,-0.53418 v -2.67087 z m 0,7.50913 -0.54031,-0.54031 v -2.67087 l 0.54031,-0.54645 0.54032,0.54645 v 2.67087 z" />
        <path
           inkscape:connector-curvature="0"
           id="path4336"
           style="font-style:normal;font-variant:normal;font-weight:normal;font-stretch:normal;font-family:Digital;-inkscape-font-specification:Digital;fill:#ff00ff;fill-opacity:1"
           d="m 200.65268,878.49613 0.54031,-0.54031 h 4.15673 l 0.54032,0.54031 -0.54032,0.54645 h -4.15673 z m 0,3.7515 0.54031,-0.53418 h 4.15673 l 0.54032,0.53418 -0.54032,0.54645 h -4.15673 z m 0,3.75763 0.54031,-0.54031 h 4.15673 l 0.54032,0.54031 -0.54032,0.54032 h -4.15673 z m 5.23736,-3.75763 0.54031,0.54645 v 2.67087 l -0.54031,0.54031 -0.54032,-0.54031 v -2.67087 z m 0,-3.7515 0.54031,0.54645 v 2.67087 l -0.54031,0.53418 -0.54032,-0.53418 v -2.67087 z m -5.23736,0 -0.54032,0.54645 v 2.67087 l 0.54032,0.53418 0.54031,-0.53418 v -2.67087 z m 0,7.50913 -0.54032,-0.54031 v -2.67087 l 0.54032,-0.54645 0.54031,0.54645 v 2.67087 z" />
        <path
           inkscape:connector-curvature="0"
           id="path4338"
           style="font-style:normal;font-variant:normal;font-weight:normal;font-stretch:normal;font-family:Digital;-inkscape-font-specification:Digital;fill:#ff00ff;fill-opacity:1"
           d="m 209.27798,878.49613 0.54031,-0.54031 h 4.15674 l 0.54031,0.54031 -0.54031,0.54645 h -4.15674 z m 0,3.7515 0.54031,-0.53418 h 4.15674 l 0.54031,0.53418 -0.54031,0.54645 h -4.15674 z m 0,3.75763 0.54031,-0.54031 h 4.15674 l 0.54031,0.54031 -0.54031,0.54032 h -4.15674 z m 5.23736,-3.75763 0.54031,0.54645 v 2.67087 l -0.54031,0.54031 -0.54031,-0.54031 v -2.67087 z m 0,-3.7515 0.54031,0.54645 v 2.67087 l -0.54031,0.53418 -0.54031,-0.53418 v -2.67087 z m -5.23736,0 -0.54032,0.54645 v 2.67087 l 0.54032,0.53418 0.54031,-0.53418 v -2.67087 z m 0,7.50913 -0.54032,-0.54031 v -2.67087 l 0.54032,-0.54645 0.54031,0.54645 v 2.67087 z" />
        <path
           inkscape:connector-curvature="0"
           id="path4340"
           style="font-style:normal;font-variant:normal;font-weight:normal;font-stretch:normal;font-family:Digital;-inkscape-font-specification:Digital;fill:#ff00ff;fill-opacity:1"
           d="m 217.90326,878.49613 0.54032,-0.54031 h 4.15673 l 0.54031,0.54031 -0.54031,0.54645 h -4.15673 z m 0,3.7515 0.54032,-0.53418 h 4.15673 l 0.54031,0.53418 -0.54031,0.54645 h -4.15673 z m 0,3.75763 0.54032,-0.54031 h 4.15673 l 0.54031,0.54031 -0.54031,0.54032 h -4.15673 z m 5.23736,-3.75763 0.54032,0.54645 v 2.67087 l -0.54032,0.54031 -0.54031,-0.54031 v -2.67087 z m 0,-3.7515 0.54032,0.54645 v 2.67087 l -0.54032,0.53418 -0.54031,-0.53418 v -2.67087 z m -5.23736,0 -0.54031,0.54645 v 2.67087 l 0.54031,0.53418 0.54032,-0.53418 v -2.67087 z m 0,7.50913 -0.54031,-0.54031 v -2.67087 l 0.54031,-0.54645 0.54032,0.54645 v 2.67087 z" />
        <path
           inkscape:connector-curvature="0"
           id="path4342"
           style="font-style:normal;font-variant:normal;font-weight:normal;font-stretch:normal;font-family:Digital;-inkscape-font-specification:Digital;fill:#ff00ff;fill-opacity:1"
           d="m 226.52856,878.49613 0.54032,-0.54031 h 4.15673 l 0.54032,0.54031 -0.54032,0.54645 h -4.15673 z m 0,3.7515 0.54032,-0.53418 h 4.15673 l 0.54032,0.53418 -0.54032,0.54645 h -4.15673 z m 0,3.75763 0.54032,-0.54031 h 4.15673 l 0.54032,0.54031 -0.54032,0.54032 h -4.15673 z m 5.23737,-3.75763 0.54031,0.54645 v 2.67087 l -0.54031,0.54031 -0.54032,-0.54031 v -2.67087 z m 0,-3.7515 0.54031,0.54645 v 2.67087 l -0.54031,0.53418 -0.54032,-0.53418 v -2.67087 z m -5.23737,0 -0.54031,0.54645 v 2.67087 l 0.54031,0.53418 0.54032,-0.53418 v -2.67087 z m 0,7.50913 -0.54031,-0.54031 v -2.67087 l 0.54031,-0.54645 0.54032,0.54645 v 2.67087 z" />
      </g>
    </g>
  </g>
</svg>
