<?xml version="1.0" encoding="UTF-8" standalone="no"?>
<!-- Created with Inkscape (http://www.inkscape.org/) -->

<svg
   xmlns:dc="http://purl.org/dc/elements/1.1/"
   xmlns:cc="http://creativecommons.org/ns#"
   xmlns:rdf="http://www.w3.org/1999/02/22-rdf-syntax-ns#"
   xmlns:svg="http://www.w3.org/2000/svg"
   xmlns="http://www.w3.org/2000/svg"
   xmlns:xlink="http://www.w3.org/1999/xlink"
   xmlns:sodipodi="http://sodipodi.sourceforge.net/DTD/sodipodi-0.dtd"
   xmlns:inkscape="http://www.inkscape.org/namespaces/inkscape"
   width="300"
   height="110"
   viewBox="0 0 300 110"
   id="svg2"
   version="1.1"
   inkscape:version="0.92.1 r15371"
   sodipodi:docname="background_sampler.svg">
  <defs
     id="defs4">
    <linearGradient
       id="linearGradient4649"
       inkscape:collect="always">
      <stop
         id="stop4645"
         offset="0"
         style="stop-color:#000000;stop-opacity:1" />
      <stop
         id="stop4647"
         offset="1"
         style="stop-color:#141414;stop-opacity:1" />
    </linearGradient>
    <linearGradient
       inkscape:collect="always"
       id="linearGradient4310">
      <stop
         style="stop-color:#232323;stop-opacity:1"
         offset="0"
         id="stop4312" />
      <stop
         style="stop-color:#000000;stop-opacity:1"
         offset="1"
         id="stop4314" />
    </linearGradient>
    <linearGradient
       inkscape:collect="always"
       id="linearGradient4304">
      <stop
         style="stop-color:#232323;stop-opacity:1"
         offset="0"
         id="stop4306" />
      <stop
         style="stop-color:#000000;stop-opacity:1"
         offset="1"
         id="stop4308" />
    </linearGradient>
    <linearGradient
       id="linearGradient4277"
       inkscape:collect="always">
      <stop
         id="stop4279"
         offset="0"
         style="stop-color:#141414;stop-opacity:1" />
      <stop
         id="stop4281"
         offset="1"
         style="stop-color:#000000;stop-opacity:1" />
    </linearGradient>
    <linearGradient
       inkscape:collect="always"
       id="linearGradient4281">
      <stop
         style="stop-color:#666666;stop-opacity:1"
         offset="0"
         id="stop4283" />
      <stop
         style="stop-color:#000000;stop-opacity:1"
         offset="1"
         id="stop4285" />
    </linearGradient>
    <linearGradient
       inkscape:collect="always"
       id="linearGradient4193">
      <stop
         style="stop-color:#1e1e1e;stop-opacity:1"
         offset="0"
         id="stop4195" />
      <stop
         style="stop-color:#000000;stop-opacity:1"
         offset="1"
         id="stop4197" />
    </linearGradient>
    <radialGradient
       inkscape:collect="always"
       xlink:href="#linearGradient4277"
       id="radialGradient4199"
       cx="50.161213"
       cy="1028.9991"
       fx="50.161213"
       fy="1028.9991"
       r="50.506916"
       gradientTransform="matrix(6.1061975,0,0,0.71355302,-157.57356,267.25779)"
       gradientUnits="userSpaceOnUse" />
    <linearGradient
       inkscape:collect="always"
       xlink:href="#linearGradient5254"
       id="linearGradient5268"
       x1="768.05304"
       y1="119.63088"
       x2="768.05304"
       y2="129.27724"
       gradientUnits="userSpaceOnUse"
       gradientTransform="matrix(-2.6226758,0,0,-2.1339378,2125.5989,1261.859)" />
    <linearGradient
       inkscape:collect="always"
       id="linearGradient5254">
      <stop
         style="stop-color:#1e1e1e;stop-opacity:1"
         offset="0"
         id="stop5256" />
      <stop
         style="stop-color:#000000;stop-opacity:1"
         offset="1"
         id="stop5258" />
    </linearGradient>
    <inkscape:perspective
       id="perspective2840"
       inkscape:persp3d-origin="372.04724 : 350.78739 : 1"
       inkscape:vp_z="744.09448 : 526.18109 : 1"
       inkscape:vp_y="0 : 1000 : 0"
       inkscape:vp_x="0 : 526.18109 : 1"
       sodipodi:type="inkscape:persp3d" />
    <inkscape:perspective
       id="perspective2840-1"
       inkscape:persp3d-origin="372.04724 : 350.78739 : 1"
       inkscape:vp_z="744.09448 : 526.18109 : 1"
       inkscape:vp_y="0 : 1000 : 0"
       inkscape:vp_x="0 : 526.18109 : 1"
       sodipodi:type="inkscape:persp3d" />
    <radialGradient
       inkscape:collect="always"
       xlink:href="#linearGradient6110"
       id="radialGradient4196-5-9-8-9-7-3-0-5-4-1-4"
       cx="767.26953"
       cy="272.2692"
       fx="767.26953"
       fy="272.2692"
       r="32.034878"
       gradientTransform="matrix(2.9355393,1.1941844e-5,-1.1903639e-6,0.17946964,-2143.2517,906.30904)"
       gradientUnits="userSpaceOnUse" />
    <linearGradient
       inkscape:collect="always"
       id="linearGradient6110">
      <stop
         style="stop-color:#05010a;stop-opacity:1"
         offset="0"
         id="stop6112" />
      <stop
         style="stop-color:#000000;stop-opacity:1"
         offset="1"
         id="stop6114" />
    </linearGradient>
    <linearGradient
       inkscape:collect="always"
       xlink:href="#linearGradient4193"
       id="linearGradient5268-9"
       x1="768.05304"
       y1="180.46179"
       x2="768.05304"
       y2="122.6886"
       gradientUnits="userSpaceOnUse"
       gradientTransform="matrix(-5.4359841,0,0,-3.7232462,4308.5871,1458.8504)" />
    <radialGradient
       inkscape:collect="always"
       xlink:href="#linearGradient4281"
       id="radialGradient4165"
       cx="59"
       cy="993.13348"
       fx="59"
       fy="993.13348"
       r="59.147999"
       gradientUnits="userSpaceOnUse"
       gradientTransform="matrix(0.04459792,-5.5220729e-8,0,1.3541612,-0.51899977,-347.55667)" />
    <linearGradient
       id="linearGradient4677"
       inkscape:collect="always">
      <stop
         id="stop4679"
         offset="0"
         style="stop-color:#666666;stop-opacity:1" />
      <stop
         id="stop4681"
         offset="1"
         style="stop-color:#000000;stop-opacity:1" />
    </linearGradient>
    <radialGradient
       inkscape:collect="always"
       xlink:href="#linearGradient4677"
       id="radialGradient4165-8"
       cx="59"
       cy="993.13348"
       fx="59"
       fy="993.13348"
       r="59.147999"
       gradientUnits="userSpaceOnUse"
       gradientTransform="matrix(0.04459785,-5.5425991e-8,0,1.3591947,292.60702,-352.62977)" />
    <pattern
       y="0"
       x="0"
       height="6"
       width="6"
       patternUnits="userSpaceOnUse"
       id="EMFhbasepattern" />
    <pattern
       y="0"
       x="0"
       height="6"
       width="6"
       patternUnits="userSpaceOnUse"
       id="EMFhbasepattern-2" />
    <radialGradient
       inkscape:collect="always"
       xlink:href="#linearGradient4310"
       id="radialGradient4199-9"
       cx="50.161213"
       cy="1028.9991"
       fx="50.161213"
       fy="1028.9991"
       r="50.506916"
       gradientTransform="matrix(6.0447054,0,0,0.01669228,-153.94999,1034.2628)"
       gradientUnits="userSpaceOnUse" />
    <radialGradient
       inkscape:collect="always"
       xlink:href="#linearGradient4304"
       id="radialGradient4199-9-4"
       cx="50.161213"
       cy="1028.9991"
       fx="50.161213"
       fy="1028.9991"
       r="50.506916"
       gradientTransform="matrix(6.0405753,0,0,0.01669231,-154.29325,926.26272)"
       gradientUnits="userSpaceOnUse" />
    <radialGradient
       inkscape:collect="always"
       xlink:href="#linearGradient4649"
       id="radialGradient4643"
       cx="281.2681"
       cy="997.27905"
       fx="281.2681"
       fy="997.27905"
       r="13.81111"
       gradientTransform="matrix(4.7514971,2.7293646e-8,-5.7679923e-6,14.372029,-1055.7648,-13335.644)"
       gradientUnits="userSpaceOnUse" />
  </defs>
  <sodipodi:namedview
     id="base"
     pagecolor="#ffffff"
     bordercolor="#666666"
     borderopacity="1.0"
     inkscape:pageopacity="0.0"
     inkscape:pageshadow="2"
     inkscape:zoom="2.8269047"
     inkscape:cx="55.927403"
     inkscape:cy="44.665837"
     inkscape:document-units="px"
     inkscape:current-layer="layer1"
     showgrid="false"
     units="px"
     inkscape:window-width="1662"
     inkscape:window-height="1012"
     inkscape:window-x="-1"
     inkscape:window-y="0"
     inkscape:window-maximized="0"
     objecttolerance="10"
     guidetolerance="9"
     showguides="false"
     inkscape:guide-bbox="true" />
  <metadata
     id="metadata7">
    <rdf:RDF>
      <cc:Work
         rdf:about="">
        <dc:format>image/svg+xml</dc:format>
        <dc:type
           rdf:resource="http://purl.org/dc/dcmitype/StillImage" />
        <dc:title />
        <dc:creator>
          <cc:Agent>
            <dc:title>Jorge Rosa</dc:title>
          </cc:Agent>
        </dc:creator>
        <dc:description>Email: jorge.bigarte@gmail.com
Site:https://sites.google.com/site/jorgerosaportfolio</dc:description>
      </cc:Work>
    </rdf:RDF>
  </metadata>
  <g
     inkscape:label="Layer 1"
     inkscape:groupmode="layer"
     id="layer1"
     transform="translate(0,-942.3622)">
    <text
       xml:space="preserve"
       style="font-style:normal;font-weight:normal;line-height:0%;font-family:sans-serif;letter-spacing:0px;word-spacing:0px;opacity:0.1;fill:#ececec;fill-opacity:1;stroke:none;stroke-width:1px;stroke-linecap:butt;stroke-linejoin:miter;stroke-opacity:1"
       x="-64.373627"
       y="823.29761"
       id="text6116-5"
       transform="scale(1.0112873,0.98883868)"><tspan
         sodipodi:role="line"
         id="tspan6118-8"
         x="-64.373627"
         y="823.29761"
         style="font-style:normal;font-variant:normal;font-weight:normal;font-stretch:normal;font-size:7.33073282px;line-height:1.25;font-family:Digital;-inkscape-font-specification:Digital;fill:#ececec">8888888888888888888888888888888888888888888888888888888888888888888888888</tspan></text>
    <path
       style="opacity:1;fill:url(#radialGradient4199);fill-opacity:1;stroke:none;stroke-width:1.45610845;stroke-linecap:round;stroke-linejoin:round;stroke-miterlimit:4;stroke-dasharray:none;stroke-opacity:1"
       d="M 0.56552047,942.04898 H 294.75336 V 1052.4673 H 0.56552047 Z"
       id="rect4183"
       inkscape:connector-curvature="0" />
    <path
       style="opacity:1;fill:url(#linearGradient5268-9);fill-opacity:1;stroke:none;stroke-width:0.36646488;stroke-linecap:round;stroke-linejoin:round;stroke-miterlimit:4;stroke-dasharray:none;stroke-dashoffset:0;stroke-opacity:1"
       d="M 266.11008,1004.9634 H 2.457 v -62.058 h 263.65308 z"
       id="rect4183-39-2"
       inkscape:connector-curvature="0" />
    <path
       style="opacity:1;fill:url(#radialGradient4643);fill-opacity:1;stroke:#0f0f0f;stroke-width:1;stroke-linecap:round;stroke-linejoin:round;stroke-miterlimit:4;stroke-dasharray:none;stroke-dashoffset:0;stroke-opacity:1"
       d="M 295.84804,1052.1959 H 265.5 V 942.3622 h 30.34804 z"
       id="rect4183-39-2-0"
       inkscape:connector-curvature="0" />
    <g
       id="g5120"
       style="opacity:0.15;stroke:none"
       transform="matrix(0.98221784,0,0,0.96494152,-1.4810596,30.766552)">
      <path
         inkscape:connector-curvature="0"
         id="path5581-2-0-4"
         d="M 2.6052798,942.19686 H 313.65119"
         style="fill:none;fill-rule:evenodd;stroke:none;stroke-width:0.81178302px;stroke-linecap:butt;stroke-linejoin:miter;stroke-opacity:1" />
      <path
         inkscape:connector-curvature="0"
         id="path5581-0-0-8-2"
         d="M 2.6052798,945.07995 H 313.65119"
         style="fill:none;fill-rule:evenodd;stroke:none;stroke-width:0.81178302px;stroke-linecap:butt;stroke-linejoin:miter;stroke-opacity:1" />
      <path
         inkscape:connector-curvature="0"
         id="path5581-9-7-1-9"
         d="M 2.6052798,947.96299 H 313.65119"
         style="fill:none;fill-rule:evenodd;stroke:none;stroke-width:0.81178302px;stroke-linecap:butt;stroke-linejoin:miter;stroke-opacity:1" />
      <path
         inkscape:connector-curvature="0"
         id="path5581-1-4-5-4"
         d="M 2.6052798,950.8461 H 313.65119"
         style="fill:none;fill-rule:evenodd;stroke:none;stroke-width:0.81178302px;stroke-linecap:butt;stroke-linejoin:miter;stroke-opacity:1" />
      <path
         inkscape:connector-curvature="0"
         id="path5581-8-4-5-7"
         d="M 2.6052798,953.72912 H 313.65119"
         style="fill:none;fill-rule:evenodd;stroke:none;stroke-width:0.81178302px;stroke-linecap:butt;stroke-linejoin:miter;stroke-opacity:1" />
      <path
         inkscape:connector-curvature="0"
         id="path5581-01-40-1-3"
         d="M 2.6052798,956.61217 H 313.65119"
         style="fill:none;fill-rule:evenodd;stroke:none;stroke-width:0.81178302px;stroke-linecap:butt;stroke-linejoin:miter;stroke-opacity:1" />
      <path
         inkscape:connector-curvature="0"
         id="path5581-3-01-6-9"
         d="M 2.6052798,959.4952 H 313.65119"
         style="fill:none;fill-rule:evenodd;stroke:none;stroke-width:0.81178302px;stroke-linecap:butt;stroke-linejoin:miter;stroke-opacity:1" />
      <path
         inkscape:connector-curvature="0"
         id="path5581-82-36-5-3"
         d="M 2.6052798,962.37824 H 313.65119"
         style="fill:none;fill-rule:evenodd;stroke:none;stroke-width:0.81178302px;stroke-linecap:butt;stroke-linejoin:miter;stroke-opacity:1" />
      <path
         inkscape:connector-curvature="0"
         id="path5581-82-9-33-4-9"
         d="M 2.6052798,965.26131 H 313.65119"
         style="fill:none;fill-rule:evenodd;stroke:none;stroke-width:0.81178302px;stroke-linecap:butt;stroke-linejoin:miter;stroke-opacity:1" />
      <path
         inkscape:connector-curvature="0"
         id="path5581-82-3-0-0-5"
         d="M 2.6052798,968.14434 H 313.65119"
         style="fill:none;fill-rule:evenodd;stroke:none;stroke-width:0.81178302px;stroke-linecap:butt;stroke-linejoin:miter;stroke-opacity:1" />
      <path
         inkscape:connector-curvature="0"
         id="path5581-82-0-6-3-1"
         d="M 2.6052374,971.02734 H 313.65119"
         style="fill:none;fill-rule:evenodd;stroke:none;stroke-width:0.81178302px;stroke-linecap:butt;stroke-linejoin:miter;stroke-opacity:1" />
      <path
         inkscape:connector-curvature="0"
         id="path5581-82-1-1-3-3"
         d="M 2.6052798,973.9104 H 313.65119"
         style="fill:none;fill-rule:evenodd;stroke:none;stroke-width:0.81178302px;stroke-linecap:butt;stroke-linejoin:miter;stroke-opacity:1" />
      <path
         inkscape:connector-curvature="0"
         id="path5581-82-5-6-6-0"
         d="M 2.6052798,976.79353 H 313.65119"
         style="fill:none;fill-rule:evenodd;stroke:none;stroke-width:0.81178302px;stroke-linecap:butt;stroke-linejoin:miter;stroke-opacity:1" />
      <path
         inkscape:connector-curvature="0"
         id="path5581-82-7-9-3-7"
         d="M 2.6052374,979.67656 H 313.65119"
         style="fill:none;fill-rule:evenodd;stroke:none;stroke-width:0.81178302px;stroke-linecap:butt;stroke-linejoin:miter;stroke-opacity:1" />
      <path
         inkscape:connector-curvature="0"
         id="path5581-82-4-3-6-5"
         d="M 2.6052374,982.55962 H 313.65119"
         style="fill:none;fill-rule:evenodd;stroke:none;stroke-width:0.81178302px;stroke-linecap:butt;stroke-linejoin:miter;stroke-opacity:1" />
      <path
         inkscape:connector-curvature="0"
         id="path5581-82-44-44-3-0"
         d="M 2.6052798,985.44262 H 313.65119"
         style="fill:none;fill-rule:evenodd;stroke:none;stroke-width:0.81178302px;stroke-linecap:butt;stroke-linejoin:miter;stroke-opacity:1" />
      <path
         inkscape:connector-curvature="0"
         id="path5581-82-99-5-8-4"
         d="M 2.6052374,988.32573 H 313.65119"
         style="fill:none;fill-rule:evenodd;stroke:none;stroke-width:0.81178302px;stroke-linecap:butt;stroke-linejoin:miter;stroke-opacity:1" />
      <path
         inkscape:connector-curvature="0"
         id="path5581-82-74-20-2-3"
         d="M 2.6052798,991.20872 H 313.65119"
         style="fill:none;fill-rule:evenodd;stroke:none;stroke-width:0.81178302px;stroke-linecap:butt;stroke-linejoin:miter;stroke-opacity:1" />
      <path
         inkscape:connector-curvature="0"
         id="path5581-82-38-6-3-4"
         d="M 2.6052798,994.09183 H 313.65119"
         style="fill:none;fill-rule:evenodd;stroke:none;stroke-width:0.81178302px;stroke-linecap:butt;stroke-linejoin:miter;stroke-opacity:1" />
      <path
         inkscape:connector-curvature="0"
         id="path5581-2-0-4-2"
         d="M 2.6005398,996.51187 H 313.64645"
         style="fill:none;fill-rule:evenodd;stroke:none;stroke-width:0.81178302px;stroke-linecap:butt;stroke-linejoin:miter;stroke-opacity:1" />
      <path
         inkscape:connector-curvature="0"
         id="path5581-0-0-8-2-7"
         d="M 2.6005398,999.39496 H 313.64645"
         style="fill:none;fill-rule:evenodd;stroke:none;stroke-width:0.81178302px;stroke-linecap:butt;stroke-linejoin:miter;stroke-opacity:1" />
      <path
         inkscape:connector-curvature="0"
         id="path5581-9-7-1-9-7"
         d="M 2.6005398,1002.278 H 313.64645"
         style="fill:none;fill-rule:evenodd;stroke:none;stroke-width:0.81178302px;stroke-linecap:butt;stroke-linejoin:miter;stroke-opacity:1" />
      <path
         inkscape:connector-curvature="0"
         id="path5581-1-4-5-4-0"
         d="M 2.6005398,1005.1611 H 313.64645"
         style="fill:none;fill-rule:evenodd;stroke:none;stroke-width:0.81178302px;stroke-linecap:butt;stroke-linejoin:miter;stroke-opacity:1" />
      <path
         inkscape:connector-curvature="0"
         id="path5581-8-4-5-7-7"
         d="M 2.6005398,1008.0441 H 313.64645"
         style="fill:none;fill-rule:evenodd;stroke:none;stroke-width:0.81178302px;stroke-linecap:butt;stroke-linejoin:miter;stroke-opacity:1" />
      <path
         inkscape:connector-curvature="0"
         id="path5581-01-40-1-3-0"
         d="M 2.6005398,1010.9272 H 313.64645"
         style="fill:none;fill-rule:evenodd;stroke:none;stroke-width:0.81178302px;stroke-linecap:butt;stroke-linejoin:miter;stroke-opacity:1" />
      <path
         inkscape:connector-curvature="0"
         id="path5581-3-01-6-9-1"
         d="M 2.6005398,1013.8102 H 313.64645"
         style="fill:none;fill-rule:evenodd;stroke:none;stroke-width:0.81178302px;stroke-linecap:butt;stroke-linejoin:miter;stroke-opacity:1" />
      <path
         inkscape:connector-curvature="0"
         id="path5581-82-36-5-3-5"
         d="M 2.6005398,1016.6933 H 313.64645"
         style="fill:none;fill-rule:evenodd;stroke:none;stroke-width:0.81178302px;stroke-linecap:butt;stroke-linejoin:miter;stroke-opacity:1" />
      <path
         inkscape:connector-curvature="0"
         id="path5581-82-9-33-4-9-5"
         d="M 2.6005398,1019.5763 H 313.64645"
         style="fill:none;fill-rule:evenodd;stroke:none;stroke-width:0.81178302px;stroke-linecap:butt;stroke-linejoin:miter;stroke-opacity:1" />
      <path
         inkscape:connector-curvature="0"
         id="path5581-82-3-0-0-5-5"
         d="M 2.6005398,1022.4593 H 313.64645"
         style="fill:none;fill-rule:evenodd;stroke:none;stroke-width:0.81178302px;stroke-linecap:butt;stroke-linejoin:miter;stroke-opacity:1" />
      <path
         inkscape:connector-curvature="0"
         id="path5581-82-0-6-3-1-0"
         d="M 2.6004974,1025.3424 H 313.64645"
         style="fill:none;fill-rule:evenodd;stroke:none;stroke-width:0.81178302px;stroke-linecap:butt;stroke-linejoin:miter;stroke-opacity:1" />
      <path
         inkscape:connector-curvature="0"
         id="path5581-82-1-1-3-3-2"
         d="M 2.6005398,1028.2254 H 313.64645"
         style="fill:none;fill-rule:evenodd;stroke:none;stroke-width:0.81178302px;stroke-linecap:butt;stroke-linejoin:miter;stroke-opacity:1" />
      <path
         inkscape:connector-curvature="0"
         id="path5581-82-5-6-6-0-0"
         d="M 2.6005398,1031.1085 H 313.64645"
         style="fill:none;fill-rule:evenodd;stroke:none;stroke-width:0.81178302px;stroke-linecap:butt;stroke-linejoin:miter;stroke-opacity:1" />
      <path
         inkscape:connector-curvature="0"
         id="path5581-82-7-9-3-7-3"
         d="M 2.6004974,1033.9916 H 313.64645"
         style="fill:none;fill-rule:evenodd;stroke:none;stroke-width:0.81178302px;stroke-linecap:butt;stroke-linejoin:miter;stroke-opacity:1" />
      <path
         inkscape:connector-curvature="0"
         id="path5581-82-4-3-6-5-1"
         d="M 2.6004974,1036.8746 H 313.64645"
         style="fill:none;fill-rule:evenodd;stroke:none;stroke-width:0.81178302px;stroke-linecap:butt;stroke-linejoin:miter;stroke-opacity:1" />
      <path
         inkscape:connector-curvature="0"
         id="path5581-82-44-44-3-0-7"
         d="M 2.6005398,1039.7576 H 313.64645"
         style="fill:none;fill-rule:evenodd;stroke:none;stroke-width:0.81178302px;stroke-linecap:butt;stroke-linejoin:miter;stroke-opacity:1" />
      <path
         inkscape:connector-curvature="0"
         id="path5581-82-99-5-8-4-3"
         d="M 2.6004974,1042.6407 H 313.64645"
         style="fill:none;fill-rule:evenodd;stroke:none;stroke-width:0.81178302px;stroke-linecap:butt;stroke-linejoin:miter;stroke-opacity:1" />
      <path
         inkscape:connector-curvature="0"
         id="path5581-82-74-20-2-3-1"
         d="M 2.6005398,1045.5237 H 313.64645"
         style="fill:none;fill-rule:evenodd;stroke:none;stroke-width:0.81178302px;stroke-linecap:butt;stroke-linejoin:miter;stroke-opacity:1" />
      <path
         inkscape:connector-curvature="0"
         id="path5581-82-38-6-3-4-6"
         d="M 2.6005398,1048.4068 H 313.64645"
         style="fill:none;fill-rule:evenodd;stroke:none;stroke-width:0.81178302px;stroke-linecap:butt;stroke-linejoin:miter;stroke-opacity:1" />
    </g>
    <path
       style="opacity:1;fill:url(#linearGradient5268);fill-opacity:1;stroke:#1a1a1a;stroke-width:1;stroke-linecap:round;stroke-linejoin:round;stroke-miterlimit:4;stroke-dasharray:none;stroke-dashoffset:0;stroke-opacity:1"
       d="M 175.24257,1001.7181 H 48.039007 V 966.14999 H 175.24257 Z"
       id="rect4183-39"
       inkscape:connector-curvature="0" />
    <path
       style="opacity:1;fill:url(#radialGradient4196-5-9-8-9-7-3-0-5-4-1-4);fill-opacity:1;stroke:#2d2d2d;stroke-width:0.69999999;stroke-linecap:round;stroke-linejoin:round;stroke-miterlimit:4;stroke-dasharray:none;stroke-dashoffset:0;stroke-opacity:1"
       d="M 8.6562202,947.17174 H 215.6703 v 16.24454 H 8.6562202 Z"
       id="rect4183-1-5-8-7-6-9-9-0-3-8-5"
       inkscape:connector-curvature="0" />
    <g
       transform="matrix(0.93083699,0,0,0.96952651,0.12545107,96.46349)"
       style="font-style:normal;font-weight:normal;font-size:12.57457638px;line-height:125%;font-family:sans-serif;letter-spacing:0px;word-spacing:0px;opacity:0.07999998;fill:#ff00ff;fill-opacity:1;stroke:none;stroke-width:1px;stroke-linecap:butt;stroke-linejoin:miter;stroke-opacity:1"
       id="text6116-4-3-2">
      <path
         d="m 12.186078,882.07012 0.540314,-0.54031 h 4.156733 l 0.540314,0.54031 -0.540314,0.54645 h -4.156733 z m 0,3.7515 0.540314,-0.53418 h 4.156733 l 0.540314,0.53418 -0.540314,0.54645 h -4.156733 z m 0,3.75763 0.540314,-0.54031 h 4.156733 l 0.540314,0.54031 -0.540314,0.54032 h -4.156733 z m 5.237361,-3.75763 0.540313,0.54645 v 2.67087 l -0.540313,0.54031 -0.540314,-0.54031 v -2.67087 z m 0,-3.7515 0.540313,0.54645 v 2.67087 l -0.540313,0.53418 -0.540314,-0.53418 v -2.67087 z m -5.237361,0 -0.540313,0.54645 v 2.67087 l 0.540313,0.53418 0.540314,-0.53418 v -2.67087 z m 0,7.50913 -0.540313,-0.54031 v -2.67087 l 0.540313,-0.54645 0.540314,0.54645 v 2.67087 z"
         style="font-style:normal;font-variant:normal;font-weight:normal;font-stretch:normal;font-family:Digital;-inkscape-font-specification:Digital;fill:#ff00ff;fill-opacity:1"
         id="path4286"
         inkscape:connector-curvature="0" />
      <path
         d="m 19.725912,882.07012 0.540314,-0.54031 h 4.156733 l 0.540314,0.54031 -0.540314,0.54645 h -4.156733 z m 0,3.7515 0.540314,-0.53418 h 4.156733 l 0.540314,0.53418 -0.540314,0.54645 h -4.156733 z m 0,3.75763 0.540314,-0.54031 h 4.156733 l 0.540314,0.54031 -0.540314,0.54032 h -4.156733 z m 5.237361,-3.75763 0.540314,0.54645 v 2.67087 l -0.540314,0.54031 -0.540314,-0.54031 v -2.67087 z m 0,-3.7515 0.540314,0.54645 v 2.67087 l -0.540314,0.53418 -0.540314,-0.53418 v -2.67087 z m -5.237361,0 -0.540313,0.54645 v 2.67087 l 0.540313,0.53418 0.540314,-0.53418 v -2.67087 z m 0,7.50913 -0.540313,-0.54031 v -2.67087 l 0.540313,-0.54645 0.540314,0.54645 v 2.67087 z"
         style="font-style:normal;font-variant:normal;font-weight:normal;font-stretch:normal;font-family:Digital;-inkscape-font-specification:Digital;fill:#ff00ff;fill-opacity:1"
         id="path4288"
         inkscape:connector-curvature="0" />
      <path
         d="m 27.265747,882.07012 0.540313,-0.54031 h 4.156733 l 0.540314,0.54031 -0.540314,0.54645 H 27.80606 Z m 0,3.7515 0.540313,-0.53418 h 4.156733 l 0.540314,0.53418 -0.540314,0.54645 H 27.80606 Z m 0,3.75763 0.540313,-0.54031 h 4.156733 l 0.540314,0.54031 -0.540314,0.54032 H 27.80606 Z m 5.23736,-3.75763 0.540314,0.54645 v 2.67087 l -0.540314,0.54031 -0.540314,-0.54031 v -2.67087 z m 0,-3.7515 0.540314,0.54645 v 2.67087 l -0.540314,0.53418 -0.540314,-0.53418 v -2.67087 z m -5.23736,0 -0.540314,0.54645 v 2.67087 l 0.540314,0.53418 0.540313,-0.53418 v -2.67087 z m 0,7.50913 -0.540314,-0.54031 v -2.67087 l 0.540314,-0.54645 0.540313,0.54645 v 2.67087 z"
         style="font-style:normal;font-variant:normal;font-weight:normal;font-stretch:normal;font-family:Digital;-inkscape-font-specification:Digital;fill:#ff00ff;fill-opacity:1"
         id="path4290"
         inkscape:connector-curvature="0" />
      <path
         d="m 34.805581,882.07012 0.540314,-0.54031 h 4.156733 l 0.540314,0.54031 -0.540314,0.54645 h -4.156733 z m 0,3.7515 0.540314,-0.53418 h 4.156733 l 0.540314,0.53418 -0.540314,0.54645 h -4.156733 z m 0,3.75763 0.540314,-0.54031 h 4.156733 l 0.540314,0.54031 -0.540314,0.54032 h -4.156733 z m 5.237361,-3.75763 0.540314,0.54645 v 2.67087 l -0.540314,0.54031 -0.540314,-0.54031 v -2.67087 z m 0,-3.7515 0.540314,0.54645 v 2.67087 l -0.540314,0.53418 -0.540314,-0.53418 v -2.67087 z m -5.237361,0 -0.540313,0.54645 v 2.67087 l 0.540313,0.53418 0.540314,-0.53418 v -2.67087 z m 0,7.50913 -0.540313,-0.54031 v -2.67087 l 0.540313,-0.54645 0.540314,0.54645 v 2.67087 z"
         style="font-style:normal;font-variant:normal;font-weight:normal;font-stretch:normal;font-family:Digital;-inkscape-font-specification:Digital;fill:#ff00ff;fill-opacity:1"
         id="path4292"
         inkscape:connector-curvature="0" />
      <path
         d="m 42.345415,882.07012 0.540313,-0.54031 h 4.156733 l 0.540314,0.54031 -0.540314,0.54645 h -4.156733 z m 0,3.7515 0.540313,-0.53418 h 4.156733 l 0.540314,0.53418 -0.540314,0.54645 h -4.156733 z m 0,3.75763 0.540313,-0.54031 h 4.156733 l 0.540314,0.54031 -0.540314,0.54032 h -4.156733 z m 5.23736,-3.75763 0.540314,0.54645 v 2.67087 l -0.540314,0.54031 -0.540314,-0.54031 v -2.67087 z m 0,-3.7515 0.540314,0.54645 v 2.67087 l -0.540314,0.53418 -0.540314,-0.53418 v -2.67087 z m -5.23736,0 -0.540314,0.54645 v 2.67087 l 0.540314,0.53418 0.540313,-0.53418 v -2.67087 z m 0,7.50913 -0.540314,-0.54031 v -2.67087 l 0.540314,-0.54645 0.540313,0.54645 v 2.67087 z"
         style="font-style:normal;font-variant:normal;font-weight:normal;font-stretch:normal;font-family:Digital;-inkscape-font-specification:Digital;fill:#ff00ff;fill-opacity:1"
         id="path4294"
         inkscape:connector-curvature="0" />
      <path
         d="m 49.885248,882.07012 0.540313,-0.54031 h 4.156733 l 0.540314,0.54031 -0.540314,0.54645 h -4.156733 z m 0,3.7515 0.540313,-0.53418 h 4.156733 l 0.540314,0.53418 -0.540314,0.54645 h -4.156733 z m 0,3.75763 0.540313,-0.54031 h 4.156733 l 0.540314,0.54031 -0.540314,0.54032 h -4.156733 z m 5.23736,-3.75763 0.540314,0.54645 v 2.67087 l -0.540314,0.54031 -0.540314,-0.54031 v -2.67087 z m 0,-3.7515 0.540314,0.54645 v 2.67087 l -0.540314,0.53418 -0.540314,-0.53418 v -2.67087 z m -5.23736,0 -0.540314,0.54645 v 2.67087 l 0.540314,0.53418 0.540313,-0.53418 v -2.67087 z m 0,7.50913 -0.540314,-0.54031 v -2.67087 l 0.540314,-0.54645 0.540313,0.54645 v 2.67087 z"
         style="font-style:normal;font-variant:normal;font-weight:normal;font-stretch:normal;font-family:Digital;-inkscape-font-specification:Digital;fill:#ff00ff;fill-opacity:1"
         id="path4296"
         inkscape:connector-curvature="0" />
      <path
         d="m 57.425085,882.07012 0.540313,-0.54031 h 4.156733 l 0.540314,0.54031 -0.540314,0.54645 h -4.156733 z m 0,3.7515 0.540313,-0.53418 h 4.156733 l 0.540314,0.53418 -0.540314,0.54645 h -4.156733 z m 0,3.75763 0.540313,-0.54031 h 4.156733 l 0.540314,0.54031 -0.540314,0.54032 h -4.156733 z m 5.23736,-3.75763 0.540314,0.54645 v 2.67087 l -0.540314,0.54031 -0.540314,-0.54031 v -2.67087 z m 0,-3.7515 0.540314,0.54645 v 2.67087 l -0.540314,0.53418 -0.540314,-0.53418 v -2.67087 z m -5.23736,0 -0.540314,0.54645 v 2.67087 l 0.540314,0.53418 0.540313,-0.53418 v -2.67087 z m 0,7.50913 -0.540314,-0.54031 v -2.67087 l 0.540314,-0.54645 0.540313,0.54645 v 2.67087 z"
         style="font-style:normal;font-variant:normal;font-weight:normal;font-stretch:normal;font-family:Digital;-inkscape-font-specification:Digital;fill:#ff00ff;fill-opacity:1"
         id="path4298"
         inkscape:connector-curvature="0" />
      <path
         d="m 64.964918,882.07012 0.540313,-0.54031 h 4.156733 l 0.540314,0.54031 -0.540314,0.54645 h -4.156733 z m 0,3.7515 0.540313,-0.53418 h 4.156733 l 0.540314,0.53418 -0.540314,0.54645 h -4.156733 z m 0,3.75763 0.540313,-0.54031 h 4.156733 l 0.540314,0.54031 -0.540314,0.54032 h -4.156733 z m 5.23736,-3.75763 0.540314,0.54645 v 2.67087 l -0.540314,0.54031 -0.540314,-0.54031 v -2.67087 z m 0,-3.7515 0.540314,0.54645 v 2.67087 l -0.540314,0.53418 -0.540314,-0.53418 v -2.67087 z m -5.23736,0 -0.540314,0.54645 v 2.67087 l 0.540314,0.53418 0.540313,-0.53418 v -2.67087 z m 0,7.50913 -0.540314,-0.54031 v -2.67087 l 0.540314,-0.54645 0.540313,0.54645 v 2.67087 z"
         style="font-style:normal;font-variant:normal;font-weight:normal;font-stretch:normal;font-family:Digital;-inkscape-font-specification:Digital;fill:#ff00ff;fill-opacity:1"
         id="path4300"
         inkscape:connector-curvature="0" />
      <path
         d="m 72.504751,882.07012 0.540313,-0.54031 h 4.156733 l 0.540314,0.54031 -0.540314,0.54645 h -4.156733 z m 0,3.7515 0.540313,-0.53418 h 4.156733 l 0.540314,0.53418 -0.540314,0.54645 h -4.156733 z m 0,3.75763 0.540313,-0.54031 h 4.156733 l 0.540314,0.54031 -0.540314,0.54032 h -4.156733 z m 5.23736,-3.75763 0.540314,0.54645 v 2.67087 l -0.540314,0.54031 -0.540314,-0.54031 v -2.67087 z m 0,-3.7515 0.540314,0.54645 v 2.67087 l -0.540314,0.53418 -0.540314,-0.53418 v -2.67087 z m -5.23736,0 -0.540314,0.54645 v 2.67087 l 0.540314,0.53418 0.540313,-0.53418 v -2.67087 z m 0,7.50913 -0.540314,-0.54031 v -2.67087 l 0.540314,-0.54645 0.540313,0.54645 v 2.67087 z"
         style="font-style:normal;font-variant:normal;font-weight:normal;font-stretch:normal;font-family:Digital;-inkscape-font-specification:Digital;fill:#ff00ff;fill-opacity:1"
         id="path4302"
         inkscape:connector-curvature="0" />
      <path
         d="m 80.044584,882.07012 0.540314,-0.54031 h 4.156732 l 0.540314,0.54031 -0.540314,0.54645 h -4.156732 z m 0,3.7515 0.540314,-0.53418 h 4.156732 l 0.540314,0.53418 -0.540314,0.54645 h -4.156732 z m 0,3.75763 0.540314,-0.54031 h 4.156732 l 0.540314,0.54031 -0.540314,0.54032 h -4.156732 z m 5.23736,-3.75763 0.540314,0.54645 v 2.67087 l -0.540314,0.54031 -0.540314,-0.54031 v -2.67087 z m 0,-3.7515 0.540314,0.54645 v 2.67087 l -0.540314,0.53418 -0.540314,-0.53418 v -2.67087 z m -5.23736,0 -0.540314,0.54645 v 2.67087 l 0.540314,0.53418 0.540314,-0.53418 v -2.67087 z m 0,7.50913 -0.540314,-0.54031 v -2.67087 l 0.540314,-0.54645 0.540314,0.54645 v 2.67087 z"
         style="font-style:normal;font-variant:normal;font-weight:normal;font-stretch:normal;font-family:Digital;-inkscape-font-specification:Digital;fill:#ff00ff;fill-opacity:1"
         id="path4304"
         inkscape:connector-curvature="0" />
      <path
         d="m 87.584417,882.07012 0.540314,-0.54031 h 4.156732 l 0.540314,0.54031 -0.540314,0.54645 h -4.156732 z m 0,3.7515 0.540314,-0.53418 h 4.156732 l 0.540314,0.53418 -0.540314,0.54645 h -4.156732 z m 0,3.75763 0.540314,-0.54031 h 4.156732 l 0.540314,0.54031 -0.540314,0.54032 h -4.156732 z m 5.23736,-3.75763 0.540314,0.54645 v 2.67087 l -0.540314,0.54031 -0.540314,-0.54031 v -2.67087 z m 0,-3.7515 0.540314,0.54645 v 2.67087 l -0.540314,0.53418 -0.540314,-0.53418 v -2.67087 z m -5.23736,0 -0.540314,0.54645 v 2.67087 l 0.540314,0.53418 0.540314,-0.53418 v -2.67087 z m 0,7.50913 -0.540314,-0.54031 v -2.67087 l 0.540314,-0.54645 0.540314,0.54645 v 2.67087 z"
         style="font-style:normal;font-variant:normal;font-weight:normal;font-stretch:normal;font-family:Digital;-inkscape-font-specification:Digital;fill:#ff00ff;fill-opacity:1"
         id="path4306"
         inkscape:connector-curvature="0" />
      <path
         d="m 95.12425,882.07012 0.540314,-0.54031 h 4.156732 l 0.540314,0.54031 -0.540314,0.54645 h -4.156732 z m 0,3.7515 0.540314,-0.53418 h 4.156732 l 0.540314,0.53418 -0.540314,0.54645 h -4.156732 z m 0,3.75763 0.540314,-0.54031 h 4.156732 l 0.540314,0.54031 -0.540314,0.54032 h -4.156732 z m 5.23736,-3.75763 0.54031,0.54645 v 2.67087 l -0.54031,0.54031 -0.540314,-0.54031 v -2.67087 z m 0,-3.7515 0.54031,0.54645 v 2.67087 l -0.54031,0.53418 -0.540314,-0.53418 v -2.67087 z m -5.23736,0 -0.540314,0.54645 v 2.67087 l 0.540314,0.53418 0.540314,-0.53418 v -2.67087 z m 0,7.50913 -0.540314,-0.54031 v -2.67087 l 0.540314,-0.54645 0.540314,0.54645 v 2.67087 z"
         style="font-style:normal;font-variant:normal;font-weight:normal;font-stretch:normal;font-family:Digital;-inkscape-font-specification:Digital;fill:#ff00ff;fill-opacity:1"
         id="path4308"
         inkscape:connector-curvature="0" />
      <path
         d="m 102.66409,882.07012 0.54031,-0.54031 h 4.15674 l 0.54031,0.54031 -0.54031,0.54645 h -4.15674 z m 0,3.7515 0.54031,-0.53418 h 4.15674 l 0.54031,0.53418 -0.54031,0.54645 h -4.15674 z m 0,3.75763 0.54031,-0.54031 h 4.15674 l 0.54031,0.54031 -0.54031,0.54032 h -4.15674 z m 5.23736,-3.75763 0.54031,0.54645 v 2.67087 l -0.54031,0.54031 -0.54031,-0.54031 v -2.67087 z m 0,-3.7515 0.54031,0.54645 v 2.67087 l -0.54031,0.53418 -0.54031,-0.53418 v -2.67087 z m -5.23736,0 -0.54031,0.54645 v 2.67087 l 0.54031,0.53418 0.54031,-0.53418 v -2.67087 z m 0,7.50913 -0.54031,-0.54031 v -2.67087 l 0.54031,-0.54645 0.54031,0.54645 v 2.67087 z"
         style="font-style:normal;font-variant:normal;font-weight:normal;font-stretch:normal;font-family:Digital;-inkscape-font-specification:Digital;fill:#ff00ff;fill-opacity:1"
         id="path4310"
         inkscape:connector-curvature="0" />
      <path
         d="m 110.20392,882.07012 0.54032,-0.54031 h 4.15673 l 0.54031,0.54031 -0.54031,0.54645 h -4.15673 z m 0,3.7515 0.54032,-0.53418 h 4.15673 l 0.54031,0.53418 -0.54031,0.54645 h -4.15673 z m 0,3.75763 0.54032,-0.54031 h 4.15673 l 0.54031,0.54031 -0.54031,0.54032 h -4.15673 z m 5.23736,-3.75763 0.54032,0.54645 v 2.67087 l -0.54032,0.54031 -0.54031,-0.54031 v -2.67087 z m 0,-3.7515 0.54032,0.54645 v 2.67087 l -0.54032,0.53418 -0.54031,-0.53418 v -2.67087 z m -5.23736,0 -0.54031,0.54645 v 2.67087 l 0.54031,0.53418 0.54032,-0.53418 v -2.67087 z m 0,7.50913 -0.54031,-0.54031 v -2.67087 l 0.54031,-0.54645 0.54032,0.54645 v 2.67087 z"
         style="font-style:normal;font-variant:normal;font-weight:normal;font-stretch:normal;font-family:Digital;-inkscape-font-specification:Digital;fill:#ff00ff;fill-opacity:1"
         id="path4312"
         inkscape:connector-curvature="0" />
      <path
         d="m 117.74376,882.07012 0.54031,-0.54031 h 4.15673 l 0.54032,0.54031 -0.54032,0.54645 h -4.15673 z m 0,3.7515 0.54031,-0.53418 h 4.15673 l 0.54032,0.53418 -0.54032,0.54645 h -4.15673 z m 0,3.75763 0.54031,-0.54031 h 4.15673 l 0.54032,0.54031 -0.54032,0.54032 h -4.15673 z m 5.23736,-3.75763 0.54031,0.54645 v 2.67087 l -0.54031,0.54031 -0.54032,-0.54031 v -2.67087 z m 0,-3.7515 0.54031,0.54645 v 2.67087 l -0.54031,0.53418 -0.54032,-0.53418 v -2.67087 z m -5.23736,0 -0.54032,0.54645 v 2.67087 l 0.54032,0.53418 0.54031,-0.53418 v -2.67087 z m 0,7.50913 -0.54032,-0.54031 v -2.67087 l 0.54032,-0.54645 0.54031,0.54645 v 2.67087 z"
         style="font-style:normal;font-variant:normal;font-weight:normal;font-stretch:normal;font-family:Digital;-inkscape-font-specification:Digital;fill:#ff00ff;fill-opacity:1"
         id="path4314"
         inkscape:connector-curvature="0" />
      <path
         d="m 125.28359,882.07012 0.54031,-0.54031 h 4.15674 l 0.54031,0.54031 -0.54031,0.54645 h -4.15674 z m 0,3.7515 0.54031,-0.53418 h 4.15674 l 0.54031,0.53418 -0.54031,0.54645 h -4.15674 z m 0,3.75763 0.54031,-0.54031 h 4.15674 l 0.54031,0.54031 -0.54031,0.54032 h -4.15674 z m 5.23736,-3.75763 0.54031,0.54645 v 2.67087 l -0.54031,0.54031 -0.54031,-0.54031 v -2.67087 z m 0,-3.7515 0.54031,0.54645 v 2.67087 l -0.54031,0.53418 -0.54031,-0.53418 v -2.67087 z m -5.23736,0 -0.54031,0.54645 v 2.67087 l 0.54031,0.53418 0.54031,-0.53418 v -2.67087 z m 0,7.50913 -0.54031,-0.54031 v -2.67087 l 0.54031,-0.54645 0.54031,0.54645 v 2.67087 z"
         style="font-style:normal;font-variant:normal;font-weight:normal;font-stretch:normal;font-family:Digital;-inkscape-font-specification:Digital;fill:#ff00ff;fill-opacity:1"
         id="path4316"
         inkscape:connector-curvature="0" />
      <path
         d="m 132.82342,882.07012 0.54032,-0.54031 h 4.15673 l 0.54031,0.54031 -0.54031,0.54645 h -4.15673 z m 0,3.7515 0.54032,-0.53418 h 4.15673 l 0.54031,0.53418 -0.54031,0.54645 h -4.15673 z m 0,3.75763 0.54032,-0.54031 h 4.15673 l 0.54031,0.54031 -0.54031,0.54032 h -4.15673 z m 5.23736,-3.75763 0.54032,0.54645 v 2.67087 l -0.54032,0.54031 -0.54031,-0.54031 v -2.67087 z m 0,-3.7515 0.54032,0.54645 v 2.67087 l -0.54032,0.53418 -0.54031,-0.53418 v -2.67087 z m -5.23736,0 -0.54031,0.54645 v 2.67087 l 0.54031,0.53418 0.54032,-0.53418 v -2.67087 z m 0,7.50913 -0.54031,-0.54031 v -2.67087 l 0.54031,-0.54645 0.54032,0.54645 v 2.67087 z"
         style="font-style:normal;font-variant:normal;font-weight:normal;font-stretch:normal;font-family:Digital;-inkscape-font-specification:Digital;fill:#ff00ff;fill-opacity:1"
         id="path4318"
         inkscape:connector-curvature="0" />
      <path
         d="m 140.36326,882.07012 0.54032,-0.54031 h 4.15673 l 0.54031,0.54031 -0.54031,0.54645 h -4.15673 z m 0,3.7515 0.54032,-0.53418 h 4.15673 l 0.54031,0.53418 -0.54031,0.54645 h -4.15673 z m 0,3.75763 0.54032,-0.54031 h 4.15673 l 0.54031,0.54031 -0.54031,0.54032 h -4.15673 z m 5.23736,-3.75763 0.54032,0.54645 v 2.67087 l -0.54032,0.54031 -0.54031,-0.54031 v -2.67087 z m 0,-3.7515 0.54032,0.54645 v 2.67087 l -0.54032,0.53418 -0.54031,-0.53418 v -2.67087 z m -5.23736,0 -0.54031,0.54645 v 2.67087 l 0.54031,0.53418 0.54032,-0.53418 v -2.67087 z m 0,7.50913 -0.54031,-0.54031 v -2.67087 l 0.54031,-0.54645 0.54032,0.54645 v 2.67087 z"
         style="font-style:normal;font-variant:normal;font-weight:normal;font-stretch:normal;font-family:Digital;-inkscape-font-specification:Digital;fill:#ff00ff;fill-opacity:1"
         id="path4320"
         inkscape:connector-curvature="0" />
      <path
         d="m 147.90309,882.07012 0.54031,-0.54031 h 4.15674 l 0.54031,0.54031 -0.54031,0.54645 h -4.15674 z m 0,3.7515 0.54031,-0.53418 h 4.15674 l 0.54031,0.53418 -0.54031,0.54645 h -4.15674 z m 0,3.75763 0.54031,-0.54031 h 4.15674 l 0.54031,0.54031 -0.54031,0.54032 h -4.15674 z m 5.23736,-3.75763 0.54031,0.54645 v 2.67087 l -0.54031,0.54031 -0.54031,-0.54031 v -2.67087 z m 0,-3.7515 0.54031,0.54645 v 2.67087 l -0.54031,0.53418 -0.54031,-0.53418 v -2.67087 z m -5.23736,0 -0.54031,0.54645 v 2.67087 l 0.54031,0.53418 0.54031,-0.53418 v -2.67087 z m 0,7.50913 -0.54031,-0.54031 v -2.67087 l 0.54031,-0.54645 0.54031,0.54645 v 2.67087 z"
         style="font-style:normal;font-variant:normal;font-weight:normal;font-stretch:normal;font-family:Digital;-inkscape-font-specification:Digital;fill:#ff00ff;fill-opacity:1"
         id="path4322"
         inkscape:connector-curvature="0" />
      <path
         d="m 155.44293,882.07012 0.54031,-0.54031 h 4.15674 l 0.54031,0.54031 -0.54031,0.54645 h -4.15674 z m 0,3.7515 0.54031,-0.53418 h 4.15674 l 0.54031,0.53418 -0.54031,0.54645 h -4.15674 z m 0,3.75763 0.54031,-0.54031 h 4.15674 l 0.54031,0.54031 -0.54031,0.54032 h -4.15674 z m 5.23736,-3.75763 0.54031,0.54645 v 2.67087 l -0.54031,0.54031 -0.54031,-0.54031 v -2.67087 z m 0,-3.7515 0.54031,0.54645 v 2.67087 l -0.54031,0.53418 -0.54031,-0.53418 v -2.67087 z m -5.23736,0 -0.54031,0.54645 v 2.67087 l 0.54031,0.53418 0.54031,-0.53418 v -2.67087 z m 0,7.50913 -0.54031,-0.54031 v -2.67087 l 0.54031,-0.54645 0.54031,0.54645 v 2.67087 z"
         style="font-style:normal;font-variant:normal;font-weight:normal;font-stretch:normal;font-family:Digital;-inkscape-font-specification:Digital;fill:#ff00ff;fill-opacity:1"
         id="path4324"
         inkscape:connector-curvature="0" />
      <path
         d="m 162.98276,882.07012 0.54031,-0.54031 h 4.15673 l 0.54032,0.54031 -0.54032,0.54645 h -4.15673 z m 0,3.7515 0.54031,-0.53418 h 4.15673 l 0.54032,0.53418 -0.54032,0.54645 h -4.15673 z m 0,3.75763 0.54031,-0.54031 h 4.15673 l 0.54032,0.54031 -0.54032,0.54032 h -4.15673 z m 5.23736,-3.75763 0.54031,0.54645 v 2.67087 l -0.54031,0.54031 -0.54032,-0.54031 v -2.67087 z m 0,-3.7515 0.54031,0.54645 v 2.67087 l -0.54031,0.53418 -0.54032,-0.53418 v -2.67087 z m -5.23736,0 -0.54032,0.54645 v 2.67087 l 0.54032,0.53418 0.54031,-0.53418 v -2.67087 z m 0,7.50913 -0.54032,-0.54031 v -2.67087 l 0.54032,-0.54645 0.54031,0.54645 v 2.67087 z"
         style="font-style:normal;font-variant:normal;font-weight:normal;font-stretch:normal;font-family:Digital;-inkscape-font-specification:Digital;fill:#ff00ff;fill-opacity:1"
         id="path4326"
         inkscape:connector-curvature="0" />
      <path
         d="m 170.5226,882.07012 0.54031,-0.54031 h 4.15673 l 0.54032,0.54031 -0.54032,0.54645 h -4.15673 z m 0,3.7515 0.54031,-0.53418 h 4.15673 l 0.54032,0.53418 -0.54032,0.54645 h -4.15673 z m 0,3.75763 0.54031,-0.54031 h 4.15673 l 0.54032,0.54031 -0.54032,0.54032 h -4.15673 z m 5.23736,-3.75763 0.54031,0.54645 v 2.67087 l -0.54031,0.54031 -0.54032,-0.54031 v -2.67087 z m 0,-3.7515 0.54031,0.54645 v 2.67087 l -0.54031,0.53418 -0.54032,-0.53418 v -2.67087 z m -5.23736,0 -0.54032,0.54645 v 2.67087 l 0.54032,0.53418 0.54031,-0.53418 v -2.67087 z m 0,7.50913 -0.54032,-0.54031 v -2.67087 l 0.54032,-0.54645 0.54031,0.54645 v 2.67087 z"
         style="font-style:normal;font-variant:normal;font-weight:normal;font-stretch:normal;font-family:Digital;-inkscape-font-specification:Digital;fill:#ff00ff;fill-opacity:1"
         id="path4328"
         inkscape:connector-curvature="0" />
      <path
         d="m 178.06242,882.07012 0.54032,-0.54031 h 4.15673 l 0.54031,0.54031 -0.54031,0.54645 h -4.15673 z m 0,3.7515 0.54032,-0.53418 h 4.15673 l 0.54031,0.53418 -0.54031,0.54645 h -4.15673 z m 0,3.75763 0.54032,-0.54031 h 4.15673 l 0.54031,0.54031 -0.54031,0.54032 h -4.15673 z m 5.23736,-3.75763 0.54032,0.54645 v 2.67087 l -0.54032,0.54031 -0.54031,-0.54031 v -2.67087 z m 0,-3.7515 0.54032,0.54645 v 2.67087 l -0.54032,0.53418 -0.54031,-0.53418 v -2.67087 z m -5.23736,0 -0.54031,0.54645 v 2.67087 l 0.54031,0.53418 0.54032,-0.53418 v -2.67087 z m 0,7.50913 -0.54031,-0.54031 v -2.67087 l 0.54031,-0.54645 0.54032,0.54645 v 2.67087 z"
         style="font-style:normal;font-variant:normal;font-weight:normal;font-stretch:normal;font-family:Digital;-inkscape-font-specification:Digital;fill:#ff00ff;fill-opacity:1"
         id="path4330"
         inkscape:connector-curvature="0" />
      <path
         d="m 185.60226,882.07012 0.54032,-0.54031 h 4.15673 l 0.54031,0.54031 -0.54031,0.54645 h -4.15673 z m 0,3.7515 0.54032,-0.53418 h 4.15673 l 0.54031,0.53418 -0.54031,0.54645 h -4.15673 z m 0,3.75763 0.54032,-0.54031 h 4.15673 l 0.54031,0.54031 -0.54031,0.54032 h -4.15673 z m 5.23736,-3.75763 0.54032,0.54645 v 2.67087 l -0.54032,0.54031 -0.54031,-0.54031 v -2.67087 z m 0,-3.7515 0.54032,0.54645 v 2.67087 l -0.54032,0.53418 -0.54031,-0.53418 v -2.67087 z m -5.23736,0 -0.54031,0.54645 v 2.67087 l 0.54031,0.53418 0.54032,-0.53418 v -2.67087 z m 0,7.50913 -0.54031,-0.54031 v -2.67087 l 0.54031,-0.54645 0.54032,0.54645 v 2.67087 z"
         style="font-style:normal;font-variant:normal;font-weight:normal;font-stretch:normal;font-family:Digital;-inkscape-font-specification:Digital;fill:#ff00ff;fill-opacity:1"
         id="path4332"
         inkscape:connector-curvature="0" />
      <path
         d="m 193.1421,882.07012 0.54032,-0.54031 h 4.15673 l 0.54031,0.54031 -0.54031,0.54645 h -4.15673 z m 0,3.7515 0.54032,-0.53418 h 4.15673 l 0.54031,0.53418 -0.54031,0.54645 h -4.15673 z m 0,3.75763 0.54032,-0.54031 h 4.15673 l 0.54031,0.54031 -0.54031,0.54032 h -4.15673 z m 5.23736,-3.75763 0.54032,0.54645 v 2.67087 l -0.54032,0.54031 -0.54031,-0.54031 v -2.67087 z m 0,-3.7515 0.54032,0.54645 v 2.67087 l -0.54032,0.53418 -0.54031,-0.53418 v -2.67087 z m -5.23736,0 -0.54031,0.54645 v 2.67087 l 0.54031,0.53418 0.54032,-0.53418 v -2.67087 z m 0,7.50913 -0.54031,-0.54031 v -2.67087 l 0.54031,-0.54645 0.54032,0.54645 v 2.67087 z"
         style="font-style:normal;font-variant:normal;font-weight:normal;font-stretch:normal;font-family:Digital;-inkscape-font-specification:Digital;fill:#ff00ff;fill-opacity:1"
         id="path4334"
         inkscape:connector-curvature="0" />
      <path
         d="m 200.68193,882.07012 0.54031,-0.54031 h 4.15673 l 0.54032,0.54031 -0.54032,0.54645 h -4.15673 z m 0,3.7515 0.54031,-0.53418 h 4.15673 l 0.54032,0.53418 -0.54032,0.54645 h -4.15673 z m 0,3.75763 0.54031,-0.54031 h 4.15673 l 0.54032,0.54031 -0.54032,0.54032 h -4.15673 z m 5.23736,-3.75763 0.54031,0.54645 v 2.67087 l -0.54031,0.54031 -0.54032,-0.54031 v -2.67087 z m 0,-3.7515 0.54031,0.54645 v 2.67087 l -0.54031,0.53418 -0.54032,-0.53418 v -2.67087 z m -5.23736,0 -0.54032,0.54645 v 2.67087 l 0.54032,0.53418 0.54031,-0.53418 v -2.67087 z m 0,7.50913 -0.54032,-0.54031 v -2.67087 l 0.54032,-0.54645 0.54031,0.54645 v 2.67087 z"
         style="font-style:normal;font-variant:normal;font-weight:normal;font-stretch:normal;font-family:Digital;-inkscape-font-specification:Digital;fill:#ff00ff;fill-opacity:1"
         id="path4336"
         inkscape:connector-curvature="0" />
      <path
         d="m 208.22177,882.07012 0.54031,-0.54031 h 4.15674 l 0.54031,0.54031 -0.54031,0.54645 h -4.15674 z m 0,3.7515 0.54031,-0.53418 h 4.15674 l 0.54031,0.53418 -0.54031,0.54645 h -4.15674 z m 0,3.75763 0.54031,-0.54031 h 4.15674 l 0.54031,0.54031 -0.54031,0.54032 h -4.15674 z m 5.23736,-3.75763 0.54031,0.54645 v 2.67087 l -0.54031,0.54031 -0.54031,-0.54031 v -2.67087 z m 0,-3.7515 0.54031,0.54645 v 2.67087 l -0.54031,0.53418 -0.54031,-0.53418 v -2.67087 z m -5.23736,0 -0.54032,0.54645 v 2.67087 l 0.54032,0.53418 0.54031,-0.53418 v -2.67087 z m 0,7.50913 -0.54032,-0.54031 v -2.67087 l 0.54032,-0.54645 0.54031,0.54645 v 2.67087 z"
         style="font-style:normal;font-variant:normal;font-weight:normal;font-stretch:normal;font-family:Digital;-inkscape-font-specification:Digital;fill:#ff00ff;fill-opacity:1"
         id="path4338"
         inkscape:connector-curvature="0" />
      <path
         d="m 215.76159,882.07012 0.54032,-0.54031 h 4.15673 l 0.54031,0.54031 -0.54031,0.54645 h -4.15673 z m 0,3.7515 0.54032,-0.53418 h 4.15673 l 0.54031,0.53418 -0.54031,0.54645 h -4.15673 z m 0,3.75763 0.54032,-0.54031 h 4.15673 l 0.54031,0.54031 -0.54031,0.54032 h -4.15673 z m 5.23736,-3.75763 0.54032,0.54645 v 2.67087 l -0.54032,0.54031 -0.54031,-0.54031 v -2.67087 z m 0,-3.7515 0.54032,0.54645 v 2.67087 l -0.54032,0.53418 -0.54031,-0.53418 v -2.67087 z m -5.23736,0 -0.54031,0.54645 v 2.67087 l 0.54031,0.53418 0.54032,-0.53418 v -2.67087 z m 0,7.50913 -0.54031,-0.54031 v -2.67087 l 0.54031,-0.54645 0.54032,0.54645 v 2.67087 z"
         style="font-style:normal;font-variant:normal;font-weight:normal;font-stretch:normal;font-family:Digital;-inkscape-font-specification:Digital;fill:#ff00ff;fill-opacity:1"
         id="path4340"
         inkscape:connector-curvature="0" />
      <path
         d="m 223.30143,882.07012 0.54032,-0.54031 h 4.15673 l 0.54032,0.54031 -0.54032,0.54645 h -4.15673 z m 0,3.7515 0.54032,-0.53418 h 4.15673 l 0.54032,0.53418 -0.54032,0.54645 h -4.15673 z m 0,3.75763 0.54032,-0.54031 h 4.15673 l 0.54032,0.54031 -0.54032,0.54032 h -4.15673 z m 5.23737,-3.75763 0.54031,0.54645 v 2.67087 l -0.54031,0.54031 -0.54032,-0.54031 v -2.67087 z m 0,-3.7515 0.54031,0.54645 v 2.67087 l -0.54031,0.53418 -0.54032,-0.53418 v -2.67087 z m -5.23737,0 -0.54031,0.54645 v 2.67087 l 0.54031,0.53418 0.54032,-0.53418 v -2.67087 z m 0,7.50913 -0.54031,-0.54031 v -2.67087 l 0.54031,-0.54645 0.54032,0.54645 v 2.67087 z"
         style="font-style:normal;font-variant:normal;font-weight:normal;font-stretch:normal;font-family:Digital;-inkscape-font-specification:Digital;fill:#ff00ff;fill-opacity:1"
         id="path4342"
         inkscape:connector-curvature="0" />
    </g>
    <path
       style="opacity:1;fill:#000000;fill-opacity:1;stroke:#1a1a1a;stroke-width:1;stroke-linecap:round;stroke-linejoin:round;stroke-miterlimit:4;stroke-dasharray:none;stroke-dashoffset:0;stroke-opacity:1"
       d="m 215.71242,1001.7045 h -36.04113 v -35.54099 h 36.04113 z"
       id="rect4183-39-5"
       inkscape:connector-curvature="0" />
    <path
       style="opacity:1;fill:url(#radialGradient4199-9);fill-opacity:1;stroke:none;stroke-width:1.0296241;stroke-linecap:round;stroke-linejoin:round;stroke-miterlimit:4;stroke-dasharray:none;stroke-opacity:1"
       d="M 2.5965539,1050.3622 H 293.82179 v 2 H 2.5965539 Z"
       id="rect4183-4"
       inkscape:connector-curvature="0" />
    <path
       style="opacity:1;fill:url(#radialGradient4165-8);fill-opacity:1;stroke:none;stroke-width:0.04437516;stroke-miterlimit:4;stroke-dasharray:none"
       d="m 293.73831,942.05849 h 3 v 110.34691 h -3 z"
       id="rect4157-2"
       inkscape:connector-curvature="0" />
    <path
       style="opacity:1;fill:url(#radialGradient4199-9-4);fill-opacity:1;stroke:none;stroke-width:1.0296241;stroke-linecap:round;stroke-linejoin:round;stroke-miterlimit:4;stroke-dasharray:none;stroke-opacity:1"
       d="M 2.1463145,942.3622 H 293.17257 v 2 H 2.1463145 Z"
       id="rect4183-4-9"
       inkscape:connector-curvature="0" />
    <path
       style="opacity:1;fill:url(#radialGradient4165);fill-opacity:1;stroke:none;stroke-width:0.04437519;stroke-miterlimit:4;stroke-dasharray:none"
       d="M 0.61229531,942.20634 H 3.6122953 V 1052.4057 H 0.61229531 Z"
       id="rect4157"
       inkscape:connector-curvature="0" />
    <g
       id="g1169"
       transform="matrix(1.1115916,0,0,1.1115916,-16.078925,-109.79878)"
       style="opacity:0.8">
      <g
         transform="matrix(1.8800224,0,0,1.8800224,-72.971317,-865.88376)"
         id="g1105">
        <path
           style="opacity:1;fill:#000000;fill-opacity:1;stroke:none;stroke-width:0.09967746;stroke-miterlimit:4;stroke-dasharray:none;stroke-opacity:1"
           d="m 85.212426,981.00504 c -1.514752,0.002 -2.801313,1.10924 -3.028867,2.6068 l 1.072307,-0.0121 0.306819,-0.98587 c 0.06111,-0.19723 0.344922,-0.18291 0.385861,0.0195 l 0.429473,2.11075 0.578596,-3.07443 c 0.01734,-0.092 0.0964,-0.15958 0.19001,-0.16236 0.104567,-0.003 0.19364,0.0754 0.204028,0.17949 l 0.344589,3.48249 0.461787,-2.13373 c 0.04602,-0.21061 0.347096,-0.20851 0.390144,0.003 l 0.367167,1.82417 1.261545,-0.0109 c 0.06805,-0.25416 0.103124,-0.51601 0.10435,-0.77912 -1.25e-4,-1.69419 -1.373618,-3.06751 -3.067809,-3.06742 z m 2.963459,3.84653 c -0.03478,0.13617 -0.07889,0.26977 -0.131996,0.39988 l 1.511127,-0.0241 -0.0037,-0.39832 z m -0.131996,0.39988 -1.290746,0.0113 c -0.09553,9.2e-4 -0.178166,-0.0664 -0.197017,-0.16003 l -0.211427,-1.04934 -0.527977,2.43976 c -0.04797,0.22207 -0.370576,0.2039 -0.393256,-0.0222 l -0.332519,-3.36022 -0.509681,2.70765 c -0.04033,0.2151 -0.347568,0.21754 -0.39131,0.003 l -0.477363,-2.34708 -0.119144,0.38235 c -0.02567,0.0826 -0.101616,0.13917 -0.188068,0.14017 l -1.257257,0.014 c -0.0014,0.0205 -0.0023,0.041 -0.0032,0.0615 -9.2e-5,1.69419 1.37323,3.06771 3.067416,3.0678 1.238587,0 2.3555,-0.74532 2.831462,-1.8888 z m -5.895765,-1.24051 c 0.0032,-0.13366 0.01494,-0.26698 0.03543,-0.3991 l -1.581993,0.0218 0.0042,0.39872 z"
           id="path1042-8"
           inkscape:connector-curvature="0"
           sodipodi:nodetypes="cccccccccccccccccccccccccccccccccccccccccc" />
        <path
           style="opacity:1;fill:#333333;fill-opacity:1;stroke:none;stroke-width:0.09967746;stroke-miterlimit:4;stroke-dasharray:none;stroke-opacity:1"
           d="m 85.212426,980.72773 c -1.514752,0.002 -2.801313,1.10924 -3.028867,2.60681 l 1.072307,-0.0121 0.306819,-0.98587 c 0.06111,-0.19724 0.344922,-0.18292 0.385861,0.0195 l 0.429473,2.11074 0.578596,-3.07442 c 0.01734,-0.092 0.0964,-0.15959 0.19001,-0.16237 0.104567,-0.003 0.19364,0.0754 0.204028,0.1795 l 0.344589,3.48248 0.461787,-2.13372 c 0.04602,-0.21061 0.347096,-0.20851 0.390144,0.003 l 0.367167,1.82417 1.261545,-0.0109 c 0.06805,-0.25416 0.103124,-0.51602 0.10435,-0.77912 -1.25e-4,-1.69419 -1.373618,-3.06751 -3.067809,-3.06742 z m 2.963459,3.84654 c -0.03478,0.13616 -0.07889,0.26977 -0.131996,0.39988 l 1.511127,-0.0241 -0.0037,-0.39833 z m -0.131996,0.39988 -1.290746,0.0113 c -0.09553,9.3e-4 -0.178166,-0.0664 -0.197017,-0.16002 l -0.211427,-1.04934 -0.527977,2.43976 c -0.04797,0.22208 -0.370576,0.20388 -0.393256,-0.0222 l -0.332519,-3.36022 -0.509681,2.70764 c -0.04033,0.2151 -0.347568,0.21755 -0.39131,0.003 l -0.477363,-2.34709 -0.119144,0.38236 c -0.02567,0.0826 -0.101616,0.13916 -0.188068,0.14017 l -1.257257,0.014 c -0.0014,0.0205 -0.0023,0.041 -0.0032,0.0615 -9.2e-5,1.69419 1.37323,3.06771 3.067416,3.06781 1.238587,0 2.3555,-0.74533 2.831462,-1.88881 z m -5.895765,-1.24052 c 0.0032,-0.13366 0.01494,-0.26698 0.03543,-0.39909 l -1.581993,0.0218 0.0042,0.39871 z"
           id="path1042"
           inkscape:connector-curvature="0"
           sodipodi:nodetypes="cccccccccccccccccccccccccccccccccccccccccc" />
      </g>
    </g>
  </g>
</svg>
