<?xml version="1.0" encoding="UTF-8" standalone="no"?>
<!-- Created with Inkscape (http://www.inkscape.org/) -->

<svg
   xmlns:dc="http://purl.org/dc/elements/1.1/"
   xmlns:cc="http://creativecommons.org/ns#"
   xmlns:rdf="http://www.w3.org/1999/02/22-rdf-syntax-ns#"
   xmlns:svg="http://www.w3.org/2000/svg"
   xmlns="http://www.w3.org/2000/svg"
   xmlns:xlink="http://www.w3.org/1999/xlink"
   xmlns:sodipodi="http://sodipodi.sourceforge.net/DTD/sodipodi-0.dtd"
   xmlns:inkscape="http://www.inkscape.org/namespaces/inkscape"
   width="500"
   height="23"
   viewBox="0 0 500 23"
   id="svg2"
   version="1.1"
   inkscape:version="0.91 r13725"
   sodipodi:docname="background_digital.svg">
  <defs
     id="defs4">
    <linearGradient
       id="linearGradient4194"
       inkscape:collect="always">
      <stop
         id="stop4196"
         offset="0"
         style="stop-color:#05010a;stop-opacity:1" />
      <stop
         id="stop4198"
         offset="1"
         style="stop-color:#000000;stop-opacity:1" />
    </linearGradient>
    <linearGradient
       inkscape:collect="always"
       id="linearGradient6110">
      <stop
         style="stop-color:#05010a;stop-opacity:1"
         offset="0"
         id="stop6112" />
      <stop
         style="stop-color:#000000;stop-opacity:1"
         offset="1"
         id="stop6114" />
    </linearGradient>
    <linearGradient
       inkscape:collect="always"
       id="linearGradient5425">
      <stop
         style="stop-color:#808080;stop-opacity:1"
         offset="0"
         id="stop5427" />
      <stop
         style="stop-color:#4d4d4d;stop-opacity:1"
         offset="1"
         id="stop5429" />
    </linearGradient>
    <radialGradient
       inkscape:collect="always"
       xlink:href="#linearGradient6110"
       id="radialGradient4196-5-9-8-9-7-3-0-5-4-1-4"
       cx="767.76257"
       cy="268.91211"
       fx="767.76257"
       fy="268.91211"
       r="32.034878"
       gradientTransform="matrix(55.456116,-2.3315299e-4,0,0.08037741,-42327.925,1030.1932)"
       gradientUnits="userSpaceOnUse" />
    <linearGradient
       inkscape:collect="always"
       xlink:href="#linearGradient5425"
       id="linearGradient6275"
       gradientUnits="userSpaceOnUse"
       gradientTransform="matrix(4.79052,0,0,0.13064892,-3047.5259,64.076967)"
       x1="957.76068"
       y1="184.92282"
       x2="957.60193"
       y2="365.76117" />
    <linearGradient
       inkscape:collect="always"
       xlink:href="#linearGradient5425"
       id="linearGradient6453"
       gradientUnits="userSpaceOnUse"
       gradientTransform="matrix(2.4713628,0,0,0.07616558,-821.29001,59.449937)"
       x1="957.76068"
       y1="184.92282"
       x2="957.60193"
       y2="365.76117" />
    <linearGradient
       inkscape:collect="always"
       xlink:href="#linearGradient5425"
       id="linearGradient6456"
       gradientUnits="userSpaceOnUse"
       gradientTransform="matrix(1.1564339,0,0,0.07676942,721.10443,59.332146)"
       x1="957.76068"
       y1="184.92282"
       x2="957.60193"
       y2="365.76117" />
    <pattern
       y="0"
       x="0"
       height="6"
       width="6"
       patternUnits="userSpaceOnUse"
       id="EMFhbasepattern" />
    <pattern
       y="0"
       x="0"
       height="6"
       width="6"
       patternUnits="userSpaceOnUse"
       id="EMFhbasepattern-3" />
    <radialGradient
       inkscape:collect="always"
       xlink:href="#linearGradient4194"
       id="radialGradient4196-5-9-8-9-7-3-0-5-4-1-4-7"
       cx="767.76257"
       cy="268.91211"
       fx="767.76257"
       fy="268.91211"
       r="32.034878"
       gradientTransform="matrix(55.456115,-4.3020968e-4,0,0.14831094,-42327.924,1001.5211)"
       gradientUnits="userSpaceOnUse" />
  </defs>
  <sodipodi:namedview
     id="base"
     pagecolor="#ffffff"
     bordercolor="#666666"
     borderopacity="1.0"
     inkscape:pageopacity="0.0"
     inkscape:pageshadow="2"
     inkscape:zoom="11.057964"
     inkscape:cx="195.75316"
     inkscape:cy="3.5828345"
     inkscape:document-units="px"
     inkscape:current-layer="layer1"
     showgrid="false"
     units="px"
     inkscape:window-width="1920"
     inkscape:window-height="1028"
     inkscape:window-x="-8"
     inkscape:window-y="-8"
     inkscape:window-maximized="1"
     objecttolerance="10"
     guidetolerance="9"
     showguides="true"
     inkscape:guide-bbox="true" />
  <metadata
     id="metadata7">
    <rdf:RDF>
      <cc:Work
         rdf:about="">
        <dc:format>image/svg+xml</dc:format>
        <dc:type
           rdf:resource="http://purl.org/dc/dcmitype/StillImage" />
        <dc:title />
        <dc:creator>
          <cc:Agent>
            <dc:title>Jorge Rosa</dc:title>
          </cc:Agent>
        </dc:creator>
        <dc:description>Email: jorge.bigarte@gmail.com
Site:https://sites.google.com/site/jorgerosaportfolio</dc:description>
      </cc:Work>
    </rdf:RDF>
  </metadata>
  <g
     inkscape:label="Layer 1"
     inkscape:groupmode="layer"
     id="layer1"
     transform="translate(0,-1029.3622)">
    <path
       style="opacity:1;fill:url(#radialGradient4196-5-9-8-9-7-3-0-5-4-1-4-7);fill-opacity:1;stroke:none;stroke-width:1.10517204;stroke-linecap:round;stroke-linejoin:round;stroke-miterlimit:4;stroke-dasharray:none;stroke-dashoffset:0;stroke-opacity:1"
       d="m 0,1029.3622 500,0 0,12.5783 -500,0 z"
       id="rect4183-1-5-8-7-6-9-9-0-3-8-5-5"
       inkscape:connector-curvature="0" />
    <path
       style="opacity:1;fill:url(#radialGradient4196-5-9-8-9-7-3-0-5-4-1-4);fill-opacity:1;stroke:none;stroke-width:1.10517204;stroke-linecap:round;stroke-linejoin:round;stroke-miterlimit:4;stroke-dasharray:none;stroke-dashoffset:0;stroke-opacity:1"
       d="m 2e-6,1041.7204 499.999998,0 0,10.6418 -499.999998,0 z"
       id="rect4183-1-5-8-7-6-9-9-0-3-8-5"
       inkscape:connector-curvature="0" />
    <g
       transform="matrix(1.1265319,0,0,1.1581601,-71.378376,-180.05373)"
       style="font-style:normal;font-weight:normal;font-size:16.43190956px;line-height:125%;font-family:sans-serif;letter-spacing:0px;word-spacing:0px;opacity:0.1;fill:#ff00ff;fill-opacity:1;stroke:none;stroke-width:1px;stroke-linecap:butt;stroke-linejoin:miter;stroke-opacity:1"
       id="text6116-5">
      <path
         d="m 65.099237,1050.1049 0.706058,-0.7061 5.431838,0 0.706058,0.7061 -0.706058,0.714 -5.431838,0 -0.706058,-0.714 0,0 z m 0,4.9023 0.706058,-0.6981 5.431838,0 0.706058,0.6981 -0.706058,0.714 -5.431838,0 -0.706058,-0.714 0,0 z m 0,4.9103 0.706058,-0.7061 5.431838,0 0.706058,0.7061 -0.706058,0.706 -5.431838,0 -0.706058,-0.706 0,0 z m 6.843954,-4.9103 0.706059,0.714 0,3.4902 -0.706059,0.7061 -0.706058,-0.7061 0,-3.4902 0.706058,-0.714 0,0 z m 0,-4.9023 0.706059,0.714 0,3.4902 -0.706059,0.6981 -0.706058,-0.6981 0,-3.4902 0.706058,-0.714 0,0 z m -6.843954,0 -0.706059,0.714 0,3.4902 0.706059,0.6981 0.706058,-0.6981 0,-3.4902 -0.706058,-0.714 0,0 z m 0,9.8126 -0.706059,-0.7061 0,-3.4902 0.706059,-0.714 0.706058,0.714 0,3.4902 -0.706058,0.7061 0,0 z"
         style="font-style:normal;font-variant:normal;font-weight:normal;font-stretch:normal;font-family:Digital;-inkscape-font-specification:Digital;fill:#ff00ff;fill-opacity:1"
         id="path4573"
         inkscape:connector-curvature="0" />
      <path
         d="m 74.951959,1050.1049 0.706059,-0.7061 5.431837,0 0.706059,0.7061 -0.706059,0.714 -5.431837,0 -0.706059,-0.714 0,0 z m 0,4.9023 0.706059,-0.6981 5.431837,0 0.706059,0.6981 -0.706059,0.714 -5.431837,0 -0.706059,-0.714 0,0 z m 0,4.9103 0.706059,-0.7061 5.431837,0 0.706059,0.7061 -0.706059,0.706 -5.431837,0 -0.706059,-0.706 0,0 z m 6.843955,-4.9103 0.706058,0.714 0,3.4902 -0.706058,0.7061 -0.706059,-0.7061 0,-3.4902 0.706059,-0.714 0,0 z m 0,-4.9023 0.706058,0.714 0,3.4902 -0.706058,0.6981 -0.706059,-0.6981 0,-3.4902 0.706059,-0.714 0,0 z m -6.843955,0 -0.706059,0.714 0,3.4902 0.706059,0.6981 0.706059,-0.6981 0,-3.4902 -0.706059,-0.714 0,0 z m 0,9.8126 -0.706059,-0.7061 0,-3.4902 0.706059,-0.714 0.706059,0.714 0,3.4902 -0.706059,0.7061 0,0 z"
         style="font-style:normal;font-variant:normal;font-weight:normal;font-stretch:normal;font-family:Digital;-inkscape-font-specification:Digital;fill:#ff00ff;fill-opacity:1"
         id="path4575"
         inkscape:connector-curvature="0" />
      <path
         d="m 84.804689,1050.1049 0.706058,-0.7061 5.431838,0 0.706058,0.7061 -0.706058,0.714 -5.431838,0 -0.706058,-0.714 0,0 z m 0,4.9023 0.706058,-0.6981 5.431838,0 0.706058,0.6981 -0.706058,0.714 -5.431838,0 -0.706058,-0.714 0,0 z m 0,4.9103 0.706058,-0.7061 5.431838,0 0.706058,0.7061 -0.706058,0.706 -5.431838,0 -0.706058,-0.706 0,0 z m 6.843954,-4.9103 0.706059,0.714 0,3.4902 -0.706059,0.7061 -0.706058,-0.7061 0,-3.4902 0.706058,-0.714 0,0 z m 0,-4.9023 0.706059,0.714 0,3.4902 -0.706059,0.6981 -0.706058,-0.6981 0,-3.4902 0.706058,-0.714 0,0 z m -6.843954,0 -0.706059,0.714 0,3.4902 0.706059,0.6981 0.706058,-0.6981 0,-3.4902 -0.706058,-0.714 0,0 z m 0,9.8126 -0.706059,-0.7061 0,-3.4902 0.706059,-0.714 0.706058,0.714 0,3.4902 -0.706058,0.7061 0,0 z"
         style="font-style:normal;font-variant:normal;font-weight:normal;font-stretch:normal;font-family:Digital;-inkscape-font-specification:Digital;fill:#ff00ff;fill-opacity:1"
         id="path4577"
         inkscape:connector-curvature="0" />
      <path
         d="m 94.657419,1050.1049 0.706058,-0.7061 5.431833,0 0.70606,0.7061 -0.70606,0.714 -5.431833,0 -0.706058,-0.714 0,0 z m 0,4.9023 0.706058,-0.6981 5.431833,0 0.70606,0.6981 -0.70606,0.714 -5.431833,0 -0.706058,-0.714 0,0 z m 0,4.9103 0.706058,-0.7061 5.431833,0 0.70606,0.7061 -0.70606,0.706 -5.431833,0 -0.706058,-0.706 0,0 z m 6.843951,-4.9103 0.70606,0.714 0,3.4902 -0.70606,0.7061 -0.70606,-0.7061 0,-3.4902 0.70606,-0.714 0,0 z m 0,-4.9023 0.70606,0.714 0,3.4902 -0.70606,0.6981 -0.70606,-0.6981 0,-3.4902 0.70606,-0.714 0,0 z m -6.843951,0 -0.706059,0.714 0,3.4902 0.706059,0.6981 0.706058,-0.6981 0,-3.4902 -0.706058,-0.714 0,0 z m 0,9.8126 -0.706059,-0.7061 0,-3.4902 0.706059,-0.714 0.706058,0.714 0,3.4902 -0.706058,0.7061 0,0 z"
         style="font-style:normal;font-variant:normal;font-weight:normal;font-stretch:normal;font-family:Digital;-inkscape-font-specification:Digital;fill:#ff00ff;fill-opacity:1"
         id="path4579"
         inkscape:connector-curvature="0" />
      <path
         d="m 104.51014,1050.1049 0.70606,-0.7061 5.43184,0 0.70606,0.7061 -0.70606,0.714 -5.43184,0 -0.70606,-0.714 0,0 z m 0,4.9023 0.70606,-0.6981 5.43184,0 0.70606,0.6981 -0.70606,0.714 -5.43184,0 -0.70606,-0.714 0,0 z m 0,4.9103 0.70606,-0.7061 5.43184,0 0.70606,0.7061 -0.70606,0.706 -5.43184,0 -0.70606,-0.706 0,0 z m 6.84396,-4.9103 0.70605,0.714 0,3.4902 -0.70605,0.7061 -0.70606,-0.7061 0,-3.4902 0.70606,-0.714 0,0 z m 0,-4.9023 0.70605,0.714 0,3.4902 -0.70605,0.6981 -0.70606,-0.6981 0,-3.4902 0.70606,-0.714 0,0 z m -6.84396,0 -0.70606,0.714 0,3.4902 0.70606,0.6981 0.70606,-0.6981 0,-3.4902 -0.70606,-0.714 0,0 z m 0,9.8126 -0.70606,-0.7061 0,-3.4902 0.70606,-0.714 0.70606,0.714 0,3.4902 -0.70606,0.7061 0,0 z"
         style="font-style:normal;font-variant:normal;font-weight:normal;font-stretch:normal;font-family:Digital;-inkscape-font-specification:Digital;fill:#ff00ff;fill-opacity:1"
         id="path4581"
         inkscape:connector-curvature="0" />
      <path
         d="m 114.36287,1050.1049 0.70606,-0.7061 5.43184,0 0.70606,0.7061 -0.70606,0.714 -5.43184,0 -0.70606,-0.714 0,0 z m 0,4.9023 0.70606,-0.6981 5.43184,0 0.70606,0.6981 -0.70606,0.714 -5.43184,0 -0.70606,-0.714 0,0 z m 0,4.9103 0.70606,-0.7061 5.43184,0 0.70606,0.7061 -0.70606,0.706 -5.43184,0 -0.70606,-0.706 0,0 z m 6.84396,-4.9103 0.70605,0.714 0,3.4902 -0.70605,0.7061 -0.70606,-0.7061 0,-3.4902 0.70606,-0.714 0,0 z m 0,-4.9023 0.70605,0.714 0,3.4902 -0.70605,0.6981 -0.70606,-0.6981 0,-3.4902 0.70606,-0.714 0,0 z m -6.84396,0 -0.70606,0.714 0,3.4902 0.70606,0.6981 0.70606,-0.6981 0,-3.4902 -0.70606,-0.714 0,0 z m 0,9.8126 -0.70606,-0.7061 0,-3.4902 0.70606,-0.714 0.70606,0.714 0,3.4902 -0.70606,0.7061 0,0 z"
         style="font-style:normal;font-variant:normal;font-weight:normal;font-stretch:normal;font-family:Digital;-inkscape-font-specification:Digital;fill:#ff00ff;fill-opacity:1"
         id="path4583"
         inkscape:connector-curvature="0" />
      <path
         d="m 124.2156,1050.1049 0.70606,-0.7061 5.43184,0 0.70605,0.7061 -0.70605,0.714 -5.43184,0 -0.70606,-0.714 0,0 z m 0,4.9023 0.70606,-0.6981 5.43184,0 0.70605,0.6981 -0.70605,0.714 -5.43184,0 -0.70606,-0.714 0,0 z m 0,4.9103 0.70606,-0.7061 5.43184,0 0.70605,0.7061 -0.70605,0.706 -5.43184,0 -0.70606,-0.706 0,0 z m 6.84395,-4.9103 0.70606,0.714 0,3.4902 -0.70606,0.7061 -0.70605,-0.7061 0,-3.4902 0.70605,-0.714 0,0 z m 0,-4.9023 0.70606,0.714 0,3.4902 -0.70606,0.6981 -0.70605,-0.6981 0,-3.4902 0.70605,-0.714 0,0 z m -6.84395,0 -0.70606,0.714 0,3.4902 0.70606,0.6981 0.70606,-0.6981 0,-3.4902 -0.70606,-0.714 0,0 z m 0,9.8126 -0.70606,-0.7061 0,-3.4902 0.70606,-0.714 0.70606,0.714 0,3.4902 -0.70606,0.7061 0,0 z"
         style="font-style:normal;font-variant:normal;font-weight:normal;font-stretch:normal;font-family:Digital;-inkscape-font-specification:Digital;fill:#ff00ff;fill-opacity:1"
         id="path4585"
         inkscape:connector-curvature="0" />
      <path
         d="m 134.06832,1050.1049 0.70606,-0.7061 5.43184,0 0.70606,0.7061 -0.70606,0.714 -5.43184,0 -0.70606,-0.714 0,0 z m 0,4.9023 0.70606,-0.6981 5.43184,0 0.70606,0.6981 -0.70606,0.714 -5.43184,0 -0.70606,-0.714 0,0 z m 0,4.9103 0.70606,-0.7061 5.43184,0 0.70606,0.7061 -0.70606,0.706 -5.43184,0 -0.70606,-0.706 0,0 z m 6.84396,-4.9103 0.70606,0.714 0,3.4902 -0.70606,0.7061 -0.70606,-0.7061 0,-3.4902 0.70606,-0.714 0,0 z m 0,-4.9023 0.70606,0.714 0,3.4902 -0.70606,0.6981 -0.70606,-0.6981 0,-3.4902 0.70606,-0.714 0,0 z m -6.84396,0 -0.70606,0.714 0,3.4902 0.70606,0.6981 0.70606,-0.6981 0,-3.4902 -0.70606,-0.714 0,0 z m 0,9.8126 -0.70606,-0.7061 0,-3.4902 0.70606,-0.714 0.70606,0.714 0,3.4902 -0.70606,0.7061 0,0 z"
         style="font-style:normal;font-variant:normal;font-weight:normal;font-stretch:normal;font-family:Digital;-inkscape-font-specification:Digital;fill:#ff00ff;fill-opacity:1"
         id="path4587"
         inkscape:connector-curvature="0" />
      <path
         d="m 143.92104,1050.1049 0.70606,-0.7061 5.43184,0 0.70606,0.7061 -0.70606,0.714 -5.43184,0 -0.70606,-0.714 0,0 z m 0,4.9023 0.70606,-0.6981 5.43184,0 0.70606,0.6981 -0.70606,0.714 -5.43184,0 -0.70606,-0.714 0,0 z m 0,4.9103 0.70606,-0.7061 5.43184,0 0.70606,0.7061 -0.70606,0.706 -5.43184,0 -0.70606,-0.706 0,0 z m 6.84396,-4.9103 0.70606,0.714 0,3.4902 -0.70606,0.7061 -0.70606,-0.7061 0,-3.4902 0.70606,-0.714 0,0 z m 0,-4.9023 0.70606,0.714 0,3.4902 -0.70606,0.6981 -0.70606,-0.6981 0,-3.4902 0.70606,-0.714 0,0 z m -6.84396,0 -0.70605,0.714 0,3.4902 0.70605,0.6981 0.70606,-0.6981 0,-3.4902 -0.70606,-0.714 0,0 z m 0,9.8126 -0.70605,-0.7061 0,-3.4902 0.70605,-0.714 0.70606,0.714 0,3.4902 -0.70606,0.7061 0,0 z"
         style="font-style:normal;font-variant:normal;font-weight:normal;font-stretch:normal;font-family:Digital;-inkscape-font-specification:Digital;fill:#ff00ff;fill-opacity:1"
         id="path4589"
         inkscape:connector-curvature="0" />
      <path
         d="m 153.77378,1050.1049 0.70606,-0.7061 5.43184,0 0.70606,0.7061 -0.70606,0.714 -5.43184,0 -0.70606,-0.714 0,0 z m 0,4.9023 0.70606,-0.6981 5.43184,0 0.70606,0.6981 -0.70606,0.714 -5.43184,0 -0.70606,-0.714 0,0 z m 0,4.9103 0.70606,-0.7061 5.43184,0 0.70606,0.7061 -0.70606,0.706 -5.43184,0 -0.70606,-0.706 0,0 z m 6.84396,-4.9103 0.70606,0.714 0,3.4902 -0.70606,0.7061 -0.70606,-0.7061 0,-3.4902 0.70606,-0.714 0,0 z m 0,-4.9023 0.70606,0.714 0,3.4902 -0.70606,0.6981 -0.70606,-0.6981 0,-3.4902 0.70606,-0.714 0,0 z m -6.84396,0 -0.70606,0.714 0,3.4902 0.70606,0.6981 0.70606,-0.6981 0,-3.4902 -0.70606,-0.714 0,0 z m 0,9.8126 -0.70606,-0.7061 0,-3.4902 0.70606,-0.714 0.70606,0.714 0,3.4902 -0.70606,0.7061 0,0 z"
         style="font-style:normal;font-variant:normal;font-weight:normal;font-stretch:normal;font-family:Digital;-inkscape-font-specification:Digital;fill:#ff00ff;fill-opacity:1"
         id="path4591"
         inkscape:connector-curvature="0" />
      <path
         d="m 163.6265,1050.1049 0.70606,-0.7061 5.43184,0 0.70606,0.7061 -0.70606,0.714 -5.43184,0 -0.70606,-0.714 0,0 z m 0,4.9023 0.70606,-0.6981 5.43184,0 0.70606,0.6981 -0.70606,0.714 -5.43184,0 -0.70606,-0.714 0,0 z m 0,4.9103 0.70606,-0.7061 5.43184,0 0.70606,0.7061 -0.70606,0.706 -5.43184,0 -0.70606,-0.706 0,0 z m 6.84396,-4.9103 0.70606,0.714 0,3.4902 -0.70606,0.7061 -0.70606,-0.7061 0,-3.4902 0.70606,-0.714 0,0 z m 0,-4.9023 0.70606,0.714 0,3.4902 -0.70606,0.6981 -0.70606,-0.6981 0,-3.4902 0.70606,-0.714 0,0 z m -6.84396,0 -0.70605,0.714 0,3.4902 0.70605,0.6981 0.70606,-0.6981 0,-3.4902 -0.70606,-0.714 0,0 z m 0,9.8126 -0.70605,-0.7061 0,-3.4902 0.70605,-0.714 0.70606,0.714 0,3.4902 -0.70606,0.7061 0,0 z"
         style="font-style:normal;font-variant:normal;font-weight:normal;font-stretch:normal;font-family:Digital;-inkscape-font-specification:Digital;fill:#ff00ff;fill-opacity:1"
         id="path4593"
         inkscape:connector-curvature="0" />
      <path
         d="m 173.47923,1050.1049 0.70606,-0.7061 5.43183,0 0.70606,0.7061 -0.70606,0.714 -5.43183,0 -0.70606,-0.714 0,0 z m 0,4.9023 0.70606,-0.6981 5.43183,0 0.70606,0.6981 -0.70606,0.714 -5.43183,0 -0.70606,-0.714 0,0 z m 0,4.9103 0.70606,-0.7061 5.43183,0 0.70606,0.7061 -0.70606,0.706 -5.43183,0 -0.70606,-0.706 0,0 z m 6.84395,-4.9103 0.70606,0.714 0,3.4902 -0.70606,0.7061 -0.70606,-0.7061 0,-3.4902 0.70606,-0.714 0,0 z m 0,-4.9023 0.70606,0.714 0,3.4902 -0.70606,0.6981 -0.70606,-0.6981 0,-3.4902 0.70606,-0.714 0,0 z m -6.84395,0 -0.70606,0.714 0,3.4902 0.70606,0.6981 0.70606,-0.6981 0,-3.4902 -0.70606,-0.714 0,0 z m 0,9.8126 -0.70606,-0.7061 0,-3.4902 0.70606,-0.714 0.70606,0.714 0,3.4902 -0.70606,0.7061 0,0 z"
         style="font-style:normal;font-variant:normal;font-weight:normal;font-stretch:normal;font-family:Digital;-inkscape-font-specification:Digital;fill:#ff00ff;fill-opacity:1"
         id="path4595"
         inkscape:connector-curvature="0" />
      <path
         d="m 183.33196,1050.1049 0.70606,-0.7061 5.43184,0 0.70606,0.7061 -0.70606,0.714 -5.43184,0 -0.70606,-0.714 0,0 z m 0,4.9023 0.70606,-0.6981 5.43184,0 0.70606,0.6981 -0.70606,0.714 -5.43184,0 -0.70606,-0.714 0,0 z m 0,4.9103 0.70606,-0.7061 5.43184,0 0.70606,0.7061 -0.70606,0.706 -5.43184,0 -0.70606,-0.706 0,0 z m 6.84396,-4.9103 0.70606,0.714 0,3.4902 -0.70606,0.7061 -0.70606,-0.7061 0,-3.4902 0.70606,-0.714 0,0 z m 0,-4.9023 0.70606,0.714 0,3.4902 -0.70606,0.6981 -0.70606,-0.6981 0,-3.4902 0.70606,-0.714 0,0 z m -6.84396,0 -0.70605,0.714 0,3.4902 0.70605,0.6981 0.70606,-0.6981 0,-3.4902 -0.70606,-0.714 0,0 z m 0,9.8126 -0.70605,-0.7061 0,-3.4902 0.70605,-0.714 0.70606,0.714 0,3.4902 -0.70606,0.7061 0,0 z"
         style="font-style:normal;font-variant:normal;font-weight:normal;font-stretch:normal;font-family:Digital;-inkscape-font-specification:Digital;fill:#ff00ff;fill-opacity:1"
         id="path4597"
         inkscape:connector-curvature="0" />
      <path
         d="m 193.18469,1050.1049 0.70605,-0.7061 5.43184,0 0.70606,0.7061 -0.70606,0.714 -5.43184,0 -0.70605,-0.714 0,0 z m 0,4.9023 0.70605,-0.6981 5.43184,0 0.70606,0.6981 -0.70606,0.714 -5.43184,0 -0.70605,-0.714 0,0 z m 0,4.9103 0.70605,-0.7061 5.43184,0 0.70606,0.7061 -0.70606,0.706 -5.43184,0 -0.70605,-0.706 0,0 z m 6.84395,-4.9103 0.70606,0.714 0,3.4902 -0.70606,0.7061 -0.70606,-0.7061 0,-3.4902 0.70606,-0.714 0,0 z m 0,-4.9023 0.70606,0.714 0,3.4902 -0.70606,0.6981 -0.70606,-0.6981 0,-3.4902 0.70606,-0.714 0,0 z m -6.84395,0 -0.70606,0.714 0,3.4902 0.70606,0.6981 0.70605,-0.6981 0,-3.4902 -0.70605,-0.714 0,0 z m 0,9.8126 -0.70606,-0.7061 0,-3.4902 0.70606,-0.714 0.70605,0.714 0,3.4902 -0.70605,0.7061 0,0 z"
         style="font-style:normal;font-variant:normal;font-weight:normal;font-stretch:normal;font-family:Digital;-inkscape-font-specification:Digital;fill:#ff00ff;fill-opacity:1"
         id="path4599"
         inkscape:connector-curvature="0" />
      <path
         d="m 203.03741,1050.1049 0.70606,-0.7061 5.43183,0 0.70606,0.7061 -0.70606,0.714 -5.43183,0 -0.70606,-0.714 0,0 z m 0,4.9023 0.70606,-0.6981 5.43183,0 0.70606,0.6981 -0.70606,0.714 -5.43183,0 -0.70606,-0.714 0,0 z m 0,4.9103 0.70606,-0.7061 5.43183,0 0.70606,0.7061 -0.70606,0.706 -5.43183,0 -0.70606,-0.706 0,0 z m 6.84395,-4.9103 0.70606,0.714 0,3.4902 -0.70606,0.7061 -0.70606,-0.7061 0,-3.4902 0.70606,-0.714 0,0 z m 0,-4.9023 0.70606,0.714 0,3.4902 -0.70606,0.6981 -0.70606,-0.6981 0,-3.4902 0.70606,-0.714 0,0 z m -6.84395,0 -0.70606,0.714 0,3.4902 0.70606,0.6981 0.70606,-0.6981 0,-3.4902 -0.70606,-0.714 0,0 z m 0,9.8126 -0.70606,-0.7061 0,-3.4902 0.70606,-0.714 0.70606,0.714 0,3.4902 -0.70606,0.7061 0,0 z"
         style="font-style:normal;font-variant:normal;font-weight:normal;font-stretch:normal;font-family:Digital;-inkscape-font-specification:Digital;fill:#ff00ff;fill-opacity:1"
         id="path4601"
         inkscape:connector-curvature="0" />
      <path
         d="m 212.89015,1050.1049 0.70605,-0.7061 5.43184,0 0.70606,0.7061 -0.70606,0.714 -5.43184,0 -0.70605,-0.714 0,0 z m 0,4.9023 0.70605,-0.6981 5.43184,0 0.70606,0.6981 -0.70606,0.714 -5.43184,0 -0.70605,-0.714 0,0 z m 0,4.9103 0.70605,-0.7061 5.43184,0 0.70606,0.7061 -0.70606,0.706 -5.43184,0 -0.70605,-0.706 0,0 z m 6.84395,-4.9103 0.70606,0.714 0,3.4902 -0.70606,0.7061 -0.70606,-0.7061 0,-3.4902 0.70606,-0.714 0,0 z m 0,-4.9023 0.70606,0.714 0,3.4902 -0.70606,0.6981 -0.70606,-0.6981 0,-3.4902 0.70606,-0.714 0,0 z m -6.84395,0 -0.70606,0.714 0,3.4902 0.70606,0.6981 0.70605,-0.6981 0,-3.4902 -0.70605,-0.714 0,0 z m 0,9.8126 -0.70606,-0.7061 0,-3.4902 0.70606,-0.714 0.70605,0.714 0,3.4902 -0.70605,0.7061 0,0 z"
         style="font-style:normal;font-variant:normal;font-weight:normal;font-stretch:normal;font-family:Digital;-inkscape-font-specification:Digital;fill:#ff00ff;fill-opacity:1"
         id="path4603"
         inkscape:connector-curvature="0" />
      <path
         d="m 222.74287,1050.1049 0.70606,-0.7061 5.43183,0 0.70606,0.7061 -0.70606,0.714 -5.43183,0 -0.70606,-0.714 0,0 z m 0,4.9023 0.70606,-0.6981 5.43183,0 0.70606,0.6981 -0.70606,0.714 -5.43183,0 -0.70606,-0.714 0,0 z m 0,4.9103 0.70606,-0.7061 5.43183,0 0.70606,0.7061 -0.70606,0.706 -5.43183,0 -0.70606,-0.706 0,0 z m 6.84395,-4.9103 0.70606,0.714 0,3.4902 -0.70606,0.7061 -0.70606,-0.7061 0,-3.4902 0.70606,-0.714 0,0 z m 0,-4.9023 0.70606,0.714 0,3.4902 -0.70606,0.6981 -0.70606,-0.6981 0,-3.4902 0.70606,-0.714 0,0 z m -6.84395,0 -0.70606,0.714 0,3.4902 0.70606,0.6981 0.70606,-0.6981 0,-3.4902 -0.70606,-0.714 0,0 z m 0,9.8126 -0.70606,-0.7061 0,-3.4902 0.70606,-0.714 0.70606,0.714 0,3.4902 -0.70606,0.7061 0,0 z"
         style="font-style:normal;font-variant:normal;font-weight:normal;font-stretch:normal;font-family:Digital;-inkscape-font-specification:Digital;fill:#ff00ff;fill-opacity:1"
         id="path4605"
         inkscape:connector-curvature="0" />
      <path
         d="m 232.59559,1050.1049 0.70606,-0.7061 5.43184,0 0.70605,0.7061 -0.70605,0.714 -5.43184,0 -0.70606,-0.714 0,0 z m 0,4.9023 0.70606,-0.6981 5.43184,0 0.70605,0.6981 -0.70605,0.714 -5.43184,0 -0.70606,-0.714 0,0 z m 0,4.9103 0.70606,-0.7061 5.43184,0 0.70605,0.7061 -0.70605,0.706 -5.43184,0 -0.70606,-0.706 0,0 z m 6.84395,-4.9103 0.70606,0.714 0,3.4902 -0.70606,0.7061 -0.70605,-0.7061 0,-3.4902 0.70605,-0.714 0,0 z m 0,-4.9023 0.70606,0.714 0,3.4902 -0.70606,0.6981 -0.70605,-0.6981 0,-3.4902 0.70605,-0.714 0,0 z m -6.84395,0 -0.70606,0.714 0,3.4902 0.70606,0.6981 0.70606,-0.6981 0,-3.4902 -0.70606,-0.714 0,0 z m 0,9.8126 -0.70606,-0.7061 0,-3.4902 0.70606,-0.714 0.70606,0.714 0,3.4902 -0.70606,0.7061 0,0 z"
         style="font-style:normal;font-variant:normal;font-weight:normal;font-stretch:normal;font-family:Digital;-inkscape-font-specification:Digital;fill:#ff00ff;fill-opacity:1"
         id="path4607"
         inkscape:connector-curvature="0" />
      <path
         d="m 242.44833,1050.1049 0.70606,-0.7061 5.43183,0 0.70606,0.7061 -0.70606,0.714 -5.43183,0 -0.70606,-0.714 0,0 z m 0,4.9023 0.70606,-0.6981 5.43183,0 0.70606,0.6981 -0.70606,0.714 -5.43183,0 -0.70606,-0.714 0,0 z m 0,4.9103 0.70606,-0.7061 5.43183,0 0.70606,0.7061 -0.70606,0.706 -5.43183,0 -0.70606,-0.706 0,0 z m 6.84395,-4.9103 0.70606,0.714 0,3.4902 -0.70606,0.7061 -0.70606,-0.7061 0,-3.4902 0.70606,-0.714 0,0 z m 0,-4.9023 0.70606,0.714 0,3.4902 -0.70606,0.6981 -0.70606,-0.6981 0,-3.4902 0.70606,-0.714 0,0 z m -6.84395,0 -0.70606,0.714 0,3.4902 0.70606,0.6981 0.70606,-0.6981 0,-3.4902 -0.70606,-0.714 0,0 z m 0,9.8126 -0.70606,-0.7061 0,-3.4902 0.70606,-0.714 0.70606,0.714 0,3.4902 -0.70606,0.7061 0,0 z"
         style="font-style:normal;font-variant:normal;font-weight:normal;font-stretch:normal;font-family:Digital;-inkscape-font-specification:Digital;fill:#ff00ff;fill-opacity:1"
         id="path4609"
         inkscape:connector-curvature="0" />
      <path
         d="m 252.30105,1050.1049 0.70606,-0.7061 5.43184,0 0.70605,0.7061 -0.70605,0.714 -5.43184,0 -0.70606,-0.714 0,0 z m 0,4.9023 0.70606,-0.6981 5.43184,0 0.70605,0.6981 -0.70605,0.714 -5.43184,0 -0.70606,-0.714 0,0 z m 0,4.9103 0.70606,-0.7061 5.43184,0 0.70605,0.7061 -0.70605,0.706 -5.43184,0 -0.70606,-0.706 0,0 z m 6.84395,-4.9103 0.70606,0.714 0,3.4902 -0.70606,0.7061 -0.70605,-0.7061 0,-3.4902 0.70605,-0.714 0,0 z m 0,-4.9023 0.70606,0.714 0,3.4902 -0.70606,0.6981 -0.70605,-0.6981 0,-3.4902 0.70605,-0.714 0,0 z m -6.84395,0 -0.70606,0.714 0,3.4902 0.70606,0.6981 0.70606,-0.6981 0,-3.4902 -0.70606,-0.714 0,0 z m 0,9.8126 -0.70606,-0.7061 0,-3.4902 0.70606,-0.714 0.70606,0.714 0,3.4902 -0.70606,0.7061 0,0 z"
         style="font-style:normal;font-variant:normal;font-weight:normal;font-stretch:normal;font-family:Digital;-inkscape-font-specification:Digital;fill:#ff00ff;fill-opacity:1"
         id="path4611"
         inkscape:connector-curvature="0" />
      <path
         d="m 262.15377,1050.1049 0.70606,-0.7061 5.43184,0 0.70606,0.7061 -0.70606,0.714 -5.43184,0 -0.70606,-0.714 0,0 z m 0,4.9023 0.70606,-0.6981 5.43184,0 0.70606,0.6981 -0.70606,0.714 -5.43184,0 -0.70606,-0.714 0,0 z m 0,4.9103 0.70606,-0.7061 5.43184,0 0.70606,0.7061 -0.70606,0.706 -5.43184,0 -0.70606,-0.706 0,0 z m 6.84396,-4.9103 0.70605,0.714 0,3.4902 -0.70605,0.7061 -0.70606,-0.7061 0,-3.4902 0.70606,-0.714 0,0 z m 0,-4.9023 0.70605,0.714 0,3.4902 -0.70605,0.6981 -0.70606,-0.6981 0,-3.4902 0.70606,-0.714 0,0 z m -6.84396,0 -0.70606,0.714 0,3.4902 0.70606,0.6981 0.70606,-0.6981 0,-3.4902 -0.70606,-0.714 0,0 z m 0,9.8126 -0.70606,-0.7061 0,-3.4902 0.70606,-0.714 0.70606,0.714 0,3.4902 -0.70606,0.7061 0,0 z"
         style="font-style:normal;font-variant:normal;font-weight:normal;font-stretch:normal;font-family:Digital;-inkscape-font-specification:Digital;fill:#ff00ff;fill-opacity:1"
         id="path4613"
         inkscape:connector-curvature="0" />
      <path
         d="m 272.00649,1050.1049 0.70606,-0.7061 5.43184,0 0.70606,0.7061 -0.70606,0.714 -5.43184,0 -0.70606,-0.714 0,0 z m 0,4.9023 0.70606,-0.6981 5.43184,0 0.70606,0.6981 -0.70606,0.714 -5.43184,0 -0.70606,-0.714 0,0 z m 0,4.9103 0.70606,-0.7061 5.43184,0 0.70606,0.7061 -0.70606,0.706 -5.43184,0 -0.70606,-0.706 0,0 z m 6.84396,-4.9103 0.70606,0.714 0,3.4902 -0.70606,0.7061 -0.70606,-0.7061 0,-3.4902 0.70606,-0.714 0,0 z m 0,-4.9023 0.70606,0.714 0,3.4902 -0.70606,0.6981 -0.70606,-0.6981 0,-3.4902 0.70606,-0.714 0,0 z m -6.84396,0 -0.70605,0.714 0,3.4902 0.70605,0.6981 0.70606,-0.6981 0,-3.4902 -0.70606,-0.714 0,0 z m 0,9.8126 -0.70605,-0.7061 0,-3.4902 0.70605,-0.714 0.70606,0.714 0,3.4902 -0.70606,0.7061 0,0 z"
         style="font-style:normal;font-variant:normal;font-weight:normal;font-stretch:normal;font-family:Digital;-inkscape-font-specification:Digital;fill:#ff00ff;fill-opacity:1"
         id="path4615"
         inkscape:connector-curvature="0" />
      <path
         d="m 281.85922,1050.1049 0.70605,-0.7061 5.43184,0 0.70606,0.7061 -0.70606,0.714 -5.43184,0 -0.70605,-0.714 0,0 z m 0,4.9023 0.70605,-0.6981 5.43184,0 0.70606,0.6981 -0.70606,0.714 -5.43184,0 -0.70605,-0.714 0,0 z m 0,4.9103 0.70605,-0.7061 5.43184,0 0.70606,0.7061 -0.70606,0.706 -5.43184,0 -0.70605,-0.706 0,0 z m 6.84395,-4.9103 0.70606,0.714 0,3.4902 -0.70606,0.7061 -0.70606,-0.7061 0,-3.4902 0.70606,-0.714 0,0 z m 0,-4.9023 0.70606,0.714 0,3.4902 -0.70606,0.6981 -0.70606,-0.6981 0,-3.4902 0.70606,-0.714 0,0 z m -6.84395,0 -0.70606,0.714 0,3.4902 0.70606,0.6981 0.70605,-0.6981 0,-3.4902 -0.70605,-0.714 0,0 z m 0,9.8126 -0.70606,-0.7061 0,-3.4902 0.70606,-0.714 0.70605,0.714 0,3.4902 -0.70605,0.7061 0,0 z"
         style="font-style:normal;font-variant:normal;font-weight:normal;font-stretch:normal;font-family:Digital;-inkscape-font-specification:Digital;fill:#ff00ff;fill-opacity:1"
         id="path4617"
         inkscape:connector-curvature="0" />
      <path
         d="m 291.71197,1050.1049 0.70606,-0.7061 5.43183,0 0.70606,0.7061 -0.70606,0.714 -5.43183,0 -0.70606,-0.714 0,0 z m 0,4.9023 0.70606,-0.6981 5.43183,0 0.70606,0.6981 -0.70606,0.714 -5.43183,0 -0.70606,-0.714 0,0 z m 0,4.9103 0.70606,-0.7061 5.43183,0 0.70606,0.7061 -0.70606,0.706 -5.43183,0 -0.70606,-0.706 0,0 z m 6.84395,-4.9103 0.70606,0.714 0,3.4902 -0.70606,0.7061 -0.70606,-0.7061 0,-3.4902 0.70606,-0.714 0,0 z m 0,-4.9023 0.70606,0.714 0,3.4902 -0.70606,0.6981 -0.70606,-0.6981 0,-3.4902 0.70606,-0.714 0,0 z m -6.84395,0 -0.70606,0.714 0,3.4902 0.70606,0.6981 0.70606,-0.6981 0,-3.4902 -0.70606,-0.714 0,0 z m 0,9.8126 -0.70606,-0.7061 0,-3.4902 0.70606,-0.714 0.70606,0.714 0,3.4902 -0.70606,0.7061 0,0 z"
         style="font-style:normal;font-variant:normal;font-weight:normal;font-stretch:normal;font-family:Digital;-inkscape-font-specification:Digital;fill:#ff00ff;fill-opacity:1"
         id="path4619"
         inkscape:connector-curvature="0" />
      <path
         d="m 301.56469,1050.1049 0.70606,-0.7061 5.43184,0 0.70606,0.7061 -0.70606,0.714 -5.43184,0 -0.70606,-0.714 0,0 z m 0,4.9023 0.70606,-0.6981 5.43184,0 0.70606,0.6981 -0.70606,0.714 -5.43184,0 -0.70606,-0.714 0,0 z m 0,4.9103 0.70606,-0.7061 5.43184,0 0.70606,0.7061 -0.70606,0.706 -5.43184,0 -0.70606,-0.706 0,0 z m 6.84396,-4.9103 0.70605,0.714 0,3.4902 -0.70605,0.7061 -0.70606,-0.7061 0,-3.4902 0.70606,-0.714 0,0 z m 0,-4.9023 0.70605,0.714 0,3.4902 -0.70605,0.6981 -0.70606,-0.6981 0,-3.4902 0.70606,-0.714 0,0 z m -6.84396,0 -0.70606,0.714 0,3.4902 0.70606,0.6981 0.70606,-0.6981 0,-3.4902 -0.70606,-0.714 0,0 z m 0,9.8126 -0.70606,-0.7061 0,-3.4902 0.70606,-0.714 0.70606,0.714 0,3.4902 -0.70606,0.7061 0,0 z"
         style="font-style:normal;font-variant:normal;font-weight:normal;font-stretch:normal;font-family:Digital;-inkscape-font-specification:Digital;fill:#ff00ff;fill-opacity:1"
         id="path4621"
         inkscape:connector-curvature="0" />
      <path
         d="m 311.41741,1050.1049 0.70606,-0.7061 5.43184,0 0.70606,0.7061 -0.70606,0.714 -5.43184,0 -0.70606,-0.714 0,0 z m 0,4.9023 0.70606,-0.6981 5.43184,0 0.70606,0.6981 -0.70606,0.714 -5.43184,0 -0.70606,-0.714 0,0 z m 0,4.9103 0.70606,-0.7061 5.43184,0 0.70606,0.7061 -0.70606,0.706 -5.43184,0 -0.70606,-0.706 0,0 z m 6.84396,-4.9103 0.70606,0.714 0,3.4902 -0.70606,0.7061 -0.70606,-0.7061 0,-3.4902 0.70606,-0.714 0,0 z m 0,-4.9023 0.70606,0.714 0,3.4902 -0.70606,0.6981 -0.70606,-0.6981 0,-3.4902 0.70606,-0.714 0,0 z m -6.84396,0 -0.70606,0.714 0,3.4902 0.70606,0.6981 0.70606,-0.6981 0,-3.4902 -0.70606,-0.714 0,0 z m 0,9.8126 -0.70606,-0.7061 0,-3.4902 0.70606,-0.714 0.70606,0.714 0,3.4902 -0.70606,0.7061 0,0 z"
         style="font-style:normal;font-variant:normal;font-weight:normal;font-stretch:normal;font-family:Digital;-inkscape-font-specification:Digital;fill:#ff00ff;fill-opacity:1"
         id="path4623"
         inkscape:connector-curvature="0" />
      <path
         d="m 321.27014,1050.1049 0.70605,-0.7061 5.43184,0 0.70606,0.7061 -0.70606,0.714 -5.43184,0 -0.70605,-0.714 0,0 z m 0,4.9023 0.70605,-0.6981 5.43184,0 0.70606,0.6981 -0.70606,0.714 -5.43184,0 -0.70605,-0.714 0,0 z m 0,4.9103 0.70605,-0.7061 5.43184,0 0.70606,0.7061 -0.70606,0.706 -5.43184,0 -0.70605,-0.706 0,0 z m 6.84395,-4.9103 0.70606,0.714 0,3.4902 -0.70606,0.7061 -0.70606,-0.7061 0,-3.4902 0.70606,-0.714 0,0 z m 0,-4.9023 0.70606,0.714 0,3.4902 -0.70606,0.6981 -0.70606,-0.6981 0,-3.4902 0.70606,-0.714 0,0 z m -6.84395,0 -0.70606,0.714 0,3.4902 0.70606,0.6981 0.70605,-0.6981 0,-3.4902 -0.70605,-0.714 0,0 z m 0,9.8126 -0.70606,-0.7061 0,-3.4902 0.70606,-0.714 0.70605,0.714 0,3.4902 -0.70605,0.7061 0,0 z"
         style="font-style:normal;font-variant:normal;font-weight:normal;font-stretch:normal;font-family:Digital;-inkscape-font-specification:Digital;fill:#ff00ff;fill-opacity:1"
         id="path4625"
         inkscape:connector-curvature="0" />
      <path
         d="m 331.12286,1050.1049 0.70606,-0.7061 5.43183,0 0.70606,0.7061 -0.70606,0.714 -5.43183,0 -0.70606,-0.714 0,0 z m 0,4.9023 0.70606,-0.6981 5.43183,0 0.70606,0.6981 -0.70606,0.714 -5.43183,0 -0.70606,-0.714 0,0 z m 0,4.9103 0.70606,-0.7061 5.43183,0 0.70606,0.7061 -0.70606,0.706 -5.43183,0 -0.70606,-0.706 0,0 z m 6.84395,-4.9103 0.70606,0.714 0,3.4902 -0.70606,0.7061 -0.70606,-0.7061 0,-3.4902 0.70606,-0.714 0,0 z m 0,-4.9023 0.70606,0.714 0,3.4902 -0.70606,0.6981 -0.70606,-0.6981 0,-3.4902 0.70606,-0.714 0,0 z m -6.84395,0 -0.70606,0.714 0,3.4902 0.70606,0.6981 0.70606,-0.6981 0,-3.4902 -0.70606,-0.714 0,0 z m 0,9.8126 -0.70606,-0.7061 0,-3.4902 0.70606,-0.714 0.70606,0.714 0,3.4902 -0.70606,0.7061 0,0 z"
         style="font-style:normal;font-variant:normal;font-weight:normal;font-stretch:normal;font-family:Digital;-inkscape-font-specification:Digital;fill:#ff00ff;fill-opacity:1"
         id="path4627"
         inkscape:connector-curvature="0" />
      <path
         d="m 340.97558,1050.1049 0.70606,-0.7061 5.43184,0 0.70605,0.7061 -0.70605,0.714 -5.43184,0 -0.70606,-0.714 0,0 z m 0,4.9023 0.70606,-0.6981 5.43184,0 0.70605,0.6981 -0.70605,0.714 -5.43184,0 -0.70606,-0.714 0,0 z m 0,4.9103 0.70606,-0.7061 5.43184,0 0.70605,0.7061 -0.70605,0.706 -5.43184,0 -0.70606,-0.706 0,0 z m 6.84395,-4.9103 0.70606,0.714 0,3.4902 -0.70606,0.7061 -0.70605,-0.7061 0,-3.4902 0.70605,-0.714 0,0 z m 0,-4.9023 0.70606,0.714 0,3.4902 -0.70606,0.6981 -0.70605,-0.6981 0,-3.4902 0.70605,-0.714 0,0 z m -6.84395,0 -0.70606,0.714 0,3.4902 0.70606,0.6981 0.70606,-0.6981 0,-3.4902 -0.70606,-0.714 0,0 z m 0,9.8126 -0.70606,-0.7061 0,-3.4902 0.70606,-0.714 0.70606,0.714 0,3.4902 -0.70606,0.7061 0,0 z"
         style="font-style:normal;font-variant:normal;font-weight:normal;font-stretch:normal;font-family:Digital;-inkscape-font-specification:Digital;fill:#ff00ff;fill-opacity:1"
         id="path4629"
         inkscape:connector-curvature="0" />
      <path
         d="m 350.8283,1050.1049 0.70606,-0.7061 5.43184,0 0.70606,0.7061 -0.70606,0.714 -5.43184,0 -0.70606,-0.714 0,0 z m 0,4.9023 0.70606,-0.6981 5.43184,0 0.70606,0.6981 -0.70606,0.714 -5.43184,0 -0.70606,-0.714 0,0 z m 0,4.9103 0.70606,-0.7061 5.43184,0 0.70606,0.7061 -0.70606,0.706 -5.43184,0 -0.70606,-0.706 0,0 z m 6.84396,-4.9103 0.70605,0.714 0,3.4902 -0.70605,0.7061 -0.70606,-0.7061 0,-3.4902 0.70606,-0.714 0,0 z m 0,-4.9023 0.70605,0.714 0,3.4902 -0.70605,0.6981 -0.70606,-0.6981 0,-3.4902 0.70606,-0.714 0,0 z m -6.84396,0 -0.70606,0.714 0,3.4902 0.70606,0.6981 0.70606,-0.6981 0,-3.4902 -0.70606,-0.714 0,0 z m 0,9.8126 -0.70606,-0.7061 0,-3.4902 0.70606,-0.714 0.70606,0.714 0,3.4902 -0.70606,0.7061 0,0 z"
         style="font-style:normal;font-variant:normal;font-weight:normal;font-stretch:normal;font-family:Digital;-inkscape-font-specification:Digital;fill:#ff00ff;fill-opacity:1"
         id="path4631"
         inkscape:connector-curvature="0" />
      <path
         d="m 360.68105,1050.1049 0.70606,-0.7061 5.43184,0 0.70606,0.7061 -0.70606,0.714 -5.43184,0 -0.70606,-0.714 0,0 z m 0,4.9023 0.70606,-0.6981 5.43184,0 0.70606,0.6981 -0.70606,0.714 -5.43184,0 -0.70606,-0.714 0,0 z m 0,4.9103 0.70606,-0.7061 5.43184,0 0.70606,0.7061 -0.70606,0.706 -5.43184,0 -0.70606,-0.706 0,0 z m 6.84396,-4.9103 0.70606,0.714 0,3.4902 -0.70606,0.7061 -0.70606,-0.7061 0,-3.4902 0.70606,-0.714 0,0 z m 0,-4.9023 0.70606,0.714 0,3.4902 -0.70606,0.6981 -0.70606,-0.6981 0,-3.4902 0.70606,-0.714 0,0 z m -6.84396,0 -0.70605,0.714 0,3.4902 0.70605,0.6981 0.70606,-0.6981 0,-3.4902 -0.70606,-0.714 0,0 z m 0,9.8126 -0.70605,-0.7061 0,-3.4902 0.70605,-0.714 0.70606,0.714 0,3.4902 -0.70606,0.7061 0,0 z"
         style="font-style:normal;font-variant:normal;font-weight:normal;font-stretch:normal;font-family:Digital;-inkscape-font-specification:Digital;fill:#ff00ff;fill-opacity:1"
         id="path4633"
         inkscape:connector-curvature="0" />
      <path
         d="m 370.53378,1050.1049 0.70606,-0.7061 5.43183,0 0.70606,0.7061 -0.70606,0.714 -5.43183,0 -0.70606,-0.714 0,0 z m 0,4.9023 0.70606,-0.6981 5.43183,0 0.70606,0.6981 -0.70606,0.714 -5.43183,0 -0.70606,-0.714 0,0 z m 0,4.9103 0.70606,-0.7061 5.43183,0 0.70606,0.7061 -0.70606,0.706 -5.43183,0 -0.70606,-0.706 0,0 z m 6.84395,-4.9103 0.70606,0.714 0,3.4902 -0.70606,0.7061 -0.70606,-0.7061 0,-3.4902 0.70606,-0.714 0,0 z m 0,-4.9023 0.70606,0.714 0,3.4902 -0.70606,0.6981 -0.70606,-0.6981 0,-3.4902 0.70606,-0.714 0,0 z m -6.84395,0 -0.70606,0.714 0,3.4902 0.70606,0.6981 0.70606,-0.6981 0,-3.4902 -0.70606,-0.714 0,0 z m 0,9.8126 -0.70606,-0.7061 0,-3.4902 0.70606,-0.714 0.70606,0.714 0,3.4902 -0.70606,0.7061 0,0 z"
         style="font-style:normal;font-variant:normal;font-weight:normal;font-stretch:normal;font-family:Digital;-inkscape-font-specification:Digital;fill:#ff00ff;fill-opacity:1"
         id="path4635"
         inkscape:connector-curvature="0" />
      <path
         d="m 380.3865,1050.1049 0.70606,-0.7061 5.43183,0 0.70606,0.7061 -0.70606,0.714 -5.43183,0 -0.70606,-0.714 0,0 z m 0,4.9023 0.70606,-0.6981 5.43183,0 0.70606,0.6981 -0.70606,0.714 -5.43183,0 -0.70606,-0.714 0,0 z m 0,4.9103 0.70606,-0.7061 5.43183,0 0.70606,0.7061 -0.70606,0.706 -5.43183,0 -0.70606,-0.706 0,0 z m 6.84395,-4.9103 0.70606,0.714 0,3.4902 -0.70606,0.7061 -0.70606,-0.7061 0,-3.4902 0.70606,-0.714 0,0 z m 0,-4.9023 0.70606,0.714 0,3.4902 -0.70606,0.6981 -0.70606,-0.6981 0,-3.4902 0.70606,-0.714 0,0 z m -6.84395,0 -0.70606,0.714 0,3.4902 0.70606,0.6981 0.70606,-0.6981 0,-3.4902 -0.70606,-0.714 0,0 z m 0,9.8126 -0.70606,-0.7061 0,-3.4902 0.70606,-0.714 0.70606,0.714 0,3.4902 -0.70606,0.7061 0,0 z"
         style="font-style:normal;font-variant:normal;font-weight:normal;font-stretch:normal;font-family:Digital;-inkscape-font-specification:Digital;fill:#ff00ff;fill-opacity:1"
         id="path4637"
         inkscape:connector-curvature="0" />
      <path
         d="m 390.23922,1050.1049 0.70606,-0.7061 5.43184,0 0.70606,0.7061 -0.70606,0.714 -5.43184,0 -0.70606,-0.714 0,0 z m 0,4.9023 0.70606,-0.6981 5.43184,0 0.70606,0.6981 -0.70606,0.714 -5.43184,0 -0.70606,-0.714 0,0 z m 0,4.9103 0.70606,-0.7061 5.43184,0 0.70606,0.7061 -0.70606,0.706 -5.43184,0 -0.70606,-0.706 0,0 z m 6.84396,-4.9103 0.70605,0.714 0,3.4902 -0.70605,0.7061 -0.70606,-0.7061 0,-3.4902 0.70606,-0.714 0,0 z m 0,-4.9023 0.70605,0.714 0,3.4902 -0.70605,0.6981 -0.70606,-0.6981 0,-3.4902 0.70606,-0.714 0,0 z m -6.84396,0 -0.70606,0.714 0,3.4902 0.70606,0.6981 0.70606,-0.6981 0,-3.4902 -0.70606,-0.714 0,0 z m 0,9.8126 -0.70606,-0.7061 0,-3.4902 0.70606,-0.714 0.70606,0.714 0,3.4902 -0.70606,0.7061 0,0 z"
         style="font-style:normal;font-variant:normal;font-weight:normal;font-stretch:normal;font-family:Digital;-inkscape-font-specification:Digital;fill:#ff00ff;fill-opacity:1"
         id="path4639"
         inkscape:connector-curvature="0" />
      <path
         d="m 400.09194,1050.1049 0.70606,-0.7061 5.43184,0 0.70606,0.7061 -0.70606,0.714 -5.43184,0 -0.70606,-0.714 0,0 z m 0,4.9023 0.70606,-0.6981 5.43184,0 0.70606,0.6981 -0.70606,0.714 -5.43184,0 -0.70606,-0.714 0,0 z m 0,4.9103 0.70606,-0.7061 5.43184,0 0.70606,0.7061 -0.70606,0.706 -5.43184,0 -0.70606,-0.706 0,0 z m 6.84396,-4.9103 0.70606,0.714 0,3.4902 -0.70606,0.7061 -0.70606,-0.7061 0,-3.4902 0.70606,-0.714 0,0 z m 0,-4.9023 0.70606,0.714 0,3.4902 -0.70606,0.6981 -0.70606,-0.6981 0,-3.4902 0.70606,-0.714 0,0 z m -6.84396,0 -0.70606,0.714 0,3.4902 0.70606,0.6981 0.70606,-0.6981 0,-3.4902 -0.70606,-0.714 0,0 z m 0,9.8126 -0.70606,-0.7061 0,-3.4902 0.70606,-0.714 0.70606,0.714 0,3.4902 -0.70606,0.7061 0,0 z"
         style="font-style:normal;font-variant:normal;font-weight:normal;font-stretch:normal;font-family:Digital;-inkscape-font-specification:Digital;fill:#ff00ff;fill-opacity:1"
         id="path4641"
         inkscape:connector-curvature="0" />
      <path
         d="m 409.94467,1050.1049 0.70605,-0.7061 5.43184,0 0.70606,0.7061 -0.70606,0.714 -5.43184,0 -0.70605,-0.714 0,0 z m 0,4.9023 0.70605,-0.6981 5.43184,0 0.70606,0.6981 -0.70606,0.714 -5.43184,0 -0.70605,-0.714 0,0 z m 0,4.9103 0.70605,-0.7061 5.43184,0 0.70606,0.7061 -0.70606,0.706 -5.43184,0 -0.70605,-0.706 0,0 z m 6.84395,-4.9103 0.70606,0.714 0,3.4902 -0.70606,0.7061 -0.70606,-0.7061 0,-3.4902 0.70606,-0.714 0,0 z m 0,-4.9023 0.70606,0.714 0,3.4902 -0.70606,0.6981 -0.70606,-0.6981 0,-3.4902 0.70606,-0.714 0,0 z m -6.84395,0 -0.70606,0.714 0,3.4902 0.70606,0.6981 0.70605,-0.6981 0,-3.4902 -0.70605,-0.714 0,0 z m 0,9.8126 -0.70606,-0.7061 0,-3.4902 0.70606,-0.714 0.70605,0.714 0,3.4902 -0.70605,0.7061 0,0 z"
         style="font-style:normal;font-variant:normal;font-weight:normal;font-stretch:normal;font-family:Digital;-inkscape-font-specification:Digital;fill:#ff00ff;fill-opacity:1"
         id="path4643"
         inkscape:connector-curvature="0" />
      <path
         d="m 419.79742,1050.1049 0.70606,-0.7061 5.43183,0 0.70606,0.7061 -0.70606,0.714 -5.43183,0 -0.70606,-0.714 0,0 z m 0,4.9023 0.70606,-0.6981 5.43183,0 0.70606,0.6981 -0.70606,0.714 -5.43183,0 -0.70606,-0.714 0,0 z m 0,4.9103 0.70606,-0.7061 5.43183,0 0.70606,0.7061 -0.70606,0.706 -5.43183,0 -0.70606,-0.706 0,0 z m 6.84395,-4.9103 0.70606,0.714 0,3.4902 -0.70606,0.7061 -0.70606,-0.7061 0,-3.4902 0.70606,-0.714 0,0 z m 0,-4.9023 0.70606,0.714 0,3.4902 -0.70606,0.6981 -0.70606,-0.6981 0,-3.4902 0.70606,-0.714 0,0 z m -6.84395,0 -0.70606,0.714 0,3.4902 0.70606,0.6981 0.70606,-0.6981 0,-3.4902 -0.70606,-0.714 0,0 z m 0,9.8126 -0.70606,-0.7061 0,-3.4902 0.70606,-0.714 0.70606,0.714 0,3.4902 -0.70606,0.7061 0,0 z"
         style="font-style:normal;font-variant:normal;font-weight:normal;font-stretch:normal;font-family:Digital;-inkscape-font-specification:Digital;fill:#ff00ff;fill-opacity:1"
         id="path4645"
         inkscape:connector-curvature="0" />
      <path
         d="m 429.65014,1050.1049 0.70606,-0.7061 5.43184,0 0.70605,0.7061 -0.70605,0.714 -5.43184,0 -0.70606,-0.714 0,0 z m 0,4.9023 0.70606,-0.6981 5.43184,0 0.70605,0.6981 -0.70605,0.714 -5.43184,0 -0.70606,-0.714 0,0 z m 0,4.9103 0.70606,-0.7061 5.43184,0 0.70605,0.7061 -0.70605,0.706 -5.43184,0 -0.70606,-0.706 0,0 z m 6.84395,-4.9103 0.70606,0.714 0,3.4902 -0.70606,0.7061 -0.70605,-0.7061 0,-3.4902 0.70605,-0.714 0,0 z m 0,-4.9023 0.70606,0.714 0,3.4902 -0.70606,0.6981 -0.70605,-0.6981 0,-3.4902 0.70605,-0.714 0,0 z m -6.84395,0 -0.70606,0.714 0,3.4902 0.70606,0.6981 0.70606,-0.6981 0,-3.4902 -0.70606,-0.714 0,0 z m 0,9.8126 -0.70606,-0.7061 0,-3.4902 0.70606,-0.714 0.70606,0.714 0,3.4902 -0.70606,0.7061 0,0 z"
         style="font-style:normal;font-variant:normal;font-weight:normal;font-stretch:normal;font-family:Digital;-inkscape-font-specification:Digital;fill:#ff00ff;fill-opacity:1"
         id="path4647"
         inkscape:connector-curvature="0" />
      <path
         d="m 439.50286,1050.1049 0.70606,-0.7061 5.43184,0 0.70606,0.7061 -0.70606,0.714 -5.43184,0 -0.70606,-0.714 0,0 z m 0,4.9023 0.70606,-0.6981 5.43184,0 0.70606,0.6981 -0.70606,0.714 -5.43184,0 -0.70606,-0.714 0,0 z m 0,4.9103 0.70606,-0.7061 5.43184,0 0.70606,0.7061 -0.70606,0.706 -5.43184,0 -0.70606,-0.706 0,0 z m 6.84396,-4.9103 0.70606,0.714 0,3.4902 -0.70606,0.7061 -0.70606,-0.7061 0,-3.4902 0.70606,-0.714 0,0 z m 0,-4.9023 0.70606,0.714 0,3.4902 -0.70606,0.6981 -0.70606,-0.6981 0,-3.4902 0.70606,-0.714 0,0 z m -6.84396,0 -0.70606,0.714 0,3.4902 0.70606,0.6981 0.70606,-0.6981 0,-3.4902 -0.70606,-0.714 0,0 z m 0,9.8126 -0.70606,-0.7061 0,-3.4902 0.70606,-0.714 0.70606,0.714 0,3.4902 -0.70606,0.7061 0,0 z"
         style="font-style:normal;font-variant:normal;font-weight:normal;font-stretch:normal;font-family:Digital;-inkscape-font-specification:Digital;fill:#ff00ff;fill-opacity:1"
         id="path4649"
         inkscape:connector-curvature="0" />
      <path
         d="m 449.35558,1050.1049 0.70606,-0.7061 5.43184,0 0.70606,0.7061 -0.70606,0.714 -5.43184,0 -0.70606,-0.714 0,0 z m 0,4.9023 0.70606,-0.6981 5.43184,0 0.70606,0.6981 -0.70606,0.714 -5.43184,0 -0.70606,-0.714 0,0 z m 0,4.9103 0.70606,-0.7061 5.43184,0 0.70606,0.7061 -0.70606,0.706 -5.43184,0 -0.70606,-0.706 0,0 z m 6.84396,-4.9103 0.70606,0.714 0,3.4902 -0.70606,0.7061 -0.70606,-0.7061 0,-3.4902 0.70606,-0.714 0,0 z m 0,-4.9023 0.70606,0.714 0,3.4902 -0.70606,0.6981 -0.70606,-0.6981 0,-3.4902 0.70606,-0.714 0,0 z m -6.84396,0 -0.70605,0.714 0,3.4902 0.70605,0.6981 0.70606,-0.6981 0,-3.4902 -0.70606,-0.714 0,0 z m 0,9.8126 -0.70605,-0.7061 0,-3.4902 0.70605,-0.714 0.70606,0.714 0,3.4902 -0.70606,0.7061 0,0 z"
         style="font-style:normal;font-variant:normal;font-weight:normal;font-stretch:normal;font-family:Digital;-inkscape-font-specification:Digital;fill:#ff00ff;fill-opacity:1"
         id="path4651"
         inkscape:connector-curvature="0" />
      <path
         d="m 459.20831,1050.1049 0.70606,-0.7061 5.43183,0 0.70606,0.7061 -0.70606,0.714 -5.43183,0 -0.70606,-0.714 0,0 z m 0,4.9023 0.70606,-0.6981 5.43183,0 0.70606,0.6981 -0.70606,0.714 -5.43183,0 -0.70606,-0.714 0,0 z m 0,4.9103 0.70606,-0.7061 5.43183,0 0.70606,0.7061 -0.70606,0.706 -5.43183,0 -0.70606,-0.706 0,0 z m 6.84395,-4.9103 0.70606,0.714 0,3.4902 -0.70606,0.7061 -0.70606,-0.7061 0,-3.4902 0.70606,-0.714 0,0 z m 0,-4.9023 0.70606,0.714 0,3.4902 -0.70606,0.6981 -0.70606,-0.6981 0,-3.4902 0.70606,-0.714 0,0 z m -6.84395,0 -0.70606,0.714 0,3.4902 0.70606,0.6981 0.70606,-0.6981 0,-3.4902 -0.70606,-0.714 0,0 z m 0,9.8126 -0.70606,-0.7061 0,-3.4902 0.70606,-0.714 0.70606,0.714 0,3.4902 -0.70606,0.7061 0,0 z"
         style="font-style:normal;font-variant:normal;font-weight:normal;font-stretch:normal;font-family:Digital;-inkscape-font-specification:Digital;fill:#ff00ff;fill-opacity:1"
         id="path4653"
         inkscape:connector-curvature="0" />
      <path
         d="m 469.06103,1050.1049 0.70606,-0.7061 5.43183,0 0.70606,0.7061 -0.70606,0.714 -5.43183,0 -0.70606,-0.714 0,0 z m 0,4.9023 0.70606,-0.6981 5.43183,0 0.70606,0.6981 -0.70606,0.714 -5.43183,0 -0.70606,-0.714 0,0 z m 0,4.9103 0.70606,-0.7061 5.43183,0 0.70606,0.7061 -0.70606,0.706 -5.43183,0 -0.70606,-0.706 0,0 z m 6.84395,-4.9103 0.70606,0.714 0,3.4902 -0.70606,0.7061 -0.70606,-0.7061 0,-3.4902 0.70606,-0.714 0,0 z m 0,-4.9023 0.70606,0.714 0,3.4902 -0.70606,0.6981 -0.70606,-0.6981 0,-3.4902 0.70606,-0.714 0,0 z m -6.84395,0 -0.70606,0.714 0,3.4902 0.70606,0.6981 0.70606,-0.6981 0,-3.4902 -0.70606,-0.714 0,0 z m 0,9.8126 -0.70606,-0.7061 0,-3.4902 0.70606,-0.714 0.70606,0.714 0,3.4902 -0.70606,0.7061 0,0 z"
         style="font-style:normal;font-variant:normal;font-weight:normal;font-stretch:normal;font-family:Digital;-inkscape-font-specification:Digital;fill:#ff00ff;fill-opacity:1"
         id="path4655"
         inkscape:connector-curvature="0" />
      <path
         d="m 478.91378,1050.1049 0.70606,-0.7061 5.43184,0 0.70606,0.7061 -0.70606,0.714 -5.43184,0 -0.70606,-0.714 0,0 z m 0,4.9023 0.70606,-0.6981 5.43184,0 0.70606,0.6981 -0.70606,0.714 -5.43184,0 -0.70606,-0.714 0,0 z m 0,4.9103 0.70606,-0.7061 5.43184,0 0.70606,0.7061 -0.70606,0.706 -5.43184,0 -0.70606,-0.706 0,0 z m 6.84396,-4.9103 0.70605,0.714 0,3.4902 -0.70605,0.7061 -0.70606,-0.7061 0,-3.4902 0.70606,-0.714 0,0 z m 0,-4.9023 0.70605,0.714 0,3.4902 -0.70605,0.6981 -0.70606,-0.6981 0,-3.4902 0.70606,-0.714 0,0 z m -6.84396,0 -0.70606,0.714 0,3.4902 0.70606,0.6981 0.70606,-0.6981 0,-3.4902 -0.70606,-0.714 0,0 z m 0,9.8126 -0.70606,-0.7061 0,-3.4902 0.70606,-0.714 0.70606,0.714 0,3.4902 -0.70606,0.7061 0,0 z"
         style="font-style:normal;font-variant:normal;font-weight:normal;font-stretch:normal;font-family:Digital;-inkscape-font-specification:Digital;fill:#ff00ff;fill-opacity:1"
         id="path4657"
         inkscape:connector-curvature="0" />
      <path
         d="m 488.7665,1050.1049 0.70606,-0.7061 5.43184,0 0.70606,0.7061 -0.70606,0.714 -5.43184,0 -0.70606,-0.714 0,0 z m 0,4.9023 0.70606,-0.6981 5.43184,0 0.70606,0.6981 -0.70606,0.714 -5.43184,0 -0.70606,-0.714 0,0 z m 0,4.9103 0.70606,-0.7061 5.43184,0 0.70606,0.7061 -0.70606,0.706 -5.43184,0 -0.70606,-0.706 0,0 z m 6.84396,-4.9103 0.70606,0.714 0,3.4902 -0.70606,0.7061 -0.70606,-0.7061 0,-3.4902 0.70606,-0.714 0,0 z m 0,-4.9023 0.70606,0.714 0,3.4902 -0.70606,0.6981 -0.70606,-0.6981 0,-3.4902 0.70606,-0.714 0,0 z m -6.84396,0 -0.70605,0.714 0,3.4902 0.70605,0.6981 0.70606,-0.6981 0,-3.4902 -0.70606,-0.714 0,0 z m 0,9.8126 -0.70605,-0.7061 0,-3.4902 0.70605,-0.714 0.70606,0.714 0,3.4902 -0.70606,0.7061 0,0 z"
         style="font-style:normal;font-variant:normal;font-weight:normal;font-stretch:normal;font-family:Digital;-inkscape-font-specification:Digital;fill:#ff00ff;fill-opacity:1"
         id="path4659"
         inkscape:connector-curvature="0" />
      <path
         d="m 498.61923,1050.1049 0.70605,-0.7061 5.43184,0 0.70606,0.7061 -0.70606,0.714 -5.43184,0 -0.70605,-0.714 0,0 z m 0,4.9023 0.70605,-0.6981 5.43184,0 0.70606,0.6981 -0.70606,0.714 -5.43184,0 -0.70605,-0.714 0,0 z m 0,4.9103 0.70605,-0.7061 5.43184,0 0.70606,0.7061 -0.70606,0.706 -5.43184,0 -0.70605,-0.706 0,0 z m 6.84395,-4.9103 0.70606,0.714 0,3.4902 -0.70606,0.7061 -0.70606,-0.7061 0,-3.4902 0.70606,-0.714 0,0 z m 0,-4.9023 0.70606,0.714 0,3.4902 -0.70606,0.6981 -0.70606,-0.6981 0,-3.4902 0.70606,-0.714 0,0 z m -6.84395,0 -0.70606,0.714 0,3.4902 0.70606,0.6981 0.70605,-0.6981 0,-3.4902 -0.70605,-0.714 0,0 z m 0,9.8126 -0.70606,-0.7061 0,-3.4902 0.70606,-0.714 0.70605,0.714 0,3.4902 -0.70605,0.7061 0,0 z"
         style="font-style:normal;font-variant:normal;font-weight:normal;font-stretch:normal;font-family:Digital;-inkscape-font-specification:Digital;fill:#ff00ff;fill-opacity:1"
         id="path4661"
         inkscape:connector-curvature="0" />
    </g>
  </g>
</svg>
