<?xml version="1.0" encoding="UTF-8" standalone="no"?>
<!-- Created with Inkscape (http://www.inkscape.org/) -->

<svg
   xmlns:dc="http://purl.org/dc/elements/1.1/"
   xmlns:cc="http://creativecommons.org/ns#"
   xmlns:rdf="http://www.w3.org/1999/02/22-rdf-syntax-ns#"
   xmlns:svg="http://www.w3.org/2000/svg"
   xmlns="http://www.w3.org/2000/svg"
   xmlns:sodipodi="http://sodipodi.sourceforge.net/DTD/sodipodi-0.dtd"
   xmlns:inkscape="http://www.inkscape.org/namespaces/inkscape"
   width="43"
   height="50"
   viewBox="0 0 43 50"
   id="svg2"
   version="1.1"
   inkscape:version="0.92.1 r15371"
   sodipodi:docname="background_analogvu_1_peak.svg">
  <defs
     id="defs4">
    <pattern
       y="0"
       x="0"
       height="6"
       width="6"
       patternUnits="userSpaceOnUse"
       id="EMFhbasepattern" />
    <pattern
       id="EMFhbasepattern-2"
       patternUnits="userSpaceOnUse"
       width="6"
       height="6"
       x="0"
       y="0" />
    <clipPath
       id="clipEmfPath1"
       clipPathUnits="userSpaceOnUse">
      <path
         inkscape:connector-curvature="0"
         id="path4146"
         d="m 0.524996,22.0498 c 0,-12.89987 10.124904,-23.32479 22.649804,-23.32479 12.5249,0 22.7249,10.42492 22.7249,23.32479 0,12.8999 -10.2,23.3999 -22.7249,23.3999 -12.5249,0 -22.649804,-10.5 -22.649804,-23.3999 z" />
    </clipPath>
    <pattern
       y="0"
       x="0"
       height="6"
       width="6"
       patternUnits="userSpaceOnUse"
       id="EMFhbasepattern-7" />
  </defs>
  <sodipodi:namedview
     id="base"
     pagecolor="#ffffff"
     bordercolor="#666666"
     borderopacity="1.0"
     inkscape:pageopacity="0.0"
     inkscape:pageshadow="2"
     inkscape:zoom="2.8284273"
     inkscape:cx="37.326489"
     inkscape:cy="-24.059521"
     inkscape:document-units="px"
     inkscape:current-layer="layer1"
     showgrid="false"
     units="px"
     inkscape:window-width="1920"
     inkscape:window-height="1028"
     inkscape:window-x="-8"
     inkscape:window-y="-8"
     inkscape:window-maximized="1"
     showguides="true"
     inkscape:guide-bbox="true" />
  <metadata
     id="metadata7">
    <rdf:RDF>
      <cc:Work
         rdf:about="">
        <dc:format>image/svg+xml</dc:format>
        <dc:type
           rdf:resource="http://purl.org/dc/dcmitype/StillImage" />
        <dc:title />
        <dc:creator>
          <cc:Agent>
            <dc:title>Jorge Rosa</dc:title>
          </cc:Agent>
        </dc:creator>
        <dc:description>Email: jorge.bigarte@gmail.com
Site:https://sites.google.com/site/jorgerosaportfolio</dc:description>
      </cc:Work>
    </rdf:RDF>
  </metadata>
  <g
     inkscape:label="Layer 1"
     inkscape:groupmode="layer"
     id="layer1"
     transform="translate(0,-1002.3622)">
    <g
       id="g4956"
       transform="matrix(0,0.02442813,-0.02442813,0,15.321547,1036.2396)" />
    <path
       inkscape:connector-curvature="0"
       id="path4151"
       d=""
       clip-path="url(#clipEmfPath1)"
       style="fill:none;stroke:none"
       transform="translate(7.3339618,1013.8494)" />
    <path
       style="opacity:1;fill:#ff00ff;fill-opacity:1;stroke:none;stroke-width:0.65338755;stroke-miterlimit:4;stroke-dasharray:none;stroke-opacity:1"
       d="m 21.500632,1011.5924 a 3.8611862,3.8611862 0 0 0 -3.861417,3.8614 3.8611862,3.8611862 0 0 0 3.861417,3.8614 3.8611862,3.8611862 0 0 0 3.860153,-3.8614 3.8611862,3.8611862 0 0 0 -3.860153,-3.8614 z m 0.571547,1.0897 h 0.525926 v 5.5432 h -0.819934 v -4.4875 c -0.04555,0.04 -0.09545,0.082 -0.149539,0.128 -0.05126,0.043 -0.101144,0.082 -0.149542,0.1193 l -1.075923,0.7692 v -0.8163 z"
       id="path4518-36"
       inkscape:connector-curvature="0" />
  </g>
</svg>
