<?xml version="1.0" encoding="UTF-8" standalone="no"?>
<!-- Created with Inkscape (http://www.inkscape.org/) -->

<svg
   xmlns:dc="http://purl.org/dc/elements/1.1/"
   xmlns:cc="http://creativecommons.org/ns#"
   xmlns:rdf="http://www.w3.org/1999/02/22-rdf-syntax-ns#"
   xmlns:svg="http://www.w3.org/2000/svg"
   xmlns="http://www.w3.org/2000/svg"
   xmlns:xlink="http://www.w3.org/1999/xlink"
   xmlns:sodipodi="http://sodipodi.sourceforge.net/DTD/sodipodi-0.dtd"
   xmlns:inkscape="http://www.inkscape.org/namespaces/inkscape"
   width="175"
   height="45"
   viewBox="0 0 175 45"
   id="svg2"
   version="1.1"
   inkscape:version="0.91 r13725"
   sodipodi:docname="background_auxiliary.svg">
  <defs
     id="defs4">
    <linearGradient
       id="linearGradient4291"
       inkscape:collect="always">
      <stop
         id="stop4293"
         offset="0"
         style="stop-color:#170b28;stop-opacity:1" />
      <stop
         id="stop4295"
         offset="1"
         style="stop-color:#000000;stop-opacity:1" />
    </linearGradient>
    <linearGradient
       id="linearGradient4205"
       inkscape:collect="always">
      <stop
         id="stop4207"
         offset="0"
         style="stop-color:#1e1e1e;stop-opacity:1" />
      <stop
         id="stop4209"
         offset="1"
         style="stop-color:#000000;stop-opacity:1" />
    </linearGradient>
    <linearGradient
       inkscape:collect="always"
       id="linearGradient4204">
      <stop
         style="stop-color:#333333;stop-opacity:1"
         offset="0"
         id="stop4206" />
      <stop
         style="stop-color:#000000;stop-opacity:1"
         offset="1"
         id="stop4208" />
    </linearGradient>
    <linearGradient
       inkscape:collect="always"
       xlink:href="#linearGradient5254"
       id="linearGradient5268"
       x1="768.05304"
       y1="115.41106"
       x2="768.05304"
       y2="129.62889"
       gradientUnits="userSpaceOnUse"
       gradientTransform="matrix(-1.8770452,0,0,-0.65566772,1499.1166,1126.9977)" />
    <linearGradient
       inkscape:collect="always"
       id="linearGradient5254">
      <stop
         style="stop-color:#1a1a1a;stop-opacity:1"
         offset="0"
         id="stop5256" />
      <stop
         style="stop-color:#000000;stop-opacity:1"
         offset="1"
         id="stop5258" />
    </linearGradient>
    <inkscape:perspective
       id="perspective2840"
       inkscape:persp3d-origin="372.04724 : 350.78739 : 1"
       inkscape:vp_z="744.09448 : 526.18109 : 1"
       inkscape:vp_y="0 : 1000 : 0"
       inkscape:vp_x="0 : 526.18109 : 1"
       sodipodi:type="inkscape:persp3d" />
    <inkscape:perspective
       id="perspective2840-1"
       inkscape:persp3d-origin="372.04724 : 350.78739 : 1"
       inkscape:vp_z="744.09448 : 526.18109 : 1"
       inkscape:vp_y="0 : 1000 : 0"
       inkscape:vp_x="0 : 526.18109 : 1"
       sodipodi:type="inkscape:persp3d" />
    <pattern
       y="0"
       x="0"
       height="6"
       width="6"
       patternUnits="userSpaceOnUse"
       id="EMFhbasepattern" />
    <pattern
       y="0"
       x="0"
       height="6"
       width="6"
       patternUnits="userSpaceOnUse"
       id="EMFhbasepattern-4" />
    <radialGradient
       inkscape:collect="always"
       xlink:href="#linearGradient5282"
       id="radialGradient4196-1"
       cx="767.797"
       cy="229.94576"
       fx="767.797"
       fy="229.94574"
       r="32.034878"
       gradientTransform="matrix(-5.0684256e-5,0.75790215,-106.40844,-0.00696226,24555.853,449.54825)"
       gradientUnits="userSpaceOnUse" />
    <linearGradient
       id="linearGradient5282"
       inkscape:collect="always">
      <stop
         id="stop5284"
         offset="0"
         style="stop-color:#323232;stop-opacity:1" />
      <stop
         id="stop5286"
         offset="1"
         style="stop-color:#000000;stop-opacity:1" />
    </linearGradient>
    <radialGradient
       inkscape:collect="always"
       xlink:href="#linearGradient4205"
       id="radialGradient4196-1-2"
       cx="767.797"
       cy="229.94647"
       fx="767.797"
       fy="229.94646"
       r="32.034878"
       gradientTransform="matrix(-7.2172142e-6,0.66002228,-15.152092,0.00210282,3646.7258,522.61563)"
       gradientUnits="userSpaceOnUse" />
    <linearGradient
       id="linearGradient5128"
       inkscape:collect="always">
      <stop
         id="stop5130"
         offset="0"
         style="stop-color:#ffffff;stop-opacity:1" />
      <stop
         id="stop5132"
         offset="1"
         style="stop-color:#000000;stop-opacity:1" />
    </linearGradient>
    <linearGradient
       id="linearGradient4211"
       inkscape:collect="always">
      <stop
         id="stop4213"
         offset="0"
         style="stop-color:#000000;stop-opacity:1" />
      <stop
         id="stop4215"
         offset="1"
         style="stop-color:#808080;stop-opacity:1" />
    </linearGradient>
    <radialGradient
       inkscape:collect="always"
       xlink:href="#linearGradient5128"
       id="radialGradient4186-5-5-2"
       cx="25.860497"
       cy="1030.1155"
       fx="25.860497"
       fy="1030.1155"
       r="21.471891"
       gradientUnits="userSpaceOnUse"
       gradientTransform="matrix(3.1473062,-7.396068e-8,0,0.32878643,-243.7593,703.68593)" />
    <radialGradient
       inkscape:collect="always"
       xlink:href="#linearGradient4211"
       id="radialGradient4196-4-5-1"
       cx="25.860498"
       cy="1030.1155"
       fx="25.860498"
       fy="1030.1155"
       r="17.897696"
       gradientUnits="userSpaceOnUse"
       gradientTransform="matrix(0.62616586,-2.5509345e-7,2.6794411e-7,0.65770977,-178.56164,364.85688)" />
    <radialGradient
       inkscape:collect="always"
       xlink:href="#linearGradient4204"
       id="radialGradient4196-1-2-3"
       cx="767.797"
       cy="229.94656"
       fx="767.797"
       fy="229.94655"
       r="32.034878"
       gradientTransform="matrix(-1.9408956e-6,0.70229751,-4.0747895,0.0022932,940.33829,490.11304)"
       gradientUnits="userSpaceOnUse" />
    <radialGradient
       inkscape:collect="always"
       xlink:href="#linearGradient4291"
       id="radialGradient4289"
       cx="65.5"
       cy="1023.656"
       fx="65.5"
       fy="1023.656"
       r="9.5"
       gradientTransform="matrix(1.0387336,2.2275541e-7,-1.0710685e-7,1.0037519,-2.1969492,-3.8405693)"
       gradientUnits="userSpaceOnUse" />
  </defs>
  <sodipodi:namedview
     id="base"
     pagecolor="#ffffff"
     bordercolor="#666666"
     borderopacity="1.0"
     inkscape:pageopacity="0.0"
     inkscape:pageshadow="2"
     inkscape:zoom="5.6538097"
     inkscape:cx="77.54695"
     inkscape:cy="13.67185"
     inkscape:document-units="px"
     inkscape:current-layer="layer1"
     showgrid="false"
     units="px"
     inkscape:window-width="1920"
     inkscape:window-height="1028"
     inkscape:window-x="-8"
     inkscape:window-y="-8"
     inkscape:window-maximized="1"
     objecttolerance="10"
     guidetolerance="9"
     showguides="true"
     inkscape:guide-bbox="true" />
  <metadata
     id="metadata7">
    <rdf:RDF>
      <cc:Work
         rdf:about="">
        <dc:format>image/svg+xml</dc:format>
        <dc:type
           rdf:resource="http://purl.org/dc/dcmitype/StillImage" />
        <dc:title />
        <dc:creator>
          <cc:Agent>
            <dc:title>Jorge Rosa</dc:title>
          </cc:Agent>
        </dc:creator>
        <dc:description>Email: jorge.bigarte@gmail.com
Site:https://sites.google.com/site/jorgerosaportfolio</dc:description>
      </cc:Work>
    </rdf:RDF>
  </metadata>
  <g
     inkscape:label="Layer 1"
     inkscape:groupmode="layer"
     id="layer1"
     transform="translate(0,-1007.3622)">
    <path
       inkscape:connector-curvature="0"
       id="rect4183-9-9"
       d="m 175,1007.3622 0,45 -175.00000055,0 0,-44.9999 z"
       style="opacity:1;fill:url(#radialGradient4196-1);fill-opacity:1;stroke:none;stroke-width:0.79799998;stroke-linecap:round;stroke-linejoin:round;stroke-miterlimit:4;stroke-dasharray:none;stroke-dashoffset:0;stroke-opacity:1" />
    <path
       style="opacity:0.275;fill:#000000;fill-opacity:1;stroke:#000000;stroke-width:1.10022068;stroke-linecap:round;stroke-linejoin:round;stroke-miterlimit:4;stroke-dasharray:none;stroke-dashoffset:0;stroke-opacity:1"
       d="m 13.131638,1036.2558 84.930412,0 0,12.4441 -84.930412,0 z"
       id="rect4183-39-4"
       inkscape:connector-curvature="0" />
    <path
       style="opacity:1;fill:url(#linearGradient5268);fill-opacity:1;stroke:#333333;stroke-width:1;stroke-linecap:round;stroke-linejoin:round;stroke-miterlimit:4;stroke-dasharray:none;stroke-dashoffset:0;stroke-opacity:1"
       d="m 103.24958,1047.0674 -91.03941,0 0,-10.9284 91.03941,0 z"
       id="rect4183-39"
       inkscape:connector-curvature="0" />
    <path
       inkscape:connector-curvature="0"
       id="rect4183-9-9-7"
       d="m 175,1007.3622 0,45 -24.91923,0 0,-44.9999 z"
       style="opacity:1;fill:url(#radialGradient4196-1-2);fill-opacity:1;stroke:none;stroke-width:0.79799998;stroke-linecap:round;stroke-linejoin:round;stroke-miterlimit:4;stroke-dasharray:none;stroke-dashoffset:0;stroke-opacity:1" />
    <g
       id="g4257"
       transform="translate(0,-7.137725)">
      <path
         transform="scale(-1,1)"
         style="opacity:0.25;fill:#000000;fill-opacity:1;stroke:none;stroke-width:3.70859909;stroke-linecap:round;stroke-linejoin:round;stroke-miterlimit:4;stroke-dasharray:none;stroke-opacity:1"
         d="m -157.70935,1042.3738 a 4.6590471,4.7052131 0 0 1 -4.65904,4.7052 4.6590471,4.7052131 0 0 1 -4.65905,-4.7052 4.6590471,4.7052131 0 0 1 4.65905,-4.7052 4.6590471,4.7052131 0 0 1 4.65904,4.7052 z"
         id="path4188-6-8-9-4" />
      <path
         transform="scale(-1,1)"
         style="opacity:1;fill:none;fill-opacity:1;stroke:url(#radialGradient4186-5-5-2);stroke-width:0.8725903;stroke-linecap:round;stroke-linejoin:round;stroke-miterlimit:4;stroke-dasharray:none;stroke-opacity:1"
         d="m -158.44737,1042.3738 a 3.9210234,3.9210234 0 0 1 -3.92102,3.921 3.9210234,3.9210234 0 0 1 -3.92103,-3.921 3.9210234,3.9210234 0 0 1 3.92103,-3.921 3.9210234,3.9210234 0 0 1 3.92102,3.921 z"
         id="path4178-5-3-7" />
      <path
         transform="scale(-1,1)"
         style="opacity:1;fill:url(#radialGradient4196-4-5-1);fill-opacity:1;stroke:none;stroke-width:3.70859909;stroke-linecap:round;stroke-linejoin:round;stroke-miterlimit:4;stroke-dasharray:none;stroke-opacity:1"
         d="m -158.7667,1042.3738 a 3.6016915,3.6016915 0 0 1 -3.60169,3.6017 3.6016915,3.6016915 0 0 1 -3.60169,-3.6017 3.6016915,3.6016915 0 0 1 3.60169,-3.6017 3.6016915,3.6016915 0 0 1 3.60169,3.6017 z"
         id="path4188-6-9-7" />
    </g>
    <g
       id="g4435"
       transform="matrix(1.1206965,0,0,1.1206965,-19.925093,-120.94612)">
      <g
         id="text4402-5"
         style="font-style:normal;font-variant:normal;font-weight:normal;font-stretch:normal;font-size:7.44180202px;line-height:100%;font-family:'Estrangelo Edessa';-inkscape-font-specification:'Estrangelo Edessa, Normal';text-align:start;letter-spacing:0px;word-spacing:0px;writing-mode:lr-tb;text-anchor:start;fill:#000000;fill-opacity:1;stroke:none;stroke-width:1px;stroke-linecap:butt;stroke-linejoin:miter;stroke-opacity:1"
         transform="translate(0.03406364,0.40180713)">
        <path
           style="fill:#000000"
           id="path4410-5"
           d="m 160.30917,1024.0663 -0.71584,0 0,-4.702 0.71584,0 0,4.702 z"
           inkscape:connector-curvature="0" />
        <path
           style="fill:#000000"
           id="path4412-9"
           d="m 165.6943,1024.0663 -0.7013,0 -2.30013,-3.0523 q -0.0254,-0.029 -0.0872,-0.1163 -0.0581,-0.091 -0.12718,-0.1962 -0.0654,-0.1054 -0.12718,-0.2071 -0.0618,-0.1018 -0.0908,-0.1563 l 0,3.7282 -0.66133,0 0,-4.702 0.75217,0 2.19475,2.9469 q 0.0545,0.076 0.12718,0.1853 0.0727,0.1054 0.14172,0.2181 0.069,0.109 0.12718,0.2107 0.0618,0.098 0.0945,0.1599 l 0,-3.7209 0.6577,0 0,4.702 z"
           inkscape:connector-curvature="0" />
      </g>
      <g
         id="text4402"
         style="font-style:normal;font-variant:normal;font-weight:normal;font-stretch:normal;font-size:7.44180202px;line-height:100%;font-family:'Estrangelo Edessa';-inkscape-font-specification:'Estrangelo Edessa, Normal';text-align:start;letter-spacing:0px;word-spacing:0px;writing-mode:lr-tb;text-anchor:start;fill:#808080;fill-opacity:1;stroke:none;stroke-width:1px;stroke-linecap:butt;stroke-linejoin:miter;stroke-opacity:1">
        <path
           id="path4410"
           d="m 160.30917,1024.0663 -0.71584,0 0,-4.702 0.71584,0 0,4.702 z"
           inkscape:connector-curvature="0" />
        <path
           id="path4412"
           d="m 165.6943,1024.0663 -0.7013,0 -2.30013,-3.0523 q -0.0254,-0.029 -0.0872,-0.1163 -0.0581,-0.091 -0.12718,-0.1962 -0.0654,-0.1054 -0.12718,-0.2071 -0.0618,-0.1018 -0.0908,-0.1563 l 0,3.7282 -0.66133,0 0,-4.702 0.75217,0 2.19475,2.9469 q 0.0545,0.076 0.12718,0.1853 0.0727,0.1054 0.14172,0.2181 0.069,0.109 0.12718,0.2107 0.0618,0.098 0.0945,0.1599 l 0,-3.7209 0.6577,0 0,4.702 z"
           inkscape:connector-curvature="0" />
      </g>
    </g>
    <path
       inkscape:connector-curvature="0"
       id="rect4183-9-9-7-1"
       d="m 6.7014256,1007.3622 0,45 -6.7014256,0 0,-44.9999 z"
       style="opacity:1;fill:url(#radialGradient4196-1-2-3);fill-opacity:1;stroke:none;stroke-width:0.79799998;stroke-linecap:round;stroke-linejoin:round;stroke-miterlimit:4;stroke-dasharray:none;stroke-dashoffset:0;stroke-opacity:1" />
    <path
       style="opacity:1;fill:url(#radialGradient4289);fill-opacity:1;stroke:#1a1a1a;stroke-width:1;stroke-linecap:round;stroke-linejoin:round;stroke-miterlimit:4;stroke-dasharray:none;stroke-dashoffset:0;stroke-opacity:1"
       d="m 75.158004,1013.8207 -18.636004,0 0,19.6705 18.636004,0 z"
       id="rect4183-39-9"
       inkscape:connector-curvature="0" />
    <g
       transform="translate(1.9859181,0.25835566)"
       style="font-style:normal;font-variant:normal;font-weight:normal;font-stretch:normal;font-size:10.72131157px;line-height:100%;font-family:'Estrangelo Edessa';-inkscape-font-specification:'Estrangelo Edessa, Normal';text-align:start;letter-spacing:0px;word-spacing:0px;writing-mode:lr-tb;text-anchor:start;fill:#000000;fill-opacity:1;stroke:none;stroke-width:1px;stroke-linecap:butt;stroke-linejoin:miter;stroke-opacity:1"
       id="text4297-8">
      <path
         inkscape:connector-curvature="0"
         d="m 85.618643,1027.3969 -1.104589,0 -0.759077,-1.9422 -2.607038,0 -0.706727,1.9422 -1.104588,0 2.627978,-6.7742 0.994653,0 2.659388,6.7742 z m -3.031074,-5.1461 q -0.02617,-0.073 -0.06806,-0.2094 -0.03665,-0.1413 -0.06282,-0.2931 l -0.02094,0 q -0.02618,0.1623 -0.06806,0.3036 -0.03665,0.1361 -0.07329,0.2303 l -0.821898,2.272 1.973601,0 -0.858542,-2.3034 z"
         id="path4302-2"
         style="fill:#000000" />
      <path
         inkscape:connector-curvature="0"
         d="m 89.340738,1026.6482 q 0.382157,0 0.696257,-0.1151 0.314101,-0.1204 0.533972,-0.3508 0.225106,-0.2355 0.345511,-0.5863 0.12564,-0.356 0.12564,-0.8271 l 0,-4.1462 1.020828,0 0,4.0205 q 0,0.7172 -0.193695,1.2564 -0.193696,0.5392 -0.560147,0.9005 -0.366451,0.3559 -0.889952,0.5392 -0.523502,0.178 -1.177879,0.178 -0.622967,0 -1.125528,-0.1728 -0.497327,-0.178 -0.853308,-0.5235 -0.350746,-0.3507 -0.544441,-0.869 -0.188461,-0.5183 -0.188461,-1.2041 l 0,-4.1252 1.031298,0 0,4.0834 q 0,0.4816 0.125641,0.848 0.12564,0.3612 0.355981,0.6073 0.235575,0.2408 0.560146,0.3664 0.329806,0.1204 0.738137,0.1204 z"
         id="path4304-5"
         style="fill:#000000" />
      <path
         inkscape:connector-curvature="0"
         d="m 99.046457,1027.3969 -1.209289,0 -1.450099,-2.2092 q -0.0157,-0.026 -0.06806,-0.1 -0.04711,-0.078 -0.1047,-0.1623 -0.05759,-0.089 -0.109936,-0.1675 -0.05235,-0.084 -0.07852,-0.1256 l -0.01047,0 q -0.0157,0.031 -0.05759,0.094 -0.03664,0.058 -0.08376,0.1309 -0.04712,0.073 -0.09947,0.1465 -0.05235,0.073 -0.09423,0.1309 l -1.476274,2.2616 -1.224994,0 2.434282,-3.4761 -2.303407,-3.2981 1.230229,0 1.115058,1.691 q 0.04712,0.068 0.120406,0.1884 0.07852,0.1204 0.162285,0.2513 0.08376,0.1256 0.157051,0.2513 0.07852,0.1204 0.120405,0.1989 l 0.02094,0 q 0.03665,-0.079 0.11517,-0.2042 0.07853,-0.1308 0.162286,-0.2669 0.08899,-0.1362 0.16752,-0.2513 0.07853,-0.1204 0.109936,-0.1675 l 1.172643,-1.691 1.167409,0 -2.292937,3.2353 2.408107,3.5389 z"
         id="path4306-9"
         style="fill:#000000" />
    </g>
    <g
       style="font-style:normal;font-variant:normal;font-weight:normal;font-stretch:normal;font-size:10.72131157px;line-height:100%;font-family:'Estrangelo Edessa';-inkscape-font-specification:'Estrangelo Edessa, Normal';text-align:start;letter-spacing:0px;word-spacing:0px;writing-mode:lr-tb;text-anchor:start;fill:#808080;fill-opacity:1;stroke:none;stroke-width:1px;stroke-linecap:butt;stroke-linejoin:miter;stroke-opacity:1"
       id="text4297"
       transform="translate(1.9455908,-0.30952581)">
      <path
         d="m 85.618643,1027.3969 -1.104589,0 -0.759077,-1.9422 -2.607038,0 -0.706727,1.9422 -1.104588,0 2.627978,-6.7742 0.994653,0 2.659388,6.7742 z m -3.031074,-5.1461 q -0.02617,-0.073 -0.06806,-0.2094 -0.03665,-0.1413 -0.06282,-0.2931 l -0.02094,0 q -0.02618,0.1623 -0.06806,0.3036 -0.03665,0.1361 -0.07329,0.2303 l -0.821898,2.272 1.973601,0 -0.858542,-2.3034 z"
         id="path4302"
         inkscape:connector-curvature="0"
         style="fill:#808080" />
      <path
         d="m 89.340738,1026.6482 q 0.382157,0 0.696257,-0.1151 0.314101,-0.1204 0.533972,-0.3508 0.225106,-0.2355 0.345511,-0.5863 0.12564,-0.356 0.12564,-0.8271 l 0,-4.1462 1.020828,0 0,4.0205 q 0,0.7172 -0.193695,1.2564 -0.193696,0.5392 -0.560147,0.9005 -0.366451,0.3559 -0.889952,0.5392 -0.523502,0.178 -1.177879,0.178 -0.622967,0 -1.125528,-0.1728 -0.497327,-0.178 -0.853308,-0.5235 -0.350746,-0.3507 -0.544441,-0.869 -0.188461,-0.5183 -0.188461,-1.2041 l 0,-4.1252 1.031298,0 0,4.0834 q 0,0.4816 0.125641,0.848 0.12564,0.3612 0.355981,0.6073 0.235575,0.2408 0.560146,0.3664 0.329806,0.1204 0.738137,0.1204 z"
         id="path4304"
         inkscape:connector-curvature="0"
         style="fill:#808080" />
      <path
         d="m 99.046457,1027.3969 -1.209289,0 -1.450099,-2.2092 q -0.0157,-0.026 -0.06806,-0.1 -0.04711,-0.078 -0.1047,-0.1623 -0.05759,-0.089 -0.109936,-0.1675 -0.05235,-0.084 -0.07852,-0.1256 l -0.01047,0 q -0.0157,0.031 -0.05759,0.094 -0.03664,0.058 -0.08376,0.1309 -0.04712,0.073 -0.09947,0.1465 -0.05235,0.073 -0.09423,0.1309 l -1.476274,2.2616 -1.224994,0 2.434282,-3.4761 -2.303407,-3.2981 1.230229,0 1.115058,1.691 q 0.04712,0.068 0.120406,0.1884 0.07852,0.1204 0.162285,0.2513 0.08376,0.1256 0.157051,0.2513 0.07852,0.1204 0.120405,0.1989 l 0.02094,0 q 0.03665,-0.079 0.11517,-0.2042 0.07853,-0.1308 0.162286,-0.2669 0.08899,-0.1362 0.16752,-0.2513 0.07853,-0.1204 0.109936,-0.1675 l 1.172643,-1.691 1.167409,0 -2.292937,3.2353 2.408107,3.5389 z"
         id="path4306"
         inkscape:connector-curvature="0"
         style="fill:#808080" />
    </g>
  </g>
</svg>
