<?xml version="1.0" encoding="UTF-8" standalone="no"?>
<!-- Created with Inkscape (http://www.inkscape.org/) -->

<svg
   xmlns:dc="http://purl.org/dc/elements/1.1/"
   xmlns:cc="http://creativecommons.org/ns#"
   xmlns:rdf="http://www.w3.org/1999/02/22-rdf-syntax-ns#"
   xmlns:svg="http://www.w3.org/2000/svg"
   xmlns="http://www.w3.org/2000/svg"
   xmlns:sodipodi="http://sodipodi.sourceforge.net/DTD/sodipodi-0.dtd"
   xmlns:inkscape="http://www.inkscape.org/namespaces/inkscape"
   width="43"
   height="50"
   viewBox="0 0 43 50"
   id="svg2"
   version="1.1"
   inkscape:version="0.92.1 r15371"
   sodipodi:docname="background_analogvu_3_peak.svg">
  <defs
     id="defs4">
    <pattern
       y="0"
       x="0"
       height="6"
       width="6"
       patternUnits="userSpaceOnUse"
       id="EMFhbasepattern" />
    <pattern
       id="EMFhbasepattern-2"
       patternUnits="userSpaceOnUse"
       width="6"
       height="6"
       x="0"
       y="0" />
    <clipPath
       id="clipEmfPath1"
       clipPathUnits="userSpaceOnUse">
      <path
         inkscape:connector-curvature="0"
         id="path4146"
         d="m 0.524996,22.0498 c 0,-12.89987 10.124904,-23.32479 22.649804,-23.32479 12.5249,0 22.7249,10.42492 22.7249,23.32479 0,12.8999 -10.2,23.3999 -22.7249,23.3999 -12.5249,0 -22.649804,-10.5 -22.649804,-23.3999 z" />
    </clipPath>
    <pattern
       y="0"
       x="0"
       height="6"
       width="6"
       patternUnits="userSpaceOnUse"
       id="EMFhbasepattern-7" />
  </defs>
  <sodipodi:namedview
     id="base"
     pagecolor="#ffffff"
     bordercolor="#666666"
     borderopacity="1.0"
     inkscape:pageopacity="0.0"
     inkscape:pageshadow="2"
     inkscape:zoom="5.6568545"
     inkscape:cx="16.245277"
     inkscape:cy="16.352597"
     inkscape:document-units="px"
     inkscape:current-layer="layer1"
     showgrid="false"
     units="px"
     inkscape:window-width="1920"
     inkscape:window-height="1028"
     inkscape:window-x="-8"
     inkscape:window-y="-8"
     inkscape:window-maximized="1"
     showguides="true"
     inkscape:guide-bbox="true" />
  <metadata
     id="metadata7">
    <rdf:RDF>
      <cc:Work
         rdf:about="">
        <dc:format>image/svg+xml</dc:format>
        <dc:type
           rdf:resource="http://purl.org/dc/dcmitype/StillImage" />
        <dc:title />
        <dc:creator>
          <cc:Agent>
            <dc:title>Jorge Rosa</dc:title>
          </cc:Agent>
        </dc:creator>
        <dc:description>Email: jorge.bigarte@gmail.com
Site:https://sites.google.com/site/jorgerosaportfolio</dc:description>
      </cc:Work>
    </rdf:RDF>
  </metadata>
  <g
     inkscape:label="Layer 1"
     inkscape:groupmode="layer"
     id="layer1"
     transform="translate(0,-1002.3622)">
    <g
       id="g4956"
       transform="matrix(0,0.02442813,-0.02442813,0,15.321547,1036.2396)" />
    <path
       inkscape:connector-curvature="0"
       id="path4151"
       d=""
       clip-path="url(#clipEmfPath1)"
       style="fill:none;stroke:none"
       transform="translate(7.3339618,1013.8494)" />
    <path
       style="opacity:1;fill:#ff00ff;fill-opacity:1;stroke:none;stroke-width:0.65338755;stroke-miterlimit:4;stroke-dasharray:none;stroke-opacity:1"
       d="m 21.499995,1011.5924 a 3.8611862,3.8611862 0 0 0 -3.86142,3.8614 3.8611862,3.8611862 0 0 0 3.86142,3.8614 3.8611862,3.8611862 0 0 0 3.86143,-3.8614 3.8611862,3.8611862 0 0 0 -3.86143,-3.8614 z m -0.22177,1.024 c 0.25907,0 0.48979,0.032 0.69193,0.098 0.20214,0.066 0.37248,0.161 0.51199,0.2863 0.1395,0.1224 0.2466,0.2721 0.32062,0.4487 0.074,0.1736 0.11026,0.371 0.11026,0.5931 0,0.1594 -0.027,0.3091 -0.0811,0.4486 -0.0513,0.1366 -0.1218,0.2624 -0.21292,0.3763 -0.0911,0.1111 -0.20137,0.2087 -0.32949,0.2941 -0.12527,0.085 -0.26128,0.155 -0.40933,0.209 0.1879,0.034 0.35728,0.091 0.50818,0.1673 0.15374,0.077 0.28467,0.1703 0.39286,0.2814 0.11104,0.1111 0.19525,0.2368 0.25219,0.3764 0.0598,0.1395 0.0887,0.287 0.0887,0.4435 0,0.2506 -0.0467,0.4781 -0.14067,0.683 -0.0911,0.2023 -0.22203,0.3758 -0.39286,0.521 -0.16798,0.1423 -0.36945,0.2534 -0.60576,0.3332 -0.23346,0.077 -0.49341,0.1154 -0.77812,0.1154 -0.25339,0 -0.49331,-0.026 -0.72108,-0.078 -0.22492,-0.054 -0.42767,-0.135 -0.60703,-0.2433 v -0.7806 c 0.0996,0.069 0.20673,0.1305 0.32062,0.1875 0.11388,0.054 0.22828,0.1008 0.34217,0.1408 0.11388,0.037 0.22384,0.067 0.33202,0.09 0.11104,0.019 0.214,0.029 0.30795,0.029 0.36728,0 0.63644,-0.085 0.80726,-0.256 0.17368,-0.1737 0.26107,-0.4085 0.26107,-0.7046 0,-0.1481 -0.0333,-0.279 -0.0988,-0.3929 -0.0626,-0.1138 -0.15416,-0.2094 -0.27373,-0.2864 -0.11673,-0.08 -0.25593,-0.1388 -0.41821,-0.1787 -0.16228,-0.04 -0.34088,-0.06 -0.53733,-0.06 h -0.4106 v -0.7008 h 0.26106 c 0.21923,0 0.40926,-0.024 0.57154,-0.072 0.16229,-0.051 0.2964,-0.1199 0.40173,-0.2053 0.1082,-0.085 0.18827,-0.1862 0.23953,-0.3029 0.0541,-0.1167 0.0811,-0.2426 0.0811,-0.3764 0,-0.1452 -0.0229,-0.2688 -0.0685,-0.3713 -0.0427,-0.1026 -0.10309,-0.1868 -0.17996,-0.2522 -0.0769,-0.066 -0.16713,-0.1121 -0.27246,-0.1407 -0.10535,-0.031 -0.22071,-0.047 -0.34597,-0.047 -0.0826,0 -0.17727,0.011 -0.28261,0.031 -0.1025,0.02 -0.21055,0.048 -0.32442,0.089 -0.11389,0.037 -0.22924,0.083 -0.34597,0.1369 -0.11389,0.051 -0.22193,0.1117 -0.32442,0.1799 v -0.7439 c 0.20498,-0.1281 0.42012,-0.2206 0.64504,-0.2775 0.22777,-0.06 0.46579,-0.089 0.71348,-0.089 z"
       id="path4518-3-5"
       inkscape:connector-curvature="0" />
  </g>
</svg>
