<?xml version="1.0" encoding="UTF-8" standalone="no"?>
<!-- Created with Inkscape (http://www.inkscape.org/) -->

<svg
   xmlns:dc="http://purl.org/dc/elements/1.1/"
   xmlns:cc="http://creativecommons.org/ns#"
   xmlns:rdf="http://www.w3.org/1999/02/22-rdf-syntax-ns#"
   xmlns:svg="http://www.w3.org/2000/svg"
   xmlns="http://www.w3.org/2000/svg"
   xmlns:xlink="http://www.w3.org/1999/xlink"
   xmlns:sodipodi="http://sodipodi.sourceforge.net/DTD/sodipodi-0.dtd"
   xmlns:inkscape="http://www.inkscape.org/namespaces/inkscape"
   width="700"
   height="85"
   viewBox="0 0 700 85"
   id="svg2"
   version="1.1"
   inkscape:version="0.92.1 r15371"
   sodipodi:docname="background_effects_unit.svg">
  <defs
     id="defs4">
    <linearGradient
       inkscape:collect="always"
       id="linearGradient4650">
      <stop
         style="stop-color:#646464;stop-opacity:1"
         offset="0"
         id="stop4646" />
      <stop
         style="stop-color:#000000;stop-opacity:1"
         offset="1"
         id="stop4648" />
    </linearGradient>
    <linearGradient
       inkscape:collect="always"
       id="linearGradient4696">
      <stop
         style="stop-color:#1e1e1e;stop-opacity:1"
         offset="0"
         id="stop4692" />
      <stop
         style="stop-color:#000000;stop-opacity:1"
         offset="1"
         id="stop4694" />
    </linearGradient>
    <linearGradient
       inkscape:collect="always"
       id="linearGradient4690">
      <stop
         style="stop-color:#1e1e1e;stop-opacity:1"
         offset="0"
         id="stop4686" />
      <stop
         style="stop-color:#000000;stop-opacity:1"
         offset="1"
         id="stop4688" />
    </linearGradient>
    <linearGradient
       inkscape:collect="always"
       id="linearGradient4684">
      <stop
         style="stop-color:#1e1e1e;stop-opacity:1"
         offset="0"
         id="stop4680" />
      <stop
         style="stop-color:#000000;stop-opacity:1"
         offset="1"
         id="stop4682" />
    </linearGradient>
    <linearGradient
       inkscape:collect="always"
       id="linearGradient4654">
      <stop
         style="stop-color:#646464;stop-opacity:1"
         offset="0"
         id="stop4650" />
      <stop
         style="stop-color:#0a0a0a;stop-opacity:1"
         offset="1"
         id="stop4652" />
    </linearGradient>
    <linearGradient
       inkscape:collect="always"
       id="linearGradient4649">
      <stop
         style="stop-color:#191919;stop-opacity:1"
         offset="0"
         id="stop4645" />
      <stop
         style="stop-color:#000000;stop-opacity:1"
         offset="1"
         id="stop4647" />
    </linearGradient>
    <linearGradient
       id="linearGradient4636"
       inkscape:collect="always">
      <stop
         id="stop4638"
         offset="0"
         style="stop-color:#0f0f0f;stop-opacity:1" />
      <stop
         id="stop4640"
         offset="1"
         style="stop-color:#000000;stop-opacity:1" />
    </linearGradient>
    <linearGradient
       id="linearGradient4211"
       inkscape:collect="always">
      <stop
         id="stop4213"
         offset="0"
         style="stop-color:#141414;stop-opacity:1" />
      <stop
         id="stop4215"
         offset="1"
         style="stop-color:#000000;stop-opacity:1" />
    </linearGradient>
    <linearGradient
       inkscape:collect="always"
       id="linearGradient4467">
      <stop
         style="stop-color:#0f0f0f;stop-opacity:1"
         offset="0"
         id="stop4469" />
      <stop
         style="stop-color:#000000;stop-opacity:1"
         offset="1"
         id="stop4471" />
    </linearGradient>
    <linearGradient
       id="linearGradient4689"
       inkscape:collect="always">
      <stop
         id="stop4691"
         offset="0"
         style="stop-color:#4d4d4d;stop-opacity:1" />
      <stop
         id="stop4693"
         offset="1"
         style="stop-color:#000000;stop-opacity:1" />
    </linearGradient>
    <linearGradient
       id="linearGradient4683"
       inkscape:collect="always">
      <stop
         id="stop4685"
         offset="0"
         style="stop-color:#646464;stop-opacity:1" />
      <stop
         id="stop4687"
         offset="1"
         style="stop-color:#000000;stop-opacity:1" />
    </linearGradient>
    <linearGradient
       inkscape:collect="always"
       id="linearGradient4193">
      <stop
         style="stop-color:#191919;stop-opacity:1"
         offset="0"
         id="stop4195" />
      <stop
         style="stop-color:#000000;stop-opacity:1"
         offset="1"
         id="stop4197" />
    </linearGradient>
    <inkscape:perspective
       id="perspective2840"
       inkscape:persp3d-origin="372.04724 : 350.78739 : 1"
       inkscape:vp_z="744.09448 : 526.18109 : 1"
       inkscape:vp_y="0 : 1000 : 0"
       inkscape:vp_x="0 : 526.18109 : 1"
       sodipodi:type="inkscape:persp3d" />
    <inkscape:perspective
       id="perspective2840-1"
       inkscape:persp3d-origin="372.04724 : 350.78739 : 1"
       inkscape:vp_z="744.09448 : 526.18109 : 1"
       inkscape:vp_y="0 : 1000 : 0"
       inkscape:vp_x="0 : 526.18109 : 1"
       sodipodi:type="inkscape:persp3d" />
    <linearGradient
       inkscape:collect="always"
       id="linearGradient6110">
      <stop
         style="stop-color:#05010a;stop-opacity:1"
         offset="0"
         id="stop6112" />
      <stop
         style="stop-color:#000000;stop-opacity:1"
         offset="1"
         id="stop6114" />
    </linearGradient>
    <radialGradient
       inkscape:collect="always"
       xlink:href="#linearGradient4193"
       id="radialGradient4199-4"
       cx="50.032207"
       cy="1032.3163"
       fx="50.032207"
       fy="1032.3163"
       r="50.506916"
       gradientTransform="matrix(5.9276023,-1.5648632e-8,0,0.61202307,198.33668,384.3958)"
       gradientUnits="userSpaceOnUse" />
    <radialGradient
       inkscape:collect="always"
       xlink:href="#linearGradient4211"
       id="radialGradient4199-9-1"
       cx="50.514771"
       cy="967.59174"
       fx="50.514771"
       fy="967.59174"
       r="50.506916"
       gradientTransform="matrix(6.7307748,0,0,0.13249175,-142.38956,884.31018)"
       gradientUnits="userSpaceOnUse" />
    <radialGradient
       inkscape:collect="always"
       xlink:href="#linearGradient4683"
       id="radialGradient4165-4"
       cx="59"
       cy="993.13348"
       fx="59"
       fy="993.13348"
       r="59.147999"
       gradientUnits="userSpaceOnUse"
       gradientTransform="matrix(0.04402821,-4.0027322e-8,1.4091047e-8,0.98157787,-1.097679,35.003908)" />
    <radialGradient
       inkscape:collect="always"
       xlink:href="#linearGradient4689"
       id="radialGradient4165-4-3-3"
       cx="59"
       cy="993.13348"
       fx="59"
       fy="993.13348"
       r="59.147999"
       gradientUnits="userSpaceOnUse"
       gradientTransform="matrix(0.0293845,-3.7706522e-8,0,0.92466559,292.07021,91.536379)" />
    <radialGradient
       inkscape:collect="always"
       xlink:href="#linearGradient6110"
       id="radialGradient4196-5-9-8-9-7-3-0-5-4-1-4-1-7"
       cx="767.77008"
       cy="233.74478"
       fx="767.77008"
       fy="233.74478"
       r="32.034878"
       gradientTransform="matrix(1.6264642,-4.9262083e-6,-6.8294383e-7,0.2342575,-1030.195,976.16348)"
       gradientUnits="userSpaceOnUse" />
    <radialGradient
       inkscape:collect="always"
       xlink:href="#linearGradient4650"
       id="radialGradient4165-4-5"
       cx="59"
       cy="993.13348"
       fx="59"
       fy="993.13348"
       r="59.147999"
       gradientUnits="userSpaceOnUse"
       gradientTransform="matrix(0.04402795,-4.0043216e-8,1.4090967e-8,0.98196763,692.37902,34.61177)" />
    <radialGradient
       inkscape:collect="always"
       xlink:href="#linearGradient4689"
       id="radialGradient4165-4-3-3-7"
       cx="59"
       cy="993.13348"
       fx="59"
       fy="993.13348"
       r="59.147999"
       gradientUnits="userSpaceOnUse"
       gradientTransform="matrix(-2.0357109e-7,-0.02879714,4.9921123,0,-4463.7832,1018.5361)" />
    <radialGradient
       inkscape:collect="always"
       xlink:href="#linearGradient4467"
       id="radialGradient4165-9-0-6-0-3"
       cx="59"
       cy="993.13348"
       fx="59"
       fy="993.13348"
       r="59.147999"
       gradientUnits="userSpaceOnUse"
       gradientTransform="matrix(4.0099292,1.4569005e-5,0,0.48063904,-40.486596,516.78597)" />
    <pattern
       y="0"
       x="0"
       height="6"
       width="6"
       patternUnits="userSpaceOnUse"
       id="EMFhbasepattern" />
    <radialGradient
       inkscape:collect="always"
       xlink:href="#linearGradient4690"
       id="radialGradient4165-4-3-3-7-7"
       cx="59"
       cy="993.13348"
       fx="59"
       fy="993.13348"
       r="59.147999"
       gradientUnits="userSpaceOnUse"
       gradientTransform="matrix(-4.6103297e-7,-0.03396218,11.305772,0,-10880.097,1050.0486)" />
    <radialGradient
       inkscape:collect="always"
       xlink:href="#linearGradient4684"
       id="radialGradient4165-4-3-3-7-7-9"
       cx="59"
       cy="993.13348"
       fx="59"
       fy="993.13348"
       r="59.147999"
       gradientUnits="userSpaceOnUse"
       gradientTransform="matrix(-4.6041757e-7,-0.03395653,11.290681,0,-10864.79,973.59201)" />
    <radialGradient
       inkscape:collect="always"
       xlink:href="#linearGradient4636"
       id="radialGradient4199-4-7"
       cx="50.032211"
       cy="1032.3163"
       fx="50.032211"
       fy="1032.3163"
       r="50.506916"
       gradientTransform="matrix(7.1336558,0,-1.3778153e-7,0.51610735,-306.6813,483.41114)"
       gradientUnits="userSpaceOnUse" />
    <radialGradient
       inkscape:collect="always"
       xlink:href="#linearGradient4689"
       id="radialGradient4165-4-3-3-1"
       cx="59"
       cy="993.13348"
       fx="59"
       fy="993.13348"
       r="59.147999"
       gradientUnits="userSpaceOnUse"
       gradientTransform="matrix(0.02938488,-3.7641362e-8,0,0.92306769,96.74989,93.123117)" />
    <clipPath
       id="clipPath4910"
       clipPathUnits="userSpaceOnUse">
      <rect
         clip-path="none"
         y="1009.5824"
         x="-3.4462209"
         height="35.654499"
         width="50.79744"
         id="rect4912"
         style="fill:#1a1a1a;fill-opacity:0;stroke:#ff0000;stroke-width:1.69064653;stroke-miterlimit:4;stroke-dasharray:none" />
    </clipPath>
    <clipPath
       id="clipPath4154"
       clipPathUnits="userSpaceOnUse">
      <rect
         y="1011.5597"
         x="-8.2727222"
         height="29.346857"
         width="57.790737"
         id="rect4156"
         style="fill:#1a1a1a;fill-opacity:0;stroke:#ff0000;stroke-width:0.96399999;stroke-miterlimit:4;stroke-dasharray:none" />
    </clipPath>
    <filter
       id="filter4209"
       inkscape:label="Blur"
       style="color-interpolation-filters:sRGB">
      <feGaussianBlur
         id="feGaussianBlur4211"
         result="blur"
         stdDeviation="1 1.05" />
    </filter>
    <filter
       id="filter4321"
       inkscape:label="Blur"
       style="color-interpolation-filters:sRGB">
      <feGaussianBlur
         id="feGaussianBlur4323"
         result="blur"
         stdDeviation="1 1.05" />
    </filter>
    <filter
       id="filter4207"
       inkscape:label="Opacity"
       style="color-interpolation-filters:sRGB">
      <feGaussianBlur
         id="feGaussianBlur4209"
         result="fbSourceGraphic"
         stdDeviation="0.5 0.55" />
      <feColorMatrix
         id="feColorMatrix4223"
         values="0 0 0 -1 0 0 0 0 -1 0 0 0 0 -1 0 0 0 0 1 0"
         in="fbSourceGraphic"
         result="fbSourceGraphicAlpha" />
      <feColorMatrix
         in="fbSourceGraphic"
         result="colormatrix"
         values="1 0 0 0 0 0 1 0 0 0 0 0 1 0 0 0 0 0 1 -9.6 "
         id="feColorMatrix4225" />
      <feComposite
         result="fbSourceGraphic"
         k2="1"
         operator="arithmetic"
         in2="colormatrix"
         id="feComposite4227"
         k1="0"
         k3="0"
         k4="0" />
      <feColorMatrix
         id="feColorMatrix4235"
         values="0 0 0 -1 0 0 0 0 -1 0 0 0 0 -1 0 0 0 0 1 0"
         in="fbSourceGraphic"
         result="fbSourceGraphicAlpha" />
      <feColorMatrix
         in="fbSourceGraphic"
         result="colormatrix"
         values="1 0 0 0 0 0 1 0 0 0 0 0 1 0 0 0 0 0 1 -9.6 "
         id="feColorMatrix4237" />
      <feComposite
         result="fbSourceGraphic"
         k2="1.38778e-016"
         operator="arithmetic"
         in2="colormatrix"
         id="feComposite4239"
         k1="0"
         k3="0"
         k4="0" />
      <feColorMatrix
         id="feColorMatrix4247"
         values="0 0 0 -1 0 0 0 0 -1 0 0 0 0 -1 0 0 0 0 1 0"
         in="fbSourceGraphic"
         result="fbSourceGraphicAlpha" />
      <feColorMatrix
         in="fbSourceGraphic"
         result="colormatrix"
         values="1 0 0 0 0 0 1 0 0 0 0 0 1 0 0 0 0 0 1 -9.6 "
         id="feColorMatrix4249" />
      <feComposite
         result="fbSourceGraphic"
         k2="1"
         operator="arithmetic"
         in2="colormatrix"
         id="feComposite4251"
         k1="0"
         k3="0"
         k4="0" />
      <feColorMatrix
         id="feColorMatrix4253"
         values="0 0 0 -1 0 0 0 0 -1 0 0 0 0 -1 0 0 0 0 1 0"
         in="fbSourceGraphic"
         result="fbSourceGraphicAlpha" />
      <feColorMatrix
         in="fbSourceGraphic"
         result="colormatrix"
         values="1 0 0 0 0 0 1 0 0 0 0 0 1 0 0 0 0 0 1 -9.6 "
         id="feColorMatrix4255" />
      <feComposite
         result="fbSourceGraphic"
         k2="1"
         operator="arithmetic"
         in2="colormatrix"
         id="feComposite4257"
         k1="0"
         k3="0"
         k4="0" />
      <feColorMatrix
         id="feColorMatrix4259"
         values="0 0 0 -1 0 0 0 0 -1 0 0 0 0 -1 0 0 0 0 1 0"
         in="fbSourceGraphic"
         result="fbSourceGraphicAlpha" />
      <feColorMatrix
         in="fbSourceGraphic"
         result="colormatrix"
         values="1 0 0 0 0 0 1 0 0 0 0 0 1 0 0 0 0 0 1 -9.6 "
         id="feColorMatrix4261" />
      <feComposite
         result="fbSourceGraphic"
         k2="0.6"
         operator="arithmetic"
         in2="colormatrix"
         id="feComposite4263"
         k1="0"
         k3="0"
         k4="0" />
      <feColorMatrix
         id="feColorMatrix4265"
         values="0 0 0 -1 0 0 0 0 -1 0 0 0 0 -1 0 0 0 0 1 0"
         in="fbSourceGraphic"
         result="fbSourceGraphicAlpha" />
      <feColorMatrix
         in="fbSourceGraphic"
         result="colormatrix"
         values="1 0 0 0 0 0 1 0 0 0 0 0 1 0 0 0 0 0 1 -9.6 "
         id="feColorMatrix4267" />
      <feComposite
         result="composite"
         k2="0.6"
         operator="arithmetic"
         in2="colormatrix"
         id="feComposite4269"
         k1="0"
         k3="0"
         k4="0" />
    </filter>
    <pattern
       id="EMFhbasepattern-0"
       patternUnits="userSpaceOnUse"
       width="6"
       height="6"
       x="0"
       y="0" />
    <radialGradient
       inkscape:collect="always"
       xlink:href="#linearGradient4649"
       id="radialGradient4165-4-8"
       cx="59"
       cy="993.13348"
       fx="59"
       fy="993.13348"
       r="59.147999"
       gradientUnits="userSpaceOnUse"
       gradientTransform="matrix(2.3910139,8.7870356e-7,0,0.71920661,-91.195417,295.13807)" />
    <radialGradient
       inkscape:collect="always"
       xlink:href="#linearGradient4654"
       id="radialGradient4199-9-1-4"
       cx="50.464264"
       cy="948.86566"
       fx="50.464264"
       fy="948.86566"
       r="50.506916"
       gradientTransform="matrix(10.43443,0,0,0.49709071,-329.47883,552.60934)"
       gradientUnits="userSpaceOnUse" />
    <radialGradient
       inkscape:collect="always"
       xlink:href="#linearGradient4696"
       id="radialGradient4165-4-3-3-1-8"
       cx="59"
       cy="993.13348"
       fx="59"
       fy="993.13348"
       r="59.147999"
       gradientUnits="userSpaceOnUse"
       gradientTransform="matrix(9.9035352e-8,0.01435297,-2.428614,0,2607.8871,1013.0154)" />
  </defs>
  <sodipodi:namedview
     id="base"
     pagecolor="#ffffff"
     bordercolor="#666666"
     borderopacity="1.0"
     inkscape:pageopacity="0.0"
     inkscape:pageshadow="2"
     inkscape:zoom="3.7950519"
     inkscape:cx="68.667801"
     inkscape:cy="32.682902"
     inkscape:document-units="px"
     inkscape:current-layer="layer1"
     showgrid="false"
     units="px"
     inkscape:window-width="1920"
     inkscape:window-height="1028"
     inkscape:window-x="-8"
     inkscape:window-y="-8"
     inkscape:window-maximized="1"
     objecttolerance="10"
     guidetolerance="3"
     showguides="true"
     inkscape:guide-bbox="true">
    <sodipodi:guide
       position="81.609629,67.076408"
       orientation="0,1"
       id="guide4273"
       inkscape:locked="false" />
    <sodipodi:guide
       position="87.385653,48.444072"
       orientation="0,1"
       id="guide4343"
       inkscape:locked="false" />
    <sodipodi:guide
       position="696.47669,-0.18632335"
       orientation="1,0"
       id="guide4620"
       inkscape:locked="false" />
    <sodipodi:guide
       position="139.64935,0.27948502"
       orientation="1,0"
       id="guide4698"
       inkscape:locked="false" />
  </sodipodi:namedview>
  <metadata
     id="metadata7">
    <rdf:RDF>
      <cc:Work
         rdf:about="">
        <dc:format>image/svg+xml</dc:format>
        <dc:type
           rdf:resource="http://purl.org/dc/dcmitype/StillImage" />
        <dc:title />
        <dc:creator>
          <cc:Agent>
            <dc:title>Jorge Rosa</dc:title>
          </cc:Agent>
        </dc:creator>
        <dc:description>Email: jorge.bigarte@gmail.com
Site:https://sites.google.com/site/jorgerosaportfolio</dc:description>
      </cc:Work>
    </rdf:RDF>
  </metadata>
  <g
     inkscape:label="Layer 1"
     inkscape:groupmode="layer"
     id="layer1"
     transform="translate(0,-967.3622)">
    <path
       style="opacity:1;fill:url(#radialGradient4199-4-7);fill-opacity:1;stroke:none;stroke-width:1.45627046;stroke-linecap:round;stroke-linejoin:round;stroke-miterlimit:4;stroke-dasharray:none;stroke-opacity:1"
       d="M 1.3538227,970.39882 H 98.92694 v 78.92678 H 1.3538227 Z"
       id="rect4183-3-8"
       inkscape:connector-curvature="0" />
    <path
       style="opacity:1;fill:url(#radialGradient4165-4-8);fill-opacity:1;stroke:#000000;stroke-width:0.21674785;stroke-miterlimit:4;stroke-dasharray:none"
       d="M 1.7472463,970.62354 H 98.001603 V 1048.189 H 1.7472463 Z"
       id="rect4157-9-7"
       inkscape:connector-curvature="0" />
    <path
       style="opacity:1;fill:url(#radialGradient4199-4);fill-opacity:1;stroke:none;stroke-width:0.94677126;stroke-linecap:round;stroke-linejoin:round;stroke-miterlimit:4;stroke-dasharray:none;stroke-opacity:1"
       d="m 292.58761,970.39884 h 403.88908 v 78.92676 H 292.58761 Z"
       id="rect4183-3"
       inkscape:connector-curvature="0" />
    <path
       style="opacity:1;fill:url(#radialGradient4199-9-1);fill-opacity:1;stroke:none;stroke-width:0.78271896;stroke-linecap:round;stroke-linejoin:round;stroke-miterlimit:4;stroke-dasharray:none;stroke-opacity:1"
       d="m 98.44741,970.419 h 195.00468 v 78.8864 H 98.44741 Z"
       id="rect4183-7-9"
       inkscape:connector-curvature="0" />
    <path
       style="opacity:1;fill:url(#radialGradient4165-9-0-6-0-3);fill-opacity:1;stroke:#000000;stroke-width:0.23721537;stroke-miterlimit:4;stroke-dasharray:none"
       d="M 98.682646,971.17627 H 293.51894 v 45.89803 H 98.682646 Z"
       id="rect4157-8-1-5-7-0"
       inkscape:connector-curvature="0" />
    <path
       style="opacity:0.5;fill:url(#radialGradient4199-9-1-4);fill-opacity:1;stroke:none;stroke-width:0.52558666;stroke-linecap:round;stroke-linejoin:round;stroke-miterlimit:4;stroke-dasharray:none;stroke-opacity:1"
       d="m 98.44741,1013.7358 h 195.00468 v 35.5696 H 98.44741 Z"
       id="rect4183-7-9-4"
       inkscape:connector-curvature="0" />
    <path
       style="opacity:0.3;fill:url(#radialGradient4165-4-3-3-7);fill-opacity:1;stroke:#000000;stroke-width:0.06989932;stroke-miterlimit:4;stroke-dasharray:none"
       d="m 293.62996,1017.8055 v -1.9369 h 400.84075 v 1.9369 z"
       id="rect4157-9-2-3-6"
       inkscape:connector-curvature="0" />
    <path
       style="opacity:1;fill:#323232;fill-opacity:1;stroke:#000000;stroke-width:0.02016647;stroke-miterlimit:4;stroke-dasharray:none"
       d="m 121.86122,1001.5393 v 0.9798 h 65.97983 v -0.9798 z"
       id="rect4157-9-2-3-8"
       inkscape:connector-curvature="0" />
    <path
       style="opacity:1;fill:url(#radialGradient4165-4-3-3-1-8);fill-opacity:1;stroke:#000000;stroke-width:0.03441963;stroke-miterlimit:4;stroke-dasharray:none"
       d="m 293.45209,1013.3795 v 0.9655 H 98.44741 v -0.9655 z"
       id="rect4157-9-2-3-9-7"
       inkscape:connector-curvature="0" />
    <path
       style="opacity:1;fill:url(#radialGradient4165-4-3-3);fill-opacity:1;stroke:#000000;stroke-width:0.03038838;stroke-miterlimit:4;stroke-dasharray:none"
       d="m 292.81559,972.72975 h 1.97663 v 74.24575 h -1.97663 z"
       id="rect4157-9-2-3"
       inkscape:connector-curvature="0" />
    <path
       style="opacity:1;fill:url(#radialGradient4196-5-9-8-9-7-3-0-5-4-1-4-1-7);fill-opacity:1;stroke:#2d2d2d;stroke-width:0.69999999;stroke-linecap:round;stroke-linejoin:round;stroke-miterlimit:4;stroke-dasharray:none;stroke-dashoffset:0;stroke-opacity:1"
       d="m 160.83,1019.8087 h 115.62537 v 22.2035 H 160.83 Z"
       id="rect4183-1-5-8-7-6-9-9-0-3-8-5-9-9"
       inkscape:connector-curvature="0" />
    <g
       style="font-style:normal;font-weight:normal;font-size:medium;line-height:125%;font-family:sans-serif;letter-spacing:0px;word-spacing:0px;opacity:0.07999998;fill:#ff00ff;fill-opacity:1;stroke:none;stroke-width:1px;stroke-linecap:butt;stroke-linejoin:miter;stroke-opacity:1"
       transform="matrix(0.93083574,0,0,1.0743034,128.90873,-1.1720085)"
       id="g1053">
      <path
         d="m 56.083635,957.22377 0.540314,-0.54031 h 4.156733 l 0.540313,0.54031 -0.540313,0.54646 h -4.156733 z m 0,3.7515 0.540314,-0.53417 h 4.156733 l 0.540313,0.53417 -0.540313,0.54645 h -4.156733 z m 0,3.75764 0.540314,-0.54032 h 4.156733 l 0.540313,0.54032 -0.540313,0.54031 h -4.156733 z m 5.23736,-3.75764 0.540314,0.54645 v 2.67087 l -0.540314,0.54032 -0.540313,-0.54032 v -2.67087 z m 0,-3.7515 0.540314,0.54646 v 2.67087 l -0.540314,0.53417 -0.540313,-0.53417 v -2.67087 z m -5.23736,0 -0.540314,0.54646 v 2.67087 l 0.540314,0.53417 0.540314,-0.53417 v -2.67087 z m 0,7.50914 -0.540314,-0.54032 v -2.67087 l 0.540314,-0.54645 0.540314,0.54645 v 2.67087 z"
         style="font-style:normal;font-variant:normal;font-weight:normal;font-stretch:normal;font-family:Digital;-inkscape-font-specification:Digital;fill:#ff00ff;fill-opacity:1"
         id="path4342"
         inkscape:connector-curvature="0" />
      <path
         d="m 63.623469,957.22377 0.540314,-0.54031 h 4.156733 l 0.540313,0.54031 -0.540313,0.54646 h -4.156733 z m 0,3.7515 0.540314,-0.53417 h 4.156733 l 0.540313,0.53417 -0.540313,0.54645 h -4.156733 z m 0,3.75764 0.540314,-0.54032 h 4.156733 l 0.540313,0.54032 -0.540313,0.54031 h -4.156733 z m 5.23736,-3.75764 0.540314,0.54645 v 2.67087 l -0.540314,0.54032 -0.540313,-0.54032 v -2.67087 z m 0,-3.7515 0.540314,0.54646 v 2.67087 l -0.540314,0.53417 -0.540313,-0.53417 v -2.67087 z m -5.23736,0 -0.540314,0.54646 v 2.67087 l 0.540314,0.53417 0.540314,-0.53417 v -2.67087 z m 0,7.50914 -0.540314,-0.54032 v -2.67087 l 0.540314,-0.54645 0.540314,0.54645 v 2.67087 z"
         style="font-style:normal;font-variant:normal;font-weight:normal;font-stretch:normal;font-family:Digital;-inkscape-font-specification:Digital;fill:#ff00ff;fill-opacity:1"
         id="path4344"
         inkscape:connector-curvature="0" />
      <path
         d="m 71.163304,957.22377 0.540314,-0.54031 h 4.156733 l 0.540313,0.54031 -0.540313,0.54646 h -4.156733 z m 0,3.7515 0.540314,-0.53417 h 4.156733 l 0.540313,0.53417 -0.540313,0.54645 h -4.156733 z m 0,3.75764 0.540314,-0.54032 h 4.156733 l 0.540313,0.54032 -0.540313,0.54031 h -4.156733 z m 5.23736,-3.75764 0.540314,0.54645 v 2.67087 l -0.540314,0.54032 -0.540313,-0.54032 v -2.67087 z m 0,-3.7515 0.540314,0.54646 v 2.67087 l -0.540314,0.53417 -0.540313,-0.53417 v -2.67087 z m -5.23736,0 -0.540314,0.54646 v 2.67087 l 0.540314,0.53417 0.540314,-0.53417 v -2.67087 z m 0,7.50914 -0.540314,-0.54032 v -2.67087 l 0.540314,-0.54645 0.540314,0.54645 v 2.67087 z"
         style="font-style:normal;font-variant:normal;font-weight:normal;font-stretch:normal;font-family:Digital;-inkscape-font-specification:Digital;fill:#ff00ff;fill-opacity:1"
         id="path4346"
         inkscape:connector-curvature="0" />
      <path
         d="m 78.703137,957.22377 0.540314,-0.54031 h 4.156733 l 0.540313,0.54031 -0.540313,0.54646 h -4.156733 z m 0,3.7515 0.540314,-0.53417 h 4.156733 l 0.540313,0.53417 -0.540313,0.54645 h -4.156733 z m 0,3.75764 0.540314,-0.54032 h 4.156733 l 0.540313,0.54032 -0.540313,0.54031 h -4.156733 z m 5.23736,-3.75764 0.540314,0.54645 v 2.67087 l -0.540314,0.54032 -0.540313,-0.54032 v -2.67087 z m 0,-3.7515 0.540314,0.54646 v 2.67087 l -0.540314,0.53417 -0.540313,-0.53417 v -2.67087 z m -5.23736,0 -0.540314,0.54646 v 2.67087 l 0.540314,0.53417 0.540314,-0.53417 v -2.67087 z m 0,7.50914 -0.540314,-0.54032 v -2.67087 l 0.540314,-0.54645 0.540314,0.54645 v 2.67087 z"
         style="font-style:normal;font-variant:normal;font-weight:normal;font-stretch:normal;font-family:Digital;-inkscape-font-specification:Digital;fill:#ff00ff;fill-opacity:1"
         id="path4348"
         inkscape:connector-curvature="0" />
      <path
         d="m 86.24297,957.22377 0.540314,-0.54031 h 4.156733 l 0.540313,0.54031 -0.540313,0.54646 h -4.156733 z m 0,3.7515 0.540314,-0.53417 h 4.156733 l 0.540313,0.53417 -0.540313,0.54645 h -4.156733 z m 0,3.75764 0.540314,-0.54032 h 4.156733 l 0.540313,0.54032 -0.540313,0.54031 h -4.156733 z m 5.23736,-3.75764 0.540314,0.54645 v 2.67087 l -0.540314,0.54032 -0.540313,-0.54032 v -2.67087 z m 0,-3.7515 0.540314,0.54646 v 2.67087 l -0.540314,0.53417 -0.540313,-0.53417 v -2.67087 z m -5.23736,0 -0.540314,0.54646 v 2.67087 l 0.540314,0.53417 0.540314,-0.53417 v -2.67087 z m 0,7.50914 -0.540314,-0.54032 v -2.67087 l 0.540314,-0.54645 0.540314,0.54645 v 2.67087 z"
         style="font-style:normal;font-variant:normal;font-weight:normal;font-stretch:normal;font-family:Digital;-inkscape-font-specification:Digital;fill:#ff00ff;fill-opacity:1"
         id="path4350"
         inkscape:connector-curvature="0" />
      <path
         d="m 93.782807,957.22377 0.540314,-0.54031 h 4.156732 l 0.54031,0.54031 -0.54031,0.54646 h -4.156732 z m 0,3.7515 0.540314,-0.53417 h 4.156732 l 0.54031,0.53417 -0.54031,0.54645 h -4.156732 z m 0,3.75764 0.540314,-0.54032 h 4.156732 l 0.54031,0.54032 -0.54031,0.54031 h -4.156732 z m 5.237356,-3.75764 0.54032,0.54645 v 2.67087 l -0.54032,0.54032 -0.54031,-0.54032 v -2.67087 z m 0,-3.7515 0.54032,0.54646 v 2.67087 l -0.54032,0.53417 -0.54031,-0.53417 v -2.67087 z m -5.237356,0 -0.540314,0.54646 v 2.67087 l 0.540314,0.53417 0.540314,-0.53417 v -2.67087 z m 0,7.50914 -0.540314,-0.54032 v -2.67087 l 0.540314,-0.54645 0.540314,0.54645 v 2.67087 z"
         style="font-style:normal;font-variant:normal;font-weight:normal;font-stretch:normal;font-family:Digital;-inkscape-font-specification:Digital;fill:#ff00ff;fill-opacity:1"
         id="path4352"
         inkscape:connector-curvature="0" />
      <path
         d="m 101.32264,957.22377 0.54031,-0.54031 h 4.15674 l 0.54032,0.54031 -0.54032,0.54646 h -4.15674 z m 0,3.7515 0.54031,-0.53417 h 4.15674 l 0.54032,0.53417 -0.54032,0.54645 h -4.15674 z m 0,3.75764 0.54031,-0.54032 h 4.15674 l 0.54032,0.54032 -0.54032,0.54031 h -4.15674 z m 5.23737,-3.75764 0.54031,0.54645 v 2.67087 l -0.54031,0.54032 -0.54032,-0.54032 v -2.67087 z m 0,-3.7515 0.54031,0.54646 v 2.67087 l -0.54031,0.53417 -0.54032,-0.53417 v -2.67087 z m -5.23737,0 -0.54031,0.54646 v 2.67087 l 0.54031,0.53417 0.54031,-0.53417 v -2.67087 z m 0,7.50914 -0.54031,-0.54032 v -2.67087 l 0.54031,-0.54645 0.54031,0.54645 v 2.67087 z"
         style="font-style:normal;font-variant:normal;font-weight:normal;font-stretch:normal;font-family:Digital;-inkscape-font-specification:Digital;fill:#ff00ff;fill-opacity:1"
         id="path4354"
         inkscape:connector-curvature="0" />
      <path
         d="m 108.86248,957.22377 0.54032,-0.54031 h 4.15674 l 0.54031,0.54031 -0.54031,0.54646 h -4.15674 z m 0,3.7515 0.54032,-0.53417 h 4.15674 l 0.54031,0.53417 -0.54031,0.54645 h -4.15674 z m 0,3.75764 0.54032,-0.54032 h 4.15674 l 0.54031,0.54032 -0.54031,0.54031 h -4.15674 z m 5.23737,-3.75764 0.54032,0.54645 v 2.67087 l -0.54032,0.54032 -0.54031,-0.54032 v -2.67087 z m 0,-3.7515 0.54032,0.54646 v 2.67087 l -0.54032,0.53417 -0.54031,-0.53417 v -2.67087 z m -5.23737,0 -0.54031,0.54646 v 2.67087 l 0.54031,0.53417 0.54032,-0.53417 v -2.67087 z m 0,7.50914 -0.54031,-0.54032 v -2.67087 l 0.54031,-0.54645 0.54032,0.54645 v 2.67087 z"
         style="font-style:normal;font-variant:normal;font-weight:normal;font-stretch:normal;font-family:Digital;-inkscape-font-specification:Digital;fill:#ff00ff;fill-opacity:1"
         id="path4356"
         inkscape:connector-curvature="0" />
      <path
         d="m 116.40232,957.22377 0.54032,-0.54031 h 4.15673 l 0.54031,0.54031 -0.54031,0.54646 h -4.15673 z m 0,3.7515 0.54032,-0.53417 h 4.15673 l 0.54031,0.53417 -0.54031,0.54645 h -4.15673 z m 0,3.75764 0.54032,-0.54032 h 4.15673 l 0.54031,0.54032 -0.54031,0.54031 h -4.15673 z m 5.23736,-3.75764 0.54032,0.54645 v 2.67087 l -0.54032,0.54032 -0.54031,-0.54032 v -2.67087 z m 0,-3.7515 0.54032,0.54646 v 2.67087 l -0.54032,0.53417 -0.54031,-0.53417 v -2.67087 z m -5.23736,0 -0.54031,0.54646 v 2.67087 l 0.54031,0.53417 0.54032,-0.53417 v -2.67087 z m 0,7.50914 -0.54031,-0.54032 v -2.67087 l 0.54031,-0.54645 0.54032,0.54645 v 2.67087 z"
         style="font-style:normal;font-variant:normal;font-weight:normal;font-stretch:normal;font-family:Digital;-inkscape-font-specification:Digital;fill:#ff00ff;fill-opacity:1"
         id="path4358"
         inkscape:connector-curvature="0" />
      <path
         d="m 123.94216,957.22377 0.54031,-0.54031 h 4.15673 l 0.54032,0.54031 -0.54032,0.54646 h -4.15673 z m 0,3.7515 0.54031,-0.53417 h 4.15673 l 0.54032,0.53417 -0.54032,0.54645 h -4.15673 z m 0,3.75764 0.54031,-0.54032 h 4.15673 l 0.54032,0.54032 -0.54032,0.54031 h -4.15673 z m 5.23736,-3.75764 0.54031,0.54645 v 2.67087 l -0.54031,0.54032 -0.54032,-0.54032 v -2.67087 z m 0,-3.7515 0.54031,0.54646 v 2.67087 l -0.54031,0.53417 -0.54032,-0.53417 v -2.67087 z m -5.23736,0 -0.54032,0.54646 v 2.67087 l 0.54032,0.53417 0.54031,-0.53417 v -2.67087 z m 0,7.50914 -0.54032,-0.54032 v -2.67087 l 0.54032,-0.54645 0.54031,0.54645 v 2.67087 z"
         style="font-style:normal;font-variant:normal;font-weight:normal;font-stretch:normal;font-family:Digital;-inkscape-font-specification:Digital;fill:#ff00ff;fill-opacity:1"
         id="path4360"
         inkscape:connector-curvature="0" />
      <path
         d="m 131.48199,957.22377 0.54031,-0.54031 h 4.15674 l 0.54031,0.54031 -0.54031,0.54646 h -4.15674 z m 0,3.7515 0.54031,-0.53417 h 4.15674 l 0.54031,0.53417 -0.54031,0.54645 h -4.15674 z m 0,3.75764 0.54031,-0.54032 h 4.15674 l 0.54031,0.54032 -0.54031,0.54031 h -4.15674 z m 5.23736,-3.75764 0.54031,0.54645 v 2.67087 l -0.54031,0.54032 -0.54031,-0.54032 v -2.67087 z m 0,-3.7515 0.54031,0.54646 v 2.67087 l -0.54031,0.53417 -0.54031,-0.53417 v -2.67087 z m -5.23736,0 -0.54031,0.54646 v 2.67087 l 0.54031,0.53417 0.54031,-0.53417 v -2.67087 z m 0,7.50914 -0.54031,-0.54032 v -2.67087 l 0.54031,-0.54645 0.54031,0.54645 v 2.67087 z"
         style="font-style:normal;font-variant:normal;font-weight:normal;font-stretch:normal;font-family:Digital;-inkscape-font-specification:Digital;fill:#ff00ff;fill-opacity:1"
         id="path4362"
         inkscape:connector-curvature="0" />
    </g>
    <g
       style="font-style:normal;font-variant:normal;font-weight:normal;font-stretch:normal;font-size:7.32813883px;line-height:100%;font-family:'Estrangelo Edessa';-inkscape-font-specification:'Estrangelo Edessa, Normal';text-align:start;letter-spacing:0px;word-spacing:0px;writing-mode:lr-tb;text-anchor:start;fill:#646464;fill-opacity:1;stroke:none;stroke-width:1px;stroke-linecap:butt;stroke-linejoin:miter;stroke-opacity:1"
       id="text4191-0-6"
       transform="translate(92.211779)">
      <path
         d="m 18.065449,984.99054 h -0.651231 l -0.146706,-3.02715 q -0.0036,-0.0429 -0.0072,-0.11808 0,-0.0751 -0.0036,-0.15744 0,-0.0859 -0.0036,-0.16818 0,-0.0823 0,-0.13597 -0.02147,0.0823 -0.05009,0.17533 -0.02505,0.0895 -0.05009,0.17176 -0.02505,0.0787 -0.04652,0.14312 -0.01789,0.0608 -0.02863,0.0895 l -1.16649,3.02715 H 15.28153 l -1.18796,-3.02715 q -0.01431,-0.0358 -0.03936,-0.0966 -0.02147,-0.0644 -0.04652,-0.14313 -0.02505,-0.0823 -0.05367,-0.16818 -0.02505,-0.0895 -0.04294,-0.17175 0,0.0608 -0.0036,0.14313 0,0.0787 -0.0036,0.1646 -0.0036,0.0859 -0.0072,0.16817 -0.0036,0.0787 -0.0072,0.13955 l -0.193223,2.99137 h -0.651231 l 0.322038,-4.63018 h 0.754998 l 1.334666,3.41359 q 0.01789,0.0501 0.03936,0.11808 0.02147,0.0644 0.03936,0.13598 0.01789,0.0716 0.0322,0.14312 0.01789,0.0716 0.02863,0.12882 0.01073,-0.0572 0.02862,-0.13239 0.01789,-0.0752 0.03578,-0.15029 0.02147,-0.0751 0.04294,-0.14313 0.02147,-0.068 0.03936,-0.1145 l 1.327509,-3.39928 h 0.783624 l 0.211114,4.63018 z"
         id="path4319"
         inkscape:connector-curvature="0"
         style="fill:#646464;fill-opacity:1" />
      <path
         d="m 19.979782,984.99054 h -0.704904 v -4.63018 h 0.704904 z"
         id="path4321"
         inkscape:connector-curvature="0"
         style="fill:#646464;fill-opacity:1" />
      <path
         d="m 21.747409,982.72554 q 0,0.39003 0.110924,0.71206 0.114502,0.31846 0.318459,0.54747 0.207535,0.229 0.493791,0.35424 0.289833,0.12524 0.640496,0.12524 0.325616,0 0.644075,-0.0859 0.322037,-0.0859 0.615449,-0.2469 v 0.63334 q -0.268364,0.14313 -0.601136,0.21827 -0.332772,0.0716 -0.726373,0.0716 -0.490213,0 -0.901705,-0.17176 -0.407914,-0.17175 -0.704904,-0.47947 -0.293412,-0.30773 -0.458009,-0.73353 -0.161018,-0.42939 -0.161018,-0.94465 0,-0.52957 0.175331,-0.97326 0.175332,-0.44728 0.483056,-0.76932 0.311303,-0.32203 0.73353,-0.50094 0.425805,-0.18249 0.923174,-0.18249 0.168175,0 0.339928,0.0215 0.171753,0.0179 0.33635,0.0537 0.164597,0.0322 0.311303,0.0787 0.150284,0.0429 0.271942,0.0966 v 0.62976 q -0.125236,-0.0537 -0.279099,-0.10734 -0.153862,-0.0537 -0.318459,-0.093 -0.164597,-0.0429 -0.33635,-0.068 -0.171753,-0.025 -0.332772,-0.025 -0.33635,0 -0.626184,0.1324 -0.286255,0.12881 -0.497368,0.36855 -0.211114,0.23974 -0.332772,0.57967 -0.121659,0.33992 -0.121659,0.75857 z"
         id="path4323"
         inkscape:connector-curvature="0"
         style="fill:#646464;fill-opacity:1" />
    </g>
    <g
       style="font-style:normal;font-variant:normal;font-weight:normal;font-stretch:normal;font-size:7.32813883px;line-height:100%;font-family:'Estrangelo Edessa';-inkscape-font-specification:'Estrangelo Edessa, Normal';text-align:start;letter-spacing:0px;word-spacing:0px;writing-mode:lr-tb;text-anchor:start;fill:#646464;fill-opacity:1;stroke:none;stroke-width:1px;stroke-linecap:butt;stroke-linejoin:miter;stroke-opacity:1"
       id="text4191-4-9-4"
       transform="translate(1.56743,18.840323)">
      <path
         d="m 106.1844,984.95123 h -0.755 l -0.51883,-1.32751 h -1.78194 l -0.48306,1.32751 h -0.755 l 1.79625,-4.63018 h 0.67986 z m -2.07177,-3.51736 q -0.0179,-0.0501 -0.0465,-0.14313 -0.025,-0.0966 -0.0429,-0.20038 h -0.0143 q -0.0179,0.11093 -0.0465,0.20754 -0.0251,0.093 -0.0501,0.15744 l -0.56178,1.55293 h 1.34898 l -0.58682,-1.5744 z"
         id="path4312"
         inkscape:connector-curvature="0"
         style="fill:#646464;fill-opacity:1" />
      <path
         d="m 108.7285,984.43955 q 0.26121,0 0.4759,-0.0787 0.21469,-0.0823 0.36497,-0.23974 0.15387,-0.16102 0.23616,-0.40076 0.0859,-0.24331 0.0859,-0.56535 v -2.83393 h 0.69775 v 2.74805 q 0,0.49022 -0.13239,0.85877 -0.1324,0.36855 -0.38287,0.61545 -0.25048,0.24332 -0.60829,0.36855 -0.35782,0.12166 -0.8051,0.12166 -0.4258,0 -0.76931,-0.11808 -0.33993,-0.12166 -0.58324,-0.35782 -0.23974,-0.23974 -0.37214,-0.59398 -0.12881,-0.35424 -0.12881,-0.82298 v -2.81962 h 0.7049 v 2.79099 q 0,0.3292 0.0859,0.57967 0.0859,0.24689 0.24332,0.41507 0.16101,0.1646 0.38286,0.25047 0.22543,0.0823 0.50453,0.0823 z"
         id="path4314"
         inkscape:connector-curvature="0"
         style="fill:#646464;fill-opacity:1" />
      <path
         d="m 115.36247,984.95123 h -0.82657 l -0.99115,-1.50999 q -0.0107,-0.0179 -0.0465,-0.068 -0.0322,-0.0537 -0.0716,-0.11092 -0.0394,-0.0608 -0.0751,-0.11451 -0.0358,-0.0573 -0.0537,-0.0859 h -0.007 q -0.0107,0.0215 -0.0394,0.0644 -0.025,0.0394 -0.0572,0.0895 -0.0322,0.0501 -0.068,0.10019 -0.0358,0.0501 -0.0644,0.0894 l -1.00905,1.54578 h -0.8373 l 1.66386,-2.37592 -1.5744,-2.25426 h 0.84087 l 0.76216,1.15576 q 0.0322,0.0465 0.0823,0.12881 0.0537,0.0823 0.11092,0.17176 0.0572,0.0859 0.10735,0.17175 0.0537,0.0823 0.0823,0.13597 h 0.0143 q 0.025,-0.0537 0.0787,-0.13955 0.0537,-0.0895 0.11092,-0.18249 0.0608,-0.093 0.1145,-0.17175 0.0537,-0.0823 0.0751,-0.1145 l 0.80152,-1.15576 h 0.79794 l -1.56725,2.21132 1.64597,2.41886 z"
         id="path4316"
         inkscape:connector-curvature="0"
         style="fill:#646464;fill-opacity:1" />
    </g>
    <g
       style="font-style:normal;font-variant:normal;font-weight:normal;font-stretch:normal;font-size:7.32813883px;line-height:100%;font-family:'Estrangelo Edessa';-inkscape-font-specification:'Estrangelo Edessa, Normal';text-align:start;letter-spacing:0px;word-spacing:0px;writing-mode:lr-tb;text-anchor:start;fill:#646464;fill-opacity:1;stroke:none;stroke-width:1px;stroke-linecap:butt;stroke-linejoin:miter;stroke-opacity:1"
       id="text4191-4-9-2-1-0"
       transform="translate(118.28812)">
      <path
         d="m 83.933052,1001.2255 q 0,-0.4258 -0.135972,-0.7335 -0.132393,-0.3077 -0.382866,-0.5081 -0.246896,-0.20038 -0.608293,-0.29341 -0.357819,-0.0966 -0.808672,-0.0966 h -0.547463 v 3.43501 h 0.483056 q 0.458009,0 0.826562,-0.1252 0.372132,-0.1288 0.633341,-0.3614 0.261208,-0.2362 0.400757,-0.5689 0.13955,-0.3364 0.13955,-0.7479 z m 0.726373,-0.01 q 0,0.5403 -0.200379,0.984 -0.196801,0.4437 -0.55462,0.7621 -0.357819,0.3149 -0.855188,0.4867 -0.497369,0.1717 -1.094927,0.1717 h -1.209429 v -4.63016 h 1.26668 q 0.629762,0 1.119974,0.14313 0.493791,0.13955 0.833719,0.42223 0.339929,0.2791 0.51526,0.6977 0.17891,0.4151 0.17891,0.9626 z"
         id="path4453"
         inkscape:connector-curvature="0"
         style="fill:#646464;fill-opacity:1" />
      <path
         d="m 88.012192,1003.6229 h -2.315091 v -4.63016 h 2.307934 v 0.60114 h -1.610187 v 1.40622 h 1.617344 v 0.594 h -1.617344 v 1.4348 h 1.617344 z"
         id="path4455"
         inkscape:connector-curvature="0"
         style="fill:#646464;fill-opacity:1" />
      <path
         d="m 89.615222,1001.3579 q 0,0.3901 0.110924,0.7121 0.114502,0.3184 0.318459,0.5475 0.207536,0.229 0.493791,0.3542 0.289834,0.1252 0.640496,0.1252 0.325616,0 0.644075,-0.086 0.322038,-0.086 0.615449,-0.2469 v 0.6333 q -0.268364,0.1431 -0.601136,0.2183 -0.332772,0.072 -0.726373,0.072 -0.490213,0 -0.901705,-0.1717 -0.407914,-0.1718 -0.704904,-0.4795 -0.293412,-0.3077 -0.458008,-0.7335 -0.161019,-0.4294 -0.161019,-0.9447 0,-0.5295 0.175331,-0.9732 0.175332,-0.44731 0.483056,-0.76935 0.311303,-0.32204 0.73353,-0.50095 0.425805,-0.18249 0.923174,-0.18249 0.168175,0 0.339928,0.0215 0.171753,0.0179 0.33635,0.0537 0.164597,0.0322 0.311303,0.0787 0.150284,0.0429 0.271942,0.0966 v 0.62976 q -0.125236,-0.0537 -0.279099,-0.10735 -0.153862,-0.0537 -0.318459,-0.093 -0.164597,-0.0429 -0.33635,-0.068 -0.171753,-0.025 -0.332772,-0.025 -0.33635,0 -0.626184,0.13239 -0.286255,0.12882 -0.497368,0.36859 -0.211114,0.2397 -0.332772,0.5797 -0.121659,0.3399 -0.121659,0.7585 z"
         id="path4457"
         inkscape:connector-curvature="0"
         style="fill:#646464;fill-opacity:1" />
      <path
         d="m 96.94336,1003.6229 h -0.908861 l -1.649546,-1.7819 q -0.05009,-0.05 -0.110924,-0.1145 -0.06083,-0.068 -0.114503,-0.1324 v 2.0288 h -0.704904 v -4.63016 h 0.704904 l 0.0072,2.03596 q 0.07514,-0.093 0.15744,-0.186 0.0823,-0.097 0.128815,-0.1575 l 1.470638,-1.69246 h 0.851609 l -2.021679,2.27936 2.189854,2.3508 z"
         id="path4459"
         inkscape:connector-curvature="0"
         style="fill:#646464;fill-opacity:1" />
    </g>
    <g
       style="font-style:normal;font-variant:normal;font-weight:normal;font-stretch:normal;font-size:7.32813883px;line-height:100%;font-family:'Estrangelo Edessa';-inkscape-font-specification:'Estrangelo Edessa, Normal';text-align:start;letter-spacing:0px;word-spacing:0px;writing-mode:lr-tb;text-anchor:start;fill:#646464;fill-opacity:1;stroke:none;stroke-width:1px;stroke-linecap:butt;stroke-linejoin:miter;stroke-opacity:1"
       id="text4191-4-9-2-1-0-7"
       transform="translate(214.48045,-18.972073)">
      <path
         d="m 13.343803,1001.5155 q 0,0.3864 0.103767,0.712 0.103768,0.3221 0.311303,0.5582 0.211113,0.2326 0.522416,0.365 0.311303,0.1324 0.726373,0.1324 0.232583,0 0.4759,-0.05 0.243317,-0.054 0.425805,-0.1431 v -1.0091 h -1.034098 v -0.594 h 1.739002 v 1.9716 q -0.368554,0.2111 -0.797937,0.3149 -0.425805,0.1002 -0.894548,0.1002 -0.543886,0 -0.973269,-0.1753 -0.429383,-0.1754 -0.726373,-0.4831 -0.29699,-0.3113 -0.45443,-0.7371 -0.153863,-0.4258 -0.153863,-0.9268 0,-0.5725 0.189645,-1.0233 0.189644,-0.4509 0.518838,-0.76218 0.329193,-0.31488 0.776467,-0.47947 0.450853,-0.16818 0.969691,-0.16818 0.429383,0 0.826562,0.10735 0.400758,0.10734 0.726373,0.3113 l -0.0072,0.71208 q -0.164597,-0.1217 -0.354241,-0.2183 -0.189644,-0.10018 -0.393601,-0.16816 -0.200379,-0.0716 -0.404336,-0.11093 -0.200379,-0.0394 -0.393601,-0.0394 -0.39718,0 -0.719217,0.13239 -0.318459,0.12882 -0.543885,0.3686 -0.221848,0.2362 -0.343507,0.5689 -0.11808,0.3328 -0.11808,0.7336 z"
         id="path4440"
         inkscape:connector-curvature="0"
         style="fill:#646464;fill-opacity:1" />
      <path
         d="m 20.035023,1003.8091 h -2.222057 v -4.6302 h 0.704904 v 4.0362 h 1.517153 z"
         id="path4442"
         inkscape:connector-curvature="0"
         style="fill:#646464;fill-opacity:1" />
      <path
         d="m 24.336011,1001.5083 q 0,-0.4222 -0.09303,-0.755 -0.09303,-0.3363 -0.275521,-0.5689 -0.182488,-0.23261 -0.450852,-0.35427 -0.268365,-0.12524 -0.619028,-0.12524 -0.33635,0 -0.611871,0.1324 -0.271942,0.12881 -0.465165,0.36501 -0.193222,0.2361 -0.300568,0.5689 -0.103767,0.3292 -0.103767,0.7299 0,0.4008 0.100189,0.73 0.100189,0.3292 0.286255,0.5618 0.189645,0.2326 0.454431,0.3614 0.268364,0.1288 0.597558,0.1288 0.350663,0 0.626184,-0.1181 0.275521,-0.1217 0.465165,-0.3471 0.189644,-0.229 0.289834,-0.5582 0.100189,-0.3327 0.100189,-0.7514 z m 0.722795,-0.075 q 0,0.5617 -0.153862,1.0162 -0.150284,0.4508 -0.43654,0.7693 -0.282677,0.3149 -0.690591,0.4866 -0.407914,0.1682 -0.923174,0.1682 -0.49379,0 -0.894548,-0.1646 -0.400758,-0.1682 -0.683435,-0.4723 -0.282677,-0.3078 -0.436539,-0.7371 -0.153863,-0.4294 -0.153863,-0.9554 0,-0.5511 0.150284,-0.9983 0.153863,-0.4509 0.443696,-0.76576 0.289834,-0.31846 0.704904,-0.49022 0.418649,-0.17175 0.948221,-0.17175 0.483056,0 0.876658,0.16818 0.393601,0.16817 0.669122,0.4759 0.279099,0.30415 0.429383,0.72995 0.150284,0.4258 0.150284,0.9411 z"
         id="path4444"
         inkscape:connector-curvature="0"
         style="fill:#646464;fill-opacity:1" />
      <path
         d="m 28.050176,1000.3704 q 0,-0.1288 -0.04294,-0.2433 -0.04294,-0.1181 -0.143127,-0.20751 -0.09661,-0.0895 -0.254052,-0.13955 -0.153862,-0.0537 -0.379288,-0.0537 -0.13955,0 -0.243317,0.004 -0.10019,0.004 -0.182488,0.0107 v 1.40986 h 0.293411 q 0.465166,0 0.708483,-0.2004 0.243317,-0.2004 0.243317,-0.5797 z m 0.250473,2.0754 q 0,-0.3757 -0.254051,-0.5546 -0.254052,-0.1789 -0.751421,-0.1789 h -0.490212 v 1.5314 q 0.114502,0.011 0.246895,0.018 0.135971,0 0.300568,0 0.447274,0 0.697748,-0.2147 0.250473,-0.2183 0.250473,-0.6047 z m 0.715639,-0.021 q 0,0.3113 -0.103768,0.569 -0.100189,0.2576 -0.318459,0.4436 -0.214691,0.1861 -0.551042,0.2899 -0.332772,0.1038 -0.797937,0.1038 -0.11808,0 -0.27552,-0.01 -0.153863,0 -0.314881,-0.014 -0.157441,-0.01 -0.304147,-0.021 -0.146706,-0.014 -0.250473,-0.029 v -4.55863 q 0.211113,-0.0179 0.508103,-0.025 0.300568,-0.0107 0.615449,-0.0107 0.364976,0 0.651231,0.0787 0.289834,0.0751 0.486635,0.22185 0.200378,0.1467 0.304146,0.36139 0.103768,0.21469 0.103768,0.49379 0,0.1825 -0.0501,0.3436 -0.05009,0.1574 -0.13955,0.2898 -0.08588,0.1324 -0.207535,0.2361 -0.121658,0.1038 -0.264786,0.1718 0.189644,0.047 0.354241,0.1395 0.168175,0.09 0.289834,0.2255 0.125236,0.1324 0.193222,0.3077 0.07156,0.1753 0.07156,0.39 z"
         id="path4446"
         inkscape:connector-curvature="0"
         style="fill:#646464;fill-opacity:1" />
      <path
         d="m 33.599952,1003.8091 h -0.754998 l -0.518838,-1.3275 h -1.78194 l -0.483056,1.3275 h -0.754999 l 1.796253,-4.6302 h 0.679856 z m -2.071773,-3.5174 q -0.01789,-0.05 -0.04652,-0.1431 -0.02505,-0.097 -0.04294,-0.20039 h -0.01431 q -0.01789,0.11089 -0.04652,0.20749 -0.02505,0.093 -0.05009,0.1575 l -0.561776,1.5529 h 1.348978 l -0.586823,-1.5744 z"
         id="path4448"
         inkscape:connector-curvature="0"
         style="fill:#646464;fill-opacity:1" />
      <path
         d="m 36.480397,1003.8091 h -2.222058 v -4.6302 h 0.704904 v 4.0362 h 1.517154 z"
         id="path4450"
         inkscape:connector-curvature="0"
         style="fill:#646464;fill-opacity:1" />
    </g>
    <path
       style="opacity:1;fill:url(#radialGradient4165-4-3-3-7-7);fill-opacity:1;stroke:#000000;stroke-width:0.0998798;stroke-miterlimit:4;stroke-dasharray:none"
       d="m 1.0620455,1049.1871 v -2.2845 H 695.02338 v 2.2845 z"
       id="rect4157-9-2-3-6-3"
       inkscape:connector-curvature="0" />
    <path
       style="opacity:1;fill:url(#radialGradient4165-4-3-3-7-7-9);fill-opacity:1;stroke:#000000;stroke-width:0.09980477;stroke-miterlimit:4;stroke-dasharray:none"
       d="m 1.8453547,972.73051 v -2.28398 H 694.88032 v 2.28398 z"
       id="rect4157-9-2-3-6-3-7"
       inkscape:connector-curvature="0" />
    <path
       style="opacity:1;fill:url(#radialGradient4165-4);fill-opacity:1;stroke:#000000;stroke-width:0.03832521;stroke-miterlimit:4;stroke-dasharray:none"
       d="m 0.0191626,970.43398 h 2.9616748 v 78.81552 H 0.0191626 Z"
       id="rect4157-9"
       inkscape:connector-curvature="0" />
    <path
       style="opacity:1;fill:url(#radialGradient4165-4-5);fill-opacity:1;stroke:#000000;stroke-width:0.0383327;stroke-miterlimit:4;stroke-dasharray:none"
       d="m 693.49586,970.41312 h 2.96166 v 78.84678 h -2.96166 z"
       id="rect4157-9-6"
       inkscape:connector-curvature="0" />
    <path
       style="opacity:1;fill:url(#radialGradient4165-4-3-3-1);fill-opacity:1;stroke:#000000;stroke-width:0.03036231;stroke-miterlimit:4;stroke-dasharray:none"
       d="m 97.49528,972.79368 h 1.97665 v 74.11742 h -1.97665 z"
       id="rect4157-9-2-3-9"
       inkscape:connector-curvature="0" />
    <g
       id="g4741"
       transform="translate(8.6997058,10)">
      <g
         transform="translate(-0.02433148,-3.3679597)"
         id="text4642-1"
         style="font-style:normal;font-variant:normal;font-weight:normal;font-stretch:normal;font-size:7.25867081px;line-height:100%;font-family:'Estrangelo Edessa';-inkscape-font-specification:'Estrangelo Edessa, Normal';text-align:start;letter-spacing:0px;word-spacing:0px;writing-mode:lr-tb;text-anchor:start;fill:#000000;fill-opacity:1;stroke:none;stroke-width:1px;stroke-linecap:butt;stroke-linejoin:miter;stroke-opacity:1">
        <path
           style="fill:#000000"
           inkscape:connector-curvature="0"
           id="path4672-8"
           d="m 15.173335,983.604 q 0,0.27999 -0.09924,0.52809 -0.0957,0.24456 -0.287086,0.42886 -0.187847,0.18076 -0.471389,0.28709 -0.279997,0.10278 -0.652146,0.10278 -0.180758,0 -0.361516,-0.0248 -0.177213,-0.0213 -0.34025,-0.0638 -0.159492,-0.0461 -0.297719,-0.10278 -0.138226,-0.0602 -0.24101,-0.12759 v -0.70886 q 0.113416,0.0815 0.26582,0.16304 0.155948,0.078 0.326073,0.14177 0.170125,0.0602 0.336706,0.0992 0.170125,0.039 0.304808,0.039 0.205567,0 0.357971,-0.0496 0.155948,-0.0532 0.258732,-0.14886 0.106328,-0.0957 0.155948,-0.22684 0.05316,-0.13468 0.05316,-0.29417 0,-0.18076 -0.06734,-0.30481 -0.0638,-0.12405 -0.184302,-0.2162 -0.120505,-0.0922 -0.290631,-0.16658 -0.170125,-0.0744 -0.379237,-0.15595 -0.287086,-0.11342 -0.510375,-0.22683 -0.223289,-0.11696 -0.375693,-0.26228 -0.152404,-0.14886 -0.233922,-0.34025 -0.07797,-0.19493 -0.07797,-0.46075 0,-0.29063 0.116961,-0.52456 0.116961,-0.23746 0.318985,-0.4005 0.202023,-0.16658 0.471388,-0.25519 0.272909,-0.0921 0.581261,-0.0921 0.329617,0 0.595437,0.0602 0.265821,0.0603 0.485566,0.15241 v 0.63797 q -0.102784,-0.0496 -0.237466,-0.0957 -0.134683,-0.0461 -0.283542,-0.0815 -0.14886,-0.039 -0.297719,-0.0602 -0.14886,-0.0248 -0.283542,-0.0248 -0.187847,0 -0.333162,0.0496 -0.145315,0.0461 -0.248099,0.13114 -0.09924,0.0851 -0.152404,0.20557 -0.04962,0.11696 -0.04962,0.25873 0,0.15949 0.06734,0.27645 0.06734,0.11342 0.191391,0.20557 0.124049,0.0886 0.297718,0.16658 0.177214,0.0744 0.393415,0.15949 0.276453,0.10988 0.492654,0.23038 0.219745,0.11696 0.368604,0.27291 0.152404,0.1524 0.233922,0.35443 0.08152,0.19848 0.08152,0.4643 z" />
        <path
           style="fill:#000000"
           inkscape:connector-curvature="0"
           id="path4674-1"
           d="m 18.001665,984.38019 q 0.258732,0 0.471388,-0.078 0.212657,-0.0815 0.361516,-0.23747 0.152404,-0.15949 0.233922,-0.39696 0.08506,-0.24101 0.08506,-0.55999 v -2.80707 h 0.691133 v 2.72201 q 0,0.48556 -0.131138,0.85062 -0.131138,0.36506 -0.379237,0.60962 -0.248099,0.24101 -0.602527,0.36506 -0.354427,0.1205 -0.797461,0.1205 -0.421768,0 -0.762019,-0.11696 -0.336706,-0.1205 -0.577716,-0.35443 -0.237466,-0.23746 -0.368605,-0.58835 -0.127593,-0.35088 -0.127593,-0.81518 v -2.79289 h 0.698221 v 2.76454 q 0,0.32607 0.08506,0.57417 0.08506,0.24455 0.241011,0.41114 0.159492,0.16303 0.379237,0.24809 0.223289,0.0815 0.499742,0.0815 z" />
        <path
           style="fill:#000000"
           inkscape:connector-curvature="0"
           id="path4676-6"
           d="m 23.123139,981.59085 q 0,-0.18076 -0.0638,-0.3119 -0.06025,-0.13113 -0.194935,-0.2162 -0.134683,-0.0851 -0.347339,-0.12405 -0.209112,-0.0425 -0.506831,-0.0425 h -0.244555 v 1.53822 h 0.223289 q 0.535185,0 0.832904,-0.21266 0.301263,-0.2162 0.301263,-0.63088 z m 0.719488,-0.0354 q 0,0.32607 -0.131138,0.59898 -0.127594,0.26936 -0.386326,0.46784 -0.258732,0.19494 -0.648602,0.30481 -0.38987,0.10633 -0.910878,0.10987 v 1.85011 h -0.698222 v -4.58629 h 0.935688 q 0.404047,0 0.740753,0.0638 0.336706,0.0603 0.581261,0.20911 0.244555,0.14532 0.379237,0.38633 0.138227,0.23747 0.138227,0.59544 z" />
        <path
           style="fill:#000000"
           inkscape:connector-curvature="0"
           id="path4678-4"
           d="m 27.075003,984.88702 h -2.293144 v -4.58629 h 2.286056 v 0.59544 h -1.594923 v 1.3929 h 1.602011 v 0.58835 h -1.602011 v 1.42125 h 1.602011 z" />
        <path
           style="fill:#000000"
           inkscape:connector-curvature="0"
           id="path4680-8"
           d="m 30.204596,981.52705 q 0,-0.32961 -0.237466,-0.47847 -0.233922,-0.15241 -0.723032,-0.15241 h -0.375693 v 1.39999 h 0.34025 q 0.482021,0 0.737209,-0.20202 0.258732,-0.20557 0.258732,-0.56709 z m 1.081003,3.35997 h -0.822271 l -1.275938,-2.02378 h -0.318985 v 2.02378 h -0.698222 v -4.58629 h 1.038472 q 0.36506,0 0.680501,0.0603 0.31544,0.0567 0.545818,0.19848 0.233922,0.13822 0.36506,0.3686 0.134682,0.23038 0.134682,0.57772 0,0.25519 -0.09215,0.4643 -0.08861,0.20911 -0.237466,0.36506 -0.145315,0.15595 -0.336706,0.26227 -0.191391,0.10279 -0.393414,0.14886 l 1.41062,2.14074 z" />
      </g>
      <g
         transform="translate(-0.05643279,-4)"
         id="text4642"
         style="font-style:normal;font-variant:normal;font-weight:normal;font-stretch:normal;font-size:7.25867081px;line-height:100%;font-family:'Estrangelo Edessa';-inkscape-font-specification:'Estrangelo Edessa, Normal';text-align:start;letter-spacing:0px;word-spacing:0px;writing-mode:lr-tb;text-anchor:start;fill:#999999;fill-opacity:1;stroke:none;stroke-width:1px;stroke-linecap:butt;stroke-linejoin:miter;stroke-opacity:1">
        <path
           inkscape:connector-curvature="0"
           id="path4672"
           d="m 15.173335,983.604 q 0,0.27999 -0.09924,0.52809 -0.0957,0.24456 -0.287086,0.42886 -0.187847,0.18076 -0.471389,0.28709 -0.279997,0.10278 -0.652146,0.10278 -0.180758,0 -0.361516,-0.0248 -0.177213,-0.0213 -0.34025,-0.0638 -0.159492,-0.0461 -0.297719,-0.10278 -0.138226,-0.0602 -0.24101,-0.12759 v -0.70886 q 0.113416,0.0815 0.26582,0.16304 0.155948,0.078 0.326073,0.14177 0.170125,0.0602 0.336706,0.0992 0.170125,0.039 0.304808,0.039 0.205567,0 0.357971,-0.0496 0.155948,-0.0532 0.258732,-0.14886 0.106328,-0.0957 0.155948,-0.22684 0.05316,-0.13468 0.05316,-0.29417 0,-0.18076 -0.06734,-0.30481 -0.0638,-0.12405 -0.184302,-0.2162 -0.120505,-0.0922 -0.290631,-0.16658 -0.170125,-0.0744 -0.379237,-0.15595 -0.287086,-0.11342 -0.510375,-0.22683 -0.223289,-0.11696 -0.375693,-0.26228 -0.152404,-0.14886 -0.233922,-0.34025 -0.07797,-0.19493 -0.07797,-0.46075 0,-0.29063 0.116961,-0.52456 0.116961,-0.23746 0.318985,-0.4005 0.202023,-0.16658 0.471388,-0.25519 0.272909,-0.0921 0.581261,-0.0921 0.329617,0 0.595437,0.0602 0.265821,0.0603 0.485566,0.15241 v 0.63797 q -0.102784,-0.0496 -0.237466,-0.0957 -0.134683,-0.0461 -0.283542,-0.0815 -0.14886,-0.039 -0.297719,-0.0602 -0.14886,-0.0248 -0.283542,-0.0248 -0.187847,0 -0.333162,0.0496 -0.145315,0.0461 -0.248099,0.13114 -0.09924,0.0851 -0.152404,0.20557 -0.04962,0.11696 -0.04962,0.25873 0,0.15949 0.06734,0.27645 0.06734,0.11342 0.191391,0.20557 0.124049,0.0886 0.297718,0.16658 0.177214,0.0744 0.393415,0.15949 0.276453,0.10988 0.492654,0.23038 0.219745,0.11696 0.368604,0.27291 0.152404,0.1524 0.233922,0.35443 0.08152,0.19848 0.08152,0.4643 z" />
        <path
           inkscape:connector-curvature="0"
           id="path4674"
           d="m 18.001665,984.38019 q 0.258732,0 0.471388,-0.078 0.212657,-0.0815 0.361516,-0.23747 0.152404,-0.15949 0.233922,-0.39696 0.08506,-0.24101 0.08506,-0.55999 v -2.80707 h 0.691133 v 2.72201 q 0,0.48556 -0.131138,0.85062 -0.131138,0.36506 -0.379237,0.60962 -0.248099,0.24101 -0.602527,0.36506 -0.354427,0.1205 -0.797461,0.1205 -0.421768,0 -0.762019,-0.11696 -0.336706,-0.1205 -0.577716,-0.35443 -0.237466,-0.23746 -0.368605,-0.58835 -0.127593,-0.35088 -0.127593,-0.81518 v -2.79289 h 0.698221 v 2.76454 q 0,0.32607 0.08506,0.57417 0.08506,0.24455 0.241011,0.41114 0.159492,0.16303 0.379237,0.24809 0.223289,0.0815 0.499742,0.0815 z" />
        <path
           inkscape:connector-curvature="0"
           id="path4676"
           d="m 23.123139,981.59085 q 0,-0.18076 -0.0638,-0.3119 -0.06025,-0.13113 -0.194935,-0.2162 -0.134683,-0.0851 -0.347339,-0.12405 -0.209112,-0.0425 -0.506831,-0.0425 h -0.244555 v 1.53822 h 0.223289 q 0.535185,0 0.832904,-0.21266 0.301263,-0.2162 0.301263,-0.63088 z m 0.719488,-0.0354 q 0,0.32607 -0.131138,0.59898 -0.127594,0.26936 -0.386326,0.46784 -0.258732,0.19494 -0.648602,0.30481 -0.38987,0.10633 -0.910878,0.10987 v 1.85011 h -0.698222 v -4.58629 h 0.935688 q 0.404047,0 0.740753,0.0638 0.336706,0.0603 0.581261,0.20911 0.244555,0.14532 0.379237,0.38633 0.138227,0.23747 0.138227,0.59544 z" />
        <path
           inkscape:connector-curvature="0"
           id="path4678"
           d="m 27.075003,984.88702 h -2.293144 v -4.58629 h 2.286056 v 0.59544 h -1.594923 v 1.3929 h 1.602011 v 0.58835 h -1.602011 v 1.42125 h 1.602011 z" />
        <path
           inkscape:connector-curvature="0"
           id="path4680"
           d="m 30.204596,981.52705 q 0,-0.32961 -0.237466,-0.47847 -0.233922,-0.15241 -0.723032,-0.15241 h -0.375693 v 1.39999 h 0.34025 q 0.482021,0 0.737209,-0.20202 0.258732,-0.20557 0.258732,-0.56709 z m 1.081003,3.35997 h -0.822271 l -1.275938,-2.02378 h -0.318985 v 2.02378 h -0.698222 v -4.58629 h 1.038472 q 0.36506,0 0.680501,0.0603 0.31544,0.0567 0.545818,0.19848 0.233922,0.13822 0.36506,0.3686 0.134682,0.23038 0.134682,0.57772 0,0.25519 -0.09215,0.4643 -0.08861,0.20911 -0.237466,0.36506 -0.145315,0.15595 -0.336706,0.26227 -0.191391,0.10279 -0.393414,0.14886 l 1.41062,2.14074 z" />
      </g>
    </g>
    <g
       id="g4755"
       transform="translate(49.299706,-27.44727)">
      <g
         transform="translate(0.16733452,-5.3679597)"
         id="text4642-0-3"
         style="font-style:normal;font-variant:normal;font-weight:normal;font-stretch:normal;font-size:7.25867081px;line-height:100%;font-family:'Estrangelo Edessa';-inkscape-font-specification:'Estrangelo Edessa, Normal';text-align:start;letter-spacing:0px;word-spacing:0px;writing-mode:lr-tb;text-anchor:start;fill:#000000;fill-opacity:1;stroke:none;stroke-width:1px;stroke-linecap:butt;stroke-linejoin:miter;stroke-opacity:1">
        <path
           style="fill:#000000"
           inkscape:connector-curvature="0"
           id="path4665-5"
           d="m 20.788881,1024.274 h -0.645058 l -0.145315,-2.9984 q -0.0035,-0.043 -0.0071,-0.117 0,-0.074 -0.0035,-0.1559 0,-0.085 -0.0035,-0.1666 0,-0.082 0,-0.1347 -0.02127,0.082 -0.04962,0.1737 -0.02481,0.089 -0.04962,0.1701 -0.02481,0.078 -0.04607,0.1418 -0.01772,0.06 -0.02835,0.089 l -1.155433,2.9984 h -0.623792 l -1.176699,-2.9984 q -0.01418,-0.035 -0.03899,-0.096 -0.02126,-0.064 -0.04607,-0.1418 -0.02481,-0.082 -0.05316,-0.1666 -0.02481,-0.089 -0.04253,-0.1701 0,0.06 -0.0035,0.1418 0,0.078 -0.0035,0.163 -0.0035,0.085 -0.0071,0.1666 -0.0035,0.078 -0.0071,0.1382 l -0.191391,2.963 h -0.645058 l 0.318985,-4.5862 h 0.747841 l 1.322014,3.3812 q 0.01772,0.05 0.03899,0.117 0.02127,0.064 0.03899,0.1346 0.01772,0.071 0.0319,0.1418 0.01772,0.071 0.02835,0.1276 0.01063,-0.057 0.02835,-0.1311 0.01772,-0.074 0.03544,-0.1489 0.02126,-0.074 0.04253,-0.1418 0.02127,-0.067 0.03899,-0.1134 l 1.314925,-3.367 h 0.776196 l 0.209112,4.5862 z" />
        <path
           style="fill:#000000"
           inkscape:connector-curvature="0"
           id="path4667-4"
           d="m 22.685067,1024.274 h -0.698222 v -4.5862 h 0.698222 z" />
        <path
           style="fill:#000000"
           inkscape:connector-curvature="0"
           id="path4669-6"
           d="m 27.44857,1024.274 h -0.818727 l -0.981764,-1.4956 q -0.01063,-0.018 -0.04608,-0.067 -0.0319,-0.053 -0.07089,-0.1098 -0.03899,-0.06 -0.07443,-0.1135 -0.03544,-0.057 -0.05316,-0.085 h -0.0071 q -0.01063,0.021 -0.03899,0.064 -0.02481,0.039 -0.05671,0.089 -0.0319,0.05 -0.06734,0.099 -0.03544,0.05 -0.0638,0.089 l -0.999485,1.5311 h -0.82936 l 1.648087,-2.3533 -1.55948,-2.2329 h 0.832904 l 0.75493,1.1448 q 0.0319,0.046 0.08152,0.1276 0.05316,0.082 0.109872,0.1701 0.05671,0.085 0.106328,0.1701 0.05316,0.082 0.08152,0.1347 h 0.01418 q 0.02481,-0.053 0.07797,-0.1382 0.05316,-0.089 0.109872,-0.1808 0.06025,-0.092 0.113417,-0.1701 0.05316,-0.082 0.07443,-0.1134 l 0.793917,-1.1448 h 0.790373 l -1.552392,2.1903 1.630366,2.3959 z" />
      </g>
      <g
         transform="translate(0.13523321,-6)"
         id="text4642-0"
         style="font-style:normal;font-variant:normal;font-weight:normal;font-stretch:normal;font-size:7.25867081px;line-height:100%;font-family:'Estrangelo Edessa';-inkscape-font-specification:'Estrangelo Edessa, Normal';text-align:start;letter-spacing:0px;word-spacing:0px;writing-mode:lr-tb;text-anchor:start;fill:#999999;fill-opacity:1;stroke:none;stroke-width:1px;stroke-linecap:butt;stroke-linejoin:miter;stroke-opacity:1">
        <path
           inkscape:connector-curvature="0"
           id="path4665"
           d="m 20.788881,1024.274 h -0.645058 l -0.145315,-2.9984 q -0.0035,-0.043 -0.0071,-0.117 0,-0.074 -0.0035,-0.1559 0,-0.085 -0.0035,-0.1666 0,-0.082 0,-0.1347 -0.02127,0.082 -0.04962,0.1737 -0.02481,0.089 -0.04962,0.1701 -0.02481,0.078 -0.04607,0.1418 -0.01772,0.06 -0.02835,0.089 l -1.155433,2.9984 h -0.623792 l -1.176699,-2.9984 q -0.01418,-0.035 -0.03899,-0.096 -0.02126,-0.064 -0.04607,-0.1418 -0.02481,-0.082 -0.05316,-0.1666 -0.02481,-0.089 -0.04253,-0.1701 0,0.06 -0.0035,0.1418 0,0.078 -0.0035,0.163 -0.0035,0.085 -0.0071,0.1666 -0.0035,0.078 -0.0071,0.1382 l -0.191391,2.963 h -0.645058 l 0.318985,-4.5862 h 0.747841 l 1.322014,3.3812 q 0.01772,0.05 0.03899,0.117 0.02127,0.064 0.03899,0.1346 0.01772,0.071 0.0319,0.1418 0.01772,0.071 0.02835,0.1276 0.01063,-0.057 0.02835,-0.1311 0.01772,-0.074 0.03544,-0.1489 0.02126,-0.074 0.04253,-0.1418 0.02127,-0.067 0.03899,-0.1134 l 1.314925,-3.367 h 0.776196 l 0.209112,4.5862 z" />
        <path
           inkscape:connector-curvature="0"
           id="path4667"
           d="m 22.685067,1024.274 h -0.698222 v -4.5862 h 0.698222 z" />
        <path
           inkscape:connector-curvature="0"
           id="path4669"
           d="m 27.44857,1024.274 h -0.818727 l -0.981764,-1.4956 q -0.01063,-0.018 -0.04608,-0.067 -0.0319,-0.053 -0.07089,-0.1098 -0.03899,-0.06 -0.07443,-0.1135 -0.03544,-0.057 -0.05316,-0.085 h -0.0071 q -0.01063,0.021 -0.03899,0.064 -0.02481,0.039 -0.05671,0.089 -0.0319,0.05 -0.06734,0.099 -0.03544,0.05 -0.0638,0.089 l -0.999485,1.5311 h -0.82936 l 1.648087,-2.3533 -1.55948,-2.2329 h 0.832904 l 0.75493,1.1448 q 0.0319,0.046 0.08152,0.1276 0.05316,0.082 0.109872,0.1701 0.05671,0.085 0.106328,0.1701 0.05316,0.082 0.08152,0.1347 h 0.01418 q 0.02481,-0.053 0.07797,-0.1382 0.05316,-0.089 0.109872,-0.1808 0.06025,-0.092 0.113417,-0.1701 0.05316,-0.082 0.07443,-0.1134 l 0.793917,-1.1448 h 0.790373 l -1.552392,2.1903 1.630366,2.3959 z" />
      </g>
    </g>
    <path
       style="opacity:1;fill:#323232;fill-opacity:1;stroke:#000000;stroke-width:0.02016589;stroke-miterlimit:4;stroke-dasharray:none"
       d="m 121.86122,982.50109 v 0.97961 h 65.97983 v -0.97961 z"
       id="rect4157-9-2-3-8-9"
       inkscape:connector-curvature="0" />
    <path
       style="opacity:1;fill:#323232;fill-opacity:1;stroke:#000000;stroke-width:0.01356753;stroke-miterlimit:4;stroke-dasharray:none"
       d="m 256.13524,982.48818 v 0.98626 h 29.66453 v -0.98626 z"
       id="rect4157-9-2-3-8-9-6"
       inkscape:connector-curvature="0" />
    <path
       style="opacity:1;fill:#323232;fill-opacity:1;stroke:#000000;stroke-width:0.01997045;stroke-miterlimit:4;stroke-dasharray:none"
       d="m 221.10967,1001.5297 v 0.9799 h 64.68693 v -0.9799 z"
       id="rect4157-9-2-3-8-9-6-4"
       inkscape:connector-curvature="0" />
    <g
       id="g4660"
       transform="translate(0,0.39975)">
      <path
         sodipodi:nodetypes="cccccccccccccccccccccc"
         inkscape:connector-curvature="0"
         id="path1097-6"
         d="m 145.08257,1024.5442 -4.34778,0.057 -1.42981,1.9719 c 0.75683,0.1456 2.28457,0.5705 2.86556,1.0768 z m -2.91203,3.1052 -2.52119,2.8031 3.4774,0.8461 -5.29639,3.7581 c 0.91679,0.3598 0.68433,0.2403 1.47462,0.242 2.40963,2e-4 4.36332,-1.9528 4.36364,-4.3624 -7.3e-4,-1.2606 -0.54731,-2.4591 -1.49808,-3.2869 z m -4.34018,7.4073 c -0.10155,-0.061 -1.16006,-0.7968 -1.25637,-0.8652 l -2.23786,3.0853 z m -1.25637,-0.8652 2.16501,-2.6128 -2.6556,-0.7699 c 0.74755,-1.2436 2.63532,-3.2716 3.22158,-4.2364 -2.40966,3e-4 -4.3628,1.954 -4.36242,4.3639 0.001,1.4058 0.48833,2.4368 1.63143,3.2552 z"
         style="opacity:1;fill:#000000;fill-opacity:1;stroke:none;stroke-width:0.20959115;stroke-miterlimit:4;stroke-dasharray:none;stroke-opacity:1" />
      <path
         sodipodi:nodetypes="cccccccccccccccccccccc"
         inkscape:connector-curvature="0"
         id="path1097-6-1"
         d="m 145.08257,1023.7446 -4.34778,0.057 -1.42981,1.9719 c 0.75683,0.1456 2.28457,0.5705 2.86556,1.0768 z m -2.91203,3.1052 -2.52119,2.8031 3.4774,0.8461 -5.29639,3.7581 c 0.91679,0.3598 0.68433,0.2403 1.47462,0.242 2.40963,2e-4 4.36332,-1.9528 4.36364,-4.3624 -7.3e-4,-1.2606 -0.54731,-2.4591 -1.49808,-3.2869 z m -4.34018,7.4073 c -0.10155,-0.061 -1.16006,-0.7968 -1.25637,-0.8652 l -2.23786,3.0853 z m -1.25637,-0.8652 2.16501,-2.6128 -2.6556,-0.7699 c 0.74755,-1.2436 2.63532,-3.2716 3.22158,-4.2364 -2.40966,3e-4 -4.3628,1.954 -4.36242,4.3639 0.001,1.4058 0.48833,2.4368 1.63143,3.2552 z"
         style="opacity:1;fill:#969696;fill-opacity:1;stroke:none;stroke-width:0.20959115;stroke-miterlimit:4;stroke-dasharray:none;stroke-opacity:1" />
    </g>
  </g>
</svg>
