<?xml version="1.0" encoding="UTF-8" standalone="no"?>
<!-- Created with Inkscape (http://www.inkscape.org/) -->

<svg
   xmlns:dc="http://purl.org/dc/elements/1.1/"
   xmlns:cc="http://creativecommons.org/ns#"
   xmlns:rdf="http://www.w3.org/1999/02/22-rdf-syntax-ns#"
   xmlns:svg="http://www.w3.org/2000/svg"
   xmlns="http://www.w3.org/2000/svg"
   xmlns:sodipodi="http://sodipodi.sourceforge.net/DTD/sodipodi-0.dtd"
   xmlns:inkscape="http://www.inkscape.org/namespaces/inkscape"
   width="50"
   height="50"
   viewBox="0 0 50 50"
   id="svg2"
   version="1.1"
   inkscape:version="0.91 r13725"
   sodipodi:docname="background_analogvu_2_peak.svg">
  <defs
     id="defs4">
    <pattern
       y="0"
       x="0"
       height="6"
       width="6"
       patternUnits="userSpaceOnUse"
       id="EMFhbasepattern" />
    <pattern
       id="EMFhbasepattern-2"
       patternUnits="userSpaceOnUse"
       width="6"
       height="6"
       x="0"
       y="0" />
    <clipPath
       id="clipEmfPath1"
       clipPathUnits="userSpaceOnUse">
      <path
         inkscape:connector-curvature="0"
         id="path4146"
         d="m 0.524996,22.0498 c 0,-12.89987 10.124904,-23.32479 22.649804,-23.32479 12.5249,0 22.7249,10.42492 22.7249,23.32479 0,12.8999 -10.2,23.3999 -22.7249,23.3999 -12.5249,0 -22.649804,-10.5 -22.649804,-23.3999 z" />
    </clipPath>
    <pattern
       y="0"
       x="0"
       height="6"
       width="6"
       patternUnits="userSpaceOnUse"
       id="EMFhbasepattern-7" />
  </defs>
  <sodipodi:namedview
     id="base"
     pagecolor="#ffffff"
     bordercolor="#666666"
     borderopacity="1.0"
     inkscape:pageopacity="0.0"
     inkscape:pageshadow="2"
     inkscape:zoom="11.313709"
     inkscape:cx="48.291478"
     inkscape:cy="33.355189"
     inkscape:document-units="px"
     inkscape:current-layer="layer1"
     showgrid="false"
     units="px"
     inkscape:window-width="1920"
     inkscape:window-height="1028"
     inkscape:window-x="-8"
     inkscape:window-y="-8"
     inkscape:window-maximized="1"
     showguides="true"
     inkscape:guide-bbox="true" />
  <metadata
     id="metadata7">
    <rdf:RDF>
      <cc:Work
         rdf:about="">
        <dc:format>image/svg+xml</dc:format>
        <dc:type
           rdf:resource="http://purl.org/dc/dcmitype/StillImage" />
        <dc:title />
        <dc:creator>
          <cc:Agent>
            <dc:title>Jorge Rosa</dc:title>
          </cc:Agent>
        </dc:creator>
        <dc:description>Email: jorge.bigarte@gmail.com
Site:https://sites.google.com/site/jorgerosaportfolio</dc:description>
      </cc:Work>
    </rdf:RDF>
  </metadata>
  <g
     inkscape:label="Layer 1"
     inkscape:groupmode="layer"
     id="layer1"
     transform="translate(0,-1002.3622)">
    <g
       id="g4956"
       transform="matrix(0,0.02442813,-0.02442813,0,15.321547,1036.2396)" />
    <path
       inkscape:connector-curvature="0"
       id="path4151"
       d=""
       clip-path="url(#clipEmfPath1)"
       style="fill:none;stroke:none"
       transform="translate(7.3339618,1013.8494)" />
    <g
       style="font-style:normal;font-variant:normal;font-weight:normal;font-stretch:normal;font-size:10.10088062px;line-height:100%;font-family:'Estrangelo Edessa';-inkscape-font-specification:'Estrangelo Edessa, Normal';text-align:start;letter-spacing:0px;word-spacing:0px;writing-mode:lr-tb;text-anchor:start;fill:#ff00ff;fill-opacity:1;stroke:none;stroke-width:1px;stroke-linecap:butt;stroke-linejoin:miter;stroke-opacity:1"
       id="text4269-9"
       transform="matrix(1.1294414,0,0,1.1294414,-47.348159,-140.20959)">
      <path
         d="m 64.734745,1023.7047 q 0,-0.1775 -0.05918,-0.3353 -0.05918,-0.1628 -0.197283,-0.2861 -0.133166,-0.1233 -0.350177,-0.1924 -0.212079,-0.074 -0.5228,-0.074 -0.19235,0 -0.33538,0 -0.138098,0 -0.251536,0.015 l 0,1.9432 0.40443,0 q 0.641169,0 0.97655,-0.2762 0.335381,-0.2762 0.335381,-0.799 z m 0.345245,2.8606 q 0,-0.5178 -0.350177,-0.7644 -0.350177,-0.2466 -1.035735,-0.2466 l -0.675694,0 0,2.1109 q 0.157826,0.015 0.340313,0.025 0.187419,0 0.414294,0 0.616509,0 0.961754,-0.2959 0.345245,-0.3009 0.345245,-0.8336 z m 0.986414,-0.03 q 0,0.4291 -0.14303,0.7842 -0.138098,0.3552 -0.438955,0.6116 -0.295924,0.2565 -0.759539,0.3995 -0.458682,0.1431 -1.099851,0.1431 -0.162759,0 -0.37977,-0.01 -0.212079,0 -0.434022,-0.02 -0.217011,-0.01 -0.419226,-0.03 -0.202215,-0.02 -0.345245,-0.04 l 0,-6.2834 q 0.290992,-0.025 0.700354,-0.035 0.414294,-0.015 0.848316,-0.015 0.503072,0 0.897637,0.1085 0.399498,0.1036 0.670762,0.3058 0.276196,0.2022 0.419226,0.4982 0.14303,0.2959 0.14303,0.6806 0,0.2515 -0.06905,0.4735 -0.06905,0.217 -0.192351,0.3995 -0.11837,0.1825 -0.28606,0.3255 -0.16769,0.143 -0.364973,0.2367 0.2614,0.064 0.488275,0.1924 0.231807,0.1233 0.399497,0.3107 0.172623,0.1825 0.266332,0.4242 0.09864,0.2416 0.09864,0.5375 z"
         style="fill:#ff00ff;fill-opacity:1"
         id="path4385"
         inkscape:connector-curvature="0" />
    </g>
  </g>
</svg>
