<?xml version="1.0" encoding="UTF-8" standalone="no"?>
<!-- Created with Inkscape (http://www.inkscape.org/) -->

<svg
   xmlns:dc="http://purl.org/dc/elements/1.1/"
   xmlns:cc="http://creativecommons.org/ns#"
   xmlns:rdf="http://www.w3.org/1999/02/22-rdf-syntax-ns#"
   xmlns:svg="http://www.w3.org/2000/svg"
   xmlns="http://www.w3.org/2000/svg"
   xmlns:sodipodi="http://sodipodi.sourceforge.net/DTD/sodipodi-0.dtd"
   xmlns:inkscape="http://www.inkscape.org/namespaces/inkscape"
   width="115"
   height="70"
   viewBox="0 0 115 70"
   id="svg2"
   version="1.1"
   inkscape:version="0.92.1 r15371"
   sodipodi:docname="background_deck_infos4.svg">
  <defs
     id="defs4">
    <pattern
       y="0"
       x="0"
       height="6"
       width="6"
       patternUnits="userSpaceOnUse"
       id="EMFhbasepattern" />
  </defs>
  <sodipodi:namedview
     id="base"
     pagecolor="#ffffff"
     bordercolor="#666666"
     borderopacity="1.0"
     inkscape:pageopacity="0.0"
     inkscape:pageshadow="2"
     inkscape:zoom="4.4276025"
     inkscape:cx="4.2296207"
     inkscape:cy="20.957751"
     inkscape:document-units="px"
     inkscape:current-layer="text4162"
     showgrid="false"
     units="px"
     inkscape:window-width="1920"
     inkscape:window-height="1028"
     inkscape:window-x="-8"
     inkscape:window-y="-8"
     inkscape:window-maximized="1"
     objecttolerance="10"
     guidetolerance="9"
     showguides="true"
     inkscape:guide-bbox="true" />
  <metadata
     id="metadata7">
    <rdf:RDF>
      <cc:Work
         rdf:about="">
        <dc:format>image/svg+xml</dc:format>
        <dc:type
           rdf:resource="http://purl.org/dc/dcmitype/StillImage" />
        <dc:title />
        <dc:creator>
          <cc:Agent>
            <dc:title>Jorge Rosa</dc:title>
          </cc:Agent>
        </dc:creator>
        <dc:description>Email: jorge.bigarte@gmail.com
Site:https://sites.google.com/site/jorgerosaportfolio</dc:description>
      </cc:Work>
    </rdf:RDF>
  </metadata>
  <g
     inkscape:label="Layer 1"
     inkscape:groupmode="layer"
     id="layer1"
     transform="translate(0,-982.3622)">
    <g
       style="font-style:normal;font-variant:normal;font-weight:normal;font-stretch:normal;font-size:13.65747356px;line-height:100%;font-family:'Estrangelo Edessa';-inkscape-font-specification:'Estrangelo Edessa, Normal';text-align:start;letter-spacing:0px;word-spacing:0px;writing-mode:lr-tb;text-anchor:start;fill:#1e1e1e;fill-opacity:1;stroke:none;stroke-width:1px;stroke-linecap:butt;stroke-linejoin:miter;stroke-opacity:1"
       id="text4162">
      <path
         inkscape:connector-curvature="0"
         id="rect822"
         d="m 16.426008,1041.4623 v 7.932 h 24.157984 v -0.5 H 16.926008 v -7.432 z m 79.647982,0 v 7.432 H 74.416008 v 0.5 H 96.57399 v -7.932 z"
         style="color:#000000;font-style:normal;font-variant:normal;font-weight:normal;font-stretch:normal;font-size:medium;line-height:100%;font-family:'Estrangelo Edessa';-inkscape-font-specification:'Estrangelo Edessa, Normal';font-variant-ligatures:normal;font-variant-position:normal;font-variant-caps:normal;font-variant-numeric:normal;font-variant-alternates:normal;font-feature-settings:normal;text-indent:0;text-align:start;text-decoration:none;text-decoration-line:none;text-decoration-style:solid;text-decoration-color:#000000;letter-spacing:0px;word-spacing:0px;text-transform:none;writing-mode:lr-tb;direction:ltr;text-orientation:mixed;dominant-baseline:auto;baseline-shift:baseline;text-anchor:start;white-space:normal;shape-padding:0;clip-rule:nonzero;display:inline;overflow:visible;visibility:visible;opacity:1;isolation:auto;mix-blend-mode:normal;color-interpolation:sRGB;color-interpolation-filters:linearRGB;solid-color:#000000;solid-opacity:1;vector-effect:none;fill:#5a5a5a;fill-opacity:1;fill-rule:nonzero;stroke:none;stroke-width:0.5;stroke-linecap:butt;stroke-linejoin:miter;stroke-miterlimit:4;stroke-dasharray:none;stroke-dashoffset:0;stroke-opacity:1;color-rendering:auto;image-rendering:auto;shape-rendering:auto;text-rendering:auto;enable-background:accumulate"
         sodipodi:nodetypes="cccccccccccccc" />
      <g
         aria-label="LOOPS"
         style="font-style:normal;font-weight:normal;font-size:8.36870861px;line-height:1.25;font-family:sans-serif;letter-spacing:0px;word-spacing:0px;fill:#5a5a5a;fill-opacity:1;stroke:none;stroke-width:0.20921767px"
         id="text840">
        <path
           d="m 48.741053,1051.7682 h -2.537582 v -5.2877 h 0.804998 v 4.6094 h 1.732584 z"
           style="font-style:normal;font-variant:normal;font-weight:normal;font-stretch:normal;font-family:'Estrangelo Edessa';-inkscape-font-specification:'Estrangelo Edessa';fill:#5a5a5a;fill-opacity:1;stroke-width:0.20921767px"
           id="path4487" />
        <path
           d="m 53.652766,1049.1407 q 0,-0.4822 -0.106244,-0.8622 -0.106243,-0.3841 -0.314644,-0.6497 -0.2084,-0.2656 -0.514871,-0.4046 -0.306472,-0.143 -0.706927,-0.143 -0.384111,0 -0.698755,0.1512 -0.310557,0.1471 -0.531217,0.4168 -0.220659,0.2697 -0.343247,0.6497 -0.118503,0.376 -0.118503,0.8336 0,0.4577 0.114416,0.8336 0.114416,0.376 0.326903,0.6416 0.216573,0.2656 0.518958,0.4127 0.306471,0.1471 0.682409,0.1471 0.400456,0 0.7151,-0.1348 0.314644,-0.139 0.531217,-0.3964 0.216573,-0.2615 0.330989,-0.6375 0.114416,-0.38 0.114416,-0.8581 z m 0.825429,-0.086 q 0,0.6415 -0.17571,1.1605 -0.171624,0.5149 -0.498527,0.8786 -0.322816,0.3595 -0.788653,0.5557 -0.465836,0.192 -1.054261,0.192 -0.563907,0 -1.021571,-0.1879 -0.457663,-0.1921 -0.78048,-0.5394 -0.322816,-0.3514 -0.498526,-0.8418 -0.175711,-0.4903 -0.175711,-1.091 0,-0.6293 0.171624,-1.1401 0.175711,-0.5149 0.5067,-0.8745 0.330988,-0.3636 0.804997,-0.5598 0.478096,-0.1961 1.082866,-0.1961 0.551648,0 1.001139,0.192 0.449491,0.1921 0.764135,0.5435 0.31873,0.3473 0.490354,0.8336 0.171624,0.4863 0.171624,1.0747 z"
           style="font-style:normal;font-variant:normal;font-weight:normal;font-stretch:normal;font-family:'Estrangelo Edessa';-inkscape-font-specification:'Estrangelo Edessa';fill:#5a5a5a;fill-opacity:1;stroke-width:0.20921767px"
           id="path4489" />
        <path
           d="m 59.569704,1049.1407 q 0,-0.4822 -0.106243,-0.8622 -0.106243,-0.3841 -0.314644,-0.6497 -0.2084,-0.2656 -0.514871,-0.4046 -0.306472,-0.143 -0.706928,-0.143 -0.38411,0 -0.698754,0.1512 -0.310558,0.1471 -0.531217,0.4168 -0.220659,0.2697 -0.343248,0.6497 -0.118502,0.376 -0.118502,0.8336 0,0.4577 0.114416,0.8336 0.114416,0.376 0.326903,0.6416 0.216573,0.2656 0.518958,0.4127 0.306471,0.1471 0.682409,0.1471 0.400456,0 0.7151,-0.1348 0.314644,-0.139 0.531217,-0.3964 0.216573,-0.2615 0.330988,-0.6375 0.114416,-0.38 0.114416,-0.8581 z m 0.82543,-0.086 q 0,0.6415 -0.17571,1.1605 -0.171624,0.5149 -0.498527,0.8786 -0.322816,0.3595 -0.788653,0.5557 -0.465836,0.192 -1.054261,0.192 -0.563907,0 -1.021571,-0.1879 -0.457664,-0.1921 -0.78048,-0.5394 -0.322816,-0.3514 -0.498527,-0.8418 -0.17571,-0.4903 -0.17571,-1.091 0,-0.6293 0.171624,-1.1401 0.17571,-0.5149 0.506699,-0.8745 0.330989,-0.3636 0.804998,-0.5598 0.478095,-0.1961 1.082865,-0.1961 0.551649,0 1.00114,0.192 0.449491,0.1921 0.764135,0.5435 0.31873,0.3473 0.490354,0.8336 0.171624,0.4863 0.171624,1.0747 z"
           style="font-style:normal;font-variant:normal;font-weight:normal;font-stretch:normal;font-family:'Estrangelo Edessa';-inkscape-font-specification:'Estrangelo Edessa';fill:#5a5a5a;fill-opacity:1;stroke-width:0.20921767px"
           id="path4491" />
        <path
           d="m 63.954286,1047.9679 q 0,-0.2084 -0.07355,-0.3595 -0.06947,-0.1512 -0.224746,-0.2493 -0.155279,-0.098 -0.400456,-0.143 -0.24109,-0.049 -0.584338,-0.049 h -0.281954 v 1.7735 h 0.257436 q 0.617029,0 0.960277,-0.2452 0.347334,-0.2493 0.347334,-0.7274 z m 0.829515,-0.041 q 0,0.3759 -0.151192,0.6906 -0.147106,0.3105 -0.445405,0.5394 -0.298299,0.2247 -0.74779,0.3514 -0.449491,0.1226 -1.050175,0.1266 v 2.1331 h -0.804997 v -5.2877 h 1.078778 q 0.465837,0 0.854034,0.074 0.388197,0.069 0.67015,0.2411 0.281954,0.1675 0.437232,0.4454 0.159365,0.2738 0.159365,0.6865 z"
           style="font-style:normal;font-variant:normal;font-weight:normal;font-stretch:normal;font-family:'Estrangelo Edessa';-inkscape-font-specification:'Estrangelo Edessa';fill:#5a5a5a;fill-opacity:1;stroke-width:0.20921767px"
           id="path4493" />
        <path
           d="m 68.796533,1050.289 q 0,0.3228 -0.114416,0.6088 -0.11033,0.282 -0.330989,0.4945 -0.216573,0.2084 -0.543476,0.3309 -0.322816,0.1185 -0.751876,0.1185 -0.208401,0 -0.416801,-0.029 -0.204314,-0.024 -0.392283,-0.073 -0.183883,-0.053 -0.343248,-0.1185 -0.159365,-0.07 -0.277867,-0.1471 v -0.8173 q 0.130761,0.094 0.306471,0.188 0.179796,0.09 0.375938,0.1634 0.196142,0.07 0.388197,0.1145 0.196142,0.045 0.35142,0.045 0.237005,0 0.412715,-0.057 0.179796,-0.061 0.298299,-0.1716 0.122588,-0.1104 0.179796,-0.2615 0.06129,-0.1553 0.06129,-0.3392 0,-0.2084 -0.07764,-0.3514 -0.07355,-0.1431 -0.212487,-0.2493 -0.138933,-0.1062 -0.335075,-0.192 -0.196142,-0.086 -0.437232,-0.1798 -0.330989,-0.1308 -0.588425,-0.2616 -0.257436,-0.1348 -0.433146,-0.3024 -0.17571,-0.1716 -0.269695,-0.3922 -0.0899,-0.2248 -0.0899,-0.5313 0,-0.335 0.134847,-0.6047 0.134848,-0.2738 0.367766,-0.4618 0.232918,-0.192 0.543475,-0.2942 0.314644,-0.1062 0.670151,-0.1062 0.380024,0 0.686496,0.069 0.306471,0.07 0.55982,0.1757 v 0.7356 q -0.118502,-0.057 -0.273781,-0.1104 -0.155278,-0.053 -0.326902,-0.094 -0.171624,-0.045 -0.343248,-0.07 -0.171624,-0.029 -0.326903,-0.029 -0.216573,0 -0.38411,0.057 -0.167538,0.053 -0.28604,0.1512 -0.114416,0.098 -0.17571,0.237 -0.05721,0.1348 -0.05721,0.2983 0,0.1839 0.07764,0.3187 0.07764,0.1308 0.220659,0.237 0.14302,0.1022 0.343248,0.1921 0.204314,0.086 0.453578,0.1839 0.31873,0.1266 0.567993,0.2656 0.25335,0.1348 0.424973,0.3146 0.175711,0.1757 0.269695,0.4087 0.09399,0.2288 0.09399,0.5353 z"
           style="font-style:normal;font-variant:normal;font-weight:normal;font-stretch:normal;font-family:'Estrangelo Edessa';-inkscape-font-specification:'Estrangelo Edessa';fill:#5a5a5a;fill-opacity:1;stroke-width:0.20921767px"
           id="path4495" />
      </g>
    </g>
  </g>
</svg>
