<?xml version="1.0" encoding="UTF-8" standalone="no"?>
<!-- Created with Inkscape (http://www.inkscape.org/) -->

<svg
   xmlns:dc="http://purl.org/dc/elements/1.1/"
   xmlns:cc="http://creativecommons.org/ns#"
   xmlns:rdf="http://www.w3.org/1999/02/22-rdf-syntax-ns#"
   xmlns:svg="http://www.w3.org/2000/svg"
   xmlns="http://www.w3.org/2000/svg"
   xmlns:xlink="http://www.w3.org/1999/xlink"
   xmlns:sodipodi="http://sodipodi.sourceforge.net/DTD/sodipodi-0.dtd"
   xmlns:inkscape="http://www.inkscape.org/namespaces/inkscape"
   width="26"
   height="26"
   viewBox="0 0 26 26"
   id="svg2"
   version="1.1"
   inkscape:version="0.92.1 r15371"
   sodipodi:docname="btn_headphones_2_pressed.svg">
  <defs
     id="defs4">
    <linearGradient
       inkscape:collect="always"
       id="linearGradient4733">
      <stop
         style="stop-color:#8d5fd3;stop-opacity:1"
         offset="0"
         id="stop4735" />
      <stop
         style="stop-color:#000000;stop-opacity:1"
         offset="1"
         id="stop4737" />
    </linearGradient>
    <pattern
       y="0"
       x="0"
       height="6"
       width="6"
       patternUnits="userSpaceOnUse"
       id="EMFhbasepattern" />
    <radialGradient
       inkscape:collect="always"
       xlink:href="#linearGradient4733"
       id="radialGradient4725-4-0-0"
       cx="768.05133"
       cy="167.47935"
       fx="768.05133"
       fy="167.4791"
       r="24.596836"
       gradientTransform="matrix(0.87703966,6.9128243e-6,3.5637646e-5,0.65548956,-660.61776,928.26502)"
       gradientUnits="userSpaceOnUse" />
    <pattern
       y="0"
       x="0"
       height="6"
       width="6"
       patternUnits="userSpaceOnUse"
       id="EMFhbasepattern-0" />
    <pattern
       y="0"
       x="0"
       height="6"
       width="6"
       patternUnits="userSpaceOnUse"
       id="EMFhbasepattern-4" />
  </defs>
  <sodipodi:namedview
     id="base"
     pagecolor="#ffffff"
     bordercolor="#666666"
     borderopacity="1.0"
     inkscape:pageopacity="0.0"
     inkscape:pageshadow="2"
     inkscape:zoom="14.481547"
     inkscape:cx="-16.619834"
     inkscape:cy="11.571804"
     inkscape:document-units="px"
     inkscape:current-layer="g4389"
     showgrid="false"
     units="px"
     inkscape:window-width="1920"
     inkscape:window-height="1028"
     inkscape:window-x="-8"
     inkscape:window-y="-8"
     inkscape:window-maximized="1"
     showguides="false" />
  <metadata
     id="metadata7">
    <rdf:RDF>
      <cc:Work
         rdf:about="">
        <dc:format>image/svg+xml</dc:format>
        <dc:type
           rdf:resource="http://purl.org/dc/dcmitype/StillImage" />
        <dc:title />
        <dc:creator>
          <cc:Agent>
            <dc:title>Jorge Rosa</dc:title>
          </cc:Agent>
        </dc:creator>
        <dc:description>Email: jorge.bigarte@gmail.com
Site:https://sites.google.com/site/jorgerosaportfolio</dc:description>
      </cc:Work>
    </rdf:RDF>
  </metadata>
  <g
     inkscape:label="Layer 1"
     inkscape:groupmode="layer"
     id="layer1"
     transform="translate(0,-1026.3622)">
    <g
       id="g4389">
      <rect
         y="1028.0214"
         x="1.9437649"
         height="21.989141"
         width="21.800676"
         id="rect4183-39-0-0-1-8-7-4"
         style="opacity:0.85900005;fill:none;fill-opacity:1;stroke:#000000;stroke-width:1.00554919;stroke-linecap:round;stroke-linejoin:round;stroke-miterlimit:4;stroke-dasharray:none;stroke-dashoffset:0;stroke-opacity:1" />
      <rect
         y="1027.1096"
         x="1.4912121"
         height="22.090797"
         width="22.705778"
         id="rect4183-39-0-0-1-8-2"
         style="opacity:1;fill:url(#radialGradient4725-4-0-0);fill-opacity:1;stroke:none;stroke-width:1.02858019;stroke-linecap:round;stroke-linejoin:round;stroke-miterlimit:4;stroke-dasharray:none;stroke-dashoffset:0;stroke-opacity:1" />
      <rect
         transform="scale(1,-1)"
         y="-1049.097"
         x="1.4912121"
         height="22.090797"
         width="22.705778"
         id="rect4183-39-0-0-1-8-78-3"
         style="opacity:1;fill:none;fill-opacity:1;stroke:#1a1a1a;stroke-width:1.02858019;stroke-linecap:round;stroke-linejoin:round;stroke-miterlimit:4;stroke-dasharray:none;stroke-dashoffset:0;stroke-opacity:1" />
      <path
         id="path823"
         d="m 8.5118792,1033.9122 c 0,0 0,0 0,0 -0.8221724,0.8222 -1.3281253,2.9094 -1.3913694,4.2372 -0.063245,1.0753 1.4546145,2.846 1.7075899,3.5418 0.505954,1.8973 0.6956863,1.8973 1.8973233,1.9606 1.138394,0.063 1.454616,-0.8222 1.454616,-1.5178 v -2.7197 c 0,-0.6956 -0.505953,-1.2015 -1.011906,-1.2649 -3.6049154,0.063 -1.075151,4.5538 -3.351938,0.4428 0.1264882,-3.0357 1.0751489,-3.4151 2.909228,-3.7946 1.581104,-0.2531 2.719498,-0.1897 4.237356,0 1.897323,0.253 2.909229,0.8854 2.909229,3.7946 -2.213544,3.7947 0.189731,-0.4428 -3.351938,-0.4428 -0.505953,0.063 -1.011906,0.5693 -1.011906,1.2649 v 2.7197 c 0,0.6956 0.31622,1.5178 1.454615,1.5178 1.201637,0 1.454614,-0.1265 1.897323,-1.9606 0.252977,-0.6958 1.770835,-2.4665 1.707591,-3.5418 -0.06325,-1.3278 -0.379466,-3.415 -1.264882,-4.2372 0,0 0,0 0,0 -2.340032,-1.7076 -6.577388,-1.6444 -8.7909318,0 z"
         style="opacity:1;fill:#e5d5ff;fill-opacity:1;fill-rule:nonzero;stroke:none;stroke-width:0.79055721"
         inkscape:connector-curvature="0" />
    </g>
  </g>
</svg>
