<?xml version="1.0" encoding="UTF-8" standalone="no"?>
<!-- Created with Inkscape (http://www.inkscape.org/) -->

<svg
   xmlns:dc="http://purl.org/dc/elements/1.1/"
   xmlns:cc="http://creativecommons.org/ns#"
   xmlns:rdf="http://www.w3.org/1999/02/22-rdf-syntax-ns#"
   xmlns:svg="http://www.w3.org/2000/svg"
   xmlns="http://www.w3.org/2000/svg"
   xmlns:xlink="http://www.w3.org/1999/xlink"
   xmlns:sodipodi="http://sodipodi.sourceforge.net/DTD/sodipodi-0.dtd"
   xmlns:inkscape="http://www.inkscape.org/namespaces/inkscape"
   width="30"
   height="25"
   viewBox="0 0 30 25"
   id="svg2"
   version="1.1"
   inkscape:version="0.92.1 r15371"
   sodipodi:docname="btn_beat_adjust_down.svg">
  <defs
     id="defs4">
    <linearGradient
       inkscape:collect="always"
       id="linearGradient4733">
      <stop
         style="stop-color:#211532;stop-opacity:1"
         offset="0"
         id="stop4735" />
      <stop
         style="stop-color:#000000;stop-opacity:1"
         offset="1"
         id="stop4737" />
    </linearGradient>
    <radialGradient
       inkscape:collect="always"
       xlink:href="#linearGradient4733"
       id="radialGradient4725-4-0-0"
       cx="748.02911"
       cy="151.64005"
       fx="748.02911"
       fy="151.63979"
       r="24.596836"
       gradientTransform="matrix(0.52039468,1.7110345e-6,1.0367701e-6,0.34873012,-373.82851,986.71504)"
       gradientUnits="userSpaceOnUse" />
    <pattern
       y="0"
       x="0"
       height="6"
       width="6"
       patternUnits="userSpaceOnUse"
       id="EMFhbasepattern" />
    <pattern
       id="EMFhbasepattern-7"
       patternUnits="userSpaceOnUse"
       width="6"
       height="6"
       x="0"
       y="0" />
    <pattern
       id="EMFhbasepattern-4"
       patternUnits="userSpaceOnUse"
       width="6"
       height="6"
       x="0"
       y="0" />
    <pattern
       id="EMFhbasepattern-6"
       patternUnits="userSpaceOnUse"
       width="6"
       height="6"
       x="0"
       y="0" />
    <pattern
       id="EMFhbasepattern-7-4"
       patternUnits="userSpaceOnUse"
       width="6"
       height="6"
       x="0"
       y="0" />
    <pattern
       id="EMFhbasepattern-3"
       patternUnits="userSpaceOnUse"
       width="6"
       height="6"
       x="0"
       y="0" />
    <pattern
       id="EMFhbasepattern-4-1"
       patternUnits="userSpaceOnUse"
       width="6"
       height="6"
       x="0"
       y="0" />
    <pattern
       id="EMFhbasepattern-5"
       patternUnits="userSpaceOnUse"
       width="6"
       height="6"
       x="0"
       y="0" />
    <pattern
       id="EMFhbasepattern-4-0"
       patternUnits="userSpaceOnUse"
       width="6"
       height="6"
       x="0"
       y="0" />
    <pattern
       y="0"
       x="0"
       height="6"
       width="6"
       patternUnits="userSpaceOnUse"
       id="EMFhbasepattern-58" />
  </defs>
  <sodipodi:namedview
     id="base"
     pagecolor="#ffffff"
     bordercolor="#666666"
     borderopacity="1.0"
     inkscape:pageopacity="0.0"
     inkscape:pageshadow="2"
     inkscape:zoom="17.677182"
     inkscape:cx="1.0879103"
     inkscape:cy="13.231262"
     inkscape:document-units="px"
     inkscape:current-layer="g4238"
     showgrid="false"
     units="px"
     inkscape:window-width="1920"
     inkscape:window-height="1028"
     inkscape:window-x="-8"
     inkscape:window-y="-8"
     inkscape:window-maximized="1"
     showguides="true"
     inkscape:guide-bbox="true">
    <sodipodi:guide
       position="16.640459,2.8000773"
       orientation="0,1"
       id="guide4500"
       inkscape:locked="false" />
    <sodipodi:guide
       position="24.000662,20.800574"
       orientation="0,1"
       id="guide4502"
       inkscape:locked="false" />
  </sodipodi:namedview>
  <metadata
     id="metadata7">
    <rdf:RDF>
      <cc:Work
         rdf:about="">
        <dc:format>image/svg+xml</dc:format>
        <dc:type
           rdf:resource="http://purl.org/dc/dcmitype/StillImage" />
        <dc:title></dc:title>
        <dc:creator>
          <cc:Agent>
            <dc:title>Jorge Rosa</dc:title>
          </cc:Agent>
        </dc:creator>
        <dc:description>Email: jorge.bigarte@gmail.com
Site:https://sites.google.com/site/jorgerosaportfolio</dc:description>
      </cc:Work>
    </rdf:RDF>
  </metadata>
  <g
     inkscape:label="Layer 1"
     inkscape:groupmode="layer"
     id="layer1"
     transform="translate(0,-1027.3622)">
    <g
       id="g4238">
      <path
         style="opacity:1;fill:url(#radialGradient4725-4-0-0);fill-opacity:1;stroke:none;stroke-width:0.78859794;stroke-linecap:round;stroke-linejoin:round;stroke-miterlimit:4;stroke-dasharray:none;stroke-dashoffset:0;stroke-opacity:1"
         d="m 30,1028.8622 v 22 H 0 v -22 z"
         id="rect4183-39-0-0-1-8-1"
         inkscape:connector-curvature="0" />
      <path
         style="color:#000000;font-style:normal;font-variant:normal;font-weight:normal;font-stretch:normal;font-size:medium;line-height:normal;font-family:sans-serif;font-variant-ligatures:normal;font-variant-position:normal;font-variant-caps:normal;font-variant-numeric:normal;font-variant-alternates:normal;font-feature-settings:normal;text-indent:0;text-align:start;text-decoration:none;text-decoration-line:none;text-decoration-style:solid;text-decoration-color:#000000;letter-spacing:normal;word-spacing:normal;text-transform:none;writing-mode:lr-tb;direction:ltr;text-orientation:mixed;dominant-baseline:auto;baseline-shift:baseline;text-anchor:start;white-space:normal;shape-padding:0;clip-rule:nonzero;display:inline;overflow:visible;visibility:visible;opacity:1;isolation:auto;mix-blend-mode:normal;color-interpolation:sRGB;color-interpolation-filters:linearRGB;solid-color:#000000;solid-opacity:1;vector-effect:none;fill:#e5d5ff;fill-opacity:1;fill-rule:evenodd;stroke:none;stroke-width:2.49361849;stroke-linecap:butt;stroke-linejoin:miter;stroke-miterlimit:4;stroke-dasharray:none;stroke-dashoffset:0;stroke-opacity:1;color-rendering:auto;image-rendering:auto;shape-rendering:auto;text-rendering:auto;enable-background:accumulate"
         d="m 14.928912,1022.0315 v 3.0723 h 2.49414 v -3.0723 z"
         id="path5026-4-1-2-7"
         inkscape:connector-curvature="0" />
      <path
         style="color:#000000;font-style:normal;font-variant:normal;font-weight:normal;font-stretch:normal;font-size:medium;line-height:normal;font-family:sans-serif;font-variant-ligatures:normal;font-variant-position:normal;font-variant-caps:normal;font-variant-numeric:normal;font-variant-alternates:normal;font-feature-settings:normal;text-indent:0;text-align:start;text-decoration:none;text-decoration-line:none;text-decoration-style:solid;text-decoration-color:#000000;letter-spacing:normal;word-spacing:normal;text-transform:none;writing-mode:lr-tb;direction:ltr;text-orientation:mixed;dominant-baseline:auto;baseline-shift:baseline;text-anchor:start;white-space:normal;shape-padding:0;clip-rule:nonzero;display:inline;overflow:visible;visibility:visible;opacity:1;isolation:auto;mix-blend-mode:normal;color-interpolation:sRGB;color-interpolation-filters:linearRGB;solid-color:#000000;solid-opacity:1;vector-effect:none;fill:#553289;fill-opacity:1;fill-rule:evenodd;stroke:none;stroke-width:1.45514059;stroke-linecap:butt;stroke-linejoin:miter;stroke-miterlimit:4;stroke-dasharray:none;stroke-dashoffset:0;stroke-opacity:1;color-rendering:auto;image-rendering:auto;shape-rendering:auto;text-rendering:auto;enable-background:accumulate"
         d="m 12.395198,1022.0315 v 2.9987 h 2.533714 v -2.9987 z"
         id="path5026-4-1-3"
         inkscape:connector-curvature="0" />
      <path
         sodipodi:nodetypes="cccc"
         inkscape:connector-curvature="0"
         id="path4529-9"
         d="m 20.391652,1041.4361 -5.450652,5.6671 -5.3326524,-5.6671 z"
         style="opacity:1;fill:#553289;fill-opacity:1;fill-rule:evenodd;stroke:none;stroke-width:1.11570632px;stroke-linecap:butt;stroke-linejoin:miter;stroke-opacity:1" />
      <path
         id="path4498"
         d="m -6.5101372,1035.6614 c -2.285915,0 -4.2022578,1.9149 -4.2022578,4.2009 0,2.3476 1.9163428,4.2007 4.2022578,4.2007 2.347697,0 4.2007504,-1.8531 4.2007504,-4.2007 0,-2.286 -1.8530534,-4.2009 -4.2007504,-4.2009 z m 0,0.7407 c 1.915227,0 3.520486,1.545 3.520486,3.4602 0,1.9151 -1.605259,3.5204 -3.520486,3.5204 -1.915227,0 -3.460151,-1.6052 -3.460151,-3.5204 0,-1.9152 1.544924,-3.4602 3.460151,-3.4602 z m -0.556581,0.988 v 1.9156 h -1.915602 v 1.1116 h 1.915602 v 1.9157 h 1.111653 v -1.9157 h 1.915603 v -1.1116 h -1.915603 v -1.9156 z"
         style="fill:#553289;fill-opacity:1;fill-rule:nonzero;stroke:none;stroke-width:0.77227437"
         inkscape:connector-curvature="0" />
      <path
         id="path4495-6"
         d="m -15.956828,1035.6569 c -2.31839,0 -4.205274,1.8868 -4.205274,4.2053 0,2.3182 1.886884,4.2053 4.205274,4.2053 2.318391,0 4.205277,-1.887 4.205277,-4.2053 0,-2.3185 -1.886886,-4.2053 -4.205277,-4.2053 z m 0,0.7135 c 1.932264,0 3.490319,1.5595 3.490319,3.4918 0,1.9322 -1.558055,3.4903 -3.490319,3.4903 -1.932263,0 -3.491826,-1.5581 -3.491826,-3.4903 0,-1.9323 1.559563,-3.4918 3.491826,-3.4918 z m -2.451066,2.9321 v 1.1193 h 4.900625 v -1.1193 z"
         style="color:#000000;font-style:normal;font-variant:normal;font-weight:normal;font-stretch:normal;font-size:medium;line-height:normal;font-family:sans-serif;font-variant-ligatures:normal;font-variant-position:normal;font-variant-caps:normal;font-variant-numeric:normal;font-variant-alternates:normal;font-feature-settings:normal;text-indent:0;text-align:start;text-decoration:none;text-decoration-line:none;text-decoration-style:solid;text-decoration-color:#000000;letter-spacing:normal;word-spacing:normal;text-transform:none;writing-mode:lr-tb;direction:ltr;text-orientation:mixed;dominant-baseline:auto;baseline-shift:baseline;text-anchor:start;white-space:normal;shape-padding:0;clip-rule:nonzero;display:inline;overflow:visible;visibility:visible;opacity:1;isolation:auto;mix-blend-mode:normal;color-interpolation:sRGB;color-interpolation-filters:linearRGB;solid-color:#000000;solid-opacity:1;vector-effect:none;fill:#553289;fill-opacity:1;fill-rule:nonzero;stroke:none;stroke-width:0.71446824;stroke-linecap:butt;stroke-linejoin:miter;stroke-miterlimit:4;stroke-dasharray:none;stroke-dashoffset:0;stroke-opacity:1;color-rendering:auto;image-rendering:auto;shape-rendering:auto;text-rendering:auto;enable-background:accumulate"
         inkscape:connector-curvature="0" />
      <g
         id="g4530"
         transform="translate(-0.61375425,0.2637)">
        <path
           inkscape:connector-curvature="0"
           style="fill:#553289;fill-opacity:1;fill-rule:nonzero;stroke:none"
           d="m 11.213786,1033.1785 c 0,-0.08 -0.08,-0.16 -0.08,-0.24 0,-0.16 -0.08,-0.16 -0.159998,-0.24 -0.08,-0.08 -0.159999,-0.16 -0.239999,-0.16 -0.159999,-0.08 -0.319997,-0.08 -0.479996,-0.08 h -0.239999 c -0.08,0 -0.1599985,0 -0.1599985,0 v 1.6 h 0.3199975 c 0.319998,0 0.559996,-0.08 0.719995,-0.24 0.159999,-0.16 0.319997,-0.32 0.319998,-0.64 z m 0.239999,2.32 c 0,-0.24 -0.08,-0.48 -0.239999,-0.64 -0.239998,-0.08 -0.479996,-0.16 -0.879993,-0.16 H 9.8537965 v 1.68 c 0.08,0.08 0.1599985,0.08 0.2399985,0.08 h 0.319997 c 0.319998,0 0.559996,-0.08 0.799994,-0.24 0.159999,-0.16 0.239999,-0.4 0.239999,-0.72 z m 0.799994,0 c 0,0.24 -0.08,0.48 -0.159999,0.64 -0.08,0.16 -0.159999,0.32 -0.319998,0.48 -0.159999,0.16 -0.319997,0.24 -0.639995,0.32 -0.239998,0.08 -0.479997,0.16 -0.799994,0.16 -0.08,0 -0.239998,0 -0.319998,0 -0.1599985,0 -0.2399975,0 -0.3199965,-0.08 -0.159999,0 -0.239999,0 -0.399997,0 -0.08,0 -0.159999,0 -0.239999,0 v -5.2 c 0.159999,0 0.319998,0 0.559996,0 0.239998,0 0.3999965,0 0.6399945,0 0.319998,0 0.559996,0 0.719995,0.08 0.239998,0.08 0.399997,0.16 0.559996,0.24 0.159999,0.16 0.239998,0.24 0.319998,0.4 0.08,0.16 0.08,0.4 0.08,0.56 0,0.16 0,0.32 0,0.4 -0.08,0.16 -0.08,0.24 -0.159999,0.32 -0.08,0.08 -0.159999,0.24 -0.239998,0.32 -0.08,0 -0.159999,0.08 -0.319998,0.16 0.159999,0 0.319998,0.08 0.399997,0.16 0.159999,0.08 0.239998,0.16 0.319998,0.24 0.08,0.08 0.159998,0.24 0.239998,0.32 0,0.16 0.08,0.32 0.08,0.48 z"
           id="path4511" />
        <path
           inkscape:connector-curvature="0"
           style="fill:#553289;fill-opacity:1;fill-rule:nonzero;stroke:none"
           d="m 15.373756,1033.3385 c 0,-0.16 -0.08,-0.32 -0.08,-0.4 -0.08,-0.08 -0.159999,-0.16 -0.239999,-0.24 -0.08,-0.08 -0.239998,-0.08 -0.399997,-0.16 -0.159999,0 -0.319997,0 -0.559996,0 h -0.239998 v 1.76 h 0.239998 c 0.399997,0 0.719995,-0.08 0.879993,-0.24 0.239999,-0.16 0.399998,-0.4 0.399999,-0.72 z m 0.719994,-0.08 c 0,0.24 0,0.48 -0.08,0.72 -0.159999,0.16 -0.239998,0.32 -0.479996,0.48 -0.159999,0.16 -0.399997,0.32 -0.719995,0.4 -0.239998,0.08 -0.559996,0.08 -0.959993,0.08 v 2.08 h -0.799994 v -5.2 h 1.039993 c 0.319997,0 0.559995,0.08 0.799994,0.08 0.239998,0.08 0.479996,0.16 0.639995,0.24 0.239998,0.16 0.319997,0.24 0.479996,0.48 0.08,0.16 0.08,0.4 0.08,0.64 z"
           id="path4513" />
        <path
           inkscape:connector-curvature="0"
           style="fill:#553289;fill-opacity:1;fill-rule:nonzero;stroke:none"
           d="m 22.173706,1037.0185 h -0.639995 l -0.159999,-3.36 c 0,-0.08 -0.08,-0.08 -0.08,-0.16 0,-0.08 0,-0.08 0,-0.16 0,-0.08 0,-0.16 0,-0.16 v -0.16 c 0,0 0,0.08 0,0.16 -0.08,0.08 -0.08,0.16 -0.08,0.24 0,0 0,0.08 -0.08,0.16 0,0 0,0.08 0,0.08 l -1.279991,3.36 h -0.639995 l -1.35999,-3.36 c 0,-0.08 0,-0.08 0,-0.16 0,0 -0.08,-0.08 -0.08,-0.16 0,0 0,-0.08 -0.08,-0.16 0,-0.08 0,-0.16 0,-0.16 0,0 0,0.08 0,0.16 0,0 0,0.08 0,0.16 0,0.08 0,0.16 0,0.16 0,0.08 0,0.16 0,0.16 l -0.239998,3.36 h -0.719994 l 0.319998,-5.2 h 0.879993 l 1.43999,3.84 c 0,0.08 0,0.08 0,0.16 0.08,0.08 0.08,0.08 0.08,0.16 0,0.08 0,0.08 0,0.16 0.08,0.08 0.08,0.08 0.08,0.16 0,-0.08 0,-0.08 0,-0.16 0,-0.08 0.08,-0.16 0.08,-0.16 0,-0.08 0,-0.16 0,-0.16 0,-0.08 0.08,-0.08 0.08,-0.16 l 1.43999,-3.84 h 0.879993 z"
           id="path4515" />
      </g>
    </g>
  </g>
</svg>
