<?xml version="1.0" encoding="UTF-8" standalone="no"?>
<!-- Created with Inkscape (http://www.inkscape.org/) -->

<svg
   xmlns:dc="http://purl.org/dc/elements/1.1/"
   xmlns:cc="http://creativecommons.org/ns#"
   xmlns:rdf="http://www.w3.org/1999/02/22-rdf-syntax-ns#"
   xmlns:svg="http://www.w3.org/2000/svg"
   xmlns="http://www.w3.org/2000/svg"
   xmlns:sodipodi="http://sodipodi.sourceforge.net/DTD/sodipodi-0.dtd"
   xmlns:inkscape="http://www.inkscape.org/namespaces/inkscape"
   width="20"
   height="18"
   viewBox="0 0 20 18"
   id="svg2"
   version="1.1"
   inkscape:version="0.91 r13725"
   sodipodi:docname="btn_repeat_over.svg">
  <defs
     id="defs4">
    <pattern
       y="0"
       x="0"
       height="6"
       width="6"
       patternUnits="userSpaceOnUse"
       id="EMFhbasepattern" />
  </defs>
  <sodipodi:namedview
     id="base"
     pagecolor="#ffffff"
     bordercolor="#666666"
     borderopacity="1.0"
     inkscape:pageopacity="0.0"
     inkscape:pageshadow="2"
     inkscape:zoom="17.697364"
     inkscape:cx="9.6015939"
     inkscape:cy="1.3701488"
     inkscape:document-units="px"
     inkscape:current-layer="layer1"
     showgrid="false"
     units="px"
     inkscape:window-width="1920"
     inkscape:window-height="1028"
     inkscape:window-x="-8"
     inkscape:window-y="-8"
     inkscape:window-maximized="1"
     showguides="true"
     inkscape:guide-bbox="true">
    <sodipodi:guide
       position="-4.5549256,14.943352"
       orientation="0,1"
       id="guide4888" />
    <sodipodi:guide
       position="3.436172,4.7147476"
       orientation="0,1"
       id="guide4890" />
  </sodipodi:namedview>
  <metadata
     id="metadata7">
    <rdf:RDF>
      <cc:Work
         rdf:about="">
        <dc:format>image/svg+xml</dc:format>
        <dc:type
           rdf:resource="http://purl.org/dc/dcmitype/StillImage" />
        <dc:title></dc:title>
        <dc:creator>
          <cc:Agent>
            <dc:title>Jorge Rosa</dc:title>
          </cc:Agent>
        </dc:creator>
        <dc:description>Email: jorge.bigarte@gmail.com
Site:https://sites.google.com/site/jorgerosaportfolio</dc:description>
      </cc:Work>
    </rdf:RDF>
  </metadata>
  <g
     inkscape:label="Layer 1"
     inkscape:groupmode="layer"
     id="layer1"
     transform="translate(0,-1034.3622)">
    <path
       inkscape:connector-curvature="0"
       d="m 9.9999995,1047.7132 0,1.8527 -3.9245398,-2.4702 3.9245398,-2.4702 0,1.8527 c 3.2524635,0 5.8868105,-1.6581 5.8868105,-3.7053 0,-0.6268 -0.25019,-1.2135 -0.681888,-1.7322 l 1.432456,-0.9016 c 0.760381,0.7658 1.211702,1.6643 1.211702,2.6338 0,2.7295 -3.512464,4.9403 -7.8490805,4.9403 z m 0,-8.6455 c -3.2524623,0 -5.8868099,1.6581 -5.8868099,3.7052 0,0.6268 0.2501894,1.2135 0.6818889,1.7322 l -1.4324572,0.9016 c -0.7603797,-0.7657 -1.2117018,-1.6643 -1.2117018,-2.6338 0,-2.7295 3.5124635,-4.9403 7.84908,-4.9403 l 0,-1.8526 3.9245415,2.4701 -3.9245415,2.4702 0,-1.8526 z"
       id="path4902-7"
       style="fill:#e5d5ff;fill-opacity:1" />
  </g>
</svg>
