<?xml version="1.0" encoding="UTF-8" standalone="no"?>
<!-- Created with Inkscape (http://www.inkscape.org/) -->

<svg
   xmlns:dc="http://purl.org/dc/elements/1.1/"
   xmlns:cc="http://creativecommons.org/ns#"
   xmlns:rdf="http://www.w3.org/1999/02/22-rdf-syntax-ns#"
   xmlns:svg="http://www.w3.org/2000/svg"
   xmlns="http://www.w3.org/2000/svg"
   xmlns:xlink="http://www.w3.org/1999/xlink"
   xmlns:sodipodi="http://sodipodi.sourceforge.net/DTD/sodipodi-0.dtd"
   xmlns:inkscape="http://www.inkscape.org/namespaces/inkscape"
   width="18"
   height="18"
   viewBox="0 0 18 18"
   id="svg2"
   version="1.1"
   inkscape:version="0.91 r13725"
   sodipodi:docname="btn_channel_c.svg">
  <defs
     id="defs4">
    <linearGradient
       inkscape:collect="always"
       id="linearGradient4172">
      <stop
         style="stop-color:#170b28;stop-opacity:1"
         offset="0"
         id="stop4174" />
      <stop
         style="stop-color:#000000;stop-opacity:1"
         offset="1"
         id="stop4176" />
    </linearGradient>
    <radialGradient
       inkscape:collect="always"
       xlink:href="#linearGradient4172"
       id="radialGradient4178"
       cx="37.890625"
       cy="1037.6161"
       fx="37.890625"
       fy="1037.6161"
       r="10.839844"
       gradientUnits="userSpaceOnUse"
       gradientTransform="matrix(0.91219913,1.426648e-8,-1.4388356e-8,0.91999185,13.419118,84.76383)" />
    <pattern
       y="0"
       x="0"
       height="6"
       width="6"
       patternUnits="userSpaceOnUse"
       id="EMFhbasepattern" />
  </defs>
  <sodipodi:namedview
     id="base"
     pagecolor="#ffffff"
     bordercolor="#666666"
     borderopacity="1.0"
     inkscape:pageopacity="0.0"
     inkscape:pageshadow="2"
     inkscape:zoom="28.963094"
     inkscape:cx="-4.5769204"
     inkscape:cy="11.530027"
     inkscape:document-units="px"
     inkscape:current-layer="g4197"
     showgrid="false"
     units="px"
     inkscape:window-width="1920"
     inkscape:window-height="1028"
     inkscape:window-x="-8"
     inkscape:window-y="-8"
     inkscape:window-maximized="1"
     showguides="true"
     inkscape:guide-bbox="true" />
  <metadata
     id="metadata7">
    <rdf:RDF>
      <cc:Work
         rdf:about="">
        <dc:format>image/svg+xml</dc:format>
        <dc:type
           rdf:resource="http://purl.org/dc/dcmitype/StillImage" />
        <dc:title />
        <dc:creator>
          <cc:Agent>
            <dc:title>Jorge Rosa</dc:title>
          </cc:Agent>
        </dc:creator>
        <dc:description>Email: jorge.bigarte@gmail.com
Site:https://sites.google.com/site/jorgerosaportfolio</dc:description>
      </cc:Work>
    </rdf:RDF>
  </metadata>
  <g
     inkscape:label="Layer 1"
     inkscape:groupmode="layer"
     id="layer1"
     transform="translate(0,-1034.3622)">
    <g
       style="font-style:normal;font-variant:normal;font-weight:normal;font-stretch:normal;font-size:15px;line-height:100%;font-family:'Estrangelo Edessa';-inkscape-font-specification:'Estrangelo Edessa, Normal';text-align:start;letter-spacing:0px;word-spacing:0px;writing-mode:lr-tb;text-anchor:start;fill:#666666;fill-opacity:1;stroke:none;stroke-width:1px;stroke-linecap:butt;stroke-linejoin:miter;stroke-opacity:1"
       id="text4146-3" />
    <g
       id="g4197"
       transform="matrix(0.75206304,0,0,0.75206304,-27.086164,261.6963)"
       style="stroke-width:1.32967579;stroke-miterlimit:4;stroke-dasharray:none">
      <path
         style="opacity:1;fill:url(#radialGradient4178);fill-opacity:1;stroke:none;stroke-width:1.32967579;stroke-linecap:round;stroke-linejoin:round;stroke-miterlimit:4;stroke-dasharray:none;stroke-opacity:1"
         d="m 57.955466,1039.3623 a 9.9725683,9.9725683 0 0 1 -9.972569,9.9725 9.9725683,9.9725683 0 0 1 -9.972568,-9.9725 9.9725683,9.9725683 0 0 1 9.972568,-9.9726 9.9725683,9.9725683 0 0 1 9.972569,9.9726 z"
         id="path4170"
         inkscape:connector-curvature="0" />
      <path
         style="opacity:1;fill:none;fill-opacity:1;stroke:#1a1a1a;stroke-width:1.32967579;stroke-linecap:round;stroke-linejoin:round;stroke-miterlimit:4;stroke-dasharray:none;stroke-opacity:1"
         d="m 58.602113,1039.3622 a 10.619215,10.619215 0 0 1 -10.619215,10.6192 10.619215,10.619215 0 0 1 -10.619215,-10.6192 10.619215,10.619215 0 0 1 10.619215,-10.6192 10.619215,10.619215 0 0 1 10.619215,10.6192 z"
         id="path4180"
         inkscape:connector-curvature="0" />
    </g>
    <g
       style="font-style:normal;font-variant:normal;font-weight:normal;font-stretch:normal;font-size:11.1311264px;line-height:100%;font-family:'Estrangelo Edessa';-inkscape-font-specification:'Estrangelo Edessa, Normal';text-align:start;letter-spacing:0px;word-spacing:0px;writing-mode:lr-tb;text-anchor:start;fill:#442178;fill-opacity:1;stroke:none;stroke-width:1px;stroke-linecap:butt;stroke-linejoin:miter;stroke-opacity:1"
       id="text4143-9-24"
       transform="translate(-9.6533655,22.00235)">
      <path
         d="m 17.047287,1021.4332 q 0,0.5925 0.168489,1.0816 0.173924,0.4837 0.483726,0.8316 0.315237,0.3478 0.750046,0.5381 0.440245,0.1902 0.972887,0.1902 0.494596,0 0.978322,-0.1304 0.48916,-0.1305 0.93484,-0.3751 l 0,0.962 q -0.407634,0.2174 -0.9131,0.3316 -0.505466,0.1087 -1.103329,0.1087 -0.744612,0 -1.369651,-0.2609 -0.619603,-0.2609 -1.070718,-0.7283 -0.44568,-0.4674 -0.695696,-1.1142 -0.24458,-0.6522 -0.24458,-1.4349 0,-0.8044 0.266321,-1.4783 0.266321,-0.6794 0.733741,-1.1686 0.472855,-0.4891 1.1142,-0.7609 0.646779,-0.2772 1.402261,-0.2772 0.25545,0 0.516336,0.033 0.260886,0.027 0.510901,0.082 0.250016,0.049 0.472856,0.1195 0.228275,0.065 0.413069,0.1468 l 0,0.9566 q -0.190229,-0.082 -0.423939,-0.1631 -0.233711,-0.082 -0.483726,-0.1413 -0.250016,-0.065 -0.510901,-0.1033 -0.260886,-0.038 -0.505467,-0.038 -0.510901,0 -0.951146,0.2011 -0.434809,0.1956 -0.755481,0.5598 -0.320673,0.3641 -0.505467,0.8805 -0.184794,0.5163 -0.184794,1.1522 z"
         id="path4303"
         inkscape:connector-curvature="0"
         style="fill:#442178;fill-opacity:1" />
    </g>
  </g>
</svg>
