<?xml version="1.0" encoding="UTF-8" standalone="no"?>
<!-- Created with Inkscape (http://www.inkscape.org/) -->

<svg
   xmlns:dc="http://purl.org/dc/elements/1.1/"
   xmlns:cc="http://creativecommons.org/ns#"
   xmlns:rdf="http://www.w3.org/1999/02/22-rdf-syntax-ns#"
   xmlns:svg="http://www.w3.org/2000/svg"
   xmlns="http://www.w3.org/2000/svg"
   xmlns:xlink="http://www.w3.org/1999/xlink"
   xmlns:sodipodi="http://sodipodi.sourceforge.net/DTD/sodipodi-0.dtd"
   xmlns:inkscape="http://www.inkscape.org/namespaces/inkscape"
   width="40"
   height="35"
   viewBox="0 0 40 35"
   id="svg2"
   version="1.1"
   inkscape:version="0.92.1 r15371"
   sodipodi:docname="btn_expand_deck_3.svg">
  <defs
     id="defs4">
    <linearGradient
       inkscape:collect="always"
       id="linearGradient5297">
      <stop
         style="stop-color:#37146b;stop-opacity:1"
         offset="0"
         id="stop5299" />
      <stop
         style="stop-color:#000000;stop-opacity:1"
         offset="1"
         id="stop5301" />
    </linearGradient>
    <linearGradient
       inkscape:collect="always"
       id="linearGradient5425">
      <stop
         style="stop-color:#808080;stop-opacity:1"
         offset="0"
         id="stop5427" />
      <stop
         style="stop-color:#4d4d4d;stop-opacity:1"
         offset="1"
         id="stop5429" />
    </linearGradient>
    <radialGradient
       inkscape:collect="always"
       xlink:href="#linearGradient5297"
       id="radialGradient4196"
       cx="767.79694"
       cy="229.94714"
       fx="767.79694"
       fy="229.94714"
       r="32.034878"
       gradientTransform="matrix(3.4007844,4.7351202e-7,0,0.38525785,-2591.1118,946.27287)"
       gradientUnits="userSpaceOnUse" />
    <linearGradient
       inkscape:collect="always"
       xlink:href="#linearGradient5425"
       id="linearGradient6275"
       gradientUnits="userSpaceOnUse"
       gradientTransform="matrix(4.79052,0,0,0.13064892,-3047.5259,64.076967)"
       x1="957.76068"
       y1="184.92282"
       x2="957.60193"
       y2="365.76117" />
    <linearGradient
       inkscape:collect="always"
       xlink:href="#linearGradient5425"
       id="linearGradient6453"
       gradientUnits="userSpaceOnUse"
       gradientTransform="matrix(2.4713628,0,0,0.07616558,-821.29001,59.449937)"
       x1="957.76068"
       y1="184.92282"
       x2="957.60193"
       y2="365.76117" />
    <linearGradient
       inkscape:collect="always"
       xlink:href="#linearGradient5425"
       id="linearGradient6456"
       gradientUnits="userSpaceOnUse"
       gradientTransform="matrix(1.1564339,0,0,0.07676942,721.10443,59.332146)"
       x1="957.76068"
       y1="184.92282"
       x2="957.60193"
       y2="365.76117" />
    <pattern
       y="0"
       x="0"
       height="6"
       width="6"
       patternUnits="userSpaceOnUse"
       id="EMFhbasepattern" />
  </defs>
  <sodipodi:namedview
     id="base"
     pagecolor="#ffffff"
     bordercolor="#666666"
     borderopacity="1.0"
     inkscape:pageopacity="0.0"
     inkscape:pageshadow="2"
     inkscape:zoom="11.407222"
     inkscape:cx="-18.1071"
     inkscape:cy="18.359206"
     inkscape:document-units="px"
     inkscape:current-layer="g4170"
     showgrid="false"
     units="px"
     inkscape:window-width="1920"
     inkscape:window-height="1028"
     inkscape:window-x="-8"
     inkscape:window-y="-8"
     inkscape:window-maximized="1"
     objecttolerance="10"
     guidetolerance="9"
     showguides="true"
     inkscape:guide-bbox="true" />
  <metadata
     id="metadata7">
    <rdf:RDF>
      <cc:Work
         rdf:about="">
        <dc:format>image/svg+xml</dc:format>
        <dc:type
           rdf:resource="http://purl.org/dc/dcmitype/StillImage" />
        <dc:title />
        <dc:creator>
          <cc:Agent>
            <dc:title>Jorge Rosa</dc:title>
          </cc:Agent>
        </dc:creator>
        <dc:description>Email: jorge.bigarte@gmail.com
Site:https://sites.google.com/site/jorgerosaportfolio</dc:description>
      </cc:Work>
    </rdf:RDF>
  </metadata>
  <g
     inkscape:label="Layer 1"
     inkscape:groupmode="layer"
     id="layer1"
     transform="translate(0,-1017.3622)">
    <g
       id="g4170">
      <rect
         y="1018.3622"
         x="0"
         height="33"
         width="40"
         id="rect4183"
         style="opacity:1;fill:url(#radialGradient4196);fill-opacity:1;stroke:none;stroke-width:1.114061;stroke-linecap:round;stroke-linejoin:round;stroke-miterlimit:4;stroke-dasharray:none;stroke-dashoffset:0;stroke-opacity:1" />
      <path
         style="color:#000000;font-style:normal;font-variant:normal;font-weight:normal;font-stretch:normal;font-size:medium;line-height:normal;font-family:sans-serif;font-variant-ligatures:normal;font-variant-position:normal;font-variant-caps:normal;font-variant-numeric:normal;font-variant-alternates:normal;font-feature-settings:normal;text-indent:0;text-align:start;text-decoration:none;text-decoration-line:none;text-decoration-style:solid;text-decoration-color:#000000;letter-spacing:normal;word-spacing:normal;text-transform:none;writing-mode:lr-tb;direction:ltr;text-orientation:mixed;dominant-baseline:auto;baseline-shift:baseline;text-anchor:start;white-space:normal;shape-padding:0;clip-rule:nonzero;display:inline;overflow:visible;visibility:visible;opacity:0.5;isolation:auto;mix-blend-mode:normal;color-interpolation:sRGB;color-interpolation-filters:linearRGB;solid-color:#000000;solid-opacity:1;vector-effect:none;fill:#ccaaff;fill-opacity:1;fill-rule:evenodd;stroke:none;stroke-width:1.00766015;stroke-linecap:butt;stroke-linejoin:miter;stroke-miterlimit:4;stroke-dasharray:none;stroke-dashoffset:0;stroke-opacity:1;color-rendering:auto;image-rendering:auto;shape-rendering:auto;text-rendering:auto;enable-background:accumulate"
         d="M 26.398438 21.640625 L 26.398438 24.796875 L 13.601562 24.796875 L 13.601562 21.679688 L 10.298828 25.570312 L 13.601562 28.996094 L 13.601562 25.804688 L 26.398438 25.804688 L 26.398438 28.958984 L 29.701172 25.533203 L 26.398438 21.640625 z "
         id="path4171"
         transform="translate(0,1017.3622)" />
      <path
         style="opacity:0.5;fill:#ccaaff;fill-opacity:1;stroke:none;stroke-width:1.00699306;stroke-miterlimit:4;stroke-dasharray:none;stroke-opacity:1"
         d="m 20,1026.911 a 5.9508138,5.9508138 0 0 0 -5.951172,5.9511 A 5.9508138,5.9508138 0 0 0 20,1038.8133 5.9508138,5.9508138 0 0 0 25.951172,1032.8621 5.9508138,5.9508138 0 0 0 20,1026.911 Z m -0.341797,1.5781 c 0.399298,0 0.754867,0.049 1.066406,0.1504 0.311541,0.1009 0.574056,0.2483 0.789063,0.4414 0.215007,0.1887 0.380055,0.4193 0.49414,0.6914 0.114085,0.2677 0.169922,0.5718 0.169922,0.9141 0,0.2457 -0.04163,0.4764 -0.125,0.6914 -0.07898,0.2106 -0.187712,0.4045 -0.328125,0.58 -0.140413,0.1712 -0.310358,0.3216 -0.507813,0.4532 -0.193067,0.1316 -0.402688,0.2389 -0.630859,0.3222 0.2896,0.053 0.550645,0.1394 0.783203,0.2578 0.236948,0.1185 0.43873,0.2625 0.605469,0.4336 0.171129,0.1712 0.300915,0.3651 0.388672,0.5801 0.09215,0.215 0.136719,0.4423 0.136719,0.6836 0,0.3861 -0.072,0.7368 -0.216797,1.0527 -0.140413,0.3116 -0.342195,0.579 -0.605469,0.8028 -0.258886,0.2194 -0.569398,0.3907 -0.933594,0.5136 -0.359807,0.1184 -0.760429,0.1778 -1.199218,0.1778 -0.390523,0 -0.760297,-0.04 -1.111329,-0.1192 -0.346644,-0.083 -0.659108,-0.2082 -0.935547,-0.375 v -1.2031 c 0.153578,0.1053 0.318626,0.2013 0.494141,0.2891 0.175516,0.083 0.351828,0.1552 0.527344,0.2168 0.175516,0.057 0.344979,0.1038 0.511719,0.1386 0.171128,0.031 0.329808,0.045 0.474609,0.045 0.566039,0 0.980867,-0.1313 1.244141,-0.3946 0.267661,-0.2676 0.402343,-0.6296 0.402343,-1.0859 0,-0.2282 -0.05142,-0.43 -0.152343,-0.6055 -0.09653,-0.1755 -0.237584,-0.3229 -0.421875,-0.4414 -0.179904,-0.1228 -0.394422,-0.2139 -0.644532,-0.2754 -0.25011,-0.061 -0.525361,-0.092 -0.828125,-0.092 h -0.632812 v -1.08 H 18.875 c 0.337868,0 0.630749,-0.037 0.880859,-0.1114 0.250111,-0.079 0.456789,-0.1847 0.619141,-0.3164 0.16674,-0.1316 0.290158,-0.2869 0.36914,-0.4668 0.08337,-0.1799 0.125,-0.3739 0.125,-0.58 0,-0.2239 -0.03526,-0.4144 -0.105468,-0.5723 -0.06582,-0.1581 -0.158873,-0.2878 -0.277344,-0.3887 -0.118474,-0.1008 -0.257569,-0.1728 -0.419922,-0.2168 -0.162351,-0.048 -0.340136,-0.072 -0.533203,-0.072 -0.12725,0 -0.273195,0.016 -0.435547,0.047 -0.157965,0.031 -0.324485,0.075 -0.5,0.1367 -0.175515,0.057 -0.353299,0.1279 -0.533203,0.211 -0.175516,0.079 -0.342036,0.1721 -0.5,0.2773 v -1.1465 c 0.315928,-0.1974 0.647496,-0.34 0.99414,-0.4277 0.351032,-0.092 0.717862,-0.1367 1.09961,-0.1367 z"
         id="path4518-3-5"
         inkscape:connector-curvature="0" />
      <g
         id="g4717"
         style="opacity:0.5">
        <path
           style="fill:none;fill-rule:evenodd;stroke:#000000;stroke-width:0.36310941;stroke-linecap:butt;stroke-linejoin:miter;stroke-miterlimit:4;stroke-dasharray:none;stroke-opacity:1"
           d="M 2.860872e-6,1037.7931 H 40.000002"
           id="path5581-04"
           inkscape:connector-curvature="0" />
        <path
           style="fill:none;fill-rule:evenodd;stroke:#000000;stroke-width:0.36310941;stroke-linecap:butt;stroke-linejoin:miter;stroke-miterlimit:4;stroke-dasharray:none;stroke-opacity:1"
           d="M 2.860872e-6,1039.747 H 40.000002"
           id="path5581-0-5"
           inkscape:connector-curvature="0" />
        <path
           style="fill:none;fill-rule:evenodd;stroke:#000000;stroke-width:0.36310941;stroke-linecap:butt;stroke-linejoin:miter;stroke-miterlimit:4;stroke-dasharray:none;stroke-opacity:1"
           d="M 2.860872e-6,1041.7009 H 40.000002"
           id="path5581-9-0"
           inkscape:connector-curvature="0" />
        <path
           style="fill:none;fill-rule:evenodd;stroke:#000000;stroke-width:0.36310941;stroke-linecap:butt;stroke-linejoin:miter;stroke-miterlimit:4;stroke-dasharray:none;stroke-opacity:1"
           d="M 2.860872e-6,1043.6548 H 40.000002"
           id="path5581-1-2"
           inkscape:connector-curvature="0" />
        <path
           style="fill:none;fill-rule:evenodd;stroke:#000000;stroke-width:0.36310941;stroke-linecap:butt;stroke-linejoin:miter;stroke-miterlimit:4;stroke-dasharray:none;stroke-opacity:1"
           d="M 2.860872e-6,1045.6087 H 40.000002"
           id="path5581-8-9"
           inkscape:connector-curvature="0" />
        <path
           style="fill:none;fill-rule:evenodd;stroke:#000000;stroke-width:0.36310941;stroke-linecap:butt;stroke-linejoin:miter;stroke-miterlimit:4;stroke-dasharray:none;stroke-opacity:1"
           d="M 2.860872e-6,1047.5626 H 40.000002"
           id="path5581-01-2"
           inkscape:connector-curvature="0" />
        <path
           style="fill:none;fill-rule:evenodd;stroke:#000000;stroke-width:0.36310941;stroke-linecap:butt;stroke-linejoin:miter;stroke-miterlimit:4;stroke-dasharray:none;stroke-opacity:1"
           d="M 2.860872e-6,1049.5165 H 40.000002"
           id="path5581-3-2"
           inkscape:connector-curvature="0" />
        <path
           style="fill:none;fill-rule:evenodd;stroke:#000000;stroke-width:0.36310941;stroke-linecap:butt;stroke-linejoin:miter;stroke-miterlimit:4;stroke-dasharray:none;stroke-opacity:1"
           d="M 2.860872e-6,1020.2079 H 40.000002"
           id="path5581-82-44-4"
           inkscape:connector-curvature="0" />
        <path
           style="fill:none;fill-rule:evenodd;stroke:#000000;stroke-width:0.36310941;stroke-linecap:butt;stroke-linejoin:miter;stroke-miterlimit:4;stroke-dasharray:none;stroke-opacity:1"
           d="M 2.860872e-6,1022.1617 H 40.000002"
           id="path5581-82-99-7"
           inkscape:connector-curvature="0" />
        <path
           style="fill:none;fill-rule:evenodd;stroke:#000000;stroke-width:0.36310941;stroke-linecap:butt;stroke-linejoin:miter;stroke-miterlimit:4;stroke-dasharray:none;stroke-opacity:1"
           d="M 2.860872e-6,1024.1157 H 40.000002"
           id="path5581-82-74-0"
           inkscape:connector-curvature="0" />
        <path
           style="fill:none;fill-rule:evenodd;stroke:#000000;stroke-width:0.36310941;stroke-linecap:butt;stroke-linejoin:miter;stroke-miterlimit:4;stroke-dasharray:none;stroke-opacity:1"
           d="M 2.860872e-6,1026.0696 H 40.000002"
           id="path5581-82-38-3"
           inkscape:connector-curvature="0" />
        <path
           style="fill:none;fill-rule:evenodd;stroke:#000000;stroke-width:0.36310941;stroke-linecap:butt;stroke-linejoin:miter;stroke-miterlimit:4;stroke-dasharray:none;stroke-opacity:1"
           d="M 2.860872e-6,1028.0235 H 40.000002"
           id="path5581-82-11-2"
           inkscape:connector-curvature="0" />
        <path
           style="fill:none;fill-rule:evenodd;stroke:#000000;stroke-width:0.36310941;stroke-linecap:butt;stroke-linejoin:miter;stroke-miterlimit:4;stroke-dasharray:none;stroke-opacity:1"
           d="M 2.860872e-6,1029.9774 H 40.000002"
           id="path5581-82-90-5"
           inkscape:connector-curvature="0" />
        <path
           style="fill:none;fill-rule:evenodd;stroke:#000000;stroke-width:0.36310941;stroke-linecap:butt;stroke-linejoin:miter;stroke-miterlimit:4;stroke-dasharray:none;stroke-opacity:1"
           d="M 2.860872e-6,1031.9313 H 40.000002"
           id="path5581-82-8-9"
           inkscape:connector-curvature="0" />
        <path
           style="fill:none;fill-rule:evenodd;stroke:#000000;stroke-width:0.36310941;stroke-linecap:butt;stroke-linejoin:miter;stroke-miterlimit:4;stroke-dasharray:none;stroke-opacity:1"
           d="M 2.860872e-6,1033.8853 H 40.000002"
           id="path5581-82-46-6"
           inkscape:connector-curvature="0" />
        <path
           style="fill:none;fill-rule:evenodd;stroke:#000000;stroke-width:0.36310941;stroke-linecap:butt;stroke-linejoin:miter;stroke-miterlimit:4;stroke-dasharray:none;stroke-opacity:1"
           d="M 2.860872e-6,1035.8391 H 40.000002"
           id="path5581-82-40-5"
           inkscape:connector-curvature="0" />
      </g>
    </g>
  </g>
</svg>
