<?xml version="1.0" encoding="UTF-8" standalone="no"?>
<!-- Created with Inkscape (http://www.inkscape.org/) -->

<svg
   xmlns:dc="http://purl.org/dc/elements/1.1/"
   xmlns:cc="http://creativecommons.org/ns#"
   xmlns:rdf="http://www.w3.org/1999/02/22-rdf-syntax-ns#"
   xmlns:svg="http://www.w3.org/2000/svg"
   xmlns="http://www.w3.org/2000/svg"
   xmlns:xlink="http://www.w3.org/1999/xlink"
   xmlns:sodipodi="http://sodipodi.sourceforge.net/DTD/sodipodi-0.dtd"
   xmlns:inkscape="http://www.inkscape.org/namespaces/inkscape"
   width="56"
   height="18"
   viewBox="0 0 56 18"
   id="svg2"
   version="1.1"
   inkscape:version="0.92.1 r15371"
   sodipodi:docname="btn_sync_small2_pressed.svg">
  <defs
     id="defs4">
    <linearGradient
       inkscape:collect="always"
       id="linearGradient4164">
      <stop
         style="stop-color:#8d5fd3;stop-opacity:1"
         offset="0"
         id="stop4166" />
      <stop
         style="stop-color:#000000;stop-opacity:1"
         offset="1"
         id="stop4168" />
    </linearGradient>
    <radialGradient
       inkscape:collect="always"
       xlink:href="#linearGradient4164"
       id="radialGradient4170"
       cx="9"
       cy="1043.3622"
       fx="9"
       fy="1043.3622"
       r="7.2643147"
       gradientUnits="userSpaceOnUse"
       gradientTransform="matrix(2.36032,9.0804253e-6,-6.695944e-6,2.7947044,-12.235885,-1872.5269)" />
    <pattern
       y="0"
       x="0"
       height="6"
       width="6"
       patternUnits="userSpaceOnUse"
       id="EMFhbasepattern" />
    <pattern
       y="0"
       x="0"
       height="6"
       width="6"
       patternUnits="userSpaceOnUse"
       id="EMFhbasepattern-5" />
  </defs>
  <sodipodi:namedview
     id="base"
     pagecolor="#ffffff"
     bordercolor="#666666"
     borderopacity="1.0"
     inkscape:pageopacity="0.0"
     inkscape:pageshadow="2"
     inkscape:zoom="8.0143239"
     inkscape:cx="-39.948429"
     inkscape:cy="0.88204726"
     inkscape:document-units="px"
     inkscape:current-layer="layer1"
     showgrid="false"
     units="px"
     inkscape:window-width="1920"
     inkscape:window-height="1028"
     inkscape:window-x="-8"
     inkscape:window-y="-8"
     inkscape:window-maximized="1" />
  <metadata
     id="metadata7">
    <rdf:RDF>
      <cc:Work
         rdf:about="">
        <dc:format>image/svg+xml</dc:format>
        <dc:type
           rdf:resource="http://purl.org/dc/dcmitype/StillImage" />
        <dc:title />
      </cc:Work>
    </rdf:RDF>
  </metadata>
  <g
     inkscape:label="Layer 1"
     inkscape:groupmode="layer"
     id="layer1"
     transform="translate(0,-1034.3622)">
    <rect
       style="opacity:1;fill:url(#radialGradient4170);fill-opacity:1;stroke:none;stroke-width:0.5;stroke-linecap:round;stroke-linejoin:round;stroke-miterlimit:4;stroke-dasharray:none;stroke-opacity:1"
       id="rect4162"
       width="12"
       height="16.5"
       x="3"
       y="1035.1122" />
    <path
       id="path4503"
       d="m 10.119992,1041.6822 c 0,-0.16 -0.08,-0.32 -0.08,-0.48 -0.08,-0.16 -0.239999,-0.32 -0.399997,-0.4 -0.08,-0.08 -0.319998,-0.16 -0.559996,-0.16 -0.239999,-0.08 -0.479997,-0.08 -0.799994,-0.08 H 7.880008 v 2.56 h 0.319997 c 0.639995,0 1.039992,-0.16 1.43999,-0.4 0.319997,-0.24 0.479996,-0.56 0.479997,-1.04 z m 1.199991,-0.08 c 0,0.4 -0.08,0.72 -0.239998,1.04 -0.159999,0.32 -0.319998,0.56 -0.639996,0.8 -0.239998,0.16 -0.639995,0.4 -1.039992,0.48 -0.479997,0.16 -0.959993,0.16 -1.519989,0.16 v 3.1199 H 6.680017 v -7.6799 h 1.599988 c 0.399997,0 0.799994,0.08 1.199991,0.16 0.399997,0 0.719995,0.16 0.959993,0.32 0.319998,0.16 0.479997,0.4 0.639996,0.64 0.159998,0.24 0.239998,0.56 0.239998,0.96 z"
       style="fill:#e5d5ff;fill-opacity:1;fill-rule:nonzero;stroke:none"
       inkscape:connector-curvature="0" />
  </g>
</svg>
