<?xml version="1.0" encoding="UTF-8" standalone="no"?>
<!-- Created with Inkscape (http://www.inkscape.org/) -->

<svg
   xmlns:dc="http://purl.org/dc/elements/1.1/"
   xmlns:cc="http://creativecommons.org/ns#"
   xmlns:rdf="http://www.w3.org/1999/02/22-rdf-syntax-ns#"
   xmlns:svg="http://www.w3.org/2000/svg"
   xmlns="http://www.w3.org/2000/svg"
   xmlns:xlink="http://www.w3.org/1999/xlink"
   xmlns:sodipodi="http://sodipodi.sourceforge.net/DTD/sodipodi-0.dtd"
   xmlns:inkscape="http://www.inkscape.org/namespaces/inkscape"
   width="26"
   height="26"
   viewBox="0 0 26 26"
   id="svg2"
   version="1.1"
   inkscape:version="0.92.1 r15371"
   sodipodi:docname="btn_headphones_2.svg">
  <defs
     id="defs4">
    <radialGradient
       inkscape:collect="always"
       xlink:href="#linearGradient4733"
       id="radialGradient4725-4-0"
       cx="768.05133"
       cy="166.46361"
       fx="768.05133"
       fy="166.46335"
       r="24.596836"
       gradientTransform="matrix(0.44745756,3.6675702e-8,8.8228485e-6,0.42757492,-330.69997,966.33678)"
       gradientUnits="userSpaceOnUse" />
    <linearGradient
       inkscape:collect="always"
       id="linearGradient4733">
      <stop
         style="stop-color:#0d011e;stop-opacity:1"
         offset="0"
         id="stop4735" />
      <stop
         style="stop-color:#000000;stop-opacity:1"
         offset="1"
         id="stop4737" />
    </linearGradient>
    <pattern
       y="0"
       x="0"
       height="6"
       width="6"
       patternUnits="userSpaceOnUse"
       id="EMFhbasepattern" />
    <pattern
       y="0"
       x="0"
       height="6"
       width="6"
       patternUnits="userSpaceOnUse"
       id="EMFhbasepattern-8" />
  </defs>
  <sodipodi:namedview
     id="base"
     pagecolor="#ffffff"
     bordercolor="#666666"
     borderopacity="1.0"
     inkscape:pageopacity="0.0"
     inkscape:pageshadow="2"
     inkscape:zoom="14.481547"
     inkscape:cx="-2.6537381"
     inkscape:cy="14.048337"
     inkscape:document-units="px"
     inkscape:current-layer="layer1"
     showgrid="false"
     units="px"
     inkscape:window-width="1920"
     inkscape:window-height="1028"
     inkscape:window-x="-8"
     inkscape:window-y="-8"
     inkscape:window-maximized="1"
     showguides="false" />
  <metadata
     id="metadata7">
    <rdf:RDF>
      <cc:Work
         rdf:about="">
        <dc:format>image/svg+xml</dc:format>
        <dc:type
           rdf:resource="http://purl.org/dc/dcmitype/StillImage" />
        <dc:title />
        <dc:creator>
          <cc:Agent>
            <dc:title>Jorge Rosa</dc:title>
          </cc:Agent>
        </dc:creator>
        <dc:description>Email: jorge.bigarte@gmail.com
Site:https://sites.google.com/site/jorgerosaportfolio</dc:description>
      </cc:Work>
    </rdf:RDF>
  </metadata>
  <g
     inkscape:label="Layer 1"
     inkscape:groupmode="layer"
     id="layer1"
     transform="translate(0,-1026.3622)">
    <rect
       style="opacity:0.85900005;fill:none;fill-opacity:1;stroke:#000000;stroke-width:1.00554919;stroke-linecap:round;stroke-linejoin:round;stroke-miterlimit:4;stroke-dasharray:none;stroke-dashoffset:0;stroke-opacity:1"
       id="rect4183-39-0-0-1-8-7"
       width="21.800676"
       height="21.989141"
       x="1.9159683"
       y="1027.9684" />
    <rect
       style="opacity:1;fill:url(#radialGradient4725-4-0);fill-opacity:1;stroke:none;stroke-width:1.02858019;stroke-linecap:round;stroke-linejoin:round;stroke-miterlimit:4;stroke-dasharray:none;stroke-dashoffset:0;stroke-opacity:1"
       id="rect4183-39-0-0-1-8"
       width="22.705778"
       height="22.090797"
       x="1.4634174"
       y="1027.0566" />
    <rect
       style="opacity:1;fill:none;fill-opacity:1;stroke:#1a1a1a;stroke-width:1.02858019;stroke-linecap:round;stroke-linejoin:round;stroke-miterlimit:4;stroke-dasharray:none;stroke-dashoffset:0;stroke-opacity:1"
       id="rect4183-39-0-0-1-8-78"
       width="22.705778"
       height="22.090797"
       x="1.4634174"
       y="-1049.0441"
       transform="scale(1,-1)" />
    <path
       id="path823"
       d="m 8.4840845,1033.8592 c 0,0 0,0 0,0 -0.8221726,0.8222 -1.3281256,2.9094 -1.39137,4.2372 -0.063245,1.0753 1.4546145,2.846 1.7075905,3.5418 0.5059539,1.8973 0.6956855,1.8973 1.897324,1.9606 1.138394,0.063 1.454616,-0.8222 1.454616,-1.5178 v -2.7197 c 0,-0.6956 -0.505953,-1.2015 -1.011907,-1.2649 -3.6049158,0.063 -1.075152,4.5538 -3.3519381,0.4428 0.1264881,-3.0357 1.0751487,-3.4151 2.9092291,-3.7946 1.581104,-0.2531 2.719497,-0.1897 4.237356,0 1.897323,0.253 2.909228,0.8854 2.909228,3.7946 -2.213543,3.7947 0.189732,-0.4428 -3.351937,-0.4428 -0.505953,0.063 -1.011906,0.5693 -1.011906,1.2649 v 2.7197 c 0,0.6956 0.31622,1.5178 1.454615,1.5178 1.201637,0 1.454614,-0.1265 1.897323,-1.9606 0.252976,-0.6958 1.770835,-2.4665 1.707591,-3.5418 -0.06325,-1.3278 -0.379466,-3.415 -1.264882,-4.2372 0,0 0,0 0,0 -2.340032,-1.7076 -6.577388,-1.6444 -8.7909325,0 z"
       style="opacity:0.6;fill:#8d5fd3;fill-opacity:1;fill-rule:nonzero;stroke:none;stroke-width:0.79055721"
       inkscape:connector-curvature="0" />
  </g>
</svg>
