<?xml version="1.0" encoding="UTF-8" standalone="no"?>
<!-- Created with Inkscape (http://www.inkscape.org/) -->

<svg
   xmlns:dc="http://purl.org/dc/elements/1.1/"
   xmlns:cc="http://creativecommons.org/ns#"
   xmlns:rdf="http://www.w3.org/1999/02/22-rdf-syntax-ns#"
   xmlns:svg="http://www.w3.org/2000/svg"
   xmlns="http://www.w3.org/2000/svg"
   xmlns:xlink="http://www.w3.org/1999/xlink"
   xmlns:sodipodi="http://sodipodi.sourceforge.net/DTD/sodipodi-0.dtd"
   xmlns:inkscape="http://www.inkscape.org/namespaces/inkscape"
   width="26"
   height="26"
   viewBox="0 0 26 26"
   id="svg2"
   version="1.1"
   inkscape:version="0.91 r13725"
   sodipodi:docname="btn_beatloop_0250.svg">
  <defs
     id="defs4">
    <linearGradient
       inkscape:collect="always"
       id="linearGradient4733">
      <stop
         style="stop-color:#170b28;stop-opacity:1"
         offset="0"
         id="stop4735" />
      <stop
         style="stop-color:#000000;stop-opacity:1"
         offset="1"
         id="stop4737" />
    </linearGradient>
    <radialGradient
       inkscape:collect="always"
       xlink:href="#linearGradient4733"
       id="radialGradient4725-4-0-0"
       cx="767.58649"
       cy="166.65605"
       fx="767.58649"
       fy="166.65579"
       r="24.596836"
       gradientTransform="matrix(0.47270302,4.4855487e-8,9.812085e-6,0.43879826,-383.28702,964.42403)"
       gradientUnits="userSpaceOnUse" />
    <pattern
       y="0"
       x="0"
       height="6"
       width="6"
       patternUnits="userSpaceOnUse"
       id="EMFhbasepattern" />
  </defs>
  <sodipodi:namedview
     id="base"
     pagecolor="#ffffff"
     bordercolor="#666666"
     borderopacity="1.0"
     inkscape:pageopacity="0.0"
     inkscape:pageshadow="2"
     inkscape:zoom="14.481547"
     inkscape:cx="14.566632"
     inkscape:cy="12.13013"
     inkscape:document-units="px"
     inkscape:current-layer="g4199"
     showgrid="false"
     units="px"
     inkscape:window-width="1920"
     inkscape:window-height="1028"
     inkscape:window-x="-8"
     inkscape:window-y="-8"
     inkscape:window-maximized="1"
     showguides="false" />
  <metadata
     id="metadata7">
    <rdf:RDF>
      <cc:Work
         rdf:about="">
        <dc:format>image/svg+xml</dc:format>
        <dc:type
           rdf:resource="http://purl.org/dc/dcmitype/StillImage" />
        <dc:title />
        <dc:creator>
          <cc:Agent>
            <dc:title>Jorge Rosa</dc:title>
          </cc:Agent>
        </dc:creator>
        <dc:description>Email: jorge.bigarte@gmail.com
Site:https://sites.google.com/site/jorgerosaportfolio</dc:description>
      </cc:Work>
    </rdf:RDF>
  </metadata>
  <g
     inkscape:label="Layer 1"
     inkscape:groupmode="layer"
     id="layer1"
     transform="translate(0,-1026.3622)">
    <g
       id="g5353"
       transform="translate(32.889932,-0.0690533)">
      <g
         id="g4199"
         transform="translate(0.22725455,0.04451953)">
        <rect
           style="opacity:0.85900005;fill:none;fill-opacity:1;stroke:#000000;stroke-width:1.00554919;stroke-linecap:round;stroke-linejoin:round;stroke-miterlimit:4;stroke-dasharray:none;stroke-dashoffset:0;stroke-opacity:1"
           id="rect4183-39-0-0-1-8-7-0"
           width="21.800676"
           height="21.989141"
           x="-31.017525"
           y="1027.9161" />
        <rect
           style="opacity:1;fill:url(#radialGradient4725-4-0-0);fill-opacity:1;stroke:none;stroke-width:1.02858019;stroke-linecap:round;stroke-linejoin:round;stroke-miterlimit:4;stroke-dasharray:none;stroke-dashoffset:0;stroke-opacity:1"
           id="rect4183-39-0-0-1-8-1"
           width="22.705778"
           height="22.090797"
           x="-31.470076"
           y="1027.0044" />
        <rect
           style="opacity:1;fill:none;fill-opacity:1;stroke:#1a1a1a;stroke-width:1.02858019;stroke-linecap:round;stroke-linejoin:round;stroke-miterlimit:4;stroke-dasharray:none;stroke-dashoffset:0;stroke-opacity:1"
           id="rect4183-39-0-0-1-8-78-5"
           width="22.705778"
           height="22.090797"
           x="-31.470076"
           y="-1048.9918"
           transform="scale(1,-1)" />
        <g
           id="text4937-7"
           style="font-style:normal;font-variant:normal;font-weight:normal;font-stretch:normal;font-size:14.22179031px;line-height:100%;font-family:'Estrangelo Edessa';-inkscape-font-specification:'Estrangelo Edessa, Normal';text-align:center;letter-spacing:0px;word-spacing:0px;writing-mode:lr-tb;text-anchor:middle;opacity:0.75499998;fill:#8d5fd3;fill-opacity:1;stroke:none;stroke-width:0.5;stroke-linecap:butt;stroke-linejoin:miter;stroke-miterlimit:4;stroke-dasharray:none;stroke-opacity:1">
          <path
             id="path4160"
             style="fill:#8d5fd3;fill-opacity:1"
             d="m -24.615482,1042.5225 -1.333293,0 0,-7.2984 q -0.111108,0.097 -0.243048,0.2083 -0.124996,0.1042 -0.243048,0.1944 l -1.749947,1.25 0,-1.3263 2.715195,-2.0417 0.854141,0 0,9.0137 z"
             inkscape:connector-curvature="0" />
          <path
             id="path4162"
             style="fill:#8d5fd3;fill-opacity:1"
             d="m -19.664244,1042.5225 -1.368014,0 0,-8.9859 1.368014,0 0,8.9859 z"
             inkscape:connector-curvature="0" />
          <path
             id="path4164"
             style="fill:#8d5fd3;fill-opacity:1"
             d="m -14.21302,1039.1545 0,-3.4721 q 0,-0.097 0,-0.2153 0,-0.125 0.01389,-0.2569 -0.03472,0.035 -0.04861,0.076 -0.01389,0.035 -0.04861,0.069 -0.104164,0.1042 -0.284714,0.3194 -0.18055,0.2153 -0.402765,0.507 -0.215271,0.2916 -0.465264,0.6458 -0.243048,0.3541 -0.479152,0.743 -0.22916,0.3889 -0.437487,0.7917 -0.208327,0.4027 -0.3611,0.7916 l 2.513813,0 z m 2.617976,1.0486 -1.291628,0 0,2.3194 -1.326348,0 0,-2.3194 -3.798496,0 -0.08333,-0.4097 q 0.07639,-0.4375 0.326379,-1.0069 0.256937,-0.5695 0.618037,-1.1875 0.3611,-0.618 0.791643,-1.243 0.437486,-0.625 0.868029,-1.1736 0.437487,-0.5555 0.833308,-0.993 0.402765,-0.4375 0.701367,-0.6806 l 1.069412,0 0,5.6457 1.291628,0 0,1.0486 z"
             inkscape:connector-curvature="0" />
        </g>
      </g>
    </g>
  </g>
</svg>
