<?xml version="1.0" encoding="UTF-8" standalone="no"?>
<!-- Created with Inkscape (http://www.inkscape.org/) -->

<svg
   xmlns:dc="http://purl.org/dc/elements/1.1/"
   xmlns:cc="http://creativecommons.org/ns#"
   xmlns:rdf="http://www.w3.org/1999/02/22-rdf-syntax-ns#"
   xmlns:svg="http://www.w3.org/2000/svg"
   xmlns="http://www.w3.org/2000/svg"
   xmlns:xlink="http://www.w3.org/1999/xlink"
   xmlns:sodipodi="http://sodipodi.sourceforge.net/DTD/sodipodi-0.dtd"
   xmlns:inkscape="http://www.inkscape.org/namespaces/inkscape"
   width="26"
   height="26"
   viewBox="0 0 26 26"
   id="svg2"
   version="1.1"
   inkscape:version="0.91 r13725"
   sodipodi:docname="btn_beatloop_8_over.svg">
  <defs
     id="defs4">
    <radialGradient
       inkscape:collect="always"
       xlink:href="#linearGradient4733"
       id="radialGradient4725-4-0"
       cx="768.05133"
       cy="166.21365"
       fx="768.05133"
       fy="166.21339"
       r="24.596836"
       gradientTransform="matrix(0.75396107,-1.7147467e-7,3.2617546e-5,0.63069157,-565.93066,932.55673)"
       gradientUnits="userSpaceOnUse" />
    <linearGradient
       inkscape:collect="always"
       id="linearGradient4733">
      <stop
         style="stop-color:#8d5fd3;stop-opacity:1"
         offset="0"
         id="stop4735" />
      <stop
         style="stop-color:#000000;stop-opacity:1"
         offset="1"
         id="stop4737" />
    </linearGradient>
    <pattern
       y="0"
       x="0"
       height="6"
       width="6"
       patternUnits="userSpaceOnUse"
       id="EMFhbasepattern" />
  </defs>
  <sodipodi:namedview
     id="base"
     pagecolor="#ffffff"
     bordercolor="#666666"
     borderopacity="1.0"
     inkscape:pageopacity="0.0"
     inkscape:pageshadow="2"
     inkscape:zoom="10.24"
     inkscape:cx="6.8722622"
     inkscape:cy="16.033043"
     inkscape:document-units="px"
     inkscape:current-layer="g5360"
     showgrid="false"
     units="px"
     inkscape:window-width="1920"
     inkscape:window-height="1028"
     inkscape:window-x="-8"
     inkscape:window-y="-8"
     inkscape:window-maximized="1"
     showguides="false" />
  <metadata
     id="metadata7">
    <rdf:RDF>
      <cc:Work
         rdf:about="">
        <dc:format>image/svg+xml</dc:format>
        <dc:type
           rdf:resource="http://purl.org/dc/dcmitype/StillImage" />
        <dc:title />
        <dc:creator>
          <cc:Agent>
            <dc:title>Jorge Rosa</dc:title>
          </cc:Agent>
        </dc:creator>
        <dc:description>Email: jorge.bigarte@gmail.com
Site:https://sites.google.com/site/jorgerosaportfolio</dc:description>
      </cc:Work>
    </rdf:RDF>
  </metadata>
  <g
     inkscape:label="Layer 1"
     inkscape:groupmode="layer"
     id="layer1"
     transform="translate(0,-1026.3622)">
    <g
       id="g5346"
       transform="translate(-0.1464852,-0.04882811)">
      <g
         id="g5360">
        <rect
           style="opacity:0.85900005;fill:none;fill-opacity:1;stroke:#000000;stroke-width:1.00554919;stroke-linecap:round;stroke-linejoin:round;stroke-miterlimit:4;stroke-dasharray:none;stroke-dashoffset:0;stroke-opacity:1"
           id="rect4183-39-0-0-1-8-7"
           width="21.800676"
           height="21.989141"
           x="2.0996618"
           y="1027.9684" />
        <rect
           style="opacity:1;fill:url(#radialGradient4725-4-0);fill-opacity:1;stroke:none;stroke-width:1.02858019;stroke-linecap:round;stroke-linejoin:round;stroke-miterlimit:4;stroke-dasharray:none;stroke-dashoffset:0;stroke-opacity:1"
           id="rect4183-39-0-0-1-8"
           width="22.705778"
           height="22.090797"
           x="1.6471109"
           y="1027.0566" />
        <rect
           style="opacity:1;fill:none;fill-opacity:1;stroke:#1a1a1a;stroke-width:1.02858019;stroke-linecap:round;stroke-linejoin:round;stroke-miterlimit:4;stroke-dasharray:none;stroke-dashoffset:0;stroke-opacity:1"
           id="rect4183-39-0-0-1-8-78"
           width="22.705778"
           height="22.090797"
           x="1.6471109"
           y="-1049.0441"
           transform="scale(1,-1)" />
        <g
           style="font-style:normal;font-variant:normal;font-weight:normal;font-stretch:normal;font-size:14.22179031px;line-height:100%;font-family:'Estrangelo Edessa';-inkscape-font-specification:'Estrangelo Edessa, Normal';text-align:center;letter-spacing:0px;word-spacing:0px;writing-mode:lr-tb;text-anchor:middle;opacity:0.75499998;fill:#e5d5ff;fill-opacity:1;stroke:none;stroke-width:0.5;stroke-linecap:butt;stroke-linejoin:miter;stroke-miterlimit:4;stroke-dasharray:none;stroke-opacity:1"
           id="text4937">
          <path
             d="m 14.389503,1035.7763 q 0,-0.2708 -0.09028,-0.493 -0.08333,-0.2292 -0.249992,-0.3889 -0.159717,-0.1597 -0.395821,-0.25 -0.236104,-0.09 -0.527762,-0.09 -0.583316,0 -0.930527,0.3264 -0.347212,0.3194 -0.347212,0.9236 0,0.2708 0.104163,0.5139 0.111108,0.243 0.291658,0.4374 0.18055,0.1945 0.423598,0.3334 0.243049,0.1319 0.513874,0.1944 0.326379,-0.09 0.555538,-0.2361 0.22916,-0.1528 0.374989,-0.3472 0.145829,-0.1945 0.208327,-0.4306 0.06944,-0.2361 0.06944,-0.493 z m 0.298602,4.3401 q 0,-0.2569 -0.07639,-0.5138 -0.07639,-0.257 -0.263881,-0.4792 -0.18055,-0.2291 -0.486096,-0.4097 -0.305547,-0.1875 -0.763866,-0.2916 -0.333323,0.083 -0.604148,0.243 -0.270826,0.1597 -0.465264,0.3819 -0.194439,0.2223 -0.305546,0.5 -0.104164,0.2708 -0.104164,0.5833 0,0.3472 0.111108,0.625 0.111108,0.2778 0.305546,0.4722 0.201383,0.1875 0.479152,0.2917 0.27777,0.1041 0.611093,0.1041 0.374988,0 0.666646,-0.118 0.291658,-0.125 0.486097,-0.3333 0.201382,-0.2084 0.305546,-0.4792 0.104163,-0.2777 0.104163,-0.5764 z m 1.354126,-0.014 q 0,0.5833 -0.222216,1.0624 -0.222215,0.4722 -0.618036,0.8194 -0.388877,0.3403 -0.923583,0.5278 -0.534706,0.1875 -1.152743,0.1875 -0.576372,0 -1.097189,-0.1528 -0.520818,-0.1597 -0.916639,-0.4722 -0.395821,-0.3125 -0.631925,-0.7847 -0.22916,-0.4722 -0.22916,-1.1041 0,-0.8264 0.437487,-1.3889 0.444431,-0.5624 1.229129,-0.9305 -0.31249,-0.1389 -0.576371,-0.3541 -0.263881,-0.2153 -0.45832,-0.4861 -0.187494,-0.2778 -0.298602,-0.6042 -0.104163,-0.3264 -0.104163,-0.6875 0,-0.4999 0.194438,-0.9166 0.194439,-0.4167 0.541651,-0.7153 0.354156,-0.2986 0.840252,-0.4652 0.49304,-0.1667 1.0833,-0.1667 0.562483,0 1.041635,0.1528 0.479152,0.1528 0.826364,0.4444 0.354156,0.2917 0.548595,0.7083 0.201382,0.4167 0.201382,0.9444 0,0.3542 -0.104163,0.6598 -0.09722,0.3055 -0.277769,0.5694 -0.173606,0.2639 -0.423599,0.4861 -0.249992,0.2222 -0.548594,0.4027 0.854141,0.3542 1.243018,0.9028 0.395821,0.5486 0.395821,1.3611 z"
             style="fill:#e5d5ff;fill-opacity:1"
             id="path4160" />
        </g>
      </g>
    </g>
  </g>
</svg>
