<?xml version="1.0" encoding="UTF-8" standalone="no"?>
<!-- Created with Inkscape (http://www.inkscape.org/) -->

<svg
   xmlns:dc="http://purl.org/dc/elements/1.1/"
   xmlns:cc="http://creativecommons.org/ns#"
   xmlns:rdf="http://www.w3.org/1999/02/22-rdf-syntax-ns#"
   xmlns:svg="http://www.w3.org/2000/svg"
   xmlns="http://www.w3.org/2000/svg"
   xmlns:xlink="http://www.w3.org/1999/xlink"
   xmlns:sodipodi="http://sodipodi.sourceforge.net/DTD/sodipodi-0.dtd"
   xmlns:inkscape="http://www.inkscape.org/namespaces/inkscape"
   width="62"
   height="24"
   viewBox="0 0 62 24"
   id="svg2"
   version="1.1"
   inkscape:version="0.92.1 r15371"
   sodipodi:docname="btn_headphones_3_over.svg">
  <defs
     id="defs4">
    <linearGradient
       inkscape:collect="always"
       id="linearGradient4733">
      <stop
         style="stop-color:#8d5fd3;stop-opacity:1"
         offset="0"
         id="stop4735" />
      <stop
         style="stop-color:#000000;stop-opacity:1"
         offset="1"
         id="stop4737" />
    </linearGradient>
    <radialGradient
       inkscape:collect="always"
       xlink:href="#linearGradient4733"
       id="radialGradient4725-4-0-0"
       cx="747.88782"
       cy="151.47568"
       fx="747.88782"
       fy="151.47542"
       r="24.596836"
       gradientTransform="matrix(1.3348141e-4,-2.772139,0.78686592,0,919.85677,2042.5454)"
       gradientUnits="userSpaceOnUse" />
    <pattern
       y="0"
       x="0"
       height="6"
       width="6"
       patternUnits="userSpaceOnUse"
       id="EMFhbasepattern" />
    <pattern
       y="0"
       x="0"
       height="6"
       width="6"
       patternUnits="userSpaceOnUse"
       id="EMFhbasepattern-1" />
  </defs>
  <sodipodi:namedview
     id="base"
     pagecolor="#ffffff"
     bordercolor="#666666"
     borderopacity="1.0"
     inkscape:pageopacity="0.0"
     inkscape:pageshadow="2"
     inkscape:zoom="8.8385907"
     inkscape:cx="-2.307815"
     inkscape:cy="11.552004"
     inkscape:document-units="px"
     inkscape:current-layer="layer1"
     showgrid="false"
     units="px"
     inkscape:window-width="1920"
     inkscape:window-height="1028"
     inkscape:window-x="-8"
     inkscape:window-y="-8"
     inkscape:window-maximized="1"
     showguides="false" />
  <metadata
     id="metadata7">
    <rdf:RDF>
      <cc:Work
         rdf:about="">
        <dc:format>image/svg+xml</dc:format>
        <dc:type
           rdf:resource="http://purl.org/dc/dcmitype/StillImage" />
        <dc:title />
        <dc:creator>
          <cc:Agent>
            <dc:title>Jorge Rosa</dc:title>
          </cc:Agent>
        </dc:creator>
        <dc:description>Email: jorge.bigarte@gmail.com
Site:https://sites.google.com/site/jorgerosaportfolio</dc:description>
      </cc:Work>
    </rdf:RDF>
  </metadata>
  <g
     inkscape:label="Layer 1"
     inkscape:groupmode="layer"
     id="layer1"
     transform="translate(0,-1028.3622)">
    <rect
       style="opacity:1;fill:url(#radialGradient4725-4-0-0);fill-opacity:1;stroke:none;stroke-width:1.02858019;stroke-linecap:round;stroke-linejoin:round;stroke-miterlimit:4;stroke-dasharray:none;stroke-dashoffset:0;stroke-opacity:1"
       id="rect4183-39-0-0-1-8-1"
       width="21.634985"
       height="60.885235"
       x="1028.6736"
       y="-61.442619"
       transform="rotate(90)" />
    <rect
       style="opacity:1;fill:none;fill-opacity:1;stroke:#1a1a1a;stroke-width:1.09218097;stroke-linecap:round;stroke-linejoin:round;stroke-miterlimit:4;stroke-dasharray:none;stroke-dashoffset:0;stroke-opacity:1"
       id="rect4183-39-0-0-1-8-78-5"
       width="21.25198"
       height="60.775974"
       x="1029.0559"
       y="0.57214832"
       transform="matrix(0,1,1,0,0,0)" />
    <path
       id="path823"
       d="m 25.520042,1034.1242 c 0,0 0,0 0,0 -1.039993,1.04 -1.679988,3.68 -1.759987,5.3599 -0.08,1.36 1.839986,3.6 2.159984,4.48 0.639995,2.4 0.879993,2.4 2.399982,2.48 1.439989,0.08 1.839986,-1.04 1.839986,-1.92 v -3.44 c 0,-0.88 -0.639995,-1.52 -1.27999,-1.6 -4.559967,0.08 -1.35999,5.76 -4.239969,0.56 0.159999,-3.8399 1.35999,-4.3199 3.679973,-4.7999 1.999985,-0.32 3.439974,-0.24 5.35996,0 2.399983,0.32 3.679973,1.12 3.679973,4.7999 -2.799979,4.8 0.239998,-0.56 -4.239969,-0.56 -0.639995,0.08 -1.27999,0.72 -1.27999,1.6 v 3.44 c 0,0.88 0.399997,1.92 1.839986,1.92 1.519989,0 1.839987,-0.16 2.399983,-2.48 0.319997,-0.88 2.239983,-3.12 2.159984,-4.48 -0.08,-1.6799 -0.479997,-4.3199 -1.599988,-5.3599 0,0 0,0 0,0 -2.959979,-2.16 -8.319939,-2.08 -11.119918,0 z"
       style="fill:#e5d5ff;fill-opacity:1;fill-rule:nonzero;stroke:none"
       inkscape:connector-curvature="0" />
  </g>
</svg>
