<?xml version="1.0" encoding="UTF-8" standalone="no"?>
<!-- Created with Inkscape (http://www.inkscape.org/) -->

<svg
   xmlns:dc="http://purl.org/dc/elements/1.1/"
   xmlns:cc="http://creativecommons.org/ns#"
   xmlns:rdf="http://www.w3.org/1999/02/22-rdf-syntax-ns#"
   xmlns:svg="http://www.w3.org/2000/svg"
   xmlns="http://www.w3.org/2000/svg"
   xmlns:xlink="http://www.w3.org/1999/xlink"
   xmlns:sodipodi="http://sodipodi.sourceforge.net/DTD/sodipodi-0.dtd"
   xmlns:inkscape="http://www.inkscape.org/namespaces/inkscape"
   width="120"
   height="16"
   viewBox="0 0 120 16"
   id="svg2"
   version="1.1"
   inkscape:version="0.91 r13725"
   sodipodi:docname="btn_vinylcontrol_cueing_hot.svg">
  <defs
     id="defs4">
    <linearGradient
       inkscape:collect="always"
       id="linearGradient4333">
      <stop
         style="stop-color:#8d5fd3;stop-opacity:1"
         offset="0"
         id="stop4335" />
      <stop
         style="stop-color:#000000;stop-opacity:1"
         offset="1"
         id="stop4337" />
    </linearGradient>
    <pattern
       y="0"
       x="0"
       height="6"
       width="6"
       patternUnits="userSpaceOnUse"
       id="EMFhbasepattern" />
    <pattern
       id="EMFhbasepattern-2"
       patternUnits="userSpaceOnUse"
       width="6"
       height="6"
       x="0"
       y="0" />
    <pattern
       y="0"
       x="0"
       height="6"
       width="6"
       patternUnits="userSpaceOnUse"
       id="EMFhbasepattern-9" />
    <radialGradient
       inkscape:collect="always"
       xlink:href="#linearGradient4236"
       id="radialGradient4853-3-1"
       cx="4.0141401"
       cy="1047.9218"
       fx="4.0141401"
       fy="1047.9218"
       r="4.3050094"
       gradientTransform="matrix(5.6120038,0,0,1.8203225,-3.2030332,-864.02516)"
       gradientUnits="userSpaceOnUse" />
    <linearGradient
       id="linearGradient4236"
       inkscape:collect="always">
      <stop
         id="stop4238"
         offset="0"
         style="stop-color:#0d011e;stop-opacity:1" />
      <stop
         id="stop4240"
         offset="1"
         style="stop-color:#000000;stop-opacity:1" />
    </linearGradient>
    <radialGradient
       inkscape:collect="always"
       xlink:href="#linearGradient4242"
       id="radialGradient4853-3-8-9"
       cx="4.0141401"
       cy="1047.9218"
       fx="4.0141401"
       fy="1047.9218"
       r="4.3050094"
       gradientTransform="matrix(5.6120038,0,0,1.8203225,36.778342,-864.02507)"
       gradientUnits="userSpaceOnUse" />
    <linearGradient
       id="linearGradient4242"
       inkscape:collect="always">
      <stop
         id="stop4244"
         offset="0"
         style="stop-color:#0d011e;stop-opacity:1" />
      <stop
         id="stop4246"
         offset="1"
         style="stop-color:#000000;stop-opacity:1" />
    </linearGradient>
    <radialGradient
       inkscape:collect="always"
       xlink:href="#linearGradient4333"
       id="radialGradient4853-3-7-8"
       cx="4.0141401"
       cy="1047.9218"
       fx="4.0141401"
       fy="1047.9218"
       r="4.3050094"
       gradientTransform="matrix(4.4542533,-1.331843e-6,2.2053834e-7,1.627112,81.406861,-661.55567)"
       gradientUnits="userSpaceOnUse" />
    <pattern
       y="0"
       x="0"
       height="6"
       width="6"
       patternUnits="userSpaceOnUse"
       id="EMFhbasepattern-0" />
  </defs>
  <sodipodi:namedview
     id="base"
     pagecolor="#ffffff"
     bordercolor="#666666"
     borderopacity="1.0"
     inkscape:pageopacity="0.0"
     inkscape:pageshadow="2"
     inkscape:zoom="8.5011991"
     inkscape:cx="59.098102"
     inkscape:cy="26.98071"
     inkscape:document-units="px"
     inkscape:current-layer="layer1"
     showgrid="false"
     units="px"
     inkscape:window-width="1920"
     inkscape:window-height="1028"
     inkscape:window-x="-8"
     inkscape:window-y="-8"
     inkscape:window-maximized="1"
     showguides="true"
     inkscape:guide-bbox="true" />
  <metadata
     id="metadata7">
    <rdf:RDF>
      <cc:Work
         rdf:about="">
        <dc:format>image/svg+xml</dc:format>
        <dc:type
           rdf:resource="http://purl.org/dc/dcmitype/StillImage" />
        <dc:title />
        <dc:creator>
          <cc:Agent>
            <dc:title>Jorge Rosa</dc:title>
          </cc:Agent>
        </dc:creator>
        <dc:description>Email: jorge.bigarte@gmail.com
Site:https://sites.google.com/site/jorgerosaportfolio</dc:description>
      </cc:Work>
    </rdf:RDF>
  </metadata>
  <g
     inkscape:label="Layer 1"
     inkscape:groupmode="layer"
     id="layer1"
     transform="translate(0,-1036.3622)">
    <g
       id="g4956"
       transform="matrix(0,0.02442813,-0.02442813,0,15.321547,1036.2396)" />
    <path
       inkscape:connector-curvature="0"
       id="rect4837-7-75"
       d="m -5.2390273e-7,1036.3622 38.64866152390273,0 0,14.3365 -38.64866152390274,0 z"
       style="opacity:1;fill:url(#radialGradient4853-3-1);fill-opacity:1;stroke:none;stroke-width:0.81699997;stroke-linecap:round;stroke-linejoin:round;stroke-miterlimit:4;stroke-dasharray:none;stroke-opacity:1" />
    <path
       inkscape:connector-curvature="0"
       id="rect4837-7-7-6"
       d="m 39.981374,1036.3622 38.648661,0 0,14.3365 -38.648661,0 z"
       style="opacity:1;fill:url(#radialGradient4853-3-8-9);fill-opacity:1;stroke:none;stroke-width:0.81699997;stroke-linecap:round;stroke-linejoin:round;stroke-miterlimit:4;stroke-dasharray:none;stroke-opacity:1" />
    <path
       inkscape:connector-curvature="0"
       id="rect4837-7-2-5"
       d="m 79.962748,1036.3622 38.648662,0 0,14.3365 -38.648662,0 z"
       style="opacity:1;fill:url(#radialGradient4853-3-7-8);fill-opacity:1;stroke:none;stroke-width:0.81699997;stroke-linecap:round;stroke-linejoin:round;stroke-miterlimit:4;stroke-dasharray:none;stroke-opacity:1" />
    <g
       id="g4284"
       transform="translate(-4.2482323,-0.333)">
      <path
         d="m 20.36367,1043.8788 q 0,-0.5301 -0.161065,-0.9478 -0.161064,-0.4223 -0.476997,-0.7142 -0.315934,-0.292 -0.780541,-0.4447 -0.464609,-0.1572 -1.071697,-0.1572 -0.582308,0 -1.059305,0.1661 -0.470804,0.1618 -0.805322,0.4582 -0.334518,0.2965 -0.520361,0.7143 -0.179649,0.4132 -0.179649,0.9163 0,0.5031 0.173455,0.9163 0.173453,0.4133 0.495581,0.7053 0.328323,0.2919 0.786737,0.4536 0.464608,0.1617 1.034527,0.1617 0.607088,0 1.084086,-0.1482 0.476997,-0.1527 0.80532,-0.4357 0.328323,-0.2875 0.501777,-0.7007 0.173454,-0.4177 0.173454,-0.9433 z m 1.251343,-0.094 q 0,0.7052 -0.266374,1.2758 -0.260181,0.5659 -0.755763,0.9657 -0.489387,0.3953 -1.195591,0.6109 -0.706205,0.2111 -1.598252,0.2111 -0.854878,0 -1.548693,-0.2066 -0.693815,-0.2111 -1.183202,-0.5929 -0.489387,-0.3863 -0.755762,-0.9254 -0.266376,-0.539 -0.266376,-1.1993 0,-0.6918 0.26018,-1.2533 0.266376,-0.5659 0.768153,-0.9612 0.501776,-0.3998 1.220369,-0.6154 0.724789,-0.2156 1.641616,-0.2156 0.836294,0 1.517719,0.2111 0.681426,0.2111 1.158423,0.5975 0.483192,0.3817 0.743373,0.9163 0.26018,0.5346 0.26018,1.1813 z"
         style="font-style:normal;font-variant:normal;font-weight:normal;font-stretch:normal;font-size:medium;line-height:100%;font-family:'Estrangelo Edessa';-inkscape-font-specification:'Estrangelo Edessa, Normal';text-align:start;letter-spacing:0px;word-spacing:0px;writing-mode:lr-tb;text-anchor:start;fill:#8d5fd3;fill-opacity:1;stroke:none;stroke-width:1px;stroke-linecap:butt;stroke-linejoin:miter;stroke-opacity:1"
         id="path4198"
         inkscape:connector-curvature="0" />
      <path
         d="m 27.388544,1041.7092 -2.787649,0 0,1.7473 2.800039,0 0,0.7457 -2.800039,0 0,2.5649 -1.20798,0 0,-5.8125 3.995629,0 0,0.7546 z"
         style="font-style:normal;font-variant:normal;font-weight:normal;font-stretch:normal;font-size:medium;line-height:100%;font-family:'Estrangelo Edessa';-inkscape-font-specification:'Estrangelo Edessa, Normal';text-align:start;letter-spacing:0px;word-spacing:0px;writing-mode:lr-tb;text-anchor:start;fill:#8d5fd3;fill-opacity:1;stroke:none;stroke-width:1px;stroke-linecap:butt;stroke-linejoin:miter;stroke-opacity:1"
         id="path4200"
         inkscape:connector-curvature="0" />
      <path
         d="m 33.087735,1041.7092 -2.787648,0 0,1.7473 2.800038,0 0,0.7457 -2.800038,0 0,2.5649 -1.207981,0 0,-5.8125 3.995629,0 0,0.7546 z"
         style="font-style:normal;font-variant:normal;font-weight:normal;font-stretch:normal;font-size:medium;line-height:100%;font-family:'Estrangelo Edessa';-inkscape-font-specification:'Estrangelo Edessa, Normal';text-align:start;letter-spacing:0px;word-spacing:0px;writing-mode:lr-tb;text-anchor:start;fill:#8d5fd3;fill-opacity:1;stroke:none;stroke-width:1px;stroke-linecap:butt;stroke-linejoin:miter;stroke-opacity:1"
         id="path4202"
         inkscape:connector-curvature="0" />
    </g>
    <g
       id="g4289"
       transform="translate(-4.5721565,-0.333)">
      <path
         d="m 58.909656,1043.8788 q 0,-0.5301 -0.161065,-0.9478 -0.161065,-0.4223 -0.476997,-0.7142 -0.315934,-0.292 -0.780542,-0.4447 -0.464608,-0.1572 -1.071697,-0.1572 -0.582308,0 -1.059305,0.1661 -0.470803,0.1618 -0.805321,0.4582 -0.334518,0.2965 -0.520361,0.7143 -0.179648,0.4132 -0.179648,0.9163 0,0.5031 0.173453,0.9163 0.173454,0.4133 0.495582,0.7053 0.328323,0.2919 0.786736,0.4536 0.464608,0.1617 1.034528,0.1617 0.607088,0 1.084085,-0.1482 0.476997,-0.1527 0.80532,-0.4357 0.328324,-0.2875 0.501777,-0.7007 0.173455,-0.4177 0.173455,-0.9433 z m 1.251344,-0.094 q 0,0.7052 -0.266375,1.2758 -0.260181,0.5659 -0.755763,0.9657 -0.489387,0.3953 -1.195592,0.6109 -0.706203,0.2111 -1.598251,0.2111 -0.854879,0 -1.548694,-0.2066 -0.693815,-0.2111 -1.183202,-0.5929 -0.489386,-0.3863 -0.755762,-0.9254 -0.266376,-0.539 -0.266376,-1.1993 0,-0.6918 0.260181,-1.2533 0.266375,-0.5659 0.768152,-0.9612 0.501776,-0.3998 1.220371,-0.6154 0.724788,-0.2156 1.641615,-0.2156 0.836294,0 1.517718,0.2111 0.681427,0.2111 1.158424,0.5975 0.483192,0.3817 0.743373,0.9163 0.260181,0.5346 0.260181,1.1813 z"
         style="font-style:normal;font-variant:normal;font-weight:normal;font-stretch:normal;font-size:medium;line-height:100%;font-family:'Estrangelo Edessa';-inkscape-font-specification:'Estrangelo Edessa, Normal';text-align:start;letter-spacing:0px;word-spacing:0px;writing-mode:lr-tb;text-anchor:start;fill:#8d5fd3;fill-opacity:1;stroke:none;stroke-width:1px;stroke-linecap:butt;stroke-linejoin:miter;stroke-opacity:1"
         id="path4212"
         inkscape:connector-curvature="0" />
      <path
         d="m 68.945189,1046.7671 -1.195591,0 -3.921293,-3.7732 q -0.04336,-0.036 -0.148673,-0.1437 -0.09911,-0.1123 -0.216818,-0.2426 -0.111505,-0.1303 -0.216817,-0.2561 -0.105312,-0.1257 -0.154869,-0.1931 l 0,4.6087 -1.127449,0 0,-5.8125 1.282318,0 3.741644,3.6429 q 0.09292,0.094 0.216817,0.2291 0.123896,0.1303 0.241596,0.2695 0.1177,0.1347 0.216817,0.2605 0.105312,0.1213 0.161065,0.1976 l 0,-4.5996 1.121253,0 0,5.8125 z"
         style="font-style:normal;font-variant:normal;font-weight:normal;font-stretch:normal;font-size:medium;line-height:100%;font-family:'Estrangelo Edessa';-inkscape-font-specification:'Estrangelo Edessa, Normal';text-align:start;letter-spacing:0px;word-spacing:0px;writing-mode:lr-tb;text-anchor:start;fill:#8d5fd3;fill-opacity:1;stroke:none;stroke-width:1px;stroke-linecap:butt;stroke-linejoin:miter;stroke-opacity:1"
         id="path4214"
         inkscape:connector-curvature="0" />
      <path
         d="m 75.164737,1046.7671 -4.00802,0 0,-5.8125 3.99564,0 0,0.7546 -2.78765,0 0,1.7653 2.80003,0 0,0.7457 -2.80003,0 0,1.8012 2.80003,0 0,0.7457 z"
         style="font-style:normal;font-variant:normal;font-weight:normal;font-stretch:normal;font-size:medium;line-height:100%;font-family:'Estrangelo Edessa';-inkscape-font-specification:'Estrangelo Edessa, Normal';text-align:start;letter-spacing:0px;word-spacing:0px;writing-mode:lr-tb;text-anchor:start;fill:#8d5fd3;fill-opacity:1;stroke:none;stroke-width:1px;stroke-linecap:butt;stroke-linejoin:miter;stroke-opacity:1"
         id="path4216"
         inkscape:connector-curvature="0" />
    </g>
    <g
       id="g4294"
       transform="translate(-5.061776,-0.333)">
      <path
         d="m 99.83286,1046.7671 -1.22037,0 0,-2.5829 -4.36111,0 0,2.5829 -1.22038,0 0,-5.8125 1.22038,0 0,2.484 4.36111,0 0,-2.484 1.22037,0 0,5.8125 z"
         style="font-style:normal;font-variant:normal;font-weight:normal;font-stretch:normal;font-size:medium;line-height:100%;font-family:'Estrangelo Edessa';-inkscape-font-specification:'Estrangelo Edessa, Normal';text-align:start;letter-spacing:0px;word-spacing:0px;writing-mode:lr-tb;text-anchor:start;fill:#e5d5ff;fill-opacity:1;stroke:none;stroke-width:1px;stroke-linecap:butt;stroke-linejoin:miter;stroke-opacity:1"
         id="path4226"
         inkscape:connector-curvature="0" />
      <path
         d="m 107.9666,1043.8788 q 0,-0.5301 -0.16106,-0.9478 -0.16107,-0.4223 -0.47699,-0.7142 -0.31594,-0.292 -0.78055,-0.4447 -0.46461,-0.1572 -1.07169,-0.1572 -0.58231,0 -1.05932,0.1661 -0.4708,0.1618 -0.80531,0.4582 -0.33451,0.2965 -0.52037,0.7143 -0.17964,0.4132 -0.17964,0.9163 0,0.5031 0.17346,0.9163 0.17345,0.4133 0.49558,0.7053 0.32832,0.2919 0.78674,0.4536 0.46459,0.1617 1.03452,0.1617 0.60709,0 1.08409,-0.1482 0.47699,-0.1527 0.80531,-0.4357 0.32833,-0.2875 0.50178,-0.7007 0.17345,-0.4177 0.17345,-0.9433 z m 1.25135,-0.094 q 0,0.7052 -0.26637,1.2758 -0.26019,0.5659 -0.75577,0.9657 -0.48938,0.3953 -1.19559,0.6109 -0.7062,0.2111 -1.59825,0.2111 -0.85488,0 -1.54869,-0.2066 -0.69383,-0.2111 -1.1832,-0.5929 -0.48939,-0.3863 -0.75576,-0.9254 -0.26638,-0.539 -0.26638,-1.1993 0,-0.6918 0.26018,-1.2533 0.26637,-0.5659 0.76815,-0.9612 0.50177,-0.3998 1.22038,-0.6154 0.72478,-0.2156 1.6416,-0.2156 0.8363,0 1.51772,0.2111 0.68143,0.2111 1.15843,0.5975 0.48319,0.3817 0.74336,0.9163 0.26019,0.5346 0.26019,1.1813 z"
         style="font-style:normal;font-variant:normal;font-weight:normal;font-stretch:normal;font-size:medium;line-height:100%;font-family:'Estrangelo Edessa';-inkscape-font-specification:'Estrangelo Edessa, Normal';text-align:start;letter-spacing:0px;word-spacing:0px;writing-mode:lr-tb;text-anchor:start;fill:#e5d5ff;fill-opacity:1;stroke:none;stroke-width:1px;stroke-linecap:butt;stroke-linejoin:miter;stroke-opacity:1"
         id="path4228"
         inkscape:connector-curvature="0" />
      <path
         d="m 115.66671,1041.7092 -2.0195,0 0,5.0579 -1.21418,0 0,-5.0579 -2.03188,0 0,-0.7546 5.26556,0 0,0.7546 z"
         style="font-style:normal;font-variant:normal;font-weight:normal;font-stretch:normal;font-size:medium;line-height:100%;font-family:'Estrangelo Edessa';-inkscape-font-specification:'Estrangelo Edessa, Normal';text-align:start;letter-spacing:0px;word-spacing:0px;writing-mode:lr-tb;text-anchor:start;fill:#e5d5ff;fill-opacity:1;stroke:none;stroke-width:1px;stroke-linecap:butt;stroke-linejoin:miter;stroke-opacity:1"
         id="path4230"
         inkscape:connector-curvature="0" />
    </g>
  </g>
</svg>
