<?xml version="1.0" encoding="UTF-8" standalone="no"?>
<!-- Created with Inkscape (http://www.inkscape.org/) -->

<svg
   xmlns:dc="http://purl.org/dc/elements/1.1/"
   xmlns:cc="http://creativecommons.org/ns#"
   xmlns:rdf="http://www.w3.org/1999/02/22-rdf-syntax-ns#"
   xmlns:svg="http://www.w3.org/2000/svg"
   xmlns="http://www.w3.org/2000/svg"
   xmlns:sodipodi="http://sodipodi.sourceforge.net/DTD/sodipodi-0.dtd"
   xmlns:inkscape="http://www.inkscape.org/namespaces/inkscape"
   width="20"
   height="18"
   viewBox="0 0 20 18"
   id="svg2"
   version="1.1"
   inkscape:version="0.92.1 r15371"
   sodipodi:docname="btn_spinny_over.svg">
  <defs
     id="defs4">
    <pattern
       y="0"
       x="0"
       height="6"
       width="6"
       patternUnits="userSpaceOnUse"
       id="EMFhbasepattern" />
  </defs>
  <sodipodi:namedview
     id="base"
     pagecolor="#ffffff"
     bordercolor="#666666"
     borderopacity="1.0"
     inkscape:pageopacity="0.0"
     inkscape:pageshadow="2"
     inkscape:zoom="50.055704"
     inkscape:cx="-1.8529726"
     inkscape:cy="11.424071"
     inkscape:document-units="px"
     inkscape:current-layer="g4140"
     showgrid="false"
     units="px"
     inkscape:window-width="1920"
     inkscape:window-height="1028"
     inkscape:window-x="-8"
     inkscape:window-y="-8"
     inkscape:window-maximized="1"
     showguides="true"
     inkscape:guide-bbox="true">
    <sodipodi:guide
       position="-4.5549256,14.943352"
       orientation="0,1"
       id="guide4888"
       inkscape:locked="false" />
    <sodipodi:guide
       position="3.436172,4.7147476"
       orientation="0,1"
       id="guide4890"
       inkscape:locked="false" />
  </sodipodi:namedview>
  <metadata
     id="metadata7">
    <rdf:RDF>
      <cc:Work
         rdf:about="">
        <dc:format>image/svg+xml</dc:format>
        <dc:type
           rdf:resource="http://purl.org/dc/dcmitype/StillImage" />
        <dc:title />
        <dc:creator>
          <cc:Agent>
            <dc:title>Jorge Rosa</dc:title>
          </cc:Agent>
        </dc:creator>
        <dc:description>Email: jorge.bigarte@gmail.com
Site:https://sites.google.com/site/jorgerosaportfolio</dc:description>
      </cc:Work>
    </rdf:RDF>
  </metadata>
  <g
     inkscape:label="Layer 1"
     inkscape:groupmode="layer"
     id="layer1"
     transform="translate(0,-1034.3622)">
    <g
       id="g4956"
       transform="matrix(0,0.02442813,-0.02442813,0,15.321547,1036.2396)" />
    <g
       id="g4140"
       transform="translate(-2.9120741,0)">
      <path
         style="opacity:1;fill:#e5d5ff;fill-opacity:1;stroke:none;stroke-width:2.03600001;stroke-linecap:round;stroke-linejoin:round;stroke-miterlimit:4;stroke-dasharray:none;stroke-opacity:1"
         d="M 9.5507812 3.0566406 L 9.5507812 3.078125 A 5.1143022 5.1143022 0 0 1 10 3.0566406 L 9.5507812 3.0566406 z M 10 3.0566406 A 5.1143022 5.1143022 0 0 1 10.449219 3.078125 L 10.449219 3.0566406 L 10 3.0566406 z M 10.449219 3.078125 L 10.373047 5.515625 A 2.6840158 2.6840158 0 0 1 12.683594 8.1699219 A 2.6840158 2.6840158 0 0 1 12.503906 9.1308594 L 14.634766 10.318359 A 5.1143022 5.1143022 0 0 0 15.115234 8.1699219 A 5.1143022 5.1143022 0 0 0 10.449219 3.078125 z M 14.634766 10.318359 A 5.1143022 5.1143022 0 0 1 14.214844 11.066406 L 14.220703 11.070312 L 14.669922 10.337891 L 14.634766 10.318359 z M 14.214844 11.066406 L 12.095703 9.84375 A 2.6840158 2.6840158 0 0 1 10 10.855469 A 2.6840158 2.6840158 0 0 1 7.9042969 9.8457031 L 5.7910156 11.064453 A 5.1143022 5.1143022 0 0 0 10 13.285156 A 5.1143022 5.1143022 0 0 0 14.214844 11.066406 z M 5.7910156 11.064453 A 5.1143022 5.1143022 0 0 1 5.3652344 10.320312 L 5.3300781 10.339844 L 5.7792969 11.072266 L 5.7910156 11.064453 z M 5.3652344 10.320312 L 7.4941406 9.1328125 A 2.6840158 2.6840158 0 0 1 7.3164062 8.1699219 A 2.6840158 2.6840158 0 0 1 9.6269531 5.515625 L 9.5507812 3.078125 A 5.1143022 5.1143022 0 0 0 4.8847656 8.1699219 A 5.1143022 5.1143022 0 0 0 5.3652344 10.320312 z "
         transform="translate(2.9120741,1034.3622)"
         id="path5005" />
    </g>
  </g>
</svg>
