<?xml version="1.0" encoding="UTF-8" standalone="no"?>
<!-- Created with Inkscape (http://www.inkscape.org/) -->

<svg
   xmlns:dc="http://purl.org/dc/elements/1.1/"
   xmlns:cc="http://creativecommons.org/ns#"
   xmlns:rdf="http://www.w3.org/1999/02/22-rdf-syntax-ns#"
   xmlns:svg="http://www.w3.org/2000/svg"
   xmlns="http://www.w3.org/2000/svg"
   xmlns:xlink="http://www.w3.org/1999/xlink"
   xmlns:sodipodi="http://sodipodi.sourceforge.net/DTD/sodipodi-0.dtd"
   xmlns:inkscape="http://www.inkscape.org/namespaces/inkscape"
   width="18"
   height="18"
   viewBox="0 0 18 18"
   id="svg2"
   version="1.1"
   inkscape:version="0.92.1 r15371"
   sodipodi:docname="btn_channel_headphones_pressed.svg">
  <defs
     id="defs4">
    <linearGradient
       id="linearGradient4200"
       inkscape:collect="always">
      <stop
         id="stop4202"
         offset="0"
         style="stop-color:#2d1650;stop-opacity:1" />
      <stop
         id="stop4204"
         offset="1"
         style="stop-color:#000000;stop-opacity:1" />
    </linearGradient>
    <radialGradient
       inkscape:collect="always"
       xlink:href="#linearGradient4200"
       id="radialGradient4178-1"
       cx="37.890625"
       cy="1037.6161"
       fx="37.890625"
       fy="1037.6161"
       r="10.839844"
       gradientUnits="userSpaceOnUse"
       gradientTransform="matrix(1.2509386,2.7763906e-6,-2.6805836e-6,1.2077716,-34.396064,-213.84113)" />
    <pattern
       y="0"
       x="0"
       height="6"
       width="6"
       patternUnits="userSpaceOnUse"
       id="EMFhbasepattern" />
    <pattern
       y="0"
       x="0"
       height="6"
       width="6"
       patternUnits="userSpaceOnUse"
       id="EMFhbasepattern-5" />
  </defs>
  <sodipodi:namedview
     id="base"
     pagecolor="#ffffff"
     bordercolor="#666666"
     borderopacity="1.0"
     inkscape:pageopacity="0.0"
     inkscape:pageshadow="2"
     inkscape:zoom="20.48"
     inkscape:cx="-11.002209"
     inkscape:cy="5.8923484"
     inkscape:document-units="px"
     inkscape:current-layer="layer1"
     showgrid="false"
     units="px"
     inkscape:window-width="1920"
     inkscape:window-height="1028"
     inkscape:window-x="-8"
     inkscape:window-y="-8"
     inkscape:window-maximized="1"
     showguides="true"
     inkscape:guide-bbox="true" />
  <metadata
     id="metadata7">
    <rdf:RDF>
      <cc:Work
         rdf:about="">
        <dc:format>image/svg+xml</dc:format>
        <dc:type
           rdf:resource="http://purl.org/dc/dcmitype/StillImage" />
        <dc:title />
        <dc:creator>
          <cc:Agent>
            <dc:title>Jorge Rosa</dc:title>
          </cc:Agent>
        </dc:creator>
        <dc:description>Email: jorge.bigarte@gmail.com
Site:https://sites.google.com/site/jorgerosaportfolio</dc:description>
      </cc:Work>
    </rdf:RDF>
  </metadata>
  <g
     inkscape:label="Layer 1"
     inkscape:groupmode="layer"
     id="layer1"
     transform="translate(0,-1034.3622)">
    <g
       style="font-style:normal;font-variant:normal;font-weight:normal;font-stretch:normal;font-size:15px;line-height:100%;font-family:'Estrangelo Edessa';-inkscape-font-specification:'Estrangelo Edessa, Normal';text-align:start;letter-spacing:0px;word-spacing:0px;writing-mode:lr-tb;text-anchor:start;fill:#666666;fill-opacity:1;stroke:none;stroke-width:1px;stroke-linecap:butt;stroke-linejoin:miter;stroke-opacity:1"
       id="text4146-3" />
    <g
       style="stroke-width:1.32967579;stroke-miterlimit:4;stroke-dasharray:none"
       id="g4145"
       transform="matrix(0.75206304,0,0,0.75206304,-0.77681952,261.6963)">
      <path
         inkscape:connector-curvature="0"
         style="opacity:1;fill:url(#radialGradient4178-1);fill-opacity:1;stroke:none;stroke-width:1.32967579;stroke-linecap:round;stroke-linejoin:round;stroke-miterlimit:4;stroke-dasharray:none;stroke-opacity:1"
         d="m 22.972568,1039.3623 a 9.9725684,9.9725684 0 0 1 -9.972569,9.9725 9.9725684,9.9725684 0 0 1 -9.9725674,-9.9725 9.9725684,9.9725684 0 0 1 9.9725674,-9.9726 9.9725684,9.9725684 0 0 1 9.972569,9.9726 z"
         id="path4170-7" />
      <path
         inkscape:connector-curvature="0"
         style="opacity:1;fill:none;fill-opacity:1;stroke:#1a1a1a;stroke-width:1.32967579;stroke-linecap:round;stroke-linejoin:round;stroke-miterlimit:4;stroke-dasharray:none;stroke-opacity:1"
         d="M 23.619215,1039.3622 A 10.619215,10.619215 0 0 1 13,1049.9814 10.619215,10.619215 0 0 1 2.380785,1039.3622 10.619215,10.619215 0 0 1 13,1028.743 a 10.619215,10.619215 0 0 1 10.619215,10.6192 z"
         id="path4180-2" />
    </g>
    <path
       id="path823"
       d="m 5.6187398,1040.0505 c 0,0 0,0 0,0 -0.641697,0.6417 -1.0365895,2.2708 -1.0859519,3.3071 -0.049358,0.8393 1.1353144,2.2214 1.3327602,2.7645 0.3948925,1.4808 0.542976,1.4808 1.4808437,1.5303 0.8885054,0.05 1.1353137,-0.6419 1.1353137,-1.1848 v -2.1226 c 0,-0.543 -0.3948918,-0.9378 -0.7897843,-0.9874 -2.8136047,0.051 -0.8391452,3.5543 -2.6161566,0.3458 0.09873,-2.3694 0.8391437,-2.6656 2.2706272,-2.9617 1.2340362,-0.1976 2.1225415,-0.1482 3.3072192,0 1.480843,0.1975 2.270626,0.691 2.270626,2.9617 -1.727652,2.9616 0.148084,-0.3458 -2.616159,-0.3458 -0.3948905,0.051 -0.7897837,0.4444 -0.7897837,0.9874 v 2.1226 c 0,0.5429 0.2468067,1.1848 1.1353167,1.1848 0.937866,0 1.135311,-0.099 1.480843,-1.5303 0.197445,-0.5431 1.382121,-1.9252 1.332758,-2.7645 -0.04936,-1.0363 -0.296169,-2.6654 -0.987227,-3.3071 0,0 0,0 0,0 -1.826374,-1.3328 -5.1335932,-1.2834 -6.8612452,0 z"
       style="opacity:1;fill:#e5d5ff;fill-opacity:1;fill-rule:nonzero;stroke:none;stroke-width:0.61702269;stroke-miterlimit:4;stroke-dasharray:none"
       inkscape:connector-curvature="0" />
  </g>
</svg>
