<?xml version="1.0" encoding="UTF-8" standalone="no"?>
<!-- Created with Inkscape (http://www.inkscape.org/) -->

<svg
   xmlns:dc="http://purl.org/dc/elements/1.1/"
   xmlns:cc="http://creativecommons.org/ns#"
   xmlns:rdf="http://www.w3.org/1999/02/22-rdf-syntax-ns#"
   xmlns:svg="http://www.w3.org/2000/svg"
   xmlns="http://www.w3.org/2000/svg"
   xmlns:xlink="http://www.w3.org/1999/xlink"
   xmlns:sodipodi="http://sodipodi.sourceforge.net/DTD/sodipodi-0.dtd"
   xmlns:inkscape="http://www.inkscape.org/namespaces/inkscape"
   width="26.666666"
   height="19.200001"
   viewBox="0 0 25 18"
   id="svg2"
   version="1.1"
   inkscape:version="0.92.1 r15371"
   sodipodi:docname="btn_orientation_right.svg">
  <defs
     id="defs4">
    <pattern
       y="0"
       x="0"
       height="6"
       width="6"
       patternUnits="userSpaceOnUse"
       id="EMFhbasepattern" />
    <pattern
       y="0"
       x="0"
       height="6"
       width="6"
       patternUnits="userSpaceOnUse"
       id="EMFhbasepattern-3" />
    <radialGradient
       inkscape:collect="always"
       xlink:href="#linearGradient4733"
       id="radialGradient4725-4-0"
       cx="767.67566"
       cy="166.22894"
       fx="767.67566"
       fy="166.22868"
       r="24.596836"
       gradientTransform="matrix(4.3651246,9.3313839e-7,8.2145599e-5,0.08848228,-3338.707,1027.6415)"
       gradientUnits="userSpaceOnUse" />
    <linearGradient
       inkscape:collect="always"
       id="linearGradient4733">
      <stop
         style="stop-color:#1e1e1e;stop-opacity:1"
         offset="0"
         id="stop4735" />
      <stop
         style="stop-color:#000000;stop-opacity:1"
         offset="1"
         id="stop4737" />
    </linearGradient>
  </defs>
  <sodipodi:namedview
     id="base"
     pagecolor="#ffffff"
     bordercolor="#666666"
     borderopacity="1.0"
     inkscape:pageopacity="0.0"
     inkscape:pageshadow="2"
     inkscape:zoom="25.027851"
     inkscape:cx="5.3425895"
     inkscape:cy="8.355322"
     inkscape:document-units="px"
     inkscape:current-layer="g4522"
     showgrid="false"
     units="px"
     inkscape:window-width="1920"
     inkscape:window-height="1028"
     inkscape:window-x="-8"
     inkscape:window-y="-8"
     inkscape:window-maximized="1"
     showguides="true"
     inkscape:guide-bbox="true">
    <sodipodi:guide
       position="-4.5549256,14.943352"
       orientation="0,1"
       id="guide4888"
       inkscape:locked="false" />
    <sodipodi:guide
       position="3.436172,4.7147476"
       orientation="0,1"
       id="guide4890"
       inkscape:locked="false" />
  </sodipodi:namedview>
  <metadata
     id="metadata7">
    <rdf:RDF>
      <cc:Work
         rdf:about="">
        <dc:format>image/svg+xml</dc:format>
        <dc:type
           rdf:resource="http://purl.org/dc/dcmitype/StillImage" />
        <dc:title />
        <dc:creator>
          <cc:Agent>
            <dc:title>Jorge Rosa</dc:title>
          </cc:Agent>
        </dc:creator>
        <dc:description>Email: jorge.bigarte@gmail.com
Site:https://sites.google.com/site/jorgerosaportfolio</dc:description>
      </cc:Work>
    </rdf:RDF>
  </metadata>
  <g
     inkscape:label="Layer 1"
     inkscape:groupmode="layer"
     id="layer1"
     transform="translate(0,-1034.3622)">
    <rect
       y="1040.1664"
       x="3.1256175"
       height="4.6637745"
       width="18.75"
       id="rect4183-39-0-0-1-8"
       style="opacity:1;fill:url(#radialGradient4725-4-0);fill-opacity:1;stroke:none;stroke-width:0.42947084;stroke-linecap:round;stroke-linejoin:round;stroke-miterlimit:4;stroke-dasharray:none;stroke-dashoffset:0;stroke-opacity:1" />
    <path
       style="fill:none"
       inkscape:connector-curvature="0"
       d="M 0.93222474,1035.3624 H 24.479466 v 14.821 H 0.93222474 Z"
       id="path4904-3" />
    <g
       id="g4956"
       transform="matrix(0,0.02442813,-0.02442813,0,15.321547,1036.2396)" />
    <path
       style="opacity:1;fill:#e5d5ff;fill-opacity:1;stroke:none;stroke-width:0.71052849;stroke-linecap:butt;stroke-linejoin:round;stroke-miterlimit:4.5;stroke-dasharray:none;stroke-dashoffset:0;stroke-opacity:1;paint-order:stroke fill markers"
       d="m 6.2230691,1040.5058 c -0.106996,0 -0.193182,0.024 -0.193182,0.056 l -1.4e-5,1.9372 v 1.9358 c 0,0.032 0.08619,0.056 0.193182,0.056 0.106962,0 0.193183,-0.024 0.193183,-0.056 v -1.4986 h 2.751542 v 1.4986 c 0,0.032 0.08619,0.056 0.193183,0.056 0.106961,0 0.193182,-0.024 0.193182,-0.056 v -1.4986 h 2.7532839 v 1.4986 c -1e-6,0.032 0.08618,0.056 0.193181,0.056 0.10696,0 0.193183,-0.024 0.193183,-0.056 v -1.4986 h 2.751543 v 1.4986 c 0,0.032 0.08618,0.056 0.193182,0.056 0.106959,0 0.193182,-0.024 0.193182,-0.056 v -1.4986 h 2.753283 v 1.4986 c 0,0.032 0.08619,0.056 0.193182,0.056 0.10696,0 0.193183,-0.024 0.193183,-0.056 l 1.4e-5,-3.873 c 0,-0.031 -0.08622,-0.056 -0.193182,-0.056 -0.106999,0 -0.193183,0.024 -0.193183,0.056 l -1.4e-5,1.4985 H 15.8317 l 1.5e-5,-1.4985 c 0,-0.031 -0.08622,-0.056 -0.193183,-0.056 -0.106998,0 -0.193182,0.024 -0.193182,0.056 l -1.4e-5,1.4985 h -2.751543 l 1.4e-5,-1.4985 c 0,-0.031 -0.08622,-0.056 -0.193182,-0.056 -0.106998,0 -0.193182,0.024 -0.193182,0.056 l -1.4e-5,1.4985 H 9.5541451 l 1.4e-5,-1.4985 c 1e-6,-0.031 -0.08622,-0.056 -0.193182,-0.056 -0.106997,0 -0.193182,0.024 -0.193183,0.056 l -1.4e-5,1.4985 h -2.751542 l 1.4e-5,-1.4985 c 0,-0.031 -0.08622,-0.056 -0.193183,-0.056 z"
       id="rect4491-9"
       inkscape:connector-curvature="0"
       sodipodi:nodetypes="sscsssccssscccssccsssccssssssccsssccsssccsssccss" />
    <g
       transform="translate(7.1253169,-1.58e-5)"
       id="g4522">
      <path
         inkscape:connector-curvature="0"
         id="rect4493-5"
         d="m 11.540542,1038.971 h 1.918916 c 0.377365,0 0.681167,0.2412 0.681167,0.5408 v 6.9105 c 0,0.2996 -0.303802,0.5408 -0.681167,0.5408 h -1.918916 c -0.377365,0 -0.681167,-0.2412 -0.681167,-0.5408 v -6.9105 c 0,-0.2996 0.303802,-0.5408 0.681167,-0.5408 z"
         style="opacity:0.8;fill:#000000;fill-opacity:1;stroke:none;stroke-width:1.31540549;stroke-linecap:butt;stroke-linejoin:round;stroke-miterlimit:4.5;stroke-dasharray:none;stroke-dashoffset:0;stroke-opacity:1;paint-order:stroke fill markers" />
      <path
         inkscape:connector-curvature="0"
         id="rect4493-8"
         d="m 11.936592,1038.5026 h 1.126816 c 0.221595,0 0.399992,0.2412 0.399992,0.5408 v 6.9105 c 0,0.2996 -0.178397,0.5408 -0.399992,0.5408 h -1.126816 c -0.221595,0 -0.399992,-0.2412 -0.399992,-0.5408 v -6.9105 c 0,-0.2996 0.178397,-0.5408 0.399992,-0.5408 z"
         style="opacity:1;fill:#e5d5ff;fill-opacity:1;stroke:none;stroke-width:1.00799489;stroke-linecap:butt;stroke-linejoin:round;stroke-miterlimit:4.5;stroke-dasharray:none;stroke-dashoffset:0;stroke-opacity:1;paint-order:stroke fill markers" />
    </g>
  </g>
</svg>
