<?xml version="1.0" encoding="UTF-8" standalone="no"?>
<!-- Created with Inkscape (http://www.inkscape.org/) -->

<svg
   xmlns:dc="http://purl.org/dc/elements/1.1/"
   xmlns:cc="http://creativecommons.org/ns#"
   xmlns:rdf="http://www.w3.org/1999/02/22-rdf-syntax-ns#"
   xmlns:svg="http://www.w3.org/2000/svg"
   xmlns="http://www.w3.org/2000/svg"
   xmlns:xlink="http://www.w3.org/1999/xlink"
   xmlns:sodipodi="http://sodipodi.sourceforge.net/DTD/sodipodi-0.dtd"
   xmlns:inkscape="http://www.inkscape.org/namespaces/inkscape"
   width="29"
   height="29"
   viewBox="0 0 29 29"
   id="svg2"
   version="1.1"
   inkscape:version="0.92.1 r15371"
   sodipodi:docname="btn_longwave_3_pressed.svg">
  <defs
     id="defs4">
    <inkscape:perspective
       id="perspective2840"
       inkscape:persp3d-origin="372.04724 : 350.78739 : 1"
       inkscape:vp_z="744.09448 : 526.18109 : 1"
       inkscape:vp_y="0 : 1000 : 0"
       inkscape:vp_x="0 : 526.18109 : 1"
       sodipodi:type="inkscape:persp3d" />
    <inkscape:perspective
       id="perspective2840-1"
       inkscape:persp3d-origin="372.04724 : 350.78739 : 1"
       inkscape:vp_z="744.09448 : 526.18109 : 1"
       inkscape:vp_y="0 : 1000 : 0"
       inkscape:vp_x="0 : 526.18109 : 1"
       sodipodi:type="inkscape:persp3d" />
    <radialGradient
       inkscape:collect="always"
       xlink:href="#linearGradient4260"
       id="radialGradient4199"
       cx="49.549362"
       cy="1016.939"
       fx="49.549362"
       fy="1016.939"
       r="50.506916"
       gradientTransform="matrix(0.2111158,0,0,0.19103424,5.6898682,815.81776)"
       gradientUnits="userSpaceOnUse" />
    <linearGradient
       id="linearGradient4260"
       inkscape:collect="always">
      <stop
         id="stop4262"
         offset="0"
         style="stop-color:#1e1e1e;stop-opacity:1" />
      <stop
         id="stop4264"
         offset="1"
         style="stop-color:#000000;stop-opacity:1" />
    </linearGradient>
  </defs>
  <sodipodi:namedview
     id="base"
     pagecolor="#ffffff"
     bordercolor="#666666"
     borderopacity="1.0"
     inkscape:pageopacity="0.0"
     inkscape:pageshadow="2"
     inkscape:zoom="12.310292"
     inkscape:cx="-9.3930736"
     inkscape:cy="11.695517"
     inkscape:document-units="px"
     inkscape:current-layer="g4481"
     showgrid="false"
     units="px"
     inkscape:window-width="1920"
     inkscape:window-height="1028"
     inkscape:window-x="-8"
     inkscape:window-y="-8"
     inkscape:window-maximized="1"
     objecttolerance="10"
     guidetolerance="9" />
  <metadata
     id="metadata7">
    <rdf:RDF>
      <cc:Work
         rdf:about="">
        <dc:format>image/svg+xml</dc:format>
        <dc:type
           rdf:resource="http://purl.org/dc/dcmitype/StillImage" />
        <dc:title />
        <dc:creator>
          <cc:Agent>
            <dc:title>Jorge Rosa</dc:title>
          </cc:Agent>
        </dc:creator>
        <dc:description>Email: jorge.bigarte@gmail.com
Site:https://sites.google.com/site/jorgerosaportfolio</dc:description>
      </cc:Work>
    </rdf:RDF>
  </metadata>
  <g
     inkscape:label="Layer 1"
     inkscape:groupmode="layer"
     id="layer1"
     transform="translate(0,-1023.3622)">
    <g
       id="text4230-1-6"
       style="font-style:normal;font-variant:normal;font-weight:normal;font-stretch:normal;font-size:15.33438301px;line-height:100%;font-family:'Estrangelo Edessa';-inkscape-font-specification:'Estrangelo Edessa, Normal';text-align:start;letter-spacing:0px;word-spacing:0px;writing-mode:lr-tb;text-anchor:start;fill:#000000;fill-opacity:1;stroke:none;stroke-width:1px;stroke-linecap:butt;stroke-linejoin:miter;stroke-opacity:1"
       transform="matrix(0.84348287,0,0,0.84348287,-48.525924,133.87022)" />
    <g
       id="g4447"
       transform="translate(-3.4005955,28.81897)">
      <g
         style="font-style:normal;font-variant:normal;font-weight:normal;font-stretch:normal;font-size:medium;line-height:100%;font-family:'Estrangelo Edessa';-inkscape-font-specification:'Estrangelo Edessa, Normal';text-align:start;letter-spacing:0px;word-spacing:0px;writing-mode:lr-tb;text-anchor:start;fill:#666666;fill-opacity:1;stroke:none;stroke-width:1px;stroke-linecap:butt;stroke-linejoin:miter;stroke-opacity:1"
         transform="matrix(0.84348287,0,0,0.84348287,-48.514791,134.72493)"
         id="g4328" />
      <g
         id="g4443"
         transform="translate(-0.2409525,-0.88447)" />
      <g
         id="g4481"
         transform="translate(-0.895744,2.53543)">
        <g
           id="g4184"
           transform="matrix(1.2083334,0,0,1.16,-1.0210479,-166.30233)">
          <path
             inkscape:connector-curvature="0"
             id="rect4183"
             d="M 4.4005952,998.54323 H 28.400596 v 24.99997 H 4.4005952 Z"
             style="opacity:1;fill:url(#radialGradient4199);fill-opacity:1;stroke:none;stroke-width:1.45610845;stroke-linecap:round;stroke-linejoin:round;stroke-miterlimit:4;stroke-dasharray:none;stroke-opacity:1" />
          <g
             transform="translate(3.1234114,-28.18527)"
             id="g4324">
            <path
               style="fill:none;fill-rule:evenodd;stroke:#000000;stroke-width:0.18016605px;stroke-linecap:butt;stroke-linejoin:miter;stroke-opacity:1"
               d="M 1.2771867,1029.1188 H 25.277183"
               id="path5581-0-0-8-2-98"
               inkscape:connector-curvature="0" />
            <path
               style="fill:none;fill-rule:evenodd;stroke:#000000;stroke-width:0.18016605px;stroke-linecap:butt;stroke-linejoin:miter;stroke-opacity:1"
               d="M 1.2771867,1030.957 H 25.277183"
               id="path5581-9-7-1-9-73"
               inkscape:connector-curvature="0" />
            <path
               style="fill:none;fill-rule:evenodd;stroke:#000000;stroke-width:0.18016605px;stroke-linecap:butt;stroke-linejoin:miter;stroke-opacity:1"
               d="M 1.2771867,1032.7951 H 25.277183"
               id="path5581-1-4-5-4-4"
               inkscape:connector-curvature="0" />
            <path
               style="fill:none;fill-rule:evenodd;stroke:#000000;stroke-width:0.18016605px;stroke-linecap:butt;stroke-linejoin:miter;stroke-opacity:1"
               d="M 1.2771867,1034.6333 H 25.277183"
               id="path5581-8-4-5-7-9"
               inkscape:connector-curvature="0" />
            <path
               style="fill:none;fill-rule:evenodd;stroke:#000000;stroke-width:0.18016605px;stroke-linecap:butt;stroke-linejoin:miter;stroke-opacity:1"
               d="M 1.2771867,1036.4712 H 25.277183"
               id="path5581-01-40-1-3-03"
               inkscape:connector-curvature="0" />
            <path
               style="fill:none;fill-rule:evenodd;stroke:#000000;stroke-width:0.18016605px;stroke-linecap:butt;stroke-linejoin:miter;stroke-opacity:1"
               d="M 1.2771867,1038.3094 H 25.277183"
               id="path5581-3-01-6-9-6"
               inkscape:connector-curvature="0" />
            <path
               style="fill:none;fill-rule:evenodd;stroke:#000000;stroke-width:0.18016605px;stroke-linecap:butt;stroke-linejoin:miter;stroke-opacity:1"
               d="M 1.2771867,1040.1476 H 25.277183"
               id="path5581-82-36-5-3-86"
               inkscape:connector-curvature="0" />
            <path
               style="fill:none;fill-rule:evenodd;stroke:#000000;stroke-width:0.18016605px;stroke-linecap:butt;stroke-linejoin:miter;stroke-opacity:1"
               d="M 1.2771867,1041.9857 H 25.277183"
               id="path5581-82-9-33-4-9-7"
               inkscape:connector-curvature="0" />
            <path
               style="fill:none;fill-rule:evenodd;stroke:#000000;stroke-width:0.18016605px;stroke-linecap:butt;stroke-linejoin:miter;stroke-opacity:1"
               d="M 1.2771867,1043.8236 H 25.277183"
               id="path5581-82-3-0-0-5-8"
               inkscape:connector-curvature="0" />
            <path
               style="fill:none;fill-rule:evenodd;stroke:#000000;stroke-width:0.18016605px;stroke-linecap:butt;stroke-linejoin:miter;stroke-opacity:1"
               d="M 1.2771843,1045.6618 H 25.277184"
               id="path5581-82-0-6-3-1-3"
               inkscape:connector-curvature="0" />
            <path
               style="fill:none;fill-rule:evenodd;stroke:#000000;stroke-width:0.18016605px;stroke-linecap:butt;stroke-linejoin:miter;stroke-opacity:1"
               d="M 1.2771867,1047.4999 H 25.277183"
               id="path5581-82-1-1-3-3-8"
               inkscape:connector-curvature="0" />
            <path
               style="fill:none;fill-rule:evenodd;stroke:#000000;stroke-width:0.18016605px;stroke-linecap:butt;stroke-linejoin:miter;stroke-opacity:1"
               d="M 1.2771867,1049.3381 H 25.277183"
               id="path5581-82-5-6-6-0-3"
               inkscape:connector-curvature="0" />
          </g>
        </g>
        <g
           transform="matrix(0.65445497,0,0,0.65445497,55.729726,355.1786)"
           id="g903">
          <path
             inkscape:connector-curvature="0"
             style="fill:#000000;fill-opacity:1;fill-rule:nonzero;stroke:none"
             d="m -52.473838,998.78382 c 0,0.64 -0.159999,1.2 -0.399997,1.67998 -0.159999,0.48 -0.479997,0.96 -0.879994,1.28 -0.479996,0.32 -0.959992,0.64 -1.519988,0.8 -0.559996,0.24 -1.199991,0.32 -1.919986,0.32 -0.559996,0 -1.199991,-0.08 -1.759987,-0.24 -0.479996,-0.08 -1.039992,-0.32 -1.439989,-0.56 v -1.92 c 0.239998,0.16 0.479996,0.32 0.799994,0.48 0.239998,0.16 0.559996,0.24 0.799994,0.32 0.319998,0.08 0.559996,0.16 0.799994,0.24 0.319998,0.08 0.559996,0.08 0.799994,0.08 0.879994,0 1.519989,-0.24 1.919986,-0.64 0.399997,-0.4 0.639995,-0.95998 0.639995,-1.67998 0,-0.4 -0.08,-0.72 -0.239998,-0.96 -0.159999,-0.32 -0.399997,-0.56 -0.639995,-0.72 -0.319998,-0.16 -0.639996,-0.3199 -1.039993,-0.4 -0.399997,-0.1599 -0.799994,-0.1599 -1.27999,-0.1599 h -1.039992 v -1.76 h 0.639995 c 0.559996,0 1.039992,0 1.439989,-0.16 0.399997,-0.08 0.719995,-0.24 0.959993,-0.48 0.239998,-0.24 0.479997,-0.48 0.559996,-0.72 0.159999,-0.32 0.239998,-0.64 0.239998,-0.96001 0,-0.32 -0.08,-0.64 -0.239998,-0.88 -0.08,-0.24 -0.239998,-0.48 -0.399997,-0.64 -0.159999,-0.16 -0.399997,-0.24 -0.639995,-0.32 -0.319998,-0.08 -0.559996,-0.08 -0.879994,-0.08 -0.159999,0 -0.399997,0 -0.639995,0 -0.319998,0.08 -0.559996,0.16 -0.799994,0.24 -0.319998,0.08 -0.559996,0.24 -0.879994,0.32 -0.239998,0.16 -0.559996,0.32 -0.799994,0.48 v -1.84 c 0.559996,-0.32 1.039993,-0.56 1.599988,-0.64 0.559996,-0.16 1.119992,-0.24 1.759987,-0.24 0.639996,0 1.199991,0.08 1.679988,0.24 0.479996,0.16 0.879993,0.4 1.199991,0.72 0.399997,0.24 0.639995,0.64 0.799994,1.04 0.159999,0.48 0.239998,0.96 0.239998,1.44 0,0.40001 0,0.80001 -0.159999,1.12001 -0.159999,0.32 -0.319997,0.64 -0.559996,0.96 -0.159998,0.24 -0.479996,0.48 -0.799993,0.64 -0.239999,0.24 -0.639996,0.4 -0.959993,0.56 0.479996,0.08 0.879993,0.24 1.199991,0.4 0.399997,0.16 0.719994,0.4 0.959992,0.7199 0.319998,0.24 0.479997,0.56 0.639996,0.88 0.159998,0.32 0.239998,0.72 0.239998,1.04 z"
             id="path858" />
          <path
             inkscape:connector-curvature="0"
             style="fill:#e5d5ff;fill-opacity:1;fill-rule:nonzero;stroke:none"
             d="m -52.473838,997.42382 c 0,0.56 -0.159999,1.12 -0.399997,1.6 -0.159999,0.56 -0.479997,0.96 -0.879994,1.27998 -0.479996,0.4 -0.959992,0.64 -1.519988,0.8 -0.559996,0.24 -1.199991,0.32 -1.919986,0.32 -0.559996,0 -1.199991,-0.08 -1.759987,-0.16 -0.479996,-0.16 -1.039992,-0.32 -1.439989,-0.64 v -1.91998 c 0.239998,0.24 0.479996,0.32 0.799994,0.48 0.239998,0.16 0.559996,0.24 0.799994,0.32 0.319998,0.16 0.559996,0.16 0.799994,0.24 0.319998,0.08 0.559996,0.08 0.799994,0.08 0.879994,0 1.519989,-0.24 1.919986,-0.64 0.399997,-0.4 0.639995,-0.96 0.639995,-1.68 0,-0.4 -0.08,-0.7199 -0.239998,-0.9599 -0.159999,-0.32 -0.399997,-0.48 -0.639995,-0.72 -0.319998,-0.16 -0.639996,-0.32 -1.039993,-0.4 -0.399997,-0.08 -0.799994,-0.16 -1.27999,-0.16 h -1.039992 v -1.68 h 0.639995 c 0.559996,0 1.039992,-0.08 1.439989,-0.24 0.399997,-0.08 0.719995,-0.24 0.959993,-0.48 0.239998,-0.16001 0.479997,-0.48001 0.559996,-0.72001 0.159999,-0.32 0.239998,-0.56 0.239998,-0.96 0,-0.32 -0.08,-0.64 -0.239998,-0.88 -0.08,-0.24 -0.239998,-0.48 -0.399997,-0.56 -0.159999,-0.16 -0.399997,-0.32 -0.639995,-0.4 -0.319998,-0.08 -0.559996,-0.08 -0.879994,-0.08 -0.159999,0 -0.399997,0 -0.639995,0.08 -0.319998,0 -0.559996,0.08 -0.799994,0.16 -0.319998,0.16 -0.559996,0.24 -0.879994,0.4 -0.239998,0.08 -0.559996,0.24 -0.799994,0.4 v -1.84 c 0.559996,-0.24 1.039993,-0.48 1.599988,-0.64 0.559996,-0.16 1.119992,-0.24 1.759987,-0.24 0.639996,0 1.199991,0.08 1.679988,0.24 0.479996,0.16 0.879993,0.4 1.199991,0.72 0.399997,0.32 0.639995,0.64 0.799994,1.12 0.159999,0.4 0.239998,0.88 0.239998,1.44 0,0.4 0,0.72 -0.159999,1.04 -0.159999,0.32 -0.319997,0.64001 -0.559996,0.96001 -0.159998,0.24 -0.479996,0.48 -0.799993,0.72 -0.239999,0.16 -0.639996,0.32 -0.959993,0.48 0.479996,0.08 0.879993,0.24 1.199991,0.4 0.399997,0.16 0.719994,0.4 0.959992,0.72 0.319998,0.24 0.479997,0.56 0.639996,0.88 0.159998,0.32 0.239998,0.7199 0.239998,1.1199 z"
             id="path864" />
        </g>
      </g>
    </g>
  </g>
</svg>
