<?xml version="1.0" encoding="UTF-8" standalone="no"?>
<!-- Created with Inkscape (http://www.inkscape.org/) -->

<svg
   xmlns:dc="http://purl.org/dc/elements/1.1/"
   xmlns:cc="http://creativecommons.org/ns#"
   xmlns:rdf="http://www.w3.org/1999/02/22-rdf-syntax-ns#"
   xmlns:svg="http://www.w3.org/2000/svg"
   xmlns="http://www.w3.org/2000/svg"
   xmlns:xlink="http://www.w3.org/1999/xlink"
   xmlns:sodipodi="http://sodipodi.sourceforge.net/DTD/sodipodi-0.dtd"
   xmlns:inkscape="http://www.inkscape.org/namespaces/inkscape"
   width="100"
   height="50"
   viewBox="0 0 100 50"
   id="svg2"
   version="1.1"
   inkscape:version="0.92.1 r15371"
   sodipodi:docname="btn_broadcast_unconnected.svg">
  <defs
     id="defs4">
    <linearGradient
       inkscape:collect="always"
       id="linearGradient4194">
      <stop
         style="stop-color:#808080;stop-opacity:1"
         offset="0"
         id="stop4196" />
      <stop
         style="stop-color:#333333;stop-opacity:1"
         offset="1"
         id="stop4198" />
    </linearGradient>
    <pattern
       y="0"
       x="0"
       height="6"
       width="6"
       patternUnits="userSpaceOnUse"
       id="EMFhbasepattern" />
    <radialGradient
       inkscape:collect="always"
       xlink:href="#linearGradient4194"
       id="radialGradient4200"
       cx="50.78125"
       cy="1049.6594"
       fx="50.78125"
       fy="1049.6594"
       r="44.891933"
       gradientTransform="matrix(4.5068433,0,0,0.59937525,-178.10739,410.23205)"
       gradientUnits="userSpaceOnUse" />
    <radialGradient
       inkscape:collect="always"
       xlink:href="#linearGradient4733"
       id="radialGradient4725-4-0-0"
       cx="767.87915"
       cy="167.87471"
       fx="767.87915"
       fy="167.87445"
       r="24.596836"
       gradientTransform="matrix(2.596756,2.6998413e-4,0,0.83840368,-1944.1165,885.80401)"
       gradientUnits="userSpaceOnUse" />
    <linearGradient
       inkscape:collect="always"
       id="linearGradient4733">
      <stop
         style="stop-color:#2d1650;stop-opacity:1"
         offset="0"
         id="stop4735" />
      <stop
         style="stop-color:#000000;stop-opacity:1"
         offset="1"
         id="stop4737" />
    </linearGradient>
  </defs>
  <sodipodi:namedview
     id="base"
     pagecolor="#ffffff"
     bordercolor="#666666"
     borderopacity="1.0"
     inkscape:pageopacity="0.0"
     inkscape:pageshadow="2"
     inkscape:zoom="11.313709"
     inkscape:cx="46.809546"
     inkscape:cy="21.215481"
     inkscape:document-units="px"
     inkscape:current-layer="layer1"
     showgrid="false"
     units="px"
     inkscape:window-width="1920"
     inkscape:window-height="1028"
     inkscape:window-x="-8"
     inkscape:window-y="-8"
     inkscape:window-maximized="1"
     showguides="true"
     inkscape:guide-bbox="true">
    <sodipodi:guide
       position="51.660157,7.2265625"
       orientation="0,1"
       id="guide4190"
       inkscape:locked="false" />
    <sodipodi:guide
       position="-1.5191747,39.912863"
       orientation="0,1"
       id="guide4192"
       inkscape:locked="false" />
  </sodipodi:namedview>
  <metadata
     id="metadata7">
    <rdf:RDF>
      <cc:Work
         rdf:about="">
        <dc:format>image/svg+xml</dc:format>
        <dc:type
           rdf:resource="http://purl.org/dc/dcmitype/StillImage" />
        <dc:title />
        <dc:creator>
          <cc:Agent>
            <dc:title>Jorge Rosa</dc:title>
          </cc:Agent>
        </dc:creator>
        <dc:description>Email: jorge.bigarte@gmail.com
Site:https://sites.google.com/site/jorgerosaportfolio</dc:description>
      </cc:Work>
    </rdf:RDF>
  </metadata>
  <g
     inkscape:label="Layer 1"
     inkscape:groupmode="layer"
     id="layer1"
     transform="translate(0,-1002.3622)">
    <path
       inkscape:connector-curvature="0"
       id="rect4183-39-0-0-1-8-73"
       d="M 7.8619336,1008.8737 H 92.069013 v 35.4914 H 7.8619337 Z"
       style="opacity:1;fill:url(#radialGradient4725-4-0-0);fill-opacity:1;stroke:none;stroke-width:1.08249187;stroke-linecap:round;stroke-linejoin:round;stroke-miterlimit:4;stroke-dasharray:none;stroke-dashoffset:0;stroke-opacity:1" />
    <path
       inkscape:connector-curvature="0"
       id="rect4183-39-0-0-1-8-78-2"
       d="M 7.1058525,1045.3186 H 92.894148 v -36.9128 H 7.1058525 Z"
       style="opacity:1;fill:none;fill-opacity:1;stroke:url(#radialGradient4200);stroke-width:2.08720064;stroke-linecap:round;stroke-linejoin:round;stroke-miterlimit:4;stroke-dasharray:none;stroke-dashoffset:0;stroke-opacity:1" />
    <g
       id="g4174"
       transform="translate(0.69181836,-1.9090094)">
      <g
         transform="matrix(1.5611604,0,0,1.6332663,9.6762473,-670.43031)"
         id="text4146-8-6-5"
         style="font-style:normal;font-variant:normal;font-weight:normal;font-stretch:normal;font-size:11.08728409px;line-height:100%;font-family:'Estrangelo Edessa';-inkscape-font-specification:'Estrangelo Edessa, Normal';text-align:start;letter-spacing:0px;word-spacing:0px;writing-mode:lr-tb;text-anchor:start;opacity:1;fill:#553289;fill-opacity:1;stroke:none;stroke-width:1px;stroke-linecap:butt;stroke-linejoin:miter;stroke-opacity:1">
        <path
           inkscape:connector-curvature="0"
           id="path4198-2"
           d="m 20.10761,1040.3694 q 0,-0.6388 -0.140757,-1.1422 -0.140756,-0.5089 -0.416856,-0.8608 -0.276099,-0.3519 -0.682127,-0.536 -0.406029,-0.1895 -0.936573,-0.1895 -0.508889,0 -0.925745,0.2003 -0.411442,0.1949 -0.703782,0.5522 -0.292341,0.3573 -0.454752,0.8608 -0.156998,0.4981 -0.156998,1.1044 0,0.6064 0.151584,1.1044 0.151584,0.4981 0.433097,0.85 0.286927,0.3519 0.687542,0.5468 0.406028,0.1948 0.90409,0.1948 0.530544,0 0.9474,-0.1786 0.416855,-0.1841 0.703782,-0.5251 0.286927,-0.3465 0.438511,-0.8446 0.151584,-0.5034 0.151584,-1.1369 z m 1.09357,-0.1136 q 0,0.8499 -0.23279,1.5375 -0.227376,0.6821 -0.660473,1.1639 -0.427683,0.4764 -1.044846,0.7363 -0.617164,0.2544 -1.396738,0.2544 -0.747093,0 -1.353428,-0.249 -0.606336,-0.2545 -1.03402,-0.7146 -0.427683,-0.4656 -0.660473,-1.1153 -0.232789,-0.6496 -0.232789,-1.4454 0,-0.8337 0.227376,-1.5104 0.232789,-0.6822 0.6713,-1.1586 0.438511,-0.4818 1.066501,-0.7417 0.633405,-0.2598 1.434634,-0.2598 0.730852,0 1.32636,0.2544 0.595509,0.2545 1.012364,0.7201 0.42227,0.4601 0.649646,1.1044 0.227376,0.6442 0.227376,1.4238 z"
           style="fill:#553289;fill-opacity:1" />
        <path
           inkscape:connector-curvature="0"
           id="path4200-8"
           d="m 28.877825,1043.8505 h -1.044847 l -3.42688,-4.5476 q -0.0379,-0.043 -0.129929,-0.1732 -0.08662,-0.1353 -0.18948,-0.2923 -0.09745,-0.157 -0.18948,-0.3086 -0.09203,-0.1516 -0.135343,-0.2328 v 5.5545 h -0.985295 v -7.0054 h 1.120638 l 3.269883,4.3905 q 0.08121,0.1137 0.18948,0.2761 0.108274,0.157 0.211134,0.3249 0.102861,0.1624 0.18948,0.314 0.09203,0.1461 0.140757,0.2382 v -5.5437 h 0.979882 z"
           style="fill:#553289;fill-opacity:1" />
        <path
           inkscape:connector-curvature="0"
           id="path4202-7"
           d="m 38.671232,1043.8505 h -1.142294 l -0.784988,-2.0085 h -2.696029 l -0.730851,2.0085 h -1.142294 l 2.717684,-7.0054 h 1.028606 z m -3.13454,-5.3217 q -0.02707,-0.076 -0.07038,-0.2166 -0.0379,-0.1461 -0.06496,-0.3031 h -0.02166 q -0.02707,0.1678 -0.07038,0.314 -0.0379,0.1407 -0.07579,0.2382 l -0.849953,2.3495 h 2.04097 l -0.887849,-2.382 z"
           style="fill:#553289;fill-opacity:1" />
        <path
           inkscape:connector-curvature="0"
           id="path4204-6"
           d="m 40.733857,1043.8505 h -1.066502 v -7.0054 h 1.066502 z"
           style="fill:#553289;fill-opacity:1" />
        <path
           inkscape:connector-curvature="0"
           id="path4206-8"
           d="m 45.763195,1038.7183 q 0,-0.5035 -0.362718,-0.7309 -0.357305,-0.2328 -1.104398,-0.2328 h -0.573853 v 2.1384 h 0.519716 q 0.736265,0 1.126052,-0.3085 0.395201,-0.314 0.395201,-0.8662 z m 1.651183,5.1322 h -1.255981 l -1.948937,-3.0913 h -0.487234 v 3.0913 h -1.066502 v -7.0054 h 1.586218 q 0.557613,0 1.039433,0.092 0.48182,0.087 0.833712,0.3031 0.357305,0.2112 0.557612,0.563 0.205721,0.3519 0.205721,0.8825 0,0.3898 -0.140756,0.7092 -0.135343,0.3194 -0.362719,0.5576 -0.221962,0.2382 -0.514303,0.4006 -0.29234,0.157 -0.600922,0.2274 l 2.154658,3.2699 z"
           style="fill:#553289;fill-opacity:1" />
      </g>
    </g>
    <g
       transform="translate(3.75e-4,-1.1177012)"
       id="g990"
       style="fill:#553289;fill-opacity:1">
      <path
         inkscape:connector-curvature="0"
         id="path4293-5"
         d="m 21.486328,1022.8477 -0.832031,0.01 -3.216797,14.6836 0.833984,0.1836 2.8125,-12.8379 2.978516,12.8223 0.832031,-0.1934 z"
         style="color:#000000;font-style:normal;font-variant:normal;font-weight:normal;font-stretch:normal;font-size:medium;line-height:100%;font-family:'Estrangelo Edessa';-inkscape-font-specification:'Estrangelo Edessa, Normal';font-variant-ligatures:normal;font-variant-position:normal;font-variant-caps:normal;font-variant-numeric:normal;font-variant-alternates:normal;font-feature-settings:normal;text-indent:0;text-align:start;text-decoration:none;text-decoration-line:none;text-decoration-style:solid;text-decoration-color:#000000;letter-spacing:0px;word-spacing:0px;text-transform:none;writing-mode:lr-tb;direction:ltr;text-orientation:mixed;dominant-baseline:auto;baseline-shift:baseline;text-anchor:start;white-space:normal;shape-padding:0;clip-rule:nonzero;display:inline;overflow:visible;visibility:visible;opacity:1;isolation:auto;mix-blend-mode:normal;color-interpolation:sRGB;color-interpolation-filters:linearRGB;solid-color:#000000;solid-opacity:1;vector-effect:none;fill:#553289;fill-opacity:1;fill-rule:evenodd;stroke:none;stroke-width:0.85349411;stroke-linecap:butt;stroke-linejoin:miter;stroke-miterlimit:4;stroke-dasharray:none;stroke-dashoffset:0;stroke-opacity:1;color-rendering:auto;image-rendering:auto;shape-rendering:auto;text-rendering:auto;enable-background:accumulate" />
      <path
         sodipodi:nodetypes="ccccccccccccccccccccccccccccccc"
         inkscape:connector-curvature="0"
         id="path4295-9"
         transform="translate(0,1002.3622)"
         d="M 20.21027,24.681697 19.962891,25.268 20.729,26.460938 l -1.814938,2.007812 1.480469,0.958984 -1.591797,1.117217 1.716797,1.308565 -2.197265,1.517578 0.03858,0.884747 2.803205,-1.878888 2.795966,1.949543 0.143503,-0.994465 -2.091797,-1.472656 1.497723,-1.356326 -1.634442,-1.133908 1.310547,-1.001953 L 21.427,26.457031 22.183594,25.264 22.01291,24.652582 21.074219,25.78125 Z M 21.080078,27.136719 22.269,28.123 21.113281,28.876953 19.972,28.168 Z m 0.07592,2.783203 1.282911,0.62359 -1.270958,0.792426 -1.321953,-0.71875 z"
         style="color:#000000;font-style:normal;font-variant:normal;font-weight:normal;font-stretch:normal;font-size:medium;line-height:100%;font-family:'Estrangelo Edessa';-inkscape-font-specification:'Estrangelo Edessa, Normal';font-variant-ligatures:normal;font-variant-position:normal;font-variant-caps:normal;font-variant-numeric:normal;font-variant-alternates:normal;font-feature-settings:normal;text-indent:0;text-align:start;text-decoration:none;text-decoration-line:none;text-decoration-style:solid;text-decoration-color:#000000;letter-spacing:0px;word-spacing:0px;text-transform:none;writing-mode:lr-tb;direction:ltr;text-orientation:mixed;dominant-baseline:auto;baseline-shift:baseline;text-anchor:start;white-space:normal;shape-padding:0;clip-rule:nonzero;display:inline;overflow:visible;visibility:visible;opacity:1;isolation:auto;mix-blend-mode:normal;color-interpolation:sRGB;color-interpolation-filters:linearRGB;solid-color:#000000;solid-opacity:1;vector-effect:none;fill:#553289;fill-opacity:1;fill-rule:evenodd;stroke:none;stroke-width:0.85349411;stroke-linecap:butt;stroke-linejoin:miter;stroke-miterlimit:4;stroke-dasharray:none;stroke-dashoffset:0;stroke-opacity:1;color-rendering:auto;image-rendering:auto;shape-rendering:auto;text-rendering:auto;enable-background:accumulate" />
      <path
         sodipodi:nodetypes="ssccccccssssccccccssssccccccss"
         inkscape:connector-curvature="0"
         id="path888"
         transform="translate(0,1002.3622)"
         d="m 21.101562,12.966797 c -4.073979,0 -7.085937,2.715553 -7.085937,7.001953 0,3.237575 1.095639,5.251464 3.769531,6.416016 l 0.259766,-0.791016 c -1.980917,-0.961198 -3.050757,-2.117034 -3.232422,-5.625 0.319164,-7.94 12.190227,-8.2002 12.576172,0 0.03695,3.1163 -1.46939,4.469523 -3.334899,5.668524 L 24.268,26.427 c 2.580951,-1.216598 3.921453,-3.29625 3.921453,-6.45825 0,-4.2864 -3.01391,-7.001953 -7.087891,-7.001953 z m 0,1.632812 c -3.07516,0 -5.574218,2.248697 -5.574218,5.341797 0,2.205906 0.922567,4.104171 2.724609,5.021485 l 0.275391,-0.833985 c -1.340517,-0.805062 -2.171875,-2.501238 -2.171875,-4.1875 0.240915,-5.7296 9.200864,-5.9173 9.492187,0 0,1.656125 -0.971935,3.431807 -2.296875,4.240649 l 0.291016,0.837891 c 1.781496,-0.933231 2.835937,-2.906233 2.835937,-5.07854 0,-3.0931 -2.50101,-5.341797 -5.576172,-5.341797 z m 0,1.564453 c -2.24612,0 -4.072265,1.641091 -4.072265,3.900391 0,1.483193 0.566988,2.780056 1.683594,3.5 l 0.267578,-0.8125 c -0.804578,-0.588142 -1.226563,-1.563896 -1.226563,-2.6875 0.248258,-4.185 6.268821,-4.1871 6.59375,0 0,1.171003 -0.366592,2.178453 -1.230468,2.755859 l 0.27539,0.798829 c 1.190527,-0.706076 1.78125,-2.028975 1.78125,-3.554688 0,-2.2593 -1.826144,-3.900391 -4.072266,-3.900391 z"
         style="fill:#553289;fill-opacity:1;stroke:none;stroke-width:1px;stroke-linecap:butt;stroke-linejoin:miter;stroke-opacity:1" />
    </g>
  </g>
</svg>
