<?xml version="1.0" encoding="UTF-8" standalone="no"?>
<!-- Created with Inkscape (http://www.inkscape.org/) -->

<svg
   xmlns:dc="http://purl.org/dc/elements/1.1/"
   xmlns:cc="http://creativecommons.org/ns#"
   xmlns:rdf="http://www.w3.org/1999/02/22-rdf-syntax-ns#"
   xmlns:svg="http://www.w3.org/2000/svg"
   xmlns="http://www.w3.org/2000/svg"
   xmlns:xlink="http://www.w3.org/1999/xlink"
   xmlns:sodipodi="http://sodipodi.sourceforge.net/DTD/sodipodi-0.dtd"
   xmlns:inkscape="http://www.inkscape.org/namespaces/inkscape"
   width="50"
   height="20"
   viewBox="0 0 50 20"
   id="svg2"
   version="1.1"
   inkscape:version="0.92.1 r15371"
   sodipodi:docname="btn_effect_deck_right_over.svg">
  <defs
     id="defs4">
    <linearGradient
       inkscape:collect="always"
       id="linearGradient1019">
      <stop
         style="stop-color:#5c3e8a;stop-opacity:1;"
         offset="0"
         id="stop1015" />
      <stop
         style="stop-color:#000000;stop-opacity:1"
         offset="1"
         id="stop1017" />
    </linearGradient>
    <linearGradient
       inkscape:collect="always"
       id="linearGradient857">
      <stop
         style="stop-color:#140a2c;stop-opacity:1"
         offset="0"
         id="stop853" />
      <stop
         style="stop-color:#000000;stop-opacity:1"
         offset="1"
         id="stop855" />
    </linearGradient>
    <radialGradient
       inkscape:collect="always"
       xlink:href="#linearGradient857"
       id="radialGradient859-4"
       cx="50.908852"
       cy="1042.0057"
       fx="50.908852"
       fy="1042.0057"
       r="6.801218"
       gradientUnits="userSpaceOnUse"
       gradientTransform="matrix(1.447558,-3.8441846e-7,3.4348356e-7,1.2934144,-22.785016,-305.73946)" />
    <radialGradient
       inkscape:collect="always"
       xlink:href="#linearGradient4733"
       id="radialGradient4725-4-0-0"
       cx="767.9574"
       cy="166.66353"
       fx="767.9574"
       fy="166.66327"
       r="24.596836"
       gradientTransform="matrix(0.8657616,1.6247577e-7,3.7676762e-5,0.63495978,-599.99497,933.72596)"
       gradientUnits="userSpaceOnUse" />
    <linearGradient
       inkscape:collect="always"
       id="linearGradient4733">
      <stop
         style="stop-color:#8d5fd3;stop-opacity:1"
         offset="0"
         id="stop4735" />
      <stop
         style="stop-color:#000000;stop-opacity:1"
         offset="1"
         id="stop4737" />
    </linearGradient>
    <radialGradient
       inkscape:collect="always"
       xlink:href="#linearGradient1019"
       id="radialGradient1021"
       cx="40.659298"
       cy="1042.0994"
       fx="40.659298"
       fy="1042.0994"
       r="5.3710832"
       gradientUnits="userSpaceOnUse"
       gradientTransform="matrix(1.9757089,2.7130892e-8,-2.2730084e-8,1.655236,-39.671612,-682.82106)" />
    <radialGradient
       inkscape:collect="always"
       xlink:href="#linearGradient1019"
       id="radialGradient1043"
       gradientUnits="userSpaceOnUse"
       gradientTransform="matrix(2.5424374,1.3730893e-8,-1.2221956e-8,2.2630398,-92.414319,-1316.213)"
       cx="40.659298"
       cy="1042.0994"
       fx="40.659298"
       fy="1042.0994"
       r="5.3710832" />
  </defs>
  <sodipodi:namedview
     id="base"
     pagecolor="#ffffff"
     bordercolor="#666666"
     borderopacity="1.0"
     inkscape:pageopacity="0.0"
     inkscape:pageshadow="2"
     inkscape:zoom="8.0143238"
     inkscape:cx="38.216822"
     inkscape:cy="-11.183698"
     inkscape:document-units="px"
     inkscape:current-layer="g1041"
     showgrid="false"
     units="px"
     inkscape:window-width="1920"
     inkscape:window-height="1028"
     inkscape:window-x="-8"
     inkscape:window-y="-8"
     inkscape:window-maximized="1"
     showguides="true"
     inkscape:guide-bbox="true" />
  <metadata
     id="metadata7">
    <rdf:RDF>
      <cc:Work
         rdf:about="">
        <dc:format>image/svg+xml</dc:format>
        <dc:type
           rdf:resource="http://purl.org/dc/dcmitype/StillImage" />
        <dc:title></dc:title>
      </cc:Work>
    </rdf:RDF>
  </metadata>
  <g
     inkscape:label="Layer 1"
     inkscape:groupmode="layer"
     id="layer1"
     transform="translate(0,-1032.3622)">
    <circle
       style="opacity:1;fill:url(#radialGradient859-4);fill-opacity:1;stroke:#3c3c3c;stroke-width:0.40000001;stroke-miterlimit:4;stroke-dasharray:none;stroke-opacity:1"
       id="path827-3"
       cy="1042.0057"
       cx="50.908852"
       r="0" />
    <g
       id="g1041"
       transform="translate(-0.79630155)">
      <circle
         r="5.2210832"
         cx="10.959385"
         cy="1042.0994"
         id="path827"
         style="opacity:1;fill:url(#radialGradient1043);fill-opacity:1;stroke:#969696;stroke-width:0.5;stroke-miterlimit:4;stroke-dasharray:none;stroke-opacity:1" />
      <g
         transform="translate(-58.28201,201.46271)"
         id="g5502">
        <g
           transform="translate(0,0.60335)"
           aria-label="EFFECT"
           style="font-style:normal;font-weight:normal;font-size:8.677248px;line-height:1.25;font-family:sans-serif;letter-spacing:0px;word-spacing:0px;fill:#000000;fill-opacity:1;stroke:none;stroke-width:0.21693121"
           id="text5440-0">
          <path
             inkscape:connector-curvature="0"
             d="m 82.88561,843.79163 h -2.741298 v -5.4826 h 2.732824 v 0.7118 h -1.906622 v 1.66512 h 1.915096 v 0.70333 h -1.915096 v 1.69901 h 1.915096 z"
             style="font-style:normal;font-variant:normal;font-weight:normal;font-stretch:normal;font-family:'Estrangelo Edessa';-inkscape-font-specification:'Estrangelo Edessa';fill:#000000;fill-opacity:1;stroke-width:0.21693121"
             id="path5442-1" />
          <path
             inkscape:connector-curvature="0"
             d="m 86.910701,839.02083 h -1.906622 v 1.64817 h 1.915096 v 0.70333 h -1.915096 v 2.4193 h -0.826203 v -5.4826 h 2.732825 z"
             style="font-style:normal;font-variant:normal;font-weight:normal;font-stretch:normal;font-family:'Estrangelo Edessa';-inkscape-font-specification:'Estrangelo Edessa';fill:#000000;fill-opacity:1;stroke-width:0.21693121"
             id="path5444-6" />
          <path
             inkscape:connector-curvature="0"
             d="m 90.808683,839.02083 h -1.906621 v 1.64817 h 1.915095 v 0.70333 h -1.915095 v 2.4193 h -0.826203 v -5.4826 h 2.732824 z"
             style="font-style:normal;font-variant:normal;font-weight:normal;font-stretch:normal;font-family:'Estrangelo Edessa';-inkscape-font-specification:'Estrangelo Edessa';fill:#000000;fill-opacity:1;stroke-width:0.21693121"
             id="path5446-5" />
          <path
             inkscape:connector-curvature="0"
             d="m 94.732088,843.79163 h -2.741299 v -5.4826 h 2.732825 v 0.7118 h -1.906622 v 1.66512 h 1.915096 v 0.70333 h -1.915096 v 1.69901 h 1.915096 z"
             style="font-style:normal;font-variant:normal;font-weight:normal;font-stretch:normal;font-family:'Estrangelo Edessa';-inkscape-font-specification:'Estrangelo Edessa';fill:#000000;fill-opacity:1;stroke-width:0.21693121"
             id="path5448-9" />
          <path
             inkscape:connector-curvature="0"
             d="m 96.630236,841.10964 q 0,0.46183 0.131345,0.84316 0.135582,0.37708 0.377087,0.64825 0.245743,0.27116 0.584698,0.41945 0.343192,0.1483 0.758411,0.1483 0.385562,0 0.762649,-0.10169 0.381325,-0.10169 0.728753,-0.29235 v 0.74994 q -0.31777,0.16948 -0.711805,0.25845 -0.394035,0.0847 -0.860098,0.0847 -0.580461,0 -1.067709,-0.20337 -0.483011,-0.20338 -0.834676,-0.56775 -0.347429,-0.36438 -0.542328,-0.86857 -0.190663,-0.50844 -0.190663,-1.11856 0,-0.62706 0.20761,-1.15244 0.20761,-0.52962 0.571987,-0.91094 0.368614,-0.38133 0.868572,-0.59318 0.504196,-0.21608 1.09313,-0.21608 0.199136,0 0.402509,0.0254 0.203373,0.0212 0.398272,0.0636 0.194899,0.0381 0.368614,0.0932 0.177951,0.0508 0.322007,0.1144 v 0.7457 q -0.148293,-0.0636 -0.330481,-0.12711 -0.182188,-0.0636 -0.377088,-0.11016 -0.194899,-0.0508 -0.398272,-0.0805 -0.203373,-0.0297 -0.394035,-0.0297 -0.398272,0 -0.741464,0.15677 -0.338955,0.15253 -0.588934,0.4364 -0.24998,0.28387 -0.394035,0.68638 -0.144056,0.40251 -0.144056,0.89823 z"
             style="font-style:normal;font-variant:normal;font-weight:normal;font-stretch:normal;font-family:'Estrangelo Edessa';-inkscape-font-specification:'Estrangelo Edessa';fill:#000000;fill-opacity:1;stroke-width:0.21693121"
             id="path5450-5" />
          <path
             inkscape:connector-curvature="0"
             d="m 104.37112,839.02083 h -1.38124 v 4.7708 h -0.83044 v -4.7708 h -1.38972 v -0.7118 h 3.6014 z"
             style="font-style:normal;font-variant:normal;font-weight:normal;font-stretch:normal;font-family:'Estrangelo Edessa';-inkscape-font-specification:'Estrangelo Edessa';fill:#000000;fill-opacity:1;stroke-width:0.21693121"
             id="path5452-0" />
        </g>
        <g
           aria-label="EFFECT"
           style="font-style:normal;font-weight:normal;font-size:8.677248px;line-height:1.25;font-family:sans-serif;letter-spacing:0px;word-spacing:0px;fill:#b4b4b4;fill-opacity:1;stroke:none;stroke-width:0.21693121"
           id="text5440">
          <path
             inkscape:connector-curvature="0"
             d="m 82.88561,843.79163 h -2.741298 v -5.4826 h 2.732824 v 0.7118 h -1.906622 v 1.66512 h 1.915096 v 0.70333 h -1.915096 v 1.69901 h 1.915096 z"
             style="font-style:normal;font-variant:normal;font-weight:normal;font-stretch:normal;font-family:'Estrangelo Edessa';-inkscape-font-specification:'Estrangelo Edessa';fill:#b4b4b4;fill-opacity:1;stroke-width:0.21693121"
             id="path5442" />
          <path
             inkscape:connector-curvature="0"
             d="m 86.910701,839.02083 h -1.906622 v 1.64817 h 1.915096 v 0.70333 h -1.915096 v 2.4193 h -0.826203 v -5.4826 h 2.732825 z"
             style="font-style:normal;font-variant:normal;font-weight:normal;font-stretch:normal;font-family:'Estrangelo Edessa';-inkscape-font-specification:'Estrangelo Edessa';fill:#b4b4b4;fill-opacity:1;stroke-width:0.21693121"
             id="path5444" />
          <path
             inkscape:connector-curvature="0"
             d="m 90.808683,839.02083 h -1.906621 v 1.64817 h 1.915095 v 0.70333 h -1.915095 v 2.4193 h -0.826203 v -5.4826 h 2.732824 z"
             style="font-style:normal;font-variant:normal;font-weight:normal;font-stretch:normal;font-family:'Estrangelo Edessa';-inkscape-font-specification:'Estrangelo Edessa';fill:#b4b4b4;fill-opacity:1;stroke-width:0.21693121"
             id="path5446" />
          <path
             inkscape:connector-curvature="0"
             d="m 94.732088,843.79163 h -2.741299 v -5.4826 h 2.732825 v 0.7118 h -1.906622 v 1.66512 h 1.915096 v 0.70333 h -1.915096 v 1.69901 h 1.915096 z"
             style="font-style:normal;font-variant:normal;font-weight:normal;font-stretch:normal;font-family:'Estrangelo Edessa';-inkscape-font-specification:'Estrangelo Edessa';fill:#b4b4b4;fill-opacity:1;stroke-width:0.21693121"
             id="path5448" />
          <path
             inkscape:connector-curvature="0"
             d="m 96.630236,841.10964 q 0,0.46183 0.131345,0.84316 0.135582,0.37708 0.377087,0.64825 0.245743,0.27116 0.584698,0.41945 0.343192,0.1483 0.758411,0.1483 0.385562,0 0.762649,-0.10169 0.381325,-0.10169 0.728753,-0.29235 v 0.74994 q -0.31777,0.16948 -0.711805,0.25845 -0.394035,0.0847 -0.860098,0.0847 -0.580461,0 -1.067709,-0.20337 -0.483011,-0.20338 -0.834676,-0.56775 -0.347429,-0.36438 -0.542328,-0.86857 -0.190663,-0.50844 -0.190663,-1.11856 0,-0.62706 0.20761,-1.15244 0.20761,-0.52962 0.571987,-0.91094 0.368614,-0.38133 0.868572,-0.59318 0.504196,-0.21608 1.09313,-0.21608 0.199136,0 0.402509,0.0254 0.203373,0.0212 0.398272,0.0636 0.194899,0.0381 0.368614,0.0932 0.177951,0.0508 0.322007,0.1144 v 0.7457 q -0.148293,-0.0636 -0.330481,-0.12711 -0.182188,-0.0636 -0.377088,-0.11016 -0.194899,-0.0508 -0.398272,-0.0805 -0.203373,-0.0297 -0.394035,-0.0297 -0.398272,0 -0.741464,0.15677 -0.338955,0.15253 -0.588934,0.4364 -0.24998,0.28387 -0.394035,0.68638 -0.144056,0.40251 -0.144056,0.89823 z"
             style="font-style:normal;font-variant:normal;font-weight:normal;font-stretch:normal;font-family:'Estrangelo Edessa';-inkscape-font-specification:'Estrangelo Edessa';fill:#b4b4b4;fill-opacity:1;stroke-width:0.21693121"
             id="path5450" />
          <path
             inkscape:connector-curvature="0"
             d="m 104.37112,839.02083 h -1.38124 v 4.7708 h -0.83044 v -4.7708 h -1.38972 v -0.7118 h 3.6014 z"
             style="font-style:normal;font-variant:normal;font-weight:normal;font-stretch:normal;font-family:'Estrangelo Edessa';-inkscape-font-specification:'Estrangelo Edessa';fill:#b4b4b4;fill-opacity:1;stroke-width:0.21693121"
             id="path5452" />
        </g>
      </g>
      <g
         style="opacity:1;fill:#e5d5ff;fill-opacity:1"
         transform="matrix(0.00335127,0,0,-0.00331119,8.3856096,1044.4304)"
         id="g4">
        <path
           d="M 1536,640 Q 1536,484 1475,342 1414,200 1311,97 1208,-6 1066,-67 924,-128 768,-128 612,-128 470,-67 328,-6 225,97 122,200 61,342 0,484 0,640 0,822 80.5,983 161,1144 307,1253 q 43,32 95.5,25 52.5,-7 83.5,-50 32,-42 24.5,-94.5 Q 503,1081 461,1049 363,975 309.5,868 256,761 256,640 256,536 296.5,441.5 337,347 406,278 475,209 569.5,168.5 664,128 768,128 872,128 966.5,168.5 1061,209 1130,278 q 69,69 109.5,163.5 40.5,94.5 40.5,198.5 0,121 -53.5,228 -53.5,107 -151.5,181 -42,32 -49.5,84.5 -7.5,52.5 24.5,94.5 31,43 84,50 53,7 95,-25 146,-109 226.5,-270 Q 1536,822 1536,640 Z M 896,1408 V 768 q 0,-52 -38,-90 -38,-38 -90,-38 -52,0 -90,38 -38,38 -38,90 v 640 q 0,52 38,90 38,38 90,38 52,0 90,-38 38,-38 38,-90 z"
           id="path6"
           inkscape:connector-curvature="0"
           style="fill:#e5d5ff;fill-opacity:1" />
      </g>
    </g>
  </g>
</svg>
