<?xml version="1.0" encoding="UTF-8" standalone="no"?>
<!-- Created with Inkscape (http://www.inkscape.org/) -->

<svg
   xmlns:dc="http://purl.org/dc/elements/1.1/"
   xmlns:cc="http://creativecommons.org/ns#"
   xmlns:rdf="http://www.w3.org/1999/02/22-rdf-syntax-ns#"
   xmlns:svg="http://www.w3.org/2000/svg"
   xmlns="http://www.w3.org/2000/svg"
   xmlns:xlink="http://www.w3.org/1999/xlink"
   xmlns:sodipodi="http://sodipodi.sourceforge.net/DTD/sodipodi-0.dtd"
   xmlns:inkscape="http://www.inkscape.org/namespaces/inkscape"
   width="20"
   height="20"
   viewBox="0 0 20 20"
   id="svg2"
   version="1.1"
   inkscape:version="0.92.1 r15371"
   sodipodi:docname="btn_headphones_1.svg">
  <defs
     id="defs4">
    <linearGradient
       inkscape:collect="always"
       id="linearGradient4733">
      <stop
         style="stop-color:#170b28;stop-opacity:1"
         offset="0"
         id="stop4735" />
      <stop
         style="stop-color:#000000;stop-opacity:1"
         offset="1"
         id="stop4737" />
    </linearGradient>
    <radialGradient
       inkscape:collect="always"
       xlink:href="#linearGradient4733"
       id="radialGradient4725-4-0-0-5"
       cx="747.81494"
       cy="150.97885"
       fx="747.81494"
       fy="150.97859"
       r="24.596836"
       gradientTransform="matrix(0.39853297,1.7674267e-7,1.7378477e-5,0.36857454,-288.08349,986.06929)"
       gradientUnits="userSpaceOnUse" />
    <pattern
       y="0"
       x="0"
       height="6"
       width="6"
       patternUnits="userSpaceOnUse"
       id="EMFhbasepattern" />
    <pattern
       y="0"
       x="0"
       height="6"
       width="6"
       patternUnits="userSpaceOnUse"
       id="EMFhbasepattern-3" />
  </defs>
  <sodipodi:namedview
     id="base"
     pagecolor="#ffffff"
     bordercolor="#666666"
     borderopacity="1.0"
     inkscape:pageopacity="0.0"
     inkscape:pageshadow="2"
     inkscape:zoom="12.499655"
     inkscape:cx="-19.49824"
     inkscape:cy="6.951324"
     inkscape:document-units="px"
     inkscape:current-layer="layer1"
     showgrid="false"
     units="px"
     inkscape:window-width="1920"
     inkscape:window-height="1028"
     inkscape:window-x="-8"
     inkscape:window-y="-8"
     inkscape:window-maximized="1"
     showguides="false" />
  <metadata
     id="metadata7">
    <rdf:RDF>
      <cc:Work
         rdf:about="">
        <dc:format>image/svg+xml</dc:format>
        <dc:type
           rdf:resource="http://purl.org/dc/dcmitype/StillImage" />
        <dc:title />
        <dc:creator>
          <cc:Agent>
            <dc:title>Jorge Rosa</dc:title>
          </cc:Agent>
        </dc:creator>
        <dc:description>Email: jorge.bigarte@gmail.com
Site:https://sites.google.com/site/jorgerosaportfolio</dc:description>
      </cc:Work>
    </rdf:RDF>
  </metadata>
  <g
     inkscape:label="Layer 1"
     inkscape:groupmode="layer"
     id="layer1"
     transform="translate(0,-1032.3622)">
    <path
       style="opacity:1;fill:url(#radialGradient4725-4-0-0-5);fill-opacity:1;stroke:none;stroke-width:1.02858019;stroke-linecap:round;stroke-linejoin:round;stroke-miterlimit:4;stroke-dasharray:none;stroke-dashoffset:0;stroke-opacity:1"
       d="m 20,1032.3622 0,20 -20,0 0,-20 z"
       id="rect4183-39-0-0-1-8-1-0"
       inkscape:connector-curvature="0" />
    <path
       style="opacity:1;fill:none;fill-opacity:1;stroke:#1a1a1a;stroke-width:0.99276209;stroke-linecap:round;stroke-linejoin:round;stroke-miterlimit:4;stroke-dasharray:none;stroke-dashoffset:0;stroke-opacity:1"
       d="m 0.4963808,1032.8586 0,19.0072 19.0072382,0 0,-19.0072 z"
       id="rect4183-39-0-0-1-8-78-5-3"
       inkscape:connector-curvature="0" />
    <path
       id="path823"
       d="m 6.4554309,1038.8908 c 0,0 0,0 0,0 -0.6726909,0.6726 -1.0866553,2.3803 -1.1384007,3.4668 -0.051743,0.8797 1.1901469,2.3286 1.3971288,2.8978 0.4139644,1.5524 0.5692008,1.5524 1.5523651,1.6042 0.9314198,0.052 1.1901478,-0.6727 1.1901478,-1.2419 v -2.2252 c 0,-0.5692 -0.4139644,-0.9831 -0.8279288,-1.0349 -2.9494948,0.052 -0.8796743,3.7258 -2.7425122,0.3623 0.1034909,-2.4838 0.8796735,-2.7942 2.3802932,-3.1047 1.2936387,-0.2071 2.2250579,-0.1552 3.4669519,0 1.552364,0.207 2.380293,0.7244 2.380293,3.1047 -1.811093,3.1048 0.155236,-0.3623 -2.742513,-0.3623 -0.413964,0.052 -0.827929,0.4657 -0.827929,1.0349 v 2.2252 c 0,0.5692 0.258727,1.2419 1.190149,1.2419 0.983163,0 1.190146,-0.1035 1.552364,-1.6042 0.206983,-0.5692 1.448875,-2.0181 1.39713,-2.8978 -0.05175,-1.0865 -0.310474,-2.7942 -1.034911,-3.4668 0,0 0,0 0,0 -1.914583,-1.3972 -5.3815349,-1.3455 -7.1926281,0 z"
       style="opacity:0.8;fill:#8d5fd3;fill-opacity:1;fill-rule:nonzero;stroke:none;stroke-width:0.64682382"
       inkscape:connector-curvature="0" />
  </g>
</svg>
