<?xml version="1.0" encoding="UTF-8" standalone="no"?>
<!-- Created with Inkscape (http://www.inkscape.org/) -->

<svg
   xmlns:dc="http://purl.org/dc/elements/1.1/"
   xmlns:cc="http://creativecommons.org/ns#"
   xmlns:rdf="http://www.w3.org/1999/02/22-rdf-syntax-ns#"
   xmlns:svg="http://www.w3.org/2000/svg"
   xmlns="http://www.w3.org/2000/svg"
   xmlns:xlink="http://www.w3.org/1999/xlink"
   xmlns:sodipodi="http://sodipodi.sourceforge.net/DTD/sodipodi-0.dtd"
   xmlns:inkscape="http://www.inkscape.org/namespaces/inkscape"
   width="18"
   height="18"
   viewBox="0 0 18 18"
   id="svg2"
   version="1.1"
   inkscape:version="0.91 r13725"
   sodipodi:docname="btn_channel_4.svg">
  <defs
     id="defs4">
    <linearGradient
       inkscape:collect="always"
       id="linearGradient4172">
      <stop
         style="stop-color:#170b28;stop-opacity:1"
         offset="0"
         id="stop4174" />
      <stop
         style="stop-color:#000000;stop-opacity:1"
         offset="1"
         id="stop4176" />
    </linearGradient>
    <radialGradient
       inkscape:collect="always"
       xlink:href="#linearGradient4172"
       id="radialGradient4178"
       cx="37.890625"
       cy="1037.6161"
       fx="37.890625"
       fy="1037.6161"
       r="10.839844"
       gradientUnits="userSpaceOnUse"
       gradientTransform="matrix(0.90440288,0,0,0.91219558,13.714504,92.853381)" />
    <pattern
       y="0"
       x="0"
       height="6"
       width="6"
       patternUnits="userSpaceOnUse"
       id="EMFhbasepattern" />
  </defs>
  <sodipodi:namedview
     id="base"
     pagecolor="#ffffff"
     bordercolor="#666666"
     borderopacity="1.0"
     inkscape:pageopacity="0.0"
     inkscape:pageshadow="2"
     inkscape:zoom="40.96"
     inkscape:cx="7.209386"
     inkscape:cy="10.011879"
     inkscape:document-units="px"
     inkscape:current-layer="g4197"
     showgrid="false"
     units="px"
     inkscape:window-width="1920"
     inkscape:window-height="1028"
     inkscape:window-x="-8"
     inkscape:window-y="-8"
     inkscape:window-maximized="1"
     showguides="true"
     inkscape:guide-bbox="true" />
  <metadata
     id="metadata7">
    <rdf:RDF>
      <cc:Work
         rdf:about="">
        <dc:format>image/svg+xml</dc:format>
        <dc:type
           rdf:resource="http://purl.org/dc/dcmitype/StillImage" />
        <dc:title />
        <dc:creator>
          <cc:Agent>
            <dc:title>Jorge Rosa</dc:title>
          </cc:Agent>
        </dc:creator>
        <dc:description>Email: jorge.bigarte@gmail.com
Site:https://sites.google.com/site/jorgerosaportfolio</dc:description>
      </cc:Work>
    </rdf:RDF>
  </metadata>
  <g
     inkscape:label="Layer 1"
     inkscape:groupmode="layer"
     id="layer1"
     transform="translate(0,-1034.3622)">
    <g
       style="font-style:normal;font-variant:normal;font-weight:normal;font-stretch:normal;font-size:15px;line-height:100%;font-family:'Estrangelo Edessa';-inkscape-font-specification:'Estrangelo Edessa, Normal';text-align:start;letter-spacing:0px;word-spacing:0px;writing-mode:lr-tb;text-anchor:start;fill:#666666;fill-opacity:1;stroke:none;stroke-width:1px;stroke-linecap:butt;stroke-linejoin:miter;stroke-opacity:1"
       id="text4146-3" />
    <g
       id="g4197"
       transform="matrix(0.75206304,0,0,0.75206304,-27.086164,261.6963)"
       style="stroke-width:1.32967579;stroke-miterlimit:4;stroke-dasharray:none">
      <path
         style="opacity:1;fill:url(#radialGradient4178);fill-opacity:1;stroke:none;stroke-width:1.32967579;stroke-linecap:round;stroke-linejoin:round;stroke-miterlimit:4;stroke-dasharray:none;stroke-opacity:1"
         d="m 57.955428,1039.3623 a 9.9725298,9.9725298 0 0 1 -9.972531,9.9725 9.9725298,9.9725298 0 0 1 -9.97253,-9.9725 9.9725298,9.9725298 0 0 1 9.97253,-9.9726 9.9725298,9.9725298 0 0 1 9.972531,9.9726 z"
         id="path4170"
         inkscape:connector-curvature="0" />
      <path
         style="opacity:1;fill:none;fill-opacity:1;stroke:#1a1a1a;stroke-width:1.32967579;stroke-linecap:round;stroke-linejoin:round;stroke-miterlimit:4;stroke-dasharray:none;stroke-opacity:1"
         d="m 58.602113,1039.3622 a 10.619215,10.619215 0 0 1 -10.619215,10.6192 10.619215,10.619215 0 0 1 -10.619215,-10.6192 10.619215,10.619215 0 0 1 10.619215,-10.6192 10.619215,10.619215 0 0 1 10.619215,10.6192 z"
         id="path4180"
         inkscape:connector-curvature="0" />
    </g>
    <g
       style="font-style:normal;font-variant:normal;font-weight:normal;font-stretch:normal;font-size:11.1311264px;line-height:100%;font-family:'Estrangelo Edessa';-inkscape-font-specification:'Estrangelo Edessa, Normal';text-align:start;letter-spacing:0px;word-spacing:0px;writing-mode:lr-tb;text-anchor:start;fill:#442178;fill-opacity:1;stroke:none;stroke-width:1px;stroke-linecap:butt;stroke-linejoin:miter;stroke-opacity:1"
       id="text4143-9-8-2"
       transform="translate(-4.4986895,17.7237)">
      <path
         d="m 13.993283,1026.5299 0,-2.7176 q 0,-0.076 0,-0.1685 0,-0.098 0.01087,-0.2011 -0.02718,0.027 -0.03805,0.06 -0.01087,0.027 -0.03805,0.054 -0.08153,0.082 -0.22284,0.2501 -0.141313,0.1685 -0.315237,0.3967 -0.168489,0.2283 -0.364153,0.5055 -0.190229,0.2772 -0.375023,0.5816 -0.179359,0.3043 -0.342413,0.6196 -0.163054,0.3152 -0.282626,0.6196 l 1.967513,0 z m 2.049041,0.8207 -1.010933,0 0,1.8153 -1.038108,0 0,-1.8153 -2.97301,0 -0.06522,-0.3207 q 0.05979,-0.3424 0.255451,-0.7881 0.201099,-0.4457 0.483725,-0.9294 0.282627,-0.4837 0.619604,-0.9729 0.342413,-0.4892 0.67939,-0.9185 0.342413,-0.4348 0.652215,-0.7773 0.315237,-0.3424 0.548947,-0.5326 l 0.837008,0 0,4.4188 1.010933,0 0,0.8207 z"
         id="path4237"
         inkscape:connector-curvature="0"
         style="fill:#442178;fill-opacity:1" />
    </g>
  </g>
</svg>
