<?xml version="1.0" encoding="UTF-8" standalone="no"?>
<!-- Created with Inkscape (http://www.inkscape.org/) -->

<svg
   xmlns:dc="http://purl.org/dc/elements/1.1/"
   xmlns:cc="http://creativecommons.org/ns#"
   xmlns:rdf="http://www.w3.org/1999/02/22-rdf-syntax-ns#"
   xmlns:svg="http://www.w3.org/2000/svg"
   xmlns="http://www.w3.org/2000/svg"
   xmlns:xlink="http://www.w3.org/1999/xlink"
   xmlns:sodipodi="http://sodipodi.sourceforge.net/DTD/sodipodi-0.dtd"
   xmlns:inkscape="http://www.inkscape.org/namespaces/inkscape"
   width="60"
   height="25"
   viewBox="0 0 60 25"
   id="svg2"
   version="1.1"
   inkscape:version="0.92.1 r15371"
   sodipodi:docname="btn_tap1_over.svg">
  <defs
     id="defs4">
    <linearGradient
       inkscape:collect="always"
       id="linearGradient4733">
      <stop
         style="stop-color:#8d5fd3;stop-opacity:1"
         offset="0"
         id="stop4735" />
      <stop
         style="stop-color:#000000;stop-opacity:1"
         offset="1"
         id="stop4737" />
    </linearGradient>
    <radialGradient
       inkscape:collect="always"
       xlink:href="#linearGradient4733"
       id="radialGradient4725-4-0-0"
       cx="748.02911"
       cy="151.69218"
       fx="748.02911"
       fy="151.69193"
       r="24.596836"
       gradientTransform="matrix(2.4423516,1.3584633e-5,8.2044719e-5,1.2881254,-1796.1079,844.19845)"
       gradientUnits="userSpaceOnUse" />
    <pattern
       y="0"
       x="0"
       height="6"
       width="6"
       patternUnits="userSpaceOnUse"
       id="EMFhbasepattern" />
    <pattern
       y="0"
       x="0"
       height="6"
       width="6"
       patternUnits="userSpaceOnUse"
       id="EMFhbasepattern-5" />
    <pattern
       y="0"
       x="0"
       height="6"
       width="6"
       patternUnits="userSpaceOnUse"
       id="EMFhbasepattern-51" />
    <pattern
       y="0"
       x="0"
       height="6"
       width="6"
       patternUnits="userSpaceOnUse"
       id="EMFhbasepattern-9" />
    <pattern
       y="0"
       x="0"
       height="6"
       width="6"
       patternUnits="userSpaceOnUse"
       id="EMFhbasepattern-91" />
  </defs>
  <sodipodi:namedview
     id="base"
     pagecolor="#ffffff"
     bordercolor="#666666"
     borderopacity="1.0"
     inkscape:pageopacity="0.0"
     inkscape:pageshadow="2"
     inkscape:zoom="8.838591"
     inkscape:cx="42.450058"
     inkscape:cy="11.996338"
     inkscape:document-units="px"
     inkscape:current-layer="g4238"
     showgrid="false"
     units="px"
     inkscape:window-width="1920"
     inkscape:window-height="1028"
     inkscape:window-x="-8"
     inkscape:window-y="-8"
     inkscape:window-maximized="1"
     showguides="true"
     inkscape:guide-bbox="true" />
  <metadata
     id="metadata7">
    <rdf:RDF>
      <cc:Work
         rdf:about="">
        <dc:format>image/svg+xml</dc:format>
        <dc:type
           rdf:resource="http://purl.org/dc/dcmitype/StillImage" />
        <dc:title />
        <dc:creator>
          <cc:Agent>
            <dc:title>Jorge Rosa</dc:title>
          </cc:Agent>
        </dc:creator>
        <dc:description>Email: jorge.bigarte@gmail.com
Site:https://sites.google.com/site/jorgerosaportfolio</dc:description>
      </cc:Work>
    </rdf:RDF>
  </metadata>
  <g
     inkscape:label="Layer 1"
     inkscape:groupmode="layer"
     id="layer1"
     transform="translate(0,-1027.3622)">
    <g
       id="g4238">
      <path
         style="opacity:1;fill:url(#radialGradient4725-4-0-0);fill-opacity:1;stroke:none;stroke-width:1.09799254;stroke-linecap:round;stroke-linejoin:round;stroke-miterlimit:4;stroke-dasharray:none;stroke-dashoffset:0;stroke-opacity:1"
         d="m 59,1028.8622 v 22 H 0.99999995 v -22 z"
         id="rect4183-39-0-0-1-8-1"
         inkscape:connector-curvature="0" />
      <g
         id="g4505"
         transform="translate(0.0200006,1.02)">
        <g
           transform="translate(11.085585,17.4238)"
           id="g965">
          <path
             id="path946"
             d="m 22.974384,1019.0984 v 4.6399 h 1.119992 v -1.8399 c 0.559996,0 1.039992,-0.08 1.439989,-0.16 0.399997,-0.08 0.799994,-0.16 1.039993,-0.32 0.239998,-0.08 0.479996,-0.24 0.639995,-0.48 0.08,-0.16 0.159999,-0.4 0.159999,-0.56 0,-0.24 -0.08,-0.48 -0.239999,-0.64 -0.08,-0.16 -0.319997,-0.32 -0.559995,-0.4 -0.239999,-0.08 -0.559996,-0.16 -0.959993,-0.24 -0.319998,0 -0.719995,0 -1.119992,0 z m -12.07991,0 v 0.56 h 1.839986 v 4.0799 h 1.119992 v -4.0799 h 1.839986 v -0.56 z m 7.599943,0 -2.799979,4.6399 h 1.199991 l 0.719995,-1.36 h 2.799979 l 0.799994,1.36 h 1.199991 l -2.879978,-4.6399 z m 5.599959,0.56 h 0.399997 c 0.319998,0 0.559996,0 0.799994,0.08 0.239998,0 0.399997,0.08 0.559996,0.08 0.159999,0.08 0.239998,0.16 0.319998,0.24 0,0.08 0.08,0.24 0.08,0.32 0,0.32 -0.159999,0.48 -0.479996,0.64 -0.319998,0.16 -0.719995,0.24 -1.35999,0.24 h -0.319998 z m -5.119962,0.16 h 0.08 c 0,0.08 0,0.16 0,0.24 0.08,0.08 0.08,0.08 0.08,0.16 l 0.959993,1.6 h -2.159984 l 0.879993,-1.6 c 0.08,-0.08 0.08,-0.08 0.08,-0.16 0.08,-0.08 0.08,-0.16 0.08,-0.24 z"
             style="fill:#c8b3ea;fill-opacity:1;fill-rule:nonzero;stroke:none"
             inkscape:connector-curvature="0" />
        </g>
        <path
           inkscape:connector-curvature="0"
           id="path845"
           d="m 12.50246,1031.9223 c -2.845848,0.08 -5.5839842,3.9798 -5.5839842,6.918 0,2.9382 2.7381302,6.8424 5.5839842,6.9218 l 0.267578,-1.4062 c -2.601674,-0.079 -4.3535154,-2.8275 -4.3535154,-5.5156 0,-2.6882 1.7518464,-5.433 4.3535154,-5.5118 z m 34.955078,0 -0.267578,1.4062 c 2.601675,0.079 4.353516,2.8276 4.353516,5.5157 0,2.6882 -1.751846,5.4329 -4.353516,5.5117 l 0.267578,1.4061 c 2.845847,-0.08 5.583985,-3.9797 5.583985,-6.9178 0,-2.9383 -2.738131,-6.8425 -5.583985,-6.9219 z m -32.003906,2.9258 c -1.972499,0.053 -3.691406,2.0419 -3.691406,3.9941 0,1.9521 1.718903,3.9394 3.691406,3.9921 l 0.267578,-1.207 c -1.803259,-0.052 -2.75,-0.9991 -2.75,-2.7852 0,-1.786 0.946745,-2.7328 2.75,-2.7851 z m 29.052734,0 -0.267578,1.2089 c 1.803259,0.052 2.75,0.9991 2.75,2.7852 0,1.786 -0.946745,2.7329 -2.75,2.7852 l 0.267578,1.207 c 1.972499,-0.053 3.691407,-2.04 3.691407,-3.9922 0,-1.9521 -1.718904,-3.9413 -3.691407,-3.9941 z"
           style="color:#000000;font-style:normal;font-variant:normal;font-weight:normal;font-stretch:normal;font-size:medium;line-height:normal;font-family:sans-serif;font-variant-ligatures:normal;font-variant-position:normal;font-variant-caps:normal;font-variant-numeric:normal;font-variant-alternates:normal;font-feature-settings:normal;text-indent:0;text-align:start;text-decoration:none;text-decoration-line:none;text-decoration-style:solid;text-decoration-color:#000000;letter-spacing:normal;word-spacing:normal;text-transform:none;writing-mode:lr-tb;direction:ltr;text-orientation:mixed;dominant-baseline:auto;baseline-shift:baseline;text-anchor:start;white-space:normal;shape-padding:0;clip-rule:nonzero;display:inline;overflow:visible;visibility:visible;opacity:1;isolation:auto;mix-blend-mode:normal;color-interpolation:sRGB;color-interpolation-filters:linearRGB;solid-color:#000000;solid-opacity:1;vector-effect:none;fill:#c8b3ea;fill-opacity:1;fill-rule:nonzero;stroke:none;stroke-width:0.31013668;stroke-linecap:butt;stroke-linejoin:miter;stroke-miterlimit:4;stroke-dasharray:none;stroke-dashoffset:0;stroke-opacity:1;color-rendering:auto;image-rendering:auto;shape-rendering:auto;text-rendering:auto;enable-background:accumulate" />
      </g>
    </g>
  </g>
</svg>
