<?xml version="1.0" encoding="UTF-8" standalone="no"?>
<!-- Created with Inkscape (http://www.inkscape.org/) -->

<svg
   xmlns:dc="http://purl.org/dc/elements/1.1/"
   xmlns:cc="http://creativecommons.org/ns#"
   xmlns:rdf="http://www.w3.org/1999/02/22-rdf-syntax-ns#"
   xmlns:svg="http://www.w3.org/2000/svg"
   xmlns="http://www.w3.org/2000/svg"
   xmlns:xlink="http://www.w3.org/1999/xlink"
   xmlns:sodipodi="http://sodipodi.sourceforge.net/DTD/sodipodi-0.dtd"
   xmlns:inkscape="http://www.inkscape.org/namespaces/inkscape"
   width="26"
   height="26"
   viewBox="0 0 26 26"
   id="svg2"
   version="1.1"
   inkscape:version="0.91 r13725"
   sodipodi:docname="btn_hotcue_8_over.svg">
  <defs
     id="defs4">
    <linearGradient
       inkscape:collect="always"
       id="linearGradient4733">
      <stop
         style="stop-color:#8d5fd3;stop-opacity:1"
         offset="0"
         id="stop4735" />
      <stop
         style="stop-color:#000000;stop-opacity:1"
         offset="1"
         id="stop4737" />
    </linearGradient>
    <pattern
       y="0"
       x="0"
       height="6"
       width="6"
       patternUnits="userSpaceOnUse"
       id="EMFhbasepattern" />
    <radialGradient
       inkscape:collect="always"
       xlink:href="#linearGradient4733"
       id="radialGradient4725-4-0-0"
       cx="768.14526"
       cy="166.259"
       fx="768.14526"
       fy="166.25874"
       r="24.596836"
       gradientTransform="matrix(0.82645787,-2.5989918e-8,4.2658401e-5,0.69024665,-658.62413,922.6822)"
       gradientUnits="userSpaceOnUse" />
    <pattern
       y="0"
       x="0"
       height="6"
       width="6"
       patternUnits="userSpaceOnUse"
       id="EMFhbasepattern-6" />
    <pattern
       y="0"
       x="0"
       height="6"
       width="6"
       patternUnits="userSpaceOnUse"
       id="EMFhbasepattern-4" />
  </defs>
  <sodipodi:namedview
     id="base"
     pagecolor="#ffffff"
     bordercolor="#666666"
     borderopacity="1.0"
     inkscape:pageopacity="0.0"
     inkscape:pageshadow="2"
     inkscape:zoom="10.24"
     inkscape:cx="4.6133739"
     inkscape:cy="10.802738"
     inkscape:document-units="px"
     inkscape:current-layer="g4255"
     showgrid="false"
     units="px"
     inkscape:window-width="1920"
     inkscape:window-height="1028"
     inkscape:window-x="-8"
     inkscape:window-y="-8"
     inkscape:window-maximized="1"
     showguides="false" />
  <metadata
     id="metadata7">
    <rdf:RDF>
      <cc:Work
         rdf:about="">
        <dc:format>image/svg+xml</dc:format>
        <dc:type
           rdf:resource="http://purl.org/dc/dcmitype/StillImage" />
        <dc:title />
        <dc:creator>
          <cc:Agent>
            <dc:title>Jorge Rosa</dc:title>
          </cc:Agent>
        </dc:creator>
        <dc:description>Email: jorge.bigarte@gmail.com
Site:https://sites.google.com/site/jorgerosaportfolio</dc:description>
      </cc:Work>
    </rdf:RDF>
  </metadata>
  <g
     inkscape:label="Layer 1"
     inkscape:groupmode="layer"
     id="layer1"
     transform="translate(0,-1026.3622)">
    <g
       id="g4255"
       transform="translate(37.02673,0)">
      <path
         style="opacity:0.85900005;fill:none;fill-opacity:1;stroke:#000000;stroke-width:1.00554919;stroke-linecap:round;stroke-linejoin:round;stroke-miterlimit:4;stroke-dasharray:none;stroke-dashoffset:0;stroke-opacity:1"
         d="m -34.93092,1028.0011 21.800677,0 0,21.9891 -21.800677,0 z"
         id="rect4183-39-0-0-1-8-7-4" />
      <path
         style="opacity:1;fill:url(#radialGradient4725-4-0-0);fill-opacity:1;stroke:none;stroke-width:1.02858019;stroke-linecap:round;stroke-linejoin:round;stroke-miterlimit:4;stroke-dasharray:none;stroke-dashoffset:0;stroke-opacity:1"
         d="m -35.383472,1027.0894 22.705778,0 0,22.0908 -22.705778,0 z"
         id="rect4183-39-0-0-1-8-2" />
      <path
         transform="scale(1,-1)"
         style="opacity:1;fill:none;fill-opacity:1;stroke:#1a1a1a;stroke-width:1.02858019;stroke-linecap:round;stroke-linejoin:round;stroke-miterlimit:4;stroke-dasharray:none;stroke-dashoffset:0;stroke-opacity:1"
         d="m -35.383472,-1049.0768 22.705778,0 0,22.0908 -22.705778,0 z"
         id="rect4183-39-0-0-1-8-78-3" />
      <g
         style="font-style:normal;font-variant:normal;font-weight:normal;font-stretch:normal;font-size:15px;line-height:100%;font-family:'Estrangelo Edessa';-inkscape-font-specification:'Estrangelo Edessa, Normal';text-align:start;letter-spacing:0px;word-spacing:0px;writing-mode:lr-tb;text-anchor:start;fill:#e5d5ff;fill-opacity:1;stroke:none;stroke-width:1px;stroke-linecap:butt;stroke-linejoin:miter;stroke-opacity:1;opacity:0.755"
         id="text4160"
         transform="translate(-6.7729495,0)">
        <path
           d="m -15.942745,1035.0355 q 0,-0.2856 -0.09522,-0.52 -0.08789,-0.2417 -0.263672,-0.4102 -0.168457,-0.1684 -0.41748,-0.2636 -0.249024,-0.095 -0.556641,-0.095 -0.615234,0 -0.981445,0.3442 -0.366211,0.3369 -0.366211,0.9741 0,0.2857 0.109863,0.542 0.117188,0.2564 0.307617,0.4614 0.19043,0.2051 0.446778,0.3516 0.256347,0.1392 0.541992,0.2051 0.344238,-0.095 0.585937,-0.249 0.241699,-0.1612 0.395508,-0.3663 0.153809,-0.205 0.219727,-0.4541 0.07324,-0.249 0.07324,-0.52 z m 0.314941,4.5777 q 0,-0.271 -0.08057,-0.542 -0.08057,-0.271 -0.278321,-0.5054 -0.190429,-0.2417 -0.512695,-0.4321 -0.322265,-0.1978 -0.805664,-0.3077 -0.351562,0.088 -0.637207,0.2564 -0.285644,0.1685 -0.490723,0.4028 -0.205078,0.2344 -0.322265,0.5274 -0.109863,0.2856 -0.109863,0.6152 0,0.3662 0.117187,0.6592 0.117188,0.293 0.322266,0.498 0.212402,0.1978 0.505371,0.3077 0.292968,0.1098 0.644531,0.1098 0.395508,0 0.703125,-0.1245 0.307617,-0.1318 0.512695,-0.3516 0.212403,-0.2197 0.322266,-0.5053 0.109863,-0.293 0.109863,-0.6079 z m 1.428223,-0.015 q 0,0.6152 -0.234375,1.1206 -0.234375,0.4981 -0.651856,0.8643 -0.410156,0.3589 -0.974121,0.5566 -0.563965,0.1978 -1.21582,0.1978 -0.60791,0 -1.157227,-0.1612 -0.549316,-0.1684 -0.966796,-0.498 -0.417481,-0.3296 -0.666504,-0.8276 -0.2417,-0.4981 -0.2417,-1.1646 0,-0.8716 0.461426,-1.4648 0.46875,-0.5933 1.296387,-0.9815 -0.32959,-0.1465 -0.60791,-0.3735 -0.278321,-0.2271 -0.483399,-0.5127 -0.197754,-0.293 -0.314941,-0.6372 -0.109863,-0.3443 -0.109863,-0.7251 0,-0.5274 0.205078,-0.9668 0.205078,-0.4395 0.571289,-0.7544 0.373535,-0.315 0.88623,-0.4907 0.52002,-0.1758 1.142578,-0.1758 0.593262,0 1.098633,0.1611 0.505371,0.1611 0.871582,0.4688 0.373535,0.3076 0.578614,0.747 0.212402,0.4395 0.212402,0.9961 0,0.3736 -0.109863,0.6958 -0.102539,0.3223 -0.292969,0.6006 -0.183106,0.2783 -0.446777,0.5127 -0.263672,0.2344 -0.578614,0.4248 0.900879,0.3736 1.311035,0.9522 0.417481,0.5786 0.417481,1.4355 z"
           id="path4165"
           inkscape:connector-curvature="0"
           style="fill:#e5d5ff;fill-opacity:1" />
      </g>
    </g>
  </g>
</svg>
