<?xml version="1.0" encoding="UTF-8" standalone="no"?>
<!-- Created with Inkscape (http://www.inkscape.org/) -->

<svg
   xmlns:dc="http://purl.org/dc/elements/1.1/"
   xmlns:cc="http://creativecommons.org/ns#"
   xmlns:rdf="http://www.w3.org/1999/02/22-rdf-syntax-ns#"
   xmlns:svg="http://www.w3.org/2000/svg"
   xmlns="http://www.w3.org/2000/svg"
   xmlns:sodipodi="http://sodipodi.sourceforge.net/DTD/sodipodi-0.dtd"
   xmlns:inkscape="http://www.inkscape.org/namespaces/inkscape"
   width="20"
   height="18"
   viewBox="0 0 20 18"
   id="svg2"
   version="1.1"
   inkscape:version="0.92.1 r15371"
   sodipodi:docname="btn_vinyl_pressed.svg">
  <defs
     id="defs4">
    <pattern
       y="0"
       x="0"
       height="6"
       width="6"
       patternUnits="userSpaceOnUse"
       id="EMFhbasepattern" />
    <pattern
       y="0"
       x="0"
       height="6"
       width="6"
       patternUnits="userSpaceOnUse"
       id="EMFhbasepattern-1" />
  </defs>
  <sodipodi:namedview
     id="base"
     pagecolor="#ffffff"
     bordercolor="#666666"
     borderopacity="1.0"
     inkscape:pageopacity="0.0"
     inkscape:pageshadow="2"
     inkscape:zoom="12.513926"
     inkscape:cx="-12.110257"
     inkscape:cy="9.2514197"
     inkscape:document-units="px"
     inkscape:current-layer="g4140"
     showgrid="false"
     units="px"
     inkscape:window-width="1920"
     inkscape:window-height="1028"
     inkscape:window-x="-8"
     inkscape:window-y="-8"
     inkscape:window-maximized="1"
     showguides="true"
     inkscape:guide-bbox="true">
    <sodipodi:guide
       position="-4.5549256,14.943352"
       orientation="0,1"
       id="guide4888"
       inkscape:locked="false" />
    <sodipodi:guide
       position="3.436172,4.7147476"
       orientation="0,1"
       id="guide4890"
       inkscape:locked="false" />
  </sodipodi:namedview>
  <metadata
     id="metadata7">
    <rdf:RDF>
      <cc:Work
         rdf:about="">
        <dc:format>image/svg+xml</dc:format>
        <dc:type
           rdf:resource="http://purl.org/dc/dcmitype/StillImage" />
        <dc:title />
        <dc:creator>
          <cc:Agent>
            <dc:title>Jorge Rosa</dc:title>
          </cc:Agent>
        </dc:creator>
        <dc:description>Email: jorge.bigarte@gmail.com
Site:https://sites.google.com/site/jorgerosaportfolio</dc:description>
      </cc:Work>
    </rdf:RDF>
  </metadata>
  <g
     inkscape:label="Layer 1"
     inkscape:groupmode="layer"
     id="layer1"
     transform="translate(0,-1034.3622)">
    <g
       id="g4956"
       transform="matrix(0,0.02442813,-0.02442813,0,15.321547,1036.2396)" />
    <g
       id="g4140"
       transform="translate(-2.9120741,0)">
      <path
         id="path4500"
         d="m 12.912074,1037.4073 c -2.799979,0 -5.1199619,2.32 -5.1199619,5.12 0,2.7999 2.3199829,5.1199 5.1199619,5.1199 2.799979,0 5.119962,-2.32 5.119962,-5.1199 0,-2.8 -2.319983,-5.12 -5.119962,-5.12 z m 0,2.72 c 1.27999,0 2.399982,1.12 2.399982,2.4 0,1.28 -1.119992,2.3999 -2.399982,2.3999 -1.279991,0 -2.399982,-1.1199 -2.399982,-2.3999 0,-1.28 1.119991,-2.4 2.399982,-2.4 z m 0,1.68 c -0.399997,0 -0.719995,0.32 -0.719995,0.72 0,0.4 0.319998,0.72 0.719995,0.72 0.399997,0 0.719994,-0.32 0.719994,-0.72 0,-0.4 -0.319997,-0.72 -0.719994,-0.72 z"
         style="fill:#e5d5ff;fill-opacity:1;fill-rule:nonzero;stroke:none"
         inkscape:connector-curvature="0" />
    </g>
  </g>
</svg>
