<?xml version="1.0" encoding="UTF-8" standalone="no"?>
<!-- Created with Inkscape (http://www.inkscape.org/) -->

<svg
   xmlns:dc="http://purl.org/dc/elements/1.1/"
   xmlns:cc="http://creativecommons.org/ns#"
   xmlns:rdf="http://www.w3.org/1999/02/22-rdf-syntax-ns#"
   xmlns:svg="http://www.w3.org/2000/svg"
   xmlns="http://www.w3.org/2000/svg"
   xmlns:xlink="http://www.w3.org/1999/xlink"
   xmlns:sodipodi="http://sodipodi.sourceforge.net/DTD/sodipodi-0.dtd"
   xmlns:inkscape="http://www.inkscape.org/namespaces/inkscape"
   width="60"
   height="30"
   viewBox="0 0 60 30"
   id="svg2"
   version="1.1"
   inkscape:version="0.92.1 r15371"
   sodipodi:docname="btn_options_clear.svg">
  <defs
     id="defs4">
    <linearGradient
       inkscape:collect="always"
       id="linearGradient4274">
      <stop
         style="stop-color:#999999;stop-opacity:1"
         offset="0"
         id="stop4276" />
      <stop
         style="stop-color:#000000;stop-opacity:1"
         offset="1"
         id="stop4278" />
    </linearGradient>
    <linearGradient
       id="linearGradient5613"
       inkscape:collect="always">
      <stop
         id="stop5615"
         offset="0"
         style="stop-color:#170b28;stop-opacity:1" />
      <stop
         id="stop5617"
         offset="1"
         style="stop-color:#000000;stop-opacity:1" />
    </linearGradient>
    <inkscape:perspective
       id="perspective2840"
       inkscape:persp3d-origin="372.04724 : 350.78739 : 1"
       inkscape:vp_z="744.09448 : 526.18109 : 1"
       inkscape:vp_y="0 : 1000 : 0"
       inkscape:vp_x="0 : 526.18109 : 1"
       sodipodi:type="inkscape:persp3d" />
    <inkscape:perspective
       id="perspective2840-1"
       inkscape:persp3d-origin="372.04724 : 350.78739 : 1"
       inkscape:vp_z="744.09448 : 526.18109 : 1"
       inkscape:vp_y="0 : 1000 : 0"
       inkscape:vp_x="0 : 526.18109 : 1"
       sodipodi:type="inkscape:persp3d" />
    <pattern
       y="0"
       x="0"
       height="6"
       width="6"
       patternUnits="userSpaceOnUse"
       id="EMFhbasepattern" />
    <pattern
       y="0"
       x="0"
       height="6"
       width="6"
       patternUnits="userSpaceOnUse"
       id="EMFhbasepattern-2" />
    <radialGradient
       inkscape:collect="always"
       xlink:href="#linearGradient4274"
       id="radialGradient4280-2"
       cx="49.846588"
       cy="1037.5122"
       fx="49.846588"
       fy="1037.5122"
       r="36.726269"
       gradientTransform="matrix(26.800308,0,0,0.35628851,-1295.5513,667.70888)"
       gradientUnits="userSpaceOnUse" />
    <radialGradient
       inkscape:collect="always"
       xlink:href="#linearGradient5613"
       id="radialGradient5497-4-9"
       cx="30.078903"
       cy="1018.9943"
       fx="30.078903"
       fy="1018.9943"
       r="22.454525"
       gradientTransform="matrix(1.1149982,-4.505251e-8,-1.0211926e-7,0.35632041,-4.6438366,674.06362)"
       gradientUnits="userSpaceOnUse" />
    <radialGradient
       inkscape:collect="always"
       xlink:href="#linearGradient4274"
       id="radialGradient4512"
       gradientUnits="userSpaceOnUse"
       gradientTransform="matrix(26.800308,0,0,0.28907008,-1295.5513,737.44867)"
       cx="49.846588"
       cy="1037.5122"
       fx="49.846588"
       fy="1037.5122"
       r="36.726269" />
  </defs>
  <sodipodi:namedview
     id="base"
     pagecolor="#ffffff"
     bordercolor="#666666"
     borderopacity="1.0"
     inkscape:pageopacity="0.0"
     inkscape:pageshadow="2"
     inkscape:zoom="11.313708"
     inkscape:cx="19.17507"
     inkscape:cy="16.802279"
     inkscape:document-units="px"
     inkscape:current-layer="g5160"
     showgrid="false"
     units="px"
     inkscape:window-width="1920"
     inkscape:window-height="1028"
     inkscape:window-x="-8"
     inkscape:window-y="-8"
     inkscape:window-maximized="1"
     objecttolerance="10"
     guidetolerance="9" />
  <metadata
     id="metadata7">
    <rdf:RDF>
      <cc:Work
         rdf:about="">
        <dc:format>image/svg+xml</dc:format>
        <dc:type
           rdf:resource="http://purl.org/dc/dcmitype/StillImage" />
        <dc:title />
        <dc:creator>
          <cc:Agent>
            <dc:title>Jorge Rosa</dc:title>
          </cc:Agent>
        </dc:creator>
        <dc:description>Email: jorge.bigarte@gmail.com
Site:https://sites.google.com/site/jorgerosaportfolio</dc:description>
      </cc:Work>
    </rdf:RDF>
  </metadata>
  <g
     inkscape:label="Layer 1"
     inkscape:groupmode="layer"
     id="layer1"
     transform="translate(0,-1022.3622)">
    <text
       xml:space="preserve"
       style="font-style:normal;font-weight:normal;line-height:0%;font-family:sans-serif;letter-spacing:0px;word-spacing:0px;opacity:0.1;fill:#ececec;fill-opacity:1;stroke:none;stroke-width:1px;stroke-linecap:butt;stroke-linejoin:miter;stroke-opacity:1"
       x="-64.373627"
       y="823.29761"
       id="text6116-5"
       transform="scale(1.0112873,0.98883868)"><tspan
         sodipodi:role="line"
         id="tspan6118-8"
         x="-64.373627"
         y="823.29761"
         style="font-style:normal;font-variant:normal;font-weight:normal;font-stretch:normal;font-size:7.33073282px;line-height:1.25;font-family:Digital;-inkscape-font-specification:Digital;fill:#ececec">8888888888888888888888888888888888888888888888888888888888888888888888888</tspan></text>
    <g
       id="g5160">
      <g
         style="font-style:normal;font-variant:normal;font-weight:normal;font-stretch:normal;font-size:12.36420155px;line-height:100%;font-family:'Estrangelo Edessa';-inkscape-font-specification:'Estrangelo Edessa, Normal';text-align:start;letter-spacing:0px;word-spacing:0px;writing-mode:lr-tb;text-anchor:start;fill:#ffaaaa;fill-opacity:1;stroke:none;stroke-width:1px;stroke-linecap:butt;stroke-linejoin:miter;stroke-opacity:1"
         id="text4161-8" />
      <path
         style="opacity:1;fill:url(#radialGradient5497-4-9);fill-opacity:1;stroke:none;stroke-width:1.1072439;stroke-linecap:round;stroke-linejoin:round;stroke-miterlimit:4;stroke-dasharray:none;stroke-dashoffset:0;stroke-opacity:1"
         d="m 5.6008029,1045.692 v -16.6596 H 54.399197 v 16.6596 z"
         id="rect5489-1-5"
         inkscape:connector-curvature="0" />
      <path
         style="color:#000000;font-style:normal;font-variant:normal;font-weight:normal;font-stretch:normal;font-size:medium;line-height:normal;font-family:sans-serif;font-variant-ligatures:normal;font-variant-position:normal;font-variant-caps:normal;font-variant-numeric:normal;font-variant-alternates:normal;font-feature-settings:normal;text-indent:0;text-align:start;text-decoration:none;text-decoration-line:none;text-decoration-style:solid;text-decoration-color:#000000;letter-spacing:normal;word-spacing:normal;text-transform:none;writing-mode:lr-tb;direction:ltr;text-orientation:mixed;dominant-baseline:auto;baseline-shift:baseline;text-anchor:start;white-space:normal;shape-padding:0;clip-rule:nonzero;display:inline;overflow:visible;visibility:visible;opacity:1;isolation:auto;mix-blend-mode:normal;color-interpolation:sRGB;color-interpolation-filters:linearRGB;solid-color:#000000;solid-opacity:1;vector-effect:none;fill:url(#radialGradient4512);fill-opacity:1;fill-rule:nonzero;stroke:none;stroke-width:0.8294735;stroke-linecap:round;stroke-linejoin:round;stroke-miterlimit:4;stroke-dasharray:none;stroke-dashoffset:0;stroke-opacity:1;color-rendering:auto;image-rendering:auto;shape-rendering:auto;text-rendering:auto;enable-background:accumulate"
         d="M 5.6464844,1028.3622 A 0.46048477,0.37360837 0 0 0 5.1875,1028.7346 v 17.2552 a 0.46048477,0.37360837 0 0 0 0.4589844,0.3724 H 54.353516 a 0.46048477,0.37360837 0 0 0 0.458984,-0.3724 v -17.2552 a 0.46048477,0.37360837 0 0 0 -0.458984,-0.3724 z m 0.4609375,0.7464 H 53.892578 v 16.5073 H 6.1074219 Z"
         id="rect4272-4"
         inkscape:connector-curvature="0" />
      <g
         style="font-style:normal;font-variant:normal;font-weight:normal;font-stretch:normal;font-size:11.91798306px;line-height:100%;font-family:'Estrangelo Edessa';-inkscape-font-specification:'Estrangelo Edessa, Normal';text-align:start;letter-spacing:0px;word-spacing:0px;writing-mode:lr-tb;text-anchor:start;opacity:0.45;fill:#8d5fd3;fill-opacity:1;stroke:none;stroke-width:1px;stroke-linecap:butt;stroke-linejoin:miter;stroke-opacity:1"
         id="text4160"
         transform="translate(3.332594,28.36015)">
        <path
           d="m 15.639779,1009.0806 q 0,0.6344 0.1804,1.1581 0.186218,0.5179 0.51792,0.8904 0.337521,0.3724 0.803067,0.5761 0.471365,0.2036 1.04166,0.2036 0.529558,0 1.047479,-0.1396 0.523739,-0.1397 1.000924,-0.4016 v 1.0301 q -0.43645,0.2327 -0.977647,0.3549 -0.541198,0.1164 -1.181324,0.1164 -0.797248,0 -1.46647,-0.2793 -0.663404,-0.2793 -1.146408,-0.7798 -0.477185,-0.5004 -0.744874,-1.1929 -0.261869,-0.6984 -0.261869,-1.5364 0,-0.8612 0.285147,-1.5828 0.285147,-0.7274 0.785609,-1.2512 0.506281,-0.5237 1.192962,-0.8147 0.6925,-0.2968 1.501387,-0.2968 0.273508,0 0.552836,0.035 0.279327,0.029 0.547016,0.087 0.26769,0.052 0.506282,0.1281 0.244412,0.07 0.442269,0.1571 v 1.0242 q -0.203677,-0.087 -0.453908,-0.1746 -0.250231,-0.087 -0.51792,-0.1513 -0.267689,-0.07 -0.547017,-0.1106 -0.279327,-0.041 -0.541197,-0.041 -0.547017,0 -1.018382,0.2153 -0.465547,0.2095 -0.808887,0.5994 -0.34334,0.3899 -0.541197,0.9428 -0.197858,0.5528 -0.197858,1.2336 z"
           id="path4165"
           inkscape:connector-curvature="0"
           style="" />
        <path
           d="m 22.884842,1012.7643 h -1.11731 v -7.5302 h 1.11731 z"
           id="path4167"
           inkscape:connector-curvature="0"
           style="" />
        <path
           d="m 26.830347,1008.7489 q -0.558656,0 -0.913635,0.2852 -0.349159,0.2793 -0.465546,0.8205 h 2.525588 q -0.0291,-0.5412 -0.325882,-0.8205 -0.296786,-0.2852 -0.820525,-0.2852 z m -2.490672,1.5945 q 0,-0.5528 0.180399,-1.0067 0.180399,-0.4597 0.506281,-0.7798 0.331702,-0.3259 0.791429,-0.5005 0.459727,-0.1804 1.024202,-0.1804 0.552836,0 0.966008,0.163 0.418992,0.1571 0.704139,0.4539 0.285147,0.2968 0.424811,0.7274 0.145483,0.4306 0.145483,0.9718 v 0.4772 h -3.654538 q 0.0291,0.2968 0.151302,0.5529 0.128026,0.2502 0.337521,0.4306 0.215316,0.1804 0.500463,0.2851 0.290966,0.099 0.640126,0.099 0.203676,0 0.43063,-0.035 0.232773,-0.041 0.471365,-0.1106 0.244412,-0.076 0.483005,-0.1804 0.244411,-0.1048 0.465546,-0.2444 v 0.8787 q -0.442269,0.2502 -0.936912,0.3899 -0.488823,0.1338 -1.117311,0.1338 -0.581933,0 -1.047479,-0.1687 -0.465546,-0.1746 -0.791428,-0.5005 -0.325883,-0.3259 -0.500463,-0.7914 -0.174579,-0.4714 -0.174579,-1.065 z"
           id="path4169"
           inkscape:connector-curvature="0"
           style="" />
        <path
           d="m 33.231607,1010.5704 q -0.133845,-0.012 -0.296786,-0.017 -0.162941,-0.01 -0.34334,-0.01 -0.389895,0 -0.640126,0.07 -0.250231,0.07 -0.395714,0.1862 -0.145484,0.1164 -0.203677,0.2618 -0.05819,0.1455 -0.05819,0.3026 0,0.2968 0.17458,0.483 0.180399,0.1863 0.500462,0.1863 0.325882,0 0.663403,-0.1455 0.337521,-0.1455 0.599391,-0.3899 v -0.9311 z m 1.076576,2.2986 q -0.215316,0 -0.378257,-0.047 -0.162941,-0.041 -0.279327,-0.1164 -0.116387,-0.082 -0.197858,-0.192 -0.07565,-0.1106 -0.122205,-0.2503 -0.279328,0.2561 -0.657584,0.4307 -0.378257,0.1745 -0.901996,0.1745 -0.407353,0 -0.715778,-0.1105 -0.302605,-0.1106 -0.506281,-0.3085 -0.197857,-0.1978 -0.302605,-0.4597 -0.09893,-0.2677 -0.09893,-0.5819 0,-0.7798 0.593572,-1.193 0.59939,-0.419 1.769075,-0.419 0.17458,0 0.343341,0.012 0.17458,0.01 0.378256,0.023 0,-0.5295 -0.221134,-0.8088 -0.221135,-0.2852 -0.727416,-0.2852 -0.360799,0 -0.739055,0.093 -0.372437,0.087 -0.739055,0.2386 v -0.8671 q 0.320063,-0.1513 0.727416,-0.2386 0.413173,-0.087 0.797248,-0.087 0.494643,0 0.872899,0.099 0.378257,0.093 0.634307,0.32 0.25605,0.2212 0.384076,0.5878 0.133844,0.3666 0.133844,0.902 v 1.8447 q 0,0.2095 0.104748,0.3084 0.110567,0.099 0.226954,0.099 0.116386,0 0.215315,-0.01 0.09893,-0.012 0.226954,-0.041 v 0.6692 q -0.145483,0.1048 -0.360799,0.1572 -0.209495,0.052 -0.459726,0.052 z"
           id="path4171"
           inkscape:connector-curvature="0"
           style="" />
        <path
           d="m 38.131482,1007.876 q 0.197857,0 0.378256,0.047 0.186219,0.041 0.372437,0.1106 v 0.9078 q -0.197857,-0.047 -0.418992,-0.064 -0.221134,-0.023 -0.418991,-0.023 -0.221135,0 -0.378256,0.099 -0.151303,0.093 -0.244412,0.2561 -0.09311,0.1571 -0.133845,0.3724 -0.04073,0.2095 -0.04073,0.4423 v 2.7409 h -1.117311 v -3.1716 q 0,-0.2153 -0.01746,-0.4539 -0.01746,-0.2386 -0.04655,-0.4597 -0.02328,-0.2211 -0.05819,-0.4015 -0.0291,-0.1862 -0.05819,-0.291 h 0.942731 q 0.0291,0.052 0.05819,0.1455 0.0291,0.087 0.05237,0.1979 0.0291,0.1047 0.05237,0.2269 0.02328,0.1222 0.03492,0.2386 0.08729,-0.1455 0.186219,-0.3026 0.09893,-0.1629 0.226953,-0.2968 0.128026,-0.1397 0.279328,-0.2269 0.157122,-0.093 0.34916,-0.093 z"
           id="path4173"
           inkscape:connector-curvature="0"
           style="" />
      </g>
    </g>
  </g>
</svg>
