<?xml version="1.0" encoding="UTF-8" standalone="no"?>
<!-- Created with Inkscape (http://www.inkscape.org/) -->

<svg
   xmlns:dc="http://purl.org/dc/elements/1.1/"
   xmlns:cc="http://creativecommons.org/ns#"
   xmlns:rdf="http://www.w3.org/1999/02/22-rdf-syntax-ns#"
   xmlns:svg="http://www.w3.org/2000/svg"
   xmlns="http://www.w3.org/2000/svg"
   xmlns:xlink="http://www.w3.org/1999/xlink"
   xmlns:sodipodi="http://sodipodi.sourceforge.net/DTD/sodipodi-0.dtd"
   xmlns:inkscape="http://www.inkscape.org/namespaces/inkscape"
   width="26"
   height="26"
   viewBox="0 0 26 26"
   id="svg2"
   version="1.1"
   inkscape:version="0.91 r13725"
   sodipodi:docname="btn_beatloop_0500.svg">
  <defs
     id="defs4">
    <radialGradient
       inkscape:collect="always"
       xlink:href="#linearGradient4733"
       id="radialGradient4725-4-0-0"
       cx="767.95746"
       cy="166.2756"
       fx="767.95746"
       fy="166.27534"
       r="24.596836"
       gradientTransform="matrix(1.0034542,4.8661329e-6,2.2870628e-5,0.46141766,-790.69247,960.53233)"
       gradientUnits="userSpaceOnUse" />
    <linearGradient
       inkscape:collect="always"
       id="linearGradient4733">
      <stop
         style="stop-color:#170b28;stop-opacity:1"
         offset="0"
         id="stop4735" />
      <stop
         style="stop-color:#000000;stop-opacity:1"
         offset="1"
         id="stop4737" />
    </linearGradient>
    <pattern
       y="0"
       x="0"
       height="6"
       width="6"
       patternUnits="userSpaceOnUse"
       id="EMFhbasepattern" />
  </defs>
  <sodipodi:namedview
     id="base"
     pagecolor="#ffffff"
     bordercolor="#666666"
     borderopacity="1.0"
     inkscape:pageopacity="0.0"
     inkscape:pageshadow="2"
     inkscape:zoom="28.963094"
     inkscape:cx="12.076377"
     inkscape:cy="13.012683"
     inkscape:document-units="px"
     inkscape:current-layer="g4222"
     showgrid="false"
     units="px"
     inkscape:window-width="1920"
     inkscape:window-height="1028"
     inkscape:window-x="-8"
     inkscape:window-y="-8"
     inkscape:window-maximized="1"
     showguides="false" />
  <metadata
     id="metadata7">
    <rdf:RDF>
      <cc:Work
         rdf:about="">
        <dc:format>image/svg+xml</dc:format>
        <dc:type
           rdf:resource="http://purl.org/dc/dcmitype/StillImage" />
        <dc:title />
        <dc:creator>
          <cc:Agent>
            <dc:title>Jorge Rosa</dc:title>
          </cc:Agent>
        </dc:creator>
        <dc:description>Email: jorge.bigarte@gmail.com
Site:https://sites.google.com/site/jorgerosaportfolio</dc:description>
      </cc:Work>
    </rdf:RDF>
  </metadata>
  <g
     inkscape:label="Layer 1"
     inkscape:groupmode="layer"
     id="layer1"
     transform="translate(0,-1026.3622)">
    <g
       id="g5346"
       transform="translate(-40.178847,-0.04882811)">
      <g
         id="g5360" />
    </g>
    <g
       id="g5353"
       transform="translate(32.889932,-0.0690533)">
      <g
         id="g4222"
         transform="translate(0.22725455,0.04451953)">
        <rect
           style="opacity:0.85900005;fill:none;fill-opacity:1;stroke:#000000;stroke-width:1.00554919;stroke-linecap:round;stroke-linejoin:round;stroke-miterlimit:4;stroke-dasharray:none;stroke-dashoffset:0;stroke-opacity:1"
           id="rect4183-39-0-0-1-8-7-0"
           width="21.800676"
           height="21.989141"
           x="-31.017525"
           y="1027.9161" />
        <rect
           style="opacity:1;fill:url(#radialGradient4725-4-0-0);fill-opacity:1;stroke:none;stroke-width:1.02858019;stroke-linecap:round;stroke-linejoin:round;stroke-miterlimit:4;stroke-dasharray:none;stroke-dashoffset:0;stroke-opacity:1"
           id="rect4183-39-0-0-1-8-1"
           width="21.911665"
           height="21.193104"
           x="-31.090282"
           y="1027.3152" />
        <rect
           style="opacity:1;fill:none;fill-opacity:1;stroke:#1a1a1a;stroke-width:1.02858019;stroke-linecap:round;stroke-linejoin:round;stroke-miterlimit:4;stroke-dasharray:none;stroke-dashoffset:0;stroke-opacity:1"
           id="rect4183-39-0-0-1-8-78-5"
           width="22.705778"
           height="22.090797"
           x="-31.470076"
           y="-1048.9918"
           transform="scale(1,-1)" />
        <g
           id="text4937-7"
           style="font-style:normal;font-variant:normal;font-weight:normal;font-stretch:normal;font-size:14.22179031px;line-height:100%;font-family:'Estrangelo Edessa';-inkscape-font-specification:'Estrangelo Edessa, Normal';text-align:center;letter-spacing:0px;word-spacing:0px;writing-mode:lr-tb;text-anchor:middle;opacity:0.75499998;fill:#8d5fd3;fill-opacity:1;stroke:none;stroke-width:0.5;stroke-linecap:butt;stroke-linejoin:miter;stroke-miterlimit:4;stroke-dasharray:none;stroke-opacity:1">
          <path
             id="path4160"
             style="fill:#8d5fd3;fill-opacity:1"
             d="m -24.344658,1042.5225 -1.333293,0 0,-7.2984 q -0.111107,0.097 -0.243048,0.2083 -0.124996,0.1042 -0.243048,0.1944 l -1.749947,1.25 0,-1.3263 2.715196,-2.0417 0.85414,0 0,9.0137 z"
             inkscape:connector-curvature="0" />
          <path
             id="path4162"
             style="fill:#8d5fd3;fill-opacity:1"
             d="m -19.393419,1042.5225 -1.368014,0 0,-8.9859 1.368014,0 0,8.9859 z"
             inkscape:connector-curvature="0" />
          <path
             id="path4164"
             style="fill:#8d5fd3;fill-opacity:1"
             d="m -13.615817,1036.0088 q 0,-0.6875 -0.340267,-1.0694 -0.333323,-0.382 -0.979137,-0.382 -0.284714,0 -0.604148,0.09 -0.319435,0.083 -0.631926,0.2292 -0.305546,0.1458 -0.59026,0.3333 -0.277769,0.1875 -0.479152,0.3889 l 0,-1.2569 q 0.201383,-0.1875 0.472208,-0.3542 0.270825,-0.1667 0.583316,-0.2917 0.319435,-0.125 0.67359,-0.2013 0.354156,-0.076 0.729145,-0.076 0.604148,0 1.090245,0.1736 0.486096,0.1666 0.819419,0.4861 0.340268,0.3194 0.520818,0.7708 0.187494,0.4444 0.187494,1 0,0.5763 -0.145829,1.0485 -0.138885,0.4653 -0.395821,0.8958 -0.249993,0.4236 -0.597204,0.8472 -0.340268,0.4167 -0.749978,0.9097 l -1.520787,1.8472 3.708221,0 0,1.125 -5.34706,0 0,-0.9792 2.117991,-2.618 q 0.333324,-0.4166 0.604149,-0.7638 0.277769,-0.3472 0.472208,-0.6806 0.194438,-0.3333 0.298602,-0.6874 0.104163,-0.3542 0.104163,-0.7847 z"
             inkscape:connector-curvature="0" />
        </g>
      </g>
    </g>
  </g>
</svg>
