<?xml version="1.0" encoding="UTF-8" standalone="no"?>
<!-- Created with Inkscape (http://www.inkscape.org/) -->

<svg
   xmlns:dc="http://purl.org/dc/elements/1.1/"
   xmlns:cc="http://creativecommons.org/ns#"
   xmlns:rdf="http://www.w3.org/1999/02/22-rdf-syntax-ns#"
   xmlns:svg="http://www.w3.org/2000/svg"
   xmlns="http://www.w3.org/2000/svg"
   xmlns:xlink="http://www.w3.org/1999/xlink"
   xmlns:sodipodi="http://sodipodi.sourceforge.net/DTD/sodipodi-0.dtd"
   xmlns:inkscape="http://www.inkscape.org/namespaces/inkscape"
   width="118"
   height="118"
   viewBox="0 0 118 118"
   id="svg2"
   version="1.1"
   inkscape:version="0.92.1 r15371"
   sodipodi:docname="spinny_cd.svg">
  <defs
     id="defs4">
    <linearGradient
       id="linearGradient912"
       inkscape:collect="always">
      <stop
         id="stop908"
         offset="0"
         style="stop-color:#828282;stop-opacity:1" />
      <stop
         id="stop910"
         offset="1"
         style="stop-color:#f2f2f2;stop-opacity:1" />
    </linearGradient>
    <linearGradient
       inkscape:collect="always"
       id="linearGradient4848">
      <stop
         style="stop-color:#646464;stop-opacity:1"
         offset="0"
         id="stop4850" />
      <stop
         style="stop-color:#e6e6e6;stop-opacity:1"
         offset="1"
         id="stop4852" />
    </linearGradient>
    <linearGradient
       inkscape:collect="always"
       id="linearGradient4457">
      <stop
         style="stop-color:#666666;stop-opacity:1"
         offset="0"
         id="stop4459" />
      <stop
         style="stop-color:#f2f2f2;stop-opacity:1"
         offset="1"
         id="stop4461" />
    </linearGradient>
    <linearGradient
       inkscape:collect="always"
       id="linearGradient4189">
      <stop
         style="stop-color:#000000;stop-opacity:1"
         offset="0"
         id="stop4191" />
      <stop
         style="stop-color:#1a1a1a;stop-opacity:1"
         offset="1"
         id="stop4193" />
    </linearGradient>
    <radialGradient
       inkscape:collect="always"
       xlink:href="#linearGradient4189"
       id="radialGradient4195-0-3"
       cx="64.778282"
       cy="1039.0049"
       fx="64.778282"
       fy="1039.0049"
       r="54.102383"
       gradientTransform="matrix(-0.09647399,2.9930434e-4,-4.30594e-4,-0.13879521,65.828379,1135.6259)"
       gradientUnits="userSpaceOnUse" />
    <linearGradient
       inkscape:collect="always"
       xlink:href="#linearGradient4457"
       id="linearGradient4646"
       x1="59.252701"
       y1="1037.1846"
       x2="58.85503"
       y2="949.9624"
       gradientUnits="userSpaceOnUse"
       gradientTransform="matrix(-0.86856176,0.49558094,-0.49111625,-0.86073688,597.58427,1819.4054)" />
    <linearGradient
       inkscape:collect="always"
       xlink:href="#linearGradient4457"
       id="linearGradient4648"
       x1="59.252701"
       y1="1037.1846"
       x2="58.85503"
       y2="949.9624"
       gradientUnits="userSpaceOnUse"
       gradientTransform="matrix(-0.93324557,-0.35923907,0.35600268,-0.92483795,-240.48326,1932.5687)" />
    <linearGradient
       inkscape:collect="always"
       xlink:href="#linearGradient4457"
       id="linearGradient4650"
       x1="59.252701"
       y1="1037.1846"
       x2="58.85503"
       y2="949.9624"
       gradientUnits="userSpaceOnUse"
       gradientTransform="matrix(-0.00785162,-0.46338542,0.99096044,-0.00360566,-924.92919,1024.1696)" />
    <linearGradient
       inkscape:collect="always"
       xlink:href="#linearGradient4457"
       id="linearGradient4652"
       x1="59.252701"
       y1="1037.1846"
       x2="58.85503"
       y2="949.9624"
       gradientUnits="userSpaceOnUse"
       gradientTransform="matrix(0.44533844,0.12830187,-0.28698273,0.94850224,318.13889,43.695643)" />
    <radialGradient
       inkscape:collect="always"
       xlink:href="#linearGradient4848"
       id="radialGradient4846"
       cx="59"
       cy="993.36218"
       fx="59"
       fy="993.36218"
       r="14.666881"
       gradientTransform="matrix(3.0060293,4.6415359e-6,-4.6198687e-6,2.9919968,-118.35115,-1978.775)"
       gradientUnits="userSpaceOnUse" />
    <radialGradient
       inkscape:collect="always"
       xlink:href="#linearGradient912"
       id="radialGradient906"
       cx="58.961918"
       cy="58.717773"
       fx="58.961918"
       fy="58.717773"
       r="43.854492"
       gradientTransform="matrix(1.077993,2.333556e-8,-2.3792533e-8,1.099103,-4.598615,928.54309)"
       gradientUnits="userSpaceOnUse" />
  </defs>
  <sodipodi:namedview
     id="base"
     pagecolor="#ffffff"
     bordercolor="#666666"
     borderopacity="1.0"
     inkscape:pageopacity="0.0"
     inkscape:pageshadow="2"
     inkscape:zoom="4.8602706"
     inkscape:cx="60.782875"
     inkscape:cy="26.806689"
     inkscape:document-units="px"
     inkscape:current-layer="layer1"
     showgrid="false"
     units="px"
     inkscape:window-width="1920"
     inkscape:window-height="1028"
     inkscape:window-x="-8"
     inkscape:window-y="-8"
     inkscape:window-maximized="1"
     objecttolerance="10"
     guidetolerance="9" />
  <metadata
     id="metadata7">
    <rdf:RDF>
      <cc:Work
         rdf:about="">
        <dc:format>image/svg+xml</dc:format>
        <dc:type
           rdf:resource="http://purl.org/dc/dcmitype/StillImage" />
        <dc:title />
        <dc:creator>
          <cc:Agent>
            <dc:title>Jorge Rosa</dc:title>
          </cc:Agent>
        </dc:creator>
        <dc:description>Email: jorge.bigarte@gmail.com
Site:https://sites.google.com/site/jorgerosaportfolio</dc:description>
      </cc:Work>
    </rdf:RDF>
  </metadata>
  <g
     inkscape:label="Layer 1"
     inkscape:groupmode="layer"
     id="layer1"
     transform="translate(0,-934.3622)">
    <circle
       style="opacity:1;fill:#e6e6e6;fill-opacity:1;stroke:none;stroke-width:1.24800003;stroke-linecap:round;stroke-linejoin:round;stroke-miterlimit:4;stroke-dasharray:none;stroke-opacity:1"
       id="path4219"
       cx="59"
       cy="993.36218"
       r="45.367844" />
    <path
       style="opacity:0.8;fill:url(#radialGradient906);fill-opacity:1;fill-rule:evenodd;stroke:none;stroke-width:1px;stroke-linecap:butt;stroke-linejoin:miter;stroke-opacity:1"
       d="m 56.203125,949.49892 2.388672,41.48633 -17.667969,-37.74805 -4.757812,2.625 22.458984,35.67188 0.07031,1.24804 -0.04492,0.0137 -25.904297,-34.28906 -2.333985,1.91797 -0.05469,-0.0625 -0.830078,0.78906 -1.734375,1.42383 -4.238281,4.98633 -3.160157,4.94922 37.523438,20.16015 -41.228516,-10.00976 -1.107422,5.08203 42.558594,5.04687 0.197266,0.10547 -0.0332,0.0117 0.0059,-0.0215 -0.0098,0.0215 -1.314453,0.41992 -41.878906,-1.14257 0.04297,2.51953 41.458984,-1.25782 -39.326172,12.53321 1.992188,5.0566 38.142578,-17.61324 0.652343,-0.0195 -0.417968,0.90234 -36.138672,21.8359 2.921875,4.5312 4.232422,4.5079 5.976562,4.6914 21.166016,-31.59179 -15.935547,34.38079 5.072266,1.9532 12.34375,-38.54298 0.822265,-1.22851 -11.859375,40.64649 5.306641,1.1718 6.800781,-42.18743 0.460938,-0.68945 0.279296,0.45898 18.826171,38.7832 4.72071,-2.6934 -0.19727,-0.3047 0.99219,-0.666 -23.640629,-34.20504 -0.935546,-1.4414 0.130859,-0.19336 0.441406,0.0918 -0.07422,0.0371 0.08203,-0.0351 0.173828,0.0351 30.960932,29.7539 3.49805,-4.1602 -34.20117,-25.54096 41.74804,8.64646 1.0625,-4.03904 0.12696,-8.78711 -1.37891,-6.43555 -40.70312,9.95508 38.64453,-17.16016 -1.1211,-2.2539 -37.88085,19.5 -0.955081,0.23437 -0.152344,-0.11328 0.09375,-0.27539 0.111328,-0.0898 0.03516,0.0566 -0.0293,-0.0625 33.789057,-27.09766 -3.67383,-4.00586 -30.144524,31.04102 -0.01953,-0.043 0.25,-0.74414 28.164064,-31.70899 -1.95703,-1.58789 -26.132816,33.07618 13.457036,-39.98047 -2.41993,-0.69727 -11.18359,40.86133 -0.341797,0.43359 -0.429687,-0.91797 2.800784,-42.00976 z m 2.613281,42.33984 0.40625,0.64649 -0.412109,0.52148 -0.06641,-0.0879 0.0078,-0.11133 0.302735,-0.14062 -0.300782,0.0957 z m 0.748047,0.32422 -0.15625,0.56445 -0.119141,-0.25585 z m -0.318359,0.35938 0.152344,0.24218 -0.03906,0.14844 -0.228516,0.23438 -0.158203,-0.11914 0.142578,0.13671 -0.04492,0.0449 0.04883,-0.0391 0.132812,0.12696 -0.0059,0.0254 0.0078,-0.0234 0.08789,0.084 -0.466797,0.11329 0.08594,0.0176 -0.16211,0.0977 -0.01563,-0.0254 0.01367,0.0273 -0.04297,0.0254 -0.173828,-0.25195 0.158203,0.26172 -0.271484,0.16406 0.06641,-0.41015 -0.130859,0.44921 -0.498047,0.30079 0.242187,-0.75196 0.433594,-0.0137 0.292969,-0.01 -0.712891,-0.0195 0.103516,-0.32617 0.175781,-0.082 0.275391,0.14844 0.0078,0.14258 0.0098,-0.13282 0.08789,0.0469 0.251954,0.25781 -0.201172,-0.23047 0.121094,0.0645 -0.179688,-0.23829 z m 0.175781,0.27929 0.01758,0.0273 -0.04102,0.043 z m -0.722656,0.0293 0.002,0.0312 -0.01758,-0.0234 z m 0.636719,0.16602 -0.06836,0.25 -0.126953,-0.0937 z m -1.097657,0.0469 -0.146484,0.3125 -0.501953,-0.0137 z m 0.617188,0.69141 0.08203,0.16992 -0.09961,-0.14453 z"
       id="path4447"
       inkscape:connector-curvature="0" />
    <path
       style="opacity:0.3;fill:#000000;fill-opacity:1;stroke:none;stroke-width:0.53074735;stroke-linejoin:round;stroke-miterlimit:4;stroke-dasharray:none"
       d="m 87.994173,993.24207 a 29.006586,29.006599 0 0 1 -29.006586,29.00663 29.006586,29.006599 0 0 1 -29.006586,-29.00663 29.006586,29.006599 0 0 1 29.006586,-29.0066 29.006586,29.006599 0 0 1 29.006586,29.0066 z"
       id="path4187-3-7"
       inkscape:connector-curvature="0" />
    <path
       style="opacity:1;fill:url(#radialGradient4846);fill-opacity:1;stroke:#c8c8c8;stroke-width:1;stroke-linejoin:round;stroke-miterlimit:4;stroke-dasharray:none;stroke-opacity:1"
       d="M 77.164627,993.36218 A 18.164627,18.164631 0 0 1 59,1011.5268 18.164627,18.164631 0 0 1 40.835373,993.36218 18.164627,18.164631 0 0 1 59,975.19755 18.164627,18.164631 0 0 1 77.164627,993.36218 Z"
       id="path4187-3"
       inkscape:connector-curvature="0" />
    <path
       style="opacity:0.4;fill:#c8c8c8;fill-opacity:1;stroke:none;stroke-width:0.44796631;stroke-linejoin:round;stroke-miterlimit:4;stroke-dasharray:none"
       d="m 54.569942,991.22739 a 4.9176204,4.917621 71.147101 0 1 6.564903,-2.29524 4.9176204,4.917621 71.147101 0 1 2.295244,6.56489 4.9176204,4.917621 71.147101 0 1 -6.564895,2.29525 4.9176204,4.917621 71.147101 0 1 -2.295252,-6.5649 z"
       id="path4187-3-2-4"
       inkscape:connector-curvature="0" />
    <path
       style="opacity:1;fill:url(#radialGradient4195-0-3);fill-opacity:1;stroke:none;stroke-width:0.44796631;stroke-linejoin:round;stroke-miterlimit:4;stroke-dasharray:none"
       d="m 56.794103,992.29927 a 2.4486223,2.4486227 71.147101 0 1 3.268843,-1.14287 2.4486223,2.4486227 71.147101 0 1 1.142875,3.26885 2.4486223,2.4486227 71.147101 0 1 -3.268857,1.14287 2.4486223,2.4486227 71.147101 0 1 -1.142861,-3.26885 z"
       id="path4187-3-2"
       inkscape:connector-curvature="0" />
    <g
       transform="matrix(0.96996187,0,0,0.96996187,-76.84853,28.900663)"
       style="font-style:normal;font-weight:normal;font-size:3.04108071px;line-height:125%;font-family:sans-serif;letter-spacing:0px;word-spacing:0px;opacity:1;fill:#000000;fill-opacity:1;stroke:none;stroke-width:1px;stroke-linecap:butt;stroke-linejoin:miter;stroke-opacity:1"
       id="text4880">
      <path
         d="m 153.531,995.37999 q 0.0199,-0.24568 0.10939,-0.44849 0.0893,-0.20132 0.24502,-0.33915 0.15569,-0.13784 0.37702,-0.20331 0.22121,-0.064 0.50242,-0.0412 0.26197,0.0213 0.46873,0.11699 0.20676,0.0957 0.34708,0.25758 0.13487,0.15546 0.19762,0.37359 0.0626,0.21961 0.0422,0.47121 -0.0113,0.13913 -0.0366,0.24881 -0.0239,0.11128 -0.0568,0.20396 -0.0362,0.0969 -0.0782,0.17392 -0.0406,0.0786 -0.0752,0.13692 l -0.53429,-0.0434 0.005,-0.0651 q 0.0389,-0.0386 0.0929,-0.0982 0.0539,-0.0582 0.10773,-0.13428 0.054,-0.0776 0.0942,-0.16964 0.0403,-0.0921 0.049,-0.20012 0.01,-0.11988 -0.02,-0.23105 -0.0282,-0.11104 -0.10811,-0.20989 -0.0773,-0.0942 -0.21196,-0.16022 -0.1348,-0.0646 -0.33312,-0.0807 -0.20721,-0.0168 -0.35101,0.0296 -0.14393,0.0479 -0.23106,0.13024 -0.0887,0.0837 -0.13325,0.1918 -0.043,0.10824 -0.0518,0.21628 -0.008,0.1036 0.0145,0.20677 0.0228,0.10464 0.0691,0.19481 0.037,0.076 0.0808,0.14212 0.0438,0.0661 0.0761,0.10897 l -0.005,0.0592 -0.52689,-0.0427 q -0.0303,-0.0859 -0.0567,-0.164 -0.0264,-0.0781 -0.0434,-0.16293 -0.0223,-0.11057 -0.0309,-0.20661 -0.009,-0.096 0.005,-0.26181 z"
         style="font-style:normal;font-variant:normal;font-weight:bold;font-stretch:normal;font-family:sans-serif;-inkscape-font-specification:'sans-serif Bold';fill:#000000;fill-opacity:1"
         id="path4889"
         inkscape:connector-curvature="0" />
      <path
         d="m 153.96019,998.946 q -0.51097,-0.13548 -0.73476,-0.5082 -0.22234,-0.37234 -0.0853,-0.88905 0.13662,-0.51527 0.51423,-0.72854 0.37905,-0.21289 0.89002,-0.0774 0.51528,0.13662 0.73619,0.50858 0.22235,0.37234 0.0857,0.88761 -0.13624,0.51385 -0.51423,0.72855 -0.37656,0.21508 -0.89183,0.0785 z m -0.34742,-0.87404 q 0.0763,0.10625 0.19807,0.18002 0.12321,0.0741 0.30262,0.12171 0.19233,0.051 0.33905,0.0423 0.14672,-0.009 0.24899,-0.0584 0.10553,-0.0504 0.16978,-0.13626 0.0639,-0.0844 0.0913,-0.18779 0.0278,-0.10478 0.0152,-0.20797 -0.013,-0.10176 -0.0785,-0.2021 -0.0614,-0.0931 -0.19126,-0.17668 -0.12887,-0.0818 -0.31546,-0.13126 -0.19089,-0.0506 -0.33723,-0.0433 -0.14528,0.009 -0.24899,0.0584 -0.10371,0.0493 -0.1694,0.13483 -0.0657,0.0855 -0.0938,0.19172 -0.0282,0.10622 -0.0135,0.21304 0.0161,0.1072 0.0832,0.2018 z"
         style="font-style:normal;font-variant:normal;font-weight:bold;font-stretch:normal;font-family:sans-serif;-inkscape-font-specification:'sans-serif Bold';fill:#000000;fill-opacity:1"
         id="path4891"
         inkscape:connector-curvature="0" />
      <path
         d="m 151.84847,1000.8788 0.24007,-0.4942 1.7751,-0.181 -1.36503,-0.66309 0.22839,-0.47015 1.98877,0.96614 -0.29781,0.613 -1.49163,0.1718 1.13931,0.5535 -0.2284,0.4701 z"
         style="font-style:normal;font-variant:normal;font-weight:bold;font-stretch:normal;font-family:sans-serif;-inkscape-font-specification:'sans-serif Bold';fill:#000000;fill-opacity:1"
         id="path4893"
         inkscape:connector-curvature="0" />
      <path
         d="m 151.97047,1003.8041 0.40408,-0.5599 -1.44608,-1.0437 0.33369,-0.4623 1.44609,1.0436 0.40408,-0.5599 0.34677,0.2503 -1.14186,1.5822 z"
         style="font-style:normal;font-variant:normal;font-weight:bold;font-stretch:normal;font-family:sans-serif;-inkscape-font-specification:'sans-serif Bold';fill:#000000;fill-opacity:1"
         id="path4895"
         inkscape:connector-curvature="0" />
      <path
         d="m 148.84392,1004.4593 0.41843,-0.4153 0.4234,0.2095 0.5818,-0.5773 -0.20628,-0.425 0.4079,-0.4048 0.97775,2.1447 -0.46587,0.4623 z m 1.2254,-0.015 0.75142,0.3714 -0.36566,-0.7542 z"
         style="font-style:normal;font-variant:normal;font-weight:bold;font-stretch:normal;font-family:sans-serif;-inkscape-font-specification:'sans-serif Bold';fill:#000000;fill-opacity:1"
         id="path4897"
         inkscape:connector-curvature="0" />
      <path
         d="m 147.6053,1005.3428 1.04421,-0.7657 0.2318,0.3162 -0.29219,0.2142 0.8438,1.1508 0.29219,-0.2143 0.23181,0.3162 -1.04421,0.7656 -0.23181,-0.3161 0.29219,-0.2143 -0.8438,-1.1507 -0.29219,0.2142 z"
         style="font-style:normal;font-variant:normal;font-weight:bold;font-stretch:normal;font-family:sans-serif;-inkscape-font-specification:'sans-serif Bold';fill:#000000;fill-opacity:1"
         id="path4899"
         inkscape:connector-curvature="0" />
      <path
         d="m 145.43212,1006.5345 0.48857,-0.2513 1.52868,0.9202 -0.69414,-1.3495 0.4648,-0.2391 1.01133,1.9662 -0.6061,0.3117 -1.29636,-0.7575 0.57935,1.1264 -0.4648,0.239 z"
         style="font-style:normal;font-variant:normal;font-weight:bold;font-stretch:normal;font-family:sans-serif;-inkscape-font-specification:'sans-serif Bold';fill:#000000;fill-opacity:1"
         id="path4901"
         inkscape:connector-curvature="0" />
      <path
         d="m 143.40821,1007.917 q -0.0959,-0.3123 0.10942,-0.5897 0.20432,-0.2755 0.65856,-0.415 0.26261,-0.081 0.47245,-0.095 0.20886,-0.013 0.40099,0.01 l 0.15559,0.5068 -0.0596,0.018 q -0.21033,-0.083 -0.44122,-0.091 -0.23232,-0.01 -0.42537,0.051 -0.0497,0.015 -0.12798,0.049 -0.0783,0.033 -0.12329,0.069 -0.0546,0.045 -0.0826,0.095 -0.0294,0.051 -0.006,0.1262 0.0214,0.07 0.0962,0.101 0.0739,0.033 0.19573,0.025 0.12796,-0.01 0.2688,-0.025 0.13986,-0.015 0.26802,-0.012 0.29346,0 0.4566,0.1161 0.16216,0.1133 0.22971,0.3333 0.0907,0.2953 -0.11628,0.5623 -0.20792,0.2688 -0.62383,0.3965 -0.20867,0.064 -0.4243,0.085 -0.21661,0.023 -0.3844,0.01 l -0.14949,-0.4869 0.0582,-0.018 q 0.15914,0.063 0.36601,0.074 0.20589,0.013 0.39895,-0.046 0.0681,-0.021 0.13322,-0.052 0.0641,-0.029 0.11871,-0.074 0.0488,-0.038 0.0751,-0.095 0.0267,-0.055 0.01,-0.1102 -0.0257,-0.084 -0.10354,-0.1095 -0.0774,-0.024 -0.26616,-0.01 -0.12381,0.012 -0.23724,0.021 -0.11486,0.011 -0.25056,0.01 -0.26714,0 -0.42439,-0.1073 -0.15824,-0.1006 -0.22536,-0.3192 z"
         style="font-style:normal;font-variant:normal;font-weight:bold;font-stretch:normal;font-family:sans-serif;-inkscape-font-specification:'sans-serif Bold';fill:#000000;fill-opacity:1"
         id="path4903"
         inkscape:connector-curvature="0" />
      <path
         d="m 139.84008,1007.717 q 0.14551,-0.065 0.38743,-0.1348 0.24199,-0.068 0.48523,-0.08 0.5636,-0.027 0.89729,0.2628 0.33377,0.2915 0.35995,0.8314 0.025,0.5146 -0.28165,0.8447 -0.30652,0.3315 -0.88199,0.3594 -0.21802,0.011 -0.41723,-0.02 -0.19913,-0.029 -0.44656,-0.1344 l -0.0251,-0.5177 h 0.0638 q 0.043,0.029 0.12587,0.082 0.0829,0.054 0.15899,0.091 0.0883,0.043 0.20567,0.072 0.11585,0.029 0.24489,0.022 0.15128,-0.01 0.27223,-0.058 0.12094,-0.05 0.21437,-0.1472 0.0891,-0.093 0.13731,-0.2341 0.0468,-0.1391 0.0381,-0.3185 -0.0178,-0.3664 -0.22148,-0.5512 -0.20372,-0.1849 -0.58341,-0.1665 -0.0326,0 -0.0711,0 -0.04,0 -0.0725,0.01 l 0.021,0.4331 0.44049,-0.021 0.0202,0.4168 -1.01893,0.049 -0.0529,-1.0901 z"
         style="font-style:normal;font-variant:normal;font-weight:bold;font-stretch:normal;font-family:sans-serif;-inkscape-font-specification:'sans-serif Bold';fill:#000000;fill-opacity:1"
         id="path4905"
         inkscape:connector-curvature="0" />
      <path
         d="m 137.89251,1008.9222 q -0.0108,0.082 0.0154,0.1458 0.0262,0.063 0.10419,0.108 0.0543,0.031 0.13033,0.045 0.0758,0.016 0.17739,0.029 l 0.20466,0.027 0.0772,-0.5904 -0.17374,-0.023 q -0.13546,-0.018 -0.22848,-0.016 -0.093,0 -0.16102,0.04 -0.0649,0.038 -0.0985,0.089 -0.0353,0.052 -0.0474,0.145 z m -0.68316,-1.6362 0.69055,0.09 0.49271,0.8821 0.26061,0.034 0.10507,-0.804 0.56245,0.074 -0.28654,2.1924 -0.94821,-0.1239 q -0.19436,-0.025 -0.33135,-0.066 -0.13699,-0.04 -0.24957,-0.1299 -0.11406,-0.09 -0.17081,-0.217 -0.0584,-0.126 -0.0353,-0.3027 0.0318,-0.2429 0.16513,-0.3812 0.13192,-0.1385 0.35428,-0.2128 l -0.609,-1.035 z"
         style="font-style:normal;font-variant:normal;font-weight:bold;font-stretch:normal;font-family:sans-serif;-inkscape-font-specification:'sans-serif Bold';fill:#000000;fill-opacity:1"
         id="path4907"
         inkscape:connector-curvature="0" />
      <path
         d="m 135.437,1006.7272 1.52947,0.4672 -0.64594,2.1146 -1.52947,-0.4672 0.12494,-0.409 0.98698,0.3015 0.11149,-0.365 -0.91598,-0.2798 0.12494,-0.409 0.91598,0.2798 0.15964,-0.5226 -0.98698,-0.3015 z"
         style="font-style:normal;font-variant:normal;font-weight:bold;font-stretch:normal;font-family:sans-serif;-inkscape-font-specification:'sans-serif Bold';fill:#000000;fill-opacity:1"
         id="path4909"
         inkscape:connector-curvature="0" />
      <path
         d="m 133.15809,1005.6407 0.52755,0.263 -0.0626,0.4683 0.73352,0.3658 0.33633,-0.3318 0.51426,0.2565 -1.71757,1.6142 -0.58735,-0.2929 z m 0.40762,1.1557 -0.11069,0.8308 0.59705,-0.5883 z"
         style="font-style:normal;font-variant:normal;font-weight:bold;font-stretch:normal;font-family:sans-serif;-inkscape-font-specification:'sans-serif Bold';fill:#000000;fill-opacity:1"
         id="path4911"
         inkscape:connector-curvature="0" />
      <path
         d="m 130.4498,1005.8725 0.55893,0.4054 1.0471,-1.4436 0.46157,0.3348 -1.0471,1.4436 0.55893,0.4054 -0.2511,0.3462 -1.57942,-1.1456 z"
         style="font-style:normal;font-variant:normal;font-weight:bold;font-stretch:normal;font-family:sans-serif;-inkscape-font-specification:'sans-serif Bold';fill:#000000;fill-opacity:1"
         id="path4913"
         inkscape:connector-curvature="0" />
      <path
         d="m 129.00701,1001.693 0.35811,0.4399 -1.14811,0.9346 1.0038,-0.2887 0.24843,0.3052 -0.48633,0.9243 1.14811,-0.9346 0.33936,0.4169 -1.71469,1.3958 -0.4181,-0.5136 0.54617,-1.086 -1.17333,0.3156 -0.4181,-0.5136 z"
         style="font-style:normal;font-variant:normal;font-weight:bold;font-stretch:normal;font-family:sans-serif;-inkscape-font-specification:'sans-serif Bold';fill:#000000;fill-opacity:1"
         id="path4915"
         inkscape:connector-curvature="0" />
      <path
         d="m 127.09977,999.86694 q 0.36264,-0.19094 0.67201,-0.0719 0.30936,0.11904 0.53558,0.54866 0.22622,0.4297 0.1493,0.7521 -0.0776,0.3211 -0.43893,0.5114 l -1.24953,0.6579 -0.26703,-0.5072 1.22061,-0.6427 q 0.20366,-0.1072 0.25855,-0.2452 0.0549,-0.138 -0.0461,-0.3298 -0.0996,-0.1892 -0.2412,-0.2254 -0.14226,-0.038 -0.3538,0.074 l -1.22062,0.6427 -0.26704,-0.5071 1.24821,-0.65726 z"
         style="font-style:normal;font-variant:normal;font-weight:bold;font-stretch:normal;font-family:sans-serif;-inkscape-font-specification:'sans-serif Bold';fill:#000000;fill-opacity:1"
         id="path4917"
         inkscape:connector-curvature="0" />
      <path
         d="m 126.40975,997.51986 q 0.31096,-0.10012 0.59112,0.10139 0.27829,0.20055 0.42392,0.65285 0.0842,0.26149 0.10176,0.47111 0.0157,0.20866 -3.5e-4,0.40103 l -0.5046,0.16247 -0.0191,-0.0594 q 0.0801,-0.21143 0.0853,-0.44242 0.005,-0.2324 -0.0572,-0.42463 -0.0159,-0.0495 -0.0504,-0.1273 -0.0344,-0.0778 -0.0706,-0.12235 -0.0455,-0.054 -0.0964,-0.0813 -0.0514,-0.0287 -0.12628,-0.005 -0.0693,0.0223 -0.0996,0.0976 -0.0322,0.0743 -0.0227,0.19606 0.01,0.12783 0.0287,0.26843 0.0169,0.13964 0.016,0.26783 -6.6e-4,0.29349 -0.10988,0.45814 -0.1111,0.16368 -0.33018,0.23423 -0.294,0.0947 -0.56381,-0.10863 -0.27168,-0.20424 -0.40502,-0.61838 -0.0669,-0.20777 -0.091,-0.42309 -0.026,-0.21628 -0.013,-0.38426 l 0.48481,-0.1561 0.0187,0.058 q -0.0608,0.15998 -0.069,0.36698 -0.0101,0.20605 0.0518,0.39828 0.0218,0.0678 0.0536,0.1325 0.0299,0.0637 0.0753,0.1177 0.0389,0.0483 0.0955,0.0738 0.0551,0.0259 0.11027,0.008 0.0834,-0.0269 0.10814,-0.10502 0.0233,-0.0777 0.003,-0.26623 -0.0133,-0.12364 -0.0248,-0.23693 -0.012,-0.1147 -0.012,-0.25041 0.001,-0.26719 0.10157,-0.42582 0.0984,-0.15959 0.31604,-0.22968 z"
         style="font-style:normal;font-variant:normal;font-weight:bold;font-stretch:normal;font-family:sans-serif;-inkscape-font-specification:'sans-serif Bold';fill:#000000;fill-opacity:1"
         id="path4919"
         inkscape:connector-curvature="0" />
      <path
         d="m 126.80652,995.73826 0.21709,1.27651 -0.38646,0.0657 -0.0607,-0.35718 -1.40679,0.23925 0.0607,0.35719 -0.38647,0.0657 -0.2171,-1.27651 0.38647,-0.0657 0.0607,0.35718 1.40679,-0.23925 -0.0607,-0.35719 z"
         style="font-style:normal;font-variant:normal;font-weight:bold;font-stretch:normal;font-family:sans-serif;-inkscape-font-specification:'sans-serif Bold';fill:#000000;fill-opacity:1"
         id="path4921"
         inkscape:connector-curvature="0" />
      <path
         d="m 126.76677,994.2715 q 0.006,0.24641 -0.0611,0.45757 -0.0674,0.20968 -0.20757,0.36329 -0.14016,0.15361 -0.35327,0.24224 -0.21316,0.0871 -0.49519,0.0944 -0.26275,0.007 -0.47851,-0.0665 -0.21577,-0.0732 -0.3725,-0.21923 -0.15064,-0.14023 -0.23623,-0.35045 -0.0856,-0.21171 -0.0921,-0.46406 -0.004,-0.13953 0.01,-0.25128 0.012,-0.1132 0.0348,-0.20884 0.0257,-0.10018 0.0592,-0.18125 0.0321,-0.0825 0.0602,-0.14414 l 0.53587,-0.0137 0.002,0.0653 q -0.0346,0.0425 -0.0819,0.10756 -0.0474,0.0636 -0.0928,0.14497 -0.0454,0.0829 -0.0756,0.1787 -0.0302,0.0958 -0.0275,0.2042 0.003,0.12024 0.0444,0.22761 0.0399,0.10742 0.12982,0.19721 0.0868,0.0854 0.22779,0.13677 0.1409,0.0499 0.33981,0.0448 0.20782,-0.005 0.34588,-0.0668 0.13802,-0.0629 0.2159,-0.15406 0.0793,-0.0926 0.1121,-0.20488 0.0313,-0.1122 0.0285,-0.22056 -0.003,-0.10391 -0.0364,-0.20406 -0.0338,-0.10162 -0.0894,-0.18635 -0.0449,-0.0716 -0.0955,-0.13273 -0.0506,-0.0611 -0.0872,-0.10026 l -0.002,-0.0594 0.52845,-0.0135 q 0.0392,0.0822 0.0738,0.15705 0.0346,0.0749 0.0605,0.15739 0.0339,0.10756 0.0527,0.20215 0.0188,0.0946 0.023,0.26084 z"
         style="font-style:normal;font-variant:normal;font-weight:bold;font-stretch:normal;font-family:sans-serif;-inkscape-font-specification:'sans-serif Bold';fill:#000000;fill-opacity:1"
         id="path4923"
         inkscape:connector-curvature="0" />
      <path
         d="m 126.25512,989.68463 q 0.51489,0.11971 0.75002,0.48537 0.23369,0.36533 0.11264,0.88601 -0.12072,0.51923 -0.49159,0.74401 -0.37233,0.22444 -0.88722,0.10473 -0.51923,-0.12072 -0.75148,-0.48571 -0.23368,-0.36533 -0.11297,-0.88456 0.12038,-0.51778 0.4916,-0.744 0.36976,-0.22656 0.889,-0.10585 z m 0.37411,0.86295 q -0.0795,-0.10386 -0.2035,-0.17384 -0.12543,-0.0703 -0.30622,-0.11236 -0.19381,-0.0451 -0.34019,-0.0318 -0.14638,0.0132 -0.24708,0.0661 -0.10393,0.0536 -0.16551,0.14141 -0.0612,0.0864 -0.0855,0.19051 -0.0245,0.10558 -0.009,0.20834 0.0161,0.10131 0.0847,0.19958 0.0642,0.0911 0.1966,0.17072 0.13132,0.0778 0.31934,0.1215 0.19237,0.0447 0.33841,0.0329 0.14493,-0.0136 0.24708,-0.066 0.10214,-0.0525 0.16517,-0.13997 0.063,-0.0875 0.0879,-0.19451 0.0249,-0.10703 0.007,-0.21335 -0.0194,-0.10666 -0.0894,-0.19915 z"
         style="font-style:normal;font-variant:normal;font-weight:bold;font-stretch:normal;font-family:sans-serif;-inkscape-font-specification:'sans-serif Bold';fill:#000000;fill-opacity:1"
         id="path4925"
         inkscape:connector-curvature="0" />
      <path
         d="m 128.30644,987.68772 -0.22479,0.50133 -1.76871,0.23539 1.38473,0.62092 -0.21386,0.47693 -2.01748,-0.90465 0.27887,-0.62191 1.48565,-0.21748 -1.15575,-0.51824 0.21386,-0.47693 z"
         style="font-style:normal;font-variant:normal;font-weight:bold;font-stretch:normal;font-family:sans-serif;-inkscape-font-specification:'sans-serif Bold';fill:#000000;fill-opacity:1"
         id="path4927"
         inkscape:connector-curvature="0" />
      <path
         d="m 129.49319,985.87609 -0.88677,1.32551 -1.8377,-1.22943 0.31706,-0.47392 1.48225,0.99163 0.56972,-0.85158 z"
         style="font-style:normal;font-variant:normal;font-weight:bold;font-stretch:normal;font-family:sans-serif;-inkscape-font-specification:'sans-serif Bold';fill:#000000;fill-opacity:1"
         id="path4929"
         inkscape:connector-curvature="0" />
      <path
         d="m 129.40187,982.68013 0.44517,1.51802 0.62922,0.57933 -0.38623,0.41948 -0.60955,-0.56123 -1.57825,-0.32684 0.43853,-0.47629 0.95308,0.22759 -0.31642,-0.91907 z"
         style="font-style:normal;font-variant:normal;font-weight:bold;font-stretch:normal;font-family:sans-serif;-inkscape-font-specification:'sans-serif Bold';fill:#000000;fill-opacity:1"
         id="path4931"
         inkscape:connector-curvature="0" />
    </g>
    <path
       style="opacity:1;fill:none;fill-opacity:1;stroke:#000000;stroke-width:1.55355167;stroke-linejoin:round;stroke-miterlimit:4;stroke-dasharray:none;stroke-opacity:1"
       d="M 103.1017,993.36218 A 44.101696,44.101696 0 0 1 59,1037.4639 44.101696,44.101696 0 0 1 14.898304,993.36218 44.101696,44.101696 0 0 1 59,949.26049 a 44.101696,44.101696 0 0 1 44.1017,44.10169 z"
       id="path4957"
       inkscape:connector-curvature="0" />
  </g>
</svg>
