<?xml version="1.0" encoding="UTF-8" standalone="no"?>
<!-- Created with Inkscape (http://www.inkscape.org/) -->

<svg
   xmlns:dc="http://purl.org/dc/elements/1.1/"
   xmlns:cc="http://creativecommons.org/ns#"
   xmlns:rdf="http://www.w3.org/1999/02/22-rdf-syntax-ns#"
   xmlns:svg="http://www.w3.org/2000/svg"
   xmlns="http://www.w3.org/2000/svg"
   xmlns:xlink="http://www.w3.org/1999/xlink"
   xmlns:sodipodi="http://sodipodi.sourceforge.net/DTD/sodipodi-0.dtd"
   xmlns:inkscape="http://www.inkscape.org/namespaces/inkscape"
   width="250"
   height="45"
   viewBox="0 0 250 45"
   id="svg2"
   version="1.1"
   inkscape:version="0.92.1 r15371"
   sodipodi:docname="strobe_beat_2.svg">
  <defs
     id="defs4">
    <linearGradient
       id="linearGradient5985"
       inkscape:collect="always">
      <stop
         id="stop5981"
         offset="0"
         style="stop-color:#ffffff;stop-opacity:1" />
      <stop
         id="stop5983"
         offset="1"
         style="stop-color:#ffffff;stop-opacity:0" />
    </linearGradient>
    <linearGradient
       inkscape:collect="always"
       id="linearGradient6385">
      <stop
         style="stop-color:#e5d5ff;stop-opacity:1;"
         offset="0"
         id="stop6381" />
      <stop
         style="stop-color:#e5d5ff;stop-opacity:0;"
         offset="1"
         id="stop6383" />
    </linearGradient>
    <linearGradient
       id="linearGradient5333"
       inkscape:collect="always">
      <stop
         id="stop5329"
         offset="0"
         style="stop-color:#e5d5ff;stop-opacity:1" />
      <stop
         id="stop5331"
         offset="1"
         style="stop-color:#000000;stop-opacity:1" />
    </linearGradient>
    <linearGradient
       id="linearGradient4615"
       inkscape:collect="always">
      <stop
         id="stop4611"
         offset="0"
         style="stop-color:#e5d5ff;stop-opacity:1;" />
      <stop
         id="stop4613"
         offset="1"
         style="stop-color:#000000;stop-opacity:1" />
    </linearGradient>
    <linearGradient
       inkscape:collect="always"
       id="linearGradient4572">
      <stop
         style="stop-color:#e5d5ff;stop-opacity:1;"
         offset="0"
         id="stop4568" />
      <stop
         style="stop-color:#e5d5ff;stop-opacity:0;"
         offset="1"
         id="stop4570" />
    </linearGradient>
    <linearGradient
       inkscape:collect="always"
       id="linearGradient4279">
      <stop
         style="stop-color:#333333;stop-opacity:1"
         offset="0"
         id="stop4281" />
      <stop
         style="stop-color:#000000;stop-opacity:1"
         offset="1"
         id="stop4283" />
    </linearGradient>
    <linearGradient
       inkscape:collect="always"
       id="linearGradient4245">
      <stop
         style="stop-color:#808080;stop-opacity:1"
         offset="0"
         id="stop4247" />
      <stop
         style="stop-color:#1a1a1a;stop-opacity:1"
         offset="1"
         id="stop4249" />
    </linearGradient>
    <inkscape:perspective
       id="perspective2840"
       inkscape:persp3d-origin="372.04724 : 350.78739 : 1"
       inkscape:vp_z="744.09448 : 526.18109 : 1"
       inkscape:vp_y="0 : 1000 : 0"
       inkscape:vp_x="0 : 526.18109 : 1"
       sodipodi:type="inkscape:persp3d" />
    <inkscape:perspective
       id="perspective2840-1"
       inkscape:persp3d-origin="372.04724 : 350.78739 : 1"
       inkscape:vp_z="744.09448 : 526.18109 : 1"
       inkscape:vp_y="0 : 1000 : 0"
       inkscape:vp_x="0 : 526.18109 : 1"
       sodipodi:type="inkscape:persp3d" />
    <pattern
       y="0"
       x="0"
       height="6"
       width="6"
       patternUnits="userSpaceOnUse"
       id="EMFhbasepattern" />
    <pattern
       y="0"
       x="0"
       height="6"
       width="6"
       patternUnits="userSpaceOnUse"
       id="EMFhbasepattern-4" />
    <radialGradient
       inkscape:collect="always"
       xlink:href="#linearGradient4279"
       id="radialGradient4275-2"
       cx="111.76286"
       cy="1023.435"
       fx="111.76286"
       fy="1023.435"
       r="29.787664"
       gradientTransform="matrix(0.78469549,0,0,0.25152595,51.947998,724.84899)"
       gradientUnits="userSpaceOnUse" />
    <radialGradient
       inkscape:collect="always"
       xlink:href="#linearGradient4245"
       id="radialGradient4204-9-8-3-2"
       cx="800.39185"
       cy="253.53101"
       fx="800.39185"
       fy="253.53101"
       r="32.034878"
       gradientTransform="matrix(-1.6201277,-0.02326934,0,-0.42590702,1435.061,1109.9729)"
       gradientUnits="userSpaceOnUse" />
    <pattern
       y="0"
       x="0"
       height="6"
       width="6"
       patternUnits="userSpaceOnUse"
       id="EMFhbasepattern-49" />
    <radialGradient
       inkscape:collect="always"
       xlink:href="#linearGradient4572"
       id="radialGradient4574"
       cx="44.875"
       cy="1030.4872"
       fx="44.875"
       fy="1030.4872"
       r="13.125"
       gradientUnits="userSpaceOnUse"
       gradientTransform="matrix(1.0190476,6.0620714e-8,-6.1753805e-8,1.0380951,-0.85469817,-39.256484)" />
    <radialGradient
       inkscape:collect="always"
       xlink:href="#linearGradient4572"
       id="radialGradient4574-9"
       cx="44.875"
       cy="1030.4872"
       fx="44.875"
       fy="1030.4872"
       r="13.125"
       gradientUnits="userSpaceOnUse"
       gradientTransform="matrix(1.0190476,6.0620714e-8,-6.1753805e-8,1.0380951,26.748746,-38.594686)" />
    <radialGradient
       inkscape:collect="always"
       xlink:href="#linearGradient4615"
       id="radialGradient4609"
       gradientUnits="userSpaceOnUse"
       gradientTransform="matrix(1.0190476,0,0,1.0515638,-0.85476181,-53.135804)"
       cx="44.875"
       cy="1030.4872"
       fx="44.875"
       fy="1030.4872"
       r="13.125" />
    <radialGradient
       inkscape:collect="always"
       xlink:href="#linearGradient4572"
       id="radialGradient4696"
       gradientUnits="userSpaceOnUse"
       gradientTransform="matrix(1.0190476,6.0620714e-8,-6.1753805e-8,1.0380951,26.748746,-38.594686)"
       cx="44.875"
       cy="1030.4872"
       fx="44.875"
       fy="1030.4872"
       r="13.125" />
    <radialGradient
       inkscape:collect="always"
       xlink:href="#linearGradient4615"
       id="radialGradient4966"
       gradientUnits="userSpaceOnUse"
       gradientTransform="matrix(2.2342664,8.9370737e-8,-6.8571426e-8,1.7142841,-63.395017,-736.68563)"
       cx="44.875"
       cy="1030.4872"
       fx="44.875"
       fy="1030.4872"
       r="13.125" />
    <radialGradient
       inkscape:collect="always"
       xlink:href="#linearGradient5333"
       id="radialGradient5327"
       cx="111.9397"
       cy="1038.9297"
       fx="111.9397"
       fy="1038.9297"
       r="43.727901"
       gradientTransform="matrix(1.1474299,-5.0013953e-7,1.2519991e-7,0.14018775,-16.503393,893.28455)"
       gradientUnits="userSpaceOnUse" />
    <radialGradient
       inkscape:collect="always"
       xlink:href="#linearGradient4615"
       id="radialGradient4609-4-5"
       gradientUnits="userSpaceOnUse"
       gradientTransform="matrix(4.6690653,1.5705514e-7,-1.2190475e-7,3.6240855,-119.54485,-2644.3812)"
       cx="44.875"
       cy="1030.4872"
       fx="44.875"
       fy="1030.4872"
       r="13.125" />
    <radialGradient
       inkscape:collect="always"
       xlink:href="#linearGradient6385"
       id="radialGradient6387"
       cx="113.40355"
       cy="1026.0599"
       fx="113.40355"
       fy="1026.0599"
       r="51.351246"
       gradientTransform="matrix(1,0,0,0.01303668,-1.4638434,1021.8194)"
       gradientUnits="userSpaceOnUse" />
    <linearGradient
       inkscape:collect="always"
       id="linearGradient4846">
      <stop
         style="stop-color:#ffffff;stop-opacity:1"
         offset="0"
         id="stop4842" />
      <stop
         style="stop-color:#000000;stop-opacity:1"
         offset="1"
         id="stop4844" />
    </linearGradient>
    <radialGradient
       inkscape:collect="always"
       xlink:href="#linearGradient5985"
       id="radialGradient6387-41-00"
       cx="113.40355"
       cy="1026.0599"
       fx="113.40355"
       fy="1026.0599"
       r="51.351246"
       gradientTransform="matrix(0,-0.16731558,0.03146792,0,39.250515,1057.9039)"
       gradientUnits="userSpaceOnUse" />
    <radialGradient
       inkscape:collect="always"
       xlink:href="#linearGradient5985"
       id="radialGradient6387-41-00-14"
       cx="113.40355"
       cy="1026.0599"
       fx="113.40355"
       fy="1026.0599"
       r="51.351246"
       gradientTransform="matrix(0,-0.43815949,0.05770247,0,27.332386,1079.551)"
       gradientUnits="userSpaceOnUse" />
    <radialGradient
       inkscape:collect="always"
       xlink:href="#linearGradient5985"
       id="radialGradient6387-41-00-39"
       cx="113.40355"
       cy="1026.0599"
       fx="113.40355"
       fy="1026.0599"
       r="51.351246"
       gradientTransform="matrix(0,-0.43815949,0.05770247,0,34.063019,1079.551)"
       gradientUnits="userSpaceOnUse" />
    <radialGradient
       inkscape:collect="always"
       xlink:href="#linearGradient5985"
       id="radialGradient6387-41-00-5"
       cx="113.40355"
       cy="1026.0599"
       fx="113.40355"
       fy="1026.0599"
       r="51.351246"
       gradientTransform="matrix(0,-0.43815949,0.05770247,0,40.793655,1079.551)"
       gradientUnits="userSpaceOnUse" />
    <radialGradient
       inkscape:collect="always"
       xlink:href="#linearGradient5985"
       id="radialGradient6387-41-00-7"
       cx="113.40355"
       cy="1026.0599"
       fx="113.40355"
       fy="1026.0599"
       r="51.351246"
       gradientTransform="matrix(0,-0.43815949,0.05770247,0,47.524282,1079.551)"
       gradientUnits="userSpaceOnUse" />
    <radialGradient
       inkscape:collect="always"
       xlink:href="#linearGradient5985"
       id="radialGradient6387-41-00-13"
       cx="113.40355"
       cy="1026.0599"
       fx="113.40355"
       fy="1026.0599"
       r="51.351246"
       gradientTransform="matrix(0,-0.43815949,0.05770247,0,54.25491,1079.551)"
       gradientUnits="userSpaceOnUse" />
    <radialGradient
       inkscape:collect="always"
       xlink:href="#linearGradient4846"
       id="radialGradient5116-8-3-26"
       gradientUnits="userSpaceOnUse"
       gradientTransform="matrix(0.95637544,0,0,0.74936808,3.3751742,187.79066)"
       cx="44.875"
       cy="1030.4872"
       fx="44.875"
       fy="1030.4872"
       r="13.125" />
    <radialGradient
       inkscape:collect="always"
       xlink:href="#linearGradient5985"
       id="radialGradient6387-41-00-26-9"
       cx="113.40355"
       cy="1026.0599"
       fx="113.40355"
       fy="1026.0599"
       r="51.351246"
       gradientTransform="matrix(-1.3486483,5.5597656e-7,-2.3673591e-7,-0.415908,252.94148,389.25009)"
       gradientUnits="userSpaceOnUse" />
    <radialGradient
       inkscape:collect="always"
       xlink:href="#linearGradient5985"
       id="radialGradient5467"
       gradientUnits="userSpaceOnUse"
       gradientTransform="matrix(-1.5909034,-8.8310194e-7,3.6958653e-8,-0.49102542,280.41376,1573.6875)"
       cx="113.40355"
       cy="1026.0599"
       fx="113.40355"
       fy="1026.0599"
       r="51.351246" />
    <radialGradient
       inkscape:collect="always"
       xlink:href="#linearGradient4846"
       id="radialGradient5116-8-3-26-60-5-4-6-6"
       gradientUnits="userSpaceOnUse"
       gradientTransform="matrix(0.95637544,0,0,0.74936808,63.796054,267.50541)"
       cx="44.875"
       cy="1030.4872"
       fx="44.875"
       fy="1030.4872"
       r="13.125" />
    <radialGradient
       inkscape:collect="always"
       xlink:href="#linearGradient4846"
       id="radialGradient5116-8-3-26-6-2-4-5-1"
       gradientUnits="userSpaceOnUse"
       gradientTransform="matrix(0.95637544,0,0,0.74936808,57.082621,267.50531)"
       cx="44.875"
       cy="1030.4872"
       fx="44.875"
       fy="1030.4872"
       r="13.125" />
    <radialGradient
       inkscape:collect="always"
       xlink:href="#linearGradient4846"
       id="radialGradient5116-8-3-26-8-7-4-3-2"
       gradientUnits="userSpaceOnUse"
       gradientTransform="matrix(0.95637544,0,0,0.74936808,50.369189,267.50541)"
       cx="44.875"
       cy="1030.4872"
       fx="44.875"
       fy="1030.4872"
       r="13.125" />
    <radialGradient
       inkscape:collect="always"
       xlink:href="#linearGradient4846"
       id="radialGradient5116-8-3-26-3-7-6-7"
       gradientUnits="userSpaceOnUse"
       gradientTransform="matrix(0.95637544,0,0,0.74936808,70.509504,260.93391)"
       cx="44.875"
       cy="1030.4872"
       fx="44.875"
       fy="1030.4872"
       r="13.125" />
    <radialGradient
       inkscape:collect="always"
       xlink:href="#linearGradient4846"
       id="radialGradient5116-8-3-26-60-5-4-7"
       gradientUnits="userSpaceOnUse"
       gradientTransform="matrix(0.95637544,0,0,0.74936808,63.796072,260.93391)"
       cx="44.875"
       cy="1030.4872"
       fx="44.875"
       fy="1030.4872"
       r="13.125" />
    <radialGradient
       inkscape:collect="always"
       xlink:href="#linearGradient4846"
       id="radialGradient5116-8-3-26-6-2-4-9"
       gradientUnits="userSpaceOnUse"
       gradientTransform="matrix(0.95637544,0,0,0.74936808,57.082639,260.93381)"
       cx="44.875"
       cy="1030.4872"
       fx="44.875"
       fy="1030.4872"
       r="13.125" />
    <radialGradient
       inkscape:collect="always"
       xlink:href="#linearGradient4846"
       id="radialGradient5116-8-3-26-8-7-4-5"
       gradientUnits="userSpaceOnUse"
       gradientTransform="matrix(0.95637544,0,0,0.74936808,50.369207,260.93391)"
       cx="44.875"
       cy="1030.4872"
       fx="44.875"
       fy="1030.4872"
       r="13.125" />
    <radialGradient
       inkscape:collect="always"
       xlink:href="#linearGradient4846"
       id="radialGradient5116-8-3-26-4-5-8"
       gradientUnits="userSpaceOnUse"
       gradientTransform="matrix(0.95637544,0,0,0.74936808,43.655775,260.93391)"
       cx="44.875"
       cy="1030.4872"
       fx="44.875"
       fy="1030.4872"
       r="13.125" />
    <radialGradient
       inkscape:collect="always"
       xlink:href="#linearGradient4846"
       id="radialGradient5116-8-3-26-3-7-67"
       gradientUnits="userSpaceOnUse"
       gradientTransform="matrix(0.95637544,0,0,0.74936808,70.509509,254.36231)"
       cx="44.875"
       cy="1030.4872"
       fx="44.875"
       fy="1030.4872"
       r="13.125" />
    <radialGradient
       inkscape:collect="always"
       xlink:href="#linearGradient4846"
       id="radialGradient5116-8-3-26-60-5-3"
       gradientUnits="userSpaceOnUse"
       gradientTransform="matrix(0.95637544,0,0,0.74936808,63.796077,254.36231)"
       cx="44.875"
       cy="1030.4872"
       fx="44.875"
       fy="1030.4872"
       r="13.125" />
    <radialGradient
       inkscape:collect="always"
       xlink:href="#linearGradient4846"
       id="radialGradient5116-8-3-26-6-2-3"
       gradientUnits="userSpaceOnUse"
       gradientTransform="matrix(0.95637544,0,0,0.74936808,57.082644,254.36221)"
       cx="44.875"
       cy="1030.4872"
       fx="44.875"
       fy="1030.4872"
       r="13.125" />
    <radialGradient
       inkscape:collect="always"
       xlink:href="#linearGradient4846"
       id="radialGradient5116-8-3-26-8-7-9"
       gradientUnits="userSpaceOnUse"
       gradientTransform="matrix(0.95637544,0,0,0.74936808,50.369212,254.36231)"
       cx="44.875"
       cy="1030.4872"
       fx="44.875"
       fy="1030.4872"
       r="13.125" />
    <radialGradient
       inkscape:collect="always"
       xlink:href="#linearGradient4846"
       id="radialGradient5116-8-3-26-4-9"
       gradientUnits="userSpaceOnUse"
       gradientTransform="matrix(0.95637544,0,0,0.74936808,43.65578,254.36231)"
       cx="44.875"
       cy="1030.4872"
       fx="44.875"
       fy="1030.4872"
       r="13.125" />
    <radialGradient
       inkscape:collect="always"
       xlink:href="#linearGradient4846"
       id="radialGradient5116-8-3-26-60-6"
       gradientUnits="userSpaceOnUse"
       gradientTransform="matrix(0.95637544,0,0,0.74936808,63.796074,247.79071)"
       cx="44.875"
       cy="1030.4872"
       fx="44.875"
       fy="1030.4872"
       r="13.125" />
    <radialGradient
       inkscape:collect="always"
       xlink:href="#linearGradient4846"
       id="radialGradient5116-8-3-26-6-9"
       gradientUnits="userSpaceOnUse"
       gradientTransform="matrix(0.95637544,0,0,0.74936808,57.082641,247.79061)"
       cx="44.875"
       cy="1030.4872"
       fx="44.875"
       fy="1030.4872"
       r="13.125" />
    <radialGradient
       inkscape:collect="always"
       xlink:href="#linearGradient4846"
       id="radialGradient5116-8-3-26-8-3"
       gradientUnits="userSpaceOnUse"
       gradientTransform="matrix(0.95637544,0,0,0.74936808,50.369209,247.79071)"
       cx="44.875"
       cy="1030.4872"
       fx="44.875"
       fy="1030.4872"
       r="13.125" />
    <radialGradient
       inkscape:collect="always"
       xlink:href="#linearGradient5985"
       id="radialGradient6387-41-00-26-74"
       cx="113.40355"
       cy="1026.0599"
       fx="113.40355"
       fy="1026.0599"
       r="51.351246"
       gradientTransform="matrix(-0.62513156,0,0,-0.06467061,170.892,1086.3572)"
       gradientUnits="userSpaceOnUse" />
    <radialGradient
       inkscape:collect="always"
       xlink:href="#linearGradient5985"
       id="radialGradient6387-41-00-26-7-3"
       cx="113.40355"
       cy="1026.0599"
       fx="113.40355"
       fy="1026.0599"
       r="51.351246"
       gradientTransform="matrix(-0.68158128,0,0,-0.06467061,177.2936,1092.9308)"
       gradientUnits="userSpaceOnUse" />
    <radialGradient
       inkscape:collect="always"
       xlink:href="#linearGradient5985"
       id="radialGradient6387-41-00-26-3-6"
       cx="113.40355"
       cy="1026.0599"
       fx="113.40355"
       fy="1026.0599"
       r="51.351246"
       gradientTransform="matrix(-0.68158128,0,0,-0.06467061,177.2936,1099.5047)"
       gradientUnits="userSpaceOnUse" />
    <radialGradient
       inkscape:collect="always"
       xlink:href="#linearGradient5985"
       id="radialGradient6387-41-00-26-8-9"
       cx="113.40355"
       cy="1026.0599"
       fx="113.40355"
       fy="1026.0599"
       r="51.351246"
       gradientTransform="matrix(-0.62513156,0,0,-0.06467061,170.892,1106.0783)"
       gradientUnits="userSpaceOnUse" />
    <radialGradient
       inkscape:collect="always"
       xlink:href="#linearGradient5514"
       id="radialGradient5516"
       cx="125.00031"
       cy="1029.8619"
       fx="125.00031"
       fy="1029.8619"
       r="59.84766"
       gradientTransform="matrix(0.94399867,0,0,1.8092028,6.9486358,-833.31566)"
       gradientUnits="userSpaceOnUse" />
    <linearGradient
       inkscape:collect="always"
       id="linearGradient5514">
      <stop
         style="stop-color:#ffffff;stop-opacity:0.5"
         offset="0"
         id="stop5510" />
      <stop
         style="stop-color:#ffffff;stop-opacity:0"
         offset="1"
         id="stop5512" />
    </linearGradient>
    <radialGradient
       r="32.034878"
       fy="229.92647"
       fx="767.797"
       cy="229.92648"
       cx="767.797"
       gradientTransform="matrix(-3.5592144e-5,0.25349081,-74.723489,-0.01105539,17307.476,837.78758)"
       gradientUnits="userSpaceOnUse"
       id="radialGradient5011-6"
       xlink:href="#linearGradient5027"
       inkscape:collect="always" />
    <linearGradient
       id="linearGradient5027"
       inkscape:collect="always">
      <stop
         id="stop5023"
         offset="0"
         style="stop-color:#3c3c3c;stop-opacity:1" />
      <stop
         id="stop5025"
         offset="1"
         style="stop-color:#3c3c3c;stop-opacity:1" />
    </linearGradient>
  </defs>
  <sodipodi:namedview
     id="base"
     pagecolor="#ffffff"
     bordercolor="#666666"
     borderopacity="1.0"
     inkscape:pageopacity="0.0"
     inkscape:pageshadow="2"
     inkscape:zoom="3.4283966"
     inkscape:cx="155.4138"
     inkscape:cy="1.169056"
     inkscape:document-units="px"
     inkscape:current-layer="layer1"
     showgrid="false"
     units="px"
     inkscape:window-width="1920"
     inkscape:window-height="1028"
     inkscape:window-x="-8"
     inkscape:window-y="-8"
     inkscape:window-maximized="1"
     objecttolerance="10"
     guidetolerance="9"
     showguides="true"
     inkscape:guide-bbox="true" />
  <metadata
     id="metadata7">
    <rdf:RDF>
      <cc:Work
         rdf:about="">
        <dc:format>image/svg+xml</dc:format>
        <dc:type
           rdf:resource="http://purl.org/dc/dcmitype/StillImage" />
        <dc:title />
        <dc:creator>
          <cc:Agent>
            <dc:title>Jorge Rosa</dc:title>
          </cc:Agent>
        </dc:creator>
        <dc:description>Email: jorge.bigarte@gmail.com
Site:https://sites.google.com/site/jorgerosaportfolio</dc:description>
      </cc:Work>
    </rdf:RDF>
  </metadata>
  <g
     inkscape:groupmode="layer"
     id="layer2"
     inkscape:label="Back"
     style="display:none"
     sodipodi:insensitive="true">
    <rect
       style="opacity:1;fill:#000000;fill-opacity:1;stroke:none;stroke-width:1.3690505;stroke-linecap:butt;stroke-linejoin:round;stroke-miterlimit:4.5;stroke-dasharray:none;stroke-dashoffset:0;stroke-opacity:1;paint-order:stroke fill markers"
       id="rect4579"
       width="250"
       height="45"
       x="0"
       y="0" />
  </g>
  <g
     inkscape:label="Layer 1"
     inkscape:groupmode="layer"
     id="layer1"
     transform="translate(0,-1007.3622)">
    <g
       id="g4288"
       transform="matrix(1.1635329,0,0,1.1635329,-15.649387,-168.56543)" />
    <path
       style="opacity:1;fill:url(#radialGradient4696);fill-opacity:1;stroke:#3c3c3c;stroke-width:1;stroke-miterlimit:4;stroke-dasharray:none;stroke-opacity:1"
       id="path4557-6"
       r="11.625"
       cy="1031.149"
       cx="72.478439"
       d=""
       inkscape:connector-curvature="0" />
    <g
       transform="translate(-3.1e-4,3e-4)"
       id="g5520">
      <rect
         y="1014.3463"
         x="64.533897"
         height="31.134375"
         width="120.8297"
         id="rect5508"
         style="opacity:0.5;fill:url(#radialGradient5516);fill-opacity:1;stroke:none;stroke-width:0.20470935;stroke-linecap:butt;stroke-linejoin:round;stroke-miterlimit:4;stroke-dasharray:none;stroke-dashoffset:0;stroke-opacity:1;paint-order:stroke fill markers" />
      <path
         inkscape:connector-curvature="0"
         id="rect4183-9-9-8"
         d="m 63.555,1013.5416 v 32.6406 h 93.9785 28.91212 v -32.6406 z m 1.59765,1.3203 h 119.69532 v 30 H 65.15265 Z"
         style="display:inline;opacity:1;fill:url(#radialGradient5011-6);fill-opacity:1;stroke:none;stroke-width:0.51991236;stroke-linecap:round;stroke-linejoin:round;stroke-miterlimit:4;stroke-dasharray:none;stroke-dashoffset:0;stroke-opacity:1" />
    </g>
    <g
       id="g4602"
       transform="translate(25)">
      <path
         style="opacity:1;fill:url(#radialGradient5116-8-3-26-8-3);fill-opacity:1;stroke:none;stroke-width:0.21601351;stroke-miterlimit:4;stroke-dasharray:none;stroke-opacity:1"
         d="m 95.797711,1020.0049 a 2.5111571,2.5111571 0 0 1 -2.511157,2.5112 2.5111571,2.5111571 0 0 1 -2.511157,-2.5112 2.5111571,2.5111571 0 0 1 2.511157,-2.5112 2.5111571,2.5111571 0 0 1 2.511157,2.5112 z"
         id="path4557-00-4-6-1-8"
         inkscape:connector-curvature="0" />
      <path
         style="opacity:1;fill:url(#radialGradient5116-8-3-26-6-9);fill-opacity:1;stroke:none;stroke-width:0.21601351;stroke-miterlimit:4;stroke-dasharray:none;stroke-opacity:1"
         d="m 102.51114,1020.0049 a 2.5111571,2.5111571 0 0 1 -2.511154,2.5111 2.5111571,2.5111571 0 0 1 -2.511157,-2.5111 2.5111571,2.5111571 0 0 1 2.511157,-2.5113 2.5111571,2.5111571 0 0 1 2.511154,2.5113 z"
         id="path4557-00-4-6-7-2"
         inkscape:connector-curvature="0" />
      <path
         style="opacity:1;fill:url(#radialGradient5116-8-3-26-60-6);fill-opacity:1;stroke:none;stroke-width:0.21601351;stroke-miterlimit:4;stroke-dasharray:none;stroke-opacity:1"
         d="m 109.22457,1020.0049 a 2.5111571,2.5111571 0 0 1 -2.51115,2.5112 2.5111571,2.5111571 0 0 1 -2.51116,-2.5112 2.5111571,2.5111571 0 0 1 2.51116,-2.5112 2.5111571,2.5111571 0 0 1 2.51115,2.5112 z"
         id="path4557-00-4-6-9-8"
         inkscape:connector-curvature="0" />
      <path
         style="opacity:1;fill:url(#radialGradient5116-8-3-26-4-9);fill-opacity:1;stroke:none;stroke-width:0.21601351;stroke-miterlimit:4;stroke-dasharray:none;stroke-opacity:1"
         d="m 89.084282,1026.5766 a 2.5111571,2.5111571 0 0 1 -2.511157,2.511 2.5111571,2.5111571 0 0 1 -2.511157,-2.511 2.5111571,2.5111571 0 0 1 2.511157,-2.5112 2.5111571,2.5111571 0 0 1 2.511157,2.5112 z"
         id="path4557-00-4-6-98-8"
         inkscape:connector-curvature="0" />
      <path
         style="opacity:1;fill:url(#radialGradient5116-8-3-26-8-7-9);fill-opacity:1;stroke:none;stroke-width:0.21601351;stroke-miterlimit:4;stroke-dasharray:none;stroke-opacity:1"
         d="m 95.797714,1026.5766 a 2.5111571,2.5111571 0 0 1 -2.511157,2.511 2.5111571,2.5111571 0 0 1 -2.511157,-2.511 2.5111571,2.5111571 0 0 1 2.511157,-2.5112 2.5111571,2.5111571 0 0 1 2.511157,2.5112 z"
         id="path4557-00-4-6-1-6-3"
         inkscape:connector-curvature="0" />
      <path
         style="opacity:1;fill:url(#radialGradient5116-8-3-26-6-2-3);fill-opacity:1;stroke:none;stroke-width:0.21601351;stroke-miterlimit:4;stroke-dasharray:none;stroke-opacity:1"
         d="m 102.51114,1026.5765 a 2.5111571,2.5111571 0 0 1 -2.511151,2.511 2.5111571,2.5111571 0 0 1 -2.511157,-2.511 2.5111571,2.5111571 0 0 1 2.511157,-2.5112 2.5111571,2.5111571 0 0 1 2.511151,2.5112 z"
         id="path4557-00-4-6-7-8-8"
         inkscape:connector-curvature="0" />
      <path
         style="opacity:1;fill:url(#radialGradient5116-8-3-26-60-5-3);fill-opacity:1;stroke:none;stroke-width:0.21601351;stroke-miterlimit:4;stroke-dasharray:none;stroke-opacity:1"
         d="m 109.22457,1026.5766 a 2.5111571,2.5111571 0 0 1 -2.51115,2.511 2.5111571,2.5111571 0 0 1 -2.51116,-2.511 2.5111571,2.5111571 0 0 1 2.51116,-2.5112 2.5111571,2.5111571 0 0 1 2.51115,2.5112 z"
         id="path4557-00-4-6-9-5-3"
         inkscape:connector-curvature="0" />
      <path
         style="opacity:1;fill:url(#radialGradient5116-8-3-26-3-7-67);fill-opacity:1;stroke:none;stroke-width:0.21601351;stroke-miterlimit:4;stroke-dasharray:none;stroke-opacity:1"
         d="m 115.93801,1026.5766 a 2.5111571,2.5111571 0 0 1 -2.51116,2.511 2.5111571,2.5111571 0 0 1 -2.51116,-2.511 2.5111571,2.5111571 0 0 1 2.51116,-2.5112 2.5111571,2.5111571 0 0 1 2.51116,2.5112 z"
         id="path4557-00-4-6-96-1-0"
         inkscape:connector-curvature="0" />
      <path
         style="opacity:1;fill:url(#radialGradient5116-8-3-26-4-5-8);fill-opacity:1;stroke:none;stroke-width:0.21601351;stroke-miterlimit:4;stroke-dasharray:none;stroke-opacity:1"
         d="m 89.084277,1033.1481 a 2.5111571,2.5111571 0 0 1 -2.511157,2.5111 2.5111571,2.5111571 0 0 1 -2.511157,-2.5111 2.5111571,2.5111571 0 0 1 2.511157,-2.5112 2.5111571,2.5111571 0 0 1 2.511157,2.5112 z"
         id="path4557-00-4-6-98-7-2"
         inkscape:connector-curvature="0" />
      <path
         style="opacity:1;fill:url(#radialGradient5116-8-3-26-8-7-4-5);fill-opacity:1;stroke:none;stroke-width:0.21601351;stroke-miterlimit:4;stroke-dasharray:none;stroke-opacity:1"
         d="m 95.797709,1033.1481 a 2.5111571,2.5111571 0 0 1 -2.511157,2.5111 2.5111571,2.5111571 0 0 1 -2.511157,-2.5111 2.5111571,2.5111571 0 0 1 2.511157,-2.5112 2.5111571,2.5111571 0 0 1 2.511157,2.5112 z"
         id="path4557-00-4-6-1-6-9-9"
         inkscape:connector-curvature="0" />
      <path
         style="opacity:1;fill:url(#radialGradient5116-8-3-26-6-2-4-9);fill-opacity:1;stroke:none;stroke-width:0.21601351;stroke-miterlimit:4;stroke-dasharray:none;stroke-opacity:1"
         d="m 102.51114,1033.148 a 2.5111571,2.5111571 0 0 1 -2.511156,2.5111 2.5111571,2.5111571 0 0 1 -2.511157,-2.5111 2.5111571,2.5111571 0 0 1 2.511157,-2.5112 2.5111571,2.5111571 0 0 1 2.511156,2.5112 z"
         id="path4557-00-4-6-7-8-9-7"
         inkscape:connector-curvature="0" />
      <path
         style="opacity:1;fill:url(#radialGradient5116-8-3-26-60-5-4-7);fill-opacity:1;stroke:none;stroke-width:0.21601351;stroke-miterlimit:4;stroke-dasharray:none;stroke-opacity:1"
         d="m 109.22457,1033.1481 a 2.5111571,2.5111571 0 0 1 -2.51116,2.5111 2.5111571,2.5111571 0 0 1 -2.51115,-2.5111 2.5111571,2.5111571 0 0 1 2.51115,-2.5112 2.5111571,2.5111571 0 0 1 2.51116,2.5112 z"
         id="path4557-00-4-6-9-5-8-5"
         inkscape:connector-curvature="0" />
      <path
         style="opacity:1;fill:url(#radialGradient5116-8-3-26-3-7-6-7);fill-opacity:1;stroke:none;stroke-width:0.21601351;stroke-miterlimit:4;stroke-dasharray:none;stroke-opacity:1"
         d="m 115.938,1033.1481 a 2.5111571,2.5111571 0 0 1 -2.51116,2.5111 2.5111571,2.5111571 0 0 1 -2.51115,-2.5111 2.5111571,2.5111571 0 0 1 2.51115,-2.5112 2.5111571,2.5111571 0 0 1 2.51116,2.5112 z"
         id="path4557-00-4-6-96-1-2-56"
         inkscape:connector-curvature="0" />
      <path
         style="opacity:1;fill:url(#radialGradient5116-8-3-26-8-7-4-3-2);fill-opacity:1;stroke:none;stroke-width:0.21601351;stroke-miterlimit:4;stroke-dasharray:none;stroke-opacity:1"
         d="m 95.797691,1039.7196 a 2.5111571,2.5111571 0 0 1 -2.511157,2.5111 2.5111571,2.5111571 0 0 1 -2.511157,-2.5111 2.5111571,2.5111571 0 0 1 2.511157,-2.5112 2.5111571,2.5111571 0 0 1 2.511157,2.5112 z"
         id="path4557-00-4-6-1-6-9-1-1"
         inkscape:connector-curvature="0" />
      <path
         style="opacity:1;fill:url(#radialGradient5116-8-3-26-6-2-4-5-1);fill-opacity:1;stroke:none;stroke-width:0.21601351;stroke-miterlimit:4;stroke-dasharray:none;stroke-opacity:1"
         d="m 102.51112,1039.7195 a 2.5111571,2.5111571 0 0 1 -2.511154,2.5111 2.5111571,2.5111571 0 0 1 -2.511157,-2.5111 2.5111571,2.5111571 0 0 1 2.511157,-2.5112 2.5111571,2.5111571 0 0 1 2.511154,2.5112 z"
         id="path4557-00-4-6-7-8-9-0-2"
         inkscape:connector-curvature="0" />
      <path
         style="opacity:1;fill:url(#radialGradient5116-8-3-26-60-5-4-6-6);fill-opacity:1;stroke:none;stroke-width:0.21601351;stroke-miterlimit:4;stroke-dasharray:none;stroke-opacity:1"
         d="m 109.22455,1039.7196 a 2.5111571,2.5111571 0 0 1 -2.51116,2.5111 2.5111571,2.5111571 0 0 1 -2.51115,-2.5111 2.5111571,2.5111571 0 0 1 2.51115,-2.5112 2.5111571,2.5111571 0 0 1 2.51116,2.5112 z"
         id="path4557-00-4-6-9-5-8-1-8"
         inkscape:connector-curvature="0" />
      <path
         style="opacity:0.6;fill:url(#radialGradient6387-41-00-14);fill-opacity:1;stroke:none;stroke-width:0.62140357;stroke-miterlimit:4;stroke-dasharray:none;stroke-opacity:1"
         d="m 86.53897,1007.3622 a 2.9630873,22.500036 0 0 1 2.962869,22.4999 2.9630873,22.500036 0 0 1 -2.962869,22.5001 2.9630873,22.500036 0 0 1 -2.963325,-22.5001 2.9630873,22.500036 0 0 1 2.963325,-22.4999 z"
         id="path6378-4-18-7"
         inkscape:connector-curvature="0" />
      <path
         style="opacity:0.6;fill:url(#radialGradient6387-41-00-39);fill-opacity:1;stroke:none;stroke-width:0.62140357;stroke-miterlimit:4;stroke-dasharray:none;stroke-opacity:1"
         d="m 93.269612,1007.3622 a 2.9630873,22.500036 0 0 1 2.962868,22.4999 2.9630873,22.500036 0 0 1 -2.962868,22.5001 2.9630873,22.500036 0 0 1 -2.963326,-22.5001 2.9630873,22.500036 0 0 1 2.963326,-22.4999 z"
         id="path6378-4-18-3"
         inkscape:connector-curvature="0" />
      <path
         style="opacity:0.6;fill:url(#radialGradient6387-41-00-5);fill-opacity:1;stroke:none;stroke-width:0.62140357;stroke-miterlimit:4;stroke-dasharray:none;stroke-opacity:1"
         d="m 100.00023,1007.3622 a 2.9630873,22.500036 0 0 1 2.96287,22.4999 2.9630873,22.500036 0 0 1 -2.96287,22.5001 2.9630873,22.500036 0 0 1 -2.963321,-22.5001 2.9630873,22.500036 0 0 1 2.963321,-22.4999 z"
         id="path6378-4-18-10"
         inkscape:connector-curvature="0" />
      <path
         style="opacity:0.6;fill:url(#radialGradient6387-41-00-7);fill-opacity:1;stroke:none;stroke-width:0.62140357;stroke-miterlimit:4;stroke-dasharray:none;stroke-opacity:1"
         d="m 106.73084,1007.3622 a 2.9630873,22.500036 0 0 1 2.96289,22.4999 2.9630873,22.500036 0 0 1 -2.96289,22.5001 2.9630873,22.500036 0 0 1 -2.96331,-22.5001 2.9630873,22.500036 0 0 1 2.96331,-22.4999 z"
         id="path6378-4-18-55"
         inkscape:connector-curvature="0" />
      <path
         style="opacity:0.6;fill:url(#radialGradient6387-41-00-13);fill-opacity:1;stroke:none;stroke-width:0.62140357;stroke-miterlimit:4;stroke-dasharray:none;stroke-opacity:1"
         d="m 113.46148,1007.3622 a 2.9630873,22.500036 0 0 1 2.96289,22.4999 2.9630873,22.500036 0 0 1 -2.96289,22.5001 2.9630873,22.500036 0 0 1 -2.96331,-22.5001 2.9630873,22.500036 0 0 1 2.96331,-22.4999 z"
         id="path6378-4-18-87"
         inkscape:connector-curvature="0" />
      <path
         style="opacity:0.6;fill:url(#radialGradient6387-41-00-26-74);fill-opacity:1;stroke:none;stroke-width:0.7413885;stroke-miterlimit:4;stroke-dasharray:none;stroke-opacity:1"
         d="m 67.898759,1020.0007 a 32.101287,2.9563065 0 0 1 32.101051,-2.9561 32.101287,2.9563065 0 0 1 32.10143,2.9561 32.101287,2.9563065 0 0 1 -32.10143,2.9563 32.101287,2.9563065 0 0 1 -32.101051,-2.9563 z"
         id="path6378-4-18-870-7"
         inkscape:connector-curvature="0" />
      <path
         style="opacity:0.6;fill:url(#radialGradient6387-41-00-26-7-3);fill-opacity:1;stroke:none;stroke-width:0.77413893;stroke-miterlimit:4;stroke-dasharray:none;stroke-opacity:1"
         d="m 65.000001,1026.5743 a 35.000051,2.9563065 0 0 1 34.999789,-2.9561 35.000051,2.9563065 0 0 1 35.00021,2.9561 35.000051,2.9563065 0 0 1 -35.00021,2.9563 35.000051,2.9563065 0 0 1 -34.999789,-2.9563 z"
         id="path6378-4-18-870-8-5"
         inkscape:connector-curvature="0" />
      <path
         style="opacity:0.6;fill:url(#radialGradient6387-41-00-26-3-6);fill-opacity:1;stroke:none;stroke-width:0.77413893;stroke-miterlimit:4;stroke-dasharray:none;stroke-opacity:1"
         d="M 65,1033.1482 A 35.000051,2.9563065 0 0 1 99.99979,1030.1921 35.000051,2.9563065 0 0 1 135,1033.1482 35.000051,2.9563065 0 0 1 99.99979,1036.1045 35.000051,2.9563065 0 0 1 65,1033.1482 Z"
         id="path6378-4-18-870-1-0"
         inkscape:connector-curvature="0" />
      <path
         style="opacity:0.6;fill:url(#radialGradient6387-41-00-26-8-9);fill-opacity:1;stroke:none;stroke-width:0.7413885;stroke-miterlimit:4;stroke-dasharray:none;stroke-opacity:1"
         d="m 67.898759,1039.7218 a 32.101288,2.9563065 0 0 1 32.101051,-2.9561 32.101288,2.9563065 0 0 1 32.10143,2.9561 32.101288,2.9563065 0 0 1 -32.10143,2.9563 32.101288,2.9563065 0 0 1 -32.101051,-2.9563 z"
         id="path6378-4-18-870-11-8"
         inkscape:connector-curvature="0" />
    </g>
  </g>
</svg>
