<?xml version="1.0" encoding="UTF-8" standalone="no"?>
<!-- Created with Inkscape (http://www.inkscape.org/) -->

<svg
   xmlns:dc="http://purl.org/dc/elements/1.1/"
   xmlns:cc="http://creativecommons.org/ns#"
   xmlns:rdf="http://www.w3.org/1999/02/22-rdf-syntax-ns#"
   xmlns:svg="http://www.w3.org/2000/svg"
   xmlns="http://www.w3.org/2000/svg"
   xmlns:xlink="http://www.w3.org/1999/xlink"
   xmlns:sodipodi="http://sodipodi.sourceforge.net/DTD/sodipodi-0.dtd"
   xmlns:inkscape="http://www.inkscape.org/namespaces/inkscape"
   width="60"
   height="30"
   viewBox="0 0 60 30"
   id="svg2"
   version="1.1"
   inkscape:version="0.92.1 r15371"
   sodipodi:docname="tab_samplers_pressed.svg">
  <defs
     id="defs4">
    <inkscape:perspective
       id="perspective2840"
       inkscape:persp3d-origin="372.04724 : 350.78739 : 1"
       inkscape:vp_z="744.09448 : 526.18109 : 1"
       inkscape:vp_y="0 : 1000 : 0"
       inkscape:vp_x="0 : 526.18109 : 1"
       sodipodi:type="inkscape:persp3d" />
    <inkscape:perspective
       id="perspective2840-1"
       inkscape:persp3d-origin="372.04724 : 350.78739 : 1"
       inkscape:vp_z="744.09448 : 526.18109 : 1"
       inkscape:vp_y="0 : 1000 : 0"
       inkscape:vp_x="0 : 526.18109 : 1"
       sodipodi:type="inkscape:persp3d" />
    <pattern
       y="0"
       x="0"
       height="6"
       width="6"
       patternUnits="userSpaceOnUse"
       id="EMFhbasepattern" />
    <radialGradient
       inkscape:collect="always"
       xlink:href="#linearGradient4226"
       id="radialGradient5497"
       cx="30.078903"
       cy="1018.9943"
       fx="30.078903"
       fy="1018.9943"
       r="22.454525"
       gradientTransform="matrix(2.7286229,-1.7021667e-7,-6.9869432e-7,0.76130842,-53.319848,261.32)"
       gradientUnits="userSpaceOnUse" />
    <linearGradient
       inkscape:collect="always"
       id="linearGradient4226">
      <stop
         style="stop-color:#553289;stop-opacity:1"
         offset="0"
         id="stop4228" />
      <stop
         style="stop-color:#000000;stop-opacity:1"
         offset="1"
         id="stop4230" />
    </linearGradient>
    <pattern
       y="0"
       x="0"
       height="6"
       width="6"
       patternUnits="userSpaceOnUse"
       id="EMFhbasepattern-4" />
  </defs>
  <sodipodi:namedview
     id="base"
     pagecolor="#ffffff"
     bordercolor="#666666"
     borderopacity="1.0"
     inkscape:pageopacity="0.0"
     inkscape:pageshadow="2"
     inkscape:zoom="14.951687"
     inkscape:cx="30.087138"
     inkscape:cy="11.742412"
     inkscape:document-units="px"
     inkscape:current-layer="g5160"
     showgrid="false"
     units="px"
     inkscape:window-width="1920"
     inkscape:window-height="1028"
     inkscape:window-x="-8"
     inkscape:window-y="-8"
     inkscape:window-maximized="1"
     objecttolerance="10"
     guidetolerance="9"
     showguides="true"
     inkscape:guide-bbox="true" />
  <metadata
     id="metadata7">
    <rdf:RDF>
      <cc:Work
         rdf:about="">
        <dc:format>image/svg+xml</dc:format>
        <dc:type
           rdf:resource="http://purl.org/dc/dcmitype/StillImage" />
        <dc:title />
        <dc:creator>
          <cc:Agent>
            <dc:title>Jorge Rosa</dc:title>
          </cc:Agent>
        </dc:creator>
        <dc:description>Email: jorge.bigarte@gmail.com
Site:https://sites.google.com/site/jorgerosaportfolio</dc:description>
      </cc:Work>
    </rdf:RDF>
  </metadata>
  <g
     inkscape:label="Layer 1"
     inkscape:groupmode="layer"
     id="layer1"
     transform="translate(0,-1022.3622)">
    <text
       xml:space="preserve"
       style="font-style:normal;font-weight:normal;font-size:7.3307333px;line-height:125%;font-family:sans-serif;letter-spacing:0px;word-spacing:0px;opacity:0.1;fill:#ececec;fill-opacity:1;stroke:none;stroke-width:1px;stroke-linecap:butt;stroke-linejoin:miter;stroke-opacity:1"
       x="-64.373627"
       y="823.29761"
       id="text6116-5"
       transform="scale(1.0112873,0.98883868)"><tspan
         sodipodi:role="line"
         id="tspan6118-8"
         x="-64.373627"
         y="823.29761"
         style="font-style:normal;font-variant:normal;font-weight:normal;font-stretch:normal;font-family:Digital;-inkscape-font-specification:Digital;fill:#ececec">8888888888888888888888888888888888888888888888888888888888888888888888888</tspan></text>
    <g
       id="g5160">
      <g
         id="g4257"
         transform="translate(0,-5e-5)">
        <path
           inkscape:connector-curvature="0"
           id="rect5489"
           d="m 2.5,1048.1965 v -21.6685 h 55 v 21.6685 z"
           style="opacity:1;fill:url(#radialGradient5497);fill-opacity:1;stroke:none;stroke-width:1.45692945;stroke-linecap:round;stroke-linejoin:round;stroke-miterlimit:4;stroke-dasharray:none;stroke-dashoffset:0;stroke-opacity:1" />
      </g>
      <g
         id="g4559"
         transform="translate(-8.524081,-20.7996)">
        <path
           inkscape:connector-curvature="0"
           style="fill:#e5d5ff;fill-opacity:1;fill-rule:nonzero;stroke:none"
           d="m 22.4042,1060.2799 c 0,0.32 -0.08,0.64 -0.239998,0.8799 -0.08,0.32 -0.239998,0.56 -0.479996,0.8 -0.239999,0.16 -0.479997,0.4 -0.799995,0.48 -0.319997,0.16 -0.719994,0.16 -1.119991,0.16 -0.239998,0 -0.479997,0 -0.639995,0 -0.239999,0 -0.399998,-0.08 -0.639996,-0.16 -0.159999,0 -0.319997,-0.08 -0.479996,-0.16 -0.159999,-0.08 -0.319998,-0.16 -0.479997,-0.24 v -1.1999 c 0.159999,0.08 0.319998,0.16 0.479997,0.24 0.159999,0.1599 0.399997,0.2399 0.559996,0.2399 0.239998,0.08 0.399997,0.16 0.639995,0.24 0.159999,0 0.319998,0.08 0.479996,0.08 0.239999,0 0.479997,-0.08 0.639996,-0.16 0.239998,0 0.319997,-0.08 0.479996,-0.24 0.08,-0.08 0.239998,-0.2399 0.239998,-0.3999 0.08,-0.16 0.159999,-0.32 0.159999,-0.48 0,-0.24 -0.08,-0.4 -0.159999,-0.56 -0.08,-0.16 -0.159999,-0.24 -0.319997,-0.4 -0.159999,-0.08 -0.319998,-0.16 -0.479997,-0.24 -0.239998,-0.08 -0.479996,-0.24 -0.719994,-0.32 -0.319998,-0.08 -0.639996,-0.24 -0.879994,-0.4 -0.239998,-0.08 -0.479996,-0.24 -0.639995,-0.48 -0.159999,-0.16 -0.319998,-0.32 -0.399997,-0.56 -0.08,-0.24 -0.159999,-0.48 -0.159999,-0.8 0,-0.32 0.08,-0.64 0.239998,-0.96 0.08,-0.24 0.319998,-0.48 0.559996,-0.64 0.239998,-0.24 0.479996,-0.4 0.799994,-0.48 0.319998,-0.08 0.639995,-0.16 1.039992,-0.16 0.319998,0 0.719995,0 1.039993,0.08 0.319997,0.08 0.559996,0.16 0.799994,0.32 v 1.12 c -0.08,-0.08 -0.239998,-0.16 -0.399997,-0.16 -0.159999,-0.08 -0.319998,-0.16 -0.479997,-0.16 -0.159999,-0.08 -0.319997,-0.08 -0.559996,-0.16 -0.159998,0 -0.319997,0 -0.479996,0 -0.239998,0 -0.399997,0 -0.559996,0.08 -0.159999,0.08 -0.319997,0.16 -0.479996,0.24 -0.08,0.08 -0.159999,0.24 -0.239999,0.32 -0.08,0.16 -0.08,0.32 -0.08,0.48 0,0.16 0.08,0.32 0.08,0.48 0.08,0.16 0.239999,0.24 0.399998,0.4 0.159998,0.08 0.319997,0.16 0.479996,0.24 0.239998,0.08 0.479996,0.24 0.719995,0.32 0.319997,0.08 0.559995,0.24 0.879993,0.4 0.239998,0.16 0.479997,0.32 0.639995,0.48 0.159999,0.16 0.319998,0.4 0.399997,0.64 0.08,0.24 0.159999,0.48 0.159999,0.8 z"
           id="path4520" />
        <path
           inkscape:connector-curvature="0"
           style="fill:#e5d5ff;fill-opacity:1;fill-rule:nonzero;stroke:none"
           d="m 26.404171,1060.1999 c -0.08,0 -0.239999,-0.08 -0.319998,-0.08 -0.159999,0 -0.239998,0 -0.399997,0 -0.239998,0 -0.479997,0.08 -0.639995,0.08 -0.239999,0.08 -0.319998,0.16 -0.479997,0.24 -0.08,0.08 -0.159999,0.16 -0.159999,0.24 -0.08,0.08 -0.08,0.24 -0.08,0.32 0,0.2399 0.08,0.3999 0.159999,0.5599 0.159999,0.08 0.319998,0.16 0.559996,0.16 0.239998,0 0.479996,0 0.719995,-0.16 0.239998,-0.08 0.399997,-0.24 0.639995,-0.4 z m 1.119991,2.3999 c -0.159999,0 -0.239998,0 -0.399997,0 -0.08,-0.08 -0.239998,-0.08 -0.319997,-0.16 -0.08,-0.08 -0.159999,-0.08 -0.159999,-0.16 -0.08,-0.08 -0.08,-0.24 -0.159999,-0.32 -0.159999,0.24 -0.399997,0.32 -0.719995,0.48 -0.239998,0.16 -0.559996,0.16 -0.959993,0.16 -0.239998,0 -0.559995,0 -0.719994,-0.08 -0.239998,-0.08 -0.399997,-0.16 -0.559996,-0.32 -0.159999,-0.16 -0.239998,-0.32 -0.319998,-0.48 -0.08,-0.24 -0.08,-0.4 -0.08,-0.6399 0,-0.56 0.159999,-0.96 0.639996,-1.28 0.399997,-0.32 1.039992,-0.48 1.839986,-0.48 0.159999,0 0.239998,0 0.399997,0 0.08,0.08 0.239998,0.08 0.399997,0.08 0,-0.4 -0.08,-0.72 -0.239998,-0.88 -0.159999,-0.24 -0.399997,-0.32 -0.799994,-0.32 -0.239999,0 -0.479997,0.08 -0.799994,0.08 -0.239999,0.08 -0.479997,0.16 -0.799994,0.32 v -0.96 c 0.239998,-0.08 0.479996,-0.16 0.799994,-0.24 0.319997,-0.08 0.559995,-0.08 0.879993,-0.08 0.319998,0 0.639995,0 0.879994,0.08 0.319997,0.08 0.559995,0.16 0.719994,0.32 0.159999,0.16 0.319998,0.4 0.399997,0.64 0.08,0.24 0.159999,0.56 0.159999,0.96 v 1.9999 c 0,0.16 0,0.24 0.08,0.32 0.08,0.08 0.159999,0.08 0.239998,0.08 0.08,0 0.159999,0 0.239999,0 0.08,0 0.159998,0 0.239998,0 v 0.72 c -0.08,0 -0.239998,0.08 -0.399997,0.16 -0.159999,0 -0.319998,0 -0.479997,0 z"
           id="path4522" />
        <path
           inkscape:connector-curvature="0"
           style="fill:#e5d5ff;fill-opacity:1;fill-rule:nonzero;stroke:none"
           d="m 33.764116,1062.5198 h -1.199991 v -3.1999 c 0,-0.32 -0.08,-0.64 -0.159999,-0.8 -0.159999,-0.16 -0.399997,-0.32 -0.639995,-0.32 -0.159999,0 -0.239998,0.08 -0.399997,0.08 -0.159999,0.08 -0.239998,0.08 -0.319998,0.16 -0.159999,0.08 -0.239998,0.16 -0.319997,0.16 -0.08,0.08 -0.159999,0.16 -0.239999,0.24 v 3.6799 h -1.199991 v -5.1199 h 1.119992 l 0.08,0.48 c 0.08,0 0.159999,-0.08 0.239999,-0.16 0.159998,-0.08 0.239998,-0.16 0.399997,-0.24 0.159998,-0.08 0.239998,-0.08 0.399997,-0.16 0.159999,0 0.319997,0 0.479996,0 0.319998,0 0.639995,0.08 0.959993,0.16 0.239998,0.16 0.399997,0.4 0.559996,0.64 0.08,-0.08 0.239998,-0.16 0.319998,-0.32 0.159998,-0.08 0.319997,-0.16 0.479996,-0.24 0.159999,-0.08 0.319998,-0.16 0.479996,-0.16 0.159999,-0.08 0.319998,-0.08 0.479997,-0.08 0.639995,0 1.039992,0.16 1.35999,0.48 0.239998,0.4 0.399997,0.88 0.399997,1.52 v 3.1999 h -1.199991 v -3.1999 c 0,-0.32 -0.08,-0.64 -0.159999,-0.8 -0.159999,-0.16 -0.399997,-0.32 -0.639995,-0.32 -0.159999,0 -0.319998,0.08 -0.399997,0.08 -0.159999,0.08 -0.239999,0.16 -0.399997,0.16 -0.08,0.08 -0.159999,0.16 -0.239999,0.24 -0.159998,0.08 -0.159998,0.16 -0.239998,0.24 0,0 0,0.08 0,0.16 0,0.08 0,0.16 0,0.24 z"
           id="path4524" />
        <path
           inkscape:connector-curvature="0"
           style="fill:#e5d5ff;fill-opacity:1;fill-rule:nonzero;stroke:none"
           d="m 39.204076,1061.3998 c 0.08,0 0.159999,0.08 0.239998,0.08 0.08,0.08 0.159999,0.08 0.239998,0.16 0.08,0 0.239998,0.08 0.319998,0.08 0.159999,0 0.239998,0 0.399997,0 0.239998,0 0.479996,0 0.639995,-0.08 0.239998,-0.08 0.399997,-0.24 0.559996,-0.4 0.159999,-0.1599 0.239998,-0.3199 0.319998,-0.5599 0.08,-0.24 0.08,-0.48 0.08,-0.8 0,-0.24 0,-0.48 -0.08,-0.72 -0.08,-0.16 -0.159999,-0.32 -0.319998,-0.48 -0.08,-0.16 -0.239998,-0.32 -0.399997,-0.4 -0.159999,-0.08 -0.319998,-0.08 -0.559996,-0.08 -0.159999,0 -0.319997,0 -0.479996,0.08 -0.08,0 -0.239999,0.08 -0.319998,0.08 -0.159999,0.08 -0.239998,0.16 -0.319998,0.24 -0.159998,0.08 -0.239998,0.16 -0.319997,0.16 z m -1.199991,-3.9999 h 1.199991 v 0.48 c 0.239998,-0.16 0.479996,-0.32 0.719994,-0.4 0.239999,-0.16 0.559996,-0.16 0.959993,-0.16 0.319998,0 0.639996,0 0.879994,0.16 0.319997,0.08 0.559996,0.24 0.799994,0.48 0.159999,0.24 0.319998,0.48 0.479996,0.8 0.08,0.32 0.159999,0.72 0.159999,1.2 0,0.4 0,0.72 -0.159999,1.04 -0.08,0.3199 -0.319997,0.6399 -0.479996,0.8799 -0.239998,0.24 -0.479997,0.4 -0.799994,0.56 -0.399997,0.08 -0.719995,0.16 -1.119992,0.16 -0.239998,0 -0.559996,0 -0.799994,-0.08 -0.239998,-0.08 -0.399997,-0.16 -0.639995,-0.24 v 3.2 h -1.199991 z"
           id="path4526" />
        <path
           inkscape:connector-curvature="0"
           style="fill:#e5d5ff;fill-opacity:1;fill-rule:nonzero;stroke:none"
           d="M 45.284031,1062.5198 H 44.08404 v -8.0799 h 1.199991 z"
           id="path4528" />
        <path
           inkscape:connector-curvature="0"
           style="fill:#e5d5ff;fill-opacity:1;fill-rule:nonzero;stroke:none"
           d="m 48.884004,1058.1999 c -0.399997,0 -0.719995,0.16 -0.959993,0.32 -0.239998,0.24 -0.399997,0.48 -0.479996,0.88 h 2.63998 c 0,-0.4 -0.08,-0.64 -0.319997,-0.88 -0.239999,-0.16 -0.479997,-0.32 -0.879994,-0.32 z m -2.63998,1.76 c 0,-0.4 0.08,-0.8 0.159998,-1.12 0.159999,-0.32 0.319998,-0.56 0.559996,-0.8 0.239999,-0.24 0.559996,-0.4 0.879994,-0.56 0.319997,-0.16 0.639995,-0.16 1.039992,-0.16 0.399997,0 0.799994,0 1.039992,0.16 0.319998,0.08 0.559996,0.24 0.799994,0.48 0.159999,0.24 0.319998,0.48 0.399998,0.8 0.159998,0.24 0.159998,0.64 0.159998,1.04 v 0.48 h -3.919971 c 0.08,0.24 0.08,0.4 0.159999,0.56 0.159999,0.24 0.239998,0.3199 0.399997,0.4799 0.159999,0.16 0.319998,0.24 0.559996,0.32 0.159999,0.08 0.399997,0.08 0.639995,0.08 0.159999,0 0.319998,0 0.479997,0 0.159999,-0.08 0.319997,-0.08 0.479996,-0.16 0.159999,0 0.399997,-0.08 0.559996,-0.16 0.159999,-0.08 0.319998,-0.16 0.479997,-0.24 v 0.88 c -0.319998,0.24 -0.639996,0.32 -1.039993,0.48 -0.319997,0.08 -0.719994,0.08 -1.199991,0.08 -0.399997,0 -0.719995,0 -1.119992,-0.16 -0.319997,-0.08 -0.559995,-0.32 -0.799994,-0.56 -0.239998,-0.16 -0.399997,-0.48 -0.559996,-0.7999 -0.08,-0.32 -0.159998,-0.72 -0.159998,-1.12 z"
           id="path4530" />
        <path
           inkscape:connector-curvature="0"
           style="fill:#e5d5ff;fill-opacity:1;fill-rule:nonzero;stroke:none"
           d="m 54.483963,1057.3199 c 0.159998,0 0.319997,0 0.399997,0 0.159998,0.08 0.319997,0.08 0.399997,0.16 v 0.96 c -0.08,-0.08 -0.239999,-0.08 -0.399997,-0.08 -0.159999,0 -0.319998,0 -0.479997,0 -0.159999,0 -0.319997,0 -0.399997,0.08 -0.08,0.08 -0.159999,0.16 -0.239998,0.24 -0.08,0.16 -0.159999,0.24 -0.159999,0.4 0,0.16 -0.08,0.32 -0.08,0.48 v 2.9599 h -1.119992 v -3.3599 c 0,-0.16 -0.08,-0.32 -0.08,-0.48 0,-0.24 0,-0.4 0,-0.56 -0.08,-0.16 -0.08,-0.24 -0.08,-0.4 0,-0.16 -0.08,-0.24 -0.08,-0.32 h 1.039992 c 0,0.08 0,0.08 0.08,0.16 0,0.08 0,0.16 0,0.24 0,0.08 0.08,0.16 0.08,0.24 0,0.08 0,0.16 0,0.24 0.08,-0.08 0.159999,-0.24 0.239998,-0.32 0.08,-0.16 0.159999,-0.24 0.239998,-0.32 0.08,-0.08 0.159999,-0.16 0.319998,-0.24 0.08,-0.08 0.239998,-0.08 0.319998,-0.08 z"
           id="path4532" />
        <path
           inkscape:connector-curvature="0"
           style="fill:#e5d5ff;fill-opacity:1;fill-rule:nonzero;stroke:none"
           d="m 59.603925,1061.0799 c 0,0.2399 -0.08,0.3999 -0.159999,0.6399 -0.08,0.16 -0.159999,0.32 -0.319998,0.48 -0.159999,0.16 -0.399997,0.24 -0.639995,0.32 -0.239998,0.08 -0.479996,0.08 -0.799994,0.08 -0.319998,0 -0.559996,0 -0.879994,-0.08 -0.239998,-0.08 -0.479996,-0.16 -0.639995,-0.32 v -1.04 c 0.08,0.08 0.159999,0.16 0.319998,0.24 0.159999,0.08 0.239998,0.08 0.399997,0.16 0.159999,0.08 0.239998,0.08 0.399997,0.16 0.159999,0 0.239998,0 0.399997,0 0.239998,0 0.399997,-0.08 0.559996,-0.16 0.159999,-0.16 0.159999,-0.24 0.159999,-0.4 0,-0.08 0,-0.1599 0,-0.2399 0,-0.08 -0.08,-0.16 -0.159999,-0.24 -0.08,0 -0.159999,-0.08 -0.239998,-0.16 -0.159999,-0.08 -0.319998,-0.08 -0.479997,-0.16 -0.319998,-0.08 -0.479996,-0.24 -0.719995,-0.32 -0.159998,-0.08 -0.239998,-0.24 -0.399997,-0.32 -0.08,-0.16 -0.159998,-0.32 -0.239998,-0.4 0,-0.16 0,-0.32 0,-0.56 0,-0.16 0,-0.4 0.08,-0.56 0.159998,-0.24 0.239998,-0.4 0.399997,-0.48 0.159998,-0.16 0.399997,-0.24 0.639995,-0.32 0.239998,-0.08 0.479996,-0.08 0.719995,-0.08 0.239998,0 0.479996,0 0.639995,0 0.239998,0.08 0.479996,0.16 0.639995,0.24 v 0.96 c -0.159999,-0.08 -0.399997,-0.16 -0.639995,-0.24 -0.159999,0 -0.399997,-0.08 -0.639995,-0.08 -0.239999,0 -0.479997,0.08 -0.559996,0.16 -0.159999,0.16 -0.239999,0.24 -0.239999,0.4 0,0.08 0.08,0.16 0.08,0.24 0,0.08 0.08,0.08 0.159999,0.16 0,0.08 0.159999,0.16 0.239998,0.16 0.08,0.08 0.239998,0.16 0.479996,0.24 0.239999,0.08 0.399997,0.16 0.639996,0.24 0.159998,0.08 0.319997,0.24 0.399997,0.32 0.159998,0.16 0.239998,0.24 0.239998,0.4 0.08,0.16 0.159999,0.32 0.159999,0.56 z"
           id="path4534" />
      </g>
    </g>
  </g>
</svg>
