<?xml version="1.0" encoding="UTF-8" standalone="no"?>
<!-- Created with Inkscape (http://www.inkscape.org/) -->

<svg
   xmlns:dc="http://purl.org/dc/elements/1.1/"
   xmlns:cc="http://creativecommons.org/ns#"
   xmlns:rdf="http://www.w3.org/1999/02/22-rdf-syntax-ns#"
   xmlns:svg="http://www.w3.org/2000/svg"
   xmlns="http://www.w3.org/2000/svg"
   xmlns:xlink="http://www.w3.org/1999/xlink"
   xmlns:sodipodi="http://sodipodi.sourceforge.net/DTD/sodipodi-0.dtd"
   xmlns:inkscape="http://www.inkscape.org/namespaces/inkscape"
   width="60"
   height="30"
   viewBox="0 0 60 30"
   id="svg2"
   version="1.1"
   inkscape:version="0.92.1 r15371"
   sodipodi:docname="tab_logo.svg">
  <defs
     id="defs4">
    <linearGradient
       id="linearGradient5613"
       inkscape:collect="always">
      <stop
         id="stop5615"
         offset="0"
         style="stop-color:#0d011e;stop-opacity:1" />
      <stop
         id="stop5617"
         offset="1"
         style="stop-color:#000000;stop-opacity:1" />
    </linearGradient>
    <inkscape:perspective
       id="perspective2840"
       inkscape:persp3d-origin="372.04724 : 350.78739 : 1"
       inkscape:vp_z="744.09448 : 526.18109 : 1"
       inkscape:vp_y="0 : 1000 : 0"
       inkscape:vp_x="0 : 526.18109 : 1"
       sodipodi:type="inkscape:persp3d" />
    <inkscape:perspective
       id="perspective2840-1"
       inkscape:persp3d-origin="372.04724 : 350.78739 : 1"
       inkscape:vp_z="744.09448 : 526.18109 : 1"
       inkscape:vp_y="0 : 1000 : 0"
       inkscape:vp_x="0 : 526.18109 : 1"
       sodipodi:type="inkscape:persp3d" />
    <radialGradient
       inkscape:collect="always"
       xlink:href="#linearGradient5613"
       id="radialGradient5497-4"
       cx="30.078903"
       cy="1018.9943"
       fx="30.078903"
       fy="1018.9943"
       r="22.454525"
       gradientTransform="matrix(1.2566991,-5.859816e-8,-1.1509721e-7,0.46345299,-9.0465933,564.83294)"
       gradientUnits="userSpaceOnUse" />
    <pattern
       y="0"
       x="0"
       height="6"
       width="6"
       patternUnits="userSpaceOnUse"
       id="EMFhbasepattern" />
    <pattern
       y="0"
       x="0"
       height="6"
       width="6"
       patternUnits="userSpaceOnUse"
       id="EMFhbasepattern-8" />
  </defs>
  <sodipodi:namedview
     id="base"
     pagecolor="#ffffff"
     bordercolor="#666666"
     borderopacity="1.0"
     inkscape:pageopacity="0.0"
     inkscape:pageshadow="2"
     inkscape:zoom="10.572439"
     inkscape:cx="7.2914765"
     inkscape:cy="8.0303981"
     inkscape:document-units="px"
     inkscape:current-layer="g5160"
     showgrid="false"
     units="px"
     inkscape:window-width="1920"
     inkscape:window-height="1028"
     inkscape:window-x="-8"
     inkscape:window-y="-8"
     inkscape:window-maximized="1"
     objecttolerance="10"
     guidetolerance="9" />
  <metadata
     id="metadata7">
    <rdf:RDF>
      <cc:Work
         rdf:about="">
        <dc:format>image/svg+xml</dc:format>
        <dc:type
           rdf:resource="http://purl.org/dc/dcmitype/StillImage" />
        <dc:title />
        <dc:creator>
          <cc:Agent>
            <dc:title>Jorge Rosa</dc:title>
          </cc:Agent>
        </dc:creator>
        <dc:description>Email: jorge.bigarte@gmail.com
Site:https://sites.google.com/site/jorgerosaportfolio</dc:description>
      </cc:Work>
    </rdf:RDF>
  </metadata>
  <g
     inkscape:label="Layer 1"
     inkscape:groupmode="layer"
     id="layer1"
     transform="translate(0,-1022.3622)">
    <text
       xml:space="preserve"
       style="font-style:normal;font-weight:normal;line-height:0%;font-family:sans-serif;letter-spacing:0px;word-spacing:0px;opacity:0.1;fill:#ececec;fill-opacity:1;stroke:none;stroke-width:1px;stroke-linecap:butt;stroke-linejoin:miter;stroke-opacity:1"
       x="-64.373627"
       y="823.29761"
       id="text6116-5"
       transform="scale(1.0112873,0.98883868)"><tspan
         sodipodi:role="line"
         id="tspan6118-8"
         x="-64.373627"
         y="823.29761"
         style="font-style:normal;font-variant:normal;font-weight:normal;font-stretch:normal;font-size:7.33073282px;line-height:1.25;font-family:Digital;-inkscape-font-specification:Digital;fill:#ececec">8888888888888888888888888888888888888888888888888888888888888888888888888</tspan></text>
    <g
       id="g5160">
      <path
         style="opacity:1;fill:url(#radialGradient5497-4);fill-opacity:1;stroke:none;stroke-width:1.45692945;stroke-linecap:round;stroke-linejoin:round;stroke-miterlimit:4;stroke-dasharray:none;stroke-dashoffset:0;stroke-opacity:1"
         d="m 2.5,1048.1965 0,-21.6686 55,0 0,21.6686 z"
         id="rect5489-1"
         inkscape:connector-curvature="0" />
      <flowRoot
         xml:space="preserve"
         id="flowRoot4249"
         style="font-style:normal;font-variant:normal;font-weight:normal;font-stretch:normal;line-height:0.01%;font-family:'Estrangelo Edessa';-inkscape-font-specification:'Estrangelo Edessa, Normal';text-align:start;letter-spacing:0px;word-spacing:0px;writing-mode:lr-tb;text-anchor:start;fill:#000000;fill-opacity:1;stroke:none;stroke-width:1px;stroke-linecap:butt;stroke-linejoin:miter;stroke-opacity:1"><flowRegion
           id="flowRegion4251"><rect
             id="rect4253"
             width="60.913097"
             height="241.76068"
             x="-66.209885"
             y="-78.584213" /></flowRegion><flowPara
           id="flowPara4255"
           style="font-size:15px;line-height:1"> </flowPara></flowRoot>      <text
         xml:space="preserve"
         style="font-style:normal;font-weight:normal;font-size:12.07992935px;line-height:1.25;font-family:sans-serif;letter-spacing:0px;word-spacing:0px;fill:#8d5fd3;fill-opacity:1;stroke:none;stroke-width:0.30199823"
         x="19.97818"
         y="1063.6278"
         id="text835"><tspan
           sodipodi:role="line"
           id="tspan833"
           x="19.97818"
           y="1063.6278"
           style="font-style:normal;font-variant:normal;font-weight:normal;font-stretch:normal;font-family:'Estrangelo Edessa';-inkscape-font-specification:'Estrangelo Edessa';fill:#8d5fd3;fill-opacity:1;stroke-width:0.30199823">Logo</tspan></text>
      <g
         aria-label="Logo"
         style="font-style:normal;font-weight:normal;font-size:12.07992935px;line-height:1.25;font-family:sans-serif;letter-spacing:0px;word-spacing:0px;fill:#8d5fd3;fill-opacity:1;stroke:none;stroke-width:0.30199823"
         id="text835-7"
         transform="translate(47.191528,11.8837)">
        <path
           d="m -24.25326,1029.7184 h -3.662908 v -7.6325 h 1.161986 v 6.6533 h 2.500922 z"
           style="font-style:normal;font-variant:normal;font-weight:normal;font-stretch:normal;font-family:'Estrangelo Edessa';-inkscape-font-specification:'Estrangelo Edessa';fill:#8d5fd3;fill-opacity:1;stroke-width:0.30199823"
           id="path4523"
           inkscape:connector-curvature="0" />
        <path
           d="m -19.581281,1027.2764 c 0,-0.5347 -0.117968,-0.9378 -0.353904,-1.2091 -0.235936,-0.2713 -0.580009,-0.407 -1.03222,-0.407 -0.456143,0 -0.812013,0.1396 -1.067611,0.4188 -0.255598,0.2792 -0.383397,0.6862 -0.383397,1.2209 0,0.2556 0.03343,0.4857 0.100274,0.6902 0.06685,0.2005 0.163189,0.3716 0.289021,0.5131 0.125833,0.1377 0.277226,0.2438 0.454178,0.3185 0.180884,0.075 0.383396,0.1121 0.607536,0.1121 0.45221,0 0.796284,-0.1416 1.032219,-0.4247 0.235937,-0.2831 0.353904,-0.6941 0.353904,-1.2328 z m 1.138392,0 c 0,0.3815 -0.06095,0.7295 -0.18285,1.0441 -0.1219,0.3145 -0.29492,0.5839 -0.51906,0.808 -0.224139,0.2203 -0.497432,0.3913 -0.819878,0.5132 -0.318514,0.1219 -0.678316,0.1829 -1.079408,0.1829 -0.385362,0 -0.735333,-0.059 -1.049915,-0.177 -0.310649,-0.1179 -0.576077,-0.2831 -0.796285,-0.4955 -0.220206,-0.2163 -0.39126,-0.4778 -0.513161,-0.7845 -0.117968,-0.3067 -0.176952,-0.6488 -0.176952,-1.0263 0,-0.405 0.06095,-0.7668 0.182851,-1.0853 0.1219,-0.3185 0.296886,-0.5878 0.524957,-0.8081 0.232004,-0.2241 0.511196,-0.3932 0.837574,-0.5072 0.330311,-0.118 0.70191,-0.177 1.114798,-0.177 0.39716,0 0.749098,0.057 1.055814,0.1711 0.306717,0.114 0.564281,0.2791 0.772692,0.4954 0.212342,0.2163 0.373565,0.4798 0.483669,0.7904 0.110103,0.3107 0.165154,0.6626 0.165154,1.0558 z"
           style="font-style:normal;font-variant:normal;font-weight:normal;font-stretch:normal;font-family:'Estrangelo Edessa';-inkscape-font-specification:'Estrangelo Edessa';fill:#8d5fd3;fill-opacity:1;stroke-width:0.30199823"
           id="path4525"
           inkscape:connector-curvature="0"
           sodipodi:nodetypes="ssscscccsssccccscccscccscccc" />
        <path
           d="m -16.442154,1027.4711 c 0,0.2595 0.02753,0.4797 0.08258,0.6606 0.05505,0.1809 0.133699,0.3283 0.235936,0.4424 0.106171,0.114 0.23397,0.1966 0.383396,0.2477 0.149427,0.051 0.318514,0.077 0.507263,0.077 0.204478,0 0.422719,-0.047 0.654723,-0.1416 0.232003,-0.098 0.45221,-0.2359 0.660621,-0.4128 v -2.6956 c -0.102239,-0.023 -0.218241,-0.041 -0.348006,-0.053 -0.129765,-0.012 -0.263462,-0.018 -0.401091,-0.018 -0.330311,0 -0.609502,0.055 -0.837574,0.1652 -0.224139,0.1061 -0.40699,0.2477 -0.548551,0.4246 -0.137629,0.177 -0.237902,0.3795 -0.300819,0.6076 -0.05899,0.2241 -0.08848,0.4561 -0.08848,0.696 z m -1.161985,0.035 c 0,-0.4129 0.06685,-0.7884 0.200546,-1.1266 0.133697,-0.3382 0.322445,-0.6253 0.566246,-0.8612 0.243801,-0.2399 0.540687,-0.4247 0.890659,-0.5544 0.349972,-0.1337 0.739267,-0.2006 1.167884,-0.2006 0.196613,0 0.389294,0.01 0.578043,0.03 0.188749,0.016 0.369634,0.038 0.542654,0.065 0.173019,0.027 0.334242,0.061 0.483669,0.1003 0.149426,0.035 0.279191,0.073 0.389294,0.112 v 4.3708 c 0,0.5033 -0.04522,0.9457 -0.135663,1.3271 -0.08651,0.3853 -0.23397,0.7058 -0.44238,0.9614 -0.208411,0.2595 -0.48367,0.4542 -0.825777,0.584 -0.342107,0.1297 -0.766792,0.1946 -1.274055,0.1946 -0.29492,0 -0.578043,-0.02 -0.84937,-0.059 -0.271327,-0.039 -0.517093,-0.096 -0.7373,-0.171 v -0.9614 c 0.298852,0.09 0.587874,0.1592 0.867065,0.2064 0.279191,0.047 0.546586,0.071 0.802183,0.071 0.290988,0 0.530856,-0.053 0.719605,-0.1593 0.188749,-0.1022 0.338175,-0.2438 0.448279,-0.4247 0.110103,-0.1809 0.186782,-0.3932 0.230037,-0.637 0.04325,-0.2438 0.06488,-0.5053 0.06488,-0.7845 v -0.3775 c -0.220207,0.1573 -0.456144,0.2871 -0.707809,0.3893 -0.251665,0.1023 -0.534788,0.1534 -0.84937,0.1534 -0.349971,0 -0.658654,-0.051 -0.926049,-0.1534 -0.263462,-0.1061 -0.485635,-0.2556 -0.666519,-0.4483 -0.176953,-0.1966 -0.31065,-0.4325 -0.401092,-0.7078 -0.09044,-0.2792 -0.135663,-0.5918 -0.135663,-0.9378 z"
           style="font-style:normal;font-variant:normal;font-weight:normal;font-stretch:normal;font-family:'Estrangelo Edessa';-inkscape-font-specification:'Estrangelo Edessa';fill:#8d5fd3;fill-opacity:1;stroke-width:0.30199823"
           id="path4527"
           inkscape:connector-curvature="0"
           sodipodi:nodetypes="csccscccsscccccccccscsccscccsscccscccsccsccccc" />
        <path
           d="m -7.6052805,1027.2764 c 0,-0.5347 -0.117968,-0.9378 -0.3539042,-1.2091 -0.2359361,-0.2713 -0.5800096,-0.407 -1.0322205,-0.407 -0.4561432,0 -0.8120135,0.1396 -1.0676108,0.4188 -0.255598,0.2792 -0.383396,0.6862 -0.383396,1.2209 0,0.2556 0.03342,0.4857 0.100273,0.6902 0.06685,0.2005 0.163189,0.3716 0.289021,0.5131 0.1258329,0.1377 0.2772253,0.2438 0.4541773,0.3185 0.1808844,0.075 0.3833962,0.1121 0.6075355,0.1121 0.4522109,0 0.7962844,-0.1416 1.0322205,-0.4247 0.2359362,-0.2831 0.3539042,-0.6941 0.3539042,-1.2328 z m 1.1383918,0 c 0,0.3815 -0.06095,0.7295 -0.1828505,1.0441 -0.1219003,0.3145 -0.2949201,0.5839 -0.5190595,0.808 -0.2241392,0.2203 -0.4974319,0.3913 -0.819878,0.5132 -0.3185137,0.1219 -0.6783163,0.1829 -1.0794077,0.1829 -0.3853623,0 -0.7353342,-0.059 -1.0499156,-0.177 -0.310649,-0.1179 -0.576077,-0.2831 -0.796284,-0.4955 -0.220208,-0.2163 -0.391261,-0.4778 -0.513161,-0.7845 -0.117968,-0.3067 -0.176952,-0.6488 -0.176952,-1.0263 0,-0.405 0.06095,-0.7668 0.18285,-1.0853 0.1219,-0.3185 0.296886,-0.5878 0.524958,-0.8081 0.232004,-0.2241 0.511195,-0.3932 0.837573,-0.5072 0.3303105,-0.118 0.7019098,-0.177 1.114798,-0.177 0.3971592,0 0.7490972,0.057 1.0558142,0.1711 0.306717,0.114 0.5642806,0.2791 0.7726908,0.4954 0.2123425,0.2163 0.3735655,0.4798 0.483669,0.7904 0.1101036,0.3107 0.1651553,0.6626 0.1651553,1.0558 z"
           style="font-style:normal;font-variant:normal;font-weight:normal;font-stretch:normal;font-family:'Estrangelo Edessa';-inkscape-font-specification:'Estrangelo Edessa';fill:#8d5fd3;fill-opacity:1;stroke-width:0.30199823"
           id="path4529"
           inkscape:connector-curvature="0"
           sodipodi:nodetypes="ssssscccsssccccscccscccscccc" />
      </g>
    </g>
  </g>
</svg>
