<?xml version="1.0" encoding="UTF-8" standalone="no"?>
<!-- Created with Inkscape (http://www.inkscape.org/) -->

<svg
   xmlns:dc="http://purl.org/dc/elements/1.1/"
   xmlns:cc="http://creativecommons.org/ns#"
   xmlns:rdf="http://www.w3.org/1999/02/22-rdf-syntax-ns#"
   xmlns:svg="http://www.w3.org/2000/svg"
   xmlns="http://www.w3.org/2000/svg"
   xmlns:xlink="http://www.w3.org/1999/xlink"
   xmlns:sodipodi="http://sodipodi.sourceforge.net/DTD/sodipodi-0.dtd"
   xmlns:inkscape="http://www.inkscape.org/namespaces/inkscape"
   width="60"
   height="30"
   viewBox="0 0 60 30"
   id="svg2"
   version="1.1"
   inkscape:version="0.92.1 r15371"
   sodipodi:docname="tab_miniplayer1.svg">
  <defs
     id="defs4">
    <linearGradient
       id="linearGradient5613"
       inkscape:collect="always">
      <stop
         id="stop5615"
         offset="0"
         style="stop-color:#0d011e;stop-opacity:1" />
      <stop
         id="stop5617"
         offset="1"
         style="stop-color:#000000;stop-opacity:1" />
    </linearGradient>
    <inkscape:perspective
       id="perspective2840"
       inkscape:persp3d-origin="372.04724 : 350.78739 : 1"
       inkscape:vp_z="744.09448 : 526.18109 : 1"
       inkscape:vp_y="0 : 1000 : 0"
       inkscape:vp_x="0 : 526.18109 : 1"
       sodipodi:type="inkscape:persp3d" />
    <inkscape:perspective
       id="perspective2840-1"
       inkscape:persp3d-origin="372.04724 : 350.78739 : 1"
       inkscape:vp_z="744.09448 : 526.18109 : 1"
       inkscape:vp_y="0 : 1000 : 0"
       inkscape:vp_x="0 : 526.18109 : 1"
       sodipodi:type="inkscape:persp3d" />
    <radialGradient
       inkscape:collect="always"
       xlink:href="#linearGradient5613"
       id="radialGradient5497-4"
       cx="30.078903"
       cy="1018.9943"
       fx="30.078903"
       fy="1018.9943"
       r="22.454525"
       gradientTransform="matrix(1.2566991,-5.859816e-8,-1.1509721e-7,0.46345299,-9.0465931,564.83294)"
       gradientUnits="userSpaceOnUse" />
    <pattern
       y="0"
       x="0"
       height="6"
       width="6"
       patternUnits="userSpaceOnUse"
       id="EMFhbasepattern" />
  </defs>
  <sodipodi:namedview
     id="base"
     pagecolor="#ffffff"
     bordercolor="#666666"
     borderopacity="1.0"
     inkscape:pageopacity="0.0"
     inkscape:pageshadow="2"
     inkscape:zoom="10.572439"
     inkscape:cx="36.120235"
     inkscape:cy="12.512882"
     inkscape:document-units="px"
     inkscape:current-layer="g5160"
     showgrid="false"
     units="px"
     inkscape:window-width="1920"
     inkscape:window-height="1028"
     inkscape:window-x="-8"
     inkscape:window-y="-8"
     inkscape:window-maximized="1"
     objecttolerance="10"
     guidetolerance="9" />
  <metadata
     id="metadata7">
    <rdf:RDF>
      <cc:Work
         rdf:about="">
        <dc:format>image/svg+xml</dc:format>
        <dc:type
           rdf:resource="http://purl.org/dc/dcmitype/StillImage" />
        <dc:title />
        <dc:creator>
          <cc:Agent>
            <dc:title>Jorge Rosa</dc:title>
          </cc:Agent>
        </dc:creator>
        <dc:description>Email: jorge.bigarte@gmail.com
Site:https://sites.google.com/site/jorgerosaportfolio</dc:description>
      </cc:Work>
    </rdf:RDF>
  </metadata>
  <g
     inkscape:label="Layer 1"
     inkscape:groupmode="layer"
     id="layer1"
     transform="translate(0,-1022.3622)">
    <text
       xml:space="preserve"
       style="font-style:normal;font-weight:normal;line-height:0%;font-family:sans-serif;letter-spacing:0px;word-spacing:0px;opacity:0.1;fill:#ececec;fill-opacity:1;stroke:none;stroke-width:1px;stroke-linecap:butt;stroke-linejoin:miter;stroke-opacity:1"
       x="-64.373627"
       y="823.29761"
       id="text6116-5"
       transform="scale(1.0112873,0.98883868)"><tspan
         sodipodi:role="line"
         id="tspan6118-8"
         x="-64.373627"
         y="823.29761"
         style="font-style:normal;font-variant:normal;font-weight:normal;font-stretch:normal;font-size:7.33073282px;line-height:1.25;font-family:Digital;-inkscape-font-specification:Digital;fill:#ececec">8888888888888888888888888888888888888888888888888888888888888888888888888</tspan></text>
    <g
       id="g5160">
      <path
         style="opacity:1;fill:url(#radialGradient5497-4);fill-opacity:1;stroke:none;stroke-width:1.45692945;stroke-linecap:round;stroke-linejoin:round;stroke-miterlimit:4;stroke-dasharray:none;stroke-dashoffset:0;stroke-opacity:1"
         d="m 2.5,1048.1965 0,-21.6686 55,0 0,21.6686 z"
         id="rect5489-1"
         inkscape:connector-curvature="0" />
      <g
         id="g848"
         transform="translate(0.049332)">
        <g
           transform="translate(-20.000041,-5e-4)"
           id="text4160-9"
           style="font-style:normal;font-variant:normal;font-weight:normal;font-stretch:normal;font-size:12.33656883px;line-height:100%;font-family:'Estrangelo Edessa';-inkscape-font-specification:'Estrangelo Edessa, Normal';text-align:start;letter-spacing:0px;word-spacing:0px;writing-mode:lr-tb;text-anchor:start;fill:#8d5fd3;fill-opacity:1;stroke:none;stroke-width:1px;stroke-linecap:butt;stroke-linejoin:miter;stroke-opacity:1">
          <path
             inkscape:connector-curvature="0"
             id="path4183"
             d="m 39.705471,1041.2535 h -1.096316 l -0.246973,-5.096 q -0.006,-0.072 -0.01205,-0.1988 0,-0.1265 -0.006,-0.265 0,-0.1446 -0.006,-0.2832 0,-0.1385 0,-0.2289 -0.03614,0.1386 -0.08433,0.2952 -0.04217,0.1506 -0.08433,0.2891 -0.04217,0.1326 -0.07831,0.241 -0.03012,0.1024 -0.04819,0.1506 l -1.963731,5.096 h -1.060174 l -1.999873,-5.096 q -0.02409,-0.06 -0.06626,-0.1627 -0.03614,-0.1084 -0.07831,-0.2409 -0.04217,-0.1386 -0.09036,-0.2831 -0.04217,-0.1506 -0.07229,-0.2892 0,0.1024 -0.006,0.241 0,0.1325 -0.006,0.2771 -0.006,0.1445 -0.01205,0.2831 -0.006,0.1325 -0.01205,0.2349 l -0.32528,5.0358 h -1.096317 l 0.542135,-7.7946 h 1.271004 l 2.246845,5.7466 q 0.03012,0.084 0.06626,0.1988 0.03614,0.1084 0.06626,0.2289 0.03012,0.1204 0.05421,0.2409 0.03012,0.1205 0.04819,0.2169 0.01807,-0.096 0.04819,-0.2229 0.03012,-0.1265 0.06024,-0.253 0.03614,-0.1265 0.07229,-0.241 0.03614,-0.1144 0.06626,-0.1927 l 2.234798,-5.7225 h 1.319194 l 0.355399,7.7946 z" />
          <path
             inkscape:connector-curvature="0"
             id="path4185"
             d="m 42.916112,1034.8985 q 0,0.1446 -0.06024,0.259 -0.06024,0.1145 -0.16264,0.1988 -0.09638,0.078 -0.228901,0.1205 -0.132522,0.042 -0.277091,0.042 -0.301186,0 -0.512016,-0.1567 -0.204806,-0.1626 -0.204806,-0.4638 0,-0.2891 0.204806,-0.4518 0.21083,-0.1626 0.512016,-0.1626 0.144569,0 0.277091,0.042 0.132522,0.042 0.228901,0.1265 0.102403,0.078 0.16264,0.1927 0.06024,0.1085 0.06024,0.253 z m -0.162641,6.355 h -1.156553 v -4.9454 h 1.156553 z" />
          <path
             inkscape:connector-curvature="0"
             id="path4187"
             d="m 49.072349,1041.2535 h -1.162577 v -3.06 q 0,-0.5241 -0.216854,-0.8012 -0.21083,-0.2831 -0.644537,-0.2831 -0.192759,0 -0.379495,0.048 -0.180711,0.048 -0.343351,0.1325 -0.162641,0.078 -0.30721,0.1807 -0.138545,0.096 -0.252996,0.2049 v 3.578 h -1.156553 v -4.9454 h 1.120411 l 0.03614,0.4939 q 0.126498,-0.1205 0.283115,-0.2289 0.156616,-0.1084 0.343352,-0.1927 0.192758,-0.084 0.409612,-0.1326 0.222878,-0.054 0.46985,-0.054 0.921628,0 1.36136,0.494 0.439731,0.4939 0.439731,1.4336 v 3.1323 z" />
          <path
             inkscape:connector-curvature="0"
             id="path4189"
             d="m 52.144442,1034.8985 q 0,0.1446 -0.06024,0.259 -0.06024,0.1145 -0.16264,0.1988 -0.09638,0.078 -0.228901,0.1205 -0.132522,0.042 -0.277091,0.042 -0.301186,0 -0.512016,-0.1567 -0.204807,-0.1626 -0.204807,-0.4638 0,-0.2891 0.204807,-0.4518 0.21083,-0.1626 0.512016,-0.1626 0.144569,0 0.277091,0.042 0.132521,0.042 0.228901,0.1265 0.102403,0.078 0.16264,0.1927 0.06024,0.1085 0.06024,0.253 z m -0.16264,6.355 h -1.156553 v -4.9454 h 1.156553 z" />
        </g>
        <g
           aria-label="12"
           style="font-style:normal;font-variant:normal;font-weight:normal;font-stretch:normal;font-size:12.48721123px;line-height:1.25;font-family:sans-serif;-inkscape-font-specification:'Estrangelo Edessa, Normal';text-align:start;letter-spacing:0px;word-spacing:0px;writing-mode:lr-tb;text-anchor:start;fill:#8d5fd3;fill-opacity:1;stroke:none;stroke-width:0.31218025px;stroke-linecap:butt;stroke-linejoin:miter;stroke-opacity:1"
           id="text842-6-6"
           transform="translate(-24.001087,0.1147)">
          <path
             inkscape:connector-curvature="0"
             d="m 65.057085,1041.2444 h -1.170676 v -6.4082 q -0.09756,0.085 -0.213405,0.1829 -0.109751,0.091 -0.213404,0.1707 l -1.536513,1.0975 v -1.1646 l 2.384033,-1.7926 h 0.749965 z"
             style="font-style:normal;font-variant:normal;font-weight:normal;font-stretch:normal;font-family:'Estrangelo Edessa';-inkscape-font-specification:'Estrangelo Edessa';fill:#8d5fd3;fill-opacity:1;stroke-width:0.31218025px"
             id="path887" />
          <path
             inkscape:connector-curvature="0"
             d="m 71.111675,1035.5251 q 0,-0.6036 -0.298766,-0.9389 -0.292669,-0.3354 -0.859716,-0.3354 -0.249988,0 -0.530462,0.079 -0.280475,0.073 -0.554852,0.2012 -0.26828,0.128 -0.518268,0.2927 -0.243891,0.1646 -0.420712,0.3414 v -1.1036 q 0.176821,-0.1646 0.414615,-0.311 0.237793,-0.1463 0.512171,-0.256 0.280474,-0.1098 0.591435,-0.1769 0.310961,-0.067 0.640213,-0.067 0.530463,0 0.957272,0.1524 0.426809,0.1463 0.719478,0.4268 0.298766,0.2805 0.457295,0.6768 0.164627,0.3902 0.164627,0.878 0,0.5061 -0.128043,0.9207 -0.121946,0.4085 -0.347545,0.7865 -0.219501,0.372 -0.524365,0.7439 -0.298766,0.3658 -0.658505,0.7988 l -1.335303,1.6218 h 3.255943 v 0.9878 h -4.694898 v -0.8597 l 1.859667,-2.2987 q 0.292669,-0.3658 0.530463,-0.6707 0.243891,-0.3049 0.414614,-0.5975 0.170724,-0.2927 0.262183,-0.6037 0.09146,-0.3109 0.09146,-0.689 z"
             style="font-style:normal;font-variant:normal;font-weight:normal;font-stretch:normal;font-family:'Estrangelo Edessa';-inkscape-font-specification:'Estrangelo Edessa';fill:#8d5fd3;fill-opacity:1;stroke-width:0.31218025px"
             id="path889" />
        </g>
      </g>
    </g>
  </g>
</svg>
