<?xml version="1.0" encoding="UTF-8" standalone="no"?>
<!-- Created with Inkscape (http://www.inkscape.org/) -->

<svg
   xmlns:dc="http://purl.org/dc/elements/1.1/"
   xmlns:cc="http://creativecommons.org/ns#"
   xmlns:rdf="http://www.w3.org/1999/02/22-rdf-syntax-ns#"
   xmlns:svg="http://www.w3.org/2000/svg"
   xmlns="http://www.w3.org/2000/svg"
   xmlns:xlink="http://www.w3.org/1999/xlink"
   xmlns:sodipodi="http://sodipodi.sourceforge.net/DTD/sodipodi-0.dtd"
   xmlns:inkscape="http://www.inkscape.org/namespaces/inkscape"
   width="60"
   height="30"
   viewBox="0 0 60 30"
   id="svg2"
   version="1.1"
   inkscape:version="0.92.1 r15371"
   sodipodi:docname="tab_miniplayer2.svg">
  <defs
     id="defs4">
    <linearGradient
       id="linearGradient5613"
       inkscape:collect="always">
      <stop
         id="stop5615"
         offset="0"
         style="stop-color:#0d011e;stop-opacity:1" />
      <stop
         id="stop5617"
         offset="1"
         style="stop-color:#000000;stop-opacity:1" />
    </linearGradient>
    <inkscape:perspective
       id="perspective2840"
       inkscape:persp3d-origin="372.04724 : 350.78739 : 1"
       inkscape:vp_z="744.09448 : 526.18109 : 1"
       inkscape:vp_y="0 : 1000 : 0"
       inkscape:vp_x="0 : 526.18109 : 1"
       sodipodi:type="inkscape:persp3d" />
    <inkscape:perspective
       id="perspective2840-1"
       inkscape:persp3d-origin="372.04724 : 350.78739 : 1"
       inkscape:vp_z="744.09448 : 526.18109 : 1"
       inkscape:vp_y="0 : 1000 : 0"
       inkscape:vp_x="0 : 526.18109 : 1"
       sodipodi:type="inkscape:persp3d" />
    <radialGradient
       inkscape:collect="always"
       xlink:href="#linearGradient5613"
       id="radialGradient5497-4"
       cx="30.078903"
       cy="1018.9943"
       fx="30.078903"
       fy="1018.9943"
       r="22.454525"
       gradientTransform="matrix(1.2566991,-5.859816e-8,-1.1509721e-7,0.46345299,-9.0465933,564.83294)"
       gradientUnits="userSpaceOnUse" />
    <pattern
       y="0"
       x="0"
       height="6"
       width="6"
       patternUnits="userSpaceOnUse"
       id="EMFhbasepattern" />
  </defs>
  <sodipodi:namedview
     id="base"
     pagecolor="#ffffff"
     bordercolor="#666666"
     borderopacity="1.0"
     inkscape:pageopacity="0.0"
     inkscape:pageshadow="2"
     inkscape:zoom="14.951687"
     inkscape:cx="34.256656"
     inkscape:cy="13.752949"
     inkscape:document-units="px"
     inkscape:current-layer="g5160"
     showgrid="false"
     units="px"
     inkscape:window-width="1920"
     inkscape:window-height="1028"
     inkscape:window-x="-8"
     inkscape:window-y="-8"
     inkscape:window-maximized="1"
     objecttolerance="10"
     guidetolerance="9" />
  <metadata
     id="metadata7">
    <rdf:RDF>
      <cc:Work
         rdf:about="">
        <dc:format>image/svg+xml</dc:format>
        <dc:type
           rdf:resource="http://purl.org/dc/dcmitype/StillImage" />
        <dc:title />
        <dc:creator>
          <cc:Agent>
            <dc:title>Jorge Rosa</dc:title>
          </cc:Agent>
        </dc:creator>
        <dc:description>Email: jorge.bigarte@gmail.com
Site:https://sites.google.com/site/jorgerosaportfolio</dc:description>
      </cc:Work>
    </rdf:RDF>
  </metadata>
  <g
     inkscape:label="Layer 1"
     inkscape:groupmode="layer"
     id="layer1"
     transform="translate(0,-1022.3622)">
    <text
       xml:space="preserve"
       style="font-style:normal;font-weight:normal;line-height:0%;font-family:sans-serif;letter-spacing:0px;word-spacing:0px;opacity:0.1;fill:#ececec;fill-opacity:1;stroke:none;stroke-width:1px;stroke-linecap:butt;stroke-linejoin:miter;stroke-opacity:1"
       x="-64.373627"
       y="823.29761"
       id="text6116-5"
       transform="scale(1.0112873,0.98883868)"><tspan
         sodipodi:role="line"
         id="tspan6118-8"
         x="-64.373627"
         y="823.29761"
         style="font-style:normal;font-variant:normal;font-weight:normal;font-stretch:normal;font-size:7.33073282px;line-height:1.25;font-family:Digital;-inkscape-font-specification:Digital;fill:#ececec">8888888888888888888888888888888888888888888888888888888888888888888888888</tspan></text>
    <g
       id="g5160">
      <path
         style="opacity:1;fill:url(#radialGradient5497-4);fill-opacity:1;stroke:none;stroke-width:1.45692945;stroke-linecap:round;stroke-linejoin:round;stroke-miterlimit:4;stroke-dasharray:none;stroke-dashoffset:0;stroke-opacity:1"
         d="m 2.5,1048.1965 0,-21.6686 55,0 0,21.6686 z"
         id="rect5489-1"
         inkscape:connector-curvature="0" />
      <g
         id="g848"
         transform="translate(0.04233)">
        <g
           transform="translate(-17.620089,23.7915)"
           id="text4160-5"
           style="font-style:normal;font-variant:normal;font-weight:normal;font-stretch:normal;font-size:12.33656883px;line-height:100%;font-family:'Estrangelo Edessa';-inkscape-font-specification:'Estrangelo Edessa, Normal';text-align:start;letter-spacing:0px;word-spacing:0px;writing-mode:lr-tb;text-anchor:start;fill:#8d5fd3;fill-opacity:1;stroke:none;stroke-width:1px;stroke-linecap:butt;stroke-linejoin:miter;stroke-opacity:1">
          <path
             inkscape:connector-curvature="0"
             id="path4224"
             d="m 36.47316,1017.465 h -1.096317 l -0.246972,-5.096 q -0.006,-0.072 -0.01205,-0.1988 0,-0.1265 -0.006,-0.2651 0,-0.1445 -0.006,-0.2831 0,-0.1385 0,-0.2289 -0.03614,0.1386 -0.08433,0.2952 -0.04217,0.1506 -0.08433,0.2891 -0.04217,0.1325 -0.07831,0.241 -0.03012,0.1024 -0.04819,0.1506 l -1.963731,5.096 h -1.060174 l -1.999873,-5.096 q -0.0241,-0.06 -0.06626,-0.1627 -0.03614,-0.1084 -0.07831,-0.2409 -0.04217,-0.1386 -0.09035,-0.2831 -0.04217,-0.1506 -0.07229,-0.2892 0,0.1024 -0.006,0.241 0,0.1325 -0.006,0.2771 -0.006,0.1445 -0.01205,0.2831 -0.006,0.1325 -0.01205,0.2349 l -0.325281,5.0358 h -1.096316 l 0.542134,-7.7947 h 1.271004 l 2.246846,5.7467 q 0.03012,0.084 0.06626,0.1987 0.03614,0.1085 0.06626,0.2289 0.03012,0.1205 0.05421,0.241 0.03012,0.1205 0.04819,0.2168 0.01807,-0.096 0.04819,-0.2228 0.03012,-0.1265 0.06024,-0.253 0.03614,-0.1265 0.07229,-0.241 0.03614,-0.1144 0.06626,-0.1927 l 2.234799,-5.7226 h 1.319193 l 0.3554,7.7947 z" />
          <path
             inkscape:connector-curvature="0"
             id="path4226"
             d="m 39.6838,1011.11 q 0,0.1446 -0.06024,0.259 -0.06024,0.1145 -0.16264,0.1988 -0.09638,0.078 -0.228901,0.1205 -0.132522,0.042 -0.277091,0.042 -0.301186,0 -0.512016,-0.1566 -0.204806,-0.1626 -0.204806,-0.4638 0,-0.2891 0.204806,-0.4518 0.21083,-0.1626 0.512016,-0.1626 0.144569,0 0.277091,0.042 0.132521,0.042 0.228901,0.1265 0.102403,0.078 0.16264,0.1927 0.06024,0.1084 0.06024,0.253 z m -0.16264,6.355 h -1.156553 v -4.9454 h 1.156553 z" />
          <path
             inkscape:connector-curvature="0"
             id="path4228"
             d="m 45.840038,1017.465 h -1.162577 v -3.06 q 0,-0.5241 -0.216854,-0.8012 -0.21083,-0.2831 -0.644538,-0.2831 -0.192759,0 -0.379494,0.048 -0.180711,0.048 -0.343352,0.1325 -0.16264,0.078 -0.307209,0.1807 -0.138545,0.096 -0.252996,0.2048 v 3.5781 h -1.156553 v -4.9454 h 1.120411 l 0.03614,0.4939 q 0.126498,-0.1205 0.283115,-0.2289 0.156616,-0.1084 0.343351,-0.1928 0.192759,-0.084 0.409613,-0.1325 0.222877,-0.054 0.46985,-0.054 0.921628,0 1.361359,0.494 0.439732,0.4939 0.439732,1.4336 v 3.1323 z" />
          <path
             inkscape:connector-curvature="0"
             id="path4230"
             d="m 48.912131,1011.11 q 0,0.1446 -0.06024,0.259 -0.06024,0.1145 -0.162641,0.1988 -0.09638,0.078 -0.228901,0.1205 -0.132521,0.042 -0.277091,0.042 -0.301185,0 -0.512015,-0.1566 -0.204807,-0.1626 -0.204807,-0.4638 0,-0.2891 0.204807,-0.4518 0.21083,-0.1626 0.512015,-0.1626 0.14457,0 0.277091,0.042 0.132522,0.042 0.228901,0.1265 0.102404,0.078 0.162641,0.1927 0.06024,0.1084 0.06024,0.253 z m -0.16264,6.355 h -1.156554 v -4.9454 h 1.156554 z" />
        </g>
        <g
           aria-label="34"
           style="font-style:normal;font-variant:normal;font-weight:normal;font-stretch:normal;font-size:12.48721123px;line-height:1.25;font-family:sans-serif;-inkscape-font-specification:'Estrangelo Edessa, Normal';text-align:start;letter-spacing:0px;word-spacing:0px;writing-mode:lr-tb;text-anchor:start;fill:#8d5fd3;fill-opacity:1;stroke:none;stroke-width:0.31218025px;stroke-linecap:butt;stroke-linejoin:miter;stroke-opacity:1"
           id="text842-6"
           transform="translate(-3.712044,-6e-4)">
          <path
             inkscape:connector-curvature="0"
             d="m 46.35997,1039.0542 q 0,0.5365 -0.20121,0.9755 -0.195113,0.433 -0.560949,0.7439 -0.359739,0.3049 -0.865813,0.4756 -0.499976,0.1646 -1.109703,0.1646 -0.542657,0 -1.030439,-0.1097 -0.481684,-0.1159 -0.865812,-0.3476 v -1.1158 q 0.213404,0.1464 0.457295,0.2683 0.243891,0.1159 0.487782,0.2012 0.243891,0.079 0.475587,0.1281 0.237793,0.043 0.439003,0.043 0.786548,0 1.152385,-0.3658 0.371933,-0.3719 0.371933,-1.006 0,-0.3171 -0.140237,-0.561 -0.13414,-0.2439 -0.390225,-0.4085 -0.249988,-0.1707 -0.597533,-0.2561 -0.347544,-0.085 -0.768256,-0.085 H 42.62844 v -0.9999 h 0.371933 q 0.46949,0 0.817035,-0.1037 0.347544,-0.1097 0.573143,-0.2926 0.231697,-0.1829 0.341447,-0.4329 0.115849,-0.25 0.115849,-0.5366 0,-0.311 -0.09756,-0.5305 -0.09146,-0.2195 -0.256085,-0.3597 -0.164626,-0.1402 -0.390226,-0.2012 -0.225599,-0.067 -0.493878,-0.067 -0.176821,0 -0.40242,0.043 -0.219502,0.043 -0.463393,0.128 -0.243891,0.079 -0.493879,0.1952 -0.243891,0.1097 -0.463393,0.256 v -1.0609 q 0.439004,-0.2744 0.920688,-0.3963 0.487782,-0.128 1.018245,-0.128 0.554851,0 0.987758,0.1402 0.432906,0.1402 0.731672,0.4085 0.298766,0.2622 0.457295,0.6402 0.158529,0.372 0.158529,0.8475 0,0.3415 -0.115848,0.6403 -0.109751,0.2926 -0.304863,0.5365 -0.195113,0.2378 -0.46949,0.4207 -0.26828,0.1829 -0.585338,0.2988 0.40242,0.073 0.725575,0.2378 0.329253,0.1646 0.560949,0.4024 0.237794,0.2378 0.359739,0.5366 0.128043,0.2987 0.128043,0.6341 z"
             style="font-style:normal;font-variant:normal;font-weight:normal;font-stretch:normal;font-family:'Estrangelo Edessa';-inkscape-font-specification:'Estrangelo Edessa';fill:#8d5fd3;fill-opacity:1;stroke-width:0.31218025px"
             id="path860" />
          <path
             inkscape:connector-curvature="0"
             d="m 50.926826,1038.3469 v -3.0486 q 0,-0.085 0,-0.1891 0,-0.1097 0.01219,-0.2255 -0.03049,0.03 -0.04268,0.067 -0.0122,0.03 -0.04268,0.061 -0.09146,0.091 -0.249988,0.2805 -0.15853,0.189 -0.353642,0.4451 -0.189016,0.2561 -0.408517,0.567 -0.213405,0.311 -0.420712,0.6524 -0.20121,0.3415 -0.384128,0.6951 -0.182918,0.3537 -0.317058,0.6951 z m 2.298671,0.9207 h -1.134092 v 2.0365 h -1.164579 v -2.0365 h -3.335207 l -0.07317,-0.3598 q 0.06707,-0.3841 0.286572,-0.8841 0.225599,-0.4999 0.542657,-1.0426 0.317058,-0.5426 0.695089,-1.0914 0.384128,-0.5488 0.762159,-1.0304 0.384128,-0.4878 0.731673,-0.8719 0.353641,-0.3842 0.615824,-0.5976 h 0.93898 v 4.9571 h 1.134092 z"
             style="font-style:normal;font-variant:normal;font-weight:normal;font-stretch:normal;font-family:'Estrangelo Edessa';-inkscape-font-specification:'Estrangelo Edessa';fill:#8d5fd3;fill-opacity:1;stroke-width:0.31218025px"
             id="path862" />
        </g>
      </g>
    </g>
  </g>
</svg>
