<?xml version="1.0" encoding="UTF-8" standalone="no"?>
<!-- Created with Inkscape (http://www.inkscape.org/) -->

<svg
   xmlns:dc="http://purl.org/dc/elements/1.1/"
   xmlns:cc="http://creativecommons.org/ns#"
   xmlns:rdf="http://www.w3.org/1999/02/22-rdf-syntax-ns#"
   xmlns:svg="http://www.w3.org/2000/svg"
   xmlns="http://www.w3.org/2000/svg"
   xmlns:xlink="http://www.w3.org/1999/xlink"
   xmlns:sodipodi="http://sodipodi.sourceforge.net/DTD/sodipodi-0.dtd"
   xmlns:inkscape="http://www.inkscape.org/namespaces/inkscape"
   width="60"
   height="30"
   viewBox="0 0 60 30"
   id="svg2"
   version="1.1"
   inkscape:version="0.92.1 r15371"
   sodipodi:docname="tab_decks.svg">
  <defs
     id="defs4">
    <linearGradient
       id="linearGradient5613"
       inkscape:collect="always">
      <stop
         id="stop5615"
         offset="0"
         style="stop-color:#0d011e;stop-opacity:1" />
      <stop
         id="stop5617"
         offset="1"
         style="stop-color:#000000;stop-opacity:1" />
    </linearGradient>
    <inkscape:perspective
       id="perspective2840"
       inkscape:persp3d-origin="372.04724 : 350.78739 : 1"
       inkscape:vp_z="744.09448 : 526.18109 : 1"
       inkscape:vp_y="0 : 1000 : 0"
       inkscape:vp_x="0 : 526.18109 : 1"
       sodipodi:type="inkscape:persp3d" />
    <inkscape:perspective
       id="perspective2840-1"
       inkscape:persp3d-origin="372.04724 : 350.78739 : 1"
       inkscape:vp_z="744.09448 : 526.18109 : 1"
       inkscape:vp_y="0 : 1000 : 0"
       inkscape:vp_x="0 : 526.18109 : 1"
       sodipodi:type="inkscape:persp3d" />
    <radialGradient
       inkscape:collect="always"
       xlink:href="#linearGradient5613"
       id="radialGradient5497-4"
       cx="30.078903"
       cy="1018.9943"
       fx="30.078903"
       fy="1018.9943"
       r="22.454525"
       gradientTransform="matrix(1.2566991,-5.859816e-8,-1.1509721e-7,0.46345299,-9.0465933,564.83294)"
       gradientUnits="userSpaceOnUse" />
    <pattern
       y="0"
       x="0"
       height="6"
       width="6"
       patternUnits="userSpaceOnUse"
       id="EMFhbasepattern" />
    <pattern
       y="0"
       x="0"
       height="6"
       width="6"
       patternUnits="userSpaceOnUse"
       id="EMFhbasepattern-8" />
    <pattern
       y="0"
       x="0"
       height="6"
       width="6"
       patternUnits="userSpaceOnUse"
       id="EMFhbasepattern-4" />
  </defs>
  <sodipodi:namedview
     id="base"
     pagecolor="#ffffff"
     bordercolor="#666666"
     borderopacity="1.0"
     inkscape:pageopacity="0.0"
     inkscape:pageshadow="2"
     inkscape:zoom="10.572439"
     inkscape:cx="15.563076"
     inkscape:cy="11.150412"
     inkscape:document-units="px"
     inkscape:current-layer="g5160"
     showgrid="false"
     units="px"
     inkscape:window-width="1920"
     inkscape:window-height="1028"
     inkscape:window-x="-8"
     inkscape:window-y="-8"
     inkscape:window-maximized="1"
     objecttolerance="10"
     guidetolerance="9" />
  <metadata
     id="metadata7">
    <rdf:RDF>
      <cc:Work
         rdf:about="">
        <dc:format>image/svg+xml</dc:format>
        <dc:type
           rdf:resource="http://purl.org/dc/dcmitype/StillImage" />
        <dc:title />
        <dc:creator>
          <cc:Agent>
            <dc:title>Jorge Rosa</dc:title>
          </cc:Agent>
        </dc:creator>
        <dc:description>Email: jorge.bigarte@gmail.com
Site:https://sites.google.com/site/jorgerosaportfolio</dc:description>
      </cc:Work>
    </rdf:RDF>
  </metadata>
  <g
     inkscape:label="Layer 1"
     inkscape:groupmode="layer"
     id="layer1"
     transform="translate(0,-1022.3622)">
    <text
       xml:space="preserve"
       style="font-style:normal;font-weight:normal;line-height:0%;font-family:sans-serif;letter-spacing:0px;word-spacing:0px;opacity:0.1;fill:#ececec;fill-opacity:1;stroke:none;stroke-width:1px;stroke-linecap:butt;stroke-linejoin:miter;stroke-opacity:1"
       x="-64.373627"
       y="823.29761"
       id="text6116-5"
       transform="scale(1.0112873,0.98883868)"><tspan
         sodipodi:role="line"
         id="tspan6118-8"
         x="-64.373627"
         y="823.29761"
         style="font-style:normal;font-variant:normal;font-weight:normal;font-stretch:normal;font-size:7.33073282px;line-height:1.25;font-family:Digital;-inkscape-font-specification:Digital;fill:#ececec">8888888888888888888888888888888888888888888888888888888888888888888888888</tspan></text>
    <g
       id="g5160">
      <path
         style="opacity:1;fill:url(#radialGradient5497-4);fill-opacity:1;stroke:none;stroke-width:1.45692945;stroke-linecap:round;stroke-linejoin:round;stroke-miterlimit:4;stroke-dasharray:none;stroke-dashoffset:0;stroke-opacity:1"
         d="m 2.5,1048.1965 0,-21.6686 55,0 0,21.6686 z"
         id="rect5489-1"
         inkscape:connector-curvature="0" />
      <text
         xml:space="preserve"
         style="font-style:normal;font-variant:normal;font-weight:normal;font-stretch:normal;line-height:0%;font-family:'Estrangelo Edessa';-inkscape-font-specification:'Estrangelo Edessa, Normal';text-align:start;letter-spacing:0px;word-spacing:0px;writing-mode:lr-tb;text-anchor:start;fill:#ffaaaa;fill-opacity:1;stroke:none;stroke-width:1px;stroke-linecap:butt;stroke-linejoin:miter;stroke-opacity:1"
         x="25.587145"
         y="961.00085"
         id="text4161-8-8"><tspan
           sodipodi:role="line"
           id="tspan4163-8-8"
           x="25.587145"
           y="961.00085"
           style="font-size:12.36420155px;line-height:1">Decks AB</tspan></text>
      <text
         xml:space="preserve"
         style="font-style:normal;font-variant:normal;font-weight:normal;font-stretch:normal;line-height:0%;font-family:'Estrangelo Edessa';-inkscape-font-specification:'Estrangelo Edessa, Normal';text-align:start;letter-spacing:0px;word-spacing:0px;writing-mode:lr-tb;text-anchor:start;fill:#800000;fill-opacity:1;stroke:none;stroke-width:1px;stroke-linecap:butt;stroke-linejoin:miter;stroke-opacity:1"
         x="24.731661"
         y="974.38696"
         id="text4161-8-1-5"><tspan
           sodipodi:role="line"
           id="tspan4163-8-5-2"
           x="24.731661"
           y="974.38696"
           style="font-size:12.36420155px;line-height:1">Decks AB</tspan></text>
      <g
         id="g4549"
         transform="translate(4.572212)">
        <path
           d="m 21.464154,1037.2504 q 0,-0.7184 -0.229414,-1.2376 -0.223377,-0.5192 -0.645981,-0.8573 -0.416567,-0.3381 -1.026325,-0.495 -0.603721,-0.163 -1.364409,-0.163 H 17.27433 v 5.7957 h 0.815023 q 0.772762,0 1.394595,-0.2113 0.627869,-0.2174 1.068586,-0.6098 0.440717,-0.3984 0.676167,-0.9599 0.235451,-0.5675 0.235453,-1.2618 z m 1.225552,-0.012 q 0,0.9117 -0.338082,1.6603 -0.332048,0.7486 -0.93577,1.2859 -0.603721,0.5313 -1.442892,0.8211 -0.839172,0.2898 -1.847386,0.2898 H 16.085 v -7.8122 h 2.13717 q 1.062549,0 1.889646,0.2415 0.833136,0.2354 1.40667,0.7124 0.573535,0.4709 0.869358,1.1772 0.30186,0.7004 0.301862,1.624 z"
           id="path4157"
           style="font-style:normal;font-variant:normal;font-weight:normal;font-stretch:normal;font-size:medium;line-height:100%;font-family:'Estrangelo Edessa';-inkscape-font-specification:'Estrangelo Edessa, Normal';text-align:start;letter-spacing:0px;word-spacing:0px;writing-mode:lr-tb;text-anchor:start;fill:#8d5fd3;fill-opacity:1;stroke:none;stroke-width:1px;stroke-linecap:butt;stroke-linejoin:miter;stroke-opacity:1"
           inkscape:connector-curvature="0" />
        <path
           d="m 26.229763,1037.1297 q -0.579572,0 -0.947841,0.2958 -0.362233,0.2898 -0.482977,0.8512 h 2.620148 q -0.03019,-0.5614 -0.338083,-0.8512 -0.307898,-0.2958 -0.851247,-0.2958 z m -2.583925,1.6542 q 0,-0.5736 0.187154,-1.0445 0.187153,-0.4769 0.525237,-0.8089 0.344121,-0.3381 0.82106,-0.5192 0.476939,-0.1872 1.062549,-0.1872 0.573534,0 1.002176,0.169 0.434679,0.163 0.730502,0.4709 0.295823,0.3079 0.440716,0.7547 0.150931,0.4467 0.150931,1.0082 v 0.4951 h -3.791367 q 0.03019,0.3079 0.156968,0.5735 0.132818,0.2596 0.350158,0.4467 0.223376,0.1872 0.519199,0.2959 0.301861,0.1026 0.664093,0.1026 0.211303,0 0.446754,-0.036 0.241488,-0.042 0.489014,-0.1147 0.253562,-0.079 0.501088,-0.1872 0.253562,-0.1087 0.482976,-0.2536 v 0.9116 q -0.458827,0.2596 -0.97199,0.4045 -0.507126,0.1388 -1.159144,0.1388 -0.603721,0 -1.086697,-0.175 -0.482977,-0.1811 -0.821061,-0.5192 -0.338083,-0.338 -0.519199,-0.821 -0.181117,-0.489 -0.181117,-1.1048 z"
           id="path4159"
           style="font-style:normal;font-variant:normal;font-weight:normal;font-stretch:normal;font-size:medium;line-height:100%;font-family:'Estrangelo Edessa';-inkscape-font-specification:'Estrangelo Edessa, Normal';text-align:start;letter-spacing:0px;word-spacing:0px;writing-mode:lr-tb;text-anchor:start;fill:#8d5fd3;fill-opacity:1;stroke:none;stroke-width:1px;stroke-linecap:butt;stroke-linejoin:miter;stroke-opacity:1"
           inkscape:connector-curvature="0" />
        <path
           d="m 30.708256,1038.8744 q 0,0.4226 0.114707,0.7305 0.120744,0.3018 0.313935,0.501 0.193191,0.1932 0.446753,0.2838 0.2596,0.091 0.531275,0.091 0.537311,0 0.947841,-0.1509 0.416568,-0.157 0.796912,-0.3803 v 0.9478 q -0.362234,0.2475 -0.815023,0.3803 -0.452791,0.1268 -1.038401,0.1268 -0.543348,0 -1.002177,-0.169 -0.45279,-0.1751 -0.778799,-0.5011 -0.326009,-0.3321 -0.513163,-0.803 -0.181117,-0.4709 -0.181117,-1.0685 0,-0.6521 0.21734,-1.1411 0.21734,-0.495 0.585609,-0.8271 0.36827,-0.332 0.86332,-0.5011 0.495051,-0.169 1.044438,-0.169 0.398457,0 0.827098,0.1026 0.434677,0.097 0.790874,0.32 v 1.0022 q -0.380344,-0.2415 -0.784837,-0.3683 -0.398457,-0.1268 -0.833135,-0.1268 -0.307899,0 -0.591645,0.097 -0.277713,0.091 -0.489014,0.3019 -0.205265,0.2052 -0.332047,0.5313 -0.120745,0.326 -0.120745,0.7908 z"
           id="path4161"
           style="font-style:normal;font-variant:normal;font-weight:normal;font-stretch:normal;font-size:medium;line-height:100%;font-family:'Estrangelo Edessa';-inkscape-font-specification:'Estrangelo Edessa, Normal';text-align:start;letter-spacing:0px;word-spacing:0px;writing-mode:lr-tb;text-anchor:start;fill:#8d5fd3;fill-opacity:1;stroke:none;stroke-width:1px;stroke-linecap:butt;stroke-linejoin:miter;stroke-opacity:1"
           inkscape:connector-curvature="0" />
        <path
           d="m 39.935397,1041.2954 h -1.448929 l -2.324326,-2.3244 q 0,0.054 0.006,0.157 0.006,0.097 0.006,0.163 v 2.0044 h -1.159144 v -7.8122 h 1.159144 v 3.9061 q 0,0.042 -0.006,0.1387 0,0.097 -0.006,0.2113 0,0.1148 -0.006,0.2416 0,0.1207 -0.006,0.2234 l 2.088874,-1.8656 h 1.424781 l -2.48733,2.1975 2.759004,2.7591 z"
           id="path4163"
           style="font-style:normal;font-variant:normal;font-weight:normal;font-stretch:normal;font-size:medium;line-height:100%;font-family:'Estrangelo Edessa';-inkscape-font-specification:'Estrangelo Edessa, Normal';text-align:start;letter-spacing:0px;word-spacing:0px;writing-mode:lr-tb;text-anchor:start;fill:#8d5fd3;fill-opacity:1;stroke:none;stroke-width:1px;stroke-linecap:butt;stroke-linejoin:miter;stroke-opacity:1"
           inkscape:connector-curvature="0" />
        <path
           d="m 44.014576,1039.9008 q 0,0.3199 -0.114707,0.5976 -0.10867,0.2717 -0.338085,0.477 -0.223376,0.1992 -0.567497,0.3139 -0.338084,0.1147 -0.796912,0.1147 -0.446753,0 -0.845208,-0.1086 -0.398457,-0.1148 -0.676167,-0.32 v -1.0022 q 0.156967,0.1087 0.344121,0.2113 0.19319,0.1026 0.392418,0.1811 0.199227,0.072 0.392418,0.1208 0.19319,0.042 0.356195,0.042 0.392418,0 0.573535,-0.169 0.181117,-0.1691 0.181117,-0.4105 0,-0.1268 -0.03622,-0.2234 -0.03622,-0.1027 -0.138856,-0.1872 -0.0966,-0.091 -0.277712,-0.1751 -0.175078,-0.085 -0.45279,-0.1811 -0.380344,-0.1388 -0.639944,-0.2898 -0.253563,-0.1569 -0.41053,-0.338 -0.150931,-0.1872 -0.21734,-0.3985 -0.06641,-0.2173 -0.06641,-0.4709 0,-0.326 0.138856,-0.5916 0.144893,-0.2717 0.386381,-0.4649 0.247525,-0.1932 0.573535,-0.2958 0.332045,-0.1087 0.706353,-0.1087 0.338084,0 0.664093,0.066 0.326009,0.066 0.633907,0.2294 v 0.9056 q -0.295825,-0.1328 -0.62787,-0.2173 -0.326009,-0.091 -0.645981,-0.091 -0.374308,0 -0.567498,0.157 -0.187154,0.1569 -0.187154,0.3984 0,0.1027 0.03622,0.1932 0.04226,0.091 0.138856,0.1751 0.0966,0.084 0.265637,0.1751 0.169042,0.085 0.428642,0.175 0.362232,0.1268 0.621832,0.2717 0.265637,0.1388 0.434679,0.314 0.175079,0.175 0.253563,0.4045 0.08452,0.2233 0.08452,0.5192 z"
           id="path4165"
           style="font-style:normal;font-variant:normal;font-weight:normal;font-stretch:normal;font-size:medium;line-height:100%;font-family:'Estrangelo Edessa';-inkscape-font-specification:'Estrangelo Edessa, Normal';text-align:start;letter-spacing:0px;word-spacing:0px;writing-mode:lr-tb;text-anchor:start;fill:#8d5fd3;fill-opacity:1;stroke:none;stroke-width:1px;stroke-linecap:butt;stroke-linejoin:miter;stroke-opacity:1"
           inkscape:connector-curvature="0" />
        <g
           transform="translate(-0.2999115)"
           id="text4508"
           style="font-style:normal;font-variant:normal;font-weight:normal;font-stretch:normal;font-size:12.62183952px;line-height:1.25;font-family:sans-serif;-inkscape-font-specification:'sans-serif, Normal';font-variant-ligatures:normal;font-variant-caps:normal;font-variant-numeric:normal;font-feature-settings:normal;text-align:start;letter-spacing:0px;word-spacing:0px;writing-mode:lr-tb;text-anchor:start;fill:#8d5fd3;fill-opacity:1;stroke:none;stroke-width:1.57772994"
           aria-label="B">
          <path
             inkscape:connector-curvature="0"
             id="path4528"
             style="font-style:normal;font-variant:normal;font-weight:normal;font-stretch:normal;font-family:'Estrangelo Edessa';-inkscape-font-specification:'Estrangelo Edessa';fill:#8d5fd3;fill-opacity:1;stroke-width:1.57772994"
             d="m 10.499751,1035.6218 q 0,-0.2219 -0.07396,-0.4191 -0.07396,-0.2034 -0.246521,-0.3575 -0.166401,-0.154 -0.4375733,-0.2403 -0.2650093,-0.092 -0.6532788,-0.092 -0.2403573,0 -0.4190845,0.01 -0.1725642,0.01 -0.3143134,0.018 v 2.4282 h 0.5053667 q 0.8011909,0 1.2202753,-0.3451 0.419085,-0.3451 0.419085,-0.9984 z m 0.43141,3.5745 q 0,-0.6471 -0.437573,-0.9552 -0.437574,-0.3082 -1.2942319,-0.3082 H 8.355024 v 2.6378 q 0.1972163,0.018 0.4252476,0.031 0.2341943,0.01 0.5176926,0.01 0.7703758,0 1.2017868,-0.3698 0.43141,-0.376 0.43141,-1.0416 z m 1.232602,-0.037 q 0,0.5362 -0.178727,0.98 -0.172565,0.4437 -0.548508,0.7642 -0.369781,0.3205 -0.949103,0.4992 -0.57316,0.1787 -1.374351,0.1787 -0.2033793,0 -0.4745516,-0.012 -0.2650093,-0.01 -0.5423447,-0.025 -0.2711723,-0.012 -0.5238556,-0.037 -0.2526833,-0.025 -0.4314106,-0.049 v -7.8517 q 0.3636175,-0.031 0.8751471,-0.043 0.5176927,-0.019 1.0600373,-0.019 0.6286268,0 1.1216671,0.1356 0.499204,0.1295 0.838169,0.3821 0.345129,0.2527 0.523856,0.6225 0.178727,0.3698 0.178727,0.8505 0,0.3143 -0.08628,0.5916 -0.08628,0.2712 -0.240357,0.4993 -0.147912,0.228 -0.357455,0.4067 -0.209542,0.1787 -0.456062,0.2958 0.326639,0.08 0.610138,0.2404 0.289661,0.1541 0.499203,0.3883 0.215705,0.228 0.332803,0.53 0.12326,0.302 0.12326,0.6717 z" />
        </g>
      </g>
      <text
         xml:space="preserve"
         style="font-style:normal;font-variant:normal;font-weight:normal;font-stretch:normal;font-size:12.62183952px;line-height:1.25;font-family:sans-serif;-inkscape-font-specification:'sans-serif, Normal';font-variant-ligatures:normal;font-variant-caps:normal;font-variant-numeric:normal;font-feature-settings:normal;text-align:start;letter-spacing:0px;word-spacing:0px;writing-mode:lr-tb;text-anchor:start;fill:#8d5fd3;fill-opacity:1;stroke:none;stroke-width:1.57772994"
         x="23.348442"
         y="1013.9691"
         id="text4508-4"><tspan
           sodipodi:role="line"
           id="tspan4506-1"
           x="23.348442"
           y="1013.9691"
           style="font-style:normal;font-variant:normal;font-weight:normal;font-stretch:normal;font-family:'Estrangelo Edessa';-inkscape-font-specification:'Estrangelo Edessa';fill:#8d5fd3;fill-opacity:1;stroke-width:1.57772994">B</tspan></text>
    </g>
  </g>
</svg>
