<?xml version="1.0" encoding="UTF-8" standalone="no"?>
<!-- Created with Inkscape (http://www.inkscape.org/) -->

<svg
   xmlns:dc="http://purl.org/dc/elements/1.1/"
   xmlns:cc="http://creativecommons.org/ns#"
   xmlns:rdf="http://www.w3.org/1999/02/22-rdf-syntax-ns#"
   xmlns:svg="http://www.w3.org/2000/svg"
   xmlns="http://www.w3.org/2000/svg"
   xmlns:xlink="http://www.w3.org/1999/xlink"
   xmlns:sodipodi="http://sodipodi.sourceforge.net/DTD/sodipodi-0.dtd"
   xmlns:inkscape="http://www.inkscape.org/namespaces/inkscape"
   width="60"
   height="30"
   viewBox="0 0 60 30"
   id="svg2"
   version="1.1"
   inkscape:version="0.92.1 r15371"
   sodipodi:docname="tab_decks_34_over.svg">
  <defs
     id="defs4">
    <inkscape:perspective
       id="perspective2840"
       inkscape:persp3d-origin="372.04724 : 350.78739 : 1"
       inkscape:vp_z="744.09448 : 526.18109 : 1"
       inkscape:vp_y="0 : 1000 : 0"
       inkscape:vp_x="0 : 526.18109 : 1"
       sodipodi:type="inkscape:persp3d" />
    <inkscape:perspective
       id="perspective2840-1"
       inkscape:persp3d-origin="372.04724 : 350.78739 : 1"
       inkscape:vp_z="744.09448 : 526.18109 : 1"
       inkscape:vp_y="0 : 1000 : 0"
       inkscape:vp_x="0 : 526.18109 : 1"
       sodipodi:type="inkscape:persp3d" />
    <pattern
       y="0"
       x="0"
       height="6"
       width="6"
       patternUnits="userSpaceOnUse"
       id="EMFhbasepattern" />
    <radialGradient
       inkscape:collect="always"
       xlink:href="#linearGradient4226"
       id="radialGradient5497"
       cx="30.078903"
       cy="1018.9943"
       fx="30.078903"
       fy="1018.9943"
       r="22.454525"
       gradientTransform="matrix(2.7286229,-1.7021667e-7,-6.9869432e-7,0.76130842,-53.319848,261.32)"
       gradientUnits="userSpaceOnUse" />
    <linearGradient
       inkscape:collect="always"
       id="linearGradient4226">
      <stop
         style="stop-color:#553289;stop-opacity:1"
         offset="0"
         id="stop4228" />
      <stop
         style="stop-color:#000000;stop-opacity:1"
         offset="1"
         id="stop4230" />
    </linearGradient>
  </defs>
  <sodipodi:namedview
     id="base"
     pagecolor="#ffffff"
     bordercolor="#666666"
     borderopacity="1.0"
     inkscape:pageopacity="0.0"
     inkscape:pageshadow="2"
     inkscape:zoom="7.4758433"
     inkscape:cx="30.807424"
     inkscape:cy="7.3597326"
     inkscape:document-units="px"
     inkscape:current-layer="g5160"
     showgrid="false"
     units="px"
     inkscape:window-width="1920"
     inkscape:window-height="1028"
     inkscape:window-x="-8"
     inkscape:window-y="-8"
     inkscape:window-maximized="1"
     objecttolerance="10"
     guidetolerance="9" />
  <metadata
     id="metadata7">
    <rdf:RDF>
      <cc:Work
         rdf:about="">
        <dc:format>image/svg+xml</dc:format>
        <dc:type
           rdf:resource="http://purl.org/dc/dcmitype/StillImage" />
        <dc:title />
        <dc:creator>
          <cc:Agent>
            <dc:title>Jorge Rosa</dc:title>
          </cc:Agent>
        </dc:creator>
        <dc:description>Email: jorge.bigarte@gmail.com
Site:https://sites.google.com/site/jorgerosaportfolio</dc:description>
      </cc:Work>
    </rdf:RDF>
  </metadata>
  <g
     inkscape:label="Layer 1"
     inkscape:groupmode="layer"
     id="layer1"
     transform="translate(0,-1022.3622)">
    <text
       xml:space="preserve"
       style="font-style:normal;font-weight:normal;line-height:0%;font-family:sans-serif;letter-spacing:0px;word-spacing:0px;opacity:0.1;fill:#ececec;fill-opacity:1;stroke:none;stroke-width:1px;stroke-linecap:butt;stroke-linejoin:miter;stroke-opacity:1"
       x="-64.373627"
       y="823.29761"
       id="text6116-5"
       transform="scale(1.0112873,0.98883868)"><tspan
         sodipodi:role="line"
         id="tspan6118-8"
         x="-64.373627"
         y="823.29761"
         style="font-style:normal;font-variant:normal;font-weight:normal;font-stretch:normal;font-size:7.33073282px;line-height:1.25;font-family:Digital;-inkscape-font-specification:Digital;fill:#ececec">8888888888888888888888888888888888888888888888888888888888888888888888888</tspan></text>
    <g
       id="g5160">
      <path
         style="opacity:1;fill:url(#radialGradient5497);fill-opacity:1;stroke:none;stroke-width:1.45692945;stroke-linecap:round;stroke-linejoin:round;stroke-miterlimit:4;stroke-dasharray:none;stroke-dashoffset:0;stroke-opacity:1"
         d="m 2.5,1048.1965 v -21.6685 h 55 v 21.6685 z"
         id="rect5489"
         inkscape:connector-curvature="0" />
      <g
         style="fill:#e5d5ff;fill-opacity:1"
         transform="translate(0.005858,-6e-4)"
         id="g874">
        <g
           style="font-style:normal;font-variant:normal;font-weight:normal;font-stretch:normal;font-size:12.36420155px;line-height:100%;font-family:'Estrangelo Edessa';-inkscape-font-specification:'Estrangelo Edessa, Normal';text-align:start;letter-spacing:0px;word-spacing:0px;writing-mode:lr-tb;text-anchor:start;fill:#e5d5ff;fill-opacity:1;stroke:none;stroke-width:1px;stroke-linecap:butt;stroke-linejoin:miter;stroke-opacity:1"
           id="text4161-8-1"
           transform="translate(-20,-2.5e-4)">
          <path
             d="m 32.141939,1037.2203 q 0,-0.7184 -0.229414,-1.2376 -0.223377,-0.5192 -0.645981,-0.8573 -0.416568,-0.3381 -1.026326,-0.495 -0.60372,-0.163 -1.364409,-0.163 h -0.923692 v 5.7957 h 0.815023 q 0.772762,0 1.394595,-0.2113 0.627869,-0.2174 1.068586,-0.6098 0.440716,-0.3984 0.676167,-0.9599 0.235451,-0.5675 0.235451,-1.2618 z m 1.225553,-0.012 q 0,0.9116 -0.338084,1.6602 -0.332046,0.7486 -0.935767,1.2859 -0.603721,0.5313 -1.442892,0.8211 -0.839172,0.2898 -1.847386,0.2898 h -2.040576 v -7.8122 h 2.137171 q 1.062549,0 1.889646,0.2415 0.833135,0.2355 1.40667,0.7124 0.573534,0.4709 0.869358,1.1772 0.30186,0.7004 0.30186,1.6241 z"
             style="fill:#e5d5ff;fill-opacity:1"
             id="path4157-3"
             inkscape:connector-curvature="0" />
          <path
             d="m 37.207156,1037.0996 q -0.579572,0 -0.947842,0.2958 -0.362232,0.2898 -0.482976,0.8513 h 2.620148 q -0.03019,-0.5615 -0.338084,-0.8513 -0.307897,-0.2958 -0.851246,-0.2958 z m -2.583925,1.6542 q 0,-0.5736 0.187154,-1.0445 0.187153,-0.4769 0.525237,-0.8089 0.344121,-0.3381 0.82106,-0.5192 0.476939,-0.1872 1.062549,-0.1872 0.573534,0 1.002176,0.169 0.434679,0.1631 0.730502,0.4709 0.295823,0.3079 0.440716,0.7547 0.150931,0.4468 0.150931,1.0082 v 0.4951 h -3.791367 q 0.03019,0.3079 0.156967,0.5735 0.132819,0.2596 0.350158,0.4468 0.223377,0.1871 0.5192,0.2958 0.301861,0.1026 0.664093,0.1026 0.211302,0 0.446754,-0.036 0.241488,-0.042 0.489013,-0.1147 0.253563,-0.079 0.501089,-0.1872 0.253562,-0.1086 0.482976,-0.2535 v 0.9116 q -0.458828,0.2596 -0.97199,0.4045 -0.507126,0.1388 -1.159144,0.1388 -0.603721,0 -1.086697,-0.1751 -0.482977,-0.1811 -0.821061,-0.5192 -0.338083,-0.338 -0.5192,-0.821 -0.181116,-0.489 -0.181116,-1.1048 z"
             style="fill:#e5d5ff;fill-opacity:1"
             id="path4159-7"
             inkscape:connector-curvature="0" />
          <path
             d="m 41.885992,1038.8443 q 0,0.4226 0.114707,0.7305 0.120744,0.3019 0.313935,0.5011 0.193191,0.1932 0.446753,0.2838 0.2596,0.091 0.531275,0.091 0.537311,0 0.947841,-0.1509 0.416568,-0.157 0.796912,-0.3803 v 0.9478 q -0.362233,0.2475 -0.815023,0.3803 -0.452791,0.1268 -1.0384,0.1268 -0.543349,0 -1.002177,-0.169 -0.45279,-0.1751 -0.778799,-0.5011 -0.32601,-0.332 -0.513163,-0.803 -0.181116,-0.4709 -0.181116,-1.0685 0,-0.6521 0.217339,-1.1411 0.21734,-0.495 0.585609,-0.8271 0.36827,-0.332 0.863321,-0.5011 0.495051,-0.169 1.044437,-0.169 0.398456,0 0.827097,0.1026 0.434679,0.097 0.790875,0.32 v 1.0022 q -0.380344,-0.2415 -0.784837,-0.3683 -0.398456,-0.1268 -0.833135,-0.1268 -0.307898,0 -0.591646,0.097 -0.277712,0.091 -0.489014,0.3019 -0.205265,0.2053 -0.332047,0.5313 -0.120744,0.326 -0.120744,0.7908 z"
             style="fill:#e5d5ff;fill-opacity:1"
             id="path4161-5"
             inkscape:connector-curvature="0" />
          <path
             d="m 51.412707,1041.2653 h -1.44893 l -2.324325,-2.3244 q 0,0.054 0.006,0.157 0.006,0.097 0.006,0.163 v 2.0044 h -1.159143 v -7.8122 h 1.159143 v 3.9061 q 0,0.042 -0.006,0.1388 0,0.097 -0.006,0.2113 0,0.1148 -0.006,0.2415 0,0.1208 -0.006,0.2234 l 2.088874,-1.8655 h 1.424781 l -2.48733,2.1976 2.759004,2.759 z"
             style="fill:#e5d5ff;fill-opacity:1"
             id="path4163-8"
             inkscape:connector-curvature="0" />
          <path
             d="m 55.191999,1039.8707 q 0,0.3199 -0.114707,0.5976 -0.10867,0.2717 -0.338084,0.477 -0.223377,0.1992 -0.567498,0.3139 -0.338083,0.1147 -0.796911,0.1147 -0.446753,0 -0.845209,-0.1086 -0.398456,-0.1147 -0.676167,-0.32 v -1.0022 q 0.156967,0.1087 0.344121,0.2113 0.19319,0.1026 0.392418,0.1811 0.199228,0.072 0.392419,0.1208 0.19319,0.042 0.356195,0.042 0.392418,0 0.573535,-0.169 0.181116,-0.1691 0.181116,-0.4105 0,-0.1268 -0.03622,-0.2234 -0.03622,-0.1026 -0.138856,-0.1872 -0.0966,-0.091 -0.277712,-0.175 -0.175079,-0.085 -0.45279,-0.1812 -0.380345,-0.1388 -0.639944,-0.2897 -0.253563,-0.157 -0.410531,-0.3381 -0.15093,-0.1872 -0.217339,-0.3985 -0.06641,-0.2173 -0.06641,-0.4709 0,-0.326 0.138855,-0.5916 0.144893,-0.2717 0.386382,-0.4649 0.247525,-0.1932 0.573534,-0.2958 0.332047,-0.1087 0.706354,-0.1087 0.338083,0 0.664093,0.066 0.326009,0.066 0.633906,0.2294 v 0.9056 q -0.295823,-0.1328 -0.627869,-0.2173 -0.326009,-0.091 -0.645981,-0.091 -0.374307,0 -0.567498,0.157 -0.187153,0.1569 -0.187153,0.3984 0,0.1027 0.03622,0.1932 0.04226,0.091 0.138856,0.1751 0.0966,0.085 0.265637,0.1751 0.169042,0.084 0.428642,0.1751 0.362232,0.1267 0.621832,0.2716 0.265637,0.1389 0.434679,0.314 0.175079,0.1751 0.253563,0.4045 0.08452,0.2233 0.08452,0.5192 z"
             style="fill:#e5d5ff;fill-opacity:1"
             id="path4165-3"
             inkscape:connector-curvature="0" />
        </g>
        <g
           aria-label="34"
           style="font-style:normal;font-variant:normal;font-weight:normal;font-stretch:normal;font-size:12.48721123px;line-height:1.25;font-family:sans-serif;-inkscape-font-specification:'Estrangelo Edessa, Normal';text-align:start;letter-spacing:0px;word-spacing:0px;writing-mode:lr-tb;text-anchor:start;fill:#e5d5ff;fill-opacity:1;stroke:none;stroke-width:0.31218025px;stroke-linecap:butt;stroke-linejoin:miter;stroke-opacity:1"
           id="text842-6">
          <path
             inkscape:connector-curvature="0"
             d="m 46.35997,1039.0542 q 0,0.5365 -0.20121,0.9755 -0.195113,0.433 -0.560949,0.7439 -0.359739,0.3049 -0.865813,0.4756 -0.499976,0.1646 -1.109703,0.1646 -0.542657,0 -1.030439,-0.1097 -0.481684,-0.1159 -0.865812,-0.3476 v -1.1158 q 0.213404,0.1464 0.457295,0.2683 0.243891,0.1159 0.487782,0.2012 0.243891,0.079 0.475587,0.1281 0.237793,0.043 0.439003,0.043 0.786548,0 1.152385,-0.3658 0.371933,-0.3719 0.371933,-1.006 0,-0.3171 -0.140237,-0.561 -0.13414,-0.2439 -0.390225,-0.4085 -0.249988,-0.1707 -0.597533,-0.2561 -0.347544,-0.085 -0.768256,-0.085 H 42.62844 v -0.9999 h 0.371933 q 0.46949,0 0.817035,-0.1037 0.347544,-0.1097 0.573143,-0.2926 0.231697,-0.1829 0.341447,-0.4329 0.115849,-0.25 0.115849,-0.5366 0,-0.311 -0.09756,-0.5305 -0.09146,-0.2195 -0.256085,-0.3597 -0.164626,-0.1402 -0.390226,-0.2012 -0.225599,-0.067 -0.493878,-0.067 -0.176821,0 -0.40242,0.043 -0.219502,0.043 -0.463393,0.128 -0.243891,0.079 -0.493879,0.1952 -0.243891,0.1097 -0.463393,0.256 v -1.0609 q 0.439004,-0.2744 0.920688,-0.3963 0.487782,-0.128 1.018245,-0.128 0.554851,0 0.987758,0.1402 0.432906,0.1402 0.731672,0.4085 0.298766,0.2622 0.457295,0.6402 0.158529,0.372 0.158529,0.8475 0,0.3415 -0.115848,0.6403 -0.109751,0.2926 -0.304863,0.5365 -0.195113,0.2378 -0.46949,0.4207 -0.26828,0.1829 -0.585338,0.2988 0.40242,0.073 0.725575,0.2378 0.329253,0.1646 0.560949,0.4024 0.237794,0.2378 0.359739,0.5366 0.128043,0.2987 0.128043,0.6341 z"
             style="font-style:normal;font-variant:normal;font-weight:normal;font-stretch:normal;font-family:'Estrangelo Edessa';-inkscape-font-specification:'Estrangelo Edessa';fill:#e5d5ff;fill-opacity:1;stroke-width:0.31218025px"
             id="path860" />
          <path
             inkscape:connector-curvature="0"
             d="m 50.926826,1038.3469 v -3.0486 q 0,-0.085 0,-0.1891 0,-0.1097 0.01219,-0.2255 -0.03049,0.03 -0.04268,0.067 -0.0122,0.03 -0.04268,0.061 -0.09146,0.091 -0.249988,0.2805 -0.15853,0.189 -0.353642,0.4451 -0.189016,0.2561 -0.408517,0.567 -0.213405,0.311 -0.420712,0.6524 -0.20121,0.3415 -0.384128,0.6951 -0.182918,0.3537 -0.317058,0.6951 z m 2.298671,0.9207 h -1.134092 v 2.0365 h -1.164579 v -2.0365 h -3.335207 l -0.07317,-0.3598 q 0.06707,-0.3841 0.286572,-0.8841 0.225599,-0.4999 0.542657,-1.0426 0.317058,-0.5426 0.695089,-1.0914 0.384128,-0.5488 0.762159,-1.0304 0.384128,-0.4878 0.731673,-0.8719 0.353641,-0.3842 0.615824,-0.5976 h 0.93898 v 4.9571 h 1.134092 z"
             style="font-style:normal;font-variant:normal;font-weight:normal;font-stretch:normal;font-family:'Estrangelo Edessa';-inkscape-font-specification:'Estrangelo Edessa';fill:#e5d5ff;fill-opacity:1;stroke-width:0.31218025px"
             id="path862" />
        </g>
      </g>
    </g>
  </g>
</svg>
