<?xml version="1.0" encoding="UTF-8" standalone="no"?>
<!-- Created with Inkscape (http://www.inkscape.org/) -->

<svg
   xmlns:dc="http://purl.org/dc/elements/1.1/"
   xmlns:cc="http://creativecommons.org/ns#"
   xmlns:rdf="http://www.w3.org/1999/02/22-rdf-syntax-ns#"
   xmlns:svg="http://www.w3.org/2000/svg"
   xmlns="http://www.w3.org/2000/svg"
   xmlns:xlink="http://www.w3.org/1999/xlink"
   xmlns:sodipodi="http://sodipodi.sourceforge.net/DTD/sodipodi-0.dtd"
   xmlns:inkscape="http://www.inkscape.org/namespaces/inkscape"
   width="60"
   height="30"
   viewBox="0 0 60 30"
   id="svg2"
   version="1.1"
   inkscape:version="0.91 r13725"
   sodipodi:docname="tab_longwaves1.svg">
  <defs
     id="defs4">
    <linearGradient
       id="linearGradient5613"
       inkscape:collect="always">
      <stop
         id="stop5615"
         offset="0"
         style="stop-color:#0d011e;stop-opacity:1" />
      <stop
         id="stop5617"
         offset="1"
         style="stop-color:#000000;stop-opacity:1" />
    </linearGradient>
    <inkscape:perspective
       id="perspective2840"
       inkscape:persp3d-origin="372.04724 : 350.78739 : 1"
       inkscape:vp_z="744.09448 : 526.18109 : 1"
       inkscape:vp_y="0 : 1000 : 0"
       inkscape:vp_x="0 : 526.18109 : 1"
       sodipodi:type="inkscape:persp3d" />
    <inkscape:perspective
       id="perspective2840-1"
       inkscape:persp3d-origin="372.04724 : 350.78739 : 1"
       inkscape:vp_z="744.09448 : 526.18109 : 1"
       inkscape:vp_y="0 : 1000 : 0"
       inkscape:vp_x="0 : 526.18109 : 1"
       sodipodi:type="inkscape:persp3d" />
    <radialGradient
       inkscape:collect="always"
       xlink:href="#linearGradient5613"
       id="radialGradient5497-4"
       cx="30.078903"
       cy="1018.9943"
       fx="30.078903"
       fy="1018.9943"
       r="22.454525"
       gradientTransform="matrix(1.2566991,-5.859816e-8,-1.1509721e-7,0.46345299,-9.0465934,564.83296)"
       gradientUnits="userSpaceOnUse" />
    <pattern
       y="0"
       x="0"
       height="6"
       width="6"
       patternUnits="userSpaceOnUse"
       id="EMFhbasepattern" />
  </defs>
  <sodipodi:namedview
     id="base"
     pagecolor="#ffffff"
     bordercolor="#666666"
     borderopacity="1.0"
     inkscape:pageopacity="0.0"
     inkscape:pageshadow="2"
     inkscape:zoom="10.572439"
     inkscape:cx="43.409227"
     inkscape:cy="17.385626"
     inkscape:document-units="px"
     inkscape:current-layer="g5160"
     showgrid="false"
     units="px"
     inkscape:window-width="1920"
     inkscape:window-height="1028"
     inkscape:window-x="-8"
     inkscape:window-y="-8"
     inkscape:window-maximized="1"
     objecttolerance="10"
     guidetolerance="9" />
  <metadata
     id="metadata7">
    <rdf:RDF>
      <cc:Work
         rdf:about="">
        <dc:format>image/svg+xml</dc:format>
        <dc:type
           rdf:resource="http://purl.org/dc/dcmitype/StillImage" />
        <dc:title></dc:title>
        <dc:creator>
          <cc:Agent>
            <dc:title>Jorge Rosa</dc:title>
          </cc:Agent>
        </dc:creator>
        <dc:description>Email: jorge.bigarte@gmail.com
Site:https://sites.google.com/site/jorgerosaportfolio</dc:description>
      </cc:Work>
    </rdf:RDF>
  </metadata>
  <g
     inkscape:label="Layer 1"
     inkscape:groupmode="layer"
     id="layer1"
     transform="translate(0,-1022.3622)">
    <text
       xml:space="preserve"
       style="font-style:normal;font-weight:normal;font-size:7.3307333px;line-height:125%;font-family:sans-serif;letter-spacing:0px;word-spacing:0px;opacity:0.1;fill:#ececec;fill-opacity:1;stroke:none;stroke-width:1px;stroke-linecap:butt;stroke-linejoin:miter;stroke-opacity:1"
       x="-64.373627"
       y="823.29761"
       id="text6116-5"
       sodipodi:linespacing="125%"
       transform="scale(1.0112873,0.98883868)"><tspan
         sodipodi:role="line"
         id="tspan6118-8"
         x="-64.373627"
         y="823.29761"
         style="font-style:normal;font-variant:normal;font-weight:normal;font-stretch:normal;font-family:Digital;-inkscape-font-specification:Digital;fill:#ececec">8888888888888888888888888888888888888888888888888888888888888888888888888</tspan></text>
    <g
       id="g5160">
      <path
         style="opacity:1;fill:url(#radialGradient5497-4);fill-opacity:1;stroke:none;stroke-width:1.45692945;stroke-linecap:round;stroke-linejoin:round;stroke-miterlimit:4;stroke-dasharray:none;stroke-dashoffset:0;stroke-opacity:1"
         d="m 2.5000001,1048.1965 0,-21.6686 54.9999999,0 0,21.6686 z"
         id="rect5489-1"
         inkscape:connector-curvature="0" />
      <g
         style="font-style:normal;font-variant:normal;font-weight:normal;font-stretch:normal;font-size:12.37029076px;line-height:100%;font-family:'Estrangelo Edessa';-inkscape-font-specification:'Estrangelo Edessa, Normal';text-align:start;letter-spacing:0px;word-spacing:0px;writing-mode:lr-tb;text-anchor:start;fill:#8d5fd3;fill-opacity:1;stroke:none;stroke-width:1px;stroke-linecap:butt;stroke-linejoin:miter;stroke-opacity:1"
         id="text4159-9"
         transform="translate(-19.562834,22.83335)">
        <path
           d="m 36.491881,1010.5777 -2.476474,7.816 -1.159715,0 -1.908697,-5.5147 q -0.06644,-0.2175 -0.114764,-0.3987 -0.04228,-0.1872 -0.05436,-0.3805 l -0.02416,0 q -0.0604,0.3805 -0.175165,0.7671 l -1.769773,5.5268 -1.159715,0 -2.548956,-7.816 1.195955,0 1.781854,5.5871 q 0.0604,0.1873 0.102683,0.3806 0.04228,0.1872 0.0604,0.3986 l 0.02416,0 q 0.01812,-0.1389 0.06644,-0.3322 0.05436,-0.1933 0.120804,-0.447 l 1.793934,-5.5871 1.075152,0 1.914737,5.6536 q 0.04832,0.1631 0.09664,0.3382 0.04832,0.1692 0.06644,0.3745 l 0.01208,0 q 0.01812,-0.1389 0.06644,-0.3201 0.05436,-0.1872 0.120803,-0.4168 l 1.703331,-5.6294 1.189916,0 z"
           id="path4182"
           inkscape:connector-curvature="0" />
        <path
           d="m 40.411958,1016.1165 q -0.138924,-0.012 -0.308049,-0.018 -0.169125,-0.01 -0.35637,-0.01 -0.404693,0 -0.66442,0.072 -0.259728,0.072 -0.410733,0.1933 -0.151004,0.1208 -0.211406,0.2718 -0.0604,0.151 -0.0604,0.3141 0,0.3081 0.181206,0.5014 0.187245,0.1933 0.519455,0.1933 0.33825,0 0.688581,-0.1511 0.35033,-0.151 0.622138,-0.4046 l 0,-0.9665 z m 1.117434,2.3859 q -0.223487,0 -0.392612,-0.048 -0.169125,-0.042 -0.289929,-0.1208 -0.120803,-0.085 -0.205366,-0.1994 -0.07852,-0.1147 -0.126843,-0.2597 -0.289929,0.2658 -0.682541,0.447 -0.392612,0.1812 -0.936228,0.1812 -0.422813,0 -0.742942,-0.1148 -0.31409,-0.1147 -0.525496,-0.3201 -0.205366,-0.2054 -0.314089,-0.4772 -0.102683,-0.2778 -0.102683,-0.604 0,-0.8094 0.616098,-1.2382 0.622139,-0.4349 1.836215,-0.4349 0.181205,0 0.356371,0.012 0.181205,0.01 0.392611,0.024 0,-0.5496 -0.229526,-0.8396 -0.229527,-0.2959 -0.755023,-0.2959 -0.374491,0 -0.767103,0.097 -0.386572,0.091 -0.767103,0.2477 l 0,-0.9 q 0.33221,-0.1571 0.755023,-0.2477 0.428852,-0.091 0.827504,-0.091 0.513416,0 0.906028,0.1027 0.392611,0.097 0.658379,0.3322 0.265768,0.2295 0.398652,0.6101 0.138924,0.3805 0.138924,0.9362 l 0,1.9147 q 0,0.2175 0.108724,0.3202 0.114763,0.1027 0.235567,0.1027 0.120803,0 0.223486,-0.01 0.102683,-0.012 0.235567,-0.042 l 0,0.6947 q -0.151004,0.1087 -0.374491,0.163 -0.217446,0.054 -0.477174,0.054 z"
           id="path4184"
           inkscape:connector-curvature="0" />
        <path
           d="m 47.684336,1013.4347 -2.210706,4.959 -0.906027,0 -2.017421,-4.959 1.189916,0 1.111393,2.9899 q 0.06644,0.1691 0.120804,0.3503 0.05436,0.1812 0.102683,0.3685 0.0302,-0.097 0.0604,-0.2054 0.03624,-0.1087 0.07248,-0.2054 0.03624,-0.1027 0.06644,-0.1812 0.0302,-0.084 0.04832,-0.1389 0.132884,-0.3503 0.277849,-0.7309 0.151004,-0.3805 0.302009,-0.761 0.157044,-0.3866 0.308049,-0.7611 0.157045,-0.3805 0.302009,-0.7248 l 1.171795,0 z"
           id="path4186"
           inkscape:connector-curvature="0" />
        <path
           d="m 50.897713,1014.226 q -0.579857,0 -0.948308,0.2959 -0.362411,0.2899 -0.483215,0.8517 l 2.621439,0 q -0.0302,-0.5618 -0.33825,-0.8517 -0.308049,-0.2959 -0.851666,-0.2959 z m -2.585197,1.655 q 0,-0.5739 0.187245,-1.045 0.187246,-0.4772 0.525496,-0.8094 0.34429,-0.3382 0.821465,-0.5194 0.477174,-0.1873 1.063072,-0.1873 0.573817,0 1.00267,0.1691 0.434893,0.1631 0.730862,0.4712 0.295968,0.308 0.440933,0.755 0.151004,0.447 0.151004,1.0087 l 0,0.4953 -3.793233,0 q 0.0302,0.3081 0.157044,0.5738 0.132884,0.2598 0.350331,0.447 0.223487,0.1872 0.519455,0.296 0.302009,0.1027 0.66442,0.1027 0.211407,0 0.446974,-0.036 0.241607,-0.042 0.489254,-0.1148 0.253688,-0.079 0.501335,-0.1872 0.253688,-0.1087 0.483215,-0.2537 l 0,0.9121 q -0.459054,0.2597 -0.972469,0.4047 -0.507375,0.1389 -1.159715,0.1389 -0.604018,0 -1.087233,-0.1752 -0.483214,-0.1812 -0.821464,-0.5194 -0.33825,-0.3383 -0.519456,-0.8215 -0.181205,-0.4892 -0.181205,-1.1053 z"
           id="path4188"
           inkscape:connector-curvature="0" />
        <path
           d="m 57.680835,1016.9984 q 0,0.3201 -0.114763,0.598 -0.108724,0.2718 -0.338251,0.4771 -0.223486,0.1994 -0.567777,0.3141 -0.33825,0.1148 -0.797303,0.1148 -0.446974,0 -0.845626,-0.1087 -0.398652,-0.1148 -0.6765,-0.3202 l 0,-1.0026 q 0.157045,0.1087 0.34429,0.2114 0.193286,0.1027 0.392612,0.1812 0.199326,0.072 0.392612,0.1208 0.193286,0.042 0.35637,0.042 0.392612,0 0.573818,-0.1692 0.181205,-0.1691 0.181205,-0.4107 0,-0.1268 -0.03624,-0.2235 -0.03624,-0.1027 -0.138924,-0.1872 -0.09664,-0.091 -0.277848,-0.1752 -0.175166,-0.084 -0.453014,-0.1812 -0.380531,-0.1389 -0.640259,-0.2899 -0.253688,-0.1571 -0.410733,-0.3383 -0.151004,-0.1872 -0.217446,-0.3986 -0.06644,-0.2175 -0.06644,-0.4712 0,-0.3261 0.138924,-0.5919 0.144964,-0.2718 0.386572,-0.4651 0.247647,-0.1933 0.573817,-0.296 0.33221,-0.1087 0.706701,-0.1087 0.33825,0 0.66442,0.067 0.32617,0.066 0.634219,0.2295 l 0,0.906 q -0.295969,-0.1329 -0.628179,-0.2174 -0.32617,-0.091 -0.646299,-0.091 -0.374491,0 -0.567777,0.157 -0.187246,0.1571 -0.187246,0.3987 0,0.1027 0.03624,0.1933 0.04228,0.091 0.138924,0.1751 0.09664,0.085 0.265768,0.1752 0.169125,0.084 0.428853,0.1751 0.362411,0.1269 0.622139,0.2719 0.265768,0.1389 0.434893,0.314 0.175165,0.1752 0.253688,0.4047 0.08456,0.2235 0.08456,0.5195 z"
           id="path4190"
           inkscape:connector-curvature="0" />
        <path
           d="m 67.991425,1018.3937 -1.274478,0 -0.875827,-2.2409 -3.00801,0 -0.815424,2.2409 -1.274479,0 3.032171,-7.816 1.147635,0 3.068412,7.816 z m -3.497265,-5.9375 q -0.0302,-0.085 -0.07852,-0.2416 -0.04228,-0.1631 -0.07248,-0.3383 l -0.02416,0 q -0.0302,0.1873 -0.07852,0.3504 -0.04228,0.157 -0.08456,0.2657 l -0.948309,2.6215 2.277149,0 -0.99059,-2.6577 z"
           id="path4192"
           inkscape:connector-curvature="0" />
        <path
           d="m 72.394715,1012.5891 q 0,-0.2175 -0.07248,-0.4108 -0.07248,-0.1993 -0.241607,-0.3503 -0.163085,-0.151 -0.428853,-0.2356 -0.259728,-0.091 -0.640259,-0.091 -0.235567,0 -0.410733,0.01 -0.169125,0.01 -0.308049,0.018 l 0,2.3798 0.495295,0 q 0.785223,0 1.195956,-0.3382 0.410732,-0.3383 0.410732,-0.9785 z m 0.422813,3.5033 q 0,-0.6343 -0.428853,-0.9363 -0.428853,-0.302 -1.268438,-0.302 l -0.827505,0 0,2.5852 q 0.193286,0.018 0.416773,0.03 0.229526,0.01 0.507375,0.01 0.755022,0 1.177835,-0.3624 0.422813,-0.3685 0.422813,-1.0208 z m 1.208036,-0.036 q 0,0.5255 -0.175165,0.9604 -0.169125,0.4349 -0.537576,0.749 -0.362411,0.3141 -0.930188,0.4893 -0.561737,0.1751 -1.346961,0.1751 -0.199326,0 -0.465094,-0.012 -0.259727,-0.01 -0.531536,-0.024 -0.265767,-0.012 -0.513415,-0.036 -0.247647,-0.024 -0.422813,-0.048 l 0,-7.6952 q 0.356371,-0.03 0.857706,-0.042 0.507375,-0.018 1.038911,-0.018 0.616099,0 1.099313,0.1329 0.489255,0.1268 0.821465,0.3745 0.33825,0.2476 0.513415,0.6101 0.175165,0.3624 0.175165,0.8335 0,0.308 -0.08456,0.5799 -0.08456,0.2657 -0.235567,0.4892 -0.144964,0.2235 -0.350331,0.3987 -0.205366,0.1751 -0.446973,0.2899 0.32013,0.078 0.597978,0.2356 0.283888,0.151 0.489255,0.3805 0.211406,0.2235 0.326169,0.5194 0.120804,0.296 0.120804,0.6584 z"
           id="path4194"
           inkscape:connector-curvature="0" />
      </g>
    </g>
  </g>
</svg>
