<svg width="46" height="107" version="1.1" xmlns="http://www.w3.org/2000/svg"><g fill="#050505"><path d="m21 8h4v91h-4z" color="#000000" stroke-width=".99999994"/><g stroke-width=".99979782"><path d="m11 57.500804h8v.999596h-8z" color="#000000"/><path d="m11 67.500956h8v.999596h-8z" color="#000000"/><path d="m11 77.500705h8v.999596h-8z" color="#000000"/><path d="m11 87.500454h8v.999596h-8z" color="#000000"/><path d="m11 17.499953h8v.999596h-8z" color="#000000"/><path d="m11 27.501559h8v.999596h-8z" color="#000000"/><path d="m11 37.501307h8v.999596h-8z" color="#000000"/><path d="m11 47.501055h8v.999596h-8z" color="#000000"/><path d="m10 7.500404 9-.0002025v.999596l-9 .0002025z" color="#000000"/><path d="m10 97.500405 9-.000203v.999595l-9 .000203z" color="#000000"/><path d="m27 57.500804 7 .000203v.999596l-7-.000203z" color="#000000"/><path d="m27 67.500956 7 .000203v.999596l-7-.000203z" color="#000000"/><path d="m27 77.500705 7 .000203v.999596l-7-.000203z" color="#000000"/><path d="m27 87.500454 7 .000202v.999596l-7-.000202z" color="#000000"/><path d="m27 17.499953 7 .000202v.999596l-7-.000202z" color="#000000"/><path d="m27 27.501559 7 .000203v.999596l-7-.000203z" color="#000000"/><path d="m27 37.501307 7 .000203v.999596l-7-.000203z" color="#000000"/><path d="m27 47.501055 7 .000203v.999596l-7-.000203z" color="#000000"/></g></g><g stroke-width=".99979782"><g fill="#404040"><path d="m11 58.000804h8v.999596h-8z" color="#000000"/><path d="m11 68.000956h8v.999596h-8z" color="#000000"/><path d="m11 78.000705h8v.999596h-8z" color="#000000"/><path d="m11 88.000454h8v.999596h-8z" color="#000000"/><path d="m11 17.999953h8v.999596h-8z" color="#000000"/><path d="m11 28.001559h8v.999596h-8z" color="#000000"/><path d="m11 38.001307h8v.999596h-8z" color="#000000"/><path d="m11 48.001055h8v.999596h-8z" color="#000000"/><path d="m27 58.000804 7 .000203v.999596l-7-.000203z" color="#000000"/><path d="m27 68.000956 7 .000203v.999596l-7-.000203z" color="#000000"/><path d="m27 78.000705 7 .000203v.999596l-7-.000203z" color="#000000"/><path d="m27 88.000454 7 .000202v.999596l-7-.000202z" color="#000000"/><path d="m27 17.999953 7 .000202v.999596l-7-.000202z" color="#000000"/><path d="m27 28.001559 7 .000203v.999596l-7-.000203z" color="#000000"/><path d="m27 38.001307 7 .000203v.999596l-7-.000203z" color="#000000"/><path d="m27 48.001055 7 .000203v.999596l-7-.000203z" color="#000000"/></g><path d="m27 7.5002015 8 .0002025v.999596l-8-.0002025z" color="#000000" fill="#050505"/><path d="m27 97.500202 8 .000202v.999596l-8-.000203z" color="#000000" fill="#050505"/></g><g fill="#505050"><path d="m20 100h6v-93h-6zm1-.999999v-90.9999996h4v90.9999996z" style="paint-order:fill markers stroke"/><g stroke-width=".99979782"><path d="m10 8.000404 9-.0002025v.999596l-9 .0002025z" color="#000000"/><path d="m10 98.000405 9-.000203v.999595l-9 .000203z" color="#000000"/><path d="m27 8.0002015 8 .0002025v.999596l-8-.0002025z" color="#000000"/><path d="m27 98.000202 8 .000202v.999596l-8-.000203z" color="#000000"/></g></g></svg>
