<!-- Created with Inkscape (http://www.inkscape.org/) -->
<svg id="svg3969" width="200" height="200" version="1.1" xmlns="http://www.w3.org/2000/svg"><path id="path3971" transform="matrix(2.2882 0 0 2.1257 -8.4929 -2.3383)" d="m89.525 48.144c0 25.035-18.854 45.331-42.111 45.331-23.257 0-42.111-20.295-42.111-45.331s18.854-45.331 42.111-45.331c23.257 0 42.111 20.295 42.111 45.331z"/><path id="path3973" d="m100 55.984c-24.309 0-44.016 19.707-44.016 44.016 0 24.309 19.707 44.016 44.016 44.016 24.309 0 44.016-19.707 44.016-44.016 0-24.309-19.707-44.016-44.016-44.016z"/><path id="path3975" d="m102.5 100c0 1.3829-1.121 2.5039-2.5039 2.5039-1.3829 0-2.5039-1.1211-2.5039-2.5039 0-1.3829 1.1211-2.5039 2.5039-2.5039 1.3829 0 2.5039 1.1211 2.5039 2.5039z"/><path id="path4" d="m0 0h200v200h-200z" fill="#333"/><path id="path8" d="m100 3.3948c-53.368 0-96.605 43.308-96.605 96.638 0 53.331 43.237 96.572 96.605 96.572 53.368 0 96.605-43.241 96.605-96.572 0-53.331-43.237-96.638-96.605-96.638zm0 0.53135c53.066 0 96.104 43.018 96.104 96.107 0 53.089-43.038 96.107-96.104 96.107-53.066 0-96.104-43.018-96.104-96.107 0-53.089 43.038-96.107 96.104-96.107z" color="#000000" fill="#585858" style="block-progression:tb;text-indent:0;text-transform:none"/><path id="path10" d="m100 55.984c-24.309 0-44.016 19.707-44.016 44.016 0 24.309 19.707 44.016 44.016 44.016 24.309 0 44.016-19.707 44.016-44.016 0-24.309-19.707-44.016-44.016-44.016z" fill="#696969"/><path id="path12" d="m102.5 100c0 1.3829-1.121 2.5039-2.5039 2.5039-1.3829 0-2.5039-1.1211-2.5039-2.5039 0-1.3829 1.121-2.504 2.5039-2.504 1.3829 0 2.5039 1.1211 2.5039 2.504z" fill="#1a1a1a"/></svg>
