<svg width="96" height="96" version="1.1" xmlns="http://www.w3.org/2000/svg"><path d="m47.604 27.094c-11.765 0-21.302 9.5373-21.302 21.302 0 11.765 9.5373 21.302 21.302 21.302 11.765 0 21.302-9.5373 21.302-21.302 0-11.765-9.5373-21.302-21.302-21.302z" fill="none" stroke="#000" stroke-width=".1088"/><path d="m0 0v96h96v-96zm47.604 3.8253c24.616 0 44.571 19.945 44.571 44.571s-19.955 44.571-44.571 44.571-44.571-19.945-44.571-44.571 19.955-44.571 44.571-44.571z" fill="#333"/><path d="m47.604 3.5837c-24.753 0-44.813 20.106-44.813 44.842 0 24.736 20.059 44.782 44.813 44.782 24.753 0 44.813-20.046 44.813-44.782 0-24.736-20.059-44.842-44.813-44.842zm0 .24157c24.611 0 44.571 19.95 44.571 44.571 0 24.62-19.961 44.571-44.571 44.571-24.611 0-44.571-19.95-44.571-44.571 0-24.62 19.961-44.571 44.571-44.571z" color="#000000" style="text-indent:0;text-transform:none"/><path d="m48.816 48.396"/></svg>
