<svg width="4" height="103" version="1.1" xmlns="http://www.w3.org/2000/svg">
  <g transform="translate(0,-2)" display="none">
    <rect x="-512.85999" y="-273.57001" width="984.28998" height="655.71002" color="#000000" display="inline" fill="#252525"/>
  </g>
  <rect width="4" height="1" color="#000000" stroke-width=".707107"/>
  <rect y="2" width="4" height="1" color="#000000" stroke-width=".707107"/>
  <rect y="4" width="4" height="1" color="#000000" stroke-width=".707107"/>
  <rect y="6" width="4" height="1" color="#000000" stroke-width=".707107"/>
  <rect y="8" width="4" height="1" color="#000000" stroke-width=".707107"/>
  <rect y="10" width="4" height="1" color="#000000" stroke-width=".707107"/>
  <rect y="12" width="4" height="1" color="#000000" stroke-width=".707107"/>
  <rect y="14" width="4" height="1" color="#000000" stroke-width=".707107"/>
  <rect y="16" width="4" height="1" color="#000000" stroke-width=".707107"/>
  <rect y="18" width="4" height="1" color="#000000" stroke-width=".707107"/>
  <rect y="20" width="4" height="1" color="#000000" stroke-width=".707107"/>
  <rect y="22" width="4" height="1" color="#000000" stroke-width=".707107"/>
  <rect y="24" width="4" height="1" color="#000000" stroke-width=".707107"/>
  <rect y="26" width="4" height="1" color="#000000" stroke-width=".707107"/>
  <rect y="28" width="4" height="1" color="#000000" stroke-width=".707107"/>
  <rect y="30" width="4" height="1" color="#000000" stroke-width=".707107"/>
  <rect y="32" width="4" height="1" color="#000000" stroke-width=".707107"/>
  <rect y="34" width="4" height="1" color="#000000" stroke-width=".707107"/>
  <rect y="36" width="4" height="1" color="#000000" stroke-width=".707107"/>
  <rect y="38" width="4" height="1" color="#000000" stroke-width=".707107"/>
  <rect y="40" width="4" height="1" color="#000000" stroke-width=".707107"/>
  <rect y="42" width="4" height="1" color="#000000" stroke-width=".707107"/>
  <rect y="44" width="4" height="1" color="#000000" stroke-width=".707107"/>
  <rect y="46" width="4" height="1" color="#000000" stroke-width=".707107"/>
  <rect y="48" width="4" height="1" color="#000000" stroke-width=".707107"/>
  <rect y="50" width="4" height="1" color="#000000" stroke-width=".707107"/>
  <rect y="52" width="4" height="1" color="#000000" stroke-width=".707107"/>
  <rect y="54" width="4" height="1" color="#000000" stroke-width=".707107"/>
  <rect y="56" width="4" height="1" color="#000000" stroke-width=".707107"/>
  <rect y="58" width="4" height="1" color="#000000" stroke-width=".707107"/>
  <rect y="60" width="4" height="1" color="#000000" stroke-width=".707107"/>
  <rect y="62" width="4" height="1" color="#000000" stroke-width=".707107"/>
  <rect y="64" width="4" height="1" color="#000000" stroke-width=".707107"/>
  <rect y="66" width="4" height="1" color="#000000" stroke-width=".707107"/>
  <rect y="68" width="4" height="1" color="#000000" stroke-width=".707107"/>
  <rect y="70" width="4" height="1" color="#000000" stroke-width=".707107"/>
  <rect y="72" width="4" height="1" color="#000000" stroke-width=".707107"/>
  <rect y="74" width="4" height="1" color="#000000" stroke-width=".707107"/>
  <rect y="76" width="4" height="1" color="#000000" stroke-width=".707107"/>
  <rect y="78" width="4" height="1" color="#000000" stroke-width=".707107"/>
  <rect y="80" width="4" height="1" color="#000000" stroke-width=".707107"/>
  <rect y="82" width="4" height="1" color="#000000" stroke-width=".707107"/>
  <rect y="84" width="4" height="1" color="#000000" stroke-width=".707107"/>
  <rect y="86" width="4" height="1" color="#000000" stroke-width=".707107"/>
  <rect y="88" width="4" height="1" color="#000000" stroke-width=".707107"/>
  <rect y="90" width="4" height="1" color="#000000" stroke-width=".707107"/>
  <rect y="92" width="4" height="1" color="#000000" stroke-width=".707107"/>
  <rect y="94" width="4" height="1" color="#000000" stroke-width=".707107"/>
  <rect y="96" width="4" height="1" color="#000000" stroke-width=".707107"/>
  <rect y="98" width="4" height="1" color="#000000" stroke-width=".707107"/>
  <rect y="100" width="4" height="1" color="#000000" stroke-width=".707107"/>
  <rect y="102" width="4" height="1" color="#000000" stroke-width=".707107"/>
</svg>
