<svg id="svg3505" width="40" height="40" version="1.1" viewBox="0 0 20 20" xmlns="http://www.w3.org/2000/svg"><path id="path3507" d="m5.5287 4.7729c-0.20064-0.0065044-0.39701 0.061142-0.5458 0.20992-0.29757 0.29757-0.27542 0.79518 0.041984 1.1126l3.9045 3.9045-3.9045 3.9045c-0.31741 0.3174-0.33955 0.81502-0.041984 1.1126 0.29757 0.29757 0.79518 0.27542 1.1126-0.04198l3.9045-3.9046 3.9045 3.9045c0.3174 0.31741 0.81502 0.33955 1.1126 0.04198 0.29757-0.29757 0.27542-0.79518-0.04198-1.1126l-3.9046-3.9045 3.9045-3.9045c0.31741-0.31741 0.33955-0.81502 0.041982-1.1126-0.29757-0.29757-0.79518-0.27542-1.1126 0.041982l-3.9045 3.9046-3.9045-3.9045c-0.1587-0.1587-0.36615-0.24543-0.56679-0.25191z" fill="#eee"/></svg>
