<svg width="64" height="40" version="1.1" xmlns="http://www.w3.org/2000/svg" xmlns:xlink="http://www.w3.org/1999/xlink" viewBox="0 0 32 20">
	<defs>
		<linearGradient id="a">
			<stop stop-color="#888" offset="0"/>
			<stop stop-color="#bfbfbe" offset="1"/>
		</linearGradient>
		<linearGradient id="c" x1="7.6989398" x2="7.6989398" y1="19.047621" y2="1.025641" gradientUnits="userSpaceOnUse" xlink:href="#a"/>
		<linearGradient id="b" x1="24.42697" x2="24.42697" y1="19.047621" y2="1.025641" gradientUnits="userSpaceOnUse" xlink:href="#a"/>
	</defs>
	<path d="m22.344 6.041c-8.5814 1.2349-13.813 4.3649-18.887 9.7031l1.0859 1.0332c4.9261-5.1827 9.694-8.0547 18.014-9.252zm-.57675-3.0402.97008 7.1903 6.7052-4.5652z" color="#000001" color-rendering="auto" dominant-baseline="auto" fill="url(#c)" image-rendering="auto" shape-rendering="auto" solid-color="#000001" style="font-feature-settings:normal;font-variant-alternates:normal;font-variant-caps:normal;font-variant-ligatures:normal;font-variant-numeric:normal;font-variant-position:normal;isolation:auto;mix-blend-mode:normal;shape-padding:0;text-decoration-color:#000001;text-decoration-line:none;text-decoration-style:solid;text-indent:0;text-orientation:mixed;text-transform:none;white-space:normal"/>
	<path d="m3.7793 4.8281-.2168 1.4844c3.1686.4617 5.4587 1.0047 7.8706 1.9377.59438-.29785 1.1531-.62948 1.7832-.89062-2.853-1.264-5.6118-1.9741-9.437-2.5315zm13.878 4.8589c-.63968.19217-1.2426.38965-1.8359.61523 3.0203 1.6884 5.2014 3.6519 7.8405 6.4634l1.0938-1.0273c-2.3854-2.5411-4.385-4.3747-7.0983-6.0512z" color="#000001" color-rendering="auto" dominant-baseline="auto" fill="url(#b)" image-rendering="auto" shape-rendering="auto" solid-color="#000001" style="font-feature-settings:normal;font-variant-alternates:normal;font-variant-caps:normal;font-variant-ligatures:normal;font-variant-numeric:normal;font-variant-position:normal;isolation:auto;mix-blend-mode:normal;shape-padding:0;text-decoration-color:#000001;text-decoration-line:none;text-decoration-style:solid;text-indent:0;text-orientation:mixed;text-transform:none;white-space:normal"/>
</svg>
