<?xml version="1.0" encoding="UTF-8" standalone="no"?>
<svg
   xmlns:dc="http://purl.org/dc/elements/1.1/"
   xmlns:cc="http://creativecommons.org/ns#"
   xmlns:rdf="http://www.w3.org/1999/02/22-rdf-syntax-ns#"
   xmlns:svg="http://www.w3.org/2000/svg"
   xmlns="http://www.w3.org/2000/svg"
   id="svg29"
   version="1.1"
   height="34"
   width="40">
  <metadata
     id="metadata33">
    <rdf:RDF>
      <cc:Work
         rdf:about="">
        <dc:format>image/svg+xml</dc:format>
        <dc:type
           rdf:resource="http://purl.org/dc/dcmitype/StillImage" />
        <dc:title></dc:title>
      </cc:Work>
    </rdf:RDF>
  </metadata>
  <defs
     id="defs17">
    <filter
       color-interpolation-filters="sRGB"
       height="1.0120307"
       width="1.01197"
       y="-.0060153441"
       x="-.0059850195"
       id="d">
      <feGaussianBlur
         id="feGaussianBlur2"
         stdDeviation="0.10706202" />
    </filter>
    <linearGradient
       gradientUnits="userSpaceOnUse"
       gradientTransform="translate(-8.5243688e-8,8.9999999)"
       y2="8.2724152"
       y1="-5.5580931"
       x2="22"
       x1="22"
       id="e">
      <stop
         style="stop-color:#9b9c9a;stop-opacity:1"
         id="stop5"
         offset="0"
         stop-color="#bebfbd" />
      <stop
         style="stop-color:#7d7d7d;stop-opacity:1"
         id="stop7"
         offset="1"
         stop-color="#878787" />
    </linearGradient>
    <radialGradient
       gradientUnits="userSpaceOnUse"
       gradientTransform="matrix(1 0 0 .99495877 0 1.7914509)"
       r="25.759201"
       cy="355.35999"
       cx="366.93451"
       id="f">
      <stop
         id="stop10"
         offset="0"
         stop-opacity=".94901961"
         stop-color="#fefefe" />
      <stop
         id="stop12"
         offset=".61062"
         stop-opacity=".71428573"
         stop-color="#e0e0dc" />
      <stop
         id="stop14"
         offset="1"
         stop-opacity=".02352941"
         stop-color="#a3a4a2" />
    </radialGradient>
  </defs>
  <g
     id="g23"
     stroke="#000"
     fill="none">
    <path
       id="path19"
       stroke-width="1.60000002"
       d="m18 7.5102553c0-.7709527.64828-1.4446214 1.9809-1.4446214 1.2699 0 1.9692.6439408 1.9947 1.4271876 0 2.1984691.0244 8.6535835.0244 8.6535835-.0742.735839-.9885 1.42949-2.0444 1.42949s-1.937-.837151-1.937-1.446512c-.009-3.291208-.0184-5.537373-.0185-8.6190455z" />
    <path
       id="path21"
       d="m18 5.3358c0-.9375.64828-1.7567 1.9809-1.7567 1.2699 0 1.9692.78305 1.9947 1.7355 0 2.6734.0244 10.523.0244 10.523-.0742.8948-.9885 1.7383-2.0444 1.7383s-1.937-1.018-1.937-1.759c-.009-4.0022-.0184-6.7336-.0185-10.481z" />
  </g>
  <path
     style="fill:url(#e)"
     id="path25"
     fill="url(#e)"
     d="m18 5.3358c0-.9375.64828-1.7567 1.9809-1.7567 1.2699 0 1.9692.78305 1.9947 1.7355 0 2.6734.0244 10.523.0244 10.523-.0742.8948-.9885 1.7383-2.0444 1.7383s-1.937-1.018-1.937-1.759c-.009-4.0022-.0184-6.7336-.0185-10.481z" />
  <path
     id="path27"
     style=""
     filter="url(#d)"
     fill="url(#f)"
     d="m388.4 355.36a21.466 21.213 0 1 1-42.931 0 21.466 21.213 0 1 1 42.931 0z"
     transform="matrix(.088928 0 0 .088072 -12.631 -25.838)" />
</svg>
