<?xml version="1.0" encoding="UTF-8" standalone="no"?>
<svg
   xmlns:dc="http://purl.org/dc/elements/1.1/"
   xmlns:cc="http://creativecommons.org/ns#"
   xmlns:rdf="http://www.w3.org/1999/02/22-rdf-syntax-ns#"
   xmlns:svg="http://www.w3.org/2000/svg"
   xmlns="http://www.w3.org/2000/svg"
   id="svg29"
   version="1.1"
   height="26"
   width="26">
  <metadata
     id="metadata33">
    <rdf:RDF>
      <cc:Work
         rdf:about="">
        <dc:format>image/svg+xml</dc:format>
        <dc:type
           rdf:resource="http://purl.org/dc/dcmitype/StillImage" />
        <dc:title></dc:title>
      </cc:Work>
    </rdf:RDF>
  </metadata>
  <defs
     id="defs17">
    <filter
       style="color-interpolation-filters:sRGB"
       id="c">
      <feGaussianBlur
         id="feGaussianBlur2"
         stdDeviation="0.42678198" />
    </filter>
    <linearGradient
       gradientUnits="userSpaceOnUse"
       gradientTransform="matrix(1.2573,0,0,0.86853,-234.09,-541.94008)"
       y2="11.924352"
       y1="3.714606"
       x2="12.517106"
       x1="12.517106"
       id="b">
      <stop
         id="stop5"
         offset="0"
         stop-color="#05c4e1" />
      <stop
         id="stop7"
         offset="1"
         stop-color="#007b8c" />
    </linearGradient>
    <radialGradient
       gradientUnits="userSpaceOnUse"
       gradientTransform="matrix(1,0,0,0.99495877,0,1.7914509)"
       r="25.759201"
       cy="355.35999"
       cx="366.93451"
       id="a">
      <stop
         id="stop10"
         offset="0"
         stop-opacity=".94901961"
         stop-color="#a7ebf7" />
      <stop
         id="stop12"
         offset=".61062"
         stop-opacity=".81960785"
         stop-color="#5de6ff" />
      <stop
         id="stop14"
         offset="1"
         stop-opacity="0"
         stop-color="#02b0d0" />
    </radialGradient>
  </defs>
  <g
     style="fill:none;stroke:#000000"
     id="g23"
     transform="matrix(0.79197011,0,0,0.85270722,-8.5218391,-2.6352024)">
    <path
       style="stroke-width:1.94699848"
       id="path19"
       d="m 25.174967,7.5102553 c 0,-0.7709527 0.64828,-1.4446214 1.9809,-1.4446214 1.2699,0 1.9692,0.6439408 1.9947,1.4271876 0,2.1984691 0.0244,8.6535835 0.0244,8.6535835 -0.0742,0.735839 -0.988499,1.42949 -2.044399,1.42949 -1.055901,0 -1.937001,-0.837151 -1.937001,-1.446512 -0.009,-3.291208 -0.0184,-5.537373 -0.0185,-8.6190455 z" />
    <path
       style="stroke-width:1.21687412"
       id="path21"
       d="m 25.174967,5.3358 c 0,-0.9375 0.64828,-1.7567 1.9809,-1.7567 1.2699,0 1.9692,0.78305 1.9947,1.7355 0,2.6734 0.0244,10.523 0.0244,10.523 -0.0742,0.8948 -0.988499,1.7383 -2.044399,1.7383 -1.055901,0 -1.937001,-1.018 -1.937001,-1.759 -0.009,-4.0022 -0.0184,-6.7336 -0.0185,-10.481 z" />
  </g>
  <path
     id="path25"
     style="color:#000000;font-variant-ligatures:normal;font-variant-position:normal;font-variant-caps:normal;font-variant-numeric:normal;font-variant-alternates:normal;font-feature-settings:normal;text-indent:0;text-decoration:none;text-decoration-line:none;text-decoration-style:solid;text-decoration-color:#000000;text-transform:none;text-orientation:mixed;dominant-baseline:auto;white-space:normal;shape-padding:0;isolation:auto;mix-blend-mode:normal;solid-color:#000000;fill:url(#b);color-rendering:auto;image-rendering:auto;shape-rendering:auto"
     dominant-baseline="auto"
     d="m 12.978512,0.50991721 c -0.828428,0.011863 -1.490384,0.53415799 -1.478516,1.36258609 v 9.3310387 c 0,1.55371 3.021961,1.55282 3,0 V 1.8725033 C 14.512106,1.027246 13.823769,0.49780869 12.978512,0.50991721 Z" />
  <path
     style="opacity:0.772;fill:url(#a);stroke-width:1.26455235;filter:url(#c)"
     id="path27"
     d="m 388.4,355.36 a 21.466,21.213 0 1 1 -42.931,0 21.466,21.213 0 1 1 42.931,0 z"
     transform="matrix(0.06987957,0,0,0.07008943,-12.641229,-22.839043)" />
</svg>
