<?xml version="1.0" encoding="UTF-8" standalone="no"?>
<svg
   xmlns:dc="http://purl.org/dc/elements/1.1/"
   xmlns:cc="http://creativecommons.org/ns#"
   xmlns:rdf="http://www.w3.org/1999/02/22-rdf-syntax-ns#"
   xmlns:svg="http://www.w3.org/2000/svg"
   xmlns="http://www.w3.org/2000/svg"
   xmlns:sodipodi="http://sodipodi.sourceforge.net/DTD/sodipodi-0.dtd"
   xmlns:inkscape="http://www.inkscape.org/namespaces/inkscape"
   width="35"
   height="30"
   version="1.1"
   id="svg29"
   sodipodi:docname="knob_indicator_small_green.svg"
   inkscape:version="0.92.5 (2060ec1f9f, 2020-04-08)">
  <metadata
     id="metadata33">
    <rdf:RDF>
      <cc:Work
         rdf:about="">
        <dc:format>image/svg+xml</dc:format>
        <dc:type
           rdf:resource="http://purl.org/dc/dcmitype/StillImage" />
        <dc:title></dc:title>
      </cc:Work>
    </rdf:RDF>
  </metadata>
  <sodipodi:namedview
     pagecolor="#ffffff"
     bordercolor="#666666"
     borderopacity="1"
     objecttolerance="10"
     gridtolerance="10"
     guidetolerance="10"
     inkscape:pageopacity="0"
     inkscape:pageshadow="2"
     inkscape:window-width="1920"
     inkscape:window-height="1056"
     id="namedview31"
     showgrid="false"
     inkscape:snap-page="true"
     inkscape:zoom="9.8163059"
     inkscape:cx="10.386649"
     inkscape:cy="23.26907"
     inkscape:window-x="0"
     inkscape:window-y="0"
     inkscape:window-maximized="1"
     inkscape:current-layer="svg29" />
  <defs
     id="defs17">
    <radialGradient
       id="f"
       cx="366.94"
       cy="355.35999"
       r="21.466"
       gradientTransform="matrix(1,0,0,0.98824,-5.7382e-7,4.1807)"
       gradientUnits="userSpaceOnUse">
      <stop
         stop-color="#def7a7"
         stop-opacity=".94902"
         offset="0"
         id="stop2" />
      <stop
         stop-color="#c0ff5d"
         stop-opacity=".81961"
         offset=".38035452"
         id="stop4" />
      <stop
         stop-color="#7bd002"
         stop-opacity="0"
         offset="1"
         id="stop6" />
    </radialGradient>
    <filter
       id="d"
       style="color-interpolation-filters:sRGB">
      <feGaussianBlur
         stdDeviation="0.42678198"
         id="feGaussianBlur9" />
    </filter>
    <linearGradient
       id="e"
       x1="202.39"
       x2="202.49001"
       y1="623.47998"
       y2="634.37"
       gradientTransform="matrix(1.1001375,0,0,0.75996375,-205.26604,-466.50992)"
       gradientUnits="userSpaceOnUse">
      <stop
         stop-color="#77c305"
         offset="0"
         id="stop12" />
      <stop
         stop-color="#457600"
         offset="1"
         id="stop14" />
    </linearGradient>
  </defs>
  <g
     transform="matrix(0.875,0,0,0.875,-6.2781626,0.25)"
     id="g23"
     style="fill:none;stroke:#000000">
    <path
       d="m 25.174967,7.5102553 c 0,-0.7709527 0.64828,-1.4446214 1.9809,-1.4446214 1.2699,0 1.9692,0.6439408 1.9947,1.4271876 0,2.1984691 0.0244,8.6535835 0.0244,8.6535835 -0.0742,0.735839 -0.988499,1.42949 -2.044399,1.42949 -1.055901,0 -1.937001,-0.837151 -1.937001,-1.446512 -0.009,-3.291208 -0.0184,-5.537373 -0.0185,-8.6190455 z"
       id="path19"
       inkscape:connector-curvature="0"
       style="stroke-width:1.60000002" />
    <path
       d="m 25.174967,5.3358 c 0,-0.9375 0.64828,-1.7567 1.9809,-1.7567 1.2699,0 1.9692,0.78305 1.9947,1.7355 0,2.6734 0.0244,10.523 0.0244,10.523 -0.0742,0.8948 -0.988499,1.7383 -2.044399,1.7383 -1.055901,0 -1.937001,-1.018 -1.937001,-1.759 -0.009,-4.0022 -0.0184,-6.7336 -0.0185,-10.481 z"
       id="path21"
       inkscape:connector-curvature="0" />
  </g>
  <path
     d="m 15.750218,4.9189135 c 0,-0.8203125 0.567245,-1.5371125 1.733287,-1.5371125 1.111163,0 1.72305,0.6851687 1.745363,1.5185625 0,2.339225 0.02135,9.2076245 0.02135,9.2076245 -0.06492,0.78295 -0.864938,1.521012 -1.78885,1.521012 -0.923913,0 -1.694875,-0.89075 -1.694875,-1.539125 -0.0079,-3.501924 -0.0161,-5.891899 -0.01619,-9.170874 z"
     id="path25"
     inkscape:connector-curvature="0"
     style="fill:url(#e);stroke-width:0.875" />
  <path
     transform="matrix(0.077812,0,0,0.077063,-11.051907,-22.260978)"
     d="m 388.4,355.36 a 21.466,21.213 0 1 1 -42.931,0 21.466,21.213 0 1 1 42.931,0 z"
     id="path27"
     inkscape:connector-curvature="0"
     style="fill:url(#f);filter:url(#d)" />
</svg>
