<?xml version="1.0" encoding="UTF-8" standalone="no"?>
<svg
   xmlns:dc="http://purl.org/dc/elements/1.1/"
   xmlns:cc="http://creativecommons.org/ns#"
   xmlns:rdf="http://www.w3.org/1999/02/22-rdf-syntax-ns#"
   xmlns:svg="http://www.w3.org/2000/svg"
   xmlns="http://www.w3.org/2000/svg"
   xmlns:xlink="http://www.w3.org/1999/xlink"
   width="26"
   height="26"
   version="1.1"
   id="svg29">
  <metadata
     id="metadata33">
    <rdf:RDF>
      <cc:Work
         rdf:about="">
        <dc:format>image/svg+xml</dc:format>
        <dc:type
           rdf:resource="http://purl.org/dc/dcmitype/StillImage" />
        <dc:title></dc:title>
      </cc:Work>
    </rdf:RDF>
  </metadata>
  <defs
     id="defs17">
    <filter
       style="color-interpolation-filters:sRGB"
       id="c">
      <feGaussianBlur
         stdDeviation="0.42678198"
         id="feGaussianBlur2" />
    </filter>
    <radialGradient
       id="b"
       cx="366.94"
       cy="355.35999"
       r="21.466"
       gradientTransform="matrix(1,0,0,0.98824,-5.7382e-7,4.1807)"
       gradientUnits="userSpaceOnUse"
       xlink:href="#d">
      <stop
         stop-color="#c4f161"
         stop-opacity=".94901961"
         offset="0"
         id="stop5" />
      <stop
         stop-color="#c0ff5d"
         stop-opacity=".81961"
         offset=".54692036"
         id="stop7"
         style="stop-color:#73c500;stop-opacity:1" />
      <stop
         stop-color="#7bd002"
         stop-opacity="0"
         offset="1"
         id="stop9"
         style="stop-color:#457600;stop-opacity:0.44973546" />
    </radialGradient>
    <linearGradient
       id="d"
       x1="12.517102"
       x2="12.517102"
       y1="3.9656665"
       y2="11.698717"
       gradientTransform="translate(0,0.0529661)"
       gradientUnits="userSpaceOnUse">
      <stop
         stop-color="#77c305"
         offset="0"
         id="stop12" />
      <stop
         stop-color="#457600"
         offset="1"
         id="stop14" />
    </linearGradient>
  </defs>
  <g
     style="fill:none;stroke:#000000"
     transform="matrix(0.79197011,0,0,0.85270722,-8.5218391,-2.6352024)"
     id="g23">
    <path
       style="stroke-width:1.94699848"
       d="m 25.174967,7.5102553 c 0,-0.7709527 0.64828,-1.4446214 1.9809,-1.4446214 1.2699,0 1.9692,0.6439408 1.9947,1.4271876 0,2.1984691 0.0244,8.6535835 0.0244,8.6535835 -0.0742,0.735839 -0.988499,1.42949 -2.044399,1.42949 -1.055901,0 -1.937001,-0.837151 -1.937001,-1.446512 -0.009,-3.291208 -0.0184,-5.537373 -0.0185,-8.6190455 z"
       id="path19" />
    <path
       style="stroke-width:1.21687412"
       d="m 25.174967,5.3358 c 0,-0.9375 0.64828,-1.7567 1.9809,-1.7567 1.2699,0 1.9692,0.78305 1.9947,1.7355 0,2.6734 0.0244,10.523 0.0244,10.523 -0.0742,0.8948 -0.988499,1.7383 -2.044399,1.7383 -1.055901,0 -1.937001,-1.018 -1.937001,-1.759 -0.009,-4.0022 -0.0184,-6.7336 -0.0185,-10.481 z"
       id="path21" />
  </g>
  <path
     d="m 12.978512,0.50991721 c -0.828428,0.011863 -1.490384,0.53415799 -1.478516,1.36258609 v 9.3310387 c 0,1.55371 3.021961,1.55282 3,0 V 1.8725033 C 14.512106,1.027246 13.823769,0.49780869 12.978512,0.50991721 Z"
     dominant-baseline="auto"
     style="color:#000000;font-variant-ligatures:normal;font-variant-position:normal;font-variant-caps:normal;font-variant-numeric:normal;font-variant-alternates:normal;font-feature-settings:normal;text-indent:0;text-decoration:none;text-decoration-line:none;text-decoration-style:solid;text-decoration-color:#000000;text-transform:none;text-orientation:mixed;dominant-baseline:auto;white-space:normal;shape-padding:0;isolation:auto;mix-blend-mode:normal;solid-color:#000000;fill:#457600;fill-opacity:1;color-rendering:auto;image-rendering:auto;shape-rendering:auto"
     id="path25" />
  <path
     transform="matrix(0.06987957,0,0,0.07008943,-12.641229,-22.839043)"
     d="m 388.4,355.36 a 21.466,21.213 0 1 1 -42.931,0 21.466,21.213 0 1 1 42.931,0 z"
     id="path27"
     style="opacity:0.772;fill:url(#b);fill-opacity:1;stroke-width:1.26455235;filter:url(#c)" />
</svg>
