<?xml version="1.0" encoding="UTF-8" standalone="no"?>
<svg
   xmlns:dc="http://purl.org/dc/elements/1.1/"
   xmlns:cc="http://creativecommons.org/ns#"
   xmlns:rdf="http://www.w3.org/1999/02/22-rdf-syntax-ns#"
   xmlns:svg="http://www.w3.org/2000/svg"
   xmlns="http://www.w3.org/2000/svg"
   width="26"
   height="26"
   version="1.1"
   viewBox="0 0 26 26"
   id="svg29">
  <metadata
     id="metadata33">
    <rdf:RDF>
      <cc:Work
         rdf:about="">
        <dc:format>image/svg+xml</dc:format>
        <dc:type
           rdf:resource="http://purl.org/dc/dcmitype/StillImage" />
        <dc:title></dc:title>
      </cc:Work>
    </rdf:RDF>
  </metadata>
  <defs
     id="defs17">
    <radialGradient
       id="d"
       cx="367.10001"
       cy="353.17999"
       r="28.985001"
       gradientTransform="matrix(1,0,0,0.67653,0,114.24)"
       gradientUnits="userSpaceOnUse">
      <stop
         stop-color="#dfdfdd"
         stop-opacity=".94901961"
         offset="0"
         id="stop2" />
      <stop
         stop-color="#c5c5c1"
         stop-opacity=".81960785"
         offset=".61062"
         id="stop4" />
      <stop
         stop-color="#787878"
         stop-opacity="0"
         offset="1"
         id="stop6" />
    </radialGradient>
    <filter
       style="color-interpolation-filters:sRGB"
       id="c">
      <feGaussianBlur
         stdDeviation="0.42678198"
         id="feGaussianBlur9" />
    </filter>
    <linearGradient
       gradientTransform="translate(0.49999601,0.49992031)"
       id="b"
       x1="12.569915"
       x2="12.569915"
       y1="6.4768233"
       y2="12.000253"
       gradientUnits="userSpaceOnUse">
      <stop
         stop-color="#9b9d99"
         offset="0"
         id="stop12"
         style="stop-color:#737373;stop-opacity:1" />
      <stop
         stop-color="#737373"
         offset="1"
         id="stop14"
         style="stop-color:#7d7d7d;stop-opacity:1" />
    </linearGradient>
  </defs>
  <g
     style="fill:none;stroke:#000000"
     transform="matrix(0.79197011,0,0,0.85270722,-8.5218391,-2.6352024)"
     id="g23">
    <path
       style="stroke-width:1.94699848"
       d="m 25.174967,7.5102553 c 0,-0.7709527 0.64828,-1.4446214 1.9809,-1.4446214 1.2699,0 1.9692,0.6439408 1.9947,1.4271876 0,2.1984691 0.0244,8.6535835 0.0244,8.6535835 -0.0742,0.735839 -0.988499,1.42949 -2.044399,1.42949 -1.055901,0 -1.937001,-0.837151 -1.937001,-1.446512 -0.009,-3.291208 -0.0184,-5.537373 -0.0185,-8.6190455 z"
       id="path19" />
    <path
       style="stroke-width:1.21687412"
       d="m 25.174967,5.3358 c 0,-0.9375 0.64828,-1.7567 1.9809,-1.7567 1.2699,0 1.9692,0.78305 1.9947,1.7355 0,2.6734 0.0244,10.523 0.0244,10.523 -0.0742,0.8948 -0.988499,1.7383 -2.044399,1.7383 -1.055901,0 -1.937001,-1.018 -1.937001,-1.759 -0.009,-4.0022 -0.0184,-6.7336 -0.0185,-10.481 z"
       id="path21" />
  </g>
  <path
     style="fill:url(#b);stroke-width:1.02151847"
     d="m 14.499996,10.82786 c 0,0.80694 -0.4862,1.67231 -1.4857,1.67231 -0.95241,0 -1.4769,-0.83425 -1.4959,-1.65405 0,-2.3011297 -0.0184,-8.9532297 -0.0184,-8.9532297 0.0557,-0.7702 0.74137,-1.39296999 1.5333,-1.39296999 0.79194,0 1.4528,0.77300999 1.4528,1.41080999 0.007,3.44491 0.0134,5.69125 0.0134,8.9171297 z"
     id="path25" />
  <ellipse
     style="fill:url(#d);filter:url(#c)"
     transform="matrix(0.051698,0,0,0.07974844,-5.980004,-26.09117)"
     cx="367.10001"
     cy="353.17999"
     rx="24.153999"
     ry="16.341"
     id="ellipse27" />
</svg>
