<svg width="6" height="60" version="1.1" viewBox="0 0 1.5875 15.875" xmlns="http://www.w3.org/2000/svg">
  <path d="m1e-8 0.264583h1.5875l-1e-7 6.87917-0.264583-0.264583-1.05833 2e-7 -0.264583 0.264583z" fill="#1e1e1e" style="paint-order:fill markers stroke"/>
  <path d="m0 0h1.5875v0.264583h-1.5875z" fill="#333" style="paint-order:fill markers stroke"/>
  <path d="m0.79375 6.87917c0.395757 2.726e-4 0.792526 0.386538 0.792708 0.79375l6.509e-4 0.926041h0.265625l-6.509e-4 -0.926041c-4.143e-4 -0.589416-0.487626-1.06249-1.05833-1.05742z" color="#000000" color-rendering="auto" dominant-baseline="auto" fill="#0a0a0a" image-rendering="auto" shape-rendering="auto" solid-color="#000000" style="font-feature-settings:normal;font-variant-alternates:normal;font-variant-caps:normal;font-variant-ligatures:normal;font-variant-numeric:normal;font-variant-position:normal;isolation:auto;mix-blend-mode:normal;paint-order:fill markers stroke;shape-padding:0;text-decoration-color:#000000;text-decoration-line:none;text-decoration-style:solid;text-indent:0;text-orientation:mixed;text-transform:none;white-space:normal"/>
  <path d="m0.79375 6.87826c-0.395757 2.725e-4 -0.792422 0.386538-0.792708 0.79375l-6.509e-4 0.926041h-0.265625l6.509e-4 -0.926041c4.1429e-4 -0.589416 0.487626-1.06249 1.05833-1.05742z" color="#000000" color-rendering="auto" dominant-baseline="auto" fill="#0a0a0a" image-rendering="auto" shape-rendering="auto" solid-color="#000000" style="font-feature-settings:normal;font-variant-alternates:normal;font-variant-caps:normal;font-variant-ligatures:normal;font-variant-numeric:normal;font-variant-position:normal;isolation:auto;mix-blend-mode:normal;paint-order:fill markers stroke;shape-padding:0;text-decoration-color:#000000;text-decoration-line:none;text-decoration-style:solid;text-indent:0;text-orientation:mixed;text-transform:none;white-space:normal"/>
</svg>
