<svg width="160" height="40" version="1.1" xmlns="http://www.w3.org/2000/svg">
  <defs>
    <linearGradient id="e" x1="74.993" x2="13.486" y1="-.1462" y2="88.767" gradientTransform="matrix(.4467 0 0 .4487 123.41 .013019)" gradientUnits="userSpaceOnUse">
      <stop stop-color="#39b549" offset=".478"/>
      <stop stop-color="#1a76bc" offset="1"/>
    </linearGradient>
    <linearGradient id="d" x1="74.998" x2="13.488" y1="-.1501" y2="88.767" gradientTransform="matrix(.4467 0 0 .4487 68.726 .013019)" gradientUnits="userSpaceOnUse">
      <stop stop-color="#381f1f" offset="0"/>
      <stop stop-color="#3a1f20" offset=".0017"/>
      <stop stop-color="#5b2825" offset=".0376"/>
      <stop stop-color="#7c2f28" offset=".0757"/>
      <stop stop-color="#9b2e28" offset=".1173"/>
      <stop stop-color="#b62c28" offset=".1626"/>
      <stop stop-color="#cc2626" offset=".2129"/>
      <stop stop-color="#dc2225" offset=".271"/>
      <stop stop-color="#e81f25" offset=".3438"/>
      <stop stop-color="#ed1b26" offset=".478"/>
      <stop stop-color="#f7921e" offset="1"/>
    </linearGradient>
    <linearGradient id="c" x1="74.992" x2="13.485" y1="-.1471" y2="88.766" gradientTransform="matrix(.4467 0 0 .4487 96.071 .013019)" gradientUnits="userSpaceOnUse">
      <stop stop-color="#120e1e" offset="0"/>
      <stop stop-color="#1b1426" offset=".0231"/>
      <stop stop-color="#442349" offset=".1446"/>
      <stop stop-color="#652866" offset=".2552"/>
      <stop stop-color="#7c287b" offset=".3511"/>
      <stop stop-color="#8b2589" offset=".4286"/>
      <stop stop-color="#91268f" offset=".478"/>
      <stop stop-color="#ed1b26" offset="1"/>
    </linearGradient>
  </defs>
  <rect x="-1575.61" y="-1055.69" width="3489.21" height="2031.73" fill="#0f0f0f" stroke-linecap="round" stroke-linejoin="round" stroke-width="1.6" style="paint-order:markers fill stroke"/>
  <path d="m120.63 40 27.298-39.987h12.066l-27.293 39.987h-12.071z" fill="url(#e)"/>
  <path d="m65.946 40 27.296-39.987h12.073l-27.293 39.987h-12.076z" fill="url(#d)"/>
  <path d="m93.291 40 27.298-39.987h12.067l-27.294 39.987h-12.071z" fill="url(#c)"/>
  <g fill="none" stroke="#000" stroke-width="1.6">
    <path d="m105.315 40.0001-27.2934-39.9872h-12.0712l27.2916 39.9872z"/>
    <path d="m132.658 40.0001-27.2983-39.9872h-12.0707l27.2978 39.9872z"/>
    <path d="m160.001 40.0001-27.2983-39.9872h-12.0712l27.2983 39.9872z"/>
    <path d="m51.509 0.0128862h10.3255v39.9872h-10.3255z" fill-rule="evenodd"/>
    <path d="m10.1245 40.0001v-23.4168l13.0776 19.9393h0.26668l13.2134-20.1421v23.6196h10.2603v-39.9872h-11.13l-12.3437 19.9389-12.3374-19.9389h-11.1313v39.9872z"/>
  </g>
  <g fill="#91786e" stroke-width=".447699">
    <path d="m105.315 40.0001-27.2934-39.9872h-12.0712l27.2916 39.9872z"/>
    <path d="m132.658 40.0001-27.2983-39.9872h-12.0707l27.2978 39.9872z"/>
    <path d="m160.001 40.0001-27.2983-39.9872h-12.0712l27.2983 39.9872z"/>
    <path d="m51.509 0.0128862h10.3255v39.9872h-10.3255z" fill-rule="evenodd"/>
    <path d="m10.1245 40.0001v-23.4168l13.0776 19.9393h0.26668l13.2134-20.1421v23.6196h10.2603v-39.9872h-11.13l-12.3437 19.9389-12.3374-19.9389h-11.1313v39.9872z"/>
  </g>
</svg>
