<?xml version="1.0" encoding="UTF-8" standalone="no"?>
<svg
   xmlns:dc="http://purl.org/dc/elements/1.1/"
   xmlns:cc="http://creativecommons.org/ns#"
   xmlns:rdf="http://www.w3.org/1999/02/22-rdf-syntax-ns#"
   xmlns:svg="http://www.w3.org/2000/svg"
   xmlns="http://www.w3.org/2000/svg"
   width="100"
   height="100"
   enable-background="new"
   version="1.1"
   id="svg22">
  <metadata
     id="metadata26">
    <rdf:RDF>
      <cc:Work
         rdf:about="">
        <dc:format>image/svg+xml</dc:format>
        <dc:type
           rdf:resource="http://purl.org/dc/dcmitype/StillImage" />
        <dc:title></dc:title>
      </cc:Work>
    </rdf:RDF>
  </metadata>
  <defs
     id="defs12">
    <radialGradient
       id="c"
       cx="50.003"
       cy="45.492"
       r="20.077"
       gradientTransform="matrix(1.0417 0 0 1.0417 -2.086 2.6121)"
       gradientUnits="userSpaceOnUse">
      <stop
         stop-color="#eece33"
         offset="0"
         id="stop2" />
      <stop
         stop-color="#eece33"
         stop-opacity="0"
         offset="1"
         id="stop4" />
    </radialGradient>
    <linearGradient
       id="b"
       x1="2.625"
       x2="97.375"
       y1="50"
       y2="50"
       gradientTransform="matrix(-0.26579674,-0.96388794,0.96650068,-0.26507821,114.97193,111.56218)"
       gradientUnits="userSpaceOnUse">
      <stop
         style="stop-color:#000000;stop-opacity:1"
         offset="0"
         id="stop7" />
      <stop
         style="stop-color:#a1a1a1;stop-opacity:0.56862748"
         stop-color="#dedede"
         stop-opacity=".5714286"
         offset="1"
         id="stop9" />
    </linearGradient>
  </defs>
  <rect
     id="rect2"
     fill="#020202"
     enable-background="accumulate"
     color="#000000"
     height="100"
     width="100"
     y="0"
     x="0"
     style="fill:#000000;fill-opacity:0.30000001;stroke-width:1.04167" />
  <path
     style="fill:#1e1e20;fill-opacity:1"
     d="m0 0v100h100v-100zm50 3.125c12.259 0 24.47 5.0688 33.138 13.737 8.6682 8.6682 13.737 20.879 13.737 33.138s-5.0688 24.47-13.737 33.138l-.09766.09766c-8.6622 8.6087-20.828 13.639-33.04 13.639-12.259 0-24.47-5.0688-33.138-13.737l-.09766-.09766c-8.6087-8.6622-13.639-20.828-13.639-33.04 0-12.259 5.0688-24.47 13.737-33.138 8.6682-8.6682 20.879-13.737 33.138-13.737z"
     color="#000000"
     enable-background="accumulate"
     fill="#1e1e1e"
     id="path18" />
  <circle
     r="15"
     cy="50"
     cx="50"
     id="path1221-3-6"
     style="fill:#887f6d;fill-opacity:0.4;stroke:none;stroke-width:1.102;stroke-linecap:round;stroke-linejoin:round;stroke-opacity:1;stroke-miterlimit:4;stroke-dasharray:none" />
  <circle
     style="fill:none;fill-opacity:0.4;stroke:#000000;stroke-width:1.102;stroke-linecap:round;stroke-linejoin:round;stroke-miterlimit:4;stroke-dasharray:none;stroke-opacity:1"
     id="path1221-3-6-6"
     cx="50"
     cy="50"
     r="15" />
  <path
     style="opacity:0.45930692"
     d="m 52.66856,50.01315 a 2.6685924,2.6685924 0 0 1 -5.33712,0 2.6685924,2.6685924 0 1 1 5.33712,0 z"
     id="path16" />
</svg>
