<?xml version="1.0" encoding="UTF-8" standalone="no"?>
<svg
   xmlns:dc="http://purl.org/dc/elements/1.1/"
   xmlns:cc="http://creativecommons.org/ns#"
   xmlns:rdf="http://www.w3.org/1999/02/22-rdf-syntax-ns#"
   xmlns:svg="http://www.w3.org/2000/svg"
   xmlns="http://www.w3.org/2000/svg"
   id="svg22"
   version="1.1"
   enable-background="new"
   height="100"
   width="100">
  <metadata
     id="metadata26">
    <rdf:RDF>
      <cc:Work
         rdf:about="">
        <dc:format>image/svg+xml</dc:format>
        <dc:type
           rdf:resource="http://purl.org/dc/dcmitype/StillImage" />
        <dc:title></dc:title>
      </cc:Work>
    </rdf:RDF>
  </metadata>
  <defs
     id="defs12">
    <radialGradient
       gradientUnits="userSpaceOnUse"
       gradientTransform="matrix(1.0417 0 0 1.0417 -2.086 2.6121)"
       r="20.077"
       cy="45.492"
       cx="50.003"
       id="c">
      <stop
         id="stop2"
         offset="0"
         stop-color="#eece33" />
      <stop
         id="stop4"
         offset="1"
         stop-opacity="0"
         stop-color="#eece33" />
    </radialGradient>
    <linearGradient
       gradientUnits="userSpaceOnUse"
       gradientTransform="rotate(74.623253,50,50)"
       y2="50"
       y1="50"
       x2="97.375"
       x1="2.625"
       id="b">
      <stop
         id="stop7"
         offset="0" />
      <stop
         id="stop9"
         offset="1"
         stop-opacity=".5714286"
         stop-color="#dedede" />
    </linearGradient>
  </defs>
  <rect
     y="0"
     x="0"
     height="100"
     width="100"
     id="rect833"
     style="opacity:0.5;fill:#000000;fill-opacity:1;stroke:none;stroke-width:1.60000002;stroke-linejoin:round;stroke-miterlimit:4;stroke-dasharray:none;stroke-opacity:1" />
  <path
     id="path14"
     opacity=".4"
     fill="url(#c)"
     d="m70.913 50a20.913 20.913 0 0 1-41.827 0 20.913 20.913 0 1 1 41.827 0z" />
  <path
     id="path16"
     d="m52.66891 49.99266a2.6685924 2.6685924 0 0 1-5.337121 0 2.6685924 2.6685924 0 1 1 5.337121 0z" />
  <path
     id="path18"
     fill="#1e1e1e"
     enable-background="accumulate"
     color="#000000"
     d="m0 0v100h100v-100zm50 3.125c12.259 0 24.47 5.0688 33.138 13.737 8.6682 8.6682 13.737 20.879 13.737 33.138s-5.0688 24.47-13.737 33.138l-.09766.09766c-8.6622 8.6087-20.828 13.639-33.04 13.639-12.259 0-24.47-5.0688-33.138-13.737l-.09766-.09766c-8.6087-8.6622-13.639-20.828-13.639-33.04 0-12.259 5.0688-24.47 13.737-33.138 8.6682-8.6682 20.879-13.737 33.138-13.737z" />
  <path
     id="path20"
     stroke-width=".69999999"
     stroke="url(#b)"
     fill="none"
     enable-background="new"
     d="m62.429601 95.19702a46.875 46.875 0 0 1-24.859202-90.3940403 46.875 46.875 0 1 1 24.859202 90.3940403z" />
</svg>
