<?xml version="1.0" encoding="UTF-8" standalone="no"?>
<!-- Created with Inkscape (http://www.inkscape.org/) -->
<svg id="svg3123" xmlns:rdf="http://www.w3.org/1999/02/22-rdf-syntax-ns#" xmlns="http://www.w3.org/2000/svg" height="644.88" width="644.88" version="1.1" xmlns:cc="http://creativecommons.org/ns#" xmlns:dc="http://purl.org/dc/elements/1.1/">
 <title id="title3995">Mixxx 1.12+ default cover image</title>
 <metadata id="metadata3128">
  <rdf:RDF>
   <cc:Work rdf:about="">
    <dc:format>image/svg+xml</dc:format>
    <dc:type rdf:resource="http://purl.org/dc/dcmitype/StillImage"/>
    <cc:license rdf:resource="http://creativecommons.org/licenses/publicdomain/"/>
    <dc:title>Mixxx 1.12+ default cover image</dc:title>
    <dc:description>Template for default cover image = 7 Inch single vinyl sleeve 182 mm, label cutout 85 mm, center hole 8 mm</dc:description>
    <dc:subject>
     <rdf:Bag>
      <rdf:li>Mixxx</rdf:li>
      <rdf:li>GUI</rdf:li>
      <rdf:li>Interface</rdf:li>
     </rdf:Bag>
    </dc:subject>
    <dc:date>2014-12-24</dc:date>
    <dc:creator>
     <cc:Agent>
      <dc:title>s.brandt@mixxx.org</dc:title>
     </cc:Agent>
    </dc:creator>
    <dc:source>www.mixxx.org</dc:source>
   </cc:Work>
   <cc:License rdf:about="http://creativecommons.org/licenses/publicdomain/">
    <cc:permits rdf:resource="http://creativecommons.org/ns#Reproduction"/>
    <cc:permits rdf:resource="http://creativecommons.org/ns#Distribution"/>
    <cc:permits rdf:resource="http://creativecommons.org/ns#DerivativeWorks"/>
   </cc:License>
  </rdf:RDF>
 </metadata>
 <g id="layer1" fill-rule="evenodd" transform="translate(0,-407.48031)">
  <path id="sleeve" opacity="0.5" style="enable-background:accumulate;color:#000000;" d="M0,0v644.88h644.88v-644.88h-644.88zm322.97,171.84h0.03c83.17,0.3,150.33,67.99,150.03,151.16s-67.96,150.33-151.12,150.03c-83.17-0.3-150.37-67.96-150.07-151.12,0.3-83.17,67.96-150.37,151.13-150.07z" transform="translate(0,407.48031)" fill="#a9a9a9"/>
  <path id="label-cutout" opacity="0.5" style="enable-background:accumulate;color:#000000;" d="M322.97,171.84c-83.17-0.3-150.83,66.9-151.13,150.07-0.3,83.16,66.9,150.82,150.07,151.12,83.16,0.3,150.82-66.86,151.12-150.03s-66.86-150.86-150.03-151.16h-0.03zm-0.47,136.44c7.83,0.03,14.15,6.39,14.12,14.22-0.02,7.83-6.39,14.15-14.21,14.12-7.83-0.02-14.16-6.39-14.13-14.21,0.03-7.83,6.39-14.16,14.22-14.13z" transform="translate(0,407.48031)" fill="#878787"/>
 </g>
</svg>
