<?xml version="1.0" encoding="UTF-8" standalone="no"?>
<!-- Created with Inkscape (http://www.inkscape.org/) -->

<svg
   xmlns:dc="http://purl.org/dc/elements/1.1/"
   xmlns:cc="http://creativecommons.org/ns#"
   xmlns:rdf="http://www.w3.org/1999/02/22-rdf-syntax-ns#"
   xmlns:svg="http://www.w3.org/2000/svg"
   xmlns="http://www.w3.org/2000/svg"
   xmlns:xlink="http://www.w3.org/1999/xlink"
   version="1.1"
   width="966"
   height="966"
   id="svg2">
  <defs
     id="defs4">
    <linearGradient
       id="linearGradient4041">
      <stop
         id="stop4043"
         style="stop-color:#1b1b1d;stop-opacity:1"
         offset="0" />
      <stop
         id="stop4045"
         style="stop-color:#515058;stop-opacity:1"
         offset="1" />
    </linearGradient>
    <linearGradient
       id="linearGradient3935">
      <stop
         id="stop3937"
         style="stop-color:#918383;stop-opacity:1"
         offset="0" />
      <stop
         id="stop3939"
         style="stop-color:#b2a8a8;stop-opacity:1"
         offset="1" />
    </linearGradient>
    <linearGradient
       x1="477.23035"
       y1="364.19244"
       x2="481.42856"
       y2="590.89789"
       id="linearGradient3962"
       xlink:href="#linearGradient3935"
       gradientUnits="userSpaceOnUse" />
    <linearGradient
       x1="489.88113"
       y1="471.99481"
       x2="489.68326"
       y2="488.96503"
       id="linearGradient4047"
       xlink:href="#linearGradient4041"
       gradientUnits="userSpaceOnUse" />
  </defs>
  <metadata
     id="metadata7">
    <rdf:RDF>
      <cc:Work
         rdf:about="">
        <dc:format>image/svg+xml</dc:format>
        <dc:type
           rdf:resource="http://purl.org/dc/dcmitype/StillImage" />
        <dc:title></dc:title>
      </cc:Work>
    </rdf:RDF>
  </metadata>
  <g
     id="layer2"
     style="display:inline">
    <rect
       width="965.50006"
       height="965.50006"
       x="0.25000003"
       y="0.2499983"
       id="rect3117"
       style="fill:#7a7583;fill-opacity:1;fill-rule:nonzero;stroke:none;display:inline" />
  </g>
  <g
     id="layer4"
     style="display:inline">
    <path
       d="m 721.42856,483.14285 a 240,240 0 1 1 -480,0 240,240 0 1 1 480,0 z"
       transform="translate(1.5714417,-0.14285278)"
       id="path3893-3"
       style="fill:#a19696;fill-opacity:1;fill-rule:nonzero;stroke:none;display:inline" />
    <path
       d="m 721.42856,483.14285 a 240,240 0 1 1 -480,0 240,240 0 1 1 480,0 z"
       transform="matrix(0.51041667,0,0,0.51041667,237.27084,236.39583)"
       id="path3893-8"
       style="fill:url(#linearGradient3962);fill-opacity:1;fill-rule:nonzero;stroke:none;display:inline" />
    <path
       d="m 721.42856,483.14285 a 240,240 0 1 1 -480,0 240,240 0 1 1 480,0 z"
       transform="matrix(0.5,0,0,0.5,242.28572,241.42857)"
       id="path3893"
       style="fill:#a19696;fill-opacity:1;fill-rule:nonzero;stroke:none;display:inline" />
    <path
       d="m 504.06611,481.12677 a 13.637059,13.637059 0 1 1 -27.27412,0 13.637059,13.637059 0 1 1 27.27412,0 z"
       transform="matrix(1.1732735,0,0,1.1732735,-92.407404,-81.493289)"
       id="path3984-3"
       style="fill:url(#linearGradient4047);fill-opacity:1;fill-rule:nonzero;stroke:none;display:inline" />
    <path
       d="m 504.06611,481.12677 a 13.637059,13.637059 0 1 1 -27.27412,0 13.637059,13.637059 0 1 1 27.27412,0 z"
       transform="matrix(1.0266143,0,0,1.0266143,-20.481472,-10.931622)"
       id="path3984"
       style="fill:#2f2e33;fill-opacity:1;fill-rule:nonzero;stroke:none" />
  </g>
</svg>
