<svg width="100" height="100" version="1.1" viewBox="0 -256 100 100" xmlns="http://www.w3.org/2000/svg">
  <script/>
  <path d="m32.694516-241.778c-6.207927-.0878-12.289106 2.35422-16.882104 6.93503-9.1838808 9.15925-9.3029704 24.29338.826556 34.39206h.0056l2.796699 2.791 27.485786 27.40613c1.697334 1.69347 4.445213 1.69347 6.142547 0l27.480125-27.40613 2.802359-2.791c10.130707-10.09981 10.014119-25.23865.82655-34.39771-9.097431-9.06947-24.007756-9.19554-34.132187.61134l.220781.22062c-.08237-.0822-.18875-.10593-.27175-.18718-.08322.0806-.189156.10437-.27175.18718l.220781-.22062c-5.013375-4.86172-11.161956-7.45422-17.25009-7.54072z" color="#000000" color-rendering="auto" dominant-baseline="auto" fill="#009d9d" image-rendering="auto" shape-rendering="auto" solid-color="#000000" stop-color="#000000" style="font-feature-settings:normal;font-variant-alternates:normal;font-variant-caps:normal;font-variant-east-asian:normal;font-variant-ligatures:normal;font-variant-numeric:normal;font-variant-position:normal;font-variation-settings:normal;inline-size:0;isolation:auto;mix-blend-mode:normal;paint-order:markers fill stroke;shape-margin:0;shape-padding:0;text-decoration-color:#000000;text-decoration-line:none;text-decoration-style:solid;text-indent:0;text-orientation:mixed;text-transform:none;white-space:normal"/>
  <rect y="-356" width="100" height="100" fill="#000d92" fill-opacity=".457272" style="paint-order:fill markers stroke"/>
</svg>
