<svg width="32" height="32" version="1.1" viewBox="0 -256 32 32" xmlns="http://www.w3.org/2000/svg" xmlns:xlink="http://www.w3.org/1999/xlink">
  <defs>
    <linearGradient id="c" x1="16" x2="16" y1="8" y2="32" gradientUnits="userSpaceOnUse" xlink:href="#a"/>
    <linearGradient id="a">
      <stop stop-color="#f60" offset="0"/>
      <stop stop-color="#de5800" offset="1"/>
    </linearGradient>
    <linearGradient id="b" x1="12" x2="12" y1="8" y2="32" gradientUnits="userSpaceOnUse" xlink:href="#a"/>
  </defs>
  <script/>
  <path d="m10.462245-251.44896c-1.9865366-.0281-3.9325137.75335-5.402273 2.21921-2.938842 2.93096-2.9769507 7.77388.2644977 11.00546h.0018l.8949438.89312 8.7954515 8.76996c.543147.54191 1.422468.54191 1.965615 0l8.79364-8.76996.896755-.89312c3.241826-3.23194 3.204518-8.07637.264496-11.00727-2.911178-2.90223-7.682482-2.94257-10.9223.19563l.07065.0706c-.02636-.0263-.0604-.0339-.08696-.0599-.02663.0258-.06053.0334-.08696.0599l.07065-.0706c-1.60428-1.55575-3.571826-2.38535-5.520029-2.41303z" color="#000000" color-rendering="auto" dominant-baseline="auto" fill="#009d9d" image-rendering="auto" shape-rendering="auto" solid-color="#000000" stop-color="#000000" style="font-feature-settings:normal;font-variant-alternates:normal;font-variant-caps:normal;font-variant-east-asian:normal;font-variant-ligatures:normal;font-variant-numeric:normal;font-variant-position:normal;font-variation-settings:normal;inline-size:0;isolation:auto;mix-blend-mode:normal;paint-order:markers fill stroke;shape-margin:0;shape-padding:0;text-decoration-color:#000000;text-decoration-line:none;text-decoration-style:solid;text-indent:0;text-orientation:mixed;text-transform:none;white-space:normal"/>
  <g transform="translate(0,-256)">
    <path d="m9.5 16s.012953-5 0-6.5c-.012957-1.5004487.4612148-5.9608363 6.5-6 6-.038912 6.495685 4.4997009 6.5 7 .0026 1.5 0 5.5 0 5.5" fill="none" stroke="url(#c)" stroke-width="3"/>
    <path d="m6 16c-1 0-2 1-2 2v10c0 1 1 2 2 2h20c1 0 2-1 2-2v-10c0-1-1-2-2-2zm3.03125 2h13.96875c.522127 0 .997189.476401.997189 1s-.475062 1-.997189 1h-13.96875c-.5902237 0-1.03125-.521173-1.03125-1s.4261918-1 1.03125-1zm0 4h13.96875c.522127 0 .997189.476401.997189 1s-.475062 1-.997189 1h-13.96875c-.5415835 0-1.03125-.521173-1.03125-1s.4836539-1 1.03125-1zm0 4h13.96875c.522127 0 .997189.476401.997189 1s-.475062 1-.997189 1h-13.96875c-.5513115 0-1.03125-.521173-1.03125-1s.4473629-1 1.03125-1z" color="#000000" fill="url(#b)" style="text-decoration-line:none;text-indent:0;text-transform:none"/>
  </g>
  <path d="m10.462245-251.44896c-1.9865366-.0281-3.9325137.75335-5.402273 2.21921-2.938842 2.93096-2.9769507 7.77388.2644977 11.00546h.0018l.8949438.89312 8.7954515 8.76996c.543147.54191 1.422468.54191 1.965615 0l8.79364-8.76996.896755-.89312c3.241826-3.23194 3.204518-8.07637.264496-11.00727-2.911178-2.90223-7.682482-2.94257-10.9223.19563l.07065.0706c-.02636-.0263-.0604-.0339-.08696-.0599-.02663.0258-.06053.0334-.08696.0599l.07065-.0706c-1.60428-1.55575-3.571826-2.38535-5.520029-2.41303z" color="#000000" color-rendering="auto" dominant-baseline="auto" fill="#009d9d" fill-opacity=".68976444" image-rendering="auto" shape-rendering="auto" solid-color="#000000" stop-color="#000000" style="font-feature-settings:normal;font-variant-alternates:normal;font-variant-caps:normal;font-variant-east-asian:normal;font-variant-ligatures:normal;font-variant-numeric:normal;font-variant-position:normal;font-variation-settings:normal;inline-size:0;isolation:auto;mix-blend-mode:normal;paint-order:markers fill stroke;shape-margin:0;shape-padding:0;text-decoration-color:#000000;text-decoration-line:none;text-decoration-style:solid;text-indent:0;text-orientation:mixed;text-transform:none;white-space:normal"/>
</svg>
