<svg width="280" height="235" version="1.1" viewBox="0 -256 280 234.99999" xmlns="http://www.w3.org/2000/svg">
  <defs>
    <filter id="e" x="-1.2039171" y="-1.1091451" width="3.4078341" height="3.2182902" color-interpolation-filters="sRGB">
      <feGaussianBlur result="blur" stdDeviation="41.1498 33.6425"/>
    </filter>
    <filter id="a" x="-1.2039171" y="-1.1091451" width="3.4078341" height="3.2182902" color-interpolation-filters="sRGB">
      <feGaussianBlur result="blur" stdDeviation="41.1498 33.6425"/>
    </filter>
    <filter id="d" x="-1.2039171" y="-1.1091451" width="3.4078341" height="3.2182902" color-interpolation-filters="sRGB">
      <feGaussianBlur result="blur" stdDeviation="41.1498 33.6425"/>
    </filter>
    <filter id="b" x="-1.2039171" y="-1.1091451" width="3.4078341" height="3.2182902" color-interpolation-filters="sRGB">
      <feGaussianBlur result="blur" stdDeviation="41.1498 33.6425"/>
    </filter>
    <filter id="c" x="-1.2039171" y="-1.1091451" width="3.4078341" height="3.2182902" color-interpolation-filters="sRGB">
      <feGaussianBlur result="blur" stdDeviation="41.1498 33.6425"/>
    </filter>
  </defs>
  <script/>
  <path d="m122.4733-175.25571c-6.20793-.0878-12.28911 2.35422-16.8821 6.93503-9.183882 9.15925-9.302972 24.29338.82655 34.39206h.006l2.7967 2.791 27.48579 27.40613c1.69733 1.69347 4.44521 1.69347 6.14254 0l27.48013-27.40613 2.80236-2.791c10.13071-10.09981 10.01412-25.23865.82655-34.39771-9.09743-9.06947-24.00776-9.19554-34.13219.61134l.22078.22062c-.0824-.0822-.18875-.10593-.27175-.18718-.0832.0806-.18915.10437-.27175.18718l.22078-.22062c-5.01337-4.86172-11.16195-7.45422-17.25009-7.54072z" color="#000000" color-rendering="auto" dominant-baseline="auto" filter="url(#e)" image-rendering="auto" shape-rendering="auto" solid-color="#000000" stop-color="#000000" style="font-feature-settings:normal;font-variant-alternates:normal;font-variant-caps:normal;font-variant-east-asian:normal;font-variant-ligatures:normal;font-variant-numeric:normal;font-variant-position:normal;font-variation-settings:normal;inline-size:0;isolation:auto;mix-blend-mode:normal;paint-order:markers fill stroke;shape-margin:0;shape-padding:0;text-decoration-color:#000000;text-decoration-line:none;text-decoration-style:solid;text-indent:0;text-orientation:mixed;text-transform:none;white-space:normal"/>
  <path d="m122.4733-175.25571c-6.20793-.0878-12.28911 2.35422-16.8821 6.93503-9.183882 9.15925-9.302972 24.29338.82655 34.39206h.006l2.7967 2.791 27.48579 27.40613c1.69733 1.69347 4.44521 1.69347 6.14254 0l27.48013-27.40613 2.80236-2.791c10.13071-10.09981 10.01412-25.23865.82655-34.39771-9.09743-9.06947-24.00776-9.19554-34.13219.61134l.22078.22062c-.0824-.0822-.18875-.10593-.27175-.18718-.0832.0806-.18915.10437-.27175.18718l.22078-.22062c-5.01337-4.86172-11.16195-7.45422-17.25009-7.54072z" color="#000000" color-rendering="auto" dominant-baseline="auto" filter="url(#a)" image-rendering="auto" shape-rendering="auto" solid-color="#000000" stop-color="#000000" style="font-feature-settings:normal;font-variant-alternates:normal;font-variant-caps:normal;font-variant-east-asian:normal;font-variant-ligatures:normal;font-variant-numeric:normal;font-variant-position:normal;font-variation-settings:normal;inline-size:0;isolation:auto;mix-blend-mode:normal;paint-order:markers fill stroke;shape-margin:0;shape-padding:0;text-decoration-color:#000000;text-decoration-line:none;text-decoration-style:solid;text-indent:0;text-orientation:mixed;text-transform:none;white-space:normal"/>
  <path d="m122.4733-175.25571c-6.20793-.0878-12.28911 2.35422-16.8821 6.93503-9.183882 9.15925-9.302972 24.29338.82655 34.39206h.006l2.7967 2.791 27.48579 27.40613c1.69733 1.69347 4.44521 1.69347 6.14254 0l27.48013-27.40613 2.80236-2.791c10.13071-10.09981 10.01412-25.23865.82655-34.39771-9.09743-9.06947-24.00776-9.19554-34.13219.61134l.22078.22062c-.0824-.0822-.18875-.10593-.27175-.18718-.0832.0806-.18915.10437-.27175.18718l.22078-.22062c-5.01337-4.86172-11.16195-7.45422-17.25009-7.54072z" color="#000000" color-rendering="auto" dominant-baseline="auto" filter="url(#d)" image-rendering="auto" shape-rendering="auto" solid-color="#000000" stop-color="#000000" style="font-feature-settings:normal;font-variant-alternates:normal;font-variant-caps:normal;font-variant-east-asian:normal;font-variant-ligatures:normal;font-variant-numeric:normal;font-variant-position:normal;font-variation-settings:normal;inline-size:0;isolation:auto;mix-blend-mode:normal;paint-order:markers fill stroke;shape-margin:0;shape-padding:0;text-decoration-color:#000000;text-decoration-line:none;text-decoration-style:solid;text-indent:0;text-orientation:mixed;text-transform:none;white-space:normal"/>
  <path d="m122.4733-175.25571c-6.20793-.0878-12.28911 2.35422-16.8821 6.93503-9.183882 9.15925-9.302972 24.29338.82655 34.39206h.006l2.7967 2.791 27.48579 27.40613c1.69733 1.69347 4.44521 1.69347 6.14254 0l27.48013-27.40613 2.80236-2.791c10.13071-10.09981 10.01412-25.23865.82655-34.39771-9.09743-9.06947-24.00776-9.19554-34.13219.61134l.22078.22062c-.0824-.0822-.18875-.10593-.27175-.18718-.0832.0806-.18915.10437-.27175.18718l.22078-.22062c-5.01337-4.86172-11.16195-7.45422-17.25009-7.54072z" color="#000000" color-rendering="auto" dominant-baseline="auto" filter="url(#b)" image-rendering="auto" shape-rendering="auto" solid-color="#000000" stop-color="#000000" style="font-feature-settings:normal;font-variant-alternates:normal;font-variant-caps:normal;font-variant-east-asian:normal;font-variant-ligatures:normal;font-variant-numeric:normal;font-variant-position:normal;font-variation-settings:normal;inline-size:0;isolation:auto;mix-blend-mode:normal;paint-order:markers fill stroke;shape-margin:0;shape-padding:0;text-decoration-color:#000000;text-decoration-line:none;text-decoration-style:solid;text-indent:0;text-orientation:mixed;text-transform:none;white-space:normal"/>
  <path d="m122.4733-175.25571c-6.20793-.0878-12.28911 2.35422-16.8821 6.93503-9.183882 9.15925-9.302972 24.29338.82655 34.39206h.006l2.7967 2.791 27.48579 27.40613c1.69733 1.69347 4.44521 1.69347 6.14254 0l27.48013-27.40613 2.80236-2.791c10.13071-10.09981 10.01412-25.23865.82655-34.39771-9.09743-9.06947-24.00776-9.19554-34.13219.61134l.22078.22062c-.0824-.0822-.18875-.10593-.27175-.18718-.0832.0806-.18915.10437-.27175.18718l.22078-.22062c-5.01337-4.86172-11.16195-7.45422-17.25009-7.54072z" color="#000000" color-rendering="auto" dominant-baseline="auto" filter="url(#c)" image-rendering="auto" shape-rendering="auto" solid-color="#000000" stop-color="#000000" style="font-feature-settings:normal;font-variant-alternates:normal;font-variant-caps:normal;font-variant-east-asian:normal;font-variant-ligatures:normal;font-variant-numeric:normal;font-variant-position:normal;font-variation-settings:normal;inline-size:0;isolation:auto;mix-blend-mode:normal;paint-order:markers fill stroke;shape-margin:0;shape-padding:0;text-decoration-color:#000000;text-decoration-line:none;text-decoration-style:solid;text-indent:0;text-orientation:mixed;text-transform:none;white-space:normal"/>
  <path d="m122.47266-175.25586c-6.20793-.0878-12.28787 2.35474-16.88086 6.93555-9.183885 9.15925-9.303353 24.2939.82617 34.39258h.00586l2.79687 2.79101 27.16602 27.08399 7.33203-20.59571-18.94531-10.89844 19.4414-16.21874-7.73242-15.04102.0957-3.55859c-4.33308-3.15064-9.23894-4.82149-14.10546-4.89063zm34.30664.16602c-4.90152.15029-9.86061 1.80853-14.20508 5.03711l-.05078 1.87109 9.22461 17.94726-16.51953 13.78126 15.82226 9.10156-8.50976 23.90039c.10594-.0874.2094-.18229.30859-.28125l27.47851-27.4043 2.80274-2.79101c10.13071-10.09981 10.01374-25.23938.82617-34.39844-4.67152-4.65716-10.87579-6.95691-17.17773-6.76367z" fill="#4f4f4f" style="font-feature-settings:normal;font-variant-alternates:normal;font-variant-caps:normal;font-variant-east-asian:normal;font-variant-ligatures:normal;font-variant-numeric:normal;font-variant-position:normal;font-variation-settings:normal;inline-size:0;isolation:auto;mix-blend-mode:normal;paint-order:markers fill stroke;shape-margin:0;shape-padding:0;text-decoration-color:#000000;text-decoration-line:none;text-decoration-style:solid;text-indent:0;text-orientation:mixed;text-transform:none;white-space:normal"/>
</svg>
