<svg width="280" height="235" version="1.1" viewBox="0 -256 280 234.99999" xmlns="http://www.w3.org/2000/svg">
  <defs>
    <filter id="e" x="-1.2039171" y="-1.1091451" width="3.4078341" height="3.2182902" color-interpolation-filters="sRGB">
      <feGaussianBlur result="blur" stdDeviation="41.1498 33.6425"/>
    </filter>
    <filter id="a" x="-1.2039171" y="-1.1091451" width="3.4078341" height="3.2182902" color-interpolation-filters="sRGB">
      <feGaussianBlur result="blur" stdDeviation="41.1498 33.6425"/>
    </filter>
    <filter id="d" x="-1.2039171" y="-1.1091451" width="3.4078341" height="3.2182902" color-interpolation-filters="sRGB">
      <feGaussianBlur result="blur" stdDeviation="41.1498 33.6425"/>
    </filter>
    <filter id="b" x="-1.2039171" y="-1.1091451" width="3.4078341" height="3.2182902" color-interpolation-filters="sRGB">
      <feGaussianBlur result="blur" stdDeviation="41.1498 33.6425"/>
    </filter>
    <filter id="c" x="-1.2039171" y="-1.1091451" width="3.4078341" height="3.2182902" color-interpolation-filters="sRGB">
      <feGaussianBlur result="blur" stdDeviation="41.1498 33.6425"/>
    </filter>
  </defs>
  <script/>
  <path d="m122.4733-175.25571c-6.20793-.0878-12.28911 2.35422-16.8821 6.93503-9.183882 9.15925-9.302972 24.29338.82655 34.39206h.006l2.7967 2.791 27.48579 27.40613c1.69733 1.69347 4.44521 1.69347 6.14254 0l27.48013-27.40613 2.80236-2.791c10.13071-10.09981 10.01412-25.23865.82655-34.39771-9.09743-9.06947-24.00776-9.19554-34.13219.61134l.22078.22062c-.0824-.0822-.18875-.10593-.27175-.18718-.0832.0806-.18915.10437-.27175.18718l.22078-.22062c-5.01337-4.86172-11.16195-7.45422-17.25009-7.54072z" color="#000000" color-rendering="auto" dominant-baseline="auto" filter="url(#e)" image-rendering="auto" shape-rendering="auto" solid-color="#000000" stop-color="#000000" style="font-feature-settings:normal;font-variant-alternates:normal;font-variant-caps:normal;font-variant-east-asian:normal;font-variant-ligatures:normal;font-variant-numeric:normal;font-variant-position:normal;font-variation-settings:normal;inline-size:0;isolation:auto;mix-blend-mode:normal;paint-order:markers fill stroke;shape-margin:0;shape-padding:0;text-decoration-color:#000000;text-decoration-line:none;text-decoration-style:solid;text-indent:0;text-orientation:mixed;text-transform:none;white-space:normal"/>
  <path d="m122.4733-175.25571c-6.20793-.0878-12.28911 2.35422-16.8821 6.93503-9.183882 9.15925-9.302972 24.29338.82655 34.39206h.006l2.7967 2.791 27.48579 27.40613c1.69733 1.69347 4.44521 1.69347 6.14254 0l27.48013-27.40613 2.80236-2.791c10.13071-10.09981 10.01412-25.23865.82655-34.39771-9.09743-9.06947-24.00776-9.19554-34.13219.61134l.22078.22062c-.0824-.0822-.18875-.10593-.27175-.18718-.0832.0806-.18915.10437-.27175.18718l.22078-.22062c-5.01337-4.86172-11.16195-7.45422-17.25009-7.54072z" color="#000000" color-rendering="auto" dominant-baseline="auto" filter="url(#a)" image-rendering="auto" shape-rendering="auto" solid-color="#000000" stop-color="#000000" style="font-feature-settings:normal;font-variant-alternates:normal;font-variant-caps:normal;font-variant-east-asian:normal;font-variant-ligatures:normal;font-variant-numeric:normal;font-variant-position:normal;font-variation-settings:normal;inline-size:0;isolation:auto;mix-blend-mode:normal;paint-order:markers fill stroke;shape-margin:0;shape-padding:0;text-decoration-color:#000000;text-decoration-line:none;text-decoration-style:solid;text-indent:0;text-orientation:mixed;text-transform:none;white-space:normal"/>
  <path d="m122.4733-175.25571c-6.20793-.0878-12.28911 2.35422-16.8821 6.93503-9.183882 9.15925-9.302972 24.29338.82655 34.39206h.006l2.7967 2.791 27.48579 27.40613c1.69733 1.69347 4.44521 1.69347 6.14254 0l27.48013-27.40613 2.80236-2.791c10.13071-10.09981 10.01412-25.23865.82655-34.39771-9.09743-9.06947-24.00776-9.19554-34.13219.61134l.22078.22062c-.0824-.0822-.18875-.10593-.27175-.18718-.0832.0806-.18915.10437-.27175.18718l.22078-.22062c-5.01337-4.86172-11.16195-7.45422-17.25009-7.54072z" color="#000000" color-rendering="auto" dominant-baseline="auto" filter="url(#d)" image-rendering="auto" shape-rendering="auto" solid-color="#000000" stop-color="#000000" style="font-feature-settings:normal;font-variant-alternates:normal;font-variant-caps:normal;font-variant-east-asian:normal;font-variant-ligatures:normal;font-variant-numeric:normal;font-variant-position:normal;font-variation-settings:normal;inline-size:0;isolation:auto;mix-blend-mode:normal;paint-order:markers fill stroke;shape-margin:0;shape-padding:0;text-decoration-color:#000000;text-decoration-line:none;text-decoration-style:solid;text-indent:0;text-orientation:mixed;text-transform:none;white-space:normal"/>
  <path d="m122.4733-175.25571c-6.20793-.0878-12.28911 2.35422-16.8821 6.93503-9.183882 9.15925-9.302972 24.29338.82655 34.39206h.006l2.7967 2.791 27.48579 27.40613c1.69733 1.69347 4.44521 1.69347 6.14254 0l27.48013-27.40613 2.80236-2.791c10.13071-10.09981 10.01412-25.23865.82655-34.39771-9.09743-9.06947-24.00776-9.19554-34.13219.61134l.22078.22062c-.0824-.0822-.18875-.10593-.27175-.18718-.0832.0806-.18915.10437-.27175.18718l.22078-.22062c-5.01337-4.86172-11.16195-7.45422-17.25009-7.54072z" color="#000000" color-rendering="auto" dominant-baseline="auto" filter="url(#b)" image-rendering="auto" shape-rendering="auto" solid-color="#000000" stop-color="#000000" style="font-feature-settings:normal;font-variant-alternates:normal;font-variant-caps:normal;font-variant-east-asian:normal;font-variant-ligatures:normal;font-variant-numeric:normal;font-variant-position:normal;font-variation-settings:normal;inline-size:0;isolation:auto;mix-blend-mode:normal;paint-order:markers fill stroke;shape-margin:0;shape-padding:0;text-decoration-color:#000000;text-decoration-line:none;text-decoration-style:solid;text-indent:0;text-orientation:mixed;text-transform:none;white-space:normal"/>
  <path d="m122.4733-175.25571c-6.20793-.0878-12.28911 2.35422-16.8821 6.93503-9.183882 9.15925-9.302972 24.29338.82655 34.39206h.006l2.7967 2.791 27.48579 27.40613c1.69733 1.69347 4.44521 1.69347 6.14254 0l27.48013-27.40613 2.80236-2.791c10.13071-10.09981 10.01412-25.23865.82655-34.39771-9.09743-9.06947-24.00776-9.19554-34.13219.61134l.22078.22062c-.0824-.0822-.18875-.10593-.27175-.18718-.0832.0806-.18915.10437-.27175.18718l.22078-.22062c-5.01337-4.86172-11.16195-7.45422-17.25009-7.54072z" color="#000000" color-rendering="auto" dominant-baseline="auto" filter="url(#c)" image-rendering="auto" shape-rendering="auto" solid-color="#000000" stop-color="#000000" style="font-feature-settings:normal;font-variant-alternates:normal;font-variant-caps:normal;font-variant-east-asian:normal;font-variant-ligatures:normal;font-variant-numeric:normal;font-variant-position:normal;font-variation-settings:normal;inline-size:0;isolation:auto;mix-blend-mode:normal;paint-order:markers fill stroke;shape-margin:0;shape-padding:0;text-decoration-color:#000000;text-decoration-line:none;text-decoration-style:solid;text-indent:0;text-orientation:mixed;text-transform:none;white-space:normal"/>
  <path d="m122.4733-175.25571c-6.20793-.0878-12.28911 2.35422-16.8821 6.93503-9.183882 9.15925-9.302972 24.29338.82655 34.39206h.006l2.7967 2.791 27.48579 27.40613c1.69733 1.69347 4.44521 1.69347 6.14254 0l27.48013-27.40613 2.80236-2.791c10.13071-10.09981 10.01412-25.23865.82655-34.39771-9.09743-9.06947-24.00776-9.19554-34.13219.61134l.22078.22062c-.0824-.0822-.18875-.10593-.27175-.18718-.0832.0806-.18915.10437-.27175.18718l.22078-.22062c-5.01337-4.86172-11.16195-7.45422-17.25009-7.54072z" color="#000000" color-rendering="auto" dominant-baseline="auto" fill="#009d9d" image-rendering="auto" shape-rendering="auto" solid-color="#000000" stop-color="#000000" style="font-feature-settings:normal;font-variant-alternates:normal;font-variant-caps:normal;font-variant-east-asian:normal;font-variant-ligatures:normal;font-variant-numeric:normal;font-variant-position:normal;font-variation-settings:normal;inline-size:0;isolation:auto;mix-blend-mode:normal;paint-order:markers fill stroke;shape-margin:0;shape-padding:0;text-decoration-color:#000000;text-decoration-line:none;text-decoration-style:solid;text-indent:0;text-orientation:mixed;text-transform:none;white-space:normal"/>
</svg>
