<svg width="32" height="32" version="1.1" viewBox="0 -256 32 32" xmlns="http://www.w3.org/2000/svg">
  <script/>
  <path d="m13.296364-247.37313c-1.986537-0.0281-3.9325093 0.75335-5.4022686 2.21921-2.938842 2.93096-2.9769507 7.77388 0.2644977 11.00546h0.0018l0.8949438 0.89312 8.7954471 8.76996c0.543147 0.54191 1.422468 0.54191 1.965615 0l8.79364-8.76996 0.896755-0.89312c3.241826-3.23194 3.204518-8.07637 0.264496-11.00727-2.911178-2.90223-7.682482-2.94257-10.9223 0.19563l0.07065 0.0706c-0.02636-0.0263-0.0604-0.0339-0.08696-0.0599-0.02663 0.0258-0.06053 0.0334-0.08696 0.0599l0.07065-0.0706c-1.60428-1.55575-3.571826-2.38535-5.520029-2.41303z" color="#000000" color-rendering="auto" dominant-baseline="auto" fill="#c2b3a5" image-rendering="auto" shape-rendering="auto" solid-color="#000000" stop-color="#000000" style="font-feature-settings:normal;font-variant-alternates:normal;font-variant-caps:normal;font-variant-east-asian:normal;font-variant-ligatures:normal;font-variant-numeric:normal;font-variant-position:normal;font-variation-settings:normal;inline-size:0;isolation:auto;mix-blend-mode:normal;paint-order:markers fill stroke;shape-margin:0;shape-padding:0;text-decoration-color:#000000;text-decoration-line:none;text-decoration-style:solid;text-indent:0;text-orientation:mixed;text-transform:none;white-space:normal"/>
</svg>
