<svg width="32" height="32" version="1.1" viewBox="0 -256 32 32" xmlns="http://www.w3.org/2000/svg">
  <path d="m13.433254-247.28925c-1.986537-.0281-3.932509.75335-5.402269 2.21921-2.938842 2.93096-2.97695 7.77388.264498 11.00546h.0018l.894944.89312 8.795447 8.76996c.543147.54191 1.422468.54191 1.965615 0l8.79364-8.76996.896755-.89312c3.241826-3.23194 3.204518-8.07637.264496-11.00727-2.911178-2.90223-7.682482-2.94257-10.9223.19563l.07065.0706c-.02636-.0263-.0604-.0339-.08696-.0599-.02663.0258-.06053.0334-.08696.0599l.07065-.0706c-1.60428-1.55575-3.571826-2.38535-5.520029-2.41303z" fill="#494949"/>
</svg>
