<?xml version="1.0" encoding="UTF-8" standalone="no"?>
<svg
   xmlns:dc="http://purl.org/dc/elements/1.1/"
   xmlns:cc="http://creativecommons.org/ns#"
   xmlns:rdf="http://www.w3.org/1999/02/22-rdf-syntax-ns#"
   xmlns:svg="http://www.w3.org/2000/svg"
   xmlns="http://www.w3.org/2000/svg"
   xmlns:sodipodi="http://sodipodi.sourceforge.net/DTD/sodipodi-0.dtd"
   xmlns:inkscape="http://www.inkscape.org/namespaces/inkscape"
   version="1.1"
   id="Rekordbox_Logo_Vector_1_"
   x="0px"
   y="0px"
   viewBox="0 0 31.999999 31.999999"
   enable-background="new 0 0 157.21 176.99"
   xml:space="preserve"
   width="32"
   height="32"
   sodipodi:docname="ic_library_clementine.svg"
   inkscape:version="1.0.2 (e86c870879, 2021-01-15)"><sodipodi:namedview
     pagecolor="#ffffff"
     bordercolor="#666666"
     borderopacity="1"
     objecttolerance="10"
     gridtolerance="10"
     guidetolerance="10"
     inkscape:pageopacity="0"
     inkscape:pageshadow="2"
     inkscape:window-width="1062"
     inkscape:window-height="2080"
     id="namedview1230"
     showgrid="false"
     inkscape:zoom="18.119611"
     inkscape:cx="20.051961"
     inkscape:cy="28.691724"
     inkscape:window-x="2770"
     inkscape:window-y="35"
     inkscape:window-maximized="0"
     inkscape:current-layer="g3028" /><metadata
     id="metadata12"><rdf:RDF><cc:Work
         rdf:about=""><dc:format>image/svg+xml</dc:format><dc:type
           rdf:resource="http://purl.org/dc/dcmitype/StillImage" /><dc:title></dc:title></cc:Work></rdf:RDF></metadata><defs
     id="defs10"><clipPath
       clipPathUnits="userSpaceOnUse"
       id="clipPath5802"><path
         style="fill:#241c1c;stroke:none"
         d="m 505.71875,535.46875 c -0.0913,0.006 -0.19131,0.0169 -0.28125,0.0312 -0.0955,0.0153 -0.1874,0.0375 -0.28125,0.0625 -0.0844,0.0225 -0.16817,0.0636 -0.25,0.0937 -0.003,0.005 -0.0284,-0.005 -0.0312,0 -0.79083,1.25489 -1.4864,2.70521 -1.71875,4.09375 -0.3364,2.01031 -0.60558,4.59838 -0.21875,7.65625 0.31871,2.60411 1.03448,5.62431 2.46875,8.90625 a 1.0096098,0.99067979 1.5151289 0 1 0,0.0625 c 0.85048,2.26648 2.57266,5.1072 5.8125,7.96875 0.0263,0.0232 0.0673,0.0393 0.0937,0.0625 0.36148,0.26611 0.70356,0.54293 1.0625,0.78125 3.08915,2.05084 5.83226,2.96661 7.9375,3.3125 a 1.0096098,0.99067979 1.5151289 0 1 0.0625,0 c 3.57728,0.79896 6.80296,0.94697 9.53125,0.78125 l -0.0312,0.0312 c 2.7977,-0.24267 5.93557,-0.42426 8.34375,-1.34375 1.4935,-0.57027 2.4005,-1.43904 3.1875,-2.34375 0.0506,-0.11958 0.12205,-0.22132 0.15625,-0.34375 0.0391,-0.28476 0.0785,-0.45542 0.0937,-0.53125 0.015,-0.0749 -7.3e-4,-0.0621 0,-0.0625 -6.8e-4,-4.2e-4 0.005,-0.018 0,-0.0937 -0.005,-0.0773 -8.1e-4,-0.21231 0,-0.5 -0.024,-0.1922 -0.0676,-0.40226 -0.125,-0.59375 -0.1152,-0.3785 -0.28887,-0.75013 -0.53125,-1.125 -0.47139,-0.72912 -1.16519,-1.44809 -2.0625,-2.15625 -1.66351,-1.31336 -3.99576,-2.58272 -6.71875,-3.8125 -2.31867,-1.04924 -4.86763,-2.00675 -7.34375,-3.0625 -1.72915,-0.84294 -3.09392,-1.28622 -3.59375,-1.6875 -0.0621,-0.0499 -0.0901,-0.10636 -0.125,-0.15625 -0.45281,-0.0886 -1.17461,-1.31192 -2.4375,-2.84375 -1.45775,-1.97251 -2.84904,-4.05918 -4.25,-5.96875 -1.6371,-2.2372 -3.21891,-4.12475 -4.71875,-5.40625 -0.80971,-0.69174 -1.59101,-1.19859 -2.34375,-1.5 -0.3873,-0.15511 -0.75608,-0.274 -1.125,-0.3125 -0.1869,-0.0199 -0.3809,-0.0121 -0.5625,0 z"
         id="path5804" /></clipPath><filter
       inkscape:collect="always"
       style="color-interpolation-filters:sRGB"
       id="filter3082"
       x="-0.024882791"
       width="1.0497656"
       y="-0.029511012"
       height="1.059022"><feGaussianBlur
         inkscape:collect="always"
         stdDeviation="0.39084556"
         id="feGaussianBlur3084" /></filter><clipPath
       clipPathUnits="userSpaceOnUse"
       id="clipPath5802-3"><path
         style="fill:#241c1c;stroke:none"
         d="m 505.71875,535.46875 c -0.0913,0.006 -0.19131,0.0169 -0.28125,0.0312 -0.0955,0.0153 -0.1874,0.0375 -0.28125,0.0625 -0.0844,0.0225 -0.16817,0.0636 -0.25,0.0937 -0.003,0.005 -0.0284,-0.005 -0.0312,0 -0.79083,1.25489 -1.4864,2.70521 -1.71875,4.09375 -0.3364,2.01031 -0.60558,4.59838 -0.21875,7.65625 0.31871,2.60411 1.03448,5.62431 2.46875,8.90625 a 1.0096098,0.99067979 1.5151289 0 1 0,0.0625 c 0.85048,2.26648 2.57266,5.1072 5.8125,7.96875 0.0263,0.0232 0.0673,0.0393 0.0937,0.0625 0.36148,0.26611 0.70356,0.54293 1.0625,0.78125 3.08915,2.05084 5.83226,2.96661 7.9375,3.3125 a 1.0096098,0.99067979 1.5151289 0 1 0.0625,0 c 3.57728,0.79896 6.80296,0.94697 9.53125,0.78125 l -0.0312,0.0312 c 2.7977,-0.24267 5.93557,-0.42426 8.34375,-1.34375 1.4935,-0.57027 2.4005,-1.43904 3.1875,-2.34375 0.0506,-0.11958 0.12205,-0.22132 0.15625,-0.34375 0.0391,-0.28476 0.0785,-0.45542 0.0937,-0.53125 0.015,-0.0749 -7.3e-4,-0.0621 0,-0.0625 -6.8e-4,-4.2e-4 0.005,-0.018 0,-0.0937 -0.005,-0.0773 -8.1e-4,-0.21231 0,-0.5 -0.024,-0.1922 -0.0676,-0.40226 -0.125,-0.59375 -0.1152,-0.3785 -0.28887,-0.75013 -0.53125,-1.125 -0.47139,-0.72912 -1.16519,-1.44809 -2.0625,-2.15625 -1.66351,-1.31336 -3.99576,-2.58272 -6.71875,-3.8125 -2.31867,-1.04924 -4.86763,-2.00675 -7.34375,-3.0625 -1.72915,-0.84294 -3.09392,-1.28622 -3.59375,-1.6875 -0.0621,-0.0499 -0.0901,-0.10636 -0.125,-0.15625 -0.45281,-0.0886 -1.17461,-1.31192 -2.4375,-2.84375 -1.45775,-1.97251 -2.84904,-4.05918 -4.25,-5.96875 -1.6371,-2.2372 -3.21891,-4.12475 -4.71875,-5.40625 -0.80971,-0.69174 -1.59101,-1.19859 -2.34375,-1.5 -0.3873,-0.15511 -0.75608,-0.274 -1.125,-0.3125 -0.1869,-0.0199 -0.3809,-0.0121 -0.5625,0 z"
         id="path5804-5" /></clipPath></defs><g
     transform="matrix(0.69636487,0,0,0.69636487,17.09885,110.06171)"
     id="g6070"><g
       id="g3028"
       transform="matrix(0.58470322,0,0,0.58470322,-40.593157,-62.988447)"><path
         id="path1331"
         style="fill:#ff6600;fill-opacity:1;stroke:none;stroke-width:1.51866"
         d="m 98.999311,-108.34967 c -0.69184,4.16234 -5.287569,5.7804 -8.735424,6.90876 -9.1998,2.8055 -19.118626,1.980377 -28.257283,-0.68037 -6.650596,-2.21831 -12.61974,-6.55142 -16.506311,-12.52778 -3.826209,-6.00721 -6.048287,-13.01697 -7.057186,-20.07243 -0.227832,-5.46404 -0.504435,-11.48521 2.493752,-16.27443 1.68872,-2.73231 5.440942,-2.57503 7.774518,-0.82905 5.976206,3.97838 9.129886,10.76326 13.44172,16.31377 2.014168,2.5251 3.663758,5.52698 6.223168,7.49355 7.452531,3.68807 15.388935,6.29999 22.737885,10.20949 3.340217,2.06379 7.567768,4.67303 7.904733,9.06423 l -0.01953,0.39422 z" /><path
         id="path1335"
         clip-path="url(#clipPath5802)"
         style="opacity:0.6;fill:none;stroke:#ffffff;stroke-width:0.212508;stroke-linecap:round;stroke-linejoin:round;stroke-miterlimit:4;stroke-dasharray:none;filter:url(#filter3082)"
         d="m 522.14286,552.8979 c -1.50766,-0.7201 1.44358,1.06766 2.10761,0.83114 2.30678,0.41147 3.99243,2.42992 6.45247,2.36909 2.21869,0.30329 3.02737,2.57902 3.86776,4.32866 0.63446,2.65019 3.84138,3.40152 4.01407,6.20158 0.21224,0.14749 0.83788,3.11531 0.70095,1.98381 M 523.57143,554.1479 c -1.38997,-0.85893 1.47403,0.78347 1.95064,1.0249 1.92947,0.8066 3.57744,2.10074 5.42752,3.06625 1.19926,1.62374 1.21143,3.86199 2.1473,5.66411 0.37245,1.89397 2.31991,3.03957 1.72456,5.12597 v 0.11877 m -6.42857,0.35714 c -0.10015,-2.1436 -2.06533,-3.46166 -2.33795,-5.56097 -0.51392,-1.99597 -1.10212,-3.99196 -1.23085,-6.06815 0.21662,-2.21756 -1.7337,-3.1106 -3.15049,-4.30414 0.35781,-1.72332 3.00251,0.83631 3.92262,1.44496 2.15226,1.75894 2.45546,4.78263 3.46552,7.23251 0.16664,2.33962 3.12969,3.06428 2.95259,5.54256 0.051,0.51049 0.0436,1.02931 -0.05,1.53466 m -9.64286,-15.89286 c 1.21079,1.97035 1.17958,4.28164 1.21769,6.54456 -0.28405,2.45557 -0.63894,4.99367 0.0558,7.39644 0.0555,0.70514 0.53476,1.29881 0.51224,1.95186 m -10,-2.32143 c -1.42594,0.8691 1.30026,-0.96596 1.0269,-1.86259 0.66064,-1.68041 1.77561,-3.06094 2.91675,-4.47133 1.40417,-1.4252 1.51747,-3.49993 2.09952,-5.32975 0.1905,-0.75076 0.73859,-4.12462 0.91712,-1.58318 0.37164,2.36989 0.0995,4.7856 0.18257,7.17542 -0.57238,2.59494 -1.22234,5.21136 -1.07143,7.89033 v 0.12086 0.0245 m 0.53572,-15.89285 c -0.0542,2.71375 -2.34616,3.99493 -4.08899,5.56992 -1.05213,1.48026 -1.99233,3.35548 -3.97634,3.44685 -1.18854,0.33009 -2.51846,2.53954 -2.02857,2.84586 l 0.093,-0.12062 9.1e-4,-0.13487 m 10,-13.57143 c -1.11166,-1.82165 -2.70837,-2.86007 -4.54098,-3.79663 -2.15734,-1.07979 -2.92468,-3.21256 -4.05373,-5.18548 -1.23901,-2.17341 -4.13491,-1.76776 -6.11629,-2.75157 -0.91553,-0.29385 -2.21929,-0.90405 -2.61043,-1.65918 m -1.78572,7.5 c 1.57174,-0.78828 2.03467,2.11843 4.06603,1.42791 1.69123,0.10748 3.78865,-0.32855 5.04112,1.07209 1.38712,2.0776 4.17835,1.37885 6.24252,1.9978 1.49066,-0.008 3.84904,1.80136 3.93629,2.17638 -0.67317,-1.30018 -2.60751,-1.68644 -3.3645,-3.18373 -1.80008,-1.42132 -4.68468,-1.10276 -5.91367,-3.3277 -0.62036,-2.01355 -3.71716,-0.8353 -4.37606,-2.5196 -1.3971,-1.76581 -3.52871,-0.7165 -5.36837,-1.19538 l -0.04,-0.0236 0.13378,0.004 m 0.89285,11.78571 c 2.29913,-1.4989 3.96127,1.34563 6.16444,0.31089 2.80461,-1.11036 5.90817,-0.92556 8.85329,-1.38373 1.13797,0.21756 2.85387,-0.32677 1.0911,-1.33075 -1.72909,-1.22136 -3.74204,-0.91475 -5.69818,-0.8107 -1.5987,-0.0108 -3.21015,0.1339 -4.74637,-0.4258 -2.16192,-0.44117 -4.37877,-0.32209 -6.55713,-0.64562 0.11905,0 0.23809,0 0.35714,0 m 5,12.32142 c -0.0686,-2.14995 2.42736,-1.87935 3.90439,-2.57893 1.96485,-0.368 3.9282,-0.96403 5.49077,-2.16754 0.8573,-1.3114 3.34936,-3.09384 3.19596,-4.10565 -1.83449,0.18495 -3.47169,1.30896 -5.33138,1.56464 -2.06192,0.50692 -3.45697,2.65778 -5.78586,2.1089 -1.2406,0.27183 -4.25079,0.84888 -4.56449,1.22593 l 0.41204,0.0241"
         transform="matrix(1.525492,0,0,1.525492,-727.14932,-969.74891)" /><path
         id="path1329-3"
         style="fill:none;fill-opacity:1;stroke:none;stroke-width:1.5255"
         d="m 98.904579,-107.87963 c -0.211418,2.71327 -3.164115,5.00138 -5.105746,7.01876 -4.209214,4.618332 -10.522737,6.248854 -16.539827,6.714358 -7.450335,0.590594 -15.083256,-0.274269 -22.136582,-2.765244 -7.044264,-2.651077 -12.994674,-7.871114 -16.575538,-14.487154 -4.390473,-8.83159 -6.982497,-19.02758 -5.196573,-28.87824 0.901993,-5.20032 4.220197,-9.78786 8.995384,-12.09768" /><path
         id="path2373"
         style="fill:none;fill-opacity:1;stroke:none;stroke-width:1.5255"
         d="m 42.345697,-152.37483 c 2.658429,-0.64586 3.529286,4.2461 5.502129,5.82363 7.536586,10.70884 16.135327,21.17887 27.718357,27.6924 7.438375,4.33733 15.42393,7.63149 23.338396,10.97917" /><path
         id="path1329"
         style="fill:#ff6600;fill-opacity:1;stroke:none;stroke-width:1.5255"
         d="m 84.620143,-98.515274 c -3.641907,0.3941 -30.552687,3.392204 -41.186162,-17.514616 -10.633475,-20.90682 -5.011469,-30.5318 -4.631097,-34.56114 -2.716898,3.27767 -4.281024,4.39383 -5.31282,9.72079 -2.031651,9.72885 0.491193,19.86556 4.652704,28.70045 3.467062,6.83297 9.425786,12.315939 16.577308,15.096697 6.70559,2.499381 17.295973,2.922254 24.427023,2.573923 8.673548,-0.601133 14.716788,-6.38259 14.716788,-6.38259 0,0 -5.601837,1.972384 -9.243744,2.366486 z"
         sodipodi:nodetypes="zzccccccz" /></g></g></svg>
