<?xml version="1.0" encoding="UTF-8" standalone="no"?>
<!-- Created with Inkscape (http://www.inkscape.org/) -->

<svg
   width="32mm"
   height="32mm"
   viewBox="0 0 32 32"
   version="1.1"
   id="svg1"
   xml:space="preserve"
   inkscape:version="1.4.2 (f4327f4, 2025-05-13)"
   sodipodi:docname="icon-vdj.svg"
   xmlns:inkscape="http://www.inkscape.org/namespaces/inkscape"
   xmlns:sodipodi="http://sodipodi.sourceforge.net/DTD/sodipodi-0.dtd"
   xmlns:xlink="http://www.w3.org/1999/xlink"
   xmlns="http://www.w3.org/2000/svg"
   xmlns:svg="http://www.w3.org/2000/svg"><sodipodi:namedview
     id="namedview1"
     pagecolor="#ffffff"
     bordercolor="#000000"
     borderopacity="0.25"
     inkscape:showpageshadow="2"
     inkscape:pageopacity="0.0"
     inkscape:pagecheckerboard="true"
     inkscape:deskcolor="#d1d1d1"
     inkscape:document-units="mm"
     showgrid="false"
     inkscape:zoom="1.47"
     inkscape:cx="315.98639"
     inkscape:cy="220.06803"
     inkscape:window-width="2560"
     inkscape:window-height="1511"
     inkscape:window-x="-9"
     inkscape:window-y="-9"
     inkscape:window-maximized="1"
     inkscape:current-layer="layer1" /><defs
     id="defs1"><linearGradient
       id="linearGradient1"
       inkscape:collect="always"><stop
         style="stop-color:#ff6600;stop-opacity:1;"
         offset="0"
         id="stop1" /><stop
         style="stop-color:#de5800;stop-opacity:1;"
         offset="1"
         id="stop2" /></linearGradient><linearGradient
       inkscape:collect="always"
       xlink:href="#linearGradient1"
       id="linearGradient2"
       x1="12.192394"
       y1="12.323847"
       x2="84.513733"
       y2="80.697952"
       gradientUnits="userSpaceOnUse" /></defs><g
     inkscape:label="Laag 1"
     inkscape:groupmode="layer"
     id="layer1"
     transform="translate(-5.9003906,-4.6523438)"><path
       id="path1"
       style="fill:url(#linearGradient2)"
       sodipodi:type="inkscape:offset"
       inkscape:radius="0"
       inkscape:original="M 5.9003906 4.6523438 L 5.9003906 46.986328 L 5.9003906 89.318359 L 48.234375 89.318359 L 90.568359 89.318359 L 90.568359 46.986328 L 90.568359 4.6523438 L 48.234375 4.6523438 L 5.9003906 4.6523438 z M 45.191406 12.511719 L 48.367188 12.519531 L 51.541016 12.527344 L 54.054688 12.966797 L 56.568359 13.40625 L 58.949219 14.220703 C 63.031485 15.618308 68.146231 18.495625 69.9375 20.402344 L 70.558594 21.064453 L 70.310547 21.279297 C 70.174229 21.397695 67.591549 23.428603 64.572266 25.792969 L 59.083984 30.091797 L 57.693359 29.298828 C 56.9291 28.862134 55.351667 28.172981 54.1875 27.767578 L 52.070312 27.029297 L 48.234375 27.019531 L 44.398438 27.009766 L 42.828125 27.494141 C 35.845457 29.649212 30.588291 35.102904 28.884766 41.958984 L 28.523438 43.414062 L 28.537109 46.587891 L 28.548828 49.763672 L 29.007812 51.474609 C 30.704371 57.798239 35.362511 62.834299 41.59375 65.082031 L 43.466797 65.757812 L 45.814453 66.058594 L 48.160156 66.359375 L 50.478516 66.050781 C 56.407157 65.261826 61.392989 62.167874 64.582031 57.298828 L 65.705078 55.583984 L 66.494141 53.544922 L 67.283203 51.503906 L 67.601562 48.980469 L 67.919922 46.457031 L 67.626953 44.142578 L 67.332031 41.826172 L 66.751953 40.150391 L 66.169922 38.476562 L 66.660156 38.130859 C 66.930248 37.940902 68.401719 36.789474 69.929688 35.572266 C 71.457656 34.355057 73.799162 32.501435 75.132812 31.453125 L 77.558594 29.546875 L 77.814453 29.865234 C 78.397887 30.591367 79.78596 33.657973 80.511719 35.824219 L 81.287109 38.142578 L 81.724609 40.646484 L 82.162109 43.148438 L 82.166016 46.587891 L 82.169922 50.029297 L 81.728516 52.541016 L 81.287109 55.054688 L 80.378906 57.644531 C 79.879011 59.069014 78.931908 61.273364 78.275391 62.541016 L 77.082031 64.845703 L 75.365234 67.128906 L 73.648438 69.410156 L 71.589844 71.333984 C 68.922475 73.827047 66.442127 75.566324 63.273438 77.164062 L 60.716797 78.451172 L 58.101562 79.228516 C 56.662997 79.655881 54.598507 80.129166 53.513672 80.279297 C 50.507449 80.695328 47.559289 80.798346 44.910156 80.580078 L 42.511719 80.382812 L 40.148438 79.798828 C 35.571811 78.669641 31.258198 76.616031 27.283203 73.671875 L 25.513672 72.361328 L 23.398438 70.125 L 21.28125 67.888672 L 19.832031 65.705078 C 17.96639 62.89469 16.732512 60.411234 15.724609 57.4375 L 14.916016 55.054688 L 14.5 52.673828 L 14.083984 50.292969 L 14.082031 46.720703 L 14.078125 43.148438 L 14.384766 41.164062 C 14.553937 40.072656 15.041191 38.007596 15.466797 36.574219 L 16.240234 33.96875 L 17.316406 31.8125 C 17.908472 30.626502 19.039315 28.679179 19.828125 27.486328 L 21.261719 25.318359 L 23.275391 23.177734 L 25.289062 21.037109 L 27.568359 19.326172 L 29.845703 17.617188 L 33.021484 16.035156 L 36.195312 14.451172 L 38.484375 13.800781 C 39.743157 13.443156 41.76735 13.008211 42.982422 12.832031 L 45.191406 12.511719 z M 46.966797 36.601562 L 48.902344 36.724609 L 50.839844 36.849609 L 52.367188 37.597656 L 53.894531 38.34375 L 55.052734 39.501953 L 56.210938 40.662109 L 57.052734 42.435547 L 57.892578 44.207031 L 57.892578 46.59375 L 57.892578 48.980469 L 57.025391 50.740234 L 56.158203 52.5 L 54.708984 53.826172 L 53.259766 55.150391 L 51.818359 55.689453 L 50.378906 56.228516 L 48.710938 56.367188 L 47.042969 56.505859 L 45.597656 56.101562 L 44.150391 55.699219 L 42.898438 54.894531 C 42.210106 54.45283 41.210788 53.609558 40.677734 53.019531 L 39.708984 51.947266 L 39.042969 50.458984 L 38.376953 48.970703 L 38.246094 47.210938 L 38.113281 45.451172 L 38.675781 43.638672 L 39.238281 41.826172 L 40.177734 40.554688 L 41.115234 39.285156 L 42.691406 38.267578 L 44.265625 37.248047 L 45.617188 36.925781 L 46.966797 36.601562 z "
       d="M 5.9003906,4.6523438 V 46.986328 89.318359 H 48.234375 90.568359 V 46.986328 4.6523438 H 48.234375 Z m 39.2910154,7.8593752 3.175782,0.0078 3.173828,0.0078 2.513672,0.439453 2.513671,0.439453 2.38086,0.814453 c 4.082266,1.397605 9.197012,4.274922 10.988281,6.181641 l 0.621094,0.662109 -0.248047,0.214844 c -0.136318,0.118398 -2.718998,2.149306 -5.738281,4.513672 l -5.488282,4.298828 -1.390625,-0.792969 C 56.9291,28.862134 55.351667,28.172981 54.1875,27.767578 l -2.117188,-0.738281 -3.835937,-0.0098 -3.835937,-0.0098 -1.570313,0.484375 c -6.982668,2.155071 -12.239834,7.608763 -13.943359,14.464843 l -0.361328,1.455078 0.01367,3.173829 0.01172,3.175781 0.458984,1.710937 c 1.696559,6.32363 6.354699,11.35969 12.585938,13.607422 l 1.873047,0.675781 2.347656,0.300782 2.345703,0.300781 2.31836,-0.308594 c 5.928641,-0.788955 10.914473,-3.882907 14.103515,-8.751953 l 1.123047,-1.714844 0.789063,-2.039062 0.789062,-2.041016 0.318359,-2.523437 0.31836,-2.523438 -0.292969,-2.314453 -0.294922,-2.316406 -0.580078,-1.675781 -0.582031,-1.673829 0.490234,-0.345703 c 0.270092,-0.189957 1.741563,-1.341385 3.269532,-2.558593 1.527968,-1.217209 3.869474,-3.070831 5.203124,-4.119141 l 2.425782,-1.90625 0.255859,0.318359 c 0.583434,0.726133 1.971507,3.792739 2.697266,5.958985 l 0.77539,2.318359 0.4375,2.503906 0.4375,2.501954 0.0039,3.439453 0.0039,3.441406 -0.441406,2.511719 -0.441407,2.513672 -0.908203,2.589843 c -0.499895,1.424483 -1.446998,3.628833 -2.103515,4.896485 l -1.19336,2.304687 -1.716797,2.283203 -1.716796,2.28125 -2.058594,1.923828 c -2.667369,2.493063 -5.147717,4.23234 -8.316406,5.830078 l -2.556641,1.28711 -2.615235,0.777344 c -1.438565,0.427365 -3.503055,0.90065 -4.58789,1.050781 -3.006223,0.416031 -5.954383,0.519049 -8.603516,0.300781 L 42.511719,80.382812 40.148438,79.798828 C 35.571811,78.669641 31.258198,76.616031 27.283203,73.671875 L 25.513672,72.361328 23.398438,70.125 21.28125,67.888672 19.832031,65.705078 C 17.96639,62.89469 16.732512,60.411234 15.724609,57.4375 L 14.916016,55.054688 14.5,52.673828 l -0.416016,-2.380859 -0.002,-3.572266 -0.0039,-3.572265 0.306641,-1.984376 c 0.169171,-1.091406 0.656425,-3.156466 1.082031,-4.589843 l 0.773437,-2.605469 1.076172,-2.15625 c 0.592066,-1.185998 1.722909,-3.133321 2.511719,-4.326172 l 1.433594,-2.167969 2.013672,-2.140625 2.013671,-2.140625 2.279297,-1.710937 2.277344,-1.708984 3.175781,-1.582032 3.173828,-1.583984 2.289063,-0.650391 c 1.258782,-0.357625 3.282975,-0.79257 4.498047,-0.96875 z m 1.775391,24.089843 1.935547,0.123047 1.9375,0.125 1.527344,0.748047 1.527343,0.746094 1.158203,1.158203 1.158204,1.160156 0.841796,1.773438 0.839844,1.771484 v 2.386719 2.386719 L 57.025391,50.740234 56.158203,52.5 l -1.449219,1.326172 -1.449218,1.324219 -1.441407,0.539062 -1.439453,0.539063 -1.667968,0.138672 -1.667969,0.138671 -1.445313,-0.404297 -1.447265,-0.402343 -1.251953,-0.804688 c -0.688332,-0.441701 -1.68765,-1.284973 -2.220704,-1.875 l -0.96875,-1.072265 -0.666015,-1.488282 -0.666016,-1.488281 -0.130859,-1.759765 -0.132813,-1.759766 0.5625,-1.8125 0.5625,-1.8125 0.939453,-1.271484 0.9375,-1.269532 1.576172,-1.017578 1.574219,-1.019531 1.351563,-0.322266 z"
       transform="matrix(0.33070358,0,0,0.33069939,5.9491103,5.1138165)" /></g></svg>
