<?xml version="1.0" encoding="UTF-8" standalone="no"?>
<svg
   xmlns:dc="http://purl.org/dc/elements/1.1/"
   xmlns:cc="http://creativecommons.org/ns#"
   xmlns:rdf="http://www.w3.org/1999/02/22-rdf-syntax-ns#"
   xmlns:svg="http://www.w3.org/2000/svg"
   xmlns="http://www.w3.org/2000/svg"
   xmlns:sodipodi="http://sodipodi.sourceforge.net/DTD/sodipodi-0.dtd"
   xmlns:inkscape="http://www.inkscape.org/namespaces/inkscape"
   height="32"
   width="32"
   xml:space="preserve"
   enable-background="new 0 0 157.21 176.99"
   viewBox="0 0 31.999999 31.999999"
   y="0px"
   x="0px"
   id="Rekordbox_Logo_Vector_1_"
   version="1.1"
   inkscape:version="0.92.4 (unknown)"
   sodipodi:docname="ic_library_rekordbox.svg"><sodipodi:namedview
     pagecolor="#ffffff"
     bordercolor="#666666"
     borderopacity="1"
     objecttolerance="10"
     gridtolerance="10"
     guidetolerance="10"
     inkscape:pageopacity="0"
     inkscape:pageshadow="2"
     inkscape:window-width="1920"
     inkscape:window-height="1146"
     id="namedview4141"
     showgrid="false"
     inkscape:zoom="6.2734376"
     inkscape:cx="81.930878"
     inkscape:cy="45.564688"
     inkscape:window-x="0"
     inkscape:window-y="27"
     inkscape:window-maximized="1"
     inkscape:current-layer="Rekordbox_Logo_Vector_1_" /><metadata
     id="metadata12"><rdf:RDF><cc:Work
         rdf:about=""><dc:format>image/svg+xml</dc:format><dc:type
           rdf:resource="http://purl.org/dc/dcmitype/StillImage" /><dc:title /></cc:Work></rdf:RDF></metadata><defs
     id="defs10" /><path
     style="fill:#ff6600;fill-opacity:1;stroke:none;stroke-width:0.10000001"
     inkscape:connector-curvature="0"
     id="path80"
     d="M 7.134341,30.684072 C 6.1173805,30.310162 4.6306702,29.390276 4.0699899,28.778124 L 3.8895284,28.586477 4.3982766,28.136012 C 4.669884,27.883911 5.6005198,27.044964 6.4622299,26.2625 l 1.5524406,-1.406509 0.3045176,0.161373 c 0.8225987,0.468932 1.9404219,0.239234 2.5057889,-0.499255 0.358534,-0.467063 0.484304,-1.321502 0.287463,-1.923861 -0.196833,-0.602359 -0.515017,-1.03801 -1.017926,-1.38552 C 9.1327961,20.555057 7.9212757,20.735103 7.2965777,21.625166 6.9752745,22.072952 6.8522265,23.012838 7.0463374,23.52975 l 0.1321734,0.328073 -2.0115364,1.763268 c -1.0974539,0.972564 -2.041863,1.792209 -2.081851,1.828029 -0.206797,0.169436 -1.0592485,-1.443423 -1.419815,-2.693603 -0.39085,-1.37424 -0.4360234,-2.121244 -0.1956194,-3.56 0.1589116,-1.001897 0.2431005,-1.302306 0.491394,-1.821794 0.5752096,-1.204319 1.3142932,-2.066769 2.433701,-2.814672 3.7042783,-2.483387 9.135008,-0.547513 11.200451,3.979383 0.663689,1.470819 0.896004,2.929065 0.710678,4.496011 -0.396931,3.341995 -2.746373,5.703274 -6.043197,6.05336 -0.8214453,0.08371 -2.3277507,-0.108465 -3.1283705,-0.403733 z" /><path
     style="fill:#ff6600;fill-opacity:1;stroke:none;stroke-width:0.10000001"
     inkscape:connector-curvature="0"
     id="path82"
     d="m 24.371341,31.345838 c -2.337061,-0.917467 -4.29042,-3.215752 -5.045935,-5.917358 -0.968834,-3.459706 0.330784,-6.710367 2.99795,-7.514138 0.814623,-0.246364 1.451353,-0.241964 2.509725,-0.01409 1.017028,0.220932 1.69498,0.538204 2.576756,1.212509 2.442796,1.861594 3.849995,5.088568 3.506989,8.006091 -0.09681,0.83378 -0.422586,2.071275 -0.538349,2.051933 -0.01654,-0.0026 -0.792137,-0.803826 -1.716511,-1.782737 l -1.675173,-1.77583 0.0236,-0.446529 c 0.03471,-0.614666 -0.152494,-1.172918 -0.564359,-1.709209 -0.418755,-0.545945 -0.73979,-0.761079 -1.277251,-0.850884 -0.487853,-0.08156 -0.94135,0.08919 -1.2268,0.474977 -0.295102,0.392667 -0.365733,1.222321 -0.145478,1.837089 0.388188,1.135806 1.500104,1.85707 2.363002,1.525278 l 0.300503,-0.119767 1.617302,1.715158 c 0.888565,0.938923 1.658635,1.773062 1.715118,1.841997 0.08268,0.115802 0.0454,0.186077 -0.246916,0.511212 -1.188559,1.31432 -3.284974,1.70349 -5.174193,0.954337 z" /><path
     style="fill:#ff6600;fill-opacity:1;stroke:none;stroke-width:0.10000001"
     inkscape:connector-curvature="0"
     id="path84"
     d="m 17.744749,21.713556 c -0.581643,-3.233519 -3.15636,-6.035111 -6.25425,-6.824723 -0.69317,-0.17532 -0.69317,-0.17532 -0.278333,-0.165501 1.769608,0.04066 2.709641,-0.193206 3.733957,-0.931506 1.244893,-0.888434 1.884915,-2.175417 1.931095,-3.8761082 l 0.0043,-0.3817634 0.09215,0.4658744 c 0.214523,1.1577842 0.590404,2.0620492 1.292866,3.0973712 1.151483,1.705326 2.701484,2.856763 4.552207,3.378491 l 0.567753,0.162864 -0.67807,-0.0113 c -0.908237,-0.0068 -1.56984,0.137175 -2.257714,0.489706 -0.865697,0.450319 -1.585454,1.248001 -2.043437,2.259424 -0.256579,0.569096 -0.536988,2.094658 -0.493132,2.696946 0.04935,0.620221 -0.02085,0.480989 -0.169377,-0.359773 z" /><path
     style="fill:#ff6600;fill-opacity:1;stroke:none;stroke-width:0.10000001"
     inkscape:connector-curvature="0"
     id="path86"
     d="M 8.1769755,12.28678 C 7.3763386,12.042509 6.925752,11.839725 6.16103,11.380465 3.9757324,10.063373 2.5073845,8.0671136 2.1292733,5.904546 1.9986489,5.16026 2.1301345,3.7628111 2.385396,3.1000022 2.5882048,2.5984125 3.1067289,1.8351013 3.23764,1.8654776 c 0.049608,0.00867 0.9217225,0.740479 1.9398538,1.6160632 L 7.0263906,5.0824026 6.9807479,5.4572583 C 6.8272013,6.8340279 8.4667269,8.1619208 9.794112,7.7462424 10.134569,7.6416374 10.526132,7.2820915 10.647543,6.962399 10.902814,6.2485947 10.39193,5.1857794 9.5624493,4.7071938 9.0595246,4.4106789 8.3346434,4.2725581 7.9569627,4.3964332 L 7.6881803,4.4790298 5.9219222,2.9939644 C 4.9451125,2.1762832 4.090931,1.4385858 4.0124013,1.3489716 3.8677448,1.1973145 3.8774092,1.1904224 4.2468627,0.96317066 4.7776067,0.63537331 5.6832063,0.3532156 6.4895025,0.25845163 7.512181,0.14035668 9.1783103,0.4442424 10.284808,0.94361876 c 4.29232,1.93263804 6.303925,6.68002484 4.133358,9.75116324 -0.412329,0.585564 -1.489018,1.332113 -2.306408,1.595013 -1.133041,0.371644 -2.6959291,0.365487 -3.9347856,-0.0026 z" /><path
     style="fill:#ff6600;fill-opacity:1;stroke:none;stroke-width:0.10000001"
     inkscape:connector-curvature="0"
     id="path88"
     d="m 22.902149,14.704729 c -3.060519,-1.165855 -5.349771,-4.404209 -5.23276,-7.3935017 0.08355,-2.0769245 1.524373,-3.5275897 3.536574,-3.5653475 0.596776,-0.010838 1.885284,0.2640198 2.46127,0.530253 0.946647,0.4386578 2.154963,1.3460232 2.778982,2.0877581 l 0.269996,0.3170999 -1.286166,0.728541 -1.293055,0.7188858 -0.329302,-0.2165125 c -0.37477,-0.24961 -1.039009,-0.3945949 -1.32848,-0.2899698 -0.270169,0.090852 -0.599722,0.4862598 -0.64946,0.7839301 -0.06632,0.396895 0.18009,1.1095376 0.532735,1.5424334 0.527582,0.6576242 1.183502,0.9032232 1.908511,0.7353792 0.414879,-0.09217 0.654929,-0.664024 0.547686,-1.2939157 l -0.07563,-0.46311 1.218643,-0.7313226 c 0.669976,-0.3980238 1.250328,-0.7175337 1.291679,-0.7106276 0.148838,0.024889 0.717525,1.2503376 0.943253,1.9850104 0.630341,2.1282225 0.176136,3.9817265 -1.220392,4.9638155 -1.040852,0.735534 -2.595514,0.832744 -4.074103,0.271201 z" /><path
     style="fill:#fcfcfc;stroke:none;stroke-width:0.10000001"
     inkscape:connector-curvature="0"
     id="path141"
     d="m 18.328461,13.286041 -0.194197,-0.31293 0.2328,0.285378 c 0.117072,0.164062 0.221765,0.300548 0.219,0.317084 -0.01099,0.06615 -0.06753,-0.0026 -0.257603,-0.289532 z" /><path
     style="fill:#fcfcfc;stroke:none;stroke-width:0.10000001"
     inkscape:connector-curvature="0"
     id="path143"
     d="M 3.3491557,8.8282363 3.1549581,8.5153057 3.3877575,8.800685 C 3.5971302,9.0736612 3.6439654,9.1494797 3.5778122,9.1384286 3.5612715,9.1357954 3.4662377,8.9922855 3.3491557,8.8282363 Z" /></svg>
