<?xml version="1.0" encoding="UTF-8" standalone="no"?>
<!-- Generator: Adobe Illustrator 16.0.0, SVG Export Plug-In . SVG Version: 6.00 Build 0)  -->

<svg
   xmlns:dc="http://purl.org/dc/elements/1.1/"
   xmlns:cc="http://creativecommons.org/ns#"
   xmlns:rdf="http://www.w3.org/1999/02/22-rdf-syntax-ns#"
   xmlns:svg="http://www.w3.org/2000/svg"
   xmlns="http://www.w3.org/2000/svg"
   xmlns:sodipodi="http://sodipodi.sourceforge.net/DTD/sodipodi-0.dtd"
   xmlns:inkscape="http://www.inkscape.org/namespaces/inkscape"
   version="1.1"
   id="Capa_1"
   x="0px"
   y="0px"
   width="45.934px"
   height="45.934px"
   viewBox="0 0 45.934 45.934"
   style="enable-background:new 0 0 45.934 45.934;"
   xml:space="preserve"
   sodipodi:docname="ic_library_tag-search-filter.svg"
   inkscape:version="0.92.4 (unknown)"><metadata
   id="metadata47"><rdf:RDF><cc:Work
       rdf:about=""><dc:format>image/svg+xml</dc:format><dc:type
         rdf:resource="http://purl.org/dc/dcmitype/StillImage" /><dc:title></dc:title><cc:license
         rdf:resource="https://profile.flaticon.com/license/free" /><dc:creator><cc:Agent><dc:title>Icon made by Freepik from www.flaticon.com</dc:title></cc:Agent></dc:creator><dc:source>https://www.flaticon.com/free-icon/tag-search-filter_62740</dc:source></cc:Work></rdf:RDF></metadata><defs
   id="defs45" /><sodipodi:namedview
   pagecolor="#ffffff"
   bordercolor="#666666"
   borderopacity="1"
   objecttolerance="10"
   gridtolerance="10"
   guidetolerance="10"
   inkscape:pageopacity="0"
   inkscape:pageshadow="2"
   inkscape:window-width="1920"
   inkscape:window-height="1146"
   id="namedview43"
   showgrid="false"
   inkscape:zoom="5.1378066"
   inkscape:cx="-93.814351"
   inkscape:cy="21.409915"
   inkscape:window-x="0"
   inkscape:window-y="27"
   inkscape:window-maximized="1"
   inkscape:current-layer="g8" />
<g
   id="g10">
	<g
   id="g8">
		<path
   d="M10.634,24.838c0-4.133,1.61-8.021,4.533-10.941c1.576-1.576,3.433-2.771,5.458-3.536    c-0.111-0.841-0.542-1.612-1.214-2.147l-7.049-5.604c-1.199-0.954-2.898-0.954-4.098,0L1.229,8.213C0.443,8.838,0,9.787,0,10.791    v26.104c0,1.817,1.446,3.245,3.264,3.245h14.097c1.011,0,1.916-0.434,2.52-1.15c-1.736-0.763-3.333-1.839-4.714-3.22    C12.245,32.847,10.634,28.973,10.634,24.838z M7.524,9.696c0-1.54,1.249-2.789,2.789-2.789s2.789,1.249,2.789,2.789    c0,1.541-1.249,2.789-2.789,2.789S7.524,11.237,7.524,9.696z"
   id="path2" />
		<path
   d="M45.025,38.743l-7.264-7.264c1.145-2.001,1.754-4.274,1.754-6.642c0-3.581-1.395-6.947-3.927-9.479    s-5.897-3.927-9.479-3.927c-3.582,0-6.948,1.395-9.479,3.928c-2.532,2.531-3.927,5.897-3.927,9.479s1.394,6.947,3.927,9.479    c2.532,2.532,5.898,3.927,9.479,3.927c2.677,0,5.233-0.779,7.412-2.229l7.115,7.116c0.606,0.605,1.399,0.909,2.194,0.909    c0.794,0,1.588-0.303,2.194-0.909C46.236,41.919,46.236,39.955,45.025,38.743z M33.469,32.197    c-1.966,1.966-4.58,3.049-7.359,3.049c-2.78,0-5.395-1.083-7.359-3.049c-1.966-1.965-3.048-4.579-3.048-7.359    c0-2.779,1.083-5.394,3.048-7.358c1.966-1.965,4.58-3.048,7.359-3.048s5.394,1.083,7.359,3.048    C37.525,21.537,37.525,28.141,33.469,32.197z"
   id="path4"
   style="fill:#ff6600;fill-opacity:1;stroke-width:1;stroke-miterlimit:4;stroke-dasharray:none;stroke:#e25a00;stroke-opacity:1" />
		<path
   d="M20.212,18.942c-1.575,1.575-2.443,3.669-2.443,5.896c0,2.228,0.868,4.322,2.443,5.896    c1.575,1.575,3.669,2.441,5.896,2.441c0.119,0,0.238-0.003,0.354-0.008V16.507c-0.116-0.005-0.235-0.008-0.354-0.008    C23.882,16.499,21.787,17.366,20.212,18.942z"
   id="path6"
   style="stroke:#e25a00;stroke-opacity:1;fill:#ff6600;fill-opacity:1" />
	<path
   style="fill:#ff6600;stroke:#e25a00;stroke-width:0.99999994px;stroke-linecap:butt;stroke-linejoin:miter;stroke-opacity:1;fill-opacity:1"
   d="M 2.4134813,39.911605 C 1.5757909,39.668537 0.70248272,38.881313 0.3458361,38.047777 0.12679235,37.535839 0.07785423,34.930836 0.07785423,23.782966 c 0,-13.179745 0.01288219,-13.663747 0.38298246,-14.3892039 C 0.73745656,8.8515424 1.8832437,7.8154068 4.5865011,5.6629231 8.5329044,2.5205776 9.3567114,1.985283 10.24631,1.985283 c 1.005434,0 1.850334,0.5330173 5.688216,3.5884933 3.393599,2.701767 4.578947,3.8639246 4.578457,4.4888837 -8.4e-5,0.107049 -0.746472,0.575815 -1.658641,1.041701 -2.982379,1.523238 -5.899802,4.728263 -7.152608,7.857718 -1.484623,3.708521 -1.467716,8.246063 0.0442,11.861788 1.235125,2.953794 3.728993,5.790246 6.535179,7.432921 l 1.471936,0.861638 -0.738383,0.459056 -0.738382,0.459058 -7.590787,0.03637 C 6.0104785,40.09531 2.8330372,40.03335 2.4134843,39.911607 Z M 11.845867,12.110932 c 0.933535,-0.576957 1.347917,-1.487614 1.23093,-2.7051253 C 12.813563,6.6662754 9.30419,5.8954924 7.8622262,8.2605016 7.1714028,9.3935425 7.4284869,10.888829 8.4773502,11.838266 c 0.5880202,0.532279 0.8564283,0.623293 1.8932168,0.641973 0.532587,0.0096 1.086632,-0.129097 1.4753,-0.369307 z"
   id="path883"
   inkscape:connector-curvature="0" /></g>
</g>
<g
   id="g12">
</g>
<g
   id="g14">
</g>
<g
   id="g16">
</g>
<g
   id="g18">
</g>
<g
   id="g20">
</g>
<g
   id="g22">
</g>
<g
   id="g24">
</g>
<g
   id="g26">
</g>
<g
   id="g28">
</g>
<g
   id="g30">
</g>
<g
   id="g32">
</g>
<g
   id="g34">
</g>
<g
   id="g36">
</g>
<g
   id="g38">
</g>
<g
   id="g40">
</g>
</svg>
