<?xml version="1.0" encoding="UTF-8" standalone="no"?>
<svg
   xmlns:dc="http://purl.org/dc/elements/1.1/"
   xmlns:cc="http://creativecommons.org/ns#"
   xmlns:rdf="http://www.w3.org/1999/02/22-rdf-syntax-ns#"
   xmlns:svg="http://www.w3.org/2000/svg"
   xmlns="http://www.w3.org/2000/svg"
   version="1.1"
   id="Tracksuggestion_Logo_Vector_1_"
   x="0px"
   y="0px"
   viewBox="0 0 31.999999 31.999999"
   enable-background="new 0 0 157.21 176.99"
   xml:space="preserve"
   width="32"
   height="32"><metadata
     id="metadata12"><rdf:RDF><cc:Work
         rdf:about=""><dc:format>image/svg+xml</dc:format><dc:type
           rdf:resource="http://purl.org/dc/dcmitype/StillImage" /><dc:title></dc:title></cc:Work></rdf:RDF></metadata><defs
     id="defs10" /><g
     transform="matrix(0.69636487,0,0,0.69636487,17.09885,110.06171)"
     id="g6070"><path
       style="fill:#ff6600;fill-opacity:1;fill-rule:nonzero;stroke:none;stroke-width:0.02336039"
       d="M -1.691 -154.865 C -12.762 -154.865 -21.736 -145.889 -21.736 -134.818 C -21.736 -123.748 -12.762 -114.773 -1.691 -114.773 C 9.379 -114.773 18.354 -123.748 18.354 -134.818 C 18.354 -145.889 9.379 -154.865 -1.691 -154.865 Z M -1.691 -151.98 C -0.818 -151.98 5.029 -124.41 5.029 -124.41 C 5.029 -123.737 4.484 -123.191 3.811 -123.191 C 3.229 -123.191 2.745 -123.6 2.623 -124.145 C 2.645 -124.241 2.656 -124.34 2.656 -124.443 L 2.585 -126.036 C 2.585 -126.8 -0.109 -127.514 -0.109 -126.75 L -0.109 -125.596 L -0.109 -124.443 L -0.109 -119.238 C -0.109 -118.365 -0.818 -117.658 -1.691 -117.658 C -2.564 -117.658 -3.271 -118.365 -3.271 -119.238 L -3.271 -124.443 L -3.271 -125.596 L -3.271 -126.75 C -3.271 -127.514 -6.039 -125.596 -6.039 -125.596 L -6.039 -124.443 L -6.039 -124.41 C -6.039 -123.737 -6.585 -123.191 -7.258 -123.191 C -7.931 -123.191 -8.477 -123.737 -8.477 -124.41 C -8.477 -124.41 -2.564 -151.98 -1.691 -151.98 Z"
       id="path22" /></g></svg>
