<?xml version="1.0" encoding="UTF-8" standalone="no"?>
<svg
   xmlns:dc="http://purl.org/dc/elements/1.1/"
   xmlns:cc="http://creativecommons.org/ns#"
   xmlns:rdf="http://www.w3.org/1999/02/22-rdf-syntax-ns#"
   xmlns:svg="http://www.w3.org/2000/svg"
   xmlns="http://www.w3.org/2000/svg"
   xmlns:sodipodi="http://sodipodi.sourceforge.net/DTD/sodipodi-0.dtd"
   xmlns:inkscape="http://www.inkscape.org/namespaces/inkscape"
   height="32"
   width="32"
   xml:space="preserve"
   enable-background="new 0 0 157.21 176.99"
   viewBox="0 0 31.999999 31.999999"
   y="0px"
   x="0px"
   id="Rekordbox_Logo_Vector_1_"
   version="1.1"
   inkscape:version="0.91 r13725"
   sodipodi:docname="ic_library_rekordbox.svg"><sodipodi:namedview
     pagecolor="#ffffff"
     bordercolor="#666666"
     borderopacity="1"
     objecttolerance="10"
     gridtolerance="10"
     guidetolerance="10"
     inkscape:pageopacity="0"
     inkscape:pageshadow="2"
     inkscape:window-width="1398"
     inkscape:window-height="862"
     id="namedview4141"
     showgrid="false"
     inkscape:zoom="17.743961"
     inkscape:cx="23.147334"
     inkscape:cy="14.390602"
     inkscape:window-x="128"
     inkscape:window-y="56"
     inkscape:window-maximized="0"
     inkscape:current-layer="Rekordbox_Logo_Vector_1_" /><metadata
     id="metadata12"><rdf:RDF><cc:Work
         rdf:about=""><dc:format>image/svg+xml</dc:format><dc:type
           rdf:resource="http://purl.org/dc/dcmitype/StillImage" /><dc:title /></cc:Work></rdf:RDF></metadata><defs
     id="defs10" /><path
     style="fill:#ff6600;fill-opacity:1;stroke:none;stroke-width:1;stroke-linejoin:round;stroke-miterlimit:4;stroke-dasharray:none;stroke-opacity:1"
     d="M 16.150391 1.5527344 L 3.5859375 8.8867188 L 3.65625 23.433594 L 16.289062 30.646484 L 28.851562 23.3125 L 28.78125 8.765625 L 16.150391 1.5527344 z M 16.230469 6.2441406 A 10.031586 9.7498009 0 0 1 24.371094 10.318359 L 20.119141 12.90625 A 5.1285076 5.0157929 0 0 0 16.173828 11.091797 A 5.1285076 5.0157929 0 0 0 12.082031 13.091797 L 7.8125 10.708984 A 10.031586 9.7498009 0 0 1 16.230469 6.2441406 z M 25.279297 11.810547 A 10.031586 9.7498009 0 0 1 26.261719 15.994141 A 10.031586 9.7498009 0 0 1 17.019531 25.708984 L 17.019531 21.048828 A 5.1285076 5.0157929 0 0 0 21.302734 16.107422 A 5.1285076 5.0157929 0 0 0 20.996094 14.416016 L 25.279297 11.810547 z M 6.953125 12.296875 L 11.255859 14.695312 A 5.1285076 5.0157929 0 0 0 11.046875 16.107422 A 5.1285076 5.0157929 0 0 0 15.273438 21.042969 L 15.273438 25.697266 A 10.031586 9.7498009 0 0 1 6.1992188 15.994141 A 10.031586 9.7498009 0 0 1 6.953125 12.296875 z "
     id="path4145" /></svg>
