<?xml version="1.0" encoding="UTF-8" standalone="no"?>
<!-- Created with Inkscape (http://www.inkscape.org/) -->

<svg
   xmlns:dc="http://purl.org/dc/elements/1.1/"
   xmlns:cc="http://creativecommons.org/ns#"
   xmlns:rdf="http://www.w3.org/1999/02/22-rdf-syntax-ns#"
   xmlns:svg="http://www.w3.org/2000/svg"
   xmlns="http://www.w3.org/2000/svg"
   xmlns:xlink="http://www.w3.org/1999/xlink"
   xmlns:sodipodi="http://sodipodi.sourceforge.net/DTD/sodipodi-0.dtd"
   xmlns:inkscape="http://www.inkscape.org/namespaces/inkscape"
   width="108"
   height="30"
   viewBox="0 0 108 30"
   id="svg2"
   version="1.1"
   inkscape:version="0.91 r13725"
   sodipodi:docname="background_library_fonts.svg">
  <defs
     id="defs4">
    <inkscape:perspective
       id="perspective2840"
       inkscape:persp3d-origin="372.04724 : 350.78739 : 1"
       inkscape:vp_z="744.09448 : 526.18109 : 1"
       inkscape:vp_y="0 : 1000 : 0"
       inkscape:vp_x="0 : 526.18109 : 1"
       sodipodi:type="inkscape:persp3d" />
    <inkscape:perspective
       id="perspective2840-1"
       inkscape:persp3d-origin="372.04724 : 350.78739 : 1"
       inkscape:vp_z="744.09448 : 526.18109 : 1"
       inkscape:vp_y="0 : 1000 : 0"
       inkscape:vp_x="0 : 526.18109 : 1"
       sodipodi:type="inkscape:persp3d" />
    <pattern
       y="0"
       x="0"
       height="6"
       width="6"
       patternUnits="userSpaceOnUse"
       id="EMFhbasepattern" />
    <pattern
       y="0"
       x="0"
       height="6"
       width="6"
       patternUnits="userSpaceOnUse"
       id="EMFhbasepattern-4" />
    <radialGradient
       inkscape:collect="always"
       xlink:href="#linearGradient5282"
       id="radialGradient4196-1"
       cx="767.797"
       cy="229.9444"
       fx="767.797"
       fy="229.94438"
       r="32.034878"
       gradientTransform="matrix(-3.1279429e-5,0.45767901,-65.669212,-0.00424482,15154.469,686.93379)"
       gradientUnits="userSpaceOnUse" />
    <linearGradient
       id="linearGradient5282"
       inkscape:collect="always">
      <stop
         id="stop5284"
         offset="0"
         style="stop-color:#1e1e1e;stop-opacity:1" />
      <stop
         id="stop5286"
         offset="1"
         style="stop-color:#000000;stop-opacity:1" />
    </linearGradient>
    <radialGradient
       inkscape:collect="always"
       xlink:href="#linearGradient4201"
       id="radialGradient4176"
       cx="50.15028"
       cy="1029.6179"
       fx="50.15028"
       fy="1029.6179"
       r="50.169392"
       gradientTransform="matrix(3.7945939,-1.2593561e-8,0,0.24077423,-136.37245,788.9476)"
       gradientUnits="userSpaceOnUse" />
    <linearGradient
       inkscape:collect="always"
       id="linearGradient4201">
      <stop
         style="stop-color:#ffffff;stop-opacity:1"
         offset="0"
         id="stop4203" />
      <stop
         style="stop-color:#333333;stop-opacity:1"
         offset="1"
         id="stop4205" />
    </linearGradient>
  </defs>
  <sodipodi:namedview
     id="base"
     pagecolor="#ffffff"
     bordercolor="#666666"
     borderopacity="1.0"
     inkscape:pageopacity="0.0"
     inkscape:pageshadow="2"
     inkscape:zoom="5.6538097"
     inkscape:cx="60.03053"
     inkscape:cy="14.204867"
     inkscape:document-units="px"
     inkscape:current-layer="layer1"
     showgrid="false"
     units="px"
     inkscape:window-width="1920"
     inkscape:window-height="1028"
     inkscape:window-x="-8"
     inkscape:window-y="-8"
     inkscape:window-maximized="1"
     objecttolerance="10"
     guidetolerance="9" />
  <metadata
     id="metadata7">
    <rdf:RDF>
      <cc:Work
         rdf:about="">
        <dc:format>image/svg+xml</dc:format>
        <dc:type
           rdf:resource="http://purl.org/dc/dcmitype/StillImage" />
        <dc:title></dc:title>
        <dc:creator>
          <cc:Agent>
            <dc:title>Jorge Rosa</dc:title>
          </cc:Agent>
        </dc:creator>
        <dc:description>Email: jorge.bigarte@gmail.com
Site:https://sites.google.com/site/jorgerosaportfolio</dc:description>
      </cc:Work>
    </rdf:RDF>
  </metadata>
  <g
     inkscape:label="Layer 1"
     inkscape:groupmode="layer"
     id="layer1"
     transform="translate(0,-1022.3622)">
    <path
       inkscape:connector-curvature="0"
       id="rect4183-9-9"
       d="m 108,1022.3622 0,30 -108.00000027500003,0 0,-29.9999 z"
       style="opacity:1;fill:url(#radialGradient4196-1);fill-opacity:1;stroke:none;stroke-width:0.79799998;stroke-linecap:round;stroke-linejoin:round;stroke-miterlimit:4;stroke-dasharray:none;stroke-dashoffset:0;stroke-opacity:1" />
    <g
       id="g4218"
       transform="translate(0.82377056,-30.421965)">
      <g
         id="text4158-4"
         style="font-style:normal;font-variant:normal;font-weight:normal;font-stretch:normal;font-size:8.04969311px;line-height:100%;font-family:'Estrangelo Edessa';-inkscape-font-specification:'Estrangelo Edessa, Normal';text-align:start;letter-spacing:0px;word-spacing:0px;writing-mode:lr-tb;text-anchor:start;fill:#000000;fill-opacity:1;stroke:none;stroke-width:1px;stroke-linecap:butt;stroke-linejoin:miter;stroke-opacity:1"
         transform="translate(0.013146,0.62911801)">
        <path
           style="fill:#000000"
           id="path4163-7"
           d="m 12.918051,1065.1476 -1.768731,0 0,1.529 1.776592,0 0,0.6524 -1.776592,0 0,2.2444 -0.76645,0 0,-5.0861 2.535181,0 0,0.6603 z"
           inkscape:connector-curvature="0" />
        <path
           style="fill:#000000"
           id="path4165-7"
           d="m 17.768306,1067.046 q 0,-0.4638 -0.102193,-0.8293 -0.102194,-0.3695 -0.30265,-0.6249 -0.200456,-0.2555 -0.495245,-0.3892 -0.294788,-0.1375 -0.679979,-0.1375 -0.369468,0 -0.672118,0.1454 -0.298719,0.1415 -0.510966,0.4009 -0.212248,0.2594 -0.330164,0.625 -0.113985,0.3616 -0.113985,0.8018 0,0.4402 0.110055,0.8018 0.110054,0.3616 0.314441,0.6171 0.208317,0.2555 0.499175,0.397 0.294789,0.1415 0.656396,0.1415 0.385191,0 0.68784,-0.1297 0.30265,-0.1337 0.510967,-0.3813 0.208317,-0.2515 0.318372,-0.6131 0.110054,-0.3656 0.110054,-0.8255 z m 0.793964,-0.082 q 0,0.6171 -0.169012,1.1163 -0.165082,0.4952 -0.479523,0.845 -0.310511,0.3459 -0.758589,0.5346 -0.448079,0.1847 -1.014073,0.1847 -0.542411,0 -0.982628,-0.1808 -0.440218,-0.1847 -0.750729,-0.5188 -0.31051,-0.338 -0.479522,-0.8097 -0.169012,-0.4717 -0.169012,-1.0495 0,-0.6053 0.165081,-1.0966 0.169012,-0.4952 0.487384,-0.8411 0.318372,-0.3498 0.774311,-0.5385 0.45987,-0.1886 1.041586,-0.1886 0.53062,0 0.962976,0.1847 0.432357,0.1847 0.735007,0.5228 0.30658,0.334 0.471661,0.8018 0.165082,0.4677 0.165082,1.0337 z"
           inkscape:connector-curvature="0" />
        <path
           style="fill:#000000"
           id="path4167-3"
           d="m 24.135739,1069.5734 -0.758589,0 -2.488015,-3.3017 q -0.02751,-0.031 -0.09433,-0.1257 -0.06289,-0.098 -0.137568,-0.2123 -0.07075,-0.114 -0.137568,-0.224 -0.06682,-0.1101 -0.09826,-0.169 l 0,4.0327 -0.715353,0 0,-5.0861 0.813616,0 2.374031,3.1876 q 0.05896,0.083 0.137568,0.2005 0.07861,0.114 0.15329,0.2358 0.07468,0.1179 0.137568,0.228 0.06682,0.1061 0.102193,0.1729 l 0,-4.0248 0.711423,0 0,5.0861 z"
           inkscape:connector-curvature="0" />
        <path
           style="fill:#000000"
           id="path4169-3"
           d="m 28.486818,1065.1476 -1.281347,0 0,4.4258 -0.770381,0 0,-4.4258 -1.289209,0 0,-0.6603 3.340937,0 0,0.6603 z"
           inkscape:connector-curvature="0" />
        <path
           style="fill:#000000"
           id="path4171-8"
           d="m 33.985607,1068.1505 q 0,0.3105 -0.110054,0.5857 -0.106124,0.2712 -0.318372,0.4756 -0.208317,0.2004 -0.522758,0.3183 -0.310511,0.114 -0.723215,0.114 -0.200456,0 -0.400912,-0.027 -0.196526,-0.024 -0.377329,-0.071 -0.176874,-0.051 -0.330164,-0.114 -0.15329,-0.067 -0.267275,-0.1415 l 0,-0.7861 q 0.125777,0.09 0.294789,0.1808 0.172943,0.086 0.361607,0.1572 0.188665,0.067 0.373399,0.11 0.188665,0.043 0.338024,0.043 0.22797,0 0.396982,-0.055 0.172943,-0.059 0.286928,-0.1651 0.117915,-0.1062 0.172943,-0.2516 0.05896,-0.1493 0.05896,-0.3262 0,-0.2005 -0.07468,-0.338 -0.07075,-0.1376 -0.204386,-0.2398 -0.133638,-0.1022 -0.322302,-0.1847 -0.188665,-0.083 -0.420565,-0.173 -0.318372,-0.1258 -0.565995,-0.2515 -0.247622,-0.1297 -0.416634,-0.2909 -0.169012,-0.1651 -0.259414,-0.3773 -0.08647,-0.2162 -0.08647,-0.511 0,-0.3223 0.129707,-0.5817 0.129707,-0.2633 0.353746,-0.4441 0.224039,-0.1848 0.522758,-0.283 0.30265,-0.1022 0.644605,-0.1022 0.365538,0 0.660326,0.067 0.294789,0.067 0.538481,0.169 l 0,0.7075 q -0.113985,-0.055 -0.263345,-0.1061 -0.149359,-0.051 -0.314441,-0.09 -0.165082,-0.043 -0.330163,-0.067 -0.165082,-0.028 -0.314441,-0.028 -0.208318,0 -0.369469,0.055 -0.161151,0.051 -0.275136,0.1454 -0.110054,0.094 -0.169012,0.228 -0.05503,0.1297 -0.05503,0.2869 0,0.1769 0.07468,0.3066 0.07468,0.1257 0.212248,0.2279 0.137568,0.098 0.330163,0.1848 0.196525,0.082 0.436287,0.1768 0.30658,0.1219 0.546341,0.2555 0.243692,0.1297 0.408774,0.3027 0.169012,0.169 0.259414,0.393 0.0904,0.2201 0.0904,0.5149 z"
           inkscape:connector-curvature="0" />
        <path
           style="fill:#000000"
           id="path4173-7"
           d="m 35.825089,1069.5734 -0.774312,0 0,-5.0861 0.774312,0 0,5.0861 z"
           inkscape:connector-curvature="0" />
        <path
           style="fill:#000000"
           id="path4175-6"
           d="m 40.643899,1064.6209 -2.602001,4.3 2.527321,0 0,0.6525 -3.694684,0 0,-0.169 2.574487,-4.2568 -2.574487,0 0,-0.6603 3.769364,0 0,0.1336 z"
           inkscape:connector-curvature="0" />
        <path
           style="fill:#000000"
           id="path4177-6"
           d="m 44.244251,1069.5734 -2.543043,0 0,-5.0861 2.535182,0 0,0.6603 -1.768732,0 0,1.5447 1.776593,0 0,0.6525 -1.776593,0 0,1.5761 1.776593,0 0,0.6525 z"
           inkscape:connector-curvature="0" />
      </g>
      <g
         id="text4158"
         style="font-style:normal;font-variant:normal;font-weight:normal;font-stretch:normal;font-size:8.04969311px;line-height:100%;font-family:'Estrangelo Edessa';-inkscape-font-specification:'Estrangelo Edessa, Normal';text-align:start;letter-spacing:0px;word-spacing:0px;writing-mode:lr-tb;text-anchor:start;fill:#808080;fill-opacity:1;stroke:none;stroke-width:1px;stroke-linecap:butt;stroke-linejoin:miter;stroke-opacity:1">
        <path
           id="path4163"
           d="m 12.918051,1065.1476 -1.768731,0 0,1.529 1.776592,0 0,0.6524 -1.776592,0 0,2.2444 -0.76645,0 0,-5.0861 2.535181,0 0,0.6603 z"
           inkscape:connector-curvature="0"
           style="fill:#808080" />
        <path
           id="path4165"
           d="m 17.768306,1067.046 q 0,-0.4638 -0.102193,-0.8293 -0.102194,-0.3695 -0.30265,-0.6249 -0.200456,-0.2555 -0.495245,-0.3892 -0.294788,-0.1375 -0.679979,-0.1375 -0.369468,0 -0.672118,0.1454 -0.298719,0.1415 -0.510966,0.4009 -0.212248,0.2594 -0.330164,0.625 -0.113985,0.3616 -0.113985,0.8018 0,0.4402 0.110055,0.8018 0.110054,0.3616 0.314441,0.6171 0.208317,0.2555 0.499175,0.397 0.294789,0.1415 0.656396,0.1415 0.385191,0 0.68784,-0.1297 0.30265,-0.1337 0.510967,-0.3813 0.208317,-0.2515 0.318372,-0.6131 0.110054,-0.3656 0.110054,-0.8255 z m 0.793964,-0.082 q 0,0.6171 -0.169012,1.1163 -0.165082,0.4952 -0.479523,0.845 -0.310511,0.3459 -0.758589,0.5346 -0.448079,0.1847 -1.014073,0.1847 -0.542411,0 -0.982628,-0.1808 -0.440218,-0.1847 -0.750729,-0.5188 -0.31051,-0.338 -0.479522,-0.8097 -0.169012,-0.4717 -0.169012,-1.0495 0,-0.6053 0.165081,-1.0966 0.169012,-0.4952 0.487384,-0.8411 0.318372,-0.3498 0.774311,-0.5385 0.45987,-0.1886 1.041586,-0.1886 0.53062,0 0.962976,0.1847 0.432357,0.1847 0.735007,0.5228 0.30658,0.334 0.471661,0.8018 0.165082,0.4677 0.165082,1.0337 z"
           inkscape:connector-curvature="0"
           style="fill:#808080" />
        <path
           id="path4167"
           d="m 24.135739,1069.5734 -0.758589,0 -2.488015,-3.3017 q -0.02751,-0.031 -0.09433,-0.1257 -0.06289,-0.098 -0.137568,-0.2123 -0.07075,-0.114 -0.137568,-0.224 -0.06682,-0.1101 -0.09826,-0.169 l 0,4.0327 -0.715353,0 0,-5.0861 0.813616,0 2.374031,3.1876 q 0.05896,0.083 0.137568,0.2005 0.07861,0.114 0.15329,0.2358 0.07468,0.1179 0.137568,0.228 0.06682,0.1061 0.102193,0.1729 l 0,-4.0248 0.711423,0 0,5.0861 z"
           inkscape:connector-curvature="0"
           style="fill:#808080" />
        <path
           id="path4169"
           d="m 28.486818,1065.1476 -1.281347,0 0,4.4258 -0.770381,0 0,-4.4258 -1.289209,0 0,-0.6603 3.340937,0 0,0.6603 z"
           inkscape:connector-curvature="0"
           style="fill:#808080" />
        <path
           id="path4171"
           d="m 33.985607,1068.1505 q 0,0.3105 -0.110054,0.5857 -0.106124,0.2712 -0.318372,0.4756 -0.208317,0.2004 -0.522758,0.3183 -0.310511,0.114 -0.723215,0.114 -0.200456,0 -0.400912,-0.027 -0.196526,-0.024 -0.377329,-0.071 -0.176874,-0.051 -0.330164,-0.114 -0.15329,-0.067 -0.267275,-0.1415 l 0,-0.7861 q 0.125777,0.09 0.294789,0.1808 0.172943,0.086 0.361607,0.1572 0.188665,0.067 0.373399,0.11 0.188665,0.043 0.338024,0.043 0.22797,0 0.396982,-0.055 0.172943,-0.059 0.286928,-0.1651 0.117915,-0.1062 0.172943,-0.2516 0.05896,-0.1493 0.05896,-0.3262 0,-0.2005 -0.07468,-0.338 -0.07075,-0.1376 -0.204386,-0.2398 -0.133638,-0.1022 -0.322302,-0.1847 -0.188665,-0.083 -0.420565,-0.173 -0.318372,-0.1258 -0.565995,-0.2515 -0.247622,-0.1297 -0.416634,-0.2909 -0.169012,-0.1651 -0.259414,-0.3773 -0.08647,-0.2162 -0.08647,-0.511 0,-0.3223 0.129707,-0.5817 0.129707,-0.2633 0.353746,-0.4441 0.224039,-0.1848 0.522758,-0.283 0.30265,-0.1022 0.644605,-0.1022 0.365538,0 0.660326,0.067 0.294789,0.067 0.538481,0.169 l 0,0.7075 q -0.113985,-0.055 -0.263345,-0.1061 -0.149359,-0.051 -0.314441,-0.09 -0.165082,-0.043 -0.330163,-0.067 -0.165082,-0.028 -0.314441,-0.028 -0.208318,0 -0.369469,0.055 -0.161151,0.051 -0.275136,0.1454 -0.110054,0.094 -0.169012,0.228 -0.05503,0.1297 -0.05503,0.2869 0,0.1769 0.07468,0.3066 0.07468,0.1257 0.212248,0.2279 0.137568,0.098 0.330163,0.1848 0.196525,0.082 0.436287,0.1768 0.30658,0.1219 0.546341,0.2555 0.243692,0.1297 0.408774,0.3027 0.169012,0.169 0.259414,0.393 0.0904,0.2201 0.0904,0.5149 z"
           inkscape:connector-curvature="0"
           style="fill:#808080" />
        <path
           id="path4173"
           d="m 35.825089,1069.5734 -0.774312,0 0,-5.0861 0.774312,0 0,5.0861 z"
           inkscape:connector-curvature="0"
           style="fill:#808080" />
        <path
           id="path4175"
           d="m 40.643899,1064.6209 -2.602001,4.3 2.527321,0 0,0.6525 -3.694684,0 0,-0.169 2.574487,-4.2568 -2.574487,0 0,-0.6603 3.769364,0 0,0.1336 z"
           inkscape:connector-curvature="0"
           style="fill:#808080" />
        <path
           id="path4177"
           d="m 44.244251,1069.5734 -2.543043,0 0,-5.0861 2.535182,0 0,0.6603 -1.768732,0 0,1.5447 1.776593,0 0,0.6525 -1.776593,0 0,1.5761 1.776593,0 0,0.6525 z"
           inkscape:connector-curvature="0"
           style="fill:#808080" />
      </g>
    </g>
    <path
       style="font-style:normal;font-variant:normal;font-weight:normal;font-stretch:normal;font-size:13.65747356px;line-height:100%;font-family:'Estrangelo Edessa';-inkscape-font-specification:'Estrangelo Edessa, Normal';text-align:start;letter-spacing:0px;word-spacing:0px;writing-mode:lr-tb;text-anchor:start;opacity:1;fill:none;fill-opacity:1;stroke:url(#radialGradient4176);stroke-width:1.5;stroke-linecap:butt;stroke-linejoin:miter;stroke-miterlimit:4;stroke-dasharray:none;stroke-opacity:1"
       d="m 0.74582291,1020.9114 106.50835709,0 0,32.9016 -106.50835709,0 z"
       id="rect4183"
       inkscape:connector-curvature="0" />
  </g>
</svg>
