<?xml version="1.0" encoding="UTF-8" standalone="no"?>
<!-- Created with Inkscape (http://www.inkscape.org/) -->

<svg
   xmlns:dc="http://purl.org/dc/elements/1.1/"
   xmlns:cc="http://creativecommons.org/ns#"
   xmlns:rdf="http://www.w3.org/1999/02/22-rdf-syntax-ns#"
   xmlns:svg="http://www.w3.org/2000/svg"
   xmlns="http://www.w3.org/2000/svg"
   xmlns:sodipodi="http://sodipodi.sourceforge.net/DTD/sodipodi-0.dtd"
   xmlns:inkscape="http://www.inkscape.org/namespaces/inkscape"
   width="50"
   height="50"
   viewBox="0 0 50 50"
   id="svg2"
   version="1.1"
   inkscape:version="0.91 r13725"
   sodipodi:docname="background_analogvu_3_peak.svg">
  <defs
     id="defs4">
    <pattern
       y="0"
       x="0"
       height="6"
       width="6"
       patternUnits="userSpaceOnUse"
       id="EMFhbasepattern" />
    <pattern
       id="EMFhbasepattern-2"
       patternUnits="userSpaceOnUse"
       width="6"
       height="6"
       x="0"
       y="0" />
    <clipPath
       id="clipEmfPath1"
       clipPathUnits="userSpaceOnUse">
      <path
         inkscape:connector-curvature="0"
         id="path4146"
         d="m 0.524996,22.0498 c 0,-12.89987 10.124904,-23.32479 22.649804,-23.32479 12.5249,0 22.7249,10.42492 22.7249,23.32479 0,12.8999 -10.2,23.3999 -22.7249,23.3999 -12.5249,0 -22.649804,-10.5 -22.649804,-23.3999 z" />
    </clipPath>
    <pattern
       y="0"
       x="0"
       height="6"
       width="6"
       patternUnits="userSpaceOnUse"
       id="EMFhbasepattern-7" />
  </defs>
  <sodipodi:namedview
     id="base"
     pagecolor="#ffffff"
     bordercolor="#666666"
     borderopacity="1.0"
     inkscape:pageopacity="0.0"
     inkscape:pageshadow="2"
     inkscape:zoom="11.313709"
     inkscape:cx="51.9154"
     inkscape:cy="32.029364"
     inkscape:document-units="px"
     inkscape:current-layer="layer1"
     showgrid="false"
     units="px"
     inkscape:window-width="1920"
     inkscape:window-height="1028"
     inkscape:window-x="-8"
     inkscape:window-y="-8"
     inkscape:window-maximized="1"
     showguides="true"
     inkscape:guide-bbox="true" />
  <metadata
     id="metadata7">
    <rdf:RDF>
      <cc:Work
         rdf:about="">
        <dc:format>image/svg+xml</dc:format>
        <dc:type
           rdf:resource="http://purl.org/dc/dcmitype/StillImage" />
        <dc:title />
        <dc:creator>
          <cc:Agent>
            <dc:title>Jorge Rosa</dc:title>
          </cc:Agent>
        </dc:creator>
        <dc:description>Email: jorge.bigarte@gmail.com
Site:https://sites.google.com/site/jorgerosaportfolio</dc:description>
      </cc:Work>
    </rdf:RDF>
  </metadata>
  <g
     inkscape:label="Layer 1"
     inkscape:groupmode="layer"
     id="layer1"
     transform="translate(0,-1002.3622)">
    <g
       id="g4956"
       transform="matrix(0,0.02442813,-0.02442813,0,15.321547,1036.2396)" />
    <path
       inkscape:connector-curvature="0"
       id="path4151"
       d=""
       clip-path="url(#clipEmfPath1)"
       style="fill:none;stroke:none"
       transform="translate(7.3339618,1013.8494)" />
    <g
       style="font-style:normal;font-variant:normal;font-weight:normal;font-stretch:normal;font-size:10.10088062px;line-height:100%;font-family:'Estrangelo Edessa';-inkscape-font-specification:'Estrangelo Edessa, Normal';text-align:start;letter-spacing:0px;word-spacing:0px;writing-mode:lr-tb;text-anchor:start;fill:#ff00ff;fill-opacity:1;stroke:none;stroke-width:1px;stroke-linecap:butt;stroke-linejoin:miter;stroke-opacity:1"
       id="text4269-9-0"
       transform="matrix(1.1294414,0,0,1.1294414,-53.192382,-139.93429)">
      <path
         d="m 67.773595,1025.0794 q 0,0.5376 0.152894,0.9815 0.157827,0.439 0.438955,0.7546 0.28606,0.3157 0.680625,0.4883 0.399498,0.1726 0.882841,0.1726 0.448818,0 0.887773,-0.1184 0.443886,-0.1183 0.848316,-0.3403 l 0,0.873 q -0.369905,0.1973 -0.828588,0.3009 -0.458683,0.099 -1.00121,0.099 -0.675694,0 -1.242882,-0.2367 -0.562256,-0.2368 -0.971618,-0.6609 -0.40443,-0.4242 -0.631305,-1.0111 -0.221943,-0.5919 -0.221943,-1.3021 0,-0.7299 0.241671,-1.3415 0.241672,-0.6165 0.66583,-1.0604 0.42909,-0.4439 1.011074,-0.6905 0.586917,-0.2515 1.272474,-0.2515 0.231808,0 0.468547,0.03 0.23674,0.025 0.463615,0.074 0.226875,0.044 0.42909,0.1086 0.207147,0.059 0.374837,0.1331 l 0,0.8681 q -0.172622,-0.074 -0.384701,-0.148 -0.212079,-0.074 -0.438954,-0.1282 -0.226876,-0.059 -0.463615,-0.094 -0.23674,-0.035 -0.458683,-0.035 -0.463614,0 -0.863112,0.1825 -0.394566,0.1776 -0.685558,0.508 -0.290992,0.3305 -0.458682,0.799 -0.167691,0.4686 -0.167691,1.0456 z"
         style="fill:#ff00ff;fill-opacity:1"
         id="path4382"
         inkscape:connector-curvature="0" />
    </g>
  </g>
</svg>
