<?xml version="1.0" encoding="UTF-8" standalone="no"?>
<!-- Created with Inkscape (http://www.inkscape.org/) -->

<svg
   xmlns:dc="http://purl.org/dc/elements/1.1/"
   xmlns:cc="http://creativecommons.org/ns#"
   xmlns:rdf="http://www.w3.org/1999/02/22-rdf-syntax-ns#"
   xmlns:svg="http://www.w3.org/2000/svg"
   xmlns="http://www.w3.org/2000/svg"
   xmlns:xlink="http://www.w3.org/1999/xlink"
   xmlns:sodipodi="http://sodipodi.sourceforge.net/DTD/sodipodi-0.dtd"
   xmlns:inkscape="http://www.inkscape.org/namespaces/inkscape"
   width="65"
   height="50"
   viewBox="0 0 65 50"
   id="svg2"
   version="1.1"
   inkscape:version="0.91 r13725"
   sodipodi:docname="background_record.svg">
  <defs
     id="defs4">
    <radialGradient
       inkscape:collect="always"
       xlink:href="#linearGradient5282"
       id="radialGradient4196-1"
       cx="767.797"
       cy="229.94659"
       fx="767.797"
       fy="229.94658"
       r="32.034878"
       gradientTransform="matrix(-1.8825582e-5,0.81131099,-39.523138,-7.1150984e-4,9120.7453,404.60373)"
       gradientUnits="userSpaceOnUse" />
    <linearGradient
       id="linearGradient5282"
       inkscape:collect="always">
      <stop
         id="stop5284"
         offset="0"
         style="stop-color:#b3b3b3;stop-opacity:1" />
      <stop
         id="stop5286"
         offset="1"
         style="stop-color:#1a1a1a;stop-opacity:1" />
    </linearGradient>
    <pattern
       y="0"
       x="0"
       height="6"
       width="6"
       patternUnits="userSpaceOnUse"
       id="EMFhbasepattern" />
  </defs>
  <sodipodi:namedview
     id="base"
     pagecolor="#ffffff"
     bordercolor="#666666"
     borderopacity="1.0"
     inkscape:pageopacity="0.0"
     inkscape:pageshadow="2"
     inkscape:zoom="5.1200001"
     inkscape:cx="-29.193052"
     inkscape:cy="22.86225"
     inkscape:document-units="px"
     inkscape:current-layer="layer1"
     showgrid="false"
     units="px"
     inkscape:window-width="1920"
     inkscape:window-height="1028"
     inkscape:window-x="-8"
     inkscape:window-y="-8"
     inkscape:window-maximized="1"
     showguides="false" />
  <metadata
     id="metadata7">
    <rdf:RDF>
      <cc:Work
         rdf:about="">
        <dc:format>image/svg+xml</dc:format>
        <dc:type
           rdf:resource="http://purl.org/dc/dcmitype/StillImage" />
        <dc:title />
        <dc:creator>
          <cc:Agent>
            <dc:title>Jorge Rosa</dc:title>
          </cc:Agent>
        </dc:creator>
        <dc:description>Email: jorge.bigarte@gmail.com
Site:https://sites.google.com/site/jorgerosaportfolio</dc:description>
      </cc:Work>
    </rdf:RDF>
  </metadata>
  <g
     inkscape:label="Layer 1"
     inkscape:groupmode="layer"
     id="layer1"
     transform="translate(0,-1002.3622)">
    <path
       style="font-style:normal;font-variant:normal;font-weight:normal;font-stretch:normal;font-size:medium;line-height:100%;font-family:'Estrangelo Edessa';-inkscape-font-specification:'Estrangelo Edessa, Normal';text-align:start;letter-spacing:0px;word-spacing:0px;writing-mode:lr-tb;text-anchor:start;opacity:1;fill:url(#radialGradient4196-1);fill-opacity:1;stroke:none;stroke-width:0.51099998;stroke-linecap:round;stroke-linejoin:round;stroke-miterlimit:4;stroke-dasharray:none;stroke-dashoffset:0;stroke-opacity:1"
       d="m 65,1002.3622 0,50 -65,0 0,-49.9999 z"
       id="rect4183-9"
       inkscape:connector-curvature="0" />
    <g
       id="g4283"
       transform="translate(0.534426,-1.73627)">
      <g
         transform="translate(-12.705825,11.60097)"
         id="g4237">
        <g
           style="font-style:normal;font-variant:normal;font-weight:normal;font-stretch:normal;font-size:9.05568123px;line-height:100%;font-family:'Estrangelo Edessa';-inkscape-font-specification:'Estrangelo Edessa, Normal';text-align:start;letter-spacing:0px;word-spacing:0px;writing-mode:lr-tb;text-anchor:start;fill:#000000;fill-opacity:1;stroke:none;stroke-width:1px;stroke-linecap:butt;stroke-linejoin:miter;stroke-opacity:1"
           id="text4188-7">
          <path
             inkscape:connector-curvature="0"
             d="m 31.982977,1003.2263 q 0,-0.4112 -0.296255,-0.5969 -0.291833,-0.1902 -0.90203,-0.1902 l -0.468703,0 0,1.7466 0.424485,0 q 0.601354,0 0.919718,-0.252 0.322785,-0.2565 0.322785,-0.7075 z m 1.348625,4.1918 -1.025839,0 -1.591819,-2.5248 -0.397955,0 0,2.5248 -0.871078,0 0,-5.7217 1.295563,0 q 0.455437,0 0.84897,0.075 0.393533,0.071 0.680945,0.2476 0.291834,0.1724 0.455437,0.4598 0.168026,0.2874 0.168026,0.7208 0,0.3183 -0.114965,0.5792 -0.110543,0.2609 -0.296255,0.4555 -0.181291,0.1945 -0.420064,0.3272 -0.238772,0.1282 -0.49081,0.1857 l 1.759844,2.6707 z"
             id="path4224" />
          <path
             inkscape:connector-curvature="0"
             d="m 37.116594,1007.4181 -2.860853,0 0,-5.7217 2.852009,0 0,0.7428 -1.989774,0 0,1.7378 1.998618,0 0,0.734 -1.998618,0 0,1.7731 1.998618,0 0,0.734 z"
             id="path4226" />
          <path
             inkscape:connector-curvature="0"
             d="m 39.097524,1004.6191 q 0,0.482 0.137073,0.88 0.141495,0.3935 0.393533,0.6765 0.25646,0.283 0.610198,0.4377 0.358159,0.1548 0.791487,0.1548 0.402377,0 0.79591,-0.1061 0.397955,-0.1061 0.760536,-0.3051 l 0,0.7826 q -0.331629,0.1769 -0.742849,0.2697 -0.41122,0.088 -0.897609,0.088 -0.605776,0 -1.114274,-0.2123 -0.504076,-0.2122 -0.871078,-0.5925 -0.362581,-0.3802 -0.56598,-0.9064 -0.198978,-0.5306 -0.198978,-1.1674 0,-0.6544 0.216664,-1.2027 0.216665,-0.5527 0.596933,-0.9506 0.384689,-0.398 0.906452,-0.6191 0.526185,-0.2255 1.140804,-0.2255 0.20782,0 0.420063,0.026 0.212243,0.022 0.415642,0.066 0.203399,0.04 0.384689,0.097 0.185712,0.053 0.336051,0.1193 l 0,0.7783 q -0.15476,-0.066 -0.344894,-0.1327 -0.190134,-0.066 -0.393533,-0.115 -0.203399,-0.053 -0.415642,-0.084 -0.212242,-0.031 -0.41122,-0.031 -0.415641,0 -0.773801,0.1636 -0.353737,0.1592 -0.614619,0.4554 -0.260881,0.2963 -0.41122,0.7163 -0.150338,0.4201 -0.150338,0.9374 z"
             id="path4228" />
          <path
             inkscape:connector-curvature="0"
             d="m 48.082457,1004.5749 q 0,-0.5217 -0.114965,-0.933 -0.114964,-0.4156 -0.340472,-0.703 -0.225508,-0.2874 -0.557137,-0.4378 -0.331629,-0.1547 -0.764957,-0.1547 -0.415642,0 -0.756114,0.1636 -0.336051,0.1592 -0.574824,0.451 -0.238773,0.2918 -0.371424,0.7031 -0.12823,0.4067 -0.12823,0.902 0,0.4952 0.123808,0.902 0.123808,0.4068 0.353738,0.6942 0.234351,0.2874 0.561558,0.4466 0.331629,0.1592 0.738427,0.1592 0.433329,0 0.773801,-0.1459 0.340472,-0.1504 0.574824,-0.4289 0.234351,-0.283 0.358159,-0.6898 0.123808,-0.4112 0.123808,-0.9286 z m 0.893187,-0.093 q 0,0.6942 -0.190134,1.2557 -0.185712,0.5572 -0.539449,0.9507 -0.349316,0.3891 -0.853392,0.6014 -0.504076,0.2078 -1.140804,0.2078 -0.610197,0 -1.10543,-0.2034 -0.495232,-0.2078 -0.844548,-0.5837 -0.349316,-0.3803 -0.53945,-0.9109 -0.190134,-0.5306 -0.190134,-1.1806 0,-0.6809 0.185713,-1.2336 0.190133,-0.5572 0.548293,-0.9463 0.358159,-0.3935 0.871078,-0.6057 0.517342,-0.2123 1.171756,-0.2123 0.596932,0 1.083321,0.2078 0.486389,0.2079 0.826862,0.5881 0.344894,0.3759 0.530606,0.9021 0.185712,0.5261 0.185712,1.1629 z"
             id="path4230" />
          <path
             inkscape:connector-curvature="0"
             d="m 52.800433,1003.2263 q 0,-0.4112 -0.296255,-0.5969 -0.291834,-0.1902 -0.902031,-0.1902 l -0.468702,0 0,1.7466 0.424485,0 q 0.601353,0 0.919717,-0.252 0.322786,-0.2565 0.322786,-0.7075 z m 1.348624,4.1918 -1.025839,0 -1.591819,-2.5248 -0.397954,0 0,2.5248 -0.871079,0 0,-5.7217 1.295564,0 q 0.455437,0 0.84897,0.075 0.393533,0.071 0.680945,0.2476 0.291833,0.1724 0.455437,0.4598 0.168025,0.2874 0.168025,0.7208 0,0.3183 -0.114965,0.5792 -0.110543,0.2609 -0.296255,0.4555 -0.18129,0.1945 -0.420063,0.3272 -0.238773,0.1282 -0.490811,0.1857 l 1.759844,2.6707 z"
             id="path4232" />
          <path
             inkscape:connector-curvature="0"
             d="m 59.012947,1004.4555 q 0,-0.5261 -0.168025,-0.9064 -0.163604,-0.3803 -0.473124,-0.6279 -0.305099,-0.2476 -0.751693,-0.3626 -0.442172,-0.1194 -0.999308,-0.1194 l -0.676523,0 0,4.2449 0.596932,0 q 0.56598,0 1.021417,-0.1548 0.459859,-0.1592 0.782644,-0.4466 0.322786,-0.2918 0.495233,-0.703 0.172447,-0.4157 0.172447,-0.9242 z m 0.897609,-0.01 q 0,0.6677 -0.247616,1.216 -0.243195,0.5483 -0.685367,0.9418 -0.442172,0.3891 -1.056791,0.6013 -0.614619,0.2123 -1.353046,0.2123 l -1.494541,0 0,-5.7217 1.565289,0 q 0.778222,0 1.383998,0.1769 0.610197,0.1724 1.03026,0.5217 0.420064,0.3449 0.636728,0.8623 0.221086,0.5129 0.221086,1.1894 z"
             id="path4235" />
        </g>
        <g
           style="font-style:normal;font-variant:normal;font-weight:normal;font-stretch:normal;font-size:9.05568123px;line-height:100%;font-family:'Estrangelo Edessa';-inkscape-font-specification:'Estrangelo Edessa, Normal';text-align:start;letter-spacing:0px;word-spacing:0px;writing-mode:lr-tb;text-anchor:start;fill:#333333;fill-opacity:1;stroke:none;stroke-width:1px;stroke-linecap:butt;stroke-linejoin:miter;stroke-opacity:1"
           id="text4188">
          <path
             inkscape:connector-curvature="0"
             d="m 31.970309,1002.5722 q 0,-0.4112 -0.296255,-0.5969 -0.291834,-0.1902 -0.902031,-0.1902 l -0.468702,0 0,1.7466 0.424485,0 q 0.601354,0 0.919717,-0.252 0.322786,-0.2565 0.322786,-0.7075 z m 1.348624,4.1918 -1.025839,0 -1.591819,-2.5248 -0.397954,0 0,2.5248 -0.871079,0 0,-5.7217 1.295564,0 q 0.455437,0 0.84897,0.075 0.393533,0.071 0.680945,0.2477 0.291833,0.1724 0.455437,0.4598 0.168025,0.2874 0.168025,0.7208 0,0.3183 -0.114965,0.5792 -0.110543,0.2609 -0.296255,0.4554 -0.18129,0.1946 -0.420063,0.3272 -0.238773,0.1283 -0.490811,0.1858 l 1.759844,2.6707 z"
             id="path4211" />
          <path
             inkscape:connector-curvature="0"
             d="m 37.103925,1006.764 -2.860852,0 0,-5.7217 2.852009,0 0,0.7428 -1.989774,0 0,1.7378 1.998617,0 0,0.734 -1.998617,0 0,1.7731 1.998617,0 0,0.734 z"
             id="path4213" />
          <path
             inkscape:connector-curvature="0"
             d="m 39.084855,1003.965 q 0,0.482 0.137074,0.88 0.141495,0.3935 0.393533,0.6765 0.256459,0.283 0.610197,0.4377 0.358159,0.1548 0.791488,0.1548 0.402376,0 0.795909,-0.1061 0.397955,-0.1062 0.760536,-0.3051 l 0,0.7826 q -0.331629,0.1769 -0.742849,0.2697 -0.41122,0.089 -0.897609,0.089 -0.605776,0 -1.114273,-0.2123 -0.504076,-0.2122 -0.871079,-0.5925 -0.362581,-0.3803 -0.56598,-0.9064 -0.198977,-0.5306 -0.198977,-1.1674 0,-0.6544 0.216664,-1.2027 0.216664,-0.5527 0.596932,-0.9506 0.38469,-0.398 0.906452,-0.6191 0.526185,-0.2255 1.140804,-0.2255 0.207821,0 0.420063,0.027 0.212243,0.022 0.415642,0.066 0.203399,0.04 0.38469,0.097 0.185712,0.053 0.33605,0.1194 l 0,0.7782 q -0.15476,-0.066 -0.344894,-0.1326 -0.190134,-0.066 -0.393533,-0.115 -0.203399,-0.053 -0.415642,-0.084 -0.212242,-0.031 -0.411219,-0.031 -0.415642,0 -0.773801,0.1636 -0.353738,0.1592 -0.614619,0.4554 -0.260882,0.2963 -0.41122,0.7163 -0.150339,0.4201 -0.150339,0.9374 z"
             id="path4215" />
          <path
             inkscape:connector-curvature="0"
             d="m 48.069788,1003.9208 q 0,-0.5218 -0.114964,-0.933 -0.114965,-0.4156 -0.340473,-0.703 -0.225507,-0.2874 -0.557136,-0.4378 -0.331629,-0.1547 -0.764958,-0.1547 -0.415641,0 -0.756114,0.1636 -0.33605,0.1592 -0.574823,0.451 -0.238773,0.2918 -0.371425,0.703 -0.12823,0.4068 -0.12823,0.9021 0,0.4952 0.123809,0.902 0.123808,0.4068 0.353737,0.6942 0.234351,0.2874 0.561558,0.4466 0.331629,0.1592 0.738428,0.1592 0.433328,0 0.7738,-0.1459 0.340473,-0.1504 0.574824,-0.4289 0.234351,-0.283 0.358159,-0.6898 0.123808,-0.4112 0.123808,-0.9286 z m 0.893188,-0.093 q 0,0.6942 -0.190134,1.2557 -0.185712,0.5572 -0.53945,0.9507 -0.349316,0.3891 -0.853392,0.6013 -0.504076,0.2079 -1.140803,0.2079 -0.610198,0 -1.10543,-0.2034 -0.495233,-0.2079 -0.844549,-0.5837 -0.349315,-0.3803 -0.539449,-0.9109 -0.190134,-0.5306 -0.190134,-1.1806 0,-0.6809 0.185712,-1.2336 0.190134,-0.5572 0.548293,-0.9463 0.358159,-0.3935 0.871079,-0.6058 0.517341,-0.2122 1.171755,-0.2122 0.596933,0 1.083322,0.2078 0.486389,0.2078 0.826861,0.5881 0.344894,0.3759 0.530607,0.902 0.185712,0.5262 0.185712,1.163 z"
             id="path4217" />
          <path
             inkscape:connector-curvature="0"
             d="m 52.787764,1002.5722 q 0,-0.4112 -0.296255,-0.5969 -0.291833,-0.1902 -0.902031,-0.1902 l -0.468702,0 0,1.7466 0.424485,0 q 0.601354,0 0.919718,-0.252 0.322785,-0.2565 0.322785,-0.7075 z m 1.348625,4.1918 -1.025839,0 -1.591819,-2.5248 -0.397955,0 0,2.5248 -0.871079,0 0,-5.7217 1.295564,0 q 0.455437,0 0.84897,0.075 0.393533,0.071 0.680945,0.2477 0.291833,0.1724 0.455437,0.4598 0.168025,0.2874 0.168025,0.7208 0,0.3183 -0.114964,0.5792 -0.110543,0.2609 -0.296256,0.4554 -0.18129,0.1946 -0.420063,0.3272 -0.238773,0.1283 -0.490811,0.1858 l 1.759845,2.6707 z"
             id="path4219" />
          <path
             inkscape:connector-curvature="0"
             d="m 59.000278,1003.8014 q 0,-0.5262 -0.168025,-0.9064 -0.163604,-0.3803 -0.473124,-0.6279 -0.305099,-0.2476 -0.751692,-0.3626 -0.442172,-0.1194 -0.999309,-0.1194 l -0.676523,0 0,4.2449 0.596932,0 q 0.56598,0 1.021417,-0.1548 0.459859,-0.1592 0.782645,-0.4466 0.322785,-0.2918 0.495232,-0.703 0.172447,-0.4157 0.172447,-0.9242 z m 0.897609,-0.01 q 0,0.6677 -0.247616,1.216 -0.243194,0.5482 -0.685366,0.9418 -0.442172,0.3891 -1.056791,0.6013 -0.614619,0.2123 -1.353046,0.2123 l -1.494542,0 0,-5.7217 1.565289,0 q 0.778223,0 1.383998,0.1768 0.610198,0.1725 1.030261,0.5218 0.420063,0.3449 0.636727,0.8622 0.221086,0.513 0.221086,1.1895 z"
             id="path4221" />
        </g>
      </g>
    </g>
  </g>
</svg>
