<?xml version="1.0" encoding="UTF-8" standalone="no"?>
<!-- Created with Inkscape (http://www.inkscape.org/) -->

<svg
   xmlns:dc="http://purl.org/dc/elements/1.1/"
   xmlns:cc="http://creativecommons.org/ns#"
   xmlns:rdf="http://www.w3.org/1999/02/22-rdf-syntax-ns#"
   xmlns:svg="http://www.w3.org/2000/svg"
   xmlns="http://www.w3.org/2000/svg"
   xmlns:xlink="http://www.w3.org/1999/xlink"
   xmlns:sodipodi="http://sodipodi.sourceforge.net/DTD/sodipodi-0.dtd"
   xmlns:inkscape="http://www.inkscape.org/namespaces/inkscape"
   width="100"
   height="20"
   viewBox="0 0 100 20"
   id="svg2"
   version="1.1"
   inkscape:version="0.91 r13725"
   sodipodi:docname="background_digital_small.svg">
  <defs
     id="defs4">
    <radialGradient
       inkscape:collect="always"
       xlink:href="#linearGradient5282"
       id="radialGradient4196-1"
       cx="786.18329"
       cy="229.95204"
       fx="786.18329"
       fy="229.95203"
       r="32.034878"
       gradientTransform="matrix(-2.8962432e-5,0.06751059,-60.804816,-0.02827696,14031.915,1002.831)"
       gradientUnits="userSpaceOnUse" />
    <linearGradient
       id="linearGradient5282"
       inkscape:collect="always">
      <stop
         id="stop5284"
         offset="0"
         style="stop-color:#05010a;stop-opacity:1" />
      <stop
         id="stop5286"
         offset="1"
         style="stop-color:#000000;stop-opacity:1" />
    </linearGradient>
    <pattern
       y="0"
       x="0"
       height="6"
       width="6"
       patternUnits="userSpaceOnUse"
       id="EMFhbasepattern" />
  </defs>
  <sodipodi:namedview
     id="base"
     pagecolor="#ffffff"
     bordercolor="#666666"
     borderopacity="1.0"
     inkscape:pageopacity="0.0"
     inkscape:pageshadow="2"
     inkscape:zoom="12.523151"
     inkscape:cx="52.442243"
     inkscape:cy="3.7955547"
     inkscape:document-units="px"
     inkscape:current-layer="g4385"
     showgrid="false"
     units="px"
     inkscape:window-width="1920"
     inkscape:window-height="1028"
     inkscape:window-x="-8"
     inkscape:window-y="-8"
     inkscape:window-maximized="1"
     objecttolerance="10"
     guidetolerance="9"
     showguides="true"
     inkscape:guide-bbox="true" />
  <metadata
     id="metadata7">
    <rdf:RDF>
      <cc:Work
         rdf:about="">
        <dc:format>image/svg+xml</dc:format>
        <dc:type
           rdf:resource="http://purl.org/dc/dcmitype/StillImage" />
        <dc:title />
        <dc:creator>
          <cc:Agent>
            <dc:title>Jorge Rosa</dc:title>
          </cc:Agent>
        </dc:creator>
        <dc:description>Email: jorge.bigarte@gmail.com
Site:https://sites.google.com/site/jorgerosaportfolio</dc:description>
      </cc:Work>
    </rdf:RDF>
  </metadata>
  <g
     inkscape:label="Layer 1"
     inkscape:groupmode="layer"
     id="layer1"
     transform="translate(0,-1032.3622)">
    <g
       id="g4385">
      <path
         style="opacity:1;fill:url(#radialGradient4196-1);fill-opacity:1;stroke:none;stroke-width:0.50199997;stroke-linecap:round;stroke-linejoin:round;stroke-miterlimit:4;stroke-dasharray:none;stroke-dashoffset:0;stroke-opacity:1"
         d="m 100,1032.3622 0,20 -100.000000016249998,0 0,-20 z"
         id="rect4183-9"
         inkscape:connector-curvature="0" />
      <g
         id="text6116-4-3-2"
         style="font-style:normal;font-weight:normal;font-size:12.57457638px;line-height:125%;font-family:sans-serif;letter-spacing:0px;word-spacing:0px;opacity:0.1;fill:#ff00ff;fill-opacity:1;stroke:none;stroke-width:1px;stroke-linecap:butt;stroke-linejoin:miter;stroke-opacity:1"
         transform="matrix(0.82645989,0,0,0.97268629,-93.121225,185.03147)">
        <path
           inkscape:connector-curvature="0"
           id="path4312"
           style="font-style:normal;font-variant:normal;font-weight:normal;font-stretch:normal;font-family:Digital;-inkscape-font-specification:Digital;fill:#ff00ff;fill-opacity:1"
           d="m 113.9154,878.49613 0.54032,-0.54031 4.15673,0 0.54031,0.54031 -0.54031,0.54645 -4.15673,0 -0.54032,-0.54645 0,0 z m 0,3.7515 0.54032,-0.53418 4.15673,0 0.54031,0.53418 -0.54031,0.54645 -4.15673,0 -0.54032,-0.54645 0,0 z m 0,3.75763 0.54032,-0.54031 4.15673,0 0.54031,0.54031 -0.54031,0.54032 -4.15673,0 -0.54032,-0.54032 0,0 z m 5.23736,-3.75763 0.54032,0.54645 0,2.67087 -0.54032,0.54031 -0.54031,-0.54031 0,-2.67087 0.54031,-0.54645 0,0 z m 0,-3.7515 0.54032,0.54645 0,2.67087 -0.54032,0.53418 -0.54031,-0.53418 0,-2.67087 0.54031,-0.54645 0,0 z m -5.23736,0 -0.54031,0.54645 0,2.67087 0.54031,0.53418 0.54032,-0.53418 0,-2.67087 -0.54032,-0.54645 0,0 z m 0,7.50913 -0.54031,-0.54031 0,-2.67087 0.54031,-0.54645 0.54032,0.54645 0,2.67087 -0.54032,0.54031 0,0 z" />
        <path
           inkscape:connector-curvature="0"
           id="path4314"
           style="font-style:normal;font-variant:normal;font-weight:normal;font-stretch:normal;font-family:Digital;-inkscape-font-specification:Digital;fill:#ff00ff;fill-opacity:1"
           d="m 121.45524,878.49613 0.54031,-0.54031 4.15673,0 0.54032,0.54031 -0.54032,0.54645 -4.15673,0 -0.54031,-0.54645 0,0 z m 0,3.7515 0.54031,-0.53418 4.15673,0 0.54032,0.53418 -0.54032,0.54645 -4.15673,0 -0.54031,-0.54645 0,0 z m 0,3.75763 0.54031,-0.54031 4.15673,0 0.54032,0.54031 -0.54032,0.54032 -4.15673,0 -0.54031,-0.54032 0,0 z m 5.23736,-3.75763 0.54031,0.54645 0,2.67087 -0.54031,0.54031 -0.54032,-0.54031 0,-2.67087 0.54032,-0.54645 0,0 z m 0,-3.7515 0.54031,0.54645 0,2.67087 -0.54031,0.53418 -0.54032,-0.53418 0,-2.67087 0.54032,-0.54645 0,0 z m -5.23736,0 -0.54032,0.54645 0,2.67087 0.54032,0.53418 0.54031,-0.53418 0,-2.67087 -0.54031,-0.54645 0,0 z m 0,7.50913 -0.54032,-0.54031 0,-2.67087 0.54032,-0.54645 0.54031,0.54645 0,2.67087 -0.54031,0.54031 0,0 z" />
        <path
           inkscape:connector-curvature="0"
           id="path4316"
           style="font-style:normal;font-variant:normal;font-weight:normal;font-stretch:normal;font-family:Digital;-inkscape-font-specification:Digital;fill:#ff00ff;fill-opacity:1"
           d="m 128.99507,878.49613 0.54031,-0.54031 4.15674,0 0.54031,0.54031 -0.54031,0.54645 -4.15674,0 -0.54031,-0.54645 0,0 z m 0,3.7515 0.54031,-0.53418 4.15674,0 0.54031,0.53418 -0.54031,0.54645 -4.15674,0 -0.54031,-0.54645 0,0 z m 0,3.75763 0.54031,-0.54031 4.15674,0 0.54031,0.54031 -0.54031,0.54032 -4.15674,0 -0.54031,-0.54032 0,0 z m 5.23736,-3.75763 0.54031,0.54645 0,2.67087 -0.54031,0.54031 -0.54031,-0.54031 0,-2.67087 0.54031,-0.54645 0,0 z m 0,-3.7515 0.54031,0.54645 0,2.67087 -0.54031,0.53418 -0.54031,-0.53418 0,-2.67087 0.54031,-0.54645 0,0 z m -5.23736,0 -0.54031,0.54645 0,2.67087 0.54031,0.53418 0.54031,-0.53418 0,-2.67087 -0.54031,-0.54645 0,0 z m 0,7.50913 -0.54031,-0.54031 0,-2.67087 0.54031,-0.54645 0.54031,0.54645 0,2.67087 -0.54031,0.54031 0,0 z" />
        <path
           inkscape:connector-curvature="0"
           id="path4318"
           style="font-style:normal;font-variant:normal;font-weight:normal;font-stretch:normal;font-family:Digital;-inkscape-font-specification:Digital;fill:#ff00ff;fill-opacity:1"
           d="m 136.5349,878.49613 0.54032,-0.54031 4.15673,0 0.54031,0.54031 -0.54031,0.54645 -4.15673,0 -0.54032,-0.54645 0,0 z m 0,3.7515 0.54032,-0.53418 4.15673,0 0.54031,0.53418 -0.54031,0.54645 -4.15673,0 -0.54032,-0.54645 0,0 z m 0,3.75763 0.54032,-0.54031 4.15673,0 0.54031,0.54031 -0.54031,0.54032 -4.15673,0 -0.54032,-0.54032 0,0 z m 5.23736,-3.75763 0.54032,0.54645 0,2.67087 -0.54032,0.54031 -0.54031,-0.54031 0,-2.67087 0.54031,-0.54645 0,0 z m 0,-3.7515 0.54032,0.54645 0,2.67087 -0.54032,0.53418 -0.54031,-0.53418 0,-2.67087 0.54031,-0.54645 0,0 z m -5.23736,0 -0.54031,0.54645 0,2.67087 0.54031,0.53418 0.54032,-0.53418 0,-2.67087 -0.54032,-0.54645 0,0 z m 0,7.50913 -0.54031,-0.54031 0,-2.67087 0.54031,-0.54645 0.54032,0.54645 0,2.67087 -0.54032,0.54031 0,0 z" />
        <path
           inkscape:connector-curvature="0"
           id="path4320"
           style="font-style:normal;font-variant:normal;font-weight:normal;font-stretch:normal;font-family:Digital;-inkscape-font-specification:Digital;fill:#ff00ff;fill-opacity:1"
           d="m 144.07474,878.49613 0.54032,-0.54031 4.15673,0 0.54031,0.54031 -0.54031,0.54645 -4.15673,0 -0.54032,-0.54645 0,0 z m 0,3.7515 0.54032,-0.53418 4.15673,0 0.54031,0.53418 -0.54031,0.54645 -4.15673,0 -0.54032,-0.54645 0,0 z m 0,3.75763 0.54032,-0.54031 4.15673,0 0.54031,0.54031 -0.54031,0.54032 -4.15673,0 -0.54032,-0.54032 0,0 z m 5.23736,-3.75763 0.54032,0.54645 0,2.67087 -0.54032,0.54031 -0.54031,-0.54031 0,-2.67087 0.54031,-0.54645 0,0 z m 0,-3.7515 0.54032,0.54645 0,2.67087 -0.54032,0.53418 -0.54031,-0.53418 0,-2.67087 0.54031,-0.54645 0,0 z m -5.23736,0 -0.54031,0.54645 0,2.67087 0.54031,0.53418 0.54032,-0.53418 0,-2.67087 -0.54032,-0.54645 0,0 z m 0,7.50913 -0.54031,-0.54031 0,-2.67087 0.54031,-0.54645 0.54032,0.54645 0,2.67087 -0.54032,0.54031 0,0 z" />
        <path
           inkscape:connector-curvature="0"
           id="path4322"
           style="font-style:normal;font-variant:normal;font-weight:normal;font-stretch:normal;font-family:Digital;-inkscape-font-specification:Digital;fill:#ff00ff;fill-opacity:1"
           d="m 151.61457,878.49613 0.54031,-0.54031 4.15674,0 0.54031,0.54031 -0.54031,0.54645 -4.15674,0 -0.54031,-0.54645 0,0 z m 0,3.7515 0.54031,-0.53418 4.15674,0 0.54031,0.53418 -0.54031,0.54645 -4.15674,0 -0.54031,-0.54645 0,0 z m 0,3.75763 0.54031,-0.54031 4.15674,0 0.54031,0.54031 -0.54031,0.54032 -4.15674,0 -0.54031,-0.54032 0,0 z m 5.23736,-3.75763 0.54031,0.54645 0,2.67087 -0.54031,0.54031 -0.54031,-0.54031 0,-2.67087 0.54031,-0.54645 0,0 z m 0,-3.7515 0.54031,0.54645 0,2.67087 -0.54031,0.53418 -0.54031,-0.53418 0,-2.67087 0.54031,-0.54645 0,0 z m -5.23736,0 -0.54031,0.54645 0,2.67087 0.54031,0.53418 0.54031,-0.53418 0,-2.67087 -0.54031,-0.54645 0,0 z m 0,7.50913 -0.54031,-0.54031 0,-2.67087 0.54031,-0.54645 0.54031,0.54645 0,2.67087 -0.54031,0.54031 0,0 z" />
        <path
           inkscape:connector-curvature="0"
           id="path4324"
           style="font-style:normal;font-variant:normal;font-weight:normal;font-stretch:normal;font-family:Digital;-inkscape-font-specification:Digital;fill:#ff00ff;fill-opacity:1"
           d="m 159.15441,878.49613 0.54031,-0.54031 4.15674,0 0.54031,0.54031 -0.54031,0.54645 -4.15674,0 -0.54031,-0.54645 0,0 z m 0,3.7515 0.54031,-0.53418 4.15674,0 0.54031,0.53418 -0.54031,0.54645 -4.15674,0 -0.54031,-0.54645 0,0 z m 0,3.75763 0.54031,-0.54031 4.15674,0 0.54031,0.54031 -0.54031,0.54032 -4.15674,0 -0.54031,-0.54032 0,0 z m 5.23736,-3.75763 0.54031,0.54645 0,2.67087 -0.54031,0.54031 -0.54031,-0.54031 0,-2.67087 0.54031,-0.54645 0,0 z m 0,-3.7515 0.54031,0.54645 0,2.67087 -0.54031,0.53418 -0.54031,-0.53418 0,-2.67087 0.54031,-0.54645 0,0 z m -5.23736,0 -0.54031,0.54645 0,2.67087 0.54031,0.53418 0.54031,-0.53418 0,-2.67087 -0.54031,-0.54645 0,0 z m 0,7.50913 -0.54031,-0.54031 0,-2.67087 0.54031,-0.54645 0.54031,0.54645 0,2.67087 -0.54031,0.54031 0,0 z" />
        <path
           inkscape:connector-curvature="0"
           id="path4326"
           style="font-style:normal;font-variant:normal;font-weight:normal;font-stretch:normal;font-family:Digital;-inkscape-font-specification:Digital;fill:#ff00ff;fill-opacity:1"
           d="m 166.69424,878.49613 0.54031,-0.54031 4.15673,0 0.54032,0.54031 -0.54032,0.54645 -4.15673,0 -0.54031,-0.54645 0,0 z m 0,3.7515 0.54031,-0.53418 4.15673,0 0.54032,0.53418 -0.54032,0.54645 -4.15673,0 -0.54031,-0.54645 0,0 z m 0,3.75763 0.54031,-0.54031 4.15673,0 0.54032,0.54031 -0.54032,0.54032 -4.15673,0 -0.54031,-0.54032 0,0 z m 5.23736,-3.75763 0.54031,0.54645 0,2.67087 -0.54031,0.54031 -0.54032,-0.54031 0,-2.67087 0.54032,-0.54645 0,0 z m 0,-3.7515 0.54031,0.54645 0,2.67087 -0.54031,0.53418 -0.54032,-0.53418 0,-2.67087 0.54032,-0.54645 0,0 z m -5.23736,0 -0.54032,0.54645 0,2.67087 0.54032,0.53418 0.54031,-0.53418 0,-2.67087 -0.54031,-0.54645 0,0 z m 0,7.50913 -0.54032,-0.54031 0,-2.67087 0.54032,-0.54645 0.54031,0.54645 0,2.67087 -0.54031,0.54031 0,0 z" />
        <path
           inkscape:connector-curvature="0"
           id="path4328"
           style="font-style:normal;font-variant:normal;font-weight:normal;font-stretch:normal;font-family:Digital;-inkscape-font-specification:Digital;fill:#ff00ff;fill-opacity:1"
           d="m 174.23408,878.49613 0.54031,-0.54031 4.15673,0 0.54032,0.54031 -0.54032,0.54645 -4.15673,0 -0.54031,-0.54645 0,0 z m 0,3.7515 0.54031,-0.53418 4.15673,0 0.54032,0.53418 -0.54032,0.54645 -4.15673,0 -0.54031,-0.54645 0,0 z m 0,3.75763 0.54031,-0.54031 4.15673,0 0.54032,0.54031 -0.54032,0.54032 -4.15673,0 -0.54031,-0.54032 0,0 z m 5.23736,-3.75763 0.54031,0.54645 0,2.67087 -0.54031,0.54031 -0.54032,-0.54031 0,-2.67087 0.54032,-0.54645 0,0 z m 0,-3.7515 0.54031,0.54645 0,2.67087 -0.54031,0.53418 -0.54032,-0.53418 0,-2.67087 0.54032,-0.54645 0,0 z m -5.23736,0 -0.54032,0.54645 0,2.67087 0.54032,0.53418 0.54031,-0.53418 0,-2.67087 -0.54031,-0.54645 0,0 z m 0,7.50913 -0.54032,-0.54031 0,-2.67087 0.54032,-0.54645 0.54031,0.54645 0,2.67087 -0.54031,0.54031 0,0 z" />
        <path
           inkscape:connector-curvature="0"
           id="path4330"
           style="font-style:normal;font-variant:normal;font-weight:normal;font-stretch:normal;font-family:Digital;-inkscape-font-specification:Digital;fill:#ff00ff;fill-opacity:1"
           d="m 181.7739,878.49613 0.54032,-0.54031 4.15673,0 0.54031,0.54031 -0.54031,0.54645 -4.15673,0 -0.54032,-0.54645 0,0 z m 0,3.7515 0.54032,-0.53418 4.15673,0 0.54031,0.53418 -0.54031,0.54645 -4.15673,0 -0.54032,-0.54645 0,0 z m 0,3.75763 0.54032,-0.54031 4.15673,0 0.54031,0.54031 -0.54031,0.54032 -4.15673,0 -0.54032,-0.54032 0,0 z m 5.23736,-3.75763 0.54032,0.54645 0,2.67087 -0.54032,0.54031 -0.54031,-0.54031 0,-2.67087 0.54031,-0.54645 0,0 z m 0,-3.7515 0.54032,0.54645 0,2.67087 -0.54032,0.53418 -0.54031,-0.53418 0,-2.67087 0.54031,-0.54645 0,0 z m -5.23736,0 -0.54031,0.54645 0,2.67087 0.54031,0.53418 0.54032,-0.53418 0,-2.67087 -0.54032,-0.54645 0,0 z m 0,7.50913 -0.54031,-0.54031 0,-2.67087 0.54031,-0.54645 0.54032,0.54645 0,2.67087 -0.54032,0.54031 0,0 z" />
        <path
           inkscape:connector-curvature="0"
           id="path4332"
           style="font-style:normal;font-variant:normal;font-weight:normal;font-stretch:normal;font-family:Digital;-inkscape-font-specification:Digital;fill:#ff00ff;fill-opacity:1"
           d="m 189.31374,878.49613 0.54032,-0.54031 4.15673,0 0.54031,0.54031 -0.54031,0.54645 -4.15673,0 -0.54032,-0.54645 0,0 z m 0,3.7515 0.54032,-0.53418 4.15673,0 0.54031,0.53418 -0.54031,0.54645 -4.15673,0 -0.54032,-0.54645 0,0 z m 0,3.75763 0.54032,-0.54031 4.15673,0 0.54031,0.54031 -0.54031,0.54032 -4.15673,0 -0.54032,-0.54032 0,0 z m 5.23736,-3.75763 0.54032,0.54645 0,2.67087 -0.54032,0.54031 -0.54031,-0.54031 0,-2.67087 0.54031,-0.54645 0,0 z m 0,-3.7515 0.54032,0.54645 0,2.67087 -0.54032,0.53418 -0.54031,-0.53418 0,-2.67087 0.54031,-0.54645 0,0 z m -5.23736,0 -0.54031,0.54645 0,2.67087 0.54031,0.53418 0.54032,-0.53418 0,-2.67087 -0.54032,-0.54645 0,0 z m 0,7.50913 -0.54031,-0.54031 0,-2.67087 0.54031,-0.54645 0.54032,0.54645 0,2.67087 -0.54032,0.54031 0,0 z" />
        <path
           inkscape:connector-curvature="0"
           id="path4334"
           style="font-style:normal;font-variant:normal;font-weight:normal;font-stretch:normal;font-family:Digital;-inkscape-font-specification:Digital;fill:#ff00ff;fill-opacity:1"
           d="m 196.85358,878.49613 0.54032,-0.54031 4.15673,0 0.54031,0.54031 -0.54031,0.54645 -4.15673,0 -0.54032,-0.54645 0,0 z m 0,3.7515 0.54032,-0.53418 4.15673,0 0.54031,0.53418 -0.54031,0.54645 -4.15673,0 -0.54032,-0.54645 0,0 z m 0,3.75763 0.54032,-0.54031 4.15673,0 0.54031,0.54031 -0.54031,0.54032 -4.15673,0 -0.54032,-0.54032 0,0 z m 5.23736,-3.75763 0.54032,0.54645 0,2.67087 -0.54032,0.54031 -0.54031,-0.54031 0,-2.67087 0.54031,-0.54645 0,0 z m 0,-3.7515 0.54032,0.54645 0,2.67087 -0.54032,0.53418 -0.54031,-0.53418 0,-2.67087 0.54031,-0.54645 0,0 z m -5.23736,0 -0.54031,0.54645 0,2.67087 0.54031,0.53418 0.54032,-0.53418 0,-2.67087 -0.54032,-0.54645 0,0 z m 0,7.50913 -0.54031,-0.54031 0,-2.67087 0.54031,-0.54645 0.54032,0.54645 0,2.67087 -0.54032,0.54031 0,0 z" />
        <path
           inkscape:connector-curvature="0"
           id="path4336"
           style="font-style:normal;font-variant:normal;font-weight:normal;font-stretch:normal;font-family:Digital;-inkscape-font-specification:Digital;fill:#ff00ff;fill-opacity:1"
           d="m 204.39341,878.49613 0.54031,-0.54031 4.15673,0 0.54032,0.54031 -0.54032,0.54645 -4.15673,0 -0.54031,-0.54645 0,0 z m 0,3.7515 0.54031,-0.53418 4.15673,0 0.54032,0.53418 -0.54032,0.54645 -4.15673,0 -0.54031,-0.54645 0,0 z m 0,3.75763 0.54031,-0.54031 4.15673,0 0.54032,0.54031 -0.54032,0.54032 -4.15673,0 -0.54031,-0.54032 0,0 z m 5.23736,-3.75763 0.54031,0.54645 0,2.67087 -0.54031,0.54031 -0.54032,-0.54031 0,-2.67087 0.54032,-0.54645 0,0 z m 0,-3.7515 0.54031,0.54645 0,2.67087 -0.54031,0.53418 -0.54032,-0.53418 0,-2.67087 0.54032,-0.54645 0,0 z m -5.23736,0 -0.54032,0.54645 0,2.67087 0.54032,0.53418 0.54031,-0.53418 0,-2.67087 -0.54031,-0.54645 0,0 z m 0,7.50913 -0.54032,-0.54031 0,-2.67087 0.54032,-0.54645 0.54031,0.54645 0,2.67087 -0.54031,0.54031 0,0 z" />
        <path
           inkscape:connector-curvature="0"
           id="path4338"
           style="font-style:normal;font-variant:normal;font-weight:normal;font-stretch:normal;font-family:Digital;-inkscape-font-specification:Digital;fill:#ff00ff;fill-opacity:1"
           d="m 211.93325,878.49613 0.54031,-0.54031 4.15674,0 0.54031,0.54031 -0.54031,0.54645 -4.15674,0 -0.54031,-0.54645 0,0 z m 0,3.7515 0.54031,-0.53418 4.15674,0 0.54031,0.53418 -0.54031,0.54645 -4.15674,0 -0.54031,-0.54645 0,0 z m 0,3.75763 0.54031,-0.54031 4.15674,0 0.54031,0.54031 -0.54031,0.54032 -4.15674,0 -0.54031,-0.54032 0,0 z m 5.23736,-3.75763 0.54031,0.54645 0,2.67087 -0.54031,0.54031 -0.54031,-0.54031 0,-2.67087 0.54031,-0.54645 0,0 z m 0,-3.7515 0.54031,0.54645 0,2.67087 -0.54031,0.53418 -0.54031,-0.53418 0,-2.67087 0.54031,-0.54645 0,0 z m -5.23736,0 -0.54032,0.54645 0,2.67087 0.54032,0.53418 0.54031,-0.53418 0,-2.67087 -0.54031,-0.54645 0,0 z m 0,7.50913 -0.54032,-0.54031 0,-2.67087 0.54032,-0.54645 0.54031,0.54645 0,2.67087 -0.54031,0.54031 0,0 z" />
        <path
           inkscape:connector-curvature="0"
           id="path4340"
           style="font-style:normal;font-variant:normal;font-weight:normal;font-stretch:normal;font-family:Digital;-inkscape-font-specification:Digital;fill:#ff00ff;fill-opacity:1"
           d="m 219.47307,878.49613 0.54032,-0.54031 4.15673,0 0.54031,0.54031 -0.54031,0.54645 -4.15673,0 -0.54032,-0.54645 0,0 z m 0,3.7515 0.54032,-0.53418 4.15673,0 0.54031,0.53418 -0.54031,0.54645 -4.15673,0 -0.54032,-0.54645 0,0 z m 0,3.75763 0.54032,-0.54031 4.15673,0 0.54031,0.54031 -0.54031,0.54032 -4.15673,0 -0.54032,-0.54032 0,0 z m 5.23736,-3.75763 0.54032,0.54645 0,2.67087 -0.54032,0.54031 -0.54031,-0.54031 0,-2.67087 0.54031,-0.54645 0,0 z m 0,-3.7515 0.54032,0.54645 0,2.67087 -0.54032,0.53418 -0.54031,-0.53418 0,-2.67087 0.54031,-0.54645 0,0 z m -5.23736,0 -0.54031,0.54645 0,2.67087 0.54031,0.53418 0.54032,-0.53418 0,-2.67087 -0.54032,-0.54645 0,0 z m 0,7.50913 -0.54031,-0.54031 0,-2.67087 0.54031,-0.54645 0.54032,0.54645 0,2.67087 -0.54032,0.54031 0,0 z" />
        <path
           inkscape:connector-curvature="0"
           id="path4342"
           style="font-style:normal;font-variant:normal;font-weight:normal;font-stretch:normal;font-family:Digital;-inkscape-font-specification:Digital;fill:#ff00ff;fill-opacity:1"
           d="m 227.01291,878.49613 0.54032,-0.54031 4.15673,0 0.54032,0.54031 -0.54032,0.54645 -4.15673,0 -0.54032,-0.54645 0,0 z m 0,3.7515 0.54032,-0.53418 4.15673,0 0.54032,0.53418 -0.54032,0.54645 -4.15673,0 -0.54032,-0.54645 0,0 z m 0,3.75763 0.54032,-0.54031 4.15673,0 0.54032,0.54031 -0.54032,0.54032 -4.15673,0 -0.54032,-0.54032 0,0 z m 5.23737,-3.75763 0.54031,0.54645 0,2.67087 -0.54031,0.54031 -0.54032,-0.54031 0,-2.67087 0.54032,-0.54645 0,0 z m 0,-3.7515 0.54031,0.54645 0,2.67087 -0.54031,0.53418 -0.54032,-0.53418 0,-2.67087 0.54032,-0.54645 0,0 z m -5.23737,0 -0.54031,0.54645 0,2.67087 0.54031,0.53418 0.54032,-0.53418 0,-2.67087 -0.54032,-0.54645 0,0 z m 0,7.50913 -0.54031,-0.54031 0,-2.67087 0.54031,-0.54645 0.54032,0.54645 0,2.67087 -0.54032,0.54031 0,0 z" />
      </g>
    </g>
  </g>
</svg>
