<?xml version="1.0" encoding="UTF-8" standalone="no"?>
<!-- Created with Inkscape (http://www.inkscape.org/) -->

<svg
   xmlns:dc="http://purl.org/dc/elements/1.1/"
   xmlns:cc="http://creativecommons.org/ns#"
   xmlns:rdf="http://www.w3.org/1999/02/22-rdf-syntax-ns#"
   xmlns:svg="http://www.w3.org/2000/svg"
   xmlns="http://www.w3.org/2000/svg"
   xmlns:xlink="http://www.w3.org/1999/xlink"
   xmlns:sodipodi="http://sodipodi.sourceforge.net/DTD/sodipodi-0.dtd"
   xmlns:inkscape="http://www.inkscape.org/namespaces/inkscape"
   width="100"
   height="50"
   viewBox="0 0 100 50"
   id="svg2"
   version="1.1"
   inkscape:version="0.91 r13725"
   sodipodi:docname="background_latency.svg">
  <defs
     id="defs4">
    <linearGradient
       id="linearGradient4567"
       inkscape:collect="always">
      <stop
         id="stop4569"
         offset="0"
         style="stop-color:#333333;stop-opacity:1" />
      <stop
         id="stop4571"
         offset="1"
         style="stop-color:#4d4d4d;stop-opacity:1" />
    </linearGradient>
    <linearGradient
       inkscape:collect="always"
       xlink:href="#linearGradient5254"
       id="linearGradient5268"
       x1="768.05304"
       y1="119.70206"
       x2="768.05304"
       y2="129.62889"
       gradientUnits="userSpaceOnUse"
       gradientTransform="matrix(-1.4359055,0,0,-1.3143221,1153.0409,1205.1205)" />
    <linearGradient
       inkscape:collect="always"
       id="linearGradient5254">
      <stop
         style="stop-color:#333333;stop-opacity:1"
         offset="0"
         id="stop5256" />
      <stop
         style="stop-color:#000000;stop-opacity:1"
         offset="1"
         id="stop5258" />
    </linearGradient>
    <radialGradient
       inkscape:collect="always"
       xlink:href="#linearGradient4567"
       id="radialGradient4204-9"
       cx="782.2132"
       cy="235.43402"
       fx="782.2132"
       fy="235.43402"
       r="32.034878"
       gradientTransform="matrix(-0.74695743,-0.01135828,0,-0.66862773,634.46919,1214.0959)"
       gradientUnits="userSpaceOnUse" />
    <radialGradient
       inkscape:collect="always"
       xlink:href="#linearGradient5282"
       id="radialGradient4196-1"
       cx="767.797"
       cy="229.94647"
       fx="767.797"
       fy="229.94646"
       r="32.034878"
       gradientTransform="matrix(-2.8962432e-5,0.81914716,-60.804824,-6.6685631e-4,14031.916,398.57688)"
       gradientUnits="userSpaceOnUse" />
    <linearGradient
       id="linearGradient5282"
       inkscape:collect="always">
      <stop
         id="stop5284"
         offset="0"
         style="stop-color:#b3b3b3;stop-opacity:1" />
      <stop
         id="stop5286"
         offset="1"
         style="stop-color:#1a1a1a;stop-opacity:1" />
    </linearGradient>
  </defs>
  <sodipodi:namedview
     id="base"
     pagecolor="#ffffff"
     bordercolor="#666666"
     borderopacity="1.0"
     inkscape:pageopacity="0.0"
     inkscape:pageshadow="2"
     inkscape:zoom="8.8552048"
     inkscape:cx="36.702786"
     inkscape:cy="29.799732"
     inkscape:document-units="px"
     inkscape:current-layer="layer1"
     showgrid="false"
     units="px"
     inkscape:window-width="1920"
     inkscape:window-height="1028"
     inkscape:window-x="-8"
     inkscape:window-y="-8"
     inkscape:window-maximized="1"
     objecttolerance="10"
     guidetolerance="9" />
  <metadata
     id="metadata7">
    <rdf:RDF>
      <cc:Work
         rdf:about="">
        <dc:format>image/svg+xml</dc:format>
        <dc:type
           rdf:resource="http://purl.org/dc/dcmitype/StillImage" />
        <dc:title />
        <dc:creator>
          <cc:Agent>
            <dc:title>Jorge Rosa</dc:title>
          </cc:Agent>
        </dc:creator>
        <dc:description>Email: jorge.bigarte@gmail.com
Site:https://sites.google.com/site/jorgerosaportfolio</dc:description>
      </cc:Work>
    </rdf:RDF>
  </metadata>
  <g
     inkscape:label="Layer 1"
     inkscape:groupmode="layer"
     id="layer1"
     transform="translate(0,-1002.3622)">
    <path
       inkscape:connector-curvature="0"
       id="rect4183-9"
       d="m 100,1002.3622 0,50 -100.00000025999999,0 0,-50 z"
       style="opacity:1;fill:url(#radialGradient4196-1);fill-opacity:1;stroke:none;stroke-width:0.50199997;stroke-linecap:round;stroke-linejoin:round;stroke-miterlimit:4;stroke-dasharray:none;stroke-dashoffset:0;stroke-opacity:1" />
    <path
       style="opacity:1;fill:url(#linearGradient5268);fill-opacity:1;stroke:url(#radialGradient4204-9);stroke-width:1.09322023;stroke-linecap:round;stroke-linejoin:round;stroke-miterlimit:4;stroke-dasharray:none;stroke-dashoffset:0;stroke-opacity:1"
       d="m 85.227891,1044.8963 -69.643509,0 0,-21.9068 69.643509,0 z"
       id="rect4183-39"
       inkscape:connector-curvature="0" />
    <g
       id="g4173"
       transform="translate(0,-0.771)">
      <g
         transform="translate(10.163514,10.6923)"
         id="text4534-8"
         style="font-style:normal;font-weight:normal;font-size:8.8249445px;line-height:125%;font-family:sans-serif;letter-spacing:0px;word-spacing:0px;fill:#000000;fill-opacity:1;stroke:none;stroke-width:1px;stroke-linecap:butt;stroke-linejoin:miter;stroke-opacity:1">
        <path
           inkscape:connector-curvature="0"
           id="path4177"
           style="font-style:normal;font-variant:normal;font-weight:normal;font-stretch:normal;font-family:'Estrangelo Edessa';-inkscape-font-specification:'Estrangelo Edessa';fill:#000000"
           d="m 14.01325,1007.342 -0.909211,0 -0.624813,-1.5987 -2.145909,0 -0.5817228,1.5987 -0.9092106,0 2.1631454,-5.5759 0.818721,0 2.189,5.5759 z m -2.494943,-4.2358 q -0.02155,-0.06 -0.05602,-0.1724 -0.03016,-0.1163 -0.05171,-0.2413 l -0.01724,0 q -0.02155,0.1336 -0.05602,0.2499 -0.03016,0.1121 -0.06033,0.1896 l -0.676522,1.8702 1.624514,0 -0.706685,-1.896 z" />
        <path
           inkscape:connector-curvature="0"
           id="path4179"
           style="font-style:normal;font-variant:normal;font-weight:normal;font-stretch:normal;font-family:'Estrangelo Edessa';-inkscape-font-specification:'Estrangelo Edessa';fill:#000000"
           d="m 17.076988,1006.7258 q 0.314561,0 0.573104,-0.095 0.258543,-0.099 0.439524,-0.2887 0.185289,-0.1939 0.284397,-0.4826 0.103418,-0.2931 0.103418,-0.6809 l 0,-3.4127 0.840265,0 0,3.3093 q 0,0.5904 -0.159435,1.0342 -0.159435,0.4438 -0.461069,0.7411 -0.301633,0.2931 -0.732539,0.4439 -0.430905,0.1465 -0.969537,0.1465 -0.512778,0 -0.926447,-0.1422 -0.40936,-0.1465 -0.702376,-0.4309 -0.288707,-0.2887 -0.448142,-0.7153 -0.155126,-0.4266 -0.155126,-0.9911 l 0,-3.3955 0.848884,0 0,3.361 q 0,0.3965 0.103417,0.6981 0.103418,0.2973 0.293016,0.4998 0.193908,0.1983 0.461069,0.3017 0.27147,0.099 0.607577,0.099 z" />
        <path
           inkscape:connector-curvature="0"
           id="path4181"
           style="font-style:normal;font-variant:normal;font-weight:normal;font-stretch:normal;font-family:'Estrangelo Edessa';-inkscape-font-specification:'Estrangelo Edessa';fill:#000000"
           d="m 24.643688,1004.4549 q 0,-0.5128 -0.163744,-0.8833 -0.159435,-0.3706 -0.461069,-0.6119 -0.297324,-0.2413 -0.732539,-0.3534 -0.430905,-0.1163 -0.973846,-0.1163 l -0.659286,0 0,4.1367 0.581723,0 q 0.551559,0 0.995391,-0.1508 0.448142,-0.1552 0.762703,-0.4353 0.314561,-0.2844 0.482614,-0.6851 0.168053,-0.405 0.168053,-0.9006 z m 0.874739,-0.01 q 0,0.6507 -0.241308,1.185 -0.236998,0.5343 -0.667903,0.9178 -0.430906,0.3792 -1.029864,0.586 -0.598959,0.2069 -1.318571,0.2069 l -1.456461,0 0,-5.5759 1.525406,0 q 0.758394,0 1.348734,0.1723 0.59465,0.1681 1.00401,0.5085 0.40936,0.3361 0.620504,0.8403 0.215453,0.4998 0.215453,1.1591 z" />
        <path
           inkscape:connector-curvature="0"
           id="path4183"
           style="font-style:normal;font-variant:normal;font-weight:normal;font-stretch:normal;font-family:'Estrangelo Edessa';-inkscape-font-specification:'Estrangelo Edessa';fill:#000000"
           d="m 27.616936,1007.342 -0.848884,0 0,-5.5759 0.848884,0 0,5.5759 z" />
        <path
           inkscape:connector-curvature="0"
           id="path4185"
           style="font-style:normal;font-variant:normal;font-weight:normal;font-stretch:normal;font-family:'Estrangelo Edessa';-inkscape-font-specification:'Estrangelo Edessa';fill:#000000"
           d="m 33.261799,1004.5713 q 0,-0.5085 -0.112036,-0.9093 -0.112035,-0.405 -0.331797,-0.6851 -0.219762,-0.2801 -0.542941,-0.4266 -0.323179,-0.1508 -0.745466,-0.1508 -0.405051,0 -0.736849,0.1594 -0.327488,0.1552 -0.560177,0.4396 -0.232689,0.2844 -0.36196,0.6851 -0.124963,0.3964 -0.124963,0.879 0,0.4827 0.120654,0.8791 0.120653,0.3964 0.344724,0.6765 0.22838,0.2801 0.54725,0.4352 0.323179,0.1551 0.719612,0.1551 0.422288,0 0.754085,-0.1421 0.331797,-0.1466 0.560177,-0.418 0.22838,-0.2758 0.349033,-0.6722 0.120654,-0.4008 0.120654,-0.9049 z m 0.870429,-0.09 q 0,0.6765 -0.185289,1.2237 -0.180981,0.543 -0.525705,0.9265 -0.340415,0.3792 -0.831648,0.586 -0.491232,0.2025 -1.111736,0.2025 -0.594649,0 -1.077264,-0.1982 -0.482614,-0.2025 -0.823029,-0.5688 -0.340415,-0.3705 -0.525705,-0.8876 -0.185289,-0.5171 -0.185289,-1.1506 0,-0.6635 0.18098,-1.2022 0.18529,-0.5429 0.534323,-0.9221 0.349033,-0.3835 0.848884,-0.5904 0.504159,-0.2068 1.141899,-0.2068 0.581723,0 1.055719,0.2025 0.473996,0.2026 0.805793,0.5731 0.336106,0.3663 0.517087,0.8791 0.18098,0.5128 0.18098,1.1333 z" />
        <path
           inkscape:connector-curvature="0"
           id="path4187"
           style="font-style:normal;font-variant:normal;font-weight:normal;font-stretch:normal;font-family:'Estrangelo Edessa';-inkscape-font-specification:'Estrangelo Edessa';fill:#000000"
           d="m 39.889124,1007.342 -2.675923,0 0,-5.5759 0.848884,0 0,4.8606 1.827039,0 0,0.7153 z" />
        <path
           inkscape:connector-curvature="0"
           id="path4189"
           style="font-style:normal;font-variant:normal;font-weight:normal;font-stretch:normal;font-family:'Estrangelo Edessa';-inkscape-font-specification:'Estrangelo Edessa';fill:#000000"
           d="m 45.383168,1007.342 -0.90921,0 -0.624813,-1.5987 -2.14591,0 -0.581722,1.5987 -0.909211,0 2.163146,-5.5759 0.81872,0 2.189,5.5759 z m -2.494942,-4.2358 q -0.02155,-0.06 -0.05602,-0.1724 -0.03016,-0.1163 -0.05171,-0.2413 l -0.01724,0 q -0.02155,0.1336 -0.05602,0.2499 -0.03016,0.1121 -0.06033,0.1896 l -0.676521,1.8702 1.624514,0 -0.706685,-1.896 z" />
        <path
           inkscape:connector-curvature="0"
           id="path4191"
           style="font-style:normal;font-variant:normal;font-weight:normal;font-stretch:normal;font-family:'Estrangelo Edessa';-inkscape-font-specification:'Estrangelo Edessa';fill:#000000"
           d="m 49.407827,1002.49 -1.404752,0 0,4.852 -0.844574,0 0,-4.852 -1.41337,0 0,-0.7239 3.662696,0 0,0.7239 z" />
        <path
           inkscape:connector-curvature="0"
           id="path4193"
           style="font-style:normal;font-variant:normal;font-weight:normal;font-stretch:normal;font-family:'Estrangelo Edessa';-inkscape-font-specification:'Estrangelo Edessa';fill:#000000"
           d="m 53.307519,1007.342 -2.787958,0 0,-5.5759 2.77934,0 0,0.7239 -1.939074,0 0,1.6934 1.947692,0 0,0.7153 -1.947692,0 0,1.728 1.947692,0 0,0.7153 z" />
        <path
           inkscape:connector-curvature="0"
           id="path4195"
           style="font-style:normal;font-variant:normal;font-weight:normal;font-stretch:normal;font-family:'Estrangelo Edessa';-inkscape-font-specification:'Estrangelo Edessa';fill:#000000"
           d="m 59.495323,1007.342 -0.831648,0 -2.727631,-3.6196 q -0.03016,-0.034 -0.103418,-0.1379 -0.06894,-0.1077 -0.150817,-0.2327 -0.07756,-0.125 -0.150816,-0.2456 -0.07325,-0.1207 -0.107727,-0.1853 l 0,4.4211 -0.784248,0 0,-5.5759 0.891975,0 2.602669,3.4946 q 0.06464,0.09 0.150817,0.2198 0.08618,0.1249 0.168053,0.2585 0.08187,0.1293 0.150817,0.2499 0.07325,0.1164 0.112035,0.1896 l 0,-4.4124 0.779939,0 0,5.5759 z" />
        <path
           inkscape:connector-curvature="0"
           id="path4197"
           style="font-style:normal;font-variant:normal;font-weight:normal;font-stretch:normal;font-family:'Estrangelo Edessa';-inkscape-font-specification:'Estrangelo Edessa';fill:#000000"
           d="m 61.632615,1004.6143 q 0,0.4697 0.133581,0.8576 0.137889,0.3835 0.383505,0.6592 0.249926,0.2758 0.59465,0.4266 0.349034,0.1508 0.771321,0.1508 0.392124,0 0.77563,-0.1034 0.387815,-0.1034 0.741157,-0.2973 l 0,0.7627 q -0.323179,0.1724 -0.723921,0.2629 -0.400742,0.086 -0.874738,0.086 -0.590341,0 -1.085882,-0.2068 -0.491232,-0.2068 -0.848884,-0.5774 -0.353342,-0.3706 -0.551559,-0.8834 -0.193907,-0.517 -0.193907,-1.1376 0,-0.6377 0.211143,-1.172 0.211144,-0.5386 0.581723,-0.9265 0.374888,-0.3878 0.883356,-0.6032 0.512778,-0.2198 1.111736,-0.2198 0.202526,0 0.40936,0.026 0.206835,0.021 0.405052,0.065 0.198216,0.039 0.374887,0.095 0.180981,0.052 0.327489,0.1163 l 0,0.7584 q -0.150817,-0.065 -0.336107,-0.1292 -0.185289,-0.065 -0.383506,-0.1121 -0.198216,-0.052 -0.405051,-0.082 -0.206834,-0.03 -0.400742,-0.03 -0.405051,0 -0.754084,0.1594 -0.344725,0.1552 -0.598959,0.4439 -0.254234,0.2887 -0.400742,0.698 -0.146508,0.4094 -0.146508,0.9135 z" />
        <path
           inkscape:connector-curvature="0"
           id="path4199"
           style="font-style:normal;font-variant:normal;font-weight:normal;font-stretch:normal;font-family:'Estrangelo Edessa';-inkscape-font-specification:'Estrangelo Edessa';fill:#000000"
           d="m 70.155926,1001.7661 -1.904603,3.2274 0,2.3485 -0.848883,0 0,-2.3226 -1.904603,-3.2533 0.943683,0 1.163445,2.0812 q 0.02585,0.043 0.05602,0.1035 0.03016,0.06 0.06033,0.1249 0.03447,0.065 0.06463,0.1336 0.03016,0.065 0.05171,0.1163 0.02155,-0.056 0.0474,-0.1206 0.02585,-0.065 0.05171,-0.1293 0.03016,-0.065 0.05602,-0.1206 0.03016,-0.06 0.05602,-0.099 l 1.215153,-2.0899 0.891975,0 z" />
      </g>
      <g
         transform="translate(10.163514,10.6923)"
         id="text4534"
         style="font-style:normal;font-weight:normal;font-size:8.8249445px;line-height:125%;font-family:sans-serif;letter-spacing:0px;word-spacing:0px;fill:#333333;fill-opacity:1;stroke:none;stroke-width:1px;stroke-linecap:butt;stroke-linejoin:miter;stroke-opacity:1">
        <path
           inkscape:connector-curvature="0"
           id="path4152"
           style="font-style:normal;font-variant:normal;font-weight:normal;font-stretch:normal;font-family:'Estrangelo Edessa';-inkscape-font-specification:'Estrangelo Edessa';fill:#333333"
           d="m 14.072835,1006.6259 -0.90921,0 -0.624813,-1.5986 -2.14591,0 -0.5817222,1.5986 -0.9092106,0 2.1631458,-5.5759 0.81872,0 2.189,5.5759 z m -2.494943,-4.2358 q -0.02154,-0.06 -0.05602,-0.1723 -0.03016,-0.1164 -0.05171,-0.2414 l -0.01724,0 q -0.02155,0.1336 -0.05602,0.25 -0.03016,0.112 -0.06033,0.1896 l -0.676521,1.8701 1.624513,0 -0.706685,-1.896 z" />
        <path
           inkscape:connector-curvature="0"
           id="path4154"
           style="font-style:normal;font-variant:normal;font-weight:normal;font-stretch:normal;font-family:'Estrangelo Edessa';-inkscape-font-specification:'Estrangelo Edessa';fill:#333333"
           d="m 17.136573,1006.0097 q 0.314561,0 0.573105,-0.095 0.258543,-0.099 0.439523,-0.2887 0.18529,-0.1939 0.284398,-0.4826 0.103417,-0.293 0.103417,-0.6808 l 0,-3.4128 0.840266,0 0,3.3094 q 0,0.5903 -0.159435,1.0341 -0.159435,0.4439 -0.461069,0.7412 -0.301634,0.293 -0.732539,0.4438 -0.430906,0.1465 -0.969538,0.1465 -0.512777,0 -0.926447,-0.1422 -0.40936,-0.1465 -0.702376,-0.4309 -0.288706,-0.2887 -0.448141,-0.7153 -0.155126,-0.4266 -0.155126,-0.9911 l 0,-3.3955 0.848884,0 0,3.3611 q 0,0.3964 0.103417,0.698 0.103417,0.2974 0.293016,0.4999 0.193907,0.1982 0.461069,0.3016 0.27147,0.099 0.607576,0.099 z" />
        <path
           inkscape:connector-curvature="0"
           id="path4156"
           style="font-style:normal;font-variant:normal;font-weight:normal;font-stretch:normal;font-family:'Estrangelo Edessa';-inkscape-font-specification:'Estrangelo Edessa';fill:#333333"
           d="m 24.703274,1003.7388 q 0,-0.5127 -0.163744,-0.8833 -0.159435,-0.3706 -0.461069,-0.6119 -0.297325,-0.2413 -0.732539,-0.3533 -0.430906,-0.1164 -0.973847,-0.1164 l -0.659285,0 0,4.1367 0.581722,0 q 0.551559,0 0.995392,-0.1508 0.448142,-0.1551 0.762703,-0.4352 0.314561,-0.2844 0.482614,-0.6852 0.168053,-0.405 0.168053,-0.9006 z m 0.874738,-0.01 q 0,0.6507 -0.241307,1.185 -0.236998,0.5343 -0.667903,0.9178 -0.430906,0.3792 -1.029865,0.5861 -0.598958,0.2068 -1.31857,0.2068 l -1.456461,0 0,-5.5759 1.525405,0 q 0.758394,0 1.348735,0.1724 0.594649,0.168 1.004009,0.5084 0.409361,0.3361 0.620504,0.8403 0.215453,0.4998 0.215453,1.1591 z" />
        <path
           inkscape:connector-curvature="0"
           id="path4158"
           style="font-style:normal;font-variant:normal;font-weight:normal;font-stretch:normal;font-family:'Estrangelo Edessa';-inkscape-font-specification:'Estrangelo Edessa';fill:#333333"
           d="m 27.676522,1006.6259 -0.848884,0 0,-5.5759 0.848884,0 0,5.5759 z" />
        <path
           inkscape:connector-curvature="0"
           id="path4160"
           style="font-style:normal;font-variant:normal;font-weight:normal;font-stretch:normal;font-family:'Estrangelo Edessa';-inkscape-font-specification:'Estrangelo Edessa';fill:#333333"
           d="m 33.321384,1003.8552 q 0,-0.5085 -0.112035,-0.9092 -0.112035,-0.4051 -0.331797,-0.6852 -0.219762,-0.28 -0.542941,-0.4266 -0.323179,-0.1508 -0.745467,-0.1508 -0.405051,0 -0.736848,0.1595 -0.327488,0.1551 -0.560177,0.4395 -0.232689,0.2844 -0.361961,0.6851 -0.124962,0.3965 -0.124962,0.8791 0,0.4826 0.120653,0.879 0.120654,0.3965 0.344725,0.6765 0.228379,0.2801 0.54725,0.4353 0.323179,0.1551 0.719612,0.1551 0.422287,0 0.754084,-0.1422 0.331798,-0.1465 0.560177,-0.418 0.22838,-0.2758 0.349034,-0.6722 0.120653,-0.4007 0.120653,-0.9049 z m 0.87043,-0.091 q 0,0.6765 -0.18529,1.2238 -0.18098,0.5429 -0.525705,0.9264 -0.340415,0.3792 -0.831647,0.5861 -0.491232,0.2025 -1.111736,0.2025 -0.59465,0 -1.077264,-0.1982 -0.482614,-0.2026 -0.82303,-0.5688 -0.340415,-0.3706 -0.525704,-0.8877 -0.18529,-0.5171 -0.18529,-1.1505 0,-0.6636 0.180981,-1.2022 0.185289,-0.543 0.534323,-0.9222 0.349033,-0.3835 0.848883,-0.5903 0.50416,-0.2069 1.1419,-0.2069 0.581722,0 1.055718,0.2026 0.473996,0.2025 0.805794,0.5731 0.336106,0.3662 0.517086,0.879 0.180981,0.5128 0.180981,1.1333 z" />
        <path
           inkscape:connector-curvature="0"
           id="path4162"
           style="font-style:normal;font-variant:normal;font-weight:normal;font-stretch:normal;font-family:'Estrangelo Edessa';-inkscape-font-specification:'Estrangelo Edessa';fill:#333333"
           d="m 39.948709,1006.6259 -2.675923,0 0,-5.5759 0.848884,0 0,4.8606 1.827039,0 0,0.7153 z" />
        <path
           inkscape:connector-curvature="0"
           id="path4164"
           style="font-style:normal;font-variant:normal;font-weight:normal;font-stretch:normal;font-family:'Estrangelo Edessa';-inkscape-font-specification:'Estrangelo Edessa';fill:#333333"
           d="m 45.442754,1006.6259 -0.909211,0 -0.624813,-1.5986 -2.145909,0 -0.581722,1.5986 -0.909211,0 2.163146,-5.5759 0.81872,0 2.189,5.5759 z m -2.494943,-4.2358 q -0.02155,-0.06 -0.05602,-0.1723 -0.03016,-0.1164 -0.05171,-0.2414 l -0.01724,0 q -0.02155,0.1336 -0.05602,0.25 -0.03016,0.112 -0.06033,0.1896 l -0.676522,1.8701 1.624514,0 -0.706685,-1.896 z" />
        <path
           inkscape:connector-curvature="0"
           id="path4166"
           style="font-style:normal;font-variant:normal;font-weight:normal;font-stretch:normal;font-family:'Estrangelo Edessa';-inkscape-font-specification:'Estrangelo Edessa';fill:#333333"
           d="m 49.467413,1001.7739 -1.404752,0 0,4.852 -0.844575,0 0,-4.852 -1.41337,0 0,-0.7239 3.662697,0 0,0.7239 z" />
        <path
           inkscape:connector-curvature="0"
           id="path4168"
           style="font-style:normal;font-variant:normal;font-weight:normal;font-stretch:normal;font-family:'Estrangelo Edessa';-inkscape-font-specification:'Estrangelo Edessa';fill:#333333"
           d="m 53.367105,1006.6259 -2.787958,0 0,-5.5759 2.77934,0 0,0.7239 -1.939075,0 0,1.6935 1.947693,0 0,0.7153 -1.947693,0 0,1.7279 1.947693,0 0,0.7153 z" />
        <path
           inkscape:connector-curvature="0"
           id="path4170"
           style="font-style:normal;font-variant:normal;font-weight:normal;font-stretch:normal;font-family:'Estrangelo Edessa';-inkscape-font-specification:'Estrangelo Edessa';fill:#333333"
           d="m 59.554909,1006.6259 -0.831648,0 -2.727632,-3.6196 q -0.03016,-0.034 -0.103417,-0.1379 -0.06894,-0.1077 -0.150817,-0.2327 -0.07756,-0.1249 -0.150817,-0.2456 -0.07325,-0.1206 -0.107726,-0.1853 l 0,4.4211 -0.784248,0 0,-5.5759 0.891974,0 2.602669,3.4946 q 0.06464,0.091 0.150817,0.2198 0.08618,0.125 0.168053,0.2585 0.08187,0.1293 0.150817,0.25 0.07325,0.1163 0.112036,0.1896 l 0,-4.4125 0.779939,0 0,5.5759 z" />
        <path
           inkscape:connector-curvature="0"
           id="path4172"
           style="font-style:normal;font-variant:normal;font-weight:normal;font-stretch:normal;font-family:'Estrangelo Edessa';-inkscape-font-specification:'Estrangelo Edessa';fill:#333333"
           d="m 61.6922,1003.8983 q 0,0.4697 0.133581,0.8575 0.13789,0.3835 0.383506,0.6593 0.249925,0.2758 0.59465,0.4266 0.349033,0.1508 0.77132,0.1508 0.392124,0 0.77563,-0.1034 0.387815,-0.1035 0.741158,-0.2974 l 0,0.7627 q -0.323179,0.1724 -0.723921,0.2629 -0.400743,0.086 -0.874739,0.086 -0.59034,0 -1.085881,-0.2069 -0.491233,-0.2068 -0.848884,-0.5774 -0.353343,-0.3705 -0.551559,-0.8833 -0.193908,-0.5171 -0.193908,-1.1376 0,-0.6378 0.211144,-1.1721 0.211144,-0.5386 0.581722,-0.9264 0.374888,-0.3878 0.883357,-0.6033 0.512777,-0.2198 1.111736,-0.2198 0.202525,0 0.40936,0.026 0.206835,0.021 0.405051,0.065 0.198217,0.039 0.374888,0.095 0.18098,0.052 0.327488,0.1164 l 0,0.7584 q -0.150817,-0.065 -0.336106,-0.1293 -0.18529,-0.065 -0.383506,-0.112 -0.198217,-0.052 -0.405051,-0.082 -0.206835,-0.03 -0.400742,-0.03 -0.405051,0 -0.754085,0.1595 -0.344724,0.1551 -0.598959,0.4438 -0.254234,0.2887 -0.400742,0.6981 -0.146508,0.4093 -0.146508,0.9135 z" />
        <path
           inkscape:connector-curvature="0"
           id="path4174"
           style="font-style:normal;font-variant:normal;font-weight:normal;font-stretch:normal;font-family:'Estrangelo Edessa';-inkscape-font-specification:'Estrangelo Edessa';fill:#333333"
           d="m 70.215511,1001.05 -1.904602,3.2275 0,2.3484 -0.848884,0 0,-2.3226 -1.904602,-3.2533 0.943683,0 1.163445,2.0813 q 0.02585,0.043 0.05602,0.1034 0.03016,0.06 0.06033,0.125 0.03447,0.065 0.06464,0.1335 0.03016,0.065 0.05171,0.1164 0.02155,-0.056 0.0474,-0.1207 0.02586,-0.065 0.05171,-0.1292 0.03016,-0.065 0.05602,-0.1207 0.03016,-0.06 0.05602,-0.099 l 1.215154,-2.0899 0.891974,0 z" />
      </g>
    </g>
  </g>
</svg>
