<?xml version="1.0" encoding="UTF-8" standalone="no"?>
<!-- Created with Inkscape (http://www.inkscape.org/) -->

<svg
   xmlns:dc="http://purl.org/dc/elements/1.1/"
   xmlns:cc="http://creativecommons.org/ns#"
   xmlns:rdf="http://www.w3.org/1999/02/22-rdf-syntax-ns#"
   xmlns:svg="http://www.w3.org/2000/svg"
   xmlns="http://www.w3.org/2000/svg"
   xmlns:xlink="http://www.w3.org/1999/xlink"
   xmlns:sodipodi="http://sodipodi.sourceforge.net/DTD/sodipodi-0.dtd"
   xmlns:inkscape="http://www.inkscape.org/namespaces/inkscape"
   width="60"
   height="25"
   viewBox="0 0 60 25"
   id="svg2"
   version="1.1"
   inkscape:version="0.91 r13725"
   sodipodi:docname="btn_tap1.svg">
  <defs
     id="defs4">
    <linearGradient
       inkscape:collect="always"
       id="linearGradient4733">
      <stop
         style="stop-color:#170b28;stop-opacity:1"
         offset="0"
         id="stop4735" />
      <stop
         style="stop-color:#000000;stop-opacity:1"
         offset="1"
         id="stop4737" />
    </linearGradient>
    <radialGradient
       inkscape:collect="always"
       xlink:href="#linearGradient4733"
       id="radialGradient4725-4-0-0"
       cx="748.02911"
       cy="151.74173"
       fx="748.02911"
       fy="151.74147"
       r="24.596836"
       gradientTransform="matrix(1.0885399,3.9334849e-6,3.0377081e-6,0.39529823,-783.46443,978.65716)"
       gradientUnits="userSpaceOnUse" />
    <radialGradient
       inkscape:collect="always"
       xlink:href="#linearGradient4199"
       id="radialGradient4205"
       cx="49.846584"
       cy="1037.3231"
       fx="49.846584"
       fy="1037.3231"
       r="46.630676"
       gradientTransform="matrix(13.368693,0,0,0.22192278,-636.49498,807.5958)"
       gradientUnits="userSpaceOnUse" />
    <linearGradient
       inkscape:collect="always"
       id="linearGradient4199">
      <stop
         style="stop-color:#999999;stop-opacity:1"
         offset="0"
         id="stop4201" />
      <stop
         style="stop-color:#1a1a1a;stop-opacity:1"
         offset="1"
         id="stop4203" />
    </linearGradient>
    <pattern
       y="0"
       x="0"
       height="6"
       width="6"
       patternUnits="userSpaceOnUse"
       id="EMFhbasepattern" />
  </defs>
  <sodipodi:namedview
     id="base"
     pagecolor="#ffffff"
     bordercolor="#666666"
     borderopacity="1.0"
     inkscape:pageopacity="0.0"
     inkscape:pageshadow="2"
     inkscape:zoom="24.99931"
     inkscape:cx="45.654279"
     inkscape:cy="12.184825"
     inkscape:document-units="px"
     inkscape:current-layer="g4238"
     showgrid="false"
     units="px"
     inkscape:window-width="1920"
     inkscape:window-height="1028"
     inkscape:window-x="-8"
     inkscape:window-y="-8"
     inkscape:window-maximized="1"
     showguides="true"
     inkscape:guide-bbox="true">
    <sodipodi:guide
       position="28.800795,3.3600927"
       orientation="0,1"
       id="guide4170" />
  </sodipodi:namedview>
  <metadata
     id="metadata7">
    <rdf:RDF>
      <cc:Work
         rdf:about="">
        <dc:format>image/svg+xml</dc:format>
        <dc:type
           rdf:resource="http://purl.org/dc/dcmitype/StillImage" />
        <dc:title />
        <dc:creator>
          <cc:Agent>
            <dc:title>Jorge Rosa</dc:title>
          </cc:Agent>
        </dc:creator>
        <dc:description>Email: jorge.bigarte@gmail.com
Site:https://sites.google.com/site/jorgerosaportfolio</dc:description>
      </cc:Work>
    </rdf:RDF>
  </metadata>
  <g
     inkscape:label="Layer 1"
     inkscape:groupmode="layer"
     id="layer1"
     transform="translate(0,-1027.3622)">
    <g
       id="g4238">
      <path
         style="opacity:1;fill:url(#radialGradient4725-4-0-0);fill-opacity:1;stroke:none;stroke-width:1.02858019;stroke-linecap:round;stroke-linejoin:round;stroke-miterlimit:4;stroke-dasharray:none;stroke-dashoffset:0;stroke-opacity:1"
         d="m 58.093559,1028.8422 0,19.9599 -56.2535665,0 0,-19.9599 z"
         id="rect4183-39-0-0-1-8-1"
         inkscape:connector-curvature="0" />
      <g
         id="g4160"
         transform="translate(0.11128295,1.0604)">
        <g
           id="g4161"
           style="fill:#8d5fd3;fill-opacity:1">
          <g
             transform="matrix(1.1465449,0,0,0.87218567,-21.9492,0)"
             style="font-style:normal;font-variant:normal;font-weight:normal;font-stretch:normal;font-size:14.86344719px;line-height:100%;font-family:'Estrangelo Edessa';-inkscape-font-specification:'Estrangelo Edessa, Normal';text-align:center;letter-spacing:0px;word-spacing:0px;writing-mode:lr-tb;text-anchor:middle;opacity:0.75499998;fill:#8d5fd3;fill-opacity:1;stroke:none;stroke-width:0.5;stroke-linecap:butt;stroke-linejoin:miter;stroke-miterlimit:4;stroke-dasharray:none;stroke-opacity:1"
             id="text4937-7">
            <path
               style="fill:#8d5fd3;fill-opacity:1"
               d="m 46.46265,1187.5393 -2.365959,0 0,8.172 -1.422478,0 0,-8.172 -2.380474,0 0,-1.2193 6.168911,0 0,1.2193 z"
               id="path4159"
               inkscape:connector-curvature="0" />
            <path
               style="fill:#8d5fd3;fill-opacity:1"
               d="m 55.79585,1195.7113 -1.531342,0 -1.052343,-2.6925 -3.614256,0 -0.979769,2.6925 -1.531341,0 3.643286,-9.3913 1.378933,0 3.686832,9.3913 z m -4.202117,-7.1342 q -0.03629,-0.1016 -0.09435,-0.2903 -0.0508,-0.1959 -0.08709,-0.4064 l -0.02903,0 q -0.03629,0.225 -0.09435,0.421 -0.0508,0.1886 -0.101606,0.3193 l -1.139434,3.1498 2.736094,0 -1.190237,-3.1934 z"
               id="path4161"
               inkscape:connector-curvature="0" />
            <path
               style="fill:#8d5fd3;fill-opacity:1"
               d="m 61.340612,1188.9618 q 0,-0.3701 -0.130636,-0.6387 -0.123378,-0.2685 -0.399165,-0.4427 -0.275786,-0.1742 -0.711239,-0.254 -0.428195,-0.087 -1.037828,-0.087 l -0.500771,0 0,3.1498 0.457225,0 q 1.095889,0 1.705523,-0.4355 0.616891,-0.4427 0.616891,-1.2918 z m 1.473281,-0.073 q 0,0.6677 -0.268529,1.2265 -0.261271,0.5516 -0.791072,0.958 -0.529801,0.3992 -1.32813,0.6242 -0.79833,0.2177 -1.865189,0.225 l 0,3.7884 -1.429736,0 0,-9.3913 1.915992,0 q 0.827359,0 1.516826,0.1307 0.689466,0.1234 1.190237,0.4282 0.50077,0.2975 0.776557,0.791 0.283044,0.4863 0.283044,1.2193 z"
               id="path4163"
               inkscape:connector-curvature="0" />
          </g>
          <path
             style="fill:#8d5fd3;fill-opacity:1"
             id="path4158"
             d="m 15.254233,1038.1989 c 0,-0.017 0.0061,-0.032 0.0097,-0.048 -1.337221,-0.014 -2.600803,-0.1633 -3.623822,-0.4283 l 0,0.6282 c 0.96045,0.2374 2.196249,0.3964 3.614109,0.4113 l 0,-0.5629 z"
             inkscape:connector-curvature="0" />
          <path
             style="fill:#8d5fd3;fill-opacity:1"
             id="path4160"
             d="m 21.230613,1036.8382 c -0.292969,0.265 -0.760319,0.529 -1.488335,0.7587 0.01717,0.032 0.02936,0.067 0.02936,0.1053 l 0,0.52 c 0.687133,-0.209 1.18859,-0.4599 1.458745,-0.7199 l 0,-0.6641 z"
             inkscape:connector-curvature="0" />
          <path
             style="fill:#8d5fd3;fill-opacity:1"
             id="path4162"
             d="m 19.320105,1038.346 0,-0.6289 c -1.021664,0.2668 -2.285246,0.4177 -3.623822,0.433 0.0036,0.016 0.0097,0.031 0.0097,0.049 l 0,0.5629 c 1.419215,-0.016 2.65524,-0.1767 3.614109,-0.4156 z"
             inkscape:connector-curvature="0" />
          <path
             style="fill:#8d5fd3;fill-opacity:1"
             id="path4164"
             d="m 11.188361,1037.5933 c -0.721692,-0.2288 -1.186105,-0.4915 -1.4777191,-0.7551 l 0,0.6639 c 0.27264,0.2622 0.7810991,0.5154 1.4777191,0.7255 l 0,-0.6343 z"
             inkscape:connector-curvature="0" />
          <path
             style="fill:#8d5fd3;fill-opacity:1"
             id="path4166"
             d="m 15.470627,1037.702 c 3.143597,0 5.697642,-0.7698 5.759986,-1.7262 6.77e-4,-0.012 0.0029,-0.024 0.0029,-0.036 0,-0.041 -0.0063,-0.082 -0.01513,-0.1218 -0.0038,-0.017 -0.0072,-0.034 -0.01242,-0.05 -0.0011,0 -0.0027,-0.01 -0.0041,-0.013 -0.04382,-0.1285 -0.133948,-0.2525 -0.263153,-0.3714 -0.762125,-0.7002 -2.921329,-1.2055 -5.468146,-1.2055 -2.546591,0 -4.705795,0.5051 -5.46792,1.2055 -0.1292041,0.1189 -0.2195571,0.2431 -0.2633781,0.3716 -0.0011,0 -0.0027,0.01 -0.0038,0.012 -0.0054,0.017 -0.0088,0.034 -0.01265,0.051 -0.0088,0.041 -0.01513,0.081 -0.01513,0.1218 0,0.012 0.0023,0.024 0.0029,0.035 0.06212,0.9566 2.6161631,1.7264 5.7599851,1.7264 z"
             inkscape:connector-curvature="0" />
          <path
             style="fill:#8d5fd3;fill-opacity:1"
             id="path4168"
             d="m 15.470627,1044.4784 c 3.182675,0 5.762922,-0.7888 5.762922,-1.7619 0,-0.039 -0.0056,-0.078 -0.01401,-0.1165 0.0059,-0.036 0.01107,-0.072 0.01107,-0.1094 l 0,-0.1278 c -0.02665,0.018 -0.05466,0.035 -0.08267,0.052 -0.360507,0.222 -0.831245,0.4116 -1.376072,0.5672 l 0,0.1859 0,0.1129 c 0,0.1247 -0.101195,0.2259 -0.225882,0.2259 -0.124686,0 -0.225881,-0.1012 -0.225881,-0.2259 l 0,-0.1129 0,-0.069 c -0.10097,0.024 -0.203746,0.047 -0.308329,0.069 -1.002012,0.2089 -2.160785,0.3232 -3.30578,0.337 l 0,0.1147 c 0,0.1247 -0.101195,0.2259 -0.225882,0.2259 -0.124686,0 -0.225881,-0.1012 -0.225881,-0.2259 l 0,-0.1145 c -1.15132,-0.013 -2.317321,-0.1269 -3.324754,-0.3372 -0.09803,-0.021 -0.194484,-0.042 -0.289355,-0.064 l 0,0.064 0,0.056 c 0,0.1246 -0.101195,0.2258 -0.225881,0.2258 -0.124687,0 -0.225882,-0.1012 -0.225882,-0.2258 l 0,-0.056 0,-0.1807 c -0.552733,-0.1568 -1.030247,-0.3479 -1.3948201,-0.5724 -0.02824,-0.017 -0.05602,-0.035 -0.08267,-0.052 l 0,0.1278 c 0,0.037 0.0052,0.073 0.01107,0.1094 -0.0084,0.039 -0.01423,0.077 -0.01423,0.1165 0,0.9731 2.5802471,1.7619 5.7629211,1.7619 z"
             inkscape:connector-curvature="0" />
          <path
             style="fill:#8d5fd3;fill-opacity:1"
             id="path4170"
             d="m 19.771868,1042.5137 c 0.433693,-0.1319 0.792619,-0.2806 1.067291,-0.4378 0.160376,-0.092 0.29184,-0.1863 0.391454,-0.2823 l 0,-3.7225 c -0.369769,0.2448 -0.871452,0.4517 -1.458745,0.6196 l 0,0.5924 c 0,0.1247 -0.101195,0.2259 -0.225882,0.2259 -0.124686,0 -0.225881,-0.1012 -0.225881,-0.2259 l 0,-0.475 c -1.067969,0.2525 -2.349397,0.3901 -3.614109,0.4055 l 0,0.5665 c 0,0.1247 -0.101195,0.2259 -0.225882,0.2259 -0.124686,0 -0.225881,-0.1012 -0.225881,-0.2259 l 0,-0.5663 c -1.263357,-0.014 -2.544558,-0.1502 -3.614109,-0.4012 l 0,0.5722 c 0,0.1247 -0.101195,0.2259 -0.225881,0.2259 -0.124687,0 -0.225882,-0.1012 -0.225882,-0.2259 l 0,-0.689 c -0.595425,-0.1687 -1.10411,-0.3774 -1.4777191,-0.6247 l 0,3.7227 c 0.09961,0.096 0.231077,0.1904 0.3914531,0.2823 0.278513,0.1593 0.644215,0.31 1.08604,0.4432 l 0,-0.8757 c 0,-0.045 0.01626,-0.084 0.03863,-0.1188 0.03998,-0.063 0.107068,-0.1071 0.187256,-0.1071 0.03298,0 0.06392,0.01 0.09216,0.021 0.07838,0.035 0.133722,0.1136 0.133722,0.2053 l 0,0.9988 c 0.96045,0.2374 2.196249,0.3965 3.614109,0.4114 l 0,-1.0149 c 0,-0.1247 0.101195,-0.2259 0.225882,-0.2259 0.124686,0 0.225881,0.1012 0.225881,0.2259 l 0,1.0146 c 1.419215,-0.016 2.655241,-0.1768 3.614109,-0.4156 l 0,-1.096 c 0,-0.047 0.01784,-0.088 0.04246,-0.1246 0.04066,-0.06 0.105713,-0.1012 0.183416,-0.1012 0.124687,0 0.225882,0.1012 0.225882,0.2258 l 0,0 0,0.9695 z"
             inkscape:connector-curvature="0" />
          <path
             style="opacity:1;fill:#8d5fd3;fill-opacity:1;stroke:#000000;stroke-width:0.62;stroke-linecap:round;stroke-linejoin:round;stroke-miterlimit:4;stroke-dasharray:none;stroke-opacity:1"
             d="m 17.576703,1034.7123 a 1.6971031,1.6971031 0 0 1 -1.697103,1.6971 1.6971031,1.6971031 0 0 1 -1.697103,-1.6971 1.6971031,1.6971031 0 0 1 1.697103,-1.6971 1.6971031,1.6971031 0 0 1 1.697103,1.6971 z"
             id="path4202"
             inkscape:connector-curvature="0" />
          <path
             inkscape:connector-curvature="0"
             id="path4204"
             d="m 15.879599,1034.486 8.146095,-3.9599"
             style="fill:#8d5fd3;fill-rule:evenodd;stroke:#8d5fd3;stroke-width:1px;stroke-linecap:butt;stroke-linejoin:miter;stroke-opacity:1;fill-opacity:1" />
        </g>
        <path
           inkscape:connector-curvature="0"
           style="opacity:1;fill:none;fill-opacity:1;stroke:url(#radialGradient4205);stroke-width:1;stroke-linecap:round;stroke-linejoin:round;stroke-miterlimit:4;stroke-dasharray:none;stroke-opacity:1"
           d="m 1.3766221,1027.453 57.0241899,0 0,20.6968 -57.0241899,0 z"
           id="rect4197" />
      </g>
    </g>
  </g>
</svg>
