<?xml version="1.0" encoding="UTF-8" standalone="no"?>
<!-- Created with Inkscape (http://www.inkscape.org/) -->

<svg
   xmlns:dc="http://purl.org/dc/elements/1.1/"
   xmlns:cc="http://creativecommons.org/ns#"
   xmlns:rdf="http://www.w3.org/1999/02/22-rdf-syntax-ns#"
   xmlns:svg="http://www.w3.org/2000/svg"
   xmlns="http://www.w3.org/2000/svg"
   xmlns:xlink="http://www.w3.org/1999/xlink"
   xmlns:sodipodi="http://sodipodi.sourceforge.net/DTD/sodipodi-0.dtd"
   xmlns:inkscape="http://www.inkscape.org/namespaces/inkscape"
   width="26"
   height="26"
   viewBox="0 0 26 26"
   id="svg2"
   version="1.1"
   inkscape:version="0.91 r13725"
   sodipodi:docname="btn_beatloop_16.svg">
  <defs
     id="defs4">
    <radialGradient
       inkscape:collect="always"
       xlink:href="#linearGradient4733"
       id="radialGradient4725-4-0-0"
       cx="767.32086"
       cy="165.64326"
       fx="767.32086"
       fy="165.64301"
       r="24.596836"
       gradientTransform="matrix(0.48398224,-1.0164159e-7,8.955804e-6,0.41139166,-392.09235,968.92197)"
       gradientUnits="userSpaceOnUse" />
    <linearGradient
       inkscape:collect="always"
       id="linearGradient4733">
      <stop
         style="stop-color:#170b28;stop-opacity:1"
         offset="0"
         id="stop4735" />
      <stop
         style="stop-color:#000000;stop-opacity:1"
         offset="1"
         id="stop4737" />
    </linearGradient>
    <pattern
       y="0"
       x="0"
       height="6"
       width="6"
       patternUnits="userSpaceOnUse"
       id="EMFhbasepattern" />
  </defs>
  <sodipodi:namedview
     id="base"
     pagecolor="#ffffff"
     bordercolor="#666666"
     borderopacity="1.0"
     inkscape:pageopacity="0.0"
     inkscape:pageshadow="2"
     inkscape:zoom="20.48"
     inkscape:cx="8.095196"
     inkscape:cy="12.40472"
     inkscape:document-units="px"
     inkscape:current-layer="g4215"
     showgrid="false"
     units="px"
     inkscape:window-width="1920"
     inkscape:window-height="1028"
     inkscape:window-x="-8"
     inkscape:window-y="-8"
     inkscape:window-maximized="1"
     showguides="false" />
  <metadata
     id="metadata7">
    <rdf:RDF>
      <cc:Work
         rdf:about="">
        <dc:format>image/svg+xml</dc:format>
        <dc:type
           rdf:resource="http://purl.org/dc/dcmitype/StillImage" />
        <dc:title />
        <dc:creator>
          <cc:Agent>
            <dc:title>Jorge Rosa</dc:title>
          </cc:Agent>
        </dc:creator>
        <dc:description>Email: jorge.bigarte@gmail.com
Site:https://sites.google.com/site/jorgerosaportfolio</dc:description>
      </cc:Work>
    </rdf:RDF>
  </metadata>
  <g
     inkscape:label="Layer 1"
     inkscape:groupmode="layer"
     id="layer1"
     transform="translate(0,-1026.3622)">
    <g
       id="g5353"
       transform="translate(32.958985,9.3198423e-8)">
      <g
         transform="translate(0.15820175,-0.02451)"
         id="g4215">
        <path
           inkscape:connector-curvature="0"
           style="opacity:0.85900005;fill:none;fill-opacity:1;stroke:#000000;stroke-width:1.00554919;stroke-linecap:round;stroke-linejoin:round;stroke-miterlimit:4;stroke-dasharray:none;stroke-dashoffset:0;stroke-opacity:1"
           d="m -31.017525,1027.9161 21.8006766,0 0,21.9892 -21.8006766,0 z"
           id="rect4183-39-0-0-1-8-7-0" />
        <path
           inkscape:connector-curvature="0"
           style="opacity:1;fill:url(#radialGradient4725-4-0-0);fill-opacity:1;stroke:none;stroke-width:1.02858019;stroke-linecap:round;stroke-linejoin:round;stroke-miterlimit:4;stroke-dasharray:none;stroke-dashoffset:0;stroke-opacity:1"
           d="m -31.470076,1027.0044 22.7057785,0 0,22.0908 -22.7057785,0 z"
           id="rect4183-39-0-0-1-8-1" />
        <path
           inkscape:connector-curvature="0"
           transform="scale(1,-1)"
           style="opacity:1;fill:none;fill-opacity:1;stroke:#1a1a1a;stroke-width:1.02858019;stroke-linecap:round;stroke-linejoin:round;stroke-miterlimit:4;stroke-dasharray:none;stroke-dashoffset:0;stroke-opacity:1"
           d="m -31.470076,-1048.9918 22.7057785,0 0,22.0908 -22.7057785,0 z"
           id="rect4183-39-0-0-1-8-78-5" />
        <g
           id="text4937-7"
           style="font-style:normal;font-variant:normal;font-weight:normal;font-stretch:normal;font-size:14.22179031px;line-height:100%;font-family:'Estrangelo Edessa';-inkscape-font-specification:'Estrangelo Edessa, Normal';text-align:center;letter-spacing:0px;word-spacing:0px;writing-mode:lr-tb;text-anchor:middle;opacity:0.75499998;fill:#8d5fd3;fill-opacity:1;stroke:none;stroke-width:0.5;stroke-linecap:butt;stroke-linejoin:miter;stroke-miterlimit:4;stroke-dasharray:none;stroke-opacity:1">
          <path
             inkscape:connector-curvature="0"
             id="path4160"
             style="fill:#8d5fd3;fill-opacity:1"
             d="m -22.604738,1042.5225 -1.333293,0 0,-7.2984 q -0.111108,0.097 -0.243048,0.2083 -0.124997,0.1042 -0.243049,0.1944 l -1.749946,1.25 0,-1.3263 2.715195,-2.0417 0.854141,0 0,9.0137 z" />
          <path
             inkscape:connector-curvature="0"
             id="path4162"
             style="fill:#8d5fd3;fill-opacity:1"
             d="m -15.125799,1039.8212 q 0,-0.4306 -0.13194,-0.7361 -0.124997,-0.3056 -0.354156,-0.5 -0.222216,-0.2014 -0.527762,-0.2917 -0.298602,-0.097 -0.645814,-0.097 -0.333323,0 -0.645814,0.083 -0.31249,0.076 -0.534706,0.1736 -0.111107,0.2361 -0.166661,0.5625 -0.04861,0.3195 -0.04861,0.6319 0,0.4792 0.111108,0.8403 0.118052,0.3542 0.319435,0.5972 0.208327,0.2361 0.486096,0.3542 0.284714,0.118 0.618037,0.118 0.340267,0 0.618037,-0.118 0.284713,-0.1181 0.479152,-0.3403 0.201383,-0.2222 0.31249,-0.5417 0.111108,-0.3263 0.111108,-0.736 z m 1.381902,-0.083 q 0,0.625 -0.208327,1.1597 -0.208327,0.5347 -0.590259,0.9236 -0.381933,0.3889 -0.916639,0.6111 -0.534706,0.2153 -1.187464,0.2153 -0.694424,0 -1.236074,-0.2153 -0.534706,-0.2153 -0.90275,-0.6111 -0.3611,-0.3958 -0.548595,-0.9583 -0.187494,-0.5625 -0.187494,-1.2569 0,-0.6806 0.222216,-1.4583 0.222215,-0.7778 0.624981,-1.5694 0.402765,-0.7986 0.965248,-1.5763 0.569427,-0.7778 1.249962,-1.4653 l 1.479122,0 q -0.40971,0.4722 -0.798587,0.9653 -0.388877,0.4861 -0.729144,0.9722 -0.340268,0.4791 -0.611093,0.9374 -0.270825,0.4584 -0.451375,0.875 0.201383,-0.042 0.465263,-0.076 0.263881,-0.035 0.59026,-0.035 0.555539,0 1.055524,0.1667 0.506929,0.1666 0.881917,0.493 0.381933,0.3194 0.604149,0.7986 0.229159,0.4791 0.229159,1.1041 z" />
        </g>
      </g>
    </g>
  </g>
</svg>
