<?xml version="1.0" encoding="UTF-8" standalone="no"?>
<!-- Created with Inkscape (http://www.inkscape.org/) -->

<svg
   xmlns:dc="http://purl.org/dc/elements/1.1/"
   xmlns:cc="http://creativecommons.org/ns#"
   xmlns:rdf="http://www.w3.org/1999/02/22-rdf-syntax-ns#"
   xmlns:svg="http://www.w3.org/2000/svg"
   xmlns="http://www.w3.org/2000/svg"
   xmlns:xlink="http://www.w3.org/1999/xlink"
   xmlns:sodipodi="http://sodipodi.sourceforge.net/DTD/sodipodi-0.dtd"
   xmlns:inkscape="http://www.inkscape.org/namespaces/inkscape"
   width="18"
   height="18"
   viewBox="0 0 18 18"
   id="svg2"
   version="1.1"
   inkscape:version="0.91 r13725"
   sodipodi:docname="btn_channel_master.svg">
  <defs
     id="defs4">
    <pattern
       y="0"
       x="0"
       height="6"
       width="6"
       patternUnits="userSpaceOnUse"
       id="EMFhbasepattern" />
    <pattern
       y="0"
       x="0"
       height="6"
       width="6"
       patternUnits="userSpaceOnUse"
       id="EMFhbasepattern-9" />
    <radialGradient
       inkscape:collect="always"
       xlink:href="#linearGradient4172"
       id="radialGradient4178"
       cx="37.890625"
       cy="1037.6161"
       fx="37.890625"
       fy="1037.6161"
       r="10.839844"
       gradientUnits="userSpaceOnUse"
       gradientTransform="matrix(0.91304953,0,0,0.92139604,13.386878,83.306795)" />
    <linearGradient
       inkscape:collect="always"
       id="linearGradient4172">
      <stop
         style="stop-color:#170b28;stop-opacity:1"
         offset="0"
         id="stop4174" />
      <stop
         style="stop-color:#000000;stop-opacity:1"
         offset="1"
         id="stop4176" />
    </linearGradient>
  </defs>
  <sodipodi:namedview
     id="base"
     pagecolor="#ffffff"
     bordercolor="#666666"
     borderopacity="1.0"
     inkscape:pageopacity="0.0"
     inkscape:pageshadow="2"
     inkscape:zoom="28.963094"
     inkscape:cx="-2.5382124"
     inkscape:cy="9.3755133"
     inkscape:document-units="px"
     inkscape:current-layer="layer1"
     showgrid="false"
     units="px"
     inkscape:window-width="1920"
     inkscape:window-height="1028"
     inkscape:window-x="-8"
     inkscape:window-y="-8"
     inkscape:window-maximized="1"
     showguides="true"
     inkscape:guide-bbox="true" />
  <metadata
     id="metadata7">
    <rdf:RDF>
      <cc:Work
         rdf:about="">
        <dc:format>image/svg+xml</dc:format>
        <dc:type
           rdf:resource="http://purl.org/dc/dcmitype/StillImage" />
        <dc:title />
        <dc:creator>
          <cc:Agent>
            <dc:title>Jorge Rosa</dc:title>
          </cc:Agent>
        </dc:creator>
        <dc:description>Email: jorge.bigarte@gmail.com
Site:https://sites.google.com/site/jorgerosaportfolio</dc:description>
      </cc:Work>
    </rdf:RDF>
  </metadata>
  <g
     inkscape:label="Layer 1"
     inkscape:groupmode="layer"
     id="layer1"
     transform="translate(0,-1034.3622)">
    <g
       style="font-style:normal;font-variant:normal;font-weight:normal;font-stretch:normal;font-size:15px;line-height:100%;font-family:'Estrangelo Edessa';-inkscape-font-specification:'Estrangelo Edessa, Normal';text-align:start;letter-spacing:0px;word-spacing:0px;writing-mode:lr-tb;text-anchor:start;fill:#666666;fill-opacity:1;stroke:none;stroke-width:1px;stroke-linecap:butt;stroke-linejoin:miter;stroke-opacity:1"
       id="text4146-3" />
    <g
       transform="matrix(0.75206304,0,0,0.75206304,-27.086164,261.6963)"
       style="stroke-width:1.32967579;stroke-miterlimit:4;stroke-dasharray:none"
       id="g4144">
      <path
         inkscape:connector-curvature="0"
         id="path4170"
         d="m 57.955466,1039.3623 a 9.9725683,9.9725683 0 0 1 -9.972569,9.9725 9.9725683,9.9725683 0 0 1 -9.972568,-9.9725 9.9725683,9.9725683 0 0 1 9.972568,-9.9726 9.9725683,9.9725683 0 0 1 9.972569,9.9726 z"
         style="opacity:1;fill:url(#radialGradient4178);fill-opacity:1;stroke:none;stroke-width:1.32967579;stroke-linecap:round;stroke-linejoin:round;stroke-miterlimit:4;stroke-dasharray:none;stroke-opacity:1" />
      <path
         inkscape:connector-curvature="0"
         id="path4180"
         d="m 58.602113,1039.3622 a 10.619215,10.619215 0 0 1 -10.619215,10.6192 10.619215,10.619215 0 0 1 -10.619215,-10.6192 10.619215,10.619215 0 0 1 10.619215,-10.6192 10.619215,10.619215 0 0 1 10.619215,10.6192 z"
         style="opacity:1;fill:none;fill-opacity:1;stroke:#1a1a1a;stroke-width:1.32967579;stroke-linecap:round;stroke-linejoin:round;stroke-miterlimit:4;stroke-dasharray:none;stroke-opacity:1" />
    </g>
    <g
       style="font-style:normal;font-variant:normal;font-weight:normal;font-stretch:normal;font-size:11.1311264px;line-height:100%;font-family:'Estrangelo Edessa';-inkscape-font-specification:'Estrangelo Edessa, Normal';text-align:start;letter-spacing:0px;word-spacing:0px;writing-mode:lr-tb;text-anchor:start;fill:#3c1d6b;fill-opacity:1;stroke:none;stroke-width:1px;stroke-linecap:butt;stroke-linejoin:miter;stroke-opacity:1"
       id="text4143-9-3"
       transform="translate(-3.7002903,20.69295)">
      <path
         d="m 16.512888,1026.1858 -0.989192,0 -0.22284,-4.5981 q -0.0054,-0.065 -0.01087,-0.1794 0,-0.1141 -0.0054,-0.2391 0,-0.1305 -0.0054,-0.2555 0,-0.125 0,-0.2065 -0.03261,0.125 -0.07609,0.2663 -0.03805,0.1359 -0.07609,0.2609 -0.03805,0.1196 -0.07066,0.2174 -0.02717,0.092 -0.04348,0.1359 l -1.771849,4.5981 -0.956581,0 -1.80446,-4.5981 q -0.02174,-0.054 -0.05979,-0.1468 -0.03261,-0.098 -0.07066,-0.2174 -0.03805,-0.125 -0.08153,-0.2554 -0.03805,-0.1359 -0.06522,-0.2609 0,0.092 -0.0054,0.2174 0,0.1196 -0.0054,0.25 -0.0054,0.1305 -0.01087,0.2555 -0.0054,0.1195 -0.01087,0.2119 l -0.2934964,4.5438 -0.9891919,0 0.4891608,-7.0331 1.1468105,0 2.0273,5.1852 q 0.02717,0.076 0.05979,0.1793 0.03261,0.098 0.05979,0.2065 0.02718,0.1087 0.04892,0.2174 0.02717,0.1088 0.04348,0.1957 0.0163,-0.087 0.04348,-0.2011 0.02718,-0.1141 0.05435,-0.2283 0.03261,-0.1141 0.06522,-0.2174 0.03261,-0.1032 0.05979,-0.1739 l 2.01643,-5.1634 1.190291,0 0.320673,7.0331 z"
         id="path4363"
         inkscape:connector-curvature="0"
         style="fill:#3c1d6b;fill-opacity:1" />
    </g>
  </g>
</svg>
