<?xml version="1.0" encoding="UTF-8" standalone="no"?>
<!-- Created with Inkscape (http://www.inkscape.org/) -->

<svg
   xmlns:dc="http://purl.org/dc/elements/1.1/"
   xmlns:cc="http://creativecommons.org/ns#"
   xmlns:rdf="http://www.w3.org/1999/02/22-rdf-syntax-ns#"
   xmlns:svg="http://www.w3.org/2000/svg"
   xmlns="http://www.w3.org/2000/svg"
   xmlns:xlink="http://www.w3.org/1999/xlink"
   xmlns:sodipodi="http://sodipodi.sourceforge.net/DTD/sodipodi-0.dtd"
   xmlns:inkscape="http://www.inkscape.org/namespaces/inkscape"
   width="26"
   height="26"
   viewBox="0 0 26 26"
   id="svg2"
   version="1.1"
   inkscape:version="0.91 r13725"
   sodipodi:docname="btn_beatloop_0250_over.svg">
  <defs
     id="defs4">
    <radialGradient
       inkscape:collect="always"
       xlink:href="#linearGradient4733"
       id="radialGradient4725-4-0"
       cx="767.85205"
       cy="168.35974"
       fx="767.85205"
       fy="168.35948"
       r="24.596836"
       gradientTransform="matrix(0.86576161,6.6043591e-6,3.1987787e-5,0.62624019,-651.83382,932.9781)"
       gradientUnits="userSpaceOnUse" />
    <linearGradient
       inkscape:collect="always"
       id="linearGradient4733">
      <stop
         style="stop-color:#8d5fd3;stop-opacity:1"
         offset="0"
         id="stop4735" />
      <stop
         style="stop-color:#000000;stop-opacity:1"
         offset="1"
         id="stop4737" />
    </linearGradient>
    <pattern
       y="0"
       x="0"
       height="6"
       width="6"
       patternUnits="userSpaceOnUse"
       id="EMFhbasepattern" />
  </defs>
  <sodipodi:namedview
     id="base"
     pagecolor="#ffffff"
     bordercolor="#666666"
     borderopacity="1.0"
     inkscape:pageopacity="0.0"
     inkscape:pageshadow="2"
     inkscape:zoom="10.24"
     inkscape:cx="0.49690204"
     inkscape:cy="13.396409"
     inkscape:document-units="px"
     inkscape:current-layer="g5360"
     showgrid="false"
     units="px"
     inkscape:window-width="1920"
     inkscape:window-height="1028"
     inkscape:window-x="-8"
     inkscape:window-y="-8"
     inkscape:window-maximized="1"
     showguides="false" />
  <metadata
     id="metadata7">
    <rdf:RDF>
      <cc:Work
         rdf:about="">
        <dc:format>image/svg+xml</dc:format>
        <dc:type
           rdf:resource="http://purl.org/dc/dcmitype/StillImage" />
        <dc:title />
        <dc:creator>
          <cc:Agent>
            <dc:title>Jorge Rosa</dc:title>
          </cc:Agent>
        </dc:creator>
        <dc:description>Email: jorge.bigarte@gmail.com
Site:https://sites.google.com/site/jorgerosaportfolio</dc:description>
      </cc:Work>
    </rdf:RDF>
  </metadata>
  <g
     inkscape:label="Layer 1"
     inkscape:groupmode="layer"
     id="layer1"
     transform="translate(0,-1026.3622)">
    <g
       id="g5346"
       transform="translate(-0.17884702,-0.04882811)">
      <g
         id="g5360">
        <rect
           style="opacity:0.85900005;fill:none;fill-opacity:1;stroke:#000000;stroke-width:1.00554919;stroke-linecap:round;stroke-linejoin:round;stroke-miterlimit:4;stroke-dasharray:none;stroke-dashoffset:0;stroke-opacity:1"
           id="rect4183-39-0-0-1-8-7"
           width="21.800676"
           height="21.989141"
           x="2.0996618"
           y="1027.9684" />
        <rect
           style="opacity:1;fill:url(#radialGradient4725-4-0);fill-opacity:1;stroke:none;stroke-width:1.02858019;stroke-linecap:round;stroke-linejoin:round;stroke-miterlimit:4;stroke-dasharray:none;stroke-dashoffset:0;stroke-opacity:1"
           id="rect4183-39-0-0-1-8"
           width="22.705778"
           height="22.090797"
           x="1.6471109"
           y="1027.0566" />
        <rect
           style="opacity:1;fill:none;fill-opacity:1;stroke:#1a1a1a;stroke-width:1.02858019;stroke-linecap:round;stroke-linejoin:round;stroke-miterlimit:4;stroke-dasharray:none;stroke-dashoffset:0;stroke-opacity:1"
           id="rect4183-39-0-0-1-8-78"
           width="22.705778"
           height="22.090797"
           x="1.6471109"
           y="-1049.0441"
           transform="scale(1,-1)" />
        <g
           style="font-style:normal;font-variant:normal;font-weight:normal;font-stretch:normal;font-size:14.22179031px;line-height:100%;font-family:'Estrangelo Edessa';-inkscape-font-specification:'Estrangelo Edessa, Normal';text-align:center;letter-spacing:0px;word-spacing:0px;writing-mode:lr-tb;text-anchor:middle;opacity:0.75499998;fill:#e5d5ff;fill-opacity:1;stroke:none;stroke-width:0.5;stroke-linecap:butt;stroke-linejoin:miter;stroke-miterlimit:4;stroke-dasharray:none;stroke-opacity:1"
           id="text4937"
           transform="translate(2.7638155,0)">
          <path
             d="m 5.68948,1042.5747 -1.3332928,0 0,-7.2984 q -0.1111077,0.097 -0.2430482,0.2083 -0.1249962,0.1042 -0.2430482,0.1945 l -1.7499468,1.2499 0,-1.3263 2.7151953,-2.0416 0.8541407,0 0,9.0136 z"
             id="path4160"
             inkscape:connector-curvature="0"
             style="fill:#e5d5ff;fill-opacity:1" />
          <path
             d="m 10.640718,1042.5747 -1.3680136,0 0,-8.9858 1.3680136,0 0,8.9858 z"
             id="path4162"
             inkscape:connector-curvature="0"
             style="fill:#e5d5ff;fill-opacity:1" />
          <path
             d="m 16.091942,1039.2068 0,-3.4722 q 0,-0.097 0,-0.2152 0,-0.125 0.01389,-0.257 -0.03472,0.035 -0.04861,0.076 -0.01389,0.035 -0.04861,0.07 -0.104163,0.1041 -0.284713,0.3194 -0.18055,0.2153 -0.402766,0.5069 -0.215271,0.2917 -0.465264,0.6458 -0.243048,0.3542 -0.479152,0.7431 -0.229159,0.3888 -0.437486,0.7916 -0.208327,0.4028 -0.361101,0.7917 l 2.513813,0 z m 2.617976,1.0485 -1.291627,0 0,2.3194 -1.326349,0 0,-2.3194 -3.798496,0 -0.08333,-0.4097 q 0.07639,-0.4375 0.326379,-1.0069 0.256937,-0.5694 0.618037,-1.1875 0.3611,-0.618 0.791643,-1.243 0.437486,-0.625 0.868029,-1.1735 0.437487,-0.5556 0.833308,-0.9931 0.402766,-0.4375 0.701368,-0.6805 l 1.069412,0 0,5.6457 1.291627,0 0,1.0485 z"
             id="path4164"
             inkscape:connector-curvature="0"
             style="fill:#e5d5ff;fill-opacity:1" />
        </g>
      </g>
    </g>
  </g>
</svg>
