<?xml version="1.0" encoding="UTF-8" standalone="no"?>
<!-- Created with Inkscape (http://www.inkscape.org/) -->

<svg
   xmlns:dc="http://purl.org/dc/elements/1.1/"
   xmlns:cc="http://creativecommons.org/ns#"
   xmlns:rdf="http://www.w3.org/1999/02/22-rdf-syntax-ns#"
   xmlns:svg="http://www.w3.org/2000/svg"
   xmlns="http://www.w3.org/2000/svg"
   xmlns:xlink="http://www.w3.org/1999/xlink"
   xmlns:sodipodi="http://sodipodi.sourceforge.net/DTD/sodipodi-0.dtd"
   xmlns:inkscape="http://www.inkscape.org/namespaces/inkscape"
   width="26"
   height="26"
   viewBox="0 0 26 26"
   id="svg2"
   version="1.1"
   inkscape:version="0.91 r13725"
   sodipodi:docname="btn_hotcue_6.svg">
  <defs
     id="defs4">
    <radialGradient
       inkscape:collect="always"
       xlink:href="#linearGradient4733"
       id="radialGradient4725-4-0"
       cx="767.65289"
       cy="166.07477"
       fx="767.65289"
       fy="166.07451"
       r="24.596836"
       gradientTransform="matrix(0.46810114,9.980853e-8,8.8224166e-6,0.41931104,-346.5994,967.68865)"
       gradientUnits="userSpaceOnUse" />
    <linearGradient
       inkscape:collect="always"
       id="linearGradient4733">
      <stop
         style="stop-color:#170b28;stop-opacity:1"
         offset="0"
         id="stop4735" />
      <stop
         style="stop-color:#000000;stop-opacity:1"
         offset="1"
         id="stop4737" />
    </linearGradient>
    <pattern
       y="0"
       x="0"
       height="6"
       width="6"
       patternUnits="userSpaceOnUse"
       id="EMFhbasepattern" />
    <pattern
       y="0"
       x="0"
       height="6"
       width="6"
       patternUnits="userSpaceOnUse"
       id="EMFhbasepattern-3" />
  </defs>
  <sodipodi:namedview
     id="base"
     pagecolor="#ffffff"
     bordercolor="#666666"
     borderopacity="1.0"
     inkscape:pageopacity="0.0"
     inkscape:pageshadow="2"
     inkscape:zoom="14.481547"
     inkscape:cx="4.0288603"
     inkscape:cy="10.879214"
     inkscape:document-units="px"
     inkscape:current-layer="g4262"
     showgrid="false"
     units="px"
     inkscape:window-width="1920"
     inkscape:window-height="1028"
     inkscape:window-x="-8"
     inkscape:window-y="-8"
     inkscape:window-maximized="1"
     showguides="false" />
  <metadata
     id="metadata7">
    <rdf:RDF>
      <cc:Work
         rdf:about="">
        <dc:format>image/svg+xml</dc:format>
        <dc:type
           rdf:resource="http://purl.org/dc/dcmitype/StillImage" />
        <dc:title />
        <dc:creator>
          <cc:Agent>
            <dc:title>Jorge Rosa</dc:title>
          </cc:Agent>
        </dc:creator>
        <dc:description>Email: jorge.bigarte@gmail.com
Site:https://sites.google.com/site/jorgerosaportfolio</dc:description>
      </cc:Work>
    </rdf:RDF>
  </metadata>
  <g
     inkscape:label="Layer 1"
     inkscape:groupmode="layer"
     id="layer1"
     transform="translate(0,-1026.3622)">
    <g
       id="g4262"
       transform="translate(-0.04558686,0)">
      <rect
         y="1027.9684"
         x="2.0996618"
         height="21.989141"
         width="21.800676"
         id="rect4183-39-0-0-1-8-7"
         style="opacity:0.85900005;fill:none;fill-opacity:1;stroke:#000000;stroke-width:1.00554919;stroke-linecap:round;stroke-linejoin:round;stroke-miterlimit:4;stroke-dasharray:none;stroke-dashoffset:0;stroke-opacity:1" />
      <rect
         y="1027.0566"
         x="1.6471109"
         height="22.090797"
         width="22.705778"
         id="rect4183-39-0-0-1-8"
         style="opacity:1;fill:url(#radialGradient4725-4-0);fill-opacity:1;stroke:none;stroke-width:1.02858019;stroke-linecap:round;stroke-linejoin:round;stroke-miterlimit:4;stroke-dasharray:none;stroke-dashoffset:0;stroke-opacity:1" />
      <rect
         transform="scale(1,-1)"
         y="-1049.0441"
         x="1.6471109"
         height="22.090797"
         width="22.705778"
         id="rect4183-39-0-0-1-8-78"
         style="opacity:1;fill:none;fill-opacity:1;stroke:#1a1a1a;stroke-width:1.02858019;stroke-linecap:round;stroke-linejoin:round;stroke-miterlimit:4;stroke-dasharray:none;stroke-dashoffset:0;stroke-opacity:1" />
      <g
         id="text4149"
         style="font-style:normal;font-variant:normal;font-weight:normal;font-stretch:normal;font-size:15px;line-height:100%;font-family:'Estrangelo Edessa';-inkscape-font-specification:'Estrangelo Edessa, Normal';text-align:start;letter-spacing:0px;word-spacing:0px;writing-mode:lr-tb;text-anchor:start;fill:#8d5fd3;fill-opacity:1;stroke:none;stroke-width:1px;stroke-linecap:butt;stroke-linejoin:miter;stroke-opacity:1">
        <path
           inkscape:connector-curvature="0"
           id="path4154"
           d="m 14.634942,1040.0529 q 0,-0.4541 -0.13916,-0.7764 -0.131836,-0.3223 -0.373535,-0.5274 -0.234375,-0.2124 -0.556641,-0.3076 -0.314941,-0.1025 -0.681152,-0.1025 -0.351563,0 -0.681153,0.088 -0.329589,0.081 -0.563964,0.1831 -0.117188,0.249 -0.175782,0.5932 -0.05127,0.337 -0.05127,0.6666 0,0.5053 0.117187,0.8862 0.124512,0.3735 0.336914,0.6299 0.219727,0.249 0.512696,0.3735 0.300293,0.1245 0.651855,0.1245 0.358887,0 0.651856,-0.1245 0.300293,-0.1245 0.505371,-0.3589 0.212402,-0.2344 0.32959,-0.5713 0.117187,-0.3442 0.117187,-0.7763 z m 1.45752,-0.088 q 0,0.6591 -0.219727,1.2231 -0.219727,0.564 -0.622559,0.9741 -0.402832,0.4102 -0.966796,0.6446 -0.563965,0.227 -1.252442,0.227 -0.732422,0 -1.303711,-0.227 -0.563965,-0.2271 -0.952148,-0.6446 -0.38086,-0.4174 -0.578614,-1.0107 -0.1977534,-0.5933 -0.1977534,-1.3257 0,-0.7178 0.2343754,-1.5381 0.234375,-0.8203 0.659179,-1.6553 0.424805,-0.8422 1.018067,-1.6626 0.600586,-0.8203 1.318359,-1.5454 l 1.560059,0 q -0.432129,0.4981 -0.842286,1.0181 -0.410156,0.5127 -0.769042,1.0254 -0.358887,0.5054 -0.644532,0.9888 -0.285644,0.4834 -0.476074,0.9228 0.212402,-0.044 0.490723,-0.081 0.27832,-0.037 0.622558,-0.037 0.585938,0 1.113282,0.1758 0.534668,0.1758 0.930175,0.52 0.402832,0.3369 0.637207,0.8423 0.2417,0.5054 0.2417,1.1646 z"
           style="fill:#8d5fd3;fill-opacity:1" />
      </g>
    </g>
  </g>
</svg>
