<?xml version="1.0" encoding="UTF-8" standalone="no"?>
<!-- Created with Inkscape (http://www.inkscape.org/) -->

<svg
   xmlns:dc="http://purl.org/dc/elements/1.1/"
   xmlns:cc="http://creativecommons.org/ns#"
   xmlns:rdf="http://www.w3.org/1999/02/22-rdf-syntax-ns#"
   xmlns:svg="http://www.w3.org/2000/svg"
   xmlns="http://www.w3.org/2000/svg"
   xmlns:xlink="http://www.w3.org/1999/xlink"
   xmlns:sodipodi="http://sodipodi.sourceforge.net/DTD/sodipodi-0.dtd"
   xmlns:inkscape="http://www.inkscape.org/namespaces/inkscape"
   width="26"
   height="26"
   viewBox="0 0 26 26"
   id="svg2"
   version="1.1"
   inkscape:version="0.91 r13725"
   sodipodi:docname="btn_beatloop_0500_over.svg">
  <defs
     id="defs4">
    <radialGradient
       inkscape:collect="always"
       xlink:href="#linearGradient4733"
       id="radialGradient4725-4-0"
       cx="767.98492"
       cy="168.21617"
       fx="767.98492"
       fy="168.21591"
       r="24.596836"
       gradientTransform="matrix(0.80265805,2.0900855e-7,4.3662419e-5,0.68135443,-603.36232,923.61456)"
       gradientUnits="userSpaceOnUse" />
    <linearGradient
       inkscape:collect="always"
       id="linearGradient4733">
      <stop
         style="stop-color:#8d5fd3;stop-opacity:1"
         offset="0"
         id="stop4735" />
      <stop
         style="stop-color:#000000;stop-opacity:1"
         offset="1"
         id="stop4737" />
    </linearGradient>
    <pattern
       y="0"
       x="0"
       height="6"
       width="6"
       patternUnits="userSpaceOnUse"
       id="EMFhbasepattern" />
  </defs>
  <sodipodi:namedview
     id="base"
     pagecolor="#ffffff"
     bordercolor="#666666"
     borderopacity="1.0"
     inkscape:pageopacity="0.0"
     inkscape:pageshadow="2"
     inkscape:zoom="14.481547"
     inkscape:cx="19.454426"
     inkscape:cy="8.762941"
     inkscape:document-units="px"
     inkscape:current-layer="g5360"
     showgrid="false"
     units="px"
     inkscape:window-width="1920"
     inkscape:window-height="1028"
     inkscape:window-x="-8"
     inkscape:window-y="-8"
     inkscape:window-maximized="1"
     showguides="false" />
  <metadata
     id="metadata7">
    <rdf:RDF>
      <cc:Work
         rdf:about="">
        <dc:format>image/svg+xml</dc:format>
        <dc:type
           rdf:resource="http://purl.org/dc/dcmitype/StillImage" />
        <dc:title />
        <dc:creator>
          <cc:Agent>
            <dc:title>Jorge Rosa</dc:title>
          </cc:Agent>
        </dc:creator>
        <dc:description>Email: jorge.bigarte@gmail.com
Site:https://sites.google.com/site/jorgerosaportfolio</dc:description>
      </cc:Work>
    </rdf:RDF>
  </metadata>
  <g
     inkscape:label="Layer 1"
     inkscape:groupmode="layer"
     id="layer1"
     transform="translate(0,-1026.3622)">
    <g
       id="g5346"
       transform="translate(-0.26598378,-0.04882811)">
      <g
         id="g5360">
        <rect
           style="opacity:0.85900005;fill:none;fill-opacity:1;stroke:#000000;stroke-width:1.00554919;stroke-linecap:round;stroke-linejoin:round;stroke-miterlimit:4;stroke-dasharray:none;stroke-dashoffset:0;stroke-opacity:1"
           id="rect4183-39-0-0-1-8-7"
           width="21.800676"
           height="21.989141"
           x="2.0996618"
           y="1027.9684" />
        <rect
           style="opacity:1;fill:url(#radialGradient4725-4-0);fill-opacity:1;stroke:none;stroke-width:1.02858019;stroke-linecap:round;stroke-linejoin:round;stroke-miterlimit:4;stroke-dasharray:none;stroke-dashoffset:0;stroke-opacity:1"
           id="rect4183-39-0-0-1-8"
           width="21.756294"
           height="21.193104"
           x="2.1132214"
           y="1027.4019" />
        <rect
           style="opacity:1;fill:none;fill-opacity:1;stroke:#1a1a1a;stroke-width:1.02858019;stroke-linecap:round;stroke-linejoin:round;stroke-miterlimit:4;stroke-dasharray:none;stroke-dashoffset:0;stroke-opacity:1"
           id="rect4183-39-0-0-1-8-78"
           width="22.705778"
           height="22.090797"
           x="1.6471109"
           y="-1049.0441"
           transform="scale(1,-1)" />
        <g
           style="font-style:normal;font-variant:normal;font-weight:normal;font-stretch:normal;font-size:14.22179031px;line-height:100%;font-family:'Estrangelo Edessa';-inkscape-font-specification:'Estrangelo Edessa, Normal';text-align:center;letter-spacing:0px;word-spacing:0px;writing-mode:lr-tb;text-anchor:middle;opacity:0.75499998;fill:#e5d5ff;fill-opacity:1;stroke:none;stroke-width:0.5;stroke-linecap:butt;stroke-linejoin:miter;stroke-miterlimit:4;stroke-dasharray:none;stroke-opacity:1"
           id="text4937">
          <path
             d="m 8.8112576,1042.5747 -1.3332929,0 0,-7.2984 q -0.1111077,0.097 -0.2430481,0.2083 -0.1249962,0.1042 -0.2430482,0.1945 l -1.7499469,1.2499 0,-1.3263 2.7151953,-2.0416 0.8541408,0 0,9.0136 z"
             style="fill:#e5d5ff;fill-opacity:1"
             id="path4160" />
          <path
             d="m 13.762496,1042.5747 -1.368014,0 0,-8.9858 1.368014,0 0,8.9858 z"
             style="fill:#e5d5ff;fill-opacity:1"
             id="path4162" />
          <path
             d="m 19.540098,1036.061 q 0,-0.6875 -0.340267,-1.0694 -0.333323,-0.3819 -0.979137,-0.3819 -0.284713,0 -0.604148,0.09 -0.319435,0.083 -0.631925,0.2292 -0.305547,0.1458 -0.59026,0.3333 -0.27777,0.1875 -0.479152,0.3889 l 0,-1.2569 q 0.201382,-0.1875 0.472207,-0.3542 0.270826,-0.1666 0.583316,-0.2916 0.319435,-0.125 0.673591,-0.2014 0.354156,-0.076 0.729144,-0.076 0.604149,0 1.090245,0.1736 0.486096,0.1667 0.819419,0.4861 0.340268,0.3195 0.520818,0.7708 0.187494,0.4445 0.187494,1 0,0.5764 -0.145829,1.0486 -0.138884,0.4652 -0.395821,0.8958 -0.249992,0.4236 -0.597204,0.8472 -0.340267,0.4166 -0.749977,0.9097 l -1.520787,1.8471 3.70822,0 0,1.125 -5.34706,0 0,-0.9791 2.117992,-2.618 q 0.333323,-0.4167 0.604148,-0.7639 0.277769,-0.3472 0.472208,-0.6805 0.194438,-0.3333 0.298602,-0.6875 0.104163,-0.3541 0.104163,-0.7847 z"
             style="fill:#e5d5ff;fill-opacity:1"
             id="path4164" />
        </g>
      </g>
    </g>
  </g>
</svg>
