<?xml version="1.0" encoding="UTF-8" standalone="no"?>
<!-- Created with Inkscape (http://www.inkscape.org/) -->

<svg
   xmlns:dc="http://purl.org/dc/elements/1.1/"
   xmlns:cc="http://creativecommons.org/ns#"
   xmlns:rdf="http://www.w3.org/1999/02/22-rdf-syntax-ns#"
   xmlns:svg="http://www.w3.org/2000/svg"
   xmlns="http://www.w3.org/2000/svg"
   xmlns:xlink="http://www.w3.org/1999/xlink"
   xmlns:sodipodi="http://sodipodi.sourceforge.net/DTD/sodipodi-0.dtd"
   xmlns:inkscape="http://www.inkscape.org/namespaces/inkscape"
   width="26"
   height="26"
   viewBox="0 0 26 26"
   id="svg2"
   version="1.1"
   inkscape:version="0.91 r13725"
   sodipodi:docname="btn_hotcue_3_over.svg">
  <defs
     id="defs4">
    <linearGradient
       inkscape:collect="always"
       id="linearGradient4733">
      <stop
         style="stop-color:#8d5fd3;stop-opacity:1"
         offset="0"
         id="stop4735" />
      <stop
         style="stop-color:#000000;stop-opacity:1"
         offset="1"
         id="stop4737" />
    </linearGradient>
    <pattern
       y="0"
       x="0"
       height="6"
       width="6"
       patternUnits="userSpaceOnUse"
       id="EMFhbasepattern" />
    <radialGradient
       inkscape:collect="always"
       xlink:href="#linearGradient4733"
       id="radialGradient4725-4-0-0"
       cx="767.52008"
       cy="167.22827"
       fx="767.52008"
       fy="167.22801"
       r="24.596836"
       gradientTransform="matrix(0.96121353,2.52162e-8,5.767327e-5,0.74451554,-762.18773,913.40398)"
       gradientUnits="userSpaceOnUse" />
    <pattern
       y="0"
       x="0"
       height="6"
       width="6"
       patternUnits="userSpaceOnUse"
       id="EMFhbasepattern-1" />
    <pattern
       y="0"
       x="0"
       height="6"
       width="6"
       patternUnits="userSpaceOnUse"
       id="EMFhbasepattern-8" />
  </defs>
  <sodipodi:namedview
     id="base"
     pagecolor="#ffffff"
     bordercolor="#666666"
     borderopacity="1.0"
     inkscape:pageopacity="0.0"
     inkscape:pageshadow="2"
     inkscape:zoom="10.24"
     inkscape:cx="7.2760723"
     inkscape:cy="14.768022"
     inkscape:document-units="px"
     inkscape:current-layer="g4255"
     showgrid="false"
     units="px"
     inkscape:window-width="1920"
     inkscape:window-height="1028"
     inkscape:window-x="-8"
     inkscape:window-y="-8"
     inkscape:window-maximized="1"
     showguides="false" />
  <metadata
     id="metadata7">
    <rdf:RDF>
      <cc:Work
         rdf:about="">
        <dc:format>image/svg+xml</dc:format>
        <dc:type
           rdf:resource="http://purl.org/dc/dcmitype/StillImage" />
        <dc:title />
        <dc:creator>
          <cc:Agent>
            <dc:title>Jorge Rosa</dc:title>
          </cc:Agent>
        </dc:creator>
        <dc:description>Email: jorge.bigarte@gmail.com
Site:https://sites.google.com/site/jorgerosaportfolio</dc:description>
      </cc:Work>
    </rdf:RDF>
  </metadata>
  <g
     inkscape:label="Layer 1"
     inkscape:groupmode="layer"
     id="layer1"
     transform="translate(0,-1026.3622)">
    <g
       id="g4255"
       transform="translate(37.02673,0)">
      <rect
         y="1028.0011"
         x="-34.93092"
         height="21.989141"
         width="21.800676"
         id="rect4183-39-0-0-1-8-7-4"
         style="opacity:0.85900005;fill:none;fill-opacity:1;stroke:#000000;stroke-width:1.00554919;stroke-linecap:round;stroke-linejoin:round;stroke-miterlimit:4;stroke-dasharray:none;stroke-dashoffset:0;stroke-opacity:1" />
      <rect
         y="1027.0894"
         x="-35.383472"
         height="22.090797"
         width="22.705778"
         id="rect4183-39-0-0-1-8-2"
         style="opacity:1;fill:url(#radialGradient4725-4-0-0);fill-opacity:1;stroke:none;stroke-width:1.02858019;stroke-linecap:round;stroke-linejoin:round;stroke-miterlimit:4;stroke-dasharray:none;stroke-dashoffset:0;stroke-opacity:1" />
      <rect
         transform="scale(1,-1)"
         y="-1049.0768"
         x="-35.383472"
         height="22.090797"
         width="22.705778"
         id="rect4183-39-0-0-1-8-78-3"
         style="opacity:1;fill:none;fill-opacity:1;stroke:#1a1a1a;stroke-width:1.02858019;stroke-linecap:round;stroke-linejoin:round;stroke-miterlimit:4;stroke-dasharray:none;stroke-dashoffset:0;stroke-opacity:1" />
      <g
         style="font-style:normal;font-variant:normal;font-weight:normal;font-stretch:normal;font-size:14.22179031px;line-height:100%;font-family:'Estrangelo Edessa';-inkscape-font-specification:'Estrangelo Edessa, Normal';text-align:center;letter-spacing:0px;word-spacing:0px;writing-mode:lr-tb;text-anchor:middle;opacity:0.75499998;fill:#e5d5ff;fill-opacity:1;stroke:none;stroke-width:0.5;stroke-linecap:butt;stroke-linejoin:miter;stroke-miterlimit:4;stroke-dasharray:none;stroke-opacity:1"
         id="text4937-0">
        <path
           d="m -21.387921,1040.045 q 0,0.6111 -0.22916,1.1111 -0.222216,0.493 -0.63887,0.8472 -0.409709,0.3472 -0.986081,0.5416 -0.569427,0.1875 -1.26385,0.1875 -0.618037,0 -1.173576,-0.125 -0.548594,-0.1319 -0.986081,-0.3958 l 0,-1.2708 q 0.243048,0.1667 0.520818,0.3056 0.277769,0.1319 0.555538,0.2291 0.27777,0.09 0.54165,0.1458 0.270826,0.049 0.499985,0.049 0.895806,0 1.31246,-0.4167 0.423599,-0.4236 0.423599,-1.1458 0,-0.3611 -0.159718,-0.6389 -0.152773,-0.2777 -0.444431,-0.4652 -0.284713,-0.1945 -0.680535,-0.2917 -0.395821,-0.097 -0.874973,-0.097 l -0.666646,0 0,-1.1389 0.423598,0 q 0.534706,0 0.930527,-0.118 0.395821,-0.125 0.652758,-0.3333 0.263881,-0.2084 0.388877,-0.4931 0.131941,-0.2847 0.131941,-0.6111 0,-0.3541 -0.111108,-0.6041 -0.104164,-0.25 -0.291658,-0.4097 -0.187494,-0.1598 -0.444431,-0.2292 -0.256937,-0.076 -0.562483,-0.076 -0.201383,0 -0.458319,0.049 -0.249993,0.049 -0.527762,0.1459 -0.277769,0.09 -0.562483,0.2222 -0.277769,0.125 -0.527762,0.2916 l 0,-1.2083 q 0.499985,-0.3125 1.04858,-0.4513 0.555538,-0.1459 1.159687,-0.1459 0.631925,0 1.124965,0.1597 0.493041,0.1598 0.833308,0.4653 0.340268,0.2986 0.520818,0.7292 0.18055,0.4236 0.18055,0.9652 0,0.3889 -0.13194,0.7292 -0.124997,0.3333 -0.347212,0.611 -0.222216,0.2709 -0.534706,0.4792 -0.305546,0.2083 -0.666646,0.3403 0.458319,0.083 0.826363,0.2708 0.374989,0.1875 0.63887,0.4583 0.270825,0.2708 0.40971,0.6111 0.145829,0.3403 0.145829,0.7222 z"
           style="fill:#e5d5ff;fill-opacity:1"
           id="path4156" />
      </g>
    </g>
  </g>
</svg>
