<?xml version="1.0" encoding="UTF-8" standalone="no"?>
<!-- Created with Inkscape (http://www.inkscape.org/) -->

<svg
   xmlns:dc="http://purl.org/dc/elements/1.1/"
   xmlns:cc="http://creativecommons.org/ns#"
   xmlns:rdf="http://www.w3.org/1999/02/22-rdf-syntax-ns#"
   xmlns:svg="http://www.w3.org/2000/svg"
   xmlns="http://www.w3.org/2000/svg"
   xmlns:xlink="http://www.w3.org/1999/xlink"
   xmlns:sodipodi="http://sodipodi.sourceforge.net/DTD/sodipodi-0.dtd"
   xmlns:inkscape="http://www.inkscape.org/namespaces/inkscape"
   width="26"
   height="16"
   viewBox="0 0 26 16"
   id="svg2"
   version="1.1"
   inkscape:version="0.91 r13725"
   sodipodi:docname="btn_on.svg">
  <defs
     id="defs4">
    <radialGradient
       inkscape:collect="always"
       xlink:href="#linearGradient4733"
       id="radialGradient4725-4-0"
       cx="767.75616"
       cy="163.65948"
       fx="767.75616"
       fy="163.65923"
       r="24.596836"
       gradientTransform="matrix(0.36086673,1.3677903e-5,-3.9433222e-6,0.36425253,-264.15438,982.97884)"
       gradientUnits="userSpaceOnUse" />
    <linearGradient
       inkscape:collect="always"
       id="linearGradient4733">
      <stop
         style="stop-color:#8d5fd3;stop-opacity:1"
         offset="0"
         id="stop4735" />
      <stop
         style="stop-color:#000000;stop-opacity:1"
         offset="1"
         id="stop4737" />
    </linearGradient>
    <pattern
       y="0"
       x="0"
       height="6"
       width="6"
       patternUnits="userSpaceOnUse"
       id="EMFhbasepattern" />
    <pattern
       y="0"
       x="0"
       height="6"
       width="6"
       patternUnits="userSpaceOnUse"
       id="EMFhbasepattern-1" />
    <pattern
       y="0"
       x="0"
       height="6"
       width="6"
       patternUnits="userSpaceOnUse"
       id="EMFhbasepattern-0" />
    <pattern
       y="0"
       x="0"
       height="6"
       width="6"
       patternUnits="userSpaceOnUse"
       id="EMFhbasepattern-5" />
  </defs>
  <sodipodi:namedview
     id="base"
     pagecolor="#ffffff"
     bordercolor="#666666"
     borderopacity="1.0"
     inkscape:pageopacity="0.0"
     inkscape:pageshadow="2"
     inkscape:zoom="17.697363"
     inkscape:cx="10.949699"
     inkscape:cy="7.0792341"
     inkscape:document-units="px"
     inkscape:current-layer="layer1"
     showgrid="false"
     units="px"
     inkscape:window-width="1920"
     inkscape:window-height="1028"
     inkscape:window-x="-8"
     inkscape:window-y="-8"
     inkscape:window-maximized="1"
     showguides="false" />
  <metadata
     id="metadata7">
    <rdf:RDF>
      <cc:Work
         rdf:about="">
        <dc:format>image/svg+xml</dc:format>
        <dc:type
           rdf:resource="http://purl.org/dc/dcmitype/StillImage" />
        <dc:title></dc:title>
        <dc:creator>
          <cc:Agent>
            <dc:title>Jorge Rosa</dc:title>
          </cc:Agent>
        </dc:creator>
        <dc:description>Email: jorge.bigarte@gmail.com
Site:https://sites.google.com/site/jorgerosaportfolio</dc:description>
      </cc:Work>
    </rdf:RDF>
  </metadata>
  <g
     inkscape:label="Layer 1"
     inkscape:groupmode="layer"
     id="layer1"
     transform="translate(0,-1036.3622)">
    <rect
       style="opacity:1;fill:url(#radialGradient4725-4-0);fill-opacity:1;stroke:none;stroke-width:1.02858019;stroke-linecap:round;stroke-linejoin:round;stroke-miterlimit:4;stroke-dasharray:none;stroke-dashoffset:0;stroke-opacity:1"
       id="rect4183-39-0-0-1-8"
       width="26"
       height="16"
       x="0"
       y="1036.3622" />
    <g
       id="g4"
       transform="matrix(0.00651042,0,0,-0.00643263,7.9999974,1047.5388)"
       style="fill:#e5d5ff;fill-opacity:1">
      <path
         style="fill:#e5d5ff;fill-opacity:1"
         inkscape:connector-curvature="0"
         id="path6"
         d="M 1536,640 Q 1536,484 1475,342 1414,200 1311,97 1208,-6 1066,-67 924,-128 768,-128 612,-128 470,-67 328,-6 225,97 122,200 61,342 0,484 0,640 0,822 80.5,983 161,1144 307,1253 q 43,32 95.5,25 52.5,-7 83.5,-50 32,-42 24.5,-94.5 Q 503,1081 461,1049 363,975 309.5,868 256,761 256,640 256,536 296.5,441.5 337,347 406,278 475,209 569.5,168.5 664,128 768,128 872,128 966.5,168.5 1061,209 1130,278 q 69,69 109.5,163.5 40.5,94.5 40.5,198.5 0,121 -53.5,228 -53.5,107 -151.5,181 -42,32 -49.5,84.5 -7.5,52.5 24.5,94.5 31,43 84,50 53,7 95,-25 146,-109 226.5,-270 80.5,-161 80.5,-343 z m -640,768 0,-640 q 0,-52 -38,-90 -38,-38 -90,-38 -52,0 -90,38 -38,38 -38,90 l 0,640 q 0,52 38,90 38,38 90,38 52,0 90,-38 38,-38 38,-90 z" />
    </g>
  </g>
</svg>
