<?xml version="1.0" encoding="UTF-8" standalone="no"?>
<!-- Created with Inkscape (http://www.inkscape.org/) -->

<svg
   xmlns:dc="http://purl.org/dc/elements/1.1/"
   xmlns:cc="http://creativecommons.org/ns#"
   xmlns:rdf="http://www.w3.org/1999/02/22-rdf-syntax-ns#"
   xmlns:svg="http://www.w3.org/2000/svg"
   xmlns="http://www.w3.org/2000/svg"
   xmlns:xlink="http://www.w3.org/1999/xlink"
   xmlns:sodipodi="http://sodipodi.sourceforge.net/DTD/sodipodi-0.dtd"
   xmlns:inkscape="http://www.inkscape.org/namespaces/inkscape"
   width="52"
   height="26"
   viewBox="0 0 52 26"
   id="svg2"
   version="1.1"
   inkscape:version="0.91 r13725"
   sodipodi:docname="btn_sync.svg">
  <defs
     id="defs4">
    <radialGradient
       inkscape:collect="always"
       xlink:href="#linearGradient4733"
       id="radialGradient4725-4-0"
       cx="767.76959"
       cy="168.09184"
       fx="767.76959"
       fy="168.09158"
       r="24.596836"
       gradientTransform="matrix(0.97809516,2.1210791e-7,2.2057274e-5,0.4610913,-725.24991,960.78919)"
       gradientUnits="userSpaceOnUse" />
    <linearGradient
       inkscape:collect="always"
       id="linearGradient4733">
      <stop
         style="stop-color:#170b28;stop-opacity:1"
         offset="0"
         id="stop4735" />
      <stop
         style="stop-color:#000000;stop-opacity:1"
         offset="1"
         id="stop4737" />
    </linearGradient>
    <pattern
       y="0"
       x="0"
       height="6"
       width="6"
       patternUnits="userSpaceOnUse"
       id="EMFhbasepattern" />
    <pattern
       y="0"
       x="0"
       height="6"
       width="6"
       patternUnits="userSpaceOnUse"
       id="EMFhbasepattern-9" />
    <pattern
       y="0"
       x="0"
       height="6"
       width="6"
       patternUnits="userSpaceOnUse"
       id="EMFhbasepattern-6" />
  </defs>
  <sodipodi:namedview
     id="base"
     pagecolor="#ffffff"
     bordercolor="#666666"
     borderopacity="1.0"
     inkscape:pageopacity="0.0"
     inkscape:pageshadow="2"
     inkscape:zoom="10.24"
     inkscape:cx="18.770965"
     inkscape:cy="7.3561064"
     inkscape:document-units="px"
     inkscape:current-layer="g4159"
     showgrid="false"
     units="px"
     inkscape:window-width="1920"
     inkscape:window-height="1028"
     inkscape:window-x="-8"
     inkscape:window-y="-8"
     inkscape:window-maximized="1"
     showguides="false" />
  <metadata
     id="metadata7">
    <rdf:RDF>
      <cc:Work
         rdf:about="">
        <dc:format>image/svg+xml</dc:format>
        <dc:type
           rdf:resource="http://purl.org/dc/dcmitype/StillImage" />
        <dc:title />
        <dc:creator>
          <cc:Agent>
            <dc:title>Jorge Rosa</dc:title>
          </cc:Agent>
        </dc:creator>
        <dc:description>Email: jorge.bigarte@gmail.com
Site:https://sites.google.com/site/jorgerosaportfolio</dc:description>
      </cc:Work>
    </rdf:RDF>
  </metadata>
  <g
     inkscape:label="Layer 1"
     inkscape:groupmode="layer"
     id="layer1"
     transform="translate(0,-1026.3622)">
    <g
       id="g4159"
       transform="translate(-5.0000001e-8,-0.3214)">
      <path
         id="rect4183-39-0-0-1-8-7"
         d="m 2.288641,1028.1945 47.422718,0 0,21.244 -47.422718,0 z"
         style="opacity:0.85900005;fill:none;fill-opacity:1;stroke:#000000;stroke-width:1.45772481;stroke-linecap:round;stroke-linejoin:round;stroke-miterlimit:4;stroke-dasharray:none;stroke-dashoffset:0;stroke-opacity:1"
         inkscape:connector-curvature="0" />
      <path
         id="rect4183-39-0-0-1-8"
         d="m 1.6588306,1027.0566 48.6823384,0 0,22.0908 -48.6823384,0 z"
         style="opacity:1;fill:url(#radialGradient4725-4-0);fill-opacity:1;stroke:none;stroke-width:1.02858019;stroke-linecap:round;stroke-linejoin:round;stroke-miterlimit:4;stroke-dasharray:none;stroke-dashoffset:0;stroke-opacity:1"
         inkscape:connector-curvature="0" />
      <path
         id="rect4183-39-0-0-1-8-78"
         d="m 1.6940441,-1048.8136 48.6119119,0 0,21.63 -48.6119119,0 z"
         style="opacity:1;fill:none;fill-opacity:1;stroke:#1a1a1a;stroke-width:1;stroke-linecap:round;stroke-linejoin:round;stroke-miterlimit:4;stroke-dasharray:none;stroke-dashoffset:0;stroke-opacity:1"
         transform="scale(1,-1)"
         inkscape:connector-curvature="0" />
      <g
         id="text4143"
         style="font-style:normal;font-variant:normal;font-weight:normal;font-stretch:normal;font-size:15px;line-height:100%;font-family:'Estrangelo Edessa';-inkscape-font-specification:'Estrangelo Edessa, Normal';text-align:start;letter-spacing:0px;word-spacing:0px;writing-mode:lr-tb;text-anchor:start;fill:#8d5fd3;fill-opacity:1;stroke:none;stroke-width:1px;stroke-linecap:butt;stroke-linejoin:miter;stroke-opacity:1">
        <path
           id="path4148"
           d="m 15.116211,1039.9452 q 0,0.5786 -0.205078,1.0913 -0.197754,0.5054 -0.593262,0.8862 -0.388183,0.3736 -0.974121,0.5933 -0.578613,0.2124 -1.347656,0.2124 -0.373535,0 -0.747071,-0.051 -0.36621,-0.044 -0.703125,-0.1318 -0.329589,-0.095 -0.6152339,-0.2124 -0.2856446,-0.1245 -0.4980469,-0.2637 l 0,-1.4648 q 0.234375,0.1684 0.5493164,0.3369 0.3222654,0.1611 0.6738284,0.293 0.351562,0.1245 0.695801,0.205 0.351562,0.081 0.629882,0.081 0.424805,0 0.739746,-0.1025 0.322266,-0.1099 0.534668,-0.3077 0.219727,-0.1977 0.322266,-0.4687 0.109863,-0.2783 0.109863,-0.6079 0,-0.3736 -0.13916,-0.6299 -0.131836,-0.2563 -0.380859,-0.4468 -0.249024,-0.1904 -0.600586,-0.3442 -0.351563,-0.1538 -0.783692,-0.3223 -0.593261,-0.2344 -1.054687,-0.4687 -0.461426,-0.2417 -0.7763673,-0.542 -0.3149414,-0.3076 -0.4833984,-0.7032 -0.1611328,-0.4028 -0.1611328,-0.9521 0,-0.6006 0.2416992,-1.084 0.2416992,-0.4907 0.6591793,-0.8276 0.417481,-0.3443 0.974121,-0.5274 0.563965,-0.1904 1.201172,-0.1904 0.681153,0 1.230469,0.1245 0.549317,0.1245 1.003418,0.315 l 0,1.3183 q -0.212402,-0.1025 -0.490723,-0.1977 -0.27832,-0.095 -0.585937,-0.1685 -0.307617,-0.081 -0.615234,-0.1245 -0.307618,-0.051 -0.585938,-0.051 -0.388184,0 -0.688477,0.1026 -0.300292,0.095 -0.512695,0.271 -0.205078,0.1757 -0.314941,0.4248 -0.102539,0.2417 -0.102539,0.5346 0,0.3296 0.13916,0.5713 0.13916,0.2344 0.395508,0.4248 0.256347,0.1831 0.615234,0.3443 0.366211,0.1538 0.812988,0.3296 0.571289,0.227 1.018067,0.476 0.454101,0.2417 0.761718,0.564 0.314942,0.3149 0.483399,0.7324 0.168457,0.4102 0.168457,0.9595 z"
           inkscape:connector-curvature="0"
           style="fill:#8d5fd3;fill-opacity:1" />
        <path
           id="path4150"
           d="m 23.700195,1033.119 -3.237304,5.4859 0,3.9917 -1.442871,0 0,-3.9478 -3.237305,-5.5298 1.604004,0 1.977539,3.5376 q 0.04395,0.073 0.09521,0.1758 0.05127,0.1025 0.102539,0.2124 0.05859,0.1099 0.109863,0.2271 0.05127,0.1098 0.08789,0.1977 0.03662,-0.095 0.08057,-0.2051 0.04395,-0.1098 0.08789,-0.2197 0.05127,-0.1099 0.09521,-0.2051 0.05127,-0.1025 0.09521,-0.1684 l 2.06543,-3.5523 1.516113,0 z"
           inkscape:connector-curvature="0"
           style="fill:#8d5fd3;fill-opacity:1" />
        <path
           id="path4152"
           d="m 33.236328,1042.5966 -1.413574,0 -4.636231,-6.1524 q -0.05127,-0.059 -0.175781,-0.2344 -0.117187,-0.1831 -0.256347,-0.3955 -0.131836,-0.2124 -0.256348,-0.4174 -0.124512,-0.2051 -0.183106,-0.315 l 0,7.5147 -1.333007,0 0,-9.4776 1.516113,0 4.423828,5.94 q 0.109863,0.1538 0.256348,0.3735 0.146484,0.2124 0.285644,0.4394 0.13916,0.2198 0.256348,0.4249 0.124512,0.1977 0.19043,0.3222 l 0,-7.5 1.325683,0 0,9.4776 z"
           inkscape:connector-curvature="0"
           style="fill:#8d5fd3;fill-opacity:1" />
        <path
           id="path4154"
           d="m 36.869141,1037.9603 q 0,0.7984 0.22705,1.4575 0.234375,0.6519 0.651856,1.1207 0.424805,0.4687 1.010742,0.725 0.593262,0.2564 1.311035,0.2564 0.666504,0 1.31836,-0.1758 0.659179,-0.1758 1.259765,-0.5054 l 0,1.2964 q -0.549316,0.293 -1.230469,0.4468 -0.681152,0.1465 -1.486816,0.1465 -1.003418,0 -1.845703,-0.3516 -0.834961,-0.3515 -1.442871,-0.9814 -0.600586,-0.6299 -0.9375,-1.5015 -0.32959,-0.8789 -0.32959,-1.9336 0,-1.084 0.358887,-1.9922 0.358886,-0.9155 0.988769,-1.5747 0.637207,-0.6591 1.501465,-1.0254 0.871582,-0.3735 1.889649,-0.3735 0.344238,0 0.6958,0.044 0.351563,0.037 0.688477,0.1098 0.336914,0.066 0.637207,0.1611 0.307617,0.088 0.556641,0.1978 l 0,1.2891 q -0.256348,-0.1099 -0.57129,-0.2198 -0.314941,-0.1098 -0.651855,-0.1904 -0.336914,-0.088 -0.688477,-0.1392 -0.351562,-0.051 -0.681152,-0.051 -0.688476,0 -1.281738,0.271 -0.585938,0.2636 -1.018067,0.7544 -0.432129,0.4907 -0.681152,1.1865 -0.249023,0.6958 -0.249023,1.5527 z"
           inkscape:connector-curvature="0"
           style="fill:#8d5fd3;fill-opacity:1" />
      </g>
    </g>
  </g>
</svg>
