<?xml version="1.0" encoding="UTF-8" standalone="no"?>
<!-- Created with Inkscape (http://www.inkscape.org/) -->

<svg
   xmlns:dc="http://purl.org/dc/elements/1.1/"
   xmlns:cc="http://creativecommons.org/ns#"
   xmlns:rdf="http://www.w3.org/1999/02/22-rdf-syntax-ns#"
   xmlns:svg="http://www.w3.org/2000/svg"
   xmlns="http://www.w3.org/2000/svg"
   xmlns:xlink="http://www.w3.org/1999/xlink"
   xmlns:sodipodi="http://sodipodi.sourceforge.net/DTD/sodipodi-0.dtd"
   xmlns:inkscape="http://www.inkscape.org/namespaces/inkscape"
   width="25"
   height="25"
   viewBox="0 0 25 25"
   id="svg2"
   version="1.1"
   inkscape:version="0.91 r13725"
   sodipodi:docname="btn_longwave_2.svg">
  <defs
     id="defs4">
    <linearGradient
       id="linearGradient4260"
       inkscape:collect="always">
      <stop
         id="stop4262"
         offset="0"
         style="stop-color:#333333;stop-opacity:1" />
      <stop
         id="stop4264"
         offset="1"
         style="stop-color:#000000;stop-opacity:1" />
    </linearGradient>
    <radialGradient
       inkscape:collect="always"
       xlink:href="#linearGradient4260"
       id="radialGradient4199"
       cx="49.549362"
       cy="1016.939"
       fx="49.549362"
       fy="1016.939"
       r="50.506916"
       gradientTransform="matrix(1.1827817,8.4734526e-8,0,0.25666457,-45.856148,777.89468)"
       gradientUnits="userSpaceOnUse" />
    <inkscape:perspective
       id="perspective2840"
       inkscape:persp3d-origin="372.04724 : 350.78739 : 1"
       inkscape:vp_z="744.09448 : 526.18109 : 1"
       inkscape:vp_y="0 : 1000 : 0"
       inkscape:vp_x="0 : 526.18109 : 1"
       sodipodi:type="inkscape:persp3d" />
    <inkscape:perspective
       id="perspective2840-1"
       inkscape:persp3d-origin="372.04724 : 350.78739 : 1"
       inkscape:vp_z="744.09448 : 526.18109 : 1"
       inkscape:vp_y="0 : 1000 : 0"
       inkscape:vp_x="0 : 526.18109 : 1"
       sodipodi:type="inkscape:persp3d" />
  </defs>
  <sodipodi:namedview
     id="base"
     pagecolor="#ffffff"
     bordercolor="#666666"
     borderopacity="1.0"
     inkscape:pageopacity="0.0"
     inkscape:pageshadow="2"
     inkscape:zoom="6.155146"
     inkscape:cx="0.40015375"
     inkscape:cy="11.985664"
     inkscape:document-units="px"
     inkscape:current-layer="g4447"
     showgrid="false"
     units="px"
     inkscape:window-width="1920"
     inkscape:window-height="1028"
     inkscape:window-x="-8"
     inkscape:window-y="-8"
     inkscape:window-maximized="1"
     objecttolerance="10"
     guidetolerance="9" />
  <metadata
     id="metadata7">
    <rdf:RDF>
      <cc:Work
         rdf:about="">
        <dc:format>image/svg+xml</dc:format>
        <dc:type
           rdf:resource="http://purl.org/dc/dcmitype/StillImage" />
        <dc:title />
        <dc:creator>
          <cc:Agent>
            <dc:title>Jorge Rosa</dc:title>
          </cc:Agent>
        </dc:creator>
        <dc:description>Email: jorge.bigarte@gmail.com
Site:https://sites.google.com/site/jorgerosaportfolio</dc:description>
      </cc:Work>
    </rdf:RDF>
  </metadata>
  <g
     inkscape:label="Layer 1"
     inkscape:groupmode="layer"
     id="layer1"
     transform="translate(0,-1027.3622)">
    <g
       id="text4230-1-6"
       style="font-style:normal;font-variant:normal;font-weight:normal;font-stretch:normal;font-size:15.33438301px;line-height:100%;font-family:'Estrangelo Edessa';-inkscape-font-specification:'Estrangelo Edessa, Normal';text-align:start;letter-spacing:0px;word-spacing:0px;writing-mode:lr-tb;text-anchor:start;fill:#000000;fill-opacity:1;stroke:none;stroke-width:1px;stroke-linecap:butt;stroke-linejoin:miter;stroke-opacity:1"
       transform="matrix(0.84348287,0,0,0.84348287,-48.525924,133.87022)" />
    <g
       id="g4447"
       transform="translate(-3.4005955,28.81897)">
      <g
         style="font-style:normal;font-variant:normal;font-weight:normal;font-stretch:normal;font-size:medium;line-height:100%;font-family:'Estrangelo Edessa';-inkscape-font-specification:'Estrangelo Edessa, Normal';text-align:start;letter-spacing:0px;word-spacing:0px;writing-mode:lr-tb;text-anchor:start;fill:#666666;fill-opacity:1;stroke:none;stroke-width:1px;stroke-linecap:butt;stroke-linejoin:miter;stroke-opacity:1"
         transform="matrix(0.84348287,0,0,0.84348287,-48.514791,134.72493)"
         id="g4328" />
      <g
         id="g4185"
         transform="matrix(1.0416667,0,0,1,-1.1833581,0)">
        <path
           inkscape:connector-curvature="0"
           id="rect4183"
           d="m 1,1027.3622 24,0 0,25 -24,0 z"
           style="opacity:1;fill:url(#radialGradient4199);fill-opacity:1;stroke:none;stroke-width:1.45610845;stroke-linecap:round;stroke-linejoin:round;stroke-miterlimit:4;stroke-dasharray:none;stroke-opacity:1"
           transform="translate(3.4005955,-28.81897)" />
        <g
           transform="translate(3.1234114,-28.18527)"
           id="g4324">
          <path
             style="fill:none;fill-rule:evenodd;stroke:#000000;stroke-width:0.18016605px;stroke-linecap:butt;stroke-linejoin:miter;stroke-opacity:1"
             d="m 1.2771867,1029.1188 23.9999963,0"
             id="path5581-0-0-8-2-98"
             inkscape:connector-curvature="0" />
          <path
             style="fill:none;fill-rule:evenodd;stroke:#000000;stroke-width:0.18016605px;stroke-linecap:butt;stroke-linejoin:miter;stroke-opacity:1"
             d="m 1.2771867,1030.957 23.9999963,0"
             id="path5581-9-7-1-9-73"
             inkscape:connector-curvature="0" />
          <path
             style="fill:none;fill-rule:evenodd;stroke:#000000;stroke-width:0.18016605px;stroke-linecap:butt;stroke-linejoin:miter;stroke-opacity:1"
             d="m 1.2771867,1032.7951 23.9999963,0"
             id="path5581-1-4-5-4-4"
             inkscape:connector-curvature="0" />
          <path
             style="fill:none;fill-rule:evenodd;stroke:#000000;stroke-width:0.18016605px;stroke-linecap:butt;stroke-linejoin:miter;stroke-opacity:1"
             d="m 1.2771867,1034.6333 23.9999963,0"
             id="path5581-8-4-5-7-9"
             inkscape:connector-curvature="0" />
          <path
             style="fill:none;fill-rule:evenodd;stroke:#000000;stroke-width:0.18016605px;stroke-linecap:butt;stroke-linejoin:miter;stroke-opacity:1"
             d="m 1.2771867,1036.4712 23.9999963,0"
             id="path5581-01-40-1-3-03"
             inkscape:connector-curvature="0" />
          <path
             style="fill:none;fill-rule:evenodd;stroke:#000000;stroke-width:0.18016605px;stroke-linecap:butt;stroke-linejoin:miter;stroke-opacity:1"
             d="m 1.2771867,1038.3094 23.9999963,0"
             id="path5581-3-01-6-9-6"
             inkscape:connector-curvature="0" />
          <path
             style="fill:none;fill-rule:evenodd;stroke:#000000;stroke-width:0.18016605px;stroke-linecap:butt;stroke-linejoin:miter;stroke-opacity:1"
             d="m 1.2771867,1040.1476 23.9999963,0"
             id="path5581-82-36-5-3-86"
             inkscape:connector-curvature="0" />
          <path
             style="fill:none;fill-rule:evenodd;stroke:#000000;stroke-width:0.18016605px;stroke-linecap:butt;stroke-linejoin:miter;stroke-opacity:1"
             d="m 1.2771867,1041.9857 23.9999963,0"
             id="path5581-82-9-33-4-9-7"
             inkscape:connector-curvature="0" />
          <path
             style="fill:none;fill-rule:evenodd;stroke:#000000;stroke-width:0.18016605px;stroke-linecap:butt;stroke-linejoin:miter;stroke-opacity:1"
             d="m 1.2771867,1043.8236 23.9999963,0"
             id="path5581-82-3-0-0-5-8"
             inkscape:connector-curvature="0" />
          <path
             style="fill:none;fill-rule:evenodd;stroke:#000000;stroke-width:0.18016605px;stroke-linecap:butt;stroke-linejoin:miter;stroke-opacity:1"
             d="m 1.2771843,1045.6618 23.9999997,0"
             id="path5581-82-0-6-3-1-3"
             inkscape:connector-curvature="0" />
          <path
             style="fill:none;fill-rule:evenodd;stroke:#000000;stroke-width:0.18016605px;stroke-linecap:butt;stroke-linejoin:miter;stroke-opacity:1"
             d="m 1.2771867,1047.4999 23.9999963,0"
             id="path5581-82-1-1-3-3-8"
             inkscape:connector-curvature="0" />
          <path
             style="fill:none;fill-rule:evenodd;stroke:#000000;stroke-width:0.18016605px;stroke-linecap:butt;stroke-linejoin:miter;stroke-opacity:1"
             d="m 1.2771867,1049.3381 23.9999963,0"
             id="path5581-82-5-6-6-0-3"
             inkscape:connector-curvature="0" />
        </g>
        <g
           transform="translate(-0.2409525,-0.88447)"
           id="g4443">
          <g
             style="font-style:normal;font-variant:normal;font-weight:normal;font-stretch:normal;font-size:18.59985733px;line-height:100%;font-family:'Estrangelo Edessa';-inkscape-font-specification:'Estrangelo Edessa, Normal';text-align:start;letter-spacing:0px;word-spacing:0px;writing-mode:lr-tb;text-anchor:start;fill:#000000;fill-opacity:1;stroke:none;stroke-width:1px;stroke-linecap:butt;stroke-linejoin:miter;stroke-opacity:1"
             id="text4236-6-68">
            <path
               inkscape:connector-curvature="0"
               d="m 17.890319,1009.6347 q 0,-0.3269 -0.108984,-0.6176 -0.108983,-0.2997 -0.363278,-0.5267 -0.245213,-0.2271 -0.64482,-0.3542 Q 16.382713,1008 15.810549,1008 q -0.354196,0 -0.617573,0.01 -0.254295,0.01 -0.46318,0.027 l 0,3.5783 0.744721,0 q 1.180655,0 1.798228,-0.5086 0.617574,-0.5086 0.617574,-1.4713 z m 0.635737,5.2676 q 0,-0.9536 -0.644819,-1.4077 -0.64482,-0.4541 -1.907212,-0.4541 l -1.244229,0 0,3.887 q 0.290623,0.027 0.626655,0.045 0.345115,0.01 0.762885,0.01 1.135245,0 1.770983,-0.5449 0.635737,-0.554 0.635737,-1.5348 z m 1.816392,-0.054 q 0,0.7901 -0.263377,1.444 -0.254295,0.6539 -0.808294,1.1262 -0.544918,0.4722 -1.398622,0.7356 -0.844623,0.2634 -2.025278,0.2634 -0.299704,0 -0.699311,-0.018 -0.390524,-0.01 -0.799212,-0.036 -0.399607,-0.018 -0.771967,-0.054 -0.372361,-0.036 -0.635737,-0.073 l 0,-11.5704 q 0.535835,-0.045 1.289638,-0.064 0.762885,-0.027 1.562098,-0.027 0.92636,0 1.652917,0.1998 0.735638,0.1907 1.235146,0.5631 0.50859,0.3723 0.771967,0.9173 0.263377,0.5449 0.263377,1.2533 0,0.4632 -0.127148,0.8718 -0.127147,0.3996 -0.354196,0.7357 -0.217967,0.336 -0.526754,0.5994 -0.308786,0.2634 -0.672065,0.4359 0.481344,0.1181 0.899114,0.3542 0.426852,0.2271 0.735639,0.5722 0.317869,0.336 0.490426,0.781 0.181639,0.4451 0.181639,0.99 z"
               id="path4438" />
          </g>
          <g
             style="font-style:normal;font-variant:normal;font-weight:normal;font-stretch:normal;font-size:18.59985733px;line-height:100%;font-family:'Estrangelo Edessa';-inkscape-font-specification:'Estrangelo Edessa, Normal';text-align:start;letter-spacing:0px;word-spacing:0px;writing-mode:lr-tb;text-anchor:start;fill:#666666;fill-opacity:1;stroke:none;stroke-width:1px;stroke-linecap:butt;stroke-linejoin:miter;stroke-opacity:1"
             id="text4236-6-55">
            <path
               inkscape:connector-curvature="0"
               d="m 17.890317,1008.4975 q 0,-0.3269 -0.108984,-0.6176 -0.108983,-0.2997 -0.363278,-0.5267 -0.245213,-0.2271 -0.64482,-0.3542 -0.390524,-0.1362 -0.962687,-0.1362 -0.354197,0 -0.617574,0.01 -0.254295,0.01 -0.46318,0.027 l 0,3.5783 0.744721,0 q 1.180655,0 1.798228,-0.5086 0.617574,-0.5086 0.617574,-1.4713 z m 0.635737,5.2676 q 0,-0.9537 -0.644819,-1.4078 -0.644819,-0.454 -1.907212,-0.454 l -1.244229,0 0,3.887 q 0.290623,0.027 0.626655,0.045 0.345115,0.01 0.762885,0.01 1.135245,0 1.770983,-0.5449 0.635737,-0.554 0.635737,-1.5348 z m 1.816392,-0.054 q 0,0.7901 -0.263376,1.444 -0.254295,0.6539 -0.808295,1.1262 -0.544918,0.4722 -1.398622,0.7356 -0.844623,0.2634 -2.025278,0.2634 -0.299704,0 -0.699311,-0.018 -0.390524,-0.01 -0.799212,-0.036 -0.399607,-0.018 -0.771967,-0.054 -0.37236,-0.036 -0.635737,-0.073 l 0,-11.5704 q 0.535835,-0.045 1.289638,-0.064 0.762885,-0.027 1.562098,-0.027 0.92636,0 1.652917,0.1998 0.735639,0.1907 1.235146,0.5631 0.50859,0.3723 0.771967,0.9173 0.263377,0.5449 0.263377,1.2533 0,0.4631 -0.127147,0.8718 -0.127148,0.3996 -0.354197,0.7357 -0.217967,0.336 -0.526754,0.5994 -0.308786,0.2634 -0.672065,0.4359 0.481344,0.1181 0.899114,0.3542 0.426853,0.2271 0.735639,0.5722 0.317869,0.336 0.490426,0.781 0.181639,0.445 0.181639,0.99 z"
               id="path4441" />
          </g>
        </g>
      </g>
    </g>
  </g>
</svg>
