<?xml version="1.0" encoding="UTF-8" standalone="no"?>
<!-- Created with Inkscape (http://www.inkscape.org/) -->

<svg
   xmlns:dc="http://purl.org/dc/elements/1.1/"
   xmlns:cc="http://creativecommons.org/ns#"
   xmlns:rdf="http://www.w3.org/1999/02/22-rdf-syntax-ns#"
   xmlns:svg="http://www.w3.org/2000/svg"
   xmlns="http://www.w3.org/2000/svg"
   xmlns:xlink="http://www.w3.org/1999/xlink"
   xmlns:sodipodi="http://sodipodi.sourceforge.net/DTD/sodipodi-0.dtd"
   xmlns:inkscape="http://www.inkscape.org/namespaces/inkscape"
   width="26"
   height="26"
   viewBox="0 0 26 26"
   id="svg2"
   version="1.1"
   inkscape:version="0.91 r13725"
   sodipodi:docname="btn_hotcue_8.svg">
  <defs
     id="defs4">
    <radialGradient
       inkscape:collect="always"
       xlink:href="#linearGradient4733"
       id="radialGradient4725-4-0"
       cx="768.05133"
       cy="166.94632"
       fx="768.05133"
       fy="166.94606"
       r="24.596836"
       gradientTransform="matrix(0.44745756,-6.0228139e-8,9.2685302e-6,0.43598662,-330.47075,964.88113)"
       gradientUnits="userSpaceOnUse" />
    <linearGradient
       inkscape:collect="always"
       id="linearGradient4733">
      <stop
         style="stop-color:#170b28;stop-opacity:1"
         offset="0"
         id="stop4735" />
      <stop
         style="stop-color:#000000;stop-opacity:1"
         offset="1"
         id="stop4737" />
    </linearGradient>
    <pattern
       y="0"
       x="0"
       height="6"
       width="6"
       patternUnits="userSpaceOnUse"
       id="EMFhbasepattern" />
    <pattern
       y="0"
       x="0"
       height="6"
       width="6"
       patternUnits="userSpaceOnUse"
       id="EMFhbasepattern-3" />
  </defs>
  <sodipodi:namedview
     id="base"
     pagecolor="#ffffff"
     bordercolor="#666666"
     borderopacity="1.0"
     inkscape:pageopacity="0.0"
     inkscape:pageshadow="2"
     inkscape:zoom="10.24"
     inkscape:cx="5.731264"
     inkscape:cy="10.454127"
     inkscape:document-units="px"
     inkscape:current-layer="g4262"
     showgrid="false"
     units="px"
     inkscape:window-width="1920"
     inkscape:window-height="1028"
     inkscape:window-x="-8"
     inkscape:window-y="-8"
     inkscape:window-maximized="1"
     showguides="false" />
  <metadata
     id="metadata7">
    <rdf:RDF>
      <cc:Work
         rdf:about="">
        <dc:format>image/svg+xml</dc:format>
        <dc:type
           rdf:resource="http://purl.org/dc/dcmitype/StillImage" />
        <dc:title />
        <dc:creator>
          <cc:Agent>
            <dc:title>Jorge Rosa</dc:title>
          </cc:Agent>
        </dc:creator>
        <dc:description>Email: jorge.bigarte@gmail.com
Site:https://sites.google.com/site/jorgerosaportfolio</dc:description>
      </cc:Work>
    </rdf:RDF>
  </metadata>
  <g
     inkscape:label="Layer 1"
     inkscape:groupmode="layer"
     id="layer1"
     transform="translate(0,-1026.3622)">
    <g
       id="g4262"
       transform="translate(-0.04558686,0)">
      <rect
         y="1027.8916"
         x="2.1452487"
         height="21.989141"
         width="21.800676"
         id="rect4183-39-0-0-1-8-7"
         style="opacity:0.85900005;fill:none;fill-opacity:1;stroke:#000000;stroke-width:1.00554919;stroke-linecap:round;stroke-linejoin:round;stroke-miterlimit:4;stroke-dasharray:none;stroke-dashoffset:0;stroke-opacity:1" />
      <rect
         y="1026.9799"
         x="1.6926978"
         height="22.090797"
         width="22.705778"
         id="rect4183-39-0-0-1-8"
         style="opacity:1;fill:url(#radialGradient4725-4-0);fill-opacity:1;stroke:none;stroke-width:1.02858019;stroke-linecap:round;stroke-linejoin:round;stroke-miterlimit:4;stroke-dasharray:none;stroke-dashoffset:0;stroke-opacity:1" />
      <rect
         transform="scale(1,-1)"
         y="-1048.9673"
         x="1.6926978"
         height="22.090797"
         width="22.705778"
         id="rect4183-39-0-0-1-8-78"
         style="opacity:1;fill:none;fill-opacity:1;stroke:#1a1a1a;stroke-width:1.02858019;stroke-linecap:round;stroke-linejoin:round;stroke-miterlimit:4;stroke-dasharray:none;stroke-dashoffset:0;stroke-opacity:1" />
      <g
         style="font-style:normal;font-variant:normal;font-weight:normal;font-stretch:normal;font-size:15px;line-height:100%;font-family:'Estrangelo Edessa';-inkscape-font-specification:'Estrangelo Edessa, Normal';text-align:start;letter-spacing:0px;word-spacing:0px;writing-mode:lr-tb;text-anchor:start;fill:#8d5fd3;fill-opacity:1;stroke:none;stroke-width:1px;stroke-linecap:butt;stroke-linejoin:miter;stroke-opacity:1"
         id="text4148">
        <g
           style="font-style:normal;font-variant:normal;font-weight:normal;font-stretch:normal;font-size:15px;line-height:100%;font-family:'Estrangelo Edessa';-inkscape-font-specification:'Estrangelo Edessa, Normal';text-align:start;letter-spacing:0px;word-spacing:0px;writing-mode:lr-tb;text-anchor:start;fill:#8d5fd3;fill-opacity:1;stroke:none;stroke-width:1px;stroke-linecap:butt;stroke-linejoin:miter;stroke-opacity:1"
           id="text4163">
          <path
             d="m 14.356622,1035.8005 q 0,-0.2856 -0.09521,-0.52 -0.08789,-0.2417 -0.263672,-0.4101 -0.168457,-0.1685 -0.41748,-0.2637 -0.249024,-0.095 -0.556641,-0.095 -0.615234,0 -0.981445,0.3442 -0.366211,0.3369 -0.366211,0.9741 0,0.2857 0.109863,0.542 0.117187,0.2564 0.307617,0.4615 0.19043,0.205 0.446777,0.3515 0.256348,0.1392 0.541993,0.2051 0.344238,-0.095 0.585937,-0.249 0.241699,-0.1612 0.395508,-0.3662 0.153809,-0.2051 0.219727,-0.4541 0.07324,-0.2491 0.07324,-0.5201 z m 0.314941,4.5777 q 0,-0.271 -0.08057,-0.542 -0.08057,-0.271 -0.278321,-0.5054 -0.190429,-0.2417 -0.512695,-0.4321 -0.322266,-0.1978 -0.805664,-0.3076 -0.351562,0.088 -0.637207,0.2563 -0.285645,0.1685 -0.490723,0.4028 -0.205078,0.2344 -0.322265,0.5274 -0.109864,0.2856 -0.109864,0.6152 0,0.3662 0.117188,0.6592 0.117187,0.293 0.322266,0.498 0.212402,0.1978 0.505371,0.3077 0.292968,0.1098 0.644531,0.1098 0.395508,0 0.703125,-0.1245 0.307617,-0.1318 0.512695,-0.3515 0.212403,-0.2198 0.322266,-0.5054 0.109863,-0.293 0.109863,-0.6079 z m 1.428223,-0.015 q 0,0.6153 -0.234375,1.1206 -0.234375,0.4981 -0.651856,0.8643 -0.410156,0.3589 -0.974121,0.5566 -0.563965,0.1978 -1.21582,0.1978 -0.60791,0 -1.157227,-0.1611 -0.549316,-0.1685 -0.966797,-0.4981 -0.41748,-0.3296 -0.666503,-0.8276 -0.2416996,-0.4981 -0.2416996,-1.1646 0,-0.8716 0.4614256,-1.4648 0.46875,-0.5933 1.296387,-0.9815 -0.32959,-0.1465 -0.60791,-0.3735 -0.278321,-0.2271 -0.483399,-0.5127 -0.197754,-0.293 -0.314941,-0.6372 -0.109863,-0.3442 -0.109863,-0.7251 0,-0.5274 0.205078,-0.9668 0.205078,-0.4395 0.571289,-0.7544 0.373535,-0.3149 0.88623,-0.4907 0.52002,-0.1758 1.142578,-0.1758 0.593262,0 1.098633,0.1611 0.505371,0.1612 0.871582,0.4688 0.373535,0.3076 0.578613,0.747 0.212403,0.4395 0.212403,0.9961 0,0.3736 -0.109863,0.6958 -0.10254,0.3223 -0.292969,0.6006 -0.183106,0.2784 -0.446778,0.5127 -0.263671,0.2344 -0.578613,0.4248 0.900879,0.3736 1.311035,0.9522 0.417481,0.5786 0.417481,1.4355 z"
             style="fill:#8d5fd3;fill-opacity:1"
             id="path4168" />
        </g>
      </g>
    </g>
  </g>
</svg>
