<?xml version="1.0" encoding="UTF-8" standalone="no"?>
<!-- Created with Inkscape (http://www.inkscape.org/) -->

<svg
   xmlns:dc="http://purl.org/dc/elements/1.1/"
   xmlns:cc="http://creativecommons.org/ns#"
   xmlns:rdf="http://www.w3.org/1999/02/22-rdf-syntax-ns#"
   xmlns:svg="http://www.w3.org/2000/svg"
   xmlns="http://www.w3.org/2000/svg"
   xmlns:xlink="http://www.w3.org/1999/xlink"
   xmlns:sodipodi="http://sodipodi.sourceforge.net/DTD/sodipodi-0.dtd"
   xmlns:inkscape="http://www.inkscape.org/namespaces/inkscape"
   width="80"
   height="30"
   viewBox="0 0 80 30"
   id="svg2"
   version="1.1"
   inkscape:version="0.91 r13725"
   sodipodi:docname="btn_samplers_save_bank.svg">
  <defs
     id="defs4">
    <linearGradient
       inkscape:collect="always"
       id="linearGradient4274">
      <stop
         style="stop-color:#999999;stop-opacity:1"
         offset="0"
         id="stop4276" />
      <stop
         style="stop-color:#000000;stop-opacity:1"
         offset="1"
         id="stop4278" />
    </linearGradient>
    <linearGradient
       id="linearGradient5613"
       inkscape:collect="always">
      <stop
         id="stop5615"
         offset="0"
         style="stop-color:#170b28;stop-opacity:1" />
      <stop
         id="stop5617"
         offset="1"
         style="stop-color:#000000;stop-opacity:1" />
    </linearGradient>
    <inkscape:perspective
       id="perspective2840"
       inkscape:persp3d-origin="372.04724 : 350.78739 : 1"
       inkscape:vp_z="744.09448 : 526.18109 : 1"
       inkscape:vp_y="0 : 1000 : 0"
       inkscape:vp_x="0 : 526.18109 : 1"
       sodipodi:type="inkscape:persp3d" />
    <inkscape:perspective
       id="perspective2840-1"
       inkscape:persp3d-origin="372.04724 : 350.78739 : 1"
       inkscape:vp_z="744.09448 : 526.18109 : 1"
       inkscape:vp_y="0 : 1000 : 0"
       inkscape:vp_x="0 : 526.18109 : 1"
       sodipodi:type="inkscape:persp3d" />
    <radialGradient
       inkscape:collect="always"
       xlink:href="#linearGradient5613"
       id="radialGradient5497-4"
       cx="30.078903"
       cy="1018.9943"
       fx="30.078903"
       fy="1018.9943"
       r="22.454525"
       gradientTransform="matrix(1.5662674,-5.5528721e-8,-1.4344962e-7,0.43917678,-8.665114,589.58456)"
       gradientUnits="userSpaceOnUse" />
    <radialGradient
       inkscape:collect="always"
       xlink:href="#linearGradient4274"
       id="radialGradient4280"
       cx="49.846588"
       cy="1037.5122"
       fx="49.846588"
       fy="1037.5122"
       r="36.726269"
       gradientTransform="matrix(26.800308,0,0,0.35628851,-1295.9039,667.70872)"
       gradientUnits="userSpaceOnUse" />
    <pattern
       y="0"
       x="0"
       height="6"
       width="6"
       patternUnits="userSpaceOnUse"
       id="EMFhbasepattern" />
  </defs>
  <sodipodi:namedview
     id="base"
     pagecolor="#ffffff"
     bordercolor="#666666"
     borderopacity="1.0"
     inkscape:pageopacity="0.0"
     inkscape:pageshadow="2"
     inkscape:zoom="10.572439"
     inkscape:cx="32.809859"
     inkscape:cy="18.405596"
     inkscape:document-units="px"
     inkscape:current-layer="g5160"
     showgrid="false"
     units="px"
     inkscape:window-width="1920"
     inkscape:window-height="1028"
     inkscape:window-x="-8"
     inkscape:window-y="-8"
     inkscape:window-maximized="1"
     objecttolerance="10"
     guidetolerance="9" />
  <metadata
     id="metadata7">
    <rdf:RDF>
      <cc:Work
         rdf:about="">
        <dc:format>image/svg+xml</dc:format>
        <dc:type
           rdf:resource="http://purl.org/dc/dcmitype/StillImage" />
        <dc:title />
        <dc:creator>
          <cc:Agent>
            <dc:title>Jorge Rosa</dc:title>
          </cc:Agent>
        </dc:creator>
        <dc:description>Email: jorge.bigarte@gmail.com
Site:https://sites.google.com/site/jorgerosaportfolio</dc:description>
      </cc:Work>
    </rdf:RDF>
  </metadata>
  <g
     inkscape:label="Layer 1"
     inkscape:groupmode="layer"
     id="layer1"
     transform="translate(0,-1022.3622)">
    <text
       xml:space="preserve"
       style="font-style:normal;font-weight:normal;font-size:7.3307333px;line-height:125%;font-family:sans-serif;letter-spacing:0px;word-spacing:0px;opacity:0.1;fill:#ececec;fill-opacity:1;stroke:none;stroke-width:1px;stroke-linecap:butt;stroke-linejoin:miter;stroke-opacity:1"
       x="-64.373627"
       y="823.29761"
       id="text6116-5"
       sodipodi:linespacing="125%"
       transform="scale(1.0112873,0.98883868)"><tspan
         sodipodi:role="line"
         id="tspan6118-8"
         x="-64.373627"
         y="823.29761"
         style="font-style:normal;font-variant:normal;font-weight:normal;font-stretch:normal;font-family:Digital;-inkscape-font-specification:Digital;fill:#ececec">8888888888888888888888888888888888888888888888888888888888888888888888888</tspan></text>
    <g
       id="g5160">
      <path
         style="opacity:1;fill:url(#radialGradient5497-4);fill-opacity:1;stroke:none;stroke-width:1.45692945;stroke-linecap:round;stroke-linejoin:round;stroke-miterlimit:4;stroke-dasharray:none;stroke-dashoffset:0;stroke-opacity:1"
         d="m 5.7258029,1047.629 0,-20.5336 68.5483941,0 0,20.5336 z"
         id="rect5489-1"
         inkscape:connector-curvature="0" />
      <g
         style="font-style:normal;font-variant:normal;font-weight:normal;font-stretch:normal;font-size:12.36420155px;line-height:100%;font-family:'Estrangelo Edessa';-inkscape-font-specification:'Estrangelo Edessa, Normal';text-align:start;letter-spacing:0px;word-spacing:0px;writing-mode:lr-tb;text-anchor:start;fill:#ffaaaa;fill-opacity:1;stroke:none;stroke-width:1px;stroke-linecap:butt;stroke-linejoin:miter;stroke-opacity:1"
         id="text4161-8" />
      <g
         style="font-style:normal;font-variant:normal;font-weight:normal;font-stretch:normal;font-size:12.36420155px;line-height:100%;font-family:'Estrangelo Edessa';-inkscape-font-specification:'Estrangelo Edessa, Normal';text-align:start;letter-spacing:0px;word-spacing:0px;writing-mode:lr-tb;text-anchor:start;fill:#8d5fd3;fill-opacity:1;stroke:none;stroke-width:1px;stroke-linecap:butt;stroke-linejoin:miter;stroke-opacity:1"
         id="text4161-8-1-5"
         transform="translate(-10.000037,-3e-4)">
        <path
           d="m 30.110418,1039.0798 q 0,0.4769 -0.169042,0.8995 -0.163004,0.4166 -0.489014,0.7305 -0.319972,0.3079 -0.802948,0.489 -0.47694,0.1751 -1.110846,0.1751 -0.307898,0 -0.615796,-0.042 -0.30186,-0.036 -0.579572,-0.1087 -0.271674,-0.078 -0.507125,-0.1751 -0.235451,-0.1026 -0.41053,-0.2173 l 0,-1.2075 q 0.19319,0.1389 0.45279,0.2777 0.265638,0.1329 0.555424,0.2415 0.289785,0.1027 0.573534,0.1691 0.289786,0.066 0.5192,0.066 0.350158,0 0.609758,-0.084 0.265637,-0.091 0.440716,-0.2536 0.181117,-0.163 0.265637,-0.3864 0.09056,-0.2294 0.09056,-0.5011 0,-0.3079 -0.114707,-0.5192 -0.10867,-0.2113 -0.313935,-0.3682 -0.205265,-0.157 -0.495051,-0.2838 -0.289786,-0.1268 -0.645981,-0.2656 -0.489014,-0.1932 -0.869358,-0.3864 -0.380345,-0.1992 -0.639944,-0.4468 -0.2596,-0.2535 -0.398456,-0.5795 -0.132819,-0.3321 -0.132819,-0.7849 0,-0.495 0.199228,-0.8935 0.199228,-0.4045 0.543349,-0.6822 0.344121,-0.2837 0.802948,-0.4347 0.464865,-0.1569 0.990103,-0.1569 0.56146,0 1.01425,0.1026 0.452791,0.1026 0.827098,0.2596 l 0,1.0867 q -0.175079,-0.085 -0.404493,-0.163 -0.229414,-0.079 -0.482977,-0.1389 -0.253562,-0.066 -0.507125,-0.1026 -0.253563,-0.042 -0.482977,-0.042 -0.319972,0 -0.567497,0.085 -0.247526,0.078 -0.422605,0.2234 -0.169042,0.1448 -0.2596,0.3501 -0.08452,0.1992 -0.08452,0.4407 0,0.2717 0.114707,0.4709 0.114707,0.1932 0.32601,0.3502 0.211302,0.1509 0.507125,0.2837 0.30186,0.1268 0.67013,0.2717 0.470902,0.1872 0.839172,0.3924 0.374307,0.1993 0.62787,0.4649 0.259599,0.2596 0.398455,0.6037 0.138856,0.3381 0.138856,0.7909 z"
           id="path4239"
           inkscape:connector-curvature="0"
           style="fill:#8d5fd3;fill-opacity:1" />
        <path
           d="m 34.390798,1038.9892 q -0.138855,-0.012 -0.307897,-0.018 -0.169042,-0.01 -0.356196,-0.01 -0.404492,0 -0.664092,0.072 -0.2596,0.072 -0.410531,0.1932 -0.15093,0.1208 -0.211302,0.2717 -0.06037,0.1509 -0.06037,0.3139 0,0.3079 0.181116,0.5011 0.187154,0.1932 0.5192,0.1932 0.338084,0 0.688242,-0.1509 0.350158,-0.151 0.621832,-0.4045 l 0,-0.966 z m 1.116884,2.3847 q -0.223377,0 -0.392419,-0.048 -0.169042,-0.042 -0.289786,-0.1207 -0.120744,-0.084 -0.205265,-0.1992 -0.07848,-0.1147 -0.126781,-0.2596 -0.289786,0.2656 -0.682205,0.4467 -0.392418,0.1811 -0.935767,0.1811 -0.422604,0 -0.742576,-0.1147 -0.313935,-0.1147 -0.525237,-0.32 -0.205266,-0.2052 -0.313935,-0.4769 -0.102633,-0.2777 -0.102633,-0.6037 0,-0.809 0.615795,-1.2376 0.621833,-0.4347 1.835312,-0.4347 0.181116,0 0.356195,0.012 0.181116,0.01 0.392418,0.024 0,-0.5494 -0.229414,-0.8392 -0.229413,-0.2958 -0.754651,-0.2958 -0.374306,0 -0.766725,0.097 -0.386381,0.091 -0.766725,0.2475 l 0,-0.8995 q 0.332046,-0.157 0.754651,-0.2475 0.428641,-0.091 0.827097,-0.091 0.513163,0 0.905581,0.1026 0.392419,0.097 0.658056,0.3321 0.265637,0.2294 0.398456,0.6097 0.138855,0.3804 0.138855,0.9358 l 0,1.9138 q 0,0.2173 0.10867,0.32 0.114707,0.1026 0.235451,0.1026 0.120744,0 0.223377,-0.01 0.102633,-0.012 0.235451,-0.042 l 0,0.6943 q -0.15093,0.1087 -0.374307,0.163 -0.217339,0.054 -0.476939,0.054 z"
           id="path4241"
           inkscape:connector-curvature="0"
           style="fill:#8d5fd3;fill-opacity:1" />
        <path
           d="m 41.659597,1036.3087 -2.209618,4.9566 -0.905582,0 -2.016427,-4.9566 1.18933,0 1.110846,2.9884 q 0.06641,0.1691 0.120744,0.3502 0.05434,0.1811 0.102633,0.3683 0.03019,-0.097 0.06037,-0.2053 0.03622,-0.1087 0.07245,-0.2053 0.03622,-0.1026 0.06641,-0.1811 0.03019,-0.084 0.0483,-0.1388 0.132819,-0.3502 0.277712,-0.7305 0.15093,-0.3804 0.30186,-0.7607 0.156968,-0.3864 0.307898,-0.7607 0.156967,-0.3804 0.30186,-0.7245 l 1.171219,0 z"
           id="path4243"
           inkscape:connector-curvature="0"
           style="fill:#8d5fd3;fill-opacity:1" />
        <path
           d="m 44.871392,1037.0996 q -0.579572,0 -0.947841,0.2958 -0.362233,0.2898 -0.482977,0.8513 l 2.620148,0 q -0.03019,-0.5615 -0.338084,-0.8513 -0.307897,-0.2958 -0.851246,-0.2958 z m -2.583925,1.6542 q 0,-0.5736 0.187154,-1.0445 0.187153,-0.4769 0.525237,-0.8089 0.344121,-0.3381 0.82106,-0.5192 0.476939,-0.1872 1.062549,-0.1872 0.573534,0 1.002176,0.169 0.434679,0.1631 0.730502,0.4709 0.295823,0.3079 0.440716,0.7547 0.150931,0.4468 0.150931,1.0082 l 0,0.4951 -3.791367,0 q 0.03019,0.3079 0.156967,0.5735 0.132819,0.2596 0.350159,0.4468 0.223376,0.1871 0.519199,0.2958 0.301861,0.1026 0.664093,0.1026 0.211303,0 0.446754,-0.036 0.241488,-0.042 0.489013,-0.1147 0.253563,-0.079 0.501089,-0.1872 0.253562,-0.1086 0.482976,-0.2535 l 0,0.9116 q -0.458827,0.2596 -0.97199,0.4045 -0.507126,0.1388 -1.159144,0.1388 -0.603721,0 -1.086697,-0.1751 -0.482977,-0.1811 -0.821061,-0.5192 -0.338083,-0.338 -0.5192,-0.821 -0.181116,-0.489 -0.181116,-1.1048 z"
           id="path4245"
           inkscape:connector-curvature="0"
           style="fill:#8d5fd3;fill-opacity:1" />
        <path
           d="m 54.718077,1035.4635 q 0,-0.2173 -0.07245,-0.4105 -0.07245,-0.1993 -0.241488,-0.3502 -0.163005,-0.1509 -0.428642,-0.2354 -0.2596,-0.091 -0.639944,-0.091 -0.235451,0 -0.41053,0.01 -0.169042,0.01 -0.307898,0.018 l 0,2.3786 0.495051,0 q 0.784837,0 1.195367,-0.3381 0.41053,-0.3381 0.41053,-0.978 z m 0.422605,3.5016 q 0,-0.6339 -0.428642,-0.9358 -0.428642,-0.3018 -1.267813,-0.3018 l -0.827098,0 0,2.5839 q 0.193191,0.018 0.416567,0.03 0.229414,0.01 0.507126,0.01 0.754651,0 1.177255,-0.3622 0.422605,-0.3683 0.422605,-1.0203 z m 1.207441,-0.036 q 0,0.5252 -0.175079,0.9599 -0.169041,0.4347 -0.537311,0.7486 -0.362233,0.3139 -0.92973,0.489 -0.56146,0.1751 -1.346297,0.1751 -0.199228,0 -0.464865,-0.012 -0.2596,-0.01 -0.531275,-0.024 -0.265637,-0.012 -0.513162,-0.036 -0.247526,-0.024 -0.422605,-0.048 l 0,-7.6914 q 0.356195,-0.03 0.857284,-0.042 0.507125,-0.018 1.038399,-0.018 0.615796,0 1.098772,0.1328 0.489014,0.1268 0.82106,0.3743 0.338084,0.2475 0.513163,0.6097 0.175079,0.3623 0.175079,0.8332 0,0.3079 -0.08452,0.5796 -0.08452,0.2656 -0.235451,0.489 -0.144893,0.2233 -0.350158,0.3984 -0.205265,0.1751 -0.446753,0.2898 0.319972,0.079 0.597683,0.2355 0.283749,0.1509 0.489014,0.3803 0.211302,0.2234 0.326009,0.5192 0.120744,0.2958 0.120744,0.6581 z"
           id="path4247"
           inkscape:connector-curvature="0"
           style="fill:#8d5fd3;fill-opacity:1" />
        <path
           d="m 60.519833,1038.9892 q -0.138856,-0.012 -0.307898,-0.018 -0.169042,-0.01 -0.356195,-0.01 -0.404493,0 -0.664093,0.072 -0.2596,0.072 -0.41053,0.1932 -0.15093,0.1208 -0.211302,0.2717 -0.06037,0.1509 -0.06037,0.3139 0,0.3079 0.181116,0.5011 0.187153,0.1932 0.5192,0.1932 0.338083,0 0.688241,-0.1509 0.350159,-0.151 0.621833,-0.4045 l 0,-0.966 z m 1.116883,2.3847 q -0.223376,0 -0.392418,-0.048 -0.169042,-0.042 -0.289786,-0.1207 -0.120744,-0.084 -0.205265,-0.1992 -0.07848,-0.1147 -0.126782,-0.2596 -0.289786,0.2656 -0.682204,0.4467 -0.392419,0.1811 -0.935767,0.1811 -0.422605,0 -0.742577,-0.1147 -0.313935,-0.1147 -0.525237,-0.32 -0.205265,-0.2052 -0.313935,-0.4769 -0.102632,-0.2777 -0.102632,-0.6037 0,-0.809 0.615795,-1.2376 0.621832,-0.4347 1.835311,-0.4347 0.181116,0 0.356195,0.012 0.181117,0.01 0.392419,0.024 0,-0.5494 -0.229414,-0.8392 -0.229414,-0.2958 -0.754651,-0.2958 -0.374307,0 -0.766725,0.097 -0.386382,0.091 -0.766726,0.2475 l 0,-0.8995 q 0.332047,-0.157 0.754651,-0.2475 0.428642,-0.091 0.827098,-0.091 0.513162,0 0.905581,0.1026 0.392418,0.097 0.658055,0.3321 0.265638,0.2294 0.398456,0.6097 0.138856,0.3804 0.138856,0.9358 l 0,1.9138 q 0,0.2173 0.10867,0.32 0.114707,0.1026 0.235451,0.1026 0.120744,0 0.223376,-0.01 0.102633,-0.012 0.235452,-0.042 l 0,0.6943 q -0.150931,0.1087 -0.374307,0.163 -0.21734,0.054 -0.47694,0.054 z"
           id="path4249"
           inkscape:connector-curvature="0"
           style="fill:#8d5fd3;fill-opacity:1" />
        <path
           d="m 67.999933,1041.2653 -1.165181,0 0,-3.0669 q 0,-0.5253 -0.21734,-0.803 -0.211302,-0.2837 -0.645981,-0.2837 -0.19319,0 -0.380344,0.048 -0.181116,0.048 -0.344121,0.1328 -0.163004,0.079 -0.307897,0.1811 -0.138856,0.097 -0.253563,0.2053 l 0,3.5861 -1.159144,0 0,-4.9566 1.122921,0 0.03622,0.4951 q 0.126781,-0.1208 0.283749,-0.2295 0.156967,-0.1086 0.344121,-0.1931 0.19319,-0.085 0.41053,-0.1329 0.223376,-0.054 0.470902,-0.054 0.923693,0 1.364409,0.4951 0.440716,0.495 0.440716,1.4368 l 0,3.1394 z"
           id="path4251"
           inkscape:connector-curvature="0"
           style="fill:#8d5fd3;fill-opacity:1" />
        <path
           d="m 74.677086,1041.2653 -1.448929,0 -2.324325,-2.3244 q 0,0.054 0.006,0.157 0.006,0.097 0.006,0.163 l 0,2.0044 -1.159144,0 0,-7.8122 1.159144,0 0,3.9061 q 0,0.042 -0.006,0.1388 0,0.097 -0.006,0.2113 0,0.1148 -0.006,0.2415 0,0.1208 -0.006,0.2234 l 2.088874,-1.8655 1.424781,0 -2.48733,2.1976 2.759004,2.759 z"
           id="path4253"
           inkscape:connector-curvature="0"
           style="fill:#8d5fd3;fill-opacity:1" />
      </g>
      <rect
         style="opacity:1;fill:none;fill-opacity:1;stroke:url(#radialGradient4280);stroke-width:0.92087746;stroke-linecap:round;stroke-linejoin:round;stroke-miterlimit:4;stroke-dasharray:none;stroke-opacity:1"
         id="rect4272"
         width="69.410339"
         height="21.266285"
         x="5.2948303"
         y="1026.729" />
    </g>
  </g>
</svg>
