<?xml version="1.0" encoding="UTF-8" standalone="no"?>
<!-- Created with Inkscape (http://www.inkscape.org/) -->

<svg
   xmlns:dc="http://purl.org/dc/elements/1.1/"
   xmlns:cc="http://creativecommons.org/ns#"
   xmlns:rdf="http://www.w3.org/1999/02/22-rdf-syntax-ns#"
   xmlns:svg="http://www.w3.org/2000/svg"
   xmlns="http://www.w3.org/2000/svg"
   xmlns:xlink="http://www.w3.org/1999/xlink"
   xmlns:sodipodi="http://sodipodi.sourceforge.net/DTD/sodipodi-0.dtd"
   xmlns:inkscape="http://www.inkscape.org/namespaces/inkscape"
   width="60"
   height="30"
   viewBox="0 0 60 30"
   id="svg2"
   version="1.1"
   inkscape:version="0.92.0 r15299"
   sodipodi:docname="tab_samplers_1_over.svg">
  <defs
     id="defs4">
    <inkscape:perspective
       id="perspective2840"
       inkscape:persp3d-origin="372.04724 : 350.78739 : 1"
       inkscape:vp_z="744.09448 : 526.18109 : 1"
       inkscape:vp_y="0 : 1000 : 0"
       inkscape:vp_x="0 : 526.18109 : 1"
       sodipodi:type="inkscape:persp3d" />
    <inkscape:perspective
       id="perspective2840-1"
       inkscape:persp3d-origin="372.04724 : 350.78739 : 1"
       inkscape:vp_z="744.09448 : 526.18109 : 1"
       inkscape:vp_y="0 : 1000 : 0"
       inkscape:vp_x="0 : 526.18109 : 1"
       sodipodi:type="inkscape:persp3d" />
    <pattern
       y="0"
       x="0"
       height="6"
       width="6"
       patternUnits="userSpaceOnUse"
       id="EMFhbasepattern" />
    <radialGradient
       inkscape:collect="always"
       xlink:href="#linearGradient4226"
       id="radialGradient5497"
       cx="30.078903"
       cy="1018.9943"
       fx="30.078903"
       fy="1018.9943"
       r="22.454525"
       gradientTransform="matrix(2.7286229,-1.7021667e-7,-6.9869432e-7,0.76130842,-53.319848,261.32)"
       gradientUnits="userSpaceOnUse" />
    <linearGradient
       inkscape:collect="always"
       id="linearGradient4226">
      <stop
         style="stop-color:#553289;stop-opacity:1"
         offset="0"
         id="stop4228" />
      <stop
         style="stop-color:#000000;stop-opacity:1"
         offset="1"
         id="stop4230" />
    </linearGradient>
  </defs>
  <sodipodi:namedview
     id="base"
     pagecolor="#ffffff"
     bordercolor="#666666"
     borderopacity="1.0"
     inkscape:pageopacity="0.0"
     inkscape:pageshadow="2"
     inkscape:zoom="14.951687"
     inkscape:cx="39.617835"
     inkscape:cy="9.7359487"
     inkscape:document-units="px"
     inkscape:current-layer="g5160"
     showgrid="false"
     units="px"
     inkscape:window-width="1920"
     inkscape:window-height="1028"
     inkscape:window-x="-8"
     inkscape:window-y="-8"
     inkscape:window-maximized="1"
     objecttolerance="10"
     guidetolerance="9"
     showguides="true"
     inkscape:guide-bbox="true" />
  <metadata
     id="metadata7">
    <rdf:RDF>
      <cc:Work
         rdf:about="">
        <dc:format>image/svg+xml</dc:format>
        <dc:type
           rdf:resource="http://purl.org/dc/dcmitype/StillImage" />
        <dc:title />
        <dc:creator>
          <cc:Agent>
            <dc:title>Jorge Rosa</dc:title>
          </cc:Agent>
        </dc:creator>
        <dc:description>Email: jorge.bigarte@gmail.com
Site:https://sites.google.com/site/jorgerosaportfolio</dc:description>
      </cc:Work>
    </rdf:RDF>
  </metadata>
  <g
     inkscape:label="Layer 1"
     inkscape:groupmode="layer"
     id="layer1"
     transform="translate(0,-1022.3622)">
    <text
       xml:space="preserve"
       style="font-style:normal;font-weight:normal;font-size:7.3307333px;line-height:125%;font-family:sans-serif;letter-spacing:0px;word-spacing:0px;opacity:0.1;fill:#ececec;fill-opacity:1;stroke:none;stroke-width:1px;stroke-linecap:butt;stroke-linejoin:miter;stroke-opacity:1"
       x="-64.373627"
       y="823.29761"
       id="text6116-5"
       transform="scale(1.0112873,0.98883868)"><tspan
         sodipodi:role="line"
         id="tspan6118-8"
         x="-64.373627"
         y="823.29761"
         style="font-style:normal;font-variant:normal;font-weight:normal;font-stretch:normal;font-family:Digital;-inkscape-font-specification:Digital;fill:#ececec">8888888888888888888888888888888888888888888888888888888888888888888888888</tspan></text>
    <g
       id="g5160">
      <g
         id="g4257">
        <path
           inkscape:connector-curvature="0"
           id="rect5489"
           d="m 2.5,1048.1965 0,-21.6685 55,0 0,21.6685 z"
           style="opacity:1;fill:url(#radialGradient5497);fill-opacity:1;stroke:none;stroke-width:1.45692945;stroke-linecap:round;stroke-linejoin:round;stroke-miterlimit:4;stroke-dasharray:none;stroke-dashoffset:0;stroke-opacity:1" />
      </g>
      <path
         style="font-style:normal;font-variant:normal;font-weight:normal;font-stretch:normal;font-size:8.05975437px;line-height:5.03734684px;font-family:sans-serif;-inkscape-font-specification:'Estrangelo Edessa, Normal';text-align:start;letter-spacing:0px;word-spacing:0px;writing-mode:lr-tb;text-anchor:start;fill:#e5d5ff;fill-opacity:1;stroke:none;stroke-width:0.31257108px;stroke-linecap:butt;stroke-linejoin:miter;stroke-opacity:1"
         d="m 7.8685301,1033.4991 c -0.354086,0 -0.689486,0.054 -1.002872,0.1605 -0.309315,0.1025 -0.580006,0.2481 -0.811992,0.4394 -0.231985,0.1873 -0.414089,0.4152 -0.548398,0.6878 -0.134308,0.2686 -0.199967,0.5721 -0.199967,0.9058 0,0.3053 0.04378,0.5701 0.133315,0.794 0.0936,0.2196 0.227959,0.4137 0.402967,0.5847 0.175008,0.1669 0.388946,0.3171 0.645353,0.4514 0.256405,0.1303 0.552013,0.2605 0.881677,0.3908 0.240126,0.093 0.456054,0.1842 0.651412,0.2696 0.195358,0.085 0.361545,0.1791 0.49992,0.2849 0.138373,0.1055 0.244874,0.2302 0.318132,0.3726 0.07733,0.1427 0.115135,0.3197 0.115135,0.5273 0,0.1832 -0.02984,0.3513 -0.09088,0.506 -0.05698,0.1505 -0.144531,0.2809 -0.266624,0.3908 -0.118021,0.1101 -0.269337,0.1934 -0.448415,0.2545 -0.175006,0.057 -0.378996,0.088 -0.615053,0.088 -0.154661,0 -0.328802,-0.025 -0.524159,-0.07 -0.191287,-0.045 -0.386369,-0.1009 -0.581726,-0.1697 -0.195358,-0.073 -0.38144,-0.156 -0.560517,-0.2455 -0.175008,-0.093 -0.327265,-0.1851 -0.457503,-0.2787 v 1.221 c 0.118021,0.077 0.256358,0.1489 0.415085,0.2182 0.158728,0.065 0.328895,0.1256 0.51204,0.1787 0.187218,0.049 0.38126,0.085 0.584756,0.1086 0.207568,0.028 0.416577,0.042 0.624143,0.042 0.427343,0 0.802539,-0.057 1.124064,-0.1757 0.325595,-0.1226 0.596284,-0.2894 0.8119917,-0.497 0.219776,-0.2117 0.383976,-0.4553 0.49386,-0.7362 0.1139562,-0.2849 0.1696682,-0.5905 0.1696712,-0.9119 -3e-6,-0.3053 -0.04576,-0.572 -0.139365,-0.8 -0.0936,-0.2319 -0.2279592,-0.4339 -0.4029672,-0.6089 -0.170938,-0.1792 -0.3839267,-0.3354 -0.6362627,-0.4697 -0.248266,-0.1381 -0.530895,-0.2707 -0.848349,-0.3968 -0.248266,-0.098 -0.472154,-0.1904 -0.675651,-0.2758 -0.199426,-0.09 -0.372622,-0.1861 -0.515069,-0.2878 -0.142452,-0.1055 -0.249892,-0.2213 -0.327221,-0.3515 -0.07733,-0.1349 -0.11816,-0.2956 -0.11816,-0.4787 0,-0.1628 0.03089,-0.3111 0.08786,-0.4454 0.06104,-0.138 0.14661,-0.2567 0.260565,-0.3544 0.118021,-0.098 0.260337,-0.1714 0.427203,-0.2242 0.166869,-0.057 0.35996,-0.085 0.575667,-0.085 0.154661,0 0.316864,0.015 0.487801,0.042 0.170937,0.025 0.3411019,0.059 0.51204,0.1023 0.170937,0.041 0.333141,0.087 0.487802,0.1397 0.1546457,0.053 0.2909957,0.11 0.4090247,0.1666 v -1.0999 c -0.252336,-0.1055 -0.5309857,-0.1944 -0.8362297,-0.2636 -0.305245,-0.07 -0.6455761,-0.1023 -1.0240791,-0.1023 z m 46.0778039,0.079 -2.3875,1.7967 v 1.1664 l 1.53915,-1.0998 c 0.06919,-0.053 0.138823,-0.1087 0.212088,-0.1696 0.07733,-0.065 0.149992,-0.1272 0.215115,-0.1849 v 6.4171 h 1.169512 v -7.9259 z m -21.438838,0.025 v 7.9016 h 1.172542 v -7.9016 z m -18.979261,2.7722 c -0.268616,0 -0.547264,0.033 -0.83623,0.093 -0.284897,0.061 -0.539669,0.1427 -0.763516,0.2485 v 0.9089 c 0.256406,-0.1055 0.515159,-0.1874 0.775635,-0.2484 0.264545,-0.065 0.523298,-0.099 0.775634,-0.099 0.354085,0 0.605828,0.1008 0.760485,0.3 0.154661,0.1953 0.233297,0.478 0.233297,0.8484 -0.142454,-0.015 -0.27481,-0.02 -0.396907,-0.025 -0.11802,-0.015 -0.238451,-0.015 -0.360548,-0.015 -0.818058,0 -1.435048,0.1458 -1.854252,0.4393 -0.415133,0.289 -0.624142,0.706 -0.624142,1.2515 0,0.2197 0.03382,0.4247 0.103019,0.6119 0.07325,0.1833 0.179753,0.3433 0.318131,0.4818 0.142454,0.1381 0.318583,0.2468 0.53022,0.3242 0.215706,0.077 0.4665,0.1147 0.751395,0.1147 0.366294,0 0.683789,-0.061 0.948334,-0.1818 0.264545,-0.1226 0.492413,-0.2724 0.687769,-0.4514 0.03256,0.098 0.07737,0.1832 0.130275,0.2604 0.05698,0.077 0.12463,0.1459 0.206027,0.2031 0.08139,0.053 0.179935,0.093 0.293893,0.121 0.113956,0.033 0.24632,0.048 0.396908,0.048 0.175006,0 0.335222,-0.018 0.481741,-0.054 0.150582,-0.037 0.276979,-0.09 0.378727,-0.1637 v -0.7028 c -0.08954,0.02 -0.170167,0.034 -0.239356,0.042 h -0.224207 c -0.08139,0 -0.162026,-0.034 -0.239355,-0.1039 -0.07327,-0.07 -0.10907,-0.1776 -0.10907,-0.324 v -1.9362 c 0,-0.3745 -0.04879,-0.6889 -0.142407,-0.9454 -0.08954,-0.2562 -0.223889,-0.4633 -0.402966,-0.618 -0.179078,-0.1587 -0.398985,-0.2682 -0.66353,-0.3331 -0.264546,-0.07 -0.569062,-0.1056 -0.915007,-0.1056 z m 6.623189,0 c -0.154661,0 -0.302935,0.017 -0.445383,0.054 -0.138373,0.037 -0.270738,0.085 -0.396906,0.1427 -0.126165,0.057 -0.242612,0.1226 -0.348431,0.1999 -0.105812,0.072 -0.202364,0.1474 -0.287833,0.2212 l -0.02425,-0.4999 h -1.136182 v 5.0112 h 1.172541 v -3.6266 c 0.06104,-0.057 0.137706,-0.1162 0.227236,-0.1818 0.08954,-0.07 0.188074,-0.1333 0.293892,-0.1909 0.109892,-0.057 0.223302,-0.1024 0.345401,-0.1396 0.1221,-0.041 0.246499,-0.061 0.372667,-0.061 0.276756,0 0.483776,0.093 0.618084,0.2848 0.138373,0.1872 0.206027,0.4579 0.206027,0.812 v 3.1025 h 1.178602 v -3.1389 c 0,-0.057 -0.0041,-0.1241 -0.0121,-0.2059 -0.0041,-0.085 -0.01008,-0.1521 -0.01818,-0.1971 0.05291,-0.065 0.12359,-0.1349 0.209058,-0.212 0.08954,-0.077 0.187035,-0.1505 0.296923,-0.2152 0.109892,-0.065 0.228321,-0.1194 0.354489,-0.1635 0.130244,-0.045 0.264587,-0.067 0.402965,-0.067 0.268617,0 0.471657,0.093 0.605967,0.2848 0.138373,0.1872 0.206026,0.4579 0.206026,0.812 v 3.1025 h 1.178601 v -3.1389 c 0,-0.6309 -0.144299,-1.1173 -0.433264,-1.4634 -0.284897,-0.35 -0.727743,-0.5272 -1.330092,-0.5272 -0.166867,0 -0.331065,0.023 -0.49386,0.073 -0.15873,0.049 -0.314016,0.1132 -0.460535,0.1908 -0.146517,0.077 -0.284847,0.1679 -0.415085,0.2697 -0.126165,0.098 -0.237591,0.1932 -0.339341,0.2909 -0.130244,-0.2564 -0.325319,-0.4566 -0.581724,-0.603 -0.252336,-0.1458 -0.566801,-0.2212 -0.945305,-0.2212 z m 8.895471,0 c -0.341875,0 -0.64241,0.059 -0.902887,0.1726 -0.260476,0.1102 -0.489384,0.2404 -0.684739,0.3909 l -0.02425,-0.4453 h -1.145273 v 7.8987 h 1.169512 v -3.1024 c 0.175006,0.093 0.384019,0.1701 0.624142,0.2272 0.240127,0.057 0.486942,0.085 0.739277,0.085 0.402924,0 0.76116,-0.062 1.078617,-0.1879 0.317454,-0.1302 0.584169,-0.3133 0.799872,-0.5452 0.219779,-0.2321 0.388992,-0.5087 0.50295,-0.8303 0.113956,-0.3256 0.169671,-0.6817 0.169671,-1.0725 0,-0.4232 -0.05771,-0.7964 -0.175729,-1.118 -0.118021,-0.3215 -0.283265,-0.5902 -0.490832,-0.8058 -0.207567,-0.2199 -0.451351,-0.384 -0.736247,-0.494 -0.284895,-0.1133 -0.594431,-0.1727 -0.924095,-0.1727 z m 8.483924,0 c -0.394784,0 -0.754061,0.065 -1.075586,0.1908 -0.321526,0.1225 -0.598185,0.2963 -0.830172,0.5242 -0.227914,0.2238 -0.40405,0.4965 -0.530218,0.8181 -0.126165,0.3175 -0.190878,0.6708 -0.190878,1.0574 0,0.415 0.06271,0.7854 0.184818,1.115 0.1221,0.3256 0.296242,0.6022 0.52416,0.8301 0.227916,0.228 0.504576,0.4051 0.83017,0.5273 0.325595,0.1179 0.692833,0.1757 1.099826,0.1757 0.439552,0 0.830666,-0.046 1.17254,-0.1395 0.345946,-0.098 0.67235,-0.234 0.981661,-0.4091 v -0.9242 c -0.15466,0.098 -0.316862,0.1843 -0.4878,0.2577 -0.166867,0.072 -0.335042,0.1381 -0.505979,0.1909 -0.166869,0.049 -0.334094,0.087 -0.496892,0.1147 -0.158727,0.025 -0.308995,0.038 -0.451444,0.038 -0.244195,0 -0.466092,-0.034 -0.669589,-0.104 -0.199428,-0.072 -0.376602,-0.1738 -0.527189,-0.2998 -0.146518,-0.1257 -0.261921,-0.2765 -0.35146,-0.4514 -0.08547,-0.1792 -0.140236,-0.3742 -0.16058,-0.5818 h 3.835753 v -0.5 c 0,-0.3785 -0.05278,-0.7168 -0.154522,-1.0179 -0.09768,-0.3013 -0.245956,-0.556 -0.445384,-0.7635 -0.199426,-0.2076 -0.446242,-0.3658 -0.739276,-0.4758 -0.288965,-0.1132 -0.625316,-0.1727 -1.01196,-0.1727 z m 5.980867,0 c -0.134308,0 -0.25369,0.034 -0.363578,0.099 -0.105811,0.061 -0.204355,0.1381 -0.293892,0.2363 -0.08954,0.093 -0.170168,0.1981 -0.239356,0.312 -0.06919,0.1102 -0.132866,0.2165 -0.193909,0.3181 -0.008,-0.081 -0.02007,-0.1661 -0.03636,-0.2515 -0.01627,-0.085 -0.03419,-0.166 -0.05455,-0.2394 -0.01628,-0.077 -0.03722,-0.1443 -0.05757,-0.2059 -0.02035,-0.066 -0.04025,-0.1148 -0.0606,-0.152 h -0.98772 c 0.02035,0.072 0.04024,0.1726 0.0606,0.3028 0.02442,0.1258 0.04432,0.2666 0.0606,0.4212 0.02035,0.1552 0.03627,0.3179 0.04848,0.4848 0.01225,0.1668 0.01365,0.3251 0.01818,0.4757 v 3.3266 h 1.172542 v -2.8752 c 0,-0.1628 0.01396,-0.3171 0.04242,-0.4635 0.0285,-0.1505 0.07729,-0.281 0.142406,-0.3909 0.06512,-0.1133 0.148689,-0.2045 0.254506,-0.2697 0.109891,-0.07 0.242249,-0.1023 0.396906,-0.1023 0.138373,0 0.284667,0.015 0.439323,0.025 0.154662,0.015 0.300947,0.034 0.439324,0.067 v -0.9515 c -0.130244,-0.049 -0.260608,-0.09 -0.390846,-0.1179 -0.126165,-0.033 -0.258529,-0.048 -0.396907,-0.048 z m 3.41461,0 c -0.252338,0 -0.491193,0.039 -0.715039,0.1117 -0.219776,0.07 -0.411827,0.1666 -0.578696,0.2969 -0.162797,0.1303 -0.293168,0.2864 -0.390847,0.4696 -0.0936,0.179 -0.142406,0.38 -0.142406,0.5999 0,0.1709 0.02189,0.3292 0.06666,0.4758 0.04478,0.1426 0.119433,0.2767 0.221177,0.4028 0.105813,0.1225 0.244148,0.2366 0.415086,0.3424 0.175007,0.1023 0.391976,0.2002 0.648382,0.2939 0.187218,0.065 0.339475,0.1242 0.457503,0.1819 0.1221,0.057 0.213624,0.1147 0.278744,0.1757 0.06919,0.057 0.117974,0.121 0.142407,0.1908 0.02441,0.065 0.03636,0.138 0.03636,0.2242 0,0.1628 -0.06271,0.3042 -0.18482,0.4181 -0.1221,0.1133 -0.314149,0.1696 -0.578696,0.1696 -0.109892,0 -0.230309,-0.015 -0.360549,-0.042 -0.130244,-0.033 -0.262597,-0.072 -0.396906,-0.121 -0.134309,-0.052 -0.266668,-0.1163 -0.396906,-0.1849 -0.126164,-0.07 -0.242612,-0.1395 -0.34843,-0.212 v 1.012 c 0.187218,0.138 0.416124,0.2469 0.684741,0.3241 0.268614,0.072 0.553233,0.1086 0.854409,0.1086 0.309315,0 0.578016,-0.038 0.805932,-0.1148 0.231986,-0.077 0.422049,-0.1838 0.572637,-0.3181 0.154661,-0.138 0.269111,-0.2986 0.342369,-0.4817 0.07734,-0.1873 0.11816,-0.3904 0.11816,-0.606 0,-0.1995 -0.03089,-0.3735 -0.08786,-0.5242 -0.05291,-0.1551 -0.136481,-0.291 -0.254505,-0.409 -0.113956,-0.1179 -0.260247,-0.2245 -0.439324,-0.3182 -0.175006,-0.098 -0.386005,-0.187 -0.630203,-0.2726 -0.175007,-0.061 -0.319305,-0.1225 -0.433263,-0.1789 -0.113956,-0.061 -0.204537,-0.1178 -0.269654,-0.1757 -0.06512,-0.057 -0.110885,-0.1179 -0.139366,-0.1787 -0.02442,-0.061 -0.03636,-0.124 -0.03636,-0.1939 0,-0.1628 0.06168,-0.2971 0.187849,-0.403 0.130245,-0.1055 0.32333,-0.1606 0.575667,-0.1606 0.215706,0 0.431634,0.033 0.651411,0.095 0.223846,0.057 0.436836,0.1287 0.636263,0.2181 v -0.9149 c -0.207568,-0.1102 -0.422545,-0.1887 -0.642325,-0.2333 -0.219775,-0.045 -0.441674,-0.067 -0.669589,-0.067 z m -18.07937,0.8908 c 0.195358,0 0.373481,0.041 0.536278,0.1179 0.166867,0.077 0.309177,0.1897 0.427206,0.3362 0.1221,0.1428 0.216654,0.3167 0.281774,0.5242 0.06512,0.2076 0.09695,0.4445 0.09695,0.709 0,0.2807 -0.03582,0.5305 -0.10907,0.7543 -0.06919,0.2239 -0.173695,0.415 -0.312071,0.5697 -0.138374,0.1551 -0.304564,0.2731 -0.499923,0.3544 -0.195356,0.082 -0.420283,0.121 -0.672619,0.121 -0.134309,0 -0.2607,-0.015 -0.378727,-0.031 -0.118021,-0.025 -0.226515,-0.053 -0.324191,-0.085 -0.0936,-0.037 -0.175188,-0.077 -0.248447,-0.1179 -0.07327,-0.044 -0.135984,-0.087 -0.184818,-0.1272 v -2.5389 c 0.07325,-0.07 0.157866,-0.1396 0.251475,-0.2089 0.0936,-0.07 0.198113,-0.1303 0.312071,-0.1879 0.118021,-0.057 0.244421,-0.1008 0.378728,-0.1334 0.138374,-0.038 0.286656,-0.057 0.445383,-0.057 z m 8.671774,0.028 c 0.366295,0 0.652903,0.098 0.860469,0.2969 0.207567,0.1953 0.322021,0.482 0.342369,0.8604 h -2.651093 c 0.08139,-0.3784 0.243605,-0.6651 0.487802,-0.8604 0.248266,-0.1995 0.569739,-0.2969 0.960453,-0.2969 z m -23.717781,1.8845 h 0.360548 c 0.113957,0 0.218464,0.015 0.312073,0.018 v 0.9787 c -0.183148,0.1708 -0.394147,0.3072 -0.630204,0.4089 -0.236056,0.1025 -0.465915,0.1521 -0.693828,0.1521 -0.223849,0 -0.401021,-0.067 -0.527189,-0.197 -0.1221,-0.1304 -0.18179,-0.2984 -0.18179,-0.506 0,-0.1102 0.0199,-0.2164 0.0606,-0.3181 0.04071,-0.1023 0.113366,-0.1913 0.215117,-0.2727 0.101748,-0.082 0.240077,-0.1473 0.415085,-0.197 0.175006,-0.049 0.396905,-0.072 0.66959,-0.072 z"
         id="text836"
         inkscape:connector-curvature="0"
         sodipodi:nodetypes="ccccscccccccscccsccccccccscccccccccccscccsccccccccccccccccccccccccccccscccscscccscccccsccccscssccccccccccccccccccscsccscccccscsccscsccccccccccccccccscccscccccccccscccsccccccscccccsccccccccccccccccccsccscccsccccccccccscccccccscsccccccscccscccccccscsccccccccccscccsccccccccccsccccscscccscsccccc" />
    </g>
  </g>
</svg>
