<?xml version="1.0" encoding="UTF-8" standalone="no"?>
<!-- Created with Inkscape (http://www.inkscape.org/) -->

<svg
   xmlns:dc="http://purl.org/dc/elements/1.1/"
   xmlns:cc="http://creativecommons.org/ns#"
   xmlns:rdf="http://www.w3.org/1999/02/22-rdf-syntax-ns#"
   xmlns:svg="http://www.w3.org/2000/svg"
   xmlns="http://www.w3.org/2000/svg"
   xmlns:xlink="http://www.w3.org/1999/xlink"
   xmlns:sodipodi="http://sodipodi.sourceforge.net/DTD/sodipodi-0.dtd"
   xmlns:inkscape="http://www.inkscape.org/namespaces/inkscape"
   width="60"
   height="30"
   viewBox="0 0 60 30"
   id="svg2"
   version="1.1"
   inkscape:version="0.91 r13725"
   sodipodi:docname="tab_longwaves2_over.svg">
  <defs
     id="defs4">
    <inkscape:perspective
       id="perspective2840"
       inkscape:persp3d-origin="372.04724 : 350.78739 : 1"
       inkscape:vp_z="744.09448 : 526.18109 : 1"
       inkscape:vp_y="0 : 1000 : 0"
       inkscape:vp_x="0 : 526.18109 : 1"
       sodipodi:type="inkscape:persp3d" />
    <inkscape:perspective
       id="perspective2840-1"
       inkscape:persp3d-origin="372.04724 : 350.78739 : 1"
       inkscape:vp_z="744.09448 : 526.18109 : 1"
       inkscape:vp_y="0 : 1000 : 0"
       inkscape:vp_x="0 : 526.18109 : 1"
       sodipodi:type="inkscape:persp3d" />
    <pattern
       y="0"
       x="0"
       height="6"
       width="6"
       patternUnits="userSpaceOnUse"
       id="EMFhbasepattern" />
    <radialGradient
       inkscape:collect="always"
       xlink:href="#linearGradient4226"
       id="radialGradient5497"
       cx="30.078903"
       cy="1018.9943"
       fx="30.078903"
       fy="1018.9943"
       r="22.454525"
       gradientTransform="matrix(2.7286229,-1.7021667e-7,-6.9869432e-7,0.76130842,-53.319848,261.32)"
       gradientUnits="userSpaceOnUse" />
    <linearGradient
       inkscape:collect="always"
       id="linearGradient4226">
      <stop
         style="stop-color:#553289;stop-opacity:1"
         offset="0"
         id="stop4228" />
      <stop
         style="stop-color:#000000;stop-opacity:1"
         offset="1"
         id="stop4230" />
    </linearGradient>
  </defs>
  <sodipodi:namedview
     id="base"
     pagecolor="#ffffff"
     bordercolor="#666666"
     borderopacity="1.0"
     inkscape:pageopacity="0.0"
     inkscape:pageshadow="2"
     inkscape:zoom="7.4758433"
     inkscape:cx="33.00865"
     inkscape:cy="7.8893014"
     inkscape:document-units="px"
     inkscape:current-layer="g4257"
     showgrid="false"
     units="px"
     inkscape:window-width="1920"
     inkscape:window-height="1028"
     inkscape:window-x="-8"
     inkscape:window-y="-8"
     inkscape:window-maximized="1"
     objecttolerance="10"
     guidetolerance="9" />
  <metadata
     id="metadata7">
    <rdf:RDF>
      <cc:Work
         rdf:about="">
        <dc:format>image/svg+xml</dc:format>
        <dc:type
           rdf:resource="http://purl.org/dc/dcmitype/StillImage" />
        <dc:title></dc:title>
        <dc:creator>
          <cc:Agent>
            <dc:title>Jorge Rosa</dc:title>
          </cc:Agent>
        </dc:creator>
        <dc:description>Email: jorge.bigarte@gmail.com
Site:https://sites.google.com/site/jorgerosaportfolio</dc:description>
      </cc:Work>
    </rdf:RDF>
  </metadata>
  <g
     inkscape:label="Layer 1"
     inkscape:groupmode="layer"
     id="layer1"
     transform="translate(0,-1022.3622)">
    <text
       xml:space="preserve"
       style="font-style:normal;font-weight:normal;font-size:7.3307333px;line-height:125%;font-family:sans-serif;letter-spacing:0px;word-spacing:0px;opacity:0.1;fill:#ececec;fill-opacity:1;stroke:none;stroke-width:1px;stroke-linecap:butt;stroke-linejoin:miter;stroke-opacity:1"
       x="-64.373627"
       y="823.29761"
       id="text6116-5"
       sodipodi:linespacing="125%"
       transform="scale(1.0112873,0.98883868)"><tspan
         sodipodi:role="line"
         id="tspan6118-8"
         x="-64.373627"
         y="823.29761"
         style="font-style:normal;font-variant:normal;font-weight:normal;font-stretch:normal;font-family:Digital;-inkscape-font-specification:Digital;fill:#ececec">8888888888888888888888888888888888888888888888888888888888888888888888888</tspan></text>
    <g
       id="g5160">
      <g
         id="g4257">
        <path
           inkscape:connector-curvature="0"
           id="rect5489"
           d="m 2.5,1048.1965 0,-21.6685 55,0 0,21.6685 z"
           style="opacity:1;fill:url(#radialGradient5497);fill-opacity:1;stroke:none;stroke-width:1.45692945;stroke-linecap:round;stroke-linejoin:round;stroke-miterlimit:4;stroke-dasharray:none;stroke-dashoffset:0;stroke-opacity:1" />
      </g>
      <g
         style="font-style:normal;font-variant:normal;font-weight:normal;font-stretch:normal;font-size:12.37029076px;line-height:100%;font-family:'Estrangelo Edessa';-inkscape-font-specification:'Estrangelo Edessa, Normal';text-align:start;letter-spacing:0px;word-spacing:0px;writing-mode:lr-tb;text-anchor:start;fill:#e5d5ff;fill-opacity:1;stroke:none;stroke-width:1px;stroke-linecap:butt;stroke-linejoin:miter;stroke-opacity:1"
         id="text4159-4"
         transform="translate(-17.447862,49.505645)">
        <path
           d="m 33.522223,983.94548 -2.476474,7.81599 -1.159715,0 -1.908697,-5.51468 q -0.06644,-0.21745 -0.114763,-0.39865 -0.04228,-0.18725 -0.05436,-0.38053 l -0.02416,0 q -0.0604,0.38053 -0.175165,0.7671 l -1.769773,5.52676 -1.159715,0 -2.548956,-7.81599 1.195956,0 1.781853,5.58717 q 0.0604,0.18724 0.102683,0.38053 0.04228,0.18724 0.0604,0.39865 l 0.02416,0 q 0.01812,-0.13892 0.06644,-0.33221 0.05436,-0.19328 0.120803,-0.44697 l 1.793934,-5.58717 1.075152,0 1.914738,5.65361 q 0.04832,0.16308 0.09664,0.33825 0.04832,0.16913 0.06644,0.37449 l 0.01208,0 q 0.01812,-0.13892 0.06644,-0.32013 0.05436,-0.18724 0.120803,-0.41677 l 1.703332,-5.62945 1.189915,0 z"
           id="path4202"
           inkscape:connector-curvature="0" />
        <path
           d="m 37.442301,989.48433 q -0.138925,-0.0121 -0.30805,-0.0181 -0.169125,-0.006 -0.35637,-0.006 -0.404692,0 -0.66442,0.0725 -0.259728,0.0725 -0.410733,0.19328 -0.151004,0.12081 -0.211406,0.27181 -0.0604,0.15101 -0.0604,0.31409 0,0.30805 0.181206,0.50134 0.187245,0.19328 0.519455,0.19328 0.33825,0 0.688581,-0.151 0.35033,-0.15101 0.622139,-0.40469 l 0,-0.96643 z m 1.117433,2.38587 q -0.223487,0 -0.392612,-0.0483 -0.169125,-0.0423 -0.289928,-0.12081 -0.120804,-0.0846 -0.205367,-0.19932 -0.07852,-0.11477 -0.126843,-0.25973 -0.289929,0.26577 -0.682541,0.44697 -0.392612,0.18121 -0.936228,0.18121 -0.422813,0 -0.742942,-0.11477 -0.31409,-0.11476 -0.525496,-0.32013 -0.205366,-0.20536 -0.314089,-0.47717 -0.102683,-0.27785 -0.102683,-0.60402 0,-0.80938 0.616098,-1.23823 0.622139,-0.4349 1.836215,-0.4349 0.181206,0 0.356371,0.0121 0.181205,0.006 0.392612,0.0242 0,-0.54965 -0.229527,-0.83958 -0.229527,-0.29597 -0.755023,-0.29597 -0.374491,0 -0.767103,0.0966 -0.386572,0.0906 -0.767103,0.24765 l 0,-0.89999 q 0.33221,-0.15704 0.755023,-0.24764 0.428853,-0.0906 0.827504,-0.0906 0.513416,0 0.906028,0.10269 0.392611,0.0966 0.658379,0.33221 0.265768,0.22952 0.398652,0.61005 0.138924,0.38054 0.138924,0.93623 l 0,1.91474 q 0,0.21745 0.108724,0.32013 0.114763,0.10268 0.235567,0.10268 0.120803,0 0.223487,-0.006 0.102683,-0.0121 0.235567,-0.0423 l 0,0.69462 q -0.151005,0.10872 -0.374492,0.16309 -0.217446,0.0544 -0.477174,0.0544 z"
           id="path4204"
           inkscape:connector-curvature="0" />
        <path
           d="m 44.714678,986.80249 -2.210706,4.95898 -0.906027,0 -2.017421,-4.95898 1.189916,0 1.111393,2.98989 q 0.06644,0.16912 0.120804,0.35033 0.05436,0.1812 0.102683,0.36845 0.0302,-0.0967 0.0604,-0.20537 0.03624,-0.10872 0.07248,-0.20537 0.03624,-0.10268 0.06644,-0.1812 0.0302,-0.0846 0.04832,-0.13892 0.132884,-0.35034 0.277849,-0.73087 0.151004,-0.38053 0.302009,-0.76106 0.157045,-0.38657 0.308049,-0.76106 0.157045,-0.38053 0.302009,-0.72482 l 1.171795,0 z"
           id="path4206"
           inkscape:connector-curvature="0" />
        <path
           d="m 47.928055,987.59375 q -0.579857,0 -0.948308,0.29597 -0.362411,0.28993 -0.483215,0.85166 l 2.621439,0 q -0.0302,-0.56173 -0.33825,-0.85166 -0.308049,-0.29597 -0.851666,-0.29597 z m -2.585197,1.65501 q 0,-0.57382 0.187245,-1.04495 0.187246,-0.47718 0.525496,-0.80939 0.344291,-0.33825 0.821465,-0.51945 0.477174,-0.18725 1.063072,-0.18725 0.573817,0 1.00267,0.16913 0.434893,0.16308 0.730862,0.47113 0.295969,0.30805 0.440933,0.75502 0.151004,0.44698 0.151004,1.00871 l 0,0.4953 -3.793233,0 q 0.0302,0.30805 0.157044,0.57382 0.132884,0.25972 0.350331,0.44697 0.223487,0.18725 0.519455,0.29597 0.30201,0.10268 0.66442,0.10268 0.211407,0 0.446974,-0.0362 0.241607,-0.0423 0.489254,-0.11476 0.253688,-0.0785 0.501335,-0.18725 0.253688,-0.10872 0.483215,-0.25369 l 0,0.91207 q -0.459054,0.25973 -0.972469,0.40469 -0.507375,0.13893 -1.159715,0.13893 -0.604018,0 -1.087233,-0.17517 -0.483214,-0.1812 -0.821464,-0.51945 -0.33825,-0.33825 -0.519456,-0.82147 -0.181205,-0.48925 -0.181205,-1.10535 z"
           id="path4208"
           inkscape:connector-curvature="0" />
        <path
           d="m 54.711177,990.36619 q 0,0.32013 -0.114763,0.59798 -0.108724,0.27181 -0.33825,0.47718 -0.223487,0.19932 -0.567777,0.31408 -0.338251,0.11477 -0.797304,0.11477 -0.446974,0 -0.845626,-0.10873 -0.398652,-0.11476 -0.6765,-0.32012 l 0,-1.00268 q 0.157045,0.10873 0.34429,0.21141 0.193286,0.10268 0.392612,0.18121 0.199326,0.0725 0.392612,0.1208 0.193286,0.0423 0.356371,0.0423 0.392611,0 0.573817,-0.16912 0.181205,-0.16913 0.181205,-0.41074 0,-0.12684 -0.03624,-0.22348 -0.03624,-0.10269 -0.138924,-0.18725 -0.09664,-0.0906 -0.277848,-0.17516 -0.175166,-0.0846 -0.453014,-0.18121 -0.380531,-0.13892 -0.640259,-0.28993 -0.253688,-0.15704 -0.410732,-0.33825 -0.151005,-0.18724 -0.217447,-0.39865 -0.06644,-0.21745 -0.06644,-0.47113 0,-0.32617 0.138924,-0.59194 0.144965,-0.27181 0.386572,-0.4651 0.247647,-0.19328 0.573817,-0.29596 0.33221,-0.10873 0.706701,-0.10873 0.33825,0 0.66442,0.0664 0.32617,0.0665 0.634219,0.22953 l 0,0.90603 q -0.295969,-0.13289 -0.628179,-0.21745 -0.32617,-0.0906 -0.646299,-0.0906 -0.374491,0 -0.567777,0.15704 -0.187246,0.15705 -0.187246,0.39866 0,0.10268 0.03624,0.19328 0.04228,0.0906 0.138925,0.17517 0.09664,0.0846 0.265767,0.17516 0.169126,0.0846 0.428853,0.17517 0.362411,0.12684 0.622139,0.27181 0.265768,0.13892 0.434893,0.31409 0.175165,0.17516 0.253688,0.40469 0.08456,0.22348 0.08456,0.51945 z"
           id="path4210"
           inkscape:connector-curvature="0" />
        <path
           d="m 59.652046,987.93804 q 0,0.65838 0.187246,1.202 0.193285,0.53757 0.537576,0.92414 0.35033,0.38658 0.833545,0.59798 0.489254,0.21141 1.081192,0.21141 0.549656,0 1.087233,-0.14497 0.543616,-0.14496 1.038911,-0.41677 l 0,1.06911 q -0.453014,0.24161 -1.014751,0.36845 -0.561737,0.12081 -1.226156,0.12081 -0.827505,0 -1.522126,-0.28993 -0.688581,-0.28993 -1.189916,-0.80939 -0.495295,-0.51945 -0.773143,-1.23823 -0.271808,-0.72482 -0.271808,-1.59461 0,-0.89395 0.295969,-1.64293 0.295969,-0.75502 0.815424,-1.29864 0.525496,-0.54361 1.238237,-0.84562 0.718782,-0.30805 1.558367,-0.30805 0.283889,0 0.573817,0.0362 0.289929,0.0302 0.567777,0.0906 0.277849,0.0544 0.525496,0.13289 0.253688,0.0725 0.459054,0.16308 l 0,1.06307 q -0.211407,-0.0906 -0.471134,-0.1812 -0.259728,-0.0906 -0.537576,-0.15705 -0.277849,-0.0725 -0.567777,-0.11476 -0.289929,-0.0423 -0.561737,-0.0423 -0.567777,0 -1.057032,0.22348 -0.483214,0.21745 -0.839585,0.62214 -0.356371,0.40469 -0.561737,0.97851 -0.205366,0.57382 -0.205366,1.28052 z"
           id="path4212"
           inkscape:connector-curvature="0" />
        <path
           d="m 71.539122,987.71455 q 0,-0.71878 -0.229527,-1.23823 -0.223486,-0.51946 -0.646299,-0.85771 -0.416773,-0.33825 -1.026831,-0.49529 -0.604018,-0.16309 -1.365081,-0.16309 l -0.924148,0 0,5.79857 0.815425,0 q 0.773143,0 1.395282,-0.2114 0.628179,-0.21745 1.069112,-0.61006 0.440933,-0.39865 0.6765,-0.96039 0.235567,-0.56778 0.235567,-1.2624 z m 1.226157,-0.0121 q 0,0.91207 -0.33825,1.66105 -0.33221,0.74899 -0.936228,1.28656 -0.604018,0.53154 -1.443604,0.82147 -0.839585,0.28992 -1.848295,0.28992 l -2.041581,0 0,-7.81599 2.138224,0 q 1.063072,0 1.890577,0.24161 0.833545,0.23556 1.407362,0.71274 0.573817,0.47113 0.869786,1.17783 0.302009,0.70067 0.302009,1.62481 z"
           id="path4214"
           inkscape:connector-curvature="0" />
      </g>
    </g>
  </g>
</svg>
