<?xml version="1.0" encoding="UTF-8" standalone="no"?>
<!-- Created with Inkscape (http://www.inkscape.org/) -->

<svg
   xmlns:dc="http://purl.org/dc/elements/1.1/"
   xmlns:cc="http://creativecommons.org/ns#"
   xmlns:rdf="http://www.w3.org/1999/02/22-rdf-syntax-ns#"
   xmlns:svg="http://www.w3.org/2000/svg"
   xmlns="http://www.w3.org/2000/svg"
   xmlns:xlink="http://www.w3.org/1999/xlink"
   xmlns:sodipodi="http://sodipodi.sourceforge.net/DTD/sodipodi-0.dtd"
   xmlns:inkscape="http://www.inkscape.org/namespaces/inkscape"
   width="60"
   height="30"
   viewBox="0 0 60 30"
   id="svg2"
   version="1.1"
   inkscape:version="0.91 r13725"
   sodipodi:docname="tab_samplers_1.svg">
  <defs
     id="defs4">
    <linearGradient
       id="linearGradient5613"
       inkscape:collect="always">
      <stop
         id="stop5615"
         offset="0"
         style="stop-color:#0d011e;stop-opacity:1" />
      <stop
         id="stop5617"
         offset="1"
         style="stop-color:#000000;stop-opacity:1" />
    </linearGradient>
    <inkscape:perspective
       id="perspective2840"
       inkscape:persp3d-origin="372.04724 : 350.78739 : 1"
       inkscape:vp_z="744.09448 : 526.18109 : 1"
       inkscape:vp_y="0 : 1000 : 0"
       inkscape:vp_x="0 : 526.18109 : 1"
       sodipodi:type="inkscape:persp3d" />
    <inkscape:perspective
       id="perspective2840-1"
       inkscape:persp3d-origin="372.04724 : 350.78739 : 1"
       inkscape:vp_z="744.09448 : 526.18109 : 1"
       inkscape:vp_y="0 : 1000 : 0"
       inkscape:vp_x="0 : 526.18109 : 1"
       sodipodi:type="inkscape:persp3d" />
    <radialGradient
       inkscape:collect="always"
       xlink:href="#linearGradient5613"
       id="radialGradient5497-4"
       cx="30.078903"
       cy="1018.9943"
       fx="30.078903"
       fy="1018.9943"
       r="22.454525"
       gradientTransform="matrix(1.2566991,-5.859816e-8,-1.1509721e-7,0.46345299,-9.0465934,564.83292)"
       gradientUnits="userSpaceOnUse" />
    <pattern
       y="0"
       x="0"
       height="6"
       width="6"
       patternUnits="userSpaceOnUse"
       id="EMFhbasepattern" />
  </defs>
  <sodipodi:namedview
     id="base"
     pagecolor="#ffffff"
     bordercolor="#666666"
     borderopacity="1.0"
     inkscape:pageopacity="0.0"
     inkscape:pageshadow="2"
     inkscape:zoom="7.4758433"
     inkscape:cx="-14.399893"
     inkscape:cy="15.040852"
     inkscape:document-units="px"
     inkscape:current-layer="g5160"
     showgrid="false"
     units="px"
     inkscape:window-width="1920"
     inkscape:window-height="1028"
     inkscape:window-x="-8"
     inkscape:window-y="-8"
     inkscape:window-maximized="1"
     objecttolerance="10"
     guidetolerance="9" />
  <metadata
     id="metadata7">
    <rdf:RDF>
      <cc:Work
         rdf:about="">
        <dc:format>image/svg+xml</dc:format>
        <dc:type
           rdf:resource="http://purl.org/dc/dcmitype/StillImage" />
        <dc:title />
        <dc:creator>
          <cc:Agent>
            <dc:title>Jorge Rosa</dc:title>
          </cc:Agent>
        </dc:creator>
        <dc:description>Email: jorge.bigarte@gmail.com
Site:https://sites.google.com/site/jorgerosaportfolio</dc:description>
      </cc:Work>
    </rdf:RDF>
  </metadata>
  <g
     inkscape:label="Layer 1"
     inkscape:groupmode="layer"
     id="layer1"
     transform="translate(0,-1022.3622)">
    <text
       xml:space="preserve"
       style="font-style:normal;font-weight:normal;font-size:7.3307333px;line-height:125%;font-family:sans-serif;letter-spacing:0px;word-spacing:0px;opacity:0.1;fill:#ececec;fill-opacity:1;stroke:none;stroke-width:1px;stroke-linecap:butt;stroke-linejoin:miter;stroke-opacity:1"
       x="-64.373627"
       y="823.29761"
       id="text6116-5"
       sodipodi:linespacing="125%"
       transform="scale(1.0112873,0.98883868)"><tspan
         sodipodi:role="line"
         id="tspan6118-8"
         x="-64.373627"
         y="823.29761"
         style="font-style:normal;font-variant:normal;font-weight:normal;font-stretch:normal;font-family:Digital;-inkscape-font-specification:Digital;fill:#ececec">8888888888888888888888888888888888888888888888888888888888888888888888888</tspan></text>
    <g
       id="g5160">
      <path
         style="opacity:1;fill:url(#radialGradient5497-4);fill-opacity:1;stroke:none;stroke-width:1.45692945;stroke-linecap:round;stroke-linejoin:round;stroke-miterlimit:4;stroke-dasharray:none;stroke-dashoffset:0;stroke-opacity:1"
         d="m 2.5,1048.1965 0,-21.6686 55,0 0,21.6686 z"
         id="rect5489-1"
         inkscape:connector-curvature="0" />
      <g
         style="font-style:normal;font-variant:normal;font-weight:normal;font-stretch:normal;font-size:12.36420155px;line-height:100%;font-family:'Estrangelo Edessa';-inkscape-font-specification:'Estrangelo Edessa, Normal';text-align:start;letter-spacing:0px;word-spacing:0px;writing-mode:lr-tb;text-anchor:start;fill:#8d5fd3;fill-opacity:1;stroke:none;stroke-width:1px;stroke-linecap:butt;stroke-linejoin:miter;stroke-opacity:1"
         id="text4161-8"
         transform="translate(-26.3538,1.6143)">
        <path
           d="m 41.836969,1037.7064 q 0,0.4769 -0.169042,0.8995 -0.163004,0.4166 -0.489013,0.7305 -0.319972,0.3079 -0.802949,0.489 -0.476939,0.1751 -1.110846,0.1751 -0.307898,0 -0.615795,-0.042 -0.301861,-0.036 -0.579572,-0.1087 -0.271675,-0.079 -0.507126,-0.1751 -0.235451,-0.1026 -0.41053,-0.2173 l 0,-1.2075 q 0.193191,0.1389 0.452791,0.2777 0.265637,0.1329 0.555423,0.2415 0.289786,0.1027 0.573534,0.1691 0.289786,0.066 0.5192,0.066 0.350158,0 0.609758,-0.084 0.265637,-0.091 0.440717,-0.2536 0.181116,-0.163 0.265637,-0.3864 0.09056,-0.2294 0.09056,-0.5011 0,-0.3079 -0.114707,-0.5192 -0.10867,-0.2113 -0.313935,-0.3682 -0.205265,-0.157 -0.495051,-0.2838 -0.289786,-0.1268 -0.645981,-0.2656 -0.489014,-0.1932 -0.869358,-0.3864 -0.380344,-0.1992 -0.639944,-0.4468 -0.2596,-0.2535 -0.398456,-0.5795 -0.132818,-0.3321 -0.132818,-0.7849 0,-0.495 0.199227,-0.8935 0.199228,-0.4045 0.543349,-0.6822 0.344121,-0.2837 0.802949,-0.4347 0.464865,-0.1569 0.990102,-0.1569 0.56146,0 1.014251,0.1026 0.45279,0.1026 0.827097,0.2596 l 0,1.0867 q -0.175079,-0.084 -0.404493,-0.163 -0.229414,-0.078 -0.482976,-0.1389 -0.253563,-0.066 -0.507126,-0.1026 -0.253563,-0.042 -0.482976,-0.042 -0.319972,0 -0.567498,0.085 -0.247526,0.078 -0.422605,0.2233 -0.169041,0.1449 -0.259599,0.3502 -0.08452,0.1992 -0.08452,0.4407 0,0.2717 0.114707,0.4709 0.114707,0.1932 0.326009,0.3502 0.211302,0.1509 0.507125,0.2837 0.301861,0.1268 0.67013,0.2717 0.470903,0.1872 0.839172,0.3924 0.374307,0.1992 0.62787,0.4649 0.2596,0.2596 0.398456,0.6037 0.138855,0.3381 0.138855,0.7909 z"
           style="fill:#8d5fd3;fill-opacity:1"
           id="path4157-2"
           inkscape:connector-curvature="0" />
        <path
           d="m 46.11735,1037.6158 q -0.138856,-0.012 -0.307898,-0.018 -0.169042,-0.01 -0.356195,-0.01 -0.404493,0 -0.664093,0.072 -0.2596,0.072 -0.41053,0.1932 -0.15093,0.1208 -0.211303,0.2717 -0.06037,0.1509 -0.06037,0.3139 0,0.3079 0.181117,0.5011 0.187153,0.1932 0.519199,0.1932 0.338084,0 0.688242,-0.1509 0.350158,-0.151 0.621833,-0.4045 l 0,-0.966 z m 1.116883,2.3847 q -0.223377,0 -0.392419,-0.048 -0.169041,-0.042 -0.289785,-0.1207 -0.120745,-0.084 -0.205266,-0.1993 -0.07848,-0.1147 -0.126781,-0.2596 -0.289786,0.2657 -0.682204,0.4468 -0.392419,0.1811 -0.935768,0.1811 -0.422604,0 -0.742576,-0.1147 -0.313935,-0.1147 -0.525237,-0.32 -0.205265,-0.2052 -0.313935,-0.4769 -0.102633,-0.2777 -0.102633,-0.6037 0,-0.809 0.615796,-1.2377 0.621832,-0.4346 1.835311,-0.4346 0.181116,0 0.356195,0.012 0.181116,0.01 0.392419,0.024 0,-0.5494 -0.229414,-0.8392 -0.229414,-0.2958 -0.754651,-0.2958 -0.374307,0 -0.766726,0.097 -0.386381,0.091 -0.766725,0.2475 l 0,-0.8995 q 0.332046,-0.157 0.754651,-0.2476 0.428642,-0.091 0.827097,-0.091 0.513163,0 0.905582,0.1026 0.392418,0.097 0.658055,0.3321 0.265637,0.2294 0.398456,0.6097 0.138856,0.3804 0.138856,0.9358 l 0,1.9138 q 0,0.2173 0.108669,0.32 0.114707,0.1026 0.235452,0.1026 0.120744,0 0.223376,-0.01 0.102633,-0.012 0.235451,-0.042 l 0,0.6943 q -0.15093,0.1086 -0.374307,0.163 -0.217339,0.054 -0.476939,0.054 z"
           style="fill:#8d5fd3;fill-opacity:1"
           id="path4159-5"
           inkscape:connector-curvature="0" />
        <path
           d="m 53.48878,1039.8918 -1.165181,0 0,-3.0669 q 0,-0.5252 -0.205265,-0.8029 -0.199228,-0.2838 -0.609758,-0.2838 -0.187153,0 -0.368269,0.06 -0.181117,0.054 -0.344121,0.1389 -0.156968,0.084 -0.289786,0.1871 -0.132819,0.097 -0.223377,0.1811 l 0,3.5861 -1.159144,0 0,-4.9565 1.122921,0 0.02415,0.495 q 0.126781,-0.1086 0.283748,-0.2173 0.156968,-0.1147 0.344121,-0.1992 0.187154,-0.084 0.392419,-0.1389 0.211302,-0.054 0.440716,-0.054 0.56146,0 0.935767,0.2173 0.380344,0.2174 0.573535,0.5977 0.15093,-0.1449 0.338084,-0.2898 0.19319,-0.1509 0.41053,-0.2656 0.217339,-0.1147 0.45279,-0.1872 0.241489,-0.072 0.489014,-0.072 0.893507,0 1.316111,0.5192 0.428642,0.5132 0.428642,1.4489 l 0,3.1031 -1.165181,0 0,-3.0669 q 0,-0.5252 -0.205265,-0.8029 -0.199228,-0.2838 -0.597684,-0.2838 -0.205265,0 -0.398455,0.066 -0.187154,0.066 -0.350158,0.163 -0.163005,0.097 -0.295824,0.2113 -0.126781,0.1147 -0.205265,0.2113 0.01207,0.066 0.01811,0.1932 0.01207,0.1207 0.01207,0.2052 l 0,3.1031 z"
           style="fill:#8d5fd3;fill-opacity:1"
           id="path4161-3"
           inkscape:connector-curvature="0" />
        <path
           d="m 59.652768,1038.7931 q 0.07245,0.06 0.181117,0.1268 0.108669,0.06 0.247525,0.1147 0.144893,0.048 0.319972,0.084 0.175079,0.03 0.374307,0.03 0.374307,0 0.664093,-0.1208 0.289786,-0.1207 0.495051,-0.3501 0.205265,-0.2294 0.307897,-0.5615 0.10867,-0.332 0.10867,-0.7486 0,-0.3924 -0.0966,-0.7003 -0.0966,-0.3079 -0.277712,-0.5192 -0.175079,-0.2174 -0.422604,-0.3321 -0.241489,-0.1147 -0.531274,-0.1147 -0.235452,0 -0.440717,0.054 -0.199228,0.048 -0.374307,0.1328 -0.169041,0.084 -0.307897,0.1871 -0.138856,0.1027 -0.247526,0.2053 l 0,2.5115 z m -1.159144,-3.8578 1.134996,0 0.02415,0.4407 q 0.289786,-0.2234 0.676168,-0.3864 0.386381,-0.169 0.893506,-0.169 0.489014,0 0.911619,0.169 0.422604,0.163 0.730502,0.489 0.307897,0.32 0.482977,0.797 0.175079,0.4769 0.175079,1.1048 0,0.5795 -0.169042,1.0625 -0.169042,0.477 -0.495051,0.8211 -0.319972,0.3441 -0.790875,0.5373 -0.470902,0.1871 -1.068585,0.1871 -0.374307,0 -0.730502,-0.084 -0.356196,-0.084 -0.615796,-0.2234 l 0,3.0669 -1.159144,0 0,-7.8121 z"
           style="fill:#8d5fd3;fill-opacity:1"
           id="path4163-5"
           inkscape:connector-curvature="0" />
        <path
           d="m 68.419522,1038.4973 q 0,0.3199 -0.114707,0.5976 -0.108669,0.2717 -0.338083,0.477 -0.223377,0.1992 -0.567498,0.3139 -0.338083,0.1147 -0.796911,0.1147 -0.446754,0 -0.845209,-0.1087 -0.398456,-0.1147 -0.676168,-0.3199 l 0,-1.0022 q 0.156968,0.1087 0.344121,0.2113 0.193191,0.1026 0.392419,0.1811 0.199228,0.072 0.392418,0.1208 0.193191,0.042 0.356196,0.042 0.392418,0 0.573534,-0.169 0.181117,-0.1691 0.181117,-0.4106 0,-0.1267 -0.03622,-0.2233 -0.03622,-0.1027 -0.138855,-0.1872 -0.0966,-0.091 -0.277712,-0.1751 -0.175079,-0.085 -0.452791,-0.1811 -0.380344,-0.1388 -0.639944,-0.2898 -0.253562,-0.1569 -0.41053,-0.338 -0.15093,-0.1872 -0.217339,-0.3985 -0.06641,-0.2173 -0.06641,-0.4709 0,-0.326 0.138856,-0.5917 0.144893,-0.2716 0.386382,-0.4648 0.247525,-0.1932 0.573534,-0.2958 0.332047,-0.1087 0.706354,-0.1087 0.338083,0 0.664092,0.066 0.32601,0.066 0.633907,0.2294 l 0,0.9056 q -0.295823,-0.1328 -0.627869,-0.2173 -0.32601,-0.091 -0.645982,-0.091 -0.374306,0 -0.567497,0.157 -0.187154,0.1569 -0.187154,0.3984 0,0.1027 0.03622,0.1932 0.04226,0.091 0.138855,0.1751 0.0966,0.084 0.265638,0.1751 0.169041,0.085 0.428641,0.175 0.362233,0.1268 0.621833,0.2717 0.265637,0.1389 0.434679,0.314 0.175079,0.175 0.253562,0.4045 0.08452,0.2233 0.08452,0.5192 z"
           style="fill:#8d5fd3;fill-opacity:1"
           id="path4171-6"
           inkscape:connector-curvature="0" />
        <path
           d="m 75.658133,1039.8918 -1.159143,0 0,-6.3451 q -0.0966,0.085 -0.211303,0.1812 -0.10867,0.091 -0.211302,0.169 l -1.521376,1.0867 0,-1.1531 2.360548,-1.775 0.742576,0 0,7.8363 z"
           style="fill:#8d5fd3;fill-opacity:1"
           id="path4173-7"
           inkscape:connector-curvature="0" />
      </g>
    </g>
  </g>
</svg>
