<?xml version="1.0" encoding="UTF-8" standalone="no"?>
<!-- Created with Inkscape (http://www.inkscape.org/) -->

<svg
   xmlns:dc="http://purl.org/dc/elements/1.1/"
   xmlns:cc="http://creativecommons.org/ns#"
   xmlns:rdf="http://www.w3.org/1999/02/22-rdf-syntax-ns#"
   xmlns:svg="http://www.w3.org/2000/svg"
   xmlns="http://www.w3.org/2000/svg"
   xmlns:xlink="http://www.w3.org/1999/xlink"
   xmlns:sodipodi="http://sodipodi.sourceforge.net/DTD/sodipodi-0.dtd"
   xmlns:inkscape="http://www.inkscape.org/namespaces/inkscape"
   width="60"
   height="30"
   viewBox="0 0 60 30"
   id="svg2"
   version="1.1"
   inkscape:version="0.92.0 r15299"
   sodipodi:docname="tab_samplers_1.svg">
  <defs
     id="defs4">
    <linearGradient
       id="linearGradient5613"
       inkscape:collect="always">
      <stop
         id="stop5615"
         offset="0"
         style="stop-color:#0d011e;stop-opacity:1" />
      <stop
         id="stop5617"
         offset="1"
         style="stop-color:#000000;stop-opacity:1" />
    </linearGradient>
    <inkscape:perspective
       id="perspective2840"
       inkscape:persp3d-origin="372.04724 : 350.78739 : 1"
       inkscape:vp_z="744.09448 : 526.18109 : 1"
       inkscape:vp_y="0 : 1000 : 0"
       inkscape:vp_x="0 : 526.18109 : 1"
       sodipodi:type="inkscape:persp3d" />
    <inkscape:perspective
       id="perspective2840-1"
       inkscape:persp3d-origin="372.04724 : 350.78739 : 1"
       inkscape:vp_z="744.09448 : 526.18109 : 1"
       inkscape:vp_y="0 : 1000 : 0"
       inkscape:vp_x="0 : 526.18109 : 1"
       sodipodi:type="inkscape:persp3d" />
    <radialGradient
       inkscape:collect="always"
       xlink:href="#linearGradient5613"
       id="radialGradient5497-4"
       cx="30.078903"
       cy="1018.9943"
       fx="30.078903"
       fy="1018.9943"
       r="22.454525"
       gradientTransform="matrix(1.2566991,-5.859816e-8,-1.1509721e-7,0.46345299,-9.0465934,564.83292)"
       gradientUnits="userSpaceOnUse" />
    <pattern
       y="0"
       x="0"
       height="6"
       width="6"
       patternUnits="userSpaceOnUse"
       id="EMFhbasepattern" />
    <pattern
       y="0"
       x="0"
       height="6"
       width="6"
       patternUnits="userSpaceOnUse"
       id="EMFhbasepattern-9" />
  </defs>
  <sodipodi:namedview
     id="base"
     pagecolor="#ffffff"
     bordercolor="#666666"
     borderopacity="1.0"
     inkscape:pageopacity="0.0"
     inkscape:pageshadow="2"
     inkscape:zoom="14.951687"
     inkscape:cx="33.661226"
     inkscape:cy="1.0713496"
     inkscape:document-units="px"
     inkscape:current-layer="g5160"
     showgrid="false"
     units="px"
     inkscape:window-width="1920"
     inkscape:window-height="1028"
     inkscape:window-x="-8"
     inkscape:window-y="-8"
     inkscape:window-maximized="1"
     objecttolerance="10"
     guidetolerance="9"
     showguides="true"
     inkscape:guide-bbox="true" />
  <metadata
     id="metadata7">
    <rdf:RDF>
      <cc:Work
         rdf:about="">
        <dc:format>image/svg+xml</dc:format>
        <dc:type
           rdf:resource="http://purl.org/dc/dcmitype/StillImage" />
        <dc:title />
        <dc:creator>
          <cc:Agent>
            <dc:title>Jorge Rosa</dc:title>
          </cc:Agent>
        </dc:creator>
        <dc:description>Email: jorge.bigarte@gmail.com
Site:https://sites.google.com/site/jorgerosaportfolio</dc:description>
      </cc:Work>
    </rdf:RDF>
  </metadata>
  <g
     inkscape:label="Layer 1"
     inkscape:groupmode="layer"
     id="layer1"
     transform="translate(0,-1022.3622)">
    <text
       xml:space="preserve"
       style="font-style:normal;font-weight:normal;font-size:7.3307333px;line-height:125%;font-family:sans-serif;letter-spacing:0px;word-spacing:0px;opacity:0.1;fill:#ececec;fill-opacity:1;stroke:none;stroke-width:1px;stroke-linecap:butt;stroke-linejoin:miter;stroke-opacity:1"
       x="-64.373627"
       y="823.29761"
       id="text6116-5"
       transform="scale(1.0112873,0.98883868)"><tspan
         sodipodi:role="line"
         id="tspan6118-8"
         x="-64.373627"
         y="823.29761"
         style="font-style:normal;font-variant:normal;font-weight:normal;font-stretch:normal;font-family:Digital;-inkscape-font-specification:Digital;fill:#ececec">8888888888888888888888888888888888888888888888888888888888888888888888888</tspan></text>
    <g
       id="g5160">
      <path
         style="opacity:1;fill:url(#radialGradient5497-4);fill-opacity:1;stroke:none;stroke-width:1.45692945;stroke-linecap:round;stroke-linejoin:round;stroke-miterlimit:4;stroke-dasharray:none;stroke-dashoffset:0;stroke-opacity:1"
         d="m 2.5,1048.1965 0,-21.6686 55,0 0,21.6686 z"
         id="rect5489-1"
         inkscape:connector-curvature="0" />
      <path
         id="path833"
         d="m 7.8801639,1033.5123 c -0.319998,0 -0.719995,0.08 -0.9599933,0.16 -0.3199975,0.08 -0.6399951,0.24 -0.8799933,0.48 -0.2399982,0.16 -0.399997,0.4 -0.5599959,0.64 -0.079999,0.24 -0.1599988,0.56 -0.1599988,0.88 0,0.32 0.079999,0.64 0.1599988,0.8 0.079999,0.24 0.2399983,0.48 0.3999971,0.64 0.1599988,0.16 0.399997,0.32 0.6399952,0.4 0.2399982,0.16 0.5599959,0.32 0.8799942,0.4 0.239998,0.08 0.399997,0.24 0.639995,0.32 0.159999,0.08 0.319998,0.16 0.479996,0.24 0.159999,0.08 0.239999,0.24 0.319998,0.4 0.08,0.16 0.159999,0.32 0.159999,0.48 0,0.24 -0.08,0.4 -0.159999,0.56 0,0.16 -0.08,0.24 -0.239998,0.3999 -0.08,0.08 -0.239998,0.16 -0.399997,0.24 -0.239999,0 -0.399997,0.08 -0.639996,0.08 -0.159998,0 -0.319997,0 -0.5599953,-0.08 -0.159999,-0.08 -0.3999975,-0.08 -0.5599963,-0.16 -0.1599988,-0.08 -0.399997,-0.1599 -0.5599958,-0.2399 -0.1599988,-0.08 -0.3199977,-0.24 -0.4799965,-0.32 v 1.2799 c 0.1599988,0.08 0.2399983,0.08 0.3999971,0.16 0.1599988,0.08 0.399997,0.16 0.5599958,0.24 0.1599988,0 0.399997,0.08 0.5599957,0.08 0.2399983,0 0.3999973,0 0.6399953,0 0.399997,0 0.799995,0 1.119992,-0.16 0.319998,-0.08 0.559996,-0.24 0.799994,-0.48 0.239998,-0.24 0.3999975,-0.48 0.4799975,-0.7199 0.1599976,-0.32 0.1599976,-0.64 0.1599976,-0.96 0,-0.24 0,-0.56 -0.08,-0.8 -0.08,-0.16 -0.2399976,-0.4 -0.3999971,-0.56 -0.159998,-0.16 -0.399997,-0.32 -0.639995,-0.48 -0.239998,-0.16 -0.559996,-0.24 -0.879993,-0.4 -0.239999,-0.08 -0.479997,-0.16 -0.639996,-0.24 -0.239998,-0.16 -0.3999973,-0.24 -0.5599953,-0.32 -0.1599993,-0.08 -0.2399987,-0.24 -0.3199981,-0.32 -0.079999,-0.16 -0.079999,-0.32 -0.079999,-0.48 0,-0.16 0,-0.32 0.079999,-0.48 0.079999,-0.16 0.1599988,-0.24 0.2399981,-0.32 0.159999,-0.16 0.239998,-0.24 0.3999973,-0.24 0.159999,-0.08 0.399997,-0.08 0.639995,-0.08 0.159999,0 0.319998,0 0.479997,0 0.159999,0.08 0.319998,0.08 0.479996,0.08 0.159999,0.08 0.319998,0.16 0.479997,0.16 0.159999,0.08 0.319997,0.16 0.399997,0.16 v -1.04 c -0.239998,-0.16 -0.479997,-0.24 -0.799994,-0.32 -0.319998,-0.08 -0.639995,-0.08 -1.039992,-0.08 z m 46.0796591,0.08 -2.399983,1.76 v 1.2 l 1.519989,-1.12 c 0.08,0 0.159999,-0.08 0.239998,-0.16 0.08,-0.08 0.159999,-0.08 0.239999,-0.16 v 6.3999 h 1.119991 v -7.9199 z m -21.439841,0 v 7.9199 h 1.199991 v -7.9199 z m -18.95986,2.8 c -0.319998,0 -0.559996,0 -0.879993,0.08 -0.239999,0.08 -0.479997,0.16 -0.719995,0.24 v 0.96 c 0.239998,-0.16 0.479996,-0.24 0.719995,-0.32 0.319997,0 0.559995,-0.08 0.799994,-0.08 0.399997,0 0.639995,0.16 0.799994,0.32 0.159998,0.16 0.239998,0.48 0.239998,0.88 -0.159999,-0.08 -0.319998,-0.08 -0.399997,-0.08 -0.159999,0 -0.239998,0 -0.399997,0 -0.799994,0 -1.43999,0.16 -1.839987,0.48 -0.399997,0.24 -0.639995,0.64 -0.639995,1.2 0,0.2399 0.08,0.4799 0.08,0.6399 0.08,0.16 0.239998,0.32 0.319998,0.48 0.159999,0.16 0.319997,0.24 0.559996,0.32 0.239998,0.08 0.479996,0.08 0.719994,0.08 0.399997,0 0.719995,0 0.959993,-0.16 0.319998,-0.08 0.479997,-0.24 0.719995,-0.48 0,0.16 0.08,0.24 0.159999,0.32 0,0.08 0.08,0.16 0.159998,0.16 0.08,0.08 0.159999,0.08 0.319998,0.16 0.08,0 0.239999,0 0.399998,0 0.159998,0 0.319997,0 0.479996,0 0.159999,-0.08 0.239998,-0.08 0.319998,-0.16 v -0.72 c -0.08,0 -0.159999,0 -0.239999,0 h -0.159998 c -0.08,0 -0.159999,0 -0.239999,-0.08 -0.08,-0.08 -0.159998,-0.16 -0.159998,-0.32 v -1.9199 c 0,-0.4 0,-0.72 -0.08,-0.96 -0.159999,-0.24 -0.239999,-0.48 -0.399997,-0.64 -0.239999,-0.16 -0.399997,-0.24 -0.719995,-0.32 -0.239998,-0.08 -0.559996,-0.08 -0.879994,-0.08 z m 6.639951,0 c -0.159999,0 -0.319998,0 -0.479997,0.08 -0.159998,0 -0.239998,0.08 -0.399997,0.08 -0.159999,0.08 -0.239998,0.16 -0.319997,0.24 -0.159999,0.08 -0.239999,0.16 -0.319998,0.24 v -0.56 h -1.119992 v 5.0399 h 1.119992 v -3.5999 c 0.08,-0.08 0.159999,-0.16 0.239998,-0.24 0.08,0 0.159999,-0.08 0.319998,-0.16 0.08,-0.08 0.239998,-0.08 0.319998,-0.16 0.159998,0 0.239998,0 0.399997,0 0.239998,0 0.479996,0.08 0.559995,0.24 0.159999,0.16 0.239999,0.48 0.239999,0.8 v 3.1199 h 1.199991 v -3.1199 c 0,-0.08 0,-0.16 0,-0.24 0,-0.08 -0.08,-0.16 -0.08,-0.16 0.08,-0.08 0.159999,-0.16 0.239999,-0.24 0.08,-0.08 0.159998,-0.16 0.319997,-0.24 0.08,0 0.239998,-0.08 0.319998,-0.16 0.159999,0 0.239998,0 0.399997,0 0.319997,0 0.479996,0.08 0.639995,0.24 0.08,0.16 0.159999,0.48 0.159999,0.8 v 3.1199 h 1.199991 v -3.1199 c 0,-0.64 -0.159999,-1.12 -0.399997,-1.44 -0.319998,-0.4 -0.719995,-0.56 -1.35999,-0.56 -0.159999,0 -0.319998,0 -0.479996,0.08 -0.159999,0 -0.319998,0.08 -0.479997,0.16 -0.159999,0.08 -0.239998,0.16 -0.399997,0.32 -0.159999,0.08 -0.239998,0.16 -0.319997,0.24 -0.159999,-0.24 -0.319998,-0.4 -0.639996,-0.56 -0.239998,-0.16 -0.559996,-0.24 -0.879993,-0.24 z m 8.879934,0 c -0.399997,0 -0.639995,0.08 -0.959993,0.16 -0.239998,0.16 -0.479996,0.24 -0.639995,0.4 v -0.48 h -1.199991 v 7.9199 h 1.199991 v -3.12 c 0.159999,0.16 0.399997,0.24 0.639995,0.24 0.239998,0.08 0.479997,0.08 0.719995,0.08 0.399997,0 0.719994,0 1.039992,-0.16 0.319998,-0.16 0.639995,-0.32 0.799994,-0.56 0.239998,-0.24 0.399997,-0.48 0.559996,-0.7999 0.08,-0.32 0.159999,-0.72 0.159999,-1.12 0,-0.4 -0.08,-0.8 -0.159999,-1.12 -0.159999,-0.32 -0.319998,-0.56 -0.479996,-0.8 -0.239999,-0.16 -0.479997,-0.32 -0.799995,-0.48 -0.239998,-0.08 -0.559995,-0.16 -0.879993,-0.16 z m 8.479937,0 c -0.399997,0 -0.799994,0.08 -1.119992,0.16 -0.319997,0.16 -0.559995,0.32 -0.799994,0.56 -0.239998,0.24 -0.399997,0.48 -0.559995,0.8 -0.08,0.32 -0.159999,0.72 -0.159999,1.04 0,0.48 0.08,0.8 0.159999,1.12 0.159998,0.3199 0.319997,0.6399 0.559995,0.8799 0.239999,0.24 0.479997,0.4 0.799994,0.48 0.319998,0.16 0.719995,0.16 1.119992,0.16 0.399997,0 0.799994,0 1.199991,-0.08 0.319998,-0.16 0.639996,-0.24 0.959993,-0.4 v -0.9599 c -0.159999,0.08 -0.319997,0.1599 -0.479996,0.2399 -0.159999,0.08 -0.319998,0.16 -0.559996,0.24 -0.159999,0 -0.319998,0.08 -0.479997,0.08 -0.159998,0 -0.319997,0.08 -0.399997,0.08 -0.239998,0 -0.479996,-0.08 -0.719994,-0.16 -0.159999,-0.08 -0.319998,-0.16 -0.479997,-0.24 -0.159999,-0.1599 -0.319997,-0.3199 -0.399997,-0.4799 -0.08,-0.16 -0.08,-0.4 -0.159999,-0.56 h 3.839972 v -0.56 c 0,-0.32 0,-0.72 -0.159999,-0.96 -0.08,-0.32 -0.239998,-0.56 -0.399997,-0.8 -0.239998,-0.24 -0.479996,-0.32 -0.799994,-0.48 -0.239998,-0.08 -0.559996,-0.16 -0.959993,-0.16 z m 5.999956,0 c -0.159999,0 -0.319998,0 -0.399997,0.08 -0.08,0.08 -0.239999,0.16 -0.319998,0.24 -0.08,0.08 -0.159999,0.24 -0.239998,0.32 0,0.08 -0.08,0.24 -0.159999,0.32 0,-0.08 0,-0.16 -0.08,-0.24 0,-0.08 0,-0.16 0,-0.24 0,-0.08 -0.08,-0.16 -0.08,-0.24 0,0 0,-0.08 -0.08,-0.16 h -0.959993 c 0,0.08 0,0.24 0.08,0.32 0,0.16 0,0.32 0.08,0.4 0,0.16 0,0.32 0,0.56 0,0.16 0,0.32 0,0.4 v 3.3599 h 1.199991 v -2.8799 c 0,-0.16 0,-0.32 0.08,-0.48 0,-0.16 0,-0.24 0.08,-0.4 0.08,-0.08 0.159998,-0.16 0.239998,-0.24 0.159999,-0.08 0.319998,-0.08 0.399997,-0.08 0.159999,0 0.319998,0 0.479996,0 0.159999,0 0.319998,0.08 0.399997,0.08 v -0.96 c -0.08,-0.08 -0.239998,-0.08 -0.319997,-0.08 -0.159999,-0.08 -0.319998,-0.08 -0.399997,-0.08 z m 3.359975,0 c -0.239998,0 -0.479997,0 -0.719995,0.08 -0.159999,0.08 -0.399997,0.16 -0.559996,0.32 -0.159998,0.16 -0.319997,0.32 -0.399997,0.48 -0.08,0.16 -0.159999,0.4 -0.159999,0.56 0,0.24 0.08,0.4 0.08,0.48 0.08,0.16 0.159999,0.32 0.239998,0.4 0.08,0.16 0.239998,0.24 0.399997,0.4 0.159999,0.08 0.399997,0.16 0.639995,0.24 0.239999,0.08 0.399997,0.16 0.479997,0.24 0.159999,0 0.239998,0.08 0.319997,0.16 0,0.08 0.08,0.08 0.08,0.16 0.08,0.08 0.08,0.16 0.08,0.24 0,0.1599 -0.08,0.3199 -0.239998,0.3999 -0.08,0.16 -0.239998,0.16 -0.559996,0.16 -0.08,0 -0.239998,0 -0.319997,0 -0.159999,-0.08 -0.319998,-0.08 -0.399997,-0.16 -0.159999,0 -0.319998,-0.08 -0.399997,-0.16 -0.159999,-0.08 -0.239999,-0.1599 -0.399998,-0.2399 v 1.0399 c 0.239999,0.16 0.479997,0.24 0.719995,0.32 0.239998,0.08 0.559996,0.08 0.879994,0.08 0.319997,0 0.559995,0 0.799994,-0.08 0.239998,-0.08 0.399997,-0.16 0.559996,-0.32 0.159998,-0.16 0.239998,-0.32 0.319997,-0.48 0.08,-0.16 0.159999,-0.4 0.159999,-0.6399 0,-0.16 -0.08,-0.32 -0.08,-0.48 -0.08,-0.16 -0.159999,-0.32 -0.319998,-0.4 -0.08,-0.16 -0.239998,-0.24 -0.399997,-0.32 -0.159999,-0.08 -0.399997,-0.24 -0.639995,-0.32 -0.159999,0 -0.319998,-0.08 -0.399997,-0.16 -0.159999,-0.08 -0.239999,-0.08 -0.319998,-0.16 -0.08,-0.08 -0.08,-0.16 -0.159999,-0.16 0,-0.08 0,-0.16 0,-0.24 0,-0.16 0.08,-0.24 0.159999,-0.4 0.159999,-0.08 0.319998,-0.16 0.639995,-0.16 0.159999,0 0.399997,0.08 0.639996,0.08 0.239998,0.08 0.399997,0.16 0.639995,0.24 v -0.88 c -0.239998,-0.16 -0.479997,-0.24 -0.639995,-0.24 -0.239999,-0.08 -0.479997,-0.08 -0.719995,-0.08 z m -18.079866,0.88 c 0.239998,0 0.399997,0.08 0.559996,0.16 0.159998,0.08 0.319997,0.16 0.399997,0.32 0.159998,0.16 0.239998,0.32 0.319997,0.48 0.08,0.24 0.08,0.48 0.08,0.72 0,0.32 0,0.56 -0.08,0.8 -0.08,0.16 -0.159999,0.4 -0.319997,0.5599 -0.159999,0.16 -0.319998,0.24 -0.479997,0.32 -0.239998,0.08 -0.479996,0.16 -0.719994,0.16 -0.159999,0 -0.239999,0 -0.399997,-0.08 -0.08,0 -0.159999,0 -0.319998,-0.08 -0.08,0 -0.159999,-0.08 -0.239998,-0.08 -0.08,-0.08 -0.08,-0.08 -0.159999,-0.16 v -2.5599 c 0.08,0 0.159999,-0.08 0.239998,-0.16 0.08,-0.08 0.239998,-0.16 0.319998,-0.24 0.08,0 0.239998,-0.08 0.399997,-0.08 0.08,-0.08 0.239998,-0.08 0.399997,-0.08 z m 8.719935,0 c 0.319998,0 0.639995,0.16 0.799994,0.32 0.239998,0.24 0.319998,0.48 0.399997,0.88 h -2.63998 c 0.08,-0.4 0.239998,-0.64 0.479996,-0.88 0.239999,-0.16 0.559996,-0.32 0.959993,-0.32 z m -23.759824,1.92 h 0.399997 c 0.08,0 0.159999,0 0.319998,0 v 0.96 c -0.239998,0.2399 -0.399997,0.3199 -0.639995,0.4799 -0.239999,0.08 -0.479997,0.08 -0.719995,0.08 -0.239998,0 -0.399997,0 -0.559996,-0.16 -0.08,-0.16 -0.159999,-0.3199 -0.159999,-0.4799 0,-0.16 0,-0.24 0.08,-0.32 0,-0.16 0.08,-0.24 0.239999,-0.32 0.08,-0.08 0.239998,-0.16 0.399997,-0.16 0.159998,-0.08 0.399997,-0.08 0.639994,-0.08 z"
         style="fill:#8d5fd3;fill-opacity:1;fill-rule:nonzero;stroke:none"
         inkscape:connector-curvature="0" />
    </g>
  </g>
</svg>
