<?xml version="1.0" encoding="UTF-8" standalone="no"?>
<!-- Created with Inkscape (http://www.inkscape.org/) -->

<svg
   xmlns:dc="http://purl.org/dc/elements/1.1/"
   xmlns:cc="http://creativecommons.org/ns#"
   xmlns:rdf="http://www.w3.org/1999/02/22-rdf-syntax-ns#"
   xmlns:svg="http://www.w3.org/2000/svg"
   xmlns="http://www.w3.org/2000/svg"
   xmlns:xlink="http://www.w3.org/1999/xlink"
   xmlns:sodipodi="http://sodipodi.sourceforge.net/DTD/sodipodi-0.dtd"
   xmlns:inkscape="http://www.inkscape.org/namespaces/inkscape"
   width="60"
   height="30"
   viewBox="0 0 60 30"
   id="svg2"
   version="1.1"
   inkscape:version="0.91 r13725"
   sodipodi:docname="tab_longwaves2.svg">
  <defs
     id="defs4">
    <linearGradient
       id="linearGradient5613"
       inkscape:collect="always">
      <stop
         id="stop5615"
         offset="0"
         style="stop-color:#0d011e;stop-opacity:1" />
      <stop
         id="stop5617"
         offset="1"
         style="stop-color:#000000;stop-opacity:1" />
    </linearGradient>
    <inkscape:perspective
       id="perspective2840"
       inkscape:persp3d-origin="372.04724 : 350.78739 : 1"
       inkscape:vp_z="744.09448 : 526.18109 : 1"
       inkscape:vp_y="0 : 1000 : 0"
       inkscape:vp_x="0 : 526.18109 : 1"
       sodipodi:type="inkscape:persp3d" />
    <inkscape:perspective
       id="perspective2840-1"
       inkscape:persp3d-origin="372.04724 : 350.78739 : 1"
       inkscape:vp_z="744.09448 : 526.18109 : 1"
       inkscape:vp_y="0 : 1000 : 0"
       inkscape:vp_x="0 : 526.18109 : 1"
       sodipodi:type="inkscape:persp3d" />
    <radialGradient
       inkscape:collect="always"
       xlink:href="#linearGradient5613"
       id="radialGradient5497-4"
       cx="30.078903"
       cy="1018.9943"
       fx="30.078903"
       fy="1018.9943"
       r="22.454525"
       gradientTransform="matrix(1.2566991,-5.859816e-8,-1.1509721e-7,0.46345299,-9.0465934,564.83296)"
       gradientUnits="userSpaceOnUse" />
    <pattern
       y="0"
       x="0"
       height="6"
       width="6"
       patternUnits="userSpaceOnUse"
       id="EMFhbasepattern" />
  </defs>
  <sodipodi:namedview
     id="base"
     pagecolor="#ffffff"
     bordercolor="#666666"
     borderopacity="1.0"
     inkscape:pageopacity="0.0"
     inkscape:pageshadow="2"
     inkscape:zoom="10.572439"
     inkscape:cx="55.137837"
     inkscape:cy="16.534357"
     inkscape:document-units="px"
     inkscape:current-layer="g5160"
     showgrid="false"
     units="px"
     inkscape:window-width="1920"
     inkscape:window-height="1028"
     inkscape:window-x="-8"
     inkscape:window-y="-8"
     inkscape:window-maximized="1"
     objecttolerance="10"
     guidetolerance="9" />
  <metadata
     id="metadata7">
    <rdf:RDF>
      <cc:Work
         rdf:about="">
        <dc:format>image/svg+xml</dc:format>
        <dc:type
           rdf:resource="http://purl.org/dc/dcmitype/StillImage" />
        <dc:title></dc:title>
        <dc:creator>
          <cc:Agent>
            <dc:title>Jorge Rosa</dc:title>
          </cc:Agent>
        </dc:creator>
        <dc:description>Email: jorge.bigarte@gmail.com
Site:https://sites.google.com/site/jorgerosaportfolio</dc:description>
      </cc:Work>
    </rdf:RDF>
  </metadata>
  <g
     inkscape:label="Layer 1"
     inkscape:groupmode="layer"
     id="layer1"
     transform="translate(0,-1022.3622)">
    <text
       xml:space="preserve"
       style="font-style:normal;font-weight:normal;font-size:7.3307333px;line-height:125%;font-family:sans-serif;letter-spacing:0px;word-spacing:0px;opacity:0.1;fill:#ececec;fill-opacity:1;stroke:none;stroke-width:1px;stroke-linecap:butt;stroke-linejoin:miter;stroke-opacity:1"
       x="-64.373627"
       y="823.29761"
       id="text6116-5"
       sodipodi:linespacing="125%"
       transform="scale(1.0112873,0.98883868)"><tspan
         sodipodi:role="line"
         id="tspan6118-8"
         x="-64.373627"
         y="823.29761"
         style="font-style:normal;font-variant:normal;font-weight:normal;font-stretch:normal;font-family:Digital;-inkscape-font-specification:Digital;fill:#ececec">8888888888888888888888888888888888888888888888888888888888888888888888888</tspan></text>
    <g
       id="g5160">
      <path
         style="opacity:1;fill:url(#radialGradient5497-4);fill-opacity:1;stroke:none;stroke-width:1.45692945;stroke-linecap:round;stroke-linejoin:round;stroke-miterlimit:4;stroke-dasharray:none;stroke-dashoffset:0;stroke-opacity:1"
         d="m 2.5000001,1048.1965 0,-21.6686 54.9999999,0 0,21.6686 z"
         id="rect5489-1"
         inkscape:connector-curvature="0" />
      <g
         style="font-style:normal;font-variant:normal;font-weight:normal;font-stretch:normal;font-size:12.37029076px;line-height:100%;font-family:'Estrangelo Edessa';-inkscape-font-specification:'Estrangelo Edessa, Normal';text-align:start;letter-spacing:0px;word-spacing:0px;writing-mode:lr-tb;text-anchor:start;fill:#8d5fd3;fill-opacity:1;stroke:none;stroke-width:1px;stroke-linecap:butt;stroke-linejoin:miter;stroke-opacity:1"
         id="text4159-9" />
      <g
         style="font-style:normal;font-variant:normal;font-weight:normal;font-stretch:normal;font-size:12.37029076px;line-height:100%;font-family:'Estrangelo Edessa';-inkscape-font-specification:'Estrangelo Edessa, Normal';text-align:start;letter-spacing:0px;word-spacing:0px;writing-mode:lr-tb;text-anchor:start;fill:#8d5fd3;fill-opacity:1;stroke:none;stroke-width:1px;stroke-linecap:butt;stroke-linejoin:miter;stroke-opacity:1"
         id="text4159-4-4"
         transform="translate(-20.000001,-1.5e-4)">
        <path
           d="m 36.074362,1033.4512 -2.476474,7.816 -1.159715,0 -1.908697,-5.5147 q -0.06644,-0.2174 -0.114763,-0.3986 -0.04228,-0.1873 -0.05436,-0.3806 l -0.02416,0 q -0.0604,0.3806 -0.175165,0.7671 l -1.769773,5.5268 -1.159715,0 -2.548956,-7.816 1.195956,0 1.781853,5.5872 q 0.0604,0.1872 0.102683,0.3805 0.04228,0.1873 0.0604,0.3987 l 0.02416,0 q 0.01812,-0.139 0.06644,-0.3322 0.05436,-0.1933 0.120803,-0.447 l 1.793934,-5.5872 1.075152,0 1.914738,5.6536 q 0.04832,0.1631 0.09664,0.3383 0.04832,0.1691 0.06644,0.3745 l 0.01208,0 q 0.01812,-0.139 0.06644,-0.3202 0.05436,-0.1872 0.120804,-0.4167 l 1.703331,-5.6295 1.189915,0 z"
           id="path4233"
           inkscape:connector-curvature="0" />
        <path
           d="m 39.99444,1038.9901 q -0.138924,-0.012 -0.308049,-0.018 -0.169125,-0.01 -0.356371,-0.01 -0.404692,0 -0.66442,0.072 -0.259728,0.072 -0.410732,0.1933 -0.151005,0.1208 -0.211407,0.2718 -0.0604,0.151 -0.0604,0.3141 0,0.308 0.181205,0.5013 0.187246,0.1933 0.519456,0.1933 0.33825,0 0.68858,-0.151 0.350331,-0.151 0.622139,-0.4047 l 0,-0.9664 z m 1.117433,2.3858 q -0.223486,0 -0.392611,-0.048 -0.169126,-0.042 -0.289929,-0.1208 -0.120804,-0.085 -0.205366,-0.1993 -0.07852,-0.1148 -0.126844,-0.2597 -0.289929,0.2657 -0.682541,0.4469 -0.392611,0.1812 -0.936228,0.1812 -0.422812,0 -0.742942,-0.1147 -0.314089,-0.1148 -0.525496,-0.3202 -0.205366,-0.2053 -0.314089,-0.4771 -0.102683,-0.2779 -0.102683,-0.6041 0,-0.8093 0.616098,-1.2382 0.622139,-0.4349 1.836215,-0.4349 0.181206,0 0.356371,0.012 0.181205,0.01 0.392612,0.024 0,-0.5497 -0.229527,-0.8396 -0.229527,-0.296 -0.755023,-0.296 -0.374491,0 -0.767103,0.097 -0.386571,0.091 -0.767103,0.2477 l 0,-0.9 q 0.33221,-0.157 0.755023,-0.2476 0.428853,-0.091 0.827505,-0.091 0.513415,0 0.906027,0.1026 0.392612,0.097 0.65838,0.3323 0.265768,0.2295 0.398652,0.61 0.138924,0.3805 0.138924,0.9362 l 0,1.9148 q 0,0.2174 0.108723,0.3201 0.114763,0.1027 0.235567,0.1027 0.120804,0 0.223487,-0.01 0.102683,-0.012 0.235567,-0.042 l 0,0.6946 q -0.151005,0.1087 -0.374491,0.1631 -0.217447,0.054 -0.477175,0.054 z"
           id="path4235"
           inkscape:connector-curvature="0" />
        <path
           d="m 47.266817,1036.3082 -2.210706,4.959 -0.906027,0 -2.01742,-4.959 1.189915,0 1.111394,2.9899 q 0.06644,0.1691 0.120803,0.3503 0.05436,0.1812 0.102683,0.3685 0.0302,-0.097 0.0604,-0.2054 0.03624,-0.1087 0.07248,-0.2053 0.03624,-0.1027 0.06644,-0.1812 0.0302,-0.085 0.04832,-0.139 0.132884,-0.3503 0.277848,-0.7308 0.151005,-0.3806 0.302009,-0.7611 0.157045,-0.3866 0.308049,-0.7611 0.157045,-0.3805 0.302009,-0.7248 l 1.171795,0 z"
           id="path4237"
           inkscape:connector-curvature="0" />
        <path
           d="m 50.480195,1037.0995 q -0.579858,0 -0.948309,0.296 -0.362411,0.2899 -0.483214,0.8516 l 2.621438,0 q -0.0302,-0.5617 -0.33825,-0.8516 -0.308049,-0.296 -0.851665,-0.296 z m -2.585198,1.655 q 0,-0.5738 0.187246,-1.045 0.187245,-0.4771 0.525496,-0.8093 0.34429,-0.3383 0.821464,-0.5195 0.477174,-0.1872 1.063072,-0.1872 0.573817,0 1.00267,0.1691 0.434893,0.1631 0.730862,0.4711 0.295969,0.3081 0.440933,0.755 0.151005,0.447 0.151005,1.0088 l 0,0.4952 -3.793234,0 q 0.0302,0.3081 0.157045,0.5739 0.132884,0.2597 0.35033,0.4469 0.223487,0.1873 0.519456,0.296 0.302009,0.1027 0.66442,0.1027 0.211406,0 0.446973,-0.036 0.241607,-0.042 0.489255,-0.1147 0.253687,-0.079 0.501335,-0.1873 0.253687,-0.1087 0.483214,-0.2536 l 0,0.912 q -0.459053,0.2597 -0.972469,0.4047 -0.507375,0.1389 -1.159715,0.1389 -0.604018,0 -1.087232,-0.1751 -0.483215,-0.1812 -0.821465,-0.5195 -0.33825,-0.3382 -0.519455,-0.8215 -0.181206,-0.4892 -0.181206,-1.1053 z"
           id="path4239"
           inkscape:connector-curvature="0" />
        <path
           d="m 57.263316,1039.8719 q 0,0.3202 -0.114763,0.598 -0.108723,0.2718 -0.33825,0.4772 -0.223487,0.1993 -0.567777,0.3141 -0.33825,0.1147 -0.797304,0.1147 -0.446973,0 -0.845625,-0.1087 -0.398652,-0.1148 -0.676501,-0.3201 l 0,-1.0027 q 0.157045,0.1087 0.344291,0.2114 0.193285,0.1027 0.392611,0.1812 0.199326,0.072 0.392612,0.1208 0.193286,0.042 0.356371,0.042 0.392612,0 0.573817,-0.1691 0.181205,-0.1691 0.181205,-0.4107 0,-0.1269 -0.03624,-0.2235 -0.03624,-0.1027 -0.138924,-0.1873 -0.09664,-0.091 -0.277848,-0.1751 -0.175165,-0.085 -0.453014,-0.1813 -0.380531,-0.1389 -0.640259,-0.2899 -0.253687,-0.157 -0.410732,-0.3382 -0.151005,-0.1873 -0.217447,-0.3987 -0.06644,-0.2174 -0.06644,-0.4711 0,-0.3262 0.138924,-0.592 0.144965,-0.2718 0.386572,-0.465 0.247647,-0.1933 0.573817,-0.296 0.33221,-0.1087 0.706701,-0.1087 0.338251,0 0.66442,0.066 0.32617,0.066 0.634219,0.2295 l 0,0.9061 q -0.295969,-0.1329 -0.628178,-0.2175 -0.32617,-0.091 -0.6463,-0.091 -0.374491,0 -0.567777,0.1571 -0.187245,0.157 -0.187245,0.3986 0,0.1027 0.03624,0.1933 0.04228,0.091 0.138924,0.1752 0.09664,0.084 0.265768,0.1751 0.169125,0.085 0.428853,0.1752 0.36241,0.1268 0.622138,0.2718 0.265768,0.1389 0.434893,0.3141 0.175166,0.1751 0.253688,0.4047 0.08456,0.2235 0.08456,0.5194 z"
           id="path4241"
           inkscape:connector-curvature="0" />
        <path
           d="m 62.204185,1037.4438 q 0,0.6584 0.187246,1.202 0.193286,0.5375 0.537576,0.9241 0.35033,0.3866 0.833545,0.598 0.489255,0.2114 1.081192,0.2114 0.549657,0 1.087233,-0.145 0.543616,-0.1449 1.038911,-0.4167 l 0,1.0691 q -0.453014,0.2416 -1.01475,0.3684 -0.561737,0.1208 -1.226157,0.1208 -0.827505,0 -1.522126,-0.2899 -0.68858,-0.2899 -1.189915,-0.8094 -0.495295,-0.5194 -0.773144,-1.2382 -0.271808,-0.7248 -0.271808,-1.5946 0,-0.894 0.295969,-1.643 0.295969,-0.755 0.815425,-1.2986 0.525495,-0.5436 1.238237,-0.8456 0.718781,-0.3081 1.558366,-0.3081 0.283889,0 0.573818,0.036 0.289928,0.03 0.567777,0.091 0.277848,0.054 0.525495,0.1329 0.253688,0.072 0.459054,0.163 l 0,1.0631 q -0.211406,-0.091 -0.471134,-0.1812 -0.259728,-0.091 -0.537576,-0.157 -0.277848,-0.072 -0.567777,-0.1148 -0.289929,-0.042 -0.561737,-0.042 -0.567777,0 -1.057032,0.2235 -0.483214,0.2175 -0.839585,0.6221 -0.356371,0.4047 -0.561737,0.9786 -0.205366,0.5738 -0.205366,1.2805 z"
           id="path4243"
           inkscape:connector-curvature="0" />
        <path
           d="m 74.091261,1037.2203 q 0,-0.7188 -0.229526,-1.2382 -0.223487,-0.5195 -0.6463,-0.8578 -0.416772,-0.3382 -1.026831,-0.4952 -0.604018,-0.1631 -1.365081,-0.1631 l -0.924147,0 0,5.7985 0.815424,0 q 0.773143,0 1.395282,-0.2114 0.628179,-0.2174 1.069112,-0.61 0.440933,-0.3987 0.6765,-0.9604 0.235567,-0.5678 0.235567,-1.2624 z m 1.226157,-0.012 q 0,0.9121 -0.33825,1.6611 -0.33221,0.7489 -0.936228,1.2865 -0.604018,0.5316 -1.443603,0.8215 -0.839585,0.2899 -1.848296,0.2899 l -2.041581,0 0,-7.816 2.138224,0 q 1.063072,0 1.890577,0.2416 0.833545,0.2356 1.407362,0.7128 0.573817,0.4711 0.869786,1.1778 0.302009,0.7007 0.302009,1.6248 z"
           id="path4245"
           inkscape:connector-curvature="0" />
      </g>
    </g>
  </g>
</svg>
