<?xml version="1.0" encoding="UTF-8" standalone="no"?>
<!-- Created with Inkscape (http://www.inkscape.org/) -->

<svg
   xmlns:dc="http://purl.org/dc/elements/1.1/"
   xmlns:cc="http://creativecommons.org/ns#"
   xmlns:rdf="http://www.w3.org/1999/02/22-rdf-syntax-ns#"
   xmlns:svg="http://www.w3.org/2000/svg"
   xmlns="http://www.w3.org/2000/svg"
   xmlns:xlink="http://www.w3.org/1999/xlink"
   xmlns:sodipodi="http://sodipodi.sourceforge.net/DTD/sodipodi-0.dtd"
   xmlns:inkscape="http://www.inkscape.org/namespaces/inkscape"
   width="60"
   height="30"
   viewBox="0 0 60 30"
   id="svg2"
   version="1.1"
   inkscape:version="0.91 r13725"
   sodipodi:docname="tab_miniplayer2_over.svg">
  <defs
     id="defs4">
    <inkscape:perspective
       id="perspective2840"
       inkscape:persp3d-origin="372.04724 : 350.78739 : 1"
       inkscape:vp_z="744.09448 : 526.18109 : 1"
       inkscape:vp_y="0 : 1000 : 0"
       inkscape:vp_x="0 : 526.18109 : 1"
       sodipodi:type="inkscape:persp3d" />
    <inkscape:perspective
       id="perspective2840-1"
       inkscape:persp3d-origin="372.04724 : 350.78739 : 1"
       inkscape:vp_z="744.09448 : 526.18109 : 1"
       inkscape:vp_y="0 : 1000 : 0"
       inkscape:vp_x="0 : 526.18109 : 1"
       sodipodi:type="inkscape:persp3d" />
    <pattern
       y="0"
       x="0"
       height="6"
       width="6"
       patternUnits="userSpaceOnUse"
       id="EMFhbasepattern" />
    <radialGradient
       inkscape:collect="always"
       xlink:href="#linearGradient4226"
       id="radialGradient5497"
       cx="30.078903"
       cy="1018.9943"
       fx="30.078903"
       fy="1018.9943"
       r="22.454525"
       gradientTransform="matrix(2.7286229,-1.7021667e-7,-6.9869432e-7,0.76130842,-53.319848,261.32)"
       gradientUnits="userSpaceOnUse" />
    <linearGradient
       inkscape:collect="always"
       id="linearGradient4226">
      <stop
         style="stop-color:#553289;stop-opacity:1"
         offset="0"
         id="stop4228" />
      <stop
         style="stop-color:#000000;stop-opacity:1"
         offset="1"
         id="stop4230" />
    </linearGradient>
  </defs>
  <sodipodi:namedview
     id="base"
     pagecolor="#ffffff"
     bordercolor="#666666"
     borderopacity="1.0"
     inkscape:pageopacity="0.0"
     inkscape:pageshadow="2"
     inkscape:zoom="7.4758433"
     inkscape:cx="36.719691"
     inkscape:cy="11.181494"
     inkscape:document-units="px"
     inkscape:current-layer="g4257"
     showgrid="false"
     units="px"
     inkscape:window-width="1920"
     inkscape:window-height="1028"
     inkscape:window-x="-8"
     inkscape:window-y="-8"
     inkscape:window-maximized="1"
     objecttolerance="10"
     guidetolerance="9" />
  <metadata
     id="metadata7">
    <rdf:RDF>
      <cc:Work
         rdf:about="">
        <dc:format>image/svg+xml</dc:format>
        <dc:type
           rdf:resource="http://purl.org/dc/dcmitype/StillImage" />
        <dc:title></dc:title>
        <dc:creator>
          <cc:Agent>
            <dc:title>Jorge Rosa</dc:title>
          </cc:Agent>
        </dc:creator>
        <dc:description>Email: jorge.bigarte@gmail.com
Site:https://sites.google.com/site/jorgerosaportfolio</dc:description>
      </cc:Work>
    </rdf:RDF>
  </metadata>
  <g
     inkscape:label="Layer 1"
     inkscape:groupmode="layer"
     id="layer1"
     transform="translate(0,-1022.3622)">
    <text
       xml:space="preserve"
       style="font-style:normal;font-weight:normal;font-size:7.3307333px;line-height:125%;font-family:sans-serif;letter-spacing:0px;word-spacing:0px;opacity:0.1;fill:#ececec;fill-opacity:1;stroke:none;stroke-width:1px;stroke-linecap:butt;stroke-linejoin:miter;stroke-opacity:1"
       x="-64.373627"
       y="823.29761"
       id="text6116-5"
       sodipodi:linespacing="125%"
       transform="scale(1.0112873,0.98883868)"><tspan
         sodipodi:role="line"
         id="tspan6118-8"
         x="-64.373627"
         y="823.29761"
         style="font-style:normal;font-variant:normal;font-weight:normal;font-stretch:normal;font-family:Digital;-inkscape-font-specification:Digital;fill:#ececec">8888888888888888888888888888888888888888888888888888888888888888888888888</tspan></text>
    <g
       id="g5160">
      <g
         id="g4257">
        <path
           inkscape:connector-curvature="0"
           id="rect5489"
           d="m 2.5,1048.1965 0,-21.6685 55,0 0,21.6685 z"
           style="opacity:1;fill:url(#radialGradient5497);fill-opacity:1;stroke:none;stroke-width:1.45692945;stroke-linecap:round;stroke-linejoin:round;stroke-miterlimit:4;stroke-dasharray:none;stroke-dashoffset:0;stroke-opacity:1" />
      </g>
      <g
         style="font-style:normal;font-variant:normal;font-weight:normal;font-stretch:normal;font-size:12.33656883px;line-height:100%;font-family:'Estrangelo Edessa';-inkscape-font-specification:'Estrangelo Edessa, Normal';text-align:start;letter-spacing:0px;word-spacing:0px;writing-mode:lr-tb;text-anchor:start;fill:#e5d5ff;fill-opacity:1;stroke:none;stroke-width:1px;stroke-linecap:butt;stroke-linejoin:miter;stroke-opacity:1"
         id="text4160"
         transform="translate(-20.000039,-5e-5)">
        <path
           d="m 38.853115,1041.2566 -1.096316,0 -0.246973,-5.0961 q -0.006,-0.072 -0.01205,-0.1988 0,-0.1265 -0.006,-0.265 0,-0.1446 -0.006,-0.2831 0,-0.1386 0,-0.2289 -0.03614,0.1385 -0.08433,0.2951 -0.04217,0.1506 -0.08433,0.2892 -0.04217,0.1325 -0.07831,0.2409 -0.03012,0.1024 -0.04819,0.1506 l -1.963731,5.0961 -1.060174,0 -1.999873,-5.0961 q -0.0241,-0.06 -0.06626,-0.1626 -0.03614,-0.1084 -0.07831,-0.241 -0.04217,-0.1385 -0.09036,-0.2831 -0.04217,-0.1506 -0.07229,-0.2891 0,0.1024 -0.006,0.2409 0,0.1326 -0.006,0.2771 -0.006,0.1446 -0.01205,0.2831 -0.006,0.1326 -0.01205,0.235 l -0.32528,5.0358 -1.096317,0 0.542135,-7.7947 1.271004,0 2.246845,5.7466 q 0.03012,0.084 0.06626,0.1988 0.03614,0.1084 0.06626,0.2289 0.03012,0.1205 0.05421,0.241 0.03012,0.1204 0.04819,0.2168 0.01807,-0.096 0.04819,-0.2229 0.03012,-0.1265 0.06024,-0.253 0.03614,-0.1265 0.07229,-0.2409 0.03614,-0.1145 0.06626,-0.1928 l 2.234798,-5.7225 1.319194,0 0.355399,7.7947 z"
           id="path4170"
           inkscape:connector-curvature="0" />
        <path
           d="m 42.063756,1034.9016 q 0,0.1445 -0.06024,0.259 -0.06024,0.1144 -0.16264,0.1988 -0.09638,0.078 -0.228901,0.1204 -0.132522,0.042 -0.277091,0.042 -0.301186,0 -0.512016,-0.1566 -0.204806,-0.1626 -0.204806,-0.4638 0,-0.2892 0.204806,-0.4518 0.21083,-0.1626 0.512016,-0.1626 0.144569,0 0.277091,0.042 0.132522,0.042 0.228901,0.1265 0.102403,0.078 0.16264,0.1928 0.06024,0.1084 0.06024,0.253 z m -0.162641,6.355 -1.156553,0 0,-4.9455 1.156553,0 0,4.9455 z"
           id="path4172"
           inkscape:connector-curvature="0" />
        <path
           d="m 48.219993,1041.2566 -1.162577,0 0,-3.0601 q 0,-0.524 -0.216854,-0.8011 -0.21083,-0.2831 -0.644537,-0.2831 -0.192759,0 -0.379494,0.048 -0.180712,0.048 -0.343352,0.1325 -0.162641,0.078 -0.30721,0.1807 -0.138545,0.096 -0.252996,0.2048 l 0,3.5781 -1.156553,0 0,-4.9455 1.120411,0 0.03614,0.494 q 0.126498,-0.1205 0.283115,-0.2289 0.156616,-0.1085 0.343352,-0.1928 0.192759,-0.084 0.409612,-0.1325 0.222878,-0.054 0.46985,-0.054 0.921628,0 1.36136,0.4939 0.439731,0.494 0.439731,1.4337 l 0,3.1323 z"
           id="path4174"
           inkscape:connector-curvature="0" />
        <path
           d="m 51.292086,1034.9016 q 0,0.1445 -0.06024,0.259 -0.06024,0.1144 -0.16264,0.1988 -0.09638,0.078 -0.228901,0.1204 -0.132522,0.042 -0.277091,0.042 -0.301186,0 -0.512016,-0.1566 -0.204806,-0.1626 -0.204806,-0.4638 0,-0.2892 0.204806,-0.4518 0.21083,-0.1626 0.512016,-0.1626 0.144569,0 0.277091,0.042 0.132521,0.042 0.228901,0.1265 0.102403,0.078 0.16264,0.1928 0.06024,0.1084 0.06024,0.253 z m -0.16264,6.355 -1.156553,0 0,-4.9455 1.156553,0 0,4.9455 z"
           id="path4176"
           inkscape:connector-curvature="0" />
        <path
           d="m 56.520672,1037.4436 q 0,0.6566 0.186735,1.1987 0.192759,0.5361 0.536111,0.9216 0.349376,0.3855 0.831273,0.5964 0.487921,0.2108 1.078245,0.2108 0.548158,0 1.084269,-0.1446 0.542134,-0.1445 1.036079,-0.4156 l 0,1.0662 q -0.451779,0.2409 -1.011985,0.3674 -0.560205,0.1205 -1.222814,0.1205 -0.825249,0 -1.517976,-0.2891 -0.686704,-0.2892 -1.186672,-0.8072 -0.493945,-0.518 -0.771035,-1.2349 -0.271068,-0.7228 -0.271068,-1.5902 0,-0.8915 0.295162,-1.6385 0.295162,-0.7529 0.813202,-1.2951 0.524063,-0.5421 1.234862,-0.8433 0.716822,-0.3072 1.554118,-0.3072 0.283115,0 0.572253,0.036 0.289138,0.03 0.566229,0.09 0.277091,0.054 0.524064,0.1325 0.252996,0.072 0.457802,0.1627 l 0,1.0601 q -0.21083,-0.09 -0.46985,-0.1807 -0.25902,-0.09 -0.536111,-0.1566 -0.27709,-0.072 -0.566229,-0.1144 -0.289138,-0.042 -0.560205,-0.042 -0.56623,0 -1.05415,0.2229 -0.481898,0.2168 -0.837297,0.6204 -0.355399,0.4036 -0.560205,0.9759 -0.204807,0.5722 -0.204807,1.277 z"
           id="path4178"
           inkscape:connector-curvature="0" />
        <path
           d="m 68.375343,1037.2207 q 0,-0.7168 -0.228901,-1.2349 -0.222878,-0.518 -0.644538,-0.8553 -0.415636,-0.3374 -1.024031,-0.494 -0.602372,-0.1626 -1.36136,-0.1626 l -0.921628,0 0,5.7828 0.813201,0 q 0.771036,0 1.391478,-0.2109 0.626467,-0.2168 1.066198,-0.6084 0.439731,-0.3975 0.674656,-0.9577 0.234925,-0.5663 0.234925,-1.259 z m 1.222814,-0.012 q 0,0.9095 -0.337328,1.6565 -0.331304,0.7469 -0.933676,1.283 -0.602371,0.5301 -1.439668,0.8193 -0.837296,0.2891 -1.843257,0.2891 l -2.036015,0 0,-7.7947 2.132395,0 q 1.060174,0 1.885423,0.241 0.831272,0.2349 1.403525,0.7108 0.572253,0.4698 0.867415,1.1746 0.301186,0.6987 0.301186,1.6204 z"
           id="path4180"
           inkscape:connector-curvature="0" />
      </g>
    </g>
  </g>
</svg>
