<?xml version="1.0" encoding="UTF-8" standalone="no"?>
<!-- Created with Inkscape (http://www.inkscape.org/) -->

<svg
   xmlns:dc="http://purl.org/dc/elements/1.1/"
   xmlns:cc="http://creativecommons.org/ns#"
   xmlns:rdf="http://www.w3.org/1999/02/22-rdf-syntax-ns#"
   xmlns:svg="http://www.w3.org/2000/svg"
   xmlns="http://www.w3.org/2000/svg"
   xmlns:xlink="http://www.w3.org/1999/xlink"
   xmlns:sodipodi="http://sodipodi.sourceforge.net/DTD/sodipodi-0.dtd"
   xmlns:inkscape="http://www.inkscape.org/namespaces/inkscape"
   width="60"
   height="30"
   viewBox="0 0 60 30"
   id="svg2"
   version="1.1"
   inkscape:version="0.91 r13725"
   sodipodi:docname="tab_effects2_over.svg">
  <defs
     id="defs4">
    <inkscape:perspective
       id="perspective2840"
       inkscape:persp3d-origin="372.04724 : 350.78739 : 1"
       inkscape:vp_z="744.09448 : 526.18109 : 1"
       inkscape:vp_y="0 : 1000 : 0"
       inkscape:vp_x="0 : 526.18109 : 1"
       sodipodi:type="inkscape:persp3d" />
    <inkscape:perspective
       id="perspective2840-1"
       inkscape:persp3d-origin="372.04724 : 350.78739 : 1"
       inkscape:vp_z="744.09448 : 526.18109 : 1"
       inkscape:vp_y="0 : 1000 : 0"
       inkscape:vp_x="0 : 526.18109 : 1"
       sodipodi:type="inkscape:persp3d" />
    <pattern
       y="0"
       x="0"
       height="6"
       width="6"
       patternUnits="userSpaceOnUse"
       id="EMFhbasepattern" />
    <radialGradient
       inkscape:collect="always"
       xlink:href="#linearGradient4226"
       id="radialGradient5497"
       cx="30.078903"
       cy="1018.9943"
       fx="30.078903"
       fy="1018.9943"
       r="22.454525"
       gradientTransform="matrix(2.7286229,-1.7021667e-7,-6.9869432e-7,0.76130842,-53.319848,261.32)"
       gradientUnits="userSpaceOnUse" />
    <linearGradient
       inkscape:collect="always"
       id="linearGradient4226">
      <stop
         style="stop-color:#553289;stop-opacity:1"
         offset="0"
         id="stop4228" />
      <stop
         style="stop-color:#000000;stop-opacity:1"
         offset="1"
         id="stop4230" />
    </linearGradient>
    <pattern
       y="0"
       x="0"
       height="6"
       width="6"
       patternUnits="userSpaceOnUse"
       id="EMFhbasepattern-7" />
  </defs>
  <sodipodi:namedview
     id="base"
     pagecolor="#ffffff"
     bordercolor="#666666"
     borderopacity="1.0"
     inkscape:pageopacity="0.0"
     inkscape:pageshadow="2"
     inkscape:zoom="10.572439"
     inkscape:cx="53.136714"
     inkscape:cy="18.879587"
     inkscape:document-units="px"
     inkscape:current-layer="g4257"
     showgrid="false"
     units="px"
     inkscape:window-width="1920"
     inkscape:window-height="1028"
     inkscape:window-x="-8"
     inkscape:window-y="-8"
     inkscape:window-maximized="1"
     objecttolerance="10"
     guidetolerance="9" />
  <metadata
     id="metadata7">
    <rdf:RDF>
      <cc:Work
         rdf:about="">
        <dc:format>image/svg+xml</dc:format>
        <dc:type
           rdf:resource="http://purl.org/dc/dcmitype/StillImage" />
        <dc:title></dc:title>
        <dc:creator>
          <cc:Agent>
            <dc:title>Jorge Rosa</dc:title>
          </cc:Agent>
        </dc:creator>
        <dc:description>Email: jorge.bigarte@gmail.com
Site:https://sites.google.com/site/jorgerosaportfolio</dc:description>
      </cc:Work>
    </rdf:RDF>
  </metadata>
  <g
     inkscape:label="Layer 1"
     inkscape:groupmode="layer"
     id="layer1"
     transform="translate(0,-1022.3622)">
    <text
       xml:space="preserve"
       style="font-style:normal;font-weight:normal;font-size:7.3307333px;line-height:125%;font-family:sans-serif;letter-spacing:0px;word-spacing:0px;opacity:0.1;fill:#ececec;fill-opacity:1;stroke:none;stroke-width:1px;stroke-linecap:butt;stroke-linejoin:miter;stroke-opacity:1"
       x="-64.373627"
       y="823.29761"
       id="text6116-5"
       sodipodi:linespacing="125%"
       transform="scale(1.0112873,0.98883868)"><tspan
         sodipodi:role="line"
         id="tspan6118-8"
         x="-64.373627"
         y="823.29761"
         style="font-style:normal;font-variant:normal;font-weight:normal;font-stretch:normal;font-family:Digital;-inkscape-font-specification:Digital;fill:#ececec">8888888888888888888888888888888888888888888888888888888888888888888888888</tspan></text>
    <g
       id="g5160">
      <g
         style="font-style:normal;font-variant:normal;font-weight:normal;font-stretch:normal;font-size:12.36420155px;line-height:100%;font-family:'Estrangelo Edessa';-inkscape-font-specification:'Estrangelo Edessa, Normal';text-align:start;letter-spacing:0px;word-spacing:0px;writing-mode:lr-tb;text-anchor:start;fill:#ffaaaa;fill-opacity:1;stroke:none;stroke-width:1px;stroke-linecap:butt;stroke-linejoin:miter;stroke-opacity:1"
         id="text4161-8"
         transform="translate(1.70254,39.915104)" />
      <g
         id="g4257">
        <path
           inkscape:connector-curvature="0"
           id="rect5489"
           d="m 2.5,1048.1965 0,-21.6685 55,0 0,21.6685 z"
           style="opacity:1;fill:url(#radialGradient5497);fill-opacity:1;stroke:none;stroke-width:1.45692945;stroke-linecap:round;stroke-linejoin:round;stroke-miterlimit:4;stroke-dasharray:none;stroke-dashoffset:0;stroke-opacity:1" />
      </g>
      <g
         style="font-style:normal;font-variant:normal;font-weight:normal;font-stretch:normal;font-size:12.36505032px;line-height:100%;font-family:'Estrangelo Edessa';-inkscape-font-specification:'Estrangelo Edessa, Normal';text-align:start;letter-spacing:0px;word-spacing:0px;writing-mode:lr-tb;text-anchor:start;fill:#e5d5ff;fill-opacity:1;stroke:none;stroke-width:1px;stroke-linecap:butt;stroke-linejoin:miter;stroke-opacity:1"
         id="text4158-8"
         transform="translate(-20.630932,23.22755)">
        <path
           d="m 34.441049,1018.0378 -3.906342,0 0,-7.8127 3.894267,0 0,1.0143 -2.71693,0 0,2.3728 2.729005,0 0,1.0022 -2.729005,0 0,2.4211 2.729005,0 0,1.0023 z"
           id="path4215"
           inkscape:connector-curvature="0"
           style="fill:#e5d5ff;fill-opacity:1" />
        <path
           d="m 37.616838,1013.0809 1.129036,0 0,0.7909 -1.129036,0 0,4.166 -1.159223,0 0,-4.166 -0.917719,0 0,-0.7909 0.917719,0 0,-1.0868 q 0,-0.9177 0.446784,-1.3947 0.452821,-0.4769 1.231675,-0.4769 0.138865,0 0.313956,0.03 0.175091,0.03 0.295844,0.072 l 0,0.9479 q -0.05434,-0.012 -0.132828,-0.024 -0.07849,-0.018 -0.163016,-0.024 -0.07849,-0.012 -0.15094,-0.018 -0.07245,-0.01 -0.126791,-0.01 -0.241504,0 -0.398483,0.1932 -0.156978,0.1932 -0.156978,0.6098 l 0,1.1773 z"
           id="path4217"
           inkscape:connector-curvature="0"
           style="fill:#e5d5ff;fill-opacity:1" />
        <path
           d="m 41.408465,1013.0809 1.129036,0 0,0.7909 -1.129036,0 0,4.166 -1.159223,0 0,-4.166 -0.917719,0 0,-0.7909 0.917719,0 0,-1.0868 q 0,-0.9177 0.446784,-1.3947 0.452821,-0.4769 1.231675,-0.4769 0.138865,0 0.313956,0.03 0.175091,0.03 0.295844,0.072 l 0,0.9479 q -0.05434,-0.012 -0.132828,-0.024 -0.07849,-0.018 -0.163016,-0.024 -0.07849,-0.012 -0.150941,-0.018 -0.07245,-0.01 -0.12679,-0.01 -0.241504,0 -0.398483,0.1932 -0.156978,0.1932 -0.156978,0.6098 l 0,1.1773 z"
           id="path4219"
           inkscape:connector-curvature="0"
           style="fill:#e5d5ff;fill-opacity:1" />
        <path
           d="m 45.978945,1013.8718 q -0.579611,0 -0.947906,0.2959 -0.362258,0.2898 -0.48301,0.8513 l 2.620328,0 q -0.03019,-0.5615 -0.338107,-0.8513 -0.307919,-0.2959 -0.851305,-0.2959 z m -2.584102,1.6543 q 0,-0.5735 0.187166,-1.0445 0.187167,-0.477 0.525273,-0.809 0.344145,-0.3381 0.821117,-0.5193 0.476972,-0.1871 1.062622,-0.1871 0.573574,0 1.002245,0.169 0.434709,0.163 0.730552,0.471 0.295844,0.3079 0.440747,0.7547 0.15094,0.4468 0.15094,1.0083 l 0,0.495 -3.791627,0 q 0.03019,0.308 0.156979,0.5736 0.132827,0.2596 0.350182,0.4468 0.223392,0.1872 0.519235,0.2958 0.301881,0.1027 0.664139,0.1027 0.211316,0 0.446784,-0.036 0.241505,-0.042 0.489047,-0.1148 0.25358,-0.079 0.501123,-0.1871 0.25358,-0.1087 0.48301,-0.2536 l 0,0.9117 q -0.45886,0.2596 -0.972058,0.4045 -0.50716,0.1389 -1.159223,0.1389 -0.603762,0 -1.086772,-0.1751 -0.48301,-0.1812 -0.821117,-0.5193 -0.338107,-0.3381 -0.519235,-0.8211 -0.181129,-0.489 -0.181129,-1.1049 z"
           id="path4221"
           inkscape:connector-curvature="0"
           style="fill:#e5d5ff;fill-opacity:1" />
        <path
           d="m 50.658102,1015.6167 q 0,0.4226 0.114714,0.7305 0.120753,0.3019 0.313957,0.5012 0.193204,0.1932 0.446784,0.2837 0.259618,0.091 0.531311,0.091 0.537348,0 0.947906,-0.1509 0.416596,-0.157 0.796966,-0.3804 l 0,0.9479 q -0.362257,0.2475 -0.815079,0.3804 -0.452821,0.1268 -1.038471,0.1268 -0.543386,0 -1.002245,-0.1691 -0.452822,-0.1751 -0.778853,-0.5011 -0.326032,-0.3321 -0.513198,-0.803 -0.181129,-0.471 -0.181129,-1.0687 0,-0.652 0.217355,-1.1411 0.217354,-0.4951 0.585649,-0.8271 0.368295,-0.3321 0.86338,-0.5012 0.495085,-0.169 1.044509,-0.169 0.398483,0 0.827154,0.1026 0.434709,0.097 0.790928,0.32 l 0,1.0023 q -0.38037,-0.2415 -0.78489,-0.3683 -0.398484,-0.1268 -0.833192,-0.1268 -0.307919,0 -0.591687,0.097 -0.277731,0.09 -0.489048,0.3019 -0.205279,0.2052 -0.332069,0.5313 -0.120752,0.326 -0.120752,0.7909 z"
           id="path4223"
           inkscape:connector-curvature="0"
           style="fill:#e5d5ff;fill-opacity:1" />
        <path
           d="m 57.969663,1017.9291 q -0.205279,0.1087 -0.495085,0.163 -0.289806,0.054 -0.603762,0.054 -0.730553,0 -1.044509,-0.3985 -0.313956,-0.3985 -0.313956,-1.2196 l 0,-2.6566 -0.929794,0 0,-0.7909 0.966019,0 q 0.10264,-0.32 0.20528,-0.6641 0.108677,-0.3502 0.199241,-0.6581 l 0.718477,0 0,1.3222 1.382616,0 0,0.7909 -1.382616,0 0,2.8317 q 0,0.2596 0.132828,0.4226 0.132828,0.157 0.386408,0.157 0.223392,0 0.416596,-0.018 0.193204,-0.024 0.362257,-0.054 l 0,0.7185 z"
           id="path4225"
           inkscape:connector-curvature="0"
           style="fill:#e5d5ff;fill-opacity:1" />
        <path
           d="m 62.226186,1016.6431 q 0,0.32 -0.114715,0.5977 -0.108677,0.2717 -0.338107,0.477 -0.223392,0.1992 -0.567537,0.3139 -0.338106,0.1148 -0.796966,0.1148 -0.446784,0 -0.845267,-0.1087 -0.398483,-0.1147 -0.676213,-0.32 l 0,-1.0023 q 0.156978,0.1087 0.344144,0.2114 0.193204,0.1026 0.392445,0.1811 0.199242,0.072 0.392446,0.1207 0.193204,0.042 0.35622,0.042 0.392445,0 0.573574,-0.1691 0.181128,-0.169 0.181128,-0.4105 0,-0.1268 -0.03623,-0.2234 -0.03623,-0.1026 -0.138866,-0.1872 -0.0966,-0.091 -0.27773,-0.1751 -0.175091,-0.084 -0.452822,-0.1811 -0.38037,-0.1389 -0.639988,-0.2898 -0.25358,-0.157 -0.410558,-0.3381 -0.150941,-0.1872 -0.217355,-0.3985 -0.06641,-0.2173 -0.06641,-0.4709 0,-0.326 0.138865,-0.5917 0.144903,-0.2717 0.386408,-0.4649 0.247542,-0.1932 0.573574,-0.2958 0.332069,-0.1087 0.706402,-0.1087 0.338106,0 0.664138,0.066 0.326032,0.066 0.63395,0.2294 l 0,0.9057 q -0.295843,-0.1329 -0.627912,-0.2174 -0.326032,-0.091 -0.646026,-0.091 -0.374333,0 -0.567536,0.157 -0.187167,0.157 -0.187167,0.3985 0,0.1026 0.03623,0.1932 0.04226,0.091 0.138865,0.1751 0.0966,0.085 0.265656,0.1751 0.169053,0.084 0.428671,0.1751 0.362257,0.1268 0.621875,0.2717 0.265655,0.1388 0.434709,0.3139 0.175091,0.1751 0.25358,0.4046 0.08453,0.2233 0.08453,0.5192 z"
           id="path4227"
           inkscape:connector-curvature="0"
           style="fill:#e5d5ff;fill-opacity:1" />
        <path
           d="m 69.205676,1012.3745 q 0,-0.5977 -0.295843,-0.9298 -0.289806,-0.3321 -0.851305,-0.3321 -0.247542,0 -0.525273,0.078 -0.277731,0.072 -0.549424,0.1993 -0.265655,0.1267 -0.513198,0.2898 -0.241504,0.163 -0.416595,0.3381 l 0,-1.0928 q 0.175091,-0.1631 0.410558,-0.308 0.235467,-0.1449 0.50716,-0.2535 0.277731,-0.1087 0.585649,-0.1751 0.307919,-0.066 0.633951,-0.066 0.525273,0 0.947906,0.1509 0.422634,0.1449 0.71244,0.4226 0.295843,0.2778 0.452822,0.6702 0.163015,0.3864 0.163015,0.8694 0,0.5011 -0.12679,0.9117 -0.120752,0.4045 -0.344144,0.7789 -0.217355,0.3683 -0.519236,0.7365 -0.295843,0.3623 -0.652063,0.791 l -1.322239,1.606 3.22409,0 0,0.9781 -4.648969,0 0,-0.8513 1.841475,-2.2762 q 0.289806,-0.3623 0.525273,-0.6641 0.241505,-0.3019 0.410558,-0.5917 0.169054,-0.2898 0.259618,-0.5978 0.09056,-0.3079 0.09056,-0.6822 z"
           id="path4229"
           inkscape:connector-curvature="0"
           style="fill:#e5d5ff;fill-opacity:1" />
      </g>
    </g>
  </g>
</svg>
