/* XPM */
static const char * knob225_xpm[] = {
"38 38 205 2",
"  	c None",
". 	c #DBDBDB",
"+ 	c #DADADA",
"@ 	c #D9D9D9",
"# 	c #D8D8D8",
"$ 	c #D7D7D7",
"% 	c #D1D1D1",
"& 	c #CBCBCB",
"* 	c #C7C7C7",
"= 	c #C4C4C4",
"- 	c #C3C3C3",
"; 	c #C0C0C0",
"> 	c #D4D4D4",
", 	c #C1C1C1",
"' 	c #B2B2B2",
") 	c #A7A7A7",
"! 	c #999999",
"~ 	c #949494",
"{ 	c #919191",
"] 	c #888888",
"^ 	c #A6A6A6",
"/ 	c #BBBBBB",
"( 	c #A3A3A3",
"_ 	c #929292",
": 	c #828282",
"< 	c #787878",
"[ 	c #727272",
"} 	c #6D6D6D",
"| 	c #6C6C6C",
"1 	c #6E6E6E",
"2 	c #717171",
"3 	c #767676",
"4 	c #818181",
"5 	c #CACACA",
"6 	c #B6B6B6",
"7 	c #A2A2A2",
"8 	c #858585",
"9 	c #797979",
"0 	c #696969",
"a 	c #676767",
"b 	c #666666",
"c 	c #656565",
"d 	c #6B6B6B",
"e 	c #838383",
"f 	c #ADADAD",
"g 	c #8A8A8A",
"h 	c #646464",
"i 	c #777777",
"j 	c #A5A5A5",
"k 	c #636363",
"l 	c #6F6F6F",
"m 	c #A4A4A4",
"n 	c #C2C2C2",
"o 	c #A0A0A0",
"p 	c #626262",
"q 	c #9E9E9E",
"r 	c #C6C6C6",
"s 	c #757575",
"t 	c #616161",
"u 	c #C9C9C9",
"v 	c #AAAAAA",
"w 	c #7C7C7C",
"x 	c #6A6A6A",
"y 	c #606060",
"z 	c #7B7B7B",
"A 	c #B5B5B5",
"B 	c #898989",
"C 	c #B4B4B4",
"D 	c #9D9D9D",
"E 	c #5F5F5F",
"F 	c #5E5E5E",
"G 	c #9C9C9C",
"H 	c #C5C5C5",
"I 	c #848484",
"J 	c #737373",
"K 	c #5D5D5D",
"L 	c #9B9B9B",
"M 	c #686868",
"N 	c #5C5C5C",
"O 	c #D0D0D0",
"P 	c #ABABAB",
"Q 	c #C8C8C8",
"R 	c #5B5B5B",
"S 	c #5A5A5A",
"T 	c #595959",
"U 	c #878787",
"V 	c #BABABA",
"W 	c #868686",
"X 	c #BCBCBC",
"Y 	c #585858",
"Z 	c #BDBDBD",
"` 	c #575757",
" .	c #909090",
"..	c #565656",
"+.	c #CFCFCF",
"@.	c #979797",
"#.	c #969696",
"$.	c #CECECE",
"%.	c #555555",
"&.	c #707070",
"*.	c #D3D3D3",
"=.	c #5A5757",
"-.	c #5B5656",
";.	c #595757",
">.	c #5A5656",
",.	c #959595",
"'.	c #5C5454",
").	c #614E4E",
"!.	c #684646",
"~.	c #694444",
"{.	c #614C4C",
"].	c #5E5050",
"^.	c #595555",
"/.	c #545454",
"(.	c #ACACAC",
"_.	c #7A7A7A",
":.	c #674747",
"<.	c #7D2F2F",
"[.	c #842727",
"}.	c #842626",
"|.	c #7F2C2C",
"1.	c #684343",
"2.	c #5D4F4F",
"3.	c #575555",
"4.	c #535353",
"5.	c #CCCCCC",
"6.	c #6D6969",
"7.	c #634D4D",
"8.	c #7E2D2D",
"9.	c #901A1A",
"0.	c #971212",
"a.	c #9B0F0F",
"b.	c #931616",
"c.	c #822828",
"d.	c #634646",
"e.	c #5A5050",
"f.	c #565555",
"g.	c #939393",
"h.	c #827979",
"i.	c #764646",
"j.	c #8A2020",
"k.	c #991010",
"l.	c #9D0C0C",
"m.	c #9C0D0D",
"n.	c #901919",
"o.	c #763333",
"p.	c #5C4D4D",
"q.	c #555454",
"r.	c #525252",
"s.	c #7D7D7D",
"t.	c #C7C6C6",
"u.	c #9D9696",
"v.	c #8C5353",
"w.	c #932020",
"x.	c #7A2E2E",
"y.	c #604949",
"z.	c #9A9A9A",
"A.	c #D4D3D3",
"B.	c #C2B8B8",
"C.	c #A07070",
"D.	c #9C2F2F",
"E.	c #9A1111",
"F.	c #901818",
"G.	c #763232",
"H.	c #5C4C4C",
"I.	c #555353",
"J.	c #515151",
"K.	c #D4D0D0",
"L.	c #C6ACAC",
"M.	c #A55151",
"N.	c #9C2525",
"O.	c #9A1414",
"P.	c #9A0F0F",
"Q.	c #822626",
"R.	c #634343",
"S.	c #594E4E",
"T.	c #545353",
"U.	c #8D8D8D",
"V.	c #BFBFBF",
"W.	c #D4CBCB",
"X.	c #C4A1A1",
"Y.	c #A14F4F",
"Z.	c #983939",
"`.	c #8B2B2B",
" +	c #7F2929",
".+	c #674040",
"++	c #5A4B4B",
"@+	c #545151",
"#+	c #8E8E8E",
"$+	c #D2D2D2",
"%+	c #C6B1B1",
"&+	c #A47F7F",
"*+	c #8B6565",
"=+	c #735B5B",
"-+	c #555252",
";+	c #505050",
">+	c #D6D3D3",
",+	c #C6C1C1",
"'+	c #AAA7A7",
")+	c #908C8C",
"!+	c #767474",
"~+	c #A9A9A9",
"{+	c #D5D5D5",
"]+	c #CDCDCD",
"^+	c #D6D6D6",
". . . . . . . . . . . . . + + @ # @ # $ # @ # @ + + . . . . . . . . . . . . ",
". . . . . . . . . . . + # $ % & * = - ; - = * & % $ # + . . . . . . . . . . ",
". . . . . . . . . . # > % , ' ) ! ~ { ] { ~ ! ^ ' , % > # . . . . . . . . . ",
". . . . . . . + @ % * / ( _ : < [ } | 1 | } 2 3 4 _ ( / * % @ + . . . . . . ",
". . . . . . + @ 5 6 7 8 9 } 0 a b c c c c c c b a d < e 7 6 5 @ + . . . . . ",
". . . . . + $ * f g 9 | a c c c c c c c h h h h h h c d i g f * $ + . . . . ",
". . . . + $ - j 4 2 0 c c c c h h h h h k k k k k k k k b l 4 m n $ + . . . ",
". . . + @ = o a d b c h h h h h h h k k k k k k p p p p p k 0 k q = @ + . . ",
". . + # r ( s a h h h h h h k k k k k k k p p p p p p t t t t k [ ( r # + . ",
". + + u v w x h h k k k k k k p p p p p p p t t t t t t t y y y a z v u + + ",
". + % A B l c k k k k k p p p p p p t t t t t t t y y y y y y y t | ] C % + ",
". $ r D s b k p p p p p p t t t t t t t y y y y y E E E E E E E F p [ G H $ ",
"+ % ; I 0 p p p p p t t t t t t y y y y y y y E E E E E E F F F F F h 4 ; % ",
"# 5 G J p t t t t t t t y y y y y y y E E E E F E F F F F F K F K K K 1 L 5 ",
"# / g M t t t y y y y y y y E E E E E E E F F F F F F K K K K K K K N k ] / ",
"O P s k y y y y y y E E E E E E E F F F F F F F K K K K K K N N N N N F [ P ",
"Q q | t y E E E E E E E F F F F F F K K K K K K K N N N N N N N R R R N M D ",
"* { x E E E E E F F F F F F F K K K K K K N N N N N N N R R R R R R R R b { ",
"; B c F F F F F K K K K K K K K N N N N N N N R R R R R S S S S S S S T t U ",
"V W F F F F K K K K K K N N N N N N N R R R R R R R S S S S S S T T T T S e ",
"X I p K K K K K K N N N N N N R R R R R R R S S S S S S S T T T T T T Y F 4 ",
", I k K N N N N N N R R R R R R R S S S S S T T T T T T T T Y Y Y Y Y Y E : ",
"Z g p N N N N R R R R R R S S S S S S S T T T T T T Y Y Y Y Y Y Y ` ` ` F ] ",
",  .h N R R R R S S S S S S S T T T T T Y Y Y Y Y Y Y Y ` ` ` ` ` ....` t  .",
"+.@.| N S S S S S S S T T T T T T T Y Y Y Y Y Y ` ` ` ` ` ` ` ........` M #.",
"$.) J F S S S T T T T Y T T Y Y Y Y ` Y ` ` ` ` ` ` ` ........%.....%.S &.) ",
"*.A w t S T T =.-.;.>.;.Y Y Y ` ` ` ` ` ` ` ..............%.%.%.%.%.%.F z A ",
"@ - ,.b R Y '.).!.~.{.].^.` ` ` ` ` ..............%.%.%.%.%.%.%././...k ~ n ",
"+ % (._.N '.:.<.[.}.|.1.2.3.............%.%.%.%.%./././././././.4./.` 9 P % ",
". $ 5.~ 6.7.8.9.0.a.b.c.d.e.f...%.%.%.%.%.%.%././././././.4.4.4.4.%.M g.5.$ ",
". @ +.(.h.i.j.k.l.l.m.n.o.p.q.%./.%./././././.4./.4.4.4.4.4.r.4.r.N s.(.+.@ ",
". . $ t.u.v.w.l.l.l.m.0.x.y././././././.4.4.4.4.4.4.4.r.r.r.r.r.Y 2 z.* $ . ",
". . . A.B.C.D.E.l.l.m.F.G.H.I././.4.4.4.4.4.4.r.r.r.r.r.r.r.J...} g.; > . . ",
". . . . K.L.M.N.O.P.b.Q.R.S.T.4.4.4.r.r.r.r.r.r.r.J.J.J.J.J...x U.V.*.. . . ",
". . . . + W.X.Y.Z.`. +.+++@+4.r.r.r.r.r.r.J.J.J.J.J.J.J.J.S l #+X $++ . . . ",
". . . . . . W.%+&+*+=+].-+r.r.r.J.J.J.J.J.J.J.;+;+J.r.%.b 9 z., $+. . . . . ",
". . . . . . . >+,+'+)+!+` R %.J.J.J.J.;+;+;+;+;+/.S %.J #+~+r {+. . . . . . ",
". . . . . . . . {+]+; ^ { w 1 b R Y ` ` ` Y S c } w  .j ; ]+^+. . . . . . . "};
