/* XPM */
static const char * knob045_xpm[] = {
"38 38 165 2",
"  	c None",
". 	c #DBDBDB",
"+ 	c #C7C7C7",
"@ 	c #B9B9B9",
"# 	c #A5A5A5",
"$ 	c #8F8F8F",
"% 	c #7E7E7E",
"& 	c #797979",
"* 	c #767676",
"= 	c #777777",
"- 	c #D3D3D3",
"; 	c #C9C9C9",
"> 	c #A8A8A8",
", 	c #626262",
"' 	c #5F5F5F",
") 	c #4F4F4F",
"! 	c #515151",
"~ 	c #505050",
"{ 	c #525252",
"] 	c #606060",
"^ 	c #646464",
"/ 	c #909090",
"( 	c #CDCDCD",
"_ 	c #ABABAB",
": 	c #8C8C8C",
"< 	c #6E6E6E",
"[ 	c #565656",
"} 	c #575757",
"| 	c #535353",
"1 	c #8D8B8B",
"2 	c #ABAAAA",
"3 	c #CDCCCC",
"4 	c #CBCBCB",
"5 	c #9A9A9A",
"6 	c #6F6F6F",
"7 	c #616161",
"8 	c #564F4F",
"9 	c #6A5858",
"0 	c #815F5F",
"a 	c #9B7E7E",
"b 	c #CDC0C0",
"c 	c #C8C8C8",
"d 	c #686868",
"e 	c #574E4E",
"f 	c #634343",
"g 	c #832626",
"h 	c #882020",
"i 	c #952C2C",
"j 	c #9C4343",
"k 	c #CDB7B7",
"l 	c #878787",
"m 	c #565151",
"n 	c #614545",
"o 	c #8B1D1D",
"p 	c #9A0F0F",
"q 	c #9D0C0C",
"r 	c #9B0E0E",
"s 	c #991818",
"t 	c #9B3B3B",
"u 	c #CCBABA",
"v 	c #636363",
"w 	c #545454",
"x 	c #545353",
"y 	c #584F4F",
"z 	c #783030",
"A 	c #971212",
"B 	c #9C0D0D",
"C 	c #972020",
"D 	c #976969",
"E 	c #CCC8C8",
"F 	c #CECECE",
"G 	c #5B4E4E",
"H 	c #7B2D2D",
"I 	c #941515",
"J 	c #854B4B",
"K 	c #D4D4D4",
"L 	c #ADADAD",
"M 	c #757575",
"N 	c #555555",
"O 	c #585151",
"P 	c #783131",
"Q 	c #901A1A",
"R 	c #6D3F3F",
"S 	c #787474",
"T 	c #DADADA",
"U 	c #D2D2D2",
"V 	c #919191",
"W 	c #585353",
"X 	c #614949",
"Y 	c #8A2020",
"Z 	c #951414",
"` 	c #842727",
" .	c #5E4F4F",
"..	c #656565",
"+.	c #707070",
"@.	c #5A5252",
"#.	c #644848",
"$.	c #822828",
"%.	c #882222",
"&.	c #892222",
"*.	c #7F2C2C",
"=.	c #604E4E",
"-.	c #585858",
";.	c #717171",
">.	c #939393",
",.	c #5B5454",
"'.	c #664747",
").	c #644A4A",
"!.	c #5D5252",
"~.	c #595959",
"{.	c #5C5C5C",
"].	c #949494",
"^.	c #D9D9D9",
"/.	c #BEBEBE",
"(.	c #7A7A7A",
"_.	c #595757",
":.	c #595858",
"<.	c #5D5D5D",
"[.	c #696969",
"}.	c #5A5A5A",
"|.	c #6B6B6B",
"1.	c #5B5B5B",
"2.	c #8E8E8E",
"3.	c #C3C3C3",
"4.	c #848484",
"5.	c #5E5E5E",
"6.	c #858585",
"7.	c #787878",
"8.	c #C4C4C4",
"9.	c #7B7B7B",
"0.	c #C0C0C0",
"a.	c #7D7D7D",
"b.	c #7F7F7F",
"c.	c #828282",
"d.	c #8D8D8D",
"e.	c #A0A0A0",
"f.	c #676767",
"g.	c #A1A1A1",
"h.	c #D5D5D5",
"i.	c #B1B1B1",
"j.	c #D1D1D1",
"k.	c #9B9B9B",
"l.	c #9C9C9C",
"m.	c #D6D6D6",
"n.	c #747474",
"o.	c #CACACA",
"p.	c #9E9E9E",
"q.	c #BABABA",
"r.	c #666666",
"s.	c #CFCFCF",
"t.	c #A6A6A6",
"u.	c #A7A7A7",
"v.	c #A4A4A4",
"w.	c #ACACAC",
"x.	c #D0D0D0",
"y.	c #868686",
"z.	c #BCBCBC",
"A.	c #A2A2A2",
"B.	c #7C7C7C",
"C.	c #A3A3A3",
"D.	c #6D6D6D",
"E.	c #D7D7D7",
"F.	c #B6B6B6",
"G.	c #979797",
"H.	c #888888",
". . . . . . . . . . . . + @ # $ % & * = * & % $ # @ + . . . . . . . . . . . ",
". . . . . . . . . - ; > $ = , ' ) ! ~ ) ~ { ~ ] ^ = / > ; - . . . . . . . . ",
". . . . . . . . ( _ : < ! [ ~ ~ ~ ~ ~ ~ ! ! ! ! ! } | < 1 2 3 . . . . . . . ",
". . . . . . . 4 5 6 7 ~ ~ ~ ~ ~ ! ! ! ! ! ! ! { { { { 8 9 0 a b . . . . . . ",
". . . . . . c : d ~ ~ ! ! ! ! ! ! ! { { { { { { | | e f g h i j k . . . . . ",
". . . . . c l , ~ ! ! ! ! ! { { { { { { { | | | | m n o p q r s t u . . . . ",
". . . . 4 / v ! ! { { { { { { { | | | | | | w w x y z A q q q B C D E . . . ",
". . . F 5 d { { { { { { | | | | | | | w w w w w w G H q q q q q I J 5 F . . ",
". . K L M | { | { | | | | | w | w w w w w N w N N O P A q q q B Q R S L K . ",
". T U V , | | | | | w w w w w w N N N N N N N [ [ W X Y p q r Z `  ...V U T ",
". . L +.| | | w w w w w w w N N N N N [ [ [ [ [ [ [ @.#.$.%.&.*.=.-.-.;.L . ",
". 4 >.-.w w w N N N N N N N [ [ [ [ [ [ [ } } } } } } ,. .'.).!.-.-.~.{.].4 ",
"^./.(.~.w N N N N N [ [ [ [ [ [ [ } } } } } } } -.-.-.-._.-.:.~.~.~.~.<.(./.",
"- _ [.N N [ [ N [ [ [ [ } } } } } } } -.} -.-.-.-.~.~.-.~.~.~.~.}.}.}.}.|._ ",
"- ].7 [ [ [ [ [ } } } } } } } -.-.-.-.-.-.~.~.~.~.~.~.~.}.}.}.}.}.}.}.1.^ ].",
"c 2.1.[ [ [ } } } } } -.-.-.-.-.-.-.-.~.~.~.~.~.}.}.}.}.}.}.}.1.1.1.1.1.' 2.",
"3.4.1.} } } -.-.-.-.-.-.-.~.~.~.~.~.~.}.}.}.}.}.}.}.1.1.1.1.1.1.{.{.{.{.5.6.",
"+ 7.~.-.-.-.-.-.-.~.~.~.~.~.~.~.~.}.}.}.}.}.1.1.1.1.1.1.1.{.{.{.{.{.{.<.<.(.",
"8.& ~.-.~.~.~.~.~.~.}.}.}.}.}.}.}.1.1.1.1.1.1.1.{.{.{.{.{.{.<.<.<.<.<.<.5.9.",
"0.a.~.~.~.~.~.}.}.}.}.}.}.1.1.1.1.1.1.1.{.{.{.{.{.{.{.<.<.<.<.<.<.5.5.5.5.b.",
"+ b.}.~.}.}.}.}.}.}.}.1.1.1.1.1.{.{.{.{.{.{.{.<.<.<.<.<.<.<.<.5.5.5.5.5.' c.",
"( d.7 }.1.1.1.1.1.1.1.{.{.{.{.{.{.{.<.<.<.<.<.<.5.5.5.5.5.5.5.' ' ' ' ' ^ d.",
"( e., 1.1.1.1.{.{.{.{.{.{.{.<.<.<.<.<.<.<.5.5.5.5.5.5.' ' ' ' ' ' ' ] ] f.g.",
"h.i.d {.{.{.{.{.{.<.<.<.<.<.<.5.5.5.5.5.5.5.' ' ' ' ' ' ' ] ] ] ] ] ] 7 |.i.",
"T 3.6.{.{.<.<.<.<.<.<.<.5.5.5.5.5.5.' ' ' ' ' ' ' ] ] ] ] ] ] ] 7 7 7 7 l 3.",
"T j.k.7 <.<.<.5.<.5.5.5.5.5.' 5.' ' ' ' ] ] ] ] ] ] ] 7 7 7 7 7 7 7 , ..l.j.",
". m.3.n.5.5.5.5.5.5.' ' ' ' ' ' ] ] ] ] ] ] ] 7 7 7 7 7 7 , , , , , , 7.3.m.",
". . o.p.|.5.5.' ' ' ' ' ' ' ] ] ] ] ] 7 7 7 7 7 7 7 , , , , , , v v 6 p.o.. ",
". . h.q.c.r.' ] ] ] ] ] ] ] 7 7 7 7 7 7 7 , , , , , , v v v v v v [.c.q.h.. ",
". . . j.i.* ] ] ] ] 7 7 7 7 7 7 7 , , , , , , , v v v v v v ^ ^ ^ * i.j.. . ",
". . . . s.t.7 ] 7 7 7 7 , , , , , , v v v v v v v ^ ^ ^ ^ ^ ^ ^ ..u.s.. . . ",
". . . . . ( v.7 .., , , , , , v v v v v v ^ ^ ^ ^ ^ ^ ^ ....f...t.( . . . . ",
". . . . . . ( _ 7.d , v v v v v v v v ^ ^ ^ ^ ^ ..........|.7.w.( . . . . . ",
". . . . . . . x.i.y.6 v ^ ^ ^ ^ ^ ^ ^ ..............r.r.;.y.i.x.. . . . . . ",
". . . . . . . . j.z.A.(.+.^ ^ ..............r.r.r.r.;.B.A.z.j.. . . . . . . ",
". . . . . . . . . m.x.8.C.d.9.|.d r.r.d r.r.[.D.9.2.C.8.x.m.. . . . . . . . ",
". . . . . . . . . . . E.K c F.u.G.V d.H.d.V G.u.F.c K E.. . . . . . . . . . ",
". . . . . . . . . . . . T T E.U s.( 4 ; 4 ( s.U E.T T . . . . . . . . . . . "};
