/* XPM */
static const char * knob270_xpm[] = {
"38 38 208 2",
"  	c None",
". 	c #DBDBDB",
"+ 	c #D9D9D9",
"@ 	c #D7D7D7",
"# 	c #D8D8D8",
"$ 	c #D4D4D4",
"% 	c #D3D3D3",
"& 	c #D5D5D5",
"* 	c #D1D1D1",
"= 	c #D6D6D6",
"- 	c #DADADA",
"; 	c #D0D0D0",
"> 	c #CACACA",
", 	c #BFBFBF",
"' 	c #B9B9B9",
") 	c #B5B5B5",
"! 	c #B2B2B2",
"~ 	c #B0B0B0",
"{ 	c #AFAFAF",
"] 	c #B4B4B4",
"^ 	c #B8B8B8",
"/ 	c #BDBDBD",
"( 	c #C4C4C4",
"_ 	c #CDCDCD",
": 	c #CCCCCC",
"< 	c #C1C1C1",
"[ 	c #A3A3A3",
"} 	c #969696",
"| 	c #8B8B8B",
"1 	c #818181",
"2 	c #808080",
"3 	c #7B7B7B",
"4 	c #6A6A6A",
"5 	c #838383",
"6 	c #8A8A8A",
"7 	c #8E8E8E",
"8 	c #A0A0A0",
"9 	c #ADADAD",
"0 	c #D2D2D2",
"a 	c #BCBCBC",
"b 	c #AAAAAA",
"c 	c #959595",
"d 	c #868686",
"e 	c #7A7A7A",
"f 	c #717171",
"g 	c #6D6D6D",
"h 	c #6B6B6B",
"i 	c #686868",
"j 	c #666666",
"k 	c #696969",
"l 	c #6E6E6E",
"m 	c #727272",
"n 	c #777777",
"o 	c #7F7F7F",
"p 	c #929292",
"q 	c #A4A4A4",
"r 	c #BABABA",
"s 	c #C7C7C7",
"t 	c #C9C9C9",
"u 	c #949494",
"v 	c #797979",
"w 	c #707070",
"x 	c #646464",
"y 	c #636363",
"z 	c #656565",
"A 	c #676767",
"B 	c #7D7D7D",
"C 	c #A8A8A8",
"D 	c #C0C0C0",
"E 	c #A2A2A2",
"F 	c #6C6C6C",
"G 	c #626262",
"H 	c #616161",
"I 	c #979797",
"J 	c #BEBEBE",
"K 	c #9A9A9A",
"L 	c #7C7C7C",
"M 	c #606060",
"N 	c #787878",
"O 	c #919191",
"P 	c #B1B1B1",
"Q 	c #C3C3C3",
"R 	c #5E5E5E",
"S 	c #5F5F5F",
"T 	c #767676",
"U 	c #888888",
"V 	c #9D9D9D",
"W 	c #5D5D5D",
"X 	c #CFCFCF",
"Y 	c #A6A6A6",
"Z 	c #B3B3B3",
"` 	c #898989",
" .	c #5C5C5C",
"..	c #C6C6C6",
"+.	c #C2C2C2",
"@.	c #9B9B9B",
"#.	c #5B5B5B",
"$.	c #8D8D8D",
"%.	c #5A5A5A",
"&.	c #C8C8C8",
"*.	c #9F9F9F",
"=.	c #595959",
"-.	c #ACACAC",
";.	c #AEAEAE",
">.	c #807F7F",
",.	c #5F5D5D",
"'.	c #5A5757",
").	c #5A5656",
"!.	c #5A5858",
"~.	c #595858",
"{.	c #757575",
"].	c #A29E9E",
"^.	c #786C6C",
"/.	c #645151",
"(.	c #654949",
"_.	c #654A4A",
":.	c #5F5050",
"<.	c #5B5555",
"[.	c #9B8D8D",
"}.	c #7F5252",
"|.	c #7B3434",
"1.	c #812A2A",
"2.	c #802B2B",
"3.	c #733939",
"4.	c #9F7272",
"5.	c #903636",
"6.	c #901B1B",
"7.	c #951414",
"8.	c #931717",
"9.	c #882222",
"0.	c #753636",
"a.	c #614D4D",
"b.	c #585858",
"c.	c #828282",
"d.	c #A75F5F",
"e.	c #992424",
"f.	c #9D0C0C",
"g.	c #9C0D0D",
"h.	c #9B0E0E",
"i.	c #981212",
"j.	c #842727",
"k.	c #694343",
"l.	c #5C5252",
"m.	c #A64F4F",
"n.	c #9B1B1B",
"o.	c #991010",
"p.	c #6A4141",
"q.	c #5C5151",
"r.	c #585757",
"s.	c #A14A4A",
"t.	c #9A1E1E",
"u.	c #971212",
"v.	c #842525",
"w.	c #644545",
"x.	c #5A5252",
"y.	c #575656",
"z.	c #575757",
"A.	c #A66C6C",
"B.	c #942F2F",
"C.	c #971313",
"D.	c #901818",
"E.	c #793030",
"F.	c #624747",
"G.	c #585252",
"H.	c #565656",
"I.	c #A38686",
"J.	c #894A4A",
"K.	c #842626",
"L.	c #872121",
"M.	c #842424",
"N.	c #792F2F",
"O.	c #693F3F",
"P.	c #5A4F4F",
"Q.	c #555454",
"R.	c #A6A3A3",
"S.	c #7F6B6B",
"T.	c #6D4747",
"U.	c #683F3F",
"V.	c #644242",
"W.	c #624646",
"X.	c #5A4E4E",
"Y.	c #545454",
"Z.	c #555555",
"`.	c #B4B3B3",
" +	c #827F7F",
".+	c #615858",
"++	c #574E4E",
"@+	c #575050",
"#+	c #555353",
"$+	c #535252",
"%+	c #535353",
"&+	c #A5A5A5",
"*+	c #525252",
"=+	c #939393",
"-+	c #BBBBBB",
";+	c #8C8C8C",
">+	c #515151",
",+	c #A9A9A9",
"'+	c #848484",
")+	c #505050",
"!+	c #A1A1A1",
"~+	c #989898",
"{+	c #C5C5C5",
"]+	c #7E7E7E",
"^+	c #9C9C9C",
"/+	c #909090",
"(+	c #8F8F8F",
"_+	c #9E9E9E",
". . . . . . . . . . . . + @ # $ % & % * $ = & @ - - - . . . . . . . . . . . ",
". . . . . . . . - - + & ; > , ' ) ! ~ { ] ^ / ( _ & @ + - . . . . . . . . . ",
". . . . . . . - # # : < , [ } | 1 2 3 4 5 6 7 8 9 / ; 0 @ - - . . . . . . . ",
". . . . . . + & _ a b c d e f g h i j j k l m n o p q r s * + - . . . . . . ",
". . . . - # % t 9 u v w k x y y y y x x x z j A 4 w B 7 C a _ + - . . . . . ",
". . . . # * D E d F j G H H H G G G y y x x x z z z k m 1 I ) : # - . . . . ",
". . . # * J K L A G M M M H H H G G G y y x x x z z z j F N O P t # - . . . ",
". . + * Q K v R R R S S M M M H H G G G y y x x x x x z z 4 T U P : + - . . ",
". - $ < V e G W R R R S S M M M H H H G G G y y y x x x z z 4 T O ) _ + - . ",
"- @ X Y 2 G R W W R R R S S M M M H H H H H G G y y x x x z z 4 N I a * - . ",
"+ * Z ` j R  . .W W W R R R S S S M M M H H H G G y y y x x x z h o C ..@ - ",
"# +.@.w S #.#. . .W W W W W R S S S M M M H H H G G y y y y y x z f $.r 0 + ",
"; ~ B z  .%.#.#. . .W W W W W R R S S S M M M H H H G y y y y y x A B q ; @ ",
"&.*.w R %.%.%.#.#.#. . . .W W W R R S S S M M M H H H G G G y y y x l O / & ",
"s $.j #.=.%.%.%.%.%.#.#. . . .W W R R S S S M M M M M H H G G G y y i B -._ ",
";.>.,.'.).!.~.=.%.%.%.#.#. . . .W W W R R R S S S M M M H H G G G y z {.*.( ",
"].^./.(._.:.<.~.=.%.%.%.#.#. . . . . .W W R R S S S M M M H H G G G x w 7 / ",
"[.}.|.1.2.3.(.).~.=.=.%.%.%.#.#.#. . . .W W R R R S S S M M M H H H G h 6 ^ ",
"4.5.6.7.8.9.0.a.).b.=.=.%.%.%.#.#.#. . . .W W R R R R S S S S M H H H A c.] ",
"d.e.f.g.h.i.j.k.l.b.=.=.=.=.=.%.%.#.#.#. . . .W R R R R R S S S M M H y j ;.",
"m.n.g.f.f.o.9.p.q.r.b.b.b.=.=.=.%.%.#.#.#. . . .W W W R R R S S S M M G N { ",
"s.t.h.f.g.u.v.w.x.y.z.z.b.b.=.=.=.%.%.#.#.#.#.#. . .W W W R R R S S M z B P ",
"A.B.C.o.u.D.E.F.G.H.z.z.z.b.b.b.=.=.=.%.%.%.#.#.#. . .W W W R R R S S i 2 ) ",
"I.J.K.L.M.N.O.P.Q.H.H.z.z.z.z.b.b.b.b.=.=.%.%.#.#.#. . .W W W W R R R 4 6 ' ",
"R.S.T.U.V.W.X.Y.Z.Z.Z.H.H.H.z.z.z.b.b.b.=.=.%.%.%.#.#.#. . . .W W W S g c , ",
"`. +.+++++@+#+Y.Y.Y.Z.Z.H.H.H.z.z.z.b.b.b.=.=.%.%.%.%.%.#. . . .W W S T [ > ",
"D O ~.Y.$+%+%+Y.Y.Y.Y.Y.Z.Z.H.H.H.z.z.z.b.b.b.=.%.%.%.%.%.#.#. . . .x c.J ; ",
"; &+T =.*+*+*+%+%+%+Y.Y.Y.Z.Z.H.H.H.z.z.z.b.b.b.=.=.=.%.%.%.#.#. .W g =+< & ",
"$ -+;+j *+>+>+*+*+%+%+%+Y.Y.Z.Z.H.H.H.z.z.z.z.z.b.b.=.=.=.%.%.#.#.H n ,+: + ",
"@ t Y v  .>+>+>+*+*+%+%+%+Y.Y.Y.Z.Z.Z.H.H.H.z.z.z.b.b.=.=.=.%.%.R i =+a # - ",
"- * J O 4 Z.>+>+>+*+*+%+%+%+%+Y.Y.Y.Z.Z.H.H.H.z.z.z.b.b.=.=.=.%.y '+-._ # - ",
". + _ P c.z Z.)+>+>+>+*+*+*+%+%+%+Y.Y.Z.Z.Z.H.H.H.z.z.z.b.b.%.%.v !+t & - . ",
". - # ..,+1 z Z.)+>+>+>+*+*+*+%+%+%+Y.Y.Z.Z.Z.Z.H.H.H.H.z.=.S {.~+D % + . . ",
". . - = {+,+1 z Z.)+)+)+>+>+*+*+*+%+%+%+Y.Z.Z.Z.H.H.H.H.%.R n ~+/ * # . . . ",
". . . - = {+,+c.k #.>+)+>+>+>+*+*+*+%+%+%+Y.Y.Y.Z.Z.z.#.G ]+^++.* # - . . . ",
". . . . - = ..P /+v z b.%+>+>+>+*+*+*+*+%+%+%+Y.H.%.G g U &+< * # . . . . . ",
". . . . . - # _ J Y ;+T H.#.b.*+*+*+%+*+Y.Z.z.%.y l L K ! X $ + . . . . . . ",
". . . . . . - + * t -+q (+o {.4 x H M G y A w ]+| _+~ +.; @ - . . . . . . . "};
