/* XPM */
static const char * knob135_xpm[] = {
"38 38 204 2",
"  	c None",
". 	c #DBDBDB",
"+ 	c #DADADA",
"@ 	c #D8D8D8",
"# 	c #D0D0D0",
"$ 	c #C8C8C8",
"% 	c #C7C7C7",
"& 	c #C0C0C0",
"* 	c #BABABA",
"= 	c #BBBBBB",
"- 	c #C1C1C1",
"; 	c #BCBCBC",
"> 	c #CFCFCF",
", 	c #CECECE",
"' 	c #D3D3D3",
") 	c #D9D9D9",
"! 	c #D7D7D7",
"~ 	c #D1D1D1",
"{ 	c #CACACA",
"] 	c #ABABAB",
"^ 	c #9D9D9D",
"/ 	c #919191",
"( 	c #878787",
"_ 	c #838383",
": 	c #818181",
"< 	c #828282",
"[ 	c #888888",
"} 	c #909090",
"| 	c #969696",
"1 	c #A7A7A7",
"2 	c #B5B5B5",
"3 	c #C2C2C2",
"4 	c #C5C5C5",
"5 	c #9B9B9B",
"6 	c #727272",
"7 	c #686868",
"8 	c #666666",
"9 	c #616161",
"0 	c #5A5A5A",
"a 	c #5E5E5E",
"b 	c #5F5F5F",
"c 	c #707070",
"d 	c #7B7B7B",
"e 	c #949494",
"f 	c #CCCCCC",
"g 	c #C9C9C9",
"h 	c #B4B4B4",
"i 	c #9C9C9C",
"j 	c #6E6E6E",
"k 	c #636363",
"l 	c #5C5C5C",
"m 	c #5B5B5B",
"n 	c #595959",
"o 	c #585858",
"p 	c #575757",
"q 	c #797979",
"r 	c #939393",
"s 	c #ACACAC",
"t 	c #D4D4D4",
"u 	c #C6C6C6",
"v 	c #AAAAAA",
"w 	c #646464",
"x 	c #5D5D5D",
"y 	c #565656",
"z 	c #555555",
"A 	c #7D7D7D",
"B 	c #9A9A9A",
"C 	c #C4C4C4",
"D 	c #A3A3A3",
"E 	c #6C6C6C",
"F 	c #626262",
"G 	c #545454",
"H 	c #717171",
"I 	c #BFBFBF",
"J 	c #D2D2D2",
"K 	c #9E9E9E",
"L 	c #676767",
"M 	c #535353",
"N 	c #525252",
"O 	c #6D6D6D",
"P 	c #8D8D8D",
"Q 	c #A4A4A4",
"R 	c #606060",
"S 	c #6A6A6A",
"T 	c #8E8E8E",
"U 	c #D5D5D5",
"V 	c #ADADAD",
"W 	c #696969",
"X 	c #515151",
"Y 	c #6F6F6F",
"Z 	c #D6D6D6",
"` 	c #B6B6B6",
" .	c #8A8A8A",
"..	c #A9A9A9",
"+.	c #CDCDCD",
"@.	c #A2A2A2",
"#.	c #777777",
"$.	c #6B6B6B",
"%.	c #737373",
"&.	c #A5A5A5",
"*.	c #787878",
"=.	c #656565",
"-.	c #929292",
";.	c #7C7C7C",
">.	c #B2B2B2",
",.	c #505050",
"'.	c #CBCBCB",
").	c #A6A6A6",
"!.	c #767676",
"~.	c #999999",
"{.	c #C3C3C3",
"].	c #565555",
"^.	c #555454",
"/.	c #555353",
"(.	c #545353",
"_.	c #575555",
":.	c #5A5050",
"<.	c #5C4D4D",
"[.	c #604949",
"}.	c #5C4C4C",
"|.	c #594E4E",
"1.	c #545151",
"2.	c #595555",
"3.	c #5D4F4F",
"4.	c #634646",
"5.	c #763333",
"6.	c #7A2E2E",
"7.	c #763232",
"8.	c #634343",
"9.	c #5A4B4B",
"0.	c #555252",
"a.	c #858585",
"b.	c #595757",
"c.	c #5E5050",
"d.	c #684343",
"e.	c #822828",
"f.	c #901919",
"g.	c #971212",
"h.	c #901818",
"i.	c #822626",
"j.	c #674040",
"k.	c #767474",
"l.	c #5A5656",
"m.	c #614C4C",
"n.	c #7F2C2C",
"o.	c #931616",
"p.	c #9C0D0D",
"q.	c #7F2929",
"r.	c #735B5B",
"s.	c #908C8C",
"t.	c #694444",
"u.	c #842626",
"v.	c #9B0F0F",
"w.	c #9D0C0C",
"x.	c #9A0F0F",
"y.	c #8B2B2B",
"z.	c #8B6565",
"A.	c #AAA7A7",
"B.	c #5B5656",
"C.	c #684646",
"D.	c #842727",
"E.	c #9A1414",
"F.	c #983939",
"G.	c #A47F7F",
"H.	c #C6C1C1",
"I.	c #5A5757",
"J.	c #614E4E",
"K.	c #7D2F2F",
"L.	c #901A1A",
"M.	c #991010",
"N.	c #9A1111",
"O.	c #9C2525",
"P.	c #A14F4F",
"Q.	c #C6B1B1",
"R.	c #D6D3D3",
"S.	c #A0A0A0",
"T.	c #757575",
"U.	c #5C5454",
"V.	c #674747",
"W.	c #7E2D2D",
"X.	c #8A2020",
"Y.	c #932020",
"Z.	c #9C2F2F",
"`.	c #A55151",
" +	c #C4A1A1",
".+	c #D4CBCB",
"++	c #634D4D",
"@+	c #764646",
"#+	c #8C5353",
"$+	c #A07070",
"%+	c #C6ACAC",
"&+	c #898989",
"*+	c #6D6969",
"=+	c #827979",
"-+	c #9D9696",
";+	c #C2B8B8",
">+	c #D4D0D0",
",+	c #848484",
"'+	c #7A7A7A",
")+	c #C7C6C6",
"!+	c #D4D3D3",
"~+	c #959595",
"{+	c #868686",
"]+	c #979797",
". . . . . . . . . . . . + @ @ # $ % & * = - ; - > , ' ) + . . . . . . . . . ",
". . . . . . . . . + + ! ~ { = ] ^ / ( _ : < [ } | 1 2 3 ~ ! ) . . . . . . . ",
". . . . . . . . + + ~ 4 & 5 [ 6 7 8 9 0 a b a 9 7 c d e ] f > ! . . . . . . ",
". . . . . . . + @ g h i : j k a l m n n o o p p p 0 a k q r s % t . . . . . ",
". . . . . . + ) u v [ 6 w x l l m m 0 n n o p y y z z y p 7 A B & ' + . . . ",
". . . . . + ! C D d E F a x x l m m 0 n n o p y y y z G G z l H r I J . . . ",
". . . . + ! 3 K 6 L 9 a a x x l m m 0 n n o o p y y z G M M N o O P ; J . . ",
". . . + ) % Q k k R R b a a x l l m 0 0 n o o p y z z z G M M N y S T - U . ",
". . . ) { V : W 9 R R b a x x l l m 0 0 n o o p p y z z G M N N X y Y B u Z ",
". . . ~ `  .Y k 9 R R b a a x x l m 0 0 n n o p p y z z G M M N N X 0 q ..+.",
". . @ % @.#.8 F 9 9 R b b a x x l m 0 0 0 n o p p y y z G G M N N X X 8 T & ",
". + t = _ $.k F 9 9 R b b a x x l l m 0 0 n o o p y y z G G M N N X X z %.&.",
". @ ~ D *.=.k F F 9 R b b a a x l l m 0 0 n o o p p y z G G M M N X X N z } ",
"+ ! - -.$.w k F F 9 R b b a a x l l m m 0 n n o p p y z G G M M N X X X 0 ;.",
"+ ~ >.: L w k F F 9 9 R b b a x x l m m 0 n n o p p y y z G G M N N X ,.G O ",
") '.).!.8 w k k F 9 9 R b a a a x l m m 0 n n o o p y y z G M M N N X ,.,.=.",
"@ % ~.H =.w k k F 9 9 R R b a a x l l m 0 n n o o p y y z z G M M N X X ,.0 ",
") C e O =.w k k F F 9 R R b a a x l l m m 0 n o o p p y z z G M M N X X ,.o ",
"@ {./ E =.w k k k F 9 R R b b a x x l m m 0 n o o p p y z z G M M N N X ,.p ",
"! & [ j =.=.w k k F 9 9 R b b a x x l m m 0 0 n o o p y y z G G M N N X ,.p ",
"@ {./ E =.=.w k k F 9 9 R R b a x x l l m 0 0 n o p p y y z G G M N N X X p ",
") C e O =.=.w w k F F 9 R R b a a x l l m 0 0 n n o p p y z z G M M N X X o ",
"@ % ~.6 8 =.w w k F F 9 R R b b a x l l m m 0 n n o p p y z G G G M N X X m ",
") '.1 *.L =.w w k F F 9 9 R b b a x x l m m 0 n n o p p y y z G G M N N X 8 ",
"+ ~ >.< W =.=.w k k F 9 9 R b b a a x l l m 0 0 n o o p y ].^.G /.(.M N z j ",
"+ ! - -.O =.=.w w k F 9 9 R R b a a x l l m 0 0 n n o p _.:.<.[.}.|.1.N m ;.",
". @ ~ D q L =.w w k F F 9 R R b a a x l l m m 0 n n o 2.3.4.5.6.7.8.9.0.p / ",
". + t = a.E =.w w k k F 9 9 R b b a x x l m m 0 n o b.c.d.e.f.g.h.i.j.c.k.).",
". . @ % @.q W =.w k k F 9 9 R b b a x x l m m 0 0 n l.m.n.o.p.p.p.o.q.r.s.& ",
". . . ~ `  .H 8 w k k F F 9 R R b a x x l l m 0 0 n b.t.u.v.w.w.w.x.y.z.A.+.",
". . . ) { V : $.w w k F F 9 R R b a x x x l m 0 0 n B.C.D.g.w.w.w.E.F.G.H.U ",
". . . + ) % &.L L w k F F 9 R R b b a x x l m m 0 n I.J.K.L.M.w.N.O.P.Q.R.. ",
". . . . + ! {.S.T.S =.k F 9 9 R b b a x x l l m 0 0 n U.V.W.X.Y.Z.`. +.+. . ",
". . . . . + ! C D ;.Y 8 F 9 9 R b b a a x l l m 0 0 n o U.++@+#+$+%+.+. . . ",
". . . . . . + ) u v &+T.W F 9 R R b a a x l l m 0 0 0 m l *+=+-+;+>++ . . . ",
". . . . . . . + @ g 2 ^ ,+%.7 k 9 b a a x x l l l a 9 8 '+e s )+!+. . . . . ",
". . . . . . . . + + ~ u & i  .T.E S =.a F k F w E %.;.~+s f > ! . . . . . . ",
". . . . . . . . . + + ! ~ { = ] K / &+{+,+,+ .} ]+1 2 {.~ ! ) . . . . . . . "};
