/* XPM */
static const char * knob090_xpm[] = {
"38 38 181 2",
"  	c None",
". 	c #DBDBDB",
"+ 	c #DADADA",
"@ 	c #D6D6D6",
"# 	c #CECECE",
"$ 	c #CCCCCC",
"% 	c #AFAFAF",
"& 	c #A0A0A0",
"* 	c #939393",
"= 	c #8D8D8D",
"- 	c #8A8A8A",
"; 	c #858585",
"> 	c #878787",
", 	c #919191",
"' 	c #989898",
") 	c #A6A6A6",
"! 	c #B9B9B9",
"~ 	c #C5C5C5",
"{ 	c #D7D7D7",
"] 	c #D9D9D9",
"^ 	c #C9C9C9",
"/ 	c #B5B5B5",
"( 	c #9E9E9E",
"_ 	c #7A7A7A",
": 	c #6A6A6A",
"< 	c #5F5F5F",
"[ 	c #5C5C5C",
"} 	c #5A5A5A",
"| 	c #595959",
"1 	c #616161",
"2 	c #707070",
"3 	c #7B7B7B",
"4 	c #8F8F8F",
"5 	c #A7A7A7",
"6 	c #C0C0C0",
"7 	c #CFCFCF",
"8 	c #D3D3D3",
"9 	c #9C9C9C",
"0 	c #666666",
"a 	c #5D5D5D",
"b 	c #555555",
"c 	c #535353",
"d 	c #525252",
"e 	c #515151",
"f 	c #505050",
"g 	c #545454",
"h 	c #565656",
"i 	c #727272",
"j 	c #898989",
"k 	c #A8A8A8",
"l 	c #C3C3C3",
"m 	c #D2D2D2",
"n 	c #C8C8C8",
"o 	c #838383",
"p 	c #575757",
"q 	c #747474",
"r 	c #B6B6B6",
"s 	c #D5D5D5",
"t 	c #9B9B9B",
"u 	c #585858",
"v 	c #606060",
"w 	c #7F7F7F",
"x 	c #AEAEAE",
"y 	c #CBCBCB",
"z 	c #C4C4C4",
"A 	c #969696",
"B 	c #6F6F6F",
"C 	c #7C7C7C",
"D 	c #ADADAD",
"E 	c #C7C7C7",
"F 	c #979797",
"G 	c #5E5E5E",
"H 	c #D8D8D8",
"I 	c #9F9F9F",
"J 	c #B0B0B0",
"K 	c #808080",
"L 	c #C2C2C2",
"M 	c #757575",
"N 	c #D1D1D1",
"O 	c #5B5B5B",
"P 	c #929292",
"Q 	c #D4D4D4",
"R 	c #797979",
"S 	c #909090",
"T 	c #A3A3A3",
"U 	c #6D6D6D",
"V 	c #545353",
"W 	c #555252",
"X 	c #555050",
"Y 	c #5A5656",
"Z 	c #7C7B7B",
"` 	c #949494",
" .	c #575050",
"..	c #5F4848",
"+.	c #624444",
"@.	c #654141",
"#.	c #684545",
"$.	c #786868",
"%.	c #BFBFBF",
"&.	c #868686",
"*.	c #656565",
"=.	c #575252",
"-.	c #674242",
";.	c #7B2D2D",
">.	c #8A1E1E",
",.	c #8E1B1B",
"'.	c #872121",
").	c #824343",
"!.	c #BCBCBC",
"~.	c #636363",
"{.	c #575454",
"].	c #604949",
"^.	c #951313",
"/.	c #9B0E0E",
"(.	c #9C0D0D",
"_.	c #9A0F0F",
":.	c #912323",
"<.	c #B7B7B7",
"[.	c #767676",
"}.	c #585454",
"|.	c #634747",
"1.	c #8A1F1F",
"2.	c #9D0C0C",
"3.	c #9A1515",
"4.	c #595454",
"5.	c #684444",
"6.	c #8F1B1B",
"7.	c #9A1212",
"8.	c #5A5555",
"9.	c #674545",
"0.	c #882222",
"a.	c #9B0F0F",
"b.	c #981818",
"c.	c #BBBBBB",
"d.	c #7E7E7E",
"e.	c #646464",
"f.	c #595757",
"g.	c #5E5050",
"h.	c #763636",
"i.	c #8C1E1E",
"j.	c #971212",
"k.	c #991010",
"l.	c #941515",
"m.	c #8E2D2D",
"n.	c #BEBEBE",
"o.	c #626262",
"p.	c #595858",
"q.	c #624C4C",
"r.	c #733939",
"s.	c #832828",
"t.	c #852525",
"u.	c #7C3030",
"v.	c #764B4B",
"w.	c #8C8C8C",
"x.	c #5A5757",
"y.	c #5C5454",
"z.	c #614E4E",
"A.	c #614D4D",
"B.	c #5E5353",
"C.	c #6F6868",
"D.	c #6E6E6E",
"E.	c #676767",
"F.	c #696969",
"G.	c #A4A4A4",
"H.	c #777777",
"I.	c #686868",
"J.	c #787878",
"K.	c #848484",
"L.	c #C1C1C1",
"M.	c #959595",
"N.	c #717171",
"O.	c #BABABA",
"P.	c #8E8E8E",
"Q.	c #737373",
"R.	c #D0D0D0",
"S.	c #6C6C6C",
"T.	c #818181",
"U.	c #A9A9A9",
"V.	c #6B6B6B",
"W.	c #7D7D7D",
"X.	c #C6C6C6",
". . . . . . . . . . + + @ # $ % & * = - ; > , ' ) ! ~ @ { + . . . . . . . . ",
". . . . . . . . . ] @ ^ / ( > _ : < [ } | | [ 1 2 3 4 5 6 7 @ . . . . . . . ",
". . . . . . . . { 8 / 9 _ 0 a b b c d d e e e f g h c i j k l m + . . . . . ",
". . . . . . + @ n ) o 0 a p g g c c c d d d d e e f e g [ q = r $ . . . . . ",
". . . . . + s n t _ [ u b b b g g g c c c d d d e e f f f b v w x y + . . . ",
". . . . + s z A B } p h h h h b b b g c c c d d d e e f f f f < C D y . . . ",
". . . + @ E F B | u p h h h h b b b b g g c c c d d d e e e f f G C x $ + . ",
". . . H # I i | u u u p p p h h h b b b g g c c c d d d e e e f f < w r m . ",
". . + m J K a | | | | u u p p p h h h b b g g g c c c c d d e e e e 1 = l @ ",
". . + L * 1 [ } } | | | u u p p p h h h b b b g g g c c c d d e e e h M k 7 ",
". + N x B a O O } } | | | u u p p p p p h h h b b g g c c c d d e e e a - 6 ",
". H ~ P 0 [ [ O O } } } | | | u u u p p p h h h b b g g g c c c d d d b i 5 ",
". Q L R G [ [ [ O O } } } } } | u u u p p p h h h b b g g g g g c c d d b S ",
"] # T U a a a [ [ [ O } } } } } | | u u u p p p h h h b b g g g V W X X Y Z ",
"+ z ` 0 G a a a [ [ [ O O O } } } | | u u u p p p h h h b b b g  ...+.@.#.$.",
"H %.&.*.G G G a a a a [ [ O O O } } | | u u u u p p p p h h b =.-.;.>.,.'.).",
"{ !.C ~.< < G G G a a a [ [ O O O } } } | | | u u u p p p h {.].;.^./.(._.:.",
"] <.[.v v < < G G G a a a [ [ O O O O O } } | | | u u p p p }.|.1./.2.2.(.3.",
"{ <.2 v v v < < < G G G a a a [ [ [ O O O } } | | | u u u p 4.5.6.(.2.2.2.7.",
"@ r ~.1 1 v v < < < G G G G G a [ [ [ O O O } } | | | | | u 8.9.0.a.2.2.2.b.",
"H c.d.e.1 1 1 v < < < < G G G G a a [ [ [ O O O } } } | | u f.g.h.i.j.k.l.m.",
"] n.&.0 o.1 1 1 v v v < < < G G G a a [ [ [ O O O } } } | | p.f.q.r.s.t.u.v.",
"H l w.: o.o.o.o.1 1 v v v < < < G G a a [ [ [ [ [ O O } } } | | x.y.z.A.B.C.",
"] ^ I D.~.~.o.o.o.1 1 v v v < < < G G G a a a [ [ [ O O } } } | | | u u } 3 ",
". 8 % M *.~.~.o.o.o.1 1 v v v v v < < < G G a a [ [ [ O O } } } } } | | v > ",
". H z = E.e.~.~.~.o.o.o.1 1 1 v v v < < < G G a a a [ [ [ O O O } } } O F.( ",
". ] m G.H.e.e.~.~.~.~.~.o.1 1 1 v v v < < < G G a a a a a [ [ O O } } v 3 / ",
". + @ 6 - : *.e.~.~.~.~.~.o.o.1 1 1 v v v < < < G a a a a a [ [ O O a I.9 ^ ",
". . + $ k J.0 *.e.e.e.~.~.~.o.o.1 1 1 v v v < < < G G G a a a [ [ [ v K.r @ ",
". . . @ L.M.N.0 *.*.e.e.e.~.~.o.o.1 1 1 1 1 v v v < < G G G a a a G C ) 8 ] ",
". . . . 8 O.P.2 E.*.*.e.e.e.~.~.~.o.o.o.1 1 1 v v v < < G G G a G i 9 n { . ",
". . . . + N r > 2 0 *.*.e.e.e.e.e.~.~.o.o.o.1 1 v v v < < G G G Q.' n @ . . ",
". . . . . + R.r P.N.E.0 *.*.*.e.e.e.~.~.o.o.o.1 1 1 v v v v 1 [.' z s + . . ",
". . . . . . + N O.M._ S.0 *.*.*.e.e.e.~.~.o.o.o.1 1 1 1 o.0 T.& E s + . . . ",
". . . . . . . + 8 L.U.- J.F.E.*.*.*.e.e.e.~.~.~.o.o.~.V.N.M.J # @ + . . . . ",
". . . . . . . . . @ $ 6 G.P.[.2 U F.0 e.e.e.E.F.: 2 C * x L m H + . . . . . ",
". . . . . . . . . . + @ m z % I w.&.w E.Q.R W.&.M.T L X.N + + . . . . . . . ",
". . . . . . . . . . . + ] H 8 ^ l n.!.<.<.<.!.%.z # Q H + . . . . . . . . . "};
