/* XPM */
static const char * knob270_xpm[] = {
"21 21 19 1",
" 	c None",
".	c #FFFFFF",
"+	c #FEFEFE",
"@	c #FBFBFB",
"#	c #D6D6D6",
"$	c #FCFCFC",
"%	c #FAFAFA",
"&	c #F1F1F1",
"*	c #BABABA",
"=	c #ADADAD",
"-	c #E3E3E3",
";	c #C8C8C8",
">	c #919191",
",	c #848484",
"'	c #9F9F9F",
")	c #FDFDFD",
"!	c #DDDDDD",
"~	c #BCBCBC",
"{	c #000000",
".....+@#######$%.....",
"....&#*=======*#&....",
"..&-;=>,,,,,,,>=;-&..",
"..-;'>,,,,,,,,,>';-..",
".&;',,,,,,,,,,,,,';&.",
")!=>,,,,,,,,,,,,,>=#&",
"&~>,,,,,,,,,,,,,,,>*-",
"#=,,,,,,,,,,,,,,,,,=#",
"#=,,,,,,,,,,,,,,,,,=#",
"#=,,,,,,,,,,,,,,,,,=#",
"{{{{{{{{{{{,,,,,,,,=#",
"#=,,,,,,,,,,,,,,,,,=#",
"#=,,,,,,,,,,,,,,,,,=#",
"#=,,,,,,,,,,,,,,,,,=#",
"-*>,,,,,,,,,,,,,,,>*-",
"&#=>,,,,,,,,,,,,,>=#&",
".&;',,,,,,,,,,,,,';&.",
"..-;'>,,,,,,,,,>';-..",
"..&-;=>,,,,,,,>=;-&..",
"....&#*=======*#&....",
".....&-#######-&....."};
