/* XPM */
static const char * knob315_xpm[] = {
"38 38 166 2",
"  	c None",
". 	c #DBDBDB",
"+ 	c #D9D9D9",
"@ 	c #D3D3D3",
"# 	c #C8C8C8",
"$ 	c #C3C3C3",
"% 	c #C7C7C7",
"& 	c #C4C4C4",
"* 	c #C0C0C0",
"= 	c #CDCDCD",
"- 	c #D5D5D5",
"; 	c #DADADA",
"> 	c #CBCBCB",
", 	c #BEBEBE",
"' 	c #ABABAB",
") 	c #949494",
"! 	c #8E8E8E",
"~ 	c #858585",
"{ 	c #7A7A7A",
"] 	c #7B7B7B",
"^ 	c #7F7F7F",
"/ 	c #828282",
"( 	c #8D8D8D",
"_ 	c #A1A1A1",
": 	c #B1B1B1",
"< 	c #D1D1D1",
"[ 	c #D6D6D6",
"} 	c #D4D4D4",
"| 	c #D2D2D2",
"1 	c #ADADAD",
"2 	c #6B6B6B",
"3 	c #646464",
"4 	c #5F5F5F",
"5 	c #5D5D5D",
"6 	c #5E5E5E",
"7 	c #676767",
"8 	c #878787",
"9 	c #9C9C9C",
"0 	c #CACACA",
"a 	c #CECECE",
"b 	c #919191",
"c 	c #717171",
"d 	c #5C5C5C",
"e 	c #5A5A5A",
"f 	c #5B5B5B",
"g 	c #606060",
"h 	c #616161",
"i 	c #656565",
"j 	c #787878",
"k 	c #9E9E9E",
"l 	c #BABABA",
"m 	c #CCC8C8",
"n 	c #9A9A9A",
"o 	c #787474",
"p 	c #585858",
"q 	c #595959",
"r 	c #626262",
"s 	c #6F6F6F",
"t 	c #CFCFCF",
"u 	c #CCBABA",
"v 	c #976969",
"w 	c #854B4B",
"x 	c #6D3F3F",
"y 	c #5E4F4F",
"z 	c #636363",
"A 	c #696969",
"B 	c #767676",
"C 	c #A7A7A7",
"D 	c #CDB7B7",
"E 	c #9B3B3B",
"F 	c #972020",
"G 	c #941515",
"H 	c #901A1A",
"I 	c #842727",
"J 	c #604E4E",
"K 	c #A6A6A6",
"L 	c #CDC0C0",
"M 	c #9C4343",
"N 	c #991818",
"O 	c #9C0D0D",
"P 	c #9D0C0C",
"Q 	c #951414",
"R 	c #7F2C2C",
"S 	c #5D5252",
"T 	c #ACACAC",
"U 	c #D0D0D0",
"V 	c #CDCCCC",
"W 	c #9B7E7E",
"X 	c #952C2C",
"Y 	c #9B0E0E",
"Z 	c #892222",
"` 	c #644A4A",
" .	c #595858",
"..	c #ABAAAA",
"+.	c #815F5F",
"@.	c #882020",
"#.	c #882222",
"$.	c #664747",
"%.	c #868686",
"&.	c #BCBCBC",
"*.	c #C9C9C9",
"=.	c #8D8B8B",
"-.	c #6A5858",
";.	c #832626",
">.	c #9A0F0F",
",.	c #822828",
"'.	c #595757",
").	c #A2A2A2",
"!.	c #A8A8A8",
"~.	c #6E6E6E",
"{.	c #564F4F",
"].	c #634343",
"^.	c #8B1D1D",
"/.	c #971212",
"(.	c #8A2020",
"_.	c #644848",
":.	c #5B5454",
"<.	c #666666",
"[.	c #7C7C7C",
"}.	c #D7D7D7",
"|.	c #909090",
"1.	c #535353",
"2.	c #525252",
"3.	c #574E4E",
"4.	c #614545",
"5.	c #783030",
"6.	c #7B2D2D",
"7.	c #783131",
"8.	c #614949",
"9.	c #5A5252",
"0.	c #575757",
"a.	c #A3A3A3",
"b.	c #B9B9B9",
"c.	c #777777",
"d.	c #565151",
"e.	c #584F4F",
"f.	c #5B4E4E",
"g.	c #585151",
"h.	c #585353",
"i.	c #565656",
"j.	c #A5A5A5",
"k.	c #515151",
"l.	c #545353",
"m.	c #545454",
"n.	c #555555",
"o.	c #B6B6B6",
"p.	c #8F8F8F",
"q.	c #6D6D6D",
"r.	c #C5C5C5",
"s.	c #7E7E7E",
"t.	c #505050",
"u.	c #979797",
"v.	c #BDBDBD",
"w.	c #797979",
"x.	c #4F4F4F",
"y.	c #686868",
"z.	c #888888",
"A.	c #707070",
"B.	c #8C8C8C",
"C.	c #A4A4A4",
"D.	c #747474",
"E.	c #939393",
"F.	c #9B9B9B",
"G.	c #848484",
"H.	c #7D7D7D",
"I.	c #A0A0A0",
". . . . . . . . . . . . . + @ @ # $ % & * % = = - ; ; . . . . . . . . . . . ",
". . . . . . . . . . ; . > , ' ) ! ~ { ] ^ / ( _ : $ < [ . . . . . . . . . . ",
". . . . . . . . . } | 1 ) { 2 3 4 5 6 6 4 3 7 2 8 9 $ 0 - . . . . . . . . . ",
". . . . . . . . a 1 b c d 5 e f f 5 5 6 6 4 g h h i j k l < . . . . . . . . ",
". . . . . . . m n o i p q q e e f d 5 6 6 4 g g h r r s / : t . . . . . . . ",
". . . . . . u v w x y p p q e e f d 5 6 6 4 4 g h h r z A B C = . . . . . . ",
". . . . . D E F G H I J p q e e f d 5 5 6 4 4 g h h r z z 3 i K = . . . . . ",
". . . . L M N O P O Q R S q q e f d 5 5 6 4 4 g g h r r z 3 3 i T U . . . . ",
". . . V W X Y P P P Y Z `  .q e e d 5 5 5 6 4 g g h r r z 3 3 7 j : < . . . ",
". . @ ..+.@.P P P P P #.$.p q e e d d 5 5 6 4 g g h r r z z 3 i 2 %.&.[ . . ",
". . *.=.-.;.>.P P P >.,.y '.q e e f d 5 5 6 4 4 g h h r z z 3 i i c ).U . . ",
". . !.~.{.].^./.P /.(._.:.p p q e f d 5 5 6 4 4 g h h r z z 3 3 i <.[.& }.. ",
". % |.1.2.3.4.5.6.7.8.9.0.p q q e f d d 5 6 6 4 g g h r r z 3 3 i <.c a.} ; ",
"; b.c.0.2.1.d.e.f.g.h.i.0.p q q e f d d 5 6 6 4 g g h h r z 3 3 i i <.! # ; ",
"< j.3 k.2.1.1.l.m.n.i.i.0.p p q e f d d 5 6 6 4 4 g h h r z z 3 i i <.] o.}.",
"t p.g k.2.2.1.m.m.n.i.i.0.0.p q q f f d 5 5 6 4 4 g h h r r z 3 3 i <.q.C | ",
"r.s.t.k.k.2.1.m.m.m.n.i.0.0.p q q f f d d 5 6 4 4 g g h r r z 3 3 i <.A u.t ",
"v.w.2.k.k.2.1.1.m.n.i.0.0.p q q e e f d d 5 6 6 4 g g h r r z 3 3 i i <.b = ",
"l B t.k.k.2.2.1.m.n.i.i.0.0.p q e e f d d 5 5 6 4 g g h h r z z 3 i i <.( > ",
"l c.x.t.k.2.2.1.m.n.i.i.0.p p q e e f f d 5 5 6 4 4 g h h r z z 3 i i y.z.*.",
"l B t.t.k.2.2.1.1.n.n.i.0.0.p p q e f f d 5 5 6 4 4 g g h r z z z 3 i <.( > ",
"v.w.k.t.k.k.2.1.1.n.n.i.0.0.p p q e f f d d 5 6 6 4 g g h r r z z 3 i <.b = ",
"r.s.x.t.k.k.2.1.1.n.n.i.i.0.p p q q e f d d 5 6 6 4 g g h h r z z 3 i y.u.t ",
"t p.4 t.t.k.2.2.1.m.n.i.i.0.p p q q e f f d 5 6 6 6 4 g h h r z z 3 i 2 C | ",
"< j.r t.t.k.2.2.1.m.n.i.i.0.0.p q q e f f d 5 5 6 4 4 g h h r r z 3 3 ] o.}.",
"; b.c.i.t.k.k.2.1.m.m.n.i.0.0.p q q e f f d d 5 6 6 4 4 g h r r z 3 3 ( # ; ",
". % p.k.t.k.k.2.1.m.m.n.i.0.0.p p q e e f d d 5 6 6 4 4 g h r r z 3 A.a.} ; ",
". . !.~.t.k.k.2.2.m.m.n.i.i.0.p p q e e f d d 5 5 6 4 4 g h h r z z { & }.. ",
". . *.B.h t.k.2.2.m.m.n.i.i.0.0.p q e e e f d 5 5 6 4 4 g h h r r s ).U . . ",
". . @ ' s t.k.2.2.1.m.n.n.i.0.0.p q q e e f d 5 5 6 6 4 g g h r y.%.&.[ . . ",
". . . = n y.t.k.2.1.m.n.n.i.0.0.p p q e e f d d 5 5 6 4 g g h i j : < . . . ",
". . . > B.r k.2.1.1.m.n.n.n.i.0.p p q e e f d d 5 6 6 4 g g g h ' U . . . . ",
". . . . # 8 z 2.2.1.1.m.n.i.i.0.p p q q e f f d 5 5 6 6 4 g h C.= . . . . . ",
". . . . . # |.y.1.1.1.m.n.i.i.i.0.p q q e f f d 5 5 6 6 <.B K = . . . . . . ",
". . . . . . . a 1 b A.p q n.i.i.0.p p q q e f d d h D.k l < . . . . . . . . ",
". . . . . . . . } | 1 E.{ A h f f q q q e h r y.~ F.$ 0 - . . . . . . . . . ",
". . . . . . . . . ; . > , ' ) ! G.j w.H.^ ( I.: $ < [ . . . . . . . . . . . ",
". . . . . . . . . ; . > , ' ) ! G.j w.H.^ ( I.: $ < [ . . . . . . . . . . . "};
