/* XPM */
static const char * knob180_xpm[] = {
"38 38 178 2",
"  	c None",
". 	c #DBDBDB",
"+ 	c #D9D9D9",
"@ 	c #D8D8D8",
"# 	c #D6D6D6",
"$ 	c #D7D7D7",
"% 	c #DADADA",
"& 	c #D3D3D3",
"* 	c #C9C9C9",
"= 	c #C3C3C3",
"- 	c #BEBEBE",
"; 	c #BBBBBB",
"> 	c #B6B6B6",
", 	c #B7B7B7",
"' 	c #BCBCBC",
") 	c #BFBFBF",
"! 	c #C4C4C4",
"~ 	c #CECECE",
"{ 	c #D4D4D4",
"] 	c #D2D2D2",
"^ 	c #AFAFAF",
"/ 	c #9F9F9F",
"( 	c #8C8C8C",
"_ 	c #868686",
": 	c #7E7E7E",
"< 	c #636363",
"[ 	c #707070",
"} 	c #767676",
"| 	c #7C7C7C",
"1 	c #949494",
"2 	c #A3A3A3",
"3 	c #C2C2C2",
"4 	c #C5C5C5",
"5 	c #D1D1D1",
"6 	c #CCCCCC",
"7 	c #C0C0C0",
"8 	c #A4A4A4",
"9 	c #8D8D8D",
"0 	c #757575",
"a 	c #6E6E6E",
"b 	c #6A6A6A",
"c 	c #666666",
"d 	c #646464",
"e 	c #616161",
"f 	c #606060",
"g 	c #656565",
"h 	c #6D6D6D",
"i 	c #797979",
"j 	c #929292",
"k 	c #AEAEAE",
"l 	c #C1C1C1",
"m 	c #A8A8A8",
"n 	c #8A8A8A",
"o 	c #777777",
"p 	c #676767",
"q 	c #626262",
"r 	c #5F5F5F",
"s 	c #5E5E5E",
"t 	c #5D5D5D",
"u 	c #6F6F6F",
"v 	c #939393",
"w 	c #B0B0B0",
"x 	c #BABABA",
"y 	c #959595",
"z 	c #787878",
"A 	c #5C5C5C",
"B 	c #808080",
"C 	c #C7C7C7",
"D 	c #D5D5D5",
"E 	c #D0D0D0",
"F 	c #8E8E8E",
"G 	c #717171",
"H 	c #5B5B5B",
"I 	c #727272",
"J 	c #979797",
"K 	c #878787",
"L 	c #5A5A5A",
"M 	c #595959",
"N 	c #969696",
"O 	c #C8C8C8",
"P 	c #585858",
"Q 	c #9B9B9B",
"R 	c #7A7A7A",
"S 	c #A6A6A6",
"T 	c #A9A9A9",
"U 	c #575757",
"V 	c #838383",
"W 	c #B5B5B5",
"X 	c #6C6C6C",
"Y 	c #565656",
"Z 	c #9C9C9C",
"` 	c #555555",
" .	c #696969",
"..	c #9E9E9E",
"+.	c #545454",
"@.	c #535353",
"#.	c #7F7F7F",
"$.	c #525252",
"%.	c #737373",
"&.	c #515151",
"*.	c #7D7D7D",
"=.	c #505050",
"-.	c #7B7B7B",
";.	c #8F8F8F",
">.	c #C6C6C6",
",.	c #6B6B6B",
"'.	c #A7A7A7",
").	c #898989",
"!.	c #747474",
"~.	c #CFCFCF",
"{.	c #818181",
"].	c #595858",
"^.	c #595757",
"/.	c #5A5555",
"(.	c #595454",
"_.	c #585454",
":.	c #575454",
"<.	c #A0A0A0",
"[.	c #5E5050",
"}.	c #674545",
"|.	c #684444",
"1.	c #634747",
"2.	c #604949",
"3.	c #575252",
"4.	c #989898",
"5.	c #5A5757",
"6.	c #624C4C",
"7.	c #763636",
"8.	c #882222",
"9.	c #8F1B1B",
"0.	c #8A1F1F",
"a.	c #7B2D2D",
"b.	c #674242",
"c.	c #575050",
"d.	c #545353",
"e.	c #5C5454",
"f.	c #733939",
"g.	c #8C1E1E",
"h.	c #9B0F0F",
"i.	c #9C0D0D",
"j.	c #9B0E0E",
"k.	c #951313",
"l.	c #5F4848",
"m.	c #555252",
"n.	c #ADADAD",
"o.	c #CBCBCB",
"p.	c #614E4E",
"q.	c #832828",
"r.	c #971212",
"s.	c #9D0C0C",
"t.	c #8A1E1E",
"u.	c #624444",
"v.	c #555050",
"w.	c #848484",
"x.	c #686868",
"y.	c #614D4D",
"z.	c #852525",
"A.	c #991010",
"B.	c #8E1B1B",
"C.	c #654141",
"D.	c #5E5353",
"E.	c #7C3030",
"F.	c #941515",
"G.	c #9A0F0F",
"H.	c #872121",
"I.	c #684545",
"J.	c #5A5656",
"K.	c #6F6868",
"L.	c #764B4B",
"M.	c #8E2D2D",
"N.	c #981818",
"O.	c #9A1212",
"P.	c #9A1515",
"Q.	c #912323",
"R.	c #824343",
"S.	c #786868",
"T.	c #7C7B7B",
"U.	c #909090",
". . . . . . . . . . . . . . . + @ + @ # $ + $ @ % + . . . . . . . . . . . . ",
". . . . . . . . . . . % + @ & * = - ; > , , ' ) ! ~ { @ % . . . . . . . . . ",
". . . . . . . . . . % # ] ! ^ / ( _ : < [ } | _ 1 2 3 4 5 % % . . . . . . . ",
". . . . . . . . . # 6 7 8 9 0 a b c d e f f < g c h i j k 3 ] @ % . . . . . ",
". . . . . . . % & l m n o p g < q q e e f f r s s t s c u v w ~ # % . . . . ",
". . . . . . % 5 x y z b d d < < q e e f f r r s t t A A t e B / C D % . . . ",
". . . . . % E > F G c g d < < q q e e f r r s s t t A A H A t I J ! D % . . ",
". . . . % 5 > K [ c g d < < q q q e f r r s s t t A A H H L M M u N O # . . ",
". . . . & x F [ p g d < < < q q e f r r r s s t A A H H L L M P M u Q O $ . ",
". . . # l y G c g g d < < q q e e f r r s s t t A A H L L M M P P L R S & + ",
". . % 6 T R p g g d d < < q e e f f r s s t t t A H L L M M M P U U A V W # ",
". % # 7 n X c g d d < < < q e f f r r s s t t A H L L L M M P U Y Y P c Z * ",
". + ] 8 z c g d d d < < q e f f f r s s t t A A H L L M M P P U Y Y ` t R W ",
". @ ! F  .g g d d < < q e e f f r r s s t A A H H L L M P P U U Y Y ` U c ..",
". & ^ } p g g d < < q q e e f r r s s s t A H H L L L M P U U Y Y Y ` +.t K ",
"+ * / [ g g d d < q q e e f f r r s s t A H H H L L M P U U U Y ` ` +.+.` R ",
"@ = ( h g d d d < q e e f f f r s s t A A H H L L M P P U U Y Y ` ` +.@.` b ",
"+ - _  .g d d < q e e e f f r s s t t A A H L L M M P P U Y Y ` ` ` +.@.@.r ",
"@ ' #.c d d < < q e e f f r r s t t A A H H L M M P P U U Y Y ` ` +.@.@.$.A ",
"# , p d d < < q q e f f r r r s t A A H H H L M P P U U U Y ` ` +.@.@.$.$.L ",
"$ , %.d d < q q e e f f r r s t A A A H H L M P P P U U Y ` ` +.+.@.@.$.&.M ",
"+ , i d < q q q e e f r r s s t A A H H L L M P P U U Y Y ` +.+.@.@.$.$.&.M ",
"$ ' *.p < q q e e f r r s s t t A H H L L M M P U U Y Y Y ` +.@.@.$.$.$.&.A ",
"@ ) _  .< q e e f f r r s t t A A H H L M M P P U U Y Y ` +.+.@.@.$.$.&.=.e ",
"% ! y b q e e f f f r s t t A A A H L M M M P U U Y Y ` ` +.@.@.$.$.&.&.+.[ ",
"+ ~ 2 [ q e e f f r s t t t A A H L L M M P P U Y Y ` ` +.+.@.$.$.&.&.=.Y -.",
". { 3 | < e f f r r s t t A A H H L L M P P U U Y Y ` +.+.@.@.$.$.&.=.&.@.;.",
". @ >.v ,.e f r r s s t t A H H L L M M P U U U Y ` +.+.@.@.@.$.&.=.=.+.I '.",
". % 5 k G q f r s s t t t A H L L M M M P U U Y ` ` +.+.@.@.$.&.&.=.=.A ).7 ",
". . % 3 y c f s s s t t A H L L L M P P U U Y Y ` +.+.@.@.$.$.&.&.=.` !.m ~.",
". . % ] w {.e s s t t A A H L L M ].^./.(._.:.` ` +.+.@.$.$.&.&.=.=.f 9 = # ",
". . . @ ~ <.} s t t A A H H L M M ^.[.}.|.1.2.3.+.+.+.@.$.&.&.=.=.r #.> ] . ",
". . . % # C 4.%.s t A H H L L M 5.6.7.8.9.0.a.b.c.d.@.$.&.&.&.=.s | k 6 % . ",
". . . . % D ! 4.I s A H L L L M e.f.g.h.i.j.k.a.l.m.@.$.&.&.&.r | n.o.. . . ",
". . . . . % D O Z | f t L L M P p.q.r.s.s.s.j.t.u.v.$.$.&.Y e #.k o.% . . . ",
". . . . . . % # O S w.x.f H M P y.z.A.s.s.s.i.B.C.v.$.` t 0 9 > 6 . . . . . ",
". . . . . . . . $ & > Z -. .f L D.E.F.s.s.i.G.H.I.J.` I n m = ] % . . . . . ",
". . . . . . . . . + # * W ..K -.K.L.M.N.O.P.Q.R.S.T.U.'.7 ~.# . . . . . . . "};
