/* XPM */
static const char * knob000_xpm[] = {
"38 38 109 2",
"  	c None",
". 	c #DBDBDB",
"+ 	c #BDBDBD",
"@ 	c #A7A7A7",
"# 	c #958B8B",
"$ 	c #965D5D",
"% 	c #952F2F",
"& 	c #962626",
"* 	c #913A3A",
"= 	c #916D6D",
"- 	c #919191",
"; 	c #9F9F9F",
"> 	c #B1B1B1",
", 	c #D3D3D3",
"' 	c #CCCCCC",
") 	c #ABABAB",
"! 	c #868686",
"~ 	c #777777",
"{ 	c #6E6464",
"] 	c #723434",
"^ 	c #951414",
"/ 	c #9B0E0E",
"( 	c #9D0C0C",
"_ 	c #9A0F0F",
": 	c #8D1D1D",
"< 	c #674343",
"[ 	c #606060",
"} 	c #757575",
"| 	c #7E7E7E",
"1 	c #9B9B9B",
"2 	c #C0C0C0",
"3 	c #D6D6D6",
"4 	c #828282",
"5 	c #707070",
"6 	c #515151",
"7 	c #525252",
"8 	c #5E4848",
"9 	c #8E1B1B",
"0 	c #812A2A",
"a 	c #575757",
"b 	c #585858",
"c 	c #5E5E5E",
"d 	c #797979",
"e 	c #614545",
"f 	c #595959",
"g 	c #5A5A5A",
"h 	c #5F5F5F",
"i 	c #A9A9A9",
"j 	c #AFAFAF",
"k 	c #7F7F7F",
"l 	c #505050",
"m 	c #535353",
"n 	c #5F4747",
"o 	c #951313",
"p 	c #882222",
"q 	c #5B5B5B",
"r 	c #747474",
"s 	c #9A9A9A",
"t 	c #CFCFCF",
"u 	c #7A7A7A",
"v 	c #5A4D4D",
"w 	c #7E2A2A",
"x 	c #733A3A",
"y 	c #5C5C5C",
"z 	c #616161",
"A 	c #4F4F4F",
"B 	c #545353",
"C 	c #604949",
"D 	c #7F2A2A",
"E 	c #961414",
"F 	c #753737",
"G 	c #5C5252",
"H 	c #5D5D5D",
"I 	c #626262",
"J 	c #545454",
"K 	c #555454",
"L 	c #5B4E4E",
"M 	c #614949",
"N 	c #644848",
"O 	c #614B4B",
"P 	c #636363",
"Q 	c #A8A8A8",
"R 	c #555555",
"S 	c #565656",
"T 	c #B8B8B8",
"U 	c #959595",
"V 	c #CECECE",
"W 	c #646464",
"X 	c #B7B7B7",
"Y 	c #656565",
"Z 	c #C5C5C5",
"` 	c #6A6A6A",
" .	c #C9C9C9",
"..	c #7B7B7B",
"+.	c #838383",
"@.	c #C4C4C4",
"#.	c #8D8D8D",
"$.	c #C8C8C8",
"%.	c #666666",
"&.	c #898989",
"*.	c #CDCDCD",
"=.	c #D1D1D1",
"-.	c #DADADA",
";.	c #858585",
">.	c #AAAAAA",
",.	c #D5D5D5",
"'.	c #676767",
").	c #949494",
"!.	c #D9D9D9",
". . . . . . . . . . . . . + @ # $ % & * = - ; > , . . . . . . . . . . . . . ",
". . . . . . . . . . ' ) ! ~ { ] ^ / ( _ : < [ } | 1 2 3 . . . . . . . . . . ",
". . . . . . . . ' ) 4 5 6 7 8 9 ( ( ( ( _ 0 a b b c d 1 2 3 . . . . . . . . ",
". . . . . . . + ! 5 6 6 7 7 e / ( ( ( ( ( : a b f f g h d i , . . . . . . . ",
". . . . . . j k l l 6 7 7 m n o ( ( ( ( / p b b f g g q q r s t . . . . . . ",
". . . . . j u l l 6 6 7 m m v w ( ( ( ( ^ x b f f g g q y y z s t . . . . . ",
". . . . j u A l 6 6 7 7 m m B C D E / 9 F G f f g g q q y H H I s t . . . . ",
". . . + k A l l 6 7 7 m m J J K L M N O G b f f g q q y y H H c P Q , . . . ",
". . ' ! A l l 6 6 7 7 m J J R R S S a b b f f g g q y y H H c c h r T 3 . . ",
". . ) 5 A l 6 6 7 7 m m J J R S S a a b b f g g q q y y H c c h h [ U V . . ",
". ' 4 A l l 6 6 7 m m J J R R S a a b b f f g q q y y H H c c h [ [ W X 3 . ",
". ) 5 l l 6 6 7 7 m m J R R S S a a b f f g g q q y H H c c h h [ z z U V . ",
". ! A l l 6 7 7 m m J J R S S a a b b f g g q q y y H H c h h [ [ z z Y Z . ",
"+ ~ l l 6 6 7 7 m J J R R S S a b b f f g g q y y H H c c h [ [ z z I I @ , ",
"@ ` l 6 6 7 7 m m J R R S S a a b f f g g q q y y H c c h h [ [ z I I P - V ",
"U l l 6 6 7 m m J J R R S a a b b f f g q q y y H H c h h [ [ z z I P P k  .",
"- l 6 6 7 7 m J J R R S S a b b f f g g q q y H H c c h h [ z z I I P P .. .",
"+.l 6 7 7 m m J J R S S a a b b f g g q q y y H c c h h [ [ z I I P P W W Z ",
"k 6 6 7 m m J J R R S a a b b f f g g q y y H H c c h [ [ z z I I P W W Y @.",
"k 6 7 7 m m J R R S S a a b f f g g q q y H H c c h h [ z z I I P P W W Y @.",
"#.7 7 m m J J R S S a a b b f f g q q y y H H c h h [ [ z z I P P W W Y ~ $.",
"- 7 7 m J J R R S S a b b f f g g q y y H H c c h [ [ z z I I P P W Y Y .. .",
"; c m m J R R S S a a b b f g g q q y y H c c h h [ [ z I I P P W W Y %.&.*.",
"> } m J J R R S a a b b f f g q q y y H H c h h [ [ z z I I P W W Y Y %.1 =.",
", | J J R R S S a a b f f g g q q y H H c c h h [ z z I I P P W Y Y %.%.+ -.",
". 1 q J R S S a a b b f g g q q y y H c c h h [ [ z z I P P W W Y Y %.;.' . ",
". 2 d R R S S a b b f f g g q y y H H c c h [ [ z z I I P W W Y Y %.%.>.,.. ",
". 3 1 q S S a a b f f g g q q y H H c c h h [ [ z I I P P W W Y %.%.;.$.-.. ",
". . 2 d S a a b b f f g q q y y H H c h h [ [ z z I P P W W Y Y %.'.>.,.. . ",
". . 3 i r a b b f f g g q y y H H c c h h [ z z I I P P W Y Y %.%.).' -.. . ",
". . . , s H b b f g g q q y y H c c h h [ [ z I I P P W W Y %.%.;.@.-.. . . ",
". . . . t s c f f g q q y y H H c c h [ [ z z I I P W W Y Y %.;.2 !.. . . . ",
". . . . . t s c g g q q y H H c c h h [ z z I I P P W Y Y %.;.2 !.. . . . . ",
". . . . . . t Q r q q y y H H c h h [ [ z z I P P W W Y Y ).@.!.. . . . . . ",
". . . . . . . , T U z y H H c c h [ [ z z I I P W W Y ;.>.' -.. . . . . . . ",
". . . . . . . . 3 V X U z c c h h [ [ z I I P P W ;.>.$.,.-.. . . . . . . . ",
". . . . . . . . . . 3 V Z @ - k ..[ z z ~ ..&.1 + ' ,.-.. . . . . . . . . . ",
". . . . . . . . . . . . . , V  . .Z @.@.$. .*.=.-.. . . . . . . . . . . . . "};
