<svg width="30" height="18" version="1.1" xmlns="http://www.w3.org/2000/svg">
  <path d="m20.999992 13.290607v-8.5827732l7.35661 4.2913869z" fill="#7f7571" stroke-width=".36618"/>
  <g transform="matrix(.7980027 0 0 .79816412 .47773332 -1.0809237)" fill="#7f7571">
    <path d="m4.876466 13.943484 2.5941394-0.483697c0.4106097-0.07653 0.8028092 0.192371 0.8793703 0.602971l0.8982555 4.8177c0.07656 0.410601-0.1923702 0.802731-0.6029799 0.879344l-2.5941394 0.483609c-0.4106097 0.076526-0.8028093-0.19237-0.8793703-0.602971l-0.8982556-4.817612c-0.076559-0.410601 0.1923703-0.802819 0.60298-0.879344z" stroke-width="1.10215"/>
    <path d="m11.99997 4.3935815c-4.2131456 0-7.6455512 1.673102-7.6455512 5.8863355 0 0.481673 0.043953 2.704354 0.1295838 3.161047 0.364615 1.98545 0.7420547 3.96835 1.1309118 5.949139l0.5301396-6.361412c0.076139-0.91363-0.094241-2.405991-0.094241-2.748774 0-3.2962423 2.6529852-4.1899238 5.949139-4.1899238 3.296155 0 5.94914 0.8936815 5.94914 4.1899238 0 0.342783-0.170379 1.835144-0.09424 2.748774 0.530139 6.361412 0.530139 6.361412 0.530139 6.361412 0.388875-1.980789 0.766306-3.963689 1.130912-5.949139 0.08563-0.456693 0.129584-2.679374 0.129584-3.161047 0-4.2132335-3.432406-5.8863355-7.645551-5.8863355z" color="#000000" stroke-width="1.33317" style="text-indent:0;text-transform:none"/>
    <path d="m19.123034 13.943484-2.594139-0.483697c-0.41061-0.07653-0.80281 0.192371-0.879371 0.602971l-0.898255 4.8177c-0.07656 0.410601 0.19237 0.802818 0.60298 0.879344l2.594139 0.483697c0.41061 0.07653 0.802809-0.192371 0.879371-0.603059l0.898255-4.8177c0.07656-0.410513-0.19237-0.802731-0.60298-0.879256z" stroke-width="1.10215"/>
  </g>
</svg>
