<svg width="26" height="52" version="1.1" xmlns="http://www.w3.org/2000/svg">
  <g transform="matrix(-.5112 .44559 -.50559 -.58003 28.909 44.828)" fill="none" stroke="#000001" stroke-linejoin="round" stroke-width="2.215">
    <path transform="matrix(-1.4588,0,0,1.2857,27.506,3.1429)" d="m12 3c-1.2837 0-2.334 1.0503-2.334 2.334v11.797c-1.6125 0.8501-2.7305 2.5239-2.7305 4.4648 0 1.9422 1.1183 3.6174 2.7324 4.4668v-3.1956c0-1.2837 1.0503-2.334 2.334-2.334s2.332 1.0503 2.332 2.334v3.1956c1.6141-0.84939 2.7324-2.5246 2.7324-4.4668 0-1.9425-1.1184-3.6174-2.7324-4.4668v-11.795c0-1.2837-1.0503-2.334-2.334-2.334z" color="#000001" fill="none" stroke="#000001" stroke-linejoin="round" stroke-width="1.6173"/>
  </g>
  <g fill="none" stroke="#000001" stroke-linejoin="round" stroke-width="1.6">
    <path d="m8.9997 37.363v7.6375h2v-5.3425z"/>
    <path d="m14 27v5.9864l2 2.2949v-8.2813z"/>
    <path d="m19 27v11.725l2 2.293v-14.018z"/>
    <path d="m3.9997 35.713v9.2874h2v-7.9846c-0.73826-0.26909-1.4212-0.69782-2-1.3027z"/>
    <path d="m11.648 18.12-4.4253-4.4252 4.4253-4.4252-1.1064-1.1063-5.5316 5.5315 5.5316 5.5315z"/>
    <path d="m14.352 18.12 4.4253-4.4253-4.4253-4.4253 1.1064-1.1064 5.5315 5.5316-5.5315 5.5315-1.1064-1.1064z"/>
  </g>
  <g fill="#666668">
    <path d="m8.9997 37.363v7.6375h2v-5.3425z"/>
    <path d="m14 27v5.9864l2 2.2949v-8.2813z"/>
    <path d="m19 27v11.725l2 2.293v-14.018z"/>
    <path d="m3.9997 35.713v9.2874h2v-7.9846c-0.73826-0.26909-1.4212-0.69782-2-1.3027z"/>
    <path d="m11.648 18.12-4.4253-4.4252 4.4253-4.4252-1.1064-1.1063-5.5316 5.5315 5.5316 5.5315z" stroke-width=".93992"/>
    <path d="m14.352 18.12 4.4253-4.4253-4.4253-4.4253 1.1064-1.1064 5.5315 5.5315-5.5315 5.5316-1.1064-1.1064z" stroke-width=".93992"/>
  </g>
  <g transform="matrix(-.5112 .44559 -.50559 -.58003 28.909 44.828)" fill="#666668" stroke-width="1.0108">
    <path transform="matrix(-1.4588,0,0,1.2857,27.506,3.1429)" d="m12 3c-1.2837 0-2.334 1.0503-2.334 2.334v11.797c-1.6125 0.8501-2.7305 2.5239-2.7305 4.4648 0 1.9422 1.1183 3.6174 2.7324 4.4668v-3.1956c0-1.2837 1.0503-2.334 2.334-2.334s2.332 1.0503 2.332 2.334v3.1956c1.6141-0.84939 2.7324-2.5246 2.7324-4.4668 0-1.9425-1.1184-3.6174-2.7324-4.4668v-11.795c0-1.2837-1.0503-2.334-2.334-2.334z" color="#000001" fill="#666668"/>
  </g>
</svg>
