<svg width="24" height="24" version="1.1" xmlns="http://www.w3.org/2000/svg">
  <g fill="none" stroke="#000" stroke-linejoin="round" stroke-width="1.6">
    <path d="m15 3v3h-13v2h13v3l7-4z"/>
    <path d="m17 21h-2v-9h2z"/>
    <path d="m9 21h2v-12h-2z"/>
    <path d="m9 5h2v-2h-2z"/>
    <path d="m3 21h2v-12h-2z"/>
    <path d="m3 5h2v-2h-2z"/>
  </g>
  <path d="m15 3v3h-13v2h13v3l7-4z" fill="#928476"/>
  <g fill="#3f3d3d">
    <path d="m17 21h-2v-9h2z"/>
    <path d="m9 21h2v-12h-2z"/>
    <path d="m9 5h2v-2h-2z"/>
    <path d="m3 21h2v-12h-2z"/>
    <path d="m3 5h2v-2h-2z"/>
  </g>
</svg>
