<?xml version="1.0" encoding="UTF-8"?>
<svg version="1.1" viewBox="0 0 24 24" xmlns="http://www.w3.org/2000/svg"><g transform="matrix(3.8125 0 0 3.8125 -.46462 -.57489)" fill="#a89a8c" stroke-width=".28306"><path d="m2.5096 5.3925 0.017576 0.096961c0.048889 0.27002 0.27246 0.51076 0.53636 0.57757 0.1047 0.026505 0.31013 0.00568 0.42743-0.04333 0.21228-0.088697 0.36125-0.28606 0.40319-0.53424l0.016361-0.096961h-0.70044z"/><path d="m3.2516 0.5315c-0.17621 0-0.26322 0.032022-0.3734 0.13736-0.10916 0.10436-0.15938 0.19996-0.15938 0.30335 0 0.062559-0.013397 0.08475-0.058176 0.096405-0.13631 0.035479-0.51544 0.2479-0.63615 0.35643-0.31497 0.28319-0.52529 0.63473-0.57141 0.95516-0.01433 0.099546-0.026282 0.50602-0.026563 0.90325l-5.146e-4 0.72226-0.22377 0.37663c-0.24299 0.409-0.27269 0.5186-0.17933 0.6611 0.094772 0.14464 0.036714 0.14112 2.2344 0.13494l2.0252-0.00571 0.091507-0.099839c0.14163-0.15456 0.12021-0.25269-0.15039-0.68877l-0.21659-0.34906-0.015102-0.85325c-0.01261-0.71216-0.022594-0.87677-0.060396-0.99546-0.14143-0.44407-0.5166-0.84976-0.98016-1.06-0.094784-0.042977-0.17409-0.096527-0.18109-0.12231-0.00685-0.025229-0.020255-0.080811-0.029795-0.12347-0.044892-0.20077-0.25261-0.34906-0.48894-0.34906z"/></g><circle cx="18.912" cy="19.387" r="3.7521" fill="#a0000f" stroke-width="1.3211"/></svg>
