<svg width="22" height="22" version="1.1" xmlns="http://www.w3.org/2000/svg">
  <g transform="matrix(.881636 0 0 .882853 1.30201 1.26286)" fill="none" stroke="#000001" stroke-linejoin="round" stroke-width="1.81356">
    <path d="m13.7302 7.08042c1.50933 0.923162 2.51995 2.58119 2.51995 4.47995 0 2.90059-2.34935 5.25002-5.25002 5.25002s-5.25002-2.34944-5.25002-5.25002c0-1.89876 1.01062-3.55679 2.51995-4.47995l-1.26438-1.26438c-1.81562 1.26438-3.00564 3.36428-3.00564 5.74433 0 3.86748 3.13252 6.99991 7 6.99991 3.86748 0 7-3.13243 7-6.99991 0-2.38005-1.19003-4.47995-3.00564-5.74433z"/>
    <path d="m12 3h-2v6h2z"/>
  </g>
  <g transform="matrix(.881636 0 0 .882853 1.30201 1.26286)" fill="#918273" stroke-width="1.13347">
    <path d="m13.7302 7.08042c1.50933 0.923162 2.51995 2.58119 2.51995 4.47995 0 2.90059-2.34935 5.25002-5.25002 5.25002s-5.25002-2.34944-5.25002-5.25002c0-1.89876 1.01062-3.55679 2.51995-4.47995l-1.26438-1.26438c-1.81562 1.26438-3.00564 3.36428-3.00564 5.74433 0 3.86748 3.13252 6.99991 7 6.99991 3.86748 0 7-3.13243 7-6.99991 0-2.38005-1.19003-4.47995-3.00564-5.74433z"/>
    <path d="m12 3h-2v6h2z"/>
  </g>
</svg>
