<svg width="22" height="22" version="1.1" xmlns="http://www.w3.org/2000/svg">
  <path d="m14.522 6.40326-1.11481 1.11481c1.33079 0.813958 2.22186 2.27586 2.22186 3.95 0 2.55747-2.07144 4.62898-4.62898 4.62898-2.55755 0-4.62898-2.07151-4.62898-4.62898 0-1.67415 0.891072-3.13605 2.22186-3.95l-1.11481-1.11481c-1.60084 1.11481-2.6501 2.96631-2.6501 5.06481 0 3.40998 2.76197 6.17187 6.17195 6.17187 3.40998 0 6.17195-2.76189 6.17195-6.17187 0-2.0985-1.04926-3.95-2.6501-5.06481z" fill="#0e0e0e" stroke-width=".999997"/>
  <path d="m11.8817 3.92034h-1.76341v5.29024h1.76341z" fill="#0e0e0e" stroke-width=".999997"/>
</svg>
