<?xml version="1.0" encoding="UTF-8" standalone="no"?>
<svg
   xmlns:dc="http://purl.org/dc/elements/1.1/"
   xmlns:cc="http://creativecommons.org/ns#"
   xmlns:rdf="http://www.w3.org/1999/02/22-rdf-syntax-ns#"
   xmlns:svg="http://www.w3.org/2000/svg"
   xmlns="http://www.w3.org/2000/svg"
   width="40"
   height="22"
   version="1.1"
   id="svg22">
  <metadata
     id="metadata28">
    <rdf:RDF>
      <cc:Work
         rdf:about="">
        <dc:format>image/svg+xml</dc:format>
        <dc:type
           rdf:resource="http://purl.org/dc/dcmitype/StillImage" />
        <dc:title></dc:title>
      </cc:Work>
    </rdf:RDF>
  </metadata>
  <defs
     id="defs26" />
  <path
     style="color:#000000;font-style:normal;font-variant:normal;font-weight:normal;font-stretch:normal;font-size:12px;line-height:1.25;font-family:sans-serif;font-variant-ligatures:normal;font-variant-position:normal;font-variant-caps:normal;font-variant-numeric:normal;font-variant-alternates:normal;font-feature-settings:normal;text-indent:0;text-align:start;text-decoration:none;text-decoration-line:none;text-decoration-style:solid;text-decoration-color:#000000;letter-spacing:0px;word-spacing:0px;text-transform:none;writing-mode:lr-tb;direction:ltr;text-orientation:mixed;dominant-baseline:auto;baseline-shift:baseline;text-anchor:start;white-space:normal;shape-padding:0;clip-rule:nonzero;display:inline;overflow:visible;visibility:visible;opacity:1;isolation:auto;mix-blend-mode:normal;color-interpolation:sRGB;color-interpolation-filters:linearRGB;solid-color:#000000;solid-opacity:1;vector-effect:none;fill:#000001;fill-opacity:1;fill-rule:nonzero;stroke:none;stroke-width:1.6;stroke-linecap:round;stroke-linejoin:round;stroke-miterlimit:4;stroke-dasharray:none;stroke-dashoffset:0;stroke-opacity:1;color-rendering:auto;image-rendering:auto;shape-rendering:auto;text-rendering:auto;enable-background:accumulate"
     d="m 14.775561,6.0446365 a 0.80008001,0.80008001 0 0 0 -0.753906,0.5351563 l -3.023437,8.6015632 a 0.80008001,0.80008001 0 0 0 0.753906,1.066406 h 1.957031 A 0.80008001,0.80008001 0 0 0 14.47478,15.679403 L 14.923999,14.2087 h 1.9375 l 0.449219,1.470703 a 0.80008001,0.80008001 0 0 0 0.765624,0.568359 h 1.957032 a 0.80008001,0.80008001 0 0 0 0.537109,-0.210937 0.80008001,0.80008001 0 0 0 0.541016,0.210937 h 5.289062 a 0.80008001,0.80008001 0 0 0 0.744141,-0.507812 0.80008001,0.80008001 0 0 0 0.74414,0.507812 h 1.816407 a 0.80008001,0.80008001 0 0 0 0.800781,-0.800781 v -2.044922 l 1.533203,2.466797 a 0.80008001,0.80008001 0 0 0 0.677735,0.378906 h 2.0625 A 0.80008001,0.80008001 0 0 0 35.457202,15.0212 L 32.746264,10.722372 35.384936,7.3766678 A 0.80008001,0.80008001 0 0 0 34.75603,6.0797928 h -2.015625 a 0.80008001,0.80008001 0 0 0 -0.625,0.3027343 L 30.50603,8.4020584 V 6.880574 A 0.80008001,0.80008001 0 0 0 29.705249,6.0797928 H 27.888842 A 0.80008001,0.80008001 0 0 0 27.090014,6.880574 v 6.660157 A 0.80008001,0.80008001 0 0 0 26.400561,13.1462 H 23.726733 V 6.880574 A 0.80008001,0.80008001 0 0 0 22.927905,6.0797928 H 21.111499 A 0.80008001,0.80008001 0 0 0 20.310718,6.880574 v 6.951173 L 17.752124,6.5797928 A 0.80008001,0.80008001 0 0 0 16.998218,6.0446365 Z M 5.0450931,6.0797928 A 0.80008001,0.80008001 0 0 0 4.2443118,6.880574 V 8.3922928 A 0.80008001,0.80008001 0 0 0 5.0450931,9.193074 h 1.5253906 v 6.253907 a 0.80008001,0.80008001 0 0 0 0.7988281,0.800781 H 9.1857181 A 0.80008001,0.80008001 0 0 0 9.9864992,15.446981 V 9.193074 H 11.513842 A 0.80008001,0.80008001 0 0 0 12.312671,8.3922928 V 6.880574 A 0.80008001,0.80008001 0 0 0 11.513842,6.0797928 Z M 7.7364994,7.6813552 H 8.8224368 A 0.80008001,0.80008001 0 0 0 8.38689,8.3922928 V 14.6462 H 8.1700931 V 8.3922928 A 0.80008001,0.80008001 0 0 0 7.7364994,7.6813552 Z m 14.1738276,0 h 0.216797 v 6.2656258 a 0.80008001,0.80008001 0 0 0 0.412109,0.699219 h -0.628906 z m 6.779297,0 h 0.216797 v 3.1191418 a 0.80008001,0.80008001 0 0 0 0.572265,0.767578 l -0.238281,0.169922 a 0.80008001,0.80008001 0 0 0 -0.333984,0.650391 V 14.6462 h -0.216797 z m 2.644531,2.2480469 -0.193359,0.2460949 a 0.80008001,0.80008001 0 0 0 -0.04883,0.921875 L 33.330249,14.6462 H 33.16228 l -2.009766,-3.230469 a 0.80008001,0.80008001 0 0 0 -0.634765,-0.376953 l 0.542969,-0.765625 z m -16.818359,0.072266 c -0.17609,0.587056 -0.219359,0.763289 -0.492188,1.646485 a 0.80008001,0.80008001 0 0 0 0.423828,0.958985 h -0.117187 a 0.80008001,0.80008001 0 0 0 -0.763672,0.568359 L 13.117358,14.6462 h -0.234375 z m 2.84375,0.277344 1.541015,4.367188 h -0.234375 l -0.447265,-1.470703 a 0.80008001,0.80008001 0 0 0 -0.763672,-0.568359 h -0.0957 A 0.80008001,0.80008001 0 0 0 17.785327,11.6462 c -0.250787,-0.806953 -0.27025,-0.866083 -0.425781,-1.367188 z m -1.462891,0.6875 c 0.01458,0.04695 0.02183,0.068 0.03711,0.117188 h -0.07227 c 0.01492,-0.04895 0.02071,-0.06966 0.03516,-0.117188 z"
     id="text847" />
  <g
     transform="translate(-0.08771931,0.14619885)"
     aria-label="TALK"
     style="font-style:normal;font-weight:normal;font-size:40px;line-height:1.25;font-family:sans-serif;letter-spacing:0px;word-spacing:0px;fill:#918273;fill-opacity:1;stroke:none;stroke-width:1.6;stroke-miterlimit:4;stroke-dasharray:none;stroke-opacity:1"
     id="text847-3">
    <path
       d="M 9.2744141,15.300781 H 7.4580078 V 8.2460938 H 5.1318359 V 6.734375 H 11.600586 V 8.2460938 H 9.2744141 Z"
       style="font-style:normal;font-variant:normal;font-weight:bold;font-stretch:normal;font-size:12px;font-family:'Open Sans';-inkscape-font-specification:'Open Sans Bold';fill:#918273;fill-opacity:1;stroke:none;stroke-width:1.6;stroke-miterlimit:4;stroke-dasharray:none;stroke-opacity:1"
       id="path962" />
    <path
       d="m 18.163086,15.300781 -0.621094,-2.039062 h -3.123047 l -0.621093,2.039062 H 11.84082 l 3.023438,-8.6015623 h 2.220703 l 3.035156,8.6015623 z m -1.054688,-3.5625 Q 16.24707,8.9667969 16.135742,8.6035156 16.030273,8.2402344 15.983398,8.0292969 q -0.193359,0.75 -1.107421,3.7089841 z"
       style="font-style:normal;font-variant:normal;font-weight:bold;font-stretch:normal;font-size:12px;font-family:'Open Sans';-inkscape-font-specification:'Open Sans Bold';fill:#918273;fill-opacity:1;stroke:none;stroke-width:1.6;stroke-miterlimit:4;stroke-dasharray:none;stroke-opacity:1"
       id="path964" />
    <path
       d="M 21.198242,15.300781 V 6.734375 h 1.816406 v 7.066406 h 3.47461 v 1.5 z"
       style="font-style:normal;font-variant:normal;font-weight:bold;font-stretch:normal;font-size:12px;font-family:'Open Sans';-inkscape-font-specification:'Open Sans Bold';fill:#918273;fill-opacity:1;stroke:none;stroke-width:1.6;stroke-miterlimit:4;stroke-dasharray:none;stroke-opacity:1"
       id="path966" />
    <path
       d="m 34.868164,15.300781 h -2.0625 l -2.244141,-3.609375 -0.767578,0.550782 v 3.058593 H 27.977539 V 6.734375 h 1.816406 v 3.919922 L 30.508789,9.6464844 32.829102,6.734375 h 2.015625 l -2.988282,3.791016 z"
       style="font-style:normal;font-variant:normal;font-weight:bold;font-stretch:normal;font-size:12px;font-family:'Open Sans';-inkscape-font-specification:'Open Sans Bold';fill:#918273;fill-opacity:1;stroke:none;stroke-width:1.6;stroke-miterlimit:4;stroke-dasharray:none;stroke-opacity:1"
       id="path968" />
  </g>
</svg>
