<svg width="36" height="36" version="1.1" viewBox="0 0 18 18" xmlns="http://www.w3.org/2000/svg">
  <path d="m9 3.4062c-3.087804 0-5.5938 2.505996-5.5938 5.5938s2.505996 5.5938 5.5938 5.5938 5.5938-2.505996 5.5938-5.5938-2.505996-5.5938-5.5938-5.5938z" fill="#4097ba"/>
  <path d="m9 2c-3.8675 0-7 3.1325-7 7s3.1325 7 7 7 7-3.1325 7-7-3.132-7-7-7zm0 1.4062c3.094 0 5.5938 2.4998 5.5938 5.5938s-2.4998 5.5938-5.5938 5.5938-5.5938-2.4998-5.5938-5.5938 2.4998-5.5938 5.5938-5.5938z" fill="#777"/>
</svg>
