<svg width="48" height="48" version="1.1" viewBox="0 0 24 24" xmlns="http://www.w3.org/2000/svg">
  <path d="m16.558627 3.6006547c-1.283079-0.0085-2.186428 0.555483-2.634766 1.275391-0.448338 0.719906-0.503006 1.504887-0.503906 2.035156-8.97e-4 0.512332-1.57e-4 1.612782 0 1.86914h-0.607422c-0.372566 0-0.745117 0.3573505-0.745117 0.7148445v3.7373028c0 0.357495 0.372543 0.714844 0.745117 0.714844h7.450195c0.372565 0 0.746094-0.357349 0.746094-0.714844v-3.7373028c0-0.357494-0.373519-0.7148445-0.746094-0.7148445h-0.608398c-7.41e-4 -0.323841-0.0042-1.747529 0-2.242187 0.0031-0.369086-0.04609-1.052865-0.488281-1.714844-0.442191-0.661984-1.321423-1.214157-2.607422-1.222656zm-0.0078 1.316406c0.955426 0.0063 1.299799 0.307769 1.519531 0.636719s0.269262 0.773178 0.267578 0.972656c-0.0044 0.522069-7.9e-4 1.926915 0 2.253906h-3.601565c-1.55e-4 -0.257108-8.9e-4 -1.359972 0-1.867187 7.09e-4 -0.417163 0.07229-0.968636 0.304688-1.341797 0.232394-0.373161 0.565823-0.660544 1.509765-0.654297zm-2.695313 5.5859363h5.365235c0.247686 0 0.447266 0.192104 0.447266 0.430664 0 0.238559-0.19958 0.430664-0.447266 0.430664h-5.365237c-0.247686 0-0.447266-0.192105-0.447266-0.430664 0-0.23856 0.19958-0.430664 0.447266-0.430664zm0 1.72168h5.365235c0.247686 0 0.447266 0.192105 0.447266 0.430664 0 0.238558-0.19958 0.430665-0.447266 0.430665h-5.365237c-0.247686 0-0.447266-0.192106-0.447266-0.430665s0.19958-0.430664 0.447266-0.430664z" color="#000000" fill="none" stroke="#000" stroke-width="1.4"/>
  <path d="m16.558627 3.6006547c-1.283079-0.0085-2.186428 0.555483-2.634766 1.275391-0.448338 0.719906-0.503006 1.504887-0.503906 2.035156-8.97e-4 0.512332-1.57e-4 1.612782 0 1.86914h-0.607422c-0.372566 0-0.745117 0.3573505-0.745117 0.7148445v3.7373028c0 0.357495 0.372543 0.714844 0.745117 0.714844h7.450195c0.372565 0 0.746094-0.357349 0.746094-0.714844v-3.7373028c0-0.357494-0.373519-0.7148445-0.746094-0.7148445h-0.608398c-7.41e-4 -0.323841-0.0042-1.747529 0-2.242187 0.0031-0.369086-0.04609-1.052865-0.488281-1.714844-0.442191-0.661984-1.321423-1.214157-2.607422-1.222656zm-0.0078 1.316406c0.955426 0.0063 1.299799 0.307769 1.519531 0.636719s0.269262 0.773178 0.267578 0.972656c-0.0044 0.522069-7.9e-4 1.926915 0 2.253906h-3.601565c-1.55e-4 -0.257108-8.9e-4 -1.359972 0-1.867187 7.09e-4 -0.417163 0.07229-0.968636 0.304688-1.341797 0.232394-0.373161 0.565823-0.660544 1.509765-0.654297zm-2.695313 5.5859363h5.365235c0.247686 0 0.447266 0.192104 0.447266 0.430664 0 0.238559-0.19958 0.430664-0.447266 0.430664h-5.365237c-0.247686 0-0.447266-0.192105-0.447266-0.430664 0-0.23856 0.19958-0.430664 0.447266-0.430664zm0 1.72168h5.365235c0.247686 0 0.447266 0.192105 0.447266 0.430664 0 0.238558-0.19958 0.430665-0.447266 0.430665h-5.365237c-0.247686 0-0.447266-0.192106-0.447266-0.430665s0.19958-0.430664 0.447266-0.430664z" color="#000000" fill="#afa499" style="-inkscape-stroke:none"/>
  <path d="m6.22828 6c-0.707601 0-1.23828 0.615582-1.23828 1.2793v9.44141c0 0.663715 0.53068 1.2793 1.23828 1.2793h3.7617205v3l6.9999985-3.75-6.9999985-3.75v2.99023h-3.4902305v-8.98047h1.49023v-1.50977z" fill="#918273" stroke="#000" stroke-linecap="round" stroke-linejoin="round" stroke-width="1.6"/>
  <path d="m6.22828 5.999995c-0.707601 0-1.23828 0.615582-1.23828 1.2793v9.44141c0 0.663715 0.53068 1.2793 1.23828 1.2793h4.328121v-1.50977h-4.056641v-8.98047h1.49023v-1.50977z" fill="#766a5d"/>
  <path d="m9.9900005 13.5v7.5l7.0000005-3.75z" fill="#766a5d"/>
</svg>
