<?xml version="1.0" encoding="UTF-8" standalone="no"?>
<svg
   xmlns:dc="http://purl.org/dc/elements/1.1/"
   xmlns:cc="http://creativecommons.org/ns#"
   xmlns:rdf="http://www.w3.org/1999/02/22-rdf-syntax-ns#"
   xmlns:svg="http://www.w3.org/2000/svg"
   xmlns="http://www.w3.org/2000/svg"
   id="svg6"
   viewBox="0 0 18 18"
   version="1.1">
  <metadata
     id="metadata12">
    <rdf:RDF>
      <cc:Work
         rdf:about="">
        <dc:format>image/svg+xml</dc:format>
        <dc:type
           rdf:resource="http://purl.org/dc/dcmitype/StillImage" />
        <dc:title></dc:title>
      </cc:Work>
    </rdf:RDF>
  </metadata>
  <defs
     id="defs10" />
  <path
     style="fill:#4097ba;fill-opacity:1"
     id="path2"
     fill="#e49100"
     d="m9 5.1042c-2.1505 0-3.8958 1.7453-3.8958 3.8958s1.7453 3.8958 3.8958 3.8958 3.8958-1.7453 3.8958-3.8958-1.7453-3.8958-3.8958-3.8958z" />
  <path
     style="fill:#777777;fill-opacity:1"
     id="path4"
     fill="#a89a8c"
     d="m9 2c-3.8675 0-7 3.1325-7 7s3.1325 7 7 7 7-3.1325 7-7-3.132-7-7-7zm0 1.4062c3.094 0 5.5938 2.4998 5.5938 5.5938s-2.4998 5.5938-5.5938 5.5938-5.5938-2.4998-5.5938-5.5938 2.4998-5.5938 5.5938-5.5938z" />
</svg>
