<?xml version="1.0" encoding="UTF-8" standalone="no"?>
<svg
   xmlns:dc="http://purl.org/dc/elements/1.1/"
   xmlns:cc="http://creativecommons.org/ns#"
   xmlns:rdf="http://www.w3.org/1999/02/22-rdf-syntax-ns#"
   xmlns:svg="http://www.w3.org/2000/svg"
   xmlns="http://www.w3.org/2000/svg"
   width="11"
   height="15"
   version="1.1"
   id="svg4">
  <metadata
     id="metadata10">
    <rdf:RDF>
      <cc:Work
         rdf:about="">
        <dc:format>image/svg+xml</dc:format>
        <dc:type
           rdf:resource="http://purl.org/dc/dcmitype/StillImage" />
        <dc:title></dc:title>
      </cc:Work>
    </rdf:RDF>
  </metadata>
  <defs
     id="defs8" />
  <g
     aria-label="M"
     id="text838-3"
     style="font-style:normal;font-weight:normal;font-size:40px;line-height:1.25;font-family:sans-serif;letter-spacing:0px;word-spacing:0px;fill:#a89a8c;fill-opacity:1;stroke:none" />
  <path
     d="M 4.7154968,9.5081967 2.3541632,4.5690065 H 2.30208 C 2.375865,5.7495591 2.4127568,7.3381224 2.4127568,8.3711059 V 12 H 1 V 3 h 2.1940048 l 2.2441464,5.053391 h 0.039062 L 7.7994849,3 H 10 v 9 H 8.5026081 V 8.2929811 c 0,-0.4730891 0.010851,-1.089407 0.032552,-1.8489537 0.026041,-0.7595467 0.047743,-1.7014102 0.065104,-1.8620001 H 8.5481809 L 6.0891912,9.5081967 Z"
     style="font-style:normal;font-variant:normal;font-weight:600;font-stretch:normal;font-size:13.3333px;line-height:1.25;font-family:'Open Sans';-inkscape-font-specification:'Open Sans Semi-Bold';letter-spacing:0px;word-spacing:0px;fill:#f0bb2b;fill-opacity:1;stroke:none;stroke-width:1.6;stroke-linejoin:round;stroke-miterlimit:4;stroke-dasharray:none;stroke-opacity:1"
     id="path885-5" />
  <path
     id="path885-5-3"
     style="font-style:normal;font-variant:normal;font-weight:600;font-stretch:normal;font-size:13.3333px;line-height:1.25;font-family:'Open Sans';-inkscape-font-specification:'Open Sans Semi-Bold';letter-spacing:0px;word-spacing:0px;fill:none;fill-opacity:1;stroke:none"
     d="M 4.7154968,9.5081967 2.3541632,4.5690065 H 2.30208 C 2.375865,5.7495591 2.4127568,7.3381224 2.4127568,8.3711059 V 12 H 1 V 3 h 2.1940048 l 2.2441464,5.053391 h 0.039062 L 7.7994849,3 H 10 v 9 H 8.5026081 V 8.2929811 c 0,-0.4730891 0.010851,-1.089407 0.032552,-1.8489537 0.026041,-0.7595467 0.047743,-1.7014102 0.065104,-1.8620001 H 8.5481809 L 6.0891912,9.5081967 Z" />
</svg>
