<svg width="16" height="16" version="1.1" viewBox="0 0 16 16" xmlns="http://www.w3.org/2000/svg">
  <path d="M 42.918766,1 41,2.9187661 46.11671,8 41,13.081234 42.918766,15 48,9.8832905 53.081234,15 55,13.081234 49.88329,8 55,2.9187661 53.081234,1 48,6.1167097 Z" fill="#01a7ff" font-family="Sans" font-weight="400" overflow="visible" stroke-width="1.13704" style="text-indent:0;text-transform:none"/>
  <circle cx="28" cy="8" r="5.65899" fill="none" stroke="#01a7ff" stroke-linecap="round" stroke-linejoin="round" stroke-width="1.70841" style="paint-order:markers fill stroke"/>
  <path d="m2.24711 1-1.24711 1.24711c1.40822 1.40822 2.73561 3.91095 2.73561 5.75289s-1.32738 4.34465-2.73561 5.75288l1.24711 1.24712c1.40822-1.40822 3.91095-2.73561 5.75289-2.73561s4.34465 1.32738 5.75289 2.73561l1.24712-1.24712c-1.40822-1.40822-2.73561-3.91095-2.73561-5.75288s1.32738-4.34465 2.73561-5.75289l-1.24712-1.24711c-1.40822 1.40822-3.91095 2.73561-5.75289 2.73561-1.8418 0-4.34465-1.32738-5.75289-2.73561zm2.53452 3.78157c1.09057 0.472378 2.21706 0.764347 3.21836 0.76436 1.00124-1.5e-5 2.12772-0.291982 3.21836-0.76436-0.472378 1.09057-0.764348 2.21706-0.76436 3.21836 1.5e-5 1.00124 0.291982 2.12772 0.76436 3.21836-1.09057-0.472378-2.21706-0.764347-3.21836-0.76436-1.00124 1.6e-5 -2.12772 0.291982-3.21836 0.76436 0.472378-1.09057 0.764347-2.21706 0.76436-3.21836-1.55e-5 -1.00124-0.291982-2.12772-0.76436-3.21836z" fill="#01a7ff" stroke-width=".874998"/>
</svg>
