<svg width="21" height="18" version="1.1" viewBox="0 0 21 18" xmlns="http://www.w3.org/2000/svg">
  <path d="m9.156 4c-2.7614 0-5 2.2386-5 5s2.2386 5 5 5h7.844v-3h-7.969c-1.1046 0-2-0.89543-2-2 0-1.1046 0.89543-2 2-2h7.969v-3z" stroke="#000" stroke-linecap="round" stroke-linejoin="round" stroke-width="1.8"/>
  <g fill="#444">
    <path d="m9.156 4c-2.7614 0-5 2.2386-5 5s2.2386 5 5 5h3.8438v-3h-3.9688c-1.1046 0-2-0.89543-2-2 0-1.1046 0.89543-2 2-2h3.9688v-3z"/>
    <path d="m17 11h-3v3h3z"/>
    <path d="m17 4h-2.9896v3h2.9896z"/>
  </g>
</svg>
