<svg width="512" height="512" version="1.1" viewBox="0 0 512 512" xmlns="http://www.w3.org/2000/svg">
  <g transform="translate(-23.6434 7e-5)" fill="#a89a8c">
    <path d="m279.647 171.882c-26.0658 0-52.1305 0.0299-71.9053 0.0877l-71.9086 0.20917 11.3964 144.281c7.26636 91.9973 11.8851 146.216 12.7458 149.623 2.4022 9.50895 6.88437 16.9373 14.657 24.2839 7.88017 7.44816 14.4059 11.1211 24.0055 13.515 5.96413 1.48733 10.3043 1.57485 80.6566 1.61768 71.3036 0.0434 74.6271-0.0215 81.0244-1.57888 9.85632-2.39955 16.3474-6.02487 24.294-13.5724 7.85903-7.46439 12.3254-14.9692 14.6857-24.6752 0.90639-3.72716 5.40827-56.4458 12.7779-149.625l11.3778-143.87-71.9019-0.20917c-19.7733-0.0578-45.8395-0.0877-71.9053-0.0877zm79.2009 23.4725c1.92031 0.0545 3.91687 0.65563 5.89385 1.87747 4.29268 2.65302 5.9201 6.92117 5.75552 15.1006-0.0764 3.80014-2.86136 62.8749-6.18904 131.277-6.57263 135.104-5.97739 128.117-11.2479 131.77-4.70407 3.26046-10.5099 2.49862-14.178-1.86059-1.87869-2.2327-2.2317-3.50477-2.2317-8.05808 0-5.74085 8.32212-242.815 8.888-253.194 0.56337-10.3327 6.45099-17.1069 13.3092-16.9123zm-79.5113 0.22773c4.38547-0.10444 8.72138 2.47334 10.9915 7.105 1.52928 3.12018 1.6007 6.17808 1.40345 60.4448-0.11427 31.4373-0.45063 90.7942-0.74728 131.905-0.50093 69.4213-0.6481 74.9122-2.06301 77.0704-0.83789 1.27804-2.39249 2.86626-3.45466 3.52889-6.30109 3.93089-14.3032 0.80068-16.1263-6.30712-0.65167-2.54075-2.5629-242.038-2.06302-258.521 0.18575-6.12512 2.35757-10.777 6.23797-13.3615 1.82416-1.215 3.82792-1.8165 5.82131-1.86396zm-78.8686 7e-3c5.49185 0.14786 11.0588 4.33427 12.5198 12.0829 0.48348 2.56393 2.8998 62.4209 5.37092 133.016 4.87989 139.423 4.88156 131.263-0.0304 134.685-2.86392 1.99523-5.87605 2.50847-9.21188 1.56878-2.9698-0.83662-6.927-4.95017-7.64816-7.95012-1.01291-4.21309-13.1912-261.604-12.4928-264.039 1.8586-6.48061 6.64675-9.49416 11.4925-9.36369z"/>
    <path d="m197.352 25.9162c5.91021-9.37875 14.1004-14.3563 23.6647-14.3822l5.25609-0.01419 75.2568 40.8141 3.50577-4.10482c7.29902-8.54633 17.9694-13.6494 27.6148-13.2066l4.78273 0.219524 31.3999 17.2831c30.624 16.856 31.4654 17.372 34.0496 20.8808 5.51991 7.49508 7.17444 22.5738 3.50975 31.9865l-1.49873 3.84943 74.8485 41.792 2.7998 4.44829c5.09476 8.0945 5.27082 17.677 0.50871 27.6877l-2.88036 6.05495-286.393-157.636z"/>
  </g>
</svg>
