<svg width="18" height="18" version="1.1" viewBox="0 0 18 18" xmlns="http://www.w3.org/2000/svg">
  <path d="m9 1.6269531c-4.0626828 0-7.3725097 3.3103487-7.3710938 7.3730469-0.0014159 4.062698 3.308411 7.373047 7.3710938 7.373047 4.062683 0 7.37251-3.310349 7.371094-7.373047 0.001416-4.0626982-3.308411-7.3730469-7.371094-7.3730469zm0 1.5703125c3.213505 0 5.801901 2.5892072 5.800781 5.8027344 0.00112 3.213527-2.587276 5.802734-5.800781 5.802734s-5.8019013-2.589207-5.8007812-5.802734c-0.0011201-3.2135272 2.5872762-5.8027344 5.8007812-5.8027344z" color="#000001" style="-inkscape-stroke:none"/>
  <path d="m8 4.2089844v6.4492186l4.330078 1.869141 0.792969-1.835938-3.123047-1.3496091v-5.1328125z" color="#000000" style="-inkscape-stroke:none"/>
</svg>
