<svg width="10" height="12" version="1.1" xmlns="http://www.w3.org/2000/svg">
  <g transform="translate(0,-20)">
    <path transform="translate(0,20)" d="m4.9766 0c-1.4489.01-2.4418.65947-2.9336 1.4238l1.26172.81059c.2485-.38625.62385-.7271 1.6816-.73438 1.0447-.00718 1.407.31941 1.6699.75781.26297.4384.34296 1.0862.34375 1.5742.0009639.58906.0001684 1.8689 0 2.168h-6.166c-.41667 0-.83398.41498-.83398.83008v4.3398c0 .4151.41732.83008.83398.83008h8.332c.41667 0 .83398-.41498.83398-.83008v-4.3398c0-.4151-.41732-.83008-.83398-.83008h-.66602c.000169-.29836.0009685-1.5773 0-2.1719-.0009966-.61214-.060246-1.5129-.55859-2.3438-.49835-.83081-1.5189-1.4943-2.9648-1.4844zm-2.9766 8h6c.277 0 .5.223.5.5s-.223.5-.5.5h-6c-.277 0-.5-.223-.5-.5s.223-.5.5-.5zm0 2h6c.277 0 .5.223.5.5s-.223.5-.5.5h-6c-.277 0-.5-.223-.5-.5s.223-.5.5-.5z" color="#000001" color-rendering="auto" dominant-baseline="auto" fill="#979797" fill-opacity=".50196" image-rendering="auto" shape-rendering="auto" solid-color="#000001" style="font-feature-settings:normal;font-variant-alternates:normal;font-variant-caps:normal;font-variant-ligatures:normal;font-variant-numeric:normal;font-variant-position:normal;isolation:auto;mix-blend-mode:normal;shape-padding:0;text-decoration-color:#000001;text-decoration-line:none;text-decoration-style:solid;text-indent:0;text-orientation:mixed;text-transform:none;white-space:normal"/>
  </g>
</svg>
