<?xml version="1.0" encoding="UTF-8" standalone="no"?>
<svg
   xmlns:dc="http://purl.org/dc/elements/1.1/"
   xmlns:cc="http://creativecommons.org/ns#"
   xmlns:rdf="http://www.w3.org/1999/02/22-rdf-syntax-ns#"
   xmlns:svg="http://www.w3.org/2000/svg"
   xmlns="http://www.w3.org/2000/svg"
   id="svg6"
   version="1.1"
   height="22"
   width="22">
  <metadata
     id="metadata12">
    <rdf:RDF>
      <cc:Work
         rdf:about="">
        <dc:format>image/svg+xml</dc:format>
        <dc:type
           rdf:resource="http://purl.org/dc/dcmitype/StillImage" />
        <dc:title></dc:title>
      </cc:Work>
    </rdf:RDF>
  </metadata>
  <defs
     id="defs10" />
  <path
     style="stroke-width:0.999997"
     id="path2"
     fill="#0e0e0e"
     d="m 14.522007,6.4032643 -1.114809,1.1148096 c 1.330789,0.8139584 2.221861,2.2758562 2.221861,3.9500041 0,2.557468 -2.071436,4.628981 -4.628981,4.628981 -2.5575459,0 -4.6289816,-2.071513 -4.6289816,-4.628981 0,-1.6741479 0.8910719,-3.1360457 2.2218613,-3.9500041 L 7.4781481,6.4032643 c -1.6008417,1.1148096 -2.6500972,2.966309 -2.6500972,5.0648137 0,3.409984 2.761966,6.171872 6.1719491,6.171872 3.409983,0 6.171949,-2.761888 6.171949,-6.171872 0,-2.0985047 -1.049255,-3.9500041 -2.650097,-5.0648137 z" />
  <path
     id="path4"
     stroke-width="0.999997"
     fill="#0e0e0e"
     d="m 11.881706,3.9203364 h -1.763414 v 5.2902424 h 1.763414 z" />
</svg>
