<svg width="32" height="32" version="1.1" xmlns="http://www.w3.org/2000/svg" viewBox="0 0 16 16">
  <g transform="matrix(.774637 0 0 .774637 19.5076 .200978)" fill="none" stroke="#000001" stroke-linecap="round" stroke-linejoin="round" stroke-width="2.06548" aria-label="♪">
    <path d="m-14.6232 1.77188h1.13281l0.104167 0.091146v0.507812c0.234375 0.46875 1.10243 0.976562 2.60417 1.52344 2.08333 0.607639 3.125 1.51042 3.125 2.70833 0 1.26736-0.529514 2.31771-1.58854 3.15104h-0.05208l-0.390625-0.416667c0.529514-0.425347 0.794271-1.0026 0.794271-1.73177 0-0.607639-0.989583-1.21962-2.96875-1.83594-0.798611-0.364583-1.30642-0.659722-1.52344-0.885417v11.2984c0 1.32812-0.972222 2.1875-2.91667 2.57812h-0.742187c-2.1007 0-3.15104-0.729167-3.15104-2.1875 0-1.13715 0.920139-1.80556 2.76042-2.00521h0.299479c0.833333 0 1.63628 0.277778 2.40885 0.833333v-13.5379z" fill="none" stroke="#000001" stroke-linecap="round" stroke-linejoin="round" stroke-width="2.06548"/>
  </g>
  <g transform="matrix(.774637 0 0 .774637 19.5076 .200977)" fill="#a89a8c" aria-label="♪">
    <path d="m-14.6232 1.77188h1.13281l0.104167 0.091146v0.507812c0.234375 0.46875 1.10243 0.976562 2.60417 1.52344 2.08333 0.607639 3.125 1.51042 3.125 2.70833 0 1.26736-0.529514 2.31771-1.58854 3.15104h-0.05208l-0.390625-0.416667c0.529514-0.425347 0.794271-1.0026 0.794271-1.73177 0-0.607639-0.989583-1.21962-2.96875-1.83594-0.798611-0.364583-1.30642-0.659722-1.52344-0.885417v11.2984c0 1.32812-0.972222 2.1875-2.91667 2.57812h-0.742187c-2.1007 0-3.15104-0.729167-3.15104-2.1875 0-1.13715 0.920139-1.80556 2.76042-2.00521h0.299479c0.833333 0 1.63628 0.277778 2.40885 0.833333v-13.5379z" fill="#a89a8c" stroke-width="1.29093"/>
  </g>
</svg>
