<svg width="80" height="44" version="1.1" xmlns="http://www.w3.org/2000/svg" viewBox="0 0 40 22">
  <g transform="translate(-.0877193 .146199)" fill="#0f0e0c" aria-label="TALK">
    <path d="m9.27441 15.3008h-1.81641v-7.05469h-2.32617v-1.51172h6.46875v1.51172h-2.32617z"/>
    <path d="m18.1631 15.3008-0.621094-2.03906h-3.12305l-0.621093 2.03906h-1.95703l3.02344-8.60156h2.2207l3.03516 8.60156zm-1.05469-3.5625q-0.861328-2.77148-0.972656-3.13477-0.105469-0.363281-0.152344-0.574219-0.193359 0.75-1.10742 3.70898z"/>
    <path d="m21.1982 15.3008v-8.56641h1.81641v7.06641h3.47461v1.5z"/>
    <path d="m34.8682 15.3008h-2.0625l-2.24414-3.60938-0.767578 0.550782v3.05859h-1.81641v-8.56641h1.81641v3.91992l0.714844-1.00781 2.32031-2.91211h2.01562l-2.98828 3.79102z"/>
  </g>
</svg>
