<svg width="64" height="40" version="1.1" viewBox="0 0 8.4667 5.2917" xmlns="http://www.w3.org/2000/svg">
  <defs>
    <linearGradient id="a" x1="9.315" x2="9.315" y1="14.726" y2="1.0256" gradientTransform="matrix(.26458 0 0 .26458 0 291.71)" gradientUnits="userSpaceOnUse">
      <stop stop-color="#80766b" offset="0"/>
      <stop stop-color="#a89a8c" offset="1"/>
    </linearGradient>
  </defs>
  <g transform="translate(0 -291.71)" fill="url(#a)" stroke-width=".26458">
    <rect x=".26458" y="293.56" width="2.1167" height="1.5875" rx=".26458" ry=".26458" style="paint-order:fill markers stroke"/>
    <path d="m3.4396 293.56c-0.14658 0-0.26458 0.11801-0.26458 0.26459h0.26458zm0.26458 0v0.26459h0.26458v-0.26459zm0.52917 0v0.26459h0.26458v-0.26459zm0.52917 0v0.26459h0.52917c0-0.14658-0.118-0.26459-0.26458-0.26459zm-1.5875 0.52917v0.26458h0.26458v-0.26458zm1.8521 0v0.26458h0.26458v-0.26458zm-1.8521 0.52917v0.26458c0 0.14658 0.118 0.26458 0.26458 0.26458v-0.52916zm1.8521 0c0 0.14658-0.118 0.26458-0.26458 0.26458v0.26458h0.26458c0.14658 0 0.26458-0.118 0.26458-0.26458v-0.26458zm-1.3229 0.26458v0.26458h0.26458v-0.26458zm0.52917 0v0.26458h0.26458v-0.26458z" style="paint-order:fill markers stroke"/>
    <path d="m6.35 293.56c-0.14658 0-0.26458 0.11801-0.26458 0.26459v1.0583c0 0.14658 0.118 0.26458 0.26458 0.26458h1.5875c0.14658 0 0.26458-0.118 0.26458-0.26458v-1.0583c0-0.14658-0.118-0.26459-0.26458-0.26459zm0.26458 0.26459h1.0583c0.14658 0 0.26458 0.118 0.26458 0.26458v0.52917c0 0.14658-0.118 0.26458-0.26458 0.26458h-1.0583c-0.14658 0-0.26458-0.118-0.26458-0.26458v-0.52917c0-0.14658 0.118-0.26458 0.26458-0.26458z" style="paint-order:fill markers stroke"/>
  </g>
</svg>
