<?xml version="1.0" encoding="UTF-8" standalone="no"?>
<svg
   xmlns:dc="http://purl.org/dc/elements/1.1/"
   xmlns:cc="http://creativecommons.org/ns#"
   xmlns:rdf="http://www.w3.org/1999/02/22-rdf-syntax-ns#"
   xmlns:svg="http://www.w3.org/2000/svg"
   xmlns="http://www.w3.org/2000/svg"
   id="svg22"
   version="1.1"
   height="22"
   width="40">
  <metadata
     id="metadata28">
    <rdf:RDF>
      <cc:Work
         rdf:about="">
        <dc:format>image/svg+xml</dc:format>
        <dc:type
           rdf:resource="http://purl.org/dc/dcmitype/StillImage" />
        <dc:title></dc:title>
      </cc:Work>
    </rdf:RDF>
  </metadata>
  <defs
     id="defs26" />
  <path
     id="text847"
     d="m 14.863281,5.8984375 a 0.80008001,0.80008001 0 0 0 -0.753906,0.5351563 l -3.023437,8.6015622 a 0.80008001,0.80008001 0 0 0 0.753906,1.066406 h 1.957031 A 0.80008001,0.80008001 0 0 0 14.5625,15.533203 L 15.011719,14.0625 h 1.9375 l 0.449219,1.470703 a 0.80008001,0.80008001 0 0 0 0.765624,0.568359 h 1.957032 a 0.80008001,0.80008001 0 0 0 0.537109,-0.210937 0.80008001,0.80008001 0 0 0 0.541016,0.210937 h 5.289062 a 0.80008001,0.80008001 0 0 0 0.744141,-0.507812 0.80008001,0.80008001 0 0 0 0.74414,0.507812 h 1.816407 a 0.80008001,0.80008001 0 0 0 0.800781,-0.800781 v -2.044922 l 1.533203,2.466797 a 0.80008001,0.80008001 0 0 0 0.677735,0.378906 h 2.0625 A 0.80008001,0.80008001 0 0 0 35.544922,14.875 L 32.833984,10.576172 35.472656,7.2304688 A 0.80008001,0.80008001 0 0 0 34.84375,5.9335938 h -2.015625 a 0.80008001,0.80008001 0 0 0 -0.625,0.3027343 L 30.59375,8.2558594 V 6.734375 A 0.80008001,0.80008001 0 0 0 29.792969,5.9335938 H 27.976562 A 0.80008001,0.80008001 0 0 0 27.177734,6.734375 v 6.660156 A 0.80008001,0.80008001 0 0 0 26.488281,13 H 23.814453 V 6.734375 A 0.80008001,0.80008001 0 0 0 23.015625,5.9335938 H 21.199219 A 0.80008001,0.80008001 0 0 0 20.398438,6.734375 v 6.951172 L 17.839844,6.4335938 A 0.80008001,0.80008001 0 0 0 17.085938,5.8984375 Z M 5.1328125,5.9335938 A 0.80008001,0.80008001 0 0 0 4.3320312,6.734375 V 8.2460938 A 0.80008001,0.80008001 0 0 0 5.1328125,9.046875 h 1.5253906 v 6.253906 a 0.80008001,0.80008001 0 0 0 0.7988281,0.800781 H 9.2734375 A 0.80008001,0.80008001 0 0 0 10.074219,15.300781 V 9.046875 h 1.527343 A 0.80008001,0.80008001 0 0 0 12.400391,8.2460938 V 6.734375 A 0.80008001,0.80008001 0 0 0 11.601562,5.9335938 Z M 7.8242188,7.5351562 H 8.9101562 A 0.80008001,0.80008001 0 0 0 8.4746094,8.2460938 V 14.5 H 8.2578125 V 8.2460938 A 0.80008001,0.80008001 0 0 0 7.8242188,7.5351562 Z m 14.1738282,0 h 0.216797 V 13.800781 A 0.80008001,0.80008001 0 0 0 22.626953,14.5 h -0.628906 z m 6.779297,0 h 0.216797 v 3.1191408 a 0.80008001,0.80008001 0 0 0 0.572265,0.767578 l -0.238281,0.169922 a 0.80008001,0.80008001 0 0 0 -0.333984,0.650391 V 14.5 h -0.216797 z m 2.644531,2.2480469 -0.193359,0.2460939 a 0.80008001,0.80008001 0 0 0 -0.04883,0.921875 L 33.417969,14.5 H 33.25 l -2.009766,-3.230469 a 0.80008001,0.80008001 0 0 0 -0.634765,-0.376953 l 0.542969,-0.765625 z m -16.818359,0.072266 c -0.17609,0.5870552 -0.219359,0.7632882 -0.492188,1.6464842 a 0.80008001,0.80008001 0 0 0 0.423828,0.958985 h -0.117187 a 0.80008001,0.80008001 0 0 0 -0.763672,0.568359 L 13.205078,14.5 H 12.970703 Z M 17.447266,10.132812 18.988281,14.5 h -0.234375 l -0.447265,-1.470703 a 0.80008001,0.80008001 0 0 0 -0.763672,-0.568359 h -0.0957 A 0.80008001,0.80008001 0 0 0 17.873047,11.5 c -0.250787,-0.806953 -0.27025,-0.866083 -0.425781,-1.367188 z m -1.462891,0.6875 c 0.01458,0.04695 0.02183,0.068 0.03711,0.117188 h -0.07227 c 0.01492,-0.04895 0.02071,-0.06966 0.03516,-0.117188 z"
     style="color:#000000;font-style:normal;font-variant:normal;font-weight:normal;font-stretch:normal;font-size:12px;line-height:1.25;font-family:sans-serif;font-variant-ligatures:normal;font-variant-position:normal;font-variant-caps:normal;font-variant-numeric:normal;font-variant-alternates:normal;font-feature-settings:normal;text-indent:0;text-align:start;text-decoration:none;text-decoration-line:none;text-decoration-style:solid;text-decoration-color:#000000;letter-spacing:0px;word-spacing:0px;text-transform:none;writing-mode:lr-tb;direction:ltr;text-orientation:mixed;dominant-baseline:auto;baseline-shift:baseline;text-anchor:start;white-space:normal;shape-padding:0;clip-rule:nonzero;display:inline;overflow:visible;visibility:visible;opacity:1;isolation:auto;mix-blend-mode:normal;color-interpolation:sRGB;color-interpolation-filters:linearRGB;solid-color:#000000;solid-opacity:1;vector-effect:none;fill:#000001;fill-opacity:1;fill-rule:nonzero;stroke:none;stroke-width:1.60000002;stroke-linecap:round;stroke-linejoin:round;stroke-miterlimit:4;stroke-dasharray:none;stroke-dashoffset:0;stroke-opacity:1;color-rendering:auto;image-rendering:auto;shape-rendering:auto;text-rendering:auto;enable-background:accumulate" />
  <g
     id="text847-3"
     style="font-style:normal;font-weight:normal;font-size:40px;line-height:1.25;font-family:sans-serif;letter-spacing:0px;word-spacing:0px;fill:#a89a8c;fill-opacity:1;stroke:none;stroke-width:1.60000002;stroke-miterlimit:4;stroke-dasharray:none;stroke-opacity:1"
     aria-label="TALK">
    <path
       id="path962"
       style="font-style:normal;font-variant:normal;font-weight:bold;font-stretch:normal;font-size:12px;font-family:'Open Sans';-inkscape-font-specification:'Open Sans Bold';fill:#a89a8c;fill-opacity:1;stroke:none;stroke-width:1.60000002;stroke-miterlimit:4;stroke-dasharray:none;stroke-opacity:1"
       d="M 9.2744141,15.300781 H 7.4580078 V 8.2460938 H 5.1318359 V 6.734375 H 11.600586 V 8.2460938 H 9.2744141 Z" />
    <path
       id="path964"
       style="font-style:normal;font-variant:normal;font-weight:bold;font-stretch:normal;font-size:12px;font-family:'Open Sans';-inkscape-font-specification:'Open Sans Bold';fill:#a89a8c;fill-opacity:1;stroke:none;stroke-width:1.60000002;stroke-miterlimit:4;stroke-dasharray:none;stroke-opacity:1"
       d="m 18.163086,15.300781 -0.621094,-2.039062 h -3.123047 l -0.621093,2.039062 H 11.84082 l 3.023438,-8.6015623 h 2.220703 l 3.035156,8.6015623 z m -1.054688,-3.5625 Q 16.24707,8.9667969 16.135742,8.6035156 16.030273,8.2402344 15.983398,8.0292969 q -0.193359,0.75 -1.107421,3.7089841 z" />
    <path
       id="path966"
       style="font-style:normal;font-variant:normal;font-weight:bold;font-stretch:normal;font-size:12px;font-family:'Open Sans';-inkscape-font-specification:'Open Sans Bold';fill:#a89a8c;fill-opacity:1;stroke:none;stroke-width:1.60000002;stroke-miterlimit:4;stroke-dasharray:none;stroke-opacity:1"
       d="M 21.198242,15.300781 V 6.734375 h 1.816406 v 7.066406 h 3.47461 v 1.5 z" />
    <path
       id="path968"
       style="font-style:normal;font-variant:normal;font-weight:bold;font-stretch:normal;font-size:12px;font-family:'Open Sans';-inkscape-font-specification:'Open Sans Bold';fill:#a89a8c;fill-opacity:1;stroke:none;stroke-width:1.60000002;stroke-miterlimit:4;stroke-dasharray:none;stroke-opacity:1"
       d="m 34.868164,15.300781 h -2.0625 l -2.244141,-3.609375 -0.767578,0.550782 v 3.058593 H 27.977539 V 6.734375 h 1.816406 v 3.919922 L 30.508789,9.6464844 32.829102,6.734375 h 2.015625 l -2.988282,3.791016 z" />
  </g>
</svg>
