<?xml version="1.0" encoding="UTF-8" standalone="no"?>
<svg
   width="48"
   height="48"
   version="1.1"
   viewBox="0 0 24 24"
   id="svg597"
   xmlns="http://www.w3.org/2000/svg"
   xmlns:svg="http://www.w3.org/2000/svg">
  <g
     display="none"
     opacity=".360743"
     id="g589">
    <g
       fill="none"
       stroke="#000001"
       stroke-linejoin="round"
       stroke-width="1.6"
       id="g583">
      <path
         d="m20 18v-12h-5v-3l-7 3.75 7 3.75-1e-4 -2.9999 3.5001-1e-4v9l-1.5-1e-4v1.5001z"
         color="#000001"
         id="path579" />
      <path
         d="m4 6v12h5v3l7-3.75-7-3.75 1e-4 2.9999-3.5001 1e-4v-9l1.5 1e-4v-1.5001z"
         color="#000001"
         id="path581" />
    </g>
    <path
       d="m20 18v-12h-5v-3l-7 3.75 7 3.75-1e-4 -2.9999 3.5001-1e-4v9l-1.5-1e-4v1.5001z"
       fill="#918273"
       id="path585" />
    <path
       d="m4 6v12h5v3l7-3.75-7-3.75 1e-4 2.9999-3.5001 1e-4v-9l1.5 1e-4v-1.5001z"
       color="#000001"
       fill="#918273"
       id="path587" />
  </g>
  <path
     d="m9.23828 6c-0.707601 0-1.23828 0.615582-1.23828 1.2793v9.44141c0 0.663715 0.53068 1.2793 1.23828 1.2793h3.76172v3l7-3.75-7-3.75v2.99023h-3.49023v-8.98047h1.49023v-1.50977z"
     fill="#918273"
     stroke="#000"
     stroke-linecap="round"
     stroke-linejoin="round"
     stroke-width="1.6"
     id="path591" />
  <path
     d="m9.23828 6c-0.707601 0-1.23828 0.615582-1.23828 1.2793v9.44141c0 0.663715 0.53068 1.2793 1.23828 1.2793h4.32812v-1.50977h-4.05664v-8.98047h1.49023v-1.50977z"
     fill="#918273"
     id="path593" />
  <path
     d="m13 13.5v7.5l7-3.75z"
     fill="#918273"
     id="path595" />
  <path
     id="path8889-9"
     d="m 6.770158,11.594636 c 0,0 0.004,-1.573481 0,-2.0454542 -0.004,-0.4721731 0.166702,-1.8758042 2.028135,-1.888106 1.849471,-0.012245 2.05472,1.4159901 2.056057,2.2028022 8.02e-4,0.472037 0,1.730829 0,1.730829"
     fill="none"
     stroke="#ff6600"
     stroke-width="1.09316" />
  <path
     id="rect8885-1"
     d="m 5.718649,11.415831 c -0.309411,0 -0.619297,0.296801 -0.619297,0.593689 v 3.103906 c 0,0.296887 0.309894,0.593689 0.619297,0.593689 h 6.18718 c 0.309411,0 0.619297,-0.296802 0.619297,-0.593689 V 12.00952 c 0,-0.296888 -0.309893,-0.593689 -0.619297,-0.593689 z m 0.865849,1.430437 h 4.455482 c 0.205695,0 0.371291,0.159494 0.371291,0.35761 0,0.198115 -0.165596,0.357609 -0.371291,0.357609 H 6.584498 c -0.205695,0 -0.37129,-0.159494 -0.37129,-0.357609 0,-0.198116 0.165595,-0.35761 0.37129,-0.35761 z m 0,1.430438 h 4.455482 c 0.205695,0 0.371291,0.159494 0.371291,0.357609 0,0.198116 -0.165596,0.35761 -0.371291,0.35761 H 6.584498 c -0.205695,0 -0.37129,-0.159494 -0.37129,-0.35761 0,-0.198115 0.165595,-0.357609 0.37129,-0.357609 z"
     color="#000001"
     fill="#ff6600"
     style="text-indent:0;text-decoration-line:none;text-transform:none;stroke-width:0.728771" />
</svg>
