<?xml version="1.0" encoding="UTF-8" standalone="no"?>
<svg
   width="48"
   height="48"
   version="1.1"
   viewBox="0 0 24 24"
   id="svg440"
   xmlns="http://www.w3.org/2000/svg"
   xmlns:svg="http://www.w3.org/2000/svg">
  <g
     display="none"
     opacity=".360743"
     id="g432">
    <g
       fill="none"
       stroke="#000001"
       stroke-linejoin="round"
       stroke-width="1.6"
       id="g426">
      <path
         d="m20 18v-12h-5v-3l-7 3.75 7 3.75-1e-4 -2.9999 3.5001-1e-4v9l-1.5-1e-4v1.5001z"
         color="#000001"
         id="path422" />
      <path
         d="m4 6v12h5v3l7-3.75-7-3.75 1e-4 2.9999-3.5001 1e-4v-9l1.5 1e-4v-1.5001z"
         color="#000001"
         id="path424" />
    </g>
    <path
       d="m20 18v-12h-5v-3l-7 3.75 7 3.75-1e-4 -2.9999 3.5001-1e-4v9l-1.5-1e-4v1.5001z"
       fill="#918273"
       id="path428" />
    <path
       d="m4 6v12h5v3l7-3.75-7-3.75 1e-4 2.9999-3.5001 1e-4v-9l1.5 1e-4v-1.5001z"
       color="#000001"
       fill="#918273"
       id="path430" />
  </g>
  <path
     d="m11 3.99995-7 3.75 7 3.75v-2.99023h3.49023v8.98047h-1.49023v1.50977h1.76172c0.707602 0 1.23828-0.615581 1.23828-1.2793v-9.44141c0-0.663716-0.53068-1.2793-1.23828-1.2793h-3.76172z"
     fill="#918273"
     stroke="#000"
     stroke-linecap="round"
     stroke-linejoin="round"
     stroke-width="1.6"
     id="path434" />
  <path
     d="m10.4336 6.99995v1.50977h4.05664v8.98047h-1.49023v1.50977h1.76172c0.707602 0 1.23828-0.615581 1.23828-1.2793v-9.44141c0-0.663716-0.53068-1.2793-1.23828-1.2793z"
     fill="#918273"
     id="path436" />
  <path
     d="m4 7.74995 7-3.75v7.5z"
     fill="#918273"
     id="path438" />
  <path
     id="path8889-9"
     d="m 13.212439,12.667869 c 0,0 0.004,-1.573482 0,-2.045454 -0.004,-0.472173 0.166702,-1.8758034 2.028135,-1.8881054 1.849472,-0.01225 2.054721,1.4159894 2.056058,2.2028024 8.02e-4,0.472036 0,1.730828 0,1.730828"
     fill="none"
     stroke="#ff6600"
     stroke-width="1.09316" />
  <path
     id="rect8885-1"
     d="m 12.16093,12.489064 c -0.309411,0 -0.619297,0.296801 -0.619297,0.593689 v 3.103906 c 0,0.296887 0.309894,0.593689 0.619297,0.593689 h 6.187181 c 0.309411,0 0.619297,-0.296802 0.619297,-0.593689 v -3.103906 c 0,-0.296888 -0.309894,-0.593689 -0.619297,-0.593689 z m 0.865849,1.430437 h 4.455483 c 0.205695,0 0.37129,0.159494 0.37129,0.35761 0,0.198115 -0.165595,0.357609 -0.37129,0.357609 h -4.455483 c -0.205695,0 -0.37129,-0.159494 -0.37129,-0.357609 0,-0.198116 0.165595,-0.35761 0.37129,-0.35761 z m 0,1.430438 h 4.455483 c 0.205695,0 0.37129,0.159494 0.37129,0.357609 0,0.198116 -0.165595,0.35761 -0.37129,0.35761 h -4.455483 c -0.205695,0 -0.37129,-0.159494 -0.37129,-0.35761 0,-0.198115 0.165595,-0.357609 0.37129,-0.357609 z"
     color="#000001"
     fill="#ff6600"
     style="text-indent:0;text-decoration-line:none;text-transform:none;stroke-width:0.728771" />
</svg>
