<svg width="10" height="12" version="1.1" xmlns="http://www.w3.org/2000/svg">
  <path d="m4.9765625 0c-1.4489106.00994182-2.441829.65947319-2.9335937 1.4238281-.491765.764355-.5464175 1.549471-.5429688 1.9726563.0047842.5863697.0007237 2.2786766 0 2.6035156h-.66601562c-.41667001 0-.83398438.4149781-.83398438.8300781v4.3398439c0 .4151.41732437.830078.83398438.830078h8.33203122c.41667 0 .8339844-.414978.8339844-.830078v-4.3398439c0-.4151-.4173244-.8300781-.8339844-.8300781h-.6660156c.000169-.2983616.0009685-1.5773226 0-2.171875-.0010016-.6121197-.0602547-1.5109887-.5585938-2.3417969-.4983389-.83080816-1.5189215-1.49626715-2.9648437-1.4863281zm.0097656 1.5c1.0446779-.007181 1.4069609.3194157 1.6699219.7578125s.3429516 1.0862385.34375 1.5742187c.0009639.5890622.0001684 1.8689344 0 2.1679688h-4c.0007682-.324936.0050349-1.9972105 0-2.6152344-.0019313-.2369985.0561849-.7641406.3046875-1.1503906s.6238412-.7271168 1.6816406-.734375zm-2.9863281 6.5h6c.277 0 .5.223.5.5s-.223.5-.5.5h-6c-.277 0-.5-.223-.5-.5s.223-.5.5-.5zm0 2h6c.277 0 .5.223.5.5s-.223.5-.5.5h-6c-.277 0-.5-.223-.5-.5s.223-.5.5-.5z" color="#000001" color-rendering="auto" dominant-baseline="auto" image-rendering="auto" shape-rendering="auto" solid-color="#000001" style="font-feature-settings:normal;font-variant-alternates:normal;font-variant-caps:normal;font-variant-ligatures:normal;font-variant-numeric:normal;font-variant-position:normal;isolation:auto;mix-blend-mode:normal;shape-padding:0;text-decoration-color:#000001;text-decoration-line:none;text-decoration-style:solid;text-indent:0;text-orientation:mixed;text-transform:none;white-space:normal"/>
</svg>
