<svg width="21" height="18" version="1.1" viewBox="0 0 21 18" xmlns="http://www.w3.org/2000/svg">
  <g fill="#559b99" shape-rendering="auto">
    <path d="m13 1.44922v2.55078h-6.09961c-2.71106 0-4.90039 2.26071-4.90039 5 0 0.372474 0.0482349 0.733689 0.125 1.08398l1.875-1.08398c0-1.69271 1.29025-3 2.90039-3h6.09961v3l6.54102-3.77539z" style="font-feature-settings:normal;font-variant-alternates:normal;font-variant-caps:normal;font-variant-ligatures:normal;font-variant-numeric:normal;font-variant-position:normal;isolation:auto;mix-blend-mode:normal;paint-order:fill markers stroke;shape-padding:0;text-decoration-color:#000000;text-decoration-line:none;text-decoration-style:solid;text-indent:0;text-orientation:mixed;text-transform:none;white-space:normal"/>
    <path d="m18.877 7.91797-1.87695 1.08203c0 1.69272-1.29026 3-2.90039 3h-6.09961v-3l-6.54102 3.77539 6.54102 3.77734v-2.55273h6.09961c2.71106 0 4.90039-2.26072 4.90039-5 0-0.37162-0.046624-0.732476-0.123047-1.08203z" style="font-feature-settings:normal;font-variant-alternates:normal;font-variant-caps:normal;font-variant-ligatures:normal;font-variant-numeric:normal;font-variant-position:normal;isolation:auto;mix-blend-mode:normal;paint-order:fill markers stroke;shape-padding:0;text-decoration-color:#000000;text-decoration-line:none;text-decoration-style:solid;text-indent:0;text-orientation:mixed;text-transform:none;white-space:normal"/>
  </g>
</svg>
