<svg width="21" height="18" version="1.1" viewBox="0 0 21 18" xmlns="http://www.w3.org/2000/svg">
  <path d="m8 16.5508v-2.5508h6.0996c2.7111 0 4.9004-2.2607 4.9004-5 0-0.37247-0.07713-1.5509-0.502617-2.2722l-1.9655 1.07428c0.793792 2.05856-0.82218 4.19792-2.43228 4.19792h-6.0996v-3l-6.541 3.7754z" color="#000000" color-rendering="auto" dominant-baseline="auto" image-rendering="auto" shape-rendering="auto" solid-color="#000000" stroke="#000" stroke-linecap="round" stroke-linejoin="round" stroke-width="1.7" style="font-feature-settings:normal;font-variant-alternates:normal;font-variant-caps:normal;font-variant-ligatures:normal;font-variant-numeric:normal;font-variant-position:normal;isolation:auto;mix-blend-mode:normal;paint-order:fill markers stroke;shape-padding:0;text-decoration-color:#000000;text-decoration-line:none;text-decoration-style:solid;text-indent:0;text-orientation:mixed;text-transform:none;white-space:normal"/>
  <path d="M 13,1.4492 V 4 H 6.9004 C 4.1893,4 2,6.2607 2,9 c 0,0.37247 0.077125,1.550903 0.5026168,2.272202 L 4.4681203,10.197924 C 3.6743278,8.1393659 5.2903,6 6.9004,6 H 13 v 3 l 6.541,-3.7754 z" color="#000000" color-rendering="auto" dominant-baseline="auto" image-rendering="auto" shape-rendering="auto" solid-color="#000000" stroke="#000" stroke-linecap="round" stroke-linejoin="round" stroke-width="1.7" style="font-feature-settings:normal;font-variant-alternates:normal;font-variant-caps:normal;font-variant-ligatures:normal;font-variant-numeric:normal;font-variant-position:normal;isolation:auto;mix-blend-mode:normal;paint-order:fill markers stroke;shape-padding:0;text-decoration-color:#000000;text-decoration-line:none;text-decoration-style:solid;text-indent:0;text-orientation:mixed;text-transform:none;white-space:normal"/>
  <path d="m13 1.4492v2.5508h-6.0996c-2.7111 0-4.9004 2.2607-4.9004 5 0 0.37247 0.048235 0.73369 0.125 1.084l1.875-1.084c0-1.6927 1.2903-3 2.9004-3h6.0996v3l6.541-3.7754z" color="#000000" color-rendering="auto" dominant-baseline="auto" fill="#444" image-rendering="auto" shape-rendering="auto" solid-color="#000000" style="font-feature-settings:normal;font-variant-alternates:normal;font-variant-caps:normal;font-variant-ligatures:normal;font-variant-numeric:normal;font-variant-position:normal;isolation:auto;mix-blend-mode:normal;paint-order:fill markers stroke;shape-padding:0;text-decoration-color:#000000;text-decoration-line:none;text-decoration-style:solid;text-indent:0;text-orientation:mixed;text-transform:none;white-space:normal"/>
  <path d="m18.877 7.918-1.877 1.082c0 1.6927-1.2903 3-2.9004 3h-6.0996v-3l-6.541 3.7754 6.541 3.7773v-2.5527h6.0996c2.7111 0 4.9004-2.2607 4.9004-5 0-0.37162-0.046624-0.73248-0.12305-1.082z" color="#000000" color-rendering="auto" dominant-baseline="auto" fill="#444" image-rendering="auto" shape-rendering="auto" solid-color="#000000" style="font-feature-settings:normal;font-variant-alternates:normal;font-variant-caps:normal;font-variant-ligatures:normal;font-variant-numeric:normal;font-variant-position:normal;isolation:auto;mix-blend-mode:normal;paint-order:fill markers stroke;shape-padding:0;text-decoration-color:#000000;text-decoration-line:none;text-decoration-style:solid;text-indent:0;text-orientation:mixed;text-transform:none;white-space:normal"/>
</svg>
