<svg width="24" height="24" version="1.1" xmlns="http://www.w3.org/2000/svg">
  <g transform="matrix(.91829643 0 0 .91848218 .98042259 1.0046746)" fill="none" stroke="#000" stroke-width="1.74218">
    <path d="m4.876466 13.943484 2.5941394-0.483697c0.4106097-0.07653 0.8028092 0.192371 0.8793703 0.602971l0.8982555 4.8177c0.07656 0.410601-0.1923702 0.802731-0.6029799 0.879344l-2.5941394 0.483609c-0.4106097 0.076526-0.8028093-0.19237-0.8793703-0.602971l-0.8982556-4.817612c-0.076559-0.410601 0.1923703-0.802819 0.60298-0.879344z"/>
    <path d="m11.99997 4.3935815c-4.2131456 0-7.6455512 1.673102-7.6455512 5.8863355 0 0.481673 0.043953 2.704354 0.1295838 3.161047 0.364615 1.98545 0.7420547 3.96835 1.1309118 5.949139l1.6610514-0.318066c-0.3586337-2.026968-0.8433504-4.181831-1.1309118-6.043346-0.0555921-0.324135-0.0942412-2.405991-0.0942412-2.748774 0-3.2962423 2.6529852-4.1899238 5.9491392-4.1899238 3.296155 0 5.94914 0.8936815 5.94914 4.1899238 0 0.342783-0.03865 2.424639-0.09424 2.748774-0.287579 1.861515-0.772296 4.016378-1.130912 6.043346l1.661051 0.318066c0.388875-1.980789 0.766306-3.963689 1.130912-5.949139 0.08563-0.456693 0.129584-2.679374 0.129584-3.161047 0-4.2132335-3.432406-5.8863355-7.645551-5.8863355z" color="#000000" style="text-indent:0;text-transform:none"/>
    <path d="m19.123034 13.943484-2.594139-0.483697c-0.41061-0.07653-0.80281 0.192371-0.879371 0.602971l-0.898255 4.8177c-0.07656 0.410601 0.19237 0.802818 0.60298 0.879344l2.594139 0.483697c0.41061 0.07653 0.802809-0.192371 0.879371-0.603059l0.898255-4.8177c0.07656-0.410513-0.19237-0.802731-0.60298-0.879256z"/>
  </g>
  <g transform="matrix(.91829643 0 0 .91848218 .98042259 1.0046746)" fill="#918273" stroke-width=".957772">
    <path d="m4.876466 13.943484 2.5941394-0.483697c0.4106097-0.07653 0.8028092 0.192371 0.8793703 0.602971l0.8982555 4.8177c0.07656 0.410601-0.1923702 0.802731-0.6029799 0.879344l-2.5941394 0.483609c-0.4106097 0.076526-0.8028093-0.19237-0.8793703-0.602971l-0.8982556-4.817612c-0.076559-0.410601 0.1923703-0.802819 0.60298-0.879344z"/>
    <path d="m11.99997 4.3935815c-4.2131456 0-7.6455512 1.673102-7.6455512 5.8863355 0 0.481673 0.043953 2.704354 0.1295838 3.161047 0.364615 1.98545 0.7420547 3.96835 1.1309118 5.949139l0.5301396-6.361412c0.076139-0.91363-0.094241-2.405991-0.094241-2.748774 0-3.2962423 2.6529852-4.1899238 5.949139-4.1899238 3.296155 0 5.94914 0.8936815 5.94914 4.1899238 0 0.342783-0.170379 1.835144-0.09424 2.748774 0.530139 6.361412 0.530139 6.361412 0.530139 6.361412 0.388875-1.980789 0.766306-3.963689 1.130912-5.949139 0.08563-0.456693 0.129584-2.679374 0.129584-3.161047 0-4.2132335-3.432406-5.8863355-7.645551-5.8863355z" color="#000000" style="text-indent:0;text-transform:none"/>
    <path d="m19.123034 13.943484-2.594139-0.483697c-0.41061-0.07653-0.80281 0.192371-0.879371 0.602971l-0.898255 4.8177c-0.07656 0.410601 0.19237 0.802818 0.60298 0.879344l2.594139 0.483697c0.41061 0.07653 0.802809-0.192371 0.879371-0.603059l0.898255-4.8177c0.07656-0.410513-0.19237-0.802731-0.60298-0.879256z"/>
  </g>
</svg>
