<svg width="24" height="24" version="1.1" xmlns="http://www.w3.org/2000/svg">
  <path d="m12 5.51163c-3.73406 0-6.76642 3.0325-6.76642 6.76673 0 0.03993-9.388e-4 0.07686 0 0.12531v0.219292c-0.759995 0.643612-1.25304 1.58893-1.25304 2.66278 0 1.93779 0.632609 3.50893 4.01947 3.50893v-7.01735c-0.242208 0-1.00305 0.01567-1.23145 0.06241 0.216185-2.7098 2.46538-4.82443 5.2315-4.82443 2.7597 0 5.00605 2.12355 5.2315 4.82443-0.228394-0.04674-0.98933-0.06241-1.23155-0.06241v7.01735c3.5394 0 4.01956-1.57114 4.01956-3.50893 0-1.09-0.504605-2.05057-1.28432-2.69416 0.0061-0.105852 0.03132-0.203573 0.03132-0.313275 0-3.73423-3.03236-6.76673-6.76642-6.76673z" color="#000001" style="text-indent:0;text-transform:none"/>
</svg>
