<svg width="24" height="24" version="1.1" xmlns="http://www.w3.org/2000/svg">
  <path d="m12 5.5116c-3.7341 0-6.7664 3.0325-6.7664 6.7667 0 0.03993-9.388e-4 0.07686 0 0.12531v0.21929c-0.75999 0.64361-1.253 1.5889-1.253 2.6628 0 1.9378 1.014 3.5089 4.0195 3.5089v-7.0174c-0.24221 0-1.0031 0.01567-1.2314 0.06241 0.21618-2.7098 2.4654-4.8244 5.2315-4.8244 2.7597 0 5.006 2.1236 5.2315 4.8244-0.22839-0.04674-0.98933-0.06241-1.2315-0.06241v7.0174c3.514 0 4.0196-1.5711 4.0196-3.5089 0-1.09-0.5046-2.0506-1.2843-2.6942 0.0061-0.10585 0.03132-0.20357 0.03132-0.31328 0-3.7342-3.0324-6.7667-6.7664-6.7667z" color="#000001" fill="none" stroke="#000001" stroke-linecap="round" stroke-linejoin="round" stroke-width="1.6" style="text-indent:0;text-transform:none"/>
  <path d="m12 5.5116c-3.7341 0-6.7664 3.0325-6.7664 6.7667 0 0.03993-9.388e-4 0.07686 0 0.12531v0.21929c-0.75999 0.64361-1.253 1.5889-1.253 2.6628 0 1.9378 0.63261 3.5089 4.0195 3.5089v-7.0174c-0.24221 0-1.0031 0.01567-1.2314 0.06241 0.21618-2.7098 2.4654-4.8244 5.2315-4.8244 2.7597 0 5.006 2.1236 5.2315 4.8244-0.22839-0.04674-0.98933-0.06241-1.2315-0.06241v7.0174c3.5394 0 4.0196-1.5711 4.0196-3.5089 0-1.09-0.5046-2.0506-1.2843-2.6942 0.0061-0.10585 0.03132-0.20357 0.03132-0.31328 0-3.7342-3.0324-6.7667-6.7664-6.7667z" color="#000001" fill="#918273" style="text-indent:0;text-transform:none"/>
</svg>
