<svg version="1.1" viewBox="0 0 18 18" xmlns="http://www.w3.org/2000/svg">
  <path d="m.80109355.0003281c-.434551 0-.800781.36623-.800781.800781v16.3977629c0 .434551.36623.800781.800781.800781h16.39781245c.434551 0 .800781-.36623.800781-.800781v-16.3977629c0-.434551-.36623-.800781-.800781-.800781zm1.19921995 1h13.9994125c.562649 0 .999999.437351.999999 1v13.9993629c0 .562649-.43735 1-.999999 1h-13.9994125c-.562649 0-1-.437351-1-1v-13.9993629c0-.562649.437351-1 1-1z" color="#000000" color-rendering="auto" dominant-baseline="auto" fill="#000001" image-rendering="auto" shape-rendering="auto" solid-color="#000000" style="font-feature-settings:normal;font-variant-alternates:normal;font-variant-caps:normal;font-variant-ligatures:normal;font-variant-numeric:normal;font-variant-position:normal;isolation:auto;mix-blend-mode:normal;paint-order:fill markers stroke;shape-padding:0;text-decoration-color:#000000;text-decoration-line:none;text-decoration-style:solid;text-indent:0;text-orientation:mixed;text-transform:none;white-space:normal"/>
  <path d="m16.999626 2.5276719h-1v12.9446751c0 .292512-.234832.527344-.527344.527344h-12.9446246c-.2925121 0-.5273438-.234832-.5273438-.527344v-12.9446751h-1v13.4720191c0 .554.446 1 1 1h13.9993124c.554 0 1-.446 1-1z" fill-opacity=".316345" stroke-width="0" style="paint-order:fill markers stroke"/>
  <path d="m16.999626 2.5276719v-.5273438c0-.554-.446-1-1-1h-13.9993125c-.554 0-1 .446-1 1v.5273438h1c0-.2925121.2348317-.5273438.5273439-.5273438h12.9446246c.292512 0 .527344.2348317.527344.5273438z" fill-opacity=".21" stroke-width="0" style="paint-order:fill markers stroke"/>
</svg>
