<svg width="22" height="40" version="1.1" viewBox="0 0 11 20" xmlns="http://www.w3.org/2000/svg">
  <rect x="-18.3526" y="-57.983501" width="49.521599" height="38.626999" rx="2" ry="2" fill="#1a1a1a" stroke="#000" stroke-linecap="round" stroke-linejoin="round" stroke-width="1.5"/>
  <rect x="40" y="8.88178e-16" width="18" height="11" fill="#ac0606" fill-opacity=".73545"/>
  <path d="m6.0970258 7.1271828-2.8316595 4.8727322h5.6632533z" fill="none" stroke="#000001" stroke-linejoin="round" stroke-width="1.6"/>
  <path d="m6.0970258 7.1271828-2.8316595 4.8727322h5.6632533z" fill="#918273" stroke-width=".857143"/>
  <path d="m.800781 0c-.434551 0-.800781.36623-.800781.800781v22.3984c0 .434551.36623.800781.800781.800781h18.4024c.434551 0 .800781-.36623.800781-.800781v-22.3984c0-.434551-.36623-.800781-.800781-.800781zm1.19922 1h16.004c.562649 0 1 .437351 1 1v20c0 .562649-.437351 1-1 1h-16.004c-.562649 0-1-.437351-1-1v-20c0-.562649.437351-1 1-1z" color="#000000" color-rendering="auto" dominant-baseline="auto" fill="#000001" image-rendering="auto" shape-rendering="auto" solid-color="#000000" style="font-feature-settings:normal;font-variant-alternates:normal;font-variant-caps:normal;font-variant-ligatures:normal;font-variant-numeric:normal;font-variant-position:normal;isolation:auto;mix-blend-mode:normal;paint-order:fill markers stroke;shape-padding:0;text-decoration-color:#000000;text-decoration-line:none;text-decoration-style:solid;text-indent:0;text-orientation:mixed;text-transform:none;white-space:normal"/>
  <path d="m.999898-11c-.562649 0-1 .437352-1 1v.5h1.10742c.150078-.293496.446907-.5.800781-.5l14.1876 2e-7c.353874 0 .650703.206504.800781.5h1.10742v-.5c0-.5626482-.437351-1.0000002-1-1.0000002z" color="#000000" color-rendering="auto" dominant-baseline="auto" fill="#dcdcdc" fill-opacity=".0705882" image-rendering="auto" shape-rendering="auto" solid-color="#000000" style="font-feature-settings:normal;font-variant-alternates:normal;font-variant-caps:normal;font-variant-ligatures:normal;font-variant-numeric:normal;font-variant-position:normal;isolation:auto;mix-blend-mode:normal;paint-order:fill markers stroke;shape-padding:0;text-decoration-color:#000000;text-decoration-line:none;text-decoration-style:solid;text-indent:0;text-orientation:mixed;text-transform:none;white-space:normal"/>
  <path d="m.999898 11c-.562649 0-1-.437352-1-1v-19.5h1v18.5918z" color="#000000" color-rendering="auto" dominant-baseline="auto" fill="#d1d1d1" fill-opacity=".06" image-rendering="auto" shape-rendering="auto" solid-color="#000000" style="font-feature-settings:normal;font-variant-alternates:normal;font-variant-caps:normal;font-variant-ligatures:normal;font-variant-numeric:normal;font-variant-position:normal;isolation:auto;mix-blend-mode:normal;paint-order:fill markers stroke;shape-padding:0;text-decoration-color:#000000;text-decoration-line:none;text-decoration-style:solid;text-indent:0;text-orientation:mixed;text-transform:none;white-space:normal"/>
</svg>
