<?xml version="1.0" encoding="UTF-8" standalone="no"?>
<svg
   xmlns:dc="http://purl.org/dc/elements/1.1/"
   xmlns:cc="http://creativecommons.org/ns#"
   xmlns:rdf="http://www.w3.org/1999/02/22-rdf-syntax-ns#"
   xmlns:svg="http://www.w3.org/2000/svg"
   xmlns="http://www.w3.org/2000/svg"
   id="svg10"
   version="1.1"
   height="16"
   width="16">
  <metadata
     id="metadata16">
    <rdf:RDF>
      <cc:Work
         rdf:about="">
        <dc:format>image/svg+xml</dc:format>
        <dc:type
           rdf:resource="http://purl.org/dc/dcmitype/StillImage" />
        <dc:title></dc:title>
      </cc:Work>
    </rdf:RDF>
  </metadata>
  <defs
     id="defs14" />
  <g
     id="g4"
     aria-label="♪"
     stroke-width="2.06548419"
     stroke-linejoin="round"
     stroke-linecap="round"
     stroke="#000001"
     fill="none"
     transform="matrix(.77463677 0 0 .77463677 19.507552 .20097752)">
    <path
       id="path2"
       stroke-width="2.06548419"
       stroke-linejoin="round"
       stroke-linecap="round"
       stroke="#000001"
       fill="none"
       d="m-14.623223 1.7718814h1.132812l.104167.091146v.5078125c.234375.4687499 1.10243.9765624 2.604166 1.5234374 2.0833332.6076389 3.1250002 1.5104167 3.1250002 2.7083333 0 1.2673611-.529514 2.3177083-1.588541 3.1510416h-.05208l-.390625-.4166667c.529514-.4253472.794271-1.0026041.794271-1.7317708 0-.6076388-.989583-1.219618-2.9687502-1.8359374-.798611-.3645833-1.306423-.6597222-1.523437-.8854167v11.2983524c0 1.328125-.972222 2.1875-2.916667 2.578125h-.742187c-2.100695 0-3.151042-.729167-3.151042-2.1875 0-1.137153.920139-1.805555 2.760417-2.005208h.299479c.833333 0 1.636285.277778 2.408854.833333v-13.5379358z" />
  </g>
  <g
     style="fill:#a89a8c;fill-opacity:1"
     id="g8"
     aria-label="♪"
     fill="#bfbfbe"
     transform="matrix(.77463677 0 0 .77463677 19.507552 .20097721)">
    <path
       style="fill:#a89a8c;fill-opacity:1"
       id="path6"
       stroke-width="1.29092765"
       fill="#bfbfbe"
       d="m-14.623223 1.7718814h1.132812l.104167.091146v.5078125c.234375.4687499 1.10243.9765624 2.604166 1.5234374 2.0833332.6076389 3.1250002 1.5104167 3.1250002 2.7083333 0 1.2673611-.529514 2.3177083-1.588541 3.1510416h-.05208l-.390625-.4166667c.529514-.4253472.794271-1.0026041.794271-1.7317708 0-.6076388-.989583-1.219618-2.9687502-1.8359374-.798611-.3645833-1.306423-.6597222-1.523437-.8854167v11.2983524c0 1.328125-.972222 2.1875-2.916667 2.578125h-.742187c-2.100695 0-3.151042-.729167-3.151042-2.1875 0-1.137153.920139-1.805555 2.760417-2.005208h.299479c.833333 0 1.636285.277778 2.408854.833333v-13.5379358z" />
  </g>
</svg>
