<svg width="48" height="48" version="1.1" viewBox="0 0 24 24" xmlns="http://www.w3.org/2000/svg">
  <g display="none" opacity=".360743">
    <g fill="none" stroke="#000001" stroke-linejoin="round" stroke-width="1.6">
      <path d="m20 18v-12h-5v-3l-7 3.75 7 3.75-1e-4 -2.9999 3.5001-1e-4v9l-1.5-1e-4v1.5001z" color="#000001"/>
      <path d="m4 6v12h5v3l7-3.75-7-3.75 1e-4 2.9999-3.5001 1e-4v-9l1.5 1e-4v-1.5001z" color="#000001"/>
    </g>
    <path d="m20 18v-12h-5v-3l-7 3.75 7 3.75-1e-4 -2.9999 3.5001-1e-4v9l-1.5-1e-4v1.5001z" fill="#918273"/>
    <path d="m4 6v12h5v3l7-3.75-7-3.75 1e-4 2.9999-3.5001 1e-4v-9l1.5 1e-4v-1.5001z" color="#000001" fill="#918273"/>
  </g>
  <path d="m6.22828 6c-0.707601 0-1.23828 0.615582-1.23828 1.2793v9.44141c0 0.663715 0.53068 1.2793 1.23828 1.2793h3.7617205v3l6.9999985-3.75-6.9999985-3.75v2.99023h-3.4902305v-8.98047h1.49023v-1.50977z" fill="#918273" stroke="#000" stroke-linecap="round" stroke-linejoin="round" stroke-width="1.6"/>
  <path d="m6.22828 5.999995c-0.707601 0-1.23828 0.615582-1.23828 1.2793v9.44141c0 0.663715 0.53068 1.2793 1.23828 1.2793h4.328121v-1.50977h-4.056641v-8.98047h1.49023v-1.50977z" fill="#918273"/>
  <path d="m9.9900005 13.5v7.5l7.0000005-3.75z" fill="#918273"/>
  <path d="m14.07189 8.9788779s0.0048-1.8946936 0-2.4630165c-0.0048-0.5685634 0.200733-2.2587347 2.442162-2.2735478 2.227025-0.014744 2.474175 1.7050533 2.475784 2.6524867 9.97e-4 0.5683998 0 2.084164 0 2.084164" fill="none" stroke="#f60" stroke-width="1.31632"/>
  <path d="m12.805723 8.7635727c-0.372575 0-0.745721 0.35739-0.745721 0.7148852v3.7375441c0 0.357495 0.373156 0.714887 0.745721 0.714887h7.450244c0.372574 0 0.745721-0.357392 0.745721-0.714887v-3.7375441c0-0.3574952-0.373155-0.7148852-0.745721-0.7148852zm1.042606 1.7224493h5.365032c0.247686 0 0.447088 0.192053 0.447088 0.430613 0 0.238558-0.199402 0.430612-0.447088 0.430612h-5.365032c-0.247686 0-0.447086-0.192054-0.447086-0.430612 0-0.23856 0.1994-0.430613 0.447086-0.430613zm0 1.72245h5.365032c0.247686 0 0.447088 0.192054 0.447088 0.430613s-0.199402 0.430613-0.447088 0.430613h-5.365032c-0.247686 0-0.447086-0.192054-0.447086-0.430613s0.1994-0.430613 0.447086-0.430613z" color="#000001" fill="#f60" stroke-width=".877546" style="text-decoration-line:none;text-indent:0;text-transform:none"/>
</svg>
