<?xml version="1.0" encoding="UTF-8" standalone="no"?>
<svg
   xmlns:dc="http://purl.org/dc/elements/1.1/"
   xmlns:cc="http://creativecommons.org/ns#"
   xmlns:rdf="http://www.w3.org/1999/02/22-rdf-syntax-ns#"
   xmlns:svg="http://www.w3.org/2000/svg"
   xmlns="http://www.w3.org/2000/svg"
   id="svg10"
   version="1.1"
   height="18"
   width="30">
  <metadata
     id="metadata16">
    <rdf:RDF>
      <cc:Work
         rdf:about="">
        <dc:format>image/svg+xml</dc:format>
        <dc:type
           rdf:resource="http://purl.org/dc/dcmitype/StillImage" />
        <dc:title></dc:title>
      </cc:Work>
    </rdf:RDF>
  </metadata>
  <defs
     id="defs14" />
  <g
     transform="matrix(0.4151,0,0,0.4151,-1.6604,5.547)"
     id="g6"
     style="fill:#7f7571;fill-opacity:1">
    <path
       style="fill:#7f7571;fill-opacity:1;stroke-width:0.88215041"
       d="M 54.590219,18.654796 V -2.021583 L 72.312697,8.3166063 Z"
       id="path2" />
    <path
       d="m 28.091,-5.2913 c -7.6146,0 -14.009,6.184 -14.009,13.799 0,0.081419 -0.0018,0.15673 0,0.25552 v 0.44717 c -1.5498,1.3124 -2.5552,3.24 -2.5552,5.4298 0,3.9514 2.9756,7.1547 6.927,7.1547 v -14.309 c -0.49392,0 -0.77584,0.032462 -1.2416,0.12776 0.44085,-5.5257 5.2378,-9.838 10.879,-9.838 5.6277,0 10.418,4.3312 10.878,9.8387 -0.46575,-0.0953 -0.74765,-0.12776 -1.2416,-0.12776 v 14.309 c 3.9514,0 6.927,-3.2033 6.927,-7.1547 0,-2.2227 -1.029,-4.1814 -2.619,-5.4938 0.01253,-0.21585 0.06386,-0.41511 0.06386,-0.63881 2.1e-5,-7.6146 -6.3933,-13.799 -14.008,-13.799 z"
       style="color:#000001;text-indent:0;text-transform:none;stroke-width:2.40910006;fill:#7f7571;fill-opacity:1"
       id="path4" />
  </g>
</svg>
