<?xml version="1.0" encoding="UTF-8" standalone="no"?>
<svg
   xmlns:dc="http://purl.org/dc/elements/1.1/"
   xmlns:cc="http://creativecommons.org/ns#"
   xmlns:rdf="http://www.w3.org/1999/02/22-rdf-syntax-ns#"
   xmlns:svg="http://www.w3.org/2000/svg"
   xmlns="http://www.w3.org/2000/svg"
   width="11"
   height="13"
   version="1.1"
   id="svg4">
  <metadata
     id="metadata10">
    <rdf:RDF>
      <cc:Work
         rdf:about="">
        <dc:format>image/svg+xml</dc:format>
        <dc:type
           rdf:resource="http://purl.org/dc/dcmitype/StillImage" />
        <dc:title></dc:title>
      </cc:Work>
    </rdf:RDF>
  </metadata>
  <defs
     id="defs8" />
  <g
     aria-label="R"
     id="text838-3"
     style="font-style:normal;font-weight:normal;font-size:40px;line-height:1.25;font-family:sans-serif;letter-spacing:0px;word-spacing:0px;fill:#9a9a9a;fill-opacity:1;stroke:none"
     transform="translate(0.5)">
    <path
       d="m 3.5559856,7.4270722 h 1.0807265 c 0.7248245,0 1.2499968,-0.1345483 1.5755168,-0.4036448 0.32552,-0.2690966 0.48828,-0.6684012 0.48828,-1.1979137 0,-0.5381931 -0.1757808,-0.9244768 -0.5273424,-1.1588512 C 5.8216049,4.4322881 5.2917376,4.2926985 4.5846289,4.3151009 H 3.5559856 Z m 0,1.2890592 V 12 H 2 V 3 h 2.6887953 c 1.2282955,0 2.1375814,0.2300341 2.7278577,0.6901024 0.5902763,0.4600683 0.8854144,1.154511 0.8854144,2.0833281 0,1.1848929 -0.6163179,2.0290748 -1.8489537,2.5325457 L 9.141909,12 H 7.3710802 L 5.0924401,8.7161314 Z"
       style="font-style:normal;font-variant:normal;font-weight:600;font-stretch:normal;font-size:13.3333px;font-family:'Open Sans';-inkscape-font-specification:'Open Sans Semi-Bold';fill:#9a9a9a;fill-opacity:1"
       id="path845" />
  </g>
</svg>
