<?xml version="1.0" encoding="UTF-8" standalone="no"?>
<svg
   xmlns:dc="http://purl.org/dc/elements/1.1/"
   xmlns:cc="http://creativecommons.org/ns#"
   xmlns:rdf="http://www.w3.org/1999/02/22-rdf-syntax-ns#"
   xmlns:svg="http://www.w3.org/2000/svg"
   xmlns="http://www.w3.org/2000/svg"
   xmlns:sodipodi="http://sodipodi.sourceforge.net/DTD/sodipodi-0.dtd"
   xmlns:inkscape="http://www.inkscape.org/namespaces/inkscape"
   width="24"
   height="24"
   viewBox="0 0 6.3499998 6.3499998"
   version="1.1"
   id="svg8"
   inkscape:version="1.0.1 (3bc2e813f5, 2020-09-07)"
   sodipodi:docname="btn__notifications_active.svg">
  <defs
     id="defs2" />
  <sodipodi:namedview
     id="base"
     pagecolor="#ffffff"
     bordercolor="#666666"
     borderopacity="1.0"
     inkscape:pageopacity="0.0"
     inkscape:pageshadow="2"
     inkscape:zoom="7.4662164"
     inkscape:cx="16.574537"
     inkscape:cy="14.048152"
     inkscape:document-units="mm"
     inkscape:current-layer="layer1"
     inkscape:document-rotation="0"
     showgrid="false"
     inkscape:window-width="1268"
     inkscape:window-height="477"
     inkscape:window-x="8"
     inkscape:window-y="557"
     inkscape:window-maximized="0"
     units="px" />
  <metadata
     id="metadata5">
    <rdf:RDF>
      <cc:Work
         rdf:about="">
        <dc:format>image/svg+xml</dc:format>
        <dc:type
           rdf:resource="http://purl.org/dc/dcmitype/StillImage" />
        <dc:title></dc:title>
      </cc:Work>
    </rdf:RDF>
  </metadata>
  <g
     inkscape:label="Layer 1"
     inkscape:groupmode="layer"
     id="layer1">
    <path
       id="rect867"
       style="fill:#000000;fill-opacity:1;stroke:none;stroke-width:0.283058;stroke-miterlimit:4;stroke-dasharray:none;stroke-opacity:1"
       d="m 3.251551,0.53149816 c -0.1762091,0 -0.2632152,0.0320219 -0.3733993,0.13736079 -0.1091586,0.10435939 -0.1593788,0.19996409 -0.1593788,0.3033549 0,0.062559 -0.013397,0.0847499 -0.058176,0.096405 C 2.5242893,1.1040977 2.1451551,1.3165197 2.0244445,1.4250501 1.7094722,1.7082367 1.4991586,2.0597752 1.453034,2.3802123 1.4387037,2.4797587 1.4267523,2.8862307 1.4264707,3.2834602 L 1.4259561,4.0057154 1.2021893,4.3823461 C 0.95920156,4.7913426 0.92949553,4.9009484 1.022863,5.0434455 c 0.094772,0.1446392 0.036714,0.141122 2.234435,0.1349366 l 2.0252131,-0.00571 0.091507,-0.099839 C 5.5156529,4.918271 5.4942293,4.820141 5.2236274,4.3840603 L 5.0070418,4.0350038 4.9919396,3.181751 C 4.9793292,2.469588 4.9693456,2.3049848 4.9315434,2.186291 4.7901127,1.742222 4.4149457,1.3365296 3.9513849,1.1263409 3.856601,1.0833639 3.7772973,1.0298135 3.7702905,1.0040292 3.7634394,0.97879975 3.7500355,0.92321835 3.7404954,0.88055612 3.6956033,0.67978594 3.4878886,0.53149816 3.251551,0.53149816 Z m -0.7420009,4.86095454 0.017576,0.096961 c 0.048889,0.2700239 0.2724598,0.5107584 0.5363632,0.5775716 0.1047009,0.026505 0.3101325,0.00568 0.4274345,-0.04333 0.2122821,-0.088697 0.3612501,-0.2860594 0.4031946,-0.534242 l 0.016361,-0.096961 H 3.2100408 Z"
       sodipodi:nodetypes="sssscscccsccccccssccssccsccccc" />
  </g>
</svg>
