<svg width="48" height="48" version="1.1" viewBox="0 0 24 24" xmlns="http://www.w3.org/2000/svg">
  <path d="m7.4492188 10.453125c-1.2830787-0.0085-2.1864276 0.555483-2.6347657 1.275391-0.4483379 0.719906-0.5030057 1.504887-0.5039062 2.035156-8.969e-4 0.512332-1.564e-4 1.612782 0 1.86914h-0.6074219c-0.3725656 0-0.7451172 0.35735-0.7451172 0.714844v3.737305c0 0.357495 0.3725436 0.714844 0.7451172 0.714844h7.450195c0.372565 0 0.746094-0.357349 0.746094-0.714844v-3.737305c0-0.357494-0.373519-0.714844-0.746094-0.714844h-0.608398c-7.41e-4 -0.323841-0.0042-1.747529 0-2.242187 0.0031-0.369086-0.04609-1.052865-0.488281-1.714844-0.4421907-0.661984-1.3214234-1.214157-2.6074222-1.222656zm-0.00781 1.316406c0.9554259 0.0063 1.2997989 0.307769 1.5195313 0.636719s0.2692622 0.773178 0.2675781 0.972656c-0.00441 0.522069-7.906e-4 1.926915 0 2.253906h-3.6015651c-1.552e-4 -0.257108-8.896e-4 -1.359972 0-1.867187 7.085e-4 -0.417163 0.072293-0.968636 0.3046875-1.341797 0.2323942-0.373161 0.5658238-0.660544 1.5097656-0.654297zm-2.6953124 5.585938h5.3652346c0.247686 0 0.447266 0.192104 0.447266 0.430664 0 0.238558-0.19958 0.430664-0.447266 0.430664h-5.3652372c-0.2476858 0-0.4472657-0.192106-0.4472657-0.430664 0-0.23856 0.1995799-0.430664 0.4472657-0.430664zm0 1.721679h5.3652346c0.247686 0 0.447266 0.192106 0.447266 0.430664 0 0.238559-0.19958 0.430665-0.447266 0.430665h-5.3652372c-0.2476858 0-0.4472657-0.192106-0.4472657-0.430665 0-0.238558 0.1995799-0.430664 0.4472657-0.430664z" color="#000000" fill="none" stroke="#000" stroke-width="1.4"/>
  <g display="none" opacity=".360743">
    <g fill="none" stroke="#000001" stroke-linejoin="round" stroke-width="1.6">
      <path d="m20 18v-12h-5v-3l-7 3.75 7 3.75-1e-4 -2.9999 3.5001-1e-4v9l-1.5-1e-4v1.5001z" color="#000001"/>
      <path d="m4 6v12h5v3l7-3.75-7-3.75 1e-4 2.9999-3.5001 1e-4v-9l1.5 1e-4v-1.5001z" color="#000001"/>
    </g>
    <path d="m20 18v-12h-5v-3l-7 3.75 7 3.75-1e-4 -2.9999 3.5001-1e-4v9l-1.5-1e-4v1.5001z" fill="#918273"/>
    <path d="m4 6v12h5v3l7-3.75-7-3.75 1e-4 2.9999-3.5001 1e-4v-9l1.5 1e-4v-1.5001z" color="#000001" fill="#918273"/>
  </g>
  <path d="m17.77149 19.000456c0.707601 0 1.23828-0.615582 1.23828-1.2793v-9.4414096c0-0.663715-0.53068-1.2793-1.23828-1.2793h-3.761721v-3l-6.9999975 3.75 6.9999975 3.7499996v-2.9902296h3.490231v8.9804696h-1.49023v1.50977z" fill="#918273" stroke="#000" stroke-linecap="round" stroke-linejoin="round" stroke-width="1.6"/>
  <path d="m17.77149 19.000456c0.707601 0 1.23828-0.615582 1.23828-1.2793v-9.4414096c0-0.663715-0.53068-1.2793-1.23828-1.2793h-4.328121v1.50977h4.056641v8.9804696h-1.49023v1.50977z" fill="#766a5d"/>
  <path d="m14.009769 11.500456v-7.4999996l-6.9999995 3.75z" fill="#766a5d"/>
  <path d="m7.4492188 10.453125c-1.2830787-0.0085-2.1864276 0.555483-2.6347657 1.275391-0.4483379 0.719906-0.5030057 1.504887-0.5039062 2.035156-8.969e-4 0.512332-1.564e-4 1.612782 0 1.86914h-0.6074219c-0.3725656 0-0.7451172 0.35735-0.7451172 0.714844v3.737305c0 0.357495 0.3725436 0.714844 0.7451172 0.714844h7.450195c0.372565 0 0.746094-0.357349 0.746094-0.714844v-3.737305c0-0.357494-0.373519-0.714844-0.746094-0.714844h-0.608398c-7.41e-4 -0.323841-0.00421-1.747529 0-2.242187 0.0031-0.369086-0.046091-1.052865-0.488281-1.714844-0.4421907-0.661984-1.3214234-1.214157-2.6074222-1.222656zm-0.0078126 1.316406c0.9554259 0.0063 1.2997989 0.307769 1.5195313 0.636719s0.2692622 0.773178 0.2675781 0.972656c-0.0044132 0.522069-7.906e-4 1.926915 0 2.253906h-3.6015625c-1.552e-4 -0.257108-8.896e-4 -1.359972 0-1.867187 7.085e-4 -0.417163 0.0722933-0.968636 0.3046875-1.341797s0.5658238-0.660544 1.5097656-0.654297zm-2.6953124 5.585938h5.3652342c0.247686 0 0.447266 0.192104 0.447266 0.430664 0 0.238558-0.19958 0.430664-0.447266 0.430664h-5.3652342c-0.2476858 0-0.4472657-0.192106-0.4472657-0.430664 0-0.23856 0.1995799-0.430664 0.4472657-0.430664zm0 1.721679h5.3652342c0.247686 0 0.447266 0.192106 0.447266 0.430664 0 0.238559-0.19958 0.430665-0.447266 0.430665h-5.3652342c-0.2476858 0-0.4472657-0.192106-0.4472657-0.430665 0-0.238558 0.1995799-0.430664 0.4472657-0.430664z" color="#000000" fill="#afa499" style="-inkscape-stroke:none"/>
</svg>
