<svg width="21" height="18" version="1.1" viewBox="0 0 21 18" xmlns="http://www.w3.org/2000/svg">
  <path d="m13 1.4492v2.5508h-6.0996c-2.7111 0-4.9004 2.2607-4.9004 5 0 0.37247 0.048235 0.73369 0.125 1.084l1.875-1.084c0-1.6927 1.2903-3 2.9004-3h6.0996v3l6.541-3.7754z" color="#000000" color-rendering="auto" dominant-baseline="auto" fill="#3d3d3c" image-rendering="auto" shape-rendering="auto" solid-color="#000000" style="font-feature-settings:normal;font-variant-alternates:normal;font-variant-caps:normal;font-variant-ligatures:normal;font-variant-numeric:normal;font-variant-position:normal;isolation:auto;mix-blend-mode:normal;paint-order:fill markers stroke;shape-padding:0;text-decoration-color:#000000;text-decoration-line:none;text-decoration-style:solid;text-indent:0;text-orientation:mixed;text-transform:none;white-space:normal"/>
  <path d="m18.877 7.918-1.877 1.082c0 1.6927-1.2903 3-2.9004 3h-6.0996v-3l-6.541 3.7754 6.541 3.7773v-2.5527h6.0996c2.7111 0 4.9004-2.2607 4.9004-5 0-0.37162-0.046624-0.73248-0.12305-1.082z" color="#000000" color-rendering="auto" dominant-baseline="auto" fill="#3d3d3c" image-rendering="auto" shape-rendering="auto" solid-color="#000000" style="font-feature-settings:normal;font-variant-alternates:normal;font-variant-caps:normal;font-variant-ligatures:normal;font-variant-numeric:normal;font-variant-position:normal;isolation:auto;mix-blend-mode:normal;paint-order:fill markers stroke;shape-padding:0;text-decoration-color:#000000;text-decoration-line:none;text-decoration-style:solid;text-indent:0;text-orientation:mixed;text-transform:none;white-space:normal"/>
</svg>
