<?xml version="1.0" encoding="UTF-8" standalone="no"?>
<svg
   width="48"
   height="48"
   version="1.1"
   viewBox="0 0 24 24"
   id="svg1"
   sodipodi:docname="btn__bpm_locked.svg"
   inkscape:version="1.3.2 (1:1.3.2+202311252150+091e20ef0f)"
   xmlns:inkscape="http://www.inkscape.org/namespaces/inkscape"
   xmlns:sodipodi="http://sodipodi.sourceforge.net/DTD/sodipodi-0.dtd"
   xmlns="http://www.w3.org/2000/svg"
   xmlns:svg="http://www.w3.org/2000/svg">
  <defs
     id="defs1" />
  <sodipodi:namedview
     id="namedview1"
     pagecolor="#ffffff"
     bordercolor="#666666"
     borderopacity="1.0"
     inkscape:showpageshadow="2"
     inkscape:pageopacity="0.0"
     inkscape:pagecheckerboard="0"
     inkscape:deskcolor="#d1d1d1"
     showgrid="true"
     inkscape:zoom="12.95"
     inkscape:cx="15.791506"
     inkscape:cy="21.969112"
     inkscape:window-width="1920"
     inkscape:window-height="1056"
     inkscape:window-x="0"
     inkscape:window-y="0"
     inkscape:window-maximized="1"
     inkscape:current-layer="svg1">
    <inkscape:grid
       id="grid1"
       units="px"
       originx="0"
       originy="0"
       spacingx="0.5"
       spacingy="0.5"
       empcolor="#3f3fff"
       empopacity="0.25098039"
       color="#3f3fff"
       opacity="0.1254902"
       empspacing="5"
       dotted="false"
       gridanglex="30"
       gridanglez="30"
       visible="true" />
  </sodipodi:namedview>
  <path
     id="path1-9-3"
     style="color:#000000;fill:none;fill-opacity:1;stroke-width:1.6;stroke:#000000;stroke-opacity:1;stroke-dasharray:none"
     d="M 11.964844,3.0001652 C 9.7915025,3.0150781 8.3021331,3.9893681 7.5644939,5.1358877 6.8268548,6.2824073 6.7448753,7.460074 6.7500483,8.0948449 c 0.00703,0.8624814 0.00124,3.3395501 0,3.9052371 H 5.7510341 c -0.6249987,0 -1.2509652,0.622462 -1.2509652,1.245106 v 6.509706 c 0,0.622643 0.6259814,1.245105 1.2509652,1.245105 H 18.248966 c 0.624998,0 1.250965,-0.622462 1.250965,-1.245105 v -6.509706 c 0,-0.622644 -0.625982,-1.245106 -1.250965,-1.245106 h -0.999014 c 2.53e-4,-0.447538 0.0015,-2.3659635 0,-3.2577821 -0.0015,-0.9181693 -0.09039,-2.2693943 -0.837884,-3.5155927 -0.7475,-1.2461983 -2.278365,-2.2414504 -4.447224,-2.226542 z m 0.01466,2.2499793 c 1.566993,-0.010771 2.110416,0.4791203 2.504853,1.1367083 0.394437,0.6575879 0.514423,1.629344 0.51562,2.3613063 0.0014,0.8835832 2.52e-4,2.8033759 0,3.2519229 H 9.0000276 c 0.00133,-0.570003 0.0074,-3.0150118 0,-3.9228151 -0.00289,-0.3554879 0.084277,-1.1462014 0.457027,-1.72557 C 9.8298045,5.7723225 10.392811,5.2610317 11.979492,5.2501445 Z M 7.5000413,15.000054 h 8.9999167 c 0.415497,0 0.749994,0.334499 0.749994,0.749994 0,0.415496 -0.334497,0.749993 -0.749994,0.749993 H 7.5000413 c -0.4154957,0 -0.7499931,-0.334497 -0.7499931,-0.749993 0,-0.415495 0.3344974,-0.749994 0.7499931,-0.749994 z m 0,2.999973 h 8.9999167 c 0.415497,0 0.749994,0.334498 0.749994,0.749993 0,0.415495 -0.334497,0.749993 -0.749994,0.749993 H 7.5000413 c -0.4154957,0 -0.7499931,-0.334498 -0.7499931,-0.749993 0,-0.415495 0.3344974,-0.749993 0.7499931,-0.749993 z" />
  <path
     id="path1-9"
     style="color:#000000;fill:#928476;stroke-width:1;-inkscape-stroke:none;fill-opacity:1"
     d="M 11.964844,3.0001652 C 9.7915025,3.0150781 8.3021331,3.9893681 7.5644939,5.1358877 6.8268548,6.2824073 6.7448753,7.460074 6.7500483,8.0948449 c 0.00703,0.8624814 0.00124,3.3395501 0,3.9052371 H 5.7510341 c -0.6249987,0 -1.2509652,0.622462 -1.2509652,1.245106 v 6.509706 c 0,0.622643 0.6259814,1.245105 1.2509652,1.245105 H 18.248966 c 0.624998,0 1.250965,-0.622462 1.250965,-1.245105 v -6.509706 c 0,-0.622644 -0.625982,-1.245106 -1.250965,-1.245106 h -0.999014 c 2.53e-4,-0.447538 0.0015,-2.3659635 0,-3.2577821 -0.0015,-0.9181693 -0.09039,-2.2693943 -0.837884,-3.5155927 -0.7475,-1.2461983 -2.278365,-2.2414504 -4.447224,-2.226542 z m 0.01466,2.2499793 c 1.566993,-0.010771 2.110416,0.4791203 2.504853,1.1367083 0.394437,0.6575879 0.514423,1.629344 0.51562,2.3613063 0.0014,0.8835832 2.52e-4,2.8033759 0,3.2519229 H 9.0000276 c 0.00133,-0.570003 0.0074,-3.0150118 0,-3.9228151 -0.00289,-0.3554879 0.084277,-1.1462014 0.457027,-1.72557 C 9.8298045,5.7723225 10.392811,5.2610317 11.979492,5.2501445 Z M 7.5000413,15.000054 h 8.9999167 c 0.415497,0 0.749994,0.334499 0.749994,0.749994 0,0.415496 -0.334497,0.749993 -0.749994,0.749993 H 7.5000413 c -0.4154957,0 -0.7499931,-0.334497 -0.7499931,-0.749993 0,-0.415495 0.3344974,-0.749994 0.7499931,-0.749994 z m 0,2.999973 h 8.9999167 c 0.415497,0 0.749994,0.334498 0.749994,0.749993 0,0.415495 -0.334497,0.749993 -0.749994,0.749993 H 7.5000413 c -0.4154957,0 -0.7499931,-0.334498 -0.7499931,-0.749993 0,-0.415495 0.3344974,-0.749993 0.7499931,-0.749993 z" />
</svg>
