<svg width="40" height="22" version="1.1" xmlns="http://www.w3.org/2000/svg">
  <path d="m14.7756 6.04464a0.80008 0.80008 0 0 0-0.753906 0.535156l-3.02344 8.60156a0.80008 0.80008 0 0 0 0.753906 1.06641h1.95703a0.80008 0.80008 0 0 0 0.765625-0.568359l0.449219-1.4707h1.9375l0.449219 1.4707a0.80008 0.80008 0 0 0 0.765624 0.568359h1.95703a0.80008 0.80008 0 0 0 0.537109-0.210937 0.80008 0.80008 0 0 0 0.541016 0.210937h5.28906a0.80008 0.80008 0 0 0 0.744141-0.507812 0.80008 0.80008 0 0 0 0.74414 0.507812h1.81641a0.80008 0.80008 0 0 0 0.800781-0.800781v-2.04492l1.5332 2.4668a0.80008 0.80008 0 0 0 0.677735 0.378906h2.0625a0.80008 0.80008 0 0 0 0.677734-1.22656l-2.71094-4.29883 2.63867-3.3457a0.80008 0.80008 0 0 0-0.628906-1.29688h-2.01562a0.80008 0.80008 0 0 0-0.625 0.302734l-1.60938 2.01953v-1.52148a0.80008 0.80008 0 0 0-0.800781-0.800781h-1.81641a0.80008 0.80008 0 0 0-0.798828 0.800781v6.66016a0.80008 0.80008 0 0 0-0.689453-0.394531h-2.67383v-6.26563a0.80008 0.80008 0 0 0-0.798828-0.800781h-1.81641a0.80008 0.80008 0 0 0-0.800781 0.800781v6.95117l-2.55859-7.25195a0.80008 0.80008 0 0 0-0.753906-0.535156zm-9.73047 0.0351563a0.80008 0.80008 0 0 0-0.800781 0.800781v1.51172a0.80008 0.80008 0 0 0 0.800781 0.800781h1.52539v6.25391a0.80008 0.80008 0 0 0 0.798828 0.800781h1.81641a0.80008 0.80008 0 0 0 0.800781-0.800781v-6.25391h1.52734a0.80008 0.80008 0 0 0 0.798829-0.800781v-1.51172a0.80008 0.80008 0 0 0-0.798829-0.800781zm2.69141 1.60156h1.08594a0.80008 0.80008 0 0 0-0.435547 0.710938v6.25391h-0.216797v-6.25391a0.80008 0.80008 0 0 0-0.433594-0.710938zm14.1738 0h0.216797v6.26563a0.80008 0.80008 0 0 0 0.412109 0.699219h-0.628906zm6.7793 0h0.216797v3.11914a0.80008 0.80008 0 0 0 0.572265 0.767578l-0.238281 0.169922a0.80008 0.80008 0 0 0-0.333984 0.650391v2.25781h-0.216797zm2.64453 2.24805-0.193359 0.246095a0.80008 0.80008 0 0 0-0.04883 0.921875l2.23828 3.54883h-0.167969l-2.00977-3.23047a0.80008 0.80008 0 0 0-0.634765-0.376953l0.542969-0.765625zm-16.8184 0.072266c-0.17609 0.587056-0.219359 0.763289-0.492188 1.64648a0.80008 0.80008 0 0 0 0.423828 0.958985h-0.117187a0.80008 0.80008 0 0 0-0.763672 0.568359l-0.449219 1.4707h-0.234375zm2.84375 0.277344 1.54102 4.36719h-0.234375l-0.447265-1.4707a0.80008 0.80008 0 0 0-0.763672-0.568359h-0.0957a0.80008 0.80008 0 0 0 0.425778-0.960938c-0.250787-0.806953-0.27025-0.866083-0.425781-1.36719zm-1.46289 0.6875c0.01458 0.04695 0.02183 0.068 0.03711 0.117188h-0.07227c0.01492-0.04895 0.02071-0.06966 0.03516-0.117188z" color="#000000" color-rendering="auto" dominant-baseline="auto" fill="#000001" image-rendering="auto" shape-rendering="auto" solid-color="#000000" style="font-feature-settings:normal;font-variant-alternates:normal;font-variant-caps:normal;font-variant-ligatures:normal;font-variant-numeric:normal;font-variant-position:normal;isolation:auto;mix-blend-mode:normal;shape-padding:0;text-decoration-color:#000000;text-decoration-line:none;text-decoration-style:solid;text-indent:0;text-orientation:mixed;text-transform:none;white-space:normal"/>
  <g transform="translate(-.0877193 .146199)" fill="#918273" aria-label="TALK">
    <path d="m9.27441 15.3008h-1.81641v-7.05469h-2.32617v-1.51172h6.46875v1.51172h-2.32617z"/>
    <path d="m18.1631 15.3008-0.621094-2.03906h-3.12305l-0.621093 2.03906h-1.95703l3.02344-8.60156h2.2207l3.03516 8.60156zm-1.05469-3.5625q-0.861328-2.77148-0.972656-3.13477-0.105469-0.363281-0.152344-0.574219-0.193359 0.75-1.10742 3.70898z"/>
    <path d="m21.1982 15.3008v-8.56641h1.81641v7.06641h3.47461v1.5z"/>
    <path d="m34.8682 15.3008h-2.0625l-2.24414-3.60938-0.767578 0.550782v3.05859h-1.81641v-8.56641h1.81641v3.91992l0.714844-1.00781 2.32031-2.91211h2.01562l-2.98828 3.79102z"/>
  </g>
</svg>
