<svg width="24" height="24" version="1.1" xmlns="http://www.w3.org/2000/svg">
		<path d="m11.999999 5.5116282c-3.7340627 0-6.766423 3.0324992-6.766423 6.7667318 0 .03993-.0009388.07686 0 .12531v.219292c-.7599946.643612-1.2530413 1.588929-1.2530413 2.662785 0 1.937792.6326094 3.50893 4.0194653 3.50893v-7.017354c-.242208 0-1.0030538.01567-1.2314482.06241.2161847-2.709799 2.465384-4.8244286 5.2314982-4.8244286 2.759698 0 5.00605 2.1235516 5.231498 4.8244286-.228394-.04674-.98933-.06241-1.231548-.06241v7.017354c3.539398 0 4.019565-1.571135 4.019565-3.508927 0-1.089995-.504605-2.050571-1.284317-2.694162.0061-.105852.03132-.203573.03132-.313275 0-3.7342327-3.03236-6.7667319-6.766424-6.7667319z" color="#000001" style="text-indent:0;text-transform:none"/>
</svg>
