<?xml version="1.0" encoding="UTF-8" standalone="no"?>
<svg
   version="1.1"
   viewBox="0 0 24 24"
   id="svg128"
   sodipodi:docname="btn__backward_down_beats_marker.svg"
   inkscape:version="1.2.2 (b0a8486541, 2022-12-01)"
   xmlns:inkscape="http://www.inkscape.org/namespaces/inkscape"
   xmlns:sodipodi="http://sodipodi.sourceforge.net/DTD/sodipodi-0.dtd"
   xmlns="http://www.w3.org/2000/svg"
   xmlns:svg="http://www.w3.org/2000/svg">
  <defs
     id="defs132" />
  <sodipodi:namedview
     id="namedview130"
     pagecolor="#505050"
     bordercolor="#eeeeee"
     borderopacity="1"
     inkscape:showpageshadow="0"
     inkscape:pageopacity="0"
     inkscape:pagecheckerboard="0"
     inkscape:deskcolor="#505050"
     showgrid="false"
     inkscape:zoom="31.782809"
     inkscape:cx="12.978714"
     inkscape:cy="12.113467"
     inkscape:window-width="1920"
     inkscape:window-height="1011"
     inkscape:window-x="0"
     inkscape:window-y="0"
     inkscape:window-maximized="1"
     inkscape:current-layer="svg128" />
  <g
     fill="none"
     stroke="#000000"
     stroke-linecap="round"
     stroke-linejoin="round"
     stroke-width="1.6"
     id="g116"
     transform="matrix(-1,0,0,1,24.701086,0)">
    <g
       transform="translate(1,-10)"
       id="g114">
      <path
         d="m 8,31 h 2 V 13 H 8 Z"
         id="path106" />
      <path
         d="m 13,31 h 2 V 13 h -2 z"
         id="path108" />
      <path
         d="m 18,31 h 2 V 13 h -2 z"
         id="path110" />
      <path
         d="M 3,31 H 5 V 13 H 3 Z"
         id="path112" />
    </g>
  </g>
  <g
     transform="matrix(-1,0,0,1,23.701086,-10)"
     fill="#3f3d3d"
     id="g126">
    <path
       d="m 8,31 h 2 V 13 H 8 Z"
       id="path118" />
    <path
       d="m 13,31 h 2 V 13 h -2 z"
       id="path120"
       style="fill:#ff0000" />
    <path
       d="M 3,31 H 5 V 13 H 3 Z"
       id="path122"
       style="fill:#ff0000" />
    <path
       d="m 18,31 h 2 V 13 h -2 z"
       id="path124" />
  </g>
  <path
     d="M 8.6967185,6.2388508 V 10.687604 H 22.265535 v 2.965828 H 8.6967185 v 4.44875 l -7.306285,-5.931664 z"
     fill="#928476"
     id="path850"
     style="fill:#928476;fill-opacity:1;stroke:#000000;stroke-width:1.353;stroke-linecap:round;stroke-linejoin:round;stroke-dasharray:none;stroke-opacity:1;paint-order:stroke fill markers" />
</svg>
