<?xml version="1.0" encoding="UTF-8" standalone="no"?>
<svg
   xmlns:dc="http://purl.org/dc/elements/1.1/"
   xmlns:cc="http://creativecommons.org/ns#"
   xmlns:rdf="http://www.w3.org/1999/02/22-rdf-syntax-ns#"
   xmlns:svg="http://www.w3.org/2000/svg"
   xmlns="http://www.w3.org/2000/svg"
   id="svg10"
   version="1.1"
   height="20"
   width="32">
  <metadata
     id="metadata16">
    <rdf:RDF>
      <cc:Work
         rdf:about="">
        <dc:format>image/svg+xml</dc:format>
        <dc:type
           rdf:resource="http://purl.org/dc/dcmitype/StillImage" />
        <dc:title></dc:title>
      </cc:Work>
    </rdf:RDF>
  </metadata>
  <defs
     id="defs14" />
  <g
     style="fill:#444443;fill-opacity:1"
     id="g8"
     fill="#666">
    <rect
       id="rect2"
       style="paint-order:fill markers stroke;fill:#444443;fill-opacity:1"
       ry="1"
       rx="1"
       height="6"
       width="8"
       y="7"
       x="1" />
    <path
       id="path4"
       style="paint-order:fill markers stroke;fill:#444443;fill-opacity:1"
       d="m13 7c-.554 0-1 .446-1 1h1zm1 0v1h1v-1zm2 0v1h1v-1zm2 0v1h2c0-.554-.446-1-1-1zm-6 2v1h1v-1zm7 0v1h1v-1zm-7 2v1c0 .554.446 1 1 1v-2zm7 0c0 .554-.446 1-1 1v1h1c.554 0 1-.446 1-1v-1zm-5 1v1h1v-1zm2 0v1h1v-1z" />
    <path
       id="path6"
       style="paint-order:fill markers stroke;fill:#444443;fill-opacity:1"
       d="m24 7c-.554 0-1 .446-1 1v4c0 .554.446 1 1 1h6c.554 0 1-.446 1-1v-4c0-.554-.446-1-1-1zm1 1h4c.554 0 1 .446 1 1v2c0 .554-.446 1-1 1h-4c-.554 0-1-.446-1-1v-2c0-.554.446-1 1-1z" />
  </g>
</svg>
