<svg width="50" height="24" version="1.1" xmlns="http://www.w3.org/2000/svg">
		<g fill="none">
				<path d="m16 8h-7v4h5v2h-5v1h7v-4h-5v-2h5v-1"/>
				<path d="m26 8v7h2v-6h3v6h2v-7h-7"/>
				<path d="m34 8v7h7v-1h-5v-5h5v-1h-7"/>
				<path d="m20 15v-3.5l-3-3v-.5h1.5l2.5 2.5 2.5-2.5h1.5v.5l-3 3v3.5h-2"/>
		</g>
		<g fill="none" stroke="#000001" stroke-linecap="round" stroke-linejoin="round" stroke-width="1.6">
				<path d="m16 8h-7v4h5v2h-5v1h7v-4h-5v-2h5z"/>
				<path d="m26 8v7h2v-6h3v6h2v-7z"/>
				<path d="m34 8v7h7v-1h-5v-5h5v-1z"/>
				<path d="m20 15v-3.5l-3-3v-.5h1.5l2.5 2.5 2.5-2.5h1.5v.5l-3 3v3.5z"/>
		</g>
		<g fill="#a89a8c">
				<path d="m16 8h-7v4h5v2h-5v1h7v-4h-5v-2h5z"/>
				<path d="m26 8v7h2v-6h3v6h2v-7z"/>
				<path d="m34 8v7h7v-1h-5v-5h5v-1z"/>
				<path d="m20 15v-3.5l-3-3v-.5h1.5l2.5 2.5 2.5-2.5h1.5v.5l-3 3v3.5z"/>
		</g>
</svg>
