<?xml version="1.0" encoding="UTF-8" standalone="no"?>
<svg
   xmlns:dc="http://purl.org/dc/elements/1.1/"
   xmlns:cc="http://creativecommons.org/ns#"
   xmlns:rdf="http://www.w3.org/1999/02/22-rdf-syntax-ns#"
   xmlns:svg="http://www.w3.org/2000/svg"
   xmlns="http://www.w3.org/2000/svg"
   id="svg14"
   version="1.1"
   height="24"
   width="24">
  <metadata
     id="metadata20">
    <rdf:RDF>
      <cc:Work
         rdf:about="">
        <dc:format>image/svg+xml</dc:format>
        <dc:type
           rdf:resource="http://purl.org/dc/dcmitype/StillImage" />
        <dc:title></dc:title>
      </cc:Work>
    </rdf:RDF>
  </metadata>
  <defs
     id="defs18" />
  <g
     style="stroke-width:1.6;stroke-miterlimit:4;stroke-dasharray:none;stroke-linejoin:round"
     id="g6"
     stroke-width="1.6"
     stroke="#000001"
     fill="none">
    <path
       style="stroke-width:1.6;stroke-miterlimit:4;stroke-dasharray:none;stroke-linejoin:round"
       id="path2"
       color="#000001"
       d="m20 18v-12h-5v-3l-7 3.75 7 3.75-1e-4-2.9999 3.5001-1e-4v9l-1.5-1e-4v1.5001z" />
    <path
       style="stroke-width:1.6;stroke-miterlimit:4;stroke-dasharray:none;stroke-linejoin:round"
       id="path4"
       color="#000001"
       d="m4 6v12h5v3l7-3.75-7-3.75 1e-4 2.9999-3.5001 1e-4v-9l1.5 1e-4v-1.5001z" />
  </g>
  <g
     id="g12"
     fill="#918273">
    <path
       id="path8"
       color="#000001"
       d="m20 18v-12h-5v-3l-7 3.75 7 3.75-1e-4-2.9999 3.5001-1e-4v9l-1.5-1e-4v1.5001z" />
    <path
       id="path10"
       color="#000001"
       d="m4 6v12h5v3l7-3.75-7-3.75 1e-4 2.9999-3.5001 1e-4v-9l1.5 1e-4v-1.5001z" />
  </g>
</svg>
