<?xml version="1.0" encoding="UTF-8" standalone="no"?>
<svg
   xmlns:dc="http://purl.org/dc/elements/1.1/"
   xmlns:cc="http://creativecommons.org/ns#"
   xmlns:rdf="http://www.w3.org/1999/02/22-rdf-syntax-ns#"
   xmlns:svg="http://www.w3.org/2000/svg"
   xmlns="http://www.w3.org/2000/svg"
   id="svg18"
   version="1.1"
   height="24"
   width="24">
  <metadata
     id="metadata24">
    <rdf:RDF>
      <cc:Work
         rdf:about="">
        <dc:format>image/svg+xml</dc:format>
        <dc:type
           rdf:resource="http://purl.org/dc/dcmitype/StillImage" />
        <dc:title></dc:title>
      </cc:Work>
    </rdf:RDF>
  </metadata>
  <defs
     id="defs22" />
  <g
     style="stroke-width:1.6;stroke-miterlimit:4;stroke-dasharray:none;stroke-linejoin:round"
     id="g8"
     stroke-width="1.6"
     stroke="#000001"
     fill="none">
    <path
       style="stroke-width:1.6;stroke-miterlimit:4;stroke-dasharray:none;stroke-linejoin:round"
       id="path2"
       color="#000001"
       d="m11 3h2v6h-2z" />
    <path
       style="stroke-width:1.6;stroke-miterlimit:4;stroke-dasharray:none;stroke-linejoin:round"
       id="path4"
       color="#000001"
       d="m20 5v13h-3l5e-4-1.5001 1.4995 1e-4v-10l-3.4999.000149.000125-1.5001z" />
    <path
       style="stroke-width:1.6;stroke-miterlimit:4;stroke-dasharray:none;stroke-linejoin:round"
       id="path6"
       color="#000001"
       d="m4 5v13h5v3l7-3.75-7-3.75 1e-4 2.9999-3.5001 1e-4v-10l3.5 1e-4v-1.5001z" />
  </g>
  <g
     id="g16"
     fill="#918273">
    <path
       id="path10"
       color="#000001"
       d="m11 3h2v6h-2z" />
    <path
       id="path12"
       color="#000001"
       d="m20 5v13h-3l5e-4-1.5001 1.4995 1e-4v-10l-3.4999.000149.000125-1.5001z" />
    <path
       id="path14"
       color="#000001"
       d="m4 5v13h5v3l7-3.75-7-3.75 1e-4 2.9999-3.5001 1e-4v-10l3.5 1e-4v-1.5001z" />
  </g>
</svg>
