<svg width="76" height="16" version="1.1" xmlns="http://www.w3.org/2000/svg">
	<g transform="matrix(-.60802 0 0 .68989 14.4115 1.101031)" fill="#a89a8c" stroke-width="1.12740004">
		<path transform="matrix(1.1347,0,0,1,-34.251,6)" d="m37.625-5-.1875 2.625c-.66019.16435-1.2765.43313-1.8438.78125l-1.9688-1.75-1.9688 1.9688 1.75 1.9688c-.34382.56314-.61891 1.1878-.78125 1.8438l-2.625.1875v2.75l2.625.1875c.16385.66212.431 1.2793.78125 1.8438l-1.75 1.9688 1.9688 1.9688 2-1.75c.55851.33599 1.1644.58862 1.8125.75l.1875 2.6562h2.75l.1875-2.625c.66019-.16435 1.2765-.43313 1.8438-.78125l1.9688 1.75 1.9688-1.9688-1.75-1.9688c.34382-.56314.61891-1.1878.78125-1.8438l2.625-.1875v-2.75l-2.625-.1875c-.16435-.66019-.43313-1.2765-.78125-1.8438l1.75-1.9688-1.9688-1.9688-1.9688 1.75c-.56314-.34382-1.1878-.61891-1.8438-.78125l-.1875-2.625zm1.375 6c1.6505 0 3 1.3495 3 3s-1.3495 3-3 3-3-1.3495-3-3 1.3495-3 3-3z" color="#000001" fill="#a89a8c"/>
	</g>
</svg>
