<svg width="48" height="48" version="1.1" viewBox="0 0 24 24" xmlns="http://www.w3.org/2000/svg">
  <g display="none" opacity=".360743">
    <g fill="none" stroke="#000001" stroke-linejoin="round" stroke-width="1.6">
      <path d="m20 18v-12h-5v-3l-7 3.75 7 3.75-1e-4 -2.9999 3.5001-1e-4v9l-1.5-1e-4v1.5001z" color="#000001"/>
      <path d="m4 6v12h5v3l7-3.75-7-3.75 1e-4 2.9999-3.5001 1e-4v-9l1.5 1e-4v-1.5001z" color="#000001"/>
    </g>
    <path d="m20 18v-12h-5v-3l-7 3.75 7 3.75-1e-4 -2.9999 3.5001-1e-4v9l-1.5-1e-4v1.5001z" fill="#918273"/>
    <path d="m4 6v12h5v3l7-3.75-7-3.75 1e-4 2.9999-3.5001 1e-4v-9l1.5 1e-4v-1.5001z" color="#000001" fill="#918273"/>
  </g>
  <path d="m17.77149 19.000456c0.707601 0 1.23828-0.615582 1.23828-1.2793v-9.4414096c0-0.663715-0.53068-1.2793-1.23828-1.2793h-3.761721v-3l-6.9999975 3.75 6.9999975 3.7499996v-2.9902296h3.490231v8.9804696h-1.49023v1.50977z" fill="#918273" stroke="#000" stroke-linecap="round" stroke-linejoin="round" stroke-width="1.6"/>
  <path d="m17.77149 19.000456c0.707601 0 1.23828-0.615582 1.23828-1.2793v-9.4414096c0-0.663715-0.53068-1.2793-1.23828-1.2793h-4.328121v1.50977h4.056641v8.9804696h-1.49023v1.50977z" fill="#918273"/>
  <path d="m14.009769 11.500456v-7.4999996l-6.9999995 3.75z" fill="#918273"/>
  <path d="m9.8876105 15.847945s-0.0048-1.894694 0-2.463016c0.0048-0.568564-0.200733-2.258735-2.442162-2.273548-2.227025-0.01474-2.474175 1.705053-2.475784 2.652486-9.97e-4 0.5684 0 2.084164 0 2.084164" fill="none" stroke="#f60" stroke-width="1.31632"/>
  <path d="m11.153776 15.63264c0.372575 0 0.745721 0.35739 0.745721 0.714885v3.737544c0 0.357495-0.373156 0.714887-0.745721 0.714887h-7.4502425c-0.372574 0-0.745721-0.357392-0.745721-0.714887v-3.737544c0-0.357495 0.373155-0.714885 0.745721-0.714885zm-1.042606 1.722449h-5.3650305c-0.247686 0-0.447088 0.192053-0.447088 0.430613 0 0.238558 0.199402 0.430612 0.447088 0.430612h5.3650305c0.247686 0 0.447086-0.192054 0.447086-0.430612 0-0.23856-0.1994-0.430613-0.447086-0.430613zm0 1.72245h-5.3650305c-0.247686 0-0.447088 0.192054-0.447088 0.430613s0.199402 0.430613 0.447088 0.430613h5.3650305c0.247686 0 0.447086-0.192054 0.447086-0.430613s-0.1994-0.430613-0.447086-0.430613z" color="#000001" fill="#f60" stroke-width=".877546" style="text-decoration-line:none;text-indent:0;text-transform:none"/>
</svg>
