<svg width="26" height="26" version="1.1" xmlns="http://www.w3.org/2000/svg">
  <path d="M 1.8007812,1 C 1.3662299,1 1,1.36623 1,1.8007812 V 24.199219 C 1,24.63377 1.36623,25 1.8007812,25 H 24.199219 C 24.63377,25 25,24.63377 25,24.199219 V 1.8007812 C 25,1.3662299 24.63377,1 24.199219,1 Z M 3,2 h 20 c 0.562649,0 1,0.4373514 1,1 v 20 c 0,0.562649 -0.437351,1 -1,1 H 3 C 2.4373514,24 2,23.562649 2,23 V 3 C 2,2.4373514 2.4373514,2 3,2 Z" color="#000000" color-rendering="auto" dominant-baseline="auto" fill="#000001" image-rendering="auto" shape-rendering="auto" solid-color="#000000" style="font-feature-settings:normal;font-variant-alternates:normal;font-variant-caps:normal;font-variant-ligatures:normal;font-variant-numeric:normal;font-variant-position:normal;isolation:auto;mix-blend-mode:normal;paint-order:fill markers stroke;shape-padding:0;text-decoration-color:#000000;text-decoration-line:none;text-decoration-style:solid;text-indent:0;text-orientation:mixed;text-transform:none;white-space:normal"/>
  <path d="m3 2c-0.562649 0-1 0.437352-1 1v0.5h1.10742c0.150078-0.293496 0.446907-0.5 0.800781-0.5h18.1836c0.353874 0 0.650703 0.206504 0.800781 0.5h1.10742v-0.5c0-0.562648-0.437351-1-1-1z" color="#000000" color-rendering="auto" dominant-baseline="auto" fill-opacity=".211765" image-rendering="auto" shape-rendering="auto" solid-color="#000000" style="font-feature-settings:normal;font-variant-alternates:normal;font-variant-caps:normal;font-variant-ligatures:normal;font-variant-numeric:normal;font-variant-position:normal;isolation:auto;mix-blend-mode:normal;paint-order:fill markers stroke;shape-padding:0;text-decoration-color:#000000;text-decoration-line:none;text-decoration-style:solid;text-indent:0;text-orientation:mixed;text-transform:none;white-space:normal"/>
  <path d="m3 24c-0.562649 0-1-0.437352-1-1v-19.5h1v18.5918c0 0.503636 0.404567 0.908203 0.908203 0.908203h18.1836c0.503636 0 0.908203-0.404567 0.908203-0.908203v-18.5918h1v19.5c0 0.562648-0.437351 1-1 1z" color="#000000" color-rendering="auto" dominant-baseline="auto" fill-opacity=".317647" image-rendering="auto" shape-rendering="auto" solid-color="#000000" style="font-feature-settings:normal;font-variant-alternates:normal;font-variant-caps:normal;font-variant-ligatures:normal;font-variant-numeric:normal;font-variant-position:normal;isolation:auto;mix-blend-mode:normal;paint-order:fill markers stroke;shape-padding:0;text-decoration-color:#000000;text-decoration-line:none;text-decoration-style:solid;text-indent:0;text-orientation:mixed;text-transform:none;white-space:normal"/>
</svg>
