<?xml version="1.0" encoding="UTF-8" standalone="no"?>
<svg
   xmlns:dc="http://purl.org/dc/elements/1.1/"
   xmlns:cc="http://creativecommons.org/ns#"
   xmlns:rdf="http://www.w3.org/1999/02/22-rdf-syntax-ns#"
   xmlns:svg="http://www.w3.org/2000/svg"
   xmlns="http://www.w3.org/2000/svg"
   version="1.1"
   height="12"
   width="10"
   id="svg2">
  <metadata
     id="metadata11">
    <rdf:RDF>
      <cc:Work
         rdf:about="">
        <dc:format>image/svg+xml</dc:format>
        <dc:type
           rdf:resource="http://purl.org/dc/dcmitype/StillImage" />
        <dc:title></dc:title>
      </cc:Work>
    </rdf:RDF>
  </metadata>
  <defs
     id="defs9" />
  <path
     style="fill:none;stroke:#4097ba;stroke-width:1.5;stroke-opacity:1"
     d="m 2.25,6.25 c 0,0 0.00538,-2.2 0,-2.8599 C 2.24462,2.72992 2.47449,0.7674 4.9812,0.7502 7.4718,0.73308 7.7482,2.73 7.75,3.8301 c 0.00108,0.65999 0,2.42 0,2.42"
     id="path8889-9" />
  <path
     style="color:#000001;text-indent:0;text-decoration:none;text-decoration-line:none;text-transform:none;fill:#4097ba;fill-opacity:1"
     d="M 0.83398,6 C 0.41731,6 0,6.41498 0,6.83008 v 4.3398 c 0,0.4151 0.41732,0.83008 0.83398,0.83008 h 8.332 c 0.41667,0 0.83398,-0.41498 0.83398,-0.83008 V 6.83008 C 9.99996,6.41498 9.58264,6 9.16598,6 Z m 1.166,2 h 6 c 0.277,0 0.5,0.223 0.5,0.5 0,0.277 -0.223,0.5 -0.5,0.5 h -6 c -0.277,0 -0.5,-0.223 -0.5,-0.5 0,-0.277 0.223,-0.5 0.5,-0.5 z m 0,2 h 6 c 0.277,0 0.5,0.223 0.5,0.5 0,0.277 -0.223,0.5 -0.5,0.5 h -6 c -0.277,0 -0.5,-0.223 -0.5,-0.5 0,-0.277 0.223,-0.5 0.5,-0.5 z"
     id="rect8885-1" />
</svg>
