<?xml version="1.0" encoding="UTF-8" standalone="no"?>
<svg
   xmlns:dc="http://purl.org/dc/elements/1.1/"
   xmlns:cc="http://creativecommons.org/ns#"
   xmlns:rdf="http://www.w3.org/1999/02/22-rdf-syntax-ns#"
   xmlns:svg="http://www.w3.org/2000/svg"
   xmlns="http://www.w3.org/2000/svg"
   version="1.1"
   height="18"
   width="30"
   id="svg2">
  <metadata
     id="metadata12">
    <rdf:RDF>
      <cc:Work
         rdf:about="">
        <dc:format>image/svg+xml</dc:format>
        <dc:type
           rdf:resource="http://purl.org/dc/dcmitype/StillImage" />
        <dc:title></dc:title>
      </cc:Work>
    </rdf:RDF>
  </metadata>
  <defs
     id="defs10" />
  <g
     style="fill:#000001;fill-opacity:1"
     transform="translate(0,-14)"
     id="ic_library_crates">
    <g
       style="fill:#000001;fill-opacity:1"
       fill="#f60"
       transform="matrix(.4151 0 0 .4151 -1.6604 19.547)"
       id="ic_library_unchecked">
      <rect
         style="fill:#000001;fill-opacity:1"
         color="#000001"
         height="19.273"
         width="4.818"
         y="-1.3179"
         x="54.591"
         id="rect3370" />
      <rect
         style="fill:#000001;fill-opacity:1"
         color="#000001"
         height="19.273"
         width="4.818"
         y="-1.3179"
         x="64.227"
         id="rect3372" />
      <path
         style="text-indent:0;text-transform:none;fill:#000001;fill-opacity:1"
         stroke-width="2.4091"
         color="#000001"
         d="m28.091-5.2913c-7.6146 0-14.009 6.184-14.009 13.799 0 0.081419-0.0018 0.15673 0 0.25552v0.44717c-1.5498 1.3124-2.5552 3.24-2.5552 5.4298 0 3.9514 2.9756 7.1547 6.927 7.1547v-14.309c-0.49392 0-0.77584 0.032462-1.2416 0.12776 0.44085-5.5257 5.2378-9.838 10.879-9.838 5.6277 0 10.418 4.3312 10.878 9.8387-0.46575-0.0953-0.74765-0.12776-1.2416-0.12776v14.309c3.9514 0 6.927-3.2033 6.927-7.1547 0-2.2227-1.029-4.1814-2.619-5.4938 0.01253-0.21585 0.06386-0.41511 0.06386-0.63881 2.1e-5 -7.6146-6.3933-13.799-14.008-13.799z"
         id="path9863-1-2-3" />
    </g>
  </g>
</svg>
