<svg width="48" height="48" version="1.1" xmlns="http://www.w3.org/2000/svg" viewBox="0 0 24 24">
  <g display="none" opacity=".360743">
    <g fill="none" stroke="#000001" stroke-linejoin="round" stroke-width="1.6">
      <path d="m20 18v-12h-5v-3l-7 3.75 7 3.75-1e-4 -2.9999 3.5001-1e-4v9l-1.5-1e-4v1.5001z" color="#000001"/>
      <path d="m4 6v12h5v3l7-3.75-7-3.75 1e-4 2.9999-3.5001 1e-4v-9l1.5 1e-4v-1.5001z" color="#000001"/>
    </g>
    <path d="m20 18v-12h-5v-3l-7 3.75 7 3.75-1e-4 -2.9999 3.5001-1e-4v9l-1.5-1e-4v1.5001z" fill="#918273"/>
    <path d="m4 6v12h5v3l7-3.75-7-3.75 1e-4 2.9999-3.5001 1e-4v-9l1.5 1e-4v-1.5001z" color="#000001" fill="#918273"/>
  </g>
  <path d="m9.23828 6c-0.707601 0-1.23828 0.615582-1.23828 1.2793v9.44141c0 0.663715 0.53068 1.2793 1.23828 1.2793h3.76172v3l7-3.75-7-3.75v2.99023h-3.49023v-8.98047h1.49023v-1.50977z" fill="#918273" stroke="#000" stroke-linecap="round" stroke-linejoin="round" stroke-width="1.6"/>
  <path d="m9.23828 6c-0.707601 0-1.23828 0.615582-1.23828 1.2793v9.44141c0 0.663715 0.53068 1.2793 1.23828 1.2793h4.32812v-1.50977h-4.05664v-8.98047h1.49023v-1.50977z" fill="#918273"/>
  <path d="m13 13.5v7.5l7-3.75z" fill="#918273"/>
</svg>
