<?xml version="1.0" encoding="UTF-8" standalone="no"?>
<svg
   width="44"
   height="44"
   version="1.1"
   viewBox="0 0 22 22"
   id="svg4"
   sodipodi:docname="btn__fx_ui_active.svg"
   inkscape:version="1.4 (e7c3feb1, 2024-10-09)"
   xmlns:inkscape="http://www.inkscape.org/namespaces/inkscape"
   xmlns:sodipodi="http://sodipodi.sourceforge.net/DTD/sodipodi-0.dtd"
   xmlns="http://www.w3.org/2000/svg"
   xmlns:svg="http://www.w3.org/2000/svg">
  <defs
     id="defs4" />
  <sodipodi:namedview
     id="namedview4"
     pagecolor="#505050"
     bordercolor="#eeeeee"
     borderopacity="1"
     inkscape:showpageshadow="0"
     inkscape:pageopacity="0"
     inkscape:pagecheckerboard="0"
     inkscape:deskcolor="#d1d1d1"
     inkscape:zoom="4.7045455"
     inkscape:cx="-11.690821"
     inkscape:cy="7.6521738"
     inkscape:window-width="1824"
     inkscape:window-height="977"
     inkscape:window-x="0"
     inkscape:window-y="25"
     inkscape:window-maximized="0"
     inkscape:current-layer="svg4" />
  <g
     transform="matrix(0.881636,0,0,0.882853,1.4147372,5.2834623)"
     fill="#918273"
     stroke-width="1.13347"
     id="g4"
     style="stroke-width:6.30494304;stroke-dasharray:none;fill:#000000;fill-opacity:1">
    <path
       id="rect5-7"
       style="fill:#000000;fill-opacity:1;stroke:none;stroke-width:1.2546;stroke-linecap:round;stroke-linejoin:round;stroke-dasharray:none;stroke-opacity:1"
       d="M 3.9115282 -0.47593546 L 3.9115282 13.426082 L 17.832735 13.426082 L 17.832735 -0.47593546 L 3.9115282 -0.47593546 z M 6.2786208 0.68440954 A 1.0548562 1.0534021 0 0 1 7.3342311 1.7374586 A 1.0548562 1.0534021 0 0 1 6.2786208 2.7905076 A 1.0548562 1.0534021 0 0 1 5.2241181 1.7374586 A 1.0548562 1.0534021 0 0 1 6.2786208 0.68440954 z M 8.8362328 0.68440954 A 1.0548562 1.0534021 0 0 1 9.8907354 1.7374586 A 1.0548562 1.0534021 0 0 1 8.8362328 2.7905076 A 1.0548562 1.0534021 0 0 1 7.7817301 1.7374586 A 1.0548562 1.0534021 0 0 1 8.8362328 0.68440954 z M 11.393845 0.68440954 A 1.0548562 1.0534021 0 0 1 12.448347 1.7374586 A 1.0548562 1.0534021 0 0 1 11.393845 2.7905076 A 1.0548562 1.0534021 0 0 1 10.338234 1.7374586 A 1.0548562 1.0534021 0 0 1 11.393845 0.68440954 z " />
  </g>
</svg>
