<svg width="21" height="18" version="1.1" viewBox="0 0 21 18" xmlns="http://www.w3.org/2000/svg">
  <path d="m10.5 2.5c-1.3568 0-2.5597 0.6128-3.3848 1.5625l1.5039 1.3066c0.45838-0.52834 1.1265-0.86914 1.8809-0.86914 1.3807 0 2.5 1.1193 2.5 2.5v1h2v-1c0-2.4853-2.0147-4.5-4.5-4.5zm-0.5 7.5v3h1v-3zm-6-2h13v7h-13z" fill="none" stroke="#000" stroke-linecap="round" stroke-linejoin="round" stroke-width="1.7"/>
  <path d="m10.5 2.5c-1.3568 0-2.5597 0.6128-3.3848 1.5625l1.5039 1.3066c0.45838-0.52834 1.1265-0.86914 1.8809-0.86914 1.3807 0 2.5 1.1193 2.5 2.5v1h2v-1c0-2.4853-2.0147-4.5-4.5-4.5zm-0.5 7.5v3h1v-3zm-6-2h13v7h-13z" fill="#444"/>
</svg>
