<!-- Created with Inkscape (http://www.inkscape.org/) -->
<svg id="svg2" width="34" height="28" version="1.1" xmlns="http://www.w3.org/2000/svg" xmlns:xlink="http://www.w3.org/1999/xlink"><path id="path4256" d="m13.821 6.3712c-3.682 1.2993-6.3461 5.0531-6.3504 8.9478-1.37e-5 2.4878 1.027 4.9603 2.7912 6.7195 1.7641 1.7592 4.2436 2.7833 6.7385 2.7833 2.4949 1.3e-5 4.9744-1.0241 6.7385-2.7833 1.7641-1.7591 2.7912-4.2316 2.7912-6.7195-5e-3 -3.8942-2.6689-7.6471-6.3504-8.9462v5.6521c0 1.7228-1.4516 3.1703-3.1792 3.1703-1.7277 0-3.1792-1.4475-3.1792-3.1703z" fill="#797979" stroke="#000" stroke-linecap="round" stroke-width=".6"/><path id="rect4263" d="m17 2.7866c-0.68629 0-1.2388 0.51146-1.2388 1.1468v8.1736c0 0.63531 0.5525 1.1468 1.2388 1.1468 0.68629 0 1.2388-0.51146 1.2388-1.1468v-8.1736c0-0.63531-0.5525-1.1468-1.2388-1.1468z" fill="#111" stroke="#111" stroke-width="5"/><path id="rect4263-2" d="m17 2.5547c0.68629 0 1.2388 0.55094 1.2388 1.2353v8.2353c0 0.68435-0.5525 1.2353-1.2388 1.2353-0.68629 0-1.2388-0.55094-1.2388-1.2353v-8.2353c0-0.68435 0.5525-1.2353 1.2388-1.2353z" fill="#fff" fill-opacity=".94118"/></svg>
